<?xml version="1.0" encoding="UTF-8" standalone="no"?>
<!DOCTYPE svg PUBLIC "-//W3C//DTD SVG 1.1//EN" "http://www.w3.org/Graphics/SVG/1.1/DTD/svg11.dtd">
<svg width="100%" height="100%" viewBox="0 0 406 529" version="1.1" xmlns="http://www.w3.org/2000/svg" xmlns:xlink="http://www.w3.org/1999/xlink" xml:space="preserve" xmlns:serif="http://www.serif.com/" style="fill-rule:evenodd;clip-rule:evenodd;stroke-linejoin:bevel;">
  <rect id="L1-1" x="0.103" y="0.195" width="405.12" height="528" style="fill:none;"/>
  <clipPath id="_clip1">
    <rect x="0.103" y="0.195" width="405.12" height="528"/>
  </clipPath>
  <g clip-path="url(#_clip1)">
    <g>
      <path d="M0.103,213.795l405.12,-0" style="fill:none;fill-rule:nonzero;stroke:#000;stroke-width:3.12px;"/>
      <path d="M0.103,238.995l405.12,-0" style="fill:none;fill-rule:nonzero;stroke:#000;stroke-width:3.12px;"/>
      <path d="M0.103,264.195l405.12,-0" style="fill:none;fill-rule:nonzero;stroke:#000;stroke-width:3.12px;"/>
      <path d="M0.103,289.395l405.12,-0" style="fill:none;fill-rule:nonzero;stroke:#000;stroke-width:3.12px;"/>
      <path d="M0.103,314.595l405.12,-0" style="fill:none;fill-rule:nonzero;stroke:#000;stroke-width:3.12px;"/>
      <path d="M214.422,280.921c-0.095,-0.094 -0.299,-0.299 -0.599,-0.693l-11.592,-14.316c-0.11,-0.111 -0.204,-0.41 -0.204,-0.615c-0,-0.299 0.094,-0.693 0.204,-0.897l10.269,-15.53c0.111,-0.205 0.205,-0.504 0.205,-0.709l0,-0.897c0,-0.3 -0.094,-0.615 -0.299,-0.804l-16.333,-22.081c0,-0 -0.394,-0.614 -1.008,-0.614c-0.299,-0 -0.504,-0 -0.803,0.315c-0.41,0.299 -0.504,0.693 -0.504,1.008c-0,0.598 0.299,1.102 0.299,1.102l7.67,10.49c0.189,0.299 0.3,0.693 0.3,1.197c-0,0.409 -0.111,0.913 -0.3,1.212l-10.19,15.53c-0.094,0.205 -0.205,0.598 -0.205,0.803l0,0.914c0,0.299 0.111,0.598 0.315,0.803l11.277,14.017c-0.393,-0.11 -1.307,-0.315 -2.52,-0.315c-5.134,0 -9.166,4.237 -9.166,9.387c-0,1.402 0.299,2.82 1.102,3.922c2.127,3.229 9.687,12.805 9.687,12.805c-0,-0 0.504,0.614 1.212,0.614c0.189,0 0.394,0 0.599,-0.205c0.504,-0.409 0.709,-0.803 0.709,-1.212c-0,-0.41 -0.205,-0.709 -0.3,-0.914c-0.315,-0.504 -3.528,-6.347 -3.528,-6.347c0,-0 -0.708,-1.418 -0.708,-3.229c-0,-3.229 2.409,-5.843 5.638,-5.843c1.307,-0 2.426,0.409 3.229,0.913l3.937,2.52c0,0 0.394,0.189 0.804,0.189c0.393,0 0.708,-0.094 1.008,-0.504c0.204,-0.299 0.299,-0.598 0.299,-0.897c-0,-0.3 -0.095,-0.504 -0.299,-0.804l-0.205,-0.315" style="fill-rule:nonzero;"/>
    </g>
	  <a href="L1-2.svg">
    <circle cx="364.711" cy="491.235" r="17.4" style="fill:#47c6ff;"/>
	  </a>
  </g>
</svg>
