<?xml version="1.0" encoding="UTF-8" standalone="no"?>
<!DOCTYPE svg PUBLIC "-//W3C//DTD SVG 1.1//EN" "http://www.w3.org/Graphics/SVG/1.1/DTD/svg11.dtd">
<svg width="100%" height="100%" viewBox="0 0 406 529" version="1.1" xmlns="http://www.w3.org/2000/svg" xmlns:xlink="http://www.w3.org/1999/xlink" xml:space="preserve" xmlns:serif="http://www.serif.com/" style="fill-rule:evenodd;clip-rule:evenodd;stroke-linejoin:bevel;">
  <rect id="L1-2" x="0.035" y="0.007" width="405.12" height="528" style="fill:none;"/>
  <clipPath id="_clip1">
    <rect x="0.035" y="0.007" width="405.12" height="528"/>
  </clipPath>
  <g clip-path="url(#_clip1)">
    <path d="M0.035,213.607l405.12,0" style="fill:none;fill-rule:nonzero;stroke:#000;stroke-width:3.12px;"/>
    <path d="M0.035,238.807l405.12,0" style="fill:none;fill-rule:nonzero;stroke:#000;stroke-width:3.12px;"/>
    <path d="M0.035,264.007l405.12,0" style="fill:none;fill-rule:nonzero;stroke:#000;stroke-width:3.12px;"/>
    <path d="M0.035,289.207l405.12,0" style="fill:none;fill-rule:nonzero;stroke:#000;stroke-width:3.12px;"/>
    <path d="M0.035,314.407l405.12,0" style="fill:none;fill-rule:nonzero;stroke:#000;stroke-width:3.12px;"/>
    <g>
      <path d="M201.127,263.511c-13.638,0 -18.487,6.919 -18.487,13.344c-0,6.425 4.849,13.345 18.487,13.345c13.637,-0 18.379,-6.92 18.379,-13.345c-0,-6.425 -4.742,-13.344 -18.379,-13.344m0.787,23.522c-2.764,0 -4.648,-0.787 -5.93,-3.258c-1.282,-2.472 -3.058,-8.897 -3.167,-11.476c-0.2,-2.672 0.788,-4.247 3.167,-5.035c1.189,-0.401 2.764,-0.602 4.355,-0.602c2.656,-0 4.448,0.602 5.823,3.274c1.39,2.564 3.274,8.989 3.274,11.46c-0,4.85 -3.568,5.637 -7.522,5.637" style="fill-rule:nonzero;"/>
      <path d="M223.714,177.115c-9.282,-10.086 -17.499,-10.672 -22.626,-10.672c-5.143,-0 -13.252,0.586 -22.549,10.672c-4.834,5.343 -8.201,15.908 -8.201,21.251c-0,1.885 0.401,3.166 1.39,3.166c2.764,0 1.374,-8.509 9.683,-16.911c7.306,-7.306 17.098,-7.414 19.476,-7.414l0.386,0c2.379,0 12.17,0.108 19.476,7.414c8.309,8.402 6.919,16.911 9.683,16.911c0.989,0 1.39,-1.189 1.39,-3.166c0,-5.343 -3.258,-16.016 -8.108,-21.251m-29.453,18.873c0,3.768 3.058,6.826 6.827,6.826c3.753,0 6.811,-3.058 6.811,-6.826c-0,-3.753 -3.058,-6.811 -6.811,-6.811c-3.769,-0 -6.827,3.058 -6.827,6.811" style="fill-rule:nonzero;"/>
      <path d="M197.783,382.874c-2.11,0 -4.059,1.962 -4.059,4.072c-0,4.06 2.727,6.33 6.329,6.33c2.505,0 4.295,-0.79 6.256,-2.739c3.431,-3.443 7.194,-15.091 9.069,-21.73c0.704,-2.505 1.408,-4.923 1.95,-6.724l0,-0.161l5.627,0c0.469,0 0.79,-0.308 0.79,-0.777l-0,-1.728c-0,-0.469 -0.321,-0.777 -0.79,-0.777l-4.615,-0l-0,-0.235c2.197,-7.97 2.826,-9.378 3.998,-10.315c0.617,-0.469 1.172,-0.629 1.555,-0.629c0.16,-0 0.321,0.074 0.395,0.074c0.468,0.086 0.863,0.555 0.863,1.024c0,0.382 -0.16,0.777 -0.468,0.937c-0.79,0.617 -1.173,1.641 -1.173,2.727c0,0.395 0.074,0.704 0.148,1.099c0.235,0.703 0.864,1.406 1.642,1.727c0.32,0.148 0.863,0.309 1.406,0.309c1.641,-0 3.282,-1.247 3.677,-2.813c0.161,-0.395 0.161,-0.864 0.161,-1.333c-0,-3.912 -3.517,-5.936 -7.034,-5.936c-7.279,0 -10.475,7.416 -12.438,13.203l0,0.161l-5.935,-0c-0.469,-0 -0.789,0.308 -0.789,0.777l-0,1.728c-0,0.469 0.32,0.777 0.789,0.777l4.837,0l0,0.308c-0.777,3.135 -1.407,5.787 -1.949,8.367c-0.63,2.899 -1.333,5.873 -2.271,9.463l-0.234,0.939c-1.641,6.416 -2.11,8.674 -3.986,9.933c-0.382,0.234 -0.851,0.382 -1.32,0.382c-0.395,-0 -0.79,-0.148 -1.098,-0.382c-0.321,-0.235 -0.395,-0.47 -0.395,-0.864c0.074,-0.308 0.235,-0.63 0.63,-0.777c1.48,-0.63 1.949,-2.036 1.949,-3.282c-0,-1.099 -0.703,-3.135 -3.517,-3.135m3.911,-8.131c-0.394,0.703 -0.777,0.863 -1.172,0.863c-0.16,0 -0.234,0 -0.394,-0.074c-0.395,-0.16 -0.544,-0.469 -0.544,-0.864c0,-0.629 1.013,-4.306 1.333,-5.01c0.469,-1.406 1.012,-4.602 1.012,-6.724c-0,-0.383 -0,-0.778 -0.074,-1.086c-0.395,-2.11 -1.333,-3.134 -2.974,-3.134c-2.035,-0 -4.22,1.493 -5.244,2.814l-0.148,0.32l-0.16,-0.395c-0,0 -1.247,-2.739 -3.369,-2.739c-2.184,-0 -3.825,0.864 -5.157,2.665l-0.235,0.309l-0.074,-0.395c-0,0 -1.012,-2.259 -2.974,-2.653c-0.383,-0.074 -0.777,-0.074 -1.086,-0.074c-3.208,0 -4.936,3.282 -5.787,5.935l1.173,0.629c-0,0 1.32,-4.22 3.047,-4.22c0.149,0 0.235,0 0.382,0.074c0.469,0.161 0.63,0.544 0.63,1.172c-0,1.099 -0.63,2.974 -1.481,5.479c-0,0.074 -2.9,8.749 -3.134,9.538l-0.074,0.235c0,0.234 0.074,0.382 0.161,0.542c0.147,0.161 0.308,0.309 0.616,0.309l4.146,0c0.161,0 0.555,0 0.864,-1.246c0.777,-3.591 4.06,-15.634 6.959,-15.634c0.149,0 0.383,0.074 0.469,0.235c0.149,0.147 0.235,0.469 0.235,0.851c-0,1.333 -0.79,3.837 -1.727,7.046c-1.173,3.825 -2.345,7.502 -2.345,7.502l-0,0.309c-0,0.555 0.16,0.937 0.79,0.937l4.293,0c0.309,0 0.704,-0.074 0.864,-0.937c0,-0.075 0.074,-0.309 0.074,-0.544c1.567,-10.944 4.072,-14.227 5.948,-15.017l0.074,-0.073l0.16,-0c0.075,0.073 0.148,0.073 0.148,0.073c0.161,0.087 0.395,0.322 0.395,0.704c-0,0.79 -0.468,3.911 -2.109,8.132c-0.47,1.258 -0.704,2.43 -0.704,3.529c-0,2.418 1.246,4.219 3.911,4.219c3.517,0 4.85,-2.813 5.936,-5.713l-0,-0.234c0.086,-0 0.086,-0.074 0.086,-0.074l-1.332,-0.629c-0,0 -0.864,2.109 -1.408,3.048" style="fill-rule:nonzero;"/>
    </g>
    <g>
      <rect id="Link-backer" serif:id="Link backer" x="160.43" y="463.065" width="84" height="30.06" style="fill:#fff;"/>
      <path d="M130.506,490.112l0.08,-0.02c0.02,-0.04 0.06,-0.1 0.06,-0.18c0,-0.08 -0.02,-0.16 -0.08,-0.24c-0.22,-0.3 -1.12,-2.24 -1.46,-3.62c-0.38,-1.38 -0.4,-2.5 -0.4,-4.02c0,-1.54 0.2,-2.64 0.58,-3.94c0.2,-0.68 0.42,-1.14 0.62,-1.48c0.1,-0.16 0.42,-0.66 0.5,-0.76c0.1,-0.18 0.16,-0.34 0.16,-0.48c0,-0.1 -0.04,-0.18 -0.08,-0.24c-0.02,-0.02 -0.06,-0.02 -0.08,-0.02c-0.12,-0 -0.42,0.08 -0.52,0.2c-0.1,0.2 -0.38,0.7 -0.6,1.18c-0.24,0.46 -0.74,1.58 -0.98,2.24c-0.22,0.6 -0.5,1.54 -0.5,3.48l0,0.32c0.02,1.08 0.18,2.06 0.32,2.82c0.16,0.76 0.3,1.32 0.38,1.6c0.16,0.52 1.16,2.42 1.44,2.86c0.14,0.24 0.44,0.3 0.56,0.3Z" style="fill-rule:nonzero;"/>
      <path d="M137.806,487.492c0.16,-0.1 0.3,-0.22 0.4,-0.32c0.1,-0.12 0.2,-0.22 0.3,-0.28c0.12,-0.12 0.26,-0.18 0.4,-0.18c0.2,-0 0.38,0.16 0.38,0.4c0,0.06 0,0.12 -0.02,0.18c0,0.02 -0.02,0.04 -0.02,0.06c0,0.18 0.2,0.2 0.76,0.24l0.1,-0c0.3,-0 0.36,-0.08 0.4,-0.16l0,-3.94c0,-0.66 -0.02,-1.36 -0.02,-2c0,-0.32 0,-0.62 0.02,-0.9l0,-0.1c0,-0.52 -0.26,-0.54 -0.6,-0.54l-0.2,-0c-0.24,-0 -0.36,0.02 -0.36,0.16c0,0.1 0.02,0.18 0.02,0.24c0,0.32 -0.12,0.6 -0.36,0.68c-0.04,0.02 -0.06,0.02 -0.1,0.02c-0.14,-0 -0.32,-0.1 -0.5,-0.26c-0.18,-0.16 -0.32,-0.34 -0.48,-0.5c-0.22,-0.28 -1.04,-0.52 -1.8,-0.52c-1.12,-0 -2.4,0.72 -3.02,1.58c-0.44,0.64 -0.6,1.64 -0.68,2.46l0,0.16c0,0.78 0.46,2.04 0.96,2.66c0.52,0.66 1.4,1.26 2.88,1.26c0.72,-0 1.2,-0.18 1.54,-0.4Zm1.54,-3.68c-0.06,0.84 -0.34,1.84 -1.04,2.36c-0.54,0.42 -0.96,0.52 -1.58,0.52c-0.12,-0 -0.24,-0.02 -0.4,-0.02c-0.9,-0.06 -1.66,-0.46 -1.98,-0.98c-0.26,-0.48 -0.44,-1.1 -0.44,-1.8l0,-0.18c0.04,-0.72 0.34,-1.94 0.72,-2.22c0.28,-0.22 1.14,-0.58 1.86,-0.58c0.12,-0 0.24,-0 0.36,0.02l0.46,0.1c0.08,-0 0.08,0.02 0.1,0.02c0.12,0.04 0.3,0.06 0.42,0.12c0.36,0.12 0.7,0.34 0.96,0.78l0.3,0.52c0.02,0.14 0.14,0.28 0.2,0.4c0.06,0.16 0.1,0.34 0.1,0.54c0,0.12 -0.02,0.26 -0.04,0.4Z" style="fill-rule:nonzero;"/>
      <path d="M150.266,486.532c-0.06,-0.52 -0.12,-2.16 -0.12,-3.32c0,-0.24 0.02,-0.48 0.02,-0.66l0,-0.08c0,-0.92 -0.48,-1.72 -0.76,-2.06c-0.28,-0.36 -0.88,-0.7 -1.66,-0.72l-0.14,-0c-0.66,-0 -1.06,0.24 -1.74,0.88c-0.28,0.26 -0.5,0.34 -0.64,0.36c-0.12,-0 -0.18,-0.06 -0.22,-0.12c-0.04,-0.1 -0.06,-0.22 -0.06,-0.34c0,-0.12 0,-0.22 0.02,-0.32c0,-0.34 -0.32,-0.4 -0.56,-0.4c-0.22,-0 -0.6,0.02 -0.68,0.2c-0.02,0.06 -0.04,0.14 -0.04,0.24c0.02,0.12 0.04,0.22 0.04,0.36c0.04,0.56 0.28,1.82 0.28,2.64c0,0.82 -0.04,1.82 -0.2,3.14c-0.04,0.24 -0.04,0.42 -0.04,0.58c0,0.58 0.2,0.7 0.66,0.7c0.06,-0 0.14,-0.02 0.24,-0.02c0.4,-0.02 0.48,-0.14 0.5,-0.2l0,-0.14c0,-0.14 -0.02,-0.3 -0.04,-0.4c-0.08,-0.44 -0.16,-2.04 -0.16,-2.74c0,-0.66 0.1,-1.76 0.52,-2.34c0.44,-0.6 1.1,-0.94 1.7,-0.94l0.28,-0c0.12,-0 0.26,-0 0.38,0.04c0.22,0.04 0.42,0.16 0.7,0.38c0.34,0.26 0.48,0.6 0.54,1.02c0.04,0.24 0.04,0.52 0.04,0.82l0,0.64c0,1.14 -0.16,1.78 -0.24,2.9c0,0.08 -0.02,0.18 -0.02,0.24c0,0.74 0.34,0.76 0.94,0.76c0.42,-0 0.52,-0.22 0.52,-0.54c0,-0.18 -0.04,-0.38 -0.06,-0.56Z" style="fill-rule:nonzero;"/>
      <path d="M160.366,480.412c0.06,-0.1 0.08,-0.16 0.08,-0.2c0,-0.08 -0.06,-0.1 -0.12,-0.12c-0.08,-0.04 -0.2,-0.06 -0.32,-0.08l-0.3,-0.02c-0.06,-0 -0.16,-0.02 -0.24,-0.02c-0.18,-0 -0.36,0.04 -0.38,0.18c-0.04,0.36 -0.62,1.66 -0.84,2.14c-0.22,0.46 -0.7,1.66 -0.86,2.12c-0.16,0.52 -0.44,1.2 -0.88,1.32c-0.06,0.02 -0.12,0.04 -0.16,0.04c-0.2,-0 -0.32,-0.14 -0.4,-0.32c0,-0.08 -0.04,-0.18 -0.06,-0.3c-0.02,-0.1 -0.04,-0.22 -0.06,-0.32c-0.06,-0.22 -0.18,-0.44 -0.32,-0.74c-0.16,-0.28 -0.32,-0.6 -0.46,-0.96c-0.28,-0.72 -0.74,-1.76 -1,-2.52c-0.26,-0.64 -0.46,-0.68 -1.12,-0.74l-0.14,-0c-0.3,-0 -0.42,0.12 -0.42,0.26c0,0.28 0.28,0.64 0.42,0.78c0.18,0.2 0.4,0.64 0.64,1.08c0.22,0.44 0.48,0.92 0.72,1.3c0.1,0.2 0.22,0.42 0.32,0.66l0.28,0.72c0.2,0.48 0.38,0.94 0.66,1.26c0.36,0.44 0.5,0.86 0.5,1.2l0,0.08c0,0.22 -0.06,0.42 -0.12,0.56c-0.16,0.26 -0.38,0.64 -0.62,1.34c-0.12,0.36 -0.32,0.7 -0.5,1c-0.18,0.3 -0.36,0.58 -0.52,0.9c-0.06,0.1 -0.1,0.2 -0.1,0.24c0,0.24 0.3,0.24 0.8,0.28c0.04,-0 0.1,0.02 0.14,0.02c0.24,-0 0.34,-0.08 0.4,-0.16c0.06,-0.08 0.1,-0.16 0.14,-0.28l0.14,-0.4c0.12,-0.3 0.22,-0.6 0.32,-0.88c0.12,-0.3 0.24,-0.6 0.4,-0.9c0.32,-0.6 0.86,-2.22 1.26,-2.98c0.38,-0.74 0.9,-2.02 1.2,-2.64c0.3,-0.62 1.14,-2.24 1.52,-2.9Z" style="fill-rule:nonzero;"/>
      <path d="M173.346,487.092c0,-0.08 0,-0.16 -0.02,-0.28l-0.04,-0.4c-0.02,-0.3 -0.08,-0.42 -0.18,-0.42c-0.02,-0 -0.08,0.02 -0.14,0.06c-0.36,0.26 -0.96,0.56 -1.78,0.56l-0.26,-0c-0.92,-0.1 -1.2,-0.22 -1.88,-0.7c-0.74,-0.52 -0.88,-1.46 -0.88,-2.2c0,-0.8 0.24,-1.56 0.94,-2.12c0.72,-0.58 1.08,-0.64 1.88,-0.68l0.14,-0c0.76,-0 1.26,0.22 1.78,0.58c0.1,0.06 0.18,0.12 0.2,0.12c0.02,-0 0.04,-0.02 0.06,-0.04c0.04,-0.06 0.04,-0.14 0.08,-0.26c0.02,-0.14 0.06,-0.3 0.06,-0.5c0.02,-0.08 0.02,-0.14 0.02,-0.2c0,-0.2 -0.06,-0.3 -0.12,-0.36c-0.08,-0.06 -0.14,-0.12 -0.22,-0.16c-0.1,-0.06 -0.2,-0.1 -0.28,-0.18c-0.32,-0.2 -0.84,-0.22 -1.92,-0.28l-0.08,-0c-1.08,-0 -2.06,0.62 -2.78,1.26c-0.64,0.6 -1,2.1 -1,2.94l0,0.12c0.04,0.84 0.3,1.88 1.18,2.76c0.86,0.86 1.8,1.1 2.66,1.16l0.16,-0c0.36,-0 0.66,-0.06 0.96,-0.12c0.34,-0.08 0.66,-0.22 1.02,-0.34c0.38,-0.14 0.42,-0.24 0.44,-0.32Z" style="fill-rule:nonzero;"/>
      <path d="M177.306,487.252c0,-0.3 -0.12,-1.44 -0.2,-1.92c-0.04,-0.24 -0.04,-1.2 -0.04,-2.2l0,-2.74c0,-1.26 0.08,-3.72 0.16,-4.82l0,-0.2c0,-0.74 -0.36,-0.78 -0.76,-0.84l-0.1,-0c-0.28,-0 -0.6,0.08 -0.6,0.18c0,0.16 0.04,1.06 0.08,1.52c0.02,0.24 0.02,1.2 0.02,2.24l0,2.64c0.02,0.3 0.02,0.8 0.02,1.36c0,1.42 -0.02,3.34 -0.08,4.24c-0.02,0.1 -0.02,0.18 -0.02,0.26c0,0.42 0.12,0.58 0.24,0.64c0.08,0.08 0.24,0.1 0.36,0.1c0.12,-0 0.24,-0.02 0.34,-0.02c0.52,-0.04 0.58,-0.22 0.58,-0.44Z" style="fill-rule:nonzero;"/>
      <path d="M187.586,483.592c0,-0.02 0.02,-0.04 0.02,-0.08c0,-0.02 -0.02,-0.08 -0.02,-0.14l-0.08,-0.42c-0.14,-0.64 -0.84,-1.7 -1.36,-2.32c-0.52,-0.56 -1.52,-0.9 -2.36,-0.94l-0.22,-0c-0.86,-0 -1.54,0.42 -2.24,0.88l-0.16,0.1c-0.76,0.46 -1.3,1.98 -1.34,3.18l0,0.06c0,1.14 0.86,2.4 1.54,3.16c0.66,0.7 2.02,0.72 2.7,0.72c0.64,-0 1.16,-0.16 1.5,-0.34c0.14,-0.08 0.34,-0.24 0.58,-0.44c0.22,-0.2 0.46,-0.4 0.72,-0.6c0.2,-0.14 0.3,-0.3 0.3,-0.46c0,-0.18 -0.1,-0.36 -0.4,-0.6c-0.1,-0.08 -0.2,-0.12 -0.26,-0.12c-0.1,-0 -0.16,0.06 -0.24,0.12c-0.14,0.16 -0.24,0.36 -0.32,0.56c-0.16,0.36 -0.96,0.76 -1.96,0.76l-0.16,-0c-0.66,-0.02 -1.22,-0.22 -1.72,-0.62l-0.3,-0.24c-0.32,-0.28 -0.64,-1.08 -0.64,-1.58l0,-0.14c0.06,-0.24 0.54,-0.38 1.14,-0.4c0.5,-0 1.06,0.02 1.36,0.02c0.42,-0 1.58,0.02 2.48,0.02c0.46,-0 0.86,-0 1.08,-0.02c0.34,-0 0.36,-0.08 0.36,-0.12Zm-1.42,-1.32c0.06,0.1 0.08,0.18 0.08,0.26c0,0.22 -0.18,0.36 -0.54,0.36c-0.78,-0 -1.64,0.02 -1.98,0.02c-0.36,-0 -1.42,-0.02 -1.64,-0.08c-0.22,-0.02 -0.7,-0.28 -0.7,-0.64c0,-0.12 0.04,-0.24 0.14,-0.36c0.32,-0.44 1.2,-1.04 2.24,-1.04l0.08,-0c0.94,0.04 1.26,0.32 1.72,0.76c0.2,0.2 0.48,0.46 0.6,0.72Z" style="fill-rule:nonzero;"/>
      <path d="M194.146,475.072l0,-0.12c0,-0.32 -0.16,-0.48 -0.38,-0.56c-0.28,-0.1 -0.62,-0.12 -0.92,-0.16c-0.58,-0 -1.14,0.54 -1.5,0.9c-0.52,0.5 -0.74,1.5 -0.74,1.98l0.12,2.22c0,0.48 -0.24,0.6 -0.54,0.6c-0.18,-0 -0.4,-0.04 -0.58,-0.12l-0.08,-0c-0.18,-0 -0.34,0.2 -0.4,0.5c-0.02,0.1 -0.04,0.14 -0.04,0.2c0,0.2 0.1,0.32 0.26,0.4c0.1,0.06 0.24,0.08 0.36,0.08c0.1,-0 0.22,-0 0.32,-0.02c0.26,-0 0.56,-0 0.68,0.28c0.06,0.1 0.06,0.2 0.06,0.32l0,1.68c0,0.58 -0.12,2.52 -0.24,3.42c-0.02,0.08 -0.02,0.14 -0.02,0.22c0,0.58 0.38,0.72 1,0.76l0.08,-0c0.28,-0 0.36,-0.06 0.4,-0.14c0.04,-0.1 0.04,-0.24 0.04,-0.36l0,-0.18c0,-0.46 -0.14,-1.84 -0.14,-2.74l0,-2.58c0,-0.4 0.12,-0.64 0.44,-0.7c0.12,-0.04 0.26,-0.04 0.44,-0.04c0.14,0.02 0.32,0.02 0.52,0.02c0.4,-0 0.54,-0.06 0.6,-0.12c0,-0.04 0.04,-0.1 0.06,-0.2l0.04,-0.34c0,-0.2 -0.12,-0.24 -0.24,-0.26c-0.12,-0.02 -0.26,-0.02 -0.38,-0.02l-0.46,-0c-0.74,-0 -0.94,-0.68 -1,-1.22c-0.02,-0.26 -0.04,-0.66 -0.04,-1c0,-0.36 0.02,-0.72 0.1,-0.96c0.16,-0.4 0.72,-1.02 1.42,-1.02l0.08,-0c0.14,-0 0.26,0.02 0.36,0.02c0.08,-0 0.12,-0.02 0.14,-0.04c0.12,-0.08 0.12,-0.26 0.16,-0.62c0,-0.02 0.02,-0.04 0.02,-0.08Z" style="fill-rule:nonzero;"/>
      <path d="M198.126,486.472c0.12,-0.16 0.16,-0.3 0.16,-0.42c0,-0.3 -0.44,-0.38 -0.76,-0.38c-0.28,-0 -0.88,0.1 -0.98,0.34l-0.12,0.22l-0.16,0.24c-0.1,0.16 -0.2,0.4 -0.26,0.74c-0.08,0.4 -0.24,0.8 -0.4,1.18c-0.16,0.36 -0.32,0.72 -0.44,1.08c-0.06,0.2 -0.12,0.3 -0.12,0.38c0,0.04 0.02,0.06 0.04,0.08c0.04,0.04 0.36,0.06 0.42,0.06c0.08,0.02 0.14,0.02 0.2,0.02c0.32,-0 0.38,-0.12 0.44,-0.28c0.12,-0.28 0.5,-0.88 0.84,-1.42c0.36,-0.56 0.52,-0.98 1.14,-1.84Z" style="fill-rule:nonzero;"/>
      <path d="M210.326,487.492c0.16,-0.1 0.3,-0.22 0.4,-0.32c0.1,-0.12 0.2,-0.22 0.3,-0.28c0.12,-0.12 0.26,-0.18 0.4,-0.18c0.2,-0 0.38,0.16 0.38,0.4c0,0.06 0,0.12 -0.02,0.18c0,0.02 -0.02,0.04 -0.02,0.06c0,0.18 0.2,0.2 0.76,0.24l0.1,-0c0.3,-0 0.36,-0.08 0.4,-0.16l0,-3.94c0,-0.66 -0.02,-1.36 -0.02,-2c0,-0.32 0,-0.62 0.02,-0.9l0,-0.1c0,-0.52 -0.26,-0.54 -0.6,-0.54l-0.2,-0c-0.24,-0 -0.36,0.02 -0.36,0.16c0,0.1 0.02,0.18 0.02,0.24c0,0.32 -0.12,0.6 -0.36,0.68c-0.04,0.02 -0.06,0.02 -0.1,0.02c-0.14,-0 -0.32,-0.1 -0.5,-0.26c-0.18,-0.16 -0.32,-0.34 -0.48,-0.5c-0.22,-0.28 -1.04,-0.52 -1.8,-0.52c-1.12,-0 -2.4,0.72 -3.02,1.58c-0.44,0.64 -0.6,1.64 -0.68,2.46l0,0.16c0,0.78 0.46,2.04 0.96,2.66c0.52,0.66 1.4,1.26 2.88,1.26c0.72,-0 1.2,-0.18 1.54,-0.4Zm1.54,-3.68c-0.06,0.84 -0.34,1.84 -1.04,2.36c-0.54,0.42 -0.96,0.52 -1.58,0.52c-0.12,-0 -0.24,-0.02 -0.4,-0.02c-0.9,-0.06 -1.66,-0.46 -1.98,-0.98c-0.26,-0.48 -0.44,-1.1 -0.44,-1.8l0,-0.18c0.04,-0.72 0.34,-1.94 0.72,-2.22c0.28,-0.22 1.14,-0.58 1.86,-0.58c0.12,-0 0.24,-0 0.36,0.02l0.46,0.1c0.08,-0 0.08,0.02 0.1,0.02c0.12,0.04 0.3,0.06 0.42,0.12c0.36,0.12 0.7,0.34 0.96,0.78l0.3,0.52c0.02,0.14 0.14,0.28 0.2,0.4c0.06,0.16 0.1,0.34 0.1,0.54c0,0.12 -0.02,0.26 -0.04,0.4Z" style="fill-rule:nonzero;"/>
      <path d="M222.786,486.532c-0.06,-0.52 -0.12,-2.16 -0.12,-3.32c0,-0.24 0.02,-0.48 0.02,-0.66l0,-0.08c0,-0.92 -0.48,-1.72 -0.76,-2.06c-0.28,-0.36 -0.88,-0.7 -1.66,-0.72l-0.14,-0c-0.66,-0 -1.06,0.24 -1.74,0.88c-0.28,0.26 -0.5,0.34 -0.64,0.36c-0.12,-0 -0.18,-0.06 -0.22,-0.12c-0.04,-0.1 -0.06,-0.22 -0.06,-0.34c0,-0.12 0,-0.22 0.02,-0.32c0,-0.34 -0.32,-0.4 -0.56,-0.4c-0.22,-0 -0.6,0.02 -0.68,0.2c-0.02,0.06 -0.04,0.14 -0.04,0.24c0.02,0.12 0.04,0.22 0.04,0.36c0.04,0.56 0.28,1.82 0.28,2.64c0,0.82 -0.04,1.82 -0.2,3.14c-0.04,0.24 -0.04,0.42 -0.04,0.58c0,0.58 0.2,0.7 0.66,0.7c0.06,-0 0.14,-0.02 0.24,-0.02c0.4,-0.02 0.48,-0.14 0.5,-0.2l0,-0.14c0,-0.14 -0.02,-0.3 -0.04,-0.4c-0.08,-0.44 -0.16,-2.04 -0.16,-2.74c0,-0.66 0.1,-1.76 0.52,-2.34c0.44,-0.6 1.1,-0.94 1.7,-0.94l0.28,-0c0.12,-0 0.26,-0 0.38,0.04c0.22,0.04 0.42,0.16 0.7,0.38c0.34,0.26 0.48,0.6 0.54,1.02c0.04,0.24 0.04,0.52 0.04,0.82l0,0.64c0,1.14 -0.16,1.78 -0.24,2.9c0,0.08 -0.02,0.18 -0.02,0.24c0,0.74 0.34,0.76 0.94,0.76c0.42,-0 0.52,-0.22 0.52,-0.54c0,-0.18 -0.04,-0.38 -0.06,-0.56Z" style="fill-rule:nonzero;"/>
      <path d="M232.886,480.412c0.06,-0.1 0.08,-0.16 0.08,-0.2c0,-0.08 -0.06,-0.1 -0.12,-0.12c-0.08,-0.04 -0.2,-0.06 -0.32,-0.08l-0.3,-0.02c-0.06,-0 -0.16,-0.02 -0.24,-0.02c-0.18,-0 -0.36,0.04 -0.38,0.18c-0.04,0.36 -0.62,1.66 -0.84,2.14c-0.22,0.46 -0.7,1.66 -0.86,2.12c-0.16,0.52 -0.44,1.2 -0.88,1.32c-0.06,0.02 -0.12,0.04 -0.16,0.04c-0.2,-0 -0.32,-0.14 -0.4,-0.32c0,-0.08 -0.04,-0.18 -0.06,-0.3c-0.02,-0.1 -0.04,-0.22 -0.06,-0.32c-0.06,-0.22 -0.18,-0.44 -0.32,-0.74c-0.16,-0.28 -0.32,-0.6 -0.46,-0.96c-0.28,-0.72 -0.74,-1.76 -1,-2.52c-0.26,-0.64 -0.46,-0.68 -1.12,-0.74l-0.14,-0c-0.3,-0 -0.42,0.12 -0.42,0.26c0,0.28 0.28,0.64 0.42,0.78c0.18,0.2 0.4,0.64 0.64,1.08c0.22,0.44 0.48,0.92 0.72,1.3c0.1,0.2 0.22,0.42 0.32,0.66l0.28,0.72c0.2,0.48 0.38,0.94 0.66,1.26c0.36,0.44 0.5,0.86 0.5,1.2l0,0.08c0,0.22 -0.06,0.42 -0.12,0.56c-0.16,0.26 -0.38,0.64 -0.62,1.34c-0.12,0.36 -0.32,0.7 -0.5,1c-0.18,0.3 -0.36,0.58 -0.52,0.9c-0.06,0.1 -0.1,0.2 -0.1,0.24c0,0.24 0.3,0.24 0.8,0.28c0.04,-0 0.1,0.02 0.14,0.02c0.24,-0 0.34,-0.08 0.4,-0.16c0.06,-0.08 0.1,-0.16 0.14,-0.28l0.14,-0.4c0.12,-0.3 0.22,-0.6 0.32,-0.88c0.12,-0.3 0.24,-0.6 0.4,-0.9c0.32,-0.6 0.86,-2.22 1.26,-2.98c0.38,-0.74 0.9,-2.02 1.2,-2.64c0.3,-0.62 1.14,-2.24 1.52,-2.9Z" style="fill-rule:nonzero;"/>
      <path d="M246.826,486.532c-0.06,-0.52 -0.12,-2.16 -0.12,-3.32c0,-0.24 0.02,-0.48 0.02,-0.66l0,-0.08c0,-0.92 -0.48,-1.72 -0.76,-2.06c-0.28,-0.36 -0.88,-0.7 -1.66,-0.72l-0.14,-0c-0.66,-0 -1.06,0.24 -1.74,0.88c-0.28,0.26 -0.5,0.34 -0.64,0.36c-0.12,-0 -0.18,-0.06 -0.22,-0.12c-0.04,-0.1 -0.06,-0.22 -0.06,-0.34c0,-0.12 0,-0.22 0.02,-0.32c0,-0.34 -0.32,-0.4 -0.56,-0.4c-0.22,-0 -0.6,0.02 -0.68,0.2c-0.02,0.06 -0.04,0.14 -0.04,0.24c0.02,0.12 0.04,0.22 0.04,0.36c0.04,0.56 0.28,1.82 0.28,2.64c0,0.82 -0.04,1.82 -0.2,3.14c-0.04,0.24 -0.04,0.42 -0.04,0.58c0,0.58 0.2,0.7 0.66,0.7c0.06,-0 0.14,-0.02 0.24,-0.02c0.4,-0.02 0.48,-0.14 0.5,-0.2l0,-0.14c0,-0.14 -0.02,-0.3 -0.04,-0.4c-0.08,-0.44 -0.16,-2.04 -0.16,-2.74c0,-0.66 0.1,-1.76 0.52,-2.34c0.44,-0.6 1.1,-0.94 1.7,-0.94l0.28,-0c0.12,-0 0.26,-0 0.38,0.04c0.22,0.04 0.42,0.16 0.7,0.38c0.34,0.26 0.48,0.6 0.54,1.02c0.04,0.24 0.04,0.52 0.04,0.82l0,0.64c0,1.14 -0.16,1.78 -0.24,2.9c0,0.08 -0.02,0.18 -0.02,0.24c0,0.74 0.34,0.76 0.94,0.76c0.42,-0 0.52,-0.22 0.52,-0.54c0,-0.18 -0.04,-0.38 -0.06,-0.56Z" style="fill-rule:nonzero;"/>
      <path d="M257.446,483.932l0,-0.1c0,-1.36 -0.64,-2.38 -1.24,-3.02c-0.6,-0.62 -1.58,-1.12 -2.7,-1.16l-0.1,-0c-1.82,-0 -2.62,0.76 -3.2,1.36c-0.6,0.6 -1.06,1.5 -1.06,2.78c0,1.28 0.76,2.52 1.38,3.08c0.6,0.54 1.5,0.94 2.66,0.94l0.12,-0c1.24,-0.04 2.2,-0.2 3.06,-1.12c0.86,-0.96 1.08,-1.3 1.08,-2.76Zm-1.14,-0.22c0,0.76 -0.28,1.8 -0.78,2.18c-0.12,0.06 -0.24,0.16 -0.4,0.26c-0.5,0.34 -1.06,0.6 -1.66,0.6c-0.08,-0 -0.16,-0 -0.26,-0.02c-0.96,-0.12 -1.42,-0.32 -2,-1c-0.58,-0.64 -0.76,-1.16 -0.76,-1.98c0,-0.8 0.14,-1.56 0.94,-2.16c0.78,-0.58 1.4,-0.66 2.04,-0.66c1.02,-0 1.76,0.28 2.18,1.02c0.2,0.34 0.38,0.56 0.5,0.82c0.1,0.26 0.2,0.54 0.2,0.94Z" style="fill-rule:nonzero;"/>
      <path d="M263.286,480.412c0,-0.16 -0.08,-0.22 -0.24,-0.28c-0.1,-0.02 -0.22,-0.02 -0.34,-0.02c-0.14,-0 -0.26,-0.02 -0.4,-0.02l-0.34,-0.04c-0.1,-0 -0.18,-0.02 -0.26,-0.04c-0.18,-0.06 -0.3,-0.2 -0.3,-0.4c0,-0.28 0,-0.76 0.04,-1.54l0,-0.08c0,-0.3 -0.06,-0.4 -0.12,-0.44c-0.1,-0.08 -0.3,-0.08 -0.42,-0.08l-0.06,-0c-0.3,-0 -0.48,0.24 -0.5,0.36c0,0.02 -0.02,0.06 -0.02,0.08c0,0.1 0.02,0.26 0.04,0.46c0.04,0.26 0.08,0.6 0.08,0.94l0,0.1c0,0.36 -0.16,0.56 -0.42,0.62c-0.08,0.02 -0.16,0.02 -0.24,0.02c-0.14,-0 -0.32,-0.02 -0.46,-0.02c-0.28,-0 -0.44,0.18 -0.5,0.78c0,0.02 -0.02,0.04 -0.02,0.06c0,0.12 0.08,0.16 0.24,0.2c0.1,0.02 0.2,0.02 0.3,0.02c0.1,-0 0.2,-0.02 0.28,-0.02c0.32,-0 0.74,0.24 0.74,0.68c0,0.32 0.06,1.02 0.06,1.92c0,0.9 -0.12,2.62 -0.12,3.4c0,0.38 0.06,0.48 0.12,0.52l0.16,0.04l0.36,-0c0.5,-0 0.66,-0.06 0.66,-0.32l0,-0.14c-0.06,-0.56 -0.16,-2 -0.18,-2.84c-0.02,-0.28 -0.04,-0.62 -0.04,-0.96c0,-0.66 0.04,-1.34 0.06,-1.78c0.02,-0.44 0.28,-0.62 0.6,-0.64l0.06,-0c0.24,-0 0.46,0.06 0.7,0.08l0.08,-0c0.26,-0 0.4,-0.14 0.4,-0.62Z" style="fill-rule:nonzero;"/>
      <path d="M272.646,483.592c0,-0.02 0.02,-0.04 0.02,-0.08c0,-0.02 -0.02,-0.08 -0.02,-0.14l-0.08,-0.42c-0.14,-0.64 -0.84,-1.7 -1.36,-2.32c-0.52,-0.56 -1.52,-0.9 -2.36,-0.94l-0.22,-0c-0.86,-0 -1.54,0.42 -2.24,0.88l-0.16,0.1c-0.76,0.46 -1.3,1.98 -1.34,3.18l0,0.06c0,1.14 0.86,2.4 1.54,3.16c0.66,0.7 2.02,0.72 2.7,0.72c0.64,-0 1.16,-0.16 1.5,-0.34c0.14,-0.08 0.34,-0.24 0.58,-0.44c0.22,-0.2 0.46,-0.4 0.72,-0.6c0.2,-0.14 0.3,-0.3 0.3,-0.46c0,-0.18 -0.1,-0.36 -0.4,-0.6c-0.1,-0.08 -0.2,-0.12 -0.26,-0.12c-0.1,-0 -0.16,0.06 -0.24,0.12c-0.14,0.16 -0.24,0.36 -0.32,0.56c-0.16,0.36 -0.96,0.76 -1.96,0.76l-0.16,-0c-0.66,-0.02 -1.22,-0.22 -1.72,-0.62l-0.3,-0.24c-0.32,-0.28 -0.64,-1.08 -0.64,-1.58l0,-0.14c0.06,-0.24 0.54,-0.38 1.14,-0.4c0.5,-0 1.06,0.02 1.36,0.02c0.42,-0 1.58,0.02 2.48,0.02c0.46,-0 0.86,-0 1.08,-0.02c0.34,-0 0.36,-0.08 0.36,-0.12Zm-1.42,-1.32c0.06,0.1 0.08,0.18 0.08,0.26c0,0.22 -0.18,0.36 -0.54,0.36c-0.78,-0 -1.64,0.02 -1.98,0.02c-0.36,-0 -1.42,-0.02 -1.64,-0.08c-0.22,-0.02 -0.7,-0.28 -0.7,-0.64c0,-0.12 0.04,-0.24 0.14,-0.36c0.32,-0.44 1.2,-1.04 2.24,-1.04l0.08,-0c0.94,0.04 1.26,0.32 1.72,0.76c0.2,0.2 0.48,0.46 0.6,0.72Z" style="fill-rule:nonzero;"/>
      <path d="M277.706,482.392c0,-0.96 -0.18,-2.18 -0.62,-3.64c-0.44,-1.44 -1.12,-2.84 -1.44,-3.3c-0.22,-0.3 -0.48,-0.56 -0.68,-0.56c-0.04,-0 -0.1,0.02 -0.12,0.06c-0.08,0.08 -0.14,0.26 -0.14,0.44c0,0.22 0.1,0.52 0.34,0.74c0.3,0.26 0.54,0.74 0.74,1.24c0.22,0.52 0.4,1.06 0.56,1.52c0.32,0.92 0.44,2.36 0.5,3.56l0,0.2c0,1.24 -0.3,2.92 -0.74,4.08c-0.24,0.62 -0.54,1.18 -0.8,1.64c-0.28,0.44 -0.52,0.76 -0.62,0.92c-0.06,0.08 -0.08,0.18 -0.08,0.28c0,0.14 0.04,0.28 0.14,0.4c0.08,0.06 0.1,0.12 0.18,0.12c0.04,-0 0.12,-0.08 0.24,-0.2c0.22,-0.26 1.62,-2.74 1.96,-3.8c0.34,-1.08 0.58,-2.74 0.58,-3.7Z" style="fill-rule:nonzero;"/>
    </g>
	  <a href="L1-3.svg">
    <circle cx="364.643" cy="491.047" r="17.4" style="fill:#47c6ff;"/>
	  </a>
  </g>
</svg>
