<?xml version="1.0" encoding="UTF-8" standalone="no"?>
<!DOCTYPE svg PUBLIC "-//W3C//DTD SVG 1.1//EN" "http://www.w3.org/Graphics/SVG/1.1/DTD/svg11.dtd">
<svg width="100%" height="100%" viewBox="0 0 406 529" version="1.1" xmlns="http://www.w3.org/2000/svg" xmlns:xlink="http://www.w3.org/1999/xlink" xml:space="preserve" xmlns:serif="http://www.serif.com/" style="fill-rule:evenodd;clip-rule:evenodd;stroke-linejoin:bevel;">
  <rect id="L1-6" x="0.009" y="0.039" width="405.12" height="528" style="fill:none;"/>
  <clipPath id="_clip1">
    <rect x="0.009" y="0.039" width="405.12" height="528"/>
  </clipPath>
  <g clip-path="url(#_clip1)">
	  <a href="L1-7.svg">
    <circle cx="364.617" cy="491.079" r="17.4" style="fill:#47c6ff;"/>
	  </a>
    <path d="M0.009,213.639l405.12,0" style="fill:none;fill-rule:nonzero;stroke:#000;stroke-width:3.12px;"/>
    <path d="M0.009,238.839l405.12,0" style="fill:none;fill-rule:nonzero;stroke:#000;stroke-width:3.12px;"/>
    <path d="M0.009,264.039l405.12,0" style="fill:none;fill-rule:nonzero;stroke:#000;stroke-width:3.12px;"/>
    <path d="M0.009,289.239l405.12,0" style="fill:none;fill-rule:nonzero;stroke:#000;stroke-width:3.12px;"/>
    <path d="M0.009,314.439l405.12,0" style="fill:none;fill-rule:nonzero;stroke:#000;stroke-width:3.12px;"/>
    <g>
      <path d="M145.548,334.436l45.581,0" style="fill:none;fill-rule:nonzero;stroke:#000;stroke-width:3.72px;"/>
      <path d="M251.593,194.857l45.582,0" style="fill:none;fill-rule:nonzero;stroke:#000;stroke-width:3.72px;"/>
      <path d="M173.042,333.782c-9.029,0 -19.818,7.546 -19.818,16.197c0,3.998 2.879,8.462 10.425,8.462c9.669,0 19.818,-7.909 19.818,-16.095c-0,-5.496 -4.653,-8.564 -10.425,-8.564m-12.839,20.283c-3.067,-0 -3.722,-2.501 -3.722,-3.344c0,-4.566 15.63,-12.562 20.007,-12.562c2.239,-0 3.722,1.308 3.722,3.344c-0,4.652 -15.732,12.562 -20.007,12.562" style="fill-rule:nonzero;"/>
      <path d="M259.27,187.137c-0,3.998 2.879,8.462 10.425,8.462c9.669,-0 19.817,-7.91 19.817,-16.096c0,-5.495 -4.652,-8.563 -10.425,-8.563c-9.029,-0 -19.817,7.633 -19.817,16.197" style="fill-rule:nonzero;"/>
      <path d="M103.93,280.088c-0.087,-0.087 -0.276,-0.276 -0.553,-0.64l-10.701,-13.216c-0.101,-0.102 -0.189,-0.378 -0.189,-0.567c0,-0.277 0.088,-0.64 0.189,-0.829l9.48,-14.336c0.102,-0.189 0.189,-0.465 0.189,-0.654l0,-0.829c0,-0.276 -0.087,-0.567 -0.276,-0.742l-15.078,-20.384c0,-0 -0.363,-0.567 -0.93,-0.567c-0.276,-0 -0.465,-0 -0.742,0.291c-0.378,0.276 -0.465,0.639 -0.465,0.93c0,0.553 0.276,1.018 0.276,1.018l7.081,9.683c0.175,0.277 0.276,0.64 0.276,1.105c0,0.378 -0.101,0.844 -0.276,1.12l-9.407,14.336c-0.087,0.189 -0.189,0.552 -0.189,0.741l0,0.844c0,0.276 0.102,0.552 0.291,0.741l10.41,12.94c-0.363,-0.102 -1.207,-0.291 -2.326,-0.291c-4.74,0 -8.462,3.912 -8.462,8.666c-0,1.294 0.276,2.603 1.018,3.62c1.962,2.981 8.941,11.821 8.941,11.821c0,-0 0.466,0.567 1.12,0.567c0.174,0 0.363,0 0.552,-0.189c0.466,-0.378 0.655,-0.742 0.655,-1.12c-0,-0.378 -0.189,-0.654 -0.277,-0.843c-0.29,-0.465 -3.256,-5.859 -3.256,-5.859c-0,-0 -0.655,-1.309 -0.655,-2.981c0,-2.98 2.225,-5.394 5.205,-5.394c1.207,-0 2.24,0.378 2.981,0.843l3.635,2.327c-0,-0 0.363,0.174 0.741,0.174c0.364,0 0.655,-0.087 0.931,-0.465c0.189,-0.276 0.276,-0.553 0.276,-0.829c0,-0.276 -0.087,-0.465 -0.276,-0.741l-0.189,-0.291" style="fill-rule:nonzero;"/>
      <path d="M259.263,139.818l-0.087,0l-0.189,-0.087c-0.844,-0 -1.396,0.552 -1.396,1.308l-0,2.138c-0,0.552 0.465,1.018 0.93,1.207l19.92,6.237l-19.92,6.325c-0.465,0.189 -0.93,0.654 -0.93,1.206l-0,2.138c-0,0.756 0.552,1.308 1.396,1.308l0.189,-0.087l0.087,0l30.998,-9.596c0.465,-0.175 0.931,-0.742 0.931,-1.294c-0,-0.567 -0.466,-1.032 -0.931,-1.207l-30.998,-9.596" style="fill-rule:nonzero;"/>
      <path d="M165.803,383.015c-2.102,0 -4.193,1.761 -5.346,2.913l-0.202,0.203l-0.128,-0.277c-0,-0 -1.419,-2.561 -3.788,-2.903c-0.342,-0.064 -0.683,-0.064 -1.014,-0.064c-2.305,0 -5.271,0.875 -6.829,4.524c-0.405,-2.229 -2.166,-4.396 -4.599,-4.396c-2.091,0 -4.194,1.761 -5.346,2.913l-0.203,0.203l-0.128,-0.277c0,-0 -1.419,-2.561 -3.788,-2.903l-0.203,0l-0.341,-0.064c-3.852,0 -5.613,4.055 -6.691,7.16l1.217,0.608c0.267,-0.875 1.014,-3.041 1.824,-4.118c0.406,-0.609 1.153,-1.153 1.761,-1.292l0.267,0c0.203,0 0.406,0 0.544,0.139c0.267,0.203 0.342,0.544 0.342,1.014c-0,1.622 -1.217,4.599 -1.559,5.271l-6.69,18.663l-4.129,0l-0,1.355l15.141,0l0,-1.355l-5.068,0l3.927,-10.884l0.202,0.47c0,-0 0.672,1.493 2.966,2.102c0.406,0.127 0.886,0.127 1.292,0.127c3.713,0 7.437,-3.777 8.857,-9.187c1.013,-3.382 1.888,-4.94 2.571,-6.093c0.534,-0.875 1.824,-1.75 2.902,-1.75c0.95,0 1.483,0.534 1.483,1.484c0,1.152 -0.736,2.912 -1.546,5.068l-6.702,18.663l-4.183,0l0,1.355l15.206,0l0,-1.355l-5.068,0l3.915,-10.884l0.203,0.47c0,-0 0.619,1.493 2.914,2.102c0.404,0.127 0.874,0.127 1.28,0.127c5.752,0 9.465,-7.906 9.465,-13.039c-0,-2.774 -1.622,-6.093 -4.728,-6.093m-27.252,16.7c-0.203,0.138 -0.533,0.138 -0.736,0.138c-0.139,0 -0.406,0 -0.545,-0.064c-1.013,-0.405 -1.28,-1.622 -1.28,-2.912c-0,-2.092 0.736,-4.525 0.811,-4.664c0.469,-2.091 3.041,-6.829 5.677,-6.829c0.138,-0 0.341,-0 0.469,0.064c0.811,0.203 0.95,1.494 0.95,2.166c-0,3.244 -2.369,10.682 -5.346,12.101m21.906,-0c-0.202,0.138 -0.533,0.138 -0.736,0.138c-0.138,0 -0.405,0 -0.544,-0.064c-1.013,-0.405 -1.28,-1.622 -1.28,-2.912c-0,-2.092 0.736,-4.525 0.811,-4.664c0.469,-2.091 3.041,-6.829 5.676,-6.829c0.129,-0 0.331,-0 0.47,0.064c0.811,0.203 0.949,1.494 0.949,2.166c0,3.244 -2.369,10.682 -5.346,12.101" style="fill-rule:nonzero;"/>
      <path d="M196.945,302.14l48.833,-74.987" style="fill:none;fill-rule:nonzero;stroke:#000;stroke-width:3.49px;"/>
    </g>
  </g>
</svg>
