<?xml version="1.0" encoding="UTF-8" standalone="no"?>
<!DOCTYPE svg PUBLIC "-//W3C//DTD SVG 1.1//EN" "http://www.w3.org/Graphics/SVG/1.1/DTD/svg11.dtd">
<svg width="100%" height="100%" viewBox="0 0 406 529" version="1.1" xmlns="http://www.w3.org/2000/svg" xmlns:xlink="http://www.w3.org/1999/xlink" xml:space="preserve" xmlns:serif="http://www.serif.com/" style="fill-rule:evenodd;clip-rule:evenodd;stroke-linejoin:bevel;">
  <rect id="L2-6" x="0.097" y="0.003" width="405.12" height="528" style="fill:none;"/>
  <clipPath id="_clip1">
    <rect x="0.097" y="0.003" width="405.12" height="528"/>
  </clipPath>
  <g clip-path="url(#_clip1)">
	  <a href="L2-7.svg">
    <circle id="Link-to-2-7" serif:id="Link to 2-7" cx="364.705" cy="491.043" r="17.4" style="fill:#c847ff;"/>
	  </a>
    <g id="staff-bottom" serif:id="staff bottom">
      <path d="M0.097,344.403l405.12,0" style="fill:none;fill-rule:nonzero;stroke:#000;stroke-width:1.2px;"/>
      <path d="M0.097,357.003l405.12,0" style="fill:none;fill-rule:nonzero;stroke:#000;stroke-width:1.2px;"/>
      <path d="M0.097,369.603l405.12,0" style="fill:none;fill-rule:nonzero;stroke:#000;stroke-width:1.2px;"/>
      <path d="M0.097,382.203l405.12,0" style="fill:none;fill-rule:nonzero;stroke:#000;stroke-width:1.2px;"/>
      <path d="M0.097,394.803l405.12,0" style="fill:none;fill-rule:nonzero;stroke:#000;stroke-width:1.2px;"/>
    </g>
    <g id="staff-top" serif:id="staff top">
      <path d="M0.097,106.803l405.12,0" style="fill:none;fill-rule:nonzero;stroke:#000;stroke-width:1.2px;"/>
      <path d="M0.097,119.403l405.12,0" style="fill:none;fill-rule:nonzero;stroke:#000;stroke-width:1.2px;"/>
      <path d="M0.097,132.003l405.12,0" style="fill:none;fill-rule:nonzero;stroke:#000;stroke-width:1.2px;"/>
      <path d="M0.097,144.603l405.12,0" style="fill:none;fill-rule:nonzero;stroke:#000;stroke-width:1.2px;"/>
      <path d="M0.097,157.203l405.12,0" style="fill:none;fill-rule:nonzero;stroke:#000;stroke-width:1.2px;"/>
    </g>
    <g>
      <path d="M151.795,349.049l0,40.014" style="fill:none;fill-rule:nonzero;stroke:#000;stroke-width:1.3px;"/>
      <path d="M233.609,116.249l0,40.014" style="fill:none;fill-rule:nonzero;stroke:#000;stroke-width:1.3px;"/>
      <path d="M167.796,338.541c0.154,-0.105 0.26,-0.317 0.26,-0.52l-0,-0.057c-0,-0.203 -0.106,-0.366 -0.203,-0.464l-0.626,-0.626c-0.155,-0.105 -0.317,-0.211 -0.521,-0.211c-0.154,0 -0.366,0.057 -0.471,0.155l-6.61,5.26l-6.659,-5.26c-0.106,-0.098 -0.309,-0.155 -0.472,-0.155c-0.203,0 -0.309,0.106 -0.463,0.211l-0.675,0.626c-0.106,0.098 -0.211,0.309 -0.211,0.521c-0,0.203 0.105,0.415 0.26,0.52l6.35,4.992l-6.35,4.992c-0.155,0.106 -0.26,0.317 -0.26,0.521c-0,0.162 0.105,0.366 0.211,0.471l0.618,0.675c0.106,0.155 0.317,0.211 0.52,0.211c0.163,0 0.366,-0.056 0.472,-0.154l6.659,-5.26l6.61,5.26c0.105,0.098 0.317,0.154 0.471,0.154c0.204,0 0.415,-0.056 0.521,-0.211l0.626,-0.675c0.097,-0.105 0.203,-0.309 0.203,-0.471c-0,-0.204 -0.106,-0.415 -0.26,-0.521l-6.35,-4.992l6.35,-4.992" style="fill-rule:nonzero;"/>
      <path d="M249.61,105.741c0.154,-0.105 0.26,-0.317 0.26,-0.52l-0,-0.057c-0,-0.203 -0.106,-0.366 -0.203,-0.464l-0.626,-0.626c-0.155,-0.105 -0.317,-0.211 -0.521,-0.211c-0.154,0 -0.366,0.057 -0.471,0.155l-6.61,5.26l-6.659,-5.26c-0.106,-0.098 -0.309,-0.155 -0.472,-0.155c-0.203,0 -0.309,0.106 -0.463,0.211l-0.675,0.626c-0.106,0.098 -0.211,0.309 -0.211,0.521c-0,0.203 0.105,0.415 0.26,0.52l6.35,4.992l-6.35,4.992c-0.155,0.106 -0.26,0.317 -0.26,0.521c-0,0.162 0.105,0.366 0.211,0.471l0.618,0.675c0.106,0.155 0.317,0.211 0.52,0.211c0.163,0 0.366,-0.056 0.472,-0.154l6.659,-5.26l6.61,5.26c0.105,0.098 0.317,0.154 0.471,0.154c0.204,0 0.415,-0.056 0.521,-0.211l0.626,-0.675c0.097,-0.105 0.203,-0.309 0.203,-0.471c-0,-0.204 -0.106,-0.415 -0.26,-0.521l-6.35,-4.992l6.35,-4.992" style="fill-rule:nonzero;"/>
      <path d="M136.511,142.459c-0.049,-0.049 -0.155,-0.154 -0.309,-0.358l-5.984,-7.39c-0.057,-0.057 -0.106,-0.212 -0.106,-0.317c0,-0.155 0.049,-0.358 0.106,-0.464l5.301,-8.016c0.057,-0.106 0.105,-0.26 0.105,-0.366l0,-0.464c0,-0.154 -0.048,-0.317 -0.154,-0.414l-8.431,-11.399c-0,-0 -0.204,-0.317 -0.521,-0.317c-0.154,-0 -0.26,-0 -0.414,0.162c-0.212,0.155 -0.26,0.358 -0.26,0.521c-0,0.309 0.154,0.569 0.154,0.569l3.96,5.415c0.097,0.154 0.154,0.357 0.154,0.618c0,0.211 -0.057,0.471 -0.154,0.626l-5.261,8.016c-0.049,0.106 -0.106,0.309 -0.106,0.415l0,0.471c0,0.155 0.057,0.309 0.163,0.415l5.821,7.236c-0.203,-0.057 -0.674,-0.162 -1.3,-0.162c-2.651,-0 -4.732,2.187 -4.732,4.845c-0,0.724 0.154,1.456 0.569,2.025c1.097,1.666 5,6.61 5,6.61c0,-0 0.26,0.317 0.626,0.317c0.098,-0 0.203,-0 0.309,-0.106c0.26,-0.211 0.366,-0.415 0.366,-0.626c-0,-0.211 -0.106,-0.366 -0.155,-0.472c-0.162,-0.26 -1.821,-3.276 -1.821,-3.276c0,-0 -0.366,-0.732 -0.366,-1.667c0,-1.666 1.244,-3.016 2.911,-3.016c0.675,-0 1.252,0.211 1.667,0.471l2.032,1.301c0,0 0.204,0.098 0.415,0.098c0.203,-0 0.366,-0.049 0.52,-0.26c0.106,-0.155 0.155,-0.309 0.155,-0.464c-0,-0.154 -0.049,-0.26 -0.155,-0.414l-0.105,-0.163" style="fill-rule:nonzero;"/>
      <path d="M282.911,380.059c-0.049,-0.049 -0.155,-0.154 -0.309,-0.358l-5.984,-7.39c-0.057,-0.057 -0.106,-0.212 -0.106,-0.317c0,-0.155 0.049,-0.358 0.106,-0.464l5.301,-8.016c0.057,-0.106 0.105,-0.26 0.105,-0.366l0,-0.464c0,-0.154 -0.048,-0.317 -0.154,-0.414l-8.431,-11.399c-0,-0 -0.204,-0.317 -0.521,-0.317c-0.154,-0 -0.26,-0 -0.414,0.162c-0.212,0.155 -0.26,0.358 -0.26,0.521c-0,0.309 0.154,0.569 0.154,0.569l3.96,5.415c0.097,0.154 0.154,0.357 0.154,0.618c0,0.211 -0.057,0.471 -0.154,0.626l-5.261,8.016c-0.049,0.106 -0.106,0.309 -0.106,0.415l0,0.471c0,0.155 0.057,0.309 0.163,0.415l5.821,7.236c-0.203,-0.057 -0.674,-0.162 -1.3,-0.162c-2.651,-0 -4.732,2.187 -4.732,4.845c-0,0.724 0.154,1.456 0.569,2.025c1.097,1.666 5,6.61 5,6.61c0,-0 0.26,0.317 0.626,0.317c0.098,-0 0.203,-0 0.309,-0.106c0.26,-0.211 0.366,-0.415 0.366,-0.626c-0,-0.211 -0.106,-0.366 -0.155,-0.472c-0.162,-0.26 -1.821,-3.276 -1.821,-3.276c0,-0 -0.366,-0.732 -0.366,-1.667c0,-1.666 1.244,-3.016 2.911,-3.016c0.675,-0 1.252,0.211 1.667,0.471l2.032,1.301c0,0 0.204,0.098 0.415,0.098c0.203,-0 0.366,-0.049 0.52,-0.26c0.106,-0.155 0.155,-0.309 0.155,-0.464c-0,-0.154 -0.049,-0.26 -0.155,-0.414l-0.105,-0.163" style="fill-rule:nonzero;"/>
      <path d="M106.396,358.989c-0.049,0 -0.154,-0.057 -0.211,-0.057c-0.309,0 -0.57,0.163 -0.675,0.423c-1.195,2.39 -3.691,5.618 -6.505,6.138c0.57,-0.674 0.935,-1.512 0.935,-2.496c0,-2.032 -1.666,-3.699 -3.691,-3.699c-2.081,0 -3.748,1.667 -3.748,3.699c0,2.805 2.756,4.106 5.204,4.106c2.756,0 4.577,-1.301 6.349,-3.228l-5.935,18.53l1.407,0.414l7.285,-22.944c0.057,-0.057 0.057,-0.162 0.057,-0.26c-0,-0.26 -0.163,-0.471 -0.472,-0.626" style="fill-rule:nonzero;"/>
      <path d="M317.805,126.189c-0.049,0 -0.155,-0.057 -0.212,-0.057c-0.309,0 -0.569,0.163 -0.674,0.423c-1.196,2.39 -3.692,5.618 -6.505,6.138c0.569,-0.674 0.935,-1.512 0.935,-2.496c0,-2.032 -1.666,-3.699 -3.691,-3.699c-2.081,0 -3.748,1.667 -3.748,3.699c0,2.805 2.756,4.106 5.203,4.106c2.757,0 4.578,-1.301 6.35,-3.228l-5.935,18.53l1.407,0.414l7.284,-22.944c0.057,-0.057 0.057,-0.162 0.057,-0.26c0,-0.26 -0.162,-0.471 -0.471,-0.626" style="fill-rule:nonzero;"/>
    </g>
    <path d="M134.183,436.393l0,-0.109c0,-2.227 -1.496,-3.614 -2.08,-3.942c-0.365,-0.183 -0.84,-0.365 -1.205,-0.584c-0.402,-0.256 -0.767,-0.548 -0.767,-0.876c0,-0.621 0.402,-1.132 1.132,-1.57c0.621,-0.365 1.424,-0.912 1.424,-2.993l-0,-0.438c-0,-2.372 -2.446,-3.796 -3.724,-4.38c-1.204,-0.511 -4.854,-0.657 -7.081,-0.657c-1.058,0 -1.131,0.256 -1.168,0.475c0,0.182 0.037,0.438 0.11,0.73c0.036,0.328 0.146,0.657 0.146,1.022c0.036,0.474 0.036,1.423 0.036,2.591c0,2.373 -0.036,5.585 -0.036,7.227c-0,2.555 -0.146,7.592 -0.219,8.578l-0,0.365c-0,0.766 0.146,0.912 0.511,0.912l0.292,0c0.328,-0.036 0.766,-0.036 1.314,-0.036c1.058,-0 2.555,0.036 4.161,0.036c2.299,0 4.015,-0.547 5.147,-1.387c1.095,-0.766 1.971,-2.591 2.007,-4.964Zm-4.125,-11.534c0.438,0.803 0.694,1.606 0.694,2.3c-0,0.73 -0.292,1.387 -1.059,1.934c-1.204,0.876 -2.518,1.424 -3.832,1.424l-0.475,-0l-0.912,-0.11c-0.292,-0.073 -0.548,-0.109 -0.803,-0.219c-0.475,-0.219 -0.73,-0.62 -0.73,-1.277l-0,-0.219c0.073,-1.351 0.219,-3.176 0.219,-3.906l-0,-0.365c-0,-0.255 0.036,-0.474 0.182,-0.693c0.219,-0.329 0.694,-0.475 1.46,-0.475l0.219,0c0.584,0.037 1.606,-0.036 2.555,0.146c0.949,0.146 2.008,0.511 2.482,1.46Zm1.972,11.279l-0,0.292c-0,3.832 -3.213,4.015 -5.22,4.197l-1.241,0.11l-0.657,-0c-1.059,-0 -2.081,-0.256 -2.117,-1.825c-0.037,-0.73 -0.037,-1.533 -0.037,-2.3c0,-1.204 0.037,-2.299 0.11,-2.774c0.146,-0.766 0.803,-1.496 2.153,-1.496c0.146,-0 0.292,0.036 0.438,0.036c0.402,0.073 0.986,0.073 1.679,0.146c0.657,0.11 1.46,0.219 2.227,0.475c1.35,0.438 2.665,1.35 2.665,3.139Z" style="fill-rule:nonzero;"/>
    <path d="M152.36,436.211l0,-0.183c0,-2.482 -1.168,-4.343 -2.263,-5.511c-1.095,-1.132 -2.883,-2.044 -4.927,-2.117l-0.183,-0c-3.321,-0 -4.781,1.387 -5.84,2.482c-1.095,1.095 -1.934,2.737 -1.934,5.073c-0,2.336 1.387,4.599 2.518,5.621c1.095,0.986 2.738,1.716 4.855,1.716l0.219,-0c2.263,-0.073 4.015,-0.365 5.584,-2.044c1.57,-1.752 1.971,-2.373 1.971,-5.037Zm-2.08,-0.402c-0,1.387 -0.511,3.285 -1.424,3.979c-0.219,0.109 -0.438,0.292 -0.73,0.474c-0.912,0.621 -1.934,1.095 -3.029,1.095c-0.146,0 -0.292,0 -0.475,-0.036c-1.752,-0.219 -2.591,-0.584 -3.65,-1.825c-1.058,-1.168 -1.387,-2.117 -1.387,-3.614c0,-1.46 0.256,-2.847 1.716,-3.942c1.423,-1.058 2.555,-1.204 3.723,-1.204c1.861,-0 3.212,0.511 3.978,1.861c0.365,0.621 0.694,1.022 0.913,1.497c0.182,0.474 0.365,0.985 0.365,1.715Z" style="fill-rule:nonzero;"/>
    <path d="M170.939,435.152l-0,-0.146c-0,-1.387 -0.767,-3.066 -1.862,-4.489c-1.058,-1.387 -3.285,-1.971 -4.891,-2.008l-0.146,0c-1.46,0 -2.847,0.876 -3.54,1.716c-0.402,0.474 -0.694,0.657 -0.949,0.657c-0.475,-0 -0.73,-0.694 -0.73,-1.205c-0,-0.292 -0.037,-0.803 -0.073,-1.35l-0,-0.256c-0,-0.657 0.036,-1.387 0.146,-1.934c0.109,-0.548 0.182,-1.752 0.219,-3.03l0.146,-3.285l-0,-0.109c-0,-0.475 -0.183,-0.584 -0.365,-0.657c-0.146,-0.037 -0.329,-0.037 -0.548,-0.037l-0.73,0c-0.693,0 -1.131,0.256 -1.241,0.913c0,0.182 -0.036,0.365 -0.036,0.584c-0,0.146 -0,0.328 0.036,0.511l0.146,1.277c0.183,1.716 0.256,8.651 0.256,10.22c-0,0.803 0.073,2.628 0.073,4.453c-0,1.825 -0.037,3.723 -0.219,4.526c-0.073,0.256 -0.073,0.438 -0.073,0.621c-0,0.73 0.474,0.876 1.35,0.876c0.913,-0 1.059,-0.146 1.132,-1.351c0.036,-0.584 0.255,-0.803 0.511,-0.803c0.182,0 0.401,0.11 0.62,0.256c0.183,0.182 0.365,0.365 0.548,0.584l0.547,0.62c0.584,0.584 1.278,0.913 2.957,0.913l0.438,-0c1.934,-0.073 3.905,-1.387 5.037,-2.738c0.584,-0.657 0.876,-1.569 1.022,-2.591c0.182,-0.986 0.219,-2.008 0.219,-2.738Zm-1.898,0.584c-0,1.241 -0.073,2.263 -1.205,3.504l-0.766,0.767c-0.657,0.73 -1.387,1.204 -2.336,1.204c-0.11,0 -0.219,0 -0.329,-0.036c-1.277,-0.146 -2.701,-0.292 -3.686,-1.205c-0.511,-0.474 -0.986,-0.876 -1.314,-1.46c-0.402,-0.62 -0.657,-1.387 -0.73,-2.518c-0.037,-0.183 -0.037,-0.365 -0.037,-0.548c0,-1.971 0.84,-2.883 1.935,-3.723c1.241,-0.912 2.372,-1.058 3.467,-1.131c0.183,-0 0.438,-0.037 0.621,-0.037c1.204,0 2.117,0.365 3.102,1.789c1.205,1.642 1.278,2.117 1.278,3.394Z" style="fill-rule:nonzero;"/>
    <path d="M178.714,422.523l-0,-0.401c-0,-0.694 -0.146,-0.913 -0.256,-1.059c-0.073,-0.073 -0.182,-0.109 -0.328,-0.146l-0.584,-0.073l-0.402,0c-0.73,0 -0.912,0.256 -0.912,0.876c-0,0.219 0.036,0.438 0.073,0.73c0.146,1.314 0.219,5.147 0.292,6.862l-0,1.022c-0,2.044 -0.073,5.439 -0.146,6.57l-0,0.146c-0,0.84 0.474,0.876 1.058,0.876l0.146,0c0.657,0 0.73,-0.109 0.73,-0.839l0,-7.702c0.11,-2.518 0.183,-4.854 0.329,-6.862Zm0.474,18.761c0,-1.095 -0.547,-1.46 -1.715,-1.46l-0.11,0c-1.241,0.073 -1.715,0.657 -1.715,1.497l-0,0.146c0.073,1.022 0.803,1.752 1.861,1.752c1.022,-0 1.679,-0.694 1.679,-1.935Z" style="fill-rule:nonzero;"/>
    <path d="M216.483,190.052c0.365,-0.767 0.584,-1.278 0.584,-1.643c0,-0.401 -0.365,-0.547 -1.314,-0.766c-0.255,-0.073 -0.511,-0.11 -0.73,-0.11c-0.949,0 -1.022,0.621 -1.095,1.059c-0.073,0.657 -0.584,2.518 -0.876,3.832c-0.292,1.278 -0.912,3.65 -1.496,5.147c-0.584,1.46 -0.986,3.686 -1.205,4.599c-0.109,0.474 -0.146,1.022 -0.328,1.387c-0.11,0.474 -0.402,0.912 -1.022,0.985c-0.548,0 -0.913,-0.255 -1.132,-0.62c-0.219,-0.365 -0.292,-0.767 -0.438,-1.132c-0.292,-0.693 -0.584,-1.788 -1.058,-2.92c-0.511,-1.131 -1.095,-3.723 -1.606,-4.927c-0.475,-1.241 -1.351,-3.431 -1.862,-5.402c-0.511,-1.935 -1.095,-2.482 -1.569,-2.555c-0.584,-0 -0.694,0.62 -0.767,1.022c0,0.219 -0.073,0.474 -0.182,0.766l-0.402,0.949c-0.182,0.548 -0.401,1.095 -0.474,1.606c-0.073,0.548 -0.402,1.497 -0.767,2.482c-0.365,0.986 -0.766,2.008 -1.022,2.738c-0.474,1.533 -1.277,3.358 -2.153,5.11l-0.475,1.168c-0.109,0.365 -0.219,0.657 -0.255,0.912c-0.219,0.73 -0.511,1.095 -0.84,1.095c-0.292,0 -0.73,-0.73 -1.022,-1.788c-0.255,-0.84 -0.474,-1.862 -0.73,-2.482c-0.511,-1.278 -0.949,-3.395 -1.204,-4.38c-0.329,-1.022 -1.314,-4.088 -1.606,-6.096c-0.256,-1.825 -0.913,-2.007 -2.154,-2.08l-0.219,-0c-0.766,-0 -0.949,0.219 -0.949,0.547c0,0.219 0.146,0.511 0.256,0.694c0.182,0.328 0.438,1.058 0.657,1.788c0.255,0.767 0.547,1.57 0.766,2.117c0.511,1.059 1.168,3.066 1.643,4.344c0.511,1.314 1.423,4.635 1.788,5.803l0.84,2.592c0.292,1.022 0.584,2.19 0.693,3.102c0.219,1.752 0.84,2.227 1.022,2.227c0.402,-0 0.767,-0.183 1.095,-1.168c0.183,-0.548 0.256,-1.022 0.365,-1.46c0.073,-0.475 0.219,-0.949 0.511,-1.497c0.475,-1.058 1.168,-2.92 1.862,-4.745c0.73,-1.861 1.679,-4.197 2.19,-5.767c0.474,-1.569 1.095,-3.066 1.898,-3.066c0.62,0 0.693,0.511 0.73,0.803l-0,0.438c-0,0.11 0.036,0.183 0.036,0.219c0.073,0.073 0.146,0.256 0.256,0.438l0.839,2.3c0.584,1.058 2.008,4.927 2.373,6.679c0.182,0.803 0.438,1.533 0.766,2.263c0.292,0.767 0.621,1.497 0.803,2.373c0.329,1.642 1.241,2.336 1.46,2.336c0.256,-0 0.876,-0.621 1.059,-1.825c0.146,-0.621 0.182,-1.132 0.255,-1.606c0.11,-0.548 0.183,-1.059 0.438,-1.606l0.913,-2.263c0.328,-0.876 0.62,-1.752 0.766,-2.336c0.292,-1.205 1.205,-3.687 1.679,-5.548c0.511,-1.898 1.46,-4.125 2.409,-6.132Z" style="fill-rule:nonzero;"/>
    <path d="M233.383,209.032l0,-0.219c0,-0.292 -0.036,-0.548 -0.073,-0.84c-0.073,-0.62 -0.109,-2.372 -0.109,-3.905c-0,-0.986 -0,-1.935 0.036,-2.482l0,-0.256c0,-1.35 -0.401,-3.029 -1.022,-3.978c-0.62,-0.949 -2.445,-1.57 -3.395,-1.643c-0.182,0 -0.401,-0.036 -0.62,-0.036c-0.84,-0 -1.789,0.182 -2.811,0.949c-0.511,0.401 -0.876,0.547 -1.131,0.547c-0.219,0 -0.329,-0.073 -0.438,-0.182c-0.219,-0.219 -0.219,-0.621 -0.256,-0.913c-0.109,-0.328 -0.146,-0.693 -0.146,-1.131c0,-0.475 0.037,-0.986 0.11,-1.643c0.146,-1.277 0.292,-3.431 0.365,-5.548l-0,-0.219c-0,-0.912 -0.183,-1.168 -0.329,-1.314c-0.109,-0.109 -0.219,-0.146 -0.438,-0.182l-0.876,-0c-0.839,-0 -1.095,0.365 -1.095,1.022c0,0.949 0,2.701 0.11,4.891c0.146,2.226 0.255,7.373 0.255,8.796c0,1.424 -0.109,6.242 -0.219,7.738c-0.036,0.292 -0.073,0.548 -0.073,0.73c0,0.621 0.256,0.767 1.278,0.876l0.219,0c0.839,0 0.985,-0.401 0.985,-0.876c0,-0.146 -0.036,-0.292 -0.036,-0.438c-0.037,-0.438 -0.073,-1.825 -0.073,-3.321c-0,-1.497 0.036,-3.103 0.073,-3.906c0.109,-1.825 1.022,-2.591 1.679,-3.102c0.73,-0.548 2.08,-0.876 2.701,-0.876c0.109,-0 0.292,-0 0.474,0.036c0.731,0.037 1.278,0.329 1.826,0.949c0.73,0.876 0.766,2.081 0.766,3.212l0,0.475c0,1.095 -0.255,4.745 -0.401,6.022c-0.037,0.219 -0.037,0.438 -0.037,0.621c0,0.73 0.256,1.095 1.497,1.204l0.219,0c0.62,0 0.839,-0.255 0.912,-0.547c0.037,-0.146 0.073,-0.329 0.073,-0.511Z" style="fill-rule:nonzero;"/>
    <path d="M247.582,209.908c0.292,-0.183 0.547,-0.402 0.73,-0.584c0.182,-0.219 0.365,-0.402 0.547,-0.511c0.219,-0.219 0.475,-0.329 0.73,-0.329c0.365,0 0.694,0.292 0.694,0.73c-0,0.11 -0,0.219 -0.037,0.329c0,0.036 -0.036,0.073 -0.036,0.109c-0,0.329 0.365,0.365 1.387,0.438l0.182,0c0.548,0 0.657,-0.146 0.73,-0.292l0,-7.19c0,-1.205 -0.036,-2.482 -0.036,-3.65c-0,-0.584 -0,-1.132 0.036,-1.643l0,-0.182c0,-0.949 -0.474,-0.986 -1.095,-0.986l-0.365,0c-0.438,0 -0.657,0.037 -0.657,0.292c0,0.183 0.037,0.329 0.037,0.438c-0,0.584 -0.219,1.095 -0.657,1.241c-0.073,0.037 -0.11,0.037 -0.183,0.037c-0.255,-0 -0.584,-0.183 -0.912,-0.475c-0.329,-0.292 -0.584,-0.62 -0.876,-0.912c-0.402,-0.511 -1.898,-0.949 -3.285,-0.949c-2.044,-0 -4.38,1.314 -5.512,2.883c-0.803,1.168 -1.095,2.993 -1.241,4.49l0,0.292c0,1.423 0.84,3.723 1.752,4.854c0.949,1.205 2.555,2.3 5.256,2.3c1.314,-0 2.19,-0.329 2.811,-0.73Zm2.81,-6.716c-0.109,1.533 -0.62,3.358 -1.898,4.307c-0.985,0.766 -1.752,0.949 -2.883,0.949c-0.219,-0 -0.438,-0.037 -0.73,-0.037c-1.643,-0.109 -3.03,-0.839 -3.614,-1.788c-0.474,-0.876 -0.803,-2.008 -0.803,-3.285l0,-0.329c0.073,-1.314 0.621,-3.54 1.314,-4.051c0.511,-0.402 2.081,-1.059 3.395,-1.059c0.219,0 0.438,0 0.657,0.037l0.839,0.182c0.146,0 0.146,0.037 0.183,0.037c0.219,0.073 0.547,0.109 0.766,0.219c0.657,0.219 1.278,0.62 1.752,1.423l0.548,0.949c0.036,0.256 0.255,0.511 0.365,0.73c0.109,0.292 0.182,0.621 0.182,0.986c0,0.219 -0.036,0.474 -0.073,0.73Z" style="fill-rule:nonzero;"/>
    <path d="M264.554,196.987c0,-0.292 -0.146,-0.402 -0.438,-0.511c-0.182,-0.037 -0.401,-0.037 -0.62,-0.037c-0.256,0 -0.475,-0.036 -0.73,-0.036l-0.621,-0.073c-0.182,-0 -0.328,-0.037 -0.474,-0.073c-0.329,-0.11 -0.548,-0.365 -0.548,-0.73c0,-0.511 0,-1.387 0.073,-2.811l0,-0.146c0,-0.547 -0.109,-0.73 -0.219,-0.803c-0.182,-0.146 -0.547,-0.146 -0.766,-0.146l-0.11,0c-0.547,0 -0.876,0.438 -0.912,0.657c-0,0.037 -0.037,0.11 -0.037,0.146c0,0.183 0.037,0.475 0.073,0.84c0.073,0.474 0.146,1.095 0.146,1.715l0,0.183c0,0.657 -0.292,1.022 -0.766,1.131c-0.146,0.037 -0.292,0.037 -0.438,0.037c-0.256,-0 -0.584,-0.037 -0.84,-0.037c-0.511,0 -0.803,0.329 -0.912,1.424c-0,0.036 -0.037,0.073 -0.037,0.109c0,0.219 0.146,0.292 0.438,0.365c0.183,0.037 0.365,0.037 0.548,0.037c0.182,-0 0.365,-0.037 0.511,-0.037c0.584,0 1.35,0.438 1.35,1.241c0,0.584 0.11,1.862 0.11,3.504c-0,1.643 -0.219,4.782 -0.219,6.205c-0,0.694 0.109,0.876 0.219,0.949l0.292,0.073l0.657,0c0.912,0 1.204,-0.109 1.204,-0.584l0,-0.255c-0.109,-1.022 -0.292,-3.65 -0.328,-5.183c-0.037,-0.511 -0.073,-1.132 -0.073,-1.752c-0,-1.205 0.073,-2.446 0.109,-3.249c0.037,-0.803 0.511,-1.131 1.095,-1.168l0.11,0c0.438,0 0.839,0.11 1.277,0.146l0.146,0c0.475,0 0.73,-0.255 0.73,-1.131Z" style="fill-rule:nonzero;"/>
    <path d="M279.629,193.373c0,-1.241 -0.766,-2.664 -1.788,-3.942c-0.949,-1.204 -2.446,-1.861 -4.454,-1.861c-2.007,-0 -3.832,1.022 -4.854,2.153c-0.986,1.168 -1.351,2.993 -1.351,3.869l0,0.438c0,0.11 0.073,0.183 0.183,0.183l0.255,-0c0.219,-0 0.475,-0 0.803,0.036l0.256,0c0.365,0 0.511,-0.073 0.584,-0.146c0.109,-0.109 0.146,-0.255 0.182,-0.401c0,-0.037 0,-0.073 0.11,-0.949c0.109,-0.365 0.219,-0.767 0.401,-1.205c0.438,-0.949 1.898,-1.533 3.395,-1.679l0.584,0c0.511,0 0.913,0.073 1.278,0.219c0.401,0.183 0.803,0.511 1.204,0.767c0.913,0.657 1.132,2.19 1.132,3.102c-0,0.986 -0.146,1.898 -1.022,2.993c-0.767,0.986 -1.825,1.059 -2.957,1.095l-0.329,0c-1.058,0.037 -1.314,0.73 -1.314,1.059c0,0.474 0,3.394 0.037,4.745c0.036,0.839 0.438,0.985 0.839,0.985c0.073,0 0.183,-0.036 0.256,-0.036c0.511,-0.073 0.803,-0.219 0.803,-0.803c0,-0.803 0.146,-2.081 0.219,-2.847c0.073,-0.949 0.511,-1.351 1.533,-1.497c0.876,-0.109 2.008,-1.168 2.701,-1.715c0.73,-0.621 1.314,-3.176 1.314,-4.563Zm-5.073,15.148c0.036,-0.11 0.036,-0.219 0.036,-0.329c0,-0.876 -0.62,-1.387 -1.643,-1.387c-1.168,0 -1.606,0.694 -1.715,1.789l-0,0.109c-0,0.986 0.839,1.716 1.715,1.716c0.84,-0 1.424,-0.657 1.607,-1.898Z" style="fill-rule:nonzero;"/>
    <path d="M149.864,312.304l17.268,3.594l-17.268,4.964" style="fill:none;stroke:#000;stroke-width:1.74px;stroke-linecap:round;stroke-linejoin:miter;stroke-miterlimit:1.5;"/>
    <path d="M231.464,79.504l17.268,3.594l-17.268,4.964" style="fill:none;stroke:#000;stroke-width:1.74px;stroke-linecap:round;stroke-linejoin:miter;stroke-miterlimit:1.5;"/>
	  <a href="L4-3.svg">
    <circle id="Link-to-L4-3" serif:id="Link to L4-3" cx="40.609" cy="491.043" r="17.4" style="fill:#149d15;"/>
	  </a>
  </g>
</svg>
