<?xml version="1.0" encoding="UTF-8" standalone="no"?>
<!DOCTYPE svg PUBLIC "-//W3C//DTD SVG 1.1//EN" "http://www.w3.org/Graphics/SVG/1.1/DTD/svg11.dtd">
<svg width="100%" height="100%" viewBox="0 0 406 529" version="1.1" xmlns="http://www.w3.org/2000/svg" xmlns:xlink="http://www.w3.org/1999/xlink" xml:space="preserve" xmlns:serif="http://www.serif.com/" style="fill-rule:evenodd;clip-rule:evenodd;stroke-linejoin:bevel;">
  <rect id="L2-9" x="0.025" y="0.003" width="405.12" height="528" style="fill:none;"/>
  <clipPath id="_clip1">
    <rect x="0.025" y="0.003" width="405.12" height="528"/>
  </clipPath>
  <g clip-path="url(#_clip1)">
	  <a href="L2-1.svg">
    <circle id="Link-to-L2-1" serif:id="Link to L2-1" cx="40.537" cy="491.043" r="17.4" style="fill:#c847ff;"/>
	  </a>
    <g id="staff-bottom" serif:id="staff bottom">
      <path d="M0.025,344.403l405.12,0" style="fill:none;fill-rule:nonzero;stroke:#000;stroke-width:1.2px;"/>
      <path d="M0.025,357.003l405.12,0" style="fill:none;fill-rule:nonzero;stroke:#000;stroke-width:1.2px;"/>
      <path d="M0.025,369.603l405.12,0" style="fill:none;fill-rule:nonzero;stroke:#000;stroke-width:1.2px;"/>
      <path d="M0.025,382.203l405.12,0" style="fill:none;fill-rule:nonzero;stroke:#000;stroke-width:1.2px;"/>
      <path d="M0.025,394.803l405.12,0" style="fill:none;fill-rule:nonzero;stroke:#000;stroke-width:1.2px;"/>
    </g>
    <g id="staff-top" serif:id="staff top">
      <path d="M0.025,106.803l405.12,0" style="fill:none;fill-rule:nonzero;stroke:#000;stroke-width:1.2px;"/>
      <path d="M0.025,119.403l405.12,0" style="fill:none;fill-rule:nonzero;stroke:#000;stroke-width:1.2px;"/>
      <path d="M0.025,132.003l405.12,0" style="fill:none;fill-rule:nonzero;stroke:#000;stroke-width:1.2px;"/>
      <path d="M0.025,144.603l405.12,0" style="fill:none;fill-rule:nonzero;stroke:#000;stroke-width:1.2px;"/>
      <path d="M0.025,157.203l405.12,0" style="fill:none;fill-rule:nonzero;stroke:#000;stroke-width:1.2px;"/>
    </g>
    <path d="M208.439,142.459c-0.049,-0.049 -0.155,-0.154 -0.309,-0.358l-5.984,-7.39c-0.057,-0.057 -0.106,-0.212 -0.106,-0.317c0,-0.155 0.049,-0.358 0.106,-0.464l5.301,-8.016c0.057,-0.106 0.105,-0.26 0.105,-0.366l0,-0.464c0,-0.154 -0.048,-0.317 -0.154,-0.414l-8.431,-11.399c-0,-0 -0.203,-0.317 -0.521,-0.317c-0.154,-0 -0.26,-0 -0.414,0.162c-0.212,0.155 -0.26,0.358 -0.26,0.521c-0,0.309 0.154,0.569 0.154,0.569l3.96,5.415c0.097,0.154 0.154,0.357 0.154,0.618c0,0.211 -0.057,0.471 -0.154,0.626l-5.261,8.016c-0.049,0.106 -0.105,0.309 -0.105,0.415l-0,0.471c-0,0.155 0.056,0.309 0.162,0.415l5.822,7.236c-0.204,-0.057 -0.675,-0.162 -1.301,-0.162c-2.651,-0 -4.732,2.187 -4.732,4.845c-0,0.724 0.154,1.456 0.569,2.025c1.097,1.666 5,6.61 5,6.61c0,-0 0.26,0.317 0.626,0.317c0.098,-0 0.203,-0 0.309,-0.106c0.26,-0.211 0.366,-0.415 0.366,-0.626c-0,-0.211 -0.106,-0.366 -0.155,-0.472c-0.162,-0.26 -1.821,-3.276 -1.821,-3.276c0,-0 -0.366,-0.732 -0.366,-1.667c0,-1.666 1.244,-3.016 2.911,-3.016c0.675,-0 1.252,0.211 1.667,0.471l2.032,1.301c0,0 0.204,0.098 0.415,0.098c0.203,-0 0.366,-0.049 0.52,-0.26c0.106,-0.155 0.155,-0.309 0.155,-0.464c-0,-0.154 -0.049,-0.26 -0.155,-0.414l-0.105,-0.163" style="fill-rule:nonzero;"/>
    <path d="M208.439,382.459c-0.049,-0.049 -0.155,-0.154 -0.309,-0.358l-5.984,-7.39c-0.057,-0.057 -0.106,-0.212 -0.106,-0.317c0,-0.155 0.049,-0.358 0.106,-0.464l5.301,-8.016c0.057,-0.106 0.105,-0.26 0.105,-0.366l0,-0.464c0,-0.154 -0.048,-0.317 -0.154,-0.414l-8.431,-11.399c-0,-0 -0.203,-0.317 -0.521,-0.317c-0.154,-0 -0.26,-0 -0.414,0.162c-0.212,0.155 -0.26,0.358 -0.26,0.521c-0,0.309 0.154,0.569 0.154,0.569l3.96,5.415c0.097,0.154 0.154,0.357 0.154,0.618c0,0.211 -0.057,0.471 -0.154,0.626l-5.261,8.016c-0.049,0.106 -0.105,0.309 -0.105,0.415l-0,0.471c-0,0.155 0.056,0.309 0.162,0.415l5.822,7.236c-0.204,-0.057 -0.675,-0.162 -1.301,-0.162c-2.651,-0 -4.732,2.187 -4.732,4.845c-0,0.724 0.154,1.456 0.569,2.025c1.097,1.666 5,6.61 5,6.61c0,-0 0.26,0.317 0.626,0.317c0.098,-0 0.203,-0 0.309,-0.106c0.26,-0.211 0.366,-0.415 0.366,-0.626c-0,-0.211 -0.106,-0.366 -0.155,-0.472c-0.162,-0.26 -1.821,-3.276 -1.821,-3.276c0,-0 -0.366,-0.732 -0.366,-1.667c0,-1.666 1.244,-3.016 2.911,-3.016c0.675,-0 1.252,0.211 1.667,0.471l2.032,1.301c0,0 0.204,0.098 0.415,0.098c0.203,-0 0.366,-0.049 0.52,-0.26c0.106,-0.155 0.155,-0.309 0.155,-0.464c-0,-0.154 -0.049,-0.26 -0.155,-0.414l-0.105,-0.163" style="fill-rule:nonzero;"/>
	  <a href="L3-1.svg">
    <circle id="Link-to-L3-1" serif:id="Link to L3-1" cx="364.537" cy="491.043" r="17.4" style="fill:#ff9447;"/>
	  </a>
  </g>
</svg>
