<?xml version="1.0" encoding="UTF-8" standalone="no"?>
<!DOCTYPE svg PUBLIC "-//W3C//DTD SVG 1.1//EN" "http://www.w3.org/Graphics/SVG/1.1/DTD/svg11.dtd">
<svg width="100%" height="100%" viewBox="0 0 406 529" version="1.1" xmlns="http://www.w3.org/2000/svg" xmlns:xlink="http://www.w3.org/1999/xlink" xml:space="preserve" xmlns:serif="http://www.serif.com/" style="fill-rule:evenodd;clip-rule:evenodd;stroke-linejoin:bevel;">
  <rect id="L4-2" x="0.172" y="0.083" width="405.12" height="528" style="fill:none;"/>
  <clipPath id="_clip1">
    <rect x="0.172" y="0.083" width="405.12" height="528"/>
  </clipPath>
  <g clip-path="url(#_clip1)">
    <g id="staff-bottom" serif:id="staff bottom">
      <path d="M0.172,344.483l405.12,0" style="fill:none;fill-rule:nonzero;stroke:#000;stroke-width:1.2px;"/>
      <path d="M0.172,357.083l405.12,0" style="fill:none;fill-rule:nonzero;stroke:#000;stroke-width:1.2px;"/>
      <path d="M0.172,369.683l405.12,0" style="fill:none;fill-rule:nonzero;stroke:#000;stroke-width:1.2px;"/>
      <path d="M0.172,382.283l405.12,0" style="fill:none;fill-rule:nonzero;stroke:#000;stroke-width:1.2px;"/>
      <path d="M0.172,394.883l405.12,0" style="fill:none;fill-rule:nonzero;stroke:#000;stroke-width:1.2px;"/>
    </g>
	  <a href="L4-3.svg">
    <circle cx="364.78" cy="491.123" r="17.4" style="fill:#149d15;"/>
	  </a>
    <path d="M148.857,143.983c-0,-0.2 -0,-0.4 -0.05,-0.7l-0.1,-1c-0.05,-0.75 -0.2,-1.05 -0.45,-1.05c-0.05,0 -0.2,0.05 -0.35,0.15c-0.9,0.65 -2.4,1.4 -4.45,1.4l-0.65,0c-2.3,-0.25 -3,-0.55 -4.7,-1.75c-1.85,-1.3 -2.2,-3.65 -2.2,-5.5c-0,-2 0.6,-3.9 2.35,-5.3c1.8,-1.45 2.7,-1.6 4.7,-1.7l0.35,0c1.9,0 3.15,0.55 4.45,1.45c0.25,0.15 0.45,0.3 0.5,0.3c0.05,0 0.1,-0.05 0.15,-0.1c0.1,-0.15 0.1,-0.35 0.2,-0.65c0.05,-0.35 0.15,-0.75 0.15,-1.25c0.05,-0.2 0.05,-0.35 0.05,-0.5c-0,-0.5 -0.15,-0.75 -0.3,-0.9c-0.2,-0.15 -0.35,-0.3 -0.55,-0.4c-0.25,-0.15 -0.5,-0.25 -0.7,-0.45c-0.8,-0.5 -2.1,-0.55 -4.8,-0.7l-0.2,0c-2.7,0 -5.15,1.55 -6.95,3.15c-1.6,1.5 -2.5,5.25 -2.5,7.35l-0,0.3c0.1,2.1 0.75,4.7 2.95,6.9c2.15,2.15 4.5,2.75 6.65,2.9l0.4,0c0.9,0 1.65,-0.15 2.4,-0.3c0.85,-0.2 1.65,-0.55 2.55,-0.85c0.95,-0.35 1.05,-0.6 1.1,-0.8Z" style="fill-rule:nonzero;"/>
    <path d="M165.657,144.983c0.4,-0.25 0.75,-0.55 1,-0.8c0.25,-0.3 0.5,-0.55 0.75,-0.7c0.3,-0.3 0.65,-0.45 1,-0.45c0.5,0 0.95,0.4 0.95,1c-0,0.15 -0,0.3 -0.05,0.45c-0,0.05 -0.05,0.1 -0.05,0.15c-0,0.45 0.5,0.5 1.9,0.6l0.25,0c0.75,0 0.9,-0.2 1,-0.4l-0,-9.85c-0,-1.65 -0.05,-3.4 -0.05,-5c-0,-0.8 -0,-1.55 0.05,-2.25l-0,-0.25c-0,-1.3 -0.65,-1.35 -1.5,-1.35l-0.5,0c-0.6,0 -0.9,0.05 -0.9,0.4c-0,0.25 0.05,0.45 0.05,0.6c-0,0.8 -0.3,1.5 -0.9,1.7c-0.1,0.05 -0.15,0.05 -0.25,0.05c-0.35,0 -0.8,-0.25 -1.25,-0.65c-0.45,-0.4 -0.8,-0.85 -1.2,-1.25c-0.55,-0.7 -2.6,-1.3 -4.5,-1.3c-2.8,0 -6,1.8 -7.55,3.95c-1.1,1.6 -1.5,4.1 -1.7,6.15l-0,0.4c-0,1.95 1.15,5.1 2.4,6.65c1.3,1.65 3.5,3.15 7.2,3.15c1.8,0 3,-0.45 3.85,-1Zm3.85,-9.2c-0.15,2.1 -0.85,4.6 -2.6,5.9c-1.35,1.05 -2.4,1.3 -3.95,1.3c-0.3,0 -0.6,-0.05 -1,-0.05c-2.25,-0.15 -4.15,-1.15 -4.95,-2.45c-0.65,-1.2 -1.1,-2.75 -1.1,-4.5l-0,-0.45c0.1,-1.8 0.85,-4.85 1.8,-5.55c0.7,-0.55 2.85,-1.45 4.65,-1.45c0.3,0 0.6,0 0.9,0.05l1.15,0.25c0.2,0 0.2,0.05 0.25,0.05c0.3,0.1 0.75,0.15 1.05,0.3c0.9,0.3 1.75,0.85 2.4,1.95l0.75,1.3c0.05,0.35 0.35,0.7 0.5,1c0.15,0.4 0.25,0.85 0.25,1.35c-0,0.3 -0.05,0.65 -0.1,1Z" style="fill-rule:nonzero;"/>
    <path d="M188.907,127.283c-0,-0.4 -0.2,-0.55 -0.6,-0.7c-0.25,-0.05 -0.55,-0.05 -0.85,-0.05c-0.35,0 -0.65,-0.05 -1,-0.05l-0.85,-0.1c-0.25,0 -0.45,-0.05 -0.65,-0.1c-0.45,-0.15 -0.75,-0.5 -0.75,-1c-0,-0.7 -0,-1.9 0.1,-3.85l-0,-0.2c-0,-0.75 -0.15,-1 -0.3,-1.1c-0.25,-0.2 -0.75,-0.2 -1.05,-0.2l-0.15,0c-0.75,0 -1.2,0.6 -1.25,0.9c-0,0.05 -0.05,0.15 -0.05,0.2c-0,0.25 0.05,0.65 0.1,1.15c0.1,0.65 0.2,1.5 0.2,2.35l-0,0.25c-0,0.9 -0.4,1.4 -1.05,1.55c-0.2,0.05 -0.4,0.05 -0.6,0.05c-0.35,0 -0.8,-0.05 -1.15,-0.05c-0.7,0 -1.1,0.45 -1.25,1.95c-0,0.05 -0.05,0.1 -0.05,0.15c-0,0.3 0.2,0.4 0.6,0.5c0.25,0.05 0.5,0.05 0.75,0.05c0.25,0 0.5,-0.05 0.7,-0.05c0.8,0 1.85,0.6 1.85,1.7c-0,0.8 0.15,2.55 0.15,4.8c-0,2.25 -0.3,6.55 -0.3,8.5c-0,0.95 0.15,1.2 0.3,1.3l0.4,0.1l0.9,0c1.25,0 1.65,-0.15 1.65,-0.8l-0,-0.35c-0.15,-1.4 -0.4,-5 -0.45,-7.1c-0.05,-0.7 -0.1,-1.55 -0.1,-2.4c-0,-1.65 0.1,-3.35 0.15,-4.45c0.05,-1.1 0.7,-1.55 1.5,-1.6l0.15,0c0.6,0 1.15,0.15 1.75,0.2l0.2,0c0.65,0 1,-0.35 1,-1.55Z" style="fill-rule:nonzero;"/>
    <path d="M208.607,143.983c-0,-0.2 -0,-0.4 -0.05,-0.7l-0.1,-1c-0.05,-0.75 -0.2,-1.05 -0.45,-1.05c-0.05,0 -0.2,0.05 -0.35,0.15c-0.9,0.65 -2.4,1.4 -4.45,1.4l-0.65,0c-2.3,-0.25 -3,-0.55 -4.7,-1.75c-1.85,-1.3 -2.2,-3.65 -2.2,-5.5c-0,-2 0.6,-3.9 2.35,-5.3c1.8,-1.45 2.7,-1.6 4.7,-1.7l0.35,0c1.9,0 3.15,0.55 4.45,1.45c0.25,0.15 0.45,0.3 0.5,0.3c0.05,0 0.1,-0.05 0.15,-0.1c0.1,-0.15 0.1,-0.35 0.2,-0.65c0.05,-0.35 0.15,-0.75 0.15,-1.25c0.05,-0.2 0.05,-0.35 0.05,-0.5c-0,-0.5 -0.15,-0.75 -0.3,-0.9c-0.2,-0.15 -0.35,-0.3 -0.55,-0.4c-0.25,-0.15 -0.5,-0.25 -0.7,-0.45c-0.8,-0.5 -2.1,-0.55 -4.8,-0.7l-0.2,0c-2.7,0 -5.15,1.55 -6.95,3.15c-1.6,1.5 -2.5,5.25 -2.5,7.35l-0,0.3c0.1,2.1 0.75,4.7 2.95,6.9c2.15,2.15 4.5,2.75 6.65,2.9l0.4,0c0.9,0 1.65,-0.15 2.4,-0.3c0.85,-0.2 1.65,-0.55 2.55,-0.85c0.95,-0.35 1.05,-0.6 1.1,-0.8Z" style="fill-rule:nonzero;"/>
    <path d="M225.407,144.983c0.4,-0.25 0.75,-0.55 1,-0.8c0.25,-0.3 0.5,-0.55 0.75,-0.7c0.3,-0.3 0.65,-0.45 1,-0.45c0.5,0 0.95,0.4 0.95,1c-0,0.15 -0,0.3 -0.05,0.45c-0,0.05 -0.05,0.1 -0.05,0.15c-0,0.45 0.5,0.5 1.9,0.6l0.25,0c0.75,0 0.9,-0.2 1,-0.4l-0,-9.85c-0,-1.65 -0.05,-3.4 -0.05,-5c-0,-0.8 -0,-1.55 0.05,-2.25l-0,-0.25c-0,-1.3 -0.65,-1.35 -1.5,-1.35l-0.5,0c-0.6,0 -0.9,0.05 -0.9,0.4c-0,0.25 0.05,0.45 0.05,0.6c-0,0.8 -0.3,1.5 -0.9,1.7c-0.1,0.05 -0.15,0.05 -0.25,0.05c-0.35,0 -0.8,-0.25 -1.25,-0.65c-0.45,-0.4 -0.8,-0.85 -1.2,-1.25c-0.55,-0.7 -2.6,-1.3 -4.5,-1.3c-2.8,0 -6,1.8 -7.55,3.95c-1.1,1.6 -1.5,4.1 -1.7,6.15l-0,0.4c-0,1.95 1.15,5.1 2.4,6.65c1.3,1.65 3.5,3.15 7.2,3.15c1.8,0 3,-0.45 3.85,-1Zm3.85,-9.2c-0.15,2.1 -0.85,4.6 -2.6,5.9c-1.35,1.05 -2.4,1.3 -3.95,1.3c-0.3,0 -0.6,-0.05 -1,-0.05c-2.25,-0.15 -4.15,-1.15 -4.95,-2.45c-0.65,-1.2 -1.1,-2.75 -1.1,-4.5l-0,-0.45c0.1,-1.8 0.85,-4.85 1.8,-5.55c0.7,-0.55 2.85,-1.45 4.65,-1.45c0.3,0 0.6,0 0.9,0.05l1.15,0.25c0.2,0 0.2,0.05 0.25,0.05c0.3,0.1 0.75,0.15 1.05,0.3c0.9,0.3 1.75,0.85 2.4,1.95l0.75,1.3c0.05,0.35 0.35,0.7 0.5,1c0.15,0.4 0.25,0.85 0.25,1.35c-0,0.3 -0.05,0.65 -0.1,1Z" style="fill-rule:nonzero;"/>
    <path d="M244.407,144.383c-0,-0.75 -0.3,-3.6 -0.5,-4.8c-0.1,-0.6 -0.1,-3 -0.1,-5.5l-0,-6.85c-0,-3.15 0.2,-9.3 0.4,-12.05l-0,-0.5c-0,-1.85 -0.9,-1.95 -1.9,-2.1l-0.25,0c-0.7,0 -1.5,0.2 -1.5,0.45c-0,0.4 0.1,2.65 0.2,3.8c0.05,0.6 0.05,3 0.05,5.6l-0,6.6c0.05,0.75 0.05,2 0.05,3.4c-0,3.55 -0.05,8.35 -0.2,10.6c-0.05,0.25 -0.05,0.45 -0.05,0.65c-0,1.05 0.3,1.45 0.6,1.6c0.2,0.2 0.6,0.25 0.9,0.25c0.3,0 0.6,-0.05 0.85,-0.05c1.3,-0.1 1.45,-0.55 1.45,-1.1Z" style="fill-rule:nonzero;"/>
    <path d="M256.657,144.383c-0,-0.75 -0.3,-3.6 -0.5,-4.8c-0.1,-0.6 -0.1,-3 -0.1,-5.5l-0,-6.85c-0,-3.15 0.2,-9.3 0.4,-12.05l-0,-0.5c-0,-1.85 -0.9,-1.95 -1.9,-2.1l-0.25,0c-0.7,0 -1.5,0.2 -1.5,0.45c-0,0.4 0.1,2.65 0.2,3.8c0.05,0.6 0.05,3 0.05,5.6l-0,6.6c0.05,0.75 0.05,2 0.05,3.4c-0,3.55 -0.05,8.35 -0.2,10.6c-0.05,0.25 -0.05,0.45 -0.05,0.65c-0,1.05 0.3,1.45 0.6,1.6c0.2,0.2 0.6,0.25 0.9,0.25c0.3,0 0.6,-0.05 0.85,-0.05c1.3,-0.1 1.45,-0.55 1.45,-1.1Z" style="fill-rule:nonzero;"/>
    <path d="M275.307,139.383c-0,-1.6 -1.1,-2.8 -2.1,-3.8c-0.8,-0.8 -3.85,-2.45 -4.9,-2.95c-1.15,-0.5 -2.25,-1.35 -2.25,-2.6c-0,-1.25 1,-1.75 2.25,-1.75l0.45,0c1.6,0.05 2.45,0.6 3.65,1.6c0.4,0.35 0.6,0.4 0.7,0.4c0.15,0 0.25,-0.1 0.35,-0.2l0.35,-0.4c0.1,-0.15 0.25,-0.3 0.3,-0.45c0.15,-0.2 0.2,-0.4 0.2,-0.55c-0,-0.2 -0.05,-0.4 -0.25,-0.65c-0.7,-0.75 -2.75,-2.15 -5.75,-2.25l-0.35,0c-0.85,0 -1.3,0.1 -1.65,0.25c-0.4,0.2 -0.7,0.5 -1,0.8c-0.7,0.55 -1.55,1.55 -1.65,2.7c-0,0.2 -0.05,0.4 -0.05,0.55c-0,1.15 0.25,2.1 0.95,3c0.8,1.1 2.6,2.2 4.5,3c2,0.8 3.9,2.35 3.9,4c-0,1.7 -1.4,2.7 -3.6,2.85c-0.15,0 -0.3,0.05 -0.4,0.05c-2.15,0 -3.65,-1.8 -4,-2.5c-0.1,-0.35 -0.5,-0.55 -0.8,-0.55c-0.2,0 -0.5,0.1 -0.85,0.15c-0.75,0.2 -1,0.8 -1,1.4c-0,0.2 -0,0.45 0.15,0.65c0.35,0.65 1.65,1.65 2.85,2.4c1.1,0.6 3.05,1 4.4,1c1.2,0 2.65,-0.9 3.95,-1.75c1.1,-0.75 1.6,-2.75 1.65,-4.4Z" style="fill-rule:nonzero;"/>
    <g>
      <path d="M57.529,345.188l-0,49.475" style="fill:none;fill-rule:nonzero;stroke:#000;stroke-width:2.16px;"/>
      <path d="M59.756,345.188l-0,49.475" style="fill:none;fill-rule:nonzero;stroke:#000;stroke-width:6.62px;"/>
      <path d="M68.603,345.188l0,49.475" style="fill:none;fill-rule:nonzero;stroke:#000;stroke-width:2.16px;"/>
      <path d="M79.151,363.907c0,-1.4 -1.113,-2.551 -2.505,-2.551c-1.399,0 -2.505,1.151 -2.505,2.551c-0,1.399 1.106,2.55 2.505,2.55c1.392,0 2.505,-1.151 2.505,-2.55" style="fill-rule:nonzero;"/>
      <path d="M79.151,375.944c0,-1.399 -1.113,-2.55 -2.505,-2.55c-1.399,0 -2.505,1.151 -2.505,2.55c-0,1.4 1.106,2.551 2.505,2.551c1.392,-0 2.505,-1.151 2.505,-2.551" style="fill-rule:nonzero;"/>
      <path d="M333.557,363.907c0,-1.4 -1.113,-2.551 -2.505,-2.551c-1.4,0 -2.506,1.151 -2.506,2.551c0,1.399 1.106,2.55 2.506,2.55c1.392,0 2.505,-1.151 2.505,-2.55" style="fill-rule:nonzero;"/>
      <path d="M333.557,375.944c0,-1.399 -1.113,-2.55 -2.505,-2.55c-1.4,0 -2.506,1.151 -2.506,2.55c0,1.4 1.106,2.551 2.506,2.551c1.392,-0 2.505,-1.151 2.505,-2.551" style="fill-rule:nonzero;"/>
      <path d="M253.637,406.904c0,-1.399 -1.113,-2.55 -2.505,-2.55c-1.4,0 -2.506,1.151 -2.506,2.55c0,1.4 1.106,2.551 2.506,2.551c1.392,-0 2.505,-1.151 2.505,-2.551" style="fill-rule:nonzero;"/>
      <path d="M339.087,345.188l0,49.475" style="fill:none;fill-rule:nonzero;stroke:#000;stroke-width:2.16px;"/>
      <path d="M347.935,345.188l-0,49.475" style="fill:none;fill-rule:nonzero;stroke:#000;stroke-width:6.62px;"/>
      <path d="M109.23,386.056l0,-40.206" style="fill:none;fill-rule:nonzero;stroke:#000;stroke-width:1.2px;"/>
      <path d="M212.118,386.056l0,-52.243" style="fill:none;fill-rule:nonzero;stroke:#000;stroke-width:1.2px;"/>
      <path d="M234.982,368l0,-34.187" style="fill:none;fill-rule:nonzero;stroke:#000;stroke-width:1.2px;"/>
      <path d="M257.846,392.075l0,-58.262" style="fill:none;fill-rule:nonzero;stroke:#000;stroke-width:1.2px;"/>
      <path d="M94.191,390.006c0,2.069 1.49,4.379 5.394,4.379c5.004,-0 10.255,-4.093 10.255,-8.329c0,-2.844 -2.408,-4.431 -5.394,-4.431c-4.672,-0 -10.255,3.95 -10.255,8.381" style="fill-rule:nonzero;"/>
      <path d="M197.079,390.006c-0,2.069 1.489,4.379 5.394,4.379c5.003,-0 10.255,-4.093 10.255,-8.329c-0,-2.844 -2.408,-4.431 -5.395,-4.431c-4.672,-0 -10.254,3.95 -10.254,8.381" style="fill-rule:nonzero;"/>
      <path d="M219.943,371.95c-0,2.068 1.49,4.378 5.394,4.378c5.003,0 10.255,-4.093 10.255,-8.328c-0,-2.844 -2.408,-4.432 -5.395,-4.432c-4.672,0 -10.254,3.95 -10.254,8.382" style="fill-rule:nonzero;"/>
      <path d="M242.807,396.025c-0,2.069 1.489,4.378 5.394,4.378c5.003,0 10.255,-4.092 10.255,-8.328c-0,-2.844 -2.408,-4.431 -5.395,-4.431c-4.672,-0 -10.254,3.949 -10.254,8.381" style="fill-rule:nonzero;"/>
      <path d="M156.71,377.916c-0.046,-0.045 -0.143,-0.143 -0.286,-0.331l-5.538,-6.839c-0.052,-0.053 -0.097,-0.196 -0.097,-0.294c-0,-0.143 0.045,-0.331 0.097,-0.429l4.906,-7.418c0.052,-0.098 0.097,-0.24 0.097,-0.338l0,-0.429c0,-0.143 -0.045,-0.294 -0.142,-0.384l-7.802,-10.548c-0,0 -0.188,-0.293 -0.482,-0.293c-0.143,-0 -0.241,-0 -0.384,0.15c-0.195,0.143 -0.24,0.331 -0.24,0.482c-0,0.286 0.143,0.526 0.143,0.526l3.664,5.011c0.09,0.143 0.143,0.331 0.143,0.572c-0,0.196 -0.053,0.436 -0.143,0.579l-4.868,7.418c-0.045,0.098 -0.098,0.286 -0.098,0.384l0,0.436c0,0.143 0.053,0.286 0.151,0.384l5.386,6.696c-0.188,-0.053 -0.624,-0.15 -1.203,-0.15c-2.453,-0 -4.379,2.023 -4.379,4.484c-0,0.669 0.143,1.346 0.527,1.873c1.015,1.542 4.627,6.117 4.627,6.117c-0,-0 0.24,0.293 0.579,0.293c0.09,0 0.188,0 0.286,-0.098c0.24,-0.195 0.338,-0.383 0.338,-0.579c0,-0.196 -0.098,-0.339 -0.143,-0.436c-0.15,-0.241 -1.685,-3.032 -1.685,-3.032c0,-0 -0.338,-0.678 -0.338,-1.543c-0,-1.542 1.151,-2.791 2.693,-2.791c0.624,0 1.159,0.196 1.542,0.436l1.881,1.204c0,0 0.188,0.09 0.384,0.09c0.188,0 0.338,-0.045 0.481,-0.24c0.098,-0.143 0.143,-0.286 0.143,-0.429c0,-0.143 -0.045,-0.241 -0.143,-0.384l-0.097,-0.15" style="fill-rule:nonzero;"/>
      <path d="M288.177,377.916c-0.045,-0.045 -0.143,-0.143 -0.286,-0.331l-5.537,-6.839c-0.053,-0.053 -0.098,-0.196 -0.098,-0.294c0,-0.143 0.045,-0.331 0.098,-0.429l4.905,-7.418c0.053,-0.098 0.098,-0.24 0.098,-0.338l0,-0.429c0,-0.143 -0.045,-0.294 -0.143,-0.384l-7.802,-10.548c0,0 -0.188,-0.293 -0.481,-0.293c-0.143,-0 -0.241,-0 -0.384,0.15c-0.195,0.143 -0.241,0.331 -0.241,0.482c0,0.286 0.143,0.526 0.143,0.526l3.664,5.011c0.091,0.143 0.143,0.331 0.143,0.572c0,0.196 -0.052,0.436 -0.143,0.579l-4.867,7.418c-0.046,0.098 -0.098,0.286 -0.098,0.384l-0,0.436c-0,0.143 0.052,0.286 0.15,0.384l5.387,6.696c-0.188,-0.053 -0.624,-0.15 -1.204,-0.15c-2.452,-0 -4.378,2.023 -4.378,4.484c-0,0.669 0.143,1.346 0.526,1.873c1.016,1.542 4.627,6.117 4.627,6.117c0,-0 0.241,0.293 0.58,0.293c0.09,0 0.188,0 0.285,-0.098c0.241,-0.195 0.339,-0.383 0.339,-0.579c0,-0.196 -0.098,-0.339 -0.143,-0.436c-0.15,-0.241 -1.685,-3.032 -1.685,-3.032c-0,-0 -0.339,-0.678 -0.339,-1.543c0,-1.542 1.151,-2.791 2.694,-2.791c0.624,0 1.158,0.196 1.542,0.436l1.881,1.204c-0,0 0.188,0.09 0.384,0.09c0.188,0 0.338,-0.045 0.481,-0.24c0.098,-0.143 0.143,-0.286 0.143,-0.429c0,-0.143 -0.045,-0.241 -0.143,-0.384l-0.098,-0.15" style="fill-rule:nonzero;"/>
      <path d="M211.517,330.803l46.931,0l0,6.019l-46.931,0l-0,-6.019"/>
      <path d="M211.517,339.832l24.067,-0l0,6.018l-24.067,0l-0,-6.018"/>
    </g>
  </g>
</svg>
