<?xml version="1.0" encoding="UTF-8" standalone="no"?>
<!DOCTYPE svg PUBLIC "-//W3C//DTD SVG 1.1//EN" "http://www.w3.org/Graphics/SVG/1.1/DTD/svg11.dtd">
<svg width="100%" height="100%" viewBox="0 0 406 529" version="1.1" xmlns="http://www.w3.org/2000/svg" xmlns:xlink="http://www.w3.org/1999/xlink" xml:space="preserve" xmlns:serif="http://www.serif.com/" style="fill-rule:evenodd;clip-rule:evenodd;stroke-linejoin:bevel;">
  <rect id="L4-7" x="0.067" y="0.083" width="405.12" height="528" style="fill:none;"/>
  <clipPath id="_clip1">
    <rect x="0.067" y="0.083" width="405.12" height="528"/>
  </clipPath>
  <g clip-path="url(#_clip1)">
    <g id="staff-bottom" serif:id="staff bottom">
      <path d="M0.067,344.483l405.12,0" style="fill:none;fill-rule:nonzero;stroke:#000;stroke-width:1.2px;"/>
      <path d="M0.067,357.083l405.12,0" style="fill:none;fill-rule:nonzero;stroke:#000;stroke-width:1.2px;"/>
      <path d="M0.067,369.683l405.12,0" style="fill:none;fill-rule:nonzero;stroke:#000;stroke-width:1.2px;"/>
      <path d="M0.067,382.283l405.12,0" style="fill:none;fill-rule:nonzero;stroke:#000;stroke-width:1.2px;"/>
      <path d="M0.067,394.883l405.12,0" style="fill:none;fill-rule:nonzero;stroke:#000;stroke-width:1.2px;"/>
    </g>
	  <a href="L4-8.svg">
    <circle cx="364.675" cy="491.123" r="17.4" style="fill:#149d15;"/>
	  </a>
    <path d="M181.352,122.933c-0.35,-0.15 -1.55,-0.55 -2.9,-0.55c-1.35,0 -3.2,1.2 -3.85,2.45c-0.15,0.3 -0.35,0.6 -0.6,0.75c-0.15,0.05 -0.25,0.05 -0.3,0.05c-0.25,0 -0.45,-0.15 -0.55,-0.3c-0.15,-0.3 -0.2,-0.7 -0.2,-1.1l-0,-0.35c-0,-0.85 -0.9,-1.2 -1.55,-1.2c-1.25,0 -1.4,0.4 -1.45,0.65c-0,0.05 -0.05,0.1 -0.05,0.2c-0,0.15 0.05,0.4 0.1,0.65c0.05,0.35 0.1,0.75 0.15,1.1c0.1,1.65 0.1,5.35 0.1,7.55c-0,2.15 -0.1,4.4 -0.45,7.3c-0.05,0.5 -0.05,0.9 -0.05,1.15c-0,0.3 0.05,0.45 0.25,0.55c0.1,0.05 0.3,0.05 0.75,0.05c0.4,-0.05 0.9,-0.1 1.5,-0.1c1.25,0 1.55,-0.85 1.55,-1.8c-0,-0.7 -0.2,-1.5 -0.3,-2.1c-0.2,-1 -0.25,-2.85 -0.25,-4.7c-0,-1 -0,-1.95 0.05,-2.8c0.15,-2.7 1.95,-4.2 3.65,-4.6c0.65,-0.15 1.1,-0.2 1.55,-0.2c0.6,0 1,0.1 1.65,0.35c0.1,0 0.25,0.15 0.35,0.15c0.15,0 0.2,-0.05 0.25,-0.2c0.1,-0.05 0.2,-0.25 0.25,-0.5c0.15,-0.25 0.25,-0.55 0.35,-0.9c0.15,-0.5 0.25,-0.85 0.25,-1.05c-0,-0.25 -0.1,-0.4 -0.25,-0.5Z" style="fill-rule:nonzero;"/>
    <path d="M204.352,132.083c-0,-0.05 0.05,-0.1 0.05,-0.2c-0,-0.05 -0.05,-0.2 -0.05,-0.35l-0.2,-1.05c-0.35,-1.6 -2.1,-4.25 -3.4,-5.8c-1.3,-1.4 -3.8,-2.25 -5.9,-2.35l-0.55,0c-2.15,0 -3.85,1.05 -5.6,2.2l-0.4,0.25c-1.9,1.15 -3.25,4.95 -3.35,7.95l-0,0.15c-0,2.85 2.15,6 3.85,7.9c1.65,1.75 5.05,1.8 6.75,1.8c1.6,0 2.9,-0.4 3.75,-0.85c0.35,-0.2 0.85,-0.6 1.45,-1.1c0.55,-0.5 1.15,-1 1.8,-1.5c0.5,-0.35 0.75,-0.75 0.75,-1.15c-0,-0.45 -0.25,-0.9 -1,-1.5c-0.25,-0.2 -0.5,-0.3 -0.65,-0.3c-0.25,0 -0.4,0.15 -0.6,0.3c-0.35,0.4 -0.6,0.9 -0.8,1.4c-0.4,0.9 -2.4,1.9 -4.9,1.9l-0.4,0c-1.65,-0.05 -3.05,-0.55 -4.3,-1.55l-0.75,-0.6c-0.8,-0.7 -1.6,-2.7 -1.6,-3.95l-0,-0.35c0.15,-0.6 1.35,-0.95 2.85,-1c1.25,0 2.65,0.05 3.4,0.05c1.05,0 3.95,0.05 6.2,0.05c1.15,0 2.15,0 2.7,-0.05c0.85,0 0.9,-0.2 0.9,-0.3Zm-3.55,-3.3c0.15,0.25 0.2,0.45 0.2,0.65c-0,0.55 -0.45,0.9 -1.35,0.9c-1.95,0 -4.1,0.05 -4.95,0.05c-0.9,0 -3.55,-0.05 -4.1,-0.2c-0.55,-0.05 -1.75,-0.7 -1.75,-1.6c-0,-0.3 0.1,-0.6 0.35,-0.9c0.8,-1.1 3,-2.6 5.6,-2.6l0.2,0c2.35,0.1 3.15,0.8 4.3,1.9c0.5,0.5 1.2,1.15 1.5,1.8Z" style="fill-rule:nonzero;"/>
    <path d="M221.102,136.233c-0,-1.6 -1.1,-2.8 -2.1,-3.8c-0.8,-0.8 -3.85,-2.45 -4.9,-2.95c-1.15,-0.5 -2.25,-1.35 -2.25,-2.6c-0,-1.25 1,-1.75 2.25,-1.75l0.45,0c1.6,0.05 2.45,0.6 3.65,1.6c0.4,0.35 0.6,0.4 0.7,0.4c0.15,0 0.25,-0.1 0.35,-0.2l0.35,-0.4c0.1,-0.15 0.25,-0.3 0.3,-0.45c0.15,-0.2 0.2,-0.4 0.2,-0.55c-0,-0.2 -0.05,-0.4 -0.25,-0.65c-0.7,-0.75 -2.75,-2.15 -5.75,-2.25l-0.35,0c-0.85,0 -1.3,0.1 -1.65,0.25c-0.4,0.2 -0.7,0.5 -1,0.8c-0.7,0.55 -1.55,1.55 -1.65,2.7c-0,0.2 -0.05,0.4 -0.05,0.55c-0,1.15 0.25,2.1 0.95,3c0.8,1.1 2.6,2.2 4.5,3c2,0.8 3.9,2.35 3.9,4c-0,1.7 -1.4,2.7 -3.6,2.85c-0.15,0 -0.3,0.05 -0.4,0.05c-2.15,0 -3.65,-1.8 -4,-2.5c-0.1,-0.35 -0.5,-0.55 -0.8,-0.55c-0.2,0 -0.5,0.1 -0.85,0.15c-0.75,0.2 -1,0.8 -1,1.4c-0,0.2 -0,0.45 0.15,0.65c0.35,0.65 1.65,1.65 2.85,2.4c1.1,0.6 3.05,1 4.4,1c1.2,0 2.65,-0.9 3.95,-1.75c1.1,-0.75 1.6,-2.75 1.65,-4.4Z" style="fill-rule:nonzero;"/>
    <path d="M235.502,124.133c-0,-0.4 -0.2,-0.55 -0.6,-0.7c-0.25,-0.05 -0.55,-0.05 -0.85,-0.05c-0.35,0 -0.65,-0.05 -1,-0.05l-0.85,-0.1c-0.25,0 -0.45,-0.05 -0.65,-0.1c-0.45,-0.15 -0.75,-0.5 -0.75,-1c-0,-0.7 -0,-1.9 0.1,-3.85l-0,-0.2c-0,-0.75 -0.15,-1 -0.3,-1.1c-0.25,-0.2 -0.75,-0.2 -1.05,-0.2l-0.15,0c-0.75,0 -1.2,0.6 -1.25,0.9c-0,0.05 -0.05,0.15 -0.05,0.2c-0,0.25 0.05,0.65 0.1,1.15c0.1,0.65 0.2,1.5 0.2,2.35l-0,0.25c-0,0.9 -0.4,1.4 -1.05,1.55c-0.2,0.05 -0.4,0.05 -0.6,0.05c-0.35,0 -0.8,-0.05 -1.15,-0.05c-0.7,0 -1.1,0.45 -1.25,1.95c-0,0.05 -0.05,0.1 -0.05,0.15c-0,0.3 0.2,0.4 0.6,0.5c0.25,0.05 0.5,0.05 0.75,0.05c0.25,0 0.5,-0.05 0.7,-0.05c0.8,0 1.85,0.6 1.85,1.7c-0,0.8 0.15,2.55 0.15,4.8c-0,2.25 -0.3,6.55 -0.3,8.5c-0,0.95 0.15,1.2 0.3,1.3l0.4,0.1l0.9,0c1.25,0 1.65,-0.15 1.65,-0.8l-0,-0.35c-0.15,-1.4 -0.4,-5 -0.45,-7.1c-0.05,-0.7 -0.1,-1.55 -0.1,-2.4c-0,-1.65 0.1,-3.35 0.15,-4.45c0.05,-1.1 0.7,-1.55 1.5,-1.6l0.15,0c0.6,0 1.15,0.15 1.75,0.2l0.2,0c0.65,0 1,-0.35 1,-1.55Z" style="fill-rule:nonzero;"/>
    <path d="M210.88,380.139c-0.048,-0.049 -0.154,-0.154 -0.309,-0.358l-5.984,-7.39c-0.056,-0.057 -0.105,-0.212 -0.105,-0.317c-0,-0.155 0.049,-0.358 0.105,-0.464l5.301,-8.016c0.057,-0.106 0.106,-0.26 0.106,-0.366l0,-0.464c0,-0.154 -0.049,-0.317 -0.154,-0.414l-8.432,-11.399c0,0 -0.203,-0.317 -0.52,-0.317c-0.154,-0 -0.26,-0 -0.415,0.163c-0.211,0.154 -0.26,0.357 -0.26,0.52c0,0.309 0.155,0.569 0.155,0.569l3.959,5.415c0.098,0.154 0.155,0.358 0.155,0.618c-0,0.211 -0.057,0.471 -0.155,0.626l-5.26,8.016c-0.049,0.106 -0.106,0.309 -0.106,0.415l0,0.472c0,0.154 0.057,0.309 0.163,0.414l5.821,7.236c-0.203,-0.057 -0.675,-0.162 -1.301,-0.162c-2.65,-0 -4.732,2.187 -4.732,4.845c0,0.724 0.155,1.456 0.57,2.025c1.097,1.667 5,6.61 5,6.61c-0,-0 0.26,0.317 0.626,0.317c0.097,-0 0.203,-0 0.309,-0.106c0.26,-0.211 0.366,-0.414 0.366,-0.626c-0,-0.211 -0.106,-0.366 -0.155,-0.471c-0.162,-0.261 -1.821,-3.277 -1.821,-3.277c-0,0 -0.366,-0.732 -0.366,-1.667c0,-1.666 1.244,-3.016 2.911,-3.016c0.675,-0 1.252,0.211 1.666,0.472l2.033,1.3c0,0 0.203,0.098 0.415,0.098c0.203,-0 0.366,-0.049 0.52,-0.26c0.106,-0.155 0.155,-0.309 0.155,-0.464c-0,-0.154 -0.049,-0.26 -0.155,-0.414l-0.106,-0.163" style="fill-rule:nonzero;"/>
  </g>
</svg>
