<?xml version="1.0" encoding="UTF-8" standalone="no"?>
<!DOCTYPE svg PUBLIC "-//W3C//DTD SVG 1.1//EN" "http://www.w3.org/Graphics/SVG/1.1/DTD/svg11.dtd">
<svg width="100%" height="100%" viewBox="0 0 406 529" version="1.1" xmlns="http://www.w3.org/2000/svg" xmlns:xlink="http://www.w3.org/1999/xlink" xml:space="preserve" xmlns:serif="http://www.serif.com/" style="fill-rule:evenodd;clip-rule:evenodd;stroke-linejoin:round;stroke-miterlimit:2;">
  <rect id="L5-1" x="0.206" y="0.089" width="405.12" height="528" style="fill:none;"/>
	<a href="L5-2.svg">
  <circle cx="364.814" cy="491.129" r="17.4" style="fill:#e1c70a;"/>
	</a>
  <g>
    <rect x="41.639" y="144.089" width="240" height="240" style="fill:#fff;fill-rule:nonzero;"/>
    <path d="M187.23,199.465c-2.177,1.353 -4.051,2.014 -6.623,1.94c4.433,-3.519 7.137,-7.639 8.007,-13.26c-2.238,-1.123 -4.402,-2.353 -6.198,-4.127c-2.061,-2.034 -3.472,-4.791 -4.362,-7.523c-0.361,-1.107 -1.105,-3.069 -0.536,-4.143c0.593,-1.118 1.646,-2.138 2.705,-2.821c1.727,-1.112 3.698,-1.75 5.568,-2.569c1.885,-0.824 3.723,-1.827 5.51,-2.843c1.446,-0.822 2.885,-1.669 4.258,-2.61c2.552,-1.749 5.259,-4.331 8.274,-5.148c2.66,-0.721 4.966,0.812 7.539,0.729c1.37,-0.045 2.828,-0.558 4.162,-0.88c1.64,-0.395 3.273,-0.728 4.944,-0.966c1.495,-0.213 2.975,-0.275 4.482,-0.296c0.986,-0.015 2.015,0.042 2.991,-0.101c1.245,-0.183 2.29,-0.911 3.329,-1.569c1.333,-0.845 2.651,-1.778 4.116,-2.378c2.723,-1.115 5.435,-0.769 7.931,0.707c6.494,3.842 9.154,10.89 11.703,17.598c0.859,2.259 1.686,4.692 3.208,6.608c0.767,0.966 1.659,1.655 2.716,2.276c-1.301,0.15 -2.662,0.342 -3.966,0.145c-1.31,-0.198 -2.536,-0.798 -3.704,-1.397c-0.175,-0.09 -0.218,-0.189 -0.414,-0.102l0.036,0.103c0.28,0.881 -0.132,2.044 -0.439,2.882c1.985,1.803 4.278,3.212 6.72,4.311c4.066,1.829 9.013,2.433 12.119,5.934c0.625,0.704 1.229,1.682 1.299,2.64c0.113,1.525 -0.799,2.624 -1.173,4.015c-0.196,0.73 -0.199,1.526 -0.312,2.273c-0.291,1.93 -1.065,3.899 -2.401,5.347c-1.214,1.316 -2.855,1.784 -4.599,1.815l-0.789,-0.005c-1.303,2.298 -2.967,4.6 -5.668,5.331c-3.706,1.003 -8.528,-0.259 -12.026,-1.508c-1.602,-0.572 -3.27,-1.38 -4.967,-1.563c-1.147,-0.123 -2.553,0.143 -3.218,1.194c-0.516,0.817 -0.579,2.056 -0.332,2.965c0.607,2.232 2.605,3.983 4.558,5.091l2.17,1.162c-2.276,-0.105 -3.893,-0.405 -5.963,-1.411c1.153,2.868 2.813,5.049 5.524,6.542c-1.654,-0.083 -3.131,-0.124 -4.722,-0.651c0.727,1.759 1.485,3.604 2.433,5.256c0.481,0.839 1.087,1.589 1.625,2.388c-1.601,-0.419 -2.948,-1.106 -4.287,-2.073l-0.045,-0.058l0.045,0.058c1.766,4.268 2.574,8.9 4.122,13.265c0.661,1.866 1.322,3.672 2.53,5.264c0.814,1.074 1.88,1.946 3.126,2.474c0.983,0.416 1.939,0.632 3.01,0.592c-2.023,1.315 -4.239,1.341 -6.559,0.965c-0.903,-0.147 -1.834,-0.519 -2.689,-0.843c0.832,1.845 1.472,3.594 1.908,5.571c0.794,3.602 0.595,8.388 3.999,10.721c-2.244,0.025 -4.049,-0.727 -5.674,-2.299l-0.897,-0.911l0.355,1.864l0.026,0.208c0.119,1.033 0.015,2.097 -0.054,3.131c-0.208,3.12 -0.846,6.206 -0.945,9.333c-0.048,1.515 -0.033,2.899 0.388,4.369c-2.226,-1.038 -3.361,-2.906 -4.529,-4.969c-0.171,4.167 -2.04,8.167 -4.194,11.667c-0.659,1.072 -1.637,2.267 -2.035,3.449c-0.567,1.683 -0.842,3.608 -1.282,5.345c-2.337,9.221 -4.112,18.285 -5.006,27.764c-0.409,4.342 -0.812,9.046 0.041,13.354c0.666,3.364 2.602,7.02 4.93,9.537c0.978,1.057 2.308,2.159 3.657,2.687c1.387,0.544 2.928,0.515 4.332,0.962c3.549,1.131 5.712,4.801 5.607,8.43c-0.027,0.895 -0.385,1.702 -1.05,2.31c-0.949,0.868 -1.819,1.029 -3.03,1.191c-0.516,1.079 -1.136,1.504 -2.244,1.895c-1.644,0.581 -3.179,0.549 -4.893,0.492c0.954,1.979 1.846,3.98 1.044,6.176c-0.548,1.505 -1.847,2.373 -3.252,2.985c-1.559,0.68 -3.249,0.97 -4.924,1.191c-4.905,0.644 -10.559,0.44 -15.186,-1.431c-3.263,-1.319 -4.89,-3.842 -6.203,-6.98c-1.292,-3.089 -1.953,-6.374 -2.788,-9.603c-1.241,0.253 -2.489,0.25 -3.749,0.291c-4.228,0.135 -8.45,-0.34 -12.65,-0.754c-2.688,-0.266 -5.462,-0.448 -8.159,-0.558c-3.081,-0.125 -6.16,-0.079 -9.24,0.054c-1.374,0.059 -2.784,0.27 -4.153,0.236c-0.31,-0.008 -0.483,-0.062 -0.743,-0.226c-0.833,0.404 -1.503,1.039 -2.344,1.404l-0.195,0.103c0.557,0.412 7.505,-0.326 8.737,-0.334c5.953,-0.037 12.957,1.935 17.185,6.301c0.878,0.908 1.819,2.082 2.017,3.368c0.166,1.078 -0.165,2.006 -0.812,2.86c-2.422,3.201 -8.033,4.075 -11.721,4.505c-3.264,0.381 -6.592,0.369 -9.861,0.054c-2.818,-0.271 -5.609,-0.866 -8.395,-1.356c-4.093,-0.72 -8.193,-1.415 -12.307,-2.009c-4.865,-0.701 -9.737,-1.343 -14.617,-1.934c-1.886,-0.229 -3.853,-0.23 -5.715,-0.577c-1.089,-0.202 -2.568,-0.626 -3.436,-1.324c-0.482,-0.389 -0.805,-0.919 -0.838,-1.542c-0.029,-0.544 0.123,-0.912 0.356,-1.39l0.216,-0.438l-1.855,-1.107c-3.123,0.392 -6.221,1.091 -9.294,1.756c-0.957,0.207 -2.139,0.326 -3.028,0.708c-0.506,0.218 -1.034,0.949 -1.457,1.324c-0.379,0.337 -0.842,0.592 -1.289,0.83c-2.969,1.578 -6.192,2.048 -9.396,2.877c0.69,-1.371 1.51,-2.716 2.436,-3.94c-2.063,1.148 -4.159,1.883 -6.423,2.517c-4.094,1.148 -8.613,1.821 -12.856,1.226l2.275,-1.988c-1.645,0.093 -3.326,0.24 -4.973,0.203c-3.358,-0.075 -6.832,-0.674 -10.057,-1.594c2.082,-0.27 3.813,-0.817 5.733,-1.659c-1.564,-0.189 -2.982,-0.486 -4.442,-1.106c-2.653,-1.127 -5.066,-2.882 -7.795,-3.826c-2.533,-0.876 -5.036,-1.018 -7.689,-0.995c2.693,-1.427 5.167,-1.726 8.183,-1.484c-1.328,-1.678 -2.881,-3.261 -4.899,-4.078c-1.154,-0.468 -2.385,-0.678 -3.609,-0.862c2.422,-0.885 4.223,-0.92 6.775,-0.521c-1.246,-1.488 -2.625,-3.001 -3.676,-4.633c-2.095,-3.253 -2.503,-6.822 -2.751,-10.578c0.629,1.576 1.389,2.65 2.466,3.948c-0.554,-2.319 -0.779,-4.972 -0.483,-7.342c0.388,-3.109 1.845,-5.451 3.626,-7.965c0.423,-0.597 0.85,-1.357 1.371,-1.864l-1.388,5.162l1.896,-2.896c0.679,-0.955 1.576,-1.797 2.402,-2.624c3.155,-3.158 6.696,-5.121 11.004,-6.295c1.094,-0.298 2.249,-0.454 3.366,-0.648c-2.573,1.328 -5.094,2.716 -7.209,4.72c2.503,-1.31 5.021,-2.393 7.813,-2.916c2.547,-0.478 5.184,-0.468 7.766,-0.481c4.566,-0.024 9.205,-0.362 13.318,-2.562c1.892,-1.013 3.512,-2.307 5.123,-3.705l-0.595,1.687c-0.57,1.278 -1.455,2.405 -2.401,3.426c-4.479,4.837 -11.346,6.417 -17.268,8.732c-3.542,1.384 -7.149,3.025 -10.093,5.46c-1.4,1.158 -2.666,2.533 -3.37,4.229c-0.705,1.699 -0.648,3.662 0.084,5.34c1.378,3.157 4.447,5.182 7.556,6.376c4.825,1.852 10.063,2.236 15.182,1.819c3.2,-0.26 6.491,-0.859 9.436,-2.177c2.804,-1.255 5.398,-3.059 7.359,-5.443c0.981,-1.192 2.019,-2.726 2.464,-4.217c0.256,-0.855 0.24,-1.851 0.324,-2.739c0.172,-1.834 0.322,-3.67 0.533,-5.5c0.558,-4.852 1.505,-9.774 2.832,-14.473c2.085,-7.384 5.256,-14.471 9.169,-21.067c3.483,-5.87 7.927,-11.436 12.794,-16.215c2.62,-2.573 5.433,-4.942 8.061,-7.507c2.496,-2.437 4.813,-5.079 7.158,-7.661c1.181,-1.3 2.445,-2.538 3.583,-3.875c2.383,-2.801 4.763,-5.65 6.942,-8.613c1.693,-2.304 3.267,-4.765 4.787,-7.189c2.279,-3.631 4.148,-7.483 6.723,-10.929c1.346,-1.801 2.86,-3.529 4.421,-5.145c1.701,-1.76 3.514,-3.408 5.053,-5.316c0.45,-0.558 0.999,-1.163 1.317,-1.805c0.509,-1.028 0.518,-2.327 0.903,-3.421c0.14,-0.398 0.29,-0.792 0.44,-1.187c-1.603,0.425 -3.124,0.63 -4.778,0.433c1.308,-1.157 2.615,-2.344 3.722,-3.699c1.243,-1.52 2.252,-3.296 3.172,-5.028l0.055,-0.063l-0.055,0.063l-1.16,0.826c-2.017,1.277 -4.044,1.457 -6.356,0.939c1.039,-0.653 2.142,-1.213 3.119,-1.963c2.438,-1.872 4.307,-5.087 5.458,-7.898l0.051,-0.048l-0.051,0.048Zm44.389,-38.496l0.056,0.059l6.29,6.927c-3.457,-2.117 -7.049,-5.331 -11.17,-5.922l-0.527,-0.085l-0,0.041c0.974,0.418 2.018,0.674 2.993,1.103c1.521,0.67 3.105,1.741 4.466,2.699c-3.35,-1.043 -6.697,-1.704 -10.23,-1.512c5.47,0.801 10.342,2.449 14.449,6.281c-1.068,-0.497 -2.041,-1.175 -3.119,-1.637c-2.543,-1.091 -5.692,-1.358 -8.403,-0.922c-1.636,0.264 -3.171,0.764 -4.759,1.206c1.989,-0.162 3.995,-0.386 5.994,-0.268c3.144,0.184 6.567,1.409 8.975,3.469c0.849,0.727 1.574,1.832 2.136,2.792c-2.359,-2.056 -4.911,-3.492 -8.153,-3.269c-3.656,0.25 -7.532,1.75 -9.984,4.56c-0.097,0.112 -0.158,0.222 -0.229,0.351l-0.074,0.082l-0.078,0.077l0.078,-0.077l0.074,-0.082l0.084,-0.049c0.871,-0.523 1.618,-1.227 2.494,-1.755c2.974,-1.793 6.669,-2.418 10.038,-1.599l0.116,0.029c-0.842,0.005 -1.888,-0.08 -2.695,0.159c-2.362,0.699 -4.163,2.259 -6.078,3.734c-1.339,1.032 -2.72,2.054 -3.913,3.255c-0.978,0.985 -1.686,2.066 -2.386,3.253c0.43,-0.419 0.886,-0.923 1.396,-1.24c1.627,-1.008 3.69,-1.358 5.378,-2.31c1.916,-1.08 3.555,-2.78 5.529,-3.715c0.926,-0.439 2.019,-0.734 3.049,-0.719c2.251,0.034 3.833,1.541 5.243,3.127c1.279,1.438 2.456,3.061 3.403,4.736c-1.973,-0.577 -3.614,-2.263 -5.035,-3.665c0.068,0.709 0.026,1.326 -0.069,2.03c1.068,0.437 2.205,0.745 3.232,1.268c-1.304,-0.104 -2.377,-0.222 -3.616,-0.676c-1.284,1.218 -2.956,1.869 -4.736,1.808c-1.173,-0.04 -2.53,-0.46 -3.377,-1.308c-0.573,-0.574 -0.829,-1.928 -0.991,-2.689l-1.084,0.893c0.625,1.024 1.022,1.314 2.05,1.94c-1.501,-0.327 -2.815,-0.443 -4.34,-0.558c-0.733,-0.056 -1.548,-0.205 -2.27,-0.024c-1.06,0.266 -2.106,0.984 -3.017,1.574l-1.18,0.858c3.421,-0.955 7.027,-0.136 10.488,0.279c-1.561,0.427 -3.187,0.456 -4.779,0.706c-1.915,0.3 -3.716,0.954 -5.517,1.65l0.117,-0.014c1.141,-0.145 2.256,-0.457 3.396,-0.619c2.831,-0.401 6.128,-0.493 8.965,-0.057c-2.018,0.493 -4.062,0.881 -6.082,1.373c-0.787,0.192 -1.838,0.36 -2.521,0.818l-0.056,0.076l0.056,-0.076l11.89,-0.842c-1.162,0.506 -2.513,0.619 -3.752,0.872c-2.05,0.419 -4.062,0.912 -6.012,1.679l11.26,-0.305c-2.249,1.244 -4.998,1.431 -7.364,2.442l5.693,-0.233c-0.996,0.571 -2.151,0.737 -3.237,1.063c-1.804,0.541 -3.591,1.117 -5.285,1.945c0.983,-0.245 2.01,-0.546 3.02,-0.641c0.948,-0.089 1.901,-0.02 2.849,-0.138c-1.372,0.663 -2.805,1.153 -4.204,1.753c-3.932,1.685 -5.758,4.121 -7.706,7.798c0.998,-0.702 2.017,-1.445 3.111,-1.99c2.531,-1.263 5.233,-1.468 8.005,-1.469c-1.068,0.654 -2.36,0.947 -3.527,1.377c-3.842,1.418 -7.553,3.087 -9.945,6.549c0.456,-2.323 1.058,-4.38 1.939,-6.581c-2.444,1.021 -3.895,2.411 -4.914,4.887c-0.327,0.794 -0.508,1.645 -0.721,2.475c-0.033,-1.155 -0.099,-2.316 0.074,-3.463c0.36,-2.384 1.472,-4.632 2.91,-6.541c-1.74,0.887 -3.401,1.871 -4.746,3.312l-0.149,-0.019c-0.185,-1.281 0.769,-2.675 1.508,-3.66c0.49,-0.652 1.062,-1.213 1.651,-1.774c-2.403,0.689 -4.839,1.954 -6.134,4.197c-1.458,2.527 -0.136,5.398 0.264,8.025c0.328,-2.116 0.777,-4.207 2.081,-5.955c0.196,1.241 0.214,2.502 0.426,3.739c0.658,3.846 2.024,7.954 3.915,11.38c0.628,1.138 1.404,2.19 2.043,3.323c-0.537,-0.339 -0.991,-0.945 -1.416,-1.417c-2.904,-3.222 -4.478,-6.918 -5.749,-11.018c-0.318,4.37 1.871,8.302 2.603,12.508l-5.137,-11.783c-0.15,2.308 -0.409,4.545 -1.005,6.787c-0.733,-3.325 -1.519,-6.743 -3.244,-9.717c0.262,1.689 0.389,3.267 0.184,4.978c-0.146,1.205 -0.473,2.39 -0.665,3.59c-0.214,-0.958 -0.414,-1.939 -0.73,-2.87c-0.533,-1.575 -1.253,-3.076 -1.763,-4.663c-0.397,-1.239 -0.646,-2.486 -0.877,-3.764l-2.547,3.556c-0.16,-1.297 -0.352,-2.58 -0.318,-3.891c0.046,-1.783 0.524,-3.766 1.111,-5.445c-0.691,0.66 -1.352,1.406 -1.88,2.204c-0.312,0.472 -0.494,1.261 -0.901,1.625l-0.069,-0.126c-0.187,-0.44 -0.153,-1.027 -0.155,-1.501c-0.008,-2.656 0.831,-5.096 1.677,-7.582c-1.681,1.909 -3.319,3.982 -4.212,6.394c-0.418,1.129 -0.637,2.333 -0.847,3.515l2.262,-2.377c-0.521,2.228 -0.369,4.555 -0.217,6.819l1.962,-2.202c-0.044,1.638 -0.079,3.365 0.25,4.977c0.187,0.915 0.536,1.798 0.868,2.668c0.367,-1.02 0.739,-1.785 1.436,-2.623c0.397,1.37 0.868,2.697 1.512,3.973c0.899,1.78 2.12,3.55 3.577,4.918c0.297,0.278 0.551,0.587 0.943,0.715l-0.122,-0.837c0.602,0.043 1.863,1.303 2.415,1.684c0.77,0.53 1.559,1.017 2.383,1.458c4.632,2.48 9.811,4.124 14.96,5.127c0.726,0.141 1.723,0.438 2.438,0.378c0.494,-0.041 1.011,-0.27 1.488,-0.407c1.143,-0.329 2.057,-0.156 3.064,0.413c2.509,-0.049 5.183,-0.64 7.285,-2.055c-0.287,-0.701 -0.585,-1.419 -0.781,-2.153c-0.228,-0.854 -0.317,-2.007 -0.71,-2.782c-0.253,-0.499 -0.753,-0.972 -1.117,-1.404c-0.844,-0.998 -1.693,-1.982 -2.26,-3.172c-1.05,-2.199 -1.069,-4.221 -0.242,-6.478c-0.015,0.785 -0.052,1.565 0.142,2.331l0.058,0.221c0.6,2.381 1.918,4.391 3.527,6.216c-0.304,-0.857 -0.759,-1.649 -1.072,-2.502c-0.561,-1.527 -0.705,-3.177 -0.495,-4.788l0.03,-0.215c0.24,-1.805 0.815,-3.09 1.948,-4.516c-1.726,0.285 -3.049,0.799 -4.612,1.567l2.017,-2.153c-2.843,0.89 -5.177,2.027 -7.309,4.152l-0.176,-0.035l0.052,-0.362c0.109,-0.525 0.415,-1.05 0.671,-1.518c0.982,-1.798 2.186,-2.854 3.867,-3.994c-3.461,0.259 -5.808,1.491 -8.331,3.844c0.161,-0.5 0.442,-0.958 0.748,-1.383c3.416,-4.752 9.591,-4.333 14.577,-2.692c2.299,0.757 4.435,1.928 6.66,2.869c1.28,0.543 2.609,0.947 3.943,1.335c2.589,0.752 5.65,1.425 8.352,0.954c2.487,-0.432 4.052,-1.841 5.47,-3.843c-1.001,0.538 -2.025,1.021 -3.125,1.321c-4.719,1.289 -9.528,-0.336 -13.841,-2.241c-2.393,-1.057 -4.746,-2.24 -7.019,-3.535c1.618,0.289 3.164,0.528 4.737,1.028c1.853,0.589 3.62,1.397 5.461,2.016c3.559,1.196 7.358,1.669 10.931,0.249c2.824,-1.123 5.094,-2.932 6.318,-5.736c-0.43,-0.518 -1.099,-1.447 -1.724,-1.699l-0.843,-0.387c-1.175,-0.629 -2.656,-2.115 -2.998,-3.395c-0.192,-0.72 -0.02,-1.349 0.372,-1.97c1.346,-2.134 3.453,-2.567 5.727,-3.068l-7.394,-2.631c-1.985,-0.816 -3.817,-2.02 -5.542,-3.284c-2.875,-2.105 -5.704,-4.598 -7.628,-7.636c-1.037,-1.636 -1.707,-3.46 -2.449,-5.241l0.117,-0.165c0.701,0.598 1.084,1.391 1.526,2.181c0.496,0.887 1.003,1.763 1.551,2.619c1.155,1.805 2.499,3.238 4.12,4.624c-0.401,-0.913 -0.942,-1.91 -1.145,-2.891c-0.191,-0.926 -0.268,-2.067 0.265,-2.88c0.614,-0.119 1.124,0.283 1.631,0.6c-0.536,-1.404 -1.232,-3.066 -2.206,-4.214l-0.184,0.003c-0.665,0.041 -1.187,0.845 -1.612,1.31c0.24,-0.707 0.393,-1.414 0.507,-2.151c-0.2,-0.252 -0.227,-0.292 -0.527,-0.398c-0.548,0.513 -0.873,2.111 -1.099,2.836l-0.193,-3.904c-0.024,-0.409 -0.034,-0.462 -0.349,-0.736c-0.446,0.331 -0.584,1.867 -0.688,2.476c-0.642,-1.912 -1.434,-3.483 -2.475,-5.209c0.143,1.02 0.386,2.004 0.625,3.004c0.161,0.677 0.383,1.4 0.275,2.099l-0.198,0.104c-0.402,-0.439 -0.68,-1.104 -0.965,-1.629c-0.892,-1.646 -1.727,-3.687 -3.03,-5.043l-0.143,-0.145l-0.052,-0.077l0.052,0.077c0.232,1.22 1.119,2.543 1.611,3.694c0.757,1.771 1.285,3.459 1.75,5.318c-2.91,-4.007 -6.384,-7.701 -10.632,-10.314l-0.056,-0.059Zm0.821,-5.532c2.403,0.34 4.978,1.122 7.012,2.476c0.738,0.492 1.398,1.148 2.15,1.601c0.749,0.451 1.656,0.673 2.431,1.128c1.98,1.164 3.264,2.791 4.859,4.36l0.071,0.087l0.079,0.093l-0.079,-0.093l-0.071,-0.087c-1.9,-3.945 -6.395,-6.374 -10.186,-8.096c0.737,-0.122 1.423,-0.141 2.166,-0.013c4.051,0.697 7.188,4.094 9.404,7.312l-0.349,-0.82c-0.597,-1.317 -1.487,-2.465 -2.411,-3.568c-1.87,-2.231 -3.927,-4.193 -6.689,-5.221c-1.008,-0.34 -2.012,-0.494 -3.063,-0.63c0.968,-0.147 2.009,-0.285 2.986,-0.212c1.326,0.099 2.642,0.536 3.919,0.888c-1.399,-1.184 -3.256,-2.325 -5.132,-2.45c-2.87,-0.191 -5.042,1.427 -7.097,3.245Zm-32.575,76.828c-2.754,-2.641 -4.649,-5.701 -5.816,-9.316c-0.289,1.978 -0.189,3.768 0.381,5.684c-2.395,-2.917 -3.482,-5.698 -3.659,-9.468c-0.589,1.764 -0.663,3.238 -0.661,5.089c-2.415,-3.567 -2.107,-7.304 -1.553,-11.374c-1.864,1.402 -3.558,2.977 -3.922,5.414c-0.202,1.349 0.019,2.808 0.187,4.151c0.425,-2.533 1.192,-4.746 2.548,-6.933c-0.18,2.034 -0.653,4.071 -0.761,6.101c-0.121,2.27 0.225,4.377 1.157,6.451c0.302,-1.241 0.663,-2.367 1.245,-3.508c0.271,0.968 0.506,1.99 0.881,2.922c1.708,4.249 4.516,7.46 8.156,10.157c-0.553,-1.917 -1.281,-3.797 -1.625,-5.765c2.013,1.57 3.982,3.22 6.096,4.655c2.523,1.713 5.452,3.247 8.244,4.488l-3.272,-5.06l8.169,6.125l-1.495,-3.715c0.671,0.401 1.164,1.004 1.666,1.593c2.061,2.422 3.394,5.521 4.813,8.346c-1.883,-1.764 -3.759,-3.43 -5.951,-4.811c-1.543,2.588 -4.414,5.165 -7.012,6.646c-1.171,0.667 -2.406,1.146 -3.612,1.73c3.812,-0.498 7.972,-1.023 10.481,-4.284l0.331,-0.44c-0.014,3.701 -1.444,6.263 -4.045,8.842c-0.977,0.969 -2.061,1.649 -3.106,2.513c3.343,-0.971 6.36,-2.555 8.391,-5.452c-0.235,0.942 -0.47,1.904 -0.904,2.777c-1.456,2.935 -4.25,5.189 -6.999,6.847c-2.048,1.236 -4.161,2.015 -6.397,2.824c5.272,-0.354 10.691,-1.61 14.302,-5.741c1.195,-1.366 1.786,-2.734 2.498,-4.367c-0.097,4.795 -1.722,9.315 -5.212,12.689c-2.084,2.013 -4.489,3.454 -7.117,4.638c-0.982,0.443 -2.009,0.775 -2.997,1.204c1.4,-0.248 2.842,-0.367 4.228,-0.667c3.689,-0.797 7.884,-2.79 10.101,-5.939l0.5,-0.739c-1.5,5.756 -3.788,10.282 -9.076,13.393c-1.732,1.019 -3.553,1.788 -5.471,2.387c4.312,-0.226 8.478,-1.479 12.027,-3.971c0.93,-0.653 1.728,-1.563 2.676,-2.155c-0.292,1.048 -0.969,2.182 -1.482,3.145c-1.434,2.697 -3.144,5.031 -5.551,6.945c-1.332,1.059 -2.794,1.902 -4.239,2.79c3.96,-1.132 7.628,-3.011 10.142,-6.347c-0.191,0.742 -0.342,1.533 -0.6,2.252c-1.28,3.574 -3.598,6.532 -6.616,8.784c-0.062,2.313 0.118,4.674 0.318,6.977c0.141,1.629 0.509,3.312 0.255,4.942c1.351,-2.06 2.572,-4.325 3.186,-6.725c0.301,-1.175 0.412,-2.366 0.53,-3.57l0.13,0.467c0.779,2.78 0.783,5.8 0.288,8.625c0.438,-0.879 0.978,-1.702 1.423,-2.582c2.139,-4.235 3.643,-8.052 3.406,-12.882c1.175,2.394 1.381,4.666 1.342,7.297c1.574,-2.635 3.456,-5.248 4.699,-8.056c1.297,-2.931 1.798,-6.012 1.668,-9.198c0.533,1.451 1.11,2.869 1.346,4.408c0.238,1.556 0.058,3.235 -0.183,4.781l1.246,-3.576c0.833,-3.034 1.01,-6.351 -0.267,-9.306c-0.341,-0.786 -0.84,-1.488 -1.262,-2.231c0.723,0.458 1.342,1.245 1.796,1.967c1.673,2.659 2.377,6.039 1.674,9.107c0.684,-1.475 1.484,-2.884 2.128,-4.381c1.468,-3.413 2.416,-7.518 2.409,-11.238l2.276,8.708l0.759,-8.56c0.013,-2.428 -0.268,-4.98 -1.362,-7.185c-1.045,-2.108 -2.78,-3.929 -4.417,-5.586c1.406,0.828 2.851,1.919 3.883,3.191c0.59,0.727 1.077,1.544 1.686,2.252l0.147,0.168l0.047,0.115l-0.047,-0.115c-0.188,-0.904 -0.73,-1.745 -1.183,-2.54c-0.904,-1.586 -1.849,-3.008 -2.905,-4.494l0.082,0.055c1.066,0.7 1.955,1.585 2.872,2.462c1.915,1.831 3.59,3.744 5.224,5.825c-1.719,-4.351 -2.803,-9.065 -5.462,-12.997c-0.967,-1.43 -2.166,-2.697 -3.306,-3.988c2.8,1.697 4.956,3.509 6.966,6.118c-0.97,-2.896 -2.587,-5.554 -4.548,-7.891c-0.684,-0.815 -1.488,-1.554 -2.107,-2.417l-0.063,-0.091c0.55,0.171 1.111,0.702 1.55,1.073c2.097,1.77 3.63,4.005 5.592,5.889c-2.391,-4.103 -2.879,-8.839 -4.141,-13.327c-2.449,1.863 -4.746,2.528 -7.769,2.826l-0.966,0.707c-0.809,0.504 -1.924,0.61 -2.835,0.347c-0.602,-0.174 -0.968,-0.769 -1.269,-1.277c-4.374,-0.344 -8.379,-1.094 -12.535,-2.525c-2.993,-1.03 -5.829,-2.302 -8.182,-4.468c0.33,1.165 0.851,2.269 1.346,3.371c-2.973,-2.37 -5.021,-5.183 -7.135,-8.292c0.073,2.235 0.786,4.24 1.601,6.29Zm-21.562,21.574c-1.835,2.038 -2.169,5.212 -2.713,7.777c-0.479,-1.284 -0.542,-2.533 -0.589,-3.889c-0.137,-3.962 0.586,-7.492 1.817,-11.247l-4.892,8.005c0.189,-5.453 1.95,-11.486 6.048,-15.304l1.862,-1.495c-0.853,0.325 -1.681,0.663 -2.458,1.149c-1.3,0.813 -2.454,1.806 -3.789,2.575c0.693,-1.825 1.769,-3.384 2.864,-4.988c1.68,-2.46 3.492,-4.797 5.227,-7.213c-1.844,1.461 -3.482,3.191 -5.028,4.959c-2.81,3.215 -5.496,6.899 -7.014,10.919l-0.763,2.768c1.073,-1.639 2.129,-3.261 3.791,-4.363c-0.342,1.415 -0.886,2.74 -1.292,4.132c-0.749,2.566 -1.183,5.854 -0.661,8.496c0.221,1.118 0.708,2.286 1.19,3.318c0.304,-1.637 0.798,-2.905 1.471,-4.41c-0.296,2.706 0.21,5.536 1.284,8.038c0.382,0.89 0.903,1.728 1.363,2.579l0.701,-3.207c0.381,0.899 0.746,1.841 1.265,2.673c0.623,0.999 1.363,1.904 1.866,2.978c0.456,0.97 0.721,2.059 0.981,3.096c1.072,4.288 0.99,8.687 -0.119,12.957c2.221,-2.878 3.509,-5.358 3.018,-9.113c-0.327,-2.495 -1.175,-5.041 -2.315,-7.279c-0.813,-1.596 -1.836,-3.101 -2.586,-4.726c-1.267,-2.748 -1.415,-5.894 -0.602,-8.789c0.038,-0.133 0.06,-0.258 0.073,-0.396l0.066,-0.05l-0.066,0.05Zm-19.461,5.634c-1.361,2.83 -2.886,6.207 -5.548,8.029l1.782,-4.902c-1.777,2.724 -3.721,5.27 -6.182,7.424c-0.855,0.747 -1.767,1.532 -2.782,2.048c-0.082,-0.308 0.067,-0.591 0.155,-0.893l-0.097,-0.052c-0.846,0.878 -1.524,1.951 -2.191,2.971c-1.387,2.122 -2.576,4.275 -3.577,6.605c1.821,-2.172 3.418,-4.374 5.564,-6.264c0.588,-0.517 1.196,-1.097 1.868,-1.499l-1.888,5.315l6.997,-8.967c0.06,0.886 0.103,1.777 -0.062,2.655c-0.158,0.846 -0.509,1.717 -0.768,2.541c2.007,-2.92 3.861,-5.829 5.464,-8.993c0.253,-0.5 0.855,-1.944 1.308,-2.122c0.08,0.13 0.095,0.139 0.142,0.31c0.44,1.604 -0.857,4.105 -1.529,5.514c2.791,-3.056 4.906,-7.2 5.957,-11.176c0.499,-1.886 0.753,-3.839 1.055,-5.764c-1.533,3.917 -3.242,7.704 -6.18,10.795l0.512,-3.575l0.072,-0.071l-0.072,0.071Zm33.311,28.943l-0.204,0.125c-0.631,0.389 -1.2,0.867 -1.837,1.249c-1.299,0.779 -2.745,1.409 -4.143,1.986c1.03,-1.162 2.086,-2.306 2.944,-3.605c1.393,-2.111 2.346,-4.488 3.122,-6.885c-1.048,1.61 -2.091,3.215 -3.407,4.626c-0.887,0.952 -1.891,1.748 -2.907,2.553c0.795,-1.467 1.843,-3.163 2.358,-4.746c0.549,-1.688 0.723,-3.521 0.571,-5.283c-0.52,1.647 -1.047,2.808 -2.308,4.044c0.22,-3.119 0.204,-5.898 -0.776,-8.888c0.23,3.465 -1.691,6.523 -2.784,9.698c-0.293,0.85 -0.433,1.793 -0.613,2.674l3.423,-1.82c-1.907,2.75 -4.051,5.731 -5.045,8.957l4.159,-1.999c-1.202,1.569 -2.975,4.119 -2.789,6.209c0.646,1.169 1.752,2.22 2.591,3.274c1.259,1.582 2.376,3.327 3.334,5.108c1.289,2.399 2.328,4.983 3.156,7.578c0.586,1.838 1.029,3.718 1.635,5.553c1.846,5.589 4.187,11.03 4.861,16.925c0.587,5.144 0.086,10.402 0.647,15.557c1.625,-0.598 2.341,-1.623 3.304,-2.972c-0.215,1.219 -0.518,2.733 -0.445,3.968c0.116,1.96 0.817,3.951 1.383,5.817c0.739,2.433 1.552,4.854 2.462,7.228c0.714,1.862 1.525,3.804 2.663,5.452c1.461,2.114 3.766,3.054 6.227,3.47c0.487,0.082 1.378,0.254 1.804,-0.038c0.34,-0.232 0.407,-0.83 0.455,-1.207c0.269,-2.118 -0.549,-3.644 -1.802,-5.258c-0.746,-0.961 -1.593,-1.673 -2.536,-2.43c0.788,0.259 1.632,0.491 2.385,0.836c1.674,0.767 3.064,2.222 3.882,3.858c0.668,1.336 0.872,2.669 0.946,4.139l1.461,0.251c1.005,0.173 2.559,0.151 3.519,-0.234c0.675,-0.92 0.563,-2.281 0.392,-3.36c-0.344,-2.178 -1.853,-3.973 -3.598,-5.227c-1.178,-0.847 -2.419,-1.584 -3.734,-2.193c2.96,0.29 5.484,0.622 7.511,3.043c1.809,2.161 2.379,4.468 2.377,7.236c0.995,-0.366 2.227,-0.788 2.678,-1.842c0.395,-0.922 0.239,-1.859 -0.143,-2.76c-0.363,-0.857 -1.008,-1.602 -1.67,-2.245c-1.103,-1.072 -2.29,-1.885 -3.646,-2.612c-1.788,-0.958 -3.362,-1.565 -4.831,-3.047c-2.811,-2.837 -4.417,-6.658 -5.947,-10.276c-0.558,-1.319 -1.09,-2.719 -1.327,-4.138c-0.423,-2.538 -0.205,-5.252 -0.116,-7.812c0.067,-1.918 0.027,-3.862 -0.094,-5.777c-0.246,-3.867 -1.086,-7.693 -1.534,-11.54c-0.397,-3.401 -0.77,-6.812 -1.139,-10.216c-0.258,-2.384 -0.355,-4.67 -0.999,-6.991l0.104,3.894c-1.2,-0.839 -1.993,-2.536 -3.287,-3.169l-0.066,-0.04l0.066,0.04c1.692,2.148 2.953,4.146 3.498,6.85c-0.924,-0.938 -1.853,-1.87 -2.771,-2.813c-0.746,-0.766 -1.554,-1.642 -2.5,-2.158l-0.092,-0.074l-0.091,-0.077l0.091,0.077l0.092,0.074c1.178,1.303 2.348,2.616 3.445,3.988c0.6,0.75 1.322,1.614 1.661,2.521c-0.196,0.189 -0.437,0.226 -0.693,0.293c-0.273,0.519 -0.028,1.584 0.051,2.175c-0.989,-1.434 -2.611,-2.611 -3.96,-3.705c-0.792,-0.641 -1.686,-1.448 -2.615,-1.859l-0.098,-0.085l-0.084,-0.074l0.084,0.074l0.098,0.085c0.648,0.833 1.526,1.514 2.245,2.291c2.021,2.184 3.922,5.037 4.851,7.867c-2.757,-1.743 -4.939,-4.152 -7.618,-6.021c1.039,1.443 2.533,2.598 3.75,3.898c2.213,2.365 4.166,4.889 5.966,7.579c-1.938,-0.711 -3.42,-1.886 -5.12,-2.986c-0.831,-0.537 -1.747,-0.965 -2.616,-1.438c-3.568,-1.941 -7.361,-5.932 -8.526,-9.845l5.835,2.663c-1.27,-1.068 -2.727,-1.88 -3.977,-2.981c-0.802,-0.706 -1.503,-1.643 -2.119,-2.513c-1.207,-1.704 -1.735,-3.38 -2.406,-5.32c-0.808,-2.337 -2.059,-4.659 -3.946,-6.304c-0.655,-0.571 -1.419,-1.006 -2.163,-1.45c2.614,-1.945 5.445,-4.595 7.035,-7.47l0.052,-0.05l-0.052,0.05Zm-39.149,1.641c-1.853,1.949 -3.791,3.672 -5.92,5.317c-1.144,0.884 -2.404,1.61 -3.437,2.632l3.765,-5.649c-3.303,2.564 -7.009,4.638 -10.121,7.433l2.986,-4.682l-10.49,9.364c0.859,-2.549 2.272,-4.534 3.747,-6.746c-3.059,2.363 -5.347,5.72 -7.795,8.677c0.396,-1.506 0.886,-2.884 1.467,-4.328l-5.721,8.12l1.876,-5.968l0.059,-0.059l-0.059,0.059c-0.583,0.568 -1.016,1.441 -1.416,2.144c-2.891,5.077 -4.158,10.958 -5.248,16.647c0.793,-1.388 1.039,-3.256 1.628,-4.77c1.718,-4.418 5.272,-9.76 9.296,-12.332c-0.543,1.423 -1.256,2.774 -1.783,4.202c-0.474,1.285 -0.744,2.543 -1.002,3.886c2.679,-6.155 9.177,-10.902 15.127,-13.546c-1.647,1.646 -2.875,3.488 -4.128,5.433c4.103,-3.486 8.84,-5.866 13.702,-8.1c1.979,-0.909 4.045,-1.7 5.92,-2.808c-1.319,1.811 -3.185,3.386 -4.98,4.704c4.115,-1.41 7.942,-3.165 11.075,-6.276c1.411,-1.402 2.658,-3.089 3.881,-4.657c-0.393,3.39 -2.01,6.358 -4.099,9.02c2.756,-1.716 5.224,-4.273 6.693,-7.178c0.7,-1.383 1.233,-2.834 1.958,-4.208c0.584,1.843 0.413,3.471 0.293,5.361c0.914,-2.228 1.861,-4.419 2.476,-6.755c0.223,-0.849 0.2,-1.732 0.425,-2.565l0.186,0.048c0.79,0.875 1.156,2.282 1.381,3.417l0.044,0.226c0.187,0.941 0.222,1.864 0.258,2.82c0.253,-1.097 0.573,-2.186 0.679,-3.311c0.466,-4.938 -2.099,-8.888 -5.127,-12.522c0.316,0.693 0.614,1.378 0.797,2.119c1.02,4.135 -0.067,8.202 -2.244,11.76c0.043,-2.498 -0.044,-4.808 -0.588,-7.251c-0.68,3.507 -2.711,7.727 -5.625,9.895c0.773,-1.999 1.351,-3.811 1.608,-5.94c-1.702,4.006 -4.573,7.711 -8.268,10.06c1.101,-2.416 2.015,-4.741 2.574,-7.346c-1.986,3.538 -4.754,6.197 -8.04,8.511c0.861,-1.511 1.828,-3.143 2.19,-4.858l0.053,-0.069l-0.053,0.069Zm27.177,12.139l0.051,0.046c0.255,0.573 0.592,1.106 0.836,1.682c0.726,1.711 1.136,3.867 0.818,5.706c-2.237,-2.716 -4.709,-4.503 -7.939,-5.892c-0.641,-0.275 -1.362,-0.656 -2.041,-0.789l-0.071,-0.05l0.071,0.05c0.68,0.667 1.434,1.255 2.084,1.954c2.253,2.423 2.99,4.852 3.023,8.123l-0.002,0.348c-0.321,-0.75 -0.623,-1.555 -1.033,-2.259c-1.079,-1.854 -2.922,-3.463 -4.921,-4.247c-3.529,-1.384 -7.57,-1.146 -10.998,0.407c-0.659,0.298 -1.326,0.78 -2.015,0.984c-0.815,0.241 -1.823,0.258 -2.673,0.376c-1.587,0.22 -3.145,0.538 -4.67,1.033c-6.314,2.048 -12.472,6.017 -16.792,11.081c-1.402,1.644 -2.477,3.57 -3.92,5.161c0.201,-0.835 0.46,-1.575 0.809,-2.36c-1.845,1.932 -3.377,4.151 -4.571,6.544c-0.51,1.022 -0.916,2.104 -1.479,3.097c-0.014,-2.058 0.101,-3.946 0.856,-5.885c-0.568,0.554 -0.985,1.247 -1.427,1.903c-1.05,1.553 -1.905,3.164 -2.864,4.767l0.361,-3.405c-2.557,4.666 -3.288,9.218 -2.59,14.463c0.714,-3.309 1.59,-6.618 2.832,-9.769c0.404,-1.024 0.791,-2.117 1.378,-3.052c0.273,3.244 0.538,6.138 1.862,9.184c0.041,-2.712 0.333,-5.314 1.254,-7.888c0.503,-1.406 1.202,-2.74 1.914,-4.05c0.703,-1.293 1.47,-2.626 2.535,-3.66l0.135,-0.128c-0.143,1.184 -0.312,2.382 -0.322,3.575c-0.011,1.181 0.138,2.377 0.254,3.552c1.088,-3.718 2.769,-7.307 5.255,-10.308c3.054,-3.687 7.17,-6.429 11.22,-8.901c-1.132,1.308 -2.223,2.618 -2.946,4.206c-0.588,1.293 -0.906,2.709 -1.271,4.075c0.949,-1.241 1.886,-2.514 2.969,-3.642c4.124,-4.294 9.064,-6.29 14.859,-7.124l-0.11,0.093c-0.788,0.652 -1.694,1.13 -2.54,1.699c-1.666,1.122 -3.298,2.582 -4.473,4.22l-0.365,0.515c1.873,-1.115 3.733,-2.173 5.713,-3.088c0.883,-0.408 1.994,-0.985 2.988,-0.865l0.012,0.105l-0.163,0.118c-4.295,3.139 -6.384,8.413 -7.36,13.453c1.792,-2.288 3.427,-4.602 5.914,-6.218c1.064,-0.691 2.189,-1.136 3.365,-1.59c-0.969,1.07 -1.956,2.152 -2.728,3.377c-1.548,2.453 -2.608,5.454 -3.208,8.278c-0.353,1.666 -0.537,3.369 -0.818,5.048c1.297,-2.862 3.285,-5.212 4.942,-7.852c-0.549,4.944 -1.968,10.168 -3.979,14.717c0.962,-1.228 1.96,-2.449 2.829,-3.744c0.839,-1.25 1.535,-2.556 2.31,-3.839c-0.307,1.639 -0.391,3.311 -0.715,4.939c-0.957,4.81 -3.547,9.277 -7.224,12.528l2.1,-5.526c-1.076,1.584 -2.019,3.26 -3.153,4.806c-1.978,2.697 -4.485,4.838 -7.255,6.672c1.075,-1.48 1.87,-3.105 2.611,-4.773c0.274,-0.618 0.661,-1.338 0.709,-2.015l0.063,-0.06l-0.063,0.06l-0.5,0.681c-1.824,2.526 -4.63,4.469 -7.29,6.016c1.192,-1.653 2.294,-3.359 3.152,-5.213c-3.632,3.371 -7.998,5.549 -12.679,7.081c-0.775,0.253 -1.986,0.779 -2.806,0.747c-0.161,-0.006 -0.177,-0.019 -0.31,-0.061c-0.172,-0.504 0.234,-1.594 0.389,-2.126c-1.932,0.168 -3.808,0.857 -5.6,1.573c1.8,-1.521 3.682,-3.045 5.101,-4.944c0.948,-1.268 1.599,-2.626 2.225,-4.071c-3.322,2.728 -7.261,5.186 -9.755,8.736c-0.466,0.662 -0.98,1.388 -1.264,2.15c2.179,-0.405 4.338,-0.563 6.55,-0.655c-2.281,1.329 -5.069,2.523 -6.11,5.151c3.159,0.468 6.374,0.649 9.55,1.004c6.168,0.69 12.354,1.479 18.51,2.278c5.057,0.657 10.053,1.69 15.109,2.336c2.513,0.321 5.139,0.654 7.676,0.47c0.211,-0.209 0.199,-0.214 0.195,-0.524c-0.022,-1.755 -1.669,-4.112 -2.921,-5.264c-0.701,-0.646 -1.521,-1.159 -2.372,-1.585c-0.493,-0.247 -1.038,-0.428 -1.488,-0.747c2.76,0.08 5.101,1.108 7.022,3.122c1.322,1.387 1.89,2.97 2.67,4.669c1.781,-0.068 3.468,-0.335 5.109,-1.067c-0.78,-3.607 -2.43,-6.105 -5.557,-8.129l-0.927,-0.509c-0.203,-0.101 -0.114,-0.051 -0.315,-0.189l0.571,0.047c3.215,0.424 6.229,2.366 7.768,5.254c0.371,0.695 0.448,1.705 0.892,2.292c0.391,-0.056 0.624,-0.266 0.865,-0.567c0.281,-0.352 0.449,-0.764 0.39,-1.218c-0.184,-1.415 -1.811,-3.003 -2.902,-3.793c-2.459,-1.779 -5.604,-3.196 -8.603,-3.709c-5.626,-0.963 -11.102,0.056 -16.685,0.739c-3.303,0.404 -6.634,0.545 -9.935,1.03c-3.969,0.584 -7.877,1.514 -11.843,2.135c2.503,-1.155 5.094,-2.241 7.727,-3.062c3.664,-1.141 7.638,-1.869 10.822,-4.149c1.641,-1.175 2.85,-2.553 4.115,-4.097c-0.572,1.881 -1.134,3.485 -2.171,5.177c0.841,-0.525 1.763,-1.077 2.497,-1.747c2.831,-2.585 4.199,-6.619 5.18,-10.198c0.347,2.01 0.388,3.897 -0.07,5.896l1.79,-1.882c3.447,-4.125 3.686,-10.164 3.21,-15.277c0.365,0.95 0.833,1.856 1.166,2.821c0.747,2.166 0.974,4.124 0.919,6.395c0.842,-1.413 1.583,-2.77 2.083,-4.346c1.611,-5.08 0.805,-11.185 -1.624,-15.867l0.605,0.397c2.687,1.92 3.473,5.553 3.952,8.619c0.585,-2.868 0.938,-5.671 0.324,-8.586c-0.746,-3.546 -3.193,-6.687 -6.186,-8.653l0.893,0.164c3.049,0.609 4.75,2.391 6.409,4.896c-0.292,-2.554 -0.972,-4.879 -2.247,-7.12c-1.161,-2.04 -2.722,-3.676 -5.048,-4.294l-0.198,-0.051c-0.837,-0.228 -1.594,-0.196 -2.455,-0.169c1.047,-0.514 2.17,-0.888 3.341,-0.97c1.806,-0.126 3.407,0.284 4.771,1.524c2.747,2.495 3.756,6.899 4.302,10.422c0.231,1.492 0.448,2.964 0.515,4.475c1.114,-2.146 2,-4.251 2.486,-6.629c0.278,-1.362 0.349,-2.779 0.472,-4.162c1.538,3.581 0.722,6.511 0.178,10.188c0.634,-0.903 1.281,-1.787 1.77,-2.779c1.741,-3.537 2.096,-7.721 1.424,-11.58c0.476,0.775 0.981,1.567 1.3,2.422c0.544,1.46 0.624,2.953 0.68,4.488c0.891,-2.724 1.016,-5.649 1.028,-8.5c-2.368,-2.637 -4.984,-4.979 -8.024,-6.826l-0.051,-0.046Zm41.839,0.331l0.057,0.133c0.182,1.108 0.422,2.204 0.522,3.323c0.183,2.038 -0.085,4.159 0.748,6.074c-2.051,-1.578 -2.515,-4.75 -3.871,-6.817l-0.055,-0.135l0.055,0.135l2.914,10.822c-1.105,-1.221 -1.776,-2.669 -2.529,-4.114c0.414,2.435 0.887,5.029 0.851,7.507l-4.194,-9.018l2.726,12.325c-1.124,-1.45 -2.131,-3.067 -2.923,-4.723c-0.98,-2.052 -1.751,-4.238 -2.908,-6.202l-0.104,-0.18c1.138,4.849 3.225,9.353 5.085,13.953c-0.711,-0.756 -1.29,-1.659 -1.871,-2.517c-1.031,-1.522 -2.007,-3.063 -2.913,-4.661c-0.78,-1.375 -1.526,-2.881 -2.438,-4.168c0.367,1.497 0.765,3.035 1.311,4.477c0.621,1.641 1.403,3.221 2.049,4.854c0.544,1.374 0.954,2.847 1.613,4.17l-1.758,-1.714l2.149,6.943c-1.194,-1.336 -2.057,-3.54 -2.786,-5.184c0.037,3.689 0.056,7.371 0.211,11.057c0.073,1.741 0.025,3.658 0.52,5.34c1.057,3.59 3.418,6.507 5.021,9.829c0.976,2.024 1.408,4.14 2.204,6.212c0.86,0.175 1.753,0.324 2.581,0.624c1.311,0.474 2.526,1.248 3.695,1.996c0.363,-1.394 0.359,-2.644 -0.408,-3.913c-0.826,-1.366 -2.002,-2.293 -3.351,-3.1c1.907,0.308 3.933,0.716 5.099,2.446c1.096,1.626 1.08,3.833 0.772,5.694c1.482,0.408 3.558,0.607 4.951,-0.181c0.622,-0.353 0.944,-0.83 1.098,-1.518c0.315,-1.417 -0.506,-3.172 -1.29,-4.323c-1.147,-1.684 -2.697,-2.884 -4.487,-3.816c2.332,-0.116 3.854,0.333 5.591,1.903c1.062,0.959 1.967,2.193 2.393,3.573c0.16,0.519 0.211,1.101 0.396,1.604c0.103,0.281 0.14,0.225 0.413,0.228c0.295,-0.194 0.425,-0.229 0.533,-0.579c0.343,-1.124 -0.356,-3.351 -0.981,-4.273c-0.514,-0.759 -1.144,-1.49 -1.933,-1.972c-0.706,-0.43 -1.584,-0.642 -2.366,-0.888c-1.139,-0.359 -2.243,-0.74 -3.306,-1.29c-2.348,-1.216 -4.269,-3.297 -5.71,-5.482c-2.794,-4.237 -4.259,-8.956 -4.31,-14.038c-0.021,-2.08 0.224,-4.203 0.426,-6.27c0.337,-3.429 0.759,-6.798 1.239,-10.209c0.15,-1.065 0.342,-2.121 0.509,-3.183c0.059,-0.382 0.188,-0.852 0.087,-1.224c0.258,-0.429 0.295,-1.072 0.384,-1.562c0.189,-1.036 0.386,-2.071 0.6,-3.103c0.648,-3.124 1.619,-6.191 2.322,-9.305l-1.743,4.302l-1.092,-3.29c0.124,1.536 0.427,3.059 0.48,4.599c0.028,0.832 -0.112,1.695 -0.209,2.52l-0.223,0.134c-0.133,-0.079 -0.388,-0.185 -0.488,-0.29c-0.253,-0.263 -0.36,-0.733 -0.466,-1.073c-0.219,-0.704 -0.409,-1.479 -0.738,-2.14l-0.097,-0.189l-0.057,-0.133Zm-151.997,48.281l0.072,0.062c0.465,2.638 2.37,5.385 4.532,6.918c1.909,1.354 4.219,2.146 6.194,3.446c-1.692,0.483 -3.279,0.646 -5.022,0.275l-0.195,-0.039c-1.135,-0.241 -2.214,-0.881 -3.162,-1.53c-2.458,-1.684 -4.694,-4.002 -6.303,-6.51c-0.752,-1.172 -1.493,-2.43 -2.05,-3.706c-0.435,-0.996 -0.748,-2.051 -1.21,-3.034c0.176,1.288 0.271,2.653 0.568,3.917c0.389,1.656 1.027,3.09 1.894,4.541c0.142,0.238 0.35,0.417 0.263,0.689l-0.847,-0.334l-0.026,-0.088c-0.45,-0.541 -1.106,-0.989 -1.623,-1.475c-1.04,-0.978 -2.012,-2.213 -2.742,-3.441c-2.146,-3.614 -0.871,-7.42 0.084,-11.186c-0.597,0.856 -1.147,1.75 -1.637,2.671c-0.342,0.645 -0.677,1.818 -1.178,2.291c-0.072,-0.123 -0.087,-0.135 -0.133,-0.255c-0.219,-0.584 -0.194,-1.288 -0.21,-1.909c-0.064,-2.607 0.461,-5.149 1.6,-7.5c0.781,-1.612 2.001,-3.305 3.4,-4.432c1.999,-1.612 4.495,-2.475 6.931,-3.152c3.048,-0.848 6.252,-1.46 9.241,-2.483c-1.484,-0.016 -2.959,0.194 -4.42,0.44c-2.604,0.441 -5.274,1.131 -7.522,2.563c0.83,-1.234 1.75,-1.845 3.021,-2.564c1.483,-0.84 3.088,-1.553 4.719,-2.053c1.033,-0.316 2.103,-0.487 3.141,-0.792c-2.399,0.205 -4.593,0.461 -6.911,1.159c-3.519,1.21 -5.912,2.46 -8.084,5.59c0.448,-2.203 1.07,-4.126 2.07,-6.143c-2.035,1.556 -3.948,3.428 -5.456,5.504c-3.213,4.423 -3.711,9.188 -2.876,14.452c-0.563,-1.6 -1.213,-3.242 -1.615,-4.888c-0.314,-1.286 -0.452,-2.59 -0.592,-3.904c-0.438,1.42 -0.496,3.027 -0.469,4.505c0.074,4.075 2.051,8.537 4.964,11.356c-2.193,-1.094 -3.715,-2.748 -5.294,-4.58c0.225,0.834 0.553,1.635 0.963,2.394c0.827,1.532 1.805,2.946 3.114,4.109c1.923,1.709 5.087,3.007 7.514,3.723l0.026,0.088c-0.515,0.43 -4.997,0.516 -5.888,0.572c2.61,1.64 5.71,2.929 8.551,4.126c1.191,0.502 2.457,0.933 3.589,1.555c-2.202,0.317 -4.224,0.512 -6.461,0.399l-0.057,-0.069l0.057,0.069c2.519,1.645 6.25,2.438 9.231,2.076l3.811,-0.733c-0.845,2.033 -2.373,3.324 -4.106,4.575c2.121,-0.251 4.335,-0.492 6.413,-0.985c1.602,-0.381 3.171,-0.949 4.735,-1.46c1.534,-0.501 2.926,-0.93 4.361,-1.683c-1.129,2.449 -3.208,4.18 -5.428,5.621c4.996,-0.851 9.777,-2.516 14.357,-4.666c1.198,-0.562 2.336,-1.251 3.526,-1.834c-0.541,2.176 -1.518,3.54 -3.029,5.165c2.163,-0.695 3.812,-2.067 5.873,-2.91c0.85,-0.347 1.726,-0.581 2.62,-0.783c0.661,-0.15 1.398,-0.244 1.993,-0.585c0.352,-0.202 0.611,-0.608 0.837,-0.938c0.99,-1.447 1.49,-3.172 1.921,-4.852c-1.588,1.855 -3.296,3.481 -5.188,5.019c0.764,-1.415 1.611,-3.3 1.629,-4.931l0.068,-0.048l-0.068,0.048c-0.115,0.124 -0.073,0.069 -0.164,0.207c-1.381,2.075 -3.139,3.781 -5.013,5.411c0.664,-1.521 1.143,-2.875 1.466,-4.506c-2.339,2.201 -4.543,3.532 -7.539,4.682c-0.905,0.347 -1.806,0.722 -2.753,0.94c1.991,-1.549 3.186,-2.974 4.463,-5.146c-1.554,1.061 -2.953,2.384 -4.55,3.367c-1.335,0.821 -2.583,1.287 -4.101,1.654c1.362,-0.965 2.357,-2.085 3.425,-3.347c-2.939,1.18 -6.094,2.224 -9.2,2.867c-1.914,0.397 -3.85,0.611 -5.76,1.047c0.925,-1.587 2.288,-3.01 3.519,-4.365c-1.099,-0.434 -2.072,-1.055 -3.068,-1.681c-2.597,-1.629 -4.857,-3.487 -6.824,-5.856c-0.704,-0.848 -1.265,-1.767 -1.91,-2.655l-0.072,-0.062Zm134.877,-192.641c-0.695,0.236 -1.249,0.565 -1.85,0.982c-2.286,1.584 -4.344,3.498 -6.6,5.134c-2.368,1.717 -4.985,3.113 -7.212,5.019c-0.854,0.731 -1.615,1.498 -2.123,2.513c-0.588,1.175 -0.531,2.292 -0.486,3.565c0.915,-1.451 1.89,-2.851 3.148,-4.031c1.678,-1.573 3.822,-2.816 5.716,-4.124c-2.837,3.879 -4.611,7.808 -3.853,12.712l0.645,2.972c0.148,-5.961 1.163,-12.221 5.668,-16.57c1.789,-1.727 3.866,-3.041 5.885,-4.468c-1.271,1.428 -2.555,2.849 -3.658,4.413c-3.149,4.466 -4.811,9.35 -4.486,14.833l0.11,0.9c0.6,-3.783 1.275,-7.171 3.577,-10.326c-1.132,5.759 0.446,11.619 2.425,16.997c-0.409,-2.784 -1.067,-5.529 -1.368,-8.33c-0.548,-5.091 0.251,-10.507 3.38,-14.711l1.855,-2.131c-0.985,2.16 -1.952,4.239 -2.468,6.574c-0.796,3.607 -0.276,7.778 0.514,11.336c0.295,1.33 0.595,2.703 1.067,3.982l0.368,0.986c-0.248,-1.517 -0.574,-3.041 -0.72,-4.571c-0.496,-5.199 0.402,-10.286 2.771,-14.963c-0.368,2.663 -0.612,5.184 -0.569,7.873c0.052,3.234 0.395,6.487 0.248,9.716l0.777,-3.725l1.692,-6.941c0.168,-0.674 -0.135,-1.541 -0.261,-2.214c-0.596,-3.205 -0.328,-6.067 2.039,-8.45c-0.33,1.073 -0.625,2.118 -0.756,3.235c-0.185,1.577 -0.094,3.201 0.263,4.75c0.426,1.842 1.133,3.597 1.459,5.471c0.92,5.293 -0.656,10.678 -3.605,15.095c-1.044,1.564 -2.388,3.188 -3.879,4.343c-1.089,0.843 -2.234,1.505 -3.658,1.369c-1.232,-0.97 -1.884,-3.346 -2.719,-4.72c-0.673,-1.107 -1.526,-2.129 -2.41,-3.074c-1.42,-1.519 -3.107,-2.781 -4.828,-3.94c-1.928,-1.298 -4.032,-2.542 -5.447,-4.432c-1.327,-1.773 -2.097,-4.3 -2.34,-6.483c-0.069,-0.625 -0.165,-1.352 -0.084,-1.977c0.176,-1.338 1.095,-2.673 1.87,-3.745c-1.262,0.54 -2.918,1.153 -3.491,2.513c-0.872,2.067 -0.108,5.297 0.753,7.292c0.74,1.711 1.773,3.266 3.169,4.513c1.048,0.937 2.278,1.584 3.478,2.299c3.052,1.817 5.918,3.851 7.826,6.923c1.206,1.942 1.957,4.323 3.344,6.118c0.333,0.431 0.742,0.867 1.27,1.051c0.935,0.328 1.84,0.038 2.683,-0.402c4.027,-2.102 7.197,-7.587 8.486,-11.793c0.841,-2.743 1.393,-5.502 1.357,-8.383c-0.016,-1.219 -0.067,-2.452 -0.224,-3.661c-0.516,-3.952 -1.476,-7.586 0.43,-11.359l0.551,4.567c0.411,-2.355 0.894,-4.442 0.767,-6.856c1.106,1.804 1.549,4.163 1.57,6.255c0.75,-1.686 1.115,-3.626 0.483,-5.407c-0.302,-0.848 -0.905,-1.573 -1.724,-1.959c-1.417,-0.669 -3.138,-0.952 -4.646,-1.359c-1.935,-0.522 -4.133,-1.525 -6.179,-1.196Zm45.271,5.902l0.1,0l-0.1,0Zm0.119,0.235l0.094,-0l-0.094,-0Zm-0.378,11.496c0.326,0.884 0.967,1.829 1.735,2.399c-0.04,-0.552 -0.032,-1.588 -0.458,-1.981c-0.394,-0.363 -0.754,-0.438 -1.277,-0.418Zm-19.265,3.178l-1.379,0.861c-0.108,0.903 -0.168,1.63 0.398,2.418c0.263,0.366 0.587,0.554 0.996,0.717l0.231,-0.038l-0.111,-0.196l-0.446,-1.886c0.418,0.121 0.789,0.188 1.224,0.207c0.334,-0.306 0.44,-0.7 0.45,-1.144c0.005,-0.244 -0.045,-0.333 -0.208,-0.522c-0.259,-0.302 -0.781,-0.408 -1.155,-0.417Zm35.208,11.654c-1.33,0.284 -2.634,0.811 -3.461,1.96c-0.089,0.122 -0.123,0.222 -0.171,0.364c0.259,0.27 0.46,0.288 0.842,0.288c0.774,0.001 1.57,-0.271 2.295,-0.512c0.879,-0.316 1.757,-0.634 2.641,-0.935c0.349,-0.119 0.787,-0.2 1.04,-0.48c-0.286,-0.404 -0.988,-0.625 -1.464,-0.701c-0.54,-0.087 -1.182,-0.037 -1.722,0.016Zm3.592,7.126c-0.737,0.669 -1.453,1.36 -2.291,1.903c-0.235,0.598 -0.461,1.227 -0.788,1.783c-0.277,0.472 -1.294,1.513 -1.297,1.95l0.09,0.081c1.031,-0.049 1.958,-0.08 2.719,-0.883c0.92,-0.971 1.745,-3.128 1.685,-4.48c-0.006,-0.131 -0.034,-0.253 -0.118,-0.354Zm-41.849,31.537c-0.599,0.352 -1.076,0.64 -1.231,1.361c-0.07,0.326 -0.014,0.756 0.177,1.03l0.829,0.841c-0.339,0.52 -1.036,1.344 -0.923,1.999c0.081,0.469 0.612,1.019 0.905,1.376l-1.049,1.351c0.057,0.393 0.199,0.425 0.496,0.674c0.68,0.044 1.196,0.087 1.735,-0.414c0.472,-0.438 0.505,-0.867 0.51,-1.491c0.006,-0.579 0.265,-0.958 0.327,-1.509c0.115,-1.029 -0.671,-1.917 -1.02,-2.839c0.233,-0.614 0.604,-1.316 0.568,-1.98c-0.396,-0.366 -0.796,-0.403 -1.324,-0.399Zm-35.493,99.669c-0.975,2.968 -1.815,6.121 -3.45,8.805c0.111,-1.156 0.313,-2.413 0.237,-3.569c-0.046,-0.694 -0.224,-1.391 -0.379,-2.067c-0.983,3.101 -1.529,5.834 -3.477,8.53c-0.115,-1.485 -0.237,-2.844 -0.675,-4.284c-0.672,2.425 -1.695,4.894 -3.534,6.684l0.125,-3.271l-0.079,-0.059l-0.182,0.327c-0.823,1.613 -1.691,3.076 -2.75,4.548c5.966,-0.405 12.104,-0.273 17.891,1.38c-0.138,-2.591 -0.079,-5.181 -0.466,-7.755c-0.324,-2.156 -1.036,-4.362 -1.867,-6.373c-0.396,-0.956 -0.781,-2.056 -1.394,-2.896Zm-7.511,18.143c-4.114,0.302 -8.172,0.954 -12.201,1.834c-1.659,0.362 -3.434,0.695 -4.992,1.381c3.421,1.124 6.878,2.104 10.348,3.068c4.673,1.298 9.25,2.459 14.077,3.027c0.493,0.005 1.47,0.171 1.811,-0.16c-0.007,-1.45 -0.52,-2.401 -1.532,-3.413c-0.715,-0.715 -1.604,-1.255 -2.44,-1.816c1.863,0.307 4.113,0.923 5.259,2.537c0.669,0.941 0.794,1.733 0.836,2.853l3.791,0.033l-0.531,-3.707c-0.76,0.084 -1.528,0.201 -2.295,0.177l-0.595,-4.462c-2.95,-0.892 -5.752,-1.402 -8.847,-1.42c-0.877,-0.006 -1.819,-0.05 -2.689,0.068Zm-27.256,0.595l0.084,0l-0.084,0Zm-40.549,2.258l-0.209,7.048c0.171,-0.126 0.189,-0.177 0.276,-0.363c0.638,-1.822 0.923,-3.585 0.41,-5.491c-0.083,-0.308 -0.188,-0.811 -0.364,-1.074l-0.113,-0.12Zm-13.414,0.952l-6.74,6.609l0.028,0.207c2.514,-0.78 4.678,-2.342 5.915,-4.707c0.283,-0.541 0.808,-1.501 0.797,-2.109Zm-6.511,1.271c-2.332,2.284 -4.817,4.331 -8.245,4.304c-3.06,-0.024 -6.51,-0.732 -9.45,-1.57c1.652,1.059 3.671,2.157 5.624,2.513c2.145,0.388 3.901,0.228 5.961,-0.475l-3.993,3.204c0.881,-0.213 1.807,-0.374 2.669,-0.649c2.588,-0.824 5.193,-2.525 6.607,-4.886c0.357,-0.594 0.995,-1.778 0.827,-2.441Zm23.905,0.347l-0.227,6.305l0.081,0.044l0.128,-0.185c0.751,-2.025 0.717,-3.938 0.194,-6.011l-0.176,-0.153Z" style="fill-rule:nonzero;"/>
    <path d="M250.509,192.755c-0.755,-0.153 -1.283,-0.714 -1.796,-1.245c0.765,0.164 1.317,0.648 1.796,1.245Z" style="fill-rule:nonzero;"/>
    <path d="M254.226,194.904c-0.16,-0.029 -0.277,-0.045 -0.418,-0.132c-0.369,-0.227 -1.07,-0.796 -1.182,-1.216l0.259,0.067c0.619,0.216 1.088,0.687 1.341,1.281Z" style="fill-rule:nonzero;"/>
    <path d="M248.346,195.201c-0.627,-0.032 -1.213,-0.613 -1.696,-0.987l0.437,0.11c0.608,0.207 0.966,0.295 1.259,0.877Z" style="fill-rule:nonzero;"/>
    <path d="M256.626,196.89c-0.179,-0.078 -0.388,-0.159 -0.541,-0.28c-0.339,-0.268 -0.391,-0.483 -0.445,-0.89c0.191,0.029 0.335,0.08 0.511,0.159c0.302,0.345 0.386,0.563 0.475,1.011Z" style="fill-rule:nonzero;"/>
    <path d="M251.548,196.729c-0.17,0.018 -0.327,0.04 -0.495,-0.006c-0.498,-0.137 -0.833,-0.391 -1.081,-0.832l0.641,0.062c0.492,0.094 0.678,0.373 0.935,0.776Z" style="fill-rule:nonzero;"/>
    <path d="M244.679,196.902l-0.07,-0.055l0.07,0.055Z" style="fill-rule:nonzero;"/>
    <path d="M244.679,196.902c0.506,0.088 1.491,0.337 1.838,0.727c0.08,0.09 0.103,0.158 0.149,0.262c-0.726,-0.051 -1.444,-0.516 -1.987,-0.989Z" style="fill-rule:nonzero;"/>
    <path d="M254.277,198.533l-0.52,-0.211c-0.415,-0.19 -0.583,-0.388 -0.745,-0.807c0.259,0.02 0.63,0.089 0.854,0.235c0.346,0.228 0.327,0.413 0.411,0.783Z" style="fill-rule:nonzero;"/>
    <path d="M259.23,200.143l-0.132,-0.048c-0.427,-0.218 -0.957,-0.965 -1.148,-1.405c0.233,0.098 0.474,0.202 0.662,0.376c0.368,0.341 0.579,0.57 0.618,1.077Z" style="fill-rule:nonzero;"/>
    <path d="M250.904,199.764l-0.168,0.003c-0.563,-0.019 -1.171,-0.58 -1.549,-0.954c0.456,-0.02 0.845,0.08 1.25,0.299c0.371,0.201 0.343,0.261 0.467,0.652Z" style="fill-rule:nonzero;"/>
    <path d="M256.656,200.15c-0.45,-0.114 -0.605,-0.216 -0.898,-0.573l0.055,-0.388l0.6,0.132c0.252,0.349 0.231,0.415 0.243,0.829Z" style="fill-rule:nonzero;"/>
    <path d="M254.497,201.758c-0.215,-0.011 -0.451,-0.029 -0.657,-0.094c-0.399,-0.126 -0.876,-0.453 -1.051,-0.837c0.34,-0.011 0.63,-0 0.946,0.14c0.435,0.193 0.6,0.356 0.762,0.791Z" style="fill-rule:nonzero;"/>
    <path d="M222.369,208.882l0.041,-0.074l-0.041,0.074Z" style="fill-rule:nonzero;"/>
    <path d="M221.554,225.351c-0.854,-0.831 -1.592,-1.875 -2.254,-2.864c-1.948,-2.904 -2.976,-5.569 -3.021,-9.082l0.133,-1.871l0.247,0.065l4.895,13.752Z" style="fill-rule:nonzero;"/>
    <path d="M230.813,223.87l-1.109,-1.277c-2.223,-2.92 -3.621,-5.786 -3.112,-9.517c0.44,0.398 0.693,2.308 0.948,2.971c0.696,1.807 1.545,3.552 2.298,5.336c0.344,0.816 0.755,1.626 0.975,2.487Z" style="fill-rule:nonzero;"/>
    <path d="M233.678,222.987c-0.429,-0.477 -0.95,-0.842 -1.396,-1.301c-0.977,-1.007 -1.728,-2.229 -2.242,-3.529c-0.676,-1.71 -0.787,-3.4 -0.046,-5.101c0.515,0.522 0.533,2.106 0.717,2.857c0.254,1.032 0.644,2.069 1.082,3.038c0.432,0.957 0.929,1.912 1.434,2.833c0.193,0.354 0.583,0.83 0.612,1.231l-0.161,-0.028Z" style="fill-rule:nonzero;"/>
    <path d="M227.334,225.573l-0.105,-0.093c-2.023,-1.982 -3.702,-4.872 -4.206,-7.677c-0.247,-1.378 -0.219,-2.75 -0.191,-4.142c0.258,0.219 0.285,0.689 0.364,1.021c0.219,0.92 0.442,1.839 0.737,2.738c0.921,2.814 2.38,5.392 3.401,8.153Z" style="fill-rule:nonzero;"/>
    <path d="M216.639,222.54l0.093,0.101l-0.093,-0.101Z" style="fill-rule:nonzero;"/>
    <path d="M216.732,222.641l0.075,0.076l-0.075,-0.076Z" style="fill-rule:nonzero;"/>
    <path d="M221.554,225.351l0.056,0.065l-0.056,-0.065Z" style="fill-rule:nonzero;"/>
    <path d="M199.865,232.265l0.067,0.051l-0.067,-0.051Z" style="fill-rule:nonzero;"/>
    <path d="M234.608,241.651l-0.057,-0.04l0.057,0.04Z" style="fill-rule:nonzero;"/>
    <path d="M230.211,249.654c-2.391,-1.826 -3.879,-4.56 -4.337,-7.502c0.474,0.491 0.829,1.361 1.233,1.939c0.793,1.131 1.699,2.201 2.628,3.223c0.256,-1.653 0.128,-3.039 -0.096,-4.69c0.464,0.733 0.777,1.45 0.985,2.291c0.254,1.621 0.066,3.179 -0.413,4.739Z" style="fill-rule:nonzero;"/>
    <path d="M228.442,258.376c-0.748,-0.578 -1.467,-1.187 -2.013,-1.967c-1.529,-2.183 -1.973,-4.622 -1.485,-7.243c0.286,0.251 0.303,0.625 0.403,0.988c0.207,0.754 0.42,1.509 0.723,2.23c0.424,1.007 1.109,1.879 1.835,2.684l1.7,-3.47c0.118,1.241 0.046,2.342 -0.149,3.569l-1.014,3.209Z" style="fill-rule:nonzero;"/>
    <path d="M231.182,266.457c0.636,-1.568 1.005,-3.082 1.27,-4.75c0.457,0.921 0.672,2.003 0.725,3.026c0.098,1.913 -0.568,4.119 -1.851,5.56c-0.936,-1.096 -1.64,-2.34 -2.308,-3.614c-0.639,-1.555 -0.818,-2.749 -0.836,-4.434c0.799,1.681 1.712,2.869 3,4.212Z" style="fill-rule:nonzero;"/>
    <path d="M147.834,272.94l0.065,-0.041l-0.065,0.041Z" style="fill-rule:nonzero;"/>
    <path d="M228.059,273.166l-0.064,-0.045l0.064,0.045Z" style="fill-rule:nonzero;"/>
    <path d="M218.28,276.226l0.051,-0.049l-0.051,0.049Z" style="fill-rule:nonzero;"/>
    <path d="M196.755,319.113l-0.051,-0.044l0.051,0.044Z" style="fill-rule:nonzero;"/>
    <path d="M196.755,319.113c0.772,0.37 1.478,0.848 2.25,1.224c1.377,0.669 2.867,1.25 4.171,2.049c1.735,1.063 3.316,2.708 4.641,4.252c0.329,0.382 1.113,1.186 1.234,1.653l0.023,0.209c-0.834,-0.133 -1.635,-0.478 -2.429,-0.76c-0.743,-0.264 -1.517,-0.483 -2.228,-0.825c-2.266,-1.088 -4.58,-3.057 -6.05,-5.079c-0.579,-0.795 -1.304,-1.786 -1.612,-2.723Z" style="fill-rule:nonzero;"/>
    <path d="M209.386,332.186c-1.226,0.023 -2.82,-0.447 -3.963,-0.878c-2.574,-0.971 -5.197,-3.558 -6.321,-6.058c0.698,0.364 1.367,0.82 2.067,1.195c1.386,0.744 2.866,1.407 4.184,2.261c1.504,0.975 2.805,2.183 4.033,3.48Z" style="fill-rule:nonzero;"/>
    <path d="M56.568,325.51l0.057,-0.128l-0.057,0.128Z" style="fill-rule:nonzero;"/>
    <path d="M208.666,337.605l-0.18,-0.061c-1.711,-0.671 -3.442,-2.3 -4.661,-3.624c-0.557,-0.604 -1.119,-1.227 -1.453,-1.988c2.781,1.316 4.521,3.218 6.294,5.673Z" style="fill-rule:nonzero;"/>
    <path d="M173.778,363.092l-0.068,-0.067l0.068,0.067Z" style="fill-rule:nonzero;"/>
  </g>
  <g>
    <path d="M317.977,172.565l-0.007,0.007l0.006,-0.006l-0.002,-0l0.003,-0.001Zm-22.676,9.449l0,-0l0,-0Zm17.261,-79.925c-24.002,-0 -43.283,13.172 -44.966,30.597c-1.51,15.626 11.526,30.605 31.224,36.844c0.007,0.003 0.015,0.005 0.023,0.007l-0.003,-0c0.778,0.246 1.566,0.478 2.364,0.697l0.003,0c0.003,0.001 0.005,0.005 0.005,0.007l-0,-0c-0,0.003 -0,0.005 -0,0.008l-0.003,-0c-0.012,0.023 -0.019,0.049 -0.022,0.074l-0.003,0l-0.685,2.02l0,-0l-0.01,0.03l-0.002,0.004l-0.012,0.032l-0,-0l-0.069,0.172c-0.004,0.008 -0.006,0.016 -0.009,0.025l-0.002,-0c-0.012,0.022 -0.021,0.046 -0.025,0.07l-0.003,-0l-0.695,1.725l-0,0l-0.013,0.032l0,0l-0.001,0.003l-0.014,0.03l-0,-0l-0.913,1.945l-0,-0l-0.015,0.03l-0.001,0.002l-0.001,0.002l-0.015,0.028c-0.005,0.01 -0.01,0.02 -0.014,0.03l-0.002,0l-1.005,1.861l0,-0l-0.016,0.03l-0.001,0l-0.001,0.002l-0.017,0.028c-0.004,0.007 -0.007,0.013 -0.01,0.019l-0.002,0l-1.113,1.812l-0,-0l-0,-0l-0,-0c-0,-0 -0,-0 -0.001,0c-0.013,0.017 -0.024,0.036 -0.033,0.055l-0.002,0l-0.002,0.002c-0.006,0.009 -0.011,0.018 -0.016,0.027l-0.003,0l-1.14,1.647l-0,-0l-0.018,0.025l-0.001,0.003l-0.001,-0l0,-0l0,-0l0,-0l-0.019,0.025c-0.007,0.009 -0.013,0.017 -0.018,0.026l-0.002,-0l-1.227,1.584l-0,0l-0.019,0.024l-0.002,0.002l-0.001,0.002l-0.02,0.024l-0,-0l-1.331,1.541l0,-0l0,-0l-0.021,0.024l0,0l0,-0l-0,0l-0.002,0.003l-0.021,0.022l-0.001,-0l-0.364,0.379c-0.068,0.072 -0.088,0.177 -0.049,0.268c0.037,0.086 0.118,0.144 0.211,0.15l-0.003,0c0.007,0.001 0.013,0.001 0.019,0.001c0.011,-0 0.023,-0.001 0.034,-0.002l-0.001,-0l1.375,-0.182l0.015,-0.003l2.442,-0.475l0.015,-0.003l2.409,-0.624l0.015,-0.004l2.366,-0.77l0.014,-0.005l2.316,-0.912l0.013,-0.006l2.248,-1.048l0.013,-0.007l2.181,-1.183l0.013,-0.007l2.104,-1.314l0.012,-0.008l2.021,-1.439l0.012,-0.009l1.929,-1.558l0.011,-0.01l1.665,-1.521l-0,-0c0.004,-0.004 0.007,-0.006 0.007,-0.006l0.001,-0.001l-0,-0c0.003,-0.002 0.005,-0.005 0.008,-0.007l-0.001,0l0.151,-0.138l0.011,-0.011l1.726,-1.781l0.01,-0.011l0.411,-0.479l0.009,-0.005l-0.002,-0l0.003,-0l0.003,-0c0.234,0.002 0.476,0.004 0.709,0.004c0.864,-0 1.728,-0.018 2.579,-0.051c22.792,-0.905 40.765,-13.75 42.387,-30.546c1.832,-18.96 -17.748,-36.966 -44.661,-39.566c-2.176,-0.21 -4.33,-0.312 -6.442,-0.312Z" style="fill:#fff;fill-rule:nonzero;stroke:#020000;stroke-width:3px;"/>
  </g>
</svg>
