<?xml version="1.0" encoding="UTF-8" standalone="no"?>
<!DOCTYPE svg PUBLIC "-//W3C//DTD SVG 1.1//EN" "http://www.w3.org/Graphics/SVG/1.1/DTD/svg11.dtd">
<svg width="100%" height="100%" viewBox="0 0 406 529" version="1.1" xmlns="http://www.w3.org/2000/svg" xmlns:xlink="http://www.w3.org/1999/xlink" xml:space="preserve" xmlns:serif="http://www.serif.com/" style="fill-rule:evenodd;clip-rule:evenodd;stroke-linejoin:round;stroke-miterlimit:2;">
  <rect id="L5-3" x="0.132" y="0.089" width="405.12" height="528" style="fill:none;"/>
	<a href="L5-4.svg">
  <circle cx="364.74" cy="491.129" r="17.4" style="fill:#e1c70a;"/>
	</a>
  <g>
    <path d="M125.028,275.336c0,-0.037 0,-0.037 0,-0c0,-0.037 0,-0 0,-0Z" style="fill:#231f20;fill-rule:nonzero;"/>
    <path d="M377.029,269.241c-5.26,0.871 -10.52,1.488 -15.816,2.286c1.995,-2.032 3.555,-4.498 4.498,-7.183c-1.088,-0.145 -2.104,0.145 -3.083,0.508c0.036,-4.244 -0.472,-8.778 -3.011,-12.333c-0.907,-1.306 -2.322,-2.104 -3.591,-2.975c2.793,-1.269 5.84,-1.959 8.597,-3.301c0.435,2.104 0.653,4.208 1.269,6.276c-0.653,1.523 -1.705,2.902 -2.067,4.57c-0.508,2.032 -0.327,4.244 0.653,6.131c0.217,0.689 1.015,0.58 1.559,0.725c-0.217,-1.414 -0.616,-2.829 -0.435,-4.244c0.073,-1.705 0.762,-3.301 1.596,-4.788c0.581,-0.907 -0.399,-1.705 -0.834,-2.431c0.254,0 0.725,0.073 0.979,0.073c-0.036,-3.083 -0.798,-6.13 -0.943,-9.214c-0.217,-1.668 0.98,-3.083 0.907,-4.716c0.036,-2.684 -0.254,-5.368 -0.871,-7.98c-0.181,-0.871 -0.689,-1.596 -1.233,-2.249c-5.26,-6.312 -10.665,-12.551 -16.759,-18.101c-1.741,-1.632 -3.664,-3.047 -5.84,-3.99c-2.285,-1.052 -4.788,-1.415 -7.219,-2.032c-3.845,-0.907 -7.726,-1.705 -11.644,-2.358c1.306,-6.311 2.721,-12.587 4.244,-18.826c-1.668,4.135 -2.865,8.416 -4.353,12.623c-0.58,1.959 -1.668,3.954 -1.124,6.058c-14.075,-2.249 -28.403,-3.772 -42.623,-2.575c-5.55,0.544 -11.173,1.378 -16.433,3.41c-6.021,2.575 -11.317,6.529 -16.65,10.265c-0.435,-0.181 -0.907,-0.362 -1.342,-0.507c0.218,0.616 0.218,1.269 0.073,1.886c-0.617,0.145 -1.27,0.217 -1.85,0.508c-0.581,0.362 -0.798,1.088 -1.306,1.487c-1.886,0.218 -3.882,-0.036 -5.623,0.798c0.472,1.052 1.56,1.524 2.612,1.777c-1.741,1.85 -3.809,3.374 -5.985,4.644c0.109,-1.27 0.181,-2.54 0.254,-3.809c-0.871,0.435 -1.742,0.834 -2.685,0.508c0,0.834 -0.036,1.668 0.109,2.466c0.036,0.617 1.161,0.69 0.834,1.379c-0.943,0.653 -2.104,0.979 -3.047,1.632c-2.865,1.923 -5.695,3.99 -8.27,6.348c-0.798,0.544 -1.85,0.508 -2.757,0.762c-1.705,0.29 -3.374,1.016 -4.643,2.249c0.653,-1.125 0.798,-2.467 1.342,-3.664c-2.104,-0.725 -3.99,0.653 -5.949,1.197c0.508,-1.197 1.922,-1.414 2.974,-1.85c-0.689,-0.399 -1.269,-1.124 -2.067,-1.16c-0.798,0.253 -1.669,0.507 -2.249,1.088c0.181,0.616 0.471,1.197 0.616,1.813c-0.399,0.907 -0.907,1.814 -1.487,2.612c-1.451,1.669 -4.135,1.923 -5.332,3.809c2.611,-0.181 4.643,-2.43 7.363,-2.213c-1.233,1.306 -2.865,2.177 -4.026,3.592c-1.233,-0.291 -2.394,-0.69 -3.591,-1.125c0.181,-1.741 2.14,-2.14 3.119,-3.337c-0.834,-2.104 -2.72,-3.664 -3.301,-5.913c-0.834,0.218 -1.886,0.653 -2.648,-0.073c-1.161,-1.052 -2.031,-2.43 -3.373,-3.301c-0.907,-0.108 -1.451,0.69 -2.032,1.234c-0.907,-1.959 -1.668,-3.954 -2.684,-5.84c-0.29,-0.581 -0.871,-0.944 -1.415,-1.234c-0.834,1.088 -1.197,2.467 -1.886,3.628c-0.907,1.088 -2.394,1.269 -3.7,1.632c-0.181,-2.068 -0.726,-4.099 -1.016,-6.167c-0.362,-1.995 -0.471,-4.026 -0.943,-6.021c-0.326,0.145 -0.689,0.254 -1.016,0.399c-1.487,-1.161 -3.736,-0.726 -5.078,-2.213c-1.016,1.814 -1.378,3.845 -1.959,5.804c-3.555,-1.596 -6.82,-3.664 -10.121,-5.695c-5.259,-3.265 -10.193,-7.291 -16.178,-9.25c-3.809,-1.234 -7.799,-1.778 -11.789,-1.778c-3.737,0 -7.473,0.145 -11.209,-0.29c-6.167,-0.834 -12.406,-1.197 -18.609,-1.632c-3.047,-5.006 -5.55,-10.302 -8.525,-15.344c2.249,5.042 4.462,10.084 6.53,15.235c-11.753,-0.617 -23.543,-0.544 -35.296,0.072c-6.565,0.472 -13.204,0.98 -19.806,1.778c18.21,-1.379 36.529,-1.451 54.703,0.109c1.414,-0.073 1.886,1.451 2.43,2.43c-0.58,0.073 -1.161,0.145 -1.741,0.218c-11.318,0.907 -22.527,2.575 -33.736,4.353c-6.529,1.088 -11.462,5.949 -15.489,10.846c-2.104,2.285 -2.14,5.55 -2.866,8.379c-2.829,1.814 -6.094,2.757 -8.996,4.462c-0.217,1.995 -0.181,4.027 -0.435,6.058c-0.181,1.125 1.342,1.487 1.487,2.539c0.327,1.524 -0.544,2.975 -1.596,3.954c-0.653,0.762 -1.85,1.379 -1.632,2.539c0.326,2.177 1.161,4.208 1.487,6.385c0.508,3.337 2.104,6.348 3.736,9.25c1.778,3.881 3.011,8.125 5.877,11.39c-2.648,-0.254 -5.187,-1.088 -7.836,-0.979c-5.005,-0.871 -9.975,-1.85 -14.981,-2.612c4.861,1.741 9.794,3.374 14.8,4.716c0.472,0.181 1.052,0.181 1.451,0.544c0.399,0.544 0.689,1.161 1.27,1.523c0.217,-0.362 0.471,-0.725 0.689,-1.052c2.793,0.762 5.659,1.234 8.488,1.923c16.433,3.482 32.938,6.711 49.298,10.628c-1.197,1.524 -2.286,3.084 -3.265,4.716c0.363,0.435 0.762,0.907 1.161,1.342c-1.524,0.508 -3.011,1.161 -4.208,2.249c2.14,0.98 4.534,0.798 6.819,1.197c0.798,0.037 1.597,0.399 2.395,0.254c0.471,-0.544 1.305,-1.269 0.798,-2.031c-0.653,-1.415 -0.907,-3.011 -1.887,-4.28c-0.58,-0.399 -1.269,-0.617 -1.85,-1.016c0.472,-0.653 0.907,-1.27 1.342,-1.923c5.659,1.451 11.354,2.648 17.05,3.991c-2.685,-3.084 -6.711,-4.499 -10.448,-5.768c-16.505,-5.333 -33.481,-9.033 -50.639,-11.572c0.653,-0.616 1.378,-1.124 2.104,-1.596c2.938,0.871 5.985,1.197 8.96,1.886c14.074,3.011 28.185,5.949 42.26,8.924c0.653,0.145 1.378,0.218 1.995,0.544c0.907,1.306 1.56,2.793 2.648,3.954c0.979,1.088 2.031,2.104 3.12,3.011c4.28,3.083 10.048,3.845 15.054,2.285c2.611,-0.689 5.042,-1.886 7.69,-2.358c0.435,0.871 1.052,1.741 2.104,1.85c5.042,0.98 10.266,0.037 15.163,-1.197c1.487,-0.471 3.156,-0.725 4.28,-1.886c0.327,0.363 0.689,0.689 1.016,1.052c3.301,-1.596 6.529,-3.337 9.975,-4.643c0.726,-0.218 1.451,0.29 2.177,0.29c2.176,-0.58 4.099,-1.814 6.239,-2.467c0.871,0.109 1.487,1.197 2.467,0.943c1.015,-0.217 1.922,-0.036 2.575,0.798c0.472,-0.507 0.327,-1.233 0.399,-1.85c0.581,0.69 1.125,1.597 2.14,1.705c0.871,-0.108 1.597,-0.689 2.322,-1.124c2.539,-1.814 5.187,-3.483 7.763,-5.296c1.161,-0.798 1.741,-2.14 2.503,-3.265c1.016,-1.85 2.394,-3.482 3.156,-5.441c0.508,0.217 1.015,0.471 1.523,0.689c-1.414,2.503 -0.87,5.477 0.037,8.017c-0.98,-0.798 -1.923,-1.778 -3.156,-2.177c-0.726,-0.254 -1.161,0.689 -1.451,1.197c-0.69,1.85 -0.436,3.918 -0.109,5.804c0.217,0.762 0.217,1.741 0.87,2.322c2.358,-0.073 4.535,-1.342 6.929,-1.197c0.617,0.072 1.052,0.508 1.487,0.907c1.415,1.378 2.83,2.829 4.643,3.627c-0.326,-2.394 -0.435,-4.824 -0.326,-7.255c1.632,0.327 3.301,0.472 4.897,0.98c5.006,1.487 10.229,1.668 15.417,1.741c4.57,0.181 9.177,0.109 13.748,0.29c1.415,1.052 1.777,2.938 2.974,4.208c2.794,-0.182 5.55,-0.435 8.344,-0.581c3.228,-0.326 6.275,1.089 9.467,1.161c4.607,0.689 9.468,0.653 13.785,-1.269c2.176,-0.871 3.99,-2.395 5.731,-3.918c0.472,0.145 0.943,0.181 1.451,0.073c2.539,-0.545 5.115,-0.835 7.654,-1.234c16.433,-2.43 32.792,-5.26 49.007,-8.923c4.861,-1.089 9.794,-2.032 14.546,-3.664c3.338,-1.125 6.711,-2.032 10.049,-3.12l-0.109,-0.109Zm-11.935,-30.869c-0.109,1.052 -1.124,1.777 -1.088,2.865c0,1.488 0.363,2.939 0.58,4.39c-2.72,1.015 -5.441,2.14 -8.198,3.119c0.436,-5.586 0.944,-11.245 -0.254,-16.759c2.757,-0.326 5.478,-0.798 8.235,-1.233c0.653,2.467 0.943,5.078 0.725,7.618Zm-96.2,-33.627c1.088,-0.399 2.285,-0.218 3.409,-0.218c3.918,0.218 7.872,0.472 11.717,1.306c-4.389,1.632 -8.851,3.047 -13.167,4.825c-7.219,2.938 -14.293,6.166 -21.33,9.467c1.741,-1.487 3.7,-2.757 5.441,-4.244c4.535,-3.809 9.323,-7.4 13.93,-11.136Zm7.944,24.413c2.866,0.58 5.731,1.233 8.597,1.922c0.834,-0.29 1.451,-0.979 2.14,-1.487c4.861,-4.026 9.613,-8.234 14.619,-12.079c-2.431,3.881 -4.788,7.871 -7.727,11.39c-1.088,1.342 -2.176,2.72 -3.156,4.135c-4.824,-0.834 -9.504,-2.285 -14.328,-3.228c-4.027,-0.726 -7.908,-2.032 -11.862,-2.939c-1.342,-0.326 -2.721,-0.544 -4.026,-0.979c8.452,-2.213 16.94,-4.28 25.356,-6.638c-4.027,1.814 -8.162,3.446 -12.044,5.622c-0.979,0.617 -2.176,1.125 -2.684,2.177c1.27,1.378 3.337,1.668 5.115,2.104Zm-37.327,-6.929c4.752,-3.99 9.794,-7.581 14.909,-11.064l0.073,0.146c-5.297,4.28 -10.23,8.996 -15.163,13.675c-1.016,-0.072 -1.959,-0.326 -2.939,-0.508c1.125,-0.58 2.141,-1.414 3.12,-2.249Zm-34.969,20.786c0.145,0.725 0.254,1.487 0.363,2.212c0.218,0.037 0.726,0.109 0.943,0.146c-0.109,-0.871 -0.109,-1.778 0.036,-2.648c1.959,-0.69 4.027,0.253 5.369,1.704c1.379,1.234 1.923,3.12 3.41,4.245c-0.29,-3.447 -2.902,-6.095 -5.659,-7.836c0.544,-0.58 1.378,-1.052 1.596,-1.886c-0.145,-0.472 -0.435,-0.907 -0.653,-1.342c3.12,-0.073 5.587,-2.322 8.525,-3.047c1.233,-0.363 2.539,-0.472 3.664,-1.125c1.015,-0.616 1.922,-1.415 2.865,-2.176c1.923,-1.633 4.136,-2.902 6.058,-4.535c0.472,-0.471 1.161,-0.399 1.741,-0.399c9.976,0.69 19.915,1.995 29.782,3.7c4.135,0.617 8.198,1.669 12.333,2.322c-2.394,0.363 -4.861,0.109 -7.255,0.181c-7.654,0.109 -15.271,0.653 -22.889,1.125c-2.793,0.217 -5.586,0.399 -8.307,1.052c6.929,0.036 13.966,-0.036 20.785,1.269c-8.959,1.923 -18.101,3.41 -26.661,6.893c-3.338,1.451 -6.711,3.156 -9.069,5.949c-1.016,1.269 -2.104,2.902 -1.56,4.607c4.607,-4.281 10.121,-7.437 15.78,-10.049c7.146,-3.119 14.8,-4.933 22.381,-6.565c2.938,-0.581 5.877,-1.088 8.815,-1.814c3.047,-0.762 6.167,-0.363 9.25,-0.29c3.446,0.072 6.856,0.29 10.302,0.544c-5.985,1.995 -12.116,3.519 -18.174,5.296c-4.353,1.306 -8.561,3.083 -12.986,4.244c-7.944,2.249 -16.07,3.773 -23.978,6.058c3.446,-0.218 6.82,-0.979 10.194,-1.632c7.762,-1.451 15.416,-3.446 22.853,-6.058c7.363,-2.576 14.981,-4.353 22.381,-6.747c1.85,-0.653 3.918,-0.835 5.55,-2.032c1.27,-1.197 2.14,-2.684 3.229,-4.026c4.244,-5.296 7.291,-11.463 11.608,-16.687c0.761,-1.015 1.886,-1.777 2.466,-2.902c0.218,-1.487 -1.161,-2.502 -2.466,-2.72c-8.307,-1.85 -16.759,-2.83 -25.211,-3.7c-5.514,-0.435 -11.064,-0.98 -16.578,-0.544c6.239,-1.959 12.841,-2.503 19.334,-2.83c14.293,-0.362 28.585,1.27 42.623,3.773c3.41,0.58 6.747,1.523 10.121,2.176c1.632,0.327 3.301,0.69 4.788,1.451c2.322,1.197 4.244,2.975 6.094,4.752c5.188,5.079 10.012,10.52 14.619,16.106c-2.503,0.508 -5.006,0.943 -7.545,1.27c-1.778,-5.768 -4.208,-11.535 -8.452,-15.925c-3.011,-3.337 -7.11,-5.586 -11.535,-6.348c-7.074,-1.85 -15.018,-1.596 -21.439,2.14c-4.099,2.467 -6.965,6.457 -9.54,10.375c-3.591,5.623 -6.675,11.572 -8.815,17.883c-10.556,3.048 -21.293,5.188 -31.994,7.691c-3.011,0.689 -5.986,1.705 -8.996,2.43c1.306,-0.834 2.757,-1.415 3.99,-2.358c-2.721,0.726 -5.441,1.669 -8.017,2.902c-2.358,1.306 -4.316,3.301 -5.767,5.55c-1.198,0.29 -2.467,0.182 -3.664,0.29c-7.4,0.291 -14.764,0.835 -22.128,1.343c-1.668,0.036 -3.047,-1.161 -4.353,-2.104c-2.321,-1.633 -4.462,-3.519 -6.239,-5.732c-0.762,-0.616 -0.036,-1.777 -0.871,-2.358c0.109,0.726 0.291,1.451 0.327,2.177c-0.508,-0.073 -1.27,0.326 -1.633,-0.145c-0.217,-0.907 -0.181,-1.85 -0.181,-2.793c-0.834,-0.037 -1.669,0.072 -2.467,0.29c0.218,-0.943 0.037,-2.14 0.907,-2.793Zm107.555,-14.002c2.358,0.834 4.861,1.088 7.182,1.922c0.617,0.726 0.508,1.778 0.544,2.685c-1.777,0.362 -3.627,0.362 -5.405,0.471c-1.813,0.073 -3.663,0.254 -5.477,-0.145c-0.399,-1.56 -0.58,-3.41 0.181,-4.861c1.742,-0.979 3.773,-0.254 5.659,-0.58c0.073,0.145 0.182,0.471 0.218,0.653c-0.98,-0.145 -1.959,-0.218 -2.902,-0.145Zm3.482,-0.327c1.27,0.254 2.685,0.472 3.555,1.56c-1.306,-0.653 -2.72,-1.197 -4.208,-1.016c0.182,-0.181 0.399,-0.362 0.653,-0.544Zm-1.741,-16.033c-5.332,3.917 -8.633,9.794 -11.717,15.525c-1.378,3.047 -3.047,5.949 -4.208,9.069c3.628,-0.653 7.074,-2.104 10.738,-2.43c-0.798,0.689 -1.959,0.544 -2.902,0.907c-3.047,0.87 -6.203,1.523 -9.178,2.648c0.98,-1.56 1.633,-3.338 2.431,-4.97c2.031,-4.281 4.208,-8.488 6.819,-12.442c1.814,-2.939 3.954,-5.695 6.53,-7.944c3.482,-2.939 8.017,-4.426 12.515,-4.68c-3.954,0.617 -7.836,1.923 -11.028,4.317Zm-2.684,23.506c2.72,0.58 5.586,0.58 8.343,0.326c1.124,-0.109 2.358,-0.29 3.265,-1.052c0.725,-0.616 0.725,-1.632 0.798,-2.503c2.902,-0.399 5.767,-1.269 8.633,-1.813c0.834,0.979 1.487,2.104 2.14,3.228c-6.348,1.161 -12.551,2.975 -18.863,4.389c-5.187,1.27 -10.374,2.576 -15.561,3.737c-0.327,-1.052 -0.617,-2.104 -0.944,-3.156c4.027,-1.089 8.09,-2.322 12.189,-3.156Zm-10.991,7.69c8.742,-1.995 17.52,-3.918 26.19,-6.275c2.684,-0.98 5.586,-1.198 8.379,-1.814c0.617,2.249 1.052,4.57 1.089,6.892c0.108,4.571 0.072,9.177 -0.871,13.639c-0.073,0.327 -0.181,0.653 -0.254,0.943c-7.146,1.415 -14.256,3.084 -21.402,4.462c-4.172,0.726 -8.271,1.814 -12.479,2.322c-0.761,-4.643 -1.233,-9.432 -0.362,-14.075c0.254,-2.031 -0,-4.063 -0.29,-6.094Zm35.222,-9.83c-0.544,-1.125 -1.197,-2.177 -1.886,-3.229c6.602,-1.233 13.131,-2.648 19.733,-3.809c0.581,1.161 1.016,2.394 1.415,3.628c-6.42,1.088 -12.841,2.249 -19.262,3.41Zm11.064,-18.9c2.721,2.866 4.643,6.53 5.768,10.302c-0.399,-0.326 -0.689,-0.725 -0.835,-1.197c-1.342,-3.192 -3.01,-6.239 -4.933,-9.105Zm-78.172,35.985c-5.768,1.197 -11.463,2.866 -17.339,3.228c-1.306,0.508 -2.322,1.488 -3.446,2.249c-1.161,0.98 -3.011,0.545 -4.063,1.742c-1.052,0.87 -1.161,2.575 -2.503,3.083c0.471,-1.197 1.052,-2.358 1.85,-3.374c1.052,-1.124 2.757,-0.87 3.954,-1.704c1.668,-0.835 3.047,-2.286 4.969,-2.54c3.918,-0.58 7.8,-1.414 11.645,-2.285c3.119,-0.617 6.239,-1.233 9.359,-1.85c0.906,-0.181 1.85,-0.435 2.756,-0.218c-0.798,1.343 -2.031,2.286 -3.192,3.265c-2.176,1.778 -4.498,3.374 -6.674,5.151l-0.109,-0.109c3.192,-2.539 6.602,-4.824 9.322,-7.871c-2.212,0.072 -4.353,0.761 -6.529,1.233Zm-15.199,7.473c1.306,0.072 2.648,-0 3.954,-0.073c0.399,-0.689 0.725,-1.451 1.052,-2.176c0.653,-0.291 1.306,-0.581 1.886,-1.016c1.125,-0.834 2.539,-1.125 3.881,-1.487c-0.725,1.16 -1.342,2.43 -2.357,3.373c-0.653,0.653 -1.596,0.435 -2.395,0.399l0,-1.523c-1.088,0.399 -1.16,1.668 -1.451,2.611c0.073,0.037 0.182,0.109 0.254,0.182c1.85,-0.399 3.773,-0.29 5.623,-0.653c0.435,-0.109 0.834,0.036 1.27,0.145c-1.887,0.58 -3.882,0.399 -5.804,0.653c-1.778,0.435 -3.7,0.072 -5.514,0.072c-0.399,-0.036 -0.834,-0.072 -1.233,-0.072c-0.327,-0 -0.944,-0.036 -1.27,-0.073c0.109,-1.197 0.363,-2.43 0.725,-3.555c0.109,0.146 0.363,0.436 0.472,0.617c0.617,0.073 1.197,0.181 1.814,0.29c-0.544,0.472 -1.342,0.363 -1.995,0.472c-0.037,0.29 -0.073,0.907 -0.109,1.197c-0.145,0.653 0.762,0.544 1.197,0.617Zm-47.085,-7.328c1.27,1.814 2.539,3.664 4.136,5.26c-0.726,0.399 -1.488,0.762 -2.286,0.871c-1.414,-1.705 -1.269,-4.1 -1.85,-6.131Zm0.182,15.272c-0.363,-0.327 -0.726,-0.653 -1.052,-0.98c-0.581,1.306 -0.544,2.866 -1.161,4.136c-2.285,0.725 -4.462,1.632 -6.747,2.321c1.777,-0.979 3.627,-1.813 5.441,-2.72c0.472,-0.182 0.725,-0.617 0.871,-1.089c0.58,-1.741 1.088,-3.518 1.559,-5.296c0.545,1.161 0.363,2.54 1.089,3.628Zm1.197,-16.433c2.865,2.249 5.55,4.752 8.706,6.675c0.761,0.435 1.632,0.834 2.539,0.798c5.332,-0.109 10.628,-0.472 15.961,-0.617c-4.825,0.581 -9.649,1.197 -14.51,1.669c-1.705,0.145 -3.591,0.435 -5.115,-0.617c-3.011,-2.031 -5.913,-4.57 -7.581,-7.908Zm-3.446,1.27c-0.037,1.959 -1.27,3.918 -3.084,4.679c-1.777,0.798 -3.591,1.379 -5.441,1.995c-8.633,2.721 -17.448,4.934 -26.299,6.893c-1.56,-2.249 -3.41,-4.281 -4.897,-6.602c0.544,0.108 1.124,0.181 1.668,0.326c1.197,1.596 2.322,3.337 3.737,4.716c4.389,-1.016 8.706,-2.358 13.095,-3.446c5.731,-1.633 11.608,-3.011 17.158,-5.188c1.741,-0.58 2.72,-2.212 4.063,-3.373Zm-43.349,15.671c-2.72,0.326 -5.332,-0.508 -8.016,-0.798c-3.519,-0.472 -7.364,-0.835 -10.194,-3.193c5.043,1.633 10.411,1.814 15.598,2.721c3.773,0.363 7.473,-0.798 11.246,-0.762c2.104,0.073 4.171,-0.363 6.239,-0.689c4.244,-0.798 8.524,-1.306 12.696,-2.322c-0.363,0.109 -0.689,0.218 -1.052,0.327c-3.954,1.124 -8.053,1.777 -12.043,2.684c-4.752,1.052 -9.613,1.524 -14.474,2.032Zm5.042,14.945c-1.414,0.072 -2.974,0.29 -4.171,-0.581c-1.379,-0.979 -2.793,-1.886 -3.954,-3.083c2.249,-0.725 4.462,-1.523 6.711,-2.213c0.399,1.959 1.015,3.882 1.414,5.877Zm-12.478,-9.54c-0.254,1.813 -2.539,2.684 -4.027,1.704c-1.886,-0.979 -1.777,-4.207 0.327,-4.86c1.922,-0.871 4.317,1.052 3.7,3.156Zm-7.69,-12.116c-0,-0.109 0.036,-0.327 0.036,-0.436c0.871,-0.145 1.777,-0.145 2.648,-0.145c0,0.69 0.036,1.379 0.073,2.068c-0.871,-0.58 -1.923,-0.834 -2.757,-1.487Zm3.99,-0.98c2.358,-0.29 4.752,-0.29 7.146,-0.362c0.726,0.036 1.632,-0.145 2.104,0.544c0.943,1.269 1.197,2.865 1.596,4.353c-3.591,-0.29 -7.182,-0.871 -10.774,-1.27c-0.036,-1.124 -0.036,-2.213 -0.072,-3.265Zm51.764,-13.748c0.036,1.088 0.145,2.177 0.399,3.229c0.29,0.217 1.306,0.036 1.052,0.653c-0.943,1.015 -1.923,1.995 -2.793,3.047c-1.234,1.451 -3.047,2.067 -4.752,2.757c-0.254,-1.742 -0.726,-3.555 -0.472,-5.333c2.068,-1.632 4.462,-2.793 6.566,-4.353Zm-0.399,-2.176c-4.788,4.715 -10.737,7.98 -16.505,11.354c-0.907,0.58 -1.959,0.907 -3.047,0.907c-7.981,0.471 -15.925,1.414 -23.941,1.668c-5.405,0.182 -10.81,0.544 -16.179,0.327c-0.617,-2.358 -3.228,-3.229 -4.643,-5.042c-0.399,-0.399 -0,-0.871 0.181,-1.27c1.85,1.56 3.773,3.083 5.84,4.317c0.653,0.362 1.379,0.399 2.104,0.435c6.167,0.363 12.334,-0.145 18.5,-0.399c5.696,-0.218 11.391,-0.798 17.05,-1.233c2.43,-0.109 4.425,-1.597 6.493,-2.685c4.861,-2.612 9.431,-5.622 14.147,-8.379Zm-68.015,2.466c-0.363,-1.015 -0.472,-2.104 -0.907,-3.083c-0.508,-0.725 -1.342,-1.088 -2.068,-1.487c-2.648,-1.342 -5.26,-2.83 -8.125,-3.555c-0.689,-0.181 -1.379,-0.363 -1.995,-0.726c0.181,0.073 0.471,0.182 0.653,0.254c4.099,0.436 7.944,2.104 11.462,4.208c1.089,0.581 1.343,1.923 1.596,3.047c0.218,2.032 1.052,3.99 2.25,5.623c-1.052,0.544 -2.032,1.269 -3.12,1.741c0.471,-0.762 1.088,-1.378 1.669,-2.031c-0.399,-1.415 -0.944,-2.685 -1.415,-3.991Zm-0.399,3.664c-4.861,-1.451 -10.121,-1.378 -14.982,-0.109c1.887,-1.052 4.063,-1.414 6.203,-1.777c1.959,-0.181 4.063,-0.544 5.949,0.29c0.98,0.435 2.104,0.762 2.83,1.596Zm32.03,-8.851c5.514,1.197 10.847,3.083 16.179,4.825c-0.689,0.362 -1.415,0.943 -2.213,0.616c-4.353,-1.16 -8.633,-2.72 -13.059,-3.772c-9.504,-2.177 -19.044,-4.172 -28.729,-5.369c-2.032,-0.435 -4.099,-0.29 -6.131,-0.653c13.059,0.435 26.118,0.327 39.177,0.98c3.845,0.181 7.726,0.145 11.572,0.725c0.834,0.073 1.705,0.036 2.539,0.073c-7.763,0.544 -15.489,1.233 -23.216,1.922c1.27,0.435 2.575,0.363 3.881,0.653Zm10.593,8.235c-1.451,0.943 -2.431,2.394 -3.519,3.7c-4.825,-0 -9.649,-0.073 -14.474,-0c5.877,-1.742 11.935,-2.757 17.993,-3.7Zm-20.641,-6.349c-8.597,-1.233 -17.158,-2.648 -25.646,-4.461c8.633,1.015 17.158,2.611 25.646,4.461Zm-12.115,2.685c-1.016,0.653 -1.742,1.596 -2.467,2.503c-1.995,-1.959 -3.664,-4.244 -6.022,-5.804c2.648,0.725 4.97,2.321 7.654,2.902c0.29,0.109 0.581,0.254 0.835,0.399Zm-7.8,-0.109c2.358,2.14 3.737,5.55 6.893,6.674c2.611,1.089 5.405,0.146 8.016,-0.326c3.845,-0.725 7.727,-0.834 11.645,-1.016c-3.592,0.907 -7.328,1.234 -10.955,2.141c-2.576,0.616 -5.297,1.523 -7.908,0.652c-2.358,-0.507 -4.063,-2.357 -5.26,-4.316c-0.726,-1.306 -1.741,-2.467 -2.431,-3.809Zm59.527,-16.179c0.218,1.052 0.037,2.104 0,3.193c0.109,0.689 0.871,0.87 1.415,1.052c1.233,0.471 2.576,0.652 3.773,1.269c0.072,0.109 0.217,0.363 0.254,0.508c-1.379,0 -2.721,-0.399 -4.063,-0.762c-3.047,-0.834 -6.167,-1.523 -9.069,-2.757c1.814,0.327 3.591,1.016 5.478,0.98c1.088,-0.907 0.979,-2.721 2.212,-3.483Zm-8.415,-1.305c1.523,-0.871 2.902,-2.141 3.192,-3.991c0.29,1.27 0.725,2.467 1.124,3.737c0.399,1.124 0.762,2.249 1.161,3.373c-2.104,-0.979 -4.643,-0.979 -6.493,-2.43c0.326,-0.254 0.653,-0.472 1.016,-0.689Zm-3.664,2.067c1.233,0.363 2.575,0.508 3.736,1.088c-0.725,0.146 -1.415,0.254 -2.14,0.399c0.218,0.545 0.326,1.234 0.943,1.415c1.886,0.798 3.918,1.161 5.84,1.886c-0.471,0.399 -0.87,0.907 -1.414,1.161c-3.918,-1.015 -7.945,-1.414 -11.935,-1.922c-4.607,-0.508 -9.214,-1.016 -13.821,-1.343c-2.43,-0.181 -4.86,-0.108 -7.291,0.291c2.249,-1.016 4.716,-1.379 7.11,-1.923c4.281,-0.762 8.561,-1.415 12.841,-1.922c2.104,-0.218 4.136,0.471 6.131,0.87Zm-4.643,-8.343c-1.197,1.342 -2.866,2.176 -4.317,3.228c-1.886,1.197 -3.664,2.576 -5.586,3.7c-2.612,0.726 -5.296,1.016 -7.945,1.597c2.503,-1.633 5.297,-2.721 7.981,-4.063c3.192,-1.669 6.602,-2.902 9.867,-4.462Zm-27.569,-12.297c4.099,0.145 7.618,2.503 11.1,4.353c4.208,2.43 8.561,4.643 12.551,7.472c-5.151,0.109 -10.411,0.218 -15.308,1.923c-2.467,0.725 -4.498,2.394 -6.13,4.317c-3.846,-2.177 -8.344,-1.016 -12.515,-1.089c0.109,-3.409 -0.871,-6.964 -3.374,-9.431c0.907,0.363 1.705,0.907 2.576,1.342c-0.653,-0.979 -1.596,-1.705 -2.14,-2.72c-0.291,-0.726 -0.436,-1.524 -0.581,-2.286c3.483,2.249 7.219,4.136 10.919,5.986c1.56,0.761 3.083,1.704 4.752,2.249c-5.333,-3.954 -11.028,-7.582 -16.759,-11.028c4.933,-0.653 9.903,-1.233 14.909,-1.088Zm-44.908,-7.908c5.078,0.218 10.193,0.508 15.126,1.596c-4.969,-0.036 -9.939,0.326 -14.909,0.544c-0.072,-0.689 -0.145,-1.415 -0.217,-2.14Zm3.555,10.447c1.233,0.435 2.104,1.451 3.192,2.14c1.378,-0.217 2.612,-0.87 3.845,-1.378c3.845,-1.633 7.908,-2.648 12.007,-3.555c2.575,-0.544 5.151,-1.052 7.763,-1.197c-3.193,0.363 -6.312,1.197 -9.395,2.031c-4.426,1.27 -8.852,2.612 -12.951,4.788c-0.653,0.363 -1.414,0.907 -1.378,1.742c0.181,1.632 0.798,3.192 1.197,4.788c1.451,4.861 2.829,9.722 4.825,14.401c1.451,-0.508 2.902,-1.016 4.316,-1.524c4.462,-1.378 9.142,-1.596 13.748,-1.958c4.607,-0.327 9.214,-0.472 13.821,-0.762c1.197,-0.109 2.539,-0.073 3.482,-0.907c1.125,-1.052 1.887,-2.467 3.011,-3.555c-0.362,1.415 -1.306,2.539 -2.067,3.736c-0.762,1.306 -2.358,1.669 -3.773,1.742c-7.872,0.616 -15.779,0.798 -23.542,2.031c-2.757,0.472 -5.514,1.088 -8.126,2.14c-0.435,0.073 -1.233,0.617 -1.415,-0.036c-2.43,-5.877 -4.062,-12.043 -5.803,-18.137c-0.436,-1.234 -0.254,-2.54 -0.617,-3.773c-1.415,-2.249 -4.027,-3.41 -6.53,-4.027c-0.58,0.218 -1.124,-0.072 -1.668,-0.217c2.104,-0 4.135,0.762 6.058,1.487Zm22.381,18.682c-0.87,0.108 -1.741,0.253 -2.648,0.362c-1.342,-2.14 -3.627,-3.41 -5.695,-4.788c1.306,1.814 3.011,3.265 4.353,5.006l-0,0.254c-1.778,0.254 -3.446,0.943 -5.224,1.306c-2.575,-5.695 -5.296,-11.39 -7.472,-17.267c4.788,-1.632 9.758,-2.648 14.727,-3.736c0,2.539 0.98,4.969 2.358,7.037c-2.757,1.342 -3.555,4.643 -3.555,7.436c0.145,1.995 1.633,3.483 3.156,4.39Zm-23.977,-17.267c1.886,1.306 2.648,3.591 3.409,5.659c1.197,3.736 2.394,7.472 3.555,11.245c-1.306,-3.374 -2.503,-6.82 -3.954,-10.121c-1.487,-3.119 -3.373,-6.312 -6.529,-7.98c-1.741,-1.052 -3.809,-1.052 -5.768,-1.306c3.265,-0.109 6.602,0.689 9.287,2.503Zm4.897,27.17c-4.498,-0.545 -8.888,-2.032 -13.422,-2.322c-1.814,0.145 -3.628,1.016 -5.441,0.435c-1.306,-0.326 -2.177,-1.414 -3.338,-2.031c-1.704,-0.435 -3.446,-0.689 -5.151,-1.125c0.327,-6.602 0.871,-13.167 1.343,-19.769c0.181,-0.835 -0,-1.887 0.544,-2.54c4.861,-0.181 9.794,-0.108 14.582,0.907c1.342,0.29 2.612,1.052 3.337,2.213c1.669,2.503 2.576,5.405 3.41,8.234c1.488,4.607 2.612,9.323 3.809,14.039c0.182,0.653 0.254,1.306 0.327,1.959Zm-18.174,-29.274c2.322,0.109 4.679,0.544 6.928,1.197c-4.425,-0.798 -8.923,-0.544 -13.421,-0.689c-5.333,0.181 -10.665,0.072 -15.961,0.653c7.436,-1.052 14.981,-1.488 22.454,-1.161Zm-13.023,-2.576c-2.321,0.218 -4.643,0.182 -6.928,0.037c2.321,-0.182 4.643,-0.218 6.928,-0.037Zm-12.333,1.596c4.135,-1.233 8.452,-0.653 12.66,-0.471c-5.369,0.399 -10.774,1.016 -16.034,2.176c1.125,-0.653 2.177,-1.342 3.374,-1.705Zm-4.027,5.877c0.218,-1.016 1.379,-0.979 2.177,-1.197c6.275,-1.125 12.624,-1.923 18.972,-1.814c-1.052,7.364 -2.612,14.728 -2.54,22.237c-7.109,-1.488 -14.256,-2.866 -21.402,-4.245c0.508,-5.078 0.98,-10.193 2.793,-14.981Zm1.415,40.99c0.581,0.653 1.125,1.306 1.56,2.068c-0.218,0.109 -0.653,0.363 -0.834,0.472c0.254,0.834 0.181,2.067 1.16,2.43c1.016,0.435 2.141,0.58 3.229,0.871c-1.27,0.254 -2.503,0.399 -3.736,0.653c-0.109,0.725 -0.218,1.451 -0.327,2.14c-0.762,-3.265 -1.705,-6.566 -3.41,-9.504c-1.777,-3.446 -4.099,-6.53 -6.239,-9.722c3.083,3.337 5.695,7.074 8.597,10.592Zm-14.147,-27.351c1.814,0.436 3.627,0.907 5.405,1.415c-2.721,-0.472 -5.514,-0.29 -8.271,-0.363c0.69,-0.834 1.778,-1.415 2.866,-1.052Zm12.152,38.742c0.145,2.176 -1.124,4.208 -2.974,5.296c1.015,-1.27 1.995,-2.685 2.176,-4.353c0.435,-3.7 -0.544,-7.437 -2.249,-10.665c0.544,2.648 0.907,5.478 0.145,8.126c-0.472,1.813 -1.27,3.808 -2.974,4.788c-1.669,0.907 -3.773,0.29 -5.115,-0.943c-3.446,-3.229 -5.224,-8.198 -4.426,-12.878c0.254,-2.176 1.125,-4.679 3.301,-5.55c1.306,-0.58 2.793,0.036 3.7,1.088c-1.052,-0.471 -2.249,-0.943 -3.41,-0.471c-1.523,0.471 -2.357,1.995 -2.72,3.446c-1.088,4.135 -0.435,8.815 2.213,12.261c0.979,1.414 2.466,2.72 4.28,2.72c1.995,0.145 3.519,-1.596 4.099,-3.301c1.125,-3.119 0.871,-6.565 0.254,-9.758c0.181,-0.036 0.508,-0.108 0.689,-0.145l-0.616,-0.036c-1.016,-3.228 -2.975,-6.312 -5.841,-8.198c-1.414,-0.907 -3.047,-1.705 -4.788,-1.487c-1.052,0.036 -1.995,0.798 -2.285,1.777c-0.726,2.14 -0.472,4.426 -0.689,6.638c-0.617,-1.995 -0.69,-4.171 -0.436,-6.239c0.218,-1.378 0.943,-2.902 2.394,-3.265c2.939,-0.652 5.877,0.871 7.981,2.83c3.301,3.265 5.368,7.618 6.711,12.043c0.544,1.741 0.907,3.555 0.979,5.369c8.851,2.539 17.92,4.462 26.735,7.255c-9.105,-2.177 -18.138,-4.172 -27.134,-6.348Zm-7.763,-8.38c0.073,0.182 0.218,0.508 0.29,0.689c-0.036,-0.29 -0.145,-0.906 -0.181,-1.197c0.327,0.182 0.979,0.544 1.306,0.726c-0.399,0.544 -0.834,1.052 -1.088,1.668c0.508,0.363 1.052,0.762 1.56,1.125c-0.363,0.363 -0.799,0.544 -1.27,0.689c-0,-0.072 -0.036,-0.181 -0.073,-0.254l0.69,-0.036c-0.363,-0.363 -0.762,-0.725 -1.197,-1.052c-0.545,0.29 -0.98,0.762 -1.306,1.306c-0.145,-0.109 -0.436,-0.399 -0.581,-0.508c0.399,0.871 0.871,1.669 1.342,2.539c-0.181,0.327 -0.399,0.69 -0.58,1.052c-0.363,-1.269 -0.725,-3.119 -2.394,-3.083c0.326,0.399 0.689,0.762 1.052,1.124c-0.29,-0.108 -0.834,-0.362 -1.125,-0.471c-0.036,0.508 -0.217,0.979 -0.58,1.378c0.145,0.363 0.29,0.726 0.435,1.052c-0.762,-0.544 -0.834,-1.523 -0.907,-2.394c0.109,0.145 0.363,0.399 0.508,0.544c0.581,-0.943 0.363,-1.995 0.109,-3.011c-0.725,-0.471 -1.125,0.363 -1.56,0.799c0.036,-0.835 0.073,-1.669 0.073,-2.503c0.362,-0.363 0.725,-0.69 1.088,-1.016c-0.036,0.58 -0.073,1.197 -0.145,1.777c1.197,-0.181 0.653,-1.886 0.508,-2.72c-0.436,0.072 -0.798,-0 -1.125,-0.254c0.218,-0 0.689,-0.036 0.943,-0.036c0.581,-0.327 -0.108,-0.944 -0.362,-1.234c0.108,-0.399 0.181,-0.798 0.326,-1.197c0.834,1.016 0.073,2.612 1.233,3.446c-0.036,-0.471 -0.108,-1.414 -0.145,-1.886c0.472,0.399 0.907,0.834 1.343,1.342c0.29,-0.508 0.58,-1.016 0.906,-1.487c0,-0.254 0.037,-0.798 0.073,-1.052c0.109,0.036 0.326,0.145 0.435,0.181c-0.181,0.907 -0.544,1.778 -0.616,2.685c-0.109,0.689 0.58,0.943 1.015,1.269Zm-1.959,-3.555c0.508,-0.036 0.363,0.907 0.073,1.125c-0.617,0.072 -0.363,-0.871 -0.073,-1.125Zm38.633,1.923c-5.804,-3.809 -11.572,-7.727 -17.303,-11.644c-3.7,-1.742 -8.017,-2.141 -11.463,-4.535c-0.58,-0.435 -1.016,-1.052 -1.451,-1.632c0.327,-0.29 0.653,-0.834 1.161,-0.58c3.337,0.435 6.457,1.813 9.54,3.047c1.161,0.362 1.415,1.741 2.358,2.394c5.659,3.772 11.318,7.581 17.013,11.281c1.705,0.943 3.12,2.286 4.788,3.265c-0.29,-0.58 -0.616,-1.125 -0.979,-1.632c-3.555,-4.68 -7.364,-9.25 -11.971,-12.951c1.923,1.089 3.519,2.649 5.224,4.063c5.405,4.861 10.12,10.411 14.8,15.997c0.254,0.327 0.508,0.69 0.725,1.052c-4.171,-2.611 -8.343,-5.296 -12.442,-8.125Zm49.551,23.977c-0.362,2.939 -1.197,6.022 -3.301,8.235c-1.197,1.306 -2.829,2.176 -4.57,2.612c2.321,-1.524 4.244,-3.664 5.405,-6.167c1.052,-2.177 1.596,-4.571 2.031,-6.929c0.798,0.472 0.399,1.488 0.435,2.249Zm32.067,3.265c-1.197,0.726 -2.321,1.633 -3.664,2.032c-0.471,-0.617 -0.834,-1.669 -1.741,-1.669c-1.052,0.363 -1.922,1.088 -2.902,1.523c-0.87,0.037 -1.813,-0.362 -2.612,0.146c-2.067,1.16 -4.026,2.539 -6.348,3.192c-2.865,0.762 -5.804,1.378 -8.778,1.306c-1.778,-3.882 -4.172,-7.437 -5.695,-11.427c-2.539,-3.99 -5.623,-7.618 -8.996,-10.955c-1.669,-1.487 -3.41,-3.228 -5.695,-3.555c-2.358,-0.471 -4.861,0.689 -6.131,2.685c-2.321,3.337 -2.721,7.762 -1.741,11.644c0.762,2.72 2.068,5.405 4.389,7.11c1.487,1.16 3.483,1.559 5.296,1.16c2.068,-0.507 3.628,-2.212 4.643,-3.99c1.923,-3.519 2.068,-7.763 1.161,-11.608c1.379,1.633 1.27,3.882 1.197,5.877c-0.217,3.446 -1.523,7.11 -4.28,9.322c-2.14,1.742 -5.333,1.742 -7.654,0.363c-2.394,-1.378 -3.99,-3.809 -4.933,-6.348c-1.379,-3.99 -1.415,-8.561 0.362,-12.442c0.943,-1.995 2.576,-3.809 4.789,-4.353c1.197,-0.436 2.466,-0.218 3.7,-0.036c-1.451,-1.161 -3.156,-1.959 -4.825,-2.721c-1.378,-0.544 -3.047,-1.125 -4.389,-0.181c-2.032,1.596 -2.793,4.244 -3.337,6.638c-0.762,3.954 -0.944,8.053 -0.291,12.007c-1.56,-0.073 -3.446,0.072 -4.57,-1.27c-1.125,-1.161 -1.306,-2.866 -1.016,-4.389c0.508,1.27 0.617,2.829 1.777,3.7c0.726,0.399 1.597,0.326 2.395,0.399c-0.182,-4.534 -0.109,-9.214 1.342,-13.567c0.725,-2.067 1.85,-4.425 4.099,-5.151c2.684,-0.544 5.26,0.943 7.472,2.249c5.623,3.7 10.339,8.597 14.365,13.93c1.959,2.466 2.793,5.586 4.389,8.27c1.161,1.923 2.141,3.954 3.12,5.986c1.959,0.072 3.881,-0.327 5.804,-0.653c2.612,-0.472 5.224,-1.27 7.291,-2.975c0.617,-0.544 1.379,-0.762 2.177,-0.907c1.56,-0.181 2.793,-1.342 4.316,-1.668c1.198,0.145 2.177,1.705 3.41,0.834c2.757,-1.596 5.441,-3.301 8.235,-4.825c-1.887,1.669 -4.063,2.939 -6.131,4.317Zm-43.53,-3.845c-0.761,-0.326 -1.124,-1.088 -1.668,-1.669c-0.435,0.472 -1.016,0.907 -1.088,1.56c0.108,0.798 0.362,1.524 0.471,2.322c-0.834,-0.581 -0.834,-1.85 -1.777,-2.358c0.254,-0.145 0.761,-0.472 1.015,-0.653c0,-0.218 0,-0.617 0.037,-0.834c0.616,-0.544 1.378,-1.052 1.596,-1.923c-0.109,-0.58 -0.363,-1.088 -0.726,-1.56c0.29,0.182 0.617,0.327 0.907,0.508c-0.217,-1.632 -1.523,-2.757 -2.902,-3.446c-0.435,0.58 -0.87,1.197 -1.378,1.741c0.072,0.218 0.145,0.436 0.036,0.653c-0.181,0.327 -0.254,1.197 -0.798,0.871c-0.036,-0.036 -0.145,-0.145 -0.218,-0.182c0.109,0.399 0.291,0.835 0.436,1.234c-0.145,0.508 -0.291,1.015 -0.472,1.523c-0.798,0.399 -1.306,1.089 -1.85,1.741c-0.254,-1.632 1.814,-2.357 1.487,-4.099c-0.58,-0.507 -1.197,-1.015 -1.741,-1.523c0.798,-0.073 1.56,0.072 2.322,0.29c-0.037,-0.653 -0.073,-1.306 -0.109,-1.959c-0.218,0.037 -0.617,0.073 -0.834,0.073c-0,-0.073 0.036,-0.182 0.036,-0.254c0.181,0.036 0.616,0.145 0.798,0.181c-0.036,-1.088 -0.29,-2.176 -0.073,-3.264c0.399,1.197 1.234,2.43 0.762,3.7c-0.145,0.362 0.036,0.653 0.181,0.979c-0.072,-1.125 0.799,-1.886 1.234,-2.829c0.254,-0.472 0.29,-1.161 0.907,-1.198c0.072,0.835 -0.544,1.887 0.399,2.395c0.907,-0.798 1.342,-1.995 2.176,-2.866l0,1.342c0.218,0.363 0.254,0.798 0.327,1.233c-0.218,-0.326 -0.436,-0.653 -0.617,-0.943c-0.109,1.016 -1.306,1.85 -0.363,2.866c0.182,-0.29 0.327,-0.58 0.508,-0.871c0.036,0.399 -0.036,0.726 -0.218,1.052c0.109,0.291 0.291,0.871 0.399,1.161c0.762,-0.036 1.306,-0.508 1.379,-1.269c0.653,0.507 0.87,1.305 1.016,2.103c-0.762,-0.217 -1.56,-0.217 -2.322,0.037c-0.181,0.471 -0.363,0.979 -0.58,1.451c0.544,0.907 1.015,1.741 1.305,2.684Zm-5.151,-1.705c-0.544,-0.689 -0.725,-1.56 -0.906,-2.394l0.435,0c0.399,1.161 1.342,2.031 2.467,2.467c-0.037,0.181 -0.146,0.58 -0.218,0.761c-0.181,-0.072 -0.544,-0.253 -0.726,-0.326c0,1.088 -0.181,2.176 -0.399,3.228c-0.108,0 -0.362,-0.036 -0.507,-0.036c0.108,-1.197 0.108,-2.43 0.435,-3.591l-0.581,-0.109Zm2.467,-3.337c-0.072,0.508 -0.254,0.979 -0.399,1.487c-0.508,-0.435 -0.653,-2.14 0.399,-1.487Zm47.339,-4.607c-0.871,0.326 -1.995,0.29 -2.576,1.088c3.737,0.871 7.473,-0.725 10.955,-1.959c-1.959,1.669 -4.534,2.286 -7.001,2.866c-1.777,0.363 -3.99,0.58 -5.296,-0.943c-0.871,-1.378 -1.451,-2.938 -1.85,-4.534c0.907,1.052 1.632,2.285 2.467,3.409c9.903,-2.503 19.769,-5.042 29.709,-7.363c-8.779,2.575 -17.557,5.114 -26.408,7.436Zm33.227,-1.705c-0.435,1.342 -1.269,2.539 -2.031,3.736c-1.27,1.923 -2.358,4.136 -4.389,5.405c-2.576,1.705 -4.897,3.809 -7.69,5.224c-0.472,0.326 -0.871,-0 -1.161,-0.363c2.067,-0.762 3.555,-2.43 5.223,-3.772c1.052,-0.871 2.14,-1.705 2.975,-2.83c0.979,-1.233 1.487,-2.829 2.866,-3.7c1.886,-1.197 2.901,-3.301 3.772,-5.26c0.399,0.399 0.653,0.98 0.435,1.56Zm10.992,12.406c-0.254,-1.124 -0.436,-2.285 -0.617,-3.41c0.617,0.581 1.161,1.197 1.596,1.923c-0.617,0.217 -0.725,0.907 -0.979,1.487Zm47.919,3.7c0.653,0.145 1.451,0.036 1.777,0.762c-0.617,-0.145 -1.741,0.145 -1.777,-0.762Zm20.858,-3.192c-2.068,2.503 -5.26,4.208 -8.561,3.881c-4.535,-0.072 -8.452,-4.28 -8.452,-8.778c0.653,2.14 1.632,4.28 3.301,5.804c2.031,2.067 5.187,2.612 7.98,2.031c3.229,-0.943 5.877,-3.519 7.11,-6.638c2.031,-4.97 0.798,-10.991 -2.684,-15.018c5.223,4.607 5.622,13.349 1.306,18.718Zm-5.115,-10.338c-0.98,-2.068 -1.705,-4.281 -1.959,-6.53c2.721,-0.218 4.135,2.721 4.861,4.897c-1.197,0.073 -1.995,1.016 -2.902,1.633Zm3.736,0.362c-0.181,2.939 -0.762,6.276 -3.373,8.053c-0.653,0.581 -1.161,-0.362 -1.343,-0.907c-0.507,-1.124 0.291,-2.212 0.69,-3.228c0.326,-0.617 0.471,-1.487 1.233,-1.741c1.088,-0.508 2.068,-1.234 2.793,-2.177Zm7.908,3.954c-0.326,3.446 -1.378,7.473 -4.861,9.033c2.902,-3.084 4.099,-7.437 4.027,-11.572c-0,-3.12 -1.161,-6.094 -2.648,-8.778c2.575,3.119 3.663,7.327 3.482,11.317Zm50.241,-7.11c-10.702,2.395 -21.366,5.079 -32.031,7.727c-2.902,0.689 -5.877,1.306 -8.416,2.902c-2.72,1.777 -6.094,1.995 -8.96,3.482c0.544,-1.088 1.016,-2.176 1.27,-3.373c3.7,-0.798 7.327,-1.959 11.027,-2.83c12.479,-3.01 24.812,-6.457 37.146,-9.975c-0,0.653 -0,1.342 -0.036,2.067Zm4.207,-16.577c-2.829,3.772 -3.337,8.597 -3.954,13.131c-12.877,3.555 -25.755,7.292 -38.705,10.484c-3.083,0.907 -6.275,1.487 -9.286,2.611c0.762,-5.078 0.254,-10.483 -2.213,-15.017c-1.56,-3.047 -4.28,-5.659 -7.617,-6.602c-3.809,-1.125 -8.09,0.109 -10.955,2.793c-2.612,2.358 -4.136,5.659 -4.97,9.032c-1.052,4.063 -1.161,8.38 -2.684,12.334c-0.399,0.87 -0.762,1.886 -1.633,2.394c-1.995,0.58 -4.316,-0.327 -6.13,0.907c0.435,0.362 0.87,0.725 1.306,1.052c-1.633,-0.109 -3.338,-0.073 -4.897,-0.617c-1.016,-0.326 -1.742,-1.342 -2.83,-1.342c-4.716,-0.036 -9.431,-0.182 -14.147,-0.182c-5.768,0.073 -11.499,-0.616 -17.085,-2.067c1.995,-1.27 4.389,-0.182 6.565,-0.182c2.249,0.037 4.643,0.944 6.784,-0.036c2.575,-1.415 2.938,-4.752 4.969,-6.711c1.234,-0.616 2.685,-0.399 3.991,-0.653c-0.436,1.379 -1.234,2.721 -1.306,4.208c0.217,0.835 0.907,1.669 1.813,1.741c1.959,0.146 3.918,-0.217 5.877,-0.435c2.793,-0.363 5.659,-0.617 8.343,-1.56c2.684,-0.943 3.845,-3.845 4.643,-6.348c1.234,-0.181 2.503,-0.254 3.737,-0.399l0.253,-0.58c-5.441,0.29 -10.846,1.052 -16.287,1.451c-10.483,0.87 -21.112,2.467 -31.559,0.617c-3.772,-0.799 -7.618,-1.85 -10.846,-3.991c-0.254,-0.29 -0.943,-0.471 -0.726,-0.979c0.762,-0.98 1.633,-1.814 2.322,-2.83c-0.435,-0.29 -1.233,-0.253 -1.451,-0.834c-0.617,-1.596 -0.798,-3.301 -0.762,-5.006l0.436,0c0.072,1.306 0.072,2.612 0.253,3.918c1.524,-0 3.12,-0.218 4.607,0.399c2.83,1.052 5.768,1.777 8.743,2.14c1.233,0.109 2.43,-0.145 3.591,-0.363c4.824,-0.979 9.613,-1.958 14.473,-2.757c6.893,-0.906 13.785,-1.523 20.677,-2.212c1.524,-0.109 2.866,-0.98 4.135,-1.814c2.83,-1.995 5.55,-4.063 8.235,-6.203c1.632,-1.197 2.829,-2.866 3.881,-4.571c-0.58,-0.254 -1.124,-0.471 -1.669,-0.725c0.944,-0.544 1.742,-1.27 2.431,-2.104c1.161,-1.415 3.156,-1.596 4.788,-2.104c4.643,-1.161 9.178,-2.902 13.893,-3.773c0.291,1.016 0.545,2.068 0.726,3.12c-1.995,0.617 -4.027,1.125 -5.877,2.031c2.068,0.218 4.063,-0.544 6.131,-0.725c0.254,2.213 0.471,4.425 0.145,6.638c-1.125,8.126 1.016,16.179 1.777,24.232c-0.725,0.217 -1.414,0.399 -2.14,0.544c-0.036,0.29 -0.109,0.943 -0.145,1.233c14.147,-3.99 28.331,-7.908 42.514,-11.97c0.653,-0.291 1.596,-0.254 1.886,-1.016c-3.7,0.544 -7.291,1.669 -10.955,2.575c-6.311,1.633 -12.587,3.338 -18.862,5.079c-3.664,1.052 -7.292,2.14 -10.992,2.938c-0.326,-3.301 -0.979,-6.602 -1.487,-9.867c1.233,-0.181 2.684,-0.725 3.809,-0.362c0.072,0.507 -0.363,0.725 -0.726,0.979c0.327,-0.181 0.653,-0.399 1.016,-0.544c0.073,-0.109 0.254,-0.363 0.327,-0.472c0.87,-0.544 1.958,-0.507 2.902,-0.761c8.306,-1.27 16.541,-2.866 24.703,-4.825c3.627,-0.617 7.109,-1.777 10.519,-3.083c-0.87,0.036 -1.741,0.254 -2.575,0.508c-1.814,0.471 -3.664,0.689 -5.478,1.124c-0.145,-0.218 -0.29,-0.399 -0.399,-0.617c1.016,-2.104 1.234,-4.461 1.596,-6.747c0.544,-4.715 0.69,-9.613 -0.725,-14.183c6.348,-1.052 12.696,-2.285 19.08,-3.337c1.234,5.731 0.726,11.68 0.073,17.411c-2.467,0.254 -4.534,1.923 -5.877,3.882Zm4.099,14.546c1.524,-0.689 2.939,-1.596 4.39,-2.394c-0.617,1.814 -2.793,2.068 -4.39,2.394Z" style="fill:#231f20;fill-rule:nonzero;"/>
    <path d="M206.066,187.369c-0.182,0.762 -0.363,1.524 -0.508,2.286c0.617,0.036 1.233,0.108 1.85,0.108c-0,-0.979 -0.435,-1.922 -1.342,-2.394Z" style="fill:#231f20;fill-rule:nonzero;"/>
    <path d="M195.401,204.237c0.363,1.632 1.777,3.047 3.446,3.265c0.218,-1.379 0.762,-2.612 1.487,-3.809c0.617,-1.052 -0.616,-2.104 -0.254,-3.156c0.69,-3.192 1.415,-6.421 2.032,-9.649c-1.995,1.27 -4.027,2.539 -5.949,3.918c-1.052,0.761 -2.576,1.668 -2.213,3.192c0.327,2.104 0.871,4.171 1.451,6.239Z" style="fill:#231f20;fill-rule:nonzero;"/>
    <path d="M190.359,198.469c0.725,-0.399 1.378,-0.907 2.031,-1.414c-1.197,-0.69 -1.523,-1.959 -1.378,-3.229c-0.835,0.653 -1.669,1.342 -2.721,1.633c0.617,1.051 1.016,2.321 2.068,3.01Z" style="fill:#231f20;fill-rule:nonzero;"/>
    <path d="M229.572,201.843c0.544,-2.394 0.399,-4.897 0.29,-7.328c-0.689,0.835 -1.052,2.068 -2.14,2.467c-0.653,0.29 -1.379,0.109 -2.068,0.109c0.834,1.886 1.959,3.845 3.918,4.752Z" style="fill:#231f20;fill-rule:nonzero;"/>
    <path d="M220.503,224.95c2.612,-0.871 5.296,-1.487 7.944,-2.322c-0.87,-1.378 -2.684,-1.269 -4.099,-1.668c5.151,-7.981 11.572,-15.054 18.174,-21.838c-2.031,1.56 -3.809,3.41 -5.731,5.115c-5.188,4.861 -10.52,9.54 -15.998,14.038c-0.979,0.835 -2.14,1.56 -2.865,2.685c-0.436,1.233 -0.073,2.648 0.471,3.809c0.472,0.798 1.415,0.29 2.104,0.181Z" style="fill:#231f20;fill-rule:nonzero;"/>
    <path d="M183.684,208.118c0.109,-0.834 0.109,-1.668 0,-2.503c-0.834,0.581 -1.233,2.104 0,2.503Z" style="fill:#231f20;fill-rule:nonzero;"/>
    <path d="M188.944,207.574c1.052,0.182 2.14,0.254 3.229,0.182c-0.218,-0.726 -0.653,-1.342 -1.27,-1.778c-0.726,0.508 -1.378,1.016 -1.959,1.596Z" style="fill:#231f20;fill-rule:nonzero;"/>
    <path d="M221.773,208.88c-0.798,0.689 -1.487,1.487 -2.177,2.285c1.306,0.835 2.177,-1.197 2.177,-2.285Z" style="fill:#231f20;fill-rule:nonzero;"/>
    <path d="M211.543,210.694c-2.212,-0.508 -4.462,-0.798 -6.747,-1.016c0.036,1.342 0.363,2.612 0.653,3.918c2.104,-0.726 4.353,-1.415 6.094,-2.902Z" style="fill:#231f20;fill-rule:nonzero;"/>
    <path d="M187.094,212.943c-0.181,0.399 -0.363,0.798 -0.508,1.197c0.544,-0.109 1.089,-0.218 1.596,-0.326c-0.326,-0.327 -0.689,-0.617 -1.088,-0.871Z" style="fill:#231f20;fill-rule:nonzero;"/>
    <path d="M64.776,215.772c-0.363,0.327 -0.363,0.871 -0.544,1.306c-1.234,4.317 -1.85,8.779 -2.25,13.241c6.566,1.015 13.132,2.14 19.661,3.337c0.363,-6.784 1.379,-13.531 2.503,-20.241c-6.529,0.145 -13.059,0.761 -19.37,2.357Z" style="fill:#231f20;fill-rule:nonzero;"/>
    <path d="M101.123,215.265c-3.555,-0.944 -7.255,-1.198 -10.919,-1.198c1.27,3.592 1.741,7.401 2.431,11.137c-0.617,-0.943 -0.617,-2.14 -0.98,-3.156c-0.762,-2.612 -1.306,-5.26 -2.394,-7.763c-0.87,-0.326 -1.886,-0.218 -2.829,-0.399c-0.399,2.83 -0.544,5.732 -0.798,8.597c-0.291,3.918 -0.726,7.872 -0.544,11.826c1.342,0.217 2.648,0.508 3.953,0.943c-0.725,-1.632 -0.798,-4.244 1.198,-4.933c3.083,-1.27 7.001,-2.721 10.011,-0.545c2.975,1.778 3.519,5.442 4.752,8.38c1.85,0.471 3.737,0.798 5.587,1.197c-1.56,-6.276 -2.902,-12.66 -5.115,-18.754c-0.871,-2.14 -1.923,-4.68 -4.353,-5.332Z" style="fill:#231f20;fill-rule:nonzero;"/>
    <path d="M207.698,222.084c0.834,1.379 2.032,2.467 2.866,3.773c2.467,-0.617 3.736,-3.047 5.622,-4.607c-1.451,-2.503 -2.974,-5.042 -5.114,-7.001c-1.125,2.648 -2.286,5.223 -3.374,7.835Z" style="fill:#231f20;fill-rule:nonzero;"/>
    <path d="M196.779,222.302c-0.652,1.233 -1.523,2.394 -1.886,3.772c0.327,0.944 1.524,1.234 2.322,1.669c0.616,0.399 1.052,-0.29 1.451,-0.689c0.907,-1.088 2.176,-1.778 3.047,-2.866c0.471,-1.415 0.725,-2.938 0.725,-4.425c-1.451,0.217 -2.865,0.616 -4.244,1.015c-0.762,0.145 -1.016,0.943 -1.415,1.524Z" style="fill:#231f20;fill-rule:nonzero;"/>
    <path d="M227.504,223.717c-2.358,0.544 -4.752,1.088 -7.073,1.886c-0.508,0.217 -1.234,0.435 -1.306,1.088c-0.182,1.125 -0.145,2.249 -0.182,3.374c1.887,0.108 2.721,-1.85 3.047,-3.41c2.902,-0.689 5.732,-1.741 8.706,-2.032c-0.326,-1.487 -2.067,-1.124 -3.192,-0.906Z" style="fill:#231f20;fill-rule:nonzero;"/>
    <path d="M201.64,226.002c-0.399,1.306 -0.145,2.72 0.327,3.954c0.58,1.451 1.161,3.011 2.43,4.026c0.798,-1.306 1.306,-2.793 1.342,-4.353c-0.036,-1.705 -1.414,-3.083 -2.865,-3.809c-0.399,-0.29 -0.944,-0.217 -1.234,0.182Z" style="fill:#231f20;fill-rule:nonzero;"/>
    <path d="M99.672,230.681c-2.285,-1.523 -5.187,-0.87 -7.581,-0.036c-1.052,0.363 -2.503,0.907 -2.503,2.249c0.181,2.104 1.777,4.172 3.917,4.534c1.959,0.399 3.882,-0.761 5.84,-0.435c1.488,0.218 2.939,0.544 4.39,0.834c-0.943,-2.575 -1.633,-5.586 -4.063,-7.146Z" style="fill:#231f20;fill-rule:nonzero;"/>
    <path d="M220.757,237.9c1.995,-1.923 4.462,-3.228 6.602,-4.933c-2.285,0.29 -4.425,1.306 -6.167,2.757c-1.813,1.523 -3.555,3.482 -3.954,5.912c1.27,-1.124 2.213,-2.611 3.519,-3.736Z" style="fill:#231f20;fill-rule:nonzero;"/>
    <path d="M220.14,239.677c0.69,-0.29 1.415,-0.58 2.141,-0.761c6.457,-1.596 13.095,-2.177 19.588,-3.41c-5.985,0.544 -11.971,0.907 -17.847,2.213c-1.415,0.326 -2.685,1.124 -3.882,1.958Z" style="fill:#231f20;fill-rule:nonzero;"/>
    <path d="M325.265,241.818c2.757,-0.037 5.477,-0.835 8.089,-1.633c0.072,-1.668 -1.342,-2.829 -2.684,-3.446c-1.705,0.145 -3.41,0.943 -4.607,2.177c1.378,-0.145 2.575,-0.907 3.954,-1.125c0.689,0.073 1.596,0.29 1.85,1.052c-2.576,0.544 -5.079,1.379 -7.727,1.778c0.181,0.507 0.363,1.342 1.125,1.197Z" style="fill:#231f20;fill-rule:nonzero;"/>
    <path d="M70.471,243.232c-1.56,-0.471 -3.047,-1.16 -4.68,-1.269c0.073,0.145 0.218,0.399 0.327,0.544c2.176,1.342 4.716,2.031 7.146,2.793c-0.145,-1.451 -1.669,-1.669 -2.793,-2.068Z" style="fill:#231f20;fill-rule:nonzero;"/>
    <path d="M212.595,246.751c-0.943,-1.306 -2.104,-2.503 -3.337,-3.519c-0.073,0.98 -0.762,1.633 -1.197,2.431c0.653,-0.109 0.907,-0.689 1.415,-1.016c0.979,0.798 1.922,1.669 3.119,2.104Z" style="fill:#231f20;fill-rule:nonzero;"/>
    <path d="M307.127,266.376c-1.451,0.435 -3.011,0.58 -4.389,1.233c10.338,-1.632 20.604,-4.026 30.652,-6.965c3.882,-1.233 7.944,-2.249 11.354,-4.607c0.073,0.073 0.218,0.218 0.29,0.291c-0.036,-0.472 0.145,-0.835 0.544,-1.052c0.109,-0.146 0.291,-0.508 0.363,-0.653c-2.72,1.958 -5.876,3.156 -9.032,4.099c-9.867,2.757 -19.842,5.042 -29.782,7.654Z" style="fill:#231f20;fill-rule:nonzero;"/>
    <path d="M53.422,259.193c-0,0.218 -0.037,0.689 -0.037,0.907c-0.108,-0.181 -0.362,-0.58 -0.507,-0.798c-0.762,0.617 -0.98,2.866 0.326,2.793c-0.181,0 -0.544,0.037 -0.725,0.037c0.29,0.435 0.616,0.87 0.943,1.305c0.145,-0.471 0.471,-0.943 0.362,-1.451c0.109,-0.145 0.254,-0.29 0.363,-0.435l-0.145,0.834c1.125,-0.326 1.778,-1.342 1.27,-2.466c-0.581,-0.29 -1.125,-1.052 -1.85,-0.726Z" style="fill:#231f20;fill-rule:nonzero;"/>
    <path d="M35.067,263.691c2.648,1.633 5.55,2.721 8.089,4.535c-0.327,0.653 -1.306,0.29 -1.886,0.544c-0.508,0.109 -1.633,0.181 -1.379,0.943c1.415,0.181 2.83,0.072 4.208,0.29c0,-0.29 -0.036,-0.87 -0.036,-1.161c0.653,1.125 1.632,2.032 2.612,2.866c-0.98,-2.213 -2.576,-4.099 -3.374,-6.421c-0.326,-1.052 -1.197,-1.741 -2.031,-2.357c-0.798,-0.617 -0.617,-1.742 -0.653,-2.648c-1.959,-0.182 -3.918,-0.363 -5.877,-0.146c-0.58,0.146 -1.487,0.254 -1.487,1.052c0.109,1.089 0.943,1.923 1.814,2.503Z" style="fill:#231f20;fill-rule:nonzero;"/>
    <path d="M266.862,265.142c-2.648,-0.29 -5.296,-0.181 -7.944,-0.072c-8.343,0.58 -16.686,1.523 -25.029,2.213c-1.814,0.181 -3.664,0.145 -5.442,0.616c12.116,-0.109 24.232,-0.435 36.311,-1.197c1.488,-0.072 2.975,-0.254 4.462,-0.58c-0.544,-0.798 -1.523,-0.798 -2.358,-0.98Z" style="fill:#231f20;fill-rule:nonzero;"/>
    <path d="M149.477,270.003c-1.451,0.689 -1.415,3.083 0.073,3.664c1.378,0.798 3.301,-0.363 3.119,-1.959c0.073,-1.632 -1.922,-2.467 -3.192,-1.705Z" style="fill:#231f20;fill-rule:nonzero;"/>
    <path d="M321.238,286.145c-6.348,2.104 -12.877,3.555 -19.516,4.426c-14.256,1.959 -28.548,3.736 -42.876,5.26c-4.825,0.58 -9.65,0.87 -14.438,1.487c8.452,-0.363 16.941,-0.508 25.356,-1.197c7.763,-0.472 15.49,-1.27 23.18,-2.14c11.318,-1.379 22.708,-2.866 33.627,-6.203c2.611,-0.544 3.554,-3.301 4.534,-5.441c-3.083,1.741 -6.53,2.684 -9.867,3.808Z" style="fill:#231f20;fill-rule:nonzero;"/>
    <path d="M347.102,284.477c0.254,2.249 1.306,4.28 1.995,6.42c1.016,-0.145 1.995,-0.616 2.612,-1.414c1.886,-2.358 3.519,-4.861 5.441,-7.183c-1.451,0.145 -2.866,0.508 -4.28,0.726c-1.959,0.326 -3.991,0.508 -5.768,1.451Zm3.083,3.627c-0.906,-0.798 -1.306,-1.995 -1.886,-3.011c1.85,-0.507 3.736,-0.798 5.623,-0.943c-1.27,1.306 -2.503,2.612 -3.737,3.954Z" style="fill:#231f20;fill-rule:nonzero;"/>
    <path d="M204.143,282.989c-1.56,0.653 -2.793,1.814 -4.208,2.685c-1.124,0.762 -2.321,1.451 -3.337,2.358c1.886,1.052 4.172,1.197 6.276,1.414c0.653,-2.067 1.306,-4.244 1.269,-6.457Z" style="fill:#231f20;fill-rule:nonzero;"/>
    <path d="M58.101,285.456c0.472,0.653 1.233,0.145 1.524,-0.399c0.507,-0.617 -0.109,-1.306 -0.399,-1.85c-0.327,0.798 -0.762,1.524 -1.125,2.249Z" style="fill:#231f20;fill-rule:nonzero;"/>
    <path d="M237.77,288.467c-1.161,-0.036 -2.322,0.399 -3.519,0.326c-1.85,-0.072 -3.482,0.871 -5.042,1.742c0.472,-0.581 1.705,-1.089 1.233,-1.995c-1.124,-1.198 -2.648,-1.959 -4.062,-2.83c-0.835,-0.508 -1.742,-0.907 -2.721,-1.124c-0.472,1.705 0.036,3.555 1.161,4.86c1.197,1.451 2.648,2.685 3.845,4.136c1.596,-0.399 3.083,-1.161 4.643,-1.596c0.182,0.653 0.327,1.306 0.472,1.958c0.907,-0.507 1.813,-1.051 2.394,-1.922c-0.145,-0.181 -0.399,-0.508 -0.544,-0.689c0.943,0.362 2.14,0.217 2.902,-0.508c0.399,-0.798 -0.145,-1.778 -0.762,-2.358Z" style="fill:#231f20;fill-rule:nonzero;"/>
    <path d="M187.675,287.089c-0.363,-0.291 -0.69,-0.617 -1.016,-0.944c-2.467,0.69 -4.752,1.85 -7.11,2.83c-0.399,-0.363 -0.798,-0.726 -1.197,-1.088c-4.172,1.85 -8.38,3.7 -12.225,6.166c0.399,-0.544 0.835,-1.088 1.089,-1.741c-1.052,0.363 -1.923,1.088 -2.83,1.669c-2.321,1.451 -4.643,2.902 -6.892,4.462c-0.363,0.217 -0.762,0.507 -1.197,0.435c-2.938,0.072 -5.84,-0.218 -8.742,-0.109c-5.913,0.145 -11.826,0.653 -17.775,0.979c-11.753,0.653 -23.506,1.27 -35.187,2.54c-1.088,0.036 -2.212,-0.037 -3.301,0.036c1.705,0.145 3.41,0.145 5.115,-0.036c9.323,-0.327 18.645,-0.871 27.968,-0.98c10.193,-0.362 20.386,0.327 30.471,1.669c1.85,0.218 3.772,0.181 5.441,-0.689c5.332,-2.576 10.701,-5.115 15.634,-8.416c-1.813,0.109 -3.518,0.762 -5.187,1.415c2.286,-1.995 4.897,-3.628 7.654,-4.897c1.669,1.197 3.446,-0.182 4.788,-1.161c-0.326,0.834 -0.943,1.523 -1.233,2.394c1.233,0.689 2.684,0.725 3.99,1.233c0.544,0.399 0.907,0.943 1.379,1.415c1.015,-0.943 0.943,-2.394 1.233,-3.664c0.218,-1.378 0.834,-2.648 1.125,-4.026c-0.762,-0.29 -1.415,0.109 -1.995,0.508Z" style="fill:#231f20;fill-rule:nonzero;"/>
    <path d="M193.152,289.41c-0.798,-0.508 -1.524,-1.269 -2.467,-1.451c-1.052,1.415 -1.922,3.047 -1.995,4.861c1.995,-0.363 3.011,-2.249 4.462,-3.41Z" style="fill:#231f20;fill-rule:nonzero;"/>
    <path d="M221.301,289.156c-0.181,0.98 -0.145,1.995 -0.145,2.975c-2.104,-1.524 -4.643,-2.286 -6.82,-3.7c-0.29,0.834 -0.652,1.632 -0.834,2.503c0.653,1.668 1.125,3.409 1.886,5.006c3.084,-0.109 5.986,-1.451 8.997,-1.923c-0.617,-1.487 -0.944,-3.156 -1.923,-4.462c-0.29,-0.363 -0.726,-0.58 -1.161,-0.399Z" style="fill:#231f20;fill-rule:nonzero;"/>
    <path d="M76.347,291.188c0.363,-0.653 0.762,-1.306 0.762,-2.068c-0.943,0.218 -1.632,1.27 -0.762,2.068Z" style="fill:#231f20;fill-rule:nonzero;"/>
    <path d="M241.397,290.535c1.669,0.907 3.301,1.922 5.188,2.285c0.145,0.363 0.254,0.725 0.399,1.088c1.088,-0.508 2.285,-0.762 3.482,-0.979c-0.617,-0.653 -1.523,-0.798 -2.321,-1.088c-2.068,-0.617 -4.1,-1.306 -6.058,-2.213c-0.617,-0.218 -1.197,-0.653 -1.85,-0.472c0.181,1.415 -0.581,2.576 -1.234,3.773c0.726,-0.109 1.415,-0.29 2.14,-0.29c0.871,0.29 1.343,1.16 1.923,1.813c0.834,0.037 1.669,0.037 2.503,-0.072c-0.725,-1.85 -2.757,-2.612 -4.172,-3.845Z" style="fill:#231f20;fill-rule:nonzero;"/>
    <path d="M93.469,294.561c0.29,-0.544 0.762,-1.415 0.036,-1.85c-1.233,-0.798 -2.575,-1.487 -3.99,-1.886c-1.85,1.052 -3.664,2.249 -5.623,3.083c1.451,1.56 2.939,3.12 4.535,4.535c1.886,-0.98 3.917,-1.996 5.042,-3.882Z" style="fill:#231f20;fill-rule:nonzero;"/>
    <path d="M353.45,290.789c0.254,0.653 0.544,1.342 1.125,1.741c0.725,-0.943 -0.073,-1.85 -1.125,-1.741Z" style="fill:#231f20;fill-rule:nonzero;"/>
    <path d="M194.893,291.877c-1.016,0.834 -1.741,1.995 -3.047,2.394c-1.306,0.435 -2.285,1.415 -3.047,2.539c1.27,-0.109 2.684,0 3.736,-0.907c0.544,0.363 1.089,0.69 1.705,0.943c0.871,-1.16 2.032,-2.14 2.648,-3.446c0.653,-1.16 -1.052,-2.285 -1.995,-1.523Z" style="fill:#231f20;fill-rule:nonzero;"/>
    <path d="M321.528,296.81c1.488,-0.979 3.011,-1.995 4.462,-3.011c0.073,-0.87 -0.544,-1.632 -1.052,-2.285c-1.668,1.306 -2.648,3.374 -3.41,5.296Z" style="fill:#231f20;fill-rule:nonzero;"/>
    <path d="M334.95,293.146c0.326,-0.435 0.617,-0.87 0.798,-1.378c-0.653,0.073 -1.27,0.254 -1.886,0.435c0.326,0.327 0.689,0.653 1.088,0.943Z" style="fill:#231f20;fill-rule:nonzero;"/>
    <path d="M70.834,292.348c-1.016,1.089 -1.959,2.213 -2.794,3.483c2.104,-0.109 4.172,-0.254 6.24,-0.472c-1.016,-1.124 -2.685,-1.56 -3.446,-3.011Z" style="fill:#231f20;fill-rule:nonzero;"/>
    <path d="M199.827,292.421c0.072,0.725 -0.399,1.886 0.471,2.285c1.342,0.363 2.83,0 3.99,-0.725c-1.342,-0.871 -2.902,-1.342 -4.461,-1.56Z" style="fill:#231f20;fill-rule:nonzero;"/>
    <path d="M329.98,293.328c0.073,1.197 0.037,2.394 0.363,3.518c0.943,-0.181 1.814,-0.58 2.684,-0.943c-0.616,-1.269 -1.777,-2.067 -3.047,-2.575Z" style="fill:#231f20;fill-rule:nonzero;"/>
    <path d="M178.715,297.971c1.052,0.254 2.067,0.544 3.119,0.725c-0.036,-1.378 0.037,-2.829 -0.471,-4.135c-0.943,1.088 -1.778,2.285 -2.648,3.41Z" style="fill:#231f20;fill-rule:nonzero;"/>
    <path d="M209.222,296.302c-0.218,0.363 -0.472,0.726 -0.69,1.089c0.726,-0.037 1.451,-0.254 2.104,-0.617c-0.399,-0.363 -0.87,-0.544 -1.414,-0.472Z" style="fill:#231f20;fill-rule:nonzero;"/>
    <path d="M204.216,298.297c0.508,-0.362 0.979,-0.725 1.451,-1.124c-0.798,-0.109 -1.633,-0.145 -2.431,-0.181c0.327,0.435 0.653,0.87 0.98,1.305Z" style="fill:#231f20;fill-rule:nonzero;"/>
    <path d="M96.951,301.562c0.617,-1.56 1.959,-2.575 2.721,-3.99c-1.27,-0.109 -2.757,-0.399 -3.918,0.363c-0.87,0.907 -0.979,2.249 -0.798,3.41c0.689,0.181 1.342,0.326 1.995,0.217Z" style="fill:#231f20;fill-rule:nonzero;"/>
    <path d="M88.644,299.894c-0.58,0.326 -0.217,1.052 -0.29,1.559c0.508,0.145 1.052,0.145 1.596,0c-0.362,-0.544 -0.761,-1.124 -1.306,-1.559Z" style="fill:#231f20;fill-rule:nonzero;"/>
    <path d="M216.912,301.816c1.016,0.435 2.068,0.726 3.156,0.907c-0.036,-0.979 -0.544,-1.777 -1.088,-2.503c-0.726,0.508 -1.379,1.052 -2.068,1.596Z" style="fill:#231f20;fill-rule:nonzero;"/>
  </g>
	<a href="L1-4.svg">
  <circle id="Link-to-L1-4" serif:id="Link to L1-4" cx="40.644" cy="491.129" r="17.4" style="fill:#47c6ff;"/>
	</a>
</svg>
