<?xml version="1.0" encoding="UTF-8" standalone="no"?>
<!DOCTYPE svg PUBLIC "-//W3C//DTD SVG 1.1//EN" "http://www.w3.org/Graphics/SVG/1.1/DTD/svg11.dtd">
<svg width="100%" height="100%" viewBox="0 0 406 529" version="1.1" xmlns="http://www.w3.org/2000/svg" xmlns:xlink="http://www.w3.org/1999/xlink" xml:space="preserve" xmlns:serif="http://www.serif.com/" style="fill-rule:evenodd;clip-rule:evenodd;stroke-linejoin:round;stroke-miterlimit:2;">
  <rect id="L5-8" x="0.192" y="0.089" width="405.12" height="528" style="fill:none;"/>
	<a href="L5-9.svg">
  <circle cx="364.8" cy="491.129" r="17.4" style="fill:#e1c70a;"/>
	</a>
  <g id="c">
    <g>
      <path d="M263.339,348.811c-0.313,0.507 -0.783,0.873 -1.246,1.252c0.113,0.106 0.155,0.173 0.213,0.195c0.336,0.127 0.907,-0.233 0.993,0.333c0.049,0.319 -0.45,0.526 -0.722,0.481c-0.444,-0.075 -1.111,0.103 -1.216,-0.604c-0.035,-0.234 0.278,-0.555 -0.154,-0.667c-0.337,-0.088 -0.616,0.1 -0.827,0.366c-0.165,0.21 -0.211,0.57 -0.568,0.543c-0.555,-0.042 0.058,-0.475 -0.19,-0.627c-0.093,-0.058 -0.228,-0.156 -0.299,-0.127c-1.15,0.474 -2.293,0.965 -3.576,1.51c0.811,0.444 1.241,-0.229 1.919,-0.13c-0.532,0.429 -0.854,0.886 0.135,0.912c0.573,0.015 0.464,0.345 0.621,0.727c0.226,0.549 0.89,0.918 1.278,1.506c-1.037,-0.524 -2.075,-1.047 -3.265,-1.648c0.073,1.692 1.855,2.313 1.953,3.81c-0.611,-0.126 -0.787,-0.93 -1.557,-0.877c0.434,0.615 1.004,1.073 1.224,1.76c-0.09,0.033 -0.186,0.093 -0.211,0.072c-0.606,-0.509 -0.931,-1.501 -1.719,-1.576c-0.789,-0.076 -0.949,1.049 -1.59,1.44c-0.364,0.221 -0.651,0.578 -1.324,0.548c0.554,-0.64 0.922,-1.27 1.237,-1.929c0.268,-0.558 0.239,-1.084 -0.407,-1.244c-0.618,-0.152 -1.388,-0.383 -1.685,0.563c-0.208,0.662 -0.072,1.41 -0.515,2.248c-0.312,-0.704 -0.392,-1.463 -1.139,-1.486c-0.762,-0.024 -0.59,1.086 -1.47,1.122c0.959,0.562 1.834,0.971 2.029,2.104c-0.874,-0.309 -1.04,-2.272 -2.536,-0.748c0.169,-0.829 -0.188,-0.969 -0.857,-1.068c-0.811,-0.119 -1.577,0.155 -2.366,0.042c-0.188,-0.027 -0.421,-0.002 -0.478,0.248c-0.065,0.283 0.125,0.425 0.342,0.557c0.452,0.277 0.979,0.482 1.32,1.338c-1.046,-0.777 -1.925,-1.124 -2.957,-0.765c-0.46,0.16 -0.83,0.364 -0.81,0.888c0.026,0.647 0.584,0.574 0.99,0.584c0.474,0.011 0.951,-0.132 1.427,-0.127c0.839,0.01 1.03,0.367 0.611,1.046c-0.158,0.256 -0.191,0.286 -0.401,0.061c-0.779,-0.833 -1.596,-0.785 -2.449,-0.148c-0.638,0.476 -1.809,0.496 -1.961,1.202c-0.141,0.656 1.023,0.94 1.449,1.556c0.334,0.482 0.767,0.898 0.909,1.533c-1.086,-1.26 -2.28,-2.366 -3.759,-3.157c-1.373,-0.733 -1.802,-0.612 -2.207,0.838c-0.087,0.309 -0.213,0.595 -0.614,0.903c-0.145,-0.691 -0.155,-1.308 0.19,-1.827c0.521,-0.782 0.123,-0.937 -0.558,-1.031c-0.548,-0.076 -1.093,-0.191 -1.735,-0.657c1.022,-0.164 1.835,-0.112 2.557,0.397c0.416,0.294 0.744,0.317 1.193,0.062c0.965,-0.548 1.886,-1.208 3.026,-1.386c0.241,-0.037 0.462,-0.16 0.404,-0.481c-0.06,-0.338 -0.313,-0.763 -0.54,-0.711c-0.636,0.145 -0.869,-0.355 -1.291,-0.56c-0.769,-0.375 -1.527,-0.726 -1.97,0.636c-0.347,1.068 -1.481,1.238 -2.727,0.755c0.458,-0.112 0.912,-0.242 1.374,-0.331c0.269,-0.051 0.587,-0.003 0.624,-0.385c0.026,-0.268 -0.126,-0.447 -0.388,-0.516c-0.284,-0.074 -0.645,-0.351 -0.81,0.095c-0.171,0.462 -0.732,0.636 -0.776,1.162c-0.496,-0.154 -0.882,0.332 -1.342,0.278c-0.248,-0.394 0.617,-0.711 0.139,-0.877c-0.6,-0.209 -1.147,-0.863 -1.892,-0.474c-0.337,0.175 -0.173,0.369 0.046,0.527c0.309,0.223 0.812,0.122 1.015,0.664c-0.801,0.318 -1.303,-0.698 -2.132,-0.424c1.235,1.244 2.545,2.406 2.637,4.344c-0.829,-2.04 -2.04,-3.702 -4.282,-4.447c1.116,1.766 1.998,3.637 2.767,5.568c-0.878,-1.11 -1.756,-2.219 -2.692,-3.403c-0.792,1.077 -0.588,1.91 0.298,2.668c0.905,0.773 1.509,1.702 1.598,2.987c-0.537,-0.173 -0.497,-0.609 -0.642,-0.91c-0.349,-0.723 -0.749,-1.284 -1.528,-1.705c-0.621,-0.336 -0.621,-0.1 -0.78,0.294c-0.24,0.596 -0.646,1.04 -1.28,1.309c1.558,-2.947 2.053,-6.059 1.729,-9.351c-0.799,0.605 -0.816,0.607 -0.689,1.64c0.095,0.77 0.096,1.377 -0.99,1.158c-0.294,-0.06 -0.41,0.332 -0.546,0.559c-0.343,0.574 -0.659,1.164 -1.086,1.697c-0.015,-0.762 0.46,-1.329 0.763,-1.949c0.394,-0.807 0.658,-1.635 0.644,-2.526c-0.016,-1.047 -0.931,-1.828 -1.895,-1.663c-0.248,0.042 -0.272,0.229 -0.253,0.451c0.035,0.421 0.31,0.718 0.633,1.247c-0.813,-0.45 -1.517,-0.688 -1.437,-1.643c0.049,-0.588 -0.2,-0.962 -0.823,-0.868c-0.705,0.106 -1.272,0.518 -1.612,1.128c-0.118,0.212 0.301,0.292 0.486,0.423c0.502,0.358 1.232,0.338 1.577,0.958c0.095,0.17 0.588,-0.108 0.424,0.331c-0.11,0.294 -0.489,0.228 -0.624,0.111c-0.601,-0.522 -1.106,-0.149 -1.687,0.091c0.572,0.894 1.38,1.716 0.654,3.115c-0.121,-1.212 -0.401,-2.146 -1.163,-2.838c-0.191,-0.174 -0.428,-0.465 -0.72,-0.316c-0.305,0.157 -0.153,0.503 -0.114,0.757c0.121,0.797 0.27,1.594 -0.295,2.294c-0.224,0.277 -0.473,0.612 -0.878,0.515c-0.44,-0.105 -0.59,-0.467 -0.591,-0.934c0.426,-0.131 0.562,0.673 0.887,0.311c0.735,-0.818 0.376,-1.803 0.273,-2.855c-0.573,0.343 -1.094,0.655 -1.614,0.967c-0.061,-0.096 -0.136,-0.192 -0.126,-0.201c0.554,-0.537 0.584,-1.202 0.302,-1.83c-0.145,-0.324 -0.544,-0.113 -0.677,0.123c-0.35,0.617 -1.462,1.087 -0.46,2.019c0.041,0.038 0.019,0.143 0.028,0.23c-0.311,0.279 -1.324,-0.187 -0.928,0.871c0.128,0.343 -0.198,0.277 -0.341,0.208c-0.649,-0.309 -1.252,0.303 -1.969,0.004c-0.529,-0.222 -0.477,0.289 -0.241,0.65c0.438,0.668 1.148,1.177 1.228,2.084c-0.898,-1.206 -1.729,-2.463 -3.504,-2.526c0.415,-0.61 1.137,0.21 1.19,-0.481c0.039,-0.508 -0.617,-0.314 -1.276,-0.562c0.897,0 1.478,0.015 2.058,-0.004c0.416,-0.014 1.011,0.113 1.025,-0.512c0.014,-0.636 -0.619,-0.511 -1.012,-0.55c-0.461,-0.046 -1.29,0.155 -1.338,0.024c-0.192,-0.53 -1.443,-0.459 -0.512,-1.559c-1.417,1.039 -1.548,1.701 -0.819,2.981c0.509,0.892 1.018,1.776 1.084,2.873c-0.544,-0.1 -0.479,-0.546 -0.629,-0.837c-0.274,-0.531 -0.458,-1.121 -0.803,-1.598c-0.364,-0.505 -1.039,-0.551 -1.516,-0.315c-0.417,0.207 -0.097,0.722 0.047,1.071c0.263,0.641 0.571,1.263 0.975,2.143c-0.997,-0.81 -0.896,-1.913 -1.401,-2.554c-1.221,-1.551 -0.284,-2.499 0.62,-3.563c0.176,-0.208 0.334,-0.46 0.407,-0.719c0.142,-0.507 0.734,-1.185 0.169,-1.515c-0.644,-0.376 -0.494,0.678 -0.927,0.909c-0.288,0.155 -0.459,0.518 -0.898,0.607c0.145,-0.612 0.648,-0.858 0.915,-1.274c0.131,-0.205 0.269,-0.461 0.009,-0.629c-0.185,-0.121 -0.381,0.052 -0.491,0.225c-0.468,0.739 -0.931,1.482 -1.386,2.229c-0.308,0.507 0.324,0.463 0.433,0.671c-0.219,0.508 -1.849,0.363 -0.597,1.46c0.023,0.021 -0.05,0.217 -0.122,0.267c-0.203,0.14 -0.436,0.218 -0.657,0.031c-0.213,-0.18 -0.399,-0.393 -0.62,-0.561c-0.51,-0.387 -0.982,-0.141 -1.439,0.127c-0.523,0.308 -0.206,0.706 -0.056,1.031c0.239,0.514 0.3,1.049 0.376,1.594c-0.43,0.239 -0.759,-0.241 -1.178,-0.06c-0.031,-0.448 1.052,-0.644 0.232,-1.202c-0.415,-0.282 -0.472,-0.779 -0.591,-1.423c-0.81,1.031 -0.887,2.828 -2.885,2.251c0.631,-0.383 1.536,-0.511 1.235,-1.567c-0.951,0.228 -1.335,1.2 -2.142,1.565l0.029,0.021c0.51,-1.131 0.404,-2.13 -0.648,-2.91c-0.403,-0.298 -0.828,-0.567 -1.435,-0.98c0.422,0.747 0.988,1.231 0.614,1.958l0.031,-0.036c-0.575,-0.598 -1.094,-1.254 -1.89,-1.678c0.901,-0.97 1.766,-1.877 2.599,-2.813c0.199,-0.224 0.687,-0.484 0.242,-0.859c-0.324,-0.272 -0.792,-0.127 -0.934,0.203c-0.351,0.816 -1.061,0.363 -1.582,0.54c-0.252,0.086 -0.379,0.971 -0.876,0.137c-0.076,-0.127 -0.993,0.255 -1.524,0.388c-1.024,0.254 -2.072,0.328 -2.945,1.126c-0.393,0.359 -1.183,1.212 -1.818,0.025c-0.115,-0.217 -0.315,0.059 -0.445,0.187c-0.14,0.138 -0.268,0.299 -0.45,0.021c-0.455,-0.692 -0.766,-0.751 -1.691,-0.364c-0.45,0.188 -0.954,0.143 -1.3,-0.106c-0.345,-0.249 0.36,-0.446 0.171,-0.888c-0.992,0.128 -2.026,0.261 -3.059,0.397c-0.237,0.031 -0.546,0.06 -0.559,0.341c-0.019,0.43 0.382,0.295 0.625,0.345c0.509,0.105 1.086,0.065 1.598,0.881c-2.112,-0.745 -3.924,-0.418 -5.707,0.096c-0.573,0.166 -1.265,0.398 -1.147,1.252c0.055,0.401 -0.164,0.181 -0.324,0.204c-0.421,0.062 -0.835,0.174 -1.23,0.397c2.219,0.122 4.464,0.588 6.554,-0.576c0.644,-0.358 1.116,-0.061 1.487,0.334c0.535,0.567 0.094,1.059 -0.273,1.641c-0.272,-1.389 -1.797,-1.874 -2.901,-0.855c-0.472,0.436 -0.749,0.587 -1.323,0.499c-0.248,-0.039 -0.521,0.182 -0.58,0.491c1.159,0.653 2.314,1.305 3.469,1.957c-0.568,0.126 -0.722,0.505 -0.889,1.237c-0.18,-1.627 -1.435,-1.791 -2.232,-2.447c-0.414,0.187 0.162,0.494 -0.134,0.698c-0.364,-0.122 -0.517,-0.456 -0.625,-0.776c-0.356,-1.05 -0.892,-0.918 -1.556,-0.293c-0.507,0.477 -1.037,0.93 -1.688,1.511c0.206,-0.961 0.919,-1.282 1.36,-1.865c-0.195,-0.276 -0.518,-0.018 -0.723,-0.169l0.024,0.025c0.16,-0.202 0.32,-0.404 0.652,-0.823c-2.902,0.515 -4.65,2.341 -6.436,4.162c0.411,-1.22 1.614,-2.428 4.437,-4.408c-2.629,0.452 -4.22,2.212 -6.147,3.359c1.71,-1.958 3.813,-3.278 6.343,-3.912c1.178,-0.295 1.714,-0.643 2.301,-1.558c-0.647,0.234 -1.042,0.746 -1.838,0.529c0.814,-0.686 1.627,-1.372 2.587,-2.181c-0.947,-0.312 -1.222,0.498 -1.793,0.449c0.005,-0.115 0.002,-0.184 0.013,-0.25c0.063,-0.396 0.972,-0.333 0.617,-0.794c-0.371,-0.482 -0.762,0.141 -1.087,0.361c-0.427,0.287 -0.747,0.766 -1.2,0.976c-0.841,0.389 -1.329,1.811 -2.659,0.951c-0.125,-0.081 -0.572,0.34 -0.872,0.523c-0.504,0.306 -0.905,0.789 -1.652,0.936c0.377,-1.391 1.698,-1.969 2.418,-3.116c-0.919,-0.216 -1.092,0.45 -1.443,0.919c-0.344,0.461 -0.784,0.85 -1.301,1.239c0.34,-0.598 0.135,-1.111 -0.299,-1.337c-1.111,-0.58 -0.815,-1.346 -0.443,-2.18c0.13,-0.291 0.217,-0.597 0.096,-0.934c-0.443,-0.091 -0.48,0.318 -0.693,0.495c-0.249,0.208 0.364,1.132 -0.632,0.75c-0.102,-0.038 -0.044,0.409 0.123,0.57c0.575,0.553 0.557,1.329 0.921,2.108c-0.779,-0.188 -0.9,-0.804 -1.238,-1.199c-0.376,-0.44 -0.575,-1.124 -1.321,-1.054c-0.768,0.072 -0.813,0.775 -1.029,1.315l0.035,-0.032c-0.549,-0.069 -0.904,0.458 -1.571,0.496c0.344,-0.619 0.172,-1.222 0.341,-1.825c-0.446,0.026 -0.401,0.344 -0.517,0.525c-0.233,0.365 -0.129,0.841 -0.987,0.474c-0.945,-0.403 -2.092,-0.119 -2.684,1.139c-0.327,0.695 -0.907,1.283 -1.377,2.29c-0.062,-1.707 1.327,-2.362 1.669,-3.608c-0.342,-0.081 -0.639,-0.157 -0.938,-0.221c-0.472,-0.101 -0.995,-0.704 -1.4,-0.178c-0.376,0.489 -0.466,1.178 -0.02,1.783c0.059,0.081 0.04,0.22 0.061,0.365c-0.589,0.139 -0.352,-0.671 -0.902,-0.651c-0.413,0.778 -0.853,1.607 -1.34,2.526c-0.003,-1.119 0.385,-2.162 1.147,-2.874c0.437,-0.409 0.725,-0.935 0.303,-1.305c-0.372,-0.326 -0.898,0.096 -1.211,0.479c-0.783,0.96 -1.259,2.112 -2.048,3.447c0.015,-1.611 0.967,-2.54 1.468,-3.765c-1.547,0.098 -2.292,1.39 -3.617,1.941c0.276,-1.071 1.141,-1.569 1.655,-2.303c0.157,-0.224 0.406,-0.382 0.591,-0.59c0.137,-0.154 0.217,-0.375 0.085,-0.547c-0.214,-0.279 -0.449,-0.073 -0.596,0.086c-1.257,1.355 -3.235,1.864 -4.188,3.573c-0.03,0.054 -0.09,0.091 -0.136,0.135c-1.201,-1.398 -1.128,0.897 -1.953,0.599c0.046,-1.027 1.197,-1.22 1.646,-1.972l-0.021,0.025c0.801,0.131 1.343,-0.08 1.681,-0.924c0.268,-0.667 0.781,-1.235 1.131,-1.911c-1.509,0.87 -3.264,1.187 -4.836,2.581c0.362,-1.167 1.424,-1.206 1.918,-2.15c-1.68,0.881 -2.937,1.936 -4.343,2.779c1.101,-1.199 2.473,-2.132 3.242,-3.628c-1.754,1.052 -2.708,2.99 -4.619,3.923c0.869,-1.027 1.739,-2.054 2.828,-3.341c-1.851,0.745 -2.71,2.316 -4.268,2.939c1.892,-1.558 2.414,-4.193 4.58,-5.526c-0.868,0.22 -1.973,1.316 -3.446,2.995c-1.043,1.189 -1.976,2.497 -3.437,3.595c0.57,-1.307 1.805,-1.944 2.262,-3.448c-0.67,0.538 -1.111,0.892 -1.553,1.246c0.434,-1.252 2.086,-1.271 2.482,-2.6c-0.634,-0.43 -1.06,0.285 -1.647,0.228c0.903,-0.453 1.193,-1.64 2.636,-1.598c0.699,0.02 1.631,-0.812 2.49,-1.203c0.612,-0.279 1.155,-0.706 1.878,-0.706c0.852,-0 0.646,-1.009 1.204,-1.297c0.022,-0.012 0.085,0.01 0.097,0.032c0.035,0.065 0.054,0.139 0.079,0.21l0.026,-0.025c-0.579,0.418 -0.165,0.629 0.203,0.664c0.667,0.065 1.332,0.049 1.898,-0.478c0.461,-0.429 1.02,-0.619 1.536,-0.014c-1.612,1.174 -2.16,3.262 -3.881,4.356c0.312,-0.007 0.54,-0.097 0.694,-0.259c1.03,-1.078 2.419,-1.666 3.547,-2.614c0.454,-0.381 0.363,-0.734 0.181,-1.157c0.639,0.256 1.452,1.085 1.499,-0.507c0.01,-0.341 0.446,-0.427 0.738,-0.532c0.405,-0.147 0.774,-0.392 0.797,-0.805c0.031,-0.575 -0.614,-0.08 -0.813,-0.404c-0.072,-0.119 -0.234,-0.182 -0.323,-0.331c0.756,0.23 1.746,-0.222 2.2,0.874c0.137,0.33 0.577,0.188 0.856,0.01c0.403,-0.256 0.796,-0.532 1.173,-0.825c0.457,-0.353 1,-0.578 0.474,-1.405c-0.563,-0.885 -0.93,-1.756 -2.139,-0.801c-0.206,-1.524 -1.815,-1.236 -2.759,-2.114c1.949,0.116 3.291,1.35 4.925,1.807c0.383,-0.52 -0.217,-1.036 -0.037,-1.671c0.486,0.825 0.867,1.591 0.998,2.499c0.204,-1.288 0.391,-2.578 1.279,-3.896c-0.239,1.817 -0.397,3.399 -0.088,5.005c0.56,-1.524 0.106,-3.218 0.699,-4.831c0.428,2.148 -0.293,4.282 0.452,6.312c0.514,-4.199 1.076,-8.38 1.316,-12.596c0.139,-2.463 0.585,-3.058 2.96,-3.694c2.013,-0.538 3.505,-1.671 4.446,-3.491c0.594,-1.149 1.39,-2.036 2.614,-2.454c1.038,-0.354 1.711,-1.429 3.035,-1.301c0.668,0.065 0.883,-0.709 0.66,-1.355c-0.155,-0.448 -0.429,-0.854 -0.65,-1.28c-0.26,-0.501 -0.554,-0.975 0.011,-1.502c0.289,-0.269 0.098,-0.683 0.094,-1.036c-0.01,-0.94 -0.13,-1.898 0.454,-2.983c0.036,1.767 -0.131,3.335 0.478,5.074c0.464,-0.714 0.424,-1.277 0.453,-1.8c0.803,-14.235 1.805,-28.458 2.563,-42.697c0.74,-13.881 1.35,-27.763 1.687,-41.659c0.128,-5.269 0.548,-10.53 0.204,-15.806c-0.099,-1.514 -0.121,-1.561 -1.598,-1.444c-2.088,0.165 -4.11,0.587 -5.983,1.565c-0.302,0.157 -0.673,0.253 -0.931,0.837c2.389,-0.62 4.399,-2.117 7.044,-1.886c-0.247,0.23 -0.312,0.343 -0.397,0.362c-3.057,0.662 -5.516,2.433 -7.976,4.23c-1.927,1.407 -2.608,1.282 -4.084,-0.566c-0.378,-0.472 -0.748,-0.932 -1.322,-1.182c-0.259,-0.113 -0.534,-0.273 -0.595,-0.557c-0.717,-3.368 -3.415,-5.4 -5.425,-7.857c-1.419,-1.734 -2.308,-3.507 -2.68,-5.724c-0.897,-5.343 1.707,-11.399 6.196,-13.917c0.348,-0.196 0.402,-0.398 0.436,-0.737c0.185,-1.806 0.956,-2.458 2.775,-2.225c1.701,0.218 3.385,0.566 5.081,0.825c2.414,0.368 4.843,0.524 7.285,0.455c0.359,-0.01 0.719,-0.026 1.076,-0.064c2.596,-0.275 2.825,-0.592 2.968,-3.133c0.266,-4.709 0.398,-9.417 0.313,-14.133c-0.033,-1.865 0.412,-2.404 2.263,-2.495c1.37,-0.067 2.004,-0.491 2.274,-1.95c0.507,-2.737 2.145,-4.746 4.719,-5.922c0.141,0.611 -0.018,1.052 -0.597,1.398c-1.539,0.918 -2.317,2.384 -3.112,3.957c-0.631,1.248 -0.751,3.182 -2.808,3.308c-1.231,0.075 -1.613,0.829 -1.552,1.942c0.082,1.515 0.164,3.031 0.232,4.547c0.014,0.31 0.087,0.635 -0.124,0.925c-1.238,1.706 -0.673,3.607 -0.067,5.2c0.351,0.923 0.302,1.586 0.152,2.388c-0.103,0.545 -0.306,1.073 -0.399,1.62c-0.413,2.426 -1.284,3.196 -3.742,3.271c-2.762,0.083 -5.507,-0.174 -8.258,-0.351c-1.888,-0.121 -3.672,-0.769 -5.542,-0.943c-0.679,-0.063 -1.54,-0.163 -1.581,0.786c-0.06,1.381 -0.829,1.831 -1.942,2.507c-2.65,1.607 -4.175,4.22 -4.966,7.213c-0.271,1.023 -0.347,2.082 -0.137,3.147c0.278,-0.055 0.296,-0.235 0.3,-0.382c0.081,-3.713 1.798,-6.393 5.144,-7.974c1.671,-0.79 2.891,-1.763 2.403,-3.855c-0.018,-0.074 -0.016,-0.173 0.02,-0.236c0.345,-0.598 0.895,-0.194 1.344,-0.232c0.178,-0.014 0.459,0.36 0.172,0.527c-1.31,0.762 -0.72,2.025 -0.894,3.088c-0.036,0.226 -0.074,0.412 0.173,0.457c0.115,0.021 0.344,-0.092 0.379,-0.194c0.32,-0.926 1.34,-0.96 1.971,-1.525c-0.721,-0.211 -1.481,-0.208 -2.311,-0.961c4.01,-0.11 7.674,-0.343 11.331,-0.26c2.152,0.049 4.093,-0.447 6.051,-1.167c0.616,-0.226 0.901,-0.575 0.923,-1.22c0.071,-2.035 0.16,-4.07 0.25,-6.104c0.123,-2.787 -0.442,-5.549 -0.16,-8.355c0.288,-2.872 0.169,-2.882 3.111,-2.893c0.352,-0.001 0.902,0.15 1.009,-0.162c0.315,-0.914 0.653,-1.89 0.611,-2.825c-0.019,-0.403 0.012,-0.562 0.268,-0.536c0.463,0.047 0.502,-0.324 0.693,-0.535c0.428,-0.473 0.572,-1.284 0.942,-1.593c1.782,-1.485 3.793,-2.667 6.077,-3.227c3.538,-0.868 6.757,0.195 9.963,1.617c1.686,0.747 2.626,2.14 3.742,3.414c0.362,0.414 0.266,0.895 -0.009,1.426c-0.167,-0.616 -0.152,-1.21 -0.761,-1.818c0.148,0.656 0.215,1.045 0.325,1.421c0.109,0.372 0.168,0.8 0.656,0.905c-0.779,0.971 0.137,1.117 0.701,1.385c1.305,0.621 1.456,0.93 0.861,2.254c-0.475,1.055 -1.008,2.091 -1.211,3.239c-0.711,4.008 -0.514,8.037 -0.22,12.065c0.045,0.608 0.35,1.025 0.934,1.273c1.44,0.612 2.931,0.678 4.45,0.551c-0.331,-0.17 -0.674,-0.251 -1.018,-0.325c-3.117,-0.666 -3.63,-1.295 -3.897,-4.492c-0.376,-4.499 0.002,-8.803 2.328,-12.856c1.442,-2.512 1.197,-2.807 -1.385,-3.929c-0.283,-0.122 -0.782,-0.223 -0.625,-0.558c0.326,-0.696 -0.211,-0.96 -0.519,-1.297c-4.497,-4.934 -10.145,-6.321 -16.554,-5.316c-1.049,0.165 -2.071,0.581 -3.163,0.327c1.457,-1.209 3.239,-1.502 5.022,-1.614c5.663,-0.355 10.616,1.38 14.797,5.246c0.146,0.135 0.332,0.266 0.402,0.439c0.735,1.825 2.316,2.84 3.731,4.048c1.658,1.415 2.672,3.363 3.843,5.169c0.549,0.846 0.304,1.665 -0.128,2.487c-0.779,1.484 -1.762,2.856 -2.385,4.425c-0.298,0.749 -0.531,1.508 -0.504,2.322c0.051,1.51 1.149,2.59 2.633,2.572c4.273,-0.053 8.38,-1.069 12.464,-2.196c1.677,-0.463 1.855,-0.429 2.214,1.262c0.275,1.295 1.213,1.775 2.24,2.27c4.37,2.103 6.98,5.655 8.026,10.291c1.157,5.125 -1.836,11.243 -6.54,13.655c-0.819,0.42 -1.118,0.922 -1.026,1.774c0.042,0.397 0.045,0.798 0.05,1.197c0.022,1.677 -0.759,2.644 -2.44,2.818c-2.45,0.254 -4.864,-0.055 -7.234,-0.694c-1.619,-0.437 -3.225,-0.917 -4.839,-1.373c-0.461,-0.13 -0.919,-0.297 -1.39,-0.356c-3.637,-0.456 -3.529,0.385 -3.409,2.922c0.525,11.092 0.745,22.193 0.776,33.296c0.009,3.23 -0.203,6.461 -0.308,9.692c-0.017,0.503 -0.003,1.008 0.116,1.521l0.171,-0.614c-0.034,17.72 1.437,35.358 2.605,53.038c0.457,-1.513 1.107,-2.88 2.12,-4.088c-0.461,2.12 -1.687,4.044 -1.631,6.288c1.76,-3.016 3.216,-3.431 5.508,-1.418c-0.45,-0.22 -0.897,-0.447 -1.351,-0.658c-1.297,-0.603 -1.894,-0.349 -2.548,0.901c-0.684,1.308 -1.524,2.544 -1.495,4.105c0.006,0.294 -0.131,0.624 0.267,0.921c0.356,-0.483 0.402,-1.035 0.451,-1.562c0.126,-1.368 0.775,-2.484 1.549,-3.576c0.403,-0.57 0.731,-0.459 1.154,-0.116l0.026,-0.025c-0.28,0.07 -0.653,-0.174 -0.821,0.27c-0.436,1.151 -1.106,2.201 -1.322,3.449c-0.341,1.973 1.163,4.339 3.123,4.897c0.682,0.194 1.392,0.346 1.609,1.316c0.108,0.483 0.625,1.032 1.425,0.984c0.7,-0.041 1.329,0.237 1.589,1.016c1.008,3.019 2.477,5.906 2.588,9.274c0.933,-0.417 1.285,-1.461 2.276,-1.8c0.112,1.18 -0.269,2.043 -1.61,2.523c0.786,0.304 1.3,0.104 1.524,-0.333c0.507,-0.988 1.016,-2.012 1.265,-3.081c0.15,-0.643 0.518,-0.864 0.896,-1.199c-0.239,1.546 -1.089,2.828 -1.661,4.258c0.715,-0.392 1.206,-1.028 1.942,-1.343c0.277,-0.119 0.508,-0.326 0.701,-0.021c0.223,0.354 -0.112,0.519 -0.374,0.583c-0.992,0.244 -1.382,1.274 -2.247,1.687c-0.215,0.103 -0.211,0.402 -0.078,0.722c0.897,-0.374 1.69,-0.88 2.629,-1.241c-0.658,0.913 -1.276,1.86 -1.991,2.727c-0.353,0.429 -0.632,0.844 -0.559,1.387c0.246,1.838 0.129,3.637 -0.42,5.415c-0.124,0.404 -0.181,0.875 0.359,1.27c0.481,-1.237 1.599,-2.194 1.164,-3.724c-0.068,-0.242 0.214,-0.58 0.324,-0.878c0.065,-0.179 0.177,-0.452 -0.096,-0.486c-1.469,-0.184 -0.574,-1.047 -0.396,-1.562c0.324,-0.937 0.423,-0.899 1.424,-0.766c0.474,0.063 0.34,-0.712 0.851,-0.739c-0.065,0.508 -0.125,0.976 -0.715,1.212c-0.384,0.152 -0.304,0.698 -0.05,0.677c1.022,-0.083 0.579,0.478 0.356,0.784c-0.457,0.63 -0.492,1.258 -0.16,1.908c0.298,0.583 -0.07,1.186 0.155,1.879c0.294,-0.559 0.444,-0.973 0.347,-1.593c-0.209,-1.321 1.391,-2.444 2.674,-1.976c-0.778,0.561 -1.922,0.65 -2.227,1.824c-0.135,0.519 -0.332,0.958 0.188,1.4c0.497,0.422 0.252,1.081 0.398,1.641c0.199,-0.656 0.709,-1.225 0.223,-1.996c-0.364,-0.578 0.064,-1.046 0.557,-1.228c1.513,-0.557 1.94,-1.785 2.105,-3.191c0.052,-0.44 0.002,-0.84 0.668,-0.577c0.088,0.035 0.349,-0.392 0.54,-0.595c1.839,-1.951 3.747,-3.824 6.055,-5.232c0.959,-0.585 1.975,-1.031 3.139,-1.15c-4.458,1.95 -7.83,5.058 -10.112,9.348c2.329,-2.383 5.033,-4.241 7.929,-5.84c-1.435,1.014 -2.82,2.088 -4.137,3.248c-0.836,0.737 -1.705,1.433 -2.179,2.501c-0.401,0.906 -1.688,0.777 -2.11,1.727c-0.156,0.35 -0.57,0.591 -0.705,0.943c-0.207,0.541 -0.657,1.278 -0.22,1.676c0.404,0.368 0.796,-0.414 1.22,-0.641c1.861,-0.996 3.158,-2.629 4.642,-4.052c1.182,-1.134 2.221,-2.465 4.118,-3.04c-1.802,1.668 -4.138,2.709 -3.881,5.653c2.291,-1.93 4.668,-3.588 7.273,-5.385c-1.89,2.819 -4.886,4.004 -7.073,6.088c0.07,0.083 0.14,0.166 0.21,0.249c0.689,-0.549 1.379,-1.098 2.068,-1.647c-0.831,1.531 -2.258,2.516 -3.232,3.905c-0.555,0.792 -0.924,1.675 -1.455,2.468c-0.364,0.545 -0.006,1.109 0.21,1.432c0.346,0.517 0.654,-0.031 0.775,-0.366c0.622,-1.724 1.896,-3.031 3.222,-4.091c4.893,-3.912 9.476,-8.183 14.323,-12.144c0.326,-0.266 0.623,-0.607 1.269,-0.705c-3.151,2.959 -6.355,5.644 -8.723,9.16c0.708,-0.409 1.416,-0.819 2.124,-1.228c-0.758,1.219 -2.115,1.778 -3.001,2.845c-0.255,0.306 -0.561,0.568 -0.829,0.864c-0.218,0.242 -0.187,0.507 -0.014,0.768c0.186,0.282 0.425,0.287 0.73,0.205c0.702,-0.189 1.189,-0.667 1.589,-1.215c1.509,-2.072 3.525,-3.574 5.599,-5.004c2.006,-1.384 4.066,-2.687 6.218,-3.837c0.442,-0.237 0.896,-0.451 1.396,-0.579c-4.369,2.811 -8.864,5.424 -12.386,9.372c1.226,-0.57 2.517,-0.273 3.888,-0.396c-0.56,-1.158 -1.451,-0.297 -2.147,-0.574c2.288,-0.525 3.686,-2.708 6.066,-3.075c1.003,-0.155 1.786,-0.861 2.633,-1.387c1.693,-1.051 3.498,-1.743 5.531,-1.681c0.564,0.017 1.108,0.091 1.647,0.547c-3.426,-0.781 -5.975,0.898 -8.774,2.646c0.563,0.245 0.891,0.237 1.222,0.115c0.523,-0.194 1.032,-0.43 1.563,-0.6c1.109,-0.356 2.066,-1.138 3.434,-0.264c0.814,0.521 2.061,0.459 3.151,0.843c-0.657,0.353 -1.168,-0.082 -1.709,-0.135c-0.516,-0.05 -0.916,0.119 -0.5,0.617c0.816,0.978 0.014,1.697 -0.369,2.508c0.041,-0.319 0.075,-0.639 0.124,-0.956c0.122,-0.777 0.154,-1.588 -0.542,-2.084c-0.732,-0.522 -1.599,-0.486 -2.395,-0.068c-0.877,0.459 -1.725,0.975 -2.598,1.474c-0.016,-0.414 0.575,-0.488 0.523,-1.134c-2.212,2.161 -4.827,3.708 -6.188,6.542c0.05,-0.771 -0.328,-1.426 -0.371,-2.142c-0.033,-0.545 -0.373,-0.523 -0.762,-0.396c-0.834,-0.775 -2.005,-0.615 -2.861,0.364c1.105,0.962 1.937,-0.14 2.894,-0.398Zm-37.804,-134.404c1.348,0.491 2.73,0.713 4.164,0.495c-1.437,0.168 -2.767,-0.589 -4.198,-0.478c-0.814,-0.849 -2.049,-0.541 -2.94,-1.177c0.709,1.166 1.913,0.948 2.974,1.16Zm-30.765,18.805c-0.079,0.472 -0.222,0.97 0.585,0.554c0.741,-0.382 1.087,-1.002 1.273,-1.776c-0.606,0.481 -1.067,1.144 -1.893,1.262c0.03,-0.569 -0.248,-0.854 -0.589,-0.297c-0.533,0.869 -0.948,1.815 -1.531,2.696c0.512,-0.466 1.575,-0.182 1.611,-1.062c0.024,-0.581 0.315,-0.941 0.544,-1.377l0,-0Zm-3.65,23.522c0.411,-0.687 1.069,-1.219 1.429,-2.211c-1.838,1.569 -2.906,3.475 -4.288,5.12c-0.628,-0.163 -0.34,-1.054 -0.576,-1.093c-1.473,-0.239 -0.517,-1 -0.345,-1.51c0.182,-0.539 0.308,-1.056 0.279,-1.628c-0.173,-3.504 -0.163,-7.011 -0.111,-10.518c0.004,-0.226 0.118,-0.499 -0.242,-0.729c-0.067,1.078 -0.147,2.104 -0.191,3.131c-0.177,4.171 -0.33,8.344 -0.526,12.515c-0.036,0.784 0.212,0.945 0.883,0.626c0.368,-0.176 0.67,-0.413 0.808,-0.816c0.709,-0.138 1.181,-0.602 1.476,-1.211c0.336,-0.692 0.815,-1.231 1.431,-1.669c-0.333,0.854 -1.326,1.37 -1.313,2.463c0.593,-0.726 1.147,-1.4 1.696,-2.078c0.116,-0.144 0.34,-0.317 0.126,-0.484c-0.097,-0.075 -0.353,0.055 -0.536,0.092Zm13.511,-82.968c-0.122,0.449 -0.903,0.518 -0.706,1.283c0.857,-0.885 1.922,-1.394 2.502,-2.433c0.455,-0.817 -0.305,-0.254 -0.438,-0.4c-0.953,-0.347 -1.067,1.008 -1.978,0.982c0.264,-0.342 0.469,-0.608 0.578,-0.75c-1.546,-1.043 -2.366,1.01 -3.814,0.909c-0.174,-0.012 -1.015,0.868 -1.365,1.49c0.093,-0.29 0.224,-0.576 0.089,-0.971c-0.891,0.491 -1.647,1.073 -2.255,1.921c1.023,0.202 1.323,-0.986 2.182,-0.968c0.663,-0.25 1.326,-0.5 1.987,-0.749c-1.233,1.329 -2.893,2.25 -3.804,3.906c0.88,-0.25 1.527,-0.852 2.394,-1.159c0.996,-0.353 1.413,-1.575 1.407,-2.747c0.374,-0.514 0.992,-0.601 1.493,-0.887c0.34,0.637 -0.502,0.919 -0.441,1.552c0.776,-0.339 1.369,-0.904 2.169,-0.979l-0,0Zm60.28,173.697c0.619,-0.971 1.83,-1.306 2.69,-2.496c-1.286,0.448 -2.155,1.022 -3.005,1.636c-0.243,0.174 -0.676,0.223 -0.554,0.647c0.164,0.57 0.628,-0.04 0.9,0.179c-0.046,0.41 -0.549,0.559 -0.554,1.009c-0.006,0.516 -0.114,1.192 0.372,1.396c0.597,0.251 0.349,-0.517 0.574,-0.759c0.128,-0.139 0.375,-0.169 0.499,-0.309c1.044,-1.189 2.072,-2.392 3.004,-3.474c0.159,0.017 0.067,-0.023 0.013,0.006c-1.317,0.718 -2.629,1.444 -3.939,2.165l-0,-0Zm-21.395,-149.872c1.318,1.459 1.079,3.256 1.105,5.001c0.005,0.332 -0.392,0.925 0.301,0.918c0.588,-0.007 0.356,-0.614 0.364,-0.961c0.053,-2.246 -0.439,-4.372 -1.621,-6.29c-0.852,-1.383 -1.645,-2.85 -3.223,-3.594c1.178,1.556 2.461,3.032 3.075,4.94l-0,4.715c0.548,-1.793 0.353,-3.262 -0.001,-4.729Zm-24.145,-21.839c-0.014,-0.347 0.773,-0.437 0.363,-0.825c-0.384,-0.363 -0.606,0.21 -0.789,0.416c-0.345,0.387 -0.739,0.803 -0.718,1.445c0.626,-0.177 0.592,-0.969 1.187,-1.08c-0.72,2.096 -1.738,4.12 -1.552,6.553c0.935,-1.01 0.193,-2.41 0.986,-3.439c0.115,0.412 -0.096,0.801 0.178,1.133c0.489,-0.189 0.858,-0.555 1.168,-0.95c0.866,-1.103 0.381,-2.953 -0.823,-3.253l-0,0Zm-7.428,143.239c0.207,-0.116 0.436,-0.028 0.619,-0.385c0.487,-0.949 0.345,-1.932 0.384,-2.905c0.042,-1.067 0.009,-2.137 0.009,-3.459c-1.508,1.325 -1.331,2.788 -1.285,4.128c0.03,0.859 -0.423,1.822 0.306,2.616c-0.147,0.395 -0.385,0.785 0.051,1.164c0.501,0.436 0.581,0.726 -0.235,0.877c-0.334,0.062 -0.354,0.524 -0.251,0.824c0.153,0.444 0.602,0.47 0.991,0.537c0.274,0.047 0.428,-0.088 0.525,-0.358c0.365,-1.02 -0.183,-2.539 -1.115,-3.039l0.001,-0Zm26.949,34.564c-0.255,1.122 0.491,1.463 1.345,1.695c0.218,0.059 0.522,0.081 0.623,-0.182c0.057,-0.146 -0.05,-0.367 -0.112,-0.544c-0.323,-0.92 -1.174,-0.791 -1.885,-0.937c0.264,-0.837 -0.502,-0.991 -0.933,-1.269c-1.158,-0.746 -2.477,-0.854 -3.835,-0.764c1.019,-0.282 1.868,-0.869 3.105,-0.132c0.838,0.499 1.624,1.649 2.922,1.162c0.411,1.419 1.709,2.193 2.467,3.363c0.103,0.159 0.358,0.019 0.52,-0.123c0.755,-0.659 1.447,-1.396 2.474,-1.681c0.212,-0.059 0.518,-0.358 0.421,-0.654c-0.475,-0.426 -0.882,0.715 -1.12,0.011c-0.25,-0.74 -0.424,-0.506 -0.845,-0.217c-0.465,0.319 -0.997,0.54 -1.625,0.87c0.409,-1.319 -0.027,-2.341 -0.577,-3.29c-0.573,-0.992 -0.964,0.483 -1.547,0.193c-0.232,-0.115 -0.48,-0.017 -0.507,0.306c-0.019,0.221 0.06,0.379 0.319,0.4c0.19,0.015 0.585,-0.207 0.479,0.194c-0.05,0.192 0.173,0.849 -0.5,0.666c0.024,-0.544 -0.915,-0.7 -0.553,-1.407c0.085,-0.166 -0.146,-0.226 -0.319,-0.19c-0.707,0.151 -1.334,-0.132 -1.978,-0.352c-0.935,-0.32 -1.883,-0.138 -2.817,0.013c-0.484,0.078 -0.73,0.347 -0.636,0.935c0.086,0.532 0.311,0.689 0.784,0.587c1.019,-0.22 1.907,0.815 2.97,0.307c0.089,-0.043 0.247,0.24 0.231,0.476c-0.069,1.064 0.441,1.005 1.129,0.564l0,0Zm-55.617,-135.185l-0.039,-0.035c0.082,0.178 0.21,0.348 0.239,0.534c0.354,2.332 0.018,4.704 0.398,7.038c0.024,0.15 -0.145,0.352 -0.262,0.5c-0.217,0.275 -0.316,0.561 -0.127,0.875c0.093,0.154 0.261,0.125 0.426,0.079c0.362,-0.099 0.523,-0.33 0.521,-0.697c-0.005,-0.676 -0.03,-1.354 -0.001,-2.029c0.163,-3.784 0.356,-7.566 0.503,-11.351c0.065,-1.667 -1.794,-3.925 -3.261,-4.179c-1.143,-0.199 -2.365,-0.076 -3.412,-0.752c-0.062,-0.04 -0.49,-0.118 -0.439,0.146c0.242,1.247 -0.726,0.976 -1.292,0.974c-1.945,-0.007 -3.805,0.395 -5.634,0.986c-1.011,0.326 -1.918,0.832 -2.569,1.75c1.786,-0.853 3.702,-1.228 5.604,-1.591c3.003,-0.574 6.017,-0.54 8.989,0.283c0.415,0.114 0.952,0.249 0.986,0.754c0.095,1.438 1.142,2.798 0.272,4.445c0.091,-0.717 0.271,-1.399 -0.691,-1.393c-0.07,0 -0.221,-0.266 -0.201,-0.387c0.122,-0.748 -0.917,-1.239 -0.415,-2.102c0.152,-0.262 -0.281,-0.392 -0.457,-0.221c-0.454,0.446 -0.787,0.299 -1.213,-0.047c-0.364,-0.296 -0.987,0.313 -1.36,-0.314c-0.045,-0.077 -0.274,0.337 -0.339,0.544c-0.162,0.518 0.278,0.473 0.565,0.518c2.834,0.449 2.611,1.275 2.899,3.441c0.1,0.744 -0.048,1.523 0.31,2.232l0,-0.001Zm13.222,-47.319c-0.409,0.218 -0.331,0.631 -0.514,0.972c0.153,0.019 0.196,0.038 0.225,0.026c1.065,-0.454 1.511,-2.386 3.209,-1.343c0.04,0.024 0.159,-0.038 0.215,-0.089c0.754,-0.674 1.73,-1.164 2.16,-2.11c0.227,-0.501 0.436,-0.66 0.921,-0.558c-0.185,0.437 1.002,0.649 0.173,1.244c-0.324,0.232 -0.464,0.722 -0.778,1.245c1.471,-0.75 2.501,-1.819 4.054,-2.486c-0.314,0.741 -1.075,0.826 -1.066,1.672c0.581,-0.607 1.505,-0.543 1.456,-1.619c-0.04,-0.889 -1.404,-0.771 -1.203,-1.745c0.772,-0.072 1.412,0.612 2.033,0.464c1.807,-0.429 1.522,1.232 2.069,1.986c0.313,0.432 0.188,1.135 -0.795,1.31c2.291,0.44 1.142,1.694 0.707,2.847c0.571,-0.362 0.837,-0.864 1.7,-0.662c-0.751,0.683 -1.368,1.235 -1.973,1.799c-0.193,0.18 -0.633,0.279 -0.151,0.69c0.274,0.235 0.311,0.525 0.847,0.334c0.614,-0.218 0.852,-0.925 1.546,-1.04c-0.406,1.254 -1.268,2.171 -2.012,3.289c0.726,-0.049 0.852,-0.538 1.145,-0.834c0.189,-0.192 0.393,-0.504 0.691,-0.295c0.308,0.216 0.009,0.506 -0.043,0.761c-0.146,0.709 -1.05,1.058 -1,1.919c0.593,-0.094 0.905,-0.706 1.895,-0.497c-2.012,0.633 -1.895,2.551 -3.143,3.535c1.15,0.542 1.622,-0.635 2.463,-0.749c0.003,1.37 -0.223,2.716 0.126,4.043c0.58,-1.275 0.652,-2.617 0.642,-3.945c-0.016,-2.157 0.41,-4.169 1.517,-6.037c0.261,-0.438 0.404,-0.949 0.583,-1.433c0.244,-0.657 0.137,-0.96 -0.688,-0.85c-1.246,0.166 -1.583,-0.19 -1.755,-1.469c-0.143,-1.069 -0.425,-2.087 -0.987,-3.045c-1.53,-2.608 -4.147,-3.282 -6.795,-3.664c-0.795,-0.115 -1.321,-0.686 -2.235,-0.631c-3.12,0.19 -5.447,1.902 -7.803,3.611c-0.812,0.589 -1.222,1.525 -1.223,2.527c0.686,-1.866 2.577,-1.77 3.732,-2.751c-0.068,0.217 -0.136,0.433 -0.221,0.702c1.312,-0.726 2.52,-1.394 3.728,-2.062l0.158,0.248c-2.07,0.844 -3.131,2.891 -4.997,3.997c1.63,-0.428 2.739,-1.733 4.326,-2.315c2.438,-0.895 3.695,-1.397 4.698,-0.854c-1.881,-0.2 -3.257,0.873 -4.771,1.656c-1.091,0.564 -1.812,1.538 -2.822,2.162c0.307,-0.36 0.614,-0.72 0.921,-1.081c-1.179,0.404 -1.824,1.29 -2.293,2.357c0.442,-0.411 0.885,-0.821 1.328,-1.232l-0,0Zm27.544,153.745c-0.06,-0.051 -0.114,-0.113 -0.182,-0.152c-0.845,-0.485 -4.977,-0.146 -5.652,0.478c-0.401,0.371 -0.062,0.651 0.237,0.646c1.928,-0.032 3.951,0.409 5.634,-1.003c-0.034,0.903 -0.803,1.002 -1.406,1.22c-0.933,0.338 -1.892,0.608 -2.848,0.88c-0.529,0.15 -0.976,0.215 -0.336,0.869c0.435,0.446 0.717,1.044 1.053,1.583c0.335,0.535 0.237,0.909 -0.442,0.986c-0.675,0.078 -1.378,-0.022 -2.033,-0.018c-1.842,0.01 -3.687,-0.477 -5.61,-0.781c1.27,-0.26 2.445,-0.103 3.734,0.186c-0.325,-0.559 -0.455,-1.055 -0.89,-1.38c0.521,-0.479 0.895,-1.072 0.726,-1.775c-0.158,-0.657 -0.82,-0.808 -1.404,-0.934c-0.237,-0.052 -0.65,-0.133 -0.54,0.34c0.21,0.895 -0.066,2.068 1.261,2.375c-0.238,0.009 -0.661,-0.041 -0.685,0.034c-0.297,0.958 -0.884,0.439 -1.438,0.361c-1.58,-0.22 -3.047,-0.995 -4.689,-0.918c-0.335,0.015 -0.725,-0.023 -0.801,0.314c-0.077,0.345 0.337,0.35 0.591,0.441c0.291,0.103 0.65,0.173 0.569,0.618c-0.037,0.206 -0.163,0.421 -0.367,0.423c-1.643,0.018 -3.286,0.01 -5.031,0.01c0.54,-0.257 0.995,-0.21 1.47,-0.183c0.43,0.025 0.976,0.189 1.15,-0.519c0.061,-0.247 0.203,-0.38 -0.113,-0.546c-0.468,-0.245 -0.987,-0.367 -1.33,0.036c-0.562,0.658 -1.274,0.512 -1.961,0.553c-0.465,0.029 -1.062,0.241 -1.348,-0.191c-0.376,-0.567 0.254,-0.893 0.548,-1.288c0.108,-0.146 0.136,-0.352 0.198,-0.525c-0.398,-0.269 -1.272,-0.09 -1.125,-0.294c0.936,-1.291 -0.719,-0.464 -0.696,-0.93c1.039,-0.369 2.558,-0.194 3.907,0.45c0.814,0.389 0.81,0.387 1.304,-0.419c0.044,-0.071 0.19,-0.135 0.27,-0.117c1.03,0.231 2.131,-0.281 3.169,0.325c-0.489,0.514 -1.166,-0.018 -1.673,0.34c0.693,0.855 1.912,0.451 2.104,0.07c0.598,-1.191 1.095,-0.458 1.755,-0.12c-0.434,-0.286 0.563,-0.785 -0.229,-0.91c-0.898,-0.142 -1.805,-0.264 -2.711,-0.299c-6.304,-0.241 -12.61,-0.278 -18.919,-0.179c-3.47,0.055 -6.947,0.208 -10.405,-0.306c-0.86,-0.128 -1.729,-0.5 -2.599,-0.206c-2.347,0.793 -4.337,2.137 -5.454,4.387c-0.706,1.423 -1.603,2.328 -3.198,2.499c-0.433,0.047 -0.864,0.159 -1.282,0.286c-1.478,0.445 -1.923,1.027 -2.03,2.578c-0.271,3.903 -0.554,7.806 -0.811,11.71c-0.03,0.466 -0.282,0.964 -0.011,1.428c0.828,-1.155 0.666,-2.402 0.579,-3.662c-0.048,-0.709 -0.184,-1.643 0.184,-2.107c0.997,-1.256 0.513,-2.607 0.579,-3.917c0.052,-1.035 -0.032,-2.076 -0.033,-3.114c-0.001,-1.367 0.572,-2.186 1.858,-2.604c0.604,-0.196 1.235,-0.323 1.862,-0.439c1.067,-0.197 2.399,0.27 2.939,-1.217c0.025,-0.071 0.215,-0.116 0.328,-0.115c1.062,0.008 2.122,-0.305 3.345,-0.097c-0.775,0.41 -1.622,0.064 -2.253,0.71c0.214,0.093 0.314,0.174 0.415,0.176c3.672,0.038 7.365,0.331 11.01,0.039c5.247,-0.42 10.437,0.026 15.853,0.302c-0.79,0.144 -1.372,0.271 -1.961,0.354c-2.414,0.34 -4.836,0.499 -7.27,0.235c-3.86,-0.418 -7.744,0.432 -11.597,-0.227c-1.1,-0.188 -2.151,-0.277 -2.865,0.836c0.097,0.266 0.311,0.318 0.567,0.338c1.866,0.15 3.732,0.307 5.597,0.468c0.265,0.023 0.72,-0.094 0.743,0.206c0.097,1.253 0.109,2.514 0.11,3.772c0,0.119 -0.273,0.276 -0.448,0.35c-1.586,0.67 -2.729,1.93 -3.999,3.011c-1.376,1.171 -2.719,2.384 -4,3.803c0.433,0.092 0.508,-0.127 0.639,-0.249c2.228,-2.065 4.528,-4.042 7.008,-5.8c0.268,-0.19 0.572,-0.655 0.898,-0.373c0.325,0.282 0.19,0.735 -0.156,1.045c-0.909,0.52 -1.832,1.022 -2.487,1.898c0.524,-0.229 1.054,-0.481 1.454,-0.867c0.346,-0.332 1.172,-0.251 0.994,-1.066c0.37,0.067 0.661,0.222 0.667,0.742c0.316,-0.76 0.231,-1.298 -0.002,-2.027c-0.347,-1.086 -0.083,-2.36 -0.129,-3.553c-0.017,-0.44 -0.254,-0.896 0.507,-0.876c0.573,0.015 0.989,0.083 1.02,0.826c0.059,1.462 0.199,2.922 0.306,4.383c0.119,-1.498 0.137,-2.993 0.111,-4.488c-0.012,-0.683 0.384,-0.988 0.945,-0.975c0.636,0.015 0.366,0.608 0.37,0.933c0.031,2.047 0.016,4.095 0.016,6.143c0.128,-0.001 0.256,-0.001 0.384,-0.002c0,-1.83 -0.002,-3.66 0.002,-5.49c0.001,-0.558 -0.176,-1.243 0.081,-1.643c0.373,-0.578 0.923,0.152 1.435,0.182c1.883,0.111 2.308,1.072 1.255,2.882c-0.207,-1.214 -0.922,-1.074 -1.764,-0.843c-0.977,0.269 -0.399,0.979 -0.476,1.478c-0.072,0.462 0.001,0.961 0.093,1.428c0.081,0.41 -0.309,1.143 0.391,1.16c0.628,0.016 1.587,0.3 1.741,-0.881c0.034,-0.267 -0.083,-0.655 0.371,-0.915l0,8.274c0.378,-3.852 0.09,-7.743 0.898,-11.643c0.328,1.014 1.061,0.943 1.691,0.73c0.728,-0.246 1.327,0.115 1.983,0.192c0.244,0.028 0.475,0.16 0.439,0.463c-0.037,0.307 -0.292,0.357 -0.539,0.34c-0.712,-0.05 -1.48,0.029 -2.119,-0.218c-0.735,-0.285 -0.845,-0.067 -0.845,0.56c-0,1.398 -0.019,2.796 -0.011,4.194c0.007,1.179 -0.001,2.363 0.397,3.5c0.084,0.389 -0.399,0.704 -0.165,1.107c0.363,-0.019 0.388,-0.615 0.831,-0.484c0.125,0.38 -0.101,0.79 0.259,1.245c-0.153,-0.864 0.314,-1.604 -0.091,-2.338c-0.125,-1.099 1.418,-1.831 0.745,-3.133c-0.256,0.24 -0.104,0.712 -0.531,0.645c-0.276,-0.043 -0.294,-0.341 -0.334,-0.572c-0.034,-0.196 -0.055,-0.396 -0.065,-0.595c-0.123,-2.392 -0.122,-2.419 2.231,-2.363c0.465,0.011 0.704,-0.041 0.697,-0.503c-0.015,-0.877 -0.413,-1.793 0.392,-2.565c0.149,-0.142 -0.108,-0.328 -0.291,-0.429c-0.181,-0.1 -0.362,-0.26 -0.112,-0.441c0.185,-0.135 0.426,-0.219 0.654,-0.264c0.255,-0.051 0.337,0.141 0.339,0.363c0.003,0.28 0.007,0.56 -0.005,0.839c-0.116,2.654 -0.249,5.308 0.151,8.174c0.32,-0.736 0.263,-1.267 0.14,-1.811c-0.164,-0.72 -0.164,-1.655 0.446,-1.929c1.431,-0.64 0.716,-1.8 0.909,-2.732c0.063,-0.306 0.051,-0.627 0.073,-0.941c0.06,0.002 0.121,0.003 0.181,0.004l0,4.788c-0.375,-0.285 0.05,-0.858 -0.51,-0.869c-0.188,0.146 -0.169,0.3 -0.136,0.461c0.271,1.348 0.448,2.63 -0.993,3.548c-0.449,0.287 -0.337,0.637 0.117,1.288c0.1,-0.984 0.487,-1.735 1.397,-2.206c0.072,1.354 0.139,2.616 0.221,4.181c0.477,-4.197 0.544,-8.099 0.296,-12c-0.071,-1.126 0.252,-1.775 1.409,-1.881c1.902,-0.176 3.826,0.062 5.72,-0.303c0.354,-0.068 0.639,0.047 0.616,0.498c-0.026,0.518 -0.035,1.038 -0.084,1.554c-0.019,0.206 -0.02,0.534 -0.388,0.404c-0.196,-0.069 -0.476,-0.079 -0.446,-0.441c0.036,-0.427 0.008,-0.86 0.008,-1.291c-0.808,2.677 -1.205,5.364 -0.938,8.391c0.611,-2.172 0.527,-4.152 0.789,-6.296c0.82,2.598 0.538,5.081 0.681,7.619c0.389,-0.319 0.328,-0.616 0.331,-0.882c0.036,-2.911 0.054,-5.822 0.332,-8.723c0.033,-0.34 -0.101,-0.859 0.396,-0.863c1.667,-0.014 3.353,-0.313 4.994,0.019c0.824,0.167 0.644,1.145 0.795,1.802c0.035,0.154 0.099,0.47 -0.167,0.492c-0.684,0.055 -0.727,-0.63 -1.06,-0.987c-0.034,-0.037 -0.144,-0.005 -0.236,-0.005c-0.071,0.29 0.363,0.819 -0.215,0.839c-0.626,0.021 -0.362,-0.851 -0.824,-1.081c-0.697,0.888 -1.52,0.656 -2.258,-0.635c-0.581,0.873 -0.787,2.246 -0.443,3.391c0.264,-0.588 0.358,-1.327 1.223,-0.933c0.803,0.365 0.31,0.938 0.287,1.433c-0.039,0.89 -0.407,1.748 -0.293,2.961c0.371,-1.408 0.665,-2.523 0.998,-3.79c0.245,0.311 0.413,0.445 0.477,0.617c0.726,1.966 -0.092,5.519 -1.953,6.458c-0.934,0.471 -0.731,1.099 -0.942,1.586c-0.446,1.029 -0.574,2.195 -0.833,3.305c0.478,-0.58 0.639,-1.24 0.905,-1.854c0.522,-1.201 1.009,-2.443 2.042,-3.32c0.296,-0.251 0.972,-0.626 0.894,0.187c-0.17,1.778 0.324,3.656 -0.784,5.322c-0.355,0.534 -0.725,1.173 -0.562,1.992c0.468,-0.411 0.688,-0.803 0.699,-1.324c0.006,-0.267 0.271,-0.722 0.41,-0.576c0.546,0.569 0.445,0.133 0.483,-0.232c0.189,-1.848 0.065,-3.721 0.457,-5.556c0.113,-0.525 0.236,-0.991 0.814,-1.184c0.281,1.136 -0.074,2.26 0.024,3.642c0.604,-1.553 0.62,-2.92 0.712,-4.285c0.064,0.62 0.128,1.24 0.195,1.887c0.389,-0.239 0.093,-0.7 0.491,-1.023l-0,1.725c0.48,-0.854 0.416,-1.798 0.639,-2.67c0.23,-0.9 -0.937,-1.622 -0.058,-2.519c-0.78,-0.088 -0.757,0.618 -1.172,0.902c-0.044,-0.515 0.041,-0.917 0.227,-1.313c0.154,-0.327 0.144,-0.663 -0.281,-0.749c-0.347,-0.071 -0.752,-0.083 -0.895,0.367c-0.095,0.301 -0.117,0.624 -0.186,0.935c-0.039,0.18 -0.193,0.264 -0.356,0.245c-0.092,-0.01 -0.229,-0.112 -0.248,-0.195c-0.138,-0.622 -0.359,-1.363 0.004,-1.847c0.324,-0.433 1.066,-0.276 1.533,0.025c0.356,0.228 0.516,0.229 0.913,0.039c1.337,-0.643 2.409,0.013 2.494,1.496c0.062,1.073 0.037,2.154 -0.01,3.229c-0.014,0.305 0.416,1.155 -0.603,0.747c-0.022,-0.009 -0.276,0.434 -0.341,0.687c-0.103,0.399 0.272,0.376 0.448,0.322c0.565,-0.171 0.564,0.189 0.595,0.552c0.028,0.308 -0.132,0.657 0.139,0.971c0.361,-0.413 0.204,-0.833 0.257,-1.216c0.259,-1.874 -0.359,-3.773 0.515,-5.679c0.399,-0.872 0.896,-0.451 1.227,-0.506c0.535,-0.089 0.568,0.416 0.448,0.937c-0.28,1.215 -1.23,2.172 -1.123,3.832c-0.496,-0.963 -0.262,-1.647 -0.53,-2.265c-0.53,1.765 -0.222,3.535 -0.218,5.39c0.586,-0.207 0.256,-0.629 0.532,-0.766c0,0.357 -0.035,0.719 0.007,1.073c0.118,1.001 0.127,1.87 -1.068,2.339c-0.555,0.218 -0.529,0.795 -0.17,1.585c0.908,-1.32 1.891,-2.61 1.606,-4.231c0.349,-0.3 0.369,0.97 0.694,-0.051c0.151,-0.475 0.34,-0.939 0.512,-1.407c-0.172,1.724 0.029,3.464 -0.498,5.118c-0.088,0.274 -0.171,0.621 0.073,0.783c0.327,0.217 0.439,-0.193 0.636,-0.361c0.553,-0.471 0.967,-1.055 1.366,-1.649c0.044,-0.066 -0.026,-0.209 -0.043,-0.313c-0.38,0.03 -0.374,0.566 -0.823,0.513c-0.217,-1.185 0.945,-1.045 1.551,-1.492c-0.202,0.942 -0.405,1.885 -0.642,2.986c0.635,-1.054 2.157,-0.779 2.318,-2.163c0.366,0.297 0.353,0.564 0.137,0.708c-1.543,1.03 -2.045,2.997 -3.619,3.998c-0.221,0.14 -0.7,0.267 -0.345,0.667c0.212,0.24 0.584,0.137 0.722,-0.132c0.771,-1.494 2.426,-2.114 3.357,-3.442c0.325,0.28 -0.17,1.169 0.635,1.018c0.668,-0.126 0.369,-0.768 0.344,-1.214c-0.166,-3.01 -0.27,-6.024 -0.654,-9.019c-0.248,-1.941 -0.449,-3.887 -0.707,-5.826c-0.08,-0.6 -0.271,-1.193 -1.193,-0.928c0.211,0.397 0.426,0.729 0.568,1.089c0.153,0.388 0.179,0.79 -0.249,1.06c-0.323,0.204 -0.619,0.574 -1.042,0.163c-0.185,-0.179 -0.4,-0.213 -0.66,-0.175c-0.695,0.102 -0.596,-0.282 -0.43,-0.724c0.139,-0.369 0.462,-0.517 0.743,-0.737c0.397,-0.312 0.519,-0.698 -0.15,-0.782c-0.523,-0.065 -0.976,-0.272 -1.46,-0.431c-0.978,-0.322 -1.52,0.193 -1.387,1.163c-0.623,0.075 -1.142,-0.434 -1.882,-0.188c-0.325,0.108 -1.234,0.186 -1.408,-0.25c-0.409,-1.024 -1.254,-0.89 -1.997,-0.964c-2.362,-0.233 -4.735,-0.364 -7.073,-0.993c0.215,-0.295 0.476,-0.181 0.685,-0.172c3.544,0.157 7.092,0.266 10.629,0.519c2.358,0.169 4.62,0.226 6.788,-1.007c1.244,-0.708 2.569,-1.285 3.76,-2.094c0.243,-0.165 0.711,-0.327 0.305,-0.824c-0.246,-0.302 -0.243,-0.912 -0.865,-0.661c-0.742,0.299 -1.165,-0.018 -1.569,-0.615c-0.367,-0.544 -0.958,-0.827 -1.597,-0.992l0.001,-0.001Zm-15.053,-96.363c-0.218,0.158 -0.506,0.121 -0.716,0.369c-1.366,1.614 -2.781,3.187 -4.141,4.806c-0.69,0.822 -1.107,1.786 -1.095,3.042c1.041,-0.626 2.079,-1.11 2.979,-2.18c-0.984,0.247 -1.426,1.186 -2.574,1.104c0.887,-1.556 1.927,-2.789 2.949,-4.037c0.857,-1.045 1.933,-1.907 2.597,-3.112c-0.248,0.469 0.44,0.697 0.299,1.121c-0.712,2.155 -0.148,4.359 -0.189,6.532c-0.027,1.448 -0.214,3.003 0.551,4.438c0.086,0.16 0.688,1.091 -0.051,1.571c0.61,0.782 -0.486,1.263 -0.348,1.946c0.169,0.842 -0.253,1.213 -1.093,1.382c0.786,0.373 1.48,0.73 2.367,0.605c-0.269,0.936 -0.975,1.718 -0.925,2.864c0.369,-0.19 0.627,-0.323 1.034,-0.533c-0.298,0.723 -1.062,0.923 -1.169,1.747c0.932,-0.477 1.715,-0.877 2.499,-1.278c-0.593,0.921 -1.309,1.651 -1.989,2.412c-0.751,0.838 -0.239,1.831 -0.289,2.755c0.193,-0.047 0.387,-0.094 0.495,-0.12c-0.536,1.772 -2.212,2.868 -2.91,4.598c1.413,-1.143 2.264,-2.8 3.684,-4.03c0.372,0.79 -0.233,1.065 -0.476,1.466c-0.635,1.044 0.345,0.463 0.583,0.573c-0.294,0.489 -0.574,0.954 -0.981,1.63c0.871,-0.39 1.412,-0.832 2.21,-0.852c-1.103,1.601 -3.16,2.627 -2.74,4.982c0.505,0.033 0.607,-0.547 1.335,-0.547c-1.741,1.099 -1.347,2.617 -1.345,4.186c0.476,-0.356 0.84,-0.63 1.418,-1.063c-0.512,0.855 -1.311,1.209 -1.332,2.067c0.474,0.109 0.565,-0.546 0.941,-0.47c0.081,0.783 -1.38,0.848 -0.674,2.06c0.293,0.502 -1.333,0.909 -1.458,1.886c0.416,0.083 0.62,-0.206 0.826,-0.415c0.795,-0.806 1.095,-0.338 1.379,0.457c0.171,0.479 0.011,0.762 -0.334,1.026c-0.431,0.332 -0.718,0.726 -0.706,1.311c0.023,1.152 0.005,2.306 0.028,3.459c0.006,0.311 -0.03,0.84 0.226,0.88c1.317,0.206 0.35,1.044 0.213,1.204c-0.41,0.479 -0.663,1.097 -1.225,1.472c0.405,-0.089 0.742,-0.281 1.101,-0.411c0.28,-0.101 0.591,-0.236 0.817,0.161c0.464,0.815 0.14,2.141 -0.678,2.657c-0.338,0.213 -0.701,0.391 -1.017,0.631c-0.316,0.24 -0.731,0.609 -0.594,0.953c0.159,0.398 0.748,0.366 1.166,0.459c0.134,0.03 0.297,-0.097 0.452,-0.135c0.189,-0.046 0.437,-0.378 0.556,0.028c0.077,0.264 0.417,0.415 0.192,0.841c-0.359,0.678 -0.874,1.19 -1.463,1.681c0.54,0.512 1.14,0.033 1.692,0.268c-0.232,0.631 -0.824,0.844 -1.302,1.171c-0.32,0.219 -0.606,0.512 -0.466,0.882c0.173,0.46 0.617,0.241 0.927,0.147c0.518,-0.155 1.014,-0.386 1.796,-0.693c-1.07,1.308 -1.315,2.859 -2.999,3.341c-0.753,0.215 -1.345,0.995 -2.022,1.529c1.758,0.194 3.157,-0.676 4.687,-1.156c-0.499,0.883 -0.895,1.763 -1.708,2.362c0.503,0.344 0.92,-0.19 1.212,-0.024c0.586,1.288 -0.366,1.598 -1.108,2.042c-0.307,0.184 -0.707,0.354 -0.559,0.798c0.156,0.471 0.611,0.338 0.923,0.24c0.511,-0.161 1.142,-0.36 1.383,0.126c0.164,0.329 -0.315,0.843 -0.717,1.142c-0.068,0.051 -0.071,0.188 -0.116,0.319c0.213,-0.035 0.368,-0.061 0.523,-0.086c-0.179,0.404 -0.12,0.647 0.395,0.581c-0.031,0.535 -0.536,0.758 -0.765,1.162c-0.249,0.439 -0.5,0.878 -0.765,1.342c0.56,0.103 0.957,-0.362 1.458,-0.199c0.007,0.412 -0.239,0.709 -0.489,0.921c-0.954,0.809 -0.863,1.897 -0.911,2.974c-0.025,0.574 0.313,0.799 0.715,0.651c1.25,-0.459 1.746,-0.049 1.663,1.234c-0.004,0.059 0.168,0.13 0.392,0.293c0.44,-2.931 0.223,-5.804 0.539,-8.808c0.088,0.275 0.146,0.378 0.151,0.483c0.384,7.941 0.84,15.881 0.285,23.833c-0.025,0.359 -0.26,0.879 0.373,0.937c0.509,0.047 0.803,-0.249 0.825,-0.797c0.027,-0.678 0.142,-1.356 0.127,-2.032c-0.129,-5.871 -0.186,-11.745 -0.457,-17.61c-0.164,-3.549 0.143,-7.129 -0.428,-10.643c-0.358,-2.202 -0.988,-4.36 -0.884,-6.617c0.037,-0.812 0.001,-1.666 0.623,-2.649c0.027,2.053 -0.119,3.807 0.171,5.555c0.134,-0.899 0.251,-1.803 0.257,-2.707c0.058,-8.108 0.056,-16.217 0.082,-24.325c0.042,-13.388 -0.654,-26.758 -0.73,-40.142c-0.014,-2.598 -0.056,-5.196 0.211,-7.784c0.192,-1.857 1.13,-2.873 2.842,-3.429c0.938,-0.304 1.816,0.019 2.718,-0.03c4.016,-0.216 7.964,0.395 11.912,0.979c1.471,0.218 2.87,0.656 3.901,1.85c0.269,0.312 1.004,0.297 0.884,0.832c-0.175,0.772 0.355,0.641 0.794,0.787c-0.046,-0.453 0.163,-0.892 -0.177,-1.291c0.125,-0.135 0.407,-0.292 0.254,-0.457c-0.606,-0.653 -1.263,-1.259 -1.9,-1.882c0.215,1.108 1.177,1.552 1.685,2.371c-1.313,-0.814 -2.581,-1.687 -3.643,-2.823c-1.094,-1.168 -1.002,-1.968 0.334,-2.965c-1.631,-0.15 -1.784,0.015 -1.7,1.594c0.031,0.577 0.17,1.235 -0.65,1.869c0.311,-1.77 -0.662,-2.912 -1.229,-4.195c-0.37,-0.837 -0.154,-1.177 0.79,-1.142c4.447,0.168 6.583,-1.432 7.849,-5.748c0.439,-1.497 -0.073,-2.641 -1.044,-3.789c-0.305,0.841 0.179,1.602 -0.091,2.308c-0.445,0.142 -0.342,-0.995 -0.947,-0.331c0.013,-0.273 0.026,-0.545 0.04,-0.817c1.212,0.06 0.509,-0.747 0.501,-1.18c-0.027,-1.382 -0.805,-2.515 -1.326,-3.766c0.634,0.403 1.143,0.95 1.76,1.313c1.204,0.706 1.564,2.033 1.749,3.101c0.256,1.48 -0.114,3.085 -0.318,4.623c-0.173,1.297 -0.96,2.317 -2.016,3.002c-1.554,1.008 -3.08,2.16 -5.088,2.141c-0.463,-0.004 -0.929,0.097 -1.013,0.756c1.674,-0.526 3.268,-0.896 4.828,0.077c0.541,0.337 0.904,0.007 1.266,-0.315c1.124,-1.001 2.075,-2.165 2.453,-3.624c0.673,-2.597 2.251,-5.124 0.823,-7.945c0.451,-1.804 -1.007,-3.073 -1.326,-4.671c-0.171,-0.854 -0.959,-1.34 -1.727,-1.729c-0.746,-0.378 -1.485,-0.773 -2.242,-1.13c-0.297,-0.14 -0.612,-0.571 -0.944,-0.231c-0.307,0.316 -0.118,0.743 0.054,1.118c0.219,0.477 0.591,0.765 1.092,0.837c0.786,0.112 1.304,0.596 1.784,1.168c-0.712,-0.239 -1.384,-0.561 -2.073,-0.838c-1.678,-0.676 -1.87,-0.941 -1.877,-2.756c-0.001,-0.239 0.036,-0.477 0.058,-0.715c0.05,-0.537 -0.226,-0.756 -0.717,-0.646c-1.128,0.253 -2.25,0.535 -3.369,0.823c-0.153,0.04 -0.468,0.127 -0.233,0.379c0.502,0.54 -0.115,0.58 -0.32,0.629c-1.586,0.387 -3.145,0.916 -4.798,0.978c-0.365,0.013 -0.712,0.069 -0.968,-0.288c-0.469,-0.655 -1.082,-0.586 -1.706,-0.283c-0.413,0.201 -0.677,0.367 -1.059,-0.187c-0.236,-0.342 -0.917,-0.417 -1.417,-0.527c-1.021,-0.223 -2.128,-0.171 -2.804,-1.234c-0.267,-0.421 -0.951,-0.254 -1.105,-0.067c-0.496,0.597 0.079,2.361 0.819,2.698c0.654,0.297 1.403,0.324 2.063,0.536c1.15,0.371 2.209,-0.175 3.401,0.001c3.02,0.445 6.115,-0.205 9.141,-0.632c0.883,-0.125 1.057,0.014 1.34,0.605c0.124,0.258 0.078,0.598 0.586,0.578c2.565,-0.1 4.418,1.2 5.935,3.105c-1.116,-0.734 -2.133,-1.637 -3.399,-2.143c-1.411,-0.565 -1.867,-0.269 -2.76,0.298c-0.885,0.563 -1.12,1.926 -2.434,1.901c-0.174,-0.004 -0.445,0.135 -0.392,0.654c1.108,-0.94 2.622,-0.39 3.696,-1.491c0.545,-0.559 1.543,-0.221 2.005,0.384c0.427,0.559 -0.014,1.036 -0.82,1.098c0.2,0.137 0.257,0.198 0.327,0.221c1.681,0.544 2.456,1.604 2.019,3.416c-0.094,0.386 -0.094,0.825 0.133,1.174c0.148,-0.158 0.28,-0.298 0.412,-0.438c-0.032,0.468 0.063,0.995 -0.12,1.394c-0.504,1.104 -1.03,2.194 -1.469,3.33c-0.628,1.626 -2.64,2.52 -4.264,2.006c-1.221,-0.387 -2.435,-0.385 -3.599,0.229c-0.209,0.11 -0.691,0.228 -0.274,0.521c0.694,0.488 0.335,1.047 0.268,1.603l-0.013,0.015c-0.721,-0.141 -1.227,0.747 -2.027,0.375c-1.62,-0.754 -3.351,-0.401 -5.043,-0.428c-0.535,-0.009 -1.217,-0.603 -1.46,0.417c-0.001,0.007 -0.265,0.005 -0.317,-0.062c-0.575,-0.739 -0.97,-0.306 -1.57,0.062c-0.599,0.368 -1.363,0.471 -2.174,0.267c-2.015,-0.507 -3.733,0.058 -4.487,2.077c0.387,0.23 0.96,-0.19 1.319,0.349c-0.59,0.481 -1.565,0.457 -1.792,1.488c0.337,-0.185 0.585,-0.321 1.028,-0.564c-0.987,1.551 -1.851,2.911 -2.459,4.425c1.017,-0.706 1.228,-2.143 2.498,-2.626c-0.671,1.336 -1.59,2.496 -2.654,3.535c-0.722,0.704 -0.757,0.668 -0.422,1.62c1.139,-1.487 2.607,-2.549 4.157,-3.536c-0.726,0.871 -1.452,1.742 -2.191,2.63c0.45,0.224 0.559,-0.452 0.935,-0.252c-0.181,0.677 -1.055,0.741 -1.214,1.557c0.501,-0.321 0.906,-0.58 1.311,-0.839c-0.491,1.037 -1.148,1.917 -1.804,2.798c-0.321,0.433 -0.667,0.976 -0.178,1.382c0.467,0.389 0.711,-0.282 1.036,-0.517c0.143,-0.104 0.272,-0.227 0.407,-0.342c-0.348,0.816 -0.822,1.528 -1.266,2.26c-0.084,0.139 -0.278,0.316 -0.093,0.529c0.303,0.346 0.307,0.348 0.195,0.568c-0.181,0.359 -0.482,0.806 -0.261,1.12c0.474,0.675 0.085,1.27 0.013,1.9l-0.001,-0Zm-5.475,-31.3c-2.056,-0.134 -2.37,-0.459 -2.511,-2.577c-0.222,-3.344 0.32,-6.459 2.677,-9.034c0.66,-0.722 0.759,-1.486 -0.105,-2.026c-1.26,-0.787 -2.389,-1.729 -3.558,-2.631c-0.833,-0.644 -1.607,-0.617 -2.404,0.24c-1.085,1.166 -2.247,2.266 -3.537,3.224c-1.46,1.084 -1.392,1.902 0.178,2.878c0.76,0.473 1.575,1.01 1.775,1.873c0.775,3.358 0.976,6.735 -0.162,10.077c-0.082,0.241 -0.264,0.26 -0.459,0.299c-1.586,0.325 -3.244,0.565 -4.801,0.546c-1.609,-0.02 -3.227,0.136 -4.842,0.027c2.635,0.752 5.344,0.725 8.067,0.799c-2.63,0.358 -5.303,0.339 -7.79,1.468c-0.015,-0.521 0.295,-0.585 0.59,-0.719c0.226,-0.103 0.614,-0.258 0.474,-0.574c-0.152,-0.343 -0.529,-0.326 -0.823,-0.111c-0.777,0.566 -1.874,0.396 -2.569,1.272c-0.231,-0.71 -0.06,-1.261 -0.004,-1.864c-1.024,0.482 -0.794,1.557 -1.057,2.422c-0.18,-0.739 -0.274,-1.463 -0.359,-2.188c-0.02,-0.175 0.065,-0.569 -0.074,-0.488c-0.903,0.525 -0.794,-1.422 -1.752,-0.693c-0.041,0.031 -0.198,-0.373 -0.053,-0.5c0.779,-0.681 1.21,-1.659 2.093,-2.699c-0.144,0.789 -0.412,1.078 -0.639,1.398c-0.243,0.342 -0.668,0.693 -0.334,1.153c0.169,0.234 0.52,0.442 0.805,0.466c0.631,0.051 0.15,-0.747 0.574,-0.937c0.609,1.439 0.604,1.309 2.307,1.244c1.796,-0.068 3.566,-0.385 5.356,-0.414c1.39,-0.023 2.776,-0.314 4.173,-0.039c0.455,0.09 0.748,-0.211 0.915,-0.615c0.097,-0.235 0.079,-0.495 -0.088,-0.678c-0.421,-0.459 -0.578,0.147 -0.867,0.234c-0.262,0.078 -0.541,0.105 -0.815,0.136c-2.408,0.278 -4.835,-0.456 -7.244,0.141c-0.415,0.103 -0.868,-0.029 -1.008,-0.566c0.441,-0.348 0.891,0.246 1.377,-0.06c-0.995,-0.601 -2.073,-1.043 -2.868,-1.787c-0.927,-0.869 -1.517,-0.545 -2.214,0.158c-1.304,1.314 -2.16,2.963 -3.302,4.398c-0.639,0.801 -0.527,1.341 0.488,1.639c0.229,0.067 0.442,0.187 0.668,0.263c0.714,0.241 1.251,0.406 1.298,1.471c0.071,1.615 0.643,1.75 2.06,0.929c2.91,-1.688 6.077,-2.603 9.407,-2.959c0.961,-0.102 1.915,0.041 2.831,0.369c0.403,0.144 0.746,0.432 1.094,-0.182c0.233,-0.412 0.634,-0.623 -0.029,-1.021c-0.228,-0.137 -0.118,-0.606 0.071,-0.864c0.312,0.14 0.153,0.533 0.503,0.551c0.23,-0.276 -0.044,-0.785 0.361,-0.964c-0.069,2.622 0.635,5.198 0.351,7.831c-0.272,-0.159 -0.333,-0.39 -0.371,-0.628c-0.195,-1.201 0.2,-2.511 -0.939,-3.532c-0.414,-0.372 -0.644,-0.808 -1.294,-0.835c-1.367,-0.058 -2.705,0.027 -4.03,0.395c-1.595,0.444 -1.733,0.626 -1.623,2.542c0.553,-0.845 1.092,-1.636 2.217,-1.475c0.257,0.036 0.357,-0.084 0.419,-0.302c0.316,-1.117 1.193,-0.746 1.905,-0.667c0.713,0.08 1.189,0.461 1.064,1.29c-0.024,0.161 -0.202,0.464 0.148,0.416c0.886,-0.123 0.599,0.5 0.636,0.923c0.187,2.133 -0.151,4.312 0.629,6.396c0.34,0.91 0.931,1.763 0.638,3.006c0.366,-0.616 0.02,-1.213 0.703,-1.718c0.235,1.458 0.428,2.742 0.204,4.169c-0.412,-0.456 -0.451,-0.929 -0.59,-1.399c-0.25,1.011 0.265,2.199 -0.973,3.027c-0.043,-1.355 0.549,-2.583 -0.074,-3.804c-0.568,2.227 -1.607,4.247 -2.413,6.356c-0.216,0.565 -0.137,1.017 0.567,1.168c1.416,0.304 2.564,1.04 3.515,2.133c0.422,0.483 0.983,0.754 1.568,0.221c1.31,-1.192 2.926,-1.771 4.569,-2.268c0.714,-0.217 0.762,-0.615 0.526,-1.163c-0.188,-0.438 -0.398,-0.883 -0.682,-1.261c-1.037,-1.376 -1.378,-2.935 -1.354,-4.62c0.012,-0.837 -0.004,-1.682 -0.1,-2.513c-0.098,-0.854 -0.175,-1.734 -0.65,-2.51c-0.316,1.453 -1.02,2.799 -0.801,4.312c0.21,1.453 0.415,2.908 0.622,4.361c-0.102,0.009 -0.204,0.018 -0.305,0.027c-1.012,-2.459 -1.504,-4.978 -0.405,-7.563c0.445,-1.047 0.686,-2.121 0.863,-3.219c0.061,-0.377 0.206,-0.963 -0.564,-0.876c-0.249,0.028 -0.372,-0.071 -0.339,-0.333c0.022,-0.167 0.082,-0.368 0.263,-0.323c0.348,0.087 0.552,0.01 0.581,-0.356c0.041,-0.502 -0.507,-0.269 -0.692,-0.536c0.224,-0.346 0.978,-0.496 0.577,-1.086c-0.627,-0.922 0.215,-1.562 0.408,-2.295c0.211,-0.804 0.819,0.217 1.215,0.017c0.191,-0.671 -1.062,-0.549 -0.591,-1.249c0.359,-0.532 1.002,-0.422 1.531,-0.455c3.085,-0.194 6.025,0.222 8.774,1.818c2.736,1.589 2.777,1.511 4.477,-1.25c0.245,-0.399 0.436,-0.915 0.917,-1.052c1.112,-0.314 1.463,-1.023 0.815,-2.003c-0.682,-1.03 -1.456,-2.001 -2.203,-2.987c-0.469,-0.618 -0.856,-1.344 -1.743,-1.523c-0.152,0.371 0.19,0.817 -0.302,1.087c-2.565,1.409 -5.151,2.777 -8.173,2.796c-0.637,0.004 -1.235,0.03 -1.865,0.142c-1.373,0.245 -2.775,0.416 -4.115,-0.211c-0.196,-0.092 -0.516,-0.133 -0.429,-0.457c0.076,-0.281 0.345,-0.295 0.594,-0.272c0.828,0.075 1.648,0.053 2.451,-0.178l-0.001,0.001Zm-20.352,72.472c-0.083,0.201 -0.101,0.329 -0.173,0.41c-0.671,0.749 -1.09,1.457 0.219,1.991c0.287,0.117 0.297,0.477 0.197,0.616c-0.8,1.112 -0.385,2.365 -0.464,3.557c-0.021,0.317 -0.128,0.52 -0.462,0.595c-0.607,0.135 -0.634,0.341 -0.107,0.698c0.634,0.431 0.585,1.349 -0.104,1.646c-0.402,0.173 -0.754,0.152 -0.78,0.8c-0.028,0.724 0.393,0.894 1.005,1.084c-1.137,0.402 -1.176,0.561 -0.452,1.475c-0.457,0.218 -1.183,0.037 -1.214,0.866c-0.057,1.497 -0.358,2.988 -0.175,4.527c0.417,-0.082 0.575,-0.48 0.974,-0.502c1.092,-0.059 0.994,-0.659 0.568,-1.369c-0.297,-0.495 -0.433,-1.019 -0.361,-1.602c0.071,-0.568 0.477,-0.563 0.886,-0.549c0.44,0.015 0.476,0.243 0.413,0.645c-0.071,0.461 -0.033,0.947 0.012,1.417c0.13,1.359 -0.299,2.229 -1.82,2.277c-0.503,0.016 -0.756,0.322 -0.781,0.866c-0.07,1.475 -0.199,2.947 -0.271,4.422c-0.015,0.31 -0.147,0.658 0.307,0.908c0.734,0.405 0.779,1.529 0.046,1.911c-0.537,0.28 -0.492,0.646 -0.515,1.073c-0.151,2.872 -0.297,5.743 -0.456,8.614c-0.167,3.013 -0.346,6.026 -0.52,9.038c0.041,-1.369 0.945,-2.657 0.45,-4.08c-0.098,-0.281 -0.072,-0.805 0.224,-0.86c0.806,-0.148 0.454,-0.863 0.63,-1.227c0.422,-0.063 0.507,0.492 0.89,0.31c0.093,-0.782 -0.654,-1.726 -0.167,-2.205c1.081,-1.064 0.108,-1.341 -0.707,-2.019c0.914,0.25 0.939,-0.096 0.67,-0.523c-0.186,-0.296 -0.504,-0.497 -0.482,-0.916c0.068,-1.305 0.301,-2.604 0.109,-3.919c-0.036,-0.251 0,-0.602 0.386,-0.632c0.41,-0.032 0.563,0.269 0.601,0.604c0.066,0.587 0.228,1.171 0.04,1.771c-0.114,0.361 -0.124,0.714 0.53,0.825c-0.123,-1.45 0.245,-2.915 -0.783,-4.164c-0.134,-0.163 -0.25,-0.457 -0.113,-0.539c0.705,-0.422 0.252,-0.978 0.179,-1.476c0.446,-0.051 0.269,0.64 0.636,0.506c0.24,-0.088 0.214,-0.482 0.321,-0.718c0.702,-1.561 -0.587,-3.044 -0.031,-4.53c-0.512,-0.205 -0.793,0.268 -1.309,0.31c0.354,-0.496 0.55,-0.918 0.874,-1.179c0.258,-0.207 0.197,-0.813 0.703,-0.654c0.513,0.161 0.365,0.664 0.365,1.033c0.003,1.994 0.006,3.99 -0.047,5.983c-0.073,2.703 -0.076,5.417 -0.336,8.104c-0.215,2.225 0.174,4.46 -0.272,6.668c-0.272,1.34 -0.492,2.691 -0.797,4.381c0.275,-0.459 0.36,-0.602 0.486,-0.811c0.415,2.135 0.078,4.212 0.148,6.285c0.182,-1.143 0.253,-2.291 0.326,-3.429c0.639,-9.885 1.076,-19.776 1.105,-29.688c0.039,-13.378 -0.251,-26.756 0.137,-40.136c0.15,-5.145 -0.008,-10.297 0.44,-15.438c0.13,-1.491 0.383,-3.011 0.174,-4.635c-0.519,0.442 -0.44,0.884 -0.396,1.317c0.022,0.229 0.157,0.495 -0.101,0.657c-1.052,0.658 -0.97,1.751 -1.001,2.749c-0.141,4.472 -0.234,8.945 -0.345,13.418c-0.013,0.522 0.071,0.952 0.426,1.424c0.545,0.727 0.686,1.921 0.09,2.41c-0.894,0.733 -0.646,1.514 -0.672,2.328c-0.009,0.3 0.14,0.577 0.082,0.923c-0.371,2.211 -0.309,4.451 -0.359,6.683c-0.006,0.247 -0.078,0.737 0.252,0.681c0.898,-0.153 0.63,0.501 0.66,0.877c0.037,0.456 0.073,0.931 -0.69,0.956c-0.461,0.014 -0.61,0.518 -0.318,0.912c0.178,0.24 0.251,0.386 0.205,0.712c-0.238,1.705 -0.047,3.417 -0.023,5.128c0.011,0.834 0.478,0.286 0.837,0.408l0.001,0.001Zm34.344,46.836c-0.039,-0.02 -0.078,-0.04 -0.118,-0.06c-0.127,-2.791 -0.251,-5.582 -0.384,-8.372c-0.092,-1.917 -0.212,-3.837 0.036,-5.746c0.154,-1.185 0.492,-2.348 0.435,-3.556c-0.205,-4.352 -0.108,-8.708 -0.171,-13.062c-0.244,-16.822 -0.349,-33.643 -0.164,-50.466c0.013,-1.277 -0.444,-2.559 -0.714,-4.008c-0.434,0.657 -0.33,1.192 -0.332,1.69c-0.027,5.834 -0.079,11.668 -0.04,17.502c0.117,17.577 -0.597,35.157 0.198,52.73c0.24,5.306 -0.199,10.63 0.469,15.922c0.098,0.774 0.229,1.526 0.571,2.247c0.332,-0.192 0.237,-0.621 0.615,-0.715c0.005,0.993 0.168,1.905 0.465,3.062c0.094,-1.286 0.076,-2.312 -0.029,-3.344c0.221,0.728 0.37,1.464 0.548,2.194c0.077,0.321 -0.076,0.818 0.416,0.879c0.394,0.049 0.799,-0.101 1.033,-0.482c0.402,-0.656 0.866,-0.829 1.457,-0.049c0.186,-2.27 -0.832,-4.195 -0.805,-6.394c-0.188,1.111 0.098,2.137 -0.381,3.349c-0.587,-1.95 -0.633,-3.721 -1.011,-5.45l-0,4.182c-0.579,-3.398 -0.254,-6.596 -0.732,-9.744l0,9.065c-0.288,-3.467 -0.465,-6.936 -0.65,-10.411l-0,11.648c-0.028,-4.273 -0.51,-8.523 -0.712,-12.787l-0,10.176Zm-30.085,-105.942c-0.828,0.465 -1.612,0.685 -1.685,2.01c-0.418,7.579 -0.195,15.181 -0.858,22.749c-0.338,3.871 0.122,7.748 -0.054,11.619c-0.225,4.949 -0.521,9.894 -0.359,14.852c0.307,9.347 0.253,18.7 0.075,28.045c-0.213,11.141 -0.452,22.287 -1.119,33.415c-0.038,0.642 0.069,0.968 0.802,0.955c3.076,-0.053 6.154,-0.017 9.228,-0.111c4.954,-0.152 9.904,-0.14 14.856,0.073c0.403,0.017 0.864,0.442 1.251,-0.171c-0.969,0.116 -1.834,-0.341 -2.765,-0.376c-0.534,-0.02 -0.749,-0.674 -1.478,-0.491c-2.259,0.569 -4.586,0.39 -6.881,0.204c-0.883,-0.072 -1.73,-0.095 -2.61,0.01c-3.059,0.368 -6.127,0.622 -9.183,-0.028c-2.048,-0.435 -2.429,-1.047 -1.992,-3.044c0.051,-0.232 0.033,-0.484 0.106,-0.708c0.094,-0.292 -0.279,-0.854 0.311,-0.844c0.6,0.011 -0.135,0.61 0.277,0.83c0.151,-0.334 0.377,-0.729 0.161,-1.016c-0.986,-1.305 -0.687,-2.792 -0.663,-4.23c0.065,-4.074 0.335,-8.151 0.214,-12.219c-0.156,-5.274 -0.002,-10.545 -0.029,-15.816c-0.027,-5.107 0.517,-10.216 0.548,-15.325c0.048,-7.988 -0.054,-15.975 0.535,-23.95c0.088,-1.19 0.39,-2.383 0.062,-3.871c-0.073,0.746 -0.117,1.211 -0.184,1.891c-0.285,-0.96 -0.142,-1.709 -0.092,-2.451c0.139,-2.072 0.291,-4.143 0.453,-6.214c0.524,-6.67 -0.34,-13.327 -0.194,-19.993c0.043,-1.996 -0.543,-4.142 1.266,-5.796l0.001,0.001Zm39.53,121.599c0.367,-0.3 0.728,-0.608 1.102,-0.897c0.705,-0.545 1.627,-0.724 2.361,-0.525c0.453,0.122 0.795,0.167 1.137,-0.013c0.214,-0.113 0.063,-0.438 -0.009,-0.664c-0.157,-0.494 -0.498,-0.609 -1.005,-0.638c-2.007,-0.118 -3.726,0.801 -5.495,1.493c-0.744,0.291 -0.932,0.959 -0.814,1.844c0.526,3.955 1.774,7.785 2.031,11.784c0.015,0.237 -0.008,0.532 0.152,0.636c0,-2.302 0.021,-4.656 -0.015,-7.008c-0.008,-0.52 -0.109,-0.876 0.62,-0.95c0.784,-0.08 0.734,0.373 0.771,0.862c0.121,1.595 0.25,3.189 0.377,4.784c0.055,-0.002 0.111,-0.004 0.167,-0.007l-0,-2.567c0.138,1.888 0.041,3.781 0.336,5.658c0.058,-0.277 0.073,-0.554 0.088,-0.831c0.161,-3.022 -0.222,-6.055 0.248,-9.078c0.164,-1.056 -0.117,-2.146 -0.581,-3.145c-0.29,-0.624 -0.582,-1.24 -1.471,-0.738Zm-7.382,-44.07c0,-1.451 0.041,-3.129 -0.007,-4.804c-0.155,-5.428 -0.446,-10.855 -0.497,-16.283c-0.151,-16.093 0.14,-32.192 -0.886,-48.269c-0.062,-0.985 -0.201,-2.145 1.264,-2.441c0.238,-0.048 0.526,-0.307 0.594,-0.685c-1.068,0.059 -1.787,0.68 -2.379,1.429c-0.273,0.346 -0.524,1.138 -0.08,1.213c0.523,0.089 0.417,0.265 0.426,0.549c0.057,1.755 0.166,3.51 0.161,5.264c-0.025,10.105 0.114,20.209 0.182,30.314c0.076,11.346 0.557,22.669 1.222,33.713l0,0Zm-59.115,-83.793c-0.191,0.925 -0.341,1.851 0.33,2.682c0.131,0.162 0.335,0.392 0.182,0.62c-0.367,0.548 -0.381,0.536 -0.045,1.002c0.98,1.356 2.347,2.266 3.696,3.193c0.764,0.524 1.176,1.126 0.837,2.119c-0.203,0.596 -0.181,1.254 -0.124,1.9c0.08,0.899 0.443,1.131 1.352,0.893c1.196,-0.313 2.067,-1.12 3.088,-1.701c2.028,-1.155 4.238,-1.847 6.535,-2.247c0.363,-0.063 0.696,-0.159 1.004,-0.355c0.317,-0.2 0.647,-0.469 0.558,-0.846c-0.116,-0.494 -0.597,-0.282 -0.914,-0.258c-3.275,0.249 -6.489,0.774 -9.524,2.117c-0.466,0.206 -0.869,0.412 -0.956,0.954c-0.013,0.085 0.088,0.267 0.147,0.272c0.469,0.041 0.669,-0.374 0.967,-0.618c0.488,-0.399 1.053,-0.618 1.462,-0.037c0.683,0.972 -0.459,0.942 -0.845,1.255c-0.642,0.522 -1.519,0.901 -2.186,0.273c-0.605,-0.57 -0.056,-1.326 0.256,-1.959c0.052,-0.107 0.136,-0.2 0.176,-0.311c0.329,-0.913 0.041,-2.399 -0.594,-2.568c-1.038,-0.278 -1.786,-0.92 -2.611,-1.549c-1.63,-1.24 -2.553,-2.789 -2.791,-4.831l0,-0Zm28.287,-27.726c0.123,-0.936 -0.164,-1.941 0.686,-2.477c1.058,-0.666 1.679,0.409 2.333,0.935c0.482,-0.226 -0.143,-0.816 0.426,-0.905c0.878,-0.137 0.96,-0.942 1.362,-1.503c0.795,-1.113 0.145,-2.83 1.636,-3.646c-1.045,0.774 -2.4,1.429 -2.637,2.644c-0.368,1.884 -1.393,2.153 -2.954,1.918c-0.311,-0.047 -0.637,0.015 -0.957,0.022c-1.61,0.031 -1.659,0.034 -1.541,1.601c0.336,4.47 0.2,8.941 0.137,13.414c-0.003,0.276 -0.124,0.591 0.218,0.944c0.833,-5.124 0.434,-10.133 0.268,-15.165c0.341,0.74 0.682,1.479 1.023,2.218Zm-26.41,28.957c0.799,1.308 2.078,2.16 3.251,3.087c0.797,0.63 1.696,1.505 2.723,0.075c-0.96,-0.39 -2.3,0.137 -2.834,-1.184c-0.405,-0.999 -1.263,-1.929 -0.171,-3.099c-0.589,0.409 -1.014,0.698 -1.278,-0.115c-0.144,-0.438 -0.458,-0.743 -0.775,-1.044c-0.175,-0.166 -0.222,-0.657 -0.666,-0.256c-0.278,0.251 -0.578,0.415 -0.399,0.872c0.092,0.235 0.458,0.459 0.207,0.731c-1.152,1.25 0.014,2.02 0.612,2.91c-0.223,-0.659 -0.446,-1.318 -0.67,-1.977l0,-0Zm4.617,-10.115c-1.377,0.418 -2.382,1.3 -3.3,2.334c-1.074,1.21 0.418,2.515 -0.078,3.278c-0.119,-1.498 1.363,-2.106 2.794,-2.705c0.802,-0.336 1.668,-0.517 2.501,-0.781c0.263,-0.084 0.574,-0.19 0.517,-0.549c-0.051,-0.319 -0.322,-0.435 -0.626,-0.43c-0.279,0.004 -0.557,0.053 -0.834,0.047c-0.361,-0.007 -0.697,0.449 -1.09,0.002c-0.393,-0.446 0.31,-0.665 0.116,-1.196l0,0Zm19.221,-3.637c-3.828,2.627 -7.984,1.234 -11.866,1.87c0.794,0.121 1.587,0.116 2.368,0.207c0.581,0.067 1.315,0.022 1.636,0.565c0.277,0.469 0.422,0.574 0.957,0.415c0.375,-0.112 0.849,0.111 1.279,0.184c-0.294,0.367 -0.179,0.595 0.259,0.625c0.329,0.023 0.716,-0.096 0.76,-0.446c0.132,-1.043 0.869,-0.941 1.598,-0.962c1.489,-0.044 2.523,-0.812 3.009,-2.459l0,0.001Zm8.141,-3.186c0.528,1.766 0.666,3.469 0.493,5.311c-0.086,0.913 -0.318,1.311 -0.881,1.839c-0.448,0.42 -0.745,0.315 -0.998,-0.082c-0.588,-0.922 -0.882,-0.623 -1.254,0.179c-0.193,0.417 -0.538,0.957 -1.191,0.593c-0.154,-0.086 0.047,-0.697 -0.449,-0.314c-0.116,0.09 -0.265,0.24 -0.263,0.361c0.005,0.401 0.361,0.361 0.618,0.388c1.431,0.155 2.866,0.109 4.279,-0.123c0.727,-0.12 1.202,-0.605 1.023,-1.464c-0.245,-1.178 -0.215,-2.369 -0.205,-3.566c0.011,-1.172 -0.288,-2.27 -1.172,-3.122l0,-0Zm-23.996,147.197c0.245,-1.183 0.873,-1.762 1.933,-1.309c1.842,0.785 3.02,0.605 4.436,-0.873c-0.915,0.026 -1.806,-0.127 -2.635,-0.295c-0.869,-0.177 -1.595,0.449 -2.341,0.153c-0.49,-0.195 -0.933,-0.038 -1.39,-0.108c0.329,0.79 -1.152,1.448 -0.003,2.431l0,0.001Zm47.095,-120.421c-0.642,0.224 -0.587,0.741 -0.647,1.204c-0.03,0.232 -0.064,0.66 -0.114,0.663c-1.075,0.058 -0.512,0.691 -0.359,1.09c0.147,0.382 0.235,0.759 0.257,1.158c0.178,3.267 0.376,6.533 0.518,9.802c0.063,1.435 0.011,2.875 0.011,4.313c0.128,-0.004 0.255,-0.009 0.383,-0.013c0.037,-2.542 0.211,-5.083 0.024,-7.626c-0.259,-3.518 -0.804,-7.031 -0.073,-10.592l0,0.001Zm-15.931,139.183c-1.373,0.607 -2.794,1.026 -3.829,2.141c0.759,0.677 1.487,1.328 2.337,2.088c0.345,-1.542 1.927,-2.479 1.492,-4.229l-0,0Zm-15.924,-47.614c0.099,0.01 0.198,0.02 0.297,0.031c-0,-0.393 0,-0.785 -0,-1.178c-0.006,-3.269 -0.059,-6.537 0.2,-9.804c0.223,-2.822 0.328,-5.653 0.453,-8.482c0.023,-0.53 0.206,-1.166 -0.643,-1.773c0.28,7.248 -0.525,14.218 -0.306,21.206l-0.001,-0Zm16.324,35.488c0.085,-0.018 0.17,-0.037 0.255,-0.056c-0,-0.716 -0.021,-1.433 0.006,-2.148c0.026,-0.705 -0.142,-1.461 0.39,-2.065c0.378,-0.43 0.565,-0.915 0.247,-1.411c-0.207,-0.323 -0.63,-0.319 -0.989,-0.198c-0.612,0.206 -0.838,0.685 -0.863,1.294c-0.021,0.516 -0.038,1.032 -0.08,1.545c-0.236,2.938 -0.146,5.874 0.117,8.811c0.199,-2.942 0.19,-5.885 0.21,-8.828c0.003,-0.38 -0.278,-1.07 0.261,-1.079c0.667,-0.011 0.422,0.724 0.436,1.157c0.032,0.992 0.01,1.985 0.01,2.978Zm-35.058,-2.514c-1.342,0.248 -1.508,0.509 -1.325,2.101c0.04,0.348 0.016,0.783 0.474,0.855c0.373,0.059 0.537,-0.303 0.696,-0.566c0.638,-1.057 0.717,-2.351 1.451,-3.384c0.243,-0.343 0.253,-0.87 -0.208,-1.175c-0.399,-0.264 -0.877,-0.28 -1.235,0.011c-0.411,0.334 -0.406,0.851 -0.217,1.316c0.114,0.281 0.436,0.474 0.364,0.842l0,-0Zm31.891,-88.473c-0.889,1.155 -2.637,1.435 -3.134,2.894c-0.519,1.521 -1.723,2.461 -2.626,3.657c-0.131,0.174 -0.42,0.263 -0.272,0.797c2.171,-2.428 5.092,-4.031 6.032,-7.348Zm-20.679,-34.47c1.01,-0.208 1.896,-0.363 2.766,-0.579c0.411,-0.102 1.129,0.241 1.164,-0.465c0.031,-0.646 -0.059,-1.396 -0.784,-1.753c-0.315,-0.155 -0.672,-0.263 -1.021,-0.308c-2.041,-0.264 -3.962,0.288 -5.875,0.904c1.59,-0.196 3.183,-0.13 4.772,-0.147c0.479,-0.005 0.955,0.016 1.411,0.205c0.31,0.129 0.628,0.293 0.639,0.639c0.015,0.448 -0.44,0.395 -0.715,0.472c-0.789,0.223 -1.647,0.27 -2.357,1.032Zm36.913,-31.138c0.427,-2.048 0.796,-4.268 0.816,-6.525c0.013,-1.472 0.527,-2.815 1.046,-4.149c0.272,-0.701 0.664,-1.36 1.043,-2.015c0.266,-0.457 0.007,-0.661 -0.326,-0.849c-0.33,-0.186 -0.426,0.06 -0.465,0.307c-0.356,2.264 -1.605,4.241 -2.052,6.488c-0.174,0.872 0.38,1.531 0.245,2.412c-0.227,1.472 -0.54,2.982 -0.307,4.331l-0,-0Zm27.087,17.962c-0.446,0.272 -0.689,0.449 -0.846,0.75c-0.842,1.619 -2.052,2.919 -3.493,4.023c-0.273,0.208 -0.877,0.353 -0.464,0.875c0.322,0.407 0.704,0.11 1.061,-0.086c2.123,-1.163 3.094,-3.1 3.742,-5.562Zm-26.565,11.103c0.717,-1.411 1.761,-2.402 3.351,-2.582c1.46,-0.166 2.937,-0.348 4.369,0.234c1.218,0.494 2.452,0.343 4.036,0.052c-3.367,-0.748 -6.442,-0.631 -9.5,-0.576c-1.438,0.026 -2.197,1.087 -2.256,2.872Zm20.722,133.395c0.449,-1.423 0.475,-2.927 1.241,-4.229c0.071,-0.12 0.077,-0.343 0.014,-0.466c-0.492,-0.949 -0.39,-1.798 0.439,-2.668c-0.681,0.73 -1.402,0.18 -2.069,0.246c-0.381,0.038 -0.746,-0.189 -0.957,0.315c-0.205,0.49 -0.326,0.959 0.194,1.398c0.12,-0.573 0.151,-0.603 0.514,-0.558c1.294,0.161 1.463,0.451 1.192,1.767c-0.285,1.386 -0.712,2.756 -0.568,4.194l0,0.001Zm-77.079,-142.704c-0.183,0.281 -0.022,0.541 0.028,0.806c0.494,2.603 2.122,4.583 3.664,6.601c0.215,0.282 0.455,0.995 0.919,0.567c0.297,-0.274 0.308,-0.986 -0.019,-1.441c-0.201,-0.281 -0.514,-0.494 -0.806,-0.695c-1.633,-1.129 -2.741,-2.615 -3.236,-4.559c-0.112,-0.438 -0.094,-0.968 -0.55,-1.279Zm46.416,-21.863c0.033,-1.002 -0.41,-1.652 -1.691,-2.099c-1.136,-0.397 -2.481,-0.856 -3.031,-2.231c-0.567,-1.418 -0.973,-1.455 -1.816,-0.439c2.121,1.698 4.346,3.28 6.538,4.769Zm47.819,165.463c-1.523,1.502 -2.967,2.912 -3.988,4.692c-0.111,0.193 -0.285,0.462 -0.042,0.649c0.259,0.201 0.446,-0.048 0.57,-0.239c0.936,-1.45 2.254,-2.58 3.293,-3.942c0.212,-0.278 0.484,-0.551 0.167,-1.16Zm-61.111,-91.921c-1.416,1.598 -2.874,2.926 -3.52,4.859c-0.094,0.283 -0.389,0.646 0.02,0.829c0.416,0.185 0.484,-0.316 0.623,-0.55c0.76,-1.274 1.653,-2.476 2.157,-3.892c0.142,-0.399 0.648,-0.567 0.72,-1.246l0,0Zm0.934,-28.088c-0.056,-0.018 -0.109,-0.048 -0.122,-0.037c-0.906,0.847 -1.577,3.9 -1.086,4.974c0.043,0.093 0.172,0.199 0.266,0.204c0.293,0.015 0.277,-0.202 0.26,-0.411c-0.124,-1.451 0.476,-2.663 1.256,-3.818c0.02,-0.029 -0.061,-0.127 -0.097,-0.19c-0.352,-0.074 -0.397,0.6 -0.81,0.411c-0.074,-0.48 0.497,-0.694 0.333,-1.133l-0,0Zm40.52,-12.497c0.403,-0.198 1.151,-0.01 0.911,-0.938c-0.178,-0.689 -0.637,-0.444 -0.995,-0.462c-0.425,-0.021 -0.774,0.235 -1.18,0.549c0.324,0.139 0.533,0.229 0.739,0.317c-0.132,0.458 -0.741,0.303 -0.906,0.761c0.619,0.324 0.928,1.269 1.866,0.933c0.32,-0.115 0.458,-0.48 0.42,-0.798c-0.067,-0.558 -0.642,0.003 -0.855,-0.362Zm-41.269,95.188c2.265,-2.155 4.357,-4.488 6.769,-6.488c0.216,-0.179 0.666,-0.401 0.339,-0.74c-0.292,-0.303 -0.453,0.16 -0.62,0.323c-2.083,2.024 -4.151,4.062 -6.227,6.092c-0.235,0.23 -0.491,0.433 -0.261,0.813Zm-2.166,-87.815c-0.697,2.668 -0.127,5.282 0.335,7.901c0.222,-2.648 0.004,-5.277 -0.335,-7.901Zm-22.631,110.482c-0.82,0.036 -1.5,0.466 -1.472,1.155c0.027,0.701 0.936,0.816 1.505,0.832c0.682,0.02 1.202,-0.592 1.199,-1.221c-0.004,-0.684 -0.734,-0.693 -1.232,-0.766Zm26.823,-122.488c-0.171,0.116 -0.325,0.162 -0.347,0.244c-0.504,1.892 -0.508,3.854 -0.792,5.779c-0.037,0.246 0.032,0.495 0.374,0.463c0.434,-0.041 0.483,-0.309 0.419,-0.683c-0.178,-1.037 -0.037,-2.053 0.14,-3.085c0.148,-0.862 0.427,-1.744 0.207,-2.718l-0.001,-0Zm44.504,149.347c1.148,0.924 2.278,0.761 3.619,-0.453c-1.294,-0.961 -2.397,-0.296 -3.619,0.453Zm6.889,-4.314c0.923,-0.056 1.832,-0.074 2.102,-0.803c0.207,-0.79 -1.067,0.164 -0.428,-0.87c0.228,-0.37 -0.1,-0.435 -0.431,-0.428c-1.005,0.021 -2.027,0.734 -2.469,1.764c0.844,0.227 0.956,-0.854 1.64,-0.929c0.303,0.569 -0.38,0.803 -0.414,1.266Zm-4.432,-153.854c1.451,-2.602 1.338,-5.236 0.22,-7.89c0.498,2.646 0.314,5.272 -0.22,7.89Zm-95.55,148.552c1.464,-0.125 2.475,-0.901 3.235,-2.08c-2.316,-1.183 -2.142,1.429 -3.235,2.08Zm15.593,-147.616c0.614,-1.329 1.155,-2.672 1.48,-4.094c0.05,-0.223 0.257,-0.459 -0.073,-0.591c-0.267,-0.107 -0.437,0.089 -0.573,0.305c-0.857,1.352 -1.068,2.822 -0.834,4.38Zm18.968,108.937c-0.059,0.136 -0.16,0.268 -0.171,0.408c-0.234,2.856 -0.457,5.712 -0.681,8.568c-0.015,0.197 -0.03,0.465 0.253,0.398c0.314,-0.074 0.615,-0.284 0.477,-0.684c-0.38,-1.101 -0.117,-2.212 -0.066,-3.314c0.083,-1.775 0.151,-3.552 0.188,-5.376l0,-0Zm17.105,-16.233c1.727,-1.811 3.434,-3.641 5.196,-5.417c0.395,-0.398 0.283,-0.658 0.076,-1.203c-1.582,2.499 -3.896,4.171 -5.272,6.62Zm40.936,-86.938c1.892,0.218 2.428,-1.009 3.07,-1.925c1.165,-1.662 1.341,-2.323 1.237,-3.29c-1.289,1.807 -1.681,4.225 -4.307,5.215Zm-78.511,137.498c-0.319,-0.357 -0.437,-1.169 -0.983,-1.144c-0.552,0.025 -1.215,0.403 -1.424,1.082c-0.07,0.227 1.542,1.16 1.875,1.095c0.534,-0.105 0.46,-0.562 0.532,-1.033Zm13.386,-127.588c-1.597,0.482 -2.66,1.489 -4.119,1.374c0.483,0.448 0.767,1.404 1.435,0.979c0.885,-0.562 1.845,-1.145 2.684,-2.353l0,-0Zm43.534,-38.418c-0.089,-1.748 0.588,-3.008 0.789,-4.393c0.111,-0.761 0.789,-1.446 1.235,-2.15c0.149,-0.236 0.662,-0.418 0.221,-0.723c-0.394,-0.273 -0.507,0.234 -0.661,0.466c-1.259,1.902 -1.645,4.083 -1.965,6.28c-0.008,0.052 0.081,0.117 0.381,0.52l0,0Zm-59.554,172.873c1.335,-0.282 1.351,-1.725 2.281,-2.385c0.284,-0.202 -0.093,-1.13 -0.453,-1.735c-0.608,1.387 -0.893,2.89 -1.828,4.12Zm57.566,-159.672l-0.181,-0.264c-0.451,0.238 -0.887,0.51 -1.356,0.707c-1.005,0.423 -1.951,1.044 -3.148,0.833c-0.349,-0.062 -0.826,0.113 -0.851,0.597c-0.013,0.241 0.306,0.374 0.555,0.318c1.811,-0.408 3.552,-0.974 4.981,-2.191Zm15.192,148.583c0.022,-3.182 -0.144,-6.339 0.084,-9.497c-0.465,1.542 -0.539,3.116 -0.476,4.7c0.064,1.61 -0.059,3.235 0.392,4.796l-0,0.001Zm12.018,-133.62c1.427,-1.381 1.899,-3.126 2.704,-4.68c-1.406,1.209 -2.5,2.597 -2.704,4.68Zm-21.799,145.89c1.51,-0.154 2.619,-1.194 3.947,-1.742c0.139,-0.058 0.274,-0.178 0.36,-0.304c0.198,-0.294 0.025,-0.521 -0.185,-0.726c-0.284,-0.279 -0.655,-0.407 -0.977,-0.201c-0.462,0.297 0.015,0.344 0.171,0.524c0.274,0.318 -0.155,0.325 -0.285,0.463c-0.852,0.907 -2.07,1.23 -3.031,1.986l0,-0Zm11.506,-14.635c-0.206,-2.597 0.255,-5.275 -0.801,-8.152c-0.184,2.989 0.647,5.533 0.801,8.152Zm12.806,11.248c3.528,-2.116 3.678,-2.231 3.838,-2.925c-2.301,1.072 -3.58,2.047 -3.838,2.925Zm-48.968,-126.942c0.438,1.255 1.485,1.985 2.348,2.864c0.123,0.126 0.39,0.126 0.548,-0.039c0.128,-0.134 0.055,-0.295 -0.044,-0.425c-0.769,-1.001 -1.601,-1.93 -2.852,-2.4l-0,-0Zm7.873,-11.466c0.109,-2.976 -0.611,-5.905 -0.739,-8.888c-0.338,3.002 0.438,5.911 0.739,8.888Zm25.48,-0.527c1.139,0.173 2.273,0.431 3.418,0.495c1.19,0.066 2.161,0.591 3.113,1.238c-1.691,-2.443 -4.315,-1.444 -6.531,-1.733Zm-31.418,62.126c1.806,-1.956 3.612,-3.912 5.419,-5.868c-2.044,1.735 -3.906,3.639 -5.419,5.868Zm-2.266,14.625c-1.917,1.908 -3.834,3.816 -5.751,5.724c1.909,-1.923 3.897,-3.762 5.751,-5.724Zm39.767,-77.833c-0.271,-0.617 -0.118,-1.108 -0.621,-1.322c-0.376,-0.159 -0.213,-0.379 -0.035,-0.528c0.149,-0.124 0.425,-0.423 0.563,-0.123c0.339,0.733 0.595,0.014 0.861,-0.029c0.231,-0.038 0.181,-0.311 0.061,-0.489c-0.218,-0.326 -0.546,-0.528 -0.915,-0.386c-0.513,0.197 -1.121,0.434 -1.227,1.023c-0.143,0.794 0.359,1.318 1.313,1.853l0,0.001Zm9.73,146.548c-0.345,-0.361 -0.531,-0.559 -0.721,-0.753c-0.43,-0.441 -0.88,-0.704 -1.386,-0.11c-0.2,0.236 -0.818,0.276 -0.514,0.749c0.313,0.488 0.855,0.465 1.389,0.313c0.331,-0.093 0.682,-0.114 1.232,-0.199l0,-0Zm-16.011,-144.664c1.29,0.971 4.029,1.364 4.881,0.646c-1.75,-0.07 -3.302,-0.447 -4.881,-0.646Zm-0.195,-22.92c-1.665,-0.685 -4.277,-0.07 -4.77,1.13c1.481,-0.86 3.109,-0.789 4.77,-1.13Zm3.572,156.762c-1.241,0.078 -3.488,2.104 -3.775,3.382c1.162,-1.267 2.729,-1.969 3.775,-3.382Zm-27.589,-151.285c1.533,0.377 2.699,0.245 3.818,-0.408c-1.294,-0.783 -2.441,-0.414 -3.818,0.408Zm15.451,102.161c0.27,-2.897 -0.169,-5.793 -0.274,-8.702c-0.215,2.902 0.176,5.783 0.274,8.702Zm29.148,47.071c-0.355,0.313 -0.666,0.671 -1.051,0.906c-0.505,0.307 -0.838,0.7 -0.969,1.267c-0.048,0.204 -0.012,0.405 0.209,0.489c0.097,0.037 0.293,0.042 0.323,-0.009c0.51,-0.861 1.814,-1.263 1.488,-2.653l-0,-0Zm-84.842,6.571c0.233,-0.509 0.896,-0.338 0.985,-0.463c0.452,-0.636 0.817,-1.38 0.461,-2.346c-0.832,0.854 -1.38,1.695 -1.446,2.809l0,0Zm46.65,-39.364c0.482,-0.932 0.276,-2.043 0.986,-2.898c0.14,-0.168 0.12,-0.506 -0.091,-0.659c-0.272,-0.199 -0.391,0.092 -0.561,0.253c-1.065,1.008 -0.134,2.205 -0.334,3.304l-0,-0Zm-14.255,-84.202c-1.581,1.1 -2.433,2.766 -3.386,4.358c1.296,-1.32 2.189,-2.959 3.386,-4.358Zm-31.522,-19.193c1.022,0.561 1.809,1.28 1.965,2.497c0.031,0.242 0.063,0.653 0.446,0.575c0.431,-0.089 0.294,-0.487 0.265,-0.796c-0.15,-1.592 -1.411,-1.922 -2.676,-2.276Zm35.964,81.745c-1.509,1.528 -3.018,3.056 -4.527,4.581c1.607,-1.432 3.119,-2.957 4.527,-4.581Zm8.094,55.469c0.311,-0.986 1.589,-1.511 1.385,-3.047c-0.327,0.521 -0.501,0.797 -0.685,1.089c-0.268,-0.334 0.211,-0.614 -0.045,-0.956c-0.757,0.857 -0.57,1.918 -0.655,2.914Zm2.379,-22.311c0.575,-0.048 1.367,0.229 1.36,-0.68c-0.005,-0.722 -0.756,-0.307 -1.13,-0.428c-0.475,-0.153 -1.088,0.181 -1.106,0.763c-0.021,0.652 0.608,0.191 0.876,0.345l0,0Zm-22.744,-91.256c0.268,-1.456 -0.236,-2.753 -0.279,-4.077c-0.007,-0.203 -0.124,-0.529 -0.434,-0.419c-0.28,0.099 -0.227,0.415 -0.118,0.612c0.49,0.887 0.363,1.828 0.327,2.774c-0.014,0.358 -0.089,0.803 0.504,1.11Zm53.772,116.225c0.682,-0.736 0.732,-1.683 0.934,-2.575c0.034,-0.15 -0.06,-0.35 -0.242,-0.34c-0.125,0.007 -0.257,0.137 -0.362,0.238c-0.822,0.781 -0.326,1.754 -0.33,2.677Zm-42.178,-66.708c0.08,0.066 0.16,0.133 0.24,0.199c1.349,-1.51 2.699,-3.02 4.049,-4.531c-1.634,1.263 -3.022,2.743 -4.289,4.332Zm4.18,-74.864c0.478,-0.426 1.02,-0.739 0.639,-1.377c-0.301,-0.503 -0.388,-0.517 0.115,-0.753c0.208,-0.097 0.334,-0.136 0.31,-0.359c-0.02,-0.181 -0.155,-0.323 -0.323,-0.246c-0.578,0.264 -1.427,0.396 -1.064,1.337c0.164,0.423 0.027,0.869 0.323,1.398Zm25.276,-16.82c0.488,0.76 -0.743,1.239 -0.282,2.034c0.633,-0.617 1.188,-1.135 0.809,-2.064c-0.21,-0.514 -0.618,-0.413 -0.979,-0.442c-0.34,-0.028 -0.635,0.111 -0.628,0.529c0.002,0.148 0.021,0.376 0.113,0.43c0.532,0.311 0.518,-0.471 0.967,-0.487l0,-0Zm-32.404,113.501c-0.357,0.311 -0.738,0.601 -1.067,0.94c-0.72,0.744 -1.421,1.507 -2.115,2.276c-0.164,0.181 -0.267,0.456 -0.023,0.629c0.193,0.136 0.391,-0.044 0.468,-0.227c0.612,-1.444 2.012,-2.244 2.737,-3.618Zm18.136,-85.147c0.057,-0.004 0.114,-0.007 0.171,-0.01c-0,-1.024 -0.004,-2.048 0.002,-3.071c0.002,-0.36 0.06,-0.895 -0.348,-0.891c-0.509,0.004 -0.467,0.594 -0.412,0.955c0.156,1.012 0.387,2.012 0.587,3.017Zm1.089,-26.059c0.43,0.005 0.624,-0.65 0.958,-0.295c0.468,0.497 -0.472,0.769 -0.389,1.355c0.96,-0.388 1.319,-1.165 1.813,-1.964c-0.958,-0.068 -1.804,-0.152 -2.382,0.904Zm-10.166,9.113c-1.602,-0.345 -2.475,0.152 -2.552,1.215c-0.014,0.194 -0.02,0.412 0.184,0.518c0.183,0.095 0.327,-0.046 0.368,-0.189c0.249,-0.868 1.014,-1.136 1.999,-1.544l0.001,0Zm3.527,148.174c-1.695,0.792 -2.941,2.121 -4.033,3.622c1.45,-1.074 2.61,-2.479 4.033,-3.622Zm22.043,-1.398c-1.238,1.001 -2.314,2.137 -2.754,3.736c0.887,-1.266 1.907,-2.429 2.754,-3.736Zm-29.402,-4.463c-0.117,0 -0.234,0.001 -0.35,0.001c-0.146,1.456 -0.02,2.9 0.35,4.329l-0,-4.33Zm-0.914,-65.083c-1.137,0.747 -1.74,2.151 -3.171,2.535c-0.154,0.041 -0.214,0.248 -0.09,0.391c0.166,0.19 0.381,0.091 0.538,-0.013c1.121,-0.753 2.221,-1.531 2.723,-2.913Zm-24.21,70.37c0.031,-0.047 0.148,-0.141 0.153,-0.24c0.063,-1.276 0.737,-2.215 1.64,-3.037c0.159,-0.146 0.079,-0.277 -0.108,-0.327c-0.13,-0.035 -0.267,-0.22 -0.405,-0.009c-0.648,0.987 -1.449,1.891 -1.688,3.098c-0.049,0.245 -0.022,0.485 0.407,0.515l0.001,-0Zm26.039,7.041c0.433,-0.595 1.093,-0.912 1.531,-1.464c0.191,-0.24 0.518,-0.572 0.271,-0.83c-0.336,-0.351 -0.643,0.081 -0.9,0.276c-0.627,0.476 -0.915,1.153 -0.902,2.018l0,-0Zm51.251,-8.685c1.409,-0.73 2.208,-2.114 3.602,-3.183c-1.843,0.56 -2.517,2.108 -3.602,3.183Zm-87.352,-131.015c0.886,0.018 3.955,-0.9 4.487,-1.374c-1.55,0.506 -3.089,0.402 -4.487,1.374Zm46.99,139.359c-0.482,0.013 -1.15,0.116 -1.02,0.563c0.164,0.567 0.982,0.409 1.506,0.593c0.532,0.186 0.309,-0.326 0.338,-0.505c0.112,-0.7 -0.452,-0.584 -0.824,-0.651Zm3.977,-55.13c0.174,-1.313 0.556,-2.622 0,-3.946l0,3.946Zm-27.37,-35.643c-1.176,0.466 -1.893,1.507 -3.067,1.906c-0.229,0.078 -0.415,0.321 -0.262,0.569c0.163,0.263 0.413,0.158 0.607,-0.017c0.909,-0.817 1.815,-1.638 2.722,-2.458Zm5.285,-1.301c0.034,0.059 0.047,0.105 0.077,0.124c0.024,0.014 0.072,0.002 0.104,-0.011c1.063,-0.427 1.723,-1.303 2.413,-2.151c0.129,-0.16 0.306,-0.302 0.121,-0.488c-0.184,-0.186 -0.333,-0.038 -0.48,0.123c-0.74,0.809 -1.492,1.607 -2.235,2.403l0,0Zm20.974,-82.018c-0.748,1.076 -0.816,2.582 -0.218,4.051c0.073,-1.378 -0.17,-2.729 0.218,-4.051Zm-12.063,-6.876c0.848,-0.234 1.354,-0.768 1.858,-1.308c0.141,-0.152 0.258,-0.329 0.107,-0.512c-0.168,-0.205 -0.457,-0.263 -0.63,-0.084c-0.518,0.535 -1.208,0.966 -1.335,1.904l-0,0Zm-4.797,137.058c1.042,-0.942 2.083,-1.885 3.125,-2.828c-1.323,0.64 -2.409,1.533 -3.125,2.828Zm-10.061,-34.555c0.791,-1.315 1.94,-2.322 2.892,-3.49c-1.419,0.878 -2.471,2.107 -2.892,3.49Zm66.024,70.066c-1.072,0.536 -1.929,1.272 -2.718,2.543c1.082,-1.012 1.9,-1.778 2.718,-2.543Zm-61.153,-59.083c0.08,0.078 0.159,0.157 0.239,0.236c1.055,-1.143 2.11,-2.285 3.165,-3.428c-0.066,-0.059 -0.131,-0.119 -0.196,-0.178c-1.069,1.123 -2.139,2.247 -3.208,3.37Zm29.822,63.229c-0.022,-0.932 -0.176,-1.593 -0.843,-2.029c-0.213,-0.14 -0.374,-0.045 -0.402,0.213c-0.092,0.839 0.425,1.292 1.245,1.816Zm-29.614,-139.793c-0.081,1.286 -0.559,2.527 -0.353,3.817c0.507,-1.242 0.643,-2.519 0.353,-3.817Zm-4.721,73.556c-0.943,1.081 -1.885,2.161 -2.828,3.242l0.23,0.195c1.057,-0.984 1.93,-2.124 2.598,-3.437l-0,-0Zm-12.364,36.025c0.022,0.583 -0.367,1.105 0.141,1.428c0.419,0.265 0.948,0.269 1.439,-0.112c-0.534,-0.445 -1.003,-0.835 -1.58,-1.316Zm30.865,-119.555c-0.58,-0.097 -1.162,-0.183 -1.739,-0.295c-0.364,-0.07 -0.597,-0.047 -0.62,0.42c-0.03,0.613 0.228,0.301 0.551,0.288c0.613,-0.024 1.223,0.048 1.808,-0.413Zm-29.212,131.147c-0.58,0.135 -0.84,0.232 -1.104,0.246c-0.269,0.015 -0.542,-0.063 -0.814,-0.079c-0.302,-0.018 -0.626,0.006 -0.391,0.438c0.413,0.754 1.012,0.754 1.497,0.053c0.139,-0.201 0.391,-0.324 0.813,-0.658l-0.001,0Zm49.792,-131.889c0.352,-0.268 0.886,-0.434 0.941,-0.928c0.032,-0.298 -0.352,-0.514 -0.693,-0.465c-0.438,0.062 -0.682,0.366 -0.689,0.806c-0.004,0.268 0.052,0.549 0.441,0.587l-0,0Zm2.458,140.611c0.49,-1.37 0.243,-2.73 0,-4.092l0,4.092Zm-12.313,-129.859c-0.324,-0.014 -0.524,0.122 -0.463,0.325c0.179,0.603 0.681,0.826 1.259,0.881c0.23,0.022 0.571,-0.032 0.509,-0.323c-0.156,-0.723 -1.028,-0.43 -1.305,-0.883l-0,-0Zm-13.088,-39.679c0.762,-0.666 1.725,-1.162 1.877,-2.347c-0.664,0.75 -1.562,1.301 -1.877,2.347Zm5.933,180.949c0.88,-0.814 1.68,-1.686 2.09,-2.843c-0.961,0.755 -1.477,1.835 -2.09,2.843Zm13.586,-138.151c1.168,0.377 2.254,1.127 3.586,0.739c-1.209,-0.184 -2.387,-0.507 -3.586,-0.739Zm-55.989,-17.278c-0.086,-0.099 -0.171,-0.198 -0.257,-0.298c-0.8,0.706 -1.599,1.411 -2.399,2.116c0.078,0.086 0.155,0.173 0.232,0.259l2.424,-2.077Zm40.15,109.595c0.788,-0.185 1.264,-0.61 1.606,-1.309c-0.861,0.053 -1.837,-0.18 -1.606,1.309Zm-51.576,45.903c0.41,-0.963 1.522,-0.261 2.096,-0.986c-1.678,-0.442 -1.745,-0.413 -2.096,0.986Zm29.16,-139.907c1.047,-0.815 1.898,-1.81 2.493,-3.01c-0.952,0.895 -1.87,1.818 -2.493,3.01Zm15.276,12.788c-1.193,0.57 -1.687,1.759 -2.475,2.695c1.203,-0.546 1.649,-1.794 2.475,-2.695Zm-3.539,82.333c-0.083,-0.076 -0.165,-0.152 -0.247,-0.227c-0.944,0.895 -1.888,1.79 -2.832,2.685c0.067,0.07 0.134,0.14 0.201,0.21c0.96,-0.889 1.919,-1.779 2.878,-2.668l-0,0Zm5.95,-123.262c-0.583,0.199 -0.791,0.678 -1.074,1.085c-0.165,0.237 -0.216,0.54 0.058,0.733c0.263,0.186 0.393,-0.142 0.59,-0.226c0.823,-0.351 -0.202,-1.17 0.426,-1.592Zm5.022,16.77c0.622,0.468 1.055,1.258 2.128,1.245c-0.617,-0.739 -1.154,-1.337 -2.128,-1.245Zm-19.675,99.31c0.826,-1.053 1.653,-2.105 2.48,-3.157c-1.065,0.858 -1.994,1.816 -2.48,3.157Zm-1.081,-51.151l0.357,0.11c0.324,-0.92 0.648,-1.84 0.973,-2.76c-0.622,0.817 -1.285,1.613 -1.33,2.65Zm2.584,26.381c-0.727,0.943 -1.455,1.886 -2.182,2.829c1.101,-0.67 1.802,-1.632 2.182,-2.829Zm35.7,-80.776c-0.197,-0.256 -0.414,-0.266 -0.643,-0.221c-0.558,0.109 -1.08,0.307 -1.236,0.917c-0.062,0.244 0.212,0.338 0.393,0.217c0.467,-0.312 1.08,-0.402 1.486,-0.913l0,-0Zm-13.323,30.42c0.019,-0.01 0.037,-0.02 0.055,-0.03l0,-4.019l-0.055,0l0,4.049l0,0Zm14.909,118.246c0.738,-0.676 1.393,-1.421 1.762,-2.372c-0.759,0.659 -1.503,1.326 -1.762,2.372Zm-36.113,-152.691c0.306,-0.929 0.137,-1.553 -0.626,-2.217c0.051,0.857 -0.009,1.542 0.626,2.217Zm-5.71,4.28c-0.595,-0.374 -1.08,-0.692 -1.579,-0.986c-0.173,-0.102 -0.399,-0.122 -0.54,0.057c-0.171,0.217 0.029,0.363 0.172,0.477c0.532,0.418 1.097,0.731 1.947,0.452Zm-11.261,157.479c0.513,0.876 0.839,1.45 1.425,1.794c0.183,0.107 0.479,0.157 0.649,-0.076c0.137,-0.187 0.062,-0.456 -0.145,-0.468c-0.756,-0.045 -0.992,-0.837 -1.929,-1.25Zm21.783,-82.601c0.863,-0.485 1.545,-1.157 2.091,-1.97c-0.791,0.559 -1.614,1.084 -2.091,1.97Zm22.547,-57.12c-1.046,-0.512 -2.061,-0.363 -3.048,0.168c1.008,-0.172 2.017,-0.233 3.048,-0.168Zm-18.414,-20.855c0.192,-0.175 0.665,-0.326 0.441,-0.542c-0.277,-0.266 0.214,-0.819 -0.358,-0.814c-0.392,0.003 -0.671,0.3 -0.638,0.689c0.024,0.283 0.239,0.544 0.555,0.668l0,-0.001Zm8.193,160.778c0.647,-0.332 0.998,-0.766 0.949,-1.427c-0.013,-0.177 -0.238,-0.215 -0.37,-0.114c-0.478,0.368 -0.918,0.766 -0.579,1.541l0,-0Zm-31.016,-11.674c-1.123,0.408 -1.747,1.344 -2.434,2.215l2.434,-2.215Zm48.191,13.243c0.308,-0.062 0.539,-0.214 0.478,-0.554c-0.055,-0.303 -0.139,-0.703 -0.505,-0.704c-0.452,-0.002 -0.521,0.416 -0.517,0.778c0.005,0.33 0.221,0.484 0.544,0.48l-0,0Zm-19.184,-80.676c-0.411,0.714 -0.782,1.356 -1.186,2.055c1.245,-0.497 1.356,-0.686 1.186,-2.055Zm-5.918,1.019c-0.749,-0.545 -0.769,-0.529 -1.83,1.653c0.778,-0.702 1.302,-1.176 1.83,-1.653Zm-15.129,-15.647c-0.487,0.468 -1.319,0.498 -1.524,1.302c-0.043,0.171 0.202,0.332 0.313,0.262c0.556,-0.351 1.189,-0.648 1.328,-1.398c0.005,-0.027 -0.043,-0.063 -0.117,-0.166Zm7.282,-0.241c-0.887,0.649 -1.659,1.403 -2.203,2.37c0.906,-0.632 1.611,-1.45 2.203,-2.37Zm13.834,-67.298c-0.052,-0.374 -0.282,-0.573 -0.63,-0.628c-0.376,-0.061 -0.632,0.094 -0.662,0.491c-0.027,0.357 0.212,0.502 0.527,0.5c0.301,-0.002 0.666,0.077 0.765,-0.363l0,0Zm-13.761,68.916c0.063,0.064 0.127,0.128 0.19,0.192c0.716,-0.784 1.432,-1.568 2.148,-2.353c-0.052,-0.046 -0.105,-0.092 -0.157,-0.138c-0.727,0.766 -1.454,1.533 -2.181,2.299Zm2.495,15.364c-0.884,0.418 -1.358,1.122 -2.013,1.89c1.06,-0.347 1.694,-0.884 2.013,-1.89Zm-33.751,70.271c-0.457,0.622 -0.5,1.239 -0.562,1.845c-0.003,0.028 0.228,0.138 0.279,0.104c0.594,-0.396 0.304,-1.075 0.486,-1.608c0.016,-0.046 -0.072,-0.127 -0.204,-0.341l0.001,0Zm26.777,-138.166c-0.691,0.746 -1.382,1.492 -2.073,2.239c0.856,-0.587 1.62,-1.256 2.073,-2.239Zm33.188,-11.509c0.544,-0.508 1.197,-0.932 1.546,-1.961c-0.996,0.494 -1.408,1.113 -1.546,1.961Z" style="fill-rule:nonzero;"/>
      <path d="M242.984,338.648c1.651,-2.133 3.244,-4.276 3.561,-7.093c0.125,0.918 -0.528,1.614 -0.471,2.764c1.144,-1.206 2.096,-2.253 2.934,-3.442c1.063,-1.51 1.093,-3.387 1.953,-4.959c0.513,-0.936 1.231,-1.747 1.507,-2.835c0.471,-1.858 0.319,-2.298 -1.393,-3.113c-1.255,-0.597 -2.307,-0.503 -3.524,0.316c0.461,-1.406 2.096,-1.443 5.058,-0.112c0.303,-1.523 0.653,-1.926 2.121,-2.195c-1.548,0.857 -2.057,1.937 -1.493,3.436c0.071,0.187 -0.035,0.489 -0.146,0.689c-0.432,0.78 0.056,1.692 -0.515,2.529c-0.361,0.528 0.754,0.337 0.936,0.812c-0.199,0.309 -0.616,0.339 -0.829,0.223c-1.203,-0.656 -1.379,0.252 -1.632,1.023c-0.205,0.622 -0.464,1.243 -0.439,1.981c2.623,-1.533 2.921,-1.536 3.949,0.122c-0.998,-0.576 -1.871,-1.06 -2.767,-0.268c-0.71,0.628 -1.552,1.082 -2.082,1.943c-1.859,3.024 -4.599,5.338 -6.727,8.179l-0.001,-0Z" style="fill-rule:nonzero;"/>
      <path d="M131.627,353.814c-0.525,-0.701 -1.226,-0.352 -1.882,-0.292c0.026,-0.254 -0.013,-0.545 0.234,-0.651c0.333,-0.144 0.966,0.068 0.939,-0.469c-0.028,-0.561 -0.716,-0.305 -1.283,-0.61c0.991,-0.348 1.756,-0.4 2.357,0.348c0.549,0.684 1.069,0.652 1.741,0.197c0.909,-0.614 1.903,-1.043 3.04,-0.796c0.856,0.187 1.224,-0.805 2.234,-0.892c-1.995,1.843 -3.486,3.74 -4,6.269c-0.248,-1.385 0.499,-2.451 1.012,-3.799c-1.992,0.902 -2.266,3.072 -3.744,4.216c0.045,-0.942 0.179,-1.415 0.858,-2.106c0.975,-0.99 1.817,-2.135 3.079,-2.813c0.204,-0.11 0.496,-0.217 0.393,-0.508c-0.141,-0.401 -0.437,-0.187 -0.694,-0.102c-1.696,0.566 -2.985,1.646 -3.969,3.117c-0.264,0.395 -0.533,0.786 -0.983,1.449c0.169,-1.345 0.97,-2.064 1.267,-3.037c-0.358,-0.021 -0.627,0.024 -0.599,0.471l-0,0.008l-0,-0Z" style="fill-rule:nonzero;"/>
      <path d="M170.564,315.669c0.597,-0.128 0.609,0.359 0.741,0.711c0.42,1.116 0.462,2.349 1.095,3.407c0.171,0.287 -0.033,0.831 0.608,0.733c0.057,-0.009 0.188,0.106 0.187,0.109c-0.805,1.467 0.781,1.439 1.487,2.207c-0.957,-0.149 -1.437,-1.125 -2.316,-0.762c0.152,-0.646 -0.711,-0.99 -0.501,-1.623c0.09,-0.273 0.001,-0.459 -0.082,-0.674c-0.085,-0.22 -0.14,-0.525 -0.42,-0.518c-0.272,0.007 -0.33,0.291 -0.381,0.528c-0.076,0.348 -0.126,0.708 -0.255,1.036c-0.082,0.208 -0.364,0.551 -0.424,0.525c-1.122,-0.479 -1.216,0.628 -1.948,1.335c0.176,-0.893 0.457,-1.386 0.929,-1.782c0.119,-0.1 0.308,-0.122 0.417,-0.229c0.509,-0.499 1.089,-1.037 1.029,-1.783c-0.058,-0.724 -0.861,-0.723 -1.379,-0.933c-0.663,-0.269 -1.358,-0.497 -2.061,-0.619c-1.83,-0.319 -2.329,0.222 -1.959,2.025c-1.023,-1.429 -0.73,-2.089 1.285,-2.767c-0.416,-0.495 -1.019,-0.296 -1.749,-0.522c1.099,-0.352 1.849,-0.154 2.52,0.411c0.811,0.686 1.764,1.077 2.755,1.406c0.605,0.201 0.966,0.097 0.774,-0.635c-0.138,-0.525 0.083,-1.126 -0.345,-1.585l-0.007,-0.001l-0,0Z" style="fill-rule:nonzero;"/>
      <path d="M237.361,322.409c1.287,-0.32 1.115,-1.491 1.363,-2.239c0.208,-0.162 0.253,-0.136 0.293,-0.026c0.254,0.711 -0.811,1.794 0.696,2.231c0.229,0.067 0.745,1.05 0.624,1.809c-0.125,0.789 0.264,0.829 0.804,0.411c0.715,-0.552 1.507,-0.812 2.614,-0.769c-0.878,0.863 -1.899,0.965 -2.788,1.31c-0.61,0.238 -0.996,0.569 -1.214,1.193c-0.843,2.415 -2.362,4.534 -3.093,7.003c-0.074,0.248 -0.318,0.446 -0.554,0.653c0.606,-1.363 0.367,-2.706 -0.024,-4.038c-0.094,-0.323 -0.177,-0.645 -0.003,-0.925c0.615,-0.99 0.491,-2.232 1.198,-3.501c0.094,2.066 -1.555,3.74 -0.241,5.77c0.85,-2.345 2.2,-4.331 2.808,-6.628c0.407,-1.534 -0.54,-2.317 -2.482,-2.253l-0.001,-0.001Z" style="fill-rule:nonzero;"/>
      <path d="M199.262,360.809c0.092,0.283 0.184,0.565 0.276,0.848c-0.049,0.023 -0.098,0.046 -0.147,0.069c-0.45,-0.517 -0.9,-1.034 -1.38,-1.585c-0.414,0.539 -0.477,1.042 -0.148,1.789c-0.718,-0.264 -1.388,-0.319 -0.687,-1.141c0.436,-0.512 0.231,-0.857 -0.179,-1.205c-0.091,-0.077 -0.18,-0.173 -0.287,-0.213c-0.722,-0.263 -1.222,-1.665 -1.823,-1.125c-0.804,0.722 -1.296,2.444 -0.87,3.159c0.708,1.186 0.646,2.297 0.717,3.476c0.034,0.573 0.047,1.185 -0.392,1.784c0,-0.988 0.037,-1.858 -0.008,-2.723c-0.07,-1.334 -0.172,-1.37 -1.402,-0.622c0.646,-2.302 1.278,-4.557 1.937,-6.904c0.245,0.033 0.425,0.304 0.51,0.798c0.217,1.265 1.408,1.499 2.294,2.049c0.06,-0.134 0.12,-0.268 0.18,-0.401l-0.031,0.035c0.477,0.654 0.673,1.521 1.469,1.933l-0.029,-0.021l-0,0Z" style="fill-rule:nonzero;"/>
      <path d="M240.867,345.121c0.401,-2.741 1.79,-4.622 4.467,-5.577c1.508,-0.538 2.664,-1.738 3.996,-2.613c1.053,-0.692 2.118,-1.375 3.389,-1.712c-0.396,0.305 -0.755,0.687 -1.194,0.903c-2.694,1.322 -4.833,3.492 -7.505,4.861c-1.018,0.521 -1.5,1.635 -1.919,2.681c-0.257,0.644 -0.647,1.127 -1.234,1.457l-0,0Z" style="fill-rule:nonzero;"/>
      <path d="M224.251,307.051c1.971,-1.144 2.582,-3.178 3.711,-4.826c0.282,0.636 -0.151,0.994 -0.411,1.366c-0.486,0.697 -0.488,1.054 0.491,1.059c0.337,0.002 0.725,-0.018 1.147,0.41c-1.992,0.727 -4.122,1.134 -5.254,3.48c-0.672,-3.503 0.118,-6.196 2.242,-8.517c-0.933,2.237 -2.657,4.262 -1.926,7.028Z" style="fill-rule:nonzero;"/>
      <path d="M157.902,328.947c1.32,2.102 0.125,4.72 1.52,6.792c-0.16,-0.17 -0.357,-0.319 -0.474,-0.515c-0.659,-1.111 -1.321,-1.165 -2.126,-0.099c-0.71,0.941 -1.153,2.003 -1.193,3.204c-0.01,0.303 -0.033,0.604 -0.058,1.053c-0.78,-2.017 0.03,-4.21 1.811,-5.207c0.4,-0.224 1.031,-0.339 0.417,-0.987c-0.026,-0.028 -0.057,-0.096 -0.048,-0.104c1.395,-1.298 -0.158,-2.666 0.152,-4.137l-0.001,-0Z" style="fill-rule:nonzero;"/>
      <path d="M243.435,329.62c-1.567,0.539 -3.024,1.233 -3.965,2.661c-0.868,1.315 -1.715,2.643 -2.61,4.024c0.38,-3.146 3.694,-6.595 6.575,-6.685Z" style="fill-rule:nonzero;"/>
      <path d="M164.001,356.001c0.548,0.246 0.741,0.777 1.046,1.248c-2.356,0.074 -2.922,-0.062 -3.338,3.727c-0.253,-1.28 -0.063,-2.363 0.022,-3.454c0.057,-0.738 0.656,-0.523 1.029,-0.687c0.484,-0.212 1.283,0.069 1.276,-0.865c0,-0.001 -0.035,0.031 -0.035,0.031l0,0Z" style="fill-rule:nonzero;"/>
      <path d="M248.273,324.411c-0.488,0.364 -0.59,1.034 -1.24,1.127c0.492,-2.233 2.604,-4.149 4.314,-3.73c-0.628,0.6 -1.527,0.487 -2.124,0.984c-0.507,0.423 -1.267,0.676 -0.51,1.609c0.376,0.463 0.262,1.213 -0.153,1.929c-0.277,-0.671 0.152,-1.373 -0.287,-1.919l-0,0Z" style="fill-rule:nonzero;"/>
      <path d="M159.702,364.502c-0.947,-2.835 -0.078,-5.38 1.307,-7.841c-0.739,2.563 -1.819,5.073 -1.307,7.841Z" style="fill-rule:nonzero;"/>
      <path d="M243.101,317.546c-1.136,1.466 -0.993,3.414 -1.943,4.929c0.386,-1.753 -0.565,-4.004 1.943,-4.929Z" style="fill-rule:nonzero;"/>
      <path d="M147.517,355.988c-0.525,0.051 -0.976,0.227 -1.374,0.606c-0.826,0.787 -1.535,1.679 -2.864,1.796c-1.045,0.091 -1.356,1.298 -2.094,1.908c0.377,-1.158 0.973,-2.15 2.212,-2.508c1.104,-0.319 2.026,-0.859 2.792,-1.72c0.366,-0.411 0.839,-0.842 1.307,-0.056c0,-0 0.021,-0.026 0.021,-0.026l-0,0Z" style="fill-rule:nonzero;"/>
      <path d="M176.228,319.188c-1.275,-1.174 -0.781,0.912 -1.462,0.594c-0.219,-0.513 -0.178,-0.5 0.117,-1.433c0.096,-0.302 -0.046,-0.701 -0.142,-1.038c-0.291,-1.02 -0.441,-2.047 -0.23,-3.129c0.253,1.767 0.514,3.519 1.717,5.006l-0,-0Z" style="fill-rule:nonzero;"/>
      <path d="M242.91,335.762c-0.28,0.686 -1.056,0.997 -1.396,1.671c0.719,0.29 1.648,0.451 0.475,1.418c-0.291,0.239 -0.49,0.532 -0.84,0.388c-0.507,-0.209 0.078,-0.536 -0.011,-0.794c-0.439,-1.273 0.317,-2.006 1.189,-2.692c0.163,-0.127 0.337,-0.214 0.583,0.009l0,-0Z" style="fill-rule:nonzero;"/>
      <path d="M175.553,360.081c-1.68,1.507 -3.458,2.934 -4.236,5.363c-0.032,-2.252 1.803,-4.471 4.259,-5.338c0.001,-0 -0.023,-0.025 -0.023,-0.025Z" style="fill-rule:nonzero;"/>
      <path d="M156.49,324.769c0.732,0.748 0.726,1.434 0.43,1.886c-0.216,0.329 -0.811,0.062 -1.279,-0.108c-0.859,-0.313 -1.8,-0.132 -2.846,-0.059c0.893,-0.968 2.019,-0.708 2.825,-0.52c1.111,0.259 1.298,0.052 0.87,-1.199l-0,-0Z" style="fill-rule:nonzero;"/>
      <path d="M225.291,314.026c1.556,-2.164 3.692,-2.459 5.138,-0.742c-2.005,-1.692 -3.517,-0.206 -5.138,0.742Z" style="fill-rule:nonzero;"/>
      <path d="M170.571,315.671c-0.111,-0.99 -1.377,-0.689 -1.643,-1.539c0.142,-0.228 0.28,0.004 0.426,0.069c0.955,0.425 1.243,0.248 1.125,-0.802c-0.093,-0.823 -0.175,-1.58 0.942,-2.087c-1.058,1.421 -0.28,2.997 -0.856,4.357c-0.001,0 0.006,0.002 0.006,0.002l-0,0Z" style="fill-rule:nonzero;"/>
      <path d="M147.763,345.155c-0.331,0.892 -2.574,-0.411 -1.659,1.825c-0.617,-0.904 -0.598,-1.422 -0.129,-2.007c0.302,-0.377 0.646,-0.571 0.89,-0.016c0.232,0.527 0.593,0.105 0.898,0.199l0,-0.001Z" style="fill-rule:nonzero;"/>
      <path d="M199.853,364.623c0.649,-0.999 0.744,-2.198 1.305,-3.214c0.329,0.009 0.557,0.453 0.522,0.499c-0.667,0.872 -0.82,2.084 -1.827,2.715Z" style="fill-rule:nonzero;"/>
      <path d="M131.627,353.806c-1.764,0.196 -2.906,1.421 -4.216,2.759c0.558,-1.79 2.682,-3.074 4.214,-2.754c0.002,0.002 0.002,-0.005 0.002,-0.005Z" style="fill-rule:nonzero;"/>
      <path d="M139.713,346.013c-0.87,0.356 -1.202,1.172 -1.813,2.042c-0.027,-0.492 -0.615,-0.642 -0.256,-1.045c0.523,-0.588 1.08,-1.204 2.069,-0.997l-0,-0Z" style="fill-rule:nonzero;"/>
      <path d="M226.628,317.4c0.829,0.815 1.444,1.684 0.69,2.874c-0.103,0.163 -0.001,0.212 0.101,0.258c0.187,0.083 0.433,0.183 0.218,0.401c-0.198,0.2 -0.531,0.16 -0.773,0.052c-0.221,-0.098 -0.181,-0.374 -0.065,-0.524c0.829,-1.077 0.283,-2.075 -0.146,-3.084c0.001,-0.001 -0.025,0.023 -0.025,0.023Z" style="fill-rule:nonzero;"/>
      <path d="M223.743,308.949c0.003,1.298 -0.103,2.579 -0.632,3.798c-0.124,-1.315 0.226,-2.561 0.632,-3.798Z" style="fill-rule:nonzero;"/>
      <path d="M228.643,367.238c0.179,1.335 -0.275,1.977 -1.749,2.451c0.683,-0.701 1.155,-1.551 1.749,-2.451Z" style="fill-rule:nonzero;"/>
      <path d="M147.856,348.21c0.019,-0.211 0.882,-0.008 0.269,-0.489c-0.299,-0.234 -0.484,-0.385 -0.271,-0.749c0.109,-0.186 0.279,-0.333 0.48,-0.288c0.357,0.08 0.73,0.293 0.817,0.622c0.121,0.459 -0.375,0.749 -0.581,1.109c-0.17,0.297 -0.439,-0.156 -0.683,-0.234c-0.005,0.004 -0.031,0.029 -0.031,0.029Z" style="fill-rule:nonzero;"/>
      <path d="M267.187,349.291c0.52,-0.53 0.581,-1.328 1.113,-1.815c0.161,-0.148 0.379,-0.498 0.678,-0.145c0.263,0.311 0.212,0.565 -0.176,0.728c-0.648,0.272 -0.961,0.948 -1.615,1.232l0,-0Z" style="fill-rule:nonzero;"/>
      <path d="M136.749,344.175c0.701,0.117 1.288,0.12 1.923,-0.305c0.258,-0.173 0.682,0.477 0.935,0.991c-0.392,-0.212 -0.742,-0.146 -1.152,0.101c-0.066,0.039 -0.23,-0 -0.297,-0.061c-0.396,-0.361 -0.908,-0.492 -1.409,-0.726Z" style="fill-rule:nonzero;"/>
      <path d="M193.9,364.727c0.124,1.115 -0.488,1.845 -1.223,2.512c0.373,-0.857 0.5,-1.83 1.223,-2.512Z" style="fill-rule:nonzero;"/>
      <path d="M229.254,365.762c0.64,1.014 0.587,2.007 -0,3.243l-0,-3.243Z" style="fill-rule:nonzero;"/>
      <path d="M228.589,316.624c0.404,-1.645 0.186,-2.119 -1.035,-2.693c0.807,-0.052 1.235,0.185 1.525,0.946c0.217,0.57 0.376,1.175 -0.49,1.747Z" style="fill-rule:nonzero;"/>
      <path d="M212.3,363.467c0.35,-0.4 0.487,-0.593 0.659,-0.746c0.255,-0.226 0.386,-0.639 0.808,-0.612c0.072,0.004 0.19,0.242 0.184,0.367c-0.023,0.475 -0.274,0.831 -0.725,0.979c-0.209,0.069 -0.458,0.012 -0.926,0.012l0,0Z" style="fill-rule:nonzero;"/>
      <path d="M241.474,367.744c-0.307,-0.842 -0.816,-1.571 -1.299,-2.465c1.002,0.679 1.28,1.196 1.299,2.465Z" style="fill-rule:nonzero;"/>
      <path d="M227.513,208.225c0.616,-0.24 1.077,-0.531 0.59,-1.296c-0.119,-0.187 -0.106,-0.522 0.165,-0.618c0.335,-0.118 0.336,0.378 0.391,0.385c1.011,0.138 1.179,0.799 1.06,1.638c-0.05,0.356 -0.189,0.842 -0.562,0.796c-0.63,-0.077 0.045,-0.584 -0.184,-0.878c-0.343,-0.125 -0.459,0.354 -0.779,0.346c-0.295,-0.008 -0.671,0.169 -0.694,-0.358c0,0 0.013,-0.015 0.013,-0.015Z" style="fill-rule:nonzero;"/>
      <path d="M183.275,218.37c-0.184,-0.762 -0.004,-1.496 0.24,-2.289c0.071,0.598 0.704,0.827 0.837,1.298c0.269,0.958 -0.632,0.757 -1.116,0.956c-0,-0 0.039,0.035 0.039,0.035l0,0Z" style="fill-rule:nonzero;"/>
      <path d="M213.401,232.451c-0.59,-3.423 -0.684,-6.921 -0.714,-10.426c-0.021,-2.435 0.043,-4.865 -0.164,-7.311c-0.096,-1.143 0.165,-2.658 1.237,-3.727c1.402,-1.398 4.602,-2.168 6.473,-1.359c-0.881,0.517 -1.871,0.458 -2.764,0.748c-0.798,0.259 -1.596,0.5 -2.337,0.901c-0.953,0.516 -1.479,1.269 -1.491,2.398c-0.067,6.06 -0.158,12.12 -0.24,18.18c-0.003,0.198 -0,0.397 -0,0.596l-0,-0Z" style="fill-rule:nonzero;"/>
      <path d="M219.717,210.628c3.236,-1.233 6.439,-0.874 9.626,0.267c-3.206,-0.21 -6.406,-0.729 -9.626,-0.267Z" style="fill-rule:nonzero;"/>
      <path d="M213.959,257.777c0.449,3.043 0.148,6.104 0.193,9.301c-0.799,-1.112 -0.925,-6.176 -0.193,-9.301Z" style="fill-rule:nonzero;"/>
      <path d="M213.855,252.385c-0.803,-1.998 -1.326,-4.021 -0.621,-6.182c0.207,2.06 0.414,4.121 0.621,6.182Z" style="fill-rule:nonzero;"/>
      <path d="M212.508,243.969l-0,-6.749c0.751,2.25 0.585,4.493 -0,6.749Z" style="fill-rule:nonzero;"/>
      <path d="M214.706,281.339c-0.055,0.256 0.079,0.707 -0.276,0.669c-0.482,-0.052 -0.542,-0.581 -0.409,-0.925c0.105,-0.273 -0.281,-0.784 0.183,-0.77c0.596,0.019 0.398,0.647 0.501,1.026l0.001,0Z" style="fill-rule:nonzero;"/>
      <path d="M189.889,326.038c-0.537,0.356 -1.184,0.236 -1.829,0.794c2.478,-0.318 4.772,-0.51 7.101,-0.561c-0.016,-0.398 -0.485,-0.854 -0.032,-1.076c0.704,-0.345 1.459,-0.171 2.168,0.11c-0.019,0.502 -0.58,0.467 -0.673,0.86c0.715,0.237 1.556,-0.32 2.26,0.326c-0.105,0.09 -0.183,0.218 -0.268,0.222c-1.355,0.067 -2.473,0.809 -3.672,1.305c-0.59,0.245 -1.087,0.095 -1.659,0.012c0.167,-0.693 0.761,-0.384 1.092,-0.616c-1.316,-0.993 -2.51,0.407 -3.912,0.058c0.341,0.353 0.988,0.734 0.154,0.804c-1.561,0.132 -2.598,1.172 -3.873,1.81c-1.008,0.504 -2.336,0.486 -3.523,0.49c-1.82,0.006 -3.62,-0.043 -5.383,-0.826c-1.139,-0.506 -1.29,-0.82 -0.372,-1.729c-1.104,0.636 -2.127,1.272 -3.685,1.05c2.598,-1.438 5.214,-1.833 7.795,-2.224c0.422,0.396 -0.813,0.55 -0.103,0.88c0.46,0.214 0.856,-0.033 0.861,-0.633c0.004,-0.407 0.168,-0.689 0.601,-0.762c2.309,-0.388 4.629,-0.483 6.952,-0.294l-0,0Z" style="fill-rule:nonzero;"/>
      <path d="M198.335,337.9c-0.321,0.076 -0.605,0.142 -0.897,0.211c-0.024,-0.05 -0.093,-0.126 -0.078,-0.178c0.401,-1.452 -0.145,-2.895 -0.036,-4.343c0.026,-0.337 -0.106,-0.73 0.442,-0.804c0.623,-0.085 0.77,0.184 0.678,0.745c-0.186,1.128 -0.293,2.273 -0.543,3.386c-0.113,0.499 0.071,0.724 0.434,0.983l0,-0Z" style="fill-rule:nonzero;"/>
      <path d="M193.426,343.31c-0.293,0.168 -0.585,0.336 -0.878,0.503c-0.016,-2.142 -0.181,-4.287 0.031,-6.58c0.529,0.445 0.394,0.917 0.334,1.331c-0.198,1.356 0.08,2.699 0.073,4.048c-0.002,0.315 -0.024,0.666 0.44,0.699l-0,-0.001Z" style="fill-rule:nonzero;"/>
      <path d="M224.808,328.259c-0.802,0.665 -1.699,1.083 -2.968,1.101c0.99,-0.765 2.048,-0.747 2.968,-1.101Z" style="fill-rule:nonzero;"/>
      <path d="M193.044,328.93c0.049,0.33 -0.109,0.539 -0.454,0.491c-0.236,-0.033 -0.727,-0.17 -0.456,-0.443c0.308,-0.312 -0.292,-0.915 0.367,-0.941c0.614,-0.025 0.436,0.53 0.543,0.893l-0,-0Z" style="fill-rule:nonzero;"/>
      <path d="M200.483,184.839c1.272,0.613 1.364,0.762 0.259,1.443c-1.719,1.058 -1.875,2.527 -1.725,4.303c0.246,2.924 0.546,5.847 0.427,8.798c-0.038,0.922 -0.129,1.91 0.682,2.82c0.415,0.466 0.129,1.608 0.068,2.437c-0.223,3.063 -0.165,6.131 -0.078,9.189c0.044,1.523 -0.116,3.024 -0.103,4.537c0.004,0.455 -0.104,0.933 1.037,0.661c-0.909,0.631 -1.412,1.088 -0.603,1.71c0.355,0.272 0.179,0.64 0,0.849c-0.251,0.292 -0.343,-0.117 -0.513,-0.23c-0.535,-0.356 -0.585,0.101 -0.682,0.441c-0.09,0.313 -0.347,0.776 -0.551,0.472c-0.183,-0.272 -0.963,-0.389 -0.479,-1.118c0.731,-1.102 1.044,-2.388 1.021,-3.724c-0.051,-3.032 0.094,-6.088 -0.245,-9.088c-0.309,-2.74 -0.251,-5.453 -0.334,-8.181c-0.018,-0.599 -0.04,-1.619 -0.83,-2.128c-0.093,-0.06 -0.129,-0.286 -0.111,-0.425c0.242,-1.96 -0.102,-3.962 0.673,-5.898c0.489,-1.219 0.375,-2.622 0.161,-3.915c-0.167,-1.013 -0.146,-1.972 0.045,-2.957c0.118,-0.608 0.015,-1.407 0.952,-1.372c0.863,0.033 0.883,0.765 0.951,1.404c-0.309,-0.092 -0.547,-0.235 -0.689,-0.565c-0.111,-0.257 -0.416,-0.307 -0.549,-0.032c-0.252,0.518 -0.11,1.084 -0.052,1.629c0.025,0.231 0.197,0.315 0.435,0.236c0.517,-0.171 0.719,-0.568 0.786,-1.067c0.01,-0.077 0.031,-0.152 0.047,-0.228l0,-0.001Z" style="fill-rule:nonzero;"/>
      <path d="M204.113,199.501c2.136,-0.404 4.062,-1.106 6.127,-1.215c0.682,-0.036 1.321,-0.205 1.994,-0.48c1.26,-0.515 2.677,-0.119 4.025,-0.166c0.307,-0.011 0.645,0.617 0.953,0.965c0.127,0.143 0.075,0.33 -0.086,0.392c-0.213,0.082 -0.58,0.21 -0.661,0.12c-0.65,-0.719 -1.304,-0.264 -2.03,-0.176c-2.315,0.28 -4.648,0.419 -6.977,0.556c-0.537,0.032 -0.998,0.19 -1.48,0.372c-0.606,0.23 -1.219,0.358 -1.865,-0.368l-0,0Z" style="fill-rule:nonzero;"/>
      <path d="M196.763,184.165c1.367,0.578 1.023,1.455 0.588,2.021c-0.371,0.482 -0.328,0.569 0.046,0.963c0.814,0.857 0.757,2.097 -0.129,3.043c-0.011,-2.198 -1.292,-3.489 -2.796,-4.672c0.427,-0.093 0.969,-0.334 1.451,0.272c0.208,0.261 0.459,0.702 0.835,0.345c0.335,-0.319 0.835,-0.728 0.275,-1.304c-0.096,-0.098 -0.114,-0.272 -0.27,-0.668l0,-0Z" style="fill-rule:nonzero;"/>
      <path d="M213.882,200.138c-0.122,0.707 0.815,0.789 0.923,1.532c-0.721,-0.138 -1.337,-0.256 -1.998,-0.383c0.126,-0.382 0.673,0.064 0.691,-0.389c0.019,-0.481 -0.568,-0.125 -0.681,-0.49c0.345,-0.222 0.803,0.094 1.101,-0.239l-0.036,-0.031Z" style="fill-rule:nonzero;"/>
      <path d="M181.021,201.128c-0.45,-0.031 -0.797,-0.157 -0.827,-0.59c-0.021,-0.314 0.223,-0.51 0.537,-0.519c0.451,-0.013 0.608,0.303 0.66,0.688c0.044,0.324 -0.176,0.393 -0.37,0.421l-0,-0Z" style="fill-rule:nonzero;"/>
      <path d="M213.918,200.169c-0.12,-0.438 -0.547,-0.391 -1.125,-0.651c1.019,-0.06 1.745,-0.113 2.693,0.621c-0.728,0 -1.166,0 -1.604,-0c0,-0 0.036,0.03 0.036,0.03Z" style="fill-rule:nonzero;"/>
      <path d="M225.573,337.02c-0.817,-1.559 -0.609,-2.898 0.458,-3.785c0.474,1.308 -0.666,2.334 -0.458,3.785Z" style="fill-rule:nonzero;"/>
    </g>
  </g>
</svg>
