<?xml version="1.0" encoding="UTF-8" standalone="no"?>
<!DOCTYPE svg PUBLIC "-//W3C//DTD SVG 1.1//EN" "http://www.w3.org/Graphics/SVG/1.1/DTD/svg11.dtd">
<svg width="100%" height="100%" viewBox="0 0 406 529" version="1.1" xmlns="http://www.w3.org/2000/svg" xmlns:xlink="http://www.w3.org/1999/xlink" xml:space="preserve" xmlns:serif="http://www.serif.com/" style="fill-rule:evenodd;clip-rule:evenodd;stroke-linejoin:bevel;">
  <rect id="L6-2" x="0.131" y="0.133" width="405.12" height="528" style="fill:none;"/>
  <clipPath id="_clip1">
    <rect x="0.131" y="0.133" width="405.12" height="528"/>
  </clipPath>
  <g clip-path="url(#_clip1)">
    <g id="staff-top" serif:id="staff top">
      <path d="M0.131,106.933l405.12,0" style="fill:none;fill-rule:nonzero;stroke:#000;stroke-width:1.2px;"/>
      <path d="M0.131,119.533l405.12,0" style="fill:none;fill-rule:nonzero;stroke:#000;stroke-width:1.2px;"/>
      <path d="M0.131,132.133l405.12,0" style="fill:none;fill-rule:nonzero;stroke:#000;stroke-width:1.2px;"/>
      <path d="M0.131,144.733l405.12,0" style="fill:none;fill-rule:nonzero;stroke:#000;stroke-width:1.2px;"/>
      <path d="M0.131,157.333l405.12,0" style="fill:none;fill-rule:nonzero;stroke:#000;stroke-width:1.2px;"/>
    </g>
	  <a href="L6-3.svg">
    <circle cx="364.739" cy="491.173" r="17.4" style="fill:#dc4263;"/>
	  </a>
    <g>
      <path d="M270.715,433.5c-2.461,-0.486 -5.012,-0.456 -7.533,-0.729c2.794,-0.091 5.558,-0.456 8.353,-0.699c-0,-0.06 0.03,-0.212 0.03,-0.273c-2.794,-0.243 -5.589,-0.456 -8.414,-0.577c-0.121,-5.802 0.061,-11.603 0,-17.405c1.063,0 2.126,0.061 3.22,0.152c-0.03,5.376 -0.03,10.753 0.03,16.129c0.638,-0.03 1.306,-0 1.944,0.091c0.122,-5.346 0.091,-10.692 0.091,-16.038c0.213,0 0.669,-0.06 0.881,-0.06c0,5.406 0.031,10.813 -0.06,16.22c1.275,-0.031 2.551,-0.243 3.827,-0.092c0.729,0.881 1.184,2.066 2.308,2.552c1.914,1.124 4.192,0.425 6.257,0.243c2.947,-0.243 5.923,0.182 8.87,0.547c4.131,0.546 8.292,0.759 12.423,1.063c-1.822,-0.395 -3.584,-0.942 -5.437,-1.154c0.699,-0.608 0.729,-1.55 0.334,-2.339c-1.397,-0.152 -2.764,-0.547 -4.009,-1.246c-0.669,0.517 -1.641,0.76 -2.43,0.365c-0,-0.942 0.607,-1.792 0.577,-2.734c0.182,-2.035 -0.851,-3.918 -2.157,-5.407c-0.759,-0.789 -1.215,-1.852 -2.126,-2.46c0.152,1.944 1.093,3.706 1.671,5.559c0.364,1.002 -0.152,2.035 -0.638,2.885c-0.334,-3.007 -2.035,-5.741 -2.035,-8.778c0.394,-1.974 0.394,-4.192 -0.729,-5.923c0.091,0.942 0.364,1.883 0.334,2.855c-0.091,1.215 -0.608,2.43 -1.489,3.311c0.426,-3.523 -0.82,-7.077 -3.098,-9.75c1.124,3.341 1.367,7.168 -0.425,10.327c-0.759,1.519 -2.005,2.886 -2.157,4.647c-0.121,1.367 0.638,2.643 1.58,3.585c-0.699,-0.031 -1.215,-0.547 -1.671,-1.003c-0.941,-1.032 -1.731,-2.369 -1.64,-3.827c0.091,-1.914 1.306,-3.493 2.248,-5.042c1.518,-2.43 1.731,-5.437 1.245,-8.201c-0.547,-3.007 -3.007,-5.073 -4.495,-7.594c-0.79,-1.306 -1.064,-2.855 -1.033,-4.374c0.121,-1.367 0.79,-2.612 1.063,-3.918c-1.033,2.187 -2.096,4.526 -1.61,7.016c-0.486,-1.154 -0.607,-2.46 -0.304,-3.675c0.638,-2.643 2.491,-4.738 3.463,-7.229c-0.638,0.941 -1.215,1.913 -1.883,2.855c-1.124,1.701 -2.552,3.432 -2.491,5.589c-0.273,3.432 3.159,5.741 3.25,9.112c0.243,2.37 -0.729,4.557 -1.549,6.713c-0.79,1.823 -0.243,3.827 -0.456,5.741c-0.151,1.519 -0.82,2.916 -1.609,4.192c0.303,-8.11 0.091,-16.19 0.121,-24.3c-0.212,-3.129 -0.061,-6.257 -0.061,-9.386c0,-3.888 0.031,-7.806 0,-11.694c0.669,-0.152 1.398,-0.334 1.792,-0.972c0.821,-1.397 0.912,-3.098 0.699,-4.678c-0.304,1.914 -1.245,3.736 -2.46,5.225c0.03,-4.04 -0.031,-8.08 0.121,-12.12c0.911,-0.668 1.428,-1.701 1.701,-2.794c0.304,-1.246 0.729,-2.43 0.972,-3.676c-0.881,1.215 -1.64,2.613 -2.946,3.463c0.121,-1.033 0.243,-2.065 0.304,-3.128c0.091,-1.55 -0.061,-3.19 0.698,-4.617c-0.911,-0.942 -2.065,-1.58 -3.098,-2.37c-2.339,-1.701 -4.769,-3.341 -7.047,-5.133c2.673,1.64 5.133,3.554 7.776,5.225c1.094,0.698 2.157,1.488 3.037,2.46c0.578,0.607 0.821,1.397 1.276,2.096c-0.03,-1.003 -0.212,-2.035 -0.759,-2.886c-0.972,-1.488 -1.883,-2.977 -2.795,-4.495c-0.759,-1.276 -1.397,-2.734 -1.184,-4.283c0.182,-1.944 1.762,-3.311 2.308,-5.133c0.061,-1.428 -1.336,-2.522 -1.154,-3.979c0.122,-1.398 1.154,-2.491 1.944,-3.585c1.64,-2.065 2.734,-4.677 2.582,-7.35c-0.091,-2.521 -1.215,-4.83 -2.4,-6.987c-1.002,-1.609 -2.308,-3.128 -2.642,-5.042l-0.213,0c-0.273,1.58 0.395,3.007 1.306,4.222c2.126,3.099 1.853,7.138 0.79,10.54c-0.395,1.458 -1.519,2.673 -2.946,3.159c-1.428,0.517 -3.038,0.942 -3.888,2.309c-0.669,0.85 0.091,1.853 0.303,2.734c-0.698,-0.881 -1.427,-2.127 -0.789,-3.251c1.002,-1.609 3.007,-2.065 4.343,-3.31c1.276,-1.033 1.792,-2.673 2.096,-4.222c0.577,-3.19 0.395,-6.713 -1.458,-9.477c-1.579,-2.613 -4.435,-4.314 -5.498,-7.26c-1.427,-3.584 0.79,-7.472 -0.455,-11.117c-0.851,-2.46 -3.068,-4.009 -4.769,-5.832c-1.215,-1.185 -2.126,-2.612 -2.764,-4.161c0.698,2.43 2.308,4.434 3.948,6.287c1.246,1.398 2.552,2.977 2.673,4.921c0.243,3.341 -0.88,6.743 0.061,10.054c0.729,2.916 3.25,5.133 3.615,8.171c0.273,1.913 -0.851,3.614 -1.914,5.072c0.182,-1.61 0.061,-3.25 -0.577,-4.769c-1.033,-2.764 -3.25,-4.768 -5.467,-6.591c0.729,1.246 1.913,2.187 2.43,3.554c0.911,2.369 1.032,5.012 0.85,7.533c-0.425,2.946 -3.645,4.344 -4.283,7.168c-0.668,2.096 0.638,4.071 1.975,5.589c-1.823,-1.063 -3.797,-2.582 -4.071,-4.829c-0.06,-1.519 0.183,-3.038 0.729,-4.465c1.914,0.395 3.676,-1.306 3.858,-3.129c-0.213,-0.638 -0.213,-1.731 -1.124,-1.731c-0.638,-0.547 -0.304,-1.458 -0.273,-2.157c0.273,-1.944 0.243,-3.949 -0.213,-5.862c-0.607,3.159 -1.428,6.348 -2.977,9.173c-0.152,-1.215 0,-2.43 0.091,-3.645c0.213,-2.673 0,-5.467 -1.275,-7.837c-1.124,-2.217 -3.007,-3.857 -4.799,-5.528c-0.912,-0.82 -1.519,-1.853 -2.339,-2.734c0.06,2.916 1.822,5.346 2.976,7.928c1.003,2.339 1.337,5.225 -0.121,7.442c-1.549,2.369 -3.645,4.283 -5.468,6.439c-0.486,0.578 -0.88,1.367 -0.698,2.157c0.455,2.491 2.369,4.374 3.068,6.774c0.395,1.458 0.303,3.159 -0.76,4.343c-0.243,-1.488 0.912,-2.977 0.061,-4.374c-0.79,-1.549 -2.946,-1.519 -3.706,-3.037c-0.668,-2.248 0.547,-4.435 1.519,-6.379c0.699,-1.367 0.577,-2.946 0.79,-4.404c0.455,-1.762 1.822,-3.098 2.46,-4.769c0.213,-0.668 0.182,-1.397 0.243,-2.096c0.729,1.154 0.425,2.491 0.608,3.767c0.243,-0.76 0.152,-1.55 0.212,-2.309c0.547,0.911 0.82,1.944 1.063,2.946c0.638,-0.668 0.426,-1.701 0.426,-2.521c-0.243,-3.037 -2.461,-5.346 -3.372,-8.17c-1.002,-2.643 -0.79,-5.468 -0.425,-8.232c-1.61,2.582 -2.552,5.832 -1.519,8.778c0.577,2.005 2.005,3.584 2.855,5.437c-1.032,2.187 -2.217,4.314 -3.766,6.197c-0.243,-1.185 -0.972,-2.248 -1.974,-2.947c1.123,2.309 1.397,4.982 0.668,7.442c-0.851,2.309 -2.825,4.405 -2.278,7.017c-0.972,-1.306 -0.912,-3.098 -0.517,-4.617c0.456,-1.883 1.58,-3.524 1.823,-5.468c0.152,-1.063 -0.061,-2.126 -0.456,-3.098c0.486,3.645 -1.488,6.956 -3.28,9.963c-0.881,1.579 -2.552,2.491 -4.283,2.886c-0.061,-3.22 -0,-6.44 -0.031,-9.629c0.243,-0.182 0.486,-0.365 0.729,-0.547c-1.154,0.03 -2.186,-0.486 -3.219,-0.911c-4.951,-2.066 -9.902,-4.161 -14.61,-6.774c2.49,0.942 5.042,1.732 7.532,2.673c2.127,0.82 4.314,1.428 6.349,2.461c0.212,-0.091 0.425,-0.213 0.668,-0.334c-0.547,-0.152 -1.063,-0.365 -1.579,-0.578c1.366,0.152 2.581,1.003 3.979,1.155c0.698,-1.124 2.885,-0.577 2.976,-2.066c-0.941,-0.881 -2.278,-1.033 -3.462,-1.397c-2.491,-0.608 -4.708,-1.944 -7.108,-2.825c-1.185,-0.456 -2.582,-1.367 -2.43,-2.825c0.273,-1.67 1.671,-2.855 2.339,-4.343c0.486,-1.155 -0.061,-2.582 -1.094,-3.25c-0.759,-0.547 -1.853,-0.972 -1.822,-2.066c-0.425,-2.734 1.367,-5.164 1.063,-7.897c-0.243,-4.131 -3.129,-7.442 -5.862,-10.267c1.458,2.157 2.885,4.374 3.493,6.926c0.577,2.186 0.638,4.738 -0.729,6.652c-1.519,2.065 -3.949,3.189 -5.954,4.677c-0.82,0.547 -1.032,1.519 -1.093,2.461c-0.668,-0.851 -0.213,-2.036 0.425,-2.734c1.215,-1.367 2.977,-2.066 4.222,-3.402c1.124,-1.154 1.883,-2.673 2.005,-4.313c0.243,-3.038 -0.608,-6.166 -2.4,-8.596c0.729,2.399 0.638,4.951 0.122,7.381c-0.577,2.43 -2.187,4.465 -3.888,6.227c-0.851,0.941 -1.853,1.883 -2.096,3.189c-0.304,1.488 0.456,3.007 1.519,4.009c0.729,0.699 1.822,1.124 2.035,2.187c-0.942,0 -1.701,-0.668 -2.461,-1.154c-2.186,-1.488 -3.25,-4.495 -2.399,-7.016c0.911,-2.279 2.946,-3.858 4.192,-5.954c2.217,-3.706 2.399,-8.566 0.455,-12.423c-1.792,-3.493 -4.769,-6.591 -5.163,-10.662c-0.365,-3.553 1.852,-6.561 3.067,-9.75c1.185,-2.764 1.428,-5.923 0.486,-8.809c0.517,2.673 0.213,5.468 -1.002,7.928c-1.61,3.736 -4.738,6.986 -4.83,11.239c-0.091,3.736 2.765,6.561 3.828,9.993c0.88,2.734 0.698,5.954 -1.185,8.232c-1.458,1.852 -3.797,2.521 -5.741,3.705c-1.458,0.82 -2.794,1.823 -4.07,2.886c-0.395,0.395 -0.911,0.395 -1.428,0.213c1.975,1.701 4.04,3.432 5.407,5.68c-2.764,-1.61 -5.893,-2.673 -8.231,-4.921c-0,0.273 0.03,0.79 0.03,1.063c-1.033,-1.974 -1.245,-4.344 -0.516,-6.439c1.093,-3.22 3.128,-6.075 3.736,-9.477c0.789,-3.615 -0.304,-7.442 -2.43,-10.388c-2.43,-3.615 -5.984,-6.288 -7.715,-10.237c-0.031,3.736 2.156,6.987 3.644,10.297c1.276,2.704 1.701,5.893 0.76,8.748c-0.972,2.643 -3.189,4.496 -5.285,6.227c-1.914,1.61 -4.04,3.22 -4.86,5.71c-1.155,3.159 -0.152,6.744 2.065,9.204c-2.126,-0.759 -3.979,-2.612 -4.161,-4.951c-0.274,-3.159 1.822,-5.802 3.341,-8.353c0.851,-1.306 0.668,-2.977 0.334,-4.435c-0.577,-2.217 -2.126,-4.009 -3.736,-5.558c-1.033,-1.003 -2.217,-2.005 -2.521,-3.493c-0.334,-1.641 0.456,-3.19 1.124,-4.617c1.184,-2.339 1.822,-5.103 1.154,-7.685c-0.698,-2.126 -1.974,-4.07 -3.523,-5.68c1.518,2.764 2.49,6.044 1.458,9.143c-0.729,2.703 -3.25,4.89 -2.764,7.897c0.334,3.007 3.28,4.526 4.586,7.016c1.762,2.734 1.519,6.318 0.122,9.143c-1.337,2.825 -3.797,5.407 -3.524,8.748c0.122,2.43 2.309,3.858 3.554,5.711c0.638,0.759 0.121,2.217 -1.002,2.004c-1.276,-0.334 -2.309,-1.215 -3.493,-1.761c-0.881,-1.307 -1.337,-2.886 -1.55,-4.405c-0.182,-1.154 0.243,-2.247 0.426,-3.371c-1.337,2.065 -1.155,4.768 -0.122,6.925c0.456,0.851 1.61,1.124 1.853,2.126c-2.126,-0.759 -4.192,-2.399 -4.647,-4.708c-0.82,-3.371 0.881,-6.743 0.364,-10.115c-0.182,-1.792 -0.972,-3.644 -2.612,-4.525c0.79,1.093 1.61,2.247 1.762,3.645c0.577,3.705 -2.126,6.986 -1.549,10.691c0.303,3.433 2.673,6.227 5.437,8.111c-0.79,-0 -1.58,0.03 -2.309,0.303c-2.46,0.82 -4.769,2.005 -7.229,2.764c-0.759,0.334 -1.61,-0.303 -2.308,0.183c-0.699,0.334 -1.519,0.789 -2.248,0.243c-2.43,-1.61 -3.675,-4.587 -3.797,-7.412c-0.395,1.003 -0.516,2.035 -0.607,3.098c-0.456,-1.306 -0.669,-2.733 -0.395,-4.1c0.273,-1.823 1.245,-3.433 2.065,-5.042c-1.913,2.247 -3.432,5.194 -2.855,8.231c0.243,1.853 1.762,3.159 2.157,4.951c0.303,2.126 0.06,4.648 -1.701,6.075c-1.246,1.063 -2.491,2.096 -3.676,3.189c0.638,-1.032 1.58,-1.883 2.096,-2.976c0.942,-2.096 1.154,-4.526 0.456,-6.713c-0.79,-2.339 -2.947,-3.766 -4.465,-5.619c-1.306,-1.519 -1.884,-3.585 -1.641,-5.559c0.395,-3.797 3.585,-6.713 3.645,-10.601c0.243,-4.131 -2.46,-7.593 -3.219,-11.512c-0.486,-2.035 -0.152,-4.191 0.638,-6.105c0.242,-0.425 0.273,-1.154 0.911,-1.185l-0.395,0c0.577,-1.093 1.306,-2.065 1.913,-3.128c-1.913,2.248 -3.493,4.951 -3.857,7.928c-0.486,3.219 0.699,6.378 1.61,9.416c0.972,3.311 0.546,6.956 -1.033,10.023c-1.762,3.433 -3.311,7.078 -3.645,10.935c-0.213,2.035 0.638,4.01 0.456,6.075c-0.122,3.038 -1.124,6.197 0.06,9.143c0.578,1.671 1.823,2.977 2.582,4.556c-3.037,-1.306 -5.163,-4.556 -4.738,-7.897c0.243,-2.4 1.033,-5.134 -0.274,-7.351c-0.364,2.369 -1.184,4.617 -1.67,6.986c-0.425,2.127 0.03,4.344 1.184,6.166c-1.215,-0.638 -2.521,-1.124 -3.736,-1.792c-0.941,-0.455 -1.609,-1.306 -2.43,-1.944c0.122,1.124 0.395,2.248 0.76,3.311c-0.061,-0.03 -0.213,-0.061 -0.304,-0.091c-1.883,-3.007 -2.4,-6.682 -2.157,-10.176c0.092,-3.371 2.461,-6.257 2.248,-9.689c0.091,-2.521 -1.306,-4.708 -2.308,-6.925c0.364,1.609 1.063,3.159 1.154,4.829c0.273,3.189 -0.881,6.257 -2.126,9.112c-1.762,4.01 -2.248,8.536 -1.61,12.879c0.273,2.005 1.184,3.797 2.096,5.559c-0.972,-0.425 -1.732,-1.245 -2.127,-2.217c-1.184,-2.613 -0.88,-5.589 -0.546,-8.384c-1.519,3.189 -2.369,6.926 -1.124,10.358c0.455,1.701 1.61,3.037 2.46,4.526c-1.731,-0.972 -3.22,-2.521 -3.766,-4.435c-0.76,-2.673 -0.152,-5.467 0.698,-8.049c-1.215,1.549 -2.095,3.341 -2.612,5.224c-0.941,3.645 -0.061,7.533 1.306,10.965c0.274,1.124 0.426,2.339 1.063,3.342c0.912,1.701 2.339,3.067 3.554,4.525c1.003,1.155 1.337,2.734 1.246,4.253c0.091,2.399 -0.851,4.799 -2.339,6.682c-0.213,-3.098 1.306,-6.014 1.245,-9.082c-0.061,-0.091 -0.152,-0.303 -0.182,-0.425c-1.306,2.734 -2.673,5.437 -3.524,8.323c-0.607,1.974 -0.637,4.191 0.152,6.135c0.851,2.035 2.248,3.828 4.01,5.164c-0.851,-2.005 -1.489,-4.222 -1.033,-6.439c0.334,-1.519 1.549,-2.613 2.43,-3.797c1.124,-1.428 2.005,-3.159 1.883,-5.042c0.031,-1.549 -0.577,-3.007 -0.577,-4.526c-0.03,-1.367 -0.942,-2.582 -0.79,-3.979c0.122,-1.762 1.306,-3.19 1.823,-4.83c0.395,-1.306 -0.425,-2.916 0.425,-4.07c0.273,2.248 0.122,4.526 0.425,6.774c0.122,7.775 0.365,15.551 0.274,23.327c-0.547,0.061 -1.306,-0.304 -1.671,0.274c0.577,0.06 1.154,0.091 1.701,0.151c0.122,7.624 0.091,15.249 0.304,22.873c-0.911,-1.064 -1.823,-2.066 -2.855,-3.008c-1.823,-1.609 -3.342,-3.644 -3.949,-6.014c-0.547,2.066 -0.942,4.131 -1.215,6.227c-0.851,-2.642 -1.154,-5.528 -0.608,-8.262c0.486,-1.944 1.215,-3.827 2.187,-5.558c0.547,-1.003 1.306,-1.884 1.641,-2.977c-2.765,3.736 -5.954,7.654 -6.197,12.484c-0.243,3.584 1.883,6.622 3.493,9.629c1.215,2.217 1.883,4.89 1.124,7.381c-0.759,3.159 -3.25,5.406 -4.921,8.079c-0.911,1.398 -1.154,3.22 -0.334,4.739c0.061,-1.367 0.243,-2.825 1.094,-3.919c1.67,-2.247 4.07,-3.888 5.467,-6.317c1.397,-2.43 1.549,-5.407 0.851,-8.08c-0.517,-2.066 -1.762,-3.827 -2.521,-5.802c1.154,-0.091 2.247,0.547 2.733,1.61c1.398,2.704 1.519,5.893 1.124,8.839c-0.395,3.007 -2.035,5.65 -3.402,8.262c-0.638,1.154 -1.913,1.731 -2.794,2.643c-0.091,0.789 0.212,1.579 0.121,2.399c-0.334,0.82 -1.245,1.124 -1.974,1.549c-1.428,0.699 -2.734,1.884 -3.189,3.433c-0.365,1.032 0.03,2.156 -0.274,3.189c-0.668,1.58 -1.579,3.098 -1.67,4.86c-0.274,2.339 1.063,4.404 2.126,6.348c0.577,1.215 1.215,2.4 1.822,3.645c-1.883,-1.518 -4.009,-3.037 -4.89,-5.376c-1.002,-2.582 -0.425,-5.498 0.668,-7.958c0.851,-1.914 2.005,-3.888 1.732,-6.075c-0.395,-3.311 -2.339,-6.105 -4.344,-8.657c-1.093,-1.336 -1.944,-2.855 -2.886,-4.283c-0.425,3.524 2.005,6.44 2.613,9.781c0.577,2.642 0.121,5.619 -1.823,7.594c-2.187,2.217 -4.89,4.191 -5.771,7.35c-0.911,2.947 -0,6.106 1.671,8.596c-4.769,-0.152 -9.538,-0.547 -14.307,-0.486c11.208,2.126 22.417,4.162 33.686,5.923c6.925,1.063 13.972,1.792 20.958,1.033c3.979,-0.456 7.989,-1.154 11.968,-0.486c3.189,0.456 6.53,1.64 8.474,4.344c0.577,-0.578 1.124,-1.185 1.61,-1.853c-2.126,-1.883 -4.951,-2.673 -7.624,-3.493c-5.771,-1.549 -11.755,-2.066 -17.648,-2.825c-5.103,-0.425 -10.206,-1.063 -15.339,-1.124c8.201,-0.395 16.433,0.213 24.604,1.033c7.381,0.789 14.671,2.126 21.869,3.979c5.954,1.549 12.15,2.399 18.286,1.64c3.159,-0.425 6.409,-0.82 9.234,-2.43c0.911,-0.547 1.913,-1.063 2.582,-1.944c-2.825,0.122 -5.65,0.395 -8.505,0.304c0.03,-8.232 0.091,-16.494 0.06,-24.725c2.279,0.121 4.557,0.121 6.835,0.364c-0,7.29 0.06,14.611 0.03,21.931c5.407,0.334 10.844,0.638 16.251,0.941c0.425,-4.495 0.941,-8.99 1.64,-13.455c-0.091,4.981 -0.091,9.962 -0.091,14.944c-4.131,-0.122 -8.262,-0.031 -12.393,-0.122c-0.061,-0.364 -0.122,-0.729 -0.182,-1.093c-0.486,-0.395 -0.729,0.273 -0.912,0.577c-0.82,1.671 -2.612,2.491 -4.252,3.189c-4.192,1.641 -8.627,2.613 -13.061,3.25c-2.157,0.304 -4.313,0.274 -6.47,0.426c5.467,0.85 11.026,1.093 16.524,0.698c9.932,-0.881 19.683,-3.007 29.433,-4.92c5.71,-1.155 11.481,-2.491 17.344,-2.279c4.343,0.274 8.474,1.823 12.787,2.279c5.437,0.577 10.966,0.486 16.372,-0.243c2.218,-0.304 4.496,-0.426 6.683,-0.942c-4.04,-0.122 -8.08,-0.456 -12.15,-0.608c-3.402,-0.394 -6.925,-0.425 -10.327,-1.336Zm14.245,-10.935c0.243,1.337 -0.759,2.521 -1.822,3.22c0.607,-1.094 1.306,-2.096 1.822,-3.22Zm-166.027,1.002c-0.183,-1.063 -0.031,-2.156 0.394,-3.159c0.152,1.215 0,2.491 0.578,3.615c0.455,1.124 1.366,1.944 2.065,2.886c-1.397,-0.638 -2.643,-1.792 -3.037,-3.342Zm101.36,-99.659c2.187,0.608 4.404,0.972 6.591,1.549c-0.091,3.281 0.03,6.561 -0.03,9.842c-2.187,-0.547 -4.405,-1.094 -6.592,-1.58c0,-3.28 -0.06,-6.561 0.031,-9.811Zm6.5,74.722c-2.157,-0.365 -4.344,-0.699 -6.5,-1.002c-0.091,-3.463 -0.031,-6.956 -0.061,-10.419c2.187,0.425 4.404,0.699 6.622,1.094c-0.031,3.432 -0,6.864 -0.061,10.327Zm0.03,-21.05c-2.156,-0.425 -4.343,-0.85 -6.53,-1.245c-0.122,-3.554 -0.031,-7.077 -0.031,-10.631c2.187,0.425 4.405,0.85 6.592,1.306c-0,3.523 -0,7.047 -0.031,10.57Zm-0.03,-20.411c-2.187,-0.456 -4.344,-1.033 -6.561,-1.458c-0.061,-3.554 -0,-7.078 -0,-10.632c2.217,0.456 4.404,0.881 6.622,1.367c-0,3.584 -0,7.138 -0.061,10.723Zm-3.493,-21.263c-1.519,-0.212 -2.947,-0.759 -4.465,-0.972c1.518,0.152 2.976,0.608 4.465,0.972Zm-7.199,-16.129c-2.521,1.155 -5.346,1.094 -8.019,0.577c2.552,-0.85 5.376,-0.82 8.019,-0.577Zm-2.552,55.161c-2.369,-0.426 -4.708,-0.972 -7.077,-1.367l0,-10.571c2.339,0.517 4.708,0.912 7.077,1.367c-0.03,3.524 0.031,7.047 0,10.571Zm-7.016,-22.386c-0,-3.585 -0.03,-7.138 -0,-10.723c2.308,0.669 4.708,1.033 7.016,1.61c0,3.554 0,7.108 0.031,10.662c-2.339,-0.486 -4.678,-1.094 -7.047,-1.549Zm0.061,-21.749c-0.122,-3.432 -0.031,-6.864 -0.061,-10.327c2.339,0.668 4.708,1.093 7.047,1.701c-0,3.372 -0,6.743 0.061,10.115c-2.4,-0.365 -4.708,-1.094 -7.047,-1.489Zm-14.064,-43.071c-0.638,2.005 -1.124,4.192 -0.364,6.227c0.395,1.185 1.245,2.126 1.701,3.25c-0.274,1.002 -1.792,0.911 -2.218,0.061c-2.035,-2.886 -1.245,-6.895 0.881,-9.538Zm-29.736,116.487c-2.339,0.941 -4.283,2.977 -6.896,3.037c0.092,-0.85 0.335,-1.67 0.638,-2.46c1.033,-0.061 2.066,-0.213 3.099,-0.425c-0.031,-2.825 -0,-5.68 0.03,-8.505c-0.608,0.03 -1.215,0.03 -1.823,0.061c-0.212,-0.821 -0.425,-1.641 -0.698,-2.43c1.853,-0.092 3.675,-0.183 5.528,-0.274c0.061,3.676 -0.243,7.351 0.122,10.996Zm-0.183,5.376c-2.187,0.304 -4.404,0.577 -6.621,0.759c-0.578,-0.698 -0.092,-1.792 -0.213,-2.672c2.308,-0.031 4.556,-0.638 6.865,-0.76c-0.031,0.911 -0.061,1.792 -0.031,2.673Zm-8.474,-12.788c-0.638,-3.28 -2.886,-5.832 -4.405,-8.687c-1.002,-1.701 -1.701,-3.554 -2.095,-5.467c0.85,0.243 1.701,0.486 2.551,0.759c0.091,-0.516 0.091,-1.033 0.03,-1.519c1.155,-0.273 2.43,-0.303 3.463,-0.941c0.79,-0.547 1.245,-1.428 1.488,-2.309c2.461,-0.06 4.952,0.031 7.412,-0.06c0.03,4.708 0.061,9.385 0.061,14.093c-1.914,-0.03 -3.797,0.183 -5.68,0.213c-1.519,-3.189 -4.253,-5.528 -6.774,-7.897c2.126,2.764 4.617,5.406 5.68,8.808c1.063,3.524 1.185,7.412 -0.061,10.905c-0.243,0.79 -0.486,1.61 -0.759,2.399c-1.063,0.061 -2.157,0.213 -3.22,0.304c1.762,-3.189 3.098,-6.925 2.309,-10.601Zm-6.106,-18.71c0.243,-0.82 0.486,-1.641 0.699,-2.461c0.638,-0.06 1.306,-0.091 1.944,-0.182c0.091,-3.22 0.091,-6.409 0.122,-9.629c-1.398,-0.091 -2.765,-0.273 -4.162,-0.334c0.061,2.126 0.031,4.283 0.091,6.409c0.031,0.638 -0.03,1.367 -0.516,1.823c-0.273,0.334 -0.82,0.759 -0.395,1.245c0.79,-0.03 1.094,-0.881 1.397,-1.458c0.699,-1.701 1.033,-3.523 1.641,-5.285c-0.881,3.25 -0.547,6.713 -1.762,9.902c-1.58,-0.061 -3.19,0 -4.769,-0.061c0,-5.437 0.03,-10.874 0.03,-16.311c6.713,0.759 13.456,1.458 20.2,2.066c-0,4.708 0.03,9.416 -0,14.154c-2.43,0.061 -4.891,0 -7.321,0l0,-1.184c-0.304,0.425 -0.516,0.972 -1.002,1.275c-2.035,0.152 -4.131,0.091 -6.197,0.031Zm6.045,0.516c-0.699,0.85 -1.458,1.701 -2.521,2.005c-1.245,0.243 -2.521,0.364 -3.797,0.364c0.061,-0.79 0.182,-1.61 0.273,-2.399c2.005,-0.031 4.01,0.03 6.045,0.03Zm8.505,-15.491c-6.683,-0.699 -13.365,-1.428 -20.047,-1.914c-0.183,-1.184 -0.091,-2.399 -0.122,-3.584l0,-12.453c6.713,1.275 13.486,2.217 20.23,3.189c-0.061,4.89 -0.061,9.811 -0.061,14.762Zm0.061,-15.4c-6.683,-1.215 -13.426,-2.096 -20.169,-3.129c-0.061,-6.378 0.03,-12.757 -0,-19.136c6.743,2.036 13.425,4.374 20.108,6.622c0.03,5.194 0.061,10.419 0.061,15.643Zm-11.998,-43.861c1.61,2.157 3.098,4.496 3.614,7.199c0.213,1.276 2.035,1.549 1.975,2.916c-1.155,-0.304 -1.701,-1.428 -2.339,-2.309c0.121,2.886 -1.033,5.62 -2.612,7.958c0.425,-1.731 1.215,-3.341 1.366,-5.133c0.243,-1.64 0,-3.311 -0.486,-4.86c-0.546,-1.913 -1.609,-3.736 -1.518,-5.771Zm-10.206,20.23l-0.365,-0.274c1.124,-0.881 2.643,-0.455 3.888,-0.061c4.891,1.55 9.872,2.856 14.641,4.8c1.063,0.486 2.278,0.668 3.159,1.458c-3.615,-0.76 -7.108,-2.035 -10.692,-3.038c-3.524,-0.972 -6.986,-2.399 -10.631,-2.885Zm-6.531,108.072c-2.551,-2.095 -4.313,-5.254 -4.252,-8.626c-0.091,-3.493 2.065,-6.439 4.07,-9.112c-0.851,2.582 -2.157,5.072 -2.308,7.867c-0.274,2.642 1.154,5.163 3.158,6.804c1.064,1.032 2.643,1.761 2.977,3.31c-1.215,0.031 -2.521,0.213 -3.645,-0.243Zm6.045,-15.977c-1.671,-1.852 -2.4,-4.465 -1.853,-6.895c0.456,-1.852 1.124,-3.675 2.278,-5.224c-0.911,2.126 -1.519,4.404 -1.428,6.713c0.122,1.579 0.76,3.037 1.61,4.374c0.304,0.425 0.456,0.911 0.486,1.427c-0.395,-0.06 -0.881,0 -1.093,-0.395Zm6.713,-9.811c-0.79,0.729 -1.641,1.519 -1.823,2.643c-0.334,1.549 0.395,3.037 0.729,4.556c-1.063,-1.67 -2.096,-3.645 -1.671,-5.68c0.821,-2.248 3.038,-3.523 4.344,-5.437c1.671,-2.187 2.035,-5.164 1.337,-7.776c-0.517,-2.096 -1.458,-4.1 -2.673,-5.862c-0.76,-1.094 -1.428,-2.309 -2.43,-3.22c0.729,1.519 1.579,3.068 1.549,4.83c0.06,4.009 -1.124,8.171 -3.797,11.238c-0.577,0.699 -1.185,1.367 -1.792,2.035c0.911,-1.609 1.883,-3.25 2.369,-5.072c0.638,-2.278 0.607,-4.678 0.607,-7.017c-0.03,-1.731 -0.091,-3.462 -0.607,-5.133c-1.002,-2.521 -0.334,-5.255 -0.547,-7.897c1.58,-0 3.159,0.03 4.739,-0.031c-0.334,1.914 -0.456,3.888 -0.213,5.802c0.547,2.916 1.823,5.619 3.281,8.171c1.336,2.247 2.095,5.011 1.306,7.593c-0.669,2.643 -2.795,4.465 -4.708,6.257Zm15.886,12.181c-0.274,-0 -0.76,0.03 -1.033,0.03c-0,0.486 0.121,1.063 -0.182,1.488c-0.335,0.091 -0.699,0.152 -1.033,0.091c-0.152,-0.607 -0.334,-1.184 -0.486,-1.761c-0.425,0.243 -0.365,0.729 -0.425,1.124c-0.183,2.369 -1.094,4.768 -2.886,6.348c-1.063,0.942 -2.43,1.519 -3.858,1.519c1.58,-2.187 3.007,-4.769 2.582,-7.564c-0.455,-3.098 -3.25,-5.011 -4.617,-7.654c-0.698,-1.428 0.031,-3.129 1.063,-4.131c1.124,-0.182 2.248,-0.152 3.372,-0.273c-0.03,1.093 -0.152,2.217 0.243,3.28c0.364,1.063 0.972,2.035 1.549,3.007c-0.456,-1.093 -0.759,-2.217 -1.063,-3.341c2.278,-0.365 4.587,-0.486 6.895,-0.608c-0.03,2.825 0.061,5.65 -0.121,8.445Zm1.822,7.107c-0.061,0.82 -0.03,1.701 -0.395,2.461c-0.304,-1.306 -0.091,-2.673 -0.03,-4.01c0.152,-2.217 0.334,-4.404 0.546,-6.621l0.183,0.03c-0,2.703 -0.213,5.437 -0.304,8.14Zm0.273,-20.138c-1.215,1.063 -2.976,0.638 -4.404,1.185c1.185,-0.638 2.309,-1.367 3.372,-2.187c0.637,-0.608 1.64,0.334 1.032,1.002Zm0.183,-89.058c-0.031,-0.486 -0.061,-0.942 -0.061,-1.428c1.093,-0.851 2.46,-1.185 3.736,-1.64c5.103,-1.671 10.206,-3.311 15.369,-4.8c4.891,-1.397 9.72,-2.946 14.58,-4.343c5.316,1.883 10.571,3.918 15.795,5.923c-5.437,-1.458 -10.722,-3.523 -16.038,-5.376c-5.072,1.974 -10.145,4.009 -15.278,5.862c-4.01,1.519 -8.11,2.794 -12.089,4.313c4.526,-1.184 9.051,-2.399 13.608,-3.493c4.617,-1.093 9.173,-2.4 13.82,-3.311c0.03,7.108 0.061,14.216 -0.03,21.323c2.096,0.486 4.191,1.003 6.257,1.61c-2.217,-0.395 -4.374,-1.124 -6.622,-1.336c-9.355,2.065 -18.65,4.374 -28.005,6.348c-1.458,0.334 -2.977,0.638 -4.344,1.306c-0.061,-7.017 0.061,-14.003 -0.03,-21.019c-0.152,0.03 -0.486,0.061 -0.668,0.061Zm1.488,85.2c-0.213,2.916 -0.122,5.863 -0.547,8.779c-0.091,-8.11 -0.182,-16.22 0.031,-24.33c0.759,5.133 0.546,10.357 0.516,15.551Zm16.159,20.685c-0.546,-0.85 -0.546,-1.913 -0.972,-2.824c-0.152,-0.426 -0.516,-0.881 -0.243,-1.337c0.577,-1.245 1.215,-2.46 1.975,-3.584c0.03,2.582 -0.699,5.133 -0.76,7.745Zm-1.427,-7.138c-0.699,0.851 -1.276,1.793 -2.096,2.552c0.638,-3.038 2.369,-6.105 5.315,-7.412c-0.698,1.823 -2.035,3.342 -3.219,4.86Zm17.252,18.893c-2.703,0.092 -5.406,0.061 -8.14,0.152c0,-8.596 0.061,-17.161 -0.03,-25.757c-4.8,0.182 -9.629,0.273 -14.459,0.486c0.031,7.411 0,14.822 -0.03,22.203c-2.005,0 -4.04,0.183 -6.014,-0.273c-0.243,0 -0.729,0.061 -0.972,0.061c-0.061,-9.811 -0,-19.622 -0.031,-29.433c4.374,0.243 8.748,-0.152 13.092,-0.152c5.528,-0.03 11.026,-0.091 16.554,-0.182c0.03,10.995 0.03,21.961 0.03,32.895Zm-0.759,-33.715c-7.594,0.151 -15.187,0.516 -22.781,0.698c-2.035,0.122 -4.1,0.091 -6.136,0.334c-0.03,-15.916 -0.06,-31.832 -0.03,-47.749c-0.061,-5.042 0.03,-10.084 -0.304,-15.126c-0.121,0.061 -0.364,0.182 -0.455,0.243c-1.033,2.491 -0.912,5.224 -1.246,7.867c-0.121,2.764 -0.638,5.498 -0.759,8.262c-0.243,-1.428 -0.182,-2.886 -0.182,-4.313c-0.061,-4.374 -0.152,-8.748 -0.091,-13.092c4.343,-1.093 8.778,-1.762 13.152,-2.734c6.409,-1.397 12.848,-2.673 19.288,-4.131c0.516,-0.182 0.273,0.608 0.334,0.851c-0,22.933 0.03,45.835 -0,68.768c2.187,0.152 4.374,0.577 6.591,0.668c0.729,-0.152 1.397,0.122 2.035,0.395c-3.159,-0.395 -6.287,-0.698 -9.416,-0.941Zm16.007,-3.919c-2.338,-0.395 -4.708,-0.759 -7.046,-1.184c-0,-3.554 0.03,-7.138 -0.031,-10.692c2.339,0.364 4.708,0.729 7.047,1.093c0.03,3.615 0.122,7.199 0.03,10.783Zm-6.317,-12.879c4.343,-0.698 8.778,-0.85 13.152,-0.303c-1.58,0.668 -3.25,1.032 -4.921,1.215c-2.794,0.243 -5.498,-0.517 -8.231,-0.912Zm24.087,5.316c-0.061,7.503 0.121,15.005 0.091,22.508c0.061,1.913 -0.972,3.614 -1.853,5.254c-1.094,1.884 -2.066,3.828 -3.098,5.772c-0.061,0.03 -0.152,0.121 -0.213,0.151c0.486,-1.366 0.334,-2.824 0.425,-4.252c0.122,-2.521 0.061,-5.073 0.334,-7.594c0.972,-2.49 2.036,-4.951 3.038,-7.441c-3.797,-0.335 -7.472,-1.276 -11.239,-1.853c3.767,0.212 7.503,0.85 11.269,1.154c0.486,-3.949 0.608,-7.958 1.003,-11.937c0.243,-0.972 0.03,-1.944 -0,-2.916c0.091,-0.122 0.273,-0.365 0.364,-0.486c0,-0.851 -0.212,-1.732 -0.03,-2.582c0.091,1.428 0.091,2.825 -0.091,4.222Zm34.414,15.886c-0.881,-0.091 -1.731,-0.152 -2.612,-0.182c-0.03,-2.096 -0.03,-4.222 0.03,-6.318c0.881,0.061 1.732,0.152 2.612,0.212c0.031,2.096 0,4.192 -0.03,6.288Zm4.283,0.243c-0.638,-0 -1.306,-0.03 -1.944,-0.03c-0,-1.914 -0.061,-3.858 0.121,-5.772c0.638,-0.03 1.276,-0.03 1.884,-0.091c-0.122,1.944 -0.061,3.919 -0.061,5.893Zm1.063,-7.776c-1.974,0.122 -3.888,-0.243 -5.862,-0.364c-1.155,-0.183 -2.369,-0.061 -3.433,-0.638c3.129,0.182 6.197,0.82 9.295,1.002Zm-5.346,-7.138c-0.85,-0.152 -1.731,-0.243 -2.582,-0.334c-0.03,-2.096 -0.03,-4.192 0,-6.288c0.851,0.243 1.701,0.334 2.582,0.395c0.03,2.066 0,4.162 0,6.227Zm4.283,0.699c-0.638,-0.061 -1.276,-0.122 -1.914,-0.152c-0.03,-1.762 -0.152,-3.554 0.031,-5.316c0.425,-0.547 1.306,-0.243 1.913,-0.455c-0.121,1.974 -0.06,3.948 -0.03,5.923Zm-1.974,-30.709c0.637,-0.061 1.275,-0.152 1.913,-0.274c0,2.005 -0.03,4.04 0,6.045c-0.668,-0.213 -1.336,-0.395 -1.974,-0.607c0.061,-1.732 -0,-3.433 0.061,-5.164Zm2.065,12.393c-0.03,2.004 -0.03,4.009 -0.03,6.014c-0.669,-0.122 -1.306,-0.243 -1.975,-0.365c-0.121,-1.792 -0.06,-3.614 0,-5.406c0.638,-0.091 1.337,-0.152 2.005,-0.243Zm-4.404,-14.641c0.03,2.066 0.03,4.131 0.03,6.166c-0.82,-0.486 -1.913,-0.638 -2.582,-1.306c-0.091,-2.005 0.031,-3.979 -0.06,-5.984c0.82,0.456 1.7,0.82 2.612,1.124Zm-0,19.531c-0.851,-0.182 -1.701,-0.334 -2.552,-0.456c-0.06,-2.156 -0.03,-4.343 -0.03,-6.5c0.79,0.425 1.853,0.334 2.551,0.851c0.091,2.035 0,4.07 0.031,6.105Zm3.523,4.344c0.547,0.151 1.246,0.121 1.61,0.668c-2.582,-0 -5.164,-0.365 -7.685,-0.82c-0.546,-0.183 -1.397,-0.152 -1.549,-0.851c2.552,0 5.073,0.547 7.624,1.003Zm-7.35,41.917c-0.335,1.245 -0.912,2.581 -2.066,3.25c-0.82,0.516 -1.61,1.093 -2.43,1.61c0.304,-1.124 0.668,-2.339 1.61,-3.068c0.911,-0.699 1.914,-1.246 2.886,-1.792Zm-0.638,-14.55c-1.033,0.334 -2.157,0.395 -3.159,0.881c0.486,1.154 0.516,2.46 0.03,3.584c0.061,-1.276 -0.121,-2.582 -0.729,-3.706c0.152,-0.364 0.304,-0.698 0.486,-1.032c-0.304,-0.122 -0.577,-0.243 -0.881,-0.365c-0.82,-1.275 -1.093,-2.885 -1.063,-4.374c0.061,-1.124 1.002,-1.883 1.701,-2.673c0.03,2.278 0.091,4.557 -0.03,6.865c1.245,-0.152 2.642,-0.273 3.705,0.486c-0.03,0.03 -0.06,0.213 -0.06,0.334Zm-7.412,0.699c0.061,-0.243 0.182,-0.699 0.243,-0.942c0.79,0.79 0.942,2.005 1.033,3.038c-1.671,0.03 -3.311,0.03 -4.981,0.03c0.516,-2.248 0.151,-4.799 -1.246,-6.682c0.638,2.369 0.881,4.981 0.061,7.32c-0.456,2.46 -1.974,4.526 -3.038,6.743c0.092,-1.002 0.061,-2.035 0.243,-3.037c0.456,-1.975 1.762,-3.645 2.157,-5.65c0.456,-2.157 0.425,-4.465 -0.304,-6.531c-0.364,-0.972 -0.577,-2.004 -0.577,-3.068c-0.061,-2.521 0,-5.011 -0.03,-7.532c3.493,0.03 6.986,0.121 10.479,0.091c0,0.546 0,1.093 0.03,1.67c0.426,-0.668 0.638,-1.427 0.821,-2.187c0.303,2.035 -0.517,4.131 -1.944,5.589c-1.701,1.914 -4.04,3.827 -3.949,6.652c0.213,1.489 -0.091,3.281 1.002,4.496Zm1.246,2.247c-0.152,2.036 -1.884,3.281 -3.372,4.405c-0.061,-0.82 0.03,-1.671 -0.243,-2.461c-0.243,1.458 -0.729,2.856 -0.911,4.314c-0.182,-1.944 -1.367,-3.828 -0.851,-5.832c0.091,-0.061 0.304,-0.213 0.426,-0.274c1.64,-0.152 3.31,-0.06 4.951,-0.152Zm-7.503,-32.622c3.432,0 6.895,0.03 10.327,0.03c-0.03,2.947 0.031,5.863 -0.06,8.809c-1.306,-0.941 -2.582,-1.913 -3.949,-2.764c0.516,-0.82 0.334,-1.853 0.456,-2.794c-1.003,-0 -2.005,0.03 -3.007,0.151c0.091,0.365 0.182,0.76 0.273,1.124c1.61,1.428 3.493,2.613 4.708,4.435c1.063,1.306 1.519,2.946 1.519,4.617c-3.493,-0.122 -6.956,-0.03 -10.449,-0.061c0.152,-4.495 -0.091,-9.021 0.182,-13.547Zm0.425,-14.549c0.669,-0.031 1.337,-0.091 1.975,-0.061c0.273,0.395 -0.304,0.607 -0.334,0.972c0.212,0.911 1.275,0.729 1.974,0.668c0.152,-0.547 0.213,-1.124 -0.182,-1.61c2.126,-0.06 4.282,-0.121 6.409,-0.152c0.121,4.739 0.03,9.508 0.06,14.246c-3.402,-0.061 -6.773,0.061 -10.175,-0.061c0.395,-1.093 0.79,-2.217 0.85,-3.371c0.274,-3.25 -1.458,-6.318 -1.093,-9.599c0.577,-0.091 1.306,0.213 1.762,-0.151c-0.152,-0.486 -0.881,-0.517 -1.246,-0.881Zm3.068,-41.583c-0.152,1.762 0.334,3.523 1.397,4.921c1.094,1.457 1.944,3.067 2.734,4.708c-0.911,-1.458 -2.612,-2.187 -3.493,-3.676c-1.245,-1.67 -1.61,-4.07 -0.638,-5.953Zm-0.82,23.267c2.552,-0.729 5.103,-1.458 7.715,-1.944c1.124,-0.365 2.035,0.577 2.764,1.306c-0.607,-0.182 -1.154,-0.608 -1.792,-0.638c-3.766,0.638 -7.442,1.792 -11.238,2.157c0.759,-0.426 1.67,-0.638 2.551,-0.881Zm-2.794,7.411c-0,-1.762 -0.061,-3.523 -0,-5.255c3.523,-0.88 7.046,-1.67 10.57,-2.521c-0.213,5.984 -0,11.968 -0.091,17.952c-3.433,-0.031 -6.895,0.121 -10.328,0.06c0.152,-2.49 0.122,-4.981 0.092,-7.502c-0.76,0.516 -1.276,1.306 -1.975,1.883c-0.638,0.547 -1.549,0.486 -2.369,0.486c1.731,-0.698 3.189,-1.883 4.556,-3.128c0.395,-0.304 0.456,-0.821 0.547,-1.246c-0.699,0.274 -1.397,0.547 -2.126,0.79c-0.091,-0.122 -0.274,-0.334 -0.365,-0.456c0.608,0.213 1.61,-0.273 1.489,-1.063Zm-3.797,17.952c0.091,0.212 0.243,0.637 0.334,0.85c0.152,-0.121 0.425,-0.364 0.547,-0.486c0.334,0.456 0.82,0.091 1.275,-0.03c0.091,4.556 0.061,9.112 0.091,13.668c-3.584,-0.85 -7.138,-1.883 -10.691,-2.855c-0.031,-4.86 -0,-9.75 -0.031,-14.61c2.43,0.881 4.951,1.64 7.26,2.794c0.091,0.577 0.182,1.155 0.395,1.732c0.607,0.06 0.789,-0.608 0.82,-1.063Zm-0.395,-7.807c0.759,-0.273 1.488,-0.607 2.278,-0.85c0.607,2.794 0.304,5.65 0.273,8.505c-0.486,-0.183 -0.972,-0.395 -1.427,-0.608c-1.033,-2.187 -1.489,-4.617 -1.124,-7.047Zm-4.647,-21.778c2.521,1.032 4.738,2.703 7.229,3.827c0.121,2.825 0.03,5.619 0.03,8.444c-0.82,-0.942 -2.339,-1.215 -2.764,-2.491c-0.273,-1.792 -0.091,-3.645 -0.121,-5.467c-0.031,-0.365 0.06,-0.911 -0.456,-0.972c-1.154,-0.456 -2.309,-0.851 -3.432,-1.367c0.273,0.881 0.425,1.792 0.486,2.734c-0.608,-0.304 -1.367,-0.577 -1.55,-1.276c-0.243,-1.154 0.213,-2.339 0.578,-3.432Zm2.49,8.596c-0.395,-0.881 -0.729,-1.853 -0.607,-2.825c0.395,0.911 0.547,1.883 0.607,2.825Zm-4.283,-1.884c0.972,1.884 2.734,3.129 4.162,4.648c1.124,1.002 2.156,2.339 2.096,3.949c-0.972,-0.152 -1.489,-1.215 -2.43,-1.458c-0.517,-0.122 -1.519,-0.79 -1.306,0.334c-1.215,-0.79 -2.066,-2.035 -2.704,-3.311c-0.668,-1.337 -0.395,-2.886 0.182,-4.162Zm-1.549,5.62c1.762,0.607 2.005,2.794 3.585,3.584c0.121,2.521 -0,5.042 0.03,7.563c1.124,0.456 2.43,0.638 3.311,1.519c0.455,0.881 0.212,1.974 0.364,2.946c-2.46,-1.063 -5.072,-1.883 -7.442,-3.159c0.183,-4.161 -0.03,-8.292 0.152,-12.453Zm0.061,78.063c0.152,-0.395 0.577,-0.547 0.942,-0.638c1.093,-0.031 -0.699,1.245 -0.942,0.638Zm4.526,-4.192c-0.729,-0.486 -0.82,-1.731 -0.911,-2.612c0.395,-1.306 0.364,-2.704 0.607,-4.01c0.395,2.187 1.124,4.465 0.304,6.622Zm-1.033,-5.103c-0.911,-0.152 -1.822,-0.334 -2.734,-0.577c-0.212,0.668 0,1.731 -0.82,2.035c-0.212,-2.339 -0.182,-4.647 -0.182,-6.986c1.792,-0.061 3.615,0.03 5.376,-0.395c-1.123,1.792 -1.336,3.888 -1.64,5.923Zm-3.432,-6.288c-0.031,-0.121 -0.061,-0.394 -0.091,-0.516c1.063,-0.547 1.518,-1.792 2.065,-2.794c0.881,-1.671 1.246,-4.04 -0.212,-5.498c-0.183,1.822 0.091,3.736 -0.578,5.498c-0.394,1.002 -0.607,2.187 -1.488,2.855c0.061,-4.921 0.091,-9.872 0.091,-14.793c2.43,0.183 4.83,0.638 7.26,0.79c-0.031,-0.182 -0.091,-0.516 -0.122,-0.699c-2.369,-0.334 -4.738,-0.516 -7.077,-0.941c-0.091,-5.468 -0,-10.965 -0.03,-16.463c3.584,0.881 7.107,1.913 10.691,2.764c0,4.738 -0.091,9.507 0.122,14.246c-0.608,-0.578 -1.276,-1.094 -2.035,-1.458c1.093,1.032 1.762,2.43 1.822,3.948c0.061,2.127 0.243,4.283 -0.091,6.379c-0.729,2.855 -3.462,4.435 -5.042,6.774c-1.762,-0.304 -3.523,-0.031 -5.285,-0.092Zm19.865,14.641c-4.769,0.061 -9.507,0.243 -14.276,0.121c6.075,-0.577 12.15,-0.729 18.255,-0.394c1.215,0.03 2.43,-0 3.645,0.091c-2.552,0.121 -5.103,-0.122 -7.624,0.182Z" style="fill:#231f20;fill-rule:nonzero;"/>
    </g>
    <g>
      <path d="M273.914,126.103c-0,-1.455 -1.158,-2.651 -2.604,-2.651c-1.455,-0 -2.605,1.196 -2.605,2.651c0,1.454 1.15,2.651 2.605,2.651c1.446,-0 2.604,-1.197 2.604,-2.651" style="fill-rule:nonzero;"/>
      <path d="M273.914,138.615c-0,-1.455 -1.158,-2.651 -2.604,-2.651c-1.455,-0 -2.605,1.196 -2.605,2.651c0,1.454 1.15,2.651 2.605,2.651c1.446,-0 2.604,-1.197 2.604,-2.651" style="fill-rule:nonzero;"/>
      <path d="M279.661,106.646l0,51.425" style="fill:none;fill-rule:nonzero;stroke:#000;stroke-width:2.25px;"/>
      <path d="M288.858,106.646l-0,51.425" style="fill:none;fill-rule:nonzero;stroke:#000;stroke-width:6.88px;"/>
      <path d="M116.523,106.646l0,51.425" style="fill:none;fill-rule:nonzero;stroke:#000;stroke-width:2.25px;"/>
      <path d="M118.838,106.646l0,51.425" style="fill:none;fill-rule:nonzero;stroke:#000;stroke-width:6.88px;"/>
      <path d="M128.035,106.646l-0,51.425" style="fill:none;fill-rule:nonzero;stroke:#000;stroke-width:2.25px;"/>
      <path d="M138.999,126.103c-0,-1.455 -1.158,-2.651 -2.605,-2.651c-1.454,-0 -2.604,1.196 -2.604,2.651c0,1.454 1.15,2.651 2.604,2.651c1.447,-0 2.605,-1.197 2.605,-2.651" style="fill-rule:nonzero;"/>
      <path d="M138.999,138.615c-0,-1.455 -1.158,-2.651 -2.605,-2.651c-1.454,-0 -2.604,1.196 -2.604,2.651c0,1.454 1.15,2.651 2.604,2.651c1.447,-0 2.605,-1.197 2.605,-2.651" style="fill-rule:nonzero;"/>
      <path d="M193.281,115.693l0,66.715" style="fill:none;fill-rule:nonzero;stroke:#000;stroke-width:1.25px;"/>
      <path d="M231.306,115.693l-0,66.715" style="fill:none;fill-rule:nonzero;stroke:#000;stroke-width:1.25px;"/>
      <path d="M155.257,115.693l-0,66.715" style="fill:none;fill-rule:nonzero;stroke:#000;stroke-width:1.25px;"/>
      <path d="M192.656,153.231c-0,2.15 1.548,4.551 5.607,4.551c5.2,-0 10.659,-4.254 10.659,-8.657c-0,-2.956 -2.503,-4.606 -5.607,-4.606c-4.857,-0 -10.659,4.106 -10.659,8.712" style="fill-rule:nonzero;"/>
      <path d="M192.656,134.462c-0,2.151 1.548,4.552 5.607,4.552c5.2,-0 10.659,-4.255 10.659,-8.657c-0,-2.956 -2.503,-4.606 -5.607,-4.606c-4.857,-0 -10.659,4.105 -10.659,8.711" style="fill-rule:nonzero;"/>
      <path d="M192.656,115.694c-0,2.15 1.548,4.551 5.607,4.551c5.2,0 10.659,-4.254 10.659,-8.657c-0,-2.956 -2.503,-4.606 -5.607,-4.606c-4.857,0 -10.659,4.106 -10.659,8.712" style="fill-rule:nonzero;"/>
      <path d="M154.631,115.694c0,2.15 1.549,4.551 5.607,4.551c5.201,0 10.659,-4.254 10.659,-8.657c0,-2.956 -2.502,-4.606 -5.607,-4.606c-4.856,0 -10.659,4.106 -10.659,8.712" style="fill-rule:nonzero;"/>
      <path d="M230.68,153.231c0,2.15 1.549,4.551 5.607,4.551c5.201,-0 10.659,-4.254 10.659,-8.657c0,-2.956 -2.502,-4.606 -5.607,-4.606c-4.856,-0 -10.659,4.106 -10.659,8.712" style="fill-rule:nonzero;"/>
      <path d="M230.68,134.462c0,2.151 1.549,4.552 5.607,4.552c5.201,-0 10.659,-4.255 10.659,-8.657c0,-2.956 -2.502,-4.606 -5.607,-4.606c-4.856,-0 -10.659,4.105 -10.659,8.711" style="fill-rule:nonzero;"/>
      <path d="M230.68,115.694c0,2.15 1.549,4.551 5.607,4.551c5.201,0 10.659,-4.254 10.659,-8.657c0,-2.956 -2.502,-4.606 -5.607,-4.606c-4.856,0 -10.659,4.106 -10.659,8.712" style="fill-rule:nonzero;"/>
      <path d="M154.631,134.462c0,2.151 1.549,4.552 5.607,4.552c5.201,-0 10.659,-4.255 10.659,-8.657c0,-2.956 -2.502,-4.606 -5.607,-4.606c-4.856,-0 -10.659,4.105 -10.659,8.711" style="fill-rule:nonzero;"/>
      <path d="M154.631,153.231c0,2.15 1.549,4.551 5.607,4.551c5.201,-0 10.659,-4.254 10.659,-8.657c0,-2.956 -2.502,-4.606 -5.607,-4.606c-4.856,-0 -10.659,4.106 -10.659,8.712" style="fill-rule:nonzero;"/>
      <path d="M154.627,89.927l-0.046,-0l-0.102,-0.047c-0.454,-0 -0.751,0.297 -0.751,0.703l0,1.15c0,0.297 0.25,0.547 0.501,0.649l10.713,3.355l-10.713,3.402c-0.251,0.101 -0.501,0.352 -0.501,0.649l0,1.149c0,0.407 0.297,0.704 0.751,0.704l0.102,-0.047l0.046,0l16.673,-5.161c0.25,-0.094 0.501,-0.399 0.501,-0.696c-0,-0.305 -0.251,-0.555 -0.501,-0.649l-16.673,-5.161" style="fill-rule:nonzero;"/>
      <path d="M192.652,89.927l-0.047,-0l-0.102,-0.047c-0.453,-0 -0.75,0.297 -0.75,0.703l-0,1.15c-0,0.297 0.25,0.547 0.5,0.649l10.714,3.355l-10.714,3.402c-0.25,0.101 -0.5,0.352 -0.5,0.649l-0,1.149c-0,0.407 0.297,0.704 0.75,0.704l0.102,-0.047l0.047,0l16.673,-5.161c0.25,-0.094 0.5,-0.399 0.5,-0.696c0,-0.305 -0.25,-0.555 -0.5,-0.649l-16.673,-5.161" style="fill-rule:nonzero;"/>
      <path d="M230.677,89.927l-0.047,-0l-0.102,-0.047c-0.454,-0 -0.751,0.297 -0.751,0.703l0,1.15c0,0.297 0.251,0.547 0.501,0.649l10.713,3.355l-10.713,3.402c-0.25,0.101 -0.501,0.352 -0.501,0.649l0,1.149c0,0.407 0.297,0.704 0.751,0.704l0.102,-0.047l0.047,0l16.672,-5.161c0.25,-0.094 0.501,-0.399 0.501,-0.696c-0,-0.305 -0.251,-0.555 -0.501,-0.649l-16.672,-5.161" style="fill-rule:nonzero;"/>
      <path d="M152.99,204.252c1.396,-5.148 1.797,-6.046 2.546,-6.646c0.402,-0.299 0.749,-0.394 1.001,-0.394c0.095,0 0.198,0.048 0.245,0.048c0.299,0.047 0.552,0.346 0.552,0.646c-0,0.252 -0.103,0.505 -0.3,0.599c-0.497,0.402 -0.749,1.049 -0.749,1.703c0,0.244 0.048,0.497 0.103,0.749c0.149,0.449 0.543,0.946 1.048,1.151c0.197,0.095 0.497,0.15 0.797,0.15c1.095,-0 2.151,-0.749 2.451,-1.806c0.094,-0.299 0.15,-0.646 0.15,-0.946c-0,-0.599 -0.15,-1.198 -0.505,-1.75c-0.701,-1.348 -2.696,-1.947 -4.146,-1.947c-4.596,0 -6.638,4.793 -7.892,8.49l-0.047,0.103l-3.8,-0c-0.299,-0 -0.496,0.197 -0.496,0.496l-0,1.104c-0,0.3 0.197,0.497 0.496,0.497l3.154,-0l-0.055,0.197c-0.497,2.002 -0.899,3.752 -1.246,5.4c-0.402,1.844 -0.851,3.792 -1.45,6.093l-0.15,0.6c-1.049,4.091 -1.395,5.542 -2.594,6.338c-0.252,0.15 -0.552,0.252 -0.851,0.252c-0.253,-0 -0.449,-0.047 -0.655,-0.197c-0.149,-0.103 -0.346,-0.299 -0.299,-0.552c0.055,-0.197 0.205,-0.402 0.449,-0.497c0.954,-0.401 1.254,-1.347 1.254,-2.151c-0,-0.694 -0.497,-1.995 -2.302,-1.995c-1.348,0 -2.593,1.301 -2.593,2.649c-0,2.641 1.797,4.044 4.099,4.044c1.592,-0 2.743,-0.552 3.989,-1.797c2.199,-2.2 4.595,-9.689 5.849,-13.938c0.449,-1.6 0.899,-3.193 1.245,-4.344l0,-0.102l7.797,-0l-0.055,0.197c-0.497,2.002 -0.899,3.752 -1.246,5.4c-0.402,1.844 -0.851,3.792 -1.45,6.093l-0.15,0.6c-1.049,4.091 -1.395,5.542 -2.594,6.338c-0.252,0.15 -0.552,0.252 -0.851,0.252c-0.253,-0 -0.449,-0.047 -0.655,-0.197c-0.149,-0.103 -0.346,-0.355 -0.299,-0.599c0.055,-0.205 0.205,-0.355 0.449,-0.45c0.954,-0.401 1.254,-1.347 1.254,-2.151c-0,-0.694 -0.497,-1.995 -2.302,-1.995c-1.348,0 -2.593,1.245 -2.593,2.593c-0,2.649 1.797,4.1 4.099,4.1c1.592,-0 2.743,-0.552 3.989,-1.797c2.199,-2.2 4.595,-9.689 5.849,-13.938c0.449,-1.6 0.899,-3.193 1.245,-4.344l0,-0.102l3.65,-0c0.3,-0 0.497,-0.197 0.497,-0.497l-0,-1.104c-0,-0.299 -0.197,-0.496 -0.497,-0.496l-3.003,-0l0.055,-0.15c1.396,-5.148 1.797,-6.046 2.546,-6.646c0.402,-0.299 0.749,-0.394 1.001,-0.394c0.095,0 0.198,0.048 0.245,0.048c0.299,0.047 0.552,0.346 0.552,0.646c-0,0.252 -0.103,0.505 -0.3,0.599c-0.497,0.402 -0.749,1.049 -0.749,1.703c0,0.244 0.048,0.497 0.103,0.749c0.149,0.449 0.543,0.946 1.048,1.151c0.197,0.095 0.497,0.15 0.797,0.15c1.095,-0 2.151,-0.749 2.451,-1.806c0.094,-0.299 0.15,-0.646 0.15,-0.946c-0,-0.599 -0.15,-1.198 -0.505,-1.75c-0.701,-1.348 -2.696,-1.947 -4.146,-1.947c-4.596,0 -6.638,4.793 -7.892,8.49l-0.047,0.103l-7.796,-0l0.055,-0.15" style="fill-rule:nonzero;"/>
    </g>
  </g>
</svg>
