<?xml version="1.0" encoding="UTF-8" standalone="no"?>
<!DOCTYPE svg PUBLIC "-//W3C//DTD SVG 1.1//EN" "http://www.w3.org/Graphics/SVG/1.1/DTD/svg11.dtd">
<svg width="100%" height="100%" viewBox="0 0 406 529" version="1.1" xmlns="http://www.w3.org/2000/svg" xmlns:xlink="http://www.w3.org/1999/xlink" xml:space="preserve" xmlns:serif="http://www.serif.com/" style="fill-rule:evenodd;clip-rule:evenodd;stroke-linejoin:bevel;">
  <rect id="L6-3" x="0.145" y="0.133" width="405.12" height="528" style="fill:none;"/>
  <clipPath id="_clip1">
    <rect x="0.145" y="0.133" width="405.12" height="528"/>
  </clipPath>
  <g clip-path="url(#_clip1)">
    <g id="staff-top" serif:id="staff top">
      <path d="M0.145,106.933l405.12,0" style="fill:none;fill-rule:nonzero;stroke:#000;stroke-width:1.2px;"/>
      <path d="M0.145,119.533l405.12,0" style="fill:none;fill-rule:nonzero;stroke:#000;stroke-width:1.2px;"/>
      <path d="M0.145,132.133l405.12,0" style="fill:none;fill-rule:nonzero;stroke:#000;stroke-width:1.2px;"/>
      <path d="M0.145,144.733l405.12,0" style="fill:none;fill-rule:nonzero;stroke:#000;stroke-width:1.2px;"/>
      <path d="M0.145,157.333l405.12,0" style="fill:none;fill-rule:nonzero;stroke:#000;stroke-width:1.2px;"/>
    </g>
	  <a href="L6-4.svg">
    <circle cx="364.753" cy="491.173" r="17.4" style="fill:#dc4263;"/>
	  </a>
    <g>
      <path d="M109.849,102.833c38.102,-24.353 152.692,-17.733 186.295,12.261c-33.861,-26.079 -148.45,-32.699 -186.295,-12.261" style="stroke:#000;stroke-width:0.61px;stroke-linecap:round;stroke-linejoin:round;"/>
      <path d="M64.544,107.063l-0,50.39" style="fill:none;fill-rule:nonzero;stroke:#000;stroke-width:2.2px;"/>
      <path d="M66.812,107.063l0,50.39" style="fill:none;fill-rule:nonzero;stroke:#000;stroke-width:6.74px;"/>
      <path d="M75.823,107.063l0,50.39" style="fill:none;fill-rule:nonzero;stroke:#000;stroke-width:2.2px;"/>
      <path d="M86.566,126.128c0,-1.426 -1.134,-2.598 -2.551,-2.598c-1.425,0 -2.552,1.172 -2.552,2.598c0,1.425 1.127,2.597 2.552,2.597c1.417,0 2.551,-1.172 2.551,-2.597" style="fill-rule:nonzero;"/>
      <path d="M86.566,138.388c0,-1.425 -1.134,-2.598 -2.551,-2.598c-1.425,0 -2.552,1.173 -2.552,2.598c0,1.425 1.127,2.598 2.552,2.598c1.417,-0 2.551,-1.173 2.551,-2.598" style="fill-rule:nonzero;"/>
      <path d="M330.541,126.128c0,-1.426 -1.134,-2.598 -2.552,-2.598c-1.425,0 -2.551,1.172 -2.551,2.598c-0,1.425 1.126,2.597 2.551,2.597c1.418,0 2.552,-1.172 2.552,-2.597" style="fill-rule:nonzero;"/>
      <path d="M330.541,138.388c0,-1.425 -1.134,-2.598 -2.552,-2.598c-1.425,0 -2.551,1.173 -2.551,2.598c-0,1.425 1.126,2.598 2.551,2.598c1.418,-0 2.552,-1.173 2.552,-2.598" style="fill-rule:nonzero;"/>
      <path d="M336.173,107.063l-0,50.39" style="fill:none;fill-rule:nonzero;stroke:#000;stroke-width:2.2px;"/>
      <path d="M345.184,107.063l0,50.39" style="fill:none;fill-rule:nonzero;stroke:#000;stroke-width:6.74px;"/>
      <path d="M102.497,115.927l0,40.851" style="fill:none;fill-rule:nonzero;stroke:#000;stroke-width:1.23px;"/>
      <path d="M139.756,128.188l0,37.785" style="fill:none;fill-rule:nonzero;stroke:#000;stroke-width:1.23px;"/>
      <path d="M177.015,115.927l-0,40.851" style="fill:none;fill-rule:nonzero;stroke:#000;stroke-width:1.23px;"/>
      <path d="M214.274,128.188l0,37.785" style="fill:none;fill-rule:nonzero;stroke:#000;stroke-width:1.23px;"/>
      <path d="M251.533,115.927l-0,40.851" style="fill:none;fill-rule:nonzero;stroke:#000;stroke-width:1.23px;"/>
      <path d="M288.792,128.188l-0,37.785" style="fill:none;fill-rule:nonzero;stroke:#000;stroke-width:1.23px;"/>
      <path d="M101.884,115.929c0,2.107 1.517,4.459 5.494,4.459c5.096,0 10.445,-4.168 10.445,-8.482c-0,-2.897 -2.452,-4.513 -5.494,-4.513c-4.759,-0 -10.445,4.022 -10.445,8.536" style="fill-rule:nonzero;"/>
      <path d="M139.143,128.189c0,2.107 1.517,4.46 5.494,4.46c5.096,-0 10.444,-4.169 10.444,-8.483c0,-2.896 -2.452,-4.513 -5.494,-4.513c-4.758,-0 -10.444,4.023 -10.444,8.536" style="fill-rule:nonzero;"/>
      <path d="M176.402,115.929c-0,2.107 1.517,4.459 5.494,4.459c5.096,0 10.444,-4.168 10.444,-8.482c0,-2.897 -2.452,-4.513 -5.494,-4.513c-4.758,-0 -10.444,4.022 -10.444,8.536" style="fill-rule:nonzero;"/>
      <path d="M213.661,128.189c0,2.107 1.517,4.46 5.494,4.46c5.096,-0 10.444,-4.169 10.444,-8.483c0,-2.896 -2.452,-4.513 -5.494,-4.513c-4.758,-0 -10.444,4.023 -10.444,8.536" style="fill-rule:nonzero;"/>
      <path d="M250.92,115.929c-0,2.107 1.517,4.459 5.494,4.459c5.096,0 10.444,-4.168 10.444,-8.482c0,-2.897 -2.452,-4.513 -5.494,-4.513c-4.758,-0 -10.444,4.022 -10.444,8.536" style="fill-rule:nonzero;"/>
      <path d="M288.179,128.189c-0,2.107 1.517,4.46 5.494,4.46c5.095,-0 10.444,-4.169 10.444,-8.483c-0,-2.896 -2.452,-4.513 -5.494,-4.513c-4.759,-0 -10.444,4.023 -10.444,8.536" style="fill-rule:nonzero;"/>
    </g>
    <g>
      <g>
        <path d="M285.299,403.733c0.848,-0.063 1.621,0.201 2.513,0.638c-0.925,-1.057 -1.456,-1.181 -2.513,-0.638Zm-105.91,-2.263c0.067,0.158 0.216,0.153 0.344,0.157c3.536,0.107 7.072,0.139 10.608,-0.006c0.187,-0.008 0.441,0.04 0.489,-0.261c-1.695,-0.342 -10.493,-0.257 -11.441,0.11Zm119.122,-2.756c-0.052,-0.784 -0.152,-1.512 -0.588,-2.143c-0.586,-0.846 -1.45,-0.878 -2.099,-0.084c-0.822,1.006 -0.896,3.32 -0.139,4.392c0.666,0.944 1.559,0.946 2.218,-0.003c0.459,-0.662 0.529,-1.434 0.608,-2.162Zm-125.552,-23.873c-1.29,-0.35 -2.544,-0.441 -3.797,0.074c-1.118,0.459 -1.811,1.308 -2.133,2.452c-0.291,1.027 0.162,2.029 1.154,2.425c1.021,0.408 2.094,0.499 3.185,0.267c0.152,-0.438 0.464,-0.768 0.316,-1.213c-0.318,-0.23 -0.633,-0.059 -0.938,-0.05c-0.421,0.012 -0.84,0.043 -1.247,-0.114c-0.924,-0.355 -1.168,-1.134 -0.598,-1.926c0.298,-0.414 0.697,-0.66 1.18,-0.831c0.814,-0.286 1.578,-0.046 2.359,0.203c0.262,-0.403 0.47,-0.754 0.519,-1.287Zm-46.411,0.531c-1.139,-0.129 -1.979,0.17 -2.702,0.886c-0.696,0.69 -1.462,1.31 -2.161,1.996c-0.686,0.673 -1.327,1.391 -2.013,2.117c0.532,0.098 1.043,0.036 1.598,-0.098c0.694,-1.222 1.886,-0.859 2.911,-0.911c0.274,0.254 -0.123,0.515 0.173,0.762c0.472,0.064 0.982,0.073 1.513,-0.285c0.218,-1.437 0.443,-2.912 0.681,-4.467Zm21.236,-0.989c-0.066,0.078 -0.15,0.148 -0.197,0.238c-0.304,0.593 -0.603,1.19 -0.898,1.787c-0.233,0.473 -0.457,0.953 -0.811,1.35c-0.628,0.704 -1.51,0.822 -2.369,0.299c0.156,-1.37 1.193,-2.38 1.714,-3.811c-0.647,0.229 -1.171,-0.014 -1.735,0.214c-0.443,0.791 -0.906,1.614 -1.366,2.439c-0.085,0.153 -0.166,0.31 -0.235,0.47c-0.482,1.121 -0.105,1.936 1.087,2.236c1.591,0.4 3.053,0.052 4.148,-1.156c1.039,-1.144 1.582,-2.608 2.231,-4.166c-0.615,0.016 -1.087,-0.123 -1.569,0.1Zm26.279,0.433c-0.707,1.787 -1.448,3.457 -1.993,5.289c1.668,0.163 3.217,0.41 4.829,0.258c0.14,-0.368 0.356,-0.683 0.241,-1.136c-1.035,0.012 -2.018,-0.136 -2.984,-0.312c-0.042,-0.395 0.139,-0.599 0.352,-0.805c0.937,-0.168 1.865,0.237 2.801,0.115c0.3,-0.323 0.427,-0.649 0.284,-1.069c-0.895,-0.113 -1.753,-0.221 -2.602,-0.329c-0.052,-0.232 -0.108,-0.4 0.145,-0.591c0.968,-0.027 2.005,0.267 3.085,0.112c0.186,-0.313 0.525,-0.558 0.351,-1.033c-1.437,-0.356 -2.924,-0.2 -4.509,-0.499Zm101.249,25.863c0.006,-0.833 -0.104,-1.488 -0.372,-2.106c-0.277,-0.64 -0.686,-1.156 -1.454,-1.198c-0.798,-0.044 -1.345,0.385 -1.676,1.054c-0.725,1.464 -0.785,2.963 -0.071,4.454c0.291,0.606 0.777,1.023 1.469,1.038c0.692,0.016 1.18,-0.386 1.507,-0.976c0.417,-0.753 0.561,-1.576 0.597,-2.266Zm-158.398,-1.199c-1.906,0.051 -3.811,-0.284 -5.681,0.036c-0.294,0.908 -0.268,1.895 -0.007,2.567c0.171,0.44 0.445,0.673 0.931,0.717c1.543,0.141 3.087,0.17 4.634,0.131c0.217,-0.005 0.416,-0.069 0.625,-0.361c0.055,-0.95 -0.036,-1.973 -0.502,-3.09Zm47.863,-22.41c-0.626,-0.816 -0.526,-1.783 -0.893,-2.601c-0.592,-0.142 -1.168,-0.145 -1.773,0.035c-0.628,1.72 -1.242,3.421 -1.999,5.108c0.616,0.253 1.11,0.235 1.611,0.005c0.346,-0.882 0.686,-1.748 1.064,-2.71c0.594,0.988 0.708,2.067 1.226,2.982c0.239,0.026 0.445,0.061 0.651,0.067c0.208,0.005 0.424,0.021 0.719,-0.191c0.587,-1.657 1.31,-3.383 2.077,-5.119c-0.576,-0.28 -1.071,-0.313 -1.618,-0.062c-0.337,0.787 -0.681,1.589 -1.065,2.486Zm-27.728,-2.438c-0.637,1.605 -1.496,3.086 -2.305,4.592c-0.058,0.109 -0.025,0.266 -0.043,0.507c1.607,-0.02 3.18,0.07 4.719,-0.264c0.745,-0.162 1.21,-0.781 1.606,-1.431c0.277,-0.456 -0.049,-0.773 -0.215,-1.118c0.259,-0.219 0.488,-0.382 0.679,-0.581c0.32,-0.334 0.639,-0.707 0.418,-1.206c-0.204,-0.457 -0.626,-0.661 -1.116,-0.647c-1.22,0.035 -2.441,0.094 -3.743,0.148Zm40.987,-51.034c1.835,0.083 3.51,-0.23 5.203,-0.276c0.415,-1.587 0.989,-2.97 1.834,-4.444c-2.462,0.242 -4.747,0.365 -7.085,0.731c-0.04,1.33 -0.067,2.578 0.048,3.989Zm-44.174,56.031c0.563,-1.628 1.654,-3.073 2.242,-4.828c-0.937,-0.305 -1.717,-0.302 -2.406,0.36c-0.976,0.939 -2.038,1.785 -3.021,2.956c0.269,-1.14 0.762,-2.044 0.771,-3.102c-0.481,-0 -0.897,0.019 -1.31,-0.005c-0.591,-0.034 -0.995,0.2 -1.29,0.716c-0.296,0.516 -0.658,0.993 -0.977,1.497c-0.537,0.848 -1.062,1.705 -1.62,2.602c0.537,0.292 0.999,0.192 1.492,0.077c0.549,-0.949 1.092,-1.886 1.692,-2.921c-0.079,1.02 -0.434,1.943 -0.039,2.926c1.016,0.09 1.623,-0.557 2.231,-1.176c0.627,-0.638 1.229,-1.3 1.994,-2.113c-0.411,1.194 -1.319,1.974 -1.189,3.119c0.493,0.113 0.871,0.122 1.43,-0.108Zm24.077,-5.259c-1.738,1.623 -3.336,3.115 -4.92,4.594c-0.064,-0.171 0.239,-0.412 -0.039,-0.653c-0.853,-0.363 -1.804,0.229 -2.723,-0.092c0.375,-1.383 1.223,-2.484 1.757,-3.864c-0.611,-0.065 -1.104,-0.215 -1.748,0.035c-0.648,1.677 -1.613,3.293 -2.429,5.13l6.841,-0c0.2,-0.285 0.379,-0.538 0.584,-0.829c0.902,-0.095 1.8,-0.068 2.629,0.014c0.353,0.295 -0.024,0.7 0.403,0.998c0.363,0.041 0.834,0.135 1.407,-0.126c0.074,-1.724 -0.309,-3.436 -0.218,-5.207l-1.544,0Zm38.463,14.977l0,10.095c0.676,0.162 1.3,0.147 1.921,0.053c1.21,-0.184 1.755,-0.782 1.932,-1.994c0.278,-1.898 0.004,-3.783 -0.12,-5.669c-0.037,-0.55 -0.147,-1.114 -0.399,-1.628c-0.227,-0.462 -0.538,-0.841 -1.066,-0.935c-0.724,-0.129 -1.451,-0.164 -2.268,0.078Zm12.686,-22.084c-0.212,-0.228 -0.356,-0.188 -0.492,-0.165c-5.417,0.952 -10.693,2.359 -15.639,4.838c-2.312,1.159 -4.442,2.565 -6.184,4.503c-0.233,0.26 -0.578,0.474 -0.571,1.076c7.58,-3.713 15.217,-6.964 22.886,-10.252Zm82.587,-30.411l0.01,-0c0,1.194 -0.014,2.389 0.006,3.584c0.011,0.629 0.224,1.201 0.849,1.462c1.295,0.543 2.606,1.055 3.971,1.393c0.88,0.218 1.414,-0.168 1.57,-1.068c0.036,-0.206 0.036,-0.42 0.036,-0.63c0,-1.758 -0.006,-3.515 -0.003,-5.273c0.001,-0.496 -0.091,-0.977 -0.185,-1.46c-0.123,-0.625 -0.452,-1.102 -0.993,-1.423c-1.154,-0.685 -2.397,-1.176 -3.661,-1.603c-0.647,-0.218 -1.063,0.02 -1.393,0.624c-0.176,0.321 -0.206,0.666 -0.207,1.02c-0,1.125 0,2.249 0,3.374Zm-113.419,-18.204c1.184,0.179 31.589,-2.718 32.461,-3.069c0.037,-0.598 -0.119,-1.149 -0.422,-1.628c-0.349,-0.181 -0.667,-0.109 -0.977,-0.074c-1.918,0.214 -3.834,0.442 -5.752,0.654c-4.219,0.467 -8.438,0.935 -12.659,1.388c-3.313,0.355 -6.625,0.759 -9.947,0.997c-1.266,0.091 -1.959,0.739 -2.704,1.732Zm-20.788,3.551l-0.042,-0c0,0.772 -0.015,1.543 0.003,2.315c0.032,1.302 0.537,1.782 1.941,1.777c1.262,-0.004 2.526,-0.097 3.783,-0.222c1.445,-0.143 1.913,-0.641 1.935,-2.105c0.022,-1.508 -0.022,-3.02 -0.099,-4.527c-0.056,-1.112 -0.741,-1.777 -1.842,-1.742c-1.33,0.042 -2.664,0.146 -3.983,0.321c-1.227,0.163 -1.768,0.84 -1.785,2.08c-0.008,0.7 0.057,1.402 0.089,2.103Zm18.655,-1.079l0.044,0c0,-0.702 0.015,-1.404 -0.003,-2.107c-0.038,-1.536 -0.909,-2.304 -2.452,-2.165c-1.222,0.111 -2.443,0.235 -3.665,0.356c-1.05,0.105 -1.698,0.663 -1.792,1.724c-0.154,1.712 -0.176,3.434 -0.026,5.148c0.095,1.077 0.749,1.617 1.845,1.588c1.368,-0.037 2.736,-0.093 4.101,-0.19c1.239,-0.09 1.84,-0.685 1.937,-1.933c0.062,-0.802 0.011,-1.613 0.011,-2.421Zm46.148,-3.473c0.027,-0 0.054,-0.001 0.081,-0.001c-0.05,-0.876 -0.08,-1.753 -0.153,-2.627c-0.108,-1.269 -0.7,-1.823 -1.96,-1.835c-1.441,-0.013 -2.869,0.191 -4.294,0.359c-1.396,0.164 -1.95,0.741 -1.991,2.118c-0.05,1.681 -0.009,3.368 0.077,5.048c0.061,1.178 0.661,1.646 1.847,1.674c1.549,0.035 3.079,-0.213 4.621,-0.277c1.108,-0.047 1.65,-0.598 1.755,-1.726c0.084,-0.903 0.017,-1.821 0.017,-2.733Zm-109.872,79.465c0,0.033 0,0.066 0,0.099c0.878,0 1.757,0.031 2.633,-0.008c1.012,-0.044 1.597,-0.586 1.603,-1.579c0.01,-1.613 0.065,-3.232 -0.136,-4.839c-0.126,-1.001 -0.647,-1.575 -1.628,-1.599c-1.824,-0.046 -3.652,-0.046 -5.476,0.016c-0.969,0.032 -1.599,0.652 -1.639,1.603c-0.066,1.576 -0.128,3.161 0.127,4.729c0.16,0.988 0.669,1.493 1.676,1.564c0.942,0.066 1.893,0.014 2.84,0.014Zm124.546,-80.362l0.005,-0c-0,-0.806 0.011,-1.613 -0.002,-2.419c-0.029,-1.707 -0.924,-2.526 -2.594,-2.373c-1.325,0.121 -2.649,0.252 -3.972,0.384c-1.062,0.107 -1.904,0.813 -1.941,1.864c-0.066,1.888 -0.098,3.786 0.096,5.67c0.117,1.141 0.659,1.631 1.806,1.609c1.645,-0.033 3.292,-0.126 4.929,-0.287c1.117,-0.11 1.642,-0.786 1.669,-1.924c0.02,-0.841 0.004,-1.683 0.004,-2.524Zm3.142,-0.377l0.084,0c-0,0.809 -0.019,1.618 0.004,2.426c0.042,1.407 0.74,2.056 2.137,1.979c1.544,-0.085 3.086,-0.192 4.628,-0.3c1.172,-0.081 1.886,-0.666 1.96,-1.8c0.118,-1.824 0.14,-3.659 0,-5.481c-0.108,-1.411 -0.996,-2.098 -2.422,-2.089c-0.21,0.001 -0.421,0.02 -0.631,0.04c-1.119,0.11 -2.236,0.232 -3.356,0.332c-1.636,0.146 -2.328,0.835 -2.398,2.47c-0.035,0.807 -0.006,1.615 -0.006,2.423Zm18.231,4.082l0.012,0c-0,1.301 0.05,2.604 -0.015,3.902c-0.065,1.325 0.548,2.12 1.72,2.581c1.502,0.591 2.997,1.205 4.51,1.767c1.049,0.39 1.617,0.009 1.729,-1.085c0.014,-0.14 0.016,-0.281 0.015,-0.421c-0.015,-2.602 -0.025,-5.203 -0.052,-7.804c-0.011,-1.069 -0.274,-2.049 -1.311,-2.583c-1.497,-0.772 -3,-1.539 -4.535,-2.232c-1,-0.45 -1.81,0.044 -2.019,1.134c-0.059,0.307 -0.051,0.63 -0.052,0.945c-0.005,1.266 -0.002,2.531 -0.002,3.796Zm-46.891,45.306c-0.462,-0.371 -0.824,-0.341 -1.161,-0.354c-2.74,-0.103 -5.477,-0.263 -8.22,-0.27c-5.413,-0.013 -10.826,0.055 -16.238,0.129c-6.995,0.097 -13.989,0.022 -20.984,0.185c-7.763,0.181 -15.53,0.207 -23.284,0.694c-2.282,0.143 -4.543,0.458 -6.812,0.71c-0.216,0.024 -0.473,0.033 -0.601,0.491c1.203,-0 2.322,-0.003 3.44,0c8.12,0.029 16.235,-0.227 24.353,-0.402c5.341,-0.115 10.684,-0.137 16.026,-0.218c7.767,-0.116 15.536,-0.043 23.301,-0.265c1.967,-0.056 3.934,-0.144 5.897,-0.271c1.362,-0.088 2.718,-0.269 4.283,-0.429Zm-20.231,-41.385c-4.292,0.355 -8.547,0.557 -12.841,0.994c0.141,0.639 0.285,1.127 0.688,1.594c4.823,-0.464 9.675,-0.772 14.5,-1.289c0.318,-1.087 -0.062,-2.094 0.268,-3.069c2.658,-0.336 5.301,-0.443 7.923,-0.586c0.32,1.162 -0.313,2.183 -0.044,3.341c2.852,-0.164 5.675,-0.326 8.491,-0.488c0.257,-0.611 0.674,-1.05 0.72,-1.736c-2.244,-0.082 -4.382,0.484 -6.62,0.338c-0.095,-2.234 0.114,-4.339 0.742,-6.535c-4.193,0.382 -8.306,0.659 -12.305,1.122c-1.161,2.011 -1.325,4.117 -1.522,6.314Zm90.352,94.766c-0.077,1.542 0.364,3.66 1.056,5.738c0.267,0.806 0.641,1.56 1.192,2.208c0.945,1.11 2.145,1.157 3.193,0.14c0.461,-0.446 0.761,-1.004 1.041,-1.571c2.463,-4.98 2.619,-10.105 0.926,-15.33c-0.303,-0.935 -0.742,-1.822 -1.466,-2.527c-0.889,-0.866 -1.844,-0.925 -2.831,-0.176c-0.755,0.572 -1.189,1.37 -1.551,2.215c-1.182,2.76 -1.514,5.673 -1.56,9.303Zm-94.487,-20.372l-0,0.014c1.545,-0 3.09,-0.009 4.635,0.002c1.205,0.009 2.296,-0.954 2.249,-2.268c-0.058,-1.614 -0,-3.231 -0.046,-4.846c-0.043,-1.496 -0.847,-2.309 -2.346,-2.452c-0.348,-0.034 -0.702,-0.015 -1.053,-0.013c-1.966,0.01 -3.933,0.018 -5.899,0.037c-0.737,0.007 -1.478,-0.003 -2.209,0.069c-1.342,0.132 -2.027,0.852 -2.093,2.184c-0.079,1.577 -0.139,3.157 -0.17,4.736c-0.031,1.648 0.772,2.497 2.401,2.53c1.51,0.031 3.02,0.007 4.531,0.007Zm-71.12,-22.852c0.033,0.081 0.066,0.163 0.099,0.243c4.691,-1.753 9.463,-3.227 14.328,-4.355c0.082,0.248 0.123,0.373 0.163,0.497c0.355,0.134 0.71,0.073 1.054,0.043c2.73,-0.241 5.469,-0.326 8.204,-0.482c5.299,-0.302 10.604,-0.399 15.908,-0.508c4.145,-0.085 8.292,-0.013 12.439,0.076c6.57,0.14 13.141,0.209 19.707,0.488c0.608,0.026 1.18,-0.06 1.741,-0.315c2.177,-0.989 4.432,-1.775 6.681,-2.58c0.277,-0.099 0.612,-0.12 0.793,-0.481c-0.403,-0.142 -0.79,-0.09 -1.169,-0.082c-2.917,0.06 -5.833,0.146 -8.749,0.181c-7.837,0.094 -15.674,0.017 -23.511,0.195c-6.429,0.146 -12.862,0.011 -19.291,0.238c-3.652,0.128 -7.306,0.213 -10.96,0.28c-2.381,0.043 -4.667,0.491 -6.885,1.35c-3.119,1.208 -6.096,2.707 -9.016,4.326c-0.517,0.287 -1.024,0.591 -1.536,0.886Zm87.101,36.413c-0.197,-0.581 -0.613,-0.793 -1.016,-0.997c-1.119,-0.57 -2.313,-0.808 -3.566,-0.731c-1.368,0.085 -2.734,0.242 -4.102,0.262c-4.006,0.058 -8.011,0.165 -12.02,0.132c-9.244,-0.077 -18.489,-0.075 -27.728,-0.471c-4.671,-0.2 -9.344,-0.336 -14.014,-0.526c-2.95,-0.12 -5.9,-0.251 -8.846,-0.441c-3.575,-0.231 -7.146,-0.52 -10.718,-0.802c-2.1,-0.166 -4.198,-0.362 -6.296,-0.55c-1.609,-0.144 -3.216,-0.311 -4.826,-0.44c-1.08,-0.086 -1.836,0.453 -2.097,1.477c0.373,0.082 0.741,0.191 1.117,0.241c1.322,0.173 2.65,0.306 3.971,0.491c4.349,0.608 8.721,1.005 13.094,1.371c4.865,0.408 9.736,0.746 14.608,1.067c4.698,0.309 9.397,0.607 14.1,0.821c4.634,0.212 9.272,0.336 13.91,0.454c2.846,0.072 5.696,0.019 8.542,0.096c6.327,0.17 12.652,0.239 18.975,-0.106c1.611,-0.088 3.221,-0.261 4.799,-0.619c0.708,-0.162 1.458,-0.237 2.113,-0.729Zm-15.672,18.923c-12.944,0.686 -25.788,0.555 -38.666,-0.438c-0.974,3.49 -3.001,6.174 -5.559,8.577c14.403,-1.546 28.778,-2.863 43.144,-4.478c0.198,0.656 0.373,1.223 0.541,1.792c0.498,1.689 1.105,3.335 1.907,4.904c1.816,3.555 4.37,6.358 8.128,7.917c0.264,0.109 0.527,0.389 0.923,0.09c-6.038,-4.602 -9.229,-10.825 -10.418,-18.364Zm90.832,-92.341l0,9.293c-0.664,-0.682 -1.133,-1.417 -1.662,-2.106c-0.537,-0.701 -0.829,-1.59 -1.673,-2.265c-0.748,2.425 -1.459,4.728 -2.157,6.994c1.004,1.892 2.418,3.435 3.385,5.22c-1.102,1.607 -2.447,2.918 -3.401,4.498c0.669,2.63 1.535,5.13 2.381,7.886c1.089,-1.531 2.053,-2.887 3.128,-4.399c-0,1.711 -0.009,3.241 0.002,4.771c0.011,1.568 -0.051,3.138 0.019,4.779c1.304,0.065 2.422,0.55 3.714,0.428l-0,-9.034c1.04,1.635 1.944,3.058 2.975,4.68c0.693,-2.654 1.32,-5.055 1.948,-7.458c-0.933,-1.707 -2.178,-3.19 -3.144,-4.791c0.924,-1.57 2.124,-2.786 2.962,-4.301c-0.623,-2.301 -1.129,-4.64 -1.881,-7.048c-1.087,1.055 -1.739,2.232 -2.724,3.25c-0.15,-3.024 0.043,-5.968 -0.121,-8.888c-1.254,-0.505 -2.385,-0.96 -3.751,-1.509Zm-72.288,90.939c0.059,3.389 0.551,6.112 2.206,9.288c0.708,1.359 1.64,2.538 2.864,3.467c2.225,1.691 4.961,1.768 7.27,0.199c1.481,-1.007 2.651,-2.315 3.488,-3.89c3.456,-6.509 3.447,-13.115 0.491,-19.789c-0.533,-1.204 -1.271,-2.269 -2.213,-3.185c-1.676,-1.63 -3.652,-2.144 -5.92,-1.562c-2.024,0.519 -3.473,1.829 -4.602,3.488c-2.424,3.559 -3.542,7.535 -3.584,11.984Zm17.791,-60.504c0.268,2.257 1.5,3.497 3.634,3.64c1.157,0.077 2.315,0.124 3.473,0.178c3.123,0.147 6.247,0.297 9.371,0.43c1.053,0.046 2.108,0.06 3.162,0.059c0.784,-0 1.309,-0.417 1.64,-1.116c0.374,-0.792 0.428,-1.628 0.34,-2.476c-0.437,-4.194 -1.046,-8.364 -1.727,-12.524c-0.635,-3.881 -1.384,-7.742 -2.25,-11.58c-0.418,-1.85 -0.736,-3.721 -1.235,-5.554c-0.404,-1.486 -1.292,-2.457 -2.828,-2.804c-0.924,-0.209 -1.837,-0.473 -2.759,-0.692c-1.675,-0.397 -3.342,-0.83 -5.031,-1.152c-1.46,-0.277 -2.447,0.303 -3.035,1.668c-0.235,0.546 -0.411,1.124 -0.548,1.703c-1.581,6.697 -3.116,13.405 -4.562,20.134c-0.499,2.32 0.237,4.345 0.877,6.403c1.087,0.23 7.257,0.226 8.078,0.001c0.14,-0.383 0.093,-0.806 0.093,-1.221c0,-3.165 -0.006,-6.329 -0.007,-9.493c-0,-0.526 0.002,-1.047 0.138,-1.569c0.296,-1.129 1.046,-1.799 2.156,-1.856c1.964,-0.102 3.936,-0.109 5.903,-0.066c1.112,0.024 1.794,0.709 2.054,1.787c0.166,0.689 0.196,1.388 0.194,2.092c-0.012,3.903 -0.014,7.806 -0.03,11.708c-0.003,0.491 -0.043,0.984 -0.109,1.47c-0.195,1.441 -0.832,2.049 -2.289,2.087c-1.722,0.046 -3.445,0.021 -5.168,0.037c-0.857,0.008 -1.603,-0.278 -2.17,-0.908c-0.394,-0.438 -0.842,-0.562 -1.401,-0.556c-1.582,0.018 -3.164,-0.009 -4.746,0.001c-0.41,0.002 -0.844,-0.092 -1.218,0.169Zm-19.486,44.818c-0.13,0 -0.236,-0.013 -0.336,0.002c-3.404,0.531 -6.829,0.859 -10.262,1.111c-3.787,0.278 -7.586,0.341 -11.379,0.405c-9.493,0.159 -18.981,-0.121 -28.466,-0.517c-5.584,-0.234 -11.168,-0.463 -16.75,-0.737c-1.509,-0.074 -3.021,-0.12 -4.528,-0.224c-3.61,-0.252 -7.219,-0.52 -10.826,-0.816c-2.731,-0.223 -5.457,-0.492 -8.184,-0.754c-1.923,-0.185 -3.844,-0.395 -5.767,-0.585c-0.305,-0.031 -0.642,-0.104 -0.817,0.261c-0.013,0.315 0.179,0.459 0.428,0.538c0.502,0.157 1.006,0.313 1.514,0.45c3.101,0.832 6.291,1.105 9.464,1.459c3.139,0.351 6.276,0.732 9.433,0.922c3.715,0.223 7.426,0.547 11.142,0.77c2.981,0.179 5.966,0.297 8.952,0.4c4.918,0.17 9.835,0.363 14.755,0.441c8.12,0.127 16.242,0.169 24.363,0.248c0.492,0.005 0.98,-0 1.465,0.133c1.243,0.341 1.964,1.233 2,2.513c0.035,1.284 -0.63,2.167 -1.904,2.559c-0.376,0.117 -0.754,0.176 -1.142,0.174c-3.656,-0.019 -7.314,0.018 -10.968,-0.078c-5.376,-0.14 -10.75,-0.365 -16.123,-0.577c-3.231,-0.127 -6.461,-0.269 -9.689,-0.457c-5.226,-0.304 -10.449,-0.677 -15.676,-0.973c-3.86,-0.219 -7.71,-0.561 -11.555,-0.933c-5.067,-0.491 -10.128,-1.065 -15.166,-1.812c-0.495,-0.074 -1.018,-0.237 -1.525,-0.065c-0.054,1.715 0.184,2.036 1.737,2.38c0.171,0.039 0.347,0.052 0.519,0.084c3.141,0.585 6.306,1.017 9.475,1.412c2.16,0.269 4.327,0.478 6.491,0.703c1.572,0.164 3.149,0.283 4.716,0.475c3.001,0.367 6.018,0.53 9.029,0.766c2.485,0.196 4.981,0.262 7.464,0.486c3.64,0.328 7.287,0.529 10.932,0.758c2.981,0.188 5.966,0.316 8.951,0.411c4.849,0.153 9.698,0.282 14.547,0.377c5.766,0.113 11.531,0.108 17.295,-0.113c0.847,-0.032 1.685,-0.114 2.514,-0.256c2.069,-0.353 3.38,-1.604 3.662,-3.536c0.346,-2.369 0.481,-4.755 0.421,-7.149c-0.005,-0.207 0.023,-0.427 -0.206,-0.656Zm-95.481,31.628c0.149,-0.779 0.726,-1.055 1.308,-1.315c1.387,-0.62 2.852,-0.978 4.328,-1.312c2.878,-0.651 5.782,-1.152 8.697,-1.599c0.446,-0.068 0.887,-0.176 1.382,-0.358c-3.006,-1.541 -5.456,-3.671 -7.269,-6.497c-1.814,-2.828 -2.804,-5.954 -3.205,-9.288c-1.206,-0.41 -2.333,-0.791 -3.457,-1.179c-0.664,-0.229 -1.321,-0.479 -1.987,-0.705c-2.568,-0.871 -3.783,-2.772 -4.084,-5.365c-0.227,-1.959 -0.268,-3.925 -0.247,-5.896c0.014,-1.303 0.487,-2.382 1.408,-3.295c0.853,-0.846 1.783,-1.58 2.829,-2.08c0.104,-0.404 -0.057,-0.689 -0.183,-0.971c-1.256,-2.795 -1.764,-5.774 -2.094,-8.782c-0.292,-2.654 -0.465,-5.321 -0.455,-7.996c0.003,-0.528 -0.015,-1.063 0.169,-1.566c0.625,-1.707 0.707,-3.509 0.848,-5.287c0.101,-1.26 0.608,-2.17 1.596,-2.93c4.225,-3.251 8.823,-5.886 13.554,-8.309c2.157,-1.105 4.372,-2.101 6.434,-3.386c0.283,-0.176 0.631,-0.297 0.873,-0.763c-1.48,0.26 -2.608,1.095 -3.911,1.497c-0.336,-0.406 -0.372,-0.858 -0.374,-1.31c-0.015,-3.306 -0.044,-6.611 -0.027,-9.916c0.007,-1.435 0.672,-2.072 2.122,-2.212c1.123,-0.108 2.248,-0.112 3.373,-0.089c1.359,0.027 2.014,0.655 2.013,2.021c-0.002,1.896 0.127,3.798 -0.142,5.687c-0.025,0.173 -0.046,0.35 0.108,0.518c0.427,-0.077 0.574,-0.475 0.784,-0.771c1.864,-2.643 3.682,-5.318 5.571,-7.943c3.901,-5.42 7.751,-10.878 11.729,-16.245c0.604,-0.816 1.347,-1.309 2.263,-1.616c1.601,-0.536 3.25,-0.893 4.89,-1.278c3.795,-0.891 7.64,-1.521 11.495,-2.08c3.334,-0.484 6.688,-0.811 10.043,-1.128c3.463,-0.327 6.935,-0.518 10.402,-0.772c1.471,-0.108 2.949,-0.14 4.423,-0.199c6.922,-0.28 13.849,-0.386 20.774,-0.212c3.298,0.083 6.589,0.382 9.876,0.72c4.941,0.507 9.756,1.656 14.599,2.667c1.855,0.387 3.696,0.841 5.543,1.266c0.2,0.045 0.397,0.169 0.6,0.002c0.008,-0.281 -0.223,-0.313 -0.404,-0.395c-5.691,-2.566 -11.576,-4.499 -17.711,-5.715c-7.249,-1.436 -14.564,-1.767 -21.924,-1.685c-3.517,0.038 -7.032,0.094 -10.543,0.27c-4.528,0.227 -9.051,0.531 -13.568,0.945c-3.358,0.308 -6.711,0.64 -10.054,1.097c-5.714,0.782 -11.36,1.874 -16.896,3.507c-0.135,0.04 -0.26,0.103 -0.407,0.048c-0.132,-0.185 -0.094,-0.402 -0.096,-0.609c-0.031,-4.43 -0.067,-8.861 -0.082,-13.291c-0.002,-0.771 0.037,-1.55 0.141,-2.314c0.183,-1.352 0.846,-2.439 1.981,-3.219c0.73,-0.502 1.593,-0.556 2.422,-0.626c4.585,-0.388 9.175,-0.72 13.76,-1.108c3.604,-0.305 7.202,-0.681 10.804,-0.997c3.639,-0.319 7.283,-0.589 10.922,-0.907c3.567,-0.312 7.131,-0.667 10.698,-0.984c1.994,-0.177 3.993,-0.297 5.986,-0.476c2.378,-0.214 4.752,-0.467 7.129,-0.696c1.992,-0.191 3.987,-0.367 5.979,-0.558c2.69,-0.258 5.378,-0.53 8.069,-0.787c1.747,-0.167 3.496,-0.309 5.244,-0.474c2.656,-0.252 5.312,-0.509 7.967,-0.774c2.236,-0.223 4.47,-0.466 6.706,-0.69c2.096,-0.211 3.935,0.559 5.705,1.548c3.405,1.903 6.795,3.833 10.203,5.732c9.027,5.029 17.951,10.238 27.03,15.173c1.359,0.739 2.708,1.495 4.076,2.214c1.869,0.981 2.733,2.503 2.729,4.616c-0.021,10.76 -0.012,21.52 -0.012,32.28c0,4.818 0.009,9.635 0.005,14.453c-0.001,0.447 0.091,0.911 -0.164,1.448c-1.172,0.085 -2.381,0.077 -3.626,-0.018c-0.204,-0.586 -0.141,-1.161 -0.32,-1.692c-0.35,-1.038 -0.706,-1.236 -1.807,-0.902c-0.23,0.516 -0.23,0.516 -0.241,1.085c0.44,0.365 1.046,0.033 1.624,0.43c0.256,1.738 0.194,3.575 0.125,5.32c-0.328,0.322 -0.623,0.259 -0.897,0.266c-0.242,0.005 -0.486,-0.025 -0.791,-0.043c-0.335,-1.456 0.041,-2.941 -0.237,-4.502c-9.767,-0.4 -19.522,-0.554 -29.146,-0.903c-0.35,-0.346 -0.274,-0.643 -0.299,-0.915c-0.039,-0.419 -0.03,-0.847 -0.111,-1.258c-0.344,-1.739 -0.441,-2.421 -3.002,-1.994c-0.375,0.443 -0.575,0.972 -0.536,1.624c0.911,0.407 1.925,0.058 2.776,0.475c0.424,0.832 0.576,5.429 0.239,7.514c-0.985,0.337 -2,0.234 -3.099,0.026c-0.282,-1.804 0.065,-3.606 -0.217,-5.434c-1.49,-0.186 -2.941,-0.005 -4.355,-0.316c-0.268,-0.474 -0.183,-0.977 -0.185,-1.457c-0.023,-4.044 -0.023,-8.088 -0.05,-12.132c-0.029,-4.324 -0.023,-8.651 -0.138,-12.973c-0.121,-4.497 -0.372,-8.99 -0.559,-13.484c-0.095,-2.318 -0.163,-4.638 -0.263,-6.955c-0.078,-1.823 -0.184,-3.644 -0.424,-5.476c-0.018,0.354 -0.045,0.708 -0.054,1.062c-0.091,3.866 -0.109,7.736 -0.283,11.599c-0.619,13.742 -0.363,27.491 -0.404,41.238c-0.039,12.834 0.006,25.669 0.015,38.504c0,0.381 -0.044,0.768 0.095,1.193c0.499,0.118 0.982,-0.022 1.442,-0.119c5.222,-1.106 10.439,-2.23 15.657,-3.356c1.509,-0.326 3.015,-0.67 4.519,-1.022c0.575,-0.135 1.176,-0.205 1.739,-0.55c0.164,-1.513 0.275,-3.053 0.507,-4.575c0.6,-3.932 1.359,-7.824 3.359,-11.345c0.472,-0.83 1.021,-1.605 1.745,-2.234c1.702,-1.479 3.658,-1.292 5.067,0.452c1.434,1.776 2.1,3.881 2.57,6.055c0.497,2.302 0.832,4.632 0.891,6.994c0.006,0.241 -0.012,0.49 0.107,0.703c1.026,0.137 5.755,-1.085 7.982,-2.096c-1.336,-0.18 -2.357,0.305 -3.408,0.508c-1.059,0.205 -2.104,0.476 -3.235,0.736c-0.114,-1.465 -0.214,-2.824 -0.327,-4.182c-0.268,-3.216 -0.932,-6.323 -2.52,-9.177c-0.465,-0.835 -1.026,-1.601 -1.723,-2.253c-1.883,-1.759 -4.087,-1.806 -6.081,-0.17c-0.883,0.724 -1.57,1.604 -2.153,2.575c-1.577,2.623 -2.491,5.5 -3.182,8.451c-0.611,2.604 -0.952,5.253 -1.108,7.925c-0.02,0.347 0.014,0.709 -0.346,1.183c-6.297,1.451 -12.791,2.761 -19.242,4.225c-0.33,-0.521 -0.219,-0.988 -0.22,-1.428c-0.001,-8.334 0.006,-16.668 0.011,-25.002c0.001,-1.26 0,-2.519 0,-3.795c0.23,-0.283 0.571,-0.187 0.872,-0.196c3.234,-0.088 6.468,-0.155 9.701,-0.251c5.868,-0.177 11.734,-0.394 17.602,-0.547c5.096,-0.133 10.194,-0.2 15.291,-0.292c0.208,-0.005 0.416,0.034 0.589,0.049c0.292,0.239 0.236,0.538 0.236,0.81c-0.002,6.998 -0.009,13.996 -0.012,20.993c-0,0.463 -0.078,0.911 -0.212,1.35c-0.286,0.941 -0.857,1.617 -1.852,1.826c-1.752,0.368 -3.511,0.708 -5.266,1.064c-0.476,0.096 -0.949,0.207 -1.477,0.323c-0.083,1.065 -0.172,2.073 -0.24,3.082c-0.189,2.821 -0.718,5.571 -1.713,8.222c-0.646,1.725 -1.546,3.303 -2.748,4.711c-1,1.172 -2.244,1.866 -3.741,2.197c-11.381,2.517 -22.757,5.061 -34.139,7.574c-6.994,1.544 -13.996,3.054 -20.996,4.568c-1.503,0.325 -3.016,0.6 -4.738,0.941c3.87,-4.669 5.61,-9.996 6.168,-15.789c0.941,-0.461 1.95,-0.38 2.908,-0.504c2.437,-0.314 4.881,-0.569 7.326,-0.809c2.62,-0.259 5.245,-0.476 7.868,-0.708c2.203,-0.195 4.405,-0.399 6.61,-0.574c2.205,-0.175 4.413,-0.321 6.621,-0.474c1.261,-0.087 2.525,-0.158 3.786,-0.248c0.345,-0.025 0.705,-0.033 1.064,-0.366c-0.294,-1.45 -0.699,-2.925 -0.887,-4.591c-5.943,1.148 -11.733,2.394 -17.567,3.402c-5.802,1.001 -11.6,2.017 -17.419,3.03c-0.25,-0.713 -0.126,-1.305 -0.188,-2.026c7.281,-1.625 14.597,-2.909 21.959,-4.666c-0.287,-0.312 -0.528,-0.271 -0.741,-0.267c-2.08,0.039 -4.14,-0.222 -6.2,-0.444c-1.111,-0.12 -2.169,0.104 -3.241,0.273c-3.985,0.627 -7.945,1.398 -11.937,2.179c-0.338,-0.479 -0.262,-1.034 -0.36,-1.527c-0.474,-2.379 -0.952,-4.754 -1.832,-7.025c-0.198,-0.511 -0.238,-1.019 -0.124,-1.55c0.901,-4.201 0.286,-8.24 -1.301,-12.175c-1.471,-3.649 -2.656,-7.398 -3.959,-11.143c0.333,-0.273 0.7,-0.176 1.028,-0.181c5.976,-0.098 11.953,-0.181 17.93,-0.278c1.757,-0.028 3.514,-0.095 5.271,-0.136c0.381,-0.009 0.77,-0.052 1.084,0.057c0.238,0.21 0.208,0.424 0.2,0.634c-0.199,5.172 -0.774,10.3 -1.787,15.376c-0.596,2.981 -1.571,5.823 -2.942,8.545c-0.547,1.087 -1.317,1.606 -2.465,1.867c-2.808,0.637 -5.594,1.369 -8.389,2.061c-0.303,0.075 -0.627,0.092 -0.927,0.425c0.924,0.102 1.764,-0.085 2.599,-0.181c2.616,-0.304 5.215,-0.723 7.813,-1.16c1.029,-0.173 1.667,-0.57 2.119,-1.568c1.853,-4.095 3.034,-8.37 3.788,-12.789c0.55,-3.224 0.965,-6.462 1.199,-9.719c0.315,-4.386 0.33,-8.781 0.235,-13.177c-0.073,-3.375 -0.328,-6.737 -0.566,-10.103c-0.324,-4.562 -1.022,-9.07 -1.764,-13.575c-0.164,-0.995 -0.329,-2.003 -0.795,-2.939c1.123,8.942 1.85,17.902 1.696,26.834c-0.216,0.256 -0.384,0.196 -0.576,0.131c-0.367,-0.651 -0.254,-1.425 -0.463,-2.13c-0.183,-0.619 -0.536,-0.956 -1.145,-1.085c-0.897,-0.191 -1.29,0.029 -1.6,0.901c-0.082,0.233 -0.186,0.458 -0.047,0.792c0.656,0.3 1.49,-0.036 2.167,0.349c0.395,0.884 0.51,5.226 0.176,6.83c-0.724,0.271 -1.467,0.181 -2.359,0.015l0,-5.434c-0.686,-0.303 -1.279,-0.334 -1.87,-0.345c-4.781,-0.095 -9.561,-0.177 -14.342,-0.278c-1.929,-0.04 -3.857,-0.116 -5.921,-0.18c-0.375,-2.843 -0.726,-5.654 -1.325,-8.421c-0.592,-2.737 -1.212,-5.469 -2.28,-8.094c0.46,2.725 0.957,5.445 1.368,8.178c0.411,2.723 0.946,5.435 1.067,8.329c-4.133,-0.069 -8.125,-0.137 -12.184,-0.205c-0.443,-1.444 -1.253,-2.18 -2.866,-2.289c-1.738,-0.116 -2.379,0.849 -2.89,2.055c-0.703,0.329 -1.349,0.211 -1.968,0.189c-1.008,-0.036 -1.851,0.295 -2.628,0.903c-1.09,0.853 -2.011,1.857 -2.734,3.013c-4.514,-0.48 -9.009,-0.199 -13.496,-0.259c-4.465,-0.06 -8.933,0.032 -13.397,-0.068c-12.693,-0.284 -25.387,-0.24 -38.08,-0.111c-6.645,0.068 -13.289,0.183 -19.935,0.195c-0.422,0.001 -0.843,0.029 -1.265,0.043c-1.227,0.039 -1.918,0.837 -2.587,1.738c0.363,0.312 0.726,0.197 1.057,0.198c3.024,0.012 6.048,0.008 9.072,0.02c0.482,0.001 0.987,-0.075 1.464,0.257c-0.16,1.765 -0.345,3.545 -0.265,5.332c0.135,3.017 0.169,6.042 0.78,9.018c0.143,0.693 0.375,1.351 0.722,1.97c0.699,1.249 1.838,1.759 3.19,1.966c1.533,0.235 3.083,0.269 4.623,0.344c3.791,0.185 7.58,0.409 11.374,0.561c3.791,0.153 7.583,0.334 11.375,0.474c7.098,0.262 14.199,0.356 21.303,0.322c0.281,-0.001 0.563,-0.007 0.842,-0.041c2.181,-0.265 3.284,-1.254 3.618,-3.46c0.358,-2.36 0.605,-4.737 0.878,-7.109c0.365,-3.173 0.596,-6.361 1.091,-9.55c0.718,-0.286 1.452,-0.287 2.181,-0.294c3.622,-0.037 7.243,-0.059 10.865,-0.105c1.899,-0.023 3.796,-0.095 5.694,-0.123c1.099,-0.016 2.167,0.156 3.175,0.636c0.666,0.317 1.13,0.798 1.444,1.467c0.546,1.162 0.867,2.394 0.943,3.653c0.116,1.891 0.251,3.779 0.115,5.687c-0.266,3.734 -1.985,6.444 -5.336,8.117c-0.313,0.156 -0.617,0.329 -0.923,0.498c-0.025,0.014 -0.031,0.059 -0.078,0.158c0.344,0.121 0.687,0.051 0.996,-0.019c0.89,-0.2 1.777,-0.42 2.651,-0.681c2.111,-0.634 3.202,-2.103 3.572,-4.25c0.513,-2.97 0.439,-5.951 0.334,-8.938c-0.005,-0.136 -0.022,-0.273 -0.029,-0.357c0.152,-0.296 0.385,-0.247 0.586,-0.252c5.377,-0.107 10.755,-0.212 16.132,-0.315c0.279,-0.006 0.564,-0.03 0.946,0.149c0.694,2.549 1.565,5.134 2.148,7.758c-0.096,0.184 -0.203,0.149 -0.293,0.094c-2.576,-1.603 -5.352,-1.745 -8.237,-1.146c-3.888,0.809 -6.678,3.151 -8.843,6.346c-1.084,1.601 -2.02,3.291 -2.842,5.095c0.45,0.509 1.037,0.782 1.628,1.067c0.475,-0.297 0.647,-0.779 0.897,-1.189c1.38,-2.266 2.955,-4.358 5.063,-6.018c2.241,-1.764 4.769,-2.692 7.618,-2.584c3.034,0.115 5.291,1.475 6.519,4.349c0.896,2.098 1.356,4.278 1.29,6.563c-0.003,0.131 0.021,0.276 -0.156,0.418c-0.866,-0.946 -1.642,-1.983 -2.603,-2.852c-1.631,-1.476 -3.473,-2.49 -5.672,-2.816c-1.761,-0.26 -3.381,0.214 -5.02,0.804c0.152,0.299 0.341,0.244 0.496,0.226c3.945,-0.459 7.149,0.963 9.803,3.824c2.237,2.41 3.501,5.317 4.379,8.429c1.062,3.766 1.377,7.612 1.037,11.488c-0.53,6.046 -2.593,11.485 -6.751,16.022c-2.291,2.5 -5.15,3.979 -8.433,4.678c-2.579,0.55 -5.196,0.85 -7.821,1.086c-8.452,0.761 -16.927,0.686 -25.398,0.589c-5.061,-0.058 -10.121,-0.237 -15.18,-0.432c-3.898,-0.15 -7.798,-0.331 -11.685,-0.637c-4.799,-0.379 -9.601,-0.702 -14.395,-1.153c-4.722,-0.443 -9.431,-0.989 -14.136,-1.565c-4.011,-0.492 -7.984,-1.228 -11.919,-2.151c-0.891,-0.209 -1.757,-0.504 -2.597,-0.868c-0.516,-0.223 -1.027,-0.469 -1.322,-1.074Z" style="fill:#231f20;fill-rule:nonzero;"/>
        <path d="M146.485,401.961c0.282,-1.424 -0.086,-2.826 0.126,-4.199c1.411,-0.149 2.778,0.113 4.224,-0.153c-0.005,-1.923 0.044,-3.761 -0.032,-5.605c-1.45,-0.27 -2.79,0.03 -4.144,-0.216c-0.099,-1.376 0.064,-2.695 0.079,-4.047l-4.959,0c-0.261,1.359 -0.221,2.69 -0.383,3.991c-1.325,0.34 -2.595,-0.158 -3.801,0.085c-0.257,1.443 -0.194,4.9 0.089,5.617c1.197,0.171 2.433,0.067 3.676,0.324c0.209,1.37 -0.027,2.744 0.194,4.074c1.043,0.219 1.993,0.193 2.936,0.215c0.627,0.015 1.26,0.106 1.995,-0.086Zm-9.864,-9.232c0.164,-0.498 0.093,-0.944 0.065,-1.348c-0.384,-0.408 -0.83,-0.297 -1.235,-0.301c-2.039,-0.021 -4.079,-0.021 -6.118,-0.033c-0.351,-0.003 -0.709,0.012 -1.052,-0.047c-0.986,-0.171 -1.591,-0.899 -1.552,-1.817c0.047,-1.104 0.679,-1.803 1.763,-1.832c1.581,-0.043 3.164,-0.033 4.746,-0.029c9.739,0.02 19.478,0.047 29.218,0.064c0.637,0.001 1.267,0.05 1.882,0.199c0.972,0.235 1.477,0.915 1.464,1.91c-0.012,0.988 -0.456,1.535 -1.426,1.82c-0.552,0.163 -1.114,0.143 -1.674,0.143c-3.27,-0.006 -6.54,-0.024 -9.809,-0.029c-0.346,-0.001 -0.702,-0.083 -1.089,0.09c-0.183,0.481 -0.159,0.982 0.004,1.51c0.469,0.265 0.973,0.184 1.452,0.188c3.234,0.027 6.469,0.037 9.704,0.051c0.493,0.002 0.982,-0.004 1.452,0.192c0.836,0.35 1.396,1.233 1.267,2.105c-0.13,0.87 -0.766,1.597 -1.628,1.687c-0.915,0.095 -1.825,0.097 -2.737,0.057c-2.952,-0.127 -5.906,-0.11 -8.859,-0.129c-0.206,-0.001 -0.413,0.042 -0.624,0.066c-0.324,0.501 -0.234,1.016 -0.175,1.49c0.243,0.3 0.543,0.24 0.814,0.261c3.3,0.253 6.608,0.124 9.911,0.203c0.565,0.014 1.126,0.038 1.672,0.182c0.917,0.24 1.457,0.974 1.394,1.857c-0.064,0.901 -0.67,1.541 -1.628,1.638c-0.628,0.063 -1.264,0.061 -1.897,0.052c-6.116,-0.099 -12.233,-0.16 -18.348,-0.325c-4.777,-0.129 -9.55,-0.391 -14.325,-0.592c-0.461,-0.019 -0.91,-0.1 -1.342,-0.257c-0.731,-0.264 -1.131,-0.823 -1.263,-1.562c-0.181,-1.021 0.449,-1.844 1.491,-1.864c1.264,-0.025 2.53,0.036 3.795,0.071c1.194,0.034 2.388,0.093 3.583,0.121c0.342,0.008 0.704,0.076 1.078,-0.177c0.186,-0.464 0.114,-0.976 0.044,-1.574c-0.728,-0.135 -1.457,-0.176 -2.187,-0.188c-1.793,-0.028 -3.586,-0.053 -5.379,-0.067c-0.498,-0.004 -0.989,-0.053 -1.453,-0.22c-0.767,-0.274 -1.332,-1.262 -1.2,-2.032c0.136,-0.798 0.821,-1.429 1.704,-1.435c2.356,-0.016 4.711,0.02 7.067,0.024c0.45,0.001 0.91,0.079 1.43,-0.123Z" style="fill:#231f20;fill-rule:nonzero;"/>
        <path d="M192.661,307.789c-0.007,-1.394 0.14,-2.766 0.759,-4.057c0.329,-0.685 0.912,-1.078 1.641,-1.193c1.488,-0.236 2.982,-0.444 4.478,-0.629c2.158,-0.267 4.318,-0.529 6.482,-0.741c1.213,-0.118 2.413,-0.409 3.658,-0.135c1.436,0.315 2.518,1.012 3.127,2.384c0.356,0.801 0.652,1.616 0.777,2.476c-0.817,0.332 -19.941,2.072 -20.922,1.895Z" style="fill:#231f20;fill-rule:nonzero;"/>
        <path d="M167.95,399.224c0.165,-2.882 0.329,-5.93 0.647,-8.966c0.166,-1.589 0.883,-2.218 2.482,-2.258c0.245,-0.005 0.493,-0.009 0.736,0.017c1.542,0.17 2.184,0.868 2.146,2.426c-0.024,1.015 -0.124,2.029 -0.208,3.042c-0.193,2.341 -0.41,4.679 -0.594,7.021c-0.08,1.016 -0.549,1.751 -1.501,2.084c-1.037,0.362 -2.076,0.363 -2.995,-0.365c-0.466,-0.37 -0.688,-0.879 -0.71,-1.468c-0.017,-0.456 -0.003,-0.912 -0.003,-1.533Z" style="fill:#231f20;fill-rule:nonzero;"/>
        <path d="M240.441,295.685c-2.141,2.315 -4.125,4.767 -6.035,7.28c-0.256,0.338 -0.562,0.48 -0.977,0.517c-3.494,0.316 -6.973,0.767 -10.451,1.222c-0.309,0.041 -0.627,0.006 -0.937,0.006c0.842,-0.939 7.963,-5.661 9.544,-6.323c0.329,0.327 -0.211,0.741 0.187,1.163c2.979,-0.983 5.72,-2.62 8.669,-3.865Z" style="fill:#231f20;fill-rule:nonzero;"/>
        <path d="M124.456,393.426c-0.103,2.074 0.055,4.141 0.153,6.21c0.057,1.214 -0.213,1.63 -1.082,1.867c-0.828,0.226 -1.891,-0.266 -2.294,-1.095c-0.151,-0.311 -0.263,-0.656 -0.32,-0.997c-0.525,-3.133 -0.6,-6.292 -0.414,-9.451c0.118,-2.016 1.465,-2.316 3.057,-1.926c0.5,0.122 0.836,0.51 0.865,1.075c0.017,0.315 0.032,0.63 0.033,0.946c0.004,1.124 0.002,2.247 0.002,3.371Z" style="fill:#231f20;fill-rule:nonzero;"/>
        <path d="M182.099,308.51c-2.446,0.214 -4.892,0.423 -7.337,0.645c-0.399,0.036 -0.762,0.008 -1.102,-0.228c-3.316,-2.297 -6.848,-4.266 -10.314,-6.762c1.965,0.682 3.663,1.444 5.46,1.978c0.21,-0.553 -0.164,-0.954 -0.108,-1.515c4.592,1.709 8.921,3.936 13.401,5.882Z" style="fill:#231f20;fill-rule:nonzero;"/>
        <path d="M149.592,301.352c6.282,1.869 12.5,3.912 18.559,6.343c0.128,0.938 0.128,0.938 -0.163,1.883c-6.242,-2.511 -12.373,-5.243 -18.396,-8.226Z" style="fill:#231f20;fill-rule:nonzero;"/>
        <path d="M204.925,381.276c0.248,-0.17 0.499,-0.074 0.737,-0.078c0.278,-0.004 0.562,-0.023 0.877,0.126c0.299,0.735 -0.04,1.565 0.198,2.386c0.554,0.384 1.289,0.07 1.952,0.4c0.154,0.626 0.049,1.279 0.045,1.932c-0.629,0.422 -1.38,0.026 -1.99,0.444c-0.217,0.794 0.041,1.647 -0.131,2.499c-0.526,0.285 -1.074,0.082 -1.642,0.15c-0.309,-0.948 0.022,-1.894 -0.292,-2.737c-0.593,-0.319 -1.23,0.027 -1.819,-0.258c-0.317,-0.649 -0.074,-1.358 -0.213,-2.045c0.674,-0.346 1.386,0.034 2.049,-0.314c0.387,-0.781 -0.017,-1.689 0.229,-2.505Z" style="fill:#231f20;fill-rule:nonzero;"/>
        <path d="M238.821,302.392c0.479,-1.202 1.497,-1.844 2.501,-2.473c2.294,-1.434 4.688,-2.693 7.106,-3.901c1.816,-0.908 3.639,-1.801 5.502,-2.626c-4.88,3.25 -9.794,6.439 -15.109,9Z" style="fill:#231f20;fill-rule:nonzero;"/>
        <path d="M218.669,300.681c0.038,-0.182 0.044,-0.253 0.067,-0.317c0.718,-2.061 0.738,-2.033 2.511,-3.285c1.912,-1.35 3.783,-2.76 5.689,-4.157c0.035,0.312 -0.188,0.466 -0.331,0.64c-1.582,1.926 -3.19,3.833 -4.757,5.772c-0.474,0.587 -1.028,0.942 -1.772,0.984c-0.461,0.026 -0.871,0.235 -1.407,0.363Z" style="fill:#231f20;fill-rule:nonzero;"/>
        <path d="M177.479,292.9c2.217,1.597 4.434,3.195 6.654,4.79c0.684,0.491 0.699,0.507 1.197,1.935c-0.763,0.379 -0.196,0.934 -0.128,1.517c-0.579,-0.15 -0.946,-0.516 -1.311,-0.855c-2.139,-1.983 -4.08,-4.147 -5.846,-6.468c-0.219,-0.288 -0.429,-0.582 -0.644,-0.873c0.026,-0.016 0.052,-0.031 0.078,-0.046Z" style="fill:#231f20;fill-rule:nonzero;"/>
        <path d="M181.63,303.544c-0.62,-0.136 -1.097,0.079 -1.534,0.341c-3.011,-1.639 -5.598,-3.771 -8.163,-5.979c0.375,0.15 0.758,0.284 1.123,0.454c2.002,0.931 3.999,1.872 5.997,2.81c0.676,0.316 1.27,0.704 1.666,1.386c0.22,0.378 0.602,0.662 0.911,0.988Z" style="fill:#231f20;fill-rule:nonzero;"/>
        <path d="M214.242,298.317c-0.104,-0.429 0.035,-0.792 -0.123,-1.079c-0.117,-0.244 -0.359,-0.029 -0.478,-0.195c-0,-0.061 -0.018,-0.133 0.003,-0.191c0.268,-0.767 0.669,-1.458 1.151,-2.112c1.37,-1.858 2.787,-3.677 4.335,-5.386c0.234,0.165 0.076,0.282 0.031,0.384c-0.953,2.145 -1.847,4.317 -2.958,6.387c-0.459,0.856 -0.873,1.77 -1.961,2.192Z" style="fill:#231f20;fill-rule:nonzero;"/>
        <path d="M210.885,286.663c-0.171,1.572 -0.322,3.056 -0.497,4.538c-0.102,0.869 -0.248,1.732 -0.363,2.599c-0.108,0.816 -0.392,1.552 -0.899,2.162c-0.429,0.138 -0.423,-0.345 -0.696,-0.397c-0.299,-0.165 -0.44,0.315 -0.745,0.192c-0.232,-0.614 0.002,-1.196 0.19,-1.74c0.835,-2.413 1.71,-4.814 2.805,-7.126c0.028,-0.059 0.09,-0.102 0.205,-0.228Z" style="fill:#231f20;fill-rule:nonzero;"/>
        <path d="M185.171,289.636c1.986,2.445 4.318,4.611 5.653,7.476c-0.3,0.351 -0.506,-0.226 -0.679,0.05c-0.45,0.175 -0.214,0.681 -0.554,0.91c-0.449,-0.183 -0.662,-0.601 -0.89,-0.976c-1.435,-2.362 -2.548,-4.882 -3.53,-7.46Z" style="fill:#231f20;fill-rule:nonzero;"/>
        <path d="M193.125,286.372c1.296,2.728 2.54,5.469 3.48,8.355c-0.457,0.478 -0.777,0.964 -0.714,1.692c-0.869,-0.533 -1.291,-1.23 -1.445,-2.089c-0.335,-1.865 -0.653,-3.732 -0.967,-5.6c-0.132,-0.784 -0.237,-1.572 -0.354,-2.358Z" style="fill:#231f20;fill-rule:nonzero;"/>
        <path d="M203.154,294.533c-0.56,0.283 -0.769,0.765 -1.013,1.237c-0.727,-0.66 -0.948,-1.414 -0.899,-2.313c0.14,-2.585 0.351,-5.161 0.826,-7.724c0.482,2.886 0.985,5.765 1.086,8.8Z" style="fill:#231f20;fill-rule:nonzero;"/>
        <path d="M219.489,419.957c-2.243,-0.479 -3.627,0.54 -4.682,2.216c-0.993,1.579 -1.497,3.329 -1.708,5.158c-0.31,2.7 -0.042,5.334 1.155,7.812c0.632,1.31 1.544,2.34 3.026,2.734c0.448,0.119 0.903,0.098 1.512,0.126c-1.26,1.286 -2.597,2.19 -4.281,2.386c-1.095,0.128 -2.065,-0.377 -2.879,-1.089c-1.524,-1.332 -2.25,-3.079 -2.465,-5.076c0.486,0.788 0.96,1.584 1.46,2.362c0.685,1.066 1.621,1.841 2.803,2.305c0.863,0.338 1.668,0.244 2.594,-0.343c-0.732,-0.345 -1.373,-0.264 -1.932,-0.594c-2.096,-1.239 -3.161,-3.182 -3.703,-5.419c-0.784,-3.238 -0.456,-6.424 0.917,-9.466c0.931,-2.063 2.439,-3.5 4.868,-3.926c-0.9,-0.987 -1.991,-0.89 -3.076,-0.894c1.825,-1.773 5.002,-0.691 6.391,1.708Z" style="fill:#231f20;fill-rule:nonzero;"/>
        <path d="M283.647,420.423c-0.628,-0.234 -0.659,-0.637 -0.689,-1.001c-0.206,-2.501 -0.105,-4.97 0.803,-7.353c0.15,-0.397 0.327,-0.777 0.564,-1.123c0.886,-1.288 1.93,-1.306 3.002,-0.017c-1.164,-0.056 -1.895,0.529 -2.397,1.486c-0.955,1.823 -1.149,3.803 -1.22,5.81c-0.024,0.69 0.082,1.388 -0.063,2.198Z" style="fill:#231f20;fill-rule:nonzero;"/>
        <path d="M283.435,422.066c0.505,-0.135 0.851,0.06 1.297,0.177c0.41,0.959 1.138,1.596 2.306,1.593c-0.83,1.503 -1.98,1.543 -2.851,0.141c-0.353,-0.568 -0.555,-1.199 -0.752,-1.911Z" style="fill:#231f20;fill-rule:nonzero;"/>
        <path d="M265.028,319.137c-1.13,-0.684 -2.256,-1.31 -3.516,-1.685c-0.704,0.323 -0.89,0.971 -1.021,1.622c-0.346,1.717 -0.606,3.447 -0.666,5.203c-0.015,0.442 0.036,0.902 -0.263,1.552c-0.098,-0.969 -0.223,-1.712 -0.238,-2.457c-0.039,-1.926 -0.03,-3.854 -0.037,-5.781c-0.001,-0.21 -0.003,-0.425 0.04,-0.629c0.156,-0.738 0.708,-1.061 1.399,-0.764c1.224,0.525 2.388,1.175 3.53,1.856c0.392,0.233 0.688,0.581 0.772,1.083Z" style="fill:#231f20;fill-rule:nonzero;"/>
        <path d="M248.097,313.649c-1.185,-0.32 -2.193,-0.311 -3.199,-0.244c-0.663,0.044 -1.325,0.13 -1.981,0.242c-1.002,0.17 -1.575,0.837 -1.954,1.745c0.053,-0.486 0.108,-0.972 0.16,-1.459c0.069,-0.653 0.435,-1.002 1.081,-1.086c1.496,-0.196 2.998,-0.317 4.505,-0.382c0.683,-0.029 1.095,0.325 1.388,1.184Z" style="fill:#231f20;fill-rule:nonzero;"/>
        <path d="M236.174,314.422c-1.416,-0.483 -2.76,-0.372 -4.116,-0.186c-1.082,0.148 -2.071,0.408 -2.634,1.525c-0.402,-1.464 0.474,-2.246 1.691,-2.249c1.228,-0.004 2.44,-0.254 3.673,-0.231c0.737,0.013 1.173,0.302 1.386,1.141Z" style="fill:#231f20;fill-rule:nonzero;"/>
        <path d="M221.585,315.458c-2.324,-0.241 -4.571,-0.51 -6.592,0.923c-0.191,-0.929 0.101,-1.486 0.991,-1.593c1.39,-0.167 2.79,-0.282 4.189,-0.353c0.689,-0.035 1.191,0.34 1.412,1.023Z" style="fill:#231f20;fill-rule:nonzero;"/>
        <path d="M169.053,320.621c-0.072,-0.602 0.007,-0.971 0.123,-1.347c0.18,-0.577 0.553,-0.866 1.144,-0.917c1.224,-0.104 2.444,-0.248 3.676,-0.249c0.641,0 1.173,0.141 1.37,0.873c-0.417,0.219 -0.759,-0.097 -1.13,-0.109c-1.129,-0.033 -2.251,0 -3.35,0.264c-0.769,0.185 -1.469,0.505 -1.833,1.485Z" style="fill:#231f20;fill-rule:nonzero;"/>
        <path d="M158.289,320.992c-0.047,-1.498 0.111,-1.727 1.414,-1.875c1.117,-0.127 2.243,-0.178 3.365,-0.242c0.628,-0.037 1.043,0.293 1.381,0.928c-1.479,-0.481 -2.868,-0.206 -4.252,-0.013c-0.796,0.111 -1.454,0.496 -1.908,1.202Z" style="fill:#231f20;fill-rule:nonzero;"/>
        <path d="M293.304,333.138c1.298,0.535 2.764,0.91 3.786,2.129c-0.954,-0.333 -1.83,-0.925 -3.015,-0.734c-1.147,1.979 -0.918,4.28 -1.286,6.588c-0.217,-0.36 -0.169,-0.629 -0.177,-0.877c-0.051,-1.54 -0.102,-3.079 -0.125,-4.619c-0.008,-0.523 0.054,-1.048 0.103,-1.57c0.039,-0.401 0.178,-0.751 0.714,-0.917Z" style="fill:#231f20;fill-rule:nonzero;"/>
        <path d="M157.887,377.211c-0.417,0.163 -0.756,0.13 -1.111,0.068c0.01,-0.334 0.319,-0.429 0.476,-0.635c0.145,-0.19 0.319,-0.358 0.552,-0.615c0.19,0.418 0.141,0.773 0.083,1.182Z" style="fill:#231f20;fill-rule:nonzero;"/>
        <path d="M139.36,377.76c-0.591,1.037 -1.535,0.461 -2.361,0.688c0.406,-1.079 1.218,-1.294 2.361,-0.688Z" style="fill:#231f20;fill-rule:nonzero;"/>
        <path d="M137.978,376.164c0.624,-0.551 1.166,-0.591 1.963,-0.2c-0.547,0.576 -0.947,0.627 -1.963,0.2Z" style="fill:#231f20;fill-rule:nonzero;"/>
        <path d="M124.719,376.708c0.009,0.583 -0.126,0.919 -0.234,1.236c-0.298,0.24 -0.579,0.262 -1.007,0.031c0.39,-0.398 0.748,-0.763 1.241,-1.267Z" style="fill:#231f20;fill-rule:nonzero;"/>
      </g>
    </g>
	  <a href="L2-5.svg">
    <circle cx="40.657" cy="491.173" r="17.4" style="fill:#c847ff;"/>
	  </a>
  </g>
</svg>
