<?xml version="1.0" encoding="UTF-8" standalone="no"?>
<!DOCTYPE svg PUBLIC "-//W3C//DTD SVG 1.1//EN" "http://www.w3.org/Graphics/SVG/1.1/DTD/svg11.dtd">
<svg width="100%" height="100%" viewBox="0 0 406 529" version="1.1" xmlns="http://www.w3.org/2000/svg" xmlns:xlink="http://www.w3.org/1999/xlink" xml:space="preserve" xmlns:serif="http://www.serif.com/" style="fill-rule:evenodd;clip-rule:evenodd;stroke-linejoin:bevel;">
  <rect id="L6-4" x="0.194" y="0.133" width="405.12" height="528" style="fill:none;"/>
  <clipPath id="_clip1">
    <rect x="0.194" y="0.133" width="405.12" height="528"/>
  </clipPath>
  <g clip-path="url(#_clip1)">
    <g id="staff-top" serif:id="staff top">
      <path d="M0.194,106.933l405.12,0" style="fill:none;fill-rule:nonzero;stroke:#000;stroke-width:1.2px;"/>
      <path d="M0.194,119.533l405.12,0" style="fill:none;fill-rule:nonzero;stroke:#000;stroke-width:1.2px;"/>
      <path d="M0.194,132.133l405.12,0" style="fill:none;fill-rule:nonzero;stroke:#000;stroke-width:1.2px;"/>
      <path d="M0.194,144.733l405.12,0" style="fill:none;fill-rule:nonzero;stroke:#000;stroke-width:1.2px;"/>
      <path d="M0.194,157.333l405.12,0" style="fill:none;fill-rule:nonzero;stroke:#000;stroke-width:1.2px;"/>
    </g>
	  <a href="L6-5.svg">
    <circle cx="364.802" cy="491.173" r="17.4" style="fill:#dc4263;"/>
	  </a>
    <g>
      <path d="M155.399,334.379l11.344,19.648l1.384,1.098l-0.259,-1.748l-11.343,-19.648l-1.126,0.65Z" style="fill:url(#_Linear2);"/>
      <path d="M157.523,333.153l-3.122,1.803l-0.329,-0.569l3.123,-1.803l0.328,0.569Z" style="fill:url(#_Linear3);"/>
      <path d="M192.778,327.606l0,22.687l0.65,1.643l0.65,-1.643l-0,-22.687l-1.3,-0Z" style="fill:url(#_Linear4);"/>
      <rect x="191.625" y="326.949" width="3.606" height="0.657" style="fill:url(#_Linear5);"/>
      <path d="M226.189,340.328l-11.343,19.647l-0.259,1.748l1.384,-1.098l11.344,-19.647l-1.126,-0.65Z" style="fill:url(#_Linear6);"/>
      <path d="M228.313,341.554l-3.122,-1.803l0.328,-0.569l3.122,1.803l-0.328,0.569Z" style="fill:url(#_Linear7);"/>
      <path d="M264.842,294.589c2.004,-1.698 4.573,-2.759 7.404,-2.849c6.656,-0.212 12.225,5.012 12.437,11.669c0.091,2.86 -0.824,5.517 -2.422,7.637c1.283,1.565 2.08,3.547 2.15,5.726c0.167,5.255 -3.957,9.65 -9.212,9.818c-0.944,0.03 -1.86,-0.081 -2.729,-0.309c-0.661,4.69 -4.612,8.368 -9.508,8.524c-3.468,0.111 -6.575,-1.573 -8.434,-4.212c-0.671,0.194 -1.376,0.309 -2.105,0.332c-0.792,0.026 -1.56,-0.06 -2.293,-0.239l-22.424,17.78l16.317,-23.509c-0.225,-0.72 -0.359,-1.482 -0.384,-2.273c-0.021,-0.661 0.036,-1.307 0.159,-1.929c-1.492,-1.676 -2.429,-3.863 -2.506,-6.281c-0.157,-4.928 3.307,-9.129 7.992,-10.05c-0.255,-0.81 -0.407,-1.667 -0.435,-2.557c-0.168,-5.255 3.957,-9.651 9.211,-9.818c2.61,-0.084 5.008,0.893 6.782,2.54Z" style="fill-rule:nonzero;"/>
      <path d="M265.586,300.552c1.299,-1.033 2.943,-1.652 4.731,-1.653c4.208,-0.002 7.62,3.407 7.622,7.614c0.001,1.808 -0.629,3.468 -1.68,4.774c0.779,1.013 1.244,2.281 1.244,3.658c0.002,3.321 -2.689,6.015 -6.01,6.017c-0.597,-0 -1.173,-0.088 -1.718,-0.25c-0.509,2.949 -3.077,5.193 -6.171,5.194c-2.192,0.002 -4.12,-1.123 -5.242,-2.826c-0.427,0.11 -0.875,0.168 -1.336,0.168c-0.5,0.001 -0.984,-0.069 -1.443,-0.196l-21.522,18.583l17.781,-22.321c-0.129,-0.459 -0.198,-0.943 -0.198,-1.443c-0,-0.418 0.048,-0.824 0.138,-1.215c-0.909,-1.087 -1.457,-2.487 -1.458,-4.015c-0.002,-3.114 2.269,-5.698 5.245,-6.188c-0.145,-0.516 -0.224,-1.06 -0.224,-1.623c-0.002,-3.321 2.689,-6.015 6.01,-6.016c1.65,-0.001 3.144,0.663 4.231,1.738Z" style="fill:#fff;fill-rule:nonzero;"/>
      <path d="M255.813,318.303l-0.177,-0.635c-0.066,-0.236 -0.099,-0.479 -0.099,-0.722c-0,-0.203 0.023,-0.407 0.07,-0.608l0.144,-0.626l-0.412,-0.492c-0.501,-0.6 -0.778,-1.361 -0.778,-2.143c-0,-1.647 1.176,-3.036 2.798,-3.303l1.423,-0.233l-0.389,-1.389c-0.079,-0.279 -0.118,-0.566 -0.118,-0.853c-0.001,-0.843 0.327,-1.636 0.923,-2.233c0.596,-0.596 1.389,-0.925 2.232,-0.926c0.839,0 1.627,0.324 2.222,0.913l0.815,0.805l0.896,-0.712c0.775,-0.616 1.707,-0.942 2.697,-0.942c2.397,-0 4.345,1.947 4.346,4.342c0.001,1 -0.331,1.942 -0.957,2.721l-0.636,0.791l0.619,0.805c0.426,0.555 0.651,1.219 0.652,1.92c0.001,1.741 -1.415,3.158 -3.156,3.159c-0.306,-0 -0.609,-0.044 -0.902,-0.131l-1.392,-0.414l-0.248,1.431c-0.277,1.605 -1.662,2.771 -3.294,2.772c-1.13,-0 -2.176,-0.565 -2.798,-1.51l-0.507,-0.769l-0.892,0.228c-0.217,0.056 -0.441,0.084 -0.668,0.084c-0.244,0 -0.486,-0.033 -0.722,-0.098l-0.665,-0.185l-13.447,12.436l12.42,-13.483Z" style="fill-rule:nonzero;"/>
      <path d="M155.451,334.576l11.344,19.648l1.384,1.098l-0.259,-1.748l-11.343,-19.648l-1.126,0.65Z" style="fill-rule:nonzero;"/>
      <path d="M157.575,333.35l-3.122,1.803l-0.329,-0.569l3.123,-1.803l0.328,0.569Z" style="fill-rule:nonzero;"/>
      <path d="M192.83,327.803l0,22.687l0.65,1.643l0.65,-1.643l-0,-22.687l-1.3,-0Z" style="fill-rule:nonzero;"/>
      <rect x="191.677" y="327.146" width="3.606" height="0.657" style="fill-rule:nonzero;"/>
      <path d="M226.241,340.525l-11.344,19.647l-0.258,1.748l1.384,-1.098l11.344,-19.648l-1.126,-0.649Z" style="fill-rule:nonzero;"/>
      <path d="M228.365,341.751l-3.123,-1.803l0.329,-0.569l3.122,1.803l-0.328,0.569Z" style="fill-rule:nonzero;"/>
      <path d="M138.774,414.869c0.837,2.894 1.896,5.693 3.158,8.379c0.761,1.621 1.603,3.204 2.516,4.737c0.718,1.214 1.479,2.406 2.288,3.56c1.953,2.808 4.151,5.427 6.572,7.829c0.879,0.875 1.787,1.717 2.718,2.534c0.02,0.018 0.041,0.035 0.061,0.053c3.306,2.875 7.553,4.436 11.935,4.436l50.695,-0c4.384,-0 8.634,-1.562 11.94,-4.44c0.019,-0.016 0.038,-0.032 0.056,-0.049c0.937,-0.817 1.844,-1.659 2.718,-2.534c2.422,-2.402 4.625,-5.021 6.577,-7.829c0.809,-1.154 1.57,-2.346 2.289,-3.56c0.912,-1.533 1.749,-3.116 2.515,-4.737c0.198,-0.426 0.397,-0.862 0.586,-1.292c1.178,-2.671 2.151,-5.446 2.908,-8.316c1.234,-4.643 1.886,-9.522 1.886,-14.557c0,-3.537 -0.322,-6.997 -0.945,-10.359c-0.26,-1.418 -0.577,-2.818 -0.941,-4.194c-0.88,-3.333 -2.052,-6.548 -3.494,-9.607c-1.371,-2.912 -2.979,-5.688 -4.804,-8.302c-1.952,-2.799 -4.155,-5.423 -6.577,-7.825c-6.888,-6.855 -15.53,-11.957 -25.199,-14.567c-3.248,-0.879 -6.614,-1.475 -10.066,-1.763c-1.584,-0.132 -3.182,-0.203 -4.794,-0.203c-1.617,-0 -3.215,0.071 -4.794,0.203c-3.456,0.288 -6.822,0.884 -10.071,1.763c-9.663,2.61 -18.306,7.712 -25.199,14.567c-2.421,2.402 -4.619,5.026 -6.572,7.825c-1.825,2.614 -3.437,5.39 -4.804,8.302c-1.442,3.059 -2.614,6.274 -3.498,9.607c-0.26,0.989 -0.492,1.986 -0.7,2.993c-0.775,3.735 -1.182,7.603 -1.182,11.56c-0,5.035 0.657,9.914 1.882,14.557c0.108,0.412 0.222,0.823 0.34,1.229Z" style="fill-rule:nonzero;"/>
      <path d="M150.547,399.084c0,23.651 19.173,42.824 42.824,42.824c23.651,0 42.824,-19.173 42.824,-42.824c-0,-23.65 -19.173,-42.823 -42.824,-42.823c-23.651,0 -42.824,19.173 -42.824,42.823Z" style="fill:#fff;fill-rule:nonzero;"/>
      <path d="M152.41,399.084c-0,3.629 0.47,7.145 1.358,10.495c0.633,2.403 1.48,4.718 2.52,6.925c0.985,2.099 2.146,4.097 3.46,5.982c1.411,2.023 2.998,3.912 4.741,5.643c4.969,4.944 11.2,8.618 18.166,10.501c2.343,0.633 4.769,1.064 7.259,1.27c1.14,0.096 2.293,0.145 3.457,0.145c1.164,0 2.317,-0.049 3.457,-0.145c2.49,-0.206 4.916,-0.637 7.259,-1.27c6.966,-1.883 13.197,-5.557 18.165,-10.501c1.743,-1.731 3.331,-3.62 4.742,-5.643c1.315,-1.885 2.474,-3.883 3.46,-5.982c1.039,-2.207 1.887,-4.522 2.52,-6.925c0.888,-3.35 1.359,-6.866 1.359,-10.495c-0,-3.626 -0.471,-7.144 -1.359,-10.492c-0.632,-2.403 -1.481,-4.718 -2.52,-6.927c-0.986,-2.099 -2.145,-4.097 -3.46,-5.983c-1.411,-2.022 -2.999,-3.911 -4.742,-5.642c-4.968,-4.944 -11.199,-8.62 -18.166,-10.501c-2.344,-0.634 -4.77,-1.064 -7.258,-1.271c-1.14,-0.096 -2.293,-0.145 -3.457,-0.145c-1.164,0 -2.317,0.049 -3.457,0.145c-2.488,0.207 -4.914,0.637 -7.258,1.271c-6.967,1.881 -13.198,5.557 -18.167,10.501c-1.743,1.731 -3.33,3.62 -4.741,5.642c-1.314,1.886 -2.475,3.884 -3.46,5.983c-1.04,2.209 -1.888,4.524 -2.52,6.927c-0.888,3.348 -1.358,6.866 -1.358,10.492Z" style="fill-rule:nonzero;"/>
      <path d="M159.058,399.084c0,3.04 0.395,5.985 1.138,8.792c0.531,2.012 1.24,3.951 2.111,5.8c0.826,1.759 1.798,3.433 2.899,5.012c1.181,1.694 2.511,3.276 3.971,4.726c4.163,4.142 9.382,7.22 15.217,8.797c1.963,0.531 3.995,0.891 6.081,1.064c0.955,0.081 1.921,0.122 2.896,0.122c0.975,0 1.941,-0.041 2.896,-0.122c2.086,-0.173 4.118,-0.533 6.081,-1.064c5.835,-1.577 11.054,-4.655 15.217,-8.797c1.459,-1.45 2.789,-3.032 3.972,-4.726c1.1,-1.579 2.073,-3.253 2.897,-5.012c0.871,-1.849 1.581,-3.788 2.112,-5.8c0.743,-2.807 1.138,-5.752 1.138,-8.792c-0,-3.038 -0.395,-5.984 -1.138,-8.789c-0.53,-2.013 -1.241,-3.953 -2.112,-5.802c-0.824,-1.759 -1.797,-3.433 -2.897,-5.012c-1.183,-1.695 -2.513,-3.277 -3.972,-4.726c-4.163,-4.142 -9.382,-7.221 -15.219,-8.797c-1.963,-0.531 -3.995,-0.892 -6.079,-1.065c-0.955,-0.08 -1.921,-0.121 -2.896,-0.121c-0.975,-0 -1.941,0.041 -2.896,0.121c-2.084,0.173 -4.116,0.534 -6.08,1.065c-5.836,1.576 -11.055,4.655 -15.218,8.797c-1.46,1.449 -2.79,3.031 -3.971,4.726c-1.101,1.579 -2.073,3.253 -2.899,5.012c-0.871,1.849 -1.582,3.789 -2.111,5.802c-0.743,2.805 -1.138,5.751 -1.138,8.789Z" style="fill:#fff;fill-rule:nonzero;"/>
      <path d="M178.851,399.086c-0,8.02 6.501,14.521 14.52,14.521c8.019,-0 14.52,-6.501 14.52,-14.521c-0,-8.019 -6.501,-14.519 -14.52,-14.519c-8.019,-0 -14.52,6.5 -14.52,14.519Z" style="fill-rule:nonzero;"/>
      <path d="M193.371,399.084l10.715,-39.545c-2.344,-0.634 -4.77,-1.064 -7.258,-1.271l-3.457,40.816Z" style="fill-rule:nonzero;"/>
      <path d="M182.656,359.539l10.715,39.545l-3.457,-40.816c-2.488,0.207 -4.914,0.637 -7.258,1.271Z" style="fill-rule:nonzero;"/>
      <path d="M193.371,399.084l39.603,-10.492c-0.632,-2.403 -1.481,-4.718 -2.52,-6.927l-37.083,17.419Z" style="fill-rule:nonzero;"/>
      <path d="M193.371,399.084l33.623,-23.402c-1.411,-2.022 -2.999,-3.911 -4.742,-5.642l-28.881,29.044Z" style="fill-rule:nonzero;"/>
      <path d="M159.748,375.682l33.623,23.402l-28.882,-29.044c-1.743,1.731 -3.33,3.62 -4.741,5.642Z" style="fill-rule:nonzero;"/>
      <path d="M153.768,388.592l39.603,10.492l-37.083,-17.419c-1.04,2.209 -1.888,4.524 -2.52,6.927Z" style="fill-rule:nonzero;"/>
      <path d="M193.371,399.084l10.715,39.546c-2.344,0.633 -4.77,1.064 -7.258,1.27l-3.457,-40.816Z" style="fill-rule:nonzero;"/>
      <path d="M182.656,438.63l10.715,-39.546l-3.457,40.816c-2.488,-0.206 -4.914,-0.637 -7.258,-1.27Z" style="fill-rule:nonzero;"/>
      <path d="M193.371,399.084l39.603,10.493c-0.632,2.403 -1.481,4.718 -2.52,6.927l-37.083,-17.42Z" style="fill-rule:nonzero;"/>
      <path d="M193.371,399.084l33.623,23.402c-1.411,2.023 -2.999,3.912 -4.742,5.643l-28.881,-29.045Z" style="fill-rule:nonzero;"/>
      <path d="M159.748,422.486l33.623,-23.402l-28.882,29.045c-1.743,-1.731 -3.33,-3.62 -4.741,-5.643Z" style="fill-rule:nonzero;"/>
      <path d="M153.768,409.577l39.603,-10.493l-37.083,17.42c-1.04,-2.209 -1.888,-4.524 -2.52,-6.927Z" style="fill-rule:nonzero;"/>
      <path d="M186.149,389.363c0,1.03 0.835,1.865 1.865,1.865c1.029,-0 1.864,-0.835 1.864,-1.865c-0,-1.029 -0.835,-1.864 -1.864,-1.864c-1.03,0 -1.865,0.835 -1.865,1.864Z" style="fill:#fff;fill-rule:nonzero;"/>
      <path d="M188.014,390.861c0.825,-0 1.497,-0.672 1.497,-1.498c-0,-0.825 -0.672,-1.496 -1.497,-1.496c-0.826,-0 -1.497,0.671 -1.497,1.496c-0,0.826 0.671,1.498 1.497,1.498Z" style="fill:#fff;fill-rule:nonzero;"/>
      <path d="M198.185,387.964c-0.892,0.514 -1.197,1.655 -0.682,2.547c0.514,0.891 1.655,1.197 2.546,0.682c0.892,-0.515 1.197,-1.655 0.683,-2.547c-0.515,-0.892 -1.655,-1.197 -2.547,-0.682Z" style="fill:#fff;fill-rule:nonzero;"/>
      <path d="M199.119,391.075c0.261,0 0.519,-0.07 0.747,-0.2c0.714,-0.413 0.96,-1.33 0.547,-2.045c-0.266,-0.462 -0.764,-0.749 -1.297,-0.749c-0.261,0 -0.52,0.069 -0.747,0.201c-0.347,0.2 -0.594,0.523 -0.698,0.908c-0.103,0.387 -0.05,0.79 0.15,1.137c0.266,0.461 0.764,0.748 1.298,0.748Z" style="fill:#fff;fill-rule:nonzero;"/>
      <path d="M205.415,397.687c-0.892,-0.515 -2.032,-0.21 -2.547,0.682c-0.514,0.892 -0.209,2.032 0.683,2.547c0.891,0.515 2.032,0.209 2.546,-0.682c0.515,-0.892 0.21,-2.033 -0.682,-2.547Z" style="fill:#fff;fill-rule:nonzero;"/>
      <path d="M204.481,400.798c0.534,0 1.032,-0.287 1.298,-0.748c0.2,-0.346 0.253,-0.75 0.15,-1.136c-0.104,-0.386 -0.351,-0.709 -0.698,-0.909c-0.227,-0.132 -0.486,-0.201 -0.747,-0.201c-0.533,0 -1.031,0.288 -1.297,0.749c-0.413,0.715 -0.167,1.632 0.547,2.045c0.228,0.131 0.486,0.2 0.747,0.2Z" style="fill:#fff;fill-rule:nonzero;"/>
      <path d="M200.61,408.81c-0,-1.03 -0.835,-1.865 -1.865,-1.865c-1.029,0 -1.864,0.835 -1.864,1.865c-0,1.03 0.835,1.864 1.864,1.864c1.03,-0 1.865,-0.834 1.865,-1.864Z" style="fill:#fff;fill-rule:nonzero;"/>
      <path d="M198.745,410.307c0.826,-0 1.497,-0.671 1.497,-1.497c0,-0.825 -0.671,-1.497 -1.497,-1.497c-0.825,-0 -1.497,0.672 -1.497,1.497c0,0.826 0.672,1.497 1.497,1.497Z" style="fill:#fff;fill-rule:nonzero;"/>
      <path d="M188.574,410.21c0.892,-0.515 1.197,-1.656 0.682,-2.547c-0.515,-0.891 -1.655,-1.197 -2.546,-0.683c-0.892,0.515 -1.197,1.656 -0.683,2.547c0.515,0.892 1.655,1.198 2.547,0.683Z" style="fill:#fff;fill-rule:nonzero;"/>
      <path d="M187.644,410.093c0.261,-0 0.519,-0.07 0.746,-0.202c0.346,-0.2 0.594,-0.522 0.698,-0.908c0.103,-0.387 0.05,-0.79 -0.15,-1.136c-0.267,-0.462 -0.764,-0.749 -1.298,-0.749c-0.261,0 -0.519,0.069 -0.747,0.201c-0.346,0.2 -0.594,0.522 -0.697,0.909c-0.104,0.387 -0.05,0.79 0.15,1.136c0.266,0.462 0.764,0.749 1.298,0.749Z" style="fill:#fff;fill-rule:nonzero;"/>
      <path d="M181.344,400.487c0.892,0.515 2.032,0.209 2.547,-0.683c0.514,-0.891 0.209,-2.032 -0.683,-2.547c-0.892,-0.514 -2.032,-0.209 -2.547,0.683c-0.514,0.891 -0.209,2.032 0.683,2.547Z" style="fill:#fff;fill-rule:nonzero;"/>
      <path d="M182.274,400.369c0.534,-0 1.032,-0.287 1.298,-0.749c0.413,-0.714 0.167,-1.631 -0.548,-2.044c-0.227,-0.132 -0.485,-0.201 -0.747,-0.201c-0.533,0 -1.031,0.287 -1.297,0.749c-0.2,0.346 -0.254,0.749 -0.15,1.135c0.104,0.387 0.351,0.709 0.698,0.909c0.227,0.131 0.485,0.201 0.746,0.201Z" style="fill:#fff;fill-rule:nonzero;"/>
      <path d="M187.217,399.086c0,3.404 2.759,6.162 6.162,6.162c3.404,0 6.163,-2.758 6.163,-6.162c-0,-3.403 -2.759,-6.161 -6.163,-6.161c-3.403,0 -6.162,2.758 -6.162,6.161Z" style="fill:#fff;fill-rule:nonzero;"/>
      <path d="M195.377,343.599l-4.01,0l-0,-1.926c-0,-0.413 0.335,-0.747 0.747,-0.747l2.516,-0c0.413,-0 0.747,0.334 0.747,0.747l0,1.926Z" style="fill-rule:nonzero;"/>
      <path d="M190.534,343.636l-3.995,0.35l-0.168,-1.919c-0.036,-0.411 0.268,-0.774 0.679,-0.809l2.506,-0.22c0.411,-0.036 0.774,0.268 0.81,0.679l0.168,1.919Z" style="fill-rule:nonzero;"/>
      <path d="M185.712,344.095l-3.95,0.697l-0.334,-1.897c-0.072,-0.407 0.2,-0.794 0.606,-0.866l2.478,-0.437c0.406,-0.071 0.793,0.2 0.865,0.606l0.335,1.897Z" style="fill-rule:nonzero;"/>
      <path d="M180.948,344.973l-3.874,1.038l-0.498,-1.861c-0.107,-0.398 0.13,-0.808 0.528,-0.915l2.43,-0.651c0.399,-0.107 0.809,0.13 0.915,0.528l0.499,1.861Z" style="fill-rule:nonzero;"/>
      <path d="M176.279,346.262l-3.768,1.372l-0.659,-1.81c-0.141,-0.388 0.059,-0.817 0.446,-0.958l2.364,-0.86c0.388,-0.141 0.817,0.059 0.958,0.446l0.659,1.81Z" style="fill-rule:nonzero;"/>
      <path d="M171.74,347.954l-3.634,1.695l-0.814,-1.746c-0.175,-0.374 -0.013,-0.819 0.361,-0.993l2.28,-1.063c0.374,-0.175 0.819,-0.013 0.993,0.361l0.814,1.746Z" style="fill-rule:nonzero;"/>
      <path d="M167.366,350.034l-3.473,2.006l-0.963,-1.669c-0.207,-0.357 -0.084,-0.814 0.273,-1.02l2.179,-1.258c0.357,-0.207 0.814,-0.084 1.021,0.273l0.963,1.668Z" style="fill-rule:nonzero;"/>
      <path d="M163.19,352.488l-3.285,2.3l-1.105,-1.577c-0.237,-0.339 -0.155,-0.804 0.183,-1.041l2.061,-1.443c0.338,-0.237 0.804,-0.155 1.041,0.183l1.105,1.578Z" style="fill-rule:nonzero;"/>
      <path d="M159.243,355.297l-3.072,2.578l-1.238,-1.476c-0.265,-0.316 -0.224,-0.787 0.092,-1.053l1.927,-1.617c0.317,-0.265 0.788,-0.224 1.053,0.092l1.238,1.476Z" style="fill-rule:nonzero;"/>
      <path d="M155.557,358.439l-2.836,2.835l-1.362,-1.362c-0.292,-0.292 -0.292,-0.765 -0,-1.057l1.779,-1.778c0.292,-0.292 0.765,-0.292 1.057,-0l1.362,1.362Z" style="fill-rule:nonzero;"/>
      <path d="M152.158,361.89l-2.578,3.072l-1.475,-1.238c-0.317,-0.266 -0.358,-0.737 -0.093,-1.053l1.618,-1.927c0.265,-0.316 0.736,-0.358 1.052,-0.092l1.476,1.238Z" style="fill-rule:nonzero;"/>
      <path d="M149.073,365.624l-2.3,3.285l-1.578,-1.105c-0.338,-0.237 -0.42,-0.703 -0.184,-1.04l1.443,-2.061c0.237,-0.338 0.703,-0.421 1.041,-0.184l1.578,1.105Z" style="fill-rule:nonzero;"/>
      <path d="M146.325,369.613l-2.005,3.473l-1.668,-0.963c-0.358,-0.207 -0.48,-0.664 -0.274,-1.021l1.258,-2.179c0.206,-0.357 0.663,-0.48 1.021,-0.273l1.668,0.963Z" style="fill-rule:nonzero;"/>
      <path d="M143.935,373.826l-1.695,3.635l-1.745,-0.815c-0.374,-0.174 -0.536,-0.618 -0.362,-0.993l1.063,-2.279c0.175,-0.375 0.619,-0.536 0.993,-0.362l1.746,0.814Z" style="fill-rule:nonzero;"/>
      <path d="M141.922,378.232l-1.372,3.768l-1.81,-0.659c-0.388,-0.141 -0.588,-0.57 -0.447,-0.957l0.861,-2.365c0.141,-0.387 0.57,-0.587 0.958,-0.446l1.81,0.659Z" style="fill-rule:nonzero;"/>
      <path d="M140.3,382.795l-1.038,3.875l-1.861,-0.499c-0.398,-0.107 -0.635,-0.517 -0.528,-0.915l0.651,-2.43c0.107,-0.399 0.517,-0.635 0.915,-0.529l1.861,0.498Z" style="fill-rule:nonzero;"/>
      <path d="M139.082,387.484l-0.696,3.949l-1.897,-0.334c-0.407,-0.072 -0.678,-0.459 -0.606,-0.866l0.436,-2.477c0.072,-0.407 0.46,-0.678 0.866,-0.606l1.897,0.334Z" style="fill-rule:nonzero;"/>
      <path d="M138.277,392.26l-0.349,3.996l-1.919,-0.169c-0.411,-0.036 -0.715,-0.398 -0.679,-0.809l0.219,-2.507c0.036,-0.41 0.398,-0.714 0.809,-0.678l1.919,0.167Z" style="fill-rule:nonzero;"/>
      <path d="M137.892,397.089l0,4.01l-1.926,0c-0.413,0 -0.747,-0.335 -0.747,-0.747l-0,-2.516c-0,-0.413 0.334,-0.747 0.747,-0.747l1.926,-0Z" style="fill-rule:nonzero;"/>
      <path d="M137.929,401.933l0.35,3.994l-1.919,0.169c-0.411,0.035 -0.774,-0.268 -0.81,-0.68l-0.219,-2.506c-0.036,-0.411 0.268,-0.773 0.679,-0.81l1.919,-0.167Z" style="fill-rule:nonzero;"/>
      <path d="M138.388,406.754l0.697,3.95l-1.897,0.335c-0.407,0.071 -0.794,-0.2 -0.866,-0.607l-0.437,-2.477c-0.072,-0.407 0.2,-0.794 0.606,-0.866l1.897,-0.335Z" style="fill-rule:nonzero;"/>
      <path d="M139.266,411.519l1.038,3.873l-1.861,0.498c-0.399,0.107 -0.808,-0.129 -0.915,-0.528l-0.651,-2.43c-0.107,-0.399 0.13,-0.809 0.528,-0.915l1.861,-0.498Z" style="fill-rule:nonzero;"/>
      <path d="M140.555,416.187l1.372,3.768l-1.81,0.659c-0.388,0.142 -0.817,-0.058 -0.958,-0.447l-0.86,-2.363c-0.142,-0.388 0.058,-0.817 0.446,-0.958l1.81,-0.659Z" style="fill-rule:nonzero;"/>
      <path d="M142.247,420.726l1.694,3.634l-1.745,0.814c-0.374,0.175 -0.819,0.013 -0.993,-0.361l-1.064,-2.28c-0.174,-0.374 -0.012,-0.819 0.362,-0.993l1.746,-0.814Z" style="fill-rule:nonzero;"/>
      <path d="M144.327,425.1l2.005,3.473l-1.668,0.963c-0.357,0.207 -0.814,0.084 -1.021,-0.273l-1.258,-2.179c-0.206,-0.358 -0.083,-0.815 0.274,-1.021l1.668,-0.963Z" style="fill-rule:nonzero;"/>
      <path d="M146.781,429.276l2.3,3.285l-1.578,1.105c-0.338,0.237 -0.804,0.154 -1.04,-0.183l-1.443,-2.061c-0.237,-0.338 -0.155,-0.804 0.183,-1.04l1.578,-1.106Z" style="fill-rule:nonzero;"/>
      <path d="M149.59,433.223l2.577,3.072l-1.475,1.238c-0.316,0.265 -0.788,0.224 -1.053,-0.092l-1.617,-1.927c-0.265,-0.317 -0.224,-0.788 0.092,-1.053l1.476,-1.238Z" style="fill-rule:nonzero;"/>
      <path d="M152.731,436.909l2.836,2.836l-1.362,1.362c-0.292,0.292 -0.765,0.292 -1.057,0l-1.779,-1.779c-0.291,-0.291 -0.291,-0.764 0,-1.057l1.362,-1.362Z" style="fill-rule:nonzero;"/>
      <path d="M156.183,440.308l3.071,2.578l-1.238,1.476c-0.265,0.316 -0.736,0.357 -1.052,0.092l-1.928,-1.617c-0.316,-0.266 -0.357,-0.737 -0.092,-1.054l1.239,-1.475Z" style="fill-rule:nonzero;"/>
      <path d="M227.515,442.877l3.073,-2.579l1.238,1.477c0.265,0.316 0.224,0.787 -0.093,1.052l-1.926,1.617c-0.317,0.265 -0.788,0.224 -1.053,-0.092l-1.239,-1.475Z" style="fill-rule:nonzero;"/>
      <path d="M231.202,439.735l2.836,-2.836l1.362,1.362c0.292,0.292 0.292,0.765 -0,1.057l-1.779,1.779c-0.292,0.291 -0.765,0.291 -1.057,-0l-1.362,-1.362Z" style="fill-rule:nonzero;"/>
      <path d="M234.601,436.284l2.578,-3.073l1.476,1.239c0.315,0.265 0.356,0.736 0.091,1.053l-1.617,1.926c-0.265,0.317 -0.736,0.358 -1.052,0.093l-1.476,-1.238Z" style="fill-rule:nonzero;"/>
      <path d="M237.686,432.549l2.3,-3.285l1.579,1.105c0.337,0.237 0.419,0.703 0.183,1.041l-1.443,2.061c-0.237,0.338 -0.703,0.42 -1.041,0.183l-1.578,-1.105Z" style="fill-rule:nonzero;"/>
      <path d="M240.434,428.561l2.005,-3.473l1.668,0.962c0.358,0.207 0.48,0.664 0.274,1.021l-1.258,2.179c-0.207,0.358 -0.663,0.48 -1.021,0.274l-1.668,-0.963Z" style="fill-rule:nonzero;"/>
      <path d="M242.824,424.347l1.694,-3.634l1.746,0.814c0.374,0.174 0.536,0.619 0.361,0.993l-1.062,2.28c-0.175,0.374 -0.62,0.536 -0.993,0.361l-1.746,-0.814Z" style="fill-rule:nonzero;"/>
      <path d="M244.838,419.941l1.37,-3.767l1.811,0.658c0.387,0.141 0.587,0.57 0.447,0.958l-0.861,2.364c-0.141,0.388 -0.57,0.588 -0.958,0.446l-1.809,-0.659Z" style="fill-rule:nonzero;"/>
      <path d="M246.459,415.378l1.038,-3.874l1.86,0.499c0.399,0.106 0.636,0.516 0.529,0.914l-0.652,2.43c-0.106,0.399 -0.516,0.636 -0.914,0.529l-1.861,-0.498Z" style="fill-rule:nonzero;"/>
      <path d="M247.677,410.69l0.696,-3.95l1.897,0.335c0.407,0.071 0.678,0.459 0.607,0.865l-0.438,2.477c-0.071,0.407 -0.459,0.678 -0.865,0.607l-1.897,-0.334Z" style="fill-rule:nonzero;"/>
      <path d="M248.481,405.913l0.35,-3.995l1.919,0.168c0.411,0.036 0.715,0.398 0.679,0.809l-0.219,2.507c-0.036,0.411 -0.399,0.714 -0.81,0.679l-1.919,-0.168Z" style="fill-rule:nonzero;"/>
      <path d="M248.867,401.084l0,-4.01l1.926,0c0.412,0 0.748,0.334 0.748,0.747l-0,2.516c-0,0.413 -0.336,0.747 -0.748,0.747l-1.926,0Z" style="fill-rule:nonzero;"/>
      <path d="M248.829,396.241l-0.349,-3.995l1.919,-0.168c0.411,-0.036 0.773,0.268 0.81,0.68l0.219,2.506c0.036,0.411 -0.268,0.773 -0.68,0.809l-1.919,0.168Z" style="fill-rule:nonzero;"/>
      <path d="M248.371,391.419l-0.697,-3.949l1.897,-0.335c0.407,-0.072 0.794,0.2 0.866,0.606l0.437,2.477c0.071,0.407 -0.2,0.794 -0.607,0.866l-1.896,0.335Z" style="fill-rule:nonzero;"/>
      <path d="M247.493,386.655l-1.038,-3.874l1.861,-0.498c0.398,-0.107 0.808,0.129 0.915,0.528l0.651,2.43c0.107,0.399 -0.129,0.809 -0.528,0.916l-1.861,0.498Z" style="fill-rule:nonzero;"/>
      <path d="M246.204,381.986l-1.372,-3.768l1.81,-0.659c0.388,-0.141 0.817,0.059 0.958,0.447l0.86,2.364c0.142,0.387 -0.058,0.816 -0.446,0.957l-1.81,0.659Z" style="fill-rule:nonzero;"/>
      <path d="M244.512,377.447l-1.694,-3.635l1.746,-0.814c0.373,-0.173 0.818,-0.012 0.992,0.362l1.063,2.28c0.175,0.374 0.013,0.819 -0.361,0.993l-1.746,0.814Z" style="fill-rule:nonzero;"/>
      <path d="M242.432,373.073l-2.005,-3.473l1.668,-0.963c0.357,-0.206 0.814,-0.084 1.02,0.273l1.258,2.179c0.207,0.358 0.084,0.815 -0.273,1.021l-1.668,0.963Z" style="fill-rule:nonzero;"/>
      <path d="M239.978,368.897l-2.301,-3.285l1.579,-1.105c0.337,-0.237 0.803,-0.154 1.04,0.184l1.443,2.061c0.236,0.337 0.154,0.803 -0.183,1.04l-1.578,1.105Z" style="fill-rule:nonzero;"/>
      <path d="M237.169,364.951l-2.577,-3.073l1.475,-1.238c0.316,-0.265 0.787,-0.224 1.053,0.092l1.617,1.928c0.265,0.316 0.224,0.787 -0.092,1.052l-1.476,1.239Z" style="fill-rule:nonzero;"/>
      <path d="M234.027,361.264l-2.836,-2.836l1.363,-1.362c0.292,-0.292 0.765,-0.292 1.056,0l1.779,1.779c0.293,0.292 0.293,0.765 0,1.057l-1.362,1.362Z" style="fill-rule:nonzero;"/>
      <path d="M230.576,357.865l-3.072,-2.578l1.238,-1.475c0.265,-0.316 0.737,-0.358 1.053,-0.092l1.927,1.617c0.317,0.265 0.358,0.736 0.092,1.052l-1.238,1.476Z" style="fill-rule:nonzero;"/>
      <path d="M226.842,354.78l-3.285,-2.3l1.105,-1.578c0.237,-0.338 0.702,-0.42 1.04,-0.184l2.061,1.444c0.339,0.236 0.421,0.702 0.184,1.04l-1.105,1.578Z" style="fill-rule:nonzero;"/>
      <path d="M222.853,352.032l-3.473,-2.005l0.964,-1.668c0.206,-0.358 0.663,-0.48 1.02,-0.274l2.179,1.258c0.357,0.207 0.479,0.664 0.274,1.021l-0.964,1.668Z" style="fill-rule:nonzero;"/>
      <path d="M218.64,349.642l-3.635,-1.694l0.814,-1.746c0.175,-0.374 0.619,-0.536 0.993,-0.362l2.28,1.064c0.375,0.174 0.536,0.619 0.362,0.993l-0.814,1.745Z" style="fill-rule:nonzero;"/>
      <path d="M214.235,347.629l-3.769,-1.372l0.659,-1.81c0.141,-0.388 0.57,-0.587 0.957,-0.446l2.365,0.86c0.387,0.141 0.587,0.57 0.446,0.958l-0.658,1.81Z" style="fill-rule:nonzero;"/>
      <path d="M209.67,346.007l-3.873,-1.038l0.498,-1.86c0.107,-0.399 0.517,-0.636 0.915,-0.529l2.431,0.651c0.398,0.107 0.634,0.517 0.528,0.915l-0.499,1.861Z" style="fill-rule:nonzero;"/>
      <path d="M204.982,344.789l-3.949,-0.696l0.334,-1.897c0.072,-0.406 0.46,-0.678 0.866,-0.606l2.478,0.437c0.406,0.071 0.677,0.459 0.606,0.865l-0.335,1.897Z" style="fill-rule:nonzero;"/>
      <path d="M200.206,343.985l-3.995,-0.35l0.168,-1.919c0.036,-0.411 0.398,-0.715 0.809,-0.679l2.506,0.219c0.411,0.036 0.715,0.399 0.679,0.81l-0.167,1.919Z" style="fill-rule:nonzero;"/>
      <path d="M159.69,442.977l3.789,1.314l-0.631,1.82c-0.135,0.39 -0.561,0.596 -0.951,0.461l-2.377,-0.824c-0.39,-0.135 -0.596,-0.561 -0.461,-0.951l0.631,-1.82Z" style="fill-rule:nonzero;"/>
      <path d="M164.321,444.356l3.951,0.689l-0.332,1.898c-0.07,0.406 -0.458,0.678 -0.864,0.607l-2.478,-0.433c-0.407,-0.07 -0.679,-0.458 -0.608,-0.864l0.331,-1.897Z" style="fill-rule:nonzero;"/>
      <path d="M227.054,442.977l-3.789,1.314l0.631,1.82c0.135,0.39 0.561,0.596 0.95,0.461l2.378,-0.824c0.389,-0.135 0.596,-0.561 0.461,-0.951l-0.631,-1.82Z" style="fill-rule:nonzero;"/>
      <path d="M222.636,444.356l-3.951,0.689l0.332,1.898c0.07,0.406 0.458,0.678 0.864,0.607l2.478,-0.433c0.407,-0.07 0.679,-0.458 0.608,-0.864l-0.331,-1.897Z" style="fill-rule:nonzero;"/>
      <path d="M168.708,445.061l4.01,-0l-0,1.926c-0,0.412 -0.335,0.746 -0.747,0.746l-2.516,0c-0.413,0 -0.747,-0.334 -0.747,-0.746l-0,-1.926Z" style="fill-rule:nonzero;"/>
      <path d="M173.762,445.061l4.01,-0l0,1.926c0,0.412 -0.334,0.746 -0.747,0.746l-2.516,0c-0.412,0 -0.747,-0.334 -0.747,-0.746l0,-1.926Z" style="fill-rule:nonzero;"/>
      <path d="M178.817,445.061l4.01,-0l0,1.926c0,0.412 -0.335,0.746 -0.747,0.746l-2.516,0c-0.413,0 -0.747,-0.334 -0.747,-0.746l-0,-1.926Z" style="fill-rule:nonzero;"/>
      <path d="M183.871,445.061l4.011,-0l-0,1.926c-0,0.412 -0.335,0.746 -0.748,0.746l-2.515,0c-0.413,0 -0.748,-0.334 -0.748,-0.746l0,-1.926Z" style="fill-rule:nonzero;"/>
      <path d="M188.926,445.061l4.01,-0l0,1.926c0,0.412 -0.334,0.746 -0.747,0.746l-2.516,0c-0.412,0 -0.747,-0.334 -0.747,-0.746l0,-1.926Z" style="fill-rule:nonzero;"/>
      <path d="M193.981,445.061l4.01,-0l-0,1.926c-0,0.412 -0.335,0.746 -0.747,0.746l-2.516,0c-0.413,0 -0.747,-0.334 -0.747,-0.746l-0,-1.926Z" style="fill-rule:nonzero;"/>
      <path d="M199.035,445.061l4.011,-0l-0,1.926c-0,0.412 -0.335,0.746 -0.748,0.746l-2.515,0c-0.413,0 -0.748,-0.334 -0.748,-0.746l0,-1.926Z" style="fill-rule:nonzero;"/>
      <path d="M204.09,445.061l4.01,-0l0,1.926c0,0.412 -0.334,0.746 -0.747,0.746l-2.516,0c-0.412,0 -0.747,-0.334 -0.747,-0.746l0,-1.926Z" style="fill-rule:nonzero;"/>
      <path d="M209.145,445.061l4.01,-0l-0,1.926c-0,0.412 -0.335,0.746 -0.747,0.746l-2.516,0c-0.413,0 -0.747,-0.334 -0.747,-0.746l-0,-1.926Z" style="fill-rule:nonzero;"/>
      <path d="M214.026,445.061l4.011,-0l-0,1.926c-0,0.412 -0.335,0.746 -0.748,0.746l-2.516,0c-0.412,0 -0.747,-0.334 -0.747,-0.746l0,-1.926Z" style="fill-rule:nonzero;"/>
    </g>
    <g>
      <path d="M143.909,122.253l-0,40.955" style="fill:none;fill-rule:nonzero;stroke:#000;stroke-width:1.23px;"/>
      <path d="M169.791,119.583l75.336,6.831" style="fill:none;stroke:#020000;stroke-width:3px;stroke-linecap:round;stroke-linejoin:miter;stroke-miterlimit:1.5;"/>
      <path d="M143.294,122.254c0,2.113 1.521,4.471 5.508,4.471c5.109,0 10.471,-4.179 10.471,-8.504c0,-2.904 -2.458,-4.525 -5.508,-4.525c-4.771,0 -10.471,4.033 -10.471,8.558" style="fill-rule:nonzero;"/>
      <path d="M260.66,119.65c-6.783,-0 -9.195,3.442 -9.195,6.637c-0,3.196 2.412,6.638 9.195,6.638c6.783,-0 9.142,-3.442 9.142,-6.638c-0,-3.195 -2.359,-6.637 -9.142,-6.637m0.392,11.7c-1.375,-0 -2.312,-0.392 -2.95,-1.621c-0.638,-1.229 -1.521,-4.425 -1.575,-5.708c-0.1,-1.329 0.392,-2.113 1.575,-2.504c0.591,-0.2 1.375,-0.3 2.166,-0.3c1.322,0 2.213,0.3 2.896,1.629c0.692,1.275 1.629,4.471 1.629,5.7c0,2.412 -1.774,2.804 -3.741,2.804" style="fill-rule:nonzero;"/>
      <path d="M143.291,85.879l-0.047,0l-0.099,-0.046c-0.446,0 -0.738,0.292 -0.738,0.692l0,1.129c0,0.292 0.246,0.538 0.492,0.638l10.524,3.295l-10.524,3.342c-0.246,0.1 -0.492,0.346 -0.492,0.637l0,1.13c0,0.399 0.292,0.691 0.738,0.691l0.099,-0.046l0.047,0l16.378,-5.07c0.246,-0.092 0.491,-0.392 0.491,-0.684c0,-0.299 -0.245,-0.545 -0.491,-0.637l-16.378,-5.071" style="fill-rule:nonzero;"/>
      <path d="M142.154,179.001c1.37,-5.056 1.765,-5.939 2.501,-6.528c0.395,-0.294 0.736,-0.387 0.984,-0.387c0.092,0 0.193,0.047 0.239,0.047c0.295,0.046 0.543,0.34 0.543,0.635c-0,0.247 -0.101,0.495 -0.295,0.588c-0.487,0.395 -0.735,1.03 -0.735,1.673c-0,0.24 0.046,0.488 0.1,0.736c0.148,0.441 0.535,0.929 1.03,1.13c0.194,0.093 0.488,0.147 0.782,0.147c1.077,0 2.115,-0.735 2.409,-1.773c0.093,-0.294 0.147,-0.635 0.147,-0.929c0,-0.589 -0.147,-1.177 -0.495,-1.72c-0.69,-1.324 -2.649,-1.912 -4.074,-1.912c-4.515,-0 -6.52,4.708 -7.752,8.34l-0.046,0.101l-3.733,-0c-0.294,-0 -0.488,0.193 -0.488,0.488l0,1.084c0,0.294 0.194,0.487 0.488,0.487l3.098,0l-0.054,0.194c-0.489,1.967 -0.883,3.687 -1.224,5.305c-0.395,1.812 -0.836,3.725 -1.425,5.986l-0.147,0.589c-1.03,4.019 -1.371,5.444 -2.548,6.226c-0.247,0.147 -0.542,0.248 -0.836,0.248c-0.248,-0 -0.442,-0.047 -0.643,-0.194c-0.147,-0.1 -0.341,-0.294 -0.294,-0.542c0.054,-0.194 0.201,-0.395 0.441,-0.488c0.937,-0.395 1.231,-1.324 1.231,-2.114c0,-0.681 -0.487,-1.959 -2.261,-1.959c-1.324,-0 -2.548,1.278 -2.548,2.602c0,2.594 1.766,3.972 4.027,3.972c1.565,0 2.695,-0.541 3.919,-1.765c2.16,-2.161 4.515,-9.518 5.746,-13.692c0.441,-1.572 0.883,-3.136 1.223,-4.266l0,-0.102l7.659,0l-0.054,0.194c-0.488,1.967 -0.882,3.687 -1.223,5.305c-0.395,1.812 -0.837,3.725 -1.425,5.986l-0.148,0.589c-1.029,4.019 -1.37,5.444 -2.547,6.226c-0.248,0.147 -0.542,0.248 -0.837,0.248c-0.247,-0 -0.441,-0.047 -0.643,-0.194c-0.147,-0.1 -0.34,-0.348 -0.294,-0.589c0.055,-0.201 0.202,-0.348 0.442,-0.441c0.937,-0.395 1.231,-1.324 1.231,-2.114c-0,-0.681 -0.488,-1.959 -2.261,-1.959c-1.324,-0 -2.548,1.224 -2.548,2.547c-0,2.602 1.766,4.027 4.027,4.027c1.564,0 2.695,-0.541 3.919,-1.765c2.16,-2.161 4.514,-9.518 5.745,-13.692c0.442,-1.572 0.884,-3.136 1.224,-4.266l0,-0.102l3.585,0c0.295,0 0.489,-0.193 0.489,-0.487l-0,-1.084c-0,-0.295 -0.194,-0.488 -0.489,-0.488l-2.95,-0l0.054,-0.148c1.371,-5.056 1.766,-5.939 2.502,-6.528c0.394,-0.294 0.735,-0.387 0.983,-0.387c0.093,0 0.194,0.047 0.24,0.047c0.294,0.046 0.542,0.34 0.542,0.635c0,0.247 -0.1,0.495 -0.294,0.588c-0.488,0.395 -0.736,1.03 -0.736,1.673c0,0.24 0.047,0.488 0.101,0.736c0.147,0.441 0.534,0.929 1.03,1.13c0.194,0.093 0.488,0.147 0.782,0.147c1.076,0 2.114,-0.735 2.409,-1.773c0.092,-0.294 0.147,-0.635 0.147,-0.929c-0,-0.589 -0.147,-1.177 -0.496,-1.72c-0.689,-1.324 -2.648,-1.912 -4.073,-1.912c-4.515,-0 -6.521,4.708 -7.752,8.34l-0.047,0.101l-7.659,-0l0.055,-0.148" style="fill-rule:nonzero;"/>
      <path d="M284.353,196.651l-0,-0.983l-3.679,-0l2.85,-7.9l0.147,0.341c0,0 0.488,1.084 2.153,1.526c0.294,0.093 0.643,0.093 0.937,0.093c4.166,-0 6.815,-5.739 6.815,-9.463c-0,-2.014 -1.177,-4.422 -3.431,-4.422c-1.518,-0 -3.043,1.278 -3.88,2.114l-0.147,0.147l-0.093,-0.201c0,-0 -1.029,-1.859 -2.749,-2.107l-0.147,0l-0.248,-0.046c-2.796,-0 -4.073,2.943 -4.855,5.196l0.882,0.441c0.194,-0.635 0.69,-2.207 1.278,-2.989c0.294,-0.441 0.883,-0.836 1.324,-0.937l0.194,0c0.147,0 0.295,0 0.395,0.101c0.193,0.147 0.248,0.395 0.248,0.736c-0,1.177 -0.883,3.337 -1.131,3.825l-4.855,13.545l-2.997,-0l-0,0.983l10.989,-0m1.378,-8.588c-0.101,-0 -0.294,-0 -0.395,-0.047c-0.735,-0.294 -0.929,-1.177 -0.929,-2.114c-0,-1.518 0.534,-3.283 0.589,-3.384c0.34,-1.518 2.207,-4.956 4.119,-4.956c0.101,-0 0.248,-0 0.341,0.046c0.588,0.147 0.689,1.085 0.689,1.572c0,2.355 -1.719,7.752 -3.88,8.782c-0.147,0.101 -0.387,0.101 -0.534,0.101" style="fill-rule:nonzero;"/>
      <path d="M180.648,185.639l88.096,-7.067l-88.096,-7.068" style="fill:none;fill-rule:nonzero;stroke:#000;stroke-width:1.48px;"/>
    </g>
	  <a href="L4-6.svg">
    <circle cx="40.706" cy="491.173" r="17.4" style="fill:#149d15;"/>
	  </a>
  </g>
  <defs>
    <linearGradient id="_Linear2" x1="0" y1="0" x2="1" y2="0" gradientUnits="userSpaceOnUse" gradientTransform="matrix(1.12555,-0.649837,0.649837,1.12555,161.482,344.915)">
      <stop offset="0" style="stop-color:#808080;stop-opacity:1"/>
      <stop offset="0.5" style="stop-color:#f2f2f2;stop-opacity:1"/>
      <stop offset="1" style="stop-color:#808080;stop-opacity:1"/>
    </linearGradient>
    <linearGradient id="_Linear3" x1="0" y1="0" x2="1" y2="0" gradientUnits="userSpaceOnUse" gradientTransform="matrix(3.12248,-1.80276,1.80276,3.12248,154.236,334.671)">
      <stop offset="0" style="stop-color:#808080;stop-opacity:1"/>
      <stop offset="0.2" style="stop-color:#dbdbdb;stop-opacity:1"/>
      <stop offset="0.3" style="stop-color:#d2d2d2;stop-opacity:1"/>
      <stop offset="0.4" style="stop-color:#a7a7a7;stop-opacity:1"/>
      <stop offset="0.5" style="stop-color:#999;stop-opacity:1"/>
      <stop offset="0.7" style="stop-color:#e0e0e0;stop-opacity:1"/>
      <stop offset="0.8" style="stop-color:#dbdbdb;stop-opacity:1"/>
      <stop offset="1" style="stop-color:#808080;stop-opacity:1"/>
    </linearGradient>
    <linearGradient id="_Linear4" x1="0" y1="0" x2="1" y2="0" gradientUnits="userSpaceOnUse" gradientTransform="matrix(1.29968,0,0,1.29968,192.778,339.771)">
      <stop offset="0" style="stop-color:#808080;stop-opacity:1"/>
      <stop offset="0.5" style="stop-color:#f2f2f2;stop-opacity:1"/>
      <stop offset="1" style="stop-color:#808080;stop-opacity:1"/>
    </linearGradient>
    <linearGradient id="_Linear5" x1="0" y1="0" x2="1" y2="0" gradientUnits="userSpaceOnUse" gradientTransform="matrix(3.60553,0,0,3.60553,191.625,327.277)">
      <stop offset="0" style="stop-color:#808080;stop-opacity:1"/>
      <stop offset="0.2" style="stop-color:#dbdbdb;stop-opacity:1"/>
      <stop offset="0.3" style="stop-color:#d2d2d2;stop-opacity:1"/>
      <stop offset="0.4" style="stop-color:#a7a7a7;stop-opacity:1"/>
      <stop offset="0.5" style="stop-color:#999;stop-opacity:1"/>
      <stop offset="0.7" style="stop-color:#e0e0e0;stop-opacity:1"/>
      <stop offset="0.8" style="stop-color:#dbdbdb;stop-opacity:1"/>
      <stop offset="1" style="stop-color:#808080;stop-opacity:1"/>
    </linearGradient>
    <linearGradient id="_Linear6" x1="0" y1="0" x2="1" y2="0" gradientUnits="userSpaceOnUse" gradientTransform="matrix(1.12555,0.649837,-0.649837,1.12555,220.106,350.863)">
      <stop offset="0" style="stop-color:#808080;stop-opacity:1"/>
      <stop offset="0.5" style="stop-color:#f2f2f2;stop-opacity:1"/>
      <stop offset="1" style="stop-color:#808080;stop-opacity:1"/>
    </linearGradient>
    <linearGradient id="_Linear7" x1="0" y1="0" x2="1" y2="0" gradientUnits="userSpaceOnUse" gradientTransform="matrix(3.12248,1.80276,-1.80276,3.12248,225.355,339.467)">
      <stop offset="0" style="stop-color:#808080;stop-opacity:1"/>
      <stop offset="0.2" style="stop-color:#dbdbdb;stop-opacity:1"/>
      <stop offset="0.3" style="stop-color:#d2d2d2;stop-opacity:1"/>
      <stop offset="0.4" style="stop-color:#a7a7a7;stop-opacity:1"/>
      <stop offset="0.5" style="stop-color:#999;stop-opacity:1"/>
      <stop offset="0.7" style="stop-color:#e0e0e0;stop-opacity:1"/>
      <stop offset="0.8" style="stop-color:#dbdbdb;stop-opacity:1"/>
      <stop offset="1" style="stop-color:#808080;stop-opacity:1"/>
    </linearGradient>
  </defs>
</svg>
