<?xml version="1.0" encoding="UTF-8" standalone="no"?>
<!DOCTYPE svg PUBLIC "-//W3C//DTD SVG 1.1//EN" "http://www.w3.org/Graphics/SVG/1.1/DTD/svg11.dtd">
<svg width="100%" height="100%" viewBox="0 0 406 529" version="1.1" xmlns="http://www.w3.org/2000/svg" xmlns:xlink="http://www.w3.org/1999/xlink" xml:space="preserve" xmlns:serif="http://www.serif.com/" style="fill-rule:evenodd;clip-rule:evenodd;stroke-linejoin:round;stroke-miterlimit:2;">
  <rect id="L6-8" x="0.183" y="0.133" width="405.12" height="528" style="fill:none;"/>
	<a href="L6-9.svg">
  <circle cx="364.791" cy="491.173" r="17.4" style="fill:#dc4263;"/>
	</a>
  <g>
    <path d="M145.951,129.283l0.172,-0.144c-0.004,-1.501 -0.373,-2.841 -0.32,-4.57c0.188,-6.14 2.969,-12.197 7.271,-16.534c0.611,-0.616 1.256,-1.206 1.914,-1.772c-1.417,-1.969 -2.621,-3.605 -2.224,-6.187c0.238,-1.546 1.11,-2.949 2.371,-3.869c1.235,-0.903 2.786,-1.304 4.302,-1.063c1.629,0.259 3.02,1.219 3.97,2.549c0.485,0.679 0.879,1.431 1.284,2.16c0.067,-4.425 1.632,-8.228 4.815,-11.329c7.771,-7.574 25.609,-9.339 36.135,-9.181c7.517,0.112 16.733,1.181 22.274,6.876c1.758,1.808 2.793,3.905 3.704,6.228c0.596,-2.226 1.296,-4.329 3.43,-5.536c1.373,-0.777 3.006,-0.944 4.518,-0.515c1.66,0.47 3.126,1.615 3.962,3.125c0.758,1.367 0.897,2.915 0.451,4.406c-0.218,0.725 -0.643,1.987 -1.264,2.451c1.095,0.488 2.112,1.3 3.06,2.027c3.859,2.963 6.889,6.529 8.644,11.114c0.367,0.956 0.804,2.129 0.821,3.156c0.042,-0.026 0.083,-0.051 0.124,-0.078c0.464,-0.311 0.921,-1.132 1.257,-1.592c1.088,-1.491 4.491,-6.556 5.574,-7.453c0.334,-0.277 0.658,-0.419 1.094,-0.393c0.274,0.141 0.423,0.214 0.549,0.519c0.169,0.408 0.064,0.926 -0.131,1.304c-0.112,0.216 -0.253,0.409 -0.418,0.587c-0.642,0.681 -7.665,7.092 -8.041,7.253c1.045,1.549 0.736,7.045 0.348,8.967c-0.14,0.686 -0.318,1.337 -0.83,1.842c-0.674,0.35 -1.859,-0.105 -2.536,-0.319c-3.737,-1.179 -7.481,-2.443 -11.123,-3.889c-1.005,-0.399 -2.044,-0.776 -3.03,-1.214c-0.715,-0.318 -1.377,-0.755 -2.119,-1.014c-0.314,-0.109 -0.53,-0.139 -0.837,-0.002c-0.107,0.19 -0.164,0.251 -0.156,0.473c2.208,1.81 4.569,3.311 6.68,5.273c9.508,8.838 15.508,20.955 16.777,33.888c0.107,1.094 0.562,4.78 0.023,5.642c0.849,1.377 -0.831,10.283 -1.252,12.052c-2.656,11.135 -8.829,20.554 -17.762,27.65c0.547,1.361 3.561,8.571 3.354,9.51c0.114,0.453 -0.073,0.943 -0.304,1.335c-0.776,1.326 -2.697,2.533 -4.168,2.89c-0.687,0.167 -1.526,0.215 -2.157,-0.156c-0.948,-0.557 -5.637,-6.203 -6.768,-7.489c-13.009,6.985 -28.48,9.627 -42.923,6.056c-1.255,1.614 -2.392,3.335 -3.537,5.028c-0.722,1.067 -1.455,2.527 -2.432,3.355c-0.423,0.359 -0.95,0.536 -1.494,0.6c-1.756,0.206 -3.957,-0.564 -5.316,-1.666c-0.564,-0.457 -1.074,-1.064 -1.163,-1.81c-0.158,-1.316 2.133,-8.457 2.598,-10.112c-12.898,-7.753 -22.472,-19.512 -26.14,-34.253c-3.06,-12.299 -1.564,-26.392 5.012,-37.34c1.212,-2.016 2.627,-4.031 4.268,-5.724c1.198,-1.237 2.616,-2.265 3.975,-3.318c2.346,-1.82 4.734,-3.579 7.13,-5.332c-0.228,-0.326 -0.449,-0.664 -0.69,-0.979c-2.727,1.859 -17.345,12.847 -19.86,12.291c-0.433,-0.096 -0.845,-0.718 -1.043,-1.086c-0.517,-0.958 -1.318,-4.27 -1.823,-4.688Zm12.517,7.754l-0.078,0.137c-1.24,1.482 -2.206,3.356 -3.068,5.079c-3.818,7.64 -5.296,16.018 -4.53,24.514c0.568,6.311 2.942,12.504 5.953,18.03c0.614,1.126 1.316,2.572 2.207,3.501l0.058,0.066l-0.058,-0.066c-0.527,-1.588 -1.745,-3.518 -2.405,-5.232c-2.661,-6.904 -4.232,-15.123 -2.805,-22.479c0.821,6.94 2.378,13.333 5.467,19.634c0.916,1.867 1.959,3.819 3.204,5.486l0.108,0.178l0.054,0.062l-0.054,-0.062l-0.108,-0.178c-0.606,-1.708 -1.538,-3.333 -2.175,-5.05c-2.474,-6.675 -3.505,-13.793 -2.324,-20.841c0.325,1.633 0.508,3.298 0.831,4.936c1.03,5.235 2.635,10.265 5.069,15.028c0.715,1.399 1.495,3.055 2.512,4.257l0.053,0.069l-0.053,-0.069c-0.214,-0.93 -0.909,-2.009 -1.312,-2.895c-4.891,-10.769 -5.374,-23.728 -2.268,-35.068c0.761,-2.779 1.889,-5.322 2.893,-8.002l0.07,-0.118l-0.07,0.118c-2.196,2.216 -5.365,10.127 -6.311,13.197c-0.495,1.61 -0.78,3.297 -1.312,4.886l-0.038,0.113c-0.214,-6.296 1.06,-12.215 3.535,-17.98c-2.97,4.224 -5.046,9.159 -6.57,14.074c-0.43,1.388 -0.665,2.854 -1.155,4.218l-0.036,0.096c-0.075,-5.465 0.898,-10.867 2.967,-15.938c0.496,-1.218 1.128,-2.368 1.671,-3.564l0.078,-0.137l0.084,-0.119l-0.084,0.119Zm41.829,-55.661c-6.723,0.392 -16.128,1.617 -22.315,4.15c-2.83,1.158 -5.657,2.843 -7.708,5.143c-2.166,2.43 -3.24,5.181 -3.558,8.419c0.577,-0.214 1.156,-0.452 1.752,-0.613c0.723,-3.66 2.386,-6.627 5.524,-8.729c4.78,-3.202 10.86,-4.295 16.434,-5.207c9.821,-1.353 25.505,-2.79 33.75,3.401c1.425,1.069 2.528,2.417 3.626,3.805c0.586,0.051 1.19,0.076 1.765,0.194c-2.752,-4.93 -6.776,-7.583 -12.168,-9.103c-5.38,-1.518 -11.525,-1.828 -17.102,-1.46Zm1.069,4.145c-7.913,0.351 -22.995,1.903 -28.415,7.897c-1.199,1.326 -1.911,2.848 -2.409,4.547c5.903,-0.776 12.476,-0.121 17.367,3.621c0.827,0.633 1.451,1.323 2.088,2.14c-0.159,-0.984 -0.159,-1.903 0.45,-2.743c0.234,-0.323 0.515,-0.609 0.88,-0.78c1.517,-0.713 6.421,-1.475 8.304,-1.741c0.988,-0.14 1.832,-0.127 2.656,0.497c0.742,0.563 1.263,1.436 1.37,2.366c0.089,0.777 -0.172,1.664 -0.677,2.264c-0.924,1.098 -2.67,1.178 -3.994,1.397c0.439,1.842 0.915,3.675 1.384,5.51l2.711,-0.379c6.936,-0.614 13.475,0.14 20.101,2.265l0.413,-1.098c-3.889,-1.669 -14.305,-6.073 -16.817,-9.04c1.83,-4.226 5.684,-6.962 9.853,-8.608c2.635,-1.04 5.604,-1.801 8.447,-1.857c-4.679,-4.964 -11.389,-6.109 -17.956,-6.309c-1.897,-0.058 -3.864,-0.096 -5.756,0.051Zm35.995,2.735c-1.188,0.292 -2.099,0.767 -2.739,1.85c-0.469,0.793 -0.679,1.69 -0.898,2.575c1.919,0.422 3.742,1.041 5.544,1.824c0.623,0.289 1.251,0.57 1.864,0.879c0.645,-1.524 1.344,-3.044 0.683,-4.698c-0.373,-0.936 -1.089,-1.682 -2.019,-2.075c-0.792,-0.333 -1.586,-0.411 -2.435,-0.355Zm-11.348,5.779c-5.516,0.324 -11.791,2.963 -15.489,7.163c-0.115,0.13 -0.225,0.264 -0.333,0.401l2.409,0.692c2.563,-3.665 6.007,-6.265 10.489,-7.065c6.448,-1.151 13.98,0.972 19.285,4.676c0.765,0.534 3.754,2.697 3.959,3.466c0.513,0.328 0.913,0.846 1.306,1.305c2.057,2.412 3.493,5.362 4.167,8.458c0.29,1.33 0.713,4.174 0.155,5.376c0.371,0.19 1.028,0.492 1.272,0.827c0.867,-2.805 -0.841,-8.588 -2.19,-11.136c-3.344,-6.322 -9.437,-10.816 -16.209,-12.885c-2.702,-0.825 -5.986,-1.503 -8.821,-1.278Zm-68.073,2.964c-1.14,0.301 -2.272,0.961 -2.875,2.01c-0.504,0.879 -0.627,1.993 -0.355,2.966c0.311,1.107 1.066,2.055 1.733,2.972c0.644,-0.51 1.282,-1.035 1.956,-1.506c1.478,-1.012 2.982,-1.997 4.556,-2.855c-0.803,-1.425 -1.545,-2.963 -3.243,-3.448c-0.592,-0.169 -1.163,-0.162 -1.772,-0.139Zm74.5,1.385c-3.963,0.936 -6.906,4.01 -9.165,7.226c5.213,1.859 10.281,4.308 15.303,6.625c1.391,0.663 4.781,2.101 5.865,3.027c0.841,-2.142 -0.126,-7.652 -1.037,-9.771c-1.241,-2.883 -3.387,-5.122 -6.326,-6.287c-1.428,-0.566 -3.094,-0.978 -4.64,-0.82Zm-60.334,1.747c-7.42,0.804 -13.888,5.133 -18.506,10.883c-3.592,4.474 -5.713,10.719 -5.068,16.466c0.151,1.344 0.445,2.724 0.916,3.994c0.768,-0.456 1.554,-0.895 2.306,-1.376c-1.824,-3.883 -2.041,-8.093 -0.932,-12.2c2.003,-6.256 7.18,-10.925 12.885,-13.87c5.854,-3.023 11.426,-4.016 17.809,-1.974c0.722,0.23 4.369,1.978 4.754,1.873c-2.446,-2.571 -8.159,-3.794 -11.589,-3.877c-0.86,-0.021 -1.718,0.011 -2.575,0.081Zm27.854,0.329c-1.599,0.307 -3.196,0.663 -4.796,0.95c-0.811,0.146 -1.663,0.195 -2.448,0.456c-0.311,0.103 -0.699,0.264 -0.888,0.545c-0.113,0.168 -0.135,0.38 -0.085,0.571c0.096,0.367 0.459,0.832 0.792,1.013c0.329,0.178 0.875,0.004 1.225,-0.066c1.279,-0.254 7.082,-1.169 7.675,-1.677c0.163,-0.352 0.235,-0.757 0.099,-1.132c-0.103,-0.283 -0.338,-0.513 -0.612,-0.632c-0.283,-0.122 -0.666,-0.074 -0.962,-0.028Zm-9.928,3.321c-1.951,3.728 -12.259,12.092 -16.023,15.019l0.603,0.98c1.176,-0.76 2.35,-1.496 3.58,-2.169c5.655,-3.124 11.578,-5.078 17.876,-6.439l-1.314,-5.403c-1.112,0.207 -2.41,0.565 -3.426,-0.137c-0.656,-0.453 -0.986,-1.141 -1.296,-1.851Zm-20.641,0.958c-2.52,0.171 -5.194,0.606 -6.963,2.599c-1.508,1.699 -1.914,4.11 -1.763,6.312c0.225,3.273 1.878,5.977 3.481,8.737c1.714,-1.184 3.402,-2.386 5.076,-3.624c3.84,-2.836 8.683,-6.565 12.033,-9.889c-3.181,-2.422 -7.81,-4.312 -11.864,-4.135Zm37.463,7.828c-12.169,0.699 -22.772,5.861 -30.893,14.995c-8.795,9.892 -13.048,22.75 -12.261,35.94c0.758,12.724 6.826,24.609 16.321,33.019c9.088,8.049 21.109,12.438 33.242,11.982c11.623,-0.645 22.742,-5.637 30.563,-14.364c8.765,-9.78 12.811,-22.335 12.075,-35.387c-0.737,-13.069 -6.746,-25.509 -16.516,-34.187c-8.795,-7.811 -20.729,-12.381 -32.507,-12c-0.008,0 -0.016,0.001 -0.024,0.002Zm20.085,0.088c-0.1,0.408 -0.204,0.6 -0.042,0.999c0.366,0.366 1.058,0.518 1.546,0.682c0.161,-0.334 0.293,-0.466 0.194,-0.846c-0.38,-0.447 -1.158,-0.632 -1.698,-0.835Zm-65.539,25.816l0.108,0l-0.108,0Zm5.052,45.808l0.087,-0l-0.087,-0Zm71.119,19.37l-1.497,1.009c1.27,2.36 2.654,4.659 3.903,7.029l0.223,0.303c0.288,-0.052 0.28,-0.087 0.457,-0.305c0.05,-0.175 0.08,-0.29 0.03,-0.472c-0.386,-1.475 -1.164,-2.981 -1.736,-4.398c-0.381,-0.943 -0.701,-2.035 -1.181,-2.927c-0.053,-0.099 -0.12,-0.161 -0.199,-0.239Zm-58.749,1.779c-1.429,4.704 -3.028,9.381 -4.36,14.112c0.322,0.209 0.589,0.465 0.977,0.482c0.231,-0.206 0.297,-0.434 0.4,-0.72c1.714,-4.065 3.78,-8.466 5.27,-12.557c-0.771,-0.427 -1.538,-0.854 -2.287,-1.317Zm53.686,1.211c-0.24,0.179 -0.477,0.29 -0.578,0.578c0.87,1.301 4.394,5.832 5.466,6.724c0.142,-0.078 0.381,-0.16 0.452,-0.303c-0.605,-0.943 -4.742,-6.832 -5.34,-6.999Zm-47.197,3.407l-4.771,7.939c-0.532,0.886 -1.181,1.739 -1.673,2.639c-0.127,0.232 -0.216,0.37 -0.207,0.64c0.177,-0.016 0.332,-0.024 0.499,-0.091l4.672,-6.979c0.732,-1.099 1.725,-2.353 2.24,-3.56c-0.169,-0.303 -0.467,-0.425 -0.76,-0.588Z" style="fill-rule:nonzero;"/>
    <path d="M258.274,123.453l9.117,-6.99c1.155,-0.884 2.625,-2.253 3.89,-2.917c0.266,-0.139 0.533,-0.178 0.827,-0.127c0.152,0.026 0.234,0.087 0.349,0.182l0.058,0.134c0.268,0.209 0.44,0.346 0.466,0.717c0.022,0.295 -0.112,0.619 -0.316,0.829c-0.494,0.507 -13.587,8 -14.391,8.172Z" style="fill-rule:nonzero;"/>
    <path d="M211.453,204.037c-10.79,-0.071 -21.603,-4.666 -29.418,-12.059c-8.532,-8.069 -13.695,-19.188 -14.017,-30.978c-0.335,-12.266 3.763,-23.877 12.236,-32.818c8.127,-8.576 17.97,-12.525 29.663,-12.846l0.134,-0.002c10.74,-0.09 21.443,4.534 29.027,12.07c8.806,8.75 14.052,20.965 14.089,33.408c0.035,11.517 -4.747,22.872 -12.865,31.014c-7.696,7.718 -17.949,12.183 -28.849,12.211Zm-4.689,-84.451c-0.697,0.06 -1.445,0.072 -2.118,0.273l-0.011,0.025c10.701,-0.619 21.11,2.5 29.184,9.699c8.291,7.392 12.995,17.522 13.604,28.585c0.587,10.691 -3.221,22.227 -10.4,30.237c-4.903,5.47 -11.266,9.63 -18.355,11.63c-0.77,0.217 -5.477,0.96 -5.71,1.158l0.255,0.056c11.147,-0.848 20.161,-4.806 27.524,-13.402c6.822,-7.965 9.986,-18.576 9.156,-28.972c-0.908,-11.376 -6.297,-22.057 -14.981,-29.455c-7.685,-6.547 -17.784,-10.669 -28.001,-9.848c-0.049,0.004 -0.098,0.01 -0.147,0.014Zm-2.305,3.107c-9.278,0.88 -17.799,5.356 -23.76,12.559c-1.846,2.229 -3.29,4.636 -4.689,7.158c2.936,1.292 5.897,2.772 8.688,4.354c-0.427,0.737 -0.811,1.46 -1.145,2.244c-2.815,-1.485 -5.639,-3.188 -8.53,-4.504c-4.019,9.065 -4.977,20.106 -1.378,29.473c3.743,9.741 10.535,17.421 20.154,21.689c1.794,0.796 3.626,1.425 5.516,1.947c9.629,2.183 19.278,0.546 27.633,-4.723c8.151,-5.14 13.937,-13.864 16.042,-23.213c2.262,-10.046 0.815,-20.819 -4.744,-29.587c-5.269,-8.314 -13.252,-14.403 -22.923,-16.571c-2.927,-0.655 -7.921,-1.34 -10.864,-0.826Z" style="fill-rule:nonzero;"/>
    <path d="M145.951,129.283c-1.737,-0.713 -14.487,-7.61 -14.764,-8.298c-0.145,-0.36 -0.063,-0.714 0.091,-1.057c0.019,-0.043 0.04,-0.086 0.06,-0.129c0.343,-0.182 0.743,-0.385 1.139,-0.237c0.218,0.081 12.984,9.296 13.474,9.721Z" style="fill-rule:nonzero;"/>
    <path d="M203.188,128.897c-0.147,-1.311 -0.823,-4.047 -0.409,-5.224c0.272,-0.297 0.429,-0.321 0.804,-0.432c0.257,-0.003 0.592,-0.005 0.803,0.148c0.863,0.628 0.819,2.841 0.952,3.869l3.18,3.399c-0.855,0.077 -1.705,0.207 -2.555,0.324c0.901,2.905 1.908,5.762 2.695,8.703c1.22,4.563 1.909,9.14 2.402,13.831c1.953,0.478 3.525,1.435 4.645,3.142c1.119,1.708 1.484,3.865 1.058,5.857c-0.463,2.162 -1.681,3.79 -3.519,4.974c0.655,1.028 1.251,2.079 1.805,3.165c0.889,1.742 6.038,12.536 6.06,13.494c0.008,0.332 -0.137,0.423 -0.353,0.636c-0.265,-0.008 -0.291,-0.017 -0.509,-0.167c-2.554,-3.918 -5.289,-7.805 -7.61,-11.864c-0.746,-1.303 -1.224,-2.735 -1.942,-4.048l-0.054,-0.098c-1.682,0.244 -3.167,0.334 -4.776,-0.349c-1.924,-0.817 -3.411,-2.394 -4.19,-4.326c-0.83,-2.059 -0.79,-4.384 0.094,-6.42c0.812,-1.869 2.253,-3.086 4.114,-3.834c-1.581,-7.518 -1.181,-14.929 -1.168,-22.541c-0.867,0.179 -1.745,0.307 -2.619,0.448c0.391,-0.881 0.731,-1.792 1.092,-2.687Zm2.996,7.046c-0.281,2.154 0.755,9.194 1.595,11.269c0.273,-2.196 -0.221,-9.442 -1.54,-11.2c-0.018,-0.023 -0.037,-0.046 -0.055,-0.069Zm3.928,19.751c-1.224,0.284 -2.193,0.842 -2.871,1.931c-0.663,1.067 -0.869,2.409 -0.572,3.627c0.291,1.195 1.039,2.286 2.102,2.918c0.771,0.458 1.557,0.603 2.441,0.568c1.206,-0.299 2.161,-0.798 2.832,-1.886c0.674,-1.09 0.851,-2.468 0.541,-3.704c-0.301,-1.198 -1.026,-2.29 -2.104,-2.918c-0.762,-0.444 -1.5,-0.573 -2.369,-0.536Zm2.266,11.487l-1.2,0.578c1.01,1.805 2.277,3.518 3.436,5.232c0.103,0.137 0.185,0.307 0.346,0.367l-0.171,-0.263l0.163,-0.114c-0.018,-0.019 -0.038,-0.036 -0.054,-0.057c-0.79,-1.016 -1.551,-5.263 -2.52,-5.743Z" style="fill-rule:nonzero;"/>
    <path d="M258.176,123.56l0.098,-0.107l-0.098,0.107Z" style="fill-rule:nonzero;"/>
    <path d="M207.646,127.862l-0.41,-0.059c-0.091,-0.069 -0.195,-0.116 -0.24,-0.223c-0.373,-0.883 -0.508,-3.186 -0.172,-4.059c0.317,0.034 0.445,0.007 0.692,0.219c0.444,0.975 0.418,3.11 0.13,4.122Z" style="fill-rule:nonzero;"/>
    <path d="M257.935,123.692l0.241,-0.132l-0.241,0.132Z" style="fill-rule:nonzero;"/>
    <path d="M210.882,128.01c-0.283,-0.034 -0.407,-0.075 -0.626,-0.26c-0.443,-0.983 -0.037,-3.075 0.141,-4.137c0.318,0.078 0.528,0.078 0.752,0.333c0.083,1.102 0.094,3.034 -0.267,4.064Z" style="fill-rule:nonzero;"/>
    <path d="M257.852,123.778l0.083,-0.086l-0.083,0.086Z" style="fill-rule:nonzero;"/>
    <path d="M214.05,128.455c-0.282,-0.02 -0.439,-0.027 -0.659,-0.213c-0.392,-0.919 0.313,-3.099 0.613,-4.068c0.368,0.102 0.454,0.101 0.697,0.387c0.28,1.139 -0.329,2.784 -0.651,3.894Z" style="fill-rule:nonzero;"/>
    <path d="M201.91,128.92c-0.233,-0.02 -0.385,-0.06 -0.601,-0.151c-0.652,-0.828 -1.083,-3.428 -1.018,-4.456c0.112,-0.003 0.231,-0.011 0.343,0c0.183,0.018 0.363,0.034 0.473,0.196c0.33,0.483 0.933,3.827 0.803,4.411Z" style="fill-rule:nonzero;"/>
    <path d="M263.287,131.833c1.153,-0.367 2.275,-1.044 3.36,-1.586l5.92,-2.954c1.588,-0.786 3.704,-1.571 5.151,-2.519c0.283,-0.06 0.638,-0.137 0.92,-0.037c0.307,0.109 0.58,0.39 0.686,0.697c0.083,0.24 0.054,0.47 -0.065,0.692c-0.227,0.433 -0.684,0.713 -1.118,0.909c-1.925,0.87 -5.364,1.727 -7.507,2.408c-1.945,0.618 -3.859,1.438 -5.83,1.955c-0.393,0.297 -1.046,0.357 -1.517,0.435Z" style="fill-rule:nonzero;"/>
    <path d="M217.174,129.281c-0.33,-0.057 -0.432,-0.067 -0.69,-0.271c-0.326,-0.978 0.601,-2.988 0.911,-3.932c0.358,0.086 0.46,0.071 0.708,0.358c0.228,0.995 -0.629,2.862 -0.929,3.845Z" style="fill-rule:nonzero;"/>
    <path d="M198.711,129.61c-0.078,0.012 -0.202,0.035 -0.278,0.031c-0.217,-0.012 -0.31,-0.079 -0.431,-0.252c-0.509,-0.735 -1.332,-3.108 -1.199,-4.046c0.172,0.011 0.302,0.018 0.468,0.075c0.218,0.075 0.362,0.37 0.46,0.57c0.421,0.848 1.272,2.723 0.98,3.622Z" style="fill-rule:nonzero;"/>
    <path d="M216.888,133.931c0.58,-1.457 1.31,-2.87 1.967,-4.295c0.567,-1.229 1.077,-2.695 1.862,-3.795c0.063,0.002 0.126,0.004 0.188,0.009c0.373,0.03 1.003,0.211 1.234,0.526c0.174,0.237 0.188,0.413 0.164,0.697c-0.063,0.722 -2.846,7.609 -3.2,7.903l-0.265,-0.084l-1.95,-0.961Z" style="fill-rule:nonzero;"/>
    <path d="M195.63,130.78c-0.1,0.014 -0.186,0.02 -0.286,0.007c-0.257,-0.036 -0.329,-0.085 -0.481,-0.296c-0.511,-0.705 -1.552,-3.031 -1.393,-3.873c0.123,-0 0.258,-0.006 0.378,0.016c0.281,0.051 0.437,0.285 0.58,0.512c0.564,0.899 1.447,2.603 1.202,3.634Z" style="fill-rule:nonzero;"/>
    <path d="M222.624,132.14c-0.296,-0.12 -0.435,-0.132 -0.615,-0.403c0.013,-1.083 1.458,-2.779 2.049,-3.668c0.271,0.073 0.471,0.139 0.692,0.316c0.066,0.052 0.066,0.037 0.064,0.14c-0.013,0.661 -1.701,3.008 -2.19,3.615Z" style="fill-rule:nonzero;"/>
    <path d="M192.798,132.272c-0.089,-0.009 -0.197,-0.015 -0.283,-0.046c-0.646,-0.232 -1.911,-2.381 -2.195,-3.073c-0.154,-0.375 -0.054,-0.489 0.106,-0.837c0.087,0.019 0.108,0.019 0.184,0.046c0.723,0.259 1.987,2.358 2.282,3.094c0.14,0.35 0.042,0.495 -0.094,0.816Z" style="fill-rule:nonzero;"/>
    <path d="M186.709,129.926c0.574,-0.426 1.169,-0.815 1.766,-1.207c0.869,0.671 4.146,5.096 4.915,6.218c-0.63,0.451 -1.291,0.87 -1.933,1.302l-0.217,0.025c-1.575,-1.986 -3.239,-4.157 -4.531,-6.338Z" style="fill-rule:nonzero;"/>
    <path d="M225.133,133.761c-0.082,-0.014 -0.115,-0.016 -0.201,-0.046c-0.255,-0.091 -0.312,-0.17 -0.434,-0.405c0.107,-1.046 1.541,-2.59 2.155,-3.471c0.065,0.01 0.088,0.012 0.158,0.035c0.293,0.1 0.343,0.133 0.46,0.418c-0.143,1.128 -1.454,2.558 -2.138,3.469Z" style="fill-rule:nonzero;"/>
    <path d="M141.879,137.767c-2.824,-0.75 -5.603,-1.693 -8.408,-2.515c-2.499,-0.732 -5.174,-1.335 -7.585,-2.319c-0.35,-0.143 -0.707,-0.296 -0.909,-0.635c-0.153,-0.256 -0.133,-0.514 -0.041,-0.789c0.059,-0.179 0.163,-0.333 0.269,-0.487c0.507,-0.226 0.797,-0.363 1.346,-0.158c3.086,1.154 6.087,2.77 9.103,4.119c1.87,0.836 4.563,1.726 6.225,2.784Z" style="fill-rule:nonzero;"/>
    <path d="M227.298,135.593c-0.313,-0.121 -0.372,-0.115 -0.558,-0.408c0.029,-0.926 1.93,-2.594 2.557,-3.271c0.082,0.032 0.115,0.041 0.196,0.091c0.251,0.154 0.278,0.236 0.326,0.517c-0.297,1.069 -1.745,2.263 -2.521,3.071Z" style="fill-rule:nonzero;"/>
    <path d="M187.817,135.866c-0.132,-0.013 -0.109,-0.007 -0.257,-0.042c-0.71,-0.17 -2.417,-2.061 -2.751,-2.701c-0.157,-0.3 -0.048,-0.47 0.058,-0.758c0.02,0.004 0.041,0.008 0.06,0.014c0.841,0.242 2.559,2.003 2.926,2.747c0.152,0.309 0.059,0.419 -0.036,0.74Z" style="fill-rule:nonzero;"/>
    <path d="M229.654,137.463c-0.252,0.058 -0.414,0.019 -0.633,-0.097l-0.035,-0.261c0.317,-0.996 1.768,-2.139 2.522,-2.885c0.048,-0.001 0.096,-0.005 0.144,-0.002c0.271,0.021 0.355,0.098 0.512,0.304c-0.076,0.822 -1.906,2.326 -2.51,2.941Z" style="fill-rule:nonzero;"/>
    <path d="M185.784,138.222c-0.082,0.002 -0.164,0.004 -0.246,0.001c-0.794,-0.037 -2.552,-1.883 -3.128,-2.508c-0.359,-0.39 -0.39,-0.54 -0.366,-1.062c0.907,0.108 3.12,1.984 3.661,2.75c0.198,0.282 0.119,0.501 0.079,0.819Z" style="fill-rule:nonzero;"/>
    <path d="M231.586,139.527c-0.103,0.036 -0.225,0.024 -0.334,0.026c-0.252,-0.218 -0.27,-0.231 -0.334,-0.556c0.15,-0.434 2.216,-1.865 2.677,-2.233c0.14,0.011 0.252,0.014 0.375,0.086c0.22,0.129 0.205,0.164 0.262,0.399c-0.32,0.822 -1.915,1.742 -2.646,2.278Z" style="fill-rule:nonzero;"/>
    <path d="M266.909,140.942c3.211,-0.903 6.448,-1.707 9.675,-2.551c1.778,-0.465 3.751,-1.162 5.575,-1.352c0.281,-0.03 0.474,0.011 0.729,0.13l0.095,0.165c0.281,0.218 0.43,0.343 0.46,0.727c0.025,0.305 -0.063,0.626 -0.273,0.855c-0.195,0.212 -0.465,0.3 -0.739,0.355c-2.656,0.535 -5.531,0.608 -8.231,0.902c-2.161,0.235 -5.106,0.794 -7.213,0.771c-0.026,-0 -0.052,-0.001 -0.078,-0.002Z" style="fill-rule:nonzero;"/>
    <path d="M183.617,140.663c-0.022,-0 -0.045,-0 -0.067,-0.002c-0.037,-0.004 -0.074,-0.01 -0.111,-0.014c-0.087,-0.01 -0.18,-0.019 -0.263,-0.048c-0.517,-0.18 -3.18,-2.104 -3.439,-2.603c-0.123,-0.236 -0.015,-0.436 0.046,-0.676c0.111,0.009 0.219,0.024 0.326,0.052c0.718,0.188 3.274,1.912 3.598,2.599c0.117,0.249 -0.01,0.449 -0.09,0.692Z" style="fill-rule:nonzero;"/>
    <path d="M141.879,137.767l0.128,0.058l-0.128,-0.058Z" style="fill-rule:nonzero;"/>
    <path d="M227.942,142.897c2.409,-1.568 4.852,-3.075 7.28,-4.612c0.406,-0.009 0.891,0.098 1.23,0.334c0.256,0.177 0.258,0.326 0.294,0.605c-0.135,0.43 -0.36,0.72 -0.687,1.018c-1.456,1.325 -4.948,3.283 -6.774,4.444l-0.098,0.012c-0.495,-0.381 -0.904,-1.265 -1.245,-1.801Z" style="fill-rule:nonzero;"/>
    <path d="M181.471,143.273c-1.145,-0.507 -2.887,-1.743 -3.822,-2.587c-0.015,-0.365 0.157,-0.54 0.342,-0.84c0.861,0.347 3.224,1.938 3.672,2.672c0.024,0.348 -0.036,0.437 -0.192,0.755Z" style="fill-rule:nonzero;"/>
    <path d="M266.817,141.032l0.092,-0.09l-0.092,0.09Z" style="fill-rule:nonzero;"/>
    <path d="M234.208,144.07c-0.027,0.007 -0.053,0.019 -0.08,0.021c-0.353,0.032 -0.428,-0.113 -0.678,-0.326l-0.009,-0.225c0.554,-0.872 2.516,-1.639 3.457,-2.139c0.098,-0.016 0.213,0.019 0.311,0.035c0.255,0.211 0.319,0.209 0.371,0.548c-0.463,0.821 -2.501,1.604 -3.372,2.086Z" style="fill-rule:nonzero;"/>
    <path d="M137.493,146.689c-1.215,-0.22 -2.535,-0.236 -3.768,-0.336c-3.616,-0.293 -7.368,-0.416 -10.951,-0.961c-0.576,-0.087 -1.087,-0.19 -1.456,-0.682c-0.076,-0.225 -0.109,-0.4 -0.052,-0.637c0.124,-0.514 0.403,-0.711 0.828,-0.971c1.459,0.236 2.915,0.643 4.355,0.98l7.708,1.774c1.111,0.246 3.108,0.364 4.023,0.805l-0.687,0.028Z" style="fill-rule:nonzero;"/>
    <path d="M235.488,146.477c-0.262,-0.04 -0.473,-0.134 -0.636,-0.347l0.06,-0.239c0.617,-0.779 2.558,-1.342 3.511,-1.737c0.07,-0.003 0.098,-0.008 0.175,0.011c0.244,0.06 0.402,0.136 0.529,0.344c-0.4,0.91 -2.759,1.608 -3.639,1.968Z" style="fill-rule:nonzero;"/>
    <path d="M177.942,148.57c-1.023,-0.065 -2.677,-0.51 -3.485,-1.166c-0.158,-0.354 -0.097,-0.448 -0.013,-0.834c1.043,0.201 2.778,0.564 3.565,1.29c0.111,0.33 0.046,0.391 -0.067,0.71Z" style="fill-rule:nonzero;"/>
    <path d="M236.759,149.114c-0.187,-0.003 -0.276,-0.045 -0.45,-0.111c-0.165,-0.22 -0.203,-0.226 -0.19,-0.513c0.409,-0.589 2.629,-1.151 3.386,-1.458c0.047,0.007 0.095,0.009 0.141,0.022c0.259,0.07 0.446,0.166 0.564,0.399c-0.01,0.029 -0.017,0.06 -0.03,0.087c-0.387,0.777 -2.633,1.31 -3.421,1.574Z" style="fill-rule:nonzero;"/>
    <path d="M267.23,150.788c5.086,-0.353 10.241,-0.299 15.303,-0.923c0.264,-0.029 0.533,-0.053 0.8,-0.065c0.483,-0.021 0.795,0.113 1.14,0.464c0.221,0.223 0.388,0.522 0.374,0.843c-0.011,0.272 -0.146,0.494 -0.35,0.667c-0.198,0.166 -0.408,0.271 -0.667,0.294c-1.341,0.118 -2.941,-0.227 -4.296,-0.333c-2.961,-0.232 -5.928,-0.364 -8.886,-0.643c-1.142,-0.081 -2.28,-0.194 -3.418,-0.304Z" style="fill-rule:nonzero;"/>
    <path d="M176.913,151.619c-0.98,-0.073 -2.714,-0.232 -3.488,-0.883c-0.126,-0.341 -0.071,-0.41 0.023,-0.75c0.89,0.167 3.019,0.319 3.63,0.99c0.043,0.315 -0.021,0.369 -0.165,0.643Z" style="fill-rule:nonzero;"/>
    <path d="M237.656,151.869l-0.306,-0.025c-0.226,-0.156 -0.278,-0.176 -0.389,-0.438c0.483,-0.76 2.832,-1.133 3.71,-1.364c0.231,0.067 0.415,0.142 0.629,0.255c0.009,0.144 0.027,0.144 -0.056,0.278c-0.498,0.796 -2.66,1.075 -3.588,1.294Z" style="fill-rule:nonzero;"/>
    <path d="M203.371,152.976l0.07,-0.042l-0.07,0.042Z" style="fill-rule:nonzero;"/>
    <path d="M208.953,170.478c-1.699,0.394 -3.461,0.197 -5.035,-0.558c-2.224,-1.067 -3.933,-3.151 -4.728,-5.466c-0.877,-2.552 -0.768,-5.494 0.444,-7.922c0.772,-1.547 2.067,-2.989 3.737,-3.556c-0.651,0.572 -1.322,1.164 -1.856,1.85c-1.448,1.863 -1.981,4.644 -1.698,6.948c0.309,2.504 1.595,4.894 3.599,6.445c2.118,1.638 4.472,2.034 7.065,1.689c-0.504,0.214 -1.007,0.401 -1.528,0.57Z" style="fill-rule:nonzero;"/>
    <path d="M238.544,154.675c-0.362,0.02 -0.477,0.045 -0.794,-0.118c-0.033,-0.299 -0.004,-0.326 0.13,-0.58c0.874,-0.498 2.186,-0.605 3.174,-0.801c0.443,-0.013 0.454,-0.044 0.781,0.25c0.038,0.174 0.092,0.202 -0.018,0.359c-0.41,0.582 -2.567,0.768 -3.273,0.89Z" style="fill-rule:nonzero;"/>
    <path d="M176.482,154.729c-1.011,0.084 -2.798,-0.132 -3.681,-0.624c-0.213,-0.317 -0.166,-0.423 -0.153,-0.796c1.052,0.015 2.86,0.061 3.749,0.657c0.161,0.314 0.119,0.419 0.085,0.763Z" style="fill-rule:nonzero;"/>
    <path d="M233.588,156.182c2.289,-0.409 4.697,-0.548 7.01,-0.803c0.583,-0.066 1.156,-0.112 1.714,0.117c0.353,0.146 0.576,0.34 0.709,0.697c-0.005,0.215 -0.029,0.379 -0.16,0.557c-0.862,1.163 -5.294,1.224 -6.86,1.423c-0.706,0.061 -1.414,0.16 -2.119,0.242c-0.111,-0.742 -0.198,-1.489 -0.294,-2.233Z" style="fill-rule:nonzero;"/>
    <path d="M135.118,156.738c-1.574,0.189 -13.066,1.859 -13.721,1.654c-0.292,-0.092 -0.54,-0.271 -0.672,-0.551c-0.123,-0.262 -0.109,-0.557 -0.005,-0.823c0.158,-0.404 0.468,-0.561 0.843,-0.729c3.835,0.108 7.681,0.132 11.517,0.16c1.571,0.012 3.163,-0.133 4.729,-0.007c-0.893,0.121 -1.795,0.2 -2.691,0.296Z" style="fill-rule:nonzero;"/>
    <path d="M176.108,157.766c-0.963,0.011 -2.859,0.298 -3.658,-0.226c-0.146,-0.307 -0.138,-0.356 -0.089,-0.696c0.987,-0.027 2.871,-0.318 3.681,0.241c0.149,0.297 0.112,0.361 0.066,0.681Z" style="fill-rule:nonzero;"/>
    <path d="M241.91,159.762c-0.868,-0.037 -2.646,0.34 -3.309,-0.207c-0.109,-0.338 -0.066,-0.403 0.038,-0.749c1.028,-0.021 2.694,-0.247 3.659,0.108c0.028,0.157 0.071,0.334 0.023,0.49c-0.075,0.24 -0.204,0.254 -0.411,0.358Z" style="fill-rule:nonzero;"/>
    <path d="M174.773,161.132c-0.821,0.038 -2.084,0.231 -2.79,-0.246c-0.019,-0.123 -0.075,-0.216 0.015,-0.317c0.31,-0.348 0.681,-0.346 1.107,-0.342c0.864,-0.031 2.437,-0.288 3.152,0.218c0.061,0.28 0.025,0.274 -0.121,0.506c-0.41,0.236 -0.902,0.178 -1.363,0.181Z" style="fill-rule:nonzero;"/>
    <path d="M282.845,164.483c-0.052,0.088 -0.081,0.177 -0.173,0.227c-0.194,0.106 -0.366,0.154 -0.588,0.128c-1.507,-0.176 -3.963,-1.039 -5.542,-1.456c-3.321,-0.875 -6.689,-1.628 -9.984,-2.587c0.024,-0 0.049,-0.001 0.075,-0.001c2.203,0.021 4.541,0.467 6.735,0.709c2.855,0.316 5.925,0.455 8.728,1.068c0.316,0.069 0.666,0.156 0.895,0.401c0.202,0.219 0.325,0.523 0.29,0.825c-0.042,0.371 -0.168,0.466 -0.436,0.686Z" style="fill-rule:nonzero;"/>
    <path d="M172.503,165.264c-0.096,-0.018 -0.187,-0.033 -0.277,-0.075c-0.306,-0.142 -0.532,-0.559 -0.606,-0.873c-0.08,-0.341 -0.029,-0.659 0.182,-0.942c0.215,-0.288 0.553,-0.467 0.891,-0.572c0.59,-0.183 1.253,-0.171 1.866,-0.264c1.571,-0.24 3.131,-0.515 4.709,-0.712c0.255,-0.029 0.279,-0.059 0.5,0.09c0.239,0.668 0.242,1.475 0.352,2.179c-2.543,0.369 -5.083,0.74 -7.617,1.169Z" style="fill-rule:nonzero;"/>
    <path d="M241.998,163.063c-0.945,-0.073 -2.744,0.033 -3.488,-0.559c-0.144,-0.328 -0.109,-0.369 -0.017,-0.723c0.818,-0.002 1.651,0.011 2.468,0.081c0.498,0.043 1.012,0.074 1.347,0.474c-0.011,0.34 -0.099,0.466 -0.31,0.727Z" style="fill-rule:nonzero;"/>
    <path d="M241.886,166.243c-1.119,-0.194 -2.742,-0.232 -3.698,-0.852c-0.199,-0.325 -0.15,-0.374 -0.085,-0.757c0.935,-0.008 3.141,0.154 3.833,0.797c0.105,0.309 0.036,0.505 -0.05,0.812Z" style="fill-rule:nonzero;"/>
    <path d="M140.09,165.768l0.112,-0.034l-0.112,0.034Z" style="fill-rule:nonzero;"/>
    <path d="M122.808,171.059c-0.096,-0.166 -0.195,-0.348 -0.238,-0.536c-0.07,-0.312 -0.014,-0.655 0.171,-0.916c0.157,-0.225 0.351,-0.327 0.607,-0.409c0.825,-0.264 1.743,-0.392 2.592,-0.571l5.757,-1.166c2.785,-0.548 5.592,-1.271 8.393,-1.693c-1.322,0.647 -2.965,0.992 -4.366,1.475l-10.65,3.664c-0.872,0.291 -1.393,0.588 -2.266,0.152Z" style="fill-rule:nonzero;"/>
    <path d="M173.434,167.94c-0.193,0.028 -0.386,0.016 -0.58,0.011c-0.217,-0.186 -0.256,-0.212 -0.345,-0.498c0.429,-0.627 2.608,-0.878 3.386,-1.051c0.141,-0.021 0.288,-0.049 0.431,-0.021c0.241,0.047 0.272,0.165 0.408,0.351l-0.072,0.252c-0.672,0.61 -2.324,0.761 -3.228,0.956Z" style="fill-rule:nonzero;"/>
    <path d="M241.428,169.37c-0.955,0.114 -2.973,-0.499 -3.777,-1.049c-0.193,-0.326 -0.143,-0.436 -0.115,-0.805c1.129,0.108 2.877,0.381 3.813,1.047c0.193,0.34 0.141,0.413 0.079,0.807Z" style="fill-rule:nonzero;"/>
    <path d="M173.792,171.356c-0.292,-0.1 -0.443,-0.121 -0.653,-0.354c0.015,-0.046 0.025,-0.093 0.044,-0.137c0.287,-0.658 3.14,-1.286 3.831,-1.487c0.257,0.108 0.354,0.188 0.531,0.402l-0.076,0.224c-0.74,0.738 -2.646,1.057 -3.677,1.352Z" style="fill-rule:nonzero;"/>
    <path d="M264.103,170.422l-0.189,-0.108l0.189,0.108Z" style="fill-rule:nonzero;"/>
    <path d="M264.103,170.422c0.894,0.1 14.837,4.415 15.126,4.742c0.225,0.256 0.36,0.607 0.3,0.949c-0.055,0.316 -0.202,0.49 -0.463,0.663c-0.153,0.251 -0.21,0.247 -0.474,0.354c-0.85,0.019 -12.665,-5.853 -14.489,-6.708Z" style="fill-rule:nonzero;"/>
    <path d="M240.402,172.52c-0.804,0.024 -2.937,-0.782 -3.508,-1.347c-0.214,-0.212 -0.144,-0.425 -0.14,-0.704c0.03,-0 0.059,-0.001 0.088,-0.001c0.863,0.01 2.922,0.581 3.485,1.26c0.202,0.245 0.11,0.505 0.075,0.792Z" style="fill-rule:nonzero;"/>
    <path d="M232.077,173.107l0.812,-1.988c1.246,0.411 6.772,2.535 7.392,3.299c0.182,0.226 0.265,0.475 0.213,0.764c-0.087,0.487 -0.411,0.735 -0.793,0.991c-1.235,-0.066 -6.24,-2.422 -7.624,-3.066Z" style="fill-rule:nonzero;"/>
    <path d="M174.846,174.443c-0.122,0.013 -0.24,-0.011 -0.361,-0.025c-0.18,-0.244 -0.237,-0.263 -0.221,-0.577c0.677,-0.795 2.71,-1.186 3.711,-1.6c0.17,-0.009 0.314,0.035 0.479,0.073c0.159,0.233 0.168,0.232 0.146,0.511c-0.612,0.777 -2.781,1.255 -3.754,1.618Z" style="fill-rule:nonzero;"/>
    <path d="M176.197,177.448c-0.279,-0.067 -0.387,-0.133 -0.581,-0.342l0.01,-0.249c0.621,-0.832 2.573,-1.427 3.561,-1.853c0.205,-0.002 0.283,0.076 0.441,0.192c0.052,0.149 0.126,0.233 0.06,0.386c-0.264,0.615 -2.837,1.567 -3.491,1.866Z" style="fill-rule:nonzero;"/>
    <path d="M127.009,183.417c-0.137,-0.16 -0.24,-0.305 -0.322,-0.502c-0.121,-0.293 -0.175,-0.626 -0.039,-0.925c0.128,-0.28 0.352,-0.407 0.611,-0.547c1.604,-0.867 3.475,-1.475 5.169,-2.162l9.899,-4.029l0.08,0.048c-0.038,0.056 -0.05,0.081 -0.109,0.127c-0.828,0.651 -3.565,1.976 -4.673,2.603l-5.994,3.433c-1.125,0.645 -2.272,1.394 -3.469,1.895c-0.428,0.179 -0.708,0.165 -1.153,0.059Z" style="fill-rule:nonzero;"/>
    <path d="M237.737,178.585c-1.004,-0.512 -2.727,-1.174 -3.362,-2.1c-0.054,-0.364 0.01,-0.411 0.194,-0.739c1.051,0.366 2.607,1.191 3.309,2.073c0.078,0.361 0.003,0.436 -0.141,0.766Z" style="fill-rule:nonzero;"/>
    <path d="M179.804,182.788c-0.177,0.036 -0.375,0.083 -0.557,0.066c-0.292,-0.028 -0.595,-0.281 -0.769,-0.503c-0.194,-0.247 -0.269,-0.509 -0.21,-0.819c0.221,-1.164 5.564,-4.794 6.796,-5.626c0.01,0.001 0.02,-0 0.03,0.003c0.539,0.163 1.259,1.334 1.635,1.815c-2.255,1.733 -4.533,3.522 -6.925,5.064Z" style="fill-rule:nonzero;"/>
    <path d="M177.71,180.113c-0.038,-0.006 -0.076,-0.009 -0.113,-0.018c-0.254,-0.061 -0.307,-0.122 -0.426,-0.346c0.277,-0.79 2.856,-2.03 3.592,-2.465c0.288,0.08 0.333,0.116 0.537,0.316l-0.005,0.259c-0.567,0.896 -2.604,1.855 -3.585,2.254Z" style="fill-rule:nonzero;"/>
    <path d="M236.163,181.357c-0.127,0.008 -0.241,0.004 -0.359,-0.05c-0.644,-0.294 -2.737,-1.693 -2.982,-2.339c-0.09,-0.237 0.053,-0.455 0.136,-0.677c0.797,0.125 2.83,1.661 3.454,2.257c0.037,0.342 -0.1,0.512 -0.249,0.809Z" style="fill-rule:nonzero;"/>
    <path d="M258.836,178.702l-0.2,-0.12l0.2,0.12Z" style="fill-rule:nonzero;"/>
    <path d="M258.836,178.702l0.119,0.105l-0.119,-0.105Z" style="fill-rule:nonzero;"/>
    <path d="M258.955,178.807c0.91,0.191 13.804,7.487 14.128,8.023c0.161,0.265 0.21,0.567 0.113,0.862c-0.095,0.289 -0.204,0.422 -0.462,0.585c-0.165,0.216 -0.247,0.304 -0.527,0.345c-0.211,0.031 -0.456,-0.015 -0.64,-0.119c-1.386,-0.781 -2.736,-2.063 -4.001,-3.049c-2.862,-2.227 -5.712,-4.468 -8.611,-6.647Z" style="fill-rule:nonzero;"/>
    <path d="M234.344,184.054c-0.141,0.029 -0.217,0.06 -0.36,0.026c-0.511,-0.118 -2.676,-2.048 -2.91,-2.453c-0.145,-0.25 -0.04,-0.426 0.025,-0.685c0.177,0.007 0.374,0.012 0.539,0.087c0.662,0.3 2.685,1.837 2.88,2.497c0.057,0.192 -0.086,0.356 -0.174,0.528Z" style="fill-rule:nonzero;"/>
    <path d="M223.61,182.729c0.553,-0.446 1.064,-0.913 1.567,-1.414c0.932,0.876 4.875,5.37 5.205,6.289c0.097,0.27 0.077,0.595 -0.065,0.846c-0.247,0.437 -0.686,0.581 -1.139,0.698c-1.455,-0.827 -4.31,-4.906 -5.568,-6.419Z" style="fill-rule:nonzero;"/>
    <path d="M181.552,185.676c-0.273,-0.167 -0.459,-0.283 -0.631,-0.557c0.119,-0.396 2.977,-3.101 3.472,-3.49c0.24,0.159 0.358,0.274 0.504,0.523c-0.09,0.733 -2.68,2.931 -3.345,3.524Z" style="fill-rule:nonzero;"/>
    <path d="M231.927,186.823c-0.143,0.025 -0.235,0.037 -0.381,0.005c-0.382,-0.084 -2.215,-2.301 -2.485,-2.758c-0.197,-0.334 -0.105,-0.495 -0.009,-0.841c0.124,0.01 0.248,0.02 0.367,0.06c0.656,0.224 2.488,2.282 2.707,2.902c0.091,0.258 -0.075,0.414 -0.199,0.632Z" style="fill-rule:nonzero;"/>
    <path d="M147.534,183.999l0.111,-0.095l-0.111,0.095Z" style="fill-rule:nonzero;"/>
    <path d="M183.84,187.802c-0.202,-0.187 -0.373,-0.398 -0.55,-0.608c0.062,-0.653 2.376,-2.814 2.902,-3.354c0.073,0.036 0.094,0.043 0.168,0.095c0.268,0.189 0.284,0.253 0.324,0.559c-0.399,1.166 -1.941,2.483 -2.844,3.308Z" style="fill-rule:nonzero;"/>
    <path d="M147.358,184.134l0.176,-0.135l-0.176,0.135Z" style="fill-rule:nonzero;"/>
    <path d="M147.122,184.269l0.236,-0.135l-0.236,0.135Z" style="fill-rule:nonzero;"/>
    <path d="M147.086,184.314l0.036,-0.045l-0.036,0.045Z" style="fill-rule:nonzero;"/>
    <path d="M133.577,194.502c-0.045,-0.075 -0.089,-0.151 -0.126,-0.231c-0.15,-0.326 -0.204,-0.684 -0.071,-1.023c0.11,-0.283 0.338,-0.463 0.572,-0.642c2.595,-1.989 5.608,-3.658 8.384,-5.402c1.488,-0.935 3.136,-2.222 4.75,-2.89c-0.069,0.097 -11.82,10.142 -12.243,10.347c-0.434,0.21 -0.854,0.001 -1.266,-0.159Z" style="fill-rule:nonzero;"/>
    <path d="M186.909,190.385c-0.292,-0.185 -0.496,-0.262 -0.651,-0.586c0.387,-1.22 1.747,-2.65 2.527,-3.696c0.282,0.14 0.382,0.164 0.554,0.435c0.003,1.045 -1.802,3.005 -2.43,3.847Z" style="fill-rule:nonzero;"/>
    <path d="M196.285,195.458c-0.413,0.126 -0.943,0.185 -1.346,-0.005c-0.229,-0.108 -0.367,-0.265 -0.458,-0.495c-0.328,-0.833 2.452,-7.172 2.98,-8.503c0.723,0.196 1.441,0.556 2.136,0.841c-0.547,1.795 -2.361,6.583 -3.312,8.162Z" style="fill-rule:nonzero;"/>
    <path d="M227.069,191.147c-0.093,-0.028 -0.115,-0.028 -0.19,-0.07c-0.61,-0.34 -2.258,-2.71 -2.395,-3.38c-0.059,-0.286 0.128,-0.462 0.272,-0.692c0.025,0.007 0.05,0.013 0.075,0.022c0.675,0.252 2.309,2.753 2.681,3.469c-0.041,0.295 -0.245,0.438 -0.443,0.651Z" style="fill-rule:nonzero;"/>
    <path d="M189.578,191.975c-0.133,-0.005 -0.246,-0.003 -0.37,-0.057c-0.235,-0.101 -0.226,-0.16 -0.323,-0.386c0.099,-0.933 1.597,-2.803 2.148,-3.687c0.136,0.003 0.254,0.002 0.384,0.047c0.251,0.087 0.233,0.127 0.34,0.359c-0.119,1.156 -1.527,2.74 -2.179,3.724Z" style="fill-rule:nonzero;"/>
    <path d="M211.186,188.758l1.533,-0.378c0.172,-0.022 0.349,-0.022 0.522,-0.029l0.146,0.143c0.192,1.126 1.535,7.17 1.167,7.745c-0.283,0.442 -0.668,0.499 -1.145,0.596c-0.156,-0.065 -0.326,-0.134 -0.463,-0.235c-0.774,-0.569 -1.563,-6.542 -1.76,-7.842Z" style="fill-rule:nonzero;"/>
    <path d="M223.95,193.159c-0.116,-0.021 -0.207,-0.047 -0.311,-0.108c-0.437,-0.253 -1.847,-3.076 -1.931,-3.551c-0.053,-0.298 0.087,-0.408 0.243,-0.641l0.366,0.047c0.649,0.523 1.809,2.814 1.917,3.629c0.039,0.289 -0.123,0.408 -0.284,0.624Z" style="fill-rule:nonzero;"/>
    <path d="M192.843,194.004c-0.327,-0.127 -0.557,-0.174 -0.79,-0.451c0.384,-1.384 1.291,-2.836 1.925,-4.136c0.09,0.015 0.192,0.027 0.278,0.061c0.269,0.104 0.301,0.204 0.407,0.447c-0.056,1.279 -1.182,2.971 -1.82,4.079Z" style="fill-rule:nonzero;"/>
    <path d="M220.599,194.671l-0.285,-0.107c-0.656,-0.684 -1.243,-2.66 -1.444,-3.599c-0.077,-0.361 -0.024,-0.411 0.162,-0.712l0.413,0.09c0.633,0.601 1.363,2.779 1.465,3.606c0.044,0.352 -0.105,0.466 -0.311,0.722Z" style="fill-rule:nonzero;"/>
    <path d="M217.25,195.845c-0.185,-0.034 -0.348,-0.099 -0.523,-0.168c-0.331,-0.44 -0.488,-1.038 -0.646,-1.562c-0.237,-0.79 -0.669,-1.976 -0.268,-2.717c0.16,0.035 0.309,0.09 0.463,0.144c0.323,0.45 0.487,1.072 0.651,1.598c0.236,0.76 0.703,1.983 0.323,2.705Z" style="fill-rule:nonzero;"/>
    <path d="M199.115,196.265c-0.299,-0.03 -0.516,-0.078 -0.784,-0.216c-0.23,-0.578 0.723,-3.74 0.943,-4.505c0.11,0.007 0.228,0.011 0.337,0.032c0.292,0.058 0.317,0.135 0.46,0.372c0.15,1.376 -0.541,3.009 -0.956,4.317Z" style="fill-rule:nonzero;"/>
    <path d="M202.716,197.071c-0.297,-0.076 -0.46,-0.14 -0.689,-0.346c-0.09,-0.807 0.304,-4.038 0.722,-4.632c0.115,0.033 0.255,0.066 0.355,0.131c0.198,0.126 0.247,0.301 0.281,0.517c0.149,0.956 -0.113,3.571 -0.669,4.33Z" style="fill-rule:nonzero;"/>
    <path d="M153.004,192.59l0.049,-0.057l-0.049,0.057Z" style="fill-rule:nonzero;"/>
    <path d="M210.513,197.037c-0.071,-0.012 -0.158,-0.025 -0.225,-0.046c-0.213,-0.068 -0.299,-0.116 -0.391,-0.326c-0.288,-0.664 -0.536,-3.534 -0.333,-4.201c0.209,0.005 0.413,0.041 0.619,0.073c0.352,0.334 0.411,0.939 0.474,1.4c0.098,0.72 0.288,2.532 -0.144,3.1Z" style="fill-rule:nonzero;"/>
    <path d="M142.016,204.876c-0.141,-0.366 -0.275,-0.699 -0.23,-1.098c0.086,-0.753 10.186,-10.348 11.218,-11.188c-0.601,1.121 -2.332,2.927 -3.198,4.044c-2.025,2.612 -3.915,5.355 -6.021,7.901c-0.162,0.196 -0.34,0.398 -0.585,0.487c-0.403,0.146 -0.807,0.002 -1.184,-0.146Z" style="fill-rule:nonzero;"/>
    <path d="M206.583,197.405c-0.336,-0.068 -0.445,-0.056 -0.693,-0.304c-0.479,-1.182 -0.16,-3.305 -0.004,-4.565c0.164,0.01 0.344,0.012 0.503,0.05c0.151,0.035 0.301,0.101 0.368,0.243c0.235,0.494 0.038,4.016 -0.174,4.576Z" style="fill-rule:nonzero;"/>
  </g>
  <path d="M134.468,369.933c0.05,-0.35 0.05,-0.7 0.05,-1c-0,-1.1 -0.25,-1.6 -0.5,-1.8c-0.15,-0.1 -0.4,-0.15 -0.7,-0.2c-0.35,-0.05 -0.75,-0.05 -1.2,-0.05l-0.2,0c-0.9,0 -1.3,0.5 -1.3,1.45c-0,0.25 0.05,0.5 0.1,0.75c0.1,1.25 0.3,4.85 0.3,7l-0,1.05c-0.15,1.9 -0.95,2.65 -2.2,2.65c-1,0 -3.8,-0.4 -5.2,-0.4c-0.85,0 -2.6,0.05 -4.3,0.05c-0.85,0 -1.65,0 -2.35,-0.05c-1.35,-0.1 -2.15,-0.35 -2.4,-1.05c-0.2,-0.25 -0.2,-0.6 -0.2,-0.85c0.05,-0.25 0.1,-0.55 0.1,-0.9c-0,-1.25 0.15,-5.15 0.3,-7.3l-0,-0.55c-0,-1.45 -0.4,-1.75 -2.2,-1.85l-0.2,0c-1.05,0 -1.35,0.5 -1.35,1.8c-0,0.45 0.05,1.05 0.05,1.75c0.2,2.55 0.2,11.85 0.2,13.5c-0,1.65 -0.2,8.35 -0.3,10.95c-0,0.35 -0.05,0.6 -0.05,0.85c-0,1.6 0.4,1.65 2.3,1.65c1.1,0 1.35,-0.3 1.45,-0.65c0.05,-0.25 0.05,-0.55 0.05,-0.9l-0.15,-1.2c-0.25,-1.65 -0.25,-8.05 -0.25,-9.7c-0,-1.9 0.6,-2.6 2.75,-2.6c2,0 9.6,-0.05 11.85,-0.05c1.1,0 1.8,0.1 2.05,0.65c0.1,0.2 0.1,0.45 0.1,0.65l-0,1.25c-0,0.55 -0,1.4 -0.05,2.1l-0,0.15c-0.05,0.5 -0.1,0.95 -0.1,1.25c-0.05,0.45 -0.05,0.75 -0.05,0.8c0.05,0.2 0.05,0.65 0.05,1.2c-0,1.3 -0.1,3.3 -0.1,4.85l-0,0.65c-0,1.5 0.35,1.75 2.3,1.75c0.95,0 1.2,-0.4 1.2,-1.1l-0,-0.25c-0,-0.35 -0,-0.7 -0.05,-1.1c-0.1,-0.5 -0.2,-1.05 -0.2,-1.5c-0.1,-1.85 -0.1,-9.1 -0.1,-11.8c-0,-2.75 0.2,-8.05 0.5,-11.9Z" style="fill-rule:nonzero;"/>
  <path d="M161.218,387.283c-0,-0.05 0.05,-0.1 0.05,-0.2c-0,-0.05 -0.05,-0.2 -0.05,-0.35l-0.2,-1.05c-0.35,-1.6 -2.1,-4.25 -3.4,-5.8c-1.3,-1.4 -3.8,-2.25 -5.9,-2.35l-0.55,0c-2.15,0 -3.85,1.05 -5.6,2.2l-0.4,0.25c-1.9,1.15 -3.25,4.95 -3.35,7.95l-0,0.15c-0,2.85 2.15,6 3.85,7.9c1.65,1.75 5.05,1.8 6.75,1.8c1.6,0 2.9,-0.4 3.75,-0.85c0.35,-0.2 0.85,-0.6 1.45,-1.1c0.55,-0.5 1.15,-1 1.8,-1.5c0.5,-0.35 0.75,-0.75 0.75,-1.15c-0,-0.45 -0.25,-0.9 -1,-1.5c-0.25,-0.2 -0.5,-0.3 -0.65,-0.3c-0.25,0 -0.4,0.15 -0.6,0.3c-0.35,0.4 -0.6,0.9 -0.8,1.4c-0.4,0.9 -2.4,1.9 -4.9,1.9l-0.4,0c-1.65,-0.05 -3.05,-0.55 -4.3,-1.55l-0.75,-0.6c-0.8,-0.7 -1.6,-2.7 -1.6,-3.95l-0,-0.35c0.15,-0.6 1.35,-0.95 2.85,-1c1.25,0 2.65,0.05 3.4,0.05c1.05,0 3.95,0.05 6.2,0.05c1.15,0 2.15,0 2.7,-0.05c0.85,0 0.9,-0.2 0.9,-0.3Zm-3.55,-3.3c0.15,0.25 0.2,0.45 0.2,0.65c-0,0.55 -0.45,0.9 -1.35,0.9c-1.95,0 -4.1,0.05 -4.95,0.05c-0.9,0 -3.55,-0.05 -4.1,-0.2c-0.55,-0.05 -1.75,-0.7 -1.75,-1.6c-0,-0.3 0.1,-0.6 0.35,-0.9c0.8,-1.1 3,-2.6 5.6,-2.6l0.2,0c2.35,0.1 3.15,0.8 4.3,1.9c0.5,0.5 1.2,1.15 1.5,1.8Z" style="fill-rule:nonzero;"/>
  <path d="M184.768,379.333c0.15,-0.25 0.2,-0.4 0.2,-0.5c-0,-0.2 -0.15,-0.25 -0.3,-0.3c-0.2,-0.1 -0.5,-0.15 -0.8,-0.2l-0.75,-0.05c-0.15,0 -0.4,-0.05 -0.6,-0.05c-0.45,0 -0.9,0.1 -0.95,0.45c-0.1,0.9 -1.55,4.15 -2.1,5.35c-0.55,1.15 -1.75,4.15 -2.15,5.3c-0.4,1.3 -1.1,3 -2.2,3.3c-0.15,0.05 -0.3,0.1 -0.4,0.1c-0.5,0 -0.8,-0.35 -1,-0.8c-0,-0.2 -0.1,-0.45 -0.15,-0.75c-0.05,-0.25 -0.1,-0.55 -0.15,-0.8c-0.15,-0.55 -0.45,-1.1 -0.8,-1.85c-0.4,-0.7 -0.8,-1.5 -1.15,-2.4c-0.7,-1.8 -1.85,-4.4 -2.5,-6.3c-0.65,-1.6 -1.15,-1.7 -2.8,-1.85l-0.35,0c-0.75,0 -1.05,0.3 -1.05,0.65c-0,0.7 0.7,1.6 1.05,1.95c0.45,0.5 1,1.6 1.6,2.7c0.55,1.1 1.2,2.3 1.8,3.25c0.25,0.5 0.55,1.05 0.8,1.65l0.7,1.8c0.5,1.2 0.95,2.35 1.65,3.15c0.9,1.1 1.25,2.15 1.25,3l-0,0.2c-0,0.55 -0.15,1.05 -0.3,1.4c-0.4,0.65 -0.95,1.6 -1.55,3.35c-0.3,0.9 -0.8,1.75 -1.25,2.5c-0.45,0.75 -0.9,1.45 -1.3,2.25c-0.15,0.25 -0.25,0.5 -0.25,0.6c-0,0.6 0.75,0.6 2,0.7c0.1,0 0.25,0.05 0.35,0.05c0.6,0 0.85,-0.2 1,-0.4c0.15,-0.2 0.25,-0.4 0.35,-0.7l0.35,-1c0.3,-0.75 0.55,-1.5 0.8,-2.2c0.3,-0.75 0.6,-1.5 1,-2.25c0.8,-1.5 2.15,-5.55 3.15,-7.45c0.95,-1.85 2.25,-5.05 3,-6.6c0.75,-1.55 2.85,-5.6 3.8,-7.25Z" style="fill-rule:nonzero;"/>
  <path d="M194.818,369.383l-0,-0.55c-0,-0.95 -0.2,-1.25 -0.35,-1.45c-0.1,-0.1 -0.25,-0.15 -0.45,-0.2l-0.8,-0.1l-0.55,0c-1,0 -1.25,0.35 -1.25,1.2c-0,0.3 0.05,0.6 0.1,1c0.2,1.8 0.3,7.05 0.4,9.4l-0,1.4c-0,2.8 -0.1,7.45 -0.2,9l-0,0.2c-0,1.15 0.65,1.2 1.45,1.2l0.2,0c0.9,0 1,-0.15 1,-1.15l-0,-10.55c0.15,-3.45 0.25,-6.65 0.45,-9.4Zm0.65,25.7c-0,-1.5 -0.75,-2 -2.35,-2l-0.15,0c-1.7,0.1 -2.35,0.9 -2.35,2.05l-0,0.2c0.1,1.4 1.1,2.4 2.55,2.4c1.4,0 2.3,-0.95 2.3,-2.65Z" style="fill-rule:nonzero;"/>
  <path d="M234.968,388.383l-0,-0.15c-0,-3.05 -2.05,-4.95 -2.85,-5.4c-0.5,-0.25 -1.15,-0.5 -1.65,-0.8c-0.55,-0.35 -1.05,-0.75 -1.05,-1.2c-0,-0.85 0.55,-1.55 1.55,-2.15c0.85,-0.5 1.95,-1.25 1.95,-4.1l-0,-0.6c-0,-3.25 -3.35,-5.2 -5.1,-6c-1.65,-0.7 -6.65,-0.9 -9.7,-0.9c-1.45,0 -1.55,0.35 -1.6,0.65c-0,0.25 0.05,0.6 0.15,1c0.05,0.45 0.2,0.9 0.2,1.4c0.05,0.65 0.05,1.95 0.05,3.55c-0,3.25 -0.05,7.65 -0.05,9.9c-0,3.5 -0.2,10.4 -0.3,11.75l-0,0.5c-0,1.05 0.2,1.25 0.7,1.25l0.4,0c0.45,-0.05 1.05,-0.05 1.8,-0.05c1.45,0 3.5,0.05 5.7,0.05c3.15,0 5.5,-0.75 7.05,-1.9c1.5,-1.05 2.7,-3.55 2.75,-6.8Zm-5.65,-15.8c0.6,1.1 0.95,2.2 0.95,3.15c-0,1 -0.4,1.9 -1.45,2.65c-1.65,1.2 -3.45,1.95 -5.25,1.95l-0.65,0l-1.25,-0.15c-0.4,-0.1 -0.75,-0.15 -1.1,-0.3c-0.65,-0.3 -1,-0.85 -1,-1.75l-0,-0.3c0.1,-1.85 0.3,-4.35 0.3,-5.35l-0,-0.5c-0,-0.35 0.05,-0.65 0.25,-0.95c0.3,-0.45 0.95,-0.65 2,-0.65l0.3,0c0.8,0.05 2.2,-0.05 3.5,0.2c1.3,0.2 2.75,0.7 3.4,2Zm2.7,15.45l-0,0.4c-0,5.25 -4.4,5.5 -7.15,5.75l-1.7,0.15l-0.9,0c-1.45,0 -2.85,-0.35 -2.9,-2.5c-0.05,-1 -0.05,-2.1 -0.05,-3.15c-0,-1.65 0.05,-3.15 0.15,-3.8c0.2,-1.05 1.1,-2.05 2.95,-2.05c0.2,0 0.4,0.05 0.6,0.05c0.55,0.1 1.35,0.1 2.3,0.2c0.9,0.15 2,0.3 3.05,0.65c1.85,0.6 3.65,1.85 3.65,4.3Z" style="fill-rule:nonzero;"/>
  <path d="M259.868,388.133l-0,-0.25c-0,-3.4 -1.6,-5.95 -3.1,-7.55c-1.5,-1.55 -3.95,-2.8 -6.75,-2.9l-0.25,0c-4.55,0 -6.55,1.9 -8,3.4c-1.5,1.5 -2.65,3.75 -2.65,6.95c-0,3.2 1.9,6.3 3.45,7.7c1.5,1.35 3.75,2.35 6.65,2.35l0.3,0c3.1,-0.1 5.5,-0.5 7.65,-2.8c2.15,-2.4 2.7,-3.25 2.7,-6.9Zm-2.85,-0.55c-0,1.9 -0.7,4.5 -1.95,5.45c-0.3,0.15 -0.6,0.4 -1,0.65c-1.25,0.85 -2.65,1.5 -4.15,1.5c-0.2,0 -0.4,0 -0.65,-0.05c-2.4,-0.3 -3.55,-0.8 -5,-2.5c-1.45,-1.6 -1.9,-2.9 -1.9,-4.95c-0,-2 0.35,-3.9 2.35,-5.4c1.95,-1.45 3.5,-1.65 5.1,-1.65c2.55,0 4.4,0.7 5.45,2.55c0.5,0.85 0.95,1.4 1.25,2.05c0.25,0.65 0.5,1.35 0.5,2.35Z" style="fill-rule:nonzero;"/>
  <path d="M285.318,386.683l-0,-0.2c-0,-1.9 -1.05,-4.2 -2.55,-6.15c-1.45,-1.9 -4.5,-2.7 -6.7,-2.75l-0.2,0c-2,0 -3.9,1.2 -4.85,2.35c-0.55,0.65 -0.95,0.9 -1.3,0.9c-0.65,0 -1,-0.95 -1,-1.65c-0,-0.4 -0.05,-1.1 -0.1,-1.85l-0,-0.35c-0,-0.9 0.05,-1.9 0.2,-2.65c0.15,-0.75 0.25,-2.4 0.3,-4.15l0.2,-4.5l-0,-0.15c-0,-0.65 -0.25,-0.8 -0.5,-0.9c-0.2,-0.05 -0.45,-0.05 -0.75,-0.05l-1,0c-0.95,0 -1.55,0.35 -1.7,1.25c-0,0.25 -0.05,0.5 -0.05,0.8c-0,0.2 -0,0.45 0.05,0.7l0.2,1.75c0.25,2.35 0.35,11.85 0.35,14c-0,1.1 0.1,3.6 0.1,6.1c-0,2.5 -0.05,5.1 -0.3,6.2c-0.1,0.35 -0.1,0.6 -0.1,0.85c-0,1 0.65,1.2 1.85,1.2c1.25,0 1.45,-0.2 1.55,-1.85c0.05,-0.8 0.35,-1.1 0.7,-1.1c0.25,0 0.55,0.15 0.85,0.35c0.25,0.25 0.5,0.5 0.75,0.8l0.75,0.85c0.8,0.8 1.75,1.25 4.05,1.25l0.6,0c2.65,-0.1 5.35,-1.9 6.9,-3.75c0.8,-0.9 1.2,-2.15 1.4,-3.55c0.25,-1.35 0.3,-2.75 0.3,-3.75Zm-2.6,0.8c-0,1.7 -0.1,3.1 -1.65,4.8l-1.05,1.05c-0.9,1 -1.9,1.65 -3.2,1.65c-0.15,0 -0.3,0 -0.45,-0.05c-1.75,-0.2 -3.7,-0.4 -5.05,-1.65c-0.7,-0.65 -1.35,-1.2 -1.8,-2c-0.55,-0.85 -0.9,-1.9 -1,-3.45c-0.05,-0.25 -0.05,-0.5 -0.05,-0.75c-0,-2.7 1.15,-3.95 2.65,-5.1c1.7,-1.25 3.25,-1.45 4.75,-1.55c0.25,0 0.6,-0.05 0.85,-0.05c1.65,0 2.9,0.5 4.25,2.45c1.65,2.25 1.75,2.9 1.75,4.65Z" style="fill-rule:nonzero;"/>
  <path d="M295.968,369.383l-0,-0.55c-0,-0.95 -0.2,-1.25 -0.35,-1.45c-0.1,-0.1 -0.25,-0.15 -0.45,-0.2l-0.8,-0.1l-0.55,0c-1,0 -1.25,0.35 -1.25,1.2c-0,0.3 0.05,0.6 0.1,1c0.2,1.8 0.3,7.05 0.4,9.4l-0,1.4c-0,2.8 -0.1,7.45 -0.2,9l-0,0.2c-0,1.15 0.65,1.2 1.45,1.2l0.2,0c0.9,0 1,-0.15 1,-1.15l-0,-10.55c0.15,-3.45 0.25,-6.65 0.45,-9.4Zm0.65,25.7c-0,-1.5 -0.75,-2 -2.35,-2l-0.15,0c-1.7,0.1 -2.35,0.9 -2.35,2.05l-0,0.2c0.1,1.4 1.1,2.4 2.55,2.4c1.4,0 2.3,-0.95 2.3,-2.65Z" style="fill-rule:nonzero;"/>
</svg>
