<?xml version="1.0" encoding="UTF-8" standalone="no"?>
<!DOCTYPE svg PUBLIC "-//W3C//DTD SVG 1.1//EN" "http://www.w3.org/Graphics/SVG/1.1/DTD/svg11.dtd">
<svg width="100%" height="100%" viewBox="0 0 406 529" version="1.1" xmlns="http://www.w3.org/2000/svg" xmlns:xlink="http://www.w3.org/1999/xlink" xml:space="preserve" xmlns:serif="http://www.serif.com/" style="fill-rule:evenodd;clip-rule:evenodd;stroke-linejoin:bevel;">
  <rect id="L6-9" x="0.059" y="0.133" width="405.12" height="528" style="fill:none;"/>
  <clipPath id="_clip1">
    <rect x="0.059" y="0.133" width="405.12" height="528"/>
  </clipPath>
  <g clip-path="url(#_clip1)">
    <g id="staff-top" serif:id="staff top">
      <path d="M0.059,106.933l405.12,0" style="fill:none;fill-rule:nonzero;stroke:#000;stroke-width:1.2px;"/>
      <path d="M0.059,119.533l405.12,0" style="fill:none;fill-rule:nonzero;stroke:#000;stroke-width:1.2px;"/>
      <path d="M0.059,132.133l405.12,0" style="fill:none;fill-rule:nonzero;stroke:#000;stroke-width:1.2px;"/>
      <path d="M0.059,144.733l405.12,0" style="fill:none;fill-rule:nonzero;stroke:#000;stroke-width:1.2px;"/>
      <path d="M0.059,157.333l405.12,0" style="fill:none;fill-rule:nonzero;stroke:#000;stroke-width:1.2px;"/>
    </g>
	  <a href="L6-1.svg">
    <circle id="Link-to-L6-1" serif:id="Link to L6-1" cx="40.571" cy="491.173" r="17.4" style="fill:#dc4263;"/>
	  </a>
    <path d="M208.473,142.589c-0.049,-0.049 -0.154,-0.154 -0.309,-0.358l-5.984,-7.39c-0.057,-0.057 -0.106,-0.211 -0.106,-0.317c0,-0.155 0.049,-0.358 0.106,-0.464l5.301,-8.016c0.057,-0.106 0.106,-0.26 0.106,-0.366l-0,-0.463c-0,-0.155 -0.049,-0.318 -0.155,-0.415l-8.431,-11.399c0,0 -0.203,-0.317 -0.52,-0.317c-0.155,-0 -0.26,-0 -0.415,0.163c-0.211,0.154 -0.26,0.357 -0.26,0.52c0,0.309 0.154,0.569 0.154,0.569l3.96,5.415c0.098,0.154 0.154,0.358 0.154,0.618c0,0.211 -0.056,0.471 -0.154,0.626l-5.26,8.016c-0.049,0.106 -0.106,0.309 -0.106,0.415l-0,0.472c-0,0.154 0.057,0.309 0.163,0.414l5.821,7.236c-0.203,-0.057 -0.675,-0.162 -1.301,-0.162c-2.65,-0 -4.732,2.187 -4.732,4.845c0,0.724 0.155,1.456 0.569,2.025c1.098,1.667 5,6.61 5,6.61c0,-0 0.261,0.317 0.627,0.317c0.097,-0 0.203,-0 0.308,-0.106c0.261,-0.211 0.366,-0.414 0.366,-0.626c0,-0.211 -0.105,-0.366 -0.154,-0.471c-0.163,-0.261 -1.821,-3.277 -1.821,-3.277c-0,0 -0.366,-0.732 -0.366,-1.667c-0,-1.666 1.244,-3.016 2.91,-3.016c0.675,0 1.253,0.211 1.667,0.472l2.033,1.3c-0,0 0.203,0.098 0.414,0.098c0.204,0 0.366,-0.049 0.521,-0.26c0.105,-0.155 0.154,-0.309 0.154,-0.464c0,-0.154 -0.049,-0.26 -0.154,-0.414l-0.106,-0.163" style="fill-rule:nonzero;"/>
	  <a href="START.svg">
    <circle id="Link-to-START" serif:id="Link to START" cx="364.667" cy="491.173" r="17.4" style="fill:#47c6ff;"/>
	  </a>
    <g>
      <path d="M129.581,395.013c-0.083,0.025 -0.176,0.03 -0.233,0.078c-0.052,0.043 -0.106,0.148 -0.087,0.2c0.149,0.411 0.43,0.75 0.851,0.836c0.631,0.13 1.234,-0.061 1.791,-0.376c0.016,-0.009 0.019,-0.074 0.005,-0.1c-0.04,-0.07 -0.077,-0.168 -0.141,-0.193c-0.703,-0.279 -1.442,-0.39 -2.186,-0.445Zm-38.02,-56.742c0.007,0.625 0.211,1.307 0.405,1.988c0.074,0.257 0.303,0.315 0.462,0.121c0.871,-1.068 1.777,-2.108 2.537,-3.261c0.039,-0.059 0.06,-0.175 0.028,-0.225c-0.034,-0.052 -0.149,-0.089 -0.217,-0.076c-0.987,0.193 -1.923,0.553 -2.867,0.887c-0.212,0.075 -0.334,0.239 -0.348,0.566Zm51.164,18.632c-0.066,1.215 0.181,2.459 0.26,3.714c0.007,0.122 0.061,0.242 0.103,0.359c0.011,0.03 0.061,0.048 0.095,0.068c0.08,0.046 0.156,0.024 0.199,-0.073c0.084,-0.191 0.189,-0.38 0.23,-0.581c0.242,-1.191 0.463,-2.388 0.703,-3.579c0.113,-0.563 -0.04,-0.989 -0.557,-1.269c-0.22,-0.12 -0.43,-0.259 -0.649,-0.379c-0.148,-0.082 -0.381,0.03 -0.382,0.182c-0.006,0.503 -0.002,1.006 -0.002,1.558Zm-19.88,46.758c0.161,-0.027 0.333,-0.032 0.49,-0.085c0.954,-0.32 1.906,-0.648 2.855,-0.983c0.198,-0.069 0.296,-0.291 0.249,-0.521c-0.066,-0.329 -0.138,-0.658 -0.225,-0.982c-0.083,-0.303 -0.357,-0.469 -0.688,-0.396c-0.778,0.172 -1.554,0.356 -2.327,0.552c-0.331,0.084 -0.618,0.259 -0.83,0.538c-0.153,0.2 -0.311,0.397 -0.466,0.595c-0.655,0.837 -0.541,0.965 0.437,1.202c0.163,0.04 0.331,0.053 0.505,0.08Zm-8.721,3.751c0.811,-0.121 1.607,-0.199 2.357,-0.488c0.312,-0.121 0.615,-0.267 0.912,-0.421c0.283,-0.147 0.368,-0.462 0.216,-0.753c-0.251,-0.483 -0.51,-0.962 -0.764,-1.443c-0.15,-0.283 -0.329,-0.369 -0.609,-0.283c-1.305,0.397 -2.447,1.086 -3.486,1.955c-0.157,0.131 -0.281,0.308 -0.403,0.477c-0.147,0.201 -0.033,0.519 0.206,0.628c0.506,0.232 1.052,0.256 1.571,0.328Zm8.198,-8.99c0.285,-0.041 0.539,-0.056 0.78,-0.119c0.728,-0.19 1.454,-0.39 2.175,-0.603c1.25,-0.371 1.264,-0.572 0.489,-1.605c-0.025,-0.033 -0.054,-0.064 -0.08,-0.096c-0.309,-0.389 -0.697,-0.586 -1.205,-0.524c-1.245,0.152 -2.492,0.293 -3.737,0.452c-0.158,0.02 -0.314,0.106 -0.454,0.188c-0.055,0.031 -0.087,0.135 -0.093,0.209c-0.006,0.079 0.015,0.169 0.052,0.24c0.38,0.725 1,1.227 1.635,1.706c0.124,0.094 0.308,0.109 0.438,0.152Zm60.166,3.906c-2.312,-0.15 -4.525,0.304 -6.681,1.091c-0.392,0.144 -0.767,0.336 -1.143,0.521c-0.047,0.022 -0.062,0.13 -0.071,0.2c-0.003,0.027 0.045,0.07 0.079,0.092c0.072,0.044 0.145,0.098 0.224,0.114c1.359,0.279 2.719,0.555 4.08,0.825c0.298,0.058 0.574,0.011 0.829,-0.192c0.94,-0.752 2.021,-1.174 3.201,-1.402c0.824,-0.16 1.63,-0.414 2.443,-0.628c0.114,-0.029 0.265,-0.074 0.213,-0.213c-0.035,-0.095 -0.173,-0.184 -0.282,-0.215c-0.201,-0.055 -0.413,-0.081 -0.622,-0.092c-0.756,-0.039 -1.513,-0.068 -2.27,-0.101Zm-38.676,-23.216c-0.082,0.004 -0.219,-0.019 -0.331,0.024c-0.1,0.039 -0.232,0.143 -0.245,0.233c-0.03,0.204 -0.017,0.421 0.017,0.627c0.192,1.174 0.171,2.352 0.069,3.532c-0.036,0.419 -0.067,0.84 -0.087,1.261c-0.011,0.252 -0,0.506 0.009,0.758c0.006,0.17 0.228,0.301 0.367,0.219c0.144,-0.085 0.306,-0.157 0.419,-0.273c1.334,-1.377 2.389,-2.939 3.111,-4.72c0.032,-0.078 0.056,-0.159 0.079,-0.24c0.109,-0.377 -0.03,-0.675 -0.4,-0.807c-0.959,-0.341 -1.956,-0.503 -3.008,-0.614Zm118.337,-45.527c-0.16,-0 -0.202,0.001 -0.245,-0c-0.259,-0.007 -0.412,0.167 -0.326,0.384c0.123,0.313 0.256,0.622 0.389,0.931c0.367,0.853 0.716,1.719 0.889,2.628c0.253,1.333 0.384,1.098 1.384,0.761c0.594,-0.2 1.156,-0.505 1.716,-0.794c0.456,-0.236 0.816,-0.591 1.065,-1.049c0.201,-0.371 0.168,-0.743 -0.103,-1.054c-0.31,-0.356 -0.696,-0.608 -1.12,-0.805c-1.196,-0.555 -2.465,-0.839 -3.649,-1.002Zm-152.427,54.37c-0.985,0.052 -1.878,0.269 -2.704,0.719c-0.144,0.078 -0.272,0.194 -0.384,0.314c-0.041,0.043 -0.05,0.184 -0.014,0.22c0.327,0.324 0.647,0.659 1.006,0.945c0.769,0.614 1.405,1.336 1.821,2.227c0.369,0.792 0.435,0.81 1.376,0.588c0.122,-0.03 0.24,-0.079 0.362,-0.113c0.7,-0.195 1.213,-0.563 1.296,-1.353c0.013,-0.123 0.056,-0.249 0.11,-0.361c0.185,-0.384 0.114,-0.74 -0.121,-1.067c-0.469,-0.652 -1.009,-1.238 -1.624,-1.755c-0.343,-0.287 -0.736,-0.388 -1.124,-0.364Zm-5.271,2.469c-0.049,-0.095 -0.069,-0.191 -0.128,-0.238c-0.196,-0.157 -0.414,-0.286 -0.609,-0.444c-0.406,-0.328 -0.852,-0.321 -1.311,-0.164c-0.197,0.068 -0.384,0.17 -0.568,0.272c-1.107,0.614 -2.12,1.365 -3.097,2.167c-0.065,0.053 -0.146,0.106 -0.176,0.177c-0.062,0.149 -0.13,0.31 -0.131,0.467c-0.002,0.162 0.067,0.327 0.112,0.488c0.414,1.455 0.872,2.899 1.114,4.398c0.041,0.255 0.21,0.35 0.446,0.314c0.689,-0.107 1.245,-0.479 1.802,-0.863c0.324,-0.224 0.562,-0.489 0.695,-0.865c0.283,-0.796 0.65,-1.552 1.14,-2.242c0.206,-0.291 0.281,-0.606 0.258,-0.952c-0.011,-0.168 -0.01,-0.337 -0.03,-0.504c-0.07,-0.603 0.003,-1.171 0.367,-1.682c0.068,-0.095 0.083,-0.229 0.116,-0.329Zm-24.271,-2.778c-0.08,-0.016 -0.132,-0.042 -0.152,-0.027c-0.028,0.022 -0.043,0.074 -0.045,0.115c-0.086,1.773 0.189,3.525 0.317,5.285c0.055,0.754 0.184,1.503 0.279,2.254c0.186,1.464 0.558,2.89 0.926,4.314c0.515,1.995 1.096,3.976 1.97,5.85c0.996,2.138 1.85,4.33 2.612,6.56c0.203,0.596 0.45,1.178 0.682,1.765c0.045,0.115 0.1,0.232 0.174,0.329c0.046,0.06 0.139,0.083 0.211,0.123c0.024,-0.075 0.079,-0.155 0.067,-0.222c-0.409,-2.19 -0.725,-4.397 -1.249,-6.565c-0.307,-1.267 -0.612,-2.534 -0.946,-3.794c-0.247,-0.934 -0.506,-1.867 -0.819,-2.781c-0.532,-1.55 -1.087,-3.094 -1.675,-4.624c-0.697,-1.812 -1.172,-3.684 -1.601,-5.571c-0.195,-0.86 -0.367,-1.727 -0.563,-2.587c-0.035,-0.156 -0.131,-0.298 -0.188,-0.424Zm90.592,-55.481c0.191,-0.79 -0.223,-1.506 -0.843,-2.13c-0.325,-0.328 -0.668,-0.646 -1.041,-0.918c-0.372,-0.271 -0.786,-0.487 -1.192,-0.71c-0.101,-0.054 -0.265,-0.085 -0.356,-0.039c-0.077,0.039 -0.125,0.206 -0.123,0.315c0.007,0.251 0.034,0.506 0.085,0.752c0.217,1.038 0.249,2.092 0.259,3.145c0.021,2.11 -0.105,4.217 -0.446,6.296c-0.36,2.199 -0.652,4.418 -1.338,6.554c-0.05,0.153 -0.041,0.327 -0.05,0.492c-0.001,0.034 0.035,0.084 0.068,0.102c0.031,0.016 0.085,0.012 0.119,-0.005c0.389,-0.185 0.679,-0.492 0.938,-0.822c0.805,-1.03 1.548,-2.103 2.172,-3.254c0.424,-0.783 0.758,-1.594 0.823,-2.501c0.035,-0.503 0.121,-1.003 0.191,-1.503c0.15,-1.084 0.31,-2.167 0.457,-3.251c0.108,-0.792 0.31,-1.574 0.277,-2.523Zm-63.805,67.229c0,0.002 0,0.004 -0.001,0.006c-0.336,-0.02 -0.672,-0.05 -1.009,-0.058c-1.282,-0.029 -3.694,1.005 -4.548,1.949c-0.119,0.132 -0.18,0.307 -0.091,0.465c0.438,0.779 0.954,1.487 1.766,1.931c0.924,0.504 1.838,1.026 2.757,1.539c0.202,0.113 0.432,0.065 0.55,-0.114c0.449,-0.679 0.697,-1.436 0.848,-2.229c0.095,-0.496 0.175,-0.996 0.284,-1.488c0.045,-0.203 0.137,-0.397 0.227,-0.586c0.097,-0.204 0.275,-0.317 0.498,-0.341c0.895,-0.097 1.764,0.084 2.625,0.285c0.42,0.098 0.763,0.359 0.981,0.746c0.185,0.33 0.353,0.669 0.531,1.003c0.072,0.134 0.3,0.212 0.437,0.145c0.833,-0.406 1.643,-0.871 2.504,-1.203c0.633,-0.244 0.957,-0.632 1.058,-1.267c0.027,-0.166 0.079,-0.328 0.115,-0.492c0.074,-0.35 0.032,-0.469 -0.272,-0.609c-0.843,-0.393 -1.689,-0.77 -2.226,-1.599c-0.067,-0.104 -0.309,-0.153 -0.459,-0.137c-0.628,0.069 -1.252,0.173 -1.878,0.263c-0.762,0.11 -1.489,0.288 -1.956,0.989c-0.069,0.102 -0.19,0.167 -0.274,0.26c-0.427,0.472 -0.942,0.686 -1.584,0.595c-0.291,-0.041 -0.588,-0.037 -0.883,-0.053Zm42.212,-49.685c-0.021,1.01 -0.06,2.019 -0.054,3.029c0.003,0.456 0.024,0.926 0.212,1.358c0.018,0.04 0.158,0.072 0.209,0.046c0.285,-0.143 0.382,-0.435 0.507,-0.697c0.905,-1.903 1.718,-3.842 2.242,-5.889c0.281,-1.1 0.526,-2.209 0.803,-3.31c0.54,-2.142 0.591,-4.328 0.624,-6.518c0.005,-0.293 -0.039,-0.587 -0.069,-0.881c-0.112,-1.129 -0.249,-2.257 -0.339,-3.389c-0.223,-2.831 -0.882,-5.562 -1.844,-8.225c-0.142,-0.394 -0.343,-0.767 -0.52,-1.148c-0.211,-0.457 -0.581,-0.719 -1.063,-0.804c-0.704,-0.122 -1.412,-0.224 -2.121,-0.32c-0.206,-0.028 -0.419,-0.012 -0.629,-0.011c-0.096,0.001 -0.217,0.192 -0.181,0.284c0.062,0.155 0.12,0.314 0.197,0.462c1.071,2.07 1.7,4.302 2.314,6.529c0.38,1.376 0.571,2.804 0.553,4.245c-0.022,1.852 -0.012,3.705 -0.079,5.555c-0.045,1.26 -0.133,2.526 -0.319,3.772c-0.293,1.963 -0.402,3.934 -0.443,5.912Zm-12.798,94.849c0.378,-0 0.757,0.008 1.135,-0.004c0.202,-0.006 0.505,0.05 0.558,-0.17c0.066,-0.276 -0.266,-0.245 -0.431,-0.292c-0.85,-0.24 -1.699,-0.499 -2.565,-0.666c-2.484,-0.48 -4.877,-1.311 -7.343,-1.86c-0.164,-0.036 -0.321,-0.1 -0.481,-0.154c-2.232,-0.758 -4.449,-1.555 -6.629,-2.457c-1.831,-0.758 -3.622,-1.591 -5.34,-2.583c-0.656,-0.379 -1.319,-0.748 -1.997,-1.085c-2.189,-1.085 -4.319,-2.278 -6.468,-3.44c-3.116,-1.685 -6.12,-3.543 -9.005,-5.596c-1.802,-1.282 -3.398,-2.761 -4.635,-4.606c-0.188,-0.28 -0.399,-0.543 -0.598,-0.816c-0.678,-0.93 -1.558,-1.644 -2.482,-2.31c-0.033,-0.024 -0.111,-0.045 -0.114,-0.04c-0.035,0.07 -0.103,0.163 -0.081,0.216c0.369,0.901 0.885,1.722 1.461,2.499c0.877,1.185 1.762,2.363 2.681,3.515c1.608,2.015 3.473,3.781 5.407,5.476c0.159,0.138 0.325,0.269 0.494,0.394c1.861,1.381 3.738,2.741 5.733,3.921c3.558,2.105 7.261,3.917 11.134,5.372c0.631,0.236 1.273,0.446 1.891,0.711c1.939,0.834 3.957,1.427 5.979,2.013c0.647,0.187 1.293,0.384 1.951,0.526c3.214,0.696 6.458,1.192 9.745,1.436Zm25.872,-110.675c-0.031,-0.8 -0.027,-1.603 -0.099,-2.4c-0.142,-1.558 -0.414,-3.099 -1.064,-4.533c-0.587,-1.298 -0.665,-1.373 -2.192,-1.862c-0.12,-0.038 -0.248,-0.051 -0.372,-0.075c-0.579,-0.113 -1.158,-0.227 -1.738,-0.338c-0.242,-0.046 -0.531,-0.245 -0.719,-0.058c-0.269,0.265 0.059,0.521 0.157,0.769c0.154,0.391 0.341,0.769 0.517,1.152c0.585,1.272 0.998,2.592 1.176,3.985c0.08,0.626 0.21,1.246 0.314,1.87c0.221,1.331 0.433,2.662 0.43,4.018c-0.002,0.885 0.034,1.771 0.019,2.656c-0.015,0.927 0.01,1.865 -0.123,2.777c-0.23,1.583 -0.545,3.155 -0.868,4.724c-0.305,1.486 -0.808,2.919 -1.257,4.368c-0.615,1.99 -1.483,3.85 -2.536,5.633c-0.856,1.451 -1.728,2.895 -2.62,4.325c-0.981,1.572 -1.929,3.169 -3.139,4.587c-0.163,0.19 -0.29,0.413 -0.41,0.634c-0.05,0.094 -0.093,0.269 -0.044,0.326c0.092,0.107 0.224,0.02 0.316,-0.066c1.108,-1.04 2.151,-2.14 3.069,-3.355c0.253,-0.336 0.516,-0.669 0.803,-0.975c1.298,-1.385 2.627,-2.738 4.026,-4.023c0.62,-0.57 1.212,-1.172 1.816,-1.76c0.729,-0.709 1.314,-1.537 1.925,-2.343c0.281,-0.371 0.329,-0.767 0.082,-1.178c-0.174,-0.288 -0.328,-0.591 -0.53,-0.858c-0.245,-0.325 -0.324,-0.678 -0.294,-1.068c0.028,-0.378 0.025,-0.764 0.103,-1.132c0.2,-0.948 0.409,-1.895 0.665,-2.828c0.447,-1.626 0.97,-3.23 1.39,-4.86c0.685,-2.658 1.214,-5.345 1.197,-8.112Zm10.549,64.897c0.028,-1.22 -0.215,-2.393 -0.796,-3.511c-1.553,-2.988 -3.384,-5.836 -4.606,-8.994c-0.111,-0.288 -0.341,-0.469 -0.641,-0.565c-1.414,-0.452 -2.851,-0.748 -4.345,-0.723c-0.366,0.006 -0.635,0.132 -0.861,0.428c-0.848,1.105 -1.619,2.26 -2.353,3.442c-1.138,1.831 -2.416,3.554 -3.973,5.057c-1.031,0.996 -2.06,1.994 -3.084,2.996c-0.331,0.324 -0.651,0.66 -0.965,1.001c-0.142,0.154 -0.267,0.326 -0.384,0.5c-0.211,0.316 -0.153,0.645 0.171,0.876c0.24,0.169 0.492,0.325 0.754,0.457c1.664,0.839 3.423,1.413 5.234,1.833c0.061,0.014 0.172,-0.038 0.203,-0.091c0.031,-0.055 0.017,-0.169 -0.024,-0.223c-0.39,-0.521 -0.386,-1.107 -0.257,-1.696c0.142,-0.658 0.301,-1.315 0.498,-1.958c0.368,-1.2 1.052,-2.165 2.052,-2.959c2.179,-1.733 4.243,-3.598 6.044,-5.736c0.297,-0.353 0.645,-0.664 0.985,-0.978c0.204,-0.189 0.506,-0.15 0.665,0.068c0.524,0.719 0.908,1.518 1.292,2.314c0.223,0.462 0.159,0.873 -0.184,1.282c-1.656,1.971 -3.161,4.047 -4.475,6.268c-0.933,1.577 -2.17,2.896 -3.747,3.868c-0.071,0.044 -0.146,0.098 -0.184,0.166c-0.031,0.057 -0.029,0.198 -0.006,0.207c0.314,0.117 0.628,0.26 0.955,0.316c1.495,0.253 2.992,0.494 4.493,0.713c0.986,0.144 1.089,-0.001 0.816,-1.016c-0.077,-0.285 -0.178,-0.565 -0.23,-0.855c-0.066,-0.371 -0.111,-0.747 -0.135,-1.123c-0.023,-0.345 0.082,-0.663 0.277,-0.954c0.708,-1.063 1.564,-1.985 2.606,-2.728c0.17,-0.121 0.359,-0.222 0.553,-0.299c0.248,-0.099 0.494,-0.075 0.712,0.102c0.693,0.559 1.292,1.208 1.841,1.906c0.078,0.098 0.135,0.213 0.197,0.323c0.18,0.315 0.207,0.643 0.037,0.965c-0.158,0.298 -0.326,0.591 -0.516,0.869c-0.404,0.592 -0.83,1.168 -1.235,1.759c-0.238,0.347 -0.456,0.707 -0.674,1.067c-0.085,0.141 0.019,0.373 0.177,0.406c0.743,0.156 1.493,0.241 2.252,0.22c0.181,-0.006 0.295,-0.155 0.318,-0.338c0.108,-0.834 0.189,-1.673 0.321,-2.504c0.112,-0.709 0.238,-1.413 0.222,-2.158Zm-88.121,-33.1c-0.149,2.775 -0.23,5.301 0.017,7.827c0.041,0.418 0.039,0.842 0.032,1.263c-0.033,1.985 0.231,3.954 0.312,5.932c0.004,0.084 0.011,0.169 0.025,0.252c0.246,1.496 0.471,2.996 0.748,4.487c0.224,1.2 0.469,2.399 0.778,3.579c0.77,2.939 1.761,5.802 3.063,8.552c0.648,1.371 1.283,2.749 1.926,4.122c0.071,0.152 0.157,0.297 0.239,0.445c0.092,0.167 0.242,0.249 0.286,0.162c0.035,-0.073 0.088,-0.159 0.075,-0.228c-0.171,-0.922 -0.189,-1.844 -0.004,-2.765c0.157,-0.785 0.336,-1.564 0.497,-2.349c0.116,-0.572 0.455,-1.124 0.323,-1.716c-0.13,-0.576 -0.526,-1.048 -0.842,-1.545c-0.091,-0.142 -0.194,-0.277 -0.279,-0.422c-0.606,-1.017 -1.135,-2.072 -1.471,-3.208c-0.346,-1.172 -0.632,-2.358 -0.863,-3.56c-0.375,-1.946 -0.667,-3.901 -0.888,-5.869c-0.169,-1.509 -0.342,-3.014 -0.383,-4.534c-0.051,-1.811 -0.14,-3.621 -0.203,-5.432c-0.054,-1.562 0.086,-3.116 0.207,-4.671c0.121,-1.554 0.223,-3.111 0.384,-4.661c0.174,-1.676 0.402,-3.346 0.615,-5.017c0.34,-2.676 0.73,-5.342 1.399,-7.96c0.156,-0.609 0.219,-1.242 0.312,-1.865c0.007,-0.052 -0.08,-0.125 -0.135,-0.173c-0.025,-0.022 -0.085,-0.022 -0.12,-0.008c-0.326,0.127 -0.57,0.368 -0.777,0.63c-0.892,1.127 -1.691,2.305 -2.155,3.69c-1.072,3.199 -2.035,6.424 -2.578,9.762c-0.067,0.416 -0.183,0.825 -0.22,1.243c-0.127,1.427 -0.228,2.856 -0.32,4.037Zm107.461,55.652c-0.032,0.646 -0.067,1.319 -0.095,1.991c-0.017,0.42 -0.026,0.84 -0.033,1.259c-0.002,0.106 0.061,0.157 0.162,0.149c0.039,-0.002 0.088,0.002 0.115,-0.02c0.097,-0.078 0.196,-0.157 0.28,-0.25c1.796,-2.008 3.542,-4.064 5.4,-6.013c1.745,-1.83 3.367,-3.766 5.047,-5.651c1.684,-1.887 3.345,-3.787 5.227,-5.48c0.153,-0.138 0.276,-0.311 0.407,-0.47c0.072,-0.089 -0.008,-0.289 -0.119,-0.297c-0.293,-0.023 -0.586,-0.04 -0.88,-0.058c-1.008,-0.06 -2.019,-0.09 -3.025,-0.184c-1.801,-0.167 -3.599,-0.375 -5.4,-0.558c-1.762,-0.179 -3.498,-0.49 -5.207,-0.963c-1.257,-0.348 -2.522,-0.665 -3.785,-0.993c-0.245,-0.063 -0.492,-0.115 -0.739,-0.166c-0.123,-0.025 -0.265,-0.046 -0.335,0.086c-0.031,0.059 -0.01,0.164 0.019,0.236c0.705,1.722 1.179,3.51 1.497,5.338c0.318,1.823 0.767,3.624 0.957,5.47c0.078,0.754 0.112,1.513 0.221,2.262c0.208,1.422 0.156,2.857 0.286,4.312Zm-7.34,-5.76c0.912,0.041 1.048,-0.106 0.839,-0.779c-0.289,-0.923 -0.612,-1.836 -0.93,-2.751c-0.083,-0.238 -0.206,-0.46 -0.3,-0.695c-0.225,-0.56 -0.608,-0.847 -1.237,-0.899c-1.305,-0.11 -2.609,-0.14 -3.913,-0.055c-1.555,0.1 -3.107,0.23 -4.661,0.343c-0.252,0.019 -0.505,0.023 -0.757,0.032c-3.163,0.116 -6.318,-0.016 -9.465,-0.338c-3.016,-0.308 -6.031,-0.635 -9.046,-0.956c-0.963,-0.103 -1.929,-0.185 -2.887,-0.324c-2.501,-0.362 -5.01,-0.654 -7.522,-0.924c-1.675,-0.181 -3.333,-0.475 -4.987,-0.798c-1.12,-0.219 -1.92,-0.8 -2.43,-1.812c-0.151,-0.3 -0.347,-0.577 -0.504,-0.875c-0.227,-0.428 -0.561,-0.601 -1.04,-0.49c-0.82,0.188 -1.65,0.341 -2.462,0.562c-1.38,0.375 -2.751,0.788 -4.122,1.196c-0.443,0.132 -0.876,0.3 -1.311,0.458c-0.2,0.072 -0.24,0.225 -0.112,0.387c0.778,0.975 1.649,1.804 2.973,1.953c0.249,0.029 0.49,0.123 0.738,0.171c2.729,0.532 5.481,0.912 8.236,1.279c1.669,0.222 3.338,0.45 5.006,0.682c1.376,0.191 2.75,0.396 4.127,0.584c1.334,0.182 2.671,0.348 4.005,0.529c0.501,0.067 0.996,0.173 1.498,0.236c3.133,0.39 6.251,0.894 9.365,1.414c2.2,0.368 4.385,0.835 6.615,1.017c2.266,0.183 4.528,0.441 6.809,0.36c0.925,-0.032 1.854,-0.007 2.78,-0.006c0.801,0.001 1.598,0.052 2.391,0.181c0.83,0.136 1.668,0.232 2.304,0.318Zm-79.74,-40.15c-0,0.744 -0.014,1.377 0.002,2.008c0.036,1.35 0.123,2.693 0.427,4.015c0.209,0.902 0.387,1.811 0.58,2.717c0.049,0.229 0.26,0.366 0.464,0.293c0.673,-0.241 1.345,-0.486 2.016,-0.733c0.179,-0.066 0.261,-0.215 0.247,-0.395c-0.048,-0.629 -0.093,-1.26 -0.167,-1.887c-0.129,-1.094 -0.149,-2.189 -0.01,-3.279c0.266,-2.089 0.517,-4.179 0.744,-6.273c0.328,-3.02 0.475,-6.049 0.624,-9.078c0.09,-1.851 0.098,-3.706 0.123,-5.559c0.019,-1.391 0.04,-2.783 -0.001,-4.172c-0.061,-2.025 0.021,-4.043 0.113,-6.064c0.066,-1.435 0.332,-2.842 0.583,-4.253c0.434,-2.446 0.867,-4.894 1.513,-7.295c0.448,-1.665 0.971,-3.312 1.489,-4.958c0.304,-0.962 0.675,-1.904 0.994,-2.862c0.102,-0.307 0.418,-0.665 0.19,-0.937c-0.304,-0.361 -0.687,0.043 -1.038,0.096c-0.041,0.006 -0.08,0.027 -0.119,0.044c-1.389,0.609 -1.209,0.383 -1.918,1.674c-1.504,2.74 -2.734,5.599 -3.6,8.607c-0.664,2.307 -1.304,4.62 -1.586,7.015c-0.098,0.835 -0.348,1.653 -0.436,2.488c-0.245,2.345 -0.576,4.684 -0.612,7.048c-0.005,0.295 -0.025,0.589 -0.05,0.883c-0.187,2.185 -0.221,4.377 -0.25,6.568c-0.033,2.527 -0.069,5.055 -0.11,7.583c-0.012,0.716 0,1.437 -0.077,2.147c-0.17,1.555 -0.183,3.111 -0.135,4.559Zm67.629,53.284c-4.137,0.047 -7.173,0.059 -10.209,0.119c-3.349,0.067 -6.652,-0.242 -9.896,-1.093c-2.73,-0.716 -5.469,-1.404 -8.161,-2.26c-0.802,-0.255 -1.615,-0.476 -2.422,-0.719c-0.765,-0.231 -1.532,-0.461 -2.292,-0.709c-1.042,-0.341 -2.083,-0.668 -3.156,-0.907c-2.718,-0.603 -5.463,-1.04 -8.211,-1.474c-0.832,-0.132 -1.667,-0.23 -2.505,-0.324c-2.053,-0.229 -4.096,-0.52 -6.067,-1.188c-2.716,-0.92 -4.309,-2.826 -4.973,-5.569c-0.06,-0.245 -0.122,-0.491 -0.174,-0.738c-0.057,-0.262 -0.198,-0.462 -0.418,-0.608c-0.351,-0.232 -0.712,-0.452 -1.056,-0.695c-1.195,-0.844 -1.297,-0.69 -0.344,-1.837c0.026,-0.031 0.035,-0.077 0.057,-0.112c0.065,-0.104 0.01,-0.265 -0.108,-0.3c-0.243,-0.073 -0.482,-0.161 -0.73,-0.207c-0.784,-0.143 -1.424,-0.505 -1.867,-1.182c-0.179,-0.276 -0.447,-0.364 -0.756,-0.375c-0.646,-0.023 -1.238,-0.224 -1.801,-0.531c-0.227,-0.124 -0.429,-0.06 -0.511,0.142c-0.348,0.858 -0.7,1.715 -1.032,2.581c-0.056,0.146 -0.06,0.34 -0.017,0.492c0.242,0.851 0.489,1.704 0.952,2.47c1.084,1.789 2.462,3.334 4.129,4.576c1.727,1.285 3.613,2.329 5.634,3.102c2.447,0.936 4.971,1.597 7.541,2.092c3.106,0.597 6.179,1.329 9.195,2.285c2.211,0.701 4.439,1.339 6.699,1.855c2.217,0.507 4.446,0.964 6.675,1.418c1.197,0.244 2.403,0.444 3.608,0.649c0.498,0.085 1.008,0.103 1.503,0.2c2.2,0.429 4.418,0.651 6.658,0.695c0.843,0.017 1.685,0.063 2.527,0.093c0.758,0.029 1.515,0.075 2.273,0.08c3.505,0.02 6.989,-0.326 10.479,-0.575c1.85,-0.131 3.7,-0.27 5.551,-0.375c0.967,-0.054 1.939,-0.038 2.908,-0.065c0.464,-0.013 0.93,-0.025 1.388,-0.086c0.592,-0.078 1.14,-0.294 1.583,-0.713c0.049,-0.045 0.048,-0.151 0.055,-0.23c0.01,-0.107 -0.048,-0.155 -0.156,-0.161c-0.126,-0.007 -0.25,-0.039 -0.375,-0.038c-1.644,0.017 -3.289,0.026 -4.933,0.058c-2.782,0.056 -5.564,0.126 -7.245,0.164Zm-78.452,-56.208c0.036,0.908 0.076,1.918 0.114,2.929c0.045,1.181 0.206,2.348 0.444,3.503c0.35,1.69 0.744,3.371 1.066,5.067c0.299,1.576 0.694,3.123 1.157,4.655c0.418,1.383 0.316,1.264 1.374,0.523c0.827,-0.58 1.693,-1.106 2.54,-1.657c0.349,-0.227 0.41,-0.345 0.291,-0.726c-0.428,-1.369 -0.739,-2.764 -0.94,-4.185c-0.088,-0.625 -0.181,-1.249 -0.279,-1.872c-0.329,-2.081 -0.651,-4.166 -0.721,-6.273c-0.072,-2.189 -0.078,-4.381 -0.095,-6.571c-0.004,-0.589 0.048,-1.179 0.088,-1.766c0.12,-1.766 0.248,-3.53 0.37,-5.295c0.061,-0.882 0.109,-1.765 0.177,-2.648c0.084,-1.092 0.224,-2.181 0.264,-3.275c0.087,-2.447 0.389,-4.867 0.804,-7.277c0.151,-0.871 0.375,-1.733 0.475,-2.609c0.125,-1.095 0.403,-2.152 0.658,-3.214c0.304,-1.27 0.64,-2.531 0.974,-3.793c0.259,-0.977 0.548,-1.944 0.968,-2.869c0.279,-0.613 0.524,-1.241 0.785,-1.863c0.049,-0.116 0.114,-0.226 0.155,-0.345c0.053,-0.158 0.13,-0.344 -0.028,-0.462c-0.066,-0.05 -0.236,-0.007 -0.334,0.043c-0.75,0.382 -1.49,0.784 -2.242,1.162c-0.837,0.421 -1.379,1.082 -1.669,1.964c-0.025,0.079 -0.06,0.156 -0.09,0.236c-0.689,1.855 -1.37,3.712 -2.069,5.562c-0.388,1.029 -0.665,2.083 -0.846,3.167c-0.194,1.162 -0.425,2.319 -0.628,3.48c-0.443,2.529 -1.014,5.038 -1.188,7.61c-0.069,1.008 -0.135,2.018 -0.265,3.02c-0.314,2.422 -0.622,4.846 -1.012,7.257c-0.346,2.133 -0.481,4.267 -0.298,6.522Zm78.614,50.864c-0.001,-0.021 -0.001,-0.042 -0.002,-0.063c1.474,-0.031 2.948,-0.062 4.422,-0.093c0.716,-0.013 1.433,-0.015 2.148,-0.036c2.148,-0.063 4.296,-0.132 6.443,-0.198c0.211,-0.006 0.422,-0.005 0.632,-0.02c0.27,-0.02 0.436,-0.235 0.416,-0.522c-0.07,-0.973 -0.293,-1.255 -1.205,-1.519c-1.14,-0.33 -2.304,-0.508 -3.491,-0.507c-2.19,0.002 -4.381,0.026 -6.572,0.023c-3.299,-0.005 -6.551,-0.373 -9.762,-1.161c-1.716,-0.42 -3.447,-0.797 -5.212,-0.975c-1.256,-0.127 -2.511,-0.306 -3.771,-0.365c-1.775,-0.083 -3.517,-0.396 -5.261,-0.67c-1.876,-0.296 -3.758,-0.486 -5.645,-0.653c-1.301,-0.114 -2.611,-0.15 -3.905,-0.31c-1.42,-0.175 -2.837,-0.371 -4.241,-0.672c-2.346,-0.505 -4.706,-0.939 -7.056,-1.425c-0.825,-0.171 -1.645,-0.371 -2.448,-0.622c-1.532,-0.481 -2.845,-1.26 -3.571,-2.793c-0.16,-0.34 -0.371,-0.663 -0.6,-0.963c-0.529,-0.692 -1.224,-1.009 -2.105,-0.838c-0.123,0.024 -0.251,0.032 -0.373,0.062c-1.678,0.409 -3.356,0.817 -5.031,1.233c-0.104,0.026 -0.242,0.104 -0.272,0.19c-0.044,0.125 0.071,0.225 0.195,0.279c0.692,0.308 1.377,0.638 2.08,0.917c1.045,0.413 1.79,1.062 2.026,2.22c0.227,1.116 0.978,1.726 2.061,1.967c0.083,0.019 0.164,0.04 0.246,0.059c1.927,0.446 3.85,0.908 5.811,1.205c2.705,0.41 5.407,0.855 8.062,1.532c1.184,0.302 2.348,0.682 3.54,0.94c2.18,0.472 4.374,0.888 6.564,1.315c2.108,0.411 4.217,0.803 6.264,1.482c1.119,0.372 2.282,0.612 3.454,0.737c2.094,0.223 4.19,0.421 6.304,0.374c1.304,-0.029 2.611,0.032 3.916,0.012c1.98,-0.029 3.959,-0.093 5.939,-0.142Zm-58.304,-52.3c0.041,2.864 0.069,5.728 0.13,8.592c0.017,0.84 0.125,1.68 0.198,2.519c0.014,0.171 0.177,0.313 0.335,0.31c0.168,-0.004 0.337,-0.004 0.503,-0.027c1.13,-0.159 2.263,-0.218 3.402,-0.099c0.082,0.008 0.18,0.013 0.247,-0.024c0.102,-0.055 0.237,-0.133 0.263,-0.228c0.056,-0.199 0.061,-0.415 0.066,-0.624c0.02,-0.884 0.025,-1.768 0.049,-2.653c0.073,-2.779 0.237,-5.556 0.193,-8.338c-0.009,-0.587 0.064,-1.176 0.119,-1.763c0.149,-1.594 0.348,-3.183 0.31,-4.789c-0.023,-0.967 -0.076,-1.935 -0.087,-2.903c-0.03,-2.822 -0.05,-5.644 -0.066,-8.467c-0.014,-2.485 -0.022,-4.97 -0.019,-7.456c0.002,-2.112 0.212,-4.202 0.673,-6.268c0.862,-3.859 2.393,-7.446 4.373,-10.851c0.659,-1.131 1.558,-2.092 2.367,-3.116c0.384,-0.484 0.944,-0.848 1.091,-1.504c-0.617,-0.346 -1.202,0.077 -1.805,0.077c-0.126,0.001 -0.252,0.022 -0.377,0.039c-1.218,0.168 -2.38,0.536 -3.523,0.976c-0.261,0.1 -0.447,0.281 -0.451,0.549c-0.015,0.723 -0.395,1.275 -0.799,1.817c-0.2,0.27 -0.41,0.539 -0.654,0.769c-0.811,0.764 -1.378,1.697 -1.879,2.675c-0.613,1.202 -1.134,2.442 -1.53,3.735c-0.555,1.812 -1.149,3.611 -1.697,5.424c-0.389,1.289 -0.797,2.579 -1.072,3.895c-0.3,1.439 -0.507,2.898 -0.629,4.372c-0.158,1.896 -0.189,3.784 -0.018,5.679c0.053,0.586 0.052,1.177 0.065,1.766c0.015,0.632 0.005,1.264 0.032,1.895c0.06,1.43 0.16,2.859 0.202,4.29c0.096,3.243 0.132,6.486 -0.012,9.731Zm56.377,-24.607c-0.025,-0.146 -0.043,-0.271 -0.067,-0.394c-0.138,-0.702 -0.274,-1.404 -0.423,-2.104c-0.011,-0.053 -0.114,-0.094 -0.182,-0.124c-0.026,-0.012 -0.08,0.016 -0.11,0.04c-0.064,0.052 -0.131,0.106 -0.178,0.173c-0.622,0.902 -1.239,1.807 -1.86,2.709c-1.434,2.082 -2.815,4.198 -4.4,6.177c-1.744,2.177 -3.634,4.216 -5.639,6.145c-1.035,0.995 -2.026,2.028 -2.975,3.098c-1.147,1.294 -2.29,2.582 -3.545,3.777c-2.534,2.415 -5.113,4.776 -7.812,7.007c-1.009,0.833 -1.955,1.736 -2.811,2.726c-0.234,0.271 -0.671,0.574 -0.452,0.95c0.234,0.402 0.678,0.097 1.027,0.017c0.164,-0.037 0.324,-0.096 0.48,-0.157c0.669,-0.256 1.334,-0.522 2.003,-0.775c0.555,-0.21 1.12,-0.381 1.726,-0.308c1.463,0.175 2.94,0.248 4.379,0.602c0.492,0.121 0.982,0.247 1.479,0.335c1.889,0.335 3.627,1.095 5.337,1.911c1.749,0.834 3.462,1.743 5.195,2.611c0.602,0.302 1.212,0.59 1.828,0.864c0.267,0.118 0.555,0.192 0.838,0.266c0.043,0.011 0.165,-0.088 0.164,-0.134c-0.003,-0.208 -0.017,-0.421 -0.064,-0.622c-0.268,-1.154 -0.44,-2.317 -0.41,-3.506c0.081,-3.161 0.245,-6.312 0.755,-9.442c0.643,-3.957 1.621,-7.835 2.688,-11.692c0.595,-2.15 1.325,-4.263 1.98,-6.397c0.32,-1.047 0.611,-2.103 0.911,-3.156c0.057,-0.202 0.095,-0.409 0.138,-0.597Zm49.856,70.136c1.651,-0.082 3.207,-0.422 4.736,-0.931c1.425,-0.473 2.639,-1.29 3.793,-2.217c0.163,-0.13 0.309,-0.29 0.437,-0.455c0.775,-0.998 1.555,-1.996 2.146,-3.121c1.039,-1.976 2.131,-3.927 3.087,-5.944c1.682,-3.545 4,-6.628 6.655,-9.479c1.264,-1.357 2.563,-2.68 3.855,-4.01c1.116,-1.149 2.213,-2.318 3.376,-3.418c1.008,-0.954 2.026,-1.904 3.172,-2.704c1.313,-0.916 2.624,-1.836 3.903,-2.799c1.752,-1.318 3.46,-2.692 4.977,-4.285c0.732,-0.767 1.385,-1.589 1.792,-2.581c0.242,-0.592 0.39,-1.203 0.262,-1.847c-0.023,-0.118 -0.078,-0.262 -0.167,-0.324c-0.11,-0.077 -0.215,0.043 -0.293,0.133c-0.248,0.286 -0.482,0.586 -0.741,0.862c-0.501,0.533 -1.112,0.895 -1.807,1.116c-0.298,0.095 -0.582,-0.115 -0.618,-0.449c-0.028,-0.269 0.026,-0.505 0.281,-0.648c0.109,-0.062 0.223,-0.121 0.341,-0.159c1.007,-0.318 1.564,-1.096 2.028,-1.97c0.147,-0.275 0.153,-0.566 0.08,-0.861c-0.088,-0.352 -0.402,-0.555 -0.764,-0.486c-0.122,0.023 -0.236,0.092 -0.359,0.116c-0.071,0.014 -0.177,0.007 -0.224,-0.037c-0.101,-0.097 -0.064,-0.218 0.006,-0.33c0.134,-0.213 0.276,-0.424 0.397,-0.645c0.282,-0.517 0.566,-1.034 0.827,-1.561c0.213,-0.429 0.255,-0.884 0.12,-1.351c-0.029,-0.098 -0.22,-0.182 -0.307,-0.124c-0.102,0.07 -0.221,0.127 -0.302,0.217c-0.883,0.981 -1.947,1.737 -3.041,2.456c-0.246,0.161 -0.506,0.302 -0.767,0.44c-0.197,0.104 -0.41,0.087 -0.612,0.007c-0.52,-0.207 -0.935,-0.563 -1.331,-0.946c-0.201,-0.192 -0.442,-0.234 -0.702,-0.142c-0.52,0.184 -1.001,0.428 -1.408,0.818c-0.825,0.79 -1.567,1.647 -2.238,2.572c-1.237,1.705 -2.498,3.393 -3.727,5.104c-0.516,0.717 -0.981,1.47 -1.461,2.212c-0.033,0.053 -0.025,0.174 0.014,0.219c0.04,0.048 0.16,0.08 0.214,0.055c0.689,-0.318 1.357,-0.669 1.985,-1.104c1.941,-1.342 3.927,-2.613 5.998,-3.751c0.996,-0.546 1.946,-1.178 2.899,-1.798c0.706,-0.46 1.383,-0.963 2.074,-1.445c0.101,-0.071 0.221,-0.153 0.323,-0.021c0.086,0.114 0.011,0.233 -0.056,0.335c-0.367,0.567 -0.741,1.136 -1.272,1.562c-1.082,0.871 -2.137,1.775 -3.332,2.502c-1.006,0.612 -1.988,1.272 -2.944,1.961c-1.367,0.985 -2.705,2.01 -4.047,3.029c-0.71,0.538 -1.44,1.033 -2.31,1.272c-0.315,0.087 -0.483,0.277 -0.611,0.572c-0.435,1.005 -0.838,2.03 -1.362,2.987c-1.255,2.296 -2.681,4.483 -4.401,6.467c-0.552,0.636 -1.072,1.302 -1.635,1.928c-0.845,0.939 -1.638,1.936 -2.677,2.677c-0.959,0.686 -1.941,1.341 -2.91,2.014c-1.84,1.279 -3.892,2.183 -5.828,3.291c-1.065,0.61 -2.228,0.999 -3.345,1.49c-2.242,0.985 -4.538,1.808 -6.909,2.421c-0.244,0.063 -0.483,0.148 -0.716,0.242c-0.143,0.057 -0.143,0.195 -0.074,0.305c0.202,0.321 0.423,0.63 0.624,0.95c0.649,1.035 1.369,2.031 1.828,3.172c0.721,1.797 1.467,3.587 1.956,5.469c0.063,0.244 0.137,0.488 0.243,0.716c0.044,0.096 0.175,0.188 0.281,0.21c0.204,0.043 0.418,0.034 0.588,0.044Zm-42.906,22.705c0.673,0 1.474,0.008 2.275,-0.002c1.236,-0.015 2.413,-0.345 3.582,-0.702c0.176,-0.054 0.283,-0.206 0.27,-0.384c-0.061,-0.843 -0.029,-1.684 0.06,-2.523c0.004,-0.04 0,-0.092 -0.022,-0.123c-0.047,-0.065 -0.102,-0.163 -0.164,-0.17c-0.206,-0.025 -0.417,-0.026 -0.626,-0.019c-1.896,0.073 -3.792,0.148 -5.687,0.223c-0.716,0.029 -1.432,0.057 -2.149,0.091c-1.095,0.051 -2.189,0.107 -3.284,0.161c-1.179,0.058 -2.357,0.121 -3.536,0.173c-0.715,0.032 -1.432,0.068 -2.149,0.071c-2.023,0.009 -4.043,-0.032 -6.067,-0.159c-1.725,-0.108 -3.438,-0.346 -5.165,-0.43c-0.968,-0.048 -1.941,-0.106 -2.896,-0.255c-2.498,-0.389 -4.989,-0.823 -7.481,-1.256c-1.078,-0.187 -2.16,-0.372 -3.221,-0.634c-2.209,-0.544 -4.417,-1.1 -6.605,-1.722c-3.081,-0.875 -6.179,-1.678 -9.283,-2.46c-0.612,-0.155 -1.226,-0.312 -1.847,-0.427c-2.28,-0.423 -4.533,-0.963 -6.773,-1.557c-0.489,-0.129 -0.98,-0.258 -1.454,-0.43c-1.865,-0.673 -3.691,-1.439 -5.43,-2.398c-1.479,-0.816 -2.902,-1.715 -4.203,-2.801c-2.028,-1.693 -3.631,-3.752 -5.103,-5.92c-0.257,-0.38 -0.448,-0.813 -0.619,-1.242c-0.454,-1.134 -0.871,-2.282 -1.162,-3.473c-0.289,-1.186 -0.603,-2.367 -0.911,-3.549c-0.063,-0.243 -0.097,-0.516 -0.234,-0.712c-0.412,-0.589 -0.925,-1.093 -1.473,-1.556c-0.202,-0.171 -0.459,-0.214 -0.718,-0.169c-0.164,0.028 -0.331,0.073 -0.481,0.143c-1.907,0.878 -1.894,0.798 -1.954,2.767c-0.044,1.445 0.179,2.866 0.508,4.259c0.572,2.429 1.361,4.783 2.78,6.875c2.079,3.065 2.666,3.857 6.296,5.852c0.111,0.061 0.225,0.116 0.336,0.178c2.583,1.428 5.256,2.677 7.915,3.955c1.595,0.768 3.21,1.497 4.79,2.292c2.866,1.442 5.804,2.697 8.844,3.731c2.795,0.951 5.604,1.845 8.488,2.478c2.263,0.497 4.537,0.946 6.811,1.393c1.24,0.243 2.486,0.458 3.736,0.646c0.79,0.118 1.594,0.152 2.389,0.243c1.844,0.211 3.689,0.392 5.549,0.369c1.349,-0.017 2.7,-0.026 4.048,0.002c1.264,0.027 2.528,0.089 3.789,0.169c1.178,0.075 2.351,0.223 3.53,0.29c2.833,0.161 5.642,-0.051 8.425,-0.623c2.027,-0.416 4.073,-0.682 6.276,-0.665Zm-93.339,-111.733c-0.111,0.021 -0.443,0.072 -0.769,0.148c-2.422,0.566 -4.796,1.3 -7.172,2.031c-0.683,0.211 -1.369,0.421 -2.067,0.579c-2.341,0.531 -4.689,1.03 -7.032,1.558c-2.511,0.565 -4.973,1.283 -7.338,2.318c-0.568,0.249 -1.009,0.581 -1.336,1.098c-0.544,0.859 -0.964,1.776 -1.311,2.729c-0.013,0.037 -0.003,0.082 -0.01,0.123c-0.019,0.105 0.022,0.177 0.128,0.182c0.844,0.043 1.687,0.085 2.353,-0.592c0.147,-0.149 0.318,-0.277 0.492,-0.393c0.346,-0.228 0.719,-0.254 1.076,-0.046c0.326,0.191 0.653,0.393 0.938,0.637c1.473,1.261 2.527,2.831 3.174,4.646c0.579,1.625 1.07,3.283 1.422,4.978c0.317,1.526 0.567,3.063 0.8,4.605c0.296,1.956 0.7,3.896 1.063,5.842c0.216,1.159 0.403,2.326 0.678,3.472c0.276,1.145 0.598,2.283 0.984,3.396c0.62,1.791 1.302,3.56 1.974,5.332c0.239,0.63 0.517,1.245 0.789,1.861c0.085,0.19 0.2,0.369 0.322,0.539c0.038,0.053 0.15,0.089 0.215,0.074c0.064,-0.013 0.141,-0.09 0.163,-0.156c0.465,-1.398 0.916,-2.802 1.385,-4.198c0.175,-0.518 0.365,-1.034 0.589,-1.533c1.036,-2.304 2.065,-4.613 3.137,-6.901c0.929,-1.985 1.918,-3.94 3.112,-5.784c0.137,-0.212 0.245,-0.442 0.367,-0.663c1.446,-2.628 3.04,-5.155 5.043,-7.404c0.168,-0.188 0.339,-0.376 0.486,-0.582c0.56,-0.789 1.108,-1.588 1.668,-2.379c0.213,-0.302 0.232,-0.621 0.137,-0.962c-0.09,-0.325 -0.187,-0.648 -0.259,-0.977c-0.242,-1.111 -0.524,-2.216 -0.697,-3.338c-0.242,-1.582 -0.432,-3.173 -0.771,-4.739c-0.213,-0.986 -0.464,-1.967 -0.753,-2.934c-0.205,-0.689 -0.559,-1.31 -1.067,-1.843c-0.466,-0.489 -1.02,-0.727 -1.913,-0.724Zm40.975,44.204l-0.046,0c-0,0.801 0.014,1.602 -0.003,2.403c-0.058,2.743 0.035,5.481 0.225,8.217c0.039,0.551 0.136,0.685 0.63,0.791c1.65,0.354 3.284,0.761 4.859,1.38c0.058,0.024 0.173,-0 0.211,-0.046c0.041,-0.047 0.054,-0.165 0.024,-0.22c-0.49,-0.867 -0.649,-1.821 -0.738,-2.791c-0.042,-0.461 -0.057,-0.925 -0.062,-1.389c-0.033,-2.91 0.057,-5.817 0.19,-8.725c0.052,-1.136 0.135,-2.27 0.2,-3.405c0.131,-2.276 0.052,-4.551 -0.125,-6.825c-0.131,-1.681 -0.227,-3.364 -0.337,-5.047c-0.025,-0.379 -0.024,-0.76 -0.071,-1.136c-0.15,-1.216 -0.17,-2.438 -0.182,-3.662c-0.01,-0.97 -0.001,-1.941 -0.054,-2.909c-0.074,-1.349 -0.082,-2.697 -0.019,-4.045c0.083,-1.809 0.018,-3.624 0.323,-5.423c0.142,-0.836 0.333,-1.645 0.687,-2.42c0.72,-1.579 1.606,-3.053 2.585,-4.485c1.264,-1.85 3.001,-3.044 5.035,-3.865c0.269,-0.109 0.569,-0.147 0.857,-0.201c0.21,-0.038 0.421,0.128 0.445,0.348c0.162,1.571 -0.067,3.021 -1.291,4.165c-0.215,0.201 -0.416,0.418 -0.621,0.63c-1.232,1.273 -1.96,2.829 -2.51,4.484c-0.053,0.159 -0.087,0.327 -0.104,0.493c-0.155,1.425 -0.33,2.846 -0.389,4.281c-0.056,1.394 0.042,2.78 0.076,4.17c0.054,2.15 0.055,4.301 0.1,6.451c0.034,1.644 0.159,3.287 0.14,4.93c-0.036,2.999 0.327,5.977 0.421,8.969c0.078,2.526 0.291,5.048 0.435,7.573c0.059,1.053 0.085,2.107 0.136,3.159c0.122,2.505 -0.135,4.967 -0.824,7.381c-0.115,0.401 -0.223,0.804 -0.335,1.207c0.188,0.458 0.629,0.667 0.972,0.964c1.461,1.264 2.558,2.794 3.366,4.536c0.488,1.05 0.325,1.26 -0.816,1.185c-0.488,-0.032 -0.9,-0.196 -1.231,-0.556c-0.114,-0.124 -0.226,-0.25 -0.337,-0.377c-1.146,-1.307 -2.56,-2.18 -4.247,-2.602c-0.98,-0.245 -1.962,-0.49 -2.951,-0.695c-2.604,-0.542 -5.231,-0.93 -7.892,-1.013c-1.98,-0.061 -3.962,-0.062 -5.944,-0.084c-0.201,-0.002 -0.494,-0.058 -0.558,0.168c-0.098,0.348 0.295,0.314 0.474,0.439c0.206,0.144 0.449,0.233 0.658,0.374c0.478,0.32 0.793,0.753 0.838,1.345c0.026,0.336 0.038,0.672 0.057,1.008c0.015,0.273 0.118,0.376 0.388,0.391c1.019,0.059 2.014,-0.141 3.02,-0.252c0.689,-0.076 1.177,-0.368 1.434,-1.046c0.117,-0.31 0.328,-0.589 0.522,-0.863c0.119,-0.169 0.274,-0.321 0.439,-0.447c0.352,-0.268 0.862,-0.218 1.147,0.103c0.14,0.157 0.263,0.329 0.382,0.502c0.262,0.383 0.531,0.762 0.77,1.159c0.242,0.399 0.575,0.564 1.039,0.589c1.178,0.063 2.355,0.145 3.53,0.254c1.43,0.132 2.829,0.448 4.217,0.804c1.018,0.261 1.826,0.84 2.491,1.643c0.876,1.059 0.834,2.438 -0.135,3.425c-0.236,0.239 -0.507,0.447 -0.783,0.639c-1.283,0.892 -2.618,1.694 -4.044,2.34c-0.113,0.051 -0.221,0.115 -0.325,0.182c-0.028,0.019 -0.044,0.075 -0.042,0.113c0.001,0.028 0.044,0.079 0.062,0.077c0.496,-0.071 1.006,-0.1 1.486,-0.231c1.787,-0.487 3.588,-0.927 5.324,-1.595c0.864,-0.332 1.769,-0.548 2.701,-0.631c1.281,-0.114 2.171,0.515 2.892,1.476c0.097,0.129 0.167,0.301 0.187,0.461c0.092,0.694 0.043,1.353 -0.585,1.821c-0.068,0.05 -0.13,0.106 -0.193,0.162c-0.119,0.108 -0.078,0.333 0.082,0.418c1.002,0.543 2.01,1.04 3.188,1.126c1.428,0.106 2.862,0.188 4.272,0.469c0.074,0.015 0.175,-0.002 0.234,-0.046c0.052,-0.037 0.105,-0.155 0.082,-0.198c-0.076,-0.146 -0.171,-0.289 -0.286,-0.408c-0.566,-0.59 -1.259,-0.996 -2.021,-1.262c-0.734,-0.257 -1.084,-0.751 -1.107,-1.51c-0.005,-0.168 -0.047,-0.34 -0.027,-0.504c0.064,-0.529 -0.101,-0.984 -0.345,-1.446c-0.415,-0.787 -0.688,-1.628 -0.786,-2.52c-0.064,-0.57 0.059,-1.075 0.392,-1.552c1.208,-1.728 2.408,-3.462 3.871,-4.992c1.399,-1.462 2.81,-2.912 4.215,-4.368c0.293,-0.303 0.594,-0.599 0.873,-0.915c0.471,-0.534 0.439,-0.774 -0.15,-1.232c-0.85,-0.661 -1.865,-0.961 -2.866,-1.283c-0.219,-0.07 -0.429,0.035 -0.563,0.205c-0.234,0.297 -0.469,0.599 -0.649,0.929c-0.505,0.924 -0.986,1.862 -1.471,2.797c-0.815,1.571 -1.591,3.162 -2.49,4.689c-0.622,1.054 -1.278,2.083 -2.005,3.068c-0.587,0.797 -1.359,1.377 -2.163,1.92c-0.206,0.139 -0.455,0.214 -0.686,0.315c-0.265,0.114 -0.505,0.038 -0.697,-0.147c-0.685,-0.66 -1.128,-1.466 -1.385,-2.375c-0.115,-0.405 -0.215,-0.817 -0.282,-1.232c-0.129,-0.795 -0.373,-1.555 -0.646,-2.309c-0.114,-0.317 -0.242,-0.629 -0.353,-0.948c-0.14,-0.405 -0.169,-0.81 -0.067,-1.239c0.235,-0.983 0.431,-1.976 0.654,-2.961c0.271,-1.197 0.449,-2.404 0.418,-3.633c-0.01,-0.421 -0.044,-0.842 -0.101,-1.259c-0.074,-0.533 -0.21,-0.645 -0.731,-0.651c-0.633,-0.006 -1.265,0.007 -1.898,-0.001c-0.688,-0.009 -0.856,-0.246 -0.56,-0.852c0.239,-0.49 0.505,-0.977 0.827,-1.415c0.549,-0.746 1.148,-1.456 1.733,-2.175c0.266,-0.327 0.555,-0.635 0.825,-0.959c0.213,-0.257 0.237,-0.444 0.003,-0.664c-0.707,-0.663 -0.913,-1.488 -0.849,-2.415c0.002,-0.042 0.001,-0.084 0.004,-0.126c0.173,-2.83 -0.091,-5.643 -0.329,-8.457c-0.237,-2.814 -0.483,-5.627 -0.724,-8.441c-0.019,-0.21 -0.032,-0.421 -0.059,-0.63c-0.218,-1.673 -0.399,-3.35 -0.419,-5.037c-0.026,-2.201 -0.323,-4.368 -0.679,-6.532c-0.221,-1.348 -0.137,-2.69 0.234,-4.008c0.115,-0.411 0.323,-0.773 0.606,-1.098c0.347,-0.399 0.675,-0.389 0.856,0.077c0.198,0.508 0.393,1.026 0.508,1.557c0.434,2.018 0.858,4.039 1.244,6.067c0.355,1.862 0.656,3.735 0.983,5.603c0.036,0.206 0.079,0.412 0.143,0.611c0.02,0.062 0.117,0.136 0.182,0.139c0.061,0.002 0.155,-0.069 0.183,-0.132c0.124,-0.267 0.235,-0.541 0.339,-0.816c0.656,-1.743 1.093,-3.548 1.418,-5.372c0.422,-2.364 0.739,-4.746 0.928,-7.144c0.191,-2.415 0.065,-4.798 -0.478,-7.163c-0.568,-2.472 -1.829,-4.605 -3.215,-6.682c-0.232,-0.347 -0.566,-0.499 -0.967,-0.51c-1.306,-0.032 -2.613,-0.057 -3.919,-0.082c-0.125,-0.002 -0.253,0.018 -0.378,0.033c-0.466,0.056 -0.586,0.23 -0.462,0.661c0.082,0.282 0.164,0.565 0.24,0.85c0.175,0.648 -0.004,1.162 -0.588,1.517c-0.36,0.219 -0.713,0.452 -1.082,0.654c-0.781,0.426 -1.501,0.941 -2.19,1.497c-1.154,0.933 -2.194,1.992 -2.996,3.235c-1.883,2.923 -3.266,6.086 -4.284,9.405c-0.297,0.968 -0.458,1.978 -0.487,2.988c-0.071,2.571 -0.162,5.143 -0.063,7.715c0.02,0.503 0.085,1.006 0.151,1.507c0.224,1.714 0.427,3.429 0.393,5.165c-0.019,1.01 -0.029,2.028 0.065,3.033c0.263,2.818 0.248,5.644 0.306,8.467c0.019,0.925 -0.084,1.852 -0.13,2.778Zm126.244,-4.746c-0.192,-0.06 -0.314,0.057 -0.434,0.174c-0.427,0.412 -0.89,0.777 -1.42,1.046c-0.247,0.125 -0.495,0.091 -0.709,-0.082c-0.13,-0.106 -0.257,-0.224 -0.355,-0.358c-0.289,-0.395 -0.401,-0.8 -0.163,-1.29c0.331,-0.681 0.615,-1.386 0.896,-2.09c0.219,-0.55 0.373,-1.118 0.404,-1.716c0.083,-1.573 -0.077,-3.123 -0.554,-4.622c-0.534,-1.677 -1.433,-3.138 -2.795,-4.287c-0.354,-0.299 -0.706,-0.601 -1.046,-0.916c-0.153,-0.141 -0.282,-0.31 -0.407,-0.478c-0.158,-0.212 -0.106,-0.53 0.11,-0.672c0.175,-0.115 0.352,-0.241 0.546,-0.309c1.418,-0.496 2.867,-0.672 4.357,-0.403c0.082,0.015 0.166,0.035 0.244,0.065c0.212,0.081 0.373,0.224 0.341,0.466c-0.054,0.406 0.128,0.637 0.493,0.761c0.04,0.014 0.079,0.03 0.118,0.046c0.264,0.109 0.422,0.319 0.381,0.59c-0.095,0.632 0.099,1.06 0.734,1.261c0.156,0.049 0.295,0.162 0.432,0.259c0.182,0.129 0.28,0.314 0.287,0.536c0.003,0.125 0,0.259 -0.039,0.376c-0.15,0.449 -0.011,0.826 0.256,1.182c0.05,0.067 0.083,0.147 0.133,0.215c0.222,0.299 0.271,0.634 0.104,0.953c-0.304,0.579 -0.088,0.961 0.405,1.27c0.035,0.023 0.065,0.054 0.099,0.078c0.585,0.39 0.654,0.938 0.475,1.561c-0.132,0.453 -0.362,0.859 -0.673,1.205c-0.372,0.415 -0.329,0.832 -0.095,1.28c0.116,0.222 0.365,0.279 0.506,0.105c0.079,-0.098 0.164,-0.192 0.229,-0.3c1.072,-1.764 2.19,-3.502 2.991,-5.417c0.162,-0.388 0.375,-0.755 0.553,-1.137c0.643,-1.373 1.309,-2.734 1.78,-4.183c0.509,-1.565 0.896,-3.16 1.269,-4.759c0.221,-0.945 0.399,-1.895 0.449,-2.869c0.157,-3.114 -0.299,-6.136 -1.351,-9.068c-0.184,-0.514 -0.435,-1.005 -0.642,-1.511c-0.151,-0.368 -0.443,-0.492 -0.805,-0.486c-0.387,0.007 -0.753,0.108 -1.06,0.355c-0.163,0.131 -0.302,0.293 -0.459,0.432c-0.212,0.187 -0.477,0.197 -0.684,0.018c-0.745,-0.64 -1.357,-1.384 -1.733,-2.3c-0.095,-0.231 -0.145,-0.483 -0.194,-0.729c-0.051,-0.256 0.103,-0.511 0.352,-0.599c0.518,-0.181 1.046,-0.33 1.597,-0.359c1.901,-0.097 3.794,-0.076 5.66,0.365c2.221,0.525 4.216,1.457 5.779,3.177c0.056,0.061 0.114,0.129 0.186,0.164c0.068,0.031 0.166,0.048 0.23,0.021c0.061,-0.025 0.126,-0.112 0.134,-0.179c0.16,-1.159 -0.198,-2.165 -0.936,-3.045c-0.463,-0.554 -1.024,-0.997 -1.643,-1.372c-1.017,-0.615 -2.097,-1.072 -3.248,-1.373c-1.226,-0.32 -2.472,-0.509 -3.731,-0.654c-1.57,-0.18 -3.112,-0.089 -4.648,0.253c-0.989,0.22 -1.97,0.467 -2.891,0.897c-0.752,0.352 -1.913,-0.415 -1.796,-1.351c0.042,-0.333 0.125,-0.661 0.21,-0.986c0.102,-0.385 0.332,-0.664 0.698,-0.848c0.985,-0.494 2.003,-0.901 3.087,-1.097c3.17,-0.57 6.294,-0.417 9.356,0.634c0.239,0.082 0.477,0.168 0.72,0.234c0.042,0.011 0.113,-0.061 0.159,-0.107c0.009,-0.009 -0.024,-0.083 -0.054,-0.107c-0.164,-0.131 -0.324,-0.269 -0.501,-0.379c-2.028,-1.268 -4.221,-2.058 -6.592,-2.428c-2.217,-0.346 -4.365,-0.206 -6.475,0.547c-0.477,0.169 -0.954,0.337 -1.431,0.505c-0.448,0.157 -0.901,0.184 -1.37,0.087c-0.541,-0.111 -1.054,-0.296 -1.542,-0.549c-0.382,-0.2 -0.684,-0.49 -0.876,-0.882c-0.1,-0.204 -0.105,-0.428 0.038,-0.597c0.189,-0.222 0.402,-0.434 0.639,-0.603c0.69,-0.49 1.427,-0.891 2.233,-1.166c1.65,-0.563 3.341,-0.843 5.087,-0.866c1.568,-0.02 3.113,0.087 4.635,0.49c2.603,0.688 4.964,1.86 7.107,3.48c0.471,0.355 0.916,0.744 1.381,1.107c0.077,0.061 0.183,0.196 0.294,0.056c0.044,-0.054 0.051,-0.167 0.027,-0.237c-0.235,-0.678 -0.531,-1.326 -0.904,-1.943c-0.465,-0.771 -1.04,-1.433 -1.792,-1.93c-0.845,-0.558 -1.714,-1.069 -2.648,-1.472c-2.19,-0.946 -4.466,-1.499 -6.854,-1.597c-2.37,-0.099 -4.719,0.041 -7.033,0.595c-0.45,0.107 -0.889,0.259 -1.335,0.382c-0.564,0.155 -0.955,0.518 -1.238,1.012c-0.168,0.292 -0.332,0.587 -0.477,0.892c-0.253,0.53 -0.7,0.71 -1.243,0.68c-0.334,-0.02 -0.672,-0.078 -0.996,-0.164c-1.105,-0.296 -1.4,-0.682 -1.403,-1.646c-0.002,-0.533 -0.181,-0.982 -0.503,-1.395c-0.155,-0.198 -0.285,-0.418 -0.41,-0.637c-0.195,-0.342 -0.167,-0.63 0.101,-0.926c0.169,-0.187 0.345,-0.378 0.553,-0.515c0.492,-0.323 0.997,-0.627 1.512,-0.913c0.256,-0.143 0.546,-0.222 0.815,-0.341c0.114,-0.05 0.216,-0.126 0.318,-0.199c0.026,-0.019 0.051,-0.08 0.041,-0.105c-0.03,-0.066 -0.072,-0.168 -0.123,-0.176c-0.781,-0.129 -1.5,0.138 -2.212,0.39c-0.799,0.285 -1.515,0.718 -2.178,1.258c-0.67,0.545 -1.138,0.539 -1.82,0.007c-0.398,-0.309 -0.749,-0.679 -1.109,-1.033c-0.21,-0.206 -0.389,-0.443 -0.597,-0.651c-0.125,-0.125 -0.29,-0.17 -0.462,-0.083c-0.338,0.172 -0.657,0.403 -1.014,0.51c-1.086,0.328 -2.432,0.351 -2.89,-1.15c-0.298,-0.978 -1.02,-1.608 -1.949,-2.038c-2.029,-0.94 -4.075,-1.812 -6.272,-2.312c-1.153,-0.263 -2.311,-0.471 -3.478,-0.64c-0.498,-0.072 -1.007,-0.071 -1.512,-0.091c-0.067,-0.003 -0.137,0.062 -0.204,0.096c0.037,0.067 0.059,0.171 0.115,0.194c0.427,0.177 0.858,0.348 1.294,0.501c1.193,0.419 2.389,0.831 3.518,1.408c0.411,0.211 0.823,0.431 1.202,0.695c0.647,0.449 1.062,1.071 1.219,1.855c0.05,0.25 -0.177,0.55 -0.419,0.509c-0.498,-0.084 -1,-0.162 -1.483,-0.303c-0.97,-0.284 -1.935,-0.58 -2.856,-1.014c-0.374,-0.176 -0.757,-0.38 -1.194,-0.378c-0.034,-0 -0.076,0.039 -0.1,0.071c-0.02,0.027 -0.037,0.079 -0.025,0.103c0.099,0.184 0.2,0.366 0.31,0.543c0.422,0.68 0.852,1.355 1.267,2.039c0.2,0.33 0.305,0.694 0.263,1.087c-0.02,0.183 -0.125,0.339 -0.287,0.38c-1.012,0.258 -1.989,0.3 -2.886,-0.395c-0.499,-0.386 -1.04,-0.719 -1.579,-1.049c-0.942,-0.574 -1.953,-0.997 -3.037,-1.216c-1.883,-0.38 -3.77,-0.369 -5.654,0.016c-1.001,0.204 -1.948,0.539 -2.784,1.146c-0.408,0.297 -0.819,0.592 -1.227,0.89c-0.17,0.125 -0.332,0.26 -0.504,0.381c-0.158,0.111 -0.361,0.054 -0.541,-0.14c-0.356,-0.382 -0.473,-0.39 -0.747,-0.009c-0.221,0.307 -0.429,0.626 -0.62,0.953c-0.619,1.055 -1.154,2.153 -1.648,3.272c-0.425,0.963 -0.833,1.94 -1.344,2.858c-1.045,1.879 -2.252,3.66 -3.481,5.424c-0.168,0.241 -0.352,0.478 -0.561,0.684c-0.521,0.515 -1.105,0.911 -1.889,0.881c-0.162,-0.007 -0.33,0.039 -0.485,0.09c-0.053,0.017 -0.114,0.129 -0.106,0.19c0.021,0.165 0.058,0.332 0.12,0.485c0.34,0.831 0.454,1.709 0.545,2.59c0.105,1.022 -0.048,2.015 -0.394,2.983c-0.146,0.405 -0.367,0.756 -0.659,1.066c-0.134,0.142 -0.388,0.18 -0.583,0.09c-0.448,-0.207 -0.593,-0.444 -0.528,-0.886c0.024,-0.166 0.064,-0.331 0.097,-0.496c0.316,-1.558 0.252,-3.115 -0.157,-4.637c-0.5,-1.865 -1.535,-3.35 -3.285,-4.287c-0.924,-0.495 -1.916,-0.608 -2.931,-0.658c-1.137,-0.056 -2.163,0.274 -3.1,0.901c-0.848,0.568 -1.596,1.248 -2.19,2.08c-0.612,0.858 -1.214,1.723 -1.791,2.605c-1.602,2.453 -2.826,5.076 -3.485,7.946c-0.438,1.904 -0.56,3.83 -0.415,5.777c0.048,0.642 0.241,1.236 0.533,1.805c0.282,0.549 0.696,0.934 1.279,1.157c0.898,0.342 1.806,0.415 2.726,0.141c1.019,-0.304 1.962,-0.769 2.787,-1.449c0.391,-0.32 0.755,-0.673 1.14,-1c0.086,-0.073 0.208,-0.114 0.32,-0.14c0.079,-0.017 0.088,0.286 0.002,0.47c-0.054,0.115 -0.112,0.227 -0.169,0.34c-0.567,1.135 -1.254,2.189 -2.03,3.195c-1.64,2.125 -2.82,4.491 -3.555,7.072c-0.312,1.093 -0.582,2.198 -0.847,3.305c-0.696,2.911 -1.247,5.85 -1.622,8.82c-0.143,1.128 -0.31,2.252 -0.31,3.397c-0.003,2.149 -0.051,4.298 -0.08,6.447c-0.004,0.253 0.008,0.507 -0.013,0.759c-0.017,0.208 -0.063,0.415 -0.113,0.619c-0.019,0.077 -0.091,0.202 -0.13,0.2c-0.117,-0.011 -0.267,-0.04 -0.338,-0.121c-0.32,-0.36 -0.395,-0.837 -0.508,-1.28c-0.51,-2.003 -0.92,-4.029 -1.076,-6.093c-0.184,-2.443 -0.119,-4.888 0.123,-7.325c0.083,-0.837 0.128,-1.675 0.304,-2.508c0.332,-1.57 0.834,-3.089 1.28,-4.626c0.639,-2.199 1.526,-4.282 2.758,-6.217c0.338,-0.531 0.616,-1.101 0.912,-1.658c0.089,-0.169 -0.008,-0.333 -0.208,-0.354c-0.846,-0.089 -1.655,-0.302 -2.408,-0.709c-0.257,-0.138 -0.52,-0.264 -0.78,-0.396c-0.306,0.206 -0.302,0.569 -0.421,0.865c-0.157,0.39 -0.274,0.797 -0.403,1.198c-0.578,1.804 -1.179,3.602 -1.721,5.418c-0.289,0.967 -0.494,1.961 -0.699,2.951c-0.454,2.186 -0.861,4.382 -1.333,6.564c-0.268,1.237 -0.519,2.476 -0.616,3.737c-0.238,3.118 -0.237,6.236 0.201,9.339c0.164,1.166 0.305,2.341 0.711,3.461c0.244,0.673 0.48,1.349 0.701,2.03c0.669,2.048 1.637,3.972 2.488,5.943c0.735,1.702 1.485,3.397 2.256,5.083c0.779,1.699 0.988,3.469 0.758,5.309c-0.035,0.29 -0.041,0.586 -0.033,0.879c0.006,0.235 0.299,0.466 0.529,0.445c0.126,-0.011 0.253,-0.022 0.374,-0.05c2.8,-0.654 5.634,-1.045 8.508,-1.124c0.588,-0.016 1.178,0.022 1.766,0.058c1.27,0.077 2.5,0.365 3.715,0.727c0.847,0.252 1.692,0.516 2.538,0.773c2.344,0.713 4.73,1.231 7.166,1.492c0.795,0.086 1.599,0.095 2.399,0.123c4.019,0.144 8.002,-0.107 11.935,-1.009c1.851,-0.425 3.642,-1.05 5.472,-1.543c2.208,-0.943 4.464,-1.779 6.598,-2.889c0.673,-0.35 1.317,-0.755 1.996,-1.092c1.89,-0.94 3.706,-2.002 5.429,-3.223c0.618,-0.439 1.21,-0.917 1.841,-1.336c2.247,-1.491 4.053,-3.417 5.589,-5.612c1.333,-1.904 2.418,-3.952 3.48,-6.014c0.328,-0.639 0.559,-1.329 0.658,-2.036c0.111,-0.788 0.473,-1.42 0.934,-2.038c1.235,-1.656 2.452,-3.324 3.658,-5c0.788,-1.095 1.547,-2.21 2.309,-3.322c0.238,-0.347 0.446,-0.715 0.66,-1.077c0.088,-0.149 0.116,-0.313 0.045,-0.482c0.111,0.001 0.109,-0.075 0.04,-0.056c-0.16,0.045 0.004,-0.085 -0.013,0.082Zm-179.084,20.596c-0.111,-2.068 0.193,-4.119 0.295,-6.18c0.053,-1.053 0.118,-2.105 0.182,-3.157c0.024,-0.385 -0.031,-0.755 -0.168,-1.115c-0.461,-1.222 -0.915,-2.446 -1.374,-3.669c-0.518,-1.38 -1.04,-2.759 -1.556,-4.141c-0.663,-1.775 -1.324,-3.552 -1.982,-5.331c-0.249,-0.672 -0.421,-1.362 -0.549,-2.072c-0.375,-2.073 -0.793,-4.137 -1.194,-6.206c-0.409,-2.109 -0.801,-4.22 -1.283,-6.316c-0.542,-2.361 -1.506,-4.555 -2.53,-6.728c-0.361,-0.766 -0.864,-1.446 -1.435,-2.074c-0.214,-0.235 -0.466,-0.335 -0.789,-0.292c-0.877,0.117 -1.757,0.21 -2.633,0.329c-3.094,0.421 -6.201,0.677 -9.321,0.793c-1.77,0.066 -3.533,0.217 -5.296,0.381c-0.67,0.062 -1.347,0.045 -2.021,0.043c-0.325,-0.001 -0.511,-0.291 -0.426,-0.626c0.052,-0.203 0.099,-0.413 0.187,-0.602c0.487,-1.042 0.452,-0.976 1.497,-1.03c1.767,-0.089 3.538,-0.136 5.304,-0.252c1.808,-0.119 3.612,-0.305 5.419,-0.455c0.417,-0.035 0.717,-0.228 0.898,-0.599c0.315,-0.643 0.624,-1.289 0.93,-1.936c0.324,-0.686 0.641,-1.374 0.962,-2.061c0.241,-0.515 0.625,-0.887 1.129,-1.15c1.385,-0.719 2.774,-1.413 4.289,-1.84c3.49,-0.983 7.012,-1.823 10.57,-2.515c1.739,-0.339 3.45,-0.777 5.146,-1.293c1.892,-0.576 3.803,-1.098 5.717,-1.6c0.649,-0.17 1.329,-0.22 1.998,-0.307c0.637,-0.083 1.261,0.052 1.881,0.174c0.201,0.039 0.399,0.142 0.572,0.257c0.715,0.473 1.304,1.064 1.655,1.864c0.457,1.042 0.912,2.085 1.137,3.211c0.099,0.494 0.239,0.982 0.381,1.467c0.128,0.439 0.334,0.562 0.74,0.47c0.205,-0.046 0.406,-0.111 0.609,-0.167c2.437,-0.678 4.849,-1.43 7.207,-2.349c0.667,-0.26 1.342,-0.503 2.019,-0.734c2.396,-0.817 4.737,-1.768 7.032,-2.833c2.453,-1.138 4.981,-2.053 7.583,-2.791c2.472,-0.702 4.945,-1.401 7.446,-1.994c2.298,-0.544 4.629,-0.912 6.966,-1.239c3.223,-0.451 6.463,-0.601 9.715,-0.517c0.505,0.013 1.011,0.056 1.446,-0.304c0.202,-0.166 0.47,-0.173 0.725,-0.168c0.253,0.005 0.507,0.004 0.758,0.032c2.43,0.27 4.86,0.535 7.288,0.823c1.633,0.194 3.247,0.508 4.848,0.883c4.11,0.961 8.151,2.135 11.992,3.923c0.114,0.054 0.23,0.104 0.348,0.15c2.46,0.96 4.65,2.365 6.672,4.049c0.259,0.215 0.521,0.428 0.786,0.635c0.139,0.109 0.323,0.085 0.44,-0.067c0.389,-0.498 0.773,-1 1.154,-1.505c0.532,-0.707 1.052,-1.424 1.593,-2.124c0.703,-0.911 1.573,-1.639 2.533,-2.267c0.427,-0.279 0.884,-0.467 1.389,-0.58c1.898,-0.426 3.686,-0.148 5.371,0.803c0.439,0.248 0.846,0.552 1.269,0.829c0.137,0.09 0.32,0.047 0.425,-0.106c0.072,-0.104 0.136,-0.213 0.198,-0.322c0.213,-0.374 0.504,-0.672 0.84,-0.935c0.771,-0.602 1.408,-1.328 1.975,-2.122c0.956,-1.337 1.937,-2.657 2.875,-4.006c1.471,-2.115 3.029,-4.162 4.759,-6.066c1.342,-1.478 2.919,-2.673 4.828,-3.364c0.199,-0.071 0.397,-0.141 0.593,-0.219c0.243,-0.096 0.443,-0.24 0.531,-0.503c0.026,-0.08 0.067,-0.155 0.096,-0.234c0.601,-1.701 1.862,-2.761 3.419,-3.543c2.973,-1.494 6.13,-2.083 9.434,-1.893c0.838,0.048 1.685,0.163 2.499,0.365c1.798,0.446 3.594,0.919 5.361,1.471c1.528,0.478 3.005,1.105 4.385,1.937c1.024,0.617 1.901,1.394 2.639,2.331c0.157,0.199 0.297,0.413 0.47,0.596c0.285,0.297 0.399,0.829 0.865,0.859c0.384,0.025 0.623,-0.391 0.942,-0.587c0.793,-0.488 1.636,-0.859 2.505,-1.194c2.066,-0.799 4.197,-0.878 6.354,-0.627c3.681,0.428 6.989,1.825 10.006,3.951c0.448,0.315 0.899,0.627 1.357,0.928c0.493,0.325 1.018,0.587 1.571,0.805c1.176,0.462 2.347,0.941 3.508,1.439c1.844,0.792 3.439,1.952 4.879,3.339c0.552,0.531 1.003,1.144 1.369,1.809c0.926,1.678 1.61,3.436 1.566,5.396c-0.009,0.449 0.098,0.825 0.413,1.147c0.147,0.151 0.277,0.318 0.415,0.477c0.77,0.884 1.221,1.927 1.398,3.068c0.168,1.08 0.297,2.167 0.294,3.271c-0.005,2.287 -0.987,4.054 -2.774,5.407c-1.016,0.77 -2.154,1.32 -3.355,1.738c-0.199,0.069 -0.398,0.142 -0.602,0.194c-0.76,0.196 -0.82,0.263 -0.723,1.154c0.244,2.242 -0.013,4.449 -0.49,6.651c-0.6,2.772 -1.493,5.443 -2.597,8.046c-0.592,1.396 -1.179,2.797 -1.937,4.116c-0.84,1.461 -1.69,2.916 -2.536,4.374c-0.232,0.4 -0.471,0.795 -0.697,1.199c-0.086,0.152 0.058,0.339 0.247,0.318c0.249,-0.028 0.496,-0.072 0.744,-0.111c0.165,-0.025 0.33,-0.057 0.495,-0.082c0.111,-0.016 0.24,0.113 0.228,0.231c-0.034,0.334 -0.113,0.662 -0.026,1.003c0.083,0.33 0.372,0.517 0.653,0.379c0.949,-0.467 1.849,-1.015 2.663,-1.69c0.258,-0.214 0.483,-0.471 0.701,-0.727c0.108,-0.126 0.155,-0.295 0.055,-0.466c-0.115,-0.199 -0.294,-0.311 -0.515,-0.307c-0.162,0.003 -0.33,0.054 -0.485,0.111c-0.515,0.186 -1.022,0.389 -1.537,0.573c-0.113,0.041 -0.27,0.049 -0.329,-0.091c-0.044,-0.105 -0.067,-0.248 -0.034,-0.352c0.09,-0.28 0.217,-0.549 0.327,-0.822c0.35,-0.867 0.594,-1.755 0.547,-2.704c-0.007,-0.123 0.016,-0.251 0.045,-0.372c0.041,-0.173 0.143,-0.31 0.326,-0.343c0.182,-0.032 0.35,0.046 0.414,0.211c0.165,0.431 0.311,0.871 0.444,1.313c0.06,0.199 0.047,0.421 0.111,0.618c0.034,0.105 0.148,0.207 0.252,0.259c0.107,0.054 0.245,0.054 0.37,0.065c0.664,0.054 1.18,0.393 1.674,0.811c0.689,0.582 1.035,1.303 1.067,2.201c0.025,0.678 -0.006,1.348 -0.141,2.013c-0.05,0.248 -0.112,0.494 -0.149,0.743c-0.039,0.258 0.002,0.502 0.207,0.694c0.093,0.087 0.176,0.182 0.264,0.274c0.518,0.546 0.735,1.21 0.792,1.948c0.159,2.076 -0.208,4.029 -1.317,5.817c-0.178,0.285 -0.345,0.577 -0.51,0.87c-0.083,0.149 0.045,0.332 0.225,0.347c0.382,0.032 0.756,0.006 1.125,-0.111c0.602,-0.191 1.207,-0.374 1.81,-0.562c1.85,-0.575 3.7,-1.153 5.553,-1.722c0.155,-0.048 0.326,-0.045 0.491,-0.057c0.037,-0.003 0.096,0.021 0.11,0.049c0.012,0.025 -0.015,0.089 -0.044,0.11c-0.13,0.099 -0.255,0.22 -0.404,0.279c-2.314,0.913 -4.574,1.945 -6.817,3.019c-0.802,0.383 -1.677,0.559 -2.545,0.737c-0.206,0.042 -0.416,0.066 -0.624,0.102c-0.847,0.146 -1.587,0.495 -2.265,1.042c-1.835,1.483 -3.699,2.933 -5.555,4.391c-0.43,0.339 -0.877,0.657 -1.316,0.985c-1.901,1.42 -3.588,3.069 -5.142,4.853c-1.384,1.59 -2.738,3.207 -4.096,4.819c-0.27,0.321 -0.499,0.678 -0.747,1.019c-0.396,0.545 -0.784,1.097 -1.192,1.635c-0.919,1.211 -1.735,2.483 -2.409,3.851c-1.248,2.532 -2.513,5.058 -3.812,7.564c-1.272,2.458 -2.99,4.569 -5.035,6.439c-1.259,1.151 -2.648,2.082 -4.141,2.876c-1.391,0.741 -2.894,1.142 -4.441,1.397c-0.249,0.041 -0.504,0.046 -0.752,0.095c-0.177,0.034 -0.296,0.17 -0.304,0.353c-0.037,0.842 -0.078,1.684 -0.091,2.526c-0.018,1.253 -0.362,2.413 -0.967,3.498c-0.534,0.957 -1.064,1.917 -1.643,2.847c-0.969,1.56 -2.296,2.797 -3.713,3.938c-0.426,0.343 -0.923,0.576 -1.448,0.759c-1.714,0.598 -3.479,1.016 -5.24,1.432c-1.889,0.446 -3.761,0.943 -5.604,1.545c-2.042,0.668 -4.136,1.172 -6.144,1.947c-2.004,0.773 -4.01,1.542 -6.011,2.327c-1.026,0.403 -1.949,0.998 -2.859,1.611c-0.526,0.353 -1.061,0.686 -1.653,0.92c-0.614,0.244 -1.145,0.172 -1.59,-0.361c-0.298,-0.354 -0.637,-0.674 -0.937,-1.027c-0.28,-0.332 -0.627,-0.408 -1.025,-0.328c-0.62,0.125 -1.24,0.25 -1.855,0.392c-2.506,0.577 -5.03,1.059 -7.563,1.497c-2.075,0.358 -4.15,0.729 -6.23,1.055c-1.457,0.229 -2.923,0.407 -4.388,0.58c-2.051,0.243 -4.102,0.489 -6.158,0.678c-1.931,0.178 -3.867,0.286 -5.801,0.42c-0.673,0.046 -1.347,0.096 -2.02,0.107c-2.066,0.034 -4.131,0.048 -6.197,0.072c-0.335,0.005 -0.672,0.017 -1.006,0.04c-0.147,0.01 -0.218,0.144 -0.21,0.264c0.01,0.165 0.058,0.331 0.117,0.487c0.315,0.836 0.792,1.586 1.345,2.278c1.238,1.547 2.451,3.119 3.772,4.593c1.358,1.516 2.522,3.158 3.593,4.878c0.133,0.214 0.246,0.442 0.345,0.674c0.463,1.085 0.92,2.172 1.371,3.263c0.063,0.153 0.084,0.324 0.116,0.488c0.025,0.127 -0.122,0.355 -0.247,0.406c-0.32,0.129 -0.657,0.167 -0.991,0.118c-0.152,-0.023 -0.323,-0.123 -0.423,-0.24c-0.189,-0.222 -0.349,-0.474 -0.495,-0.729c-0.5,-0.879 -1.009,-1.754 -1.479,-2.65c-0.728,-1.39 -1.645,-2.646 -2.65,-3.845c-1.165,-1.389 -2.343,-2.768 -3.486,-4.175c-0.636,-0.784 -1.238,-1.601 -1.81,-2.435c-0.644,-0.939 -1.203,-1.931 -1.58,-3.015c-0.109,-0.315 -0.327,-0.485 -0.648,-0.518c-1.259,-0.128 -2.516,-0.264 -3.776,-0.372c-3.152,-0.267 -6.287,-0.656 -9.39,-1.274c-0.951,-0.19 -1.901,-0.38 -2.849,-0.581c-0.412,-0.087 -0.826,-0.176 -1.226,-0.306c-2.886,-0.935 -5.791,-1.814 -8.555,-3.09c-0.649,-0.3 -1.332,-0.527 -1.986,-0.818c-3.503,-1.566 -6.95,-3.243 -10.249,-5.21c-0.507,-0.301 -0.984,-0.651 -1.479,-0.972c-0.353,-0.227 -0.713,-0.445 -1.073,-0.663c-0.1,-0.06 -0.275,0.041 -0.281,0.153c-0.046,0.938 0.111,1.85 0.375,2.743c0.394,1.333 0.803,2.662 1.223,3.988c0.581,1.833 1.554,3.461 2.758,4.939c1.223,1.503 2.538,2.924 3.958,4.256c1.908,1.788 3.666,3.726 5.246,5.817c0.153,0.201 0.315,0.396 0.481,0.586c1.085,1.239 2.075,2.551 2.996,3.915c0.543,0.804 1.102,1.595 1.648,2.396c0.118,0.173 0.022,0.455 -0.158,0.537c-0.641,0.294 -1.311,0.309 -1.981,0.164c-0.334,-0.073 -0.607,-0.3 -0.832,-0.555c-0.306,-0.347 -0.593,-0.712 -0.881,-1.077c-1.277,-1.622 -2.541,-3.257 -3.832,-4.87c-1.106,-1.383 -2.259,-2.725 -3.499,-3.993c-1.503,-1.537 -2.978,-3.102 -4.46,-4.66c-0.348,-0.366 -0.686,-0.742 -1.014,-1.128c-1.354,-1.59 -2.378,-3.371 -3.08,-5.337c-0.142,-0.397 -0.276,-0.798 -0.439,-1.186c-0.787,-1.875 -1.34,-3.816 -1.655,-5.822c-0.151,-0.956 -0.286,-1.918 -0.373,-2.882c-0.044,-0.492 -0.167,-0.892 -0.566,-1.207c-1.601,-1.265 -2.827,-2.887 -4.17,-4.398c-1.486,-1.671 -2.914,-3.388 -4.262,-5.171c-0.356,-0.471 -0.727,-0.935 -1.033,-1.437c-1.272,-2.087 -2.559,-4.168 -3.65,-6.359c-0.639,-1.282 -1.254,-2.573 -1.699,-3.942c-0.324,-1.001 -0.727,-1.977 -1.072,-2.972c-0.72,-2.072 -1.279,-4.19 -1.756,-6.329c-0.404,-1.81 -0.816,-3.617 -1.186,-5.433c-0.159,-0.782 -0.272,-1.582 -0.317,-2.379c-0.106,-1.85 -0.346,-3.696 -0.238,-5.56Z" style="fill:#231f20;fill-rule:nonzero;"/>
      <path d="M332.867,344.452c0.041,-1.728 0.051,-3.457 0.133,-5.183c0.059,-1.262 0.207,-2.52 0.323,-3.78c0.066,-0.712 0.135,-1.426 0.225,-2.137c0.08,-0.63 0.137,-1.249 -0.031,-1.88c-0.14,-0.526 0.028,-1.014 0.392,-1.402c0.402,-0.43 0.822,-0.847 1.271,-1.227c2.358,-1.997 4.952,-3.649 7.649,-5.143c0.699,-0.387 1.409,-0.758 2.128,-1.11c1.067,-0.522 2.207,-0.827 3.367,-1.055c0.198,-0.039 0.415,0.002 0.619,0.032c0.051,0.007 0.131,0.125 0.121,0.179c-0.081,0.467 -0.307,0.873 -0.62,1.218c-0.598,0.659 -1.261,1.222 -2.085,1.609c-1.22,0.572 -2.407,1.214 -3.608,1.826c-1.324,0.675 -2.456,1.63 -3.628,2.523c-0.771,0.587 -1.51,1.217 -2.259,1.833c-0.195,0.161 -0.381,0.332 -0.562,0.51c-0.777,0.763 -0.771,0.789 -0.825,1.873c-0.214,4.297 -0.268,8.595 -0.318,12.896c-0.039,3.456 -0.223,6.91 -0.721,10.337c-0.121,0.833 -0.33,1.653 -0.453,2.487c-0.401,2.717 -1.126,5.356 -1.868,7.993c-0.227,0.811 -0.414,1.634 -0.632,2.447c-0.173,0.651 -0.345,1.304 -0.556,1.944c-0.686,2.079 -1.353,4.166 -2.102,6.223c-0.519,1.423 -1.12,2.821 -1.757,4.195c-1.577,3.404 -3.231,6.771 -5.127,10.012c-1.129,1.927 -2.256,3.856 -3.422,5.76c-0.991,1.616 -2,3.222 -3.067,4.788c-1.044,1.532 -2.172,3.007 -3.264,4.507c-0.024,0.034 -0.051,0.066 -0.075,0.101c-2.393,3.529 -5.169,6.763 -7.795,10.113c-1.826,2.33 -3.912,4.415 -6.039,6.462c-0.699,0.672 -1.386,1.35 -2.006,2.101c-1.9,2.297 -4.217,4.116 -6.709,5.724c-1.1,0.46 -1.986,1.246 -2.957,1.906c-1.147,0.78 -2.341,1.489 -3.519,2.224c-2.576,1.607 -5.269,3.006 -7.96,4.407c-0.559,0.292 -1.146,0.533 -1.729,0.777c-3.228,1.349 -6.479,2.634 -9.886,3.479c-1.92,0.475 -3.827,1.006 -5.75,1.473c-1.514,0.368 -3.042,0.673 -4.608,0.76c-2.651,0.149 -5.3,0.321 -7.951,0.475c-1.473,0.086 -2.948,0.137 -4.42,0.239c-1.305,0.09 -2.598,0.263 -3.842,0.708c-0.754,0.269 -1.524,0.491 -2.28,0.756c-1.55,0.541 -3.113,1.04 -4.688,1.512c-1.734,0.519 -3.434,1.153 -5.149,1.735c-0.479,0.162 -0.961,0.317 -1.442,0.473c-0.452,0.145 -0.922,0.183 -1.371,0.043c-1.084,-0.34 -2.166,-0.695 -3.232,-1.087c-0.676,-0.249 -1.108,-0.75 -1.233,-1.482c-0.008,-0.042 -0.018,-0.083 -0.024,-0.125c-0.102,-0.677 -0.391,-1.283 -0.704,-1.884c-0.701,-1.347 -1.464,-2.658 -2.298,-3.926c-0.347,-0.527 -0.731,-1.035 -1.144,-1.512c-0.924,-1.066 -2.016,-1.911 -3.357,-2.401c-0.277,-0.102 -0.546,-0.223 -0.821,-0.328c-0.246,-0.094 -0.483,-0.212 -0.513,-0.499c-0.046,-0.435 0.02,-0.851 0.413,-1.125c0.092,-0.065 0.241,-0.097 0.352,-0.077c0.542,0.101 1.049,0.308 1.54,0.557c2.11,1.067 3.883,2.518 5.175,4.521c0.159,0.248 0.31,0.504 0.485,0.74c1.01,1.358 1.91,2.778 2.506,4.374c0.124,0.331 0.408,0.426 0.715,0.242c0.287,-0.172 0.56,-0.373 0.826,-0.577c1.543,-1.186 3.155,-2.245 4.97,-2.987c1.139,-0.465 2.318,-0.764 3.509,-1.037c0.5,-0.115 1.005,-0.099 1.51,-0.047c3.862,0.395 7.73,0.612 11.615,0.505c2.402,-0.065 4.806,-0.041 7.209,-0.063c0.716,-0.006 1.433,-0.023 2.149,-0.049c0.508,-0.018 0.981,-0.128 1.452,-0.365c0.558,-0.281 1.18,-0.435 1.773,-0.647c0.831,-0.298 1.679,-0.56 2.441,-1.024c0.072,-0.044 0.142,-0.1 0.221,-0.122c1.265,-0.347 2.343,-1.14 3.599,-1.515c0.316,-0.095 0.627,-0.256 0.898,-0.447c0.522,-0.368 1.096,-0.631 1.678,-0.869c1.793,-0.733 3.522,-1.598 5.26,-2.451c1.135,-0.558 2.191,-1.253 3.332,-1.794c0.419,-0.199 0.818,-0.444 1.247,-0.615c2.325,-0.929 4.398,-2.303 6.497,-3.634c0.605,-0.383 1.246,-0.718 1.816,-1.147c2.595,-1.948 5.201,-3.883 7.697,-5.96c1.006,-0.836 1.931,-1.76 2.825,-2.716c1.441,-1.539 2.884,-3.076 4.33,-4.609c2.519,-2.67 4.843,-5.509 7.209,-8.312c2.801,-3.318 5.503,-6.718 8.181,-10.135c2.106,-2.687 4.187,-5.395 5.971,-8.317c2.021,-3.309 4.007,-6.639 5.946,-9.997c0.907,-1.573 1.741,-3.178 2.466,-4.84c0.119,-0.27 0.252,-0.536 0.351,-0.812c0.749,-2.103 1.493,-4.208 2.236,-6.313c0.084,-0.238 0.151,-0.483 0.236,-0.721c0.874,-2.422 1.496,-4.914 2.06,-7.423c0.389,-1.73 0.606,-3.485 0.846,-5.238c0.297,-2.173 0.494,-4.356 0.594,-6.545c0.044,-0.969 0.057,-1.938 0.084,-2.906c-0.014,-0.001 -0.027,-0.001 -0.041,-0.002Z" style="fill:#231f20;fill-rule:nonzero;"/>
      <path d="M250.945,293.511c-1.053,0.025 -2.107,0.05 -3.16,0.074c-0.338,0.008 -0.677,-0.001 -1.012,0.031c-0.662,0.065 -1.136,-0.236 -1.512,-0.74c-0.757,-1.015 -1.441,-2.071 -1.924,-3.254c-0.812,-1.99 -1.58,-3.995 -2.252,-6.037c-0.103,-0.315 -0.269,-0.61 -0.412,-0.911c-0.014,-0.03 -0.071,-0.039 -0.107,-0.057c-0.087,-0.046 -0.162,-0.021 -0.195,0.083c-0.091,0.278 -0.192,0.555 -0.254,0.84c-0.419,1.935 -0.827,3.872 -1.242,5.808c-0.044,0.204 -0.099,0.409 -0.175,0.603c-0.121,0.304 -0.555,0.453 -0.862,0.308c-0.418,-0.196 -0.659,-0.531 -0.675,-0.988c-0.009,-0.248 0.062,-0.499 0.096,-0.749c0.084,-0.61 -0.056,-0.742 -0.697,-0.638c-1.665,0.272 -3.32,0.58 -4.935,1.078c-0.563,0.175 -1.134,0.325 -1.707,0.465c-1.563,0.382 -3.055,0.951 -4.493,1.665c-2.68,1.329 -5.38,2.618 -8.023,4.017c-2.234,1.181 -4.396,2.498 -6.594,3.747c-1.65,0.938 -3.257,1.945 -4.808,3.038c-0.722,0.509 -1.414,1.062 -2.116,1.6c-2.112,1.621 -3.969,3.526 -5.895,5.353c-0.793,0.752 -1.496,1.599 -2.231,2.412c-0.932,1.032 -1.853,2.075 -2.784,3.108c-0.111,0.123 -0.253,0.218 -0.383,0.322c-0.086,0.068 -0.285,0.012 -0.32,-0.085c-0.044,-0.118 -0.115,-0.235 -0.123,-0.355c-0.039,-0.63 -0.064,-1.262 -0.09,-1.893c-0.017,-0.404 0.142,-0.735 0.425,-1.017c0.658,-0.654 1.311,-1.312 1.967,-1.966c0.478,-0.476 0.985,-0.925 1.431,-1.429c0.672,-0.76 1.406,-1.454 2.158,-2.132c0.907,-0.819 1.824,-1.626 2.742,-2.435c0.22,-0.195 0.449,-0.384 0.686,-0.558c1.903,-1.397 3.798,-2.801 5.717,-4.176c0.718,-0.514 1.484,-0.963 2.236,-1.427c0.789,-0.486 1.584,-0.962 2.383,-1.432c0.726,-0.427 1.453,-0.853 2.194,-1.256c1.294,-0.705 2.596,-1.399 3.901,-2.085c0.97,-0.51 1.949,-1.001 2.924,-1.5c0.862,-0.442 1.707,-0.921 2.589,-1.316c3.473,-1.555 7.056,-2.767 10.824,-3.387c1.038,-0.171 2.071,-0.382 3.109,-0.559c0.335,-0.057 0.52,-0.243 0.618,-0.548c0.387,-1.202 0.824,-2.394 0.835,-3.682c0.004,-0.505 0.253,-0.921 0.92,-1.014c0.29,-0.041 0.588,-0.063 0.879,-0.044c0.689,0.044 1.191,0.399 1.487,1.018c0.199,0.418 0.374,0.849 0.541,1.281c0.399,1.031 0.962,1.965 1.641,2.833c0.779,0.996 1.548,2 2.326,2.998c0.57,0.73 1.166,1.443 1.598,2.271c0.197,0.376 0.529,0.522 0.939,0.525c0.547,0.003 1.095,0.009 1.644,0.01c1.939,0.002 3.875,0.049 5.812,0.192c1.512,0.113 3.029,0.159 4.538,0.335c3.473,0.403 6.956,0.735 10.374,1.519c3.203,0.735 6.387,1.524 9.498,2.612c2.504,0.876 5.032,1.689 7.496,2.676c0.978,0.391 1.942,0.814 2.91,1.228c0.581,0.249 1.151,0.527 1.739,0.756c2.716,1.059 5.291,2.405 7.83,3.825c0.589,0.329 1.188,0.64 1.779,0.962c0.852,0.463 1.719,0.9 2.549,1.399c2.53,1.517 5.045,3.057 7.565,4.59c1.116,0.678 2.254,1.321 3.308,2.1c0.693,0.513 1.481,0.747 2.351,0.809c2.396,0.17 4.79,0.371 7.182,0.594c5.551,0.518 11.022,1.471 16.362,3.104c1.249,0.382 2.496,0.767 3.737,1.175c0.395,0.129 0.801,0.262 1.131,0.542c0.112,0.095 0.14,0.345 0.028,0.453c-0.12,0.117 -0.234,0.248 -0.375,0.331c-0.4,0.235 -0.812,0.447 -1.217,0.672c-0.626,0.348 -1.282,0.394 -1.957,0.188c-2.585,-0.789 -5.238,-1.255 -7.886,-1.772c-3.689,-0.719 -7.413,-1.114 -11.145,-1.479c-1.888,-0.185 -3.775,-0.375 -5.663,-0.559c-0.545,-0.054 -1.091,-0.098 -1.637,-0.142c-1.554,-0.128 -3.107,-0.268 -4.662,-0.374c-1.892,-0.129 -3.785,-0.303 -5.679,-0.327c-4.595,-0.058 -9.191,-0.036 -13.785,-0.055c-1.523,-0.006 -3.028,0.194 -4.541,0.313c-1.343,0.104 -2.686,0.246 -4.023,0.419c-1.295,0.167 -2.584,0.378 -3.87,0.601c-1.577,0.273 -3.148,0.582 -4.723,0.866c-0.498,0.09 -1,0.168 -1.509,0.103c-0.07,-0.009 -0.19,-0.085 -0.188,-0.125c0.004,-0.113 0.03,-0.257 0.104,-0.33c0.118,-0.114 0.276,-0.193 0.429,-0.263c0.344,-0.16 0.691,-0.313 1.042,-0.455c2.037,-0.818 4.138,-1.429 6.262,-1.975c1.718,-0.442 3.46,-0.727 5.211,-0.985c2.047,-0.302 4.105,-0.451 6.16,-0.643c0.294,-0.028 0.589,-0.047 0.884,-0.057c4.17,-0.146 8.329,-0.532 12.505,-0.548c0.125,-0 0.251,-0.023 0.375,-0.044c0.031,-0.006 0.08,-0.044 0.081,-0.069c0.004,-0.079 0.02,-0.193 -0.023,-0.23c-0.252,-0.221 -0.508,-0.442 -0.784,-0.631c-2.195,-1.495 -4.423,-2.938 -6.763,-4.201c-2.484,-1.341 -4.913,-2.783 -7.467,-3.997c-3.844,-1.827 -7.702,-3.621 -11.733,-5.009c-0.478,-0.164 -0.949,-0.352 -1.412,-0.553c-3.73,-1.615 -7.619,-2.692 -11.596,-3.488c-2.273,-0.455 -4.559,-0.832 -6.852,-1.161c-1.043,-0.15 -2.094,-0.237 -3.143,-0.34c-2.14,-0.209 -4.287,-0.319 -6.438,-0.37Z" style="fill:#231f20;fill-rule:nonzero;"/>
      <path d="M264.737,357.827c-0.062,-0.049 -0.173,-0.095 -0.177,-0.148c-0.021,-0.344 0.103,-0.657 0.239,-0.968c0.726,-1.658 1.476,-3.303 2.343,-4.894c0.869,-1.594 1.819,-3.128 2.982,-4.526c0.216,-0.258 0.416,-0.531 0.649,-0.773c1.199,-1.24 2.389,-2.492 3.617,-3.703c1.199,-1.184 2.52,-2.224 3.879,-3.226c1.697,-1.252 3.495,-2.342 5.246,-3.507c1.445,-0.96 2.975,-1.742 4.546,-2.454c0.223,-0.101 0.473,-0.142 0.713,-0.201c0.028,-0.008 0.079,0.034 0.102,0.065c0.021,0.028 0.034,0.084 0.019,0.108c-0.106,0.177 -0.191,0.379 -0.335,0.518c-0.848,0.818 -1.683,1.652 -2.573,2.422c-1.019,0.879 -2.081,1.711 -3.144,2.538c-1.262,0.982 -2.536,1.949 -3.821,2.901c-1.121,0.831 -2.103,1.817 -3.09,2.79c-1.68,1.654 -3.333,3.333 -4.829,5.163c-0.963,1.176 -1.77,2.458 -2.662,3.682c-0.843,1.156 -1.647,2.342 -2.645,3.376c-0.263,0.272 -0.544,0.525 -0.826,0.776c-0.054,0.047 -0.154,0.042 -0.233,0.061Z" style="fill:#231f20;fill-rule:nonzero;"/>
      <path d="M168.383,276.463c0.077,0.028 0.164,0.043 0.228,0.089c0.064,0.047 0.115,0.121 0.156,0.192c0.487,0.837 0.905,1.706 1.237,2.619c0.791,2.172 1.596,4.339 2.401,6.506c0.629,1.694 1.263,3.387 1.907,5.076c0.24,0.628 0.513,1.243 0.775,1.863c0.702,1.665 1.407,3.33 2.112,4.995c0.082,0.194 0.159,0.384 0.124,0.606c-0.023,0.139 -0.249,0.304 -0.371,0.231c-0.214,-0.128 -0.455,-0.237 -0.622,-0.413c-0.288,-0.305 -0.558,-0.634 -0.781,-0.987c-0.654,-1.03 -1.285,-2.075 -1.773,-3.196c-1.429,-3.275 -2.896,-6.532 -4.23,-9.849c-0.691,-1.719 -1.388,-3.427 -1.861,-5.22c-0.043,-0.163 -0.101,-0.321 -0.148,-0.483c-0.223,-0.779 0.052,-1.399 0.622,-1.92c0.059,-0.054 0.149,-0.074 0.224,-0.109Z" style="fill:#231f20;fill-rule:nonzero;"/>
      <path d="M175.963,273.733c0.119,0.053 0.292,0.095 0.422,0.192c0.69,0.516 1.226,1.14 1.474,1.995c0.41,1.419 0.669,2.871 0.982,4.312c0.654,3.005 1.281,6.017 2.218,8.952c0.307,0.963 0.559,1.943 0.824,2.919c0.054,0.2 0.062,0.415 0.066,0.623c0.002,0.066 -0.067,0.165 -0.128,0.191c-0.065,0.028 -0.185,0.016 -0.236,-0.029c-0.22,-0.192 -0.45,-0.383 -0.63,-0.61c-0.714,-0.901 -1.235,-1.909 -1.593,-3c-0.224,-0.68 -0.433,-1.366 -0.648,-2.048c-1.153,-3.656 -2.31,-7.311 -3.455,-10.969c-0.176,-0.562 -0.306,-1.139 -0.433,-1.714c-0.048,-0.221 0.071,-0.406 0.267,-0.528c0.253,-0.159 0.526,-0.261 0.87,-0.286Z" style="fill:#231f20;fill-rule:nonzero;"/>
      <path d="M166.029,296.032c0.757,0.055 1.497,0.201 2.231,0.396c0.44,0.116 0.738,0.377 0.933,0.778c0.458,0.945 0.917,1.889 1.381,2.832c0.52,1.054 1.047,2.106 1.568,3.16c0.485,0.979 0.969,1.957 1.449,2.939c0.072,0.148 0.142,0.313 0.055,0.476c-0.034,0.063 -0.12,0.103 -0.19,0.14c-0.029,0.015 -0.086,0.006 -0.115,-0.014c-0.729,-0.501 -1.411,-1.044 -1.935,-1.778c-1.564,-2.189 -3.158,-4.355 -4.73,-6.538c-0.417,-0.579 -0.803,-1.181 -1.19,-1.782c-0.083,-0.13 -0.203,-0.318 -0.038,-0.45c0.117,-0.095 0.3,-0.112 0.456,-0.158c0.038,-0.011 0.083,-0.001 0.125,-0.001Z" style="fill:#231f20;fill-rule:nonzero;"/>
      <path d="M188.469,278.917c-0.067,-1.14 -0.019,-2.276 0.041,-3.411c0.011,-0.204 0.078,-0.406 0.134,-0.606c0.039,-0.14 0.311,-0.214 0.43,-0.126c0.101,0.075 0.22,0.134 0.299,0.227c0.191,0.223 0.387,0.449 0.536,0.699c0.67,1.116 0.743,1.044 0.564,2.364c-0.137,1.007 -0.147,2.004 -0.076,3.019c0.157,2.224 0.24,4.454 0.348,6.681c0.015,0.294 0.014,0.591 -0.01,0.884c-0.022,0.277 0.089,0.669 -0.271,0.756c-0.25,0.061 -0.405,-0.255 -0.547,-0.459c-0.418,-0.595 -0.651,-1.232 -0.709,-1.983c-0.21,-2.685 -0.487,-5.364 -0.739,-8.045Z" style="fill:#231f20;fill-rule:nonzero;"/>
      <path d="M233.302,378.741c-0.022,-0.636 -0.062,-1.263 -0.202,-1.886c-0.074,-0.327 -0.091,-0.666 -0.126,-1.001c-0.016,-0.146 0.099,-0.287 0.2,-0.26c0.078,0.021 0.183,0.026 0.227,0.079c0.965,1.142 1.695,2.418 2.051,3.875c0.416,1.701 0.439,3.416 0.093,5.141c-0.173,0.864 -0.522,1.594 -1.243,2.125c-0.203,0.15 -0.382,0.332 -0.581,0.487c-0.403,0.314 -0.751,0.275 -1.097,-0.131c-0.136,-0.159 -0.262,-0.331 -0.363,-0.514c-0.124,-0.223 -0.196,-0.464 -0.097,-0.727c0.132,-0.354 0.252,-0.714 0.389,-1.067c0.259,-0.672 0.455,-1.358 0.517,-2.079c0.032,-0.378 -0.073,-0.572 -0.412,-0.675c-0.483,-0.146 -0.968,-0.301 -1.463,-0.396c-2.316,-0.445 -4.636,-0.868 -6.955,-1.302c-1.284,-0.24 -2.567,-0.481 -3.848,-0.731c-1.178,-0.228 -2.241,-0.736 -3.233,-1.388c-1.059,-0.695 -2.022,-1.508 -2.914,-2.415c-1.87,-1.9 -3.477,-4.012 -5.032,-6.165c-1.628,-2.255 -3.213,-4.541 -4.823,-6.809c-1.269,-1.786 -2.547,-3.566 -3.823,-5.349c-0.073,-0.102 -0.151,-0.203 -0.231,-0.3c-0.334,-0.401 -0.624,-0.496 -1.116,-0.309c-0.472,0.179 -0.929,0.398 -1.395,0.594c-0.793,0.332 -1.438,0.179 -2.037,-0.478c-0.189,-0.207 -0.18,-0.481 0.04,-0.664c1.112,-0.932 2.322,-1.7 3.764,-1.979c1.115,-0.215 2.245,-0.395 3.376,-0.478c0.748,-0.055 1.518,0.042 2.265,0.154c1.927,0.289 3.8,0.77 5.495,1.781c0.213,0.127 0.398,0.302 0.592,0.461c0.025,0.021 0.025,0.076 0.033,0.116c0.018,0.09 -0.03,0.148 -0.142,0.143c-0.167,-0.007 -0.336,-0.015 -0.5,-0.045c-0.29,-0.051 -0.575,-0.136 -0.865,-0.178c-2.474,-0.355 -4.96,-0.327 -7.447,-0.206c-0.124,0.006 -0.245,0.055 -0.366,0.086c-0.088,0.023 -0.179,0.234 -0.135,0.316c0.059,0.11 0.105,0.228 0.173,0.331c1.843,2.774 3.716,5.524 5.789,8.137c1.177,1.484 2.257,3.048 3.362,4.589c1.453,2.027 3.09,3.895 4.833,5.674c1.58,1.614 3.483,2.646 5.7,3.063c2.36,0.444 4.728,0.84 7.093,1.251c1.163,0.202 2.327,0.393 3.49,0.588c0.166,0.028 0.333,0.056 0.5,0.078c0.143,0.02 0.358,-0.138 0.37,-0.279c0.035,-0.419 0.063,-0.839 0.094,-1.258Z" style="fill:#231f20;fill-rule:nonzero;"/>
      <path d="M234.844,337.842c0.025,1.012 -0.249,2.164 -0.425,3.328c-0.042,0.277 -0.305,0.404 -0.577,0.306c-0.744,-0.268 -1.333,-0.71 -1.631,-1.472c-0.061,-0.156 -0.103,-0.32 -0.16,-0.478c-0.118,-0.325 -0.175,-0.364 -0.552,-0.375c-0.211,-0.005 -0.421,0.004 -0.632,-0.003c-0.513,-0.019 -0.999,-0.144 -1.443,-0.407c-0.434,-0.256 -0.867,-0.516 -1.294,-0.785c-0.498,-0.314 -0.986,-0.646 -1.485,-0.96c-1.562,-0.985 -3.275,-1.516 -5.109,-1.662c-0.838,-0.066 -1.679,-0.098 -2.519,-0.142c-0.371,-0.019 -0.395,-0.041 -0.407,-0.461c-0.008,-0.279 -0.087,-0.376 -0.329,-0.37c-0.463,0.011 -0.926,0.042 -1.389,0.045c-0.206,0.001 -0.414,-0.039 -0.622,-0.066c-0.105,-0.013 -0.162,-0.204 -0.114,-0.302c0.158,-0.316 0.457,-0.489 0.716,-0.695c0.277,-0.221 0.467,-0.464 0.489,-0.836c0.015,-0.227 0.181,-0.42 0.403,-0.419c0.484,0.001 0.897,-0.198 1.323,-0.375c0.194,-0.08 0.403,-0.127 0.595,-0.208c0.531,-0.223 1.082,-0.261 1.599,-0.034c0.502,0.22 0.864,0.198 1.175,-0.292c0.107,-0.166 0.4,-0.146 0.578,-0.03c0.036,0.023 0.072,0.045 0.102,0.074c0.59,0.577 1.307,0.72 2.099,0.631c0.251,-0.028 0.504,-0.026 0.757,-0.031c0.261,-0.004 0.509,0.059 0.684,0.263c0.28,0.324 0.62,0.395 1.025,0.318c0.296,-0.056 0.59,-0.048 0.814,0.207c0.224,0.253 0.514,0.259 0.814,0.212c0.166,-0.027 0.33,-0.069 0.497,-0.091c0.224,-0.029 0.417,0.053 0.562,0.218c0.138,0.158 0.253,0.337 0.384,0.501c0.142,0.177 0.341,0.234 0.559,0.233c0.084,-0 0.173,0.005 0.25,-0.022c0.69,-0.234 1.228,0.053 1.723,0.493c0.157,0.139 0.324,0.27 0.471,0.419c0.703,0.718 1.188,1.526 1.072,2.587c-0.019,0.166 -0.003,0.336 -0.003,0.681Z" style="fill:#231f20;fill-rule:nonzero;"/>
      <path d="M182.633,337.141c-0.38,-0.017 -0.759,-0.052 -1.138,-0.046c-0.462,0.007 -0.928,0.02 -1.386,0.08c-0.905,0.119 -1.096,0.356 -1.025,1.234c0.03,0.377 0.084,0.755 0.159,1.126c0.119,0.59 -0.01,1.064 -0.491,1.464c-0.286,0.238 -0.526,0.544 -0.742,0.851c-0.113,0.162 -0.142,0.389 -0.185,0.591c-0.04,0.185 0.218,0.449 0.387,0.4c0.241,-0.07 0.495,-0.13 0.708,-0.255c0.59,-0.345 1.083,-0.799 1.415,-1.41c0.1,-0.183 0.206,-0.363 0.315,-0.54c0.019,-0.032 0.084,-0.07 0.105,-0.059c0.068,0.034 0.15,0.077 0.182,0.139c0.228,0.45 0.183,0.903 -0.048,1.331c-0.074,0.138 -0.225,0.252 -0.365,0.335c-0.434,0.258 -0.89,0.479 -1.319,0.744c-0.519,0.32 -1.098,0.428 -1.68,0.508c-0.191,0.027 -0.413,-0.061 -0.601,-0.142c-0.25,-0.108 -0.389,-0.334 -0.376,-0.606c0.014,-0.291 0.042,-0.59 0.124,-0.868c0.131,-0.445 0.354,-0.85 0.616,-1.239c0.641,-0.953 0.686,-0.983 0.256,-1.94c-0.556,-1.234 -0.216,-2.305 0.456,-3.335c0.3,-0.46 0.72,-0.825 1.169,-1.144c0.422,-0.3 0.893,-0.471 1.415,-0.482c1.179,-0.025 2.36,-0.093 3.52,0.223c0.242,0.066 0.493,0.114 0.743,0.141c0.221,0.025 0.411,-0.072 0.551,-0.248c0.508,-0.636 0.623,-1.303 0.4,-2.122c-0.382,-1.411 -1.915,-2.594 -3.448,-2.775c-0.301,-0.036 -0.587,0.038 -0.863,0.149c-0.67,0.27 -1.29,0.625 -1.819,1.12c-0.308,0.287 -0.625,0.576 -0.878,0.908c-1.282,1.689 -2.366,3.487 -2.913,5.56c-0.195,0.737 -0.272,1.492 -0.29,2.253c-0.009,0.378 -0.036,0.757 -0.077,1.132c-0.025,0.234 -0.311,0.439 -0.55,0.43c-0.313,-0.013 -0.605,-0.246 -0.631,-0.512c-0.057,-0.591 -0.039,-1.182 0.065,-1.764c0.125,-0.705 0.259,-1.41 0.426,-2.106c0.658,-2.728 1.987,-5.086 3.946,-7.089c0.808,-0.825 1.733,-1.455 2.872,-1.764c1.164,-0.317 2.251,-0.196 3.282,0.423c0.252,0.151 0.507,0.307 0.73,0.498c1.42,1.21 2.119,2.675 1.681,4.587c-0.255,1.119 -0.615,2.188 -1.15,3.199c-0.099,0.186 -0.208,0.367 -0.321,0.544c-0.194,0.303 -0.474,0.478 -0.832,0.508c-0.335,0.028 -0.672,0.059 -1.008,0.054c-0.463,-0.007 -0.925,-0.047 -1.388,-0.073c0,-0.004 0,-0.009 0.001,-0.013Z" style="fill:#231f20;fill-rule:nonzero;"/>
      <path d="M204.224,399.05c-0.781,-0.052 -1.71,-0.074 -2.629,-0.184c-1.096,-0.131 -2.121,-0.523 -3.094,-1.042c-0.111,-0.059 -0.209,-0.144 -0.321,-0.201c-2.319,-1.171 -3.788,-3.155 -5.077,-5.31c-0.964,-1.611 -1.507,-3.368 -1.865,-5.199c-0.294,-1.512 -0.252,-3.014 -0.024,-4.521c0.285,-1.877 0.688,-3.725 1.372,-5.502c0.074,-0.195 0.172,-0.382 0.263,-0.57c0.043,-0.09 0.118,-0.103 0.207,-0.038c0.031,0.023 0.056,0.058 0.075,0.093c0.109,0.202 0.046,0.41 0.019,0.616c-0.165,1.252 -0.328,2.504 -0.5,3.755c-0.191,1.387 -0.171,2.771 0.029,4.154c0.097,0.666 0.207,1.33 0.31,1.995c0.105,0.672 0.333,1.309 0.634,1.912c0.679,1.356 1.427,2.673 2.367,3.873c0.498,0.635 1.051,1.207 1.701,1.682c0.544,0.398 1.101,0.777 1.654,1.161c0.884,0.612 1.876,0.969 2.93,1.098c2.317,0.282 4.627,0.177 6.911,-0.306c1.207,-0.255 2.321,-0.763 3.355,-1.424c1.418,-0.909 2.81,-1.857 4.216,-2.783c0.315,-0.208 0.643,-0.399 0.973,-0.584c0.054,-0.031 0.147,-0.003 0.219,0.013c0.088,0.02 0.085,0.224 -0.019,0.33c-0.619,0.63 -1.213,1.29 -1.874,1.871c-0.917,0.806 -1.869,1.576 -2.839,2.317c-2.052,1.57 -4.32,2.597 -6.956,2.664c-0.631,0.017 -1.261,0.079 -2.037,0.13Z" style="fill:#231f20;fill-rule:nonzero;"/>
      <path d="M213.769,342.453c0.647,0.089 1.316,0.17 1.982,0.274c1.083,0.17 2.154,0.393 3.203,0.72c0.493,0.153 0.936,0.376 1.338,0.694c0.877,0.692 1.091,1.731 0.546,2.694c-0.124,0.221 -0.271,0.428 -0.392,0.649c-0.127,0.232 -0.057,0.504 0.174,0.668c0.31,0.219 0.624,0.432 0.945,0.633c2.43,1.527 4.735,3.23 7.033,4.945c1.014,0.756 2.028,1.512 3.048,2.26c0.38,0.279 0.531,0.235 0.805,-0.186c0.024,-0.035 0.045,-0.071 0.065,-0.108c0.834,-1.475 2.047,-2.546 3.516,-3.364c1.035,-0.577 2.098,-1.081 3.227,-1.439c0.191,-0.061 0.41,-0.047 0.615,-0.041c0.048,0.002 0.14,0.122 0.13,0.172c-0.118,0.604 -0.389,1.084 -0.985,1.37c-1.106,0.53 -2.122,1.21 -3.088,1.966c-0.913,0.715 -1.629,1.583 -2.097,2.649c-0.152,0.346 -0.125,0.655 0.144,0.929c0.295,0.302 0.593,0.598 0.887,0.9c0.291,0.302 0.583,0.605 0.864,0.918c0.046,0.052 0.058,0.163 0.041,0.236c-0.032,0.137 -0.154,0.174 -0.283,0.183c-0.307,0.019 -0.583,-0.068 -0.826,-0.256c-0.366,-0.284 -0.729,-0.572 -1.094,-0.858c-0.118,-0.091 -0.238,-0.065 -0.325,0.036c-0.049,0.056 -0.089,0.158 -0.074,0.228c0.05,0.247 0.121,0.489 0.192,0.731c0.281,0.96 0.268,1.916 -0.056,2.86c-0.331,0.962 -0.775,1.868 -1.408,2.672c-0.129,0.165 -0.27,0.323 -0.421,0.47c-0.227,0.224 -0.639,0.286 -0.806,0.128c-0.21,-0.198 -0.219,-0.464 -0.147,-0.705c0.096,-0.321 0.245,-0.626 0.382,-0.933c0.225,-0.5 0.458,-0.995 0.689,-1.492c0.491,-1.059 0.346,-2.052 -0.325,-2.98c-0.197,-0.272 -0.421,-0.526 -0.65,-0.772c-0.635,-0.682 -1.359,-1.259 -2.108,-1.811c-0.451,-0.33 -0.502,-0.957 -0.154,-1.455c0.073,-0.103 0.342,-0.187 0.459,-0.12c0.292,0.165 0.59,0.325 0.858,0.524c0.472,0.353 0.922,0.736 1.386,1.101c0.182,0.142 0.442,0.151 0.438,0.033c-0.004,-0.11 -0.028,-0.258 -0.102,-0.322c-0.697,-0.611 -1.389,-1.229 -2.118,-1.802c-0.993,-0.782 -2.021,-1.521 -3.027,-2.286c-1.98,-1.507 -3.983,-2.981 -6.076,-4.327c-0.393,-0.253 -0.777,-0.503 -1.069,-0.876c-0.192,-0.245 -0.296,-0.515 -0.25,-0.821c0.043,-0.291 0.123,-0.576 0.177,-0.865c0.043,-0.248 0.093,-0.497 0.103,-0.748c0.011,-0.268 -0.116,-0.482 -0.334,-0.644c-0.347,-0.255 -0.737,-0.414 -1.145,-0.52c-0.856,-0.222 -1.719,-0.419 -2.576,-0.634c-0.53,-0.134 -1.06,-0.272 -1.582,-0.434c-0.195,-0.062 -0.373,-0.19 -0.545,-0.307c-0.057,-0.04 -0.105,-0.147 -0.096,-0.216c0.008,-0.068 0.083,-0.166 0.146,-0.182c0.242,-0.06 0.491,-0.092 0.766,-0.139Z" style="fill:#231f20;fill-rule:nonzero;"/>
      <path d="M215.687,317.46c-1.938,-0.023 -3.862,-0.233 -5.788,-0.444c-1.635,-0.179 -3.278,-0.193 -4.919,-0.108c-1.218,0.064 -2.259,0.608 -3.234,1.299c-0.47,0.333 -0.618,0.886 -0.92,1.334c-0.058,0.085 -0.259,0.085 -0.332,-0.002c-0.424,-0.505 -0.458,-0.88 -0.113,-1.36c0.123,-0.17 0.248,-0.343 0.395,-0.492c0.687,-0.687 1.42,-1.313 2.28,-1.78c2.234,-1.213 4.628,-1.77 7.16,-1.718c0.713,0.015 1.434,0.082 2.131,0.224c2.359,0.478 4.637,1.216 6.805,2.27c0.107,0.051 0.186,0.161 0.274,0.248c0.074,0.072 0.059,0.142 0.008,0.23c-0.137,0.233 -0.335,0.375 -0.595,0.42c-0.123,0.02 -0.252,0.011 -0.377,0.006c-0.925,-0.041 -1.85,-0.084 -2.775,-0.127Z" style="fill:#231f20;fill-rule:nonzero;"/>
      <path d="M199.156,342.941c-0.589,0 -1.178,0.001 -1.767,-0.001c-0.211,-0 -0.423,0.005 -0.631,-0.019c-0.121,-0.013 -0.252,-0.076 -0.261,-0.222c-0.004,-0.07 0.043,-0.175 0.099,-0.21c0.573,-0.354 1.156,-0.672 1.829,-0.824c2.498,-0.564 5.003,-0.616 7.517,-0.141c0.661,0.125 1.321,0.259 1.975,0.418c0.489,0.12 0.981,0.249 1.447,0.437c2.387,0.963 4.676,2.111 6.727,3.69c0.74,0.568 1.394,1.218 1.944,1.97c0.064,0.087 0.064,0.234 0.06,0.351c-0.004,0.111 -0.259,0.258 -0.398,0.259c-0.351,0.002 -0.645,-0.133 -0.934,-0.328c-0.627,-0.425 -1.256,-0.847 -1.908,-1.231c-2.747,-1.613 -5.712,-2.652 -8.818,-3.326c-2.268,-0.492 -4.553,-0.83 -6.881,-0.823Z" style="fill:#231f20;fill-rule:nonzero;"/>
      <path d="M217.955,383.478c-1.425,-0.006 -2.739,-0.45 -3.96,-1.13c-2.113,-1.176 -3.98,-2.669 -5.491,-4.576c-0.261,-0.33 -0.516,-0.665 -0.779,-0.993c-0.95,-1.179 -1.45,-2.546 -1.685,-4.025c-0.047,-0.298 0.165,-0.499 0.438,-0.429c0.545,0.139 1.02,0.401 1.383,0.83c0.244,0.288 0.468,0.595 0.677,0.91c1.126,1.701 2.522,3.139 4.141,4.377c1.957,1.496 4.133,2.577 6.407,3.484c0.233,0.093 0.475,0.168 0.712,0.255c0.233,0.085 0.52,0.145 0.497,0.468c-0.02,0.283 -0.274,0.402 -0.494,0.527c-0.578,0.328 -1.212,0.305 -1.846,0.302Z" style="fill:#231f20;fill-rule:nonzero;"/>
      <path d="M245.161,374.295c0.011,0.519 -0.065,1.013 -0.261,1.488c-0.131,0.318 -0.402,0.382 -0.71,0.178c-0.476,-0.314 -0.792,-0.754 -1.006,-1.265c-0.194,-0.465 -0.365,-0.942 -0.509,-1.424c-0.472,-1.588 -1.256,-3.028 -2.123,-4.422c-0.284,-0.456 -0.673,-0.864 -1.073,-1.229c-0.808,-0.736 -1.63,-1.461 -2.593,-1.998c-0.218,-0.122 -0.415,-0.284 -0.606,-0.445c-0.038,-0.032 -0.016,-0.145 -0.004,-0.218c0.005,-0.032 0.055,-0.076 0.09,-0.081c0.12,-0.019 0.255,-0.062 0.362,-0.026c2.326,0.763 4.37,1.975 5.911,3.91c1.027,1.29 1.82,2.723 2.335,4.302c0.132,0.408 0.203,0.814 0.187,1.23Z" style="fill:#231f20;fill-rule:nonzero;"/>
      <path d="M221.458,361.649c0.575,-0.098 1.232,-0.005 1.863,0.281c0.636,0.287 1.117,0.73 1.428,1.362c0.169,0.343 0.153,0.642 -0.083,0.937c-0.38,0.476 -0.886,0.765 -1.442,0.98c-0.166,0.064 -0.427,-0.039 -0.556,-0.208c-0.114,-0.151 -0.118,-0.326 -0.023,-0.469c0.161,-0.244 0.358,-0.463 0.533,-0.697c0.09,-0.119 0.044,-0.342 -0.064,-0.461c-0.336,-0.371 -0.766,-0.517 -1.247,-0.488c-0.546,0.032 -1.089,0.1 -1.632,0.161c-0.209,0.023 -0.417,0.06 -0.623,0.102c-1.019,0.209 -1.7,-0.285 -2.217,-1.083c-0.302,-0.464 -0.453,-0.992 -0.542,-1.536c-0.019,-0.124 -0.028,-0.251 -0.031,-0.377c-0.034,-1.733 -0.059,-1.673 1.202,-2.675c0.622,-0.495 1.319,-0.895 1.988,-1.329c0.059,-0.039 0.203,-0.048 0.236,-0.009c0.073,0.085 0.143,0.211 0.138,0.318c-0.021,0.493 -0.238,0.886 -0.665,1.15c-0.215,0.133 -0.435,0.255 -0.649,0.389c-0.355,0.223 -0.518,0.545 -0.459,0.962c0.088,0.63 0.259,1.231 0.601,1.778c0.439,0.701 1.005,1.126 1.884,0.94c0.081,-0.017 0.167,-0.013 0.36,-0.028Z" style="fill:#231f20;fill-rule:nonzero;"/>
      <path d="M201.571,321.99c-0.023,-0.005 -0.189,-0.032 -0.352,-0.07c-0.208,-0.048 -0.349,-0.279 -0.306,-0.477c0.15,-0.682 0.483,-1.222 1.071,-1.639c1.268,-0.899 2.685,-1.17 4.185,-1.02c0.831,0.084 1.658,0.279 2.389,0.736c0.173,0.108 0.197,0.388 0.06,0.544c-0.171,0.197 -0.373,0.344 -0.627,0.396c-0.411,0.084 -0.823,0.166 -1.238,0.224c-0.665,0.093 -1.332,0.175 -2,0.246c-0.809,0.085 -1.565,0.315 -2.226,0.797c-0.248,0.181 -0.502,0.301 -0.956,0.263Z" style="fill:#231f20;fill-rule:nonzero;"/>
      <path d="M237.258,361.444c0.502,0.084 1.003,0.151 1.495,0.254c0.947,0.199 1.875,0.469 2.777,0.823c0.755,0.296 1.438,0.715 1.951,1.35c0.583,0.722 0.824,1.557 0.599,2.479c-0.058,0.235 -0.207,0.453 -0.339,0.664c-0.099,0.157 -0.404,0.245 -0.568,0.176c-0.231,-0.098 -0.46,-0.205 -0.678,-0.326c-0.319,-0.177 -0.477,-0.466 -0.505,-0.823c-0.027,-0.335 -0.034,-0.672 -0.062,-1.006c-0.031,-0.351 -0.196,-0.637 -0.447,-0.88c-0.586,-0.564 -1.269,-0.976 -2.041,-1.216c-0.641,-0.199 -1.299,-0.341 -1.951,-0.501c-0.285,-0.07 -0.573,-0.118 -0.815,-0.308c-0.114,-0.091 -0.13,-0.371 0.004,-0.438c0.183,-0.092 0.377,-0.162 0.58,-0.248Z" style="fill:#231f20;fill-rule:nonzero;"/>
      <path d="M229.021,366.625c0.557,0.036 1.102,0.053 1.568,0.409c0.307,0.235 0.376,0.544 0.183,0.879c-0.15,0.261 -0.34,0.48 -0.592,0.641c-0.677,0.431 -1.403,0.754 -2.185,0.942c-0.118,0.028 -0.249,0.01 -0.374,0.005c-0.197,-0.008 -0.374,-0.219 -0.354,-0.431c0.013,-0.125 0.06,-0.245 0.075,-0.369c0.021,-0.177 -0.042,-0.332 -0.185,-0.44c-0.099,-0.076 -0.209,-0.138 -0.319,-0.197c-0.245,-0.132 -0.64,-0.155 -0.575,-0.544c0.055,-0.327 0.417,-0.378 0.681,-0.484c0.669,-0.267 1.368,-0.398 2.077,-0.411Z" style="fill:#231f20;fill-rule:nonzero;"/>
      <path d="M194.944,330.374c-0.485,-0.006 -0.907,-0.174 -1.215,-0.558c-0.067,-0.084 -0.079,-0.23 -0.072,-0.344c0.003,-0.049 0.115,-0.119 0.186,-0.132c1.074,-0.203 2.155,-0.331 3.251,-0.316c0.561,0.008 1.082,0.148 1.536,0.477c0.165,0.12 0.292,0.293 0.425,0.452c0.099,0.118 0.026,0.384 -0.109,0.423c-0.16,0.048 -0.322,0.115 -0.484,0.116c-0.586,0.005 -2.932,-0.111 -3.518,-0.118Z" style="fill:#231f20;fill-rule:nonzero;"/>
      <path d="M224.926,358.182c-0.021,0.249 -0.229,0.432 -0.369,0.427c-0.767,-0.034 -1.473,-0.261 -2.094,-0.714c-0.123,-0.091 -0.241,-0.263 -0.258,-0.409c-0.057,-0.494 -0.07,-0.99 -0.304,-1.45c-0.079,-0.154 0.086,-0.404 0.26,-0.522c0.164,-0.111 0.325,-0.076 0.47,0.005c0.931,0.521 1.694,1.216 2.169,2.186c0.088,0.179 0.105,0.393 0.126,0.477Z" style="fill:#231f20;fill-rule:nonzero;"/>
      <path d="M222.618,346.563c0,-0.571 0.136,-1.1 0.347,-1.606c0.499,-1.203 1.011,-2.399 1.521,-3.596c0.05,-0.114 0.122,-0.219 0.189,-0.326c0.115,-0.183 0.351,-0.294 0.532,-0.254c0.189,0.04 0.347,0.37 0.284,0.627c-0.051,0.202 -0.112,0.405 -0.194,0.597c-0.332,0.771 -0.664,1.542 -1.014,2.306c-0.333,0.724 -0.683,1.441 -1.036,2.156c-0.072,0.146 -0.179,0.28 -0.293,0.396c-0.044,0.046 -0.154,0.037 -0.233,0.035c-0.02,-0.001 -0.045,-0.068 -0.055,-0.108c-0.022,-0.08 -0.035,-0.162 -0.048,-0.227Z" style="fill:#231f20;fill-rule:nonzero;"/>
      <path d="M195.403,332.604c-0.628,0.011 -1.169,-0.014 -1.611,-0.401c-0.06,-0.053 -0.145,-0.15 -0.13,-0.201c0.03,-0.106 0.103,-0.257 0.188,-0.28c0.842,-0.232 1.688,-0.454 2.539,-0.652c0.514,-0.119 0.993,0.003 1.416,0.326c0.132,0.101 0.273,0.206 0.275,0.387c0.002,0.198 -0.158,0.281 -0.315,0.34c-0.787,0.293 -1.601,0.457 -2.362,0.481Z" style="fill:#231f20;fill-rule:nonzero;"/>
      <path d="M194.746,336.397c-0.501,-0.066 -0.928,-0.208 -1.279,-0.526c-0.196,-0.177 -0.256,-0.417 -0.249,-0.673c0.004,-0.139 0.099,-0.216 0.224,-0.254c0.039,-0.012 0.086,-0.021 0.123,-0.011c0.731,0.187 1.479,0.171 2.224,0.206c0.201,0.009 0.35,0.292 0.246,0.458c-0.305,0.492 -0.762,0.732 -1.289,0.8Z" style="fill:#231f20;fill-rule:nonzero;"/>
    </g>
  </g>
</svg>
