<?xml version="1.0" encoding="UTF-8" standalone="no"?>
<!DOCTYPE svg PUBLIC "-//W3C//DTD SVG 1.1//EN" "http://www.w3.org/Graphics/SVG/1.1/DTD/svg11.dtd">
<svg width="100%" height="100%" viewBox="0 0 1200 1200" version="1.1" xmlns="http://www.w3.org/2000/svg" xmlns:xlink="http://www.w3.org/1999/xlink" xml:space="preserve" xmlns:serif="http://www.serif.com/" style="fill-rule:evenodd;clip-rule:evenodd;stroke-linejoin:round;stroke-miterlimit:2;">
    <g transform="matrix(1,0,0,1,-1410,0)">
        <g id="PRE-101" transform="matrix(1,0,0,1,1410,0)">
            <rect x="0" y="0" width="1200" height="1200" style="fill:none;"/>
            <g transform="matrix(1,0,0,1,10,5)">
                <a xlink:href="101.svg"><g id="Link-Ellipse" serif:id="Link Ellipse" transform="matrix(8,0,0,8,-7810,-7800)">
                    <circle cx="1050" cy="1050" r="50" style="fill:#d5d5d5;"/>
					</g></a>
                <g transform="matrix(1,0,0,1,10,450)">
                    <g transform="matrix(80,0,0,80,397.72,162.56)">
                        <path d="M0.372,-0.496C0.359,-0.527 0.343,-0.626 0.314,-0.626C0.293,-0.626 0.283,-0.596 0.275,-0.581C0.267,-0.565 0.231,-0.473 0.222,-0.444C0.218,-0.426 0.086,-0.156 0.076,-0.143C0.066,-0.129 0.029,-0.057 0.017,-0.031C0.015,-0.026 0.014,-0.022 0.014,-0.018C0.014,-0.003 0.027,0.006 0.038,0.006C0.04,0.006 0.041,0.006 0.043,0.005C0.056,0.002 0.087,0.002 0.109,0.002C0.131,0.002 0.148,-0.034 0.152,-0.053C0.156,-0.072 0.176,-0.114 0.197,-0.126C0.21,-0.132 0.239,-0.134 0.266,-0.134C0.286,-0.134 0.305,-0.133 0.316,-0.133L0.331,-0.133C0.361,-0.133 0.403,-0.132 0.421,-0.117C0.435,-0.107 0.457,-0.034 0.465,-0.016C0.473,0.005 0.49,0.009 0.507,0.009C0.517,0.009 0.528,0.008 0.537,0.008C0.544,0.008 0.551,0.009 0.559,0.009C0.576,0.009 0.591,0.005 0.591,-0.016C0.591,-0.034 0.572,-0.071 0.561,-0.088C0.549,-0.106 0.498,-0.206 0.498,-0.215C0.498,-0.225 0.475,-0.268 0.465,-0.282C0.455,-0.296 0.386,-0.465 0.372,-0.496ZM0.244,-0.27C0.26,-0.313 0.281,-0.338 0.289,-0.352C0.296,-0.366 0.299,-0.381 0.312,-0.381C0.334,-0.381 0.337,-0.35 0.342,-0.334C0.346,-0.319 0.361,-0.29 0.365,-0.277C0.367,-0.271 0.373,-0.263 0.373,-0.256C0.373,-0.25 0.369,-0.244 0.356,-0.239C0.326,-0.227 0.296,-0.223 0.285,-0.223C0.275,-0.223 0.241,-0.226 0.241,-0.253C0.241,-0.258 0.241,-0.263 0.244,-0.27Z" style="fill-rule:nonzero;"/>
                    </g>
                    <g transform="matrix(80,0,0,80,446.28,162.56)">
                        <path d="M0.346,-0.34C0.331,-0.34 0.324,-0.357 0.316,-0.365C0.295,-0.386 0.261,-0.395 0.226,-0.395C0.193,-0.395 0.159,-0.386 0.135,-0.371C0.107,-0.355 0.082,-0.338 0.068,-0.309C0.051,-0.273 0.043,-0.229 0.043,-0.186C0.043,-0.166 0.045,-0.146 0.049,-0.126C0.059,-0.081 0.1,-0.032 0.141,-0.009C0.159,0.002 0.189,0.006 0.215,0.006C0.226,0.006 0.237,0.005 0.246,0.004C0.277,-0.001 0.3,-0.024 0.328,-0.031C0.331,-0.032 0.334,-0.032 0.336,-0.032C0.346,-0.032 0.354,-0.028 0.356,-0.016L0.356,-0.011C0.356,0.003 0.344,0.015 0.341,0.028C0.336,0.041 0.338,0.054 0.331,0.065C0.316,0.089 0.288,0.097 0.262,0.101C0.257,0.102 0.252,0.102 0.248,0.102C0.226,0.102 0.209,0.094 0.193,0.078C0.178,0.063 0.173,0.042 0.149,0.039L0.14,0.039C0.13,0.039 0.119,0.041 0.109,0.041C0.105,0.041 0.1,0.04 0.096,0.039C0.086,0.037 0.079,0.033 0.072,0.033C0.066,0.033 0.061,0.037 0.056,0.049C0.052,0.054 0.051,0.061 0.051,0.067C0.051,0.085 0.061,0.105 0.072,0.118C0.09,0.136 0.117,0.158 0.139,0.171C0.168,0.189 0.192,0.189 0.225,0.189L0.259,0.189C0.31,0.189 0.36,0.186 0.399,0.149C0.415,0.133 0.429,0.115 0.438,0.096C0.454,0.065 0.457,0.036 0.457,0.005C0.457,-0.01 0.456,-0.026 0.456,-0.041C0.452,-0.098 0.454,-0.156 0.451,-0.213L0.451,-0.236C0.451,-0.26 0.452,-0.285 0.454,-0.309C0.454,-0.322 0.46,-0.341 0.46,-0.357C0.46,-0.371 0.455,-0.382 0.436,-0.383C0.425,-0.383 0.411,-0.386 0.398,-0.386C0.388,-0.386 0.378,-0.384 0.371,-0.379C0.357,-0.369 0.366,-0.34 0.346,-0.34ZM0.135,-0.201C0.136,-0.232 0.154,-0.258 0.179,-0.277C0.197,-0.291 0.225,-0.3 0.251,-0.3C0.261,-0.3 0.271,-0.298 0.28,-0.296C0.312,-0.287 0.353,-0.246 0.354,-0.211L0.354,-0.206C0.354,-0.174 0.346,-0.136 0.322,-0.113C0.297,-0.09 0.28,-0.081 0.248,-0.08L0.237,-0.08C0.207,-0.08 0.184,-0.086 0.161,-0.111C0.138,-0.134 0.135,-0.171 0.135,-0.201Z" style="fill-rule:nonzero;"/>
                    </g>
                    <g transform="matrix(80,0,0,80,488.52,162.56)">
                        <path d="M0.095,-0.391C0.074,-0.389 0.071,-0.378 0.071,-0.357C0.071,-0.325 0.075,-0.291 0.076,-0.26C0.077,-0.238 0.077,-0.216 0.077,-0.194C0.077,-0.152 0.076,-0.11 0.072,-0.069C0.071,-0.057 0.066,-0.04 0.066,-0.026C0.066,-0.017 0.067,-0.011 0.071,-0.006C0.079,0.006 0.096,0.01 0.113,0.01C0.131,0.01 0.149,0.006 0.161,0.002C0.177,-0.005 0.182,-0.017 0.182,-0.031C0.182,-0.043 0.178,-0.057 0.176,-0.07C0.171,-0.102 0.171,-0.134 0.171,-0.166L0.171,-0.191C0.171,-0.227 0.173,-0.256 0.203,-0.281C0.218,-0.293 0.242,-0.303 0.265,-0.303C0.277,-0.303 0.291,-0.3 0.3,-0.291C0.321,-0.272 0.327,-0.238 0.327,-0.203C0.327,-0.163 0.319,-0.119 0.318,-0.09C0.317,-0.073 0.311,-0.05 0.311,-0.03C0.311,-0.02 0.313,-0.011 0.317,-0.003C0.324,0.009 0.343,0.012 0.361,0.012C0.371,0.012 0.382,0.01 0.389,0.009C0.414,0.007 0.426,-0.002 0.426,-0.023C0.426,-0.026 0.425,-0.029 0.425,-0.032C0.421,-0.067 0.422,-0.101 0.42,-0.136C0.419,-0.153 0.417,-0.168 0.417,-0.185C0.417,-0.19 0.417,-0.195 0.418,-0.201C0.419,-0.211 0.419,-0.221 0.419,-0.231C0.419,-0.256 0.416,-0.281 0.408,-0.306C0.395,-0.347 0.383,-0.362 0.346,-0.383C0.328,-0.393 0.309,-0.396 0.289,-0.396C0.279,-0.396 0.268,-0.396 0.258,-0.394C0.241,-0.391 0.227,-0.386 0.213,-0.378C0.203,-0.372 0.186,-0.35 0.176,-0.348C0.174,-0.348 0.172,-0.347 0.171,-0.347C0.166,-0.347 0.164,-0.352 0.164,-0.358C0.164,-0.361 0.165,-0.365 0.165,-0.369C0.165,-0.374 0.164,-0.379 0.161,-0.383C0.155,-0.391 0.136,-0.392 0.121,-0.392C0.11,-0.392 0.101,-0.391 0.095,-0.391Z" style="fill-rule:nonzero;"/>
                    </g>
                    <g transform="matrix(80,0,0,80,527.24,162.56)">
                        <path d="M0.26,-0.4C0.229,-0.4 0.2,-0.388 0.171,-0.381C0.14,-0.373 0.111,-0.359 0.088,-0.333C0.055,-0.295 0.046,-0.251 0.046,-0.206C0.046,-0.19 0.047,-0.173 0.049,-0.156C0.056,-0.088 0.086,-0.043 0.145,-0.007C0.176,0.012 0.205,0.021 0.236,0.021C0.261,0.021 0.286,0.015 0.313,0.004C0.346,-0.01 0.387,-0.024 0.411,-0.052C0.415,-0.058 0.417,-0.064 0.417,-0.07C0.417,-0.093 0.387,-0.116 0.363,-0.116C0.359,-0.116 0.356,-0.115 0.352,-0.114C0.327,-0.104 0.313,-0.078 0.286,-0.072C0.28,-0.071 0.273,-0.071 0.266,-0.071L0.243,-0.071C0.216,-0.071 0.188,-0.076 0.169,-0.097C0.158,-0.109 0.146,-0.131 0.146,-0.148C0.146,-0.151 0.146,-0.154 0.147,-0.157C0.151,-0.173 0.166,-0.176 0.181,-0.176C0.195,-0.176 0.209,-0.174 0.22,-0.174C0.231,-0.174 0.238,-0.175 0.246,-0.175C0.29,-0.175 0.334,-0.17 0.378,-0.17L0.386,-0.17C0.416,-0.17 0.432,-0.171 0.432,-0.197C0.432,-0.201 0.432,-0.206 0.431,-0.211C0.427,-0.243 0.426,-0.273 0.41,-0.302C0.381,-0.355 0.321,-0.4 0.26,-0.4ZM0.166,-0.295C0.168,-0.298 0.171,-0.301 0.174,-0.303C0.191,-0.316 0.216,-0.324 0.241,-0.324C0.274,-0.324 0.307,-0.311 0.321,-0.283C0.323,-0.278 0.325,-0.271 0.325,-0.265C0.325,-0.256 0.322,-0.246 0.317,-0.241C0.308,-0.233 0.286,-0.235 0.274,-0.234L0.266,-0.234C0.246,-0.234 0.227,-0.236 0.207,-0.236C0.18,-0.236 0.151,-0.245 0.151,-0.266C0.151,-0.273 0.156,-0.283 0.166,-0.295Z" style="fill-rule:nonzero;"/>
                    </g>
                    <g transform="matrix(80,0,0,80,565.32,162.56)">
                        <path d="M0.136,-0.388C0.111,-0.381 0.087,-0.371 0.069,-0.355C0.05,-0.337 0.037,-0.315 0.037,-0.286C0.037,-0.281 0.037,-0.277 0.038,-0.273C0.042,-0.226 0.078,-0.194 0.117,-0.173C0.141,-0.16 0.216,-0.148 0.216,-0.111C0.216,-0.108 0.215,-0.105 0.214,-0.101C0.208,-0.083 0.188,-0.076 0.169,-0.076C0.156,-0.076 0.143,-0.079 0.133,-0.084C0.117,-0.091 0.115,-0.108 0.096,-0.111C0.093,-0.112 0.09,-0.112 0.086,-0.112C0.075,-0.112 0.063,-0.109 0.054,-0.103C0.038,-0.095 0.024,-0.079 0.024,-0.062C0.024,-0.056 0.026,-0.049 0.032,-0.043C0.041,-0.032 0.062,-0.023 0.076,-0.016C0.09,-0.007 0.108,-0.002 0.124,0.002C0.136,0.005 0.151,0.008 0.167,0.008C0.186,0.008 0.206,0.005 0.221,-0C0.276,-0.016 0.302,-0.062 0.302,-0.113C0.302,-0.126 0.301,-0.141 0.297,-0.154C0.285,-0.201 0.232,-0.22 0.193,-0.24C0.173,-0.25 0.129,-0.263 0.129,-0.288C0.129,-0.293 0.131,-0.298 0.134,-0.304C0.141,-0.314 0.15,-0.317 0.16,-0.317C0.168,-0.317 0.177,-0.315 0.186,-0.312C0.199,-0.308 0.212,-0.295 0.226,-0.293C0.246,-0.293 0.263,-0.312 0.272,-0.326C0.276,-0.331 0.278,-0.337 0.278,-0.342C0.278,-0.354 0.268,-0.364 0.256,-0.373C0.246,-0.38 0.23,-0.388 0.218,-0.391C0.213,-0.392 0.207,-0.392 0.202,-0.392L0.192,-0.392C0.185,-0.392 0.178,-0.393 0.171,-0.393C0.159,-0.393 0.148,-0.391 0.136,-0.388Z" style="fill-rule:nonzero;"/>
                    </g>
                    <g transform="matrix(80,0,0,80,611.8,162.56)">
                        <path d="M0.142,-0.54C0.113,-0.515 0.088,-0.49 0.071,-0.456C0.047,-0.409 0.041,-0.364 0.041,-0.315L0.041,-0.278C0.044,-0.219 0.052,-0.151 0.095,-0.104C0.134,-0.061 0.181,-0.026 0.234,-0.005C0.273,0.011 0.316,0.02 0.36,0.02C0.436,0.02 0.511,-0.006 0.569,-0.059C0.628,-0.114 0.651,-0.182 0.658,-0.261C0.659,-0.27 0.661,-0.279 0.661,-0.288C0.661,-0.297 0.659,-0.306 0.651,-0.311C0.646,-0.316 0.638,-0.316 0.63,-0.316C0.618,-0.316 0.606,-0.315 0.597,-0.315C0.561,-0.315 0.523,-0.316 0.486,-0.317C0.476,-0.317 0.461,-0.319 0.445,-0.319C0.427,-0.319 0.41,-0.316 0.401,-0.306C0.395,-0.3 0.392,-0.288 0.392,-0.276C0.392,-0.255 0.399,-0.231 0.411,-0.224C0.417,-0.219 0.426,-0.217 0.436,-0.217C0.458,-0.217 0.483,-0.226 0.5,-0.227L0.506,-0.227C0.529,-0.227 0.545,-0.215 0.545,-0.194C0.545,-0.187 0.543,-0.18 0.54,-0.172C0.529,-0.151 0.501,-0.122 0.481,-0.11C0.451,-0.091 0.408,-0.083 0.368,-0.083C0.346,-0.083 0.326,-0.086 0.308,-0.089C0.254,-0.1 0.21,-0.136 0.175,-0.18C0.15,-0.211 0.142,-0.248 0.142,-0.287C0.142,-0.31 0.145,-0.333 0.148,-0.356C0.152,-0.388 0.163,-0.418 0.182,-0.446C0.198,-0.468 0.231,-0.477 0.256,-0.488C0.292,-0.505 0.326,-0.514 0.361,-0.514C0.387,-0.514 0.413,-0.509 0.441,-0.499C0.463,-0.491 0.484,-0.476 0.5,-0.46C0.509,-0.45 0.526,-0.417 0.544,-0.417C0.545,-0.417 0.546,-0.418 0.547,-0.418C0.558,-0.421 0.571,-0.441 0.579,-0.448C0.588,-0.456 0.606,-0.464 0.611,-0.476C0.612,-0.477 0.612,-0.48 0.612,-0.481C0.612,-0.501 0.586,-0.526 0.572,-0.538C0.551,-0.555 0.525,-0.573 0.5,-0.583C0.485,-0.589 0.47,-0.586 0.456,-0.591C0.441,-0.596 0.432,-0.608 0.416,-0.612C0.408,-0.614 0.4,-0.615 0.39,-0.615C0.368,-0.615 0.343,-0.611 0.327,-0.611L0.293,-0.611C0.276,-0.611 0.259,-0.609 0.241,-0.598C0.207,-0.577 0.172,-0.566 0.142,-0.54Z" style="fill-rule:nonzero;"/>
                    </g>
                    <g transform="matrix(80,0,0,80,666.92,162.56)">
                        <path d="M0.074,-0.391C0.066,-0.386 0.061,-0.377 0.058,-0.365C0.057,-0.359 0.056,-0.352 0.056,-0.346C0.056,-0.311 0.066,-0.268 0.068,-0.251C0.069,-0.24 0.069,-0.228 0.069,-0.216C0.069,-0.186 0.067,-0.156 0.066,-0.126C0.064,-0.101 0.061,-0.074 0.061,-0.048C0.061,-0.039 0.061,-0.029 0.062,-0.021C0.065,-0.001 0.076,0.004 0.092,0.004C0.105,0.004 0.121,-0 0.134,-0L0.136,-0C0.145,0.001 0.152,0.003 0.157,0.003C0.165,0.003 0.169,-0 0.173,-0.011C0.175,-0.016 0.176,-0.022 0.176,-0.029C0.176,-0.039 0.174,-0.05 0.173,-0.058C0.169,-0.088 0.166,-0.119 0.166,-0.149C0.166,-0.171 0.168,-0.192 0.171,-0.214C0.177,-0.251 0.198,-0.3 0.242,-0.3C0.245,-0.3 0.248,-0.299 0.251,-0.299C0.264,-0.297 0.273,-0.295 0.281,-0.295C0.292,-0.295 0.299,-0.299 0.306,-0.316C0.311,-0.329 0.321,-0.351 0.321,-0.369C0.321,-0.376 0.32,-0.384 0.314,-0.39C0.306,-0.398 0.29,-0.401 0.275,-0.401C0.266,-0.401 0.259,-0.4 0.253,-0.399C0.221,-0.395 0.212,-0.377 0.189,-0.361C0.185,-0.358 0.185,-0.356 0.179,-0.354C0.17,-0.356 0.168,-0.359 0.168,-0.363L0.168,-0.367C0.168,-0.37 0.168,-0.371 0.167,-0.374C0.161,-0.386 0.149,-0.387 0.136,-0.387C0.129,-0.387 0.121,-0.386 0.115,-0.386C0.112,-0.386 0.11,-0.386 0.107,-0.387C0.099,-0.388 0.091,-0.392 0.083,-0.392C0.08,-0.392 0.077,-0.392 0.074,-0.391Z" style="fill-rule:nonzero;"/>
                    </g>
                    <g transform="matrix(80,0,0,80,693.4,162.56)">
                        <path d="M0.131,-0.381C0.104,-0.368 0.082,-0.343 0.068,-0.316C0.046,-0.277 0.036,-0.231 0.036,-0.186C0.036,-0.166 0.038,-0.145 0.042,-0.126C0.055,-0.066 0.103,-0.016 0.157,0.004C0.181,0.012 0.209,0.019 0.236,0.019C0.268,0.019 0.3,0.009 0.322,-0.014C0.333,-0.025 0.341,-0.057 0.354,-0.057C0.358,-0.057 0.363,-0.054 0.369,-0.046C0.377,-0.034 0.371,-0.015 0.381,-0.005C0.385,-0 0.396,0.002 0.41,0.002C0.431,0.002 0.455,-0.003 0.46,-0.011C0.461,-0.014 0.462,-0.019 0.462,-0.025C0.462,-0.04 0.459,-0.059 0.459,-0.068L0.459,-0.084C0.459,-0.107 0.456,-0.131 0.454,-0.155C0.451,-0.176 0.451,-0.199 0.451,-0.221C0.451,-0.253 0.452,-0.286 0.454,-0.316C0.454,-0.326 0.457,-0.34 0.457,-0.352C0.457,-0.361 0.456,-0.369 0.451,-0.375C0.442,-0.384 0.423,-0.386 0.406,-0.386C0.396,-0.386 0.386,-0.386 0.38,-0.385C0.365,-0.384 0.363,-0.376 0.363,-0.37L0.363,-0.361C0.363,-0.353 0.361,-0.348 0.348,-0.348C0.327,-0.348 0.311,-0.376 0.295,-0.385C0.276,-0.394 0.251,-0.4 0.231,-0.401L0.224,-0.401C0.196,-0.401 0.154,-0.393 0.131,-0.381ZM0.15,-0.216C0.155,-0.246 0.17,-0.271 0.192,-0.287C0.207,-0.299 0.226,-0.306 0.247,-0.306C0.251,-0.306 0.256,-0.306 0.261,-0.305C0.285,-0.302 0.313,-0.287 0.33,-0.271C0.349,-0.251 0.359,-0.221 0.359,-0.192C0.359,-0.163 0.349,-0.134 0.329,-0.114C0.309,-0.094 0.274,-0.081 0.241,-0.081C0.227,-0.081 0.214,-0.084 0.202,-0.09C0.166,-0.108 0.148,-0.154 0.148,-0.194C0.148,-0.201 0.148,-0.209 0.15,-0.216Z" style="fill-rule:nonzero;"/>
                    </g>
                    <g transform="matrix(80,0,0,80,734.84,162.56)">
                        <path d="M0.055,-0.39C0.046,-0.39 0.039,-0.387 0.036,-0.376C0.035,-0.372 0.034,-0.368 0.034,-0.365C0.034,-0.338 0.06,-0.309 0.073,-0.289C0.109,-0.234 0.135,-0.173 0.164,-0.116C0.171,-0.102 0.181,-0.09 0.187,-0.076C0.189,-0.072 0.19,-0.067 0.19,-0.063C0.19,-0.051 0.184,-0.041 0.179,-0.029C0.165,0.004 0.148,0.039 0.131,0.072C0.116,0.104 0.096,0.131 0.079,0.162C0.075,0.17 0.071,0.179 0.071,0.184C0.071,0.19 0.074,0.194 0.081,0.197C0.086,0.199 0.091,0.199 0.096,0.199C0.11,0.199 0.126,0.196 0.136,0.195C0.149,0.195 0.159,0.199 0.17,0.199C0.173,0.199 0.177,0.198 0.181,0.197C0.201,0.191 0.199,0.174 0.206,0.158C0.217,0.126 0.227,0.094 0.24,0.063C0.279,-0.032 0.326,-0.121 0.374,-0.211L0.38,-0.222C0.398,-0.257 0.409,-0.294 0.427,-0.328C0.436,-0.344 0.443,-0.358 0.443,-0.368C0.443,-0.38 0.434,-0.386 0.409,-0.386C0.395,-0.386 0.381,-0.389 0.37,-0.389C0.353,-0.389 0.34,-0.384 0.331,-0.361C0.309,-0.303 0.282,-0.246 0.26,-0.187C0.253,-0.17 0.246,-0.164 0.241,-0.164C0.232,-0.164 0.225,-0.186 0.218,-0.207C0.21,-0.235 0.196,-0.261 0.183,-0.287C0.17,-0.314 0.167,-0.346 0.149,-0.371C0.137,-0.386 0.128,-0.39 0.118,-0.39C0.109,-0.39 0.098,-0.386 0.085,-0.386L0.079,-0.386C0.071,-0.387 0.062,-0.39 0.055,-0.39Z" style="fill-rule:nonzero;"/>
                    </g>
                </g>
            </g>
        </g>
    </g>
</svg>
