<?xml version="1.0" encoding="UTF-8" standalone="no"?>
<!DOCTYPE svg PUBLIC "-//W3C//DTD SVG 1.1//EN" "http://www.w3.org/Graphics/SVG/1.1/DTD/svg11.dtd">
<svg width="100%" height="100%" viewBox="0 0 1200 1200" version="1.1" xmlns="http://www.w3.org/2000/svg" xmlns:xlink="http://www.w3.org/1999/xlink" xml:space="preserve" xmlns:serif="http://www.serif.com/" style="fill-rule:evenodd;clip-rule:evenodd;stroke-linejoin:round;stroke-miterlimit:2;">
    <g transform="matrix(1,0,0,1,-2875,0)">
        <g id="PRE-102" transform="matrix(1,0,0,1,2875,0)">
            <rect x="0" y="0" width="1200" height="1200" style="fill:none;"/>
            <g transform="matrix(1,0,0,1,10,5)">
                <a xlink:href="102.svg"><g id="Link-Ellipse" serif:id="Link Ellipse" transform="matrix(8,0,0,8,-7810,-7800)">
                    <circle cx="1050" cy="1050" r="50" style="fill:#d5d5d5;"/>
					</g></a>
                <g transform="matrix(1,0,0,1,10,450)">
                    <g transform="matrix(80,0,0,80,379.28,162.56)">
                        <path d="M0.145,-0.598C0.138,-0.598 0.131,-0.599 0.125,-0.599C0.111,-0.6 0.098,-0.603 0.087,-0.603C0.073,-0.603 0.064,-0.597 0.064,-0.571C0.064,-0.541 0.072,-0.509 0.072,-0.476C0.072,-0.445 0.071,-0.414 0.071,-0.383L0.071,-0.371C0.071,-0.326 0.069,-0.281 0.069,-0.236C0.069,-0.222 0.069,-0.207 0.07,-0.193C0.071,-0.169 0.073,-0.143 0.073,-0.118C0.073,-0.111 0.072,-0.103 0.072,-0.096C0.071,-0.076 0.057,-0.048 0.057,-0.026C0.057,-0.021 0.058,-0.016 0.061,-0.011C0.068,0.004 0.086,0.009 0.105,0.009C0.116,0.009 0.128,0.007 0.136,0.006C0.151,0.004 0.168,0.004 0.185,0.004C0.199,0.004 0.214,0.004 0.228,0.005C0.237,0.006 0.247,0.007 0.257,0.007C0.274,0.007 0.291,0.006 0.306,0.006L0.324,0.006C0.34,0.007 0.363,0.015 0.383,0.015C0.392,0.015 0.401,0.014 0.407,0.008C0.415,0.001 0.419,-0.027 0.419,-0.052C0.419,-0.067 0.417,-0.08 0.414,-0.086C0.407,-0.097 0.375,-0.101 0.351,-0.101C0.342,-0.101 0.336,-0.101 0.331,-0.1C0.318,-0.097 0.309,-0.091 0.296,-0.091C0.294,-0.091 0.291,-0.091 0.289,-0.092C0.277,-0.094 0.268,-0.096 0.256,-0.096L0.241,-0.096C0.231,-0.095 0.224,-0.094 0.217,-0.094C0.198,-0.094 0.181,-0.099 0.176,-0.123C0.172,-0.136 0.171,-0.149 0.171,-0.162C0.171,-0.179 0.174,-0.197 0.174,-0.213L0.174,-0.236C0.174,-0.258 0.176,-0.28 0.205,-0.281L0.237,-0.281C0.286,-0.281 0.341,-0.279 0.392,-0.277L0.399,-0.277C0.415,-0.277 0.417,-0.282 0.417,-0.299L0.417,-0.321C0.417,-0.336 0.416,-0.352 0.413,-0.365C0.396,-0.374 0.377,-0.376 0.357,-0.376C0.346,-0.376 0.336,-0.376 0.326,-0.375C0.296,-0.372 0.267,-0.372 0.238,-0.371L0.222,-0.371C0.196,-0.371 0.176,-0.376 0.171,-0.411C0.17,-0.419 0.17,-0.427 0.17,-0.434C0.17,-0.453 0.173,-0.469 0.181,-0.491C0.187,-0.507 0.19,-0.51 0.203,-0.51L0.211,-0.51C0.226,-0.509 0.241,-0.508 0.257,-0.508C0.291,-0.508 0.321,-0.506 0.353,-0.506C0.386,-0.506 0.412,-0.507 0.416,-0.545L0.416,-0.569C0.416,-0.59 0.411,-0.602 0.381,-0.604C0.351,-0.605 0.319,-0.606 0.291,-0.606C0.242,-0.606 0.193,-0.598 0.145,-0.598Z" style="fill-rule:nonzero;"/>
                    </g>
                    <g transform="matrix(80,0,0,80,415.68,162.56)">
                        <path d="M0.093,-0.657C0.082,-0.657 0.073,-0.654 0.068,-0.641C0.064,-0.63 0.062,-0.619 0.062,-0.607C0.062,-0.586 0.067,-0.565 0.068,-0.545C0.072,-0.476 0.071,-0.407 0.074,-0.337C0.075,-0.311 0.076,-0.285 0.076,-0.258C0.076,-0.216 0.074,-0.173 0.072,-0.131C0.071,-0.098 0.067,-0.066 0.066,-0.035L0.066,-0.031C0.066,-0.002 0.083,0.004 0.106,0.004C0.112,0.004 0.12,0.003 0.137,0.002C0.151,0.002 0.174,-0 0.181,-0.011C0.185,-0.017 0.186,-0.025 0.186,-0.033C0.186,-0.046 0.183,-0.059 0.183,-0.069C0.181,-0.097 0.178,-0.126 0.178,-0.154C0.178,-0.225 0.176,-0.294 0.176,-0.365L0.176,-0.429C0.176,-0.466 0.176,-0.502 0.18,-0.539C0.182,-0.564 0.187,-0.589 0.187,-0.615L0.187,-0.625C0.186,-0.649 0.172,-0.651 0.156,-0.651L0.136,-0.651C0.123,-0.651 0.107,-0.657 0.093,-0.657Z" style="fill-rule:nonzero;"/>
                    </g>
                    <g transform="matrix(80,0,0,80,435.28,162.56)">
                        <path d="M0.136,-0.388C0.111,-0.381 0.087,-0.371 0.069,-0.355C0.05,-0.337 0.037,-0.315 0.037,-0.286C0.037,-0.281 0.037,-0.277 0.038,-0.273C0.042,-0.226 0.078,-0.194 0.117,-0.173C0.141,-0.16 0.216,-0.148 0.216,-0.111C0.216,-0.108 0.215,-0.105 0.214,-0.101C0.208,-0.083 0.188,-0.076 0.169,-0.076C0.156,-0.076 0.143,-0.079 0.133,-0.084C0.117,-0.091 0.115,-0.108 0.096,-0.111C0.093,-0.112 0.09,-0.112 0.086,-0.112C0.075,-0.112 0.063,-0.109 0.054,-0.103C0.038,-0.095 0.024,-0.079 0.024,-0.062C0.024,-0.056 0.026,-0.049 0.032,-0.043C0.041,-0.032 0.062,-0.023 0.076,-0.016C0.09,-0.007 0.108,-0.002 0.124,0.002C0.136,0.005 0.151,0.008 0.167,0.008C0.186,0.008 0.206,0.005 0.221,-0C0.276,-0.016 0.302,-0.062 0.302,-0.113C0.302,-0.126 0.301,-0.141 0.297,-0.154C0.285,-0.201 0.232,-0.22 0.193,-0.24C0.173,-0.25 0.129,-0.263 0.129,-0.288C0.129,-0.293 0.131,-0.298 0.134,-0.304C0.141,-0.314 0.15,-0.317 0.16,-0.317C0.168,-0.317 0.177,-0.315 0.186,-0.312C0.199,-0.308 0.212,-0.295 0.226,-0.293C0.246,-0.293 0.263,-0.312 0.272,-0.326C0.276,-0.331 0.278,-0.337 0.278,-0.342C0.278,-0.354 0.268,-0.364 0.256,-0.373C0.246,-0.38 0.23,-0.388 0.218,-0.391C0.213,-0.392 0.207,-0.392 0.202,-0.392L0.192,-0.392C0.185,-0.392 0.178,-0.393 0.171,-0.393C0.159,-0.393 0.148,-0.391 0.136,-0.388Z" style="fill-rule:nonzero;"/>
                    </g>
                    <g transform="matrix(80,0,0,80,461.76,162.56)">
                        <path d="M0.041,-0.54C0.041,-0.528 0.043,-0.516 0.05,-0.506C0.064,-0.482 0.088,-0.472 0.112,-0.472C0.149,-0.472 0.186,-0.496 0.194,-0.533C0.195,-0.536 0.195,-0.541 0.195,-0.544C0.195,-0.584 0.152,-0.621 0.112,-0.621C0.108,-0.621 0.103,-0.62 0.099,-0.619C0.065,-0.611 0.041,-0.575 0.041,-0.54ZM0.094,-0.384C0.085,-0.384 0.076,-0.381 0.071,-0.369C0.066,-0.361 0.066,-0.351 0.066,-0.341C0.066,-0.318 0.072,-0.293 0.073,-0.273C0.074,-0.249 0.075,-0.224 0.075,-0.2C0.075,-0.159 0.073,-0.118 0.069,-0.078C0.067,-0.066 0.065,-0.05 0.065,-0.036C0.065,-0.018 0.069,-0.004 0.087,-0C0.095,0.002 0.114,0.004 0.132,0.004C0.151,0.004 0.169,0.002 0.174,-0.004C0.18,-0.011 0.182,-0.022 0.182,-0.036C0.182,-0.056 0.177,-0.08 0.176,-0.091C0.174,-0.121 0.172,-0.157 0.172,-0.183C0.173,-0.219 0.177,-0.256 0.177,-0.291L0.177,-0.311C0.177,-0.321 0.178,-0.331 0.178,-0.341C0.178,-0.351 0.177,-0.361 0.175,-0.369C0.171,-0.38 0.161,-0.382 0.15,-0.382C0.141,-0.382 0.131,-0.381 0.123,-0.381L0.119,-0.381C0.111,-0.381 0.102,-0.384 0.094,-0.384Z" style="fill-rule:nonzero;"/>
                    </g>
                    <g transform="matrix(80,0,0,80,481.36,162.56)">
                        <path d="M0.26,-0.4C0.229,-0.4 0.2,-0.388 0.171,-0.381C0.14,-0.373 0.111,-0.359 0.088,-0.333C0.055,-0.295 0.046,-0.251 0.046,-0.206C0.046,-0.19 0.047,-0.173 0.049,-0.156C0.056,-0.088 0.086,-0.043 0.145,-0.007C0.176,0.012 0.205,0.021 0.236,0.021C0.261,0.021 0.286,0.015 0.313,0.004C0.346,-0.01 0.387,-0.024 0.411,-0.052C0.415,-0.058 0.417,-0.064 0.417,-0.07C0.417,-0.093 0.387,-0.116 0.363,-0.116C0.359,-0.116 0.356,-0.115 0.352,-0.114C0.327,-0.104 0.313,-0.078 0.286,-0.072C0.28,-0.071 0.273,-0.071 0.266,-0.071L0.243,-0.071C0.216,-0.071 0.188,-0.076 0.169,-0.097C0.158,-0.109 0.146,-0.131 0.146,-0.148C0.146,-0.151 0.146,-0.154 0.147,-0.157C0.151,-0.173 0.166,-0.176 0.181,-0.176C0.195,-0.176 0.209,-0.174 0.22,-0.174C0.231,-0.174 0.238,-0.175 0.246,-0.175C0.29,-0.175 0.334,-0.17 0.378,-0.17L0.386,-0.17C0.416,-0.17 0.432,-0.171 0.432,-0.197C0.432,-0.201 0.432,-0.206 0.431,-0.211C0.427,-0.243 0.426,-0.273 0.41,-0.302C0.381,-0.355 0.321,-0.4 0.26,-0.4ZM0.166,-0.295C0.168,-0.298 0.171,-0.301 0.174,-0.303C0.191,-0.316 0.216,-0.324 0.241,-0.324C0.274,-0.324 0.307,-0.311 0.321,-0.283C0.323,-0.278 0.325,-0.271 0.325,-0.265C0.325,-0.256 0.322,-0.246 0.317,-0.241C0.308,-0.233 0.286,-0.235 0.274,-0.234L0.266,-0.234C0.246,-0.234 0.227,-0.236 0.207,-0.236C0.18,-0.236 0.151,-0.245 0.151,-0.266C0.151,-0.273 0.156,-0.283 0.166,-0.295Z" style="fill-rule:nonzero;"/>
                    </g>
                    <g transform="matrix(80,0,0,80,539.44,162.56)">
                        <path d="M0.091,-0.465L0.093,-0.437L0.093,-0.417C0.093,-0.398 0.092,-0.379 0.092,-0.361C0.092,-0.353 0.092,-0.346 0.093,-0.34C0.094,-0.327 0.094,-0.315 0.094,-0.301C0.094,-0.251 0.09,-0.201 0.09,-0.15C0.09,-0.139 0.083,-0.094 0.083,-0.056C0.083,-0.022 0.088,0.007 0.106,0.007C0.106,0.007 0.107,0.006 0.109,0.006C0.117,0.005 0.126,0.003 0.135,0.003L0.139,0.003C0.15,0.003 0.161,0.005 0.171,0.005C0.181,0.005 0.189,0.003 0.196,-0.008C0.2,-0.016 0.201,-0.026 0.201,-0.035C0.201,-0.046 0.199,-0.059 0.199,-0.07L0.195,-0.166C0.195,-0.174 0.194,-0.183 0.194,-0.194C0.194,-0.217 0.196,-0.243 0.206,-0.258C0.218,-0.275 0.246,-0.278 0.27,-0.278C0.281,-0.278 0.291,-0.277 0.299,-0.277C0.328,-0.276 0.357,-0.273 0.387,-0.27C0.389,-0.27 0.391,-0.269 0.392,-0.269C0.431,-0.265 0.441,-0.26 0.441,-0.22C0.441,-0.202 0.447,-0.188 0.449,-0.171L0.449,-0.162C0.449,-0.15 0.447,-0.137 0.447,-0.125C0.447,-0.091 0.446,-0.059 0.445,-0.027C0.445,-0.002 0.459,0.005 0.48,0.005C0.487,0.005 0.496,0.004 0.505,0.004L0.516,0.004C0.544,0.004 0.549,-0.011 0.549,-0.036L0.549,-0.051C0.548,-0.059 0.548,-0.068 0.548,-0.076C0.548,-0.091 0.549,-0.105 0.549,-0.119C0.549,-0.127 0.548,-0.136 0.548,-0.146C0.547,-0.164 0.546,-0.182 0.546,-0.201C0.546,-0.247 0.549,-0.292 0.549,-0.337L0.549,-0.346C0.549,-0.376 0.552,-0.404 0.552,-0.433C0.552,-0.455 0.551,-0.476 0.551,-0.497C0.551,-0.508 0.551,-0.518 0.552,-0.529C0.554,-0.541 0.557,-0.555 0.557,-0.566C0.557,-0.581 0.552,-0.591 0.531,-0.596C0.52,-0.597 0.506,-0.599 0.493,-0.599C0.475,-0.599 0.456,-0.596 0.447,-0.581C0.442,-0.574 0.441,-0.566 0.441,-0.557C0.441,-0.54 0.447,-0.521 0.447,-0.505L0.447,-0.501C0.446,-0.491 0.446,-0.48 0.446,-0.47L0.446,-0.454C0.446,-0.438 0.446,-0.422 0.445,-0.406C0.441,-0.367 0.421,-0.366 0.389,-0.365L0.382,-0.365C0.361,-0.364 0.34,-0.363 0.318,-0.363C0.3,-0.363 0.281,-0.364 0.263,-0.366C0.243,-0.367 0.221,-0.362 0.208,-0.38C0.198,-0.393 0.196,-0.409 0.196,-0.426C0.196,-0.439 0.197,-0.453 0.197,-0.466C0.197,-0.497 0.205,-0.525 0.205,-0.554L0.205,-0.562C0.203,-0.601 0.179,-0.601 0.147,-0.603L0.13,-0.603C0.114,-0.603 0.096,-0.601 0.087,-0.589C0.083,-0.583 0.082,-0.575 0.082,-0.566C0.082,-0.549 0.086,-0.531 0.087,-0.517C0.089,-0.5 0.091,-0.482 0.091,-0.465Z" style="fill-rule:nonzero;"/>
                    </g>
                    <g transform="matrix(80,0,0,80,591.44,162.56)">
                        <path d="M0.426,-0.294C0.405,-0.331 0.381,-0.357 0.344,-0.378C0.316,-0.394 0.283,-0.401 0.25,-0.401C0.183,-0.401 0.114,-0.371 0.081,-0.318C0.056,-0.278 0.044,-0.23 0.044,-0.181C0.044,-0.166 0.045,-0.152 0.047,-0.138C0.061,-0.041 0.162,0.016 0.256,0.016C0.286,0.016 0.315,0.01 0.341,-0.001C0.417,-0.036 0.451,-0.111 0.451,-0.19C0.451,-0.205 0.45,-0.219 0.447,-0.234C0.445,-0.256 0.437,-0.275 0.426,-0.294ZM0.132,-0.193C0.132,-0.197 0.132,-0.201 0.133,-0.205C0.141,-0.266 0.194,-0.305 0.249,-0.305C0.276,-0.305 0.302,-0.296 0.325,-0.276C0.347,-0.255 0.365,-0.224 0.365,-0.192C0.365,-0.188 0.365,-0.184 0.364,-0.18C0.357,-0.14 0.331,-0.1 0.295,-0.081C0.281,-0.075 0.267,-0.071 0.252,-0.071C0.247,-0.071 0.241,-0.072 0.236,-0.073C0.214,-0.076 0.207,-0.08 0.192,-0.092C0.191,-0.093 0.19,-0.095 0.188,-0.096C0.171,-0.111 0.156,-0.121 0.145,-0.141C0.137,-0.158 0.132,-0.176 0.132,-0.193Z" style="fill-rule:nonzero;"/>
                    </g>
                    <g transform="matrix(80,0,0,80,631.2,162.56)">
                        <path d="M0.093,-0.657C0.082,-0.657 0.073,-0.654 0.068,-0.641C0.064,-0.63 0.062,-0.619 0.062,-0.607C0.062,-0.586 0.067,-0.565 0.068,-0.545C0.072,-0.476 0.071,-0.407 0.074,-0.337C0.075,-0.311 0.076,-0.285 0.076,-0.258C0.076,-0.216 0.074,-0.173 0.072,-0.131C0.071,-0.098 0.067,-0.066 0.066,-0.035L0.066,-0.031C0.066,-0.002 0.083,0.004 0.106,0.004C0.112,0.004 0.12,0.003 0.137,0.002C0.151,0.002 0.174,-0 0.181,-0.011C0.185,-0.017 0.186,-0.025 0.186,-0.033C0.186,-0.046 0.183,-0.059 0.183,-0.069C0.181,-0.097 0.178,-0.126 0.178,-0.154C0.178,-0.225 0.176,-0.294 0.176,-0.365L0.176,-0.429C0.176,-0.466 0.176,-0.502 0.18,-0.539C0.182,-0.564 0.187,-0.589 0.187,-0.615L0.187,-0.625C0.186,-0.649 0.172,-0.651 0.156,-0.651L0.136,-0.651C0.123,-0.651 0.107,-0.657 0.093,-0.657Z" style="fill-rule:nonzero;"/>
                    </g>
                    <g transform="matrix(80,0,0,80,650.8,162.56)">
                        <path d="M0.041,-0.54C0.041,-0.528 0.043,-0.516 0.05,-0.506C0.064,-0.482 0.088,-0.472 0.112,-0.472C0.149,-0.472 0.186,-0.496 0.194,-0.533C0.195,-0.536 0.195,-0.541 0.195,-0.544C0.195,-0.584 0.152,-0.621 0.112,-0.621C0.108,-0.621 0.103,-0.62 0.099,-0.619C0.065,-0.611 0.041,-0.575 0.041,-0.54ZM0.094,-0.384C0.085,-0.384 0.076,-0.381 0.071,-0.369C0.066,-0.361 0.066,-0.351 0.066,-0.341C0.066,-0.318 0.072,-0.293 0.073,-0.273C0.074,-0.249 0.075,-0.224 0.075,-0.2C0.075,-0.159 0.073,-0.118 0.069,-0.078C0.067,-0.066 0.065,-0.05 0.065,-0.036C0.065,-0.018 0.069,-0.004 0.087,-0C0.095,0.002 0.114,0.004 0.132,0.004C0.151,0.004 0.169,0.002 0.174,-0.004C0.18,-0.011 0.182,-0.022 0.182,-0.036C0.182,-0.056 0.177,-0.08 0.176,-0.091C0.174,-0.121 0.172,-0.157 0.172,-0.183C0.173,-0.219 0.177,-0.256 0.177,-0.291L0.177,-0.311C0.177,-0.321 0.178,-0.331 0.178,-0.341C0.178,-0.351 0.177,-0.361 0.175,-0.369C0.171,-0.38 0.161,-0.382 0.15,-0.382C0.141,-0.382 0.131,-0.381 0.123,-0.381L0.119,-0.381C0.111,-0.381 0.102,-0.384 0.094,-0.384Z" style="fill-rule:nonzero;"/>
                    </g>
                    <g transform="matrix(80,0,0,80,670.4,162.56)">
                        <path d="M0.221,-0.396C0.196,-0.396 0.168,-0.39 0.151,-0.384C0.116,-0.371 0.091,-0.348 0.073,-0.32C0.05,-0.281 0.041,-0.231 0.041,-0.184C0.041,-0.171 0.041,-0.158 0.042,-0.146C0.05,-0.076 0.084,-0.027 0.151,-0.002C0.171,0.005 0.194,0.01 0.216,0.01C0.236,0.01 0.256,0.006 0.276,-0.001C0.291,-0.008 0.319,-0.037 0.335,-0.037C0.353,-0.037 0.355,-0.006 0.368,-0C0.374,0.004 0.386,0.005 0.4,0.005C0.421,0.005 0.445,0.001 0.451,-0.008C0.456,-0.016 0.458,-0.028 0.458,-0.042C0.458,-0.063 0.454,-0.087 0.452,-0.101C0.449,-0.134 0.45,-0.166 0.448,-0.199C0.447,-0.211 0.447,-0.223 0.447,-0.235C0.447,-0.288 0.452,-0.342 0.452,-0.398C0.452,-0.436 0.451,-0.475 0.451,-0.513C0.451,-0.54 0.451,-0.566 0.454,-0.592C0.455,-0.601 0.457,-0.611 0.457,-0.622C0.457,-0.635 0.454,-0.646 0.441,-0.651C0.436,-0.653 0.431,-0.654 0.426,-0.654C0.412,-0.654 0.397,-0.65 0.384,-0.65L0.371,-0.65C0.354,-0.65 0.346,-0.648 0.342,-0.626C0.34,-0.616 0.339,-0.607 0.339,-0.597C0.339,-0.587 0.34,-0.577 0.341,-0.568C0.344,-0.54 0.349,-0.514 0.349,-0.486L0.349,-0.476C0.347,-0.459 0.346,-0.441 0.346,-0.425L0.346,-0.416C0.346,-0.402 0.354,-0.386 0.354,-0.372C0.354,-0.367 0.353,-0.362 0.351,-0.358C0.346,-0.35 0.341,-0.346 0.337,-0.346C0.327,-0.346 0.317,-0.359 0.31,-0.366C0.296,-0.376 0.276,-0.381 0.261,-0.388C0.25,-0.393 0.236,-0.396 0.221,-0.396ZM0.128,-0.204C0.128,-0.237 0.14,-0.267 0.169,-0.291C0.184,-0.302 0.204,-0.31 0.23,-0.311L0.236,-0.311C0.267,-0.311 0.292,-0.304 0.315,-0.28C0.336,-0.256 0.35,-0.225 0.35,-0.193L0.35,-0.186C0.348,-0.154 0.328,-0.104 0.301,-0.086C0.289,-0.078 0.274,-0.076 0.257,-0.076C0.229,-0.076 0.197,-0.084 0.178,-0.094C0.151,-0.107 0.138,-0.141 0.132,-0.17C0.13,-0.181 0.128,-0.193 0.128,-0.204Z" style="fill-rule:nonzero;"/>
                    </g>
                    <g transform="matrix(80,0,0,80,711.84,162.56)">
                        <path d="M0.131,-0.381C0.104,-0.368 0.082,-0.343 0.068,-0.316C0.046,-0.277 0.036,-0.231 0.036,-0.186C0.036,-0.166 0.038,-0.145 0.042,-0.126C0.055,-0.066 0.103,-0.016 0.157,0.004C0.181,0.012 0.209,0.019 0.236,0.019C0.268,0.019 0.3,0.009 0.322,-0.014C0.333,-0.025 0.341,-0.057 0.354,-0.057C0.358,-0.057 0.363,-0.054 0.369,-0.046C0.377,-0.034 0.371,-0.015 0.381,-0.005C0.385,-0 0.396,0.002 0.41,0.002C0.431,0.002 0.455,-0.003 0.46,-0.011C0.461,-0.014 0.462,-0.019 0.462,-0.025C0.462,-0.04 0.459,-0.059 0.459,-0.068L0.459,-0.084C0.459,-0.107 0.456,-0.131 0.454,-0.155C0.451,-0.176 0.451,-0.199 0.451,-0.221C0.451,-0.253 0.452,-0.286 0.454,-0.316C0.454,-0.326 0.457,-0.34 0.457,-0.352C0.457,-0.361 0.456,-0.369 0.451,-0.375C0.442,-0.384 0.423,-0.386 0.406,-0.386C0.396,-0.386 0.386,-0.386 0.38,-0.385C0.365,-0.384 0.363,-0.376 0.363,-0.37L0.363,-0.361C0.363,-0.353 0.361,-0.348 0.348,-0.348C0.327,-0.348 0.311,-0.376 0.295,-0.385C0.276,-0.394 0.251,-0.4 0.231,-0.401L0.224,-0.401C0.196,-0.401 0.154,-0.393 0.131,-0.381ZM0.15,-0.216C0.155,-0.246 0.17,-0.271 0.192,-0.287C0.207,-0.299 0.226,-0.306 0.247,-0.306C0.251,-0.306 0.256,-0.306 0.261,-0.305C0.285,-0.302 0.313,-0.287 0.33,-0.271C0.349,-0.251 0.359,-0.221 0.359,-0.192C0.359,-0.163 0.349,-0.134 0.329,-0.114C0.309,-0.094 0.274,-0.081 0.241,-0.081C0.227,-0.081 0.214,-0.084 0.202,-0.09C0.166,-0.108 0.148,-0.154 0.148,-0.194C0.148,-0.201 0.148,-0.209 0.15,-0.216Z" style="fill-rule:nonzero;"/>
                    </g>
                    <g transform="matrix(80,0,0,80,753.28,162.56)">
                        <path d="M0.055,-0.39C0.046,-0.39 0.039,-0.387 0.036,-0.376C0.035,-0.372 0.034,-0.368 0.034,-0.365C0.034,-0.338 0.06,-0.309 0.073,-0.289C0.109,-0.234 0.135,-0.173 0.164,-0.116C0.171,-0.102 0.181,-0.09 0.187,-0.076C0.189,-0.072 0.19,-0.067 0.19,-0.063C0.19,-0.051 0.184,-0.041 0.179,-0.029C0.165,0.004 0.148,0.039 0.131,0.072C0.116,0.104 0.096,0.131 0.079,0.162C0.075,0.17 0.071,0.179 0.071,0.184C0.071,0.19 0.074,0.194 0.081,0.197C0.086,0.199 0.091,0.199 0.096,0.199C0.11,0.199 0.126,0.196 0.136,0.195C0.149,0.195 0.159,0.199 0.17,0.199C0.173,0.199 0.177,0.198 0.181,0.197C0.201,0.191 0.199,0.174 0.206,0.158C0.217,0.126 0.227,0.094 0.24,0.063C0.279,-0.032 0.326,-0.121 0.374,-0.211L0.38,-0.222C0.398,-0.257 0.409,-0.294 0.427,-0.328C0.436,-0.344 0.443,-0.358 0.443,-0.368C0.443,-0.38 0.434,-0.386 0.409,-0.386C0.395,-0.386 0.381,-0.389 0.37,-0.389C0.353,-0.389 0.34,-0.384 0.331,-0.361C0.309,-0.303 0.282,-0.246 0.26,-0.187C0.253,-0.17 0.246,-0.164 0.241,-0.164C0.232,-0.164 0.225,-0.186 0.218,-0.207C0.21,-0.235 0.196,-0.261 0.183,-0.287C0.17,-0.314 0.167,-0.346 0.149,-0.371C0.137,-0.386 0.128,-0.39 0.118,-0.39C0.109,-0.39 0.098,-0.386 0.085,-0.386L0.079,-0.386C0.071,-0.387 0.062,-0.39 0.055,-0.39Z" style="fill-rule:nonzero;"/>
                    </g>
                </g>
            </g>
        </g>
    </g>
</svg>
