<?xml version="1.0" encoding="UTF-8" standalone="no"?>
<!DOCTYPE svg PUBLIC "-//W3C//DTD SVG 1.1//EN" "http://www.w3.org/Graphics/SVG/1.1/DTD/svg11.dtd">
<svg width="100%" height="100%" viewBox="0 0 1801 1800" version="1.1" xmlns="http://www.w3.org/2000/svg" xmlns:xlink="http://www.w3.org/1999/xlink" xml:space="preserve" xmlns:serif="http://www.serif.com/" style="fill-rule:evenodd;clip-rule:evenodd;stroke-linecap:round;stroke-linejoin:round;stroke-miterlimit:1.5;">
    <g transform="matrix(1,0,0,1,-91,0)">
        <g id="PRE-1" transform="matrix(1,0,0,1,91.4315,0)">
			<a xlink:href="1.svg">
            <rect x="0" y="0" width="1800" height="1800" style="fill:none;"/>
            <g transform="matrix(1,0,0,1,149.469,149.453)">
                <rect x="0" y="0" width="1501.06" height="1501.09" style="fill:white;"/>
            </g>
            <g transform="matrix(1,0,0,1,-5.65913,-2049.3)">
                <g transform="matrix(1,-0,-0,1,5.22759,2049.3)">
                    <path d="M930.57,524.443L930.744,524.717L930.904,525L931.05,525.289L931.182,525.586L931.299,525.888L931.402,526.196L931.49,526.508L931.562,526.824L931.619,527.144L931.661,527.465L931.687,527.789L931.697,528.113L931.692,528.437L931.671,528.761L931.635,529.083L931.583,529.404L931.515,529.721L931.433,530.035L931.335,530.344L931.222,530.648L931.095,530.947L930.954,531.239L930.798,531.523L930.629,531.8L930.447,532.069L930.252,532.328L930.045,532.578L929.826,532.817L929.596,533.046L929.355,533.263L929.103,533.468L928.842,533.661L928.572,533.841L928.294,534.007L928.008,534.16L927.715,534.299L927.415,534.424L927.11,534.534L926.8,534.63L926.486,534.71L926.168,534.775L925.847,534.824L925.525,534.858L925.201,534.876L924.876,534.879L924.552,534.866L924.229,534.837L923.908,534.793L923.589,534.733L923.273,534.658L922.962,534.568L922.655,534.462L922.353,534.342L922.058,534.208L921.769,534.06L921.489,533.897L921.216,533.722L920.952,533.533L920.697,533.332L920.453,533.119L920.219,532.894L919.996,532.658L919.785,532.412L919.586,532.156L919.399,531.89L904.846,510.06L890.292,531.89L890.106,532.156L889.907,532.412L889.696,532.658L889.473,532.894L889.239,533.119L888.994,533.332L888.74,533.533L888.476,533.722L888.203,533.897L887.922,534.06L887.634,534.208L887.338,534.342L887.037,534.462L886.73,534.568L886.419,534.658L886.103,534.733L885.784,534.793L885.463,534.837L885.14,534.866L884.815,534.879L884.491,534.876L884.167,534.858L883.844,534.824L883.524,534.775L883.206,534.71L882.892,534.63L882.581,534.534L882.276,534.424L881.977,534.299L881.684,534.16L881.398,534.007L881.119,533.841L880.849,533.661L880.588,533.468L880.337,533.263L880.096,533.046L879.866,532.817L879.647,532.578L879.439,532.328L879.245,532.069L879.062,531.8L878.893,531.523L878.738,531.239L878.597,530.947L878.469,530.648L878.357,530.344L878.259,530.035L878.176,529.721L878.109,529.404L878.057,529.083L878.02,528.761L877.999,528.437L877.994,528.113L878.005,527.789L878.031,527.465L878.072,527.144L878.13,526.824L878.202,526.508L878.29,526.196L878.393,525.888L878.51,525.586L878.642,525.289L878.788,525L878.948,524.717L879.121,524.443L904.846,485.856L930.57,524.443Z"/>
                    <path d="M904.846,745.825L904.846,497.958" style="fill:none;stroke:black;stroke-width:13.43px;"/>
                </g>
            </g>
            <g transform="matrix(0.791558,-0.611094,0.611094,0.791558,-1524.89,-907.809)">
                <g transform="matrix(0.791558,0.611094,-0.611094,0.791558,651.944,1650.17)">
                    <path d="M789.071,557.594L789.363,557.7L789.649,557.819L789.929,557.951L790.203,558.097L790.471,558.254L790.73,558.424L790.981,558.606L791.224,558.799L791.458,559.003L791.682,559.217L791.895,559.442L792.098,559.676L792.29,559.92L792.471,560.172L792.64,560.432L792.796,560.7L792.941,560.974L793.072,561.255L793.19,561.542L793.295,561.834L793.386,562.13L793.463,562.431L793.527,562.734L793.576,563.04L793.611,563.348L793.632,563.658L793.638,563.968L793.631,564.278L793.609,564.587L793.572,564.895L793.522,565.201L793.457,565.504L793.379,565.804L793.286,566.101L793.18,566.392L793.061,566.678L792.929,566.959L792.784,567.233L792.626,567.5L792.456,567.759L792.275,568.011L792.082,568.253L791.878,568.487L791.663,568.711L791.438,568.925L791.204,569.128L790.96,569.32L790.708,569.5L790.448,569.669L790.181,569.826L789.906,569.97L789.625,570.101L789.338,570.219L789.046,570.324L788.75,570.415L788.45,570.492L788.146,570.556L787.84,570.605L787.532,570.64L787.222,570.661L786.912,570.668L786.602,570.66L786.293,570.638L785.985,570.602L785.679,570.551L785.376,570.486L785.076,570.408L784.78,570.316L759.92,561.929L761.74,588.103L761.754,588.412L761.754,588.722L761.74,589.032L761.712,589.341L761.669,589.648L761.612,589.953L761.541,590.255L761.456,590.553L761.358,590.847L761.246,591.136L761.12,591.42L760.982,591.698L760.831,591.969L760.668,592.232L760.493,592.488L760.306,592.736L760.108,592.974L759.899,593.203L759.68,593.423L759.451,593.632L759.212,593.83L758.965,594.017L758.709,594.192L758.445,594.355L758.174,594.506L757.897,594.645L757.613,594.77L757.324,594.882L757.03,594.981L756.732,595.065L756.43,595.137L756.125,595.194L755.818,595.236L755.509,595.265L755.199,595.279L754.889,595.279L754.579,595.265L754.271,595.237L753.963,595.194L753.659,595.137L753.357,595.066L753.058,594.981L752.764,594.883L752.475,594.771L752.192,594.645L751.914,594.507L751.643,594.356L751.379,594.193L751.123,594.018L750.876,593.831L750.637,593.633L750.408,593.424L750.189,593.205L749.98,592.976L749.782,592.737L749.595,592.49L749.419,592.234L749.256,591.97L749.105,591.699L748.967,591.422L748.842,591.138L748.73,590.849L748.631,590.555L748.546,590.257L748.475,589.955L748.418,589.65L748.375,589.343L748.347,589.034L745.129,542.77L789.071,557.594Z"/>
                    <path d="M903.994,748.551C903.994,748.551 783.849,592.925 752.524,552.35" style="fill:none;stroke:black;stroke-width:13.43px;"/>
                </g>
            </g>
            <g transform="matrix(1,0,0,1,-133.342,-2015.24)">
                <g transform="matrix(83.3333,0,0,83.3333,676.866,2935.62)">
                    <path d="M0.194,0.012C0.153,0.012 0.119,0 0.093,-0.024C0.066,-0.048 0.052,-0.082 0.052,-0.126C0.052,-0.179 0.076,-0.22 0.123,-0.249C0.17,-0.277 0.246,-0.297 0.35,-0.308C0.35,-0.323 0.348,-0.338 0.345,-0.353C0.343,-0.368 0.337,-0.381 0.33,-0.392C0.323,-0.403 0.313,-0.412 0.3,-0.42C0.286,-0.427 0.27,-0.43 0.25,-0.43C0.222,-0.43 0.196,-0.425 0.171,-0.414C0.146,-0.403 0.124,-0.391 0.105,-0.378L0.073,-0.435C0.096,-0.45 0.123,-0.464 0.156,-0.477C0.189,-0.491 0.225,-0.498 0.264,-0.498C0.323,-0.498 0.366,-0.48 0.393,-0.444C0.42,-0.407 0.433,-0.359 0.433,-0.298L0.433,0L0.365,0L0.358,-0.058L0.355,-0.058C0.332,-0.039 0.307,-0.022 0.28,-0.009C0.253,0.005 0.225,0.012 0.194,0.012ZM0.218,-0.054C0.241,-0.054 0.263,-0.059 0.284,-0.07C0.305,-0.082 0.327,-0.098 0.35,-0.119L0.35,-0.254C0.309,-0.249 0.275,-0.242 0.248,-0.235C0.22,-0.228 0.198,-0.219 0.181,-0.209C0.164,-0.199 0.151,-0.188 0.143,-0.174C0.136,-0.162 0.132,-0.147 0.132,-0.132C0.132,-0.104 0.14,-0.084 0.157,-0.072C0.174,-0.06 0.194,-0.054 0.218,-0.054Z" style="fill-rule:nonzero;"/>
                </g>
                <g transform="matrix(83.3333,0,0,83.3333,718.866,2935.62)">
                    <path d="M0.248,0.012C0.187,0.012 0.138,-0.01 0.102,-0.054C0.065,-0.098 0.047,-0.161 0.047,-0.242C0.047,-0.281 0.053,-0.317 0.065,-0.348C0.076,-0.38 0.092,-0.407 0.111,-0.429C0.13,-0.451 0.153,-0.468 0.178,-0.48C0.203,-0.492 0.23,-0.498 0.258,-0.498C0.286,-0.498 0.31,-0.493 0.331,-0.483C0.352,-0.473 0.373,-0.459 0.394,-0.442L0.39,-0.525L0.39,-0.712L0.473,-0.712L0.473,0L0.405,0L0.398,-0.057L0.395,-0.057C0.376,-0.038 0.354,-0.022 0.329,-0.009C0.304,0.005 0.277,0.012 0.248,0.012ZM0.266,-0.057C0.289,-0.057 0.31,-0.063 0.33,-0.074C0.35,-0.085 0.37,-0.101 0.39,-0.124L0.39,-0.378C0.369,-0.397 0.349,-0.41 0.331,-0.418C0.312,-0.425 0.292,-0.429 0.272,-0.429C0.253,-0.429 0.234,-0.425 0.218,-0.416C0.201,-0.406 0.186,-0.394 0.173,-0.378C0.16,-0.361 0.15,-0.342 0.143,-0.319C0.136,-0.296 0.132,-0.271 0.132,-0.243C0.132,-0.184 0.144,-0.139 0.167,-0.106C0.19,-0.073 0.223,-0.057 0.266,-0.057Z" style="fill-rule:nonzero;"/>
                </g>
                <g transform="matrix(83.3333,0,0,83.3333,765.116,2935.62)">
                    <path d="M0.248,0.012C0.187,0.012 0.138,-0.01 0.102,-0.054C0.065,-0.098 0.047,-0.161 0.047,-0.242C0.047,-0.281 0.053,-0.317 0.065,-0.348C0.076,-0.38 0.092,-0.407 0.111,-0.429C0.13,-0.451 0.153,-0.468 0.178,-0.48C0.203,-0.492 0.23,-0.498 0.258,-0.498C0.286,-0.498 0.31,-0.493 0.331,-0.483C0.352,-0.473 0.373,-0.459 0.394,-0.442L0.39,-0.525L0.39,-0.712L0.473,-0.712L0.473,0L0.405,0L0.398,-0.057L0.395,-0.057C0.376,-0.038 0.354,-0.022 0.329,-0.009C0.304,0.005 0.277,0.012 0.248,0.012ZM0.266,-0.057C0.289,-0.057 0.31,-0.063 0.33,-0.074C0.35,-0.085 0.37,-0.101 0.39,-0.124L0.39,-0.378C0.369,-0.397 0.349,-0.41 0.331,-0.418C0.312,-0.425 0.292,-0.429 0.272,-0.429C0.253,-0.429 0.234,-0.425 0.218,-0.416C0.201,-0.406 0.186,-0.394 0.173,-0.378C0.16,-0.361 0.15,-0.342 0.143,-0.319C0.136,-0.296 0.132,-0.271 0.132,-0.243C0.132,-0.184 0.144,-0.139 0.167,-0.106C0.19,-0.073 0.223,-0.057 0.266,-0.057Z" style="fill-rule:nonzero;"/>
                </g>
                <g transform="matrix(83.3333,0,0,83.3333,828.033,2935.62)">
                    <path d="M0.194,0.012C0.153,0.012 0.119,0 0.093,-0.024C0.066,-0.048 0.052,-0.082 0.052,-0.126C0.052,-0.179 0.076,-0.22 0.123,-0.249C0.17,-0.277 0.246,-0.297 0.35,-0.308C0.35,-0.323 0.348,-0.338 0.345,-0.353C0.343,-0.368 0.337,-0.381 0.33,-0.392C0.323,-0.403 0.313,-0.412 0.3,-0.42C0.286,-0.427 0.27,-0.43 0.25,-0.43C0.222,-0.43 0.196,-0.425 0.171,-0.414C0.146,-0.403 0.124,-0.391 0.105,-0.378L0.073,-0.435C0.096,-0.45 0.123,-0.464 0.156,-0.477C0.189,-0.491 0.225,-0.498 0.264,-0.498C0.323,-0.498 0.366,-0.48 0.393,-0.444C0.42,-0.407 0.433,-0.359 0.433,-0.298L0.433,0L0.365,0L0.358,-0.058L0.355,-0.058C0.332,-0.039 0.307,-0.022 0.28,-0.009C0.253,0.005 0.225,0.012 0.194,0.012ZM0.218,-0.054C0.241,-0.054 0.263,-0.059 0.284,-0.07C0.305,-0.082 0.327,-0.098 0.35,-0.119L0.35,-0.254C0.309,-0.249 0.275,-0.242 0.248,-0.235C0.22,-0.228 0.198,-0.219 0.181,-0.209C0.164,-0.199 0.151,-0.188 0.143,-0.174C0.136,-0.162 0.132,-0.147 0.132,-0.132C0.132,-0.104 0.14,-0.084 0.157,-0.072C0.174,-0.06 0.194,-0.054 0.218,-0.054Z" style="fill-rule:nonzero;"/>
                </g>
                <g transform="matrix(83.3333,0,0,83.3333,886.7,2935.62)">
                    <path d="M0.082,-0.712L0.164,-0.712L0.164,-0.518L0.161,-0.418C0.184,-0.44 0.209,-0.459 0.234,-0.474C0.259,-0.49 0.289,-0.498 0.323,-0.498C0.374,-0.498 0.412,-0.482 0.436,-0.45C0.459,-0.418 0.471,-0.371 0.471,-0.308L0.471,0L0.389,0L0.389,-0.297C0.389,-0.343 0.382,-0.376 0.367,-0.397C0.352,-0.417 0.329,-0.427 0.297,-0.427C0.272,-0.427 0.249,-0.421 0.23,-0.408C0.211,-0.395 0.189,-0.377 0.164,-0.352L0.164,0L0.082,0L0.082,-0.712Z" style="fill-rule:nonzero;"/>
                </g>
                <g transform="matrix(83.3333,0,0,83.3333,932.033,2935.62)">
                    <path d="M0.194,0.012C0.153,0.012 0.119,0 0.093,-0.024C0.066,-0.048 0.052,-0.082 0.052,-0.126C0.052,-0.179 0.076,-0.22 0.123,-0.249C0.17,-0.277 0.246,-0.297 0.35,-0.308C0.35,-0.323 0.348,-0.338 0.345,-0.353C0.343,-0.368 0.337,-0.381 0.33,-0.392C0.323,-0.403 0.313,-0.412 0.3,-0.42C0.286,-0.427 0.27,-0.43 0.25,-0.43C0.222,-0.43 0.196,-0.425 0.171,-0.414C0.146,-0.403 0.124,-0.391 0.105,-0.378L0.073,-0.435C0.096,-0.45 0.123,-0.464 0.156,-0.477C0.189,-0.491 0.225,-0.498 0.264,-0.498C0.323,-0.498 0.366,-0.48 0.393,-0.444C0.42,-0.407 0.433,-0.359 0.433,-0.298L0.433,0L0.365,0L0.358,-0.058L0.355,-0.058C0.332,-0.039 0.307,-0.022 0.28,-0.009C0.253,0.005 0.225,0.012 0.194,0.012ZM0.218,-0.054C0.241,-0.054 0.263,-0.059 0.284,-0.07C0.305,-0.082 0.327,-0.098 0.35,-0.119L0.35,-0.254C0.309,-0.249 0.275,-0.242 0.248,-0.235C0.22,-0.228 0.198,-0.219 0.181,-0.209C0.164,-0.199 0.151,-0.188 0.143,-0.174C0.136,-0.162 0.132,-0.147 0.132,-0.132C0.132,-0.104 0.14,-0.084 0.157,-0.072C0.174,-0.06 0.194,-0.054 0.218,-0.054Z" style="fill-rule:nonzero;"/>
                </g>
                <g transform="matrix(83.3333,0,0,83.3333,974.033,2935.62)">
                    <path d="M0.169,0.012C0.138,0.012 0.115,0.003 0.102,-0.016C0.089,-0.035 0.082,-0.062 0.082,-0.098L0.082,-0.712L0.164,-0.712L0.164,-0.092C0.164,-0.079 0.166,-0.069 0.171,-0.064C0.176,-0.059 0.181,-0.056 0.187,-0.056L0.195,-0.056C0.197,-0.056 0.2,-0.057 0.205,-0.058L0.216,0.004C0.211,0.007 0.204,0.009 0.197,0.01C0.19,0.011 0.18,0.012 0.169,0.012Z" style="fill-rule:nonzero;"/>
                </g>
                <g transform="matrix(83.3333,0,0,83.3333,995.283,2935.62)">
                    <path d="M0.301,-0.645C0.283,-0.653 0.265,-0.657 0.246,-0.657C0.201,-0.657 0.178,-0.626 0.178,-0.563L0.178,-0.486L0.281,-0.486L0.281,-0.419L0.178,-0.419L0.178,0L0.096,0L0.096,-0.419L0.03,-0.419L0.03,-0.481L0.096,-0.486L0.096,-0.563C0.096,-0.613 0.108,-0.652 0.131,-0.681C0.154,-0.71 0.189,-0.724 0.238,-0.724C0.253,-0.724 0.268,-0.723 0.281,-0.72C0.295,-0.717 0.308,-0.713 0.319,-0.708L0.301,-0.645Z" style="fill-rule:nonzero;"/>
                </g>
                <g transform="matrix(83.3333,0,0,83.3333,1018.45,2935.62)">
                    <rect x="0.041" y="-0.282" width="0.23" height="0.063" style="fill-rule:nonzero;"/>
                </g>
                <g transform="matrix(83.3333,0,0,83.3333,1044.37,2935.62)">
                    <path d="M0.209,0.012C0.174,0.012 0.141,0.006 0.11,-0.007C0.079,-0.02 0.051,-0.036 0.028,-0.055L0.069,-0.11C0.09,-0.093 0.112,-0.079 0.135,-0.068C0.157,-0.057 0.183,-0.052 0.212,-0.052C0.244,-0.052 0.268,-0.059 0.284,-0.074C0.3,-0.089 0.308,-0.107 0.308,-0.128C0.308,-0.141 0.305,-0.152 0.298,-0.161C0.291,-0.17 0.283,-0.179 0.273,-0.186C0.262,-0.193 0.25,-0.199 0.237,-0.204C0.224,-0.209 0.21,-0.215 0.197,-0.22C0.18,-0.226 0.162,-0.233 0.145,-0.241C0.128,-0.248 0.112,-0.258 0.099,-0.269C0.085,-0.28 0.074,-0.292 0.065,-0.307C0.056,-0.322 0.052,-0.339 0.052,-0.36C0.052,-0.379 0.056,-0.398 0.064,-0.414C0.071,-0.432 0.082,-0.446 0.097,-0.459C0.111,-0.471 0.128,-0.481 0.149,-0.488C0.17,-0.495 0.193,-0.498 0.219,-0.498C0.25,-0.498 0.278,-0.493 0.304,-0.482C0.329,-0.471 0.351,-0.458 0.37,-0.443L0.331,-0.391C0.314,-0.404 0.297,-0.414 0.279,-0.422C0.261,-0.43 0.241,-0.434 0.22,-0.434C0.189,-0.434 0.167,-0.427 0.153,-0.413C0.138,-0.399 0.131,-0.383 0.131,-0.364C0.131,-0.353 0.134,-0.343 0.14,-0.335C0.146,-0.326 0.154,-0.319 0.164,-0.313C0.174,-0.306 0.186,-0.301 0.199,-0.296C0.212,-0.291 0.225,-0.285 0.239,-0.28C0.256,-0.273 0.274,-0.266 0.292,-0.259C0.309,-0.252 0.325,-0.243 0.339,-0.232C0.353,-0.221 0.365,-0.207 0.374,-0.191C0.383,-0.175 0.387,-0.156 0.387,-0.133C0.387,-0.113 0.383,-0.094 0.376,-0.077C0.368,-0.06 0.357,-0.044 0.342,-0.031C0.327,-0.018 0.308,-0.007 0.285,0C0.263,0.008 0.238,0.012 0.209,0.012Z" style="fill-rule:nonzero;"/>
                </g>
                <g transform="matrix(83.3333,0,0,83.3333,1077.62,2935.62)">
                    <path d="M0.235,0.012C0.209,0.012 0.187,0.008 0.17,0C0.152,-0.008 0.138,-0.019 0.127,-0.033C0.116,-0.047 0.108,-0.064 0.103,-0.084C0.098,-0.104 0.096,-0.126 0.096,-0.15L0.096,-0.419L0.024,-0.419L0.024,-0.481L0.1,-0.486L0.11,-0.622L0.179,-0.622L0.179,-0.486L0.31,-0.486L0.31,-0.419L0.179,-0.419L0.179,-0.149C0.179,-0.119 0.185,-0.096 0.196,-0.08C0.206,-0.063 0.226,-0.055 0.254,-0.055C0.263,-0.055 0.272,-0.056 0.282,-0.059C0.292,-0.062 0.301,-0.065 0.309,-0.068L0.325,-0.006C0.312,-0.001 0.297,0.003 0.281,0.006C0.266,0.01 0.25,0.012 0.235,0.012Z" style="fill-rule:nonzero;"/>
                </g>
                <g transform="matrix(83.3333,0,0,83.3333,1104.62,2935.62)">
                    <path d="M0.279,0.012C0.246,0.012 0.216,0.006 0.188,-0.006C0.159,-0.017 0.135,-0.034 0.114,-0.056C0.093,-0.077 0.076,-0.104 0.064,-0.135C0.052,-0.166 0.046,-0.202 0.046,-0.242C0.046,-0.282 0.052,-0.318 0.065,-0.349C0.077,-0.381 0.093,-0.408 0.114,-0.43C0.134,-0.452 0.157,-0.469 0.183,-0.481C0.209,-0.492 0.236,-0.498 0.264,-0.498C0.295,-0.498 0.322,-0.493 0.346,-0.482C0.371,-0.471 0.391,-0.456 0.407,-0.436C0.424,-0.416 0.436,-0.392 0.445,-0.364C0.454,-0.336 0.458,-0.305 0.458,-0.27C0.458,-0.261 0.458,-0.253 0.458,-0.245C0.457,-0.236 0.456,-0.229 0.455,-0.223L0.127,-0.223C0.13,-0.171 0.147,-0.13 0.175,-0.1C0.204,-0.069 0.242,-0.054 0.289,-0.054C0.312,-0.054 0.334,-0.058 0.354,-0.065C0.373,-0.071 0.392,-0.081 0.41,-0.092L0.439,-0.038C0.418,-0.025 0.394,-0.013 0.368,-0.003C0.342,0.007 0.312,0.012 0.279,0.012ZM0.386,-0.282C0.386,-0.331 0.376,-0.369 0.355,-0.395C0.334,-0.42 0.304,-0.433 0.266,-0.433C0.249,-0.433 0.232,-0.43 0.217,-0.423C0.201,-0.416 0.187,-0.406 0.174,-0.394C0.161,-0.381 0.151,-0.365 0.142,-0.346C0.134,-0.327 0.129,-0.306 0.126,-0.282L0.386,-0.282Z" style="fill-rule:nonzero;"/>
                </g>
                <g transform="matrix(83.3333,0,0,83.3333,1145.95,2935.62)">
                    <path d="M0.082,-0.486L0.15,-0.486L0.157,-0.43L0.16,-0.43C0.182,-0.449 0.206,-0.465 0.233,-0.478C0.259,-0.491 0.286,-0.498 0.315,-0.498C0.346,-0.498 0.374,-0.492 0.398,-0.481C0.422,-0.469 0.442,-0.452 0.458,-0.431C0.474,-0.409 0.486,-0.383 0.495,-0.353C0.503,-0.322 0.507,-0.288 0.507,-0.25C0.507,-0.209 0.501,-0.172 0.49,-0.14C0.479,-0.107 0.463,-0.08 0.444,-0.057C0.425,-0.034 0.402,-0.017 0.377,-0.006C0.352,0.006 0.325,0.012 0.297,0.012C0.274,0.012 0.252,0.007 0.23,-0.003C0.207,-0.013 0.185,-0.027 0.162,-0.044L0.164,0.041L0.164,0.205L0.082,0.205L0.082,-0.486ZM0.283,-0.057C0.303,-0.057 0.322,-0.062 0.339,-0.07C0.356,-0.08 0.37,-0.092 0.383,-0.109C0.395,-0.125 0.405,-0.145 0.411,-0.169C0.419,-0.193 0.422,-0.22 0.422,-0.25C0.422,-0.277 0.42,-0.301 0.415,-0.323C0.41,-0.345 0.403,-0.364 0.393,-0.38C0.382,-0.395 0.369,-0.407 0.353,-0.416C0.336,-0.425 0.317,-0.429 0.294,-0.429C0.273,-0.429 0.253,-0.423 0.232,-0.412C0.211,-0.401 0.188,-0.384 0.164,-0.363L0.164,-0.108C0.186,-0.089 0.207,-0.076 0.228,-0.069C0.249,-0.061 0.267,-0.057 0.283,-0.057Z" style="fill-rule:nonzero;"/>
                </g>
                <g transform="matrix(83.3333,0,0,83.3333,1208.87,2935.62)">
                    <path d="M0.297,0.012C0.274,0.012 0.251,0.006 0.227,-0.005C0.202,-0.016 0.179,-0.031 0.158,-0.05L0.155,-0.05L0.148,0L0.082,0L0.082,-0.712L0.164,-0.712L0.164,-0.518L0.162,-0.43C0.184,-0.449 0.208,-0.466 0.234,-0.478C0.26,-0.492 0.287,-0.498 0.314,-0.498C0.345,-0.498 0.373,-0.492 0.397,-0.481C0.421,-0.469 0.441,-0.452 0.458,-0.431C0.474,-0.409 0.486,-0.383 0.495,-0.353C0.503,-0.322 0.507,-0.288 0.507,-0.251C0.507,-0.21 0.501,-0.173 0.49,-0.14C0.479,-0.107 0.463,-0.08 0.444,-0.057C0.425,-0.034 0.402,-0.017 0.377,-0.006C0.352,0.006 0.325,0.012 0.297,0.012ZM0.283,-0.057C0.303,-0.057 0.322,-0.062 0.339,-0.07C0.356,-0.08 0.37,-0.092 0.383,-0.109C0.395,-0.125 0.405,-0.145 0.411,-0.169C0.419,-0.193 0.422,-0.22 0.422,-0.25C0.422,-0.277 0.42,-0.301 0.415,-0.323C0.41,-0.345 0.403,-0.364 0.393,-0.38C0.382,-0.395 0.369,-0.407 0.353,-0.416C0.336,-0.425 0.317,-0.429 0.294,-0.429C0.255,-0.429 0.211,-0.407 0.164,-0.363L0.164,-0.108C0.185,-0.089 0.206,-0.076 0.228,-0.069C0.249,-0.061 0.267,-0.057 0.283,-0.057Z" style="fill-rule:nonzero;"/>
                </g>
                <g transform="matrix(83.3333,0,0,83.3333,1254.95,2935.62)">
                    <path d="M0.279,0.012C0.246,0.012 0.216,0.006 0.188,-0.006C0.159,-0.017 0.135,-0.034 0.114,-0.056C0.093,-0.077 0.076,-0.104 0.064,-0.135C0.052,-0.166 0.046,-0.202 0.046,-0.242C0.046,-0.282 0.052,-0.318 0.065,-0.349C0.077,-0.381 0.093,-0.408 0.114,-0.43C0.134,-0.452 0.157,-0.469 0.183,-0.481C0.209,-0.492 0.236,-0.498 0.264,-0.498C0.295,-0.498 0.322,-0.493 0.346,-0.482C0.371,-0.471 0.391,-0.456 0.407,-0.436C0.424,-0.416 0.436,-0.392 0.445,-0.364C0.454,-0.336 0.458,-0.305 0.458,-0.27C0.458,-0.261 0.458,-0.253 0.458,-0.245C0.457,-0.236 0.456,-0.229 0.455,-0.223L0.127,-0.223C0.13,-0.171 0.147,-0.13 0.175,-0.1C0.204,-0.069 0.242,-0.054 0.289,-0.054C0.312,-0.054 0.334,-0.058 0.354,-0.065C0.373,-0.071 0.392,-0.081 0.41,-0.092L0.439,-0.038C0.418,-0.025 0.394,-0.013 0.368,-0.003C0.342,0.007 0.312,0.012 0.279,0.012ZM0.386,-0.282C0.386,-0.331 0.376,-0.369 0.355,-0.395C0.334,-0.42 0.304,-0.433 0.266,-0.433C0.249,-0.433 0.232,-0.43 0.217,-0.423C0.201,-0.416 0.187,-0.406 0.174,-0.394C0.161,-0.381 0.151,-0.365 0.142,-0.346C0.134,-0.327 0.129,-0.306 0.126,-0.282L0.386,-0.282Z" style="fill-rule:nonzero;"/>
                </g>
                <g transform="matrix(83.3333,0,0,83.3333,1296.28,2935.62)">
                    <path d="M0.169,0.012C0.138,0.012 0.115,0.003 0.102,-0.016C0.089,-0.035 0.082,-0.062 0.082,-0.098L0.082,-0.712L0.164,-0.712L0.164,-0.092C0.164,-0.079 0.166,-0.069 0.171,-0.064C0.176,-0.059 0.181,-0.056 0.187,-0.056L0.195,-0.056C0.197,-0.056 0.2,-0.057 0.205,-0.058L0.216,0.004C0.211,0.007 0.204,0.009 0.197,0.01C0.19,0.011 0.18,0.012 0.169,0.012Z" style="fill-rule:nonzero;"/>
                </g>
                <g transform="matrix(83.3333,0,0,83.3333,1317.53,2935.62)">
                    <path d="M0.271,0.012C0.241,0.012 0.213,0.006 0.186,-0.005C0.159,-0.016 0.135,-0.033 0.114,-0.055C0.093,-0.076 0.077,-0.103 0.065,-0.135C0.052,-0.166 0.046,-0.202 0.046,-0.242C0.046,-0.283 0.052,-0.319 0.065,-0.35C0.077,-0.382 0.093,-0.409 0.114,-0.431C0.135,-0.453 0.159,-0.47 0.186,-0.481C0.213,-0.492 0.241,-0.498 0.271,-0.498C0.301,-0.498 0.33,-0.492 0.357,-0.481C0.384,-0.47 0.407,-0.453 0.428,-0.431C0.449,-0.409 0.465,-0.382 0.477,-0.35C0.49,-0.319 0.496,-0.283 0.496,-0.242C0.496,-0.202 0.49,-0.166 0.477,-0.135C0.465,-0.103 0.449,-0.076 0.428,-0.055C0.407,-0.033 0.384,-0.016 0.357,-0.005C0.33,0.006 0.301,0.012 0.271,0.012ZM0.271,-0.056C0.292,-0.056 0.311,-0.061 0.328,-0.07C0.345,-0.079 0.36,-0.091 0.373,-0.108C0.385,-0.124 0.394,-0.143 0.401,-0.166C0.408,-0.189 0.411,-0.214 0.411,-0.242C0.411,-0.27 0.408,-0.296 0.401,-0.319C0.394,-0.342 0.385,-0.361 0.373,-0.378C0.36,-0.395 0.345,-0.407 0.328,-0.417C0.311,-0.426 0.292,-0.43 0.271,-0.43C0.25,-0.43 0.231,-0.426 0.214,-0.417C0.197,-0.407 0.182,-0.395 0.17,-0.378C0.157,-0.361 0.148,-0.342 0.141,-0.319C0.134,-0.296 0.131,-0.27 0.131,-0.242C0.131,-0.214 0.134,-0.189 0.141,-0.166C0.148,-0.143 0.157,-0.124 0.17,-0.108C0.182,-0.091 0.197,-0.079 0.214,-0.07C0.231,-0.061 0.25,-0.056 0.271,-0.056Z" style="fill-rule:nonzero;"/>
                </g>
                <g transform="matrix(83.3333,0,0,83.3333,1362.37,2935.62)">
                    <path d="M0.024,-0.486L0.108,-0.486L0.18,-0.205C0.185,-0.182 0.19,-0.159 0.195,-0.137C0.2,-0.115 0.204,-0.093 0.209,-0.07L0.213,-0.07C0.218,-0.093 0.224,-0.115 0.229,-0.138C0.234,-0.16 0.24,-0.182 0.246,-0.205L0.321,-0.486L0.401,-0.486L0.477,-0.205C0.483,-0.182 0.489,-0.159 0.495,-0.137C0.5,-0.115 0.506,-0.093 0.511,-0.07L0.515,-0.07C0.52,-0.093 0.525,-0.115 0.53,-0.137C0.535,-0.159 0.54,-0.182 0.545,-0.205L0.616,-0.486L0.694,-0.486L0.564,0L0.464,0L0.394,-0.261C0.388,-0.284 0.383,-0.307 0.378,-0.33C0.373,-0.353 0.367,-0.376 0.361,-0.401L0.357,-0.401C0.352,-0.376 0.346,-0.353 0.341,-0.33C0.336,-0.307 0.33,-0.283 0.323,-0.26L0.255,0L0.159,0L0.024,-0.486Z" style="fill-rule:nonzero;"/>
                </g>
                <g transform="matrix(83.3333,0,0,83.3333,693.908,3102.28)">
                    <path d="M0.082,-0.486L0.15,-0.486L0.157,-0.43L0.16,-0.43C0.182,-0.449 0.206,-0.465 0.233,-0.478C0.259,-0.491 0.286,-0.498 0.315,-0.498C0.346,-0.498 0.374,-0.492 0.398,-0.481C0.422,-0.469 0.442,-0.452 0.458,-0.431C0.474,-0.409 0.486,-0.383 0.495,-0.353C0.503,-0.322 0.507,-0.288 0.507,-0.25C0.507,-0.209 0.501,-0.172 0.49,-0.14C0.479,-0.107 0.463,-0.08 0.444,-0.057C0.425,-0.034 0.402,-0.017 0.377,-0.006C0.352,0.006 0.325,0.012 0.297,0.012C0.274,0.012 0.252,0.007 0.23,-0.003C0.207,-0.013 0.185,-0.027 0.162,-0.044L0.164,0.041L0.164,0.205L0.082,0.205L0.082,-0.486ZM0.283,-0.057C0.303,-0.057 0.322,-0.062 0.339,-0.07C0.356,-0.08 0.37,-0.092 0.383,-0.109C0.395,-0.125 0.405,-0.145 0.411,-0.169C0.419,-0.193 0.422,-0.22 0.422,-0.25C0.422,-0.277 0.42,-0.301 0.415,-0.323C0.41,-0.345 0.403,-0.364 0.393,-0.38C0.382,-0.395 0.369,-0.407 0.353,-0.416C0.336,-0.425 0.317,-0.429 0.294,-0.429C0.273,-0.429 0.253,-0.423 0.232,-0.412C0.211,-0.401 0.188,-0.384 0.164,-0.363L0.164,-0.108C0.186,-0.089 0.207,-0.076 0.228,-0.069C0.249,-0.061 0.267,-0.057 0.283,-0.057Z" style="fill-rule:nonzero;"/>
                </g>
                <g transform="matrix(83.3333,0,0,83.3333,740.158,3102.28)">
                    <path d="M0.082,-0.486L0.164,-0.486L0.164,0L0.082,0L0.082,-0.486ZM0.124,-0.586C0.108,-0.586 0.095,-0.591 0.084,-0.601C0.073,-0.611 0.067,-0.624 0.067,-0.639C0.067,-0.655 0.073,-0.668 0.084,-0.678C0.095,-0.687 0.108,-0.692 0.124,-0.692C0.14,-0.692 0.154,-0.687 0.165,-0.678C0.175,-0.668 0.181,-0.655 0.181,-0.639C0.181,-0.624 0.175,-0.611 0.165,-0.601C0.154,-0.591 0.14,-0.586 0.124,-0.586Z" style="fill-rule:nonzero;"/>
                </g>
                <g transform="matrix(83.3333,0,0,83.3333,760.658,3102.28)">
                    <path d="M0.235,0.012C0.209,0.012 0.187,0.008 0.17,0C0.152,-0.008 0.138,-0.019 0.127,-0.033C0.116,-0.047 0.108,-0.064 0.103,-0.084C0.098,-0.104 0.096,-0.126 0.096,-0.15L0.096,-0.419L0.024,-0.419L0.024,-0.481L0.1,-0.486L0.11,-0.622L0.179,-0.622L0.179,-0.486L0.31,-0.486L0.31,-0.419L0.179,-0.419L0.179,-0.149C0.179,-0.119 0.185,-0.096 0.196,-0.08C0.206,-0.063 0.226,-0.055 0.254,-0.055C0.263,-0.055 0.272,-0.056 0.282,-0.059C0.292,-0.062 0.301,-0.065 0.309,-0.068L0.325,-0.006C0.312,-0.001 0.297,0.003 0.281,0.006C0.266,0.01 0.25,0.012 0.235,0.012Z" style="fill-rule:nonzero;"/>
                </g>
                <g transform="matrix(83.3333,0,0,83.3333,787.658,3102.28)">
                    <path d="M0.274,0.012C0.242,0.012 0.212,0.006 0.184,-0.005C0.156,-0.016 0.132,-0.033 0.112,-0.055C0.091,-0.076 0.075,-0.103 0.064,-0.135C0.052,-0.166 0.046,-0.202 0.046,-0.242C0.046,-0.283 0.052,-0.319 0.065,-0.35C0.078,-0.382 0.095,-0.409 0.116,-0.431C0.137,-0.453 0.162,-0.47 0.191,-0.481C0.219,-0.492 0.249,-0.498 0.28,-0.498C0.312,-0.498 0.339,-0.492 0.362,-0.481C0.385,-0.47 0.405,-0.456 0.422,-0.441L0.38,-0.387C0.366,-0.4 0.351,-0.41 0.336,-0.418C0.32,-0.426 0.302,-0.43 0.283,-0.43C0.261,-0.43 0.241,-0.426 0.222,-0.417C0.203,-0.407 0.187,-0.395 0.174,-0.378C0.161,-0.361 0.15,-0.342 0.142,-0.319C0.135,-0.296 0.131,-0.27 0.131,-0.242C0.131,-0.214 0.135,-0.189 0.142,-0.166C0.149,-0.143 0.16,-0.124 0.172,-0.108C0.186,-0.091 0.201,-0.079 0.22,-0.07C0.239,-0.061 0.259,-0.056 0.281,-0.056C0.304,-0.056 0.325,-0.061 0.344,-0.07C0.363,-0.08 0.38,-0.092 0.395,-0.105L0.431,-0.05C0.409,-0.031 0.385,-0.016 0.358,-0.005C0.331,0.006 0.303,0.012 0.274,0.012Z" style="fill-rule:nonzero;"/>
                </g>
                <g transform="matrix(83.3333,0,0,83.3333,825.658,3102.28)">
                    <path d="M0.082,-0.712L0.164,-0.712L0.164,-0.518L0.161,-0.418C0.184,-0.44 0.209,-0.459 0.234,-0.474C0.259,-0.49 0.289,-0.498 0.323,-0.498C0.374,-0.498 0.412,-0.482 0.436,-0.45C0.459,-0.418 0.471,-0.371 0.471,-0.308L0.471,0L0.389,0L0.389,-0.297C0.389,-0.343 0.382,-0.376 0.367,-0.397C0.352,-0.417 0.329,-0.427 0.297,-0.427C0.272,-0.427 0.249,-0.421 0.23,-0.408C0.211,-0.395 0.189,-0.377 0.164,-0.352L0.164,0L0.082,0L0.082,-0.712Z" style="fill-rule:nonzero;"/>
                </g>
                <g transform="matrix(83.3333,0,0,83.3333,887.658,3102.28)">
                    <path d="M0.082,-0.486L0.15,-0.486L0.157,-0.398L0.16,-0.398C0.177,-0.429 0.197,-0.453 0.221,-0.471C0.244,-0.489 0.27,-0.498 0.298,-0.498C0.317,-0.498 0.335,-0.495 0.35,-0.488L0.334,-0.416C0.326,-0.419 0.319,-0.421 0.312,-0.422C0.305,-0.423 0.297,-0.424 0.287,-0.424C0.266,-0.424 0.245,-0.416 0.223,-0.399C0.2,-0.382 0.181,-0.353 0.164,-0.312L0.164,0L0.082,0L0.082,-0.486Z" style="fill-rule:nonzero;"/>
                </g>
                <g transform="matrix(83.3333,0,0,83.3333,916.575,3102.28)">
                    <path d="M0.082,-0.486L0.164,-0.486L0.164,0L0.082,0L0.082,-0.486ZM0.124,-0.586C0.108,-0.586 0.095,-0.591 0.084,-0.601C0.073,-0.611 0.067,-0.624 0.067,-0.639C0.067,-0.655 0.073,-0.668 0.084,-0.678C0.095,-0.687 0.108,-0.692 0.124,-0.692C0.14,-0.692 0.154,-0.687 0.165,-0.678C0.175,-0.668 0.181,-0.655 0.181,-0.639C0.181,-0.624 0.175,-0.611 0.165,-0.601C0.154,-0.591 0.14,-0.586 0.124,-0.586Z" style="fill-rule:nonzero;"/>
                </g>
                <g transform="matrix(83.3333,0,0,83.3333,937.075,3102.28)">
                    <path d="M0.209,0.012C0.174,0.012 0.141,0.006 0.11,-0.007C0.079,-0.02 0.051,-0.036 0.028,-0.055L0.069,-0.11C0.09,-0.093 0.112,-0.079 0.135,-0.068C0.157,-0.057 0.183,-0.052 0.212,-0.052C0.244,-0.052 0.268,-0.059 0.284,-0.074C0.3,-0.089 0.308,-0.107 0.308,-0.128C0.308,-0.141 0.305,-0.152 0.298,-0.161C0.291,-0.17 0.283,-0.179 0.273,-0.186C0.262,-0.193 0.25,-0.199 0.237,-0.204C0.224,-0.209 0.21,-0.215 0.197,-0.22C0.18,-0.226 0.162,-0.233 0.145,-0.241C0.128,-0.248 0.112,-0.258 0.099,-0.269C0.085,-0.28 0.074,-0.292 0.065,-0.307C0.056,-0.322 0.052,-0.339 0.052,-0.36C0.052,-0.379 0.056,-0.398 0.064,-0.414C0.071,-0.432 0.082,-0.446 0.097,-0.459C0.111,-0.471 0.128,-0.481 0.149,-0.488C0.17,-0.495 0.193,-0.498 0.219,-0.498C0.25,-0.498 0.278,-0.493 0.304,-0.482C0.329,-0.471 0.351,-0.458 0.37,-0.443L0.331,-0.391C0.314,-0.404 0.297,-0.414 0.279,-0.422C0.261,-0.43 0.241,-0.434 0.22,-0.434C0.189,-0.434 0.167,-0.427 0.153,-0.413C0.138,-0.399 0.131,-0.383 0.131,-0.364C0.131,-0.353 0.134,-0.343 0.14,-0.335C0.146,-0.326 0.154,-0.319 0.164,-0.313C0.174,-0.306 0.186,-0.301 0.199,-0.296C0.212,-0.291 0.225,-0.285 0.239,-0.28C0.256,-0.273 0.274,-0.266 0.292,-0.259C0.309,-0.252 0.325,-0.243 0.339,-0.232C0.353,-0.221 0.365,-0.207 0.374,-0.191C0.383,-0.175 0.387,-0.156 0.387,-0.133C0.387,-0.113 0.383,-0.094 0.376,-0.077C0.368,-0.06 0.357,-0.044 0.342,-0.031C0.327,-0.018 0.308,-0.007 0.285,0C0.263,0.008 0.238,0.012 0.209,0.012Z" style="fill-rule:nonzero;"/>
                </g>
                <g transform="matrix(83.3333,0,0,83.3333,971.991,3102.28)">
                    <path d="M0.279,0.012C0.246,0.012 0.216,0.006 0.188,-0.006C0.159,-0.017 0.135,-0.034 0.114,-0.056C0.093,-0.077 0.076,-0.104 0.064,-0.135C0.052,-0.166 0.046,-0.202 0.046,-0.242C0.046,-0.282 0.052,-0.318 0.065,-0.349C0.077,-0.381 0.093,-0.408 0.114,-0.43C0.134,-0.452 0.157,-0.469 0.183,-0.481C0.209,-0.492 0.236,-0.498 0.264,-0.498C0.295,-0.498 0.322,-0.493 0.346,-0.482C0.371,-0.471 0.391,-0.456 0.407,-0.436C0.424,-0.416 0.436,-0.392 0.445,-0.364C0.454,-0.336 0.458,-0.305 0.458,-0.27C0.458,-0.261 0.458,-0.253 0.458,-0.245C0.457,-0.236 0.456,-0.229 0.455,-0.223L0.127,-0.223C0.13,-0.171 0.147,-0.13 0.175,-0.1C0.204,-0.069 0.242,-0.054 0.289,-0.054C0.312,-0.054 0.334,-0.058 0.354,-0.065C0.373,-0.071 0.392,-0.081 0.41,-0.092L0.439,-0.038C0.418,-0.025 0.394,-0.013 0.368,-0.003C0.342,0.007 0.312,0.012 0.279,0.012ZM0.386,-0.282C0.386,-0.331 0.376,-0.369 0.355,-0.395C0.334,-0.42 0.304,-0.433 0.266,-0.433C0.249,-0.433 0.232,-0.43 0.217,-0.423C0.201,-0.416 0.187,-0.406 0.174,-0.394C0.161,-0.381 0.151,-0.365 0.142,-0.346C0.134,-0.327 0.129,-0.306 0.126,-0.282L0.386,-0.282Z" style="fill-rule:nonzero;"/>
                </g>
                <g transform="matrix(83.3333,0,0,83.3333,1013.32,3102.28)">
                    <path d="M0.209,0.012C0.174,0.012 0.141,0.006 0.11,-0.007C0.079,-0.02 0.051,-0.036 0.028,-0.055L0.069,-0.11C0.09,-0.093 0.112,-0.079 0.135,-0.068C0.157,-0.057 0.183,-0.052 0.212,-0.052C0.244,-0.052 0.268,-0.059 0.284,-0.074C0.3,-0.089 0.308,-0.107 0.308,-0.128C0.308,-0.141 0.305,-0.152 0.298,-0.161C0.291,-0.17 0.283,-0.179 0.273,-0.186C0.262,-0.193 0.25,-0.199 0.237,-0.204C0.224,-0.209 0.21,-0.215 0.197,-0.22C0.18,-0.226 0.162,-0.233 0.145,-0.241C0.128,-0.248 0.112,-0.258 0.099,-0.269C0.085,-0.28 0.074,-0.292 0.065,-0.307C0.056,-0.322 0.052,-0.339 0.052,-0.36C0.052,-0.379 0.056,-0.398 0.064,-0.414C0.071,-0.432 0.082,-0.446 0.097,-0.459C0.111,-0.471 0.128,-0.481 0.149,-0.488C0.17,-0.495 0.193,-0.498 0.219,-0.498C0.25,-0.498 0.278,-0.493 0.304,-0.482C0.329,-0.471 0.351,-0.458 0.37,-0.443L0.331,-0.391C0.314,-0.404 0.297,-0.414 0.279,-0.422C0.261,-0.43 0.241,-0.434 0.22,-0.434C0.189,-0.434 0.167,-0.427 0.153,-0.413C0.138,-0.399 0.131,-0.383 0.131,-0.364C0.131,-0.353 0.134,-0.343 0.14,-0.335C0.146,-0.326 0.154,-0.319 0.164,-0.313C0.174,-0.306 0.186,-0.301 0.199,-0.296C0.212,-0.291 0.225,-0.285 0.239,-0.28C0.256,-0.273 0.274,-0.266 0.292,-0.259C0.309,-0.252 0.325,-0.243 0.339,-0.232C0.353,-0.221 0.365,-0.207 0.374,-0.191C0.383,-0.175 0.387,-0.156 0.387,-0.133C0.387,-0.113 0.383,-0.094 0.376,-0.077C0.368,-0.06 0.357,-0.044 0.342,-0.031C0.327,-0.018 0.308,-0.007 0.285,0C0.263,0.008 0.238,0.012 0.209,0.012Z" style="fill-rule:nonzero;"/>
                </g>
                <g transform="matrix(83.3333,0,0,83.3333,1064.91,3102.28)">
                    <path d="M0.274,0.012C0.242,0.012 0.212,0.006 0.184,-0.005C0.156,-0.016 0.132,-0.033 0.112,-0.055C0.091,-0.076 0.075,-0.103 0.064,-0.135C0.052,-0.166 0.046,-0.202 0.046,-0.242C0.046,-0.283 0.052,-0.319 0.065,-0.35C0.078,-0.382 0.095,-0.409 0.116,-0.431C0.137,-0.453 0.162,-0.47 0.191,-0.481C0.219,-0.492 0.249,-0.498 0.28,-0.498C0.312,-0.498 0.339,-0.492 0.362,-0.481C0.385,-0.47 0.405,-0.456 0.422,-0.441L0.38,-0.387C0.366,-0.4 0.351,-0.41 0.336,-0.418C0.32,-0.426 0.302,-0.43 0.283,-0.43C0.261,-0.43 0.241,-0.426 0.222,-0.417C0.203,-0.407 0.187,-0.395 0.174,-0.378C0.161,-0.361 0.15,-0.342 0.142,-0.319C0.135,-0.296 0.131,-0.27 0.131,-0.242C0.131,-0.214 0.135,-0.189 0.142,-0.166C0.149,-0.143 0.16,-0.124 0.172,-0.108C0.186,-0.091 0.201,-0.079 0.22,-0.07C0.239,-0.061 0.259,-0.056 0.281,-0.056C0.304,-0.056 0.325,-0.061 0.344,-0.07C0.363,-0.08 0.38,-0.092 0.395,-0.105L0.431,-0.05C0.409,-0.031 0.385,-0.016 0.358,-0.005C0.331,0.006 0.303,0.012 0.274,0.012Z" style="fill-rule:nonzero;"/>
                </g>
                <g transform="matrix(83.3333,0,0,83.3333,1102.91,3102.28)">
                    <path d="M0.169,0.012C0.138,0.012 0.115,0.003 0.102,-0.016C0.089,-0.035 0.082,-0.062 0.082,-0.098L0.082,-0.712L0.164,-0.712L0.164,-0.092C0.164,-0.079 0.166,-0.069 0.171,-0.064C0.176,-0.059 0.181,-0.056 0.187,-0.056L0.195,-0.056C0.197,-0.056 0.2,-0.057 0.205,-0.058L0.216,0.004C0.211,0.007 0.204,0.009 0.197,0.01C0.19,0.011 0.18,0.012 0.169,0.012Z" style="fill-rule:nonzero;"/>
                </g>
                <g transform="matrix(83.3333,0,0,83.3333,1124.16,3102.28)">
                    <path d="M0.271,0.012C0.241,0.012 0.213,0.006 0.186,-0.005C0.159,-0.016 0.135,-0.033 0.114,-0.055C0.093,-0.076 0.077,-0.103 0.065,-0.135C0.052,-0.166 0.046,-0.202 0.046,-0.242C0.046,-0.283 0.052,-0.319 0.065,-0.35C0.077,-0.382 0.093,-0.409 0.114,-0.431C0.135,-0.453 0.159,-0.47 0.186,-0.481C0.213,-0.492 0.241,-0.498 0.271,-0.498C0.301,-0.498 0.33,-0.492 0.357,-0.481C0.384,-0.47 0.407,-0.453 0.428,-0.431C0.449,-0.409 0.465,-0.382 0.477,-0.35C0.49,-0.319 0.496,-0.283 0.496,-0.242C0.496,-0.202 0.49,-0.166 0.477,-0.135C0.465,-0.103 0.449,-0.076 0.428,-0.055C0.407,-0.033 0.384,-0.016 0.357,-0.005C0.33,0.006 0.301,0.012 0.271,0.012ZM0.271,-0.056C0.292,-0.056 0.311,-0.061 0.328,-0.07C0.345,-0.079 0.36,-0.091 0.373,-0.108C0.385,-0.124 0.394,-0.143 0.401,-0.166C0.408,-0.189 0.411,-0.214 0.411,-0.242C0.411,-0.27 0.408,-0.296 0.401,-0.319C0.394,-0.342 0.385,-0.361 0.373,-0.378C0.36,-0.395 0.345,-0.407 0.328,-0.417C0.311,-0.426 0.292,-0.43 0.271,-0.43C0.25,-0.43 0.231,-0.426 0.214,-0.417C0.197,-0.407 0.182,-0.395 0.17,-0.378C0.157,-0.361 0.148,-0.342 0.141,-0.319C0.134,-0.296 0.131,-0.27 0.131,-0.242C0.131,-0.214 0.134,-0.189 0.141,-0.166C0.148,-0.143 0.157,-0.124 0.17,-0.108C0.182,-0.091 0.197,-0.079 0.214,-0.07C0.231,-0.061 0.25,-0.056 0.271,-0.056Z" style="fill-rule:nonzero;"/>
                </g>
                <g transform="matrix(83.3333,0,0,83.3333,1169.32,3102.28)">
                    <path d="M0.274,0.012C0.242,0.012 0.212,0.006 0.184,-0.005C0.156,-0.016 0.132,-0.033 0.112,-0.055C0.091,-0.076 0.075,-0.103 0.064,-0.135C0.052,-0.166 0.046,-0.202 0.046,-0.242C0.046,-0.283 0.052,-0.319 0.065,-0.35C0.078,-0.382 0.095,-0.409 0.116,-0.431C0.137,-0.453 0.162,-0.47 0.191,-0.481C0.219,-0.492 0.249,-0.498 0.28,-0.498C0.312,-0.498 0.339,-0.492 0.362,-0.481C0.385,-0.47 0.405,-0.456 0.422,-0.441L0.38,-0.387C0.366,-0.4 0.351,-0.41 0.336,-0.418C0.32,-0.426 0.302,-0.43 0.283,-0.43C0.261,-0.43 0.241,-0.426 0.222,-0.417C0.203,-0.407 0.187,-0.395 0.174,-0.378C0.161,-0.361 0.15,-0.342 0.142,-0.319C0.135,-0.296 0.131,-0.27 0.131,-0.242C0.131,-0.214 0.135,-0.189 0.142,-0.166C0.149,-0.143 0.16,-0.124 0.172,-0.108C0.186,-0.091 0.201,-0.079 0.22,-0.07C0.239,-0.061 0.259,-0.056 0.281,-0.056C0.304,-0.056 0.325,-0.061 0.344,-0.07C0.363,-0.08 0.38,-0.092 0.395,-0.105L0.431,-0.05C0.409,-0.031 0.385,-0.016 0.358,-0.005C0.331,0.006 0.303,0.012 0.274,0.012Z" style="fill-rule:nonzero;"/>
                </g>
                <g transform="matrix(83.3333,0,0,83.3333,1207.32,3102.28)">
                    <path d="M0.082,-0.712L0.163,-0.712L0.163,-0.23L0.166,-0.23L0.373,-0.486L0.464,-0.486L0.301,-0.291L0.486,0L0.396,0L0.254,-0.234L0.163,-0.128L0.163,0L0.082,0L0.082,-0.712Z" style="fill-rule:nonzero;"/>
                </g>
                <g transform="matrix(83.3333,0,0,83.3333,1248.57,3102.28)">
                    <path d="M0.024,-0.486L0.108,-0.486L0.18,-0.205C0.185,-0.182 0.19,-0.159 0.195,-0.137C0.2,-0.115 0.204,-0.093 0.209,-0.07L0.213,-0.07C0.218,-0.093 0.224,-0.115 0.229,-0.138C0.234,-0.16 0.24,-0.182 0.246,-0.205L0.321,-0.486L0.401,-0.486L0.477,-0.205C0.483,-0.182 0.489,-0.159 0.495,-0.137C0.5,-0.115 0.506,-0.093 0.511,-0.07L0.515,-0.07C0.52,-0.093 0.525,-0.115 0.53,-0.137C0.535,-0.159 0.54,-0.182 0.545,-0.205L0.616,-0.486L0.694,-0.486L0.564,0L0.464,0L0.394,-0.261C0.388,-0.284 0.383,-0.307 0.378,-0.33C0.373,-0.353 0.367,-0.376 0.361,-0.401L0.357,-0.401C0.352,-0.376 0.346,-0.353 0.341,-0.33C0.336,-0.307 0.33,-0.283 0.323,-0.26L0.255,0L0.159,0L0.024,-0.486Z" style="fill-rule:nonzero;"/>
                </g>
                <g transform="matrix(83.3333,0,0,83.3333,1308.41,3102.28)">
                    <path d="M0.082,-0.486L0.164,-0.486L0.164,0L0.082,0L0.082,-0.486ZM0.124,-0.586C0.108,-0.586 0.095,-0.591 0.084,-0.601C0.073,-0.611 0.067,-0.624 0.067,-0.639C0.067,-0.655 0.073,-0.668 0.084,-0.678C0.095,-0.687 0.108,-0.692 0.124,-0.692C0.14,-0.692 0.154,-0.687 0.165,-0.678C0.175,-0.668 0.181,-0.655 0.181,-0.639C0.181,-0.624 0.175,-0.611 0.165,-0.601C0.154,-0.591 0.14,-0.586 0.124,-0.586Z" style="fill-rule:nonzero;"/>
                </g>
                <g transform="matrix(83.3333,0,0,83.3333,1328.91,3102.28)">
                    <path d="M0.209,0.012C0.174,0.012 0.141,0.006 0.11,-0.007C0.079,-0.02 0.051,-0.036 0.028,-0.055L0.069,-0.11C0.09,-0.093 0.112,-0.079 0.135,-0.068C0.157,-0.057 0.183,-0.052 0.212,-0.052C0.244,-0.052 0.268,-0.059 0.284,-0.074C0.3,-0.089 0.308,-0.107 0.308,-0.128C0.308,-0.141 0.305,-0.152 0.298,-0.161C0.291,-0.17 0.283,-0.179 0.273,-0.186C0.262,-0.193 0.25,-0.199 0.237,-0.204C0.224,-0.209 0.21,-0.215 0.197,-0.22C0.18,-0.226 0.162,-0.233 0.145,-0.241C0.128,-0.248 0.112,-0.258 0.099,-0.269C0.085,-0.28 0.074,-0.292 0.065,-0.307C0.056,-0.322 0.052,-0.339 0.052,-0.36C0.052,-0.379 0.056,-0.398 0.064,-0.414C0.071,-0.432 0.082,-0.446 0.097,-0.459C0.111,-0.471 0.128,-0.481 0.149,-0.488C0.17,-0.495 0.193,-0.498 0.219,-0.498C0.25,-0.498 0.278,-0.493 0.304,-0.482C0.329,-0.471 0.351,-0.458 0.37,-0.443L0.331,-0.391C0.314,-0.404 0.297,-0.414 0.279,-0.422C0.261,-0.43 0.241,-0.434 0.22,-0.434C0.189,-0.434 0.167,-0.427 0.153,-0.413C0.138,-0.399 0.131,-0.383 0.131,-0.364C0.131,-0.353 0.134,-0.343 0.14,-0.335C0.146,-0.326 0.154,-0.319 0.164,-0.313C0.174,-0.306 0.186,-0.301 0.199,-0.296C0.212,-0.291 0.225,-0.285 0.239,-0.28C0.256,-0.273 0.274,-0.266 0.292,-0.259C0.309,-0.252 0.325,-0.243 0.339,-0.232C0.353,-0.221 0.365,-0.207 0.374,-0.191C0.383,-0.175 0.387,-0.156 0.387,-0.133C0.387,-0.113 0.383,-0.094 0.376,-0.077C0.368,-0.06 0.357,-0.044 0.342,-0.031C0.327,-0.018 0.308,-0.007 0.285,0C0.263,0.008 0.238,0.012 0.209,0.012Z" style="fill-rule:nonzero;"/>
                </g>
                <g transform="matrix(83.3333,0,0,83.3333,1363.82,3102.28)">
                    <path d="M0.279,0.012C0.246,0.012 0.216,0.006 0.188,-0.006C0.159,-0.017 0.135,-0.034 0.114,-0.056C0.093,-0.077 0.076,-0.104 0.064,-0.135C0.052,-0.166 0.046,-0.202 0.046,-0.242C0.046,-0.282 0.052,-0.318 0.065,-0.349C0.077,-0.381 0.093,-0.408 0.114,-0.43C0.134,-0.452 0.157,-0.469 0.183,-0.481C0.209,-0.492 0.236,-0.498 0.264,-0.498C0.295,-0.498 0.322,-0.493 0.346,-0.482C0.371,-0.471 0.391,-0.456 0.407,-0.436C0.424,-0.416 0.436,-0.392 0.445,-0.364C0.454,-0.336 0.458,-0.305 0.458,-0.27C0.458,-0.261 0.458,-0.253 0.458,-0.245C0.457,-0.236 0.456,-0.229 0.455,-0.223L0.127,-0.223C0.13,-0.171 0.147,-0.13 0.175,-0.1C0.204,-0.069 0.242,-0.054 0.289,-0.054C0.312,-0.054 0.334,-0.058 0.354,-0.065C0.373,-0.071 0.392,-0.081 0.41,-0.092L0.439,-0.038C0.418,-0.025 0.394,-0.013 0.368,-0.003C0.342,0.007 0.312,0.012 0.279,0.012ZM0.386,-0.282C0.386,-0.331 0.376,-0.369 0.355,-0.395C0.334,-0.42 0.304,-0.433 0.266,-0.433C0.249,-0.433 0.232,-0.43 0.217,-0.423C0.201,-0.416 0.187,-0.406 0.174,-0.394C0.161,-0.381 0.151,-0.365 0.142,-0.346C0.134,-0.327 0.129,-0.306 0.126,-0.282L0.386,-0.282Z" style="fill-rule:nonzero;"/>
                </g>
            </g>
            <g id="Meta-Ring-and-Background" serif:id="Meta-Ring and Background" transform="matrix(-1.09813,0,0,-1.09813,1706.03,2099.12)">
                <g transform="matrix(0.545852,-0.945443,0.9537,0.550619,-641.299,1170.26)">
                    <ellipse cx="692" cy="1046" rx="458" ry="454" style="fill:none;stroke:black;stroke-width:0.46px;stroke-linecap:square;"/>
                </g>
                <g transform="matrix(0.5,-0.866025,0.629632,0.363518,-412.931,1316.59)">
                    <path d="M768,524.038L768,568" style="fill:none;stroke:black;stroke-width:0.57px;stroke-linecap:square;"/>
                </g>
                <g transform="matrix(0.5,-0.866025,0.629632,0.363518,425.349,1800.57)">
                    <path d="M768,524.038L768,568" style="fill:none;stroke:black;stroke-width:0.57px;stroke-linecap:square;"/>
                </g>
                <g transform="matrix(-0.866025,-0.5,0.363518,-0.629632,1442.63,1400.58)">
                    <path d="M768,524.038L768,568" style="fill:none;stroke:black;stroke-width:0.57px;stroke-linecap:square;"/>
                </g>
                <g transform="matrix(-0.866025,-0.5,0.363518,-0.629632,958.61,2238.93)">
                    <path d="M768,524.038L768,568" style="fill:none;stroke:black;stroke-width:0.57px;stroke-linecap:square;"/>
                </g>
                <g transform="matrix(0.866025,-0.5,0.363518,0.629632,-371.594,713.016)">
                    <path d="M768,524.038L768,568" style="fill:none;stroke:black;stroke-width:0.57px;stroke-linecap:square;"/>
                </g>
                <g transform="matrix(0.866025,-0.5,0.363518,0.629632,112.404,1551.33)">
                    <path d="M768,524.038L768,568" style="fill:none;stroke:black;stroke-width:0.57px;stroke-linecap:square;"/>
                </g>
                <g transform="matrix(-0.5,-0.866025,0.629632,-0.363518,1193.38,1713.55)">
                    <path d="M768,524.038L768,568" style="fill:none;stroke:black;stroke-width:0.57px;stroke-linecap:square;"/>
                </g>
                <g transform="matrix(-0.5,-0.866025,0.629632,-0.363518,355.038,2197.57)">
                    <path d="M768,524.038L768,568" style="fill:none;stroke:black;stroke-width:0.57px;stroke-linecap:square;"/>
                </g>
                <g transform="matrix(1,0,0,0.727036,-34,210.969)">
                    <path d="M768,524.038L768,568" style="fill:none;stroke:black;stroke-width:0.57px;stroke-linecap:square;"/>
                </g>
                <g transform="matrix(1,0,0,0.727036,-34,1179)">
                    <path d="M768,524.038L768,568" style="fill:none;stroke:black;stroke-width:0.57px;stroke-linecap:square;"/>
                </g>
                <g transform="matrix(6.12323e-17,-1,0.727036,4.45181e-17,821.022,1859.96)">
                    <path d="M768,524.038L768,568" style="fill:none;stroke:black;stroke-width:0.57px;stroke-linecap:square;"/>
                </g>
                <g transform="matrix(6.12323e-17,-1,0.727036,4.45181e-17,-146.974,1859.96)">
                    <path d="M768,524.038L768,568" style="fill:none;stroke:black;stroke-width:0.57px;stroke-linecap:square;"/>
                </g>
            </g>
            <g transform="matrix(-1.09813,0,0,-1.09811,1707.13,2100.74)">
                <g transform="matrix(0.545852,-0.945443,0.9537,0.550619,-641.299,1170.26)">
                    <ellipse cx="692" cy="1046" rx="458" ry="454" style="fill:none;stroke:black;stroke-width:8.31px;"/>
                </g>
                <g transform="matrix(0.5,-0.866025,0.629632,0.363518,-412.931,1316.59)">
                    <path d="M768,524.038L768,568" style="fill:none;stroke:black;stroke-width:10.42px;"/>
                </g>
                <g transform="matrix(0.5,-0.866025,0.629632,0.363518,425.349,1800.57)">
                    <path d="M768,524.038L768,568" style="fill:none;stroke:black;stroke-width:10.42px;"/>
                </g>
                <g transform="matrix(-0.866025,-0.5,0.363518,-0.629632,1442.63,1400.58)">
                    <path d="M768,524.038L768,568" style="fill:none;stroke:black;stroke-width:10.42px;"/>
                </g>
                <g transform="matrix(-0.866025,-0.5,0.363518,-0.629632,958.61,2238.93)">
                    <path d="M768,524.038L768,568" style="fill:none;stroke:black;stroke-width:10.42px;"/>
                </g>
                <g transform="matrix(0.866025,-0.5,0.363518,0.629632,-371.594,713.016)">
                    <path d="M768,524.038L768,568" style="fill:none;stroke:black;stroke-width:10.42px;"/>
                </g>
                <g transform="matrix(0.866025,-0.5,0.363518,0.629632,112.404,1551.33)">
                    <path d="M768,524.038L768,568" style="fill:none;stroke:black;stroke-width:10.42px;"/>
                </g>
                <g transform="matrix(-0.5,-0.866025,0.629632,-0.363518,1193.38,1713.55)">
                    <path d="M768,524.038L768,568" style="fill:none;stroke:black;stroke-width:10.42px;"/>
                </g>
                <g transform="matrix(-0.5,-0.866025,0.629632,-0.363518,355.038,2197.57)">
                    <path d="M768,524.038L768,568" style="fill:none;stroke:black;stroke-width:10.42px;"/>
                </g>
                <g transform="matrix(1,0,0,0.727036,-34,210.969)">
                    <path d="M768,524.038L768,568" style="fill:none;stroke:black;stroke-width:10.42px;"/>
                </g>
                <g transform="matrix(1,0,0,0.727036,-34,1179)">
                    <path d="M768,524.038L768,568" style="fill:none;stroke:black;stroke-width:10.42px;"/>
                </g>
                <g transform="matrix(6.12323e-17,-1,0.727036,4.45181e-17,821.022,1859.96)">
                    <path d="M768,524.038L768,568" style="fill:none;stroke:black;stroke-width:10.42px;"/>
                </g>
                <g transform="matrix(6.12323e-17,-1,0.727036,4.45181e-17,-146.974,1859.96)">
                    <path d="M768,524.038L768,568" style="fill:none;stroke:black;stroke-width:10.42px;"/>
                </g>
            </g>
            <g id="_11" serif:id="11" transform="matrix(-1.39762,2.4207,-2.45799,-1.41909,2990.84,-681.803)">
                <ellipse cx="766" cy="526.5" rx="33" ry="32.5" style="stroke:white;stroke-width:8.52px;"/>
            </g>
            <g id="_0" serif:id="0" transform="matrix(-1.39762,2.4207,-2.45799,-1.41909,3265.81,-754.507)">
                <ellipse cx="766" cy="526.5" rx="33" ry="32.5" style="stroke:white;stroke-width:8.52px;"/>
            </g>
			</a>
        </g>
    </g>
</svg>
