<?xml version="1.0" encoding="UTF-8" standalone="no"?>
<!DOCTYPE svg PUBLIC "-//W3C//DTD SVG 1.1//EN" "http://www.w3.org/Graphics/SVG/1.1/DTD/svg11.dtd">
<svg width="100%" height="100%" viewBox="0 0 1801 1801" version="1.1" xmlns="http://www.w3.org/2000/svg" xmlns:xlink="http://www.w3.org/1999/xlink" xml:space="preserve" xmlns:serif="http://www.serif.com/" style="fill-rule:evenodd;clip-rule:evenodd;stroke-linecap:square;stroke-linejoin:round;stroke-miterlimit:1.5;">
    <g transform="matrix(1,0,0,1,-38,-2049)">
        <g id="START" transform="matrix(1,0,0,1,38.8964,2049.3)">
			<a xlink:href="PRE-1.svg">
            <rect x="0" y="0" width="1800" height="1800" style="fill:none;"/>
            <g transform="matrix(1,0,0,1,149.469,149.453)">
                <rect x="0" y="0" width="1501.06" height="1501.09" style="fill:white;"/>
            </g>
            <g id="Meta-Ring-and-Background" serif:id="Meta-Ring and Background" transform="matrix(-1.09813,0,0,-1.09813,1706.03,2099.12)">
                <g transform="matrix(0.545852,-0.945443,0.9537,0.550619,-641.299,1170.26)">
                    <ellipse cx="692" cy="1046" rx="458" ry="454" style="fill:none;stroke:black;stroke-width:0.46px;"/>
                </g>
                <g transform="matrix(0.5,-0.866025,0.629632,0.363518,-412.931,1316.59)">
                    <path d="M768,524.038L768,568" style="fill:none;stroke:black;stroke-width:0.57px;"/>
                </g>
                <g transform="matrix(0.5,-0.866025,0.629632,0.363518,425.349,1800.57)">
                    <path d="M768,524.038L768,568" style="fill:none;stroke:black;stroke-width:0.57px;"/>
                </g>
                <g transform="matrix(-0.866025,-0.5,0.363518,-0.629632,1442.63,1400.58)">
                    <path d="M768,524.038L768,568" style="fill:none;stroke:black;stroke-width:0.57px;"/>
                </g>
                <g transform="matrix(-0.866025,-0.5,0.363518,-0.629632,958.61,2238.93)">
                    <path d="M768,524.038L768,568" style="fill:none;stroke:black;stroke-width:0.57px;"/>
                </g>
                <g transform="matrix(0.866025,-0.5,0.363518,0.629632,-371.594,713.016)">
                    <path d="M768,524.038L768,568" style="fill:none;stroke:black;stroke-width:0.57px;"/>
                </g>
                <g transform="matrix(0.866025,-0.5,0.363518,0.629632,112.404,1551.33)">
                    <path d="M768,524.038L768,568" style="fill:none;stroke:black;stroke-width:0.57px;"/>
                </g>
                <g transform="matrix(-0.5,-0.866025,0.629632,-0.363518,1193.38,1713.55)">
                    <path d="M768,524.038L768,568" style="fill:none;stroke:black;stroke-width:0.57px;"/>
                </g>
                <g transform="matrix(-0.5,-0.866025,0.629632,-0.363518,355.038,2197.57)">
                    <path d="M768,524.038L768,568" style="fill:none;stroke:black;stroke-width:0.57px;"/>
                </g>
                <g transform="matrix(1,0,0,0.727036,-34,210.969)">
                    <path d="M768,524.038L768,568" style="fill:none;stroke:black;stroke-width:0.57px;"/>
                </g>
                <g transform="matrix(1,0,0,0.727036,-34,1179)">
                    <path d="M768,524.038L768,568" style="fill:none;stroke:black;stroke-width:0.57px;"/>
                </g>
                <g transform="matrix(6.12323e-17,-1,0.727036,4.45181e-17,821.022,1859.96)">
                    <path d="M768,524.038L768,568" style="fill:none;stroke:black;stroke-width:0.57px;"/>
                </g>
                <g transform="matrix(6.12323e-17,-1,0.727036,4.45181e-17,-146.974,1859.96)">
                    <path d="M768,524.038L768,568" style="fill:none;stroke:black;stroke-width:0.57px;"/>
                </g>
            </g>
            <g transform="matrix(-1.09813,0,0,-1.09811,1707.13,2100.74)">
                <g transform="matrix(0.545852,-0.945443,0.9537,0.550619,-641.299,1170.26)">
                    <ellipse cx="692" cy="1046" rx="458" ry="454" style="fill:none;stroke:black;stroke-width:8.31px;stroke-linecap:round;"/>
                </g>
                <g transform="matrix(0.5,-0.866025,0.629632,0.363518,-412.931,1316.59)">
                    <path d="M768,524.038L768,568" style="fill:none;stroke:black;stroke-width:10.42px;stroke-linecap:round;"/>
                </g>
                <g transform="matrix(0.5,-0.866025,0.629632,0.363518,425.349,1800.57)">
                    <path d="M768,524.038L768,568" style="fill:none;stroke:black;stroke-width:10.42px;stroke-linecap:round;"/>
                </g>
                <g transform="matrix(-0.866025,-0.5,0.363518,-0.629632,1442.63,1400.58)">
                    <path d="M768,524.038L768,568" style="fill:none;stroke:black;stroke-width:10.42px;stroke-linecap:round;"/>
                </g>
                <g transform="matrix(-0.866025,-0.5,0.363518,-0.629632,958.61,2238.93)">
                    <path d="M768,524.038L768,568" style="fill:none;stroke:black;stroke-width:10.42px;stroke-linecap:round;"/>
                </g>
                <g transform="matrix(0.866025,-0.5,0.363518,0.629632,-371.594,713.016)">
                    <path d="M768,524.038L768,568" style="fill:none;stroke:black;stroke-width:10.42px;stroke-linecap:round;"/>
                </g>
                <g transform="matrix(0.866025,-0.5,0.363518,0.629632,112.404,1551.33)">
                    <path d="M768,524.038L768,568" style="fill:none;stroke:black;stroke-width:10.42px;stroke-linecap:round;"/>
                </g>
                <g transform="matrix(-0.5,-0.866025,0.629632,-0.363518,1193.38,1713.55)">
                    <path d="M768,524.038L768,568" style="fill:none;stroke:black;stroke-width:10.42px;stroke-linecap:round;"/>
                </g>
                <g transform="matrix(-0.5,-0.866025,0.629632,-0.363518,355.038,2197.57)">
                    <path d="M768,524.038L768,568" style="fill:none;stroke:black;stroke-width:10.42px;stroke-linecap:round;"/>
                </g>
                <g transform="matrix(1,0,0,0.727036,-34,210.969)">
                    <path d="M768,524.038L768,568" style="fill:none;stroke:black;stroke-width:10.42px;stroke-linecap:round;"/>
                </g>
                <g transform="matrix(1,0,0,0.727036,-34,1179)">
                    <path d="M768,524.038L768,568" style="fill:none;stroke:black;stroke-width:10.42px;stroke-linecap:round;"/>
                </g>
                <g transform="matrix(6.12323e-17,-1,0.727036,4.45181e-17,821.022,1859.96)">
                    <path d="M768,524.038L768,568" style="fill:none;stroke:black;stroke-width:10.42px;stroke-linecap:round;"/>
                </g>
                <g transform="matrix(6.12323e-17,-1,0.727036,4.45181e-17,-146.974,1859.96)">
                    <path d="M768,524.038L768,568" style="fill:none;stroke:black;stroke-width:10.42px;stroke-linecap:round;"/>
                </g>
            </g>
            <g id="_0" serif:id="0" transform="matrix(-1.39762,2.4207,-2.45799,-1.41909,3265.81,-754.507)">
                <ellipse cx="766" cy="526.5" rx="33" ry="32.5" style="stroke:white;stroke-width:8.52px;stroke-linecap:round;"/>
            </g>
            <g transform="matrix(1,0,0,1,-5.65913,-2049.3)">
                <g transform="matrix(1,-0,-0,1,4.76269,2049)">
                    <path d="M931.035,524.738L931.209,525.013L931.368,525.295L931.515,525.585L931.646,525.881L931.764,526.183L931.867,526.491L931.954,526.803L932.027,527.12L932.084,527.439L932.126,527.761L932.152,528.084L932.162,528.408L932.157,528.733L932.136,529.056L932.1,529.379L932.048,529.699L931.98,530.016L931.897,530.33L931.8,530.639L931.687,530.944L931.56,531.242L931.418,531.534L931.263,531.819L931.094,532.096L930.912,532.364L930.717,532.624L930.51,532.873L930.291,533.113L930.06,533.341L929.819,533.558L929.568,533.763L929.307,533.956L929.037,534.136L928.759,534.303L928.473,534.456L928.18,534.595L927.88,534.72L927.575,534.83L927.265,534.925L926.951,535.005L926.633,535.07L926.312,535.119L925.99,535.153L925.666,535.172L925.341,535.174L925.017,535.161L924.694,535.132L924.373,535.088L924.054,535.028L923.738,534.953L923.426,534.863L923.12,534.758L922.818,534.638L922.523,534.503L922.234,534.355L921.953,534.193L921.681,534.017L921.417,533.829L921.162,533.627L920.918,533.414L920.684,533.19L920.461,532.954L920.25,532.707L920.051,532.451L919.864,532.186L905.311,510.356L890.757,532.186L890.571,532.451L890.372,532.707L890.161,532.954L889.938,533.19L889.704,533.414L889.459,533.627L889.205,533.829L888.941,534.017L888.668,534.193L888.387,534.355L888.099,534.503L887.803,534.638L887.502,534.758L887.195,534.863L886.883,534.953L886.568,535.028L886.249,535.088L885.928,535.132L885.604,535.161L885.28,535.174L884.956,535.172L884.632,535.153L884.309,535.119L883.989,535.07L883.671,535.005L883.356,534.925L883.046,534.83L882.741,534.72L882.442,534.595L882.149,534.456L881.863,534.303L881.584,534.136L881.314,533.956L881.053,533.763L880.802,533.558L880.561,533.341L880.331,533.113L880.112,532.873L879.904,532.624L879.709,532.364L879.527,532.096L879.358,531.819L879.203,531.534L879.062,531.242L878.934,530.944L878.822,530.639L878.724,530.33L878.641,530.016L878.574,529.699L878.522,529.379L878.485,529.056L878.464,528.733L878.459,528.408L878.47,528.084L878.496,527.761L878.537,527.439L878.594,527.12L878.667,526.803L878.755,526.491L878.857,526.183L878.975,525.881L879.107,525.585L879.253,525.295L879.413,525.013L879.586,524.738L905.311,486.152L931.035,524.738Z"/>
                    <path d="M905.311,746.12L905.311,498.254" style="fill:none;stroke:black;stroke-width:13.43px;stroke-linecap:round;"/>
                </g>
            </g>
            <g transform="matrix(1,0,0,1,1.0344,-2020.57)">
                <g transform="matrix(83.3333,0,0,83.3333,676.866,2935.62)">
                    <path d="M0.082,-0.486L0.15,-0.486L0.157,-0.43L0.16,-0.43C0.182,-0.449 0.206,-0.465 0.233,-0.478C0.259,-0.491 0.286,-0.498 0.315,-0.498C0.346,-0.498 0.374,-0.492 0.398,-0.481C0.422,-0.469 0.442,-0.452 0.458,-0.431C0.474,-0.409 0.486,-0.383 0.495,-0.353C0.503,-0.322 0.507,-0.288 0.507,-0.25C0.507,-0.209 0.501,-0.172 0.49,-0.14C0.479,-0.107 0.463,-0.08 0.444,-0.057C0.425,-0.034 0.402,-0.017 0.377,-0.006C0.352,0.006 0.325,0.012 0.297,0.012C0.274,0.012 0.252,0.007 0.23,-0.003C0.207,-0.013 0.185,-0.027 0.162,-0.044L0.164,0.041L0.164,0.205L0.082,0.205L0.082,-0.486ZM0.283,-0.057C0.303,-0.057 0.322,-0.062 0.339,-0.07C0.356,-0.08 0.37,-0.092 0.383,-0.109C0.395,-0.125 0.405,-0.145 0.411,-0.169C0.419,-0.193 0.422,-0.22 0.422,-0.25C0.422,-0.277 0.42,-0.301 0.415,-0.323C0.41,-0.345 0.403,-0.364 0.393,-0.38C0.382,-0.395 0.369,-0.407 0.353,-0.416C0.336,-0.425 0.317,-0.429 0.294,-0.429C0.273,-0.429 0.253,-0.423 0.232,-0.412C0.211,-0.401 0.188,-0.384 0.164,-0.363L0.164,-0.108C0.186,-0.089 0.207,-0.076 0.228,-0.069C0.249,-0.061 0.267,-0.057 0.283,-0.057Z" style="fill-rule:nonzero;"/>
                </g>
                <g transform="matrix(83.3333,0,0,83.3333,723.116,2935.62)">
                    <path d="M0.169,0.012C0.138,0.012 0.115,0.003 0.102,-0.016C0.089,-0.035 0.082,-0.062 0.082,-0.098L0.082,-0.712L0.164,-0.712L0.164,-0.092C0.164,-0.079 0.166,-0.069 0.171,-0.064C0.176,-0.059 0.181,-0.056 0.187,-0.056L0.195,-0.056C0.197,-0.056 0.2,-0.057 0.205,-0.058L0.216,0.004C0.211,0.007 0.204,0.009 0.197,0.01C0.19,0.011 0.18,0.012 0.169,0.012Z" style="fill-rule:nonzero;"/>
                </g>
                <g transform="matrix(83.3333,0,0,83.3333,744.366,2935.62)">
                    <path d="M0.194,0.012C0.153,0.012 0.119,0 0.093,-0.024C0.066,-0.048 0.052,-0.082 0.052,-0.126C0.052,-0.179 0.076,-0.22 0.123,-0.249C0.17,-0.277 0.246,-0.297 0.35,-0.308C0.35,-0.323 0.348,-0.338 0.345,-0.353C0.343,-0.368 0.337,-0.381 0.33,-0.392C0.323,-0.403 0.313,-0.412 0.3,-0.42C0.286,-0.427 0.27,-0.43 0.25,-0.43C0.222,-0.43 0.196,-0.425 0.171,-0.414C0.146,-0.403 0.124,-0.391 0.105,-0.378L0.073,-0.435C0.096,-0.45 0.123,-0.464 0.156,-0.477C0.189,-0.491 0.225,-0.498 0.264,-0.498C0.323,-0.498 0.366,-0.48 0.393,-0.444C0.42,-0.407 0.433,-0.359 0.433,-0.298L0.433,0L0.365,0L0.358,-0.058L0.355,-0.058C0.332,-0.039 0.307,-0.022 0.28,-0.009C0.253,0.005 0.225,0.012 0.194,0.012ZM0.218,-0.054C0.241,-0.054 0.263,-0.059 0.284,-0.07C0.305,-0.082 0.327,-0.098 0.35,-0.119L0.35,-0.254C0.309,-0.249 0.275,-0.242 0.248,-0.235C0.22,-0.228 0.198,-0.219 0.181,-0.209C0.164,-0.199 0.151,-0.188 0.143,-0.174C0.136,-0.162 0.132,-0.147 0.132,-0.132C0.132,-0.104 0.14,-0.084 0.157,-0.072C0.174,-0.06 0.194,-0.054 0.218,-0.054Z" style="fill-rule:nonzero;"/>
                </g>
                <g transform="matrix(83.3333,0,0,83.3333,786.366,2935.62)">
                    <path d="M0.09,0.209C0.079,0.209 0.068,0.208 0.059,0.206C0.05,0.205 0.041,0.202 0.033,0.199L0.049,0.134C0.054,0.135 0.06,0.137 0.067,0.138C0.074,0.14 0.08,0.141 0.086,0.141C0.114,0.141 0.137,0.131 0.155,0.111C0.172,0.092 0.186,0.067 0.196,0.037L0.207,0.001L0.012,-0.486L0.097,-0.486L0.196,-0.217C0.203,-0.196 0.211,-0.173 0.22,-0.15C0.228,-0.126 0.236,-0.103 0.243,-0.08L0.247,-0.08C0.254,-0.102 0.261,-0.125 0.268,-0.149C0.275,-0.173 0.281,-0.196 0.288,-0.217L0.375,-0.486L0.455,-0.486L0.272,0.04C0.263,0.064 0.254,0.086 0.243,0.107C0.232,0.128 0.22,0.145 0.205,0.16C0.19,0.175 0.174,0.187 0.155,0.196C0.136,0.205 0.115,0.209 0.09,0.209Z" style="fill-rule:nonzero;"/>
                </g>
                <g transform="matrix(83.3333,0,0,83.3333,841.95,2935.62)">
                    <path d="M0.194,0.012C0.153,0.012 0.119,0 0.093,-0.024C0.066,-0.048 0.052,-0.082 0.052,-0.126C0.052,-0.179 0.076,-0.22 0.123,-0.249C0.17,-0.277 0.246,-0.297 0.35,-0.308C0.35,-0.323 0.348,-0.338 0.345,-0.353C0.343,-0.368 0.337,-0.381 0.33,-0.392C0.323,-0.403 0.313,-0.412 0.3,-0.42C0.286,-0.427 0.27,-0.43 0.25,-0.43C0.222,-0.43 0.196,-0.425 0.171,-0.414C0.146,-0.403 0.124,-0.391 0.105,-0.378L0.073,-0.435C0.096,-0.45 0.123,-0.464 0.156,-0.477C0.189,-0.491 0.225,-0.498 0.264,-0.498C0.323,-0.498 0.366,-0.48 0.393,-0.444C0.42,-0.407 0.433,-0.359 0.433,-0.298L0.433,0L0.365,0L0.358,-0.058L0.355,-0.058C0.332,-0.039 0.307,-0.022 0.28,-0.009C0.253,0.005 0.225,0.012 0.194,0.012ZM0.218,-0.054C0.241,-0.054 0.263,-0.059 0.284,-0.07C0.305,-0.082 0.327,-0.098 0.35,-0.119L0.35,-0.254C0.309,-0.249 0.275,-0.242 0.248,-0.235C0.22,-0.228 0.198,-0.219 0.181,-0.209C0.164,-0.199 0.151,-0.188 0.143,-0.174C0.136,-0.162 0.132,-0.147 0.132,-0.132C0.132,-0.104 0.14,-0.084 0.157,-0.072C0.174,-0.06 0.194,-0.054 0.218,-0.054Z" style="fill-rule:nonzero;"/>
                </g>
                <g transform="matrix(83.3333,0,0,83.3333,883.95,2935.62)">
                    <path d="M0.082,-0.486L0.15,-0.486L0.157,-0.416L0.16,-0.416C0.183,-0.439 0.208,-0.459 0.234,-0.474C0.259,-0.49 0.289,-0.498 0.323,-0.498C0.374,-0.498 0.412,-0.482 0.436,-0.45C0.459,-0.418 0.471,-0.371 0.471,-0.308L0.471,0L0.389,0L0.389,-0.297C0.389,-0.343 0.382,-0.376 0.367,-0.397C0.352,-0.417 0.329,-0.427 0.297,-0.427C0.272,-0.427 0.249,-0.421 0.23,-0.408C0.211,-0.395 0.189,-0.377 0.164,-0.352L0.164,0L0.082,0L0.082,-0.486Z" style="fill-rule:nonzero;"/>
                </g>
                <g transform="matrix(83.3333,0,0,83.3333,929.533,2935.62)">
                    <path d="M0.09,0.209C0.079,0.209 0.068,0.208 0.059,0.206C0.05,0.205 0.041,0.202 0.033,0.199L0.049,0.134C0.054,0.135 0.06,0.137 0.067,0.138C0.074,0.14 0.08,0.141 0.086,0.141C0.114,0.141 0.137,0.131 0.155,0.111C0.172,0.092 0.186,0.067 0.196,0.037L0.207,0.001L0.012,-0.486L0.097,-0.486L0.196,-0.217C0.203,-0.196 0.211,-0.173 0.22,-0.15C0.228,-0.126 0.236,-0.103 0.243,-0.08L0.247,-0.08C0.254,-0.102 0.261,-0.125 0.268,-0.149C0.275,-0.173 0.281,-0.196 0.288,-0.217L0.375,-0.486L0.455,-0.486L0.272,0.04C0.263,0.064 0.254,0.086 0.243,0.107C0.232,0.128 0.22,0.145 0.205,0.16C0.19,0.175 0.174,0.187 0.155,0.196C0.136,0.205 0.115,0.209 0.09,0.209Z" style="fill-rule:nonzero;"/>
                </g>
                <g transform="matrix(83.3333,0,0,83.3333,985.116,2935.62)">
                    <path d="M0.082,-0.486L0.15,-0.486L0.157,-0.416L0.16,-0.416C0.183,-0.439 0.208,-0.459 0.234,-0.474C0.259,-0.49 0.289,-0.498 0.323,-0.498C0.374,-0.498 0.412,-0.482 0.436,-0.45C0.459,-0.418 0.471,-0.371 0.471,-0.308L0.471,0L0.389,0L0.389,-0.297C0.389,-0.343 0.382,-0.376 0.367,-0.397C0.352,-0.417 0.329,-0.427 0.297,-0.427C0.272,-0.427 0.249,-0.421 0.23,-0.408C0.211,-0.395 0.189,-0.377 0.164,-0.352L0.164,0L0.082,0L0.082,-0.486Z" style="fill-rule:nonzero;"/>
                </g>
                <g transform="matrix(83.3333,0,0,83.3333,1030.7,2935.62)">
                    <path d="M0.271,0.012C0.241,0.012 0.213,0.006 0.186,-0.005C0.159,-0.016 0.135,-0.033 0.114,-0.055C0.093,-0.076 0.077,-0.103 0.065,-0.135C0.052,-0.166 0.046,-0.202 0.046,-0.242C0.046,-0.283 0.052,-0.319 0.065,-0.35C0.077,-0.382 0.093,-0.409 0.114,-0.431C0.135,-0.453 0.159,-0.47 0.186,-0.481C0.213,-0.492 0.241,-0.498 0.271,-0.498C0.301,-0.498 0.33,-0.492 0.357,-0.481C0.384,-0.47 0.407,-0.453 0.428,-0.431C0.449,-0.409 0.465,-0.382 0.477,-0.35C0.49,-0.319 0.496,-0.283 0.496,-0.242C0.496,-0.202 0.49,-0.166 0.477,-0.135C0.465,-0.103 0.449,-0.076 0.428,-0.055C0.407,-0.033 0.384,-0.016 0.357,-0.005C0.33,0.006 0.301,0.012 0.271,0.012ZM0.271,-0.056C0.292,-0.056 0.311,-0.061 0.328,-0.07C0.345,-0.079 0.36,-0.091 0.373,-0.108C0.385,-0.124 0.394,-0.143 0.401,-0.166C0.408,-0.189 0.411,-0.214 0.411,-0.242C0.411,-0.27 0.408,-0.296 0.401,-0.319C0.394,-0.342 0.385,-0.361 0.373,-0.378C0.36,-0.395 0.345,-0.407 0.328,-0.417C0.311,-0.426 0.292,-0.43 0.271,-0.43C0.25,-0.43 0.231,-0.426 0.214,-0.417C0.197,-0.407 0.182,-0.395 0.17,-0.378C0.157,-0.361 0.148,-0.342 0.141,-0.319C0.134,-0.296 0.131,-0.27 0.131,-0.242C0.131,-0.214 0.134,-0.189 0.141,-0.166C0.148,-0.143 0.157,-0.124 0.17,-0.108C0.182,-0.091 0.197,-0.079 0.214,-0.07C0.231,-0.061 0.25,-0.056 0.271,-0.056Z" style="fill-rule:nonzero;"/>
                </g>
                <g transform="matrix(83.3333,0,0,83.3333,1074.45,2935.62)">
                    <path d="M0.235,0.012C0.209,0.012 0.187,0.008 0.17,0C0.152,-0.008 0.138,-0.019 0.127,-0.033C0.116,-0.047 0.108,-0.064 0.103,-0.084C0.098,-0.104 0.096,-0.126 0.096,-0.15L0.096,-0.419L0.024,-0.419L0.024,-0.481L0.1,-0.486L0.11,-0.622L0.179,-0.622L0.179,-0.486L0.31,-0.486L0.31,-0.419L0.179,-0.419L0.179,-0.149C0.179,-0.119 0.185,-0.096 0.196,-0.08C0.206,-0.063 0.226,-0.055 0.254,-0.055C0.263,-0.055 0.272,-0.056 0.282,-0.059C0.292,-0.062 0.301,-0.065 0.309,-0.068L0.325,-0.006C0.312,-0.001 0.297,0.003 0.281,0.006C0.266,0.01 0.25,0.012 0.235,0.012Z" style="fill-rule:nonzero;"/>
                </g>
                <g transform="matrix(83.3333,0,0,83.3333,1101.45,2935.62)">
                    <path d="M0.279,0.012C0.246,0.012 0.216,0.006 0.188,-0.006C0.159,-0.017 0.135,-0.034 0.114,-0.056C0.093,-0.077 0.076,-0.104 0.064,-0.135C0.052,-0.166 0.046,-0.202 0.046,-0.242C0.046,-0.282 0.052,-0.318 0.065,-0.349C0.077,-0.381 0.093,-0.408 0.114,-0.43C0.134,-0.452 0.157,-0.469 0.183,-0.481C0.209,-0.492 0.236,-0.498 0.264,-0.498C0.295,-0.498 0.322,-0.493 0.346,-0.482C0.371,-0.471 0.391,-0.456 0.407,-0.436C0.424,-0.416 0.436,-0.392 0.445,-0.364C0.454,-0.336 0.458,-0.305 0.458,-0.27C0.458,-0.261 0.458,-0.253 0.458,-0.245C0.457,-0.236 0.456,-0.229 0.455,-0.223L0.127,-0.223C0.13,-0.171 0.147,-0.13 0.175,-0.1C0.204,-0.069 0.242,-0.054 0.289,-0.054C0.312,-0.054 0.334,-0.058 0.354,-0.065C0.373,-0.071 0.392,-0.081 0.41,-0.092L0.439,-0.038C0.418,-0.025 0.394,-0.013 0.368,-0.003C0.342,0.007 0.312,0.012 0.279,0.012ZM0.386,-0.282C0.386,-0.331 0.376,-0.369 0.355,-0.395C0.334,-0.42 0.304,-0.433 0.266,-0.433C0.249,-0.433 0.232,-0.43 0.217,-0.423C0.201,-0.416 0.187,-0.406 0.174,-0.394C0.161,-0.381 0.151,-0.365 0.142,-0.346C0.134,-0.327 0.129,-0.306 0.126,-0.282L0.386,-0.282Z" style="fill-rule:nonzero;"/>
                </g>
            </g>
			</a>
        </g>
    </g>
</svg>
