<?xml version="1.0" encoding="UTF-8" standalone="no"?>
<!DOCTYPE svg PUBLIC "-//W3C//DTD SVG 1.1//EN" "http://www.w3.org/Graphics/SVG/1.1/DTD/svg11.dtd">
<svg width="100%" height="100%" viewBox="0 0 1800 1800" version="1.1" xmlns="http://www.w3.org/2000/svg" xmlns:xlink="http://www.w3.org/1999/xlink" xml:space="preserve" xmlns:serif="http://www.serif.com/" style="fill-rule:evenodd;clip-rule:evenodd;stroke-linecap:square;stroke-linejoin:round;stroke-miterlimit:1.5;">
    <g transform="matrix(1,0,0,1,-8010,-22515)">
        <g id="Mi3" transform="matrix(1,0,0,1,8010,22515)">
            <rect x="0" y="0" width="1800" height="1800" style="fill:none;"/>
            <g id="Meta-Ring-and-Background" serif:id="Meta-Ring and Background" transform="matrix(-1.09813,0,0,-1.09813,1703.53,2098.12)">
                <g transform="matrix(0.545852,-0.945443,0.9537,0.550619,-641.299,1170.26)">
                    <ellipse cx="692" cy="1046" rx="458" ry="454" style="fill:none;stroke:black;stroke-width:0.46px;"/>
                </g>
                <g transform="matrix(0.5,-0.866025,0.629632,0.363518,-412.931,1316.59)">
                    <path d="M768,524.038L768,568" style="fill:none;stroke:black;stroke-width:0.57px;"/>
                </g>
                <g transform="matrix(0.5,-0.866025,0.629632,0.363518,425.349,1800.57)">
                    <path d="M768,524.038L768,568" style="fill:none;stroke:black;stroke-width:0.57px;"/>
                </g>
                <g transform="matrix(-0.866025,-0.5,0.363518,-0.629632,1442.63,1400.58)">
                    <path d="M768,524.038L768,568" style="fill:none;stroke:black;stroke-width:0.57px;"/>
                </g>
                <g transform="matrix(-0.866025,-0.5,0.363518,-0.629632,958.61,2238.93)">
                    <path d="M768,524.038L768,568" style="fill:none;stroke:black;stroke-width:0.57px;"/>
                </g>
                <g transform="matrix(0.866025,-0.5,0.363518,0.629632,-371.594,713.016)">
                    <path d="M768,524.038L768,568" style="fill:none;stroke:black;stroke-width:0.57px;"/>
                </g>
                <g transform="matrix(0.866025,-0.5,0.363518,0.629632,112.404,1551.33)">
                    <path d="M768,524.038L768,568" style="fill:none;stroke:black;stroke-width:0.57px;"/>
                </g>
                <g transform="matrix(-0.5,-0.866025,0.629632,-0.363518,1193.38,1713.55)">
                    <path d="M768,524.038L768,568" style="fill:none;stroke:black;stroke-width:0.57px;"/>
                </g>
                <g transform="matrix(-0.5,-0.866025,0.629632,-0.363518,355.038,2197.57)">
                    <path d="M768,524.038L768,568" style="fill:none;stroke:black;stroke-width:0.57px;"/>
                </g>
                <g transform="matrix(1,0,0,0.727036,-34,210.969)">
                    <path d="M768,524.038L768,568" style="fill:none;stroke:black;stroke-width:0.57px;"/>
                </g>
                <g transform="matrix(1,0,0,0.727036,-34,1179)">
                    <path d="M768,524.038L768,568" style="fill:none;stroke:black;stroke-width:0.57px;"/>
                </g>
                <g transform="matrix(6.12323e-17,-1,0.727036,4.45181e-17,821.022,1859.96)">
                    <path d="M768,524.038L768,568" style="fill:none;stroke:black;stroke-width:0.57px;"/>
                </g>
                <g transform="matrix(6.12323e-17,-1,0.727036,4.45181e-17,-146.974,1859.96)">
                    <path d="M768,524.038L768,568" style="fill:none;stroke:black;stroke-width:0.57px;"/>
                </g>
            </g>
            <g id="Child-Rings" serif:id="Child Rings" transform="matrix(-1,0,0,-1,1394.66,902.666)">
				<a xlink:href="PRE-Mi4.SVG">
                <g id="_10" serif:id="10" transform="matrix(0.250435,0,0,0.250435,770.305,14.0483)">
                    <g id="Ring-and-Background" serif:id="Ring and Background" transform="matrix(1,0,0,1,50.3923,-72.3542)">
                        <g id="white-background" serif:id="white background" transform="matrix(-3.84294,0,0,-4.02215,13582.9,30283.5)">
                            <ellipse cx="3348" cy="7256.93" rx="133" ry="127.074" style="fill:white;"/>
                        </g>
                        <g id="Ring" transform="matrix(0.841899,0,0,0.841899,98.8118,175.77)">
                            <g transform="matrix(0.545852,-0.945443,0.9537,0.550619,-641.299,1170.26)">
                                <ellipse cx="692" cy="1046" rx="458" ry="454" style="fill:none;stroke:black;stroke-width:10.83px;stroke-linecap:round;"/>
                            </g>
                            <g transform="matrix(0.5,-0.866025,0.629632,0.363518,-412.931,1316.59)">
                                <path d="M768,524.038L768,568" style="fill:none;stroke:black;stroke-width:13.59px;stroke-linecap:round;"/>
                            </g>
                            <g transform="matrix(0.5,-0.866025,0.629632,0.363518,425.349,1800.57)">
                                <path d="M768,524.038L768,568" style="fill:none;stroke:black;stroke-width:13.59px;stroke-linecap:round;"/>
                            </g>
                            <g transform="matrix(-0.866025,-0.5,0.363518,-0.629632,1442.63,1400.58)">
                                <path d="M768,524.038L768,568" style="fill:none;stroke:black;stroke-width:13.59px;stroke-linecap:round;"/>
                            </g>
                            <g transform="matrix(-0.866025,-0.5,0.363518,-0.629632,958.61,2238.93)">
                                <path d="M768,524.038L768,568" style="fill:none;stroke:black;stroke-width:13.59px;stroke-linecap:round;"/>
                            </g>
                            <g transform="matrix(0.866025,-0.5,0.363518,0.629632,-371.594,713.016)">
                                <path d="M768,524.038L768,568" style="fill:none;stroke:black;stroke-width:13.59px;stroke-linecap:round;"/>
                            </g>
                            <g transform="matrix(0.866025,-0.5,0.363518,0.629632,112.404,1551.33)">
                                <path d="M768,524.038L768,568" style="fill:none;stroke:black;stroke-width:13.59px;stroke-linecap:round;"/>
                            </g>
                            <g transform="matrix(-0.5,-0.866025,0.629632,-0.363518,1193.38,1713.55)">
                                <path d="M768,524.038L768,568" style="fill:none;stroke:black;stroke-width:13.59px;stroke-linecap:round;"/>
                            </g>
                            <g transform="matrix(-0.5,-0.866025,0.629632,-0.363518,355.038,2197.57)">
                                <path d="M768,524.038L768,568" style="fill:none;stroke:black;stroke-width:13.59px;stroke-linecap:round;"/>
                            </g>
                            <g transform="matrix(1,0,0,0.727036,-34,210.969)">
                                <path d="M768,524.038L768,568" style="fill:none;stroke:black;stroke-width:13.59px;stroke-linecap:round;"/>
                            </g>
                            <g transform="matrix(1,0,0,0.727036,-34,1179)">
                                <path d="M768,524.038L768,568" style="fill:none;stroke:black;stroke-width:13.59px;stroke-linecap:round;"/>
                            </g>
                            <g transform="matrix(6.12323e-17,-1,0.727036,4.45181e-17,821.022,1859.96)">
                                <path d="M768,524.038L768,568" style="fill:none;stroke:black;stroke-width:13.59px;stroke-linecap:round;"/>
                            </g>
                            <g transform="matrix(6.12323e-17,-1,0.727036,4.45181e-17,-146.974,1859.96)">
                                <path d="M768,524.038L768,568" style="fill:none;stroke:black;stroke-width:13.59px;stroke-linecap:round;"/>
                            </g>
                        </g>
                    </g>
                    <g id="Notes" transform="matrix(1,0,0,1,16.3923,-4.3923)">
                        <g id="_101" serif:id="10" transform="matrix(1.07151,-1.85591,1.88446,1.08799,-701.504,2085.37)">
                            <ellipse cx="766" cy="526.5" rx="33" ry="32.5" style="fill:rgb(0,55,255);stroke:white;stroke-width:11.11px;stroke-linecap:round;"/>
                        </g>
                        <g id="_5" serif:id="5" transform="matrix(1.07151,-1.85591,1.88446,1.08799,-1271.91,1513.43)">
                            <ellipse cx="766" cy="526.5" rx="33" ry="32.5" style="fill:rgb(0,55,255);stroke:white;stroke-width:11.11px;stroke-linecap:round;"/>
                        </g>
                        <g id="_4" serif:id="4" transform="matrix(1.07151,-1.85591,1.88446,1.08799,-1423.87,1667.79)">
                            <ellipse cx="766" cy="526.5" rx="33" ry="32.5" style="fill:rgb(0,55,255);stroke:white;stroke-width:11.11px;stroke-linecap:round;"/>
                        </g>
                        <g id="_0" serif:id="0" transform="matrix(1.07151,-1.85591,1.88446,1.08799,-1062.18,2296.87)">
                            <ellipse cx="766" cy="526.5" rx="33" ry="32.5" style="fill:rgb(0,55,255);stroke:white;stroke-width:11.11px;stroke-linecap:round;"/>
                        </g>
                    </g>
                    <g id="Root-Markers" serif:id="Root Markers">
                    </g>
                </g>
				</a>
                <g id="_41" serif:id="4" transform="matrix(0.250435,0,0,0.250435,-164.235,-515.994)">
                    <g id="Ring-and-Background1" serif:id="Ring and Background" transform="matrix(1,0,0,1,50.3923,-72.3542)">
                        <g id="white-background1" serif:id="white background" transform="matrix(-3.84294,0,0,-4.02215,13582.9,30283.5)">
                            <ellipse cx="3348" cy="7256.93" rx="133" ry="127.074" style="fill:white;"/>
                        </g>
                        <g id="Ring1" serif:id="Ring" transform="matrix(0.841899,0,0,0.841899,98.8118,175.77)">
                            <g transform="matrix(0.545852,-0.945443,0.9537,0.550619,-641.299,1170.26)">
                                <ellipse cx="692" cy="1046" rx="458" ry="454" style="fill:none;stroke:black;stroke-width:10.83px;stroke-linecap:round;"/>
                            </g>
                            <g transform="matrix(0.5,-0.866025,0.629632,0.363518,-412.931,1316.59)">
                                <path d="M768,524.038L768,568" style="fill:none;stroke:black;stroke-width:13.59px;stroke-linecap:round;"/>
                            </g>
                            <g transform="matrix(0.5,-0.866025,0.629632,0.363518,425.349,1800.57)">
                                <path d="M768,524.038L768,568" style="fill:none;stroke:black;stroke-width:13.59px;stroke-linecap:round;"/>
                            </g>
                            <g transform="matrix(-0.866025,-0.5,0.363518,-0.629632,1442.63,1400.58)">
                                <path d="M768,524.038L768,568" style="fill:none;stroke:black;stroke-width:13.59px;stroke-linecap:round;"/>
                            </g>
                            <g transform="matrix(-0.866025,-0.5,0.363518,-0.629632,958.61,2238.93)">
                                <path d="M768,524.038L768,568" style="fill:none;stroke:black;stroke-width:13.59px;stroke-linecap:round;"/>
                            </g>
                            <g transform="matrix(0.866025,-0.5,0.363518,0.629632,-371.594,713.016)">
                                <path d="M768,524.038L768,568" style="fill:none;stroke:black;stroke-width:13.59px;stroke-linecap:round;"/>
                            </g>
                            <g transform="matrix(0.866025,-0.5,0.363518,0.629632,112.404,1551.33)">
                                <path d="M768,524.038L768,568" style="fill:none;stroke:black;stroke-width:13.59px;stroke-linecap:round;"/>
                            </g>
                            <g transform="matrix(-0.5,-0.866025,0.629632,-0.363518,1193.38,1713.55)">
                                <path d="M768,524.038L768,568" style="fill:none;stroke:black;stroke-width:13.59px;stroke-linecap:round;"/>
                            </g>
                            <g transform="matrix(-0.5,-0.866025,0.629632,-0.363518,355.038,2197.57)">
                                <path d="M768,524.038L768,568" style="fill:none;stroke:black;stroke-width:13.59px;stroke-linecap:round;"/>
                            </g>
                            <g transform="matrix(1,0,0,0.727036,-34,210.969)">
                                <path d="M768,524.038L768,568" style="fill:none;stroke:black;stroke-width:13.59px;stroke-linecap:round;"/>
                            </g>
                            <g transform="matrix(1,0,0,0.727036,-34,1179)">
                                <path d="M768,524.038L768,568" style="fill:none;stroke:black;stroke-width:13.59px;stroke-linecap:round;"/>
                            </g>
                            <g transform="matrix(6.12323e-17,-1,0.727036,4.45181e-17,821.022,1859.96)">
                                <path d="M768,524.038L768,568" style="fill:none;stroke:black;stroke-width:13.59px;stroke-linecap:round;"/>
                            </g>
                            <g transform="matrix(6.12323e-17,-1,0.727036,4.45181e-17,-146.974,1859.96)">
                                <path d="M768,524.038L768,568" style="fill:none;stroke:black;stroke-width:13.59px;stroke-linecap:round;"/>
                            </g>
                        </g>
                    </g>
                    <g id="Notes1" serif:id="Notes" transform="matrix(1,0,0,1,16.3923,-4.3923)">
                        <g id="_11" serif:id="11" transform="matrix(1.07151,-1.85591,1.88446,1.08799,-851.373,2241.13)">
                            <ellipse cx="766" cy="526.5" rx="33" ry="32.5" style="stroke:white;stroke-width:11.11px;stroke-linecap:round;"/>
                        </g>
                        <g id="_9" serif:id="9" transform="matrix(1.07151,-1.85591,1.88446,1.08799,-641.245,1872.23)">
                            <ellipse cx="766" cy="526.5" rx="33" ry="32.5" style="stroke:white;stroke-width:11.11px;stroke-linecap:round;"/>
                        </g>
                        <g id="_8" serif:id="8" transform="matrix(1.07151,-1.85591,1.88446,1.08799,-698.993,1666.12)">
                            <ellipse cx="766" cy="526.5" rx="33" ry="32.5" style="stroke:white;stroke-width:11.11px;stroke-linecap:round;"/>
                        </g>
                        <g id="_6" serif:id="6" transform="matrix(1.07151,-1.85591,1.88446,1.08799,-1062.18,1457.5)">
                            <ellipse cx="766" cy="526.5" rx="33" ry="32.5" style="stroke:white;stroke-width:11.11px;stroke-linecap:round;"/>
                        </g>
                        <g id="_42" serif:id="4" transform="matrix(1.07151,-1.85591,1.88446,1.08799,-1423.87,1667.79)">
                            <ellipse cx="766" cy="526.5" rx="33" ry="32.5" style="stroke:white;stroke-width:11.11px;stroke-linecap:round;"/>
                        </g>
                        <g id="_2" serif:id="2" transform="matrix(1.07151,-1.85591,1.88446,1.08799,-1423.86,2085.36)">
                            <ellipse cx="766" cy="526.5" rx="33" ry="32.5" style="stroke:white;stroke-width:11.11px;stroke-linecap:round;"/>
                        </g>
                        <g id="_01" serif:id="0" transform="matrix(1.07151,-1.85591,1.88446,1.08799,-1062.18,2296.87)">
                            <ellipse cx="766" cy="526.5" rx="33" ry="32.5" style="stroke:white;stroke-width:11.11px;stroke-linecap:round;"/>
                        </g>
                    </g>
                    <g id="Root-Markers1" serif:id="Root Markers">
                    </g>
                </g>
				<a xlink:href="PRE-Mi1.SVG">
                <g id="_1" serif:id="1" transform="matrix(0.250435,0,0,0.250435,34.5027,212.843)">
                    <g id="Ring-and-Background2" serif:id="Ring and Background" transform="matrix(1,0,0,1,50.3923,-72.3542)">
                        <g id="white-background2" serif:id="white background" transform="matrix(-3.84294,0,0,-4.02215,13582.9,30283.5)">
                            <ellipse cx="3348" cy="7256.93" rx="133" ry="127.074" style="fill:white;"/>
                        </g>
                        <g id="Ring2" serif:id="Ring" transform="matrix(0.841899,0,0,0.841899,98.8118,175.77)">
                            <g transform="matrix(0.545852,-0.945443,0.9537,0.550619,-641.299,1170.26)">
                                <ellipse cx="692" cy="1046" rx="458" ry="454" style="fill:none;stroke:black;stroke-width:10.83px;stroke-linecap:round;"/>
                            </g>
                            <g transform="matrix(0.5,-0.866025,0.629632,0.363518,-412.931,1316.59)">
                                <path d="M768,524.038L768,568" style="fill:none;stroke:black;stroke-width:13.59px;stroke-linecap:round;"/>
                            </g>
                            <g transform="matrix(0.5,-0.866025,0.629632,0.363518,425.349,1800.57)">
                                <path d="M768,524.038L768,568" style="fill:none;stroke:black;stroke-width:13.59px;stroke-linecap:round;"/>
                            </g>
                            <g transform="matrix(-0.866025,-0.5,0.363518,-0.629632,1442.63,1400.58)">
                                <path d="M768,524.038L768,568" style="fill:none;stroke:black;stroke-width:13.59px;stroke-linecap:round;"/>
                            </g>
                            <g transform="matrix(-0.866025,-0.5,0.363518,-0.629632,958.61,2238.93)">
                                <path d="M768,524.038L768,568" style="fill:none;stroke:black;stroke-width:13.59px;stroke-linecap:round;"/>
                            </g>
                            <g transform="matrix(0.866025,-0.5,0.363518,0.629632,-371.594,713.016)">
                                <path d="M768,524.038L768,568" style="fill:none;stroke:black;stroke-width:13.59px;stroke-linecap:round;"/>
                            </g>
                            <g transform="matrix(0.866025,-0.5,0.363518,0.629632,112.404,1551.33)">
                                <path d="M768,524.038L768,568" style="fill:none;stroke:black;stroke-width:13.59px;stroke-linecap:round;"/>
                            </g>
                            <g transform="matrix(-0.5,-0.866025,0.629632,-0.363518,1193.38,1713.55)">
                                <path d="M768,524.038L768,568" style="fill:none;stroke:black;stroke-width:13.59px;stroke-linecap:round;"/>
                            </g>
                            <g transform="matrix(-0.5,-0.866025,0.629632,-0.363518,355.038,2197.57)">
                                <path d="M768,524.038L768,568" style="fill:none;stroke:black;stroke-width:13.59px;stroke-linecap:round;"/>
                            </g>
                            <g transform="matrix(1,0,0,0.727036,-34,210.969)">
                                <path d="M768,524.038L768,568" style="fill:none;stroke:black;stroke-width:13.59px;stroke-linecap:round;"/>
                            </g>
                            <g transform="matrix(1,0,0,0.727036,-34,1179)">
                                <path d="M768,524.038L768,568" style="fill:none;stroke:black;stroke-width:13.59px;stroke-linecap:round;"/>
                            </g>
                            <g transform="matrix(6.12323e-17,-1,0.727036,4.45181e-17,821.022,1859.96)">
                                <path d="M768,524.038L768,568" style="fill:none;stroke:black;stroke-width:13.59px;stroke-linecap:round;"/>
                            </g>
                            <g transform="matrix(6.12323e-17,-1,0.727036,4.45181e-17,-146.974,1859.96)">
                                <path d="M768,524.038L768,568" style="fill:none;stroke:black;stroke-width:13.59px;stroke-linecap:round;"/>
                            </g>
                        </g>
                    </g>
                    <g id="Notes2" serif:id="Notes" transform="matrix(1,0,0,1,16.3923,-4.3923)">
                        <g id="_102" serif:id="10" transform="matrix(1.07151,-1.85591,1.88446,1.08799,-701.504,2085.37)">
                            <ellipse cx="766" cy="526.5" rx="33" ry="32.5" style="fill:rgb(0,55,255);stroke:white;stroke-width:11.11px;stroke-linecap:round;"/>
                        </g>
                        <g id="_81" serif:id="8" transform="matrix(1.07151,-1.85591,1.88446,1.08799,-698.993,1666.12)">
                            <ellipse cx="766" cy="526.5" rx="33" ry="32.5" style="fill:rgb(0,55,255);stroke:white;stroke-width:11.11px;stroke-linecap:round;"/>
                        </g>
                        <g id="_7" serif:id="7" transform="matrix(1.07151,-1.85591,1.88446,1.08799,-855.471,1517.1)">
                            <ellipse cx="766" cy="526.5" rx="33" ry="32.5" style="fill:rgb(0,55,255);stroke:white;stroke-width:11.11px;stroke-linecap:round;"/>
                        </g>
                        <g id="_02" serif:id="0" transform="matrix(1.07151,-1.85591,1.88446,1.08799,-1062.18,2296.87)">
                            <ellipse cx="766" cy="526.5" rx="33" ry="32.5" style="fill:rgb(0,55,255);stroke:white;stroke-width:11.11px;stroke-linecap:round;"/>
                        </g>
                    </g>
                    <g id="Root-Markers2" serif:id="Root Markers">
                    </g>
                </g>
				</a>
				<a xlink:href="PRE-i3.SVG">
                <g id="_03" serif:id="0" transform="matrix(0.250435,0,0,0.250435,303.035,286.599)">
                    <g id="Ring-and-Background3" serif:id="Ring and Background" transform="matrix(1,0,0,1,50.3923,-72.3542)">
                        <g id="white-background3" serif:id="white background" transform="matrix(-3.84294,0,0,-4.02215,13582.9,30283.5)">
                            <ellipse cx="3348" cy="7256.93" rx="133" ry="127.074" style="fill:white;"/>
                        </g>
                        <g id="Ring3" serif:id="Ring" transform="matrix(0.841899,0,0,0.841899,98.8118,175.77)">
                            <g transform="matrix(0.545852,-0.945443,0.9537,0.550619,-641.299,1170.26)">
                                <ellipse cx="692" cy="1046" rx="458" ry="454" style="fill:none;stroke:black;stroke-width:10.83px;stroke-linecap:round;"/>
                            </g>
                            <g transform="matrix(0.5,-0.866025,0.629632,0.363518,-412.931,1316.59)">
                                <path d="M768,524.038L768,568" style="fill:none;stroke:black;stroke-width:13.59px;stroke-linecap:round;"/>
                            </g>
                            <g transform="matrix(0.5,-0.866025,0.629632,0.363518,425.349,1800.57)">
                                <path d="M768,524.038L768,568" style="fill:none;stroke:black;stroke-width:13.59px;stroke-linecap:round;"/>
                            </g>
                            <g transform="matrix(-0.866025,-0.5,0.363518,-0.629632,1442.63,1400.58)">
                                <path d="M768,524.038L768,568" style="fill:none;stroke:black;stroke-width:13.59px;stroke-linecap:round;"/>
                            </g>
                            <g transform="matrix(-0.866025,-0.5,0.363518,-0.629632,958.61,2238.93)">
                                <path d="M768,524.038L768,568" style="fill:none;stroke:black;stroke-width:13.59px;stroke-linecap:round;"/>
                            </g>
                            <g transform="matrix(0.866025,-0.5,0.363518,0.629632,-371.594,713.016)">
                                <path d="M768,524.038L768,568" style="fill:none;stroke:black;stroke-width:13.59px;stroke-linecap:round;"/>
                            </g>
                            <g transform="matrix(0.866025,-0.5,0.363518,0.629632,112.404,1551.33)">
                                <path d="M768,524.038L768,568" style="fill:none;stroke:black;stroke-width:13.59px;stroke-linecap:round;"/>
                            </g>
                            <g transform="matrix(-0.5,-0.866025,0.629632,-0.363518,1193.38,1713.55)">
                                <path d="M768,524.038L768,568" style="fill:none;stroke:black;stroke-width:13.59px;stroke-linecap:round;"/>
                            </g>
                            <g transform="matrix(-0.5,-0.866025,0.629632,-0.363518,355.038,2197.57)">
                                <path d="M768,524.038L768,568" style="fill:none;stroke:black;stroke-width:13.59px;stroke-linecap:round;"/>
                            </g>
                            <g transform="matrix(1,0,0,0.727036,-34,210.969)">
                                <path d="M768,524.038L768,568" style="fill:none;stroke:black;stroke-width:13.59px;stroke-linecap:round;"/>
                            </g>
                            <g transform="matrix(1,0,0,0.727036,-34,1179)">
                                <path d="M768,524.038L768,568" style="fill:none;stroke:black;stroke-width:13.59px;stroke-linecap:round;"/>
                            </g>
                            <g transform="matrix(6.12323e-17,-1,0.727036,4.45181e-17,821.022,1859.96)">
                                <path d="M768,524.038L768,568" style="fill:none;stroke:black;stroke-width:13.59px;stroke-linecap:round;"/>
                            </g>
                            <g transform="matrix(6.12323e-17,-1,0.727036,4.45181e-17,-146.974,1859.96)">
                                <path d="M768,524.038L768,568" style="fill:none;stroke:black;stroke-width:13.59px;stroke-linecap:round;"/>
                            </g>
                        </g>
                    </g>
                    <g id="Notes3" serif:id="Notes" transform="matrix(1,0,0,1,16.3923,-4.3923)">
                        <g id="_103" serif:id="10" transform="matrix(1.07151,-1.85591,1.88446,1.08799,-701.504,2085.37)">
                            <ellipse cx="766" cy="526.5" rx="33" ry="32.5" style="fill:rgb(0,55,255);stroke:rgb(255,0,0);stroke-width:11.11px;stroke-linecap:round;"/>
                        </g>
                        <g id="_43" serif:id="4" transform="matrix(1.07151,-1.85591,1.88446,1.08799,-1423.87,1667.79)">
                            <ellipse cx="766" cy="526.5" rx="33" ry="32.5" style="fill:rgb(0,55,255);stroke:rgb(255,0,0);stroke-width:11.11px;stroke-linecap:round;"/>
                        </g>
                        <g id="_12" serif:id="1" transform="matrix(1.07151,-1.85591,1.88446,1.08799,-1269.79,2236.07)">
                            <ellipse cx="766" cy="526.5" rx="33" ry="32.5" style="fill:rgb(0,55,255);stroke:rgb(255,0,0);stroke-width:11.11px;stroke-linecap:round;"/>
                        </g>
                        <g id="_04" serif:id="0" transform="matrix(1.07151,-1.85591,1.88446,1.08799,-1062.18,2296.87)">
                            <ellipse cx="766" cy="526.5" rx="33" ry="32.5" style="fill:rgb(0,55,255);stroke:rgb(255,0,0);stroke-width:11.11px;stroke-linecap:round;"/>
                        </g>
                    </g>
                    <g id="Root-Markers3" serif:id="Root Markers">
                    </g>
                </g>
				</a>
            </g>
            <g id="Inner-Octahedron" serif:id="Inner Octahedron" transform="matrix(0.148969,-0.0860073,0.0860073,0.148969,-28.6952,120.156)">
                <g transform="matrix(1.18459,0.683922,-0.683922,1.18459,-2461.97,-2468.84)">
                    <path d="M2951.04,904.006L3154.23,549.817L3564.49,549.83L3768.96,904.006L3564.49,1258.18L3154.23,1258.18L2951.04,904.006" style="fill:none;stroke:rgb(51,51,51);stroke-width:8.85px;stroke-linecap:round;"/>
                </g>
                <g transform="matrix(1,0,0,1,-6622.51,0)">
                    <path d="M7205.5,900L7047,1174.53L7362,1174.53" style="fill:none;stroke:rgb(51,51,51);stroke-width:24.22px;stroke-linecap:round;"/>
                </g>
                <g transform="matrix(1,0,0,1,-6622.51,-9.09495e-13)">
                    <path d="M7682,1174.53L7997.97,1174.53L7844,900" style="fill:none;stroke:rgb(51,51,51);stroke-width:24.22px;stroke-linecap:round;"/>
                </g>
                <g transform="matrix(1,0,0,1,-6622.51,-9.09495e-13)">
                    <path d="M7362,625.469L7522.51,350.938L7682,625.469" style="fill:none;stroke:rgb(51,51,51);stroke-width:24.22px;stroke-linecap:round;"/>
                </g>
                <g transform="matrix(1,0,0,1,-6622.51,0)">
                    <path d="M7840.78,895.495L7681,625.469" style="fill:none;stroke:rgb(179,179,179);stroke-width:24.22px;stroke-linecap:round;stroke-linejoin:miter;"/>
                </g>
                <g transform="matrix(1,0,0,1,-6622.51,0)">
                    <path d="M7364,1174.53L7681,1174.53" style="fill:none;stroke:rgb(179,179,179);stroke-width:24.22px;stroke-linecap:round;stroke-linejoin:miter;"/>
                </g>
                <g transform="matrix(1,0,0,1,-6622.51,0)">
                    <path d="M7362,625.469L7206,900" style="fill:none;stroke:rgb(179,179,179);stroke-width:24.22px;stroke-linecap:round;stroke-linejoin:miter;"/>
                </g>
                <g transform="matrix(1,0,0,1,-6622.51,0)">
                    <path d="M7047,625.469L7997.97,625.469L7522.49,1449.06L7047,625.469Z" style="fill:none;stroke:rgb(51,51,51);stroke-width:24.22px;stroke-linecap:round;"/>
                </g>
                <g transform="matrix(0.999053,0.576803,-0.587012,1.01674,1240.73,77.8817)">
                    <ellipse cx="338.5" cy="335.5" rx="57.5" ry="56.5" style="fill:rgb(255,0,0);stroke:white;stroke-width:16.65px;stroke-linecap:round;"/>
                </g>
            </g>
            <g id="_6-path" serif:id="6-path" transform="matrix(1,0,0,1,-666.917,2)">
                <g transform="matrix(1,0,0,1,-8010,-28993)">
                    <path d="M9086,29767L9132,29767" style="fill:none;stroke:rgb(89,89,89);stroke-width:6.67px;stroke-linecap:round;"/>
                </g>
                <g transform="matrix(0.769231,0,0,1,-5911.69,-28993)">
                    <path d="M9084,29756L9097,29756" style="fill:none;stroke:rgb(89,89,89);stroke-width:7.47px;stroke-linecap:round;"/>
                </g>
                <g transform="matrix(0.769231,0,0,1,-5875.69,-28993)">
                    <path d="M9084,29756L9097,29756" style="fill:none;stroke:rgb(89,89,89);stroke-width:7.47px;stroke-linecap:round;"/>
                </g>
                <g transform="matrix(0.769231,0,0,1,-5893.69,-28993)">
                    <path d="M9084,29756L9097,29756" style="fill:none;stroke:rgb(89,89,89);stroke-width:7.47px;stroke-linecap:round;"/>
                </g>
            </g>
            <g id="triangle" transform="matrix(-5.25277e-17,0.857843,0.833333,5.10269e-17,-23119.4,-7044.27)">
                <path d="M8885,29127L8902,29162L8868,29162L8885,29127Z" style="fill:rgb(89,89,89);stroke:rgb(89,89,89);stroke-width:7.88px;stroke-linecap:round;"/>
            </g>
            <g transform="matrix(1,0,0,1,-8010,-22515)">
                <path d="M9174,22820C8976.25,22576.2 8617.35,22661.3 8445,23018" style="fill:none;stroke:rgb(191,191,191);stroke-width:6.67px;stroke-linecap:round;"/>
            </g>
            <g transform="matrix(1,0,0,1,-8010,-22515)">
                <path d="M8557,23190C8733.76,23107.9 8541.59,22714.8 8884,22758" style="fill:none;stroke:black;stroke-width:6.67px;stroke-linecap:round;"/>
            </g>
            <g transform="matrix(1,0,0,1,-8010,-22515)">
                <path d="M9003,22955C9001.7,22993.7 9034.68,23009.9 9065,23005" style="fill:none;stroke:black;stroke-width:6.67px;stroke-linecap:round;"/>
            </g>
            <g transform="matrix(1,0,0,1,-8010,-22515)">
                <path d="M9117,23058C9076.25,23244.1 9138.79,23417.5 9309,23571" style="fill:none;stroke:black;stroke-width:6.67px;stroke-linecap:round;"/>
            </g>
            <g transform="matrix(1,0,0,1,-8010,-22515)">
                <path d="M9249,23680C8934.45,23710.6 8670.31,23605.4 8506,23262" style="fill:none;stroke:rgb(191,191,191);stroke-width:6.67px;stroke-linecap:round;"/>
            </g>
        </g>
    </g>
</svg>
