<?xml version="1.0" encoding="UTF-8" standalone="no"?>
<!DOCTYPE svg PUBLIC "-//W3C//DTD SVG 1.1//EN" "http://www.w3.org/Graphics/SVG/1.1/DTD/svg11.dtd">
<svg width="100%" height="100%" viewBox="0 0 1701 2480" version="1.1" xmlns="http://www.w3.org/2000/svg" xmlns:xlink="http://www.w3.org/1999/xlink" xml:space="preserve" xmlns:serif="http://www.serif.com/" style="fill-rule:evenodd;clip-rule:evenodd;stroke-linecap:round;stroke-linejoin:round;stroke-miterlimit:1.5;">
    <rect id="A" x="0.484" y="-0" width="1700" height="2480" style="fill:none;"/>
    <g id="Fields" opacity="0.2">
        <path id="_8" sound="Field/07-Masks" serif:id="8" d="M373.529,1368L11.026,1462.53L11.484,2065L498.024,1586.1C441.806,1529.45 399.312,1458.8 373.529,1368Z" style="fill:#9a945d;stroke:#767676;stroke-width:8.33px;"/>
        <path id="_5" sound="Field/06-Tubular" serif:id="5" d="M1205.4,1583.9L1690.51,2056.12L1690.51,2469.49L1182.49,2469.59L977.863,1717.85C1064.26,1694.26 1140.93,1649.93 1205.4,1583.9Z" style="fill:#9da285;stroke:#767676;stroke-width:8.33px;"/>
        <path id="_0" sound="Field/11-Eyeral" serif:id="0" d="M977.865,762.641L1181.49,9.905L518.029,10L721.657,762.664C807.897,740.771 893.334,739.866 977.865,762.641Z" style="fill:#b7ad66;stroke:#767676;stroke-width:8.33px;"/>
    </g>
    <g id="SG">
        <g id="Meta-Ring">
            <path d="M1262.55,1479.89C1131.24,1707.33 839.985,1785.38 612.561,1654.08C385.137,1522.78 307.108,1231.52 438.421,1004.08C569.734,776.638 860.984,698.586 1088.41,829.89C1315.83,961.193 1393.86,1252.45 1262.55,1479.89Z" style="fill:none;stroke:#000;stroke-width:0.48px;stroke-linecap:square;"/>
            <path d="M1262.55,1479.89L1236.2,1464.68" style="fill:none;stroke:#000;stroke-width:0.48px;stroke-linecap:square;"/>
            <path d="M464.764,1019.29L438.421,1004.08" style="fill:none;stroke:#000;stroke-width:0.48px;stroke-linecap:square;"/>
            <path d="M627.77,1627.74L612.561,1654.08" style="fill:none;stroke:#000;stroke-width:0.48px;stroke-linecap:square;"/>
            <path d="M1088.41,829.89L1073.2,856.232" style="fill:none;stroke:#000;stroke-width:0.48px;stroke-linecap:square;"/>
            <path d="M1088.4,1654.06L1073.19,1627.72" style="fill:none;stroke:#000;stroke-width:0.48px;stroke-linecap:square;"/>
            <path d="M627.78,856.25L612.571,829.907" style="fill:none;stroke:#000;stroke-width:0.48px;stroke-linecap:square;"/>
            <path d="M464.734,1464.7L438.391,1479.91" style="fill:none;stroke:#000;stroke-width:0.48px;stroke-linecap:square;"/>
            <path d="M1262.58,1004.06L1236.24,1019.27" style="fill:none;stroke:#000;stroke-width:0.48px;stroke-linecap:square;"/>
            <path d="M850.484,1717.83L850.484,1687.41" style="fill:none;stroke:#000;stroke-width:0.48px;stroke-linecap:square;"/>
            <path d="M850.484,796.558L850.484,766.14" style="fill:none;stroke:#000;stroke-width:0.48px;stroke-linecap:square;"/>
            <path d="M405.076,1241.99L374.658,1241.99" style="fill:none;stroke:#000;stroke-width:0.48px;stroke-linecap:square;"/>
            <path d="M1326.31,1241.99L1295.89,1241.99" style="fill:none;stroke:#000;stroke-width:0.48px;stroke-linecap:square;"/>
        </g>
        <g id="Ring-Backers" serif:id="Ring Backers">
            <circle id="_8-Backer" serif:id="8 Backer" cx="443.621" cy="1470.8" r="92" style="fill:#fff;"/>
            <circle id="_5-Backer" serif:id="5 Backer" cx="1090.08" cy="1640.22" r="92" style="fill:#fff;"/>
            <circle id="_3-Backer" serif:id="3 Backer" cx="1318.08" cy="1241.35" r="92" style="fill:#fff;stroke:#fff;stroke-width:1px;stroke-linecap:butt;stroke-miterlimit:2;"/>
            <circle id="_0-Backer" serif:id="0 Backer" cx="852.218" cy="774.169" r="92" style="fill:#fff;"/>
        </g>
        <g id="Child-Rings" serif:id="Child Rings">
            <a href="A2B.svg">
            <g id="_81" serif:id="8" sound="Font/2-Low-B,Font/2-Mid-Eb,Font/2-High-Ab" volume="80">
                <g id="Ring--Sounder--Background" serif:id="Ring, Sounder, Background">
                    <circle id="Sounder" cx="443.621" cy="1470.8" r="92" style="fill:#fff;"/>
                    <g id="Ring">
                        <path d="M522.737,1517.11C497.525,1560.78 441.605,1575.77 397.94,1550.56C354.274,1525.35 339.292,1469.43 364.505,1425.76C389.717,1382.09 445.637,1367.1 489.302,1392.31C532.967,1417.52 547.949,1473.44 522.737,1517.11Z" style="fill:none;stroke:#000;stroke-width:2.17px;"/>
                        <path d="M522.737,1517.11L517.679,1514.19" style="fill:none;stroke:#000;stroke-width:2.17px;"/>
                        <path d="M369.562,1428.68L364.505,1425.76" style="fill:none;stroke:#000;stroke-width:2.17px;"/>
                        <path d="M400.86,1545.5L397.94,1550.56" style="fill:none;stroke:#000;stroke-width:2.17px;"/>
                        <path d="M489.302,1392.31L486.382,1397.37" style="fill:none;stroke:#000;stroke-width:2.17px;"/>
                        <path d="M489.3,1550.56L486.38,1545.5" style="fill:none;stroke:#000;stroke-width:2.17px;"/>
                        <path d="M400.862,1397.38L397.941,1392.32" style="fill:none;stroke:#000;stroke-width:2.17px;"/>
                        <path d="M369.557,1514.2L364.499,1517.12" style="fill:none;stroke:#000;stroke-width:2.17px;"/>
                        <path d="M522.743,1425.76L517.685,1428.67" style="fill:none;stroke:#000;stroke-width:2.17px;"/>
                        <path d="M443.621,1562.8L443.621,1556.96" style="fill:none;stroke:#000;stroke-width:2.17px;"/>
                        <path d="M443.621,1385.91L443.621,1380.07" style="fill:none;stroke:#000;stroke-width:2.17px;"/>
                        <path d="M358.102,1471.44L352.262,1471.44" style="fill:none;stroke:#000;stroke-width:2.17px;"/>
                        <path d="M534.979,1471.44L529.139,1471.44" style="fill:none;stroke:#000;stroke-width:2.17px;"/>
                    </g>
                </g>
                <g id="Notes">
                    <path id="_11" serif:id="11" d="M411.161,1399.85C406.925,1407.18 397.53,1409.7 390.194,1405.46C382.857,1401.23 380.34,1391.83 384.576,1384.5C388.811,1377.16 398.206,1374.64 405.542,1378.88C412.879,1383.12 415.396,1392.51 411.161,1399.85Z" style="fill:#7f925e;stroke:#fff;stroke-width:5.21px;"/>
                    <path id="_3" serif:id="3" d="M547.907,1479C543.671,1486.34 534.276,1488.85 526.94,1484.62C519.603,1480.38 517.086,1470.99 521.321,1463.65C525.557,1456.31 534.952,1453.8 542.288,1458.03C549.625,1462.27 552.142,1471.66 547.907,1479Z" style="fill:#7f925e;stroke:#fff;stroke-width:5.21px;"/>
                </g>
                <g id="Root-Marker" serif:id="Root Marker">
                    <path id="_111" serif:id="11" d="M410.205,1413.6L425.038,1426.13L413.644,1432.71L410.205,1413.6ZM415.331,1422.48L416.187,1427.23L419.023,1425.6L415.331,1422.48Z" style="fill:#7f925e;"/>
                </g>
                <g id="Treble-Note" serif:id="Treble Note">
                    <g id="_82" serif:id="8">
                        <path id="_8u" serif:id="8u" d="M377.502,1525.39C373.215,1532.81 363.706,1535.36 356.281,1531.08C348.856,1526.79 346.308,1517.28 350.595,1509.86C354.882,1502.43 364.391,1499.88 371.816,1504.17C379.241,1508.46 381.789,1517.96 377.502,1525.39Z" style="fill:#fff;stroke:#fff;stroke-width:6.5px;"/>
                        <circle id="_8a" serif:id="8a" cx="364.049" cy="1517.62" r="12.477" style="fill:#fff;stroke:#7f925e;stroke-width:3.25px;"/>
                    </g>
                </g>
            </g>
            </a>
            <a href="A2D.svg">
            <g id="_51" serif:id="5" sound="Font/1-Low-Ab,Font/1-Mid-Eb,Font/2-High-B" volume="80">
                <g id="Ring--Sounder--Background1" serif:id="Ring, Sounder, Background">
                    <circle id="Sounder1" serif:id="Sounder" cx="1090.08" cy="1640.22" r="92" style="fill:#fff;"/>
                    <g id="Ring1" serif:id="Ring">
                        <path d="M1169.2,1686.54C1143.98,1730.21 1088.06,1745.19 1044.4,1719.98C1000.73,1694.77 985.752,1638.85 1010.96,1595.18C1036.18,1551.52 1092.1,1536.53 1135.76,1561.74C1179.43,1586.95 1194.41,1642.87 1169.2,1686.54Z" style="fill:none;stroke:#000;stroke-width:2.17px;"/>
                        <path d="M1169.2,1686.54L1164.14,1683.62" style="fill:none;stroke:#000;stroke-width:2.17px;"/>
                        <path d="M1016.02,1598.1L1010.96,1595.18" style="fill:none;stroke:#000;stroke-width:2.17px;"/>
                        <path d="M1047.32,1714.93L1044.4,1719.98" style="fill:none;stroke:#000;stroke-width:2.17px;"/>
                        <path d="M1135.76,1561.74L1132.84,1566.8" style="fill:none;stroke:#000;stroke-width:2.17px;"/>
                        <path d="M1135.76,1719.98L1132.84,1714.92" style="fill:none;stroke:#000;stroke-width:2.17px;"/>
                        <path d="M1047.32,1566.8L1044.4,1561.74" style="fill:none;stroke:#000;stroke-width:2.17px;"/>
                        <path d="M1016.02,1683.62L1010.96,1686.54" style="fill:none;stroke:#000;stroke-width:2.17px;"/>
                        <path d="M1169.2,1595.18L1164.14,1598.1" style="fill:none;stroke:#000;stroke-width:2.17px;"/>
                        <path d="M1090.08,1732.22L1090.08,1726.38" style="fill:none;stroke:#000;stroke-width:2.17px;"/>
                        <path d="M1090.08,1555.34L1090.08,1549.5" style="fill:none;stroke:#000;stroke-width:2.17px;"/>
                        <path d="M1004.56,1640.86L998.721,1640.86" style="fill:none;stroke:#000;stroke-width:2.17px;"/>
                        <path d="M1181.44,1640.86L1175.6,1640.86" style="fill:none;stroke:#000;stroke-width:2.17px;"/>
                    </g>
                </g>
                <g id="Notes1" serif:id="Notes">
                    <path id="_83" serif:id="8" d="M1024.55,1694.07C1020.31,1701.41 1010.92,1703.93 1003.58,1699.69C996.244,1695.46 993.727,1686.06 997.962,1678.72C1002.2,1671.39 1011.59,1668.87 1018.93,1673.11C1026.27,1677.34 1028.78,1686.74 1024.55,1694.07Z" style="fill:#82a494;stroke:#fff;stroke-width:5.21px;"/>
                    <path id="_31" serif:id="3" d="M1194.37,1648.42C1190.13,1655.76 1180.74,1658.28 1173.4,1654.04C1166.06,1649.81 1163.55,1640.41 1167.78,1633.08C1172.02,1625.74 1181.41,1623.22 1188.75,1627.46C1196.08,1631.69 1198.6,1641.09 1194.37,1648.42Z" style="fill:#82a494;stroke:#fff;stroke-width:5.21px;"/>
                </g>
                <g id="Root-Marker1" serif:id="Root Marker">
                    <path id="_84" serif:id="8" d="M1032.25,1674.13L1044.79,1659.3L1051.37,1670.69L1032.25,1674.13ZM1041.13,1669L1045.89,1668.15L1044.25,1665.31L1041.13,1669Z" style="fill:#82a494;"/>
                </g>
                <g id="Treble-Note1" serif:id="Treble Note">
                    <g id="_112" serif:id="11">
                        <path id="_113" serif:id="11" d="M1057.43,1568.51C1053.15,1575.93 1043.64,1578.48 1036.21,1574.19C1028.79,1569.91 1026.24,1560.4 1030.53,1552.97C1034.81,1545.55 1044.32,1543 1051.75,1547.29C1059.17,1551.57 1061.72,1561.08 1057.43,1568.51Z" style="fill:#fff;stroke:#fff;stroke-width:6.5px;"/>
                        <circle id="_11a" serif:id="11a" cx="1043.98" cy="1560.74" r="12.477" style="fill:#fff;stroke:#82a494;stroke-width:3.25px;"/>
                    </g>
                </g>
            </g>
            </a>
            <a href="Arefocus.svg">
            <g id="_32" serif:id="3" sound="Font/2-Low-F,Font/2-Mid-Eb,Font/2-Mid-C,Font/2-High-Ab" volume="80">
                <g id="Ring--Sounder--Background2" serif:id="Ring, Sounder, Background">
                    <circle id="Sounder2" serif:id="Sounder" cx="1318.08" cy="1241.35" r="92" style="fill:#fff;stroke:#fff;stroke-width:1px;stroke-linecap:butt;stroke-miterlimit:2;"/>
                    <g id="Ring2" serif:id="Ring">
                        <path d="M1397.2,1287.66C1371.98,1331.33 1316.06,1346.32 1272.4,1321.11C1228.73,1295.9 1213.75,1239.98 1238.96,1196.31C1264.18,1152.64 1320.1,1137.65 1363.76,1162.86C1407.43,1188.07 1422.41,1243.99 1397.2,1287.66Z" style="fill:none;stroke:#000;stroke-width:2.17px;"/>
                        <path d="M1397.2,1287.66L1392.14,1284.74" style="fill:none;stroke:#000;stroke-width:2.17px;"/>
                        <path d="M1244.02,1199.23L1238.96,1196.31" style="fill:none;stroke:#000;stroke-width:2.17px;"/>
                        <path d="M1275.32,1316.05L1272.4,1321.11" style="fill:none;stroke:#000;stroke-width:2.17px;"/>
                        <path d="M1363.76,1162.86L1360.84,1167.92" style="fill:none;stroke:#000;stroke-width:2.17px;"/>
                        <path d="M1363.76,1321.1L1360.84,1316.05" style="fill:none;stroke:#000;stroke-width:2.17px;"/>
                        <path d="M1275.32,1167.92L1272.4,1162.87" style="fill:none;stroke:#000;stroke-width:2.17px;"/>
                        <path d="M1244.02,1284.75L1238.96,1287.67" style="fill:none;stroke:#000;stroke-width:2.17px;"/>
                        <path d="M1397.2,1196.3L1392.14,1199.22" style="fill:none;stroke:#000;stroke-width:2.17px;"/>
                        <path d="M1318.08,1333.35L1318.08,1327.51" style="fill:none;stroke:#000;stroke-width:2.17px;"/>
                        <path d="M1318.08,1156.46L1318.08,1150.62" style="fill:none;stroke:#000;stroke-width:2.17px;"/>
                        <path d="M1232.56,1241.99L1226.72,1241.99" style="fill:none;stroke:#000;stroke-width:2.17px;"/>
                        <path d="M1409.44,1241.99L1403.6,1241.99" style="fill:none;stroke:#000;stroke-width:2.17px;"/>
                    </g>
                </g>
                <g id="Notes2" serif:id="Notes">
                    <path id="_52" serif:id="5" d="M1376.89,1328.34C1372.66,1335.67 1363.26,1338.19 1355.92,1333.95C1348.59,1329.72 1346.07,1320.32 1350.31,1312.99C1354.54,1305.65 1363.94,1303.13 1371.27,1307.37C1378.61,1311.6 1381.13,1321 1376.89,1328.34Z" style="fill:#ec9959;stroke:#fff;stroke-width:5.21px;"/>
                    <path id="_33" serif:id="3" d="M1422.37,1249.55C1418.13,1256.88 1408.74,1259.4 1401.4,1255.17C1394.06,1250.93 1391.55,1241.54 1395.78,1234.2C1400.02,1226.86 1409.41,1224.35 1416.75,1228.58C1424.08,1232.82 1426.6,1242.21 1422.37,1249.55Z" style="fill:#ec9959;stroke:#fff;stroke-width:5.21px;"/>
                    <path id="_01" serif:id="0" d="M1331.37,1158.3C1327.14,1165.63 1317.74,1168.15 1310.4,1163.91C1303.07,1159.68 1300.55,1150.28 1304.79,1142.95C1309.02,1135.61 1318.42,1133.09 1325.75,1137.33C1333.09,1141.57 1335.61,1150.96 1331.37,1158.3Z" style="fill:#ec9959;stroke:#fff;stroke-width:5.21px;"/>
                </g>
                <g id="Root-Marker2" serif:id="Root Marker">
                    <path id="_53" serif:id="5" d="M1351.43,1299.79L1336.6,1287.26L1347.99,1280.68L1351.43,1299.79ZM1346.31,1290.91L1345.45,1286.15L1342.61,1287.79L1346.31,1290.91Z" style="fill:#ec9959;"/>
                </g>
                <g id="Treble-Note2" serif:id="Treble Note">
                    <g id="_85" serif:id="8">
                        <path id="_8u1" serif:id="8u" d="M1251.96,1295.94C1247.67,1303.36 1238.16,1305.91 1230.74,1301.62C1223.32,1297.34 1220.77,1287.83 1225.05,1280.4C1229.34,1272.98 1238.85,1270.43 1246.28,1274.72C1253.7,1279.01 1256.25,1288.51 1251.96,1295.94Z" style="fill:#fff;stroke:#fff;stroke-width:6.5px;"/>
                        <circle id="_8a1" serif:id="8a" cx="1238.51" cy="1288.17" r="12.477" style="fill:#fff;stroke:#ec9959;stroke-width:3.25px;"/>
                    </g>
                </g>
            </g>
            </a>
            <a href="A2Y.svg">
            <g id="_02" serif:id="0" sound="Font/3-Low-Ab,Font/3-Mid-C,Font/3-High-G" volume="80">
                <g id="Ring--Sounder--Background3" serif:id="Ring, Sounder, Background">
                    <circle id="Sounder3" serif:id="Sounder" cx="852.218" cy="774.169" r="92" style="fill:#fff;"/>
                    <g id="Ring3" serif:id="Ring">
                        <path d="M931.334,820.485C906.122,864.153 850.202,879.139 806.537,853.929C762.871,828.719 747.889,772.798 773.102,729.129C798.314,685.46 854.234,670.474 897.899,695.685C941.564,720.895 956.546,776.816 931.334,820.485Z" style="fill:none;stroke:#000;stroke-width:2.17px;"/>
                        <path d="M931.334,820.485L926.276,817.564" style="fill:none;stroke:#000;stroke-width:2.17px;"/>
                        <path d="M778.159,732.049L773.102,729.129" style="fill:none;stroke:#000;stroke-width:2.17px;"/>
                        <path d="M809.457,848.871L806.537,853.929" style="fill:none;stroke:#000;stroke-width:2.17px;"/>
                        <path d="M897.899,695.685L894.979,700.742" style="fill:none;stroke:#000;stroke-width:2.17px;"/>
                        <path d="M897.897,853.926L894.977,848.868" style="fill:none;stroke:#000;stroke-width:2.17px;"/>
                        <path d="M809.459,700.746L806.538,695.688" style="fill:none;stroke:#000;stroke-width:2.17px;"/>
                        <path d="M778.154,817.568L773.096,820.488" style="fill:none;stroke:#000;stroke-width:2.17px;"/>
                        <path d="M931.34,729.126L926.282,732.046" style="fill:none;stroke:#000;stroke-width:2.17px;"/>
                        <path d="M852.218,866.169L852.218,860.329" style="fill:none;stroke:#000;stroke-width:2.17px;"/>
                        <path d="M852.218,689.285L852.218,683.445" style="fill:none;stroke:#000;stroke-width:2.17px;"/>
                        <path d="M766.699,774.807L760.859,774.807" style="fill:none;stroke:#000;stroke-width:2.17px;"/>
                        <path d="M943.576,774.807L937.736,774.807" style="fill:none;stroke:#000;stroke-width:2.17px;"/>
                    </g>
                </g>
                <g id="Notes3" serif:id="Notes">
                    <path id="_86" serif:id="8" d="M786.685,828.018C782.45,835.355 773.055,837.872 765.718,833.636C758.382,829.401 755.864,820.006 760.1,812.669C764.336,805.333 773.731,802.816 781.067,807.051C788.403,811.287 790.921,820.682 786.685,828.018Z" style="fill:#a5b36a;stroke:#fff;stroke-width:5.21px;"/>
                    <path id="_03" serif:id="0" d="M865.51,691.119C861.275,698.455 851.88,700.973 844.543,696.737C837.207,692.502 834.69,683.107 838.925,675.77C843.161,668.434 852.556,665.916 859.892,670.152C867.229,674.388 869.746,683.783 865.51,691.119Z" style="fill:#a5b36a;stroke:#fff;stroke-width:5.21px;"/>
                </g>
                <g id="Root-Marker3" serif:id="Root Marker">
                    <path id="_87" serif:id="8" d="M794.39,808.075L806.925,793.242L813.503,804.636L794.39,808.075ZM803.269,802.949L808.026,802.093L806.388,799.257L803.269,802.949Z" style="fill:#a5b36a;"/>
                </g>
                <g id="Treble-Note3" serif:id="Treble Note">
                    <g id="_7" serif:id="7">
                        <path id="_7u" serif:id="7u" d="M820.472,861.494C816.185,868.919 806.676,871.467 799.251,867.18C791.826,862.893 789.278,853.385 793.565,845.96C797.852,838.535 807.361,835.987 814.786,840.274C822.211,844.56 824.759,854.069 820.472,861.494Z" style="fill:#fff;stroke:#fff;stroke-width:6.5px;"/>
                        <circle id="_7a" serif:id="7a" cx="807.018" cy="853.727" r="12.477" style="fill:#fff;stroke:#a5b36a;stroke-width:3.25px;"/>
                    </g>
                </g>
            </g>
            </a>
        </g>
        <path d="M874.484,672C1070.85,635.795 1288.96,870.881 1314.08,1132.27" style="fill:none;stroke:#d9d9d9;stroke-width:4.17px;"/>
        <path d="M553.484,1469C1200.78,1422.98 1324.79,1542.83 1204.48,1640.22C1340.86,1568 1494.48,1352.56 1426.48,1251" style="fill:none;stroke:#d9d9d9;stroke-width:4.17px;"/>
        <path d="M343.484,1530.1C226.041,1530.76 383.246,1008.04 756.484,829C545.192,931.015 694.021,1308.18 1218.97,1293.17C855.353,1496.06 849.595,1687.84 994.484,1695C650.575,1782.99 298.354,1623.82 343.484,1530.1Z" style="fill:none;stroke:#808080;stroke-width:4.17px;"/>
    </g>
    <g id="Songs">
        <g id="song-11-eyeral" serif:id="song 11 eyeral">
            <g id="A1" serif:id="A" sound="Song/11-Eyeral-A">
                <path d="M850.533,318.18C831.136,318.285 811.724,310.809 797.147,295.819L771.39,269.332C758.023,255.587 751.085,237.954 750.524,220.174L851.192,220.355L850.533,318.18Z" style="fill:#ec9959;stroke:#fff;stroke-width:1.67px;"/>
                <path d="M950.455,220.533C949.957,239.124 942.492,257.544 928.12,271.521L901.633,297.278C887.387,311.132 868.966,318.08 850.533,318.18L851.192,220.355L950.455,220.533Z" style="fill:#ec9959;stroke:#fff;stroke-width:1.67px;"/>
                <path d="M850.533,221.181L850.533,317.181" style="fill:none;stroke:#ec9959;stroke-width:4.17px;stroke-linecap:butt;"/>
                <path id="q2" d="M850.89,301.86L850.89,293.431C865.926,292.381 880.71,287.073 893.398,276.695C910.436,262.373 920.389,242.151 920.704,220.627L933.467,220.627C932.995,232.58 929.94,244.503 924.091,255.438C909.466,283.461 881.177,300.637 850.89,301.86ZM897.224,220.627L912.336,220.627C910.692,242.298 898,262.836 877.658,273.547C869.061,277.701 859.978,280.002 850.89,280.519L850.89,264.132C874.817,262.507 894.143,244.124 897.224,220.627ZM870.53,220.627C868.201,229.973 860.493,237.203 850.89,238.832L850.89,220.627L870.53,220.627Z" style="fill:#e7e7e7;"/>
                <path id="q3" d="M850.89,293.431L850.89,301.86C842.044,302.218 833.027,301.214 824.13,298.722C795.8,289.286 769.826,268.038 763.533,238.121C776.889,273.726 814.625,295.963 850.89,293.431ZM777.664,220.627L797.649,220.627C800.876,245.245 821.934,264.249 847.436,264.249C848.597,264.249 849.749,264.209 850.89,264.132L850.89,280.519C834.174,281.469 817.439,276.378 803.668,265.669C789.509,254.655 781.635,238.916 777.691,220.814C777.682,220.751 777.673,220.689 777.664,220.627ZM850.89,238.832C849.552,239.059 848.176,239.177 846.773,239.177C835.307,239.177 825.671,231.276 823.017,220.627L850.89,220.627L850.89,238.832Z" style="fill:#e7e7e7;"/>
            </g>
            <g id="A2Y" sound="Song/11-Eyeral-A2Y">
                <path d="M851.881,118.829C870.794,119.093 889.606,126.565 903.822,141.184L929.579,167.67C944.033,182.534 950.97,201.942 950.455,221.169L851.192,220.99L851.881,118.829Z" style="fill:#a5b36a;stroke:#fff;stroke-width:1.67px;"/>
                <path d="M750.524,220.809C749.892,200.772 757.358,180.546 772.849,165.482L799.335,139.725C813.954,125.509 832.968,118.565 851.881,118.829L851.192,220.99L750.524,220.809Z" style="fill:#a5b36a;stroke:#fff;stroke-width:1.67px;"/>
                <path d="M852.192,119.822L851.89,220.172" style="fill:none;stroke:#a5b36a;stroke-width:4.17px;stroke-linecap:butt;"/>
                <path id="q4" d="M850.89,135.35L850.89,163.936C849.749,163.859 848.597,163.82 847.436,163.82C819.7,163.82 797.22,186.303 797.22,214.036C797.22,216.27 797.366,218.47 797.649,220.627L777.664,220.627C771.495,178.192 801.377,140.529 843.81,135.807C846.196,135.56 848.557,135.408 850.89,135.35ZM823.017,220.627C822.543,218.727 822.292,216.741 822.292,214.696C822.292,201.184 833.262,190.215 846.773,190.215C848.176,190.215 849.552,190.333 850.89,190.56L850.89,220.627L823.017,220.627Z" style="fill:#e7e7e7;"/>
                <path id="q1" d="M933.467,220.627L920.704,220.627C920.753,217.301 920.572,213.944 920.151,210.573C916.217,187.761 902.843,164.929 880.015,159.427C882.378,163.355 887.101,163.355 889.728,167.292C895.563,172.197 902.24,180.439 906.975,190.215C911.44,200 913.109,210.438 912.336,220.627L897.224,220.627C897.506,218.47 897.652,216.27 897.652,214.036C897.652,187.464 877.013,165.709 850.89,163.936L850.89,135.35C870.877,134.851 888.907,141.231 904.405,153.916C924.12,170.424 934.457,195.592 933.467,220.627ZM850.89,190.56C862.445,192.52 871.254,202.587 871.254,214.696C871.254,216.741 871.003,218.727 870.53,220.627L850.89,220.627L850.89,190.56Z" style="fill:#e7e7e7;"/>
            </g>
        </g>
        <g id="song-7-masks" serif:id="song 7 masks">
            <g id="A2B" sound="Song/07-Masks-A2B">
                <path d="M135.493,1751.01C116.096,1751.11 96.685,1743.63 82.107,1728.64L56.351,1702.16C42.983,1688.41 36.045,1670.78 35.484,1653L136.152,1653.18L135.493,1751.01Z" style="fill:#7f925e;stroke:#fff;stroke-width:1.67px;"/>
                <path d="M235.416,1653.36C234.918,1671.95 227.453,1690.37 213.08,1704.35L186.594,1730.1C172.348,1743.96 153.927,1750.91 135.493,1751.01L136.152,1653.18L235.416,1653.36Z" style="fill:#7f925e;stroke:#fff;stroke-width:1.67px;"/>
                <path d="M135.493,1654.01L135.493,1750.01" style="fill:none;stroke:#7f925e;stroke-width:4.17px;stroke-linecap:butt;"/>
                <path d="M139.665,1737.39C139.772,1735.3 139.89,1732.45 139.812,1728.8C144.011,1728.28 146.965,1724.92 146.497,1721.05C146.086,1717.65 143.695,1714.86 140.829,1714.16C140.865,1713.96 140.901,1713.76 140.936,1713.56C141.401,1710.81 140.725,1709.26 140.284,1705.41C141.492,1705.43 142.702,1705.6 143.93,1705.93C144.659,1706.13 145.465,1706.36 146.364,1706.61C147.179,1706.86 148.003,1707.17 148.839,1707.56C151.099,1708.68 153.405,1709.36 155.877,1710.13C158.381,1710.99 160.861,1711.31 163.546,1711.82C165.349,1712.19 167.07,1711.77 168.632,1711.03C170.19,1710.27 171.581,1709.17 172.416,1707.54C173.708,1705.14 174.983,1702.97 175.879,1700.48L177.237,1696.96C177.679,1695.83 177.943,1694.54 178.27,1693.37C179.266,1689.91 180.596,1686.86 182.639,1684.43C183.567,1683.13 184.765,1682.05 186.086,1681.04C187.306,1679.96 188.754,1679.03 190.432,1678.22C192.592,1677.09 194.624,1675.73 196.845,1674.32C198.841,1672.8 200.886,1671.15 202.936,1669.36C204.166,1668.13 205.031,1666.56 205.464,1664.88C205.983,1663.22 205.649,1661.38 205.043,1659.74C204.588,1658.61 204.177,1657.51 203.693,1656.43C204.096,1656.34 204.524,1656.24 204.978,1656.13C207.803,1655.48 209.876,1656.17 217.948,1656.41L217.37,1657.45C216.561,1658.74 215.651,1659.99 214.799,1661.2C213.607,1662.81 213.036,1664.64 212.477,1666.48C212.003,1668.33 211.961,1670.28 212.367,1672.26C212.782,1675.17 213.1,1678.2 213.328,1681.34C213.332,1684.39 213.38,1687.62 213.128,1690.85C212.874,1693.22 212.292,1695.63 211.433,1697.97C210.474,1700.24 209.133,1702.38 207.634,1704.39C204.459,1708.25 200.295,1711.33 195.621,1712.7C194.064,1713.16 192.614,1713.7 191.033,1714.03L186.404,1714.99C183.43,1715.66 180.28,1715.84 177.349,1716.08C175.424,1716.29 173.479,1716.67 171.757,1717.51C170.029,1718.33 168.525,1719.62 167.161,1721C165.137,1723.12 163.05,1725.51 160.657,1727.4C158.296,1729.38 155.819,1731.51 153.11,1733.18C152.106,1733.84 151.043,1734.44 149.937,1734.99C148.832,1735.54 147.682,1736.03 146.491,1736.31C144.288,1736.9 141.98,1737.26 139.665,1737.39ZM200.941,1699.04C202.295,1697.24 202.849,1695.1 202.593,1693.19C202.316,1691.26 201.136,1689.49 199.429,1688.4C197.685,1687.29 195.761,1687.01 193.934,1687.26C192.076,1687.49 190.417,1688.31 189.332,1689.77C188.267,1691.25 187.666,1692.91 187.855,1694.78C188.013,1696.61 188.795,1698.51 190.253,1699.95C191.711,1701.38 193.608,1702.06 195.565,1701.91C197.477,1701.73 199.609,1700.86 200.941,1699.04Z" style="fill:#e7e7e7;"/>
                <path d="M55.405,1659.81C55.683,1659.62 55.975,1659.42 56.282,1659.23C57.811,1658.26 62.424,1658.06 66.943,1659.34C66.815,1659.66 66.685,1659.99 66.552,1660.32C65.947,1661.97 65.613,1663.81 66.131,1665.47C66.564,1667.14 67.429,1668.72 68.66,1669.95C70.709,1671.74 72.755,1673.39 74.75,1674.9C76.971,1676.32 79.004,1677.67 81.163,1678.8C82.842,1679.61 84.289,1680.54 85.509,1681.62C86.831,1682.63 88.028,1683.72 88.957,1685.01C91,1687.45 92.329,1690.49 93.326,1693.96C93.652,1695.12 93.916,1696.41 94.358,1697.55L95.716,1701.07C96.613,1703.55 97.888,1705.72 99.18,1708.12C100.014,1709.76 101.405,1710.86 102.962,1711.61C104.526,1712.35 106.247,1712.77 108.049,1712.4C110.735,1711.9 113.215,1711.58 115.718,1710.71C118.19,1709.94 120.496,1709.27 122.756,1708.14C123.592,1707.76 124.416,1707.44 125.231,1707.19C126.13,1706.94 126.936,1706.72 127.665,1706.52C129.288,1706.08 130.881,1705.91 132.476,1706.02C132.865,1705.99 133.253,1705.99 133.641,1705.99C134.082,1709.84 134.758,1711.39 134.293,1714.14C134.258,1714.35 134.222,1714.55 134.186,1714.74C133.63,1714.61 133.057,1714.55 132.476,1714.58C128.901,1714.38 125.589,1717.58 125.098,1721.63C124.604,1725.71 127.914,1729.23 132.476,1729.44C132.71,1729.43 132.942,1729.41 133.169,1729.38C133.247,1733.03 133.129,1735.89 133.022,1737.98C132.84,1737.99 132.658,1738 132.476,1738.01C129.979,1737.9 127.48,1737.53 125.104,1736.89C123.913,1736.61 122.763,1736.13 121.658,1735.57C120.551,1735.03 119.49,1734.42 118.486,1733.76C115.776,1732.09 113.299,1729.96 110.938,1727.98C108.546,1726.09 106.458,1723.7 104.434,1721.58C103.07,1720.21 101.566,1718.91 99.838,1718.09C98.116,1717.26 96.171,1716.87 94.247,1716.66C91.316,1716.42 88.166,1716.25 85.191,1715.57L80.562,1714.61C78.982,1714.29 77.531,1713.75 75.973,1713.28C71.3,1711.91 67.137,1708.84 63.961,1704.97C62.462,1702.97 61.121,1700.83 60.162,1698.56C59.303,1696.21 58.722,1693.8 58.468,1691.43C58.215,1688.2 58.264,1684.97 58.267,1681.93C58.495,1678.79 58.813,1675.75 59.229,1672.84C59.635,1670.87 59.592,1668.91 59.118,1667.06C58.56,1665.22 57.989,1663.4 56.795,1661.79C56.341,1661.14 55.869,1660.48 55.405,1659.81ZM81.342,1700.53C82.8,1699.09 83.582,1697.19 83.74,1695.36C83.929,1693.5 83.328,1691.84 82.263,1690.36C81.178,1688.89 79.519,1688.08 77.661,1687.84C75.834,1687.6 73.91,1687.87 72.167,1688.99C70.46,1690.08 69.278,1691.85 69.002,1693.78C68.747,1695.69 69.3,1697.83 70.654,1699.63C71.987,1701.44 74.118,1702.32 76.031,1702.49C77.987,1702.64 79.884,1701.97 81.342,1700.53Z" style="fill:#e7e7e7;"/>
            </g>
            <g id="A2" serif:id="A" sound="Song/07-Masks-A">
                <path d="M136.878,1551.83C155.791,1552.1 174.604,1559.57 188.819,1574.19L214.576,1600.67C229.031,1615.54 235.968,1634.95 235.453,1654.17L136.189,1654L136.878,1551.83Z" style="fill:#ec9959;stroke:#fff;stroke-width:1.67px;"/>
                <path d="M35.521,1653.81C34.889,1633.78 42.356,1613.55 57.847,1598.49L84.333,1572.73C98.951,1558.51 117.965,1551.57 136.878,1551.83L136.189,1654L35.521,1653.81Z" style="fill:#ec9959;stroke:#fff;stroke-width:1.67px;"/>
                <path d="M136.189,1552.83L135.888,1653.18" style="fill:none;stroke:#ec9959;stroke-width:4.17px;stroke-linecap:butt;"/>
                <path d="M130.429,1569.22C131.571,1571.1 132.183,1574.04 131.961,1574.89C131.03,1578.48 131.144,1579.72 130.204,1581.62C126.867,1584.15 123.925,1586.97 121.397,1589.9C121.098,1590.24 120.793,1590.55 120.486,1590.86C120.191,1591.2 119.892,1591.53 119.588,1591.85C118.98,1592.48 118.353,1593.04 117.702,1593.54C117.06,1594.06 116.362,1594.44 115.697,1594.9C115.035,1595.37 114.349,1595.77 113.633,1596.12C112.918,1596.46 112.172,1596.75 111.393,1596.97C110.628,1597.22 109.888,1597.52 109.08,1597.7C107.508,1598.13 105.673,1598.16 103.926,1598.33C101.559,1598.51 98.899,1598.56 96.474,1599.11C93.982,1599.57 91.313,1600.06 88.84,1600.93C87.188,1601.5 85.551,1602.4 84.553,1603.82C83.518,1605.2 82.832,1606.87 82.641,1608.6C82.488,1611.31 82.504,1613.95 82.546,1616.45C82.82,1619.07 83.036,1621.51 83.485,1623.9C83.902,1625.71 84.078,1627.43 83.998,1629.05C84.004,1630.7 83.935,1632.32 83.504,1633.85C83.402,1634.23 83.284,1634.61 83.149,1634.99C83.062,1635.38 82.962,1635.76 82.843,1636.14C82.607,1636.9 82.303,1637.66 81.933,1638.4C81.577,1639.14 81.095,1639.88 80.657,1640.62C80.252,1641.36 79.781,1642.1 79.243,1642.83L77.062,1645.88C76.368,1646.93 75.819,1648.02 75.185,1649.14L73.337,1652.61C73.067,1653.19 72.822,1653.78 72.582,1654.37C67.975,1654.57 62.678,1653.77 58.395,1651.95L57.284,1649.96C56.564,1648.59 55.763,1647.19 55.117,1645.75L53.313,1641.34C52.869,1640.21 52.494,1639.05 52.187,1637.85C51.915,1636.65 51.822,1635.44 51.741,1634.2C51.673,1632.97 51.675,1631.72 51.746,1630.47C51.782,1629.84 51.833,1629.21 51.904,1628.59C52.024,1627.98 52.16,1627.37 52.313,1626.76C52.948,1624.33 53.751,1621.93 54.961,1619.77C56.257,1617.64 57.777,1615.68 59.473,1614C61.851,1611.8 64.4,1609.82 66.784,1607.93C69.4,1606.16 71.938,1604.5 74.499,1603.03C76.291,1602.12 77.786,1600.86 78.933,1599.33C80.044,1597.77 81.104,1596.17 81.603,1594.23C82.339,1591.28 83.473,1588.53 84.662,1585.63C85.782,1582.65 87.371,1580.02 88.923,1577.13C90.058,1574.93 91.75,1573.2 93.545,1571.47C94.464,1570.64 95.405,1569.8 96.448,1569.12C97.505,1568.46 98.606,1567.85 99.735,1567.31C100.866,1566.77 102.024,1566.28 103.199,1565.87C104.377,1565.46 105.631,1565.26 106.853,1565.06C108.083,1564.87 109.313,1564.76 110.53,1564.72C111.138,1564.7 111.743,1564.7 112.343,1564.71C112.955,1564.77 113.565,1564.86 114.166,1564.96C119.938,1565.83 125.388,1567.26 130.429,1569.22ZM66.642,1637.58C68.676,1637.82 70.644,1637.24 72.16,1636.22C72.919,1635.71 73.564,1635.08 74.053,1634.36C74.299,1634 74.495,1633.61 74.666,1633.21C74.873,1632.81 75.037,1632.39 75.152,1631.95C75.611,1630.19 75.21,1628.38 74.229,1626.78C73.31,1625.21 71.874,1623.87 69.922,1623.2C67.999,1622.54 65.903,1622.73 64.189,1623.71C62.542,1624.7 61.22,1626.47 60.665,1628.66C60.526,1629.2 60.443,1629.75 60.411,1630.28C60.414,1630.82 60.487,1631.35 60.595,1631.87C60.816,1632.89 61.222,1633.84 61.779,1634.65C62.892,1636.27 64.609,1637.33 66.642,1637.58ZM99.442,1579.58C98.882,1581.49 99.132,1583.52 100.211,1585.26C101.29,1587 102.957,1588.16 104.682,1588.68C106.384,1589.14 108.266,1589.18 109.912,1588.4C111.55,1587.61 112.681,1586.1 113.382,1584.49C114.048,1582.81 114.178,1580.79 113.488,1578.86C112.798,1576.93 111.372,1575.47 109.525,1574.72C107.66,1573.9 105.485,1574.04 103.457,1575.02C101.421,1575.99 99.963,1577.62 99.442,1579.58Z" style="fill:#e7e7e7;"/>
                <path d="M217.078,1648.68C215.993,1648.93 214.81,1649.1 213.517,1649.15C208.91,1649.35 203.165,1649.39 197.541,1647.42C197.25,1646.9 196.951,1646.39 196.618,1645.88L194.438,1642.83C193.9,1642.1 193.428,1641.36 193.024,1640.62C192.585,1639.88 192.102,1639.14 191.747,1638.4C191.377,1637.66 191.074,1636.9 190.838,1636.14C190.719,1635.76 190.618,1635.38 190.532,1634.99C190.397,1634.61 190.278,1634.23 190.176,1633.85C189.744,1632.32 189.677,1630.7 189.682,1629.05C189.602,1627.43 189.779,1625.71 190.195,1623.9C190.645,1621.51 190.861,1619.07 191.135,1616.45C191.176,1613.95 191.193,1611.31 191.04,1608.6C190.849,1606.87 190.162,1605.2 189.127,1603.82C188.13,1602.4 186.493,1601.5 184.841,1600.93C182.368,1600.06 179.698,1599.57 177.207,1599.11C174.782,1598.56 172.122,1598.51 169.754,1598.33C168.008,1598.16 166.173,1598.13 164.6,1597.7C163.793,1597.52 163.053,1597.22 162.287,1596.97C161.509,1596.75 160.763,1596.46 160.047,1596.12C159.331,1595.77 158.645,1595.37 157.984,1594.9C157.318,1594.44 156.621,1594.06 155.978,1593.54C155.328,1593.04 154.701,1592.48 154.093,1591.85C153.789,1591.53 153.489,1591.2 153.195,1590.86C152.888,1590.55 152.582,1590.24 152.284,1589.9C149.112,1586.23 145.289,1582.73 140.852,1579.74C140.727,1579.66 140.601,1579.58 140.472,1579.5C140.394,1579.06 140.29,1578.57 140.151,1578.03C139.217,1574.42 139.745,1571.94 140.757,1570.22C141.03,1570.13 141.302,1570.02 141.572,1569.9C147.076,1567.58 153.096,1565.93 159.514,1564.96C160.116,1564.86 160.726,1564.77 161.338,1564.72C161.938,1564.7 162.542,1564.7 163.151,1564.72C164.367,1564.76 165.598,1564.87 166.827,1565.06C168.049,1565.26 169.303,1565.46 170.482,1565.87C171.656,1566.28 172.815,1566.76 173.945,1567.31C175.075,1567.85 176.175,1568.46 177.232,1569.12C178.276,1569.8 179.217,1570.64 180.136,1571.47C181.931,1573.2 183.623,1574.93 184.758,1577.13C186.31,1580.02 187.898,1582.65 189.018,1585.63C190.207,1588.52 191.341,1591.28 192.078,1594.23C192.576,1596.17 193.637,1597.77 194.747,1599.33C195.895,1600.86 197.39,1602.12 199.182,1603.03C201.743,1604.5 204.28,1606.16 206.896,1607.93C209.281,1609.82 211.829,1611.8 214.207,1614C215.903,1615.68 217.424,1617.64 218.72,1619.77C219.93,1621.93 220.732,1624.33 221.367,1626.76C221.52,1627.37 221.657,1627.98 221.777,1628.59C221.847,1629.21 221.899,1629.84 221.935,1630.47C222.005,1631.72 222.008,1632.97 221.94,1634.2C221.858,1635.44 221.766,1636.65 221.493,1637.85C221.187,1639.05 220.811,1640.21 220.367,1641.34L218.564,1645.75C218.117,1646.75 217.596,1647.72 217.078,1648.68ZM160.193,1578.86C159.503,1580.79 159.632,1582.81 160.298,1584.48C161,1586.1 162.132,1587.61 163.769,1588.4C165.415,1589.18 167.296,1589.14 168.998,1588.68C170.724,1588.16 172.391,1587 173.469,1585.26C174.549,1583.52 174.799,1581.5 174.238,1579.58C173.718,1577.62 172.26,1575.99 170.224,1575.02C168.196,1574.04 166.021,1573.9 164.155,1574.72C162.309,1575.47 160.882,1576.93 160.193,1578.86ZM213.086,1631.86C213.194,1631.35 213.267,1630.82 213.27,1630.28C213.238,1629.75 213.154,1629.2 213.015,1628.66C212.461,1626.47 211.139,1624.7 209.492,1623.71C207.778,1622.73 205.682,1622.54 203.758,1623.2C201.806,1623.87 200.371,1625.21 199.451,1626.78C198.471,1628.38 198.069,1630.19 198.529,1631.95C198.644,1632.39 198.807,1632.81 199.014,1633.21C199.185,1633.61 199.382,1634 199.628,1634.36C200.116,1635.08 200.762,1635.71 201.52,1636.22C203.037,1637.24 205.005,1637.82 207.038,1637.58C209.071,1637.33 210.789,1636.27 211.902,1634.65C212.459,1633.84 212.865,1632.89 213.086,1631.86Z" style="fill:#e7e7e7;"/>
            </g>
        </g>
        <g id="song-6-tubular" serif:id="song 6 tubular">
            <g id="A2D" sound="Song/06-Tubular-A2D">
                <path d="M1442.98,2160C1461.89,2160.26 1480.7,2167.74 1494.92,2182.36L1520.67,2208.84C1535.13,2223.7 1542.07,2243.11 1541.55,2262.34L1442.29,2262.16L1442.98,2160Z" style="fill:#82a494;stroke:#fff;stroke-width:1.67px;"/>
                <path d="M1541.55,2262.34C1541.05,2280.93 1533.59,2299.35 1519.22,2313.33L1492.73,2339.09C1478.48,2352.94 1460.06,2359.89 1441.63,2359.99L1442.29,2262.16L1541.55,2262.34Z" style="fill:#82a494;stroke:#fff;stroke-width:1.67px;"/>
                <path d="M1443.08,2262.34L1540.68,2262.34" style="fill:none;stroke:#82a494;stroke-width:4.17px;stroke-linecap:butt;"/>
                <path id="q11" serif:id="q1" d="M1527.8,2261.63L1492.4,2261.63C1492.21,2253.49 1490.39,2245.59 1487.19,2238.33C1488.07,2246.31 1487.35,2254.2 1485.25,2261.63L1480.15,2261.63C1481.19,2254.73 1480.86,2247.51 1478.94,2240.35C1476.91,2232.78 1473.32,2226.06 1468.61,2220.42C1473.52,2233.78 1472.77,2248.75 1466.39,2261.63L1465.86,2261.63C1472.89,2245.41 1469.77,2225.85 1456.52,2212.6C1454.62,2210.7 1452.6,2209.01 1450.48,2207.53C1457.69,2217.89 1460.45,2231.24 1456.93,2244.39C1461.05,2229 1455.04,2213.29 1442.99,2204.34L1442.99,2203.7C1443.76,2203.92 1444.52,2204.16 1445.28,2204.42C1444.53,2204.03 1443.76,2203.67 1442.99,2203.33L1442.99,2176.63C1464.68,2176.67 1486.36,2184.97 1502.9,2201.52C1519.5,2218.12 1527.8,2239.87 1527.8,2261.63ZM1442.99,2245.3L1442.99,2242.07C1446.77,2235.12 1448.01,2226.78 1445.83,2218.54C1448.3,2227.87 1447.05,2237.32 1442.99,2245.3ZM1447.91,2261.63L1446.85,2261.63C1451.55,2257.05 1455.11,2251.19 1456.93,2244.39C1455.17,2250.95 1452.04,2256.77 1447.91,2261.63Z" style="fill:#e7e7e7;"/>
                <path id="q21" serif:id="q2" d="M1442.99,2346.63L1442.99,2342.31C1458.3,2340.35 1473.11,2333.49 1484.87,2321.73C1501.27,2305.34 1508.14,2283.03 1505.48,2261.67C1505.48,2261.66 1505.49,2261.64 1505.49,2261.63L1527.8,2261.63C1527.8,2283.38 1519.5,2305.13 1502.9,2321.73C1486.36,2338.28 1464.68,2346.58 1442.99,2346.63ZM1505.48,2261.63C1505.48,2261.64 1505.48,2261.66 1505.48,2261.67C1505.07,2264.88 1504.44,2268.11 1503.58,2271.32C1495.77,2300.48 1471.19,2320.68 1442.99,2324.3L1442.99,2323.33C1465.17,2318.9 1484.06,2302.32 1490.31,2278.98C1491.87,2273.18 1492.54,2267.35 1492.4,2261.63L1505.48,2261.63ZM1442.99,2285.12L1442.99,2284.61C1447.9,2282.45 1452.5,2279.37 1456.52,2275.35C1452.44,2279.42 1447.87,2282.68 1442.99,2285.12ZM1456.59,2275.27C1460.63,2271.22 1463.72,2266.58 1465.86,2261.63L1466.39,2261.63C1463.95,2266.55 1460.68,2271.16 1456.59,2275.27ZM1480.15,2261.63L1485.25,2261.63C1479.63,2281.46 1464.17,2297.97 1442.99,2304.01L1442.99,2304.01C1463.15,2298.2 1477.19,2281.22 1480.15,2261.63ZM1442.99,2266.57L1442.99,2264.91C1444.34,2263.9 1445.63,2262.81 1446.85,2261.63L1447.91,2261.63C1446.4,2263.41 1444.75,2265.06 1442.99,2266.57Z" style="fill:#e7e7e7;"/>
            </g>
            <g id="A3" serif:id="A" sound="Song/06-Tubular-A">
                <path d="M1441.23,2359.99C1421.83,2360.1 1402.42,2352.62 1387.85,2337.63L1362.09,2311.15C1348.72,2297.4 1341.78,2279.77 1341.22,2261.99L1441.89,2262.17L1441.23,2359.99Z" style="fill:#ec9959;stroke:#fff;stroke-width:1.67px;"/>
                <path d="M1341.22,2261.99C1340.59,2241.95 1348.06,2221.72 1363.55,2206.66L1390.03,2180.9C1404.65,2166.69 1423.66,2159.74 1442.58,2160.01L1441.89,2262.17L1341.22,2261.99Z" style="fill:#ec9959;stroke:#fff;stroke-width:1.67px;"/>
                <path d="M1342.18,2262.17L1441.18,2262.35" style="fill:none;stroke:#ec9959;stroke-width:4.17px;stroke-linecap:butt;"/>
                <path id="q41" serif:id="q4" d="M1382.1,2202.13C1382.11,2202.11 1382.13,2202.09 1382.14,2202.08C1382.12,2202.11 1382.09,2202.14 1382.05,2202.17C1381.92,2202.31 1381.79,2202.45 1381.66,2202.59C1382,2202.23 1382.35,2201.87 1382.7,2201.52C1382.37,2201.85 1382.05,2202.18 1381.74,2202.51C1382.29,2201.92 1382.86,2201.35 1383.45,2200.8C1383.23,2201 1383.01,2201.21 1382.79,2201.43C1382.85,2201.37 1382.9,2201.32 1382.96,2201.26C1383.1,2201.12 1383.25,2200.98 1383.39,2200.84C1383.34,2200.89 1383.3,2200.93 1383.25,2200.97C1383.56,2200.67 1383.88,2200.37 1384.19,2200.07C1383.93,2200.32 1383.66,2200.57 1383.4,2200.82C1399.95,2184.64 1421.48,2176.58 1442.99,2176.63L1442.99,2204.34C1442.5,2203.98 1442.01,2203.63 1441.51,2203.29C1439.96,2202.89 1438.39,2202.56 1436.8,2202.31C1436.31,2202.23 1435.82,2202.16 1435.33,2202.09C1433.61,2201.86 1431.86,2201.72 1430.11,2201.67C1429.46,2201.65 1428.81,2201.64 1428.16,2201.64C1428.18,2201.67 1428.21,2201.7 1428.23,2201.72C1426.14,2201.82 1424.06,2202.02 1422,2202.32C1428.11,2208.96 1430.79,2218.49 1428.29,2227.85C1425.34,2238.86 1416.05,2246.48 1405.4,2247.84C1413.45,2248.83 1421.86,2246.24 1428.04,2240.06C1438.61,2229.48 1438.67,2212.38 1428.23,2201.72C1440.56,2214.26 1440.49,2234.4 1428.04,2246.86C1420.88,2254.01 1411.2,2257.07 1401.87,2256.06C1408.33,2258.92 1415.78,2259.67 1423.13,2257.7C1431.96,2255.34 1438.93,2249.51 1442.99,2242.07L1442.99,2245.3C1439.49,2252.16 1433.92,2257.94 1426.85,2261.63L1357.8,2261.63C1357.8,2240.14 1365.9,2218.65 1382.1,2202.13ZM1405.14,2193.78C1406.43,2193.9 1407.73,2194.13 1409.02,2194.48C1407.79,2194.15 1406.57,2193.91 1405.35,2193.76C1405.28,2193.76 1405.21,2193.77 1405.14,2193.78ZM1410.63,2194.96C1410.11,2194.78 1409.58,2194.62 1409.04,2194.48C1409.57,2194.62 1410.1,2194.78 1410.61,2194.96C1410.62,2194.96 1410.62,2194.96 1410.63,2194.96ZM1421.94,2196.93C1423,2197.52 1424.03,2198.18 1425.03,2198.92C1425.32,2199.14 1425.62,2199.37 1425.91,2199.61C1426.64,2200.2 1427.35,2200.84 1428.04,2201.52C1427.36,2200.85 1426.66,2200.21 1425.94,2199.61C1425.66,2199.37 1425.38,2199.14 1425.09,2198.91C1424.18,2198.2 1423.24,2197.54 1422.27,2196.94C1422.16,2196.94 1422.05,2196.93 1421.94,2196.93ZM1406.1,2203.88C1409.69,2202.39 1413.37,2201.21 1417.11,2200.33C1413.34,2201.02 1409.63,2202.2 1406.1,2203.88ZM1383.08,2229.91C1383.08,2229.87 1383.09,2229.83 1383.09,2229.79C1383.08,2229.82 1383.07,2229.85 1383.06,2229.87C1383.07,2229.89 1383.07,2229.9 1383.08,2229.91ZM1421.17,2202.45C1413.92,2203.63 1406.98,2206.1 1400.67,2209.68C1394.36,2213.66 1389.07,2218.89 1385.05,2224.94C1384.41,2226.29 1383.84,2227.67 1383.34,2229.06C1386.34,2233.89 1391.11,2237.64 1397.03,2239.22C1409.38,2242.53 1422.08,2235.2 1425.4,2222.84C1427.37,2215.48 1425.57,2208 1421.17,2202.45Z" style="fill:#e7e7e7;"/>
                <path id="q31" serif:id="q3" d="M1357.8,2261.63L1362.09,2261.63C1362.09,2261.64 1362.09,2261.65 1362.09,2261.66C1359.43,2283.01 1366.3,2305.33 1382.7,2321.73C1366.1,2305.13 1357.8,2283.38 1357.8,2261.63ZM1382.7,2321.73C1399.15,2338.18 1421.56,2345.04 1442.99,2342.31L1442.99,2346.63C1421.17,2346.68 1399.34,2338.38 1382.7,2321.73ZM1362.09,2261.66C1362.09,2261.65 1362.09,2261.64 1362.09,2261.63L1426.85,2261.63C1424.44,2262.88 1421.86,2263.9 1419.13,2264.63C1411.3,2266.72 1403.39,2266.2 1396.33,2263.59C1400.4,2267 1405.27,2269.59 1410.74,2271.06C1422.31,2274.16 1434.06,2271.53 1442.99,2264.91L1442.99,2266.57C1432.24,2275.78 1417.29,2279.7 1402.59,2275.76C1397.49,2274.39 1392.83,2272.19 1388.73,2269.34C1390.21,2271.45 1391.89,2273.46 1393.77,2275.35C1407.08,2288.65 1426.73,2291.74 1442.99,2284.61L1442.99,2285.12C1423.43,2294.92 1399.01,2291.66 1382.7,2275.34C1381.57,2274.22 1380.51,2273.06 1379.51,2271.86C1388.7,2296.96 1415.71,2311.33 1442.02,2304.28C1412.34,2312.24 1381.9,2297.02 1369.92,2269.72C1372.57,2294.15 1389.85,2315.6 1414.99,2322.38C1385.83,2314.52 1365.66,2289.89 1362.09,2261.66ZM1415.13,2322.42C1424.55,2324.93 1434.04,2325.12 1442.99,2323.33L1442.99,2324.3C1433.93,2325.47 1424.5,2324.92 1415.13,2322.42Z" style="fill:#e7e7e7;"/>
            </g>
        </g>
    </g>
    <g id="Map" sound="Map/A" loop="false">
        <g id="Frame">
            <rect x="1471.98" y="41.542" width="190" height="190" style="fill:#fff;"/>
            <rect x="1471.98" y="41.542" width="190" height="190" style="fill:none;stroke:#000;stroke-width:1.17px;stroke-linejoin:bevel;"/>
            <rect x="1523.86" y="93.417" width="86.25" height="86.25" style="fill:none;stroke:#000;stroke-width:1.25px;stroke-linejoin:bevel;"/>
            <path d="M1610.11,93.417L1661.98,41.75" style="fill:none;stroke:#000;stroke-width:1.25px;stroke-linejoin:bevel;"/>
            <path d="M1523.86,93.417L1472.4,41.75" style="fill:none;stroke:#000;stroke-width:1.25px;stroke-linejoin:bevel;"/>
            <path d="M1523.86,179.667L1471.98,231.542" style="fill:none;stroke:#000;stroke-width:1.25px;stroke-linejoin:bevel;"/>
            <path d="M1610.11,179.667L1661.98,231.542" style="fill:none;stroke:#000;stroke-width:1.25px;stroke-linejoin:bevel;"/>
        </g>
        <g id="Dots">
            <circle cx="1471.98" cy="231.5" r="1.5" style="stroke:#000;stroke-width:1.25px;stroke-linejoin:bevel;"/>
            <circle cx="1566.68" cy="231.625" r="1.5" style="stroke:#000;stroke-width:1.25px;stroke-linejoin:bevel;"/>
            <circle cx="1661.98" cy="231.5" r="1.5" style="stroke:#000;stroke-width:1.25px;stroke-linejoin:bevel;"/>
            <circle cx="1634.33" cy="203.667" r="1.5" style="stroke:#000;stroke-width:1.25px;stroke-linejoin:bevel;"/>
            <circle cx="1610.11" cy="179.5" r="1.5" style="stroke:#000;stroke-width:1.25px;stroke-linejoin:bevel;"/>
            <circle cx="1609.68" cy="136.625" r="1.5" style="stroke:#000;stroke-width:1.25px;stroke-linejoin:bevel;"/>
            <circle cx="1609.81" cy="93.375" r="1.5" style="stroke:#000;stroke-width:1.25px;stroke-linejoin:bevel;"/>
            <circle cx="1634.24" cy="69.167" r="1.5" style="stroke:#000;stroke-width:1.25px;stroke-linejoin:bevel;"/>
            <circle cx="1566.68" cy="93.375" r="1.5" style="stroke:#000;stroke-width:1.25px;stroke-linejoin:bevel;"/>
            <circle cx="1523.56" cy="93.5" r="1.5" style="stroke:#000;stroke-width:1.25px;stroke-linejoin:bevel;"/>
            <circle cx="1566.98" cy="41.5" r="1.5" style="stroke:#000;stroke-width:1.25px;stroke-linejoin:bevel;"/>
            <circle cx="1471.98" cy="41.542" r="1.5" style="stroke:#000;stroke-width:1.25px;stroke-linejoin:bevel;"/>
            <circle cx="1499.83" cy="69.5" r="1.5" style="stroke:#000;stroke-width:1.25px;stroke-linejoin:bevel;"/>
            <circle cx="1471.98" cy="136.542" r="1.5" style="stroke:#000;stroke-width:1.25px;stroke-linejoin:bevel;"/>
            <circle cx="1523.86" cy="136.542" r="1.5" style="stroke:#000;stroke-width:1.25px;stroke-linejoin:bevel;"/>
            <circle cx="1566.48" cy="179.667" r="1.5" style="stroke:#000;stroke-width:1.25px;stroke-linejoin:bevel;"/>
            <circle cx="1523.83" cy="179.5" r="1.5" style="stroke:#000;stroke-width:1.25px;stroke-linejoin:bevel;"/>
            <circle cx="1499.63" cy="204" r="1.5" style="stroke:#000;stroke-width:1.25px;stroke-linejoin:bevel;"/>
            <circle cx="1661.98" cy="136.542" r="1.5" style="stroke:#000;stroke-width:1.25px;stroke-linejoin:bevel;"/>
            <circle cx="1661.98" cy="41.65" r="1.5" style="stroke:#000;stroke-width:1.25px;stroke-linejoin:bevel;"/>
        </g>
        <g>
            <path d="M1523.39,136.542L1523.91,93.417L1566.73,92.977" style="fill:none;stroke:#ec9959;stroke-width:5.99px;"/>
        </g>
        <path d="M1494.89,63.465L1523.86,92.977" style="fill:none;stroke:#ec9959;stroke-width:5.83px;"/>
        <g id="_114" serif:id="11">
            <circle cx="1500.48" cy="70.75" r="15.75" style="fill:#fff;stroke:#fff;stroke-width:1.46px;"/>
            <path id="q22" serif:id="q2" d="M1500.9,85.389L1500.9,83.901C1503.55,83.716 1506.16,82.78 1508.4,80.948C1511.41,78.421 1513.16,74.852 1513.22,71.054L1515.47,71.054C1515.39,73.163 1514.85,75.267 1513.82,77.197C1511.24,82.142 1506.25,85.173 1500.9,85.389ZM1509.08,71.054L1511.74,71.054C1511.45,74.878 1509.21,78.502 1505.62,80.392C1504.11,81.126 1502.5,81.532 1500.9,81.623L1500.9,78.731C1505.12,78.444 1508.53,75.2 1509.08,71.054ZM1504.37,71.054C1503.95,72.703 1502.6,73.979 1500.9,74.266L1500.9,71.054L1504.37,71.054Z" style="fill:#733c52;"/>
            <path id="q32" serif:id="q3" d="M1500.9,83.901L1500.9,85.389C1499.34,85.452 1497.75,85.275 1496.18,84.835C1491.18,83.17 1486.6,79.42 1485.48,74.141C1487.84,80.424 1494.5,84.348 1500.9,83.901ZM1487.98,71.054L1491.51,71.054C1492.07,75.398 1495.79,78.752 1500.29,78.752C1500.5,78.752 1500.7,78.745 1500.9,78.731L1500.9,81.623C1497.95,81.79 1495,80.892 1492.57,79.002C1490.07,77.059 1488.68,74.281 1487.98,71.087C1487.98,71.076 1487.98,71.065 1487.98,71.054ZM1500.9,74.266C1500.66,74.306 1500.42,74.327 1500.17,74.327C1498.15,74.327 1496.45,72.933 1495.98,71.054L1500.9,71.054L1500.9,74.266Z" style="fill:#733c52;"/>
            <path id="q42" serif:id="q4" d="M1500.9,56.005L1500.9,61.049C1500.7,61.036 1500.5,61.029 1500.29,61.029C1495.4,61.029 1491.43,64.996 1491.43,69.891C1491.43,70.285 1491.45,70.673 1491.51,71.054L1487.98,71.054C1486.89,63.565 1492.16,56.919 1499.65,56.085C1500.07,56.042 1500.49,56.015 1500.9,56.005ZM1495.98,71.054C1495.9,70.718 1495.85,70.368 1495.85,70.007C1495.85,67.623 1497.79,65.687 1500.17,65.687C1500.42,65.687 1500.66,65.708 1500.9,65.748L1500.9,71.054L1495.98,71.054Z" style="fill:#733c52;"/>
            <path id="q12" serif:id="q1" d="M1515.47,71.054L1513.22,71.054C1513.23,70.467 1513.2,69.874 1513.12,69.279C1512.43,65.254 1510.07,61.225 1506.04,60.254C1506.46,60.947 1507.29,60.947 1507.75,61.642C1508.78,62.507 1509.96,63.962 1510.8,65.687C1511.59,67.414 1511.88,69.256 1511.74,71.054L1509.08,71.054C1509.13,70.673 1509.15,70.285 1509.15,69.891C1509.15,65.201 1505.51,61.362 1500.9,61.049L1500.9,56.005C1504.43,55.917 1507.61,57.043 1510.34,59.281C1513.82,62.194 1515.65,66.636 1515.47,71.054ZM1500.9,65.748C1502.94,66.094 1504.49,67.87 1504.49,70.007C1504.49,70.368 1504.45,70.718 1504.37,71.054L1500.9,71.054L1500.9,65.748Z" style="fill:#733c52;"/>
        </g>
        <g id="_71" serif:id="7">
            <circle cx="1566.73" cy="93.363" r="15.75" style="fill:#fff;stroke:#fff;stroke-width:1.46px;"/>
            <path d="M1567.48,108.892C1567.5,108.524 1567.52,108.021 1567.51,107.378C1568.25,107.287 1568.77,106.694 1568.69,106.013C1568.61,105.414 1568.19,104.922 1567.69,104.799C1567.69,104.765 1567.7,104.73 1567.71,104.693C1567.79,104.209 1567.67,103.935 1567.59,103.257C1567.8,103.261 1568.02,103.292 1568.23,103.35C1568.36,103.385 1568.5,103.425 1568.66,103.469C1568.81,103.513 1568.95,103.569 1569.1,103.636C1569.5,103.835 1569.9,103.953 1570.34,104.089C1570.78,104.242 1571.22,104.298 1571.69,104.386C1572.01,104.452 1572.31,104.378 1572.59,104.247C1572.86,104.115 1573.11,103.921 1573.25,103.632C1573.48,103.21 1573.7,102.828 1573.86,102.39L1574.1,101.77C1574.18,101.57 1574.23,101.342 1574.28,101.137C1574.46,100.527 1574.69,99.99 1575.05,99.562C1575.22,99.334 1575.43,99.142 1575.66,98.964C1575.88,98.774 1576.13,98.61 1576.42,98.467C1576.81,98.268 1577.16,98.03 1577.56,97.78C1577.91,97.514 1578.27,97.223 1578.63,96.907C1578.85,96.691 1579,96.413 1579.07,96.118C1579.16,95.826 1579.11,95.502 1579,95.212C1578.92,95.013 1578.85,94.819 1578.76,94.629C1578.83,94.613 1578.91,94.596 1578.99,94.577C1579.49,94.462 1579.85,94.584 1581.27,94.626L1581.17,94.809C1581.03,95.036 1580.87,95.256 1580.72,95.471C1580.51,95.754 1580.41,96.076 1580.31,96.399C1580.23,96.726 1580.22,97.07 1580.29,97.418C1580.36,97.93 1580.42,98.465 1580.46,99.018C1580.46,99.555 1580.47,100.124 1580.42,100.692C1580.38,101.11 1580.28,101.534 1580.12,101.947C1579.96,102.348 1579.72,102.724 1579.46,103.078C1578.9,103.758 1578.16,104.301 1577.34,104.542C1577.07,104.624 1576.81,104.719 1576.53,104.776L1575.72,104.945C1575.19,105.064 1574.64,105.095 1574.12,105.138C1573.78,105.174 1573.44,105.242 1573.13,105.389C1572.83,105.533 1572.57,105.762 1572.33,106.003C1571.97,106.377 1571.6,106.799 1571.18,107.131C1570.76,107.48 1570.33,107.855 1569.85,108.149C1569.67,108.266 1569.49,108.372 1569.29,108.468C1569.1,108.566 1568.89,108.652 1568.68,108.701C1568.3,108.805 1567.89,108.869 1567.48,108.892ZM1578.28,102.136C1578.52,101.819 1578.61,101.442 1578.57,101.106C1578.52,100.765 1578.31,100.454 1578.01,100.262C1577.7,100.065 1577.36,100.017 1577.04,100.06C1576.72,100.101 1576.42,100.245 1576.23,100.503C1576.04,100.764 1575.94,101.056 1575.97,101.385C1576,101.707 1576.14,102.042 1576.39,102.295C1576.65,102.549 1576.99,102.667 1577.33,102.641C1577.67,102.61 1578.04,102.456 1578.28,102.136Z" style="fill:#733c52;"/>
            <path d="M1552.64,95.225C1552.69,95.191 1552.74,95.157 1552.79,95.122C1553.06,94.951 1553.88,94.916 1554.67,95.141C1554.65,95.199 1554.63,95.257 1554.6,95.315C1554.5,95.605 1554.44,95.929 1554.53,96.221C1554.61,96.516 1554.76,96.794 1554.97,97.011C1555.34,97.326 1555.69,97.617 1556.05,97.883C1556.44,98.133 1556.8,98.371 1557.18,98.57C1557.47,98.713 1557.73,98.877 1557.94,99.067C1558.17,99.245 1558.39,99.437 1558.55,99.665C1558.91,100.093 1559.14,100.63 1559.32,101.24C1559.38,101.445 1559.42,101.673 1559.5,101.873L1559.74,102.493C1559.9,102.931 1560.12,103.313 1560.35,103.735C1560.5,104.024 1560.74,104.218 1561.02,104.35C1561.29,104.481 1561.6,104.555 1561.91,104.489C1562.39,104.401 1562.82,104.345 1563.26,104.192C1563.7,104.056 1564.11,103.938 1564.5,103.739C1564.65,103.672 1564.8,103.616 1564.94,103.572C1565.1,103.528 1565.24,103.489 1565.37,103.453C1565.65,103.376 1565.93,103.347 1566.22,103.365C1566.28,103.361 1566.35,103.359 1566.42,103.36C1566.5,104.038 1566.62,104.312 1566.54,104.796C1566.53,104.833 1566.52,104.868 1566.52,104.902C1566.42,104.878 1566.32,104.868 1566.22,104.874C1565.59,104.838 1565,105.402 1564.92,106.116C1564.83,106.834 1565.41,107.454 1566.22,107.491C1566.26,107.489 1566.3,107.486 1566.34,107.481C1566.35,108.124 1566.33,108.627 1566.31,108.995C1566.28,108.997 1566.25,108.999 1566.22,109C1565.78,108.982 1565.34,108.916 1564.92,108.804C1564.71,108.755 1564.51,108.669 1564.31,108.571C1564.12,108.476 1563.93,108.369 1563.75,108.252C1563.27,107.958 1562.84,107.583 1562.42,107.234C1562,106.902 1561.63,106.48 1561.28,106.106C1561.04,105.865 1560.77,105.636 1560.47,105.492C1560.16,105.345 1559.82,105.277 1559.48,105.241C1558.97,105.198 1558.41,105.167 1557.89,105.048L1557.07,104.879C1556.79,104.822 1556.54,104.727 1556.26,104.645C1555.44,104.404 1554.7,103.861 1554.15,103.181C1553.88,102.827 1553.65,102.451 1553.48,102.05C1553.33,101.638 1553.22,101.213 1553.18,100.795C1553.13,100.227 1553.14,99.658 1553.14,99.121C1553.18,98.568 1553.24,98.033 1553.31,97.521C1553.38,97.173 1553.38,96.829 1553.29,96.502C1553.19,96.179 1553.09,95.857 1552.88,95.574C1552.8,95.459 1552.72,95.343 1552.64,95.225ZM1557.21,102.398C1557.47,102.145 1557.6,101.81 1557.63,101.488C1557.66,101.159 1557.56,100.867 1557.37,100.606C1557.18,100.348 1556.89,100.204 1556.56,100.163C1556.24,100.12 1555.9,100.168 1555.59,100.365C1555.29,100.557 1555.08,100.868 1555.03,101.209C1554.99,101.545 1555.09,101.922 1555.33,102.239C1555.56,102.559 1555.93,102.713 1556.27,102.744C1556.62,102.77 1556.95,102.651 1557.21,102.398Z" style="fill:#733c52;"/>
            <path d="M1565.86,79.266C1566.06,79.597 1566.16,80.115 1566.12,80.266C1565.96,80.898 1565.98,81.117 1565.82,81.451C1565.23,81.897 1564.71,82.394 1564.26,82.91C1564.21,82.969 1564.16,83.024 1564.1,83.078C1564.05,83.139 1564,83.197 1563.94,83.253C1563.84,83.363 1563.73,83.463 1563.61,83.551C1563.5,83.643 1563.38,83.71 1563.26,83.79C1563.14,83.873 1563.02,83.944 1562.9,84.005C1562.77,84.066 1562.64,84.116 1562.5,84.155C1562.37,84.199 1562.24,84.252 1562.09,84.284C1561.82,84.36 1561.49,84.364 1561.19,84.395C1560.77,84.427 1560.3,84.434 1559.87,84.531C1559.43,84.613 1558.96,84.699 1558.53,84.853C1558.24,84.953 1557.95,85.111 1557.77,85.361C1557.59,85.606 1557.47,85.898 1557.44,86.204C1557.41,86.68 1557.41,87.147 1557.42,87.587C1557.47,88.048 1557.51,88.478 1557.59,88.898C1557.66,89.218 1557.69,89.52 1557.68,89.806C1557.68,90.097 1557.66,90.382 1557.59,90.651C1557.57,90.719 1557.55,90.786 1557.53,90.852C1557.51,90.92 1557.49,90.988 1557.47,91.055C1557.43,91.19 1557.38,91.322 1557.31,91.453C1557.25,91.585 1557.16,91.713 1557.09,91.843C1557.02,91.974 1556.93,92.104 1556.84,92.234L1556.45,92.771C1556.33,92.957 1556.24,93.148 1556.12,93.346L1555.8,93.956C1555.75,94.059 1555.71,94.162 1555.66,94.266C1554.85,94.301 1553.92,94.161 1553.16,93.841L1552.97,93.49C1552.84,93.249 1552.7,93.002 1552.59,92.748L1552.27,91.971C1552.19,91.773 1552.13,91.567 1552.07,91.356C1552.02,91.146 1552.01,90.931 1551.99,90.714C1551.98,90.496 1551.98,90.276 1551.99,90.055C1552,89.945 1552.01,89.835 1552.02,89.725C1552.04,89.617 1552.07,89.509 1552.09,89.402C1552.21,88.975 1552.35,88.553 1552.56,88.172C1552.79,87.796 1553.06,87.45 1553.36,87.155C1553.77,86.767 1554.22,86.418 1554.64,86.085C1555.1,85.774 1555.55,85.481 1556,85.223C1556.32,85.061 1556.58,84.84 1556.78,84.57C1556.98,84.296 1557.17,84.015 1557.25,83.672C1557.38,83.152 1557.58,82.667 1557.79,82.157C1557.99,81.633 1558.27,81.17 1558.54,80.66C1558.74,80.273 1559.04,79.968 1559.36,79.663C1559.52,79.517 1559.68,79.369 1559.87,79.248C1560.06,79.132 1560.25,79.026 1560.45,78.93C1560.65,78.834 1560.85,78.749 1561.06,78.675C1561.27,78.604 1561.49,78.569 1561.7,78.533C1561.92,78.5 1562.13,78.48 1562.35,78.473C1562.46,78.47 1562.56,78.469 1562.67,78.473C1562.78,78.483 1562.88,78.498 1562.99,78.516C1564.01,78.67 1564.97,78.92 1565.86,79.266ZM1554.62,91.308C1554.98,91.35 1555.32,91.249 1555.59,91.069C1555.72,90.979 1555.84,90.868 1555.92,90.741C1555.97,90.678 1556,90.61 1556.03,90.538C1556.07,90.469 1556.1,90.395 1556.12,90.317C1556.2,90.007 1556.13,89.688 1555.95,89.406C1555.79,89.13 1555.54,88.893 1555.2,88.776C1554.86,88.66 1554.49,88.692 1554.19,88.865C1553.9,89.04 1553.66,89.352 1553.57,89.737C1553.54,89.833 1553.53,89.928 1553.52,90.023C1553.52,90.118 1553.53,90.212 1553.55,90.302C1553.59,90.482 1553.66,90.649 1553.76,90.792C1553.96,91.078 1554.26,91.265 1554.62,91.308ZM1560.4,81.092C1560.3,81.429 1560.34,81.785 1560.53,82.091C1560.72,82.398 1561.02,82.603 1561.32,82.695C1561.62,82.775 1561.95,82.783 1562.24,82.646C1562.53,82.506 1562.73,82.239 1562.85,81.955C1562.97,81.661 1562.99,81.304 1562.87,80.964C1562.75,80.624 1562.5,80.368 1562.17,80.235C1561.84,80.09 1561.46,80.115 1561.1,80.289C1560.75,80.459 1560.49,80.745 1560.4,81.092Z" style="fill:#733c52;"/>
            <path d="M1581.12,93.265C1580.93,93.309 1580.72,93.337 1580.49,93.347C1579.68,93.382 1578.67,93.39 1577.68,93.042C1577.63,92.95 1577.57,92.86 1577.52,92.771L1577.13,92.234C1577.04,92.104 1576.95,91.974 1576.88,91.843C1576.81,91.713 1576.72,91.585 1576.66,91.453C1576.59,91.322 1576.54,91.19 1576.5,91.055C1576.48,90.988 1576.46,90.921 1576.44,90.852C1576.42,90.786 1576.4,90.719 1576.38,90.651C1576.3,90.382 1576.29,90.097 1576.29,89.806C1576.28,89.52 1576.31,89.218 1576.38,88.899C1576.46,88.478 1576.5,88.048 1576.55,87.587C1576.56,87.147 1576.56,86.68 1576.53,86.204C1576.5,85.898 1576.38,85.606 1576.19,85.361C1576.02,85.111 1575.73,84.953 1575.44,84.853C1575.01,84.699 1574.53,84.613 1574.1,84.531C1573.67,84.434 1573.2,84.427 1572.78,84.395C1572.48,84.364 1572.15,84.36 1571.88,84.284C1571.73,84.252 1571.6,84.199 1571.47,84.155C1571.33,84.116 1571.2,84.066 1571.07,84.005C1570.95,83.944 1570.83,83.873 1570.71,83.79C1570.59,83.71 1570.47,83.643 1570.36,83.551C1570.24,83.463 1570.13,83.363 1570.02,83.253C1569.97,83.197 1569.92,83.139 1569.87,83.078C1569.81,83.024 1569.76,82.969 1569.7,82.91C1569.15,82.263 1568.47,81.646 1567.69,81.12C1567.67,81.105 1567.65,81.091 1567.62,81.078C1567.61,80.999 1567.59,80.913 1567.57,80.818C1567.4,80.182 1567.5,79.746 1567.67,79.443C1567.72,79.426 1567.77,79.407 1567.82,79.386C1568.79,78.978 1569.85,78.687 1570.98,78.516C1571.09,78.498 1571.19,78.483 1571.3,78.473C1571.41,78.469 1571.51,78.47 1571.62,78.473C1571.83,78.48 1572.05,78.5 1572.27,78.533C1572.48,78.569 1572.7,78.604 1572.91,78.675C1573.12,78.749 1573.32,78.834 1573.52,78.93C1573.72,79.026 1573.91,79.132 1574.1,79.248C1574.28,79.369 1574.45,79.517 1574.61,79.663C1574.93,79.968 1575.23,80.273 1575.43,80.66C1575.7,81.17 1575.98,81.633 1576.18,82.157C1576.39,82.667 1576.59,83.152 1576.72,83.672C1576.8,84.015 1576.99,84.296 1577.18,84.57C1577.39,84.84 1577.65,85.061 1577.97,85.223C1578.42,85.481 1578.87,85.774 1579.33,86.085C1579.75,86.418 1580.19,86.767 1580.61,87.155C1580.91,87.45 1581.18,87.796 1581.41,88.172C1581.62,88.553 1581.76,88.975 1581.88,89.402C1581.9,89.509 1581.93,89.617 1581.95,89.725C1581.96,89.835 1581.97,89.945 1581.98,90.055C1581.99,90.276 1581.99,90.496 1581.98,90.714C1581.96,90.932 1581.94,91.146 1581.9,91.356C1581.84,91.567 1581.78,91.773 1581.7,91.971L1581.38,92.749C1581.3,92.924 1581.21,93.096 1581.12,93.265ZM1571.1,80.964C1570.98,81.304 1571,81.661 1571.12,81.955C1571.24,82.239 1571.44,82.506 1571.73,82.646C1572.02,82.783 1572.35,82.776 1572.65,82.695C1572.95,82.603 1573.25,82.398 1573.44,82.091C1573.63,81.785 1573.67,81.429 1573.57,81.092C1573.48,80.745 1573.22,80.459 1572.87,80.289C1572.51,80.116 1572.12,80.09 1571.8,80.235C1571.47,80.368 1571.22,80.624 1571.1,80.964ZM1580.42,90.302C1580.43,90.212 1580.45,90.118 1580.45,90.023C1580.44,89.929 1580.43,89.833 1580.4,89.737C1580.31,89.352 1580.07,89.04 1579.78,88.865C1579.48,88.693 1579.11,88.66 1578.77,88.776C1578.43,88.893 1578.18,89.13 1578.01,89.406C1577.84,89.688 1577.77,90.007 1577.85,90.317C1577.87,90.395 1577.9,90.469 1577.94,90.538C1577.97,90.61 1578,90.678 1578.05,90.741C1578.13,90.868 1578.25,90.979 1578.38,91.069C1578.65,91.249 1578.99,91.35 1579.35,91.308C1579.71,91.265 1580.01,91.079 1580.21,90.792C1580.31,90.649 1580.38,90.483 1580.42,90.302Z" style="fill:#733c52;"/>
        </g>
        <g id="_6" serif:id="6">
            <circle cx="1523.23" cy="136.5" r="15.75" style="fill:#fff;stroke:#fff;stroke-width:1.46px;"/>
            <path id="q13" serif:id="q1" d="M1538.36,136.542L1532.11,136.542C1532.08,135.106 1531.76,133.712 1531.19,132.431C1531.35,133.839 1531.22,135.232 1530.85,136.542L1529.95,136.542C1530.13,135.325 1530.08,134.051 1529.74,132.787C1529.38,131.452 1528.75,130.265 1527.91,129.27C1528.78,131.628 1528.65,134.269 1527.52,136.542L1527.43,136.542C1528.67,133.68 1528.12,130.229 1525.78,127.89C1525.45,127.555 1525.09,127.257 1524.71,126.996C1525.99,128.824 1526.48,131.18 1525.85,133.5C1526.58,130.785 1525.52,128.012 1523.39,126.432L1523.39,126.319C1523.53,126.358 1523.66,126.401 1523.8,126.446C1523.66,126.378 1523.53,126.314 1523.39,126.255L1523.39,121.542C1527.22,121.55 1531.05,123.015 1533.97,125.935C1536.89,128.864 1538.36,132.703 1538.36,136.542ZM1523.39,133.66L1523.39,133.09C1524.06,131.865 1524.28,130.392 1523.89,128.938C1524.33,130.585 1524.11,132.252 1523.39,133.66ZM1524.26,136.542L1524.07,136.542C1524.9,135.734 1525.53,134.7 1525.85,133.5C1525.54,134.658 1524.99,135.686 1524.26,136.542Z" style="fill:#733c52;"/>
            <path id="q23" serif:id="q2" d="M1523.39,151.542L1523.39,150.78C1526.1,150.435 1528.71,149.224 1530.79,147.148C1533.68,144.255 1534.89,140.318 1534.42,136.55C1534.42,136.547 1534.42,136.545 1534.42,136.542L1538.36,136.542C1538.36,140.381 1536.89,144.22 1533.97,147.148C1531.05,150.069 1527.22,151.534 1523.39,151.542ZM1534.42,136.542C1534.42,136.545 1534.42,136.547 1534.42,136.55C1534.35,137.117 1534.24,137.685 1534.09,138.252C1532.71,143.399 1528.37,146.962 1523.39,147.602L1523.39,147.431C1527.31,146.649 1530.64,143.723 1531.74,139.604C1532.02,138.58 1532.14,137.551 1532.11,136.542L1534.42,136.542ZM1523.39,140.688L1523.39,140.598C1524.26,140.217 1525.07,139.673 1525.78,138.963C1525.06,139.682 1524.25,140.257 1523.39,140.688ZM1525.79,138.949C1526.51,138.234 1527.05,137.415 1527.43,136.542L1527.52,136.542C1527.09,137.41 1526.52,138.225 1525.79,138.949ZM1529.95,136.542L1530.85,136.542C1529.86,140.042 1527.13,142.956 1523.39,144.022L1523.39,144.022C1526.95,142.996 1529.43,139.999 1529.95,136.542ZM1523.39,137.414L1523.39,137.121C1523.63,136.944 1523.86,136.75 1524.07,136.542L1524.26,136.542C1523.99,136.856 1523.7,137.148 1523.39,137.414Z" style="fill:#733c52;"/>
            <path id="q43" serif:id="q4" d="M1512.65,126.042C1512.65,126.039 1512.65,126.036 1512.66,126.033C1512.65,126.039 1512.64,126.044 1512.64,126.05C1512.62,126.074 1512.59,126.098 1512.57,126.123C1512.63,126.06 1512.69,125.997 1512.75,125.935C1512.7,125.993 1512.64,126.051 1512.59,126.11C1512.68,126.006 1512.78,125.905 1512.88,125.807C1512.85,125.843 1512.81,125.88 1512.77,125.918C1512.78,125.908 1512.79,125.899 1512.8,125.889C1512.83,125.864 1512.85,125.839 1512.88,125.815C1512.87,125.823 1512.86,125.83 1512.85,125.838C1512.91,125.785 1512.96,125.732 1513.02,125.679C1512.97,125.723 1512.92,125.767 1512.88,125.812C1515.8,122.957 1519.6,121.533 1523.39,121.542L1523.39,126.432C1523.31,126.368 1523.22,126.307 1523.13,126.247C1522.86,126.177 1522.58,126.119 1522.3,126.074C1522.21,126.06 1522.13,126.047 1522.04,126.036C1521.74,125.995 1521.43,125.97 1521.12,125.961C1521.01,125.957 1520.89,125.956 1520.78,125.957C1520.78,125.961 1520.79,125.966 1520.79,125.971C1520.42,125.987 1520.05,126.023 1519.69,126.076C1520.77,127.248 1521.24,128.929 1520.8,130.581C1520.28,132.524 1518.64,133.868 1516.76,134.108C1518.18,134.283 1519.66,133.826 1520.75,132.736C1522.62,130.869 1522.63,127.851 1520.79,125.971C1522.96,128.183 1522.95,131.738 1520.75,133.936C1519.49,135.197 1517.78,135.738 1516.14,135.559C1517.28,136.064 1518.59,136.197 1519.89,135.849C1521.45,135.432 1522.68,134.403 1523.39,133.09L1523.39,133.66C1522.78,134.871 1521.79,135.891 1520.55,136.542L1508.36,136.542C1508.36,132.75 1509.79,128.957 1512.65,126.042ZM1516.71,124.569C1516.94,124.59 1517.17,124.631 1517.4,124.692C1517.18,124.634 1516.97,124.592 1516.75,124.565C1516.74,124.566 1516.73,124.568 1516.71,124.569ZM1517.68,124.777C1517.59,124.746 1517.5,124.718 1517.4,124.692C1517.5,124.718 1517.59,124.746 1517.68,124.777C1517.68,124.777 1517.68,124.777 1517.68,124.777ZM1519.68,125.125C1519.87,125.228 1520.05,125.345 1520.22,125.476C1520.28,125.515 1520.33,125.555 1520.38,125.597C1520.51,125.702 1520.63,125.815 1520.75,125.935C1520.63,125.816 1520.51,125.703 1520.38,125.597C1520.34,125.555 1520.29,125.514 1520.23,125.474C1520.07,125.349 1519.91,125.233 1519.74,125.127C1519.72,125.126 1519.7,125.125 1519.68,125.125ZM1516.88,126.351C1517.52,126.089 1518.17,125.88 1518.83,125.725C1518.16,125.847 1517.51,126.056 1516.88,126.351ZM1512.82,130.945C1512.82,130.938 1512.82,130.931 1512.82,130.924C1512.82,130.929 1512.82,130.934 1512.82,130.938C1512.82,130.94 1512.82,130.943 1512.82,130.945ZM1519.54,126.099C1518.26,126.307 1517.04,126.744 1515.92,127.376C1514.81,128.076 1513.88,129 1513.17,130.068C1513.06,130.306 1512.95,130.549 1512.87,130.795C1513.4,131.648 1514.24,132.308 1515.28,132.589C1517.46,133.173 1519.7,131.879 1520.29,129.698C1520.64,128.399 1520.32,127.078 1519.54,126.099Z" style="fill:#733c52;"/>
            <path id="q33" serif:id="q3" d="M1508.36,136.542L1509.12,136.542C1509.12,136.544 1509.12,136.545 1509.12,136.547C1508.65,140.316 1509.86,144.255 1512.75,147.148C1509.82,144.219 1508.36,140.381 1508.36,136.542ZM1512.75,147.148C1515.66,150.052 1519.61,151.262 1523.39,150.78L1523.39,151.542C1519.54,151.55 1515.69,150.086 1512.75,147.148ZM1509.12,136.547C1509.12,136.545 1509.12,136.544 1509.12,136.542L1520.55,136.542C1520.12,136.764 1519.66,136.942 1519.18,137.072C1517.8,137.442 1516.4,137.349 1515.16,136.888C1515.88,137.49 1516.74,137.948 1517.7,138.206C1519.74,138.753 1521.82,138.289 1523.39,137.121L1523.39,137.414C1521.5,139.039 1518.86,139.731 1516.26,139.036C1515.36,138.795 1514.54,138.406 1513.82,137.903C1514.08,138.276 1514.38,138.631 1514.71,138.963C1517.06,141.311 1520.52,141.856 1523.39,140.598L1523.39,140.688C1519.94,142.417 1515.63,141.842 1512.75,138.962C1512.56,138.764 1512.37,138.559 1512.19,138.348C1513.81,142.776 1518.58,145.313 1523.22,144.068C1517.98,145.473 1512.61,142.787 1510.5,137.969C1510.97,142.281 1514.02,146.067 1518.45,147.263C1513.31,145.876 1509.75,141.529 1509.12,136.547ZM1518.48,147.27C1520.14,147.714 1521.81,147.747 1523.39,147.431L1523.39,147.602C1521.79,147.808 1520.13,147.712 1518.48,147.27Z" style="fill:#733c52;"/>
        </g>
    </g>
    <g id="S-melisma" serif:id="S melisma" sound="Scale/A" loop="false">
        <path id="Sounder4" serif:id="Sounder" d="M929.729,2302.55C904.476,2346.29 848.465,2361.3 804.729,2336.05C760.993,2310.8 745.987,2254.79 771.24,2211.05C796.493,2167.31 852.504,2152.3 896.24,2177.55C939.976,2202.8 954.982,2258.81 929.729,2302.55Z" style="fill:#fff;"/>
        <g id="Ring4" serif:id="Ring" opacity="0.5">
            <path d="M929.729,2302.55C904.476,2346.29 848.465,2361.3 804.729,2336.05C760.993,2310.8 745.987,2254.79 771.24,2211.05C796.493,2167.31 852.504,2152.3 896.24,2177.55C939.976,2202.8 954.982,2258.81 929.729,2302.55Z" style="fill:none;stroke:#000;stroke-width:1.93px;"/>
            <path d="M929.729,2302.55L924.663,2299.63" style="fill:none;stroke:#000;stroke-width:1.93px;"/>
            <path d="M776.306,2213.97L771.24,2211.05" style="fill:none;stroke:#000;stroke-width:1.93px;"/>
            <path d="M807.654,2330.98L804.729,2336.05" style="fill:none;stroke:#000;stroke-width:1.93px;"/>
            <path d="M896.24,2177.55L893.315,2182.62" style="fill:none;stroke:#000;stroke-width:1.93px;"/>
            <path d="M896.238,2336.05L893.313,2330.98" style="fill:none;stroke:#000;stroke-width:1.93px;"/>
            <path d="M807.656,2182.62L804.731,2177.55" style="fill:none;stroke:#000;stroke-width:1.93px;"/>
            <path d="M776.3,2299.63L771.234,2302.55" style="fill:none;stroke:#000;stroke-width:1.93px;"/>
            <path d="M929.735,2211.05L924.669,2213.97" style="fill:none;stroke:#000;stroke-width:1.93px;"/>
            <path d="M850.484,2348.31L850.484,2342.46" style="fill:none;stroke:#000;stroke-width:1.93px;"/>
            <path d="M850.484,2171.14L850.484,2165.29" style="fill:none;stroke:#000;stroke-width:1.93px;"/>
            <path d="M764.827,2256.8L758.978,2256.8" style="fill:none;stroke:#000;stroke-width:1.93px;"/>
            <path d="M941.991,2256.8L936.142,2256.8" style="fill:none;stroke:#000;stroke-width:1.93px;"/>
        </g>
        <g id="Root-Markers" serif:id="Root Markers">
        </g>
        <g id="Notes4" serif:id="Notes">
            <path id="_115" serif:id="11" d="M817.972,2186.1C813.729,2193.44 804.319,2195.97 796.971,2191.72C789.622,2187.48 787.101,2178.07 791.343,2170.72C795.586,2163.37 804.996,2160.85 812.344,2165.1C819.693,2169.34 822.214,2178.75 817.972,2186.1Z" style="fill:#ec9959;stroke:#fff;stroke-width:4.63px;"/>
            <path id="_88" serif:id="8" d="M784.846,2311.1C780.603,2318.45 771.193,2320.97 763.844,2316.72C756.496,2312.48 753.975,2303.07 758.217,2295.72C762.46,2288.38 771.87,2285.85 779.218,2290.1C786.567,2294.34 789.088,2303.75 784.846,2311.1Z" style="fill:#ec9959;stroke:#fff;stroke-width:4.63px;"/>
            <path id="_72" serif:id="7" d="M818.862,2343.49C814.62,2350.84 805.21,2353.36 797.861,2349.12C790.513,2344.88 787.992,2335.47 792.234,2328.12C796.477,2320.77 805.887,2318.25 813.235,2322.49C820.584,2326.73 823.105,2336.14 818.862,2343.49Z" style="fill:#ec9959;stroke:#fff;stroke-width:4.63px;"/>
            <path id="_54" serif:id="5" d="M909.392,2344.29C905.149,2351.64 895.739,2354.16 888.391,2349.92C881.042,2345.67 878.521,2336.26 882.764,2328.92C887.006,2321.57 896.416,2319.05 903.765,2323.29C911.113,2327.53 913.634,2336.94 909.392,2344.29Z" style="fill:#ec9959;stroke:#fff;stroke-width:4.63px;"/>
            <path id="_34" serif:id="3" d="M954.939,2265.38C950.697,2272.72 941.287,2275.24 933.938,2271C926.59,2266.76 924.069,2257.35 928.311,2250C932.554,2242.65 941.964,2240.13 949.312,2244.38C956.66,2248.62 959.182,2258.03 954.939,2265.38Z" style="fill:#ec9959;stroke:#fff;stroke-width:4.63px;"/>
            <path id="_04" serif:id="0" d="M863.799,2173.98C859.556,2181.33 850.146,2183.85 842.798,2179.61C835.449,2175.36 832.928,2165.95 837.17,2158.61C841.413,2151.26 850.823,2148.74 858.171,2152.98C865.52,2157.22 868.041,2166.63 863.799,2173.98Z" style="fill:#ec9959;stroke:#fff;stroke-width:4.63px;"/>
        </g>
        <g id="Treble-Marker" serif:id="Treble Marker">
        </g>
    </g>
</svg>
