<?xml version="1.0" encoding="UTF-8" standalone="no"?>
<!DOCTYPE svg PUBLIC "-//W3C//DTD SVG 1.1//EN" "http://www.w3.org/Graphics/SVG/1.1/DTD/svg11.dtd">
<svg width="100%" height="100%" viewBox="0 0 1700 2480" version="1.1" xmlns="http://www.w3.org/2000/svg" xmlns:xlink="http://www.w3.org/1999/xlink" xml:space="preserve" xmlns:serif="http://www.serif.com/" style="fill-rule:evenodd;clip-rule:evenodd;stroke-linecap:round;stroke-linejoin:round;stroke-miterlimit:1.5;">
    <rect id="A2B" x="0" y="0" width="1700" height="2480" style="fill:none;"/>
    <g id="Fields" sound="Field/07-Masks" opacity="0.2">
        <path id="_8" serif:id="8" d="M373.045,1368L10.541,1462.53L11,2065L497.539,1586.1C441.322,1529.45 398.828,1458.8 373.045,1368Z" style="fill:#9a945d;stroke:#767676;stroke-width:8.33px;"/>
    </g>
    <a href="A2B2.svg">
    <g id="S">
        <g id="Ring">
            <path id="Backer" d="M1261.43,1477C1130.55,1703.7 840.239,1781.5 613.55,1650.62C386.862,1519.75 309.085,1229.44 439.973,1002.74C570.862,776.037 861.169,698.239 1087.86,829.115C1314.55,959.991 1392.32,1250.3 1261.43,1477Z" style="fill:#fff;"/>
            <path d="M1261.43,1477C1130.55,1703.7 840.239,1781.5 613.55,1650.62C386.862,1519.75 309.085,1229.44 439.973,1002.74C570.862,776.037 861.169,698.239 1087.86,829.115C1314.55,959.991 1392.32,1250.3 1261.43,1477Z" style="fill:none;stroke:#000;stroke-width:8.33px;"/>
            <path d="M1261.43,1477L1235.18,1461.84" style="fill:none;stroke:#000;stroke-width:8.33px;"/>
            <path d="M466.231,1017.9L439.973,1002.74" style="fill:none;stroke:#000;stroke-width:8.33px;"/>
            <path d="M628.71,1624.37L613.55,1650.62" style="fill:none;stroke:#000;stroke-width:8.33px;"/>
            <path d="M1087.86,829.115L1072.7,855.372" style="fill:none;stroke:#000;stroke-width:8.33px;"/>
            <path d="M1087.85,1650.6L1072.69,1624.35" style="fill:none;stroke:#000;stroke-width:8.33px;"/>
            <path d="M628.72,855.389L613.56,829.132" style="fill:none;stroke:#000;stroke-width:8.33px;"/>
            <path d="M466.201,1461.86L439.944,1477.02" style="fill:none;stroke:#000;stroke-width:8.33px;"/>
            <path d="M1261.46,1002.72L1235.21,1017.88" style="fill:none;stroke:#000;stroke-width:8.33px;"/>
            <path d="M850.704,1714.16L850.704,1683.85" style="fill:none;stroke:#000;stroke-width:8.33px;"/>
            <path d="M850.704,795.892L850.704,765.573" style="fill:none;stroke:#000;stroke-width:8.33px;"/>
            <path d="M406.736,1239.87L376.417,1239.87" style="fill:none;stroke:#000;stroke-width:8.33px;"/>
            <path d="M1324.99,1239.87L1294.67,1239.87" style="fill:none;stroke:#000;stroke-width:8.33px;"/>
        </g>
        <g id="Root-Markers" serif:id="Root Markers">
            <path id="_11" serif:id="11" d="M666.957,920.407L748.809,989.581L685.936,1025.88L666.957,920.407ZM695.244,969.402L699.968,995.652L715.615,986.618L695.244,969.402Z" style="fill:#7f925e;"/>
        </g>
        <g id="Notes">
            <path id="_111" sound="Font/2-Low-B" serif:id="11" d="M682.187,873.402C660.198,911.488 611.424,924.556 573.337,902.568C535.251,880.579 522.182,831.806 544.171,793.72C566.16,755.634 614.934,742.566 653.021,764.554C691.107,786.543 704.176,835.316 682.187,873.402Z" style="fill:#7f925e;stroke:#fff;stroke-width:24px;"/>
            <path id="_3" sound="Font/2-Mid-Eb" serif:id="3" d="M1392.1,1284.32C1370.11,1322.4 1321.34,1335.47 1283.25,1313.48C1245.16,1291.49 1232.1,1242.72 1254.09,1204.63C1276.08,1166.55 1324.85,1153.48 1362.93,1175.47C1401.02,1197.46 1414.09,1246.23 1392.1,1284.32Z" style="fill:#7f925e;stroke:#fff;stroke-width:24px;"/>
        </g>
        <g id="Treble-Marker" serif:id="Treble Marker">
            <g id="_81" sound="Font/2-High-Ab" serif:id="8">
                <path id="_8u" serif:id="8u" d="M510.492,1521.29C488.503,1559.38 439.729,1572.45 401.643,1550.46C363.556,1528.47 350.487,1479.7 372.476,1441.61C394.466,1403.53 443.24,1390.46 481.326,1412.44C519.413,1434.43 532.482,1483.21 510.492,1521.29Z" style="fill:#fff;stroke:#fff;stroke-width:33.33px;"/>
                <circle id="_8a" serif:id="8a" cx="441.484" cy="1481.45" r="64" style="fill:#fff;stroke:#7f925e;stroke-width:16.67px;"/>
            </g>
        </g>
    </g>
   </a>
    <g id="Songs">
        <g id="song-7-masks" serif:id="song 7 masks">
            <g id="A2B1" serif:id="A2B" sound="Song/07-Masks-A2B">
                <path d="M135.009,1751.01C115.612,1751.11 96.2,1743.63 81.623,1728.64L55.866,1702.16C42.499,1688.41 35.561,1670.78 35,1653L135.668,1653.18L135.009,1751.01Z" style="fill:#7f925e;stroke:#fff;stroke-width:1.67px;"/>
                <path d="M234.931,1653.36C234.433,1671.95 226.968,1690.37 212.596,1704.35L186.109,1730.1C171.863,1743.96 153.442,1750.91 135.009,1751.01L135.668,1653.18L234.931,1653.36Z" style="fill:#7f925e;stroke:#fff;stroke-width:1.67px;"/>
                <path d="M135.009,1654.01L135.009,1750.01" style="fill:none;stroke:#7f925e;stroke-width:4.17px;stroke-linecap:butt;"/>
                <path d="M139.18,1737.39C139.288,1735.3 139.405,1732.45 139.328,1728.8C143.526,1728.28 146.481,1724.92 146.013,1721.05C145.601,1717.65 143.211,1714.86 140.344,1714.16C140.38,1713.96 140.416,1713.76 140.452,1713.56C140.917,1710.81 140.241,1709.26 139.8,1705.41C141.007,1705.43 142.218,1705.6 143.445,1705.93C144.175,1706.13 144.98,1706.36 145.88,1706.61C146.695,1706.86 147.518,1707.17 148.354,1707.56C150.615,1708.68 152.92,1709.36 155.393,1710.13C157.896,1710.99 160.376,1711.31 163.062,1711.82C164.864,1712.19 166.585,1711.77 168.148,1711.03C169.705,1710.27 171.097,1709.17 171.931,1707.54C173.223,1705.14 174.498,1702.97 175.394,1700.48L176.753,1696.96C177.194,1695.83 177.459,1694.54 177.785,1693.37C178.782,1689.91 180.111,1686.86 182.154,1684.43C183.083,1683.13 184.28,1682.05 185.602,1681.04C186.821,1679.96 188.269,1679.03 189.948,1678.22C192.107,1677.09 194.14,1675.73 196.36,1674.32C198.356,1672.8 200.402,1671.15 202.451,1669.36C203.682,1668.13 204.547,1666.56 204.98,1664.88C205.498,1663.22 205.164,1661.38 204.559,1659.74C204.104,1658.61 203.692,1657.51 203.209,1656.43C203.611,1656.34 204.039,1656.24 204.494,1656.13C207.319,1655.48 209.391,1656.17 217.463,1656.41L216.885,1657.45C216.076,1658.74 215.166,1659.99 214.315,1661.2C213.122,1662.81 212.551,1664.64 211.993,1666.48C211.518,1668.33 211.476,1670.28 211.882,1672.26C212.298,1675.17 212.615,1678.2 212.844,1681.34C212.847,1684.39 212.895,1687.62 212.643,1690.85C212.389,1693.22 211.807,1695.63 210.949,1697.97C209.99,1700.24 208.649,1702.38 207.15,1704.39C203.974,1708.25 199.811,1711.33 195.137,1712.7C193.58,1713.16 192.129,1713.7 190.549,1714.03L185.92,1714.99C182.945,1715.66 179.796,1715.84 176.865,1716.08C174.94,1716.29 172.995,1716.67 171.273,1717.51C169.545,1718.33 168.041,1719.62 166.677,1721C164.653,1723.12 162.565,1725.51 160.173,1727.4C157.811,1729.38 155.335,1731.51 152.625,1733.18C151.621,1733.84 150.559,1734.44 149.453,1734.99C148.347,1735.54 147.198,1736.03 146.006,1736.31C143.804,1736.9 141.495,1737.26 139.18,1737.39ZM200.457,1699.04C201.81,1697.24 202.364,1695.1 202.109,1693.19C201.832,1691.26 200.651,1689.49 198.944,1688.4C197.201,1687.29 195.277,1687.01 193.45,1687.26C191.591,1687.49 189.933,1688.31 188.847,1689.77C187.782,1691.25 187.182,1692.91 187.371,1694.78C187.529,1696.61 188.311,1698.51 189.769,1699.95C191.227,1701.38 193.123,1702.06 195.08,1701.91C196.993,1701.73 199.124,1700.86 200.457,1699.04Z" style="fill:#e7e7e7;"/>
                <path d="M54.92,1659.81C55.198,1659.62 55.49,1659.42 55.798,1659.23C57.327,1658.26 61.939,1658.06 66.459,1659.34C66.33,1659.66 66.201,1659.99 66.068,1660.32C65.462,1661.97 65.128,1663.81 65.647,1665.47C66.08,1667.14 66.945,1668.72 68.175,1669.95C70.225,1671.74 72.27,1673.39 74.266,1674.9C76.487,1676.32 78.519,1677.67 80.679,1678.8C82.357,1679.61 83.805,1680.54 85.025,1681.62C86.346,1682.63 87.544,1683.72 88.472,1685.01C90.515,1687.45 91.844,1690.49 92.841,1693.96C93.168,1695.12 93.432,1696.41 93.874,1697.55L95.232,1701.07C96.128,1703.55 97.403,1705.72 98.695,1708.12C99.53,1709.76 100.921,1710.86 102.478,1711.61C104.041,1712.35 105.762,1712.77 107.565,1712.4C110.25,1711.9 112.73,1711.58 115.234,1710.71C117.705,1709.94 120.012,1709.27 122.272,1708.14C123.108,1707.76 123.932,1707.44 124.746,1707.19C125.646,1706.94 126.452,1706.72 127.181,1706.52C128.803,1706.08 130.397,1705.91 131.992,1706.02C132.38,1705.99 132.768,1705.99 133.157,1705.99C133.598,1709.84 134.274,1711.39 133.809,1714.14C133.773,1714.35 133.737,1714.55 133.701,1714.74C133.146,1714.61 132.572,1714.55 131.992,1714.58C128.417,1714.38 125.105,1717.58 124.613,1721.63C124.12,1725.71 127.43,1729.23 131.991,1729.44C132.226,1729.43 132.457,1729.41 132.685,1729.38C132.762,1733.03 132.645,1735.89 132.537,1737.98C132.355,1737.99 132.174,1738 131.992,1738.01C129.494,1737.9 126.996,1737.53 124.619,1736.89C123.428,1736.61 122.279,1736.13 121.173,1735.57C120.067,1735.03 119.005,1734.42 118.001,1733.76C115.292,1732.09 112.815,1729.96 110.453,1727.98C108.061,1726.09 105.974,1723.7 103.95,1721.58C102.586,1720.21 101.081,1718.91 99.353,1718.09C97.632,1717.26 95.687,1716.87 93.762,1716.66C90.831,1716.42 87.681,1716.25 84.707,1715.57L80.078,1714.61C78.497,1714.29 77.046,1713.75 75.489,1713.28C70.816,1711.91 66.652,1708.84 63.477,1704.97C61.978,1702.97 60.637,1700.83 59.678,1698.56C58.819,1696.21 58.237,1693.8 57.983,1691.43C57.73,1688.2 57.779,1684.97 57.783,1681.93C58.01,1678.79 58.329,1675.75 58.744,1672.84C59.15,1670.87 59.108,1668.91 58.634,1667.06C58.075,1665.22 57.504,1663.4 56.311,1661.79C55.856,1661.14 55.385,1660.48 54.92,1659.81ZM80.858,1700.53C82.316,1699.09 83.098,1697.19 83.255,1695.36C83.445,1693.5 82.844,1691.84 81.779,1690.36C80.694,1688.89 79.034,1688.08 77.177,1687.84C75.35,1687.6 73.426,1687.87 71.682,1688.99C69.975,1690.08 68.794,1691.85 68.518,1693.78C68.262,1695.69 68.815,1697.83 70.17,1699.63C71.502,1701.44 73.634,1702.32 75.546,1702.49C77.503,1702.64 79.4,1701.97 80.858,1700.53Z" style="fill:#e7e7e7;"/>
            </g>
            <g id="A2B2" sound="Song/07-Masks-A2B2">
                <path d="M136.394,1551.83C155.307,1552.1 174.119,1559.57 188.335,1574.19L214.092,1600.67C228.546,1615.54 235.483,1634.95 234.968,1654.17L135.705,1654L136.394,1551.83Z" style="fill:#488e61;stroke:#fff;stroke-width:1.67px;"/>
                <path d="M35.037,1653.81C34.405,1633.78 41.871,1613.55 57.362,1598.49L83.849,1572.73C98.467,1558.51 117.481,1551.57 136.394,1551.83L135.705,1654L35.037,1653.81Z" style="fill:#488e61;stroke:#fff;stroke-width:1.67px;"/>
                <path d="M135.705,1552.83L135.403,1653.18" style="fill:none;stroke:#488e61;stroke-width:4.17px;stroke-linecap:butt;"/>
                <path d="M129.945,1569.22C131.087,1571.1 131.699,1574.04 131.477,1574.89C130.546,1578.48 130.659,1579.72 129.72,1581.62C126.383,1584.15 123.441,1586.97 120.912,1589.9C120.614,1590.24 120.308,1590.55 120.001,1590.86C119.707,1591.2 119.408,1591.53 119.103,1591.85C118.495,1592.48 117.868,1593.04 117.218,1593.54C116.575,1594.06 115.878,1594.44 115.212,1594.9C114.551,1595.37 113.865,1595.77 113.149,1596.12C112.433,1596.46 111.687,1596.75 110.909,1596.97C110.143,1597.22 109.403,1597.52 108.596,1597.7C107.023,1598.13 105.188,1598.16 103.442,1598.33C101.074,1598.51 98.414,1598.56 95.99,1599.11C93.498,1599.57 90.828,1600.06 88.355,1600.93C86.703,1601.5 85.066,1602.4 84.069,1603.82C83.034,1605.2 82.348,1606.87 82.156,1608.6C82.003,1611.31 82.02,1613.95 82.061,1616.45C82.335,1619.07 82.552,1621.51 83.001,1623.9C83.417,1625.71 83.594,1627.43 83.514,1629.05C83.519,1630.7 83.451,1632.32 83.02,1633.85C82.918,1634.23 82.799,1634.61 82.664,1634.99C82.578,1635.38 82.477,1635.76 82.359,1636.14C82.122,1636.9 81.818,1637.66 81.449,1638.4C81.093,1639.14 80.611,1639.88 80.172,1640.62C79.768,1641.36 79.296,1642.1 78.758,1642.83L76.578,1645.88C75.884,1646.93 75.334,1648.02 74.701,1649.14L72.852,1652.61C72.583,1653.19 72.337,1653.78 72.098,1654.37C67.49,1654.57 62.193,1653.77 57.91,1651.95L56.8,1649.96C56.079,1648.59 55.279,1647.19 54.632,1645.75L52.829,1641.34C52.385,1640.21 52.01,1639.05 51.703,1637.85C51.43,1636.65 51.338,1635.44 51.256,1634.2C51.188,1632.97 51.191,1631.72 51.261,1630.47C51.297,1629.84 51.349,1629.21 51.419,1628.59C51.539,1627.98 51.676,1627.37 51.828,1626.76C52.464,1624.33 53.266,1621.93 54.476,1619.77C55.772,1617.64 57.293,1615.68 58.989,1614C61.367,1611.8 63.915,1609.82 66.3,1607.93C68.916,1606.16 71.453,1604.5 74.014,1603.03C75.806,1602.12 77.301,1600.86 78.449,1599.33C79.559,1597.77 80.62,1596.17 81.119,1594.23C81.854,1591.28 82.989,1588.53 84.178,1585.63C85.298,1582.65 86.886,1580.02 88.439,1577.13C89.573,1574.93 91.265,1573.2 93.061,1571.47C93.979,1570.64 94.921,1569.8 95.964,1569.12C97.021,1568.46 98.121,1567.85 99.251,1567.31C100.381,1566.77 101.54,1566.28 102.714,1565.87C103.893,1565.46 105.147,1565.26 106.369,1565.06C107.599,1564.87 108.829,1564.76 110.046,1564.72C110.654,1564.7 111.258,1564.7 111.859,1564.71C112.471,1564.77 113.081,1564.86 113.682,1564.96C119.453,1565.83 124.903,1567.26 129.945,1569.22ZM66.158,1637.58C68.192,1637.82 70.159,1637.24 71.676,1636.22C72.434,1635.71 73.08,1635.08 73.568,1634.36C73.814,1634 74.011,1633.61 74.182,1633.21C74.389,1632.81 74.552,1632.39 74.668,1631.95C75.127,1630.19 74.725,1628.38 73.745,1626.78C72.826,1625.21 71.39,1623.87 69.438,1623.2C67.514,1622.54 65.419,1622.73 63.704,1623.71C62.057,1624.7 60.736,1626.47 60.181,1628.66C60.042,1629.2 59.959,1629.75 59.926,1630.28C59.93,1630.82 60.002,1631.35 60.11,1631.87C60.332,1632.89 60.737,1633.84 61.294,1634.65C62.407,1636.27 64.125,1637.33 66.158,1637.58ZM98.958,1579.58C98.397,1581.49 98.648,1583.52 99.727,1585.26C100.805,1587 102.472,1588.16 104.198,1588.68C105.9,1589.14 107.782,1589.18 109.427,1588.4C111.065,1587.61 112.196,1586.1 112.898,1584.49C113.564,1582.81 113.694,1580.79 113.004,1578.86C112.314,1576.93 110.888,1575.47 109.041,1574.72C107.175,1573.9 105.001,1574.04 102.973,1575.02C100.936,1575.99 99.479,1577.62 98.958,1579.58Z" style="fill:#e7e7e7;"/>
                <path d="M216.594,1648.68C215.509,1648.93 214.325,1649.1 213.033,1649.15C208.426,1649.35 202.68,1649.39 197.056,1647.42C196.765,1646.9 196.466,1646.39 196.134,1645.88L193.953,1642.83C193.415,1642.1 192.943,1641.36 192.539,1640.62C192.101,1639.88 191.618,1639.14 191.263,1638.4C190.893,1637.66 190.59,1636.9 190.353,1636.14C190.235,1635.76 190.134,1635.38 190.048,1634.99C189.912,1634.61 189.794,1634.23 189.692,1633.85C189.26,1632.32 189.192,1630.7 189.198,1629.05C189.118,1627.43 189.294,1625.71 189.711,1623.9C190.16,1621.51 190.377,1619.07 190.65,1616.45C190.692,1613.95 190.708,1611.31 190.555,1608.6C190.364,1606.87 189.678,1605.2 188.643,1603.82C187.646,1602.4 186.008,1601.5 184.357,1600.93C181.884,1600.06 179.214,1599.57 176.722,1599.11C174.297,1598.56 171.637,1598.51 169.27,1598.33C167.524,1598.16 165.688,1598.13 164.116,1597.7C163.308,1597.52 162.568,1597.22 161.803,1596.97C161.024,1596.75 160.279,1596.46 159.563,1596.12C158.847,1595.77 158.161,1595.37 157.499,1594.9C156.834,1594.44 156.137,1594.06 155.494,1593.54C154.844,1593.04 154.217,1592.48 153.608,1591.85C153.304,1591.53 153.005,1591.2 152.71,1590.86C152.403,1590.55 152.098,1590.24 151.799,1589.9C148.628,1586.23 144.804,1582.73 140.368,1579.74C140.243,1579.66 140.116,1579.58 139.988,1579.5C139.909,1579.06 139.805,1578.57 139.666,1578.03C138.732,1574.42 139.261,1571.94 140.272,1570.22C140.546,1570.13 140.818,1570.02 141.088,1569.9C146.592,1567.58 152.612,1565.93 159.03,1564.96C159.631,1564.86 160.241,1564.77 160.853,1564.72C161.453,1564.7 162.058,1564.7 162.666,1564.72C163.883,1564.76 165.113,1564.87 166.343,1565.06C167.565,1565.26 168.819,1565.46 169.997,1565.87C171.172,1566.28 172.33,1566.76 173.461,1567.31C174.59,1567.85 175.69,1568.46 176.748,1569.12C177.791,1569.8 178.732,1570.64 179.651,1571.47C181.447,1573.2 183.139,1574.93 184.273,1577.13C185.826,1580.02 187.414,1582.65 188.534,1585.63C189.723,1588.52 190.857,1591.28 191.593,1594.23C192.092,1596.17 193.152,1597.77 194.263,1599.33C195.41,1600.86 196.906,1602.12 198.697,1603.03C201.259,1604.5 203.796,1606.16 206.412,1607.93C208.797,1609.82 211.345,1611.8 213.723,1614C215.419,1615.68 216.939,1617.64 218.235,1619.77C219.446,1621.93 220.248,1624.33 220.883,1626.76C221.036,1627.37 221.173,1627.98 221.292,1628.59C221.363,1629.21 221.414,1629.84 221.45,1630.47C221.521,1631.72 221.523,1632.97 221.455,1634.2C221.373,1635.44 221.281,1636.65 221.009,1637.85C220.702,1639.05 220.327,1640.21 219.883,1641.34L218.079,1645.75C217.632,1646.75 217.111,1647.72 216.594,1648.68ZM159.708,1578.86C159.019,1580.79 159.148,1582.81 159.814,1584.48C160.515,1586.1 161.647,1587.61 163.285,1588.4C164.93,1589.18 166.812,1589.14 168.514,1588.68C170.239,1588.16 171.906,1587 172.985,1585.26C174.064,1583.52 174.315,1581.5 173.754,1579.58C173.234,1577.62 171.776,1575.99 169.739,1575.02C167.711,1574.04 165.537,1573.9 163.671,1574.72C161.825,1575.47 160.398,1576.93 159.708,1578.86ZM212.601,1631.86C212.71,1631.35 212.782,1630.82 212.786,1630.28C212.753,1629.75 212.669,1629.2 212.531,1628.66C211.976,1626.47 210.655,1624.7 209.008,1623.71C207.293,1622.73 205.197,1622.54 203.274,1623.2C201.322,1623.87 199.886,1625.21 198.967,1626.78C197.986,1628.38 197.585,1630.19 198.044,1631.95C198.159,1632.39 198.323,1632.81 198.53,1633.21C198.701,1633.61 198.897,1634 199.143,1634.36C199.632,1635.08 200.277,1635.71 201.036,1636.22C202.553,1637.24 204.52,1637.82 206.554,1637.58C208.587,1637.33 210.304,1636.27 211.417,1634.65C211.974,1633.84 212.38,1632.89 212.601,1631.86Z" style="fill:#e7e7e7;"/>
            </g>
        </g>
    </g>
    <g id="Map">
        <g id="Frame">
            <rect x="1471.5" y="41.542" width="190" height="190" style="fill:#fff;"/>
            <rect x="1471.5" y="41.542" width="190" height="190" style="fill:none;stroke:#000;stroke-width:1.17px;stroke-linejoin:bevel;"/>
            <rect x="1523.38" y="93.417" width="86.25" height="86.25" style="fill:none;stroke:#000;stroke-width:1.25px;stroke-linejoin:bevel;"/>
            <path d="M1609.62,93.417L1661.5,41.75" style="fill:none;stroke:#000;stroke-width:1.25px;stroke-linejoin:bevel;"/>
            <path d="M1523.38,93.417L1471.92,41.75" style="fill:none;stroke:#000;stroke-width:1.25px;stroke-linejoin:bevel;"/>
            <path d="M1523.38,179.667L1471.5,231.542" style="fill:none;stroke:#000;stroke-width:1.25px;stroke-linejoin:bevel;"/>
            <path d="M1609.62,179.667L1661.5,231.542" style="fill:none;stroke:#000;stroke-width:1.25px;stroke-linejoin:bevel;"/>
        </g>
        <g id="Dots">
            <circle cx="1471.5" cy="231.5" r="1.5" style="stroke:#000;stroke-width:1.25px;stroke-linejoin:bevel;"/>
            <circle cx="1566.2" cy="231.625" r="1.5" style="stroke:#000;stroke-width:1.25px;stroke-linejoin:bevel;"/>
            <circle cx="1661.5" cy="231.5" r="1.5" style="stroke:#000;stroke-width:1.25px;stroke-linejoin:bevel;"/>
            <circle cx="1633.85" cy="203.667" r="1.5" style="stroke:#000;stroke-width:1.25px;stroke-linejoin:bevel;"/>
            <circle cx="1609.62" cy="179.5" r="1.5" style="stroke:#000;stroke-width:1.25px;stroke-linejoin:bevel;"/>
            <circle cx="1609.2" cy="136.625" r="1.5" style="stroke:#000;stroke-width:1.25px;stroke-linejoin:bevel;"/>
            <circle cx="1609.32" cy="93.375" r="1.5" style="stroke:#000;stroke-width:1.25px;stroke-linejoin:bevel;"/>
            <circle cx="1633.76" cy="69.167" r="1.5" style="stroke:#000;stroke-width:1.25px;stroke-linejoin:bevel;"/>
            <circle cx="1566.2" cy="93.375" r="1.5" style="stroke:#000;stroke-width:1.25px;stroke-linejoin:bevel;"/>
            <circle cx="1523.07" cy="93.5" r="1.5" style="stroke:#000;stroke-width:1.25px;stroke-linejoin:bevel;"/>
            <circle cx="1566.5" cy="41.5" r="1.5" style="stroke:#000;stroke-width:1.25px;stroke-linejoin:bevel;"/>
            <circle cx="1471.5" cy="41.542" r="1.5" style="stroke:#000;stroke-width:1.25px;stroke-linejoin:bevel;"/>
            <circle cx="1499.35" cy="69.5" r="1.5" style="stroke:#000;stroke-width:1.25px;stroke-linejoin:bevel;"/>
            <circle cx="1471.5" cy="136.542" r="1.5" style="stroke:#000;stroke-width:1.25px;stroke-linejoin:bevel;"/>
            <circle cx="1523.38" cy="136.542" r="1.5" style="stroke:#000;stroke-width:1.25px;stroke-linejoin:bevel;"/>
            <circle cx="1566" cy="179.667" r="1.5" style="stroke:#000;stroke-width:1.25px;stroke-linejoin:bevel;"/>
            <circle cx="1523.35" cy="179.5" r="1.5" style="stroke:#000;stroke-width:1.25px;stroke-linejoin:bevel;"/>
            <circle cx="1499.15" cy="204" r="1.5" style="stroke:#000;stroke-width:1.25px;stroke-linejoin:bevel;"/>
            <circle cx="1661.5" cy="136.542" r="1.5" style="stroke:#000;stroke-width:1.25px;stroke-linejoin:bevel;"/>
            <circle cx="1661.49" cy="41.65" r="1.5" style="stroke:#000;stroke-width:1.25px;stroke-linejoin:bevel;"/>
        </g>
        <g>
            <path d="M1523.43,93.417L1566.25,92.977" style="fill:none;stroke:#ec9959;stroke-width:5.99px;"/>
        </g>
        <path d="M1566.5,92.977L1609.32,93.417" style="fill:none;stroke:#488e61;stroke-width:4.17px;"/>
        <g id="_7" serif:id="7">
            <circle cx="1566.25" cy="93.363" r="15.75" style="fill:#fff;stroke:#fff;stroke-width:1.46px;"/>
            <path d="M1567,108.892C1567.02,108.524 1567.04,108.021 1567.02,107.378C1567.76,107.287 1568.28,106.694 1568.2,106.013C1568.13,105.414 1567.71,104.922 1567.2,104.799C1567.21,104.765 1567.22,104.73 1567.22,104.693C1567.3,104.209 1567.18,103.935 1567.11,103.257C1567.32,103.261 1567.53,103.292 1567.75,103.35C1567.88,103.385 1568.02,103.425 1568.18,103.469C1568.32,103.513 1568.47,103.569 1568.61,103.636C1569.01,103.835 1569.42,103.953 1569.85,104.089C1570.3,104.242 1570.73,104.298 1571.2,104.386C1571.52,104.452 1571.83,104.378 1572.1,104.247C1572.38,104.115 1572.62,103.921 1572.77,103.632C1573,103.21 1573.22,102.828 1573.38,102.39L1573.62,101.77C1573.69,101.57 1573.74,101.342 1573.8,101.137C1573.97,100.527 1574.21,99.99 1574.57,99.562C1574.73,99.334 1574.94,99.142 1575.17,98.964C1575.39,98.774 1575.64,98.61 1575.94,98.467C1576.32,98.268 1576.68,98.03 1577.07,97.78C1577.42,97.514 1577.78,97.223 1578.14,96.907C1578.36,96.691 1578.51,96.413 1578.59,96.118C1578.68,95.826 1578.62,95.502 1578.52,95.212C1578.43,95.013 1578.36,94.819 1578.28,94.629C1578.35,94.613 1578.42,94.596 1578.5,94.577C1579,94.462 1579.37,94.584 1580.79,94.626L1580.69,94.809C1580.54,95.036 1580.38,95.256 1580.23,95.471C1580.02,95.754 1579.92,96.076 1579.82,96.399C1579.74,96.726 1579.73,97.07 1579.81,97.418C1579.88,97.93 1579.93,98.465 1579.97,99.018C1579.98,99.555 1579.98,100.124 1579.94,100.692C1579.89,101.11 1579.79,101.534 1579.64,101.947C1579.47,102.348 1579.24,102.724 1578.97,103.078C1578.41,103.758 1577.68,104.301 1576.86,104.542C1576.58,104.624 1576.33,104.719 1576.05,104.776L1575.23,104.945C1574.71,105.064 1574.15,105.095 1573.64,105.138C1573.3,105.174 1572.95,105.242 1572.65,105.389C1572.35,105.533 1572.08,105.762 1571.84,106.003C1571.49,106.377 1571.12,106.799 1570.7,107.131C1570.28,107.48 1569.84,107.855 1569.37,108.149C1569.19,108.266 1569,108.372 1568.81,108.468C1568.61,108.566 1568.41,108.652 1568.2,108.701C1567.81,108.805 1567.4,108.869 1567,108.892ZM1577.79,102.136C1578.03,101.819 1578.13,101.442 1578.08,101.106C1578.03,100.765 1577.83,100.454 1577.53,100.262C1577.22,100.065 1576.88,100.017 1576.56,100.06C1576.23,100.101 1575.94,100.245 1575.75,100.503C1575.56,100.764 1575.45,101.056 1575.49,101.385C1575.52,101.707 1575.65,102.042 1575.91,102.295C1576.17,102.549 1576.5,102.667 1576.85,102.641C1577.18,102.61 1577.56,102.456 1577.79,102.136Z" style="fill:#733c52;"/>
            <path d="M1552.15,95.225C1552.2,95.191 1552.26,95.157 1552.31,95.122C1552.58,94.951 1553.39,94.916 1554.19,95.141C1554.16,95.199 1554.14,95.257 1554.12,95.315C1554.01,95.605 1553.95,95.929 1554.04,96.221C1554.12,96.516 1554.27,96.794 1554.49,97.011C1554.85,97.326 1555.21,97.617 1555.56,97.883C1555.95,98.133 1556.31,98.371 1556.69,98.57C1556.99,98.713 1557.24,98.877 1557.46,99.067C1557.69,99.245 1557.9,99.437 1558.07,99.665C1558.42,100.093 1558.66,100.63 1558.83,101.24C1558.89,101.445 1558.94,101.673 1559.02,101.873L1559.26,102.493C1559.41,102.931 1559.64,103.313 1559.87,103.735C1560.01,104.024 1560.26,104.218 1560.53,104.35C1560.81,104.481 1561.11,104.555 1561.43,104.489C1561.9,104.401 1562.34,104.345 1562.78,104.192C1563.22,104.056 1563.62,103.938 1564.02,103.739C1564.17,103.672 1564.31,103.616 1564.45,103.572C1564.61,103.528 1564.76,103.489 1564.88,103.453C1565.17,103.376 1565.45,103.347 1565.73,103.365C1565.8,103.361 1565.87,103.359 1565.94,103.36C1566.01,104.038 1566.13,104.312 1566.05,104.796C1566.05,104.833 1566.04,104.868 1566.03,104.902C1565.93,104.878 1565.83,104.868 1565.73,104.874C1565.1,104.838 1564.52,105.402 1564.43,106.116C1564.35,106.834 1564.93,107.454 1565.73,107.491C1565.77,107.489 1565.81,107.486 1565.85,107.481C1565.87,108.124 1565.85,108.627 1565.83,108.995C1565.8,108.997 1565.76,108.999 1565.73,109C1565.29,108.982 1564.85,108.916 1564.43,108.804C1564.22,108.755 1564.02,108.669 1563.83,108.571C1563.63,108.476 1563.44,108.369 1563.27,108.252C1562.79,107.958 1562.35,107.583 1561.94,107.234C1561.52,106.902 1561.15,106.48 1560.79,106.106C1560.55,105.865 1560.29,105.636 1559.98,105.492C1559.68,105.345 1559.34,105.277 1559,105.241C1558.48,105.198 1557.92,105.167 1557.4,105.048L1556.59,104.879C1556.31,104.822 1556.05,104.727 1555.78,104.645C1554.95,104.404 1554.22,103.861 1553.66,103.181C1553.4,102.827 1553.16,102.451 1552.99,102.05C1552.84,101.638 1552.74,101.213 1552.69,100.795C1552.65,100.227 1552.66,99.658 1552.66,99.121C1552.7,98.568 1552.76,98.033 1552.83,97.521C1552.9,97.173 1552.89,96.829 1552.81,96.502C1552.71,96.179 1552.61,95.857 1552.4,95.574C1552.32,95.459 1552.24,95.343 1552.15,95.225ZM1556.72,102.398C1556.98,102.145 1557.12,101.81 1557.15,101.488C1557.18,101.159 1557.07,100.867 1556.89,100.606C1556.69,100.348 1556.4,100.204 1556.08,100.163C1555.75,100.12 1555.41,100.168 1555.11,100.365C1554.81,100.557 1554.6,100.868 1554.55,101.209C1554.5,101.545 1554.6,101.922 1554.84,102.239C1555.08,102.559 1555.45,102.713 1555.79,102.744C1556.13,102.77 1556.47,102.651 1556.72,102.398Z" style="fill:#733c52;"/>
            <path d="M1565.37,79.266C1565.57,79.597 1565.68,80.115 1565.64,80.266C1565.48,80.898 1565.5,81.117 1565.33,81.451C1564.74,81.897 1564.23,82.394 1563.78,82.91C1563.73,82.969 1563.67,83.024 1563.62,83.078C1563.57,83.139 1563.51,83.197 1563.46,83.253C1563.35,83.363 1563.24,83.463 1563.13,83.551C1563.02,83.643 1562.89,83.71 1562.78,83.79C1562.66,83.873 1562.54,83.944 1562.41,84.005C1562.29,84.066 1562.15,84.116 1562.02,84.155C1561.88,84.199 1561.75,84.252 1561.61,84.284C1561.33,84.36 1561.01,84.364 1560.7,84.395C1560.29,84.427 1559.82,84.434 1559.39,84.531C1558.95,84.613 1558.48,84.699 1558.04,84.853C1557.75,84.953 1557.47,85.111 1557.29,85.361C1557.11,85.606 1556.99,85.898 1556.95,86.204C1556.92,86.68 1556.93,87.147 1556.93,87.587C1556.98,88.048 1557.02,88.478 1557.1,88.898C1557.17,89.218 1557.2,89.52 1557.19,89.806C1557.19,90.097 1557.18,90.382 1557.1,90.651C1557.09,90.719 1557.07,90.786 1557.04,90.852C1557.03,90.92 1557.01,90.988 1556.99,91.055C1556.95,91.19 1556.89,91.322 1556.83,91.453C1556.77,91.585 1556.68,91.713 1556.6,91.843C1556.53,91.974 1556.45,92.104 1556.35,92.234L1555.97,92.771C1555.85,92.957 1555.75,93.148 1555.64,93.346L1555.31,93.956C1555.27,94.059 1555.22,94.162 1555.18,94.266C1554.37,94.301 1553.43,94.161 1552.68,93.841L1552.49,93.49C1552.36,93.249 1552.22,93.002 1552.1,92.748L1551.79,91.971C1551.71,91.773 1551.64,91.567 1551.59,91.356C1551.54,91.146 1551.52,90.931 1551.51,90.714C1551.5,90.496 1551.5,90.276 1551.51,90.055C1551.52,89.945 1551.53,89.835 1551.54,89.725C1551.56,89.617 1551.58,89.509 1551.61,89.402C1551.72,88.975 1551.86,88.553 1552.08,88.172C1552.3,87.796 1552.57,87.45 1552.87,87.155C1553.29,86.767 1553.74,86.418 1554.16,86.085C1554.62,85.774 1555.07,85.481 1555.52,85.223C1555.83,85.061 1556.1,84.84 1556.3,84.57C1556.5,84.296 1556.68,84.015 1556.77,83.672C1556.9,83.152 1557.1,82.667 1557.31,82.157C1557.51,81.633 1557.79,81.17 1558.06,80.66C1558.26,80.273 1558.56,79.968 1558.87,79.663C1559.04,79.517 1559.2,79.369 1559.38,79.248C1559.57,79.132 1559.77,79.026 1559.96,78.93C1560.16,78.834 1560.37,78.749 1560.57,78.675C1560.78,78.604 1561,78.569 1561.22,78.533C1561.43,78.5 1561.65,78.48 1561.87,78.473C1561.97,78.47 1562.08,78.469 1562.18,78.473C1562.29,78.483 1562.4,78.498 1562.51,78.516C1563.52,78.67 1564.48,78.92 1565.37,79.266ZM1554.13,91.308C1554.49,91.35 1554.84,91.249 1555.11,91.069C1555.24,90.979 1555.35,90.868 1555.44,90.741C1555.48,90.678 1555.52,90.61 1555.55,90.538C1555.58,90.469 1555.61,90.395 1555.63,90.317C1555.71,90.007 1555.64,89.688 1555.47,89.406C1555.31,89.13 1555.06,88.893 1554.71,88.776C1554.37,88.66 1554,88.692 1553.7,88.865C1553.41,89.04 1553.18,89.352 1553.08,89.737C1553.06,89.833 1553.04,89.928 1553.04,90.023C1553.04,90.118 1553.05,90.212 1553.07,90.302C1553.11,90.482 1553.18,90.649 1553.28,90.792C1553.47,91.078 1553.78,91.265 1554.13,91.308ZM1559.91,81.092C1559.81,81.429 1559.86,81.785 1560.05,82.091C1560.24,82.398 1560.53,82.603 1560.84,82.695C1561.13,82.775 1561.47,82.783 1561.76,82.646C1562.05,82.506 1562.24,82.239 1562.37,81.955C1562.49,81.661 1562.51,81.304 1562.39,80.964C1562.27,80.624 1562.01,80.368 1561.69,80.235C1561.36,80.09 1560.98,80.115 1560.62,80.289C1560.26,80.459 1560,80.745 1559.91,81.092Z" style="fill:#733c52;"/>
            <path d="M1580.63,93.265C1580.44,93.309 1580.24,93.337 1580.01,93.347C1579.2,93.382 1578.18,93.39 1577.19,93.042C1577.14,92.95 1577.09,92.86 1577.03,92.771L1576.65,92.234C1576.55,92.104 1576.47,91.974 1576.4,91.843C1576.32,91.713 1576.24,91.585 1576.17,91.453C1576.11,91.322 1576.05,91.19 1576.01,91.055C1575.99,90.988 1575.97,90.921 1575.96,90.852C1575.93,90.786 1575.91,90.719 1575.9,90.651C1575.82,90.382 1575.81,90.097 1575.81,89.806C1575.8,89.52 1575.83,89.218 1575.9,88.899C1575.98,88.478 1576.02,88.048 1576.07,87.587C1576.07,87.147 1576.08,86.68 1576.05,86.204C1576.01,85.898 1575.89,85.606 1575.71,85.361C1575.54,85.111 1575.25,84.953 1574.96,84.853C1574.52,84.699 1574.05,84.613 1573.61,84.531C1573.18,84.434 1572.72,84.427 1572.3,84.395C1571.99,84.364 1571.67,84.36 1571.39,84.284C1571.25,84.252 1571.12,84.199 1570.98,84.155C1570.85,84.116 1570.71,84.066 1570.59,84.005C1570.46,83.944 1570.34,83.873 1570.23,83.79C1570.11,83.71 1569.99,83.643 1569.87,83.551C1569.76,83.463 1569.65,83.363 1569.54,83.253C1569.49,83.197 1569.43,83.139 1569.38,83.078C1569.33,83.024 1569.27,82.969 1569.22,82.91C1568.66,82.263 1567.99,81.646 1567.21,81.12C1567.18,81.105 1567.16,81.091 1567.14,81.078C1567.13,80.999 1567.11,80.913 1567.08,80.818C1566.92,80.182 1567.01,79.746 1567.19,79.443C1567.24,79.426 1567.29,79.407 1567.33,79.386C1568.3,78.978 1569.36,78.687 1570.49,78.516C1570.6,78.498 1570.71,78.483 1570.82,78.473C1570.92,78.469 1571.03,78.47 1571.13,78.473C1571.35,78.48 1571.57,78.5 1571.78,78.533C1572,78.569 1572.22,78.604 1572.43,78.675C1572.63,78.749 1572.84,78.834 1573.04,78.93C1573.24,79.026 1573.43,79.132 1573.62,79.248C1573.8,79.369 1573.97,79.517 1574.13,79.663C1574.44,79.968 1574.74,80.273 1574.94,80.66C1575.22,81.17 1575.49,81.633 1575.69,82.157C1575.9,82.667 1576.1,83.152 1576.23,83.672C1576.32,84.015 1576.51,84.296 1576.7,84.57C1576.9,84.84 1577.17,85.061 1577.48,85.223C1577.93,85.481 1578.38,85.774 1578.84,86.085C1579.26,86.418 1579.71,86.767 1580.13,87.155C1580.43,87.45 1580.7,87.796 1580.92,88.172C1581.14,88.553 1581.28,88.975 1581.39,89.402C1581.42,89.509 1581.44,89.617 1581.46,89.725C1581.48,89.835 1581.48,89.945 1581.49,90.055C1581.5,90.276 1581.5,90.496 1581.49,90.714C1581.48,90.932 1581.46,91.146 1581.41,91.356C1581.36,91.567 1581.29,91.773 1581.21,91.971L1580.9,92.749C1580.82,92.924 1580.73,93.096 1580.63,93.265ZM1570.61,80.964C1570.49,81.304 1570.52,81.661 1570.63,81.955C1570.76,82.239 1570.95,82.506 1571.24,82.646C1571.53,82.783 1571.87,82.776 1572.16,82.695C1572.47,82.603 1572.76,82.398 1572.95,82.091C1573.14,81.785 1573.19,81.429 1573.09,81.092C1573,80.745 1572.74,80.459 1572.38,80.289C1572.02,80.116 1571.64,80.09 1571.31,80.235C1570.99,80.368 1570.74,80.624 1570.61,80.964ZM1579.93,90.302C1579.95,90.212 1579.96,90.118 1579.96,90.023C1579.96,89.929 1579.94,89.833 1579.92,89.737C1579.82,89.352 1579.59,89.04 1579.3,88.865C1579,88.693 1578.63,88.66 1578.29,88.776C1577.94,88.893 1577.69,89.13 1577.53,89.406C1577.36,89.688 1577.29,90.007 1577.37,90.317C1577.39,90.395 1577.42,90.469 1577.45,90.538C1577.48,90.61 1577.52,90.678 1577.56,90.741C1577.65,90.868 1577.76,90.979 1577.89,91.069C1578.16,91.249 1578.51,91.35 1578.87,91.308C1579.22,91.265 1579.53,91.079 1579.72,90.792C1579.82,90.649 1579.89,90.483 1579.93,90.302Z" style="fill:#733c52;"/>
        </g>
    </g>
</svg>
