<?xml version="1.0" encoding="UTF-8" standalone="no"?>
<!DOCTYPE svg PUBLIC "-//W3C//DTD SVG 1.1//EN" "http://www.w3.org/Graphics/SVG/1.1/DTD/svg11.dtd">
<svg width="100%" height="100%" viewBox="0 0 1700 2480" version="1.1" xmlns="http://www.w3.org/2000/svg" xmlns:xlink="http://www.w3.org/1999/xlink" xml:space="preserve" xmlns:serif="http://www.serif.com/" style="fill-rule:evenodd;clip-rule:evenodd;stroke-linecap:round;stroke-linejoin:round;stroke-miterlimit:1.5;">
    <rect id="A2D2" x="0" y="0" width="1700" height="2480" style="fill:none;"/>
    <g id="Fields" opacity="0.2">
        <path id="_6" serif:id="6" d="M977.38,1717.93L1183.01,2469.66L515.545,2469.57L717.173,1715.9C803.412,1737.8 892.85,1740.7 977.38,1717.93Z" style="fill:#9da285;stroke:#767676;stroke-width:8.33px;"/>
    </g>
    <g id="S">
        <g id="Ring">
            <path id="Backer" d="M1261.43,1477C1130.55,1703.7 840.239,1781.5 613.55,1650.62C386.862,1519.75 309.085,1229.44 439.973,1002.74C570.862,776.037 861.169,698.239 1087.86,829.115C1314.55,959.991 1392.32,1250.3 1261.43,1477Z" style="fill:#fff;"/>
            <path d="M1261.43,1477C1130.55,1703.7 840.239,1781.5 613.55,1650.62C386.862,1519.75 309.085,1229.44 439.973,1002.74C570.862,776.037 861.169,698.239 1087.86,829.115C1314.55,959.991 1392.32,1250.3 1261.43,1477Z" style="fill:none;stroke:#000;stroke-width:8.33px;"/>
            <path d="M1261.43,1477L1235.18,1461.84" style="fill:none;stroke:#000;stroke-width:8.33px;"/>
            <path d="M466.231,1017.9L439.973,1002.74" style="fill:none;stroke:#000;stroke-width:8.33px;"/>
            <path d="M628.71,1624.37L613.55,1650.62" style="fill:none;stroke:#000;stroke-width:8.33px;"/>
            <path d="M1087.86,829.115L1072.7,855.372" style="fill:none;stroke:#000;stroke-width:8.33px;"/>
            <path d="M1087.85,1650.6L1072.69,1624.35" style="fill:none;stroke:#000;stroke-width:8.33px;"/>
            <path d="M628.72,855.389L613.56,829.132" style="fill:none;stroke:#000;stroke-width:8.33px;"/>
            <path d="M466.201,1461.86L439.944,1477.02" style="fill:none;stroke:#000;stroke-width:8.33px;"/>
            <path d="M1261.46,1002.72L1235.21,1017.88" style="fill:none;stroke:#000;stroke-width:8.33px;"/>
            <path d="M850.704,1714.16L850.704,1683.85" style="fill:none;stroke:#000;stroke-width:8.33px;"/>
            <path d="M850.704,795.892L850.704,765.573" style="fill:none;stroke:#000;stroke-width:8.33px;"/>
            <path d="M406.736,1239.87L376.417,1239.87" style="fill:none;stroke:#000;stroke-width:8.33px;"/>
            <path d="M1324.99,1239.87L1294.67,1239.87" style="fill:none;stroke:#000;stroke-width:8.33px;"/>
        </g>
        <g id="Root-Markers" serif:id="Root Markers">
            <path id="_11" serif:id="11" d="M666.957,920.407L748.809,989.581L685.936,1025.88L666.957,920.407ZM695.244,969.402L699.968,995.652L715.615,986.618L695.244,969.402Z" style="fill:#4daab1;"/>
        </g>
        <g id="Notes">
            <path id="_111" serif:id="11" d="M682.187,873.402C660.198,911.488 611.424,924.556 573.337,902.568C535.251,880.579 522.182,831.806 544.171,793.72C566.16,755.634 614.934,742.566 653.021,764.554C691.107,786.543 704.176,835.316 682.187,873.402Z" style="fill:#4daab1;stroke:#fff;stroke-width:24px;"/>
            <path id="_61" serif:id="6" d="M919.712,1756.34C897.722,1794.43 848.949,1807.5 810.862,1785.51C772.775,1763.52 759.707,1714.75 781.696,1676.66C803.685,1638.57 852.459,1625.51 890.546,1647.49C928.632,1669.48 941.701,1718.26 919.712,1756.34Z" style="fill:#4daab1;stroke:#fff;stroke-width:24px;"/>
            <path id="_1" serif:id="1" d="M1153.64,879.109C1131.65,917.195 1082.87,930.264 1044.79,908.275C1006.7,886.286 993.632,837.513 1015.62,799.427C1037.61,761.342 1086.38,748.273 1124.47,770.262C1162.56,792.251 1175.63,841.024 1153.64,879.109Z" style="fill:#4daab1;stroke:#fff;stroke-width:24px;"/>
        </g>
        <g id="Treble-Marker" serif:id="Treble Marker">
            <g id="_10" serif:id="10">
                <path id="_101" serif:id="10" d="M513.323,1048.9C491.333,1086.99 442.559,1100.06 404.473,1078.07C366.386,1056.08 353.317,1007.31 375.307,969.221C397.296,931.136 446.07,918.067 484.156,940.056C522.243,962.045 535.312,1010.82 513.323,1048.9Z" style="fill:#fff;stroke:#fff;stroke-width:33.33px;"/>
                <circle id="_10a" serif:id="10a" cx="444.315" cy="1009.06" r="64" style="fill:#fff;stroke:#4daab1;stroke-width:16.67px;"/>
            </g>
        </g>
    </g>
    <g id="Songs">
        <g id="song-6-tubular" serif:id="song 6 tubular">
            <g id="D">
                <path d="M851.493,2160C870.406,2160.26 889.218,2167.74 903.434,2182.36L929.191,2208.84C943.645,2223.7 950.582,2243.11 950.067,2262.34L850.804,2262.16L851.493,2160Z" style="fill:#4daab1;stroke:#fff;stroke-width:1.67px;"/>
                <path d="M950.067,2262.34C949.57,2280.93 942.104,2299.35 927.732,2313.33L901.246,2339.09C886.999,2352.94 868.579,2359.89 850.145,2359.99L850.804,2262.16L950.067,2262.34Z" style="fill:#4daab1;stroke:#fff;stroke-width:1.67px;"/>
                <path d="M851.599,2262.34L949.199,2262.34" style="fill:none;stroke:#4daab1;stroke-width:4.17px;stroke-linecap:butt;"/>
                <path id="q1" d="M936.314,2261.63L900.916,2261.63C900.725,2253.49 898.91,2245.59 895.708,2238.33C896.584,2246.31 895.863,2254.2 893.762,2261.63L888.663,2261.63C889.704,2254.73 889.372,2247.51 887.452,2240.35C885.424,2232.78 881.837,2226.06 877.129,2220.42C882.032,2233.78 881.29,2248.75 874.903,2261.63L874.379,2261.63C881.404,2245.41 878.287,2225.85 865.036,2212.6C863.141,2210.7 861.117,2209.01 858.992,2207.53C866.203,2217.89 868.968,2231.24 865.443,2244.39C869.566,2229 863.555,2213.29 851.502,2204.34L851.502,2203.7C852.274,2203.92 853.039,2204.16 853.797,2204.42C853.041,2204.03 852.275,2203.67 851.502,2203.33L851.502,2176.63C873.194,2176.67 894.871,2184.97 911.418,2201.52C928.016,2218.12 936.314,2239.87 936.314,2261.63ZM851.503,2245.3L851.503,2242.07C855.287,2235.12 856.523,2226.78 854.341,2218.54C856.815,2227.87 855.565,2237.32 851.503,2245.3ZM856.426,2261.63L855.36,2261.63C860.061,2257.05 863.626,2251.19 865.446,2244.39C863.69,2250.95 860.55,2256.77 856.426,2261.63Z" style="fill:#e7e7e7;"/>
                <path id="q2" d="M851.503,2346.63L851.503,2342.31C866.818,2340.35 881.628,2333.49 893.39,2321.73C909.784,2305.34 916.654,2283.03 913.998,2261.67C914,2261.66 914.002,2261.64 914.004,2261.63L936.314,2261.63C936.314,2283.38 928.016,2305.13 911.418,2321.73C894.871,2338.28 873.194,2346.58 851.503,2346.63ZM913.992,2261.63C913.994,2261.64 913.996,2261.66 913.998,2261.67C913.588,2264.88 912.957,2268.11 912.096,2271.32C904.286,2300.48 879.703,2320.68 851.503,2324.3L851.503,2323.33C873.69,2318.9 892.573,2302.32 898.827,2278.98C900.381,2273.18 901.05,2267.35 900.916,2261.63L913.992,2261.63ZM851.503,2285.12L851.503,2284.61C856.413,2282.45 861.013,2279.37 865.033,2275.35C860.961,2279.42 856.383,2282.68 851.503,2285.12ZM865.11,2275.27C869.145,2271.22 872.234,2266.58 874.379,2261.63L874.903,2261.63C872.463,2266.55 869.198,2271.16 865.11,2275.27ZM888.663,2261.63L893.762,2261.63C888.149,2281.46 872.686,2297.97 851.503,2304.01L851.503,2304.01C871.668,2298.2 885.705,2281.22 888.663,2261.63ZM851.503,2266.57L851.503,2264.91C852.857,2263.9 854.147,2262.81 855.36,2261.63L856.426,2261.63C854.911,2263.41 853.264,2265.06 851.503,2266.57Z" style="fill:#e7e7e7;"/>
            </g>
            <g id="A2D21" serif:id="A2D2">
                <path d="M849.746,2359.99C830.349,2360.1 810.938,2352.62 796.36,2337.63L770.603,2311.15C757.236,2297.4 750.298,2279.77 749.737,2261.99L850.405,2262.17L849.746,2359.99Z" style="fill:#4daab1;stroke:#fff;stroke-width:1.67px;"/>
                <path d="M749.737,2261.99C749.105,2241.95 756.572,2221.72 772.062,2206.66L798.549,2180.9C813.167,2166.69 832.181,2159.74 851.094,2160.01L850.405,2262.17L749.737,2261.99Z" style="fill:#4daab1;stroke:#fff;stroke-width:1.67px;"/>
                <path d="M750.7,2262.17L849.7,2262.35" style="fill:none;stroke:#4daab1;stroke-width:4.17px;stroke-linecap:butt;"/>
                <path id="q4" d="M790.612,2202.13C790.628,2202.11 790.645,2202.09 790.661,2202.08C790.631,2202.11 790.6,2202.14 790.57,2202.17C790.438,2202.31 790.308,2202.45 790.178,2202.59C790.516,2202.23 790.861,2201.87 791.211,2201.52C790.886,2201.85 790.568,2202.18 790.259,2202.51C790.807,2201.92 791.375,2201.35 791.962,2200.8C791.742,2201 791.523,2201.21 791.308,2201.43C791.364,2201.37 791.42,2201.32 791.476,2201.26C791.618,2201.12 791.761,2200.98 791.905,2200.84C791.859,2200.89 791.814,2200.93 791.768,2200.97C792.079,2200.67 792.392,2200.37 792.708,2200.07C792.442,2200.32 792.179,2200.57 791.917,2200.82C808.469,2184.64 829.993,2176.58 851.502,2176.63L851.502,2204.34C851.019,2203.98 850.527,2203.63 850.025,2203.29C848.475,2202.89 846.903,2202.56 845.313,2202.31C844.826,2202.23 844.337,2202.16 843.846,2202.09C842.122,2201.86 840.379,2201.72 838.622,2201.67C837.974,2201.65 837.324,2201.64 836.673,2201.64C836.698,2201.67 836.724,2201.7 836.749,2201.72C834.653,2201.82 832.573,2202.02 830.518,2202.32C836.627,2208.96 839.309,2218.49 836.801,2227.85C833.853,2238.86 824.568,2246.48 813.92,2247.84C821.967,2248.83 830.373,2246.24 836.55,2240.06C847.124,2229.48 847.19,2212.38 836.749,2201.72C849.07,2214.26 849.001,2234.4 836.55,2246.86C829.4,2254.01 819.712,2257.07 810.386,2256.06C816.847,2258.92 824.292,2259.67 831.645,2257.7C840.472,2255.34 847.449,2249.51 851.502,2242.07L851.502,2245.3C848.009,2252.16 842.436,2257.94 835.366,2261.63L766.314,2261.63C766.314,2240.14 774.413,2218.65 790.612,2202.13ZM813.661,2193.78C814.948,2193.9 816.242,2194.13 817.533,2194.48C816.31,2194.15 815.084,2193.91 813.862,2193.76C813.795,2193.76 813.728,2193.77 813.661,2193.78ZM819.143,2194.96C818.623,2194.78 818.093,2194.62 817.556,2194.48C818.088,2194.62 818.611,2194.78 819.124,2194.96C819.13,2194.96 819.137,2194.96 819.143,2194.96ZM830.454,2196.93C831.516,2197.52 832.548,2198.18 833.54,2198.92C833.838,2199.14 834.133,2199.37 834.423,2199.61C835.157,2200.2 835.867,2200.84 836.55,2201.52C835.875,2200.85 835.178,2200.21 834.46,2199.61C834.177,2199.37 833.891,2199.14 833.602,2198.91C832.692,2198.2 831.752,2197.54 830.787,2196.94C830.676,2196.94 830.565,2196.93 830.454,2196.93ZM814.619,2203.88C818.206,2202.39 821.888,2201.21 825.627,2200.33C821.851,2201.02 818.147,2202.2 814.619,2203.88ZM791.591,2229.91C791.596,2229.87 791.601,2229.83 791.606,2229.79C791.597,2229.82 791.588,2229.85 791.579,2229.87C791.583,2229.89 791.587,2229.9 791.591,2229.91ZM829.686,2202.45C822.431,2203.63 815.491,2206.1 809.183,2209.68C802.88,2213.66 797.589,2218.89 793.565,2224.94C792.924,2226.29 792.355,2227.67 791.858,2229.06C794.854,2233.89 799.622,2237.64 805.541,2239.22C817.899,2242.53 830.598,2235.2 833.912,2222.84C835.885,2215.48 834.08,2208 829.686,2202.45Z" style="fill:#e7e7e7;"/>
                <path id="q3" d="M766.314,2261.63L770.602,2261.63C770.604,2261.64 770.605,2261.65 770.606,2261.66C767.946,2283.01 774.815,2305.33 791.212,2321.73C774.614,2305.13 766.314,2283.38 766.314,2261.63ZM791.212,2321.73C807.666,2338.18 830.08,2345.04 851.503,2342.31L851.503,2346.63C829.686,2346.68 807.855,2338.38 791.212,2321.73ZM770.606,2261.66C770.607,2261.65 770.609,2261.64 770.61,2261.63L835.366,2261.63C832.958,2262.88 830.377,2263.9 827.645,2264.63C819.818,2266.72 811.907,2266.2 804.844,2263.59C808.92,2267 813.785,2269.59 819.254,2271.06C830.822,2274.16 842.576,2271.53 851.503,2264.91L851.503,2266.57C840.759,2275.78 825.803,2279.7 811.103,2275.76C806.002,2274.39 801.348,2272.19 797.249,2269.34C798.723,2271.45 800.402,2273.46 802.285,2275.35C815.592,2288.65 835.249,2291.74 851.503,2284.61L851.503,2285.12C831.949,2294.92 807.526,2291.66 791.212,2275.34C790.088,2274.22 789.026,2273.06 788.026,2271.86C797.214,2296.96 824.222,2311.33 850.538,2304.28C820.856,2312.24 790.418,2297.02 778.434,2269.72C781.09,2294.15 798.366,2315.6 823.505,2322.38C794.343,2314.52 774.175,2289.89 770.606,2261.66ZM823.649,2322.42C833.063,2324.93 842.552,2325.12 851.503,2323.33L851.503,2324.3C842.446,2325.47 833.016,2324.92 823.649,2322.42Z" style="fill:#e7e7e7;"/>
            </g>
        </g>
    </g>
    <g id="Map">
        <g id="Frame">
            <rect x="1471.5" y="41.542" width="190" height="190" style="fill:#fff;"/>
            <rect x="1471.5" y="41.542" width="190" height="190" style="fill:none;stroke:#000;stroke-width:1.17px;stroke-linejoin:bevel;"/>
            <rect x="1523.38" y="93.417" width="86.25" height="86.25" style="fill:none;stroke:#000;stroke-width:1.25px;stroke-linejoin:bevel;"/>
            <path d="M1609.62,93.417L1661.5,41.75" style="fill:none;stroke:#000;stroke-width:1.25px;stroke-linejoin:bevel;"/>
            <path d="M1523.38,93.417L1471.92,41.75" style="fill:none;stroke:#000;stroke-width:1.25px;stroke-linejoin:bevel;"/>
            <path d="M1523.38,179.667L1471.5,231.542" style="fill:none;stroke:#000;stroke-width:1.25px;stroke-linejoin:bevel;"/>
            <path d="M1609.62,179.667L1661.5,231.542" style="fill:none;stroke:#000;stroke-width:1.25px;stroke-linejoin:bevel;"/>
        </g>
        <g id="Dots">
            <circle cx="1471.5" cy="231.5" r="1.5" style="stroke:#000;stroke-width:1.25px;stroke-linejoin:bevel;"/>
            <circle cx="1566.2" cy="231.625" r="1.5" style="stroke:#000;stroke-width:1.25px;stroke-linejoin:bevel;"/>
            <circle cx="1661.5" cy="231.5" r="1.5" style="stroke:#000;stroke-width:1.25px;stroke-linejoin:bevel;"/>
            <circle cx="1633.85" cy="203.667" r="1.5" style="stroke:#000;stroke-width:1.25px;stroke-linejoin:bevel;"/>
            <circle cx="1609.62" cy="179.5" r="1.5" style="stroke:#000;stroke-width:1.25px;stroke-linejoin:bevel;"/>
            <circle cx="1609.2" cy="136.625" r="1.5" style="stroke:#000;stroke-width:1.25px;stroke-linejoin:bevel;"/>
            <circle cx="1609.32" cy="93.375" r="1.5" style="stroke:#000;stroke-width:1.25px;stroke-linejoin:bevel;"/>
            <circle cx="1633.76" cy="69.167" r="1.5" style="stroke:#000;stroke-width:1.25px;stroke-linejoin:bevel;"/>
            <circle cx="1566.2" cy="93.375" r="1.5" style="stroke:#000;stroke-width:1.25px;stroke-linejoin:bevel;"/>
            <circle cx="1523.07" cy="93.5" r="1.5" style="stroke:#000;stroke-width:1.25px;stroke-linejoin:bevel;"/>
            <circle cx="1566.5" cy="41.5" r="1.5" style="stroke:#000;stroke-width:1.25px;stroke-linejoin:bevel;"/>
            <circle cx="1471.5" cy="41.542" r="1.5" style="stroke:#000;stroke-width:1.25px;stroke-linejoin:bevel;"/>
            <circle cx="1499.35" cy="69.5" r="1.5" style="stroke:#000;stroke-width:1.25px;stroke-linejoin:bevel;"/>
            <circle cx="1471.5" cy="136.542" r="1.5" style="stroke:#000;stroke-width:1.25px;stroke-linejoin:bevel;"/>
            <circle cx="1523.38" cy="136.542" r="1.5" style="stroke:#000;stroke-width:1.25px;stroke-linejoin:bevel;"/>
            <circle cx="1566" cy="179.667" r="1.5" style="stroke:#000;stroke-width:1.25px;stroke-linejoin:bevel;"/>
            <circle cx="1523.35" cy="179.5" r="1.5" style="stroke:#000;stroke-width:1.25px;stroke-linejoin:bevel;"/>
            <circle cx="1499.15" cy="204" r="1.5" style="stroke:#000;stroke-width:1.25px;stroke-linejoin:bevel;"/>
            <circle cx="1661.5" cy="136.542" r="1.5" style="stroke:#000;stroke-width:1.25px;stroke-linejoin:bevel;"/>
            <circle cx="1661.49" cy="41.65" r="1.5" style="stroke:#000;stroke-width:1.25px;stroke-linejoin:bevel;"/>
        </g>
        <path d="M1522.91,180.443L1522.91,136.542" style="fill:none;stroke:#4daab1;stroke-width:5.83px;"/>
        <circle cx="1523.38" cy="179.667" r="6.364" style="fill:#fff;stroke:#4daab1;stroke-width:5.99px;"/>
        <g id="_62" serif:id="6">
            <circle cx="1522.75" cy="136.5" r="15.75" style="fill:#fff;stroke:#fff;stroke-width:1.46px;"/>
            <path id="q11" serif:id="q1" d="M1537.88,136.542L1531.63,136.542C1531.6,135.106 1531.27,133.712 1530.71,132.431C1530.86,133.839 1530.74,135.232 1530.37,136.542L1529.47,136.542C1529.65,135.325 1529.59,134.051 1529.25,132.787C1528.89,131.452 1528.26,130.265 1527.43,129.27C1528.3,131.628 1528.16,134.269 1527.04,136.542L1526.94,136.542C1528.18,133.68 1527.63,130.229 1525.3,127.89C1524.96,127.555 1524.61,127.257 1524.23,126.996C1525.5,128.824 1525.99,131.18 1525.37,133.5C1526.1,130.785 1525.04,128.012 1522.91,126.432L1522.91,126.319C1523.04,126.358 1523.18,126.401 1523.31,126.446C1523.18,126.378 1523.05,126.314 1522.91,126.255L1522.91,121.542C1526.74,121.55 1530.56,123.015 1533.48,125.935C1536.41,128.864 1537.88,132.703 1537.88,136.542ZM1522.91,133.66L1522.91,133.09C1523.58,131.865 1523.79,130.392 1523.41,128.938C1523.85,130.585 1523.62,132.252 1522.91,133.66ZM1523.78,136.542L1523.59,136.542C1524.42,135.734 1525.05,134.7 1525.37,133.5C1525.06,134.658 1524.51,135.686 1523.78,136.542Z" style="fill:#733c52;"/>
            <path id="q21" serif:id="q2" d="M1522.91,151.542L1522.91,150.78C1525.61,150.435 1528.22,149.224 1530.3,147.148C1533.19,144.255 1534.4,140.318 1533.94,136.55C1533.94,136.547 1533.94,136.545 1533.94,136.542L1537.88,136.542C1537.88,140.381 1536.41,144.22 1533.48,147.148C1530.56,150.069 1526.74,151.534 1522.91,151.542ZM1533.94,136.542C1533.94,136.545 1533.94,136.547 1533.94,136.55C1533.86,137.117 1533.75,137.685 1533.6,138.252C1532.22,143.399 1527.88,146.962 1522.91,147.602L1522.91,147.431C1526.82,146.649 1530.16,143.723 1531.26,139.604C1531.53,138.58 1531.65,137.551 1531.63,136.542L1533.94,136.542ZM1522.91,140.688L1522.91,140.598C1523.78,140.217 1524.59,139.673 1525.3,138.963C1524.58,139.682 1523.77,140.257 1522.91,140.688ZM1525.31,138.949C1526.02,138.234 1526.57,137.415 1526.94,136.542L1527.04,136.542C1526.61,137.41 1526.03,138.225 1525.31,138.949ZM1529.47,136.542L1530.37,136.542C1529.38,140.042 1526.65,142.956 1522.91,144.022L1522.91,144.022C1526.47,142.996 1528.94,139.999 1529.47,136.542ZM1522.91,137.414L1522.91,137.121C1523.15,136.944 1523.38,136.75 1523.59,136.542L1523.78,136.542C1523.51,136.856 1523.22,137.148 1522.91,137.414Z" style="fill:#733c52;"/>
            <path id="q41" serif:id="q4" d="M1512.16,126.042C1512.17,126.039 1512.17,126.036 1512.17,126.033C1512.17,126.039 1512.16,126.044 1512.15,126.05C1512.13,126.074 1512.11,126.098 1512.09,126.123C1512.15,126.06 1512.21,125.997 1512.27,125.935C1512.21,125.993 1512.15,126.051 1512.1,126.11C1512.2,126.006 1512.3,125.905 1512.4,125.807C1512.36,125.843 1512.32,125.88 1512.29,125.918C1512.3,125.908 1512.31,125.899 1512.32,125.889C1512.34,125.864 1512.37,125.839 1512.39,125.815C1512.38,125.823 1512.38,125.83 1512.37,125.838C1512.42,125.785 1512.48,125.732 1512.53,125.679C1512.49,125.723 1512.44,125.767 1512.39,125.812C1515.31,122.957 1519.11,121.533 1522.91,121.542L1522.91,126.432C1522.82,126.368 1522.74,126.307 1522.65,126.247C1522.37,126.177 1522.1,126.119 1521.82,126.074C1521.73,126.06 1521.64,126.047 1521.56,126.036C1521.25,125.995 1520.94,125.97 1520.63,125.961C1520.52,125.957 1520.41,125.956 1520.29,125.957C1520.3,125.961 1520.3,125.966 1520.31,125.971C1519.93,125.987 1519.57,126.023 1519.2,126.076C1520.28,127.248 1520.76,128.929 1520.31,130.581C1519.79,132.524 1518.15,133.868 1516.28,134.108C1517.7,134.283 1519.18,133.826 1520.27,132.736C1522.14,130.869 1522.15,127.851 1520.31,125.971C1522.48,128.183 1522.47,131.738 1520.27,133.936C1519.01,135.197 1517.3,135.738 1515.65,135.559C1516.79,136.064 1518.11,136.197 1519.4,135.849C1520.96,135.432 1522.19,134.403 1522.91,133.09L1522.91,133.66C1522.29,134.871 1521.31,135.891 1520.06,136.542L1507.88,136.542C1507.88,132.75 1509.3,128.957 1512.16,126.042ZM1516.23,124.569C1516.46,124.59 1516.69,124.631 1516.91,124.692C1516.7,124.634 1516.48,124.592 1516.27,124.565C1516.25,124.566 1516.24,124.568 1516.23,124.569ZM1517.2,124.777C1517.11,124.746 1517.01,124.718 1516.92,124.692C1517.01,124.718 1517.1,124.746 1517.19,124.777C1517.19,124.777 1517.2,124.777 1517.2,124.777ZM1519.19,125.125C1519.38,125.228 1519.56,125.345 1519.74,125.476C1519.79,125.515 1519.84,125.555 1519.89,125.597C1520.02,125.702 1520.15,125.815 1520.27,125.935C1520.15,125.816 1520.03,125.703 1519.9,125.597C1519.85,125.555 1519.8,125.514 1519.75,125.474C1519.59,125.349 1519.42,125.233 1519.25,125.127C1519.23,125.126 1519.21,125.125 1519.19,125.125ZM1516.4,126.351C1517.03,126.089 1517.68,125.88 1518.34,125.725C1517.68,125.847 1517.02,126.056 1516.4,126.351ZM1512.34,130.945C1512.34,130.938 1512.34,130.931 1512.34,130.924C1512.34,130.929 1512.34,130.934 1512.33,130.938C1512.33,130.94 1512.34,130.943 1512.34,130.945ZM1519.06,126.099C1517.78,126.307 1516.55,126.744 1515.44,127.376C1514.33,128.076 1513.39,129 1512.68,130.068C1512.57,130.306 1512.47,130.549 1512.38,130.795C1512.91,131.648 1513.75,132.308 1514.8,132.589C1516.98,133.173 1519.22,131.879 1519.8,129.698C1520.15,128.399 1519.83,127.078 1519.06,126.099Z" style="fill:#733c52;"/>
            <path id="q31" serif:id="q3" d="M1507.88,136.542L1508.63,136.542C1508.63,136.544 1508.63,136.545 1508.63,136.547C1508.16,140.316 1509.38,144.255 1512.27,147.148C1509.34,144.219 1507.88,140.381 1507.88,136.542ZM1512.27,147.148C1515.17,150.052 1519.13,151.262 1522.91,150.78L1522.91,151.542C1519.06,151.55 1515.21,150.086 1512.27,147.148ZM1508.63,136.547C1508.63,136.545 1508.63,136.544 1508.63,136.542L1520.06,136.542C1519.64,136.764 1519.18,136.942 1518.7,137.072C1517.32,137.442 1515.92,137.349 1514.67,136.888C1515.39,137.49 1516.25,137.948 1517.22,138.206C1519.26,138.753 1521.33,138.289 1522.91,137.121L1522.91,137.414C1521.01,139.039 1518.37,139.731 1515.78,139.036C1514.88,138.795 1514.06,138.406 1513.33,137.903C1513.59,138.276 1513.89,138.631 1514.22,138.963C1516.57,141.311 1520.04,141.856 1522.91,140.598L1522.91,140.688C1519.46,142.417 1515.15,141.842 1512.27,138.962C1512.07,138.764 1511.88,138.559 1511.71,138.348C1513.33,142.776 1518.09,145.313 1522.74,144.068C1517.5,145.473 1512.13,142.787 1510.01,137.969C1510.48,142.281 1513.53,146.067 1517.97,147.263C1512.82,145.876 1509.26,141.529 1508.63,136.547ZM1517.99,147.27C1519.65,147.714 1521.33,147.747 1522.91,147.431L1522.91,147.602C1521.31,147.808 1519.65,147.712 1517.99,147.27Z" style="fill:#733c52;"/>
        </g>
    </g>
    <g id="S-melisma" serif:id="S melisma">
        <path id="Sounder" d="M349.245,2302.55C323.992,2346.29 267.981,2361.3 224.245,2336.05C180.508,2310.8 165.502,2254.79 190.755,2211.05C216.008,2167.31 272.019,2152.3 315.755,2177.55C359.492,2202.8 374.498,2258.81 349.245,2302.55Z" style="fill:#fff;"/>
        <g id="Ring1" serif:id="Ring" opacity="0.5">
            <path d="M349.245,2302.55C323.992,2346.29 267.981,2361.3 224.245,2336.05C180.508,2310.8 165.502,2254.79 190.755,2211.05C216.008,2167.31 272.019,2152.3 315.755,2177.55C359.492,2202.8 374.498,2258.81 349.245,2302.55Z" style="fill:none;stroke:#000;stroke-width:1.93px;"/>
            <path d="M349.245,2302.55L344.179,2299.63" style="fill:none;stroke:#000;stroke-width:1.93px;"/>
            <path d="M195.821,2213.97L190.755,2211.05" style="fill:none;stroke:#000;stroke-width:1.93px;"/>
            <path d="M227.169,2330.98L224.245,2336.05" style="fill:none;stroke:#000;stroke-width:1.93px;"/>
            <path d="M315.755,2177.55L312.831,2182.62" style="fill:none;stroke:#000;stroke-width:1.93px;"/>
            <path d="M315.753,2336.05L312.829,2330.98" style="fill:none;stroke:#000;stroke-width:1.93px;"/>
            <path d="M227.171,2182.62L224.247,2177.55" style="fill:none;stroke:#000;stroke-width:1.93px;"/>
            <path d="M195.816,2299.63L190.75,2302.55" style="fill:none;stroke:#000;stroke-width:1.93px;"/>
            <path d="M349.25,2211.05L344.184,2213.97" style="fill:none;stroke:#000;stroke-width:1.93px;"/>
            <path d="M270,2348.31L270,2342.46" style="fill:none;stroke:#000;stroke-width:1.93px;"/>
            <path d="M270,2171.14L270,2165.29" style="fill:none;stroke:#000;stroke-width:1.93px;"/>
            <path d="M184.343,2256.8L178.493,2256.8" style="fill:none;stroke:#000;stroke-width:1.93px;"/>
            <path d="M361.507,2256.8L355.657,2256.8" style="fill:none;stroke:#000;stroke-width:1.93px;"/>
        </g>
        <g id="Root-Markers1" serif:id="Root Markers">
        </g>
        <g id="Notes1" serif:id="Notes">
            <path id="_112" serif:id="11" d="M237.487,2186.1C233.245,2193.44 223.834,2195.97 216.486,2191.72C209.138,2187.48 206.616,2178.07 210.859,2170.72C215.101,2163.37 224.512,2160.85 231.86,2165.1C239.208,2169.34 241.73,2178.75 237.487,2186.1Z" style="fill:#4daab1;stroke:#fff;stroke-width:4.63px;"/>
            <path id="_102" serif:id="10" d="M204.907,2219.96C200.665,2227.3 191.254,2229.83 183.906,2225.58C176.558,2221.34 174.036,2211.93 178.279,2204.58C182.521,2197.23 191.932,2194.71 199.28,2198.95C206.628,2203.2 209.15,2212.61 204.907,2219.96Z" style="fill:#4daab1;stroke:#fff;stroke-width:4.63px;"/>
            <path id="_8" serif:id="8" d="M204.361,2311.1C200.119,2318.45 190.708,2320.97 183.36,2316.72C176.012,2312.48 173.49,2303.07 177.733,2295.72C181.975,2288.38 191.386,2285.85 198.734,2290.1C206.082,2294.34 208.604,2303.75 204.361,2311.1Z" style="fill:#4daab1;stroke:#fff;stroke-width:4.63px;"/>
            <path id="_63" serif:id="6" d="M283.314,2356.45C279.072,2363.79 269.661,2366.32 262.313,2362.07C254.965,2357.83 252.443,2348.42 256.686,2341.07C260.928,2333.72 270.339,2331.2 277.687,2335.45C285.035,2339.69 287.557,2349.1 283.314,2356.45Z" style="fill:#4daab1;stroke:#fff;stroke-width:4.63px;"/>
            <path id="_3" serif:id="3" d="M374.455,2265.38C370.212,2272.72 360.802,2275.24 353.454,2271C346.106,2266.76 343.584,2257.35 347.827,2250C352.069,2242.65 361.48,2240.13 368.828,2244.38C376.176,2248.62 378.697,2258.03 374.455,2265.38Z" style="fill:#4daab1;stroke:#fff;stroke-width:4.63px;"/>
            <path id="_12" serif:id="1" d="M328.447,2187.2C324.204,2194.55 314.794,2197.07 307.446,2192.82C300.097,2188.58 297.576,2179.17 301.818,2171.82C306.061,2164.47 315.471,2161.95 322.819,2166.2C330.168,2170.44 332.689,2179.85 328.447,2187.2Z" style="fill:#4daab1;stroke:#fff;stroke-width:4.63px;"/>
        </g>
        <g id="Treble-Marker1" serif:id="Treble Marker">
        </g>
    </g>
</svg>
