<?xml version="1.0" encoding="UTF-8" standalone="no"?>
<!DOCTYPE svg PUBLIC "-//W3C//DTD SVG 1.1//EN" "http://www.w3.org/Graphics/SVG/1.1/DTD/svg11.dtd">
<svg width="100%" height="100%" viewBox="0 0 1701 2481" version="1.1" xmlns="http://www.w3.org/2000/svg" xmlns:xlink="http://www.w3.org/1999/xlink" xml:space="preserve" xmlns:serif="http://www.serif.com/" style="fill-rule:evenodd;clip-rule:evenodd;stroke-linecap:round;stroke-linejoin:round;stroke-miterlimit:1.5;">
    <rect id="B2A" x="0.931" y="0.542" width="1700" height="2480" style="fill:none;"/>
    <g id="Fields" opacity="0.2">
        <path id="_8" serif:id="8" d="M373.976,1368.54L11.473,1463.07L11.931,2065.54L498.471,1586.65C442.253,1529.99 399.759,1459.34 373.976,1368.54Z" style="fill:#9a945d;stroke:#767676;stroke-width:8.33px;"/>
    </g>
    <g id="S">
        <g id="Ring">
            <path id="Backer" d="M1262.37,1477.54C1131.48,1704.24 841.17,1782.04 614.482,1651.16C387.793,1520.29 310.016,1229.98 440.905,1003.28C571.793,776.579 862.1,698.781 1088.79,829.657C1315.48,960.533 1393.25,1250.84 1262.37,1477.54Z" style="fill:#fff;"/>
            <path d="M1262.37,1477.54C1131.48,1704.24 841.17,1782.04 614.482,1651.16C387.793,1520.29 310.016,1229.98 440.905,1003.28C571.793,776.579 862.1,698.781 1088.79,829.657C1315.48,960.533 1393.25,1250.84 1262.37,1477.54Z" style="fill:none;stroke:#000;stroke-width:8.33px;"/>
            <path d="M1262.37,1477.54L1236.11,1462.38" style="fill:none;stroke:#000;stroke-width:8.33px;"/>
            <path d="M467.162,1018.44L440.905,1003.28" style="fill:none;stroke:#000;stroke-width:8.33px;"/>
            <path d="M629.641,1624.91L614.482,1651.16" style="fill:none;stroke:#000;stroke-width:8.33px;"/>
            <path d="M1088.79,829.657L1073.63,855.914" style="fill:none;stroke:#000;stroke-width:8.33px;"/>
            <path d="M1088.78,1651.15L1073.62,1624.89" style="fill:none;stroke:#000;stroke-width:8.33px;"/>
            <path d="M629.651,855.931L614.492,829.674" style="fill:none;stroke:#000;stroke-width:8.33px;"/>
            <path d="M467.132,1462.4L440.875,1477.56" style="fill:none;stroke:#000;stroke-width:8.33px;"/>
            <path d="M1262.39,1003.26L1236.14,1018.42" style="fill:none;stroke:#000;stroke-width:8.33px;"/>
            <path d="M851.635,1714.71L851.635,1684.39" style="fill:none;stroke:#000;stroke-width:8.33px;"/>
            <path d="M851.635,796.434L851.635,766.115" style="fill:none;stroke:#000;stroke-width:8.33px;"/>
            <path d="M407.668,1240.41L377.348,1240.41" style="fill:none;stroke:#000;stroke-width:8.33px;"/>
            <path d="M1325.92,1240.41L1295.6,1240.41" style="fill:none;stroke:#000;stroke-width:8.33px;"/>
        </g>
        <g id="Root-Markers" serif:id="Root Markers">
            <path id="_81" serif:id="8" d="M533.176,1423.7L602.35,1341.85L638.65,1404.72L533.176,1423.7ZM582.171,1395.41L608.421,1390.69L599.387,1375.04L582.171,1395.41Z" style="fill:#b5955c;"/>
        </g>
        <g id="Notes">
            <path id="_82" serif:id="8" d="M511.424,1521.83C489.434,1559.92 440.661,1572.99 402.574,1551C364.487,1529.01 351.419,1480.24 373.408,1442.15C395.397,1404.07 444.171,1391 482.258,1412.99C520.344,1434.98 533.413,1483.75 511.424,1521.83Z" style="fill:#b5955c;stroke:#fff;stroke-width:24px;"/>
            <path id="_3" serif:id="3" d="M1393.03,1284.86C1371.04,1322.94 1322.27,1336.01 1284.18,1314.02C1246.1,1292.04 1233.03,1243.26 1255.02,1205.18C1277.01,1167.09 1325.78,1154.02 1363.87,1176.01C1401.95,1198 1415.02,1246.77 1393.03,1284.86Z" style="fill:#b5955c;stroke:#fff;stroke-width:24px;"/>
            <path id="_1" serif:id="1" d="M1154.57,879.651C1132.58,917.737 1083.81,930.806 1045.72,908.817C1007.63,886.828 994.563,838.055 1016.55,799.969C1038.54,761.883 1087.32,748.815 1125.4,770.804C1163.49,792.792 1176.56,841.565 1154.57,879.651Z" style="fill:#b5955c;stroke:#fff;stroke-width:24px;"/>
        </g>
        <g id="Treble-Marker" serif:id="Treble Marker">
            <g id="_10" serif:id="10">
                <path id="_101" serif:id="10" d="M514.254,1049.44C492.265,1087.53 443.491,1100.6 405.404,1078.61C367.318,1056.62 354.249,1007.85 376.238,969.763C398.227,931.678 447.001,918.609 485.088,940.598C523.174,962.586 536.243,1011.36 514.254,1049.44Z" style="fill:#fff;stroke:#fff;stroke-width:33.33px;"/>
                <circle id="_10a" serif:id="10a" cx="445.246" cy="1009.6" r="64" style="fill:#fff;stroke:#b5955c;stroke-width:16.67px;"/>
            </g>
        </g>
    </g>
    <g id="Songs">
        <g id="song-7-masks" serif:id="song 7 masks">
            <g id="B2A2">
                <path d="M135.94,1751.55C116.543,1751.65 97.132,1744.18 82.554,1729.19L56.797,1702.7C43.43,1688.95 36.492,1671.32 35.931,1653.54L136.599,1653.72L135.94,1751.55Z" style="fill:#ec9959;stroke:#fff;stroke-width:1.67px;"/>
                <path d="M235.863,1653.9C235.365,1672.49 227.9,1690.91 213.527,1704.89L187.041,1730.65C172.795,1744.5 154.374,1751.45 135.94,1751.55L136.599,1653.72L235.863,1653.9Z" style="fill:#ec9959;stroke:#fff;stroke-width:1.67px;"/>
                <path d="M135.94,1654.55L135.94,1750.55" style="fill:none;stroke:#ec9959;stroke-width:4.17px;stroke-linecap:butt;"/>
                <path d="M140.112,1737.94C140.219,1735.85 140.337,1732.99 140.259,1729.34C144.458,1728.82 147.412,1725.46 146.944,1721.59C146.533,1718.19 144.142,1715.4 141.276,1714.7C141.312,1714.51 141.348,1714.31 141.383,1714.1C141.848,1711.35 141.172,1709.8 140.731,1705.95C141.939,1705.97 143.149,1706.14 144.377,1706.47C145.106,1706.68 145.912,1706.9 146.811,1707.15C147.626,1707.4 148.45,1707.72 149.285,1708.1C151.546,1709.23 153.852,1709.9 156.324,1710.67C158.827,1711.54 161.307,1711.85 163.993,1712.36C165.796,1712.73 167.517,1712.31 169.079,1711.57C170.636,1710.82 172.028,1709.72 172.863,1708.08C174.154,1705.68 175.43,1703.51 176.325,1701.03L177.684,1697.5C178.126,1696.37 178.39,1695.08 178.717,1693.91C179.713,1690.45 181.043,1687.4 183.085,1684.97C184.014,1683.68 185.212,1682.59 186.533,1681.58C187.752,1680.5 189.201,1679.57 190.879,1678.76C193.038,1677.63 195.071,1676.27 197.292,1674.86C199.287,1673.34 201.333,1671.7 203.383,1669.9C204.613,1668.67 205.478,1667.1 205.911,1665.42C206.429,1663.77 206.096,1661.92 205.49,1660.28C205.035,1659.15 204.624,1658.05 204.14,1656.97C204.543,1656.88 204.971,1656.78 205.425,1656.67C208.25,1656.02 210.323,1656.71 218.394,1656.95L217.817,1657.99C217.008,1659.28 216.098,1660.53 215.246,1661.75C214.054,1663.36 213.483,1665.18 212.924,1667.02C212.449,1668.87 212.408,1670.83 212.814,1672.8C213.229,1675.71 213.547,1678.74 213.775,1681.88C213.778,1684.93 213.827,1688.16 213.574,1691.39C213.321,1693.76 212.739,1696.17 211.88,1698.51C210.921,1700.79 209.58,1702.92 208.081,1704.93C204.905,1708.79 200.742,1711.87 196.068,1713.24C194.511,1713.7 193.061,1714.24 191.48,1714.57L186.851,1715.53C183.876,1716.2 180.727,1716.38 177.796,1716.62C175.871,1716.83 173.926,1717.21 172.204,1718.05C170.476,1718.87 168.972,1720.16 167.608,1721.54C165.584,1723.66 163.496,1726.05 161.104,1727.94C158.743,1729.92 156.266,1732.05 153.557,1733.72C152.552,1734.38 151.49,1734.99 150.384,1735.53C149.279,1736.08 148.129,1736.57 146.938,1736.85C144.735,1737.44 142.427,1737.8 140.112,1737.94ZM201.388,1699.58C202.742,1697.79 203.296,1695.65 203.04,1693.74C202.763,1691.8 201.583,1690.03 199.876,1688.94C198.132,1687.83 196.208,1687.55 194.381,1687.8C192.523,1688.03 190.864,1688.85 189.779,1690.31C188.714,1691.8 188.113,1693.45 188.302,1695.32C188.46,1697.15 189.242,1699.05 190.7,1700.49C192.158,1701.92 194.054,1702.6 196.012,1702.45C197.924,1702.27 200.055,1701.4 201.388,1699.58Z" style="fill:#e7e7e7;"/>
                <path d="M55.852,1660.35C56.129,1660.16 56.422,1659.97 56.729,1659.77C58.258,1658.8 62.871,1658.6 67.39,1659.88C67.261,1660.2 67.132,1660.53 66.999,1660.86C66.393,1662.51 66.06,1664.35 66.578,1666.01C67.011,1667.68 67.876,1669.26 69.107,1670.49C71.156,1672.28 73.202,1673.93 75.197,1675.44C77.418,1676.86 79.451,1678.21 81.61,1679.34C83.289,1680.15 84.736,1681.08 85.956,1682.16C87.278,1683.17 88.475,1684.26 89.404,1685.56C91.447,1687.99 92.776,1691.04 93.773,1694.5C94.099,1695.66 94.363,1696.96 94.805,1698.09L96.163,1701.61C97.06,1704.1 98.335,1706.27 99.626,1708.66C100.461,1710.3 101.852,1711.4 103.409,1712.15C104.973,1712.89 106.693,1713.32 108.496,1712.94C111.182,1712.44 113.662,1712.12 116.165,1711.26C118.637,1710.48 120.943,1709.81 123.203,1708.68C124.039,1708.3 124.863,1707.99 125.678,1707.74C126.577,1707.49 127.383,1707.26 128.112,1707.06C129.735,1706.62 131.328,1706.46 132.923,1706.56C133.311,1706.54 133.7,1706.53 134.088,1706.53C134.529,1710.38 135.205,1711.94 134.74,1714.68C134.705,1714.89 134.669,1715.09 134.633,1715.29C134.077,1715.15 133.504,1715.09 132.923,1715.13C129.348,1714.92 126.036,1718.12 125.544,1722.18C125.051,1726.25 128.361,1729.77 132.923,1729.98C133.157,1729.97 133.389,1729.95 133.616,1729.92C133.693,1733.57 133.576,1736.43 133.469,1738.52C133.287,1738.53 133.105,1738.54 132.923,1738.55C130.426,1738.44 127.927,1738.07 125.551,1737.43C124.36,1737.15 123.21,1736.67 122.104,1736.11C120.998,1735.57 119.937,1734.97 118.933,1734.3C116.223,1732.63 113.746,1730.51 111.384,1728.52C108.993,1726.64 106.905,1724.24 104.881,1722.12C103.517,1720.75 102.013,1719.45 100.284,1718.63C98.563,1717.8 96.618,1717.41 94.694,1717.21C91.762,1716.96 88.613,1716.79 85.638,1716.11L81.009,1715.16C79.429,1714.83 77.978,1714.29 76.42,1713.83C71.747,1712.46 67.584,1709.38 64.408,1705.51C62.909,1703.51 61.568,1701.37 60.609,1699.1C59.75,1696.75 59.169,1694.34 58.915,1691.97C58.662,1688.75 58.711,1685.52 58.714,1682.47C58.942,1679.33 59.26,1676.3 59.675,1673.38C60.082,1671.41 60.039,1669.45 59.565,1667.6C59.007,1665.77 58.435,1663.94 57.242,1662.33C56.787,1661.68 56.316,1661.02 55.852,1660.35ZM81.789,1701.07C83.247,1699.63 84.029,1697.73 84.187,1695.9C84.376,1694.04 83.775,1692.38 82.71,1690.9C81.625,1689.43 79.966,1688.62 78.108,1688.38C76.281,1688.14 74.357,1688.41 72.613,1689.53C70.906,1690.62 69.725,1692.39 69.449,1694.32C69.193,1696.23 69.747,1698.37 71.101,1700.17C72.433,1701.99 74.565,1702.86 76.478,1703.03C78.434,1703.18 80.331,1702.51 81.789,1701.07Z" style="fill:#e7e7e7;"/>
            </g>
            <g id="B2A1" serif:id="B2A">
                <path d="M137.325,1552.38C156.238,1552.64 175.051,1560.11 189.266,1574.73L215.023,1601.22C229.478,1616.08 236.415,1635.49 235.9,1654.72L136.636,1654.54L137.325,1552.38Z" style="fill:#b5955c;stroke:#fff;stroke-width:1.67px;"/>
                <path d="M35.968,1654.36C35.336,1634.32 42.803,1614.09 58.293,1599.03L84.78,1573.27C99.398,1559.06 118.412,1552.11 137.325,1552.38L136.636,1654.54L35.968,1654.36Z" style="fill:#b5955c;stroke:#fff;stroke-width:1.67px;"/>
                <path d="M136.636,1553.37L136.335,1653.72" style="fill:none;stroke:#b5955c;stroke-width:4.17px;stroke-linecap:butt;"/>
                <path d="M130.876,1569.76C132.018,1571.64 132.63,1574.58 132.408,1575.43C131.477,1579.03 131.591,1580.27 130.651,1582.16C127.314,1584.7 124.372,1587.52 121.844,1590.45C121.545,1590.78 121.24,1591.09 120.933,1591.4C120.638,1591.75 120.339,1592.08 120.035,1592.39C119.426,1593.02 118.8,1593.58 118.149,1594.09C117.507,1594.61 116.809,1594.99 116.144,1595.44C115.482,1595.91 114.796,1596.32 114.08,1596.66C113.364,1597.01 112.619,1597.29 111.84,1597.52C111.075,1597.76 110.335,1598.06 109.527,1598.24C107.955,1598.67 106.119,1598.7 104.373,1598.88C102.006,1599.06 99.346,1599.1 96.921,1599.65C94.429,1600.11 91.76,1600.6 89.286,1601.48C87.635,1602.04 85.997,1602.94 85,1604.36C83.965,1605.75 83.279,1607.41 83.088,1609.14C82.935,1611.85 82.951,1614.5 82.993,1616.99C83.266,1619.61 83.483,1622.05 83.932,1624.44C84.349,1626.26 84.525,1627.97 84.445,1629.59C84.451,1631.24 84.382,1632.86 83.951,1634.39C83.849,1634.77 83.731,1635.15 83.595,1635.53C83.509,1635.92 83.408,1636.3 83.29,1636.68C83.053,1637.45 82.75,1638.2 82.38,1638.94C82.024,1639.69 81.542,1640.42 81.104,1641.16C80.699,1641.9 80.228,1642.64 79.69,1643.37L77.509,1646.42C76.815,1647.48 76.266,1648.56 75.632,1649.68L73.784,1653.15C73.514,1653.73 73.268,1654.32 73.029,1654.91C68.421,1655.11 63.125,1654.31 58.842,1652.5L57.731,1650.5C57.011,1649.13 56.21,1647.73 55.564,1646.29L53.76,1641.88C53.316,1640.76 52.941,1639.59 52.634,1638.39C52.362,1637.2 52.269,1635.98 52.188,1634.74C52.12,1633.51 52.122,1632.26 52.193,1631.01C52.229,1630.38 52.28,1629.76 52.351,1629.13C52.471,1628.52 52.607,1627.91 52.76,1627.3C53.395,1624.87 54.197,1622.48 55.408,1620.32C56.704,1618.18 58.224,1616.22 59.92,1614.54C62.298,1612.34 64.846,1610.36 67.231,1608.47C69.847,1606.7 72.384,1605.04 74.946,1603.57C76.738,1602.66 78.233,1601.4 79.38,1599.87C80.491,1598.31 81.551,1596.72 82.05,1594.77C82.786,1591.82 83.92,1589.07 85.109,1586.17C86.229,1583.2 87.817,1580.57 89.37,1577.67C90.504,1575.47 92.197,1573.74 93.992,1572.02C94.911,1571.19 95.852,1570.34 96.895,1569.66C97.952,1569 99.053,1568.39 100.182,1567.85C101.313,1567.31 102.471,1566.82 103.646,1566.41C104.824,1566 106.078,1565.8 107.3,1565.6C108.53,1565.41 109.76,1565.3 110.977,1565.26C111.585,1565.24 112.19,1565.24 112.79,1565.26C113.402,1565.32 114.012,1565.4 114.613,1565.5C120.385,1566.38 125.835,1567.8 130.876,1569.76ZM67.089,1638.12C69.123,1638.36 71.09,1637.78 72.607,1636.76C73.366,1636.25 74.011,1635.62 74.5,1634.9C74.746,1634.54 74.942,1634.15 75.113,1633.75C75.32,1633.35 75.484,1632.93 75.599,1632.49C76.058,1630.73 75.657,1628.92 74.676,1627.32C73.757,1625.75 72.321,1624.41 70.369,1623.74C68.446,1623.08 66.35,1623.27 64.635,1624.25C62.989,1625.24 61.667,1627.01 61.112,1629.2C60.973,1629.74 60.89,1630.29 60.857,1630.82C60.861,1631.36 60.933,1631.89 61.042,1632.41C61.263,1633.43 61.669,1634.38 62.226,1635.19C63.339,1636.81 65.056,1637.88 67.089,1638.12ZM99.889,1580.12C99.328,1582.04 99.579,1584.06 100.658,1585.8C101.737,1587.54 103.404,1588.7 105.129,1589.22C106.831,1589.68 108.713,1589.73 110.359,1588.95C111.997,1588.15 113.128,1586.64 113.829,1585.03C114.495,1583.35 114.625,1581.33 113.935,1579.4C113.245,1577.47 111.819,1576.01 109.972,1575.26C108.106,1574.44 105.932,1574.58 103.904,1575.57C101.868,1576.53 100.41,1578.16 99.889,1580.12Z" style="fill:#e7e7e7;"/>
                <path d="M217.525,1649.23C216.44,1649.48 215.257,1649.64 213.964,1649.69C209.357,1649.89 203.611,1649.93 197.988,1647.96C197.697,1647.44 197.397,1646.93 197.065,1646.42L194.885,1643.37C194.347,1642.64 193.875,1641.9 193.471,1641.16C193.032,1640.42 192.549,1639.69 192.194,1638.94C191.824,1638.2 191.521,1637.45 191.285,1636.68C191.166,1636.3 191.065,1635.92 190.979,1635.53C190.844,1635.15 190.725,1634.77 190.623,1634.39C190.191,1632.86 190.124,1631.24 190.129,1629.59C190.049,1627.97 190.226,1626.26 190.642,1624.44C191.091,1622.05 191.308,1619.61 191.582,1616.99C191.623,1614.5 191.64,1611.85 191.487,1609.14C191.295,1607.41 190.609,1605.75 189.574,1604.36C188.577,1602.94 186.94,1602.04 185.288,1601.48C182.815,1600.6 180.145,1600.11 177.653,1599.65C175.229,1599.1 172.569,1599.06 170.201,1598.88C168.455,1598.7 166.62,1598.67 165.047,1598.24C164.24,1598.06 163.5,1597.76 162.734,1597.52C161.956,1597.29 161.21,1597.01 160.494,1596.66C159.778,1596.32 159.092,1595.91 158.431,1595.44C157.765,1594.99 157.068,1594.61 156.425,1594.09C155.775,1593.58 155.148,1593.02 154.54,1592.39C154.235,1592.08 153.936,1591.75 153.642,1591.4C153.335,1591.09 153.029,1590.78 152.731,1590.45C149.559,1586.77 145.735,1583.27 141.299,1580.28C141.174,1580.2 141.047,1580.12 140.919,1580.05C140.84,1579.6 140.737,1579.11 140.597,1578.57C139.664,1574.96 140.192,1572.48 141.204,1570.77C141.477,1570.67 141.749,1570.56 142.019,1570.44C147.523,1568.12 153.543,1566.47 159.961,1565.5C160.562,1565.4 161.173,1565.32 161.784,1565.26C162.385,1565.24 162.989,1565.24 163.598,1565.26C164.814,1565.3 166.044,1565.41 167.274,1565.6C168.496,1565.8 169.75,1566 170.929,1566.41C172.103,1566.82 173.262,1567.31 174.392,1567.85C175.522,1568.39 176.622,1569 177.679,1569.66C178.722,1570.34 179.664,1571.19 180.582,1572.02C182.378,1573.74 184.07,1575.48 185.204,1577.67C186.757,1580.57 188.345,1583.2 189.465,1586.17C190.654,1589.07 191.788,1591.82 192.524,1594.77C193.023,1596.72 194.084,1598.31 195.194,1599.87C196.342,1601.4 197.837,1602.66 199.629,1603.57C202.19,1605.04 204.727,1606.7 207.343,1608.47C209.728,1610.36 212.276,1612.34 214.654,1614.54C216.35,1616.22 217.871,1618.18 219.167,1620.32C220.377,1622.48 221.179,1624.87 221.814,1627.3C221.967,1627.91 222.104,1628.52 222.224,1629.13C222.294,1629.76 222.346,1630.38 222.382,1631.01C222.452,1632.26 222.455,1633.51 222.387,1634.74C222.305,1635.98 222.213,1637.2 221.94,1638.39C221.633,1639.59 221.258,1640.76 220.814,1641.88L219.011,1646.3C218.563,1647.29 218.042,1648.27 217.525,1649.23ZM160.64,1579.4C159.95,1581.33 160.079,1583.35 160.745,1585.03C161.447,1586.64 162.579,1588.15 164.216,1588.95C165.861,1589.73 167.743,1589.68 169.445,1589.22C171.171,1588.7 172.838,1587.54 173.916,1585.8C174.995,1584.06 175.246,1582.04 174.685,1580.12C174.165,1578.16 172.707,1576.53 170.671,1575.57C168.642,1574.58 166.468,1574.44 164.602,1575.26C162.756,1576.01 161.329,1577.47 160.64,1579.4ZM213.533,1632.41C213.641,1631.89 213.713,1631.36 213.717,1630.82C213.685,1630.29 213.601,1629.74 213.462,1629.2C212.907,1627.01 211.586,1625.24 209.939,1624.25C208.225,1623.27 206.129,1623.08 204.205,1623.74C202.253,1624.41 200.818,1625.75 199.898,1627.32C198.918,1628.92 198.516,1630.73 198.975,1632.49C199.091,1632.93 199.254,1633.35 199.461,1633.75C199.632,1634.15 199.829,1634.54 200.075,1634.9C200.563,1635.62 201.209,1636.25 201.967,1636.76C203.484,1637.78 205.451,1638.36 207.485,1638.12C209.518,1637.88 211.236,1636.82 212.349,1635.19C212.906,1634.38 213.311,1633.43 213.533,1632.41Z" style="fill:#e7e7e7;"/>
            </g>
        </g>
    </g>
    <g id="Map">
        <g id="Frame">
            <rect x="1472.43" y="42.084" width="190" height="190" style="fill:#fff;"/>
            <rect x="1472.43" y="42.084" width="190" height="190" style="fill:none;stroke:#000;stroke-width:1.17px;stroke-linejoin:bevel;"/>
            <rect x="1524.31" y="93.959" width="86.25" height="86.25" style="fill:none;stroke:#000;stroke-width:1.25px;stroke-linejoin:bevel;"/>
            <path d="M1610.56,93.959L1662.43,42.292" style="fill:none;stroke:#000;stroke-width:1.25px;stroke-linejoin:bevel;"/>
            <path d="M1524.31,93.959L1472.85,42.292" style="fill:none;stroke:#000;stroke-width:1.25px;stroke-linejoin:bevel;"/>
            <path d="M1524.31,180.209L1472.43,232.084" style="fill:none;stroke:#000;stroke-width:1.25px;stroke-linejoin:bevel;"/>
            <path d="M1610.56,180.209L1662.43,232.084" style="fill:none;stroke:#000;stroke-width:1.25px;stroke-linejoin:bevel;"/>
        </g>
        <g id="Dots">
            <circle cx="1472.43" cy="232.042" r="1.5" style="stroke:#000;stroke-width:1.25px;stroke-linejoin:bevel;"/>
            <circle cx="1567.13" cy="232.167" r="1.5" style="stroke:#000;stroke-width:1.25px;stroke-linejoin:bevel;"/>
            <circle cx="1662.43" cy="232.042" r="1.5" style="stroke:#000;stroke-width:1.25px;stroke-linejoin:bevel;"/>
            <circle cx="1634.78" cy="204.208" r="1.5" style="stroke:#000;stroke-width:1.25px;stroke-linejoin:bevel;"/>
            <circle cx="1610.56" cy="180.042" r="1.5" style="stroke:#000;stroke-width:1.25px;stroke-linejoin:bevel;"/>
            <circle cx="1610.13" cy="137.167" r="1.5" style="stroke:#000;stroke-width:1.25px;stroke-linejoin:bevel;"/>
            <circle cx="1610.25" cy="93.917" r="1.5" style="stroke:#000;stroke-width:1.25px;stroke-linejoin:bevel;"/>
            <circle cx="1634.69" cy="69.708" r="1.5" style="stroke:#000;stroke-width:1.25px;stroke-linejoin:bevel;"/>
            <circle cx="1567.13" cy="93.917" r="1.5" style="stroke:#000;stroke-width:1.25px;stroke-linejoin:bevel;"/>
            <circle cx="1524" cy="94.042" r="1.5" style="stroke:#000;stroke-width:1.25px;stroke-linejoin:bevel;"/>
            <circle cx="1567.43" cy="42.042" r="1.5" style="stroke:#000;stroke-width:1.25px;stroke-linejoin:bevel;"/>
            <circle cx="1472.43" cy="42.084" r="1.5" style="stroke:#000;stroke-width:1.25px;stroke-linejoin:bevel;"/>
            <circle cx="1500.28" cy="70.042" r="1.5" style="stroke:#000;stroke-width:1.25px;stroke-linejoin:bevel;"/>
            <circle cx="1472.43" cy="137.084" r="1.5" style="stroke:#000;stroke-width:1.25px;stroke-linejoin:bevel;"/>
            <circle cx="1524.31" cy="137.084" r="1.5" style="stroke:#000;stroke-width:1.25px;stroke-linejoin:bevel;"/>
            <circle cx="1566.93" cy="180.209" r="1.5" style="stroke:#000;stroke-width:1.25px;stroke-linejoin:bevel;"/>
            <circle cx="1524.28" cy="180.042" r="1.5" style="stroke:#000;stroke-width:1.25px;stroke-linejoin:bevel;"/>
            <circle cx="1500.08" cy="204.542" r="1.5" style="stroke:#000;stroke-width:1.25px;stroke-linejoin:bevel;"/>
            <circle cx="1662.43" cy="137.084" r="1.5" style="stroke:#000;stroke-width:1.25px;stroke-linejoin:bevel;"/>
            <circle cx="1662.43" cy="42.191" r="1.5" style="stroke:#000;stroke-width:1.25px;stroke-linejoin:bevel;"/>
        </g>
        <g>
            <path d="M1524.36,93.959L1567.18,93.519" style="fill:none;stroke:#ec9959;stroke-width:5.99px;"/>
        </g>
        <path d="M1567.43,93.519L1610.25,93.959" style="fill:none;stroke:#488e61;stroke-width:4.17px;"/>
        <g id="_7" serif:id="7">
            <circle cx="1567.18" cy="93.905" r="15.75" style="fill:#fff;stroke:#fff;stroke-width:1.46px;"/>
            <path d="M1567.93,109.434C1567.95,109.066 1567.97,108.563 1567.95,107.92C1568.69,107.829 1569.22,107.236 1569.13,106.555C1569.06,105.956 1568.64,105.464 1568.13,105.341C1568.14,105.307 1568.15,105.271 1568.15,105.235C1568.24,104.751 1568.12,104.477 1568.04,103.799C1568.25,103.803 1568.46,103.834 1568.68,103.892C1568.81,103.927 1568.95,103.967 1569.11,104.011C1569.25,104.055 1569.4,104.111 1569.55,104.178C1569.94,104.377 1570.35,104.495 1570.79,104.631C1571.23,104.783 1571.66,104.839 1572.14,104.928C1572.45,104.994 1572.76,104.92 1573.03,104.789C1573.31,104.656 1573.55,104.463 1573.7,104.174C1573.93,103.752 1574.15,103.37 1574.31,102.932L1574.55,102.311C1574.62,102.112 1574.67,101.884 1574.73,101.679C1574.9,101.069 1575.14,100.532 1575.5,100.103C1575.66,99.876 1575.87,99.684 1576.11,99.506C1576.32,99.316 1576.58,99.152 1576.87,99.009C1577.25,98.81 1577.61,98.572 1578,98.322C1578.35,98.055 1578.71,97.765 1579.08,97.449C1579.29,97.232 1579.44,96.955 1579.52,96.66C1579.61,96.368 1579.55,96.044 1579.45,95.754C1579.37,95.554 1579.29,95.361 1579.21,95.171C1579.28,95.155 1579.36,95.138 1579.43,95.119C1579.93,95.004 1580.3,95.125 1581.72,95.168L1581.62,95.35C1581.48,95.578 1581.32,95.798 1581.16,96.012C1580.95,96.296 1580.85,96.617 1580.76,96.941C1580.67,97.267 1580.66,97.612 1580.74,97.96C1580.81,98.472 1580.87,99.007 1580.91,99.56C1580.91,100.096 1580.91,100.666 1580.87,101.234C1580.83,101.652 1580.72,102.076 1580.57,102.489C1580.4,102.89 1580.17,103.266 1579.9,103.62C1579.34,104.3 1578.61,104.843 1577.79,105.084C1577.51,105.165 1577.26,105.26 1576.98,105.318L1576.16,105.486C1575.64,105.606 1575.08,105.636 1574.57,105.679C1574.23,105.716 1573.89,105.784 1573.58,105.93C1573.28,106.075 1573.01,106.304 1572.77,106.545C1572.42,106.919 1572.05,107.34 1571.63,107.673C1571.21,108.022 1570.78,108.397 1570.3,108.691C1570.12,108.808 1569.93,108.914 1569.74,109.01C1569.54,109.108 1569.34,109.194 1569.13,109.243C1568.74,109.347 1568.34,109.411 1567.93,109.434ZM1578.72,102.678C1578.96,102.361 1579.06,101.984 1579.01,101.648C1578.97,101.307 1578.76,100.996 1578.46,100.803C1578.15,100.607 1577.81,100.559 1577.49,100.602C1577.16,100.643 1576.87,100.787 1576.68,101.045C1576.49,101.306 1576.38,101.598 1576.42,101.927C1576.45,102.249 1576.58,102.584 1576.84,102.837C1577.1,103.09 1577.43,103.209 1577.78,103.183C1578.11,103.152 1578.49,102.998 1578.72,102.678Z" style="fill:#733c52;"/>
            <path d="M1553.09,95.767C1553.13,95.733 1553.19,95.699 1553.24,95.664C1553.51,95.493 1554.32,95.458 1555.12,95.683C1555.1,95.741 1555.07,95.799 1555.05,95.857C1554.94,96.147 1554.88,96.471 1554.98,96.763C1555.05,97.058 1555.2,97.336 1555.42,97.552C1555.78,97.868 1556.14,98.159 1556.49,98.425C1556.88,98.675 1557.24,98.913 1557.62,99.112C1557.92,99.255 1558.17,99.419 1558.39,99.609C1558.62,99.787 1558.83,99.979 1559,100.207C1559.36,100.635 1559.59,101.172 1559.77,101.782C1559.82,101.987 1559.87,102.215 1559.95,102.414L1560.19,103.035C1560.35,103.473 1560.57,103.855 1560.8,104.277C1560.94,104.566 1561.19,104.76 1561.46,104.892C1561.74,105.023 1562.04,105.097 1562.36,105.031C1562.83,104.942 1563.27,104.886 1563.71,104.734C1564.15,104.598 1564.55,104.48 1564.95,104.281C1565.1,104.214 1565.24,104.158 1565.39,104.114C1565.55,104.07 1565.69,104.03 1565.82,103.995C1566.1,103.918 1566.38,103.889 1566.66,103.907C1566.73,103.903 1566.8,103.901 1566.87,103.902C1566.94,104.58 1567.07,104.854 1566.98,105.338C1566.98,105.374 1566.97,105.41 1566.96,105.444C1566.87,105.42 1566.77,105.41 1566.66,105.416C1566.03,105.38 1565.45,105.943 1565.36,106.658C1565.28,107.376 1565.86,107.996 1566.66,108.033C1566.7,108.031 1566.75,108.028 1566.79,108.023C1566.8,108.666 1566.78,109.169 1566.76,109.537C1566.73,109.539 1566.69,109.541 1566.66,109.542C1566.22,109.524 1565.78,109.458 1565.36,109.346C1565.15,109.297 1564.95,109.211 1564.76,109.113C1564.56,109.017 1564.38,108.911 1564.2,108.794C1563.72,108.5 1563.28,108.125 1562.87,107.776C1562.45,107.443 1562.08,107.022 1561.72,106.648C1561.48,106.407 1561.22,106.178 1560.91,106.033C1560.61,105.887 1560.27,105.819 1559.93,105.782C1559.41,105.739 1558.86,105.709 1558.33,105.59L1557.52,105.421C1557.24,105.363 1556.98,105.269 1556.71,105.187C1555.89,104.946 1555.15,104.403 1554.59,103.723C1554.33,103.369 1554.09,102.993 1553.92,102.592C1553.77,102.179 1553.67,101.755 1553.62,101.337C1553.58,100.769 1553.59,100.199 1553.59,99.663C1553.63,99.11 1553.69,98.575 1553.76,98.063C1553.83,97.715 1553.82,97.37 1553.74,97.044C1553.64,96.72 1553.54,96.399 1553.33,96.116C1553.25,96.001 1553.17,95.885 1553.09,95.767ZM1557.65,102.94C1557.91,102.687 1558.05,102.352 1558.08,102.03C1558.11,101.701 1558.01,101.409 1557.82,101.148C1557.63,100.89 1557.33,100.746 1557.01,100.705C1556.68,100.662 1556.35,100.71 1556.04,100.907C1555.74,101.099 1555.53,101.41 1555.48,101.751C1555.44,102.087 1555.53,102.464 1555.77,102.781C1556.01,103.101 1556.38,103.255 1556.72,103.286C1557.06,103.312 1557.4,103.193 1557.65,102.94Z" style="fill:#733c52;"/>
            <path d="M1566.3,79.808C1566.5,80.139 1566.61,80.657 1566.57,80.807C1566.41,81.44 1566.43,81.658 1566.26,81.992C1565.67,82.439 1565.16,82.936 1564.71,83.452C1564.66,83.511 1564.6,83.566 1564.55,83.62C1564.5,83.681 1564.45,83.739 1564.39,83.794C1564.29,83.905 1564.17,84.005 1564.06,84.093C1563.95,84.185 1563.82,84.252 1563.71,84.332C1563.59,84.415 1563.47,84.486 1563.34,84.547C1563.22,84.608 1563.09,84.658 1562.95,84.697C1562.81,84.741 1562.68,84.794 1562.54,84.826C1562.26,84.901 1561.94,84.906 1561.63,84.937C1561.22,84.969 1560.75,84.976 1560.32,85.073C1559.88,85.155 1559.41,85.241 1558.98,85.395C1558.68,85.495 1558.4,85.653 1558.22,85.903C1558.04,86.147 1557.92,86.44 1557.88,86.746C1557.86,87.222 1557.86,87.689 1557.87,88.129C1557.91,88.59 1557.95,89.02 1558.03,89.44C1558.11,89.76 1558.14,90.062 1558.12,90.348C1558.12,90.639 1558.11,90.924 1558.04,91.193C1558.02,91.261 1558,91.328 1557.97,91.394C1557.96,91.462 1557.94,91.53 1557.92,91.597C1557.88,91.732 1557.82,91.864 1557.76,91.995C1557.7,92.126 1557.61,92.255 1557.53,92.385C1557.46,92.516 1557.38,92.646 1557.29,92.776L1556.9,93.313C1556.78,93.499 1556.68,93.69 1556.57,93.887L1556.24,94.498C1556.2,94.6 1556.15,94.704 1556.11,94.808C1555.3,94.843 1554.37,94.703 1553.61,94.383L1553.42,94.031C1553.29,93.79 1553.15,93.543 1553.04,93.29L1552.72,92.513C1552.64,92.315 1552.57,92.109 1552.52,91.898C1552.47,91.688 1552.45,91.473 1552.44,91.256C1552.43,91.038 1552.43,90.818 1552.44,90.597C1552.45,90.487 1552.46,90.377 1552.47,90.267C1552.49,90.159 1552.51,90.051 1552.54,89.944C1552.65,89.517 1552.79,89.094 1553.01,88.714C1553.24,88.337 1553.5,87.992 1553.8,87.696C1554.22,87.309 1554.67,86.96 1555.09,86.627C1555.55,86.315 1556,86.023 1556.45,85.764C1556.77,85.603 1557.03,85.382 1557.23,85.112C1557.43,84.838 1557.61,84.557 1557.7,84.214C1557.83,83.694 1558.03,83.209 1558.24,82.699C1558.44,82.175 1558.72,81.711 1558.99,81.202C1559.19,80.815 1559.49,80.51 1559.8,80.205C1559.97,80.059 1560.13,79.91 1560.32,79.79C1560.5,79.674 1560.7,79.568 1560.89,79.472C1561.09,79.376 1561.3,79.291 1561.51,79.217C1561.71,79.146 1561.93,79.111 1562.15,79.075C1562.37,79.042 1562.58,79.022 1562.8,79.015C1562.9,79.011 1563.01,79.011 1563.12,79.014C1563.22,79.025 1563.33,79.04 1563.44,79.058C1564.45,79.212 1565.41,79.462 1566.3,79.808ZM1555.07,91.85C1555.42,91.892 1555.77,91.791 1556.04,91.611C1556.17,91.521 1556.29,91.41 1556.37,91.283C1556.41,91.22 1556.45,91.152 1556.48,91.08C1556.52,91.01 1556.54,90.936 1556.56,90.859C1556.64,90.548 1556.57,90.23 1556.4,89.948C1556.24,89.672 1555.99,89.435 1555.64,89.318C1555.3,89.202 1554.93,89.234 1554.63,89.407C1554.34,89.582 1554.11,89.894 1554.01,90.279C1553.99,90.375 1553.97,90.47 1553.97,90.564C1553.97,90.66 1553.98,90.754 1554,90.844C1554.04,91.024 1554.11,91.191 1554.21,91.334C1554.4,91.62 1554.71,91.807 1555.07,91.85ZM1560.84,81.634C1560.74,81.97 1560.79,82.327 1560.98,82.633C1561.17,82.94 1561.46,83.145 1561.77,83.237C1562.07,83.317 1562.4,83.325 1562.69,83.188C1562.98,83.048 1563.17,82.781 1563.3,82.497C1563.42,82.203 1563.44,81.846 1563.32,81.506C1563.2,81.166 1562.94,80.91 1562.62,80.777C1562.29,80.632 1561.91,80.657 1561.55,80.831C1561.19,81.001 1560.93,81.287 1560.84,81.634Z" style="fill:#733c52;"/>
            <path d="M1581.57,93.807C1581.38,93.851 1581.17,93.879 1580.94,93.889C1580.13,93.924 1579.12,93.932 1578.12,93.584C1578.07,93.492 1578.02,93.402 1577.96,93.313L1577.58,92.776C1577.48,92.646 1577.4,92.516 1577.33,92.385C1577.25,92.255 1577.17,92.126 1577.1,91.995C1577.04,91.864 1576.99,91.732 1576.94,91.597C1576.92,91.53 1576.9,91.462 1576.89,91.394C1576.87,91.328 1576.85,91.261 1576.83,91.193C1576.75,90.924 1576.74,90.639 1576.74,90.348C1576.73,90.062 1576.76,89.76 1576.83,89.44C1576.91,89.02 1576.95,88.59 1577,88.129C1577,87.689 1577.01,87.222 1576.98,86.746C1576.95,86.44 1576.83,86.147 1576.64,85.903C1576.47,85.653 1576.18,85.495 1575.89,85.395C1575.45,85.241 1574.98,85.155 1574.54,85.073C1574.12,84.976 1573.65,84.969 1573.23,84.937C1572.92,84.906 1572.6,84.901 1572.32,84.826C1572.18,84.794 1572.05,84.741 1571.91,84.697C1571.78,84.658 1571.65,84.608 1571.52,84.547C1571.39,84.486 1571.27,84.415 1571.16,84.332C1571.04,84.252 1570.92,84.185 1570.8,84.093C1570.69,84.005 1570.58,83.905 1570.47,83.794C1570.42,83.739 1570.36,83.681 1570.31,83.62C1570.26,83.566 1570.2,83.511 1570.15,83.452C1569.59,82.805 1568.92,82.187 1568.14,81.662C1568.12,81.647 1568.09,81.633 1568.07,81.62C1568.06,81.541 1568.04,81.455 1568.01,81.36C1567.85,80.724 1567.94,80.287 1568.12,79.985C1568.17,79.968 1568.22,79.949 1568.27,79.928C1569.24,79.52 1570.3,79.229 1571.43,79.058C1571.53,79.04 1571.64,79.025 1571.75,79.015C1571.85,79.011 1571.96,79.011 1572.07,79.015C1572.28,79.022 1572.5,79.042 1572.71,79.075C1572.93,79.111 1573.15,79.146 1573.36,79.217C1573.57,79.291 1573.77,79.376 1573.97,79.472C1574.17,79.568 1574.36,79.674 1574.55,79.79C1574.73,79.91 1574.9,80.059 1575.06,80.205C1575.38,80.51 1575.67,80.815 1575.87,81.202C1576.15,81.711 1576.43,82.175 1576.62,82.699C1576.83,83.209 1577.03,83.694 1577.16,84.214C1577.25,84.557 1577.44,84.838 1577.63,85.112C1577.84,85.382 1578.1,85.603 1578.41,85.764C1578.87,86.023 1579.31,86.315 1579.77,86.627C1580.19,86.96 1580.64,87.309 1581.06,87.697C1581.36,87.992 1581.63,88.337 1581.86,88.714C1582.07,89.094 1582.21,89.517 1582.32,89.944C1582.35,90.051 1582.37,90.159 1582.39,90.267C1582.41,90.377 1582.41,90.487 1582.42,90.597C1582.43,90.818 1582.43,91.038 1582.42,91.256C1582.41,91.473 1582.39,91.688 1582.34,91.898C1582.29,92.109 1582.22,92.315 1582.15,92.513L1581.83,93.29C1581.75,93.466 1581.66,93.638 1581.57,93.807ZM1571.55,81.506C1571.42,81.846 1571.45,82.203 1571.56,82.497C1571.69,82.781 1571.89,83.048 1572.17,83.188C1572.47,83.325 1572.8,83.317 1573.1,83.237C1573.4,83.145 1573.69,82.94 1573.88,82.633C1574.07,82.327 1574.12,81.971 1574.02,81.634C1573.93,81.287 1573.67,81.001 1573.31,80.831C1572.95,80.657 1572.57,80.632 1572.24,80.777C1571.92,80.91 1571.67,81.166 1571.55,81.506ZM1580.86,90.844C1580.88,90.754 1580.89,90.66 1580.89,90.564C1580.89,90.47 1580.88,90.375 1580.85,90.279C1580.75,89.894 1580.52,89.582 1580.23,89.407C1579.93,89.234 1579.56,89.202 1579.22,89.318C1578.88,89.435 1578.62,89.672 1578.46,89.948C1578.29,90.23 1578.22,90.549 1578.3,90.859C1578.32,90.936 1578.35,91.01 1578.38,91.08C1578.41,91.152 1578.45,91.22 1578.49,91.283C1578.58,91.41 1578.69,91.521 1578.83,91.611C1579.09,91.791 1579.44,91.892 1579.8,91.85C1580.16,91.807 1580.46,91.62 1580.65,91.334C1580.75,91.191 1580.82,91.024 1580.86,90.844Z" style="fill:#733c52;"/>
        </g>
    </g>
</svg>
