<?xml version="1.0" encoding="UTF-8" standalone="no"?>
<!DOCTYPE svg PUBLIC "-//W3C//DTD SVG 1.1//EN" "http://www.w3.org/Graphics/SVG/1.1/DTD/svg11.dtd">
<svg width="100%" height="100%" viewBox="0 0 1700 2481" version="1.1" xmlns="http://www.w3.org/2000/svg" xmlns:xlink="http://www.w3.org/1999/xlink" xml:space="preserve" xmlns:serif="http://www.serif.com/" style="fill-rule:evenodd;clip-rule:evenodd;stroke-linecap:round;stroke-linejoin:round;stroke-miterlimit:1.5;">
    <rect id="B2A2" x="0" y="0.007" width="1700" height="2480" style="fill:none;"/>
    <g id="Fields" opacity="0.2">
        <path id="_8" serif:id="8" d="M373.045,1368.01L10.541,1462.53L11,2065.01L497.539,1586.11C441.322,1529.46 398.828,1458.81 373.045,1368.01Z" style="fill:#9a945d;stroke:#767676;stroke-width:8.33px;"/>
    </g>
    <g id="S">
        <g id="Ring">
            <path id="Backer" d="M1261.43,1477.01C1130.55,1703.71 840.239,1781.51 613.55,1650.63C386.862,1519.75 309.085,1229.45 439.973,1002.75C570.862,776.044 861.169,698.247 1087.86,829.122C1314.55,959.998 1392.32,1250.31 1261.43,1477.01Z" style="fill:#fff;"/>
            <path d="M1261.43,1477.01C1130.55,1703.71 840.239,1781.51 613.55,1650.63C386.862,1519.75 309.085,1229.45 439.973,1002.75C570.862,776.044 861.169,698.247 1087.86,829.122C1314.55,959.998 1392.32,1250.31 1261.43,1477.01Z" style="fill:none;stroke:#000;stroke-width:8.33px;"/>
            <path d="M1261.43,1477.01L1235.18,1461.85" style="fill:none;stroke:#000;stroke-width:8.33px;"/>
            <path d="M466.231,1017.9L439.973,1002.75" style="fill:none;stroke:#000;stroke-width:8.33px;"/>
            <path d="M628.71,1624.37L613.55,1650.63" style="fill:none;stroke:#000;stroke-width:8.33px;"/>
            <path d="M1087.86,829.122L1072.7,855.379" style="fill:none;stroke:#000;stroke-width:8.33px;"/>
            <path d="M1087.85,1650.61L1072.69,1624.36" style="fill:none;stroke:#000;stroke-width:8.33px;"/>
            <path d="M628.72,855.397L613.56,829.14" style="fill:none;stroke:#000;stroke-width:8.33px;"/>
            <path d="M466.201,1461.86L439.944,1477.02" style="fill:none;stroke:#000;stroke-width:8.33px;"/>
            <path d="M1261.46,1002.73L1235.21,1017.89" style="fill:none;stroke:#000;stroke-width:8.33px;"/>
            <path d="M850.704,1714.17L850.704,1683.85" style="fill:none;stroke:#000;stroke-width:8.33px;"/>
            <path d="M850.704,795.899L850.704,765.581" style="fill:none;stroke:#000;stroke-width:8.33px;"/>
            <path d="M406.736,1239.88L376.417,1239.88" style="fill:none;stroke:#000;stroke-width:8.33px;"/>
            <path d="M1324.99,1239.88L1294.67,1239.88" style="fill:none;stroke:#000;stroke-width:8.33px;"/>
        </g>
        <g id="Root-Markers" serif:id="Root Markers">
            <path id="_5" serif:id="5" d="M1035.4,1558.57L953.545,1489.4L1016.42,1453.1L1035.4,1558.57ZM1007.11,1509.58L1002.39,1483.33L986.74,1492.36L1007.11,1509.58Z" style="fill:#ec9959;"/>
        </g>
        <g id="Notes">
            <path id="_51" serif:id="5" d="M1156.02,1693.34C1134.04,1731.43 1085.26,1744.5 1047.17,1722.51C1009.09,1700.52 996.019,1651.74 1018.01,1613.66C1040,1575.57 1088.77,1562.5 1126.86,1584.49C1164.94,1606.48 1178.01,1655.25 1156.02,1693.34Z" style="fill:#ec9959;stroke:#fff;stroke-width:24px;"/>
            <path id="_3" serif:id="3" d="M1392.1,1284.32C1370.11,1322.41 1321.34,1335.48 1283.25,1313.49C1245.16,1291.5 1232.1,1242.73 1254.09,1204.64C1276.08,1166.56 1324.85,1153.49 1362.93,1175.48C1401.02,1197.46 1414.09,1246.24 1392.1,1284.32Z" style="fill:#ec9959;stroke:#fff;stroke-width:24px;"/>
            <path id="_0" serif:id="0" d="M919.712,810.605C897.722,848.69 848.949,861.759 810.862,839.77C772.775,817.781 759.707,769.008 781.696,730.923C803.685,692.837 852.459,679.768 890.546,701.757C928.632,723.746 941.701,772.519 919.712,810.605Z" style="fill:#ec9959;stroke:#fff;stroke-width:24px;"/>
        </g>
        <g id="Treble-Marker" serif:id="Treble Marker">
            <g id="_81" serif:id="8">
                <path id="_8u" serif:id="8u" d="M510.492,1521.3C488.503,1559.38 439.729,1572.45 401.643,1550.47C363.556,1528.48 350.487,1479.7 372.476,1441.62C394.466,1403.53 443.24,1390.46 481.326,1412.45C519.413,1434.44 532.482,1483.21 510.492,1521.3Z" style="fill:#fff;stroke:#fff;stroke-width:33.33px;"/>
                <circle id="_8a" serif:id="8a" cx="441.484" cy="1481.46" r="64" style="fill:#fff;stroke:#ec9959;stroke-width:16.67px;"/>
            </g>
        </g>
    </g>
    <g id="Songs">
        <g id="song-7-masks" serif:id="song 7 masks">
            <g id="B2A21" serif:id="B2A2">
                <path d="M135.009,1751.01C115.612,1751.12 96.2,1743.64 81.623,1728.65L55.866,1702.17C42.499,1688.42 35.561,1670.79 35,1653.01L135.668,1653.19L135.009,1751.01Z" style="fill:#ec9959;stroke:#fff;stroke-width:1.67px;"/>
                <path d="M234.931,1653.37C234.433,1671.96 226.968,1690.38 212.596,1704.36L186.109,1730.11C171.863,1743.97 153.442,1750.91 135.009,1751.01L135.668,1653.19L234.931,1653.37Z" style="fill:#ec9959;stroke:#fff;stroke-width:1.67px;"/>
                <path d="M135.009,1654.02L135.009,1750.02" style="fill:none;stroke:#ec9959;stroke-width:4.17px;stroke-linecap:butt;"/>
                <path d="M139.18,1737.4C139.288,1735.31 139.405,1732.45 139.328,1728.8C143.526,1728.29 146.481,1724.92 146.013,1721.06C145.601,1717.66 143.211,1714.86 140.344,1714.17C140.38,1713.97 140.416,1713.77 140.452,1713.56C140.917,1710.82 140.241,1709.26 139.8,1705.41C141.007,1705.43 142.218,1705.61 143.445,1705.94C144.175,1706.14 144.98,1706.37 145.88,1706.62C146.695,1706.87 147.518,1707.18 148.354,1707.57C150.615,1708.69 152.92,1709.36 155.393,1710.13C157.896,1711 160.376,1711.32 163.062,1711.82C164.864,1712.19 166.585,1711.78 168.148,1711.04C169.705,1710.28 171.097,1709.18 171.931,1707.54C173.223,1705.15 174.498,1702.98 175.394,1700.49L176.753,1696.97C177.194,1695.84 177.459,1694.54 177.785,1693.38C178.782,1689.91 180.111,1686.87 182.154,1684.43C183.083,1683.14 184.28,1682.06 185.602,1681.04C186.821,1679.97 188.269,1679.03 189.948,1678.22C192.107,1677.09 194.14,1675.74 196.36,1674.32C198.356,1672.81 200.402,1671.16 202.451,1669.37C203.682,1668.14 204.547,1666.56 204.98,1664.89C205.498,1663.23 205.164,1661.39 204.559,1659.75C204.104,1658.61 203.692,1657.51 203.209,1656.43C203.611,1656.34 204.039,1656.25 204.494,1656.14C207.319,1655.49 209.391,1656.18 217.463,1656.42L216.885,1657.45C216.076,1658.75 215.166,1659.99 214.315,1661.21C213.122,1662.82 212.551,1664.65 211.993,1666.48C211.518,1668.34 211.476,1670.29 211.882,1672.27C212.298,1675.17 212.615,1678.21 212.844,1681.35C212.847,1684.39 212.895,1687.63 212.643,1690.85C212.389,1693.23 211.807,1695.63 210.949,1697.98C209.99,1700.25 208.649,1702.39 207.15,1704.39C203.974,1708.26 199.811,1711.34 195.137,1712.7C193.58,1713.17 192.129,1713.71 190.549,1714.04L185.92,1714.99C182.945,1715.67 179.796,1715.84 176.865,1716.09C174.94,1716.3 172.995,1716.68 171.273,1717.51C169.545,1718.33 168.041,1719.63 166.677,1721C164.653,1723.12 162.565,1725.52 160.173,1727.4C157.811,1729.39 155.335,1731.52 152.625,1733.18C151.621,1733.85 150.559,1734.45 149.453,1735C148.347,1735.55 147.198,1736.04 146.006,1736.32C143.804,1736.9 141.495,1737.27 139.18,1737.4ZM200.457,1699.05C201.81,1697.25 202.364,1695.11 202.109,1693.2C201.832,1691.27 200.651,1689.5 198.944,1688.41C197.201,1687.29 195.277,1687.02 193.45,1687.26C191.591,1687.5 189.933,1688.32 188.847,1689.78C187.782,1691.26 187.182,1692.92 187.371,1694.79C187.529,1696.61 188.311,1698.52 189.769,1699.95C191.227,1701.39 193.123,1702.07 195.08,1701.91C196.993,1701.74 199.124,1700.87 200.457,1699.05Z" style="fill:#e7e7e7;"/>
                <path d="M54.92,1659.82C55.198,1659.62 55.49,1659.43 55.798,1659.24C57.327,1658.26 61.939,1658.06 66.459,1659.34C66.33,1659.67 66.201,1660 66.068,1660.33C65.462,1661.98 65.128,1663.82 65.647,1665.47C66.08,1667.15 66.945,1668.72 68.175,1669.95C70.225,1671.75 72.27,1673.39 74.266,1674.91C76.487,1676.32 78.519,1677.68 80.679,1678.81C82.357,1679.62 83.805,1680.55 85.025,1681.63C86.346,1682.64 87.544,1683.73 88.472,1685.02C90.515,1687.45 91.844,1690.5 92.841,1693.97C93.168,1695.13 93.432,1696.42 93.874,1697.55L95.232,1701.08C96.128,1703.56 97.403,1705.73 98.695,1708.13C99.53,1709.77 100.921,1710.87 102.478,1711.62C104.041,1712.36 105.762,1712.78 107.565,1712.41C110.25,1711.9 112.73,1711.59 115.234,1710.72C117.705,1709.95 120.012,1709.28 122.272,1708.15C123.108,1707.77 123.932,1707.45 124.746,1707.2C125.646,1706.95 126.452,1706.73 127.181,1706.52C128.803,1706.09 130.397,1705.92 131.992,1706.03C132.38,1706 132.768,1705.99 133.157,1706C133.598,1709.85 134.274,1711.4 133.809,1714.15C133.773,1714.36 133.737,1714.56 133.701,1714.75C133.146,1714.62 132.572,1714.56 131.992,1714.59C128.417,1714.39 125.105,1717.59 124.613,1721.64C124.12,1725.72 127.43,1729.24 131.991,1729.45C132.226,1729.44 132.457,1729.42 132.685,1729.39C132.762,1733.04 132.645,1735.9 132.537,1737.99C132.355,1738 132.174,1738.01 131.992,1738.01C129.494,1737.91 126.996,1737.54 124.619,1736.9C123.428,1736.62 122.279,1736.13 121.173,1735.58C120.067,1735.04 119.005,1734.43 118.001,1733.77C115.292,1732.1 112.815,1729.97 110.453,1727.99C108.061,1726.1 105.974,1723.71 103.95,1721.59C102.586,1720.22 101.081,1718.92 99.353,1718.1C97.632,1717.26 95.687,1716.88 93.762,1716.67C90.831,1716.43 87.681,1716.26 84.707,1715.58L80.078,1714.62C78.497,1714.29 77.046,1713.76 75.489,1713.29C70.816,1711.92 66.652,1708.84 63.477,1704.98C61.978,1702.97 60.637,1700.84 59.678,1698.56C58.819,1696.22 58.237,1693.81 57.983,1691.44C57.73,1688.21 57.779,1684.98 57.783,1681.94C58.01,1678.79 58.329,1675.76 58.744,1672.85C59.15,1670.88 59.108,1668.92 58.634,1667.07C58.075,1665.23 57.504,1663.4 56.311,1661.8C55.856,1661.15 55.385,1660.49 54.92,1659.82ZM80.858,1700.54C82.316,1699.1 83.098,1697.2 83.255,1695.37C83.445,1693.5 82.844,1691.85 81.779,1690.37C80.694,1688.9 79.034,1688.08 77.177,1687.85C75.35,1687.61 73.426,1687.88 71.682,1688.99C69.975,1690.08 68.794,1691.85 68.518,1693.79C68.262,1695.7 68.815,1697.84 70.17,1699.63C71.502,1701.45 73.634,1702.32 75.546,1702.5C77.503,1702.65 79.4,1701.98 80.858,1700.54Z" style="fill:#e7e7e7;"/>
            </g>
            <g id="A">
                <path d="M136.394,1551.84C155.307,1552.11 174.119,1559.58 188.335,1574.2L214.092,1600.68C228.546,1615.55 235.483,1634.95 234.968,1654.18L135.705,1654L136.394,1551.84Z" style="fill:#ec9959;stroke:#fff;stroke-width:1.67px;"/>
                <path d="M35.037,1653.82C34.405,1633.78 41.871,1613.56 57.362,1598.49L83.849,1572.74C98.467,1558.52 117.481,1551.58 136.394,1551.84L135.705,1654L35.037,1653.82Z" style="fill:#ec9959;stroke:#fff;stroke-width:1.67px;"/>
                <path d="M135.705,1552.83L135.403,1653.18" style="fill:none;stroke:#ec9959;stroke-width:4.17px;stroke-linecap:butt;"/>
                <path d="M129.945,1569.23C131.087,1571.1 131.699,1574.04 131.477,1574.9C130.546,1578.49 130.659,1579.73 129.72,1581.63C126.383,1584.16 123.441,1586.98 120.912,1589.91C120.614,1590.25 120.308,1590.56 120.001,1590.87C119.707,1591.21 119.408,1591.54 119.103,1591.86C118.495,1592.48 117.868,1593.05 117.218,1593.55C116.575,1594.07 115.878,1594.45 115.212,1594.91C114.551,1595.38 113.865,1595.78 113.149,1596.13C112.433,1596.47 111.687,1596.76 110.909,1596.98C110.143,1597.23 109.403,1597.53 108.596,1597.71C107.023,1598.14 105.188,1598.16 103.442,1598.34C101.074,1598.52 98.414,1598.56 95.99,1599.11C93.498,1599.58 90.828,1600.06 88.355,1600.94C86.703,1601.51 85.066,1602.41 84.069,1603.82C83.034,1605.21 82.348,1606.88 82.156,1608.61C82.003,1611.31 82.02,1613.96 82.061,1616.46C82.335,1619.08 82.552,1621.52 83.001,1623.9C83.417,1625.72 83.594,1627.43 83.514,1629.06C83.519,1630.71 83.451,1632.33 83.02,1633.86C82.918,1634.24 82.799,1634.62 82.664,1635C82.578,1635.38 82.477,1635.77 82.359,1636.15C82.122,1636.91 81.818,1637.66 81.449,1638.41C81.093,1639.15 80.611,1639.88 80.172,1640.62C79.768,1641.37 79.296,1642.1 78.758,1642.84L76.578,1645.89C75.884,1646.94 75.334,1648.03 74.701,1649.15L72.852,1652.62C72.583,1653.2 72.337,1653.78 72.098,1654.38C67.49,1654.57 62.193,1653.78 57.91,1651.96L56.8,1649.97C56.079,1648.6 55.279,1647.2 54.632,1645.76L52.829,1641.35C52.385,1640.22 52.01,1639.05 51.703,1637.86C51.43,1636.66 51.338,1635.44 51.256,1634.21C51.188,1632.97 51.191,1631.72 51.261,1630.47C51.297,1629.85 51.349,1629.22 51.419,1628.6C51.539,1627.99 51.676,1627.37 51.828,1626.77C52.464,1624.34 53.266,1621.94 54.476,1619.78C55.772,1617.64 57.293,1615.68 58.989,1614.01C61.367,1611.8 63.915,1609.83 66.3,1607.93C68.916,1606.17 71.453,1604.51 74.014,1603.04C75.806,1602.12 77.301,1600.87 78.449,1599.34C79.559,1597.78 80.62,1596.18 81.119,1594.24C81.854,1591.28 82.989,1588.53 84.178,1585.64C85.298,1582.66 86.886,1580.03 88.439,1577.14C89.573,1574.94 91.265,1573.21 93.061,1571.48C93.979,1570.65 94.921,1569.81 95.964,1569.12C97.021,1568.47 98.121,1567.86 99.251,1567.32C100.381,1566.77 101.54,1566.29 102.714,1565.87C103.893,1565.47 105.147,1565.27 106.369,1565.06C107.599,1564.88 108.829,1564.76 110.046,1564.72C110.654,1564.7 111.258,1564.7 111.859,1564.72C112.471,1564.78 113.081,1564.87 113.682,1564.97C119.453,1565.84 124.903,1567.26 129.945,1569.23ZM66.158,1637.58C68.192,1637.82 70.159,1637.25 71.676,1636.23C72.434,1635.72 73.08,1635.09 73.568,1634.37C73.814,1634.01 74.011,1633.62 74.182,1633.22C74.389,1632.82 74.552,1632.4 74.668,1631.96C75.127,1630.19 74.725,1628.39 73.745,1626.79C72.826,1625.22 71.39,1623.88 69.438,1623.21C67.514,1622.55 65.419,1622.74 63.704,1623.72C62.057,1624.71 60.736,1626.48 60.181,1628.66C60.042,1629.21 59.959,1629.75 59.926,1630.29C59.93,1630.83 60.002,1631.36 60.11,1631.87C60.332,1632.9 60.737,1633.84 61.294,1634.65C62.407,1636.28 64.125,1637.34 66.158,1637.58ZM98.958,1579.59C98.397,1581.5 98.648,1583.52 99.727,1585.26C100.805,1587.01 102.472,1588.17 104.198,1588.69C105.9,1589.15 107.782,1589.19 109.427,1588.41C111.065,1587.62 112.196,1586.1 112.898,1584.49C113.564,1582.82 113.694,1580.79 113.004,1578.86C112.314,1576.94 110.888,1575.48 109.041,1574.73C107.175,1573.9 105.001,1574.05 102.973,1575.03C100.936,1576 99.479,1577.62 98.958,1579.59Z" style="fill:#e7e7e7;"/>
                <path d="M216.594,1648.69C215.509,1648.94 214.325,1649.1 213.033,1649.16C208.426,1649.36 202.68,1649.4 197.056,1647.42C196.765,1646.9 196.466,1646.39 196.134,1645.89L193.953,1642.84C193.415,1642.1 192.943,1641.37 192.539,1640.62C192.101,1639.88 191.618,1639.15 191.263,1638.41C190.893,1637.66 190.59,1636.91 190.353,1636.15C190.235,1635.77 190.134,1635.38 190.048,1635C189.912,1634.62 189.794,1634.24 189.692,1633.85C189.26,1632.33 189.192,1630.71 189.198,1629.06C189.118,1627.43 189.294,1625.72 189.711,1623.91C190.16,1621.52 190.377,1619.08 190.65,1616.46C190.692,1613.96 190.708,1611.31 190.555,1608.61C190.364,1606.87 189.678,1605.21 188.643,1603.82C187.646,1602.41 186.008,1601.51 184.357,1600.94C181.884,1600.06 179.214,1599.58 176.722,1599.11C174.297,1598.56 171.637,1598.52 169.27,1598.34C167.524,1598.16 165.688,1598.14 164.116,1597.71C163.308,1597.53 162.568,1597.23 161.803,1596.98C161.024,1596.76 160.279,1596.47 159.563,1596.13C158.847,1595.78 158.161,1595.38 157.499,1594.91C156.834,1594.45 156.137,1594.07 155.494,1593.55C154.844,1593.05 154.217,1592.48 153.608,1591.86C153.304,1591.54 153.005,1591.21 152.71,1590.87C152.403,1590.56 152.098,1590.25 151.799,1589.91C148.628,1586.24 144.804,1582.73 140.368,1579.75C140.243,1579.67 140.116,1579.59 139.988,1579.51C139.909,1579.06 139.805,1578.57 139.666,1578.04C138.732,1574.42 139.261,1571.95 140.272,1570.23C140.546,1570.13 140.818,1570.03 141.088,1569.91C146.592,1567.59 152.612,1565.94 159.03,1564.97C159.631,1564.87 160.241,1564.78 160.853,1564.72C161.453,1564.7 162.058,1564.7 162.666,1564.72C163.883,1564.76 165.113,1564.88 166.343,1565.06C167.565,1565.27 168.819,1565.47 169.997,1565.87C171.172,1566.29 172.33,1566.77 173.461,1567.32C174.59,1567.86 175.69,1568.47 176.748,1569.12C177.791,1569.81 178.732,1570.65 179.651,1571.48C181.447,1573.21 183.139,1574.94 184.273,1577.14C185.826,1580.03 187.414,1582.66 188.534,1585.64C189.723,1588.53 190.857,1591.28 191.593,1594.24C192.092,1596.18 193.152,1597.78 194.263,1599.34C195.41,1600.87 196.906,1602.12 198.697,1603.04C201.259,1604.51 203.796,1606.17 206.412,1607.93C208.797,1609.83 211.345,1611.8 213.723,1614.01C215.419,1615.68 216.939,1617.64 218.235,1619.78C219.446,1621.94 220.248,1624.34 220.883,1626.77C221.036,1627.37 221.173,1627.99 221.292,1628.6C221.363,1629.22 221.414,1629.85 221.45,1630.47C221.521,1631.72 221.523,1632.97 221.455,1634.21C221.373,1635.45 221.281,1636.66 221.009,1637.86C220.702,1639.05 220.327,1640.22 219.883,1641.35L218.079,1645.76C217.632,1646.75 217.111,1647.73 216.594,1648.69ZM159.708,1578.86C159.019,1580.79 159.148,1582.82 159.814,1584.49C160.515,1586.1 161.647,1587.62 163.285,1588.41C164.93,1589.19 166.812,1589.15 168.514,1588.69C170.239,1588.17 171.906,1587.01 172.985,1585.26C174.064,1583.52 174.315,1581.5 173.754,1579.59C173.234,1577.62 171.776,1576 169.739,1575.03C167.711,1574.05 165.537,1573.9 163.671,1574.73C161.825,1575.48 160.398,1576.94 159.708,1578.86ZM212.601,1631.87C212.71,1631.36 212.782,1630.83 212.786,1630.29C212.753,1629.75 212.669,1629.21 212.531,1628.66C211.976,1626.48 210.655,1624.71 209.008,1623.72C207.293,1622.74 205.197,1622.55 203.274,1623.21C201.322,1623.88 199.886,1625.22 198.967,1626.79C197.986,1628.39 197.585,1630.2 198.044,1631.96C198.159,1632.4 198.323,1632.82 198.53,1633.21C198.701,1633.62 198.897,1634.01 199.143,1634.37C199.632,1635.09 200.277,1635.72 201.036,1636.23C202.553,1637.25 204.52,1637.82 206.554,1637.58C208.587,1637.34 210.304,1636.28 211.417,1634.65C211.974,1633.84 212.38,1632.9 212.601,1631.87Z" style="fill:#e7e7e7;"/>
            </g>
        </g>
    </g>
    <g id="Map">
        <g id="Frame">
            <rect x="1471.5" y="41.549" width="190" height="190" style="fill:#fff;"/>
            <rect x="1471.5" y="41.549" width="190" height="190" style="fill:none;stroke:#000;stroke-width:1.17px;stroke-linejoin:bevel;"/>
            <rect x="1523.38" y="93.424" width="86.25" height="86.25" style="fill:none;stroke:#000;stroke-width:1.25px;stroke-linejoin:bevel;"/>
            <path d="M1609.62,93.424L1661.5,41.757" style="fill:none;stroke:#000;stroke-width:1.25px;stroke-linejoin:bevel;"/>
            <path d="M1523.38,93.424L1471.92,41.757" style="fill:none;stroke:#000;stroke-width:1.25px;stroke-linejoin:bevel;"/>
            <path d="M1523.38,179.674L1471.5,231.549" style="fill:none;stroke:#000;stroke-width:1.25px;stroke-linejoin:bevel;"/>
            <path d="M1609.62,179.674L1661.5,231.549" style="fill:none;stroke:#000;stroke-width:1.25px;stroke-linejoin:bevel;"/>
        </g>
        <g id="Dots">
            <circle cx="1471.5" cy="231.507" r="1.5" style="stroke:#000;stroke-width:1.25px;stroke-linejoin:bevel;"/>
            <circle cx="1566.2" cy="231.632" r="1.5" style="stroke:#000;stroke-width:1.25px;stroke-linejoin:bevel;"/>
            <circle cx="1661.5" cy="231.507" r="1.5" style="stroke:#000;stroke-width:1.25px;stroke-linejoin:bevel;"/>
            <circle cx="1633.85" cy="203.674" r="1.5" style="stroke:#000;stroke-width:1.25px;stroke-linejoin:bevel;"/>
            <circle cx="1609.62" cy="179.507" r="1.5" style="stroke:#000;stroke-width:1.25px;stroke-linejoin:bevel;"/>
            <circle cx="1609.2" cy="136.632" r="1.5" style="stroke:#000;stroke-width:1.25px;stroke-linejoin:bevel;"/>
            <circle cx="1609.32" cy="93.382" r="1.5" style="stroke:#000;stroke-width:1.25px;stroke-linejoin:bevel;"/>
            <circle cx="1633.76" cy="69.174" r="1.5" style="stroke:#000;stroke-width:1.25px;stroke-linejoin:bevel;"/>
            <circle cx="1566.2" cy="93.382" r="1.5" style="stroke:#000;stroke-width:1.25px;stroke-linejoin:bevel;"/>
            <circle cx="1523.07" cy="93.507" r="1.5" style="stroke:#000;stroke-width:1.25px;stroke-linejoin:bevel;"/>
            <circle cx="1566.5" cy="41.507" r="1.5" style="stroke:#000;stroke-width:1.25px;stroke-linejoin:bevel;"/>
            <circle cx="1471.5" cy="41.549" r="1.5" style="stroke:#000;stroke-width:1.25px;stroke-linejoin:bevel;"/>
            <circle cx="1499.35" cy="69.507" r="1.5" style="stroke:#000;stroke-width:1.25px;stroke-linejoin:bevel;"/>
            <circle cx="1471.5" cy="136.549" r="1.5" style="stroke:#000;stroke-width:1.25px;stroke-linejoin:bevel;"/>
            <circle cx="1523.38" cy="136.549" r="1.5" style="stroke:#000;stroke-width:1.25px;stroke-linejoin:bevel;"/>
            <circle cx="1566" cy="179.674" r="1.5" style="stroke:#000;stroke-width:1.25px;stroke-linejoin:bevel;"/>
            <circle cx="1523.35" cy="179.507" r="1.5" style="stroke:#000;stroke-width:1.25px;stroke-linejoin:bevel;"/>
            <circle cx="1499.15" cy="204.007" r="1.5" style="stroke:#000;stroke-width:1.25px;stroke-linejoin:bevel;"/>
            <circle cx="1661.5" cy="136.549" r="1.5" style="stroke:#000;stroke-width:1.25px;stroke-linejoin:bevel;"/>
            <circle cx="1661.49" cy="41.657" r="1.5" style="stroke:#000;stroke-width:1.25px;stroke-linejoin:bevel;"/>
        </g>
        <g>
            <path d="M1523.43,93.424L1566.25,92.984" style="fill:none;stroke:#ec9959;stroke-width:5.99px;"/>
        </g>
        <path d="M1525.81,87.545C1529.06,88.889 1530.6,92.615 1529.26,95.86C1527.91,99.105 1524.18,100.648 1520.94,99.304C1517.69,97.96 1516.15,94.234 1517.5,90.989C1518.84,87.744 1522.57,86.2 1525.81,87.545Z" style="fill:#fff;stroke:#ec9959;stroke-width:5.99px;"/>
        <g id="_7" serif:id="7">
            <circle cx="1566.25" cy="93.37" r="15.75" style="fill:#fff;stroke:#fff;stroke-width:1.46px;"/>
            <path d="M1567,108.899C1567.02,108.531 1567.04,108.028 1567.02,107.385C1567.76,107.294 1568.28,106.701 1568.2,106.02C1568.13,105.422 1567.71,104.929 1567.2,104.806C1567.21,104.772 1567.22,104.737 1567.22,104.7C1567.3,104.216 1567.18,103.943 1567.11,103.265C1567.32,103.268 1567.53,103.299 1567.75,103.357C1567.88,103.393 1568.02,103.432 1568.18,103.476C1568.32,103.52 1568.47,103.576 1568.61,103.643C1569.01,103.842 1569.42,103.96 1569.85,104.096C1570.3,104.249 1570.73,104.305 1571.2,104.393C1571.52,104.459 1571.83,104.385 1572.1,104.255C1572.38,104.122 1572.62,103.928 1572.77,103.64C1573,103.217 1573.22,102.835 1573.38,102.397L1573.62,101.777C1573.69,101.577 1573.74,101.349 1573.8,101.145C1573.97,100.534 1574.21,99.998 1574.57,99.569C1574.73,99.341 1574.94,99.15 1575.17,98.971C1575.39,98.781 1575.64,98.617 1575.94,98.475C1576.32,98.276 1576.68,98.037 1577.07,97.787C1577.42,97.521 1577.78,97.231 1578.14,96.915C1578.36,96.698 1578.51,96.421 1578.59,96.125C1578.68,95.833 1578.62,95.509 1578.52,95.219C1578.43,95.02 1578.36,94.826 1578.28,94.636C1578.35,94.62 1578.42,94.603 1578.5,94.584C1579,94.469 1579.37,94.591 1580.79,94.633L1580.69,94.816C1580.54,95.044 1580.38,95.263 1580.23,95.478C1580.02,95.761 1579.92,96.083 1579.82,96.406C1579.74,96.733 1579.73,97.077 1579.81,97.425C1579.88,97.938 1579.93,98.472 1579.97,99.026C1579.98,99.562 1579.98,100.131 1579.94,100.699C1579.89,101.117 1579.79,101.542 1579.64,101.955C1579.47,102.355 1579.24,102.732 1578.97,103.085C1578.41,103.766 1577.68,104.308 1576.86,104.549C1576.58,104.631 1576.33,104.726 1576.05,104.783L1575.23,104.952C1574.71,105.071 1574.15,105.102 1573.64,105.145C1573.3,105.181 1572.95,105.249 1572.65,105.396C1572.35,105.54 1572.08,105.769 1571.84,106.011C1571.49,106.384 1571.12,106.806 1570.7,107.138C1570.28,107.488 1569.84,107.863 1569.37,108.156C1569.19,108.273 1569,108.38 1568.81,108.476C1568.61,108.573 1568.41,108.659 1568.2,108.708C1567.81,108.812 1567.4,108.876 1567,108.899ZM1577.79,102.143C1578.03,101.827 1578.13,101.45 1578.08,101.113C1578.03,100.773 1577.83,100.461 1577.53,100.269C1577.22,100.072 1576.88,100.024 1576.56,100.067C1576.23,100.108 1575.94,100.253 1575.75,100.51C1575.56,100.771 1575.45,101.063 1575.49,101.392C1575.52,101.714 1575.65,102.049 1575.91,102.303C1576.17,102.556 1576.5,102.675 1576.85,102.648C1577.18,102.617 1577.56,102.463 1577.79,102.143Z" style="fill:#733c52;"/>
            <path d="M1552.15,95.232C1552.2,95.198 1552.26,95.164 1552.31,95.13C1552.58,94.958 1553.39,94.923 1554.19,95.149C1554.16,95.206 1554.14,95.264 1554.12,95.322C1554.01,95.612 1553.95,95.937 1554.04,96.228C1554.12,96.524 1554.27,96.801 1554.49,97.018C1554.85,97.334 1555.21,97.624 1555.56,97.89C1555.95,98.14 1556.31,98.379 1556.69,98.578C1556.99,98.72 1557.24,98.884 1557.46,99.074C1557.69,99.253 1557.9,99.444 1558.07,99.672C1558.42,100.101 1558.66,100.637 1558.83,101.248C1558.89,101.452 1558.94,101.68 1559.02,101.88L1559.26,102.5C1559.41,102.938 1559.64,103.32 1559.87,103.743C1560.01,104.031 1560.26,104.225 1560.53,104.358C1560.81,104.488 1561.11,104.562 1561.43,104.497C1561.9,104.408 1562.34,104.352 1562.78,104.199C1563.22,104.063 1563.62,103.945 1564.02,103.746C1564.17,103.679 1564.31,103.623 1564.45,103.579C1564.61,103.535 1564.76,103.496 1564.88,103.46C1565.17,103.384 1565.45,103.354 1565.73,103.372C1565.8,103.368 1565.87,103.366 1565.94,103.368C1566.01,104.046 1566.13,104.319 1566.05,104.803C1566.05,104.84 1566.04,104.875 1566.03,104.909C1565.93,104.885 1565.83,104.876 1565.73,104.881C1565.1,104.845 1564.52,105.409 1564.43,106.123C1564.35,106.841 1564.93,107.461 1565.73,107.498C1565.77,107.496 1565.81,107.493 1565.85,107.488C1565.87,108.131 1565.85,108.634 1565.83,109.003C1565.8,109.004 1565.76,109.006 1565.73,109.007C1565.29,108.989 1564.85,108.923 1564.43,108.811C1564.22,108.762 1564.02,108.676 1563.83,108.579C1563.63,108.483 1563.44,108.376 1563.27,108.26C1562.79,107.966 1562.35,107.591 1561.94,107.242C1561.52,106.909 1561.15,106.487 1560.79,106.114C1560.55,105.872 1560.29,105.643 1559.98,105.499C1559.68,105.352 1559.34,105.285 1559,105.248C1558.48,105.205 1557.92,105.174 1557.4,105.055L1556.59,104.887C1556.31,104.829 1556.05,104.734 1555.78,104.652C1554.95,104.411 1554.22,103.869 1553.66,103.188C1553.4,102.835 1553.16,102.458 1552.99,102.058C1552.84,101.645 1552.74,101.22 1552.69,100.803C1552.65,100.234 1552.66,99.665 1552.66,99.129C1552.7,98.575 1552.76,98.041 1552.83,97.528C1552.9,97.18 1552.89,96.836 1552.81,96.509C1552.71,96.186 1552.61,95.864 1552.4,95.581C1552.32,95.466 1552.24,95.35 1552.15,95.232ZM1556.72,102.406C1556.98,102.152 1557.12,101.817 1557.15,101.495C1557.18,101.166 1557.07,100.874 1556.89,100.613C1556.69,100.356 1556.4,100.211 1556.08,100.17C1555.75,100.127 1555.41,100.175 1555.11,100.372C1554.81,100.564 1554.6,100.876 1554.55,101.216C1554.5,101.553 1554.6,101.929 1554.84,102.246C1555.08,102.566 1555.45,102.72 1555.79,102.751C1556.13,102.778 1556.47,102.659 1556.72,102.406Z" style="fill:#733c52;"/>
            <path d="M1565.37,79.274C1565.57,79.604 1565.68,80.122 1565.64,80.273C1565.48,80.906 1565.5,81.124 1565.33,81.458C1564.74,81.905 1564.23,82.401 1563.78,82.917C1563.73,82.976 1563.67,83.031 1563.62,83.085C1563.57,83.146 1563.51,83.204 1563.46,83.26C1563.35,83.371 1563.24,83.47 1563.13,83.559C1563.02,83.65 1562.89,83.717 1562.78,83.798C1562.66,83.88 1562.54,83.951 1562.41,84.012C1562.29,84.073 1562.15,84.123 1562.02,84.163C1561.88,84.206 1561.75,84.259 1561.61,84.291C1561.33,84.367 1561.01,84.371 1560.7,84.402C1560.29,84.434 1559.82,84.441 1559.39,84.538C1558.95,84.62 1558.48,84.706 1558.04,84.86C1557.75,84.96 1557.47,85.118 1557.29,85.368C1557.11,85.613 1556.99,85.906 1556.95,86.211C1556.92,86.687 1556.93,87.154 1556.93,87.594C1556.98,88.055 1557.02,88.485 1557.1,88.906C1557.17,89.226 1557.2,89.527 1557.19,89.813C1557.19,90.104 1557.18,90.389 1557.1,90.659C1557.09,90.726 1557.07,90.793 1557.04,90.859C1557.03,90.928 1557.01,90.996 1556.99,91.063C1556.95,91.197 1556.89,91.33 1556.83,91.46C1556.77,91.592 1556.68,91.72 1556.6,91.851C1556.53,91.982 1556.45,92.112 1556.35,92.241L1555.97,92.779C1555.85,92.964 1555.75,93.155 1555.64,93.353L1555.31,93.964C1555.27,94.066 1555.22,94.169 1555.18,94.274C1554.37,94.308 1553.43,94.168 1552.68,93.848L1552.49,93.497C1552.36,93.256 1552.22,93.009 1552.1,92.756L1551.79,91.978C1551.71,91.78 1551.64,91.574 1551.59,91.363C1551.54,91.153 1551.52,90.939 1551.51,90.721C1551.5,90.503 1551.5,90.283 1551.51,90.063C1551.52,89.953 1551.53,89.842 1551.54,89.733C1551.56,89.625 1551.58,89.517 1551.61,89.41C1551.72,88.982 1551.86,88.56 1552.08,88.179C1552.3,87.803 1552.57,87.458 1552.87,87.162C1553.29,86.774 1553.74,86.426 1554.16,86.092C1554.62,85.781 1555.07,85.489 1555.52,85.23C1555.83,85.068 1556.1,84.847 1556.3,84.578C1556.5,84.303 1556.68,84.022 1556.77,83.679C1556.9,83.159 1557.1,82.674 1557.31,82.165C1557.51,81.64 1557.79,81.177 1558.06,80.667C1558.26,80.28 1558.56,79.975 1558.87,79.671C1559.04,79.525 1559.2,79.376 1559.38,79.256C1559.57,79.14 1559.77,79.033 1559.96,78.937C1560.16,78.841 1560.37,78.756 1560.57,78.683C1560.78,78.611 1561,78.576 1561.22,78.54C1561.43,78.507 1561.65,78.487 1561.87,78.48C1561.97,78.477 1562.08,78.477 1562.18,78.48C1562.29,78.49 1562.4,78.505 1562.51,78.523C1563.52,78.677 1564.48,78.928 1565.37,79.274ZM1554.13,91.315C1554.49,91.358 1554.84,91.256 1555.11,91.077C1555.24,90.986 1555.35,90.876 1555.44,90.749C1555.48,90.685 1555.52,90.617 1555.55,90.546C1555.58,90.476 1555.61,90.402 1555.63,90.324C1555.71,90.014 1555.64,89.695 1555.47,89.414C1555.31,89.137 1555.06,88.901 1554.71,88.783C1554.37,88.667 1554,88.7 1553.7,88.872C1553.41,89.047 1553.18,89.359 1553.08,89.744C1553.06,89.84 1553.04,89.936 1553.04,90.03C1553.04,90.125 1553.05,90.219 1553.07,90.309C1553.11,90.49 1553.18,90.657 1553.28,90.799C1553.47,91.086 1553.78,91.273 1554.13,91.315ZM1559.91,81.099C1559.81,81.436 1559.86,81.792 1560.05,82.099C1560.24,82.405 1560.53,82.61 1560.84,82.702C1561.13,82.783 1561.47,82.79 1561.76,82.653C1562.05,82.513 1562.24,82.247 1562.37,81.963C1562.49,81.668 1562.51,81.311 1562.39,80.971C1562.27,80.632 1562.01,80.375 1561.69,80.242C1561.36,80.098 1560.98,80.123 1560.62,80.296C1560.26,80.466 1560,80.753 1559.91,81.099Z" style="fill:#733c52;"/>
            <path d="M1580.63,93.272C1580.44,93.316 1580.24,93.345 1580.01,93.354C1579.2,93.389 1578.18,93.397 1577.19,93.049C1577.14,92.957 1577.09,92.867 1577.03,92.779L1576.65,92.241C1576.55,92.112 1576.47,91.982 1576.4,91.851C1576.32,91.72 1576.24,91.592 1576.17,91.46C1576.11,91.329 1576.05,91.197 1576.01,91.063C1575.99,90.996 1575.97,90.928 1575.96,90.859C1575.93,90.793 1575.91,90.726 1575.9,90.659C1575.82,90.389 1575.81,90.104 1575.81,89.813C1575.8,89.527 1575.83,89.226 1575.9,88.906C1575.98,88.485 1576.02,88.056 1576.07,87.594C1576.07,87.154 1576.08,86.687 1576.05,86.211C1576.01,85.906 1575.89,85.613 1575.71,85.368C1575.54,85.118 1575.25,84.96 1574.96,84.86C1574.52,84.706 1574.05,84.62 1573.61,84.538C1573.18,84.441 1572.72,84.434 1572.3,84.402C1571.99,84.371 1571.67,84.367 1571.39,84.291C1571.25,84.259 1571.12,84.206 1570.98,84.163C1570.85,84.123 1570.71,84.073 1570.59,84.012C1570.46,83.951 1570.34,83.88 1570.23,83.798C1570.11,83.717 1569.99,83.65 1569.87,83.559C1569.76,83.47 1569.65,83.371 1569.54,83.26C1569.49,83.204 1569.43,83.146 1569.38,83.085C1569.33,83.031 1569.27,82.976 1569.22,82.917C1568.66,82.27 1567.99,81.653 1567.21,81.127C1567.18,81.113 1567.16,81.099 1567.14,81.085C1567.13,81.006 1567.11,80.92 1567.08,80.825C1566.92,80.189 1567.01,79.753 1567.19,79.451C1567.24,79.433 1567.29,79.414 1567.33,79.393C1568.3,78.985 1569.36,78.694 1570.49,78.523C1570.6,78.505 1570.71,78.49 1570.82,78.48C1570.92,78.477 1571.03,78.477 1571.13,78.48C1571.35,78.487 1571.57,78.507 1571.78,78.54C1572,78.576 1572.22,78.611 1572.43,78.683C1572.63,78.756 1572.84,78.841 1573.04,78.937C1573.24,79.033 1573.43,79.14 1573.62,79.256C1573.8,79.376 1573.97,79.525 1574.13,79.671C1574.44,79.975 1574.74,80.28 1574.94,80.668C1575.22,81.177 1575.49,81.64 1575.69,82.165C1575.9,82.674 1576.1,83.159 1576.23,83.679C1576.32,84.022 1576.51,84.303 1576.7,84.578C1576.9,84.847 1577.17,85.068 1577.48,85.23C1577.93,85.489 1578.38,85.781 1578.84,86.092C1579.26,86.426 1579.71,86.774 1580.13,87.162C1580.43,87.458 1580.7,87.803 1580.92,88.179C1581.14,88.56 1581.28,88.982 1581.39,89.41C1581.42,89.517 1581.44,89.624 1581.46,89.733C1581.48,89.842 1581.48,89.953 1581.49,90.063C1581.5,90.283 1581.5,90.503 1581.49,90.721C1581.48,90.939 1581.46,91.153 1581.41,91.363C1581.36,91.574 1581.29,91.78 1581.21,91.978L1580.9,92.756C1580.82,92.931 1580.73,93.103 1580.63,93.272ZM1570.61,80.971C1570.49,81.311 1570.52,81.668 1570.63,81.963C1570.76,82.247 1570.95,82.513 1571.24,82.653C1571.53,82.79 1571.87,82.783 1572.16,82.702C1572.47,82.61 1572.76,82.405 1572.95,82.099C1573.14,81.792 1573.19,81.436 1573.09,81.099C1573,80.753 1572.74,80.466 1572.38,80.296C1572.02,80.123 1571.64,80.098 1571.31,80.242C1570.99,80.375 1570.74,80.632 1570.61,80.971ZM1579.93,90.309C1579.95,90.219 1579.96,90.125 1579.96,90.03C1579.96,89.936 1579.94,89.84 1579.92,89.744C1579.82,89.359 1579.59,89.047 1579.3,88.873C1579,88.7 1578.63,88.667 1578.29,88.783C1577.94,88.901 1577.69,89.137 1577.53,89.414C1577.36,89.696 1577.29,90.014 1577.37,90.324C1577.39,90.402 1577.42,90.476 1577.45,90.546C1577.48,90.617 1577.52,90.685 1577.56,90.749C1577.65,90.876 1577.76,90.986 1577.89,91.077C1578.16,91.256 1578.51,91.358 1578.87,91.315C1579.22,91.273 1579.53,91.086 1579.72,90.799C1579.82,90.657 1579.89,90.49 1579.93,90.309Z" style="fill:#733c52;"/>
        </g>
    </g>
    <g id="S-melisma" serif:id="S melisma">
        <path id="Sounder" d="M929.245,2302.56C903.992,2346.3 847.981,2361.31 804.245,2336.06C760.508,2310.81 745.502,2254.8 770.755,2211.06C796.008,2167.32 852.019,2152.31 895.755,2177.56C939.492,2202.81 954.498,2258.82 929.245,2302.56Z" style="fill:#fff;"/>
        <g id="Ring1" serif:id="Ring" opacity="0.5">
            <path d="M929.245,2302.56C903.992,2346.3 847.981,2361.31 804.245,2336.06C760.508,2310.81 745.502,2254.8 770.755,2211.06C796.008,2167.32 852.019,2152.31 895.755,2177.56C939.492,2202.81 954.498,2258.82 929.245,2302.56Z" style="fill:none;stroke:#000;stroke-width:1.93px;"/>
            <path d="M929.245,2302.56L924.179,2299.63" style="fill:none;stroke:#000;stroke-width:1.93px;"/>
            <path d="M775.821,2213.98L770.755,2211.06" style="fill:none;stroke:#000;stroke-width:1.93px;"/>
            <path d="M807.169,2330.99L804.245,2336.06" style="fill:none;stroke:#000;stroke-width:1.93px;"/>
            <path d="M895.755,2177.56L892.831,2182.62" style="fill:none;stroke:#000;stroke-width:1.93px;"/>
            <path d="M895.753,2336.05L892.829,2330.99" style="fill:none;stroke:#000;stroke-width:1.93px;"/>
            <path d="M807.171,2182.63L804.247,2177.56" style="fill:none;stroke:#000;stroke-width:1.93px;"/>
            <path d="M775.816,2299.64L770.75,2302.56" style="fill:none;stroke:#000;stroke-width:1.93px;"/>
            <path d="M929.25,2211.05L924.184,2213.98" style="fill:none;stroke:#000;stroke-width:1.93px;"/>
            <path d="M850,2348.32L850,2342.47" style="fill:none;stroke:#000;stroke-width:1.93px;"/>
            <path d="M850,2171.15L850,2165.3" style="fill:none;stroke:#000;stroke-width:1.93px;"/>
            <path d="M764.343,2256.81L758.493,2256.81" style="fill:none;stroke:#000;stroke-width:1.93px;"/>
            <path d="M941.507,2256.81L935.657,2256.81" style="fill:none;stroke:#000;stroke-width:1.93px;"/>
        </g>
        <g id="Root-Markers1" serif:id="Root Markers">
        </g>
        <g id="Notes1" serif:id="Notes">
            <path id="_10" serif:id="10" d="M784.907,2219.96C780.665,2227.31 771.254,2229.83 763.906,2225.59C756.558,2221.35 754.036,2211.94 758.279,2204.59C762.521,2197.24 771.932,2194.72 779.28,2198.96C786.628,2203.2 789.15,2212.62 784.907,2219.96Z" style="fill:#ec9959;stroke:#fff;stroke-width:4.63px;"/>
            <path id="_82" serif:id="8" d="M784.361,2311.1C780.119,2318.45 770.708,2320.97 763.36,2316.73C756.012,2312.49 753.49,2303.08 757.733,2295.73C761.975,2288.38 771.386,2285.86 778.734,2290.1C786.082,2294.35 788.604,2303.76 784.361,2311.1Z" style="fill:#ec9959;stroke:#fff;stroke-width:4.63px;"/>
            <path id="_52" serif:id="5" d="M908.907,2344.3C904.665,2351.64 895.255,2354.17 887.906,2349.92C880.558,2345.68 878.037,2336.27 882.279,2328.92C886.522,2321.58 895.932,2319.05 903.28,2323.3C910.628,2327.54 913.15,2336.95 908.907,2344.3Z" style="fill:#ec9959;stroke:#fff;stroke-width:4.63px;"/>
            <path id="_31" serif:id="3" d="M954.455,2265.38C950.212,2272.73 940.802,2275.25 933.454,2271.01C926.106,2266.77 923.584,2257.36 927.827,2250.01C932.069,2242.66 941.48,2240.14 948.828,2244.38C956.176,2248.62 958.697,2258.03 954.455,2265.38Z" style="fill:#ec9959;stroke:#fff;stroke-width:4.63px;"/>
            <path id="_1" serif:id="1" d="M908.447,2187.2C904.204,2194.55 894.794,2197.07 887.446,2192.83C880.097,2188.59 877.576,2179.18 881.818,2171.83C886.061,2164.48 895.471,2161.96 902.819,2166.2C910.168,2170.45 912.689,2179.86 908.447,2187.2Z" style="fill:#ec9959;stroke:#fff;stroke-width:4.63px;"/>
            <path id="_01" serif:id="0" d="M863.314,2173.99C859.072,2181.33 849.661,2183.86 842.313,2179.61C834.965,2175.37 832.443,2165.96 836.686,2158.61C840.928,2151.26 850.339,2148.74 857.687,2152.99C865.035,2157.23 867.557,2166.64 863.314,2173.99Z" style="fill:#ec9959;stroke:#fff;stroke-width:4.63px;"/>
        </g>
        <g id="Treble-Marker1" serif:id="Treble Marker">
        </g>
    </g>
</svg>
