<?xml version="1.0" encoding="UTF-8" standalone="no"?>
<!DOCTYPE svg PUBLIC "-//W3C//DTD SVG 1.1//EN" "http://www.w3.org/Graphics/SVG/1.1/DTD/svg11.dtd">
<svg width="100%" height="100%" viewBox="0 0 1700 2480" version="1.1" xmlns="http://www.w3.org/2000/svg" xmlns:xlink="http://www.w3.org/1999/xlink" xml:space="preserve" xmlns:serif="http://www.serif.com/" style="fill-rule:evenodd;clip-rule:evenodd;stroke-linecap:round;stroke-linejoin:round;stroke-miterlimit:1.5;">
    <rect id="B2C2" x="0" y="0" width="1700" height="2480" style="fill:none;"/>
    <g id="Fields" opacity="0.2">
        <path id="_11" serif:id="11" d="M496.488,894.587L10.379,416.376L10.379,10L517.393,9.905L722.022,762.641C635.493,786.499 560.817,828.837 496.488,894.587Z" style="fill:#607777;stroke:#767676;stroke-width:8.33px;"/>
    </g>
    <g id="S">
        <g id="Ring">
            <path id="Backer" d="M1261.43,1477C1130.55,1703.7 840.239,1781.5 613.55,1650.62C386.862,1519.75 309.085,1229.44 439.973,1002.74C570.862,776.037 861.169,698.239 1087.86,829.115C1314.55,959.991 1392.32,1250.3 1261.43,1477Z" style="fill:#fff;"/>
            <path d="M1261.43,1477C1130.55,1703.7 840.239,1781.5 613.55,1650.62C386.862,1519.75 309.085,1229.44 439.973,1002.74C570.862,776.037 861.169,698.239 1087.86,829.115C1314.55,959.991 1392.32,1250.3 1261.43,1477Z" style="fill:none;stroke:#000;stroke-width:8.33px;"/>
            <path d="M1261.43,1477L1235.18,1461.84" style="fill:none;stroke:#000;stroke-width:8.33px;"/>
            <path d="M466.231,1017.9L439.973,1002.74" style="fill:none;stroke:#000;stroke-width:8.33px;"/>
            <path d="M628.71,1624.37L613.55,1650.62" style="fill:none;stroke:#000;stroke-width:8.33px;"/>
            <path d="M1087.86,829.115L1072.7,855.372" style="fill:none;stroke:#000;stroke-width:8.33px;"/>
            <path d="M1087.85,1650.6L1072.69,1624.35" style="fill:none;stroke:#000;stroke-width:8.33px;"/>
            <path d="M628.72,855.389L613.56,829.132" style="fill:none;stroke:#000;stroke-width:8.33px;"/>
            <path d="M466.201,1461.86L439.944,1477.02" style="fill:none;stroke:#000;stroke-width:8.33px;"/>
            <path d="M1261.46,1002.72L1235.21,1017.88" style="fill:none;stroke:#000;stroke-width:8.33px;"/>
            <path d="M850.704,1714.16L850.704,1683.85" style="fill:none;stroke:#000;stroke-width:8.33px;"/>
            <path d="M850.704,795.892L850.704,765.573" style="fill:none;stroke:#000;stroke-width:8.33px;"/>
            <path d="M406.736,1239.87L376.417,1239.87" style="fill:none;stroke:#000;stroke-width:8.33px;"/>
            <path d="M1324.99,1239.87L1294.67,1239.87" style="fill:none;stroke:#000;stroke-width:8.33px;"/>
        </g>
        <g id="Root-Markers" serif:id="Root Markers">
            <path id="_8" serif:id="8" d="M532.245,1423.16L601.419,1341.31L637.718,1404.18L532.245,1423.16ZM581.24,1394.87L607.49,1390.15L598.456,1374.5L581.24,1394.87Z" style="fill:#78608c;"/>
        </g>
        <g id="Notes">
            <path id="_111" serif:id="11" d="M682.187,873.402C660.198,911.488 611.424,924.556 573.337,902.568C535.251,880.579 522.182,831.806 544.171,793.72C566.16,755.634 614.934,742.566 653.021,764.554C691.107,786.543 704.176,835.316 682.187,873.402Z" style="fill:#78608c;stroke:#fff;stroke-width:24px;"/>
            <path id="_81" serif:id="8" d="M510.492,1521.29C488.503,1559.38 439.729,1572.45 401.643,1550.46C363.556,1528.47 350.487,1479.7 372.476,1441.61C394.466,1403.53 443.24,1390.46 481.326,1412.44C519.413,1434.43 532.482,1483.21 510.492,1521.29Z" style="fill:#78608c;stroke:#fff;stroke-width:24px;"/>
            <path id="_3" serif:id="3" d="M1392.1,1284.32C1370.11,1322.4 1321.34,1335.47 1283.25,1313.48C1245.16,1291.49 1232.1,1242.72 1254.09,1204.63C1276.08,1166.55 1324.85,1153.48 1362.93,1175.47C1401.02,1197.46 1414.09,1246.23 1392.1,1284.32Z" style="fill:#78608c;stroke:#fff;stroke-width:24px;"/>
        </g>
        <g id="Treble-Marker" serif:id="Treble Marker">
            <g id="_1" serif:id="1">
                <path id="_1u" serif:id="1u" d="M1153.64,879.109C1131.65,917.195 1082.87,930.264 1044.79,908.275C1006.7,886.286 993.632,837.513 1015.62,799.427C1037.61,761.342 1086.38,748.273 1124.47,770.262C1162.56,792.251 1175.63,841.024 1153.64,879.109Z" style="fill:#fff;stroke:#fff;stroke-width:33.33px;"/>
                <circle id="_1a" serif:id="1a" cx="1084.63" cy="839.268" r="64" style="fill:#fff;stroke:#78608c;stroke-width:16.67px;"/>
            </g>
        </g>
    </g>
    <g id="Songs">
        <g id="song-8-petals" serif:id="song 8 petals">
            <g id="B2C21" serif:id="B2C2">
                <path d="M260.046,319.999C240.649,320.104 221.237,312.628 206.66,297.638L180.903,271.151C167.536,257.406 160.598,239.773 160.037,221.993L260.705,222.174L260.046,319.999Z" style="fill:#78608c;stroke:#fff;stroke-width:1.67px;"/>
                <path d="M160.037,221.993C159.405,201.955 166.871,181.729 182.362,166.665L208.849,140.908C223.467,126.693 242.481,119.748 261.394,120.012L260.705,222.174L160.037,221.993Z" style="fill:#78608c;stroke:#fff;stroke-width:1.67px;"/>
                <path d="M161,222.174L260,222.352" style="fill:none;stroke:#78608c;stroke-width:4.17px;stroke-linecap:butt;"/>
                <g id="q4">
                    <path d="M252.903,163.188C254.053,163.037 255.111,163.849 255.262,164.997C255.413,166.146 254.602,167.203 253.452,167.355C252.305,167.506 251.248,166.694 251.097,165.546C250.946,164.397 251.757,163.339 252.903,163.188ZM248.356,156.794C248.091,154.784 249.511,152.934 251.518,152.669C253.529,152.405 255.38,153.825 255.645,155.835C255.909,157.845 254.489,159.695 252.478,159.96C250.471,160.224 248.62,158.804 248.356,156.794ZM249.832,139.858C252.475,139.51 254.907,141.377 255.255,144.018C255.603,146.66 253.736,149.093 251.093,149.441C248.454,149.788 246.021,147.922 245.674,145.28C245.326,142.638 247.193,140.206 249.832,139.858ZM259.945,201.046C259.215,178.824 258.102,146.32 257.756,143.689C257.226,139.663 253.529,136.828 249.503,137.358C245.477,137.888 242.643,141.583 243.173,145.609C243.519,148.239 250.857,179.924 255.903,201.578C256.465,203.989 260.026,203.52 259.945,201.046Z" style="fill:#e7e7e7;fill-rule:nonzero;"/>
                    <path d="M229.036,145.43C231.496,144.411 234.331,145.584 235.348,148.046C236.369,150.508 235.194,153.34 232.735,154.36C230.272,155.38 227.441,154.206 226.419,151.745C225.402,149.283 226.573,146.451 229.036,145.43ZM238.784,159.359C239.561,161.231 238.667,163.387 236.793,164.162C234.92,164.938 232.765,164.046 231.992,162.173C231.214,160.3 232.109,158.145 233.982,157.368C235.855,156.593 238.01,157.485 238.784,159.359ZM240.784,168.308C241.227,169.379 240.717,170.61 239.647,171.054C238.577,171.497 237.347,170.987 236.904,169.916C236.46,168.846 236.97,167.615 238.04,167.171C239.111,166.728 240.344,167.238 240.784,168.308ZM250.87,203.477C252.038,205.661 255.359,204.286 254.64,201.916C248.184,180.641 238.693,149.533 237.678,147.081C236.126,143.329 231.824,141.547 228.07,143.101C224.32,144.655 222.537,148.957 224.09,152.71C225.105,155.161 240.392,183.867 250.87,203.477Z" style="fill:#e7e7e7;fill-rule:nonzero;"/>
                    <path d="M210.39,156.196C212.504,154.574 215.541,154.975 217.163,157.089C218.786,159.203 218.386,162.242 216.271,163.864C214.157,165.486 211.12,165.086 209.497,162.972C207.875,160.858 208.275,157.818 210.39,156.196ZM223.411,167.126C224.643,168.735 224.338,171.048 222.732,172.281C221.123,173.516 218.809,173.212 217.576,171.603C216.344,169.994 216.645,167.682 218.254,166.447C219.864,165.213 222.174,165.518 223.411,167.126ZM227.659,175.253C228.365,176.172 228.191,177.494 227.271,178.199C226.351,178.905 225.03,178.73 224.328,177.811C223.622,176.892 223.796,175.571 224.716,174.865C225.631,174.16 226.953,174.334 227.659,175.253ZM246.503,206.613C248.197,208.42 251.047,206.233 249.741,204.13C237.997,185.251 220.778,157.659 219.165,155.554C216.691,152.332 212.075,151.724 208.853,154.197C205.63,156.669 205.022,161.285 207.496,164.507C209.109,166.612 231.307,190.383 246.503,206.613Z" style="fill:#e7e7e7;fill-rule:nonzero;"/>
                    <path d="M195.165,171.421C196.787,169.307 199.826,168.907 201.94,170.53C204.054,172.151 204.454,175.191 202.832,177.305C201.21,179.419 198.171,179.819 196.057,178.197C193.942,176.575 193.542,173.535 195.165,171.421ZM205.413,179.288C206.649,177.679 208.962,177.375 210.568,178.609C212.179,179.843 212.484,182.155 211.247,183.764C210.015,185.372 207.702,185.677 206.091,184.443C204.485,183.208 204.18,180.896 205.413,179.288ZM213.832,185.747C214.537,184.828 215.858,184.654 216.777,185.359C217.696,186.064 217.87,187.386 217.165,188.305C216.46,189.224 215.139,189.398 214.22,188.693C213.301,187.987 213.127,186.666 213.832,185.747ZM243.096,210.772C245.202,212.08 247.387,209.23 245.579,207.537C229.349,192.341 205.578,170.144 203.473,168.529C200.251,166.057 195.634,166.665 193.162,169.887C190.689,173.109 191.297,177.725 194.519,180.197C196.624,181.813 224.216,199.029 243.096,210.772Z" style="fill:#e7e7e7;fill-rule:nonzero;"/>
                    <path d="M184.398,190.068C185.419,187.606 188.248,186.433 190.71,187.453C193.173,188.473 194.346,191.305 193.326,193.767C192.305,196.229 189.476,197.402 187.014,196.382C184.552,195.362 183.378,192.53 184.398,190.068ZM196.337,195.013C197.111,193.14 199.267,192.247 201.141,193.023C203.011,193.799 203.905,195.954 203.131,197.827C202.353,199.7 200.2,200.593 198.326,199.817C196.452,199.041 195.558,196.886 196.337,195.013ZM206.138,199.074C206.582,198.003 207.813,197.493 208.884,197.936C209.955,198.379 210.462,199.611 210.022,200.681C209.578,201.752 208.346,202.262 207.275,201.818C206.204,201.375 205.693,200.144 206.138,199.074ZM186.047,198.712C188.5,199.727 219.607,209.215 240.882,215.672C243.254,216.391 244.627,213.072 242.444,211.905C222.835,201.426 194.127,186.139 191.678,185.123C187.925,183.569 183.624,185.351 182.068,189.104C180.516,192.855 182.298,197.157 186.047,198.712Z" style="fill:#e7e7e7;fill-rule:nonzero;"/>
                    <path d="M178.825,210.866C179.174,208.224 181.605,206.358 184.248,206.705C186.888,207.053 188.756,209.485 188.406,212.127C188.061,214.769 185.626,216.635 182.987,216.287C180.343,215.94 178.479,213.508 178.825,210.866ZM191.637,212.552C191.899,210.542 193.75,209.123 195.76,209.387C197.77,209.652 199.192,211.502 198.926,213.513C198.663,215.522 196.813,216.942 194.803,216.678C192.793,216.413 191.37,214.562 191.637,212.552ZM202.156,213.937C202.308,212.788 203.363,211.977 204.512,212.129C205.66,212.28 206.472,213.337 206.32,214.486C206.172,215.634 205.113,216.446 203.965,216.295C202.816,216.143 202.004,215.086 202.156,213.937ZM182.656,218.787C185.287,219.134 217.793,220.247 240.012,220.978C242.487,221.059 242.956,217.497 240.546,216.935C218.892,211.889 187.206,204.552 184.575,204.206C180.55,203.675 176.857,206.51 176.324,210.537C175.796,214.563 178.632,218.257 182.656,218.787Z" style="fill:#e7e7e7;fill-rule:nonzero;"/>
                </g>
                <g id="q3">
                    <path d="M178.825,232.397C178.477,229.755 180.344,227.323 182.987,226.975C185.626,226.628 188.059,228.494 188.407,231.136C188.754,233.778 186.888,236.21 184.249,236.557C181.605,236.905 179.173,235.039 178.825,232.397ZM194.8,226.585C196.811,226.321 198.662,227.741 198.926,229.751C199.191,231.761 197.771,233.612 195.76,233.877C193.753,234.141 191.902,232.721 191.637,230.71C191.373,228.7 192.793,226.85 194.8,226.585ZM203.963,226.968C205.113,226.817 206.17,227.629 206.322,228.777C206.473,229.925 205.662,230.983 204.511,231.134C203.365,231.285 202.308,230.474 202.157,229.325C202.006,228.177 202.817,227.119 203.963,226.968ZM240.546,226.328C242.957,225.766 242.489,222.204 240.013,222.285C217.792,223.016 185.289,224.129 182.658,224.475C178.628,225.006 175.794,228.7 176.324,232.726C176.855,236.753 180.548,239.588 184.578,239.057C187.209,238.711 218.893,231.374 240.546,226.328Z" style="fill:#e7e7e7;fill-rule:nonzero;"/>
                    <path d="M184.397,253.195C183.38,250.733 184.551,247.901 187.014,246.881C189.474,245.861 192.309,247.034 193.326,249.496C194.347,251.958 193.172,254.791 190.713,255.81C188.25,256.83 185.419,255.656 184.397,253.195ZM198.327,243.446C200.2,242.67 202.355,243.562 203.129,245.436C203.906,247.309 203.012,249.464 201.138,250.24C199.265,251.016 197.11,250.124 196.337,248.25C195.559,246.377 196.454,244.222 198.327,243.446ZM207.276,241.444C208.346,241.001 209.579,241.511 210.019,242.582C210.463,243.652 209.953,244.884 208.882,245.327C207.812,245.77 206.583,245.26 206.139,244.19C205.695,243.119 206.205,241.888 207.276,241.444ZM242.445,231.358C244.627,230.192 243.252,226.872 240.882,227.591C219.61,234.048 188.5,243.536 186.048,244.552C182.298,246.106 180.516,250.408 182.067,254.16C183.624,257.912 187.925,259.694 191.675,258.14C194.127,257.124 222.835,241.836 242.445,231.358Z" style="fill:#e7e7e7;fill-rule:nonzero;"/>
                    <path d="M216.779,257.904C215.86,258.609 214.538,258.435 213.832,257.517C213.126,256.597 213.3,255.276 214.22,254.57C215.14,253.865 216.461,254.039 217.167,254.958C217.869,255.878 217.699,257.199 216.779,257.904ZM210.572,264.654C208.962,265.888 206.648,265.584 205.416,263.975C204.179,262.367 204.485,260.054 206.094,258.82C207.703,257.586 210.013,257.89 211.25,259.499C212.483,261.107 212.177,263.42 210.572,264.654ZM201.938,272.734C199.823,274.356 196.787,273.955 195.164,271.841C193.541,269.727 193.942,266.688 196.056,265.066C198.171,263.444 201.207,263.844 202.83,265.958C204.453,268.072 204.052,271.111 201.938,272.734ZM243.096,232.491C224.217,244.234 196.626,261.45 194.519,263.066C191.301,265.538 190.693,270.154 193.163,273.377C195.637,276.599 200.252,277.206 203.475,274.734C205.578,273.119 229.351,250.922 245.58,235.726C247.386,234.033 245.202,231.183 243.096,232.491Z" style="fill:#e7e7e7;fill-rule:nonzero;"/>
                    <path d="M227.658,268.01C226.953,268.929 225.632,269.103 224.713,268.397C223.795,267.692 223.621,266.371 224.325,265.452C225.03,264.533 226.352,264.359 227.27,265.064C228.189,265.769 228.363,267.091 227.658,268.01ZM223.408,276.137C222.176,277.745 219.863,278.049 218.252,276.816C216.646,275.581 216.341,273.269 217.574,271.66C218.81,270.052 221.123,269.747 222.73,270.981C224.34,272.216 224.645,274.528 223.408,276.137ZM217.165,286.175C215.543,288.288 212.504,288.688 210.39,287.067C208.275,285.444 207.875,282.405 209.497,280.291C211.12,278.177 214.159,277.777 216.273,279.399C218.387,281.021 218.787,284.06 217.165,286.175ZM246.503,236.651C231.306,252.88 209.11,276.651 207.494,278.756C205.022,281.979 205.63,286.594 208.852,289.067C212.074,291.539 216.691,290.932 219.164,287.71C220.779,285.604 237.994,258.012 249.738,239.133C251.047,237.03 248.198,234.843 246.503,236.651Z" style="fill:#e7e7e7;fill-rule:nonzero;"/>
                    <path d="M240.785,274.955C240.341,276.025 239.109,276.535 238.043,276.091C236.972,275.648 236.461,274.417 236.905,273.346C237.345,272.276 238.577,271.766 239.648,272.21C240.719,272.653 241.229,273.884 240.785,274.955ZM238.785,283.905C238.006,285.778 235.854,286.67 233.98,285.894C232.106,285.118 231.216,282.963 231.99,281.09C232.765,279.217 234.921,278.325 236.795,279.1C238.665,279.876 239.559,282.032 238.785,283.905ZM235.348,295.217C234.328,297.679 231.499,298.852 229.036,297.832C226.574,296.812 225.401,293.98 226.421,291.518C227.441,289.056 230.271,287.883 232.733,288.903C235.195,289.923 236.369,292.755 235.348,295.217ZM250.87,239.786C240.393,259.396 225.104,288.102 224.09,290.554C222.534,294.306 224.317,298.607 228.069,300.162C231.822,301.716 236.123,299.934 237.679,296.182C238.692,293.731 248.183,262.622 254.64,241.346C255.357,238.978 252.039,237.602 250.87,239.786Z" style="fill:#e7e7e7;fill-rule:nonzero;"/>
                    <path d="M255.26,278.266C255.112,279.414 254.053,280.226 252.904,280.075C251.756,279.923 250.944,278.866 251.096,277.717C251.248,276.568 252.303,275.757 253.451,275.909C254.6,276.06 255.411,277.117 255.26,278.266ZM255.644,287.428C255.382,289.439 253.531,290.859 251.521,290.594C249.511,290.329 248.089,288.479 248.356,286.468C248.618,284.459 250.469,283.039 252.479,283.303C254.489,283.568 255.911,285.418 255.644,287.428ZM255.254,299.245C254.908,301.886 252.474,303.753 249.834,303.405C247.191,303.057 245.327,300.625 245.672,297.983C246.021,295.341 248.452,293.475 251.096,293.823C253.735,294.171 255.603,296.603 255.254,299.245ZM255.901,241.685C250.855,263.339 243.519,295.023 243.172,297.654C242.644,301.68 245.479,305.374 249.503,305.905C253.532,306.435 257.226,303.6 257.754,299.574C258.1,296.943 259.216,264.439 259.946,242.217C260.027,239.743 256.463,239.274 255.901,241.685Z" style="fill:#e7e7e7;fill-rule:nonzero;"/>
                </g>
            </g>
            <g id="C">
                <path d="M261.742,120.005C280.655,120.269 299.468,127.742 313.683,142.36L339.44,168.846C353.895,183.71 360.831,203.119 360.317,222.345L261.053,222.166L261.742,120.005Z" style="fill:#78608c;stroke:#fff;stroke-width:1.67px;"/>
                <path d="M360.317,222.345C359.819,240.936 352.354,259.356 337.981,273.333L311.495,299.09C297.249,312.943 278.828,319.891 260.394,319.992L261.053,222.166L360.317,222.345Z" style="fill:#78608c;stroke:#fff;stroke-width:1.67px;"/>
                <path d="M261.848,222.345L359.448,222.345" style="fill:none;stroke:#78608c;stroke-width:4.17px;stroke-linecap:butt;"/>
                <g id="q2">
                    <path d="M268.291,280.074C267.145,280.225 266.088,279.414 265.937,278.266C265.786,277.116 266.597,276.059 267.743,275.908C268.893,275.757 269.95,276.568 270.102,277.717C270.253,278.865 269.442,279.923 268.291,280.074ZM272.843,286.469C273.108,288.479 271.687,290.329 269.676,290.594C267.669,290.858 265.819,289.438 265.554,287.428C265.289,285.418 266.71,283.568 268.717,283.303C270.728,283.039 272.578,284.459 272.843,286.469ZM271.363,303.405C268.724,303.753 266.291,301.886 265.943,299.245C265.596,296.603 267.462,294.17 270.101,293.823C272.745,293.475 275.177,295.341 275.525,297.983C275.873,300.625 274.006,303.057 271.363,303.405ZM261.253,242.217C261.984,264.439 263.097,296.943 263.443,299.574C263.973,303.6 267.666,306.435 271.692,305.905C275.718,305.375 278.556,301.681 278.026,297.654C277.679,295.023 270.342,263.339 265.296,241.685C264.733,239.273 261.172,239.742 261.253,242.217Z" style="fill:#e7e7e7;fill-rule:nonzero;"/>
                    <path d="M292.162,297.832C289.699,298.852 286.868,297.679 285.847,295.217C284.829,292.755 286,289.923 288.464,288.903C290.927,287.883 293.758,289.057 294.775,291.519C295.797,293.98 294.626,296.812 292.162,297.832ZM282.415,283.904C281.637,282.031 282.528,279.876 284.401,279.1C286.274,278.325 288.429,279.218 289.207,281.09C289.985,282.963 289.09,285.118 287.217,285.894C285.344,286.67 283.189,285.778 282.415,283.904ZM280.411,274.954C279.967,273.884 280.477,272.653 281.548,272.21C282.618,271.766 283.851,272.276 284.295,273.346C284.739,274.417 284.229,275.648 283.158,276.092C282.088,276.535 280.855,276.025 280.411,274.954ZM270.324,239.786C269.157,237.602 265.84,238.977 266.558,241.347C273.015,262.622 282.501,293.731 283.517,296.182C285.073,299.934 289.374,301.716 293.129,300.161C296.879,298.607 298.661,294.305 297.105,290.554C296.093,288.102 280.803,259.396 270.324,239.786Z" style="fill:#e7e7e7;fill-rule:nonzero;"/>
                    <path d="M310.809,287.066C308.694,288.689 305.654,288.289 304.031,286.175C302.412,284.06 302.809,281.021 304.923,279.399C307.038,277.777 310.078,278.177 311.701,280.291C313.324,282.405 312.923,285.444 310.809,287.066ZM297.788,276.137C296.551,274.528 296.857,272.215 298.466,270.981C300.076,269.747 302.386,270.051 303.622,271.66C304.855,273.268 304.55,275.581 302.944,276.815C301.335,278.049 299.021,277.745 297.788,276.137ZM293.535,268.01C292.833,267.09 293.008,265.769 293.923,265.064C294.843,264.359 296.165,264.532 296.871,265.452C297.577,266.371 297.402,267.692 296.483,268.398C295.563,269.103 294.241,268.929 293.535,268.01ZM274.692,236.65C273.001,234.843 270.148,237.03 271.458,239.132C283.202,258.011 300.416,285.604 302.034,287.709C304.504,290.932 309.12,291.539 312.342,289.067C315.565,286.594 316.173,281.978 313.703,278.756C312.085,276.651 289.888,252.88 274.692,236.65Z" style="fill:#e7e7e7;fill-rule:nonzero;"/>
                    <path d="M326.034,271.842C324.412,273.955 321.373,274.355 319.259,272.734C317.145,271.111 316.745,268.072 318.367,265.958C319.989,263.844 323.028,263.444 325.142,265.066C327.256,266.688 327.656,269.728 326.034,271.842ZM315.782,263.976C314.55,265.584 312.237,265.888 310.626,264.654C309.02,263.42 308.715,261.107 309.947,259.499C311.184,257.89 313.497,257.586 315.103,258.82C316.714,260.054 317.019,262.367 315.782,263.976ZM307.367,257.516C306.658,258.436 305.336,258.61 304.417,257.904C303.499,257.199 303.325,255.877 304.03,254.958C304.734,254.039 306.056,253.865 306.979,254.57C307.897,255.275 308.071,256.597 307.367,257.516ZM278.099,232.491C275.997,231.183 273.812,234.033 275.616,235.726C291.846,250.922 315.616,273.119 317.721,274.734C320.943,277.206 325.561,276.599 328.033,273.377C330.505,270.154 329.898,265.538 326.676,263.066C324.571,261.45 296.978,244.234 278.099,232.491Z" style="fill:#e7e7e7;fill-rule:nonzero;"/>
                    <path d="M336.8,253.195C335.78,255.657 332.947,256.83 330.484,255.81C328.022,254.791 326.852,251.958 327.869,249.497C328.889,247.035 331.722,245.861 334.185,246.881C336.647,247.901 337.821,250.733 336.8,253.195ZM324.862,248.25C324.084,250.124 321.931,251.016 320.057,250.24C318.183,249.464 317.293,247.308 318.068,245.436C318.842,243.563 320.999,242.67 322.873,243.446C324.743,244.222 325.636,246.377 324.862,248.25ZM315.057,244.19C314.617,245.26 313.385,245.77 312.314,245.327C311.243,244.884 310.733,243.652 311.177,242.581C311.621,241.511 312.853,241.001 313.92,241.445C314.991,241.888 315.501,243.119 315.057,244.19ZM335.148,244.552C332.699,243.536 301.588,234.048 280.313,227.591C277.944,226.872 276.568,230.191 278.755,231.358C298.364,241.836 327.068,257.124 329.521,258.14C333.274,259.693 337.575,257.912 339.127,254.16C340.683,250.408 338.901,246.106 335.148,244.552Z" style="fill:#e7e7e7;fill-rule:nonzero;"/>
                    <path d="M342.37,232.397C342.025,235.039 339.594,236.905 336.95,236.557C334.307,236.21 332.443,233.777 332.788,231.136C333.138,228.494 335.568,226.628 338.212,226.975C340.855,227.323 342.719,229.755 342.37,232.397ZM329.562,230.711C329.295,232.721 327.445,234.141 325.435,233.876C323.425,233.612 322.007,231.761 322.269,229.751C322.535,227.74 324.386,226.32 326.396,226.585C328.406,226.85 329.824,228.701 329.562,230.711ZM319.043,229.326C318.891,230.474 317.832,231.286 316.683,231.134C315.534,230.983 314.723,229.926 314.875,228.777C315.026,227.629 316.085,226.817 317.234,226.968C318.383,227.119 319.194,228.177 319.043,229.326ZM338.543,224.475C335.912,224.129 303.406,223.016 281.183,222.285C278.711,222.204 278.239,225.767 280.653,226.328C302.307,231.374 333.989,238.711 336.62,239.057C340.648,239.587 344.342,236.753 344.87,232.727C345.402,228.7 342.567,225.006 338.543,224.475Z" style="fill:#e7e7e7;fill-rule:nonzero;"/>
                </g>
                <g id="q1">
                    <path d="M338.212,216.288C335.568,216.636 333.136,214.77 332.788,212.128C332.44,209.486 334.307,207.053 336.95,206.705C339.593,206.357 342.026,208.224 342.374,210.866C342.722,213.508 340.855,215.94 338.212,216.288ZM326.395,216.678C324.384,216.943 322.537,215.522 322.272,213.512C322.008,211.502 323.424,209.652 325.435,209.387C327.446,209.122 329.297,210.542 329.561,212.552C329.826,214.562 328.406,216.414 326.395,216.678ZM317.232,216.294C316.085,216.445 315.028,215.634 314.877,214.486C314.726,213.337 315.537,212.279 316.683,212.129C317.833,211.977 318.89,212.789 319.042,213.937C319.193,215.086 318.382,216.143 317.232,216.294ZM336.621,204.206C333.99,204.552 302.306,211.889 280.653,216.935C278.241,217.497 278.71,221.059 281.185,220.977C303.406,220.247 335.91,219.134 338.541,218.787C342.567,218.257 345.4,214.563 344.87,210.537C344.34,206.51 340.647,203.676 336.621,204.206Z" style="fill:#e7e7e7;fill-rule:nonzero;"/>
                    <path d="M336.797,190.068C337.819,192.53 336.648,195.362 334.184,196.382C331.721,197.402 328.89,196.229 327.869,193.767C326.851,191.305 328.022,188.472 330.486,187.453C332.949,186.433 335.78,187.606 336.797,190.068ZM322.872,199.817C320.999,200.593 318.844,199.7 318.066,197.827C317.292,195.954 318.183,193.799 320.056,193.023C321.929,192.247 324.084,193.14 324.862,195.013C325.636,196.886 324.745,199.041 322.872,199.817ZM313.923,201.818C312.853,202.261 311.619,201.751 311.176,200.682C310.732,199.611 311.242,198.38 312.312,197.936C313.383,197.493 314.616,198.003 315.06,199.073C315.504,200.143 314.993,201.375 313.923,201.818ZM278.754,211.905C276.567,213.072 277.946,216.391 280.312,215.672C301.589,209.215 332.699,199.727 335.151,198.711C338.901,197.157 340.683,192.855 339.127,189.104C337.575,185.351 333.273,183.569 329.519,185.124C327.068,186.139 298.364,201.427 278.754,211.905Z" style="fill:#e7e7e7;fill-rule:nonzero;"/>
                    <path d="M304.419,185.359C305.339,184.653 306.661,184.827 307.363,185.747C308.069,186.666 307.894,187.988 306.975,188.693C306.059,189.398 304.737,189.224 304.031,188.304C303.325,187.386 303.5,186.064 304.419,185.359ZM310.627,178.609C312.236,177.374 314.546,177.68 315.783,179.287C317.016,180.896 316.71,183.209 315.105,184.443C313.495,185.677 311.181,185.373 309.949,183.764C308.716,182.155 309.017,179.843 310.627,178.609ZM319.257,170.529C321.371,168.907 324.412,169.307 326.035,171.421C327.657,173.535 327.257,176.575 325.142,178.197C323.028,179.819 319.987,179.419 318.365,177.305C316.746,175.191 317.142,172.152 319.257,170.529ZM278.099,210.772C296.978,199.029 324.573,181.812 326.675,180.198C329.898,177.725 330.506,173.109 328.032,169.887C325.562,166.664 320.946,166.057 317.724,168.529C315.617,170.145 291.848,192.341 275.619,207.537C273.808,209.23 275.997,212.08 278.099,210.772Z" style="fill:#e7e7e7;fill-rule:nonzero;"/>
                    <path d="M293.536,175.253C294.241,174.334 295.563,174.16 296.485,174.865C297.404,175.57 297.578,176.892 296.873,177.811C296.164,178.731 294.843,178.905 293.924,178.199C293.005,177.494 292.832,176.172 293.536,175.253ZM297.786,167.126C299.023,165.518 301.336,165.213 302.942,166.448C304.553,167.682 304.857,169.994 303.621,171.603C302.389,173.211 300.076,173.516 298.465,172.282C296.858,171.047 296.554,168.735 297.786,167.126ZM304.034,157.089C305.656,154.974 308.695,154.574 310.809,156.197C312.923,157.818 313.323,160.858 311.701,162.972C310.079,165.086 307.04,165.486 304.926,163.864C302.812,162.242 302.412,159.202 304.034,157.089ZM274.692,206.613C289.889,190.383 312.085,166.612 313.7,164.507C316.172,161.285 315.565,156.669 312.343,154.196C309.121,151.724 304.503,152.332 302.031,155.554C300.416,157.659 283.2,185.251 271.456,204.131C270.152,206.233 273,208.42 274.692,206.613Z" style="fill:#e7e7e7;fill-rule:nonzero;"/>
                    <path d="M280.409,168.309C280.854,167.238 282.085,166.728 283.156,167.171C284.227,167.615 284.738,168.846 284.294,169.917C283.849,170.987 282.618,171.497 281.547,171.054C280.48,170.61 279.969,169.379 280.409,168.309ZM282.414,159.358C283.188,157.485 285.345,156.593 287.219,157.368C289.089,158.144 289.982,160.3 289.208,162.172C288.43,164.046 286.277,164.938 284.403,164.162C282.529,163.387 281.636,161.232 282.414,159.358ZM285.846,148.046C286.867,145.584 289.7,144.411 292.162,145.431C294.624,146.45 295.798,149.283 294.778,151.745C293.757,154.207 290.924,155.38 288.462,154.36C286,153.341 284.83,150.508 285.846,148.046ZM270.324,203.477C280.802,183.867 296.091,155.161 297.108,152.709C298.66,148.958 296.878,144.656 293.125,143.102C289.373,141.548 285.072,143.329 283.52,147.081C282.502,149.533 273.016,180.641 266.558,201.916C265.837,204.286 269.159,205.66 270.324,203.477Z" style="fill:#e7e7e7;fill-rule:nonzero;"/>
                    <path d="M265.935,164.997C266.087,163.849 267.146,163.037 268.294,163.188C269.443,163.339 270.255,164.397 270.103,165.546C269.951,166.694 268.892,167.506 267.743,167.355C266.595,167.203 265.783,166.146 265.935,164.997ZM265.554,155.834C265.817,153.825 267.667,152.405 269.677,152.669C271.688,152.934 273.11,154.784 272.843,156.795C272.577,158.804 270.726,160.225 268.716,159.96C266.706,159.695 265.288,157.844 265.554,155.834ZM265.941,144.019C266.29,141.377 268.721,139.51 271.365,139.858C274.008,140.206 275.872,142.638 275.523,145.28C275.177,147.922 272.747,149.788 270.103,149.44C267.46,149.093 265.596,146.66 265.941,144.019ZM265.294,201.578C270.34,179.924 277.68,148.24 278.023,145.609C278.555,141.582 275.72,137.889 271.695,137.358C267.667,136.828 263.973,139.663 263.441,143.69C263.094,146.32 261.983,178.824 261.253,201.046C261.172,203.52 264.732,203.99 265.294,201.578Z" style="fill:#e7e7e7;fill-rule:nonzero;"/>
                </g>
            </g>
        </g>
    </g>
    <g id="Map">
        <g id="Frame">
            <rect x="1471.5" y="41.542" width="190" height="190" style="fill:#fff;"/>
            <rect x="1471.5" y="41.542" width="190" height="190" style="fill:none;stroke:#000;stroke-width:1.17px;stroke-linejoin:bevel;"/>
            <rect x="1523.38" y="93.417" width="86.25" height="86.25" style="fill:none;stroke:#000;stroke-width:1.25px;stroke-linejoin:bevel;"/>
            <path d="M1609.62,93.417L1661.5,41.75" style="fill:none;stroke:#000;stroke-width:1.25px;stroke-linejoin:bevel;"/>
            <path d="M1523.38,93.417L1471.92,41.75" style="fill:none;stroke:#000;stroke-width:1.25px;stroke-linejoin:bevel;"/>
            <path d="M1523.38,179.667L1471.5,231.542" style="fill:none;stroke:#000;stroke-width:1.25px;stroke-linejoin:bevel;"/>
            <path d="M1609.62,179.667L1661.5,231.542" style="fill:none;stroke:#000;stroke-width:1.25px;stroke-linejoin:bevel;"/>
        </g>
        <g id="Dots">
            <circle cx="1471.5" cy="231.5" r="1.5" style="stroke:#000;stroke-width:1.25px;stroke-linejoin:bevel;"/>
            <circle cx="1566.2" cy="231.625" r="1.5" style="stroke:#000;stroke-width:1.25px;stroke-linejoin:bevel;"/>
            <circle cx="1661.5" cy="231.5" r="1.5" style="stroke:#000;stroke-width:1.25px;stroke-linejoin:bevel;"/>
            <circle cx="1633.85" cy="203.667" r="1.5" style="stroke:#000;stroke-width:1.25px;stroke-linejoin:bevel;"/>
            <circle cx="1609.62" cy="179.5" r="1.5" style="stroke:#000;stroke-width:1.25px;stroke-linejoin:bevel;"/>
            <circle cx="1609.2" cy="136.625" r="1.5" style="stroke:#000;stroke-width:1.25px;stroke-linejoin:bevel;"/>
            <circle cx="1609.32" cy="93.375" r="1.5" style="stroke:#000;stroke-width:1.25px;stroke-linejoin:bevel;"/>
            <circle cx="1633.76" cy="69.167" r="1.5" style="stroke:#000;stroke-width:1.25px;stroke-linejoin:bevel;"/>
            <circle cx="1566.2" cy="93.375" r="1.5" style="stroke:#000;stroke-width:1.25px;stroke-linejoin:bevel;"/>
            <circle cx="1523.07" cy="93.5" r="1.5" style="stroke:#000;stroke-width:1.25px;stroke-linejoin:bevel;"/>
            <circle cx="1566.5" cy="41.5" r="1.5" style="stroke:#000;stroke-width:1.25px;stroke-linejoin:bevel;"/>
            <circle cx="1471.5" cy="41.542" r="1.5" style="stroke:#000;stroke-width:1.25px;stroke-linejoin:bevel;"/>
            <circle cx="1499.35" cy="69.5" r="1.5" style="stroke:#000;stroke-width:1.25px;stroke-linejoin:bevel;"/>
            <circle cx="1471.5" cy="136.542" r="1.5" style="stroke:#000;stroke-width:1.25px;stroke-linejoin:bevel;"/>
            <circle cx="1523.38" cy="136.542" r="1.5" style="stroke:#000;stroke-width:1.25px;stroke-linejoin:bevel;"/>
            <circle cx="1566" cy="179.667" r="1.5" style="stroke:#000;stroke-width:1.25px;stroke-linejoin:bevel;"/>
            <circle cx="1523.35" cy="179.5" r="1.5" style="stroke:#000;stroke-width:1.25px;stroke-linejoin:bevel;"/>
            <circle cx="1499.15" cy="204" r="1.5" style="stroke:#000;stroke-width:1.25px;stroke-linejoin:bevel;"/>
            <circle cx="1661.5" cy="136.542" r="1.5" style="stroke:#000;stroke-width:1.25px;stroke-linejoin:bevel;"/>
            <circle cx="1661.49" cy="41.65" r="1.5" style="stroke:#000;stroke-width:1.25px;stroke-linejoin:bevel;"/>
        </g>
        <g>
            <path d="M1609.75,136.542L1609.23,93.417" style="fill:none;stroke:#488e61;stroke-width:5.99px;"/>
        </g>
        <path d="M1610.23,179.443L1609.38,134.641" style="fill:none;stroke:#78608c;stroke-width:5.83px;"/>
        <circle cx="1609.81" cy="179.443" r="6.364" style="fill:#fff;stroke:#78608c;stroke-width:5.99px;"/>
        <g id="_82" serif:id="8">
            <circle cx="1609.38" cy="136.75" r="15.75" style="fill:#fff;stroke:#fff;stroke-width:1.46px;"/>
            <g id="q41" serif:id="q4">
                <path d="M1608.03,126.187C1608.23,126.16 1608.41,126.303 1608.44,126.506C1608.47,126.708 1608.33,126.895 1608.12,126.922C1607.92,126.948 1607.73,126.805 1607.71,126.602C1607.68,126.4 1607.82,126.213 1608.03,126.187ZM1607.22,125.058C1607.18,124.703 1607.43,124.377 1607.78,124.33C1608.14,124.284 1608.46,124.534 1608.51,124.889C1608.56,125.243 1608.31,125.57 1607.95,125.617C1607.6,125.663 1607.27,125.413 1607.22,125.058ZM1607.48,122.069C1607.95,122.008 1608.38,122.337 1608.44,122.804C1608.5,123.27 1608.17,123.699 1607.71,123.76C1607.24,123.822 1606.81,123.492 1606.75,123.026C1606.69,122.56 1607.02,122.131 1607.48,122.069ZM1609.27,132.867C1609.14,128.946 1608.94,123.21 1608.88,122.745C1608.79,122.035 1608.13,121.535 1607.42,121.628C1606.72,121.722 1606.22,122.374 1606.31,123.084C1606.37,123.548 1607.66,129.14 1608.56,132.961C1608.65,133.387 1609.28,133.304 1609.27,132.867Z" style="fill:#733c52;fill-rule:nonzero;"/>
                <path d="M1603.81,123.053C1604.25,122.873 1604.75,123.08 1604.93,123.514C1605.11,123.949 1604.9,124.449 1604.47,124.629C1604.03,124.809 1603.53,124.601 1603.35,124.167C1603.17,123.733 1603.38,123.233 1603.81,123.053ZM1605.53,125.511C1605.67,125.841 1605.51,126.222 1605.18,126.358C1604.85,126.495 1604.47,126.338 1604.34,126.007C1604.2,125.677 1604.36,125.296 1604.69,125.159C1605.02,125.023 1605.4,125.18 1605.53,125.511ZM1605.89,127.09C1605.97,127.279 1605.88,127.496 1605.69,127.575C1605.5,127.653 1605.28,127.563 1605.2,127.374C1605.12,127.185 1605.21,126.968 1605.4,126.889C1605.59,126.811 1605.81,126.901 1605.89,127.09ZM1607.67,133.296C1607.87,133.682 1608.46,133.439 1608.33,133.021C1607.19,129.266 1605.52,123.777 1605.34,123.344C1605.06,122.682 1604.31,122.367 1603.64,122.642C1602.98,122.916 1602.67,123.675 1602.94,124.337C1603.12,124.77 1605.82,129.836 1607.67,133.296Z" style="fill:#733c52;fill-rule:nonzero;"/>
                <path d="M1600.52,124.953C1600.9,124.666 1601.43,124.737 1601.72,125.11C1602.01,125.483 1601.93,126.02 1601.56,126.306C1601.19,126.592 1600.65,126.521 1600.37,126.148C1600.08,125.775 1600.15,125.239 1600.52,124.953ZM1602.82,126.881C1603.04,127.165 1602.98,127.573 1602.7,127.791C1602.42,128.009 1602.01,127.955 1601.79,127.671C1601.57,127.388 1601.63,126.979 1601.91,126.762C1602.19,126.544 1602.6,126.598 1602.82,126.881ZM1603.57,128.316C1603.69,128.478 1603.66,128.711 1603.5,128.835C1603.34,128.96 1603.11,128.929 1602.98,128.767C1602.86,128.605 1602.89,128.372 1603.05,128.247C1603.21,128.123 1603.45,128.153 1603.57,128.316ZM1606.9,133.85C1607.19,134.169 1607.7,133.783 1607.47,133.412C1605.39,130.08 1602.36,125.211 1602.07,124.839C1601.63,124.271 1600.82,124.163 1600.25,124.6C1599.68,125.036 1599.58,125.851 1600.01,126.419C1600.3,126.791 1604.21,130.986 1606.9,133.85Z" style="fill:#733c52;fill-rule:nonzero;"/>
                <path d="M1597.84,127.639C1598.12,127.266 1598.66,127.196 1599.03,127.482C1599.4,127.768 1599.48,128.305 1599.19,128.678C1598.9,129.051 1598.37,129.121 1597.99,128.835C1597.62,128.549 1597.55,128.012 1597.84,127.639ZM1599.64,129.028C1599.86,128.744 1600.27,128.69 1600.55,128.908C1600.84,129.126 1600.89,129.534 1600.67,129.818C1600.46,130.101 1600.05,130.155 1599.76,129.937C1599.48,129.719 1599.43,129.311 1599.64,129.028ZM1601.13,130.167C1601.26,130.005 1601.49,129.974 1601.65,130.099C1601.81,130.223 1601.84,130.457 1601.72,130.619C1601.59,130.781 1601.36,130.812 1601.2,130.687C1601.04,130.563 1601.01,130.33 1601.13,130.167ZM1606.29,134.584C1606.67,134.814 1607.05,134.311 1606.73,134.013C1603.87,131.331 1599.67,127.414 1599.3,127.129C1598.73,126.693 1597.92,126.8 1597.48,127.369C1597.05,127.937 1597.15,128.752 1597.72,129.188C1598.09,129.473 1602.96,132.511 1606.29,134.584Z" style="fill:#733c52;fill-rule:nonzero;"/>
                <path d="M1595.94,130.93C1596.12,130.496 1596.62,130.289 1597.05,130.468C1597.48,130.648 1597.69,131.148 1597.51,131.583C1597.33,132.017 1596.83,132.224 1596.4,132.044C1595.96,131.864 1595.76,131.364 1595.94,130.93ZM1598.04,131.803C1598.18,131.472 1598.56,131.315 1598.89,131.451C1599.22,131.588 1599.38,131.969 1599.24,132.299C1599.1,132.63 1598.73,132.787 1598.39,132.65C1598.06,132.513 1597.9,132.133 1598.04,131.803ZM1599.77,132.519C1599.85,132.33 1600.07,132.24 1600.26,132.319C1600.45,132.397 1600.54,132.614 1600.46,132.803C1600.38,132.992 1600.16,133.082 1599.97,133.004C1599.78,132.925 1599.69,132.708 1599.77,132.519ZM1596.23,132.455C1596.66,132.634 1602.15,134.309 1605.9,135.448C1606.32,135.575 1606.57,134.989 1606.18,134.784C1602.72,132.934 1597.65,130.237 1597.22,130.057C1596.56,129.783 1595.8,130.097 1595.53,130.76C1595.25,131.422 1595.57,132.181 1596.23,132.455Z" style="fill:#733c52;fill-rule:nonzero;"/>
                <path d="M1594.95,134.6C1595.01,134.134 1595.44,133.805 1595.91,133.866C1596.38,133.927 1596.7,134.357 1596.64,134.823C1596.58,135.289 1596.15,135.618 1595.69,135.557C1595.22,135.496 1594.89,135.066 1594.95,134.6ZM1597.21,134.898C1597.26,134.543 1597.59,134.293 1597.94,134.339C1598.3,134.386 1598.55,134.712 1598.5,135.067C1598.45,135.422 1598.13,135.672 1597.77,135.626C1597.42,135.579 1597.17,135.253 1597.21,134.898ZM1599.07,135.142C1599.1,134.939 1599.28,134.796 1599.49,134.823C1599.69,134.85 1599.83,135.036 1599.81,135.239C1599.78,135.442 1599.59,135.585 1599.39,135.558C1599.19,135.532 1599.04,135.345 1599.07,135.142ZM1595.63,135.998C1596.09,136.059 1601.83,136.256 1605.75,136.385C1606.19,136.399 1606.27,135.77 1605.84,135.671C1602.02,134.781 1596.43,133.486 1595.97,133.425C1595.26,133.331 1594.61,133.832 1594.51,134.542C1594.42,135.253 1594.92,135.905 1595.63,135.998Z" style="fill:#733c52;fill-rule:nonzero;"/>
            </g>
            <g id="q31" serif:id="q3">
                <path d="M1594.95,138.4C1594.89,137.934 1595.22,137.504 1595.69,137.443C1596.15,137.382 1596.58,137.711 1596.64,138.177C1596.7,138.643 1596.38,139.073 1595.91,139.134C1595.44,139.195 1595.01,138.866 1594.95,138.4ZM1597.77,137.374C1598.13,137.328 1598.45,137.578 1598.5,137.933C1598.55,138.288 1598.3,138.614 1597.94,138.661C1597.59,138.708 1597.26,138.457 1597.21,138.102C1597.17,137.747 1597.42,137.421 1597.77,137.374ZM1599.39,137.442C1599.59,137.415 1599.78,137.558 1599.81,137.761C1599.83,137.964 1599.69,138.15 1599.49,138.177C1599.28,138.204 1599.1,138.06 1599.07,137.858C1599.04,137.655 1599.19,137.468 1599.39,137.442ZM1605.84,137.329C1606.27,137.23 1606.19,136.601 1605.75,136.615C1601.83,136.744 1596.09,136.941 1595.63,137.002C1594.92,137.095 1594.42,137.747 1594.51,138.458C1594.61,139.168 1595.26,139.669 1595.97,139.575C1596.43,139.514 1602.02,138.219 1605.84,137.329Z" style="fill:#733c52;fill-rule:nonzero;"/>
                <path d="M1595.94,142.07C1595.76,141.636 1595.96,141.136 1596.4,140.956C1596.83,140.776 1597.33,140.983 1597.51,141.417C1597.69,141.852 1597.48,142.352 1597.05,142.531C1596.62,142.711 1596.12,142.504 1595.94,142.07ZM1598.39,140.35C1598.73,140.213 1599.11,140.37 1599.24,140.701C1599.38,141.031 1599.22,141.412 1598.89,141.549C1598.56,141.686 1598.18,141.528 1598.04,141.197C1597.91,140.867 1598.06,140.486 1598.39,140.35ZM1599.97,139.996C1600.16,139.918 1600.38,140.008 1600.46,140.197C1600.54,140.386 1600.45,140.603 1600.26,140.681C1600.07,140.76 1599.85,140.67 1599.77,140.481C1599.69,140.292 1599.78,140.075 1599.97,139.996ZM1606.18,138.216C1606.57,138.011 1606.32,137.425 1605.9,137.552C1602.15,138.691 1596.66,140.366 1596.23,140.545C1595.57,140.819 1595.25,141.578 1595.53,142.24C1595.8,142.902 1596.56,143.217 1597.22,142.943C1597.65,142.763 1602.72,140.066 1606.18,138.216Z" style="fill:#733c52;fill-rule:nonzero;"/>
                <path d="M1601.65,142.901C1601.49,143.025 1601.26,142.995 1601.13,142.833C1601.01,142.67 1601.04,142.437 1601.2,142.313C1601.36,142.188 1601.59,142.219 1601.72,142.381C1601.84,142.543 1601.81,142.777 1601.65,142.901ZM1600.56,144.092C1600.27,144.31 1599.86,144.256 1599.64,143.972C1599.43,143.689 1599.48,143.281 1599.77,143.063C1600.05,142.845 1600.46,142.899 1600.67,143.182C1600.89,143.466 1600.84,143.874 1600.56,144.092ZM1599.03,145.518C1598.66,145.804 1598.12,145.734 1597.84,145.361C1597.55,144.988 1597.62,144.451 1597.99,144.165C1598.37,143.879 1598.9,143.949 1599.19,144.322C1599.48,144.695 1599.4,145.232 1599.03,145.518ZM1606.29,138.416C1602.96,140.489 1598.09,143.527 1597.72,143.812C1597.15,144.248 1597.05,145.063 1597.48,145.632C1597.92,146.2 1598.73,146.307 1599.3,145.871C1599.67,145.586 1603.87,141.669 1606.73,138.987C1607.05,138.689 1606.67,138.186 1606.29,138.416Z" style="fill:#733c52;fill-rule:nonzero;"/>
                <path d="M1603.57,144.684C1603.45,144.847 1603.21,144.877 1603.05,144.753C1602.89,144.628 1602.86,144.395 1602.98,144.233C1603.11,144.071 1603.34,144.04 1603.5,144.165C1603.66,144.289 1603.69,144.522 1603.57,144.684ZM1602.82,146.119C1602.6,146.402 1602.19,146.456 1601.91,146.238C1601.63,146.021 1601.57,145.612 1601.79,145.329C1602.01,145.045 1602.42,144.991 1602.7,145.209C1602.99,145.427 1603.04,145.835 1602.82,146.119ZM1601.72,147.89C1601.43,148.263 1600.9,148.334 1600.52,148.047C1600.15,147.761 1600.08,147.225 1600.37,146.852C1600.65,146.479 1601.19,146.408 1601.56,146.694C1601.93,146.981 1602.01,147.517 1601.72,147.89ZM1606.9,139.15C1604.21,142.014 1600.3,146.209 1600.01,146.581C1599.58,147.149 1599.68,147.964 1600.25,148.4C1600.82,148.837 1601.63,148.729 1602.07,148.161C1602.36,147.789 1605.39,142.92 1607.47,139.588C1607.7,139.217 1607.19,138.831 1606.9,139.15Z" style="fill:#733c52;fill-rule:nonzero;"/>
                <path d="M1605.89,145.91C1605.81,146.099 1605.59,146.189 1605.4,146.111C1605.21,146.032 1605.12,145.815 1605.2,145.626C1605.28,145.437 1605.5,145.347 1605.69,145.426C1605.88,145.504 1605.97,145.721 1605.89,145.91ZM1605.53,147.489C1605.4,147.82 1605.02,147.977 1604.69,147.84C1604.36,147.704 1604.2,147.323 1604.34,146.993C1604.47,146.662 1604.85,146.505 1605.18,146.642C1605.51,146.779 1605.67,147.159 1605.53,147.489ZM1604.93,149.486C1604.75,149.92 1604.25,150.127 1603.81,149.947C1603.38,149.767 1603.17,149.267 1603.35,148.833C1603.53,148.399 1604.03,148.192 1604.47,148.371C1604.9,148.551 1605.11,149.051 1604.93,149.486ZM1607.67,139.704C1605.82,143.164 1603.12,148.23 1602.94,148.663C1602.67,149.325 1602.98,150.084 1603.64,150.358C1604.31,150.633 1605.06,150.318 1605.34,149.656C1605.52,149.223 1607.19,143.734 1608.33,139.979C1608.46,139.561 1607.87,139.318 1607.67,139.704Z" style="fill:#733c52;fill-rule:nonzero;"/>
                <path d="M1608.44,146.494C1608.41,146.697 1608.23,146.84 1608.03,146.813C1607.82,146.787 1607.68,146.6 1607.71,146.397C1607.73,146.195 1607.92,146.052 1608.12,146.078C1608.33,146.105 1608.47,146.292 1608.44,146.494ZM1608.51,148.111C1608.46,148.466 1608.14,148.717 1607.78,148.67C1607.43,148.623 1607.18,148.297 1607.22,147.942C1607.27,147.587 1607.6,147.337 1607.95,147.383C1608.31,147.43 1608.56,147.757 1608.51,148.111ZM1608.44,150.197C1608.38,150.663 1607.95,150.992 1607.48,150.931C1607.02,150.869 1606.69,150.44 1606.75,149.974C1606.81,149.508 1607.24,149.178 1607.71,149.24C1608.17,149.301 1608.5,149.73 1608.44,150.197ZM1608.55,140.039C1607.66,143.86 1606.37,149.451 1606.31,149.916C1606.22,150.626 1606.72,151.278 1607.42,151.372C1608.14,151.465 1608.79,150.965 1608.88,150.254C1608.94,149.79 1609.14,144.054 1609.27,140.133C1609.28,139.696 1608.65,139.613 1608.55,140.039Z" style="fill:#733c52;fill-rule:nonzero;"/>
            </g>
            <g id="q21" serif:id="q2">
                <path d="M1610.74,146.813C1610.54,146.84 1610.35,146.697 1610.33,146.494C1610.3,146.291 1610.44,146.105 1610.64,146.078C1610.85,146.052 1611.03,146.195 1611.06,146.397C1611.09,146.6 1610.94,146.787 1610.74,146.813ZM1611.54,147.942C1611.59,148.297 1611.34,148.623 1610.99,148.67C1610.63,148.717 1610.3,148.466 1610.26,148.111C1610.21,147.756 1610.46,147.43 1610.82,147.383C1611.17,147.337 1611.5,147.587 1611.54,147.942ZM1611.28,150.931C1610.82,150.992 1610.39,150.663 1610.33,150.196C1610.27,149.73 1610.59,149.301 1611.06,149.24C1611.53,149.178 1611.96,149.508 1612.02,149.974C1612.08,150.44 1611.75,150.869 1611.28,150.931ZM1609.5,140.133C1609.63,144.054 1609.82,149.79 1609.88,150.255C1609.98,150.965 1610.63,151.465 1611.34,151.372C1612.05,151.278 1612.55,150.626 1612.46,149.916C1612.4,149.451 1611.1,143.86 1610.21,140.039C1610.11,139.613 1609.48,139.696 1609.5,140.133Z" style="fill:#733c52;fill-rule:nonzero;"/>
                <path d="M1614.95,149.947C1614.52,150.127 1614.02,149.92 1613.84,149.486C1613.66,149.051 1613.87,148.551 1614.3,148.371C1614.74,148.191 1615.24,148.399 1615.41,148.833C1615.6,149.267 1615.39,149.767 1614.95,149.947ZM1613.23,147.489C1613.1,147.159 1613.25,146.778 1613.58,146.642C1613.91,146.505 1614.29,146.662 1614.43,146.993C1614.57,147.323 1614.41,147.704 1614.08,147.84C1613.75,147.977 1613.37,147.82 1613.23,147.489ZM1612.88,145.91C1612.8,145.721 1612.89,145.504 1613.08,145.426C1613.27,145.347 1613.49,145.437 1613.57,145.626C1613.64,145.815 1613.55,146.032 1613.36,146.111C1613.17,146.189 1612.96,146.099 1612.88,145.91ZM1611.1,139.704C1610.89,139.318 1610.31,139.561 1610.43,139.979C1611.57,143.734 1613.25,149.223 1613.43,149.656C1613.7,150.318 1614.46,150.633 1615.12,150.358C1615.79,150.084 1616.1,149.325 1615.83,148.663C1615.65,148.23 1612.95,143.164 1611.1,139.704Z" style="fill:#733c52;fill-rule:nonzero;"/>
                <path d="M1618.24,148.047C1617.87,148.334 1617.33,148.263 1617.05,147.89C1616.76,147.517 1616.83,146.981 1617.2,146.694C1617.58,146.408 1618.12,146.479 1618.4,146.852C1618.69,147.225 1618.62,147.761 1618.24,148.047ZM1615.95,146.119C1615.73,145.835 1615.78,145.427 1616.07,145.209C1616.35,144.991 1616.76,145.045 1616.98,145.328C1617.19,145.612 1617.14,146.021 1616.86,146.238C1616.57,146.456 1616.16,146.402 1615.95,146.119ZM1615.2,144.684C1615.07,144.522 1615.1,144.289 1615.26,144.165C1615.43,144.04 1615.66,144.071 1615.78,144.233C1615.91,144.395 1615.88,144.628 1615.72,144.753C1615.55,144.877 1615.32,144.847 1615.2,144.684ZM1611.87,139.15C1611.57,138.831 1611.07,139.217 1611.3,139.588C1613.37,142.92 1616.41,147.789 1616.69,148.161C1617.13,148.729 1617.95,148.837 1618.51,148.4C1619.08,147.964 1619.19,147.149 1618.75,146.581C1618.47,146.209 1614.55,142.014 1611.87,139.15Z" style="fill:#733c52;fill-rule:nonzero;"/>
                <path d="M1620.93,145.361C1620.64,145.734 1620.11,145.804 1619.74,145.518C1619.36,145.232 1619.29,144.695 1619.58,144.322C1619.86,143.949 1620.4,143.879 1620.77,144.165C1621.15,144.451 1621.22,144.988 1620.93,145.361ZM1619.12,143.972C1618.9,144.256 1618.5,144.31 1618.21,144.092C1617.93,143.874 1617.87,143.466 1618.09,143.182C1618.31,142.899 1618.72,142.845 1619,143.063C1619.29,143.28 1619.34,143.689 1619.12,143.972ZM1617.64,142.833C1617.51,142.995 1617.28,143.026 1617.12,142.901C1616.95,142.777 1616.92,142.543 1617.05,142.381C1617.17,142.219 1617.4,142.188 1617.57,142.313C1617.73,142.437 1617.76,142.67 1617.64,142.833ZM1612.47,138.416C1612.1,138.186 1611.72,138.688 1612.03,138.987C1614.9,141.669 1619.09,145.586 1619.46,145.871C1620.03,146.307 1620.85,146.2 1621.28,145.631C1621.72,145.063 1621.61,144.248 1621.04,143.812C1620.67,143.527 1615.8,140.489 1612.47,138.416Z" style="fill:#733c52;fill-rule:nonzero;"/>
                <path d="M1622.83,142.07C1622.65,142.504 1622.15,142.711 1621.72,142.532C1621.28,142.352 1621.08,141.852 1621.25,141.417C1621.43,140.983 1621.93,140.776 1622.37,140.956C1622.8,141.136 1623.01,141.635 1622.83,142.07ZM1620.72,141.197C1620.59,141.528 1620.21,141.685 1619.88,141.549C1619.55,141.412 1619.39,141.031 1619.53,140.701C1619.66,140.37 1620.04,140.213 1620.37,140.35C1620.7,140.487 1620.86,140.867 1620.72,141.197ZM1618.99,140.481C1618.92,140.67 1618.7,140.76 1618.51,140.682C1618.32,140.603 1618.23,140.386 1618.31,140.197C1618.39,140.008 1618.6,139.918 1618.79,139.996C1618.98,140.075 1619.07,140.292 1618.99,140.481ZM1622.54,140.545C1622.11,140.366 1616.62,138.691 1612.86,137.552C1612.44,137.425 1612.2,138.011 1612.59,138.216C1616.05,140.066 1621.11,142.763 1621.55,142.943C1622.21,143.217 1622.97,142.902 1623.24,142.24C1623.52,141.578 1623.2,140.819 1622.54,140.545Z" style="fill:#733c52;fill-rule:nonzero;"/>
                <path d="M1623.81,138.4C1623.75,138.866 1623.32,139.195 1622.86,139.134C1622.39,139.073 1622.06,138.643 1622.12,138.177C1622.18,137.711 1622.61,137.382 1623.08,137.443C1623.55,137.504 1623.88,137.934 1623.81,138.4ZM1621.55,138.102C1621.51,138.457 1621.18,138.708 1620.83,138.661C1620.47,138.614 1620.22,138.288 1620.27,137.933C1620.31,137.578 1620.64,137.327 1620.99,137.374C1621.35,137.421 1621.6,137.748 1621.55,138.102ZM1619.7,137.858C1619.67,138.06 1619.48,138.204 1619.28,138.177C1619.08,138.15 1618.93,137.964 1618.96,137.761C1618.99,137.558 1619.17,137.415 1619.38,137.442C1619.58,137.468 1619.72,137.655 1619.7,137.858ZM1623.14,137.002C1622.67,136.941 1616.94,136.744 1613.02,136.615C1612.58,136.601 1612.5,137.23 1612.92,137.329C1616.74,138.219 1622.33,139.514 1622.8,139.575C1623.51,139.669 1624.16,139.169 1624.26,138.458C1624.35,137.747 1623.85,137.096 1623.14,137.002Z" style="fill:#733c52;fill-rule:nonzero;"/>
            </g>
            <g id="q11" serif:id="q1">
                <path d="M1623.08,135.557C1622.61,135.618 1622.18,135.289 1622.12,134.823C1622.06,134.357 1622.39,133.927 1622.86,133.866C1623.32,133.805 1623.75,134.134 1623.81,134.6C1623.88,135.066 1623.55,135.496 1623.08,135.557ZM1620.99,135.626C1620.64,135.673 1620.31,135.422 1620.27,135.067C1620.22,134.712 1620.47,134.386 1620.83,134.339C1621.18,134.292 1621.51,134.543 1621.55,134.898C1621.6,135.253 1621.35,135.579 1620.99,135.626ZM1619.38,135.558C1619.17,135.585 1618.99,135.442 1618.96,135.239C1618.93,135.036 1619.08,134.85 1619.28,134.823C1619.48,134.796 1619.67,134.939 1619.7,135.142C1619.72,135.345 1619.58,135.531 1619.38,135.558ZM1622.8,133.425C1622.34,133.486 1616.74,134.781 1612.92,135.671C1612.5,135.77 1612.58,136.399 1613.02,136.385C1616.94,136.256 1622.67,136.059 1623.14,135.998C1623.85,135.905 1624.35,135.253 1624.26,134.542C1624.16,133.832 1623.51,133.331 1622.8,133.425Z" style="fill:#733c52;fill-rule:nonzero;"/>
                <path d="M1622.83,130.93C1623.01,131.364 1622.8,131.864 1622.37,132.044C1621.93,132.224 1621.43,132.017 1621.25,131.583C1621.08,131.148 1621.28,130.648 1621.72,130.468C1622.15,130.288 1622.65,130.496 1622.83,130.93ZM1620.37,132.65C1620.04,132.787 1619.66,132.63 1619.52,132.299C1619.39,131.969 1619.55,131.588 1619.88,131.451C1620.21,131.315 1620.59,131.472 1620.72,131.803C1620.86,132.133 1620.7,132.513 1620.37,132.65ZM1618.79,133.004C1618.6,133.082 1618.39,132.992 1618.31,132.803C1618.23,132.614 1618.32,132.397 1618.51,132.318C1618.7,132.24 1618.92,132.33 1618.99,132.519C1619.07,132.708 1618.98,132.925 1618.79,133.004ZM1612.59,134.783C1612.2,134.989 1612.44,135.575 1612.86,135.448C1616.62,134.309 1622.11,132.634 1622.54,132.455C1623.2,132.181 1623.52,131.422 1623.24,130.76C1622.97,130.098 1622.21,129.783 1621.55,130.057C1621.11,130.237 1616.05,132.934 1612.59,134.783Z" style="fill:#733c52;fill-rule:nonzero;"/>
                <path d="M1617.12,130.099C1617.28,129.974 1617.51,130.005 1617.64,130.167C1617.76,130.33 1617.73,130.563 1617.57,130.687C1617.41,130.812 1617.17,130.781 1617.05,130.619C1616.92,130.457 1616.95,130.223 1617.12,130.099ZM1618.21,128.908C1618.5,128.69 1618.9,128.744 1619.12,129.028C1619.34,129.311 1619.29,129.72 1619,129.937C1618.72,130.155 1618.31,130.101 1618.09,129.818C1617.87,129.534 1617.93,129.126 1618.21,128.908ZM1619.74,127.482C1620.11,127.196 1620.64,127.266 1620.93,127.639C1621.22,128.012 1621.15,128.549 1620.77,128.835C1620.4,129.121 1619.86,129.051 1619.58,128.678C1619.29,128.305 1619.36,127.768 1619.74,127.482ZM1612.47,134.584C1615.8,132.511 1620.67,129.473 1621.04,129.188C1621.61,128.752 1621.72,127.937 1621.28,127.369C1620.85,126.8 1620.03,126.693 1619.46,127.129C1619.09,127.414 1614.9,131.331 1612.03,134.013C1611.71,134.312 1612.1,134.814 1612.47,134.584Z" style="fill:#733c52;fill-rule:nonzero;"/>
                <path d="M1615.2,128.316C1615.32,128.153 1615.55,128.123 1615.72,128.247C1615.88,128.372 1615.91,128.605 1615.79,128.767C1615.66,128.929 1615.43,128.96 1615.26,128.835C1615.1,128.711 1615.07,128.478 1615.2,128.316ZM1615.95,126.881C1616.16,126.598 1616.57,126.544 1616.86,126.762C1617.14,126.979 1617.19,127.388 1616.98,127.671C1616.76,127.955 1616.35,128.009 1616.07,127.791C1615.78,127.573 1615.73,127.165 1615.95,126.881ZM1617.05,125.11C1617.33,124.737 1617.87,124.666 1618.24,124.953C1618.62,125.239 1618.69,125.775 1618.4,126.148C1618.12,126.521 1617.58,126.592 1617.21,126.306C1616.83,126.019 1616.76,125.483 1617.05,125.11ZM1611.87,133.85C1614.55,130.986 1618.47,126.791 1618.75,126.419C1619.19,125.851 1619.08,125.036 1618.51,124.6C1617.95,124.163 1617.13,124.271 1616.69,124.839C1616.41,125.211 1613.37,130.08 1611.3,133.412C1611.07,133.783 1611.57,134.169 1611.87,133.85Z" style="fill:#733c52;fill-rule:nonzero;"/>
                <path d="M1612.88,127.09C1612.96,126.901 1613.17,126.811 1613.36,126.889C1613.55,126.968 1613.64,127.185 1613.57,127.374C1613.49,127.563 1613.27,127.653 1613.08,127.575C1612.89,127.496 1612.8,127.279 1612.88,127.09ZM1613.23,125.511C1613.37,125.18 1613.75,125.023 1614.08,125.159C1614.41,125.296 1614.57,125.677 1614.43,126.007C1614.3,126.338 1613.91,126.495 1613.58,126.358C1613.25,126.222 1613.1,125.841 1613.23,125.511ZM1613.84,123.514C1614.02,123.08 1614.52,122.873 1614.95,123.053C1615.39,123.233 1615.6,123.733 1615.41,124.167C1615.24,124.602 1614.74,124.809 1614.3,124.629C1613.87,124.449 1613.66,123.949 1613.84,123.514ZM1611.1,133.296C1612.95,129.836 1615.65,124.77 1615.83,124.337C1616.1,123.675 1615.79,122.916 1615.12,122.642C1614.46,122.368 1613.7,122.682 1613.43,123.344C1613.25,123.777 1611.57,129.266 1610.43,133.021C1610.31,133.439 1610.89,133.682 1611.1,133.296Z" style="fill:#733c52;fill-rule:nonzero;"/>
                <path d="M1610.33,126.506C1610.35,126.303 1610.54,126.16 1610.74,126.186C1610.94,126.213 1611.09,126.4 1611.06,126.602C1611.03,126.805 1610.85,126.948 1610.64,126.922C1610.44,126.895 1610.3,126.708 1610.33,126.506ZM1610.26,124.889C1610.3,124.534 1610.63,124.283 1610.99,124.33C1611.34,124.377 1611.59,124.703 1611.54,125.058C1611.5,125.413 1611.17,125.663 1610.82,125.617C1610.46,125.57 1610.21,125.243 1610.26,124.889ZM1610.33,122.804C1610.39,122.337 1610.82,122.008 1611.28,122.069C1611.75,122.131 1612.08,122.56 1612.02,123.026C1611.96,123.492 1611.53,123.822 1611.06,123.76C1610.59,123.699 1610.27,123.27 1610.33,122.804ZM1610.21,132.961C1611.1,129.14 1612.4,123.548 1612.46,123.084C1612.55,122.374 1612.05,121.722 1611.34,121.628C1610.63,121.535 1609.98,122.035 1609.88,122.746C1609.82,123.21 1609.63,128.946 1609.5,132.867C1609.48,133.304 1610.11,133.387 1610.21,132.961Z" style="fill:#733c52;fill-rule:nonzero;"/>
            </g>
        </g>
    </g>
</svg>
