<?xml version="1.0" encoding="UTF-8" standalone="no"?>
<!DOCTYPE svg PUBLIC "-//W3C//DTD SVG 1.1//EN" "http://www.w3.org/Graphics/SVG/1.1/DTD/svg11.dtd">
<svg width="100%" height="100%" viewBox="0 0 1700 2480" version="1.1" xmlns="http://www.w3.org/2000/svg" xmlns:xlink="http://www.w3.org/1999/xlink" xml:space="preserve" xmlns:serif="http://www.serif.com/" style="fill-rule:evenodd;clip-rule:evenodd;stroke-linecap:round;stroke-linejoin:round;stroke-miterlimit:1.5;">
    <rect id="C" x="0" y="0" width="1700" height="2480" style="fill:none;"/>
    <g id="Fields" opacity="0.2">
        <path id="_11" serif:id="11" sound="Field/08-Petals" d="M496.488,894.587L10.379,416.376L10.379,10L517.393,9.905L722.022,762.641C635.493,786.499 560.817,828.837 496.488,894.587Z" style="fill:#607777;stroke:#767676;stroke-width:8.33px;"/>
        <path id="_3" serif:id="3" sound="Field/09-Petals" d="M1328,1368.23L1690.05,1461.86L1690.05,1016L1328,1112.1C1349.41,1198.71 1351.76,1284.23 1328,1368.23Z" style="fill:#b7977c;stroke:#767676;stroke-width:8.33px;"/>
        <path id="_1" serif:id="1" sound="Field/05-Rays" d="M1203.91,895.587L1690.02,417.376L1690.02,10L1181.01,9.905L977.379,762.641C1063.91,786.499 1139.58,829.837 1203.91,895.587Z" style="fill:#63859f;stroke:#767676;stroke-width:8.33px;"/>
    </g>
    <g id="SG">
        <g id="Meta-Ring">
            <path d="M1262.06,1479.89C1130.75,1707.33 839.501,1785.38 612.077,1654.08C384.653,1522.78 306.623,1231.52 437.936,1004.08C569.25,776.638 860.499,698.586 1087.92,829.89C1315.35,961.193 1393.38,1252.45 1262.06,1479.89Z" style="fill:none;stroke:#000;stroke-width:0.48px;stroke-linecap:square;"/>
            <path d="M1262.06,1479.89L1235.72,1464.68" style="fill:none;stroke:#000;stroke-width:0.48px;stroke-linecap:square;"/>
            <path d="M464.279,1019.29L437.936,1004.08" style="fill:none;stroke:#000;stroke-width:0.48px;stroke-linecap:square;"/>
            <path d="M627.286,1627.74L612.077,1654.08" style="fill:none;stroke:#000;stroke-width:0.48px;stroke-linecap:square;"/>
            <path d="M1087.92,829.89L1072.71,856.232" style="fill:none;stroke:#000;stroke-width:0.48px;stroke-linecap:square;"/>
            <path d="M1087.91,1654.06L1072.7,1627.72" style="fill:none;stroke:#000;stroke-width:0.48px;stroke-linecap:square;"/>
            <path d="M627.296,856.25L612.087,829.907" style="fill:none;stroke:#000;stroke-width:0.48px;stroke-linecap:square;"/>
            <path d="M464.249,1464.7L437.907,1479.91" style="fill:none;stroke:#000;stroke-width:0.48px;stroke-linecap:square;"/>
            <path d="M1262.09,1004.06L1235.75,1019.27" style="fill:none;stroke:#000;stroke-width:0.48px;stroke-linecap:square;"/>
            <path d="M850,1717.83L850,1687.41" style="fill:none;stroke:#000;stroke-width:0.48px;stroke-linecap:square;"/>
            <path d="M850,796.558L850,766.14" style="fill:none;stroke:#000;stroke-width:0.48px;stroke-linecap:square;"/>
            <path d="M404.592,1241.99L374.174,1241.99" style="fill:none;stroke:#000;stroke-width:0.48px;stroke-linecap:square;"/>
            <path d="M1325.83,1241.99L1295.41,1241.99" style="fill:none;stroke:#000;stroke-width:0.48px;stroke-linecap:square;"/>
        </g>
        <g id="Ring-Backers" serif:id="Ring Backers">
            <circle id="_11-Backer" serif:id="11 Backer" cx="615.136" cy="838.798" r="92" style="fill:#fff;"/>
            <circle id="_8-Backer" serif:id="8 Backer" cx="443.136" cy="1470.8" r="92" style="fill:#fff;"/>
            <circle id="_3-Backer" serif:id="3 Backer" cx="1317.6" cy="1241.35" r="92" style="fill:#fff;stroke:#fff;stroke-width:1px;stroke-linecap:butt;stroke-miterlimit:2;"/>
            <circle id="_1-Backer" serif:id="1 Backer" cx="1084.6" cy="838.09" r="92" style="fill:#fff;"/>
        </g>
        <g id="Child-Rings" serif:id="Child Rings">
            <a href="C2B.svg">
            <g id="_111" serif:id="11" sound="Font/1-Low-Ab,Font/1-Mid-Bb,Font/1-High-B">
                <g id="Ring--Sounder--Background" serif:id="Ring, Sounder, Background">
                    <circle id="Sounder" cx="615.136" cy="838.798" r="92" style="fill:#fff;"/>
                    <g id="Ring">
                        <path d="M694.253,885.114C669.04,928.782 613.121,943.768 569.455,918.558C525.79,893.348 510.808,837.427 536.02,793.758C561.232,750.089 617.152,735.103 660.818,760.314C704.483,785.524 719.465,841.445 694.253,885.114Z" style="fill:none;stroke:#000;stroke-width:2.17px;"/>
                        <path d="M694.253,885.114L689.195,882.193" style="fill:none;stroke:#000;stroke-width:2.17px;"/>
                        <path d="M541.078,796.678L536.02,793.758" style="fill:none;stroke:#000;stroke-width:2.17px;"/>
                        <path d="M572.375,913.5L569.455,918.558" style="fill:none;stroke:#000;stroke-width:2.17px;"/>
                        <path d="M660.818,760.314L657.897,765.371" style="fill:none;stroke:#000;stroke-width:2.17px;"/>
                        <path d="M660.816,918.555L657.896,913.497" style="fill:none;stroke:#000;stroke-width:2.17px;"/>
                        <path d="M572.377,765.375L569.457,760.317" style="fill:none;stroke:#000;stroke-width:2.17px;"/>
                        <path d="M541.072,882.197L536.014,885.117" style="fill:none;stroke:#000;stroke-width:2.17px;"/>
                        <path d="M694.258,793.755L689.2,796.675" style="fill:none;stroke:#000;stroke-width:2.17px;"/>
                        <path d="M615.136,930.798L615.136,924.958" style="fill:none;stroke:#000;stroke-width:2.17px;"/>
                        <path d="M615.136,753.914L615.136,748.074" style="fill:none;stroke:#000;stroke-width:2.17px;"/>
                        <path d="M529.618,839.436L523.778,839.436" style="fill:none;stroke:#000;stroke-width:2.17px;"/>
                        <path d="M706.495,839.436L700.655,839.436" style="fill:none;stroke:#000;stroke-width:2.17px;"/>
                    </g>
                </g>
                <g id="Notes">
                    <path id="_10" serif:id="10" d="M550.149,801.652C545.913,808.989 536.518,811.506 529.182,807.27C521.846,803.035 519.328,793.64 523.564,786.303C527.799,778.967 537.194,776.45 544.531,780.685C551.867,784.921 554.385,794.316 550.149,801.652Z" style="fill:#587f6f;stroke:#fff;stroke-width:5.21px;"/>
                    <path id="_8" serif:id="8" d="M549.604,892.647C545.368,899.984 535.973,902.501 528.637,898.265C521.3,894.03 518.783,884.635 523.019,877.298C527.254,869.962 536.649,867.445 543.986,871.68C551.322,875.916 553.839,885.311 549.604,892.647Z" style="fill:#587f6f;stroke:#fff;stroke-width:5.21px;"/>
                </g>
                <g id="Root-Marker" serif:id="Root Marker">
                    <path id="_81" serif:id="8" d="M557.309,872.704L569.844,857.871L576.422,869.264L557.309,872.704ZM566.187,867.578L570.944,866.722L569.307,863.886L566.187,867.578Z" style="fill:#587f6f;"/>
                </g>
                <g id="Treble-Note" serif:id="Treble Note">
                    <g id="_112" serif:id="11">
                        <path id="_113" serif:id="11" d="M582.49,767.08C578.203,774.505 568.695,777.053 561.269,772.766C553.844,768.48 551.296,758.971 555.583,751.546C559.87,744.121 569.379,741.573 576.804,745.86C584.229,750.147 586.777,759.655 582.49,767.08Z" style="fill:#fff;stroke:#fff;stroke-width:6.5px;"/>
                        <circle id="_11a" serif:id="11a" cx="569.037" cy="759.313" r="12.477" style="fill:#fff;stroke:#587f6f;stroke-width:3.25px;"/>
                    </g>
                </g>
            </g>
            </a>
            <a href="Crefocus.svg">
            <g id="_82" serif:id="8" sound="Font/2-Low-Db,Font/2-Mid-Eb,Font/2-Mid-Ab,Font/2-Mid-B,Font/2-High-Db">
                <g id="Ring--Sounder--Background1" serif:id="Ring, Sounder, Background">
                    <circle id="Sounder1" serif:id="Sounder" cx="443.136" cy="1470.8" r="92" style="fill:#fff;"/>
                    <g id="Ring1" serif:id="Ring">
                        <path d="M522.253,1517.11C497.04,1560.78 441.121,1575.77 397.455,1550.56C353.79,1525.35 338.808,1469.43 364.02,1425.76C389.232,1382.09 445.152,1367.1 488.818,1392.31C532.483,1417.52 547.465,1473.44 522.253,1517.11Z" style="fill:none;stroke:#000;stroke-width:2.17px;"/>
                        <path d="M522.253,1517.11L517.195,1514.19" style="fill:none;stroke:#000;stroke-width:2.17px;"/>
                        <path d="M369.078,1428.68L364.02,1425.76" style="fill:none;stroke:#000;stroke-width:2.17px;"/>
                        <path d="M400.375,1545.5L397.455,1550.56" style="fill:none;stroke:#000;stroke-width:2.17px;"/>
                        <path d="M488.818,1392.31L485.897,1397.37" style="fill:none;stroke:#000;stroke-width:2.17px;"/>
                        <path d="M488.816,1550.56L485.896,1545.5" style="fill:none;stroke:#000;stroke-width:2.17px;"/>
                        <path d="M400.377,1397.38L397.457,1392.32" style="fill:none;stroke:#000;stroke-width:2.17px;"/>
                        <path d="M369.072,1514.2L364.014,1517.12" style="fill:none;stroke:#000;stroke-width:2.17px;"/>
                        <path d="M522.258,1425.76L517.2,1428.67" style="fill:none;stroke:#000;stroke-width:2.17px;"/>
                        <path d="M443.136,1562.8L443.136,1556.96" style="fill:none;stroke:#000;stroke-width:2.17px;"/>
                        <path d="M443.136,1385.91L443.136,1380.07" style="fill:none;stroke:#000;stroke-width:2.17px;"/>
                        <path d="M357.618,1471.44L351.778,1471.44" style="fill:none;stroke:#000;stroke-width:2.17px;"/>
                        <path d="M534.495,1471.44L528.655,1471.44" style="fill:none;stroke:#000;stroke-width:2.17px;"/>
                    </g>
                </g>
                <g id="Notes1" serif:id="Notes">
                    <path id="_114" serif:id="11" d="M410.676,1399.85C406.44,1407.18 397.045,1409.7 389.709,1405.46C382.373,1401.23 379.855,1391.83 384.091,1384.5C388.327,1377.16 397.722,1374.64 405.058,1378.88C412.394,1383.12 414.912,1392.51 410.676,1399.85Z" style="fill:#78608c;stroke:#fff;stroke-width:5.21px;"/>
                    <path id="_83" serif:id="8" d="M377.604,1524.65C373.368,1531.98 363.973,1534.5 356.637,1530.27C349.3,1526.03 346.783,1516.63 351.019,1509.3C355.254,1501.96 364.649,1499.44 371.986,1503.68C379.322,1507.92 381.839,1517.31 377.604,1524.65Z" style="fill:#78608c;stroke:#fff;stroke-width:5.21px;"/>
                    <path id="_31" serif:id="3" d="M547.422,1479C543.186,1486.34 533.791,1488.85 526.455,1484.62C519.119,1480.38 516.601,1470.99 520.837,1463.65C525.073,1456.31 534.468,1453.8 541.804,1458.03C549.14,1462.27 551.658,1471.66 547.422,1479Z" style="fill:#78608c;stroke:#fff;stroke-width:5.21px;"/>
                </g>
                <g id="Root-Marker1" serif:id="Root Marker">
                    <path id="_12" serif:id="1" d="M476.552,1413.52L473.113,1432.63L461.719,1426.05L476.552,1413.52ZM471.426,1422.4L467.734,1425.52L470.57,1427.15L471.426,1422.4Z" style="fill:#78608c;"/>
                </g>
                <g id="Treble-Note1" serif:id="Treble Note">
                    <g id="_13" serif:id="1">
                        <path id="_1u" serif:id="1u" d="M502.401,1400.19C498.114,1407.62 488.606,1410.17 481.181,1405.88C473.755,1401.59 471.208,1392.08 475.494,1384.66C479.781,1377.23 489.29,1374.69 496.715,1378.97C504.14,1383.26 506.688,1392.77 502.401,1400.19Z" style="fill:#fff;stroke:#fff;stroke-width:6.5px;"/>
                        <circle id="_1a" serif:id="1a" cx="488.948" cy="1392.43" r="12.477" style="fill:#fff;stroke:#78608c;stroke-width:3.25px;"/>
                    </g>
                </g>
            </g>
            </a>
            <a href="C2W.svg">
            <g id="_32" serif:id="3" sound="Font/3-Low-B,Font/3-High-Gb">
                <g id="Ring--Sounder--Background2" serif:id="Ring, Sounder, Background">
                    <circle id="Sounder2" serif:id="Sounder" cx="1317.6" cy="1241.35" r="92" style="fill:#fff;stroke:#fff;stroke-width:1px;stroke-linecap:butt;stroke-miterlimit:2;"/>
                    <g id="Ring2" serif:id="Ring">
                        <path d="M1396.71,1287.66C1371.5,1331.33 1315.58,1346.32 1271.91,1321.11C1228.25,1295.9 1213.27,1239.98 1238.48,1196.31C1263.69,1152.64 1319.61,1137.65 1363.28,1162.86C1406.94,1188.07 1421.92,1243.99 1396.71,1287.66Z" style="fill:none;stroke:#000;stroke-width:2.17px;"/>
                        <path d="M1396.71,1287.66L1391.65,1284.74" style="fill:none;stroke:#000;stroke-width:2.17px;"/>
                        <path d="M1243.54,1199.23L1238.48,1196.31" style="fill:none;stroke:#000;stroke-width:2.17px;"/>
                        <path d="M1274.83,1316.05L1271.91,1321.11" style="fill:none;stroke:#000;stroke-width:2.17px;"/>
                        <path d="M1363.28,1162.86L1360.36,1167.92" style="fill:none;stroke:#000;stroke-width:2.17px;"/>
                        <path d="M1363.28,1321.1L1360.36,1316.05" style="fill:none;stroke:#000;stroke-width:2.17px;"/>
                        <path d="M1274.84,1167.92L1271.92,1162.87" style="fill:none;stroke:#000;stroke-width:2.17px;"/>
                        <path d="M1243.53,1284.75L1238.47,1287.67" style="fill:none;stroke:#000;stroke-width:2.17px;"/>
                        <path d="M1396.72,1196.3L1391.66,1199.22" style="fill:none;stroke:#000;stroke-width:2.17px;"/>
                        <path d="M1317.6,1333.35L1317.6,1327.51" style="fill:none;stroke:#000;stroke-width:2.17px;"/>
                        <path d="M1317.6,1156.46L1317.6,1150.62" style="fill:none;stroke:#000;stroke-width:2.17px;"/>
                        <path d="M1232.08,1241.99L1226.24,1241.99" style="fill:none;stroke:#000;stroke-width:2.17px;"/>
                        <path d="M1408.95,1241.99L1403.11,1241.99" style="fill:none;stroke:#000;stroke-width:2.17px;"/>
                    </g>
                </g>
                <g id="Notes2" serif:id="Notes">
                    <path id="_115" serif:id="11" d="M1285.13,1170.39C1280.9,1177.73 1271.51,1180.25 1264.17,1176.01C1256.83,1171.78 1254.32,1162.38 1258.55,1155.05C1262.79,1147.71 1272.18,1145.19 1279.52,1149.43C1286.85,1153.66 1289.37,1163.06 1285.13,1170.39Z" style="fill:#cba877;stroke:#fff;stroke-width:5.21px;"/>
                </g>
                <g id="Root-Marker2" serif:id="Root Marker">
                    <path id="_116" serif:id="11" d="M1284.18,1184.15L1299.01,1196.68L1287.62,1203.26L1284.18,1184.15ZM1289.31,1193.03L1290.16,1197.78L1293,1196.14L1289.31,1193.03Z" style="fill:#cba877;"/>
                </g>
                <g id="Treble-Note2" serif:id="Treble Note">
                    <g id="_6" serif:id="6">
                        <path id="_61" serif:id="6" d="M1331.26,1341.76C1326.97,1349.19 1317.46,1351.74 1310.04,1347.45C1302.61,1343.16 1300.06,1333.65 1304.35,1326.23C1308.64,1318.8 1318.14,1316.26 1325.57,1320.54C1333,1324.83 1335.54,1334.34 1331.26,1341.76Z" style="fill:#fff;stroke:#fff;stroke-width:6.5px;"/>
                        <circle id="_6a" serif:id="6a" cx="1317.66" cy="1334" r="12.477" style="fill:#fff;stroke:#cba877;stroke-width:3.25px;"/>
                    </g>
                </g>
            </g>
            </a>
            <a href="C2D.svg">
            <g id="_14" serif:id="1" sound="Font/2-Low-Gb,Font/2-Mid-Db,Font/2-High-F">
                <g id="Ring--Sounder--Background3" serif:id="Ring, Sounder, Background">
                    <circle id="Sounder3" serif:id="Sounder" cx="1084.6" cy="838.09" r="92" style="fill:#fff;"/>
                    <g id="Ring3" serif:id="Ring">
                        <path d="M1163.71,884.406C1138.5,928.074 1082.58,943.06 1038.91,917.85C995.249,892.64 980.267,836.719 1005.48,793.05C1030.69,749.381 1086.61,734.395 1130.28,759.606C1173.94,784.816 1188.92,840.737 1163.71,884.406Z" style="fill:none;stroke:#000;stroke-width:2.17px;"/>
                        <path d="M1163.71,884.406L1158.65,881.485" style="fill:none;stroke:#000;stroke-width:2.17px;"/>
                        <path d="M1010.54,795.97L1005.48,793.05" style="fill:none;stroke:#000;stroke-width:2.17px;"/>
                        <path d="M1041.83,912.792L1038.91,917.85" style="fill:none;stroke:#000;stroke-width:2.17px;"/>
                        <path d="M1130.28,759.606L1127.36,764.663" style="fill:none;stroke:#000;stroke-width:2.17px;"/>
                        <path d="M1130.28,917.847L1127.36,912.789" style="fill:none;stroke:#000;stroke-width:2.17px;"/>
                        <path d="M1041.84,764.667L1038.92,759.609" style="fill:none;stroke:#000;stroke-width:2.17px;"/>
                        <path d="M1010.53,881.489L1005.47,884.409" style="fill:none;stroke:#000;stroke-width:2.17px;"/>
                        <path d="M1163.72,793.047L1158.66,795.967" style="fill:none;stroke:#000;stroke-width:2.17px;"/>
                        <path d="M1084.6,930.09L1084.6,924.25" style="fill:none;stroke:#000;stroke-width:2.17px;"/>
                        <path d="M1084.6,753.206L1084.6,747.366" style="fill:none;stroke:#000;stroke-width:2.17px;"/>
                        <path d="M999.077,838.728L993.237,838.728" style="fill:none;stroke:#000;stroke-width:2.17px;"/>
                        <path d="M1175.95,838.728L1170.11,838.728" style="fill:none;stroke:#000;stroke-width:2.17px;"/>
                    </g>
                </g>
                <g id="Notes3" serif:id="Notes">
                    <path id="_62" serif:id="6" d="M1097.89,937.216C1093.65,944.553 1084.26,947.07 1076.92,942.834C1069.59,938.599 1067.07,929.204 1071.3,921.867C1075.54,914.531 1084.93,912.014 1092.27,916.249C1099.61,920.485 1102.12,929.88 1097.89,937.216Z" style="fill:#5b91a5;stroke:#fff;stroke-width:5.21px;"/>
                    <path id="_15" serif:id="1" d="M1142.95,768.237C1138.71,775.574 1129.32,778.091 1121.98,773.855C1114.64,769.62 1112.13,760.225 1116.36,752.888C1120.6,745.552 1129.99,743.035 1137.33,747.27C1144.67,751.506 1147.18,760.901 1142.95,768.237Z" style="fill:#5b91a5;stroke:#fff;stroke-width:5.21px;"/>
                </g>
                <g id="Root-Marker3" serif:id="Root Marker">
                    <path id="_63" serif:id="6" d="M1084.6,905.422L1078.02,887.15L1091.17,887.15L1084.6,905.422ZM1084.6,895.17L1086.23,890.623L1082.96,890.622L1084.6,895.17Z" style="fill:#5b91a5;"/>
                </g>
                <g id="Treble-Note3" serif:id="Treble Note">
                    <g id="_5" serif:id="5">
                        <path id="_5u" serif:id="5u" d="M1144.33,926.221C1140.04,933.646 1130.53,936.194 1123.11,931.907C1115.68,927.621 1113.13,918.112 1117.42,910.687C1121.71,903.262 1131.21,900.714 1138.64,905.001C1146.07,909.288 1148.61,918.796 1144.33,926.221Z" style="fill:#fff;stroke:#fff;stroke-width:6.5px;"/>
                        <circle id="_5a" serif:id="5a" cx="1130.87" cy="918.454" r="12.477" style="fill:#fff;stroke:#5b91a5;stroke-width:3.25px;"/>
                    </g>
                </g>
            </g>
            </a>
        </g>
        <path d="M1085.6,950C1148.89,1380.17 1221.65,1541.72 1314,1353" style="fill:none;stroke:#d9d9d9;stroke-width:4.17px;"/>
        <path d="M498,1376.82C789.484,802.782 1065.24,559.646 1125,739" style="fill:none;stroke:#d9d9d9;stroke-width:4.17px;"/>
        <path d="M393.384,1376.82C262.249,1115.77 346.079,770.095 544.66,753C237.736,818.195 581.611,1117.88 1252.49,1156.37C529.139,1094.21 291.374,1169.4 393.384,1376.82Z" style="fill:none;stroke:#666;stroke-width:4.17px;"/>
    </g>
    <g id="Songs">
        <g id="song-9-petals" serif:id="song 9 petals">
            <g id="C2W" sound="Song/09-Petals-C2W">
                <path d="M1579.96,1339C1560.56,1339.11 1541.15,1331.63 1526.57,1316.64L1500.81,1290.15C1487.45,1276.41 1480.51,1258.78 1479.95,1241L1580.62,1241.18L1579.96,1339Z" style="fill:#cba877;stroke:#fff;stroke-width:1.67px;"/>
                <path d="M1679.88,1241.36C1679.38,1259.95 1671.92,1278.37 1657.54,1292.34L1631.06,1318.1C1616.81,1331.95 1598.39,1338.9 1579.96,1339L1580.62,1241.18L1679.88,1241.36Z" style="fill:#cba877;stroke:#fff;stroke-width:1.67px;"/>
                <path d="M1579.96,1242L1579.96,1338" style="fill:none;stroke:#cba977;stroke-width:4.17px;stroke-linecap:butt;"/>
                <path id="q2" d="M1595.21,1242.62L1665.22,1242.62C1657.55,1248.33 1642.86,1257.77 1633.08,1257.77C1622.61,1257.77 1603.73,1247.57 1595.21,1242.62ZM1579.91,1327.19L1579.91,1258.14C1580.02,1257.96 1580.12,1257.79 1580.22,1257.62C1585.16,1266.14 1595.36,1285.02 1595.36,1295.49C1595.36,1306.03 1585.01,1321.18 1580.22,1327.59C1580.12,1327.46 1580.02,1327.33 1579.91,1327.19ZM1590.78,1253.22C1605.32,1257.04 1622.06,1263.06 1628.29,1269.32C1635.77,1276.77 1639.13,1294.82 1640.29,1302.73C1630.86,1301.36 1613.81,1297.63 1606.91,1290.7C1600.65,1284.47 1594.63,1267.73 1590.78,1253.22Z" style="fill:#e7e7e7;"/>
                <path id="q3" d="M1579.91,1258.14L1579.91,1327.19C1575,1320.56 1565.07,1305.81 1565.07,1295.49C1565.07,1285.22 1574.87,1266.89 1579.91,1258.14ZM1495.21,1242.62L1565.22,1242.62C1556.7,1247.57 1537.82,1257.77 1527.35,1257.77C1516.81,1257.77 1501.63,1247.39 1495.21,1242.62ZM1532.14,1269.32C1538.37,1263.06 1555.11,1257.04 1569.65,1253.22C1565.8,1267.73 1559.78,1284.47 1553.52,1290.7C1546.07,1298.15 1528.05,1301.54 1520.14,1302.7C1521.3,1294.79 1524.69,1276.77 1532.14,1269.32Z" style="fill:#e7e7e7;"/>
            </g>
            <g id="C1" serif:id="C" sound="Song/09-Petals-C">
                <path d="M1581.4,1141C1600.31,1141.27 1619.12,1148.74 1633.34,1163.36L1659.1,1189.85C1673.55,1204.71 1680.49,1224.12 1679.97,1243.34L1580.71,1243.16L1581.4,1141Z" style="fill:#78608c;stroke:#fff;stroke-width:1.67px;"/>
                <path d="M1480.04,1242.98C1479.41,1222.95 1486.88,1202.72 1502.37,1187.66L1528.85,1161.9C1543.47,1147.68 1562.49,1140.74 1581.4,1141L1580.71,1243.16L1480.04,1242.98Z" style="fill:#78608c;stroke:#fff;stroke-width:1.67px;"/>
                <path d="M1581.71,1142L1581.41,1242.35" style="fill:none;stroke:#78608c;stroke-width:4.17px;stroke-linecap:butt;"/>
                <path id="q4" d="M1565.71,1242.62L1495.71,1242.62C1503.38,1236.91 1518.07,1227.47 1527.84,1227.47C1538.32,1227.47 1557.19,1237.67 1565.71,1242.62ZM1580.41,1158.06L1580.41,1227.11C1575.36,1218.36 1565.56,1200.02 1565.56,1189.75C1565.56,1179.43 1575.5,1164.69 1580.41,1158.06ZM1570.14,1232.02C1555.6,1228.21 1538.87,1222.19 1532.64,1215.93C1525.15,1208.48 1521.79,1190.42 1520.63,1182.52C1530.07,1183.89 1547.11,1187.62 1554.02,1194.55C1560.28,1200.78 1566.29,1217.52 1570.14,1232.02Z" style="fill:#e7e7e7;"/>
                <path id="q1" d="M1665.71,1242.62L1595.71,1242.62C1604.23,1237.67 1623.1,1227.47 1633.58,1227.47C1644.12,1227.47 1659.3,1237.86 1665.71,1242.62ZM1580.41,1227.11L1580.41,1158.06C1580.51,1157.92 1580.61,1157.79 1580.71,1157.65C1585.51,1164.07 1595.86,1179.22 1595.86,1189.75C1595.86,1200.23 1585.66,1219.11 1580.71,1227.63C1580.61,1227.46 1580.51,1227.28 1580.41,1227.11ZM1628.78,1215.93C1622.55,1222.19 1605.82,1228.21 1591.28,1232.02C1595.13,1217.52 1601.14,1200.78 1607.4,1194.55C1614.86,1187.1 1632.88,1183.71 1640.79,1182.55C1639.63,1190.46 1636.24,1208.48 1628.78,1215.93Z" style="fill:#e7e7e7;"/>
            </g>
        </g>
        <g id="song-8-petals" serif:id="song 8 petals">
            <g id="C2" serif:id="C" sound="Song/08-Petals-C">
                <path d="M260.298,319.999C279.694,320.104 299.106,312.628 313.683,297.638L339.44,271.151C352.807,257.406 359.745,239.773 360.306,221.993L259.638,222.174L260.298,319.999Z" style="fill:#78608c;stroke:#fff;stroke-width:1.67px;"/>
                <path d="M360.306,221.993C360.938,201.955 353.472,181.729 337.981,166.665L311.495,140.908C296.876,126.693 277.863,119.748 258.949,120.012L259.638,222.174L360.306,221.993Z" style="fill:#78608c;stroke:#fff;stroke-width:1.67px;"/>
                <path d="M359.343,222.174L260.343,222.352" style="fill:none;stroke:#78608c;stroke-width:4.17px;stroke-linecap:butt;"/>
                <g id="q41" serif:id="q4">
                    <path d="M267.44,163.188C266.29,163.037 265.233,163.849 265.081,164.997C264.93,166.146 265.741,167.203 266.892,167.355C268.038,167.506 269.095,166.694 269.246,165.546C269.397,164.397 268.586,163.339 267.44,163.188ZM271.988,156.794C272.252,154.784 270.832,152.934 268.825,152.669C266.814,152.405 264.963,153.825 264.698,155.835C264.434,157.845 265.854,159.695 267.865,159.96C269.872,160.224 271.723,158.804 271.988,156.794ZM270.512,139.858C267.868,139.51 265.436,141.377 265.088,144.018C264.74,146.66 266.607,149.093 269.25,149.441C271.889,149.788 274.322,147.922 274.67,145.28C275.017,142.638 273.151,140.206 270.512,139.858ZM260.398,201.046C261.128,178.824 262.241,146.32 262.587,143.689C263.118,139.663 266.815,136.828 270.841,137.358C274.867,137.888 277.7,141.583 277.17,145.609C276.824,148.239 269.486,179.924 264.44,201.578C263.878,203.989 260.317,203.52 260.398,201.046Z" style="fill:#e7e7e7;fill-rule:nonzero;"/>
                    <path d="M291.307,145.43C288.847,144.411 286.012,145.584 284.995,148.046C283.974,150.508 285.149,153.34 287.608,154.36C290.072,155.38 292.903,154.206 293.924,151.745C294.941,149.283 293.77,146.451 291.307,145.43ZM281.56,159.359C280.782,161.231 281.677,163.387 283.55,164.162C285.423,164.938 287.578,164.046 288.351,162.173C289.129,160.3 288.234,158.145 286.361,157.368C284.488,156.593 282.333,157.485 281.56,159.359ZM279.56,168.308C279.116,169.379 279.626,170.61 280.696,171.054C281.767,171.497 282.996,170.987 283.44,169.916C283.883,168.846 283.373,167.615 282.303,167.171C281.233,166.728 279.999,167.238 279.56,168.308ZM269.473,203.477C268.305,205.661 264.984,204.286 265.703,201.916C272.16,180.641 281.65,149.533 282.665,147.081C284.218,143.329 288.519,141.547 292.273,143.101C296.023,144.655 297.806,148.957 296.254,152.71C295.238,155.161 279.951,183.867 269.473,203.477Z" style="fill:#e7e7e7;fill-rule:nonzero;"/>
                    <path d="M309.953,156.196C307.839,154.574 304.803,154.975 303.18,157.089C301.557,159.203 301.958,162.242 304.072,163.864C306.187,165.486 309.223,165.086 310.846,162.972C312.469,160.858 312.068,157.818 309.953,156.196ZM296.932,167.126C295.7,168.735 296.005,171.048 297.611,172.281C299.22,173.516 301.534,173.212 302.767,171.603C304,169.994 303.698,167.682 302.089,166.447C300.479,165.213 298.169,165.518 296.932,167.126ZM292.684,175.253C291.978,176.172 292.152,177.494 293.072,178.199C293.992,178.905 295.313,178.73 296.015,177.811C296.722,176.892 296.547,175.571 295.627,174.865C294.712,174.16 293.39,174.334 292.684,175.253ZM273.84,206.613C272.146,208.42 269.297,206.233 270.603,204.13C282.346,185.251 299.565,157.659 301.178,155.554C303.652,152.332 308.268,151.724 311.491,154.197C314.713,156.669 315.321,161.285 312.847,164.507C311.234,166.612 289.036,190.383 273.84,206.613Z" style="fill:#e7e7e7;fill-rule:nonzero;"/>
                    <path d="M325.179,171.421C323.556,169.307 320.517,168.907 318.403,170.53C316.289,172.151 315.889,175.191 317.511,177.305C319.134,179.419 322.173,179.819 324.287,178.197C326.401,176.575 326.801,173.535 325.179,171.421ZM314.931,179.288C313.694,177.679 311.381,177.375 309.775,178.609C308.164,179.843 307.86,182.155 309.096,183.764C310.328,185.372 312.641,185.677 314.252,184.443C315.859,183.208 316.163,180.896 314.931,179.288ZM306.511,185.747C305.806,184.828 304.485,184.654 303.566,185.359C302.647,186.064 302.473,187.386 303.178,188.305C303.883,189.224 305.205,189.398 306.123,188.693C307.042,187.987 307.216,186.666 306.511,185.747ZM277.247,210.772C275.142,212.08 272.956,209.23 274.764,207.537C290.994,192.341 314.765,170.144 316.87,168.529C320.092,166.057 324.709,166.665 327.182,169.887C329.654,173.109 329.046,177.725 325.824,180.197C323.719,181.813 296.127,199.029 277.247,210.772Z" style="fill:#e7e7e7;fill-rule:nonzero;"/>
                    <path d="M335.945,190.068C334.924,187.606 332.095,186.433 329.633,187.453C327.171,188.473 325.997,191.305 327.017,193.767C328.038,196.229 330.867,197.402 333.329,196.382C335.791,195.362 336.965,192.53 335.945,190.068ZM324.007,195.013C323.232,193.14 321.076,192.247 319.202,193.023C317.332,193.799 316.438,195.954 317.212,197.827C317.991,199.7 320.143,200.593 322.017,199.817C323.891,199.041 324.785,196.886 324.007,195.013ZM314.206,199.074C313.761,198.003 312.53,197.493 311.459,197.936C310.388,198.379 309.881,199.611 310.321,200.681C310.766,201.752 311.997,202.262 313.068,201.818C314.139,201.375 314.65,200.144 314.206,199.074ZM334.296,198.712C331.843,199.727 300.737,209.215 279.462,215.672C277.089,216.391 275.716,213.072 277.899,211.905C297.509,201.426 326.216,186.139 328.666,185.123C332.418,183.569 336.719,185.351 338.275,189.104C339.827,192.855 338.045,197.157 334.296,198.712Z" style="fill:#e7e7e7;fill-rule:nonzero;"/>
                    <path d="M341.519,210.866C341.169,208.224 338.738,206.358 336.095,206.705C333.456,207.053 331.587,209.485 331.937,212.127C332.282,214.769 334.717,216.635 337.356,216.287C340,215.94 341.864,213.508 341.519,210.866ZM328.706,212.552C328.444,210.542 326.593,209.123 324.583,209.387C322.573,209.652 321.151,211.502 321.417,213.513C321.68,215.522 323.531,216.942 325.541,216.678C327.551,216.413 328.973,214.562 328.706,212.552ZM318.187,213.937C318.035,212.788 316.98,211.977 315.832,212.129C314.683,212.28 313.871,213.337 314.023,214.486C314.171,215.634 315.23,216.446 316.379,216.295C317.527,216.143 318.339,215.086 318.187,213.937ZM337.687,218.787C335.056,219.134 302.55,220.247 280.332,220.978C277.856,221.059 277.387,217.497 279.797,216.935C301.451,211.889 333.137,204.552 335.768,204.206C339.793,203.675 343.486,206.51 344.019,210.537C344.547,214.563 341.712,218.257 337.687,218.787Z" style="fill:#e7e7e7;fill-rule:nonzero;"/>
                </g>
                <g id="q31" serif:id="q3">
                    <path d="M341.518,232.397C341.866,229.755 339.999,227.323 337.356,226.975C334.717,226.628 332.284,228.494 331.937,231.136C331.589,233.778 333.455,236.21 336.095,236.557C338.738,236.905 341.17,235.039 341.518,232.397ZM325.543,226.585C323.532,226.321 321.681,227.741 321.417,229.751C321.152,231.761 322.572,233.612 324.583,233.877C326.59,234.141 328.441,232.721 328.706,230.71C328.971,228.7 327.55,226.85 325.543,226.585ZM316.38,226.968C315.23,226.817 314.173,227.629 314.022,228.777C313.87,229.925 314.681,230.983 315.832,231.134C316.978,231.285 318.035,230.474 318.186,229.325C318.337,228.177 317.526,227.119 316.38,226.968ZM279.797,226.328C277.386,225.766 277.855,222.204 280.33,222.285C302.551,223.016 335.054,224.129 337.685,224.475C341.715,225.006 344.549,228.7 344.019,232.726C343.489,236.753 339.796,239.588 335.766,239.057C333.135,238.711 301.45,231.374 279.797,226.328Z" style="fill:#e7e7e7;fill-rule:nonzero;"/>
                    <path d="M335.946,253.195C336.964,250.733 335.792,247.901 333.329,246.881C330.869,245.861 328.034,247.034 327.017,249.496C325.996,251.958 327.171,254.791 329.63,255.81C332.094,256.83 334.925,255.656 335.946,253.195ZM322.016,243.446C320.143,242.67 317.988,243.562 317.215,245.436C316.437,247.309 317.332,249.464 319.205,250.24C321.078,251.016 323.233,250.124 324.007,248.25C324.784,246.377 323.89,244.222 322.016,243.446ZM313.068,241.444C311.997,241.001 310.764,241.511 310.324,242.582C309.88,243.652 310.391,244.884 311.461,245.327C312.531,245.77 313.76,245.26 314.204,244.19C314.648,243.119 314.138,241.888 313.068,241.444ZM277.899,231.358C275.716,230.192 277.091,226.872 279.461,227.591C300.733,234.048 331.844,243.536 334.295,244.552C338.045,246.106 339.828,250.408 338.276,254.16C336.719,257.912 332.418,259.694 328.668,258.14C326.216,257.124 297.508,241.836 277.899,231.358Z" style="fill:#e7e7e7;fill-rule:nonzero;"/>
                    <path d="M303.564,257.904C304.484,258.609 305.805,258.435 306.511,257.517C307.218,256.597 307.043,255.276 306.123,254.57C305.204,253.865 303.882,254.039 303.176,254.958C302.474,255.878 302.644,257.199 303.564,257.904ZM309.771,264.654C311.381,265.888 313.695,265.584 314.927,263.975C316.164,262.367 315.859,260.054 314.249,258.82C312.64,257.586 310.33,257.89 309.093,259.499C307.86,261.107 308.166,263.42 309.771,264.654ZM318.406,272.734C320.52,274.356 323.556,273.955 325.179,271.841C326.802,269.727 326.401,266.688 324.287,265.066C322.172,263.444 319.136,263.844 317.513,265.958C315.89,268.072 316.291,271.111 318.406,272.734ZM277.247,232.491C296.126,244.234 323.717,261.45 325.824,263.066C329.043,265.538 329.651,270.154 327.181,273.377C324.706,276.599 320.091,277.206 316.868,274.734C314.765,273.119 290.992,250.922 274.763,235.726C272.957,234.033 275.141,231.183 277.247,232.491Z" style="fill:#e7e7e7;fill-rule:nonzero;"/>
                    <path d="M292.685,268.01C293.39,268.929 294.711,269.103 295.63,268.397C296.549,267.692 296.723,266.371 296.018,265.452C295.313,264.533 293.991,264.359 293.073,265.064C292.154,265.769 291.98,267.091 292.685,268.01ZM296.935,276.137C298.167,277.745 300.48,278.049 302.091,276.816C303.697,275.581 304.002,273.269 302.77,271.66C301.533,270.052 299.22,269.747 297.614,270.981C296.003,272.216 295.699,274.528 296.935,276.137ZM303.178,286.175C304.801,288.288 307.84,288.688 309.954,287.067C312.068,285.444 312.468,282.405 310.846,280.291C309.223,278.177 306.185,277.777 304.07,279.399C301.956,281.021 301.556,284.06 303.178,286.175ZM273.841,236.651C289.037,252.88 311.234,276.651 312.849,278.756C315.321,281.979 314.713,286.594 311.491,289.067C308.269,291.539 303.652,290.932 301.18,287.71C299.564,285.604 282.349,258.012 270.605,239.133C269.296,237.03 272.145,234.843 273.841,236.651Z" style="fill:#e7e7e7;fill-rule:nonzero;"/>
                    <path d="M279.558,274.955C280.002,276.025 281.234,276.535 282.301,276.091C283.372,275.648 283.882,274.417 283.438,273.346C282.998,272.276 281.766,271.766 280.695,272.21C279.624,272.653 279.114,273.884 279.558,274.955ZM281.558,283.905C282.337,285.778 284.489,286.67 286.363,285.894C288.237,285.118 289.127,282.963 288.353,281.09C287.578,279.217 285.422,278.325 283.548,279.1C281.678,279.876 280.784,282.032 281.558,283.905ZM284.995,295.217C286.015,297.679 288.844,298.852 291.307,297.832C293.769,296.812 294.943,293.98 293.922,291.518C292.902,289.056 290.073,287.883 287.61,288.903C285.148,289.923 283.974,292.755 284.995,295.217ZM269.473,239.786C279.951,259.396 295.239,288.102 296.253,290.554C297.809,294.306 296.027,298.607 292.274,300.162C288.521,301.716 284.22,299.934 282.664,296.182C281.651,293.731 272.16,262.622 265.703,241.346C264.986,238.978 268.304,237.602 269.473,239.786Z" style="fill:#e7e7e7;fill-rule:nonzero;"/>
                    <path d="M265.083,278.266C265.231,279.414 266.29,280.226 267.439,280.075C268.588,279.923 269.399,278.866 269.247,277.717C269.096,276.568 268.041,275.757 266.892,275.909C265.743,276.06 264.932,277.117 265.083,278.266ZM264.699,287.428C264.961,289.439 266.812,290.859 268.822,290.594C270.832,290.329 272.254,288.479 271.988,286.468C271.725,284.459 269.875,283.039 267.865,283.303C265.854,283.568 264.432,285.418 264.699,287.428ZM265.089,299.245C265.435,301.886 267.87,303.753 270.509,303.405C273.153,303.057 275.016,300.625 274.671,297.983C274.322,295.341 271.891,293.475 269.248,293.823C266.608,294.171 264.74,296.603 265.089,299.245ZM264.443,241.685C269.489,263.339 276.825,295.023 277.171,297.654C277.699,301.68 274.864,305.374 270.84,305.905C266.811,306.435 263.118,303.6 262.589,299.574C262.243,296.943 261.127,264.439 260.397,242.217C260.316,239.743 263.88,239.274 264.443,241.685Z" style="fill:#e7e7e7;fill-rule:nonzero;"/>
                </g>
            </g>
            <g id="C2B" sound="Song/08-Petals-C2B">
                <path d="M258.601,120.005C239.688,120.269 220.876,127.742 206.66,142.36L180.903,168.846C166.449,183.71 159.512,203.119 160.027,222.345L259.29,222.166L258.601,120.005Z" style="fill:#587f6f;stroke:#fff;stroke-width:1.67px;"/>
                <path d="M160.027,222.345C160.525,240.936 167.99,259.356 182.362,273.333L208.849,299.09C223.095,312.943 241.516,319.891 259.949,319.992L259.29,222.166L160.027,222.345Z" style="fill:#587f6f;stroke:#fff;stroke-width:1.67px;"/>
                <path d="M258.495,222.345L160.895,222.345" style="fill:none;stroke:#587f6f;stroke-width:4.17px;stroke-linecap:butt;"/>
                <g id="q21" serif:id="q2">
                    <path d="M252.052,280.074C253.198,280.225 254.255,279.414 254.406,278.266C254.558,277.116 253.746,276.059 252.6,275.908C251.45,275.757 250.393,276.568 250.242,277.717C250.09,278.865 250.901,279.923 252.052,280.074ZM247.5,286.469C247.235,288.479 248.656,290.329 250.667,290.594C252.674,290.858 254.525,289.438 254.789,287.428C255.054,285.418 253.634,283.568 251.627,283.303C249.616,283.039 247.765,284.459 247.5,286.469ZM248.98,303.405C251.619,303.753 254.052,301.886 254.4,299.245C254.748,296.603 252.881,294.17 250.242,293.823C247.599,293.475 245.166,295.341 244.818,297.983C244.47,300.625 246.337,303.057 248.98,303.405ZM259.09,242.217C258.36,264.439 257.247,296.943 256.9,299.574C256.37,303.6 252.677,306.435 248.651,305.905C244.625,305.375 241.788,301.681 242.318,297.654C242.664,295.023 250.002,263.339 255.048,241.685C255.61,239.273 259.171,239.742 259.09,242.217Z" style="fill:#e7e7e7;fill-rule:nonzero;"/>
                    <path d="M228.181,297.832C230.644,298.852 233.475,297.679 234.497,295.217C235.514,292.755 234.343,289.923 231.88,288.903C229.416,287.883 226.585,289.057 225.568,291.519C224.547,293.98 225.717,296.812 228.181,297.832ZM237.928,283.904C238.706,282.031 237.815,279.876 235.942,279.1C234.069,278.325 231.914,279.218 231.136,281.09C230.358,282.963 231.253,285.118 233.126,285.894C234.999,286.67 237.154,285.778 237.928,283.904ZM239.932,274.954C240.376,273.884 239.866,272.653 238.796,272.21C237.725,271.766 236.492,272.276 236.048,273.346C235.604,274.417 236.114,275.648 237.185,276.092C238.255,276.535 239.488,276.025 239.932,274.954ZM250.019,239.786C251.186,237.602 254.504,238.977 253.785,241.347C247.328,262.622 237.842,293.731 236.826,296.182C235.27,299.934 230.969,301.716 227.215,300.161C223.464,298.607 221.682,294.305 223.238,290.554C224.25,288.102 239.54,259.396 250.019,239.786Z" style="fill:#e7e7e7;fill-rule:nonzero;"/>
                    <path d="M209.534,287.066C211.649,288.689 214.689,288.289 216.312,286.175C217.931,284.06 217.534,281.021 215.42,279.399C213.305,277.777 210.265,278.177 208.642,280.291C207.019,282.405 207.42,285.444 209.534,287.066ZM222.555,276.137C223.792,274.528 223.486,272.215 221.877,270.981C220.267,269.747 217.958,270.051 216.721,271.66C215.488,273.268 215.794,275.581 217.399,276.815C219.008,278.049 221.323,277.745 222.555,276.137ZM226.808,268.01C227.51,267.09 227.335,265.769 226.42,265.064C225.5,264.359 224.178,264.532 223.472,265.452C222.766,266.371 222.941,267.692 223.86,268.398C224.78,269.103 226.102,268.929 226.808,268.01ZM245.651,236.65C247.342,234.843 250.195,237.03 248.885,239.132C237.142,258.011 219.927,285.604 218.309,287.709C215.839,290.932 211.224,291.539 208.001,289.067C204.779,286.594 204.17,281.978 206.641,278.756C208.258,276.651 230.455,252.88 245.651,236.65Z" style="fill:#e7e7e7;fill-rule:nonzero;"/>
                    <path d="M194.309,271.842C195.931,273.955 198.97,274.355 201.084,272.734C203.198,271.111 203.599,268.072 201.976,265.958C200.354,263.844 197.315,263.444 195.201,265.066C193.087,266.688 192.687,269.728 194.309,271.842ZM204.561,263.976C205.794,265.584 208.106,265.888 209.717,264.654C211.324,263.42 211.628,261.107 210.396,259.499C209.159,257.89 206.846,257.586 205.24,258.82C203.629,260.054 203.325,262.367 204.561,263.976ZM212.977,257.516C213.685,258.436 215.007,258.61 215.926,257.904C216.844,257.199 217.018,255.877 216.314,254.958C215.609,254.039 214.287,253.865 213.364,254.57C212.446,255.275 212.272,256.597 212.977,257.516ZM242.244,232.491C244.346,231.183 246.531,234.033 244.727,235.726C228.497,250.922 204.727,273.119 202.622,274.734C199.4,277.206 194.782,276.599 192.31,273.377C189.838,270.154 190.446,265.538 193.668,263.066C195.772,261.45 223.365,244.234 242.244,232.491Z" style="fill:#e7e7e7;fill-rule:nonzero;"/>
                    <path d="M183.543,253.195C184.563,255.657 187.397,256.83 189.859,255.81C192.321,254.791 193.491,251.958 192.474,249.497C191.454,247.035 188.621,245.861 186.159,246.881C183.696,247.901 182.523,250.733 183.543,253.195ZM195.481,248.25C196.259,250.124 198.412,251.016 200.286,250.24C202.16,249.464 203.05,247.308 202.275,245.436C201.501,243.563 199.345,242.67 197.471,243.446C195.601,244.222 194.707,246.377 195.481,248.25ZM205.286,244.19C205.726,245.26 206.958,245.77 208.029,245.327C209.1,244.884 209.61,243.652 209.166,242.581C208.722,241.511 207.49,241.001 206.424,241.445C205.353,241.888 204.842,243.119 205.286,244.19ZM185.195,244.552C187.645,243.536 218.755,234.048 240.03,227.591C242.399,226.872 243.775,230.191 241.588,231.358C221.979,241.836 193.275,257.124 190.822,258.14C187.069,259.693 182.768,257.912 181.216,254.16C179.66,250.408 181.443,246.106 185.195,244.552Z" style="fill:#e7e7e7;fill-rule:nonzero;"/>
                    <path d="M177.973,232.397C178.318,235.039 180.749,236.905 183.393,236.557C186.036,236.21 187.9,233.777 187.555,231.136C187.206,228.494 184.775,226.628 182.131,226.975C179.488,227.323 177.624,229.755 177.973,232.397ZM190.781,230.711C191.048,232.721 192.898,234.141 194.909,233.876C196.919,233.612 198.337,231.761 198.074,229.751C197.808,227.74 195.957,226.32 193.947,226.585C191.937,226.85 190.519,228.701 190.781,230.711ZM201.301,229.326C201.452,230.474 202.512,231.286 203.66,231.134C204.809,230.983 205.62,229.926 205.469,228.777C205.317,227.629 204.258,226.817 203.109,226.968C201.96,227.119 201.149,228.177 201.301,229.326ZM181.801,224.475C184.431,224.129 216.938,223.016 239.16,222.285C241.632,222.204 242.105,225.767 239.69,226.328C218.037,231.374 186.354,238.711 183.723,239.057C179.695,239.587 176.001,236.753 175.473,232.727C174.941,228.7 177.776,225.006 181.801,224.475Z" style="fill:#e7e7e7;fill-rule:nonzero;"/>
                </g>
                <g id="q11" serif:id="q1">
                    <path d="M182.132,216.288C184.775,216.636 187.207,214.77 187.555,212.128C187.903,209.486 186.036,207.053 183.393,206.705C180.75,206.357 178.317,208.224 177.969,210.866C177.622,213.508 179.488,215.94 182.132,216.288ZM193.948,216.678C195.959,216.943 197.806,215.522 198.071,213.512C198.336,211.502 196.919,209.652 194.908,209.387C192.897,209.122 191.046,210.542 190.782,212.552C190.517,214.562 191.937,216.414 193.948,216.678ZM203.112,216.294C204.258,216.445 205.315,215.634 205.466,214.486C205.617,213.337 204.806,212.279 203.66,212.129C202.51,211.977 201.453,212.789 201.301,213.937C201.15,215.086 201.961,216.143 203.112,216.294ZM183.722,204.206C186.353,204.552 218.037,211.889 239.69,216.935C242.102,217.497 241.633,221.059 239.158,220.977C216.937,220.247 184.433,219.134 181.802,218.787C177.776,218.257 174.943,214.563 175.473,210.537C176.003,206.51 179.696,203.676 183.722,204.206Z" style="fill:#e7e7e7;fill-rule:nonzero;"/>
                    <path d="M183.546,190.068C182.525,192.53 183.695,195.362 186.159,196.382C188.622,197.402 191.453,196.229 192.475,193.767C193.492,191.305 192.321,188.472 189.858,187.453C187.394,186.433 184.563,187.606 183.546,190.068ZM197.471,199.817C199.344,200.593 201.499,199.7 202.277,197.827C203.051,195.954 202.16,193.799 200.287,193.023C198.414,192.247 196.259,193.14 195.481,195.013C194.707,196.886 195.598,199.041 197.471,199.817ZM206.42,201.818C207.491,202.261 208.724,201.751 209.167,200.682C209.611,199.611 209.101,198.38 208.031,197.936C206.961,197.493 205.727,198.003 205.283,199.073C204.84,200.143 205.35,201.375 206.42,201.818ZM241.589,211.905C243.776,213.072 242.397,216.391 240.031,215.672C218.755,209.215 187.644,199.727 185.193,198.711C181.442,197.157 179.66,192.855 181.216,189.104C182.768,185.351 187.07,183.569 190.824,185.124C193.276,186.139 221.979,201.427 241.589,211.905Z" style="fill:#e7e7e7;fill-rule:nonzero;"/>
                    <path d="M215.924,185.359C215.004,184.653 213.682,184.827 212.98,185.747C212.274,186.666 212.449,187.988 213.369,188.693C214.284,189.398 215.606,189.224 216.312,188.304C217.018,187.386 216.843,186.064 215.924,185.359ZM209.716,178.609C208.107,177.374 205.797,177.68 204.56,179.287C203.328,180.896 203.633,183.209 205.238,184.443C206.848,185.677 209.162,185.373 210.395,183.764C211.627,182.155 211.326,179.843 209.716,178.609ZM201.086,170.529C198.972,168.907 195.931,169.307 194.309,171.421C192.686,173.535 193.086,176.575 195.201,178.197C197.315,179.819 200.356,179.419 201.979,177.305C203.597,175.191 203.201,172.152 201.086,170.529ZM242.244,210.772C223.366,199.029 195.771,181.812 193.668,180.198C190.445,177.725 189.837,173.109 192.311,169.887C194.781,166.664 199.397,166.057 202.619,168.529C204.726,170.145 228.495,192.341 244.724,207.537C246.535,209.23 244.346,212.08 242.244,210.772Z" style="fill:#e7e7e7;fill-rule:nonzero;"/>
                    <path d="M226.807,175.253C226.102,174.334 224.78,174.16 223.858,174.865C222.939,175.57 222.765,176.892 223.47,177.811C224.179,178.731 225.5,178.905 226.419,178.199C227.338,177.494 227.512,176.172 226.807,175.253ZM222.557,167.126C221.32,165.518 219.008,165.213 217.401,166.448C215.79,167.682 215.486,169.994 216.722,171.603C217.955,173.211 220.267,173.516 221.878,172.282C223.485,171.047 223.789,168.735 222.557,167.126ZM216.309,157.089C214.687,154.974 211.648,154.574 209.534,156.197C207.42,157.818 207.02,160.858 208.642,162.972C210.264,165.086 213.303,165.486 215.417,163.864C217.531,162.242 217.932,159.202 216.309,157.089ZM245.651,206.613C230.454,190.383 208.258,166.612 206.643,164.507C204.171,161.285 204.779,156.669 208.001,154.196C211.222,151.724 215.84,152.332 218.312,155.554C219.927,157.659 237.143,185.251 248.887,204.131C250.191,206.233 247.343,208.42 245.651,206.613Z" style="fill:#e7e7e7;fill-rule:nonzero;"/>
                    <path d="M239.934,168.309C239.49,167.238 238.258,166.728 237.187,167.171C236.116,167.615 235.605,168.846 236.05,169.917C236.494,170.987 237.726,171.497 238.796,171.054C239.863,170.61 240.374,169.379 239.934,168.309ZM237.929,159.358C237.155,157.485 234.999,156.593 233.124,157.368C231.254,158.144 230.361,160.3 231.135,162.172C231.913,164.046 234.066,164.938 235.94,164.162C237.814,163.387 238.708,161.232 237.929,159.358ZM234.497,148.046C233.477,145.584 230.643,144.411 228.181,145.431C225.719,146.45 224.545,149.283 225.565,151.745C226.586,154.207 229.419,155.38 231.881,154.36C234.344,153.341 235.513,150.508 234.497,148.046ZM250.019,203.477C239.541,183.867 224.252,155.161 223.235,152.709C221.683,148.958 223.465,144.656 227.218,143.102C230.97,141.548 235.272,143.329 236.823,147.081C237.841,149.533 247.328,180.641 253.785,201.916C254.506,204.286 251.184,205.66 250.019,203.477Z" style="fill:#e7e7e7;fill-rule:nonzero;"/>
                    <path d="M254.408,164.997C254.257,163.849 253.197,163.037 252.049,163.188C250.9,163.339 250.089,164.397 250.24,165.546C250.392,166.694 251.451,167.506 252.6,167.355C253.749,167.203 254.56,166.146 254.408,164.997ZM254.789,155.834C254.526,153.825 252.676,152.405 250.666,152.669C248.656,152.934 247.234,154.784 247.5,156.795C247.767,158.804 249.617,160.225 251.627,159.96C253.637,159.695 255.055,157.844 254.789,155.834ZM254.402,144.019C254.053,141.377 251.622,139.51 248.979,139.858C246.335,140.206 244.471,142.638 244.821,145.28C245.166,147.922 247.597,149.788 250.24,149.44C252.884,149.093 254.748,146.66 254.402,144.019ZM255.049,201.578C250.003,179.924 242.663,148.24 242.321,145.609C241.788,141.582 244.623,137.889 248.648,137.358C252.677,136.828 256.37,139.663 256.902,143.69C257.249,146.32 258.36,178.824 259.091,201.046C259.172,203.52 255.612,203.99 255.049,201.578Z" style="fill:#e7e7e7;fill-rule:nonzero;"/>
                </g>
            </g>
        </g>
        <g id="_-song-5-rays" serif:id=" song 5 rays">
            <g id="C2D" sound="Song/05-Rays-C2D">
                <path d="M1441.63,318.621C1460.54,318.357 1479.36,310.884 1493.57,296.266L1519.33,269.78C1533.78,254.916 1540.72,235.507 1540.2,216.281L1440.94,216.459L1441.63,318.621Z" style="fill:#5b91a5;stroke:#fff;stroke-width:1.67px;"/>
                <path d="M1340.27,216.64C1339.64,236.678 1347.11,256.904 1362.6,271.968L1389.08,297.725C1403.7,311.941 1422.72,318.885 1441.63,318.621L1440.94,216.459L1340.27,216.64Z" style="fill:#5b91a5;stroke:#fff;stroke-width:1.67px;"/>
                <path d="M1440.94,317.628L1440.64,217.278" style="fill:none;stroke:#5b91a5;stroke-width:4.17px;stroke-linecap:butt;"/>
                <g id="q12" serif:id="q1">
                    <path d="M1480.34,264.937L1457.82,237.491C1458.77,236.819 1459.52,235.926 1460.37,235.138C1460.8,234.747 1461.1,234.241 1461.48,233.811C1461.84,233.356 1462.27,232.956 1462.55,232.439L1491.51,252.975C1490.77,254.132 1489.87,255.163 1489.01,256.229C1488.12,257.273 1487.3,258.375 1486.34,259.344C1484.41,261.29 1482.51,263.265 1480.34,264.937Z" style="fill:#e7e7e7;fill-rule:nonzero;"/>
                    <path d="M1439.59,237.968L1439.59,304.367C1441.84,304.383 1444.09,304.298 1446.33,304.246C1448.25,304.091 1450.17,303.889 1452.09,303.664C1453.04,303.547 1454,303.437 1454.95,303.292L1457.78,302.745C1465.36,301.368 1472.65,298.731 1479.58,295.434L1441.56,218.012C1441.43,217.964 1441.38,218.167 1441.26,218.087C1441.25,218.095 1441.24,218.111 1441.23,218.135C1441.22,218.129 1441.2,218.103 1441.19,218.099C1441.17,218.084 1441.16,218.107 1441.14,218.147C1441.1,218.006 1441.06,218.218 1441.04,218.1L1439.59,237.968Z" style="fill:#e7e7e7;"/>
                    <path d="M1528.31,217.131L1442.04,217.131C1442.05,217.157 1442.09,217.179 1442.04,217.201C1442.12,217.24 1441.98,217.255 1442.06,217.289C1441.96,217.328 1442.11,217.399 1441.96,217.5L1521.81,250.124C1524.8,243.077 1526.64,235.468 1527.67,227.82C1528.03,224.264 1528.36,220.699 1528.31,217.131Z" style="fill:#e7e7e7;"/>
                </g>
                <g id="q42" serif:id="q4">
                    <path d="M1427.66,239.815L1428.44,240.21C1428.96,240.479 1429.48,240.759 1429.99,241.051C1430.54,241.254 1431.09,241.468 1431.62,241.694L1432.43,242.042C1432.71,242.139 1432.99,242.195 1433.27,242.279L1422.62,276.141C1421.96,275.94 1421.3,275.759 1420.66,275.533L1418.76,274.781L1414.99,273.225L1411.37,271.333L1409.57,270.361C1408.98,270.015 1408.42,269.625 1407.85,269.255L1426.94,239.324C1427.18,239.483 1427.41,239.667 1427.66,239.815Z" style="fill:#e7e7e7;fill-rule:nonzero;"/>
                    <path d="M1440.34,217.655C1440.33,217.668 1440.33,217.686 1440.32,217.708C1440.33,217.714 1440.36,217.707 1440.37,217.713C1440.39,217.72 1440.38,217.748 1440.37,217.788C1440.5,217.723 1440.36,217.889 1440.46,217.829L1378.61,277.944C1375.82,275.247 1373.48,272.162 1371.07,269.15C1369.96,267.58 1368.88,265.981 1367.82,264.37C1367.29,263.563 1366.76,262.758 1366.26,261.937L1364.86,259.416C1361.04,252.722 1358.38,245.449 1356.45,238.019L1440.2,217.381C1440.32,217.444 1440.2,217.617 1440.34,217.655Z" style="fill:#e7e7e7;fill-rule:nonzero;"/>
                    <path d="M1439.59,304.367L1439.59,237.968L1434.76,304.125C1436.37,304.292 1437.98,304.356 1439.59,304.367Z" style="fill:#e7e7e7;"/>
                </g>
            </g>
            <g id="C3" serif:id="C" sound="Song/05-Rays-C">
                <path d="M1440.24,119.456C1420.85,119.35 1401.44,126.826 1386.86,141.817L1361.1,168.303C1347.73,182.049 1340.8,199.681 1340.24,217.462L1440.9,217.281L1440.24,119.456Z" style="fill:#78608c;stroke:#fff;stroke-width:1.67px;"/>
                <path d="M1540.17,217.102C1539.67,198.512 1532.2,180.091 1517.83,166.115L1491.35,140.358C1477.1,126.504 1458.68,119.556 1440.24,119.456L1440.9,217.281L1540.17,217.102Z" style="fill:#78608c;stroke:#fff;stroke-width:1.67px;"/>
                <path d="M1440.24,216.455L1440.24,120.455" style="fill:none;stroke:#78608c;stroke-width:4.17px;stroke-linecap:butt;"/>
                <g id="q22" serif:id="q2">
                    <path d="M1441.52,216.314C1441.34,216.402 1441.32,216.164 1441.25,216.273L1455.99,131.287C1463.66,132.494 1470.99,135.054 1477.98,138.141C1484.83,141.508 1491.51,145.48 1497.36,150.576L1441.73,216.497C1441.77,216.37 1441.57,216.511 1441.52,216.314Z" style="fill:#e7e7e7;fill-rule:nonzero;"/>
                    <path d="M1464.93,205.963C1464.68,205.439 1464.37,204.944 1464.11,204.423L1463.71,203.644L1463.21,202.924L1462.26,201.466L1490.78,180.326L1493.07,183.722L1494.19,185.441L1495.17,187.236C1495.81,188.441 1496.48,189.634 1497.06,190.863L1498.65,194.632L1465.6,207.583C1465.37,207.048 1465.14,206.509 1464.93,205.963Z" style="fill:#e7e7e7;fill-rule:nonzero;"/>
                    <path d="M1442.04,217.131L1528.31,217.131C1528.3,216.837 1528.29,216.543 1528.28,216.249C1528.32,212.378 1527.9,208.545 1527.42,204.721L1442.05,217.088C1442.03,217.103 1442.03,217.117 1442.04,217.131Z" style="fill:#e7e7e7;"/>
                </g>
                <g id="q32" serif:id="q3">
                    <path d="M1380.42,205.594C1380.69,204.252 1380.89,202.894 1381.31,201.591L1415.65,210.573C1415.44,211.118 1415.41,211.704 1415.29,212.27C1415.21,212.842 1415.01,213.398 1414.99,213.978C1414.93,215.134 1414.73,216.28 1414.83,217.444L1379.33,217.835C1379.21,215.098 1379.5,212.37 1379.75,209.644C1379.88,208.281 1380.19,206.943 1380.42,205.594Z" style="fill:#e7e7e7;fill-rule:nonzero;"/>
                    <path d="M1440.51,216.492C1440.43,216.452 1440.51,216.569 1440.43,216.53C1440.46,216.63 1440.32,216.565 1440.33,216.739L1364.02,176.543C1367.49,169.725 1372.14,163.42 1377.34,157.718C1380.03,154.945 1382.76,152.194 1385.8,149.809C1388.75,147.296 1391.95,145.149 1395.19,143.064L1440.59,216.406C1440.59,216.482 1440.49,216.413 1440.51,216.492Z" style="fill:#e7e7e7;fill-rule:nonzero;"/>
                    <path d="M1437.84,191.091L1436.97,191.175L1436.12,191.371C1435.55,191.505 1434.97,191.585 1434.4,191.727C1433.85,191.916 1433.29,192.092 1432.73,192.257L1421.41,158.612L1425.32,157.408C1426.64,157.067 1427.98,156.812 1429.32,156.528L1431.32,156.127L1433.35,155.876L1437.43,155.45L1439.57,190.886L1437.84,191.091Z" style="fill:#e7e7e7;fill-rule:nonzero;"/>
                </g>
            </g>
        </g>
    </g>
    <g id="Map" sound="Map/C" loop="false" autoplay="true">
        <g id="Frame">
            <rect x="754.5" y="41.542" width="190" height="190" style="fill:#fff;"/>
            <rect x="754.5" y="41.542" width="190" height="190" style="fill:none;stroke:#000;stroke-width:1.17px;stroke-linejoin:bevel;"/>
            <rect x="806.375" y="93.417" width="86.25" height="86.25" style="fill:none;stroke:#000;stroke-width:1.25px;stroke-linejoin:bevel;"/>
            <path d="M892.625,93.417L944.5,41.75" style="fill:none;stroke:#000;stroke-width:1.25px;stroke-linejoin:bevel;"/>
            <path d="M806.375,93.417L754.916,41.75" style="fill:none;stroke:#000;stroke-width:1.25px;stroke-linejoin:bevel;"/>
            <path d="M806.375,179.667L754.5,231.542" style="fill:none;stroke:#000;stroke-width:1.25px;stroke-linejoin:bevel;"/>
            <path d="M892.625,179.667L944.5,231.542" style="fill:none;stroke:#000;stroke-width:1.25px;stroke-linejoin:bevel;"/>
        </g>
        <g id="Dots">
            <circle cx="754.5" cy="231.5" r="1.5" style="stroke:#000;stroke-width:1.25px;stroke-linejoin:bevel;"/>
            <circle cx="849.197" cy="231.625" r="1.5" style="stroke:#000;stroke-width:1.25px;stroke-linejoin:bevel;"/>
            <circle cx="944.5" cy="231.5" r="1.5" style="stroke:#000;stroke-width:1.25px;stroke-linejoin:bevel;"/>
            <circle cx="916.846" cy="203.667" r="1.5" style="stroke:#000;stroke-width:1.25px;stroke-linejoin:bevel;"/>
            <circle cx="892.625" cy="179.5" r="1.5" style="stroke:#000;stroke-width:1.25px;stroke-linejoin:bevel;"/>
            <circle cx="892.197" cy="136.625" r="1.5" style="stroke:#000;stroke-width:1.25px;stroke-linejoin:bevel;"/>
            <circle cx="892.322" cy="93.375" r="1.5" style="stroke:#000;stroke-width:1.25px;stroke-linejoin:bevel;"/>
            <circle cx="916.76" cy="69.167" r="1.5" style="stroke:#000;stroke-width:1.25px;stroke-linejoin:bevel;"/>
            <circle cx="849.197" cy="93.375" r="1.5" style="stroke:#000;stroke-width:1.25px;stroke-linejoin:bevel;"/>
            <circle cx="806.072" cy="93.5" r="1.5" style="stroke:#000;stroke-width:1.25px;stroke-linejoin:bevel;"/>
            <circle cx="849.5" cy="41.5" r="1.5" style="stroke:#000;stroke-width:1.25px;stroke-linejoin:bevel;"/>
            <circle cx="754.5" cy="41.542" r="1.5" style="stroke:#000;stroke-width:1.25px;stroke-linejoin:bevel;"/>
            <circle cx="782.346" cy="69.5" r="1.5" style="stroke:#000;stroke-width:1.25px;stroke-linejoin:bevel;"/>
            <circle cx="754.5" cy="136.542" r="1.5" style="stroke:#000;stroke-width:1.25px;stroke-linejoin:bevel;"/>
            <circle cx="806.375" cy="136.542" r="1.5" style="stroke:#000;stroke-width:1.25px;stroke-linejoin:bevel;"/>
            <circle cx="849" cy="179.667" r="1.5" style="stroke:#000;stroke-width:1.25px;stroke-linejoin:bevel;"/>
            <circle cx="806.346" cy="179.5" r="1.5" style="stroke:#000;stroke-width:1.25px;stroke-linejoin:bevel;"/>
            <circle cx="782.146" cy="204" r="1.5" style="stroke:#000;stroke-width:1.25px;stroke-linejoin:bevel;"/>
            <circle cx="944.5" cy="136.542" r="1.5" style="stroke:#000;stroke-width:1.25px;stroke-linejoin:bevel;"/>
            <circle cx="944.494" cy="41.65" r="1.5" style="stroke:#000;stroke-width:1.25px;stroke-linejoin:bevel;"/>
        </g>
        <g>
            <path d="M892.625,136.542L892.227,179.59L880.69,179.709L849.5,179.667" style="fill:none;stroke:#78608c;stroke-width:5.99px;"/>
        </g>
        <path d="M923.25,211.542L891.281,179.03" style="fill:none;stroke:#78608c;stroke-width:5.83px;"/>
        <g id="_9" serif:id="9">
            <circle cx="915" cy="201.896" r="15.75" style="fill:#fff;stroke:#fff;stroke-width:1.46px;"/>
            <g id="_8-petals" serif:id="8 petals">
                <path id="q43" serif:id="q4" d="M912.354,202.521L900,202.521C901.353,201.513 903.945,199.848 905.67,199.848C907.519,199.848 910.85,201.648 912.354,202.521ZM914.947,187.598L914.947,199.783C914.056,198.239 912.327,195.003 912.327,193.191C912.327,191.37 914.08,188.767 914.947,187.598ZM913.135,200.651C910.57,199.977 907.616,198.915 906.516,197.81C905.196,196.495 904.603,193.31 904.398,191.914C906.064,192.156 909.071,192.814 910.289,194.037C911.394,195.137 912.456,198.09 913.135,200.651Z" style="fill:#733c52;"/>
                <path id="q13" serif:id="q1" d="M930,202.521L917.646,202.521C919.15,201.648 922.481,199.848 924.33,199.848C926.189,199.848 928.868,201.68 930,202.521ZM914.947,199.783L914.947,187.598C914.965,187.573 914.983,187.55 915,187.526C915.846,188.658 917.673,191.332 917.673,193.191C917.673,195.04 915.873,198.371 915,199.874C914.983,199.845 914.965,199.814 914.947,199.783ZM923.484,197.81C922.384,198.915 919.43,199.977 916.865,200.651C917.544,198.09 918.606,195.137 919.711,194.037C921.026,192.722 924.206,192.124 925.602,191.919C925.397,193.315 924.799,196.495 923.484,197.81Z" style="fill:#733c52;"/>
                <path id="q23" serif:id="q2" d="M917.646,202.521L930,202.521C928.647,203.529 926.055,205.194 924.33,205.194C922.481,205.194 919.15,203.394 917.646,202.521ZM914.947,217.444L914.947,205.259C914.965,205.228 914.983,205.197 915,205.167C915.873,206.671 917.673,210.002 917.673,211.851C917.673,213.71 915.846,216.384 915,217.516C914.983,217.492 914.965,217.469 914.947,217.444ZM916.865,204.391C919.43,205.065 922.384,206.127 923.484,207.232C924.804,208.547 925.397,211.732 925.602,213.128C923.936,212.886 920.929,212.228 919.711,211.005C918.606,209.905 917.544,206.951 916.865,204.391Z" style="fill:#733c52;"/>
                <path id="q33" serif:id="q3" d="M914.947,205.259L914.947,217.444C914.08,216.274 912.327,213.672 912.327,211.851C912.327,210.039 914.056,206.803 914.947,205.259ZM900,202.521L912.354,202.521C910.85,203.394 907.519,205.194 905.67,205.194C903.811,205.194 901.132,203.362 900,202.521ZM906.516,207.232C907.616,206.127 910.57,205.065 913.135,204.391C912.456,206.951 911.394,209.905 910.289,211.005C908.974,212.32 905.794,212.918 904.398,213.123C904.603,211.727 905.201,208.547 906.516,207.232Z" style="fill:#733c52;"/>
            </g>
        </g>
        <g id="_84" serif:id="8">
            <circle cx="892.383" cy="136.75" r="15.75" style="fill:#fff;stroke:#fff;stroke-width:1.46px;"/>
            <g id="q44" serif:id="q4">
                <path d="M891.025,126.187C891.228,126.16 891.415,126.303 891.441,126.506C891.468,126.708 891.325,126.895 891.122,126.922C890.92,126.948 890.733,126.805 890.706,126.602C890.68,126.4 890.823,126.213 891.025,126.187ZM890.223,125.058C890.176,124.703 890.427,124.377 890.781,124.33C891.136,124.284 891.462,124.534 891.509,124.889C891.556,125.243 891.305,125.57 890.95,125.617C890.596,125.663 890.269,125.413 890.223,125.058ZM890.483,122.069C890.95,122.008 891.379,122.337 891.44,122.804C891.502,123.27 891.172,123.699 890.706,123.76C890.24,123.822 889.811,123.492 889.749,123.026C889.688,122.56 890.017,122.131 890.483,122.069ZM892.268,132.867C892.139,128.946 891.943,123.21 891.881,122.745C891.788,122.035 891.135,121.535 890.425,121.628C889.715,121.722 889.215,122.374 889.308,123.084C889.369,123.548 890.664,129.14 891.555,132.961C891.654,133.387 892.282,133.304 892.268,132.867Z" style="fill:#733c52;fill-rule:nonzero;"/>
                <path d="M886.813,123.053C887.247,122.873 887.748,123.08 887.927,123.514C888.107,123.949 887.9,124.449 887.466,124.629C887.031,124.809 886.532,124.601 886.352,124.167C886.172,123.733 886.379,123.233 886.813,123.053ZM888.533,125.511C888.671,125.841 888.513,126.222 888.182,126.358C887.852,126.495 887.471,126.338 887.335,126.007C887.198,125.677 887.356,125.296 887.686,125.159C888.017,125.023 888.397,125.18 888.533,125.511ZM888.886,127.09C888.965,127.279 888.875,127.496 888.686,127.575C888.497,127.653 888.28,127.563 888.202,127.374C888.123,127.185 888.213,126.968 888.402,126.889C888.591,126.811 888.809,126.901 888.886,127.09ZM890.666,133.296C890.872,133.682 891.459,133.439 891.332,133.021C890.192,129.266 888.518,123.777 888.338,123.344C888.064,122.682 887.305,122.367 886.643,122.642C885.981,122.916 885.666,123.675 885.94,124.337C886.12,124.77 888.817,129.836 890.666,133.296Z" style="fill:#733c52;fill-rule:nonzero;"/>
                <path d="M883.523,124.953C883.896,124.666 884.432,124.737 884.718,125.11C885.005,125.483 884.934,126.02 884.561,126.306C884.188,126.592 883.652,126.521 883.365,126.148C883.079,125.775 883.15,125.239 883.523,124.953ZM885.821,126.881C886.038,127.165 885.984,127.573 885.701,127.791C885.417,128.009 885.008,127.955 884.791,127.671C884.573,127.388 884.627,126.979 884.911,126.762C885.195,126.544 885.602,126.598 885.821,126.881ZM886.57,128.316C886.695,128.478 886.664,128.711 886.502,128.835C886.34,128.96 886.106,128.929 885.982,128.767C885.858,128.605 885.889,128.372 886.051,128.247C886.212,128.123 886.446,128.153 886.57,128.316ZM889.896,133.85C890.195,134.169 890.698,133.783 890.467,133.412C888.395,130.08 885.356,125.211 885.071,124.839C884.635,124.271 883.82,124.163 883.251,124.6C882.683,125.036 882.576,125.851 883.012,126.419C883.297,126.791 887.214,130.986 889.896,133.85Z" style="fill:#733c52;fill-rule:nonzero;"/>
                <path d="M880.836,127.639C881.122,127.266 881.659,127.196 882.032,127.482C882.405,127.768 882.475,128.305 882.189,128.678C881.903,129.051 881.366,129.121 880.993,128.835C880.62,128.549 880.55,128.012 880.836,127.639ZM882.644,129.028C882.863,128.744 883.271,128.69 883.554,128.908C883.839,129.126 883.892,129.534 883.674,129.818C883.457,130.101 883.048,130.155 882.764,129.937C882.481,129.719 882.427,129.311 882.644,129.028ZM884.13,130.167C884.255,130.005 884.488,129.974 884.65,130.099C884.812,130.223 884.843,130.457 884.718,130.619C884.594,130.781 884.361,130.812 884.199,130.687C884.037,130.563 884.006,130.33 884.13,130.167ZM889.294,134.584C889.666,134.814 890.052,134.311 889.733,134.013C886.868,131.331 882.674,127.414 882.302,127.129C881.734,126.693 880.919,126.8 880.482,127.369C880.046,127.937 880.153,128.752 880.722,129.188C881.093,129.473 885.963,132.511 889.294,134.584Z" style="fill:#733c52;fill-rule:nonzero;"/>
                <path d="M878.936,130.93C879.116,130.496 879.615,130.289 880.05,130.468C880.484,130.648 880.692,131.148 880.511,131.583C880.331,132.017 879.832,132.224 879.398,132.044C878.963,131.864 878.756,131.364 878.936,130.93ZM881.043,131.803C881.179,131.472 881.56,131.315 881.891,131.451C882.221,131.588 882.378,131.969 882.242,132.299C882.104,132.63 881.725,132.787 881.394,132.65C881.063,132.513 880.905,132.133 881.043,131.803ZM882.772,132.519C882.851,132.33 883.068,132.24 883.257,132.319C883.446,132.397 883.536,132.614 883.458,132.803C883.379,132.992 883.162,133.082 882.973,133.004C882.784,132.925 882.694,132.708 882.772,132.519ZM879.227,132.455C879.66,132.634 885.149,134.309 888.904,135.448C889.322,135.575 889.565,134.989 889.179,134.784C885.719,132.934 880.653,130.237 880.221,130.057C879.558,129.783 878.799,130.097 878.525,130.76C878.251,131.422 878.565,132.181 879.227,132.455Z" style="fill:#733c52;fill-rule:nonzero;"/>
                <path d="M877.952,134.6C878.014,134.134 878.443,133.805 878.91,133.866C879.375,133.927 879.705,134.357 879.643,134.823C879.582,135.289 879.153,135.618 878.687,135.557C878.22,135.496 877.891,135.066 877.952,134.6ZM880.213,134.898C880.26,134.543 880.586,134.293 880.941,134.339C881.296,134.386 881.547,134.712 881.5,135.067C881.453,135.422 881.127,135.672 880.772,135.626C880.417,135.579 880.166,135.253 880.213,134.898ZM882.07,135.142C882.097,134.939 882.283,134.796 882.485,134.823C882.688,134.85 882.831,135.036 882.805,135.239C882.779,135.442 882.592,135.585 882.389,135.558C882.186,135.532 882.043,135.345 882.07,135.142ZM878.629,135.998C879.093,136.059 884.829,136.256 888.75,136.385C889.187,136.399 889.27,135.77 888.844,135.671C885.023,134.781 879.431,133.486 878.967,133.425C878.257,133.331 877.605,133.832 877.511,134.542C877.418,135.253 877.918,135.905 878.629,135.998Z" style="fill:#733c52;fill-rule:nonzero;"/>
            </g>
            <g id="q34" serif:id="q3">
                <path d="M877.953,138.4C877.891,137.934 878.221,137.504 878.687,137.443C879.153,137.382 879.582,137.711 879.643,138.177C879.705,138.643 879.375,139.073 878.91,139.134C878.443,139.195 878.014,138.866 877.953,138.4ZM880.772,137.374C881.126,137.328 881.453,137.578 881.5,137.933C881.547,138.288 881.296,138.614 880.941,138.661C880.587,138.708 880.26,138.457 880.213,138.102C880.167,137.747 880.417,137.421 880.772,137.374ZM882.389,137.442C882.592,137.415 882.778,137.558 882.805,137.761C882.832,137.964 882.688,138.15 882.485,138.177C882.283,138.204 882.097,138.06 882.07,137.858C882.043,137.655 882.186,137.468 882.389,137.442ZM888.844,137.329C889.27,137.23 889.187,136.601 888.75,136.615C884.829,136.744 879.093,136.941 878.629,137.002C877.918,137.095 877.418,137.747 877.511,138.458C877.605,139.168 878.257,139.669 878.968,139.575C879.432,139.514 885.023,138.219 888.844,137.329Z" style="fill:#733c52;fill-rule:nonzero;"/>
                <path d="M878.936,142.07C878.756,141.636 878.963,141.136 879.398,140.956C879.832,140.776 880.332,140.983 880.512,141.417C880.692,141.852 880.484,142.352 880.05,142.531C879.616,142.711 879.116,142.504 878.936,142.07ZM881.394,140.35C881.725,140.213 882.105,140.37 882.241,140.701C882.379,141.031 882.221,141.412 881.89,141.549C881.56,141.686 881.179,141.528 881.043,141.197C880.906,140.867 881.063,140.486 881.394,140.35ZM882.973,139.996C883.162,139.918 883.38,140.008 883.457,140.197C883.536,140.386 883.446,140.603 883.257,140.681C883.068,140.76 882.851,140.67 882.773,140.481C882.694,140.292 882.784,140.075 882.973,139.996ZM889.18,138.216C889.565,138.011 889.322,137.425 888.904,137.552C885.15,138.691 879.66,140.366 879.227,140.545C878.565,140.819 878.251,141.578 878.525,142.24C878.799,142.902 879.558,143.217 880.22,142.943C880.653,142.763 885.719,140.066 889.18,138.216Z" style="fill:#733c52;fill-rule:nonzero;"/>
                <path d="M884.65,142.901C884.488,143.025 884.255,142.995 884.13,142.833C884.006,142.67 884.036,142.437 884.199,142.313C884.361,142.188 884.594,142.219 884.719,142.381C884.843,142.543 884.813,142.777 884.65,142.901ZM883.555,144.092C883.271,144.31 882.863,144.256 882.645,143.972C882.427,143.689 882.481,143.281 882.765,143.063C883.049,142.845 883.456,142.899 883.675,143.182C883.892,143.466 883.838,143.874 883.555,144.092ZM882.031,145.518C881.658,145.804 881.122,145.734 880.836,145.361C880.55,144.988 880.62,144.451 880.993,144.165C881.366,143.879 881.902,143.949 882.189,144.322C882.475,144.695 882.404,145.232 882.031,145.518ZM889.294,138.416C885.963,140.489 881.094,143.527 880.722,143.812C880.154,144.248 880.047,145.063 880.483,145.632C880.919,146.2 881.734,146.307 882.303,145.871C882.674,145.586 886.869,141.669 889.733,138.987C890.052,138.689 889.666,138.186 889.294,138.416Z" style="fill:#733c52;fill-rule:nonzero;"/>
                <path d="M886.57,144.684C886.446,144.847 886.213,144.877 886.05,144.753C885.888,144.628 885.858,144.395 885.982,144.233C886.106,144.071 886.34,144.04 886.502,144.165C886.664,144.289 886.695,144.522 886.57,144.684ZM885.82,146.119C885.603,146.402 885.195,146.456 884.91,146.238C884.627,146.021 884.573,145.612 884.791,145.329C885.009,145.045 885.417,144.991 885.7,145.209C885.985,145.427 886.038,145.835 885.82,146.119ZM884.718,147.89C884.432,148.263 883.896,148.334 883.523,148.047C883.15,147.761 883.079,147.225 883.365,146.852C883.652,146.479 884.188,146.408 884.561,146.694C884.934,146.981 885.005,147.517 884.718,147.89ZM889.896,139.15C887.214,142.014 883.297,146.209 883.012,146.581C882.576,147.149 882.683,147.964 883.251,148.4C883.82,148.837 884.635,148.729 885.071,148.161C885.356,147.789 888.394,142.92 890.467,139.588C890.698,139.217 890.195,138.831 889.896,139.15Z" style="fill:#733c52;fill-rule:nonzero;"/>
                <path d="M888.887,145.91C888.808,146.099 888.591,146.189 888.403,146.111C888.214,146.032 888.124,145.815 888.202,145.626C888.28,145.437 888.497,145.347 888.686,145.426C888.875,145.504 888.965,145.721 888.887,145.91ZM888.534,147.489C888.396,147.82 888.016,147.977 887.686,147.84C887.355,147.704 887.198,147.323 887.335,146.993C887.471,146.662 887.852,146.505 888.183,146.642C888.513,146.779 888.67,147.159 888.534,147.489ZM887.927,149.486C887.747,149.92 887.248,150.127 886.813,149.947C886.379,149.767 886.172,149.267 886.352,148.833C886.532,148.399 887.031,148.192 887.466,148.371C887.9,148.551 888.107,149.051 887.927,149.486ZM890.666,139.704C888.817,143.164 886.119,148.23 885.941,148.663C885.666,149.325 885.98,150.084 886.643,150.358C887.305,150.633 888.064,150.318 888.339,149.656C888.517,149.223 890.192,143.734 891.332,139.979C891.458,139.561 890.873,139.318 890.666,139.704Z" style="fill:#733c52;fill-rule:nonzero;"/>
                <path d="M891.441,146.494C891.415,146.697 891.228,146.84 891.025,146.813C890.823,146.787 890.679,146.6 890.706,146.397C890.733,146.195 890.919,146.052 891.122,146.078C891.325,146.105 891.468,146.292 891.441,146.494ZM891.509,148.111C891.463,148.466 891.136,148.717 890.781,148.67C890.427,148.623 890.176,148.297 890.223,147.942C890.269,147.587 890.595,147.337 890.95,147.383C891.305,147.43 891.556,147.757 891.509,148.111ZM891.44,150.197C891.379,150.663 890.949,150.992 890.484,150.931C890.017,150.869 889.688,150.44 889.749,149.974C889.811,149.508 890.24,149.178 890.706,149.24C891.172,149.301 891.502,149.73 891.44,150.197ZM891.554,140.039C890.664,143.86 889.369,149.451 889.308,149.916C889.215,150.626 889.715,151.278 890.425,151.372C891.136,151.465 891.788,150.965 891.881,150.254C891.942,149.79 892.139,144.054 892.268,140.133C892.282,139.696 891.653,139.613 891.554,140.039Z" style="fill:#733c52;fill-rule:nonzero;"/>
            </g>
            <g id="q24" serif:id="q2">
                <path d="M893.741,146.813C893.538,146.84 893.352,146.697 893.325,146.494C893.299,146.291 893.442,146.105 893.644,146.078C893.847,146.052 894.033,146.195 894.06,146.397C894.087,146.6 893.944,146.787 893.741,146.813ZM894.544,147.942C894.591,148.297 894.34,148.623 893.985,148.67C893.631,148.717 893.304,148.466 893.258,148.111C893.211,147.756 893.462,147.43 893.816,147.383C894.171,147.337 894.497,147.587 894.544,147.942ZM894.283,150.931C893.817,150.992 893.388,150.663 893.326,150.196C893.265,149.73 893.594,149.301 894.06,149.24C894.527,149.178 894.956,149.508 895.017,149.974C895.079,150.44 894.749,150.869 894.283,150.931ZM892.499,140.133C892.628,144.054 892.824,149.79 892.885,150.255C892.979,150.965 893.63,151.465 894.341,151.372C895.051,151.278 895.552,150.626 895.459,149.916C895.397,149.451 894.103,143.86 893.212,140.039C893.113,139.613 892.484,139.696 892.499,140.133Z" style="fill:#733c52;fill-rule:nonzero;"/>
                <path d="M897.953,149.947C897.518,150.127 897.019,149.92 896.839,149.486C896.659,149.051 896.866,148.551 897.301,148.371C897.735,148.191 898.235,148.399 898.414,148.833C898.595,149.267 898.388,149.767 897.953,149.947ZM896.233,147.489C896.096,147.159 896.253,146.778 896.584,146.642C896.914,146.505 897.294,146.662 897.432,146.993C897.569,147.323 897.411,147.704 897.08,147.84C896.75,147.977 896.37,147.82 896.233,147.489ZM895.879,145.91C895.801,145.721 895.891,145.504 896.08,145.426C896.269,145.347 896.487,145.437 896.565,145.626C896.643,145.815 896.553,146.032 896.364,146.111C896.175,146.189 895.958,146.099 895.879,145.91ZM894.099,139.704C893.893,139.318 893.308,139.561 893.435,139.979C894.574,143.734 896.248,149.223 896.428,149.656C896.702,150.318 897.461,150.633 898.124,150.358C898.786,150.084 899.1,149.325 898.825,148.663C898.647,148.23 895.949,143.164 894.099,139.704Z" style="fill:#733c52;fill-rule:nonzero;"/>
                <path d="M901.244,148.047C900.871,148.334 900.334,148.263 900.048,147.89C899.762,147.517 899.832,146.981 900.205,146.694C900.578,146.408 901.115,146.479 901.401,146.852C901.688,147.225 901.617,147.761 901.244,148.047ZM898.946,146.119C898.728,145.835 898.782,145.427 899.066,145.209C899.35,144.991 899.757,145.045 899.976,145.328C900.193,145.612 900.139,146.021 899.856,146.238C899.572,146.456 899.164,146.402 898.946,146.119ZM898.196,144.684C898.072,144.522 898.102,144.289 898.264,144.165C898.426,144.04 898.66,144.071 898.784,144.233C898.909,144.395 898.878,144.628 898.716,144.753C898.553,144.877 898.32,144.847 898.196,144.684ZM894.87,139.15C894.572,138.831 894.068,139.217 894.3,139.588C896.372,142.92 899.41,147.789 899.695,148.161C900.131,148.729 900.946,148.837 901.514,148.4C902.083,147.964 902.19,147.149 901.754,146.581C901.469,146.209 897.552,142.014 894.87,139.15Z" style="fill:#733c52;fill-rule:nonzero;"/>
                <path d="M903.931,145.361C903.644,145.734 903.108,145.804 902.735,145.518C902.362,145.232 902.291,144.695 902.578,144.322C902.864,143.949 903.4,143.879 903.773,144.165C904.146,144.451 904.217,144.988 903.931,145.361ZM902.121,143.972C901.904,144.256 901.496,144.31 901.212,144.092C900.928,143.874 900.874,143.466 901.092,143.182C901.31,142.899 901.718,142.845 902.002,143.063C902.286,143.28 902.34,143.689 902.121,143.972ZM900.636,142.833C900.511,142.995 900.278,143.026 900.116,142.901C899.954,142.777 899.923,142.543 900.047,142.381C900.172,142.219 900.405,142.188 900.568,142.313C900.73,142.437 900.761,142.67 900.636,142.833ZM895.471,138.416C895.101,138.186 894.715,138.688 895.033,138.987C897.897,141.669 902.092,145.586 902.464,145.871C903.032,146.307 903.847,146.2 904.283,145.631C904.72,145.063 904.612,144.248 904.044,143.812C903.672,143.527 898.803,140.489 895.471,138.416Z" style="fill:#733c52;fill-rule:nonzero;"/>
                <path d="M905.831,142.07C905.65,142.504 905.15,142.711 904.716,142.532C904.281,142.352 904.075,141.852 904.254,141.417C904.434,140.983 904.934,140.776 905.369,140.956C905.803,141.136 906.011,141.635 905.831,142.07ZM903.724,141.197C903.586,141.528 903.207,141.685 902.876,141.549C902.545,141.412 902.388,141.031 902.525,140.701C902.661,140.37 903.042,140.213 903.373,140.35C903.703,140.487 903.86,140.867 903.724,141.197ZM901.993,140.481C901.916,140.67 901.698,140.76 901.509,140.682C901.32,140.603 901.23,140.386 901.309,140.197C901.387,140.008 901.604,139.918 901.793,139.996C901.982,140.075 902.072,140.292 901.993,140.481ZM905.539,140.545C905.107,140.366 899.617,138.691 895.862,137.552C895.444,137.425 895.201,138.011 895.587,138.216C899.048,140.066 904.113,142.763 904.546,142.943C905.208,143.217 905.967,142.902 906.241,142.24C906.516,141.578 906.201,140.819 905.539,140.545Z" style="fill:#733c52;fill-rule:nonzero;"/>
                <path d="M906.813,138.4C906.752,138.866 906.324,139.195 905.857,139.134C905.391,139.073 905.062,138.643 905.122,138.177C905.184,137.711 905.613,137.382 906.08,137.443C906.546,137.504 906.875,137.934 906.813,138.4ZM904.553,138.102C904.506,138.457 904.18,138.708 903.825,138.661C903.47,138.614 903.22,138.288 903.266,137.933C903.313,137.578 903.64,137.327 903.994,137.374C904.349,137.421 904.599,137.748 904.553,138.102ZM902.697,137.858C902.67,138.06 902.483,138.204 902.28,138.177C902.078,138.15 901.934,137.964 901.961,137.761C901.988,137.558 902.175,137.415 902.378,137.442C902.58,137.468 902.724,137.655 902.697,137.858ZM906.138,137.002C905.674,136.941 899.937,136.744 896.016,136.615C895.58,136.601 895.496,137.23 895.922,137.329C899.743,138.219 905.334,139.514 905.799,139.575C906.51,139.669 907.161,139.169 907.255,138.458C907.349,137.747 906.848,137.096 906.138,137.002Z" style="fill:#733c52;fill-rule:nonzero;"/>
            </g>
            <g id="q14" serif:id="q1">
                <path d="M906.08,135.557C905.613,135.618 905.184,135.289 905.122,134.823C905.061,134.357 905.391,133.927 905.857,133.866C906.323,133.805 906.753,134.134 906.814,134.6C906.875,135.066 906.546,135.496 906.08,135.557ZM903.994,135.626C903.639,135.673 903.313,135.422 903.267,135.067C903.22,134.712 903.47,134.386 903.825,134.339C904.18,134.292 904.506,134.543 904.553,134.898C904.6,135.253 904.349,135.579 903.994,135.626ZM902.377,135.558C902.175,135.585 901.988,135.442 901.962,135.239C901.935,135.036 902.078,134.85 902.28,134.823C902.483,134.796 902.67,134.939 902.697,135.142C902.723,135.345 902.58,135.531 902.377,135.558ZM905.799,133.425C905.335,133.486 899.743,134.781 895.922,135.671C895.497,135.77 895.579,136.399 896.016,136.385C899.937,136.256 905.673,136.059 906.138,135.998C906.848,135.905 907.348,135.253 907.255,134.542C907.161,133.832 906.509,133.331 905.799,133.425Z" style="fill:#733c52;fill-rule:nonzero;"/>
                <path d="M905.83,130.93C906.01,131.364 905.804,131.864 905.369,132.044C904.934,132.224 904.435,132.017 904.254,131.583C904.075,131.148 904.281,130.648 904.716,130.468C905.151,130.288 905.65,130.496 905.83,130.93ZM903.373,132.65C903.042,132.787 902.662,132.63 902.524,132.299C902.388,131.969 902.545,131.588 902.876,131.451C903.206,131.315 903.587,131.472 903.724,131.803C903.86,132.133 903.703,132.513 903.373,132.65ZM901.793,133.004C901.604,133.082 901.387,132.992 901.309,132.803C901.23,132.614 901.32,132.397 901.509,132.318C901.698,132.24 901.916,132.33 901.994,132.519C902.072,132.708 901.982,132.925 901.793,133.004ZM895.587,134.783C895.201,134.989 895.445,135.575 895.862,135.448C899.617,134.309 905.107,132.634 905.539,132.455C906.201,132.181 906.516,131.422 906.241,130.76C905.967,130.098 905.208,129.783 904.546,130.057C904.113,130.237 899.048,132.934 895.587,134.783Z" style="fill:#733c52;fill-rule:nonzero;"/>
                <path d="M900.116,130.099C900.279,129.974 900.512,130.005 900.636,130.167C900.76,130.33 900.729,130.563 900.567,130.687C900.406,130.812 900.172,130.781 900.048,130.619C899.923,130.457 899.954,130.223 900.116,130.099ZM901.212,128.908C901.496,128.69 901.903,128.744 902.122,129.028C902.339,129.311 902.285,129.72 902.002,129.937C901.718,130.155 901.309,130.101 901.092,129.818C900.874,129.534 900.928,129.126 901.212,128.908ZM902.735,127.482C903.108,127.196 903.644,127.266 903.931,127.639C904.217,128.012 904.146,128.549 903.773,128.835C903.4,129.121 902.864,129.051 902.577,128.678C902.291,128.305 902.361,127.768 902.735,127.482ZM895.471,134.584C898.803,132.511 903.673,129.473 904.044,129.188C904.612,128.752 904.72,127.937 904.283,127.369C903.847,126.8 903.033,126.693 902.464,127.129C902.092,127.414 897.898,131.331 895.034,134.013C894.714,134.312 895.1,134.814 895.471,134.584Z" style="fill:#733c52;fill-rule:nonzero;"/>
                <path d="M898.196,128.316C898.32,128.153 898.553,128.123 898.716,128.247C898.878,128.372 898.909,128.605 898.785,128.767C898.659,128.929 898.426,128.96 898.264,128.835C898.102,128.711 898.071,128.478 898.196,128.316ZM898.946,126.881C899.164,126.598 899.572,126.544 899.856,126.762C900.14,126.979 900.194,127.388 899.975,127.671C899.758,127.955 899.35,128.009 899.065,127.791C898.782,127.573 898.728,127.165 898.946,126.881ZM900.048,125.11C900.334,124.737 900.871,124.666 901.244,124.953C901.617,125.239 901.688,125.775 901.401,126.148C901.115,126.521 900.579,126.592 900.206,126.306C899.833,126.019 899.762,125.483 900.048,125.11ZM894.87,133.85C897.552,130.986 901.469,126.791 901.754,126.419C902.19,125.851 902.083,125.036 901.514,124.6C900.946,124.163 900.131,124.271 899.695,124.839C899.41,125.211 896.372,130.08 894.299,133.412C894.069,133.783 894.572,134.169 894.87,133.85Z" style="fill:#733c52;fill-rule:nonzero;"/>
                <path d="M895.879,127.09C895.958,126.901 896.175,126.811 896.364,126.889C896.553,126.968 896.643,127.185 896.565,127.374C896.486,127.563 896.269,127.653 896.08,127.575C895.892,127.496 895.802,127.279 895.879,127.09ZM896.233,125.511C896.37,125.18 896.75,125.023 897.081,125.159C897.411,125.296 897.569,125.677 897.432,126.007C897.295,126.338 896.915,126.495 896.584,126.358C896.253,126.222 896.096,125.841 896.233,125.511ZM896.839,123.514C897.019,123.08 897.519,122.873 897.953,123.053C898.388,123.233 898.595,123.733 898.415,124.167C898.235,124.602 897.735,124.809 897.3,124.629C896.866,124.449 896.659,123.949 896.839,123.514ZM894.099,133.296C895.948,129.836 898.646,124.77 898.826,124.337C899.1,123.675 898.785,122.916 898.123,122.642C897.461,122.368 896.702,122.682 896.428,123.344C896.248,123.777 894.574,129.266 893.435,133.021C893.308,133.439 893.894,133.682 894.099,133.296Z" style="fill:#733c52;fill-rule:nonzero;"/>
                <path d="M893.325,126.506C893.352,126.303 893.539,126.16 893.741,126.186C893.944,126.213 894.087,126.4 894.06,126.602C894.034,126.805 893.847,126.948 893.644,126.922C893.441,126.895 893.298,126.708 893.325,126.506ZM893.258,124.889C893.304,124.534 893.631,124.283 893.985,124.33C894.34,124.377 894.591,124.703 894.544,125.058C894.497,125.413 894.17,125.663 893.816,125.617C893.461,125.57 893.211,125.243 893.258,124.889ZM893.326,122.804C893.388,122.337 893.817,122.008 894.283,122.069C894.75,122.131 895.078,122.56 895.017,123.026C894.956,123.492 894.527,123.822 894.06,123.76C893.594,123.699 893.265,123.27 893.326,122.804ZM893.212,132.961C894.102,129.14 895.398,123.548 895.458,123.084C895.552,122.374 895.052,121.722 894.341,121.628C893.63,121.535 892.979,122.035 892.885,122.746C892.824,123.21 892.627,128.946 892.499,132.867C892.484,133.304 893.113,133.387 893.212,132.961Z" style="fill:#733c52;fill-rule:nonzero;"/>
            </g>
        </g>
        <g id="_51" serif:id="5">
            <circle cx="849.25" cy="179.667" r="15.75" style="fill:#fff;stroke:#fff;stroke-width:1.46px;"/>
            <g id="q25" serif:id="q2">
                <path d="M849.352,179.928C849.321,179.913 849.318,179.954 849.305,179.935L851.845,194.578C853.166,194.371 854.429,193.929 855.633,193.398C856.814,192.817 857.964,192.133 858.973,191.255L849.388,179.896C849.394,179.918 849.361,179.894 849.352,179.928Z" style="fill:#733c52;fill-rule:nonzero;"/>
                <path d="M853.386,181.711C853.342,181.802 853.288,181.887 853.243,181.977L853.175,182.111L853.089,182.235L852.925,182.486L857.839,186.129L858.234,185.544L858.426,185.247L858.596,184.938C858.706,184.731 858.821,184.525 858.922,184.313L859.196,183.664L853.501,181.432C853.461,181.524 853.422,181.617 853.386,181.711Z" style="fill:#733c52;fill-rule:nonzero;"/>
                <path d="M849.441,179.787L864.305,179.787C864.305,179.838 864.303,179.888 864.302,179.939C864.307,180.606 864.236,181.266 864.152,181.925L849.443,179.794C849.44,179.792 849.44,179.789 849.441,179.787Z" style="fill:#733c52;"/>
            </g>
            <g id="q35" serif:id="q3">
                <path d="M838.824,181.775C838.87,182.006 838.905,182.24 838.977,182.465L844.895,180.917C844.857,180.823 844.852,180.722 844.832,180.625C844.818,180.526 844.784,180.43 844.78,180.33C844.77,180.131 844.735,179.934 844.752,179.733L838.635,179.666C838.616,180.137 838.665,180.607 838.709,181.077C838.73,181.312 838.784,181.542 838.824,181.775Z" style="fill:#733c52;fill-rule:nonzero;"/>
                <path d="M849.178,179.897C849.164,179.904 849.177,179.884 849.164,179.891C849.17,179.873 849.144,179.885 849.147,179.854L835.997,186.781C836.596,187.955 837.396,189.042 838.292,190.024C838.757,190.502 839.227,190.976 839.751,191.387C840.259,191.82 840.81,192.19 841.369,192.549L849.191,179.912C849.192,179.899 849.174,179.911 849.178,179.897Z" style="fill:#733c52;fill-rule:nonzero;"/>
                <path d="M848.717,184.274L848.567,184.259L848.42,184.226C848.323,184.203 848.223,184.189 848.125,184.164C848.03,184.132 847.934,184.101 847.838,184.073L845.886,189.87L846.56,190.078C846.787,190.136 847.019,190.18 847.249,190.229L847.594,190.298L847.945,190.342L848.647,190.415L849.015,184.309L848.717,184.274Z" style="fill:#733c52;fill-rule:nonzero;"/>
            </g>
            <g id="q15" serif:id="q1">
                <path d="M856.04,171.55L852.16,176.279C852.324,176.395 852.453,176.548 852.599,176.684C852.673,176.752 852.725,176.839 852.791,176.913C852.853,176.991 852.927,177.06 852.975,177.149L857.964,173.611C857.838,173.411 857.682,173.234 857.534,173.05C857.382,172.87 857.24,172.68 857.074,172.513C856.742,172.178 856.414,171.838 856.04,171.55Z" style="fill:#733c52;fill-rule:nonzero;"/>
                <path d="M849.019,176.197L849.019,164.756C849.407,164.753 849.794,164.768 850.181,164.777C850.512,164.803 850.842,164.838 851.172,164.877C851.337,164.897 851.502,164.916 851.666,164.941L852.154,165.035C853.46,165.272 854.715,165.727 855.909,166.295L849.358,179.635C849.337,179.643 849.327,179.608 849.307,179.622C849.305,179.621 849.303,179.618 849.302,179.614C849.3,179.615 849.297,179.62 849.295,179.62C849.292,179.623 849.289,179.619 849.286,179.612C849.28,179.636 849.273,179.6 849.27,179.62L849.019,176.197Z" style="fill:#733c52;"/>
                <path d="M864.305,179.787L849.441,179.787C849.443,179.783 849.449,179.779 849.44,179.775C849.455,179.768 849.431,179.766 849.444,179.76C849.428,179.753 849.452,179.741 849.428,179.723L863.186,174.102C863.701,175.316 864.019,176.627 864.196,177.945C864.258,178.558 864.314,179.172 864.305,179.787Z" style="fill:#733c52;"/>
            </g>
            <g id="q45" serif:id="q4">
                <path d="M846.963,175.878L847.098,175.81C847.188,175.764 847.277,175.716 847.365,175.665C847.46,175.631 847.553,175.594 847.647,175.555L847.786,175.495C847.833,175.478 847.883,175.468 847.93,175.454L846.094,169.619C845.982,169.654 845.868,169.685 845.757,169.724L845.43,169.853L844.779,170.122L844.156,170.448L843.846,170.615C843.745,170.675 843.648,170.742 843.549,170.806L846.839,175.963C846.88,175.936 846.92,175.904 846.963,175.878Z" style="fill:#733c52;fill-rule:nonzero;"/>
                <path d="M849.147,179.697C849.147,179.694 849.146,179.691 849.144,179.688C849.146,179.687 849.151,179.688 849.153,179.687C849.157,179.685 849.156,179.681 849.153,179.674C849.175,179.685 849.151,179.656 849.169,179.667L838.511,169.309C838.032,169.773 837.628,170.305 837.213,170.824C837.021,171.094 836.835,171.37 836.652,171.647C836.562,171.786 836.47,171.925 836.384,172.067L836.143,172.501C835.485,173.654 835.026,174.908 834.694,176.188L849.124,179.744C849.144,179.733 849.124,179.703 849.147,179.697Z" style="fill:#733c52;fill-rule:nonzero;"/>
                <path d="M849.019,164.756L849.019,176.197L848.186,164.797C848.463,164.769 848.741,164.758 849.019,164.756Z" style="fill:#733c52;"/>
            </g>
        </g>
    </g>
    <g id="S-melisma" serif:id="S melisma" sound="Scale/C" loop="false">
        <path id="Sounder4" serif:id="Sounder" d="M1626.25,2302.55C1600.99,2346.29 1544.98,2361.3 1501.25,2336.05C1457.51,2310.8 1442.5,2254.79 1467.76,2211.05C1493.01,2167.31 1549.02,2152.3 1592.76,2177.55C1636.49,2202.8 1651.5,2258.81 1626.25,2302.55Z" style="fill:#fff;"/>
        <g id="Ring4" serif:id="Ring" opacity="0.5">
            <path d="M1626.25,2302.55C1600.99,2346.29 1544.98,2361.3 1501.25,2336.05C1457.51,2310.8 1442.5,2254.79 1467.76,2211.05C1493.01,2167.31 1549.02,2152.3 1592.76,2177.55C1636.49,2202.8 1651.5,2258.81 1626.25,2302.55Z" style="fill:none;stroke:#000;stroke-width:1.93px;"/>
            <path d="M1626.25,2302.55L1621.18,2299.63" style="fill:none;stroke:#000;stroke-width:1.93px;"/>
            <path d="M1472.82,2213.97L1467.76,2211.05" style="fill:none;stroke:#000;stroke-width:1.93px;"/>
            <path d="M1504.17,2330.98L1501.25,2336.05" style="fill:none;stroke:#000;stroke-width:1.93px;"/>
            <path d="M1592.76,2177.55L1589.83,2182.62" style="fill:none;stroke:#000;stroke-width:1.93px;"/>
            <path d="M1592.75,2336.05L1589.83,2330.98" style="fill:none;stroke:#000;stroke-width:1.93px;"/>
            <path d="M1504.17,2182.62L1501.25,2177.55" style="fill:none;stroke:#000;stroke-width:1.93px;"/>
            <path d="M1472.82,2299.63L1467.75,2302.55" style="fill:none;stroke:#000;stroke-width:1.93px;"/>
            <path d="M1626.25,2211.05L1621.18,2213.97" style="fill:none;stroke:#000;stroke-width:1.93px;"/>
            <path d="M1547,2348.31L1547,2342.46" style="fill:none;stroke:#000;stroke-width:1.93px;"/>
            <path d="M1547,2171.14L1547,2165.29" style="fill:none;stroke:#000;stroke-width:1.93px;"/>
            <path d="M1461.34,2256.8L1455.49,2256.8" style="fill:none;stroke:#000;stroke-width:1.93px;"/>
            <path d="M1638.51,2256.8L1632.66,2256.8" style="fill:none;stroke:#000;stroke-width:1.93px;"/>
        </g>
        <g id="Root-Markers" serif:id="Root Markers">
        </g>
        <g id="Notes4" serif:id="Notes">
            <path id="_117" serif:id="11" d="M1514.49,2186.1C1510.25,2193.44 1500.83,2195.97 1493.49,2191.72C1486.14,2187.48 1483.62,2178.07 1487.86,2170.72C1492.1,2163.37 1501.51,2160.85 1508.86,2165.1C1516.21,2169.34 1518.73,2178.75 1514.49,2186.1Z" style="fill:#78608c;stroke:#fff;stroke-width:4.63px;"/>
            <path id="_101" serif:id="10" d="M1481.91,2219.96C1477.66,2227.3 1468.25,2229.83 1460.91,2225.58C1453.56,2221.34 1451.04,2211.93 1455.28,2204.58C1459.52,2197.23 1468.93,2194.71 1476.28,2198.95C1483.63,2203.2 1486.15,2212.61 1481.91,2219.96Z" style="fill:#78608c;stroke:#fff;stroke-width:4.63px;"/>
            <path id="_85" serif:id="8" d="M1481.36,2311.1C1477.12,2318.45 1467.71,2320.97 1460.36,2316.72C1453.01,2312.48 1450.49,2303.07 1454.73,2295.72C1458.98,2288.38 1468.39,2285.85 1475.73,2290.1C1483.08,2294.34 1485.6,2303.75 1481.36,2311.1Z" style="fill:#78608c;stroke:#fff;stroke-width:4.63px;"/>
            <path id="_64" serif:id="6" d="M1560.31,2356.45C1556.07,2363.79 1546.66,2366.32 1539.31,2362.07C1531.97,2357.83 1529.44,2348.42 1533.69,2341.07C1537.93,2333.72 1547.34,2331.2 1554.69,2335.45C1562.04,2339.69 1564.56,2349.1 1560.31,2356.45Z" style="fill:#78608c;stroke:#fff;stroke-width:4.63px;"/>
            <path id="_52" serif:id="5" d="M1605.91,2344.29C1601.66,2351.64 1592.26,2354.16 1584.91,2349.92C1577.56,2345.67 1575.04,2336.26 1579.28,2328.92C1583.52,2321.57 1592.93,2319.05 1600.28,2323.29C1607.63,2327.53 1610.15,2336.94 1605.91,2344.29Z" style="fill:#78608c;stroke:#fff;stroke-width:4.63px;"/>
            <path id="_33" serif:id="3" d="M1651.45,2265.38C1647.21,2272.72 1637.8,2275.24 1630.45,2271C1623.11,2266.76 1620.58,2257.35 1624.83,2250C1629.07,2242.65 1638.48,2240.13 1645.83,2244.38C1653.18,2248.62 1655.7,2258.03 1651.45,2265.38Z" style="fill:#78608c;stroke:#fff;stroke-width:4.63px;"/>
            <path id="_16" serif:id="1" d="M1605.45,2187.2C1601.2,2194.55 1591.79,2197.07 1584.45,2192.82C1577.1,2188.58 1574.58,2179.17 1578.82,2171.82C1583.06,2164.47 1592.47,2161.95 1599.82,2166.2C1607.17,2170.44 1609.69,2179.85 1605.45,2187.2Z" style="fill:#78608c;stroke:#fff;stroke-width:4.63px;"/>
        </g>
        <g id="Treble-Marker" serif:id="Treble Marker">
        </g>
    </g>
</svg>
