<?xml version="1.0" encoding="UTF-8" standalone="no"?>
<!DOCTYPE svg PUBLIC "-//W3C//DTD SVG 1.1//EN" "http://www.w3.org/Graphics/SVG/1.1/DTD/svg11.dtd">
<svg width="100%" height="100%" viewBox="0 0 1701 2480" version="1.1" xmlns="http://www.w3.org/2000/svg" xmlns:xlink="http://www.w3.org/1999/xlink" xml:space="preserve" xmlns:serif="http://www.serif.com/" style="fill-rule:evenodd;clip-rule:evenodd;stroke-linecap:round;stroke-linejoin:round;stroke-miterlimit:1.5;">
    <rect id="C2B" x="0.383" y="0" width="1700" height="2480" style="fill:none;"/>
    <g id="Fields" opacity="0.2" sound="Field/08-Petals" autoplay="true">
        <path id="_11" serif:id="11" d="M496.871,894.587L10.762,416.376L10.762,10L517.776,9.905L722.405,762.641C635.876,786.499 561.2,828.837 496.871,894.587Z" style="fill:#607777;stroke:#767676;stroke-width:8.33px;"/>
    </g>
    <a href="C2B2.svg">
    <g id="S">
        <g id="Ring">
            <path id="Backer" d="M1261.82,1477C1130.93,1703.7 840.622,1781.5 613.933,1650.62C387.245,1519.75 309.468,1229.44 440.356,1002.74C571.245,776.037 861.552,698.239 1088.24,829.115C1314.93,959.991 1392.71,1250.3 1261.82,1477Z" style="fill:#fff;"/>
            <path d="M1261.82,1477C1130.93,1703.7 840.622,1781.5 613.933,1650.62C387.245,1519.75 309.468,1229.44 440.356,1002.74C571.245,776.037 861.552,698.239 1088.24,829.115C1314.93,959.991 1392.71,1250.3 1261.82,1477Z" style="fill:none;stroke:#000;stroke-width:8.33px;"/>
            <path d="M1261.82,1477L1235.56,1461.84" style="fill:none;stroke:#000;stroke-width:8.33px;"/>
            <path d="M466.614,1017.9L440.356,1002.74" style="fill:none;stroke:#000;stroke-width:8.33px;"/>
            <path d="M629.093,1624.37L613.933,1650.62" style="fill:none;stroke:#000;stroke-width:8.33px;"/>
            <path d="M1088.24,829.115L1073.08,855.372" style="fill:none;stroke:#000;stroke-width:8.33px;"/>
            <path d="M1088.23,1650.6L1073.07,1624.35" style="fill:none;stroke:#000;stroke-width:8.33px;"/>
            <path d="M629.103,855.389L613.943,829.132" style="fill:none;stroke:#000;stroke-width:8.33px;"/>
            <path d="M466.584,1461.86L440.327,1477.02" style="fill:none;stroke:#000;stroke-width:8.33px;"/>
            <path d="M1261.85,1002.72L1235.59,1017.88" style="fill:none;stroke:#000;stroke-width:8.33px;"/>
            <path d="M851.087,1714.16L851.087,1683.85" style="fill:none;stroke:#000;stroke-width:8.33px;"/>
            <path d="M851.087,795.892L851.087,765.573" style="fill:none;stroke:#000;stroke-width:8.33px;"/>
            <path d="M407.119,1239.87L376.8,1239.87" style="fill:none;stroke:#000;stroke-width:8.33px;"/>
            <path d="M1325.37,1239.87L1295.05,1239.87" style="fill:none;stroke:#000;stroke-width:8.33px;"/>
        </g>
        <g id="Root-Markers" serif:id="Root Markers">
            <path id="_8" serif:id="8" d="M532.628,1423.16L601.801,1341.31L638.101,1404.18L532.628,1423.16ZM581.623,1394.87L607.873,1390.15L598.839,1374.5L581.623,1394.87Z" style="fill:#587f6f;"/>
        </g>
        <g id="Notes">
            <path id="_10" serif:id="10" sound="Font/1-Mid-Bb" d="M513.706,1048.9C491.716,1086.99 442.942,1100.06 404.856,1078.07C366.769,1056.08 353.7,1007.31 375.69,969.221C397.679,931.136 446.453,918.067 484.539,940.056C522.626,962.045 535.695,1010.82 513.706,1048.9Z" style="fill:#587f6f;stroke:#fff;stroke-width:24px;"/>
            <path id="_81" serif:id="8" sound="Font/1-Low-Ab" d="M510.875,1521.29C488.886,1559.38 440.112,1572.45 402.026,1550.46C363.939,1528.47 350.87,1479.7 372.859,1441.61C394.849,1403.53 443.623,1390.46 481.709,1412.44C519.796,1434.43 532.865,1483.21 510.875,1521.29Z" style="fill:#587f6f;stroke:#fff;stroke-width:24px;"/>
        </g>
        <g id="Treble-Marker" serif:id="Treble Marker">
            <g id="_111" serif:id="11" sound="Font/1-High-B">
                <path id="_112" serif:id="11" d="M682.57,873.402C660.581,911.488 611.807,924.556 573.72,902.568C535.634,880.579 522.565,831.806 544.554,793.72C566.543,755.634 615.317,742.566 653.404,764.554C691.49,786.543 704.559,835.316 682.57,873.402Z" style="fill:#fff;stroke:#fff;stroke-width:33.33px;"/>
                <circle id="_11a" serif:id="11a" cx="613.562" cy="833.561" r="64" style="fill:#fff;stroke:#587f6f;stroke-width:16.67px;"/>
            </g>
        </g>
    </g>
    </a>
    <g id="Songs">
        <g id="song-8-petals" serif:id="song 8 petals">
            <g id="C2B2" sound="Song/08-Petals-C2B2">
                <path d="M260.681,319.999C280.077,320.104 299.489,312.628 314.066,297.638L339.823,271.151C353.19,257.406 360.128,239.773 360.689,221.993L260.021,222.174L260.681,319.999Z" style="fill:#488e61;stroke:#fff;stroke-width:1.67px;"/>
                <path d="M360.689,221.993C361.321,201.955 353.855,181.729 338.364,166.665L311.878,140.908C297.259,126.693 278.246,119.748 259.332,120.012L260.021,222.174L360.689,221.993Z" style="fill:#488e61;stroke:#fff;stroke-width:1.67px;"/>
                <path d="M359.726,222.174L260.726,222.352" style="fill:none;stroke:#488e61;stroke-width:4.17px;stroke-linecap:butt;"/>
                <g id="q4">
                    <path d="M267.823,163.188C266.673,163.037 265.616,163.849 265.464,164.997C265.313,166.146 266.124,167.203 267.275,167.355C268.421,167.506 269.478,166.694 269.629,165.546C269.78,164.397 268.969,163.339 267.823,163.188ZM272.371,156.794C272.635,154.784 271.215,152.934 269.208,152.669C267.197,152.405 265.346,153.825 265.081,155.835C264.817,157.845 266.237,159.695 268.248,159.96C270.255,160.224 272.106,158.804 272.371,156.794ZM270.894,139.858C268.251,139.51 265.819,141.377 265.471,144.018C265.123,146.66 266.99,149.093 269.633,149.441C272.272,149.788 274.705,147.922 275.053,145.28C275.4,142.638 273.534,140.206 270.894,139.858ZM260.781,201.046C261.511,178.824 262.624,146.32 262.97,143.689C263.501,139.663 267.198,136.828 271.224,137.358C275.25,137.888 278.083,141.583 277.553,145.609C277.207,148.239 269.869,179.924 264.823,201.578C264.261,203.989 260.7,203.52 260.781,201.046Z" style="fill:#e7e7e7;fill-rule:nonzero;"/>
                    <path d="M291.69,145.43C289.23,144.411 286.395,145.584 285.378,148.046C284.357,150.508 285.532,153.34 287.991,154.36C290.455,155.38 293.286,154.206 294.307,151.745C295.324,149.283 294.153,146.451 291.69,145.43ZM281.943,159.359C281.165,161.231 282.06,163.387 283.933,164.162C285.806,164.938 287.961,164.046 288.734,162.173C289.512,160.3 288.617,158.145 286.744,157.368C284.871,156.593 282.716,157.485 281.943,159.359ZM279.943,168.308C279.499,169.379 280.009,170.61 281.079,171.054C282.15,171.497 283.379,170.987 283.823,169.916C284.266,168.846 283.756,167.615 282.686,167.171C281.616,166.728 280.382,167.238 279.943,168.308ZM269.856,203.477C268.688,205.661 265.367,204.286 266.086,201.916C272.543,180.641 282.033,149.533 283.048,147.081C284.601,143.329 288.902,141.547 292.656,143.101C296.406,144.655 298.189,148.957 296.636,152.71C295.621,155.161 280.334,183.867 269.856,203.477Z" style="fill:#e7e7e7;fill-rule:nonzero;"/>
                    <path d="M310.336,156.196C308.222,154.574 305.186,154.975 303.563,157.089C301.94,159.203 302.341,162.242 304.455,163.864C306.569,165.486 309.606,165.086 311.229,162.972C312.851,160.858 312.451,157.818 310.336,156.196ZM297.315,167.126C296.083,168.735 296.388,171.048 297.994,172.281C299.603,173.516 301.917,173.212 303.15,171.603C304.383,169.994 304.081,167.682 302.472,166.447C300.862,165.213 298.552,165.518 297.315,167.126ZM293.067,175.253C292.361,176.172 292.535,177.494 293.455,178.199C294.375,178.905 295.696,178.73 296.398,177.811C297.105,176.892 296.93,175.571 296.01,174.865C295.095,174.16 293.773,174.334 293.067,175.253ZM274.223,206.613C272.529,208.42 269.68,206.233 270.986,204.13C282.729,185.251 299.948,157.659 301.561,155.554C304.035,152.332 308.651,151.724 311.874,154.197C315.096,156.669 315.704,161.285 313.23,164.507C311.617,166.612 289.419,190.383 274.223,206.613Z" style="fill:#e7e7e7;fill-rule:nonzero;"/>
                    <path d="M325.562,171.421C323.939,169.307 320.9,168.907 318.786,170.53C316.672,172.151 316.272,175.191 317.894,177.305C319.517,179.419 322.555,179.819 324.67,178.197C326.784,176.575 327.184,173.535 325.562,171.421ZM315.314,179.288C314.077,177.679 311.764,177.375 310.158,178.609C308.547,179.843 308.243,182.155 309.479,183.764C310.711,185.372 313.024,185.677 314.635,184.443C316.242,183.208 316.546,180.896 315.314,179.288ZM306.894,185.747C306.189,184.828 304.868,184.654 303.949,185.359C303.03,186.064 302.856,187.386 303.561,188.305C304.266,189.224 305.588,189.398 306.506,188.693C307.425,187.987 307.599,186.666 306.894,185.747ZM277.63,210.772C275.524,212.08 273.339,209.23 275.147,207.537C291.377,192.341 315.148,170.144 317.253,168.529C320.475,166.057 325.092,166.665 327.565,169.887C330.037,173.109 329.429,177.725 326.207,180.197C324.102,181.813 296.51,199.029 277.63,210.772Z" style="fill:#e7e7e7;fill-rule:nonzero;"/>
                    <path d="M336.328,190.068C335.307,187.606 332.478,186.433 330.016,187.453C327.554,188.473 326.38,191.305 327.4,193.767C328.421,196.229 331.25,197.402 333.712,196.382C336.174,195.362 337.348,192.53 336.328,190.068ZM324.39,195.013C323.615,193.14 321.459,192.247 319.585,193.023C317.715,193.799 316.821,195.954 317.595,197.827C318.374,199.7 320.526,200.593 322.4,199.817C324.274,199.041 325.168,196.886 324.39,195.013ZM314.589,199.074C314.144,198.003 312.913,197.493 311.842,197.936C310.771,198.379 310.264,199.611 310.704,200.681C311.149,201.752 312.38,202.262 313.451,201.818C314.522,201.375 315.033,200.144 314.589,199.074ZM334.679,198.712C332.226,199.727 301.12,209.215 279.845,215.672C277.472,216.391 276.099,213.072 278.282,211.905C297.891,201.426 326.599,186.139 329.049,185.123C332.801,183.569 337.102,185.351 338.658,189.104C340.21,192.855 338.428,197.157 334.679,198.712Z" style="fill:#e7e7e7;fill-rule:nonzero;"/>
                    <path d="M341.902,210.866C341.552,208.224 339.121,206.358 336.478,206.705C333.839,207.053 331.97,209.485 332.32,212.127C332.665,214.769 335.1,216.635 337.739,216.287C340.383,215.94 342.247,213.508 341.902,210.866ZM329.089,212.552C328.827,210.542 326.976,209.123 324.966,209.387C322.956,209.652 321.534,211.502 321.8,213.513C322.063,215.522 323.913,216.942 325.924,216.678C327.934,216.413 329.356,214.562 329.089,212.552ZM318.57,213.937C318.418,212.788 317.363,211.977 316.215,212.129C315.066,212.28 314.254,213.337 314.406,214.486C314.554,215.634 315.613,216.446 316.762,216.295C317.91,216.143 318.722,215.086 318.57,213.937ZM338.07,218.787C335.439,219.134 302.933,220.247 280.715,220.978C278.239,221.059 277.77,217.497 280.18,216.935C301.834,211.889 333.52,204.552 336.151,204.206C340.176,203.675 343.869,206.51 344.402,210.537C344.93,214.563 342.095,218.257 338.07,218.787Z" style="fill:#e7e7e7;fill-rule:nonzero;"/>
                </g>
                <g id="q3">
                    <path d="M341.901,232.397C342.249,229.755 340.382,227.323 337.739,226.975C335.1,226.628 332.667,228.494 332.32,231.136C331.972,233.778 333.838,236.21 336.478,236.557C339.121,236.905 341.553,235.039 341.901,232.397ZM325.926,226.585C323.915,226.321 322.064,227.741 321.8,229.751C321.535,231.761 322.955,233.612 324.966,233.877C326.973,234.141 328.824,232.721 329.089,230.71C329.354,228.7 327.933,226.85 325.926,226.585ZM316.763,226.968C315.613,226.817 314.556,227.629 314.404,228.777C314.253,229.925 315.064,230.983 316.215,231.134C317.361,231.285 318.418,230.474 318.569,229.325C318.72,228.177 317.909,227.119 316.763,226.968ZM280.18,226.328C277.769,225.766 278.238,222.204 280.713,222.285C302.934,223.016 335.437,224.129 338.068,224.475C342.098,225.006 344.932,228.7 344.402,232.726C343.872,236.753 340.179,239.588 336.148,239.057C333.518,238.711 301.833,231.374 280.18,226.328Z" style="fill:#e7e7e7;fill-rule:nonzero;"/>
                    <path d="M336.329,253.195C337.346,250.733 336.175,247.901 333.712,246.881C331.252,245.861 328.417,247.034 327.4,249.496C326.379,251.958 327.554,254.791 330.013,255.81C332.477,256.83 335.308,255.656 336.329,253.195ZM322.399,243.446C320.526,242.67 318.371,243.562 317.598,245.436C316.82,247.309 317.715,249.464 319.588,250.24C321.461,251.016 323.616,250.124 324.39,248.25C325.167,246.377 324.273,244.222 322.399,243.446ZM313.451,241.444C312.38,241.001 311.147,241.511 310.707,242.582C310.263,243.652 310.774,244.884 311.844,245.327C312.914,245.77 314.143,245.26 314.587,244.19C315.031,243.119 314.521,241.888 313.451,241.444ZM278.281,231.358C276.099,230.192 277.474,226.872 279.844,227.591C301.116,234.048 332.227,243.536 334.678,244.552C338.428,246.106 340.211,250.408 338.659,254.16C337.102,257.912 332.801,259.694 329.051,258.14C326.599,257.124 297.891,241.836 278.281,231.358Z" style="fill:#e7e7e7;fill-rule:nonzero;"/>
                    <path d="M303.947,257.904C304.867,258.609 306.188,258.435 306.894,257.517C307.601,256.597 307.426,255.276 306.506,254.57C305.587,253.865 304.265,254.039 303.559,254.958C302.857,255.878 303.027,257.199 303.947,257.904ZM310.154,264.654C311.764,265.888 314.078,265.584 315.31,263.975C316.547,262.367 316.242,260.054 314.632,258.82C313.023,257.586 310.713,257.89 309.476,259.499C308.243,261.107 308.549,263.42 310.154,264.654ZM318.788,272.734C320.903,274.356 323.939,273.955 325.562,271.841C327.185,269.727 326.784,266.688 324.67,265.066C322.555,263.444 319.519,263.844 317.896,265.958C316.273,268.072 316.674,271.111 318.788,272.734ZM277.63,232.491C296.509,244.234 324.1,261.45 326.207,263.066C329.425,265.538 330.034,270.154 327.564,273.377C325.089,276.599 320.474,277.206 317.251,274.734C315.148,273.119 291.375,250.922 275.146,235.726C273.34,234.033 275.524,231.183 277.63,232.491Z" style="fill:#e7e7e7;fill-rule:nonzero;"/>
                    <path d="M293.068,268.01C293.773,268.929 295.094,269.103 296.013,268.397C296.932,267.692 297.106,266.371 296.401,265.452C295.696,264.533 294.374,264.359 293.456,265.064C292.537,265.769 292.363,267.091 293.068,268.01ZM297.318,276.137C298.55,277.745 300.863,278.049 302.474,276.816C304.08,275.581 304.385,273.269 303.153,271.66C301.916,270.052 299.603,269.747 297.997,270.981C296.386,272.216 296.081,274.528 297.318,276.137ZM303.561,286.175C305.184,288.288 308.223,288.688 310.337,287.067C312.451,285.444 312.851,282.405 311.229,280.291C309.606,278.177 306.568,277.777 304.453,279.399C302.339,281.021 301.939,284.06 303.561,286.175ZM274.223,236.651C289.42,252.88 311.617,276.651 313.232,278.756C315.704,281.979 315.096,286.594 311.874,289.067C308.652,291.539 304.035,290.932 301.562,287.71C299.947,285.604 282.732,258.012 270.988,239.133C269.679,237.03 272.528,234.843 274.223,236.651Z" style="fill:#e7e7e7;fill-rule:nonzero;"/>
                    <path d="M279.941,274.955C280.385,276.025 281.617,276.535 282.684,276.091C283.754,275.648 284.265,274.417 283.821,273.346C283.381,272.276 282.149,271.766 281.078,272.21C280.007,272.653 279.497,273.884 279.941,274.955ZM281.941,283.905C282.72,285.778 284.872,286.67 286.746,285.894C288.62,285.118 289.51,282.963 288.736,281.09C287.961,279.217 285.805,278.325 283.931,279.1C282.061,279.876 281.167,282.032 281.941,283.905ZM285.378,295.217C286.398,297.679 289.227,298.852 291.69,297.832C294.152,296.812 295.326,293.98 294.305,291.518C293.285,289.056 290.456,287.883 287.993,288.903C285.531,289.923 284.357,292.755 285.378,295.217ZM269.856,239.786C280.333,259.396 295.622,288.102 296.636,290.554C298.192,294.306 296.41,298.607 292.657,300.162C288.904,301.716 284.603,299.934 283.047,296.182C282.034,293.731 272.543,262.622 266.086,241.346C265.369,238.978 268.687,237.602 269.856,239.786Z" style="fill:#e7e7e7;fill-rule:nonzero;"/>
                    <path d="M265.466,278.266C265.614,279.414 266.673,280.226 267.822,280.075C268.971,279.923 269.782,278.866 269.63,277.717C269.479,276.568 268.423,275.757 267.275,275.909C266.126,276.06 265.315,277.117 265.466,278.266ZM265.082,287.428C265.344,289.439 267.195,290.859 269.205,290.594C271.215,290.329 272.637,288.479 272.371,286.468C272.108,284.459 270.258,283.039 268.248,283.303C266.237,283.568 264.815,285.418 265.082,287.428ZM265.472,299.245C265.818,301.886 268.253,303.753 270.892,303.405C273.535,303.057 275.399,300.625 275.054,297.983C274.705,295.341 272.274,293.475 269.631,293.823C266.991,294.171 265.123,296.603 265.472,299.245ZM264.825,241.685C269.872,263.339 277.208,295.023 277.554,297.654C278.082,301.68 275.247,305.374 271.223,305.905C267.194,306.435 263.501,303.6 262.972,299.574C262.626,296.943 261.51,264.439 260.78,242.217C260.699,239.743 264.263,239.274 264.825,241.685Z" style="fill:#e7e7e7;fill-rule:nonzero;"/>
                </g>
            </g>
            <g id="C2B1" serif:id="C2B" sound="Song/08-Petals-C2B" autoplay="true">
                <path d="M258.984,120.005C240.071,120.269 221.259,127.742 207.043,142.36L181.286,168.846C166.832,183.71 159.895,203.119 160.41,222.345L259.673,222.166L258.984,120.005Z" style="fill:#587f6f;stroke:#fff;stroke-width:1.67px;"/>
                <path d="M160.41,222.345C160.907,240.936 168.373,259.356 182.745,273.333L209.231,299.09C223.478,312.943 241.898,319.891 260.332,319.992L259.673,222.166L160.41,222.345Z" style="fill:#587f6f;stroke:#fff;stroke-width:1.67px;"/>
                <path d="M258.878,222.345L161.278,222.345" style="fill:none;stroke:#587f6f;stroke-width:4.17px;stroke-linecap:butt;"/>
                <g id="q2">
                    <path d="M252.435,280.074C253.581,280.225 254.638,279.414 254.789,278.266C254.94,277.116 254.129,276.059 252.983,275.908C251.833,275.757 250.776,276.568 250.625,277.717C250.473,278.865 251.284,279.923 252.435,280.074ZM247.883,286.469C247.618,288.479 249.039,290.329 251.05,290.594C253.057,290.858 254.908,289.438 255.172,287.428C255.437,285.418 254.017,283.568 252.01,283.303C249.999,283.039 248.148,284.459 247.883,286.469ZM249.363,303.405C252.002,303.753 254.435,301.886 254.783,299.245C255.13,296.603 253.264,294.17 250.625,293.823C247.981,293.475 245.549,295.341 245.201,297.983C244.853,300.625 246.72,303.057 249.363,303.405ZM259.473,242.217C258.742,264.439 257.629,296.943 257.283,299.574C256.753,303.6 253.06,306.435 249.034,305.905C245.008,305.375 242.17,301.681 242.701,297.654C243.047,295.023 250.385,263.339 255.431,241.685C255.993,239.273 259.554,239.742 259.473,242.217Z" style="fill:#e7e7e7;fill-rule:nonzero;"/>
                    <path d="M228.564,297.832C231.027,298.852 233.858,297.679 234.88,295.217C235.897,292.755 234.726,289.923 232.262,288.903C229.799,287.883 226.968,289.057 225.951,291.519C224.93,293.98 226.1,296.812 228.564,297.832ZM238.311,283.904C239.089,282.031 238.198,279.876 236.325,279.1C234.452,278.325 232.297,279.218 231.519,281.09C230.741,282.963 231.636,285.118 233.509,285.894C235.382,286.67 237.537,285.778 238.311,283.904ZM240.315,274.954C240.759,273.884 240.249,272.653 239.178,272.21C238.108,271.766 236.875,272.276 236.431,273.346C235.987,274.417 236.497,275.648 237.568,276.092C238.638,276.535 239.871,276.025 240.315,274.954ZM250.402,239.786C251.569,237.602 254.886,238.977 254.168,241.347C247.711,262.622 238.225,293.731 237.209,296.182C235.653,299.934 231.352,301.716 227.597,300.161C223.847,298.607 222.065,294.305 223.621,290.554C224.633,288.102 239.923,259.396 250.402,239.786Z" style="fill:#e7e7e7;fill-rule:nonzero;"/>
                    <path d="M209.917,287.066C212.032,288.689 215.072,288.289 216.695,286.175C218.314,284.06 217.917,281.021 215.803,279.399C213.688,277.777 210.648,278.177 209.025,280.291C207.402,282.405 207.803,285.444 209.917,287.066ZM222.938,276.137C224.175,274.528 223.869,272.215 222.26,270.981C220.65,269.747 218.34,270.051 217.104,271.66C215.871,273.268 216.177,275.581 217.782,276.815C219.391,278.049 221.705,277.745 222.938,276.137ZM227.191,268.01C227.893,267.09 227.718,265.769 226.803,265.064C225.883,264.359 224.561,264.532 223.855,265.452C223.149,266.371 223.324,267.692 224.243,268.398C225.163,269.103 226.485,268.929 227.191,268.01ZM246.034,236.65C247.725,234.843 250.578,237.03 249.268,239.132C237.525,258.011 220.31,285.604 218.692,287.709C216.222,290.932 211.607,291.539 208.384,289.067C205.162,286.594 204.553,281.978 207.023,278.756C208.641,276.651 230.838,252.88 246.034,236.65Z" style="fill:#e7e7e7;fill-rule:nonzero;"/>
                    <path d="M194.692,271.842C196.314,273.955 199.353,274.355 201.467,272.734C203.581,271.111 203.982,268.072 202.359,265.958C200.737,263.844 197.698,263.444 195.584,265.066C193.47,266.688 193.07,269.728 194.692,271.842ZM204.944,263.976C206.177,265.584 208.489,265.888 210.1,264.654C211.707,263.42 212.011,261.107 210.779,259.499C209.542,257.89 207.229,257.586 205.623,258.82C204.012,260.054 203.708,262.367 204.944,263.976ZM213.36,257.516C214.068,258.436 215.39,258.61 216.309,257.904C217.227,257.199 217.401,255.877 216.696,254.958C215.992,254.039 214.67,253.865 213.747,254.57C212.829,255.275 212.655,256.597 213.36,257.516ZM242.627,232.491C244.729,231.183 246.914,234.033 245.11,235.726C228.88,250.922 205.11,273.119 203.005,274.734C199.783,277.206 195.165,276.599 192.693,273.377C190.221,270.154 190.828,265.538 194.051,263.066C196.155,261.45 223.748,244.234 242.627,232.491Z" style="fill:#e7e7e7;fill-rule:nonzero;"/>
                    <path d="M183.926,253.195C184.946,255.657 187.78,256.83 190.242,255.81C192.704,254.791 193.874,251.958 192.857,249.497C191.837,247.035 189.004,245.861 186.541,246.881C184.079,247.901 182.905,250.733 183.926,253.195ZM195.864,248.25C196.642,250.124 198.795,251.016 200.669,250.24C202.543,249.464 203.433,247.308 202.658,245.436C201.884,243.563 199.728,242.67 197.854,243.446C195.984,244.222 195.09,246.377 195.864,248.25ZM205.669,244.19C206.109,245.26 207.341,245.77 208.412,245.327C209.483,244.884 209.993,243.652 209.549,242.581C209.105,241.511 207.873,241.001 206.807,241.445C205.736,241.888 205.225,243.119 205.669,244.19ZM185.578,244.552C188.027,243.536 219.138,234.048 240.413,227.591C242.782,226.872 244.158,230.191 241.971,231.358C222.362,241.836 193.658,257.124 191.205,258.14C187.452,259.693 183.151,257.912 181.599,254.16C180.043,250.408 181.826,246.106 185.578,244.552Z" style="fill:#e7e7e7;fill-rule:nonzero;"/>
                    <path d="M178.356,232.397C178.701,235.039 181.132,236.905 183.776,236.557C186.419,236.21 188.283,233.777 187.938,231.136C187.589,228.494 185.158,226.628 182.514,226.975C179.871,227.323 178.007,229.755 178.356,232.397ZM191.164,230.711C191.431,232.721 193.281,234.141 195.291,233.876C197.302,233.612 198.72,231.761 198.457,229.751C198.191,227.74 196.34,226.32 194.33,226.585C192.32,226.85 190.902,228.701 191.164,230.711ZM201.684,229.326C201.835,230.474 202.895,231.286 204.043,231.134C205.192,230.983 206.003,229.926 205.852,228.777C205.7,227.629 204.641,226.817 203.492,226.968C202.343,227.119 201.532,228.177 201.684,229.326ZM182.184,224.475C184.814,224.129 217.321,223.016 239.543,222.285C242.015,222.204 242.488,225.767 240.073,226.328C218.42,231.374 186.737,238.711 184.106,239.057C180.078,239.587 176.384,236.753 175.856,232.727C175.324,228.7 178.159,225.006 182.184,224.475Z" style="fill:#e7e7e7;fill-rule:nonzero;"/>
                </g>
                <g id="q1">
                    <path d="M182.514,216.288C185.158,216.636 187.59,214.77 187.938,212.128C188.286,209.486 186.419,207.053 183.776,206.705C181.133,206.357 178.7,208.224 178.352,210.866C178.005,213.508 179.871,215.94 182.514,216.288ZM194.331,216.678C196.342,216.943 198.189,215.522 198.454,213.512C198.719,211.502 197.302,209.652 195.291,209.387C193.28,209.122 191.429,210.542 191.165,212.552C190.9,214.562 192.32,216.414 194.331,216.678ZM203.495,216.294C204.641,216.445 205.698,215.634 205.849,214.486C206,213.337 205.189,212.279 204.043,212.129C202.893,211.977 201.836,212.789 201.684,213.937C201.533,215.086 202.344,216.143 203.495,216.294ZM184.105,204.206C186.736,204.552 218.42,211.889 240.073,216.935C242.485,217.497 242.016,221.059 239.541,220.977C217.32,220.247 184.816,219.134 182.185,218.787C178.159,218.257 175.326,214.563 175.856,210.537C176.386,206.51 180.079,203.676 184.105,204.206Z" style="fill:#e7e7e7;fill-rule:nonzero;"/>
                    <path d="M183.929,190.068C182.908,192.53 184.078,195.362 186.542,196.382C189.005,197.402 191.836,196.229 192.858,193.767C193.875,191.305 192.704,188.472 190.24,187.453C187.777,186.433 184.946,187.606 183.929,190.068ZM197.854,199.817C199.727,200.593 201.882,199.7 202.66,197.827C203.434,195.954 202.543,193.799 200.67,193.023C198.797,192.247 196.642,193.14 195.864,195.013C195.09,196.886 195.981,199.041 197.854,199.817ZM206.803,201.818C207.873,202.261 209.107,201.751 209.55,200.682C209.994,199.611 209.484,198.38 208.414,197.936C207.343,197.493 206.11,198.003 205.666,199.073C205.223,200.143 205.733,201.375 206.803,201.818ZM241.972,211.905C244.159,213.072 242.78,216.391 240.414,215.672C219.137,209.215 188.027,199.727 185.575,198.711C181.825,197.157 180.043,192.855 181.599,189.104C183.151,185.351 187.453,183.569 191.207,185.124C193.659,186.139 222.362,201.427 241.972,211.905Z" style="fill:#e7e7e7;fill-rule:nonzero;"/>
                    <path d="M216.307,185.359C215.387,184.653 214.065,184.827 213.363,185.747C212.657,186.666 212.832,187.988 213.751,188.693C214.667,189.398 215.989,189.224 216.695,188.304C217.401,187.386 217.226,186.064 216.307,185.359ZM210.099,178.609C208.49,177.374 206.18,177.68 204.943,179.287C203.711,180.896 204.016,183.209 205.621,184.443C207.231,185.677 209.545,185.373 210.778,183.764C212.01,182.155 211.709,179.843 210.099,178.609ZM201.469,170.529C199.355,168.907 196.314,169.307 194.691,171.421C193.069,173.535 193.469,176.575 195.584,178.197C197.698,179.819 200.739,179.419 202.362,177.305C203.98,175.191 203.584,172.152 201.469,170.529ZM242.627,210.772C223.749,199.029 196.154,181.812 194.051,180.198C190.828,177.725 190.22,173.109 192.694,169.887C195.164,166.664 199.78,166.057 203.002,168.529C205.109,170.145 228.878,192.341 245.107,207.537C246.918,209.23 244.729,212.08 242.627,210.772Z" style="fill:#e7e7e7;fill-rule:nonzero;"/>
                    <path d="M227.19,175.253C226.485,174.334 225.163,174.16 224.241,174.865C223.322,175.57 223.148,176.892 223.853,177.811C224.562,178.731 225.883,178.905 226.802,178.199C227.721,177.494 227.895,176.172 227.19,175.253ZM222.94,167.126C221.703,165.518 219.391,165.213 217.784,166.448C216.173,167.682 215.869,169.994 217.105,171.603C218.338,173.211 220.65,173.516 222.261,172.282C223.868,171.047 224.172,168.735 222.94,167.126ZM216.692,157.089C215.07,154.974 212.031,154.574 209.917,156.197C207.803,157.818 207.403,160.858 209.025,162.972C210.647,165.086 213.686,165.486 215.8,163.864C217.914,162.242 218.315,159.202 216.692,157.089ZM246.034,206.613C230.837,190.383 208.641,166.612 207.026,164.507C204.554,161.285 205.161,156.669 208.383,154.196C211.605,151.724 216.223,152.332 218.695,155.554C220.31,157.659 237.526,185.251 249.27,204.131C250.574,206.233 247.726,208.42 246.034,206.613Z" style="fill:#e7e7e7;fill-rule:nonzero;"/>
                    <path d="M240.317,168.309C239.873,167.238 238.641,166.728 237.57,167.171C236.499,167.615 235.988,168.846 236.433,169.917C236.877,170.987 238.109,171.497 239.179,171.054C240.246,170.61 240.757,169.379 240.317,168.309ZM238.312,159.358C237.538,157.485 235.381,156.593 233.507,157.368C231.637,158.144 230.744,160.3 231.518,162.172C232.296,164.046 234.449,164.938 236.323,164.162C238.197,163.387 239.091,161.232 238.312,159.358ZM234.88,148.046C233.86,145.584 231.026,144.411 228.564,145.431C226.102,146.45 224.928,149.283 225.948,151.745C226.969,154.207 229.802,155.38 232.264,154.36C234.727,153.341 235.896,150.508 234.88,148.046ZM250.402,203.477C239.924,183.867 224.635,155.161 223.618,152.709C222.066,148.958 223.848,144.656 227.601,143.102C231.353,141.548 235.655,143.329 237.206,147.081C238.224,149.533 247.711,180.641 254.168,201.916C254.889,204.286 251.567,205.66 250.402,203.477Z" style="fill:#e7e7e7;fill-rule:nonzero;"/>
                    <path d="M254.791,164.997C254.64,163.849 253.58,163.037 252.432,163.188C251.283,163.339 250.472,164.397 250.623,165.546C250.775,166.694 251.834,167.506 252.983,167.355C254.132,167.203 254.943,166.146 254.791,164.997ZM255.172,155.834C254.909,153.825 253.059,152.405 251.049,152.669C249.039,152.934 247.616,154.784 247.883,156.795C248.149,158.804 250,160.225 252.01,159.96C254.02,159.695 255.438,157.844 255.172,155.834ZM254.785,144.019C254.436,141.377 252.005,139.51 249.362,139.858C246.718,140.206 244.854,142.638 245.203,145.28C245.549,147.922 247.98,149.788 250.623,149.44C253.267,149.093 255.131,146.66 254.785,144.019ZM255.432,201.578C250.386,179.924 243.046,148.24 242.704,145.609C242.171,141.582 245.006,137.889 249.031,137.358C253.06,136.828 256.753,139.663 257.285,143.69C257.632,146.32 258.743,178.824 259.474,201.046C259.554,203.52 255.995,203.99 255.432,201.578Z" style="fill:#e7e7e7;fill-rule:nonzero;"/>
                </g>
            </g>
        </g>
    </g>
    <g id="Map" sound="Map/C" loop="false" autoplay="true">
        <g id="Frame">
            <rect x="1471.88" y="41.542" width="190" height="190" style="fill:#fff;"/>
            <rect x="1471.88" y="41.542" width="190" height="190" style="fill:none;stroke:#000;stroke-width:1.17px;stroke-linejoin:bevel;"/>
            <rect x="1523.76" y="93.417" width="86.25" height="86.25" style="fill:none;stroke:#000;stroke-width:1.25px;stroke-linejoin:bevel;"/>
            <path d="M1610.01,93.417L1661.88,41.75" style="fill:none;stroke:#000;stroke-width:1.25px;stroke-linejoin:bevel;"/>
            <path d="M1523.76,93.417L1472.3,41.75" style="fill:none;stroke:#000;stroke-width:1.25px;stroke-linejoin:bevel;"/>
            <path d="M1523.76,179.667L1471.88,231.542" style="fill:none;stroke:#000;stroke-width:1.25px;stroke-linejoin:bevel;"/>
            <path d="M1610.01,179.667L1661.88,231.542" style="fill:none;stroke:#000;stroke-width:1.25px;stroke-linejoin:bevel;"/>
        </g>
        <g id="Dots">
            <circle cx="1471.88" cy="231.5" r="1.5" style="stroke:#000;stroke-width:1.25px;stroke-linejoin:bevel;"/>
            <circle cx="1566.58" cy="231.625" r="1.5" style="stroke:#000;stroke-width:1.25px;stroke-linejoin:bevel;"/>
            <circle cx="1661.88" cy="231.5" r="1.5" style="stroke:#000;stroke-width:1.25px;stroke-linejoin:bevel;"/>
            <circle cx="1634.23" cy="203.667" r="1.5" style="stroke:#000;stroke-width:1.25px;stroke-linejoin:bevel;"/>
            <circle cx="1610.01" cy="179.5" r="1.5" style="stroke:#000;stroke-width:1.25px;stroke-linejoin:bevel;"/>
            <circle cx="1609.58" cy="136.625" r="1.5" style="stroke:#000;stroke-width:1.25px;stroke-linejoin:bevel;"/>
            <circle cx="1609.7" cy="93.375" r="1.5" style="stroke:#000;stroke-width:1.25px;stroke-linejoin:bevel;"/>
            <circle cx="1634.14" cy="69.167" r="1.5" style="stroke:#000;stroke-width:1.25px;stroke-linejoin:bevel;"/>
            <circle cx="1566.58" cy="93.375" r="1.5" style="stroke:#000;stroke-width:1.25px;stroke-linejoin:bevel;"/>
            <circle cx="1523.45" cy="93.5" r="1.5" style="stroke:#000;stroke-width:1.25px;stroke-linejoin:bevel;"/>
            <circle cx="1566.88" cy="41.5" r="1.5" style="stroke:#000;stroke-width:1.25px;stroke-linejoin:bevel;"/>
            <circle cx="1471.88" cy="41.542" r="1.5" style="stroke:#000;stroke-width:1.25px;stroke-linejoin:bevel;"/>
            <circle cx="1499.73" cy="69.5" r="1.5" style="stroke:#000;stroke-width:1.25px;stroke-linejoin:bevel;"/>
            <circle cx="1471.88" cy="136.542" r="1.5" style="stroke:#000;stroke-width:1.25px;stroke-linejoin:bevel;"/>
            <circle cx="1523.76" cy="136.542" r="1.5" style="stroke:#000;stroke-width:1.25px;stroke-linejoin:bevel;"/>
            <circle cx="1566.38" cy="179.667" r="1.5" style="stroke:#000;stroke-width:1.25px;stroke-linejoin:bevel;"/>
            <circle cx="1523.73" cy="179.5" r="1.5" style="stroke:#000;stroke-width:1.25px;stroke-linejoin:bevel;"/>
            <circle cx="1499.53" cy="204" r="1.5" style="stroke:#000;stroke-width:1.25px;stroke-linejoin:bevel;"/>
            <circle cx="1661.88" cy="136.542" r="1.5" style="stroke:#000;stroke-width:1.25px;stroke-linejoin:bevel;"/>
            <circle cx="1661.88" cy="41.65" r="1.5" style="stroke:#000;stroke-width:1.25px;stroke-linejoin:bevel;"/>
        </g>
        <g>
            <path d="M1610.13,136.542L1609.61,93.417" style="fill:none;stroke:#488e61;stroke-width:5.99px;"/>
        </g>
        <path d="M1610.61,179.443L1609.77,134.641" style="fill:none;stroke:#78608c;stroke-width:5.83px;"/>
        <g id="_82" serif:id="8">
            <circle cx="1609.77" cy="136.75" r="15.75" style="fill:#fff;stroke:#fff;stroke-width:1.46px;"/>
            <g id="q41" serif:id="q4">
                <path d="M1608.41,126.187C1608.61,126.16 1608.8,126.303 1608.82,126.506C1608.85,126.708 1608.71,126.895 1608.51,126.922C1608.3,126.948 1608.12,126.805 1608.09,126.602C1608.06,126.4 1608.21,126.213 1608.41,126.187ZM1607.61,125.058C1607.56,124.703 1607.81,124.377 1608.16,124.33C1608.52,124.284 1608.85,124.534 1608.89,124.889C1608.94,125.243 1608.69,125.57 1608.33,125.617C1607.98,125.663 1607.65,125.413 1607.61,125.058ZM1607.87,122.069C1608.33,122.008 1608.76,122.337 1608.82,122.804C1608.88,123.27 1608.56,123.699 1608.09,123.76C1607.62,123.822 1607.19,123.492 1607.13,123.026C1607.07,122.56 1607.4,122.131 1607.87,122.069ZM1609.65,132.867C1609.52,128.946 1609.33,123.21 1609.26,122.745C1609.17,122.035 1608.52,121.535 1607.81,121.628C1607.1,121.722 1606.6,122.374 1606.69,123.084C1606.75,123.548 1608.05,129.14 1608.94,132.961C1609.04,133.387 1609.66,133.304 1609.65,132.867Z" style="fill:#733c52;fill-rule:nonzero;"/>
                <path d="M1604.2,123.053C1604.63,122.873 1605.13,123.08 1605.31,123.514C1605.49,123.949 1605.28,124.449 1604.85,124.629C1604.41,124.809 1603.91,124.601 1603.73,124.167C1603.56,123.733 1603.76,123.233 1604.2,123.053ZM1605.92,125.511C1606.05,125.841 1605.9,126.222 1605.57,126.358C1605.24,126.495 1604.85,126.338 1604.72,126.007C1604.58,125.677 1604.74,125.296 1605.07,125.159C1605.4,125.023 1605.78,125.18 1605.92,125.511ZM1606.27,127.09C1606.35,127.279 1606.26,127.496 1606.07,127.575C1605.88,127.653 1605.66,127.563 1605.59,127.374C1605.51,127.185 1605.6,126.968 1605.79,126.889C1605.97,126.811 1606.19,126.901 1606.27,127.09ZM1608.05,133.296C1608.26,133.682 1608.84,133.439 1608.72,133.021C1607.58,129.266 1605.9,123.777 1605.72,123.344C1605.45,122.682 1604.69,122.367 1604.03,122.642C1603.36,122.916 1603.05,123.675 1603.32,124.337C1603.5,124.77 1606.2,129.836 1608.05,133.296Z" style="fill:#733c52;fill-rule:nonzero;"/>
                <path d="M1600.91,124.953C1601.28,124.666 1601.82,124.737 1602.1,125.11C1602.39,125.483 1602.32,126.02 1601.94,126.306C1601.57,126.592 1601.04,126.521 1600.75,126.148C1600.46,125.775 1600.53,125.239 1600.91,124.953ZM1603.2,126.881C1603.42,127.165 1603.37,127.573 1603.08,127.791C1602.8,128.009 1602.39,127.955 1602.17,127.671C1601.96,127.388 1602.01,126.979 1602.29,126.762C1602.58,126.544 1602.99,126.598 1603.2,126.881ZM1603.95,128.316C1604.08,128.478 1604.05,128.711 1603.88,128.835C1603.72,128.96 1603.49,128.929 1603.37,128.767C1603.24,128.605 1603.27,128.372 1603.43,128.247C1603.6,128.123 1603.83,128.153 1603.95,128.316ZM1607.28,133.85C1607.58,134.169 1608.08,133.783 1607.85,133.412C1605.78,130.08 1602.74,125.211 1602.45,124.839C1602.02,124.271 1601.2,124.163 1600.63,124.6C1600.07,125.036 1599.96,125.851 1600.39,126.419C1600.68,126.791 1604.6,130.986 1607.28,133.85Z" style="fill:#733c52;fill-rule:nonzero;"/>
                <path d="M1598.22,127.639C1598.51,127.266 1599.04,127.196 1599.41,127.482C1599.79,127.768 1599.86,128.305 1599.57,128.678C1599.29,129.051 1598.75,129.121 1598.38,128.835C1598,128.549 1597.93,128.012 1598.22,127.639ZM1600.03,129.028C1600.25,128.744 1600.65,128.69 1600.94,128.908C1601.22,129.126 1601.28,129.534 1601.06,129.818C1600.84,130.101 1600.43,130.155 1600.15,129.937C1599.86,129.719 1599.81,129.311 1600.03,129.028ZM1601.51,130.167C1601.64,130.005 1601.87,129.974 1602.03,130.099C1602.19,130.223 1602.23,130.457 1602.1,130.619C1601.98,130.781 1601.74,130.812 1601.58,130.687C1601.42,130.563 1601.39,130.33 1601.51,130.167ZM1606.68,134.584C1607.05,134.814 1607.43,134.311 1607.12,134.013C1604.25,131.331 1600.06,127.414 1599.68,127.129C1599.12,126.693 1598.3,126.8 1597.87,127.369C1597.43,127.937 1597.54,128.752 1598.11,129.188C1598.48,129.473 1603.35,132.511 1606.68,134.584Z" style="fill:#733c52;fill-rule:nonzero;"/>
                <path d="M1596.32,130.93C1596.5,130.496 1597,130.289 1597.43,130.468C1597.87,130.648 1598.08,131.148 1597.89,131.583C1597.71,132.017 1597.22,132.224 1596.78,132.044C1596.35,131.864 1596.14,131.364 1596.32,130.93ZM1598.43,131.803C1598.56,131.472 1598.94,131.315 1599.27,131.451C1599.6,131.588 1599.76,131.969 1599.62,132.299C1599.49,132.63 1599.11,132.787 1598.78,132.65C1598.45,132.513 1598.29,132.133 1598.43,131.803ZM1600.15,132.519C1600.23,132.33 1600.45,132.24 1600.64,132.319C1600.83,132.397 1600.92,132.614 1600.84,132.803C1600.76,132.992 1600.55,133.082 1600.36,133.004C1600.17,132.925 1600.08,132.708 1600.15,132.519ZM1596.61,132.455C1597.04,132.634 1602.53,134.309 1606.29,135.448C1606.7,135.575 1606.95,134.989 1606.56,134.784C1603.1,132.934 1598.04,130.237 1597.6,130.057C1596.94,129.783 1596.18,130.097 1595.91,130.76C1595.63,131.422 1595.95,132.181 1596.61,132.455Z" style="fill:#733c52;fill-rule:nonzero;"/>
                <path d="M1595.34,134.6C1595.4,134.134 1595.83,133.805 1596.29,133.866C1596.76,133.927 1597.09,134.357 1597.03,134.823C1596.97,135.289 1596.54,135.618 1596.07,135.557C1595.6,135.496 1595.27,135.066 1595.34,134.6ZM1597.6,134.898C1597.64,134.543 1597.97,134.293 1598.32,134.339C1598.68,134.386 1598.93,134.712 1598.88,135.067C1598.84,135.422 1598.51,135.672 1598.15,135.626C1597.8,135.579 1597.55,135.253 1597.6,134.898ZM1599.45,135.142C1599.48,134.939 1599.67,134.796 1599.87,134.823C1600.07,134.85 1600.21,135.036 1600.19,135.239C1600.16,135.442 1599.98,135.585 1599.77,135.558C1599.57,135.532 1599.43,135.345 1599.45,135.142ZM1596.01,135.998C1596.48,136.059 1602.21,136.256 1606.13,136.385C1606.57,136.399 1606.65,135.77 1606.23,135.671C1602.41,134.781 1596.81,133.486 1596.35,133.425C1595.64,133.331 1594.99,133.832 1594.89,134.542C1594.8,135.253 1595.3,135.905 1596.01,135.998Z" style="fill:#733c52;fill-rule:nonzero;"/>
            </g>
            <g id="q31" serif:id="q3">
                <path d="M1595.34,138.4C1595.27,137.934 1595.6,137.504 1596.07,137.443C1596.54,137.382 1596.97,137.711 1597.03,138.177C1597.09,138.643 1596.76,139.073 1596.29,139.134C1595.83,139.195 1595.4,138.866 1595.34,138.4ZM1598.15,137.374C1598.51,137.328 1598.84,137.578 1598.88,137.933C1598.93,138.288 1598.68,138.614 1598.32,138.661C1597.97,138.708 1597.64,138.457 1597.6,138.102C1597.55,137.747 1597.8,137.421 1598.15,137.374ZM1599.77,137.442C1599.98,137.415 1600.16,137.558 1600.19,137.761C1600.22,137.964 1600.07,138.15 1599.87,138.177C1599.67,138.204 1599.48,138.06 1599.45,137.858C1599.43,137.655 1599.57,137.468 1599.77,137.442ZM1606.23,137.329C1606.65,137.23 1606.57,136.601 1606.13,136.615C1602.21,136.744 1596.48,136.941 1596.01,137.002C1595.3,137.095 1594.8,137.747 1594.89,138.458C1594.99,139.168 1595.64,139.669 1596.35,139.575C1596.82,139.514 1602.41,138.219 1606.23,137.329Z" style="fill:#733c52;fill-rule:nonzero;"/>
                <path d="M1596.32,142.07C1596.14,141.636 1596.35,141.136 1596.78,140.956C1597.22,140.776 1597.72,140.983 1597.89,141.417C1598.08,141.852 1597.87,142.352 1597.43,142.531C1597,142.711 1596.5,142.504 1596.32,142.07ZM1598.78,140.35C1599.11,140.213 1599.49,140.37 1599.62,140.701C1599.76,141.031 1599.6,141.412 1599.27,141.549C1598.94,141.686 1598.56,141.528 1598.43,141.197C1598.29,140.867 1598.45,140.486 1598.78,140.35ZM1600.36,139.996C1600.55,139.918 1600.76,140.008 1600.84,140.197C1600.92,140.386 1600.83,140.603 1600.64,140.681C1600.45,140.76 1600.23,140.67 1600.16,140.481C1600.08,140.292 1600.17,140.075 1600.36,139.996ZM1606.56,138.216C1606.95,138.011 1606.7,137.425 1606.29,137.552C1602.53,138.691 1597.04,140.366 1596.61,140.545C1595.95,140.819 1595.63,141.578 1595.91,142.24C1596.18,142.902 1596.94,143.217 1597.6,142.943C1598.04,142.763 1603.1,140.066 1606.56,138.216Z" style="fill:#733c52;fill-rule:nonzero;"/>
                <path d="M1602.03,142.901C1601.87,143.025 1601.64,142.995 1601.51,142.833C1601.39,142.67 1601.42,142.437 1601.58,142.313C1601.74,142.188 1601.98,142.219 1602.1,142.381C1602.23,142.543 1602.2,142.777 1602.03,142.901ZM1600.94,144.092C1600.65,144.31 1600.25,144.256 1600.03,143.972C1599.81,143.689 1599.86,143.281 1600.15,143.063C1600.43,142.845 1600.84,142.899 1601.06,143.182C1601.28,143.466 1601.22,143.874 1600.94,144.092ZM1599.41,145.518C1599.04,145.804 1598.51,145.734 1598.22,145.361C1597.93,144.988 1598,144.451 1598.38,144.165C1598.75,143.879 1599.29,143.949 1599.57,144.322C1599.86,144.695 1599.79,145.232 1599.41,145.518ZM1606.68,138.416C1603.35,140.489 1598.48,143.527 1598.11,143.812C1597.54,144.248 1597.43,145.063 1597.87,145.632C1598.3,146.2 1599.12,146.307 1599.68,145.871C1600.06,145.586 1604.25,141.669 1607.12,138.987C1607.43,138.689 1607.05,138.186 1606.68,138.416Z" style="fill:#733c52;fill-rule:nonzero;"/>
                <path d="M1603.95,144.684C1603.83,144.847 1603.6,144.877 1603.43,144.753C1603.27,144.628 1603.24,144.395 1603.37,144.233C1603.49,144.071 1603.72,144.04 1603.88,144.165C1604.05,144.289 1604.08,144.522 1603.95,144.684ZM1603.2,146.119C1602.99,146.402 1602.58,146.456 1602.29,146.238C1602.01,146.021 1601.96,145.612 1602.17,145.329C1602.39,145.045 1602.8,144.991 1603.08,145.209C1603.37,145.427 1603.42,145.835 1603.2,146.119ZM1602.1,147.89C1601.82,148.263 1601.28,148.334 1600.91,148.047C1600.53,147.761 1600.46,147.225 1600.75,146.852C1601.04,146.479 1601.57,146.408 1601.94,146.694C1602.32,146.981 1602.39,147.517 1602.1,147.89ZM1607.28,139.15C1604.6,142.014 1600.68,146.209 1600.39,146.581C1599.96,147.149 1600.07,147.964 1600.63,148.4C1601.2,148.837 1602.02,148.729 1602.45,148.161C1602.74,147.789 1605.78,142.92 1607.85,139.588C1608.08,139.217 1607.58,138.831 1607.28,139.15Z" style="fill:#733c52;fill-rule:nonzero;"/>
                <path d="M1606.27,145.91C1606.19,146.099 1605.97,146.189 1605.79,146.111C1605.6,146.032 1605.51,145.815 1605.59,145.626C1605.66,145.437 1605.88,145.347 1606.07,145.426C1606.26,145.504 1606.35,145.721 1606.27,145.91ZM1605.92,147.489C1605.78,147.82 1605.4,147.977 1605.07,147.84C1604.74,147.704 1604.58,147.323 1604.72,146.993C1604.85,146.662 1605.24,146.505 1605.57,146.642C1605.9,146.779 1606.05,147.159 1605.92,147.489ZM1605.31,149.486C1605.13,149.92 1604.63,150.127 1604.2,149.947C1603.76,149.767 1603.56,149.267 1603.74,148.833C1603.91,148.399 1604.41,148.192 1604.85,148.371C1605.28,148.551 1605.49,149.051 1605.31,149.486ZM1608.05,139.704C1606.2,143.164 1603.5,148.23 1603.32,148.663C1603.05,149.325 1603.36,150.084 1604.03,150.358C1604.69,150.633 1605.45,150.318 1605.72,149.656C1605.9,149.223 1607.58,143.734 1608.72,139.979C1608.84,139.561 1608.26,139.318 1608.05,139.704Z" style="fill:#733c52;fill-rule:nonzero;"/>
                <path d="M1608.82,146.494C1608.8,146.697 1608.61,146.84 1608.41,146.813C1608.21,146.787 1608.06,146.6 1608.09,146.397C1608.12,146.195 1608.3,146.052 1608.51,146.078C1608.71,146.105 1608.85,146.292 1608.82,146.494ZM1608.89,148.111C1608.85,148.466 1608.52,148.717 1608.16,148.67C1607.81,148.623 1607.56,148.297 1607.61,147.942C1607.65,147.587 1607.98,147.337 1608.33,147.383C1608.69,147.43 1608.94,147.757 1608.89,148.111ZM1608.82,150.197C1608.76,150.663 1608.33,150.992 1607.87,150.931C1607.4,150.869 1607.07,150.44 1607.13,149.974C1607.19,149.508 1607.62,149.178 1608.09,149.24C1608.56,149.301 1608.88,149.73 1608.82,150.197ZM1608.94,140.039C1608.05,143.86 1606.75,149.451 1606.69,149.916C1606.6,150.626 1607.1,151.278 1607.81,151.372C1608.52,151.465 1609.17,150.965 1609.26,150.254C1609.33,149.79 1609.52,144.054 1609.65,140.133C1609.66,139.696 1609.04,139.613 1608.94,140.039Z" style="fill:#733c52;fill-rule:nonzero;"/>
            </g>
            <g id="q21" serif:id="q2">
                <path d="M1611.12,146.813C1610.92,146.84 1610.74,146.697 1610.71,146.494C1610.68,146.291 1610.83,146.105 1611.03,146.078C1611.23,146.052 1611.42,146.195 1611.44,146.397C1611.47,146.6 1611.33,146.787 1611.12,146.813ZM1611.93,147.942C1611.97,148.297 1611.72,148.623 1611.37,148.67C1611.01,148.717 1610.69,148.466 1610.64,148.111C1610.59,147.756 1610.85,147.43 1611.2,147.383C1611.55,147.337 1611.88,147.587 1611.93,147.942ZM1611.67,150.931C1611.2,150.992 1610.77,150.663 1610.71,150.196C1610.65,149.73 1610.98,149.301 1611.44,149.24C1611.91,149.178 1612.34,149.508 1612.4,149.974C1612.46,150.44 1612.13,150.869 1611.67,150.931ZM1609.88,140.133C1610.01,144.054 1610.21,149.79 1610.27,150.255C1610.36,150.965 1611.01,151.465 1611.72,151.372C1612.43,151.278 1612.93,150.626 1612.84,149.916C1612.78,149.451 1611.49,143.86 1610.6,140.039C1610.5,139.613 1609.87,139.696 1609.88,140.133Z" style="fill:#733c52;fill-rule:nonzero;"/>
                <path d="M1615.34,149.947C1614.9,150.127 1614.4,149.92 1614.22,149.486C1614.04,149.051 1614.25,148.551 1614.68,148.371C1615.12,148.191 1615.62,148.399 1615.8,148.833C1615.98,149.267 1615.77,149.767 1615.34,149.947ZM1613.62,147.489C1613.48,147.159 1613.64,146.778 1613.97,146.642C1614.3,146.505 1614.68,146.662 1614.82,146.993C1614.95,147.323 1614.79,147.704 1614.46,147.84C1614.13,147.977 1613.75,147.82 1613.62,147.489ZM1613.26,145.91C1613.18,145.721 1613.27,145.504 1613.46,145.426C1613.65,145.347 1613.87,145.437 1613.95,145.626C1614.03,145.815 1613.94,146.032 1613.75,146.111C1613.56,146.189 1613.34,146.099 1613.26,145.91ZM1611.48,139.704C1611.28,139.318 1610.69,139.561 1610.82,139.979C1611.96,143.734 1613.63,149.223 1613.81,149.656C1614.09,150.318 1614.84,150.633 1615.51,150.358C1616.17,150.084 1616.48,149.325 1616.21,148.663C1616.03,148.23 1613.33,143.164 1611.48,139.704Z" style="fill:#733c52;fill-rule:nonzero;"/>
                <path d="M1618.63,148.047C1618.25,148.334 1617.72,148.263 1617.43,147.89C1617.14,147.517 1617.22,146.981 1617.59,146.694C1617.96,146.408 1618.5,146.479 1618.78,146.852C1619.07,147.225 1619,147.761 1618.63,148.047ZM1616.33,146.119C1616.11,145.835 1616.16,145.427 1616.45,145.209C1616.73,144.991 1617.14,145.045 1617.36,145.328C1617.58,145.612 1617.52,146.021 1617.24,146.238C1616.95,146.456 1616.55,146.402 1616.33,146.119ZM1615.58,144.684C1615.45,144.522 1615.49,144.289 1615.65,144.165C1615.81,144.04 1616.04,144.071 1616.17,144.233C1616.29,144.395 1616.26,144.628 1616.1,144.753C1615.94,144.877 1615.7,144.847 1615.58,144.684ZM1612.25,139.15C1611.95,138.831 1611.45,139.217 1611.68,139.588C1613.76,142.92 1616.79,147.789 1617.08,148.161C1617.51,148.729 1618.33,148.837 1618.9,148.4C1619.47,147.964 1619.57,147.149 1619.14,146.581C1618.85,146.209 1614.93,142.014 1612.25,139.15Z" style="fill:#733c52;fill-rule:nonzero;"/>
                <path d="M1621.31,145.361C1621.03,145.734 1620.49,145.804 1620.12,145.518C1619.75,145.232 1619.67,144.695 1619.96,144.322C1620.25,143.949 1620.78,143.879 1621.16,144.165C1621.53,144.451 1621.6,144.988 1621.31,145.361ZM1619.5,143.972C1619.29,144.256 1618.88,144.31 1618.6,144.092C1618.31,143.874 1618.26,143.466 1618.48,143.182C1618.69,142.899 1619.1,142.845 1619.38,143.063C1619.67,143.28 1619.72,143.689 1619.5,143.972ZM1618.02,142.833C1617.89,142.995 1617.66,143.026 1617.5,142.901C1617.34,142.777 1617.31,142.543 1617.43,142.381C1617.56,142.219 1617.79,142.188 1617.95,142.313C1618.11,142.437 1618.14,142.67 1618.02,142.833ZM1612.85,138.416C1612.48,138.186 1612.1,138.688 1612.42,138.987C1615.28,141.669 1619.48,145.586 1619.85,145.871C1620.41,146.307 1621.23,146.2 1621.67,145.631C1622.1,145.063 1622,144.248 1621.43,143.812C1621.06,143.527 1616.19,140.489 1612.85,138.416Z" style="fill:#733c52;fill-rule:nonzero;"/>
                <path d="M1623.21,142.07C1623.03,142.504 1622.53,142.711 1622.1,142.532C1621.66,142.352 1621.46,141.852 1621.64,141.417C1621.82,140.983 1622.32,140.776 1622.75,140.956C1623.19,141.136 1623.39,141.635 1623.21,142.07ZM1621.11,141.197C1620.97,141.528 1620.59,141.685 1620.26,141.549C1619.93,141.412 1619.77,141.031 1619.91,140.701C1620.04,140.37 1620.42,140.213 1620.76,140.35C1621.09,140.487 1621.24,140.867 1621.11,141.197ZM1619.38,140.481C1619.3,140.67 1619.08,140.76 1618.89,140.682C1618.7,140.603 1618.61,140.386 1618.69,140.197C1618.77,140.008 1618.99,139.918 1619.18,139.996C1619.37,140.075 1619.45,140.292 1619.38,140.481ZM1622.92,140.545C1622.49,140.366 1617,138.691 1613.25,137.552C1612.83,137.425 1612.58,138.011 1612.97,138.216C1616.43,140.066 1621.5,142.763 1621.93,142.943C1622.59,143.217 1623.35,142.902 1623.62,142.24C1623.9,141.578 1623.58,140.819 1622.92,140.545Z" style="fill:#733c52;fill-rule:nonzero;"/>
                <path d="M1624.2,138.4C1624.13,138.866 1623.71,139.195 1623.24,139.134C1622.77,139.073 1622.44,138.643 1622.51,138.177C1622.57,137.711 1623,137.382 1623.46,137.443C1623.93,137.504 1624.26,137.934 1624.2,138.4ZM1621.94,138.102C1621.89,138.457 1621.56,138.708 1621.21,138.661C1620.85,138.614 1620.6,138.288 1620.65,137.933C1620.7,137.578 1621.02,137.327 1621.38,137.374C1621.73,137.421 1621.98,137.748 1621.94,138.102ZM1620.08,137.858C1620.05,138.06 1619.87,138.204 1619.66,138.177C1619.46,138.15 1619.32,137.964 1619.34,137.761C1619.37,137.558 1619.56,137.415 1619.76,137.442C1619.96,137.468 1620.11,137.655 1620.08,137.858ZM1623.52,137.002C1623.06,136.941 1617.32,136.744 1613.4,136.615C1612.96,136.601 1612.88,137.23 1613.31,137.329C1617.13,138.219 1622.72,139.514 1623.18,139.575C1623.89,139.669 1624.54,139.169 1624.64,138.458C1624.73,137.747 1624.23,137.096 1623.52,137.002Z" style="fill:#733c52;fill-rule:nonzero;"/>
            </g>
            <g id="q11" serif:id="q1">
                <path d="M1623.46,135.557C1623,135.618 1622.57,135.289 1622.51,134.823C1622.44,134.357 1622.77,133.927 1623.24,133.866C1623.71,133.805 1624.14,134.134 1624.2,134.6C1624.26,135.066 1623.93,135.496 1623.46,135.557ZM1621.38,135.626C1621.02,135.673 1620.7,135.422 1620.65,135.067C1620.6,134.712 1620.85,134.386 1621.21,134.339C1621.56,134.292 1621.89,134.543 1621.94,134.898C1621.98,135.253 1621.73,135.579 1621.38,135.626ZM1619.76,135.558C1619.56,135.585 1619.37,135.442 1619.35,135.239C1619.32,135.036 1619.46,134.85 1619.66,134.823C1619.87,134.796 1620.05,134.939 1620.08,135.142C1620.11,135.345 1619.96,135.531 1619.76,135.558ZM1623.18,133.425C1622.72,133.486 1617.13,134.781 1613.31,135.671C1612.88,135.77 1612.96,136.399 1613.4,136.385C1617.32,136.256 1623.06,136.059 1623.52,135.998C1624.23,135.905 1624.73,135.253 1624.64,134.542C1624.54,133.832 1623.89,133.331 1623.18,133.425Z" style="fill:#733c52;fill-rule:nonzero;"/>
                <path d="M1623.21,130.93C1623.39,131.364 1623.19,131.864 1622.75,132.044C1622.32,132.224 1621.82,132.017 1621.64,131.583C1621.46,131.148 1621.66,130.648 1622.1,130.468C1622.53,130.288 1623.03,130.496 1623.21,130.93ZM1620.76,132.65C1620.42,132.787 1620.05,132.63 1619.91,132.299C1619.77,131.969 1619.93,131.588 1620.26,131.451C1620.59,131.315 1620.97,131.472 1621.11,131.803C1621.24,132.133 1621.09,132.513 1620.76,132.65ZM1619.18,133.004C1618.99,133.082 1618.77,132.992 1618.69,132.803C1618.61,132.614 1618.7,132.397 1618.89,132.318C1619.08,132.24 1619.3,132.33 1619.38,132.519C1619.45,132.708 1619.37,132.925 1619.18,133.004ZM1612.97,134.783C1612.58,134.989 1612.83,135.575 1613.25,135.448C1617,134.309 1622.49,132.634 1622.92,132.455C1623.58,132.181 1623.9,131.422 1623.62,130.76C1623.35,130.098 1622.59,129.783 1621.93,130.057C1621.5,130.237 1616.43,132.934 1612.97,134.783Z" style="fill:#733c52;fill-rule:nonzero;"/>
                <path d="M1617.5,130.099C1617.66,129.974 1617.89,130.005 1618.02,130.167C1618.14,130.33 1618.11,130.563 1617.95,130.687C1617.79,130.812 1617.56,130.781 1617.43,130.619C1617.31,130.457 1617.34,130.223 1617.5,130.099ZM1618.6,128.908C1618.88,128.69 1619.29,128.744 1619.51,129.028C1619.72,129.311 1619.67,129.72 1619.38,129.937C1619.1,130.155 1618.69,130.101 1618.48,129.818C1618.26,129.534 1618.31,129.126 1618.6,128.908ZM1620.12,127.482C1620.49,127.196 1621.03,127.266 1621.31,127.639C1621.6,128.012 1621.53,128.549 1621.16,128.835C1620.78,129.121 1620.25,129.051 1619.96,128.678C1619.67,128.305 1619.74,127.768 1620.12,127.482ZM1612.85,134.584C1616.19,132.511 1621.06,129.473 1621.43,129.188C1622,128.752 1622.1,127.937 1621.67,127.369C1621.23,126.8 1620.42,126.693 1619.85,127.129C1619.48,127.414 1615.28,131.331 1612.42,134.013C1612.1,134.312 1612.48,134.814 1612.85,134.584Z" style="fill:#733c52;fill-rule:nonzero;"/>
                <path d="M1615.58,128.316C1615.7,128.153 1615.94,128.123 1616.1,128.247C1616.26,128.372 1616.29,128.605 1616.17,128.767C1616.04,128.929 1615.81,128.96 1615.65,128.835C1615.49,128.711 1615.45,128.478 1615.58,128.316ZM1616.33,126.881C1616.55,126.598 1616.95,126.544 1617.24,126.762C1617.52,126.979 1617.58,127.388 1617.36,127.671C1617.14,127.955 1616.73,128.009 1616.45,127.791C1616.16,127.573 1616.11,127.165 1616.33,126.881ZM1617.43,125.11C1617.72,124.737 1618.25,124.666 1618.63,124.953C1619,125.239 1619.07,125.775 1618.78,126.148C1618.5,126.521 1617.96,126.592 1617.59,126.306C1617.22,126.019 1617.14,125.483 1617.43,125.11ZM1612.25,133.85C1614.93,130.986 1618.85,126.791 1619.14,126.419C1619.57,125.851 1619.47,125.036 1618.9,124.6C1618.33,124.163 1617.51,124.271 1617.08,124.839C1616.79,125.211 1613.76,130.08 1611.68,133.412C1611.45,133.783 1611.95,134.169 1612.25,133.85Z" style="fill:#733c52;fill-rule:nonzero;"/>
                <path d="M1613.26,127.09C1613.34,126.901 1613.56,126.811 1613.75,126.889C1613.94,126.968 1614.03,127.185 1613.95,127.374C1613.87,127.563 1613.65,127.653 1613.46,127.575C1613.28,127.496 1613.18,127.279 1613.26,127.09ZM1613.62,125.511C1613.75,125.18 1614.13,125.023 1614.46,125.159C1614.79,125.296 1614.95,125.677 1614.82,126.007C1614.68,126.338 1614.3,126.495 1613.97,126.358C1613.64,126.222 1613.48,125.841 1613.62,125.511ZM1614.22,123.514C1614.4,123.08 1614.9,122.873 1615.34,123.053C1615.77,123.233 1615.98,123.733 1615.8,124.167C1615.62,124.602 1615.12,124.809 1614.68,124.629C1614.25,124.449 1614.04,123.949 1614.22,123.514ZM1611.48,133.296C1613.33,129.836 1616.03,124.77 1616.21,124.337C1616.48,123.675 1616.17,122.916 1615.51,122.642C1614.84,122.368 1614.09,122.682 1613.81,123.344C1613.63,123.777 1611.96,129.266 1610.82,133.021C1610.69,133.439 1611.28,133.682 1611.48,133.296Z" style="fill:#733c52;fill-rule:nonzero;"/>
                <path d="M1610.71,126.506C1610.74,126.303 1610.92,126.16 1611.12,126.186C1611.33,126.213 1611.47,126.4 1611.44,126.602C1611.42,126.805 1611.23,126.948 1611.03,126.922C1610.82,126.895 1610.68,126.708 1610.71,126.506ZM1610.64,124.889C1610.69,124.534 1611.01,124.283 1611.37,124.33C1611.72,124.377 1611.97,124.703 1611.93,125.058C1611.88,125.413 1611.55,125.663 1611.2,125.617C1610.84,125.57 1610.59,125.243 1610.64,124.889ZM1610.71,122.804C1610.77,122.337 1611.2,122.008 1611.67,122.069C1612.13,122.131 1612.46,122.56 1612.4,123.026C1612.34,123.492 1611.91,123.822 1611.44,123.76C1610.98,123.699 1610.65,123.27 1610.71,122.804ZM1610.6,132.961C1611.49,129.14 1612.78,123.548 1612.84,123.084C1612.93,122.374 1612.43,121.722 1611.72,121.628C1611.01,121.535 1610.36,122.035 1610.27,122.746C1610.21,123.21 1610.01,128.946 1609.88,132.867C1609.87,133.304 1610.5,133.387 1610.6,132.961Z" style="fill:#733c52;fill-rule:nonzero;"/>
            </g>
        </g>
    </g>
</svg>
