<?xml version="1.0" encoding="UTF-8" standalone="no"?>
<!DOCTYPE svg PUBLIC "-//W3C//DTD SVG 1.1//EN" "http://www.w3.org/Graphics/SVG/1.1/DTD/svg11.dtd">
<svg width="100%" height="100%" viewBox="0 0 1701 2480" version="1.1" xmlns="http://www.w3.org/2000/svg" xmlns:xlink="http://www.w3.org/1999/xlink" xml:space="preserve" xmlns:serif="http://www.serif.com/" style="fill-rule:evenodd;clip-rule:evenodd;stroke-linecap:round;stroke-linejoin:round;stroke-miterlimit:1.5;">
    <rect id="C2B2" x="0.383" y="0" width="1700" height="2480" style="fill:none;"/>
    <g id="Fields" opacity="0.2" sound="Field/08-Petals" autoplay="true">
        <path id="_11" serif:id="11" d="M496.871,894.587L10.762,416.376L10.762,10L517.776,9.905L722.405,762.641C635.876,786.499 561.2,828.837 496.871,894.587Z" style="fill:#607777;stroke:#767676;stroke-width:8.33px;"/>
    </g>
    <a href="B.svg">
    <g id="S">
        <g id="Ring">
            <path id="Backer" d="M1261.82,1477C1130.93,1703.7 840.622,1781.5 613.933,1650.62C387.245,1519.75 309.468,1229.44 440.356,1002.74C571.245,776.037 861.552,698.239 1088.24,829.115C1314.93,959.991 1392.71,1250.3 1261.82,1477Z" style="fill:#fff;"/>
            <path d="M1261.82,1477C1130.93,1703.7 840.622,1781.5 613.933,1650.62C387.245,1519.75 309.468,1229.44 440.356,1002.74C571.245,776.037 861.552,698.239 1088.24,829.115C1314.93,959.991 1392.71,1250.3 1261.82,1477Z" style="fill:none;stroke:#000;stroke-width:8.33px;"/>
            <path d="M1261.82,1477L1235.56,1461.84" style="fill:none;stroke:#000;stroke-width:8.33px;"/>
            <path d="M466.614,1017.9L440.356,1002.74" style="fill:none;stroke:#000;stroke-width:8.33px;"/>
            <path d="M629.093,1624.37L613.933,1650.62" style="fill:none;stroke:#000;stroke-width:8.33px;"/>
            <path d="M1088.24,829.115L1073.08,855.372" style="fill:none;stroke:#000;stroke-width:8.33px;"/>
            <path d="M1088.23,1650.6L1073.07,1624.35" style="fill:none;stroke:#000;stroke-width:8.33px;"/>
            <path d="M629.103,855.389L613.943,829.132" style="fill:none;stroke:#000;stroke-width:8.33px;"/>
            <path d="M466.584,1461.86L440.327,1477.02" style="fill:none;stroke:#000;stroke-width:8.33px;"/>
            <path d="M1261.85,1002.72L1235.59,1017.88" style="fill:none;stroke:#000;stroke-width:8.33px;"/>
            <path d="M851.087,1714.16L851.087,1683.85" style="fill:none;stroke:#000;stroke-width:8.33px;"/>
            <path d="M851.087,795.892L851.087,765.573" style="fill:none;stroke:#000;stroke-width:8.33px;"/>
            <path d="M407.119,1239.87L376.8,1239.87" style="fill:none;stroke:#000;stroke-width:8.33px;"/>
            <path d="M1325.37,1239.87L1295.05,1239.87" style="fill:none;stroke:#000;stroke-width:8.33px;"/>
        </g>
        <g id="Root-Markers" serif:id="Root Markers">
            <path id="_8" serif:id="8" d="M532.628,1423.16L601.801,1341.31L638.101,1404.18L532.628,1423.16ZM581.623,1394.87L607.873,1390.15L598.839,1374.5L581.623,1394.87Z" style="fill:#488e61;"/>
        </g>
        <g id="Notes">
            <path id="_111" serif:id="11" sound="Font/1-Mid-B" d="M682.57,873.402C660.581,911.488 611.807,924.556 573.72,902.568C535.634,880.579 522.565,831.806 544.554,793.72C566.543,755.634 615.317,742.566 653.404,764.554C691.49,786.543 704.559,835.316 682.57,873.402Z" style="fill:#488e61;stroke:#fff;stroke-width:24px;"/>
            <path id="_81" serif:id="8" sound="Font/1-Low-Ab" d="M510.875,1521.29C488.886,1559.38 440.112,1572.45 402.026,1550.46C363.939,1528.47 350.87,1479.7 372.859,1441.61C394.849,1403.53 443.623,1390.46 481.709,1412.44C519.796,1434.43 532.865,1483.21 510.875,1521.29Z" style="fill:#488e61;stroke:#fff;stroke-width:24px;"/>
            <path id="_4" serif:id="4" sound="Font/1-Mid-E" d="M1327.64,1519.4C1305.65,1557.49 1256.87,1570.56 1218.79,1548.57C1180.7,1526.58 1167.63,1477.81 1189.62,1439.72C1211.61,1401.64 1260.38,1388.57 1298.47,1410.56C1336.56,1432.55 1349.63,1481.32 1327.64,1519.4Z" style="fill:#488e61;stroke:#fff;stroke-width:24px;"/>
        </g>
        <g id="Treble-Marker" serif:id="Treble Marker">
            <g id="_10" serif:id="10" sound="Font/1-High-Bb">
                <path id="_101" serif:id="10" d="M513.706,1048.9C491.716,1086.99 442.942,1100.06 404.856,1078.07C366.769,1056.08 353.7,1007.31 375.69,969.221C397.679,931.136 446.453,918.067 484.539,940.056C522.626,962.045 535.695,1010.82 513.706,1048.9Z" style="fill:#fff;stroke:#fff;stroke-width:33.33px;"/>
                <circle id="_10a" serif:id="10a" cx="444.698" cy="1009.06" r="64" style="fill:#fff;stroke:#488e61;stroke-width:16.67px;"/>
            </g>
        </g>
    </g>
    </a>
    <g id="Songs">
        <g id="song-8-petals" serif:id="song 8 petals">
            <g id="B" sound="Song/08-Petals-B">
                <path d="M260.429,319.999C241.032,320.104 221.62,312.628 207.043,297.638L181.286,271.151C167.919,257.406 160.981,239.773 160.42,221.993L261.088,222.174L260.429,319.999Z" style="fill:#488e61;stroke:#fff;stroke-width:1.67px;"/>
                <path d="M160.42,221.993C159.788,201.955 167.254,181.729 182.745,166.665L209.231,140.908C223.85,126.693 242.864,119.748 261.777,120.012L261.088,222.174L160.42,221.993Z" style="fill:#488e61;stroke:#fff;stroke-width:1.67px;"/>
                <path d="M161.383,222.174L260.383,222.352" style="fill:none;stroke:#488e61;stroke-width:4.17px;stroke-linecap:butt;"/>
                <g id="q4">
                    <path d="M253.286,163.188C254.436,163.037 255.493,163.849 255.645,164.997C255.796,166.146 254.985,167.203 253.835,167.355C252.688,167.506 251.631,166.694 251.48,165.546C251.329,164.397 252.14,163.339 253.286,163.188ZM248.739,156.794C248.474,154.784 249.894,152.934 251.901,152.669C253.912,152.405 255.763,153.825 256.028,155.835C256.292,157.845 254.872,159.695 252.861,159.96C250.854,160.224 249.003,158.804 248.739,156.794ZM250.215,139.858C252.858,139.51 255.29,141.377 255.638,144.018C255.986,146.66 254.119,149.093 251.476,149.441C248.837,149.788 246.404,147.922 246.057,145.28C245.709,142.638 247.575,140.206 250.215,139.858ZM260.328,201.046C259.598,178.824 258.485,146.32 258.139,143.689C257.609,139.663 253.911,136.828 249.885,137.358C245.859,137.888 243.026,141.583 243.556,145.609C243.902,148.239 251.24,179.924 256.286,201.578C256.848,203.989 260.409,203.52 260.328,201.046Z" style="fill:#e7e7e7;fill-rule:nonzero;"/>
                    <path d="M229.419,145.43C231.879,144.411 234.714,145.584 235.731,148.046C236.752,150.508 235.577,153.34 233.118,154.36C230.655,155.38 227.823,154.206 226.802,151.745C225.785,149.283 226.956,146.451 229.419,145.43ZM239.167,159.359C239.944,161.231 239.05,163.387 237.176,164.162C235.303,164.938 233.148,164.046 232.375,162.173C231.597,160.3 232.492,158.145 234.365,157.368C236.238,156.593 238.393,157.485 239.167,159.359ZM241.167,168.308C241.61,169.379 241.1,170.61 240.03,171.054C238.96,171.497 237.73,170.987 237.287,169.916C236.843,168.846 237.353,167.615 238.423,167.171C239.494,166.728 240.727,167.238 241.167,168.308ZM251.253,203.477C252.421,205.661 255.742,204.286 255.023,201.916C248.566,180.641 239.076,149.533 238.061,147.081C236.508,143.329 232.207,141.547 228.453,143.101C224.703,144.655 222.92,148.957 224.473,152.71C225.488,155.161 240.775,183.867 251.253,203.477Z" style="fill:#e7e7e7;fill-rule:nonzero;"/>
                    <path d="M210.773,156.196C212.887,154.574 215.924,154.975 217.546,157.089C219.169,159.203 218.769,162.242 216.654,163.864C214.54,165.486 211.503,165.086 209.88,162.972C208.258,160.858 208.658,157.818 210.773,156.196ZM223.794,167.126C225.026,168.735 224.721,171.048 223.115,172.281C221.506,173.516 219.192,173.212 217.959,171.603C216.727,169.994 217.028,167.682 218.637,166.447C220.247,165.213 222.557,165.518 223.794,167.126ZM228.042,175.253C228.748,176.172 228.574,177.494 227.654,178.199C226.734,178.905 225.413,178.73 224.711,177.811C224.005,176.892 224.179,175.571 225.099,174.865C226.014,174.16 227.336,174.334 228.042,175.253ZM246.886,206.613C248.58,208.42 251.43,206.233 250.124,204.13C238.38,185.251 221.161,157.659 219.548,155.554C217.074,152.332 212.458,151.724 209.236,154.197C206.013,156.669 205.405,161.285 207.879,164.507C209.492,166.612 231.69,190.383 246.886,206.613Z" style="fill:#e7e7e7;fill-rule:nonzero;"/>
                    <path d="M195.548,171.421C197.17,169.307 200.209,168.907 202.323,170.53C204.437,172.151 204.837,175.191 203.215,177.305C201.593,179.419 198.554,179.819 196.439,178.197C194.325,176.575 193.925,173.535 195.548,171.421ZM205.795,179.288C207.032,177.679 209.345,177.375 210.951,178.609C212.562,179.843 212.867,182.155 211.63,183.764C210.398,185.372 208.085,185.677 206.474,184.443C204.868,183.208 204.563,180.896 205.795,179.288ZM214.215,185.747C214.92,184.828 216.241,184.654 217.16,185.359C218.079,186.064 218.253,187.386 217.548,188.305C216.843,189.224 215.521,189.398 214.603,188.693C213.684,187.987 213.51,186.666 214.215,185.747ZM243.479,210.772C245.585,212.08 247.77,209.23 245.962,207.537C229.732,192.341 205.961,170.144 203.856,168.529C200.634,166.057 196.017,166.665 193.544,169.887C191.072,173.109 191.68,177.725 194.902,180.197C197.007,181.813 224.599,199.029 243.479,210.772Z" style="fill:#e7e7e7;fill-rule:nonzero;"/>
                    <path d="M184.781,190.068C185.802,187.606 188.631,186.433 191.093,187.453C193.555,188.473 194.729,191.305 193.709,193.767C192.688,196.229 189.859,197.402 187.397,196.382C184.935,195.362 183.761,192.53 184.781,190.068ZM196.72,195.013C197.494,193.14 199.65,192.247 201.524,193.023C203.394,193.799 204.288,195.954 203.514,197.827C202.735,199.7 200.583,200.593 198.709,199.817C196.835,199.041 195.941,196.886 196.72,195.013ZM206.521,199.074C206.965,198.003 208.196,197.493 209.267,197.936C210.338,198.379 210.845,199.611 210.405,200.681C209.961,201.752 208.729,202.262 207.658,201.818C206.587,201.375 206.076,200.144 206.521,199.074ZM186.43,198.712C188.883,199.727 219.99,209.215 241.265,215.672C243.637,216.391 245.01,213.072 242.827,211.905C223.218,201.426 194.51,186.139 192.06,185.123C188.308,183.569 184.007,185.351 182.451,189.104C180.899,192.855 182.681,197.157 186.43,198.712Z" style="fill:#e7e7e7;fill-rule:nonzero;"/>
                    <path d="M179.208,210.866C179.557,208.224 181.988,206.358 184.631,206.705C187.271,207.053 189.139,209.485 188.789,212.127C188.444,214.769 186.009,216.635 183.37,216.287C180.726,215.94 178.862,213.508 179.208,210.866ZM192.02,212.552C192.282,210.542 194.133,209.123 196.143,209.387C198.153,209.652 199.575,211.502 199.309,213.513C199.046,215.522 197.196,216.942 195.186,216.678C193.175,216.413 191.753,214.562 192.02,212.552ZM202.539,213.937C202.691,212.788 203.746,211.977 204.895,212.129C206.043,212.28 206.855,213.337 206.703,214.486C206.555,215.634 205.496,216.446 204.348,216.295C203.199,216.143 202.387,215.086 202.539,213.937ZM183.039,218.787C185.67,219.134 218.176,220.247 240.395,220.978C242.87,221.059 243.339,217.497 240.929,216.935C219.275,211.889 187.589,204.552 184.958,204.206C180.933,203.675 177.24,206.51 176.707,210.537C176.179,214.563 179.015,218.257 183.039,218.787Z" style="fill:#e7e7e7;fill-rule:nonzero;"/>
                </g>
                <g id="q3">
                    <path d="M179.208,232.397C178.86,229.755 180.727,227.323 183.37,226.975C186.009,226.628 188.442,228.494 188.79,231.136C189.137,233.778 187.271,236.21 184.632,236.557C181.988,236.905 179.556,235.039 179.208,232.397ZM195.183,226.585C197.194,226.321 199.045,227.741 199.309,229.751C199.574,231.761 198.154,233.612 196.143,233.877C194.136,234.141 192.285,232.721 192.02,230.71C191.755,228.7 193.176,226.85 195.183,226.585ZM204.346,226.968C205.496,226.817 206.553,227.629 206.705,228.777C206.856,229.925 206.045,230.983 204.894,231.134C203.748,231.285 202.691,230.474 202.54,229.325C202.389,228.177 203.2,227.119 204.346,226.968ZM240.929,226.328C243.34,225.766 242.872,222.204 240.396,222.285C218.175,223.016 185.672,224.129 183.041,224.475C179.011,225.006 176.177,228.7 176.707,232.726C177.238,236.753 180.931,239.588 184.961,239.057C187.592,238.711 219.276,231.374 240.929,226.328Z" style="fill:#e7e7e7;fill-rule:nonzero;"/>
                    <path d="M184.78,253.195C183.763,250.733 184.934,247.901 187.397,246.881C189.857,245.861 192.692,247.034 193.709,249.496C194.73,251.958 193.555,254.791 191.096,255.81C188.633,256.83 185.801,255.656 184.78,253.195ZM198.71,243.446C200.583,242.67 202.738,243.562 203.511,245.436C204.289,247.309 203.394,249.464 201.521,250.24C199.648,251.016 197.493,250.124 196.72,248.25C195.942,246.377 196.837,244.222 198.71,243.446ZM207.659,241.444C208.729,241.001 209.962,241.511 210.402,242.582C210.846,243.652 210.336,244.884 209.265,245.327C208.195,245.77 206.966,245.26 206.522,244.19C206.078,243.119 206.588,241.888 207.659,241.444ZM242.828,231.358C245.01,230.192 243.635,226.872 241.265,227.591C219.993,234.048 188.883,243.536 186.431,244.552C182.681,246.106 180.898,250.408 182.45,254.16C184.007,257.912 188.308,259.694 192.058,258.14C194.51,257.124 223.218,241.836 242.828,231.358Z" style="fill:#e7e7e7;fill-rule:nonzero;"/>
                    <path d="M217.162,257.904C216.243,258.609 214.921,258.435 214.215,257.517C213.509,256.597 213.683,255.276 214.603,254.57C215.523,253.865 216.844,254.039 217.55,254.958C218.252,255.878 218.082,257.199 217.162,257.904ZM210.955,264.654C209.345,265.888 207.031,265.584 205.799,263.975C204.562,262.367 204.868,260.054 206.477,258.82C208.086,257.586 210.396,257.89 211.633,259.499C212.866,261.107 212.56,263.42 210.955,264.654ZM202.321,272.734C200.206,274.356 197.17,273.955 195.547,271.841C193.924,269.727 194.325,266.688 196.439,265.066C198.554,263.444 201.59,263.844 203.213,265.958C204.836,268.072 204.435,271.111 202.321,272.734ZM243.479,232.491C224.6,244.234 197.009,261.45 194.902,263.066C191.684,265.538 191.076,270.154 193.546,273.377C196.02,276.599 200.635,277.206 203.858,274.734C205.961,273.119 229.734,250.922 245.963,235.726C247.769,234.033 245.585,231.183 243.479,232.491Z" style="fill:#e7e7e7;fill-rule:nonzero;"/>
                    <path d="M228.041,268.01C227.336,268.929 226.015,269.103 225.096,268.397C224.177,267.692 224.004,266.371 224.708,265.452C225.413,264.533 226.735,264.359 227.653,265.064C228.572,265.769 228.746,267.091 228.041,268.01ZM223.791,276.137C222.559,277.745 220.246,278.049 218.635,276.816C217.029,275.581 216.724,273.269 217.957,271.66C219.193,270.052 221.506,269.747 223.112,270.981C224.723,272.216 225.028,274.528 223.791,276.137ZM217.548,286.175C215.925,288.288 212.887,288.688 210.772,287.067C208.658,285.444 208.258,282.405 209.88,280.291C211.503,278.177 214.542,277.777 216.656,279.399C218.77,281.021 219.17,284.06 217.548,286.175ZM246.886,236.651C231.689,252.88 209.493,276.651 207.877,278.756C205.405,281.979 206.013,286.594 209.235,289.067C212.457,291.539 217.074,290.932 219.547,287.71C221.162,285.604 238.377,258.012 250.121,239.133C251.43,237.03 248.581,234.843 246.886,236.651Z" style="fill:#e7e7e7;fill-rule:nonzero;"/>
                    <path d="M241.168,274.955C240.724,276.025 239.492,276.535 238.425,276.091C237.355,275.648 236.844,274.417 237.288,273.346C237.728,272.276 238.96,271.766 240.031,272.21C241.102,272.653 241.612,273.884 241.168,274.955ZM239.168,283.905C238.389,285.778 236.237,286.67 234.363,285.894C232.489,285.118 231.599,282.963 232.373,281.09C233.148,279.217 235.304,278.325 237.178,279.1C239.048,279.876 239.942,282.032 239.168,283.905ZM235.731,295.217C234.711,297.679 231.882,298.852 229.419,297.832C226.957,296.812 225.783,293.98 226.804,291.518C227.824,289.056 230.654,287.883 233.116,288.903C235.578,289.923 236.752,292.755 235.731,295.217ZM251.253,239.786C240.776,259.396 225.487,288.102 224.473,290.554C222.917,294.306 224.7,298.607 228.452,300.162C232.205,301.716 236.506,299.934 238.062,296.182C239.075,293.731 248.566,262.622 255.023,241.346C255.74,238.978 252.422,237.602 251.253,239.786Z" style="fill:#e7e7e7;fill-rule:nonzero;"/>
                    <path d="M255.643,278.266C255.495,279.414 254.436,280.226 253.287,280.075C252.139,279.923 251.327,278.866 251.479,277.717C251.631,276.568 252.686,275.757 253.834,275.909C254.983,276.06 255.794,277.117 255.643,278.266ZM256.027,287.428C255.765,289.439 253.914,290.859 251.904,290.594C249.894,290.329 248.472,288.479 248.738,286.468C249.001,284.459 250.851,283.039 252.862,283.303C254.872,283.568 256.294,285.418 256.027,287.428ZM255.637,299.245C255.291,301.886 252.857,303.753 250.217,303.405C247.574,303.057 245.71,300.625 246.055,297.983C246.404,295.341 248.835,293.475 251.479,293.823C254.118,294.171 255.986,296.603 255.637,299.245ZM256.284,241.685C251.237,263.339 243.902,295.023 243.555,297.654C243.027,301.68 245.862,305.374 249.886,305.905C253.915,306.435 257.609,303.6 258.137,299.574C258.483,296.943 259.599,264.439 260.329,242.217C260.41,239.743 256.846,239.274 256.284,241.685Z" style="fill:#e7e7e7;fill-rule:nonzero;"/>
                </g>
            </g>
            <g id="C2B21" serif:id="C2B2" sound="Song/08-Petals-C2B2" autoplay="true">
                <path d="M262.125,120.005C281.038,120.269 299.851,127.742 314.066,142.36L339.823,168.846C354.278,183.71 361.214,203.119 360.699,222.345L261.436,222.166L262.125,120.005Z" style="fill:#488e61;stroke:#fff;stroke-width:1.67px;"/>
                <path d="M360.699,222.345C360.202,240.936 352.737,259.356 338.364,273.333L311.878,299.09C297.631,312.943 279.211,319.891 260.777,319.992L261.436,222.166L360.699,222.345Z" style="fill:#488e61;stroke:#fff;stroke-width:1.67px;"/>
                <path d="M262.231,222.345L359.831,222.345" style="fill:none;stroke:#488e61;stroke-width:4.17px;stroke-linecap:butt;"/>
                <g id="q2">
                    <path d="M268.674,280.074C267.528,280.225 266.471,279.414 266.32,278.266C266.169,277.116 266.98,276.059 268.126,275.908C269.276,275.757 270.333,276.568 270.485,277.717C270.636,278.865 269.825,279.923 268.674,280.074ZM273.226,286.469C273.491,288.479 272.07,290.329 270.059,290.594C268.052,290.858 266.201,289.438 265.937,287.428C265.672,285.418 267.093,283.568 269.099,283.303C271.11,283.039 272.961,284.459 273.226,286.469ZM271.746,303.405C269.107,303.753 266.674,301.886 266.326,299.245C265.979,296.603 267.845,294.17 270.484,293.823C273.128,293.475 275.56,295.341 275.908,297.983C276.256,300.625 274.389,303.057 271.746,303.405ZM261.636,242.217C262.367,264.439 263.48,296.943 263.826,299.574C264.356,303.6 268.049,306.435 272.075,305.905C276.101,305.375 278.939,301.681 278.409,297.654C278.062,295.023 270.725,263.339 265.679,241.685C265.116,239.273 261.555,239.742 261.636,242.217Z" style="fill:#e7e7e7;fill-rule:nonzero;"/>
                    <path d="M292.545,297.832C290.082,298.852 287.251,297.679 286.23,295.217C285.212,292.755 286.383,289.923 288.847,288.903C291.31,287.883 294.141,289.057 295.158,291.519C296.18,293.98 295.009,296.812 292.545,297.832ZM282.798,283.904C282.02,282.031 282.911,279.876 284.784,279.1C286.657,278.325 288.812,279.218 289.59,281.09C290.368,282.963 289.473,285.118 287.6,285.894C285.727,286.67 283.572,285.778 282.798,283.904ZM280.794,274.954C280.35,273.884 280.86,272.653 281.931,272.21C283.001,271.766 284.234,272.276 284.678,273.346C285.122,274.417 284.612,275.648 283.541,276.092C282.471,276.535 281.238,276.025 280.794,274.954ZM270.707,239.786C269.54,237.602 266.223,238.977 266.941,241.347C273.398,262.622 282.884,293.731 283.9,296.182C285.456,299.934 289.757,301.716 293.512,300.161C297.262,298.607 299.044,294.305 297.488,290.554C296.476,288.102 281.186,259.396 270.707,239.786Z" style="fill:#e7e7e7;fill-rule:nonzero;"/>
                    <path d="M311.192,287.066C309.077,288.689 306.037,288.289 304.414,286.175C302.795,284.06 303.192,281.021 305.306,279.399C307.421,277.777 310.461,278.177 312.084,280.291C313.707,282.405 313.306,285.444 311.192,287.066ZM298.171,276.137C296.934,274.528 297.24,272.215 298.849,270.981C300.459,269.747 302.769,270.051 304.005,271.66C305.238,273.268 304.932,275.581 303.327,276.815C301.718,278.049 299.404,277.745 298.171,276.137ZM293.918,268.01C293.216,267.09 293.391,265.769 294.306,265.064C295.226,264.359 296.548,264.532 297.254,265.452C297.96,266.371 297.785,267.692 296.866,268.398C295.946,269.103 294.624,268.929 293.918,268.01ZM275.075,236.65C273.384,234.843 270.531,237.03 271.841,239.132C283.585,258.011 300.799,285.604 302.417,287.709C304.887,290.932 309.502,291.539 312.725,289.067C315.947,286.594 316.556,281.978 314.086,278.756C312.468,276.651 290.271,252.88 275.075,236.65Z" style="fill:#e7e7e7;fill-rule:nonzero;"/>
                    <path d="M326.417,271.842C324.795,273.955 321.756,274.355 319.642,272.734C317.528,271.111 317.128,268.072 318.75,265.958C320.372,263.844 323.411,263.444 325.525,265.066C327.639,266.688 328.039,269.728 326.417,271.842ZM316.165,263.976C314.933,265.584 312.62,265.888 311.009,264.654C309.402,263.42 309.098,261.107 310.33,259.499C311.567,257.89 313.88,257.586 315.486,258.82C317.097,260.054 317.401,262.367 316.165,263.976ZM307.75,257.516C307.041,258.436 305.719,258.61 304.8,257.904C303.882,257.199 303.708,255.877 304.413,254.958C305.117,254.039 306.439,253.865 307.362,254.57C308.28,255.275 308.454,256.597 307.75,257.516ZM278.482,232.491C276.38,231.183 274.195,234.033 275.999,235.726C292.229,250.922 315.999,273.119 318.104,274.734C321.326,277.206 325.944,276.599 328.416,273.377C330.888,270.154 330.281,265.538 327.059,263.066C324.954,261.45 297.361,244.234 278.482,232.491Z" style="fill:#e7e7e7;fill-rule:nonzero;"/>
                    <path d="M337.183,253.195C336.163,255.657 333.33,256.83 330.867,255.81C328.405,254.791 327.235,251.958 328.252,249.497C329.272,247.035 332.105,245.861 334.568,246.881C337.03,247.901 338.204,250.733 337.183,253.195ZM325.245,248.25C324.467,250.124 322.314,251.016 320.44,250.24C318.566,249.464 317.676,247.308 318.451,245.436C319.225,243.563 321.382,242.67 323.256,243.446C325.126,244.222 326.019,246.377 325.245,248.25ZM315.44,244.19C315,245.26 313.768,245.77 312.697,245.327C311.626,244.884 311.116,243.652 311.56,242.581C312.004,241.511 313.236,241.001 314.303,241.445C315.373,241.888 315.884,243.119 315.44,244.19ZM335.531,244.552C333.082,243.536 301.971,234.048 280.696,227.591C278.327,226.872 276.951,230.191 279.138,231.358C298.747,241.836 327.451,257.124 329.904,258.14C333.657,259.693 337.958,257.912 339.51,254.16C341.066,250.408 339.283,246.106 335.531,244.552Z" style="fill:#e7e7e7;fill-rule:nonzero;"/>
                    <path d="M342.753,232.397C342.408,235.039 339.977,236.905 337.333,236.557C334.69,236.21 332.826,233.777 333.171,231.136C333.521,228.494 335.951,226.628 338.595,226.975C341.238,227.323 343.102,229.755 342.753,232.397ZM329.945,230.711C329.678,232.721 327.828,234.141 325.818,233.876C323.808,233.612 322.389,231.761 322.652,229.751C322.918,227.74 324.769,226.32 326.779,226.585C328.789,226.85 330.207,228.701 329.945,230.711ZM319.426,229.326C319.274,230.474 318.215,231.286 317.066,231.134C315.917,230.983 315.106,229.926 315.258,228.777C315.409,227.629 316.468,226.817 317.617,226.968C318.766,227.119 319.577,228.177 319.426,229.326ZM338.926,224.475C336.295,224.129 303.789,223.016 281.566,222.285C279.094,222.204 278.622,225.767 281.036,226.328C302.69,231.374 334.372,238.711 337.003,239.057C341.031,239.587 344.725,236.753 345.253,232.727C345.785,228.7 342.95,225.006 338.926,224.475Z" style="fill:#e7e7e7;fill-rule:nonzero;"/>
                </g>
                <g id="q1">
                    <path d="M338.595,216.288C335.951,216.636 333.519,214.77 333.171,212.128C332.823,209.486 334.69,207.053 337.333,206.705C339.976,206.357 342.409,208.224 342.757,210.866C343.105,213.508 341.238,215.94 338.595,216.288ZM326.778,216.678C324.767,216.943 322.92,215.522 322.655,213.512C322.391,211.502 323.807,209.652 325.818,209.387C327.829,209.122 329.68,210.542 329.944,212.552C330.209,214.562 328.789,216.414 326.778,216.678ZM317.614,216.294C316.468,216.445 315.411,215.634 315.26,214.486C315.109,213.337 315.92,212.279 317.066,212.129C318.216,211.977 319.273,212.789 319.425,213.937C319.576,215.086 318.765,216.143 317.614,216.294ZM337.004,204.206C334.373,204.552 302.689,211.889 281.036,216.935C278.624,217.497 279.093,221.059 281.568,220.977C303.789,220.247 336.293,219.134 338.924,218.787C342.95,218.257 345.783,214.563 345.253,210.537C344.723,206.51 341.03,203.676 337.004,204.206Z" style="fill:#e7e7e7;fill-rule:nonzero;"/>
                    <path d="M337.18,190.068C338.202,192.53 337.031,195.362 334.567,196.382C332.104,197.402 329.273,196.229 328.251,193.767C327.234,191.305 328.405,188.472 330.869,187.453C333.332,186.433 336.163,187.606 337.18,190.068ZM323.255,199.817C321.382,200.593 319.227,199.7 318.449,197.827C317.675,195.954 318.566,193.799 320.439,193.023C322.312,192.247 324.467,193.14 325.245,195.013C326.019,196.886 325.128,199.041 323.255,199.817ZM314.306,201.818C313.236,202.261 312.002,201.751 311.559,200.682C311.115,199.611 311.625,198.38 312.695,197.936C313.766,197.493 314.999,198.003 315.443,199.073C315.887,200.143 315.376,201.375 314.306,201.818ZM279.137,211.905C276.95,213.072 278.329,216.391 280.695,215.672C301.972,209.215 333.082,199.727 335.534,198.711C339.284,197.157 341.066,192.855 339.51,189.104C337.958,185.351 333.656,183.569 329.902,185.124C327.451,186.139 298.747,201.427 279.137,211.905Z" style="fill:#e7e7e7;fill-rule:nonzero;"/>
                    <path d="M304.802,185.359C305.722,184.653 307.044,184.827 307.746,185.747C308.452,186.666 308.277,187.988 307.358,188.693C306.442,189.398 305.12,189.224 304.414,188.304C303.708,187.386 303.883,186.064 304.802,185.359ZM311.01,178.609C312.619,177.374 314.929,177.68 316.166,179.287C317.399,180.896 317.093,183.209 315.488,184.443C313.878,185.677 311.564,185.373 310.331,183.764C309.099,182.155 309.4,179.843 311.01,178.609ZM319.64,170.529C321.754,168.907 324.795,169.307 326.418,171.421C328.04,173.535 327.64,176.575 325.525,178.197C323.411,179.819 320.37,179.419 318.748,177.305C317.129,175.191 317.525,172.152 319.64,170.529ZM278.482,210.772C297.361,199.029 324.956,181.812 327.058,180.198C330.281,177.725 330.889,173.109 328.415,169.887C325.945,166.664 321.329,166.057 318.107,168.529C316,170.145 292.231,192.341 276.002,207.537C274.191,209.23 276.38,212.08 278.482,210.772Z" style="fill:#e7e7e7;fill-rule:nonzero;"/>
                    <path d="M293.919,175.253C294.624,174.334 295.946,174.16 296.868,174.865C297.787,175.57 297.961,176.892 297.256,177.811C296.547,178.731 295.226,178.905 294.307,178.199C293.388,177.494 293.214,176.172 293.919,175.253ZM298.169,167.126C299.406,165.518 301.719,165.213 303.325,166.448C304.936,167.682 305.24,169.994 304.004,171.603C302.772,173.211 300.459,173.516 298.848,172.282C297.241,171.047 296.937,168.735 298.169,167.126ZM304.417,157.089C306.039,154.974 309.078,154.574 311.192,156.197C313.306,157.818 313.706,160.858 312.084,162.972C310.462,165.086 307.423,165.486 305.309,163.864C303.195,162.242 302.795,159.202 304.417,157.089ZM275.075,206.613C290.272,190.383 312.468,166.612 314.083,164.507C316.555,161.285 315.948,156.669 312.726,154.196C309.504,151.724 304.886,152.332 302.414,155.554C300.799,157.659 283.583,185.251 271.839,204.131C270.535,206.233 273.383,208.42 275.075,206.613Z" style="fill:#e7e7e7;fill-rule:nonzero;"/>
                    <path d="M280.792,168.309C281.236,167.238 282.468,166.728 283.539,167.171C284.61,167.615 285.121,168.846 284.677,169.917C284.232,170.987 283.001,171.497 281.93,171.054C280.863,170.61 280.352,169.379 280.792,168.309ZM282.797,159.358C283.571,157.485 285.728,156.593 287.602,157.368C289.472,158.144 290.365,160.3 289.591,162.172C288.813,164.046 286.66,164.938 284.786,164.162C282.912,163.387 282.018,161.232 282.797,159.358ZM286.229,148.046C287.25,145.584 290.083,144.411 292.545,145.431C295.007,146.45 296.181,149.283 295.161,151.745C294.14,154.207 291.307,155.38 288.845,154.36C286.383,153.341 285.213,150.508 286.229,148.046ZM270.707,203.477C281.185,183.867 296.474,155.161 297.491,152.709C299.043,148.958 297.261,144.656 293.508,143.102C289.756,141.548 285.455,143.329 283.903,147.081C282.885,149.533 273.399,180.641 266.941,201.916C266.22,204.286 269.542,205.66 270.707,203.477Z" style="fill:#e7e7e7;fill-rule:nonzero;"/>
                    <path d="M266.318,164.997C266.47,163.849 267.529,163.037 268.677,163.188C269.826,163.339 270.638,164.397 270.486,165.546C270.334,166.694 269.275,167.506 268.126,167.355C266.978,167.203 266.166,166.146 266.318,164.997ZM265.937,155.834C266.2,153.825 268.05,152.405 270.06,152.669C272.071,152.934 273.493,154.784 273.226,156.795C272.96,158.804 271.109,160.225 269.099,159.96C267.089,159.695 265.671,157.844 265.937,155.834ZM266.324,144.019C266.673,141.377 269.104,139.51 271.748,139.858C274.391,140.206 276.255,142.638 275.906,145.28C275.56,147.922 273.13,149.788 270.486,149.44C267.843,149.093 265.979,146.66 266.324,144.019ZM265.677,201.578C270.723,179.924 278.063,148.24 278.406,145.609C278.938,141.582 276.103,137.889 272.078,137.358C268.05,136.828 264.356,139.663 263.824,143.69C263.477,146.32 262.366,178.824 261.636,201.046C261.555,203.52 265.115,203.99 265.677,201.578Z" style="fill:#e7e7e7;fill-rule:nonzero;"/>
                </g>
            </g>
        </g>
    </g>
    <g id="Map" sound="Map/C2B2" loop="false" autoplay="true">
        <g id="Frame">
            <rect x="1471.88" y="41.542" width="190" height="190" style="fill:#fff;"/>
            <rect x="1471.88" y="41.542" width="190" height="190" style="fill:none;stroke:#000;stroke-width:1.17px;stroke-linejoin:bevel;"/>
            <rect x="1523.76" y="93.417" width="86.25" height="86.25" style="fill:none;stroke:#000;stroke-width:1.25px;stroke-linejoin:bevel;"/>
            <path d="M1610.01,93.417L1661.88,41.75" style="fill:none;stroke:#000;stroke-width:1.25px;stroke-linejoin:bevel;"/>
            <path d="M1523.76,93.417L1472.3,41.75" style="fill:none;stroke:#000;stroke-width:1.25px;stroke-linejoin:bevel;"/>
            <path d="M1523.76,179.667L1471.88,231.542" style="fill:none;stroke:#000;stroke-width:1.25px;stroke-linejoin:bevel;"/>
            <path d="M1610.01,179.667L1661.88,231.542" style="fill:none;stroke:#000;stroke-width:1.25px;stroke-linejoin:bevel;"/>
        </g>
        <g id="Dots">
            <circle cx="1471.88" cy="231.5" r="1.5" style="stroke:#000;stroke-width:1.25px;stroke-linejoin:bevel;"/>
            <circle cx="1566.58" cy="231.625" r="1.5" style="stroke:#000;stroke-width:1.25px;stroke-linejoin:bevel;"/>
            <circle cx="1661.88" cy="231.5" r="1.5" style="stroke:#000;stroke-width:1.25px;stroke-linejoin:bevel;"/>
            <circle cx="1634.23" cy="203.667" r="1.5" style="stroke:#000;stroke-width:1.25px;stroke-linejoin:bevel;"/>
            <circle cx="1610.01" cy="179.5" r="1.5" style="stroke:#000;stroke-width:1.25px;stroke-linejoin:bevel;"/>
            <circle cx="1609.58" cy="136.625" r="1.5" style="stroke:#000;stroke-width:1.25px;stroke-linejoin:bevel;"/>
            <circle cx="1609.7" cy="93.375" r="1.5" style="stroke:#000;stroke-width:1.25px;stroke-linejoin:bevel;"/>
            <circle cx="1634.14" cy="69.167" r="1.5" style="stroke:#000;stroke-width:1.25px;stroke-linejoin:bevel;"/>
            <circle cx="1566.58" cy="93.375" r="1.5" style="stroke:#000;stroke-width:1.25px;stroke-linejoin:bevel;"/>
            <circle cx="1523.45" cy="93.5" r="1.5" style="stroke:#000;stroke-width:1.25px;stroke-linejoin:bevel;"/>
            <circle cx="1566.88" cy="41.5" r="1.5" style="stroke:#000;stroke-width:1.25px;stroke-linejoin:bevel;"/>
            <circle cx="1471.88" cy="41.542" r="1.5" style="stroke:#000;stroke-width:1.25px;stroke-linejoin:bevel;"/>
            <circle cx="1499.73" cy="69.5" r="1.5" style="stroke:#000;stroke-width:1.25px;stroke-linejoin:bevel;"/>
            <circle cx="1471.88" cy="136.542" r="1.5" style="stroke:#000;stroke-width:1.25px;stroke-linejoin:bevel;"/>
            <circle cx="1523.76" cy="136.542" r="1.5" style="stroke:#000;stroke-width:1.25px;stroke-linejoin:bevel;"/>
            <circle cx="1566.38" cy="179.667" r="1.5" style="stroke:#000;stroke-width:1.25px;stroke-linejoin:bevel;"/>
            <circle cx="1523.73" cy="179.5" r="1.5" style="stroke:#000;stroke-width:1.25px;stroke-linejoin:bevel;"/>
            <circle cx="1499.53" cy="204" r="1.5" style="stroke:#000;stroke-width:1.25px;stroke-linejoin:bevel;"/>
            <circle cx="1661.88" cy="136.542" r="1.5" style="stroke:#000;stroke-width:1.25px;stroke-linejoin:bevel;"/>
            <circle cx="1661.88" cy="41.65" r="1.5" style="stroke:#000;stroke-width:1.25px;stroke-linejoin:bevel;"/>
        </g>
        <g>
            <path d="M1610.13,136.542L1609.61,93.417" style="fill:none;stroke:#488e61;stroke-width:5.99px;"/>
        </g>
        <circle cx="1610.01" cy="93.417" r="6.364" style="fill:#fff;stroke:#488e61;stroke-width:5.99px;"/>
        <g id="_82" serif:id="8">
            <circle cx="1609.77" cy="136.75" r="15.75" style="fill:#fff;stroke:#fff;stroke-width:1.46px;"/>
            <g id="q41" serif:id="q4">
                <path d="M1608.41,126.187C1608.61,126.16 1608.8,126.303 1608.82,126.506C1608.85,126.708 1608.71,126.895 1608.51,126.922C1608.3,126.948 1608.12,126.805 1608.09,126.602C1608.06,126.4 1608.21,126.213 1608.41,126.187ZM1607.61,125.058C1607.56,124.703 1607.81,124.377 1608.16,124.33C1608.52,124.284 1608.85,124.534 1608.89,124.889C1608.94,125.243 1608.69,125.57 1608.33,125.617C1607.98,125.663 1607.65,125.413 1607.61,125.058ZM1607.87,122.069C1608.33,122.008 1608.76,122.337 1608.82,122.804C1608.88,123.27 1608.56,123.699 1608.09,123.76C1607.62,123.822 1607.19,123.492 1607.13,123.026C1607.07,122.56 1607.4,122.131 1607.87,122.069ZM1609.65,132.867C1609.52,128.946 1609.33,123.21 1609.26,122.745C1609.17,122.035 1608.52,121.535 1607.81,121.628C1607.1,121.722 1606.6,122.374 1606.69,123.084C1606.75,123.548 1608.05,129.14 1608.94,132.961C1609.04,133.387 1609.66,133.304 1609.65,132.867Z" style="fill:#733c52;fill-rule:nonzero;"/>
                <path d="M1604.2,123.053C1604.63,122.873 1605.13,123.08 1605.31,123.514C1605.49,123.949 1605.28,124.449 1604.85,124.629C1604.41,124.809 1603.91,124.601 1603.73,124.167C1603.56,123.733 1603.76,123.233 1604.2,123.053ZM1605.92,125.511C1606.05,125.841 1605.9,126.222 1605.57,126.358C1605.24,126.495 1604.85,126.338 1604.72,126.007C1604.58,125.677 1604.74,125.296 1605.07,125.159C1605.4,125.023 1605.78,125.18 1605.92,125.511ZM1606.27,127.09C1606.35,127.279 1606.26,127.496 1606.07,127.575C1605.88,127.653 1605.66,127.563 1605.59,127.374C1605.51,127.185 1605.6,126.968 1605.79,126.889C1605.97,126.811 1606.19,126.901 1606.27,127.09ZM1608.05,133.296C1608.26,133.682 1608.84,133.439 1608.72,133.021C1607.58,129.266 1605.9,123.777 1605.72,123.344C1605.45,122.682 1604.69,122.367 1604.03,122.642C1603.36,122.916 1603.05,123.675 1603.32,124.337C1603.5,124.77 1606.2,129.836 1608.05,133.296Z" style="fill:#733c52;fill-rule:nonzero;"/>
                <path d="M1600.91,124.953C1601.28,124.666 1601.82,124.737 1602.1,125.11C1602.39,125.483 1602.32,126.02 1601.94,126.306C1601.57,126.592 1601.04,126.521 1600.75,126.148C1600.46,125.775 1600.53,125.239 1600.91,124.953ZM1603.2,126.881C1603.42,127.165 1603.37,127.573 1603.08,127.791C1602.8,128.009 1602.39,127.955 1602.17,127.671C1601.96,127.388 1602.01,126.979 1602.29,126.762C1602.58,126.544 1602.99,126.598 1603.2,126.881ZM1603.95,128.316C1604.08,128.478 1604.05,128.711 1603.88,128.835C1603.72,128.96 1603.49,128.929 1603.37,128.767C1603.24,128.605 1603.27,128.372 1603.43,128.247C1603.6,128.123 1603.83,128.153 1603.95,128.316ZM1607.28,133.85C1607.58,134.169 1608.08,133.783 1607.85,133.412C1605.78,130.08 1602.74,125.211 1602.45,124.839C1602.02,124.271 1601.2,124.163 1600.63,124.6C1600.07,125.036 1599.96,125.851 1600.39,126.419C1600.68,126.791 1604.6,130.986 1607.28,133.85Z" style="fill:#733c52;fill-rule:nonzero;"/>
                <path d="M1598.22,127.639C1598.51,127.266 1599.04,127.196 1599.41,127.482C1599.79,127.768 1599.86,128.305 1599.57,128.678C1599.29,129.051 1598.75,129.121 1598.38,128.835C1598,128.549 1597.93,128.012 1598.22,127.639ZM1600.03,129.028C1600.25,128.744 1600.65,128.69 1600.94,128.908C1601.22,129.126 1601.28,129.534 1601.06,129.818C1600.84,130.101 1600.43,130.155 1600.15,129.937C1599.86,129.719 1599.81,129.311 1600.03,129.028ZM1601.51,130.167C1601.64,130.005 1601.87,129.974 1602.03,130.099C1602.19,130.223 1602.23,130.457 1602.1,130.619C1601.98,130.781 1601.74,130.812 1601.58,130.687C1601.42,130.563 1601.39,130.33 1601.51,130.167ZM1606.68,134.584C1607.05,134.814 1607.43,134.311 1607.12,134.013C1604.25,131.331 1600.06,127.414 1599.68,127.129C1599.12,126.693 1598.3,126.8 1597.87,127.369C1597.43,127.937 1597.54,128.752 1598.11,129.188C1598.48,129.473 1603.35,132.511 1606.68,134.584Z" style="fill:#733c52;fill-rule:nonzero;"/>
                <path d="M1596.32,130.93C1596.5,130.496 1597,130.289 1597.43,130.468C1597.87,130.648 1598.08,131.148 1597.89,131.583C1597.71,132.017 1597.22,132.224 1596.78,132.044C1596.35,131.864 1596.14,131.364 1596.32,130.93ZM1598.43,131.803C1598.56,131.472 1598.94,131.315 1599.27,131.451C1599.6,131.588 1599.76,131.969 1599.62,132.299C1599.49,132.63 1599.11,132.787 1598.78,132.65C1598.45,132.513 1598.29,132.133 1598.43,131.803ZM1600.15,132.519C1600.23,132.33 1600.45,132.24 1600.64,132.319C1600.83,132.397 1600.92,132.614 1600.84,132.803C1600.76,132.992 1600.55,133.082 1600.36,133.004C1600.17,132.925 1600.08,132.708 1600.15,132.519ZM1596.61,132.455C1597.04,132.634 1602.53,134.309 1606.29,135.448C1606.7,135.575 1606.95,134.989 1606.56,134.784C1603.1,132.934 1598.04,130.237 1597.6,130.057C1596.94,129.783 1596.18,130.097 1595.91,130.76C1595.63,131.422 1595.95,132.181 1596.61,132.455Z" style="fill:#733c52;fill-rule:nonzero;"/>
                <path d="M1595.34,134.6C1595.4,134.134 1595.83,133.805 1596.29,133.866C1596.76,133.927 1597.09,134.357 1597.03,134.823C1596.97,135.289 1596.54,135.618 1596.07,135.557C1595.6,135.496 1595.27,135.066 1595.34,134.6ZM1597.6,134.898C1597.64,134.543 1597.97,134.293 1598.32,134.339C1598.68,134.386 1598.93,134.712 1598.88,135.067C1598.84,135.422 1598.51,135.672 1598.15,135.626C1597.8,135.579 1597.55,135.253 1597.6,134.898ZM1599.45,135.142C1599.48,134.939 1599.67,134.796 1599.87,134.823C1600.07,134.85 1600.21,135.036 1600.19,135.239C1600.16,135.442 1599.98,135.585 1599.77,135.558C1599.57,135.532 1599.43,135.345 1599.45,135.142ZM1596.01,135.998C1596.48,136.059 1602.21,136.256 1606.13,136.385C1606.57,136.399 1606.65,135.77 1606.23,135.671C1602.41,134.781 1596.81,133.486 1596.35,133.425C1595.64,133.331 1594.99,133.832 1594.89,134.542C1594.8,135.253 1595.3,135.905 1596.01,135.998Z" style="fill:#733c52;fill-rule:nonzero;"/>
            </g>
            <g id="q31" serif:id="q3">
                <path d="M1595.34,138.4C1595.27,137.934 1595.6,137.504 1596.07,137.443C1596.54,137.382 1596.97,137.711 1597.03,138.177C1597.09,138.643 1596.76,139.073 1596.29,139.134C1595.83,139.195 1595.4,138.866 1595.34,138.4ZM1598.15,137.374C1598.51,137.328 1598.84,137.578 1598.88,137.933C1598.93,138.288 1598.68,138.614 1598.32,138.661C1597.97,138.708 1597.64,138.457 1597.6,138.102C1597.55,137.747 1597.8,137.421 1598.15,137.374ZM1599.77,137.442C1599.98,137.415 1600.16,137.558 1600.19,137.761C1600.22,137.964 1600.07,138.15 1599.87,138.177C1599.67,138.204 1599.48,138.06 1599.45,137.858C1599.43,137.655 1599.57,137.468 1599.77,137.442ZM1606.23,137.329C1606.65,137.23 1606.57,136.601 1606.13,136.615C1602.21,136.744 1596.48,136.941 1596.01,137.002C1595.3,137.095 1594.8,137.747 1594.89,138.458C1594.99,139.168 1595.64,139.669 1596.35,139.575C1596.82,139.514 1602.41,138.219 1606.23,137.329Z" style="fill:#733c52;fill-rule:nonzero;"/>
                <path d="M1596.32,142.07C1596.14,141.636 1596.35,141.136 1596.78,140.956C1597.22,140.776 1597.72,140.983 1597.89,141.417C1598.08,141.852 1597.87,142.352 1597.43,142.531C1597,142.711 1596.5,142.504 1596.32,142.07ZM1598.78,140.35C1599.11,140.213 1599.49,140.37 1599.62,140.701C1599.76,141.031 1599.6,141.412 1599.27,141.549C1598.94,141.686 1598.56,141.528 1598.43,141.197C1598.29,140.867 1598.45,140.486 1598.78,140.35ZM1600.36,139.996C1600.55,139.918 1600.76,140.008 1600.84,140.197C1600.92,140.386 1600.83,140.603 1600.64,140.681C1600.45,140.76 1600.23,140.67 1600.16,140.481C1600.08,140.292 1600.17,140.075 1600.36,139.996ZM1606.56,138.216C1606.95,138.011 1606.7,137.425 1606.29,137.552C1602.53,138.691 1597.04,140.366 1596.61,140.545C1595.95,140.819 1595.63,141.578 1595.91,142.24C1596.18,142.902 1596.94,143.217 1597.6,142.943C1598.04,142.763 1603.1,140.066 1606.56,138.216Z" style="fill:#733c52;fill-rule:nonzero;"/>
                <path d="M1602.03,142.901C1601.87,143.025 1601.64,142.995 1601.51,142.833C1601.39,142.67 1601.42,142.437 1601.58,142.313C1601.74,142.188 1601.98,142.219 1602.1,142.381C1602.23,142.543 1602.2,142.777 1602.03,142.901ZM1600.94,144.092C1600.65,144.31 1600.25,144.256 1600.03,143.972C1599.81,143.689 1599.86,143.281 1600.15,143.063C1600.43,142.845 1600.84,142.899 1601.06,143.182C1601.28,143.466 1601.22,143.874 1600.94,144.092ZM1599.41,145.518C1599.04,145.804 1598.51,145.734 1598.22,145.361C1597.93,144.988 1598,144.451 1598.38,144.165C1598.75,143.879 1599.29,143.949 1599.57,144.322C1599.86,144.695 1599.79,145.232 1599.41,145.518ZM1606.68,138.416C1603.35,140.489 1598.48,143.527 1598.11,143.812C1597.54,144.248 1597.43,145.063 1597.87,145.632C1598.3,146.2 1599.12,146.307 1599.68,145.871C1600.06,145.586 1604.25,141.669 1607.12,138.987C1607.43,138.689 1607.05,138.186 1606.68,138.416Z" style="fill:#733c52;fill-rule:nonzero;"/>
                <path d="M1603.95,144.684C1603.83,144.847 1603.6,144.877 1603.43,144.753C1603.27,144.628 1603.24,144.395 1603.37,144.233C1603.49,144.071 1603.72,144.04 1603.88,144.165C1604.05,144.289 1604.08,144.522 1603.95,144.684ZM1603.2,146.119C1602.99,146.402 1602.58,146.456 1602.29,146.238C1602.01,146.021 1601.96,145.612 1602.17,145.329C1602.39,145.045 1602.8,144.991 1603.08,145.209C1603.37,145.427 1603.42,145.835 1603.2,146.119ZM1602.1,147.89C1601.82,148.263 1601.28,148.334 1600.91,148.047C1600.53,147.761 1600.46,147.225 1600.75,146.852C1601.04,146.479 1601.57,146.408 1601.94,146.694C1602.32,146.981 1602.39,147.517 1602.1,147.89ZM1607.28,139.15C1604.6,142.014 1600.68,146.209 1600.39,146.581C1599.96,147.149 1600.07,147.964 1600.63,148.4C1601.2,148.837 1602.02,148.729 1602.45,148.161C1602.74,147.789 1605.78,142.92 1607.85,139.588C1608.08,139.217 1607.58,138.831 1607.28,139.15Z" style="fill:#733c52;fill-rule:nonzero;"/>
                <path d="M1606.27,145.91C1606.19,146.099 1605.97,146.189 1605.79,146.111C1605.6,146.032 1605.51,145.815 1605.59,145.626C1605.66,145.437 1605.88,145.347 1606.07,145.426C1606.26,145.504 1606.35,145.721 1606.27,145.91ZM1605.92,147.489C1605.78,147.82 1605.4,147.977 1605.07,147.84C1604.74,147.704 1604.58,147.323 1604.72,146.993C1604.85,146.662 1605.24,146.505 1605.57,146.642C1605.9,146.779 1606.05,147.159 1605.92,147.489ZM1605.31,149.486C1605.13,149.92 1604.63,150.127 1604.2,149.947C1603.76,149.767 1603.56,149.267 1603.74,148.833C1603.91,148.399 1604.41,148.192 1604.85,148.371C1605.28,148.551 1605.49,149.051 1605.31,149.486ZM1608.05,139.704C1606.2,143.164 1603.5,148.23 1603.32,148.663C1603.05,149.325 1603.36,150.084 1604.03,150.358C1604.69,150.633 1605.45,150.318 1605.72,149.656C1605.9,149.223 1607.58,143.734 1608.72,139.979C1608.84,139.561 1608.26,139.318 1608.05,139.704Z" style="fill:#733c52;fill-rule:nonzero;"/>
                <path d="M1608.82,146.494C1608.8,146.697 1608.61,146.84 1608.41,146.813C1608.21,146.787 1608.06,146.6 1608.09,146.397C1608.12,146.195 1608.3,146.052 1608.51,146.078C1608.71,146.105 1608.85,146.292 1608.82,146.494ZM1608.89,148.111C1608.85,148.466 1608.52,148.717 1608.16,148.67C1607.81,148.623 1607.56,148.297 1607.61,147.942C1607.65,147.587 1607.98,147.337 1608.33,147.383C1608.69,147.43 1608.94,147.757 1608.89,148.111ZM1608.82,150.197C1608.76,150.663 1608.33,150.992 1607.87,150.931C1607.4,150.869 1607.07,150.44 1607.13,149.974C1607.19,149.508 1607.62,149.178 1608.09,149.24C1608.56,149.301 1608.88,149.73 1608.82,150.197ZM1608.94,140.039C1608.05,143.86 1606.75,149.451 1606.69,149.916C1606.6,150.626 1607.1,151.278 1607.81,151.372C1608.52,151.465 1609.17,150.965 1609.26,150.254C1609.33,149.79 1609.52,144.054 1609.65,140.133C1609.66,139.696 1609.04,139.613 1608.94,140.039Z" style="fill:#733c52;fill-rule:nonzero;"/>
            </g>
            <g id="q21" serif:id="q2">
                <path d="M1611.12,146.813C1610.92,146.84 1610.74,146.697 1610.71,146.494C1610.68,146.291 1610.83,146.105 1611.03,146.078C1611.23,146.052 1611.42,146.195 1611.44,146.397C1611.47,146.6 1611.33,146.787 1611.12,146.813ZM1611.93,147.942C1611.97,148.297 1611.72,148.623 1611.37,148.67C1611.01,148.717 1610.69,148.466 1610.64,148.111C1610.59,147.756 1610.85,147.43 1611.2,147.383C1611.55,147.337 1611.88,147.587 1611.93,147.942ZM1611.67,150.931C1611.2,150.992 1610.77,150.663 1610.71,150.196C1610.65,149.73 1610.98,149.301 1611.44,149.24C1611.91,149.178 1612.34,149.508 1612.4,149.974C1612.46,150.44 1612.13,150.869 1611.67,150.931ZM1609.88,140.133C1610.01,144.054 1610.21,149.79 1610.27,150.255C1610.36,150.965 1611.01,151.465 1611.72,151.372C1612.43,151.278 1612.93,150.626 1612.84,149.916C1612.78,149.451 1611.49,143.86 1610.6,140.039C1610.5,139.613 1609.87,139.696 1609.88,140.133Z" style="fill:#733c52;fill-rule:nonzero;"/>
                <path d="M1615.34,149.947C1614.9,150.127 1614.4,149.92 1614.22,149.486C1614.04,149.051 1614.25,148.551 1614.68,148.371C1615.12,148.191 1615.62,148.399 1615.8,148.833C1615.98,149.267 1615.77,149.767 1615.34,149.947ZM1613.62,147.489C1613.48,147.159 1613.64,146.778 1613.97,146.642C1614.3,146.505 1614.68,146.662 1614.82,146.993C1614.95,147.323 1614.79,147.704 1614.46,147.84C1614.13,147.977 1613.75,147.82 1613.62,147.489ZM1613.26,145.91C1613.18,145.721 1613.27,145.504 1613.46,145.426C1613.65,145.347 1613.87,145.437 1613.95,145.626C1614.03,145.815 1613.94,146.032 1613.75,146.111C1613.56,146.189 1613.34,146.099 1613.26,145.91ZM1611.48,139.704C1611.28,139.318 1610.69,139.561 1610.82,139.979C1611.96,143.734 1613.63,149.223 1613.81,149.656C1614.09,150.318 1614.84,150.633 1615.51,150.358C1616.17,150.084 1616.48,149.325 1616.21,148.663C1616.03,148.23 1613.33,143.164 1611.48,139.704Z" style="fill:#733c52;fill-rule:nonzero;"/>
                <path d="M1618.63,148.047C1618.25,148.334 1617.72,148.263 1617.43,147.89C1617.14,147.517 1617.22,146.981 1617.59,146.694C1617.96,146.408 1618.5,146.479 1618.78,146.852C1619.07,147.225 1619,147.761 1618.63,148.047ZM1616.33,146.119C1616.11,145.835 1616.16,145.427 1616.45,145.209C1616.73,144.991 1617.14,145.045 1617.36,145.328C1617.58,145.612 1617.52,146.021 1617.24,146.238C1616.95,146.456 1616.55,146.402 1616.33,146.119ZM1615.58,144.684C1615.45,144.522 1615.49,144.289 1615.65,144.165C1615.81,144.04 1616.04,144.071 1616.17,144.233C1616.29,144.395 1616.26,144.628 1616.1,144.753C1615.94,144.877 1615.7,144.847 1615.58,144.684ZM1612.25,139.15C1611.95,138.831 1611.45,139.217 1611.68,139.588C1613.76,142.92 1616.79,147.789 1617.08,148.161C1617.51,148.729 1618.33,148.837 1618.9,148.4C1619.47,147.964 1619.57,147.149 1619.14,146.581C1618.85,146.209 1614.93,142.014 1612.25,139.15Z" style="fill:#733c52;fill-rule:nonzero;"/>
                <path d="M1621.31,145.361C1621.03,145.734 1620.49,145.804 1620.12,145.518C1619.75,145.232 1619.67,144.695 1619.96,144.322C1620.25,143.949 1620.78,143.879 1621.16,144.165C1621.53,144.451 1621.6,144.988 1621.31,145.361ZM1619.5,143.972C1619.29,144.256 1618.88,144.31 1618.6,144.092C1618.31,143.874 1618.26,143.466 1618.48,143.182C1618.69,142.899 1619.1,142.845 1619.38,143.063C1619.67,143.28 1619.72,143.689 1619.5,143.972ZM1618.02,142.833C1617.89,142.995 1617.66,143.026 1617.5,142.901C1617.34,142.777 1617.31,142.543 1617.43,142.381C1617.56,142.219 1617.79,142.188 1617.95,142.313C1618.11,142.437 1618.14,142.67 1618.02,142.833ZM1612.85,138.416C1612.48,138.186 1612.1,138.688 1612.42,138.987C1615.28,141.669 1619.48,145.586 1619.85,145.871C1620.41,146.307 1621.23,146.2 1621.67,145.631C1622.1,145.063 1622,144.248 1621.43,143.812C1621.06,143.527 1616.19,140.489 1612.85,138.416Z" style="fill:#733c52;fill-rule:nonzero;"/>
                <path d="M1623.21,142.07C1623.03,142.504 1622.53,142.711 1622.1,142.532C1621.66,142.352 1621.46,141.852 1621.64,141.417C1621.82,140.983 1622.32,140.776 1622.75,140.956C1623.19,141.136 1623.39,141.635 1623.21,142.07ZM1621.11,141.197C1620.97,141.528 1620.59,141.685 1620.26,141.549C1619.93,141.412 1619.77,141.031 1619.91,140.701C1620.04,140.37 1620.42,140.213 1620.76,140.35C1621.09,140.487 1621.24,140.867 1621.11,141.197ZM1619.38,140.481C1619.3,140.67 1619.08,140.76 1618.89,140.682C1618.7,140.603 1618.61,140.386 1618.69,140.197C1618.77,140.008 1618.99,139.918 1619.18,139.996C1619.37,140.075 1619.45,140.292 1619.38,140.481ZM1622.92,140.545C1622.49,140.366 1617,138.691 1613.25,137.552C1612.83,137.425 1612.58,138.011 1612.97,138.216C1616.43,140.066 1621.5,142.763 1621.93,142.943C1622.59,143.217 1623.35,142.902 1623.62,142.24C1623.9,141.578 1623.58,140.819 1622.92,140.545Z" style="fill:#733c52;fill-rule:nonzero;"/>
                <path d="M1624.2,138.4C1624.13,138.866 1623.71,139.195 1623.24,139.134C1622.77,139.073 1622.44,138.643 1622.51,138.177C1622.57,137.711 1623,137.382 1623.46,137.443C1623.93,137.504 1624.26,137.934 1624.2,138.4ZM1621.94,138.102C1621.89,138.457 1621.56,138.708 1621.21,138.661C1620.85,138.614 1620.6,138.288 1620.65,137.933C1620.7,137.578 1621.02,137.327 1621.38,137.374C1621.73,137.421 1621.98,137.748 1621.94,138.102ZM1620.08,137.858C1620.05,138.06 1619.87,138.204 1619.66,138.177C1619.46,138.15 1619.32,137.964 1619.34,137.761C1619.37,137.558 1619.56,137.415 1619.76,137.442C1619.96,137.468 1620.11,137.655 1620.08,137.858ZM1623.52,137.002C1623.06,136.941 1617.32,136.744 1613.4,136.615C1612.96,136.601 1612.88,137.23 1613.31,137.329C1617.13,138.219 1622.72,139.514 1623.18,139.575C1623.89,139.669 1624.54,139.169 1624.64,138.458C1624.73,137.747 1624.23,137.096 1623.52,137.002Z" style="fill:#733c52;fill-rule:nonzero;"/>
            </g>
            <g id="q11" serif:id="q1">
                <path d="M1623.46,135.557C1623,135.618 1622.57,135.289 1622.51,134.823C1622.44,134.357 1622.77,133.927 1623.24,133.866C1623.71,133.805 1624.14,134.134 1624.2,134.6C1624.26,135.066 1623.93,135.496 1623.46,135.557ZM1621.38,135.626C1621.02,135.673 1620.7,135.422 1620.65,135.067C1620.6,134.712 1620.85,134.386 1621.21,134.339C1621.56,134.292 1621.89,134.543 1621.94,134.898C1621.98,135.253 1621.73,135.579 1621.38,135.626ZM1619.76,135.558C1619.56,135.585 1619.37,135.442 1619.35,135.239C1619.32,135.036 1619.46,134.85 1619.66,134.823C1619.87,134.796 1620.05,134.939 1620.08,135.142C1620.11,135.345 1619.96,135.531 1619.76,135.558ZM1623.18,133.425C1622.72,133.486 1617.13,134.781 1613.31,135.671C1612.88,135.77 1612.96,136.399 1613.4,136.385C1617.32,136.256 1623.06,136.059 1623.52,135.998C1624.23,135.905 1624.73,135.253 1624.64,134.542C1624.54,133.832 1623.89,133.331 1623.18,133.425Z" style="fill:#733c52;fill-rule:nonzero;"/>
                <path d="M1623.21,130.93C1623.39,131.364 1623.19,131.864 1622.75,132.044C1622.32,132.224 1621.82,132.017 1621.64,131.583C1621.46,131.148 1621.66,130.648 1622.1,130.468C1622.53,130.288 1623.03,130.496 1623.21,130.93ZM1620.76,132.65C1620.42,132.787 1620.05,132.63 1619.91,132.299C1619.77,131.969 1619.93,131.588 1620.26,131.451C1620.59,131.315 1620.97,131.472 1621.11,131.803C1621.24,132.133 1621.09,132.513 1620.76,132.65ZM1619.18,133.004C1618.99,133.082 1618.77,132.992 1618.69,132.803C1618.61,132.614 1618.7,132.397 1618.89,132.318C1619.08,132.24 1619.3,132.33 1619.38,132.519C1619.45,132.708 1619.37,132.925 1619.18,133.004ZM1612.97,134.783C1612.58,134.989 1612.83,135.575 1613.25,135.448C1617,134.309 1622.49,132.634 1622.92,132.455C1623.58,132.181 1623.9,131.422 1623.62,130.76C1623.35,130.098 1622.59,129.783 1621.93,130.057C1621.5,130.237 1616.43,132.934 1612.97,134.783Z" style="fill:#733c52;fill-rule:nonzero;"/>
                <path d="M1617.5,130.099C1617.66,129.974 1617.89,130.005 1618.02,130.167C1618.14,130.33 1618.11,130.563 1617.95,130.687C1617.79,130.812 1617.56,130.781 1617.43,130.619C1617.31,130.457 1617.34,130.223 1617.5,130.099ZM1618.6,128.908C1618.88,128.69 1619.29,128.744 1619.51,129.028C1619.72,129.311 1619.67,129.72 1619.38,129.937C1619.1,130.155 1618.69,130.101 1618.48,129.818C1618.26,129.534 1618.31,129.126 1618.6,128.908ZM1620.12,127.482C1620.49,127.196 1621.03,127.266 1621.31,127.639C1621.6,128.012 1621.53,128.549 1621.16,128.835C1620.78,129.121 1620.25,129.051 1619.96,128.678C1619.67,128.305 1619.74,127.768 1620.12,127.482ZM1612.85,134.584C1616.19,132.511 1621.06,129.473 1621.43,129.188C1622,128.752 1622.1,127.937 1621.67,127.369C1621.23,126.8 1620.42,126.693 1619.85,127.129C1619.48,127.414 1615.28,131.331 1612.42,134.013C1612.1,134.312 1612.48,134.814 1612.85,134.584Z" style="fill:#733c52;fill-rule:nonzero;"/>
                <path d="M1615.58,128.316C1615.7,128.153 1615.94,128.123 1616.1,128.247C1616.26,128.372 1616.29,128.605 1616.17,128.767C1616.04,128.929 1615.81,128.96 1615.65,128.835C1615.49,128.711 1615.45,128.478 1615.58,128.316ZM1616.33,126.881C1616.55,126.598 1616.95,126.544 1617.24,126.762C1617.52,126.979 1617.58,127.388 1617.36,127.671C1617.14,127.955 1616.73,128.009 1616.45,127.791C1616.16,127.573 1616.11,127.165 1616.33,126.881ZM1617.43,125.11C1617.72,124.737 1618.25,124.666 1618.63,124.953C1619,125.239 1619.07,125.775 1618.78,126.148C1618.5,126.521 1617.96,126.592 1617.59,126.306C1617.22,126.019 1617.14,125.483 1617.43,125.11ZM1612.25,133.85C1614.93,130.986 1618.85,126.791 1619.14,126.419C1619.57,125.851 1619.47,125.036 1618.9,124.6C1618.33,124.163 1617.51,124.271 1617.08,124.839C1616.79,125.211 1613.76,130.08 1611.68,133.412C1611.45,133.783 1611.95,134.169 1612.25,133.85Z" style="fill:#733c52;fill-rule:nonzero;"/>
                <path d="M1613.26,127.09C1613.34,126.901 1613.56,126.811 1613.75,126.889C1613.94,126.968 1614.03,127.185 1613.95,127.374C1613.87,127.563 1613.65,127.653 1613.46,127.575C1613.28,127.496 1613.18,127.279 1613.26,127.09ZM1613.62,125.511C1613.75,125.18 1614.13,125.023 1614.46,125.159C1614.79,125.296 1614.95,125.677 1614.82,126.007C1614.68,126.338 1614.3,126.495 1613.97,126.358C1613.64,126.222 1613.48,125.841 1613.62,125.511ZM1614.22,123.514C1614.4,123.08 1614.9,122.873 1615.34,123.053C1615.77,123.233 1615.98,123.733 1615.8,124.167C1615.62,124.602 1615.12,124.809 1614.68,124.629C1614.25,124.449 1614.04,123.949 1614.22,123.514ZM1611.48,133.296C1613.33,129.836 1616.03,124.77 1616.21,124.337C1616.48,123.675 1616.17,122.916 1615.51,122.642C1614.84,122.368 1614.09,122.682 1613.81,123.344C1613.63,123.777 1611.96,129.266 1610.82,133.021C1610.69,133.439 1611.28,133.682 1611.48,133.296Z" style="fill:#733c52;fill-rule:nonzero;"/>
                <path d="M1610.71,126.506C1610.74,126.303 1610.92,126.16 1611.12,126.186C1611.33,126.213 1611.47,126.4 1611.44,126.602C1611.42,126.805 1611.23,126.948 1611.03,126.922C1610.82,126.895 1610.68,126.708 1610.71,126.506ZM1610.64,124.889C1610.69,124.534 1611.01,124.283 1611.37,124.33C1611.72,124.377 1611.97,124.703 1611.93,125.058C1611.88,125.413 1611.55,125.663 1611.2,125.617C1610.84,125.57 1610.59,125.243 1610.64,124.889ZM1610.71,122.804C1610.77,122.337 1611.2,122.008 1611.67,122.069C1612.13,122.131 1612.46,122.56 1612.4,123.026C1612.34,123.492 1611.91,123.822 1611.44,123.76C1610.98,123.699 1610.65,123.27 1610.71,122.804ZM1610.6,132.961C1611.49,129.14 1612.78,123.548 1612.84,123.084C1612.93,122.374 1612.43,121.722 1611.72,121.628C1611.01,121.535 1610.36,122.035 1610.27,122.746C1610.21,123.21 1610.01,128.946 1609.88,132.867C1609.87,133.304 1610.5,133.387 1610.6,132.961Z" style="fill:#733c52;fill-rule:nonzero;"/>
            </g>
        </g>
    </g>
</svg>
