<?xml version="1.0" encoding="UTF-8" standalone="no"?>
<!DOCTYPE svg PUBLIC "-//W3C//DTD SVG 1.1//EN" "http://www.w3.org/Graphics/SVG/1.1/DTD/svg11.dtd">
<svg width="100%" height="100%" viewBox="0 0 1701 2480" version="1.1" xmlns="http://www.w3.org/2000/svg" xmlns:xlink="http://www.w3.org/1999/xlink" xml:space="preserve" xmlns:serif="http://www.serif.com/" style="fill-rule:evenodd;clip-rule:evenodd;stroke-linecap:round;stroke-linejoin:round;stroke-miterlimit:1.5;">
    <rect id="C2D" x="0.931" y="0" width="1700" height="2480" style="fill:none;"/>
    <g id="Fields" opacity="0.2">
        <path id="_1" serif:id="1" d="M1204.84,895.587L1690.95,417.376L1690.95,10L1181.94,9.905L978.31,762.641C1064.84,786.499 1140.52,829.837 1204.84,895.587Z" style="fill:#63859f;stroke:#767676;stroke-width:8.33px;"/>
    </g>
    <g id="S">
        <g id="Ring">
            <path id="Backer" d="M1262.37,1477C1131.48,1703.7 841.17,1781.5 614.482,1650.62C387.793,1519.75 310.016,1229.44 440.905,1002.74C571.793,776.037 862.1,698.239 1088.79,829.115C1315.48,959.991 1393.25,1250.3 1262.37,1477Z" style="fill:#fff;"/>
            <path d="M1262.37,1477C1131.48,1703.7 841.17,1781.5 614.482,1650.62C387.793,1519.75 310.016,1229.44 440.905,1002.74C571.793,776.037 862.1,698.239 1088.79,829.115C1315.48,959.991 1393.25,1250.3 1262.37,1477Z" style="fill:none;stroke:#000;stroke-width:8.33px;"/>
            <path d="M1262.37,1477L1236.11,1461.84" style="fill:none;stroke:#000;stroke-width:8.33px;"/>
            <path d="M467.162,1017.9L440.905,1002.74" style="fill:none;stroke:#000;stroke-width:8.33px;"/>
            <path d="M629.641,1624.37L614.482,1650.62" style="fill:none;stroke:#000;stroke-width:8.33px;"/>
            <path d="M1088.79,829.115L1073.63,855.372" style="fill:none;stroke:#000;stroke-width:8.33px;"/>
            <path d="M1088.78,1650.6L1073.62,1624.35" style="fill:none;stroke:#000;stroke-width:8.33px;"/>
            <path d="M629.651,855.389L614.492,829.132" style="fill:none;stroke:#000;stroke-width:8.33px;"/>
            <path d="M467.132,1461.86L440.875,1477.02" style="fill:none;stroke:#000;stroke-width:8.33px;"/>
            <path d="M1262.39,1002.72L1236.14,1017.88" style="fill:none;stroke:#000;stroke-width:8.33px;"/>
            <path d="M851.635,1714.16L851.635,1683.85" style="fill:none;stroke:#000;stroke-width:8.33px;"/>
            <path d="M851.635,795.892L851.635,765.573" style="fill:none;stroke:#000;stroke-width:8.33px;"/>
            <path d="M407.668,1239.87L377.348,1239.87" style="fill:none;stroke:#000;stroke-width:8.33px;"/>
            <path d="M1325.92,1239.87L1295.6,1239.87" style="fill:none;stroke:#000;stroke-width:8.33px;"/>
        </g>
        <g id="Root-Markers" serif:id="Root Markers">
            <path id="_6" serif:id="6" d="M852.286,1607.62L815.986,1506.78L888.586,1506.78L852.286,1607.62ZM852.286,1551.04L861.32,1525.94L843.251,1525.94L852.286,1551.04Z" style="fill:#5b91a5;"/>
        </g>
        <g id="Notes">
            <path id="_61" serif:id="6" d="M920.643,1756.34C898.654,1794.43 849.88,1807.5 811.793,1785.51C773.707,1763.52 760.638,1714.75 782.627,1676.66C804.616,1638.57 853.39,1625.51 891.477,1647.49C929.563,1669.48 942.632,1718.26 920.643,1756.34Z" style="fill:#5b91a5;stroke:#fff;stroke-width:24px;"/>
            <path id="_11" serif:id="1" d="M1154.57,879.109C1132.58,917.195 1083.81,930.264 1045.72,908.275C1007.63,886.286 994.563,837.513 1016.55,799.427C1038.54,761.342 1087.32,748.273 1125.4,770.262C1163.49,792.251 1176.56,841.024 1154.57,879.109Z" style="fill:#5b91a5;stroke:#fff;stroke-width:24px;"/>
        </g>
        <g id="Treble-Marker" serif:id="Treble Marker">
            <g id="_5" serif:id="5">
                <path id="_5u" serif:id="5u" d="M1156.96,1693.33C1134.97,1731.42 1086.19,1744.49 1048.11,1722.5C1010.02,1700.51 996.951,1651.74 1018.94,1613.65C1040.93,1575.57 1089.7,1562.5 1127.79,1584.49C1165.88,1606.47 1178.94,1655.25 1156.96,1693.33Z" style="fill:#fff;stroke:#fff;stroke-width:33.33px;"/>
                <circle id="_5a" serif:id="5a" cx="1087.95" cy="1653.49" r="64" style="fill:#fff;stroke:#5b91a5;stroke-width:16.67px;"/>
            </g>
        </g>
    </g>
    <g id="Songs">
        <g id="_-song-5-rays" serif:id=" song 5 rays">
            <g id="C2D1" serif:id="C2D">
                <path d="M1442.56,318.621C1461.47,318.357 1480.29,310.884 1494.5,296.266L1520.26,269.78C1534.71,254.916 1541.65,235.507 1541.13,216.281L1441.87,216.459L1442.56,318.621Z" style="fill:#5b91a5;stroke:#fff;stroke-width:1.67px;"/>
                <path d="M1341.2,216.64C1340.57,236.678 1348.04,256.904 1363.53,271.968L1390.02,297.725C1404.63,311.941 1423.65,318.885 1442.56,318.621L1441.87,216.459L1341.2,216.64Z" style="fill:#5b91a5;stroke:#fff;stroke-width:1.67px;"/>
                <path d="M1441.87,317.628L1441.57,217.278" style="fill:none;stroke:#5b91a5;stroke-width:4.17px;stroke-linecap:butt;"/>
                <g id="q1">
                    <path d="M1481.27,264.937L1458.75,237.491C1459.7,236.819 1460.45,235.926 1461.3,235.138C1461.73,234.747 1462.03,234.241 1462.41,233.811C1462.77,233.356 1463.2,232.956 1463.48,232.439L1492.44,252.975C1491.71,254.132 1490.8,255.163 1489.94,256.229C1489.06,257.273 1488.24,258.375 1487.27,259.344C1485.34,261.29 1483.44,263.265 1481.27,264.937Z" style="fill:#e7e7e7;fill-rule:nonzero;"/>
                    <path d="M1440.52,237.968L1440.52,304.367C1442.77,304.383 1445.02,304.298 1447.27,304.246C1449.18,304.091 1451.1,303.889 1453.02,303.664C1453.97,303.547 1454.93,303.437 1455.88,303.292L1458.71,302.745C1466.3,301.368 1473.58,298.731 1480.51,295.434L1442.49,218.012C1442.36,217.964 1442.31,218.167 1442.19,218.087C1442.18,218.095 1442.17,218.111 1442.16,218.135C1442.15,218.129 1442.14,218.103 1442.13,218.099C1442.1,218.084 1442.09,218.107 1442.07,218.147C1442.04,218.006 1442,218.218 1441.98,218.1L1440.52,237.968Z" style="fill:#e7e7e7;"/>
                    <path d="M1529.24,217.131L1442.97,217.131C1442.98,217.157 1443.02,217.179 1442.97,217.201C1443.05,217.24 1442.91,217.255 1442.99,217.289C1442.89,217.328 1443.04,217.399 1442.89,217.5L1522.74,250.124C1525.73,243.077 1527.57,235.468 1528.6,227.82C1528.96,224.264 1529.29,220.699 1529.24,217.131Z" style="fill:#e7e7e7;"/>
                </g>
                <g id="q4">
                    <path d="M1428.59,239.815L1429.38,240.21C1429.89,240.479 1430.41,240.759 1430.92,241.051C1431.47,241.254 1432.02,241.468 1432.56,241.694L1433.37,242.042C1433.64,242.139 1433.93,242.195 1434.2,242.279L1423.55,276.141C1422.89,275.94 1422.23,275.759 1421.59,275.533L1419.69,274.781L1415.92,273.225L1412.3,271.333L1410.5,270.361C1409.91,270.015 1409.35,269.625 1408.78,269.255L1427.87,239.324C1428.11,239.483 1428.34,239.667 1428.59,239.815Z" style="fill:#e7e7e7;fill-rule:nonzero;"/>
                    <path d="M1441.27,217.655C1441.27,217.668 1441.26,217.686 1441.25,217.708C1441.26,217.714 1441.29,217.707 1441.3,217.713C1441.32,217.72 1441.32,217.748 1441.3,217.788C1441.43,217.723 1441.29,217.889 1441.39,217.829L1379.54,277.944C1376.76,275.247 1374.41,272.162 1372,269.15C1370.89,267.58 1369.81,265.981 1368.75,264.37C1368.23,263.563 1367.69,262.758 1367.19,261.937L1365.79,259.416C1361.98,252.722 1359.31,245.449 1357.38,238.019L1441.13,217.381C1441.25,217.444 1441.13,217.617 1441.27,217.655Z" style="fill:#e7e7e7;fill-rule:nonzero;"/>
                    <path d="M1440.52,304.367L1440.52,237.968L1435.69,304.125C1437.3,304.292 1438.91,304.356 1440.52,304.367Z" style="fill:#e7e7e7;"/>
                </g>
            </g>
            <g id="C2D2">
                <path d="M1441.17,119.456C1421.78,119.35 1402.37,126.826 1387.79,141.817L1362.03,168.303C1348.66,182.049 1341.73,199.681 1341.17,217.462L1441.84,217.281L1441.17,119.456Z" style="fill:#4daab1;stroke:#fff;stroke-width:1.67px;"/>
                <path d="M1541.1,217.102C1540.6,198.512 1533.13,180.091 1518.76,166.115L1492.28,140.358C1478.03,126.504 1459.61,119.556 1441.17,119.456L1441.84,217.281L1541.1,217.102Z" style="fill:#4daab1;stroke:#fff;stroke-width:1.67px;"/>
                <path d="M1441.17,216.455L1441.17,120.455" style="fill:none;stroke:#4daab1;stroke-width:4.17px;stroke-linecap:butt;"/>
                <g id="q2">
                    <path d="M1442.45,216.314C1442.27,216.402 1442.26,216.164 1442.18,216.273L1456.92,131.287C1464.59,132.494 1471.92,135.054 1478.91,138.141C1485.76,141.508 1492.44,145.48 1498.29,150.576L1442.66,216.497C1442.7,216.37 1442.5,216.511 1442.45,216.314Z" style="fill:#e7e7e7;fill-rule:nonzero;"/>
                    <path d="M1465.87,205.963C1465.61,205.439 1465.3,204.944 1465.04,204.423L1464.64,203.644L1464.14,202.924L1463.19,201.466L1491.71,180.326L1494,183.722L1495.12,185.441L1496.1,187.236C1496.74,188.441 1497.41,189.634 1498,190.863L1499.59,194.632L1466.53,207.583C1466.3,207.048 1466.08,206.509 1465.87,205.963Z" style="fill:#e7e7e7;fill-rule:nonzero;"/>
                    <path d="M1442.97,217.131L1529.24,217.131C1529.23,216.837 1529.23,216.543 1529.22,216.249C1529.25,212.378 1528.84,208.545 1528.35,204.721L1442.98,217.088C1442.96,217.103 1442.96,217.117 1442.97,217.131Z" style="fill:#e7e7e7;"/>
                </g>
                <g id="q3">
                    <path d="M1381.35,205.594C1381.62,204.252 1381.83,202.894 1382.24,201.591L1416.59,210.573C1416.37,211.118 1416.34,211.704 1416.22,212.27C1416.14,212.842 1415.94,213.398 1415.92,213.978C1415.86,215.134 1415.66,216.28 1415.76,217.444L1380.26,217.835C1380.14,215.098 1380.43,212.37 1380.69,209.644C1380.81,208.281 1381.12,206.943 1381.35,205.594Z" style="fill:#e7e7e7;fill-rule:nonzero;"/>
                    <path d="M1441.45,216.492C1441.36,216.452 1441.44,216.569 1441.36,216.53C1441.39,216.63 1441.25,216.565 1441.26,216.739L1364.95,176.543C1368.42,169.725 1373.07,163.42 1378.27,157.718C1380.96,154.945 1383.69,152.194 1386.74,149.809C1389.68,147.296 1392.88,145.149 1396.12,143.064L1441.52,216.406C1441.52,216.482 1441.42,216.413 1441.45,216.492Z" style="fill:#e7e7e7;fill-rule:nonzero;"/>
                    <path d="M1438.77,191.091L1437.9,191.175L1437.05,191.371C1436.48,191.505 1435.9,191.585 1435.34,191.727C1434.78,191.916 1434.23,192.092 1433.66,192.257L1422.34,158.612L1426.25,157.408C1427.57,157.067 1428.91,156.812 1430.25,156.528L1432.25,156.127L1434.29,155.876L1438.36,155.45L1440.5,190.886L1438.77,191.091Z" style="fill:#e7e7e7;fill-rule:nonzero;"/>
                </g>
            </g>
        </g>
    </g>
    <g id="Map">
        <g id="Frame">
            <rect x="755.931" y="41.542" width="190" height="190" style="fill:#fff;"/>
            <rect x="755.931" y="41.542" width="190" height="190" style="fill:none;stroke:#000;stroke-width:1.17px;stroke-linejoin:bevel;"/>
            <rect x="807.806" y="93.417" width="86.25" height="86.25" style="fill:none;stroke:#000;stroke-width:1.25px;stroke-linejoin:bevel;"/>
            <path d="M894.056,93.417L945.931,41.75" style="fill:none;stroke:#000;stroke-width:1.25px;stroke-linejoin:bevel;"/>
            <path d="M807.806,93.417L756.348,41.75" style="fill:none;stroke:#000;stroke-width:1.25px;stroke-linejoin:bevel;"/>
            <path d="M807.806,179.667L755.931,231.542" style="fill:none;stroke:#000;stroke-width:1.25px;stroke-linejoin:bevel;"/>
            <path d="M894.056,179.667L945.931,231.542" style="fill:none;stroke:#000;stroke-width:1.25px;stroke-linejoin:bevel;"/>
        </g>
        <g id="Dots">
            <circle cx="755.931" cy="231.5" r="1.5" style="stroke:#000;stroke-width:1.25px;stroke-linejoin:bevel;"/>
            <circle cx="850.629" cy="231.625" r="1.5" style="stroke:#000;stroke-width:1.25px;stroke-linejoin:bevel;"/>
            <circle cx="945.931" cy="231.5" r="1.5" style="stroke:#000;stroke-width:1.25px;stroke-linejoin:bevel;"/>
            <circle cx="918.277" cy="203.667" r="1.5" style="stroke:#000;stroke-width:1.25px;stroke-linejoin:bevel;"/>
            <circle cx="894.056" cy="179.5" r="1.5" style="stroke:#000;stroke-width:1.25px;stroke-linejoin:bevel;"/>
            <circle cx="893.629" cy="136.625" r="1.5" style="stroke:#000;stroke-width:1.25px;stroke-linejoin:bevel;"/>
            <circle cx="893.754" cy="93.375" r="1.5" style="stroke:#000;stroke-width:1.25px;stroke-linejoin:bevel;"/>
            <circle cx="918.191" cy="69.167" r="1.5" style="stroke:#000;stroke-width:1.25px;stroke-linejoin:bevel;"/>
            <circle cx="850.629" cy="93.375" r="1.5" style="stroke:#000;stroke-width:1.25px;stroke-linejoin:bevel;"/>
            <circle cx="807.504" cy="93.5" r="1.5" style="stroke:#000;stroke-width:1.25px;stroke-linejoin:bevel;"/>
            <circle cx="850.931" cy="41.5" r="1.5" style="stroke:#000;stroke-width:1.25px;stroke-linejoin:bevel;"/>
            <circle cx="755.931" cy="41.542" r="1.5" style="stroke:#000;stroke-width:1.25px;stroke-linejoin:bevel;"/>
            <circle cx="783.777" cy="69.5" r="1.5" style="stroke:#000;stroke-width:1.25px;stroke-linejoin:bevel;"/>
            <circle cx="755.931" cy="136.542" r="1.5" style="stroke:#000;stroke-width:1.25px;stroke-linejoin:bevel;"/>
            <circle cx="807.806" cy="136.542" r="1.5" style="stroke:#000;stroke-width:1.25px;stroke-linejoin:bevel;"/>
            <circle cx="850.431" cy="179.667" r="1.5" style="stroke:#000;stroke-width:1.25px;stroke-linejoin:bevel;"/>
            <circle cx="807.777" cy="179.5" r="1.5" style="stroke:#000;stroke-width:1.25px;stroke-linejoin:bevel;"/>
            <circle cx="783.577" cy="204" r="1.5" style="stroke:#000;stroke-width:1.25px;stroke-linejoin:bevel;"/>
            <circle cx="945.931" cy="136.542" r="1.5" style="stroke:#000;stroke-width:1.25px;stroke-linejoin:bevel;"/>
            <circle cx="945.926" cy="41.65" r="1.5" style="stroke:#000;stroke-width:1.25px;stroke-linejoin:bevel;"/>
        </g>
        <g>
            <path d="M807.86,179.59L850.681,180.03" style="fill:none;stroke:#4daab1;stroke-width:5.99px;"/>
        </g>
        <path d="M850.681,180.03L893.733,180.03" style="fill:none;stroke:#78608c;stroke-width:5.83px;"/>
        <g id="_51" serif:id="5">
            <circle cx="850.681" cy="179.667" r="15.75" style="fill:#fff;stroke:#fff;stroke-width:1.46px;"/>
            <g id="q21" serif:id="q2">
                <path d="M850.783,179.928C850.752,179.913 850.749,179.954 850.736,179.935L853.276,194.578C854.597,194.371 855.861,193.929 857.065,193.398C858.246,192.817 859.396,192.133 860.404,191.255L850.819,179.896C850.825,179.918 850.792,179.894 850.783,179.928Z" style="fill:#733c52;fill-rule:nonzero;"/>
                <path d="M854.817,181.711C854.773,181.802 854.72,181.887 854.675,181.977L854.606,182.111L854.521,182.235L854.356,182.486L859.27,186.129L859.666,185.544L859.858,185.247L860.027,184.938C860.137,184.731 860.252,184.525 860.353,184.313L860.628,183.664L854.932,181.432C854.892,181.524 854.854,181.617 854.817,181.711Z" style="fill:#733c52;fill-rule:nonzero;"/>
                <path d="M850.872,179.787L865.737,179.787C865.736,179.838 865.735,179.888 865.733,179.939C865.739,180.606 865.667,181.266 865.583,181.925L850.874,179.794C850.871,179.792 850.871,179.789 850.872,179.787Z" style="fill:#733c52;"/>
            </g>
            <g id="q31" serif:id="q3">
                <path d="M840.255,181.775C840.301,182.006 840.337,182.24 840.408,182.465L846.326,180.917C846.289,180.823 846.283,180.722 846.263,180.625C846.249,180.526 846.216,180.43 846.212,180.33C846.201,180.131 846.166,179.934 846.183,179.733L840.067,179.666C840.047,180.137 840.097,180.607 840.14,181.077C840.161,181.312 840.216,181.542 840.255,181.775Z" style="fill:#733c52;fill-rule:nonzero;"/>
                <path d="M850.61,179.897C850.595,179.904 850.609,179.884 850.595,179.891C850.601,179.873 850.576,179.885 850.578,179.854L837.428,186.781C838.028,187.955 838.828,189.042 839.723,190.024C840.188,190.502 840.659,190.976 841.183,191.387C841.69,191.82 842.241,192.19 842.8,192.549L850.623,179.912C850.623,179.899 850.606,179.911 850.61,179.897Z" style="fill:#733c52;fill-rule:nonzero;"/>
                <path d="M850.148,184.274L849.999,184.259L849.852,184.226C849.754,184.203 849.654,184.189 849.557,184.164C849.461,184.132 849.366,184.101 849.269,184.073L847.318,189.87L847.991,190.078C848.219,190.136 848.45,190.18 848.68,190.229L849.026,190.298L849.376,190.342L850.078,190.415L850.447,184.309L850.148,184.274Z" style="fill:#733c52;fill-rule:nonzero;"/>
            </g>
            <g id="q11" serif:id="q1">
                <path d="M857.471,171.55L853.591,176.279C853.756,176.395 853.885,176.548 854.03,176.684C854.104,176.752 854.156,176.839 854.223,176.913C854.284,176.991 854.358,177.06 854.406,177.149L859.396,173.611C859.27,173.411 859.113,173.234 858.966,173.05C858.813,172.87 858.672,172.68 858.505,172.513C858.173,172.178 857.845,171.838 857.471,171.55Z" style="fill:#733c52;fill-rule:nonzero;"/>
                <path d="M850.451,176.197L850.451,164.756C850.838,164.753 851.225,164.768 851.612,164.777C851.943,164.803 852.273,164.838 852.603,164.877C852.768,164.897 852.933,164.916 853.097,164.941L853.585,165.035C854.891,165.272 856.146,165.727 857.341,166.295L850.789,179.635C850.768,179.643 850.758,179.608 850.738,179.622C850.736,179.621 850.735,179.618 850.733,179.614C850.731,179.615 850.729,179.62 850.727,179.62C850.723,179.623 850.72,179.619 850.717,179.612C850.711,179.636 850.704,179.6 850.701,179.62L850.451,176.197Z" style="fill:#733c52;"/>
                <path d="M865.737,179.787L850.872,179.787C850.874,179.783 850.88,179.779 850.872,179.775C850.886,179.768 850.862,179.766 850.876,179.76C850.859,179.753 850.884,179.741 850.859,179.723L864.617,174.102C865.132,175.316 865.45,176.627 865.627,177.945C865.689,178.558 865.746,179.172 865.737,179.787Z" style="fill:#733c52;"/>
            </g>
            <g id="q41" serif:id="q4">
                <path d="M848.394,175.878L848.53,175.81C848.619,175.764 848.708,175.716 848.796,175.665C848.891,175.631 848.985,175.594 849.078,175.555L849.217,175.495C849.265,175.478 849.314,175.468 849.362,175.454L847.525,169.619C847.413,169.654 847.299,169.685 847.188,169.724L846.861,169.853L846.211,170.122L845.587,170.448L845.278,170.615C845.177,170.675 845.08,170.742 844.981,170.806L848.27,175.963C848.312,175.936 848.351,175.904 848.394,175.878Z" style="fill:#733c52;fill-rule:nonzero;"/>
                <path d="M850.579,179.697C850.579,179.694 850.577,179.691 850.575,179.688C850.577,179.687 850.583,179.688 850.584,179.687C850.589,179.685 850.587,179.681 850.584,179.674C850.606,179.685 850.583,179.656 850.601,179.667L839.942,169.309C839.463,169.773 839.06,170.305 838.644,170.824C838.452,171.094 838.266,171.37 838.084,171.647C837.993,171.786 837.902,171.925 837.816,172.067L837.574,172.501C836.916,173.654 836.458,174.908 836.125,176.188L850.556,179.744C850.576,179.733 850.555,179.703 850.579,179.697Z" style="fill:#733c52;fill-rule:nonzero;"/>
                <path d="M850.451,164.756L850.451,176.197L849.617,164.797C849.895,164.769 850.173,164.758 850.451,164.756Z" style="fill:#733c52;"/>
            </g>
        </g>
    </g>
</svg>
