<?xml version="1.0" encoding="UTF-8" standalone="no"?>
<!DOCTYPE svg PUBLIC "-//W3C//DTD SVG 1.1//EN" "http://www.w3.org/Graphics/SVG/1.1/DTD/svg11.dtd">
<svg width="100%" height="100%" viewBox="0 0 1701 2481" version="1.1" xmlns="http://www.w3.org/2000/svg" xmlns:xlink="http://www.w3.org/1999/xlink" xml:space="preserve" xmlns:serif="http://www.serif.com/" style="fill-rule:evenodd;clip-rule:evenodd;stroke-linecap:round;stroke-linejoin:round;stroke-miterlimit:1.5;">
    <rect id="C2W" x="0.621" y="0.93" width="1700" height="2480" style="fill:none;"/>
    <g id="Fields" opacity="0.2" sound="Field/09-Petals" autoplay="true">
        <path id="_6" serif:id="6" d="M978.001,1718.86L1183.63,2470.59L516.166,2470.5L717.794,1716.83C804.034,1738.73 893.471,1741.63 978.001,1718.86Z" style="fill:#b7977c;stroke:#767676;stroke-width:8.33px;"/>
    </g>
    <a href="C2W2.svg">
    <g id="S">
        <g id="Ring">
            <path id="Backer" d="M1262.06,1477.93C1131.17,1704.63 840.86,1782.43 614.172,1651.55C387.483,1520.68 309.706,1230.37 440.594,1003.67C571.483,776.967 861.79,699.169 1088.48,830.045C1315.17,960.921 1392.94,1251.23 1262.06,1477.93Z" style="fill:#fff;"/>
            <path d="M1262.06,1477.93C1131.17,1704.63 840.86,1782.43 614.172,1651.55C387.483,1520.68 309.706,1230.37 440.594,1003.67C571.483,776.967 861.79,699.169 1088.48,830.045C1315.17,960.921 1392.94,1251.23 1262.06,1477.93Z" style="fill:none;stroke:#000;stroke-width:8.33px;"/>
            <path d="M1262.06,1477.93L1235.8,1462.77" style="fill:none;stroke:#000;stroke-width:8.33px;"/>
            <path d="M466.852,1018.83L440.594,1003.67" style="fill:none;stroke:#000;stroke-width:8.33px;"/>
            <path d="M629.331,1625.3L614.172,1651.55" style="fill:none;stroke:#000;stroke-width:8.33px;"/>
            <path d="M1088.48,830.045L1073.32,856.302" style="fill:none;stroke:#000;stroke-width:8.33px;"/>
            <path d="M1088.47,1651.53L1073.31,1625.28" style="fill:none;stroke:#000;stroke-width:8.33px;"/>
            <path d="M629.341,856.319L614.182,830.062" style="fill:none;stroke:#000;stroke-width:8.33px;"/>
            <path d="M466.822,1462.79L440.565,1477.95" style="fill:none;stroke:#000;stroke-width:8.33px;"/>
            <path d="M1262.09,1003.65L1235.83,1018.81" style="fill:none;stroke:#000;stroke-width:8.33px;"/>
            <path d="M851.325,1715.09L851.325,1684.78" style="fill:none;stroke:#000;stroke-width:8.33px;"/>
            <path d="M851.325,796.822L851.325,766.503" style="fill:none;stroke:#000;stroke-width:8.33px;"/>
            <path d="M407.358,1240.8L377.038,1240.8" style="fill:none;stroke:#000;stroke-width:8.33px;"/>
            <path d="M1325.61,1240.8L1295.29,1240.8" style="fill:none;stroke:#000;stroke-width:8.33px;"/>
        </g>
        <g id="Root-Markers" serif:id="Root Markers">
            <path id="_11" serif:id="11" d="M667.578,921.336L749.431,990.51L686.557,1026.81L667.578,921.336ZM695.865,970.331L700.589,996.582L716.237,987.547L695.865,970.331Z" style="fill:#cba877;"/>
        </g>
        <g id="Notes">
            <path id="_111" sound="Font/3-Low-B" serif:id="11" d="M682.808,874.332C660.819,912.417 612.045,925.486 573.959,903.497C535.872,881.508 522.803,832.736 544.792,794.65C566.782,756.564 615.556,743.495 653.642,765.484C691.729,787.473 704.798,836.246 682.808,874.332Z" style="fill:#cba877;stroke:#fff;stroke-width:24px;"/>
        </g>
        <g id="Treble-Marker" serif:id="Treble Marker">
            <g id="_61" serif:id="6" sound="Font/3-High-Gb">
                <path id="_62" serif:id="6" d="M920.333,1757.27C898.344,1795.36 849.57,1808.43 811.483,1786.44C773.397,1764.45 760.328,1715.67 782.317,1677.59C804.306,1639.5 853.08,1626.43 891.167,1648.42C929.253,1670.41 942.322,1719.19 920.333,1757.27Z" style="fill:#fff;stroke:#fff;stroke-width:33.33px;"/>
                <circle id="_6a" serif:id="6a" cx="850.621" cy="1717.43" r="64" style="fill:#fff;stroke:#cba877;stroke-width:16.67px;"/>
            </g>
        </g>
    </g>
    </a>
    <g id="Songs">
        <g id="song-9-petals" serif:id="song 9 petals">
            <g id="C2W1" serif:id="C2W" sound="Song/09-Petals-C2W" autoplay="true">
                <path d="M861.072,2358.94C841.676,2359.04 822.264,2351.57 807.687,2336.58L781.93,2310.09C768.563,2296.34 761.625,2278.71 761.064,2260.93L861.732,2261.11L861.072,2358.94Z" style="fill:#cba877;stroke:#fff;stroke-width:1.67px;"/>
                <path d="M960.995,2261.29C960.497,2279.88 953.032,2298.3 938.66,2312.28L912.173,2338.03C897.927,2351.89 879.506,2358.84 861.072,2358.94L861.732,2261.11L960.995,2261.29Z" style="fill:#cba877;stroke:#fff;stroke-width:1.67px;"/>
                <path d="M861.072,2261.94L861.072,2357.94" style="fill:none;stroke:#cba877;stroke-width:4.17px;stroke-linecap:butt;"/>
                <path id="q2" d="M876.327,2262.56L946.331,2262.56C938.665,2268.27 923.974,2277.7 914.2,2277.7C903.724,2277.7 884.849,2267.5 876.327,2262.56ZM861.03,2347.12L861.03,2278.07C861.132,2277.9 861.233,2277.72 861.331,2277.55C866.279,2286.07 876.48,2304.95 876.48,2315.43C876.48,2325.96 866.126,2341.11 861.331,2347.53C861.233,2347.39 861.132,2347.26 861.03,2347.12ZM871.899,2273.15C886.437,2276.97 903.174,2282.99 909.405,2289.25C916.888,2296.7 920.248,2314.75 921.408,2322.66C911.971,2321.29 894.928,2317.56 888.025,2310.63C881.764,2304.4 875.747,2287.66 871.899,2273.15Z" style="fill:#e7e7e7;"/>
                <path id="q3" d="M861.03,2278.07L861.03,2347.12C856.116,2340.49 846.182,2325.75 846.182,2315.43C846.182,2305.16 855.981,2286.82 861.03,2278.07ZM776.331,2262.56L846.335,2262.56C837.813,2267.5 818.938,2277.7 808.462,2277.7C797.925,2277.7 782.745,2267.32 776.331,2262.56ZM813.257,2289.25C819.488,2282.99 836.225,2276.97 850.763,2273.15C846.915,2287.66 840.898,2304.4 834.637,2310.63C827.185,2318.08 809.164,2321.47 801.254,2322.63C802.415,2314.72 805.805,2296.7 813.257,2289.25Z" style="fill:#e7e7e7;"/>
            </g>
            <g id="C2W2" sound="Song/09-Petals-C2W2">
                <path d="M862.515,2160.94C881.428,2161.2 900.241,2168.67 914.456,2183.29L940.213,2209.78C954.668,2224.64 961.604,2244.05 961.089,2263.28L861.826,2263.1L862.515,2160.94Z" style="fill:#f5cd6c;stroke:#fff;stroke-width:1.67px;"/>
                <path d="M761.158,2262.92C760.526,2242.88 767.993,2222.65 783.483,2207.59L809.97,2181.83C824.588,2167.62 843.602,2160.67 862.515,2160.94L861.826,2263.1L761.158,2262.92Z" style="fill:#f5cd6c;stroke:#fff;stroke-width:1.67px;"/>
                <path d="M862.826,2161.93L862.525,2262.28" style="fill:none;stroke:#f5cd6c;stroke-width:4.17px;stroke-linecap:butt;"/>
                <path id="q4" d="M846.83,2262.56L776.826,2262.56C784.492,2256.85 799.183,2247.41 808.957,2247.41C819.433,2247.41 838.308,2257.61 846.83,2262.56ZM861.525,2177.99L861.525,2247.04C856.476,2238.29 846.677,2219.95 846.677,2209.69C846.677,2199.37 856.611,2184.62 861.525,2177.99ZM851.258,2251.96C836.72,2248.14 819.983,2242.12 813.752,2235.86C806.269,2228.41 802.91,2210.36 801.749,2202.45C811.186,2203.82 828.229,2207.55 835.132,2214.48C841.393,2220.71 847.41,2237.45 851.258,2251.96Z" style="fill:#e7e7e7;"/>
                <path id="q1" d="M946.826,2262.56L876.822,2262.56C885.344,2257.61 904.219,2247.41 914.695,2247.41C925.233,2247.41 940.412,2257.79 946.826,2262.56ZM861.525,2247.04L861.525,2177.99C861.627,2177.85 861.728,2177.72 861.826,2177.59C866.621,2184 876.975,2199.15 876.975,2209.69C876.975,2220.16 866.774,2239.04 861.826,2247.56C861.728,2247.39 861.627,2247.22 861.525,2247.04ZM909.9,2235.86C903.669,2242.12 886.932,2248.14 872.394,2251.96C876.242,2237.45 882.259,2220.71 888.52,2214.48C895.973,2207.03 913.993,2203.64 921.903,2202.48C920.743,2210.39 917.353,2228.41 909.9,2235.86Z" style="fill:#e7e7e7;"/>
            </g>
        </g>
    </g>
    <g id="Map" sound="Map/C2W" loop="false" autoplay="true">
        <g id="Frame">
            <rect x="1472.12" y="42.472" width="190" height="190" style="fill:#fff;"/>
            <rect x="1472.12" y="42.472" width="190" height="190" style="fill:none;stroke:#000;stroke-width:1.17px;stroke-linejoin:bevel;"/>
            <rect x="1524" y="94.347" width="86.25" height="86.25" style="fill:none;stroke:#000;stroke-width:1.25px;stroke-linejoin:bevel;"/>
            <path d="M1610.25,94.347L1662.12,42.68" style="fill:none;stroke:#000;stroke-width:1.25px;stroke-linejoin:bevel;"/>
            <path d="M1524,94.347L1472.54,42.68" style="fill:none;stroke:#000;stroke-width:1.25px;stroke-linejoin:bevel;"/>
            <path d="M1524,180.597L1472.12,232.472" style="fill:none;stroke:#000;stroke-width:1.25px;stroke-linejoin:bevel;"/>
            <path d="M1610.25,180.597L1662.12,232.472" style="fill:none;stroke:#000;stroke-width:1.25px;stroke-linejoin:bevel;"/>
        </g>
        <g id="Dots">
            <circle cx="1472.12" cy="232.43" r="1.5" style="stroke:#000;stroke-width:1.25px;stroke-linejoin:bevel;"/>
            <circle cx="1566.82" cy="232.555" r="1.5" style="stroke:#000;stroke-width:1.25px;stroke-linejoin:bevel;"/>
            <circle cx="1662.12" cy="232.43" r="1.5" style="stroke:#000;stroke-width:1.25px;stroke-linejoin:bevel;"/>
            <circle cx="1634.47" cy="204.596" r="1.5" style="stroke:#000;stroke-width:1.25px;stroke-linejoin:bevel;"/>
            <circle cx="1610.25" cy="180.43" r="1.5" style="stroke:#000;stroke-width:1.25px;stroke-linejoin:bevel;"/>
            <circle cx="1609.82" cy="137.555" r="1.5" style="stroke:#000;stroke-width:1.25px;stroke-linejoin:bevel;"/>
            <circle cx="1609.94" cy="94.305" r="1.5" style="stroke:#000;stroke-width:1.25px;stroke-linejoin:bevel;"/>
            <circle cx="1634.38" cy="70.096" r="1.5" style="stroke:#000;stroke-width:1.25px;stroke-linejoin:bevel;"/>
            <circle cx="1566.82" cy="94.305" r="1.5" style="stroke:#000;stroke-width:1.25px;stroke-linejoin:bevel;"/>
            <circle cx="1523.69" cy="94.43" r="1.5" style="stroke:#000;stroke-width:1.25px;stroke-linejoin:bevel;"/>
            <circle cx="1567.12" cy="42.43" r="1.5" style="stroke:#000;stroke-width:1.25px;stroke-linejoin:bevel;"/>
            <circle cx="1472.12" cy="42.472" r="1.5" style="stroke:#000;stroke-width:1.25px;stroke-linejoin:bevel;"/>
            <circle cx="1499.97" cy="70.43" r="1.5" style="stroke:#000;stroke-width:1.25px;stroke-linejoin:bevel;"/>
            <circle cx="1472.12" cy="137.472" r="1.5" style="stroke:#000;stroke-width:1.25px;stroke-linejoin:bevel;"/>
            <circle cx="1524" cy="137.472" r="1.5" style="stroke:#000;stroke-width:1.25px;stroke-linejoin:bevel;"/>
            <circle cx="1566.62" cy="180.597" r="1.5" style="stroke:#000;stroke-width:1.25px;stroke-linejoin:bevel;"/>
            <circle cx="1523.97" cy="180.43" r="1.5" style="stroke:#000;stroke-width:1.25px;stroke-linejoin:bevel;"/>
            <circle cx="1499.77" cy="204.93" r="1.5" style="stroke:#000;stroke-width:1.25px;stroke-linejoin:bevel;"/>
            <circle cx="1662.12" cy="137.472" r="1.5" style="stroke:#000;stroke-width:1.25px;stroke-linejoin:bevel;"/>
            <circle cx="1662.12" cy="42.579" r="1.5" style="stroke:#000;stroke-width:1.25px;stroke-linejoin:bevel;"/>
        </g>
        <g>
            <path d="M1662.12,232.097L1634.62,205.055L1662.12,232.097Z" style="fill:none;stroke:#f5cd6c;stroke-width:5.99px;"/>
            <path d="M1636.12,207.097L1608.62,180.055L1636.12,207.097Z" style="fill:none;stroke:#78608c;stroke-width:5.99px;"/>
        </g>
        <g id="_9" serif:id="9">
            <circle cx="1632.62" cy="202.826" r="15.75" style="fill:#fff;stroke:#fff;stroke-width:1.46px;"/>
            <g id="_8-petals" serif:id="8 petals">
                <path id="q41" serif:id="q4" d="M1629.98,203.451L1617.62,203.451C1618.97,202.443 1621.57,200.777 1623.29,200.777C1625.14,200.777 1628.47,202.577 1629.98,203.451ZM1632.57,188.527L1632.57,200.712C1631.68,199.168 1629.95,195.933 1629.95,194.121C1629.95,192.299 1631.7,189.697 1632.57,188.527ZM1630.76,201.58C1628.19,200.907 1625.24,199.845 1624.14,198.74C1622.82,197.425 1622.22,194.239 1622.02,192.843C1623.68,193.086 1626.69,193.743 1627.91,194.967C1629.02,196.066 1630.08,199.02 1630.76,201.58Z" style="fill:#733c52;"/>
                <path id="q11" serif:id="q1" d="M1647.62,203.451L1635.27,203.451C1636.77,202.577 1640.1,200.777 1641.95,200.777C1643.81,200.777 1646.49,202.61 1647.62,203.451ZM1632.57,200.712L1632.57,188.527C1632.59,188.503 1632.6,188.479 1632.62,188.456C1633.47,189.588 1635.3,192.261 1635.3,194.121C1635.3,195.969 1633.49,199.3 1632.62,200.804C1632.6,200.774 1632.59,200.744 1632.57,200.712ZM1641.11,198.74C1640.01,199.845 1637.05,200.907 1634.49,201.58C1635.16,199.02 1636.23,196.066 1637.33,194.967C1638.65,193.652 1641.83,193.053 1643.22,192.849C1643.02,194.245 1642.42,197.425 1641.11,198.74Z" style="fill:#733c52;"/>
                <path id="q21" serif:id="q2" d="M1635.27,203.451L1647.62,203.451C1646.27,204.458 1643.68,206.124 1641.95,206.124C1640.1,206.124 1636.77,204.324 1635.27,203.451ZM1632.57,218.374L1632.57,206.189C1632.59,206.158 1632.6,206.127 1632.62,206.097C1633.49,207.601 1635.3,210.932 1635.3,212.78C1635.3,214.64 1633.47,217.313 1632.62,218.445C1632.6,218.422 1632.59,218.398 1632.57,218.374ZM1634.49,205.321C1637.05,205.995 1640.01,207.056 1641.11,208.161C1642.42,209.476 1643.02,212.662 1643.22,214.058C1641.56,213.815 1638.55,213.158 1637.33,211.934C1636.23,210.835 1635.16,207.881 1634.49,205.321Z" style="fill:#733c52;"/>
                <path id="q31" serif:id="q3" d="M1632.57,206.189L1632.57,218.374C1631.7,217.204 1629.95,214.602 1629.95,212.78C1629.95,210.968 1631.68,207.733 1632.57,206.189ZM1617.62,203.451L1629.98,203.451C1628.47,204.324 1625.14,206.124 1623.29,206.124C1621.43,206.124 1618.75,204.291 1617.62,203.451ZM1624.14,208.161C1625.24,207.056 1628.19,205.995 1630.76,205.321C1630.08,207.881 1629.02,210.835 1627.91,211.934C1626.6,213.249 1623.41,213.848 1622.02,214.052C1622.22,212.656 1622.82,209.476 1624.14,208.161Z" style="fill:#733c52;"/>
            </g>
        </g>
    </g>
</svg>
