<?xml version="1.0" encoding="UTF-8" standalone="no"?>
<!DOCTYPE svg PUBLIC "-//W3C//DTD SVG 1.1//EN" "http://www.w3.org/Graphics/SVG/1.1/DTD/svg11.dtd">
<svg width="100%" height="100%" viewBox="0 0 1701 2481" version="1.1" xmlns="http://www.w3.org/2000/svg" xmlns:xlink="http://www.w3.org/1999/xlink" xml:space="preserve" xmlns:serif="http://www.serif.com/" style="fill-rule:evenodd;clip-rule:evenodd;stroke-linecap:round;stroke-linejoin:round;stroke-miterlimit:1.5;">
    <rect id="C2W2" x="0.621" y="0.593" width="1700" height="2480" style="fill:none;"/>
    <g id="Fields" opacity="0.2">
        <path id="_6" serif:id="6" d="M978.001,1718.52L1183.63,2470.26L516.166,2470.16L717.794,1716.5C804.034,1738.39 893.471,1741.3 978.001,1718.52Z" style="fill:#b7977c;stroke:#767676;stroke-width:8.33px;"/>
    </g>
    <g id="S">
        <g id="Ring">
            <path id="Backer" d="M1262.06,1477.59C1131.17,1704.29 840.86,1782.09 614.172,1651.22C387.483,1520.34 309.706,1230.03 440.594,1003.33C571.483,776.631 861.79,698.833 1088.48,829.709C1315.17,960.584 1392.94,1250.89 1262.06,1477.59Z" style="fill:#fff;"/>
            <path d="M1262.06,1477.59C1131.17,1704.29 840.86,1782.09 614.172,1651.22C387.483,1520.34 309.706,1230.03 440.594,1003.33C571.483,776.631 861.79,698.833 1088.48,829.709C1315.17,960.584 1392.94,1250.89 1262.06,1477.59Z" style="fill:none;stroke:#000;stroke-width:8.33px;"/>
            <path d="M1262.06,1477.59L1235.8,1462.43" style="fill:none;stroke:#000;stroke-width:8.33px;"/>
            <path d="M466.852,1018.49L440.594,1003.33" style="fill:none;stroke:#000;stroke-width:8.33px;"/>
            <path d="M629.331,1624.96L614.172,1651.22" style="fill:none;stroke:#000;stroke-width:8.33px;"/>
            <path d="M1088.48,829.709L1073.32,855.965" style="fill:none;stroke:#000;stroke-width:8.33px;"/>
            <path d="M1088.47,1651.2L1073.31,1624.94" style="fill:none;stroke:#000;stroke-width:8.33px;"/>
            <path d="M629.341,855.983L614.182,829.726" style="fill:none;stroke:#000;stroke-width:8.33px;"/>
            <path d="M466.822,1462.45L440.565,1477.61" style="fill:none;stroke:#000;stroke-width:8.33px;"/>
            <path d="M1262.09,1003.31L1235.83,1018.47" style="fill:none;stroke:#000;stroke-width:8.33px;"/>
            <path d="M851.325,1714.76L851.325,1684.44" style="fill:none;stroke:#000;stroke-width:8.33px;"/>
            <path d="M851.325,796.486L851.325,766.167" style="fill:none;stroke:#000;stroke-width:8.33px;"/>
            <path d="M407.358,1240.46L377.038,1240.46" style="fill:none;stroke:#000;stroke-width:8.33px;"/>
            <path d="M1325.61,1240.46L1295.29,1240.46" style="fill:none;stroke:#000;stroke-width:8.33px;"/>
        </g>
        <g id="Root-Markers" serif:id="Root Markers">
            <path id="_11" serif:id="11" d="M667.578,921L749.431,990.174L686.557,1026.47L667.578,921ZM695.865,969.995L700.589,996.246L716.237,987.211L695.865,969.995Z" style="fill:#f5cd6c;"/>
        </g>
        <g id="Notes">
            <path id="_111" serif:id="11" d="M682.808,873.995C660.819,912.081 612.045,925.15 573.959,903.161C535.872,881.172 522.803,832.399 544.792,794.314C566.782,756.228 615.556,743.159 653.642,765.148C691.729,787.137 704.798,835.91 682.808,873.995Z" style="fill:#f5cd6c;stroke:#fff;stroke-width:24px;"/>
            <path id="_9" serif:id="9" d="M446.046,1289.65C424.057,1327.74 375.283,1340.81 337.196,1318.82C299.11,1296.83 286.041,1248.06 308.03,1209.97C330.019,1171.88 378.793,1158.82 416.88,1180.81C454.966,1202.79 468.035,1251.57 446.046,1289.65Z" style="fill:#f5cd6c;stroke:#fff;stroke-width:24px;"/>
            <path id="_7" serif:id="7" d="M687.426,1689.79C665.437,1727.88 616.663,1740.94 578.576,1718.95C540.49,1696.97 527.421,1648.19 549.41,1610.11C571.399,1572.02 620.173,1558.95 658.26,1580.94C696.346,1602.93 709.415,1651.7 687.426,1689.79Z" style="fill:#f5cd6c;stroke:#fff;stroke-width:24px;"/>
        </g>
        <g id="Treble-Marker" serif:id="Treble Marker">
            <g id="_61" serif:id="6">
                <path id="_62" serif:id="6" d="M920.333,1756.93C898.344,1795.02 849.57,1808.09 811.483,1786.1C773.397,1764.11 760.328,1715.34 782.317,1677.25C804.306,1639.17 853.08,1626.1 891.167,1648.09C929.253,1670.08 942.322,1718.85 920.333,1756.93Z" style="fill:#fff;stroke:#fff;stroke-width:33.33px;"/>
                <circle id="_6a" serif:id="6a" cx="850.621" cy="1717.09" r="64" style="fill:#fff;stroke:#f5cd6c;stroke-width:16.67px;"/>
            </g>
        </g>
    </g>
    <g id="Songs">
        <g id="song-9-petals" serif:id="song 9 petals">
            <g id="W">
                <path d="M861.072,2358.6C841.676,2358.7 822.264,2351.23 807.687,2336.24L781.93,2309.75C768.563,2296.01 761.625,2278.37 761.064,2260.59L861.732,2260.77L861.072,2358.6Z" style="fill:#f5cd6c;stroke:#fff;stroke-width:1.67px;"/>
                <path d="M960.995,2260.95C960.497,2279.54 953.032,2297.96 938.66,2311.94L912.173,2337.7C897.927,2351.55 879.506,2358.5 861.072,2358.6L861.732,2260.77L960.995,2260.95Z" style="fill:#f5cd6c;stroke:#fff;stroke-width:1.67px;"/>
                <path d="M861.072,2261.6L861.072,2357.6" style="fill:none;stroke:#f5cd6c;stroke-width:4.17px;stroke-linecap:butt;"/>
                <path id="q2" d="M876.327,2262.22L946.331,2262.22C938.665,2267.93 923.974,2277.37 914.2,2277.37C903.724,2277.37 884.849,2267.17 876.327,2262.22ZM861.03,2346.78L861.03,2277.74C861.132,2277.56 861.233,2277.39 861.331,2277.22C866.279,2285.74 876.48,2304.61 876.48,2315.09C876.48,2325.63 866.126,2340.78 861.331,2347.19C861.233,2347.06 861.132,2346.92 861.03,2346.78ZM871.899,2272.82C886.437,2276.64 903.174,2282.65 909.405,2288.91C916.888,2296.37 920.248,2314.42 921.408,2322.33C911.971,2320.95 894.928,2317.23 888.025,2310.29C881.764,2304.06 875.747,2287.33 871.899,2272.82Z" style="fill:#e7e7e7;"/>
                <path id="q3" d="M861.03,2277.74L861.03,2346.78C856.116,2340.16 846.182,2325.41 846.182,2315.09C846.182,2304.82 855.981,2286.49 861.03,2277.74ZM776.331,2262.22L846.335,2262.22C837.813,2267.17 818.938,2277.37 808.462,2277.37C797.925,2277.37 782.745,2266.99 776.331,2262.22ZM813.257,2288.91C819.488,2282.65 836.225,2276.64 850.763,2272.82C846.915,2287.33 840.898,2304.06 834.637,2310.29C827.185,2317.75 809.164,2321.14 801.254,2322.3C802.415,2314.39 805.805,2296.37 813.257,2288.91Z" style="fill:#e7e7e7;"/>
            </g>
            <g id="C2W21" serif:id="C2W2">
                <path d="M862.515,2160.6C881.428,2160.87 900.241,2168.34 914.456,2182.96L940.213,2209.44C954.668,2224.31 961.604,2243.71 961.089,2262.94L861.826,2262.76L862.515,2160.6Z" style="fill:#f5cd6c;stroke:#fff;stroke-width:1.67px;"/>
                <path d="M761.158,2262.58C760.526,2242.54 767.993,2222.32 783.483,2207.25L809.97,2181.5C824.588,2167.28 843.602,2160.34 862.515,2160.6L861.826,2262.76L761.158,2262.58Z" style="fill:#f5cd6c;stroke:#fff;stroke-width:1.67px;"/>
                <path d="M862.826,2161.59L862.525,2261.94" style="fill:none;stroke:#f5cd6c;stroke-width:4.17px;stroke-linecap:butt;"/>
                <path id="q4" d="M846.83,2262.22L776.826,2262.22C784.492,2256.51 799.183,2247.07 808.957,2247.07C819.433,2247.07 838.308,2257.27 846.83,2262.22ZM861.525,2177.66L861.525,2246.7C856.476,2237.95 846.677,2219.62 846.677,2209.35C846.677,2199.03 856.611,2184.28 861.525,2177.66ZM851.258,2251.62C836.72,2247.8 819.983,2241.79 813.752,2235.53C806.269,2228.07 802.91,2210.02 801.749,2202.11C811.186,2203.49 828.229,2207.21 835.132,2214.15C841.393,2220.38 847.41,2237.11 851.258,2251.62Z" style="fill:#e7e7e7;"/>
                <path id="q1" d="M946.826,2262.22L876.822,2262.22C885.344,2257.27 904.219,2247.07 914.695,2247.07C925.233,2247.07 940.412,2257.45 946.826,2262.22ZM861.525,2246.7L861.525,2177.66C861.627,2177.52 861.728,2177.38 861.826,2177.25C866.621,2183.66 876.975,2198.81 876.975,2209.35C876.975,2219.83 866.774,2238.7 861.826,2247.22C861.728,2247.05 861.627,2246.88 861.525,2246.7ZM909.9,2235.53C903.669,2241.79 886.932,2247.8 872.394,2251.62C876.242,2237.11 882.259,2220.38 888.52,2214.15C895.973,2206.69 913.993,2203.3 921.903,2202.14C920.743,2210.05 917.353,2228.07 909.9,2235.53Z" style="fill:#e7e7e7;"/>
            </g>
        </g>
    </g>
    <g id="Map">
        <g id="Frame">
            <rect x="1472.12" y="42.135" width="190" height="190" style="fill:#fff;"/>
            <rect x="1472.12" y="42.135" width="190" height="190" style="fill:none;stroke:#000;stroke-width:1.17px;stroke-linejoin:bevel;"/>
            <rect x="1524" y="94.01" width="86.25" height="86.25" style="fill:none;stroke:#000;stroke-width:1.25px;stroke-linejoin:bevel;"/>
            <path d="M1610.25,94.01L1662.12,42.343" style="fill:none;stroke:#000;stroke-width:1.25px;stroke-linejoin:bevel;"/>
            <path d="M1524,94.01L1472.54,42.343" style="fill:none;stroke:#000;stroke-width:1.25px;stroke-linejoin:bevel;"/>
            <path d="M1524,180.26L1472.12,232.135" style="fill:none;stroke:#000;stroke-width:1.25px;stroke-linejoin:bevel;"/>
            <path d="M1610.25,180.26L1662.12,232.135" style="fill:none;stroke:#000;stroke-width:1.25px;stroke-linejoin:bevel;"/>
        </g>
        <g id="Dots">
            <circle cx="1472.12" cy="232.093" r="1.5" style="stroke:#000;stroke-width:1.25px;stroke-linejoin:bevel;"/>
            <circle cx="1566.82" cy="232.218" r="1.5" style="stroke:#000;stroke-width:1.25px;stroke-linejoin:bevel;"/>
            <circle cx="1662.12" cy="232.093" r="1.5" style="stroke:#000;stroke-width:1.25px;stroke-linejoin:bevel;"/>
            <circle cx="1634.47" cy="204.26" r="1.5" style="stroke:#000;stroke-width:1.25px;stroke-linejoin:bevel;"/>
            <circle cx="1610.25" cy="180.093" r="1.5" style="stroke:#000;stroke-width:1.25px;stroke-linejoin:bevel;"/>
            <circle cx="1609.82" cy="137.218" r="1.5" style="stroke:#000;stroke-width:1.25px;stroke-linejoin:bevel;"/>
            <circle cx="1609.94" cy="93.968" r="1.5" style="stroke:#000;stroke-width:1.25px;stroke-linejoin:bevel;"/>
            <circle cx="1634.38" cy="69.76" r="1.5" style="stroke:#000;stroke-width:1.25px;stroke-linejoin:bevel;"/>
            <circle cx="1566.82" cy="93.968" r="1.5" style="stroke:#000;stroke-width:1.25px;stroke-linejoin:bevel;"/>
            <circle cx="1523.69" cy="94.093" r="1.5" style="stroke:#000;stroke-width:1.25px;stroke-linejoin:bevel;"/>
            <circle cx="1567.12" cy="42.093" r="1.5" style="stroke:#000;stroke-width:1.25px;stroke-linejoin:bevel;"/>
            <circle cx="1472.12" cy="42.135" r="1.5" style="stroke:#000;stroke-width:1.25px;stroke-linejoin:bevel;"/>
            <circle cx="1499.97" cy="70.093" r="1.5" style="stroke:#000;stroke-width:1.25px;stroke-linejoin:bevel;"/>
            <circle cx="1472.12" cy="137.135" r="1.5" style="stroke:#000;stroke-width:1.25px;stroke-linejoin:bevel;"/>
            <circle cx="1524" cy="137.135" r="1.5" style="stroke:#000;stroke-width:1.25px;stroke-linejoin:bevel;"/>
            <circle cx="1566.62" cy="180.26" r="1.5" style="stroke:#000;stroke-width:1.25px;stroke-linejoin:bevel;"/>
            <circle cx="1523.97" cy="180.093" r="1.5" style="stroke:#000;stroke-width:1.25px;stroke-linejoin:bevel;"/>
            <circle cx="1499.77" cy="204.593" r="1.5" style="stroke:#000;stroke-width:1.25px;stroke-linejoin:bevel;"/>
            <circle cx="1662.12" cy="137.135" r="1.5" style="stroke:#000;stroke-width:1.25px;stroke-linejoin:bevel;"/>
            <circle cx="1662.12" cy="42.243" r="1.5" style="stroke:#000;stroke-width:1.25px;stroke-linejoin:bevel;"/>
        </g>
        <g>
            <path d="M1662.12,231.76L1634.62,204.718L1662.12,231.76Z" style="fill:none;stroke:#f5cd6c;stroke-width:5.99px;"/>
        </g>
        <path d="M1664.56,225.881C1667.8,227.225 1669.35,230.951 1668,234.196C1666.66,237.441 1662.93,238.984 1659.69,237.64C1656.44,236.296 1654.9,232.57 1656.24,229.325C1657.59,226.08 1661.31,224.537 1664.56,225.881Z" style="fill:#fff;stroke:#f5cd6c;stroke-width:5.99px;"/>
        <g id="_91" serif:id="9">
            <circle cx="1632.62" cy="202.489" r="15.75" style="fill:#fff;stroke:#fff;stroke-width:1.46px;"/>
            <g id="_8-petals" serif:id="8 petals">
                <path id="q41" serif:id="q4" d="M1629.98,203.114L1617.62,203.114C1618.97,202.106 1621.57,200.441 1623.29,200.441C1625.14,200.441 1628.47,202.241 1629.98,203.114ZM1632.57,188.191L1632.57,200.376C1631.68,198.832 1629.95,195.596 1629.95,193.785C1629.95,191.963 1631.7,189.361 1632.57,188.191ZM1630.76,201.244C1628.19,200.57 1625.24,199.509 1624.14,198.404C1622.82,197.089 1622.22,193.903 1622.02,192.507C1623.68,192.75 1626.69,193.407 1627.91,194.631C1629.02,195.73 1630.08,198.684 1630.76,201.244Z" style="fill:#733c52;"/>
                <path id="q11" serif:id="q1" d="M1647.62,203.114L1635.27,203.114C1636.77,202.241 1640.1,200.441 1641.95,200.441C1643.81,200.441 1646.49,202.274 1647.62,203.114ZM1632.57,200.376L1632.57,188.191C1632.59,188.167 1632.6,188.143 1632.62,188.12C1633.47,189.252 1635.3,191.925 1635.3,193.785C1635.3,195.633 1633.49,198.964 1632.62,200.468C1632.6,200.438 1632.59,200.407 1632.57,200.376ZM1641.11,198.404C1640.01,199.509 1637.05,200.57 1634.49,201.244C1635.16,198.684 1636.23,195.73 1637.33,194.631C1638.65,193.316 1641.83,192.717 1643.22,192.513C1643.02,193.908 1642.42,197.089 1641.11,198.404Z" style="fill:#733c52;"/>
                <path id="q21" serif:id="q2" d="M1635.27,203.114L1647.62,203.114C1646.27,204.122 1643.68,205.788 1641.95,205.788C1640.1,205.788 1636.77,203.988 1635.27,203.114ZM1632.57,218.038L1632.57,205.853C1632.59,205.821 1632.6,205.791 1632.62,205.761C1633.49,207.265 1635.3,210.596 1635.3,212.444C1635.3,214.304 1633.47,216.977 1632.62,218.109C1632.6,218.086 1632.59,218.062 1632.57,218.038ZM1634.49,204.985C1637.05,205.658 1640.01,206.72 1641.11,207.825C1642.42,209.14 1643.02,212.326 1643.22,213.722C1641.56,213.479 1638.55,212.822 1637.33,211.598C1636.23,210.499 1635.16,207.545 1634.49,204.985Z" style="fill:#733c52;"/>
                <path id="q31" serif:id="q3" d="M1632.57,205.853L1632.57,218.038C1631.7,216.868 1629.95,214.266 1629.95,212.444C1629.95,210.632 1631.68,207.397 1632.57,205.853ZM1617.62,203.114L1629.98,203.114C1628.47,203.988 1625.14,205.788 1623.29,205.788C1621.43,205.788 1618.75,203.955 1617.62,203.114ZM1624.14,207.825C1625.24,206.72 1628.19,205.658 1630.76,204.985C1630.08,207.545 1629.02,210.499 1627.91,211.598C1626.6,212.913 1623.41,213.511 1622.02,213.716C1622.22,212.32 1622.82,209.14 1624.14,207.825Z" style="fill:#733c52;"/>
            </g>
        </g>
    </g>
</svg>
