<?xml version="1.0" encoding="UTF-8" standalone="no"?>
<!DOCTYPE svg PUBLIC "-//W3C//DTD SVG 1.1//EN" "http://www.w3.org/Graphics/SVG/1.1/DTD/svg11.dtd">
<svg width="100%" height="100%" viewBox="0 0 1700 2480" version="1.1" xmlns="http://www.w3.org/2000/svg" xmlns:xlink="http://www.w3.org/1999/xlink" xml:space="preserve" xmlns:serif="http://www.serif.com/" style="fill-rule:evenodd;clip-rule:evenodd;stroke-linecap:round;stroke-linejoin:round;stroke-miterlimit:1.5;">
    <rect id="D2A" x="0" y="0" width="1700" height="2480" style="fill:none;"/>
    <g id="Fields" opacity="0.2">
        <path id="_5" serif:id="5" d="M1204.91,1583.9L1690.02,2056.12L1690.02,2469.49L1182.01,2469.59L977.379,1717.85C1063.77,1694.26 1140.44,1649.93 1204.91,1583.9Z" style="fill:#9da285;stroke:#767676;stroke-width:8.33px;"/>
    </g>
    <g id="S">
        <g id="Ring">
            <path id="Backer" d="M1261.43,1477C1130.55,1703.7 840.239,1781.5 613.55,1650.62C386.862,1519.75 309.085,1229.44 439.973,1002.74C570.862,776.037 861.169,698.239 1087.86,829.115C1314.55,959.991 1392.32,1250.3 1261.43,1477Z" style="fill:#fff;"/>
            <path d="M1261.43,1477C1130.55,1703.7 840.239,1781.5 613.55,1650.62C386.862,1519.75 309.085,1229.44 439.973,1002.74C570.862,776.037 861.169,698.239 1087.86,829.115C1314.55,959.991 1392.32,1250.3 1261.43,1477Z" style="fill:none;stroke:#000;stroke-width:8.33px;"/>
            <path d="M1261.43,1477L1235.18,1461.84" style="fill:none;stroke:#000;stroke-width:8.33px;"/>
            <path d="M466.231,1017.9L439.973,1002.74" style="fill:none;stroke:#000;stroke-width:8.33px;"/>
            <path d="M628.71,1624.37L613.55,1650.62" style="fill:none;stroke:#000;stroke-width:8.33px;"/>
            <path d="M1087.86,829.115L1072.7,855.372" style="fill:none;stroke:#000;stroke-width:8.33px;"/>
            <path d="M1087.85,1650.6L1072.69,1624.35" style="fill:none;stroke:#000;stroke-width:8.33px;"/>
            <path d="M628.72,855.389L613.56,829.132" style="fill:none;stroke:#000;stroke-width:8.33px;"/>
            <path d="M466.201,1461.86L439.944,1477.02" style="fill:none;stroke:#000;stroke-width:8.33px;"/>
            <path d="M1261.46,1002.72L1235.21,1017.88" style="fill:none;stroke:#000;stroke-width:8.33px;"/>
            <path d="M850.704,1714.16L850.704,1683.85" style="fill:none;stroke:#000;stroke-width:8.33px;"/>
            <path d="M850.704,795.892L850.704,765.573" style="fill:none;stroke:#000;stroke-width:8.33px;"/>
            <path d="M406.736,1239.87L376.417,1239.87" style="fill:none;stroke:#000;stroke-width:8.33px;"/>
            <path d="M1324.99,1239.87L1294.67,1239.87" style="fill:none;stroke:#000;stroke-width:8.33px;"/>
        </g>
        <g id="Root-Markers" serif:id="Root Markers">
            <path id="_6" serif:id="6" d="M851.354,1607.62L815.055,1506.78L887.654,1506.78L851.354,1607.62ZM851.354,1551.04L860.389,1525.94L842.32,1525.94L851.354,1551.04Z" style="fill:#b79f76;"/>
        </g>
        <g id="Notes">
            <path id="_61" serif:id="6" d="M919.712,1756.34C897.722,1794.43 848.949,1807.5 810.862,1785.51C772.775,1763.52 759.707,1714.75 781.696,1676.66C803.685,1638.57 852.459,1625.51 890.546,1647.49C928.632,1669.48 941.701,1718.26 919.712,1756.34Z" style="fill:#b79f76;stroke:#fff;stroke-width:24px;"/>
            <path id="_51" serif:id="5" d="M1156.02,1693.33C1134.04,1731.42 1085.26,1744.49 1047.17,1722.5C1009.09,1700.51 996.019,1651.74 1018.01,1613.65C1040,1575.57 1088.77,1562.5 1126.86,1584.49C1164.94,1606.47 1178.01,1655.25 1156.02,1693.33Z" style="fill:#b79f76;stroke:#fff;stroke-width:24px;"/>
            <path id="_1" serif:id="1" d="M1153.64,879.109C1131.65,917.195 1082.87,930.264 1044.79,908.275C1006.7,886.286 993.632,837.513 1015.62,799.427C1037.61,761.342 1086.38,748.273 1124.47,770.262C1162.56,792.251 1175.63,841.024 1153.64,879.109Z" style="fill:#b79f76;stroke:#fff;stroke-width:24px;"/>
        </g>
        <g id="Treble-Marker" serif:id="Treble Marker">
            <g id="_8" serif:id="8">
                <path id="_8u" serif:id="8u" d="M510.492,1521.29C488.503,1559.38 439.729,1572.45 401.643,1550.46C363.556,1528.47 350.487,1479.7 372.476,1441.61C394.466,1403.53 443.24,1390.46 481.326,1412.44C519.413,1434.43 532.482,1483.21 510.492,1521.29Z" style="fill:#fff;stroke:#fff;stroke-width:33.33px;"/>
                <circle id="_8a" serif:id="8a" cx="441.484" cy="1481.45" r="64" style="fill:#fff;stroke:#b79f76;stroke-width:16.67px;"/>
            </g>
        </g>
    </g>
    <g id="Songs">
        <g id="song-6-tubular" serif:id="song 6 tubular">
            <g id="D2A2">
                <path d="M1442.49,2160C1461.41,2160.26 1480.22,2167.74 1494.43,2182.36L1520.19,2208.84C1534.64,2223.7 1541.58,2243.11 1541.07,2262.34L1441.8,2262.16L1442.49,2160Z" style="fill:#ec9959;stroke:#fff;stroke-width:1.67px;"/>
                <path d="M1541.07,2262.34C1540.57,2280.93 1533.1,2299.35 1518.73,2313.33L1492.25,2339.09C1478,2352.94 1459.58,2359.89 1441.14,2359.99L1441.8,2262.16L1541.07,2262.34Z" style="fill:#ec9959;stroke:#fff;stroke-width:1.67px;"/>
                <path d="M1442.6,2262.34L1540.2,2262.34" style="fill:none;stroke:#b79f76;stroke-width:4.17px;stroke-linecap:butt;"/>
                <path id="q1" d="M1527.31,2261.63L1491.92,2261.63C1491.73,2253.49 1489.91,2245.59 1486.71,2238.33C1487.58,2246.31 1486.86,2254.2 1484.76,2261.63L1479.66,2261.63C1480.7,2254.73 1480.37,2247.51 1478.45,2240.35C1476.42,2232.78 1472.84,2226.06 1468.13,2220.42C1473.03,2233.78 1472.29,2248.75 1465.9,2261.63L1465.38,2261.63C1472.4,2245.41 1469.29,2225.85 1456.04,2212.6C1454.14,2210.7 1452.12,2209.01 1449.99,2207.53C1457.2,2217.89 1459.97,2231.24 1456.44,2244.39C1460.57,2229 1454.56,2213.29 1442.5,2204.34L1442.5,2203.7C1443.27,2203.92 1444.04,2204.16 1444.8,2204.42C1444.04,2204.03 1443.28,2203.67 1442.5,2203.33L1442.5,2176.63C1464.19,2176.67 1485.87,2184.97 1502.42,2201.52C1519.02,2218.12 1527.31,2239.87 1527.31,2261.63ZM1442.5,2245.3L1442.5,2242.07C1446.29,2235.12 1447.52,2226.78 1445.34,2218.54C1447.82,2227.87 1446.57,2237.32 1442.5,2245.3ZM1447.43,2261.63L1446.36,2261.63C1451.06,2257.05 1454.63,2251.19 1456.45,2244.39C1454.69,2250.95 1451.55,2256.77 1447.43,2261.63Z" style="fill:#e7e7e7;"/>
                <path id="q2" d="M1442.5,2346.63L1442.5,2342.31C1457.82,2340.35 1472.63,2333.49 1484.39,2321.73C1500.78,2305.34 1507.65,2283.03 1505,2261.67C1505,2261.66 1505,2261.64 1505,2261.63L1527.31,2261.63C1527.31,2283.38 1519.02,2305.13 1502.42,2321.73C1485.87,2338.28 1464.19,2346.58 1442.5,2346.63ZM1504.99,2261.63C1504.99,2261.64 1505,2261.66 1505,2261.67C1504.59,2264.88 1503.96,2268.11 1503.1,2271.32C1495.29,2300.48 1470.7,2320.68 1442.5,2324.3L1442.5,2323.33C1464.69,2318.9 1483.57,2302.32 1489.83,2278.98C1491.38,2273.18 1492.05,2267.35 1491.92,2261.63L1504.99,2261.63ZM1442.5,2285.12L1442.5,2284.61C1447.41,2282.45 1452.01,2279.37 1456.03,2275.35C1451.96,2279.42 1447.38,2282.68 1442.5,2285.12ZM1456.11,2275.27C1460.14,2271.22 1463.23,2266.58 1465.38,2261.63L1465.9,2261.63C1463.46,2266.55 1460.2,2271.16 1456.11,2275.27ZM1479.66,2261.63L1484.76,2261.63C1479.15,2281.46 1463.69,2297.97 1442.5,2304.01L1442.5,2304.01C1462.67,2298.2 1476.7,2281.22 1479.66,2261.63ZM1442.5,2266.57L1442.5,2264.91C1443.86,2263.9 1445.15,2262.81 1446.36,2261.63L1447.43,2261.63C1445.91,2263.41 1444.26,2265.06 1442.5,2266.57Z" style="fill:#e7e7e7;"/>
            </g>
            <g id="D2A1" serif:id="D2A">
                <path d="M1440.75,2359.99C1421.35,2360.1 1401.94,2352.62 1387.36,2337.63L1361.6,2311.15C1348.24,2297.4 1341.3,2279.77 1340.74,2261.99L1441.4,2262.17L1440.75,2359.99Z" style="fill:#b79f76;stroke:#fff;stroke-width:1.67px;"/>
                <path d="M1340.74,2261.99C1340.11,2241.95 1347.57,2221.72 1363.06,2206.66L1389.55,2180.9C1404.17,2166.69 1423.18,2159.74 1442.09,2160.01L1441.4,2262.17L1340.74,2261.99Z" style="fill:#b79f76;stroke:#fff;stroke-width:1.67px;"/>
                <path d="M1341.7,2262.17L1440.7,2262.35" style="fill:none;stroke:#ec9959;stroke-width:4.17px;stroke-linecap:butt;"/>
                <path id="q4" d="M1381.61,2202.13C1381.63,2202.11 1381.64,2202.09 1381.66,2202.08C1381.63,2202.11 1381.6,2202.14 1381.57,2202.17C1381.44,2202.31 1381.31,2202.45 1381.18,2202.59C1381.52,2202.23 1381.86,2201.87 1382.21,2201.52C1381.89,2201.85 1381.57,2202.18 1381.26,2202.51C1381.81,2201.92 1382.38,2201.35 1382.96,2200.8C1382.74,2201 1382.52,2201.21 1382.31,2201.43C1382.36,2201.37 1382.42,2201.32 1382.48,2201.26C1382.62,2201.12 1382.76,2200.98 1382.9,2200.84C1382.86,2200.89 1382.81,2200.93 1382.77,2200.97C1383.08,2200.67 1383.39,2200.37 1383.71,2200.07C1383.44,2200.32 1383.18,2200.57 1382.92,2200.82C1399.47,2184.64 1420.99,2176.58 1442.5,2176.63L1442.5,2204.34C1442.02,2203.98 1441.53,2203.63 1441.03,2203.29C1439.48,2202.89 1437.9,2202.56 1436.31,2202.31C1435.83,2202.23 1435.34,2202.16 1434.85,2202.09C1433.12,2201.86 1431.38,2201.72 1429.62,2201.67C1428.97,2201.65 1428.32,2201.64 1427.67,2201.64C1427.7,2201.67 1427.72,2201.7 1427.75,2201.72C1425.65,2201.82 1423.57,2202.02 1421.52,2202.32C1427.63,2208.96 1430.31,2218.49 1427.8,2227.85C1424.85,2238.86 1415.57,2246.48 1404.92,2247.84C1412.97,2248.83 1421.37,2246.24 1427.55,2240.06C1438.12,2229.48 1438.19,2212.38 1427.75,2201.72C1440.07,2214.26 1440,2234.4 1427.55,2246.86C1420.4,2254.01 1410.71,2257.07 1401.39,2256.06C1407.85,2258.92 1415.29,2259.67 1422.64,2257.7C1431.47,2255.34 1438.45,2249.51 1442.5,2242.07L1442.5,2245.3C1439.01,2252.16 1433.44,2257.94 1426.37,2261.63L1357.31,2261.63C1357.31,2240.14 1365.41,2218.65 1381.61,2202.13ZM1404.66,2193.78C1405.95,2193.9 1407.24,2194.13 1408.53,2194.48C1407.31,2194.15 1406.08,2193.91 1404.86,2193.76C1404.8,2193.76 1404.73,2193.77 1404.66,2193.78ZM1410.14,2194.96C1409.62,2194.78 1409.09,2194.62 1408.56,2194.48C1409.09,2194.62 1409.61,2194.78 1410.12,2194.96C1410.13,2194.96 1410.14,2194.96 1410.14,2194.96ZM1421.45,2196.93C1422.52,2197.52 1423.55,2198.18 1424.54,2198.92C1424.84,2199.14 1425.13,2199.37 1425.42,2199.61C1426.16,2200.2 1426.87,2200.84 1427.55,2201.52C1426.88,2200.85 1426.18,2200.21 1425.46,2199.61C1425.18,2199.37 1424.89,2199.14 1424.6,2198.91C1423.69,2198.2 1422.75,2197.54 1421.79,2196.94C1421.68,2196.94 1421.57,2196.93 1421.45,2196.93ZM1405.62,2203.88C1409.21,2202.39 1412.89,2201.21 1416.63,2200.33C1412.85,2201.02 1409.15,2202.2 1405.62,2203.88ZM1382.59,2229.91C1382.6,2229.87 1382.6,2229.83 1382.61,2229.79C1382.6,2229.82 1382.59,2229.85 1382.58,2229.87C1382.58,2229.89 1382.59,2229.9 1382.59,2229.91ZM1420.69,2202.45C1413.43,2203.63 1406.49,2206.1 1400.18,2209.68C1393.88,2213.66 1388.59,2218.89 1384.57,2224.94C1383.92,2226.29 1383.36,2227.67 1382.86,2229.06C1385.85,2233.89 1390.62,2237.64 1396.54,2239.22C1408.9,2242.53 1421.6,2235.2 1424.91,2222.84C1426.88,2215.48 1425.08,2208 1420.69,2202.45Z" style="fill:#e7e7e7;"/>
                <path id="q3" d="M1357.31,2261.63L1361.6,2261.63C1361.6,2261.64 1361.61,2261.65 1361.61,2261.66C1358.95,2283.01 1365.82,2305.33 1382.21,2321.73C1365.61,2305.13 1357.31,2283.38 1357.31,2261.63ZM1382.21,2321.73C1398.67,2338.18 1421.08,2345.04 1442.5,2342.31L1442.5,2346.63C1420.69,2346.68 1398.86,2338.38 1382.21,2321.73ZM1361.61,2261.66C1361.61,2261.65 1361.61,2261.64 1361.61,2261.63L1426.37,2261.63C1423.96,2262.88 1421.38,2263.9 1418.64,2264.63C1410.82,2266.72 1402.91,2266.2 1395.84,2263.59C1399.92,2267 1404.79,2269.59 1410.25,2271.06C1421.82,2274.16 1433.58,2271.53 1442.5,2264.91L1442.5,2266.57C1431.76,2275.78 1416.8,2279.7 1402.1,2275.76C1397,2274.39 1392.35,2272.19 1388.25,2269.34C1389.72,2271.45 1391.4,2273.46 1393.29,2275.35C1406.59,2288.65 1426.25,2291.74 1442.5,2284.61L1442.5,2285.12C1422.95,2294.92 1398.53,2291.66 1382.21,2275.34C1381.09,2274.22 1380.03,2273.06 1379.03,2271.86C1388.21,2296.96 1415.22,2311.33 1441.54,2304.28C1411.86,2312.24 1381.42,2297.02 1369.43,2269.72C1372.09,2294.15 1389.37,2315.6 1414.51,2322.38C1385.34,2314.52 1365.17,2289.89 1361.61,2261.66ZM1414.65,2322.42C1424.06,2324.93 1433.55,2325.12 1442.5,2323.33L1442.5,2324.3C1433.45,2325.47 1424.02,2324.92 1414.65,2322.42Z" style="fill:#e7e7e7;"/>
            </g>
        </g>
    </g>
    <g id="Map">
        <g id="Frame">
            <rect x="1471.5" y="41.542" width="190" height="190" style="fill:#fff;"/>
            <rect x="1471.5" y="41.542" width="190" height="190" style="fill:none;stroke:#000;stroke-width:1.17px;stroke-linejoin:bevel;"/>
            <rect x="1523.38" y="93.417" width="86.25" height="86.25" style="fill:none;stroke:#000;stroke-width:1.25px;stroke-linejoin:bevel;"/>
            <path d="M1609.62,93.417L1661.5,41.75" style="fill:none;stroke:#000;stroke-width:1.25px;stroke-linejoin:bevel;"/>
            <path d="M1523.38,93.417L1471.92,41.75" style="fill:none;stroke:#000;stroke-width:1.25px;stroke-linejoin:bevel;"/>
            <path d="M1523.38,179.667L1471.5,231.542" style="fill:none;stroke:#000;stroke-width:1.25px;stroke-linejoin:bevel;"/>
            <path d="M1609.62,179.667L1661.5,231.542" style="fill:none;stroke:#000;stroke-width:1.25px;stroke-linejoin:bevel;"/>
        </g>
        <g id="Dots">
            <circle cx="1471.5" cy="231.5" r="1.5" style="stroke:#000;stroke-width:1.25px;stroke-linejoin:bevel;"/>
            <circle cx="1566.2" cy="231.625" r="1.5" style="stroke:#000;stroke-width:1.25px;stroke-linejoin:bevel;"/>
            <circle cx="1661.5" cy="231.5" r="1.5" style="stroke:#000;stroke-width:1.25px;stroke-linejoin:bevel;"/>
            <circle cx="1633.85" cy="203.667" r="1.5" style="stroke:#000;stroke-width:1.25px;stroke-linejoin:bevel;"/>
            <circle cx="1609.62" cy="179.5" r="1.5" style="stroke:#000;stroke-width:1.25px;stroke-linejoin:bevel;"/>
            <circle cx="1609.2" cy="136.625" r="1.5" style="stroke:#000;stroke-width:1.25px;stroke-linejoin:bevel;"/>
            <circle cx="1609.32" cy="93.375" r="1.5" style="stroke:#000;stroke-width:1.25px;stroke-linejoin:bevel;"/>
            <circle cx="1633.76" cy="69.167" r="1.5" style="stroke:#000;stroke-width:1.25px;stroke-linejoin:bevel;"/>
            <circle cx="1566.2" cy="93.375" r="1.5" style="stroke:#000;stroke-width:1.25px;stroke-linejoin:bevel;"/>
            <circle cx="1523.07" cy="93.5" r="1.5" style="stroke:#000;stroke-width:1.25px;stroke-linejoin:bevel;"/>
            <circle cx="1566.5" cy="41.5" r="1.5" style="stroke:#000;stroke-width:1.25px;stroke-linejoin:bevel;"/>
            <circle cx="1471.5" cy="41.542" r="1.5" style="stroke:#000;stroke-width:1.25px;stroke-linejoin:bevel;"/>
            <circle cx="1499.35" cy="69.5" r="1.5" style="stroke:#000;stroke-width:1.25px;stroke-linejoin:bevel;"/>
            <circle cx="1471.5" cy="136.542" r="1.5" style="stroke:#000;stroke-width:1.25px;stroke-linejoin:bevel;"/>
            <circle cx="1523.38" cy="136.542" r="1.5" style="stroke:#000;stroke-width:1.25px;stroke-linejoin:bevel;"/>
            <circle cx="1566" cy="179.667" r="1.5" style="stroke:#000;stroke-width:1.25px;stroke-linejoin:bevel;"/>
            <circle cx="1523.35" cy="179.5" r="1.5" style="stroke:#000;stroke-width:1.25px;stroke-linejoin:bevel;"/>
            <circle cx="1499.15" cy="204" r="1.5" style="stroke:#000;stroke-width:1.25px;stroke-linejoin:bevel;"/>
            <circle cx="1661.5" cy="136.542" r="1.5" style="stroke:#000;stroke-width:1.25px;stroke-linejoin:bevel;"/>
            <circle cx="1661.49" cy="41.65" r="1.5" style="stroke:#000;stroke-width:1.25px;stroke-linejoin:bevel;"/>
        </g>
        <g>
            <path d="M1522.91,136.542L1523.43,93.417" style="fill:none;stroke:#ec9959;stroke-width:5.99px;"/>
        </g>
        <path d="M1522.91,180.443L1522.91,136.542" style="fill:none;stroke:#4daab1;stroke-width:5.83px;"/>
        <g id="_62" serif:id="6">
            <circle cx="1522.75" cy="136.5" r="15.75" style="fill:#fff;stroke:#fff;stroke-width:1.46px;"/>
            <path id="q11" serif:id="q1" d="M1537.88,136.542L1531.63,136.542C1531.6,135.106 1531.27,133.712 1530.71,132.431C1530.86,133.839 1530.74,135.232 1530.37,136.542L1529.47,136.542C1529.65,135.325 1529.59,134.051 1529.25,132.787C1528.89,131.452 1528.26,130.265 1527.43,129.27C1528.3,131.628 1528.16,134.269 1527.04,136.542L1526.94,136.542C1528.18,133.68 1527.63,130.229 1525.3,127.89C1524.96,127.555 1524.61,127.257 1524.23,126.996C1525.5,128.824 1525.99,131.18 1525.37,133.5C1526.1,130.785 1525.04,128.012 1522.91,126.432L1522.91,126.319C1523.04,126.358 1523.18,126.401 1523.31,126.446C1523.18,126.378 1523.05,126.314 1522.91,126.255L1522.91,121.542C1526.74,121.55 1530.56,123.015 1533.48,125.935C1536.41,128.864 1537.88,132.703 1537.88,136.542ZM1522.91,133.66L1522.91,133.09C1523.58,131.865 1523.79,130.392 1523.41,128.938C1523.85,130.585 1523.62,132.252 1522.91,133.66ZM1523.78,136.542L1523.59,136.542C1524.42,135.734 1525.05,134.7 1525.37,133.5C1525.06,134.658 1524.51,135.686 1523.78,136.542Z" style="fill:#733c52;"/>
            <path id="q21" serif:id="q2" d="M1522.91,151.542L1522.91,150.78C1525.61,150.435 1528.22,149.224 1530.3,147.148C1533.19,144.255 1534.4,140.318 1533.94,136.55C1533.94,136.547 1533.94,136.545 1533.94,136.542L1537.88,136.542C1537.88,140.381 1536.41,144.22 1533.48,147.148C1530.56,150.069 1526.74,151.534 1522.91,151.542ZM1533.94,136.542C1533.94,136.545 1533.94,136.547 1533.94,136.55C1533.86,137.117 1533.75,137.685 1533.6,138.252C1532.22,143.399 1527.88,146.962 1522.91,147.602L1522.91,147.431C1526.82,146.649 1530.16,143.723 1531.26,139.604C1531.53,138.58 1531.65,137.551 1531.63,136.542L1533.94,136.542ZM1522.91,140.688L1522.91,140.598C1523.78,140.217 1524.59,139.673 1525.3,138.963C1524.58,139.682 1523.77,140.257 1522.91,140.688ZM1525.31,138.949C1526.02,138.234 1526.57,137.415 1526.94,136.542L1527.04,136.542C1526.61,137.41 1526.03,138.225 1525.31,138.949ZM1529.47,136.542L1530.37,136.542C1529.38,140.042 1526.65,142.956 1522.91,144.022L1522.91,144.022C1526.47,142.996 1528.94,139.999 1529.47,136.542ZM1522.91,137.414L1522.91,137.121C1523.15,136.944 1523.38,136.75 1523.59,136.542L1523.78,136.542C1523.51,136.856 1523.22,137.148 1522.91,137.414Z" style="fill:#733c52;"/>
            <path id="q41" serif:id="q4" d="M1512.16,126.042C1512.17,126.039 1512.17,126.036 1512.17,126.033C1512.17,126.039 1512.16,126.044 1512.15,126.05C1512.13,126.074 1512.11,126.098 1512.09,126.123C1512.15,126.06 1512.21,125.997 1512.27,125.935C1512.21,125.993 1512.15,126.051 1512.1,126.11C1512.2,126.006 1512.3,125.905 1512.4,125.807C1512.36,125.843 1512.32,125.88 1512.29,125.918C1512.3,125.908 1512.31,125.899 1512.32,125.889C1512.34,125.864 1512.37,125.839 1512.39,125.815C1512.38,125.823 1512.38,125.83 1512.37,125.838C1512.42,125.785 1512.48,125.732 1512.53,125.679C1512.49,125.723 1512.44,125.767 1512.39,125.812C1515.31,122.957 1519.11,121.533 1522.91,121.542L1522.91,126.432C1522.82,126.368 1522.74,126.307 1522.65,126.247C1522.37,126.177 1522.1,126.119 1521.82,126.074C1521.73,126.06 1521.64,126.047 1521.56,126.036C1521.25,125.995 1520.94,125.97 1520.63,125.961C1520.52,125.957 1520.41,125.956 1520.29,125.957C1520.3,125.961 1520.3,125.966 1520.31,125.971C1519.93,125.987 1519.57,126.023 1519.2,126.076C1520.28,127.248 1520.76,128.929 1520.31,130.581C1519.79,132.524 1518.15,133.868 1516.28,134.108C1517.7,134.283 1519.18,133.826 1520.27,132.736C1522.14,130.869 1522.15,127.851 1520.31,125.971C1522.48,128.183 1522.47,131.738 1520.27,133.936C1519.01,135.197 1517.3,135.738 1515.65,135.559C1516.79,136.064 1518.11,136.197 1519.4,135.849C1520.96,135.432 1522.19,134.403 1522.91,133.09L1522.91,133.66C1522.29,134.871 1521.31,135.891 1520.06,136.542L1507.88,136.542C1507.88,132.75 1509.3,128.957 1512.16,126.042ZM1516.23,124.569C1516.46,124.59 1516.69,124.631 1516.91,124.692C1516.7,124.634 1516.48,124.592 1516.27,124.565C1516.25,124.566 1516.24,124.568 1516.23,124.569ZM1517.2,124.777C1517.11,124.746 1517.01,124.718 1516.92,124.692C1517.01,124.718 1517.1,124.746 1517.19,124.777C1517.19,124.777 1517.2,124.777 1517.2,124.777ZM1519.19,125.125C1519.38,125.228 1519.56,125.345 1519.74,125.476C1519.79,125.515 1519.84,125.555 1519.89,125.597C1520.02,125.702 1520.15,125.815 1520.27,125.935C1520.15,125.816 1520.03,125.703 1519.9,125.597C1519.85,125.555 1519.8,125.514 1519.75,125.474C1519.59,125.349 1519.42,125.233 1519.25,125.127C1519.23,125.126 1519.21,125.125 1519.19,125.125ZM1516.4,126.351C1517.03,126.089 1517.68,125.88 1518.34,125.725C1517.68,125.847 1517.02,126.056 1516.4,126.351ZM1512.34,130.945C1512.34,130.938 1512.34,130.931 1512.34,130.924C1512.34,130.929 1512.34,130.934 1512.33,130.938C1512.33,130.94 1512.34,130.943 1512.34,130.945ZM1519.06,126.099C1517.78,126.307 1516.55,126.744 1515.44,127.376C1514.33,128.076 1513.39,129 1512.68,130.068C1512.57,130.306 1512.47,130.549 1512.38,130.795C1512.91,131.648 1513.75,132.308 1514.8,132.589C1516.98,133.173 1519.22,131.879 1519.8,129.698C1520.15,128.399 1519.83,127.078 1519.06,126.099Z" style="fill:#733c52;"/>
            <path id="q31" serif:id="q3" d="M1507.88,136.542L1508.63,136.542C1508.63,136.544 1508.63,136.545 1508.63,136.547C1508.16,140.316 1509.38,144.255 1512.27,147.148C1509.34,144.219 1507.88,140.381 1507.88,136.542ZM1512.27,147.148C1515.17,150.052 1519.13,151.262 1522.91,150.78L1522.91,151.542C1519.06,151.55 1515.21,150.086 1512.27,147.148ZM1508.63,136.547C1508.63,136.545 1508.63,136.544 1508.63,136.542L1520.06,136.542C1519.64,136.764 1519.18,136.942 1518.7,137.072C1517.32,137.442 1515.92,137.349 1514.67,136.888C1515.39,137.49 1516.25,137.948 1517.22,138.206C1519.26,138.753 1521.33,138.289 1522.91,137.121L1522.91,137.414C1521.01,139.039 1518.37,139.731 1515.78,139.036C1514.88,138.795 1514.06,138.406 1513.33,137.903C1513.59,138.276 1513.89,138.631 1514.22,138.963C1516.57,141.311 1520.04,141.856 1522.91,140.598L1522.91,140.688C1519.46,142.417 1515.15,141.842 1512.27,138.962C1512.07,138.764 1511.88,138.559 1511.71,138.348C1513.33,142.776 1518.09,145.313 1522.74,144.068C1517.5,145.473 1512.13,142.787 1510.01,137.969C1510.48,142.281 1513.53,146.067 1517.97,147.263C1512.82,145.876 1509.26,141.529 1508.63,136.547ZM1517.99,147.27C1519.65,147.714 1521.33,147.747 1522.91,147.431L1522.91,147.602C1521.31,147.808 1519.65,147.712 1517.99,147.27Z" style="fill:#733c52;"/>
        </g>
    </g>
</svg>
