<?xml version="1.0" encoding="UTF-8" standalone="no"?>
<!DOCTYPE svg PUBLIC "-//W3C//DTD SVG 1.1//EN" "http://www.w3.org/Graphics/SVG/1.1/DTD/svg11.dtd">
<svg width="100%" height="100%" viewBox="0 0 1701 2481" version="1.1" xmlns="http://www.w3.org/2000/svg" xmlns:xlink="http://www.w3.org/1999/xlink" xml:space="preserve" xmlns:serif="http://www.serif.com/" style="fill-rule:evenodd;clip-rule:evenodd;stroke-linecap:round;stroke-linejoin:round;stroke-miterlimit:1.5;">
    <rect id="D2X" x="0.245" y="0.177" width="1700" height="2480" style="fill:none;"/>
    <g id="Fields" opacity="0.2" sound="Field/10-Orbitals">
        <path id="_0" serif:id="0" d="M977.625,762.819L1181.25,10.082L517.79,10.177L721.418,762.841C807.658,740.948 893.095,740.044 977.625,762.819Z" style="fill:#967b7b;stroke:#767676;stroke-width:8.33px;"/>
    </g>
    <a href="D2X2.svg">
    <g id="S">
        <g id="Ring">
            <path id="Backer" d="M1261.68,1477.18C1130.79,1703.88 840.484,1781.67 613.796,1650.8C387.107,1519.92 309.33,1229.62 440.219,1002.92C571.107,776.214 861.414,698.417 1088.1,829.292C1314.79,960.168 1392.57,1250.48 1261.68,1477.18Z" style="fill:#fff;"/>
            <path d="M1261.68,1477.18C1130.79,1703.88 840.484,1781.67 613.796,1650.8C387.107,1519.92 309.33,1229.62 440.219,1002.92C571.107,776.214 861.414,698.417 1088.1,829.292C1314.79,960.168 1392.57,1250.48 1261.68,1477.18Z" style="fill:none;stroke:#000;stroke-width:8.33px;"/>
            <path d="M1261.68,1477.18L1235.42,1462.02" style="fill:none;stroke:#000;stroke-width:8.33px;"/>
            <path d="M466.476,1018.08L440.219,1002.92" style="fill:none;stroke:#000;stroke-width:8.33px;"/>
            <path d="M628.955,1624.54L613.796,1650.8" style="fill:none;stroke:#000;stroke-width:8.33px;"/>
            <path d="M1088.1,829.292L1072.94,855.549" style="fill:none;stroke:#000;stroke-width:8.33px;"/>
            <path d="M1088.09,1650.78L1072.93,1624.53" style="fill:none;stroke:#000;stroke-width:8.33px;"/>
            <path d="M628.965,855.567L613.806,829.31" style="fill:none;stroke:#000;stroke-width:8.33px;"/>
            <path d="M466.446,1462.03L440.189,1477.19" style="fill:none;stroke:#000;stroke-width:8.33px;"/>
            <path d="M1261.71,1002.9L1235.45,1018.06" style="fill:none;stroke:#000;stroke-width:8.33px;"/>
            <path d="M850.949,1714.34L850.949,1684.02" style="fill:none;stroke:#000;stroke-width:8.33px;"/>
            <path d="M850.949,796.069L850.949,765.751" style="fill:none;stroke:#000;stroke-width:8.33px;"/>
            <path d="M406.982,1240.05L376.662,1240.05" style="fill:none;stroke:#000;stroke-width:8.33px;"/>
            <path d="M1325.24,1240.05L1294.92,1240.05" style="fill:none;stroke:#000;stroke-width:8.33px;"/>
        </g>
        <g id="Root-Markers" serif:id="Root Markers">
            <path id="_2" serif:id="2" d="M1169.95,1055.3L1100.78,1137.15L1064.48,1074.28L1169.95,1055.3ZM1120.96,1083.58L1094.71,1088.31L1103.74,1103.95L1120.96,1083.58Z" style="fill:#ae6b68;"/>
        </g>
        <g id="Notes">
            <path id="_21" serif:id="2" sound="Font/3-Low-D" d="M1327.48,1049.09C1305.49,1087.17 1256.72,1100.24 1218.63,1078.26C1180.55,1056.27 1167.48,1007.49 1189.47,969.408C1211.46,931.322 1260.23,918.253 1298.32,940.242C1336.4,962.231 1349.47,1011 1327.48,1049.09Z" style="fill:#ae6b68;stroke:#fff;stroke-width:24px;"/>
        </g>
        <g id="Treble-Marker" serif:id="Treble Marker">
            <g id="_11" serif:id="11" sound="Font/3-High-B">
                <path id="_111" serif:id="11" d="M682.432,873.579C660.443,911.665 611.669,924.734 573.583,902.745C535.496,880.756 522.427,831.983 544.416,793.897C566.406,755.812 615.18,742.743 653.266,764.732C691.353,786.721 704.422,835.494 682.432,873.579Z" style="fill:#fff;stroke:#fff;stroke-width:33.33px;"/>
                <circle id="_11a" serif:id="11a" cx="613.424" cy="833.738" r="64" style="fill:#fff;stroke:#ae6b68;stroke-width:16.67px;"/>
            </g>
        </g>
    </g>
    </a>
    <g id="Songs">
        <g id="song-10-orbitals" serif:id="song 10 orbitals">
            <g id="D2X1" serif:id="D2X" sound="Song/10-Orbitals-D2X">
                <path d="M851.851,121.93C870.765,122.194 889.577,129.666 903.793,144.285L929.55,170.771C944.004,185.635 950.941,205.043 950.426,224.27L851.163,224.091L851.851,121.93Z" style="fill:#ae6b68;stroke:#fff;stroke-width:1.67px;"/>
                <path d="M950.426,224.27C949.928,242.86 942.463,261.281 928.091,275.258L901.604,301.014C887.358,314.868 868.937,321.816 850.503,321.916L851.163,224.091L950.426,224.27Z" style="fill:#ae6b68;stroke:#fff;stroke-width:1.67px;"/>
                <path d="M851.958,224.27L949.558,224.27" style="fill:none;stroke:#ae6b68;stroke-width:4.17px;stroke-linecap:butt;"/>
                <path id="q1" d="M936.7,221.923L932.449,221.923C933.234,193.172 919.116,165.279 893.099,150.259C880.021,142.709 865.627,139.389 851.432,139.869L851.432,135.555C866.372,135.052 881.521,138.547 895.286,146.495C922.667,162.304 937.526,191.661 936.7,221.923ZM927.257,221.923L923.476,221.923C929.996,186.1 904.796,156.459 866.22,155.25C861.255,155.094 856.306,155.417 851.432,156.172L851.432,152.711C856.557,151.917 861.76,151.579 866.98,151.742C907.596,153.012 934.119,184.208 927.257,221.923ZM913.732,221.923L910.632,221.923C913.595,213.389 914.731,204.72 913.624,196.51C909.949,169.241 882.807,156.685 851.432,166.508L851.432,163.587C884.454,153.254 913.01,166.471 916.883,195.171C918.049,203.813 916.852,212.939 913.732,221.923ZM900.172,221.923L897.749,221.923C903.717,206.474 904.082,191.133 897.431,180.405C888.737,166.38 870.456,164.081 851.432,172.648L851.432,170.047C871.448,161.036 890.682,163.458 899.832,178.215C906.833,189.512 906.451,205.661 900.172,221.923ZM889.938,221.923L888.032,221.923C894.524,201.476 891.337,182.315 878.781,175.064C871.067,170.61 861.227,171.468 851.432,176.467L851.432,174.064C861.736,168.81 872.085,167.91 880.201,172.596C893.424,180.226 896.775,200.397 889.938,221.923ZM883.211,221.923L881.64,221.923C886.439,198.267 877.402,178.835 861.208,178.33C857.958,178.228 854.665,178.895 851.432,180.216L851.432,178.006C854.827,176.621 858.284,175.922 861.695,176.028C878.747,176.567 888.267,197.027 883.211,221.923Z" style="fill:#e7e7e7;"/>
                <path id="q2" d="M851.432,308.31L851.432,303.989C879.003,303.264 905.906,288.194 921.061,261.947C928.388,249.257 932.079,235.495 932.449,221.923L936.7,221.923C936.311,236.209 932.426,250.697 924.713,264.057C908.761,291.679 880.448,307.542 851.432,308.31ZM851.432,291.219L851.432,287.754C885.468,282.731 916.002,256.517 923.031,224.154C923.193,223.408 923.341,222.664 923.476,221.923L927.257,221.923C927.115,222.704 926.959,223.487 926.788,224.273C919.385,258.341 887.254,285.926 851.432,291.219ZM851.432,280.432L851.432,277.511C853.887,276.764 856.37,275.878 858.87,274.852C883.458,264.761 903.041,243.785 910.632,221.923L913.732,221.923C905.74,244.934 885.128,267.014 859.245,277.639C856.619,278.716 854.011,279.646 851.432,280.432ZM851.432,274.057L851.432,271.455C858.803,268.219 866.301,263.347 873.408,256.89C884.623,246.7 892.977,234.277 897.749,221.923L900.172,221.923C895.15,234.929 886.356,248.007 874.551,258.733C867.075,265.526 859.187,270.651 851.432,274.057ZM851.432,270.07L851.432,267.673C862.096,262.414 872.761,252.22 880.625,238.601C883.807,233.088 886.274,227.458 888.032,221.923L889.938,221.923C888.087,227.75 885.489,233.677 882.139,239.481C873.866,253.807 862.65,264.533 851.432,270.07ZM851.432,266.063L851.432,263.864C864.761,258.764 877.187,242.459 881.445,222.853C881.513,222.543 881.578,222.232 881.64,221.923L883.211,221.923C883.144,222.249 883.076,222.575 883.005,222.902C878.525,243.53 865.453,260.688 851.432,266.063Z" style="fill:#e7e7e7;"/>
            </g>
            <g id="D2X2" sound="Song/10-Orbitals-D2X2">
                <path d="M850.083,321.924C830.687,322.029 811.275,314.553 796.698,299.563L770.941,273.076C757.574,259.331 750.636,241.698 750.075,223.918L850.743,224.099L850.083,321.924Z" style="fill:#df4c44;stroke:#fff;stroke-width:1.67px;"/>
                <path d="M750.075,223.918C749.443,203.88 756.909,183.654 772.4,168.59L798.886,142.833C813.505,128.617 832.518,121.673 851.432,121.937L850.743,224.099L750.075,223.918Z" style="fill:#df4c44;stroke:#fff;stroke-width:1.67px;"/>
                <path d="M751.038,224.099L850.038,224.277" style="fill:none;stroke:#df4c44;stroke-width:4.17px;stroke-linecap:butt;"/>
                <path id="q4" d="M851.432,135.555L851.432,139.869C824.069,140.793 797.443,155.832 782.399,181.891C775.071,194.584 771.38,208.35 771.011,221.923L766.766,221.923C767.155,207.637 771.04,193.148 778.754,179.788C794.594,152.356 822.625,136.524 851.432,135.555ZM851.432,152.711L851.432,156.172C817.636,161.414 787.423,187.506 780.433,219.681C780.27,220.431 780.121,221.178 779.986,221.923L776.209,221.923C776.351,221.14 776.508,220.354 776.679,219.566C784.035,185.688 815.851,158.224 851.432,152.711ZM851.432,163.587L851.432,166.508C849.171,167.216 846.888,168.04 844.591,168.983C819.999,179.075 800.412,200.058 792.824,221.923L789.724,221.923C797.714,198.908 818.332,176.823 844.216,166.196C846.639,165.202 849.047,164.333 851.432,163.587ZM851.432,170.047L851.432,172.648C844.25,175.882 836.963,180.664 830.045,186.949C818.829,197.14 810.474,209.566 805.704,221.923L803.286,221.923C808.308,208.915 817.102,195.835 828.91,185.109C836.194,178.488 843.869,173.452 851.432,170.047ZM851.432,174.064L851.432,176.467C840.968,181.807 830.555,191.873 822.836,205.238C819.651,210.753 817.183,216.385 815.425,221.923L813.514,221.923C815.364,216.095 817.961,210.167 821.311,204.361C829.441,190.285 840.41,179.684 851.432,174.064ZM851.432,178.006L851.432,180.216C838.329,185.57 826.213,201.678 822.016,220.989C821.948,221.301 821.882,221.612 821.819,221.923L820.246,221.923C820.312,221.596 820.381,221.268 820.452,220.94C824.866,200.6 837.634,183.635 851.432,178.006Z" style="fill:#e7e7e7;stroke:#e7e7e7;stroke-width:1px;stroke-linecap:butt;stroke-miterlimit:2;"/>
                <path id="q3" d="M766.766,221.923L771.011,221.923C770.229,250.673 784.349,278.563 810.355,293.579C823.252,301.026 837.428,304.358 851.432,303.989L851.432,308.31C836.688,308.7 821.763,305.193 808.185,297.35C780.802,281.543 765.941,252.186 766.766,221.923ZM776.209,221.923L779.986,221.923C773.473,257.745 798.669,287.373 837.248,288.585C842.007,288.734 846.753,288.444 851.432,287.754L851.432,291.219C846.501,291.948 841.5,292.254 836.484,292.097C795.871,290.823 769.352,259.638 776.209,221.923ZM789.724,221.923L792.824,221.923C789.863,230.454 788.729,239.12 789.837,247.325C793.488,274.421 820.309,286.99 851.432,277.511L851.432,280.432C818.666,290.417 790.431,277.191 786.577,248.667C785.411,240.028 786.606,230.905 789.724,221.923ZM803.286,221.923L805.704,221.923C799.74,237.371 799.379,252.711 806.033,263.44C814.634,277.317 832.624,279.71 851.432,271.455L851.432,274.057C831.63,282.751 812.685,280.235 803.629,265.627C796.628,254.332 797.009,238.184 803.286,221.923ZM813.514,221.923L815.425,221.923C808.934,242.368 812.123,261.528 824.679,268.778C832.235,273.141 841.833,272.406 851.432,267.673L851.432,270.07C841.325,275.058 831.216,275.835 823.256,271.239C810.037,263.607 806.684,243.443 813.514,221.923ZM820.246,221.923L821.819,221.923C817.022,245.581 826.059,265.007 842.26,265.512C845.307,265.607 848.393,265.027 851.432,263.864L851.432,266.063C848.228,267.292 844.974,267.905 841.762,267.804C824.711,267.271 815.195,246.821 820.246,221.923Z" style="fill:#e7e7e7;"/>
            </g>
        </g>
    </g>
    <g id="Map">
        <g id="Frame">
            <rect x="1471.75" y="41.719" width="190" height="190" style="fill:#fff;"/>
            <rect x="1471.75" y="41.719" width="190" height="190" style="fill:none;stroke:#000;stroke-width:1.17px;stroke-linejoin:bevel;"/>
            <rect x="1523.62" y="93.594" width="86.25" height="86.25" style="fill:none;stroke:#000;stroke-width:1.25px;stroke-linejoin:bevel;"/>
            <path d="M1609.87,93.594L1661.75,41.927" style="fill:none;stroke:#000;stroke-width:1.25px;stroke-linejoin:bevel;"/>
            <path d="M1523.62,93.594L1472.16,41.927" style="fill:none;stroke:#000;stroke-width:1.25px;stroke-linejoin:bevel;"/>
            <path d="M1523.62,179.844L1471.75,231.719" style="fill:none;stroke:#000;stroke-width:1.25px;stroke-linejoin:bevel;"/>
            <path d="M1609.87,179.844L1661.75,231.719" style="fill:none;stroke:#000;stroke-width:1.25px;stroke-linejoin:bevel;"/>
        </g>
        <g id="Dots">
            <circle cx="1471.75" cy="231.677" r="1.5" style="stroke:#000;stroke-width:1.25px;stroke-linejoin:bevel;"/>
            <circle cx="1566.44" cy="231.802" r="1.5" style="stroke:#000;stroke-width:1.25px;stroke-linejoin:bevel;"/>
            <circle cx="1661.75" cy="231.677" r="1.5" style="stroke:#000;stroke-width:1.25px;stroke-linejoin:bevel;"/>
            <circle cx="1634.09" cy="203.844" r="1.5" style="stroke:#000;stroke-width:1.25px;stroke-linejoin:bevel;"/>
            <circle cx="1609.87" cy="179.677" r="1.5" style="stroke:#000;stroke-width:1.25px;stroke-linejoin:bevel;"/>
            <circle cx="1609.44" cy="136.802" r="1.5" style="stroke:#000;stroke-width:1.25px;stroke-linejoin:bevel;"/>
            <circle cx="1609.57" cy="93.552" r="1.5" style="stroke:#000;stroke-width:1.25px;stroke-linejoin:bevel;"/>
            <circle cx="1634.01" cy="69.344" r="1.5" style="stroke:#000;stroke-width:1.25px;stroke-linejoin:bevel;"/>
            <circle cx="1566.44" cy="93.552" r="1.5" style="stroke:#000;stroke-width:1.25px;stroke-linejoin:bevel;"/>
            <circle cx="1523.32" cy="93.677" r="1.5" style="stroke:#000;stroke-width:1.25px;stroke-linejoin:bevel;"/>
            <circle cx="1566.75" cy="41.677" r="1.5" style="stroke:#000;stroke-width:1.25px;stroke-linejoin:bevel;"/>
            <circle cx="1471.75" cy="41.719" r="1.5" style="stroke:#000;stroke-width:1.25px;stroke-linejoin:bevel;"/>
            <circle cx="1499.59" cy="69.677" r="1.5" style="stroke:#000;stroke-width:1.25px;stroke-linejoin:bevel;"/>
            <circle cx="1471.75" cy="136.719" r="1.5" style="stroke:#000;stroke-width:1.25px;stroke-linejoin:bevel;"/>
            <circle cx="1523.62" cy="136.719" r="1.5" style="stroke:#000;stroke-width:1.25px;stroke-linejoin:bevel;"/>
            <circle cx="1566.25" cy="179.844" r="1.5" style="stroke:#000;stroke-width:1.25px;stroke-linejoin:bevel;"/>
            <circle cx="1523.59" cy="179.677" r="1.5" style="stroke:#000;stroke-width:1.25px;stroke-linejoin:bevel;"/>
            <circle cx="1499.39" cy="204.177" r="1.5" style="stroke:#000;stroke-width:1.25px;stroke-linejoin:bevel;"/>
            <circle cx="1661.75" cy="136.719" r="1.5" style="stroke:#000;stroke-width:1.25px;stroke-linejoin:bevel;"/>
            <circle cx="1661.74" cy="41.827" r="1.5" style="stroke:#000;stroke-width:1.25px;stroke-linejoin:bevel;"/>
        </g>
        <path d="M1494.21,209.433L1523.18,179.921" style="fill:none;stroke:#4daab1;stroke-width:5.83px;"/>
        <path d="M1471.21,232.433L1500.18,202.921" style="fill:none;stroke:#df4c44;stroke-width:5.83px;"/>
        <g id="_10" serif:id="10">
            <circle cx="1498.5" cy="203.927" r="15.75" style="fill:#fff;stroke:#fff;stroke-width:1.46px;"/>
            <path id="q11" serif:id="q1" d="M1514.24,204.177L1513.49,204.177C1513.63,199.104 1511.14,194.181 1506.55,191.531C1504.24,190.198 1501.7,189.612 1499.19,189.697L1499.19,188.936C1501.83,188.847 1504.5,189.464 1506.93,190.866C1511.76,193.656 1514.38,198.837 1514.24,204.177ZM1512.57,204.177L1511.91,204.177C1513.06,197.856 1508.61,192.625 1501.8,192.412C1500.93,192.384 1500.05,192.441 1499.19,192.574L1499.19,191.963C1500.1,191.823 1501.02,191.764 1501.94,191.792C1509.1,192.017 1513.78,197.522 1512.57,204.177ZM1510.19,204.177L1509.64,204.177C1510.16,202.671 1510.36,201.141 1510.17,199.693C1509.52,194.88 1504.73,192.665 1499.19,194.398L1499.19,193.883C1505.02,192.059 1510.06,194.392 1510.74,199.456C1510.95,200.981 1510.74,202.592 1510.19,204.177ZM1507.79,204.177L1507.37,204.177C1508.42,201.451 1508.48,198.744 1507.31,196.851C1505.78,194.376 1502.55,193.97 1499.19,195.482L1499.19,195.023C1502.72,193.433 1506.12,193.86 1507.73,196.464C1508.97,198.458 1508.9,201.308 1507.79,204.177ZM1505.99,204.177L1505.65,204.177C1506.8,200.569 1506.23,197.188 1504.02,195.908C1502.66,195.122 1500.92,195.273 1499.19,196.156L1499.19,195.732C1501.01,194.804 1502.84,194.646 1504.27,195.473C1506.6,196.819 1507.19,200.379 1505.99,204.177ZM1504.8,204.177L1504.52,204.177C1505.37,200.003 1503.78,196.574 1500.92,196.484C1500.34,196.466 1499.76,196.584 1499.19,196.817L1499.19,196.427C1499.79,196.183 1500.4,196.059 1501,196.078C1504.01,196.173 1505.69,199.784 1504.8,204.177Z" style="fill:#733c52;"/>
            <path id="q21" serif:id="q2" d="M1499.19,219.422L1499.19,218.66C1504.06,218.532 1508.81,215.872 1511.48,211.24C1512.77,209.001 1513.42,206.572 1513.49,204.177L1514.24,204.177C1514.17,206.698 1513.49,209.255 1512.12,211.613C1509.31,216.487 1504.31,219.287 1499.19,219.422ZM1499.19,216.406L1499.19,215.794C1505.2,214.908 1510.59,210.282 1511.83,204.571C1511.86,204.439 1511.88,204.308 1511.91,204.177L1512.57,204.177C1512.55,204.315 1512.52,204.453 1512.49,204.592C1511.18,210.604 1505.51,215.472 1499.19,216.406ZM1499.19,214.503L1499.19,213.987C1499.62,213.855 1500.06,213.699 1500.51,213.518C1504.84,211.737 1508.3,208.035 1509.64,204.177L1510.19,204.177C1508.78,208.238 1505.14,212.135 1500.57,214.009C1500.11,214.2 1499.65,214.364 1499.19,214.503ZM1499.19,213.377L1499.19,212.918C1500.49,212.347 1501.82,211.487 1503.07,210.348C1505.05,208.55 1506.52,206.357 1507.37,204.177L1507.79,204.177C1506.91,206.472 1505.36,208.78 1503.27,210.673C1501.95,211.872 1500.56,212.776 1499.19,213.377ZM1499.19,212.674L1499.19,212.251C1501.07,211.323 1502.96,209.524 1504.34,207.12C1504.9,206.148 1505.34,205.154 1505.65,204.177L1505.99,204.177C1505.66,205.206 1505.2,206.252 1504.61,207.276C1503.15,209.804 1501.17,211.697 1499.19,212.674ZM1499.19,211.967L1499.19,211.579C1501.54,210.679 1503.74,207.801 1504.49,204.341C1504.5,204.287 1504.51,204.232 1504.52,204.177L1504.8,204.177C1504.79,204.235 1504.78,204.292 1504.76,204.35C1503.97,207.99 1501.67,211.018 1499.19,211.967Z" style="fill:#733c52;"/>
            <path id="q41" serif:id="q4" d="M1499.19,188.936L1499.19,189.697C1494.36,189.86 1489.66,192.514 1487.01,197.113C1485.72,199.353 1485.07,201.782 1485,204.177L1484.25,204.177C1484.32,201.656 1485.01,199.099 1486.37,196.742C1489.16,191.901 1494.11,189.107 1499.19,188.936ZM1499.19,191.963L1499.19,192.574C1493.23,193.499 1487.9,198.104 1486.66,203.782C1486.63,203.914 1486.61,204.046 1486.58,204.177L1485.92,204.177C1485.94,204.039 1485.97,203.9 1486,203.761C1487.3,197.783 1492.91,192.936 1499.19,191.963ZM1499.19,193.883L1499.19,194.398C1498.79,194.523 1498.39,194.668 1497.99,194.835C1493.64,196.616 1490.19,200.319 1488.85,204.177L1488.3,204.177C1489.71,200.116 1493.35,196.218 1497.92,194.343C1498.35,194.168 1498.77,194.014 1499.19,193.883ZM1499.19,195.023L1499.19,195.482C1497.92,196.052 1496.64,196.896 1495.42,198.005C1493.44,199.804 1491.96,201.997 1491.12,204.177L1490.7,204.177C1491.58,201.882 1493.13,199.574 1495.22,197.681C1496.5,196.512 1497.86,195.624 1499.19,195.023ZM1499.19,195.732L1499.19,196.156C1497.35,197.098 1495.51,198.874 1494.15,201.233C1493.58,202.206 1493.15,203.2 1492.84,204.177L1492.5,204.177C1492.83,203.149 1493.29,202.103 1493.88,201.078C1495.31,198.594 1497.25,196.723 1499.19,195.732ZM1499.19,196.427L1499.19,196.817C1496.88,197.762 1494.74,200.605 1494,204.012C1493.99,204.068 1493.98,204.122 1493.97,204.177L1493.69,204.177C1493.7,204.12 1493.71,204.062 1493.73,204.004C1494.5,200.414 1496.76,197.421 1499.19,196.427Z" style="fill:#733c52;"/>
            <path id="q31" serif:id="q3" d="M1484.25,204.177L1485,204.177C1484.86,209.251 1487.35,214.173 1491.94,216.823C1494.22,218.137 1496.72,218.725 1499.19,218.66L1499.19,219.422C1496.59,219.491 1493.96,218.872 1491.56,217.488C1486.73,214.699 1484.11,209.518 1484.25,204.177ZM1485.92,204.177L1486.58,204.177C1485.43,210.499 1489.88,215.727 1496.69,215.941C1497.53,215.968 1498.37,215.916 1499.19,215.794L1499.19,216.406C1498.32,216.535 1497.44,216.589 1496.55,216.561C1489.39,216.336 1484.71,210.833 1485.92,204.177ZM1488.3,204.177L1488.85,204.177C1488.33,205.683 1488.13,207.212 1488.32,208.66C1488.97,213.442 1493.7,215.66 1499.19,213.987L1499.19,214.503C1493.41,216.265 1488.43,213.93 1487.75,208.897C1487.54,207.372 1487.75,205.762 1488.3,204.177ZM1490.7,204.177L1491.12,204.177C1490.07,206.903 1490.01,209.61 1491.18,211.504C1492.7,213.953 1495.87,214.375 1499.19,212.918L1499.19,213.377C1495.7,214.912 1492.35,214.468 1490.76,211.89C1489.52,209.896 1489.59,207.047 1490.7,204.177ZM1492.5,204.177L1492.84,204.177C1491.69,207.785 1492.26,211.166 1494.47,212.446C1495.8,213.216 1497.5,213.086 1499.19,212.251L1499.19,212.674C1497.41,213.554 1495.62,213.691 1494.22,212.88C1491.89,211.533 1491.3,207.975 1492.5,204.177ZM1493.69,204.177L1493.97,204.177C1493.12,208.352 1494.71,211.78 1497.57,211.869C1498.11,211.886 1498.66,211.784 1499.19,211.579L1499.19,211.967C1498.63,212.184 1498.05,212.292 1497.49,212.274C1494.48,212.18 1492.8,208.571 1493.69,204.177Z" style="fill:#733c52;"/>
        </g>
    </g>
</svg>
