<?xml version="1.0" encoding="UTF-8" standalone="no"?>
<!DOCTYPE svg PUBLIC "-//W3C//DTD SVG 1.1//EN" "http://www.w3.org/Graphics/SVG/1.1/DTD/svg11.dtd">
<svg width="100%" height="100%" viewBox="0 0 1701 2480" version="1.1" xmlns="http://www.w3.org/2000/svg" xmlns:xlink="http://www.w3.org/1999/xlink" xml:space="preserve" xmlns:serif="http://www.serif.com/" style="fill-rule:evenodd;clip-rule:evenodd;stroke-linecap:round;stroke-linejoin:round;stroke-miterlimit:1.5;">
    <rect id="Drefocus" x="0.931" y="0" width="1700" height="2480" style="fill:none;"/>
    <g id="S">
        <g id="Ring">
            <path id="Backer" d="M1262.37,1477C1131.48,1703.7 841.17,1781.5 614.482,1650.62C387.793,1519.75 310.016,1229.44 440.905,1002.74C571.793,776.037 862.1,698.239 1088.79,829.115C1315.48,959.991 1393.25,1250.3 1262.37,1477Z" style="fill:#fff;"/>
            <path d="M1262.37,1477C1131.48,1703.7 841.17,1781.5 614.482,1650.62C387.793,1519.75 310.016,1229.44 440.905,1002.74C571.793,776.037 862.1,698.239 1088.79,829.115C1315.48,959.991 1393.25,1250.3 1262.37,1477Z" style="fill:none;stroke:#000;stroke-width:8.33px;"/>
            <path d="M1262.37,1477L1236.11,1461.84" style="fill:none;stroke:#000;stroke-width:8.33px;"/>
            <path d="M467.162,1017.9L440.905,1002.74" style="fill:none;stroke:#000;stroke-width:8.33px;"/>
            <path d="M629.641,1624.37L614.482,1650.62" style="fill:none;stroke:#000;stroke-width:8.33px;"/>
            <path d="M1088.79,829.115L1073.63,855.372" style="fill:none;stroke:#000;stroke-width:8.33px;"/>
            <path d="M1088.78,1650.6L1073.62,1624.35" style="fill:none;stroke:#000;stroke-width:8.33px;"/>
            <path d="M629.651,855.389L614.492,829.132" style="fill:none;stroke:#000;stroke-width:8.33px;"/>
            <path d="M467.132,1461.86L440.875,1477.02" style="fill:none;stroke:#000;stroke-width:8.33px;"/>
            <path d="M1262.39,1002.72L1236.14,1017.88" style="fill:none;stroke:#000;stroke-width:8.33px;"/>
            <path d="M851.635,1714.16L851.635,1683.85" style="fill:none;stroke:#000;stroke-width:8.33px;"/>
            <path d="M851.635,795.892L851.635,765.573" style="fill:none;stroke:#000;stroke-width:8.33px;"/>
            <path d="M407.668,1239.87L377.348,1239.87" style="fill:none;stroke:#000;stroke-width:8.33px;"/>
            <path d="M1325.92,1239.87L1295.6,1239.87" style="fill:none;stroke:#000;stroke-width:8.33px;"/>
        </g>
        <g id="Root-Markers" serif:id="Root Markers">
            <path id="_11" serif:id="11" d="M667.888,920.407L749.741,989.581L686.868,1025.88L667.888,920.407ZM696.175,969.402L700.899,995.652L716.547,986.618L696.175,969.402Z" style="fill:#4daab1;"/>
        </g>
        <g id="Notes">
            <path id="_111" serif:id="11" d="M683.118,873.402C661.129,911.488 612.355,924.556 574.269,902.568C536.182,880.579 523.113,831.806 545.103,793.72C567.092,755.634 615.866,742.566 653.952,764.554C692.039,786.543 705.108,835.316 683.118,873.402Z" style="fill:#4daab1;stroke:#fff;stroke-width:24px;"/>
            <path id="_6" serif:id="6" d="M920.643,1756.34C898.654,1794.43 849.88,1807.5 811.793,1785.51C773.707,1763.52 760.638,1714.75 782.627,1676.66C804.616,1638.57 853.39,1625.51 891.477,1647.49C929.563,1669.48 942.632,1718.26 920.643,1756.34Z" style="fill:#4daab1;stroke:#fff;stroke-width:24px;"/>
            <path id="_1" serif:id="1" d="M1154.57,879.109C1132.58,917.195 1083.81,930.264 1045.72,908.275C1007.63,886.286 994.563,837.513 1016.55,799.427C1038.54,761.342 1087.32,748.273 1125.4,770.262C1163.49,792.251 1176.56,841.024 1154.57,879.109Z" style="fill:#4daab1;stroke:#fff;stroke-width:24px;"/>
        </g>
        <g id="Treble-Marker" serif:id="Treble Marker">
            <g id="_10" serif:id="10">
                <path id="_101" serif:id="10" d="M514.254,1048.9C492.265,1086.99 443.491,1100.06 405.404,1078.07C367.318,1056.08 354.249,1007.31 376.238,969.221C398.227,931.136 447.001,918.067 485.088,940.056C523.174,962.045 536.243,1010.82 514.254,1048.9Z" style="fill:#fff;stroke:#fff;stroke-width:33.33px;"/>
                <circle id="_10a" serif:id="10a" cx="445.246" cy="1009.06" r="64" style="fill:#fff;stroke:#4daab1;stroke-width:16.67px;"/>
            </g>
        </g>
    </g>
    <g id="Songs">
    </g>
    <g id="Map">
        <g id="Frame">
            <rect x="755.931" y="41.542" width="190" height="190" style="fill:#fff;"/>
            <rect x="755.931" y="41.542" width="190" height="190" style="fill:none;stroke:#000;stroke-width:1.17px;stroke-linejoin:bevel;"/>
            <rect x="807.806" y="93.417" width="86.25" height="86.25" style="fill:none;stroke:#000;stroke-width:1.25px;stroke-linejoin:bevel;"/>
            <path d="M894.056,93.417L945.931,41.75" style="fill:none;stroke:#000;stroke-width:1.25px;stroke-linejoin:bevel;"/>
            <path d="M807.806,93.417L756.348,41.75" style="fill:none;stroke:#000;stroke-width:1.25px;stroke-linejoin:bevel;"/>
            <path d="M807.806,179.667L755.931,231.542" style="fill:none;stroke:#000;stroke-width:1.25px;stroke-linejoin:bevel;"/>
            <path d="M894.056,179.667L945.931,231.542" style="fill:none;stroke:#000;stroke-width:1.25px;stroke-linejoin:bevel;"/>
        </g>
        <g id="Dots">
            <circle cx="755.931" cy="231.5" r="1.5" style="stroke:#000;stroke-width:1.25px;stroke-linejoin:bevel;"/>
            <circle cx="850.629" cy="231.625" r="1.5" style="stroke:#000;stroke-width:1.25px;stroke-linejoin:bevel;"/>
            <circle cx="945.931" cy="231.5" r="1.5" style="stroke:#000;stroke-width:1.25px;stroke-linejoin:bevel;"/>
            <circle cx="918.277" cy="203.667" r="1.5" style="stroke:#000;stroke-width:1.25px;stroke-linejoin:bevel;"/>
            <circle cx="894.056" cy="179.5" r="1.5" style="stroke:#000;stroke-width:1.25px;stroke-linejoin:bevel;"/>
            <circle cx="893.629" cy="136.625" r="1.5" style="stroke:#000;stroke-width:1.25px;stroke-linejoin:bevel;"/>
            <circle cx="893.754" cy="93.375" r="1.5" style="stroke:#000;stroke-width:1.25px;stroke-linejoin:bevel;"/>
            <circle cx="918.191" cy="69.167" r="1.5" style="stroke:#000;stroke-width:1.25px;stroke-linejoin:bevel;"/>
            <circle cx="850.629" cy="93.375" r="1.5" style="stroke:#000;stroke-width:1.25px;stroke-linejoin:bevel;"/>
            <circle cx="807.504" cy="93.5" r="1.5" style="stroke:#000;stroke-width:1.25px;stroke-linejoin:bevel;"/>
            <circle cx="850.931" cy="41.5" r="1.5" style="stroke:#000;stroke-width:1.25px;stroke-linejoin:bevel;"/>
            <circle cx="755.931" cy="41.542" r="1.5" style="stroke:#000;stroke-width:1.25px;stroke-linejoin:bevel;"/>
            <circle cx="783.777" cy="69.5" r="1.5" style="stroke:#000;stroke-width:1.25px;stroke-linejoin:bevel;"/>
            <circle cx="755.931" cy="136.542" r="1.5" style="stroke:#000;stroke-width:1.25px;stroke-linejoin:bevel;"/>
            <circle cx="807.806" cy="136.542" r="1.5" style="stroke:#000;stroke-width:1.25px;stroke-linejoin:bevel;"/>
            <circle cx="850.431" cy="179.667" r="1.5" style="stroke:#000;stroke-width:1.25px;stroke-linejoin:bevel;"/>
            <circle cx="807.777" cy="179.5" r="1.5" style="stroke:#000;stroke-width:1.25px;stroke-linejoin:bevel;"/>
            <circle cx="783.577" cy="204" r="1.5" style="stroke:#000;stroke-width:1.25px;stroke-linejoin:bevel;"/>
            <circle cx="945.931" cy="136.542" r="1.5" style="stroke:#000;stroke-width:1.25px;stroke-linejoin:bevel;"/>
            <circle cx="945.926" cy="41.65" r="1.5" style="stroke:#000;stroke-width:1.25px;stroke-linejoin:bevel;"/>
        </g>
        <circle cx="807.806" cy="179.667" r="6.364" style="fill:#fff;stroke:#4daab1;stroke-width:5.99px;"/>
    </g>
    <g id="S-melisma" serif:id="S melisma">
        <path id="Sounder" d="M1627.18,2302.55C1601.92,2346.29 1545.91,2361.3 1502.18,2336.05C1458.44,2310.8 1443.43,2254.79 1468.69,2211.05C1493.94,2167.31 1549.95,2152.3 1593.69,2177.55C1637.42,2202.8 1652.43,2258.81 1627.18,2302.55Z" style="fill:#fff;"/>
        <g id="Ring1" serif:id="Ring" opacity="0.5">
            <path d="M1627.18,2302.55C1601.92,2346.29 1545.91,2361.3 1502.18,2336.05C1458.44,2310.8 1443.43,2254.79 1468.69,2211.05C1493.94,2167.31 1549.95,2152.3 1593.69,2177.55C1637.42,2202.8 1652.43,2258.81 1627.18,2302.55Z" style="fill:none;stroke:#000;stroke-width:1.93px;"/>
            <path d="M1627.18,2302.55L1622.11,2299.63" style="fill:none;stroke:#000;stroke-width:1.93px;"/>
            <path d="M1473.75,2213.97L1468.69,2211.05" style="fill:none;stroke:#000;stroke-width:1.93px;"/>
            <path d="M1505.1,2330.98L1502.18,2336.05" style="fill:none;stroke:#000;stroke-width:1.93px;"/>
            <path d="M1593.69,2177.55L1590.76,2182.62" style="fill:none;stroke:#000;stroke-width:1.93px;"/>
            <path d="M1593.68,2336.05L1590.76,2330.98" style="fill:none;stroke:#000;stroke-width:1.93px;"/>
            <path d="M1505.1,2182.62L1502.18,2177.55" style="fill:none;stroke:#000;stroke-width:1.93px;"/>
            <path d="M1473.75,2299.63L1468.68,2302.55" style="fill:none;stroke:#000;stroke-width:1.93px;"/>
            <path d="M1627.18,2211.05L1622.12,2213.97" style="fill:none;stroke:#000;stroke-width:1.93px;"/>
            <path d="M1547.93,2348.31L1547.93,2342.46" style="fill:none;stroke:#000;stroke-width:1.93px;"/>
            <path d="M1547.93,2171.14L1547.93,2165.29" style="fill:none;stroke:#000;stroke-width:1.93px;"/>
            <path d="M1462.27,2256.8L1456.42,2256.8" style="fill:none;stroke:#000;stroke-width:1.93px;"/>
            <path d="M1639.44,2256.8L1633.59,2256.8" style="fill:none;stroke:#000;stroke-width:1.93px;"/>
        </g>
        <g id="Root-Markers1" serif:id="Root Markers">
            <path id="_112" serif:id="11" d="M1516.76,2202.85L1530.8,2214.72L1520.02,2220.95L1516.76,2202.85ZM1521.68,2211.37L1522.46,2215.69L1525.03,2214.2L1521.68,2211.37Z" style="fill:#4daab1;"/>
        </g>
        <g id="Notes1" serif:id="Notes">
            <path id="_113" serif:id="11" d="M1515.42,2186.1C1511.18,2193.44 1501.77,2195.97 1494.42,2191.72C1487.07,2187.48 1484.55,2178.07 1488.79,2170.72C1493.03,2163.37 1502.44,2160.85 1509.79,2165.1C1517.14,2169.34 1519.66,2178.75 1515.42,2186.1Z" style="fill:#4daab1;stroke:#fff;stroke-width:4.63px;"/>
            <path id="_102" serif:id="10" d="M1482.84,2219.96C1478.6,2227.3 1469.19,2229.83 1461.84,2225.58C1454.49,2221.34 1451.97,2211.93 1456.21,2204.58C1460.45,2197.23 1469.86,2194.71 1477.21,2198.95C1484.56,2203.2 1487.08,2212.61 1482.84,2219.96Z" style="fill:#4daab1;stroke:#fff;stroke-width:4.63px;"/>
            <path id="_8" serif:id="8" d="M1482.29,2311.1C1478.05,2318.45 1468.64,2320.97 1461.29,2316.72C1453.94,2312.48 1451.42,2303.07 1455.66,2295.72C1459.91,2288.38 1469.32,2285.85 1476.66,2290.1C1484.01,2294.34 1486.54,2303.75 1482.29,2311.1Z" style="fill:#4daab1;stroke:#fff;stroke-width:4.63px;"/>
            <path id="_61" serif:id="6" d="M1561.25,2356.45C1557,2363.79 1547.59,2366.32 1540.24,2362.07C1532.9,2357.83 1530.38,2348.42 1534.62,2341.07C1538.86,2333.72 1548.27,2331.2 1555.62,2335.45C1562.97,2339.69 1565.49,2349.1 1561.25,2356.45Z" style="fill:#4daab1;stroke:#fff;stroke-width:4.63px;"/>
            <path id="_5" serif:id="5" d="M1606.84,2344.29C1602.6,2351.64 1593.19,2354.16 1585.84,2349.92C1578.49,2345.67 1575.97,2336.26 1580.21,2328.92C1584.45,2321.57 1593.86,2319.05 1601.21,2323.29C1608.56,2327.53 1611.08,2336.94 1606.84,2344.29Z" style="fill:#4daab1;stroke:#fff;stroke-width:4.63px;"/>
            <path id="_4" serif:id="4" d="M1639.88,2310.73C1635.63,2318.08 1626.22,2320.6 1618.87,2316.36C1611.53,2312.12 1609,2302.71 1613.25,2295.36C1617.49,2288.01 1626.9,2285.49 1634.25,2289.73C1641.6,2293.97 1644.12,2303.38 1639.88,2310.73Z" style="fill:#4daab1;stroke:#fff;stroke-width:4.63px;"/>
            <path id="_12" serif:id="1" d="M1606.38,2187.2C1602.14,2194.55 1592.73,2197.07 1585.38,2192.82C1578.03,2188.58 1575.51,2179.17 1579.75,2171.82C1583.99,2164.47 1593.4,2161.95 1600.75,2166.2C1608.1,2170.44 1610.62,2179.85 1606.38,2187.2Z" style="fill:#4daab1;stroke:#fff;stroke-width:4.63px;"/>
        </g>
        <g id="Treble-Marker1" serif:id="Treble Marker">
            <g id="_103" serif:id="10">
                <path id="_104" serif:id="10" d="M1482.84,2219.96C1478.6,2227.3 1469.19,2229.83 1461.84,2225.58C1454.49,2221.34 1451.97,2211.93 1456.21,2204.58C1460.45,2197.23 1469.86,2194.71 1477.21,2198.95C1484.56,2203.2 1487.08,2212.61 1482.84,2219.96Z" style="fill:#fff;stroke:#fff;stroke-width:6.43px;"/>
                <circle id="_10a1" serif:id="10a" cx="1469.52" cy="2212.27" r="12.348" style="fill:#fff;stroke:#4daab1;stroke-width:3.22px;"/>
            </g>
        </g>
    </g>
</svg>
