<?xml version="1.0" encoding="UTF-8" standalone="no"?>
<!DOCTYPE svg PUBLIC "-//W3C//DTD SVG 1.1//EN" "http://www.w3.org/Graphics/SVG/1.1/DTD/svg11.dtd">
<svg width="100%" height="100%" viewBox="0 0 1701 2481" version="1.1" xmlns="http://www.w3.org/2000/svg" xmlns:xlink="http://www.w3.org/1999/xlink" xml:space="preserve" xmlns:serif="http://www.serif.com/" style="fill-rule:evenodd;clip-rule:evenodd;stroke-linecap:round;stroke-linejoin:round;stroke-miterlimit:1.5;">
    <rect id="W" x="0.621" y="0.93" width="1700" height="2480" style="fill:none;"/>
    <g id="Fields" opacity="0.2">
        <path id="_11" serif:id="11" sound="Field/04-Petals" d="M497.109,895.516L11,417.305L11,10.93L518.014,10.834L722.643,763.571C636.114,787.429 561.438,829.767 497.109,895.516Z" style="fill:#db9d84;stroke:#767676;stroke-width:8.33px;"/>
        <path id="_7" serif:id="7" sound="Field/01-Zen" d="M498.109,1586.83L11,2061.05L11,2470.42L515.014,2470.52L717.643,1716.78C631.543,1692.43 562.907,1652.05 498.109,1586.83Z" style="fill:#ea8d58;stroke:#767676;stroke-width:8.33px;"/>
        <path id="_6" serif:id="6" sound="Field/09-Petals" d="M978.001,1718.86L1183.63,2470.59L516.166,2470.5L717.794,1716.83C804.034,1738.73 893.471,1741.63 978.001,1718.86Z" style="fill:#b7977c;stroke:#767676;stroke-width:8.33px;"/>
    </g>
    <g id="SG">
        <g id="Meta-Ring">
            <path d="M1262.68,1480.82C1131.37,1708.26 840.122,1786.31 612.698,1655.01C385.274,1523.71 307.244,1232.45 438.558,1005.01C569.871,777.568 861.12,699.516 1088.54,830.819C1315.97,962.123 1394,1253.38 1262.68,1480.82Z" style="fill:none;stroke:#000;stroke-width:0.48px;stroke-linecap:square;"/>
            <path d="M1262.68,1480.82L1236.34,1465.61" style="fill:none;stroke:#000;stroke-width:0.48px;stroke-linecap:square;"/>
            <path d="M464.9,1020.22L438.558,1005.01" style="fill:none;stroke:#000;stroke-width:0.48px;stroke-linecap:square;"/>
            <path d="M627.907,1628.67L612.698,1655.01" style="fill:none;stroke:#000;stroke-width:0.48px;stroke-linecap:square;"/>
            <path d="M1088.54,830.819L1073.34,857.162" style="fill:none;stroke:#000;stroke-width:0.48px;stroke-linecap:square;"/>
            <path d="M1088.53,1654.99L1073.33,1628.65" style="fill:none;stroke:#000;stroke-width:0.48px;stroke-linecap:square;"/>
            <path d="M627.917,857.179L612.708,830.837" style="fill:none;stroke:#000;stroke-width:0.48px;stroke-linecap:square;"/>
            <path d="M464.87,1465.63L438.528,1480.84" style="fill:none;stroke:#000;stroke-width:0.48px;stroke-linecap:square;"/>
            <path d="M1262.71,1004.99L1236.37,1020.2" style="fill:none;stroke:#000;stroke-width:0.48px;stroke-linecap:square;"/>
            <path d="M850.621,1718.76L850.621,1688.34" style="fill:none;stroke:#000;stroke-width:0.48px;stroke-linecap:square;"/>
            <path d="M850.621,797.488L850.621,767.07" style="fill:none;stroke:#000;stroke-width:0.48px;stroke-linecap:square;"/>
            <path d="M405.213,1242.91L374.795,1242.91" style="fill:none;stroke:#000;stroke-width:0.48px;stroke-linecap:square;"/>
            <path d="M1326.45,1242.91L1296.03,1242.91" style="fill:none;stroke:#000;stroke-width:0.48px;stroke-linecap:square;"/>
        </g>
        <g id="Ring-Backers" serif:id="Ring Backers">
            <circle id="_11-Backer" serif:id="11 Backer" cx="615.757" cy="839.728" r="92" style="fill:#fff;"/>
            <circle id="_9-Backer" serif:id="9 Backer" cx="386.757" cy="1243.73" r="92" style="fill:#fff;"/>
            <circle id="_7-Backer" serif:id="7 Backer" cx="616.165" cy="1642.93" r="92" style="fill:#fff;"/>
            <circle id="_6-Backer" serif:id="6 Backer" cx="852.621" cy="1711.15" r="92" style="fill:#fff;"/>
        </g>
        <g id="Child-Rings" serif:id="Child Rings">
            <a href="W2Z.svg">
            <g id="_111" serif:id="11" sound="Font/1-Low-Gb,Font/1-Mid-B,Font/1-Mid-Db,Font/1-Mid-D,Font/1-High-Gb">
                <g id="Ring--Sounder--Background" serif:id="Ring, Sounder, Background">
                    <circle id="Sounder" cx="615.757" cy="839.728" r="92" style="fill:#fff;"/>
                    <g id="Ring">
                        <path d="M694.874,886.043C669.662,929.712 613.742,944.698 570.076,919.488C526.411,894.277 511.429,838.356 536.641,794.688C561.853,751.019 617.773,736.033 661.439,761.243C705.104,786.453 720.086,842.374 694.874,886.043Z" style="fill:none;stroke:#000;stroke-width:2.17px;"/>
                        <path d="M694.874,886.043L689.816,883.123" style="fill:none;stroke:#000;stroke-width:2.17px;"/>
                        <path d="M541.699,797.608L536.641,794.688" style="fill:none;stroke:#000;stroke-width:2.17px;"/>
                        <path d="M572.996,914.43L570.076,919.488" style="fill:none;stroke:#000;stroke-width:2.17px;"/>
                        <path d="M661.439,761.243L658.519,766.301" style="fill:none;stroke:#000;stroke-width:2.17px;"/>
                        <path d="M661.437,919.484L658.517,914.426" style="fill:none;stroke:#000;stroke-width:2.17px;"/>
                        <path d="M572.998,766.304L570.078,761.246" style="fill:none;stroke:#000;stroke-width:2.17px;"/>
                        <path d="M541.693,883.126L536.636,886.046" style="fill:none;stroke:#000;stroke-width:2.17px;"/>
                        <path d="M694.879,794.684L689.822,797.604" style="fill:none;stroke:#000;stroke-width:2.17px;"/>
                        <path d="M615.757,931.728L615.757,925.887" style="fill:none;stroke:#000;stroke-width:2.17px;"/>
                        <path d="M615.757,754.843L615.757,749.003" style="fill:none;stroke:#000;stroke-width:2.17px;"/>
                        <path d="M530.239,840.365L524.399,840.365" style="fill:none;stroke:#000;stroke-width:2.17px;"/>
                        <path d="M707.116,840.365L701.276,840.365" style="fill:none;stroke:#000;stroke-width:2.17px;"/>
                    </g>
                </g>
                <g id="Notes">
                    <path id="_112" serif:id="11" d="M583.297,768.776C579.062,776.112 569.667,778.629 562.33,774.394C554.994,770.158 552.477,760.763 556.712,753.427C560.948,746.09 570.343,743.573 577.679,747.809C585.016,752.044 587.533,761.439 583.297,768.776Z" style="fill:#d2828b;stroke:#fff;stroke-width:5.21px;"/>
                    <path id="_2" serif:id="2" d="M707.549,802.584C703.313,809.92 693.918,812.437 686.582,808.202C679.246,803.966 676.728,794.571 680.964,787.235C685.2,779.898 694.595,777.381 701.931,781.617C709.267,785.852 711.785,795.247 707.549,802.584Z" style="fill:#d2828b;stroke:#fff;stroke-width:5.21px;"/>
                    <path id="_1" serif:id="1" d="M674.109,769.875C669.874,777.211 660.479,779.729 653.142,775.493C645.806,771.257 643.289,761.862 647.524,754.526C651.76,747.19 661.155,744.672 668.491,748.908C675.828,753.144 678.345,762.539 674.109,769.875Z" style="fill:#d2828b;stroke:#fff;stroke-width:5.21px;"/>
                </g>
                <g id="Root-Marker" serif:id="Root Marker">
                    <path id="_61" serif:id="6" d="M615.757,907.06L609.179,888.788L622.336,888.788L615.757,907.06ZM615.757,896.808L617.395,892.26L614.12,892.26L615.757,896.808Z" style="fill:#d2828b;"/>
                </g>
                <g id="Treble-Note" serif:id="Treble Note">
                    <g id="_62" serif:id="6">
                        <path id="_63" serif:id="6" d="M629.418,940.143C625.131,947.568 615.622,950.116 608.197,945.829C600.772,941.542 598.224,932.034 602.511,924.609C606.798,917.184 616.306,914.636 623.732,918.923C631.157,923.209 633.705,932.718 629.418,940.143Z" style="fill:#fff;stroke:#fff;stroke-width:6.5px;"/>
                        <circle id="_6a" serif:id="6a" cx="615.827" cy="932.376" r="12.477" style="fill:#fff;stroke:#d2828b;stroke-width:3.25px;"/>
                    </g>
                </g>
            </g>
            </a>
            <a href="Wrefocus.svg">
            <g id="_9" serif:id="9" sound="Font/2-Low-B,Font/2-Mid-G,Font/2-Mid-A,Font/2-High-Gb">
                <g id="Ring--Sounder--Background1" serif:id="Ring, Sounder, Background">
                    <circle id="Sounder1" serif:id="Sounder" cx="386.757" cy="1243.73" r="92" style="fill:#fff;"/>
                    <g id="Ring1" serif:id="Ring">
                        <path d="M465.874,1289.04C440.662,1332.71 384.742,1347.7 341.076,1322.49C297.411,1297.28 282.429,1241.36 307.641,1197.69C332.853,1154.02 388.773,1139.03 432.439,1164.24C476.104,1189.45 491.086,1245.37 465.874,1289.04Z" style="fill:none;stroke:#000;stroke-width:2.17px;"/>
                        <path d="M465.874,1289.04L460.816,1286.12" style="fill:none;stroke:#000;stroke-width:2.17px;"/>
                        <path d="M312.699,1200.61L307.641,1197.69" style="fill:none;stroke:#000;stroke-width:2.17px;"/>
                        <path d="M343.996,1317.43L341.076,1322.49" style="fill:none;stroke:#000;stroke-width:2.17px;"/>
                        <path d="M432.439,1164.24L429.519,1169.3" style="fill:none;stroke:#000;stroke-width:2.17px;"/>
                        <path d="M432.437,1322.48L429.517,1317.43" style="fill:none;stroke:#000;stroke-width:2.17px;"/>
                        <path d="M343.998,1169.3L341.078,1164.25" style="fill:none;stroke:#000;stroke-width:2.17px;"/>
                        <path d="M312.693,1286.13L307.636,1289.05" style="fill:none;stroke:#000;stroke-width:2.17px;"/>
                        <path d="M465.879,1197.68L460.822,1200.6" style="fill:none;stroke:#000;stroke-width:2.17px;"/>
                        <path d="M386.757,1334.73L386.757,1328.89" style="fill:none;stroke:#000;stroke-width:2.17px;"/>
                        <path d="M386.757,1157.84L386.757,1152" style="fill:none;stroke:#000;stroke-width:2.17px;"/>
                        <path d="M301.239,1243.37L295.399,1243.37" style="fill:none;stroke:#000;stroke-width:2.17px;"/>
                        <path d="M478.116,1243.37L472.276,1243.37" style="fill:none;stroke:#000;stroke-width:2.17px;"/>
                    </g>
                </g>
                <g id="Notes1" serif:id="Notes">
                    <path id="_113" serif:id="11" d="M354.297,1171.78C350.062,1179.11 340.667,1181.63 333.33,1177.39C325.994,1173.16 323.477,1163.76 327.712,1156.43C331.948,1149.09 341.343,1146.57 348.679,1150.81C356.016,1155.04 358.533,1164.44 354.297,1171.78Z" style="fill:#f5cd6c;stroke:#fff;stroke-width:5.21px;"/>
                    <path id="_91" serif:id="9" d="M308.691,1251.84C304.456,1259.18 295.061,1261.7 287.724,1257.46C280.388,1253.23 277.871,1243.83 282.106,1236.49C286.342,1229.16 295.737,1226.64 303.073,1230.88C310.41,1235.11 312.927,1244.51 308.691,1251.84Z" style="fill:#f5cd6c;stroke:#fff;stroke-width:5.21px;"/>
                    <path id="_71" serif:id="7" d="M355.187,1328.92C350.951,1336.26 341.556,1338.77 334.22,1334.54C326.883,1330.3 324.366,1320.91 328.602,1313.57C332.837,1306.23 342.232,1303.72 349.569,1307.95C356.905,1312.19 359.422,1321.58 355.187,1328.92Z" style="fill:#f5cd6c;stroke:#fff;stroke-width:5.21px;"/>
                </g>
                <g id="Root-Marker1" serif:id="Root Marker">
                    <path id="_114" serif:id="11" d="M353.342,1185.53L368.175,1198.06L356.781,1204.64L353.342,1185.53ZM358.468,1194.41L359.324,1199.16L362.159,1197.53L358.468,1194.41Z" style="fill:#f5cd6c;"/>
                </g>
                <g id="Treble-Note1" serif:id="Treble Note">
                    <g id="_64" serif:id="6">
                        <path id="_65" serif:id="6" d="M400.418,1343.14C396.131,1350.57 386.622,1353.12 379.197,1348.83C371.772,1344.54 369.224,1335.03 373.511,1327.61C377.798,1320.18 387.306,1317.64 394.732,1321.92C402.157,1326.21 404.705,1335.72 400.418,1343.14Z" style="fill:#fff;stroke:#fff;stroke-width:6.5px;"/>
                        <circle id="_6a1" serif:id="6a" cx="386.827" cy="1335.38" r="12.477" style="fill:#fff;stroke:#f5cd6c;stroke-width:3.25px;"/>
                    </g>
                </g>
            </g>
            </a>
            <a href="W2X.svg">
            <g id="_72" serif:id="7" sound="Font/2-Low-D,Font/2-Mid-E,Font/2-Mid-Db,Font/2-High-A">
                <g id="Ring--Sounder--Background2" serif:id="Ring, Sounder, Background">
                    <circle id="Sounder2" serif:id="Sounder" cx="616.165" cy="1642.93" r="92" style="fill:#fff;"/>
                    <g id="Ring2" serif:id="Ring">
                        <path d="M695.281,1689.25C670.069,1732.92 614.149,1747.9 570.483,1722.69C526.818,1697.48 511.836,1641.56 537.048,1597.89C562.261,1554.23 618.18,1539.24 661.846,1564.45C705.511,1589.66 720.493,1645.58 695.281,1689.25Z" style="fill:none;stroke:#000;stroke-width:2.17px;"/>
                        <path d="M695.281,1689.25L690.223,1686.33" style="fill:none;stroke:#000;stroke-width:2.17px;"/>
                        <path d="M542.106,1600.81L537.048,1597.89" style="fill:none;stroke:#000;stroke-width:2.17px;"/>
                        <path d="M573.403,1717.64L570.483,1722.69" style="fill:none;stroke:#000;stroke-width:2.17px;"/>
                        <path d="M661.846,1564.45L658.926,1569.51" style="fill:none;stroke:#000;stroke-width:2.17px;"/>
                        <path d="M661.844,1722.69L658.924,1717.63" style="fill:none;stroke:#000;stroke-width:2.17px;"/>
                        <path d="M573.405,1569.51L570.485,1564.45" style="fill:none;stroke:#000;stroke-width:2.17px;"/>
                        <path d="M542.1,1686.33L537.043,1689.25" style="fill:none;stroke:#000;stroke-width:2.17px;"/>
                        <path d="M695.287,1597.89L690.229,1600.81" style="fill:none;stroke:#000;stroke-width:2.17px;"/>
                        <path d="M616.165,1734.93L616.165,1729.09" style="fill:none;stroke:#000;stroke-width:2.17px;"/>
                        <path d="M616.165,1558.05L616.165,1552.21" style="fill:none;stroke:#000;stroke-width:2.17px;"/>
                        <path d="M530.646,1643.57L524.806,1643.57" style="fill:none;stroke:#000;stroke-width:2.17px;"/>
                        <path d="M707.523,1643.57L701.683,1643.57" style="fill:none;stroke:#000;stroke-width:2.17px;"/>
                    </g>
                </g>
                <g id="Notes2" serif:id="Notes">
                    <path id="_4" serif:id="4" d="M707.959,1696.42C703.724,1703.76 694.329,1706.27 686.992,1702.04C679.656,1697.8 677.138,1688.41 681.374,1681.07C685.61,1673.73 695.005,1671.22 702.341,1675.45C709.677,1679.69 712.195,1689.08 707.959,1696.42Z" style="fill:#e67751;stroke:#fff;stroke-width:5.21px;"/>
                    <path id="_21" serif:id="2" d="M707.956,1605.79C703.721,1613.13 694.326,1615.64 686.989,1611.41C679.653,1607.17 677.135,1597.78 681.371,1590.44C685.607,1583.1 695.002,1580.59 702.338,1584.82C709.674,1589.06 712.192,1598.45 707.956,1605.79Z" style="fill:#e67751;stroke:#fff;stroke-width:5.21px;"/>
                    <path id="_12" serif:id="1" d="M674.517,1573.08C670.281,1580.42 660.886,1582.93 653.55,1578.7C646.213,1574.46 643.696,1565.07 647.932,1557.73C652.167,1550.4 661.562,1547.88 668.898,1552.11C676.235,1556.35 678.752,1565.75 674.517,1573.08Z" style="fill:#e67751;stroke:#fff;stroke-width:5.21px;"/>
                </g>
                <g id="Root-Marker2" serif:id="Root Marker">
                    <g id="_22" serif:id="2">
                        <path d="M673.855,1610.14L661.32,1624.98L654.742,1613.58L673.855,1610.14Z" style="fill:#e67751;"/>
                        <path d="M673.855,1610.14L661.32,1624.98L654.742,1613.58L673.855,1610.14ZM664.977,1615.27L660.22,1616.13L661.857,1618.96L664.977,1615.27Z" style="fill:#ea8d58;"/>
                    </g>
                </g>
                <g id="Treble-Note2" serif:id="Treble Note">
                    <g id="_92" serif:id="9">
                        <path id="_9u" serif:id="9u" d="M537.361,1652.25C533.074,1659.67 523.565,1662.22 516.14,1657.94C508.715,1653.65 506.167,1644.14 510.454,1636.72C514.741,1629.29 524.249,1626.74 531.674,1631.03C539.1,1635.32 541.647,1644.83 537.361,1652.25Z" style="fill:#fff;stroke:#fff;stroke-width:6.5px;"/>
                        <circle id="_9a" serif:id="9a" cx="523.907" cy="1644.48" r="12.477" style="fill:#fff;stroke:#e67751;stroke-width:3.25px;"/>
                    </g>
                </g>
            </g>
            </a>
            <a href="W2C.svg" sound="Font/3-Low-Db,Font/3-Mid-Gb,Font/3-High-B">
            <g id="_66" serif:id="6">
                <g id="Ring--Sounder--Background3" serif:id="Ring, Sounder, Background">
                    <circle id="Sounder3" serif:id="Sounder" cx="852.621" cy="1711.15" r="92" style="fill:#fff;"/>
                    <g id="Ring3" serif:id="Ring">
                        <path d="M931.737,1757.47C906.525,1801.14 850.605,1816.12 806.94,1790.91C763.274,1765.7 748.293,1709.78 773.505,1666.11C798.717,1622.44 854.637,1607.46 898.302,1632.67C941.968,1657.88 956.95,1713.8 931.737,1757.47Z" style="fill:none;stroke:#000;stroke-width:2.17px;"/>
                        <path d="M931.737,1757.47L926.68,1754.55" style="fill:none;stroke:#000;stroke-width:2.17px;"/>
                        <path d="M778.563,1669.03L773.505,1666.11" style="fill:none;stroke:#000;stroke-width:2.17px;"/>
                        <path d="M809.86,1785.86L806.94,1790.91" style="fill:none;stroke:#000;stroke-width:2.17px;"/>
                        <path d="M898.302,1632.67L895.382,1637.73" style="fill:none;stroke:#000;stroke-width:2.17px;"/>
                        <path d="M898.3,1790.91L895.38,1785.85" style="fill:none;stroke:#000;stroke-width:2.17px;"/>
                        <path d="M809.862,1637.73L806.942,1632.67" style="fill:none;stroke:#000;stroke-width:2.17px;"/>
                        <path d="M778.557,1754.55L773.499,1757.47" style="fill:none;stroke:#000;stroke-width:2.17px;"/>
                        <path d="M931.743,1666.11L926.685,1669.03" style="fill:none;stroke:#000;stroke-width:2.17px;"/>
                        <path d="M852.621,1803.15L852.621,1797.31" style="fill:none;stroke:#000;stroke-width:2.17px;"/>
                        <path d="M852.621,1626.27L852.621,1620.43" style="fill:none;stroke:#000;stroke-width:2.17px;"/>
                        <path d="M767.103,1711.79L761.263,1711.79" style="fill:none;stroke:#000;stroke-width:2.17px;"/>
                        <path d="M943.98,1711.79L938.14,1711.79" style="fill:none;stroke:#000;stroke-width:2.17px;"/>
                    </g>
                </g>
                <g id="Notes3" serif:id="Notes">
                    <path id="_67" serif:id="6" d="M865.914,1810.28C861.678,1817.62 852.283,1820.13 844.947,1815.9C837.61,1811.66 835.093,1802.27 839.329,1794.93C843.564,1787.6 852.959,1785.08 860.296,1789.31C867.632,1793.55 870.149,1802.94 865.914,1810.28Z" style="fill:#a28481;stroke:#fff;stroke-width:5.21px;"/>
                    <path id="_13" serif:id="1" d="M910.973,1641.3C906.737,1648.64 897.342,1651.15 890.006,1646.92C882.67,1642.68 880.152,1633.29 884.388,1625.95C888.624,1618.62 898.019,1616.1 905.355,1620.33C912.691,1624.57 915.209,1633.97 910.973,1641.3Z" style="fill:#a28481;stroke:#fff;stroke-width:5.21px;"/>
                </g>
                <g id="Root-Marker3" serif:id="Root Marker">
                    <path id="_14" serif:id="1" d="M886.037,1653.87L882.598,1672.99L871.204,1666.41L886.037,1653.87ZM880.911,1662.75L877.219,1665.87L880.055,1667.51L880.911,1662.75Z" style="fill:#a28481;"/>
                </g>
                <g id="Treble-Note3" serif:id="Treble Note">
                    <g id="_115" serif:id="11">
                        <path id="_116" serif:id="11" d="M819.975,1639.44C815.688,1646.86 806.179,1649.41 798.754,1645.12C791.329,1640.84 788.781,1631.33 793.068,1623.9C797.355,1616.48 806.864,1613.93 814.289,1618.22C821.714,1622.5 824.262,1632.01 819.975,1639.44Z" style="fill:#fff;stroke:#fff;stroke-width:6.5px;"/>
                        <circle id="_11a" serif:id="11a" cx="806.522" cy="1631.67" r="12.477" style="fill:#fff;stroke:#a28481;stroke-width:3.25px;"/>
                    </g>
                </g>
            </g>
            </a>
        </g>
    </g>
    <g id="Songs">
        <g id="song-9-petals" serif:id="song 9 petals">
            <g id="W2C" sound="Song/09-Petals-W2C">
                <path d="M861.072,2160.93C841.676,2160.82 822.264,2168.3 807.687,2183.29L781.93,2209.78C768.563,2223.52 761.625,2241.16 761.064,2258.94L861.732,2258.76L861.072,2160.93Z" style="fill:#a28481;stroke:#fff;stroke-width:1.67px;"/>
                <path d="M960.995,2258.58C960.497,2239.99 953.032,2221.57 938.66,2207.59L912.173,2181.83C897.927,2167.98 879.506,2161.03 861.072,2160.93L861.732,2258.76L960.995,2258.58Z" style="fill:#a28481;stroke:#fff;stroke-width:1.67px;"/>
                <path d="M861.072,2257.93L861.072,2161.93" style="fill:none;stroke:#a28481;stroke-width:4.17px;stroke-linecap:butt;"/>
                <path id="q2" d="M876.327,2257.31L946.331,2257.31C938.665,2251.6 923.974,2242.16 914.2,2242.16C903.724,2242.16 884.849,2252.36 876.327,2257.31ZM861.03,2172.75L861.03,2241.79C861.132,2241.97 861.233,2242.14 861.331,2242.31C866.279,2233.79 876.48,2214.92 876.48,2204.44C876.48,2193.9 866.126,2178.76 861.331,2172.34C861.233,2172.47 861.132,2172.61 861.03,2172.75ZM871.899,2246.71C886.437,2242.89 903.174,2236.88 909.405,2230.62C916.888,2223.16 920.248,2205.11 921.408,2197.2C911.971,2198.58 894.928,2202.3 888.025,2209.24C881.764,2215.47 875.747,2232.2 871.899,2246.71Z" style="fill:#e7e7e7;"/>
                <path id="q3" d="M861.03,2241.79L861.03,2172.75C856.116,2179.37 846.182,2194.12 846.182,2204.44C846.182,2214.71 855.981,2233.05 861.03,2241.79ZM776.331,2257.31L846.335,2257.31C837.813,2252.36 818.938,2242.16 808.462,2242.16C797.925,2242.16 782.745,2252.55 776.331,2257.31ZM813.257,2230.62C819.488,2236.88 836.225,2242.89 850.763,2246.71C846.915,2232.2 840.898,2215.47 834.637,2209.24C827.185,2201.78 809.164,2198.39 801.254,2197.23C802.415,2205.14 805.805,2223.16 813.257,2230.62Z" style="fill:#e7e7e7;"/>
            </g>
            <g id="W1" serif:id="W" sound="Song/09-Petals-W">
                <path d="M862.515,2358.93C881.428,2358.67 900.241,2351.19 914.456,2336.58L940.213,2310.09C954.668,2295.22 961.604,2275.82 961.089,2256.59L861.826,2256.77L862.515,2358.93Z" style="fill:#f5cd6c;stroke:#fff;stroke-width:1.67px;"/>
                <path d="M761.158,2256.95C760.526,2276.99 767.993,2297.21 783.483,2312.28L809.97,2338.03C824.588,2352.25 843.602,2359.19 862.515,2358.93L861.826,2256.77L761.158,2256.95Z" style="fill:#f5cd6c;stroke:#fff;stroke-width:1.67px;"/>
                <path d="M862.826,2357.94L862.525,2257.59" style="fill:none;stroke:#f5cd6c;stroke-width:4.17px;stroke-linecap:butt;"/>
                <path id="q4" d="M846.83,2257.31L776.826,2257.31C784.492,2263.02 799.183,2272.46 808.957,2272.46C819.433,2272.46 838.308,2262.26 846.83,2257.31ZM861.525,2341.88L861.525,2272.83C856.476,2281.58 846.677,2299.91 846.677,2310.18C846.677,2320.5 856.611,2335.25 861.525,2341.88ZM851.258,2267.91C836.72,2271.73 819.983,2277.74 813.752,2284.01C806.269,2291.46 802.91,2309.51 801.749,2317.42C811.186,2316.04 828.229,2312.32 835.132,2305.38C841.393,2299.15 847.41,2282.42 851.258,2267.91Z" style="fill:#e7e7e7;"/>
                <path id="q1" d="M946.826,2257.31L876.822,2257.31C885.344,2262.26 904.219,2272.46 914.695,2272.46C925.233,2272.46 940.412,2262.08 946.826,2257.31ZM861.525,2272.83L861.525,2341.88C861.627,2342.01 861.728,2342.15 861.826,2342.28C866.621,2335.87 876.975,2320.72 876.975,2310.18C876.975,2299.7 866.774,2280.83 861.826,2272.31C861.728,2272.48 861.627,2272.65 861.525,2272.83ZM909.9,2284.01C903.669,2277.74 886.932,2271.73 872.394,2267.91C876.242,2282.42 882.259,2299.15 888.52,2305.38C895.973,2312.84 913.993,2316.23 921.903,2317.39C920.743,2309.48 917.353,2291.46 909.9,2284.01Z" style="fill:#e7e7e7;"/>
            </g>
        </g>
        <g id="song-4-petals" serif:id="song 4 petals">
            <g id="W2" serif:id="W" sound="Song/04-Petals-W">
                <path d="M259.944,320.924C279.341,321.029 298.752,313.553 313.33,298.563L339.086,272.076C352.454,258.33 359.392,240.698 359.953,222.917L259.285,223.098L259.944,320.924Z" style="fill:#f5cd6c;stroke:#fff;stroke-width:1.67px;"/>
                <path d="M359.953,222.917C360.585,202.88 353.118,182.654 337.627,167.59L311.141,141.833C296.523,127.617 277.509,120.673 258.596,120.937L259.285,223.098L359.953,222.917Z" style="fill:#f5cd6c;stroke:#fff;stroke-width:1.67px;"/>
                <path d="M358.99,223.098L259.99,223.277" style="fill:none;stroke:#f5cd6c;stroke-width:4.17px;stroke-linecap:butt;"/>
                <g id="q41" serif:id="q4">
                    <path d="M303.414,243.778C293.561,241.138 280.004,234.12 281.363,229.043C282.724,223.967 297.975,224.667 307.828,227.307C328.417,232.824 346.815,246.581 346.815,246.581L346.815,246.58L346.815,246.581C346.815,246.581 324.004,249.295 303.414,243.778Z" style="fill:#e7e7e7;fill-rule:nonzero;"/>
                    <path d="M287.337,262.799C280.123,255.586 271.892,242.729 275.608,239.013C279.324,235.297 292.181,243.528 299.394,250.741C314.466,265.814 323.521,286.926 323.521,286.926L323.521,286.926L323.521,286.926C323.521,286.926 302.409,277.871 287.337,262.799Z" style="fill:#e7e7e7;fill-rule:nonzero;"/>
                    <path d="M265.638,244.769L265.638,244.769C270.714,243.409 277.733,256.966 280.373,266.819C285.89,287.409 283.176,310.22 283.176,310.22L283.175,310.22C283.175,310.22 269.419,291.822 263.902,271.232C261.262,261.38 260.562,246.129 265.638,244.769Z" style="fill:#e7e7e7;fill-rule:nonzero;"/>
                </g>
                <g id="q11" serif:id="q1">
                    <path d="M283.176,136.354C283.176,136.354 285.89,159.165 280.373,179.754C277.733,189.608 270.715,203.164 265.638,201.805L265.637,201.805C260.562,200.444 261.262,185.194 263.902,175.341C269.419,154.751 283.175,136.353 283.175,136.353L283.176,136.354Z" style="fill:#e7e7e7;fill-rule:nonzero;"/>
                    <path d="M299.394,195.832C292.181,203.045 279.324,211.277 275.608,207.561L275.607,207.561C271.892,203.844 280.123,190.988 287.336,183.774C302.409,168.702 323.521,159.647 323.521,159.647L323.522,159.647C323.522,159.647 314.466,180.76 299.394,195.832Z" style="fill:#e7e7e7;fill-rule:nonzero;"/>
                    <path d="M307.828,219.266C297.975,221.907 282.724,222.607 281.364,217.531C280.004,212.454 293.561,205.435 303.414,202.796C324.003,197.278 346.815,199.993 346.815,199.993C346.815,199.993 328.417,213.749 307.828,219.266Z" style="fill:#e7e7e7;fill-rule:nonzero;"/>
                </g>
            </g>
            <g id="W2Z" sound="Song/04-Petals-W2Z">
                <path d="M259.222,120.943C240.309,121.207 221.497,128.68 207.281,143.298L181.524,169.784C167.07,184.648 160.133,204.057 160.648,223.283L259.911,223.104L259.222,120.943Z" style="fill:#d2828b;stroke:#fff;stroke-width:1.67px;"/>
                <path d="M160.648,223.283C161.146,241.874 168.611,260.294 182.983,274.271L209.47,300.028C223.716,313.881 242.137,320.829 260.571,320.93L259.911,223.104L160.648,223.283Z" style="fill:#d2828b;stroke:#fff;stroke-width:1.67px;"/>
                <path d="M259.116,223.283L161.516,223.283" style="fill:none;stroke:#d2828b;stroke-width:4.17px;stroke-linecap:butt;"/>
                <g id="q31" serif:id="q3">
                    <path d="M254.125,244.769L254.126,244.769C259.202,246.129 258.501,261.38 255.861,271.233C250.344,291.822 236.588,310.22 236.588,310.22L236.588,310.22L236.588,310.22C236.588,310.22 233.874,287.408 239.39,266.819C242.031,256.966 249.049,243.409 254.125,244.769Z" style="fill:#e7e7e7;fill-rule:nonzero;"/>
                    <path d="M220.369,250.741C227.582,243.528 240.439,235.297 244.155,239.012L244.156,239.013C247.871,242.729 239.64,255.586 232.427,262.799C217.355,277.871 196.242,286.926 196.242,286.926L196.242,286.926C196.242,286.926 205.297,265.814 220.369,250.741Z" style="fill:#e7e7e7;fill-rule:nonzero;"/>
                    <path d="M211.936,227.307C221.789,224.667 237.039,223.967 238.399,229.043C239.759,234.119 226.202,241.138 216.349,243.778C195.76,249.295 172.948,246.581 172.948,246.581L172.949,246.58L172.948,246.581C172.948,246.581 191.346,232.824 211.936,227.307Z" style="fill:#e7e7e7;fill-rule:nonzero;"/>
                </g>
                <g id="q21" serif:id="q2">
                    <path d="M172.949,199.993C172.949,199.993 195.76,197.278 216.349,202.795C226.202,205.435 239.759,212.454 238.4,217.531C237.039,222.607 221.789,221.906 211.936,219.266C191.346,213.749 172.949,199.993 172.949,199.993Z" style="fill:#e7e7e7;fill-rule:nonzero;"/>
                    <path d="M232.427,183.775C239.64,190.987 247.872,203.844 244.156,207.561C240.439,211.277 227.583,203.045 220.37,195.832C205.297,180.76 196.242,159.647 196.242,159.647C196.242,159.647 217.355,168.702 232.427,183.775Z" style="fill:#e7e7e7;fill-rule:nonzero;"/>
                    <path d="M254.126,201.805L254.125,201.804C249.049,203.164 242.031,189.607 239.39,179.754C233.874,159.165 236.588,136.353 236.588,136.353L236.588,136.353C236.588,136.353 250.345,154.751 255.861,175.341C258.501,185.194 259.202,200.444 254.126,201.805Z" style="fill:#e7e7e7;fill-rule:nonzero;"/>
                </g>
            </g>
        </g>
        <g id="song-1-zen" serif:id="song 1 zen">
            <g id="W2X" sound="Song/01-Zen-W2X">
                <path d="M250.672,2360.93C231.275,2361.03 211.864,2353.56 197.286,2338.57L171.529,2312.08C158.162,2298.34 151.224,2280.7 150.663,2262.92L251.331,2263.1L250.672,2360.93Z" style="fill:#ea8d58;stroke:#fff;stroke-width:1.67px;"/>
                <path d="M350.594,2263.28C350.097,2281.87 342.632,2300.29 328.259,2314.27L301.773,2340.03C287.526,2353.88 269.106,2360.83 250.672,2360.93L251.331,2263.1L350.594,2263.28Z" style="fill:#ea8d58;stroke:#fff;stroke-width:1.67px;"/>
                <path d="M250.672,2263.93L250.672,2359.93" style="fill:none;stroke:#ea8d58;stroke-width:4.17px;stroke-linecap:butt;"/>
                <path id="q32" serif:id="q3" d="M251.03,2348.11C235.876,2348.1 221.106,2343.87 206.722,2335.4C197.847,2329.92 190.167,2322.93 183.682,2314.42C180.629,2310.33 178.256,2306.73 176.564,2303.61C175.122,2301.02 173.674,2298.18 172.217,2295.1C172.066,2294.72 172.016,2294.8 172.068,2295.35L171.454,2294.16C170.801,2292.83 169.933,2290.59 168.852,2287.42C166.36,2279.08 165.029,2270.79 164.86,2262.56L185.818,2262.56C184.859,2276.63 189.391,2290.74 199.412,2304.86C209.157,2317.48 221.853,2325.74 237.498,2329.66C242.214,2330.65 246.725,2331.22 251.03,2331.38L251.03,2343.05C241.804,2343.19 232.354,2341.64 222.679,2338.4C231.884,2342.55 241.335,2344.76 251.03,2345.05L251.03,2348.11ZM185.925,2262.56L192.458,2262.56L190.916,2268.94C191.003,2272.34 191.554,2275.86 192.57,2279.5C197.992,2296.44 208.096,2309.36 222.88,2318.24C232.484,2323.23 241.867,2326 251.03,2326.55L251.03,2330.1C245.78,2329.97 240.584,2329.16 235.44,2327.68C222.333,2324.24 210.67,2316.15 200.452,2303.42C195.163,2295.99 191.578,2289.61 189.697,2284.28C187.259,2276.94 186.001,2269.7 185.925,2262.56Z" style="fill:#e7e7e7;"/>
                <path id="q22" serif:id="q2" d="M251.03,2326.55C257.317,2326.93 263.5,2326.26 269.58,2324.55C273.058,2323.72 276.954,2322.32 281.268,2320.37C285.096,2318.64 289.256,2316.17 293.748,2312.95C293.006,2314.02 293.435,2314.04 295.036,2313.02C301.055,2308.43 306.088,2302.68 310.132,2295.78C308.077,2301.29 304.797,2306.05 300.29,2310.05C291.762,2317.62 284.269,2322.64 277.809,2325.12C268.734,2328.67 259.808,2330.32 251.03,2330.1L251.03,2326.55ZM251.03,2331.38C256.059,2331.55 260.808,2331.16 265.276,2330.2C276.503,2327.8 286.446,2323.6 295.103,2317.6C312.545,2302.72 321.574,2284.69 322.188,2263.51C322.293,2270.77 320.875,2279.23 317.932,2288.88C320.471,2287.54 322.458,2282.15 323.893,2272.72C323.512,2276.97 322.453,2282.21 320.717,2288.44C320.549,2288.89 320.7,2289.13 321.171,2289.14C320.847,2290.55 319.931,2293.36 318.425,2297.56L322.437,2292.63C321.638,2295.09 318.691,2300.29 313.594,2308.26C302.924,2322.81 288.985,2332.62 271.775,2337.67C283.491,2335.52 294.775,2329.44 305.626,2319.43C303.117,2322.22 300.267,2324.74 297.076,2326.97C282.406,2337.44 267.057,2342.8 251.03,2343.05L251.03,2331.38ZM251.03,2345.05C263.697,2345.41 276.781,2342.48 290.283,2336.26C289.008,2337.77 283.948,2340.36 275.105,2344.05C271.421,2345.47 268.164,2346.41 265.333,2346.88C260.528,2347.7 255.76,2348.11 251.03,2348.11L251.03,2345.05Z" style="fill:#e7e7e7;"/>
            </g>
            <g id="W3" serif:id="W" sound="Song/01-Zen-W">
                <path d="M252.02,2160.94C270.933,2161.21 289.746,2168.68 303.961,2183.3L329.718,2209.78C344.173,2224.65 351.109,2244.05 350.594,2263.28L251.331,2263.1L252.02,2160.94Z" style="fill:#f5cd6c;stroke:#fff;stroke-width:1.67px;"/>
                <path d="M150.663,2262.92C150.031,2242.89 157.498,2222.66 172.988,2207.6L199.475,2181.84C214.093,2167.62 233.107,2160.68 252.02,2160.94L251.331,2263.1L150.663,2262.92Z" style="fill:#f5cd6c;stroke:#fff;stroke-width:1.67px;"/>
                <path d="M251.121,2161.93L251.03,2261.93" style="fill:none;stroke:#f5cd6c;stroke-width:4.17px;stroke-linecap:butt;"/>
                <path id="q42" serif:id="q4" d="M164.86,2262.56C164.544,2247.16 168.289,2231.95 176.095,2216.94C190.166,2194.79 209.051,2181.43 232.75,2176.84C239.021,2175.57 245.114,2174.96 251.03,2175L251.03,2202.46C243.823,2202.53 236.719,2203.95 229.717,2206.73L227.113,2208.2C232.098,2206.64 236.63,2205.73 240.709,2205.45C222.003,2209.83 208.601,2219.35 200.504,2234.01C197.073,2240.17 194.813,2246.21 193.725,2252.12C193.207,2255.14 192.918,2258.07 192.858,2260.9L192.458,2262.56L185.925,2262.56C185.921,2262.11 185.921,2261.67 185.925,2261.22C185.884,2261.67 185.848,2262.11 185.818,2262.56L164.86,2262.56Z" style="fill:#e7e7e7;"/>
                <path id="q12" serif:id="q1" d="M251.03,2175C259.878,2175.07 268.327,2176.59 276.379,2179.59C281.48,2181.19 284.908,2182.47 286.665,2183.43L298.819,2190.65C299.113,2190.28 302.964,2193.58 310.373,2200.54C312.085,2202.16 314.457,2204.73 317.487,2208.24L321.743,2216.2L321.955,2216.68C319.85,2214.5 318.222,2213.24 317.072,2212.89C320.265,2217.92 323.002,2221.92 325.284,2224.9C326.647,2227.37 328.004,2230.22 329.355,2233.45C332.222,2241.49 333.97,2248.39 334.6,2254.13C335.115,2256.88 334.806,2257.27 333.674,2255.31C332.075,2252.05 330.157,2248.69 327.92,2245.23L327.843,2253.45C326.988,2249.91 326.111,2246.93 325.212,2244.49C323.7,2242.77 322.305,2241.36 321.026,2240.27C319.525,2241.09 318.854,2241.89 319.01,2242.68C320.05,2248.72 320.281,2253.56 319.705,2257.21C318.748,2261.9 317.958,2262.84 317.334,2260.03L316.897,2258.62L313.311,2244.82C313.142,2244.24 312.873,2244.04 312.505,2244.23C310.35,2240.57 308.275,2237.62 306.28,2235.38C305.457,2234.25 303.343,2232.11 299.939,2228.97C300.294,2226.42 300.387,2225.23 300.217,2225.42L297.465,2222C290.84,2214.54 280.475,2208.64 266.37,2204.32C261.206,2203.03 256.093,2202.41 251.03,2202.46L251.03,2175Z" style="fill:#e7e7e7;"/>
            </g>
        </g>
    </g>
    <g id="Map">
        <g id="Frame">
            <rect x="1472.12" y="42.472" width="190" height="190" style="fill:#fff;"/>
            <rect x="1472.12" y="42.472" width="190" height="190" style="fill:none;stroke:#000;stroke-width:1.17px;stroke-linejoin:bevel;"/>
            <rect x="1524" y="94.347" width="86.25" height="86.25" style="fill:none;stroke:#000;stroke-width:1.25px;stroke-linejoin:bevel;"/>
            <path d="M1610.25,94.347L1662.12,42.68" style="fill:none;stroke:#000;stroke-width:1.25px;stroke-linejoin:bevel;"/>
            <path d="M1524,94.347L1472.54,42.68" style="fill:none;stroke:#000;stroke-width:1.25px;stroke-linejoin:bevel;"/>
            <path d="M1524,180.597L1472.12,232.472" style="fill:none;stroke:#000;stroke-width:1.25px;stroke-linejoin:bevel;"/>
            <path d="M1610.25,180.597L1662.12,232.472" style="fill:none;stroke:#000;stroke-width:1.25px;stroke-linejoin:bevel;"/>
        </g>
        <g id="Dots">
            <circle cx="1472.12" cy="232.43" r="1.5" style="stroke:#000;stroke-width:1.25px;stroke-linejoin:bevel;"/>
            <circle cx="1566.82" cy="232.555" r="1.5" style="stroke:#000;stroke-width:1.25px;stroke-linejoin:bevel;"/>
            <circle cx="1662.12" cy="232.43" r="1.5" style="stroke:#000;stroke-width:1.25px;stroke-linejoin:bevel;"/>
            <circle cx="1634.47" cy="204.596" r="1.5" style="stroke:#000;stroke-width:1.25px;stroke-linejoin:bevel;"/>
            <circle cx="1610.25" cy="180.43" r="1.5" style="stroke:#000;stroke-width:1.25px;stroke-linejoin:bevel;"/>
            <circle cx="1609.82" cy="137.555" r="1.5" style="stroke:#000;stroke-width:1.25px;stroke-linejoin:bevel;"/>
            <circle cx="1609.94" cy="94.305" r="1.5" style="stroke:#000;stroke-width:1.25px;stroke-linejoin:bevel;"/>
            <circle cx="1634.38" cy="70.096" r="1.5" style="stroke:#000;stroke-width:1.25px;stroke-linejoin:bevel;"/>
            <circle cx="1566.82" cy="94.305" r="1.5" style="stroke:#000;stroke-width:1.25px;stroke-linejoin:bevel;"/>
            <circle cx="1523.69" cy="94.43" r="1.5" style="stroke:#000;stroke-width:1.25px;stroke-linejoin:bevel;"/>
            <circle cx="1567.12" cy="42.43" r="1.5" style="stroke:#000;stroke-width:1.25px;stroke-linejoin:bevel;"/>
            <circle cx="1472.12" cy="42.472" r="1.5" style="stroke:#000;stroke-width:1.25px;stroke-linejoin:bevel;"/>
            <circle cx="1499.97" cy="70.43" r="1.5" style="stroke:#000;stroke-width:1.25px;stroke-linejoin:bevel;"/>
            <circle cx="1472.12" cy="137.472" r="1.5" style="stroke:#000;stroke-width:1.25px;stroke-linejoin:bevel;"/>
            <circle cx="1524" cy="137.472" r="1.5" style="stroke:#000;stroke-width:1.25px;stroke-linejoin:bevel;"/>
            <circle cx="1566.62" cy="180.597" r="1.5" style="stroke:#000;stroke-width:1.25px;stroke-linejoin:bevel;"/>
            <circle cx="1523.97" cy="180.43" r="1.5" style="stroke:#000;stroke-width:1.25px;stroke-linejoin:bevel;"/>
            <circle cx="1499.77" cy="204.93" r="1.5" style="stroke:#000;stroke-width:1.25px;stroke-linejoin:bevel;"/>
            <circle cx="1662.12" cy="137.472" r="1.5" style="stroke:#000;stroke-width:1.25px;stroke-linejoin:bevel;"/>
            <circle cx="1662.12" cy="42.579" r="1.5" style="stroke:#000;stroke-width:1.25px;stroke-linejoin:bevel;"/>
        </g>
        <g>
            <path d="M1662.12,232.097L1634.62,205.055L1662.12,232.097Z" style="fill:none;stroke:#f5cd6c;stroke-width:5.99px;"/>
            <path d="M1662.12,138.055L1662.12,232.43L1567.62,232.43" style="fill:none;stroke:#f5cd6c;stroke-width:5.99px;"/>
        </g>
        <g id="_93" serif:id="9">
            <circle cx="1632.62" cy="202.826" r="15.75" style="fill:#fff;stroke:#fff;stroke-width:1.46px;"/>
            <g id="_8-petals" serif:id="8 petals">
                <path id="q43" serif:id="q4" d="M1629.98,203.451L1617.62,203.451C1618.97,202.443 1621.57,200.777 1623.29,200.777C1625.14,200.777 1628.47,202.577 1629.98,203.451ZM1632.57,188.527L1632.57,200.712C1631.68,199.168 1629.95,195.933 1629.95,194.121C1629.95,192.299 1631.7,189.697 1632.57,188.527ZM1630.76,201.58C1628.19,200.907 1625.24,199.845 1624.14,198.74C1622.82,197.425 1622.22,194.239 1622.02,192.843C1623.68,193.086 1626.69,193.743 1627.91,194.967C1629.02,196.066 1630.08,199.02 1630.76,201.58Z" style="fill:#733c52;"/>
                <path id="q13" serif:id="q1" d="M1647.62,203.451L1635.27,203.451C1636.77,202.577 1640.1,200.777 1641.95,200.777C1643.81,200.777 1646.49,202.61 1647.62,203.451ZM1632.57,200.712L1632.57,188.527C1632.59,188.503 1632.6,188.479 1632.62,188.456C1633.47,189.588 1635.3,192.261 1635.3,194.121C1635.3,195.969 1633.49,199.3 1632.62,200.804C1632.6,200.774 1632.59,200.744 1632.57,200.712ZM1641.11,198.74C1640.01,199.845 1637.05,200.907 1634.49,201.58C1635.16,199.02 1636.23,196.066 1637.33,194.967C1638.65,193.652 1641.83,193.053 1643.22,192.849C1643.02,194.245 1642.42,197.425 1641.11,198.74Z" style="fill:#733c52;"/>
                <path id="q23" serif:id="q2" d="M1635.27,203.451L1647.62,203.451C1646.27,204.458 1643.68,206.124 1641.95,206.124C1640.1,206.124 1636.77,204.324 1635.27,203.451ZM1632.57,218.374L1632.57,206.189C1632.59,206.158 1632.6,206.127 1632.62,206.097C1633.49,207.601 1635.3,210.932 1635.3,212.78C1635.3,214.64 1633.47,217.313 1632.62,218.445C1632.6,218.422 1632.59,218.398 1632.57,218.374ZM1634.49,205.321C1637.05,205.995 1640.01,207.056 1641.11,208.161C1642.42,209.476 1643.02,212.662 1643.22,214.058C1641.56,213.815 1638.55,213.158 1637.33,211.934C1636.23,210.835 1635.16,207.881 1634.49,205.321Z" style="fill:#733c52;"/>
                <path id="q33" serif:id="q3" d="M1632.57,206.189L1632.57,218.374C1631.7,217.204 1629.95,214.602 1629.95,212.78C1629.95,210.968 1631.68,207.733 1632.57,206.189ZM1617.62,203.451L1629.98,203.451C1628.47,204.324 1625.14,206.124 1623.29,206.124C1621.43,206.124 1618.75,204.291 1617.62,203.451ZM1624.14,208.161C1625.24,207.056 1628.19,205.995 1630.76,205.321C1630.08,207.881 1629.02,210.835 1627.91,211.934C1626.6,213.249 1623.41,213.848 1622.02,214.052C1622.22,212.656 1622.82,209.476 1624.14,208.161Z" style="fill:#733c52;"/>
            </g>
        </g>
        <g id="_41" serif:id="4">
            <circle cx="1662.12" cy="136.93" r="15.75" style="fill:#fff;stroke:#fff;stroke-width:1.46px;"/>
            <g id="_42" serif:id="4">
                <g id="q44" serif:id="q4">
                    <path d="M1656,140.589C1657.5,140.188 1659.56,139.12 1659.35,138.347C1659.14,137.575 1656.83,137.682 1655.33,138.083C1652.19,138.923 1649.39,141.016 1649.39,141.016L1649.39,141.016L1649.39,141.016C1649.39,141.016 1652.86,141.429 1656,140.589Z" style="fill:#733c52;fill-rule:nonzero;"/>
                    <path d="M1658.44,143.484C1659.54,142.386 1660.79,140.43 1660.23,139.864C1659.66,139.299 1657.71,140.551 1656.61,141.649C1654.32,143.943 1652.94,147.155 1652.94,147.155L1652.94,147.155L1652.94,147.155C1652.94,147.155 1656.15,145.777 1658.44,143.484Z" style="fill:#733c52;fill-rule:nonzero;"/>
                    <path d="M1661.75,140.74L1661.75,140.74C1660.97,140.533 1659.9,142.596 1659.5,144.095C1658.66,147.228 1659.08,150.699 1659.08,150.699L1659.08,150.699C1659.08,150.699 1661.17,147.9 1662.01,144.767C1662.41,143.268 1662.52,140.947 1661.75,140.74Z" style="fill:#733c52;fill-rule:nonzero;"/>
                </g>
                <g id="q14" serif:id="q1">
                    <path d="M1659.08,124.244C1659.08,124.244 1658.66,127.715 1659.5,130.848C1659.9,132.347 1660.97,134.41 1661.75,134.203L1661.75,134.203C1662.52,133.996 1662.41,131.675 1662.01,130.176C1661.17,127.043 1659.08,124.244 1659.08,124.244L1659.08,124.244Z" style="fill:#733c52;fill-rule:nonzero;"/>
                    <path d="M1656.61,133.294C1657.71,134.392 1659.66,135.644 1660.23,135.079L1660.23,135.079C1660.79,134.513 1659.54,132.557 1658.44,131.459C1656.15,129.166 1652.94,127.788 1652.94,127.788L1652.94,127.788C1652.94,127.788 1654.32,131.001 1656.61,133.294Z" style="fill:#733c52;fill-rule:nonzero;"/>
                    <path d="M1655.33,136.86C1656.83,137.261 1659.14,137.368 1659.35,136.596C1659.56,135.823 1657.5,134.755 1656,134.354C1652.86,133.514 1649.39,133.927 1649.39,133.927C1649.39,133.927 1652.19,136.02 1655.33,136.86Z" style="fill:#733c52;fill-rule:nonzero;"/>
                </g>
                <g id="q34" serif:id="q3">
                    <path d="M1663.5,140.74L1663.5,140.74C1662.73,140.947 1662.83,143.268 1663.23,144.767C1664.07,147.9 1666.17,150.699 1666.17,150.699L1666.16,150.699L1666.17,150.699C1666.17,150.699 1666.58,147.228 1665.74,144.095C1665.34,142.596 1664.27,140.533 1663.5,140.74Z" style="fill:#733c52;fill-rule:nonzero;"/>
                    <path d="M1668.63,141.649C1667.54,140.551 1665.58,139.299 1665.01,139.864L1665.01,139.864C1664.45,140.43 1665.7,142.386 1666.8,143.484C1669.09,145.777 1672.31,147.155 1672.31,147.155L1672.31,147.155C1672.31,147.155 1670.93,143.942 1668.63,141.649Z" style="fill:#733c52;fill-rule:nonzero;"/>
                    <path d="M1669.92,138.083C1668.42,137.681 1666.1,137.575 1665.89,138.347C1665.68,139.12 1667.75,140.188 1669.25,140.589C1672.38,141.429 1675.85,141.016 1675.85,141.016L1675.85,141.016L1675.85,141.016C1675.85,141.016 1673.05,138.923 1669.92,138.083Z" style="fill:#733c52;fill-rule:nonzero;"/>
                </g>
                <g id="q24" serif:id="q2">
                    <path d="M1675.85,133.927C1675.85,133.927 1672.38,133.514 1669.25,134.354C1667.75,134.755 1665.68,135.823 1665.89,136.596C1666.1,137.368 1668.42,137.261 1669.92,136.86C1673.05,136.02 1675.85,133.927 1675.85,133.927Z" style="fill:#733c52;fill-rule:nonzero;"/>
                    <path d="M1666.8,131.459C1665.7,132.557 1664.45,134.513 1665.01,135.079C1665.58,135.644 1667.54,134.392 1668.63,133.294C1670.93,131.001 1672.31,127.788 1672.31,127.788C1672.31,127.788 1669.09,129.166 1666.8,131.459Z" style="fill:#733c52;fill-rule:nonzero;"/>
                    <path d="M1663.5,134.203L1663.5,134.203C1664.27,134.41 1665.34,132.347 1665.74,130.847C1666.58,127.715 1666.17,124.244 1666.17,124.244L1666.17,124.244C1666.17,124.244 1664.07,127.043 1663.23,130.176C1662.83,131.675 1662.73,133.996 1663.5,134.203Z" style="fill:#733c52;fill-rule:nonzero;"/>
                </g>
            </g>
        </g>
        <g id="_15" serif:id="1">
            <circle cx="1566.87" cy="232.18" r="15.75" style="fill:#fff;stroke:#fff;stroke-width:1.46px;"/>
            <g id="zen">
                <path id="q45" serif:id="q4" d="M1552.12,232.606C1552.07,229.889 1552.73,227.206 1554.11,224.555C1556.59,220.647 1559.92,218.289 1564.11,217.48C1565.21,217.256 1566.29,217.148 1567.33,217.156L1567.33,222.001C1566.06,222.013 1564.81,222.264 1563.57,222.754L1563.11,223.014C1563.99,222.739 1564.79,222.577 1565.51,222.528C1562.21,223.302 1559.84,224.982 1558.41,227.569C1557.81,228.656 1557.41,229.721 1557.22,230.764C1557.13,231.297 1557.08,231.814 1557.07,232.314L1557,232.606L1555.84,232.606C1555.84,232.528 1555.84,232.449 1555.84,232.371C1555.83,232.449 1555.83,232.528 1555.82,232.606L1552.12,232.606Z" style="fill:#733c52;"/>
                <path id="q15" serif:id="q1" d="M1567.33,217.156C1568.89,217.167 1570.38,217.436 1571.8,217.964C1572.7,218.248 1573.31,218.474 1573.62,218.642L1575.76,219.916C1575.82,219.851 1576.5,220.433 1577.8,221.663C1578.11,221.949 1578.52,222.401 1579.06,223.02L1579.81,224.425L1579.85,224.511C1579.48,224.126 1579.19,223.902 1578.99,223.841C1579.55,224.728 1580.03,225.435 1580.43,225.961C1580.67,226.397 1580.91,226.9 1581.15,227.469C1581.66,228.889 1581.97,230.106 1582.08,231.12C1582.17,231.603 1582.12,231.673 1581.91,231.328C1581.63,230.752 1581.29,230.159 1580.9,229.549L1580.89,230.999C1580.74,230.375 1580.58,229.848 1580.42,229.418C1580.15,229.114 1579.91,228.866 1579.68,228.674C1579.42,228.818 1579.3,228.96 1579.33,229.098C1579.51,230.164 1579.55,231.019 1579.45,231.663C1579.28,232.49 1579.14,232.656 1579.03,232.161L1578.95,231.912L1578.32,229.477C1578.29,229.373 1578.24,229.339 1578.18,229.373C1577.8,228.726 1577.43,228.205 1577.08,227.811C1576.94,227.61 1576.56,227.233 1575.96,226.679C1576.03,226.228 1576.04,226.02 1576.01,226.053L1575.53,225.45C1574.36,224.133 1572.53,223.092 1570.04,222.329C1569.13,222.101 1568.22,221.992 1567.33,222.001L1567.33,217.156Z" style="fill:#733c52;"/>
                <path id="q35" serif:id="q3" d="M1567.33,247.704C1564.66,247.703 1562.05,246.955 1559.51,245.461C1557.95,244.495 1556.59,243.26 1555.45,241.758C1554.91,241.037 1554.49,240.401 1554.19,239.85C1553.93,239.393 1553.68,238.893 1553.42,238.35C1553.4,238.282 1553.39,238.297 1553.4,238.393L1553.29,238.183C1553.17,237.949 1553.02,237.553 1552.83,236.994C1552.39,235.522 1552.15,234.059 1552.12,232.606L1555.82,232.606C1555.65,235.09 1556.45,237.579 1558.22,240.072C1559.94,242.298 1562.18,243.757 1564.94,244.449C1565.78,244.623 1566.57,244.724 1567.33,244.751L1567.33,246.811C1565.7,246.836 1564.04,246.563 1562.33,245.991C1563.95,246.722 1565.62,247.113 1567.33,247.163L1567.33,247.704ZM1555.84,232.606L1557,232.606L1556.72,233.733C1556.74,234.333 1556.84,234.954 1557.01,235.596C1557.97,238.586 1559.75,240.865 1562.36,242.433C1564.06,243.313 1565.71,243.801 1567.33,243.899L1567.33,244.526C1566.4,244.502 1565.49,244.36 1564.58,244.099C1562.27,243.491 1560.21,242.064 1558.4,239.817C1557.47,238.505 1556.84,237.38 1556.51,236.44C1556.08,235.145 1555.86,233.867 1555.84,232.606Z" style="fill:#733c52;"/>
                <path id="q25" serif:id="q2" d="M1567.33,243.899C1568.44,243.966 1569.53,243.848 1570.6,243.547C1571.22,243.399 1571.91,243.153 1572.67,242.808C1573.34,242.503 1574.08,242.067 1574.87,241.5C1574.74,241.687 1574.81,241.691 1575.1,241.511C1576.16,240.702 1577.05,239.687 1577.76,238.468C1577.4,239.442 1576.82,240.281 1576.02,240.988C1574.52,242.323 1573.2,243.209 1572.06,243.648C1570.45,244.273 1568.88,244.565 1567.33,244.526L1567.33,243.899ZM1567.33,244.751C1568.22,244.782 1569.06,244.713 1569.85,244.543C1571.83,244.119 1573.58,243.378 1575.11,242.32C1578.19,239.694 1579.78,236.512 1579.89,232.774C1579.91,234.056 1579.66,235.549 1579.14,237.252C1579.59,237.015 1579.94,236.064 1580.19,234.4C1580.12,235.15 1579.93,236.075 1579.63,237.174C1579.6,237.254 1579.63,237.295 1579.71,237.298C1579.65,237.547 1579.49,238.042 1579.22,238.783L1579.93,237.913C1579.79,238.346 1579.27,239.266 1578.37,240.671C1576.49,243.24 1574.03,244.97 1570.99,245.861C1573.06,245.482 1575.05,244.409 1576.97,242.642C1576.52,243.135 1576.02,243.579 1575.46,243.974C1572.87,245.821 1570.16,246.767 1567.33,246.811L1567.33,244.751ZM1567.33,247.163C1569.57,247.228 1571.88,246.711 1574.26,245.612C1574.03,245.879 1573.14,246.337 1571.58,246.987C1570.93,247.238 1570.36,247.405 1569.86,247.487C1569.01,247.632 1568.17,247.705 1567.33,247.704L1567.33,247.163Z" style="fill:#733c52;"/>
            </g>
        </g>
    </g>
    <path d="M906.691,1614.79C876.261,1505.09 730.029,1482.34 670.621,1550.06C801.359,951.165 775.632,675.663 676.166,746.851C808.932,653.32 882.057,922.357 906.691,1614.79Z" style="fill:none;stroke:#595959;stroke-width:4.17px;"/>
    <path d="M836.333,1814.4C565.026,1920.9 355.57,1870.75 386.964,1354.3C490.593,1452.9 548.678,1183.26 615.757,960.93C356.566,1796.5 448.989,1949.8 836.333,1814.4Z" style="fill:none;stroke:#808080;stroke-width:4.17px;"/>
    <g id="S-melisma" serif:id="S melisma">
        <path id="Sounder4" serif:id="Sounder" d="M1626.87,2303.48C1601.61,2347.22 1545.6,2362.23 1501.87,2336.98C1458.13,2311.73 1443.12,2255.72 1468.38,2211.98C1493.63,2168.24 1549.64,2153.23 1593.38,2178.48C1637.11,2203.73 1652.12,2259.74 1626.87,2303.48Z" style="fill:#fff;"/>
        <g id="Ring4" serif:id="Ring" opacity="0.5">
            <path d="M1626.87,2303.48C1601.61,2347.22 1545.6,2362.23 1501.87,2336.98C1458.13,2311.73 1443.12,2255.72 1468.38,2211.98C1493.63,2168.24 1549.64,2153.23 1593.38,2178.48C1637.11,2203.73 1652.12,2259.74 1626.87,2303.48Z" style="fill:none;stroke:#000;stroke-width:1.93px;"/>
            <path d="M1626.87,2303.48L1621.8,2300.56" style="fill:none;stroke:#000;stroke-width:1.93px;"/>
            <path d="M1473.44,2214.9L1468.38,2211.98" style="fill:none;stroke:#000;stroke-width:1.93px;"/>
            <path d="M1504.79,2331.91L1501.87,2336.98" style="fill:none;stroke:#000;stroke-width:1.93px;"/>
            <path d="M1593.38,2178.48L1590.45,2183.55" style="fill:none;stroke:#000;stroke-width:1.93px;"/>
            <path d="M1593.38,2336.97L1590.45,2331.91" style="fill:none;stroke:#000;stroke-width:1.93px;"/>
            <path d="M1504.79,2183.55L1501.87,2178.48" style="fill:none;stroke:#000;stroke-width:1.93px;"/>
            <path d="M1473.44,2300.56L1468.37,2303.48" style="fill:none;stroke:#000;stroke-width:1.93px;"/>
            <path d="M1626.87,2211.97L1621.81,2214.9" style="fill:none;stroke:#000;stroke-width:1.93px;"/>
            <path d="M1547.62,2349.24L1547.62,2343.39" style="fill:none;stroke:#000;stroke-width:1.93px;"/>
            <path d="M1547.62,2172.07L1547.62,2166.22" style="fill:none;stroke:#000;stroke-width:1.93px;"/>
            <path d="M1461.96,2257.73L1456.11,2257.73" style="fill:none;stroke:#000;stroke-width:1.93px;"/>
            <path d="M1639.13,2257.73L1633.28,2257.73" style="fill:none;stroke:#000;stroke-width:1.93px;"/>
        </g>
        <g id="Root-Markers" serif:id="Root Markers">
        </g>
        <g id="Notes4" serif:id="Notes">
            <path id="_117" serif:id="11" d="M1515.11,2187.03C1510.87,2194.37 1501.45,2196.89 1494.11,2192.65C1486.76,2188.41 1484.24,2179 1488.48,2171.65C1492.72,2164.3 1502.13,2161.78 1509.48,2166.03C1516.83,2170.27 1519.35,2179.68 1515.11,2187.03Z" style="fill:#f5cd6c;stroke:#fff;stroke-width:4.63px;"/>
            <path id="_94" serif:id="9" d="M1469.43,2267.22C1465.19,2274.57 1455.78,2277.09 1448.43,2272.85C1441.08,2268.61 1438.56,2259.2 1442.8,2251.85C1447.04,2244.5 1456.45,2241.98 1463.8,2246.22C1471.15,2250.46 1473.67,2259.87 1469.43,2267.22Z" style="fill:#f5cd6c;stroke:#fff;stroke-width:4.63px;"/>
            <path id="_73" serif:id="7" d="M1516,2344.42C1511.76,2351.77 1502.35,2354.29 1495,2350.05C1487.65,2345.81 1485.13,2336.4 1489.37,2329.05C1493.61,2321.7 1503.02,2319.18 1510.37,2323.42C1517.72,2327.66 1520.24,2337.07 1516,2344.42Z" style="fill:#f5cd6c;stroke:#fff;stroke-width:4.63px;"/>
            <path id="_68" serif:id="6" d="M1560.93,2357.38C1556.69,2364.72 1547.28,2367.24 1539.93,2363C1532.59,2358.76 1530.07,2349.35 1534.31,2342C1538.55,2334.65 1547.96,2332.13 1555.31,2336.38C1562.66,2340.62 1565.18,2350.03 1560.93,2357.38Z" style="fill:#f5cd6c;stroke:#fff;stroke-width:4.63px;"/>
            <path id="_43" serif:id="4" d="M1639.57,2311.66C1635.32,2319.01 1625.91,2321.53 1618.56,2317.29C1611.22,2313.05 1608.69,2303.64 1612.94,2296.29C1617.18,2288.94 1626.59,2286.42 1633.94,2290.66C1641.29,2294.9 1643.81,2304.31 1639.57,2311.66Z" style="fill:#f5cd6c;stroke:#fff;stroke-width:4.63px;"/>
            <path id="_23" serif:id="2" d="M1639.56,2220.89C1635.32,2228.24 1625.91,2230.76 1618.56,2226.51C1611.21,2222.27 1608.69,2212.86 1612.93,2205.51C1617.18,2198.17 1626.59,2195.64 1633.93,2199.89C1641.28,2204.13 1643.8,2213.54 1639.56,2220.89Z" style="fill:#f5cd6c;stroke:#fff;stroke-width:4.63px;"/>
            <path id="_16" serif:id="1" d="M1606.07,2188.13C1601.83,2195.47 1592.41,2198 1585.07,2193.75C1577.72,2189.51 1575.2,2180.1 1579.44,2172.75C1583.68,2165.41 1593.09,2162.88 1600.44,2167.13C1607.79,2171.37 1610.31,2180.78 1606.07,2188.13Z" style="fill:#f5cd6c;stroke:#fff;stroke-width:4.63px;"/>
        </g>
        <g id="Treble-Marker" serif:id="Treble Marker">
        </g>
    </g>
</svg>
