<?xml version="1.0" encoding="UTF-8" standalone="no"?>
<!DOCTYPE svg PUBLIC "-//W3C//DTD SVG 1.1//EN" "http://www.w3.org/Graphics/SVG/1.1/DTD/svg11.dtd">
<svg width="100%" height="100%" viewBox="0 0 1700 2481" version="1.1" xmlns="http://www.w3.org/2000/svg" xmlns:xlink="http://www.w3.org/1999/xlink" xml:space="preserve" xmlns:serif="http://www.serif.com/" style="fill-rule:evenodd;clip-rule:evenodd;stroke-linecap:round;stroke-linejoin:round;stroke-miterlimit:1.5;">
    <rect id="W2C" x="0" y="0.93" width="1700" height="2480" style="fill:none;"/>
    <g id="Fields" opacity="0.2" sound="Field/09-Petals">
        <path id="_3" serif:id="3" d="M1328,1369.16L1690.05,1462.79L1690.05,1016.93L1328,1113.03C1349.41,1199.64 1351.76,1285.16 1328,1369.16Z" style="fill:#b7977c;stroke:#767676;stroke-width:8.33px;"/>
    </g>
    <a href="W2C2.svg">
    <g id="S">
        <g id="Ring">
            <path id="Backer" d="M1261.43,1477.93C1130.55,1704.63 840.239,1782.43 613.55,1651.55C386.862,1520.68 309.085,1230.37 439.973,1003.67C570.862,776.967 861.169,699.169 1087.86,830.045C1314.55,960.921 1392.32,1251.23 1261.43,1477.93Z" style="fill:#fff;"/>
            <path d="M1261.43,1477.93C1130.55,1704.63 840.239,1782.43 613.55,1651.55C386.862,1520.68 309.085,1230.37 439.973,1003.67C570.862,776.967 861.169,699.169 1087.86,830.045C1314.55,960.921 1392.32,1251.23 1261.43,1477.93Z" style="fill:none;stroke:#000;stroke-width:8.33px;"/>
            <path d="M1261.43,1477.93L1235.18,1462.77" style="fill:none;stroke:#000;stroke-width:8.33px;"/>
            <path d="M466.231,1018.83L439.973,1003.67" style="fill:none;stroke:#000;stroke-width:8.33px;"/>
            <path d="M628.71,1625.3L613.55,1651.55" style="fill:none;stroke:#000;stroke-width:8.33px;"/>
            <path d="M1087.86,830.045L1072.7,856.302" style="fill:none;stroke:#000;stroke-width:8.33px;"/>
            <path d="M1087.85,1651.53L1072.69,1625.28" style="fill:none;stroke:#000;stroke-width:8.33px;"/>
            <path d="M628.72,856.319L613.56,830.062" style="fill:none;stroke:#000;stroke-width:8.33px;"/>
            <path d="M466.201,1462.79L439.944,1477.95" style="fill:none;stroke:#000;stroke-width:8.33px;"/>
            <path d="M1261.46,1003.65L1235.21,1018.81" style="fill:none;stroke:#000;stroke-width:8.33px;"/>
            <path d="M850.704,1715.09L850.704,1684.78" style="fill:none;stroke:#000;stroke-width:8.33px;"/>
            <path d="M850.704,796.822L850.704,766.503" style="fill:none;stroke:#000;stroke-width:8.33px;"/>
            <path d="M406.736,1240.8L376.417,1240.8" style="fill:none;stroke:#000;stroke-width:8.33px;"/>
            <path d="M1324.99,1240.8L1294.67,1240.8" style="fill:none;stroke:#000;stroke-width:8.33px;"/>
        </g>
        <g id="Root-Markers" serif:id="Root Markers">
            <path id="_1" serif:id="1" d="M1035.75,920.9L1016.77,1026.37L953.899,990.074L1035.75,920.9ZM1007.47,969.895L987.093,987.111L1002.74,996.145L1007.47,969.895Z" style="fill:#a28481;"/>
        </g>
        <g id="Notes">
            <path id="_6" serif:id="6" sound="Font/3-Mid-Gb" d="M919.712,1757.27C897.722,1795.36 848.949,1808.43 810.862,1786.44C772.775,1764.45 759.707,1715.67 781.696,1677.59C803.685,1639.5 852.459,1626.43 890.546,1648.42C928.632,1670.41 941.701,1719.19 919.712,1757.27Z" style="fill:#a28481;stroke:#fff;stroke-width:24px;"/>
            <path id="_11" serif:id="1" sound="Font/3-Low-Db" d="M1153.64,880.039C1131.65,918.125 1082.87,931.193 1044.79,909.205C1006.7,887.216 993.632,838.443 1015.62,800.357C1037.61,762.271 1086.38,749.203 1124.47,771.191C1162.56,793.18 1175.63,841.953 1153.64,880.039Z" style="fill:#a28481;stroke:#fff;stroke-width:24px;"/>
        </g>
        <g id="Treble-Marker" serif:id="Treble Marker">
            <g id="_111" serif:id="11" sound="Font/3-High-B">
                <path id="_112" serif:id="11" d="M682.187,874.332C660.198,912.417 611.424,925.486 573.337,903.497C535.251,881.508 522.182,832.736 544.171,794.65C566.16,756.564 614.934,743.495 653.021,765.484C691.107,787.473 704.176,836.246 682.187,874.332Z" style="fill:#fff;stroke:#fff;stroke-width:33.33px;"/>
                <circle id="_11a" serif:id="11a" cx="613.179" cy="834.491" r="64" style="fill:#fff;stroke:#a28481;stroke-width:16.67px;"/>
            </g>
        </g>
    </g>
    </a>
    <g id="Songs">
        <g id="song-9-petals" serif:id="song 9 petals">
            <g id="W2C1" serif:id="W2C" sound="Song/09-Petals-W2C">
                <path d="M1579.96,1141.93C1560.56,1141.82 1541.15,1149.3 1526.57,1164.29L1500.81,1190.78C1487.45,1204.52 1480.51,1222.15 1479.95,1239.93L1580.62,1239.75L1579.96,1141.93Z" style="fill:#a28481;stroke:#fff;stroke-width:1.67px;"/>
                <path d="M1679.88,1239.57C1679.38,1220.98 1671.92,1202.56 1657.54,1188.59L1631.06,1162.83C1616.81,1148.98 1598.39,1142.03 1579.96,1141.93L1580.62,1239.75L1679.88,1239.57Z" style="fill:#a28481;stroke:#fff;stroke-width:1.67px;"/>
                <path d="M1579.96,1238.93L1579.96,1142.93" style="fill:none;stroke:#a28481;stroke-width:4.17px;stroke-linecap:butt;"/>
                <path id="q2" d="M1595.21,1238.31L1665.22,1238.31C1657.55,1232.6 1642.86,1223.16 1633.08,1223.16C1622.61,1223.16 1603.73,1233.36 1595.21,1238.31ZM1579.91,1153.74L1579.91,1222.79C1580.02,1222.97 1580.12,1223.14 1580.22,1223.31C1585.16,1214.79 1595.36,1195.91 1595.36,1185.44C1595.36,1174.9 1585.01,1159.75 1580.22,1153.34C1580.12,1153.47 1580.02,1153.6 1579.91,1153.74ZM1590.78,1227.71C1605.32,1223.89 1622.06,1217.87 1628.29,1211.61C1635.77,1204.16 1639.13,1186.11 1640.29,1178.2C1630.86,1179.57 1613.81,1183.3 1606.91,1190.23C1600.65,1196.46 1594.63,1213.2 1590.78,1227.71Z" style="fill:#e7e7e7;"/>
                <path id="q3" d="M1579.91,1222.79L1579.91,1153.74C1575,1160.37 1565.07,1175.12 1565.07,1185.44C1565.07,1195.7 1574.87,1214.04 1579.91,1222.79ZM1495.21,1238.31L1565.22,1238.31C1556.7,1233.36 1537.82,1223.16 1527.35,1223.16C1516.81,1223.16 1501.63,1233.54 1495.21,1238.31ZM1532.14,1211.61C1538.37,1217.87 1555.11,1223.89 1569.65,1227.71C1565.8,1213.2 1559.78,1196.46 1553.52,1190.23C1546.07,1182.78 1528.05,1179.39 1520.14,1178.23C1521.3,1186.14 1524.69,1204.16 1532.14,1211.61Z" style="fill:#e7e7e7;"/>
            </g>
            <g id="W2C2" sound="Song/09-Petals-W2C2">
                <path d="M1581.4,1339.93C1600.31,1339.66 1619.12,1332.19 1633.34,1317.57L1659.1,1291.09C1673.55,1276.22 1680.49,1256.81 1679.97,1237.59L1580.71,1237.77L1581.4,1339.93Z" style="fill:#78608c;stroke:#fff;stroke-width:1.67px;"/>
                <path d="M1480.04,1237.95C1479.41,1257.98 1486.88,1278.21 1502.37,1293.27L1528.85,1319.03C1543.47,1333.25 1562.49,1340.19 1581.4,1339.93L1580.71,1237.77L1480.04,1237.95Z" style="fill:#78608c;stroke:#fff;stroke-width:1.67px;"/>
                <path d="M1581.71,1338.93L1581.41,1238.58" style="fill:none;stroke:#78608c;stroke-width:4.17px;stroke-linecap:butt;"/>
                <path id="q4" d="M1565.71,1238.31L1495.71,1238.31C1503.38,1244.02 1518.07,1253.46 1527.84,1253.46C1538.32,1253.46 1557.19,1243.26 1565.71,1238.31ZM1580.41,1322.87L1580.41,1253.82C1575.36,1262.57 1565.56,1280.91 1565.56,1291.18C1565.56,1301.5 1575.5,1316.24 1580.41,1322.87ZM1570.14,1248.9C1555.6,1252.72 1538.87,1258.74 1532.64,1265C1525.15,1272.45 1521.79,1290.5 1520.63,1298.41C1530.07,1297.04 1547.11,1293.31 1554.02,1286.38C1560.28,1280.15 1566.29,1263.41 1570.14,1248.9Z" style="fill:#e7e7e7;"/>
                <path id="q1" d="M1665.71,1238.31L1595.71,1238.31C1604.23,1243.26 1623.1,1253.46 1633.58,1253.46C1644.12,1253.46 1659.3,1243.07 1665.71,1238.31ZM1580.41,1253.82L1580.41,1322.87C1580.51,1323.01 1580.61,1323.14 1580.71,1323.28C1585.51,1316.86 1595.86,1301.71 1595.86,1291.18C1595.86,1280.7 1585.66,1261.83 1580.71,1253.3C1580.61,1253.47 1580.51,1253.65 1580.41,1253.82ZM1628.78,1265C1622.55,1258.74 1605.82,1252.72 1591.28,1248.9C1595.13,1263.41 1601.14,1280.15 1607.4,1286.38C1614.86,1293.83 1632.88,1297.22 1640.79,1298.38C1639.63,1290.47 1636.24,1272.45 1628.78,1265Z" style="fill:#e7e7e7;"/>
            </g>
        </g>
    </g>
    <g id="Map">
        <g id="Frame">
            <rect x="754.5" y="42.472" width="190" height="190" style="fill:#fff;"/>
            <rect x="754.5" y="42.472" width="190" height="190" style="fill:none;stroke:#000;stroke-width:1.17px;stroke-linejoin:bevel;"/>
            <rect x="806.375" y="94.347" width="86.25" height="86.25" style="fill:none;stroke:#000;stroke-width:1.25px;stroke-linejoin:bevel;"/>
            <path d="M892.625,94.347L944.5,42.68" style="fill:none;stroke:#000;stroke-width:1.25px;stroke-linejoin:bevel;"/>
            <path d="M806.375,94.347L754.916,42.68" style="fill:none;stroke:#000;stroke-width:1.25px;stroke-linejoin:bevel;"/>
            <path d="M806.375,180.597L754.5,232.472" style="fill:none;stroke:#000;stroke-width:1.25px;stroke-linejoin:bevel;"/>
            <path d="M892.625,180.597L944.5,232.472" style="fill:none;stroke:#000;stroke-width:1.25px;stroke-linejoin:bevel;"/>
        </g>
        <g id="Dots">
            <circle cx="754.5" cy="232.43" r="1.5" style="stroke:#000;stroke-width:1.25px;stroke-linejoin:bevel;"/>
            <circle cx="849.197" cy="232.555" r="1.5" style="stroke:#000;stroke-width:1.25px;stroke-linejoin:bevel;"/>
            <circle cx="944.5" cy="232.43" r="1.5" style="stroke:#000;stroke-width:1.25px;stroke-linejoin:bevel;"/>
            <circle cx="916.846" cy="204.596" r="1.5" style="stroke:#000;stroke-width:1.25px;stroke-linejoin:bevel;"/>
            <circle cx="892.625" cy="180.43" r="1.5" style="stroke:#000;stroke-width:1.25px;stroke-linejoin:bevel;"/>
            <circle cx="892.197" cy="137.555" r="1.5" style="stroke:#000;stroke-width:1.25px;stroke-linejoin:bevel;"/>
            <circle cx="892.322" cy="94.305" r="1.5" style="stroke:#000;stroke-width:1.25px;stroke-linejoin:bevel;"/>
            <circle cx="916.76" cy="70.096" r="1.5" style="stroke:#000;stroke-width:1.25px;stroke-linejoin:bevel;"/>
            <circle cx="849.197" cy="94.305" r="1.5" style="stroke:#000;stroke-width:1.25px;stroke-linejoin:bevel;"/>
            <circle cx="806.072" cy="94.43" r="1.5" style="stroke:#000;stroke-width:1.25px;stroke-linejoin:bevel;"/>
            <circle cx="849.5" cy="42.43" r="1.5" style="stroke:#000;stroke-width:1.25px;stroke-linejoin:bevel;"/>
            <circle cx="754.5" cy="42.472" r="1.5" style="stroke:#000;stroke-width:1.25px;stroke-linejoin:bevel;"/>
            <circle cx="782.346" cy="70.43" r="1.5" style="stroke:#000;stroke-width:1.25px;stroke-linejoin:bevel;"/>
            <circle cx="754.5" cy="137.472" r="1.5" style="stroke:#000;stroke-width:1.25px;stroke-linejoin:bevel;"/>
            <circle cx="806.375" cy="137.472" r="1.5" style="stroke:#000;stroke-width:1.25px;stroke-linejoin:bevel;"/>
            <circle cx="849" cy="180.597" r="1.5" style="stroke:#000;stroke-width:1.25px;stroke-linejoin:bevel;"/>
            <circle cx="806.346" cy="180.43" r="1.5" style="stroke:#000;stroke-width:1.25px;stroke-linejoin:bevel;"/>
            <circle cx="782.146" cy="204.93" r="1.5" style="stroke:#000;stroke-width:1.25px;stroke-linejoin:bevel;"/>
            <circle cx="944.5" cy="137.472" r="1.5" style="stroke:#000;stroke-width:1.25px;stroke-linejoin:bevel;"/>
            <circle cx="944.494" cy="42.579" r="1.5" style="stroke:#000;stroke-width:1.25px;stroke-linejoin:bevel;"/>
        </g>
        <g>
            <path d="M944.5,232.097L917,205.055L944.5,232.097Z" style="fill:none;stroke:#f5cd6c;stroke-width:5.99px;"/>
            <path d="M918.5,207.097L891,180.055L918.5,207.097Z" style="fill:none;stroke:#78608c;stroke-width:5.99px;"/>
        </g>
        <g id="_9" serif:id="9">
            <circle cx="915" cy="202.826" r="15.75" style="fill:#fff;stroke:#fff;stroke-width:1.46px;"/>
            <g id="_8-petals" serif:id="8 petals">
                <path id="q41" serif:id="q4" d="M912.354,203.451L900,203.451C901.353,202.443 903.945,200.777 905.67,200.777C907.519,200.777 910.85,202.577 912.354,203.451ZM914.947,188.527L914.947,200.712C914.056,199.168 912.327,195.933 912.327,194.121C912.327,192.299 914.08,189.697 914.947,188.527ZM913.135,201.58C910.57,200.907 907.616,199.845 906.516,198.74C905.196,197.425 904.603,194.239 904.398,192.843C906.064,193.086 909.071,193.743 910.289,194.967C911.394,196.066 912.456,199.02 913.135,201.58Z" style="fill:#733c52;"/>
                <path id="q11" serif:id="q1" d="M930,203.451L917.646,203.451C919.15,202.577 922.481,200.777 924.33,200.777C926.189,200.777 928.868,202.61 930,203.451ZM914.947,200.712L914.947,188.527C914.965,188.503 914.983,188.479 915,188.456C915.846,189.588 917.673,192.261 917.673,194.121C917.673,195.969 915.873,199.3 915,200.804C914.983,200.774 914.965,200.744 914.947,200.712ZM923.484,198.74C922.384,199.845 919.43,200.907 916.865,201.58C917.544,199.02 918.606,196.066 919.711,194.967C921.026,193.652 924.206,193.053 925.602,192.849C925.397,194.245 924.799,197.425 923.484,198.74Z" style="fill:#733c52;"/>
                <path id="q21" serif:id="q2" d="M917.646,203.451L930,203.451C928.647,204.458 926.055,206.124 924.33,206.124C922.481,206.124 919.15,204.324 917.646,203.451ZM914.947,218.374L914.947,206.189C914.965,206.158 914.983,206.127 915,206.097C915.873,207.601 917.673,210.932 917.673,212.78C917.673,214.64 915.846,217.313 915,218.445C914.983,218.422 914.965,218.398 914.947,218.374ZM916.865,205.321C919.43,205.995 922.384,207.056 923.484,208.161C924.804,209.476 925.397,212.662 925.602,214.058C923.936,213.815 920.929,213.158 919.711,211.934C918.606,210.835 917.544,207.881 916.865,205.321Z" style="fill:#733c52;"/>
                <path id="q31" serif:id="q3" d="M914.947,206.189L914.947,218.374C914.08,217.204 912.327,214.602 912.327,212.78C912.327,210.968 914.056,207.733 914.947,206.189ZM900,203.451L912.354,203.451C910.85,204.324 907.519,206.124 905.67,206.124C903.811,206.124 901.132,204.291 900,203.451ZM906.516,208.161C907.616,207.056 910.57,205.995 913.135,205.321C912.456,207.881 911.394,210.835 910.289,211.934C908.974,213.249 905.794,213.848 904.398,214.052C904.603,212.656 905.201,209.476 906.516,208.161Z" style="fill:#733c52;"/>
            </g>
        </g>
    </g>
</svg>
