<?xml version="1.0" encoding="UTF-8" standalone="no"?>
<!DOCTYPE svg PUBLIC "-//W3C//DTD SVG 1.1//EN" "http://www.w3.org/Graphics/SVG/1.1/DTD/svg11.dtd">
<svg width="100%" height="100%" viewBox="0 0 1701 2481" version="1.1" xmlns="http://www.w3.org/2000/svg" xmlns:xlink="http://www.w3.org/1999/xlink" xml:space="preserve" xmlns:serif="http://www.serif.com/" style="fill-rule:evenodd;clip-rule:evenodd;stroke-linecap:round;stroke-linejoin:round;stroke-miterlimit:1.5;">
    <rect id="X" x="0.552" y="0.848" width="1700" height="2480" style="fill:none;"/>
    <g id="Fields" opacity="0.2">
        <path id="_7" serif:id="7" sound="Field/01-Zen" d="M498.039,1586.75L10.931,2060.96L10.931,2470.34L514.945,2470.43L717.574,1716.7C631.474,1692.35 562.838,1651.97 498.039,1586.75Z" style="fill:#ea8d58;stroke:#767676;stroke-width:8.33px;"/>
        <path id="_2" serif:id="2" sound="Field/02-Grooves" d="M1327.98,1113.85L1690.55,1017.32L1690.55,418.224L1204.46,896.434C1260.79,953.917 1302.29,1023.86 1327.98,1113.85Z" style="fill:#b1865b;stroke:#767676;stroke-width:8.33px;"/>
        <path id="_0" serif:id="0" sound="Field/10-Orbitals" d="M977.932,763.489L1181.56,10.752L518.096,10.848L721.724,763.512C807.964,741.619 893.401,740.714 977.932,763.489Z" style="fill:#967b7b;stroke:#767676;stroke-width:8.33px;"/>
    </g>
    <g id="SG">
        <g id="Meta-Ring">
            <path d="M1262.62,1480.74C1131.3,1708.18 840.053,1786.23 612.629,1654.93C385.205,1523.62 307.175,1232.37 438.488,1004.93C569.802,777.486 861.051,699.434 1088.47,830.737C1315.9,962.041 1393.93,1253.3 1262.62,1480.74Z" style="fill:none;stroke:#000;stroke-width:0.48px;stroke-linecap:square;"/>
            <path d="M1262.62,1480.74L1236.27,1465.53" style="fill:none;stroke:#000;stroke-width:0.48px;stroke-linecap:square;"/>
            <path d="M464.831,1020.14L438.488,1004.93" style="fill:none;stroke:#000;stroke-width:0.48px;stroke-linecap:square;"/>
            <path d="M627.838,1628.59L612.629,1654.93" style="fill:none;stroke:#000;stroke-width:0.48px;stroke-linecap:square;"/>
            <path d="M1088.47,830.737L1073.27,857.08" style="fill:none;stroke:#000;stroke-width:0.48px;stroke-linecap:square;"/>
            <path d="M1088.46,1654.91L1073.26,1628.57" style="fill:none;stroke:#000;stroke-width:0.48px;stroke-linecap:square;"/>
            <path d="M627.848,857.097L612.639,830.755" style="fill:none;stroke:#000;stroke-width:0.48px;stroke-linecap:square;"/>
            <path d="M464.801,1465.55L438.458,1480.76" style="fill:none;stroke:#000;stroke-width:0.48px;stroke-linecap:square;"/>
            <path d="M1262.64,1004.91L1236.3,1020.12" style="fill:none;stroke:#000;stroke-width:0.48px;stroke-linecap:square;"/>
            <path d="M850.552,1718.68L850.552,1688.26" style="fill:none;stroke:#000;stroke-width:0.48px;stroke-linecap:square;"/>
            <path d="M850.552,797.406L850.552,766.988" style="fill:none;stroke:#000;stroke-width:0.48px;stroke-linecap:square;"/>
            <path d="M405.143,1242.83L374.726,1242.83" style="fill:none;stroke:#000;stroke-width:0.48px;stroke-linecap:square;"/>
            <path d="M1326.38,1242.83L1295.96,1242.83" style="fill:none;stroke:#000;stroke-width:0.48px;stroke-linecap:square;"/>
        </g>
        <g id="Ring-Backers" serif:id="Ring Backers">
            <circle id="_7-Backer" serif:id="7 Backer" cx="616.095" cy="1642.85" r="92" style="fill:#fff;"/>
            <circle id="_4-Backer" serif:id="4 Backer" cx="1257.15" cy="1471.07" r="92" style="fill:#fff;"/>
            <circle id="_2-Backer" serif:id="2 Backer" cx="1258.15" cy="1011.94" r="92" style="fill:#fff;"/>
            <circle id="_0-Backer" serif:id="0 Backer" cx="852.285" cy="775.017" r="92" style="fill:#fff;"/>
        </g>
        <g id="Child-Rings" serif:id="Child Rings">
            <a href="X2W.svg">
            <g id="_71" serif:id="7" sound="Font/2-Low-C,Font/2-Mid-A,Font/2-Mid-B,Font/2-High-G">
                <g id="Ring--Sounder--Background" serif:id="Ring, Sounder, Background">
                    <circle id="Sounder" cx="616.095" cy="1642.85" r="92" style="fill:#fff;"/>
                    <g id="Ring">
                        <path d="M695.211,1689.17C669.999,1732.84 614.079,1747.82 570.414,1722.61C526.749,1697.4 511.767,1641.48 536.979,1597.81C562.191,1554.14 618.111,1539.16 661.776,1564.37C705.442,1589.58 720.424,1645.5 695.211,1689.17Z" style="fill:none;stroke:#000;stroke-width:2.17px;"/>
                        <path d="M695.211,1689.17L690.154,1686.25" style="fill:none;stroke:#000;stroke-width:2.17px;"/>
                        <path d="M542.037,1600.73L536.979,1597.81" style="fill:none;stroke:#000;stroke-width:2.17px;"/>
                        <path d="M573.334,1717.55L570.414,1722.61" style="fill:none;stroke:#000;stroke-width:2.17px;"/>
                        <path d="M661.776,1564.37L658.856,1569.42" style="fill:none;stroke:#000;stroke-width:2.17px;"/>
                        <path d="M661.775,1722.61L658.854,1717.55" style="fill:none;stroke:#000;stroke-width:2.17px;"/>
                        <path d="M573.336,1569.43L570.416,1564.37" style="fill:none;stroke:#000;stroke-width:2.17px;"/>
                        <path d="M542.031,1686.25L536.973,1689.17" style="fill:none;stroke:#000;stroke-width:2.17px;"/>
                        <path d="M695.217,1597.81L690.159,1600.73" style="fill:none;stroke:#000;stroke-width:2.17px;"/>
                        <path d="M616.095,1734.85L616.095,1729.01" style="fill:none;stroke:#000;stroke-width:2.17px;"/>
                        <path d="M616.095,1557.97L616.095,1552.13" style="fill:none;stroke:#000;stroke-width:2.17px;"/>
                        <path d="M530.577,1643.49L524.737,1643.49" style="fill:none;stroke:#000;stroke-width:2.17px;"/>
                        <path d="M707.454,1643.49L701.614,1643.49" style="fill:none;stroke:#000;stroke-width:2.17px;"/>
                    </g>
                </g>
                <g id="Notes">
                    <path id="_11" serif:id="11" d="M583.635,1571.9C579.399,1579.24 570.004,1581.75 562.668,1577.52C555.332,1573.28 552.814,1563.89 557.05,1556.55C561.286,1549.21 570.681,1546.7 578.017,1550.93C585.353,1555.17 587.871,1564.56 583.635,1571.9Z" style="fill:#eea25f;stroke:#fff;stroke-width:5.21px;"/>
                    <path id="_9" serif:id="9" d="M538.029,1651.97C533.793,1659.3 524.398,1661.82 517.062,1657.58C509.726,1653.35 507.208,1643.95 511.444,1636.62C515.68,1629.28 525.075,1626.76 532.411,1631C539.747,1635.24 542.265,1644.63 538.029,1651.97Z" style="fill:#eea25f;stroke:#fff;stroke-width:5.21px;"/>
                    <path id="_01" serif:id="0" d="M629.388,1559.8C625.152,1567.14 615.757,1569.65 608.421,1565.42C601.084,1561.18 598.567,1551.79 602.803,1544.45C607.038,1537.12 616.433,1534.6 623.77,1538.84C631.106,1543.07 633.623,1552.47 629.388,1559.8Z" style="fill:#eea25f;stroke:#fff;stroke-width:5.21px;"/>
                </g>
                <g id="Root-Marker" serif:id="Root Marker">
                    <path id="_02" serif:id="0" d="M616.095,1576.61L622.673,1594.88L609.517,1594.88L616.095,1576.61ZM616.095,1586.86L614.458,1591.41L617.732,1591.41L616.095,1586.86Z" style="fill:#eea25f;"/>
                </g>
                <g id="Treble-Note" serif:id="Treble Note">
                    <g id="_72" serif:id="7">
                        <path id="_7u" serif:id="7u" d="M584.349,1730.18C580.062,1737.6 570.554,1740.15 563.128,1735.86C555.703,1731.58 553.155,1722.07 557.442,1714.64C561.729,1707.22 571.238,1704.67 578.663,1708.96C586.088,1713.24 588.636,1722.75 584.349,1730.18Z" style="fill:#fff;stroke:#fff;stroke-width:6.5px;"/>
                        <circle id="_7a" serif:id="7a" cx="570.896" cy="1722.41" r="12.477" style="fill:#fff;stroke:#eea25f;stroke-width:3.25px;"/>
                    </g>
                </g>
            </g>
            </a>
            <a href="Xrefocus.svg">
            <g id="_4" serif:id="4" sound="Font/1-Low-E,Font/1-Mid-G,Font/1-Mid-C,Font/1-High-D">
                <g id="Ring--Sounder--Background1" serif:id="Ring, Sounder, Background">
                    <circle id="Sounder1" serif:id="Sounder" cx="1257.15" cy="1471.07" r="92" style="fill:#fff;"/>
                    <g id="Ring1" serif:id="Ring">
                        <path d="M1336.26,1517.39C1311.05,1561.06 1255.13,1576.04 1211.47,1550.83C1167.8,1525.62 1152.82,1469.7 1178.03,1426.03C1203.24,1382.36 1259.16,1367.38 1302.83,1392.59C1346.49,1417.8 1361.48,1473.72 1336.26,1517.39Z" style="fill:none;stroke:#000;stroke-width:2.17px;"/>
                        <path d="M1336.26,1517.39L1331.21,1514.47" style="fill:none;stroke:#000;stroke-width:2.17px;"/>
                        <path d="M1183.09,1428.95L1178.03,1426.03" style="fill:none;stroke:#000;stroke-width:2.17px;"/>
                        <path d="M1214.39,1545.77L1211.47,1550.83" style="fill:none;stroke:#000;stroke-width:2.17px;"/>
                        <path d="M1302.83,1392.59L1299.91,1397.64" style="fill:none;stroke:#000;stroke-width:2.17px;"/>
                        <path d="M1302.83,1550.83L1299.91,1545.77" style="fill:none;stroke:#000;stroke-width:2.17px;"/>
                        <path d="M1214.39,1397.65L1211.47,1392.59" style="fill:none;stroke:#000;stroke-width:2.17px;"/>
                        <path d="M1183.08,1514.47L1178.03,1517.39" style="fill:none;stroke:#000;stroke-width:2.17px;"/>
                        <path d="M1336.27,1426.03L1331.21,1428.95" style="fill:none;stroke:#000;stroke-width:2.17px;"/>
                        <path d="M1257.15,1563.07L1257.15,1557.23" style="fill:none;stroke:#000;stroke-width:2.17px;"/>
                        <path d="M1257.15,1386.19L1257.15,1380.35" style="fill:none;stroke:#000;stroke-width:2.17px;"/>
                        <path d="M1171.63,1471.71L1165.79,1471.71" style="fill:none;stroke:#000;stroke-width:2.17px;"/>
                        <path d="M1348.51,1471.71L1342.67,1471.71" style="fill:none;stroke:#000;stroke-width:2.17px;"/>
                    </g>
                </g>
                <g id="Notes1" serif:id="Notes">
                    <path id="_73" serif:id="7" d="M1225.58,1557.26C1221.34,1564.6 1211.95,1567.12 1204.61,1562.88C1197.27,1558.65 1194.76,1549.25 1198.99,1541.91C1203.23,1534.58 1212.62,1532.06 1219.96,1536.3C1227.3,1540.53 1229.81,1549.93 1225.58,1557.26Z" style="fill:#df4c44;stroke:#fff;stroke-width:5.21px;"/>
                    <path id="_41" serif:id="4" d="M1348.94,1524.56C1344.71,1531.89 1335.31,1534.41 1327.98,1530.17C1320.64,1525.94 1318.12,1516.55 1322.36,1509.21C1326.59,1501.87 1335.99,1499.36 1343.32,1503.59C1350.66,1507.83 1353.18,1517.22 1348.94,1524.56Z" style="fill:#df4c44;stroke:#fff;stroke-width:5.21px;"/>
                    <path id="_03" serif:id="0" d="M1270.44,1388.02C1266.2,1395.36 1256.81,1397.88 1249.47,1393.64C1242.14,1389.4 1239.62,1380.01 1243.86,1372.67C1248.09,1365.34 1257.49,1362.82 1264.82,1367.06C1272.16,1371.29 1274.67,1380.69 1270.44,1388.02Z" style="fill:#df4c44;stroke:#fff;stroke-width:5.21px;"/>
                </g>
                <g id="Root-Marker1" serif:id="Root Marker">
                    <g id="_42" serif:id="4">
                        <path d="M1314.98,1502.69L1295.86,1499.26L1302.44,1487.86L1314.98,1502.69Z" style="fill:#fff;"/>
                        <path d="M1314.98,1502.69L1295.86,1499.26L1302.44,1487.86L1314.98,1502.69ZM1306.1,1497.57L1302.98,1493.88L1301.34,1496.71L1306.1,1497.57Z" style="fill:#df4c44;"/>
                    </g>
                </g>
                <g id="Treble-Note1" serif:id="Treble Note">
                    <g id="_21" serif:id="2">
                        <path id="_2u" serif:id="2u" d="M1350.26,1433.57C1345.97,1441 1336.46,1443.54 1329.04,1439.26C1321.61,1434.97 1319.06,1425.46 1323.35,1418.04C1327.64,1410.61 1337.14,1408.06 1344.57,1412.35C1352,1416.64 1354.54,1426.15 1350.26,1433.57Z" style="fill:#fff;stroke:#fff;stroke-width:6.5px;"/>
                        <circle id="_2a" serif:id="2a" cx="1336.8" cy="1425.8" r="12.477" style="fill:#fff;stroke:#df4c44;stroke-width:3.25px;"/>
                    </g>
                </g>
            </g>
            </a>
            <a href="X2Y.svg">
            <g id="_22" serif:id="2" sound="Font/1-Low-Gb,Font/1-Mid-E,Font/1-Mid-D,Font/1-High-B">
                <g id="Ring--Sounder--Background2" serif:id="Ring, Sounder, Background">
                    <circle id="Sounder2" serif:id="Sounder" cx="1258.15" cy="1011.94" r="92" style="fill:#fff;"/>
                    <g id="Ring2" serif:id="Ring">
                        <path d="M1337.26,1058.25C1312.05,1101.92 1256.13,1116.91 1212.47,1091.7C1168.8,1066.49 1153.82,1010.57 1179.03,966.898C1204.24,923.229 1260.16,908.243 1303.83,933.453C1347.49,958.663 1362.48,1014.58 1337.26,1058.25Z" style="fill:none;stroke:#000;stroke-width:2.17px;"/>
                        <path d="M1337.26,1058.25L1332.21,1055.33" style="fill:none;stroke:#000;stroke-width:2.17px;"/>
                        <path d="M1184.09,969.818L1179.03,966.898" style="fill:none;stroke:#000;stroke-width:2.17px;"/>
                        <path d="M1215.39,1086.64L1212.47,1091.7" style="fill:none;stroke:#000;stroke-width:2.17px;"/>
                        <path d="M1303.83,933.453L1300.91,938.511" style="fill:none;stroke:#000;stroke-width:2.17px;"/>
                        <path d="M1303.83,1091.69L1300.91,1086.64" style="fill:none;stroke:#000;stroke-width:2.17px;"/>
                        <path d="M1215.39,938.514L1212.47,933.457" style="fill:none;stroke:#000;stroke-width:2.17px;"/>
                        <path d="M1184.08,1055.34L1179.03,1058.26" style="fill:none;stroke:#000;stroke-width:2.17px;"/>
                        <path d="M1337.27,966.894L1332.21,969.815" style="fill:none;stroke:#000;stroke-width:2.17px;"/>
                        <path d="M1258.15,1103.94L1258.15,1098.1" style="fill:none;stroke:#000;stroke-width:2.17px;"/>
                        <path d="M1258.15,927.054L1258.15,921.213" style="fill:none;stroke:#000;stroke-width:2.17px;"/>
                        <path d="M1172.63,1012.58L1166.79,1012.58" style="fill:none;stroke:#000;stroke-width:2.17px;"/>
                        <path d="M1349.51,1012.58L1343.67,1012.58" style="fill:none;stroke:#000;stroke-width:2.17px;"/>
                    </g>
                </g>
                <g id="Notes2" serif:id="Notes">
                    <path id="_6" serif:id="6" d="M1271.44,1111.06C1267.2,1118.4 1257.81,1120.92 1250.47,1116.68C1243.14,1112.45 1240.62,1103.05 1244.86,1095.71C1249.09,1088.38 1258.49,1085.86 1265.82,1090.1C1273.16,1094.33 1275.67,1103.73 1271.44,1111.06Z" style="fill:#a19963;stroke:#fff;stroke-width:5.21px;"/>
                    <path id="_43" serif:id="4" d="M1349.94,1065.42C1345.71,1072.76 1336.31,1075.28 1328.98,1071.04C1321.64,1066.81 1319.12,1057.41 1323.36,1050.07C1327.59,1042.74 1336.99,1040.22 1344.32,1044.46C1351.66,1048.69 1354.18,1058.09 1349.94,1065.42Z" style="fill:#a19963;stroke:#fff;stroke-width:5.21px;"/>
                    <path id="_23" serif:id="2" d="M1349.94,974.794C1345.7,982.13 1336.31,984.647 1328.97,980.412C1321.63,976.176 1319.12,966.781 1323.35,959.445C1327.59,952.108 1336.98,949.591 1344.32,953.827C1351.66,958.062 1354.17,967.457 1349.94,974.794Z" style="fill:#a19963;stroke:#fff;stroke-width:5.21px;"/>
                </g>
                <g id="Root-Marker2" serif:id="Root Marker">
                    <path id="_61" serif:id="6" d="M1258.15,1079.27L1251.57,1061L1264.73,1061L1258.15,1079.27ZM1258.15,1069.02L1259.78,1064.47L1256.51,1064.47L1258.15,1069.02Z" style="fill:#a19963;"/>
                </g>
                <g id="Treble-Note2" serif:id="Treble Note">
                    <g id="_111" serif:id="11">
                        <path id="_112" serif:id="11" d="M1225.5,940.22C1221.21,947.645 1211.7,950.193 1204.28,945.906C1196.86,941.619 1194.31,932.111 1198.59,924.686C1202.88,917.261 1212.39,914.713 1219.82,919C1227.24,923.287 1229.79,932.795 1225.5,940.22Z" style="fill:#fff;stroke:#fff;stroke-width:6.5px;"/>
                        <circle id="_11a" serif:id="11a" cx="1212.05" cy="932.453" r="12.477" style="fill:#fff;stroke:#a19963;stroke-width:3.25px;"/>
                    </g>
                </g>
            </g>
            </a>
            <a href="X2D.svg">
            <g id="_04" serif:id="0" sound="Font/3-Mid-Gb,Font/3-High-B">
                <g id="Ring--Sounder--Background3" serif:id="Ring, Sounder, Background">
                    <circle id="Sounder3" serif:id="Sounder" cx="852.285" cy="775.017" r="92" style="fill:#fff;"/>
                    <g id="Ring3" serif:id="Ring">
                        <path d="M931.401,821.332C906.189,865.001 850.269,879.987 806.604,854.777C762.938,829.566 747.957,773.645 773.169,729.977C798.381,686.308 854.301,671.322 897.966,696.532C941.632,721.742 956.613,777.663 931.401,821.332Z" style="fill:none;stroke:#000;stroke-width:2.17px;"/>
                        <path d="M931.401,821.332L926.343,818.412" style="fill:none;stroke:#000;stroke-width:2.17px;"/>
                        <path d="M778.227,732.897L773.169,729.977" style="fill:none;stroke:#000;stroke-width:2.17px;"/>
                        <path d="M809.524,849.719L806.604,854.777" style="fill:none;stroke:#000;stroke-width:2.17px;"/>
                        <path d="M897.966,696.532L895.046,701.59" style="fill:none;stroke:#000;stroke-width:2.17px;"/>
                        <path d="M897.964,854.773L895.044,849.716" style="fill:none;stroke:#000;stroke-width:2.17px;"/>
                        <path d="M809.526,701.593L806.606,696.536" style="fill:none;stroke:#000;stroke-width:2.17px;"/>
                        <path d="M778.221,818.415L773.163,821.336" style="fill:none;stroke:#000;stroke-width:2.17px;"/>
                        <path d="M931.407,729.973L926.349,732.894" style="fill:none;stroke:#000;stroke-width:2.17px;"/>
                        <path d="M852.285,867.017L852.285,861.176" style="fill:none;stroke:#000;stroke-width:2.17px;"/>
                        <path d="M852.285,690.133L852.285,684.292" style="fill:none;stroke:#000;stroke-width:2.17px;"/>
                        <path d="M766.767,775.654L760.926,775.654" style="fill:none;stroke:#000;stroke-width:2.17px;"/>
                        <path d="M943.644,775.654L937.803,775.654" style="fill:none;stroke:#000;stroke-width:2.17px;"/>
                    </g>
                </g>
                <g id="Notes3" serif:id="Notes">
                    <path id="_62" serif:id="6" d="M865.578,874.143C861.342,881.479 851.947,883.997 844.611,879.761C837.274,875.525 834.757,866.13 838.993,858.794C843.228,851.458 852.623,848.94 859.96,853.176C867.296,857.412 869.813,866.807 865.578,874.143Z" style="fill:#7e8b8d;stroke:#fff;stroke-width:5.21px;"/>
                </g>
                <g id="Root-Marker3" serif:id="Root Marker">
                </g>
                <g id="Treble-Note3" serif:id="Treble Note">
                    <g id="_113" serif:id="11">
                        <path id="_114" serif:id="11" d="M819.639,703.299C815.352,710.724 805.843,713.272 798.418,708.985C790.993,704.698 788.445,695.19 792.732,687.765C797.019,680.34 806.528,677.792 813.953,682.079C821.378,686.366 823.926,695.874 819.639,703.299Z" style="fill:#fff;stroke:#fff;stroke-width:6.5px;"/>
                        <circle id="_11a1" serif:id="11a" cx="806.185" cy="695.532" r="12.477" style="fill:#fff;stroke:#7e8b8d;stroke-width:3.25px;"/>
                    </g>
                </g>
            </g>
            </a>
        </g>
        <path d="M629.552,1536.78C819.389,1377.49 1005.12,1333.96 1240.55,1370.85" style="fill:none;stroke:#767676;stroke-width:4.17px;"/>
        <path d="M1352,982.468C1422.86,1139.34 1423.61,1262.14 1348.55,1409.85" style="fill:none;stroke:#767676;stroke-width:4.17px;"/>
        <path d="M1190.55,932.453C619.6,1158.04 474.795,939.393 784.861,700.848C433.797,952.797 463.942,1238.18 563.552,1546.85C468.912,1301.5 675.108,1094.17 1190.55,932.453Z" style="fill:none;stroke:#595959;stroke-width:4.17px;"/>
    </g>
    <g id="Songs">
        <g id="song-10-orbitals" serif:id="song 10 orbitals">
            <g id="X1" serif:id="X" sound="Song/10-Orbitals-X">
                <path d="M852.158,122.6C871.071,122.864 889.884,130.337 904.099,144.955L929.856,171.441C944.311,186.305 951.247,205.714 950.733,224.94L851.469,224.762L852.158,122.6Z" style="fill:#df4c44;stroke:#fff;stroke-width:1.67px;"/>
                <path d="M950.733,224.94C950.235,243.531 942.77,261.951 928.397,275.928L901.911,301.685C887.665,315.539 869.244,322.487 850.81,322.587L851.469,224.762L950.733,224.94Z" style="fill:#df4c44;stroke:#fff;stroke-width:1.67px;"/>
                <path d="M852.264,224.94L949.864,224.94" style="fill:none;stroke:#df4c44;stroke-width:4.17px;stroke-linecap:butt;"/>
                <path id="q1" d="M937.007,222.594L932.756,222.594C933.54,193.842 919.423,165.949 893.405,150.93C880.327,143.379 865.933,140.059 851.738,140.539L851.738,136.225C866.678,135.722 881.827,139.217 895.592,147.165C922.973,162.975 937.832,192.331 937.007,222.594ZM927.564,222.594L923.783,222.594C930.303,186.77 905.103,157.129 866.526,155.921C861.562,155.765 856.613,156.087 851.738,156.843L851.738,153.382C856.863,152.588 862.067,152.249 867.287,152.412C907.902,153.683 934.425,184.878 927.564,222.594ZM914.038,222.594L910.938,222.594C913.901,214.059 915.037,205.39 913.93,197.181C910.255,169.911 883.114,157.356 851.738,167.178L851.738,164.257C884.76,153.925 913.316,167.141 917.19,195.842C918.355,204.483 917.159,213.609 914.038,222.594ZM900.478,222.594L898.056,222.594C904.023,207.144 904.389,191.803 897.738,181.076C889.043,167.051 870.762,164.751 851.738,173.318L851.738,170.717C871.754,161.707 890.988,164.128 900.138,178.885C907.139,190.182 906.758,206.331 900.478,222.594ZM890.244,222.594L888.338,222.594C894.83,202.147 891.643,182.985 879.088,175.734C871.374,171.28 861.534,172.138 851.738,177.137L851.738,174.734C862.042,169.48 872.392,168.581 880.507,173.267C893.73,180.896 897.081,201.067 890.244,222.594ZM883.517,222.594L881.947,222.594C886.746,198.937 877.709,179.506 861.514,179.001C858.265,178.899 854.971,179.565 851.738,180.886L851.738,178.676C855.133,177.291 858.591,176.592 862.001,176.698C879.054,177.238 888.573,197.697 883.517,222.594Z" style="fill:#e7e7e7;"/>
                <path id="q2" d="M851.738,308.98L851.738,304.66C879.31,303.934 906.213,288.865 921.368,262.618C928.694,249.928 932.385,236.165 932.756,222.594L937.007,222.594C936.618,236.88 932.733,251.368 925.02,264.728C909.068,292.349 880.755,308.212 851.738,308.98ZM851.738,291.889L851.738,288.424C885.775,283.401 916.309,257.187 923.337,224.824C923.5,224.078 923.648,223.334 923.783,222.594L927.564,222.594C927.422,223.374 927.266,224.157 927.095,224.943C919.691,259.011 887.561,286.596 851.738,291.889ZM851.738,281.103L851.738,278.182C854.194,277.434 856.676,276.549 859.176,275.523C883.765,265.432 903.347,244.455 910.938,222.594L914.038,222.594C906.047,245.604 885.434,267.684 859.551,278.309C856.925,279.387 854.318,280.317 851.738,281.103ZM851.738,274.727L851.738,272.125C859.11,268.89 866.608,264.018 873.715,257.56C884.929,247.37 893.283,234.947 898.056,222.594L900.478,222.594C895.457,235.599 886.663,248.677 874.857,259.404C867.381,266.196 859.494,271.322 851.738,274.727ZM851.738,270.74L851.738,268.343C862.403,263.085 873.068,252.891 880.931,239.271C884.114,233.758 886.581,228.129 888.338,222.594L890.244,222.594C888.393,228.421 885.796,234.347 882.446,240.151C874.172,254.477 862.956,265.203 851.738,270.74ZM851.738,266.734L851.738,264.534C865.067,259.434 877.493,243.129 881.752,223.524C881.819,223.213 881.884,222.903 881.947,222.594L883.517,222.594C883.451,222.919 883.382,223.246 883.311,223.573C878.832,244.2 865.76,261.358 851.738,266.734Z" style="fill:#e7e7e7;"/>
            </g>
            <g id="X2D" sound="Song/10-Orbitals-X2D">
                <path d="M850.39,322.594C830.993,322.7 811.582,315.223 797.004,300.233L771.247,273.747C757.88,260.001 750.942,242.369 750.381,224.588L851.049,224.769L850.39,322.594Z" style="fill:#7e8b8d;stroke:#fff;stroke-width:1.67px;"/>
                <path d="M750.381,224.588C749.749,204.55 757.216,184.324 772.706,169.26L799.193,143.503C813.811,129.288 832.825,122.343 851.738,122.607L851.049,224.769L750.381,224.588Z" style="fill:#7e8b8d;stroke:#fff;stroke-width:1.67px;"/>
                <path d="M751.344,224.769L850.344,224.947" style="fill:none;stroke:#7e8b8d;stroke-width:4.17px;stroke-linecap:butt;"/>
                <path id="q4" d="M851.738,136.225L851.738,140.539C824.375,141.463 797.75,156.503 782.706,182.562C775.377,195.255 771.687,209.02 771.318,222.594L767.072,222.594C767.462,208.307 771.347,193.819 779.061,180.459C794.9,153.026 822.931,137.194 851.738,136.225ZM851.738,153.382L851.738,156.843C817.943,162.084 787.73,188.177 780.74,220.352C780.577,221.102 780.428,221.849 780.292,222.594L776.515,222.594C776.658,221.81 776.815,221.025 776.986,220.236C784.342,186.359 816.157,158.895 851.738,153.382ZM851.738,164.257L851.738,167.178C849.477,167.886 847.195,168.71 844.897,169.653C820.305,179.745 800.719,200.729 793.131,222.594L790.031,222.594C798.02,199.578 818.638,177.493 844.522,166.867C846.946,165.872 849.354,165.003 851.738,164.257ZM851.738,170.717L851.738,173.318C844.557,176.552 837.269,181.335 830.352,187.619C819.135,197.811 810.781,210.237 806.01,222.594L803.593,222.594C808.614,209.586 817.409,196.505 829.216,185.779C836.501,179.159 844.175,174.122 851.738,170.717ZM851.738,174.734L851.738,177.137C841.274,182.477 830.861,192.543 823.142,205.908C819.958,211.423 817.489,217.056 815.731,222.594L813.821,222.594C815.671,216.765 818.267,210.837 821.618,205.032C829.747,190.955 840.717,180.354 851.738,174.734ZM851.738,178.676L851.738,180.886C838.635,186.24 826.519,202.349 822.322,221.659C822.254,221.971 822.189,222.283 822.126,222.594L820.552,222.594C820.619,222.266 820.687,221.939 820.759,221.61C825.172,201.271 837.94,184.306 851.738,178.676Z" style="fill:#e7e7e7;"/>
                <path id="q3" d="M767.072,222.594L771.318,222.594C770.536,251.344 784.655,279.233 810.661,294.25C823.558,301.696 837.735,305.028 851.738,304.66L851.738,308.98C836.994,309.37 822.069,305.863 808.492,298.021C781.109,282.214 766.247,252.856 767.072,222.594ZM776.515,222.594L780.292,222.594C773.78,258.415 798.975,288.043 837.554,289.255C842.314,289.405 847.059,289.115 851.738,288.424L851.738,291.889C846.807,292.618 841.806,292.924 836.79,292.767C796.177,291.493 769.659,260.308 776.515,222.594ZM790.031,222.594L793.131,222.594C790.17,231.125 789.036,239.79 790.143,247.995C793.795,275.092 820.616,287.66 851.738,278.182L851.738,281.103C818.973,291.088 790.737,277.861 786.884,249.337C785.718,240.698 786.913,231.575 790.031,222.594ZM803.593,222.594L806.01,222.594C800.047,238.042 799.686,253.381 806.34,264.111C814.941,277.987 832.931,280.381 851.738,272.125L851.738,274.727C831.936,283.422 812.992,280.905 803.935,266.298C796.935,255.002 797.316,238.854 803.593,222.594ZM813.821,222.594L815.731,222.594C809.241,243.038 812.429,262.198 824.986,269.449C832.542,273.812 842.14,273.076 851.738,268.343L851.738,270.74C841.631,275.729 831.523,276.505 823.563,271.909C810.344,264.278 806.991,244.114 813.821,222.594ZM820.552,222.594L822.126,222.594C817.329,246.251 826.366,265.677 842.567,266.182C845.613,266.278 848.699,265.697 851.738,264.534L851.738,266.734C848.534,267.962 845.281,268.575 842.069,268.474C825.017,267.942 815.501,247.491 820.552,222.594Z" style="fill:#e7e7e7;"/>
            </g>
        </g>
        <g id="song-2-grooves" serif:id="song 2 grooves">
            <g id="X2Y" sound="Song/02-Grooves-X2Y">
                <path d="M1567.55,924.847C1548.16,924.952 1528.75,917.476 1514.17,902.486L1488.41,875.999C1475.04,862.253 1468.11,844.621 1467.55,826.84L1568.21,827.021L1567.55,924.847Z" style="fill:#a19963;stroke:#fff;stroke-width:1.67px;"/>
                <path d="M1467.55,826.84C1466.91,806.803 1474.38,786.577 1489.87,771.513L1516.36,745.756C1530.98,731.54 1549.99,724.596 1568.9,724.86L1568.21,827.021L1467.55,826.84Z" style="fill:#a19963;stroke:#fff;stroke-width:1.67px;"/>
                <path d="M1468.51,827.021L1567.51,827.2" style="fill:none;stroke:#a19963;stroke-width:4.17px;stroke-linecap:butt;"/>
                <path id="q31" serif:id="q3" d="M1567.91,912.457C1567.9,912.457 1567.89,912.457 1567.88,912.457C1545.99,912.457 1524.52,903.982 1507.82,887.281C1491.12,870.581 1483.43,849.414 1483.43,827.525C1483.43,827.175 1483.43,826.824 1483.44,826.474L1485.83,826.474C1485.83,826.763 1485.83,827.051 1485.83,827.338C1485.83,847.937 1494.43,869.285 1510.15,885.002C1525.87,900.719 1546.94,908.951 1567.55,908.95C1567.67,908.95 1567.79,908.95 1567.91,908.949L1567.91,912.457ZM1567.91,905.787C1567.87,905.787 1567.84,905.787 1567.8,905.787C1547.62,905.787 1527.83,897.976 1512.44,882.585C1497.05,867.193 1489.97,847.684 1489.97,827.51C1489.97,827.165 1489.97,826.819 1489.98,826.474L1492.18,826.474C1492.18,826.762 1492.18,827.05 1492.18,827.338C1492.18,846.323 1500.11,865.997 1514.59,880.483C1529.08,894.968 1548.51,902.556 1567.49,902.556C1567.63,902.556 1567.77,902.555 1567.91,902.554L1567.91,905.787ZM1567.91,899.117C1567.85,899.117 1567.78,899.117 1567.72,899.117C1549.26,899.117 1531.15,891.971 1517.07,877.887C1502.99,863.804 1496.51,845.954 1496.51,827.495C1496.51,827.154 1496.51,826.814 1496.52,826.474L1498.53,826.474C1498.53,826.762 1498.53,827.05 1498.53,827.337C1498.53,844.709 1505.78,862.711 1519.04,875.965C1532.29,889.218 1550.07,896.161 1567.44,896.161C1567.6,896.161 1567.75,896.16 1567.91,896.159L1567.91,899.117ZM1567.91,892.447C1567.82,892.448 1567.73,892.448 1567.64,892.448C1550.9,892.448 1534.47,885.965 1521.7,873.19C1508.92,860.416 1503.05,844.224 1503.05,827.48C1503.05,827.144 1503.05,826.809 1503.05,826.474L1504.88,826.474C1504.88,826.762 1504.88,827.05 1504.88,827.337C1504.88,843.094 1511.46,859.424 1523.48,871.446C1535.5,883.469 1551.63,889.766 1567.39,889.766C1567.56,889.766 1567.74,889.765 1567.91,889.763L1567.91,892.447ZM1567.91,885.777C1567.8,885.778 1567.68,885.778 1567.56,885.778C1552.53,885.778 1537.79,879.96 1526.32,868.493C1514.86,857.027 1509.58,842.494 1509.58,827.465C1509.58,827.134 1509.59,826.804 1509.59,826.474L1511.23,826.474C1511.23,826.762 1511.23,827.049 1511.23,827.336C1511.23,841.479 1517.13,856.136 1527.93,866.927C1538.72,877.719 1553.19,883.371 1567.33,883.371C1567.53,883.371 1567.72,883.37 1567.91,883.368L1567.91,885.777ZM1567.91,879.107C1567.77,879.108 1567.63,879.109 1567.48,879.109C1554.17,879.109 1541.11,873.954 1530.95,863.796C1520.79,853.638 1516.12,840.763 1516.12,827.449C1516.12,827.124 1516.12,826.799 1516.13,826.474L1517.58,826.474C1517.58,826.762 1517.58,827.049 1517.58,827.336C1517.58,839.865 1522.81,852.849 1532.37,862.409C1541.93,871.969 1554.75,876.976 1567.28,876.976C1567.49,876.976 1567.7,876.975 1567.91,876.972L1567.91,879.107ZM1567.91,872.436C1567.74,872.438 1567.57,872.439 1567.4,872.439C1555.81,872.439 1544.43,867.948 1535.58,859.099C1526.73,850.249 1522.66,839.033 1522.66,827.434C1522.66,827.114 1522.66,826.794 1522.67,826.474L1523.93,826.474C1523.93,826.762 1523.93,827.049 1523.93,827.335C1523.93,838.251 1528.49,849.562 1536.82,857.891C1545.14,866.219 1556.31,870.581 1567.23,870.581C1567.46,870.581 1567.68,870.579 1567.91,870.575L1567.91,872.436ZM1567.91,865.765C1567.72,865.768 1567.52,865.769 1567.33,865.769C1557.44,865.769 1547.75,861.943 1540.2,854.401C1532.66,846.861 1529.19,837.303 1529.19,827.419C1529.19,827.104 1529.2,826.789 1529.21,826.474L1530.29,826.474C1530.28,826.762 1530.28,827.048 1530.28,827.335C1530.28,836.636 1534.16,846.275 1541.26,853.372C1548.36,860.469 1557.87,864.186 1567.18,864.186C1567.42,864.186 1567.67,864.183 1567.91,864.178L1567.91,865.765ZM1567.91,859.093C1567.69,859.098 1567.47,859.1 1567.25,859.1C1559.08,859.1 1551.07,855.937 1544.83,849.705C1538.6,843.472 1535.73,835.572 1535.73,827.404C1535.73,827.093 1535.74,826.784 1535.75,826.474L1536.64,826.474C1536.63,826.761 1536.63,827.048 1536.63,827.334C1536.63,835.021 1539.84,842.988 1545.7,848.854C1551.57,854.719 1559.44,857.791 1567.12,857.791C1567.39,857.791 1567.65,857.788 1567.91,857.78L1567.91,859.093ZM1567.91,852.419C1567.66,852.426 1567.42,852.43 1567.17,852.43C1560.71,852.43 1554.38,849.932 1549.46,845.007C1544.54,840.083 1542.27,833.842 1542.27,827.389C1542.27,827.083 1542.28,826.778 1542.29,826.474L1542.99,826.474C1542.98,826.761 1542.98,827.048 1542.98,827.334C1542.98,833.407 1545.51,839.701 1550.15,844.335C1554.78,848.969 1561,851.397 1567.07,851.397C1567.35,851.397 1567.63,851.391 1567.91,851.38L1567.91,852.419Z" style="fill:#e7e7e7;"/>
                <path id="q41" serif:id="q4" d="M1483.44,826.474C1483.71,805.169 1492.06,784.843 1508.19,768.471L1506.85,767.138C1523.56,750.438 1545.58,741.943 1567.47,741.943C1567.61,741.943 1567.76,741.943 1567.91,741.944L1567.91,746.982C1567.76,746.981 1567.62,746.981 1567.47,746.981C1546.87,746.981 1526.15,755.002 1510.43,770.719L1509.24,769.524C1494.19,784.93 1486.06,806.421 1485.83,826.474L1483.44,826.474ZM1489.98,826.474C1490.24,806.862 1497.93,788.149 1512.78,773.078L1511.56,771.854C1526.95,756.462 1547.25,748.634 1567.42,748.633C1567.58,748.633 1567.75,748.634 1567.91,748.635L1567.91,753.278C1567.75,753.277 1567.58,753.276 1567.42,753.276C1548.43,753.276 1529.34,760.669 1514.86,775.154L1513.76,774.057C1499.91,788.238 1492.41,808.011 1492.18,826.474L1489.98,826.474ZM1496.52,826.474C1496.77,808.556 1503.8,791.456 1517.37,777.684L1516.26,776.57C1530.34,762.487 1548.91,755.324 1567.37,755.324C1567.55,755.324 1567.73,755.324 1567.91,755.326L1567.91,759.574C1567.73,759.572 1567.55,759.572 1567.37,759.572C1550,759.572 1532.53,766.336 1519.28,779.59L1518.28,778.59C1505.62,791.547 1498.76,809.601 1498.53,826.474L1496.52,826.474ZM1503.05,826.474C1503.31,810.249 1509.68,794.762 1521.96,782.29L1520.96,781.287C1533.74,768.512 1550.58,762.014 1567.33,762.014C1567.52,762.014 1567.72,762.015 1567.91,762.016L1567.91,765.87C1567.72,765.868 1567.52,765.867 1567.33,765.867C1551.57,765.867 1535.72,772.003 1523.7,784.026L1522.8,783.123C1511.34,794.856 1505.11,811.192 1504.88,826.474L1503.05,826.474ZM1509.59,826.474C1509.84,811.943 1515.55,798.069 1526.56,786.897L1525.66,786.002C1537.13,774.536 1552.25,768.704 1567.28,768.704C1567.49,768.704 1567.7,768.705 1567.91,768.707L1567.91,772.166C1567.7,772.164 1567.49,772.162 1567.28,772.162C1553.14,772.163 1538.91,777.67 1528.12,788.461L1527.32,787.655C1517.05,798.164 1511.46,812.783 1511.23,826.474L1509.59,826.474ZM1516.13,826.474C1516.37,813.636 1521.42,801.375 1531.15,791.503L1530.37,790.718C1540.52,780.561 1553.92,775.394 1567.23,775.394C1567.46,775.394 1567.69,775.395 1567.91,775.398L1567.91,778.462C1567.69,778.459 1567.46,778.458 1567.23,778.458C1554.7,778.458 1542.1,783.337 1532.54,792.896L1531.84,792.189C1522.77,801.473 1517.81,814.374 1517.58,826.474L1516.13,826.474ZM1522.67,826.474C1522.91,815.33 1527.3,804.682 1535.74,796.11L1535.07,795.435C1543.92,786.586 1555.59,782.084 1567.19,782.084C1567.43,782.084 1567.67,782.086 1567.91,782.09L1567.91,784.759C1567.67,784.755 1567.43,784.753 1567.19,784.753C1556.27,784.754 1545.3,789.004 1536.97,797.332L1536.36,796.721C1528.48,804.782 1524.16,815.965 1523.93,826.474L1522.67,826.474ZM1529.21,826.474C1529.44,817.023 1533.17,807.989 1540.34,800.716L1539.77,800.151C1547.31,792.61 1557.26,788.775 1567.14,788.774C1567.4,788.774 1567.65,788.777 1567.91,788.782L1567.91,791.057C1567.65,791.052 1567.4,791.049 1567.14,791.049C1557.84,791.049 1548.49,794.671 1541.39,801.768L1540.87,801.254C1534.2,808.09 1530.51,817.556 1530.29,826.474L1529.21,826.474ZM1535.75,826.474C1535.97,818.716 1539.05,811.295 1544.93,805.323L1544.47,804.867C1550.71,798.634 1558.92,795.464 1567.09,795.464C1567.37,795.464 1567.64,795.468 1567.91,795.475L1567.91,797.355C1567.64,797.348 1567.37,797.344 1567.09,797.344C1559.41,797.345 1551.67,800.338 1545.81,806.203L1545.39,805.787C1539.91,811.399 1536.86,819.148 1536.64,826.474L1535.75,826.474ZM1542.29,826.474C1542.51,820.408 1544.92,814.602 1549.52,809.929L1549.18,809.583C1554.1,804.659 1560.59,802.155 1567.05,802.155C1567.34,802.155 1567.62,802.16 1567.91,802.169L1567.91,803.656C1567.62,803.645 1567.34,803.64 1567.05,803.64C1560.97,803.64 1554.87,806.005 1550.23,810.639L1549.91,810.32C1545.63,814.708 1543.21,820.74 1542.99,826.474L1542.29,826.474Z" style="fill:#e7e7e7;"/>
            </g>
            <g id="X2" serif:id="X" sound="Song/02-Grooves-X">
                <path d="M1568.9,724.86C1587.82,725.124 1606.63,732.597 1620.84,747.215L1646.6,773.701C1661.06,788.565 1667.99,807.974 1667.48,827.2L1568.21,827.021L1568.9,724.86Z" style="fill:#df4c44;stroke:#fff;stroke-width:1.67px;"/>
                <path d="M1667.48,827.2C1666.98,845.791 1659.51,864.211 1645.14,878.188L1618.65,903.945C1604.41,917.798 1585.99,924.746 1567.55,924.847L1568.21,827.021L1667.48,827.2Z" style="fill:#df4c44;stroke:#fff;stroke-width:1.67px;"/>
                <path d="M1569.01,827.2L1666.61,827.2" style="fill:none;stroke:#df4c44;stroke-width:4.17px;stroke-linecap:butt;"/>
                <path id="q21" serif:id="q2" d="M1652.99,826.474C1652.99,826.806 1652.99,827.139 1652.99,827.471C1652.99,849.359 1643.9,870.51 1627.2,887.21C1610.51,903.901 1589.79,912.447 1567.91,912.457L1567.91,908.949C1588.39,908.849 1609.06,900.309 1624.68,884.686C1640.4,868.968 1647.96,848.07 1647.96,827.471C1647.96,827.139 1647.95,826.806 1647.95,826.474L1652.99,826.474ZM1646.24,826.474C1646.24,826.803 1646.25,827.131 1646.25,827.46C1646.25,847.634 1637.87,867.127 1622.48,882.519C1607.11,897.882 1588.04,905.757 1567.91,905.787L1567.91,902.554C1586.76,902.439 1605.77,894.571 1620.15,880.192C1634.64,865.706 1641.6,846.445 1641.6,827.46C1641.6,827.131 1641.6,826.803 1641.6,826.474L1646.24,826.474ZM1639.49,826.474C1639.5,826.799 1639.5,827.124 1639.5,827.449C1639.5,845.907 1631.83,863.744 1617.75,877.827C1603.72,891.862 1586.3,899.067 1567.91,899.117L1567.91,896.159C1585.13,896.029 1602.49,888.832 1615.62,875.698C1628.88,862.444 1635.25,844.82 1635.25,827.449C1635.25,827.124 1635.25,826.799 1635.24,826.474L1639.49,826.474ZM1632.74,826.474C1632.75,826.795 1632.75,827.117 1632.75,827.438C1632.75,844.181 1625.8,860.361 1613.02,873.136C1600.32,885.841 1584.56,892.377 1567.91,892.447L1567.91,889.763C1583.5,889.62 1599.2,883.093 1611.09,871.204C1623.11,859.181 1628.9,843.195 1628.9,827.438C1628.9,827.117 1628.89,826.795 1628.89,826.474L1632.74,826.474ZM1626,826.474C1626,826.792 1626,827.109 1626,827.427C1626,842.456 1619.76,856.978 1608.3,868.444C1596.92,879.821 1582.81,885.686 1567.91,885.777L1567.91,883.368C1581.87,883.21 1595.92,877.355 1606.56,866.711C1617.35,855.919 1622.54,841.57 1622.54,827.427C1622.54,827.109 1622.54,826.792 1622.54,826.474L1626,826.474ZM1619.25,826.474C1619.25,826.788 1619.26,827.102 1619.26,827.416C1619.26,840.73 1613.73,853.595 1603.57,863.753C1593.52,873.801 1581.07,878.996 1567.91,879.107L1567.91,876.972C1580.23,876.8 1592.63,871.616 1602.03,862.217C1611.59,852.657 1616.19,839.946 1616.19,827.416C1616.19,827.102 1616.19,826.788 1616.18,826.474L1619.25,826.474ZM1612.5,826.474C1612.51,826.784 1612.51,827.095 1612.51,827.405C1612.51,839.004 1607.69,850.211 1598.84,859.061C1590.12,867.781 1579.32,872.306 1567.91,872.436L1567.91,870.575C1578.6,870.391 1589.35,865.878 1597.5,857.723C1605.83,849.395 1609.84,838.321 1609.84,827.405C1609.84,827.095 1609.84,826.784 1609.83,826.474L1612.5,826.474ZM1605.75,826.474C1605.76,826.781 1605.76,827.087 1605.76,827.394C1605.76,837.278 1601.66,846.828 1594.12,854.369C1586.72,861.761 1577.58,865.615 1567.91,865.765L1567.91,864.178C1576.97,863.98 1586.07,860.14 1592.98,853.23C1600.07,846.133 1603.49,836.696 1603.49,827.394C1603.49,827.087 1603.48,826.781 1603.47,826.474L1605.75,826.474ZM1599,826.474C1599.01,826.777 1599.01,827.08 1599.01,827.383C1599.01,835.552 1595.62,843.445 1589.39,849.678C1583.33,855.741 1575.84,858.924 1567.91,859.093L1567.91,857.78C1575.34,857.57 1582.78,854.401 1588.45,848.735C1594.31,842.87 1597.13,835.071 1597.13,827.383C1597.13,827.08 1597.13,826.777 1597.12,826.474L1599,826.474ZM1592.25,826.474C1592.26,826.774 1592.27,827.073 1592.27,827.372C1592.27,833.826 1589.59,840.062 1584.66,844.986C1579.93,849.721 1574.09,852.232 1567.91,852.419L1567.91,851.38C1573.71,851.159 1579.5,848.662 1583.92,844.242C1588.55,839.608 1590.78,833.446 1590.78,827.372C1590.78,827.073 1590.77,826.774 1590.76,826.474L1592.25,826.474Z" style="fill:#e7e7e7;"/>
                <path id="q11" serif:id="q1" d="M1567.91,741.944C1589.65,742.057 1611.36,750.406 1627.94,766.993C1644.39,783.44 1652.74,804.919 1652.99,826.474L1647.95,826.474C1647.7,806.208 1639.85,786.019 1624.38,770.555C1608.78,754.952 1588.36,747.094 1567.91,746.982L1567.91,741.944ZM1567.91,748.635C1587.92,748.759 1607.89,756.454 1623.16,771.721C1638.3,786.862 1645.99,806.63 1646.24,826.474L1641.6,826.474C1641.35,807.819 1634.11,789.239 1619.88,775.004C1605.52,760.644 1586.73,753.402 1567.91,753.278L1567.91,748.635ZM1567.91,755.326C1586.19,755.461 1604.43,762.502 1618.37,776.448C1632.21,790.283 1639.25,808.342 1639.49,826.474L1635.24,826.474C1635,809.429 1628.38,792.458 1615.37,779.452C1602.25,766.335 1585.1,759.709 1567.91,759.574L1567.91,755.326ZM1567.91,762.016C1584.46,762.163 1600.96,768.55 1613.59,781.175C1626.12,793.705 1632.5,810.053 1632.74,826.474L1628.89,826.474C1628.65,811.04 1622.64,795.678 1610.86,783.9C1598.99,772.027 1583.47,766.017 1567.91,765.87L1567.91,762.016ZM1567.91,768.707C1582.73,768.865 1597.5,774.597 1608.8,785.903C1620.03,797.127 1625.76,811.764 1626,826.474L1622.54,826.474C1622.3,812.65 1616.91,798.898 1606.36,788.349C1595.73,777.718 1581.84,772.325 1567.91,772.166L1567.91,768.707ZM1567.91,775.398C1581,775.568 1594.03,780.645 1604.02,790.63C1613.94,800.549 1619.01,813.476 1619.25,826.474L1616.18,826.474C1615.95,814.261 1611.17,802.118 1601.85,792.797C1592.46,783.41 1580.21,778.632 1567.91,778.462L1567.91,775.398ZM1567.91,782.09C1579.27,782.27 1590.57,786.693 1599.23,795.358C1607.85,803.971 1612.27,815.188 1612.5,826.474L1609.83,826.474C1609.6,815.871 1605.44,805.337 1597.35,797.246C1589.2,789.102 1578.58,784.94 1567.91,784.759L1567.91,782.09ZM1567.91,788.782C1577.54,788.973 1587.1,792.741 1594.45,800.086C1601.76,807.393 1605.52,816.899 1605.75,826.474L1603.47,826.474C1603.25,817.482 1599.7,808.557 1592.84,801.694C1585.94,794.793 1576.95,791.248 1567.91,791.057L1567.91,788.782ZM1567.91,795.475C1575.81,795.676 1583.64,798.788 1589.66,804.813C1595.66,810.814 1598.78,818.611 1599,826.474L1597.12,826.474C1596.9,819.093 1593.97,811.777 1588.34,806.142C1582.68,800.485 1575.32,797.556 1567.91,797.355L1567.91,795.475ZM1567.91,802.169C1574.07,802.379 1580.17,804.836 1584.88,809.54C1589.58,814.236 1592.03,820.323 1592.25,826.474L1590.76,826.474C1590.55,820.703 1588.23,814.997 1583.83,810.591C1579.41,806.177 1573.69,803.865 1567.91,803.656L1567.91,802.169Z" style="fill:#e7e7e7;"/>
            </g>
        </g>
        <g id="song-1-zen" serif:id="song 1 zen">
            <g id="X3" serif:id="X" sound="Song/01-Zen-X">
                <path d="M250.602,2360.85C231.205,2360.95 211.794,2353.48 197.217,2338.49L171.46,2312C158.093,2298.25 151.155,2280.62 150.594,2262.84L251.262,2263.02L250.602,2360.85Z" style="fill:#df4c44;stroke:#fff;stroke-width:1.67px;"/>
                <path d="M350.525,2263.2C350.027,2281.79 342.562,2300.21 328.19,2314.19L301.703,2339.95C287.457,2353.8 269.036,2360.75 250.602,2360.85L251.262,2263.02L350.525,2263.2Z" style="fill:#df4c44;stroke:#fff;stroke-width:1.67px;"/>
                <path d="M250.602,2263.85L250.602,2359.85" style="fill:none;stroke:#df4c44;stroke-width:4.17px;stroke-linecap:butt;"/>
                <path id="q32" serif:id="q3" d="M250.96,2348.03C235.806,2348.02 221.037,2343.78 206.652,2335.32C197.778,2329.84 190.098,2322.85 183.613,2314.34C180.559,2310.25 178.187,2306.64 176.495,2303.53C175.053,2300.93 173.604,2298.1 172.148,2295.02C171.997,2294.64 171.947,2294.72 171.999,2295.26L171.384,2294.08C170.731,2292.75 169.864,2290.51 168.783,2287.34C166.29,2279 164.96,2270.71 164.791,2262.47L185.748,2262.47C184.79,2276.55 189.321,2290.65 199.343,2304.78C209.088,2317.39 221.783,2325.66 237.429,2329.58C242.145,2330.57 246.655,2331.14 250.96,2331.29L250.96,2342.97C241.735,2343.11 232.284,2341.56 222.609,2338.32C231.815,2342.47 241.265,2344.68 250.96,2344.96L250.96,2348.03ZM185.856,2262.47L192.389,2262.47L190.847,2268.86C190.933,2272.26 191.485,2275.78 192.501,2279.42C197.923,2296.36 208.026,2309.27 222.811,2318.16C232.415,2323.15 241.798,2325.91 250.96,2326.47L250.96,2330.02C245.711,2329.89 240.514,2329.08 235.371,2327.6C222.263,2324.16 210.601,2316.07 200.383,2303.34C195.093,2295.9 191.508,2289.53 189.628,2284.2C187.189,2276.86 185.932,2269.62 185.856,2262.47Z" style="fill:#e7e7e7;"/>
                <path id="q22" serif:id="q2" d="M250.96,2326.47C257.247,2326.85 263.431,2326.18 269.51,2324.47C272.988,2323.63 276.884,2322.24 281.199,2320.29C285.026,2318.56 289.186,2316.09 293.679,2312.87C292.937,2313.93 293.366,2313.96 294.966,2312.94C300.986,2308.35 306.018,2302.6 310.063,2295.69C308.008,2301.21 304.727,2305.97 300.221,2309.97C291.693,2317.54 284.199,2322.56 277.739,2325.04C268.665,2328.58 259.738,2330.24 250.96,2330.02L250.96,2326.47ZM250.96,2331.29C255.989,2331.47 260.738,2331.08 265.207,2330.12C276.434,2327.71 286.376,2323.51 295.034,2317.52C312.476,2302.64 321.504,2284.61 322.118,2263.43C322.224,2270.69 320.805,2279.15 317.863,2288.8C320.401,2287.46 322.388,2282.07 323.824,2272.64C323.442,2276.89 322.384,2282.13 320.648,2288.36C320.48,2288.81 320.631,2289.05 321.102,2289.06C320.777,2290.47 319.862,2293.28 318.356,2297.48L322.367,2292.55C321.569,2295 318.621,2300.21 313.525,2308.18C302.855,2322.73 288.915,2332.53 271.705,2337.59C283.422,2335.44 294.705,2329.36 305.557,2319.35C303.048,2322.14 300.198,2324.66 297.007,2326.89C282.337,2337.36 266.988,2342.72 250.96,2342.97L250.96,2331.29ZM250.96,2344.96C263.627,2345.33 276.712,2342.4 290.214,2336.17C288.938,2337.68 283.879,2340.28 275.036,2343.96C271.352,2345.39 268.094,2346.33 265.264,2346.8C260.458,2347.62 255.691,2348.03 250.96,2348.03L250.96,2344.96Z" style="fill:#e7e7e7;"/>
            </g>
            <g id="X2W" sound="Song/01-Zen-X2W">
                <path d="M251.95,2160.86C270.864,2161.12 289.676,2168.6 303.892,2183.22L329.649,2209.7C344.103,2224.57 351.04,2243.97 350.525,2263.2L251.262,2263.02L251.95,2160.86Z" style="fill:#eea25f;stroke:#fff;stroke-width:1.67px;"/>
                <path d="M150.594,2262.84C149.962,2242.8 157.428,2222.58 172.919,2207.51L199.405,2181.76C214.023,2167.54 233.037,2160.6 251.95,2160.86L251.262,2263.02L150.594,2262.84Z" style="fill:#eea25f;stroke:#fff;stroke-width:1.67px;"/>
                <path d="M251.052,2161.85L250.96,2261.85" style="fill:none;stroke:#eea25f;stroke-width:4.17px;stroke-linecap:butt;"/>
                <path id="q42" serif:id="q4" d="M164.791,2262.47C164.474,2247.08 168.219,2231.87 176.025,2216.85C190.097,2194.71 208.982,2181.34 232.68,2176.76C238.952,2175.49 245.045,2174.88 250.96,2174.92L250.96,2202.38C243.754,2202.45 236.65,2203.87 229.648,2206.65L227.044,2208.12C232.028,2206.56 236.561,2205.64 240.64,2205.37C221.933,2209.75 208.532,2219.27 200.435,2233.93C197.004,2240.09 194.744,2246.12 193.656,2252.03C193.138,2255.05 192.849,2257.98 192.788,2260.82L192.389,2262.47L185.856,2262.47C185.851,2262.03 185.851,2261.58 185.856,2261.14C185.814,2261.59 185.779,2262.03 185.748,2262.47L164.791,2262.47Z" style="fill:#e7e7e7;"/>
                <path id="q12" serif:id="q1" d="M250.96,2174.92C259.808,2174.98 268.258,2176.51 276.309,2179.51C281.41,2181.11 284.839,2182.39 286.596,2183.35L298.749,2190.57C299.044,2190.2 302.895,2193.49 310.303,2200.46C312.016,2202.08 314.387,2204.65 317.417,2208.16L321.674,2216.12L321.886,2216.6C319.78,2214.42 318.152,2213.15 317.002,2212.81C320.195,2217.83 322.933,2221.84 325.215,2224.82C326.578,2227.29 327.934,2230.14 329.285,2233.37C332.152,2241.41 333.901,2248.3 334.531,2254.05C335.046,2256.79 334.737,2257.19 333.604,2255.23C332.005,2251.97 330.087,2248.61 327.851,2245.15L327.774,2253.37C326.918,2249.83 326.041,2246.85 325.143,2244.41C323.631,2242.69 322.235,2241.28 320.957,2240.19C319.456,2241.01 318.784,2241.81 318.941,2242.59C319.98,2248.64 320.212,2253.48 319.635,2257.13C318.679,2261.82 317.888,2262.76 317.264,2259.95L316.828,2258.54L313.241,2244.74C313.072,2244.16 312.804,2243.96 312.436,2244.15C310.281,2240.49 308.205,2237.53 306.21,2235.3C305.388,2234.16 303.274,2232.03 299.87,2228.89C300.225,2226.33 300.317,2225.15 300.147,2225.34L297.396,2221.92C290.771,2214.46 280.406,2208.56 266.301,2204.24C261.137,2202.95 256.023,2202.33 250.96,2202.38L250.96,2174.92Z" style="fill:#e7e7e7;"/>
            </g>
        </g>
    </g>
    <g id="Map" sound="Map/X" loop="false" autoplay="true">
        <g id="Frame">
            <rect x="1472.05" y="42.39" width="190" height="190" style="fill:#fff;"/>
            <rect x="1472.05" y="42.39" width="190" height="190" style="fill:none;stroke:#000;stroke-width:1.17px;stroke-linejoin:bevel;"/>
            <rect x="1523.93" y="94.265" width="86.25" height="86.25" style="fill:none;stroke:#000;stroke-width:1.25px;stroke-linejoin:bevel;"/>
            <path d="M1610.18,94.265L1662.05,42.598" style="fill:none;stroke:#000;stroke-width:1.25px;stroke-linejoin:bevel;"/>
            <path d="M1523.93,94.265L1472.47,42.598" style="fill:none;stroke:#000;stroke-width:1.25px;stroke-linejoin:bevel;"/>
            <path d="M1523.93,180.515L1472.05,232.39" style="fill:none;stroke:#000;stroke-width:1.25px;stroke-linejoin:bevel;"/>
            <path d="M1610.18,180.515L1662.05,232.39" style="fill:none;stroke:#000;stroke-width:1.25px;stroke-linejoin:bevel;"/>
        </g>
        <g id="Dots">
            <circle cx="1472.05" cy="232.348" r="1.5" style="stroke:#000;stroke-width:1.25px;stroke-linejoin:bevel;"/>
            <circle cx="1566.75" cy="232.473" r="1.5" style="stroke:#000;stroke-width:1.25px;stroke-linejoin:bevel;"/>
            <circle cx="1662.05" cy="232.348" r="1.5" style="stroke:#000;stroke-width:1.25px;stroke-linejoin:bevel;"/>
            <circle cx="1634.4" cy="204.514" r="1.5" style="stroke:#000;stroke-width:1.25px;stroke-linejoin:bevel;"/>
            <circle cx="1610.18" cy="180.348" r="1.5" style="stroke:#000;stroke-width:1.25px;stroke-linejoin:bevel;"/>
            <circle cx="1609.75" cy="137.473" r="1.5" style="stroke:#000;stroke-width:1.25px;stroke-linejoin:bevel;"/>
            <circle cx="1609.87" cy="94.223" r="1.5" style="stroke:#000;stroke-width:1.25px;stroke-linejoin:bevel;"/>
            <circle cx="1634.31" cy="70.014" r="1.5" style="stroke:#000;stroke-width:1.25px;stroke-linejoin:bevel;"/>
            <circle cx="1566.75" cy="94.223" r="1.5" style="stroke:#000;stroke-width:1.25px;stroke-linejoin:bevel;"/>
            <circle cx="1523.62" cy="94.348" r="1.5" style="stroke:#000;stroke-width:1.25px;stroke-linejoin:bevel;"/>
            <circle cx="1567.05" cy="42.348" r="1.5" style="stroke:#000;stroke-width:1.25px;stroke-linejoin:bevel;"/>
            <circle cx="1472.05" cy="42.39" r="1.5" style="stroke:#000;stroke-width:1.25px;stroke-linejoin:bevel;"/>
            <circle cx="1499.9" cy="70.348" r="1.5" style="stroke:#000;stroke-width:1.25px;stroke-linejoin:bevel;"/>
            <circle cx="1472.05" cy="137.39" r="1.5" style="stroke:#000;stroke-width:1.25px;stroke-linejoin:bevel;"/>
            <circle cx="1523.93" cy="137.39" r="1.5" style="stroke:#000;stroke-width:1.25px;stroke-linejoin:bevel;"/>
            <circle cx="1566.55" cy="180.515" r="1.5" style="stroke:#000;stroke-width:1.25px;stroke-linejoin:bevel;"/>
            <circle cx="1523.9" cy="180.348" r="1.5" style="stroke:#000;stroke-width:1.25px;stroke-linejoin:bevel;"/>
            <circle cx="1499.7" cy="204.848" r="1.5" style="stroke:#000;stroke-width:1.25px;stroke-linejoin:bevel;"/>
            <circle cx="1662.05" cy="137.39" r="1.5" style="stroke:#000;stroke-width:1.25px;stroke-linejoin:bevel;"/>
            <circle cx="1662.05" cy="42.497" r="1.5" style="stroke:#000;stroke-width:1.25px;stroke-linejoin:bevel;"/>
        </g>
        <g>
            <path d="M1566.8,232.348L1472.05,232.348L1472.47,137.848" style="fill:none;stroke:#df4c44;stroke-width:5.99px;"/>
            <path d="M1472.55,231.848L1499.55,204.848" style="fill:none;stroke:#df4c44;stroke-width:5.83px;"/>
        </g>
        <g id="_10" serif:id="10">
            <circle cx="1498.8" cy="204.598" r="15.75" style="fill:#fff;stroke:#fff;stroke-width:1.46px;"/>
            <path id="q13" serif:id="q1" d="M1514.55,204.848L1513.8,204.848C1513.93,199.774 1511.44,194.852 1506.85,192.201C1504.54,190.869 1502,190.283 1499.5,190.367L1499.5,189.606C1502.13,189.518 1504.81,190.134 1507.24,191.537C1512.07,194.327 1514.69,199.507 1514.55,204.848ZM1512.88,204.848L1512.21,204.848C1513.36,198.526 1508.92,193.295 1502.11,193.082C1501.23,193.054 1500.36,193.111 1499.5,193.245L1499.5,192.634C1500.4,192.494 1501.32,192.434 1502.24,192.463C1509.41,192.687 1514.09,198.192 1512.88,204.848ZM1510.49,204.848L1509.95,204.848C1510.47,203.342 1510.67,201.812 1510.47,200.363C1509.83,195.551 1505.04,193.335 1499.5,195.069L1499.5,194.553C1505.33,192.73 1510.37,195.062 1511.05,200.127C1511.25,201.652 1511.04,203.262 1510.49,204.848ZM1508.1,204.848L1507.67,204.848C1508.73,202.121 1508.79,199.414 1507.62,197.521C1506.08,195.046 1502.86,194.64 1499.5,196.152L1499.5,195.693C1503.03,194.103 1506.42,194.53 1508.04,197.134C1509.28,199.128 1509.21,201.978 1508.1,204.848ZM1506.29,204.848L1505.96,204.848C1507.1,201.239 1506.54,197.858 1504.33,196.578C1502.96,195.792 1501.23,195.944 1499.5,196.826L1499.5,196.402C1501.32,195.475 1503.14,195.316 1504.58,196.143C1506.91,197.489 1507.5,201.049 1506.29,204.848ZM1505.11,204.848L1504.83,204.848C1505.68,200.673 1504.08,197.244 1501.22,197.155C1500.65,197.137 1500.07,197.254 1499.5,197.488L1499.5,197.098C1500.1,196.853 1500.71,196.73 1501.31,196.748C1504.32,196.844 1506,200.454 1505.11,204.848Z" style="fill:#733c52;"/>
            <path id="q23" serif:id="q2" d="M1499.5,220.092L1499.5,219.33C1504.36,219.202 1509.11,216.543 1511.79,211.911C1513.08,209.671 1513.73,207.243 1513.8,204.848L1514.55,204.848C1514.48,207.369 1513.79,209.926 1512.43,212.283C1509.62,217.157 1504.62,219.957 1499.5,220.092ZM1499.5,217.076L1499.5,216.465C1505.51,215.578 1510.89,210.952 1512.13,205.241C1512.16,205.11 1512.19,204.978 1512.21,204.848L1512.88,204.848C1512.85,204.985 1512.83,205.124 1512.8,205.262C1511.49,211.274 1505.82,216.142 1499.5,217.076ZM1499.5,215.173L1499.5,214.657C1499.93,214.525 1500.37,214.369 1500.81,214.188C1505.15,212.407 1508.61,208.706 1509.95,204.848L1510.49,204.848C1509.08,208.908 1505.44,212.805 1500.88,214.68C1500.41,214.87 1499.95,215.034 1499.5,215.173ZM1499.5,214.048L1499.5,213.589C1500.8,213.018 1502.12,212.158 1503.38,211.018C1505.36,209.22 1506.83,207.028 1507.67,204.848L1508.1,204.848C1507.21,207.143 1505.66,209.451 1503.58,211.344C1502.26,212.542 1500.87,213.447 1499.5,214.048ZM1499.5,213.344L1499.5,212.921C1501.38,211.993 1503.26,210.194 1504.65,207.791C1505.21,206.818 1505.65,205.825 1505.96,204.848L1506.29,204.848C1505.97,205.876 1505.51,206.922 1504.92,207.946C1503.46,210.474 1501.48,212.367 1499.5,213.344ZM1499.5,212.637L1499.5,212.249C1501.85,211.349 1504.04,208.472 1504.8,205.012C1504.81,204.957 1504.82,204.902 1504.83,204.848L1505.11,204.848C1505.1,204.905 1505.08,204.963 1505.07,205.021C1504.28,208.661 1501.97,211.688 1499.5,212.637Z" style="fill:#733c52;"/>
            <path id="q43" serif:id="q4" d="M1499.5,189.606L1499.5,190.367C1494.67,190.531 1489.97,193.185 1487.32,197.783C1486.02,200.023 1485.37,202.452 1485.31,204.848L1484.56,204.848C1484.63,202.327 1485.31,199.77 1486.67,197.412C1489.47,192.571 1494.41,189.777 1499.5,189.606ZM1499.5,192.634L1499.5,193.245C1493.54,194.17 1488.2,198.774 1486.97,204.452C1486.94,204.584 1486.91,204.716 1486.89,204.848L1486.22,204.848C1486.25,204.71 1486.28,204.571 1486.31,204.432C1487.61,198.453 1493.22,193.607 1499.5,192.634ZM1499.5,194.553L1499.5,195.069C1499.1,195.193 1498.7,195.339 1498.29,195.505C1493.95,197.286 1490.5,200.989 1489.16,204.848L1488.61,204.848C1490.02,200.786 1493.66,196.889 1498.23,195.014C1498.65,194.838 1499.08,194.685 1499.5,194.553ZM1499.5,195.693L1499.5,196.152C1498.23,196.723 1496.94,197.567 1495.73,198.676C1493.75,200.474 1492.27,202.667 1491.43,204.848L1491,204.848C1491.89,202.552 1493.44,200.244 1495.52,198.351C1496.81,197.183 1498.16,196.294 1499.5,195.693ZM1499.5,196.402L1499.5,196.826C1497.65,197.768 1495.81,199.545 1494.45,201.903C1493.89,202.876 1493.45,203.87 1493.14,204.848L1492.81,204.848C1493.13,203.819 1493.59,202.773 1494.18,201.749C1495.62,199.265 1497.55,197.394 1499.5,196.402ZM1499.5,197.098L1499.5,197.488C1497.19,198.432 1495.05,201.275 1494.31,204.683C1494.3,204.738 1494.28,204.793 1494.27,204.848L1494,204.848C1494.01,204.79 1494.02,204.732 1494.03,204.674C1494.81,201.085 1497.06,198.091 1499.5,197.098Z" style="fill:#733c52;"/>
            <path id="q33" serif:id="q3" d="M1484.56,204.848L1485.31,204.848C1485.17,209.921 1487.66,214.843 1492.25,217.493C1494.53,218.807 1497.03,219.395 1499.5,219.33L1499.5,220.092C1496.9,220.161 1494.26,219.542 1491.87,218.158C1487.04,215.369 1484.41,210.188 1484.56,204.848ZM1486.22,204.848L1486.89,204.848C1485.74,211.169 1490.19,216.398 1497,216.611C1497.84,216.638 1498.67,216.587 1499.5,216.465L1499.5,217.076C1498.63,217.205 1497.75,217.259 1496.86,217.231C1489.69,217.006 1485.01,211.503 1486.22,204.848ZM1488.61,204.848L1489.16,204.848C1488.63,206.353 1488.43,207.882 1488.63,209.33C1489.27,214.112 1494.01,216.33 1499.5,214.657L1499.5,215.173C1493.72,216.935 1488.73,214.601 1488.05,209.567C1487.85,208.043 1488.06,206.433 1488.61,204.848ZM1491,204.848L1491.43,204.848C1490.38,207.574 1490.31,210.281 1491.49,212.174C1493.01,214.623 1496.18,215.045 1499.5,213.589L1499.5,214.048C1496,215.582 1492.66,215.138 1491.06,212.56C1489.83,210.567 1489.89,207.717 1491,204.848ZM1492.81,204.848L1493.14,204.848C1492,208.456 1492.56,211.837 1494.78,213.116C1496.11,213.886 1497.81,213.756 1499.5,212.921L1499.5,213.344C1497.71,214.224 1495.93,214.362 1494.53,213.55C1492.19,212.204 1491.6,208.645 1492.81,204.848ZM1494,204.848L1494.27,204.848C1493.43,209.023 1495.02,212.451 1497.88,212.54C1498.42,212.557 1498.96,212.454 1499.5,212.249L1499.5,212.637C1498.93,212.854 1498.36,212.962 1497.79,212.944C1494.78,212.85 1493.1,209.241 1494,204.848Z" style="fill:#733c52;"/>
        </g>
        <g id="_24" serif:id="2">
            <circle cx="1472" cy="137.39" r="15.75" style="fill:#fff;stroke:#fff;stroke-width:1.46px;"/>
            <path id="q34" serif:id="q3" d="M1472,152.432C1472,152.432 1471.99,152.432 1471.99,152.432C1468.12,152.432 1464.32,150.933 1461.37,147.978C1458.41,145.023 1457.05,141.278 1457.05,137.405C1457.05,137.343 1457.05,137.281 1457.05,137.219L1457.48,137.219C1457.48,137.27 1457.48,137.321 1457.48,137.372C1457.48,141.017 1459,144.794 1461.78,147.574C1464.56,150.355 1468.29,151.812 1471.93,151.812C1471.95,151.812 1471.98,151.812 1472,151.812L1472,152.432ZM1472,151.252C1471.99,151.252 1471.99,151.252 1471.98,151.252C1468.41,151.252 1464.91,149.87 1462.18,147.147C1459.46,144.424 1458.21,140.972 1458.21,137.403C1458.21,137.341 1458.21,137.28 1458.21,137.219L1458.6,137.219C1458.6,137.27 1458.6,137.321 1458.6,137.372C1458.6,140.731 1460,144.212 1462.57,146.775C1465.13,149.338 1468.57,150.68 1471.92,150.68C1471.95,150.68 1471.97,150.68 1472,150.68L1472,151.252ZM1472,150.072C1471.99,150.072 1471.98,150.072 1471.96,150.072C1468.7,150.072 1465.5,148.807 1463,146.316C1460.51,143.824 1459.37,140.666 1459.37,137.4C1459.37,137.34 1459.37,137.279 1459.37,137.219L1459.72,137.219C1459.72,137.27 1459.72,137.321 1459.72,137.372C1459.72,140.446 1461.01,143.631 1463.35,145.976C1465.7,148.321 1468.84,149.549 1471.91,149.549C1471.94,149.549 1471.97,149.549 1472,149.549L1472,150.072ZM1472,148.892C1471.98,148.892 1471.97,148.892 1471.95,148.892C1468.99,148.892 1466.08,147.745 1463.82,145.485C1461.56,143.225 1460.52,140.36 1460.52,137.397C1460.52,137.338 1460.52,137.279 1460.52,137.219L1460.85,137.219C1460.85,137.27 1460.85,137.321 1460.85,137.372C1460.85,140.16 1462.01,143.049 1464.14,145.176C1466.27,147.303 1469.12,148.417 1471.9,148.417C1471.94,148.417 1471.97,148.417 1472,148.417L1472,148.892ZM1472,147.712C1471.98,147.712 1471.96,147.712 1471.94,147.712C1469.28,147.712 1466.67,146.682 1464.64,144.654C1462.61,142.625 1461.68,140.054 1461.68,137.395C1461.68,137.336 1461.68,137.278 1461.68,137.219L1461.97,137.219C1461.97,137.27 1461.97,137.321 1461.97,137.372C1461.97,139.874 1463.01,142.467 1464.92,144.377C1466.83,146.286 1469.39,147.286 1471.9,147.286C1471.93,147.286 1471.96,147.286 1472,147.285L1472,147.712ZM1472,146.532C1471.97,146.532 1471.95,146.532 1471.92,146.532C1469.57,146.532 1467.26,145.62 1465.46,143.823C1463.66,142.025 1462.84,139.747 1462.84,137.392C1462.84,137.334 1462.84,137.277 1462.84,137.219L1463.09,137.219C1463.09,137.27 1463.09,137.321 1463.09,137.372C1463.09,139.588 1464.02,141.886 1465.71,143.577C1467.4,145.269 1469.67,146.155 1471.89,146.155C1471.92,146.155 1471.96,146.154 1472,146.154L1472,146.532ZM1472,145.351C1471.97,145.352 1471.94,145.352 1471.91,145.352C1469.86,145.352 1467.84,144.557 1466.28,142.991C1464.71,141.426 1463.99,139.441 1463.99,137.389C1463.99,137.332 1463.99,137.276 1463.99,137.219L1464.22,137.219C1464.22,137.27 1464.22,137.321 1464.22,137.372C1464.22,139.303 1465.02,141.304 1466.5,142.778C1467.97,144.251 1469.95,145.023 1471.88,145.023C1471.92,145.023 1471.96,145.023 1472,145.022L1472,145.351ZM1472,144.171C1471.96,144.171 1471.93,144.172 1471.89,144.172C1470.15,144.172 1468.43,143.495 1467.1,142.16C1465.76,140.826 1465.15,139.135 1465.15,137.386C1465.15,137.331 1465.15,137.275 1465.15,137.219L1465.34,137.219C1465.34,137.27 1465.34,137.321 1465.34,137.372C1465.34,139.017 1466.03,140.723 1467.28,141.978C1468.54,143.234 1470.22,143.892 1471.87,143.892C1471.91,143.892 1471.95,143.891 1472,143.89L1472,144.171ZM1472,142.99C1471.96,142.991 1471.92,142.992 1471.88,142.992C1470.43,142.992 1469.02,142.432 1467.91,141.329C1466.81,140.227 1466.31,138.829 1466.31,137.384C1466.31,137.329 1466.31,137.274 1466.31,137.219L1466.46,137.219C1466.46,137.27 1466.46,137.321 1466.46,137.371C1466.46,138.732 1467.03,140.141 1468.07,141.179C1469.11,142.217 1470.5,142.76 1471.86,142.76C1471.9,142.76 1471.95,142.76 1472,142.758L1472,142.99ZM1472,141.81C1471.95,141.811 1471.91,141.812 1471.87,141.812C1470.73,141.812 1469.61,141.37 1468.73,140.498C1467.86,139.627 1467.46,138.523 1467.46,137.381C1467.46,137.327 1467.46,137.273 1467.46,137.219L1467.59,137.219C1467.59,137.27 1467.59,137.321 1467.59,137.371C1467.59,138.446 1468.04,139.56 1468.86,140.379C1469.67,141.199 1470.78,141.629 1471.85,141.629C1471.9,141.629 1471.95,141.628 1472,141.626L1472,141.81Z" style="fill:#733c52;"/>
            <path id="q44" serif:id="q4" d="M1457.05,137.219C1457.1,133.45 1458.58,129.853 1461.43,126.957L1461.2,126.721C1464.15,123.766 1468.05,122.263 1471.92,122.263C1471.95,122.263 1471.97,122.263 1472,122.264L1472,123.155C1471.97,123.155 1471.95,123.155 1471.92,123.155C1468.28,123.155 1464.61,124.574 1461.83,127.355L1461.62,127.143C1458.96,129.869 1457.52,133.671 1457.48,137.219L1457.05,137.219ZM1458.21,137.219C1458.26,133.749 1459.62,130.439 1462.24,127.772L1462.03,127.555C1464.75,124.832 1468.34,123.447 1471.91,123.447C1471.94,123.447 1471.97,123.447 1472,123.447L1472,124.269C1471.97,124.269 1471.94,124.268 1471.91,124.268C1468.55,124.269 1465.17,125.576 1462.61,128.139L1462.42,127.945C1459.97,130.454 1458.64,133.953 1458.6,137.219L1458.21,137.219ZM1459.37,137.219C1459.41,134.049 1460.66,131.024 1463.06,128.587L1462.86,128.39C1465.35,125.898 1468.64,124.631 1471.9,124.631C1471.93,124.631 1471.97,124.631 1472,124.631L1472,125.383C1471.97,125.382 1471.93,125.382 1471.9,125.382C1468.83,125.382 1465.74,126.579 1463.39,128.924L1463.22,128.747C1460.98,131.04 1459.76,134.234 1459.72,137.219L1459.37,137.219ZM1460.52,137.219C1460.57,134.349 1461.69,131.609 1463.87,129.402L1463.69,129.224C1465.95,126.964 1468.93,125.814 1471.89,125.814C1471.93,125.814 1471.96,125.815 1472,125.815L1472,126.497C1471.96,126.496 1471.93,126.496 1471.89,126.496C1469.11,126.496 1466.3,127.582 1464.18,129.709L1464.02,129.549C1461.99,131.625 1460.89,134.516 1460.85,137.219L1460.52,137.219ZM1461.68,137.219C1461.72,134.648 1462.73,132.194 1464.68,130.217L1464.52,130.059C1466.55,128.03 1469.23,126.998 1471.89,126.998C1471.92,126.998 1471.96,126.998 1472,126.999L1472,127.611C1471.96,127.61 1471.92,127.61 1471.89,127.61C1469.38,127.61 1466.87,128.584 1464.96,130.494L1464.82,130.351C1463,132.21 1462.01,134.797 1461.97,137.219L1461.68,137.219ZM1462.84,137.219C1462.88,134.948 1463.77,132.779 1465.49,131.032L1465.36,130.893C1467.15,129.096 1469.52,128.182 1471.88,128.182C1471.92,128.182 1471.96,128.182 1472,128.183L1472,128.725C1471.96,128.724 1471.92,128.724 1471.88,128.724C1469.66,128.724 1467.43,129.587 1465.74,131.278L1465.62,131.153C1464.01,132.796 1463.13,135.078 1463.09,137.219L1462.84,137.219ZM1463.99,137.219C1464.04,135.248 1464.81,133.364 1466.31,131.847L1466.19,131.728C1467.75,130.162 1469.82,129.365 1471.87,129.365C1471.91,129.365 1471.96,129.366 1472,129.366L1472,129.839C1471.96,129.838 1471.91,129.838 1471.87,129.838C1469.94,129.838 1468,130.59 1466.52,132.063L1466.41,131.955C1465.02,133.381 1464.26,135.36 1464.22,137.219L1463.99,137.219ZM1465.15,137.219C1465.19,135.547 1465.85,133.949 1467.12,132.662L1467.02,132.562C1468.35,131.228 1470.11,130.549 1471.86,130.549C1471.91,130.549 1471.95,130.55 1472,130.55L1472,130.953C1471.95,130.952 1471.91,130.952 1471.86,130.952C1470.22,130.952 1468.56,131.592 1467.31,132.848L1467.21,132.757C1466.03,133.967 1465.38,135.641 1465.34,137.219L1465.15,137.219ZM1466.31,137.219C1466.35,135.847 1466.89,134.534 1467.93,133.477L1467.85,133.396C1468.95,132.294 1470.41,131.733 1471.85,131.733C1471.9,131.733 1471.95,131.733 1472,131.735L1472,132.067C1471.95,132.066 1471.9,132.065 1471.85,132.065C1470.49,132.065 1469.13,132.595 1468.09,133.633L1468.01,133.559C1467.05,134.552 1466.51,135.923 1466.46,137.219L1466.31,137.219ZM1467.46,137.219C1467.5,136.146 1467.93,135.119 1468.75,134.292L1468.68,134.231C1469.56,133.36 1470.7,132.916 1471.85,132.916C1471.9,132.916 1471.95,132.917 1472,132.919L1472,133.182C1471.95,133.18 1471.9,133.179 1471.85,133.179C1470.77,133.179 1469.69,133.598 1468.87,134.418L1468.81,134.361C1468.06,135.138 1467.63,136.205 1467.59,137.219L1467.46,137.219Z" style="fill:#733c52;"/>
            <path id="q24" serif:id="q2" d="M1487.05,137.219C1487.05,137.278 1487.05,137.337 1487.05,137.396C1487.05,141.268 1485.44,145.01 1482.49,147.965C1479.54,150.918 1475.87,152.43 1472,152.432L1472,151.812C1475.62,151.794 1479.28,150.283 1482.04,147.519C1484.82,144.738 1486.16,141.04 1486.16,137.396C1486.16,137.337 1486.16,137.278 1486.16,137.219L1487.05,137.219ZM1485.86,137.219C1485.86,137.277 1485.86,137.336 1485.86,137.394C1485.86,140.963 1484.38,144.412 1481.65,147.135C1478.93,149.853 1475.56,151.247 1472,151.252L1472,150.68C1475.33,150.66 1478.7,149.268 1481.24,146.723C1483.8,144.161 1485.04,140.753 1485.04,137.394C1485.04,137.336 1485.04,137.277 1485.04,137.219L1485.86,137.219ZM1484.66,137.219C1484.66,137.277 1484.66,137.334 1484.66,137.392C1484.66,140.658 1483.31,143.813 1480.82,146.305C1478.33,148.788 1475.25,150.063 1472,150.072L1472,149.549C1475.05,149.526 1478.12,148.252 1480.44,145.928C1482.79,143.583 1483.91,140.465 1483.91,137.392C1483.91,137.334 1483.91,137.277 1483.91,137.219L1484.66,137.219ZM1483.47,137.219C1483.47,137.276 1483.47,137.333 1483.47,137.39C1483.47,140.352 1482.24,143.215 1479.98,145.475C1477.73,147.723 1474.94,148.879 1472,148.892L1472,148.417C1474.76,148.392 1477.54,147.237 1479.64,145.133C1481.77,143.006 1482.79,140.178 1482.79,137.39C1482.79,137.333 1482.79,137.276 1482.79,137.219L1483.47,137.219ZM1482.28,137.219C1482.28,137.275 1482.28,137.332 1482.28,137.388C1482.28,140.047 1481.17,142.616 1479.14,144.645C1477.13,146.658 1474.63,147.696 1472,147.712L1472,147.285C1474.47,147.258 1476.95,146.222 1478.84,144.338C1480.75,142.429 1481.66,139.89 1481.66,137.388C1481.66,137.332 1481.66,137.275 1481.66,137.219L1482.28,137.219ZM1481.08,137.219C1481.08,137.275 1481.08,137.33 1481.08,137.386C1481.08,139.742 1480.1,142.018 1478.31,143.815C1476.53,145.593 1474.33,146.512 1472,146.532L1472,146.154C1474.18,146.123 1476.37,145.206 1478.04,143.543C1479.73,141.852 1480.54,139.603 1480.54,137.386C1480.54,137.33 1480.54,137.275 1480.54,137.219L1481.08,137.219ZM1479.89,137.219C1479.89,137.274 1479.89,137.329 1479.89,137.384C1479.89,139.436 1479.04,141.419 1477.47,142.985C1475.93,144.528 1474.02,145.328 1472,145.351L1472,145.022C1473.89,144.989 1475.79,144.191 1477.23,142.748C1478.71,141.275 1479.42,139.315 1479.42,137.384C1479.42,137.329 1479.42,137.274 1479.41,137.219L1479.89,137.219ZM1478.69,137.219C1478.69,137.274 1478.69,137.328 1478.69,137.382C1478.69,139.131 1477.97,140.821 1476.63,142.155C1475.33,143.463 1473.71,144.144 1472,144.171L1472,143.89C1473.6,143.855 1475.21,143.176 1476.43,141.953C1477.69,140.697 1478.29,139.028 1478.29,137.382C1478.29,137.328 1478.29,137.274 1478.29,137.219L1478.69,137.219ZM1477.5,137.219C1477.5,137.273 1477.5,137.327 1477.5,137.38C1477.5,138.825 1476.9,140.222 1475.8,141.325C1474.73,142.397 1473.4,142.961 1472,142.99L1472,142.758C1473.31,142.721 1474.63,142.16 1475.63,141.158C1476.67,140.12 1477.17,138.74 1477.17,137.38C1477.17,137.327 1477.17,137.273 1477.17,137.219L1477.5,137.219ZM1476.3,137.219C1476.31,137.272 1476.31,137.325 1476.31,137.378C1476.31,138.52 1475.83,139.623 1474.96,140.495C1474.12,141.332 1473.09,141.777 1472,141.81L1472,141.626C1473.02,141.587 1474.05,141.145 1474.83,140.363C1475.65,139.543 1476.04,138.453 1476.04,137.378C1476.04,137.325 1476.04,137.272 1476.04,137.219L1476.3,137.219Z" style="fill:#733c52;"/>
            <path id="q14" serif:id="q1" d="M1472,122.264C1475.85,122.283 1479.68,123.761 1482.62,126.695C1485.53,129.605 1487.01,133.406 1487.05,137.219L1486.16,137.219C1486.12,133.634 1484.73,130.062 1481.99,127.326C1479.23,124.565 1475.62,123.175 1472,123.155L1472,122.264ZM1472,123.447C1475.54,123.469 1479.07,124.831 1481.77,127.532C1484.45,130.211 1485.81,133.708 1485.86,137.219L1485.04,137.219C1484.99,133.919 1483.71,130.631 1481.19,128.113C1478.65,125.572 1475.33,124.291 1472,124.269L1472,123.447ZM1472,124.631C1475.23,124.655 1478.46,125.901 1480.93,128.368C1483.37,130.816 1484.62,134.011 1484.66,137.219L1483.91,137.219C1483.87,134.204 1482.7,131.201 1480.39,128.9C1478.07,126.579 1475.04,125.407 1472,125.383L1472,124.631ZM1472,125.815C1474.93,125.841 1477.85,126.971 1480.08,129.205C1482.3,131.422 1483.43,134.314 1483.47,137.219L1482.79,137.219C1482.75,134.489 1481.68,131.771 1479.6,129.687C1477.5,127.586 1474.75,126.523 1472,126.497L1472,125.815ZM1472,126.999C1474.62,127.027 1477.23,128.041 1479.23,130.041C1481.22,132.027 1482.23,134.617 1482.28,137.219L1481.66,137.219C1481.62,134.773 1480.67,132.34 1478.8,130.474C1476.92,128.593 1474.46,127.639 1472,127.611L1472,126.999ZM1472,128.183C1474.31,128.213 1476.62,129.111 1478.39,130.878C1480.14,132.632 1481.04,134.92 1481.08,137.219L1480.54,137.219C1480.5,135.058 1479.65,132.91 1478,131.261C1476.34,129.6 1474.17,128.755 1472,128.725L1472,128.183ZM1472,129.366C1474.01,129.398 1476.01,130.181 1477.54,131.714C1479.06,133.238 1479.85,135.222 1479.89,137.219L1479.41,137.219C1479.37,135.343 1478.64,133.48 1477.21,132.048C1475.77,130.607 1473.89,129.871 1472,129.839L1472,129.366ZM1472,130.55C1473.7,130.584 1475.39,131.251 1476.69,132.55C1477.99,133.843 1478.65,135.525 1478.69,137.219L1478.29,137.219C1478.25,135.628 1477.62,134.049 1476.41,132.835C1475.19,131.614 1473.6,130.987 1472,130.953L1472,130.55ZM1472,131.735C1473.39,131.77 1474.78,132.321 1475.85,133.387C1476.91,134.449 1477.46,135.828 1477.5,137.219L1477.17,137.219C1477.13,135.913 1476.61,134.619 1475.61,133.622C1474.61,132.621 1473.31,132.103 1472,132.067L1472,131.735ZM1472,132.919C1473.09,132.956 1474.17,133.391 1475,134.223C1475.83,135.054 1476.27,136.131 1476.3,137.219L1476.04,137.219C1476,136.198 1475.59,135.189 1474.81,134.409C1474.03,133.628 1473.02,133.219 1472,133.182L1472,132.919Z" style="fill:#733c52;"/>
        </g>
        <g id="_1" serif:id="1">
            <circle cx="1566.8" cy="232.098" r="15.75" style="fill:#fff;stroke:#fff;stroke-width:1.46px;"/>
            <g id="zen">
                <path id="q45" serif:id="q4" d="M1552.06,232.524C1552,229.807 1552.66,227.124 1554.04,224.474C1556.52,220.565 1559.85,218.207 1564.04,217.398C1565.14,217.174 1566.22,217.066 1567.26,217.074L1567.26,221.919C1565.99,221.931 1564.74,222.182 1563.5,222.672L1563.04,222.932C1563.92,222.657 1564.72,222.495 1565.44,222.446C1562.14,223.22 1559.77,224.9 1558.35,227.487C1557.74,228.574 1557.34,229.639 1557.15,230.682C1557.06,231.215 1557.01,231.732 1557,232.232L1556.92,232.524L1555.77,232.524C1555.77,232.446 1555.77,232.367 1555.77,232.289C1555.77,232.367 1555.76,232.446 1555.75,232.524L1552.06,232.524Z" style="fill:#733c52;"/>
                <path id="q15" serif:id="q1" d="M1567.26,217.074C1568.82,217.085 1570.31,217.354 1571.74,217.882C1572.63,218.166 1573.24,218.392 1573.55,218.56L1575.69,219.835C1575.75,219.769 1576.43,220.351 1577.73,221.581C1578.04,221.867 1578.45,222.319 1578.99,222.938L1579.74,224.343L1579.78,224.429C1579.41,224.044 1579.12,223.82 1578.92,223.759C1579.48,224.646 1579.96,225.353 1580.37,225.879C1580.61,226.315 1580.85,226.818 1581.08,227.387C1581.59,228.807 1581.9,230.024 1582.01,231.038C1582.1,231.522 1582.05,231.591 1581.85,231.246C1581.56,230.67 1581.23,230.077 1580.83,229.467L1580.82,230.917C1580.67,230.293 1580.51,229.766 1580.35,229.336C1580.09,229.032 1579.84,228.784 1579.61,228.592C1579.35,228.736 1579.23,228.878 1579.26,229.016C1579.44,230.082 1579.48,230.937 1579.38,231.581C1579.21,232.408 1579.07,232.574 1578.96,232.079L1578.88,231.83L1578.25,229.395C1578.22,229.292 1578.17,229.257 1578.11,229.291C1577.73,228.644 1577.36,228.123 1577.01,227.729C1576.87,227.528 1576.49,227.151 1575.89,226.598C1575.95,226.147 1575.97,225.938 1575.94,225.971L1575.46,225.368C1574.29,224.051 1572.46,223.01 1569.97,222.247C1569.06,222.02 1568.15,221.91 1567.26,221.919L1567.26,217.074Z" style="fill:#733c52;"/>
                <path id="q35" serif:id="q3" d="M1567.26,247.622C1564.59,247.621 1561.98,246.873 1559.44,245.379C1557.88,244.413 1556.52,243.178 1555.38,241.676C1554.84,240.955 1554.42,240.319 1554.12,239.768C1553.87,239.311 1553.61,238.811 1553.35,238.268C1553.33,238.2 1553.32,238.215 1553.33,238.311L1553.22,238.101C1553.1,237.867 1552.95,237.471 1552.76,236.912C1552.32,235.44 1552.09,233.977 1552.06,232.524L1555.75,232.524C1555.58,235.009 1556.38,237.497 1558.15,239.99C1559.87,242.216 1562.11,243.675 1564.87,244.367C1565.71,244.541 1566.5,244.642 1567.26,244.669L1567.26,246.729C1565.63,246.754 1563.97,246.481 1562.26,245.909C1563.88,246.64 1565.55,247.031 1567.26,247.081L1567.26,247.622ZM1555.77,232.524L1556.92,232.524L1556.65,233.651C1556.67,234.251 1556.77,234.872 1556.94,235.514C1557.9,238.504 1559.68,240.783 1562.29,242.351C1563.99,243.231 1565.64,243.72 1567.26,243.817L1567.26,244.444C1566.34,244.42 1565.42,244.278 1564.51,244.017C1562.2,243.409 1560.14,241.982 1558.34,239.735C1557.4,238.424 1556.77,237.298 1556.44,236.358C1556.01,235.063 1555.79,233.785 1555.77,232.524Z" style="fill:#733c52;"/>
                <path id="q25" serif:id="q2" d="M1567.26,243.817C1568.37,243.884 1569.46,243.766 1570.54,243.465C1571.15,243.317 1571.84,243.071 1572.6,242.726C1573.27,242.421 1574.01,241.985 1574.8,241.418C1574.67,241.605 1574.75,241.609 1575.03,241.43C1576.09,240.62 1576.98,239.605 1577.69,238.387C1577.33,239.36 1576.75,240.199 1575.95,240.906C1574.45,242.241 1573.13,243.128 1571.99,243.566C1570.39,244.191 1568.81,244.483 1567.26,244.444L1567.26,243.817ZM1567.26,244.669C1568.15,244.7 1568.99,244.631 1569.78,244.462C1571.76,244.037 1573.51,243.296 1575.04,242.238C1578.12,239.612 1579.71,236.43 1579.82,232.692C1579.84,233.974 1579.59,235.467 1579.07,237.17C1579.52,236.933 1579.87,235.983 1580.12,234.318C1580.05,235.068 1579.87,235.993 1579.56,237.092C1579.53,237.172 1579.56,237.213 1579.64,237.216C1579.58,237.465 1579.42,237.96 1579.15,238.701L1579.86,237.831C1579.72,238.264 1579.2,239.184 1578.3,240.589C1576.42,243.158 1573.96,244.888 1570.92,245.779C1572.99,245.4 1574.98,244.327 1576.9,242.561C1576.45,243.053 1575.95,243.497 1575.39,243.892C1572.8,245.739 1570.09,246.685 1567.26,246.729L1567.26,244.669ZM1567.26,247.081C1569.5,247.146 1571.81,246.629 1574.19,245.53C1573.96,245.797 1573.07,246.255 1571.51,246.905C1570.86,247.156 1570.29,247.323 1569.79,247.405C1568.94,247.55 1568.1,247.623 1567.26,247.622L1567.26,247.081Z" style="fill:#733c52;"/>
            </g>
        </g>
    </g>
    <g id="S-melisma" serif:id="S melisma" sound="Scale/X" loop="false">
        <path id="Sounder4" serif:id="Sounder" d="M1626.8,2303.4C1601.54,2347.14 1545.53,2362.15 1501.8,2336.9C1458.06,2311.65 1443.05,2255.64 1468.31,2211.9C1493.56,2168.16 1549.57,2153.15 1593.31,2178.4C1637.04,2203.65 1652.05,2259.66 1626.8,2303.4Z" style="fill:#fff;"/>
        <g id="Ring4" serif:id="Ring" opacity="0.5">
            <path d="M1626.8,2303.4C1601.54,2347.14 1545.53,2362.15 1501.8,2336.9C1458.06,2311.65 1443.05,2255.64 1468.31,2211.9C1493.56,2168.16 1549.57,2153.15 1593.31,2178.4C1637.04,2203.65 1652.05,2259.66 1626.8,2303.4Z" style="fill:none;stroke:#000;stroke-width:1.93px;"/>
            <path d="M1626.8,2303.4L1621.73,2300.47" style="fill:none;stroke:#000;stroke-width:1.93px;"/>
            <path d="M1473.37,2214.82L1468.31,2211.9" style="fill:none;stroke:#000;stroke-width:1.93px;"/>
            <path d="M1504.72,2331.83L1501.8,2336.9" style="fill:none;stroke:#000;stroke-width:1.93px;"/>
            <path d="M1593.31,2178.4L1590.38,2183.47" style="fill:none;stroke:#000;stroke-width:1.93px;"/>
            <path d="M1593.31,2336.89L1590.38,2331.83" style="fill:none;stroke:#000;stroke-width:1.93px;"/>
            <path d="M1504.72,2183.47L1501.8,2178.4" style="fill:none;stroke:#000;stroke-width:1.93px;"/>
            <path d="M1473.37,2300.48L1468.3,2303.4" style="fill:none;stroke:#000;stroke-width:1.93px;"/>
            <path d="M1626.8,2211.89L1621.74,2214.82" style="fill:none;stroke:#000;stroke-width:1.93px;"/>
            <path d="M1547.55,2349.16L1547.55,2343.31" style="fill:none;stroke:#000;stroke-width:1.93px;"/>
            <path d="M1547.55,2171.99L1547.55,2166.14" style="fill:none;stroke:#000;stroke-width:1.93px;"/>
            <path d="M1461.89,2257.65L1456.05,2257.65" style="fill:none;stroke:#000;stroke-width:1.93px;"/>
            <path d="M1639.06,2257.65L1633.21,2257.65" style="fill:none;stroke:#000;stroke-width:1.93px;"/>
        </g>
        <g id="Root-Markers" serif:id="Root Markers">
        </g>
        <g id="Notes4" serif:id="Notes">
            <path id="_115" serif:id="11" d="M1515.04,2186.94C1510.8,2194.29 1501.39,2196.81 1494.04,2192.57C1486.69,2188.33 1484.17,2178.92 1488.41,2171.57C1492.65,2164.22 1502.06,2161.7 1509.41,2165.94C1516.76,2170.18 1519.28,2179.6 1515.04,2186.94Z" style="fill:#df4c44;stroke:#fff;stroke-width:4.63px;"/>
            <path id="_91" serif:id="9" d="M1469.36,2267.14C1465.12,2274.49 1455.71,2277.01 1448.36,2272.76C1441.01,2268.52 1438.49,2259.11 1442.73,2251.76C1446.97,2244.42 1456.38,2241.89 1463.73,2246.14C1471.08,2250.38 1473.6,2259.79 1469.36,2267.14Z" style="fill:#df4c44;stroke:#fff;stroke-width:4.63px;"/>
            <path id="_74" serif:id="7" d="M1515.93,2344.34C1511.69,2351.69 1502.28,2354.21 1494.93,2349.97C1487.58,2345.72 1485.06,2336.31 1489.3,2328.97C1493.54,2321.62 1502.95,2319.1 1510.3,2323.34C1517.65,2327.58 1520.17,2336.99 1515.93,2344.34Z" style="fill:#df4c44;stroke:#fff;stroke-width:4.63px;"/>
            <path id="_63" serif:id="6" d="M1560.87,2357.29C1556.62,2364.64 1547.21,2367.16 1539.87,2362.92C1532.52,2358.68 1530,2349.27 1534.24,2341.92C1538.48,2334.57 1547.89,2332.05 1555.24,2336.29C1562.59,2340.54 1565.11,2349.95 1560.87,2357.29Z" style="fill:#df4c44;stroke:#fff;stroke-width:4.63px;"/>
            <path id="_44" serif:id="4" d="M1639.5,2311.58C1635.25,2318.93 1625.84,2321.45 1618.49,2317.21C1611.15,2312.97 1608.62,2303.55 1612.87,2296.21C1617.11,2288.86 1626.52,2286.34 1633.87,2290.58C1641.22,2294.82 1643.74,2304.23 1639.5,2311.58Z" style="fill:#df4c44;stroke:#fff;stroke-width:4.63px;"/>
            <path id="_25" serif:id="2" d="M1639.49,2220.8C1635.25,2228.15 1625.84,2230.68 1618.49,2226.43C1611.14,2222.19 1608.62,2212.78 1612.86,2205.43C1617.11,2198.08 1626.52,2195.56 1633.87,2199.8C1641.21,2204.05 1643.74,2213.46 1639.49,2220.8Z" style="fill:#df4c44;stroke:#fff;stroke-width:4.63px;"/>
            <path id="_05" serif:id="0" d="M1560.87,2174.83C1556.62,2182.17 1547.21,2184.7 1539.87,2180.45C1532.52,2176.21 1530,2166.8 1534.24,2159.45C1538.48,2152.1 1547.89,2149.58 1555.24,2153.82C1562.59,2158.07 1565.11,2167.48 1560.87,2174.83Z" style="fill:#df4c44;stroke:#fff;stroke-width:4.63px;"/>
        </g>
        <g id="Treble-Marker" serif:id="Treble Marker">
        </g>
    </g>
</svg>
