<?xml version="1.0" encoding="UTF-8" standalone="no"?>
<!DOCTYPE svg PUBLIC "-//W3C//DTD SVG 1.1//EN" "http://www.w3.org/Graphics/SVG/1.1/DTD/svg11.dtd">
<svg width="100%" height="100%" viewBox="0 0 1701 2481" version="1.1" xmlns="http://www.w3.org/2000/svg" xmlns:xlink="http://www.w3.org/1999/xlink" xml:space="preserve" xmlns:serif="http://www.serif.com/" style="fill-rule:evenodd;clip-rule:evenodd;stroke-linecap:round;stroke-linejoin:round;stroke-miterlimit:1.5;">
    <rect id="X2W" x="0.552" y="0.356" width="1700" height="2480" style="fill:none;"/>
    <g id="Fields" opacity="0.2" sound="Field/01-Zen">
        <path id="_7" serif:id="7" d="M498.039,1586.26L10.931,2060.47L10.931,2469.85L514.945,2469.94L717.574,1716.21C631.474,1691.86 562.838,1651.48 498.039,1586.26Z" style="fill:#ea8d58;stroke:#767676;stroke-width:8.33px;"/>
    </g>
    <g id="SG">
        <g id="Meta-Ring">
            <path d="M1262.62,1480.25C1131.3,1707.69 840.053,1785.74 612.629,1654.44C385.205,1523.13 307.175,1231.88 438.488,1004.44C569.802,776.995 861.051,698.943 1088.47,830.246C1315.9,961.549 1393.93,1252.81 1262.62,1480.25Z" style="fill:none;stroke:#000;stroke-width:0.48px;stroke-linecap:square;"/>
            <path d="M1262.62,1480.25L1236.27,1465.04" style="fill:none;stroke:#000;stroke-width:0.48px;stroke-linecap:square;"/>
            <path d="M464.831,1019.64L438.488,1004.44" style="fill:none;stroke:#000;stroke-width:0.48px;stroke-linecap:square;"/>
            <path d="M627.838,1628.09L612.629,1654.44" style="fill:none;stroke:#000;stroke-width:0.48px;stroke-linecap:square;"/>
            <path d="M1088.47,830.246L1073.27,856.589" style="fill:none;stroke:#000;stroke-width:0.48px;stroke-linecap:square;"/>
            <path d="M1088.46,1654.42L1073.26,1628.08" style="fill:none;stroke:#000;stroke-width:0.48px;stroke-linecap:square;"/>
            <path d="M627.848,856.606L612.639,830.263" style="fill:none;stroke:#000;stroke-width:0.48px;stroke-linecap:square;"/>
            <path d="M464.801,1465.05L438.458,1480.26" style="fill:none;stroke:#000;stroke-width:0.48px;stroke-linecap:square;"/>
            <path d="M1262.64,1004.42L1236.3,1019.63" style="fill:none;stroke:#000;stroke-width:0.48px;stroke-linecap:square;"/>
            <path d="M850.552,1718.18L850.552,1687.77" style="fill:none;stroke:#000;stroke-width:0.48px;stroke-linecap:square;"/>
            <path d="M850.552,796.914L850.552,766.497" style="fill:none;stroke:#000;stroke-width:0.48px;stroke-linecap:square;"/>
            <path d="M405.143,1242.34L374.726,1242.34" style="fill:none;stroke:#000;stroke-width:0.48px;stroke-linecap:square;"/>
            <path d="M1326.38,1242.34L1295.96,1242.34" style="fill:none;stroke:#000;stroke-width:0.48px;stroke-linecap:square;"/>
        </g>
        <g id="Ring-Backers" serif:id="Ring Backers">
        </g>
        <g id="Child-Rings" serif:id="Child Rings">
        </g>
    </g>
    <a href="X2W2.svg">
    <g id="S">
        <g id="Ring">
            <path id="Backer" d="M1261.99,1477.36C1131.1,1704.06 840.79,1781.85 614.102,1650.98C387.414,1520.1 309.637,1229.8 440.525,1003.09C571.414,776.393 861.721,698.596 1088.41,829.471C1315.1,960.347 1392.87,1250.65 1261.99,1477.36Z" style="fill:#fff;"/>
            <path d="M1261.99,1477.36C1131.1,1704.06 840.79,1781.85 614.102,1650.98C387.414,1520.1 309.637,1229.8 440.525,1003.09C571.414,776.393 861.721,698.596 1088.41,829.471C1315.1,960.347 1392.87,1250.65 1261.99,1477.36Z" style="fill:none;stroke:#000;stroke-width:8.33px;"/>
            <path d="M1261.99,1477.36L1235.73,1462.2" style="fill:none;stroke:#000;stroke-width:8.33px;"/>
            <path d="M466.783,1018.25L440.525,1003.09" style="fill:none;stroke:#000;stroke-width:8.33px;"/>
            <path d="M629.262,1624.72L614.102,1650.98" style="fill:none;stroke:#000;stroke-width:8.33px;"/>
            <path d="M1088.41,829.471L1073.25,855.728" style="fill:none;stroke:#000;stroke-width:8.33px;"/>
            <path d="M1088.4,1650.96L1073.24,1624.7" style="fill:none;stroke:#000;stroke-width:8.33px;"/>
            <path d="M629.272,855.746L614.112,829.489" style="fill:none;stroke:#000;stroke-width:8.33px;"/>
            <path d="M466.753,1462.21L440.495,1477.37" style="fill:none;stroke:#000;stroke-width:8.33px;"/>
            <path d="M1262.02,1003.08L1235.76,1018.24" style="fill:none;stroke:#000;stroke-width:8.33px;"/>
            <path d="M851.256,1714.52L851.256,1684.2" style="fill:none;stroke:#000;stroke-width:8.33px;"/>
            <path d="M851.256,796.248L851.256,765.93" style="fill:none;stroke:#000;stroke-width:8.33px;"/>
            <path d="M407.288,1240.23L376.969,1240.23" style="fill:none;stroke:#000;stroke-width:8.33px;"/>
            <path d="M1325.54,1240.23L1295.22,1240.23" style="fill:none;stroke:#000;stroke-width:8.33px;"/>
        </g>
        <g id="Root-Markers" serif:id="Root Markers">
            <path id="_0" serif:id="0" d="M851.906,870.883L888.206,971.716L815.606,971.716L851.906,870.883ZM851.906,927.203L842.749,952.64L861.063,952.64L851.906,927.203Z" style="fill:#eea25f;"/>
        </g>
        <g id="Notes">
            <path id="_11" serif:id="11" sound="Font/2-Mid-B" d="M682.739,873.758C660.75,911.844 611.976,924.913 573.889,902.924C535.803,880.935 522.734,832.162 544.723,794.076C566.712,755.991 615.486,742.922 653.573,764.911C691.659,786.9 704.728,835.673 682.739,873.758Z" style="fill:#eea25f;stroke:#fff;stroke-width:24px;"/>
            <path id="_9" serif:id="9" sound="Font/2-Mid-A" d="M445.977,1289.41C423.987,1327.5 375.214,1340.57 337.127,1318.58C299.04,1296.59 285.972,1247.82 307.961,1209.73C329.95,1171.65 378.724,1158.58 416.811,1180.57C454.897,1202.56 467.966,1251.33 445.977,1289.41Z" style="fill:#eea25f;stroke:#fff;stroke-width:24px;"/>
            <path id="_01" serif:id="0" sound="Font/2-Low-C" d="M920.264,810.954C898.274,849.039 849.5,862.108 811.414,840.119C773.327,818.13 760.258,769.358 782.248,731.272C804.237,693.186 853.011,680.117 891.097,702.106C929.184,724.095 942.253,772.868 920.264,810.954Z" style="fill:#eea25f;stroke:#fff;stroke-width:24px;"/>
        </g>
        <g id="Treble-Marker" serif:id="Treble Marker">
            <g id="_71" serif:id="7" sound="Font/2-High-G">
                <path id="_7u" serif:id="7u" d="M687.356,1689.55C665.367,1727.64 616.593,1740.71 578.507,1718.72C540.42,1696.73 527.351,1647.96 549.341,1609.87C571.33,1571.79 620.104,1558.72 658.19,1580.7C696.277,1602.69 709.346,1651.47 687.356,1689.55Z" style="fill:#fff;stroke:#fff;stroke-width:33.33px;"/>
                <circle id="_7a" serif:id="7a" cx="618.348" cy="1649.71" r="64" style="fill:#fff;stroke:#eea25f;stroke-width:16.67px;"/>
            </g>
        </g>
    </g>
    </a>
    <g id="Songs">
        <g id="song-1-zen" serif:id="song 1 zen">
            <g id="X2W2" sound="Song/01-Zen-X2W2">
                <path d="M250.602,2360.36C231.205,2360.46 211.794,2352.99 197.217,2337.99L171.46,2311.51C158.093,2297.76 151.155,2280.13 150.594,2262.35L251.262,2262.53L250.602,2360.36Z" style="fill:#f6cc6d;stroke:#fff;stroke-width:1.67px;"/>
                <path d="M350.525,2262.71C350.027,2281.3 342.562,2299.72 328.19,2313.7L301.703,2339.45C287.457,2353.31 269.036,2360.26 250.602,2360.36L251.262,2262.53L350.525,2262.71Z" style="fill:#f6cc6d;stroke:#fff;stroke-width:1.67px;"/>
                <path d="M250.602,2263.36L250.602,2359.36" style="fill:none;stroke:#f6cc6d;stroke-width:4.17px;stroke-linecap:butt;"/>
                <path id="q3" d="M250.96,2347.54C235.806,2347.53 221.037,2343.29 206.652,2334.83C197.778,2329.35 190.098,2322.36 183.613,2313.84C180.559,2309.76 178.187,2306.15 176.495,2303.03C175.053,2300.44 173.604,2297.61 172.148,2294.53C171.997,2294.15 171.947,2294.23 171.999,2294.77L171.384,2293.59C170.731,2292.26 169.864,2290.01 168.783,2286.85C166.29,2278.51 164.96,2270.22 164.791,2261.98L185.748,2261.98C184.79,2276.06 189.321,2290.16 199.343,2304.29C209.088,2316.9 221.783,2325.17 237.429,2329.09C242.145,2330.08 246.655,2330.65 250.96,2330.8L250.96,2342.48C241.735,2342.62 232.284,2341.07 222.609,2337.83C231.815,2341.97 241.265,2344.19 250.96,2344.47L250.96,2347.54ZM185.856,2261.98L192.389,2261.98L190.847,2268.37C190.933,2271.77 191.485,2275.29 192.501,2278.93C197.923,2295.87 208.026,2308.78 222.811,2317.67C232.415,2322.66 241.798,2325.42 250.96,2325.97L250.96,2329.53C245.711,2329.39 240.514,2328.59 235.371,2327.11C222.263,2323.66 210.601,2315.58 200.383,2302.85C195.093,2295.41 191.508,2289.03 189.628,2283.71C187.189,2276.37 185.932,2269.13 185.856,2261.98Z" style="fill:#e7e7e7;"/>
                <path id="q2" d="M250.96,2325.97C257.247,2326.35 263.431,2325.69 269.51,2323.98C272.988,2323.14 276.884,2321.75 281.199,2319.8C285.026,2318.07 289.186,2315.59 293.679,2312.38C292.937,2313.44 293.366,2313.47 294.966,2312.45C300.986,2307.86 306.018,2302.11 310.063,2295.2C308.008,2300.72 304.727,2305.48 300.221,2309.48C291.693,2317.04 284.199,2322.07 277.739,2324.55C268.665,2328.09 259.738,2329.75 250.96,2329.53L250.96,2325.97ZM250.96,2330.8C255.989,2330.98 260.738,2330.59 265.207,2329.63C276.434,2327.22 286.376,2323.02 295.034,2317.03C312.476,2302.15 321.504,2284.11 322.118,2262.93C322.224,2270.2 320.805,2278.66 317.863,2288.31C320.401,2286.97 322.388,2281.58 323.824,2272.15C323.442,2276.4 322.384,2281.64 320.648,2287.87C320.48,2288.32 320.631,2288.55 321.102,2288.57C320.777,2289.98 319.862,2292.78 318.356,2296.99L322.367,2292.05C321.569,2294.51 318.621,2299.72 313.525,2307.68C302.855,2322.24 288.915,2332.04 271.705,2337.09C283.422,2334.95 294.705,2328.87 305.557,2318.86C303.048,2321.65 300.198,2324.16 297.007,2326.4C282.337,2336.87 266.988,2342.23 250.96,2342.48L250.96,2330.8ZM250.96,2344.47C263.627,2344.84 276.712,2341.91 290.214,2335.68C288.938,2337.19 283.879,2339.79 275.036,2343.47C271.352,2344.89 268.094,2345.84 265.264,2346.31C260.458,2347.13 255.691,2347.54 250.96,2347.54L250.96,2344.47Z" style="fill:#e7e7e7;"/>
            </g>
            <g id="X2W1" serif:id="X2W" sound="Song/01-Zen-X2W">
                <path d="M251.95,2160.37C270.864,2160.63 289.676,2168.11 303.892,2182.72L329.649,2209.21C344.103,2224.07 351.04,2243.48 350.525,2262.71L251.262,2262.53L251.95,2160.37Z" style="fill:#eea25f;stroke:#fff;stroke-width:1.67px;"/>
                <path d="M150.594,2262.35C149.962,2242.31 157.428,2222.09 172.919,2207.02L199.405,2181.26C214.023,2167.05 233.037,2160.1 251.95,2160.37L251.262,2262.53L150.594,2262.35Z" style="fill:#eea25f;stroke:#fff;stroke-width:1.67px;"/>
                <path d="M251.052,2161.36L250.96,2261.36" style="fill:none;stroke:#eea25f;stroke-width:4.17px;stroke-linecap:butt;"/>
                <path id="q4" d="M164.791,2261.98C164.474,2246.59 168.219,2231.38 176.025,2216.36C190.097,2194.22 208.982,2180.85 232.68,2176.27C238.952,2175 245.045,2174.39 250.96,2174.43L250.96,2201.89C243.754,2201.95 236.65,2203.38 229.648,2206.16L227.044,2207.62C232.028,2206.07 236.561,2205.15 240.64,2204.87C221.933,2209.26 208.532,2218.78 200.435,2233.44C197.004,2239.6 194.744,2245.63 193.656,2251.54C193.138,2254.56 192.849,2257.49 192.788,2260.33L192.389,2261.98L185.856,2261.98C185.851,2261.54 185.851,2261.09 185.856,2260.65C185.814,2261.09 185.779,2261.54 185.748,2261.98L164.791,2261.98Z" style="fill:#e7e7e7;"/>
                <path id="q1" d="M250.96,2174.43C259.808,2174.49 268.258,2176.02 276.309,2179.01C281.41,2180.62 284.839,2181.9 286.596,2182.86L298.749,2190.08C299.044,2189.7 302.895,2193 310.303,2199.97C312.016,2201.59 314.387,2204.16 317.417,2207.66L321.674,2215.62L321.886,2216.11C319.78,2213.93 318.152,2212.66 317.002,2212.32C320.195,2217.34 322.933,2221.35 325.215,2224.33C326.578,2226.8 327.934,2229.65 329.285,2232.88C332.152,2240.92 333.901,2247.81 334.531,2253.56C335.046,2256.3 334.737,2256.69 333.604,2254.74C332.005,2251.48 330.087,2248.12 327.851,2244.66L327.774,2252.87C326.918,2249.34 326.041,2246.35 325.143,2243.92C323.631,2242.2 322.235,2240.79 320.957,2239.7C319.456,2240.52 318.784,2241.32 318.941,2242.1C319.98,2248.14 320.212,2252.99 319.635,2256.64C318.679,2261.33 317.888,2262.27 317.264,2259.46L316.828,2258.05L313.241,2244.25C313.072,2243.66 312.804,2243.47 312.436,2243.66C310.281,2239.99 308.205,2237.04 306.21,2234.81C305.388,2233.67 303.274,2231.53 299.87,2228.4C300.225,2225.84 300.317,2224.66 300.147,2224.85L297.396,2221.43C290.771,2213.97 280.406,2208.07 266.301,2203.74C261.137,2202.46 256.023,2201.84 250.96,2201.89L250.96,2174.43Z" style="fill:#e7e7e7;"/>
            </g>
        </g>
    </g>
    <g id="Map">
        <g id="Frame">
            <rect x="1472.05" y="41.898" width="190" height="190" style="fill:#fff;"/>
            <rect x="1472.05" y="41.898" width="190" height="190" style="fill:none;stroke:#000;stroke-width:1.17px;stroke-linejoin:bevel;"/>
            <rect x="1523.93" y="93.773" width="86.25" height="86.25" style="fill:none;stroke:#000;stroke-width:1.25px;stroke-linejoin:bevel;"/>
            <path d="M1610.18,93.773L1662.05,42.106" style="fill:none;stroke:#000;stroke-width:1.25px;stroke-linejoin:bevel;"/>
            <path d="M1523.93,93.773L1472.47,42.106" style="fill:none;stroke:#000;stroke-width:1.25px;stroke-linejoin:bevel;"/>
            <path d="M1523.93,180.023L1472.05,231.898" style="fill:none;stroke:#000;stroke-width:1.25px;stroke-linejoin:bevel;"/>
            <path d="M1610.18,180.023L1662.05,231.898" style="fill:none;stroke:#000;stroke-width:1.25px;stroke-linejoin:bevel;"/>
        </g>
        <g id="Dots">
            <circle cx="1472.05" cy="231.856" r="1.5" style="stroke:#000;stroke-width:1.25px;stroke-linejoin:bevel;"/>
            <circle cx="1566.75" cy="231.981" r="1.5" style="stroke:#000;stroke-width:1.25px;stroke-linejoin:bevel;"/>
            <circle cx="1662.05" cy="231.856" r="1.5" style="stroke:#000;stroke-width:1.25px;stroke-linejoin:bevel;"/>
            <circle cx="1634.4" cy="204.023" r="1.5" style="stroke:#000;stroke-width:1.25px;stroke-linejoin:bevel;"/>
            <circle cx="1610.18" cy="179.856" r="1.5" style="stroke:#000;stroke-width:1.25px;stroke-linejoin:bevel;"/>
            <circle cx="1609.75" cy="136.981" r="1.5" style="stroke:#000;stroke-width:1.25px;stroke-linejoin:bevel;"/>
            <circle cx="1609.87" cy="93.731" r="1.5" style="stroke:#000;stroke-width:1.25px;stroke-linejoin:bevel;"/>
            <circle cx="1634.31" cy="69.523" r="1.5" style="stroke:#000;stroke-width:1.25px;stroke-linejoin:bevel;"/>
            <circle cx="1566.75" cy="93.731" r="1.5" style="stroke:#000;stroke-width:1.25px;stroke-linejoin:bevel;"/>
            <circle cx="1523.62" cy="93.856" r="1.5" style="stroke:#000;stroke-width:1.25px;stroke-linejoin:bevel;"/>
            <circle cx="1567.05" cy="41.856" r="1.5" style="stroke:#000;stroke-width:1.25px;stroke-linejoin:bevel;"/>
            <circle cx="1472.05" cy="41.898" r="1.5" style="stroke:#000;stroke-width:1.25px;stroke-linejoin:bevel;"/>
            <circle cx="1499.9" cy="69.856" r="1.5" style="stroke:#000;stroke-width:1.25px;stroke-linejoin:bevel;"/>
            <circle cx="1472.05" cy="136.898" r="1.5" style="stroke:#000;stroke-width:1.25px;stroke-linejoin:bevel;"/>
            <circle cx="1523.93" cy="136.898" r="1.5" style="stroke:#000;stroke-width:1.25px;stroke-linejoin:bevel;"/>
            <circle cx="1566.55" cy="180.023" r="1.5" style="stroke:#000;stroke-width:1.25px;stroke-linejoin:bevel;"/>
            <circle cx="1523.9" cy="179.856" r="1.5" style="stroke:#000;stroke-width:1.25px;stroke-linejoin:bevel;"/>
            <circle cx="1499.7" cy="204.356" r="1.5" style="stroke:#000;stroke-width:1.25px;stroke-linejoin:bevel;"/>
            <circle cx="1662.05" cy="136.898" r="1.5" style="stroke:#000;stroke-width:1.25px;stroke-linejoin:bevel;"/>
            <circle cx="1662.05" cy="42.006" r="1.5" style="stroke:#000;stroke-width:1.25px;stroke-linejoin:bevel;"/>
        </g>
        <g>
            <path d="M1662.05,231.523L1567.05,231.898L1662.05,231.523Z" style="fill:none;stroke:#f5cd6c;stroke-width:5.99px;"/>
            <path d="M1472.05,231.856L1567.55,231.856" style="fill:none;stroke:#df4c44;stroke-width:5.99px;"/>
        </g>
        <g id="_1" serif:id="1">
            <circle cx="1566.8" cy="231.606" r="15.75" style="fill:#fff;stroke:#fff;stroke-width:1.46px;"/>
            <g id="zen">
                <path id="q41" serif:id="q4" d="M1552.06,232.033C1552,229.316 1552.66,226.632 1554.04,223.982C1556.52,220.074 1559.85,217.716 1564.04,216.907C1565.14,216.683 1566.22,216.575 1567.26,216.582L1567.26,221.427C1565.99,221.44 1564.74,221.691 1563.5,222.181L1563.04,222.44C1563.92,222.166 1564.72,222.004 1565.44,221.955C1562.14,222.728 1559.77,224.409 1558.35,226.995C1557.74,228.082 1557.34,229.147 1557.15,230.19C1557.06,230.724 1557.01,231.24 1557,231.741L1556.92,232.033L1555.77,232.033C1555.77,231.954 1555.77,231.876 1555.77,231.797C1555.77,231.876 1555.76,231.954 1555.75,232.033L1552.06,232.033Z" style="fill:#733c52;"/>
                <path id="q11" serif:id="q1" d="M1567.26,216.582C1568.82,216.593 1570.31,216.863 1571.74,217.391C1572.63,217.675 1573.24,217.9 1573.55,218.069L1575.69,219.343C1575.75,219.278 1576.43,219.86 1577.73,221.089C1578.04,221.375 1578.45,221.828 1578.99,222.447L1579.74,223.852L1579.78,223.938C1579.41,223.552 1579.12,223.329 1578.92,223.268C1579.48,224.155 1579.96,224.862 1580.37,225.387C1580.61,225.824 1580.85,226.327 1581.08,226.896C1581.59,228.316 1581.9,229.532 1582.01,230.546C1582.1,231.03 1582.05,231.1 1581.85,230.754C1581.56,230.179 1581.23,229.586 1580.83,228.975L1580.82,230.425C1580.67,229.802 1580.51,229.275 1580.35,228.845C1580.09,228.541 1579.84,228.293 1579.61,228.101C1579.35,228.245 1579.23,228.386 1579.26,228.524C1579.44,229.591 1579.48,230.446 1579.38,231.089C1579.21,231.917 1579.07,232.083 1578.96,231.588L1578.88,231.339L1578.25,228.903C1578.22,228.8 1578.17,228.766 1578.11,228.8C1577.73,228.152 1577.36,227.632 1577.01,227.238C1576.87,227.037 1576.49,226.66 1575.89,226.106C1575.95,225.655 1575.97,225.446 1575.94,225.48L1575.46,224.877C1574.29,223.559 1572.46,222.519 1569.97,221.755C1569.06,221.528 1568.15,221.419 1567.26,221.427L1567.26,216.582Z" style="fill:#733c52;"/>
                <path id="q31" serif:id="q3" d="M1567.26,247.131C1564.59,247.129 1561.98,246.382 1559.44,244.887C1557.88,243.921 1556.52,242.687 1555.38,241.185C1554.84,240.464 1554.42,239.828 1554.12,239.277C1553.87,238.82 1553.61,238.32 1553.35,237.777C1553.33,237.709 1553.32,237.723 1553.33,237.819L1553.22,237.61C1553.1,237.376 1552.95,236.98 1552.76,236.421C1552.32,234.949 1552.09,233.486 1552.06,232.033L1555.75,232.033C1555.58,234.517 1556.38,237.006 1558.15,239.498C1559.87,241.725 1562.11,243.184 1564.87,243.875C1565.71,244.05 1566.5,244.151 1567.26,244.178L1567.26,246.238C1565.63,246.263 1563.97,245.989 1562.26,245.417C1563.88,246.149 1565.55,246.54 1567.26,246.59L1567.26,247.131ZM1555.77,232.033L1556.92,232.033L1556.65,233.16C1556.67,233.76 1556.77,234.381 1556.94,235.023C1557.9,238.012 1559.68,240.291 1562.29,241.86C1563.99,242.74 1565.64,243.228 1567.26,243.326L1567.26,243.953C1566.34,243.929 1565.42,243.787 1564.51,243.526C1562.2,242.918 1560.14,241.491 1558.34,239.244C1557.4,237.932 1556.77,236.807 1556.44,235.867C1556.01,234.572 1555.79,233.294 1555.77,232.033Z" style="fill:#733c52;"/>
                <path id="q21" serif:id="q2" d="M1567.26,243.326C1568.37,243.392 1569.46,243.275 1570.54,242.974C1571.15,242.826 1571.84,242.579 1572.6,242.235C1573.27,241.93 1574.01,241.494 1574.8,240.927C1574.67,241.114 1574.75,241.118 1575.03,240.938C1576.09,240.128 1576.98,239.114 1577.69,237.895C1577.33,238.868 1576.75,239.708 1575.95,240.415C1574.45,241.75 1573.13,242.636 1571.99,243.074C1570.39,243.699 1568.81,243.992 1567.26,243.953L1567.26,243.326ZM1567.26,244.178C1568.15,244.209 1568.99,244.14 1569.78,243.97C1571.76,243.546 1573.51,242.805 1575.04,241.747C1578.12,239.121 1579.71,235.938 1579.82,232.201C1579.84,233.483 1579.59,234.975 1579.07,236.679C1579.52,236.442 1579.87,235.491 1580.12,233.827C1580.05,234.577 1579.87,235.502 1579.56,236.601C1579.53,236.681 1579.56,236.722 1579.64,236.724C1579.58,236.973 1579.42,237.468 1579.15,238.21L1579.86,237.34C1579.72,237.773 1579.2,238.692 1578.3,240.098C1576.42,242.666 1573.96,244.396 1570.92,245.288C1572.99,244.909 1574.98,243.836 1576.9,242.069C1576.45,242.562 1575.95,243.006 1575.39,243.401C1572.8,245.248 1570.09,246.194 1567.26,246.238L1567.26,244.178ZM1567.26,246.59C1569.5,246.655 1571.81,246.138 1574.19,245.039C1573.96,245.305 1573.07,245.763 1571.51,246.413C1570.86,246.664 1570.29,246.831 1569.79,246.914C1568.94,247.059 1568.1,247.131 1567.26,247.131L1567.26,246.59Z" style="fill:#733c52;"/>
            </g>
        </g>
    </g>
</svg>
