<?xml version="1.0" encoding="UTF-8" standalone="no"?>
<!DOCTYPE svg PUBLIC "-//W3C//DTD SVG 1.1//EN" "http://www.w3.org/Graphics/SVG/1.1/DTD/svg11.dtd">
<svg width="100%" height="100%" viewBox="0 0 1700 2481" version="1.1" xmlns="http://www.w3.org/2000/svg" xmlns:xlink="http://www.w3.org/1999/xlink" xml:space="preserve" xmlns:serif="http://www.serif.com/" style="fill-rule:evenodd;clip-rule:evenodd;stroke-linecap:round;stroke-linejoin:round;stroke-miterlimit:1.5;">
    <rect id="X2Y2" x="0" y="0.746" width="1700" height="2480" style="fill:none;"/>
    <g id="Fields" opacity="0.2">
        <path id="_2" serif:id="2" d="M1327.42,1113.75L1690,1017.22L1690,418.122L1203.91,896.333C1260.23,953.816 1301.74,1023.75 1327.42,1113.75Z" style="fill:#b1865b;stroke:#767676;stroke-width:8.33px;"/>
    </g>
    <g id="S">
        <g id="Ring">
            <path id="Backer" d="M1261.43,1477.75C1130.55,1704.45 840.239,1782.24 613.55,1651.37C386.862,1520.49 309.085,1230.18 439.973,1003.48C570.862,776.783 861.169,698.985 1087.86,829.861C1314.55,960.737 1392.32,1251.04 1261.43,1477.75Z" style="fill:#fff;"/>
            <path d="M1261.43,1477.75C1130.55,1704.45 840.239,1782.24 613.55,1651.37C386.862,1520.49 309.085,1230.18 439.973,1003.48C570.862,776.783 861.169,698.985 1087.86,829.861C1314.55,960.737 1392.32,1251.04 1261.43,1477.75Z" style="fill:none;stroke:#000;stroke-width:8.33px;"/>
            <path d="M1261.43,1477.75L1235.18,1462.59" style="fill:none;stroke:#000;stroke-width:8.33px;"/>
            <path d="M466.231,1018.64L439.973,1003.48" style="fill:none;stroke:#000;stroke-width:8.33px;"/>
            <path d="M628.71,1625.11L613.55,1651.37" style="fill:none;stroke:#000;stroke-width:8.33px;"/>
            <path d="M1087.86,829.861L1072.7,856.118" style="fill:none;stroke:#000;stroke-width:8.33px;"/>
            <path d="M1087.85,1651.35L1072.69,1625.09" style="fill:none;stroke:#000;stroke-width:8.33px;"/>
            <path d="M628.72,856.136L613.56,829.879" style="fill:none;stroke:#000;stroke-width:8.33px;"/>
            <path d="M466.201,1462.6L439.944,1477.76" style="fill:none;stroke:#000;stroke-width:8.33px;"/>
            <path d="M1261.46,1003.47L1235.21,1018.63" style="fill:none;stroke:#000;stroke-width:8.33px;"/>
            <path d="M850.704,1714.91L850.704,1684.59" style="fill:none;stroke:#000;stroke-width:8.33px;"/>
            <path d="M850.704,796.638L850.704,766.319" style="fill:none;stroke:#000;stroke-width:8.33px;"/>
            <path d="M406.736,1240.62L376.417,1240.62" style="fill:none;stroke:#000;stroke-width:8.33px;"/>
            <path d="M1324.99,1240.62L1294.67,1240.62" style="fill:none;stroke:#000;stroke-width:8.33px;"/>
        </g>
        <g id="Root-Markers" serif:id="Root Markers">
            <path id="_21" serif:id="2" d="M1169.71,1055.87L1100.53,1137.72L1064.23,1074.85L1169.71,1055.87ZM1120.71,1084.15L1094.46,1088.88L1103.5,1104.52L1120.71,1084.15Z" style="fill:#82c072;"/>
        </g>
        <g id="Notes">
            <path id="_9" serif:id="9" d="M445.425,1289.81C423.436,1327.89 374.662,1340.96 336.575,1318.97C298.489,1296.98 285.42,1248.21 307.409,1210.12C329.398,1172.04 378.172,1158.97 416.259,1180.96C454.345,1202.95 467.414,1251.72 445.425,1289.81Z" style="fill:#82c072;stroke:#fff;stroke-width:24px;"/>
            <path id="_7" serif:id="7" d="M686.805,1689.94C664.815,1728.03 616.042,1741.1 577.955,1719.11C539.868,1697.12 526.799,1648.35 548.789,1610.26C570.778,1572.17 619.552,1559.11 657.639,1581.09C695.725,1603.08 708.794,1651.86 686.805,1689.94Z" style="fill:#82c072;stroke:#fff;stroke-width:24px;"/>
            <path id="_22" serif:id="2" d="M1327.24,1049.66C1305.25,1087.74 1256.48,1100.81 1218.39,1078.82C1180.3,1056.84 1167.23,1008.06 1189.22,969.977C1211.21,931.891 1259.99,918.822 1298.07,940.811C1336.16,962.8 1349.23,1011.57 1327.24,1049.66Z" style="fill:#82c072;stroke:#fff;stroke-width:24px;"/>
        </g>
        <g id="Treble-Marker" serif:id="Treble Marker">
            <g id="_0" serif:id="0">
                <path id="_0u" serif:id="0u" d="M919.712,811.344C897.722,849.429 848.949,862.498 810.862,840.509C772.775,818.52 759.707,769.747 781.696,731.662C803.685,693.576 852.459,680.507 890.546,702.496C928.632,724.485 941.701,773.258 919.712,811.344Z" style="fill:#fff;stroke:#fff;stroke-width:33.33px;"/>
                <circle id="_0a" serif:id="0a" cx="851.704" cy="771.819" r="64" style="fill:#fff;stroke:#82c072;stroke-width:16.67px;"/>
            </g>
        </g>
    </g>
    <g id="Songs">
        <g id="song-2-grooves" serif:id="song 2 grooves">
            <g id="Y">
                <path d="M1567,924.745C1547.61,924.851 1528.19,917.374 1513.62,902.384L1487.86,875.898C1474.49,862.152 1467.55,844.52 1466.99,826.739L1567.66,826.92L1567,924.745Z" style="fill:#82c072;stroke:#fff;stroke-width:1.67px;"/>
                <path d="M1466.99,826.739C1466.36,806.701 1473.83,786.475 1489.32,771.411L1515.81,745.654C1530.42,731.439 1549.44,724.494 1568.35,724.758L1567.66,826.92L1466.99,826.739Z" style="fill:#82c072;stroke:#fff;stroke-width:1.67px;"/>
                <path d="M1467.96,826.92L1566.96,827.098" style="fill:none;stroke:#82c072;stroke-width:4.17px;stroke-linecap:butt;"/>
                <path id="q3" d="M1567.36,912.355C1567.35,912.355 1567.34,912.355 1567.32,912.355C1545.43,912.355 1523.96,903.88 1507.26,887.18C1490.56,870.48 1482.88,849.313 1482.88,827.424C1482.88,827.073 1482.88,826.723 1482.89,826.373L1485.28,826.373C1485.28,826.661 1485.27,826.949 1485.27,827.237C1485.27,847.836 1493.88,869.183 1509.6,884.9C1525.31,900.617 1546.39,908.849 1566.99,908.849C1567.12,908.849 1567.24,908.849 1567.36,908.848L1567.36,912.355ZM1567.36,905.685C1567.32,905.685 1567.28,905.685 1567.25,905.685C1547.07,905.686 1527.28,897.875 1511.89,882.483C1496.5,867.091 1489.42,847.583 1489.42,827.409C1489.42,827.063 1489.42,826.718 1489.43,826.373L1491.63,826.373C1491.63,826.661 1491.62,826.949 1491.62,827.236C1491.62,846.221 1499.56,865.896 1514.04,880.381C1528.53,894.867 1547.95,902.454 1566.94,902.454C1567.08,902.454 1567.22,902.454 1567.36,902.453L1567.36,905.685ZM1567.36,899.016C1567.3,899.016 1567.23,899.016 1567.17,899.016C1548.71,899.016 1530.6,891.869 1516.52,877.786C1502.43,863.702 1495.96,845.852 1495.96,827.393C1495.96,827.053 1495.96,826.713 1495.96,826.373L1497.98,826.373C1497.98,826.661 1497.97,826.948 1497.97,827.236C1497.97,844.607 1505.23,862.609 1518.49,875.863C1531.74,889.117 1549.52,896.059 1566.89,896.059C1567.05,896.059 1567.2,896.059 1567.36,896.058L1567.36,899.016ZM1567.36,892.346C1567.27,892.346 1567.18,892.346 1567.09,892.346C1550.35,892.346 1533.92,885.863 1521.14,873.089C1508.37,860.314 1502.49,844.122 1502.49,827.379C1502.49,827.043 1502.5,826.708 1502.5,826.373L1504.33,826.373C1504.33,826.661 1504.32,826.948 1504.32,827.235C1504.32,842.992 1510.91,859.322 1522.93,871.345C1534.95,883.367 1551.08,889.665 1566.84,889.664C1567.01,889.664 1567.18,889.663 1567.36,889.662L1567.36,892.346ZM1567.36,885.676C1567.24,885.676 1567.13,885.677 1567.01,885.677C1551.98,885.677 1537.24,879.858 1525.77,868.392C1514.31,856.925 1509.03,842.392 1509.03,827.363C1509.03,827.033 1509.03,826.702 1509.04,826.373L1510.68,826.373C1510.68,826.66 1510.67,826.948 1510.67,827.234C1510.67,841.378 1516.58,856.035 1527.37,866.826C1538.16,877.617 1552.64,883.269 1566.78,883.27C1566.98,883.27 1567.17,883.269 1567.36,883.266L1567.36,885.676ZM1567.36,879.005C1567.22,879.007 1567.07,879.007 1566.93,879.007C1553.62,879.007 1540.56,873.852 1530.4,863.695C1520.24,853.537 1515.57,840.662 1515.57,827.348C1515.57,827.022 1515.57,826.697 1515.58,826.373L1517.03,826.373C1517.03,826.66 1517.02,826.947 1517.02,827.234C1517.02,839.763 1522.26,852.748 1531.82,862.308C1541.38,871.868 1554.2,876.875 1566.73,876.874C1566.94,876.874 1567.15,876.873 1567.36,876.87L1567.36,879.005ZM1567.36,872.334C1567.19,872.336 1567.02,872.337 1566.85,872.337C1555.25,872.338 1543.88,867.846 1535.03,858.997C1526.18,850.148 1522.11,838.931 1522.11,827.332C1522.11,827.012 1522.11,826.692 1522.12,826.373L1523.38,826.373C1523.38,826.66 1523.37,826.947 1523.37,827.233C1523.37,838.149 1527.93,849.461 1536.26,857.789C1544.59,866.117 1555.76,870.48 1566.68,870.48C1566.9,870.48 1567.13,870.478 1567.36,870.474L1567.36,872.334ZM1567.36,865.663C1567.16,865.666 1566.97,865.668 1566.77,865.668C1556.89,865.668 1547.19,861.841 1539.65,854.3C1532.11,846.759 1528.64,837.201 1528.64,827.317C1528.64,827.002 1528.65,826.687 1528.65,826.373L1529.74,826.373C1529.73,826.66 1529.72,826.947 1529.72,827.233C1529.72,836.534 1533.61,846.174 1540.71,853.271C1547.8,860.367 1557.32,864.085 1566.62,864.084C1566.87,864.084 1567.12,864.082 1567.36,864.076L1567.36,865.663ZM1567.36,858.991C1567.14,858.996 1566.92,858.998 1566.69,858.998C1558.53,858.998 1550.51,855.835 1544.28,849.603C1538.05,843.371 1535.18,835.471 1535.18,827.302C1535.18,826.992 1535.19,826.682 1535.19,826.373L1536.09,826.373C1536.08,826.66 1536.07,826.947 1536.07,827.232C1536.07,834.92 1539.29,842.887 1545.15,848.752C1551.02,854.618 1558.88,857.69 1566.57,857.69C1566.83,857.69 1567.1,857.686 1567.36,857.679L1567.36,858.991ZM1567.36,852.317C1567.11,852.325 1566.87,852.328 1566.62,852.328C1560.16,852.329 1553.83,849.83 1548.91,844.906C1543.98,839.982 1541.72,833.741 1541.72,827.287C1541.72,826.982 1541.72,826.677 1541.74,826.373L1542.44,826.373C1542.43,826.66 1542.42,826.946 1542.42,827.232C1542.42,833.305 1544.96,839.6 1549.6,844.234C1554.23,848.868 1560.44,851.295 1566.52,851.295C1566.8,851.295 1567.08,851.29 1567.36,851.279L1567.36,852.317Z" style="fill:#e7e7e7;"/>
                <path id="q4" d="M1482.89,826.373C1483.15,805.067 1491.51,784.741 1507.63,768.369L1506.3,767.037C1523,750.336 1545.03,741.842 1566.91,741.842C1567.06,741.842 1567.21,741.842 1567.36,741.843L1567.36,746.881C1567.21,746.88 1567.06,746.879 1566.91,746.879C1546.32,746.879 1525.6,754.9 1509.88,770.617L1508.69,769.423C1493.64,784.828 1485.51,806.319 1485.28,826.373L1482.89,826.373ZM1489.43,826.373C1489.69,806.761 1497.38,788.048 1512.23,772.976L1511,771.753C1526.4,756.361 1546.69,748.532 1566.87,748.532C1567.03,748.532 1567.2,748.532 1567.36,748.533L1567.36,753.176C1567.2,753.175 1567.03,753.175 1566.87,753.175C1547.88,753.175 1528.79,760.567 1514.31,775.053L1513.21,773.956C1499.36,788.137 1491.86,807.91 1491.63,826.373L1489.43,826.373ZM1495.96,826.373C1496.22,808.454 1503.25,791.354 1516.82,777.582L1515.71,776.469C1529.79,762.386 1548.36,755.222 1566.82,755.222C1567,755.222 1567.18,755.223 1567.36,755.224L1567.36,759.472C1567.18,759.471 1567,759.47 1566.82,759.47C1549.45,759.47 1531.98,766.235 1518.73,779.488L1517.73,778.488C1505.07,791.445 1498.21,809.5 1497.98,826.373L1495.96,826.373ZM1502.5,826.373C1502.75,810.148 1509.13,794.661 1521.41,782.189L1520.41,781.185C1533.18,768.41 1550.03,761.912 1566.78,761.912C1566.97,761.912 1567.16,761.913 1567.36,761.915L1567.36,765.768C1567.16,765.767 1566.97,765.766 1566.78,765.766C1551.02,765.766 1535.17,771.902 1523.15,783.924L1522.25,783.021C1510.79,794.754 1504.56,811.091 1504.33,826.373L1502.5,826.373ZM1509.04,826.373C1509.29,811.841 1515,797.967 1526.01,786.795L1525.11,785.901C1536.58,774.434 1551.7,768.602 1566.73,768.602C1566.94,768.602 1567.15,768.604 1567.36,768.606L1567.36,772.064C1567.15,772.062 1566.94,772.061 1566.73,772.061C1552.59,772.061 1538.36,777.568 1527.57,788.359L1526.77,787.554C1516.5,798.063 1510.91,812.682 1510.68,826.373L1509.04,826.373ZM1515.58,826.373C1515.82,813.535 1520.87,801.274 1530.6,791.402L1529.81,790.617C1539.97,780.459 1553.37,775.292 1566.68,775.292C1566.91,775.292 1567.13,775.294 1567.36,775.297L1567.36,778.361C1567.13,778.358 1566.91,778.356 1566.68,778.356C1554.15,778.357 1541.55,783.235 1531.99,792.795L1531.29,792.087C1522.22,801.371 1517.26,814.272 1517.03,826.373L1515.58,826.373ZM1522.12,826.373C1522.36,815.228 1526.75,804.581 1535.19,796.008L1534.52,795.333C1543.37,786.484 1555.04,781.982 1566.63,781.982C1566.88,781.982 1567.12,781.984 1567.36,781.988L1567.36,784.658C1567.12,784.654 1566.88,784.652 1566.63,784.652C1555.72,784.652 1544.74,788.902 1536.41,797.231L1535.8,796.62C1527.93,804.68 1523.61,815.863 1523.38,826.373L1522.12,826.373ZM1528.65,826.373C1528.89,816.921 1532.62,807.887 1539.79,800.615L1539.22,800.049C1546.76,792.509 1556.7,788.673 1566.59,788.673C1566.85,788.673 1567.1,788.675 1567.36,788.68L1567.36,790.955C1567.1,790.95 1566.85,790.947 1566.59,790.947C1557.29,790.948 1547.93,794.569 1540.84,801.666L1540.32,801.153C1533.65,807.989 1529.96,817.454 1529.74,826.373L1528.65,826.373ZM1535.19,826.373C1535.42,818.614 1538.49,811.193 1544.38,805.221L1543.92,804.765C1550.15,798.533 1558.37,795.363 1566.54,795.363C1566.82,795.363 1567.09,795.366 1567.36,795.373L1567.36,797.254C1567.09,797.247 1566.82,797.243 1566.54,797.243C1558.85,797.243 1551.12,800.236 1545.26,806.102L1544.84,805.686C1539.36,811.298 1536.31,819.046 1536.09,826.373L1535.19,826.373ZM1541.74,826.373C1541.95,820.307 1544.37,814.5 1548.97,809.828L1548.62,809.482C1553.55,804.558 1560.04,802.053 1566.5,802.053C1566.78,802.053 1567.07,802.058 1567.36,802.068L1567.36,803.554C1567.07,803.544 1566.78,803.538 1566.5,803.538C1560.42,803.539 1554.31,805.903 1549.68,810.538L1549.36,810.219C1545.08,814.607 1542.66,820.638 1542.44,826.373L1541.74,826.373Z" style="fill:#e7e7e7;"/>
            </g>
            <g id="X2Y21" serif:id="X2Y2">
                <path d="M1568.35,724.758C1587.26,725.023 1606.08,732.495 1620.29,747.113L1646.05,773.6C1660.5,788.464 1667.44,807.872 1666.92,827.098L1567.66,826.92L1568.35,724.758Z" style="fill:#82c072;stroke:#fff;stroke-width:1.67px;"/>
                <path d="M1666.92,827.098C1666.43,845.689 1658.96,864.109 1644.59,878.086L1618.1,903.843C1603.86,917.697 1585.44,924.645 1567,924.745L1567.66,826.92L1666.92,827.098Z" style="fill:#82c072;stroke:#fff;stroke-width:1.67px;"/>
                <path d="M1568.46,827.098L1666.06,827.098" style="fill:none;stroke:#82c072;stroke-width:4.17px;stroke-linecap:butt;"/>
                <path id="q2" d="M1652.44,826.373C1652.44,826.705 1652.44,827.037 1652.44,827.369C1652.44,849.258 1643.35,870.408 1626.65,887.109C1609.96,903.8 1589.24,912.345 1567.36,912.355L1567.36,908.848C1587.84,908.747 1608.5,900.208 1624.13,884.584C1639.85,868.867 1647.4,847.968 1647.4,827.369C1647.4,827.037 1647.4,826.705 1647.4,826.373L1652.44,826.373ZM1645.69,826.373C1645.69,826.701 1645.69,827.03 1645.69,827.358C1645.69,847.532 1637.32,867.025 1621.92,882.417C1606.56,897.78 1587.49,905.655 1567.36,905.685L1567.36,902.453C1586.21,902.337 1605.22,894.469 1619.6,880.09C1634.08,865.604 1641.05,846.343 1641.05,827.358C1641.05,827.03 1641.05,826.701 1641.05,826.373L1645.69,826.373ZM1638.94,826.373C1638.94,826.698 1638.95,827.022 1638.95,827.347C1638.95,845.806 1631.28,863.642 1617.2,877.726C1603.16,891.76 1585.75,898.965 1567.36,899.016L1567.36,896.058C1584.58,895.928 1601.94,888.731 1615.07,875.597C1628.32,862.343 1634.7,844.719 1634.7,827.347C1634.7,827.022 1634.7,826.698 1634.69,826.373L1638.94,826.373ZM1632.19,826.373C1632.2,826.694 1632.2,827.015 1632.2,827.336C1632.2,844.08 1625.25,860.259 1612.47,873.034C1599.77,885.74 1584,892.275 1567.36,892.346L1567.36,889.662C1582.95,889.518 1598.65,882.992 1610.54,871.103C1622.56,859.08 1628.35,843.094 1628.35,827.336C1628.35,827.015 1628.34,826.694 1628.34,826.373L1632.19,826.373ZM1625.44,826.373C1625.45,826.69 1625.45,827.008 1625.45,827.325C1625.45,842.354 1619.21,856.876 1607.74,868.342C1596.37,879.72 1582.26,885.585 1567.36,885.676L1567.36,883.266C1581.31,883.109 1595.37,877.254 1606.01,866.609C1616.8,855.818 1621.99,841.469 1621.99,827.325C1621.99,827.008 1621.99,826.69 1621.98,826.373L1625.44,826.373ZM1618.69,826.373C1618.7,826.687 1618.7,827.001 1618.7,827.315C1618.7,840.628 1613.17,853.493 1603.02,863.651C1592.97,873.7 1580.52,878.894 1567.36,879.005L1567.36,876.87C1579.68,876.699 1592.08,871.515 1601.48,862.115C1611.04,852.555 1615.64,839.844 1615.64,827.314C1615.64,827 1615.64,826.687 1615.63,826.373L1618.69,826.373ZM1611.95,826.373C1611.95,826.683 1611.96,826.993 1611.96,827.304C1611.96,838.902 1607.14,850.11 1598.29,858.959C1589.57,867.68 1578.77,872.204 1567.36,872.334L1567.36,870.474C1578.05,870.289 1588.8,865.777 1596.95,857.622C1605.28,849.293 1609.29,838.219 1609.29,827.304C1609.29,826.993 1609.28,826.683 1609.28,826.373L1611.95,826.373ZM1605.2,826.373C1605.2,826.679 1605.21,826.986 1605.21,827.293C1605.21,837.176 1601.1,846.727 1593.56,854.268C1586.17,861.66 1577.03,865.513 1567.36,865.663L1567.36,864.076C1576.42,863.879 1585.51,860.038 1592.42,853.128C1599.52,846.031 1602.93,836.594 1602.93,827.293C1602.93,826.986 1602.93,826.679 1602.92,826.373L1605.2,826.373ZM1598.45,826.373C1598.46,826.676 1598.46,826.979 1598.46,827.282C1598.46,835.45 1595.07,843.344 1588.84,849.576C1582.77,855.64 1575.28,858.823 1567.36,858.991L1567.36,857.679C1574.79,857.468 1582.23,854.299 1587.89,848.634C1593.76,842.769 1596.58,834.969 1596.58,827.282C1596.58,826.979 1596.58,826.676 1596.57,826.373L1598.45,826.373ZM1591.7,826.373C1591.71,826.672 1591.71,826.971 1591.71,827.271C1591.71,833.725 1589.03,839.961 1584.11,844.885C1579.37,849.619 1573.54,852.131 1567.36,852.317L1567.36,851.279C1573.16,851.058 1578.94,848.561 1583.37,844.141C1588,839.506 1590.23,833.345 1590.23,827.271C1590.23,826.971 1590.22,826.672 1590.21,826.373L1591.7,826.373Z" style="fill:#e7e7e7;"/>
                <path id="q1" d="M1567.36,741.843C1589.1,741.955 1610.81,750.305 1627.39,766.892C1643.84,783.338 1652.19,804.817 1652.44,826.373L1647.4,826.373C1647.15,806.107 1639.29,785.917 1623.83,770.454C1608.23,754.851 1587.81,746.993 1567.36,746.881L1567.36,741.843ZM1567.36,748.533C1587.37,748.658 1607.34,756.353 1622.61,771.619C1637.75,786.76 1645.44,806.529 1645.69,826.373L1641.05,826.373C1640.8,807.717 1633.56,789.137 1619.32,774.903C1604.96,760.543 1586.18,753.3 1567.36,753.176L1567.36,748.533ZM1567.36,755.224C1585.64,755.359 1603.88,762.4 1617.82,776.346C1631.66,790.182 1638.7,808.24 1638.94,826.373L1634.69,826.373C1634.45,809.328 1627.82,792.357 1614.82,779.351C1601.7,766.234 1584.55,759.608 1567.36,759.472L1567.36,755.224ZM1567.36,761.915C1583.91,762.062 1600.41,768.448 1613.04,781.074C1625.57,793.604 1631.95,809.951 1632.19,826.373L1628.34,826.373C1628.1,810.938 1622.09,795.576 1610.31,783.799C1598.44,771.925 1582.92,765.915 1567.36,765.768L1567.36,761.915ZM1567.36,768.606C1582.18,768.764 1596.95,774.496 1608.25,785.802C1619.48,797.026 1625.21,811.663 1625.44,826.373L1621.98,826.373C1621.75,812.549 1616.36,798.796 1605.81,788.247C1595.18,777.617 1581.29,772.223 1567.36,772.064L1567.36,768.606ZM1567.36,775.297C1580.45,775.466 1593.48,780.544 1603.47,790.529C1613.38,800.447 1618.46,813.374 1618.69,826.373L1615.63,826.373C1615.4,814.159 1610.62,802.016 1601.3,792.696C1591.91,783.309 1579.66,778.53 1567.36,778.361L1567.36,775.297ZM1567.36,781.988C1578.72,782.169 1590.02,786.592 1598.68,795.257C1607.3,803.869 1611.72,815.086 1611.95,826.373L1609.28,826.373C1609.05,815.769 1604.88,805.236 1596.79,797.145C1588.65,789 1578.03,784.838 1567.36,784.658L1567.36,781.988ZM1567.36,788.68C1576.99,788.871 1586.55,792.639 1593.9,799.984C1601.2,807.291 1604.97,816.798 1605.2,826.373L1602.92,826.373C1602.7,817.38 1599.15,808.455 1592.29,801.592C1585.39,794.692 1576.4,791.146 1567.36,790.955L1567.36,788.68ZM1567.36,795.373C1575.25,795.574 1583.09,798.687 1589.11,804.711C1595.11,810.713 1598.23,818.509 1598.45,826.373L1596.57,826.373C1596.35,818.991 1593.42,811.675 1587.78,806.041C1582.12,800.383 1574.77,797.455 1567.36,797.254L1567.36,795.373ZM1567.36,802.068C1573.52,802.278 1579.62,804.735 1584.33,809.439C1589.02,814.134 1591.48,820.221 1591.7,826.373L1590.21,826.373C1589.99,820.602 1587.68,814.895 1583.28,810.489C1578.86,806.076 1573.14,803.764 1567.36,803.554L1567.36,802.068Z" style="fill:#e7e7e7;"/>
            </g>
        </g>
    </g>
    <g id="Map">
        <g id="Frame">
            <rect x="1471.5" y="42.288" width="190" height="190" style="fill:#fff;"/>
            <rect x="1471.5" y="42.288" width="190" height="190" style="fill:none;stroke:#000;stroke-width:1.17px;stroke-linejoin:bevel;"/>
            <rect x="1523.38" y="94.163" width="86.25" height="86.25" style="fill:none;stroke:#000;stroke-width:1.25px;stroke-linejoin:bevel;"/>
            <path d="M1609.62,94.163L1661.5,42.496" style="fill:none;stroke:#000;stroke-width:1.25px;stroke-linejoin:bevel;"/>
            <path d="M1523.38,94.163L1471.92,42.496" style="fill:none;stroke:#000;stroke-width:1.25px;stroke-linejoin:bevel;"/>
            <path d="M1523.38,180.413L1471.5,232.288" style="fill:none;stroke:#000;stroke-width:1.25px;stroke-linejoin:bevel;"/>
            <path d="M1609.62,180.413L1661.5,232.288" style="fill:none;stroke:#000;stroke-width:1.25px;stroke-linejoin:bevel;"/>
        </g>
        <g id="Dots">
            <circle cx="1471.5" cy="232.246" r="1.5" style="stroke:#000;stroke-width:1.25px;stroke-linejoin:bevel;"/>
            <circle cx="1566.2" cy="232.371" r="1.5" style="stroke:#000;stroke-width:1.25px;stroke-linejoin:bevel;"/>
            <circle cx="1661.5" cy="232.246" r="1.5" style="stroke:#000;stroke-width:1.25px;stroke-linejoin:bevel;"/>
            <circle cx="1633.85" cy="204.413" r="1.5" style="stroke:#000;stroke-width:1.25px;stroke-linejoin:bevel;"/>
            <circle cx="1609.62" cy="180.246" r="1.5" style="stroke:#000;stroke-width:1.25px;stroke-linejoin:bevel;"/>
            <circle cx="1609.2" cy="137.371" r="1.5" style="stroke:#000;stroke-width:1.25px;stroke-linejoin:bevel;"/>
            <circle cx="1609.32" cy="94.121" r="1.5" style="stroke:#000;stroke-width:1.25px;stroke-linejoin:bevel;"/>
            <circle cx="1633.76" cy="69.913" r="1.5" style="stroke:#000;stroke-width:1.25px;stroke-linejoin:bevel;"/>
            <circle cx="1566.2" cy="94.121" r="1.5" style="stroke:#000;stroke-width:1.25px;stroke-linejoin:bevel;"/>
            <circle cx="1523.07" cy="94.246" r="1.5" style="stroke:#000;stroke-width:1.25px;stroke-linejoin:bevel;"/>
            <circle cx="1566.5" cy="42.246" r="1.5" style="stroke:#000;stroke-width:1.25px;stroke-linejoin:bevel;"/>
            <circle cx="1471.5" cy="42.288" r="1.5" style="stroke:#000;stroke-width:1.25px;stroke-linejoin:bevel;"/>
            <circle cx="1499.35" cy="70.246" r="1.5" style="stroke:#000;stroke-width:1.25px;stroke-linejoin:bevel;"/>
            <circle cx="1471.5" cy="137.288" r="1.5" style="stroke:#000;stroke-width:1.25px;stroke-linejoin:bevel;"/>
            <circle cx="1523.38" cy="137.288" r="1.5" style="stroke:#000;stroke-width:1.25px;stroke-linejoin:bevel;"/>
            <circle cx="1566" cy="180.413" r="1.5" style="stroke:#000;stroke-width:1.25px;stroke-linejoin:bevel;"/>
            <circle cx="1523.35" cy="180.246" r="1.5" style="stroke:#000;stroke-width:1.25px;stroke-linejoin:bevel;"/>
            <circle cx="1499.15" cy="204.746" r="1.5" style="stroke:#000;stroke-width:1.25px;stroke-linejoin:bevel;"/>
            <circle cx="1661.5" cy="137.288" r="1.5" style="stroke:#000;stroke-width:1.25px;stroke-linejoin:bevel;"/>
            <circle cx="1661.49" cy="42.396" r="1.5" style="stroke:#000;stroke-width:1.25px;stroke-linejoin:bevel;"/>
        </g>
        <g>
            <path d="M1471.5,41.917L1471.45,137.118" style="fill:none;stroke:#82c072;stroke-width:5.99px;"/>
        </g>
        <path d="M1473.93,36.409C1477.18,37.753 1478.72,41.478 1477.38,44.723C1476.04,47.968 1472.31,49.512 1469.07,48.168C1465.82,46.823 1464.28,43.098 1465.62,39.853C1466.96,36.608 1470.69,35.064 1473.93,36.409Z" style="fill:#fff;stroke:#82c072;stroke-width:5.99px;"/>
        <g id="_23" serif:id="2">
            <circle cx="1471.45" cy="137.288" r="15.75" style="fill:#fff;stroke:#fff;stroke-width:1.46px;"/>
            <path id="q31" serif:id="q3" d="M1471.45,152.331C1471.44,152.331 1471.44,152.331 1471.44,152.331C1467.57,152.331 1463.77,150.831 1460.81,147.876C1457.86,144.922 1456.5,141.177 1456.5,137.304C1456.5,137.242 1456.5,137.18 1456.5,137.118L1456.92,137.118C1456.92,137.169 1456.92,137.22 1456.92,137.271C1456.92,140.915 1458.45,144.692 1461.23,147.473C1464.01,150.254 1467.74,151.71 1471.38,151.71C1471.4,151.71 1471.42,151.71 1471.45,151.71L1471.45,152.331ZM1471.45,151.15C1471.44,151.15 1471.43,151.15 1471.43,151.15C1467.86,151.151 1464.36,149.769 1461.63,147.045C1458.91,144.322 1457.66,140.87 1457.66,137.301C1457.66,137.24 1457.66,137.179 1457.66,137.118L1458.05,137.118C1458.05,137.169 1458.05,137.22 1458.05,137.271C1458.05,140.63 1459.45,144.111 1462.01,146.673C1464.58,149.236 1468.01,150.579 1471.37,150.579C1471.4,150.579 1471.42,150.579 1471.45,150.579L1471.45,151.15ZM1471.45,149.97C1471.43,149.97 1471.42,149.97 1471.41,149.97C1468.15,149.97 1464.94,148.706 1462.45,146.214C1459.96,143.722 1458.81,140.564 1458.81,137.298C1458.81,137.238 1458.81,137.178 1458.82,137.118L1459.17,137.118C1459.17,137.169 1459.17,137.22 1459.17,137.271C1459.17,140.344 1460.45,143.529 1462.8,145.874C1465.14,148.219 1468.29,149.447 1471.36,149.447C1471.39,149.447 1471.42,149.447 1471.45,149.447L1471.45,149.97ZM1471.45,148.79C1471.43,148.79 1471.41,148.79 1471.4,148.79C1468.44,148.79 1465.53,147.643 1463.27,145.383C1461.01,143.123 1459.97,140.258 1459.97,137.296C1459.97,137.236 1459.97,137.177 1459.97,137.118L1460.3,137.118C1460.29,137.169 1460.29,137.22 1460.29,137.27C1460.29,140.058 1461.46,142.948 1463.59,145.075C1465.71,147.202 1468.57,148.316 1471.35,148.316C1471.38,148.316 1471.42,148.316 1471.45,148.315L1471.45,148.79ZM1471.45,147.61C1471.43,147.61 1471.4,147.61 1471.38,147.61C1468.73,147.61 1466.12,146.581 1464.09,144.552C1462.06,142.523 1461.13,139.952 1461.13,137.293C1461.13,137.235 1461.13,137.176 1461.13,137.118L1461.42,137.118C1461.42,137.169 1461.42,137.22 1461.42,137.27C1461.42,139.773 1462.46,142.366 1464.37,144.275C1466.28,146.184 1468.84,147.184 1471.34,147.185C1471.38,147.185 1471.41,147.184 1471.45,147.184L1471.45,147.61ZM1471.45,146.43C1471.42,146.43 1471.4,146.43 1471.37,146.43C1469.02,146.43 1466.7,145.518 1464.91,143.721C1463.11,141.924 1462.28,139.646 1462.28,137.29C1462.28,137.233 1462.28,137.175 1462.29,137.118L1462.54,137.118C1462.54,137.169 1462.54,137.219 1462.54,137.27C1462.54,139.487 1463.47,141.784 1465.16,143.476C1466.85,145.167 1469.12,146.053 1471.34,146.053C1471.37,146.053 1471.41,146.053 1471.45,146.052L1471.45,146.43ZM1471.45,145.25C1471.42,145.25 1471.39,145.25 1471.36,145.25C1469.31,145.25 1467.29,144.456 1465.73,142.89C1464.16,141.324 1463.44,139.34 1463.44,137.288C1463.44,137.231 1463.44,137.174 1463.44,137.118L1463.67,137.118C1463.66,137.169 1463.66,137.219 1463.66,137.27C1463.66,139.201 1464.47,141.203 1465.94,142.676C1467.42,144.15 1469.39,144.922 1471.33,144.922C1471.37,144.922 1471.41,144.921 1471.45,144.921L1471.45,145.25ZM1471.45,144.069C1471.41,144.07 1471.38,144.07 1471.34,144.07C1469.59,144.07 1467.88,143.393 1466.55,142.059C1465.21,140.725 1464.6,139.034 1464.6,137.285C1464.6,137.229 1464.6,137.173 1464.6,137.118L1464.79,137.118C1464.79,137.169 1464.79,137.219 1464.79,137.27C1464.79,138.916 1465.48,140.621 1466.73,141.877C1467.99,143.132 1469.67,143.79 1471.32,143.79C1471.36,143.79 1471.4,143.79 1471.45,143.789L1471.45,144.069ZM1471.45,142.889C1471.41,142.89 1471.37,142.89 1471.33,142.89C1469.88,142.89 1468.47,142.331 1467.36,141.228C1466.26,140.125 1465.75,138.728 1465.75,137.282C1465.75,137.227 1465.75,137.173 1465.76,137.118L1465.91,137.118C1465.91,137.169 1465.91,137.219 1465.91,137.27C1465.91,138.63 1466.48,140.04 1467.52,141.077C1468.56,142.115 1469.95,142.659 1471.31,142.659C1471.35,142.659 1471.4,142.658 1471.45,142.657L1471.45,142.889ZM1471.45,141.708C1471.4,141.709 1471.36,141.71 1471.32,141.71C1470.17,141.71 1469.05,141.268 1468.18,140.397C1467.31,139.526 1466.91,138.421 1466.91,137.28C1466.91,137.226 1466.91,137.172 1466.91,137.118L1467.04,137.118C1467.04,137.169 1467.04,137.219 1467.04,137.27C1467.04,138.344 1467.48,139.458 1468.3,140.278C1469.12,141.098 1470.22,141.527 1471.3,141.527C1471.35,141.527 1471.4,141.526 1471.45,141.524L1471.45,141.708Z" style="fill:#733c52;"/>
            <path id="q41" serif:id="q4" d="M1456.5,137.118C1456.55,133.348 1458.03,129.752 1460.88,126.855L1460.64,126.62C1463.6,123.665 1467.5,122.162 1471.37,122.162C1471.39,122.162 1471.42,122.162 1471.45,122.162L1471.45,123.053C1471.42,123.053 1471.39,123.053 1471.37,123.053C1467.72,123.053 1464.06,124.472 1461.28,127.253L1461.07,127.042C1458.4,129.767 1456.96,133.57 1456.92,137.118L1456.5,137.118ZM1457.66,137.118C1457.7,133.648 1459.07,130.337 1461.69,127.67L1461.48,127.454C1464.2,124.731 1467.79,123.346 1471.36,123.346C1471.39,123.346 1471.42,123.346 1471.45,123.346L1471.45,124.167C1471.42,124.167 1471.39,124.167 1471.36,124.167C1468,124.167 1464.62,125.475 1462.06,128.038L1461.87,127.844C1459.41,130.353 1458.09,133.851 1458.05,137.118L1457.66,137.118ZM1458.82,137.118C1458.86,133.948 1460.1,130.922 1462.51,128.485L1462.31,128.288C1464.8,125.797 1468.09,124.529 1471.35,124.529C1471.38,124.529 1471.41,124.529 1471.45,124.53L1471.45,125.281C1471.41,125.281 1471.38,125.281 1471.35,125.281C1468.28,125.281 1465.19,126.478 1462.84,128.823L1462.66,128.646C1460.43,130.938 1459.21,134.133 1459.17,137.118L1458.82,137.118ZM1459.97,137.118C1460.02,134.247 1461.14,131.507 1463.32,129.3L1463.14,129.123C1465.4,126.863 1468.38,125.713 1471.34,125.713C1471.38,125.713 1471.41,125.713 1471.45,125.713L1471.45,126.395C1471.41,126.395 1471.38,126.395 1471.34,126.395C1468.56,126.395 1465.75,127.48 1463.62,129.607L1463.46,129.448C1461.44,131.524 1460.34,134.414 1460.3,137.118L1459.97,137.118ZM1461.13,137.118C1461.17,134.547 1462.18,132.092 1464.13,130.115L1463.97,129.957C1466,127.928 1468.68,126.897 1471.34,126.897C1471.37,126.897 1471.41,126.897 1471.45,126.897L1471.45,127.509C1471.41,127.509 1471.37,127.508 1471.34,127.508C1468.83,127.509 1466.32,128.483 1464.41,130.392L1464.26,130.25C1462.45,132.109 1461.46,134.695 1461.42,137.118L1461.13,137.118ZM1462.29,137.118C1462.33,134.846 1463.22,132.677 1464.94,130.93L1464.8,130.792C1466.6,128.994 1468.97,128.08 1471.33,128.08C1471.37,128.08 1471.41,128.08 1471.45,128.081L1471.45,128.623C1471.41,128.623 1471.37,128.622 1471.33,128.622C1469.11,128.622 1466.88,129.486 1465.19,131.177L1465.06,131.052C1463.46,132.694 1462.58,134.977 1462.54,137.118L1462.29,137.118ZM1463.44,137.118C1463.48,135.146 1464.26,133.262 1465.76,131.745L1465.64,131.626C1467.2,130.06 1469.27,129.264 1471.32,129.264C1471.36,129.264 1471.4,129.264 1471.45,129.265L1471.45,129.737C1471.4,129.737 1471.36,129.736 1471.32,129.736C1469.39,129.736 1467.44,130.488 1465.97,131.962L1465.86,131.854C1464.47,133.28 1463.71,135.258 1463.67,137.118L1463.44,137.118ZM1464.6,137.118C1464.64,135.446 1465.3,133.847 1466.57,132.56L1466.47,132.46C1467.8,131.126 1469.56,130.448 1471.31,130.448C1471.36,130.448 1471.4,130.448 1471.45,130.449L1471.45,130.851C1471.4,130.851 1471.36,130.85 1471.31,130.85C1469.66,130.85 1468.01,131.491 1466.75,132.747L1466.66,132.656C1465.48,133.865 1464.83,135.54 1464.79,137.118L1464.6,137.118ZM1465.76,137.118C1465.8,135.745 1466.34,134.432 1467.38,133.376L1467.3,133.295C1468.4,132.192 1469.86,131.631 1471.3,131.631C1471.35,131.631 1471.4,131.632 1471.45,131.633L1471.45,131.966C1471.4,131.965 1471.35,131.964 1471.3,131.964C1469.94,131.964 1468.57,132.494 1467.54,133.531L1467.46,133.458C1466.49,134.451 1465.95,135.822 1465.91,137.118L1465.76,137.118ZM1466.91,137.118C1466.95,136.045 1467.38,135.017 1468.19,134.191L1468.13,134.129C1469,133.258 1470.15,132.815 1471.29,132.815C1471.35,132.815 1471.4,132.816 1471.45,132.818L1471.45,133.081C1471.4,133.079 1471.35,133.078 1471.29,133.078C1470.22,133.078 1469.14,133.496 1468.32,134.316L1468.26,134.26C1467.5,135.036 1467.08,136.103 1467.04,137.118L1466.91,137.118Z" style="fill:#733c52;"/>
            <path id="q21" serif:id="q2" d="M1486.5,137.118C1486.5,137.177 1486.5,137.235 1486.5,137.294C1486.5,141.167 1484.89,144.909 1481.94,147.864C1478.98,150.817 1475.32,152.329 1471.45,152.331L1471.45,151.71C1475.07,151.692 1478.73,150.181 1481.49,147.417C1484.27,144.636 1485.61,140.939 1485.61,137.294C1485.61,137.235 1485.61,137.177 1485.61,137.118L1486.5,137.118ZM1485.31,137.118C1485.31,137.176 1485.31,137.234 1485.31,137.292C1485.31,140.861 1483.82,144.31 1481.1,147.034C1478.38,149.752 1475.01,151.145 1471.45,151.15L1471.45,150.579C1474.78,150.558 1478.14,149.166 1480.69,146.622C1483.25,144.059 1484.49,140.651 1484.49,137.292C1484.49,137.234 1484.48,137.176 1484.48,137.118L1485.31,137.118ZM1484.11,137.118C1484.11,137.175 1484.11,137.233 1484.11,137.29C1484.11,140.556 1482.76,143.712 1480.26,146.204C1477.78,148.687 1474.7,149.961 1471.45,149.97L1471.45,149.447C1474.49,149.424 1477.56,148.151 1479.89,145.827C1482.23,143.482 1483.36,140.364 1483.36,137.29C1483.36,137.233 1483.36,137.175 1483.36,137.118L1484.11,137.118ZM1482.92,137.118C1482.92,137.175 1482.92,137.231 1482.92,137.288C1482.92,140.251 1481.69,143.113 1479.43,145.374C1477.18,147.622 1474.39,148.778 1471.45,148.79L1471.45,148.315C1474.2,148.29 1476.98,147.135 1479.09,145.032C1481.21,142.905 1482.24,140.076 1482.24,137.288C1482.24,137.231 1482.24,137.175 1482.24,137.118L1482.92,137.118ZM1481.72,137.118C1481.72,137.174 1481.73,137.23 1481.73,137.286C1481.73,139.945 1480.62,142.515 1478.59,144.543C1476.58,146.556 1474.08,147.594 1471.45,147.61L1471.45,147.184C1473.92,147.156 1476.4,146.12 1478.29,144.237C1480.19,142.327 1481.11,139.789 1481.11,137.286C1481.11,137.23 1481.11,137.174 1481.11,137.118L1481.72,137.118ZM1480.53,137.118C1480.53,137.173 1480.53,137.229 1480.53,137.284C1480.53,139.64 1479.55,141.916 1477.76,143.713C1475.98,145.491 1473.77,146.41 1471.45,146.43L1471.45,146.052C1473.63,146.022 1475.82,145.105 1477.48,143.442C1479.17,141.75 1479.99,139.501 1479.99,137.284C1479.99,137.229 1479.99,137.173 1479.99,137.118L1480.53,137.118ZM1479.34,137.118C1479.34,137.173 1479.34,137.228 1479.34,137.282C1479.34,139.335 1478.49,141.318 1476.92,142.883C1475.38,144.426 1473.47,145.227 1471.45,145.25L1471.45,144.921C1473.34,144.888 1475.24,144.089 1476.68,142.647C1478.16,141.173 1478.87,139.214 1478.87,137.282C1478.87,137.228 1478.86,137.173 1478.86,137.118L1479.34,137.118ZM1478.14,137.118C1478.14,137.172 1478.14,137.226 1478.14,137.281C1478.14,139.029 1477.42,140.719 1476.08,142.053C1474.78,143.361 1473.16,144.043 1471.45,144.069L1471.45,143.789C1473.05,143.754 1474.66,143.074 1475.88,141.852C1477.14,140.596 1477.74,138.926 1477.74,137.281C1477.74,137.226 1477.74,137.172 1477.74,137.118L1478.14,137.118ZM1476.95,137.118C1476.95,137.171 1476.95,137.225 1476.95,137.279C1476.95,138.724 1476.35,140.12 1475.25,141.223C1474.17,142.296 1472.85,142.859 1471.45,142.889L1471.45,142.657C1472.76,142.62 1474.08,142.059 1475.08,141.056C1476.12,140.019 1476.62,138.639 1476.62,137.279C1476.62,137.225 1476.62,137.171 1476.61,137.118L1476.95,137.118ZM1475.75,137.118C1475.75,137.171 1475.76,137.224 1475.76,137.277C1475.76,138.419 1475.28,139.522 1474.41,140.393C1473.57,141.231 1472.54,141.675 1471.45,141.708L1471.45,141.524C1472.47,141.485 1473.5,141.044 1474.28,140.261C1475.1,139.442 1475.49,138.351 1475.49,137.277C1475.49,137.224 1475.49,137.171 1475.49,137.118L1475.75,137.118Z" style="fill:#733c52;"/>
            <path id="q11" serif:id="q1" d="M1471.45,122.162C1475.29,122.182 1479.13,123.659 1482.07,126.594C1484.98,129.504 1486.45,133.304 1486.5,137.118L1485.61,137.118C1485.56,133.532 1484.17,129.96 1481.44,127.224C1478.68,124.464 1475.07,123.073 1471.45,123.053L1471.45,122.162ZM1471.45,123.346C1474.99,123.368 1478.52,124.729 1481.22,127.43C1483.9,130.109 1485.26,133.607 1485.31,137.118L1484.48,137.118C1484.44,133.817 1483.16,130.53 1480.64,128.011C1478.1,125.471 1474.78,124.189 1471.45,124.167L1471.45,123.346ZM1471.45,124.53C1474.68,124.554 1477.91,125.799 1480.38,128.267C1482.82,130.715 1484.07,133.91 1484.11,137.118L1483.36,137.118C1483.32,134.102 1482.14,131.099 1479.84,128.798C1477.52,126.478 1474.49,125.305 1471.45,125.281L1471.45,124.53ZM1471.45,125.713C1474.38,125.739 1477.29,126.869 1479.53,129.103C1481.75,131.32 1482.88,134.212 1482.92,137.118L1482.24,137.118C1482.19,134.387 1481.13,131.669 1479.05,129.585C1476.94,127.485 1474.2,126.421 1471.45,126.395L1471.45,125.713ZM1471.45,126.897C1474.07,126.925 1476.68,127.939 1478.68,129.94C1480.67,131.925 1481.68,134.515 1481.72,137.118L1481.11,137.118C1481.07,134.672 1480.12,132.239 1478.25,130.372C1476.37,128.492 1473.91,127.537 1471.45,127.509L1471.45,126.897ZM1471.45,128.081C1473.76,128.111 1476.07,129.009 1477.84,130.776C1479.59,132.531 1480.49,134.818 1480.53,137.118L1479.99,137.118C1479.95,134.957 1479.1,132.808 1477.45,131.159C1475.79,129.499 1473.62,128.653 1471.45,128.623L1471.45,128.081ZM1471.45,129.265C1473.46,129.297 1475.45,130.079 1476.99,131.612C1478.51,133.136 1479.3,135.121 1479.34,137.118L1478.86,137.118C1478.82,135.242 1478.09,133.378 1476.65,131.947C1475.21,130.506 1473.34,129.769 1471.45,129.737L1471.45,129.265ZM1471.45,130.449C1473.15,130.483 1474.84,131.149 1476.14,132.449C1477.43,133.742 1478.1,135.424 1478.14,137.118L1477.74,137.118C1477.7,135.527 1477.07,133.948 1475.86,132.733C1474.64,131.513 1473.05,130.885 1471.45,130.851L1471.45,130.449ZM1471.45,131.633C1472.84,131.669 1474.23,132.219 1475.3,133.285C1476.36,134.347 1476.91,135.727 1476.95,137.118L1476.61,137.118C1476.58,135.812 1476.06,134.517 1475.06,133.521C1474.06,132.52 1472.76,132.001 1471.45,131.966L1471.45,131.633ZM1471.45,132.818C1472.54,132.855 1473.62,133.289 1474.45,134.122C1475.28,134.953 1475.71,136.029 1475.75,137.118L1475.49,137.118C1475.45,136.097 1475.04,135.087 1474.26,134.308C1473.48,133.527 1472.47,133.118 1471.45,133.081L1471.45,132.818Z" style="fill:#733c52;"/>
        </g>
    </g>
    <g id="S-melisma" serif:id="S melisma">
        <path id="Sounder" d="M929.245,2303.3C903.992,2347.04 847.981,2362.05 804.245,2336.8C760.508,2311.55 745.502,2255.53 770.755,2211.8C796.008,2168.06 852.019,2153.05 895.755,2178.3C939.492,2203.55 954.498,2259.56 929.245,2303.3Z" style="fill:#fff;"/>
        <g id="Ring1" serif:id="Ring" opacity="0.5">
            <path d="M929.245,2303.3C903.992,2347.04 847.981,2362.05 804.245,2336.8C760.508,2311.55 745.502,2255.53 770.755,2211.8C796.008,2168.06 852.019,2153.05 895.755,2178.3C939.492,2203.55 954.498,2259.56 929.245,2303.3Z" style="fill:none;stroke:#000;stroke-width:1.93px;"/>
            <path d="M929.245,2303.3L924.179,2300.37" style="fill:none;stroke:#000;stroke-width:1.93px;"/>
            <path d="M775.821,2214.72L770.755,2211.8" style="fill:none;stroke:#000;stroke-width:1.93px;"/>
            <path d="M807.169,2331.73L804.245,2336.8" style="fill:none;stroke:#000;stroke-width:1.93px;"/>
            <path d="M895.755,2178.3L892.831,2183.36" style="fill:none;stroke:#000;stroke-width:1.93px;"/>
            <path d="M895.753,2336.79L892.829,2331.73" style="fill:none;stroke:#000;stroke-width:1.93px;"/>
            <path d="M807.171,2183.37L804.247,2178.3" style="fill:none;stroke:#000;stroke-width:1.93px;"/>
            <path d="M775.816,2300.38L770.75,2303.3" style="fill:none;stroke:#000;stroke-width:1.93px;"/>
            <path d="M929.25,2211.79L924.184,2214.72" style="fill:none;stroke:#000;stroke-width:1.93px;"/>
            <path d="M850,2349.05L850,2343.2" style="fill:none;stroke:#000;stroke-width:1.93px;"/>
            <path d="M850,2171.89L850,2166.04" style="fill:none;stroke:#000;stroke-width:1.93px;"/>
            <path d="M764.343,2257.55L758.493,2257.55" style="fill:none;stroke:#000;stroke-width:1.93px;"/>
            <path d="M941.507,2257.55L935.657,2257.55" style="fill:none;stroke:#000;stroke-width:1.93px;"/>
        </g>
        <g id="Root-Markers1" serif:id="Root Markers">
        </g>
        <g id="Notes1" serif:id="Notes">
            <path id="_11" serif:id="11" d="M817.487,2186.84C813.245,2194.19 803.834,2196.71 796.486,2192.47C789.138,2188.23 786.616,2178.82 790.859,2171.47C795.101,2164.12 804.512,2161.6 811.86,2165.84C819.208,2170.08 821.73,2179.49 817.487,2186.84Z" style="fill:#82c072;stroke:#fff;stroke-width:4.63px;"/>
            <path id="_91" serif:id="9" d="M771.807,2267.04C767.565,2274.39 758.154,2276.91 750.806,2272.66C743.458,2268.42 740.936,2259.01 745.179,2251.66C749.421,2244.32 758.832,2241.79 766.18,2246.04C773.528,2250.28 776.05,2259.69 771.807,2267.04Z" style="fill:#82c072;stroke:#fff;stroke-width:4.63px;"/>
            <path id="_71" serif:id="7" d="M818.378,2344.24C814.135,2351.59 804.725,2354.11 797.377,2349.87C790.029,2345.62 787.507,2336.21 791.75,2328.86C795.992,2321.52 805.403,2318.99 812.751,2323.24C820.099,2327.48 822.621,2336.89 818.378,2344.24Z" style="fill:#82c072;stroke:#fff;stroke-width:4.63px;"/>
            <path id="_6" serif:id="6" d="M863.314,2357.19C859.072,2364.54 849.661,2367.06 842.313,2362.82C834.965,2358.58 832.443,2349.17 836.686,2341.82C840.928,2334.47 850.339,2331.95 857.687,2336.19C865.035,2340.43 867.557,2349.84 863.314,2357.19Z" style="fill:#82c072;stroke:#fff;stroke-width:4.63px;"/>
            <path id="_4" serif:id="4" d="M941.944,2311.48C937.701,2318.83 928.291,2321.35 920.943,2317.11C913.594,2312.86 911.073,2303.45 915.315,2296.11C919.558,2288.76 928.968,2286.24 936.316,2290.48C943.665,2294.72 946.186,2304.13 941.944,2311.48Z" style="fill:#82c072;stroke:#fff;stroke-width:4.63px;"/>
            <path id="_24" serif:id="2" d="M941.941,2220.7C937.698,2228.05 928.288,2230.57 920.94,2226.33C913.591,2222.09 911.07,2212.68 915.312,2205.33C919.555,2197.98 928.965,2195.46 936.313,2199.7C943.662,2203.95 946.183,2213.36 941.941,2220.7Z" style="fill:#82c072;stroke:#fff;stroke-width:4.63px;"/>
            <path id="_01" serif:id="0" d="M863.314,2174.72C859.072,2182.07 849.661,2184.59 842.313,2180.35C834.965,2176.11 832.443,2166.7 836.686,2159.35C840.928,2152 850.339,2149.48 857.687,2153.72C865.035,2157.97 867.557,2167.38 863.314,2174.72Z" style="fill:#82c072;stroke:#fff;stroke-width:4.63px;"/>
        </g>
        <g id="Treble-Marker1" serif:id="Treble Marker">
        </g>
    </g>
</svg>
