<?xml version="1.0" encoding="UTF-8" standalone="no"?>
<!DOCTYPE svg PUBLIC "-//W3C//DTD SVG 1.1//EN" "http://www.w3.org/Graphics/SVG/1.1/DTD/svg11.dtd">
<svg width="100%" height="100%" viewBox="0 0 1700 2481" version="1.1" xmlns="http://www.w3.org/2000/svg" xmlns:xlink="http://www.w3.org/1999/xlink" xml:space="preserve" xmlns:serif="http://www.serif.com/" style="fill-rule:evenodd;clip-rule:evenodd;stroke-linecap:round;stroke-linejoin:round;stroke-miterlimit:1.5;">
    <rect id="Y2A2" x="0" y="0.453" width="1700" height="2480" style="fill:none;"/>
    <g id="Fields" opacity="0.2" sound="Field/11-Eyeral">
        <path id="_0" serif:id="0" d="M977.38,763.094L1181.01,10.357L517.545,10.453L721.173,763.116C807.412,741.224 892.85,740.319 977.38,763.094Z" style="fill:#b7ad66;stroke:#767676;stroke-width:8.33px;"/>
    </g>
    <a href="A.svg">
    <g id="S">
        <g id="Ring">
            <path id="Backer" d="M1261.43,1477.45C1130.55,1704.15 840.239,1781.95 613.55,1651.07C386.862,1520.2 309.085,1229.89 439.973,1003.19C570.862,776.49 861.169,698.692 1087.86,829.568C1314.55,960.444 1392.32,1250.75 1261.43,1477.45Z" style="fill:#fff;"/>
            <path d="M1261.43,1477.45C1130.55,1704.15 840.239,1781.95 613.55,1651.07C386.862,1520.2 309.085,1229.89 439.973,1003.19C570.862,776.49 861.169,698.692 1087.86,829.568C1314.55,960.444 1392.32,1250.75 1261.43,1477.45Z" style="fill:none;stroke:#000;stroke-width:8.33px;"/>
            <path d="M1261.43,1477.45L1235.18,1462.29" style="fill:none;stroke:#000;stroke-width:8.33px;"/>
            <path d="M466.231,1018.35L439.973,1003.19" style="fill:none;stroke:#000;stroke-width:8.33px;"/>
            <path d="M628.71,1624.82L613.55,1651.07" style="fill:none;stroke:#000;stroke-width:8.33px;"/>
            <path d="M1087.86,829.568L1072.7,855.825" style="fill:none;stroke:#000;stroke-width:8.33px;"/>
            <path d="M1087.85,1651.06L1072.69,1624.8" style="fill:none;stroke:#000;stroke-width:8.33px;"/>
            <path d="M628.72,855.842L613.56,829.585" style="fill:none;stroke:#000;stroke-width:8.33px;"/>
            <path d="M466.201,1462.31L439.944,1477.47" style="fill:none;stroke:#000;stroke-width:8.33px;"/>
            <path d="M1261.46,1003.17L1235.21,1018.33" style="fill:none;stroke:#000;stroke-width:8.33px;"/>
            <path d="M850.704,1714.62L850.704,1684.3" style="fill:none;stroke:#000;stroke-width:8.33px;"/>
            <path d="M850.704,796.345L850.704,766.026" style="fill:none;stroke:#000;stroke-width:8.33px;"/>
            <path d="M406.736,1240.32L376.417,1240.32" style="fill:none;stroke:#000;stroke-width:8.33px;"/>
            <path d="M1324.99,1240.32L1294.67,1240.32" style="fill:none;stroke:#000;stroke-width:8.33px;"/>
        </g>
        <g id="Root-Markers" serif:id="Root Markers">
            <path id="_5" serif:id="5" d="M1035.4,1559.02L953.545,1489.85L1016.42,1453.55L1035.4,1559.02ZM1007.11,1510.02L1002.39,1483.77L986.74,1492.81L1007.11,1510.02Z" style="fill:#ec9959;"/>
        </g>
        <g id="Notes">
            <path id="_51" serif:id="5" sound="Font/3-Low-F" d="M1156.02,1693.79C1134.04,1731.87 1085.26,1744.94 1047.17,1722.95C1009.09,1700.96 996.019,1652.19 1018.01,1614.1C1040,1576.02 1088.77,1562.95 1126.86,1584.94C1164.94,1606.93 1178.01,1655.7 1156.02,1693.79Z" style="fill:#ec9959;stroke:#fff;stroke-width:24px;"/>
            <path id="_3" serif:id="3" sound="Font/3-Mid-Eb" d="M1392.1,1284.77C1370.11,1322.85 1321.34,1335.92 1283.25,1313.93C1245.16,1291.94 1232.1,1243.17 1254.09,1205.09C1276.08,1167 1324.85,1153.93 1362.93,1175.92C1401.02,1197.91 1414.09,1246.68 1392.1,1284.77Z" style="fill:#ec9959;stroke:#fff;stroke-width:24px;"/>
            <path id="_01" serif:id="0" sound="Font/3-Mid-C" d="M919.712,811.05C897.722,849.136 848.949,862.204 810.862,840.215C772.775,818.227 759.707,769.454 781.696,731.368C803.685,693.282 852.459,680.214 890.546,702.202C928.632,724.191 941.701,772.964 919.712,811.05Z" style="fill:#ec9959;stroke:#fff;stroke-width:24px;"/>
        </g>
        <g id="Treble-Marker" serif:id="Treble Marker">
            <g id="_8" serif:id="8" sound="Font/3-High-Ab">
                <path id="_8u" serif:id="8u" d="M510.492,1521.75C488.503,1559.83 439.729,1572.9 401.643,1550.91C363.556,1528.92 350.487,1480.15 372.476,1442.06C394.466,1403.98 443.24,1390.91 481.326,1412.9C519.413,1434.89 532.482,1483.66 510.492,1521.75Z" style="fill:#fff;stroke:#fff;stroke-width:33.33px;"/>
                <circle id="_8a" serif:id="8a" cx="441.484" cy="1481.9" r="64" style="fill:#fff;stroke:#ec9959;stroke-width:16.67px;"/>
            </g>
        </g>
    </g>
    </a>
    <g id="Songs">
        <g id="song-11-eyeral" serif:id="song 11 eyeral">
            <g id="A" sound="Song/11-Eyeral-A">
                <path d="M850.048,318.632C830.651,318.738 811.24,311.262 796.662,296.271L770.906,269.785C757.538,256.039 750.6,238.407 750.04,220.626L850.708,220.807L850.048,318.632Z" style="fill:#ec9959;stroke:#fff;stroke-width:1.67px;"/>
                <path d="M949.971,220.986C949.473,239.576 942.008,257.997 927.635,271.973L901.149,297.73C886.903,311.584 868.482,318.532 850.048,318.632L850.708,220.807L949.971,220.986Z" style="fill:#ec9959;stroke:#fff;stroke-width:1.67px;"/>
                <path d="M850.048,221.634L850.048,317.634" style="fill:none;stroke:#ec9959;stroke-width:4.17px;stroke-linecap:butt;"/>
                <path id="q2" d="M850.406,302.313L850.406,293.884C865.442,292.834 880.225,287.526 892.913,277.148C909.951,262.826 919.905,242.604 920.22,221.079L932.983,221.079C932.51,233.032 929.456,244.955 923.607,255.89C908.981,283.913 880.693,301.089 850.406,302.313ZM896.739,221.079L911.852,221.079C910.208,242.75 897.515,263.289 877.174,273.999C868.576,278.153 859.494,280.455 850.406,280.971L850.406,264.584C874.332,262.959 893.659,244.577 896.739,221.079ZM870.045,221.079C867.716,230.426 860.009,237.655 850.406,239.284L850.406,221.079L870.045,221.079Z" style="fill:#e7e7e7;"/>
                <path id="q3" d="M850.406,293.884L850.406,302.313C841.56,302.67 832.543,301.666 823.646,299.175C795.316,289.739 769.342,268.491 763.048,238.574C776.405,274.178 814.141,296.416 850.406,293.884ZM777.18,221.079L797.164,221.079C800.392,245.697 821.45,264.701 846.952,264.701C848.113,264.701 849.265,264.662 850.406,264.584L850.406,280.971C833.69,281.921 816.954,276.831 803.184,266.122C789.025,255.108 781.15,239.369 777.207,221.266C777.198,221.204 777.189,221.141 777.18,221.079ZM850.406,239.284C849.067,239.511 847.692,239.629 846.289,239.629C834.822,239.629 825.186,231.729 822.532,221.079L850.406,221.079L850.406,239.284Z" style="fill:#e7e7e7;"/>
            </g>
            <g id="Y2A21" serif:id="Y2A2" sound="Song/11-Eyeral-Y2A2">
                <path d="M851.396,119.281C870.309,119.545 889.122,127.018 903.338,141.636L929.094,168.123C943.549,182.986 950.486,202.395 949.971,221.621L850.708,221.443L851.396,119.281Z" style="fill:#ec9959;stroke:#fff;stroke-width:1.67px;"/>
                <path d="M750.04,221.262C749.407,201.224 756.874,180.998 772.365,165.934L798.851,140.177C813.469,125.962 832.483,119.017 851.396,119.281L850.708,221.443L750.04,221.262Z" style="fill:#ec9959;stroke:#fff;stroke-width:1.67px;"/>
                <path d="M851.708,120.274L851.406,220.624" style="fill:none;stroke:#ec9959;stroke-width:4.17px;stroke-linecap:butt;"/>
                <path id="q4" d="M850.406,135.802L850.406,164.389C849.265,164.312 848.113,164.272 846.952,164.272C819.215,164.272 796.736,186.755 796.736,214.488C796.736,216.722 796.882,218.922 797.164,221.079L777.18,221.079C771.01,178.644 800.893,140.982 843.326,136.259C845.712,136.013 848.072,135.861 850.406,135.802ZM822.532,221.079C822.059,219.18 821.808,217.193 821.808,215.148C821.808,201.637 832.777,190.667 846.289,190.667C847.692,190.667 849.067,190.785 850.406,191.012L850.406,221.079L822.532,221.079Z" style="fill:#e7e7e7;"/>
                <path id="q1" d="M932.983,221.079L920.22,221.079C920.269,217.753 920.087,214.397 919.666,211.026C915.732,188.213 902.359,165.382 879.531,159.88C881.894,163.807 886.616,163.807 889.243,167.745C895.078,172.65 901.756,180.892 906.491,190.667C910.955,200.452 912.625,210.891 911.852,221.079L896.739,221.079C897.022,218.922 897.168,216.722 897.168,214.488C897.168,187.916 876.528,166.161 850.406,164.389L850.406,135.802C870.393,135.304 888.423,141.684 903.921,154.368C923.636,170.876 933.973,196.044 932.983,221.079ZM850.406,191.012C861.96,192.972 870.77,203.04 870.77,215.148C870.77,217.193 870.519,219.18 870.045,221.079L850.406,221.079L850.406,191.012Z" style="fill:#e7e7e7;"/>
            </g>
        </g>
    </g>
    <g id="Map">
        <g id="Frame">
            <rect x="1471.5" y="41.994" width="190" height="190" style="fill:#fff;"/>
            <rect x="1471.5" y="41.994" width="190" height="190" style="fill:none;stroke:#000;stroke-width:1.17px;stroke-linejoin:bevel;"/>
            <rect x="1523.38" y="93.869" width="86.25" height="86.25" style="fill:none;stroke:#000;stroke-width:1.25px;stroke-linejoin:bevel;"/>
            <path d="M1609.62,93.869L1661.5,42.203" style="fill:none;stroke:#000;stroke-width:1.25px;stroke-linejoin:bevel;"/>
            <path d="M1523.38,93.869L1471.92,42.203" style="fill:none;stroke:#000;stroke-width:1.25px;stroke-linejoin:bevel;"/>
            <path d="M1523.38,180.119L1471.5,231.994" style="fill:none;stroke:#000;stroke-width:1.25px;stroke-linejoin:bevel;"/>
            <path d="M1609.62,180.119L1661.5,231.994" style="fill:none;stroke:#000;stroke-width:1.25px;stroke-linejoin:bevel;"/>
        </g>
        <g id="Dots">
            <circle cx="1471.5" cy="231.953" r="1.5" style="stroke:#000;stroke-width:1.25px;stroke-linejoin:bevel;"/>
            <circle cx="1566.2" cy="232.078" r="1.5" style="stroke:#000;stroke-width:1.25px;stroke-linejoin:bevel;"/>
            <circle cx="1661.5" cy="231.953" r="1.5" style="stroke:#000;stroke-width:1.25px;stroke-linejoin:bevel;"/>
            <circle cx="1633.85" cy="204.119" r="1.5" style="stroke:#000;stroke-width:1.25px;stroke-linejoin:bevel;"/>
            <circle cx="1609.62" cy="179.953" r="1.5" style="stroke:#000;stroke-width:1.25px;stroke-linejoin:bevel;"/>
            <circle cx="1609.2" cy="137.078" r="1.5" style="stroke:#000;stroke-width:1.25px;stroke-linejoin:bevel;"/>
            <circle cx="1609.32" cy="93.828" r="1.5" style="stroke:#000;stroke-width:1.25px;stroke-linejoin:bevel;"/>
            <circle cx="1633.76" cy="69.619" r="1.5" style="stroke:#000;stroke-width:1.25px;stroke-linejoin:bevel;"/>
            <circle cx="1566.2" cy="93.828" r="1.5" style="stroke:#000;stroke-width:1.25px;stroke-linejoin:bevel;"/>
            <circle cx="1523.07" cy="93.953" r="1.5" style="stroke:#000;stroke-width:1.25px;stroke-linejoin:bevel;"/>
            <circle cx="1566.5" cy="41.953" r="1.5" style="stroke:#000;stroke-width:1.25px;stroke-linejoin:bevel;"/>
            <circle cx="1471.5" cy="41.994" r="1.5" style="stroke:#000;stroke-width:1.25px;stroke-linejoin:bevel;"/>
            <circle cx="1499.35" cy="69.953" r="1.5" style="stroke:#000;stroke-width:1.25px;stroke-linejoin:bevel;"/>
            <circle cx="1471.5" cy="136.994" r="1.5" style="stroke:#000;stroke-width:1.25px;stroke-linejoin:bevel;"/>
            <circle cx="1523.38" cy="136.994" r="1.5" style="stroke:#000;stroke-width:1.25px;stroke-linejoin:bevel;"/>
            <circle cx="1566" cy="180.119" r="1.5" style="stroke:#000;stroke-width:1.25px;stroke-linejoin:bevel;"/>
            <circle cx="1523.35" cy="179.953" r="1.5" style="stroke:#000;stroke-width:1.25px;stroke-linejoin:bevel;"/>
            <circle cx="1499.15" cy="204.453" r="1.5" style="stroke:#000;stroke-width:1.25px;stroke-linejoin:bevel;"/>
            <circle cx="1661.5" cy="136.994" r="1.5" style="stroke:#000;stroke-width:1.25px;stroke-linejoin:bevel;"/>
            <circle cx="1661.49" cy="42.102" r="1.5" style="stroke:#000;stroke-width:1.25px;stroke-linejoin:bevel;"/>
        </g>
        <path d="M1494.41,63.918L1523.38,93.43" style="fill:none;stroke:#ec9959;stroke-width:5.83px;"/>
        <circle cx="1523.38" cy="93.43" r="6.364" style="fill:#fff;stroke:#ec9959;stroke-width:5.99px;"/>
        <g id="_11" serif:id="11">
            <circle cx="1500" cy="71.203" r="15.75" style="fill:#fff;stroke:#fff;stroke-width:1.46px;"/>
            <path id="q21" serif:id="q2" d="M1500.42,85.842L1500.42,84.354C1503.07,84.169 1505.68,83.232 1507.92,81.401C1510.92,78.873 1512.68,75.305 1512.74,71.506L1514.99,71.506C1514.9,73.616 1514.37,75.72 1513.33,77.649C1510.75,82.595 1505.76,85.626 1500.42,85.842ZM1508.59,71.506L1511.26,71.506C1510.97,75.33 1508.73,78.955 1505.14,80.845C1503.62,81.578 1502.02,81.984 1500.42,82.075L1500.42,79.184C1504.64,78.897 1508.05,75.653 1508.59,71.506ZM1503.88,71.506C1503.47,73.156 1502.11,74.431 1500.42,74.719L1500.42,71.506L1503.88,71.506Z" style="fill:#733c52;"/>
            <path id="q31" serif:id="q3" d="M1500.42,84.354L1500.42,85.842C1498.86,85.905 1497.26,85.727 1495.69,85.288C1490.69,83.623 1486.11,79.873 1485,74.593C1487.36,80.877 1494.02,84.801 1500.42,84.354ZM1487.49,71.506L1491.02,71.506C1491.59,75.851 1495.31,79.204 1499.81,79.204C1500.01,79.204 1500.21,79.197 1500.42,79.184L1500.42,82.075C1497.47,82.243 1494.51,81.345 1492.08,79.455C1489.58,77.511 1488.19,74.734 1487.5,71.539C1487.5,71.528 1487.5,71.517 1487.49,71.506ZM1500.42,74.719C1500.18,74.759 1499.94,74.78 1499.69,74.78C1497.67,74.78 1495.97,73.386 1495.5,71.506L1500.42,71.506L1500.42,74.719Z" style="fill:#733c52;"/>
            <path id="q41" serif:id="q4" d="M1500.42,56.457L1500.42,61.502C1500.21,61.488 1500.01,61.481 1499.81,61.481C1494.91,61.481 1490.94,65.449 1490.94,70.343C1490.94,70.737 1490.97,71.126 1491.02,71.506L1487.49,71.506C1486.4,64.018 1491.68,57.371 1499.17,56.538C1499.59,56.494 1500,56.468 1500.42,56.457ZM1495.5,71.506C1495.41,71.171 1495.37,70.82 1495.37,70.46C1495.37,68.075 1497.31,66.139 1499.69,66.139C1499.94,66.139 1500.18,66.16 1500.42,66.2L1500.42,71.506L1495.5,71.506Z" style="fill:#733c52;"/>
            <path id="q11" serif:id="q1" d="M1514.99,71.506L1512.74,71.506C1512.75,70.919 1512.71,70.327 1512.64,69.732C1511.94,65.706 1509.58,61.677 1505.56,60.706C1505.97,61.399 1506.81,61.399 1507.27,62.094C1508.3,62.96 1509.48,64.414 1510.31,66.139C1511.1,67.866 1511.4,69.708 1511.26,71.506L1508.59,71.506C1508.64,71.126 1508.67,70.737 1508.67,70.343C1508.67,65.654 1505.03,61.815 1500.42,61.502L1500.42,56.457C1503.94,56.369 1507.12,57.495 1509.86,59.734C1513.34,62.647 1515.16,67.088 1514.99,71.506ZM1500.42,66.2C1502.45,66.546 1504.01,68.323 1504.01,70.46C1504.01,70.82 1503.96,71.171 1503.88,71.506L1500.42,71.506L1500.42,66.2Z" style="fill:#733c52;"/>
        </g>
    </g>
    <g id="S-melisma" serif:id="S melisma">
        <path id="Sounder" d="M929.245,2303C903.992,2346.74 847.981,2361.75 804.245,2336.5C760.508,2311.25 745.502,2255.24 770.755,2211.5C796.008,2167.76 852.019,2152.75 895.755,2178C939.492,2203.25 954.498,2259.26 929.245,2303Z" style="fill:#fff;"/>
        <g id="Ring1" serif:id="Ring" opacity="0.5">
            <path d="M929.245,2303C903.992,2346.74 847.981,2361.75 804.245,2336.5C760.508,2311.25 745.502,2255.24 770.755,2211.5C796.008,2167.76 852.019,2152.75 895.755,2178C939.492,2203.25 954.498,2259.26 929.245,2303Z" style="fill:none;stroke:#000;stroke-width:1.93px;"/>
            <path d="M929.245,2303L924.179,2300.08" style="fill:none;stroke:#000;stroke-width:1.93px;"/>
            <path d="M775.821,2214.43L770.755,2211.5" style="fill:none;stroke:#000;stroke-width:1.93px;"/>
            <path d="M807.169,2331.44L804.245,2336.5" style="fill:none;stroke:#000;stroke-width:1.93px;"/>
            <path d="M895.755,2178L892.831,2183.07" style="fill:none;stroke:#000;stroke-width:1.93px;"/>
            <path d="M895.753,2336.5L892.829,2331.43" style="fill:none;stroke:#000;stroke-width:1.93px;"/>
            <path d="M807.171,2183.07L804.247,2178.01" style="fill:none;stroke:#000;stroke-width:1.93px;"/>
            <path d="M775.816,2300.08L770.75,2303.01" style="fill:none;stroke:#000;stroke-width:1.93px;"/>
            <path d="M929.25,2211.5L924.184,2214.42" style="fill:none;stroke:#000;stroke-width:1.93px;"/>
            <path d="M850,2348.76L850,2342.91" style="fill:none;stroke:#000;stroke-width:1.93px;"/>
            <path d="M850,2171.59L850,2165.74" style="fill:none;stroke:#000;stroke-width:1.93px;"/>
            <path d="M764.343,2257.25L758.493,2257.25" style="fill:none;stroke:#000;stroke-width:1.93px;"/>
            <path d="M941.507,2257.25L935.657,2257.25" style="fill:none;stroke:#000;stroke-width:1.93px;"/>
        </g>
        <g id="Root-Markers1" serif:id="Root Markers">
        </g>
        <g id="Notes1" serif:id="Notes">
            <path id="_9" serif:id="9" d="M771.807,2266.74C767.565,2274.09 758.154,2276.61 750.806,2272.37C743.458,2268.13 740.936,2258.72 745.179,2251.37C749.421,2244.02 758.832,2241.5 766.18,2245.74C773.528,2249.99 776.05,2259.39 771.807,2266.74Z" style="fill:#ec9959;stroke:#fff;stroke-width:4.63px;"/>
            <path id="_81" serif:id="8" d="M784.361,2311.55C780.119,2318.9 770.708,2321.42 763.36,2317.18C756.012,2312.93 753.49,2303.52 757.733,2296.18C761.975,2288.83 771.386,2286.31 778.734,2290.55C786.082,2294.79 788.604,2304.2 784.361,2311.55Z" style="fill:#ec9959;stroke:#fff;stroke-width:4.63px;"/>
            <path id="_7" serif:id="7" d="M818.378,2343.94C814.135,2351.29 804.725,2353.81 797.377,2349.57C790.029,2345.33 787.507,2335.92 791.75,2328.57C795.992,2321.22 805.403,2318.7 812.751,2322.94C820.099,2327.19 822.621,2336.6 818.378,2343.94Z" style="fill:#ec9959;stroke:#fff;stroke-width:4.63px;"/>
            <path id="_52" serif:id="5" d="M908.907,2344.74C904.665,2352.09 895.255,2354.61 887.906,2350.37C880.558,2346.13 878.037,2336.72 882.279,2329.37C886.522,2322.02 895.932,2319.5 903.28,2323.74C910.628,2327.98 913.15,2337.39 908.907,2344.74Z" style="fill:#ec9959;stroke:#fff;stroke-width:4.63px;"/>
            <path id="_4" serif:id="4" d="M941.944,2311.18C937.701,2318.53 928.291,2321.05 920.943,2316.81C913.594,2312.57 911.073,2303.16 915.315,2295.81C919.558,2288.46 928.968,2285.94 936.316,2290.18C943.665,2294.43 946.186,2303.84 941.944,2311.18Z" style="fill:#ec9959;stroke:#fff;stroke-width:4.63px;"/>
            <path id="_31" serif:id="3" d="M954.455,2265.83C950.212,2273.18 940.802,2275.7 933.454,2271.45C926.106,2267.21 923.584,2257.8 927.827,2250.45C932.069,2243.11 941.48,2240.59 948.828,2244.83C956.176,2249.07 958.697,2258.48 954.455,2265.83Z" style="fill:#ec9959;stroke:#fff;stroke-width:4.63px;"/>
            <path id="_02" serif:id="0" d="M863.314,2174.43C859.072,2181.78 849.661,2184.3 842.313,2180.06C834.965,2175.82 832.443,2166.41 836.686,2159.06C840.928,2151.71 850.339,2149.19 857.687,2153.43C865.035,2157.67 867.557,2167.08 863.314,2174.43Z" style="fill:#ec9959;stroke:#fff;stroke-width:4.63px;"/>
        </g>
        <g id="Treble-Marker1" serif:id="Treble Marker">
        </g>
    </g>
</svg>
