<?xml version="1.0" encoding="UTF-8" standalone="no"?>
<!DOCTYPE svg PUBLIC "-//W3C//DTD SVG 1.1//EN" "http://www.w3.org/Graphics/SVG/1.1/DTD/svg11.dtd">
<svg width="100%" height="100%" viewBox="0 0 1700 2481" version="1.1" xmlns="http://www.w3.org/2000/svg" xmlns:xlink="http://www.w3.org/1999/xlink" xml:space="preserve" xmlns:serif="http://www.serif.com/" style="fill-rule:evenodd;clip-rule:evenodd;stroke-linecap:round;stroke-linejoin:round;stroke-miterlimit:1.5;">
    <rect id="Y2Z2" x="0" y="0.169" width="1700" height="2480" style="fill:none;"/>
    <g id="Fields" opacity="0.2" sound="Field/03-Arrows" autoplay="true">
        <path id="_7" serif:id="7" d="M497.488,1586.07L10.379,2060.28L10.379,2469.66L514.393,2469.76L717.022,1716.02C630.922,1691.67 562.286,1651.29 497.488,1586.07Z" style="fill:#a18e87;stroke:#767676;stroke-width:8.33px;"/>
    </g>
    <a href="Z.svg">
    <g id="S">
        <g id="Ring">
            <path id="Backer" d="M1261.43,1477.17C1130.55,1703.87 840.239,1781.67 613.55,1650.79C386.862,1519.91 309.085,1229.61 439.973,1002.91C570.862,776.206 861.169,698.408 1087.86,829.284C1314.55,960.16 1392.32,1250.47 1261.43,1477.17Z" style="fill:#fff;"/>
            <path d="M1261.43,1477.17C1130.55,1703.87 840.239,1781.67 613.55,1650.79C386.862,1519.91 309.085,1229.61 439.973,1002.91C570.862,776.206 861.169,698.408 1087.86,829.284C1314.55,960.16 1392.32,1250.47 1261.43,1477.17Z" style="fill:none;stroke:#000;stroke-width:8.33px;"/>
            <path d="M1261.43,1477.17L1235.18,1462.01" style="fill:none;stroke:#000;stroke-width:8.33px;"/>
            <path d="M466.231,1018.07L439.973,1002.91" style="fill:none;stroke:#000;stroke-width:8.33px;"/>
            <path d="M628.71,1624.53L613.55,1650.79" style="fill:none;stroke:#000;stroke-width:8.33px;"/>
            <path d="M1087.86,829.284L1072.7,855.541" style="fill:none;stroke:#000;stroke-width:8.33px;"/>
            <path d="M1087.85,1650.77L1072.69,1624.52" style="fill:none;stroke:#000;stroke-width:8.33px;"/>
            <path d="M628.72,855.558L613.56,829.301" style="fill:none;stroke:#000;stroke-width:8.33px;"/>
            <path d="M466.201,1462.03L439.944,1477.18" style="fill:none;stroke:#000;stroke-width:8.33px;"/>
            <path d="M1261.46,1002.89L1235.21,1018.05" style="fill:none;stroke:#000;stroke-width:8.33px;"/>
            <path d="M850.704,1714.33L850.704,1684.01" style="fill:none;stroke:#000;stroke-width:8.33px;"/>
            <path d="M850.704,796.061L850.704,765.742" style="fill:none;stroke:#000;stroke-width:8.33px;"/>
            <path d="M406.736,1240.04L376.417,1240.04" style="fill:none;stroke:#000;stroke-width:8.33px;"/>
            <path d="M1324.99,1240.04L1294.67,1240.04" style="fill:none;stroke:#000;stroke-width:8.33px;"/>
        </g>
        <g id="Root-Markers" serif:id="Root Markers">
            <path id="_4" serif:id="4" d="M1170.46,1410.73L1064.99,1391.75L1101.29,1328.87L1170.46,1410.73ZM1121.47,1382.44L1104.25,1362.07L1095.22,1377.71L1121.47,1382.44Z" style="fill:#c05c9b;"/>
        </g>
        <g id="Notes">
            <path id="_11" serif:id="11" sound="Font/2-Mid-B" d="M682.187,873.571C660.198,911.656 611.424,924.725 573.337,902.736C535.251,880.747 522.182,831.975 544.171,793.889C566.16,755.803 614.934,742.734 653.021,764.723C691.107,786.712 704.176,835.485 682.187,873.571Z" style="fill:#c05c9b;stroke:#fff;stroke-width:24px;"/>
            <path id="_41" serif:id="4" sound="Font/2-Low-E" d="M1327.25,1519.57C1305.27,1557.66 1256.49,1570.73 1218.4,1548.74C1180.32,1526.75 1167.25,1477.98 1189.24,1439.89C1211.23,1401.81 1260,1388.74 1298.09,1410.73C1336.17,1432.71 1349.24,1481.49 1327.25,1519.57Z" style="fill:#c05c9b;stroke:#fff;stroke-width:24px;"/>
            <path id="_1" serif:id="1" sound="Font/2-Mid-Db" d="M1153.64,879.278C1131.65,917.364 1082.87,930.432 1044.79,908.444C1006.7,886.455 993.632,837.682 1015.62,799.596C1037.61,761.51 1086.38,748.442 1124.47,770.43C1162.56,792.419 1175.63,841.192 1153.64,879.278Z" style="fill:#c05c9b;stroke:#fff;stroke-width:24px;"/>
        </g>
        <g id="Treble-Marker" serif:id="Treble Marker">
            <g id="_71" serif:id="7" sound="Font/2-High-G">
                <path id="_7u" serif:id="7u" d="M686.805,1689.36C664.815,1727.45 616.042,1740.52 577.955,1718.53C539.868,1696.54 526.799,1647.77 548.789,1609.68C570.778,1571.6 619.552,1558.53 657.639,1580.52C695.725,1602.51 708.794,1651.28 686.805,1689.36Z" style="fill:#fff;stroke:#fff;stroke-width:33.33px;"/>
                <circle id="_7a" serif:id="7a" cx="617.797" cy="1649.52" r="64" style="fill:#fff;stroke:#c05c9b;stroke-width:16.67px;"/>
            </g>
        </g>
    </g>
    </a>
    <g id="Songs">
        <g id="song-3-arrows" serif:id="song 3 arrows">
            <g id="Z" sound="Song/03-Arrows-Z">
                <path d="M259.703,2360.34C240.306,2360.45 220.895,2352.97 206.317,2337.98L180.56,2311.5C167.193,2297.75 160.255,2280.12 159.694,2262.34L260.362,2262.52L259.703,2360.34Z" style="fill:#c05c9b;stroke:#fff;stroke-width:1.67px;"/>
                <path d="M359.626,2262.7C359.128,2281.29 351.663,2299.71 337.29,2313.68L310.804,2339.44C296.558,2353.3 278.137,2360.24 259.703,2360.34L260.362,2262.52L359.626,2262.7Z" style="fill:#c05c9b;stroke:#fff;stroke-width:1.67px;"/>
                <path d="M259.703,2263.35L259.703,2359.35" style="fill:none;stroke:#c05c9b;stroke-width:4.17px;stroke-linecap:butt;"/>
                <g id="q3">
                    <path d="M216.095,2266.35L183.166,2275.17L180.466,2279.85L213.395,2271.02L216.095,2266.35Z" style="fill:#e7e7e7;fill-rule:nonzero;"/>
                    <path d="M215.369,2278.39L182.44,2287.21L187.116,2289.91L220.045,2281.09L215.369,2278.39Z" style="fill:#e7e7e7;fill-rule:nonzero;"/>
                    <path d="M199.768,2317.23L223.874,2293.12L223.875,2287.72L199.769,2311.83L199.768,2317.23Z" style="fill:#e7e7e7;fill-rule:nonzero;"/>
                    <path d="M229.267,2298.51L205.161,2322.62L210.558,2322.62L234.664,2298.51L229.267,2298.51Z" style="fill:#e7e7e7;fill-rule:nonzero;"/>
                    <path d="M241.3,2302.35L232.477,2335.27L235.178,2339.95L244.001,2307.02L241.3,2302.35Z" style="fill:#e7e7e7;fill-rule:nonzero;"/>
                    <path d="M242.543,2341.92L247.216,2339.22L256.044,2306.29L251.366,2308.99L242.543,2341.92Z" style="fill:#e7e7e7;fill-rule:nonzero;"/>
                    <path d="M211.736,2276.29L248.44,2266.46C248.348,2266.19 248.263,2265.92 248.189,2265.65C248.115,2265.37 248.054,2265.1 248.001,2264.82L211.297,2274.65L212.048,2273.35L179.119,2282.18L177.769,2284.51L180.107,2285.87L213.036,2277.04L211.736,2276.29Z" style="fill:#e7e7e7;fill-rule:nonzero;"/>
                    <path d="M225.072,2298.51L251.939,2271.65C251.516,2271.28 251.115,2270.88 250.741,2270.45L223.873,2297.32L223.875,2295.81L199.77,2319.92L199.769,2322.62L202.469,2322.62L226.575,2298.51L225.072,2298.51Z" style="fill:#e7e7e7;fill-rule:nonzero;"/>
                    <path d="M247.733,2311.09L257.568,2274.39C257.011,2274.28 256.465,2274.13 255.93,2273.95L246.099,2310.65L245.346,2309.35L236.523,2342.28L237.873,2344.62L240.212,2343.27L249.035,2310.34L247.733,2311.09Z" style="fill:#e7e7e7;fill-rule:nonzero;"/>
                </g>
                <g id="q2">
                    <path d="M272.525,2339.22L277.202,2341.92L268.378,2308.99L263.702,2306.3L272.525,2339.22Z" style="fill:#e7e7e7;fill-rule:nonzero;"/>
                    <path d="M284.569,2339.95L287.269,2335.27L278.446,2302.34L275.746,2307.02L284.569,2339.95Z" style="fill:#e7e7e7;fill-rule:nonzero;"/>
                    <path d="M285.078,2298.51L309.184,2322.62L314.584,2322.62L290.479,2298.51L285.078,2298.51Z" style="fill:#e7e7e7;fill-rule:nonzero;"/>
                    <path d="M295.87,2293.12L319.976,2317.23L319.977,2311.83L295.872,2287.72L295.87,2293.12Z" style="fill:#e7e7e7;fill-rule:nonzero;"/>
                    <path d="M299.699,2281.09L332.629,2289.91L337.306,2287.21L304.377,2278.39L299.699,2281.09Z" style="fill:#e7e7e7;fill-rule:nonzero;"/>
                    <path d="M336.58,2275.17L303.65,2266.35L306.351,2271.02L339.281,2279.85L336.58,2275.17Z" style="fill:#e7e7e7;fill-rule:nonzero;"/>
                    <path d="M307.696,2273.35L308.449,2274.65L271.747,2264.82C271.637,2265.38 271.49,2265.93 271.309,2266.46L308.01,2276.29L306.708,2277.04L339.637,2285.87L341.976,2284.52L340.625,2282.18L307.696,2273.35Z" style="fill:#e7e7e7;fill-rule:nonzero;"/>
                    <path d="M263.813,2273.95C263.548,2274.04 263.277,2274.12 263.003,2274.2C262.728,2274.27 262.452,2274.33 262.176,2274.39L272.011,2311.09L270.711,2310.34L279.534,2343.27L281.872,2344.62L283.222,2342.28L274.399,2309.35L273.648,2310.65L263.813,2273.95Z" style="fill:#e7e7e7;fill-rule:nonzero;"/>
                    <path d="M295.87,2297.32L269.004,2270.45C268.633,2270.87 268.234,2271.27 267.805,2271.65L294.674,2298.51L293.171,2298.51L317.276,2322.62L319.977,2322.62L319.977,2319.92L295.872,2295.81L295.87,2297.32Z" style="fill:#e7e7e7;fill-rule:nonzero;"/>
                </g>
            </g>
            <g id="Y2Z21" serif:id="Y2Z2" sound="Song/03-Arrows-Y2Z2" autoplay="true">
                <path d="M261.099,2160.18C280.012,2160.44 298.825,2167.91 313.04,2182.53L338.797,2209.02C353.252,2223.88 360.188,2243.29 359.674,2262.52L260.41,2262.34L261.099,2160.18Z" style="fill:#c05c9b;stroke:#fff;stroke-width:1.67px;"/>
                <path d="M159.742,2262.16C159.11,2242.12 166.577,2221.89 182.067,2206.83L208.554,2181.07C223.172,2166.86 242.186,2159.91 261.099,2160.18L260.41,2262.34L159.742,2262.16Z" style="fill:#c05c9b;stroke:#fff;stroke-width:1.67px;"/>
                <path d="M260.41,2161.17L260.109,2261.52" style="fill:none;stroke:#c05c9b;stroke-width:4.17px;stroke-linecap:butt;"/>
                <g id="q4">
                    <path d="M247.22,2185.81L242.544,2183.11L251.367,2216.04L256.043,2218.74L247.22,2185.81Z" style="fill:#e7e7e7;fill-rule:nonzero;"/>
                    <path d="M235.176,2185.08L232.476,2189.76L241.299,2222.69L243.999,2218.01L235.176,2185.08Z" style="fill:#e7e7e7;fill-rule:nonzero;"/>
                    <path d="M234.667,2226.52L210.558,2202.41L205.161,2202.41L229.266,2226.52L234.667,2226.52Z" style="fill:#e7e7e7;fill-rule:nonzero;"/>
                    <path d="M223.875,2231.91L199.769,2207.8L199.768,2213.2L223.874,2237.31L223.875,2231.91Z" style="fill:#e7e7e7;fill-rule:nonzero;"/>
                    <path d="M220.042,2243.94L187.113,2235.12L182.439,2237.82L215.369,2246.64L220.042,2243.94Z" style="fill:#e7e7e7;fill-rule:nonzero;"/>
                    <path d="M183.165,2249.86L216.095,2258.68L213.394,2254.01L180.464,2245.18L183.165,2249.86Z" style="fill:#e7e7e7;fill-rule:nonzero;"/>
                    <path d="M212.049,2251.68L211.296,2250.38L247.998,2260.21C248.108,2259.65 248.255,2259.11 248.437,2258.58L211.735,2248.74L213.037,2247.99L180.108,2239.17L177.769,2240.52L179.12,2242.85L212.049,2251.68Z" style="fill:#e7e7e7;fill-rule:nonzero;"/>
                    <path d="M223.876,2227.72L250.741,2254.58C251.112,2254.16 251.512,2253.76 251.94,2253.39L225.071,2226.52L226.574,2226.52L202.469,2202.41L199.768,2202.41L199.768,2205.11L223.873,2229.22L223.876,2227.72Z" style="fill:#e7e7e7;fill-rule:nonzero;"/>
                    <path d="M236.523,2182.75L245.346,2215.68L246.097,2214.38L255.932,2251.08C256.197,2250.99 256.468,2250.91 256.742,2250.83C257.017,2250.76 257.294,2250.7 257.569,2250.64L247.734,2213.94L249.034,2214.69L240.211,2181.76L237.873,2180.41L236.523,2182.75Z" style="fill:#e7e7e7;fill-rule:nonzero;"/>
                </g>
                <g id="q1">
                    <path d="M303.651,2258.69L336.579,2249.86L339.279,2245.19L306.35,2254.01L303.651,2258.69Z" style="fill:#e7e7e7;fill-rule:nonzero;"/>
                    <path d="M304.377,2246.64L337.306,2237.82L332.629,2235.12L299.701,2243.94L304.377,2246.64Z" style="fill:#e7e7e7;fill-rule:nonzero;"/>
                    <path d="M295.871,2231.91L295.87,2237.31L319.976,2213.2L319.977,2207.8L295.871,2231.91Z" style="fill:#e7e7e7;fill-rule:nonzero;"/>
                    <path d="M290.478,2226.52L314.584,2202.41L309.183,2202.41L285.077,2226.52L290.478,2226.52Z" style="fill:#e7e7e7;fill-rule:nonzero;"/>
                    <path d="M278.445,2222.69L287.268,2189.76L284.567,2185.08L275.744,2218.01L278.445,2222.69Z" style="fill:#e7e7e7;fill-rule:nonzero;"/>
                    <path d="M277.202,2183.11L272.525,2185.81L263.702,2218.74L268.379,2216.04L277.202,2183.11Z" style="fill:#e7e7e7;fill-rule:nonzero;"/>
                    <path d="M294.673,2226.52L267.806,2253.39C268.229,2253.76 268.63,2254.16 269.004,2254.58L295.872,2227.72L295.87,2229.22L319.976,2205.11L319.976,2202.41L317.276,2202.41L293.17,2226.52L294.673,2226.52Z" style="fill:#e7e7e7;fill-rule:nonzero;"/>
                    <path d="M272.012,2213.94L262.177,2250.64C262.734,2250.75 263.28,2250.9 263.815,2251.08L273.647,2214.38L274.399,2215.68L283.223,2182.75L281.872,2180.41L279.533,2181.76L270.71,2214.69L272.012,2213.94Z" style="fill:#e7e7e7;fill-rule:nonzero;"/>
                    <path d="M339.638,2239.17L306.709,2247.99L308.009,2248.74L271.305,2258.58C271.398,2258.84 271.479,2259.11 271.552,2259.39C271.626,2259.66 271.691,2259.94 271.744,2260.21L308.448,2250.38L307.698,2251.68L340.627,2242.86L341.976,2240.52L339.638,2239.17Z" style="fill:#e7e7e7;fill-rule:nonzero;"/>
                </g>
            </g>
        </g>
    </g>
    <g id="Map" sound="Map/Y2Z2" loop="false" autoplay="true">
        <g id="Frame">
            <rect x="1471.5" y="41.711" width="190" height="190" style="fill:#fff;"/>
            <rect x="1471.5" y="41.711" width="190" height="190" style="fill:none;stroke:#000;stroke-width:1.17px;stroke-linejoin:bevel;"/>
            <rect x="1523.38" y="93.586" width="86.25" height="86.25" style="fill:none;stroke:#000;stroke-width:1.25px;stroke-linejoin:bevel;"/>
            <path d="M1609.62,93.586L1661.5,41.919" style="fill:none;stroke:#000;stroke-width:1.25px;stroke-linejoin:bevel;"/>
            <path d="M1523.38,93.586L1471.92,41.919" style="fill:none;stroke:#000;stroke-width:1.25px;stroke-linejoin:bevel;"/>
            <path d="M1523.38,179.836L1471.5,231.711" style="fill:none;stroke:#000;stroke-width:1.25px;stroke-linejoin:bevel;"/>
            <path d="M1609.62,179.836L1661.5,231.711" style="fill:none;stroke:#000;stroke-width:1.25px;stroke-linejoin:bevel;"/>
        </g>
        <g id="Dots">
            <circle cx="1471.5" cy="231.669" r="1.5" style="stroke:#000;stroke-width:1.25px;stroke-linejoin:bevel;"/>
            <circle cx="1566.2" cy="231.794" r="1.5" style="stroke:#000;stroke-width:1.25px;stroke-linejoin:bevel;"/>
            <circle cx="1661.5" cy="231.669" r="1.5" style="stroke:#000;stroke-width:1.25px;stroke-linejoin:bevel;"/>
            <circle cx="1633.85" cy="203.835" r="1.5" style="stroke:#000;stroke-width:1.25px;stroke-linejoin:bevel;"/>
            <circle cx="1609.62" cy="179.669" r="1.5" style="stroke:#000;stroke-width:1.25px;stroke-linejoin:bevel;"/>
            <circle cx="1609.2" cy="136.794" r="1.5" style="stroke:#000;stroke-width:1.25px;stroke-linejoin:bevel;"/>
            <circle cx="1609.32" cy="93.544" r="1.5" style="stroke:#000;stroke-width:1.25px;stroke-linejoin:bevel;"/>
            <circle cx="1633.76" cy="69.335" r="1.5" style="stroke:#000;stroke-width:1.25px;stroke-linejoin:bevel;"/>
            <circle cx="1566.2" cy="93.544" r="1.5" style="stroke:#000;stroke-width:1.25px;stroke-linejoin:bevel;"/>
            <circle cx="1523.07" cy="93.669" r="1.5" style="stroke:#000;stroke-width:1.25px;stroke-linejoin:bevel;"/>
            <circle cx="1566.5" cy="41.669" r="1.5" style="stroke:#000;stroke-width:1.25px;stroke-linejoin:bevel;"/>
            <circle cx="1471.5" cy="41.711" r="1.5" style="stroke:#000;stroke-width:1.25px;stroke-linejoin:bevel;"/>
            <circle cx="1499.35" cy="69.669" r="1.5" style="stroke:#000;stroke-width:1.25px;stroke-linejoin:bevel;"/>
            <circle cx="1471.5" cy="136.711" r="1.5" style="stroke:#000;stroke-width:1.25px;stroke-linejoin:bevel;"/>
            <circle cx="1523.38" cy="136.711" r="1.5" style="stroke:#000;stroke-width:1.25px;stroke-linejoin:bevel;"/>
            <circle cx="1566" cy="179.836" r="1.5" style="stroke:#000;stroke-width:1.25px;stroke-linejoin:bevel;"/>
            <circle cx="1523.35" cy="179.669" r="1.5" style="stroke:#000;stroke-width:1.25px;stroke-linejoin:bevel;"/>
            <circle cx="1499.15" cy="204.169" r="1.5" style="stroke:#000;stroke-width:1.25px;stroke-linejoin:bevel;"/>
            <circle cx="1661.5" cy="136.711" r="1.5" style="stroke:#000;stroke-width:1.25px;stroke-linejoin:bevel;"/>
            <circle cx="1661.49" cy="41.818" r="1.5" style="stroke:#000;stroke-width:1.25px;stroke-linejoin:bevel;"/>
        </g>
        <path d="M1566.5,41.711L1662.3,41.711" style="fill:none;stroke:#c05c9b;stroke-width:5.83px;"/>
        <circle cx="1661.5" cy="41.711" r="6.364" style="fill:#fff;stroke:#c05c9b;stroke-width:5.99px;"/>
        <g id="_3" serif:id="3">
            <circle cx="1566.5" cy="41.339" r="15.75" style="fill:#fff;stroke:#fff;stroke-width:1.46px;"/>
            <g id="q31" serif:id="q3">
                <path d="M1559.45,42.328L1554.14,43.749L1553.71,44.503L1559.01,43.081L1559.45,42.328Z" style="fill:#733c52;fill-rule:nonzero;"/>
                <path d="M1559.33,44.268L1554.03,45.689L1554.78,46.124L1560.08,44.703L1559.33,44.268Z" style="fill:#733c52;fill-rule:nonzero;"/>
                <path d="M1556.82,50.525L1560.7,46.642L1560.7,45.772L1556.82,49.655L1556.82,50.525Z" style="fill:#733c52;fill-rule:nonzero;"/>
                <path d="M1561.57,47.51L1557.68,51.394L1558.56,51.394L1562.44,47.51L1561.57,47.51Z" style="fill:#733c52;fill-rule:nonzero;"/>
                <path d="M1563.51,48.127L1562.09,53.433L1562.52,54.186L1563.94,48.881L1563.51,48.127Z" style="fill:#733c52;fill-rule:nonzero;"/>
                <path d="M1563.71,54.504L1564.46,54.069L1565.88,48.764L1565.13,49.199L1563.71,54.504Z" style="fill:#733c52;fill-rule:nonzero;"/>
                <path d="M1558.75,43.93L1564.66,42.345C1564.64,42.303 1564.63,42.259 1564.62,42.215C1564.61,42.171 1564.6,42.126 1564.59,42.082L1558.67,43.666L1558.8,43.457L1553.49,44.878L1553.27,45.255L1553.65,45.472L1558.95,44.051L1558.75,43.93Z" style="fill:#733c52;fill-rule:nonzero;"/>
                <path d="M1560.89,47.51L1565.22,43.182C1565.15,43.122 1565.09,43.058 1565.03,42.989L1560.7,47.317L1560.7,47.075L1556.82,50.959L1556.82,51.394L1557.25,51.394L1561.13,47.51L1560.89,47.51Z" style="fill:#733c52;fill-rule:nonzero;"/>
                <path d="M1564.54,49.537L1566.13,43.624C1566.04,43.606 1565.95,43.582 1565.87,43.553L1564.28,49.466L1564.16,49.257L1562.74,54.562L1562.96,54.938L1563.33,54.721L1564.75,49.416L1564.54,49.537Z" style="fill:#733c52;fill-rule:nonzero;"/>
            </g>
            <g id="q21" serif:id="q2">
                <path d="M1568.54,54.069L1569.29,54.504L1567.87,49.199L1567.12,48.764L1568.54,54.069Z" style="fill:#733c52;fill-rule:nonzero;"/>
                <path d="M1570.48,54.186L1570.91,53.433L1569.49,48.127L1569.06,48.881L1570.48,54.186Z" style="fill:#733c52;fill-rule:nonzero;"/>
                <path d="M1570.56,47.51L1574.44,51.394L1575.32,51.394L1571.43,47.51L1570.56,47.51Z" style="fill:#733c52;fill-rule:nonzero;"/>
                <path d="M1572.3,46.642L1576.18,50.525L1576.18,49.655L1572.3,45.772L1572.3,46.642Z" style="fill:#733c52;fill-rule:nonzero;"/>
                <path d="M1572.92,44.703L1578.22,46.124L1578.98,45.689L1573.67,44.268L1572.92,44.703Z" style="fill:#733c52;fill-rule:nonzero;"/>
                <path d="M1578.86,43.749L1573.55,42.328L1573.99,43.081L1579.29,44.503L1578.86,43.749Z" style="fill:#733c52;fill-rule:nonzero;"/>
                <path d="M1574.2,43.457L1574.33,43.666L1568.41,42.082C1568.39,42.172 1568.37,42.26 1568.34,42.345L1574.26,43.93L1574.05,44.051L1579.35,45.472L1579.73,45.255L1579.51,44.878L1574.2,43.457Z" style="fill:#733c52;fill-rule:nonzero;"/>
                <path d="M1567.13,43.552C1567.09,43.567 1567.05,43.581 1567,43.593C1566.96,43.604 1566.91,43.615 1566.87,43.623L1568.46,49.537L1568.25,49.416L1569.67,54.721L1570.04,54.938L1570.26,54.562L1568.84,49.257L1568.72,49.466L1567.13,43.552Z" style="fill:#733c52;fill-rule:nonzero;"/>
                <path d="M1572.3,47.317L1567.97,42.988C1567.91,43.057 1567.85,43.122 1567.78,43.182L1572.11,47.51L1571.87,47.51L1575.75,51.394L1576.18,51.394L1576.18,50.959L1572.3,47.075L1572.3,47.317Z" style="fill:#733c52;fill-rule:nonzero;"/>
            </g>
            <g id="q41" serif:id="q4">
                <path d="M1564.46,29.352L1563.71,28.917L1565.13,34.222L1565.88,34.657L1564.46,29.352Z" style="fill:#733c52;fill-rule:nonzero;"/>
                <path d="M1562.52,29.235L1562.09,29.988L1563.51,35.294L1563.94,34.54L1562.52,29.235Z" style="fill:#733c52;fill-rule:nonzero;"/>
                <path d="M1562.44,35.911L1558.56,32.027L1557.68,32.027L1561.57,35.911L1562.44,35.911Z" style="fill:#733c52;fill-rule:nonzero;"/>
                <path d="M1560.7,36.779L1556.82,32.896L1556.82,33.766L1560.7,37.649L1560.7,36.779Z" style="fill:#733c52;fill-rule:nonzero;"/>
                <path d="M1560.08,38.718L1554.78,37.297L1554.03,37.732L1559.33,39.153L1560.08,38.718Z" style="fill:#733c52;fill-rule:nonzero;"/>
                <path d="M1554.14,39.672L1559.45,41.093L1559.01,40.34L1553.71,38.918L1554.14,39.672Z" style="fill:#733c52;fill-rule:nonzero;"/>
                <path d="M1558.8,39.964L1558.67,39.755L1564.59,41.339C1564.61,41.249 1564.63,41.161 1564.66,41.076L1558.74,39.491L1558.95,39.37L1553.65,37.949L1553.27,38.166L1553.49,38.543L1558.8,39.964Z" style="fill:#733c52;fill-rule:nonzero;"/>
                <path d="M1560.7,36.104L1565.03,40.433C1565.09,40.364 1565.15,40.299 1565.22,40.239L1560.89,35.911L1561.13,35.911L1557.25,32.027L1556.82,32.027L1556.82,32.462L1560.7,36.346L1560.7,36.104Z" style="fill:#733c52;fill-rule:nonzero;"/>
                <path d="M1562.74,28.859L1564.16,34.165L1564.28,33.955L1565.87,39.868C1565.91,39.854 1565.95,39.84 1566,39.828C1566.04,39.817 1566.09,39.806 1566.13,39.798L1564.54,33.884L1564.75,34.005L1563.33,28.7L1562.96,28.483L1562.74,28.859Z" style="fill:#733c52;fill-rule:nonzero;"/>
            </g>
            <g id="q11" serif:id="q1">
                <path d="M1573.55,41.093L1578.86,39.672L1579.29,38.918L1573.99,40.34L1573.55,41.093Z" style="fill:#733c52;fill-rule:nonzero;"/>
                <path d="M1573.67,39.153L1578.98,37.732L1578.22,37.297L1572.92,38.718L1573.67,39.153Z" style="fill:#733c52;fill-rule:nonzero;"/>
                <path d="M1572.3,36.779L1572.3,37.649L1576.18,33.766L1576.18,32.896L1572.3,36.779Z" style="fill:#733c52;fill-rule:nonzero;"/>
                <path d="M1571.43,35.911L1575.32,32.027L1574.44,32.027L1570.56,35.911L1571.43,35.911Z" style="fill:#733c52;fill-rule:nonzero;"/>
                <path d="M1569.49,35.294L1570.91,29.988L1570.48,29.235L1569.06,34.54L1569.49,35.294Z" style="fill:#733c52;fill-rule:nonzero;"/>
                <path d="M1569.29,28.917L1568.54,29.352L1567.12,34.657L1567.87,34.222L1569.29,28.917Z" style="fill:#733c52;fill-rule:nonzero;"/>
                <path d="M1572.11,35.911L1567.78,40.239C1567.85,40.299 1567.91,40.364 1567.97,40.432L1572.3,36.104L1572.3,36.346L1576.18,32.462L1576.18,32.027L1575.75,32.027L1571.87,35.911L1572.11,35.911Z" style="fill:#733c52;fill-rule:nonzero;"/>
                <path d="M1568.46,33.884L1566.87,39.797C1566.96,39.815 1567.05,39.839 1567.13,39.868L1568.72,33.955L1568.84,34.165L1570.26,28.859L1570.04,28.483L1569.67,28.7L1568.25,34.005L1568.46,33.884Z" style="fill:#733c52;fill-rule:nonzero;"/>
                <path d="M1579.35,37.949L1574.05,39.37L1574.26,39.491L1568.34,41.076C1568.36,41.118 1568.37,41.162 1568.38,41.206C1568.39,41.251 1568.4,41.295 1568.41,41.339L1574.33,39.755L1574.2,39.964L1579.51,38.543L1579.73,38.166L1579.35,37.949Z" style="fill:#733c52;fill-rule:nonzero;"/>
            </g>
        </g>
    </g>
    <g id="S-melisma" serif:id="S melisma" sound="Scale/Y2Z2" loop="false">
        <path id="Sounder" d="M929.245,2302.72C903.992,2346.46 847.981,2361.47 804.245,2336.22C760.508,2310.97 745.502,2254.96 770.755,2211.22C796.008,2167.48 852.019,2152.47 895.755,2177.72C939.492,2202.97 954.498,2258.98 929.245,2302.72Z" style="fill:#fff;"/>
        <g id="Ring1" serif:id="Ring" opacity="0.5">
            <path d="M929.245,2302.72C903.992,2346.46 847.981,2361.47 804.245,2336.22C760.508,2310.97 745.502,2254.96 770.755,2211.22C796.008,2167.48 852.019,2152.47 895.755,2177.72C939.492,2202.97 954.498,2258.98 929.245,2302.72Z" style="fill:none;stroke:#000;stroke-width:1.93px;"/>
            <path d="M929.245,2302.72L924.179,2299.8" style="fill:none;stroke:#000;stroke-width:1.93px;"/>
            <path d="M775.821,2214.14L770.755,2211.22" style="fill:none;stroke:#000;stroke-width:1.93px;"/>
            <path d="M807.169,2331.15L804.245,2336.22" style="fill:none;stroke:#000;stroke-width:1.93px;"/>
            <path d="M895.755,2177.72L892.831,2182.79" style="fill:none;stroke:#000;stroke-width:1.93px;"/>
            <path d="M895.753,2336.21L892.829,2331.15" style="fill:none;stroke:#000;stroke-width:1.93px;"/>
            <path d="M807.171,2182.79L804.247,2177.72" style="fill:none;stroke:#000;stroke-width:1.93px;"/>
            <path d="M775.816,2299.8L770.75,2302.72" style="fill:none;stroke:#000;stroke-width:1.93px;"/>
            <path d="M929.25,2211.21L924.184,2214.14" style="fill:none;stroke:#000;stroke-width:1.93px;"/>
            <path d="M850,2348.48L850,2342.63" style="fill:none;stroke:#000;stroke-width:1.93px;"/>
            <path d="M850,2171.31L850,2165.46" style="fill:none;stroke:#000;stroke-width:1.93px;"/>
            <path d="M764.343,2256.97L758.493,2256.97" style="fill:none;stroke:#000;stroke-width:1.93px;"/>
            <path d="M941.507,2256.97L935.657,2256.97" style="fill:none;stroke:#000;stroke-width:1.93px;"/>
        </g>
        <g id="Root-Markers1" serif:id="Root Markers">
        </g>
        <g id="Notes1" serif:id="Notes">
            <path id="_111" serif:id="11" d="M817.487,2186.26C813.245,2193.61 803.834,2196.13 796.486,2191.89C789.138,2187.65 786.616,2178.24 790.859,2170.89C795.101,2163.54 804.512,2161.02 811.86,2165.26C819.208,2169.51 821.73,2178.92 817.487,2186.26Z" style="fill:#c05c9b;stroke:#fff;stroke-width:4.63px;"/>
            <path id="_10" serif:id="10" d="M784.907,2220.12C780.665,2227.47 771.254,2229.99 763.906,2225.75C756.558,2221.51 754.036,2212.1 758.279,2204.75C762.521,2197.4 771.932,2194.88 779.28,2199.12C786.628,2203.37 789.15,2212.78 784.907,2220.12Z" style="fill:#c05c9b;stroke:#fff;stroke-width:4.63px;"/>
            <path id="_72" serif:id="7" d="M818.378,2343.66C814.135,2351.01 804.725,2353.53 797.377,2349.29C790.029,2345.05 787.507,2335.64 791.75,2328.29C795.992,2320.94 805.403,2318.42 812.751,2322.66C820.099,2326.9 822.621,2336.31 818.378,2343.66Z" style="fill:#c05c9b;stroke:#fff;stroke-width:4.63px;"/>
            <path id="_42" serif:id="4" d="M941.944,2310.9C937.701,2318.25 928.291,2320.77 920.943,2316.53C913.594,2312.29 911.073,2302.88 915.315,2295.53C919.558,2288.18 928.968,2285.66 936.316,2289.9C943.665,2294.14 946.186,2303.55 941.944,2310.9Z" style="fill:#c05c9b;stroke:#fff;stroke-width:4.63px;"/>
            <path id="_2" serif:id="2" d="M941.941,2220.13C937.698,2227.47 928.288,2230 920.94,2225.75C913.591,2221.51 911.07,2212.1 915.312,2204.75C919.555,2197.41 928.965,2194.88 936.313,2199.13C943.662,2203.37 946.183,2212.78 941.941,2220.13Z" style="fill:#c05c9b;stroke:#fff;stroke-width:4.63px;"/>
            <path id="_12" serif:id="1" d="M908.447,2187.37C904.204,2194.71 894.794,2197.24 887.446,2192.99C880.097,2188.75 877.576,2179.34 881.818,2171.99C886.061,2164.64 895.471,2162.12 902.819,2166.37C910.168,2170.61 912.689,2180.02 908.447,2187.37Z" style="fill:#c05c9b;stroke:#fff;stroke-width:4.63px;"/>
        </g>
        <g id="Treble-Marker1" serif:id="Treble Marker">
        </g>
    </g>
</svg>
