<?xml version="1.0" encoding="UTF-8" standalone="no"?>
<!DOCTYPE svg PUBLIC "-//W3C//DTD SVG 1.1//EN" "http://www.w3.org/Graphics/SVG/1.1/DTD/svg11.dtd">
<svg width="100%" height="100%" viewBox="0 0 1700 2480" version="1.1" xmlns="http://www.w3.org/2000/svg" xmlns:xlink="http://www.w3.org/1999/xlink" xml:space="preserve" xmlns:serif="http://www.serif.com/" style="fill-rule:evenodd;clip-rule:evenodd;stroke-linecap:round;stroke-linejoin:round;stroke-miterlimit:1.5;">
    <rect id="Z" x="0" y="0" width="1700" height="2480" style="fill:none;"/>
    <g id="Fields" opacity="0.2">
        <path id="_11" serif:id="11" d="M496.488,894.587L10.379,416.376L10.379,10L517.393,9.905L722.022,762.641C635.493,786.499 560.817,828.837 496.488,894.587Z" style="fill:#db9d84;stroke:#767676;stroke-width:8.33px;"/>
        <path id="_7" serif:id="7" d="M497.488,1585.9L10.379,2060.12L10.379,2469.49L514.393,2469.59L717.022,1715.85C630.922,1691.51 562.286,1651.12 497.488,1585.9Z" style="fill:#a18e87;stroke:#767676;stroke-width:8.33px;"/>
        <path id="_4" serif:id="4" d="M1329.04,1364L1689.54,1461.53L1690.08,2062L1204.54,1584.1C1260.76,1527.45 1303.25,1454.8 1329.04,1364Z" style="fill:#84757e;stroke:#767676;stroke-width:8.33px;"/>
    </g>
    <g id="SG">
        <g id="Meta-Ring">
            <path d="M1262.06,1479.89C1130.75,1707.33 839.501,1785.38 612.077,1654.08C384.653,1522.78 306.623,1231.52 437.936,1004.08C569.25,776.638 860.499,698.586 1087.92,829.89C1315.35,961.193 1393.38,1252.45 1262.06,1479.89Z" style="fill:none;stroke:#000;stroke-width:0.48px;stroke-linecap:square;"/>
            <path d="M1262.06,1479.89L1235.72,1464.68" style="fill:none;stroke:#000;stroke-width:0.48px;stroke-linecap:square;"/>
            <path d="M464.279,1019.29L437.936,1004.08" style="fill:none;stroke:#000;stroke-width:0.48px;stroke-linecap:square;"/>
            <path d="M627.286,1627.74L612.077,1654.08" style="fill:none;stroke:#000;stroke-width:0.48px;stroke-linecap:square;"/>
            <path d="M1087.92,829.89L1072.71,856.232" style="fill:none;stroke:#000;stroke-width:0.48px;stroke-linecap:square;"/>
            <path d="M1087.91,1654.06L1072.7,1627.72" style="fill:none;stroke:#000;stroke-width:0.48px;stroke-linecap:square;"/>
            <path d="M627.296,856.25L612.087,829.907" style="fill:none;stroke:#000;stroke-width:0.48px;stroke-linecap:square;"/>
            <path d="M464.249,1464.7L437.907,1479.91" style="fill:none;stroke:#000;stroke-width:0.48px;stroke-linecap:square;"/>
            <path d="M1262.09,1004.06L1235.75,1019.27" style="fill:none;stroke:#000;stroke-width:0.48px;stroke-linecap:square;"/>
            <path d="M850,1717.83L850,1687.41" style="fill:none;stroke:#000;stroke-width:0.48px;stroke-linecap:square;"/>
            <path d="M850,796.558L850,766.14" style="fill:none;stroke:#000;stroke-width:0.48px;stroke-linecap:square;"/>
            <path d="M404.592,1241.99L374.174,1241.99" style="fill:none;stroke:#000;stroke-width:0.48px;stroke-linecap:square;"/>
            <path d="M1325.83,1241.99L1295.41,1241.99" style="fill:none;stroke:#000;stroke-width:0.48px;stroke-linecap:square;"/>
        </g>
        <g id="Ring-Backers" serif:id="Ring Backers">
            <circle id="_11-Backer" serif:id="11 Backer" cx="615.136" cy="838.798" r="92" style="fill:#fff;"/>
            <circle id="_7-Backer" serif:id="7 Backer" cx="615.543" cy="1642" r="92" style="fill:#fff;"/>
            <circle id="_4-Backer" serif:id="4 Backer" cx="1256.6" cy="1470.22" r="92" style="fill:#fff;"/>
            <circle id="_1-Backer" serif:id="1 Backer" cx="1084.6" cy="838.09" r="92" style="fill:#fff;"/>
        </g>
        <g id="Child-Rings" serif:id="Child Rings">
            <g id="_111" serif:id="11">
                <g id="Ring--Sounder--Background" serif:id="Ring, Sounder, Background">
                    <circle id="Sounder" cx="615.136" cy="838.798" r="92" style="fill:#fff;"/>
                    <g id="Ring">
                        <path d="M694.253,885.114C669.04,928.782 613.121,943.768 569.455,918.558C525.79,893.348 510.808,837.427 536.02,793.758C561.232,750.089 617.152,735.103 660.818,760.314C704.483,785.524 719.465,841.445 694.253,885.114Z" style="fill:none;stroke:#000;stroke-width:2.17px;"/>
                        <path d="M694.253,885.114L689.195,882.193" style="fill:none;stroke:#000;stroke-width:2.17px;"/>
                        <path d="M541.078,796.678L536.02,793.758" style="fill:none;stroke:#000;stroke-width:2.17px;"/>
                        <path d="M572.375,913.5L569.455,918.558" style="fill:none;stroke:#000;stroke-width:2.17px;"/>
                        <path d="M660.818,760.314L657.897,765.371" style="fill:none;stroke:#000;stroke-width:2.17px;"/>
                        <path d="M660.816,918.555L657.896,913.497" style="fill:none;stroke:#000;stroke-width:2.17px;"/>
                        <path d="M572.377,765.375L569.457,760.317" style="fill:none;stroke:#000;stroke-width:2.17px;"/>
                        <path d="M541.072,882.197L536.014,885.117" style="fill:none;stroke:#000;stroke-width:2.17px;"/>
                        <path d="M694.258,793.755L689.2,796.675" style="fill:none;stroke:#000;stroke-width:2.17px;"/>
                        <path d="M615.136,930.798L615.136,924.958" style="fill:none;stroke:#000;stroke-width:2.17px;"/>
                        <path d="M615.136,753.914L615.136,748.074" style="fill:none;stroke:#000;stroke-width:2.17px;"/>
                        <path d="M529.618,839.436L523.778,839.436" style="fill:none;stroke:#000;stroke-width:2.17px;"/>
                        <path d="M706.495,839.436L700.655,839.436" style="fill:none;stroke:#000;stroke-width:2.17px;"/>
                    </g>
                </g>
                <g id="Notes">
                    <path id="_10" serif:id="10" d="M550.149,801.652C545.913,808.989 536.518,811.506 529.182,807.27C521.846,803.035 519.328,793.64 523.564,786.303C527.799,778.967 537.194,776.45 544.531,780.685C551.867,784.921 554.385,794.316 550.149,801.652Z" style="fill:#e3a77c;stroke:#fff;stroke-width:5.21px;"/>
                    <path id="_2" serif:id="2" d="M706.928,801.654C702.692,808.99 693.297,811.508 685.961,807.272C678.625,803.036 676.107,793.641 680.343,786.305C684.578,778.969 693.973,776.451 701.31,780.687C708.646,784.923 711.164,794.318 706.928,801.654Z" style="fill:#e3a77c;stroke:#fff;stroke-width:5.21px;"/>
                    <path id="_1" serif:id="1" d="M673.488,768.945C669.253,776.282 659.858,778.799 652.521,774.563C645.185,770.328 642.668,760.933 646.903,753.596C651.139,746.26 660.534,743.743 667.87,747.978C675.207,752.214 677.724,761.609 673.488,768.945Z" style="fill:#e3a77c;stroke:#fff;stroke-width:5.21px;"/>
                </g>
                <g id="Root-Marker" serif:id="Root Marker">
                    <path id="_6" serif:id="6" d="M615.136,906.13L608.558,887.858L621.714,887.858L615.136,906.13ZM615.136,895.878L616.773,891.33L613.499,891.33L615.136,895.878Z" style="fill:#e3a77c;"/>
                </g>
                <g id="Treble-Note" serif:id="Treble Note">
                    <g id="_61" serif:id="6">
                        <path id="_62" serif:id="6" d="M628.797,939.213C624.51,946.638 615.001,949.186 607.576,944.899C600.151,940.612 597.603,931.104 601.89,923.679C606.177,916.254 615.685,913.706 623.11,917.993C630.536,922.28 633.083,931.788 628.797,939.213Z" style="fill:#fff;stroke:#fff;stroke-width:6.5px;"/>
                        <circle id="_6a" serif:id="6a" cx="615.206" cy="931.446" r="12.477" style="fill:#fff;stroke:#e3a77c;stroke-width:3.25px;"/>
                    </g>
                </g>
            </g>
            <g id="_71" serif:id="7">
                <g id="Ring--Sounder--Background1" serif:id="Ring, Sounder, Background">
                    <circle id="Sounder1" serif:id="Sounder" cx="615.543" cy="1642" r="92" style="fill:#fff;"/>
                    <g id="Ring1" serif:id="Ring">
                        <path d="M694.66,1688.32C669.447,1731.99 613.528,1746.97 569.862,1721.76C526.197,1696.55 511.215,1640.63 536.427,1596.96C561.639,1553.3 617.559,1538.31 661.225,1563.52C704.89,1588.73 719.872,1644.65 694.66,1688.32Z" style="fill:none;stroke:#000;stroke-width:2.17px;"/>
                        <path d="M694.66,1688.32L689.602,1685.4" style="fill:none;stroke:#000;stroke-width:2.17px;"/>
                        <path d="M541.485,1599.88L536.427,1596.96" style="fill:none;stroke:#000;stroke-width:2.17px;"/>
                        <path d="M572.782,1716.71L569.862,1721.76" style="fill:none;stroke:#000;stroke-width:2.17px;"/>
                        <path d="M661.225,1563.52L658.305,1568.58" style="fill:none;stroke:#000;stroke-width:2.17px;"/>
                        <path d="M661.223,1721.76L658.303,1716.7" style="fill:none;stroke:#000;stroke-width:2.17px;"/>
                        <path d="M572.784,1568.58L569.864,1563.52" style="fill:none;stroke:#000;stroke-width:2.17px;"/>
                        <path d="M541.479,1685.4L536.422,1688.32" style="fill:none;stroke:#000;stroke-width:2.17px;"/>
                        <path d="M694.665,1596.96L689.608,1599.88" style="fill:none;stroke:#000;stroke-width:2.17px;"/>
                        <path d="M615.543,1734L615.543,1728.16" style="fill:none;stroke:#000;stroke-width:2.17px;"/>
                        <path d="M615.543,1557.12L615.543,1551.28" style="fill:none;stroke:#000;stroke-width:2.17px;"/>
                        <path d="M530.025,1642.64L524.185,1642.64" style="fill:none;stroke:#000;stroke-width:2.17px;"/>
                        <path d="M706.902,1642.64L701.062,1642.64" style="fill:none;stroke:#000;stroke-width:2.17px;"/>
                    </g>
                </g>
                <g id="Notes1" serif:id="Notes">
                    <path id="_101" serif:id="10" d="M550.556,1604.86C546.32,1612.19 536.925,1614.71 529.589,1610.48C522.253,1606.24 519.735,1596.85 523.971,1589.51C528.207,1582.17 537.602,1579.66 544.938,1583.89C552.274,1588.13 554.792,1597.52 550.556,1604.86Z" style="fill:#979f80;stroke:#fff;stroke-width:5.21px;"/>
                    <path id="_41" serif:id="4" d="M707.338,1695.49C703.102,1702.83 693.707,1705.34 686.371,1701.11C679.035,1696.87 676.517,1687.48 680.753,1680.14C684.989,1672.8 694.384,1670.29 701.72,1674.52C709.056,1678.76 711.574,1688.15 707.338,1695.49Z" style="fill:#979f80;stroke:#fff;stroke-width:5.21px;"/>
                    <path id="_21" serif:id="2" d="M707.335,1604.86C703.099,1612.2 693.704,1614.71 686.368,1610.48C679.032,1606.24 676.514,1596.85 680.75,1589.51C684.986,1582.17 694.381,1579.66 701.717,1583.89C709.053,1588.13 711.571,1597.52 707.335,1604.86Z" style="fill:#979f80;stroke:#fff;stroke-width:5.21px;"/>
                </g>
                <g id="Root-Marker1" serif:id="Root Marker">
                    <g id="_42" serif:id="4">
                        <path d="M673.371,1673.63L654.258,1670.19L660.836,1658.79L673.371,1673.63Z" style="fill:#fff;"/>
                        <path d="M673.371,1673.63L654.258,1670.19L660.836,1658.79L673.371,1673.63ZM664.493,1668.5L661.373,1664.81L659.736,1667.64L664.493,1668.5Z" style="fill:#979f80;"/>
                    </g>
                </g>
                <g id="Treble-Note1" serif:id="Treble Note">
                    <g id="_72" serif:id="7">
                        <path id="_7u" serif:id="7u" d="M583.797,1729.33C579.511,1736.75 570.002,1739.3 562.577,1735.02C555.152,1730.73 552.604,1721.22 556.891,1713.79C561.178,1706.37 570.686,1703.82 578.111,1708.11C585.536,1712.39 588.084,1721.9 583.797,1729.33Z" style="fill:#fff;stroke:#fff;stroke-width:6.5px;"/>
                        <circle id="_7a" serif:id="7a" cx="570.344" cy="1721.56" r="12.477" style="fill:#fff;stroke:#979f80;stroke-width:3.25px;"/>
                    </g>
                </g>
            </g>
            <g id="_43" serif:id="4">
                <g id="Ring--Sounder--Background2" serif:id="Ring, Sounder, Background">
                    <circle id="Sounder2" serif:id="Sounder" cx="1256.6" cy="1470.22" r="92" style="fill:#fff;"/>
                    <g id="Ring2" serif:id="Ring">
                        <path d="M1335.71,1516.54C1310.5,1560.21 1254.58,1575.19 1210.91,1549.98C1167.25,1524.77 1152.27,1468.85 1177.48,1425.18C1202.69,1381.52 1258.61,1366.53 1302.28,1391.74C1345.94,1416.95 1360.92,1472.87 1335.71,1516.54Z" style="fill:none;stroke:#000;stroke-width:2.17px;"/>
                        <path d="M1335.71,1516.54L1330.65,1513.62" style="fill:none;stroke:#000;stroke-width:2.17px;"/>
                        <path d="M1182.54,1428.1L1177.48,1425.18" style="fill:none;stroke:#000;stroke-width:2.17px;"/>
                        <path d="M1213.83,1544.93L1210.91,1549.98" style="fill:none;stroke:#000;stroke-width:2.17px;"/>
                        <path d="M1302.28,1391.74L1299.36,1396.8" style="fill:none;stroke:#000;stroke-width:2.17px;"/>
                        <path d="M1302.28,1549.98L1299.36,1544.92" style="fill:none;stroke:#000;stroke-width:2.17px;"/>
                        <path d="M1213.84,1396.8L1210.92,1391.74" style="fill:none;stroke:#000;stroke-width:2.17px;"/>
                        <path d="M1182.53,1513.62L1177.47,1516.54" style="fill:none;stroke:#000;stroke-width:2.17px;"/>
                        <path d="M1335.72,1425.18L1330.66,1428.1" style="fill:none;stroke:#000;stroke-width:2.17px;"/>
                        <path d="M1256.6,1562.22L1256.6,1556.38" style="fill:none;stroke:#000;stroke-width:2.17px;"/>
                        <path d="M1256.6,1385.34L1256.6,1379.5" style="fill:none;stroke:#000;stroke-width:2.17px;"/>
                        <path d="M1171.08,1470.86L1165.24,1470.86" style="fill:none;stroke:#000;stroke-width:2.17px;"/>
                        <path d="M1347.95,1470.86L1342.11,1470.86" style="fill:none;stroke:#000;stroke-width:2.17px;"/>
                    </g>
                </g>
                <g id="Notes2" serif:id="Notes">
                    <path id="_112" serif:id="11" d="M1224.13,1399.27C1219.9,1406.61 1210.51,1409.13 1203.17,1404.89C1195.83,1400.65 1193.32,1391.26 1197.55,1383.92C1201.79,1376.59 1211.18,1374.07 1218.52,1378.31C1225.85,1382.54 1228.37,1391.94 1224.13,1399.27Z" style="fill:#707d74;stroke:#fff;stroke-width:5.21px;"/>
                    <path id="_44" serif:id="4" d="M1348.39,1523.71C1344.15,1531.05 1334.76,1533.56 1327.42,1529.33C1320.09,1525.09 1317.57,1515.7 1321.81,1508.36C1326.04,1501.02 1335.44,1498.51 1342.77,1502.74C1350.11,1506.98 1352.63,1516.37 1348.39,1523.71Z" style="fill:#707d74;stroke:#fff;stroke-width:5.21px;"/>
                </g>
                <g id="Root-Marker2" serif:id="Root Marker">
                    <path id="_113" serif:id="11" d="M1223.18,1413.02L1238.01,1425.56L1226.62,1432.14L1223.18,1413.02ZM1228.31,1421.9L1229.16,1426.66L1232,1425.02L1228.31,1421.9Z" style="fill:#707d74;"/>
                </g>
                <g id="Treble-Note2" serif:id="Treble Note">
                    <g id="_102" serif:id="10">
                        <path id="_103" serif:id="10" d="M1191.03,1432.72C1186.74,1440.15 1177.23,1442.69 1169.81,1438.41C1162.38,1434.12 1159.84,1424.61 1164.12,1417.19C1168.41,1409.76 1177.92,1407.21 1185.34,1411.5C1192.77,1415.79 1195.32,1425.3 1191.03,1432.72Z" style="fill:#fff;stroke:#fff;stroke-width:6.5px;"/>
                        <circle id="_10a" serif:id="10a" cx="1177.58" cy="1424.95" r="12.477" style="fill:#fff;stroke:#707d74;stroke-width:3.25px;"/>
                    </g>
                </g>
            </g>
            <g id="_12" serif:id="1">
                <g id="Ring--Sounder--Background3" serif:id="Ring, Sounder, Background">
                    <circle id="Sounder3" serif:id="Sounder" cx="1084.6" cy="838.09" r="92" style="fill:#fff;"/>
                    <g id="Ring3" serif:id="Ring">
                        <path d="M1163.71,884.406C1138.5,928.074 1082.58,943.06 1038.91,917.85C995.249,892.64 980.267,836.719 1005.48,793.05C1030.69,749.381 1086.61,734.395 1130.28,759.606C1173.94,784.816 1188.92,840.737 1163.71,884.406Z" style="fill:none;stroke:#000;stroke-width:2.17px;"/>
                        <path d="M1163.71,884.406L1158.65,881.485" style="fill:none;stroke:#000;stroke-width:2.17px;"/>
                        <path d="M1010.54,795.97L1005.48,793.05" style="fill:none;stroke:#000;stroke-width:2.17px;"/>
                        <path d="M1041.83,912.792L1038.91,917.85" style="fill:none;stroke:#000;stroke-width:2.17px;"/>
                        <path d="M1130.28,759.606L1127.36,764.663" style="fill:none;stroke:#000;stroke-width:2.17px;"/>
                        <path d="M1130.28,917.847L1127.36,912.789" style="fill:none;stroke:#000;stroke-width:2.17px;"/>
                        <path d="M1041.84,764.667L1038.92,759.609" style="fill:none;stroke:#000;stroke-width:2.17px;"/>
                        <path d="M1010.53,881.489L1005.47,884.409" style="fill:none;stroke:#000;stroke-width:2.17px;"/>
                        <path d="M1163.72,793.047L1158.66,795.967" style="fill:none;stroke:#000;stroke-width:2.17px;"/>
                        <path d="M1084.6,930.09L1084.6,924.25" style="fill:none;stroke:#000;stroke-width:2.17px;"/>
                        <path d="M1084.6,753.206L1084.6,747.366" style="fill:none;stroke:#000;stroke-width:2.17px;"/>
                        <path d="M999.077,838.728L993.237,838.728" style="fill:none;stroke:#000;stroke-width:2.17px;"/>
                        <path d="M1175.95,838.728L1170.11,838.728" style="fill:none;stroke:#000;stroke-width:2.17px;"/>
                    </g>
                </g>
                <g id="Notes3" serif:id="Notes">
                    <path id="_114" serif:id="11" d="M1052.13,767.138C1047.9,774.474 1038.51,776.992 1031.17,772.756C1023.83,768.52 1021.32,759.125 1025.55,751.789C1029.79,744.453 1039.18,741.935 1046.52,746.171C1053.85,750.407 1056.37,759.802 1052.13,767.138Z" style="fill:#c05c9b;stroke:#fff;stroke-width:5.21px;"/>
                    <path id="_45" serif:id="4" d="M1176.39,891.576C1172.15,898.912 1162.76,901.429 1155.42,897.194C1148.09,892.958 1145.57,883.563 1149.81,876.227C1154.04,868.89 1163.44,866.373 1170.77,870.609C1178.11,874.844 1180.63,884.239 1176.39,891.576Z" style="fill:#c05c9b;stroke:#fff;stroke-width:5.21px;"/>
                    <path id="_13" serif:id="1" d="M1142.95,768.237C1138.71,775.574 1129.32,778.091 1121.98,773.855C1114.64,769.62 1112.13,760.225 1116.36,752.888C1120.6,745.552 1129.99,743.035 1137.33,747.27C1144.67,751.506 1147.18,760.901 1142.95,768.237Z" style="fill:#c05c9b;stroke:#fff;stroke-width:5.21px;"/>
                </g>
                <g id="Root-Marker3" serif:id="Root Marker">
                    <path id="_46" serif:id="4" d="M1142.42,869.713L1123.31,866.273L1129.89,854.879L1142.42,869.713ZM1133.55,864.586L1130.42,860.895L1128.79,863.73L1133.55,864.586Z" style="fill:#c05c9b;"/>
                </g>
                <g id="Treble-Note3" serif:id="Treble Note">
                    <g id="_73" serif:id="7">
                        <path id="_7u1" serif:id="7u" d="M1052.85,925.415C1048.56,932.84 1039.05,935.388 1031.63,931.101C1024.2,926.814 1021.66,917.306 1025.94,909.881C1030.23,902.456 1039.74,899.908 1047.16,904.195C1054.59,908.481 1057.14,917.99 1052.85,925.415Z" style="fill:#fff;stroke:#fff;stroke-width:6.5px;"/>
                        <circle id="_7a1" serif:id="7a" cx="1039.4" cy="917.648" r="12.477" style="fill:#fff;stroke:#c05c9b;stroke-width:3.25px;"/>
                    </g>
                </g>
            </g>
        </g>
    </g>
    <g id="Songs">
        <g id="song-12-claw-wreath" serif:id="song 12 claw wreath">
            <g id="Z1" serif:id="Z">
                <path d="M1565.96,1750.99C1546.56,1751.1 1527.15,1743.62 1512.57,1728.63L1486.82,1702.15C1473.45,1688.4 1466.51,1670.77 1465.95,1652.99L1566.62,1653.17L1565.96,1750.99Z" style="fill:#c05c9b;stroke:#fff;stroke-width:1.67px;"/>
                <path d="M1465.95,1652.99C1465.32,1632.95 1472.78,1612.72 1488.27,1597.66L1514.76,1571.9C1529.38,1557.69 1548.39,1550.74 1567.31,1551.01L1566.62,1653.17L1465.95,1652.99Z" style="fill:#c05c9b;stroke:#fff;stroke-width:1.67px;"/>
                <path d="M1466.91,1653.17L1565.91,1653.35" style="fill:none;stroke:#c05c9b;stroke-width:4.17px;stroke-linecap:butt;"/>
                <path id="q4" d="M1492.97,1652.63C1493.18,1645.15 1494.59,1637.44 1497.09,1629.44C1497.81,1627.66 1498.56,1628.16 1498.43,1629.51C1496.19,1636.7 1495.37,1644.63 1495.81,1652.63L1492.97,1652.63ZM1565.75,1589.55C1548.21,1590.6 1528.52,1600.5 1519.77,1613.68C1519.12,1614.52 1517.92,1614.66 1517.09,1614.02C1516.25,1613.37 1516.11,1612.16 1516.75,1611.33C1529.55,1595.02 1546.09,1587.75 1565.75,1587.85L1565.75,1589.55ZM1503.21,1652.63C1503.3,1643.65 1505.52,1634.55 1509.64,1625.32C1510.31,1623.82 1511.4,1624.28 1511.1,1625.57C1507.59,1633.43 1506.11,1643.08 1506.55,1652.63L1503.21,1652.63ZM1482.73,1652.63C1482.83,1647.8 1483.32,1642.87 1484.2,1637.86C1484.14,1636.2 1486.04,1635.01 1485.62,1637.43C1484.76,1642.32 1484.44,1647.43 1484.63,1652.63L1482.73,1652.63ZM1514.45,1652.63C1514.33,1642.68 1517.5,1632.91 1523.59,1623.4C1524.93,1621.96 1525.99,1622.58 1525.18,1624.1C1520.34,1631.54 1517.59,1642.27 1517.91,1652.63L1514.45,1652.63ZM1565.75,1601.4C1553.53,1602.15 1540.28,1607.25 1532.8,1616.2C1532.05,1616.94 1530.84,1616.94 1530.1,1616.19C1529.36,1615.43 1529.36,1614.22 1530.11,1613.48C1540.36,1603.25 1552.39,1598.63 1565.75,1598.93L1565.75,1601.4ZM1492.51,1618.26C1492.08,1619.23 1490.95,1619.68 1489.98,1619.25C1489.01,1618.83 1488.56,1617.69 1488.99,1616.72C1500.96,1589.37 1522.91,1573.07 1552.13,1568.28C1553.68,1567.67 1555.43,1569.08 1553.01,1569.48C1527.33,1573.69 1500.64,1594.09 1492.51,1618.26ZM1506.69,1613.85C1506.14,1614.75 1504.97,1615.04 1504.06,1614.49C1503.16,1613.94 1502.87,1612.76 1503.42,1611.86C1517.84,1588.75 1537.93,1578.56 1564.34,1577.66C1566.25,1577.75 1566.03,1578.63 1564.72,1578.95C1542.09,1579.72 1517.34,1594.91 1506.69,1613.85Z" style="fill:#e7e7e7;stroke:#000;stroke-width:0.04px;stroke-linejoin:bevel;stroke-miterlimit:2;"/>
                <path id="q3" d="M1565.75,1736.23C1554.21,1735.7 1542.62,1732.55 1531.19,1726.88C1529.58,1726.47 1528.99,1724.31 1531.18,1725.39C1541.38,1730.46 1553.55,1733.11 1565.75,1733.26L1565.75,1736.23ZM1484.63,1652.63C1485.44,1674.65 1495.38,1697.97 1511.67,1710.65C1512.44,1711.37 1512.49,1712.59 1511.76,1713.36C1511.04,1714.14 1509.83,1714.18 1509.05,1713.46C1490.96,1696.63 1482.27,1675.83 1482.73,1652.63L1484.63,1652.63ZM1565.75,1725.85C1552.31,1725.38 1539.49,1720.64 1526.76,1712.13C1525.26,1710.94 1525.95,1710.36 1527.21,1710.86C1537.95,1718.05 1552,1721.82 1565.75,1722.03L1565.75,1725.85ZM1517.91,1652.63C1518.13,1659.6 1519.74,1666.4 1523.04,1671.94C1523.49,1672.89 1523.09,1674.03 1522.13,1674.48C1521.18,1674.94 1520.04,1674.53 1519.58,1673.58C1516.2,1666.53 1514.53,1659.54 1514.45,1652.63L1517.91,1652.63ZM1506.55,1652.63C1507.09,1664.18 1510.43,1675.58 1516.36,1683.41C1516.93,1684.29 1516.67,1685.48 1515.78,1686.05C1514.9,1686.62 1513.71,1686.36 1513.14,1685.48C1506.27,1674.73 1503.1,1663.78 1503.21,1652.63L1506.55,1652.63ZM1495.81,1652.63C1496.68,1668.66 1502.61,1684.92 1512.19,1695.8C1512.86,1696.62 1512.74,1697.82 1511.92,1698.5C1511.11,1699.17 1509.9,1699.05 1509.23,1698.23C1497.59,1683.73 1492.51,1668.72 1492.97,1652.63L1495.81,1652.63ZM1565.75,1715.23C1551.44,1714.91 1538.38,1709.2 1526.35,1698.93C1525.11,1697.86 1525.86,1696.95 1527.01,1697.6C1536.84,1706 1551.87,1711.13 1565.75,1711.57L1565.75,1715.23ZM1565.75,1703.75C1551.2,1703.49 1538.78,1696.9 1528.45,1685C1527.45,1683.32 1528.34,1682.47 1529.58,1683.68C1537.42,1692.85 1552.17,1700.03 1565.75,1700.26L1565.75,1703.75Z" style="fill:#e7e7e7;stroke:#000;stroke-width:0.06px;stroke-linejoin:bevel;stroke-miterlimit:2;"/>
            </g>
            <g id="Z2B">
                <path d="M1567.4,1551C1586.31,1551.26 1605.12,1558.74 1619.34,1573.36L1645.1,1599.84C1659.55,1614.7 1666.49,1634.11 1665.97,1653.34L1566.71,1653.16L1567.4,1551Z" style="fill:#707d74;stroke:#fff;stroke-width:1.67px;"/>
                <path d="M1665.97,1653.34C1665.48,1671.93 1658.01,1690.35 1643.64,1704.33L1617.15,1730.09C1602.9,1743.94 1584.48,1750.89 1566.05,1750.99L1566.71,1653.16L1665.97,1653.34Z" style="fill:#707d74;stroke:#fff;stroke-width:1.67px;"/>
                <path d="M1567.51,1653.34L1665.11,1653.34" style="fill:none;stroke:#707d74;stroke-width:4.17px;stroke-linecap:butt;"/>
                <path id="q1" d="M1565.75,1587.85C1567.92,1587.86 1570.13,1587.96 1572.38,1588.14C1574.01,1588.29 1573.93,1589.46 1572.62,1589.61C1570.39,1589.42 1568.09,1589.4 1565.75,1589.55L1565.75,1587.85ZM1649.5,1652.63C1649.66,1644.42 1648.49,1636.41 1645.8,1629.19C1645.51,1628.17 1646.11,1627.12 1647.13,1626.83C1648.15,1626.55 1649.21,1627.15 1649.5,1628.17C1651.81,1636.53 1652.88,1644.7 1652.76,1652.63L1649.5,1652.63ZM1638.33,1652.63C1638.43,1648.83 1638.18,1645.12 1637.57,1641.57C1637.43,1640.52 1638.16,1639.56 1639.21,1639.41C1640.26,1639.27 1641.22,1640 1641.37,1641.05C1641.87,1645.05 1642.1,1648.9 1642.05,1652.63L1638.33,1652.63ZM1565.75,1598.93C1569.97,1599.03 1574.33,1599.62 1578.8,1600.68C1580.6,1601.47 1580.37,1602.67 1578.66,1602.41C1574.74,1601.45 1570.32,1601.12 1565.75,1601.4L1565.75,1598.93ZM1627.69,1652.63C1627.67,1651.72 1627.61,1650.83 1627.53,1649.94C1627.51,1648.89 1628.35,1648.02 1629.4,1647.99C1630.46,1647.97 1631.33,1648.81 1631.35,1649.87C1631.37,1650.8 1631.37,1651.72 1631.35,1652.63L1627.69,1652.63ZM1570.21,1569.47C1569.15,1569.43 1568.33,1568.54 1568.37,1567.48C1568.4,1566.42 1569.3,1565.59 1570.35,1565.63C1600.19,1566.73 1623.41,1581.17 1638.59,1606.6C1639.72,1607.81 1639.05,1609.95 1637.79,1607.85C1624.45,1585.5 1595.68,1568.17 1570.21,1569.47ZM1579.53,1581.04C1578.48,1580.86 1577.78,1579.87 1577.96,1578.83C1578.14,1577.79 1579.13,1577.09 1580.18,1577.27C1606.96,1582.2 1623.81,1597.16 1634.34,1621.39C1634.95,1623.2 1634.06,1623.32 1633.27,1622.22C1624.26,1601.45 1601.05,1584 1579.53,1581.04ZM1584.47,1593.15C1583.46,1592.85 1582.88,1591.79 1583.18,1590.77C1583.48,1589.76 1584.54,1589.18 1585.55,1589.48C1607.62,1596.05 1621,1611.01 1627.53,1632.72C1628,1634.29 1626.88,1634.64 1626.26,1633.48C1620.78,1615.25 1602.01,1596.89 1584.47,1593.15ZM1586.92,1606.19C1585.95,1605.77 1585.51,1604.64 1585.93,1603.67C1586.36,1602.71 1587.49,1602.27 1588.46,1602.69C1605.93,1610.3 1615.5,1624.34 1618.23,1643.29C1618.16,1645.25 1616.95,1645.48 1616.56,1643.8C1614.56,1629.08 1602.11,1611.24 1586.92,1606.19Z" style="fill:#e7e7e7;stroke:#000;stroke-width:0.07px;stroke-linejoin:bevel;stroke-miterlimit:2;"/>
                <path id="q2" d="M1642.05,1652.63C1641.81,1674.09 1632.64,1691.22 1615.67,1706.01C1614.13,1707.15 1613.75,1706.32 1614.56,1705.25C1628.8,1692.84 1637.86,1671.72 1638.33,1652.63L1642.05,1652.63ZM1565.75,1700.26C1568.88,1700.31 1571.95,1700 1574.86,1699.25C1575.9,1699.09 1576.88,1699.8 1577.05,1700.84C1577.21,1701.88 1576.5,1702.86 1575.46,1703.03C1572.12,1703.57 1568.89,1703.81 1565.75,1703.75L1565.75,1700.26ZM1565.75,1733.26C1581.42,1733.44 1597.13,1729.46 1608.78,1721.1C1609.69,1720.56 1610.87,1720.86 1611.41,1721.77C1611.95,1722.68 1611.65,1723.86 1610.74,1724.4C1596.13,1733.06 1580.98,1736.93 1565.75,1736.23L1565.75,1733.26ZM1652.76,1652.63C1652.45,1671.98 1645,1689.88 1631.06,1705.59C1630.24,1707.03 1628,1707.05 1629.62,1705.21C1641.68,1691.62 1649.14,1671.6 1649.5,1652.63L1652.76,1652.63ZM1565.75,1722.03C1576.08,1722.19 1586.23,1720.33 1594.68,1716.4C1595.66,1715.99 1596.78,1716.44 1597.2,1717.42C1597.61,1718.39 1597.15,1719.51 1596.18,1719.93C1585.58,1724.28 1575.51,1726.19 1565.75,1725.85L1565.75,1722.03ZM1565.75,1711.57C1572.3,1711.77 1578.6,1710.93 1583.97,1708.9C1584.99,1708.6 1586.05,1709.18 1586.35,1710.2C1586.64,1711.21 1586.06,1712.27 1585.05,1712.57C1578.37,1714.51 1571.94,1715.37 1565.75,1715.23L1565.75,1711.57ZM1631.35,1652.63C1630.91,1674.28 1620.78,1690.68 1602.82,1702.94C1601.46,1703.87 1600.78,1702.9 1601.71,1701.96C1616.65,1691.76 1628.08,1670.08 1627.69,1652.63L1631.35,1652.63ZM1615.83,1656.21C1615.94,1655.16 1616.88,1654.4 1617.93,1654.52C1618.99,1654.63 1619.75,1655.57 1619.63,1656.62C1617.66,1675.58 1607.16,1688.94 1589.93,1697.27C1588.04,1697.79 1587.45,1696.71 1588.94,1695.84C1602.36,1689.48 1615.61,1672.23 1615.83,1656.21Z" style="fill:#e7e7e7;stroke:#000;stroke-width:0.05px;stroke-linejoin:bevel;stroke-miterlimit:2;"/>
            </g>
        </g>
        <g id="song-4-petals" serif:id="song 4 petals">
            <g id="Z2" serif:id="Z">
                <path d="M260.046,319.994C240.649,320.099 221.237,312.623 206.66,297.633L180.903,271.147C167.536,257.401 160.598,239.768 160.037,221.988L260.705,222.169L260.046,319.994Z" style="fill:#c05c9b;stroke:#fff;stroke-width:1.67px;"/>
                <path d="M160.037,221.988C159.405,201.95 166.871,181.724 182.362,166.66L208.849,140.903C223.467,126.688 242.481,119.743 261.394,120.007L260.705,222.169L160.037,221.988Z" style="fill:#c05c9b;stroke:#fff;stroke-width:1.67px;"/>
                <path d="M161,222.169L260,222.347" style="fill:none;stroke:#c05c9b;stroke-width:4.17px;stroke-linecap:butt;"/>
                <g id="q41" serif:id="q4">
                    <path d="M216.575,242.848C226.428,240.208 239.986,233.19 238.626,228.113C237.265,223.037 222.015,223.737 212.162,226.377C191.573,231.894 173.174,245.651 173.174,245.651L173.175,245.651L173.174,245.651C173.174,245.651 195.986,248.365 216.575,242.848Z" style="fill:#e7e7e7;fill-rule:nonzero;"/>
                    <path d="M232.653,261.869C239.866,254.656 248.098,241.799 244.382,238.083C240.666,234.367 227.808,242.599 220.596,249.812C205.523,264.884 196.469,285.997 196.469,285.997L196.468,285.996L196.469,285.997C196.469,285.997 217.581,276.941 232.653,261.869Z" style="fill:#e7e7e7;fill-rule:nonzero;"/>
                    <path d="M254.352,243.839L254.351,243.839C249.275,242.479 242.257,256.036 239.617,265.89C234.1,286.479 236.814,309.29 236.814,309.29L236.815,309.29C236.815,309.29 250.571,290.892 256.087,270.303C258.728,260.45 259.428,245.2 254.352,243.839Z" style="fill:#e7e7e7;fill-rule:nonzero;"/>
                </g>
                <g id="q11" serif:id="q1">
                    <path d="M236.814,135.424C236.814,135.424 234.1,158.235 239.617,178.824C242.257,188.678 249.275,202.235 254.352,200.875L254.352,200.875C259.428,199.514 258.728,184.265 256.088,174.411C250.571,153.822 236.815,135.424 236.815,135.424L236.814,135.424Z" style="fill:#e7e7e7;fill-rule:nonzero;"/>
                    <path d="M220.595,194.902C227.809,202.115 240.665,210.347 244.382,206.631L244.382,206.631C248.098,202.915 239.866,190.058 232.653,182.845C217.581,167.772 196.469,158.717 196.469,158.717L196.468,158.717C196.468,158.717 205.523,179.83 220.595,194.902Z" style="fill:#e7e7e7;fill-rule:nonzero;"/>
                    <path d="M212.162,218.336C222.015,220.977 237.265,221.677 238.626,216.601C239.986,211.524 226.429,204.506 216.575,201.866C195.986,196.349 173.175,199.063 173.175,199.063C173.175,199.063 191.573,212.82 212.162,218.336Z" style="fill:#e7e7e7;fill-rule:nonzero;"/>
                </g>
            </g>
            <g id="Z2W">
                <path d="M260.767,120.013C279.68,120.277 298.493,127.75 312.708,142.368L338.465,168.855C352.92,183.718 359.857,203.127 359.342,222.353L260.078,222.175L260.767,120.013Z" style="fill:#e3a77c;stroke:#fff;stroke-width:1.67px;"/>
                <path d="M359.342,222.353C358.844,240.944 351.379,259.364 337.006,273.341L310.52,299.098C296.274,312.952 277.853,319.9 259.419,320L260.078,222.175L359.342,222.353Z" style="fill:#e3a77c;stroke:#fff;stroke-width:1.67px;"/>
                <path d="M260.873,222.353L358.473,222.353" style="fill:none;stroke:#e3a77c;stroke-width:4.17px;stroke-linecap:butt;"/>
                <g id="q31" serif:id="q3">
                    <path d="M265.865,243.839L265.864,243.84C260.788,245.2 261.488,260.45 264.128,270.303C269.645,290.892 283.401,309.291 283.401,309.291L283.401,309.29L283.402,309.29C283.402,309.29 286.116,286.479 280.599,265.89C277.959,256.037 270.94,242.479 265.865,243.839Z" style="fill:#e7e7e7;fill-rule:nonzero;"/>
                    <path d="M299.62,249.812C292.407,242.599 279.55,234.367 275.834,238.083L275.834,238.083C272.118,241.799 280.35,254.656 287.563,261.869C302.635,276.942 323.747,285.997 323.747,285.997L323.748,285.996C323.748,285.996 314.693,264.884 299.62,249.812Z" style="fill:#e7e7e7;fill-rule:nonzero;"/>
                    <path d="M308.054,226.377C298.2,223.737 282.951,223.037 281.59,228.113C280.23,233.19 293.787,240.208 303.641,242.848C324.23,248.365 347.041,245.651 347.041,245.651L347.041,245.65L347.041,245.651C347.041,245.651 328.643,231.895 308.054,226.377Z" style="fill:#e7e7e7;fill-rule:nonzero;"/>
                </g>
                <g id="q21" serif:id="q2">
                    <path d="M347.041,199.064C347.041,199.064 324.23,196.349 303.641,201.866C293.788,204.506 280.23,211.524 281.59,216.601C282.951,221.678 298.201,220.977 308.054,218.337C328.643,212.82 347.041,199.064 347.041,199.064Z" style="fill:#e7e7e7;fill-rule:nonzero;"/>
                    <path d="M287.563,182.845C280.35,190.058 272.118,202.914 275.834,206.631C279.551,210.347 292.407,202.115 299.62,194.902C314.693,179.83 323.748,158.718 323.748,158.718C323.748,158.718 302.635,167.772 287.563,182.845Z" style="fill:#e7e7e7;fill-rule:nonzero;"/>
                    <path d="M265.864,200.875L265.864,200.875C270.941,202.235 277.959,188.678 280.599,178.824C286.116,158.235 283.402,135.424 283.402,135.424L283.401,135.424C283.401,135.424 269.645,153.822 264.128,174.411C261.488,184.265 260.787,199.514 265.864,200.875Z" style="fill:#e7e7e7;fill-rule:nonzero;"/>
                </g>
            </g>
        </g>
        <g id="song-3-arrows" serif:id="song 3 arrows">
            <g id="Z3" serif:id="Z">
                <path d="M259.703,2360.18C240.306,2360.28 220.895,2352.8 206.317,2337.81L180.56,2311.33C167.193,2297.58 160.255,2279.95 159.694,2262.17L260.362,2262.35L259.703,2360.18Z" style="fill:#c05c9b;stroke:#fff;stroke-width:1.67px;"/>
                <path d="M359.626,2262.53C359.128,2281.12 351.663,2299.54 337.29,2313.52L310.804,2339.27C296.558,2353.13 278.137,2360.08 259.703,2360.18L260.362,2262.35L359.626,2262.53Z" style="fill:#c05c9b;stroke:#fff;stroke-width:1.67px;"/>
                <path d="M259.703,2263.18L259.703,2359.18" style="fill:none;stroke:#c05c9b;stroke-width:4.17px;stroke-linecap:butt;"/>
                <g id="q32" serif:id="q3">
                    <path d="M216.095,2266.18L183.166,2275L180.466,2279.68L213.395,2270.85L216.095,2266.18Z" style="fill:#e7e7e7;fill-rule:nonzero;"/>
                    <path d="M215.369,2278.22L182.44,2287.04L187.116,2289.74L220.045,2280.92L215.369,2278.22Z" style="fill:#e7e7e7;fill-rule:nonzero;"/>
                    <path d="M199.768,2317.06L223.874,2292.95L223.875,2287.55L199.769,2311.66L199.768,2317.06Z" style="fill:#e7e7e7;fill-rule:nonzero;"/>
                    <path d="M229.267,2298.35L205.161,2322.45L210.558,2322.45L234.664,2298.35L229.267,2298.35Z" style="fill:#e7e7e7;fill-rule:nonzero;"/>
                    <path d="M241.3,2302.18L232.477,2335.11L235.178,2339.78L244.001,2306.85L241.3,2302.18Z" style="fill:#e7e7e7;fill-rule:nonzero;"/>
                    <path d="M242.543,2341.76L247.216,2339.06L256.044,2306.13L251.366,2308.83L242.543,2341.76Z" style="fill:#e7e7e7;fill-rule:nonzero;"/>
                    <path d="M211.736,2276.12L248.44,2266.29C248.348,2266.02 248.263,2265.75 248.189,2265.48C248.115,2265.2 248.054,2264.93 248.001,2264.65L211.297,2274.49L212.048,2273.18L179.119,2282.01L177.769,2284.35L180.107,2285.7L213.036,2276.87L211.736,2276.12Z" style="fill:#e7e7e7;fill-rule:nonzero;"/>
                    <path d="M225.072,2298.35L251.939,2271.48C251.516,2271.11 251.115,2270.71 250.741,2270.28L223.873,2297.15L223.875,2295.64L199.77,2319.75L199.769,2322.45L202.469,2322.45L226.575,2298.35L225.072,2298.35Z" style="fill:#e7e7e7;fill-rule:nonzero;"/>
                    <path d="M247.733,2310.92L257.568,2274.22C257.011,2274.11 256.465,2273.97 255.93,2273.78L246.099,2310.48L245.346,2309.18L236.523,2342.11L237.873,2344.45L240.212,2343.1L249.035,2310.17L247.733,2310.92Z" style="fill:#e7e7e7;fill-rule:nonzero;"/>
                </g>
                <g id="q22" serif:id="q2">
                    <path d="M272.525,2339.06L277.202,2341.76L268.378,2308.83L263.702,2306.13L272.525,2339.06Z" style="fill:#e7e7e7;fill-rule:nonzero;"/>
                    <path d="M284.569,2339.78L287.269,2335.11L278.446,2302.18L275.746,2306.85L284.569,2339.78Z" style="fill:#e7e7e7;fill-rule:nonzero;"/>
                    <path d="M285.078,2298.35L309.184,2322.45L314.584,2322.45L290.479,2298.35L285.078,2298.35Z" style="fill:#e7e7e7;fill-rule:nonzero;"/>
                    <path d="M295.87,2292.95L319.976,2317.06L319.977,2311.66L295.872,2287.55L295.87,2292.95Z" style="fill:#e7e7e7;fill-rule:nonzero;"/>
                    <path d="M299.699,2280.92L332.629,2289.74L337.306,2287.04L304.377,2278.22L299.699,2280.92Z" style="fill:#e7e7e7;fill-rule:nonzero;"/>
                    <path d="M336.58,2275L303.65,2266.18L306.351,2270.85L339.281,2279.68L336.58,2275Z" style="fill:#e7e7e7;fill-rule:nonzero;"/>
                    <path d="M307.696,2273.19L308.449,2274.49L271.747,2264.65C271.637,2265.21 271.49,2265.76 271.309,2266.29L308.01,2276.12L306.708,2276.87L339.637,2285.7L341.976,2284.35L340.625,2282.01L307.696,2273.19Z" style="fill:#e7e7e7;fill-rule:nonzero;"/>
                    <path d="M263.813,2273.78C263.548,2273.87 263.277,2273.95 263.003,2274.03C262.728,2274.1 262.452,2274.16 262.176,2274.22L272.011,2310.92L270.711,2310.17L279.534,2343.1L281.872,2344.45L283.222,2342.11L274.399,2309.18L273.648,2310.48L263.813,2273.78Z" style="fill:#e7e7e7;fill-rule:nonzero;"/>
                    <path d="M295.87,2297.15L269.004,2270.28C268.633,2270.7 268.234,2271.11 267.805,2271.48L294.674,2298.35L293.171,2298.35L317.276,2322.45L319.977,2322.45L319.977,2319.75L295.872,2295.65L295.87,2297.15Z" style="fill:#e7e7e7;fill-rule:nonzero;"/>
                </g>
            </g>
            <g id="Z2Y">
                <path d="M261.099,2160.01C280.012,2160.27 298.825,2167.74 313.04,2182.36L338.797,2208.85C353.252,2223.71 360.188,2243.12 359.674,2262.35L260.41,2262.17L261.099,2160.01Z" style="fill:#979f80;stroke:#fff;stroke-width:1.67px;"/>
                <path d="M159.742,2261.99C159.11,2241.95 166.577,2221.72 182.067,2206.66L208.554,2180.9C223.172,2166.69 242.186,2159.74 261.099,2160.01L260.41,2262.17L159.742,2261.99Z" style="fill:#979f80;stroke:#fff;stroke-width:1.67px;"/>
                <path d="M260.41,2161L260.109,2261.35" style="fill:none;stroke:#979f80;stroke-width:4.17px;stroke-linecap:butt;"/>
                <g id="q42" serif:id="q4">
                    <path d="M247.22,2185.64L242.544,2182.94L251.367,2215.87L256.043,2218.57L247.22,2185.64Z" style="fill:#e7e7e7;fill-rule:nonzero;"/>
                    <path d="M235.176,2184.91L232.476,2189.59L241.299,2222.52L243.999,2217.84L235.176,2184.91Z" style="fill:#e7e7e7;fill-rule:nonzero;"/>
                    <path d="M234.667,2226.35L210.558,2202.24L205.161,2202.24L229.266,2226.35L234.667,2226.35Z" style="fill:#e7e7e7;fill-rule:nonzero;"/>
                    <path d="M223.875,2231.74L199.769,2207.64L199.768,2213.03L223.874,2237.14L223.875,2231.74Z" style="fill:#e7e7e7;fill-rule:nonzero;"/>
                    <path d="M220.042,2243.78L187.113,2234.95L182.439,2237.65L215.369,2246.47L220.042,2243.78Z" style="fill:#e7e7e7;fill-rule:nonzero;"/>
                    <path d="M183.165,2249.69L216.095,2258.52L213.394,2253.84L180.464,2245.02L183.165,2249.69Z" style="fill:#e7e7e7;fill-rule:nonzero;"/>
                    <path d="M212.049,2251.51L211.296,2250.21L247.998,2260.04C248.108,2259.49 248.255,2258.94 248.437,2258.41L211.735,2248.57L213.037,2247.82L180.108,2239L177.769,2240.35L179.12,2242.68L212.049,2251.51Z" style="fill:#e7e7e7;fill-rule:nonzero;"/>
                    <path d="M223.876,2227.55L250.741,2254.42C251.112,2253.99 251.512,2253.59 251.94,2253.22L225.071,2226.35L226.574,2226.35L202.469,2202.24L199.768,2202.24L199.768,2204.94L223.873,2229.05L223.876,2227.55Z" style="fill:#e7e7e7;fill-rule:nonzero;"/>
                    <path d="M236.523,2182.58L245.346,2215.51L246.097,2214.21L255.932,2250.91C256.197,2250.82 256.468,2250.74 256.742,2250.66C257.017,2250.59 257.294,2250.53 257.569,2250.47L247.734,2213.77L249.034,2214.52L240.211,2181.59L237.873,2180.24L236.523,2182.58Z" style="fill:#e7e7e7;fill-rule:nonzero;"/>
                </g>
                <g id="q12" serif:id="q1">
                    <path d="M303.651,2258.52L336.579,2249.69L339.279,2245.02L306.35,2253.84L303.651,2258.52Z" style="fill:#e7e7e7;fill-rule:nonzero;"/>
                    <path d="M304.377,2246.47L337.306,2237.65L332.629,2234.95L299.701,2243.78L304.377,2246.47Z" style="fill:#e7e7e7;fill-rule:nonzero;"/>
                    <path d="M295.871,2231.74L295.87,2237.14L319.976,2213.03L319.977,2207.63L295.871,2231.74Z" style="fill:#e7e7e7;fill-rule:nonzero;"/>
                    <path d="M290.478,2226.35L314.584,2202.24L309.183,2202.24L285.077,2226.35L290.478,2226.35Z" style="fill:#e7e7e7;fill-rule:nonzero;"/>
                    <path d="M278.445,2222.52L287.268,2189.59L284.567,2184.91L275.744,2217.84L278.445,2222.52Z" style="fill:#e7e7e7;fill-rule:nonzero;"/>
                    <path d="M277.202,2182.94L272.525,2185.64L263.702,2218.57L268.379,2215.87L277.202,2182.94Z" style="fill:#e7e7e7;fill-rule:nonzero;"/>
                    <path d="M294.673,2226.35L267.806,2253.22C268.229,2253.59 268.63,2253.99 269.004,2254.41L295.872,2227.55L295.87,2229.05L319.976,2204.94L319.976,2202.24L317.276,2202.24L293.17,2226.35L294.673,2226.35Z" style="fill:#e7e7e7;fill-rule:nonzero;"/>
                    <path d="M272.012,2213.77L262.177,2250.47C262.734,2250.58 263.28,2250.73 263.815,2250.91L273.647,2214.21L274.399,2215.51L283.223,2182.58L281.872,2180.24L279.533,2181.59L270.71,2214.52L272.012,2213.77Z" style="fill:#e7e7e7;fill-rule:nonzero;"/>
                    <path d="M339.638,2239L306.709,2247.82L308.009,2248.57L271.305,2258.41C271.398,2258.67 271.479,2258.94 271.552,2259.22C271.626,2259.49 271.691,2259.77 271.744,2260.04L308.448,2250.21L307.698,2251.51L340.627,2242.69L341.976,2240.35L339.638,2239Z" style="fill:#e7e7e7;fill-rule:nonzero;"/>
                </g>
            </g>
        </g>
    </g>
    <g id="Map">
        <g id="Frame">
            <rect x="1471.5" y="41.542" width="190" height="190" style="fill:#fff;"/>
            <rect x="1471.5" y="41.542" width="190" height="190" style="fill:none;stroke:#000;stroke-width:1.17px;stroke-linejoin:bevel;"/>
            <rect x="1523.38" y="93.417" width="86.25" height="86.25" style="fill:none;stroke:#000;stroke-width:1.25px;stroke-linejoin:bevel;"/>
            <path d="M1609.62,93.417L1661.5,41.75" style="fill:none;stroke:#000;stroke-width:1.25px;stroke-linejoin:bevel;"/>
            <path d="M1523.38,93.417L1471.92,41.75" style="fill:none;stroke:#000;stroke-width:1.25px;stroke-linejoin:bevel;"/>
            <path d="M1523.38,179.667L1471.5,231.542" style="fill:none;stroke:#000;stroke-width:1.25px;stroke-linejoin:bevel;"/>
            <path d="M1609.62,179.667L1661.5,231.542" style="fill:none;stroke:#000;stroke-width:1.25px;stroke-linejoin:bevel;"/>
        </g>
        <g id="Dots">
            <circle cx="1471.5" cy="231.5" r="1.5" style="stroke:#000;stroke-width:1.25px;stroke-linejoin:bevel;"/>
            <circle cx="1566.2" cy="231.625" r="1.5" style="stroke:#000;stroke-width:1.25px;stroke-linejoin:bevel;"/>
            <circle cx="1661.5" cy="231.5" r="1.5" style="stroke:#000;stroke-width:1.25px;stroke-linejoin:bevel;"/>
            <circle cx="1633.85" cy="203.667" r="1.5" style="stroke:#000;stroke-width:1.25px;stroke-linejoin:bevel;"/>
            <circle cx="1609.62" cy="179.5" r="1.5" style="stroke:#000;stroke-width:1.25px;stroke-linejoin:bevel;"/>
            <circle cx="1609.2" cy="136.625" r="1.5" style="stroke:#000;stroke-width:1.25px;stroke-linejoin:bevel;"/>
            <circle cx="1609.32" cy="93.375" r="1.5" style="stroke:#000;stroke-width:1.25px;stroke-linejoin:bevel;"/>
            <circle cx="1633.76" cy="69.167" r="1.5" style="stroke:#000;stroke-width:1.25px;stroke-linejoin:bevel;"/>
            <circle cx="1566.2" cy="93.375" r="1.5" style="stroke:#000;stroke-width:1.25px;stroke-linejoin:bevel;"/>
            <circle cx="1523.07" cy="93.5" r="1.5" style="stroke:#000;stroke-width:1.25px;stroke-linejoin:bevel;"/>
            <circle cx="1566.5" cy="41.5" r="1.5" style="stroke:#000;stroke-width:1.25px;stroke-linejoin:bevel;"/>
            <circle cx="1471.5" cy="41.542" r="1.5" style="stroke:#000;stroke-width:1.25px;stroke-linejoin:bevel;"/>
            <circle cx="1499.35" cy="69.5" r="1.5" style="stroke:#000;stroke-width:1.25px;stroke-linejoin:bevel;"/>
            <circle cx="1471.5" cy="136.542" r="1.5" style="stroke:#000;stroke-width:1.25px;stroke-linejoin:bevel;"/>
            <circle cx="1523.38" cy="136.542" r="1.5" style="stroke:#000;stroke-width:1.25px;stroke-linejoin:bevel;"/>
            <circle cx="1566" cy="179.667" r="1.5" style="stroke:#000;stroke-width:1.25px;stroke-linejoin:bevel;"/>
            <circle cx="1523.35" cy="179.5" r="1.5" style="stroke:#000;stroke-width:1.25px;stroke-linejoin:bevel;"/>
            <circle cx="1499.15" cy="204" r="1.5" style="stroke:#000;stroke-width:1.25px;stroke-linejoin:bevel;"/>
            <circle cx="1661.5" cy="136.542" r="1.5" style="stroke:#000;stroke-width:1.25px;stroke-linejoin:bevel;"/>
            <circle cx="1661.49" cy="41.65" r="1.5" style="stroke:#000;stroke-width:1.25px;stroke-linejoin:bevel;"/>
        </g>
        <g>
            <path d="M1661.5,41.125L1661.5,135.5" style="fill:none;stroke:#c05c9b;stroke-width:5.99px;"/>
        </g>
        <path d="M1566.5,41.542L1662.3,41.542L1634.25,69.75" style="fill:none;stroke:#c05c9b;stroke-width:5.83px;stroke-linecap:butt;"/>
        <circle cx="1661.5" cy="41.542" r="6.364" style="fill:#fff;stroke:#c05c9b;stroke-width:5.99px;"/>
        <g id="_121" serif:id="12">
            <circle cx="1634.25" cy="69.75" r="15.75" style="fill:#fff;stroke:#fff;stroke-width:1.46px;"/>
            <path id="q43" serif:id="q4" d="M1620.81,70.237C1620.85,68.918 1621.1,67.558 1621.54,66.146C1621.66,65.832 1621.8,65.921 1621.77,66.158C1621.38,67.427 1621.23,68.827 1621.31,70.237L1620.81,70.237ZM1633.65,59.109C1630.55,59.295 1627.08,61.041 1625.54,63.367C1625.42,63.514 1625.21,63.54 1625.06,63.425C1624.92,63.311 1624.89,63.099 1625.01,62.952C1627.26,60.073 1630.18,58.792 1633.65,58.809L1633.65,59.109ZM1622.62,70.237C1622.63,68.653 1623.02,67.047 1623.75,65.419C1623.87,65.155 1624.06,65.237 1624.01,65.464C1623.39,66.85 1623.13,68.554 1623.21,70.237L1622.62,70.237ZM1619,70.237C1619.02,69.386 1619.11,68.516 1619.26,67.631C1619.25,67.339 1619.59,67.129 1619.51,67.556C1619.36,68.418 1619.31,69.321 1619.34,70.237L1619,70.237ZM1624.6,70.237C1624.58,68.483 1625.14,66.758 1626.21,65.08C1626.45,64.827 1626.63,64.935 1626.49,65.205C1625.64,66.517 1625.15,68.409 1625.21,70.237L1624.6,70.237ZM1633.65,61.201C1631.49,61.333 1629.15,62.232 1627.84,63.81C1627.7,63.942 1627.49,63.941 1627.36,63.808C1627.23,63.676 1627.23,63.462 1627.36,63.331C1629.17,61.527 1631.29,60.711 1633.65,60.765L1633.65,61.201ZM1620.73,64.174C1620.65,64.346 1620.45,64.424 1620.28,64.349C1620.11,64.274 1620.03,64.074 1620.11,63.903C1622.22,59.078 1626.09,56.202 1631.25,55.357C1631.52,55.25 1631.83,55.498 1631.4,55.568C1626.87,56.311 1622.16,59.911 1620.73,64.174ZM1623.23,63.395C1623.13,63.555 1622.93,63.605 1622.77,63.509C1622.61,63.412 1622.56,63.204 1622.65,63.044C1625.2,58.967 1628.74,57.171 1633.4,57.012C1633.74,57.028 1633.7,57.183 1633.47,57.24C1629.48,57.376 1625.11,60.054 1623.23,63.395Z" style="fill:#733c52;stroke:#000;stroke-width:0.01px;stroke-linejoin:bevel;stroke-miterlimit:2;"/>
            <path id="q33" serif:id="q3" d="M1633.65,84.986C1631.61,84.893 1629.57,84.337 1627.55,83.336C1627.27,83.263 1627.16,82.882 1627.55,83.074C1629.35,83.967 1631.5,84.436 1633.65,84.461L1633.65,84.986ZM1619.34,70.237C1619.48,74.122 1621.24,78.237 1624.11,80.473C1624.25,80.6 1624.25,80.815 1624.12,80.952C1624,81.089 1623.78,81.097 1623.65,80.969C1620.45,77.999 1618.92,74.331 1619,70.237L1619.34,70.237ZM1633.65,83.155C1631.28,83.072 1629.02,82.236 1626.77,80.735C1626.51,80.525 1626.63,80.422 1626.85,80.511C1628.75,81.778 1631.22,82.444 1633.65,82.481L1633.65,83.155ZM1625.21,70.237C1625.25,71.467 1625.53,72.668 1626.11,73.643C1626.19,73.812 1626.12,74.013 1625.95,74.093C1625.79,74.173 1625.59,74.102 1625.51,73.933C1624.91,72.69 1624.61,71.456 1624.6,70.237L1625.21,70.237ZM1623.21,70.237C1623.3,72.276 1623.89,74.285 1624.93,75.667C1625.04,75.824 1624.99,76.032 1624.83,76.133C1624.68,76.234 1624.47,76.189 1624.37,76.032C1623.16,74.136 1622.6,72.204 1622.62,70.237L1623.21,70.237ZM1621.31,70.237C1621.46,73.065 1622.51,75.933 1624.2,77.853C1624.32,77.998 1624.3,78.21 1624.15,78.329C1624.01,78.447 1623.8,78.426 1623.68,78.282C1621.62,75.724 1620.73,73.076 1620.81,70.237L1621.31,70.237ZM1633.65,81.282C1631.12,81.224 1628.82,80.218 1626.7,78.405C1626.48,78.217 1626.61,78.057 1626.81,78.171C1628.55,79.652 1631.2,80.558 1633.65,80.635L1633.65,81.282ZM1633.65,79.256C1631.08,79.21 1628.89,78.047 1627.07,75.949C1626.89,75.651 1627.05,75.502 1627.27,75.715C1628.65,77.333 1631.25,78.599 1633.65,78.64L1633.65,79.256Z" style="fill:#733c52;stroke:#000;stroke-width:0.01px;stroke-linejoin:bevel;stroke-miterlimit:2;"/>
            <path id="q13" serif:id="q1" d="M1633.65,58.809C1634.03,58.811 1634.42,58.828 1634.82,58.862C1635.11,58.886 1635.09,59.094 1634.86,59.119C1634.47,59.087 1634.06,59.084 1633.65,59.109L1633.65,58.809ZM1648.42,70.237C1648.45,68.789 1648.25,67.376 1647.77,66.103C1647.72,65.923 1647.83,65.736 1648.01,65.686C1648.19,65.637 1648.37,65.742 1648.42,65.922C1648.83,67.397 1649.02,68.839 1649,70.237L1648.42,70.237ZM1646.45,70.237C1646.47,69.568 1646.43,68.913 1646.32,68.287C1646.29,68.102 1646.42,67.931 1646.61,67.906C1646.79,67.881 1646.96,68.01 1646.99,68.195C1647.08,68.9 1647.12,69.58 1647.11,70.237L1646.45,70.237ZM1633.65,60.765C1634.39,60.782 1635.16,60.885 1635.95,61.072C1636.27,61.211 1636.23,61.424 1635.93,61.379C1635.24,61.209 1634.45,61.151 1633.65,61.201L1633.65,60.765ZM1644.58,70.237C1644.57,70.077 1644.56,69.919 1644.55,69.764C1644.54,69.577 1644.69,69.423 1644.88,69.42C1645.06,69.416 1645.22,69.564 1645.22,69.75C1645.23,69.914 1645.23,70.076 1645.22,70.237L1644.58,70.237ZM1634.44,55.566C1634.25,55.559 1634.1,55.402 1634.11,55.215C1634.12,55.028 1634.27,54.882 1634.46,54.889C1639.72,55.083 1643.82,57.631 1646.5,62.116C1646.7,62.331 1646.58,62.708 1646.36,62.337C1644.01,58.395 1638.93,55.337 1634.44,55.566ZM1636.08,57.609C1635.9,57.577 1635.77,57.402 1635.8,57.218C1635.84,57.035 1636.01,56.911 1636.19,56.943C1640.92,57.813 1643.89,60.451 1645.75,64.727C1645.86,65.047 1645.7,65.067 1645.56,64.872C1643.97,61.209 1639.88,58.13 1636.08,57.609ZM1636.95,59.744C1636.77,59.691 1636.67,59.504 1636.72,59.325C1636.78,59.146 1636.96,59.044 1637.14,59.097C1641.04,60.256 1643.4,62.895 1644.55,66.724C1644.63,67.002 1644.43,67.065 1644.32,66.859C1643.36,63.643 1640.05,60.404 1636.95,59.744ZM1637.38,62.046C1637.21,61.971 1637.13,61.772 1637.21,61.601C1637.29,61.43 1637.48,61.353 1637.65,61.428C1640.74,62.771 1642.43,65.247 1642.91,68.59C1642.89,68.936 1642.68,68.976 1642.61,68.679C1642.26,66.084 1640.06,62.935 1637.38,62.046Z" style="fill:#733c52;stroke:#000;stroke-width:0.01px;stroke-linejoin:bevel;stroke-miterlimit:2;"/>
            <path id="q23" serif:id="q2" d="M1647.11,70.237C1647.07,74.024 1645.45,77.046 1642.45,79.654C1642.18,79.855 1642.12,79.71 1642.26,79.52C1644.77,77.331 1646.37,73.605 1646.45,70.237L1647.11,70.237ZM1633.65,78.64C1634.2,78.65 1634.74,78.594 1635.26,78.462C1635.44,78.433 1635.61,78.559 1635.64,78.743C1635.67,78.927 1635.55,79.1 1635.36,79.129C1634.77,79.224 1634.2,79.266 1633.65,79.256L1633.65,78.64ZM1633.65,84.461C1636.41,84.493 1639.19,83.792 1641.24,82.316C1641.4,82.221 1641.61,82.274 1641.7,82.435C1641.8,82.596 1641.75,82.804 1641.59,82.899C1639.01,84.427 1636.34,85.109 1633.65,84.986L1633.65,84.461ZM1649,70.237C1648.94,73.65 1647.63,76.809 1645.17,79.581C1645.03,79.835 1644.63,79.838 1644.92,79.514C1647.04,77.116 1648.36,73.584 1648.42,70.237L1649,70.237ZM1633.65,82.481C1635.47,82.508 1637.26,82.181 1638.75,81.488C1638.92,81.415 1639.12,81.495 1639.2,81.667C1639.27,81.839 1639.19,82.037 1639.02,82.11C1637.15,82.878 1635.37,83.215 1633.65,83.155L1633.65,82.481ZM1633.65,80.635C1634.81,80.672 1635.91,80.524 1636.86,80.165C1637.04,80.112 1637.23,80.215 1637.28,80.393C1637.34,80.572 1637.23,80.76 1637.05,80.812C1635.88,81.154 1634.74,81.307 1633.65,81.282L1633.65,80.635ZM1645.22,70.237C1645.14,74.056 1643.36,76.95 1640.19,79.114C1639.95,79.277 1639.83,79.106 1639.99,78.941C1642.63,77.14 1644.65,73.316 1644.58,70.237L1645.22,70.237ZM1642.48,70.87C1642.5,70.685 1642.67,70.551 1642.86,70.571C1643.04,70.591 1643.17,70.757 1643.15,70.942C1642.81,74.286 1640.95,76.644 1637.91,78.113C1637.58,78.205 1637.48,78.014 1637.74,77.86C1640.11,76.738 1642.45,73.694 1642.48,70.87Z" style="fill:#733c52;stroke:#000;stroke-width:0.01px;stroke-linejoin:bevel;stroke-miterlimit:2;"/>
        </g>
        <g id="_47" serif:id="4">
            <circle cx="1661.5" cy="136" r="15.75" style="fill:#fff;stroke:#fff;stroke-width:1.46px;"/>
            <g id="_48" serif:id="4">
                <g id="q44" serif:id="q4">
                    <path d="M1655.38,139.66C1656.88,139.258 1658.94,138.19 1658.73,137.418C1658.52,136.645 1656.2,136.752 1654.7,137.154C1651.57,137.993 1648.77,140.086 1648.77,140.086L1648.77,140.086L1648.77,140.086C1648.77,140.086 1652.24,140.499 1655.38,139.66Z" style="fill:#733c52;fill-rule:nonzero;"/>
                    <path d="M1657.82,142.554C1658.92,141.457 1660.17,139.5 1659.61,138.935C1659.04,138.369 1657.09,139.622 1655.99,140.719C1653.69,143.013 1652.32,146.225 1652.32,146.225L1652.32,146.225L1652.32,146.225C1652.32,146.225 1655.53,144.847 1657.82,142.554Z" style="fill:#733c52;fill-rule:nonzero;"/>
                    <path d="M1661.12,139.811L1661.12,139.811C1660.35,139.604 1659.28,141.667 1658.88,143.166C1658.04,146.299 1658.46,149.77 1658.46,149.77L1658.46,149.77C1658.46,149.77 1660.55,146.97 1661.39,143.837C1661.79,142.338 1661.9,140.018 1661.12,139.811Z" style="fill:#733c52;fill-rule:nonzero;"/>
                </g>
                <g id="q14" serif:id="q1">
                    <path d="M1658.46,123.314C1658.46,123.314 1658.04,126.785 1658.88,129.918C1659.28,131.417 1660.35,133.48 1661.12,133.273L1661.12,133.273C1661.9,133.066 1661.79,130.746 1661.39,129.246C1660.55,126.113 1658.46,123.314 1658.46,123.314L1658.46,123.314Z" style="fill:#733c52;fill-rule:nonzero;"/>
                    <path d="M1655.99,132.364C1657.09,133.462 1659.04,134.714 1659.61,134.149L1659.61,134.149C1660.17,133.583 1658.92,131.627 1657.82,130.53C1655.53,128.236 1652.32,126.858 1652.32,126.858L1652.32,126.858C1652.32,126.858 1653.69,130.071 1655.99,132.364Z" style="fill:#733c52;fill-rule:nonzero;"/>
                    <path d="M1654.7,135.93C1656.2,136.332 1658.52,136.438 1658.73,135.666C1658.94,134.894 1656.88,133.826 1655.38,133.424C1652.24,132.584 1648.77,132.998 1648.77,132.998C1648.77,132.998 1651.57,135.091 1654.7,135.93Z" style="fill:#733c52;fill-rule:nonzero;"/>
                </g>
                <g id="q34" serif:id="q3">
                    <path d="M1662.88,139.811L1662.88,139.811C1662.1,140.018 1662.21,142.338 1662.61,143.837C1663.45,146.97 1665.54,149.77 1665.54,149.77L1665.54,149.77L1665.54,149.77C1665.54,149.77 1665.96,146.299 1665.12,143.166C1664.72,141.667 1663.65,139.604 1662.88,139.811Z" style="fill:#733c52;fill-rule:nonzero;"/>
                    <path d="M1668.01,140.719C1666.91,139.622 1664.96,138.369 1664.39,138.935L1664.39,138.935C1663.83,139.5 1665.08,141.457 1666.18,142.554C1668.47,144.847 1671.68,146.225 1671.68,146.225L1671.68,146.225C1671.68,146.225 1670.31,143.013 1668.01,140.719Z" style="fill:#733c52;fill-rule:nonzero;"/>
                    <path d="M1669.3,137.154C1667.8,136.752 1665.48,136.645 1665.27,137.418C1665.06,138.19 1667.12,139.258 1668.62,139.66C1671.76,140.499 1675.23,140.086 1675.23,140.086L1675.23,140.086L1675.23,140.086C1675.23,140.086 1672.43,137.993 1669.3,137.154Z" style="fill:#733c52;fill-rule:nonzero;"/>
                </g>
                <g id="q24" serif:id="q2">
                    <path d="M1675.23,132.998C1675.23,132.998 1671.76,132.584 1668.62,133.424C1667.12,133.826 1665.06,134.894 1665.27,135.666C1665.48,136.438 1667.8,136.332 1669.3,135.93C1672.43,135.091 1675.23,132.998 1675.23,132.998Z" style="fill:#733c52;fill-rule:nonzero;"/>
                    <path d="M1666.18,130.53C1665.08,131.627 1663.83,133.583 1664.39,134.149C1664.96,134.714 1666.91,133.462 1668.01,132.364C1670.31,130.071 1671.68,126.858 1671.68,126.858C1671.68,126.858 1668.47,128.236 1666.18,130.53Z" style="fill:#733c52;fill-rule:nonzero;"/>
                    <path d="M1662.88,133.273L1662.88,133.273C1663.65,133.48 1664.72,131.417 1665.12,129.918C1665.96,126.785 1665.54,123.314 1665.54,123.314L1665.54,123.314C1665.54,123.314 1663.45,126.113 1662.61,129.246C1662.21,130.746 1662.1,133.066 1662.88,133.273Z" style="fill:#733c52;fill-rule:nonzero;"/>
                </g>
            </g>
        </g>
        <g id="_3" serif:id="3">
            <circle cx="1566.5" cy="41.171" r="15.75" style="fill:#fff;stroke:#fff;stroke-width:1.46px;"/>
            <g id="q35" serif:id="q3">
                <path d="M1559.45,42.159L1554.14,43.581L1553.71,44.334L1559.01,42.912L1559.45,42.159Z" style="fill:#733c52;fill-rule:nonzero;"/>
                <path d="M1559.33,44.099L1554.03,45.521L1554.78,45.956L1560.08,44.534L1559.33,44.099Z" style="fill:#733c52;fill-rule:nonzero;"/>
                <path d="M1556.82,50.357L1560.7,46.473L1560.7,45.603L1556.82,49.487L1556.82,50.357Z" style="fill:#733c52;fill-rule:nonzero;"/>
                <path d="M1561.57,47.342L1557.68,51.225L1558.56,51.225L1562.44,47.342L1561.57,47.342Z" style="fill:#733c52;fill-rule:nonzero;"/>
                <path d="M1563.51,47.959L1562.09,53.264L1562.52,54.017L1563.94,48.712L1563.51,47.959Z" style="fill:#733c52;fill-rule:nonzero;"/>
                <path d="M1563.71,54.335L1564.46,53.901L1565.88,48.595L1565.13,49.03L1563.71,54.335Z" style="fill:#733c52;fill-rule:nonzero;"/>
                <path d="M1558.75,43.761L1564.66,42.177C1564.64,42.134 1564.63,42.091 1564.62,42.046C1564.61,42.002 1564.6,41.957 1564.59,41.913L1558.67,43.497L1558.8,43.288L1553.49,44.71L1553.27,45.086L1553.65,45.304L1558.95,43.882L1558.75,43.761Z" style="fill:#733c52;fill-rule:nonzero;"/>
                <path d="M1560.89,47.342L1565.22,43.013C1565.15,42.953 1565.09,42.889 1565.03,42.82L1560.7,47.149L1560.7,46.907L1556.82,50.79L1556.82,51.225L1557.25,51.225L1561.13,47.342L1560.89,47.342Z" style="fill:#733c52;fill-rule:nonzero;"/>
                <path d="M1564.54,49.368L1566.13,43.455C1566.04,43.437 1565.95,43.414 1565.87,43.384L1564.28,49.297L1564.16,49.088L1562.74,54.393L1562.96,54.77L1563.33,54.552L1564.75,49.247L1564.54,49.368Z" style="fill:#733c52;fill-rule:nonzero;"/>
            </g>
            <g id="q25" serif:id="q2">
                <path d="M1568.54,53.901L1569.29,54.335L1567.87,49.03L1567.12,48.595L1568.54,53.901Z" style="fill:#733c52;fill-rule:nonzero;"/>
                <path d="M1570.48,54.017L1570.91,53.264L1569.49,47.959L1569.06,48.712L1570.48,54.017Z" style="fill:#733c52;fill-rule:nonzero;"/>
                <path d="M1570.56,47.342L1574.44,51.225L1575.32,51.225L1571.43,47.342L1570.56,47.342Z" style="fill:#733c52;fill-rule:nonzero;"/>
                <path d="M1572.3,46.473L1576.18,50.357L1576.18,49.487L1572.3,45.603L1572.3,46.473Z" style="fill:#733c52;fill-rule:nonzero;"/>
                <path d="M1572.92,44.534L1578.22,45.956L1578.98,45.521L1573.67,44.099L1572.92,44.534Z" style="fill:#733c52;fill-rule:nonzero;"/>
                <path d="M1578.86,43.581L1573.55,42.159L1573.99,42.912L1579.29,44.334L1578.86,43.581Z" style="fill:#733c52;fill-rule:nonzero;"/>
                <path d="M1574.2,43.288L1574.33,43.497L1568.41,41.913C1568.39,42.003 1568.37,42.091 1568.34,42.177L1574.26,43.761L1574.05,43.882L1579.35,45.304L1579.73,45.086L1579.51,44.71L1574.2,43.288Z" style="fill:#733c52;fill-rule:nonzero;"/>
                <path d="M1567.13,43.384C1567.09,43.399 1567.05,43.412 1567,43.424C1566.96,43.436 1566.91,43.446 1566.87,43.455L1568.46,49.368L1568.25,49.247L1569.67,54.552L1570.04,54.77L1570.26,54.393L1568.84,49.088L1568.72,49.297L1567.13,43.384Z" style="fill:#733c52;fill-rule:nonzero;"/>
                <path d="M1572.3,47.149L1567.97,42.82C1567.91,42.888 1567.85,42.953 1567.78,43.013L1572.11,47.342L1571.87,47.342L1575.75,51.225L1576.18,51.225L1576.18,50.79L1572.3,46.907L1572.3,47.149Z" style="fill:#733c52;fill-rule:nonzero;"/>
            </g>
            <g id="q45" serif:id="q4">
                <path d="M1564.46,29.183L1563.71,28.748L1565.13,34.054L1565.88,34.489L1564.46,29.183Z" style="fill:#733c52;fill-rule:nonzero;"/>
                <path d="M1562.52,29.066L1562.09,29.82L1563.51,35.125L1563.94,34.372L1562.52,29.066Z" style="fill:#733c52;fill-rule:nonzero;"/>
                <path d="M1562.44,35.742L1558.56,31.859L1557.68,31.858L1561.57,35.742L1562.44,35.742Z" style="fill:#733c52;fill-rule:nonzero;"/>
                <path d="M1560.7,36.611L1556.82,32.727L1556.82,33.597L1560.7,37.481L1560.7,36.611Z" style="fill:#733c52;fill-rule:nonzero;"/>
                <path d="M1560.08,38.55L1554.78,37.128L1554.03,37.563L1559.33,38.985L1560.08,38.55Z" style="fill:#733c52;fill-rule:nonzero;"/>
                <path d="M1554.14,39.503L1559.45,40.925L1559.01,40.171L1553.71,38.75L1554.14,39.503Z" style="fill:#733c52;fill-rule:nonzero;"/>
                <path d="M1558.8,39.796L1558.67,39.586L1564.59,41.171C1564.61,41.081 1564.63,40.993 1564.66,40.907L1558.74,39.322L1558.95,39.201L1553.65,37.78L1553.27,37.997L1553.49,38.374L1558.8,39.796Z" style="fill:#733c52;fill-rule:nonzero;"/>
                <path d="M1560.7,35.935L1565.03,40.264C1565.09,40.195 1565.15,40.131 1565.22,40.071L1560.89,35.742L1561.13,35.742L1557.25,31.858L1556.82,31.858L1556.82,32.293L1560.7,36.177L1560.7,35.935Z" style="fill:#733c52;fill-rule:nonzero;"/>
                <path d="M1562.74,28.691L1564.16,33.996L1564.28,33.786L1565.87,39.7C1565.91,39.685 1565.95,39.672 1566,39.66C1566.04,39.648 1566.09,39.638 1566.13,39.629L1564.54,33.716L1564.75,33.837L1563.33,28.532L1562.96,28.314L1562.74,28.691Z" style="fill:#733c52;fill-rule:nonzero;"/>
            </g>
            <g id="q15" serif:id="q1">
                <path d="M1573.55,40.925L1578.86,39.503L1579.29,38.75L1573.99,40.171L1573.55,40.925Z" style="fill:#733c52;fill-rule:nonzero;"/>
                <path d="M1573.67,38.985L1578.98,37.563L1578.22,37.128L1572.92,38.55L1573.67,38.985Z" style="fill:#733c52;fill-rule:nonzero;"/>
                <path d="M1572.3,36.611L1572.3,37.481L1576.18,33.597L1576.18,32.727L1572.3,36.611Z" style="fill:#733c52;fill-rule:nonzero;"/>
                <path d="M1571.43,35.742L1575.32,31.858L1574.44,31.858L1570.56,35.742L1571.43,35.742Z" style="fill:#733c52;fill-rule:nonzero;"/>
                <path d="M1569.49,35.125L1570.91,29.82L1570.48,29.066L1569.06,34.372L1569.49,35.125Z" style="fill:#733c52;fill-rule:nonzero;"/>
                <path d="M1569.29,28.748L1568.54,29.183L1567.12,34.489L1567.87,34.054L1569.29,28.748Z" style="fill:#733c52;fill-rule:nonzero;"/>
                <path d="M1572.11,35.742L1567.78,40.071C1567.85,40.13 1567.91,40.195 1567.97,40.264L1572.3,35.935L1572.3,36.177L1576.18,32.293L1576.18,31.858L1575.75,31.858L1571.87,35.742L1572.11,35.742Z" style="fill:#733c52;fill-rule:nonzero;"/>
                <path d="M1568.46,33.716L1566.87,39.629C1566.96,39.646 1567.05,39.67 1567.13,39.7L1568.72,33.787L1568.84,33.996L1570.26,28.691L1570.04,28.314L1569.67,28.532L1568.25,33.837L1568.46,33.716Z" style="fill:#733c52;fill-rule:nonzero;"/>
                <path d="M1579.35,37.78L1574.05,39.202L1574.26,39.322L1568.34,40.907C1568.36,40.95 1568.37,40.993 1568.38,41.038C1568.39,41.082 1568.4,41.126 1568.41,41.171L1574.33,39.586L1574.2,39.796L1579.51,38.374L1579.73,37.997L1579.35,37.78Z" style="fill:#733c52;fill-rule:nonzero;"/>
            </g>
        </g>
    </g>
    <path d="M679.545,747.114C818.479,656.969 1055.62,673.74 1120.75,745.114" style="fill:none;stroke:#737373;stroke-width:4.17px;"/>
    <path d="M1162.04,1420.48C875.845,1343.04 529.963,1402.05 525.914,1579.84C352.714,1312.41 300.976,924.96 513.914,799" style="fill:none;stroke:#b3b3b3;stroke-width:4.17px;"/>
    <path d="M1175.6,895.587C1362.24,1065.33 1449.6,1553.24 1345.75,1538C1297.6,1686.67 920.663,1753.65 711.022,1697.16" style="fill:none;stroke:#595959;stroke-width:4.17px;"/>
    <g id="S-melisma" serif:id="S melisma">
        <path id="Sounder4" serif:id="Sounder" d="M1626.25,2302.55C1600.99,2346.29 1544.98,2361.3 1501.25,2336.05C1457.51,2310.8 1442.5,2254.79 1467.76,2211.05C1493.01,2167.31 1549.02,2152.3 1592.76,2177.55C1636.49,2202.8 1651.5,2258.81 1626.25,2302.55Z" style="fill:#fff;"/>
        <g id="Ring4" serif:id="Ring" opacity="0.5">
            <path d="M1626.25,2302.55C1600.99,2346.29 1544.98,2361.3 1501.25,2336.05C1457.51,2310.8 1442.5,2254.79 1467.76,2211.05C1493.01,2167.31 1549.02,2152.3 1592.76,2177.55C1636.49,2202.8 1651.5,2258.81 1626.25,2302.55Z" style="fill:none;stroke:#000;stroke-width:1.93px;"/>
            <path d="M1626.25,2302.55L1621.18,2299.63" style="fill:none;stroke:#000;stroke-width:1.93px;"/>
            <path d="M1472.82,2213.97L1467.76,2211.05" style="fill:none;stroke:#000;stroke-width:1.93px;"/>
            <path d="M1504.17,2330.98L1501.25,2336.05" style="fill:none;stroke:#000;stroke-width:1.93px;"/>
            <path d="M1592.76,2177.55L1589.83,2182.62" style="fill:none;stroke:#000;stroke-width:1.93px;"/>
            <path d="M1592.75,2336.05L1589.83,2330.98" style="fill:none;stroke:#000;stroke-width:1.93px;"/>
            <path d="M1504.17,2182.62L1501.25,2177.55" style="fill:none;stroke:#000;stroke-width:1.93px;"/>
            <path d="M1472.82,2299.63L1467.75,2302.55" style="fill:none;stroke:#000;stroke-width:1.93px;"/>
            <path d="M1626.25,2211.05L1621.18,2213.97" style="fill:none;stroke:#000;stroke-width:1.93px;"/>
            <path d="M1547,2348.31L1547,2342.46" style="fill:none;stroke:#000;stroke-width:1.93px;"/>
            <path d="M1547,2171.14L1547,2165.29" style="fill:none;stroke:#000;stroke-width:1.93px;"/>
            <path d="M1461.34,2256.8L1455.49,2256.8" style="fill:none;stroke:#000;stroke-width:1.93px;"/>
            <path d="M1638.51,2256.8L1632.66,2256.8" style="fill:none;stroke:#000;stroke-width:1.93px;"/>
        </g>
        <g id="Root-Markers" serif:id="Root Markers">
        </g>
        <g id="Notes4" serif:id="Notes">
            <path id="_115" serif:id="11" d="M1514.49,2186.1C1510.25,2193.44 1500.83,2195.97 1493.49,2191.72C1486.14,2187.48 1483.62,2178.07 1487.86,2170.72C1492.1,2163.37 1501.51,2160.85 1508.86,2165.1C1516.21,2169.34 1518.73,2178.75 1514.49,2186.1Z" style="fill:#c05c9b;stroke:#fff;stroke-width:4.63px;"/>
            <path id="_104" serif:id="10" d="M1481.91,2219.96C1477.66,2227.3 1468.25,2229.83 1460.91,2225.58C1453.56,2221.34 1451.04,2211.93 1455.28,2204.58C1459.52,2197.23 1468.93,2194.71 1476.28,2198.95C1483.63,2203.2 1486.15,2212.61 1481.91,2219.96Z" style="fill:#c05c9b;stroke:#fff;stroke-width:4.63px;"/>
            <path id="_74" serif:id="7" d="M1515.38,2343.49C1511.13,2350.84 1501.73,2353.36 1494.38,2349.12C1487.03,2344.88 1484.51,2335.47 1488.75,2328.12C1492.99,2320.77 1502.4,2318.25 1509.75,2322.49C1517.1,2326.73 1519.62,2336.14 1515.38,2343.49Z" style="fill:#c05c9b;stroke:#fff;stroke-width:4.63px;"/>
            <path id="_63" serif:id="6" d="M1560.31,2356.45C1556.07,2363.79 1546.66,2366.32 1539.31,2362.07C1531.97,2357.83 1529.44,2348.42 1533.69,2341.07C1537.93,2333.72 1547.34,2331.2 1554.69,2335.45C1562.04,2339.69 1564.56,2349.1 1560.31,2356.45Z" style="fill:#c05c9b;stroke:#fff;stroke-width:4.63px;"/>
            <path id="_49" serif:id="4" d="M1638.94,2310.73C1634.7,2318.08 1625.29,2320.6 1617.94,2316.36C1610.59,2312.12 1608.07,2302.71 1612.32,2295.36C1616.56,2288.01 1625.97,2285.49 1633.32,2289.73C1640.66,2293.97 1643.19,2303.38 1638.94,2310.73Z" style="fill:#c05c9b;stroke:#fff;stroke-width:4.63px;"/>
            <path id="_22" serif:id="2" d="M1638.94,2219.96C1634.7,2227.31 1625.29,2229.83 1617.94,2225.59C1610.59,2221.34 1608.07,2211.93 1612.31,2204.58C1616.56,2197.24 1625.97,2194.72 1633.31,2198.96C1640.66,2203.2 1643.18,2212.61 1638.94,2219.96Z" style="fill:#c05c9b;stroke:#fff;stroke-width:4.63px;"/>
            <path id="_14" serif:id="1" d="M1605.45,2187.2C1601.2,2194.55 1591.79,2197.07 1584.45,2192.82C1577.1,2188.58 1574.58,2179.17 1578.82,2171.82C1583.06,2164.47 1592.47,2161.95 1599.82,2166.2C1607.17,2170.44 1609.69,2179.85 1605.45,2187.2Z" style="fill:#c05c9b;stroke:#fff;stroke-width:4.63px;"/>
        </g>
        <g id="Treble-Marker" serif:id="Treble Marker">
        </g>
    </g>
</svg>
