<?xml version="1.0" encoding="UTF-8" standalone="no"?>
<!DOCTYPE svg PUBLIC "-//W3C//DTD SVG 1.1//EN" "http://www.w3.org/Graphics/SVG/1.1/DTD/svg11.dtd">
<svg width="100%" height="100%" viewBox="0 0 1701 2481" version="1.1" xmlns="http://www.w3.org/2000/svg" xmlns:xlink="http://www.w3.org/1999/xlink" xml:space="preserve" xmlns:serif="http://www.serif.com/" style="fill-rule:evenodd;clip-rule:evenodd;stroke-linecap:round;stroke-linejoin:round;stroke-miterlimit:1.5;">
    <rect id="Z2B" x="0.666" y="0.987" width="1700" height="2480" style="fill:none;"/>
    <g id="Fields" opacity="0.2" sound="Field/12-Claw-Wreath" autoplay="true">
        <path id="_4" serif:id="4" d="M1329.7,1364.99L1690.2,1462.51L1690.75,2062.99L1205.21,1585.09C1261.42,1528.44 1303.92,1455.79 1329.7,1364.99Z" style="fill:#84757e;stroke:#767676;stroke-width:8.33px;"/>
    </g>
    <a href="Z2B2.svg">
    <g id="S">
        <g id="Ring">
            <path id="Backer" d="M1262.1,1477.99C1131.21,1704.69 840.904,1782.48 614.216,1651.61C387.528,1520.73 309.751,1230.43 440.639,1003.73C571.528,777.024 861.835,699.226 1088.52,830.102C1315.21,960.978 1392.99,1251.29 1262.1,1477.99Z" style="fill:#fff;"/>
            <path d="M1262.1,1477.99C1131.21,1704.69 840.904,1782.48 614.216,1651.61C387.528,1520.73 309.751,1230.43 440.639,1003.73C571.528,777.024 861.835,699.226 1088.52,830.102C1315.21,960.978 1392.99,1251.29 1262.1,1477.99Z" style="fill:none;stroke:#000;stroke-width:8.33px;"/>
            <path d="M1262.1,1477.99L1235.84,1462.83" style="fill:none;stroke:#000;stroke-width:8.33px;"/>
            <path d="M466.897,1018.88L440.639,1003.73" style="fill:none;stroke:#000;stroke-width:8.33px;"/>
            <path d="M629.376,1625.35L614.216,1651.61" style="fill:none;stroke:#000;stroke-width:8.33px;"/>
            <path d="M1088.52,830.102L1073.36,856.359" style="fill:none;stroke:#000;stroke-width:8.33px;"/>
            <path d="M1088.51,1651.59L1073.35,1625.33" style="fill:none;stroke:#000;stroke-width:8.33px;"/>
            <path d="M629.386,856.376L614.226,830.119" style="fill:none;stroke:#000;stroke-width:8.33px;"/>
            <path d="M466.867,1462.84L440.609,1478" style="fill:none;stroke:#000;stroke-width:8.33px;"/>
            <path d="M1262.13,1003.71L1235.87,1018.87" style="fill:none;stroke:#000;stroke-width:8.33px;"/>
            <path d="M851.37,1715.15L851.37,1684.83" style="fill:none;stroke:#000;stroke-width:8.33px;"/>
            <path d="M851.37,796.879L851.37,766.56" style="fill:none;stroke:#000;stroke-width:8.33px;"/>
            <path d="M407.402,1240.86L377.083,1240.86" style="fill:none;stroke:#000;stroke-width:8.33px;"/>
            <path d="M1325.66,1240.86L1295.34,1240.86" style="fill:none;stroke:#000;stroke-width:8.33px;"/>
        </g>
        <g id="Root-Markers" serif:id="Root Markers">
            <path id="_11" serif:id="11" d="M667.622,921.393L749.475,990.567L686.602,1026.87L667.622,921.393ZM695.91,970.388L700.633,996.639L716.281,987.604L695.91,970.388Z" style="fill:#707d74;"/>
        </g>
        <g id="Notes">
            <path id="_111" serif:id="11" sound="Font/3-Low-B" d="M682.853,874.389C660.864,912.474 612.09,925.543 574.003,903.554C535.917,881.565 522.848,832.793 544.837,794.707C566.826,756.621 615.6,743.552 653.687,765.541C691.773,787.53 704.842,836.303 682.853,874.389Z" style="fill:#707d74;stroke:#fff;stroke-width:24px;"/>
            <path id="_41" serif:id="4" sound="Font/3-Mid-E" d="M1327.92,1520.39C1305.93,1558.48 1257.16,1571.55 1219.07,1549.56C1180.98,1527.57 1167.91,1478.8 1189.9,1440.71C1211.89,1402.62 1260.67,1389.55 1298.75,1411.54C1336.84,1433.53 1349.91,1482.31 1327.92,1520.39Z" style="fill:#707d74;stroke:#fff;stroke-width:24px;"/>
        </g>
        <g id="Treble-Marker" serif:id="Treble Marker">
            <g id="_10" serif:id="10" sound="Font/3-High-Bb">
                <path id="_101" serif:id="10" d="M513.988,1049.89C491.999,1087.98 443.225,1101.04 405.139,1079.06C367.052,1057.07 353.983,1008.29 375.972,970.208C397.962,932.122 446.736,919.054 484.822,941.042C522.909,963.031 535.978,1011.8 513.988,1049.89Z" style="fill:#fff;stroke:#fff;stroke-width:33.33px;"/>
                <circle id="_10a" serif:id="10a" cx="444.98" cy="1010.05" r="64" style="fill:#fff;stroke:#707d74;stroke-width:16.67px;"/>
            </g>
        </g>
    </g>
    </a>
    <g id="Songs">
        <g id="song-12-claw-wreath" serif:id="song 12 claw wreath">
            <g id="Z2B2" sound="Song/12-Claw-Wreath-Z2B2">
                <path d="M1566.62,1751.98C1547.23,1752.09 1527.82,1744.61 1513.24,1729.62L1487.48,1703.13C1474.11,1689.39 1467.18,1671.76 1466.62,1653.97L1567.28,1654.15L1566.62,1751.98Z" style="fill:#488e61;stroke:#fff;stroke-width:1.67px;"/>
                <path d="M1466.62,1653.97C1465.98,1633.94 1473.45,1613.71 1488.94,1598.65L1515.43,1572.89C1530.05,1558.67 1549.06,1551.73 1567.97,1551.99L1567.28,1654.15L1466.62,1653.97Z" style="fill:#488e61;stroke:#fff;stroke-width:1.67px;"/>
                <path d="M1467.58,1654.15L1566.58,1654.33" style="fill:none;stroke:#488e61;stroke-width:4.17px;stroke-linecap:butt;"/>
                <path id="q4" d="M1493.63,1653.61C1493.85,1646.14 1495.26,1638.42 1497.76,1630.42C1498.47,1628.65 1499.23,1629.15 1499.1,1630.49C1496.85,1637.68 1496.03,1645.62 1496.47,1653.61L1493.63,1653.61ZM1566.41,1590.53C1548.87,1591.59 1529.18,1601.48 1520.44,1614.67C1519.79,1615.5 1518.59,1615.65 1517.75,1615C1516.92,1614.35 1516.77,1613.15 1517.42,1612.32C1530.22,1596 1546.76,1588.74 1566.41,1588.83L1566.41,1590.53ZM1503.88,1653.61C1503.96,1644.64 1506.18,1635.53 1510.31,1626.3C1510.98,1624.81 1512.06,1625.27 1511.77,1626.56C1508.26,1634.41 1506.78,1644.07 1507.22,1653.61L1503.88,1653.61ZM1483.4,1653.61C1483.49,1648.79 1483.98,1643.86 1484.87,1638.84C1484.81,1637.18 1486.71,1636 1486.29,1638.41C1485.42,1643.3 1485.11,1648.42 1485.3,1653.61L1483.4,1653.61ZM1515.12,1653.61C1515,1643.67 1518.17,1633.89 1524.26,1624.38C1525.6,1622.94 1526.66,1623.56 1525.85,1625.09C1521.01,1632.53 1518.26,1643.25 1518.58,1653.61L1515.12,1653.61ZM1566.41,1602.39C1554.19,1603.14 1540.94,1608.24 1533.47,1617.18C1532.72,1617.93 1531.51,1617.92 1530.77,1617.17C1530.02,1616.42 1530.03,1615.21 1530.78,1614.47C1541.03,1604.24 1553.06,1599.62 1566.41,1599.92L1566.41,1602.39ZM1493.17,1619.25C1492.75,1620.22 1491.62,1620.66 1490.64,1620.24C1489.67,1619.81 1489.23,1618.68 1489.65,1617.71C1501.62,1590.36 1523.58,1574.06 1552.8,1569.27C1554.34,1568.66 1556.09,1570.06 1553.67,1570.46C1527.99,1574.68 1501.31,1595.08 1493.17,1619.25ZM1507.36,1614.83C1506.81,1615.74 1505.63,1616.02 1504.73,1615.47C1503.83,1614.92 1503.54,1613.75 1504.09,1612.84C1518.5,1589.73 1538.6,1579.55 1565.01,1578.65C1566.92,1578.74 1566.69,1579.62 1565.38,1579.94C1542.76,1580.71 1518.01,1595.89 1507.36,1614.83Z" style="fill:#e7e7e7;stroke:#000;stroke-width:0.04px;stroke-linejoin:bevel;stroke-miterlimit:2;"/>
                <path id="q3" d="M1566.41,1737.22C1554.88,1736.69 1543.29,1733.54 1531.86,1727.86C1530.25,1727.45 1529.65,1725.29 1531.85,1726.38C1542.05,1731.44 1554.22,1734.1 1566.41,1734.24L1566.41,1737.22ZM1485.3,1653.61C1486.11,1675.63 1496.05,1698.96 1512.33,1711.64C1513.11,1712.36 1513.15,1713.57 1512.43,1714.35C1511.71,1715.13 1510.49,1715.17 1509.72,1714.45C1491.62,1697.61 1482.94,1676.82 1483.4,1653.61L1485.3,1653.61ZM1566.41,1726.84C1552.98,1726.37 1540.15,1721.63 1527.42,1713.12C1525.92,1711.93 1526.62,1711.35 1527.87,1711.85C1538.62,1719.04 1552.67,1722.81 1566.41,1723.02L1566.41,1726.84ZM1518.58,1653.61C1518.8,1660.59 1520.4,1667.39 1523.7,1672.92C1524.16,1673.88 1523.75,1675.02 1522.8,1675.47C1521.84,1675.92 1520.7,1675.52 1520.25,1674.57C1516.87,1667.52 1515.2,1660.53 1515.12,1653.61L1518.58,1653.61ZM1507.22,1653.61C1507.75,1665.17 1511.09,1676.56 1517.02,1684.39C1517.59,1685.28 1517.34,1686.46 1516.45,1687.04C1515.56,1687.61 1514.38,1687.35 1513.81,1686.46C1506.93,1675.71 1503.76,1664.76 1503.88,1653.61L1507.22,1653.61ZM1496.47,1653.61C1497.35,1669.65 1503.27,1685.9 1512.85,1696.79C1513.53,1697.6 1513.41,1698.81 1512.59,1699.48C1511.77,1700.15 1510.57,1700.04 1509.89,1699.22C1498.26,1684.72 1493.18,1669.7 1493.63,1653.61L1496.47,1653.61ZM1566.41,1716.22C1552.11,1715.89 1539.05,1710.19 1527.02,1699.92C1525.77,1698.85 1526.53,1697.94 1527.67,1698.59C1537.51,1706.98 1552.53,1712.12 1566.41,1712.55L1566.41,1716.22ZM1566.41,1704.74C1551.86,1704.48 1539.44,1697.88 1529.12,1685.99C1528.12,1684.3 1529.01,1683.46 1530.24,1684.66C1538.08,1693.83 1552.84,1701.01 1566.41,1701.25L1566.41,1704.74Z" style="fill:#e7e7e7;stroke:#000;stroke-width:0.06px;stroke-linejoin:bevel;stroke-miterlimit:2;"/>
            </g>
            <g id="Z2B1" serif:id="Z2B" sound="Song/12-Claw-Wreath-Z2B" autoplay="true">
                <path d="M1568.06,1551.99C1586.98,1552.25 1605.79,1559.72 1620.01,1574.34L1645.76,1600.83C1660.22,1615.69 1667.15,1635.1 1666.64,1654.33L1567.38,1654.15L1568.06,1551.99Z" style="fill:#707d74;stroke:#fff;stroke-width:1.67px;"/>
                <path d="M1666.64,1654.33C1666.14,1672.92 1658.68,1691.34 1644.3,1705.31L1617.82,1731.07C1603.57,1744.92 1585.15,1751.87 1566.72,1751.97L1567.38,1654.15L1666.64,1654.33Z" style="fill:#707d74;stroke:#fff;stroke-width:1.67px;"/>
                <path d="M1568.17,1654.33L1665.77,1654.33" style="fill:none;stroke:#707d74;stroke-width:4.17px;stroke-linecap:butt;"/>
                <path id="q1" d="M1566.41,1588.83C1568.59,1588.84 1570.8,1588.94 1573.04,1589.13C1574.68,1589.27 1574.6,1590.45 1573.29,1590.59C1571.06,1590.41 1568.75,1590.39 1566.41,1590.53L1566.41,1588.83ZM1650.17,1653.61C1650.33,1645.4 1649.16,1637.39 1646.46,1630.18C1646.18,1629.16 1646.78,1628.1 1647.8,1627.82C1648.82,1627.54 1649.88,1628.13 1650.16,1629.16C1652.48,1637.52 1653.55,1645.69 1653.42,1653.61L1650.17,1653.61ZM1639,1653.61C1639.09,1649.82 1638.85,1646.11 1638.24,1642.56C1638.09,1641.51 1638.83,1640.54 1639.87,1640.4C1640.92,1640.26 1641.89,1640.99 1642.03,1642.04C1642.53,1646.03 1642.76,1649.89 1642.72,1653.61L1639,1653.61ZM1566.41,1599.92C1570.64,1600.02 1574.99,1600.61 1579.47,1601.66C1581.26,1602.45 1581.03,1603.66 1579.33,1603.4C1575.4,1602.44 1570.98,1602.11 1566.41,1602.39L1566.41,1599.92ZM1628.35,1653.61C1628.33,1652.71 1628.28,1651.81 1628.19,1650.93C1628.17,1649.88 1629.01,1649 1630.07,1648.98C1631.12,1648.96 1632,1649.8 1632.02,1650.85C1632.03,1651.78 1632.03,1652.7 1632.01,1653.61L1628.35,1653.61ZM1570.88,1570.45C1569.82,1570.41 1568.99,1569.52 1569.03,1568.46C1569.07,1567.4 1569.96,1566.58 1571.02,1566.62C1600.85,1567.71 1624.07,1582.16 1639.25,1607.58C1640.38,1608.8 1639.72,1610.94 1638.46,1608.83C1625.12,1586.49 1596.35,1569.15 1570.88,1570.45ZM1580.19,1582.03C1579.15,1581.85 1578.45,1580.86 1578.63,1579.82C1578.81,1578.78 1579.8,1578.08 1580.84,1578.26C1607.63,1583.19 1624.48,1598.14 1635,1622.38C1635.62,1624.19 1634.72,1624.31 1633.94,1623.2C1624.92,1602.44 1601.72,1584.99 1580.19,1582.03ZM1585.14,1594.13C1584.13,1593.84 1583.55,1592.77 1583.85,1591.76C1584.14,1590.75 1585.21,1590.17 1586.22,1590.47C1608.29,1597.04 1621.67,1612 1628.2,1633.7C1628.67,1635.28 1627.54,1635.63 1626.93,1634.47C1621.44,1616.24 1602.68,1597.88 1585.14,1594.13ZM1587.58,1607.18C1586.62,1606.76 1586.18,1605.63 1586.6,1604.66C1587.03,1603.69 1588.15,1603.26 1589.12,1603.68C1606.59,1611.29 1616.16,1625.33 1618.89,1644.28C1618.82,1646.24 1617.62,1646.47 1617.23,1644.78C1615.23,1630.07 1602.78,1612.22 1587.58,1607.18Z" style="fill:#e7e7e7;stroke:#000;stroke-width:0.07px;stroke-linejoin:bevel;stroke-miterlimit:2;"/>
                <path id="q2" d="M1642.72,1653.61C1642.48,1675.08 1633.31,1692.21 1616.33,1706.99C1614.79,1708.13 1614.41,1707.31 1615.23,1706.23C1629.47,1693.83 1638.53,1672.71 1639,1653.61L1642.72,1653.61ZM1566.41,1701.25C1569.55,1701.3 1572.62,1700.99 1575.53,1700.24C1576.57,1700.07 1577.55,1700.78 1577.71,1701.83C1577.88,1702.87 1577.17,1703.85 1576.12,1704.02C1572.79,1704.56 1569.55,1704.8 1566.41,1704.74L1566.41,1701.25ZM1566.41,1734.24C1582.09,1734.42 1597.8,1730.45 1609.45,1722.08C1610.36,1721.54 1611.54,1721.85 1612.08,1722.76C1612.62,1723.67 1612.32,1724.85 1611.41,1725.39C1596.79,1734.05 1581.64,1737.91 1566.41,1737.22L1566.41,1734.24ZM1653.42,1653.61C1653.11,1672.96 1645.66,1690.86 1631.72,1706.58C1630.91,1708.02 1628.66,1708.03 1630.29,1706.2C1642.35,1692.61 1649.8,1672.59 1650.17,1653.61L1653.42,1653.61ZM1566.41,1723.02C1576.74,1723.17 1586.9,1721.32 1595.35,1717.39C1596.32,1716.98 1597.45,1717.43 1597.86,1718.4C1598.27,1719.38 1597.82,1720.5 1596.85,1720.91C1586.25,1725.27 1576.17,1727.18 1566.41,1726.84L1566.41,1723.02ZM1566.41,1712.55C1572.97,1712.76 1579.26,1711.92 1584.64,1709.89C1585.65,1709.59 1586.72,1710.17 1587.01,1711.18C1587.31,1712.2 1586.73,1713.26 1585.72,1713.56C1579.04,1715.5 1572.61,1716.36 1566.41,1716.22L1566.41,1712.55ZM1632.01,1653.61C1631.58,1675.26 1621.45,1691.66 1603.48,1703.93C1602.12,1704.85 1601.45,1703.89 1602.37,1702.95C1617.32,1692.75 1628.75,1671.06 1628.35,1653.61L1632.01,1653.61ZM1616.5,1657.2C1616.61,1656.15 1617.55,1655.39 1618.6,1655.5C1619.65,1655.62 1620.41,1656.56 1620.3,1657.61C1618.32,1676.57 1607.83,1689.93 1590.59,1698.26C1588.7,1698.78 1588.12,1697.7 1589.61,1696.82C1603.03,1690.47 1616.28,1673.21 1616.5,1657.2Z" style="fill:#e7e7e7;stroke:#000;stroke-width:0.05px;stroke-linejoin:bevel;stroke-miterlimit:2;"/>
            </g>
        </g>
    </g>
    <g id="Map" sound="Map/Z2B" loop="false" autoplay="true">
        <g id="Frame">
            <rect x="1472.17" y="42.529" width="190" height="190" style="fill:#fff;"/>
            <rect x="1472.17" y="42.529" width="190" height="190" style="fill:none;stroke:#000;stroke-width:1.17px;stroke-linejoin:bevel;"/>
            <rect x="1524.04" y="94.404" width="86.25" height="86.25" style="fill:none;stroke:#000;stroke-width:1.25px;stroke-linejoin:bevel;"/>
            <path d="M1610.29,94.404L1662.17,42.737" style="fill:none;stroke:#000;stroke-width:1.25px;stroke-linejoin:bevel;"/>
            <path d="M1524.04,94.404L1472.58,42.737" style="fill:none;stroke:#000;stroke-width:1.25px;stroke-linejoin:bevel;"/>
            <path d="M1524.04,180.654L1472.17,232.529" style="fill:none;stroke:#000;stroke-width:1.25px;stroke-linejoin:bevel;"/>
            <path d="M1610.29,180.654L1662.17,232.529" style="fill:none;stroke:#000;stroke-width:1.25px;stroke-linejoin:bevel;"/>
        </g>
        <g id="Dots">
            <circle cx="1472.17" cy="232.487" r="1.5" style="stroke:#000;stroke-width:1.25px;stroke-linejoin:bevel;"/>
            <circle cx="1566.86" cy="232.612" r="1.5" style="stroke:#000;stroke-width:1.25px;stroke-linejoin:bevel;"/>
            <circle cx="1662.17" cy="232.487" r="1.5" style="stroke:#000;stroke-width:1.25px;stroke-linejoin:bevel;"/>
            <circle cx="1634.51" cy="204.653" r="1.5" style="stroke:#000;stroke-width:1.25px;stroke-linejoin:bevel;"/>
            <circle cx="1610.29" cy="180.487" r="1.5" style="stroke:#000;stroke-width:1.25px;stroke-linejoin:bevel;"/>
            <circle cx="1609.86" cy="137.612" r="1.5" style="stroke:#000;stroke-width:1.25px;stroke-linejoin:bevel;"/>
            <circle cx="1609.99" cy="94.362" r="1.5" style="stroke:#000;stroke-width:1.25px;stroke-linejoin:bevel;"/>
            <circle cx="1634.42" cy="70.153" r="1.5" style="stroke:#000;stroke-width:1.25px;stroke-linejoin:bevel;"/>
            <circle cx="1566.86" cy="94.362" r="1.5" style="stroke:#000;stroke-width:1.25px;stroke-linejoin:bevel;"/>
            <circle cx="1523.74" cy="94.487" r="1.5" style="stroke:#000;stroke-width:1.25px;stroke-linejoin:bevel;"/>
            <circle cx="1567.17" cy="42.487" r="1.5" style="stroke:#000;stroke-width:1.25px;stroke-linejoin:bevel;"/>
            <circle cx="1472.17" cy="42.529" r="1.5" style="stroke:#000;stroke-width:1.25px;stroke-linejoin:bevel;"/>
            <circle cx="1500.01" cy="70.487" r="1.5" style="stroke:#000;stroke-width:1.25px;stroke-linejoin:bevel;"/>
            <circle cx="1472.17" cy="137.529" r="1.5" style="stroke:#000;stroke-width:1.25px;stroke-linejoin:bevel;"/>
            <circle cx="1524.04" cy="137.529" r="1.5" style="stroke:#000;stroke-width:1.25px;stroke-linejoin:bevel;"/>
            <circle cx="1566.67" cy="180.654" r="1.5" style="stroke:#000;stroke-width:1.25px;stroke-linejoin:bevel;"/>
            <circle cx="1524.01" cy="180.487" r="1.5" style="stroke:#000;stroke-width:1.25px;stroke-linejoin:bevel;"/>
            <circle cx="1499.81" cy="204.987" r="1.5" style="stroke:#000;stroke-width:1.25px;stroke-linejoin:bevel;"/>
            <circle cx="1662.17" cy="137.529" r="1.5" style="stroke:#000;stroke-width:1.25px;stroke-linejoin:bevel;"/>
            <circle cx="1662.16" cy="42.636" r="1.5" style="stroke:#000;stroke-width:1.25px;stroke-linejoin:bevel;"/>
        </g>
        <path d="M1637.92,66.452L1608.95,95.964" style="fill:none;stroke:#488e61;stroke-width:5.83px;"/>
        <path d="M1662.92,42.452L1633.95,71.964" style="fill:none;stroke:#c05c9b;stroke-width:5.83px;"/>
        <g id="_12" serif:id="12">
            <circle cx="1634.92" cy="70.737" r="15.75" style="fill:#fff;stroke:#fff;stroke-width:1.46px;"/>
            <path id="q41" serif:id="q4" d="M1621.48,71.224C1621.51,69.904 1621.76,68.544 1622.2,67.133C1622.33,66.819 1622.46,66.908 1622.44,67.145C1622.04,68.413 1621.9,69.814 1621.98,71.224L1621.48,71.224ZM1634.32,60.095C1631.22,60.281 1627.75,62.027 1626.2,64.354C1626.09,64.5 1625.88,64.527 1625.73,64.412C1625.58,64.298 1625.56,64.086 1625.67,63.939C1627.93,61.06 1630.85,59.778 1634.32,59.795L1634.32,60.095ZM1623.28,71.224C1623.3,69.64 1623.69,68.034 1624.42,66.405C1624.54,66.141 1624.73,66.224 1624.67,66.45C1624.05,67.837 1623.79,69.54 1623.87,71.224L1623.28,71.224ZM1619.67,71.224C1619.69,70.373 1619.77,69.503 1619.93,68.618C1619.92,68.325 1620.25,68.116 1620.18,68.542C1620.03,69.405 1619.97,70.308 1620,71.224L1619.67,71.224ZM1625.27,71.224C1625.24,69.469 1625.8,67.745 1626.88,66.067C1627.11,65.813 1627.3,65.922 1627.16,66.191C1626.3,67.504 1625.82,69.396 1625.88,71.224L1625.27,71.224ZM1634.32,62.187C1632.16,62.32 1629.82,63.219 1628.5,64.797C1628.37,64.928 1628.16,64.927 1628.03,64.795C1627.89,64.662 1627.89,64.449 1628.03,64.318C1629.84,62.513 1631.96,61.698 1634.32,61.751L1634.32,62.187ZM1621.39,65.161C1621.32,65.332 1621.12,65.411 1620.95,65.336C1620.78,65.261 1620.7,65.061 1620.77,64.889C1622.88,60.065 1626.76,57.189 1631.91,56.343C1632.18,56.237 1632.49,56.484 1632.07,56.555C1627.54,57.298 1622.83,60.898 1621.39,65.161ZM1623.9,64.382C1623.8,64.541 1623.59,64.592 1623.43,64.495C1623.27,64.398 1623.22,64.191 1623.32,64.031C1625.86,59.954 1629.41,58.157 1634.07,57.999C1634.4,58.014 1634.36,58.169 1634.13,58.226C1630.14,58.362 1625.78,61.041 1623.9,64.382Z" style="fill:#733c52;stroke:#000;stroke-width:0.01px;stroke-linejoin:bevel;stroke-miterlimit:2;"/>
            <path id="q31" serif:id="q3" d="M1634.32,85.973C1632.28,85.879 1630.24,85.323 1628.22,84.322C1627.93,84.25 1627.83,83.869 1628.22,84.061C1630.02,84.954 1632.16,85.423 1634.32,85.448L1634.32,85.973ZM1620,71.224C1620.15,75.108 1621.9,79.223 1624.77,81.46C1624.91,81.587 1624.92,81.802 1624.79,81.939C1624.66,82.075 1624.45,82.083 1624.31,81.956C1621.12,78.986 1619.59,75.317 1619.67,71.224L1620,71.224ZM1634.32,84.141C1631.94,84.059 1629.68,83.222 1627.44,81.721C1627.17,81.512 1627.29,81.409 1627.52,81.498C1629.41,82.765 1631.89,83.431 1634.32,83.467L1634.32,84.141ZM1625.88,71.224C1625.91,72.454 1626.2,73.654 1626.78,74.63C1626.86,74.798 1626.79,75 1626.62,75.08C1626.45,75.16 1626.25,75.088 1626.17,74.92C1625.57,73.677 1625.28,72.443 1625.27,71.224L1625.88,71.224ZM1623.87,71.224C1623.97,73.263 1624.56,75.272 1625.6,76.654C1625.7,76.81 1625.66,77.019 1625.5,77.12C1625.34,77.221 1625.13,77.175 1625.03,77.019C1623.82,75.123 1623.26,73.191 1623.28,71.224L1623.87,71.224ZM1621.98,71.224C1622.13,74.052 1623.18,76.92 1624.87,78.84C1624.98,78.984 1624.96,79.197 1624.82,79.316C1624.67,79.434 1624.46,79.413 1624.34,79.269C1622.29,76.71 1621.39,74.062 1621.48,71.224L1621.98,71.224ZM1634.32,82.268C1631.79,82.211 1629.49,81.204 1627.36,79.392C1627.14,79.204 1627.28,79.044 1627.48,79.158C1629.22,80.639 1631.87,81.545 1634.32,81.622L1634.32,82.268ZM1634.32,80.243C1631.75,80.196 1629.56,79.033 1627.74,76.936C1627.56,76.638 1627.72,76.488 1627.93,76.701C1629.32,78.319 1631.92,79.586 1634.32,79.627L1634.32,80.243Z" style="fill:#733c52;stroke:#000;stroke-width:0.01px;stroke-linejoin:bevel;stroke-miterlimit:2;"/>
            <path id="q11" serif:id="q1" d="M1634.32,59.795C1634.7,59.797 1635.09,59.815 1635.48,59.848C1635.77,59.873 1635.76,60.08 1635.53,60.106C1635.13,60.073 1634.73,60.07 1634.32,60.095L1634.32,59.795ZM1649.09,71.224C1649.12,69.776 1648.91,68.362 1648.44,67.09C1648.39,66.91 1648.49,66.723 1648.67,66.673C1648.85,66.623 1649.04,66.729 1649.09,66.909C1649.5,68.384 1649.69,69.825 1649.66,71.224L1649.09,71.224ZM1647.12,71.224C1647.14,70.554 1647.09,69.899 1646.99,69.273C1646.96,69.088 1647.09,68.918 1647.27,68.893C1647.46,68.867 1647.63,68.996 1647.65,69.181C1647.74,69.886 1647.78,70.566 1647.78,71.224L1647.12,71.224ZM1634.32,61.751C1635.06,61.768 1635.83,61.872 1636.62,62.059C1636.93,62.198 1636.89,62.411 1636.59,62.365C1635.9,62.196 1635.12,62.138 1634.32,62.187L1634.32,61.751ZM1645.24,71.224C1645.24,71.064 1645.23,70.906 1645.21,70.75C1645.21,70.564 1645.36,70.41 1645.54,70.406C1645.73,70.402 1645.88,70.55 1645.89,70.737C1645.89,70.901 1645.89,71.063 1645.89,71.224L1645.24,71.224ZM1635.1,56.553C1634.91,56.546 1634.77,56.389 1634.78,56.202C1634.78,56.015 1634.94,55.869 1635.13,55.876C1640.39,56.07 1644.49,58.618 1647.16,63.103C1647.36,63.317 1647.25,63.695 1647.02,63.324C1644.67,59.382 1639.6,56.324 1635.1,56.553ZM1636.75,58.595C1636.56,58.564 1636.44,58.389 1636.47,58.205C1636.5,58.021 1636.68,57.898 1636.86,57.929C1641.59,58.799 1644.56,61.438 1646.41,65.713C1646.52,66.033 1646.37,66.053 1646.23,65.859C1644.64,62.196 1640.54,59.117 1636.75,58.595ZM1637.62,60.731C1637.44,60.678 1637.34,60.49 1637.39,60.312C1637.44,60.133 1637.63,60.031 1637.81,60.083C1641.7,61.243 1644.06,63.882 1645.21,67.711C1645.3,67.989 1645.1,68.051 1644.99,67.846C1644.02,64.63 1640.71,61.391 1637.62,60.731ZM1638.05,63.032C1637.88,62.957 1637.8,62.758 1637.88,62.588C1637.95,62.417 1638.15,62.34 1638.32,62.415C1641.4,63.757 1643.09,66.234 1643.57,69.576C1643.56,69.922 1643.35,69.963 1643.28,69.666C1642.93,67.07 1640.73,63.922 1638.05,63.032Z" style="fill:#733c52;stroke:#000;stroke-width:0.01px;stroke-linejoin:bevel;stroke-miterlimit:2;"/>
            <path id="q21" serif:id="q2" d="M1647.78,71.224C1647.73,75.01 1646.12,78.032 1643.12,80.641C1642.85,80.842 1642.78,80.696 1642.93,80.506C1645.44,78.318 1647.04,74.592 1647.12,71.224L1647.78,71.224ZM1634.32,79.627C1634.87,79.636 1635.41,79.581 1635.92,79.449C1636.11,79.42 1636.28,79.545 1636.31,79.729C1636.34,79.913 1636.21,80.086 1636.03,80.115C1635.44,80.211 1634.87,80.253 1634.32,80.243L1634.32,79.627ZM1634.32,85.448C1637.08,85.48 1639.85,84.779 1641.91,83.303C1642.07,83.208 1642.28,83.261 1642.37,83.422C1642.47,83.583 1642.41,83.79 1642.25,83.886C1639.67,85.413 1637,86.096 1634.32,85.973L1634.32,85.448ZM1649.66,71.224C1649.61,74.637 1648.3,77.795 1645.84,80.567C1645.69,80.822 1645.3,80.824 1645.58,80.5C1647.71,78.103 1649.03,74.571 1649.09,71.224L1649.66,71.224ZM1634.32,83.467C1636.14,83.495 1637.93,83.168 1639.42,82.475C1639.59,82.402 1639.79,82.482 1639.86,82.654C1639.93,82.825 1639.86,83.024 1639.68,83.096C1637.81,83.865 1636.04,84.202 1634.32,84.141L1634.32,83.467ZM1634.32,81.622C1635.47,81.658 1636.58,81.51 1637.53,81.151C1637.71,81.099 1637.9,81.201 1637.95,81.38C1638,81.559 1637.9,81.746 1637.72,81.799C1636.54,82.141 1635.41,82.293 1634.32,82.268L1634.32,81.622ZM1645.89,71.224C1645.81,75.043 1644.02,77.937 1640.85,80.1C1640.61,80.263 1640.5,80.093 1640.66,79.927C1643.29,78.127 1645.31,74.302 1645.24,71.224L1645.89,71.224ZM1643.15,71.856C1643.17,71.671 1643.34,71.537 1643.52,71.557C1643.71,71.577 1643.84,71.744 1643.82,71.929C1643.47,75.273 1641.62,77.631 1638.58,79.1C1638.25,79.192 1638.14,79.001 1638.41,78.847C1640.77,77.725 1643.11,74.681 1643.15,71.856Z" style="fill:#733c52;stroke:#000;stroke-width:0.01px;stroke-linejoin:bevel;stroke-miterlimit:2;"/>
        </g>
    </g>
</svg>
