<?xml version="1.0" encoding="UTF-8" standalone="no"?>
<!DOCTYPE svg PUBLIC "-//W3C//DTD SVG 1.1//EN" "http://www.w3.org/Graphics/SVG/1.1/DTD/svg11.dtd">
<svg width="100%" height="100%" viewBox="0 0 1701 2481" version="1.1" xmlns="http://www.w3.org/2000/svg" xmlns:xlink="http://www.w3.org/1999/xlink" xml:space="preserve" xmlns:serif="http://www.serif.com/" style="fill-rule:evenodd;clip-rule:evenodd;stroke-linecap:round;stroke-linejoin:round;stroke-miterlimit:1.5;">
    <rect id="Z2B2" x="0.468" y="0.28" width="1700" height="2480" style="fill:none;"/>
    <g id="Fields" opacity="0.2" sound="Field/12-Claw-Wreath">
        <path id="_4" serif:id="4" d="M1329.5,1364.28L1690.01,1461.81L1690.55,2062.28L1205.01,1584.38C1261.23,1527.73 1303.72,1455.08 1329.5,1364.28Z" style="fill:#84757e;stroke:#767676;stroke-width:8.33px;"/>
    </g>
    <a href="B.svg">
    <g id="S">
        <g id="Ring">
            <path id="Backer" d="M1261.9,1477.28C1131.01,1703.98 840.707,1781.78 614.019,1650.9C387.33,1520.03 309.553,1229.72 440.441,1003.02C571.33,776.317 861.637,698.519 1088.33,829.395C1315.01,960.271 1392.79,1250.58 1261.9,1477.28Z" style="fill:#fff;"/>
            <path d="M1261.9,1477.28C1131.01,1703.98 840.707,1781.78 614.019,1650.9C387.33,1520.03 309.553,1229.72 440.441,1003.02C571.33,776.317 861.637,698.519 1088.33,829.395C1315.01,960.271 1392.79,1250.58 1261.9,1477.28Z" style="fill:none;stroke:#000;stroke-width:8.33px;"/>
            <path d="M1261.9,1477.28L1235.64,1462.12" style="fill:none;stroke:#000;stroke-width:8.33px;"/>
            <path d="M466.699,1018.18L440.441,1003.02" style="fill:none;stroke:#000;stroke-width:8.33px;"/>
            <path d="M629.178,1624.64L614.019,1650.9" style="fill:none;stroke:#000;stroke-width:8.33px;"/>
            <path d="M1088.33,829.395L1073.17,855.652" style="fill:none;stroke:#000;stroke-width:8.33px;"/>
            <path d="M1088.32,1650.88L1073.16,1624.63" style="fill:none;stroke:#000;stroke-width:8.33px;"/>
            <path d="M629.188,855.669L614.029,829.412" style="fill:none;stroke:#000;stroke-width:8.33px;"/>
            <path d="M466.669,1462.14L440.412,1477.3" style="fill:none;stroke:#000;stroke-width:8.33px;"/>
            <path d="M1261.93,1003L1235.67,1018.16" style="fill:none;stroke:#000;stroke-width:8.33px;"/>
            <path d="M851.172,1714.44L851.172,1684.12" style="fill:none;stroke:#000;stroke-width:8.33px;"/>
            <path d="M851.172,796.172L851.172,765.853" style="fill:none;stroke:#000;stroke-width:8.33px;"/>
            <path d="M407.205,1240.15L376.885,1240.15" style="fill:none;stroke:#000;stroke-width:8.33px;"/>
            <path d="M1325.46,1240.15L1295.14,1240.15" style="fill:none;stroke:#000;stroke-width:8.33px;"/>
        </g>
        <g id="Root-Markers" serif:id="Root Markers">
            <path id="_8" serif:id="8" d="M532.713,1423.44L601.887,1341.59L638.186,1404.46L532.713,1423.44ZM581.708,1395.15L607.958,1390.43L598.924,1374.78L581.708,1395.15Z" style="fill:#488e61;"/>
        </g>
        <g id="Notes">
            <path id="_11" serif:id="11" sound="Font/3-Mid-B" d="M682.655,873.682C660.666,911.767 611.892,924.836 573.806,902.847C535.719,880.858 522.65,832.085 544.639,794C566.629,755.914 615.403,742.845 653.489,764.834C691.576,786.823 704.645,835.596 682.655,873.682Z" style="fill:#488e61;stroke:#fff;stroke-width:24px;"/>
            <path id="_81" serif:id="8" sound="Font/3-Low-Ab" d="M510.961,1521.57C488.971,1559.66 440.197,1572.73 402.111,1550.74C364.024,1528.75 350.955,1479.98 372.945,1441.89C394.934,1403.8 443.708,1390.74 481.794,1412.72C519.881,1434.71 532.95,1483.49 510.961,1521.57Z" style="fill:#488e61;stroke:#fff;stroke-width:24px;"/>
            <path id="_41" serif:id="4" sound="Font/3-Mid-E" d="M1327.72,1519.68C1305.73,1557.77 1256.96,1570.84 1218.87,1548.85C1180.79,1526.86 1167.72,1478.09 1189.71,1440C1211.69,1401.92 1260.47,1388.85 1298.56,1410.84C1336.64,1432.83 1349.71,1481.6 1327.72,1519.68Z" style="fill:#488e61;stroke:#fff;stroke-width:24px;"/>
        </g>
        <g id="Treble-Marker" serif:id="Treble Marker">
            <g id="_10" serif:id="10" sound="Font/3-High-Bb">
                <path id="_101" serif:id="10" d="M513.791,1049.18C491.801,1087.27 443.028,1100.34 404.941,1078.35C366.854,1056.36 353.785,1007.59 375.775,969.501C397.764,931.415 446.538,918.347 484.625,940.335C522.711,962.324 535.78,1011.1 513.791,1049.18Z" style="fill:#fff;stroke:#fff;stroke-width:33.33px;"/>
                <circle id="_10a" serif:id="10a" cx="444.783" cy="1009.34" r="64" style="fill:#fff;stroke:#488e61;stroke-width:16.67px;"/>
            </g>
        </g>
    </g>
    </a>
    <g id="Songs">
        <g id="song-12-claw-wreath" serif:id="song 12 claw wreath">
            <g id="Z2B21" serif:id="Z2B2" sound="Song/12-Claw-Wreath-Z2B2">
                <path d="M1566.43,1751.27C1547.03,1751.38 1527.62,1743.9 1513.04,1728.91L1487.28,1702.43C1473.92,1688.68 1466.98,1671.05 1466.42,1653.27L1567.09,1653.45L1566.43,1751.27Z" style="fill:#488e61;stroke:#fff;stroke-width:1.67px;"/>
                <path d="M1466.42,1653.27C1465.79,1633.23 1473.25,1613 1488.74,1597.94L1515.23,1572.18C1529.85,1557.97 1548.86,1551.02 1567.77,1551.29L1567.09,1653.45L1466.42,1653.27Z" style="fill:#488e61;stroke:#fff;stroke-width:1.67px;"/>
                <path d="M1467.38,1653.45L1566.38,1653.63" style="fill:none;stroke:#488e61;stroke-width:4.17px;stroke-linecap:butt;"/>
                <path id="q4" d="M1493.44,1652.91C1493.65,1645.43 1495.06,1637.72 1497.56,1629.72C1498.27,1627.94 1499.03,1628.44 1498.9,1629.79C1496.65,1636.98 1495.84,1644.91 1496.27,1652.91L1493.44,1652.91ZM1566.22,1589.83C1548.67,1590.88 1528.99,1600.78 1520.24,1613.96C1519.59,1614.8 1518.39,1614.94 1517.55,1614.3C1516.72,1613.65 1516.57,1612.44 1517.22,1611.61C1530.02,1595.3 1546.56,1588.03 1566.22,1588.13L1566.22,1589.83ZM1503.68,1652.91C1503.77,1643.93 1505.98,1634.83 1510.11,1625.6C1510.78,1624.1 1511.87,1624.56 1511.57,1625.85C1508.06,1633.71 1506.58,1643.36 1507.02,1652.91L1503.68,1652.91ZM1483.2,1652.91C1483.29,1648.08 1483.78,1643.15 1484.67,1638.13C1484.61,1636.48 1486.51,1635.29 1486.09,1637.71C1485.23,1642.6 1484.91,1647.72 1485.1,1652.91L1483.2,1652.91ZM1514.92,1652.91C1514.8,1642.96 1517.97,1633.19 1524.06,1623.68C1525.4,1622.24 1526.46,1622.86 1525.65,1624.38C1520.81,1631.82 1518.06,1642.55 1518.38,1652.91L1514.92,1652.91ZM1566.22,1601.68C1554,1602.43 1540.75,1607.53 1533.27,1616.48C1532.52,1617.22 1531.31,1617.22 1530.57,1616.47C1529.82,1615.72 1529.83,1614.5 1530.58,1613.76C1540.83,1603.53 1552.86,1598.91 1566.22,1599.21L1566.22,1601.68ZM1492.98,1618.54C1492.55,1619.51 1491.42,1619.95 1490.45,1619.53C1489.48,1619.11 1489.03,1617.97 1489.46,1617C1501.42,1589.65 1523.38,1573.35 1552.6,1568.56C1554.15,1567.95 1555.89,1569.36 1553.47,1569.76C1527.79,1573.97 1501.11,1594.37 1492.98,1618.54ZM1507.16,1614.12C1506.61,1615.03 1505.44,1615.32 1504.53,1614.77C1503.63,1614.22 1503.34,1613.04 1503.89,1612.14C1518.31,1589.03 1538.4,1578.84 1564.81,1577.94C1566.72,1578.03 1566.5,1578.91 1565.18,1579.23C1542.56,1580 1517.81,1595.18 1507.16,1614.12Z" style="fill:#e7e7e7;stroke:#000;stroke-width:0.04px;stroke-linejoin:bevel;stroke-miterlimit:2;"/>
                <path id="q3" d="M1566.22,1736.51C1554.68,1735.98 1543.09,1732.83 1531.66,1727.16C1530.05,1726.75 1529.45,1724.59 1531.65,1725.67C1541.85,1730.74 1554.02,1733.39 1566.22,1733.54L1566.22,1736.51ZM1485.1,1652.91C1485.91,1674.93 1495.85,1698.25 1512.13,1710.93C1512.91,1711.65 1512.95,1712.87 1512.23,1713.64C1511.51,1714.42 1510.3,1714.46 1509.52,1713.74C1491.42,1696.91 1482.74,1676.11 1483.2,1652.91L1485.1,1652.91ZM1566.22,1726.13C1552.78,1725.66 1539.95,1720.92 1527.23,1712.41C1525.73,1711.22 1526.42,1710.64 1527.67,1711.14C1538.42,1718.33 1552.47,1722.1 1566.22,1722.31L1566.22,1726.13ZM1518.38,1652.91C1518.6,1659.88 1520.21,1666.68 1523.51,1672.22C1523.96,1673.17 1523.55,1674.31 1522.6,1674.76C1521.65,1675.22 1520.51,1674.81 1520.05,1673.86C1516.67,1666.81 1515,1659.82 1514.92,1652.91L1518.38,1652.91ZM1507.02,1652.91C1507.55,1664.46 1510.89,1675.86 1516.83,1683.68C1517.4,1684.57 1517.14,1685.76 1516.25,1686.33C1515.36,1686.9 1514.18,1686.64 1513.61,1685.76C1506.74,1675.01 1503.57,1664.06 1503.68,1652.91L1507.02,1652.91ZM1496.27,1652.91C1497.15,1668.94 1503.08,1685.19 1512.66,1696.08C1513.33,1696.9 1513.21,1698.1 1512.39,1698.77C1511.58,1699.45 1510.37,1699.33 1509.7,1698.51C1498.06,1684.01 1492.98,1669 1493.44,1652.91L1496.27,1652.91ZM1566.22,1715.51C1551.91,1715.18 1538.85,1709.48 1526.82,1699.21C1525.57,1698.14 1526.33,1697.23 1527.48,1697.88C1537.31,1706.28 1552.34,1711.41 1566.22,1711.85L1566.22,1715.51ZM1566.22,1704.03C1551.66,1703.77 1539.25,1697.18 1528.92,1685.28C1527.92,1683.59 1528.81,1682.75 1530.05,1683.95C1537.89,1693.13 1552.64,1700.31 1566.22,1700.54L1566.22,1704.03Z" style="fill:#e7e7e7;stroke:#000;stroke-width:0.06px;stroke-linejoin:bevel;stroke-miterlimit:2;"/>
            </g>
            <g id="B" sound="Song/12-Claw-Wreath-B">
                <path d="M1567.87,1551.28C1586.78,1551.54 1605.59,1559.02 1619.81,1573.63L1645.57,1600.12C1660.02,1614.99 1666.96,1634.39 1666.44,1653.62L1567.18,1653.44L1567.87,1551.28Z" style="fill:#488e61;stroke:#fff;stroke-width:1.67px;"/>
                <path d="M1666.44,1653.62C1665.94,1672.21 1658.48,1690.63 1644.11,1704.61L1617.62,1730.36C1603.37,1744.22 1584.95,1751.17 1566.52,1751.27L1567.18,1653.44L1666.44,1653.62Z" style="fill:#488e61;stroke:#fff;stroke-width:1.67px;"/>
                <path d="M1567.97,1653.62L1665.57,1653.62" style="fill:none;stroke:#488e61;stroke-width:4.17px;stroke-linecap:butt;"/>
                <path id="q1" d="M1566.22,1588.13C1568.39,1588.14 1570.6,1588.24 1572.85,1588.42C1574.48,1588.57 1574.4,1589.74 1573.09,1589.89C1570.86,1589.7 1568.56,1589.68 1566.22,1589.83L1566.22,1588.13ZM1649.97,1652.91C1650.13,1644.7 1648.96,1636.69 1646.26,1629.47C1645.98,1628.45 1646.58,1627.39 1647.6,1627.11C1648.62,1626.83 1649.68,1627.43 1649.96,1628.45C1652.28,1636.81 1653.35,1644.98 1653.22,1652.91L1649.97,1652.91ZM1638.8,1652.91C1638.9,1649.11 1638.65,1645.4 1638.04,1641.85C1637.9,1640.8 1638.63,1639.84 1639.68,1639.69C1640.72,1639.55 1641.69,1640.28 1641.83,1641.33C1642.34,1645.33 1642.56,1649.18 1642.52,1652.91L1638.8,1652.91ZM1566.22,1599.21C1570.44,1599.31 1574.79,1599.9 1579.27,1600.96C1581.07,1601.74 1580.84,1602.95 1579.13,1602.69C1575.21,1601.73 1570.78,1601.4 1566.22,1601.68L1566.22,1599.21ZM1628.15,1652.91C1628.13,1652 1628.08,1651.11 1628,1650.22C1627.98,1649.17 1628.81,1648.29 1629.87,1648.27C1630.92,1648.25 1631.8,1649.09 1631.82,1650.15C1631.84,1651.08 1631.84,1652 1631.82,1652.91L1628.15,1652.91ZM1570.68,1569.75C1569.62,1569.71 1568.79,1568.82 1568.83,1567.76C1568.87,1566.7 1569.76,1565.87 1570.82,1565.91C1600.65,1567.01 1623.88,1581.45 1639.06,1606.88C1640.18,1608.09 1639.52,1610.23 1638.26,1608.13C1624.92,1585.78 1596.15,1568.45 1570.68,1569.75ZM1579.99,1581.32C1578.95,1581.14 1578.25,1580.15 1578.43,1579.11C1578.61,1578.07 1579.6,1577.37 1580.64,1577.55C1607.43,1582.48 1624.28,1597.44 1634.8,1621.67C1635.42,1623.49 1634.52,1623.6 1633.74,1622.5C1624.73,1601.73 1601.52,1584.28 1579.99,1581.32ZM1584.94,1593.43C1583.93,1593.13 1583.35,1592.07 1583.65,1591.05C1583.95,1590.04 1585.01,1589.46 1586.02,1589.76C1608.09,1596.33 1621.47,1611.29 1628,1633C1628.47,1634.57 1627.35,1634.92 1626.73,1633.76C1621.25,1615.53 1602.48,1597.17 1584.94,1593.43ZM1587.38,1606.47C1586.42,1606.05 1585.98,1604.92 1586.4,1603.95C1586.83,1602.99 1587.96,1602.55 1588.92,1602.97C1606.4,1610.58 1615.97,1624.62 1618.7,1643.57C1618.62,1645.53 1617.42,1645.76 1617.03,1644.08C1615.03,1629.36 1602.58,1611.52 1587.38,1606.47Z" style="fill:#e7e7e7;stroke:#488e61;stroke-width:0.07px;stroke-linejoin:bevel;stroke-miterlimit:2;"/>
                <path id="q2" d="M1642.52,1652.91C1642.28,1674.37 1633.11,1691.5 1616.13,1706.29C1614.59,1707.43 1614.22,1706.6 1615.03,1705.52C1629.27,1693.12 1638.33,1672 1638.8,1652.91L1642.52,1652.91ZM1566.22,1700.54C1569.35,1700.59 1572.42,1700.28 1575.33,1699.53C1576.37,1699.37 1577.35,1700.08 1577.52,1701.12C1577.68,1702.16 1576.97,1703.14 1575.93,1703.31C1572.59,1703.85 1569.35,1704.09 1566.22,1704.03L1566.22,1700.54ZM1566.22,1733.54C1581.89,1733.72 1597.6,1729.74 1609.25,1721.38C1610.16,1720.84 1611.34,1721.14 1611.88,1722.05C1612.42,1722.96 1612.12,1724.14 1611.21,1724.68C1596.6,1733.34 1581.45,1737.21 1566.22,1736.51L1566.22,1733.54ZM1653.22,1652.91C1652.91,1672.26 1645.46,1690.16 1631.53,1705.87C1630.71,1707.31 1628.47,1707.33 1630.09,1705.49C1642.15,1691.9 1649.6,1671.88 1649.97,1652.91L1653.22,1652.91ZM1566.22,1722.31C1576.55,1722.47 1586.7,1720.61 1595.15,1716.68C1596.13,1716.27 1597.25,1716.72 1597.66,1717.7C1598.08,1718.67 1597.62,1719.79 1596.65,1720.21C1586.05,1724.56 1575.97,1726.47 1566.22,1726.13L1566.22,1722.31ZM1566.22,1711.85C1572.77,1712.05 1579.07,1711.22 1584.44,1709.18C1585.45,1708.88 1586.52,1709.46 1586.82,1710.48C1587.11,1711.49 1586.53,1712.55 1585.52,1712.85C1578.84,1714.79 1572.41,1715.65 1566.22,1715.51L1566.22,1711.85ZM1631.82,1652.91C1631.38,1674.56 1621.25,1690.96 1603.29,1703.22C1601.93,1704.15 1601.25,1703.18 1602.17,1702.24C1617.12,1692.04 1628.55,1670.36 1628.15,1652.91L1631.82,1652.91ZM1616.3,1656.49C1616.41,1655.44 1617.35,1654.68 1618.4,1654.8C1619.45,1654.91 1620.21,1655.85 1620.1,1656.9C1618.12,1675.86 1607.63,1689.22 1590.4,1697.55C1588.5,1698.07 1587.92,1696.99 1589.41,1696.12C1602.83,1689.76 1616.08,1672.51 1616.3,1656.49Z" style="fill:#e7e7e7;stroke:#488e61;stroke-width:0.05px;stroke-linejoin:bevel;stroke-miterlimit:2;"/>
            </g>
        </g>
    </g>
    <g id="Map">
        <g id="Frame">
            <rect x="1471.97" y="41.822" width="190" height="190" style="fill:#fff;"/>
            <rect x="1471.97" y="41.822" width="190" height="190" style="fill:none;stroke:#000;stroke-width:1.17px;stroke-linejoin:bevel;"/>
            <rect x="1523.84" y="93.697" width="86.25" height="86.25" style="fill:none;stroke:#000;stroke-width:1.25px;stroke-linejoin:bevel;"/>
            <path d="M1610.09,93.697L1661.97,42.03" style="fill:none;stroke:#000;stroke-width:1.25px;stroke-linejoin:bevel;"/>
            <path d="M1523.84,93.697L1472.38,42.03" style="fill:none;stroke:#000;stroke-width:1.25px;stroke-linejoin:bevel;"/>
            <path d="M1523.84,179.947L1471.97,231.822" style="fill:none;stroke:#000;stroke-width:1.25px;stroke-linejoin:bevel;"/>
            <path d="M1610.09,179.947L1661.97,231.822" style="fill:none;stroke:#000;stroke-width:1.25px;stroke-linejoin:bevel;"/>
        </g>
        <g id="Dots">
            <circle cx="1471.97" cy="231.78" r="1.5" style="stroke:#000;stroke-width:1.25px;stroke-linejoin:bevel;"/>
            <circle cx="1566.66" cy="231.905" r="1.5" style="stroke:#000;stroke-width:1.25px;stroke-linejoin:bevel;"/>
            <circle cx="1661.97" cy="231.78" r="1.5" style="stroke:#000;stroke-width:1.25px;stroke-linejoin:bevel;"/>
            <circle cx="1634.31" cy="203.946" r="1.5" style="stroke:#000;stroke-width:1.25px;stroke-linejoin:bevel;"/>
            <circle cx="1610.09" cy="179.78" r="1.5" style="stroke:#000;stroke-width:1.25px;stroke-linejoin:bevel;"/>
            <circle cx="1609.66" cy="136.905" r="1.5" style="stroke:#000;stroke-width:1.25px;stroke-linejoin:bevel;"/>
            <circle cx="1609.79" cy="93.655" r="1.5" style="stroke:#000;stroke-width:1.25px;stroke-linejoin:bevel;"/>
            <circle cx="1634.23" cy="69.446" r="1.5" style="stroke:#000;stroke-width:1.25px;stroke-linejoin:bevel;"/>
            <circle cx="1566.66" cy="93.655" r="1.5" style="stroke:#000;stroke-width:1.25px;stroke-linejoin:bevel;"/>
            <circle cx="1523.54" cy="93.78" r="1.5" style="stroke:#000;stroke-width:1.25px;stroke-linejoin:bevel;"/>
            <circle cx="1566.97" cy="41.78" r="1.5" style="stroke:#000;stroke-width:1.25px;stroke-linejoin:bevel;"/>
            <circle cx="1471.97" cy="41.822" r="1.5" style="stroke:#000;stroke-width:1.25px;stroke-linejoin:bevel;"/>
            <circle cx="1499.81" cy="69.78" r="1.5" style="stroke:#000;stroke-width:1.25px;stroke-linejoin:bevel;"/>
            <circle cx="1471.97" cy="136.822" r="1.5" style="stroke:#000;stroke-width:1.25px;stroke-linejoin:bevel;"/>
            <circle cx="1523.84" cy="136.822" r="1.5" style="stroke:#000;stroke-width:1.25px;stroke-linejoin:bevel;"/>
            <circle cx="1566.47" cy="179.947" r="1.5" style="stroke:#000;stroke-width:1.25px;stroke-linejoin:bevel;"/>
            <circle cx="1523.81" cy="179.78" r="1.5" style="stroke:#000;stroke-width:1.25px;stroke-linejoin:bevel;"/>
            <circle cx="1499.61" cy="204.28" r="1.5" style="stroke:#000;stroke-width:1.25px;stroke-linejoin:bevel;"/>
            <circle cx="1661.97" cy="136.822" r="1.5" style="stroke:#000;stroke-width:1.25px;stroke-linejoin:bevel;"/>
            <circle cx="1661.96" cy="41.929" r="1.5" style="stroke:#000;stroke-width:1.25px;stroke-linejoin:bevel;"/>
        </g>
        <path d="M1637.72,65.745L1608.75,95.257" style="fill:none;stroke:#488e61;stroke-width:5.83px;"/>
        <path d="M1611.18,89.377C1614.43,90.721 1615.97,94.447 1614.63,97.692C1613.28,100.937 1609.56,102.48 1606.31,101.136C1603.07,99.792 1601.53,96.066 1602.87,92.821C1604.21,89.576 1607.94,88.033 1611.18,89.377Z" style="fill:#fff;stroke:#488e61;stroke-width:5.99px;"/>
        <g id="_12" serif:id="12">
            <circle cx="1634.72" cy="70.03" r="15.75" style="fill:#fff;stroke:#fff;stroke-width:1.46px;"/>
            <path id="q41" serif:id="q4" d="M1621.28,70.517C1621.32,69.197 1621.56,67.837 1622.01,66.426C1622.13,66.112 1622.26,66.201 1622.24,66.438C1621.85,67.706 1621.7,69.106 1621.78,70.517L1621.28,70.517ZM1634.12,59.388C1631.02,59.574 1627.55,61.32 1626.01,63.646C1625.89,63.793 1625.68,63.82 1625.53,63.705C1625.38,63.591 1625.36,63.379 1625.47,63.232C1627.73,60.353 1630.65,59.071 1634.12,59.088L1634.12,59.388ZM1623.08,70.517C1623.1,68.933 1623.49,67.327 1624.22,65.698C1624.34,65.434 1624.53,65.517 1624.48,65.743C1623.86,67.13 1623.6,68.833 1623.67,70.517L1623.08,70.517ZM1619.47,70.517C1619.49,69.666 1619.58,68.796 1619.73,67.911C1619.72,67.618 1620.06,67.409 1619.98,67.835C1619.83,68.698 1619.77,69.601 1619.81,70.517L1619.47,70.517ZM1625.07,70.517C1625.05,68.762 1625.61,67.038 1626.68,65.36C1626.92,65.106 1627.1,65.215 1626.96,65.484C1626.11,66.797 1625.62,68.689 1625.68,70.517L1625.07,70.517ZM1634.12,61.48C1631.96,61.612 1629.62,62.512 1628.31,64.09C1628.17,64.221 1627.96,64.22 1627.83,64.088C1627.7,63.955 1627.7,63.742 1627.83,63.611C1629.64,61.806 1631.76,60.991 1634.12,61.044L1634.12,61.48ZM1621.2,64.454C1621.12,64.625 1620.92,64.704 1620.75,64.629C1620.58,64.554 1620.5,64.354 1620.58,64.182C1622.69,59.358 1626.56,56.482 1631.72,55.636C1631.99,55.53 1632.3,55.777 1631.87,55.848C1627.34,56.591 1622.63,60.191 1621.2,64.454ZM1623.7,63.675C1623.6,63.834 1623.39,63.885 1623.24,63.788C1623.08,63.691 1623.03,63.484 1623.12,63.324C1625.66,59.247 1629.21,57.45 1633.87,57.292C1634.21,57.307 1634.17,57.462 1633.93,57.519C1629.94,57.655 1625.58,60.334 1623.7,63.675Z" style="fill:#733c52;stroke:#000;stroke-width:0.01px;stroke-linejoin:bevel;stroke-miterlimit:2;"/>
            <path id="q31" serif:id="q3" d="M1634.12,85.266C1632.08,85.172 1630.04,84.616 1628.02,83.615C1627.74,83.543 1627.63,83.162 1628.02,83.354C1629.82,84.247 1631.97,84.716 1634.12,84.741L1634.12,85.266ZM1619.81,70.517C1619.95,74.401 1621.7,78.516 1624.58,80.753C1624.71,80.88 1624.72,81.094 1624.59,81.232C1624.47,81.368 1624.25,81.376 1624.12,81.249C1620.92,78.279 1619.39,74.61 1619.47,70.517L1619.81,70.517ZM1634.12,83.434C1631.75,83.352 1629.48,82.515 1627.24,81.014C1626.97,80.805 1627.1,80.702 1627.32,80.791C1629.21,82.058 1631.69,82.724 1634.12,82.76L1634.12,83.434ZM1625.68,70.517C1625.72,71.747 1626,72.947 1626.58,73.923C1626.66,74.091 1626.59,74.293 1626.42,74.373C1626.25,74.453 1626.05,74.381 1625.97,74.213C1625.38,72.97 1625.08,71.736 1625.07,70.517L1625.68,70.517ZM1623.67,70.517C1623.77,72.556 1624.36,74.565 1625.4,75.947C1625.5,76.103 1625.46,76.312 1625.3,76.413C1625.15,76.514 1624.94,76.468 1624.84,76.312C1623.62,74.416 1623.06,72.484 1623.08,70.517L1623.67,70.517ZM1621.78,70.517C1621.93,73.345 1622.98,76.213 1624.67,78.133C1624.79,78.277 1624.77,78.49 1624.62,78.608C1624.48,78.727 1624.26,78.706 1624.15,78.562C1622.09,76.003 1621.2,73.355 1621.28,70.517L1621.78,70.517ZM1634.12,81.561C1631.59,81.504 1629.29,80.497 1627.17,78.685C1626.95,78.496 1627.08,78.337 1627.28,78.451C1629.02,79.932 1631.67,80.838 1634.12,80.915L1634.12,81.561ZM1634.12,79.536C1631.55,79.489 1629.36,78.326 1627.54,76.229C1627.36,75.931 1627.52,75.781 1627.74,75.994C1629.12,77.612 1631.72,78.879 1634.12,78.92L1634.12,79.536Z" style="fill:#733c52;stroke:#000;stroke-width:0.01px;stroke-linejoin:bevel;stroke-miterlimit:2;"/>
            <path id="q11" serif:id="q1" d="M1634.12,59.088C1634.5,59.09 1634.89,59.108 1635.29,59.141C1635.58,59.166 1635.56,59.373 1635.33,59.399C1634.94,59.366 1634.53,59.363 1634.12,59.388L1634.12,59.088ZM1648.89,70.517C1648.92,69.069 1648.71,67.655 1648.24,66.383C1648.19,66.203 1648.29,66.016 1648.48,65.966C1648.65,65.916 1648.84,66.022 1648.89,66.202C1649.3,67.677 1649.49,69.118 1649.47,70.517L1648.89,70.517ZM1646.92,70.517C1646.94,69.847 1646.89,69.192 1646.79,68.566C1646.76,68.381 1646.89,68.211 1647.08,68.186C1647.26,68.16 1647.43,68.289 1647.46,68.474C1647.55,69.179 1647.59,69.859 1647.58,70.517L1646.92,70.517ZM1634.12,61.044C1634.86,61.061 1635.63,61.165 1636.42,61.352C1636.74,61.491 1636.7,61.704 1636.39,61.658C1635.7,61.489 1634.92,61.431 1634.12,61.48L1634.12,61.044ZM1645.04,70.517C1645.04,70.357 1645.03,70.199 1645.02,70.043C1645.01,69.857 1645.16,69.703 1645.35,69.699C1645.53,69.695 1645.69,69.843 1645.69,70.03C1645.69,70.194 1645.69,70.356 1645.69,70.517L1645.04,70.517ZM1634.9,55.846C1634.72,55.839 1634.57,55.682 1634.58,55.495C1634.59,55.308 1634.74,55.162 1634.93,55.169C1640.19,55.363 1644.29,57.911 1646.97,62.396C1647.17,62.61 1647.05,62.988 1646.83,62.617C1644.47,58.675 1639.4,55.617 1634.9,55.846ZM1636.55,57.888C1636.36,57.857 1636.24,57.682 1636.27,57.498C1636.3,57.314 1636.48,57.191 1636.66,57.222C1641.39,58.092 1644.36,60.731 1646.22,65.006C1646.33,65.326 1646.17,65.346 1646.03,65.152C1644.44,61.489 1640.35,58.41 1636.55,57.888ZM1637.42,60.024C1637.24,59.971 1637.14,59.783 1637.19,59.605C1637.25,59.426 1637.43,59.324 1637.61,59.376C1641.51,60.536 1643.87,63.175 1645.02,67.004C1645.1,67.282 1644.9,67.344 1644.79,67.139C1643.83,63.923 1640.52,60.683 1637.42,60.024ZM1637.85,62.325C1637.68,62.25 1637.6,62.051 1637.68,61.881C1637.75,61.71 1637.95,61.633 1638.12,61.708C1641.2,63.05 1642.89,65.527 1643.38,68.869C1643.36,69.215 1643.15,69.256 1643.08,68.959C1642.73,66.363 1640.53,63.215 1637.85,62.325Z" style="fill:#733c52;stroke:#000;stroke-width:0.01px;stroke-linejoin:bevel;stroke-miterlimit:2;"/>
            <path id="q21" serif:id="q2" d="M1647.58,70.517C1647.54,74.303 1645.92,77.325 1642.92,79.934C1642.65,80.135 1642.59,79.989 1642.73,79.799C1645.24,77.611 1646.84,73.885 1646.92,70.517L1647.58,70.517ZM1634.12,78.92C1634.67,78.929 1635.21,78.874 1635.72,78.742C1635.91,78.713 1636.08,78.838 1636.11,79.022C1636.14,79.206 1636.01,79.379 1635.83,79.408C1635.24,79.504 1634.67,79.546 1634.12,79.536L1634.12,78.92ZM1634.12,84.741C1636.88,84.773 1639.65,84.072 1641.71,82.596C1641.87,82.501 1642.08,82.554 1642.17,82.715C1642.27,82.876 1642.22,83.083 1642.05,83.179C1639.48,84.706 1636.8,85.389 1634.12,85.266L1634.12,84.741ZM1649.47,70.517C1649.41,73.93 1648.1,77.088 1645.64,79.86C1645.49,80.115 1645.1,80.117 1645.39,79.793C1647.51,77.396 1648.83,73.864 1648.89,70.517L1649.47,70.517ZM1634.12,82.76C1635.94,82.788 1637.73,82.461 1639.22,81.768C1639.39,81.695 1639.59,81.775 1639.66,81.947C1639.74,82.118 1639.66,82.317 1639.49,82.389C1637.62,83.158 1635.84,83.494 1634.12,83.434L1634.12,82.76ZM1634.12,80.915C1635.27,80.951 1636.38,80.803 1637.33,80.444C1637.51,80.392 1637.7,80.494 1637.75,80.673C1637.8,80.852 1637.7,81.039 1637.52,81.092C1636.34,81.434 1635.21,81.586 1634.12,81.561L1634.12,80.915ZM1645.69,70.517C1645.61,74.336 1643.83,77.23 1640.66,79.393C1640.42,79.556 1640.3,79.386 1640.46,79.22C1643.1,77.42 1645.11,73.595 1645.04,70.517L1645.69,70.517ZM1642.95,71.149C1642.97,70.964 1643.14,70.83 1643.32,70.85C1643.51,70.87 1643.64,71.037 1643.62,71.222C1643.27,74.566 1641.42,76.924 1638.38,78.393C1638.05,78.485 1637.95,78.294 1638.21,78.14C1640.58,77.018 1642.91,73.974 1642.95,71.149Z" style="fill:#733c52;stroke:#000;stroke-width:0.01px;stroke-linejoin:bevel;stroke-miterlimit:2;"/>
        </g>
    </g>
</svg>
