<?xml version="1.0" encoding="UTF-8" standalone="no"?>
<!DOCTYPE svg PUBLIC "-//W3C//DTD SVG 1.1//EN" "http://www.w3.org/Graphics/SVG/1.1/DTD/svg11.dtd">
<svg width="100%" height="100%" viewBox="0 0 1700 2481" version="1.1" xmlns="http://www.w3.org/2000/svg" xmlns:xlink="http://www.w3.org/1999/xlink" xml:space="preserve" xmlns:serif="http://www.serif.com/" style="fill-rule:evenodd;clip-rule:evenodd;stroke-linecap:round;stroke-linejoin:round;stroke-miterlimit:1.5;">
    <rect id="Z2W" x="0" y="0.829" width="1700" height="2480" style="fill:none;"/>
    <g id="Fields" opacity="0.2" sound="Field/04-Petals" autoplay="true">
        <path id="_11" serif:id="11" d="M496.488,895.416L10.379,417.205L10.379,10.829L517.393,10.734L722.022,763.47C635.493,787.328 560.817,829.666 496.488,895.416Z" style="fill:#db9d84;stroke:#767676;stroke-width:8.33px;"/>
    </g>
    <a href="Z2W2.svg">
    <g id="S">
        <g id="Ring">
            <path id="Backer" d="M1261.43,1477.83C1130.55,1704.53 840.239,1782.33 613.55,1651.45C386.862,1520.58 309.085,1230.27 439.973,1003.57C570.862,776.866 861.169,699.068 1087.86,829.944C1314.55,960.82 1392.32,1251.13 1261.43,1477.83Z" style="fill:#fff;"/>
            <path d="M1261.43,1477.83C1130.55,1704.53 840.239,1782.33 613.55,1651.45C386.862,1520.58 309.085,1230.27 439.973,1003.57C570.862,776.866 861.169,699.068 1087.86,829.944C1314.55,960.82 1392.32,1251.13 1261.43,1477.83Z" style="fill:none;stroke:#000;stroke-width:8.33px;"/>
            <path d="M1261.43,1477.83L1235.18,1462.67" style="fill:none;stroke:#000;stroke-width:8.33px;"/>
            <path d="M466.231,1018.73L439.973,1003.57" style="fill:none;stroke:#000;stroke-width:8.33px;"/>
            <path d="M628.71,1625.19L613.55,1651.45" style="fill:none;stroke:#000;stroke-width:8.33px;"/>
            <path d="M1087.86,829.944L1072.7,856.201" style="fill:none;stroke:#000;stroke-width:8.33px;"/>
            <path d="M1087.85,1651.43L1072.69,1625.18" style="fill:none;stroke:#000;stroke-width:8.33px;"/>
            <path d="M628.72,856.218L613.56,829.961" style="fill:none;stroke:#000;stroke-width:8.33px;"/>
            <path d="M466.201,1462.69L439.944,1477.85" style="fill:none;stroke:#000;stroke-width:8.33px;"/>
            <path d="M1261.46,1003.55L1235.21,1018.71" style="fill:none;stroke:#000;stroke-width:8.33px;"/>
            <path d="M850.704,1714.99L850.704,1684.67" style="fill:none;stroke:#000;stroke-width:8.33px;"/>
            <path d="M850.704,796.721L850.704,766.402" style="fill:none;stroke:#000;stroke-width:8.33px;"/>
            <path d="M406.736,1240.7L376.417,1240.7" style="fill:none;stroke:#000;stroke-width:8.33px;"/>
            <path d="M1324.99,1240.7L1294.67,1240.7" style="fill:none;stroke:#000;stroke-width:8.33px;"/>
        </g>
        <g id="Root-Markers" serif:id="Root Markers">
            <path id="_6" serif:id="6" d="M851.354,1608.44L815.055,1507.61L887.654,1507.61L851.354,1608.44ZM851.354,1551.87L860.389,1526.77L842.32,1526.77L851.354,1551.87Z" style="fill:#e3a77c;"/>
        </g>
        <g id="Notes">
            <path id="_10" serif:id="10" sound="Font/1-Mid-Bb" d="M513.323,1049.73C491.333,1087.82 442.559,1100.89 404.473,1078.9C366.386,1056.91 353.317,1008.14 375.307,970.05C397.296,931.965 446.07,918.896 484.156,940.885C522.243,962.874 535.312,1011.65 513.323,1049.73Z" style="fill:#e3a77c;stroke:#fff;stroke-width:24px;"/>
            <path id="_2" serif:id="2" sound="Font/1-Mid-D" d="M1327.24,1049.74C1305.25,1087.83 1256.48,1100.9 1218.39,1078.91C1180.3,1056.92 1167.23,1008.14 1189.22,970.059C1211.21,931.974 1259.99,918.905 1298.07,940.894C1336.16,962.883 1349.23,1011.66 1327.24,1049.74Z" style="fill:#e3a77c;stroke:#fff;stroke-width:24px;"/>
            <path id="_1" serif:id="1" sound="Font/1-Mid-Db" d="M1153.64,879.938C1131.65,918.024 1082.87,931.093 1044.79,909.104C1006.7,887.115 993.632,838.342 1015.62,800.256C1037.61,762.171 1086.38,749.102 1124.47,771.091C1162.56,793.08 1175.63,841.853 1153.64,879.938Z" style="fill:#e3a77c;stroke:#fff;stroke-width:24px;"/>
        </g>
        <g id="Treble-Marker" serif:id="Treble Marker">
            <g id="_61" serif:id="6" sound="Font/1-Low-Gb,Font/1-High-Gb">
                <path id="_62" serif:id="6" d="M919.712,1757.17C897.722,1795.26 848.949,1808.33 810.862,1786.34C772.775,1764.35 759.707,1715.58 781.696,1677.49C803.685,1639.4 852.459,1626.34 890.546,1648.32C928.632,1670.31 941.701,1719.09 919.712,1757.17Z" style="fill:#fff;stroke:#fff;stroke-width:33.33px;"/>
                <circle id="_6a" serif:id="6a" cx="850" cy="1717.33" r="64" style="fill:#fff;stroke:#e3a77c;stroke-width:16.67px;"/>
            </g>
        </g>
    </g>
    </a>
    <g id="Songs">
        <g id="song-4-petals" serif:id="song 4 petals">
            <g id="Z2W2" sound="Song/04-Petals-Z2W2">
                <path d="M260.046,320.823C240.649,320.928 221.237,313.452 206.66,298.462L180.903,271.975C167.536,258.23 160.598,240.597 160.037,222.817L260.705,222.998L260.046,320.823Z" style="fill:#f5cd6c;stroke:#fff;stroke-width:1.67px;"/>
                <path d="M160.037,222.817C159.405,202.779 166.871,182.553 182.362,167.489L208.849,141.732C223.467,127.517 242.481,120.572 261.394,120.836L260.705,222.998L160.037,222.817Z" style="fill:#f5cd6c;stroke:#fff;stroke-width:1.67px;"/>
                <path d="M161,222.998L260,223.176" style="fill:none;stroke:#f5cd6c;stroke-width:4.17px;stroke-linecap:butt;"/>
                <g id="q4">
                    <path d="M216.575,243.677C226.428,241.037 239.986,234.019 238.626,228.942C237.265,223.866 222.015,224.566 212.162,227.206C191.573,232.723 173.174,246.48 173.174,246.48L173.175,246.48L173.174,246.48C173.174,246.48 195.986,249.194 216.575,243.677Z" style="fill:#e7e7e7;fill-rule:nonzero;"/>
                    <path d="M232.653,262.698C239.866,255.485 248.098,242.628 244.382,238.912C240.666,235.196 227.808,243.428 220.596,250.641C205.523,265.713 196.469,286.826 196.469,286.826L196.468,286.825L196.469,286.826C196.469,286.826 217.581,277.77 232.653,262.698Z" style="fill:#e7e7e7;fill-rule:nonzero;"/>
                    <path d="M254.352,244.668L254.351,244.668C249.275,243.308 242.257,256.865 239.617,266.719C234.1,287.308 236.814,310.119 236.814,310.119L236.815,310.119C236.815,310.119 250.571,291.721 256.087,271.132C258.728,261.279 259.428,246.029 254.352,244.668Z" style="fill:#e7e7e7;fill-rule:nonzero;"/>
                </g>
                <g id="q1">
                    <path d="M236.814,136.253C236.814,136.253 234.1,159.064 239.617,179.653C242.257,189.507 249.275,203.064 254.352,201.704L254.352,201.704C259.428,200.343 258.728,185.094 256.088,175.24C250.571,154.651 236.815,136.253 236.815,136.253L236.814,136.253Z" style="fill:#e7e7e7;fill-rule:nonzero;"/>
                    <path d="M220.595,195.731C227.809,202.944 240.665,211.176 244.382,207.46L244.382,207.46C248.098,203.744 239.866,190.887 232.653,183.674C217.581,168.601 196.469,159.546 196.469,159.546L196.468,159.546C196.468,159.546 205.523,180.659 220.595,195.731Z" style="fill:#e7e7e7;fill-rule:nonzero;"/>
                    <path d="M212.162,219.165C222.015,221.806 237.265,222.506 238.626,217.43C239.986,212.353 226.429,205.335 216.575,202.695C195.986,197.178 173.175,199.892 173.175,199.892C173.175,199.892 191.573,213.649 212.162,219.165Z" style="fill:#e7e7e7;fill-rule:nonzero;"/>
                </g>
            </g>
            <g id="Z2W1" serif:id="Z2W" sound="Song/04-Petals-Z2W" autoplay="true">
                <path d="M260.767,120.842C279.68,121.106 298.493,128.579 312.708,143.197L338.465,169.684C352.92,184.547 359.857,203.956 359.342,223.182L260.078,223.004L260.767,120.842Z" style="fill:#e3a77c;stroke:#fff;stroke-width:1.67px;"/>
                <path d="M359.342,223.182C358.844,241.773 351.379,260.193 337.006,274.17L310.52,299.927C296.274,313.781 277.853,320.729 259.419,320.829L260.078,223.004L359.342,223.182Z" style="fill:#e3a77c;stroke:#fff;stroke-width:1.67px;"/>
                <path d="M260.873,223.182L358.473,223.182" style="fill:none;stroke:#e3a77c;stroke-width:4.17px;stroke-linecap:butt;"/>
                <g id="q3">
                    <path d="M265.865,244.668L265.864,244.668C260.788,246.029 261.488,261.279 264.128,271.132C269.645,291.721 283.401,310.12 283.401,310.12L283.401,310.119L283.402,310.119C283.402,310.119 286.116,287.308 280.599,266.719C277.959,256.865 270.94,243.308 265.865,244.668Z" style="fill:#e7e7e7;fill-rule:nonzero;"/>
                    <path d="M299.62,250.641C292.407,243.428 279.55,235.196 275.834,238.912L275.834,238.912C272.118,242.628 280.35,255.485 287.563,262.698C302.635,277.771 323.747,286.826 323.747,286.826L323.748,286.825C323.748,286.825 314.693,265.713 299.62,250.641Z" style="fill:#e7e7e7;fill-rule:nonzero;"/>
                    <path d="M308.054,227.206C298.2,224.566 282.951,223.866 281.59,228.942C280.23,234.019 293.787,241.037 303.641,243.677C324.23,249.194 347.041,246.48 347.041,246.48L347.041,246.479L347.041,246.48C347.041,246.48 328.643,232.724 308.054,227.206Z" style="fill:#e7e7e7;fill-rule:nonzero;"/>
                </g>
                <g id="q2">
                    <path d="M347.041,199.893C347.041,199.893 324.23,197.178 303.641,202.695C293.788,205.335 280.23,212.353 281.59,217.43C282.951,222.507 298.201,221.806 308.054,219.166C328.643,213.649 347.041,199.893 347.041,199.893Z" style="fill:#e7e7e7;fill-rule:nonzero;"/>
                    <path d="M287.563,183.674C280.35,190.887 272.118,203.743 275.834,207.46C279.551,211.176 292.407,202.944 299.62,195.731C314.693,180.659 323.748,159.547 323.748,159.547C323.748,159.547 302.635,168.601 287.563,183.674Z" style="fill:#e7e7e7;fill-rule:nonzero;"/>
                    <path d="M265.864,201.704L265.864,201.704C270.941,203.064 277.959,189.507 280.599,179.653C286.116,159.064 283.402,136.253 283.402,136.253L283.401,136.253C283.401,136.253 269.645,154.651 264.128,175.24C261.488,185.094 260.787,200.343 265.864,201.704Z" style="fill:#e7e7e7;fill-rule:nonzero;"/>
                </g>
            </g>
        </g>
    </g>
    <g id="Map" sound="Map/Z2W" loop="false" autoplay="true">
        <g id="Frame">
            <rect x="1471.5" y="42.371" width="190" height="190" style="fill:#fff;"/>
            <rect x="1471.5" y="42.371" width="190" height="190" style="fill:none;stroke:#000;stroke-width:1.17px;stroke-linejoin:bevel;"/>
            <rect x="1523.38" y="94.246" width="86.25" height="86.25" style="fill:none;stroke:#000;stroke-width:1.25px;stroke-linejoin:bevel;"/>
            <path d="M1609.62,94.246L1661.5,42.579" style="fill:none;stroke:#000;stroke-width:1.25px;stroke-linejoin:bevel;"/>
            <path d="M1523.38,94.246L1471.92,42.579" style="fill:none;stroke:#000;stroke-width:1.25px;stroke-linejoin:bevel;"/>
            <path d="M1523.38,180.496L1471.5,232.371" style="fill:none;stroke:#000;stroke-width:1.25px;stroke-linejoin:bevel;"/>
            <path d="M1609.62,180.496L1661.5,232.371" style="fill:none;stroke:#000;stroke-width:1.25px;stroke-linejoin:bevel;"/>
        </g>
        <g id="Dots">
            <circle cx="1471.5" cy="232.329" r="1.5" style="stroke:#000;stroke-width:1.25px;stroke-linejoin:bevel;"/>
            <circle cx="1566.2" cy="232.454" r="1.5" style="stroke:#000;stroke-width:1.25px;stroke-linejoin:bevel;"/>
            <circle cx="1661.5" cy="232.329" r="1.5" style="stroke:#000;stroke-width:1.25px;stroke-linejoin:bevel;"/>
            <circle cx="1633.85" cy="204.496" r="1.5" style="stroke:#000;stroke-width:1.25px;stroke-linejoin:bevel;"/>
            <circle cx="1609.62" cy="180.329" r="1.5" style="stroke:#000;stroke-width:1.25px;stroke-linejoin:bevel;"/>
            <circle cx="1609.2" cy="137.454" r="1.5" style="stroke:#000;stroke-width:1.25px;stroke-linejoin:bevel;"/>
            <circle cx="1609.32" cy="94.204" r="1.5" style="stroke:#000;stroke-width:1.25px;stroke-linejoin:bevel;"/>
            <circle cx="1633.76" cy="69.996" r="1.5" style="stroke:#000;stroke-width:1.25px;stroke-linejoin:bevel;"/>
            <circle cx="1566.2" cy="94.204" r="1.5" style="stroke:#000;stroke-width:1.25px;stroke-linejoin:bevel;"/>
            <circle cx="1523.07" cy="94.329" r="1.5" style="stroke:#000;stroke-width:1.25px;stroke-linejoin:bevel;"/>
            <circle cx="1566.5" cy="42.329" r="1.5" style="stroke:#000;stroke-width:1.25px;stroke-linejoin:bevel;"/>
            <circle cx="1471.5" cy="42.371" r="1.5" style="stroke:#000;stroke-width:1.25px;stroke-linejoin:bevel;"/>
            <circle cx="1499.35" cy="70.329" r="1.5" style="stroke:#000;stroke-width:1.25px;stroke-linejoin:bevel;"/>
            <circle cx="1471.5" cy="137.371" r="1.5" style="stroke:#000;stroke-width:1.25px;stroke-linejoin:bevel;"/>
            <circle cx="1523.38" cy="137.371" r="1.5" style="stroke:#000;stroke-width:1.25px;stroke-linejoin:bevel;"/>
            <circle cx="1566" cy="180.496" r="1.5" style="stroke:#000;stroke-width:1.25px;stroke-linejoin:bevel;"/>
            <circle cx="1523.35" cy="180.329" r="1.5" style="stroke:#000;stroke-width:1.25px;stroke-linejoin:bevel;"/>
            <circle cx="1499.15" cy="204.829" r="1.5" style="stroke:#000;stroke-width:1.25px;stroke-linejoin:bevel;"/>
            <circle cx="1661.5" cy="137.371" r="1.5" style="stroke:#000;stroke-width:1.25px;stroke-linejoin:bevel;"/>
            <circle cx="1661.49" cy="42.479" r="1.5" style="stroke:#000;stroke-width:1.25px;stroke-linejoin:bevel;"/>
        </g>
        <g>
            <path d="M1661.5,137.954L1661.5,232.329" style="fill:none;stroke:#f5cd6c;stroke-width:5.99px;"/>
            <path d="M1661.5,41.954L1661.5,136.329" style="fill:none;stroke:#c05c9b;stroke-width:5.99px;"/>
        </g>
        <g id="_4" serif:id="4">
            <circle cx="1661.5" cy="136.829" r="15.75" style="fill:#fff;stroke:#fff;stroke-width:1.46px;"/>
            <g id="_41" serif:id="4">
                <g id="q41" serif:id="q4">
                    <path d="M1655.38,140.489C1656.88,140.087 1658.94,139.019 1658.73,138.247C1658.52,137.474 1656.2,137.581 1654.7,137.983C1651.57,138.822 1648.77,140.915 1648.77,140.915L1648.77,140.915L1648.77,140.915C1648.77,140.915 1652.24,141.328 1655.38,140.489Z" style="fill:#733c52;fill-rule:nonzero;"/>
                    <path d="M1657.82,143.383C1658.92,142.285 1660.17,140.329 1659.61,139.764C1659.04,139.198 1657.09,140.451 1655.99,141.548C1653.69,143.842 1652.32,147.054 1652.32,147.054L1652.32,147.054L1652.32,147.054C1652.32,147.054 1655.53,145.676 1657.82,143.383Z" style="fill:#733c52;fill-rule:nonzero;"/>
                    <path d="M1661.12,140.64L1661.12,140.64C1660.35,140.433 1659.28,142.496 1658.88,143.995C1658.04,147.128 1658.46,150.599 1658.46,150.599L1658.46,150.599C1658.46,150.599 1660.55,147.799 1661.39,144.666C1661.79,143.167 1661.9,140.847 1661.12,140.64Z" style="fill:#733c52;fill-rule:nonzero;"/>
                </g>
                <g id="q11" serif:id="q1">
                    <path d="M1658.46,124.143C1658.46,124.143 1658.04,127.614 1658.88,130.747C1659.28,132.246 1660.35,134.309 1661.12,134.102L1661.12,134.102C1661.9,133.895 1661.79,131.575 1661.39,130.075C1660.55,126.942 1658.46,124.143 1658.46,124.143L1658.46,124.143Z" style="fill:#733c52;fill-rule:nonzero;"/>
                    <path d="M1655.99,133.193C1657.09,134.291 1659.04,135.543 1659.61,134.978L1659.61,134.978C1660.17,134.412 1658.92,132.456 1657.82,131.359C1655.53,129.065 1652.32,127.687 1652.32,127.687L1652.32,127.687C1652.32,127.687 1653.69,130.9 1655.99,133.193Z" style="fill:#733c52;fill-rule:nonzero;"/>
                    <path d="M1654.7,136.759C1656.2,137.161 1658.52,137.267 1658.73,136.495C1658.94,135.723 1656.88,134.655 1655.38,134.253C1652.24,133.413 1648.77,133.826 1648.77,133.826C1648.77,133.826 1651.57,135.92 1654.7,136.759Z" style="fill:#733c52;fill-rule:nonzero;"/>
                </g>
                <g id="q31" serif:id="q3">
                    <path d="M1662.88,140.64L1662.88,140.64C1662.1,140.847 1662.21,143.167 1662.61,144.666C1663.45,147.799 1665.54,150.599 1665.54,150.599L1665.54,150.599L1665.54,150.599C1665.54,150.599 1665.96,147.128 1665.12,143.995C1664.72,142.496 1663.65,140.433 1662.88,140.64Z" style="fill:#733c52;fill-rule:nonzero;"/>
                    <path d="M1668.01,141.548C1666.91,140.451 1664.96,139.198 1664.39,139.764L1664.39,139.764C1663.83,140.329 1665.08,142.286 1666.18,143.383C1668.47,145.676 1671.68,147.054 1671.68,147.054L1671.68,147.054C1671.68,147.054 1670.31,143.842 1668.01,141.548Z" style="fill:#733c52;fill-rule:nonzero;"/>
                    <path d="M1669.3,137.983C1667.8,137.581 1665.48,137.474 1665.27,138.247C1665.06,139.019 1667.12,140.087 1668.62,140.489C1671.76,141.328 1675.23,140.915 1675.23,140.915L1675.23,140.915L1675.23,140.915C1675.23,140.915 1672.43,138.822 1669.3,137.983Z" style="fill:#733c52;fill-rule:nonzero;"/>
                </g>
                <g id="q21" serif:id="q2">
                    <path d="M1675.23,133.827C1675.23,133.827 1671.76,133.413 1668.62,134.253C1667.12,134.655 1665.06,135.723 1665.27,136.495C1665.48,137.267 1667.8,137.161 1669.3,136.759C1672.43,135.92 1675.23,133.827 1675.23,133.827Z" style="fill:#733c52;fill-rule:nonzero;"/>
                    <path d="M1666.18,131.359C1665.08,132.456 1663.83,134.412 1664.39,134.978C1664.96,135.543 1666.91,134.291 1668.01,133.193C1670.31,130.9 1671.68,127.687 1671.68,127.687C1671.68,127.687 1668.47,129.065 1666.18,131.359Z" style="fill:#733c52;fill-rule:nonzero;"/>
                    <path d="M1662.88,134.102L1662.88,134.102C1663.65,134.309 1664.72,132.246 1665.12,130.747C1665.96,127.614 1665.54,124.143 1665.54,124.143L1665.54,124.143C1665.54,124.143 1663.45,126.942 1662.61,130.075C1662.21,131.575 1662.1,133.895 1662.88,134.102Z" style="fill:#733c52;fill-rule:nonzero;"/>
                </g>
            </g>
        </g>
    </g>
</svg>
