<?xml version="1.0" encoding="UTF-8" standalone="no"?>
<!DOCTYPE svg PUBLIC "-//W3C//DTD SVG 1.1//EN" "http://www.w3.org/Graphics/SVG/1.1/DTD/svg11.dtd">
<svg width="100%" height="100%" viewBox="0 0 1700 2481" version="1.1" xmlns="http://www.w3.org/2000/svg" xmlns:xlink="http://www.w3.org/1999/xlink" xml:space="preserve" xmlns:serif="http://www.serif.com/" style="fill-rule:evenodd;clip-rule:evenodd;stroke-linecap:round;stroke-linejoin:round;stroke-miterlimit:1.5;">
    <rect id="Z2Y2" x="0" y="0.829" width="1700" height="2480" style="fill:none;"/>
    <g id="Fields" opacity="0.2" sound="Field/03-Arrows">
        <path id="_7" serif:id="7" d="M497.488,1586.73L10.379,2060.95L10.379,2470.32L514.393,2470.42L717.022,1716.68C630.922,1692.33 562.286,1651.95 497.488,1586.73Z" style="fill:#a18e87;stroke:#767676;stroke-width:8.33px;"/>
    </g>
    <a href="Y.svg">
    <g id="S">
        <g id="Ring">
            <path id="Backer" d="M1261.43,1477.83C1130.55,1704.53 840.239,1782.33 613.55,1651.45C386.862,1520.58 309.085,1230.27 439.973,1003.57C570.862,776.866 861.169,699.068 1087.86,829.944C1314.55,960.82 1392.32,1251.13 1261.43,1477.83Z" style="fill:#fff;"/>
            <path d="M1261.43,1477.83C1130.55,1704.53 840.239,1782.33 613.55,1651.45C386.862,1520.58 309.085,1230.27 439.973,1003.57C570.862,776.866 861.169,699.068 1087.86,829.944C1314.55,960.82 1392.32,1251.13 1261.43,1477.83Z" style="fill:none;stroke:#000;stroke-width:8.33px;"/>
            <path d="M1261.43,1477.83L1235.18,1462.67" style="fill:none;stroke:#000;stroke-width:8.33px;"/>
            <path d="M466.231,1018.73L439.973,1003.57" style="fill:none;stroke:#000;stroke-width:8.33px;"/>
            <path d="M628.71,1625.19L613.55,1651.45" style="fill:none;stroke:#000;stroke-width:8.33px;"/>
            <path d="M1087.86,829.944L1072.7,856.201" style="fill:none;stroke:#000;stroke-width:8.33px;"/>
            <path d="M1087.85,1651.43L1072.69,1625.18" style="fill:none;stroke:#000;stroke-width:8.33px;"/>
            <path d="M628.72,856.218L613.56,829.961" style="fill:none;stroke:#000;stroke-width:8.33px;"/>
            <path d="M466.201,1462.69L439.944,1477.85" style="fill:none;stroke:#000;stroke-width:8.33px;"/>
            <path d="M1261.46,1003.55L1235.21,1018.71" style="fill:none;stroke:#000;stroke-width:8.33px;"/>
            <path d="M850.704,1714.99L850.704,1684.67" style="fill:none;stroke:#000;stroke-width:8.33px;"/>
            <path d="M850.704,796.721L850.704,766.402" style="fill:none;stroke:#000;stroke-width:8.33px;"/>
            <path d="M406.736,1240.7L376.417,1240.7" style="fill:none;stroke:#000;stroke-width:8.33px;"/>
            <path d="M1324.99,1240.7L1294.67,1240.7" style="fill:none;stroke:#000;stroke-width:8.33px;"/>
        </g>
        <g id="Root-Markers" serif:id="Root Markers">
            <path id="_2" serif:id="2" d="M1169.71,1055.95L1100.53,1137.8L1064.23,1074.93L1169.71,1055.95ZM1120.71,1084.24L1094.46,1088.96L1103.5,1104.61L1120.71,1084.24Z" style="fill:#82c072;"/>
        </g>
        <g id="Notes">
            <path id="_9" serif:id="9" sound="Font/2-Mid-A" d="M445.425,1289.89C423.436,1327.97 374.662,1341.04 336.575,1319.05C298.489,1297.07 285.42,1248.29 307.409,1210.21C329.398,1172.12 378.172,1159.05 416.259,1181.04C454.345,1203.03 467.414,1251.8 445.425,1289.89Z" style="fill:#82c072;stroke:#fff;stroke-width:24px;"/>
            <path id="_71" serif:id="7" sound="Font/2-Mid-G" d="M686.805,1690.03C664.815,1728.11 616.042,1741.18 577.955,1719.19C539.868,1697.2 526.799,1648.43 548.789,1610.34C570.778,1572.26 619.552,1559.19 657.639,1581.18C695.725,1603.17 708.794,1651.94 686.805,1690.03Z" style="fill:#82c072;stroke:#fff;stroke-width:24px;"/>
            <path id="_21" serif:id="2" sound="Font/2-Low-D" d="M1327.24,1049.74C1305.25,1087.83 1256.48,1100.9 1218.39,1078.91C1180.3,1056.92 1167.23,1008.14 1189.22,970.059C1211.21,931.974 1259.99,918.905 1298.07,940.894C1336.16,962.883 1349.23,1011.66 1327.24,1049.74Z" style="fill:#82c072;stroke:#fff;stroke-width:24px;"/>
        </g>
        <g id="Treble-Marker" serif:id="Treble Marker">
            <g id="_0" serif:id="0" sound="Font/2-High-C">
                <path id="_0u" serif:id="0u" d="M919.712,811.426C897.722,849.512 848.949,862.581 810.862,840.592C772.775,818.603 759.707,769.83 781.696,731.744C803.685,693.659 852.459,680.59 890.546,702.579C928.632,724.568 941.701,773.341 919.712,811.426Z" style="fill:#fff;stroke:#fff;stroke-width:33.33px;"/>
                <circle id="_0a" serif:id="0a" cx="851.704" cy="771.902" r="64" style="fill:#fff;stroke:#82c072;stroke-width:16.67px;"/>
            </g>
        </g>
    </g>
    </a>
    <g id="Songs">
        <g id="song-3-arrows" serif:id="song 3 arrows">
            <g id="Z2Y21" serif:id="Z2Y2" sound="Song/03-Arrows-Z2Y2">
                <path d="M259.703,2361C240.306,2361.11 220.895,2353.63 206.317,2338.64L180.56,2312.16C167.193,2298.41 160.255,2280.78 159.694,2263L260.362,2263.18L259.703,2361Z" style="fill:#82c072;stroke:#fff;stroke-width:1.67px;"/>
                <path d="M359.626,2263.36C359.128,2281.95 351.663,2300.37 337.29,2314.35L310.804,2340.1C296.558,2353.96 278.137,2360.9 259.703,2361L260.362,2263.18L359.626,2263.36Z" style="fill:#82c072;stroke:#fff;stroke-width:1.67px;"/>
                <path d="M259.703,2264.01L259.703,2360.01" style="fill:none;stroke:#82c072;stroke-width:4.17px;stroke-linecap:butt;"/>
                <g id="q3">
                    <path d="M216.095,2267.01L183.166,2275.83L180.466,2280.51L213.395,2271.68L216.095,2267.01Z" style="fill:#e7e7e7;fill-rule:nonzero;"/>
                    <path d="M215.369,2279.05L182.44,2287.87L187.116,2290.57L220.045,2281.75L215.369,2279.05Z" style="fill:#e7e7e7;fill-rule:nonzero;"/>
                    <path d="M199.768,2317.89L223.874,2293.78L223.875,2288.38L199.769,2312.49L199.768,2317.89Z" style="fill:#e7e7e7;fill-rule:nonzero;"/>
                    <path d="M229.267,2299.17L205.161,2323.28L210.558,2323.28L234.664,2299.18L229.267,2299.17Z" style="fill:#e7e7e7;fill-rule:nonzero;"/>
                    <path d="M241.3,2303.01L232.477,2335.93L235.178,2340.61L244.001,2307.68L241.3,2303.01Z" style="fill:#e7e7e7;fill-rule:nonzero;"/>
                    <path d="M242.543,2342.58L247.216,2339.89L256.044,2306.95L251.366,2309.66L242.543,2342.58Z" style="fill:#e7e7e7;fill-rule:nonzero;"/>
                    <path d="M211.736,2276.95L248.44,2267.12C248.348,2266.85 248.263,2266.58 248.189,2266.31C248.115,2266.03 248.054,2265.76 248.001,2265.48L211.297,2275.31L212.048,2274.01L179.119,2282.84L177.769,2285.18L180.107,2286.53L213.036,2277.7L211.736,2276.95Z" style="fill:#e7e7e7;fill-rule:nonzero;"/>
                    <path d="M225.072,2299.18L251.939,2272.31C251.516,2271.94 251.115,2271.54 250.741,2271.11L223.873,2297.98L223.875,2296.47L199.77,2320.58L199.769,2323.28L202.469,2323.28L226.575,2299.17L225.072,2299.18Z" style="fill:#e7e7e7;fill-rule:nonzero;"/>
                    <path d="M247.733,2311.75L257.568,2275.05C257.011,2274.94 256.465,2274.8 255.93,2274.61L246.099,2311.31L245.346,2310.01L236.523,2342.94L237.873,2345.28L240.212,2343.93L249.035,2311L247.733,2311.75Z" style="fill:#e7e7e7;fill-rule:nonzero;"/>
                </g>
                <g id="q2">
                    <path d="M272.525,2339.89L277.202,2342.59L268.378,2309.66L263.702,2306.95L272.525,2339.89Z" style="fill:#e7e7e7;fill-rule:nonzero;"/>
                    <path d="M284.569,2340.61L287.269,2335.93L278.446,2303.01L275.746,2307.68L284.569,2340.61Z" style="fill:#e7e7e7;fill-rule:nonzero;"/>
                    <path d="M285.078,2299.18L309.184,2323.28L314.584,2323.28L290.479,2299.18L285.078,2299.18Z" style="fill:#e7e7e7;fill-rule:nonzero;"/>
                    <path d="M295.87,2293.78L319.976,2317.89L319.977,2312.49L295.872,2288.38L295.87,2293.78Z" style="fill:#e7e7e7;fill-rule:nonzero;"/>
                    <path d="M299.699,2281.75L332.629,2290.57L337.306,2287.87L304.377,2279.05L299.699,2281.75Z" style="fill:#e7e7e7;fill-rule:nonzero;"/>
                    <path d="M336.58,2275.83L303.65,2267.01L306.351,2271.68L339.281,2280.51L336.58,2275.83Z" style="fill:#e7e7e7;fill-rule:nonzero;"/>
                    <path d="M307.696,2274.01L308.449,2275.31L271.747,2265.48C271.637,2266.04 271.49,2266.59 271.309,2267.12L308.01,2276.95L306.708,2277.7L339.637,2286.53L341.976,2285.18L340.625,2282.84L307.696,2274.01Z" style="fill:#e7e7e7;fill-rule:nonzero;"/>
                    <path d="M263.813,2274.61C263.548,2274.7 263.277,2274.78 263.003,2274.86C262.728,2274.93 262.452,2274.99 262.176,2275.05L272.011,2311.75L270.711,2311L279.534,2343.93L281.872,2345.28L283.222,2342.94L274.399,2310.01L273.648,2311.31L263.813,2274.61Z" style="fill:#e7e7e7;fill-rule:nonzero;"/>
                    <path d="M295.87,2297.98L269.004,2271.11C268.633,2271.53 268.234,2271.93 267.805,2272.31L294.674,2299.17L293.171,2299.18L317.276,2323.28L319.977,2323.28L319.977,2320.58L295.872,2296.47L295.87,2297.98Z" style="fill:#e7e7e7;fill-rule:nonzero;"/>
                </g>
            </g>
            <g id="Y" sound="Song/03-Arrows-Y">
                <path d="M261.099,2160.84C280.012,2161.1 298.825,2168.57 313.04,2183.19L338.797,2209.68C353.252,2224.54 360.188,2243.95 359.674,2263.18L260.41,2263L261.099,2160.84Z" style="fill:#82c072;stroke:#fff;stroke-width:1.67px;"/>
                <path d="M159.742,2262.82C159.11,2242.78 166.577,2222.55 182.067,2207.49L208.554,2181.73C223.172,2167.52 242.186,2160.57 261.099,2160.84L260.41,2263L159.742,2262.82Z" style="fill:#82c072;stroke:#fff;stroke-width:1.67px;"/>
                <path d="M260.41,2161.83L260.109,2262.18" style="fill:none;stroke:#82c072;stroke-width:4.17px;stroke-linecap:butt;"/>
                <g id="q4">
                    <path d="M247.22,2186.47L242.544,2183.77L251.367,2216.7L256.043,2219.4L247.22,2186.47Z" style="fill:#e7e7e7;fill-rule:nonzero;"/>
                    <path d="M235.176,2185.74L232.476,2190.42L241.299,2223.35L243.999,2218.67L235.176,2185.74Z" style="fill:#e7e7e7;fill-rule:nonzero;"/>
                    <path d="M234.667,2227.18L210.558,2203.07L205.161,2203.07L229.266,2227.18L234.667,2227.18Z" style="fill:#e7e7e7;fill-rule:nonzero;"/>
                    <path d="M223.875,2232.57L199.769,2208.46L199.768,2213.86L223.874,2237.97L223.875,2232.57Z" style="fill:#e7e7e7;fill-rule:nonzero;"/>
                    <path d="M220.042,2244.6L187.113,2235.78L182.439,2238.48L215.369,2247.3L220.042,2244.6Z" style="fill:#e7e7e7;fill-rule:nonzero;"/>
                    <path d="M183.165,2250.52L216.095,2259.35L213.394,2254.67L180.464,2245.85L183.165,2250.52Z" style="fill:#e7e7e7;fill-rule:nonzero;"/>
                    <path d="M212.049,2252.34L211.296,2251.04L247.998,2260.87C248.108,2260.31 248.255,2259.77 248.437,2259.24L211.735,2249.4L213.037,2248.65L180.108,2239.83L177.769,2241.18L179.12,2243.51L212.049,2252.34Z" style="fill:#e7e7e7;fill-rule:nonzero;"/>
                    <path d="M223.876,2228.38L250.741,2255.24C251.112,2254.82 251.512,2254.42 251.94,2254.05L225.071,2227.18L226.574,2227.18L202.469,2203.07L199.768,2203.07L199.768,2205.77L223.873,2229.88L223.876,2228.38Z" style="fill:#e7e7e7;fill-rule:nonzero;"/>
                    <path d="M236.523,2183.41L245.346,2216.34L246.097,2215.04L255.932,2251.74C256.197,2251.65 256.468,2251.57 256.742,2251.49C257.017,2251.42 257.294,2251.36 257.569,2251.3L247.734,2214.6L249.034,2215.35L240.211,2182.42L237.873,2181.07L236.523,2183.41Z" style="fill:#e7e7e7;fill-rule:nonzero;"/>
                </g>
                <g id="q1">
                    <path d="M303.651,2259.35L336.579,2250.52L339.279,2245.85L306.35,2254.67L303.651,2259.35Z" style="fill:#e7e7e7;fill-rule:nonzero;"/>
                    <path d="M304.377,2247.3L337.306,2238.48L332.629,2235.78L299.701,2244.6L304.377,2247.3Z" style="fill:#e7e7e7;fill-rule:nonzero;"/>
                    <path d="M295.871,2232.57L295.87,2237.97L319.976,2213.86L319.977,2208.46L295.871,2232.57Z" style="fill:#e7e7e7;fill-rule:nonzero;"/>
                    <path d="M290.478,2227.18L314.584,2203.07L309.183,2203.07L285.077,2227.18L290.478,2227.18Z" style="fill:#e7e7e7;fill-rule:nonzero;"/>
                    <path d="M278.445,2223.35L287.268,2190.42L284.567,2185.74L275.744,2218.67L278.445,2223.35Z" style="fill:#e7e7e7;fill-rule:nonzero;"/>
                    <path d="M277.202,2183.77L272.525,2186.47L263.702,2219.4L268.379,2216.7L277.202,2183.77Z" style="fill:#e7e7e7;fill-rule:nonzero;"/>
                    <path d="M294.673,2227.18L267.806,2254.05C268.229,2254.41 268.63,2254.82 269.004,2255.24L295.872,2228.38L295.87,2229.88L319.976,2205.77L319.976,2203.07L317.276,2203.07L293.17,2227.18L294.673,2227.18Z" style="fill:#e7e7e7;fill-rule:nonzero;"/>
                    <path d="M272.012,2214.6L262.177,2251.3C262.734,2251.41 263.28,2251.56 263.815,2251.74L273.647,2215.04L274.399,2216.34L283.223,2183.41L281.872,2181.07L279.533,2182.42L270.71,2215.35L272.012,2214.6Z" style="fill:#e7e7e7;fill-rule:nonzero;"/>
                    <path d="M339.638,2239.83L306.709,2248.65L308.009,2249.4L271.305,2259.24C271.398,2259.5 271.479,2259.77 271.552,2260.05C271.626,2260.32 271.691,2260.6 271.744,2260.87L308.448,2251.04L307.698,2252.34L340.627,2243.51L341.976,2241.18L339.638,2239.83Z" style="fill:#e7e7e7;fill-rule:nonzero;"/>
                </g>
            </g>
        </g>
    </g>
    <g id="Map">
        <g id="Frame">
            <rect x="1471.5" y="42.371" width="190" height="190" style="fill:#fff;"/>
            <rect x="1471.5" y="42.371" width="190" height="190" style="fill:none;stroke:#000;stroke-width:1.17px;stroke-linejoin:bevel;"/>
            <rect x="1523.38" y="94.246" width="86.25" height="86.25" style="fill:none;stroke:#000;stroke-width:1.25px;stroke-linejoin:bevel;"/>
            <path d="M1609.62,94.246L1661.5,42.579" style="fill:none;stroke:#000;stroke-width:1.25px;stroke-linejoin:bevel;"/>
            <path d="M1523.38,94.246L1471.92,42.579" style="fill:none;stroke:#000;stroke-width:1.25px;stroke-linejoin:bevel;"/>
            <path d="M1523.38,180.496L1471.5,232.371" style="fill:none;stroke:#000;stroke-width:1.25px;stroke-linejoin:bevel;"/>
            <path d="M1609.62,180.496L1661.5,232.371" style="fill:none;stroke:#000;stroke-width:1.25px;stroke-linejoin:bevel;"/>
        </g>
        <g id="Dots">
            <circle cx="1471.5" cy="232.329" r="1.5" style="stroke:#000;stroke-width:1.25px;stroke-linejoin:bevel;"/>
            <circle cx="1566.2" cy="232.454" r="1.5" style="stroke:#000;stroke-width:1.25px;stroke-linejoin:bevel;"/>
            <circle cx="1661.5" cy="232.329" r="1.5" style="stroke:#000;stroke-width:1.25px;stroke-linejoin:bevel;"/>
            <circle cx="1633.85" cy="204.496" r="1.5" style="stroke:#000;stroke-width:1.25px;stroke-linejoin:bevel;"/>
            <circle cx="1609.62" cy="180.329" r="1.5" style="stroke:#000;stroke-width:1.25px;stroke-linejoin:bevel;"/>
            <circle cx="1609.2" cy="137.454" r="1.5" style="stroke:#000;stroke-width:1.25px;stroke-linejoin:bevel;"/>
            <circle cx="1609.32" cy="94.204" r="1.5" style="stroke:#000;stroke-width:1.25px;stroke-linejoin:bevel;"/>
            <circle cx="1633.76" cy="69.996" r="1.5" style="stroke:#000;stroke-width:1.25px;stroke-linejoin:bevel;"/>
            <circle cx="1566.2" cy="94.204" r="1.5" style="stroke:#000;stroke-width:1.25px;stroke-linejoin:bevel;"/>
            <circle cx="1523.07" cy="94.329" r="1.5" style="stroke:#000;stroke-width:1.25px;stroke-linejoin:bevel;"/>
            <circle cx="1566.5" cy="42.329" r="1.5" style="stroke:#000;stroke-width:1.25px;stroke-linejoin:bevel;"/>
            <circle cx="1471.5" cy="42.371" r="1.5" style="stroke:#000;stroke-width:1.25px;stroke-linejoin:bevel;"/>
            <circle cx="1499.35" cy="70.329" r="1.5" style="stroke:#000;stroke-width:1.25px;stroke-linejoin:bevel;"/>
            <circle cx="1471.5" cy="137.371" r="1.5" style="stroke:#000;stroke-width:1.25px;stroke-linejoin:bevel;"/>
            <circle cx="1523.38" cy="137.371" r="1.5" style="stroke:#000;stroke-width:1.25px;stroke-linejoin:bevel;"/>
            <circle cx="1566" cy="180.496" r="1.5" style="stroke:#000;stroke-width:1.25px;stroke-linejoin:bevel;"/>
            <circle cx="1523.35" cy="180.329" r="1.5" style="stroke:#000;stroke-width:1.25px;stroke-linejoin:bevel;"/>
            <circle cx="1499.15" cy="204.829" r="1.5" style="stroke:#000;stroke-width:1.25px;stroke-linejoin:bevel;"/>
            <circle cx="1661.5" cy="137.371" r="1.5" style="stroke:#000;stroke-width:1.25px;stroke-linejoin:bevel;"/>
            <circle cx="1661.49" cy="42.479" r="1.5" style="stroke:#000;stroke-width:1.25px;stroke-linejoin:bevel;"/>
        </g>
        <g>
            <path d="M1471.5,42L1566.5,42" style="fill:none;stroke:#82c072;stroke-width:5.99px;"/>
        </g>
        <path d="M1473.93,36.491C1477.18,37.835 1478.72,41.561 1477.38,44.806C1476.04,48.051 1472.31,49.595 1469.07,48.25C1465.82,46.906 1464.28,43.18 1465.62,39.935C1466.96,36.69 1470.69,35.147 1473.93,36.491Z" style="fill:#fff;stroke:#82c072;stroke-width:5.99px;"/>
        <g id="_3" serif:id="3">
            <circle cx="1566.5" cy="42" r="15.75" style="fill:#fff;stroke:#fff;stroke-width:1.46px;"/>
            <g id="q31" serif:id="q3">
                <path d="M1559.45,42.988L1554.14,44.41L1553.71,45.163L1559.01,43.741L1559.45,42.988Z" style="fill:#733c52;fill-rule:nonzero;"/>
                <path d="M1559.33,44.928L1554.03,46.35L1554.78,46.785L1560.08,45.363L1559.33,44.928Z" style="fill:#733c52;fill-rule:nonzero;"/>
                <path d="M1556.82,51.186L1560.7,47.302L1560.7,46.432L1556.82,50.316L1556.82,51.186Z" style="fill:#733c52;fill-rule:nonzero;"/>
                <path d="M1561.57,48.171L1557.68,52.054L1558.56,52.054L1562.44,48.171L1561.57,48.171Z" style="fill:#733c52;fill-rule:nonzero;"/>
                <path d="M1563.51,48.788L1562.09,54.093L1562.52,54.846L1563.94,49.541L1563.51,48.788Z" style="fill:#733c52;fill-rule:nonzero;"/>
                <path d="M1563.71,55.164L1564.46,54.73L1565.88,49.424L1565.13,49.859L1563.71,55.164Z" style="fill:#733c52;fill-rule:nonzero;"/>
                <path d="M1558.75,44.59L1564.66,43.006C1564.64,42.963 1564.63,42.92 1564.62,42.875C1564.61,42.831 1564.6,42.786 1564.59,42.742L1558.67,44.326L1558.8,44.117L1553.49,45.539L1553.27,45.915L1553.65,46.133L1558.95,44.711L1558.75,44.59Z" style="fill:#733c52;fill-rule:nonzero;"/>
                <path d="M1560.89,48.171L1565.22,43.842C1565.15,43.782 1565.09,43.718 1565.03,43.649L1560.7,47.978L1560.7,47.736L1556.82,51.619L1556.82,52.054L1557.25,52.054L1561.13,48.171L1560.89,48.171Z" style="fill:#733c52;fill-rule:nonzero;"/>
                <path d="M1564.54,50.197L1566.13,44.284C1566.04,44.266 1565.95,44.243 1565.87,44.213L1564.28,50.126L1564.16,49.917L1562.74,55.222L1562.96,55.599L1563.33,55.381L1564.75,50.076L1564.54,50.197Z" style="fill:#733c52;fill-rule:nonzero;"/>
            </g>
            <g id="q21" serif:id="q2">
                <path d="M1568.54,54.73L1569.29,55.164L1567.87,49.859L1567.12,49.424L1568.54,54.73Z" style="fill:#733c52;fill-rule:nonzero;"/>
                <path d="M1570.48,54.846L1570.91,54.093L1569.49,48.788L1569.06,49.541L1570.48,54.846Z" style="fill:#733c52;fill-rule:nonzero;"/>
                <path d="M1570.56,48.171L1574.44,52.054L1575.32,52.054L1571.43,48.171L1570.56,48.171Z" style="fill:#733c52;fill-rule:nonzero;"/>
                <path d="M1572.3,47.302L1576.18,51.186L1576.18,50.316L1572.3,46.432L1572.3,47.302Z" style="fill:#733c52;fill-rule:nonzero;"/>
                <path d="M1572.92,45.363L1578.22,46.785L1578.98,46.35L1573.67,44.928L1572.92,45.363Z" style="fill:#733c52;fill-rule:nonzero;"/>
                <path d="M1578.86,44.41L1573.55,42.988L1573.99,43.741L1579.29,45.163L1578.86,44.41Z" style="fill:#733c52;fill-rule:nonzero;"/>
                <path d="M1574.2,44.117L1574.33,44.326L1568.41,42.742C1568.39,42.832 1568.37,42.92 1568.34,43.006L1574.26,44.59L1574.05,44.711L1579.35,46.133L1579.73,45.915L1579.51,45.539L1574.2,44.117Z" style="fill:#733c52;fill-rule:nonzero;"/>
                <path d="M1567.13,44.213C1567.09,44.228 1567.05,44.241 1567,44.253C1566.96,44.265 1566.91,44.275 1566.87,44.284L1568.46,50.197L1568.25,50.076L1569.67,55.381L1570.04,55.599L1570.26,55.222L1568.84,49.917L1568.72,50.126L1567.13,44.213Z" style="fill:#733c52;fill-rule:nonzero;"/>
                <path d="M1572.3,47.978L1567.97,43.649C1567.91,43.717 1567.85,43.782 1567.78,43.842L1572.11,48.171L1571.87,48.171L1575.75,52.054L1576.18,52.054L1576.18,51.619L1572.3,47.736L1572.3,47.978Z" style="fill:#733c52;fill-rule:nonzero;"/>
            </g>
            <g id="q41" serif:id="q4">
                <path d="M1564.46,30.012L1563.71,29.577L1565.13,34.883L1565.88,35.318L1564.46,30.012Z" style="fill:#733c52;fill-rule:nonzero;"/>
                <path d="M1562.52,29.895L1562.09,30.649L1563.51,35.954L1563.94,35.201L1562.52,29.895Z" style="fill:#733c52;fill-rule:nonzero;"/>
                <path d="M1562.44,36.571L1558.56,32.688L1557.68,32.687L1561.57,36.571L1562.44,36.571Z" style="fill:#733c52;fill-rule:nonzero;"/>
                <path d="M1560.7,37.44L1556.82,33.556L1556.82,34.426L1560.7,38.31L1560.7,37.44Z" style="fill:#733c52;fill-rule:nonzero;"/>
                <path d="M1560.08,39.379L1554.78,37.957L1554.03,38.392L1559.33,39.814L1560.08,39.379Z" style="fill:#733c52;fill-rule:nonzero;"/>
                <path d="M1554.14,40.332L1559.45,41.754L1559.01,41L1553.71,39.579L1554.14,40.332Z" style="fill:#733c52;fill-rule:nonzero;"/>
                <path d="M1558.8,40.625L1558.67,40.415L1564.59,42C1564.61,41.91 1564.63,41.822 1564.66,41.736L1558.74,40.151L1558.95,40.03L1553.65,38.609L1553.27,38.826L1553.49,39.203L1558.8,40.625Z" style="fill:#733c52;fill-rule:nonzero;"/>
                <path d="M1560.7,36.764L1565.03,41.093C1565.09,41.024 1565.15,40.96 1565.22,40.9L1560.89,36.571L1561.13,36.571L1557.25,32.687L1556.82,32.687L1556.82,33.122L1560.7,37.006L1560.7,36.764Z" style="fill:#733c52;fill-rule:nonzero;"/>
                <path d="M1562.74,29.52L1564.16,34.825L1564.28,34.615L1565.87,40.529C1565.91,40.514 1565.95,40.501 1566,40.489C1566.04,40.477 1566.09,40.467 1566.13,40.458L1564.54,34.545L1564.75,34.666L1563.33,29.36L1562.96,29.143L1562.74,29.52Z" style="fill:#733c52;fill-rule:nonzero;"/>
            </g>
            <g id="q11" serif:id="q1">
                <path d="M1573.55,41.754L1578.86,40.332L1579.29,39.579L1573.99,41L1573.55,41.754Z" style="fill:#733c52;fill-rule:nonzero;"/>
                <path d="M1573.67,39.814L1578.98,38.392L1578.22,37.957L1572.92,39.379L1573.67,39.814Z" style="fill:#733c52;fill-rule:nonzero;"/>
                <path d="M1572.3,37.44L1572.3,38.31L1576.18,34.426L1576.18,33.556L1572.3,37.44Z" style="fill:#733c52;fill-rule:nonzero;"/>
                <path d="M1571.43,36.571L1575.32,32.687L1574.44,32.687L1570.56,36.571L1571.43,36.571Z" style="fill:#733c52;fill-rule:nonzero;"/>
                <path d="M1569.49,35.954L1570.91,30.649L1570.48,29.895L1569.06,35.201L1569.49,35.954Z" style="fill:#733c52;fill-rule:nonzero;"/>
                <path d="M1569.29,29.577L1568.54,30.012L1567.12,35.318L1567.87,34.883L1569.29,29.577Z" style="fill:#733c52;fill-rule:nonzero;"/>
                <path d="M1572.11,36.571L1567.78,40.9C1567.85,40.959 1567.91,41.024 1567.97,41.093L1572.3,36.764L1572.3,37.006L1576.18,33.122L1576.18,32.687L1575.75,32.687L1571.87,36.571L1572.11,36.571Z" style="fill:#733c52;fill-rule:nonzero;"/>
                <path d="M1568.46,34.545L1566.87,40.458C1566.96,40.475 1567.05,40.499 1567.13,40.529L1568.72,34.616L1568.84,34.825L1570.26,29.52L1570.04,29.143L1569.67,29.36L1568.25,34.666L1568.46,34.545Z" style="fill:#733c52;fill-rule:nonzero;"/>
                <path d="M1579.35,38.609L1574.05,40.031L1574.26,40.151L1568.34,41.736C1568.36,41.779 1568.37,41.822 1568.38,41.867C1568.39,41.911 1568.4,41.955 1568.41,42L1574.33,40.415L1574.2,40.625L1579.51,39.203L1579.73,38.826L1579.35,38.609Z" style="fill:#733c52;fill-rule:nonzero;"/>
            </g>
        </g>
    </g>
    <g id="S-melisma" serif:id="S melisma">
        <path id="Sounder" d="M929.245,2303.38C903.992,2347.12 847.981,2362.13 804.245,2336.88C760.508,2311.63 745.502,2255.62 770.755,2211.88C796.008,2168.14 852.019,2153.13 895.755,2178.38C939.492,2203.63 954.498,2259.64 929.245,2303.38Z" style="fill:#fff;"/>
        <g id="Ring1" serif:id="Ring" opacity="0.5">
            <path d="M929.245,2303.38C903.992,2347.12 847.981,2362.13 804.245,2336.88C760.508,2311.63 745.502,2255.62 770.755,2211.88C796.008,2168.14 852.019,2153.13 895.755,2178.38C939.492,2203.63 954.498,2259.64 929.245,2303.38Z" style="fill:none;stroke:#000;stroke-width:1.93px;"/>
            <path d="M929.245,2303.38L924.179,2300.45" style="fill:none;stroke:#000;stroke-width:1.93px;"/>
            <path d="M775.821,2214.8L770.755,2211.88" style="fill:none;stroke:#000;stroke-width:1.93px;"/>
            <path d="M807.169,2331.81L804.245,2336.88" style="fill:none;stroke:#000;stroke-width:1.93px;"/>
            <path d="M895.755,2178.38L892.831,2183.45" style="fill:none;stroke:#000;stroke-width:1.93px;"/>
            <path d="M895.753,2336.88L892.829,2331.81" style="fill:none;stroke:#000;stroke-width:1.93px;"/>
            <path d="M807.171,2183.45L804.247,2178.38" style="fill:none;stroke:#000;stroke-width:1.93px;"/>
            <path d="M775.816,2300.46L770.75,2303.38" style="fill:none;stroke:#000;stroke-width:1.93px;"/>
            <path d="M929.25,2211.88L924.184,2214.8" style="fill:none;stroke:#000;stroke-width:1.93px;"/>
            <path d="M850,2349.14L850,2343.29" style="fill:none;stroke:#000;stroke-width:1.93px;"/>
            <path d="M850,2171.97L850,2166.12" style="fill:none;stroke:#000;stroke-width:1.93px;"/>
            <path d="M764.343,2257.63L758.493,2257.63" style="fill:none;stroke:#000;stroke-width:1.93px;"/>
            <path d="M941.507,2257.63L935.657,2257.63" style="fill:none;stroke:#000;stroke-width:1.93px;"/>
        </g>
        <g id="Root-Markers1" serif:id="Root Markers">
        </g>
        <g id="Notes1" serif:id="Notes">
            <path id="_10" serif:id="10" d="M784.907,2220.78C780.665,2228.13 771.254,2230.65 763.906,2226.41C756.558,2222.17 754.036,2212.76 758.279,2205.41C762.521,2198.06 771.932,2195.54 779.28,2199.78C786.628,2204.03 789.15,2213.44 784.907,2220.78Z" style="fill:#82c072;stroke:#fff;stroke-width:4.63px;"/>
            <path id="_91" serif:id="9" d="M771.807,2267.12C767.565,2274.47 758.154,2276.99 750.806,2272.75C743.458,2268.5 740.936,2259.09 745.179,2251.75C749.421,2244.4 758.832,2241.88 766.18,2246.12C773.528,2250.36 776.05,2259.77 771.807,2267.12Z" style="fill:#82c072;stroke:#fff;stroke-width:4.63px;"/>
            <path id="_72" serif:id="7" d="M818.378,2344.32C814.135,2351.67 804.725,2354.19 797.377,2349.95C790.029,2345.7 787.507,2336.3 791.75,2328.95C795.992,2321.6 805.403,2319.08 812.751,2323.32C820.099,2327.56 822.621,2336.97 818.378,2344.32Z" style="fill:#82c072;stroke:#fff;stroke-width:4.63px;"/>
            <path id="_4" serif:id="4" d="M941.944,2311.56C937.701,2318.91 928.291,2321.43 920.943,2317.19C913.594,2312.95 911.073,2303.54 915.315,2296.19C919.558,2288.84 928.968,2286.32 936.316,2290.56C943.665,2294.8 946.186,2304.21 941.944,2311.56Z" style="fill:#82c072;stroke:#fff;stroke-width:4.63px;"/>
            <path id="_22" serif:id="2" d="M941.941,2220.79C937.698,2228.14 928.288,2230.66 920.94,2226.41C913.591,2222.17 911.07,2212.76 915.312,2205.41C919.555,2198.07 928.965,2195.54 936.313,2199.79C943.662,2204.03 946.183,2213.44 941.941,2220.79Z" style="fill:#82c072;stroke:#fff;stroke-width:4.63px;"/>
            <path id="_01" serif:id="0" d="M863.314,2174.81C859.072,2182.16 849.661,2184.68 842.313,2180.43C834.965,2176.19 832.443,2166.78 836.686,2159.43C840.928,2152.09 850.339,2149.56 857.687,2153.81C865.035,2158.05 867.557,2167.46 863.314,2174.81Z" style="fill:#82c072;stroke:#fff;stroke-width:4.63px;"/>
        </g>
        <g id="Treble-Marker1" serif:id="Treble Marker">
        </g>
    </g>
</svg>
