<?xml version="1.0" encoding="UTF-8" standalone="no"?>
<!DOCTYPE svg PUBLIC "-//W3C//DTD SVG 1.1//EN" "http://www.w3.org/Graphics/SVG/1.1/DTD/svg11.dtd">
<svg width="100%" height="100%" viewBox="0 0 406 529" version="1.1" xmlns="http://www.w3.org/2000/svg" xmlns:xlink="http://www.w3.org/1999/xlink" xml:space="preserve" xmlns:serif="http://www.serif.com/" style="fill-rule:evenodd;clip-rule:evenodd;stroke-linejoin:bevel;">
    <rect id="L6-9" x="0.059" y="0.133" width="405.12" height="528" style="fill:none;"/>
    <clipPath id="_clip1">
        <rect x="0.059" y="0.133" width="405.12" height="528"/>
    </clipPath>
    <g clip-path="url(#_clip1)">
        <g>
            <g id="staff-top" serif:id="staff top">
                <path d="M0.059,106.933l405.12,0" style="fill:none;fill-rule:nonzero;stroke:#000;stroke-width:1.2px;"/>
                <path d="M0.059,119.533l405.12,0" style="fill:none;fill-rule:nonzero;stroke:#000;stroke-width:1.2px;"/>
                <path d="M0.059,132.133l405.12,0" style="fill:none;fill-rule:nonzero;stroke:#000;stroke-width:1.2px;"/>
                <path d="M0.059,144.733l405.12,0" style="fill:none;fill-rule:nonzero;stroke:#000;stroke-width:1.2px;"/>
                <path d="M0.059,157.333l405.12,0" style="fill:none;fill-rule:nonzero;stroke:#000;stroke-width:1.2px;"/>
            </g>
            <path d="M208.473,142.589c-0.049,-0.049 -0.154,-0.154 -0.309,-0.358l-5.984,-7.39c-0.057,-0.057 -0.106,-0.211 -0.106,-0.317c0,-0.155 0.049,-0.358 0.106,-0.464l5.301,-8.016c0.057,-0.106 0.106,-0.26 0.106,-0.366l-0,-0.463c-0,-0.155 -0.049,-0.318 -0.155,-0.415l-8.431,-11.399c0,0 -0.203,-0.317 -0.52,-0.317c-0.155,-0 -0.26,-0 -0.415,0.163c-0.211,0.154 -0.26,0.357 -0.26,0.52c0,0.309 0.154,0.569 0.154,0.569l3.96,5.415c0.098,0.154 0.154,0.358 0.154,0.618c0,0.211 -0.056,0.471 -0.154,0.626l-5.26,8.016c-0.049,0.106 -0.106,0.309 -0.106,0.415l-0,0.472c-0,0.154 0.057,0.309 0.163,0.414l5.821,7.236c-0.203,-0.057 -0.675,-0.162 -1.301,-0.162c-2.65,-0 -4.732,2.187 -4.732,4.845c0,0.724 0.155,1.456 0.569,2.025c1.098,1.667 5,6.61 5,6.61c0,-0 0.261,0.317 0.627,0.317c0.097,-0 0.203,-0 0.308,-0.106c0.261,-0.211 0.366,-0.414 0.366,-0.626c0,-0.211 -0.105,-0.366 -0.154,-0.471c-0.163,-0.261 -1.821,-3.277 -1.821,-3.277c-0,0 -0.366,-0.732 -0.366,-1.667c-0,-1.666 1.244,-3.016 2.91,-3.016c0.675,0 1.253,0.211 1.667,0.472l2.033,1.3c-0,0 0.203,0.098 0.414,0.098c0.204,0 0.366,-0.049 0.521,-0.26c0.105,-0.155 0.154,-0.309 0.154,-0.464c0,-0.154 -0.049,-0.26 -0.154,-0.414l-0.106,-0.163" style="fill-rule:nonzero;"/>
            <g>
                <path d="M137.792,374.541c-0.083,0.025 -0.178,0.031 -0.235,0.079c-0.053,0.044 -0.107,0.15 -0.088,0.202c0.151,0.416 0.435,0.759 0.861,0.846c0.638,0.131 1.248,-0.062 1.811,-0.38c0.016,-0.01 0.019,-0.075 0.005,-0.102c-0.041,-0.07 -0.078,-0.169 -0.143,-0.195c-0.711,-0.282 -1.458,-0.394 -2.211,-0.45Zm-38.452,-57.387c0.007,0.632 0.214,1.322 0.41,2.011c0.075,0.26 0.306,0.318 0.467,0.122c0.881,-1.08 1.797,-2.132 2.566,-3.298c0.039,-0.06 0.061,-0.177 0.028,-0.227c-0.034,-0.053 -0.15,-0.09 -0.219,-0.077c-0.998,0.195 -1.945,0.559 -2.9,0.897c-0.214,0.076 -0.338,0.241 -0.352,0.572Zm51.746,18.844c-0.067,1.229 0.183,2.487 0.263,3.756c0.007,0.124 0.062,0.245 0.104,0.363c0.011,0.031 0.062,0.049 0.096,0.069c0.081,0.047 0.158,0.024 0.201,-0.074c0.085,-0.193 0.192,-0.384 0.233,-0.587c0.245,-1.205 0.468,-2.416 0.711,-3.62c0.114,-0.569 -0.04,-1 -0.563,-1.283c-0.223,-0.122 -0.435,-0.262 -0.657,-0.384c-0.149,-0.083 -0.385,0.031 -0.386,0.184c-0.006,0.509 -0.002,1.018 -0.002,1.576Zm-20.106,47.289c0.163,-0.027 0.337,-0.032 0.495,-0.085c0.965,-0.324 1.928,-0.656 2.888,-0.995c0.2,-0.069 0.299,-0.294 0.252,-0.527c-0.067,-0.332 -0.14,-0.665 -0.228,-0.993c-0.084,-0.306 -0.361,-0.474 -0.696,-0.4c-0.786,0.174 -1.571,0.36 -2.353,0.558c-0.335,0.085 -0.625,0.262 -0.839,0.544c-0.155,0.202 -0.315,0.402 -0.472,0.602c-0.662,0.846 -0.547,0.976 0.442,1.216c0.165,0.04 0.335,0.053 0.511,0.08Zm-8.82,3.794c0.82,-0.122 1.625,-0.201 2.384,-0.493c0.315,-0.123 0.622,-0.27 0.922,-0.426c0.286,-0.149 0.372,-0.467 0.218,-0.762c-0.253,-0.488 -0.515,-0.973 -0.772,-1.459c-0.152,-0.286 -0.333,-0.373 -0.616,-0.286c-1.32,0.401 -2.475,1.098 -3.526,1.977c-0.159,0.132 -0.284,0.311 -0.407,0.482c-0.149,0.204 -0.034,0.525 0.208,0.635c0.512,0.235 1.064,0.259 1.589,0.332Zm8.291,-9.092c0.288,-0.042 0.545,-0.057 0.789,-0.12c0.736,-0.193 1.47,-0.395 2.2,-0.61c1.264,-0.375 1.278,-0.579 0.494,-1.624c-0.025,-0.033 -0.054,-0.064 -0.081,-0.097c-0.312,-0.393 -0.705,-0.592 -1.218,-0.53c-1.26,0.154 -2.521,0.297 -3.78,0.458c-0.16,0.02 -0.318,0.107 -0.459,0.19c-0.056,0.031 -0.088,0.136 -0.094,0.211c-0.006,0.08 0.015,0.171 0.052,0.243c0.385,0.733 1.012,1.241 1.654,1.725c0.125,0.095 0.311,0.11 0.443,0.154Zm60.85,3.95c-2.338,-0.151 -4.577,0.308 -6.757,1.104c-0.397,0.145 -0.776,0.34 -1.156,0.527c-0.048,0.022 -0.063,0.131 -0.072,0.202c-0.003,0.027 0.046,0.071 0.08,0.093c0.073,0.044 0.147,0.099 0.227,0.115c1.374,0.282 2.749,0.562 4.126,0.835c0.301,0.058 0.58,0.011 0.838,-0.195c0.951,-0.76 2.044,-1.187 3.238,-1.417c0.833,-0.162 1.648,-0.419 2.471,-0.636c0.115,-0.029 0.268,-0.074 0.215,-0.215c-0.035,-0.096 -0.175,-0.186 -0.285,-0.217c-0.204,-0.056 -0.418,-0.082 -0.629,-0.094c-0.765,-0.039 -1.531,-0.068 -2.296,-0.102Zm-39.116,-23.48c-0.083,0.004 -0.221,-0.019 -0.335,0.025c-0.101,0.039 -0.234,0.144 -0.247,0.235c-0.031,0.207 -0.017,0.426 0.017,0.634c0.194,1.188 0.173,2.379 0.07,3.573c-0.037,0.423 -0.068,0.849 -0.088,1.275c-0.011,0.255 -0,0.512 0.009,0.767c0.006,0.172 0.23,0.304 0.371,0.221c0.146,-0.086 0.309,-0.159 0.424,-0.276c1.349,-1.393 2.416,-2.972 3.146,-4.774c0.032,-0.079 0.057,-0.16 0.08,-0.242c0.11,-0.382 -0.03,-0.683 -0.405,-0.817c-0.969,-0.344 -1.978,-0.508 -3.042,-0.621Zm119.682,-46.044c-0.161,-0 -0.204,0.001 -0.247,-0c-0.262,-0.007 -0.417,0.169 -0.33,0.388c0.124,0.317 0.259,0.629 0.393,0.942c0.371,0.863 0.724,1.738 0.899,2.658c0.256,1.348 0.389,1.11 1.4,0.769c0.601,-0.202 1.169,-0.51 1.736,-0.803c0.461,-0.238 0.825,-0.597 1.077,-1.061c0.203,-0.375 0.17,-0.751 -0.104,-1.066c-0.314,-0.36 -0.704,-0.614 -1.133,-0.814c-1.21,-0.561 -2.493,-0.848 -3.691,-1.013Zm-154.159,54.988c-0.996,0.053 -1.9,0.272 -2.735,0.727c-0.146,0.079 -0.275,0.196 -0.388,0.318c-0.042,0.043 -0.051,0.186 -0.015,0.222c0.331,0.328 0.655,0.667 1.018,0.956c0.778,0.621 1.421,1.351 1.842,2.252c0.373,0.801 0.44,0.819 1.391,0.595c0.124,-0.03 0.243,-0.08 0.366,-0.114c0.708,-0.198 1.227,-0.57 1.311,-1.369c0.013,-0.124 0.057,-0.252 0.111,-0.365c0.187,-0.388 0.116,-0.748 -0.122,-1.079c-0.474,-0.659 -1.02,-1.252 -1.642,-1.775c-0.347,-0.29 -0.745,-0.392 -1.137,-0.368Zm-5.331,2.497c-0.05,-0.096 -0.07,-0.193 -0.13,-0.241c-0.198,-0.158 -0.418,-0.289 -0.616,-0.449c-0.41,-0.331 -0.861,-0.324 -1.325,-0.166c-0.2,0.069 -0.389,0.172 -0.575,0.275c-1.119,0.621 -2.144,1.381 -3.132,2.192c-0.066,0.054 -0.148,0.107 -0.178,0.179c-0.063,0.151 -0.132,0.314 -0.133,0.472c-0.002,0.164 0.068,0.331 0.114,0.494c0.418,1.472 0.882,2.932 1.126,4.448c0.042,0.258 0.213,0.354 0.451,0.318c0.697,-0.109 1.26,-0.485 1.823,-0.873c0.328,-0.227 0.568,-0.495 0.703,-0.875c0.286,-0.805 0.657,-1.57 1.153,-2.268c0.208,-0.294 0.284,-0.612 0.261,-0.962c-0.011,-0.17 -0.01,-0.341 -0.031,-0.51c-0.07,-0.61 0.003,-1.184 0.372,-1.701c0.068,-0.096 0.083,-0.232 0.117,-0.333Zm-24.547,-2.81c-0.081,-0.016 -0.134,-0.042 -0.154,-0.027c-0.028,0.022 -0.043,0.075 -0.045,0.116c-0.087,1.794 0.191,3.566 0.32,5.346c0.056,0.762 0.186,1.52 0.282,2.279c0.189,1.481 0.565,2.923 0.937,4.363c0.521,2.018 1.108,4.021 1.992,5.917c1.008,2.162 1.871,4.379 2.642,6.634c0.205,0.603 0.455,1.192 0.69,1.785c0.045,0.117 0.101,0.235 0.176,0.333c0.046,0.061 0.14,0.084 0.213,0.124c0.024,-0.075 0.08,-0.156 0.068,-0.224c-0.414,-2.215 -0.733,-4.447 -1.263,-6.64c-0.311,-1.281 -0.619,-2.563 -0.957,-3.837c-0.25,-0.944 -0.512,-1.888 -0.828,-2.812c-0.538,-1.568 -1.1,-3.13 -1.694,-4.677c-0.705,-1.833 -1.186,-3.726 -1.62,-5.634c-0.197,-0.87 -0.371,-1.747 -0.569,-2.617c-0.035,-0.158 -0.132,-0.301 -0.19,-0.429Zm91.622,-56.111c0.193,-0.799 -0.226,-1.523 -0.853,-2.154c-0.329,-0.332 -0.675,-0.654 -1.053,-0.929c-0.376,-0.274 -0.795,-0.492 -1.205,-0.718c-0.102,-0.055 -0.268,-0.086 -0.36,-0.039c-0.078,0.039 -0.127,0.208 -0.125,0.318c0.007,0.254 0.035,0.512 0.086,0.761c0.22,1.05 0.252,2.116 0.262,3.181c0.021,2.134 -0.106,4.264 -0.451,6.367c-0.364,2.224 -0.659,4.468 -1.353,6.629c-0.051,0.154 -0.042,0.33 -0.051,0.497c-0.001,0.035 0.036,0.085 0.069,0.103c0.031,0.017 0.086,0.012 0.12,-0.005c0.394,-0.187 0.687,-0.497 0.949,-0.831c0.814,-1.042 1.566,-2.127 2.197,-3.291c0.429,-0.792 0.766,-1.612 0.832,-2.529c0.036,-0.509 0.123,-1.015 0.193,-1.521c0.152,-1.096 0.314,-2.191 0.463,-3.288c0.109,-0.801 0.313,-1.591 0.28,-2.551Zm-64.531,67.993c0,0.002 0,0.004 -0.001,0.006c-0.339,-0.02 -0.679,-0.051 -1.02,-0.059c-1.297,-0.029 -3.736,1.017 -4.6,1.972c-0.12,0.133 -0.182,0.31 -0.092,0.47c0.443,0.788 0.965,1.504 1.786,1.953c0.935,0.51 1.859,1.037 2.789,1.556c0.204,0.115 0.437,0.066 0.556,-0.115c0.454,-0.687 0.705,-1.452 0.858,-2.254c0.096,-0.502 0.177,-1.008 0.287,-1.505c0.045,-0.206 0.138,-0.402 0.229,-0.593c0.098,-0.206 0.278,-0.321 0.504,-0.345c0.905,-0.098 1.784,0.085 2.655,0.288c0.425,0.1 0.772,0.364 0.992,0.755c0.187,0.334 0.357,0.677 0.537,1.014c0.073,0.136 0.303,0.215 0.442,0.147c0.842,-0.411 1.662,-0.881 2.532,-1.217c0.641,-0.246 0.968,-0.639 1.07,-1.281c0.028,-0.168 0.08,-0.332 0.117,-0.498c0.075,-0.354 0.032,-0.474 -0.275,-0.616c-0.853,-0.397 -1.709,-0.778 -2.252,-1.617c-0.067,-0.105 -0.312,-0.155 -0.464,-0.138c-0.635,0.069 -1.266,0.175 -1.899,0.266c-0.771,0.111 -1.506,0.291 -1.978,1c-0.07,0.103 -0.193,0.169 -0.278,0.263c-0.431,0.477 -0.952,0.694 -1.602,0.602c-0.294,-0.042 -0.594,-0.038 -0.893,-0.054Zm42.692,-50.25c-0.021,1.022 -0.06,2.042 -0.054,3.064c0.003,0.461 0.024,0.936 0.214,1.373c0.018,0.041 0.16,0.073 0.211,0.047c0.289,-0.145 0.387,-0.44 0.513,-0.705c0.915,-1.925 1.738,-3.886 2.268,-5.956c0.284,-1.113 0.532,-2.234 0.812,-3.348c0.546,-2.166 0.598,-4.377 0.631,-6.592c0.005,-0.296 -0.04,-0.594 -0.07,-0.891c-0.113,-1.142 -0.252,-2.283 -0.343,-3.428c-0.225,-2.863 -0.892,-5.625 -1.865,-8.318c-0.143,-0.398 -0.347,-0.776 -0.526,-1.161c-0.213,-0.462 -0.587,-0.727 -1.075,-0.813c-0.712,-0.124 -1.428,-0.227 -2.145,-0.324c-0.208,-0.028 -0.424,-0.012 -0.636,-0.011c-0.097,0.001 -0.219,0.194 -0.183,0.287c0.063,0.157 0.121,0.318 0.199,0.468c1.083,2.093 1.72,4.35 2.341,6.603c0.384,1.391 0.577,2.836 0.559,4.293c-0.022,1.873 -0.012,3.747 -0.08,5.618c-0.046,1.274 -0.135,2.555 -0.323,3.815c-0.296,1.985 -0.406,3.979 -0.448,5.979Zm-12.943,95.927c0.382,0 0.765,0.008 1.148,-0.004c0.204,-0.006 0.51,0.051 0.564,-0.172c0.067,-0.279 -0.269,-0.247 -0.436,-0.295c-0.86,-0.243 -1.718,-0.505 -2.594,-0.674c-2.512,-0.485 -4.932,-1.325 -7.426,-1.881c-0.166,-0.036 -0.325,-0.101 -0.487,-0.155c-2.257,-0.767 -4.5,-1.573 -6.704,-2.485c-1.852,-0.767 -3.663,-1.609 -5.401,-2.613c-0.663,-0.383 -1.334,-0.756 -2.02,-1.097c-2.214,-1.097 -4.368,-2.304 -6.541,-3.479c-3.152,-1.704 -6.19,-3.583 -9.108,-5.66c-1.822,-1.296 -3.436,-2.792 -4.687,-4.658c-0.19,-0.283 -0.404,-0.549 -0.605,-0.825c-0.686,-0.941 -1.576,-1.663 -2.51,-2.337c-0.034,-0.024 -0.113,-0.045 -0.116,-0.04c-0.035,0.071 -0.104,0.165 -0.082,0.218c0.374,0.912 0.896,1.742 1.478,2.528c0.887,1.198 1.782,2.39 2.712,3.555c1.626,2.038 3.512,3.824 5.468,5.538c0.161,0.14 0.329,0.272 0.5,0.398c1.882,1.397 3.78,2.773 5.798,3.966c3.598,2.129 7.343,3.962 11.26,5.433c0.639,0.239 1.288,0.451 1.913,0.719c1.961,0.844 4.002,1.443 6.047,2.036c0.654,0.189 1.308,0.388 1.973,0.532c3.251,0.704 6.531,1.206 9.856,1.452Zm26.166,-111.933c-0.031,-0.809 -0.027,-1.621 -0.1,-2.427c-0.144,-1.576 -0.419,-3.134 -1.076,-4.584c-0.594,-1.313 -0.673,-1.389 -2.217,-1.884c-0.122,-0.038 -0.251,-0.051 -0.377,-0.075c-0.585,-0.115 -1.171,-0.23 -1.757,-0.342c-0.245,-0.047 -0.537,-0.248 -0.727,-0.059c-0.272,0.268 0.059,0.527 0.158,0.778c0.156,0.395 0.345,0.777 0.523,1.165c0.592,1.286 1.01,2.621 1.19,4.03c0.081,0.633 0.212,1.26 0.317,1.891c0.224,1.347 0.438,2.693 0.435,4.064c-0.002,0.895 0.034,1.791 0.019,2.686c-0.015,0.938 0.01,1.886 -0.124,2.809c-0.233,1.601 -0.551,3.191 -0.878,4.778c-0.308,1.502 -0.817,2.952 -1.271,4.417c-0.622,2.013 -1.5,3.894 -2.565,5.697c-0.866,1.468 -1.748,2.928 -2.65,4.374c-0.992,1.59 -1.951,3.205 -3.175,4.639c-0.164,0.193 -0.293,0.418 -0.414,0.642c-0.051,0.095 -0.094,0.272 -0.045,0.329c0.093,0.109 0.227,0.021 0.32,-0.066c1.12,-1.052 2.175,-2.165 3.104,-3.393c0.256,-0.34 0.522,-0.677 0.812,-0.987c1.313,-1.4 2.657,-2.769 4.072,-4.068c0.627,-0.577 1.225,-1.186 1.836,-1.78c0.738,-0.717 1.329,-1.555 1.947,-2.37c0.284,-0.375 0.333,-0.776 0.083,-1.191c-0.176,-0.292 -0.332,-0.598 -0.536,-0.868c-0.248,-0.329 -0.328,-0.686 -0.297,-1.08c0.028,-0.383 0.025,-0.773 0.104,-1.145c0.202,-0.959 0.414,-1.917 0.672,-2.86c0.453,-1.645 0.981,-3.267 1.406,-4.915c0.693,-2.689 1.228,-5.406 1.211,-8.205Zm10.669,65.635c0.028,-1.234 -0.218,-2.42 -0.805,-3.551c-1.571,-3.022 -3.423,-5.902 -4.659,-9.096c-0.112,-0.291 -0.345,-0.474 -0.648,-0.572c-1.43,-0.457 -2.883,-0.756 -4.394,-0.731c-0.37,0.006 -0.643,0.134 -0.871,0.433c-0.858,1.118 -1.637,2.286 -2.38,3.481c-1.151,1.852 -2.443,3.595 -4.018,5.115c-1.043,1.007 -2.083,2.016 -3.119,3.03c-0.335,0.327 -0.658,0.667 -0.976,1.012c-0.144,0.156 -0.27,0.33 -0.388,0.506c-0.214,0.319 -0.155,0.652 0.173,0.886c0.242,0.171 0.497,0.328 0.762,0.462c1.683,0.848 3.462,1.429 5.294,1.854c0.061,0.014 0.174,-0.039 0.205,-0.092c0.031,-0.056 0.017,-0.171 -0.024,-0.226c-0.395,-0.527 -0.391,-1.119 -0.26,-1.715c0.143,-0.666 0.304,-1.33 0.503,-1.98c0.373,-1.214 1.064,-2.19 2.076,-2.993c2.203,-1.753 4.291,-3.639 6.112,-5.801c0.301,-0.357 0.653,-0.672 0.997,-0.989c0.206,-0.191 0.511,-0.152 0.672,0.069c0.53,0.727 0.918,1.535 1.307,2.34c0.225,0.467 0.161,0.883 -0.186,1.296c-1.675,1.994 -3.197,4.093 -4.526,6.34c-0.944,1.595 -2.195,2.929 -3.79,3.912c-0.071,0.044 -0.147,0.099 -0.186,0.167c-0.031,0.058 -0.029,0.201 -0.006,0.21c0.318,0.118 0.635,0.263 0.966,0.319c1.512,0.256 3.026,0.5 4.544,0.722c0.997,0.145 1.101,-0.001 0.825,-1.028c-0.078,-0.288 -0.18,-0.571 -0.232,-0.865c-0.067,-0.375 -0.113,-0.755 -0.137,-1.135c-0.023,-0.349 0.083,-0.671 0.28,-0.965c0.716,-1.075 1.582,-2.008 2.636,-2.759c0.172,-0.123 0.363,-0.225 0.559,-0.303c0.251,-0.1 0.5,-0.076 0.72,0.103c0.701,0.566 1.307,1.222 1.862,1.928c0.079,0.099 0.137,0.216 0.2,0.327c0.182,0.318 0.209,0.65 0.037,0.976c-0.16,0.301 -0.33,0.597 -0.522,0.879c-0.409,0.598 -0.839,1.181 -1.249,1.779c-0.241,0.351 -0.461,0.715 -0.682,1.079c-0.086,0.142 0.02,0.377 0.179,0.41c0.752,0.158 1.51,0.244 2.278,0.223c0.183,-0.006 0.298,-0.157 0.322,-0.342c0.109,-0.843 0.191,-1.692 0.324,-2.532c0.114,-0.718 0.241,-1.43 0.225,-2.183Zm-89.123,-33.476c-0.151,2.806 -0.233,5.361 0.017,7.916c0.042,0.422 0.04,0.851 0.033,1.277c-0.034,2.008 0.233,3.999 0.315,6c0.004,0.084 0.011,0.17 0.025,0.254c0.249,1.513 0.477,3.03 0.757,4.538c0.227,1.214 0.474,2.427 0.787,3.62c0.779,2.972 1.781,5.868 3.098,8.649c0.655,1.387 1.297,2.781 1.948,4.169c0.071,0.154 0.158,0.301 0.241,0.45c0.093,0.169 0.245,0.252 0.29,0.164c0.035,-0.074 0.089,-0.161 0.075,-0.231c-0.173,-0.932 -0.191,-1.865 -0.004,-2.796c0.159,-0.794 0.34,-1.582 0.503,-2.376c0.117,-0.578 0.46,-1.136 0.327,-1.735c-0.132,-0.583 -0.532,-1.06 -0.852,-1.563c-0.092,-0.143 -0.196,-0.28 -0.282,-0.427c-0.613,-1.028 -1.148,-2.095 -1.488,-3.244c-0.35,-1.185 -0.639,-2.385 -0.873,-3.6c-0.379,-1.969 -0.674,-3.946 -0.898,-5.936c-0.171,-1.526 -0.346,-3.048 -0.387,-4.586c-0.052,-1.831 -0.142,-3.662 -0.205,-5.493c-0.055,-1.58 0.087,-3.152 0.209,-4.725c0.122,-1.571 0.226,-3.146 0.388,-4.714c0.176,-1.695 0.407,-3.384 0.622,-5.074c0.344,-2.706 0.739,-5.402 1.415,-8.05c0.158,-0.616 0.222,-1.256 0.316,-1.886c0.007,-0.053 -0.081,-0.127 -0.137,-0.175c-0.025,-0.022 -0.086,-0.022 -0.121,-0.008c-0.33,0.128 -0.577,0.372 -0.786,0.637c-0.902,1.14 -1.71,2.331 -2.179,3.732c-1.085,3.235 -2.059,6.497 -2.608,9.873c-0.068,0.42 -0.185,0.834 -0.222,1.257c-0.129,1.443 -0.231,2.888 -0.324,4.083Zm108.683,56.284c-0.033,0.654 -0.068,1.334 -0.096,2.014c-0.018,0.425 -0.027,0.85 -0.034,1.273c-0.002,0.107 0.062,0.159 0.164,0.151c0.039,-0.002 0.089,0.002 0.116,-0.02c0.098,-0.079 0.199,-0.159 0.283,-0.253c1.817,-2.031 3.583,-4.11 5.462,-6.081c1.765,-1.851 3.405,-3.809 5.104,-5.716c1.703,-1.908 3.383,-3.83 5.287,-5.542c0.154,-0.14 0.279,-0.314 0.411,-0.475c0.073,-0.09 -0.008,-0.293 -0.12,-0.301c-0.296,-0.023 -0.593,-0.04 -0.89,-0.058c-1.02,-0.061 -2.042,-0.091 -3.059,-0.186c-1.822,-0.169 -3.64,-0.38 -5.462,-0.565c-1.782,-0.181 -3.538,-0.495 -5.266,-0.974c-1.271,-0.352 -2.551,-0.672 -3.828,-1.004c-0.248,-0.064 -0.498,-0.116 -0.747,-0.168c-0.125,-0.025 -0.268,-0.046 -0.339,0.087c-0.032,0.06 -0.01,0.166 0.019,0.239c0.713,1.741 1.192,3.55 1.514,5.398c0.322,1.844 0.776,3.666 0.968,5.533c0.079,0.762 0.113,1.53 0.223,2.287c0.211,1.439 0.158,2.89 0.29,4.361Zm-7.424,-5.825c0.923,0.041 1.06,-0.107 0.849,-0.788c-0.293,-0.933 -0.619,-1.857 -0.941,-2.782c-0.084,-0.241 -0.208,-0.465 -0.303,-0.703c-0.228,-0.567 -0.615,-0.857 -1.251,-0.909c-1.32,-0.112 -2.639,-0.142 -3.958,-0.056c-1.572,0.101 -3.142,0.233 -4.714,0.347c-0.255,0.019 -0.511,0.023 -0.765,0.032c-3.199,0.118 -6.39,-0.016 -9.573,-0.342c-3.05,-0.311 -6.1,-0.642 -9.149,-0.966c-0.974,-0.105 -1.951,-0.188 -2.92,-0.328c-2.529,-0.366 -5.067,-0.662 -7.607,-0.935c-1.694,-0.183 -3.371,-0.48 -5.044,-0.807c-1.133,-0.221 -1.942,-0.809 -2.457,-1.832c-0.153,-0.304 -0.351,-0.584 -0.51,-0.885c-0.23,-0.433 -0.568,-0.608 -1.052,-0.496c-0.829,0.19 -1.669,0.345 -2.49,0.569c-1.396,0.379 -2.782,0.797 -4.169,1.209c-0.448,0.134 -0.886,0.304 -1.326,0.463c-0.202,0.073 -0.242,0.228 -0.113,0.392c0.787,0.986 1.668,1.824 3.007,1.975c0.252,0.029 0.495,0.124 0.746,0.173c2.76,0.538 5.543,0.922 8.33,1.293c1.688,0.225 3.376,0.456 5.063,0.69c1.391,0.193 2.781,0.401 4.174,0.591c1.349,0.184 2.701,0.352 4.05,0.535c0.507,0.068 1.007,0.175 1.515,0.239c3.169,0.394 6.322,0.904 9.472,1.43c2.225,0.372 4.434,0.844 6.69,1.028c2.292,0.185 4.579,0.446 6.886,0.364c0.936,-0.032 1.875,-0.007 2.812,-0.006c0.81,0.001 1.616,0.053 2.418,0.183c0.839,0.138 1.687,0.235 2.33,0.322Zm-80.646,-40.607c-0,0.753 -0.014,1.393 0.002,2.031c0.036,1.366 0.124,2.724 0.432,4.061c0.211,0.912 0.391,1.832 0.586,2.748c0.05,0.231 0.263,0.37 0.47,0.296c0.68,-0.244 1.36,-0.491 2.038,-0.741c0.181,-0.067 0.264,-0.218 0.25,-0.4c-0.048,-0.636 -0.094,-1.274 -0.169,-1.908c-0.13,-1.107 -0.15,-2.214 -0.01,-3.316c0.269,-2.113 0.523,-4.227 0.753,-6.345c0.331,-3.054 0.48,-6.117 0.631,-9.181c0.091,-1.872 0.099,-3.748 0.124,-5.622c0.019,-1.407 0.041,-2.815 -0.001,-4.219c-0.062,-2.048 0.021,-4.089 0.114,-6.133c0.067,-1.452 0.336,-2.875 0.59,-4.302c0.439,-2.474 0.877,-4.949 1.53,-7.378c0.453,-1.684 0.982,-3.349 1.506,-5.014c0.308,-0.973 0.683,-1.926 1.006,-2.895c0.103,-0.31 0.422,-0.672 0.192,-0.947c-0.308,-0.365 -0.695,0.043 -1.05,0.097c-0.042,0.006 -0.081,0.027 -0.12,0.044c-1.405,0.616 -1.223,0.388 -1.94,1.693c-1.521,2.772 -2.765,5.663 -3.641,8.705c-0.672,2.333 -1.319,4.673 -1.604,7.095c-0.099,0.844 -0.352,1.672 -0.441,2.516c-0.248,2.372 -0.583,4.738 -0.619,7.128c-0.005,0.299 -0.025,0.596 -0.051,0.893c-0.189,2.21 -0.223,4.427 -0.253,6.643c-0.033,2.556 -0.069,5.113 -0.111,7.669c-0.012,0.724 0,1.454 -0.078,2.172c-0.172,1.572 -0.185,3.146 -0.136,4.61Zm68.398,53.89c-4.185,0.048 -7.255,0.06 -10.326,0.121c-3.387,0.067 -6.727,-0.245 -10.008,-1.106c-2.761,-0.724 -5.531,-1.42 -8.254,-2.286c-0.811,-0.257 -1.633,-0.481 -2.449,-0.727c-0.774,-0.233 -1.55,-0.466 -2.318,-0.717c-1.054,-0.345 -2.107,-0.675 -3.192,-0.917c-2.749,-0.61 -5.525,-1.052 -8.305,-1.491c-0.841,-0.133 -1.686,-0.233 -2.533,-0.328c-2.076,-0.231 -4.143,-0.525 -6.136,-1.201c-2.747,-0.931 -4.358,-2.858 -5.03,-5.632c-0.06,-0.248 -0.123,-0.497 -0.176,-0.747c-0.057,-0.265 -0.2,-0.467 -0.422,-0.615c-0.355,-0.234 -0.72,-0.457 -1.068,-0.703c-1.209,-0.853 -1.312,-0.697 -0.348,-1.857c0.026,-0.032 0.035,-0.078 0.057,-0.114c0.066,-0.105 0.011,-0.268 -0.109,-0.303c-0.246,-0.074 -0.487,-0.163 -0.738,-0.209c-0.793,-0.145 -1.44,-0.511 -1.888,-1.196c-0.181,-0.279 -0.452,-0.368 -0.765,-0.379c-0.653,-0.023 -1.252,-0.227 -1.821,-0.537c-0.23,-0.126 -0.434,-0.061 -0.517,0.143c-0.352,0.868 -0.708,1.735 -1.044,2.611c-0.057,0.147 -0.061,0.344 -0.017,0.497c0.245,0.861 0.494,1.724 0.963,2.498c1.096,1.81 2.49,3.372 4.176,4.628c1.746,1.3 3.654,2.356 5.698,3.138c2.475,0.946 5.027,1.615 7.626,2.115c3.142,0.604 6.25,1.345 9.3,2.311c2.236,0.709 4.489,1.355 6.775,1.877c2.242,0.512 4.497,0.974 6.751,1.434c1.211,0.246 2.43,0.449 3.649,0.656c0.504,0.086 1.019,0.104 1.52,0.202c2.225,0.434 4.468,0.659 6.734,0.703c0.852,0.017 1.704,0.064 2.555,0.094c0.767,0.03 1.533,0.076 2.299,0.081c3.545,0.02 7.069,-0.33 10.598,-0.581c1.871,-0.133 3.742,-0.273 5.615,-0.38c0.978,-0.054 1.961,-0.038 2.941,-0.065c0.469,-0.014 0.94,-0.026 1.403,-0.087c0.599,-0.079 1.153,-0.298 1.601,-0.721c0.05,-0.046 0.049,-0.153 0.056,-0.233c0.01,-0.108 -0.049,-0.157 -0.158,-0.163c-0.127,-0.007 -0.253,-0.039 -0.379,-0.038c-1.663,0.017 -3.326,0.026 -4.989,0.058c-2.814,0.057 -5.627,0.128 -7.327,0.166Zm-79.344,-56.847c0.036,0.919 0.077,1.94 0.115,2.963c0.046,1.194 0.208,2.374 0.449,3.542c0.354,1.71 0.753,3.41 1.078,5.125c0.303,1.594 0.702,3.158 1.17,4.708c0.423,1.399 0.32,1.278 1.39,0.529c0.836,-0.587 1.712,-1.119 2.569,-1.676c0.353,-0.23 0.415,-0.349 0.294,-0.734c-0.433,-1.385 -0.747,-2.796 -0.951,-4.233c-0.089,-0.632 -0.183,-1.263 -0.282,-1.893c-0.332,-2.105 -0.658,-4.213 -0.729,-6.344c-0.073,-2.214 -0.079,-4.431 -0.096,-6.646c-0.004,-0.596 0.049,-1.193 0.089,-1.786c0.121,-1.786 0.251,-3.57 0.374,-5.355c0.062,-0.892 0.11,-1.785 0.179,-2.678c0.085,-1.105 0.227,-2.206 0.267,-3.313c0.088,-2.475 0.394,-4.922 0.813,-7.359c0.153,-0.881 0.38,-1.753 0.481,-2.639c0.126,-1.108 0.407,-2.177 0.665,-3.251c0.308,-1.284 0.648,-2.559 0.985,-3.836c0.262,-0.988 0.555,-1.966 0.979,-2.901c0.283,-0.62 0.53,-1.255 0.794,-1.885c0.05,-0.117 0.116,-0.228 0.157,-0.348c0.054,-0.16 0.132,-0.348 -0.028,-0.468c-0.067,-0.05 -0.239,-0.007 -0.338,0.044c-0.759,0.386 -1.507,0.793 -2.268,1.175c-0.846,0.426 -1.394,1.094 -1.688,1.986c-0.025,0.08 -0.06,0.158 -0.091,0.239c-0.696,1.876 -1.385,3.754 -2.092,5.625c-0.392,1.041 -0.673,2.107 -0.856,3.203c-0.196,1.175 -0.43,2.346 -0.635,3.52c-0.448,2.558 -1.025,5.095 -1.201,7.696c-0.07,1.02 -0.137,2.041 -0.268,3.055c-0.318,2.449 -0.629,4.901 -1.024,7.339c-0.35,2.157 -0.486,4.316 -0.301,6.596Zm79.507,51.442c-0.001,-0.021 -0.001,-0.042 -0.002,-0.063c1.491,-0.032 2.982,-0.063 4.473,-0.094c0.724,-0.013 1.449,-0.016 2.172,-0.037c2.172,-0.063 4.345,-0.133 6.516,-0.2c0.214,-0.006 0.427,-0.005 0.639,-0.02c0.273,-0.02 0.441,-0.238 0.421,-0.528c-0.071,-0.984 -0.296,-1.269 -1.219,-1.536c-1.152,-0.334 -2.33,-0.514 -3.53,-0.513c-2.215,0.002 -4.431,0.026 -6.647,0.023c-3.336,-0.005 -6.625,-0.377 -9.873,-1.174c-1.735,-0.425 -3.486,-0.806 -5.271,-0.986c-1.27,-0.129 -2.54,-0.31 -3.814,-0.369c-1.795,-0.084 -3.557,-0.401 -5.321,-0.678c-1.897,-0.299 -3.801,-0.492 -5.709,-0.66c-1.316,-0.116 -2.641,-0.152 -3.949,-0.314c-1.436,-0.177 -2.87,-0.375 -4.29,-0.68c-2.372,-0.51 -4.759,-0.949 -7.136,-1.441c-0.834,-0.173 -1.663,-0.375 -2.476,-0.629c-1.549,-0.486 -2.877,-1.274 -3.611,-2.825c-0.162,-0.343 -0.375,-0.67 -0.607,-0.974c-0.535,-0.699 -1.238,-1.02 -2.129,-0.847c-0.124,0.024 -0.254,0.032 -0.377,0.063c-1.697,0.413 -3.394,0.826 -5.088,1.247c-0.106,0.026 -0.245,0.105 -0.275,0.192c-0.045,0.126 0.071,0.227 0.197,0.282c0.7,0.311 1.392,0.645 2.103,0.927c1.057,0.418 1.811,1.074 2.049,2.246c0.23,1.128 0.99,1.745 2.085,1.989c0.084,0.019 0.166,0.04 0.249,0.06c1.949,0.451 3.893,0.918 5.877,1.218c2.735,0.415 5.468,0.865 8.153,1.55c1.198,0.305 2.375,0.69 3.581,0.95c2.204,0.478 4.423,0.899 6.638,1.33c2.132,0.416 4.265,0.813 6.335,1.499c1.132,0.377 2.308,0.619 3.494,0.746c2.117,0.225 4.237,0.425 6.375,0.378c1.319,-0.029 2.641,0.032 3.961,0.012c2.002,-0.029 4.004,-0.094 6.006,-0.144Zm-58.966,-52.894c0.041,2.896 0.069,5.793 0.131,8.69c0.017,0.849 0.127,1.699 0.2,2.547c0.015,0.173 0.179,0.317 0.339,0.314c0.17,-0.004 0.341,-0.004 0.509,-0.028c1.143,-0.16 2.289,-0.22 3.441,-0.1c0.082,0.008 0.182,0.013 0.249,-0.024c0.104,-0.056 0.24,-0.134 0.266,-0.231c0.057,-0.201 0.062,-0.419 0.067,-0.631c0.02,-0.894 0.025,-1.788 0.05,-2.683c0.073,-2.81 0.239,-5.619 0.195,-8.433c-0.009,-0.593 0.065,-1.189 0.12,-1.783c0.151,-1.612 0.352,-3.219 0.314,-4.843c-0.024,-0.978 -0.077,-1.957 -0.088,-2.936c-0.031,-2.854 -0.051,-5.708 -0.067,-8.563c-0.014,-2.514 -0.022,-5.027 -0.019,-7.541c0.002,-2.136 0.214,-4.25 0.68,-6.339c0.872,-3.903 2.421,-7.531 4.423,-10.975c0.667,-1.143 1.576,-2.115 2.394,-3.151c0.388,-0.49 0.955,-0.858 1.103,-1.521c-0.624,-0.35 -1.215,0.078 -1.825,0.078c-0.128,0.001 -0.255,0.022 -0.381,0.039c-1.232,0.17 -2.407,0.542 -3.563,0.987c-0.264,0.101 -0.453,0.284 -0.457,0.556c-0.015,0.731 -0.399,1.289 -0.808,1.837c-0.202,0.273 -0.414,0.545 -0.661,0.778c-0.82,0.773 -1.394,1.716 -1.9,2.705c-0.62,1.216 -1.147,2.47 -1.548,3.778c-0.561,1.832 -1.162,3.652 -1.716,5.485c-0.394,1.304 -0.806,2.609 -1.084,3.94c-0.304,1.455 -0.513,2.931 -0.636,4.421c-0.16,1.918 -0.192,3.827 -0.019,5.744c0.054,0.593 0.053,1.19 0.066,1.786c0.015,0.639 0.005,1.278 0.032,1.917c0.061,1.446 0.162,2.891 0.205,4.338c0.097,3.28 0.133,6.56 -0.012,9.842Zm57.017,-24.887c-0.025,-0.147 -0.043,-0.274 -0.067,-0.398c-0.14,-0.71 -0.277,-1.42 -0.428,-2.128c-0.011,-0.054 -0.115,-0.095 -0.184,-0.126c-0.026,-0.012 -0.081,0.017 -0.111,0.041c-0.065,0.052 -0.133,0.107 -0.18,0.175c-0.63,0.912 -1.254,1.827 -1.882,2.74c-1.45,2.105 -2.847,4.245 -4.45,6.247c-1.763,2.202 -3.675,4.264 -5.703,6.215c-1.046,1.006 -2.049,2.051 -3.009,3.133c-1.16,1.309 -2.316,2.611 -3.585,3.82c-2.563,2.442 -5.171,4.83 -7.901,7.087c-1.02,0.842 -1.977,1.755 -2.843,2.756c-0.236,0.275 -0.678,0.581 -0.457,0.961c0.237,0.407 0.686,0.098 1.039,0.017c0.166,-0.037 0.328,-0.097 0.485,-0.158c0.677,-0.259 1.35,-0.528 2.026,-0.784c0.561,-0.213 1.133,-0.385 1.746,-0.312c1.479,0.177 2.973,0.251 4.429,0.609c0.497,0.123 0.993,0.25 1.495,0.339c1.911,0.339 3.669,1.107 5.398,1.933c1.769,0.843 3.501,1.763 5.254,2.64c0.609,0.306 1.226,0.597 1.849,0.874c0.27,0.12 0.561,0.194 0.847,0.269c0.044,0.011 0.167,-0.089 0.166,-0.135c-0.003,-0.211 -0.017,-0.426 -0.064,-0.629c-0.272,-1.167 -0.445,-2.344 -0.415,-3.546c0.082,-3.197 0.248,-6.384 0.763,-9.549c0.651,-4.002 1.64,-7.925 2.719,-11.825c0.602,-2.175 1.34,-4.312 2.003,-6.47c0.323,-1.059 0.617,-2.127 0.921,-3.192c0.058,-0.204 0.096,-0.414 0.139,-0.604Zm50.423,70.933c1.67,-0.082 3.244,-0.426 4.79,-0.941c1.441,-0.478 2.669,-1.305 3.836,-2.242c0.165,-0.132 0.313,-0.294 0.442,-0.46c0.784,-1.01 1.573,-2.019 2.17,-3.157c1.051,-1.998 2.156,-3.972 3.123,-6.012c1.701,-3.585 4.045,-6.703 6.73,-9.586c1.279,-1.373 2.592,-2.711 3.899,-4.056c1.129,-1.162 2.238,-2.344 3.414,-3.457c1.02,-0.965 2.049,-1.925 3.208,-2.734c1.328,-0.927 2.654,-1.857 3.948,-2.831c1.772,-1.333 3.499,-2.723 5.033,-4.334c0.741,-0.776 1.401,-1.607 1.813,-2.61c0.245,-0.599 0.394,-1.217 0.265,-1.868c-0.024,-0.12 -0.079,-0.265 -0.169,-0.328c-0.111,-0.078 -0.218,0.043 -0.296,0.135c-0.251,0.289 -0.488,0.592 -0.75,0.871c-0.507,0.539 -1.125,0.905 -1.827,1.129c-0.302,0.096 -0.589,-0.116 -0.625,-0.454c-0.029,-0.272 0.026,-0.511 0.284,-0.655c0.11,-0.063 0.225,-0.123 0.345,-0.161c1.018,-0.322 1.581,-1.109 2.051,-1.993c0.148,-0.278 0.154,-0.572 0.081,-0.87c-0.089,-0.356 -0.407,-0.562 -0.773,-0.492c-0.124,0.023 -0.239,0.093 -0.363,0.117c-0.072,0.015 -0.179,0.007 -0.227,-0.037c-0.102,-0.098 -0.064,-0.221 0.006,-0.334c0.136,-0.215 0.279,-0.429 0.402,-0.652c0.285,-0.523 0.572,-1.046 0.836,-1.579c0.216,-0.434 0.258,-0.894 0.122,-1.366c-0.03,-0.099 -0.223,-0.184 -0.311,-0.126c-0.103,0.071 -0.223,0.129 -0.305,0.22c-0.893,0.992 -1.969,1.757 -3.076,2.484c-0.249,0.163 -0.512,0.305 -0.776,0.445c-0.199,0.105 -0.414,0.088 -0.619,0.007c-0.525,-0.21 -0.945,-0.57 -1.346,-0.957c-0.203,-0.194 -0.447,-0.237 -0.71,-0.144c-0.526,0.187 -1.012,0.433 -1.424,0.828c-0.834,0.799 -1.585,1.665 -2.263,2.601c-1.251,1.724 -2.527,3.432 -3.769,5.162c-0.522,0.725 -0.993,1.487 -1.478,2.237c-0.033,0.054 -0.025,0.176 0.014,0.222c0.041,0.048 0.162,0.081 0.216,0.055c0.697,-0.321 1.373,-0.676 2.008,-1.116c1.963,-1.358 3.972,-2.643 6.066,-3.794c1.008,-0.552 1.968,-1.191 2.932,-1.818c0.714,-0.466 1.399,-0.974 2.098,-1.462c0.102,-0.072 0.223,-0.155 0.326,-0.021c0.087,0.115 0.012,0.236 -0.056,0.339c-0.371,0.573 -0.75,1.149 -1.287,1.58c-1.094,0.88 -2.161,1.795 -3.37,2.53c-1.017,0.619 -2.01,1.286 -2.977,1.983c-1.383,0.996 -2.736,2.033 -4.093,3.064c-0.718,0.544 -1.456,1.044 -2.336,1.286c-0.319,0.088 -0.489,0.28 -0.618,0.579c-0.44,1.016 -0.848,2.053 -1.378,3.021c-1.269,2.322 -2.711,4.534 -4.451,6.54c-0.558,0.643 -1.084,1.317 -1.653,1.95c-0.855,0.95 -1.657,1.958 -2.708,2.707c-0.97,0.694 -1.963,1.357 -2.943,2.037c-1.861,1.294 -3.936,2.208 -5.894,3.329c-1.077,0.617 -2.253,1.01 -3.383,1.507c-2.268,0.996 -4.59,1.828 -6.988,2.448c-0.246,0.064 -0.488,0.15 -0.724,0.245c-0.144,0.058 -0.144,0.197 -0.075,0.308c0.205,0.325 0.428,0.638 0.632,0.961c0.656,1.047 1.384,2.054 1.848,3.208c0.729,1.818 1.484,3.628 1.979,5.531c0.063,0.247 0.138,0.494 0.245,0.725c0.045,0.097 0.177,0.19 0.284,0.212c0.207,0.043 0.423,0.034 0.595,0.044Zm-43.394,22.964c0.681,-0 1.491,0.008 2.301,-0.002c1.25,-0.016 2.441,-0.349 3.623,-0.71c0.178,-0.055 0.286,-0.209 0.273,-0.389c-0.062,-0.852 -0.029,-1.703 0.061,-2.552c0.004,-0.04 -0,-0.093 -0.022,-0.124c-0.048,-0.066 -0.104,-0.165 -0.166,-0.172c-0.209,-0.025 -0.422,-0.026 -0.633,-0.019c-1.918,0.074 -3.836,0.15 -5.752,0.225c-0.724,0.03 -1.448,0.058 -2.174,0.093c-1.107,0.051 -2.213,0.108 -3.321,0.162c-1.192,0.059 -2.384,0.123 -3.576,0.175c-0.723,0.033 -1.448,0.069 -2.173,0.072c-2.046,0.009 -4.089,-0.032 -6.136,-0.161c-1.745,-0.109 -3.478,-0.35 -5.224,-0.435c-0.979,-0.048 -1.963,-0.107 -2.929,-0.257c-2.526,-0.394 -5.046,-0.833 -7.566,-1.271c-1.09,-0.189 -2.185,-0.376 -3.258,-0.641c-2.234,-0.55 -4.467,-1.112 -6.68,-1.742c-3.116,-0.884 -6.249,-1.697 -9.388,-2.487c-0.619,-0.157 -1.24,-0.316 -1.868,-0.432c-2.306,-0.428 -4.585,-0.974 -6.85,-1.575c-0.495,-0.131 -0.991,-0.261 -1.471,-0.435c-1.886,-0.681 -3.733,-1.455 -5.492,-2.425c-1.495,-0.825 -2.935,-1.735 -4.25,-2.833c-2.051,-1.712 -3.673,-3.795 -5.161,-5.987c-0.26,-0.385 -0.453,-0.823 -0.626,-1.256c-0.46,-1.147 -0.881,-2.308 -1.176,-3.513c-0.292,-1.199 -0.609,-2.394 -0.921,-3.589c-0.064,-0.246 -0.098,-0.522 -0.237,-0.72c-0.416,-0.596 -0.935,-1.106 -1.489,-1.574c-0.205,-0.173 -0.465,-0.216 -0.726,-0.171c-0.166,0.028 -0.335,0.074 -0.487,0.145c-1.929,0.888 -1.915,0.807 -1.976,2.798c-0.045,1.462 0.181,2.899 0.514,4.308c0.578,2.456 1.376,4.837 2.811,6.953c2.103,3.1 2.697,3.901 6.368,5.918c0.112,0.062 0.227,0.118 0.34,0.18c2.612,1.444 5.315,2.708 8.005,4c1.613,0.777 3.246,1.514 4.844,2.318c2.899,1.459 5.87,2.728 8.945,3.774c2.826,0.961 5.667,1.866 8.584,2.506c2.289,0.502 4.589,0.957 6.888,1.409c1.255,0.245 2.515,0.463 3.779,0.653c0.799,0.119 1.612,0.154 2.416,0.246c1.865,0.213 3.731,0.396 5.612,0.373c1.364,-0.017 2.731,-0.026 4.094,0.002c1.279,0.027 2.557,0.09 3.832,0.171c1.192,0.076 2.378,0.225 3.57,0.293c2.866,0.163 5.706,-0.051 8.521,-0.63c2.05,-0.421 4.119,-0.69 6.347,-0.672Zm-94.4,-113.004c-0.112,0.022 -0.448,0.073 -0.777,0.15c-2.45,0.573 -4.851,1.315 -7.254,2.054c-0.691,0.214 -1.384,0.426 -2.09,0.586c-2.368,0.537 -4.743,1.042 -7.112,1.576c-2.54,0.571 -5.03,1.297 -7.422,2.344c-0.574,0.252 -1.02,0.588 -1.351,1.11c-0.55,0.869 -0.975,1.797 -1.326,2.76c-0.013,0.038 -0.003,0.083 -0.01,0.125c-0.019,0.106 0.022,0.179 0.13,0.184c0.853,0.043 1.706,0.086 2.379,-0.599c0.149,-0.151 0.322,-0.28 0.498,-0.397c0.35,-0.231 0.727,-0.257 1.088,-0.047c0.33,0.193 0.661,0.398 0.949,0.644c1.49,1.276 2.556,2.864 3.21,4.699c0.586,1.644 1.082,3.321 1.438,5.035c0.321,1.543 0.574,3.098 0.809,4.657c0.3,1.978 0.708,3.94 1.075,5.909c0.219,1.172 0.408,2.352 0.686,3.511c0.279,1.158 0.605,2.309 0.995,3.435c0.627,1.811 1.317,3.6 1.997,5.392c0.241,0.637 0.522,1.259 0.798,1.882c0.086,0.193 0.202,0.374 0.325,0.545c0.039,0.054 0.152,0.09 0.218,0.075c0.064,-0.013 0.142,-0.091 0.165,-0.157c0.47,-1.414 0.926,-2.834 1.4,-4.246c0.177,-0.524 0.369,-1.046 0.596,-1.551c1.048,-2.33 2.088,-4.665 3.173,-6.979c0.939,-2.008 1.939,-3.985 3.147,-5.85c0.139,-0.214 0.248,-0.447 0.371,-0.67c1.463,-2.658 3.075,-5.214 5.1,-7.488c0.17,-0.191 0.343,-0.381 0.492,-0.589c0.566,-0.798 1.121,-1.606 1.687,-2.406c0.215,-0.306 0.235,-0.628 0.139,-0.973c-0.091,-0.329 -0.19,-0.655 -0.262,-0.988c-0.245,-1.124 -0.53,-2.241 -0.705,-3.376c-0.245,-1.6 -0.437,-3.209 -0.78,-4.793c-0.216,-0.997 -0.469,-1.989 -0.762,-2.967c-0.207,-0.697 -0.565,-1.325 -1.079,-1.864c-0.471,-0.495 -1.031,-0.736 -1.935,-0.733Zm41.441,44.707l-0.046,-0c-0,0.81 0.014,1.62 -0.003,2.43c-0.059,2.774 0.035,5.544 0.227,8.311c0.04,0.557 0.138,0.692 0.637,0.8c1.669,0.358 3.322,0.769 4.915,1.395c0.058,0.025 0.175,0 0.213,-0.046c0.041,-0.048 0.055,-0.167 0.024,-0.223c-0.495,-0.877 -0.656,-1.841 -0.746,-2.822c-0.043,-0.467 -0.058,-0.936 -0.063,-1.405c-0.033,-2.943 0.058,-5.883 0.192,-8.824c0.053,-1.149 0.137,-2.296 0.203,-3.444c0.132,-2.302 0.052,-4.603 -0.127,-6.903c-0.132,-1.7 -0.229,-3.402 -0.341,-5.104c-0.025,-0.383 -0.024,-0.769 -0.071,-1.149c-0.152,-1.23 -0.172,-2.466 -0.184,-3.704c-0.011,-0.981 -0.002,-1.963 -0.055,-2.942c-0.075,-1.364 -0.083,-2.727 -0.019,-4.091c0.084,-1.829 0.018,-3.665 0.326,-5.484c0.144,-0.846 0.337,-1.664 0.695,-2.448c0.728,-1.597 1.624,-3.087 2.615,-4.536c1.278,-1.871 3.035,-3.078 5.092,-3.909c0.272,-0.11 0.575,-0.148 0.867,-0.203c0.212,-0.038 0.425,0.13 0.45,0.352c0.163,1.589 -0.068,3.055 -1.306,4.212c-0.218,0.204 -0.421,0.423 -0.628,0.638c-1.246,1.287 -1.982,2.861 -2.539,4.534c-0.053,0.161 -0.088,0.331 -0.105,0.499c-0.157,1.441 -0.334,2.878 -0.393,4.33c-0.057,1.41 0.042,2.811 0.077,4.217c0.054,2.175 0.055,4.35 0.101,6.524c0.034,1.663 0.161,3.325 0.141,4.987c-0.036,3.033 0.331,6.044 0.426,9.07c0.079,2.555 0.294,5.106 0.44,7.66c0.06,1.065 0.086,2.13 0.138,3.194c0.123,2.534 -0.137,5.024 -0.834,7.465c-0.116,0.406 -0.225,0.813 -0.339,1.221c0.191,0.463 0.637,0.675 0.983,0.975c1.478,1.278 2.588,2.826 3.405,4.588c0.493,1.062 0.328,1.274 -0.826,1.198c-0.493,-0.032 -0.91,-0.198 -1.245,-0.562c-0.115,-0.126 -0.228,-0.253 -0.34,-0.382c-1.159,-1.321 -2.589,-2.204 -4.296,-2.631c-0.991,-0.248 -1.984,-0.496 -2.984,-0.703c-2.634,-0.548 -5.291,-0.941 -7.982,-1.025c-2.002,-0.061 -4.007,-0.062 -6.011,-0.084c-0.204,-0.003 -0.5,-0.059 -0.565,0.169c-0.099,0.352 0.299,0.318 0.48,0.444c0.208,0.146 0.454,0.236 0.665,0.379c0.483,0.323 0.802,0.761 0.848,1.36c0.026,0.34 0.038,0.68 0.057,1.019c0.015,0.277 0.12,0.381 0.393,0.396c1.03,0.06 2.037,-0.143 3.054,-0.255c0.697,-0.077 1.19,-0.372 1.45,-1.058c0.119,-0.313 0.332,-0.596 0.528,-0.873c0.121,-0.171 0.277,-0.324 0.444,-0.452c0.356,-0.271 0.872,-0.22 1.16,0.104c0.142,0.159 0.266,0.333 0.387,0.508c0.265,0.387 0.537,0.771 0.778,1.172c0.245,0.404 0.582,0.571 1.051,0.596c1.192,0.064 2.382,0.147 3.57,0.257c1.447,0.133 2.861,0.453 4.265,0.813c1.03,0.264 1.847,0.85 2.519,1.662c0.886,1.071 0.844,2.465 -0.136,3.464c-0.239,0.241 -0.513,0.452 -0.792,0.646c-1.298,0.902 -2.648,1.713 -4.09,2.366c-0.114,0.052 -0.223,0.117 -0.329,0.185c-0.028,0.019 -0.044,0.075 -0.042,0.114c0.001,0.028 0.044,0.08 0.063,0.078c0.501,-0.072 1.017,-0.101 1.503,-0.234c1.807,-0.492 3.628,-0.937 5.384,-1.613c0.874,-0.336 1.789,-0.554 2.732,-0.638c1.295,-0.116 2.195,0.521 2.925,1.493c0.098,0.13 0.169,0.304 0.189,0.466c0.093,0.702 0.043,1.368 -0.592,1.841c-0.069,0.051 -0.131,0.108 -0.195,0.164c-0.12,0.11 -0.079,0.337 0.083,0.423c1.013,0.549 2.033,1.052 3.224,1.139c1.444,0.107 2.895,0.19 4.321,0.474c0.074,0.015 0.177,-0.002 0.236,-0.046c0.053,-0.038 0.106,-0.157 0.083,-0.201c-0.077,-0.147 -0.173,-0.292 -0.289,-0.412c-0.572,-0.597 -1.273,-1.008 -2.044,-1.277c-0.742,-0.259 -1.096,-0.759 -1.12,-1.527c-0.005,-0.17 -0.047,-0.344 -0.027,-0.509c0.065,-0.535 -0.102,-0.996 -0.349,-1.463c-0.42,-0.796 -0.696,-1.646 -0.795,-2.549c-0.064,-0.576 0.06,-1.087 0.397,-1.569c1.221,-1.748 2.435,-3.502 3.915,-5.049c1.415,-1.479 2.842,-2.945 4.263,-4.418c0.296,-0.306 0.6,-0.605 0.883,-0.925c0.476,-0.54 0.444,-0.783 -0.152,-1.246c-0.86,-0.669 -1.886,-0.972 -2.899,-1.298c-0.221,-0.07 -0.434,0.036 -0.569,0.208c-0.237,0.3 -0.474,0.606 -0.657,0.939c-0.51,0.935 -0.997,1.883 -1.487,2.829c-0.825,1.589 -1.609,3.198 -2.519,4.742c-0.629,1.066 -1.292,2.107 -2.027,3.103c-0.594,0.806 -1.375,1.393 -2.188,1.942c-0.208,0.141 -0.46,0.217 -0.694,0.319c-0.268,0.115 -0.51,0.038 -0.705,-0.149c-0.692,-0.667 -1.14,-1.483 -1.4,-2.402c-0.117,-0.41 -0.218,-0.826 -0.286,-1.246c-0.13,-0.804 -0.377,-1.573 -0.653,-2.335c-0.115,-0.321 -0.245,-0.636 -0.357,-0.959c-0.142,-0.41 -0.171,-0.819 -0.068,-1.253c0.238,-0.994 0.436,-1.999 0.662,-2.995c0.274,-1.21 0.454,-2.431 0.422,-3.674c-0.01,-0.426 -0.044,-0.852 -0.102,-1.273c-0.075,-0.539 -0.212,-0.653 -0.739,-0.659c-0.64,-0.006 -1.279,0.007 -1.92,-0.001c-0.695,-0.009 -0.865,-0.249 -0.566,-0.861c0.242,-0.496 0.511,-0.989 0.836,-1.432c0.556,-0.754 1.162,-1.472 1.753,-2.199c0.269,-0.331 0.561,-0.642 0.835,-0.97c0.215,-0.26 0.239,-0.449 0.003,-0.672c-0.715,-0.67 -0.924,-1.505 -0.859,-2.442c0.002,-0.043 0.001,-0.085 0.004,-0.128c0.175,-2.862 -0.092,-5.707 -0.333,-8.553c-0.239,-2.846 -0.488,-5.691 -0.732,-8.537c-0.019,-0.212 -0.032,-0.425 -0.06,-0.637c-0.22,-1.692 -0.403,-3.388 -0.423,-5.094c-0.027,-2.226 -0.327,-4.418 -0.687,-6.606c-0.224,-1.364 -0.139,-2.721 0.237,-4.054c0.116,-0.416 0.326,-0.782 0.612,-1.11c0.351,-0.404 0.683,-0.394 0.866,0.078c0.2,0.513 0.398,1.037 0.514,1.574c0.439,2.041 0.868,4.085 1.258,6.136c0.359,1.883 0.664,3.778 0.994,5.667c0.037,0.208 0.08,0.417 0.145,0.618c0.02,0.063 0.118,0.137 0.184,0.14c0.062,0.002 0.157,-0.069 0.185,-0.133c0.125,-0.27 0.238,-0.547 0.343,-0.825c0.663,-1.763 1.105,-3.589 1.434,-5.433c0.427,-2.391 0.747,-4.8 0.939,-7.226c0.193,-2.442 0.065,-4.852 -0.484,-7.244c-0.574,-2.5 -1.85,-4.657 -3.251,-6.758c-0.235,-0.351 -0.573,-0.505 -0.978,-0.516c-1.321,-0.032 -2.643,-0.057 -3.964,-0.083c-0.126,-0.002 -0.256,0.018 -0.382,0.034c-0.472,0.056 -0.593,0.232 -0.468,0.668c0.083,0.285 0.166,0.572 0.243,0.86c0.177,0.655 -0.004,1.175 -0.594,1.534c-0.365,0.222 -0.722,0.457 -1.095,0.661c-0.79,0.431 -1.518,0.952 -2.215,1.514c-1.167,0.944 -2.219,2.015 -3.03,3.272c-1.904,2.956 -3.303,6.155 -4.332,9.512c-0.301,0.979 -0.464,2.001 -0.493,3.022c-0.072,2.6 -0.164,5.202 -0.064,7.803c0.021,0.509 0.086,1.017 0.153,1.524c0.227,1.733 0.432,3.468 0.397,5.224c-0.019,1.021 -0.029,2.051 0.066,3.067c0.266,2.85 0.251,5.708 0.31,8.563c0.019,0.936 -0.085,1.873 -0.132,2.81Zm127.679,-4.8c-0.194,-0.061 -0.317,0.058 -0.439,0.176c-0.432,0.417 -0.9,0.786 -1.436,1.058c-0.25,0.126 -0.5,0.092 -0.717,-0.083c-0.131,-0.107 -0.26,-0.227 -0.359,-0.362c-0.292,-0.4 -0.405,-0.809 -0.165,-1.305c0.335,-0.689 0.622,-1.402 0.906,-2.114c0.222,-0.556 0.378,-1.13 0.409,-1.735c0.084,-1.591 -0.078,-3.159 -0.56,-4.675c-0.54,-1.696 -1.45,-3.173 -2.827,-4.335c-0.358,-0.303 -0.714,-0.608 -1.058,-0.927c-0.155,-0.142 -0.285,-0.313 -0.412,-0.483c-0.159,-0.215 -0.107,-0.536 0.112,-0.68c0.177,-0.116 0.356,-0.244 0.552,-0.312c1.434,-0.502 2.899,-0.68 4.406,-0.408c0.083,0.015 0.168,0.035 0.247,0.066c0.215,0.082 0.377,0.226 0.345,0.471c-0.055,0.411 0.129,0.644 0.499,0.77c0.04,0.014 0.08,0.03 0.119,0.046c0.267,0.111 0.427,0.323 0.385,0.597c-0.096,0.639 0.1,1.072 0.743,1.275c0.157,0.05 0.298,0.164 0.437,0.262c0.184,0.131 0.283,0.318 0.29,0.542c0.003,0.127 -0,0.262 -0.04,0.381c-0.151,0.454 -0.011,0.835 0.259,1.195c0.051,0.068 0.084,0.149 0.135,0.218c0.224,0.302 0.274,0.641 0.105,0.963c-0.307,0.586 -0.089,0.972 0.41,1.285c0.035,0.023 0.065,0.054 0.1,0.079c0.591,0.394 0.661,0.948 0.48,1.578c-0.133,0.459 -0.366,0.869 -0.681,1.219c-0.376,0.42 -0.332,0.842 -0.096,1.295c0.118,0.224 0.37,0.282 0.512,0.106c0.08,-0.099 0.166,-0.194 0.232,-0.304c1.084,-1.784 2.215,-3.541 3.025,-5.478c0.164,-0.393 0.379,-0.764 0.559,-1.15c0.65,-1.389 1.324,-2.765 1.8,-4.231c0.515,-1.582 0.906,-3.195 1.284,-4.813c0.223,-0.955 0.403,-1.916 0.454,-2.901c0.159,-3.15 -0.303,-6.206 -1.367,-9.171c-0.186,-0.52 -0.44,-1.017 -0.649,-1.529c-0.153,-0.372 -0.448,-0.497 -0.814,-0.491c-0.391,0.007 -0.762,0.109 -1.072,0.359c-0.165,0.132 -0.305,0.296 -0.464,0.437c-0.215,0.189 -0.483,0.199 -0.692,0.018c-0.754,-0.647 -1.372,-1.4 -1.753,-2.326c-0.096,-0.234 -0.146,-0.489 -0.196,-0.737c-0.052,-0.259 0.104,-0.517 0.356,-0.606c0.524,-0.183 1.058,-0.334 1.615,-0.363c1.923,-0.098 3.837,-0.077 5.725,0.369c2.246,0.531 4.263,1.473 5.844,3.213c0.057,0.062 0.116,0.13 0.188,0.166c0.069,0.031 0.168,0.048 0.233,0.021c0.062,-0.025 0.127,-0.113 0.135,-0.181c0.162,-1.172 -0.2,-2.19 -0.946,-3.08c-0.468,-0.56 -1.036,-1.008 -1.662,-1.387c-1.028,-0.622 -2.121,-1.084 -3.285,-1.389c-1.24,-0.323 -2.5,-0.514 -3.773,-0.661c-1.588,-0.182 -3.148,-0.09 -4.701,0.256c-1,0.222 -1.992,0.472 -2.924,0.907c-0.76,0.356 -1.935,-0.42 -1.816,-1.366c0.042,-0.337 0.126,-0.669 0.212,-0.998c0.103,-0.389 0.336,-0.671 0.706,-0.857c0.996,-0.5 2.026,-0.912 3.122,-1.11c3.206,-0.576 6.366,-0.421 9.462,0.641c0.242,0.083 0.483,0.17 0.729,0.237c0.042,0.011 0.114,-0.062 0.16,-0.108c0.01,-0.009 -0.024,-0.084 -0.054,-0.108c-0.166,-0.133 -0.328,-0.272 -0.507,-0.384c-2.051,-1.282 -4.269,-2.081 -6.667,-2.455c-2.242,-0.35 -4.414,-0.209 -6.548,0.553c-0.483,0.171 -0.965,0.341 -1.448,0.511c-0.453,0.159 -0.911,0.186 -1.385,0.088c-0.547,-0.113 -1.066,-0.3 -1.56,-0.556c-0.386,-0.202 -0.692,-0.495 -0.886,-0.892c-0.101,-0.206 -0.106,-0.432 0.039,-0.603c0.191,-0.225 0.406,-0.439 0.646,-0.61c0.698,-0.496 1.443,-0.901 2.258,-1.179c1.669,-0.57 3.379,-0.853 5.145,-0.876c1.586,-0.021 3.149,0.088 4.688,0.495c2.632,0.696 5.02,1.881 7.188,3.52c0.476,0.359 0.926,0.752 1.396,1.119c0.078,0.062 0.185,0.199 0.298,0.057c0.044,-0.055 0.051,-0.169 0.027,-0.24c-0.238,-0.685 -0.537,-1.341 -0.914,-1.965c-0.471,-0.779 -1.052,-1.449 -1.813,-1.952c-0.854,-0.564 -1.733,-1.081 -2.678,-1.488c-2.215,-0.957 -4.516,-1.516 -6.932,-1.616c-2.397,-0.1 -4.772,0.042 -7.113,0.602c-0.455,0.108 -0.899,0.262 -1.35,0.387c-0.57,0.156 -0.966,0.523 -1.252,1.023c-0.17,0.295 -0.336,0.594 -0.482,0.902c-0.256,0.536 -0.708,0.718 -1.257,0.688c-0.338,-0.02 -0.68,-0.079 -1.008,-0.166c-1.117,-0.299 -1.416,-0.69 -1.419,-1.665c-0.002,-0.539 -0.183,-0.993 -0.508,-1.41c-0.157,-0.201 -0.289,-0.423 -0.415,-0.645c-0.197,-0.346 -0.169,-0.637 0.102,-0.936c0.171,-0.189 0.349,-0.383 0.559,-0.521c0.498,-0.327 1.009,-0.634 1.53,-0.923c0.259,-0.145 0.552,-0.225 0.824,-0.345c0.115,-0.051 0.218,-0.128 0.321,-0.202c0.027,-0.019 0.052,-0.081 0.042,-0.106c-0.03,-0.067 -0.073,-0.17 -0.124,-0.178c-0.79,-0.13 -1.518,0.14 -2.238,0.395c-0.808,0.288 -1.532,0.726 -2.202,1.272c-0.678,0.551 -1.151,0.545 -1.841,0.007c-0.403,-0.313 -0.758,-0.687 -1.122,-1.045c-0.212,-0.208 -0.393,-0.448 -0.603,-0.658c-0.127,-0.127 -0.294,-0.172 -0.468,-0.084c-0.342,0.174 -0.664,0.407 -1.025,0.516c-1.099,0.331 -2.46,0.355 -2.923,-1.163c-0.301,-0.989 -1.032,-1.627 -1.971,-2.062c-2.052,-0.95 -4.122,-1.832 -6.344,-2.338c-1.166,-0.266 -2.337,-0.476 -3.517,-0.647c-0.504,-0.073 -1.018,-0.072 -1.529,-0.092c-0.068,-0.003 -0.139,0.063 -0.207,0.097c0.038,0.068 0.06,0.173 0.117,0.196c0.432,0.179 0.868,0.352 1.308,0.507c1.207,0.424 2.417,0.84 3.558,1.424c0.416,0.213 0.833,0.436 1.216,0.703c0.654,0.454 1.074,1.083 1.233,1.876c0.051,0.253 -0.179,0.556 -0.424,0.515c-0.503,-0.085 -1.011,-0.164 -1.5,-0.307c-0.981,-0.287 -1.957,-0.586 -2.888,-1.025c-0.378,-0.178 -0.766,-0.385 -1.208,-0.383c-0.034,0 -0.077,0.04 -0.101,0.072c-0.02,0.027 -0.037,0.08 -0.025,0.104c0.1,0.186 0.202,0.371 0.313,0.55c0.427,0.687 0.862,1.37 1.282,2.062c0.202,0.333 0.308,0.702 0.266,1.099c-0.02,0.185 -0.127,0.343 -0.29,0.384c-1.024,0.261 -2.012,0.304 -2.919,-0.399c-0.505,-0.39 -1.052,-0.727 -1.597,-1.061c-0.953,-0.581 -1.975,-1.008 -3.072,-1.23c-1.904,-0.384 -3.813,-0.373 -5.718,0.016c-1.012,0.207 -1.97,0.545 -2.816,1.159c-0.412,0.301 -0.828,0.599 -1.241,0.9c-0.172,0.127 -0.335,0.263 -0.509,0.386c-0.16,0.112 -0.365,0.054 -0.547,-0.142c-0.361,-0.386 -0.479,-0.394 -0.756,-0.009c-0.223,0.311 -0.434,0.633 -0.627,0.964c-0.626,1.067 -1.167,2.177 -1.667,3.309c-0.43,0.974 -0.842,1.962 -1.359,2.891c-1.057,1.9 -2.278,3.701 -3.521,5.485c-0.169,0.244 -0.356,0.484 -0.567,0.692c-0.527,0.521 -1.118,0.921 -1.91,0.891c-0.164,-0.007 -0.334,0.04 -0.491,0.091c-0.054,0.017 -0.115,0.131 -0.107,0.192c0.021,0.167 0.059,0.336 0.121,0.491c0.344,0.84 0.459,1.728 0.551,2.619c0.107,1.034 -0.048,2.038 -0.398,3.017c-0.148,0.41 -0.371,0.765 -0.667,1.078c-0.135,0.144 -0.392,0.182 -0.589,0.091c-0.453,-0.209 -0.6,-0.449 -0.534,-0.896c0.024,-0.168 0.065,-0.335 0.098,-0.501c0.32,-1.576 0.255,-3.151 -0.159,-4.69c-0.506,-1.886 -1.552,-3.388 -3.322,-4.336c-0.935,-0.501 -1.938,-0.615 -2.965,-0.665c-1.149,-0.057 -2.187,0.277 -3.135,0.911c-0.857,0.574 -1.614,1.262 -2.215,2.104c-0.619,0.867 -1.227,1.742 -1.811,2.634c-1.62,2.481 -2.858,5.134 -3.525,8.036c-0.443,1.926 -0.566,3.874 -0.419,5.843c0.048,0.649 0.243,1.25 0.539,1.826c0.285,0.555 0.704,0.944 1.293,1.17c0.908,0.346 1.827,0.419 2.757,0.142c1.031,-0.307 1.985,-0.777 2.819,-1.465c0.395,-0.324 0.764,-0.681 1.153,-1.011c0.087,-0.074 0.21,-0.116 0.324,-0.142c0.079,-0.017 0.089,0.289 0.002,0.475c-0.055,0.117 -0.114,0.23 -0.171,0.344c-0.574,1.148 -1.269,2.214 -2.053,3.231c-1.659,2.15 -2.853,4.543 -3.596,7.153c-0.315,1.105 -0.588,2.223 -0.856,3.342c-0.704,2.945 -1.262,5.917 -1.641,8.921c-0.145,1.141 -0.313,2.277 -0.313,3.435c-0.003,2.174 -0.052,4.347 -0.081,6.521c-0.004,0.255 0.008,0.512 -0.014,0.767c-0.017,0.211 -0.063,0.42 -0.114,0.626c-0.019,0.078 -0.092,0.205 -0.131,0.203c-0.119,-0.012 -0.27,-0.041 -0.342,-0.123c-0.324,-0.364 -0.4,-0.846 -0.514,-1.294c-0.516,-2.026 -0.93,-4.075 -1.088,-6.163c-0.186,-2.47 -0.12,-4.943 0.124,-7.408c0.084,-0.846 0.13,-1.694 0.308,-2.536c0.336,-1.588 0.843,-3.125 1.294,-4.679c0.647,-2.224 1.544,-4.331 2.79,-6.288c0.341,-0.537 0.623,-1.113 0.922,-1.677c0.09,-0.17 -0.008,-0.336 -0.21,-0.358c-0.856,-0.09 -1.674,-0.305 -2.436,-0.717c-0.26,-0.139 -0.526,-0.267 -0.789,-0.4c-0.309,0.208 -0.305,0.575 -0.425,0.875c-0.159,0.394 -0.278,0.806 -0.408,1.211c-0.585,1.825 -1.192,3.643 -1.741,5.48c-0.292,0.978 -0.499,1.983 -0.706,2.984c-0.46,2.211 -0.871,4.432 -1.349,6.639c-0.271,1.251 -0.525,2.504 -0.623,3.78c-0.24,3.153 -0.239,6.306 0.204,9.445c0.166,1.179 0.308,2.367 0.719,3.5c0.247,0.681 0.485,1.364 0.709,2.053c0.676,2.071 1.655,4.017 2.516,6.011c0.743,1.721 1.502,3.435 2.282,5.14c0.787,1.719 0.999,3.509 0.766,5.37c-0.035,0.293 -0.041,0.592 -0.033,0.889c0.006,0.237 0.302,0.471 0.535,0.45c0.127,-0.011 0.256,-0.022 0.378,-0.051c2.832,-0.661 5.698,-1.057 8.605,-1.137c0.595,-0.016 1.191,0.023 1.786,0.059c1.284,0.078 2.528,0.369 3.757,0.735c0.857,0.255 1.711,0.522 2.567,0.782c2.371,0.721 4.784,1.245 7.247,1.509c0.804,0.087 1.618,0.096 2.427,0.125c4.064,0.145 8.093,-0.109 12.07,-1.021c1.872,-0.43 3.684,-1.062 5.535,-1.56c2.233,-0.954 4.514,-1.8 6.673,-2.922c0.68,-0.354 1.332,-0.764 2.018,-1.105c1.912,-0.95 3.748,-2.024 5.491,-3.259c0.625,-0.444 1.224,-0.928 1.862,-1.352c2.272,-1.507 4.099,-3.455 5.652,-5.675c1.349,-1.926 2.446,-3.997 3.52,-6.083c0.332,-0.646 0.565,-1.344 0.665,-2.059c0.113,-0.797 0.479,-1.436 0.945,-2.061c1.249,-1.675 2.48,-3.362 3.7,-5.057c0.797,-1.107 1.564,-2.235 2.335,-3.36c0.241,-0.351 0.451,-0.723 0.667,-1.089c0.089,-0.151 0.118,-0.316 0.046,-0.487c0.112,0.001 0.11,-0.076 0.04,-0.057c-0.161,0.046 0.004,-0.086 -0.013,0.083Zm-181.119,20.83c-0.113,-2.091 0.195,-4.166 0.298,-6.25c0.054,-1.065 0.119,-2.129 0.184,-3.193c0.024,-0.389 -0.031,-0.764 -0.17,-1.128c-0.466,-1.236 -0.925,-2.473 -1.389,-3.71c-0.524,-1.396 -1.052,-2.791 -1.574,-4.188c-0.671,-1.796 -1.339,-3.593 -2.005,-5.392c-0.252,-0.68 -0.426,-1.378 -0.555,-2.096c-0.379,-2.096 -0.802,-4.184 -1.208,-6.276c-0.413,-2.133 -0.81,-4.268 -1.297,-6.388c-0.548,-2.388 -1.523,-4.607 -2.559,-6.804c-0.365,-0.775 -0.874,-1.463 -1.451,-2.098c-0.217,-0.238 -0.471,-0.339 -0.798,-0.295c-0.887,0.118 -1.777,0.212 -2.663,0.332c-3.129,0.426 -6.272,0.685 -9.427,0.802c-1.79,0.067 -3.573,0.22 -5.356,0.386c-0.678,0.062 -1.363,0.045 -2.044,0.043c-0.329,-0.001 -0.517,-0.294 -0.431,-0.633c0.053,-0.205 0.1,-0.418 0.189,-0.609c0.493,-1.054 0.457,-0.987 1.514,-1.041c1.787,-0.09 3.578,-0.138 5.364,-0.255c1.829,-0.121 3.653,-0.309 5.481,-0.46c0.422,-0.036 0.725,-0.231 0.908,-0.606c0.319,-0.651 0.631,-1.304 0.941,-1.958c0.327,-0.694 0.648,-1.39 0.973,-2.085c0.243,-0.521 0.632,-0.897 1.142,-1.163c1.4,-0.727 2.805,-1.429 4.337,-1.861c3.53,-0.994 7.092,-1.843 10.69,-2.543c1.759,-0.343 3.49,-0.786 5.205,-1.308c1.913,-0.583 3.846,-1.11 5.782,-1.618c0.656,-0.172 1.344,-0.223 2.021,-0.311c0.644,-0.084 1.275,0.053 1.902,0.176c0.203,0.04 0.404,0.144 0.579,0.26c0.723,0.479 1.318,1.076 1.673,1.885c0.463,1.054 0.923,2.109 1.15,3.248c0.1,0.5 0.242,0.993 0.386,1.484c0.129,0.444 0.337,0.568 0.748,0.475c0.207,-0.047 0.411,-0.112 0.616,-0.169c2.465,-0.686 4.904,-1.446 7.289,-2.376c0.674,-0.263 1.357,-0.508 2.042,-0.742c2.423,-0.826 4.791,-1.788 7.112,-2.865c2.481,-1.151 5.037,-2.077 7.669,-2.823c2.5,-0.71 5.001,-1.417 7.531,-2.017c2.324,-0.55 4.681,-0.922 7.045,-1.253c3.259,-0.456 6.536,-0.607 9.825,-0.523c0.511,0.014 1.023,0.057 1.463,-0.307c0.204,-0.168 0.475,-0.175 0.733,-0.17c0.256,0.005 0.513,0.004 0.766,0.032c2.458,0.274 4.916,0.542 7.371,0.833c1.652,0.196 3.284,0.514 4.903,0.893c4.157,0.972 8.244,2.159 12.129,3.967c0.115,0.055 0.232,0.106 0.352,0.152c2.488,0.971 4.703,2.392 6.748,4.095c0.261,0.218 0.526,0.433 0.794,0.642c0.141,0.111 0.327,0.086 0.445,-0.067c0.394,-0.504 0.782,-1.012 1.168,-1.522c0.538,-0.716 1.064,-1.441 1.611,-2.149c0.711,-0.921 1.591,-1.657 2.561,-2.292c0.432,-0.283 0.895,-0.473 1.405,-0.587c1.92,-0.431 3.728,-0.15 5.432,0.812c0.444,0.251 0.856,0.558 1.284,0.839c0.138,0.091 0.323,0.047 0.43,-0.108c0.072,-0.105 0.137,-0.215 0.2,-0.325c0.215,-0.379 0.51,-0.68 0.849,-0.946c0.78,-0.609 1.424,-1.343 1.998,-2.146c0.967,-1.352 1.959,-2.687 2.907,-4.052c1.488,-2.139 3.064,-4.209 4.814,-6.135c1.357,-1.494 2.952,-2.703 4.882,-3.402c0.202,-0.072 0.402,-0.142 0.6,-0.221c0.246,-0.097 0.448,-0.243 0.537,-0.509c0.027,-0.081 0.068,-0.157 0.097,-0.237c0.608,-1.72 1.883,-2.792 3.458,-3.583c3.007,-1.511 6.2,-2.107 9.541,-1.914c0.848,0.048 1.705,0.164 2.528,0.369c1.818,0.451 3.635,0.929 5.422,1.487c1.545,0.484 3.039,1.118 4.435,1.959c1.035,0.624 1.922,1.41 2.669,2.358c0.158,0.201 0.3,0.418 0.475,0.603c0.288,0.3 0.403,0.838 0.875,0.868c0.388,0.026 0.63,-0.395 0.952,-0.593c0.803,-0.494 1.655,-0.869 2.534,-1.208c2.089,-0.808 4.245,-0.888 6.426,-0.634c3.723,0.433 7.069,1.846 10.12,3.996c0.453,0.319 0.909,0.634 1.372,0.939c0.499,0.328 1.03,0.593 1.589,0.814c1.19,0.467 2.374,0.951 3.548,1.455c1.865,0.801 3.478,1.974 4.935,3.377c0.558,0.537 1.014,1.157 1.384,1.83c0.937,1.697 1.628,3.475 1.584,5.457c-0.009,0.454 0.099,0.834 0.418,1.16c0.148,0.153 0.28,0.322 0.419,0.482c0.779,0.894 1.235,1.949 1.414,3.103c0.17,1.093 0.301,2.192 0.298,3.308c-0.006,2.313 -0.999,4.101 -2.806,5.469c-1.028,0.779 -2.178,1.335 -3.393,1.758c-0.201,0.069 -0.403,0.143 -0.609,0.196c-0.769,0.198 -0.829,0.266 -0.731,1.167c0.247,2.267 -0.013,4.5 -0.496,6.727c-0.607,2.803 -1.51,5.504 -2.626,8.137c-0.599,1.412 -1.193,2.829 -1.959,4.163c-0.85,1.477 -1.71,2.949 -2.565,4.424c-0.235,0.404 -0.476,0.804 -0.705,1.212c-0.087,0.154 0.059,0.343 0.25,0.322c0.252,-0.029 0.501,-0.073 0.752,-0.112c0.167,-0.026 0.334,-0.058 0.501,-0.083c0.112,-0.017 0.243,0.114 0.23,0.233c-0.034,0.338 -0.114,0.67 -0.026,1.015c0.084,0.333 0.376,0.523 0.661,0.383c0.959,-0.472 1.87,-1.027 2.693,-1.709c0.261,-0.217 0.488,-0.477 0.709,-0.736c0.109,-0.127 0.157,-0.298 0.055,-0.471c-0.116,-0.201 -0.297,-0.314 -0.52,-0.31c-0.164,0.003 -0.334,0.054 -0.491,0.112c-0.521,0.188 -1.034,0.393 -1.554,0.579c-0.115,0.042 -0.273,0.05 -0.333,-0.092c-0.045,-0.106 -0.068,-0.25 -0.035,-0.356c0.091,-0.283 0.22,-0.555 0.331,-0.831c0.354,-0.877 0.601,-1.775 0.553,-2.735c-0.007,-0.124 0.017,-0.254 0.046,-0.376c0.041,-0.175 0.145,-0.313 0.33,-0.347c0.184,-0.032 0.354,0.047 0.418,0.214c0.167,0.436 0.315,0.881 0.449,1.328c0.061,0.201 0.048,0.425 0.113,0.625c0.034,0.106 0.149,0.209 0.255,0.262c0.108,0.054 0.247,0.054 0.374,0.065c0.671,0.055 1.193,0.398 1.693,0.82c0.697,0.589 1.046,1.318 1.079,2.226c0.025,0.686 -0.006,1.364 -0.143,2.036c-0.05,0.251 -0.113,0.5 -0.15,0.752c-0.04,0.261 0.002,0.508 0.209,0.702c0.094,0.088 0.178,0.184 0.267,0.277c0.524,0.552 0.743,1.224 0.801,1.97c0.161,2.1 -0.21,4.075 -1.332,5.883c-0.18,0.288 -0.349,0.584 -0.516,0.88c-0.084,0.151 0.046,0.336 0.228,0.351c0.386,0.032 0.764,0.006 1.138,-0.112c0.608,-0.194 1.22,-0.379 1.83,-0.569c1.871,-0.581 3.742,-1.166 5.616,-1.741c0.157,-0.049 0.33,-0.046 0.497,-0.058c0.037,-0.003 0.097,0.021 0.111,0.05c0.012,0.025 -0.015,0.09 -0.044,0.111c-0.132,0.1 -0.258,0.222 -0.409,0.282c-2.34,0.923 -4.626,1.967 -6.895,3.053c-0.811,0.388 -1.696,0.566 -2.573,0.746c-0.209,0.042 -0.421,0.066 -0.632,0.103c-0.856,0.148 -1.605,0.501 -2.29,1.054c-1.856,1.5 -3.741,2.966 -5.618,4.441c-0.435,0.342 -0.887,0.664 -1.331,0.996c-1.923,1.436 -3.629,3.104 -5.201,4.908c-1.4,1.608 -2.769,3.243 -4.142,4.874c-0.273,0.324 -0.505,0.685 -0.756,1.03c-0.4,0.552 -0.793,1.11 -1.205,1.654c-0.93,1.225 -1.755,2.511 -2.437,3.895c-1.262,2.56 -2.541,5.115 -3.855,7.65c-1.287,2.486 -3.024,4.621 -5.092,6.512c-1.274,1.164 -2.679,2.106 -4.188,2.909c-1.407,0.749 -2.927,1.155 -4.492,1.412c-0.252,0.042 -0.51,0.047 -0.761,0.097c-0.179,0.034 -0.299,0.171 -0.307,0.357c-0.037,0.851 -0.079,1.703 -0.092,2.554c-0.018,1.268 -0.366,2.441 -0.978,3.538c-0.54,0.968 -1.076,1.939 -1.662,2.879c-0.98,1.578 -2.322,2.829 -3.755,3.983c-0.431,0.347 -0.933,0.583 -1.464,0.768c-1.734,0.605 -3.519,1.027 -5.3,1.448c-1.91,0.451 -3.804,0.954 -5.668,1.563c-2.065,0.675 -4.183,1.185 -6.213,1.969c-2.027,0.782 -4.056,1.559 -6.08,2.353c-1.037,0.408 -1.971,1.01 -2.891,1.63c-0.532,0.357 -1.073,0.693 -1.672,0.93c-0.621,0.247 -1.158,0.174 -1.608,-0.365c-0.302,-0.358 -0.644,-0.682 -0.948,-1.039c-0.283,-0.336 -0.634,-0.412 -1.036,-0.332c-0.627,0.127 -1.255,0.253 -1.877,0.397c-2.534,0.583 -5.087,1.071 -7.648,1.514c-2.099,0.362 -4.198,0.737 -6.301,1.067c-1.474,0.232 -2.957,0.412 -4.438,0.587c-2.074,0.245 -4.149,0.494 -6.228,0.685c-1.953,0.18 -3.911,0.289 -5.867,0.425c-0.681,0.047 -1.362,0.097 -2.043,0.108c-2.09,0.035 -4.178,0.049 -6.268,0.073c-0.338,0.005 -0.679,0.017 -1.017,0.04c-0.149,0.011 -0.22,0.146 -0.212,0.267c0.01,0.167 0.058,0.335 0.118,0.493c0.319,0.846 0.801,1.604 1.36,2.304c1.252,1.564 2.479,3.154 3.815,4.645c1.374,1.533 2.551,3.194 3.634,4.934c0.135,0.216 0.249,0.447 0.349,0.681c0.468,1.098 0.93,2.197 1.387,3.3c0.063,0.155 0.084,0.328 0.117,0.494c0.025,0.128 -0.124,0.359 -0.25,0.41c-0.324,0.131 -0.664,0.169 -1.002,0.12c-0.154,-0.023 -0.327,-0.125 -0.428,-0.243c-0.191,-0.224 -0.353,-0.479 -0.501,-0.737c-0.505,-0.889 -1.02,-1.774 -1.495,-2.68c-0.737,-1.406 -1.664,-2.676 -2.681,-3.889c-1.178,-1.405 -2.369,-2.799 -3.525,-4.222c-0.643,-0.793 -1.252,-1.62 -1.831,-2.463c-0.651,-0.95 -1.216,-1.953 -1.598,-3.049c-0.11,-0.319 -0.33,-0.491 -0.655,-0.524c-1.273,-0.13 -2.545,-0.267 -3.819,-0.377c-3.188,-0.27 -6.359,-0.663 -9.497,-1.288c-0.962,-0.192 -1.922,-0.384 -2.881,-0.588c-0.417,-0.088 -0.836,-0.178 -1.24,-0.309c-2.919,-0.946 -5.857,-1.835 -8.652,-3.125c-0.657,-0.304 -1.348,-0.533 -2.009,-0.828c-3.543,-1.583 -7.029,-3.279 -10.365,-5.269c-0.513,-0.304 -0.996,-0.658 -1.496,-0.983c-0.357,-0.229 -0.721,-0.45 -1.085,-0.67c-0.102,-0.061 -0.279,0.041 -0.285,0.154c-0.046,0.949 0.113,1.871 0.38,2.775c0.398,1.348 0.812,2.692 1.237,4.033c0.587,1.854 1.571,3.5 2.789,4.995c1.237,1.52 2.567,2.957 4.003,4.304c1.93,1.809 3.708,3.769 5.305,5.884c0.155,0.203 0.319,0.4 0.487,0.592c1.097,1.253 2.099,2.58 3.03,3.96c0.549,0.813 1.115,1.613 1.667,2.423c0.119,0.175 0.022,0.46 -0.16,0.543c-0.648,0.297 -1.326,0.313 -2.004,0.166c-0.337,-0.074 -0.613,-0.303 -0.841,-0.561c-0.309,-0.351 -0.6,-0.72 -0.891,-1.09c-1.292,-1.64 -2.57,-3.294 -3.876,-4.925c-1.118,-1.399 -2.284,-2.756 -3.538,-4.038c-1.52,-1.555 -3.012,-3.138 -4.511,-4.713c-0.352,-0.371 -0.694,-0.751 -1.026,-1.141c-1.369,-1.608 -2.405,-3.409 -3.115,-5.398c-0.143,-0.401 -0.279,-0.807 -0.444,-1.199c-0.796,-1.897 -1.355,-3.86 -1.673,-5.888c-0.153,-0.967 -0.29,-1.94 -0.378,-2.915c-0.044,-0.498 -0.169,-0.902 -0.572,-1.221c-1.619,-1.279 -2.859,-2.92 -4.217,-4.448c-1.503,-1.69 -2.948,-3.426 -4.311,-5.23c-0.36,-0.476 -0.735,-0.945 -1.045,-1.453c-1.286,-2.111 -2.588,-4.215 -3.691,-6.431c-0.646,-1.297 -1.268,-2.603 -1.718,-3.987c-0.328,-1.013 -0.736,-2 -1.085,-3.006c-0.728,-2.095 -1.293,-4.238 -1.776,-6.401c-0.408,-1.83 -0.825,-3.658 -1.199,-5.495c-0.161,-0.791 -0.275,-1.6 -0.321,-2.406c-0.107,-1.871 -0.35,-3.738 -0.24,-5.623Z" style="fill:#231f20;fill-rule:nonzero;"/>
                <path d="M343.389,323.405c0.042,-1.747 0.052,-3.496 0.135,-5.241c0.059,-1.277 0.209,-2.549 0.326,-3.823c0.067,-0.721 0.137,-1.443 0.228,-2.162c0.081,-0.637 0.139,-1.263 -0.031,-1.901c-0.142,-0.532 0.028,-1.026 0.396,-1.418c0.407,-0.435 0.831,-0.857 1.286,-1.241c2.384,-2.02 5.008,-3.69 7.735,-5.201c0.707,-0.392 1.425,-0.767 2.153,-1.123c1.079,-0.528 2.232,-0.836 3.405,-1.067c0.2,-0.039 0.42,0.002 0.626,0.032c0.052,0.007 0.132,0.127 0.122,0.181c-0.082,0.473 -0.31,0.883 -0.627,1.232c-0.605,0.667 -1.275,1.236 -2.108,1.628c-1.234,0.578 -2.435,1.227 -3.649,1.846c-1.339,0.683 -2.484,1.649 -3.67,2.552c-0.779,0.594 -1.527,1.231 -2.284,1.854c-0.198,0.163 -0.386,0.336 -0.569,0.516c-0.786,0.771 -0.78,0.798 -0.834,1.894c-0.217,4.346 -0.271,8.693 -0.322,13.042c-0.039,3.496 -0.225,6.989 -0.729,10.455c-0.122,0.842 -0.334,1.672 -0.458,2.515c-0.406,2.748 -1.139,5.417 -1.889,8.084c-0.23,0.82 -0.419,1.653 -0.639,2.475c-0.175,0.658 -0.349,1.319 -0.563,1.966c-0.694,2.103 -1.368,4.213 -2.126,6.294c-0.525,1.439 -1.132,2.853 -1.777,4.242c-1.595,3.443 -3.267,6.848 -5.185,10.126c-1.142,1.949 -2.282,3.9 -3.461,5.826c-1.002,1.634 -2.023,3.258 -3.102,4.842c-1.056,1.55 -2.196,3.041 -3.301,4.558c-0.024,0.035 -0.051,0.067 -0.076,0.102c-2.42,3.57 -5.227,6.84 -7.883,10.228c-1.847,2.357 -3.957,4.466 -6.108,6.536c-0.707,0.68 -1.402,1.365 -2.029,2.125c-1.921,2.323 -4.265,4.163 -6.785,5.789c-1.112,0.465 -2.009,1.26 -2.991,1.928c-1.16,0.788 -2.367,1.505 -3.559,2.249c-2.605,1.625 -5.328,3.04 -8.05,4.457c-0.565,0.295 -1.159,0.539 -1.749,0.786c-3.264,1.364 -6.552,2.664 -9.998,3.518c-1.942,0.481 -3.871,1.018 -5.815,1.49c-1.532,0.372 -3.077,0.681 -4.661,0.769c-2.681,0.15 -5.36,0.324 -8.041,0.48c-1.49,0.087 -2.982,0.139 -4.47,0.242c-1.32,0.091 -2.628,0.266 -3.886,0.716c-0.763,0.272 -1.541,0.496 -2.306,0.764c-1.568,0.548 -3.148,1.052 -4.741,1.53c-1.754,0.524 -3.473,1.166 -5.208,1.754c-0.484,0.164 -0.972,0.321 -1.458,0.479c-0.457,0.146 -0.933,0.185 -1.387,0.043c-1.096,-0.344 -2.19,-0.703 -3.269,-1.099c-0.683,-0.252 -1.12,-0.759 -1.247,-1.499c-0.008,-0.043 -0.018,-0.084 -0.024,-0.126c-0.103,-0.685 -0.395,-1.298 -0.712,-1.906c-0.709,-1.362 -1.481,-2.688 -2.324,-3.97c-0.351,-0.533 -0.739,-1.047 -1.157,-1.53c-0.934,-1.078 -2.039,-1.932 -3.395,-2.428c-0.28,-0.103 -0.552,-0.226 -0.83,-0.332c-0.249,-0.095 -0.489,-0.214 -0.519,-0.504c-0.047,-0.44 0.02,-0.861 0.417,-1.138c0.093,-0.066 0.244,-0.098 0.356,-0.078c0.549,0.102 1.061,0.311 1.558,0.563c2.134,1.079 3.927,2.547 5.234,4.573c0.161,0.251 0.313,0.509 0.49,0.748c1.022,1.374 1.932,2.81 2.535,4.424c0.125,0.335 0.412,0.431 0.723,0.245c0.29,-0.174 0.566,-0.378 0.835,-0.584c1.561,-1.199 3.191,-2.271 5.027,-3.021c1.152,-0.47 2.344,-0.773 3.549,-1.049c0.505,-0.116 1.016,-0.1 1.527,-0.047c3.906,0.399 7.818,0.619 11.747,0.51c2.429,-0.065 4.86,-0.041 7.291,-0.063c0.724,-0.006 1.449,-0.024 2.173,-0.05c0.514,-0.018 0.992,-0.129 1.469,-0.369c0.564,-0.284 1.193,-0.44 1.793,-0.654c0.84,-0.302 1.698,-0.567 2.469,-1.036c0.072,-0.044 0.143,-0.101 0.223,-0.123c1.279,-0.351 2.37,-1.153 3.64,-1.533c0.32,-0.096 0.634,-0.258 0.908,-0.452c0.528,-0.372 1.109,-0.638 1.697,-0.879c1.814,-0.741 3.562,-1.616 5.32,-2.478c1.148,-0.565 2.216,-1.268 3.37,-1.815c0.424,-0.201 0.827,-0.449 1.261,-0.622c2.352,-0.939 4.448,-2.329 6.571,-3.675c0.612,-0.387 1.26,-0.726 1.837,-1.16c2.624,-1.97 5.26,-3.927 7.784,-6.028c1.018,-0.845 1.953,-1.78 2.857,-2.747c1.458,-1.556 2.917,-3.111 4.379,-4.661c2.548,-2.7 4.898,-5.572 7.291,-8.407c2.833,-3.355 5.566,-6.794 8.274,-10.25c2.13,-2.717 4.235,-5.456 6.039,-8.411c2.044,-3.347 4.053,-6.715 6.014,-10.111c0.917,-1.591 1.761,-3.214 2.494,-4.895c0.12,-0.273 0.255,-0.542 0.355,-0.821c0.757,-2.127 1.51,-4.256 2.261,-6.385c0.085,-0.241 0.153,-0.488 0.239,-0.729c0.884,-2.45 1.513,-4.97 2.083,-7.508c0.394,-1.749 0.613,-3.524 0.856,-5.297c0.3,-2.198 0.5,-4.406 0.601,-6.619c0.044,-0.98 0.057,-1.961 0.085,-2.94c-0.014,-0.001 -0.028,-0.001 -0.042,-0.002Z" style="fill:#231f20;fill-rule:nonzero;"/>
                <path d="M260.536,271.885c-1.065,0.026 -2.131,0.051 -3.196,0.075c-0.342,0.008 -0.685,-0.001 -1.023,0.032c-0.67,0.065 -1.149,-0.239 -1.53,-0.749c-0.765,-1.026 -1.457,-2.094 -1.945,-3.291c-0.822,-2.012 -1.598,-4.04 -2.278,-6.105c-0.104,-0.319 -0.272,-0.617 -0.417,-0.922c-0.014,-0.03 -0.072,-0.039 -0.108,-0.057c-0.088,-0.047 -0.164,-0.022 -0.197,0.084c-0.092,0.281 -0.194,0.561 -0.257,0.849c-0.424,1.957 -0.836,3.916 -1.256,5.874c-0.045,0.206 -0.1,0.414 -0.177,0.61c-0.123,0.307 -0.561,0.458 -0.872,0.311c-0.423,-0.198 -0.666,-0.537 -0.683,-0.999c-0.009,-0.251 0.063,-0.504 0.097,-0.757c0.085,-0.617 -0.056,-0.751 -0.704,-0.646c-1.684,0.276 -3.358,0.587 -4.992,1.091c-0.569,0.177 -1.146,0.328 -1.726,0.47c-1.581,0.386 -3.09,0.962 -4.544,1.684c-2.711,1.344 -5.441,2.648 -8.114,4.063c-2.26,1.194 -4.446,2.526 -6.669,3.789c-1.669,0.949 -3.294,1.967 -4.863,3.073c-0.73,0.514 -1.43,1.074 -2.14,1.618c-2.136,1.639 -4.014,3.566 -5.962,5.414c-0.802,0.76 -1.513,1.617 -2.256,2.439c-0.943,1.044 -1.874,2.099 -2.816,3.143c-0.112,0.125 -0.256,0.221 -0.387,0.326c-0.087,0.069 -0.289,0.012 -0.324,-0.086c-0.044,-0.119 -0.116,-0.237 -0.124,-0.359c-0.04,-0.637 -0.065,-1.276 -0.091,-1.914c-0.018,-0.409 0.143,-0.744 0.43,-1.029c0.665,-0.661 1.325,-1.327 1.989,-1.988c0.483,-0.482 0.996,-0.936 1.447,-1.446c0.68,-0.768 1.422,-1.47 2.183,-2.156c0.917,-0.828 1.844,-1.644 2.773,-2.462c0.222,-0.198 0.454,-0.389 0.694,-0.565c1.924,-1.413 3.841,-2.833 5.782,-4.223c0.726,-0.52 1.5,-0.974 2.261,-1.443c0.798,-0.492 1.602,-0.973 2.41,-1.449c0.734,-0.432 1.47,-0.862 2.219,-1.27c1.309,-0.713 2.626,-1.415 3.945,-2.109c0.981,-0.516 1.972,-1.012 2.958,-1.517c0.871,-0.447 1.726,-0.931 2.618,-1.331c3.513,-1.572 7.136,-2.798 10.947,-3.425c1.05,-0.173 2.095,-0.387 3.144,-0.566c0.339,-0.057 0.526,-0.245 0.625,-0.554c0.392,-1.215 0.834,-2.421 0.845,-3.724c0.004,-0.51 0.256,-0.931 0.93,-1.025c0.294,-0.042 0.595,-0.064 0.889,-0.045c0.697,0.045 1.205,0.404 1.504,1.03c0.202,0.423 0.379,0.859 0.547,1.295c0.404,1.043 0.973,1.988 1.66,2.866c0.788,1.007 1.566,2.022 2.353,3.032c0.576,0.738 1.179,1.459 1.616,2.297c0.199,0.38 0.535,0.527 0.949,0.531c0.554,0.003 1.108,0.009 1.663,0.01c1.961,0.002 3.919,0.049 5.878,0.194c1.529,0.114 3.064,0.161 4.59,0.339c3.512,0.407 7.035,0.743 10.492,1.536c3.239,0.743 6.459,1.541 9.606,2.642c2.532,0.886 5.089,1.708 7.581,2.706c0.989,0.395 1.964,0.823 2.943,1.242c0.587,0.252 1.164,0.533 1.759,0.765c2.747,1.071 5.351,2.432 7.919,3.868c0.595,0.333 1.201,0.647 1.799,0.973c0.862,0.468 1.738,0.91 2.578,1.415c2.559,1.534 5.102,3.092 7.651,4.642c1.129,0.686 2.279,1.336 3.345,2.124c0.701,0.519 1.498,0.755 2.378,0.818c2.423,0.172 4.845,0.375 7.264,0.601c5.614,0.524 11.147,1.488 16.548,3.139c1.263,0.386 2.524,0.776 3.779,1.188c0.4,0.131 0.81,0.265 1.144,0.549c0.113,0.096 0.142,0.349 0.028,0.458c-0.121,0.118 -0.236,0.251 -0.379,0.335c-0.404,0.237 -0.821,0.452 -1.231,0.679c-0.633,0.352 -1.296,0.399 -1.979,0.19c-2.614,-0.798 -5.297,-1.269 -7.976,-1.792c-3.73,-0.727 -7.497,-1.126 -11.271,-1.496c-1.91,-0.187 -3.818,-0.379 -5.728,-0.565c-0.551,-0.055 -1.103,-0.099 -1.655,-0.144c-1.572,-0.129 -3.143,-0.271 -4.715,-0.378c-1.914,-0.13 -3.828,-0.306 -5.744,-0.331c-4.647,-0.058 -9.295,-0.036 -13.941,-0.055c-1.541,-0.006 -3.063,0.196 -4.593,0.316c-1.358,0.106 -2.717,0.249 -4.069,0.424c-1.31,0.169 -2.613,0.382 -3.914,0.608c-1.595,0.276 -3.184,0.589 -4.776,0.876c-0.504,0.091 -1.012,0.17 -1.527,0.104c-0.07,-0.009 -0.192,-0.086 -0.19,-0.126c0.004,-0.115 0.031,-0.26 0.105,-0.334c0.12,-0.115 0.28,-0.195 0.434,-0.266c0.348,-0.162 0.699,-0.317 1.054,-0.46c2.06,-0.828 4.185,-1.446 6.333,-1.998c1.738,-0.447 3.5,-0.735 5.271,-0.996c2.07,-0.305 4.151,-0.456 6.23,-0.65c0.297,-0.029 0.595,-0.048 0.894,-0.058c4.217,-0.148 8.423,-0.538 12.647,-0.554c0.126,-0 0.254,-0.023 0.379,-0.045c0.031,-0.006 0.081,-0.044 0.082,-0.069c0.004,-0.08 0.02,-0.196 -0.023,-0.233c-0.255,-0.224 -0.514,-0.447 -0.793,-0.638c-2.22,-1.512 -4.473,-2.972 -6.84,-4.249c-2.512,-1.356 -4.969,-2.815 -7.552,-4.042c-3.888,-1.848 -7.79,-3.663 -11.866,-5.066c-0.484,-0.166 -0.96,-0.356 -1.428,-0.56c-3.773,-1.633 -7.706,-2.722 -11.728,-3.527c-2.299,-0.46 -4.611,-0.842 -6.93,-1.175c-1.055,-0.151 -2.118,-0.239 -3.179,-0.343c-2.164,-0.212 -4.336,-0.323 -6.511,-0.375Z" style="fill:#231f20;fill-rule:nonzero;"/>
                <path d="M274.485,336.932c-0.063,-0.049 -0.175,-0.096 -0.179,-0.149c-0.021,-0.348 0.104,-0.665 0.241,-0.979c0.735,-1.677 1.493,-3.341 2.37,-4.95c0.879,-1.612 1.84,-3.163 3.016,-4.577c0.218,-0.261 0.421,-0.537 0.656,-0.782c1.213,-1.254 2.417,-2.52 3.659,-3.745c1.212,-1.198 2.548,-2.249 3.923,-3.263c1.716,-1.266 3.534,-2.368 5.305,-3.547c1.462,-0.971 3.009,-1.761 4.598,-2.482c0.225,-0.102 0.478,-0.143 0.721,-0.203c0.028,-0.008 0.08,0.035 0.103,0.066c0.021,0.028 0.035,0.085 0.019,0.109c-0.107,0.179 -0.193,0.383 -0.338,0.524c-0.858,0.827 -1.703,1.671 -2.603,2.45c-1.03,0.889 -2.104,1.73 -3.179,2.566c-1.277,0.994 -2.565,1.972 -3.865,2.934c-1.134,0.841 -2.127,1.838 -3.125,2.822c-1.699,1.673 -3.371,3.371 -4.884,5.222c-0.974,1.189 -1.79,2.486 -2.692,3.724c-0.853,1.169 -1.666,2.368 -2.675,3.414c-0.266,0.275 -0.55,0.531 -0.836,0.785c-0.054,0.047 -0.155,0.042 -0.235,0.061Z" style="fill:#231f20;fill-rule:nonzero;"/>
                <path d="M177.036,254.644c0.077,0.028 0.165,0.043 0.23,0.09c0.065,0.047 0.116,0.122 0.158,0.194c0.492,0.846 0.915,1.725 1.251,2.649c0.8,2.196 1.614,4.388 2.428,6.58c0.636,1.713 1.278,3.425 1.929,5.133c0.243,0.635 0.519,1.257 0.784,1.884c0.71,1.684 1.423,3.368 2.136,5.052c0.083,0.196 0.161,0.389 0.125,0.613c-0.023,0.141 -0.252,0.308 -0.375,0.234c-0.216,-0.13 -0.46,-0.24 -0.629,-0.418c-0.291,-0.308 -0.564,-0.641 -0.79,-0.998c-0.661,-1.042 -1.3,-2.099 -1.793,-3.233c-1.445,-3.312 -2.929,-6.606 -4.278,-9.96c-0.699,-1.739 -1.404,-3.466 -1.882,-5.28c-0.044,-0.165 -0.103,-0.324 -0.15,-0.488c-0.226,-0.788 0.053,-1.415 0.629,-1.942c0.06,-0.055 0.151,-0.075 0.227,-0.11Z" style="fill:#231f20;fill-rule:nonzero;"/>
                <path d="M184.702,251.883c0.12,0.053 0.295,0.096 0.426,0.194c0.698,0.522 1.24,1.153 1.491,2.017c0.415,1.436 0.677,2.904 0.993,4.361c0.662,3.04 1.296,6.086 2.244,9.054c0.31,0.974 0.565,1.965 0.833,2.952c0.055,0.203 0.063,0.42 0.067,0.631c0.002,0.066 -0.068,0.166 -0.13,0.193c-0.065,0.028 -0.187,0.016 -0.238,-0.03c-0.223,-0.194 -0.456,-0.387 -0.638,-0.617c-0.722,-0.911 -1.249,-1.93 -1.611,-3.034c-0.226,-0.687 -0.438,-1.381 -0.655,-2.071c-1.166,-3.698 -2.336,-7.394 -3.494,-11.094c-0.178,-0.568 -0.31,-1.152 -0.438,-1.733c-0.049,-0.224 0.072,-0.411 0.27,-0.534c0.256,-0.161 0.532,-0.264 0.88,-0.289Z" style="fill:#231f20;fill-rule:nonzero;"/>
                <path d="M174.655,274.435c0.765,0.056 1.514,0.203 2.256,0.401c0.445,0.117 0.747,0.381 0.944,0.786c0.463,0.956 0.927,1.911 1.396,2.865c0.526,1.066 1.059,2.13 1.586,3.196c0.491,0.99 0.98,1.979 1.466,2.972c0.073,0.15 0.143,0.317 0.055,0.481c-0.034,0.064 -0.121,0.105 -0.192,0.142c-0.029,0.015 -0.087,0.006 -0.116,-0.014c-0.737,-0.507 -1.427,-1.056 -1.957,-1.798c-1.582,-2.214 -3.194,-4.405 -4.784,-6.613c-0.422,-0.585 -0.812,-1.194 -1.203,-1.802c-0.084,-0.131 -0.206,-0.322 -0.039,-0.455c0.119,-0.096 0.304,-0.113 0.461,-0.16c0.039,-0.011 0.084,-0.001 0.127,-0.001Z" style="fill:#231f20;fill-rule:nonzero;"/>
                <path d="M197.35,257.126c-0.068,-1.153 -0.019,-2.302 0.041,-3.45c0.011,-0.207 0.079,-0.411 0.136,-0.613c0.039,-0.142 0.314,-0.217 0.435,-0.128c0.102,0.076 0.222,0.136 0.302,0.23c0.193,0.226 0.392,0.454 0.542,0.707c0.678,1.129 0.752,1.056 0.571,2.391c-0.139,1.018 -0.149,2.027 -0.077,3.053c0.159,2.249 0.243,4.505 0.352,6.757c0.015,0.297 0.014,0.598 -0.01,0.894c-0.023,0.28 0.09,0.677 -0.274,0.765c-0.253,0.061 -0.41,-0.258 -0.554,-0.464c-0.422,-0.602 -0.658,-1.246 -0.717,-2.006c-0.212,-2.716 -0.492,-5.425 -0.747,-8.136Z" style="fill:#231f20;fill-rule:nonzero;"/>
                <path d="M242.692,358.084c-0.022,-0.643 -0.062,-1.277 -0.204,-1.907c-0.075,-0.331 -0.092,-0.674 -0.127,-1.013c-0.016,-0.147 0.1,-0.29 0.202,-0.263c0.079,0.022 0.185,0.027 0.23,0.08c0.976,1.155 1.714,2.446 2.074,3.919c0.421,1.721 0.444,3.455 0.094,5.2c-0.175,0.874 -0.528,1.612 -1.257,2.149c-0.205,0.152 -0.387,0.336 -0.588,0.493c-0.407,0.317 -0.759,0.278 -1.109,-0.133c-0.138,-0.161 -0.265,-0.335 -0.367,-0.52c-0.126,-0.225 -0.199,-0.469 -0.098,-0.735c0.133,-0.358 0.254,-0.722 0.393,-1.079c0.262,-0.68 0.46,-1.374 0.523,-2.103c0.032,-0.382 -0.074,-0.578 -0.417,-0.683c-0.488,-0.147 -0.979,-0.304 -1.479,-0.4c-2.343,-0.45 -4.689,-0.878 -7.035,-1.317c-1.298,-0.243 -2.596,-0.486 -3.891,-0.739c-1.192,-0.231 -2.267,-0.744 -3.27,-1.404c-1.071,-0.703 -2.045,-1.525 -2.947,-2.442c-1.891,-1.922 -3.517,-4.058 -5.089,-6.235c-1.647,-2.281 -3.25,-4.593 -4.878,-6.887c-1.284,-1.806 -2.576,-3.606 -3.867,-5.41c-0.073,-0.103 -0.152,-0.205 -0.233,-0.303c-0.338,-0.406 -0.631,-0.502 -1.129,-0.313c-0.477,0.181 -0.939,0.403 -1.411,0.601c-0.802,0.336 -1.454,0.181 -2.06,-0.483c-0.191,-0.21 -0.182,-0.487 0.041,-0.672c1.124,-0.942 2.348,-1.719 3.806,-2.001c1.128,-0.218 2.271,-0.4 3.415,-0.484c0.756,-0.055 1.535,0.043 2.29,0.156c1.949,0.292 3.844,0.779 5.558,1.801c0.215,0.129 0.402,0.306 0.599,0.467c0.025,0.021 0.025,0.076 0.033,0.117c0.018,0.091 -0.03,0.15 -0.144,0.144c-0.169,-0.007 -0.339,-0.015 -0.505,-0.045c-0.294,-0.052 -0.582,-0.138 -0.875,-0.18c-2.502,-0.359 -5.017,-0.331 -7.532,-0.208c-0.125,0.006 -0.248,0.055 -0.37,0.087c-0.089,0.023 -0.181,0.236 -0.136,0.319c0.059,0.111 0.106,0.231 0.174,0.335c1.864,2.805 3.759,5.587 5.855,8.229c1.191,1.501 2.283,3.083 3.4,4.642c1.47,2.05 3.126,3.939 4.888,5.738c1.598,1.632 3.523,2.676 5.765,3.098c2.387,0.449 4.782,0.849 7.174,1.265c1.176,0.204 2.353,0.398 3.53,0.595c0.167,0.028 0.336,0.056 0.505,0.079c0.145,0.02 0.362,-0.14 0.374,-0.282c0.036,-0.424 0.064,-0.849 0.095,-1.273Z" style="fill:#231f20;fill-rule:nonzero;"/>
                <path d="M244.252,316.72c0.025,1.024 -0.252,2.189 -0.43,3.366c-0.042,0.28 -0.308,0.409 -0.583,0.31c-0.753,-0.271 -1.349,-0.718 -1.65,-1.489c-0.062,-0.158 -0.104,-0.324 -0.162,-0.484c-0.119,-0.328 -0.177,-0.368 -0.558,-0.379c-0.213,-0.005 -0.426,0.004 -0.639,-0.003c-0.519,-0.019 -1.011,-0.145 -1.46,-0.411c-0.439,-0.259 -0.876,-0.522 -1.308,-0.794c-0.504,-0.318 -0.998,-0.654 -1.502,-0.971c-1.58,-0.996 -3.312,-1.534 -5.167,-1.681c-0.848,-0.067 -1.698,-0.099 -2.548,-0.144c-0.375,-0.019 -0.399,-0.041 -0.412,-0.466c-0.008,-0.282 -0.088,-0.38 -0.332,-0.374c-0.469,0.011 -0.937,0.042 -1.405,0.045c-0.208,0.001 -0.419,-0.039 -0.629,-0.066c-0.106,-0.014 -0.164,-0.207 -0.115,-0.306c0.159,-0.32 0.462,-0.494 0.724,-0.703c0.28,-0.223 0.472,-0.469 0.494,-0.845c0.015,-0.23 0.183,-0.425 0.408,-0.424c0.489,0.001 0.907,-0.2 1.338,-0.379c0.196,-0.081 0.407,-0.129 0.602,-0.211c0.537,-0.225 1.094,-0.264 1.617,-0.034c0.508,0.222 0.874,0.2 1.188,-0.295c0.108,-0.168 0.405,-0.148 0.585,-0.031c0.036,0.024 0.073,0.046 0.103,0.075c0.597,0.584 1.322,0.728 2.123,0.638c0.254,-0.028 0.51,-0.026 0.765,-0.031c0.264,-0.004 0.515,0.06 0.692,0.266c0.283,0.328 0.627,0.399 1.037,0.322c0.299,-0.057 0.597,-0.049 0.823,0.209c0.227,0.256 0.52,0.262 0.823,0.214c0.168,-0.027 0.334,-0.07 0.503,-0.092c0.227,-0.029 0.422,0.054 0.568,0.221c0.14,0.16 0.256,0.341 0.389,0.506c0.143,0.179 0.345,0.237 0.565,0.236c0.085,0 0.175,0.005 0.253,-0.022c0.698,-0.237 1.242,0.053 1.742,0.498c0.159,0.141 0.328,0.273 0.477,0.424c0.711,0.726 1.201,1.544 1.084,2.617c-0.019,0.167 -0.003,0.339 -0.003,0.688Z" style="fill:#231f20;fill-rule:nonzero;"/>
                <path d="M191.448,316.011c-0.385,-0.017 -0.768,-0.052 -1.151,-0.046c-0.468,0.007 -0.939,0.02 -1.402,0.081c-0.915,0.12 -1.109,0.36 -1.037,1.248c0.031,0.381 0.085,0.763 0.161,1.139c0.12,0.596 -0.01,1.076 -0.497,1.48c-0.289,0.241 -0.532,0.55 -0.75,0.861c-0.114,0.164 -0.144,0.393 -0.187,0.598c-0.041,0.187 0.22,0.454 0.391,0.404c0.244,-0.071 0.501,-0.131 0.716,-0.258c0.597,-0.349 1.096,-0.808 1.431,-1.426c0.102,-0.185 0.209,-0.367 0.319,-0.546c0.019,-0.032 0.085,-0.071 0.106,-0.06c0.069,0.035 0.152,0.078 0.184,0.141c0.231,0.455 0.185,0.913 -0.048,1.346c-0.075,0.14 -0.228,0.255 -0.369,0.339c-0.439,0.261 -0.901,0.484 -1.334,0.752c-0.525,0.324 -1.111,0.433 -1.7,0.514c-0.193,0.027 -0.417,-0.062 -0.607,-0.143c-0.253,-0.11 -0.394,-0.338 -0.381,-0.613c0.015,-0.295 0.043,-0.597 0.126,-0.878c0.132,-0.45 0.358,-0.86 0.623,-1.253c0.648,-0.964 0.694,-0.994 0.259,-1.962c-0.563,-1.248 -0.219,-2.332 0.461,-3.373c0.303,-0.465 0.728,-0.835 1.182,-1.157c0.427,-0.304 0.903,-0.477 1.431,-0.488c1.193,-0.025 2.387,-0.094 3.56,0.226c0.245,0.067 0.499,0.115 0.752,0.142c0.223,0.026 0.415,-0.072 0.557,-0.25c0.514,-0.644 0.63,-1.318 0.404,-2.147c-0.386,-1.427 -1.936,-2.623 -3.487,-2.806c-0.304,-0.036 -0.593,0.038 -0.873,0.151c-0.677,0.273 -1.304,0.632 -1.839,1.132c-0.312,0.291 -0.632,0.583 -0.888,0.919c-1.297,1.708 -2.393,3.526 -2.946,5.623c-0.197,0.745 -0.275,1.509 -0.294,2.278c-0.009,0.383 -0.036,0.766 -0.077,1.145c-0.026,0.237 -0.315,0.444 -0.557,0.435c-0.316,-0.013 -0.612,-0.249 -0.638,-0.518c-0.058,-0.597 -0.039,-1.195 0.066,-1.784c0.126,-0.713 0.262,-1.426 0.431,-2.13c0.665,-2.759 2.009,-5.143 3.991,-7.169c0.817,-0.835 1.752,-1.472 2.904,-1.784c1.177,-0.321 2.277,-0.198 3.32,0.428c0.254,0.152 0.512,0.31 0.738,0.503c1.436,1.224 2.143,2.706 1.7,4.639c-0.258,1.132 -0.622,2.213 -1.163,3.236c-0.1,0.188 -0.211,0.371 -0.325,0.55c-0.196,0.306 -0.479,0.483 -0.841,0.514c-0.339,0.028 -0.68,0.059 -1.02,0.054c-0.468,-0.007 -0.935,-0.047 -1.403,-0.073c-0,-0.005 -0,-0.01 0.001,-0.014Z" style="fill:#231f20;fill-rule:nonzero;"/>
                <path d="M213.284,378.624c-0.79,-0.053 -1.729,-0.075 -2.659,-0.186c-1.108,-0.133 -2.145,-0.529 -3.129,-1.054c-0.112,-0.06 -0.211,-0.145 -0.325,-0.203c-2.345,-1.184 -3.831,-3.191 -5.134,-5.371c-0.975,-1.629 -1.525,-3.406 -1.887,-5.258c-0.297,-1.529 -0.255,-3.048 -0.024,-4.572c0.288,-1.898 0.696,-3.767 1.388,-5.565c0.074,-0.197 0.174,-0.386 0.266,-0.576c0.043,-0.091 0.119,-0.104 0.209,-0.038c0.031,0.023 0.057,0.058 0.076,0.094c0.11,0.204 0.046,0.414 0.019,0.623c-0.167,1.266 -0.332,2.532 -0.506,3.797c-0.193,1.403 -0.173,2.803 0.03,4.202c0.098,0.673 0.209,1.345 0.313,2.017c0.106,0.68 0.337,1.324 0.641,1.934c0.687,1.371 1.444,2.703 2.394,3.917c0.504,0.642 1.063,1.221 1.721,1.701c0.55,0.403 1.113,0.786 1.672,1.174c0.895,0.619 1.898,0.98 2.964,1.111c2.343,0.285 4.679,0.179 6.989,-0.31c1.221,-0.258 2.348,-0.771 3.393,-1.44c1.435,-0.919 2.842,-1.878 4.264,-2.815c0.319,-0.21 0.651,-0.403 0.984,-0.59c0.055,-0.032 0.149,-0.003 0.222,0.013c0.089,0.02 0.086,0.227 -0.019,0.334c-0.626,0.637 -1.227,1.304 -1.896,1.892c-0.927,0.815 -1.89,1.594 -2.871,2.343c-2.075,1.588 -4.369,2.627 -7.035,2.695c-0.638,0.017 -1.275,0.079 -2.06,0.131Z" style="fill:#231f20;fill-rule:nonzero;"/>
                <path d="M222.937,321.384c0.655,0.09 1.331,0.172 2.005,0.277c1.095,0.172 2.178,0.397 3.239,0.728c0.499,0.155 0.947,0.38 1.354,0.702c0.887,0.7 1.103,1.751 0.552,2.725c-0.126,0.223 -0.274,0.432 -0.397,0.656c-0.128,0.235 -0.057,0.51 0.176,0.676c0.314,0.221 0.631,0.436 0.956,0.64c2.458,1.544 4.789,3.266 7.113,5.001c1.026,0.765 2.051,1.529 3.083,2.286c0.384,0.282 0.537,0.237 0.814,-0.188c0.024,-0.036 0.045,-0.072 0.066,-0.11c0.843,-1.491 2.07,-2.575 3.556,-3.402c1.046,-0.584 2.121,-1.093 3.263,-1.455c0.193,-0.062 0.415,-0.048 0.622,-0.042c0.049,0.002 0.142,0.124 0.132,0.174c-0.12,0.611 -0.394,1.096 -0.997,1.386c-1.118,0.536 -2.146,1.223 -3.123,1.988c-0.923,0.723 -1.647,1.601 -2.12,2.679c-0.154,0.35 -0.127,0.663 0.145,0.94c0.299,0.305 0.6,0.605 0.897,0.91c0.295,0.305 0.59,0.612 0.874,0.928c0.047,0.053 0.059,0.165 0.042,0.239c-0.033,0.139 -0.156,0.176 -0.287,0.185c-0.31,0.019 -0.589,-0.069 -0.835,-0.259c-0.37,-0.287 -0.737,-0.578 -1.107,-0.867c-0.119,-0.093 -0.24,-0.066 -0.328,0.036c-0.05,0.057 -0.09,0.16 -0.075,0.231c0.051,0.249 0.122,0.494 0.194,0.739c0.284,0.971 0.271,1.938 -0.057,2.892c-0.334,0.973 -0.783,1.89 -1.424,2.703c-0.13,0.167 -0.273,0.326 -0.425,0.475c-0.23,0.227 -0.647,0.289 -0.815,0.13c-0.213,-0.201 -0.222,-0.47 -0.149,-0.714c0.097,-0.324 0.248,-0.633 0.386,-0.943c0.228,-0.506 0.463,-1.006 0.697,-1.509c0.497,-1.071 0.35,-2.075 -0.329,-3.014c-0.199,-0.275 -0.425,-0.532 -0.657,-0.781c-0.642,-0.689 -1.374,-1.273 -2.132,-1.831c-0.456,-0.334 -0.508,-0.968 -0.156,-1.472c0.074,-0.104 0.346,-0.189 0.464,-0.121c0.296,0.167 0.597,0.328 0.868,0.53c0.478,0.357 0.933,0.744 1.402,1.113c0.184,0.144 0.447,0.153 0.443,0.034c-0.004,-0.112 -0.028,-0.261 -0.103,-0.326c-0.705,-0.618 -1.405,-1.243 -2.142,-1.822c-1.005,-0.791 -2.044,-1.539 -3.062,-2.312c-2.002,-1.525 -4.028,-3.015 -6.145,-4.377c-0.397,-0.256 -0.786,-0.508 -1.081,-0.886c-0.194,-0.247 -0.299,-0.52 -0.253,-0.83c0.044,-0.294 0.125,-0.583 0.179,-0.875c0.044,-0.251 0.094,-0.502 0.104,-0.756c0.012,-0.271 -0.117,-0.488 -0.337,-0.652c-0.351,-0.258 -0.746,-0.418 -1.158,-0.526c-0.866,-0.224 -1.739,-0.423 -2.606,-0.641c-0.536,-0.135 -1.072,-0.275 -1.6,-0.439c-0.197,-0.062 -0.377,-0.192 -0.551,-0.31c-0.057,-0.041 -0.106,-0.149 -0.097,-0.219c0.008,-0.068 0.084,-0.167 0.148,-0.184c0.244,-0.06 0.496,-0.093 0.774,-0.14Z" style="fill:#231f20;fill-rule:nonzero;"/>
                <path d="M224.877,296.107c-1.96,-0.024 -3.906,-0.236 -5.854,-0.449c-1.653,-0.181 -3.315,-0.196 -4.974,-0.11c-1.232,0.065 -2.285,0.615 -3.271,1.314c-0.476,0.337 -0.625,0.896 -0.931,1.349c-0.058,0.086 -0.262,0.086 -0.335,-0.002c-0.429,-0.51 -0.464,-0.89 -0.115,-1.375c0.125,-0.172 0.251,-0.347 0.4,-0.498c0.695,-0.695 1.436,-1.328 2.306,-1.8c2.259,-1.227 4.68,-1.79 7.241,-1.738c0.721,0.016 1.45,0.083 2.155,0.227c2.386,0.483 4.69,1.23 6.883,2.296c0.108,0.051 0.188,0.163 0.277,0.251c0.075,0.072 0.059,0.143 0.008,0.232c-0.139,0.236 -0.339,0.38 -0.602,0.425c-0.124,0.02 -0.255,0.011 -0.381,0.006c-0.936,-0.041 -1.871,-0.085 -2.807,-0.128Z" style="fill:#231f20;fill-rule:nonzero;"/>
                <path d="M208.158,321.877c-0.595,0 -1.191,0.001 -1.787,-0.001c-0.213,0 -0.428,0.005 -0.638,-0.019c-0.122,-0.013 -0.255,-0.077 -0.264,-0.224c-0.004,-0.071 0.044,-0.177 0.1,-0.213c0.58,-0.358 1.169,-0.679 1.85,-0.833c2.526,-0.571 5.06,-0.623 7.602,-0.143c0.669,0.127 1.336,0.262 1.998,0.423c0.494,0.121 0.992,0.252 1.463,0.442c2.415,0.974 4.73,2.135 6.804,3.732c0.748,0.574 1.41,1.232 1.966,1.992c0.065,0.088 0.065,0.237 0.061,0.355c-0.004,0.112 -0.262,0.261 -0.403,0.262c-0.355,0.002 -0.652,-0.134 -0.945,-0.332c-0.634,-0.429 -1.27,-0.856 -1.929,-1.245c-2.778,-1.631 -5.777,-2.682 -8.918,-3.363c-2.294,-0.498 -4.605,-0.84 -6.96,-0.833Z" style="fill:#231f20;fill-rule:nonzero;"/>
                <path d="M227.171,362.875c-1.441,-0.006 -2.77,-0.455 -4.005,-1.143c-2.137,-1.189 -4.025,-2.699 -5.553,-4.628c-0.264,-0.334 -0.522,-0.672 -0.788,-1.004c-0.961,-1.192 -1.467,-2.575 -1.704,-4.071c-0.048,-0.301 0.166,-0.505 0.443,-0.434c0.551,0.141 1.031,0.406 1.398,0.84c0.247,0.291 0.474,0.601 0.685,0.92c1.139,1.72 2.551,3.175 4.188,4.427c1.979,1.513 4.18,2.606 6.48,3.523c0.236,0.094 0.48,0.17 0.72,0.258c0.236,0.086 0.526,0.147 0.503,0.474c-0.021,0.286 -0.277,0.406 -0.5,0.533c-0.585,0.331 -1.226,0.308 -1.867,0.305Z" style="fill:#231f20;fill-rule:nonzero;"/>
                <path d="M254.686,353.588c0.011,0.525 -0.065,1.024 -0.264,1.505c-0.132,0.321 -0.406,0.386 -0.718,0.18c-0.481,-0.318 -0.801,-0.763 -1.017,-1.28c-0.196,-0.47 -0.369,-0.952 -0.515,-1.44c-0.477,-1.606 -1.27,-3.062 -2.147,-4.472c-0.287,-0.461 -0.681,-0.874 -1.085,-1.243c-0.818,-0.745 -1.649,-1.478 -2.623,-2.021c-0.22,-0.123 -0.42,-0.287 -0.613,-0.45c-0.038,-0.032 -0.016,-0.147 -0.004,-0.22c0.005,-0.033 0.056,-0.077 0.091,-0.082c0.122,-0.02 0.258,-0.063 0.366,-0.027c2.353,0.772 4.42,1.998 5.979,3.955c1.038,1.304 1.84,2.754 2.361,4.351c0.134,0.412 0.205,0.823 0.189,1.244Z" style="fill:#231f20;fill-rule:nonzero;"/>
                <path d="M230.714,340.798c0.581,-0.099 1.246,-0.005 1.884,0.284c0.643,0.29 1.13,0.738 1.444,1.378c0.171,0.347 0.155,0.649 -0.084,0.947c-0.384,0.482 -0.896,0.774 -1.458,0.991c-0.168,0.065 -0.432,-0.039 -0.562,-0.21c-0.116,-0.153 -0.12,-0.33 -0.024,-0.474c0.163,-0.247 0.362,-0.469 0.539,-0.705c0.091,-0.121 0.045,-0.346 -0.064,-0.466c-0.34,-0.376 -0.775,-0.523 -1.262,-0.494c-0.552,0.032 -1.101,0.101 -1.65,0.163c-0.211,0.023 -0.422,0.061 -0.63,0.103c-1.031,0.211 -1.719,-0.288 -2.242,-1.095c-0.306,-0.47 -0.458,-1.004 -0.549,-1.554c-0.019,-0.125 -0.028,-0.254 -0.031,-0.381c-0.034,-1.753 -0.06,-1.692 1.216,-2.705c0.629,-0.501 1.334,-0.906 2.01,-1.345c0.06,-0.039 0.206,-0.048 0.239,-0.009c0.074,0.086 0.145,0.214 0.14,0.322c-0.022,0.499 -0.241,0.896 -0.673,1.163c-0.217,0.135 -0.44,0.258 -0.656,0.393c-0.359,0.226 -0.524,0.552 -0.464,0.973c0.089,0.638 0.261,1.245 0.607,1.799c0.444,0.709 1.017,1.138 1.906,0.95c0.082,-0.017 0.169,-0.013 0.364,-0.028Z" style="fill:#231f20;fill-rule:nonzero;"/>
                <path d="M210.601,300.688c-0.023,-0.005 -0.191,-0.032 -0.356,-0.071c-0.211,-0.048 -0.353,-0.282 -0.31,-0.482c0.152,-0.69 0.489,-1.236 1.083,-1.658c1.283,-0.909 2.716,-1.183 4.233,-1.031c0.84,0.085 1.677,0.282 2.416,0.744c0.175,0.109 0.199,0.392 0.061,0.55c-0.173,0.199 -0.377,0.348 -0.634,0.401c-0.416,0.085 -0.833,0.168 -1.252,0.226c-0.673,0.094 -1.347,0.177 -2.023,0.249c-0.818,0.086 -1.583,0.319 -2.251,0.806c-0.251,0.183 -0.508,0.305 -0.967,0.266Z" style="fill:#231f20;fill-rule:nonzero;"/>
                <path d="M246.693,340.591c0.508,0.085 1.015,0.152 1.512,0.256c0.958,0.202 1.897,0.475 2.809,0.833c0.764,0.299 1.454,0.723 1.973,1.365c0.59,0.73 0.834,1.575 0.606,2.507c-0.059,0.238 -0.209,0.459 -0.343,0.672c-0.1,0.159 -0.408,0.248 -0.574,0.178c-0.234,-0.099 -0.466,-0.207 -0.686,-0.33c-0.323,-0.179 -0.482,-0.471 -0.511,-0.832c-0.027,-0.339 -0.034,-0.68 -0.062,-1.018c-0.032,-0.355 -0.199,-0.644 -0.453,-0.89c-0.592,-0.57 -1.283,-0.987 -2.064,-1.229c-0.648,-0.202 -1.314,-0.345 -1.973,-0.507c-0.288,-0.071 -0.579,-0.119 -0.824,-0.312c-0.115,-0.092 -0.132,-0.375 0.004,-0.443c0.185,-0.093 0.381,-0.163 0.586,-0.25Z" style="fill:#231f20;fill-rule:nonzero;"/>
                <path d="M238.363,345.831c0.563,0.036 1.114,0.053 1.586,0.413c0.31,0.238 0.38,0.55 0.185,0.889c-0.152,0.264 -0.344,0.486 -0.599,0.648c-0.685,0.436 -1.419,0.763 -2.21,0.953c-0.119,0.028 -0.252,0.01 -0.378,0.005c-0.199,-0.008 -0.378,-0.221 -0.358,-0.436c0.013,-0.126 0.061,-0.247 0.076,-0.373c0.021,-0.179 -0.043,-0.336 -0.187,-0.445c-0.101,-0.077 -0.212,-0.139 -0.323,-0.199c-0.248,-0.134 -0.647,-0.157 -0.582,-0.55c0.056,-0.331 0.422,-0.383 0.689,-0.49c0.677,-0.27 1.384,-0.402 2.101,-0.415Z" style="fill:#231f20;fill-rule:nonzero;"/>
                <path d="M203.898,309.167c-0.49,-0.006 -0.917,-0.176 -1.228,-0.564c-0.068,-0.085 -0.08,-0.233 -0.073,-0.348c0.003,-0.049 0.116,-0.12 0.188,-0.133c1.086,-0.206 2.179,-0.335 3.288,-0.32c0.567,0.008 1.094,0.15 1.553,0.483c0.167,0.121 0.296,0.296 0.43,0.457c0.1,0.119 0.026,0.388 -0.11,0.427c-0.162,0.049 -0.326,0.117 -0.49,0.118c-0.592,0.005 -2.965,-0.112 -3.558,-0.12Z" style="fill:#231f20;fill-rule:nonzero;"/>
                <path d="M234.221,337.292c-0.021,0.251 -0.231,0.436 -0.373,0.431c-0.776,-0.034 -1.49,-0.264 -2.118,-0.722c-0.124,-0.092 -0.243,-0.266 -0.261,-0.413c-0.057,-0.5 -0.07,-1.002 -0.307,-1.467c-0.08,-0.156 0.087,-0.408 0.263,-0.528c0.166,-0.112 0.329,-0.077 0.475,0.005c0.942,0.527 1.713,1.23 2.194,2.211c0.089,0.181 0.106,0.398 0.127,0.483Z" style="fill:#231f20;fill-rule:nonzero;"/>
                <path d="M231.887,325.54c0,-0.577 0.138,-1.112 0.351,-1.624c0.505,-1.216 1.022,-2.426 1.538,-3.637c0.051,-0.115 0.124,-0.221 0.191,-0.329c0.117,-0.185 0.355,-0.298 0.538,-0.257c0.192,0.04 0.351,0.374 0.288,0.634c-0.052,0.204 -0.114,0.409 -0.197,0.604c-0.335,0.779 -0.671,1.559 -1.025,2.332c-0.337,0.732 -0.691,1.457 -1.048,2.18c-0.073,0.148 -0.181,0.284 -0.296,0.401c-0.045,0.046 -0.156,0.037 -0.236,0.035c-0.02,-0.001 -0.045,-0.069 -0.055,-0.109c-0.023,-0.081 -0.036,-0.164 -0.049,-0.23Z" style="fill:#231f20;fill-rule:nonzero;"/>
                <path d="M204.363,311.423c-0.635,0.011 -1.183,-0.014 -1.63,-0.406c-0.06,-0.053 -0.146,-0.151 -0.131,-0.203c0.03,-0.107 0.104,-0.26 0.19,-0.283c0.852,-0.235 1.707,-0.459 2.568,-0.66c0.52,-0.12 1.004,0.003 1.432,0.33c0.133,0.102 0.276,0.208 0.278,0.391c0.002,0.201 -0.16,0.285 -0.318,0.344c-0.796,0.297 -1.62,0.463 -2.389,0.487Z" style="fill:#231f20;fill-rule:nonzero;"/>
                <path d="M203.698,315.259c-0.506,-0.067 -0.938,-0.21 -1.293,-0.532c-0.199,-0.179 -0.259,-0.422 -0.252,-0.681c0.004,-0.14 0.1,-0.218 0.226,-0.257c0.04,-0.012 0.087,-0.021 0.125,-0.011c0.739,0.189 1.496,0.173 2.249,0.209c0.203,0.009 0.354,0.295 0.249,0.463c-0.309,0.497 -0.771,0.74 -1.304,0.809Z" style="fill:#231f20;fill-rule:nonzero;"/>
            </g>
        </g>
        <a href="START.svg">
        <g id="Link-to-START" serif:id="Link to START">
            <path d="M364.667,471.768c4.755,-9.21 14.264,-9.21 19.019,-4.605c4.755,4.605 4.755,13.815 0,23.025c-3.328,6.908 -11.887,13.816 -19.019,18.421c-7.132,-4.605 -15.691,-11.513 -19.019,-18.421c-4.755,-9.21 -4.755,-18.42 0,-23.025c4.755,-4.605 14.264,-4.605 19.019,4.605Z" style="fill:#47c6ff;"/>
        </g>
        </a>
    </g>
</svg>
