<?xml version="1.0" encoding="UTF-8" standalone="no"?>
<!DOCTYPE svg PUBLIC "-//W3C//DTD SVG 1.1//EN" "http://www.w3.org/Graphics/SVG/1.1/DTD/svg11.dtd">
<svg width="100%" height="100%" viewBox="0 0 406 529" version="1.1" xmlns="http://www.w3.org/2000/svg" xmlns:xlink="http://www.w3.org/1999/xlink" xml:space="preserve" xmlns:serif="http://www.serif.com/" style="fill-rule:evenodd;clip-rule:evenodd;stroke-linejoin:bevel;">
  <rect id="L1-9" x="0.069" y="0.067" width="405.12" height="528" style="fill:none;"/>
  <clipPath id="_clip1">
    <rect x="0.069" y="0.067" width="405.12" height="528"/>
  </clipPath>
  <g clip-path="url(#_clip1)">
	  <a href="L1-1.svg">
    <circle id="Link-to-L1-1" serif:id="Link to L1-1" cx="40.581" cy="491.107" r="17.4" style="fill:#47c6ff;"/>
	  </a>
	  <a href="L2-1.svg">
    <circle id="Link-to-L2-1" serif:id="Link to L2-1" cx="364.677" cy="491.107" r="17.4" style="fill:#c847ff;"/>
	  </a>
    <path d="M0.069,213.667l405.12,-0" style="fill:none;fill-rule:nonzero;stroke:#000;stroke-width:3.12px;"/>
    <path d="M0.069,238.867l405.12,-0" style="fill:none;fill-rule:nonzero;stroke:#000;stroke-width:3.12px;"/>
    <path d="M0.069,264.067l405.12,-0" style="fill:none;fill-rule:nonzero;stroke:#000;stroke-width:3.12px;"/>
    <path d="M0.069,289.267l405.12,-0" style="fill:none;fill-rule:nonzero;stroke:#000;stroke-width:3.12px;"/>
    <path d="M0.069,314.467l405.12,-0" style="fill:none;fill-rule:nonzero;stroke:#000;stroke-width:3.12px;"/>
    <g>
      <path d="M199.553,287.512c-13.5,0 -18.3,6.85 -18.3,13.21c-0,6.36 4.8,13.209 18.3,13.209c13.5,-0 18.193,-6.849 18.193,-13.209c0,-6.36 -4.693,-13.21 -18.193,-13.21m0.78,23.285c-2.737,-0 -4.602,-0.78 -5.871,-3.226c-1.269,-2.446 -3.027,-8.806 -3.134,-11.36c-0.199,-2.644 0.78,-4.204 3.134,-4.984c1.177,-0.397 2.737,-0.596 4.311,-0.596c2.63,0 4.404,0.596 5.764,3.241c1.376,2.538 3.241,8.898 3.241,11.344c0,4.801 -3.531,5.581 -7.445,5.581" style="fill-rule:nonzero;"/>
      <path d="M165.505,263.051c-13.499,-0 -18.3,6.849 -18.3,13.209c0,6.36 4.801,13.209 18.3,13.209c13.5,0 18.194,-6.849 18.194,-13.209c-0,-6.36 -4.694,-13.209 -18.194,-13.209m0.78,23.284c-2.737,0 -4.602,-0.78 -5.871,-3.226c-1.269,-2.446 -3.027,-8.806 -3.134,-11.359c-0.198,-2.645 0.78,-4.204 3.134,-4.984c1.178,-0.397 2.737,-0.596 4.312,-0.596c2.629,-0 4.403,0.596 5.763,3.241c1.376,2.538 3.242,8.898 3.242,11.344c-0,4.8 -3.532,5.58 -7.446,5.58" style="fill-rule:nonzero;"/>
      <path d="M199.553,250.82c-13.5,0 -18.3,6.849 -18.3,13.209c-0,6.36 4.8,13.21 18.3,13.21c13.5,-0 18.193,-6.85 18.193,-13.21c0,-6.36 -4.693,-13.209 -18.193,-13.209m0.78,23.284c-2.737,0 -4.602,-0.779 -5.871,-3.225c-1.269,-2.447 -3.027,-8.807 -3.134,-11.36c-0.199,-2.645 0.78,-4.204 3.134,-4.984c1.177,-0.397 2.737,-0.596 4.311,-0.596c2.63,0 4.404,0.596 5.764,3.241c1.376,2.538 3.241,8.898 3.241,11.344c0,4.801 -3.531,5.58 -7.445,5.58" style="fill-rule:nonzero;"/>
      <path d="M199.553,226.359c-13.5,-0 -18.3,6.849 -18.3,13.209c-0,6.36 4.8,13.209 18.3,13.209c13.5,0 18.193,-6.849 18.193,-13.209c0,-6.36 -4.693,-13.209 -18.193,-13.209m0.78,23.284c-2.737,0 -4.602,-0.78 -5.871,-3.226c-1.269,-2.446 -3.027,-8.806 -3.134,-11.359c-0.199,-2.645 0.78,-4.204 3.134,-4.984c1.177,-0.398 2.737,-0.596 4.311,-0.596c2.63,-0 4.404,0.596 5.764,3.241c1.376,2.538 3.241,8.898 3.241,11.344c0,4.8 -3.531,5.58 -7.445,5.58" style="fill-rule:nonzero;"/>
      <path d="M199.553,189.667c-13.5,-0 -18.3,6.849 -18.3,13.209c-0,6.36 4.8,13.209 18.3,13.209c13.5,0 18.193,-6.849 18.193,-13.209c0,-6.36 -4.693,-13.209 -18.193,-13.209m0.78,23.284c-2.737,-0 -4.602,-0.78 -5.871,-3.226c-1.269,-2.446 -3.027,-8.806 -3.134,-11.359c-0.199,-2.645 0.78,-4.205 3.134,-4.984c1.177,-0.398 2.737,-0.597 4.311,-0.597c2.63,0 4.404,0.597 5.764,3.242c1.376,2.538 3.241,8.898 3.241,11.344c0,4.8 -3.531,5.58 -7.445,5.58" style="fill-rule:nonzero;"/>
      <path d="M86.003,244.261c-0.091,0 -0.29,-0.107 -0.397,-0.107c-0.581,0 -1.07,0.306 -1.269,0.795c-2.248,4.495 -6.941,10.565 -12.231,11.543c1.07,-1.269 1.758,-2.843 1.758,-4.693c0,-3.822 -3.134,-6.957 -6.941,-6.957c-3.913,0 -7.048,3.135 -7.048,6.957c0,5.274 5.183,7.72 9.785,7.72c5.183,0 8.607,-2.446 11.94,-6.069l-11.16,34.842l2.645,0.78l13.698,-43.144c0.107,-0.107 0.107,-0.306 0.107,-0.489c0,-0.49 -0.306,-0.887 -0.887,-1.178" style="fill-rule:nonzero;"/>
      <path d="M334.991,244.261c-0.092,0 -0.291,-0.107 -0.398,-0.107c-0.581,0 -1.07,0.306 -1.269,0.795c-2.247,4.495 -6.941,10.565 -12.231,11.543c1.071,-1.269 1.759,-2.843 1.759,-4.693c-0,-3.822 -3.135,-6.957 -6.941,-6.957c-3.914,0 -7.048,3.135 -7.048,6.957c-0,5.274 5.182,7.72 9.784,7.72c5.183,0 8.608,-2.446 11.94,-6.069l-11.16,34.842l2.645,0.78l13.698,-43.144c0.107,-0.107 0.107,-0.306 0.107,-0.489c0,-0.49 -0.305,-0.887 -0.886,-1.178" style="fill-rule:nonzero;"/>
      <path d="M176.617,385.474c-2.635,0 -5.07,2.451 -5.07,5.086c0,5.071 3.421,7.907 7.906,7.907c3.129,-0 5.378,-0.987 7.814,-3.422c4.299,-4.3 8.984,-18.849 11.327,-27.14c0.879,-3.129 1.758,-6.149 2.435,-8.399l0,-0.201l7.044,-0c0.586,-0 0.97,-0.385 0.97,-0.971l0,-2.157c0,-0.586 -0.384,-0.972 -0.97,-0.972l-5.765,0l0,-0.293c2.729,-9.955 3.515,-11.712 4.979,-12.883c0.786,-0.586 1.463,-0.786 1.956,-0.786c0.186,-0 0.386,0.092 0.479,0.092c0.585,0.108 1.078,0.694 1.078,1.28c-0,0.477 -0.2,0.97 -0.585,1.17c-0.972,0.771 -1.465,2.05 -1.465,3.406c0,0.494 0.093,0.879 0.201,1.372c0.292,0.878 1.064,1.757 2.05,2.157c0.385,0.186 1.063,0.386 1.757,0.386c2.049,0 4.099,-1.556 4.592,-3.514c0.186,-0.493 0.186,-1.078 0.186,-1.664c-0,-4.886 -4.393,-7.414 -8.786,-7.414c-9.077,0 -13.084,9.263 -15.519,16.491l0,0.2l-7.428,0c-0.586,0 -0.972,0.386 -0.972,0.972l0,2.157c0,0.586 0.386,0.971 0.972,0.971l6.056,-0l0,0.385c-0.986,3.915 -1.757,7.228 -2.45,10.45c-0.77,3.622 -1.649,7.335 -2.82,11.82l-0.293,1.172c-2.05,8.014 -2.635,10.834 -4.978,12.406c-0.493,0.293 -1.079,0.478 -1.665,0.478c-0.493,-0 -0.986,-0.185 -1.371,-0.478c-0.386,-0.293 -0.493,-0.586 -0.493,-1.079c0.107,-0.386 0.293,-0.786 0.786,-0.97c1.864,-0.787 2.45,-2.543 2.45,-4.101c0,-1.371 -0.879,-3.914 -4.408,-3.914" style="fill-rule:nonzero;"/>
      <path d="M163.126,386.296l-94.955,-14.065l94.955,-14.066" style="fill:none;fill-rule:nonzero;stroke:#000;stroke-width:2.94px;"/>
      <path d="M219.26,383.833l108.912,-14.065l-108.912,-14.065" style="fill:none;fill-rule:nonzero;stroke:#000;stroke-width:2.94px;"/>
    </g>
  </g>
</svg>
