<?xml version="1.0" encoding="UTF-8" standalone="no"?>
<!DOCTYPE svg PUBLIC "-//W3C//DTD SVG 1.1//EN" "http://www.w3.org/Graphics/SVG/1.1/DTD/svg11.dtd">
<svg width="100%" height="100%" viewBox="0 0 406 529" version="1.1" xmlns="http://www.w3.org/2000/svg" xmlns:xlink="http://www.w3.org/1999/xlink" xml:space="preserve" xmlns:serif="http://www.serif.com/" style="fill-rule:evenodd;clip-rule:evenodd;stroke-linejoin:bevel;">
  <rect id="L2-2" x="0.136" y="0.003" width="405.12" height="528" style="fill:none;"/>
  <clipPath id="_clip1">
    <rect x="0.136" y="0.003" width="405.12" height="528"/>
  </clipPath>
  <g clip-path="url(#_clip1)">
	  <a href="L2-3.svg">
    <circle cx="364.744" cy="491.043" r="17.4" style="fill:#c847ff;"/>
	  </a>
    <g id="staff-bottom" serif:id="staff bottom">
      <path d="M0.136,344.403l405.12,0" style="fill:none;fill-rule:nonzero;stroke:#000;stroke-width:1.2px;"/>
      <path d="M0.136,357.003l405.12,0" style="fill:none;fill-rule:nonzero;stroke:#000;stroke-width:1.2px;"/>
      <path d="M0.136,369.603l405.12,0" style="fill:none;fill-rule:nonzero;stroke:#000;stroke-width:1.2px;"/>
      <path d="M0.136,382.203l405.12,0" style="fill:none;fill-rule:nonzero;stroke:#000;stroke-width:1.2px;"/>
      <path d="M0.136,394.803l405.12,0" style="fill:none;fill-rule:nonzero;stroke:#000;stroke-width:1.2px;"/>
    </g>
    <g id="staff-top" serif:id="staff top">
      <path d="M0.136,106.803l405.12,0" style="fill:none;fill-rule:nonzero;stroke:#000;stroke-width:1.2px;"/>
      <path d="M0.136,119.403l405.12,0" style="fill:none;fill-rule:nonzero;stroke:#000;stroke-width:1.2px;"/>
      <path d="M0.136,132.003l405.12,0" style="fill:none;fill-rule:nonzero;stroke:#000;stroke-width:1.2px;"/>
      <path d="M0.136,144.603l405.12,0" style="fill:none;fill-rule:nonzero;stroke:#000;stroke-width:1.2px;"/>
      <path d="M0.136,157.203l405.12,0" style="fill:none;fill-rule:nonzero;stroke:#000;stroke-width:1.2px;"/>
    </g>
    <g>
      <path d="M135.035,349.049l-0,40.014" style="fill:none;fill-rule:nonzero;stroke:#000;stroke-width:1.3px;"/>
      <path d="M281.649,349.049l-0,40.014" style="fill:none;fill-rule:nonzero;stroke:#000;stroke-width:1.3px;"/>
      <path d="M151.035,338.541c0.155,-0.105 0.26,-0.317 0.26,-0.52l0,-0.057c0,-0.203 -0.105,-0.366 -0.203,-0.464l-0.626,-0.626c-0.154,-0.105 -0.317,-0.211 -0.52,-0.211c-0.155,0 -0.366,0.057 -0.472,0.155l-6.61,5.26l-6.659,-5.26c-0.105,-0.098 -0.309,-0.155 -0.471,-0.155c-0.203,0 -0.309,0.106 -0.464,0.211l-0.674,0.626c-0.106,0.098 -0.212,0.309 -0.212,0.521c0,0.203 0.106,0.415 0.26,0.52l6.35,4.992l-6.35,4.992c-0.154,0.106 -0.26,0.317 -0.26,0.521c0,0.162 0.106,0.366 0.212,0.471l0.618,0.675c0.105,0.155 0.317,0.211 0.52,0.211c0.162,0 0.366,-0.056 0.471,-0.154l6.659,-5.26l6.61,5.26c0.106,0.098 0.317,0.154 0.472,0.154c0.203,0 0.414,-0.056 0.52,-0.211l0.626,-0.675c0.098,-0.105 0.203,-0.309 0.203,-0.471c0,-0.204 -0.105,-0.415 -0.26,-0.521l-6.35,-4.992l6.35,-4.992" style="fill-rule:nonzero;"/>
      <path d="M297.649,338.541c0.155,-0.105 0.261,-0.317 0.261,-0.52l-0,-0.057c-0,-0.203 -0.106,-0.366 -0.204,-0.464l-0.626,-0.626c-0.154,-0.105 -0.317,-0.211 -0.52,-0.211c-0.155,0 -0.366,0.057 -0.472,0.155l-6.61,5.26l-6.658,-5.26c-0.106,-0.098 -0.309,-0.155 -0.472,-0.155c-0.203,0 -0.309,0.106 -0.463,0.211l-0.675,0.626c-0.106,0.098 -0.212,0.309 -0.212,0.521c0,0.203 0.106,0.415 0.261,0.52l6.349,4.992l-6.349,4.992c-0.155,0.106 -0.261,0.317 -0.261,0.521c0,0.162 0.106,0.366 0.212,0.471l0.618,0.675c0.105,0.155 0.317,0.211 0.52,0.211c0.163,0 0.366,-0.056 0.472,-0.154l6.658,-5.26l6.61,5.26c0.106,0.098 0.317,0.154 0.472,0.154c0.203,0 0.415,-0.056 0.52,-0.211l0.626,-0.675c0.098,-0.105 0.204,-0.309 0.204,-0.471c-0,-0.204 -0.106,-0.415 -0.261,-0.521l-6.349,-4.992l6.349,-4.992" style="fill-rule:nonzero;"/>
      <path d="M208.55,142.459c-0.049,-0.049 -0.154,-0.154 -0.309,-0.358l-5.984,-7.39c-0.057,-0.057 -0.105,-0.212 -0.105,-0.317c-0,-0.155 0.048,-0.358 0.105,-0.464l5.301,-8.016c0.057,-0.106 0.106,-0.26 0.106,-0.366l-0,-0.464c-0,-0.154 -0.049,-0.317 -0.155,-0.414l-8.431,-11.399c0,-0 -0.203,-0.317 -0.52,-0.317c-0.155,-0 -0.26,-0 -0.415,0.162c-0.211,0.155 -0.26,0.358 -0.26,0.521c0,0.309 0.155,0.569 0.155,0.569l3.959,5.415c0.098,0.154 0.155,0.357 0.155,0.618c-0,0.211 -0.057,0.471 -0.155,0.626l-5.26,8.016c-0.049,0.106 -0.106,0.309 -0.106,0.415l0,0.471c0,0.155 0.057,0.309 0.163,0.415l5.821,7.236c-0.203,-0.057 -0.675,-0.162 -1.301,-0.162c-2.65,-0 -4.732,2.187 -4.732,4.845c0,0.724 0.155,1.456 0.569,2.025c1.098,1.666 5.001,6.61 5.001,6.61c-0,-0 0.26,0.317 0.626,0.317c0.097,-0 0.203,-0 0.309,-0.106c0.26,-0.211 0.365,-0.415 0.365,-0.626c0,-0.211 -0.105,-0.366 -0.154,-0.472c-0.163,-0.26 -1.821,-3.276 -1.821,-3.276c-0,-0 -0.366,-0.732 -0.366,-1.667c-0,-1.666 1.244,-3.016 2.911,-3.016c0.674,-0 1.252,0.211 1.666,0.471l2.033,1.301c-0,0 0.203,0.098 0.415,0.098c0.203,-0 0.365,-0.049 0.52,-0.26c0.106,-0.155 0.154,-0.309 0.154,-0.464c0,-0.154 -0.048,-0.26 -0.154,-0.414l-0.106,-0.163" style="fill-rule:nonzero;"/>
      <path d="M89.635,358.989c-0.048,0 -0.154,-0.057 -0.211,-0.057c-0.309,0 -0.569,0.163 -0.675,0.423c-1.195,2.39 -3.691,5.618 -6.504,6.138c0.569,-0.674 0.935,-1.512 0.935,-2.496c0,-2.032 -1.667,-3.699 -3.691,-3.699c-2.082,0 -3.748,1.667 -3.748,3.699c-0,2.805 2.756,4.106 5.203,4.106c2.756,0 4.578,-1.301 6.35,-3.228l-5.935,18.53l1.406,0.414l7.285,-22.944c0.057,-0.057 0.057,-0.162 0.057,-0.26c0,-0.26 -0.163,-0.471 -0.472,-0.626" style="fill-rule:nonzero;"/>
      <path d="M236.244,358.989c-0.048,0 -0.154,-0.057 -0.211,-0.057c-0.309,0 -0.569,0.163 -0.675,0.423c-1.195,2.39 -3.691,5.618 -6.504,6.138c0.569,-0.674 0.935,-1.512 0.935,-2.496c-0,-2.032 -1.667,-3.699 -3.691,-3.699c-2.082,0 -3.748,1.667 -3.748,3.699c-0,2.805 2.756,4.106 5.203,4.106c2.756,0 4.577,-1.301 6.35,-3.228l-5.935,18.53l1.406,0.414l7.285,-22.944c0.057,-0.057 0.057,-0.162 0.057,-0.26c-0,-0.26 -0.163,-0.471 -0.472,-0.626" style="fill-rule:nonzero;"/>
    </g>
    <path d="M119.521,422.925c0.037,-0.256 0.037,-0.511 0.037,-0.73c-0,-0.803 -0.183,-1.168 -0.365,-1.314c-0.11,-0.073 -0.292,-0.11 -0.511,-0.146c-0.256,-0.037 -0.548,-0.037 -0.876,-0.037l-0.146,0c-0.657,0 -0.949,0.365 -0.949,1.059c-0,0.182 0.036,0.365 0.073,0.547c0.073,0.913 0.219,3.541 0.219,5.11l-0,0.767c-0.11,1.387 -0.694,1.934 -1.606,1.934c-0.73,0 -2.774,-0.292 -3.796,-0.292c-0.621,0 -1.898,0.037 -3.139,0.037c-0.621,-0 -1.205,-0 -1.716,-0.037c-0.985,-0.073 -1.569,-0.255 -1.752,-0.766c-0.146,-0.183 -0.146,-0.438 -0.146,-0.621c0.037,-0.182 0.073,-0.401 0.073,-0.657c0,-0.912 0.11,-3.759 0.219,-5.329l0,-0.401c0,-1.059 -0.292,-1.278 -1.606,-1.351l-0.146,0c-0.766,0 -0.985,0.365 -0.985,1.314c-0,0.329 0.036,0.767 0.036,1.278c0.146,1.861 0.146,8.65 0.146,9.855c0,1.204 -0.146,6.095 -0.219,7.993c0,0.256 -0.036,0.438 -0.036,0.621c-0,1.168 0.292,1.204 1.679,1.204c0.803,0 0.985,-0.219 1.058,-0.474c0.037,-0.183 0.037,-0.402 0.037,-0.657l-0.11,-0.876c-0.182,-1.205 -0.182,-5.877 -0.182,-7.081c-0,-1.387 0.438,-1.898 2.007,-1.898c1.46,-0 7.008,-0.037 8.651,-0.037c0.803,0 1.314,0.073 1.496,0.475c0.073,0.146 0.073,0.328 0.073,0.474l0,0.913c0,0.401 0,1.022 -0.036,1.533l-0,0.109c-0.037,0.365 -0.073,0.694 -0.073,0.913c-0.037,0.328 -0.037,0.547 -0.037,0.584c0.037,0.146 0.037,0.474 0.037,0.876c-0,0.949 -0.073,2.409 -0.073,3.54l-0,0.475c-0,1.095 0.255,1.277 1.679,1.277c0.693,0 0.876,-0.292 0.876,-0.803l-0,-0.182c-0,-0.256 -0,-0.511 -0.037,-0.803c-0.073,-0.365 -0.146,-0.767 -0.146,-1.095c-0.073,-1.351 -0.073,-6.643 -0.073,-8.614c0,-2.008 0.146,-5.877 0.365,-8.687Z" style="fill-rule:nonzero;"/>
    <path d="M139.049,435.59c0,-0.036 0.037,-0.073 0.037,-0.146c-0,-0.036 -0.037,-0.146 -0.037,-0.255l-0.146,-0.767c-0.255,-1.168 -1.533,-3.102 -2.482,-4.234c-0.949,-1.022 -2.774,-1.642 -4.307,-1.715l-0.401,-0c-1.57,-0 -2.811,0.766 -4.089,1.606l-0.292,0.182c-1.387,0.84 -2.372,3.614 -2.445,5.804l-0,0.109c-0,2.081 1.569,4.38 2.81,5.767c1.205,1.278 3.687,1.314 4.928,1.314c1.168,0 2.117,-0.292 2.738,-0.62c0.255,-0.146 0.62,-0.438 1.058,-0.803c0.402,-0.365 0.84,-0.73 1.314,-1.095c0.365,-0.256 0.548,-0.548 0.548,-0.84c-0,-0.328 -0.183,-0.657 -0.73,-1.095c-0.183,-0.146 -0.365,-0.219 -0.475,-0.219c-0.182,0 -0.292,0.11 -0.438,0.219c-0.255,0.292 -0.438,0.657 -0.584,1.022c-0.292,0.657 -1.752,1.387 -3.577,1.387l-0.292,0c-1.205,-0.036 -2.227,-0.401 -3.139,-1.131l-0.548,-0.438c-0.584,-0.511 -1.168,-1.971 -1.168,-2.884l0,-0.255c0.11,-0.438 0.986,-0.694 2.081,-0.73c0.912,-0 1.934,0.036 2.482,0.036c0.767,0 2.884,0.037 4.526,0.037c0.84,-0 1.57,-0 1.971,-0.037c0.621,0 0.657,-0.146 0.657,-0.219Zm-2.591,-2.409c0.109,0.183 0.146,0.329 0.146,0.475c-0,0.401 -0.329,0.657 -0.986,0.657c-1.423,-0 -2.993,0.036 -3.613,0.036c-0.658,0 -2.592,-0.036 -2.994,-0.146c-0.401,-0.036 -1.277,-0.511 -1.277,-1.168c-0,-0.219 0.073,-0.438 0.255,-0.657c0.584,-0.803 2.19,-1.898 4.089,-1.898l0.146,0c1.715,0.073 2.299,0.584 3.139,1.387c0.365,0.365 0.876,0.84 1.095,1.314Z" style="fill-rule:nonzero;"/>
    <path d="M156.241,429.787c0.109,-0.183 0.146,-0.292 0.146,-0.365c-0,-0.146 -0.11,-0.183 -0.219,-0.219c-0.146,-0.073 -0.365,-0.11 -0.584,-0.146l-0.548,-0.037c-0.109,0 -0.292,-0.036 -0.438,-0.036c-0.328,-0 -0.657,0.073 -0.693,0.328c-0.073,0.657 -1.132,3.03 -1.533,3.906c-0.402,0.839 -1.278,3.029 -1.57,3.869c-0.292,0.949 -0.803,2.19 -1.606,2.409c-0.109,0.036 -0.219,0.073 -0.292,0.073c-0.365,-0 -0.584,-0.256 -0.73,-0.584c0,-0.146 -0.073,-0.329 -0.109,-0.548c-0.037,-0.182 -0.073,-0.401 -0.11,-0.584c-0.109,-0.401 -0.328,-0.803 -0.584,-1.35c-0.292,-0.511 -0.584,-1.095 -0.839,-1.752c-0.511,-1.314 -1.351,-3.212 -1.825,-4.599c-0.475,-1.168 -0.84,-1.241 -2.044,-1.351l-0.256,0c-0.547,0 -0.766,0.219 -0.766,0.475c-0,0.511 0.511,1.168 0.766,1.423c0.329,0.365 0.73,1.168 1.168,1.971c0.402,0.803 0.876,1.679 1.314,2.373c0.183,0.365 0.402,0.766 0.584,1.204l0.511,1.314c0.365,0.876 0.694,1.716 1.205,2.3c0.657,0.803 0.912,1.569 0.912,2.19l0,0.146c0,0.401 -0.109,0.766 -0.219,1.022c-0.292,0.474 -0.693,1.168 -1.131,2.445c-0.219,0.657 -0.584,1.278 -0.913,1.825c-0.328,0.548 -0.657,1.059 -0.949,1.643c-0.109,0.183 -0.182,0.365 -0.182,0.438c-0,0.438 0.547,0.438 1.46,0.511c0.073,0 0.182,0.037 0.255,0.037c0.438,-0 0.621,-0.146 0.73,-0.292c0.11,-0.146 0.183,-0.292 0.256,-0.511l0.255,-0.73c0.219,-0.548 0.402,-1.096 0.584,-1.607c0.219,-0.547 0.438,-1.095 0.73,-1.642c0.584,-1.095 1.57,-4.052 2.3,-5.439c0.693,-1.35 1.642,-3.686 2.19,-4.818c0.547,-1.131 2.08,-4.088 2.774,-5.292Z" style="fill-rule:nonzero;"/>
    <path d="M163.577,422.523l0,-0.401c0,-0.694 -0.146,-0.913 -0.255,-1.059c-0.073,-0.073 -0.183,-0.109 -0.329,-0.146l-0.584,-0.073l-0.401,0c-0.73,0 -0.913,0.256 -0.913,0.876c0,0.219 0.037,0.438 0.073,0.73c0.146,1.314 0.219,5.147 0.292,6.862l0,1.022c0,2.044 -0.073,5.439 -0.146,6.57l0,0.146c0,0.84 0.475,0.876 1.059,0.876l0.146,0c0.657,0 0.73,-0.109 0.73,-0.839l-0,-7.702c0.109,-2.518 0.182,-4.854 0.328,-6.862Zm0.475,18.761c-0,-1.095 -0.548,-1.46 -1.716,-1.46l-0.109,0c-1.241,0.073 -1.716,0.657 -1.716,1.497l0,0.146c0.073,1.022 0.803,1.752 1.862,1.752c1.022,-0 1.679,-0.694 1.679,-1.935Z" style="fill-rule:nonzero;"/>
    <path d="M265.837,436.393l-0,-0.109c-0,-2.227 -1.497,-3.614 -2.081,-3.942c-0.365,-0.183 -0.839,-0.365 -1.204,-0.584c-0.402,-0.256 -0.767,-0.548 -0.767,-0.876c0,-0.621 0.402,-1.132 1.132,-1.57c0.62,-0.365 1.423,-0.912 1.423,-2.993l0,-0.438c0,-2.372 -2.445,-3.796 -3.723,-4.38c-1.204,-0.511 -4.854,-0.657 -7.081,-0.657c-1.058,0 -1.131,0.256 -1.168,0.475c0,0.182 0.037,0.438 0.11,0.73c0.036,0.328 0.146,0.657 0.146,1.022c0.036,0.474 0.036,1.423 0.036,2.591c0,2.373 -0.036,5.585 -0.036,7.227c-0,2.555 -0.146,7.592 -0.219,8.578l-0,0.365c-0,0.766 0.146,0.912 0.511,0.912l0.292,0c0.328,-0.036 0.766,-0.036 1.314,-0.036c1.058,-0 2.555,0.036 4.161,0.036c2.299,0 4.015,-0.547 5.146,-1.387c1.095,-0.766 1.971,-2.591 2.008,-4.964Zm-4.125,-11.534c0.438,0.803 0.694,1.606 0.694,2.3c-0,0.73 -0.292,1.387 -1.059,1.934c-1.204,0.876 -2.518,1.424 -3.832,1.424l-0.475,-0l-0.912,-0.11c-0.292,-0.073 -0.548,-0.109 -0.803,-0.219c-0.475,-0.219 -0.73,-0.62 -0.73,-1.277l-0,-0.219c0.073,-1.351 0.219,-3.176 0.219,-3.906l-0,-0.365c-0,-0.255 0.036,-0.474 0.182,-0.693c0.219,-0.329 0.694,-0.475 1.46,-0.475l0.219,0c0.584,0.037 1.606,-0.036 2.555,0.146c0.949,0.146 2.008,0.511 2.482,1.46Zm1.971,11.279l0,0.292c0,3.832 -3.212,4.015 -5.219,4.197l-1.241,0.11l-0.657,-0c-1.059,-0 -2.081,-0.256 -2.117,-1.825c-0.037,-0.73 -0.037,-1.533 -0.037,-2.3c0,-1.204 0.037,-2.299 0.11,-2.774c0.146,-0.766 0.803,-1.496 2.153,-1.496c0.146,-0 0.292,0.036 0.438,0.036c0.402,0.073 0.986,0.073 1.679,0.146c0.657,0.11 1.46,0.219 2.227,0.475c1.35,0.438 2.664,1.35 2.664,3.139Z" style="fill-rule:nonzero;"/>
    <path d="M284.014,436.211l0,-0.183c0,-2.482 -1.168,-4.343 -2.263,-5.511c-1.095,-1.132 -2.883,-2.044 -4.927,-2.117l-0.183,-0c-3.321,-0 -4.782,1.387 -5.84,2.482c-1.095,1.095 -1.935,2.737 -1.935,5.073c0,2.336 1.387,4.599 2.519,5.621c1.095,0.986 2.738,1.716 4.855,1.716l0.219,-0c2.263,-0.073 4.015,-0.365 5.584,-2.044c1.57,-1.752 1.971,-2.373 1.971,-5.037Zm-2.08,-0.402c-0,1.387 -0.511,3.285 -1.424,3.979c-0.219,0.109 -0.438,0.292 -0.73,0.474c-0.912,0.621 -1.934,1.095 -3.029,1.095c-0.146,0 -0.292,0 -0.475,-0.036c-1.752,-0.219 -2.591,-0.584 -3.65,-1.825c-1.059,-1.168 -1.387,-2.117 -1.387,-3.614c-0,-1.46 0.255,-2.847 1.716,-3.942c1.423,-1.058 2.555,-1.204 3.723,-1.204c1.861,-0 3.212,0.511 3.978,1.861c0.365,0.621 0.694,1.022 0.913,1.497c0.182,0.474 0.365,0.985 0.365,1.715Z" style="fill-rule:nonzero;"/>
    <path d="M302.593,435.152l-0,-0.146c-0,-1.387 -0.767,-3.066 -1.862,-4.489c-1.058,-1.387 -3.285,-1.971 -4.891,-2.008l-0.146,0c-1.46,0 -2.847,0.876 -3.54,1.716c-0.402,0.474 -0.694,0.657 -0.949,0.657c-0.475,-0 -0.73,-0.694 -0.73,-1.205c-0,-0.292 -0.037,-0.803 -0.073,-1.35l-0,-0.256c-0,-0.657 0.036,-1.387 0.146,-1.934c0.109,-0.548 0.182,-1.752 0.219,-3.03l0.146,-3.285l-0,-0.109c-0,-0.475 -0.183,-0.584 -0.365,-0.657c-0.146,-0.037 -0.329,-0.037 -0.548,-0.037l-0.73,0c-0.693,0 -1.131,0.256 -1.241,0.913c0,0.182 -0.036,0.365 -0.036,0.584c-0,0.146 -0,0.328 0.036,0.511l0.146,1.277c0.183,1.716 0.256,8.651 0.256,10.22c-0,0.803 0.073,2.628 0.073,4.453c-0,1.825 -0.037,3.723 -0.219,4.526c-0.073,0.256 -0.073,0.438 -0.073,0.621c-0,0.73 0.474,0.876 1.35,0.876c0.913,-0 1.059,-0.146 1.132,-1.351c0.036,-0.584 0.255,-0.803 0.511,-0.803c0.182,0 0.401,0.11 0.62,0.256c0.183,0.182 0.365,0.365 0.548,0.584l0.547,0.62c0.584,0.584 1.278,0.913 2.957,0.913l0.438,-0c1.934,-0.073 3.905,-1.387 5.037,-2.738c0.584,-0.657 0.876,-1.569 1.022,-2.591c0.182,-0.986 0.219,-2.008 0.219,-2.738Zm-1.898,0.584c-0,1.241 -0.073,2.263 -1.205,3.504l-0.766,0.767c-0.657,0.73 -1.387,1.204 -2.336,1.204c-0.11,0 -0.219,0 -0.329,-0.036c-1.277,-0.146 -2.701,-0.292 -3.686,-1.205c-0.511,-0.474 -0.986,-0.876 -1.314,-1.46c-0.402,-0.62 -0.657,-1.387 -0.73,-2.518c-0.037,-0.183 -0.037,-0.365 -0.037,-0.548c0,-1.971 0.84,-2.883 1.935,-3.723c1.241,-0.912 2.372,-1.058 3.467,-1.131c0.183,-0 0.438,-0.037 0.621,-0.037c1.204,0 2.117,0.365 3.102,1.789c1.205,1.642 1.278,2.117 1.278,3.394Z" style="fill-rule:nonzero;"/>
    <path d="M310.367,422.523l0,-0.401c0,-0.694 -0.146,-0.913 -0.255,-1.059c-0.073,-0.073 -0.183,-0.109 -0.329,-0.146l-0.584,-0.073l-0.401,0c-0.73,0 -0.913,0.256 -0.913,0.876c0,0.219 0.037,0.438 0.073,0.73c0.146,1.314 0.219,5.147 0.292,6.862l0,1.022c0,2.044 -0.073,5.439 -0.146,6.57l0,0.146c0,0.84 0.475,0.876 1.059,0.876l0.146,0c0.657,0 0.73,-0.109 0.73,-0.839l-0,-7.702c0.109,-2.518 0.182,-4.854 0.328,-6.862Zm0.475,18.761c-0,-1.095 -0.548,-1.46 -1.716,-1.46l-0.109,0c-1.241,0.073 -1.716,0.657 -1.716,1.497l0,0.146c0.073,1.022 0.803,1.752 1.862,1.752c1.022,-0 1.679,-0.694 1.679,-1.935Z" style="fill-rule:nonzero;"/>
  </g>
</svg>
