<?xml version="1.0" encoding="UTF-8" standalone="no"?>
<!DOCTYPE svg PUBLIC "-//W3C//DTD SVG 1.1//EN" "http://www.w3.org/Graphics/SVG/1.1/DTD/svg11.dtd">
<svg width="100%" height="100%" viewBox="0 0 406 529" version="1.1" xmlns="http://www.w3.org/2000/svg" xmlns:xlink="http://www.w3.org/1999/xlink" xml:space="preserve" xmlns:serif="http://www.serif.com/" style="fill-rule:evenodd;clip-rule:evenodd;stroke-linejoin:bevel;">
  <rect id="L2-3" x="0.044" y="0.003" width="405.12" height="528" style="fill:none;"/>
  <clipPath id="_clip1">
    <rect x="0.044" y="0.003" width="405.12" height="528"/>
  </clipPath>
  <g clip-path="url(#_clip1)">
	  <a href="L2-4.svg">
    <circle cx="364.652" cy="491.043" r="17.4" style="fill:#c847ff;"/>
	  </a>
    <g id="staff-bottom" serif:id="staff bottom">
      <path d="M0.044,344.403l405.12,0" style="fill:none;fill-rule:nonzero;stroke:#000;stroke-width:1.2px;"/>
      <path d="M0.044,357.003l405.12,0" style="fill:none;fill-rule:nonzero;stroke:#000;stroke-width:1.2px;"/>
      <path d="M0.044,369.603l405.12,0" style="fill:none;fill-rule:nonzero;stroke:#000;stroke-width:1.2px;"/>
      <path d="M0.044,382.203l405.12,0" style="fill:none;fill-rule:nonzero;stroke:#000;stroke-width:1.2px;"/>
      <path d="M0.044,394.803l405.12,0" style="fill:none;fill-rule:nonzero;stroke:#000;stroke-width:1.2px;"/>
    </g>
    <g id="staff-top" serif:id="staff top">
      <path d="M0.044,106.803l405.12,0" style="fill:none;fill-rule:nonzero;stroke:#000;stroke-width:1.2px;"/>
      <path d="M0.044,119.403l405.12,0" style="fill:none;fill-rule:nonzero;stroke:#000;stroke-width:1.2px;"/>
      <path d="M0.044,132.003l405.12,0" style="fill:none;fill-rule:nonzero;stroke:#000;stroke-width:1.2px;"/>
      <path d="M0.044,144.603l405.12,0" style="fill:none;fill-rule:nonzero;stroke:#000;stroke-width:1.2px;"/>
      <path d="M0.044,157.203l405.12,0" style="fill:none;fill-rule:nonzero;stroke:#000;stroke-width:1.2px;"/>
    </g>
    <g>
      <path d="M197.342,128.249l-0,40.014" style="fill:none;fill-rule:nonzero;stroke:#000;stroke-width:1.3px;"/>
      <path d="M213.343,117.741c0.154,-0.105 0.26,-0.317 0.26,-0.52l-0,-0.057c-0,-0.203 -0.106,-0.366 -0.204,-0.464l-0.626,-0.626c-0.154,-0.105 -0.317,-0.211 -0.52,-0.211c-0.154,0 -0.366,0.057 -0.471,0.155l-6.61,5.26l-6.659,-5.26c-0.106,-0.098 -0.309,-0.155 -0.472,-0.155c-0.203,0 -0.309,0.106 -0.463,0.211l-0.675,0.626c-0.106,0.098 -0.211,0.309 -0.211,0.521c-0,0.203 0.105,0.415 0.26,0.52l6.35,4.992l-6.35,4.992c-0.155,0.106 -0.26,0.317 -0.26,0.521c-0,0.162 0.105,0.366 0.211,0.471l0.618,0.675c0.106,0.155 0.317,0.211 0.52,0.211c0.163,0 0.366,-0.056 0.472,-0.154l6.659,-5.26l6.61,5.26c0.105,0.098 0.317,0.154 0.471,0.154c0.203,0 0.415,-0.056 0.52,-0.211l0.626,-0.675c0.098,-0.105 0.204,-0.309 0.204,-0.471c-0,-0.204 -0.106,-0.415 -0.26,-0.521l-6.35,-4.992l6.35,-4.992" style="fill-rule:nonzero;"/>
      <path d="M210.857,377.659c-0.048,-0.049 -0.154,-0.154 -0.308,-0.358l-5.984,-7.39c-0.057,-0.057 -0.106,-0.212 -0.106,-0.317c-0,-0.155 0.049,-0.358 0.106,-0.464l5.301,-8.016c0.056,-0.106 0.105,-0.26 0.105,-0.366l0,-0.464c0,-0.154 -0.049,-0.317 -0.154,-0.414l-8.431,-11.399c-0,-0 -0.204,-0.317 -0.521,-0.317c-0.154,-0 -0.26,-0 -0.414,0.162c-0.212,0.155 -0.261,0.358 -0.261,0.521c0,0.309 0.155,0.569 0.155,0.569l3.959,5.415c0.098,0.154 0.155,0.357 0.155,0.618c-0,0.211 -0.057,0.471 -0.155,0.626l-5.26,8.016c-0.049,0.106 -0.106,0.309 -0.106,0.415l0,0.471c0,0.155 0.057,0.309 0.163,0.415l5.821,7.236c-0.203,-0.057 -0.675,-0.162 -1.301,-0.162c-2.65,-0 -4.731,2.187 -4.731,4.845c-0,0.724 0.154,1.456 0.569,2.025c1.097,1.666 5,6.61 5,6.61c-0,-0 0.26,0.317 0.626,0.317c0.097,-0 0.203,-0 0.309,-0.106c0.26,-0.211 0.366,-0.415 0.366,-0.626c-0,-0.211 -0.106,-0.366 -0.155,-0.472c-0.162,-0.26 -1.821,-3.276 -1.821,-3.276c0,-0 -0.366,-0.732 -0.366,-1.667c0,-1.666 1.244,-3.016 2.911,-3.016c0.675,-0 1.252,0.211 1.667,0.471l2.032,1.301c0,0 0.203,0.098 0.415,0.098c0.203,-0 0.366,-0.049 0.52,-0.26c0.106,-0.155 0.155,-0.309 0.155,-0.464c-0,-0.154 -0.049,-0.26 -0.155,-0.414l-0.106,-0.163" style="fill-rule:nonzero;"/>
      <path d="M135.143,121.389c-0.049,0 -0.155,-0.057 -0.212,-0.057c-0.309,0 -0.569,0.163 -0.674,0.423c-1.196,2.39 -3.692,5.618 -6.505,6.138c0.569,-0.674 0.935,-1.512 0.935,-2.496c0,-2.032 -1.666,-3.699 -3.691,-3.699c-2.081,0 -3.748,1.667 -3.748,3.699c-0,2.805 2.756,4.106 5.203,4.106c2.757,0 4.578,-1.301 6.35,-3.228l-5.935,18.53l1.407,0.414l7.284,-22.944c0.057,-0.057 0.057,-0.162 0.057,-0.26c0,-0.26 -0.162,-0.471 -0.471,-0.626" style="fill-rule:nonzero;"/>
      <path d="M281.752,121.389c-0.049,0 -0.155,-0.057 -0.212,-0.057c-0.309,0 -0.569,0.163 -0.675,0.423c-1.195,2.39 -3.691,5.618 -6.504,6.138c0.569,-0.674 0.935,-1.512 0.935,-2.496c0,-2.032 -1.667,-3.699 -3.691,-3.699c-2.081,0 -3.748,1.667 -3.748,3.699c-0,2.805 2.756,4.106 5.203,4.106c2.757,0 4.578,-1.301 6.35,-3.228l-5.935,18.53l1.407,0.414l7.284,-22.944c0.057,-0.057 0.057,-0.162 0.057,-0.26c0,-0.26 -0.162,-0.471 -0.471,-0.626" style="fill-rule:nonzero;"/>
    </g>
    <path d="M188.016,202.052c0.365,-0.767 0.584,-1.278 0.584,-1.643c-0,-0.401 -0.365,-0.547 -1.314,-0.766c-0.256,-0.073 -0.511,-0.11 -0.73,-0.11c-0.949,0 -1.022,0.621 -1.095,1.059c-0.073,0.657 -0.584,2.518 -0.876,3.832c-0.292,1.278 -0.913,3.65 -1.497,5.147c-0.584,1.46 -0.985,3.686 -1.204,4.599c-0.11,0.474 -0.146,1.022 -0.329,1.387c-0.109,0.474 -0.401,0.912 -1.022,0.985c-0.547,0 -0.912,-0.255 -1.131,-0.62c-0.219,-0.365 -0.292,-0.767 -0.438,-1.132c-0.292,-0.693 -0.584,-1.788 -1.059,-2.92c-0.511,-1.131 -1.095,-3.723 -1.606,-4.927c-0.474,-1.241 -1.35,-3.431 -1.861,-5.402c-0.511,-1.935 -1.095,-2.482 -1.57,-2.555c-0.584,-0 -0.693,0.62 -0.766,1.022c-0,0.219 -0.073,0.474 -0.183,0.766l-0.401,0.949c-0.183,0.548 -0.402,1.095 -0.475,1.606c-0.073,0.548 -0.401,1.497 -0.766,2.482c-0.365,0.986 -0.767,2.008 -1.022,2.738c-0.475,1.533 -1.278,3.358 -2.154,5.11l-0.474,1.168c-0.11,0.365 -0.219,0.657 -0.256,0.912c-0.219,0.73 -0.511,1.095 -0.839,1.095c-0.292,0 -0.73,-0.73 -1.022,-1.788c-0.256,-0.84 -0.475,-1.862 -0.73,-2.482c-0.511,-1.278 -0.949,-3.395 -1.205,-4.38c-0.328,-1.022 -1.314,-4.088 -1.606,-6.096c-0.255,-1.825 -0.912,-2.007 -2.153,-2.08l-0.219,-0c-0.767,-0 -0.949,0.219 -0.949,0.547c-0,0.219 0.146,0.511 0.255,0.694c0.183,0.328 0.438,1.058 0.657,1.788c0.256,0.767 0.548,1.57 0.767,2.117c0.511,1.059 1.168,3.066 1.642,4.344c0.511,1.314 1.424,4.635 1.789,5.803l0.839,2.592c0.292,1.022 0.584,2.19 0.694,3.102c0.219,1.752 0.839,2.227 1.022,2.227c0.401,-0 0.766,-0.183 1.095,-1.168c0.182,-0.548 0.255,-1.022 0.365,-1.46c0.073,-0.475 0.219,-0.949 0.511,-1.497c0.474,-1.058 1.168,-2.92 1.861,-4.745c0.73,-1.861 1.679,-4.197 2.19,-5.767c0.475,-1.569 1.095,-3.066 1.898,-3.066c0.621,0 0.694,0.511 0.73,0.803l0,0.438c0,0.11 0.037,0.183 0.037,0.219c0.073,0.073 0.146,0.256 0.255,0.438l0.84,2.3c0.584,1.058 2.007,4.927 2.372,6.679c0.183,0.803 0.438,1.533 0.767,2.263c0.292,0.767 0.62,1.497 0.803,2.373c0.328,1.642 1.241,2.336 1.46,2.336c0.255,-0 0.876,-0.621 1.058,-1.825c0.146,-0.621 0.183,-1.132 0.256,-1.606c0.109,-0.548 0.182,-1.059 0.438,-1.606l0.912,-2.263c0.329,-0.876 0.621,-1.752 0.767,-2.336c0.292,-1.205 1.204,-3.687 1.679,-5.548c0.511,-1.898 1.46,-4.125 2.409,-6.132Z" style="fill-rule:nonzero;"/>
    <path d="M204.916,221.032l-0,-0.219c-0,-0.292 -0.037,-0.548 -0.073,-0.84c-0.073,-0.62 -0.11,-2.372 -0.11,-3.905c0,-0.986 0,-1.935 0.037,-2.482l-0,-0.256c-0,-1.35 -0.402,-3.029 -1.022,-3.978c-0.621,-0.949 -2.446,-1.57 -3.395,-1.643c-0.182,0 -0.401,-0.036 -0.62,-0.036c-0.84,-0 -1.789,0.182 -2.811,0.949c-0.511,0.401 -0.876,0.547 -1.132,0.547c-0.219,0 -0.328,-0.073 -0.438,-0.182c-0.219,-0.219 -0.219,-0.621 -0.255,-0.913c-0.11,-0.328 -0.146,-0.693 -0.146,-1.131c-0,-0.475 0.036,-0.986 0.109,-1.643c0.146,-1.277 0.292,-3.431 0.365,-5.548l0,-0.219c0,-0.912 -0.182,-1.168 -0.328,-1.314c-0.11,-0.109 -0.219,-0.146 -0.438,-0.182l-0.876,-0c-0.84,-0 -1.095,0.365 -1.095,1.022c-0,0.949 -0,2.701 0.109,4.891c0.146,2.226 0.256,7.373 0.256,8.796c-0,1.424 -0.11,6.242 -0.219,7.738c-0.037,0.292 -0.073,0.548 -0.073,0.73c-0,0.621 0.255,0.767 1.277,0.876l0.219,0c0.84,0 0.986,-0.401 0.986,-0.876c-0,-0.146 -0.037,-0.292 -0.037,-0.438c-0.036,-0.438 -0.073,-1.825 -0.073,-3.321c0,-1.497 0.037,-3.103 0.073,-3.906c0.11,-1.825 1.022,-2.591 1.679,-3.102c0.73,-0.548 2.081,-0.876 2.701,-0.876c0.11,-0 0.293,-0 0.475,0.036c0.73,0.037 1.278,0.329 1.825,0.949c0.73,0.876 0.767,2.081 0.767,3.212l-0,0.475c-0,1.095 -0.256,4.745 -0.402,6.022c-0.036,0.219 -0.036,0.438 -0.036,0.621c-0,0.73 0.255,1.095 1.496,1.204l0.219,0c0.621,0 0.84,-0.255 0.913,-0.547c0.036,-0.146 0.073,-0.329 0.073,-0.511Z" style="fill-rule:nonzero;"/>
    <path d="M219.114,221.908c0.292,-0.183 0.548,-0.402 0.73,-0.584c0.183,-0.219 0.365,-0.402 0.548,-0.511c0.219,-0.219 0.474,-0.329 0.73,-0.329c0.365,0 0.693,0.292 0.693,0.73c0,0.11 0,0.219 -0.036,0.329c-0,0.036 -0.037,0.073 -0.037,0.109c0,0.329 0.365,0.365 1.387,0.438l0.183,0c0.547,0 0.657,-0.146 0.73,-0.292l-0,-7.19c-0,-1.205 -0.037,-2.482 -0.037,-3.65c0,-0.584 0,-1.132 0.037,-1.643l-0,-0.182c-0,-0.949 -0.475,-0.986 -1.095,-0.986l-0.365,0c-0.438,0 -0.657,0.037 -0.657,0.292c-0,0.183 0.036,0.329 0.036,0.438c0,0.584 -0.219,1.095 -0.657,1.241c-0.073,0.037 -0.109,0.037 -0.182,0.037c-0.256,-0 -0.584,-0.183 -0.913,-0.475c-0.328,-0.292 -0.584,-0.62 -0.876,-0.912c-0.401,-0.511 -1.898,-0.949 -3.285,-0.949c-2.044,-0 -4.38,1.314 -5.511,2.883c-0.803,1.168 -1.095,2.993 -1.241,4.49l-0,0.292c-0,1.423 0.839,3.723 1.752,4.854c0.949,1.205 2.555,2.3 5.256,2.3c1.314,-0 2.19,-0.329 2.81,-0.73Zm2.811,-6.716c-0.11,1.533 -0.621,3.358 -1.898,4.307c-0.986,0.766 -1.752,0.949 -2.884,0.949c-0.219,-0 -0.438,-0.037 -0.73,-0.037c-1.642,-0.109 -3.029,-0.839 -3.613,-1.788c-0.475,-0.876 -0.803,-2.008 -0.803,-3.285l-0,-0.329c0.073,-1.314 0.62,-3.54 1.314,-4.051c0.511,-0.402 2.08,-1.059 3.394,-1.059c0.219,0 0.438,0 0.657,0.037l0.84,0.182c0.146,0 0.146,0.037 0.182,0.037c0.219,0.073 0.548,0.109 0.767,0.219c0.657,0.219 1.277,0.62 1.752,1.423l0.547,0.949c0.037,0.256 0.256,0.511 0.365,0.73c0.11,0.292 0.183,0.621 0.183,0.986c-0,0.219 -0.037,0.474 -0.073,0.73Z" style="fill-rule:nonzero;"/>
    <path d="M236.087,208.987c-0,-0.292 -0.146,-0.402 -0.438,-0.511c-0.183,-0.037 -0.402,-0.037 -0.621,-0.037c-0.255,0 -0.474,-0.036 -0.73,-0.036l-0.62,-0.073c-0.183,-0 -0.329,-0.037 -0.475,-0.073c-0.328,-0.11 -0.547,-0.365 -0.547,-0.73c-0,-0.511 -0,-1.387 0.073,-2.811l-0,-0.146c-0,-0.547 -0.11,-0.73 -0.219,-0.803c-0.183,-0.146 -0.548,-0.146 -0.767,-0.146l-0.109,0c-0.548,0 -0.876,0.438 -0.913,0.657c0,0.037 -0.036,0.11 -0.036,0.146c-0,0.183 0.036,0.475 0.073,0.84c0.073,0.474 0.146,1.095 0.146,1.715l-0,0.183c-0,0.657 -0.292,1.022 -0.767,1.131c-0.146,0.037 -0.292,0.037 -0.438,0.037c-0.255,-0 -0.584,-0.037 -0.839,-0.037c-0.511,0 -0.803,0.329 -0.913,1.424c0,0.036 -0.036,0.073 -0.036,0.109c-0,0.219 0.146,0.292 0.438,0.365c0.182,0.037 0.365,0.037 0.547,0.037c0.183,-0 0.365,-0.037 0.511,-0.037c0.584,0 1.351,0.438 1.351,1.241c-0,0.584 0.109,1.862 0.109,3.504c0,1.643 -0.219,4.782 -0.219,6.205c0,0.694 0.11,0.876 0.219,0.949l0.292,0.073l0.657,0c0.913,0 1.205,-0.109 1.205,-0.584l-0,-0.255c-0.11,-1.022 -0.292,-3.65 -0.329,-5.183c-0.036,-0.511 -0.073,-1.132 -0.073,-1.752c0,-1.205 0.073,-2.446 0.11,-3.249c0.036,-0.803 0.511,-1.131 1.095,-1.168l0.109,0c0.438,0 0.84,0.11 1.278,0.146l0.146,0c0.474,0 0.73,-0.255 0.73,-1.131Z" style="fill-rule:nonzero;"/>
    <path d="M251.162,205.373c-0,-1.241 -0.767,-2.664 -1.789,-3.942c-0.949,-1.204 -2.445,-1.861 -4.453,-1.861c-2.008,-0 -3.833,1.022 -4.855,2.153c-0.985,1.168 -1.35,2.993 -1.35,3.869l-0,0.438c-0,0.11 0.073,0.183 0.182,0.183l0.256,-0c0.219,-0 0.474,-0 0.803,0.036l0.255,0c0.365,0 0.511,-0.073 0.584,-0.146c0.11,-0.109 0.146,-0.255 0.183,-0.401c-0,-0.037 -0,-0.073 0.109,-0.949c0.11,-0.365 0.219,-0.767 0.402,-1.205c0.438,-0.949 1.898,-1.533 3.395,-1.679l0.584,0c0.511,0 0.912,0.073 1.277,0.219c0.402,0.183 0.803,0.511 1.205,0.767c0.912,0.657 1.131,2.19 1.131,3.102c0,0.986 -0.146,1.898 -1.022,2.993c-0.766,0.986 -1.825,1.059 -2.956,1.095l-0.329,0c-1.059,0.037 -1.314,0.73 -1.314,1.059c-0,0.474 -0,3.394 0.036,4.745c0.037,0.839 0.438,0.985 0.84,0.985c0.073,0 0.183,-0.036 0.256,-0.036c0.511,-0.073 0.803,-0.219 0.803,-0.803c-0,-0.803 0.146,-2.081 0.219,-2.847c0.073,-0.949 0.511,-1.351 1.533,-1.497c0.876,-0.109 2.007,-1.168 2.701,-1.715c0.73,-0.621 1.314,-3.176 1.314,-4.563Zm-5.074,15.148c0.037,-0.11 0.037,-0.219 0.037,-0.329c-0,-0.876 -0.621,-1.387 -1.643,-1.387c-1.168,0 -1.606,0.694 -1.716,1.789l0,0.109c0,0.986 0.84,1.716 1.716,1.716c0.84,-0 1.424,-0.657 1.606,-1.898Z" style="fill-rule:nonzero;"/>
  </g>
</svg>
