<?xml version="1.0" encoding="UTF-8" standalone="no"?>
<!DOCTYPE svg PUBLIC "-//W3C//DTD SVG 1.1//EN" "http://www.w3.org/Graphics/SVG/1.1/DTD/svg11.dtd">
<svg width="100%" height="100%" viewBox="0 0 406 529" version="1.1" xmlns="http://www.w3.org/2000/svg" xmlns:xlink="http://www.w3.org/1999/xlink" xml:space="preserve" xmlns:serif="http://www.serif.com/" style="fill-rule:evenodd;clip-rule:evenodd;stroke-linejoin:bevel;">
  <rect id="L2-7" x="0.004" y="0.003" width="405.12" height="528" style="fill:none;"/>
  <clipPath id="_clip1">
    <rect x="0.004" y="0.003" width="405.12" height="528"/>
  </clipPath>
  <g clip-path="url(#_clip1)">
	  <a href="L2-8.svg">
    <circle cx="364.612" cy="491.043" r="17.4" style="fill:#c847ff;"/>
	  </a>
    <g id="staff-bottom" serif:id="staff bottom">
      <path d="M0.004,344.403l405.12,0" style="fill:none;fill-rule:nonzero;stroke:#000;stroke-width:1.2px;"/>
      <path d="M0.004,357.003l405.12,0" style="fill:none;fill-rule:nonzero;stroke:#000;stroke-width:1.2px;"/>
      <path d="M0.004,369.603l405.12,0" style="fill:none;fill-rule:nonzero;stroke:#000;stroke-width:1.2px;"/>
      <path d="M0.004,382.203l405.12,0" style="fill:none;fill-rule:nonzero;stroke:#000;stroke-width:1.2px;"/>
      <path d="M0.004,394.803l405.12,0" style="fill:none;fill-rule:nonzero;stroke:#000;stroke-width:1.2px;"/>
    </g>
    <g id="staff-top" serif:id="staff top">
      <path d="M0.004,106.803l405.12,0" style="fill:none;fill-rule:nonzero;stroke:#000;stroke-width:1.2px;"/>
      <path d="M0.004,119.403l405.12,0" style="fill:none;fill-rule:nonzero;stroke:#000;stroke-width:1.2px;"/>
      <path d="M0.004,132.003l405.12,0" style="fill:none;fill-rule:nonzero;stroke:#000;stroke-width:1.2px;"/>
      <path d="M0.004,144.603l405.12,0" style="fill:none;fill-rule:nonzero;stroke:#000;stroke-width:1.2px;"/>
      <path d="M0.004,157.203l405.12,0" style="fill:none;fill-rule:nonzero;stroke:#000;stroke-width:1.2px;"/>
    </g>
    <g>
      <path d="M151.09,104.939c12.675,-9.667 31.352,-4.567 37.353,10.202c-6.927,-11.378 -25.604,-16.478 -37.353,-10.202" style="stroke:#000;stroke-width:0.61px;stroke-linecap:round;stroke-linejoin:round;"/>
      <path d="M106.76,107.09l0,50.518" style="fill:none;fill-rule:nonzero;stroke:#000;stroke-width:6.76px;"/>
      <path d="M115.794,107.09l0,50.518" style="fill:none;fill-rule:nonzero;stroke:#000;stroke-width:2.21px;"/>
      <path d="M126.565,126.203c-0,-1.429 -1.137,-2.604 -2.559,-2.604c-1.428,-0 -2.558,1.175 -2.558,2.604c0,1.429 1.13,2.604 2.558,2.604c1.422,0 2.559,-1.175 2.559,-2.604" style="fill-rule:nonzero;"/>
      <path d="M126.565,138.495c-0,-1.429 -1.137,-2.605 -2.559,-2.605c-1.428,0 -2.558,1.176 -2.558,2.605c0,1.428 1.13,2.604 2.558,2.604c1.422,-0 2.559,-1.176 2.559,-2.604" style="fill-rule:nonzero;"/>
      <path d="M285.962,126.203c-0,-1.429 -1.137,-2.604 -2.558,-2.604c-1.429,-0 -2.558,1.175 -2.558,2.604c-0,1.429 1.129,2.604 2.558,2.604c1.421,0 2.558,-1.175 2.558,-2.604" style="fill-rule:nonzero;"/>
      <path d="M285.962,138.495c-0,-1.429 -1.137,-2.605 -2.558,-2.605c-1.429,0 -2.558,1.176 -2.558,2.605c-0,1.428 1.129,2.604 2.558,2.604c1.421,-0 2.558,-1.176 2.558,-2.604" style="fill-rule:nonzero;"/>
      <path d="M291.608,107.09l0,50.518" style="fill:none;fill-rule:nonzero;stroke:#000;stroke-width:2.21px;"/>
      <path d="M300.642,107.09l0,50.518" style="fill:none;fill-rule:nonzero;stroke:#000;stroke-width:6.76px;"/>
      <path d="M104.486,107.09l0,50.518" style="fill:none;fill-rule:nonzero;stroke:#000;stroke-width:2.21px;"/>
      <path d="M143.719,122.123l-0,40.954" style="fill:none;fill-rule:nonzero;stroke:#000;stroke-width:1.23px;"/>
      <path d="M143.104,122.124c0,2.113 1.521,4.471 5.508,4.471c5.109,0 10.471,-4.179 10.471,-8.504c0,-2.904 -2.458,-4.525 -5.508,-4.525c-4.77,0 -10.471,4.033 -10.471,8.558" style="fill-rule:nonzero;"/>
      <path d="M188.47,119.52c-6.783,-0 -9.195,3.441 -9.195,6.637c-0,3.196 2.412,6.637 9.195,6.637c6.784,0 9.142,-3.441 9.142,-6.637c-0,-3.196 -2.358,-6.637 -9.142,-6.637m0.392,11.7c-1.375,-0 -2.312,-0.392 -2.95,-1.621c-0.638,-1.229 -1.521,-4.425 -1.575,-5.708c-0.1,-1.329 0.392,-2.113 1.575,-2.504c0.592,-0.2 1.375,-0.3 2.166,-0.3c1.322,-0 2.213,0.3 2.897,1.629c0.691,1.275 1.628,4.471 1.628,5.7c0,2.412 -1.774,2.804 -3.741,2.804" style="fill-rule:nonzero;"/>
      <path d="M143.101,85.749l-0.046,0l-0.1,-0.046c-0.446,0 -0.738,0.292 -0.738,0.691l0,1.13c0,0.292 0.246,0.538 0.492,0.637l10.524,3.296l-10.524,3.342c-0.246,0.1 -0.492,0.345 -0.492,0.637l0,1.13c0,0.399 0.292,0.691 0.738,0.691l0.1,-0.046l0.046,-0l16.378,-5.07c0.246,-0.093 0.492,-0.392 0.492,-0.684c-0,-0.3 -0.246,-0.545 -0.492,-0.638l-16.378,-5.07" style="fill-rule:nonzero;"/>
      <path d="M141.964,178.871c1.37,-5.057 1.765,-5.939 2.501,-6.528c0.395,-0.294 0.736,-0.387 0.984,-0.387c0.092,-0 0.193,0.046 0.24,0.046c0.294,0.047 0.542,0.341 0.542,0.635c-0,0.248 -0.101,0.496 -0.295,0.589c-0.487,0.395 -0.735,1.03 -0.735,1.673c-0,0.24 0.046,0.488 0.1,0.735c0.148,0.442 0.535,0.93 1.03,1.131c0.194,0.093 0.489,0.147 0.782,0.147c1.077,0 2.115,-0.735 2.409,-1.773c0.093,-0.295 0.147,-0.635 0.147,-0.93c0,-0.588 -0.147,-1.177 -0.495,-1.719c-0.69,-1.324 -2.649,-1.912 -4.074,-1.912c-4.515,-0 -6.52,4.708 -7.752,8.34l-0.046,0.1l-3.733,0c-0.294,0 -0.488,0.194 -0.488,0.489l0,1.084c0,0.294 0.194,0.487 0.488,0.487l3.098,0l-0.054,0.194c-0.488,1.967 -0.883,3.686 -1.224,5.305c-0.395,1.812 -0.836,3.725 -1.425,5.986l-0.147,0.589c-1.03,4.019 -1.37,5.443 -2.548,6.226c-0.247,0.147 -0.542,0.247 -0.836,0.247c-0.248,0 -0.442,-0.046 -0.643,-0.193c-0.147,-0.101 -0.34,-0.294 -0.294,-0.542c0.054,-0.194 0.201,-0.395 0.441,-0.488c0.937,-0.395 1.231,-1.324 1.231,-2.114c0,-0.682 -0.487,-1.959 -2.261,-1.959c-1.324,-0 -2.548,1.277 -2.548,2.602c0,2.594 1.766,3.972 4.027,3.972c1.565,0 2.695,-0.542 3.919,-1.765c2.161,-2.161 4.515,-9.518 5.746,-13.692c0.441,-1.572 0.883,-3.136 1.224,-4.267l-0,-0.101l7.658,0l-0.054,0.194c-0.488,1.967 -0.882,3.686 -1.223,5.305c-0.395,1.812 -0.836,3.725 -1.425,5.986l-0.147,0.589c-1.03,4.019 -1.371,5.443 -2.548,6.226c-0.248,0.147 -0.542,0.247 -0.837,0.247c-0.247,0 -0.441,-0.046 -0.642,-0.193c-0.148,-0.101 -0.341,-0.348 -0.295,-0.589c0.055,-0.201 0.202,-0.348 0.442,-0.441c0.937,-0.395 1.231,-1.324 1.231,-2.114c-0,-0.682 -0.488,-1.959 -2.261,-1.959c-1.324,-0 -2.548,1.223 -2.548,2.547c-0,2.602 1.766,4.027 4.027,4.027c1.565,0 2.695,-0.542 3.919,-1.765c2.16,-2.161 4.514,-9.518 5.745,-13.692c0.442,-1.572 0.884,-3.136 1.224,-4.267l0,-0.101l3.585,0c0.295,0 0.489,-0.193 0.489,-0.487l-0,-1.084c-0,-0.295 -0.194,-0.489 -0.489,-0.489l-2.95,0l0.055,-0.147c1.37,-5.057 1.765,-5.939 2.501,-6.528c0.394,-0.294 0.735,-0.387 0.983,-0.387c0.093,-0 0.194,0.046 0.24,0.046c0.295,0.047 0.542,0.341 0.542,0.635c0,0.248 -0.1,0.496 -0.294,0.589c-0.488,0.395 -0.736,1.03 -0.736,1.673c0,0.24 0.047,0.488 0.101,0.735c0.147,0.442 0.534,0.93 1.03,1.131c0.194,0.093 0.488,0.147 0.782,0.147c1.077,0 2.114,-0.735 2.409,-1.773c0.092,-0.295 0.147,-0.635 0.147,-0.93c-0,-0.588 -0.147,-1.177 -0.496,-1.719c-0.689,-1.324 -2.648,-1.912 -4.073,-1.912c-4.515,-0 -6.521,4.708 -7.752,8.34l-0.047,0.1l-7.659,0l0.055,-0.147" style="fill-rule:nonzero;"/>
      <path d="M284.163,196.521l-0,-0.984l-3.679,0l2.85,-7.899l0.147,0.341c0,0 0.488,1.084 2.153,1.526c0.294,0.092 0.643,0.092 0.937,0.092c4.166,0 6.815,-5.738 6.815,-9.462c-0,-2.014 -1.177,-4.422 -3.431,-4.422c-1.517,-0 -3.043,1.277 -3.88,2.114l-0.147,0.147l-0.092,-0.202c-0,0 -1.03,-1.858 -2.75,-2.106l-0.147,0l-0.248,-0.046c-2.795,-0 -4.073,2.943 -4.855,5.196l0.882,0.441c0.194,-0.635 0.69,-2.207 1.278,-2.989c0.295,-0.441 0.883,-0.836 1.324,-0.937l0.194,-0c0.147,-0 0.295,-0 0.395,0.101c0.194,0.147 0.248,0.395 0.248,0.735c0,1.178 -0.883,3.338 -1.13,3.826l-4.856,13.544l-2.997,0l-0,0.984l10.989,-0m1.378,-8.588c-0.1,-0 -0.294,-0 -0.395,-0.047c-0.735,-0.294 -0.929,-1.177 -0.929,-2.114c-0,-1.518 0.534,-3.283 0.589,-3.384c0.34,-1.518 2.207,-4.956 4.119,-4.956c0.101,-0 0.248,-0 0.341,0.046c0.589,0.147 0.689,1.085 0.689,1.572c0,2.354 -1.719,7.752 -3.88,8.782c-0.147,0.101 -0.387,0.101 -0.534,0.101" style="fill-rule:nonzero;"/>
      <path d="M180.458,185.509l88.096,-7.067l-88.096,-7.068" style="fill:none;fill-rule:nonzero;stroke:#000;stroke-width:1.48px;"/>
    </g>
    <g>
      <path d="M151.176,354.899c24.736,-20.088 75.023,-21.135 100.574,-2.094c-25.469,-15.101 -75.756,-14.054 -100.574,2.094" style="stroke:#000;stroke-width:0.62px;stroke-linecap:round;stroke-linejoin:round;"/>
      <path d="M106.764,344.739l0,50.612" style="fill:none;fill-rule:nonzero;stroke:#000;stroke-width:6.77px;"/>
      <path d="M115.815,344.739l0,50.612" style="fill:none;fill-rule:nonzero;stroke:#000;stroke-width:2.21px;"/>
      <path d="M126.605,363.888c0,-1.432 -1.139,-2.609 -2.562,-2.609c-1.432,-0 -2.563,1.177 -2.563,2.609c-0,1.431 1.131,2.609 2.563,2.609c1.423,0 2.562,-1.178 2.562,-2.609" style="fill-rule:nonzero;"/>
      <path d="M126.605,376.202c0,-1.431 -1.139,-2.609 -2.562,-2.609c-1.432,0 -2.563,1.178 -2.563,2.609c-0,1.432 1.131,2.609 2.563,2.609c1.423,0 2.562,-1.177 2.562,-2.609" style="fill-rule:nonzero;"/>
      <path d="M104.486,344.739l0,50.612" style="fill:none;fill-rule:nonzero;stroke:#000;stroke-width:2.21px;"/>
      <path d="M286.298,363.888c0,-1.432 -1.139,-2.609 -2.563,-2.609c-1.431,-0 -2.562,1.177 -2.562,2.609c-0,1.431 1.131,2.609 2.562,2.609c1.424,0 2.563,-1.178 2.563,-2.609" style="fill-rule:nonzero;"/>
      <path d="M286.298,376.202c0,-1.431 -1.139,-2.609 -2.563,-2.609c-1.431,0 -2.562,1.178 -2.562,2.609c-0,1.432 1.131,2.609 2.562,2.609c1.424,0 2.563,-1.177 2.563,-2.609" style="fill-rule:nonzero;"/>
      <path d="M291.955,344.739l-0,50.612" style="fill:none;fill-rule:nonzero;stroke:#000;stroke-width:2.21px;"/>
      <path d="M301.006,344.739l-0,50.612" style="fill:none;fill-rule:nonzero;stroke:#000;stroke-width:6.77px;"/>
      <path d="M244.365,365.957l0,37.952" style="fill:none;fill-rule:nonzero;stroke:#000;stroke-width:1.23px;"/>
      <path d="M151.203,363.349c-6.796,0 -9.212,3.448 -9.212,6.65c-0,3.202 2.416,6.65 9.212,6.65c6.796,-0 9.159,-3.448 9.159,-6.65c-0,-3.202 -2.363,-6.65 -9.159,-6.65m0.393,11.722c-1.378,-0 -2.317,-0.393 -2.956,-1.624c-0.638,-1.232 -1.523,-4.433 -1.577,-5.719c-0.1,-1.331 0.392,-2.116 1.577,-2.509c0.593,-0.2 1.378,-0.3 2.171,-0.3c1.324,0 2.216,0.3 2.901,1.632c0.693,1.278 1.632,4.479 1.632,5.711c-0,2.416 -1.778,2.809 -3.748,2.809" style="fill-rule:nonzero;"/>
      <path d="M243.749,365.958c0,2.117 1.524,4.48 5.519,4.48c5.118,-0 10.49,-4.187 10.49,-8.52c-0,-2.91 -2.463,-4.533 -5.518,-4.533c-4.78,-0 -10.491,4.04 -10.491,8.573" style="fill-rule:nonzero;"/>
      <path d="M243.746,328.285l-0.047,-0l-0.1,-0.047c-0.446,0 -0.738,0.293 -0.738,0.693l-0,1.131c-0,0.293 0.246,0.539 0.492,0.639l10.544,3.302l-10.544,3.348c-0.246,0.1 -0.492,0.346 -0.492,0.639l-0,1.131c-0,0.4 0.292,0.693 0.738,0.693l0.1,-0.046l0.047,-0l16.408,-5.08c0.247,-0.092 0.493,-0.392 0.493,-0.685c-0,-0.3 -0.246,-0.546 -0.493,-0.639l-16.408,-5.079" style="fill-rule:nonzero;"/>
      <path d="M131.741,430.238l0,-0.985l-3.685,0l2.855,-7.913l0.147,0.341c0,0 0.49,1.087 2.157,1.528c0.295,0.094 0.644,0.094 0.939,0.094c4.174,-0 6.828,-5.749 6.828,-9.481c-0,-2.018 -1.18,-4.43 -3.437,-4.43c-1.521,-0 -3.05,1.28 -3.887,2.118l-0.148,0.147l-0.093,-0.202c-0,0 -1.032,-1.862 -2.754,-2.11l-0.147,0l-0.249,-0.046c-2.801,-0 -4.081,2.948 -4.864,5.206l0.884,0.442c0.194,-0.637 0.691,-2.212 1.28,-2.995c0.295,-0.442 0.885,-0.838 1.327,-0.939l0.194,0c0.148,0 0.295,0 0.396,0.101c0.194,0.148 0.248,0.396 0.248,0.737c0,1.179 -0.885,3.344 -1.133,3.833l-4.865,13.569l-3.002,0l0,0.985l11.009,0m1.382,-8.604c-0.101,0 -0.295,0 -0.396,-0.046c-0.738,-0.295 -0.931,-1.179 -0.931,-2.118c-0,-1.521 0.535,-3.29 0.589,-3.39c0.342,-1.521 2.211,-4.966 4.128,-4.966c0.101,0 0.248,0 0.341,0.047c0.59,0.147 0.691,1.086 0.691,1.574c-0,2.359 -1.723,7.767 -3.887,8.799c-0.148,0.1 -0.388,0.1 -0.535,0.1" style="fill-rule:nonzero;"/>
      <path d="M251.288,406.698c1.373,-5.066 1.769,-5.95 2.506,-6.54c0.396,-0.295 0.737,-0.388 0.985,-0.388c0.093,-0 0.194,0.047 0.241,0.047c0.294,0.046 0.543,0.341 0.543,0.636c-0,0.248 -0.101,0.496 -0.295,0.589c-0.489,0.396 -0.737,1.032 -0.737,1.676c-0,0.241 0.046,0.489 0.101,0.737c0.147,0.442 0.535,0.931 1.032,1.133c0.193,0.093 0.488,0.147 0.783,0.147c1.079,0 2.118,-0.737 2.413,-1.776c0.093,-0.295 0.148,-0.637 0.148,-0.931c-0,-0.59 -0.148,-1.18 -0.497,-1.723c-0.691,-1.327 -2.654,-1.916 -4.081,-1.916c-4.523,-0 -6.533,4.717 -7.766,8.356l-0.047,0.101l-3.739,-0c-0.295,-0 -0.489,0.193 -0.489,0.488l-0,1.087c-0,0.294 0.194,0.488 0.489,0.488l3.103,0l-0.054,0.194c-0.489,1.971 -0.885,3.693 -1.226,5.315c-0.395,1.815 -0.838,3.731 -1.428,5.997l-0.147,0.589c-1.032,4.027 -1.373,5.455 -2.552,6.238c-0.249,0.148 -0.544,0.249 -0.839,0.249c-0.248,-0 -0.442,-0.047 -0.643,-0.195c-0.148,-0.1 -0.342,-0.294 -0.295,-0.542c0.054,-0.194 0.201,-0.396 0.442,-0.489c0.939,-0.396 1.234,-1.327 1.234,-2.118c-0,-0.683 -0.489,-1.963 -2.266,-1.963c-1.327,-0 -2.552,1.28 -2.552,2.606c-0,2.6 1.768,3.981 4.034,3.981c1.567,-0 2.7,-0.544 3.926,-1.769c2.164,-2.165 4.523,-9.536 5.757,-13.717c0.442,-1.575 0.884,-3.142 1.225,-4.275l0,-0.101l7.674,0l-0.055,0.194c-0.489,1.971 -0.884,3.693 -1.226,5.315c-0.395,1.815 -0.838,3.731 -1.427,5.997l-0.147,0.589c-1.033,4.027 -1.374,5.455 -2.553,6.238c-0.248,0.148 -0.543,0.249 -0.838,0.249c-0.249,-0 -0.442,-0.047 -0.644,-0.195c-0.147,-0.1 -0.341,-0.349 -0.295,-0.589c0.054,-0.202 0.202,-0.349 0.442,-0.442c0.939,-0.396 1.234,-1.327 1.234,-2.118c0,-0.683 -0.489,-1.963 -2.266,-1.963c-1.326,-0 -2.552,1.226 -2.552,2.552c0,2.607 1.769,4.035 4.035,4.035c1.567,-0 2.699,-0.544 3.925,-1.769c2.165,-2.165 4.523,-9.536 5.757,-13.717c0.442,-1.575 0.884,-3.142 1.225,-4.275l0,-0.101l3.593,0c0.295,0 0.489,-0.194 0.489,-0.488l-0,-1.087c-0,-0.295 -0.194,-0.488 -0.489,-0.488l-2.956,-0l0.054,-0.148c1.374,-5.066 1.769,-5.95 2.506,-6.54c0.396,-0.295 0.737,-0.388 0.985,-0.388c0.094,-0 0.194,0.047 0.241,0.047c0.295,0.046 0.543,0.341 0.543,0.636c-0,0.248 -0.101,0.496 -0.295,0.589c-0.489,0.396 -0.737,1.032 -0.737,1.676c0,0.241 0.047,0.489 0.101,0.737c0.147,0.442 0.536,0.931 1.032,1.133c0.194,0.093 0.489,0.147 0.784,0.147c1.078,0 2.117,-0.737 2.412,-1.776c0.094,-0.295 0.148,-0.637 0.148,-0.931c-0,-0.59 -0.148,-1.18 -0.497,-1.723c-0.69,-1.327 -2.653,-1.916 -4.081,-1.916c-4.523,-0 -6.532,4.717 -7.766,8.356l-0.046,0.101l-7.673,-0l0.054,-0.148" style="fill-rule:nonzero;"/>
      <path d="M231.435,423.304l-88.259,-7.081l88.259,-7.08" style="fill:none;fill-rule:nonzero;stroke:#000;stroke-width:1.48px;"/>
    </g>
  </g>
</svg>
