<?xml version="1.0" encoding="UTF-8" standalone="no"?>
<!DOCTYPE svg PUBLIC "-//W3C//DTD SVG 1.1//EN" "http://www.w3.org/Graphics/SVG/1.1/DTD/svg11.dtd">
<svg width="100%" height="100%" viewBox="0 0 406 529" version="1.1" xmlns="http://www.w3.org/2000/svg" xmlns:xlink="http://www.w3.org/1999/xlink" xml:space="preserve" xmlns:serif="http://www.serif.com/" style="fill-rule:evenodd;clip-rule:evenodd;stroke-linejoin:bevel;">
  <rect id="L4-4" x="0.177" y="0.083" width="405.12" height="528" style="fill:none;"/>
  <clipPath id="_clip1">
    <rect x="0.177" y="0.083" width="405.12" height="528"/>
  </clipPath>
  <g clip-path="url(#_clip1)">
    <g id="staff-bottom" serif:id="staff bottom">
      <path d="M0.177,344.483l405.12,0" style="fill:none;fill-rule:nonzero;stroke:#000;stroke-width:1.2px;"/>
      <path d="M0.177,357.083l405.12,0" style="fill:none;fill-rule:nonzero;stroke:#000;stroke-width:1.2px;"/>
      <path d="M0.177,369.683l405.12,0" style="fill:none;fill-rule:nonzero;stroke:#000;stroke-width:1.2px;"/>
      <path d="M0.177,382.283l405.12,0" style="fill:none;fill-rule:nonzero;stroke:#000;stroke-width:1.2px;"/>
      <path d="M0.177,394.883l405.12,0" style="fill:none;fill-rule:nonzero;stroke:#000;stroke-width:1.2px;"/>
    </g>
	  <a href="L4-5.svg">
    <circle cx="364.785" cy="491.123" r="17.4" style="fill:#149d15;"/>
	  </a>
    <g>
      <path d="M26.8,343.904l0,51.024" style="fill:none;fill-rule:nonzero;stroke:#000;stroke-width:2.23px;"/>
      <path d="M363.909,363.209c0,-1.443 -1.148,-2.63 -2.583,-2.63c-1.444,-0 -2.584,1.187 -2.584,2.63c-0,1.443 1.14,2.63 2.584,2.63c1.435,0 2.583,-1.187 2.583,-2.63" style="fill-rule:nonzero;"/>
      <path d="M363.909,375.623c0,-1.443 -1.148,-2.63 -2.583,-2.63c-1.444,0 -2.584,1.187 -2.584,2.63c-0,1.444 1.14,2.631 2.584,2.631c1.435,-0 2.583,-1.187 2.583,-2.631" style="fill-rule:nonzero;"/>
      <path d="M369.612,343.904l0,51.024" style="fill:none;fill-rule:nonzero;stroke:#000;stroke-width:2.23px;"/>
      <path d="M378.737,343.904l-0,51.024" style="fill:none;fill-rule:nonzero;stroke:#000;stroke-width:6.83px;"/>
      <path d="M29.097,343.904l-0,51.024" style="fill:none;fill-rule:nonzero;stroke:#000;stroke-width:6.83px;"/>
      <path d="M38.221,343.904l0,51.024" style="fill:none;fill-rule:nonzero;stroke:#000;stroke-width:2.23px;"/>
      <path d="M49.1,363.209c-0,-1.443 -1.149,-2.63 -2.584,-2.63c-1.443,-0 -2.584,1.187 -2.584,2.63c0,1.443 1.141,2.63 2.584,2.63c1.435,0 2.584,-1.187 2.584,-2.63" style="fill-rule:nonzero;"/>
      <path d="M49.1,375.623c-0,-1.443 -1.149,-2.63 -2.584,-2.63c-1.443,0 -2.584,1.187 -2.584,2.63c0,1.444 1.141,2.631 2.584,2.631c1.435,-0 2.584,-1.187 2.584,-2.631" style="fill-rule:nonzero;"/>
      <path d="M150.86,379.844l0,-35.257" style="fill:none;fill-rule:nonzero;stroke:#000;stroke-width:1.24px;"/>
      <path d="M127.28,379.844l0,-35.257" style="fill:none;fill-rule:nonzero;stroke:#000;stroke-width:1.24px;"/>
      <path d="M80.12,379.844l0,-35.257" style="fill:none;fill-rule:nonzero;stroke:#000;stroke-width:1.24px;"/>
      <path d="M174.44,379.844l0,-35.257" style="fill:none;fill-rule:nonzero;stroke:#000;stroke-width:1.24px;"/>
      <path d="M198.02,379.844l-0,-35.257" style="fill:none;fill-rule:nonzero;stroke:#000;stroke-width:1.24px;"/>
      <path d="M221.6,379.844l-0,-35.257" style="fill:none;fill-rule:nonzero;stroke:#000;stroke-width:1.24px;"/>
      <path d="M245.18,379.844l-0,-35.257" style="fill:none;fill-rule:nonzero;stroke:#000;stroke-width:1.24px;"/>
      <path d="M268.76,379.844l-0,-35.257" style="fill:none;fill-rule:nonzero;stroke:#000;stroke-width:1.24px;"/>
      <path d="M292.339,379.844l0,-35.257" style="fill:none;fill-rule:nonzero;stroke:#000;stroke-width:1.24px;"/>
      <path d="M103.701,379.844l-0,-35.257" style="fill:none;fill-rule:nonzero;stroke:#000;stroke-width:1.24px;"/>
      <path d="M315.919,379.844l0,-35.257" style="fill:none;fill-rule:nonzero;stroke:#000;stroke-width:1.24px;"/>
      <path d="M339.499,379.844l-0,-35.257" style="fill:none;fill-rule:nonzero;stroke:#000;stroke-width:1.24px;"/>
      <path d="M64.61,383.918c0,2.134 1.537,4.516 5.564,4.516c5.159,-0 10.575,-4.221 10.575,-8.59c0,-2.933 -2.483,-4.57 -5.563,-4.57c-4.818,0 -10.576,4.074 -10.576,8.644" style="fill-rule:nonzero;"/>
      <path d="M88.19,383.918c-0,2.134 1.536,4.516 5.563,4.516c5.16,-0 10.576,-4.221 10.576,-8.59c-0,-2.933 -2.483,-4.57 -5.563,-4.57c-4.819,0 -10.576,4.074 -10.576,8.644" style="fill-rule:nonzero;"/>
      <path d="M111.77,383.918c-0,2.134 1.536,4.516 5.563,4.516c5.16,-0 10.576,-4.221 10.576,-8.59c-0,-2.933 -2.483,-4.57 -5.563,-4.57c-4.819,0 -10.576,4.074 -10.576,8.644" style="fill-rule:nonzero;"/>
      <path d="M158.93,383.918c-0,2.134 1.536,4.516 5.563,4.516c5.16,-0 10.576,-4.221 10.576,-8.59c-0,-2.933 -2.483,-4.57 -5.564,-4.57c-4.818,0 -10.575,4.074 -10.575,8.644" style="fill-rule:nonzero;"/>
      <path d="M229.669,383.918c0,2.134 1.537,4.516 5.564,4.516c5.159,-0 10.575,-4.221 10.575,-8.59c0,-2.933 -2.483,-4.57 -5.563,-4.57c-4.818,0 -10.576,4.074 -10.576,8.644" style="fill-rule:nonzero;"/>
      <path d="M182.51,383.918c-0,2.134 1.536,4.516 5.563,4.516c5.16,-0 10.576,-4.221 10.576,-8.59c-0,-2.933 -2.483,-4.57 -5.564,-4.57c-4.818,0 -10.575,4.074 -10.575,8.644" style="fill-rule:nonzero;"/>
      <path d="M276.829,383.918c0,2.134 1.536,4.516 5.563,4.516c5.16,-0 10.576,-4.221 10.576,-8.59c-0,-2.933 -2.483,-4.57 -5.563,-4.57c-4.819,0 -10.576,4.074 -10.576,8.644" style="fill-rule:nonzero;"/>
      <path d="M300.409,383.918c-0,2.134 1.536,4.516 5.563,4.516c5.16,-0 10.576,-4.221 10.576,-8.59c-0,-2.933 -2.483,-4.57 -5.564,-4.57c-4.818,0 -10.575,4.074 -10.575,8.644" style="fill-rule:nonzero;"/>
      <path d="M206.089,383.918c0,2.134 1.537,4.516 5.564,4.516c5.159,-0 10.575,-4.221 10.575,-8.59c0,-2.933 -2.483,-4.57 -5.563,-4.57c-4.818,0 -10.576,4.074 -10.576,8.644" style="fill-rule:nonzero;"/>
      <path d="M323.989,383.918c-0,2.134 1.536,4.516 5.563,4.516c5.16,-0 10.576,-4.221 10.576,-8.59c-0,-2.933 -2.483,-4.57 -5.564,-4.57c-4.818,0 -10.575,4.074 -10.575,8.644" style="fill-rule:nonzero;"/>
      <path d="M135.35,383.918c-0,2.134 1.536,4.516 5.563,4.516c5.16,-0 10.575,-4.221 10.575,-8.59c0,-2.933 -2.482,-4.57 -5.563,-4.57c-4.818,0 -10.575,4.074 -10.575,8.644" style="fill-rule:nonzero;"/>
      <path d="M253.249,383.918c-0,2.134 1.536,4.516 5.563,4.516c5.16,-0 10.576,-4.221 10.576,-8.59c-0,-2.933 -2.483,-4.57 -5.563,-4.57c-4.819,0 -10.576,4.074 -10.576,8.644" style="fill-rule:nonzero;"/>
      <path d="M64.607,399.94l-0.047,0l-0.101,-0.046c-0.45,-0 -0.745,0.295 -0.745,0.698l0,1.141c0,0.295 0.249,0.543 0.497,0.644l10.63,3.328l-10.63,3.376c-0.248,0.1 -0.497,0.349 -0.497,0.644l0,1.14c0,0.404 0.295,0.698 0.745,0.698l0.101,-0.046l0.047,-0l16.542,-5.121c0.248,-0.093 0.496,-0.396 0.496,-0.691c0,-0.302 -0.248,-0.551 -0.496,-0.644l-16.542,-5.121" style="fill-rule:nonzero;"/>
      <path d="M253.245,399.94l-0.046,0l-0.101,-0.046c-0.45,-0 -0.745,0.295 -0.745,0.698l-0,1.141c-0,0.295 0.248,0.543 0.496,0.644l10.63,3.328l-10.63,3.376c-0.248,0.1 -0.496,0.349 -0.496,0.644l-0,1.14c-0,0.404 0.295,0.698 0.745,0.698l0.101,-0.046l0.046,-0l16.543,-5.121c0.248,-0.093 0.496,-0.396 0.496,-0.691c0,-0.302 -0.248,-0.551 -0.496,-0.644l-16.543,-5.121" style="fill-rule:nonzero;"/>
      <path d="M158.926,399.94l-0.047,0l-0.101,-0.046c-0.45,-0 -0.744,0.295 -0.744,0.698l-0,1.141c-0,0.295 0.248,0.543 0.496,0.644l10.63,3.328l-10.63,3.376c-0.248,0.1 -0.496,0.349 -0.496,0.644l-0,1.14c-0,0.404 0.294,0.698 0.744,0.698l0.101,-0.046l0.047,-0l16.542,-5.121c0.249,-0.093 0.497,-0.396 0.497,-0.691c-0,-0.302 -0.248,-0.551 -0.497,-0.644l-16.542,-5.121" style="fill-rule:nonzero;"/>
      <path d="M79.5,341.483l71.981,0l-0,6.208l-71.981,-0l-0,-6.208"/>
      <path d="M79.5,350.794l71.981,0l-0,6.208l-71.981,-0l-0,-6.208"/>
      <path d="M268.139,341.483l71.981,0l-0,6.208l-71.981,-0l-0,-6.208"/>
      <path d="M268.139,350.794l71.981,0l-0,6.208l-71.981,-0l-0,-6.208"/>
      <path d="M173.82,341.483l71.98,0l0,6.208l-71.98,-0l-0,-6.208"/>
      <path d="M173.82,350.794l71.98,0l0,6.208l-71.98,-0l-0,-6.208"/>
    </g>
    <path d="M93.612,122.883c-0,-0.4 -0.2,-0.55 -0.6,-0.7c-0.25,-0.05 -0.55,-0.05 -0.85,-0.05c-0.35,0 -0.65,-0.05 -1,-0.05l-0.85,-0.1c-0.25,0 -0.45,-0.05 -0.65,-0.1c-0.45,-0.15 -0.75,-0.5 -0.75,-1c-0,-0.7 -0,-1.9 0.1,-3.85l-0,-0.2c-0,-0.75 -0.15,-1 -0.3,-1.1c-0.25,-0.2 -0.75,-0.2 -1.05,-0.2l-0.15,0c-0.75,0 -1.2,0.6 -1.25,0.9c-0,0.05 -0.05,0.15 -0.05,0.2c-0,0.25 0.05,0.65 0.1,1.15c0.1,0.65 0.2,1.5 0.2,2.35l-0,0.25c-0,0.9 -0.4,1.4 -1.05,1.55c-0.2,0.05 -0.4,0.05 -0.6,0.05c-0.35,0 -0.8,-0.05 -1.15,-0.05c-0.7,0 -1.1,0.45 -1.25,1.95c-0,0.05 -0.05,0.1 -0.05,0.15c-0,0.3 0.2,0.4 0.6,0.5c0.25,0.05 0.5,0.05 0.75,0.05c0.25,0 0.5,-0.05 0.7,-0.05c0.8,0 1.85,0.6 1.85,1.7c-0,0.8 0.15,2.55 0.15,4.8c-0,2.25 -0.3,6.55 -0.3,8.5c-0,0.95 0.15,1.2 0.3,1.3l0.4,0.1l0.9,0c1.25,0 1.65,-0.15 1.65,-0.8l-0,-0.35c-0.15,-1.4 -0.4,-5 -0.45,-7.1c-0.05,-0.7 -0.1,-1.55 -0.1,-2.4c-0,-1.65 0.1,-3.35 0.15,-4.45c0.05,-1.1 0.7,-1.55 1.5,-1.6l0.15,0c0.6,0 1.15,0.15 1.75,0.2l0.2,0c0.65,0 1,-0.35 1,-1.55Z" style="fill-rule:nonzero;"/>
    <path d="M110.562,121.683c-0.35,-0.15 -1.55,-0.55 -2.9,-0.55c-1.35,0 -3.2,1.2 -3.85,2.45c-0.15,0.3 -0.35,0.6 -0.6,0.75c-0.15,0.05 -0.25,0.05 -0.3,0.05c-0.25,0 -0.45,-0.15 -0.55,-0.3c-0.15,-0.3 -0.2,-0.7 -0.2,-1.1l-0,-0.35c-0,-0.85 -0.9,-1.2 -1.55,-1.2c-1.25,0 -1.4,0.4 -1.45,0.65c-0,0.05 -0.05,0.1 -0.05,0.2c-0,0.15 0.05,0.4 0.1,0.65c0.05,0.35 0.1,0.75 0.15,1.1c0.1,1.65 0.1,5.35 0.1,7.55c-0,2.15 -0.1,4.4 -0.45,7.3c-0.05,0.5 -0.05,0.9 -0.05,1.15c-0,0.3 0.05,0.45 0.25,0.55c0.1,0.05 0.3,0.05 0.75,0.05c0.4,-0.05 0.9,-0.1 1.5,-0.1c1.25,0 1.55,-0.85 1.55,-1.8c-0,-0.7 -0.2,-1.5 -0.3,-2.1c-0.2,-1 -0.25,-2.85 -0.25,-4.7c-0,-1 -0,-1.95 0.05,-2.8c0.15,-2.7 1.95,-4.2 3.65,-4.6c0.65,-0.15 1.1,-0.2 1.55,-0.2c0.6,0 1,0.1 1.65,0.35c0.1,0 0.25,0.15 0.35,0.15c0.15,0 0.2,-0.05 0.25,-0.2c0.1,-0.05 0.2,-0.25 0.25,-0.5c0.15,-0.25 0.25,-0.55 0.35,-0.9c0.15,-0.5 0.25,-0.85 0.25,-1.05c-0,-0.25 -0.1,-0.4 -0.25,-0.5Z" style="fill-rule:nonzero;"/>
    <path d="M127.012,140.583c0.4,-0.25 0.75,-0.55 1,-0.8c0.25,-0.3 0.5,-0.55 0.75,-0.7c0.3,-0.3 0.65,-0.45 1,-0.45c0.5,0 0.95,0.4 0.95,1c-0,0.15 -0,0.3 -0.05,0.45c-0,0.05 -0.05,0.1 -0.05,0.15c-0,0.45 0.5,0.5 1.9,0.6l0.25,0c0.75,0 0.9,-0.2 1,-0.4l-0,-9.85c-0,-1.65 -0.05,-3.4 -0.05,-5c-0,-0.8 -0,-1.55 0.05,-2.25l-0,-0.25c-0,-1.3 -0.65,-1.35 -1.5,-1.35l-0.5,0c-0.6,0 -0.9,0.05 -0.9,0.4c-0,0.25 0.05,0.45 0.05,0.6c-0,0.8 -0.3,1.5 -0.9,1.7c-0.1,0.05 -0.15,0.05 -0.25,0.05c-0.35,0 -0.8,-0.25 -1.25,-0.65c-0.45,-0.4 -0.8,-0.85 -1.2,-1.25c-0.55,-0.7 -2.6,-1.3 -4.5,-1.3c-2.8,0 -6,1.8 -7.55,3.95c-1.1,1.6 -1.5,4.1 -1.7,6.15l-0,0.4c-0,1.95 1.15,5.1 2.4,6.65c1.3,1.65 3.5,3.15 7.2,3.15c1.8,0 3,-0.45 3.85,-1Zm3.85,-9.2c-0.15,2.1 -0.85,4.6 -2.6,5.9c-1.35,1.05 -2.4,1.3 -3.95,1.3c-0.3,0 -0.6,-0.05 -1,-0.05c-2.25,-0.15 -4.15,-1.15 -4.95,-2.45c-0.65,-1.2 -1.1,-2.75 -1.1,-4.5l-0,-0.45c0.1,-1.8 0.85,-4.85 1.8,-5.55c0.7,-0.55 2.85,-1.45 4.65,-1.45c0.3,0 0.6,0 0.9,0.05l1.15,0.25c0.2,0 0.2,0.05 0.25,0.05c0.3,0.1 0.75,0.15 1.05,0.3c0.9,0.3 1.75,0.85 2.4,1.95l0.75,1.3c0.05,0.35 0.35,0.7 0.5,1c0.15,0.4 0.25,0.85 0.25,1.35c-0,0.3 -0.05,0.65 -0.1,1Z" style="fill-rule:nonzero;"/>
    <path d="M145.912,114.983c-0.05,-1.35 -1.25,-2.6 -2.5,-2.75l-0.35,0c-1.3,0 -2.2,0.8 -2.3,1.95c0.05,1.55 1.4,2.8 2.85,2.8c1.5,0 2.1,-0.85 2.3,-2Zm-0.6,24.05c-0.15,-1.15 -0.6,-5.5 -0.6,-7.65c-0,-1 -0.05,-2 -0.05,-3.05c-0,-1.35 0.05,-2.75 0.2,-4.45c-0,-0.3 0.05,-0.55 0.05,-0.8c-0,-1.6 -0.5,-1.7 -1.3,-1.7c-1.3,0 -1.6,0.3 -1.6,1.2c-0,0.15 0.05,0.3 0.05,0.55c0.1,1.5 0.2,5.7 0.2,7.85c-0,2.15 -0.4,5.95 -0.4,7.8c-0,1.75 0.1,2.05 1.6,2.05c1.4,0 1.9,-0.65 1.9,-1.45c-0,-0.1 -0.05,-0.25 -0.05,-0.35Z" style="fill-rule:nonzero;"/>
    <path d="M170.412,138.183c-0.15,-1.3 -0.3,-5.4 -0.3,-8.3c-0,-0.6 0.05,-1.2 0.05,-1.65l-0,-0.2c-0,-2.3 -1.2,-4.3 -1.9,-5.15c-0.7,-0.9 -2.2,-1.75 -4.15,-1.8l-0.35,0c-1.65,0 -2.65,0.6 -4.35,2.2c-0.7,0.65 -1.25,0.85 -1.6,0.9c-0.3,0 -0.45,-0.15 -0.55,-0.3c-0.1,-0.25 -0.15,-0.55 -0.15,-0.85c-0,-0.3 -0,-0.55 0.05,-0.8c-0,-0.85 -0.8,-1 -1.4,-1c-0.55,0 -1.5,0.05 -1.7,0.5c-0.05,0.15 -0.1,0.35 -0.1,0.6c0.05,0.3 0.1,0.55 0.1,0.9c0.1,1.4 0.7,4.55 0.7,6.6c-0,2.05 -0.1,4.55 -0.5,7.85c-0.1,0.6 -0.1,1.05 -0.1,1.45c-0,1.45 0.5,1.75 1.65,1.75c0.15,0 0.35,-0.05 0.6,-0.05c1,-0.05 1.2,-0.35 1.25,-0.5l-0,-0.35c-0,-0.35 -0.05,-0.75 -0.1,-1c-0.2,-1.1 -0.4,-5.1 -0.4,-6.85c-0,-1.65 0.25,-4.4 1.3,-5.85c1.1,-1.5 2.75,-2.35 4.25,-2.35l0.7,0c0.3,0 0.65,0 0.95,0.1c0.55,0.1 1.05,0.4 1.75,0.95c0.85,0.65 1.2,1.5 1.35,2.55c0.1,0.6 0.1,1.3 0.1,2.05l-0,1.6c-0,2.85 -0.4,4.45 -0.6,7.25c-0,0.2 -0.05,0.45 -0.05,0.6c-0,1.85 0.85,1.9 2.35,1.9c1.05,0 1.3,-0.55 1.3,-1.35c-0,-0.45 -0.1,-0.95 -0.15,-1.4Z" style="fill-rule:nonzero;"/>
    <path d="M218.112,122.983c0.1,-0.25 0.2,-0.45 0.2,-0.6c-0,-0.3 -0.25,-0.45 -0.6,-0.5c-0.25,-0.05 -0.55,-0.05 -0.85,-0.05c-0.5,0 -1.05,0.05 -1.5,0.1c-0.45,0.05 -0.7,0.35 -0.95,0.8c-0.25,0.5 -0.35,1.05 -0.55,1.5c-0.2,0.4 -0.35,1.1 -0.55,1.95c-0.2,0.85 -0.4,1.8 -0.65,2.6c-0.1,0.4 -0.3,0.8 -0.5,1.15c-0.5,1.1 -1.15,2.1 -1.2,3.35c-0.1,0.8 -0.45,1.35 -1,1.35c-0.1,0 -0.3,-0.05 -0.45,-0.15c-0.55,-0.25 -1.05,-0.85 -1.25,-1.55c-0.25,-1.05 -1.2,-3.25 -1.9,-4.8c-0.75,-1.55 -1.5,-3.45 -2,-4.8l-0.35,-0.95c-0.1,-0.3 -0.2,-0.55 -0.35,-0.75c-0.25,-0.45 -0.5,-0.65 -0.8,-0.7c-0.8,0.1 -1.15,1.7 -1.3,2.25c-0.3,1 -0.8,2.7 -1.4,4.15c-0.3,0.75 -0.7,1.45 -1.05,2.15c-0.35,0.7 -0.65,1.45 -0.75,2.25c-0.3,1.7 -0.8,2.85 -1.6,3c-0.1,0 -0.15,0.05 -0.15,0.05c-0.6,0 -1.1,-0.6 -1.35,-1.9c-0.1,-0.45 -0.3,-0.85 -0.6,-1.4c-0.3,-0.55 -0.6,-1.1 -0.9,-1.8c-0.35,-0.7 -0.55,-1.6 -0.75,-2.6l-0.65,-3.15c-0.45,-1.95 -1,-2.3 -2.9,-2.5l-0.35,0c-0.85,0 -1.05,0.45 -1.05,0.8c-0,0.1 0.05,0.15 0.05,0.2c0.05,0.6 1,2.6 1.6,3.7c0.6,1.05 1.75,3.9 3,6.5c1.3,2.7 2.2,5.15 2.8,6.8c0.5,1.45 0.75,2.7 1.35,2.7c0.5,0 0.8,-0.9 1.2,-2l0.2,-0.7c0.5,-1.45 1.1,-3.25 1.6,-4.5c0.3,-0.7 0.75,-1.5 1.1,-2.3c0.35,-0.8 0.65,-1.7 0.9,-2.5c0.15,-0.75 0.5,-1.2 1,-1.2c0.2,0 0.4,0.05 0.6,0.2c0.55,0.3 1.05,1 1.4,1.65c0.7,1.35 2,4.65 2.5,6.25c0.45,1.55 1.3,3.7 2.3,4.85c0.15,0.1 0.2,0.2 0.3,0.2c0.1,0 0.15,-0.1 0.3,-0.3c0.3,-0.4 0.4,-0.9 0.55,-1.35c0.2,-0.55 0.7,-2.45 1.05,-3.55c0.45,-1.05 1.6,-3.2 2.25,-5.3c0.75,-2.2 2.75,-6.45 4,-8.6Z" style="fill-rule:nonzero;"/>
    <path d="M240.962,139.383l-0,-0.3c-0,-0.4 -0.05,-0.75 -0.1,-1.15c-0.1,-0.85 -0.15,-3.25 -0.15,-5.35c-0,-1.35 -0,-2.65 0.05,-3.4l-0,-0.35c-0,-1.85 -0.55,-4.15 -1.4,-5.45c-0.85,-1.3 -3.35,-2.15 -4.65,-2.25c-0.25,0 -0.55,-0.05 -0.85,-0.05c-1.15,0 -2.45,0.25 -3.85,1.3c-0.7,0.55 -1.2,0.75 -1.55,0.75c-0.3,0 -0.45,-0.1 -0.6,-0.25c-0.3,-0.3 -0.3,-0.85 -0.35,-1.25c-0.15,-0.45 -0.2,-0.95 -0.2,-1.55c-0,-0.65 0.05,-1.35 0.15,-2.25c0.2,-1.75 0.4,-4.7 0.5,-7.6l-0,-0.3c-0,-1.25 -0.25,-1.6 -0.45,-1.8c-0.15,-0.15 -0.3,-0.2 -0.6,-0.25l-1.2,0c-1.15,0 -1.5,0.5 -1.5,1.4c-0,1.3 -0,3.7 0.15,6.7c0.2,3.05 0.35,10.1 0.35,12.05c-0,1.95 -0.15,8.55 -0.3,10.6c-0.05,0.4 -0.1,0.75 -0.1,1c-0,0.85 0.35,1.05 1.75,1.2l0.3,0c1.15,0 1.35,-0.55 1.35,-1.2c-0,-0.2 -0.05,-0.4 -0.05,-0.6c-0.05,-0.6 -0.1,-2.5 -0.1,-4.55c-0,-2.05 0.05,-4.25 0.1,-5.35c0.15,-2.5 1.4,-3.55 2.3,-4.25c1,-0.75 2.85,-1.2 3.7,-1.2c0.15,0 0.4,0 0.65,0.05c1,0.05 1.75,0.45 2.5,1.3c1,1.2 1.05,2.85 1.05,4.4l-0,0.65c-0,1.5 -0.35,6.5 -0.55,8.25c-0.05,0.3 -0.05,0.6 -0.05,0.85c-0,1 0.35,1.5 2.05,1.65l0.3,0c0.85,0 1.15,-0.35 1.25,-0.75c0.05,-0.2 0.1,-0.45 0.1,-0.7Z" style="fill-rule:nonzero;"/>
    <path d="M253.412,114.983c-0.05,-1.35 -1.25,-2.6 -2.5,-2.75l-0.35,0c-1.3,0 -2.2,0.8 -2.3,1.95c0.05,1.55 1.4,2.8 2.85,2.8c1.5,0 2.1,-0.85 2.3,-2Zm-0.6,24.05c-0.15,-1.15 -0.6,-5.5 -0.6,-7.65c-0,-1 -0.05,-2 -0.05,-3.05c-0,-1.35 0.05,-2.75 0.2,-4.45c-0,-0.3 0.05,-0.55 0.05,-0.8c-0,-1.6 -0.5,-1.7 -1.3,-1.7c-1.3,0 -1.6,0.3 -1.6,1.2c-0,0.15 0.05,0.3 0.05,0.55c0.1,1.5 0.2,5.7 0.2,7.85c-0,2.15 -0.4,5.95 -0.4,7.8c-0,1.75 0.1,2.05 1.6,2.05c1.4,0 1.9,-0.65 1.9,-1.45c-0,-0.1 -0.05,-0.25 -0.05,-0.35Z" style="fill-rule:nonzero;"/>
    <path d="M272.162,134.983c-0,-1.6 -1.1,-2.8 -2.1,-3.8c-0.8,-0.8 -3.85,-2.45 -4.9,-2.95c-1.15,-0.5 -2.25,-1.35 -2.25,-2.6c-0,-1.25 1,-1.75 2.25,-1.75l0.45,0c1.6,0.05 2.45,0.6 3.65,1.6c0.4,0.35 0.6,0.4 0.7,0.4c0.15,0 0.25,-0.1 0.35,-0.2l0.35,-0.4c0.1,-0.15 0.25,-0.3 0.3,-0.45c0.15,-0.2 0.2,-0.4 0.2,-0.55c-0,-0.2 -0.05,-0.4 -0.25,-0.65c-0.7,-0.75 -2.75,-2.15 -5.75,-2.25l-0.35,0c-0.85,0 -1.3,0.1 -1.65,0.25c-0.4,0.2 -0.7,0.5 -1,0.8c-0.7,0.55 -1.55,1.55 -1.65,2.7c-0,0.2 -0.05,0.4 -0.05,0.55c-0,1.15 0.25,2.1 0.95,3c0.8,1.1 2.6,2.2 4.5,3c2,0.8 3.9,2.35 3.9,4c-0,1.7 -1.4,2.7 -3.6,2.85c-0.15,0 -0.3,0.05 -0.4,0.05c-2.15,0 -3.65,-1.8 -4,-2.5c-0.1,-0.35 -0.5,-0.55 -0.8,-0.55c-0.2,0 -0.5,0.1 -0.85,0.15c-0.75,0.2 -1,0.8 -1,1.4c-0,0.2 -0,0.45 0.15,0.65c0.35,0.65 1.65,1.65 2.85,2.4c1.1,0.6 3.05,1 4.4,1c1.2,0 2.65,-0.9 3.95,-1.75c1.1,-0.75 1.6,-2.75 1.65,-4.4Z" style="fill-rule:nonzero;"/>
    <path d="M286.562,122.883c-0,-0.4 -0.2,-0.55 -0.6,-0.7c-0.25,-0.05 -0.55,-0.05 -0.85,-0.05c-0.35,0 -0.65,-0.05 -1,-0.05l-0.85,-0.1c-0.25,0 -0.45,-0.05 -0.65,-0.1c-0.45,-0.15 -0.75,-0.5 -0.75,-1c-0,-0.7 -0,-1.9 0.1,-3.85l-0,-0.2c-0,-0.75 -0.15,-1 -0.3,-1.1c-0.25,-0.2 -0.75,-0.2 -1.05,-0.2l-0.15,0c-0.75,0 -1.2,0.6 -1.25,0.9c-0,0.05 -0.05,0.15 -0.05,0.2c-0,0.25 0.05,0.65 0.1,1.15c0.1,0.65 0.2,1.5 0.2,2.35l-0,0.25c-0,0.9 -0.4,1.4 -1.05,1.55c-0.2,0.05 -0.4,0.05 -0.6,0.05c-0.35,0 -0.8,-0.05 -1.15,-0.05c-0.7,0 -1.1,0.45 -1.25,1.95c-0,0.05 -0.05,0.1 -0.05,0.15c-0,0.3 0.2,0.4 0.6,0.5c0.25,0.05 0.5,0.05 0.75,0.05c0.25,0 0.5,-0.05 0.7,-0.05c0.8,0 1.85,0.6 1.85,1.7c-0,0.8 0.15,2.55 0.15,4.8c-0,2.25 -0.3,6.55 -0.3,8.5c-0,0.95 0.15,1.2 0.3,1.3l0.4,0.1l0.9,0c1.25,0 1.65,-0.15 1.65,-0.8l-0,-0.35c-0.15,-1.4 -0.4,-5 -0.45,-7.1c-0.05,-0.7 -0.1,-1.55 -0.1,-2.4c-0,-1.65 0.1,-3.35 0.15,-4.45c0.05,-1.1 0.7,-1.55 1.5,-1.6l0.15,0c0.6,0 1.15,0.15 1.75,0.2l0.2,0c0.65,0 1,-0.35 1,-1.55Z" style="fill-rule:nonzero;"/>
    <path d="M296.512,139.983c-0,-0.75 -0.3,-3.6 -0.5,-4.8c-0.1,-0.6 -0.1,-3 -0.1,-5.5l-0,-6.85c-0,-3.15 0.2,-9.3 0.4,-12.05l-0,-0.5c-0,-1.85 -0.9,-1.95 -1.9,-2.1l-0.25,0c-0.7,0 -1.5,0.2 -1.5,0.45c-0,0.4 0.1,2.65 0.2,3.8c0.05,0.6 0.05,3 0.05,5.6l-0,6.6c0.05,0.75 0.05,2 0.05,3.4c-0,3.55 -0.05,8.35 -0.2,10.6c-0.05,0.25 -0.05,0.45 -0.05,0.65c-0,1.05 0.3,1.45 0.6,1.6c0.2,0.2 0.6,0.25 0.9,0.25c0.3,0 0.6,-0.05 0.85,-0.05c1.3,-0.1 1.45,-0.55 1.45,-1.1Z" style="fill-rule:nonzero;"/>
    <path d="M322.212,130.833c-0,-0.05 0.05,-0.1 0.05,-0.2c-0,-0.05 -0.05,-0.2 -0.05,-0.35l-0.2,-1.05c-0.35,-1.6 -2.1,-4.25 -3.4,-5.8c-1.3,-1.4 -3.8,-2.25 -5.9,-2.35l-0.55,0c-2.15,0 -3.85,1.05 -5.6,2.2l-0.4,0.25c-1.9,1.15 -3.25,4.95 -3.35,7.95l-0,0.15c-0,2.85 2.15,6 3.85,7.9c1.65,1.75 5.05,1.8 6.75,1.8c1.6,0 2.9,-0.4 3.75,-0.85c0.35,-0.2 0.85,-0.6 1.45,-1.1c0.55,-0.5 1.15,-1 1.8,-1.5c0.5,-0.35 0.75,-0.75 0.75,-1.15c-0,-0.45 -0.25,-0.9 -1,-1.5c-0.25,-0.2 -0.5,-0.3 -0.65,-0.3c-0.25,0 -0.4,0.15 -0.6,0.3c-0.35,0.4 -0.6,0.9 -0.8,1.4c-0.4,0.9 -2.4,1.9 -4.9,1.9l-0.4,0c-1.65,-0.05 -3.05,-0.55 -4.3,-1.55l-0.75,-0.6c-0.8,-0.7 -1.6,-2.7 -1.6,-3.95l-0,-0.35c0.15,-0.6 1.35,-0.95 2.85,-1c1.25,0 2.65,0.05 3.4,0.05c1.05,0 3.95,0.05 6.2,0.05c1.15,0 2.15,0 2.7,-0.05c0.85,0 0.9,-0.2 0.9,-0.3Zm-3.55,-3.3c0.15,0.25 0.2,0.45 0.2,0.65c-0,0.55 -0.45,0.9 -1.35,0.9c-1.95,0 -4.1,0.05 -4.95,0.05c-0.9,0 -3.55,-0.05 -4.1,-0.2c-0.55,-0.05 -1.75,-0.7 -1.75,-1.6c-0,-0.3 0.1,-0.6 0.35,-0.9c0.8,-1.1 3,-2.6 5.6,-2.6l0.2,0c2.35,0.1 3.15,0.8 4.3,1.9c0.5,0.5 1.2,1.15 1.5,1.8Z" style="fill-rule:nonzero;"/>
  </g>
</svg>
