<?xml version="1.0" encoding="UTF-8" standalone="no"?>
<!DOCTYPE svg PUBLIC "-//W3C//DTD SVG 1.1//EN" "http://www.w3.org/Graphics/SVG/1.1/DTD/svg11.dtd">
<svg width="100%" height="100%" viewBox="0 0 406 529" version="1.1" xmlns="http://www.w3.org/2000/svg" xmlns:xlink="http://www.w3.org/1999/xlink" xml:space="preserve" xmlns:serif="http://www.serif.com/" style="fill-rule:evenodd;clip-rule:evenodd;stroke-linejoin:round;stroke-miterlimit:2;">
  <rect id="L5-2" x="0.178" y="0.089" width="405.12" height="528" style="fill:none;"/>
	<a href="L5-3.svg">
  <circle cx="364.786" cy="491.129" r="17.4" style="fill:#e1c70a;"/>
	</a>
  <g>
    <g>
      <path d="M103.039,210.26c1.06,-1.178 1.422,-2.888 2.889,-3.759c-0.845,1.344 -1.477,2.848 -2.889,3.759Zm129.393,-30.553c-0.14,-0.882 -0.275,-1.733 -0.444,-2.792c1.584,1.183 1.654,1.931 0.444,2.792Zm3.092,0.326c1.253,0.766 1.512,2.538 0.53,3.71c-0.172,-1.203 -0.358,-2.509 -0.53,-3.71Zm22.861,135.484l-0.078,0l0,-7.651l0.078,0l-0,7.651Zm16.267,107.797c1.014,-0.416 2.194,0.222 2.89,1.544c-1.284,0.029 -1.966,-0.934 -2.89,-1.544Zm-1.494,-92.362c-0.093,-0.007 -0.187,-0.015 -0.28,-0.023c-0,-0.831 -0.054,-1.666 0.016,-2.491c0.061,-0.704 0.423,-1.132 1.3,-0.798c-0.36,1.151 -0.698,2.232 -1.036,3.312Zm-166.998,-162.692c-0.004,-0.009 -0.007,-0.018 -0.011,-0.027c1.456,-1.451 2.913,-2.901 4.369,-4.352c0.078,0.077 0.156,0.154 0.234,0.231c-1.53,1.383 -3.061,2.765 -4.592,4.148Zm125.021,143.757c0.231,-0.904 0.227,-1.627 1.06,-1.705c0.633,-0.059 1.275,0.011 1.441,1.061c-0.767,0.197 -1.498,0.386 -2.501,0.644Zm13.157,-73.607c-2.126,0.641 -3.67,1.553 -4.565,3.347c0.419,-2.094 2.002,-3.322 4.565,-3.347Zm25.934,185.053c-0.357,0.418 -0.644,0.755 -1.007,1.181c-0.72,-0.843 -1.308,-1.534 -1.897,-2.224c0.04,-0.05 0.079,-0.099 0.118,-0.149c0.848,0.363 1.696,0.726 2.786,1.192Zm-74.298,-222.994c-0.769,-0.508 -1.22,-0.805 -1.749,-1.154c0.238,-0.589 0.439,-1.085 0.67,-1.659c1.264,0.588 0.845,1.609 1.079,2.813Zm43.322,36.272c-0.18,-1.775 0.221,-3.381 2.002,-4.433c-0.695,1.541 -1.348,2.987 -2.002,4.433Zm13.095,163.197c-0.35,-2.845 0.014,-4.087 1.342,-4.958c-0.462,1.706 -0.902,3.332 -1.342,4.958Zm-43.672,-47.368c-0.657,2.514 -1.315,5.028 -1.972,7.543c-0.098,-0.027 -0.197,-0.053 -0.297,-0.079c0.624,-2.523 0.805,-5.163 2.269,-7.464Zm-2.321,-148.191c-1.101,-1.509 -0.85,-3.045 0.626,-4.193c0.138,0.518 0.273,1.017 0.434,1.621c-1.291,0.421 -0.9,1.573 -1.06,2.572Zm-47.813,67.886c1.147,1.513 2.149,2.778 3.057,4.493c-1.992,-0.89 -2.95,-2.304 -3.057,-4.493Zm109.084,139.494c1.659,-0.4 2.982,-0.387 4.269,0.212c-1.342,0.003 -2.735,1.548 -4.269,-0.212Zm-88.792,-195.056c0.019,3.189 0.719,6.237 1.949,9.176c-1.819,-2.818 -2.225,-5.926 -1.949,-9.176Zm33.989,11.768c0.915,-2.697 2.196,-4.47 3.607,-5.06c-1.327,1.862 -2.467,3.461 -3.607,5.06Zm-5.376,135.167c0.127,1.991 0.988,4.12 -1.119,5.905c0.4,-2.107 0.759,-4.005 1.119,-5.905Zm37.673,3.72c-0.129,-0.054 -0.257,-0.108 -0.385,-0.163c1.005,-2.903 2.011,-5.807 3.018,-8.71c0.103,0.035 0.207,0.07 0.312,0.106c-0.982,2.922 -1.964,5.845 -2.945,8.767Zm24.459,46.543c1.006,0.334 2.231,0.195 2.756,1.613c0.209,0.564 1.109,0.871 1.925,1.462c-2.111,-0.523 -3.606,-1.442 -4.681,-3.075Zm-28.166,-5.128c0.087,0.091 0.175,0.182 0.263,0.273c-1.216,2.427 -3.249,4.641 -4.347,4.741c1.361,-1.671 2.722,-3.342 4.084,-5.014Zm-25.936,-97.736c-0.258,-1.846 0.487,-2.282 2.72,-1.401l-0,1.259c-0.661,0.065 -1.274,0.136 -1.888,0.181c-0.249,0.017 -0.502,-0.022 -0.832,-0.039Zm-17.274,-58.785c2.729,-0.397 3.654,0.134 3.672,2.121c-1.044,-1.273 -2.261,-1.38 -3.598,-0.866c-0.085,0.033 -0.223,0.009 -0.302,-0.042c-0.112,-0.072 -0.192,-0.194 -0.309,-0.318c0.378,-0.092 0.699,-0.17 1.045,-0.253c-0.178,-0.226 -0.293,-0.37 -0.508,-0.642Zm39.594,157.951c-0.12,-0.402 -0.251,-0.616 -0.196,-0.686c1.293,-1.673 2.607,-3.329 3.916,-4.988c0.086,0.062 0.172,0.124 0.258,0.187c-0.998,1.967 -2.286,3.735 -3.978,5.487Zm-38.915,-167.737c-2.112,-0.963 -4.462,-4.3 -4.325,-6.213c1.436,2.063 2.963,4.256 4.325,6.213Zm-92.009,-27.381c-0.737,-1.308 -1.142,-2.38 -0.84,-3.796c0.49,0.61 0.83,1.033 1.153,1.435c0.578,-0.378 1.113,-0.729 1.648,-1.08c0.046,0.06 0.092,0.12 0.137,0.179c-0.655,1.02 -1.312,2.04 -2.098,3.262Zm206.216,206.437c-0.384,-0.701 -0.712,-1.441 -1.166,-2.093c-0.482,-0.691 -1.062,-1.32 -1.64,-1.937c-0.578,-0.616 -1.205,-1.185 -1.814,-1.771c-0.557,-0.535 -1.118,-1.065 -1.678,-1.597c2.845,1.851 5.431,3.922 6.298,7.398Zm-49.46,0.862c-0.454,0.108 -0.862,0.352 -1.123,0.243c-1.606,-0.672 -3.187,-1.413 -4.516,-2.811c2.288,0.068 3.767,1.561 5.639,2.568Zm-76.75,-47.897c-0.128,-0.016 -0.255,-0.033 -0.383,-0.05c0.578,-4.326 1.155,-8.653 1.733,-12.978c0.123,0.016 0.247,0.032 0.372,0.049c-0.575,4.327 -1.148,8.653 -1.722,12.979Zm97.237,24.436c2.549,-0.144 3.571,0.337 4.278,2.141c-0.37,-0.308 -0.658,-0.547 -1.032,-0.858c-0.195,0.569 -0.346,1.009 -0.466,1.359c-0.912,-0.866 -1.813,-1.723 -2.78,-2.642Zm41.06,22.748c-1.643,-1.792 -3.923,-1.872 -6.281,-2.28c2.131,-1.227 5.159,-0.099 6.281,2.28Zm-91.311,-144.83c-1.194,-2.169 -0.741,-4.176 1.204,-5.094c1.475,-0.696 3.062,-1.165 4.621,-1.666c0.425,-0.136 0.929,-0.021 1.397,-0.021c-1.994,0.64 -3.935,1.378 -5.847,2.186c-1.096,0.463 -1.565,1.367 -1.483,2.559c0.043,0.625 0.067,1.252 0.108,2.036Zm-89.129,-5.093c0.564,0.44 1.055,0.783 1.498,1.178c0.516,0.459 0.487,1.494 -0.048,1.956c-0.56,0.484 -0.972,0.058 -1.371,-0.288c-1.228,-1.063 -1.238,-1.517 -0.079,-2.846Zm57.612,-20.738c1.264,-0.716 1.862,-0.679 2.868,0.248c1.619,1.492 2.846,3.274 3.605,5.353c0.103,0.284 0.069,0.617 0.1,0.927c-0.893,-1.888 -1.986,-3.557 -3.384,-5.032c-0.861,-0.909 -1.746,-1.746 -3.189,-1.496Zm17.064,81c1.273,0.465 2.458,0.898 3.68,1.344c-1.097,1.58 -2.213,1.545 -4.195,-0.016c0.159,-0.411 0.324,-0.837 0.515,-1.328Zm16.456,71.44c1.915,-3.949 4.348,-6.747 6.239,-7.316c-2.225,2.609 -4.233,4.962 -6.239,7.316Zm-112.991,15.582c0.058,-0.064 0.117,-0.128 0.176,-0.193c3.575,0.767 7.149,1.533 10.724,2.299c-2.455,-0.041 -4.924,-0.087 -7.331,-0.492c-1.245,-0.209 -2.383,-1.055 -3.569,-1.614Zm128.728,-180.019c-0.026,-0.096 -0.105,-0.227 -0.069,-0.284c1.391,-2.235 2.779,-4.471 4.213,-6.678c0.144,-0.223 0.566,-0.265 0.95,-0.43c-0.142,1.199 -2.291,4.248 -5.094,7.392Zm-40.85,24.018c0.491,-1.94 1.402,-2.801 3.634,-3.175c2.462,-0.414 4.877,-0.868 6.816,-2.65c-1.043,1.582 -2.561,2.375 -4.297,2.823c-0.823,0.212 -1.646,0.42 -2.47,0.626c-1.488,0.37 -2.799,1.01 -3.683,2.376Zm4.496,6.929c-0.06,-0.044 -0.12,-0.087 -0.179,-0.131c0.408,-0.77 0.9,-1.508 1.209,-2.316c1.125,-2.951 3.491,-4.045 6.649,-4.482c-1.698,1.025 -3.342,1.72 -4.588,2.854c-1.239,1.129 -2.077,2.699 -3.091,4.075Zm19.812,-19.051c0.075,0.092 0.151,0.183 0.226,0.274c-2.583,1.774 -5.167,3.548 -7.75,5.323c1.683,-2.695 3.178,-3.765 7.524,-5.597Zm31.991,163.372c-1.625,-1.637 -3.187,-3.329 -3.706,-5.828c1.593,1.296 5.04,5.65 5.396,6.825c-0.602,-0.647 -1.133,-1.216 -1.813,-1.945c0.061,0.467 0.091,0.708 0.123,0.948Zm-11.759,-5.917c-0.115,0.137 -0.231,0.274 -0.346,0.412c-2.74,-1.714 -5.718,-3.142 -7.181,-6.384c2.509,1.99 5.018,3.981 7.527,5.972Zm-30.899,-95.745c0.19,-0.914 0.862,-1.411 1.957,-1.454c1.156,-0.045 2.223,0.095 2.953,1.13c0.396,0.562 0.325,1.062 -0.018,1.316c-1.749,-0.355 -3.302,-0.669 -4.892,-0.992Zm52.947,87.099c1.795,-1.526 3.699,-1.339 5.553,0.384c-0.364,0.375 -0.722,0.743 -1.25,1.286c-0.017,-0.072 0.071,0.173 0.092,0.423c0.022,0.25 -0.022,0.506 -0.037,0.759c-0.52,-2.261 -2.19,-2.748 -4.358,-2.852Zm-138.73,22.937c5.963,-0.478 11.69,-2.166 17.41,-3.891c-5.533,2.475 -11.302,3.883 -17.41,3.891Zm100.69,-226.973c-0.131,0.008 -0.262,0.016 -0.393,0.023c-0.063,-0.924 -0.125,-1.849 -0.188,-2.773c-0.167,-2.485 -0.337,-4.968 -2.138,-6.952c-0.024,-0.027 0.082,-0.172 0.127,-0.262c1.564,0.832 2.474,1.961 2.565,3.654c0.112,2.098 0.027,4.206 0.027,6.31Zm-6.728,93.854c1.143,-0.283 1.382,0.364 1.626,0.941c0.409,0.962 0.906,1.764 2.065,1.985c0.29,0.055 0.731,0.604 0.683,0.84c-0.066,0.32 -0.502,0.719 -0.84,0.788c-0.418,0.086 -1.057,0.024 -1.322,-0.246c-1.144,-1.17 -1.948,-2.552 -2.212,-4.308Zm9.807,109.02c-0,-0.11 -0.001,-0.219 -0.002,-0.328c0.561,-0.038 1.121,-0.115 1.681,-0.11c2.638,0.023 4.866,-0.875 6.648,-2.852c1.015,-1.126 2.059,-2.226 3.154,-3.406c-0.151,1.357 -2.51,4.205 -4.625,5.688c-1.355,0.95 -4.886,1.469 -6.856,1.008Zm-85.332,-113.407c0.212,-0.054 0.415,-0.172 0.578,-0.131c0.273,0.068 0.671,0.181 0.745,0.377c0.117,0.308 0.151,0.833 -0.033,1.034c-0.568,0.622 -1.321,0.517 -2.063,0.272c-0.612,-0.203 -1.086,-0.508 -0.936,-1.245c0.206,-1.012 0.456,-2.016 0.699,-3.076c0.964,0.363 1.714,0.646 2.758,1.039c-0.651,0.644 -1.13,1.117 -1.748,1.73Zm-58.678,-91.338c-2.139,-7.452 1.704,-18.529 6.37,-23.341c-4.781,7.053 -7.722,14.603 -6.37,23.341Zm159.933,212.046c-1.311,-3.773 -3.963,-7.046 -4.148,-11.24c1.953,3.534 3.649,7.164 4.148,11.24Zm17.101,10.949c0.608,-0.053 1.168,-0.033 1.692,-0.162c1.076,-0.265 2.143,-0.577 3.194,-0.931c0.643,-0.217 1.319,-0.45 1.858,-0.844c1.758,-1.282 3.692,-1.773 6.007,-1.545c-0.834,0.087 -1.498,0.157 -1.934,0.203c-0.185,0.378 -0.242,0.747 -0.424,0.826c-1.25,0.537 -2.488,1.214 -3.802,1.463c-2.119,0.402 -4.09,1.044 -5.875,2.259c-0.198,0.135 -0.471,0.159 -0.716,0.236l0,-1.505Zm-93.407,-177.228c-2.663,-4.298 -3.852,-8.884 -2.567,-13.907c0.314,2.331 0.288,4.717 0.689,7.027c0.405,2.332 1.235,4.59 1.878,6.88Zm27.271,5.422c0.362,0 0.726,-0.026 1.086,0.005c3.234,0.28 6.337,-0.039 9.269,-1.632c0.786,-0.428 1.839,-0.508 2.768,-0.499c1.283,0.012 2.563,0.259 3.966,0.42c-1.155,0.773 -2.347,0.576 -3.471,0.42c-1.382,-0.191 -2.627,0.055 -3.856,0.655c-0.76,0.371 -1.541,0.728 -2.35,0.966c-2.463,0.721 -4.924,0.405 -7.412,-0.335Zm-15.059,-5.87c0.307,0.339 0.582,0.714 0.926,1.009c1.287,1.103 2.579,2.201 3.907,3.252c0.363,0.287 0.876,0.598 1.292,0.564c1.956,-0.16 3.327,1.124 4.908,1.875c0.366,0.174 0.633,0.558 0.813,0.723c-1.598,-0.468 -3.232,-1.169 -4.93,-1.397c-3.681,-0.494 -5.403,-3.1 -6.916,-6.026Zm71.65,157.337l0.143,-0c0.146,-1.039 0.001,-2.255 0.501,-3.078c0.913,-1.498 2.209,-2.763 3.344,-4.125c0.135,0.069 0.27,0.137 0.405,0.206c-0.113,0.458 -0.138,0.966 -0.36,1.362c-0.387,0.69 -0.915,1.299 -1.349,1.965c-0.49,0.751 -1.008,1.494 -1.388,2.3c-0.362,0.765 -0.49,1.598 0.412,2.25c-0.591,0.324 -1.048,0.574 -1.698,0.929c-0.125,-1.02 -0.236,-1.927 -0.347,-2.833c0.057,-0.01 0.114,-0.019 0.171,-0.028c0.055,0.351 0.11,0.702 0.166,1.052Zm-116.161,-118.353c0.792,0.756 1.5,1.433 2.351,2.246c-0.856,1.122 -1.64,2.151 -2.438,3.197c0.35,0.132 0.692,0.26 1.181,0.444c-1.303,0.478 -2.249,-0.057 -2.264,-1.121c-0.013,-1.004 0.044,-2.01 0.068,-3.015c0.018,-0.751 0.365,-1.299 1.102,-1.751Zm106.634,138.52c1.763,2.009 1.429,2.014 4.003,0.988c0.099,-0.039 0.199,-0.076 0.293,-0.127c1.248,-0.668 2.534,-0.693 3.863,-0.265c1.315,0.422 2.646,0.799 3.962,1.222c1.211,0.389 2.379,0.435 3.569,-0.128c0.441,-0.209 0.983,-0.202 1.48,-0.294c-2.026,1.577 -4.21,1.805 -6.42,0.694c-2.263,-1.14 -4.494,-1.589 -6.854,-0.322c-0.413,0.222 -0.91,0.416 -1.364,0.407c-0.721,-0.014 -1.491,-0.086 -2.144,-0.362c-0.711,-0.3 -0.931,-0.946 -0.388,-1.813Zm1.117,-4.666c-0.083,0.085 -0.166,0.17 -0.248,0.255c-1.099,-0.771 -2.197,-1.542 -3.296,-2.313c0.408,0.99 0.991,1.793 1.572,2.599c0.591,0.82 1.212,1.62 1.759,2.469c0.503,0.779 1.307,1.41 1.453,2.575c-3.425,-2.727 -5.066,-6.521 -7.262,-9.935c1.475,0.873 2.863,1.823 4.218,2.817c0.634,0.466 1.205,1.019 1.804,1.533Zm-79.125,-175.57c2.965,4.072 6.258,7.625 7.745,12.277c-1.112,-1.679 -2.141,-3.411 -3.24,-5.095c-1.094,-1.675 -2.037,-3.475 -3.631,-4.808c-1.065,1.366 -1.026,3.237 -2.532,4.723c0.605,-2.589 1.126,-4.821 1.658,-7.097Zm38.316,84.442c-0.088,-0.005 -0.177,-0.009 -0.265,-0.012c-0.235,-1.513 -0.426,-3.034 -0.722,-4.535c-0.172,-0.878 -0.564,-1.712 -0.761,-2.588c-0.222,-0.985 0.167,-1.42 1.135,-1.425c1.219,-0.005 1.656,0.354 1.528,1.647c-0.228,2.311 -0.602,4.609 -0.915,6.913Zm48.567,45.876c0.313,1.104 0.572,2.274 0.976,3.39c0.554,1.531 0.57,3.031 -0.225,4.429c-0.596,1.05 -1.392,1.987 -2.134,2.948c-0.138,0.179 -0.436,0.234 -0.978,0.506c0.548,-0.857 0.85,-1.415 1.231,-1.913c1.273,-1.659 1.498,-3.451 0.778,-5.392c-0.11,-0.297 -0.181,-0.608 -0.283,-0.908c-0.412,-1.219 -0.062,-2.245 0.635,-3.06Zm-122.117,28.822c-0.068,-0.043 -0.136,-0.085 -0.204,-0.128c0.649,-1.487 1.3,-2.973 1.945,-4.462c1.044,-2.405 2.336,-3.242 4.961,-3.106c2.14,0.111 4.152,0.775 6.135,1.562c-0.368,0.044 -0.724,0.017 -1.077,-0.033c-1.366,-0.196 -2.725,-0.437 -4.095,-0.59c-2.053,-0.23 -3.612,0.6 -4.708,2.339c-0.68,1.079 -1.363,2.157 -2.063,3.223c-0.272,0.415 -0.595,0.798 -0.894,1.195Zm81.089,-150.328c0.068,-0.074 0.123,-0.184 0.207,-0.215c0.296,-0.111 0.598,-0.211 0.904,-0.287c3.355,-0.84 5.827,-2.672 7.009,-6.059c0.365,-1.045 0.916,-2.031 1.436,-3.014c0.208,-0.394 0.562,-0.709 0.85,-1.061c-0.193,0.933 -0.595,1.677 -0.959,2.439c-0.349,0.731 -0.658,1.481 -0.985,2.223c0.096,0.052 0.192,0.105 0.288,0.157c0.683,-0.735 1.365,-1.47 2.285,-2.46c-2.338,5.083 -6.239,8.565 -11.035,8.277Zm-69.141,36.777c-0.367,0.994 -0.705,1.909 -1.045,2.827c0.223,0.017 0.417,0.032 0.609,0.046c-0.076,1.206 -0.647,1.728 -1.851,1.715c-0.796,-0.009 -1.597,-0.739 -1.514,-1.516c0.179,-1.667 0.651,-3.235 1.857,-4.567c0.64,0.492 1.214,0.934 1.944,1.495Zm112.601,-48.147c-1.919,-2.502 -3.126,-2.881 -5.915,-1.514c-1.558,0.764 -3.029,1.769 -4.389,2.854c-1.436,1.145 -2.695,2.514 -4.03,3.786c2.293,-3.478 5.191,-6.271 9.079,-7.875c0.762,-0.315 1.654,-0.45 2.483,-0.439c1.358,0.018 2.434,0.706 3.154,1.872c0.296,0.481 0.466,0.996 -0.382,1.316Zm-51.089,106.852c0.625,-2.188 1.198,-4.196 1.797,-6.295c1.482,0.573 3.009,0.621 4.287,1.937c-0.697,0.346 -1.175,0.585 -1.844,0.918c0.208,-0.518 0.31,-0.774 0.46,-1.145c-0.343,0.034 -0.671,-0.015 -0.724,0.084c-0.841,1.573 -1.647,3.165 -2.521,4.87c-0.334,-0.085 -0.776,-0.197 -1.455,-0.369Zm-63.093,-71.015c-2.236,1.073 -4.086,2.617 -6.198,3.867c-0.591,-0.805 -1.099,-1.497 -1.543,-2.101c2.566,-1.124 4.94,-2.166 7.422,-3.255c0.118,0.554 0.213,0.997 0.319,1.489Zm23.031,21.914c-0.456,-1.654 -0.493,-1.871 0.096,-2.422c1.269,-1.188 2.589,-2.323 4.138,-3.702c-0.56,1.483 -0.913,2.763 -1.509,3.918c-0.86,1.665 -0.66,3.168 0.305,4.662c0.259,0.402 0.501,0.833 0.836,1.165c1.093,1.086 0.954,2.612 1.501,3.895c-0.43,-0.497 -0.678,-1.072 -0.966,-1.626c-0.412,-0.793 -0.762,-1.642 -1.298,-2.345c-2.158,-2.83 -2.182,-2.813 -1.347,-6.099c-0.578,0.84 -1.155,1.68 -1.756,2.554Zm87.208,1.76c0.288,0.51 0.706,0.989 0.839,1.538c0.285,1.183 0.48,2.396 0.612,3.607c0.727,6.641 0.015,13.283 -0.038,19.925c-0,0.093 -0.049,0.186 -0.075,0.279c-0.124,-0.977 -0.121,-1.933 -0.125,-2.888c-0.029,-7.474 0.002,-14.951 -1.213,-22.461Zm-118.01,112.464c0.004,0.085 0.008,0.171 0.012,0.257c-0.899,0.314 -1.802,0.617 -2.696,0.945c-0.949,0.347 -1.89,0.717 -2.834,1.079c-0.894,0.342 -1.832,0.602 -2.67,1.05c-0.859,0.46 -1.689,0.822 -2.944,0.826c5.742,-4.227 8.414,-5.519 13.011,-5.559c-1.488,0.465 -2.963,0.927 -4.44,1.388c0.027,0.103 0.054,0.205 0.081,0.308c0.826,-0.099 1.653,-0.196 2.48,-0.294Zm116.565,-41.789c-0.121,-0.076 -0.242,-0.152 -0.364,-0.228c0.749,-2.095 1.497,-4.19 2.283,-6.388c0.605,1.101 1.137,1.972 1.574,2.889c0.951,1.994 0.067,4.711 -2.116,6.318c0.42,-0.762 0.766,-1.389 1.111,-2.016c-0.901,-0.429 -0.242,-1.371 -0.696,-2.104c-0.62,0.529 -1.206,1.029 -1.792,1.529Zm-40.87,-3.691c-0.153,0.144 -0.307,0.289 -0.461,0.434c-0.218,-0.346 -0.393,-0.73 -0.66,-1.032c-3.382,-3.826 -6.84,-7.589 -10.143,-11.484c-1.481,-1.746 -2.656,-3.751 -3.971,-5.639c0.102,-0.074 0.204,-0.149 0.305,-0.224c4.977,5.982 9.954,11.963 14.93,17.945Zm33.851,-159.001c-0.648,-0.68 -1.317,-1.342 -1.939,-2.045c-0.992,-1.12 -2.015,-2.166 -3.465,-2.725c-0.458,-0.177 -0.771,-0.699 -1.211,-0.966c-1.484,-0.903 -2.935,-1.898 -4.515,-2.597c-1.324,-0.587 -2.351,0.088 -2.814,1.501c-0.19,0.576 -0.343,1.165 -0.513,1.748c-0.051,-0.83 0.034,-1.62 0.127,-2.409c0.269,-2.297 1.456,-2.995 3.515,-1.968c4.394,2.193 8.157,5.158 10.815,9.461Zm-24.03,90.311c-1.13,-0.658 -2.144,-1.615 -3.292,-1.819c-1.207,-0.214 -2.541,0.292 -3.864,0.49c-0.839,-1.346 -0.744,-2.196 0.361,-2.639c2.105,-0.845 5.569,0.249 6.85,2.154c0.447,0.665 0.35,1.273 -0.055,1.814Zm-23.466,-24.358c-0.711,-0.64 -1.354,-1.218 -1.997,-1.797c0.023,-0.026 0.047,-0.051 0.07,-0.078c1.203,0.61 2.405,1.22 3.697,1.876c0.352,-1.477 2.342,-0.312 2.763,-1.814c-0.416,1.937 -0.682,3.897 -2.587,5.318c0.239,-0.788 0.413,-1.361 0.614,-2.024c-1.151,-0 -2.154,0.074 -3.141,-0.02c-0.996,-0.096 -2.012,-0.254 -2.953,-0.577c-0.889,-0.304 -1.815,-0.681 -2.367,-1.593c0.887,0.553 1.882,-0.041 2.819,0.436c0.858,0.437 1.879,1.088 3.082,0.273Zm0.925,95.232c0.051,-0.013 0.103,-0.025 0.153,-0.037c0.136,1.05 0.331,2.097 0.39,3.152c0.059,1.057 0.132,2.15 -0.063,3.178c-1.014,5.348 -2.58,10.53 -4.903,15.466c-0.339,0.722 -0.719,1.425 -1.081,2.136c-0.095,-0.506 0.059,-0.889 0.19,-1.28c0.997,-2.973 2.027,-5.937 2.971,-8.928c0.639,-2.024 1.097,-4.106 1.751,-6.124c0.484,-1.495 0.725,-2.979 0.607,-4.547c-0.076,-1 -0.015,-2.01 -0.015,-3.016Zm3.938,-21.898c0.346,-1.186 0.689,-2.296 0.992,-3.416c0.498,-1.846 1.059,-3.689 0.407,-5.624c-0.06,-0.178 0.033,-0.407 0.054,-0.589c2.053,-0.712 3.526,-0.401 4.184,1.009c-0.721,0.193 -1.412,0.377 -2.205,0.588c-0.099,0.462 -0.201,0.973 -0.319,1.481c-0.446,1.907 -0.887,3.816 -1.35,5.719c-0.194,0.794 -0.676,1.175 -1.763,0.832Zm45.95,60.888c1.979,2.689 4.429,5.09 4.474,8.754c0.033,2.677 -0.313,5.064 -1.35,6.366c0.333,-5.54 -1.598,-10.267 -3.124,-15.12Zm-33.102,-27.717c1.549,1.621 1.308,1.39 0.437,2.937c-2.576,4.571 -5.254,9.085 -7.9,13.616c-0.138,0.238 -0.343,0.437 -0.688,0.867c2.787,-5.956 5.45,-11.647 8.151,-17.42Zm-19.677,-16.074c0.098,0.035 0.196,0.071 0.295,0.107c-0.047,0.25 -0.062,0.514 -0.149,0.75c-0.859,2.343 -1.663,4.71 -2.624,7.012c-0.671,1.604 -1.044,3.23 -1.066,4.953c-0.01,0.851 0.004,1.704 -0.031,2.554c-0.028,0.69 -0.087,1.381 -0.176,2.065c-0.096,0.738 -0.225,1.472 -0.373,2.201c-0.138,0.677 -0.415,1.339 -0.458,2.018c-0.051,0.801 -0.99,0.514 -1.177,1.149c-0.151,0.513 -0.497,0.967 -0.921,1.75c0.047,-0.506 0.017,-0.674 0.08,-0.797c1.713,-3.363 2.131,-6.974 2.124,-10.686c-0.002,-1.107 0.018,-2.299 0.405,-3.306c1.263,-3.293 2.7,-6.519 4.071,-9.77Zm10.869,-190.02c0.119,-0.098 0.238,-0.196 0.358,-0.294c0.254,0.158 0.559,0.27 0.756,0.482c1.559,1.672 3.112,3.351 4.638,5.053c1.375,1.534 2.441,3.289 2.653,5.351c0.255,2.476 0.295,4.977 0.373,7.468c0.055,1.807 -0.057,3.62 0.042,5.422c0.242,4.406 0.335,8.8 -0.309,12.702c-0,-1.384 0.018,-3.238 -0.003,-5.092c-0.062,-5.322 -0.202,-10.643 -0.194,-15.964c0.008,-4.462 -1.36,-8.231 -4.869,-11.14c-1.017,-0.842 -1.885,-1.87 -2.78,-2.85c-0.289,-0.317 -0.447,-0.755 -0.665,-1.138Zm41.015,54.52c0.482,-1.329 1.49,-2.891 2.694,-3.823c0.651,-0.505 1.438,-0.944 2.23,-1.135c1.576,-0.38 3.121,0.526 3.384,2.118c0.23,1.389 0.131,2.853 0.004,4.268c-0.045,0.503 -0.599,0.961 -0.92,1.439c-0.007,-0.675 0.344,-1.215 0.329,-1.744c-0.064,-2.115 -2.134,-3.145 -3.902,-1.967c-0.57,0.381 -1.048,0.901 -1.746,1.513c1.599,-3.17 3.342,-3.633 5.732,-1.649c0.147,-0.703 -0.118,-1.155 -0.618,-1.544c-0.241,-0.188 -0.659,-0.523 -0.612,-0.651c0.351,-0.968 -0.407,-0.793 -0.82,-0.767c-0.398,0.024 -0.804,0.24 -1.168,0.442c-1.713,0.947 -2.658,2.562 -3.526,4.212c-0.626,1.188 -1.152,2.428 -1.721,3.645c-0.562,-1.845 0.795,-3.102 1.393,-4.675c-0.298,0.129 -0.512,0.222 -0.733,0.318Zm-75.71,23.314c-0.619,-0.087 -1.192,-0.148 -1.756,-0.251c-1.745,-0.319 -3.539,0.686 -4.028,2.432c-0.452,1.615 -0.727,3.281 -1.132,5.167c3.789,-3.572 4.801,-4.04 7.61,-3.42c-2.684,0.211 -4.501,1.542 -6.237,3.067c-0.819,0.72 -1.737,1.329 -2.611,1.988c-0.096,-0.054 -0.193,-0.109 -0.29,-0.165c0.224,-1.665 0.302,-3.368 0.718,-4.983c0.35,-1.358 0.891,-2.763 1.708,-3.883c1.666,-2.284 4.127,-2.202 6.018,0.048Zm-68.212,161.545c0.064,0.135 0.189,0.401 0.338,0.718c0.813,-0.322 1.578,-0.624 2.568,-1.015c-1.528,1.769 -4.563,3.204 -7.141,3.384c1.033,-0.921 2.309,-1.824 3.28,-2.984c1.393,-1.664 2.481,-3.581 3.854,-5.263c1.03,-1.261 2.177,-2.505 3.499,-3.43c2.113,-1.48 4.444,-1.306 6.736,-0.211c-2.639,-0.534 -4.834,0.334 -6.736,2.085c-0.819,0.754 -1.569,1.583 -2.336,2.392c-1.345,1.42 -2.678,2.851 -4.062,4.324Zm118.765,-71.984c-1.316,6.172 -2.941,12.393 -3.901,18.766c-0.08,-0.279 -0.108,-0.546 -0.076,-0.806c0.545,-4.316 1.029,-8.642 1.673,-12.942c0.356,-2.376 0.255,-4.726 0.053,-7.082c-0.104,-1.205 0.009,-1.437 1.146,-1.058c0.994,0.332 1.961,0.77 2.896,1.247c0.742,0.379 0.723,1.085 -0.031,1.438c-0.46,0.214 -1,0.256 -1.76,0.437Zm-70.26,-56.573c1.953,-1.033 3.747,-1.927 5.486,-2.918c1.712,-0.976 3.368,-2.049 5.238,-3.196c-0.268,0.525 -0.435,0.851 -0.727,1.422c0.694,-0.229 1.127,-0.371 1.647,-0.542c-0.575,2.291 -4.587,5.126 -9.819,7.095c-0.574,-0.586 -1.138,-1.16 -1.825,-1.861Zm43.552,131.42c-0.125,-0.143 -0.25,-0.286 -0.375,-0.428c0.344,-0.335 0.644,-0.734 1.036,-0.994c2.965,-1.97 5.865,-4.056 8.944,-5.829c4.698,-2.707 8.863,-6.038 12.637,-9.899c0.892,-0.911 1.812,-1.792 2.72,-2.687c-2.777,4.124 -7.544,8.759 -11.526,11.358c-3.382,2.206 -6.796,4.364 -10.205,6.529c-1.062,0.674 -2.153,1.301 -3.231,1.95Zm-41.946,-127.098c-0.272,-1.116 0.364,-1.489 0.868,-1.76c1.578,-0.853 3.203,-1.624 4.832,-2.377c0.331,-0.152 0.743,0.098 1.069,0.162c0.935,0.18 1.664,1.127 2.748,0.758c0.132,-0.045 0.613,0.385 0.583,0.512c-0.127,0.536 -0.254,1.189 -0.628,1.52c-0.535,0.471 -1.261,0.764 -1.947,1.016c-1.774,0.653 -3.571,1.243 -5.399,1.871c-1.037,-1.008 -1.034,-1.028 0.128,-1.901c0.388,-0.292 0.762,-0.603 1.141,-0.906c-0.034,-0.053 -0.067,-0.105 -0.101,-0.158c-1.059,0.406 -2.118,0.812 -3.294,1.263Zm20.689,98.251c2.501,-15.906 3.754,-32.024 7.968,-47.853c0.262,0.324 0.447,0.453 0.43,0.547c-2.79,15.77 -5.594,31.538 -8.398,47.306Zm19.296,-95.265c-1.275,12.754 -3.517,25.319 -6.613,37.806c-1.227,-0.697 -0.786,-1.589 -0.609,-2.376c1.093,-4.871 2.317,-9.715 3.303,-14.607c1.396,-6.923 2.621,-13.88 3.919,-20.823Zm65.927,48.198c-0.234,-2.062 0.586,-3.955 -0.798,-5.678c-0.147,0.533 -0.268,0.966 -0.388,1.399c-0.213,-1.346 -0.211,-2.671 -0.343,-3.983c-0.245,-2.426 -0.608,-4.84 -0.845,-7.266c-0.161,-1.652 -0.192,-3.317 -0.281,-4.976c-0.088,0.001 -0.176,0.002 -0.264,0.003c-0.404,3.307 -0.809,6.615 -1.232,10.06c0,-1.041 0.002,-1.946 0,-2.851c-0.002,-1.54 0.127,-3.095 -0.041,-4.617c-0.243,-2.203 -0.032,-4.345 0.37,-6.496c0.152,-0.811 0.543,-1.298 1.714,-1.186c-0.588,-1.022 -1.021,-1.774 -1.472,-2.558c0.656,-0.326 1.052,0.11 1.243,0.58c0.274,0.675 0.486,1.411 0.537,2.134c0.095,1.325 0.031,2.66 0.072,3.99c0.103,3.348 0.06,6.713 0.401,10.038c0.239,2.335 0.159,5.032 2.945,6.111c-0.537,1.759 -1.042,3.412 -1.618,5.296Zm-61.711,83.258c0.153,0.371 0.184,0.614 0.322,0.747c0.415,0.403 0.875,0.759 1.312,1.139c1.653,1.434 1.356,3.132 -0.689,3.924c-0.246,0.095 -0.5,0.181 -0.759,0.223c-0.732,0.12 -1.466,0.256 -2.206,0.312c-1.02,0.076 -1.804,0.52 -2.461,1.29c-0.492,0.578 -1.058,1.092 -1.591,1.635c0.03,-0.784 0.433,-1.41 0.411,-2.023c-0.032,-0.945 0.45,-1.202 1.184,-1.382c1.287,-0.316 2.577,-0.626 3.852,-0.989c0.55,-0.157 1.108,-0.371 1.585,-0.68c0.904,-0.585 0.931,-1.161 0.148,-1.921c-0.263,-0.255 -0.623,-0.41 -0.892,-0.661c-0.525,-0.488 -1.015,-1.012 -1.492,-1.492c0.802,-1.172 1.411,-1.567 2.636,-1.925c1.88,-0.55 3.714,-0.207 5.472,0.412c2.631,0.926 5.208,2.007 7.901,3.06c-0.706,0.612 -1.43,0.777 -2.239,0.479c-0.896,-0.332 -1.767,-0.738 -2.672,-1.041c-1.96,-0.655 -3.914,-1.341 -5.91,-1.866c-1.318,-0.347 -2.613,-0.004 -3.912,0.759Zm-120.97,4.287c-0.786,0.491 -0.786,0.491 -1.764,2.183c-1.043,1.805 -2.691,2.394 -4.607,1.606c-0.537,-0.22 -1.057,-0.508 -1.535,-0.838c-1.224,-0.846 -2.374,-0.972 -3.661,-0.035c-1.002,0.73 -2.224,0.994 -3.594,1.116c1.224,-0.745 2.338,-1.363 3.388,-2.076c1.424,-0.966 2.793,-1.003 4.324,-0.19c2.695,1.431 3.309,1.712 5.33,-1.25c1.288,-1.886 2.456,-1.976 4.243,-0.561c0.055,0.043 0.057,0.154 0.084,0.233c-0.199,0.086 -0.385,0.166 -0.816,0.353c0.646,0.591 1.145,1.203 1.78,1.597c1.232,0.765 2.643,0.794 4.021,0.55c1.56,-0.277 3.102,-0.665 4.64,-1.053c1.319,-0.332 2.619,-0.733 3.928,-1.104c0.038,0.113 0.076,0.224 0.115,0.337c-1.697,0.651 -3.383,1.334 -5.094,1.946c-2.119,0.759 -4.306,1.139 -6.568,0.962c-1.837,-0.143 -3.288,-0.808 -3.807,-2.774c-0.09,-0.342 -0.266,-0.661 -0.407,-1.002Zm138.499,-212.098c-0.106,-0.008 -0.212,-0.015 -0.318,-0.023c0.051,-0.733 0.086,-1.467 0.157,-2.197c0.142,-1.481 0.371,-2.957 0.443,-4.44c0.168,-3.398 0.246,-6.8 0.393,-10.199c0.153,-3.562 0.386,-7.122 0.5,-10.685c0.068,-2.124 0.3,-4.32 -0.122,-6.364c-0.663,-3.212 -1.813,-6.324 -2.764,-9.476c-0.125,-0.413 -0.3,-0.81 -0.452,-1.214c2.052,3.03 3.089,6.435 3.717,9.949c0.968,5.417 1.107,10.897 0.872,16.386c-0.086,1.999 -0.226,3.996 -0.34,5.994c-0.062,-0.001 -0.123,-0.003 -0.186,-0.005l0,-9.556c-0.347,3.647 -0.577,7.293 -0.88,10.932c-0.302,3.636 -0.677,7.266 -1.02,10.898Zm23.932,44.076c-0.026,-0.059 -0.052,-0.116 -0.079,-0.175c0.45,-0.219 0.885,-0.479 1.353,-0.651c4.657,-1.717 9.1,-1.149 13.285,1.412c3.943,2.413 5.146,6.1 3.606,10.425c-0.331,0.93 -0.396,1.953 -0.596,2.93c-0.243,1.192 -0.452,2.393 -0.762,3.567c-0.295,1.116 -0.702,2.202 -1.076,3.352c-0.015,-0.239 -0.068,-0.451 -0.036,-0.65c0.524,-3.14 0.986,-6.294 1.62,-9.412c0.362,-1.779 0.533,-3.514 -0.274,-5.16c-0.822,-1.676 -2.022,-3.065 -3.597,-4.141c-2.913,-1.992 -6.117,-2.614 -9.558,-2.177c-1.303,0.165 -2.591,0.449 -3.886,0.68Zm-40.238,71.036c0.445,-1.769 0.89,-3.538 1.335,-5.308c-0.094,-0.025 -0.188,-0.05 -0.282,-0.075c-0.576,1.927 -1.152,3.854 -1.727,5.781c-0.1,-0.023 -0.2,-0.047 -0.3,-0.071c2.399,-8.622 3.079,-17.481 3.973,-26.329c-0.271,4.187 -0.541,8.373 -0.81,12.56c1.079,-3.995 1.458,-8.064 1.699,-12.138c0.242,-4.06 0.306,-8.129 0.448,-12.195c0.724,12.832 -0.094,25.495 -4.336,37.775Zm29.777,-101.535c2.814,-1.489 4.72,-3.696 6.512,-6.019c2.512,-3.257 4.541,-6.81 6.253,-10.538c0.67,-1.46 1.591,-2.352 3.885,-1.516c0.934,0.34 1.836,0.85 2.652,1.425c2.898,2.039 4.419,6.318 3.378,9.687c-0.203,-1.111 -0.417,-2.033 -0.533,-2.968c-0.312,-2.526 -1.896,-4.204 -3.805,-5.598c-0.786,-0.573 -1.795,-0.859 -2.726,-1.211c-0.89,-0.337 -1.473,0.006 -1.913,0.869c-0.482,0.943 -1.161,1.781 -1.689,2.702c-1.161,2.028 -2.238,4.107 -3.432,6.115c-1.649,2.774 -3.782,5.119 -6.399,7.03c-0.693,0.506 -1.294,0.624 -2.183,0.022Zm39.044,23.818c-0.193,0.045 -0.385,0.089 -0.578,0.133c-0.168,-0.641 -0.357,-1.279 -0.499,-1.927c-0.399,-1.822 -0.694,-3.773 -2.355,-4.884c-1.257,-0.84 -2.712,-1.455 -4.16,-1.918c-1.899,-0.608 -3.888,-0.44 -5.847,-0.147c-0.582,0.087 -1.171,0.265 -1.985,-0.192c0.813,-0.367 1.371,-0.657 1.955,-0.875c1.289,-0.484 2.596,-0.913 3.884,-1.397c1.4,-0.528 1.602,-1.175 0.799,-2.388c-0.787,-1.189 -1.557,-2.389 -2.357,-3.569c-0.918,-1.356 -2.121,-1.849 -3.719,-1.437c-0.996,0.256 -1.954,0.657 -2.93,0.993c-0.047,-0.093 -0.094,-0.185 -0.141,-0.278c0.757,-0.452 1.48,-0.98 2.278,-1.342c2.256,-1.026 3.864,-0.39 4.929,1.859c0.204,0.431 0.395,0.884 0.684,1.254c0.19,0.243 0.546,0.358 0.943,0.601c0.381,-1.565 -0.107,-2.765 -0.988,-3.669c-0.838,-0.86 -1.958,-1.444 -2.907,-2.117c1.578,-0.012 2.991,0.602 4.04,1.932c1.041,1.323 1.542,2.778 0.663,4.29c0.372,0.627 0.731,1.103 0.955,1.635c0.583,1.387 0.239,2.105 -1.183,2.51c-0.803,0.23 -1.628,0.384 -2.443,0.572c2.929,0.182 5.667,0.712 7.899,2.822c2.213,2.092 3.22,4.587 3.063,7.539Zm-87.179,147.123c3.759,-12.193 7.133,-24.462 8.361,-37.222c0.072,2.51 0.196,5.016 0.037,7.504c-0.165,2.587 -0.515,5.173 -0.946,7.731c-0.432,2.559 -0.958,5.113 -1.638,7.616c-0.681,2.507 -1.545,4.97 -2.436,7.414c-0.885,2.426 -1.911,4.8 -3.378,6.957Zm61.287,-146.771c0.64,-0.362 1.264,-0.755 1.923,-1.079c2.287,-1.123 4.732,-1.871 7.235,-1.313c2.839,0.632 5.635,1.574 8.07,3.268c3.205,2.23 5.127,5.217 5.061,9.237c-0.027,1.697 -0.105,3.411 -0.38,5.08c-0.362,2.197 -0.785,4.402 -1.743,6.45c-0.036,-0.329 0.002,-0.643 0.05,-0.954c0.545,-3.529 0.952,-7.067 0.755,-10.65c-0.101,-1.837 -0.554,-3.578 -1.457,-5.178c-0.771,-1.364 -1.736,-2.57 -3.104,-3.393c0.621,1.031 1.502,1.891 1.83,3.074c-4.26,-5.147 -10.727,-6.906 -18.24,-4.542Zm-24.31,-30.053c0.08,0.032 0.16,0.064 0.24,0.096c-0.435,1.24 -0.829,2.496 -1.314,3.716c-1.672,4.206 -3.442,8.366 -5.999,12.134c-0.965,1.421 -2.08,2.694 -3.548,3.623c-2.047,1.296 -5.102,1.463 -6.635,0.263c-1.644,-1.286 -3.647,-2.255 -4.28,-4.511c-2.781,-3.816 -4.633,-8.115 -6.455,-12.429c-0.094,-0.224 -0.126,-0.474 -0.187,-0.711c0.558,0.611 0.872,1.319 1.227,2.006c1.267,2.457 2.476,4.948 3.845,7.347c1.241,2.174 2.729,4.183 4.666,5.829c1.883,1.601 3.97,2.005 6.228,1.058c0.959,-0.402 1.966,-0.944 2.651,-1.696c1.352,-1.485 2.697,-3.046 3.678,-4.782c1.593,-2.82 2.891,-5.806 4.312,-8.722c0.524,-1.074 1.047,-2.148 1.571,-3.221Zm-4.477,97.712c-1.964,0.655 -2.453,2.166 -3.022,3.591c-0.374,0.933 -0.685,1.903 -0.914,2.883c-0.349,1.499 -0.576,3.026 -0.909,4.529c-0.203,0.919 -0.507,1.815 -0.772,2.74c0.401,0.149 0.702,0.261 1.074,0.399c-1.069,0.841 -2.805,1.042 -3.624,0.497c-0.599,-0.398 -0.586,-0.865 -0.191,-1.646c0.594,-1.173 1.244,-2.354 1.583,-3.609c0.637,-2.353 1.066,-4.763 1.586,-7.148c0.193,-0.886 0.25,-1.738 0.004,-2.658c-0.306,-1.139 0.093,-1.946 0.871,-2.335c0.86,-0.429 2.119,-0.243 2.789,0.528c0.508,0.587 0.888,1.285 1.525,2.229Zm-1.574,-76.909c0.308,-1.33 0.653,-2.014 1.517,-3.022c1.736,-2.023 3.968,-3.142 6.561,-3.631c1.566,-0.296 3.15,-0.558 4.672,-1.017c3.987,-1.2 7.282,-3.438 9.723,-6.861c1.241,-1.739 2.482,-3.479 3.723,-5.219c0.084,0.066 0.167,0.133 0.251,0.199c-2.459,4.015 -4.609,8.282 -9.027,10.709c4.976,-1.678 8.242,-5.7 12.2,-8.769c-1.832,2.527 -3.948,4.74 -6.589,6.414c-0.942,0.597 -1.885,1.199 -2.781,1.862c-2.734,2.02 -5.708,3.48 -9.087,4.038c-1.098,0.181 -2.19,0.412 -3.293,0.555c-2.862,0.372 -5.278,1.536 -7.076,3.854c-0.216,0.278 -0.469,0.527 -0.794,0.888Zm30.749,64.81c0.563,10.873 -6.708,47.342 -11.323,56.681c5.295,-18.598 8.488,-37.612 11.323,-56.681Zm30.79,-37.139c-0.06,-1.106 -0.084,-2.217 -0.19,-3.319c-0.121,-1.266 -0.154,-2.571 -0.503,-3.778c-1.737,-6.018 -5.269,-10.608 -10.977,-13.383c-0.173,-0.084 -0.395,-0.065 -0.699,-0.111c0.3,0.319 0.512,0.543 0.724,0.767c-7.017,-3.865 -13.773,-2.232 -20.51,0.722c0.205,-0.296 0.417,-0.52 0.669,-0.68c2.657,-1.689 5.433,-3.103 8.548,-3.759c2.758,-0.58 5.502,-0.582 8.178,0.335c5.499,1.885 9.711,5.412 12.668,10.385c2.361,3.97 3.36,8.241 2.092,12.821Zm-46.977,123.028c0.471,0.466 0.433,0.882 0.117,1.324c-0.34,0.476 -0.666,0.962 -1.015,1.432c-4.68,6.31 -9.777,12.217 -16.291,16.735c-1.045,0.725 -2.026,1.595 -3.356,1.894c0.212,-0.509 0.468,-0.973 0.845,-1.291c1.91,-1.608 3.856,-3.172 5.778,-4.767c0.283,-0.234 0.504,-0.545 0.754,-0.821c-3.242,2.181 -6.323,4.493 -9.932,6.192c0.102,-0.441 0.165,-0.719 0.235,-1.022c-0.329,-0.047 -0.569,-0.081 -0.99,-0.14c0.953,-0.416 1.833,-0.643 2.531,-1.131c4.312,-3.016 8.623,-6.038 12.517,-9.604c0.194,-0.178 0.494,-0.524 0.598,-0.475c0.975,0.45 1.315,-0.404 1.737,-0.878c2.155,-2.419 4.256,-4.887 6.472,-7.448Zm-91.13,-118.605c-13.202,-16.664 -25.332,-34.059 -35.633,-52.688c2.004,2.641 3.845,5.392 5.669,8.155c4.249,6.438 8.441,12.916 12.753,19.313c3.806,5.646 7.741,11.205 11.625,16.799c0.272,0.391 0.58,0.759 0.898,1.114c1.953,2.181 3.435,4.663 4.688,7.307Zm106.199,8.071c0.062,0.142 0.125,0.284 0.187,0.426c-1.252,0.684 -2.498,1.378 -3.758,2.049c-2.555,1.36 -4.894,3.002 -6.836,5.175c-1.003,1.122 -1.807,2.31 -2.151,3.842c-0.429,1.907 -2.295,2.363 -3.641,0.949c-0.794,-0.834 -1.483,-1.768 -2.359,-2.827c0.389,-0.388 0.722,-1.022 1.172,-1.119c2.213,-0.481 3.739,-1.947 5.285,-3.415c2.899,-2.752 6.018,-5.229 9.334,-7.457c0.298,-0.201 0.685,-0.268 1.12,-0.431c0.155,1.455 -1.353,1.504 -1.534,2.498c0.157,0.177 0.327,0.37 0.497,0.562c-0.175,0.253 -0.348,0.501 -0.698,1.006c0.808,-0.378 1.274,-0.637 1.769,-0.815c0.524,-0.188 1.075,-0.299 1.613,-0.443Zm-7.393,-5.284c0.269,0.596 0.802,1.146 -0.062,1.613c0.097,0.175 0.193,0.35 0.255,0.462c-0.352,0.396 -0.728,0.756 -1.028,1.171c-0.359,0.496 -0.579,1.111 -0.992,1.548c-0.766,0.811 -1.589,1.58 -2.457,2.28c-2.82,2.275 -5.643,4.535 -7.499,7.747c-0.368,0.637 -0.906,0.707 -1.454,0.193c-0.466,-0.436 -0.936,-0.875 -1.343,-1.364c-0.653,-0.786 -1.465,-1.007 -2.428,-0.82c-0.338,0.065 -0.674,0.147 -1.186,0.26c0.129,-0.521 0.328,-0.879 0.28,-1.2c-0.248,-1.666 0.861,-2.201 2.107,-2.644c0.6,-0.214 1.189,-0.483 1.807,-0.619c2.554,-0.561 4.784,-1.804 6.823,-3.36c1.518,-1.158 2.897,-2.502 4.304,-3.799c0.796,-0.735 1.603,-1.394 2.873,-1.468Zm-100.73,154.064c-0.01,0.106 -0.019,0.212 -0.029,0.318c-2.284,0 -4.571,0.078 -6.851,-0.015c-5.749,-0.233 -10.999,-1.762 -15.154,-6.051c-0.607,-0.627 -1.37,-1.101 -2.061,-1.647c0.711,1.345 -0.097,2.988 1.127,4.314c-0.777,0 -1.401,0.067 -2.006,-0.013c-1.637,-0.215 -2.986,-1.056 -4.219,-2.1c-0.812,-0.688 -1.562,-1.456 -2.415,-2.085c-3.047,-2.247 -6.459,-3.429 -10.269,-3.297c-1.29,0.045 -2.523,0.373 -3.534,1.251c-0.881,0.765 -0.875,0.772 -2.307,1.046c1.116,-2.25 2.947,-3.494 5.364,-3.804c1.745,-0.224 3.522,-0.182 5.197,0.451c1.686,0.637 3.354,1.335 4.989,2.095c2.131,0.99 4.221,2.067 6.112,3.001c0.114,-0.628 0.031,-1.468 0.408,-1.94c0.585,-0.733 1.544,-0.571 2.365,-0.212c0.485,0.211 0.961,0.467 1.388,0.777c0.645,0.468 1.246,0.996 1.859,1.506c1.929,1.603 3.885,3.221 6.319,3.945c2.536,0.754 5.127,1.362 7.729,1.843c1.967,0.362 3.99,0.423 5.988,0.617Zm47.344,-154.988c3.495,5.286 3.839,11.076 2.593,17.095c-0.608,-6.659 -1.874,-10.709 -4.95,-15.642c-0.918,-1.471 -2.035,-2.737 -3.514,-3.642c-1.114,-0.68 -2.04,-1.529 -2.734,-2.631c-0.875,-1.393 -2.204,-2.134 -3.735,-2.537c-2.25,-0.593 -4.543,-0.535 -6.812,-0.198c-0.806,0.119 -1.637,0.504 -2.311,0.975c-1.02,0.712 -1.068,2.182 -0.223,3.083c-0.683,1.323 -1.422,2.599 -2.719,3.459c-1.277,0.847 -2.698,1.095 -4.223,1.016c0.255,0.47 0.46,0.847 0.737,1.356c-0.493,-0.135 -0.773,-0.212 -1.201,-0.33c0.314,0.686 0.537,1.172 0.858,1.87c-1.924,-1.391 -2.636,-2.339 -2.894,-3.564c1.436,-0.134 2.924,-0.124 4.341,-0.437c2.759,-0.609 3.381,-1.446 3.437,-4.315c0.029,-1.456 0.476,-2.61 1.836,-3.263c0.582,-0.28 0.777,-0.7 0.917,-1.328c0.293,-1.316 0.824,-2.548 1.862,-3.013c0.397,-1.141 0.486,-2.205 1.051,-2.854c1.069,-1.228 2.325,-2.344 3.665,-3.27c1.347,-0.931 2.996,-1.278 4.566,-0.639c0.962,0.392 1.777,1.171 2.621,1.825c1.375,1.066 2.339,2.196 2.625,2.913c-1.421,-0.918 -2.897,-1.961 -4.459,-2.854c-1.648,-0.942 -3.32,-0.819 -5.009,0.098c-1.804,0.978 -2.949,2.51 -4.09,4.284c2.527,-0.081 4.916,-0.246 7.12,0.719c-1.956,0.101 -3.91,0.186 -5.861,0.315c-0.412,0.027 -0.925,0.097 -1.2,0.353c-0.873,0.811 -1.656,1.721 -2.474,2.592c2.349,-0.137 4.586,-0.507 6.82,-0.898c1.303,-0.229 2.589,-0.385 3.851,0.266l-3.174,0c1.465,0.633 3.118,0.679 4.439,2.019c-0.477,-0.038 -0.784,-0.063 -1.33,-0.107c1.349,1.339 2.414,2.631 3.703,3.634c4.648,3.614 6.928,8.497 7.876,14.15c0.056,0.331 0.181,0.65 0.273,0.975c0.142,-0.035 0.283,-0.07 0.425,-0.105c0.116,-4 -1.01,-7.726 -2.703,-11.37Zm-27.659,11.567c0.115,-0.092 0.23,-0.185 0.344,-0.277c0.699,0.92 1.388,1.848 2.099,2.757c4.822,6.161 9.632,12.33 14.479,18.47c5.077,6.43 10.17,12.847 15.296,19.238c3.363,4.193 6.826,8.305 10.192,12.496c6.366,7.925 12.717,15.862 19.024,23.833c2.017,2.548 3.936,5.158 6.49,7.225c0.943,0.764 1.852,1.619 2.597,2.573c5.375,6.876 10.707,13.785 16.041,20.693c0.551,0.714 1.057,1.471 1.522,2.245c0.138,0.229 0.065,0.584 0.089,0.882c-0.113,0.037 -0.225,0.074 -0.338,0.111c-0.38,-0.492 -0.811,-0.954 -1.13,-1.483c-0.898,-1.499 -2.301,-2.574 -3.172,-4.143c-0.998,-1.795 -2.467,-3.327 -3.726,-4.976c-1.291,-1.692 -2.511,-3.444 -3.884,-5.068c-1.39,-1.647 -2.924,-3.173 -4.407,-4.741c-0.176,-0.186 -0.464,-0.463 -0.636,-0.423c-0.713,0.167 -0.879,-0.384 -1.176,-0.776c-2.765,-3.647 -5.468,-7.345 -8.308,-10.931c-4.562,-5.758 -9.203,-11.453 -13.843,-17.148c-0.655,-0.805 -1.507,-1.446 -2.241,-2.189c-0.448,-0.453 -1.058,-0.892 -1.225,-1.448c-0.469,-1.557 -1.775,-2.463 -2.682,-3.646c-2.945,-3.844 -6.053,-7.564 -9.155,-11.284c-1.924,-2.308 -4.039,-4.461 -5.912,-6.807c-2.87,-3.597 -5.584,-7.316 -8.401,-10.956c-3.639,-4.7 -7.32,-9.367 -10.968,-14.062c-0.644,-0.828 -1.043,-1.939 -1.842,-2.538c-2.634,-1.975 -3.822,-4.823 -5.127,-7.627Zm36.47,-79.652c1.961,-0.586 4.021,-0.474 5.745,-1.895c0.188,1.135 0.39,1.998 0.451,2.872c0.034,0.482 -0.351,0.687 -1.016,0.607l0,-1.894c-0.215,0.723 0.007,1.537 -0.277,2.093c-0.283,0.556 -1.071,0.853 -1.785,1.369c2.207,-0.113 3.633,-1.241 4.922,-2.621c-0.415,-0.691 -0.415,-0.691 0.26,-1.068c0.187,0.28 0.371,0.554 0.709,1.06c0.418,-0.943 0.85,-1.629 1.027,-2.376c0.493,-2.063 0.876,-4.152 1.312,-6.229c0.089,-0.423 0.22,-0.836 0.332,-1.254c0.099,0.02 0.198,0.039 0.298,0.059l-0,4.11c0.314,-0.423 0.529,-0.71 0.832,-1.117c0.203,1.31 0.375,2.424 0.569,3.669c0.48,-0.45 0.775,-0.725 0.957,-0.895c-0.275,-2.501 -0.013,-4.802 1.041,-7.019c0.192,0.718 0.181,1.432 0.194,2.144c0.038,2.08 0.137,4.126 1.188,6.034c0.608,1.102 0.423,1.554 -0.727,2.423c-2.697,2.037 -5.046,4.405 -7.009,7.156c-1.585,2.223 -3.688,3.211 -6.446,3.018c-2.345,-0.164 -3.082,-0.648 -3.734,-2.901c-0.677,-2.339 -1.242,-4.725 -2.583,-6.816c-0.047,-0.074 0.037,-0.232 0.091,-0.519c0.543,0.77 0.986,1.397 1.428,2.024c0.09,-0.069 0.18,-0.138 0.27,-0.207c-0.143,-0.262 -0.285,-0.527 -0.432,-0.787c-0.177,-0.313 -0.359,-0.624 -0.557,-0.966c2.282,-0.325 2.271,-0.321 3.153,1.786c0.074,0.175 0.434,0.231 0.66,0.342c0.06,-0.068 0.121,-0.136 0.181,-0.203c-0.312,-0.593 -0.625,-1.185 -1.054,-1.999Zm17.599,-43.389c-2.54,-2.568 -5.495,-4.522 -8.785,-5.968c-3.299,-1.45 -6.713,-2.502 -10.367,-1.991c-5.246,0.734 -8.999,3.723 -11.716,8.171c1.091,-0.985 2.18,-1.97 3.27,-2.955c0.08,0.091 0.159,0.181 0.237,0.272c-0.856,0.843 -1.723,1.676 -2.565,2.533c-0.77,0.784 -1.401,1.62 -1.896,2.658c-0.493,1.033 -1.701,1.706 -1.812,3.192c1.862,-1.566 3.622,-3.047 5.449,-4.583c0.063,0.301 0.099,0.474 0.148,0.71c0.372,-0.172 0.729,-0.337 1.087,-0.502c0.104,0.123 0.209,0.245 0.313,0.368c-0.483,0.258 -0.965,0.516 -1.448,0.774c0.088,0.096 0.175,0.193 0.263,0.29c0.23,-0.107 0.46,-0.217 0.691,-0.322c3.977,-1.803 7.989,-2.686 12.345,-1.21c3.612,1.224 6.749,3.231 10.055,5.182c-0.204,0.115 -0.263,0.173 -0.29,0.16c-1.346,-0.627 -2.708,-1.225 -4.031,-1.899c-6.902,-3.513 -13.635,-2.986 -20.211,0.854c-4.623,2.7 -8.698,6.115 -12.481,9.882c-1.934,1.926 -3.578,4.078 -4.714,6.59c-0.996,2.203 -1.406,4.496 -0.829,6.851c0.595,2.43 2.193,4.379 3.436,6.491c0.476,0.808 1.132,1.51 1.763,2.334c0.146,-0.333 0.239,-0.547 0.3,-0.685c1.437,0.42 1.81,1.721 2.441,2.826c0.71,1.247 1.434,2.488 2.223,3.685c2.42,3.679 5.044,7.236 7.274,11.026c3.291,5.592 6.313,11.344 9.44,17.033c0.192,0.349 0.3,0.743 0.447,1.117c-0.4,-0.253 -0.623,-0.586 -0.826,-0.931c-3.048,-5.185 -6.068,-10.386 -9.147,-15.551c-2.562,-4.298 -5.114,-8.61 -8.501,-12.339c-1.753,-1.931 -3.552,-3.82 -5.295,-5.76c-1.69,-1.881 -2.932,-4.045 -3.833,-6.403c-1.129,-2.954 -1.232,-5.922 0.025,-8.86c0.565,-1.318 1.134,-2.656 1.893,-3.864c5.101,-8.118 10.74,-15.862 16.644,-23.403c3.325,-4.247 7.842,-5.824 13.212,-4.859c4.597,0.827 8.687,2.759 12.427,5.505c1.333,0.979 2.564,2.057 3.364,3.581Zm-113.628,47.188c-3.222,-1.682 -6.468,-4.355 -8.858,-7.284c-6.112,-7.49 -8.896,-16.212 -9.599,-25.733c-0.119,-1.619 0.409,-2.712 1.691,-3.647c4.813,-3.51 9.512,-7.179 14.392,-10.591c6.903,-4.826 14.219,-8.938 22.058,-12.083c4.176,-1.676 8.517,-2.638 12.976,-2.964c5.687,-0.416 11.089,0.802 16.199,3.322c0.356,0.176 0.682,0.413 1.343,0.819c-0.713,0.073 -1.058,0.116 -1.406,0.142c-2.227,0.169 -4.476,0.185 -6.676,0.526c-9.967,1.548 -18.336,6.327 -25.544,13.189c-5.236,4.984 -9.105,10.958 -11.514,17.799c-1.847,5.243 -2.597,10.642 -1.439,16.157c0.446,2.123 1.167,4.187 1.749,6.282c0.105,0.375 0.143,0.769 0.226,1.237c-1.008,-0.364 -0.984,-0.378 -1.385,-1.065c-1.519,-2.601 -1.814,-5.6 -2.753,-8.389c-0.016,-0.049 -0.017,-0.106 -0.016,-0.159c0.042,-1.967 -0.09,-3.958 0.166,-5.897c0.49,-3.715 1.819,-7.204 3.332,-10.617c0.223,-0.504 0.425,-1.017 0.638,-1.526c-0.099,-0.039 -0.198,-0.078 -0.297,-0.117c-2.344,3.934 -4.194,8.071 -5.194,12.621l-0,-2.868c-0.243,0.338 -0.355,0.494 -0.468,0.65c0.923,-4.421 1.679,-8.887 3.664,-13.022c-0.187,0.849 -0.374,1.698 -0.545,2.474c0.323,0.12 0.593,0.22 0.926,0.345c0.645,-1.096 1.221,-2.245 1.951,-3.286c1.98,-2.826 3.783,-5.831 6.109,-8.345c2.654,-2.867 5.76,-5.323 8.749,-7.864c0.948,-0.806 2.169,-1.283 3.234,-1.958c1.32,-0.838 2.531,-1.886 3.926,-2.559c3.162,-1.525 6.425,-2.876 9.894,-3.503c2.916,-0.527 5.88,-0.784 8.836,-1.163c-0.212,-0.099 -0.473,-0.256 -0.755,-0.347c-1.721,-0.553 -3.464,-0.911 -5.275,-1.142c-4.015,-0.511 -7.933,-0.205 -11.872,0.599c-6.203,1.266 -11.592,4.414 -17.081,7.31c-2.188,1.154 -4.198,2.643 -6.3,3.962c-0.947,0.594 -2.019,1.029 -2.86,1.741c-1.578,1.337 -3.093,2.762 -4.512,4.266c-1.243,1.317 -2.319,2.792 -3.468,4.197c-0.07,-0.05 -0.141,-0.1 -0.211,-0.15c0.951,-1.412 1.901,-2.825 2.852,-4.237c-4.403,4.271 -5.918,9.868 -7.11,15.613c-0.311,-3.379 0.982,-6.517 1.052,-9.851c-0.726,2.097 -1.452,4.194 -2.177,6.291c-0.074,-0.017 -0.148,-0.034 -0.222,-0.051c0.327,-1.528 0.655,-3.055 0.982,-4.583c-0.371,0.562 -0.627,1.148 -0.773,1.761c-1.076,4.535 -1.001,9.067 0.012,13.607c0.224,1.004 0.254,2.052 0.373,3.08c-0.127,0.022 -0.254,0.044 -0.381,0.065c-1.058,-2.923 -2.091,-5.862 -2.276,-9.013c-0.183,-3.099 -0.193,-6.2 0.646,-9.252c-0.119,-0.014 -0.239,-0.028 -0.358,-0.042c-0.358,2.035 -0.714,4.069 -1.131,6.45c-0.096,-1.041 -0.16,-1.733 -0.254,-2.761c-1.769,11.96 4.774,23.262 11.154,27.598c-0.419,-0.696 -1.312,-1.115 -1.41,-2.286c0.833,0.881 1.463,1.606 2.158,2.264c0.649,0.616 1.185,1.422 2.288,1.727c-0.214,-0.498 -0.345,-0.802 -0.476,-1.106c0.061,-0.039 0.121,-0.078 0.182,-0.117c0.754,0.68 1.507,1.36 2.386,2.155c-0.587,0.504 -1.022,0.877 -1.548,1.329Zm113.447,-20.884c0.094,1.412 -0.214,2.545 -1.602,3.189c-0.573,0.266 -1.122,0.625 -1.61,1.03c-1.065,0.883 -2.104,0.933 -3.168,0.046c-0.883,-0.737 -1.824,-0.703 -2.848,-0.325c-1.382,0.511 -2.402,1.332 -2.757,2.825c0.065,-2.25 1.468,-3.35 3.662,-3.922c-1.281,-0.44 -2.326,-0.827 -3.388,-1.153c-0.605,-0.185 -1.237,-0.335 -1.864,-0.381c-0.74,-0.055 -1.287,0.48 -1.133,1.15c0.221,0.959 0.311,2.005 1.141,2.746c0.206,-0.513 0.4,-0.993 0.529,-1.315c0.779,-0.2 1.381,-0.354 2.277,-0.583c-1.466,1 -1.734,2.201 -1.619,3.55c0.1,1.185 0.213,2.368 0.316,3.501c0.273,-0.088 0.57,-0.184 0.867,-0.28c0.069,0.109 0.137,0.218 0.205,0.326c-0.593,0.517 -1.186,1.033 -2.04,1.776c-0.336,-1.227 -0.579,-2.118 -0.867,-3.17c-1.524,1.32 0.366,2.224 -0.093,3.507c-0.226,0.099 -0.659,0.289 -1.261,0.552c-0.133,-1.168 -0.237,-2.084 -0.375,-3.302c-0.324,0.433 -0.632,0.66 -0.614,0.858c0.041,0.467 0.236,0.921 0.371,1.381c0.331,1.135 0.091,1.364 -1.345,1.176l0,-2.945c-0.706,0.055 -1.18,0.369 -0.823,1.306c0.094,0.248 0.167,0.505 0.243,0.759c0.318,1.066 0.178,1.231 -1.145,1.3c-0.416,-0.932 -0.839,-1.866 -0.278,-2.942c-1.179,0.777 0.012,2.221 -0.841,3.191c-0.991,-1.109 -0.803,-2.203 -0.207,-3.431l-2.28,0c-0.02,-0.366 -0.041,-0.627 -0.049,-0.889c-0.08,-2.643 -2.174,-4.149 -4.664,-3.35c-0.404,0.13 -0.803,0.279 -1.207,0.411c-1.372,0.449 -1.537,0.4 -2.442,-0.724c-0.233,-0.29 -0.447,-0.596 -0.682,-0.886c-0.592,-0.737 -0.829,-1.467 -0.096,-2.278c0.203,-0.224 0.396,-0.57 0.388,-0.854c-0.06,-2.091 0.369,-4.281 -1.306,-6.049c-0.762,-0.804 -0.855,-1.797 -0.371,-2.822c0.496,-1.052 0.978,-2.11 1.482,-3.199c0.18,0.382 0.389,0.824 0.497,1.052c2.148,-0.245 4.117,-0.47 5.874,-0.67c-0.913,-0.151 -2.081,-0.343 -3.393,-0.56c0.515,-0.683 0.929,-1.234 1.344,-1.785c-0.048,-0.05 -0.096,-0.1 -0.144,-0.151c-0.532,0.263 -1.065,0.526 -1.729,0.855c0.103,-0.753 0.185,-1.344 0.287,-2.085c-0.518,0.624 -0.924,1.112 -1.33,1.6c0.047,-2.132 1.118,-3.556 2.796,-4.581c2.366,-1.448 4.976,-2.174 7.702,-2.407c4.322,-0.368 8.589,-0.279 12.39,2.219c-0.017,0.373 -0.032,0.686 -0.05,1.049c0.28,-0.247 0.505,-0.446 0.709,-0.627c0.971,0.547 0.738,1.246 0.353,1.943c-0.985,1.78 -0.648,3.367 0.66,4.828c0.071,0.079 0.13,0.171 0.205,0.245c1.301,1.272 1.713,2.729 1.122,4.509c-0.184,0.554 -0.183,1.323 0.061,1.838c0.724,1.534 1.502,3.138 3.698,2.761c0.085,-0.015 0.189,0.076 0.442,0.187Zm-21.739,134.885c-0.57,-0.651 -0.932,-1.033 -1.26,-1.444c-2.486,-3.124 -4.979,-6.241 -7.442,-9.383c-5.581,-7.122 -11.149,-14.256 -16.71,-21.395c-0.48,-0.617 -0.868,-1.305 -1.335,-2.015c1.837,-0.317 1.958,-0.269 2.73,1.057c0.401,0.69 0.754,1.411 1.191,2.078c1.018,1.557 2.287,2.793 4.216,3.151c0.765,0.142 1.358,0.571 1.763,1.246c0.792,1.32 1.578,2.644 2.382,3.957c2.764,4.513 7.95,4.585 10.666,0.036c0.995,-1.666 1.697,-3.555 2.256,-5.425c1.406,-4.697 1.496,-9.549 1.381,-14.409c-0.089,-3.781 -0.23,-7.563 -0.217,-11.344c0.008,-2.149 0.277,-4.297 0.442,-6.631c1.36,1.76 2.385,3.458 3.772,4.775c1.401,1.33 3.162,2.283 4.927,3.514c-1.116,17.498 -4.376,34.807 -8.762,52.232Zm-34.777,79.75l0.058,-0.059c-0.592,1.823 -2.448,2.717 -3.23,4.402c-3.988,3.583 -8.443,6.463 -13.304,8.7c-1.885,0.867 -3.843,1.575 -5.768,2.356c3.697,-0.791 7.37,-1.627 10.738,-3.406c0.515,-0.271 1.109,-0.777 1.571,-0.687c1.096,0.212 1.789,-0.41 2.596,-0.853c0.326,-0.179 0.647,-0.369 0.974,-0.545c0.309,-0.166 0.623,-0.32 0.934,-0.48c-3.286,3.059 -7.228,4.831 -11.434,6.132c-0.636,0.197 -0.739,-0.57 -1.403,-0.336c-3.685,1.299 -7.471,1.285 -11.339,0.594c1.089,-0.239 2.124,-0.454 3.153,-0.697c1.086,-0.256 2.174,-0.508 3.246,-0.818c0.96,-0.278 1.898,-0.631 2.845,-0.952c-6.723,1.697 -13.491,2.29 -20.37,1.564c2.483,-0.193 4.971,-0.336 7.456,-0.508c3.885,-0.27 7.681,-0.904 11.301,-2.461c5.685,-2.446 10.768,-5.818 15.271,-10.019c6.714,-6.262 12.044,-13.619 16.449,-21.648c6.326,-11.529 11.907,-23.418 16.884,-35.591c0.198,-0.484 0.442,-0.948 0.818,-1.747c-0,0.537 0.031,0.699 -0.005,0.845c-1.157,4.639 -2.28,9.288 -3.492,13.912c-1.984,7.562 -3.843,15.164 -6.093,22.646c-2.532,8.424 -5.88,16.551 -10.564,24.037c-1.515,2.42 -3.433,4.59 -5.194,6.853c-0.318,0.409 -0.77,0.714 -1.16,1.066c-0.054,-0.386 0.05,-0.571 0.185,-0.731c2.807,-3.306 4.996,-7.018 6.823,-10.922c1.703,-3.638 3.211,-7.37 4.732,-11.091c1.086,-2.656 2.12,-5.338 3.054,-8.051c1.26,-3.665 2.414,-7.366 3.587,-11.06c0.325,-1.025 0.552,-2.08 0.824,-3.121c-0.444,0.473 -0.685,1.003 -0.897,1.544c-0.367,0.939 -0.695,1.895 -1.082,2.827c-0.386,0.932 -0.826,1.842 -1.239,2.763c-0.436,0.969 -1.016,1.904 -1.259,2.921c-0.253,1.052 -1.425,1.121 -1.762,2.07c-0.334,0.941 -1.018,1.749 -1.422,2.671c-2.15,4.9 -5.144,9.277 -8.389,13.482c-1.219,1.579 -2.72,2.938 -4.093,4.398Zm34.04,-70.652c-0.334,-0.594 -0.644,-1.202 -1.008,-1.777c-0.655,-1.037 -1.343,-2.054 -2.017,-3.08c2.358,2.561 4.549,5.21 6.702,7.889c0.783,0.976 1.473,2.027 2.206,3.043c0.747,0.814 1.56,1.576 2.227,2.451c2.195,2.875 4.388,5.754 6.481,8.704c1.475,2.079 2.749,4.3 4.183,6.41c0.981,1.445 2.041,2.84 3.58,3.781c0.393,0.24 0.737,0.597 1.026,0.961c3.932,4.968 7.912,9.897 11.754,14.934c4.325,5.671 8.562,11.413 12.256,17.532c1.039,1.722 2.123,3.416 3.207,5.155c-1.029,0.702 -1.42,0.002 -1.902,-0.678c-5.144,-7.247 -10.181,-14.575 -15.499,-21.694c-4.969,-6.65 -10.187,-13.116 -15.398,-19.581c-3.34,-4.144 -6.964,-8.058 -10.286,-12.215c-7.445,-9.315 -14.818,-18.689 -22.151,-28.094c-6.842,-8.774 -13.598,-17.617 -20.385,-26.435c-0.226,-0.294 -0.381,-0.642 -0.57,-0.966c0.348,0.023 0.511,0.155 0.646,0.313c2.973,3.478 6.025,6.893 8.89,10.458c3.335,4.149 6.557,8.39 9.734,12.662c4.194,5.637 8.294,11.343 12.441,17.014c0.273,0.374 0.601,0.707 0.904,1.059c0.047,-0.045 0.094,-0.09 0.141,-0.135c-0.908,-1.469 -1.816,-2.937 -2.724,-4.405c0.046,-0.027 0.092,-0.054 0.139,-0.081c1.807,2.258 3.615,4.517 5.423,6.775Zm35.307,-35.524c-0.099,0.438 -0.374,0.925 -0.268,1.305c0.347,1.24 0.117,2.435 -0.109,3.63c-0.324,1.704 -0.305,3.394 0.08,5.075c0.189,0.828 0.518,1.625 0.688,2.455c0.3,1.462 0.775,2.925 0.393,4.545c-0.839,-0.6 -1.484,-1.298 -2.275,-1.563c-0.852,-0.287 -1.84,-0.17 -2.916,-0.238c0.188,-0.884 0.136,-1.814 0.567,-2.37c0.56,-0.724 0.584,-1.428 0.619,-2.218c0.042,-0.957 0.137,-1.912 0.189,-2.868c0.147,-2.708 0.297,-5.416 0.416,-8.125c0.037,-0.836 -0.173,-1.624 -0.775,-2.368c0.064,1.217 0.249,2.327 0.146,3.411c-0.148,1.581 -0.428,3.16 -0.79,4.708c-0.435,1.862 -1.031,3.685 -1.526,5.533c-0.18,0.674 -0.224,1.321 0.29,1.956c0.868,1.07 0.505,2.13 -0.197,3.32c-0.629,-0.896 -1.305,-1.043 -2.255,-0.816c-0.886,0.212 -1.861,0.045 -2.92,0.045c0.224,-1.219 0.431,-2.351 0.646,-3.522c-1.565,1.327 -2.343,1.445 -3.952,0.484c0.324,-0.514 0.645,-1.026 0.968,-1.536c2.227,-3.509 4.04,-7.132 3.282,-11.5c-0.195,-1.119 0.457,-2.285 1.458,-2.751c1.384,-0.643 2.598,0.174 2.485,1.698c-0.054,0.725 -0.253,1.421 0.254,2.108c0.187,0.254 0.15,0.731 0.104,1.091c-0.21,1.632 -0.357,3.282 -0.724,4.879c-0.358,1.551 -0.981,3.039 -1.436,4.57c-0.179,0.604 -0.467,1.261 0.021,2.042c0.786,-2.403 1.575,-4.61 2.224,-6.857c0.747,-2.585 1.087,-5.188 0.071,-7.829c-0.608,-1.577 1.11,-3.553 2.768,-3.214c1.32,0.271 2.2,1.165 2.886,2.331c0.564,0.96 0.015,1.601 -0.401,2.327c-0.049,0.087 -0.038,0.207 -0.056,0.312c0.262,-0.177 0.515,-0.369 0.787,-0.529c1.108,-0.649 1.884,-0.587 2.73,0.201c0.766,0.713 0.784,1.364 0.32,2.59c-0.313,0.826 -0.556,1.721 -0.604,2.597c-0.132,2.38 0.408,4.635 1.571,6.73c0.228,0.411 0.423,0.841 0.652,1.3c-0.905,1.163 -2.078,1.028 -3.223,0.821c-1.073,-0.194 -1.338,-1.113 -1.519,-2.015c-0.093,-0.463 -0.109,-0.951 -0.094,-1.426c0.053,-1.697 0.113,-3.393 0.211,-5.088c0.074,-1.284 0.083,-2.522 -0.587,-3.707c-0.233,-0.413 -0.141,-1.011 -0.199,-1.524Zm5.072,60.425c0.324,-0.647 0.776,-1.262 0.951,-1.947c1.097,-4.304 2.133,-8.624 3.153,-12.792c-0.001,-0.015 0.04,0.143 0.023,0.293c-0.091,0.792 -0.198,1.583 -0.297,2.373c-0.742,5.91 -1.926,11.732 -3.495,17.475c-0.132,0.481 -0.402,0.925 -0.607,1.385c-0.068,-0.036 -0.135,-0.073 -0.203,-0.109c0.071,-1.428 0.142,-2.856 0.213,-4.284c-0.253,1.189 -0.506,2.378 -0.759,3.567c-0.089,-0.015 -0.179,-0.03 -0.268,-0.046c0.174,-1.735 0.347,-3.47 0.521,-5.205c-0.059,-0.017 -0.118,-0.035 -0.178,-0.052c-0.886,2.919 -1.772,5.838 -2.706,8.919c-0.64,-0.616 -1.167,-1.123 -1.722,-1.656c3.563,-8.036 5.397,-16.469 7.249,-24.875c1.862,-8.443 3.407,-16.955 5.154,-25.76c0,0.574 0.025,0.834 -0.004,1.089c-0.408,3.535 -0.708,7.088 -1.261,10.601c-1.234,7.829 -2.549,15.647 -3.93,23.45c-0.452,2.554 -1.214,5.051 -1.834,7.574Zm-5.41,-38.996c0.042,-2.226 0.042,-2.225 2.245,-2.992c0.501,-0.175 0.985,-0.421 1.499,-0.525c0.829,-0.167 1.602,-0.082 1.963,0.893c-2.8,5.06 -2.646,10.498 -2.135,15.964c1.327,0.387 1.186,-0.654 1.343,-1.43c0.877,1.226 0.846,1.556 -0.08,2.156c-1.188,0.768 -3.078,0.444 -4.175,-0.767c0.975,-0.992 1.042,-2.289 0.944,-3.559c-0.194,-2.542 -0.455,-5.082 -0.793,-7.608c-0.1,-0.75 -0.553,-1.453 -0.844,-2.178c0.174,0.869 -0.56,1.148 -1.014,1.644c-1.054,1.151 -2.31,2.231 -2.984,3.589c-0.888,1.787 -1.377,3.791 -1.881,5.742c-0.314,1.216 -0.526,2.509 0.115,3.744c0.075,0.144 -0.043,0.388 -0.1,0.791c-1.423,-0.394 -2.743,-0.76 -4.173,-1.156c0.493,-0.871 0.916,-1.475 1.195,-2.14c0.513,-1.225 0.977,-2.473 1.398,-3.732c0.923,-2.769 2.04,-5.494 1.689,-8.533c-0.118,-1.018 0.985,-2.101 2.307,-2.506c0.885,-0.272 1.852,0.12 2.459,1.015c0.352,0.521 0.682,1.058 1.022,1.588Zm-92.964,86.639c-0.158,0.311 -0.24,0.719 -0.487,0.916c-1.037,0.826 -2.123,1.59 -3.194,2.373c-0.387,0.284 -0.781,0.556 -1.173,0.833c0.06,0.088 0.121,0.176 0.181,0.264c0.846,-0.369 1.692,-0.738 2.538,-1.107c-0.878,0.874 -1.837,1.593 -2.826,2.268c-5.204,3.551 -10.961,5.036 -17.216,4.422c-2.919,-0.287 -5.811,-0.64 -8.691,0.229c-0.252,0.076 -0.547,0.01 -0.822,0.01c-0.025,-0.101 -0.05,-0.203 -0.076,-0.304c0.766,-0.32 1.511,-0.705 2.301,-0.949c2.032,-0.629 4.097,-0.405 6.158,-0.14c6.746,0.87 12.744,-0.721 17.85,-5.366c0.689,-0.625 1.592,-1.015 2.396,-1.515c0.102,-0.271 0.124,-0.643 0.318,-0.8c1.566,-1.262 3.1,-2.581 4.772,-3.687c1.459,-0.966 3.169,-1.389 4.877,-1.586c-1.241,0.701 -2.491,1.376 -3.71,2.105c-1.084,0.647 -2.132,1.354 -3.196,2.034Zm51.355,-17.286c-0.455,0.661 -0.91,1.322 -1.365,1.982c-0.036,-0.015 -0.073,-0.031 -0.109,-0.047c0.646,-1.912 1.294,-3.823 1.94,-5.735c0.094,0.023 0.186,0.045 0.279,0.068c-0.225,0.832 -0.451,1.664 -0.676,2.496c0.282,-0.435 0.655,-0.837 0.831,-1.312c0.944,-2.538 1.839,-5.095 2.747,-7.646c0.071,-0.2 0.099,-0.415 0.173,-0.614c0.07,-0.188 0.174,-0.365 0.423,-0.875c-0.976,11.952 -6.374,21.559 -13.131,30.571c1.629,-3.056 3.546,-5.978 5.037,-9.105c1.505,-3.155 2.585,-6.513 3.851,-9.783Zm-65.754,-158.173c0.517,0.574 1.103,1.101 1.537,1.732c1.357,1.974 2.639,3.999 3.981,5.983c5.965,8.82 11.942,17.632 17.911,26.45c0.272,0.403 0.503,0.834 0.754,1.253c-0.396,-0.123 -0.622,-0.343 -0.811,-0.592c-2.638,-3.479 -5.451,-6.841 -7.864,-10.469c-4.629,-6.956 -9.035,-14.06 -13.521,-21.112c-0.682,-1.072 -1.3,-2.186 -1.947,-3.281c-2.158,-2.731 -3.913,-5.717 -5.588,-8.756c1.949,2.706 3.744,5.512 5.526,8.326c0.072,0.114 0.018,0.308 0.022,0.466Zm142.206,46.583c-1.109,-1.352 -0.762,-2.897 -0.506,-4.386c0.567,-3.303 0.063,-4.686 -2.782,-6.441c-2.352,-1.45 -4.801,-2.744 -7.2,-4.118c-2.723,-1.559 -5.469,-1.532 -8.24,-0.15c-0.596,0.298 -1.179,0.624 -1.768,0.937c-0.053,-0.093 -0.107,-0.185 -0.16,-0.277c1.636,-1.03 3.271,-2.06 4.76,-2.997c1.201,0.924 2.352,0.069 3.417,0.277c1.163,0.228 2.343,0.362 3.515,0.537c-0.015,0.105 -0.031,0.211 -0.046,0.317c-1.119,-0.195 -2.238,-0.39 -3.356,-0.586c0.775,0.479 1.581,0.741 2.378,1.025c2.786,0.992 5.165,2.635 7.558,4.357c2.362,1.698 3.076,3.761 2.758,6.471c-0.197,1.68 -0.248,3.376 -0.364,5.065c1.738,2.533 3.753,4.952 3.463,8.378c0.302,-0.577 0.58,-1.157 0.652,-1.762c0.069,-0.584 -0.075,-1.193 -0.125,-1.792c0.754,1.673 0.914,3.297 -0.495,4.709c-1.647,1.651 -2.836,3.572 -3.536,5.799c-0.224,0.709 -0.673,1.114 -1.433,1.33c-0.961,0.273 -1.873,0.728 -2.792,1.139c-0.823,0.368 -1.605,0.838 -2.444,1.165c-1.079,0.42 -1.789,0.139 -2.605,-1.019c1.356,1.172 2.559,0.596 3.854,-0.082c1.208,-0.634 2.517,-1.092 3.814,-1.529c0.631,-0.212 0.927,-0.557 1.164,-1.155c0.597,-1.51 1.056,-3.15 1.984,-4.44c1.851,-2.576 1.831,-4.98 0.057,-7.496c-0.244,-0.346 -0.476,-0.712 -0.647,-1.099c-0.318,-0.714 -0.587,-1.45 -0.875,-2.177Zm-106.068,5.177c-0.376,-0.158 -0.75,-0.317 -1.126,-0.474c-0.928,2.2 -1.956,2.637 -3.435,0.802c0.841,-0.909 1.71,-1.821 2.545,-2.764c0.301,-0.342 0.521,-0.756 0.778,-1.136c-0.615,-0.165 -1.23,-0.329 -1.765,-0.471c-0.193,0.261 -0.38,0.538 -0.593,0.794c-0.145,0.175 -0.468,0.319 -0.47,0.479c-0.013,1.288 -0.941,1.915 -1.858,2.785c-0.711,-0.586 -1.372,-1.131 -2.177,-1.795c2.287,-1.667 3.669,-4.02 6.164,-5.251c0.351,0.625 0.625,1.115 0.951,1.695c-0.479,0.242 -0.85,0.429 -1.239,0.626c0.349,0.447 0.641,0.818 0.932,1.189c0.486,-0.329 0.972,-0.658 1.582,-1.071c0.367,0.703 0.71,1.362 1.125,2.158c-0.748,0.367 -1.433,0.703 -2.114,1.037c0.205,0.447 0.433,0.945 0.661,1.443c0.489,-0.546 0.979,-1.092 1.529,-1.706c0.418,0.521 0.823,0.999 0.511,1.709c-0.419,0.956 -0.854,1.906 -1.327,2.958c-0.787,-0.194 -1.523,-0.376 -2.31,-0.571c0.597,-0.89 1.117,-1.663 1.636,-2.436Zm81.399,-28.525c-0.204,0.694 -0.203,1.596 -0.652,2.041c-1.233,1.223 -2.137,2.507 -1.939,4.368c-0.52,-2.02 -0.015,-3.717 1.397,-5.146c0.407,-0.413 0.824,-0.818 1.236,-1.226c-0.142,-1.15 -0.19,-2.321 -0.45,-3.443c-0.287,-1.235 -0.62,-2.502 -1.195,-3.621c-1.522,-2.967 1.292,-7.342 3.622,-8.246c0.464,-0.18 1.008,-0.154 1.515,-0.223c-0.639,0.779 -1.364,1.217 -2.016,1.745c-1.996,1.62 -3.092,3.625 -2.472,6.279c0.23,0.98 0.518,1.947 0.787,2.917c0.269,0.969 0.627,1.923 0.795,2.909c0.1,0.586 0.471,1.447 -0.628,1.646Zm-113.499,155.676c-1.108,0.444 -2.217,0.889 -3.325,1.333c-0.031,-0.077 -0.06,-0.153 -0.09,-0.23c1.73,-0.861 3.459,-1.722 5.188,-2.584c0.045,0.067 0.091,0.133 0.136,0.2c-0.163,0.189 -0.327,0.378 -0.49,0.567c1.473,-0.713 3.056,-1.271 4.373,-2.205c0.645,-0.458 1.166,-0.646 1.935,-0.755c-2.731,3.979 -7.061,4.568 -11.063,5.79c1.112,-0.706 2.224,-1.411 3.336,-2.116Zm121.121,-40.222c-0.09,0.509 -0.085,1.058 -0.282,1.521c-1.416,3.31 -2.871,6.604 -4.324,9.898c-0.098,0.22 -0.292,0.398 -0.454,0.612c-0.738,-0.612 -0.241,-1.122 -0.004,-1.605c0.934,-1.902 1.93,-3.774 2.828,-5.692c0.626,-1.334 1.128,-2.725 1.686,-4.091c-0.271,0.378 -0.542,0.755 -0.812,1.133c-0.047,-0.021 -0.093,-0.043 -0.14,-0.064c1.534,-4.375 3.069,-8.751 4.603,-13.127c-0.615,3.237 -1.456,6.408 -2.338,9.569c-0.178,0.637 -0.505,1.231 -0.763,1.846Zm0.102,-154.71c0.78,-2.536 2.781,-5.474 3.951,-6.014c-0.938,1.492 -1.972,3.157 -3.034,4.806c-0.271,0.422 -0.629,0.788 -0.947,1.18c-0.172,0.431 -0.285,0.898 -0.525,1.286c-1.734,2.81 -3.764,5.381 -6.258,7.56c-1.008,0.881 -1.263,0.988 -2.22,1.143c0.191,-0.178 0.342,-0.323 0.498,-0.463c3.001,-2.696 5.891,-5.489 7.977,-8.999c0.122,-0.205 0.37,-0.334 0.558,-0.499Zm-25.275,41.833c-0.142,0.312 -0.201,0.728 -0.44,0.919c-1.445,1.155 -4.223,1.611 -5.971,1.135c1.491,-0.432 3.164,-0.904 4.827,-1.404c0.553,-0.166 1.084,-0.405 1.626,-0.61c0.951,-1.033 2.383,-1.622 2.992,-3.109c-1.175,0.072 -2.215,0.135 -3.253,0.198c-0.01,-0.072 -0.021,-0.145 -0.031,-0.217c1.64,-0.412 3.281,-0.824 4.921,-1.236c-0.866,1.281 -1.814,2.418 -2.884,3.424c-0.467,0.437 -1.184,0.608 -1.787,0.9Zm-66.973,17.112c-0.344,-0.57 -0.774,-1.108 -1.015,-1.719c-0.558,-1.412 -0.559,-1.447 -2.083,-1.201c-0.151,0.025 -0.307,0.022 -0.547,0.038c-1.927,-2.71 -3.929,-5.397 -5.797,-8.175c-9.238,-13.74 -18.443,-27.502 -27.651,-41.263c-0.592,-0.883 -1.15,-1.794 -1.644,-2.734c-0.26,-0.496 -0.475,-1.08 -0.487,-1.63c-0.027,-1.242 -0.636,-2.026 -1.724,-2.426c-0.809,-0.297 -1.28,-0.793 -1.657,-1.566c-0.485,-0.994 -1.164,-1.894 -1.832,-2.948c0.101,-0.244 0.229,-0.582 0.377,-0.911c0.912,-2.016 0.754,-2.457 -1.434,-3.546c-0.506,-2.417 -1.165,-4.938 -1.545,-7.5c-0.736,-4.961 0.048,-9.826 1.92,-14.394c6.415,-15.651 17.942,-25.42 34.432,-29.169c2.62,-0.596 5.381,-0.644 8.085,-0.771c1.213,-0.058 2.065,-0.317 2.519,-1.698c-0.43,-0.351 -0.866,-0.809 -1.389,-1.118c-3.484,-2.059 -7.281,-3.181 -11.276,-3.671c-8.244,-1.011 -15.911,1.045 -23.329,4.416c-9.498,4.316 -18.165,9.996 -26.497,16.216c-2.559,1.909 -5.017,3.953 -7.545,5.904c-0.787,0.608 -1.153,1.341 -1.114,2.33c0.503,12.534 4.363,23.603 14.089,32.058c1.471,1.279 3.183,2.28 4.896,3.49c-0.734,0.685 -1.455,1.535 -0.464,2.471c0.656,0.62 1.515,1.024 2.64,1.759c0.351,0.853 0.443,2.394 1.748,3.233c0,0.533 -0.053,1.015 0.012,1.482c0.109,0.777 0.473,1.56 1.268,1.664c0.967,0.125 1.32,0.752 1.728,1.432c5.424,9.041 10.944,18.029 17.093,26.596c5.462,7.611 11.163,15.049 16.788,22.542c0.461,0.612 0.68,1.055 0.318,1.835c-0.927,1.998 -0.602,2.822 1.357,4.044c0.127,0.08 0.217,0.22 0.338,0.348c-0.784,1.151 -2.1,2.063 -1.29,3.791c0.779,1.662 2.354,1.078 3.707,1.411c-0.081,0.412 -0.128,0.765 -0.222,1.106c-0.351,1.277 0.128,2.204 1.432,2.503c0.899,0.207 1.696,0.389 2.108,1.38c0.26,0.624 0.897,0.88 1.598,0.84c0.425,-0.025 0.849,-0.052 1.273,-0.083c1.618,-0.118 2.987,0.275 4.041,1.644c7.832,10.164 15.68,20.317 23.541,30.459c2.968,3.829 5.95,7.65 9.006,11.408c0.818,1.004 0.946,1.864 0.438,3.015c-1.8,4.088 -3.559,8.194 -5.298,12.309c-4.915,11.626 -10.207,23.072 -16.227,34.171c-1.368,2.523 -2.936,4.937 -4.34,7.443c-0.833,1.487 -2.059,2.149 -3.685,1.964c-1.684,-0.19 -3.367,-0.46 -5.022,-0.826c-2.023,-0.447 -3.996,-1.128 -6.026,-1.535c-3.281,-0.657 -5.396,0.575 -6.738,3.655c-0.786,1.803 -1.516,3.652 -2.52,5.332c-1.455,2.433 -3.65,3.973 -6.5,4.462c-1.599,0.275 -3.071,-0.04 -4.402,-0.963c-0.656,-0.454 -1.274,-0.963 -1.924,-1.426c-3.598,-2.565 -7.924,-2.268 -11.027,0.883c-0.955,0.97 -1.798,2.135 -2.397,3.355c-1.531,3.117 -3.678,5.548 -6.759,7.213c-1.343,0.727 -2.538,1.748 -3.742,2.708c-0.65,0.518 -1.272,0.836 -2.142,0.864c-3.577,0.118 -6.492,1.456 -8.299,4.736c-0.331,0.599 -0.742,1.181 -1.224,1.663c-1.137,1.138 -2.384,1.357 -3.757,0.538c-1.794,-1.071 -3.36,-0.479 -4.502,0.947c-1.906,2.379 -1.582,2.922 -5.037,1.17c-1.138,-0.577 -2.342,-0.661 -3.547,-0.156c-0.244,0.102 -0.485,0.219 -0.714,0.351c-2.099,1.215 -4.195,2.433 -6.349,3.685c1.292,0 2.507,0.032 3.72,-0.006c3.215,-0.101 6.422,0.09 9.472,1.101c5.365,1.778 10.657,1.542 16.028,0.073c4.531,-1.239 9.151,-1.899 13.881,-1.768c4.245,0.118 8.331,1.039 12.381,2.175c5.102,1.432 10.263,2.347 15.59,2.141c2.831,-0.109 5.631,-0.428 8.352,-1.21c5.114,-1.472 10.176,-3.098 14.876,-5.673c0.744,-0.408 1.535,-0.733 2.316,-1.065c1.241,-0.529 2.468,-0.576 3.645,0.196c0.305,0.087 0.61,0.174 0.915,0.263c1.502,0.44 1.748,0.378 2.24,-1.077c0.307,-0.91 0.887,-1.411 1.703,-1.756c1.652,-0.699 3.381,-0.854 5.152,-0.76c1.114,0.06 2.23,0.098 3.344,0.118c1.101,0.019 2.202,0.004 3.302,0.004c-5.125,-1.393 -10.179,-3.146 -15.596,-2.008c3.1,-1.149 6.297,-1.175 9.435,-0.61c2.705,0.485 5.339,1.39 7.984,2.18c1.195,0.357 2.361,0.484 3.609,0.394c2.223,-0.16 4.457,-0.188 6.687,-0.241c0.325,-0.008 0.654,0.152 1.185,0.286c-0.786,0.264 -1.342,0.611 -1.895,0.608c-2.239,-0.011 -4.454,0.155 -6.652,0.578c-0.255,0.05 -0.53,-0.007 -0.796,-0.008c-1.948,-0.001 -3.896,-0.001 -5.844,-0.001c-0.015,0.146 -0.029,0.292 -0.044,0.437c1.176,0.224 2.344,0.515 3.529,0.661c2.942,0.36 5.571,1.324 7.609,3.597c0.35,0.39 0.783,0.725 1.226,1.011c1.347,0.868 2.392,0.636 3.207,-0.76c0.426,-0.73 0.703,-1.547 1.081,-2.308c0.14,-0.28 0.379,-0.511 0.624,-0.832c0.116,0.267 0.204,0.369 0.19,0.456c-0.131,0.838 -0.441,1.685 -0.382,2.507c0.068,0.954 -0.4,1.472 -1,2.011c-0.697,0.627 -1.572,0.825 -2.386,0.559c-1.093,-0.358 -2.243,-0.787 -3.126,-1.491c-1.513,-1.205 -3.225,-1.861 -5.042,-2.212c-3.004,-0.581 -5.81,-1.608 -8.52,-3.022c-0.995,-0.519 -2.208,-0.685 -3.344,-0.852c-1.768,-0.261 -3.278,0.552 -4.805,1.42c0.034,0.342 0.152,0.725 0.083,1.069c-0.067,0.331 -0.287,0.847 -0.51,0.888c-0.66,0.12 -1.368,0.126 -2.032,0.021c-0.59,-0.092 -1.098,-0.438 -1.088,-1.173c-0.505,0.158 -1.01,0.316 -1.532,0.48c0.519,0.323 1.023,0.636 1.527,0.95c-2.53,-0.428 -4.581,0.743 -6.688,1.766c-1.56,0.757 -3.172,1.405 -4.722,2.282c2.528,-0.283 5.054,-0.602 7.586,-0.842c6.047,-0.574 12.093,-0.961 18.139,0.088c3.139,0.544 6.043,1.647 8.765,3.287c1.985,1.197 4.082,2.035 6.468,1.969c1.933,-0.052 3.649,-0.635 5.14,-1.868c0.246,-0.204 0.498,-0.404 0.722,-0.629c3.068,-3.085 6.88,-3.901 11.021,-3.479c1.787,0.182 3.549,0.649 5.307,1.054c1.139,0.262 2.249,0.647 3.375,0.971c2.714,0.783 5.445,0.859 8.21,0.252c2.909,-0.638 5.814,-1.318 8.749,-1.813c7.347,-1.241 14.632,-0.905 21.805,1.191c4.56,1.332 9.168,2.419 13.942,2.501c2.443,0.043 4.889,-0.085 7.333,-0.169c2.224,-0.078 4.445,-0.199 6.757,-0.474c-1.087,-0.406 -2.175,-0.812 -3.262,-1.218c1.563,-0.54 3.096,-0.168 4.624,-0.021c1.579,0.151 3.152,0.364 4.817,0.293c-0.339,-0.162 -0.682,-0.317 -1.017,-0.488c-0.838,-0.427 -1.709,-0.804 -2.501,-1.305c-1.918,-1.213 -4.752,-2.177 -6.904,-2.374c0.546,-0.062 1.093,-0.124 1.64,-0.187c-2.397,-0.453 -4.846,0.601 -7.308,-0.411c2.043,-0.271 3.996,-0.578 5.96,-0.777c1.607,-0.162 2.973,0.605 4.357,1.311c3.222,1.641 6.416,3.353 9.724,4.805c3.369,1.477 6.922,2.404 10.637,2.564c1.201,0.052 2.232,-0.295 3.334,-0.813c1.653,-0.777 3.473,-1.199 5.164,-1.753c-1.025,-0.364 -2.231,-0.448 -3.472,-0.342c-1.271,0.108 -2.548,0.272 -3.817,0.236c-0.87,-0.026 -1.727,-0.378 -2.598,-0.536c-0.658,-0.12 -1.329,-0.165 -1.978,-0.241c0.635,-0.447 0.636,-0.482 3.642,-0.364c1.267,0.05 2.527,0.278 3.787,0.424c-1.017,-0.495 -2.049,-0.957 -3.041,-1.494c-0.962,-0.52 -1.882,-1.119 -2.82,-1.682c-0.064,0.096 -0.129,0.192 -0.194,0.289c0.3,0.214 0.59,0.443 0.901,0.638c0.31,0.195 0.641,0.357 0.775,0.772c-2.559,-0.182 -4.237,-1.975 -6.419,-3.063c-0.062,0.42 -0.122,0.823 -0.182,1.224c-0.627,-1.502 -1.111,-3.041 -2.308,-4.457c-0.055,0.521 -0.085,0.817 -0.125,1.193c-0.137,-0.157 -0.251,-0.249 -0.317,-0.368c-0.822,-1.487 -1.628,-2.94 -3.002,-4.066c-1.646,-1.349 -3.283,-2.168 -5.507,-1.681c-3.068,0.671 -5.753,2.186 -8.529,3.518c-0.461,0.221 -0.923,0.442 -1.531,0.428c0.477,-0.365 0.94,-0.751 1.434,-1.09c2.563,-1.758 5.292,-3.141 8.348,-3.842c3.481,-0.8 6.277,0.375 8.592,2.912c0.822,0.901 1.525,1.915 2.243,2.906c0.829,1.145 1.84,2.066 3.124,2.66c1.445,0.67 2.883,1.364 4.361,1.953c2.09,0.834 4.243,0.902 6.414,0.293c0.767,-0.215 1.536,-0.424 2.303,-0.641c2.831,-0.802 5.656,-0.85 8.48,0.036c0.196,0.061 0.406,0.078 0.808,0.152c-1.934,-2.09 -3.652,-4.132 -5.569,-5.964c-1.634,-1.56 -3.621,-1.959 -5.739,-0.823c-0.327,0.176 -0.678,0.309 -1.025,0.445c-1.631,0.635 -3.13,0.45 -4.458,-0.742c-1.742,-1.564 -3.506,-3.104 -5.206,-4.714c-0.398,-0.377 -0.634,-0.966 -0.835,-1.499c-0.222,-0.592 -0.285,-1.243 -0.476,-1.849c-0.673,-2.129 -2.334,-3.202 -4.546,-2.826c-0.984,0.167 -1.955,0.514 -2.882,0.901c-2.202,0.921 -4.034,0.444 -5.635,-1.268c-1.476,-1.578 -2.633,-3.327 -3.273,-5.415c-0.746,-2.435 -1.807,-3.274 -4.376,-3.447c-1.592,-0.108 -3.195,-0.052 -4.785,-0.175c-0.941,-0.072 -1.889,-0.275 -2.792,-0.553c-1.088,-0.334 -1.951,-0.964 -2.507,-2.06c-0.375,-0.741 -1.036,-1.342 -1.59,-1.988c-1.89,-2.202 -1.773,-3.858 0.467,-5.735c0.814,-0.683 1.701,-1.279 2.54,-1.933c0.587,-0.458 1.176,-0.92 1.716,-1.431c2.249,-2.13 3.478,-4.707 3.164,-7.854c-0.173,-1.743 0.055,-3.376 0.699,-4.999c1.17,-2.952 0.646,-5.641 -1.426,-8.034c-0.558,-0.644 -1.136,-1.271 -1.679,-1.927c-1.574,-1.9 -1.781,-4.078 -0.306,-6.008c1.536,-2.009 2.191,-4.28 2.259,-6.697c0.083,-2.922 -0.114,-5.849 -0.142,-8.775c-0.017,-1.696 0.014,-3.396 0.108,-5.09c0.088,-1.593 0.424,-3.182 0.411,-4.771c-0.05,-6.499 -0.184,-12.997 -0.314,-19.495c-0.014,-0.683 -0.114,-1.393 -0.333,-2.035c-0.344,-1.005 -1.143,-1.445 -2.108,-1.327c-0.968,0.12 -1.597,0.73 -1.679,1.816c-0.075,1 -0.016,2.01 0.275,3.036c0.112,-0.876 0.211,-1.755 0.34,-2.628c0.135,-0.92 0.594,-1.447 1.231,-1.393c0.789,0.068 1.026,0.675 1.159,1.327c0.085,0.415 0.151,0.842 0.158,1.265c0.106,5.912 0.24,11.824 0.273,17.737c0.01,1.803 -0.327,3.606 -0.398,5.413c-0.085,2.123 -0.06,4.25 -0.07,6.375c-0.013,2.87 0.035,5.741 -0.037,8.61c-0.05,1.98 -0.912,3.673 -2.08,5.261c-0.651,0.884 -1.169,1.899 -1.574,2.923c-0.507,1.282 -0.213,2.524 0.67,3.586c0.509,0.614 1.076,1.18 1.612,1.771c0.537,0.591 1.099,1.161 1.595,1.785c1.802,2.269 2.097,4.768 0.794,7.328c-0.804,1.581 -1.12,3.09 -0.894,4.891c0.415,3.32 -1.245,5.832 -3.719,7.864c-0.531,0.437 -1.135,0.79 -1.725,1.15c-0.211,0.128 -0.539,0.291 -0.715,0.214c-1.223,-0.537 -2.071,0.18 -2.871,0.868c-1.605,1.382 -3.152,2.831 -4.913,4.425c0.339,-0.614 0.539,-1.12 0.86,-1.531c1.236,-1.585 2.506,-3.065 4.371,-4.067c1.515,-0.815 2.789,-2.12 4.072,-3.313c1.019,-0.947 1.441,-2.168 1.235,-3.623c-0.191,-1.355 0.142,-2.898 -0.395,-4.063c-0.75,-1.63 -0.106,-2.759 0.553,-4.024c0.147,-0.281 0.36,-0.527 0.54,-0.791c1.39,-2.04 1.299,-2.937 -0.362,-4.785c-0.851,-0.946 -1.68,-1.926 -2.4,-2.972c-0.842,-1.223 -1.107,-2.602 -0.859,-4.111c0.469,-2.854 1.373,-5.448 3.635,-7.438c0.472,-0.415 0.84,-1.166 0.9,-1.797c0.243,-2.534 0.357,-5.082 0.488,-7.627c0.014,-0.272 -0.173,-0.554 -0.326,-1.007c-1.328,2.147 -1.67,4.411 -2.256,6.961c-0.451,-1.729 -0.628,-3.237 0.018,-4.494c2.371,-4.612 3.123,-9.585 3.234,-14.635c0.126,-5.693 -0.116,-11.394 -0.214,-17.091c-0.008,-0.452 -0.146,-0.901 -0.233,-1.407c-0.75,0.109 -0.91,0.53 -0.949,1.018c-0.153,1.909 -0.322,3.817 -0.428,5.728c-0.208,3.757 -0.378,7.517 -0.564,11.275c-0.104,-0.005 -0.209,-0.01 -0.313,-0.015c0.221,-3.965 0.442,-7.932 0.663,-11.897c-0.122,-0.01 -0.245,-0.021 -0.368,-0.032c-0.422,3.569 -0.864,7.135 -1.256,10.706c-0.185,1.693 -0.115,3.429 -0.466,5.081c-0.187,0.881 -0.204,1.8 -0.495,2.645c-0.292,0.85 -0.736,1.648 -1.132,2.509c0.365,-4.194 0.728,-8.348 1.09,-12.502c-0.049,-0.017 -0.099,-0.033 -0.148,-0.049c-0.132,0.32 -0.342,0.631 -0.38,0.963c-0.17,1.445 -0.95,2.398 -2.176,3.137c-1.302,0.784 -2.35,0.456 -2.677,-1.105c-0.325,-1.559 -0.592,-3.149 -0.666,-4.736c-0.16,-3.454 -0.183,-6.915 -0.259,-10.374c-0.022,-0.959 -0.022,-1.918 -0.058,-2.876c-0.058,-1.554 -0.735,-2.743 -2.227,-3.554c-0.308,-2.772 -0.578,-5.625 -0.969,-8.46c-0.12,-0.868 -0.455,-1.763 -0.916,-2.506c-0.289,-0.467 -0.968,-0.882 -1.521,-0.957c-1.336,-0.179 -1.739,0.179 -1.726,1.711c0.045,5.378 0.125,10.762 -0.051,16.136c-0.29,8.839 -0.971,17.661 -2.286,26.408c-1.841,12.264 -4.42,24.384 -7.687,36.351c-0.069,0.254 -0.175,0.497 -0.446,0.707c0.232,-1.309 0.485,-2.615 0.694,-3.927c1.38,-8.672 2.856,-17.33 4.086,-26.022c0.744,-5.263 1.104,-10.581 1.634,-15.874c0.022,-0.211 -0.067,-0.535 0.042,-0.621c0.674,-0.534 0.412,-1.245 0.418,-1.901c0.012,-1.222 0.004,-2.444 -0.041,-3.672c0.053,0.826 0.105,1.651 0.157,2.477c0.086,0 0.171,0.001 0.256,0.001c0.298,-6.828 0.595,-13.657 0.869,-19.927c0.817,11.277 -0.857,22.974 -2.026,34.705c1.446,-7.722 2.482,-15.501 3.072,-23.319c0.587,-7.79 0.821,-15.606 1.216,-23.514c0.462,-0.05 0.924,-0.13 1.387,-0.144c1.68,-0.053 2.939,-0.832 3.848,-2.209c0.469,-0.71 0.915,-1.437 1.335,-2.178c0.596,-1.052 1.434,-1.628 2.68,-1.716c0.945,-0.068 1.893,-0.28 2.81,-0.534c4.543,-1.258 6.728,-4.369 6.172,-9.016c-0.15,-1.253 0.139,-2.014 1.02,-2.887c4.28,-4.24 5.379,-9.372 3.967,-15.135c-0.867,-3.539 -2.658,-6.604 -4.919,-9.404c-0.646,-0.8 -0.987,-1.632 -0.932,-2.628c0.215,-3.915 -1.672,-6.738 -4.728,-8.864c-1.102,-0.766 -1.717,-1.662 -1.864,-2.962c-0.12,-1.057 -0.379,-2.104 -0.435,-3.164c-0.168,-3.181 -1.454,-5.627 -4.4,-7.059c-0.137,-0.066 -0.246,-0.191 -0.358,-0.281c0,-1.084 0.001,-2.144 0,-3.202c0,-3.003 -0.942,-4.15 -3.959,-4.827c-0.095,-0.021 -0.178,-0.097 -0.35,-0.194c0.595,-3.393 -0.61,-6.404 -2.082,-9.42c-3.198,-6.558 -8.029,-11.462 -14.472,-14.806c-0.742,-0.386 -1.281,-0.883 -1.677,-1.625c-1.475,-2.771 -2.565,-3.484 -5.384,-3.747c-0.704,-1.051 -1.368,-1.972 -1.944,-2.945c-0.165,-0.278 -0.109,-0.708 -0.099,-1.066c0.049,-1.704 -0.428,-3.019 -2.274,-3.545c-0.43,-0.122 -0.867,-0.59 -1.084,-1.011c-0.472,-0.922 -0.883,-1.833 -2.055,-2.027c-0.138,-0.022 -0.279,-0.146 -0.381,-0.257c-0.89,-0.976 -1.725,-2.007 -2.667,-2.93c-1.211,-1.186 -1.998,-2.552 -2.459,-4.194c-0.997,-3.548 -3.048,-6.459 -5.942,-8.689c-4.794,-3.693 -10.023,-6.629 -15.813,-8.48c-2.351,-0.752 -4.769,-1.059 -7.244,-0.955c-4.503,0.19 -7.913,2.39 -10.457,5.925c-5.005,6.954 -9.951,13.953 -14.798,21.019c-1.282,1.868 -2.236,3.994 -3.126,6.093c-1.593,3.754 -1.218,7.473 0.583,11.091c1.151,2.31 2.698,4.333 4.417,6.234c1.465,1.619 2.902,3.266 4.431,4.823c0.918,0.935 1.154,1.841 0.818,3.148c-0.633,2.462 -1.042,4.982 -1.532,7.481c-0.431,2.193 -0.28,4.406 0.46,6.46c0.636,1.763 0.492,3.405 0.194,5.146c-0.368,2.146 -0.73,4.304 -0.278,6.496c0.07,0.342 0.004,0.736 -0.088,1.083c-0.516,1.943 -1.024,3.889 -1.603,5.813c-0.397,1.316 -0.798,2.649 -1.386,3.883c-1.236,2.595 -1.967,5.288 -1.938,8.163c0.013,1.252 -0.285,2.277 -0.993,3.397c-1.096,1.734 -1.79,3.731 -2.574,5.649c-0.31,0.757 -0.632,1.395 -1.361,1.858c-1.047,0.665 -1.655,1.657 -1.585,2.95c0.096,1.797 -0.788,2.821 -2.4,3.51c-1.388,0.593 -2.661,1.166 -4.266,0.818c-1.535,-0.334 -1.566,-0.187 -2.178,1.842c-0.613,-0.556 -1.177,-1.069 -1.741,-1.581c-0.881,0.748 -1.763,1.495 -2.672,2.266c-0.348,-0.305 -0.602,-0.528 -0.963,-0.845c0.169,0.529 0.29,0.907 0.413,1.291c-0.433,0.411 -0.794,0.794 -1.198,1.125c-0.402,0.328 -0.848,0.603 -1.237,0.876c-0.474,-0.249 -0.884,-0.465 -1.295,-0.682c0.159,0.414 0.318,0.829 0.499,1.302c-0.845,0.733 -1.985,1.235 -2.203,2.522c-0.023,0.137 -0.192,0.246 -0.287,0.373c-0.368,0.487 -0.836,0.691 -1.366,0.32c-0.537,-0.375 -1.091,-0.957 -0.681,-1.586c0.84,-1.29 1.278,-2.886 2.763,-3.869c0.181,0.232 0.309,0.486 0.513,0.632c0.237,0.169 0.542,0.245 0.817,0.361c-0.212,-0.395 -0.423,-0.79 -0.675,-1.26c1.456,-0.976 2.872,-1.937 4.302,-2.877c0.35,-0.229 0.729,-0.434 1.124,-0.566c0.433,-0.146 0.9,-0.196 1.352,-0.288Z" style="fill:#231f20;fill-rule:nonzero;"/>
      <path d="M278.101,362.533c0.599,1.043 1.106,1.847 1.536,2.69c0.744,1.455 0.582,2.857 -0.299,4.224c-0.655,1.017 -1.493,1.976 -1.486,3.286c0.005,0.949 -0.031,1.921 0.153,2.843c0.367,1.847 0.483,3.652 -0.22,5.454c1.936,-2.124 1.433,-4.775 1.634,-7.464c0.091,0.495 0.15,0.817 0.268,1.461c0.598,-2.466 1.125,-4.624 1.64,-6.785c0.048,-0.201 0.067,-0.432 0.018,-0.629c-0.397,-1.623 -1.516,-3.403 -3.244,-5.08Z" style="fill:#231f20;fill-rule:nonzero;"/>
      <path d="M275.629,357.957c0.588,-1.476 0.986,-2.668 1.533,-3.787c0.528,-1.079 1.211,-2.081 1.953,-3.33c-2.378,1.049 -3.908,4.194 -3.486,7.117Z" style="fill:#231f20;fill-rule:nonzero;"/>
      <path d="M196.775,182.673c0.286,0.335 0.599,0.704 0.918,1.079c0.079,-0.211 0.151,-0.402 0.344,-0.916c0.452,1.305 0.814,2.35 1.177,3.395c0.076,-0.019 0.153,-0.038 0.23,-0.057c-0.215,-0.894 -0.431,-1.788 -0.647,-2.682c0.068,-0.04 0.135,-0.08 0.202,-0.12c0.392,0.497 0.783,0.995 1.362,1.73c-0.143,-0.781 -0.232,-1.269 -0.321,-1.757c0.895,1.405 1.894,2.577 3.568,2.967c0.155,0.036 0.308,0.154 0.453,0.14c1.36,-0.13 2.666,-0.012 4.022,0.301c1.233,0.285 2.657,-1.154 2.777,-2.543c0.058,-0.673 -0.098,-1.366 -0.175,-2.048c-0.071,-0.619 -0.166,-1.235 -0.274,-2.024c-1.749,-0.825 -3.801,-1.321 -5.912,-1.609c-1.582,-0.215 -2.823,0.472 -3.792,1.616c-0.976,1.15 -2.104,1.283 -3.456,0.843c-0.055,-0.319 -0.107,-0.623 -0.151,-0.881c-0.557,0.068 -1.107,0.135 -1.68,0.205c0.043,0.249 0.085,0.489 0.173,0.991c-0.675,-0.117 -1.278,-0.151 -1.832,-0.335c-0.905,-0.301 -1.754,-0.788 -2.669,-1.041c-1.933,-0.536 -3.682,-0.186 -5.109,1.336c-0.439,0.468 -0.58,0.894 -0.315,1.564c0.427,1.08 0.659,2.237 1.017,3.347c0.489,1.52 1.578,2.444 3.146,2.216c1.55,-0.226 3.039,-0.869 4.555,-1.329c0.381,-0.972 0.889,-1.918 1.1,-2.927c0.163,-0.774 0.371,-1.293 1.289,-1.461Z" style="fill:#231f20;fill-rule:nonzero;"/>
      <path d="M197.027,193.37c0.38,-0.543 0.823,-1.175 1.276,-1.823c0.326,0.698 0.664,1.423 0.999,2.14c1.514,-0.552 1.853,-0.888 1.336,-2.142c-0.679,-1.644 -1.623,-3.188 -2.56,-4.709c-0.393,-0.64 -1.062,-1.109 -1.638,-1.689c-1.158,0.876 -1.503,1.924 -1.395,3.163c0.096,1.112 0.227,2.221 0.308,3.333c0.069,0.948 0.455,1.586 1.674,1.727Z" style="fill:#231f20;fill-rule:nonzero;"/>
      <path d="M193.917,188.851c-1.64,0.705 -3.103,1.333 -4.567,1.962c0.013,0.116 0.025,0.232 0.038,0.347c2.316,-0.108 4.731,-0.392 5.256,2.831c0.422,-1.714 -0.25,-3.238 -0.727,-5.14Z" style="fill:#231f20;fill-rule:nonzero;"/>
      <path d="M208.209,176.834c0.141,0.017 0.343,0.064 0.546,0.061c0.145,-0.001 0.29,-0.067 0.491,-0.119c-0.124,-1.366 -0.247,-2.706 -0.368,-4.046c-0.034,-0.017 -0.068,-0.034 -0.101,-0.05c-0.181,1.321 -0.361,2.643 -0.568,4.154Z" style="fill:#231f20;fill-rule:nonzero;"/>
      <path d="M160.445,401.392c0.404,-0.542 0.792,-1.098 1.214,-1.626c3.795,-4.744 7.126,-9.777 10.055,-15.117c2.585,-4.711 5,-9.475 6.755,-14.583c-0.241,0.442 -0.492,0.879 -0.724,1.326c-0.244,0.472 -0.486,0.946 -0.703,1.43c-3.756,8.388 -8.535,16.174 -14.03,23.513c-3.225,4.306 -6.809,8.31 -11.16,11.548c-0.708,0.528 -1.43,1.038 -2.146,1.556c0.056,0.095 0.111,0.19 0.167,0.285c0.519,-0.304 1.087,-0.548 1.549,-0.923c2.638,-2.142 5.251,-4.316 7.872,-6.479c0.401,-0.331 0.806,-0.659 1.209,-0.989l-0.058,0.059Z" style="fill:#231f20;fill-rule:nonzero;"/>
      <path d="M200.405,336.776c-0.962,-1.026 -1.899,-2.076 -2.894,-3.068c-0.426,-0.424 -0.971,-0.728 -1.461,-1.086c3.46,4.122 6.136,8.852 9.742,12.862c0.095,-0.063 0.19,-0.125 0.284,-0.188c-0.433,-0.699 -0.836,-1.42 -1.306,-2.094c-1.246,-1.785 -2.528,-3.546 -3.778,-5.328c-0.237,-0.337 -0.394,-0.731 -0.587,-1.098Z" style="fill:#231f20;fill-rule:nonzero;"/>
      <path d="M220.082,305.688c2.3,-2.833 2.729,-6.145 2.566,-9.61c-0.688,0.924 -0.471,2.095 -0.736,3.134c-0.275,1.076 -0.547,2.154 -0.85,3.223c-0.308,1.089 -0.652,2.169 -0.98,3.253Z" style="fill:#231f20;fill-rule:nonzero;"/>
      <path d="M210.786,202.447c-0.58,1.663 -1.371,2.887 -1.413,4.681c1.689,-1.319 1.851,-2.756 1.413,-4.681Z" style="fill:#231f20;fill-rule:nonzero;"/>
      <path d="M231.316,283.958c0.421,0.484 0.693,0.796 1.116,1.283c1.457,-1.56 2.782,-2.978 4.107,-4.396c-0.088,-0.107 -0.176,-0.215 -0.263,-0.322c-1.637,1.075 -3.333,2.058 -4.96,3.435Z" style="fill:#231f20;fill-rule:nonzero;"/>
      <path d="M266.527,310.058c-0.61,1.783 -0.671,3.64 -0.429,5.542c0.305,-1.821 0.61,-3.642 0.915,-5.463c-0.162,-0.027 -0.324,-0.052 -0.486,-0.079Z" style="fill:#231f20;fill-rule:nonzero;"/>
      <g>
        <path d="M223.888,127.994l0,0l0,0Zm0.831,0.496l-0,-0l-0,-0c-0,-0 -0,-0 -0,-0l-0,-0Zm-0.827,0.123c-0,-0 -0.003,-0 -0.003,-0c0.001,-0 0.001,-0 0.002,-0l-0,-0c-0,-0 -0,-0 0.001,-0Zm1.206,0.545c0,-0 0,-0 0,-0l0,-0l0.001,0.001l0,-0l-0.001,-0.001l0,-0Zm0.002,0.002l0.004,0.005l0,-0l-0.004,-0.005Zm0.008,0.009c0,0.001 0.001,0.001 0.002,0.002l-0.002,-0.002l-0,-0Zm4.915,8.039l0,-0l0,-0l0,-0Zm-0.03,-0.027c0.005,0.012 0.016,0.048 0.018,0.056l0,0l0.014,0.01c-0.001,-0.013 -0.002,-0.026 -0.002,-0.039l0,-0l0.008,0.042l0.263,0.173l-0.301,-0.242l0,-0Zm-53.918,-83.092l107.553,-0l0.017,0l0.678,0.038l0.02,0.001l0.665,0.08l0.02,0.003l0.658,0.123l0.02,0.005l0.649,0.165l0.019,0.005l0.637,0.207l0.018,0.007l0.623,0.248l0.018,0.008l0.605,0.288l0.017,0.009l0.586,0.327l0.017,0.01l0.562,0.363l0.017,0.012l0.538,0.399l0.016,0.013l0.509,0.432l0.015,0.013l0.503,0.488l0.014,0.015l0.468,0.519l0.014,0.016l0.431,0.55l0.013,0.017l0.393,0.578l0.011,0.018l0.354,0.602l0.01,0.019l0.312,0.626l0.008,0.019l0.269,0.645l0.007,0.019l0.225,0.662l0.006,0.02l0.179,0.676l0.005,0.02l0.133,0.687l0.003,0.02l0.087,0.694l0.002,0.02l0.04,0.709l0,0.018l0,53.743c0,0.008 -0,0.015 -0.001,0.023l0.001,0l-0.003,0.672l-0.001,0.02l-0.044,0.629l-0.002,0.02l-0.084,0.626l-0.004,0.02l-0.125,0.619l-0.004,0.019l-0.165,0.61l-0.006,0.019l-0.205,0.598l-0.007,0.019l-0.242,0.583l-0.008,0.018l-0.28,0.566l-0.01,0.018l-0.316,0.546l-0.01,0.018l-0.351,0.524l-0.011,0.017l-0.385,0.501l-0.012,0.016l-0.416,0.475l-0.014,0.015l-0.447,0.449l-0.015,0.013l-0.476,0.42l-0.016,0.013l-0.502,0.387l-0.016,0.011l-0.527,0.354l-0.017,0.011l-0.548,0.318l-0.018,0.01l-0.568,0.282l-0.018,0.008l-0.585,0.245l-0.019,0.007l-0.6,0.206l-0.019,0.006l-0.612,0.167l-0.02,0.004l-0.621,0.126l-0.02,0.004l-0.629,0.085l-0.02,0.002l-0.632,0.045l-0.02,0l-0.692,0.004l-0.002,-0l-35.825,-0l-0.006,-0c-0.013,-0.001 -0.021,-0.001 -0.034,-0.001c-0.051,0 -0.105,0.003 -0.154,0.008c-0.004,0 -0.008,0.001 -0.012,0.001l-0,-0c-0.279,0.029 -0.542,0.131 -0.764,0.29c-0.004,0.003 -0.008,0.006 -0.012,0.009l-0,-0c-0.186,0.135 -0.344,0.311 -0.459,0.521c-0.002,0.005 -0.005,0.009 -0.008,0.014l0,-0c-0.042,0.08 -0.079,0.163 -0.108,0.252c-0.002,0.007 -0.005,0.015 -0.008,0.022l0,0l-0.61,1.714l-0.005,0.012l-0.686,1.705l-0.005,0.012l-0.755,1.677l-0.005,0.011l-0.822,1.645l-0.006,0.011l-0.888,1.609l-0.007,0.011l-0.953,1.573l-0.006,0.011l-1.015,1.531l-0.008,0.011l-1.199,1.651l-0.008,0.011l-1.271,1.595l-0.009,0.01l-1.342,1.536l-0.009,0.011l-1.409,1.473l-0.01,0.01l-1.474,1.41l-0.01,0.009l-1.185,1.034c-0.057,0.051 -0.13,0.077 -0.203,0.077c-0.046,-0 -0.092,-0.01 -0.135,-0.031c-0.112,-0.054 -0.18,-0.17 -0.174,-0.294l0.042,-0.871l0,-0.001l0.002,-0.035l0,-0.003l0,-0.003l0,-0.036l0,-1.339l0,-0.036l0,-0.003l-0,-0.003l-0.002,-0.036l-0.065,-1.337l-0.002,-0.036l0,-0.003l-0,-0.003l-0.003,-0.036l-0.001,0l-0.129,-1.332l-0,-0l-0.004,-0.036l-0,-0.003l-0.001,-0.003c0,0 -0.005,-0.035 -0.005,-0.035l0,-0l-0.194,-1.325c-0,-0 -0,-0 -0,-0l-0,-0l-0.006,-0.036l0,-0.003l-0.001,-0.002c0,-0 -0.006,-0.036 -0.007,-0.036l0.001,0l-0.259,-1.314l-0,0l-0.007,-0.037l-0.001,-0.003l-0.001,-0.003l-0.007,-0.03l-0,0c-0.001,-0.002 -0.002,-0.004 -0.002,-0.007l-0,0l-0,0l-0,0l-0.365,-1.455c-0,0 -0,0 -0,0l-0,0l-0.01,-0.039l-0.001,-0.003l-0.001,-0.003l-0.012,-0.039l0,0c0,0 0,0 0,0l0,0l-0.44,-1.422l-0,0c-0.002,-0.005 -0.004,-0.011 -0.005,-0.016l-0,-0l-0.01,-0.033l-0.001,-0.003l-0.001,-0.003l-0.014,-0.038l-0,0l-0.522,-1.406c0,-0.001 -0,-0.002 -0,-0.003l-0,0l-0.013,-0.035l-0.002,-0.003l-0.001,-0.003l-0.016,-0.037l0,-0l-0.597,-1.376c-0,-0.002 -0.001,-0.003 -0.001,-0.004l-0,-0l-0.015,-0.033l-0.001,-0.003l-0.002,-0.003l-0.015,-0.03c-0.001,-0.002 -0.002,-0.004 -0.003,-0.006l0,-0l-0.67,-1.342c-0.001,-0.001 -0.002,-0.003 -0.002,-0.004l-0,0l-0.016,-0.032l-0.002,-0.003l-0.001,-0.003l-0.02,-0.034c-0.001,-0.002 -0.002,-0.003 -0.003,-0.005l0,0l-0.74,-1.299l-0.02,-0.035l-0.002,-0.003l-0.002,-0.002l-0.018,-0.03c-0.002,-0.002 -0.003,-0.003 -0.004,-0.005l-0,-0l-0.812,-1.26c-0.001,-0.002 -0.003,-0.004 -0.004,-0.006l-0,-0l-0.018,-0.028l-0.002,-0.003l-0.001,-0.002l-0.024,-0.032c-0.001,-0.002 -0.003,-0.005 -0.004,-0.007l-0,0l-0.876,-1.209c-0.002,-0.002 -0.003,-0.004 -0.005,-0.006l0,0l-0.019,-0.026l-0.002,-0.003l-0.001,-0.002l-0.023,-0.028c-0.002,-0.002 -0.004,-0.004 -0.006,-0.007l0,0l-0.932,-1.149c-0.002,-0.003 -0.004,-0.005 -0.006,-0.008l0,0c-0.011,-0.013 -0.022,-0.027 -0.033,-0.04c-0.002,-0.002 -0.004,-0.005 -0.007,-0.007l0,-0c-0.147,-0.17 -0.323,-0.301 -0.514,-0.393c-0.003,-0.001 -0.006,-0.002 -0.009,-0.004l-0,0c-0.187,-0.088 -0.395,-0.142 -0.613,-0.151c-0.003,0 -0.007,0 -0.01,-0l0,-0c-0.017,-0.001 -0.035,-0.001 -0.051,-0.001l-0.006,-0l-0.005,-0c-0.001,-0 -0.001,-0 -0.001,-0c-0.004,-0 -0.008,-0 -0.011,-0c-0.004,-0 -0.008,-0 -0.011,-0l-47.774,-0l-0.004,-0l-0.002,-0l-0.006,-0c-0.003,-0 -0.006,-0 -0.008,-0c-0.005,-0 -0.01,-0 -0.015,-0.001l0.001,0l-0.631,-0.009l-0.019,-0.001l-0.601,-0.045l-0.018,-0.002l-0.599,-0.083l-0.018,-0.003l-0.592,-0.119l-0.018,-0.004l-0.583,-0.155l-0.018,-0.005l-0.573,-0.19l-0.017,-0.007l-0.56,-0.224l-0.017,-0.008l-0.545,-0.258l-0.017,-0.009l-0.529,-0.292l-0.016,-0.009l-0.505,-0.32l-0.017,-0.012l-0.567,-0.415l-0.017,-0.013l-0.534,-0.451l-0.016,-0.015l-0.499,-0.487l-0.015,-0.015l-0.465,-0.522l-0.014,-0.017l-0.426,-0.553l-0.012,-0.017l-0.386,-0.582l-0.012,-0.019l-0.343,-0.607l-0.011,-0.02l-0.3,-0.63l-0.008,-0.02l-0.255,-0.65l-0.007,-0.02l-0.208,-0.667l-0.006,-0.021l-0.16,-0.679l-0.005,-0.022l-0.112,-0.689l-0.002,-0.022l-0.063,-0.694l-0.002,-0.022l-0.014,-0.747l-0,-0.006l-0,-53.778l0,0.017l-0,-0.019l0.004,-0.74l0.001,-0.021l0.051,-0.674l0.002,-0.021l0.097,-0.668l0.004,-0.022l0.144,-0.659l0.005,-0.021l0.189,-0.649l0.007,-0.02l0.234,-0.634l0.008,-0.02l0.277,-0.615l0.009,-0.02l0.32,-0.595l0.01,-0.019l0.36,-0.571l0.012,-0.018l0.399,-0.545l0.013,-0.017l0.436,-0.516l0.014,-0.016l0.471,-0.485l0.015,-0.015l0.505,-0.452l0.016,-0.013l0.503,-0.393l0.016,-0.012l0.53,-0.36l0.017,-0.011l0.552,-0.324l0.018,-0.01l0.572,-0.287l0.019,-0.009l0.59,-0.249l0.019,-0.007l0.605,-0.21l0.019,-0.006l0.618,-0.169l0.02,-0.005l0.627,-0.128l0.02,-0.003l0.634,-0.087l0.021,-0.002l0.639,-0.045l0.02,-0l0.703,-0.003Z" style="fill:#fff;fill-rule:nonzero;stroke:#020000;stroke-width:3px;"/>
      </g>
    </g>
  </g>
</svg>
