<?xml version="1.0" encoding="UTF-8" standalone="no"?>
<!DOCTYPE svg PUBLIC "-//W3C//DTD SVG 1.1//EN" "http://www.w3.org/Graphics/SVG/1.1/DTD/svg11.dtd">
<svg width="100%" height="100%" viewBox="0 0 406 529" version="1.1" xmlns="http://www.w3.org/2000/svg" xmlns:xlink="http://www.w3.org/1999/xlink" xml:space="preserve" xmlns:serif="http://www.serif.com/" style="fill-rule:evenodd;clip-rule:evenodd;stroke-linejoin:round;stroke-miterlimit:2;">
  <rect id="L5-4" x="0.111" y="0.089" width="405.12" height="528" style="fill:none;"/>
	<a href="L5-5.svg">
  <circle cx="364.719" cy="491.129" r="17.4" style="fill:#e1c70a;"/>
	</a>
  <g>
    <path d="M22.617,132.089l359.693,-0c0.279,0.497 0.29,0.854 0.299,1.411c0.109,5.613 0.011,11.247 0.014,16.862l-0,33.2c-0,2.251 0.261,18.216 -0.113,19.339c-0.048,0.141 -0.124,0.259 -0.197,0.388c0.506,0.925 0.506,3.385 0.211,4.419c-0.028,0.103 -0.093,0.231 -0.135,0.324c0.324,0.86 0.447,2.855 0.073,3.722c-0.025,0.055 -0.053,0.108 -0.078,0.162c0.334,0.87 0.399,2.337 0.059,3.218c-0.017,0.045 -0.043,0.087 -0.062,0.131c0.225,0.559 0.228,1.028 0.233,1.617c0.186,17.725 0.009,35.474 0.006,53.201l-0.003,103.595l-0,34.223c-0.003,2.126 0.267,10.663 -0.11,11.797c-0.045,0.135 -0.129,0.27 -0.197,0.391l-359.693,-0l-0,-288Z" style="fill-rule:nonzero;"/>
    <g>
      <path d="M363.256,208.835c0.441,-0.053 0.579,-0.102 0.995,0.081l-0.112,0.305c-0.923,0.693 -1.825,1.076 -2.928,1.391c-0.388,0.02 -0.442,0.081 -0.734,-0.165l0.121,-0.354c0.765,-0.636 1.744,-0.883 2.658,-1.258Z" style="fill:#fff;fill-rule:nonzero;"/>
      <path d="M354.143,212.528c0.04,-0.008 0.076,-0.017 0.116,-0.022c0.478,-0.071 0.781,-0.086 1.172,0.195l-0.129,0.366c-0.844,0.743 -1.825,1.215 -2.869,1.614l-0.295,0.124l-0.264,-0.18c-0.197,-0.44 -0.259,-0.448 -0.113,-0.899c0.636,-0.58 1.412,-0.693 2.154,-1.078l0.228,-0.12Z" style="fill:#fff;fill-rule:nonzero;"/>
      <path d="M186.858,238.091c0.514,0.18 1.13,0.888 1.553,1.258c-0.397,0.585 -0.86,1.068 -1.35,1.573c-0.821,-0.525 -1.552,-1.14 -2.298,-1.763c0.675,-0.391 1.397,-0.719 2.095,-1.068Z" style="fill:#fff;fill-rule:nonzero;"/>
      <path d="M345.855,216.923c0.247,-0.041 0.439,-0.072 0.689,-0.029c0.382,0.065 0.447,0.05 0.666,0.367c-0.019,0.062 -0.036,0.125 -0.061,0.185c-0.352,0.902 -2.456,2.045 -3.347,2.393l-0.225,0.118c-0.335,-0.154 -0.456,-0.277 -0.667,-0.577c0.399,-1.191 1.958,-1.471 2.79,-2.297c0.051,-0.053 0.101,-0.107 0.155,-0.16Z" style="fill:#fff;fill-rule:nonzero;"/>
      <path d="M336.571,222.901c0.422,-0.067 0.948,-0.144 1.367,-0.06c0.326,0.066 0.368,0.126 0.554,0.38c-0.014,0.057 -0.017,0.117 -0.037,0.172c-0.351,0.997 -2.796,2.671 -3.769,3.15l-0.115,0.202c-0.607,0.065 -1.173,-0.561 -1.654,-0.927c1.229,-0.833 2.644,-1.828 3.654,-2.917Z" style="fill:#fff;fill-rule:nonzero;"/>
      <path d="M327.574,229.405c0.225,-0.043 0.469,-0.097 0.7,-0.088c0.498,0.017 0.734,0.1 1.069,0.445l-0.006,0.385c-0.799,1.453 -3.333,3.664 -4.826,4.362c-0.251,0.09 -0.363,0.048 -0.613,-0.07c-0.417,-0.197 -0.543,-0.397 -0.675,-0.813c0.551,-1.951 3.428,-2.57 4.351,-4.221Z" style="fill:#fff;fill-rule:nonzero;"/>
      <path d="M282.361,280.545c0.238,0.11 0.402,0.195 0.575,0.397c0.659,0.764 0.645,2.336 0.611,3.31c-0.057,1.667 -0.176,3.72 -1.451,4.916c-0.22,-0.121 -0.448,-0.249 -0.636,-0.417c-0.467,-0.419 -0.56,-1.637 -0.604,-2.235c-0.14,-1.935 0.192,-4.48 1.505,-5.971Z" style="fill:#fff;fill-rule:nonzero;"/>
      <path d="M317.547,238.193c0.202,-0.012 0.405,-0.028 0.607,0c0.535,0.075 0.917,0.46 1.244,0.857c-0,0.042 0.002,0.085 -0.003,0.126c-0.194,1.069 -4.551,4.755 -5.597,5.361c-0.318,0.008 -1.595,-0.88 -1.966,-1.053c0.922,-0.51 5.287,-4.443 5.715,-5.291Z" style="fill:#fff;fill-rule:nonzero;"/>
      <path d="M305.777,249.667c0.632,0.225 1.572,0.572 1.966,1.123c-0.914,1.388 -5.153,5.092 -6.571,6.202c-0.875,-0.179 -1.563,-0.731 -2.281,-1.231c2.186,-2.114 4.541,-4.158 6.886,-6.094Z" style="fill:#fff;fill-rule:nonzero;"/>
      <path d="M270.936,273.466c1.063,-0.042 2.024,0.096 2.91,0.76c0.37,0.278 0.392,0.484 0.42,0.92c-1.616,1.488 -3.848,2.46 -5.584,3.89c-0.503,0.525 -0.966,1.132 -1.672,1.365l-0.296,-0.175c-0.343,-1.448 0.955,-4.183 1.511,-5.559c0.885,-0.499 1.75,-0.875 2.711,-1.201Z" style="fill:#fff;fill-rule:nonzero;"/>
      <path d="M265.498,291.634c0.402,0.062 0.603,0.063 0.923,0.337c0.662,0.567 0.779,1.743 0.832,2.568c0.159,2.446 0.036,6.068 -1.661,7.993c-0.368,-0.036 -0.797,-0.051 -1.121,-0.246c-0.571,-0.343 -0.764,-1.004 -0.876,-1.621c-0.487,-2.688 0.353,-6.774 1.903,-9.031Z" style="fill:#fff;fill-rule:nonzero;"/>
      <path d="M290.434,262.849l1.858,1.323c-2.366,2.915 -6.808,6.359 -9.823,8.763c-0.635,-0.426 -1.136,-1.073 -1.65,-1.636c3.096,-2.957 6.333,-5.703 9.615,-8.45Z" style="fill:#fff;fill-rule:nonzero;"/>
      <path d="M227.315,305.256c0.209,-0.013 0.421,-0.027 0.63,-0.023c0.59,0.013 0.947,0.182 1.34,0.594c0.08,0.358 0.09,0.602 -0.06,0.935c-0.29,0.646 -0.869,1.233 -1.409,1.684c-2.485,2.077 -15.335,10.737 -18.058,11.77c-0.81,-0.002 -1.258,-0.12 -1.864,-0.668c-0.125,-0.362 -0.199,-0.49 -0.083,-0.872c0.183,-0.605 0.849,-1.067 1.334,-1.436c2.895,-2.199 6.115,-3.969 9.146,-5.972c3,-1.982 5.896,-4.24 9.024,-6.012Z" style="fill:#fff;fill-rule:nonzero;"/>
      <path d="M176.04,340.595c0.857,-0.021 1.423,0.165 2.051,0.753c0.094,0.299 0.188,0.424 0.106,0.738c-0.451,1.721 -20.632,14.856 -23.273,16.257c-0.272,0.002 -0.546,0.002 -0.817,-0.033c-0.631,-0.082 -1.037,-0.402 -1.428,-0.877c-0.088,-0.389 -0.132,-0.545 0.008,-0.937c0.192,-0.539 0.82,-0.953 1.263,-1.29c3.065,-2.336 6.453,-4.388 9.651,-6.549c3.241,-2.19 6.4,-4.552 9.712,-6.631c0.881,-0.553 1.772,-1.019 2.727,-1.431Z" style="fill:#fff;fill-rule:nonzero;"/>
      <path d="M189.235,248.108c1.373,0.458 2.714,0.824 4.127,1.133c-0.068,2.629 -0.056,5.264 -0.112,7.894c-2.738,1.004 -5.915,1.465 -8.776,2.079l-3.799,0.763l-0.013,-7.293c3.674,-0.53 5.893,-2.154 8.573,-4.576Z" style="fill:#fff;fill-rule:nonzero;"/>
      <path d="M194.281,227.464c1.375,0.748 2.689,3.2 3.481,4.536c-0.549,0.694 -1.339,1.542 -1.285,2.485c0.071,1.244 2.29,2.431 3.184,3.238c-0.395,0.742 -0.957,1.631 -0.837,2.501c0.204,1.492 2.327,2.64 3.452,3.47c-0.275,0.206 -0.555,0.404 -0.841,0.595c-0.285,0.191 -0.576,0.374 -0.871,0.549c-0.296,0.175 -0.596,0.342 -0.901,0.501c-0.304,0.159 -0.613,0.309 -0.926,0.451c-0.313,0.142 -0.629,0.275 -0.949,0.4c-0.32,0.125 -0.643,0.241 -0.97,0.348c-0.326,0.107 -0.655,0.205 -0.987,0.294c-0.332,0.089 -0.666,0.169 -1.002,0.24c-1.107,0.032 -2.772,0.267 -3.774,-0.28c0.024,-0.262 0.048,-0.522 0.058,-0.785c0.043,-1.155 -2.198,-3.027 -3.047,-3.943c0.701,-0.558 1.527,-1.008 2.152,-1.656c0.249,-0.259 0.441,-0.59 0.425,-0.954c-0.042,-0.953 -1.534,-1.861 -2.225,-2.436c0.867,-0.654 2.869,-1.795 3.12,-2.858c-0.291,-0.264 -0.606,-0.51 -0.661,-0.924c-0.167,-1.254 2.591,-4.665 3.404,-5.772Z" style="fill:#fff;fill-rule:nonzero;"/>
      <path d="M99.035,391.07c0.213,-0.02 0.412,-0.032 0.626,-0.025c0.652,0.02 1.507,0.319 1.925,0.856c0.234,0.302 0.251,0.565 0.177,0.93c-0.103,0.504 -0.707,0.851 -1.103,1.133c-2.075,1.477 -4.373,2.658 -6.489,4.085c-8.177,5.564 -16.411,11.041 -24.703,16.432c-0.435,0.081 -0.901,0.118 -1.331,-0.017c-0.438,-0.138 -0.848,-0.574 -1.059,-0.968c-0.155,-0.291 -0.254,-0.709 -0.143,-1.028c0.576,-1.651 21.369,-15.018 24.549,-16.998c2.487,-1.518 5.004,-2.985 7.551,-4.4Z" style="fill:#fff;fill-rule:nonzero;"/>
      <path d="M249.873,273.364c1.735,-0.076 3.469,-0.082 5.204,-0.017c1.734,0.065 3.463,0.2 5.187,0.406c1.995,0.236 3.963,0.643 5.966,0.806c-0.682,2.439 -1.449,4.852 -2.303,7.237c-2.259,-0.616 -4.458,-1.022 -6.786,-1.265c-6.006,-0.488 -11.826,-0.567 -17.848,-0.414c0.58,-1.288 1.529,-2.513 2.509,-3.52c2.595,-2.668 4.466,-3.184 8.071,-3.233Z" style="fill:#fff;fill-rule:nonzero;"/>
      <path d="M64.102,249.84c1.105,1.417 1.959,3.172 2.888,4.719c1.056,1.756 2.225,3.401 3.459,5.035c-0.775,0.716 -1.489,1.41 -2.128,2.251c0.888,2.52 2.283,4.364 3.971,6.389c-0.518,0.597 -1.037,1.201 -1.647,1.708c-2.187,1.82 -4.61,1.98 -7.347,1.737c-1.032,-0.17 -2.076,-0.363 -3.118,-0.455c-1.598,-0.142 -3.626,0.251 -5.035,-0.621c-1.156,-1.722 3.559,-5.339 3.324,-8.312c-0.099,-1.252 -0.878,-1.819 -1.757,-2.591c2.716,-2.972 5.855,-6.075 7.39,-9.86Z" style="fill:#fff;fill-rule:nonzero;"/>
      <path d="M179.485,226.128c0.834,1.125 1.452,2.59 2.146,3.818c1.266,2.241 2.653,4.263 4.281,6.258c-0.323,0.218 -0.644,0.438 -0.963,0.661c-0.808,0.564 -1.876,1.302 -1.996,2.38c-0.05,0.45 0.163,0.888 0.448,1.222c0.675,0.793 1.726,1.365 2.528,2.04c0.995,0.837 1.843,1.859 2.7,2.834c-0.32,0.489 -0.698,0.954 -1.08,1.397c-2.19,2.545 -4.938,3.801 -8.243,4.025c-3.931,0.081 -6.854,-2.052 -9.783,-4.449c1.449,-1.467 4.095,-3.165 4.971,-5.003c0.197,-0.414 0.291,-0.921 0.118,-1.359c-0.308,-0.781 -1.306,-1.038 -2.017,-1.326c1.153,-1.839 3.141,-3.905 3.676,-6.011c0.149,-0.586 -0.126,-1.003 -0.407,-1.502c1.158,-1.697 2.365,-3.359 3.621,-4.985Z" style="fill:#fff;fill-rule:nonzero;"/>
      <path d="M146.469,420.089c17.301,-15.307 34.712,-30.487 52.233,-45.54l30.322,-26.921c18.925,-16.667 37.85,-33.475 55.819,-51.18c6.218,-6.127 12.012,-12.665 17.89,-19.114l34.392,-38.151c7.031,-7.696 16.236,-18.854 25.056,-24.084c3.457,-2.051 7.262,-3.439 10.938,-5.034c-0.031,0.031 -0.065,0.063 -0.095,0.093c-1.677,1.524 -5.521,3.057 -7.631,4.274c-3.662,2.115 -6.896,4.98 -9.905,7.929c-7.02,6.885 -13.278,14.399 -19.789,21.747c-6.556,7.399 -13.239,14.721 -19.716,22.183c-12.585,14.501 -25.062,29.042 -39.076,42.21c-25.409,23.853 -51.09,47.41 -77.043,70.671l-32.548,28.877l-8.171,7.332c-1.683,1.51 -3.511,3.003 -4.999,4.708l-7.677,-0Z" style="fill:#fff;fill-rule:nonzero;"/>
      <path d="M243.114,272.246c4.838,-3.218 10.654,-4.603 15.578,-7.662c6.506,-4.044 12.801,-8.412 19.271,-12.511c9.264,-5.869 18.666,-11.425 28.05,-17.091c9.72,-5.868 19.316,-11.727 29.706,-16.372c-1.455,1.43 -8.157,4.763 -10.449,6.052c-6.255,3.52 -12.288,7.602 -18.351,11.45c-8.023,5.091 -16.065,10.075 -23.92,15.434c-4.698,3.273 -9.423,6.506 -14.174,9.701c-2.333,1.578 -4.669,3.338 -7.128,4.71c-1.955,1.09 -4.014,0.934 -6.144,1.368c-1.517,0.309 -2.941,0.873 -4.36,1.479c-0.628,0.269 -1.489,0.588 -1.97,1.091c-0.234,0.246 -0.164,0.275 -0.158,0.589c0.341,0.379 0.61,0.515 1.083,0.698c0.421,-0.138 0.844,-0.271 1.268,-0.396c0.425,-0.126 0.852,-0.245 1.28,-0.357c0.428,-0.113 0.859,-0.218 1.29,-0.317c0.432,-0.099 0.865,-0.192 1.3,-0.278c0.434,-0.085 0.87,-0.164 1.307,-0.237c0.437,-0.072 0.875,-0.137 1.313,-0.196c0.439,-0.059 0.879,-0.111 1.32,-0.156c0.44,-0.045 0.882,-0.083 1.323,-0.115c0.442,-0.032 0.884,-0.056 1.327,-0.074c0.442,-0.018 0.885,-0.029 1.328,-0.033c0.443,-0.004 0.886,-0.002 1.328,0.008c0.443,0.009 0.886,0.026 1.328,0.049c0.442,0.023 0.884,0.053 1.325,0.09c0.442,0.037 0.882,0.08 1.322,0.131c0.44,0.05 0.88,0.107 1.318,0.171c0.438,0.064 0.875,0.135 1.311,0.212c1.716,0.288 3.596,0.591 5.158,1.385c1.485,0.754 2.451,2.156 3.783,3.093c0.776,0.546 1.723,0.913 2.447,1.519c0.245,0.204 0.564,0.516 0.665,0.829c0.222,0.692 0.198,1.778 0.074,2.485c-1.169,0.269 -2.034,0.531 -2.734,1.593c-1.131,1.715 -1.148,4.077 -1.083,6.049c-2.334,1.725 -4.637,3.489 -6.911,5.292c-1.3,1.04 -2.551,2.228 -3.928,3.158c-0.067,-1.821 -0.264,-4.04 -1.697,-5.365c-0.343,-0.316 -0.778,-0.563 -1.259,-0.524c-0.575,0.047 -1.014,0.47 -1.341,0.91c-2.163,2.907 -2.368,7.243 -2.298,10.719c-8.798,2.136 -18.38,1.396 -27.231,-0.003c-1.041,-0.165 -3.145,-0.211 -3.986,-0.783c-0.438,-0.298 -0.438,-0.826 -0.49,-1.315c-0.148,-1.41 -0.022,-7.203 0.382,-8.423c0.713,-2.153 4.039,-6.188 5.588,-7.985c0.316,-0.367 0.668,-0.85 1.197,-0.83c0.034,0.001 0.37,0.108 0.381,0.111c1.078,0.315 4.593,-0.074 6.011,-0.078c2.861,-0.009 17.285,0.569 19.003,1.944l0.324,0.885c0.475,0.16 0.66,0.069 1.123,-0.143c2.819,-1.288 5.053,-3.63 7.56,-5.402c1.423,-1.007 3.157,-1.881 4.449,-3.024c-0.755,-1.6 -1.535,-3.356 -3.359,-3.96c-1.487,-0.492 -3.208,0.023 -4.534,0.75c-0.39,0.216 -0.777,0.437 -1.161,0.665c-4.117,-1.208 -8.584,-1.424 -12.849,-1.581c-3.397,0.096 -7.991,-0.703 -11.018,0.927c-0.922,0.816 -1.795,1.68 -2.621,2.592c-0.826,0.911 -1.6,1.866 -2.321,2.863c-0.599,0.845 -1.124,2.787 -2.057,3.161c-0.055,0.022 -0.109,0.046 -0.164,0.068c-0.349,0.135 -0.723,0.209 -1.081,0.06c-0.683,-0.285 -0.912,-0.958 -1.668,-1.086c-6.387,3.425 -12.639,7.076 -19.092,10.389c-15.745,8.081 -31.852,15.471 -47.685,23.378c-4.691,2.343 -9.286,4.916 -13.91,7.391l-11.177,5.848l-75.085,40.034l-26.363,13.942c-5.832,3.079 -11.602,6.284 -17.561,9.117l-0,-4.651c1.689,-1.084 3.555,-1.96 5.335,-2.889l9.124,-4.757l29.815,-15.497l71.983,-37.419c9.963,-5.164 19.796,-10.591 29.846,-15.584c4.948,-2.459 10.021,-4.676 15.005,-7.061c16.226,-7.764 32.377,-15.509 48.154,-24.162c3.742,-2.053 7.587,-3.853 11.235,-6.073Z" style="fill:#fff;fill-rule:nonzero;"/>
      <path d="M231.949,291.248c0.166,-0.019 0.333,-0.036 0.501,-0.051c0.901,-0.078 1.521,0.075 2.208,0.704c0.435,0.399 0.693,0.901 0.675,1.499c-0.024,0.803 -0.419,1.202 -0.989,1.716c-0.283,0.101 -0.586,0.218 -0.885,0.259c-0.477,0.066 -1.025,-0.21 -1.377,-0.51c-0.553,-0.47 -0.823,-1.095 -0.861,-1.813c-0.044,-0.812 0.196,-1.214 0.728,-1.804Z" style="fill-rule:nonzero;"/>
      <path d="M239.424,297.266c0.087,0.003 0.174,0.005 0.26,0.011c1.671,0.128 3.344,0.46 5.025,0.592c2,0.156 4.321,0.018 6.269,0.46c0.491,0.111 0.542,0.155 0.887,0.534c0.001,0.429 -0.13,0.557 -0.351,0.917c-0.32,0.045 -0.641,0.079 -0.964,0.101c-1.941,0.134 -10.384,-0.205 -11.51,-1.183c-0.112,-0.516 0.174,-0.974 0.384,-1.432Z" style="fill-rule:nonzero;"/>
      <path d="M235.988,293.992c1.911,-0.132 3.998,0.32 5.903,0.555c2.349,0.312 4.709,0.491 7.079,0.535c1.778,0.027 6.633,-0.544 7.989,-0.136c0.306,0.092 0.24,0.094 0.375,0.348l-0.35,0.424c-4.664,1.433 -12.218,1.066 -17.014,0.18c-1.518,-0.28 -3.065,-0.566 -3.982,-1.906Z" style="fill-rule:nonzero;"/>
      <path d="M352.563,210.228c-0.853,0.982 -13.672,5.069 -16.116,6.08c-4.753,1.966 -9.47,4.279 -14.034,6.648c-5.665,2.94 -11.186,6.22 -16.709,9.414l-39.377,23.202c-4.656,2.689 -9.492,5.159 -14.219,7.728c-5.565,3.025 -11.336,5.688 -16.947,8.634c-5.508,2.892 -10.827,6.094 -16.364,8.932c-11.436,5.759 -22.928,11.405 -34.475,16.938l-78.084,37.881l-60.179,29.74l-14.385,7.018c-2.992,1.472 -5.995,3.08 -9.057,4.386l-0,-21.706c4.617,-1.88 9.136,-4.017 13.698,-6.027l26.022,-11.376l79.398,-34.186l81.067,-34.566c6.419,-2.783 12.856,-5.467 19.232,-8.36c3.405,-1.545 6.747,-3.224 10.145,-4.787c5.473,-2.516 10.995,-4.946 16.322,-7.761l23.967,-12.757c19.209,-10.383 38.469,-20.724 60.095,-25.075Z" style="fill:#fff;fill-rule:nonzero;"/>
      <path d="M344.032,209.226c-0.638,0.71 -11.081,3.733 -12.96,4.414c-2.075,0.744 -4.109,1.591 -6.1,2.54c-3.046,1.475 -6.01,3.11 -9.028,4.642c-10.501,5.243 -20.897,10.686 -31.189,16.328c-7.605,4.096 -15.189,8.427 -23.02,12.066c-33.035,15.347 -66.748,29.173 -100.265,43.422l-138.853,60.251l-0,-66.729c32.163,-4.123 64.258,-8.715 96.286,-13.775c27.097,-3.939 54.032,-8.782 80.804,-14.529c4.185,-0.91 8.404,-1.695 12.574,-2.668c11.271,-2.66 22.451,-5.66 33.539,-9.003c6.13,-1.851 12.006,-4.417 17.892,-6.918c6.05,-2.571 12.195,-5.138 17.946,-8.336c7.116,-3.957 13.759,-8.777 21.349,-11.862c4.283,-1.74 8.907,-3.383 13.39,-4.516c6.086,-1.539 12.369,-2.466 18.528,-3.698c2.976,-0.594 6.213,-0.781 9.107,-1.629Z" style="fill:#fff;fill-rule:nonzero;"/>
      <path d="M168.734,420.089c3.062,-2.931 6.271,-5.712 9.369,-8.604l30.051,-27.963c20.061,-18.795 39.962,-37.758 59.705,-56.888l15.662,-15.255c4.021,-3.858 8.2,-7.628 11.997,-11.707c2.716,-2.917 4.999,-6.259 7.604,-9.282c2.373,-2.753 5.099,-5.189 7.47,-7.954c5.093,-5.946 9.841,-12.402 14.549,-18.663c2.961,-3.94 5.782,-7.989 8.73,-11.942c7.436,-9.974 16.172,-20.911 25.006,-29.638c6.806,-6.725 14.987,-10.196 23.512,-14.161c0.324,0.86 0.447,2.855 0.073,3.722c-0.025,0.055 -0.053,0.108 -0.078,0.162c0.334,0.87 0.399,2.337 0.059,3.218c-0.017,0.045 -0.043,0.087 -0.062,0.131c0.225,0.559 0.228,1.028 0.233,1.617c0.186,17.725 0.009,35.474 0.006,53.201l-0.003,103.595l-0,34.223c-0.003,2.126 0.267,10.663 -0.11,11.797c-0.045,0.135 -0.129,0.27 -0.197,0.391l-213.576,-0Z" style="fill:#fff;fill-rule:nonzero;"/>
      <path d="M382.384,211.916c0.334,0.87 0.399,2.337 0.059,3.218c-0.017,0.045 -0.043,0.087 -0.062,0.131c-0.051,0.058 -0.099,0.117 -0.147,0.175c-1.11,1.278 -3.04,2.291 -4.381,3.362c-2.658,2.122 -5.102,4.807 -7.124,7.539c-9.74,13.164 -13.554,30.716 -18.74,46.045c-3.13,9.033 -6.638,17.917 -10.525,26.651c-13.432,30.219 -30.836,58.309 -48.739,86.027c-2.239,3.467 -4.392,6.994 -6.674,10.431c-1.741,2.621 -3.613,5.151 -5.373,7.758c-3.861,5.723 -7.836,11.619 -12.363,16.836l-35.283,-0c2.991,-3.119 5.7,-6.57 8.482,-9.874l14.643,-17.514c12.762,-15.276 25.016,-30.95 36.76,-47.022c12.429,-16.891 24.256,-34.053 34.42,-52.426c6.244,-11.288 11.762,-22.988 17.202,-34.682c4.587,-9.869 8.82,-20.217 15.243,-29.082c4.025,-5.551 9.22,-11.491 15.413,-14.604c2.278,-1.146 4.82,-1.762 7.084,-2.914c0.034,-0.018 0.071,-0.036 0.105,-0.055Z" style="fill:#fff;fill-rule:nonzero;"/>
      <path d="M382.384,211.916c0.334,0.87 0.399,2.337 0.059,3.218c-0.017,0.045 -0.043,0.087 -0.062,0.131c-0.051,0.058 -0.099,0.117 -0.147,0.175c-1.11,1.278 -3.04,2.291 -4.381,3.362c-2.658,2.122 -5.102,4.807 -7.124,7.539c-9.74,13.164 -13.554,30.716 -18.74,46.045c-3.13,9.033 -6.638,17.917 -10.525,26.651c-13.432,30.219 -30.836,58.309 -48.739,86.027c-2.239,3.467 -4.392,6.994 -6.674,10.431c-1.741,2.621 -3.613,5.151 -5.373,7.758c-3.861,5.723 -7.836,11.619 -12.363,16.836l-3.334,-0c3.625,-3.828 6.728,-8.404 9.802,-12.679c6.741,-9.335 13.141,-18.9 19.199,-28.693c2.376,-3.772 4.936,-7.444 7.353,-11.194c3.542,-5.498 6.959,-11.126 10.32,-16.739c3.32,-5.49 6.533,-11.042 9.638,-16.658c3.105,-5.615 6.1,-11.288 8.983,-17.02c2.884,-5.732 5.654,-11.518 8.311,-17.358c2.659,-5.84 5.202,-11.729 7.631,-17.669c1.906,-4.658 3.428,-9.48 4.978,-14.266c3.439,-10.623 6.674,-21.53 11.295,-31.703c2.379,-5.237 5.695,-10.078 9.402,-14.46c1.108,-1.309 5.681,-5.141 5.943,-5.942c-1.207,1.047 -2.998,1.718 -4.351,2.62c-3.364,2.241 -6.3,5.302 -8.876,8.392c-7.996,9.589 -13.126,21.726 -18.209,33.031c-2.246,5.007 -4.568,9.978 -6.966,14.914c-3.701,7.771 -7.668,15.406 -11.9,22.903c-4.23,7.497 -8.714,14.839 -13.452,22.026c-9.703,14.718 -20.321,28.894 -31.112,42.829c-3.09,3.99 -6.038,8.096 -9.172,12.05c-12.359,15.371 -24.918,30.576 -37.678,45.616l-3.088,-0c2.991,-3.119 5.7,-6.57 8.482,-9.874l14.643,-17.514c12.762,-15.276 25.016,-30.95 36.76,-47.022c12.429,-16.891 24.256,-34.053 34.42,-52.426c6.244,-11.288 11.762,-22.988 17.202,-34.682c4.587,-9.869 8.82,-20.217 15.243,-29.082c4.025,-5.551 9.22,-11.491 15.413,-14.604c2.278,-1.146 4.82,-1.762 7.084,-2.914c0.034,-0.018 0.071,-0.036 0.105,-0.055Z" style="fill-rule:nonzero;"/>
      <path d="M382.381,215.265c0.225,0.559 0.228,1.028 0.233,1.617c0.186,17.725 0.009,35.474 0.006,53.201l-0.003,103.595l-0,34.223c-0.003,2.126 0.267,10.663 -0.11,11.797c-0.045,0.135 -0.129,0.27 -0.197,0.391l-113.995,-0c4.527,-5.217 8.502,-11.113 12.363,-16.836c1.76,-2.607 3.632,-5.137 5.373,-7.758c2.282,-3.437 4.435,-6.964 6.674,-10.431c17.903,-27.718 35.307,-55.808 48.739,-86.027c3.887,-8.734 7.395,-17.618 10.525,-26.651c5.186,-15.329 9,-32.881 18.74,-46.045c2.022,-2.732 4.466,-5.417 7.124,-7.539c1.341,-1.071 3.271,-2.084 4.381,-3.362c0.048,-0.058 0.096,-0.117 0.147,-0.175Z" style="fill:#fff;fill-rule:nonzero;"/>
      <path d="M22.617,132.089l359.693,-0c0.279,0.497 0.29,0.854 0.299,1.411c0.109,5.613 0.011,11.247 0.014,16.862l-0,33.2c-0,2.251 0.261,18.216 -0.113,19.339c-0.048,0.141 -0.124,0.259 -0.197,0.388c-5.827,0.514 -11.624,1.362 -17.449,1.908c-5.945,0.557 -11.916,0.829 -17.848,1.558c-5.304,0.652 -10.586,1.735 -15.857,2.635c-5.518,0.944 -11.039,1.864 -16.408,3.48c-5.343,1.608 -11.057,3.496 -16.07,5.942c-6.668,3.253 -12.735,7.382 -19.193,10.976c-3.435,1.911 -7.049,3.496 -10.644,5.076c-6.772,2.977 -13.673,6.073 -20.68,8.449c-6.067,2.058 -12.256,3.715 -18.443,5.365c-6.313,1.713 -12.655,3.312 -19.026,4.795c-5.148,1.167 -10.367,2.104 -15.493,3.349l0.106,-7.81c2.251,-0.483 8.652,-2.852 9.922,-4.664c0.184,-0.261 0.14,-0.328 0.145,-0.63c-0.807,-1.546 -3.218,-2.796 -4.655,-3.77c0.547,-0.499 1.294,-1.033 1.291,-1.848c-0.003,-0.682 -0.523,-1.292 -1.006,-1.717c-0.866,-0.764 -1.743,-1.425 -2.522,-2.285c0.466,-0.453 1.485,-1.236 1.485,-1.926c0.001,-1.087 -4.141,-6.636 -5.058,-7.408c-0.327,-0.275 -0.383,-0.32 -0.804,-0.321c-1.334,0.885 -5.116,6.924 -5.403,8.399c-0.035,0.179 -0.025,0.344 -0.019,0.524c0.009,0.233 0.111,0.808 -0.046,0.974c-0.243,0.255 -0.644,0.357 -0.968,0.479c-1.193,-0.3 -3.271,-3.796 -3.928,-4.895c-1.118,-1.873 -2.338,-5.455 -3.929,-6.742c-0.523,0.015 -0.82,0.137 -1.204,0.519c-1.939,1.926 -3,5.102 -5.06,7.142c-0.453,0.448 -0.917,0.891 -1.175,1.482l0.035,0.369c0.336,0.235 0.667,0.432 1.028,0.627c0.129,0.346 0.179,0.417 0.023,0.777c-0.664,1.535 -3.374,3.489 -3.367,5.113c0.503,0.849 1.655,1.259 2.511,1.682c-1.534,1.795 -5.092,3.721 -5.971,5.39c0.352,1.508 4.501,3.91 5.824,4.725c2.109,1.301 4.056,1.839 6.539,1.905c0.052,2.425 0.07,4.851 0.055,7.277c-21.32,3.988 -42.706,7.583 -64.158,10.785c-11.249,1.811 -22.51,3.545 -33.783,5.203c-5.338,0.822 -10.689,1.555 -16.052,2.199c-0.018,-1.509 -0.073,-3.026 -0.019,-4.533c3.417,-0.422 6.045,-0.982 8.279,-3.841c0.24,-0.306 0.459,-0.627 0.657,-0.963c0.198,-0.335 0.372,-0.683 0.523,-1.042c-1.609,-1.688 -3.037,-3.49 -3.984,-5.637c0.798,-0.814 1.869,-1.692 2.379,-2.715c-0.065,-0.809 -1.942,-2.711 -2.523,-3.454c-1.016,-1.302 -1.906,-2.796 -2.723,-4.233c-0.783,-1.377 -2.125,-5.013 -3.186,-5.833c-0.051,-0.04 -0.104,-0.075 -0.157,-0.112c-0.4,0.104 -0.598,0.157 -0.834,0.515c-0.492,0.747 -0.839,1.727 -1.237,2.536c-0.7,1.4 -1.508,2.734 -2.424,4.003c-1.118,1.547 -4.827,5.148 -5.352,6.131c-0.132,0.248 -0.161,0.441 -0.083,0.711c0.361,1.25 2.723,1.789 1.967,3.364c-0.99,2.068 -4.317,5.156 -3.425,7.662c0.282,0.792 0.936,1.318 1.695,1.631c2.583,1.065 5.714,0.338 8.433,1.125l0.075,4.973c-13.453,2.099 -27.044,3.332 -40.502,5.402l-0,-151.978Z" style="fill:#fff;fill-rule:nonzero;"/>
      <path d="M22.617,247.387l0.201,-0.083c2.717,-1.133 5.228,-2.82 7.801,-4.244c5.426,-3.005 10.85,-5.962 16.212,-9.084c3.624,-2.11 7.278,-4.582 11.077,-6.349c1.978,-0.919 4.187,-1.457 6.276,-2.08l9.755,-2.862c2.58,-0.742 7.443,-2.519 9.891,-2.528c2.417,-0.009 5.111,0.761 7.509,1.141c5.463,0.866 10.94,1.664 16.392,2.595c8.239,1.407 16.46,2.847 24.581,4.85c2.348,0.578 4.844,1.034 7.089,1.928c0.479,0.19 0.843,0.34 1.141,0.771c0.038,0.45 0.036,0.537 -0.152,0.945c-0.494,0.342 -0.905,0.321 -1.486,0.214c-1.294,-0.236 -2.577,-0.746 -3.856,-1.079c-3.113,-0.824 -6.242,-1.579 -9.388,-2.265c-10.365,-2.168 -20.789,-3.999 -31.272,-5.494c-3.508,-0.522 -7.512,-1.595 -11.046,-1.491c-1.8,0.053 -3.632,1.046 -5.362,1.524c-4.429,1.223 -8.852,2.393 -13.266,3.687c-2.42,0.709 -4.892,1.24 -7.135,2.426c-3.908,2.066 -7.684,4.465 -11.504,6.695c-4.794,2.772 -9.623,5.483 -14.487,8.131c-2.953,1.632 -5.892,3.403 -8.971,4.786l-0,-2.134Z" style="fill-rule:nonzero;"/>
      <path d="M285.588,195.401c1.085,-0.148 5.366,1.059 6.822,1.316l17.546,3.034c2.171,0.354 7.298,0.824 9.017,1.569c0.402,0.174 0.526,0.311 0.681,0.708c-0.116,0.36 -0.121,0.519 -0.456,0.733c-0.481,0.307 -1.238,0.265 -1.786,0.215c-2.658,-0.244 -5.358,-0.958 -7.999,-1.391c-7.923,-1.295 -15.805,-2.757 -23.709,-4.155c-13.135,4.803 -26.347,9.535 -38.876,15.797c3.748,1.454 8.033,2.081 11.91,3.152c0.824,0.227 1.65,0.472 2.093,1.254c-0.057,0.48 -0.095,0.527 -0.403,0.904c-1.04,0.45 -8.86,-1.971 -10.449,-2.376l-12.81,-3.259c-3.84,-0.987 -8.249,-2.624 -12.228,-2.578c-3.955,0.046 -23.812,1.587 -25.737,0.638c-0.415,-0.204 -0.528,-0.395 -0.69,-0.811c0.098,-0.249 0.101,-0.34 0.315,-0.521c0.287,-0.243 0.609,-0.335 0.977,-0.373c3.654,-0.379 7.488,-0.215 11.171,-0.376l9.635,-0.462c2.218,-0.108 4.547,-0.366 6.752,-0.067c5.373,0.726 11.072,3.216 16.363,3.831l0.231,0.025c6.766,-3.211 13.621,-6.218 20.565,-9.021c6.945,-2.804 13.966,-5.399 21.065,-7.786Z" style="fill-rule:nonzero;"/>
      <path d="M99.979,165.625c2.846,-1.117 5.593,-2.463 8.394,-3.687c5.372,-2.347 10.89,-4.663 16.384,-6.701c7.387,-2.74 15.222,-4.704 22.792,-6.886c3.643,-1.05 8.324,-2.888 12.033,-3.205c2.076,-0.178 5.495,1.211 7.568,1.82c18.257,5.355 35.85,12.457 53.403,19.747c7.826,3.251 15.741,6.367 23.504,9.762c2.614,1.143 5.185,2.357 7.857,3.365c3.361,-1.058 11.504,-4.1 14.537,-4.32c1.981,-0.144 5.383,1.041 7.389,1.524c9.427,2.199 18.769,4.716 28.024,7.551c4.261,-1.622 8.401,-3.706 12.595,-5.516c3.591,-1.552 7.405,-2.856 10.873,-4.658c5.496,-2.856 10.707,-6.249 16.208,-9.019c6.061,-3.052 12.412,-5.41 18.504,-8.355c6.232,1.052 11.922,3.451 17.598,6.115c0.933,0.439 3.189,1.254 3.684,2.187c0.101,0.189 0.096,0.203 0.135,0.386c-0.205,0.431 -0.332,0.431 -0.748,0.64c-1.06,0.054 -8.727,-3.769 -10.311,-4.403c-2.784,-1.114 -7.284,-2.643 -10.232,-2.78c-5.127,2.796 -10.912,4.549 -16.194,7.09c-3.746,1.8 -7.073,4.192 -10.724,6.112c-2.888,1.52 -5.802,3.132 -8.744,4.531c-2.028,0.967 -4.146,1.77 -6.207,2.662l-9.124,4.018c-0.776,0.333 -3.49,1.281 -3.8,1.893c1.668,0.97 7.347,1.371 7.903,3.044c-0.143,0.465 -0.196,0.524 -0.559,0.851c-0.633,0.193 -1.221,0.062 -1.848,-0.086c-5.206,-1.232 -10.421,-2.947 -15.553,-4.478c-6.921,-2.121 -13.898,-4.033 -20.934,-5.735c-2.388,-0.583 -5.327,-1.639 -7.794,-1.54c-2.727,0.109 -8.181,2.394 -10.956,3.337c-4.878,1.657 -9.806,3.168 -14.682,4.833c-3.788,1.293 -7.596,2.816 -11.449,3.875c-4.599,-1.729 -9.426,-3.082 -14.14,-4.477l-16.715,-4.933c-3.541,-1.022 -8.315,-2.905 -11.828,-3.31c-1.975,-0.228 -25.42,2.987 -27.154,3.774c-3.817,1.733 -7.511,4.175 -11.22,6.173c-7.431,4.004 -14.984,7.259 -23.052,9.763c-1.183,0.378 -2.372,0.735 -3.568,1.072c-1.195,0.337 -2.396,0.654 -3.602,0.949c-1.206,0.296 -2.417,0.57 -3.633,0.824c-1.215,0.254 -2.435,0.487 -3.659,0.698c-1.224,0.212 -2.451,0.403 -3.681,0.572c-1.23,0.17 -2.463,0.318 -3.699,0.445c-1.235,0.127 -2.472,0.232 -3.711,0.317c-1.239,0.084 -2.48,0.147 -3.721,0.188c-4.567,0.132 -10.967,-0.392 -15.213,0.437c-4.016,0.784 -7.981,2.048 -11.892,3.237l-14.169,4.377c-2.808,0.884 -6.024,2.254 -8.883,2.75c-0.572,0.099 -1.055,0.127 -1.617,-0.031l-0.236,-0.291c0.146,-0.529 0.401,-0.751 0.879,-1.039c2.383,-1.432 10.474,-3.645 13.6,-4.625l12.291,-3.81c3.334,-1.015 6.749,-2.133 10.209,-2.624c2.195,-0.312 4.452,-0.221 6.665,-0.213c3.865,0.014 7.761,0.118 11.62,-0.117c15.792,-0.963 31.577,-5.798 45.486,-13.233c2.081,-1.112 4.47,-2.143 6.355,-3.532c-15.447,-4.311 -30.826,-8.85 -46.138,-13.616c-3.696,-1.115 -13.963,-4.832 -17.096,-4.989c-2.106,-0.106 -11.238,2.593 -13.995,3.324c-17.195,4.543 -34.318,9.339 -51.371,14.387l-0,-1.83c6.169,-2.1 12.429,-3.847 18.694,-5.634c10.752,-3.082 21.539,-6.038 32.36,-8.868c2.728,-0.732 11.333,-3.485 13.657,-3.533c2.434,-0.049 9.812,2.657 12.651,3.444Z" style="fill-rule:nonzero;"/>
      <path d="M159.663,147.416c2.197,-0.195 5.274,1.119 7.403,1.733c20.359,5.869 40.199,13.991 59.675,22.299c7.363,3.141 14.837,5.988 22.039,9.493c-2.738,0.996 -17.76,6.2 -19.555,6.24c-1.329,0.03 -9.629,-2.847 -11.6,-3.453l-22.15,-6.691c-2.462,-0.649 -4.861,-1.468 -7.31,-2.149c-0.752,-0.209 -1.503,-0.245 -2.278,-0.191c-4.874,0.341 -9.866,1.334 -14.712,2.017c-3.304,0.466 -7.828,0.73 -10.953,1.688c-2.159,0.663 -4.244,2.132 -6.213,3.241c-2.151,-0.724 -4.395,-1.221 -6.58,-1.843c-5.562,-1.595 -11.134,-3.154 -16.716,-4.677c-9.322,-2.686 -18.595,-5.531 -27.819,-8.535c1.955,-0.707 3.852,-1.642 5.768,-2.454c5.316,-2.256 10.66,-4.641 16.061,-6.68c5.551,-2.095 11.446,-3.591 17.159,-5.199c5.913,-1.665 11.794,-3.452 17.781,-4.839Z" style="fill:#fff;fill-rule:nonzero;"/>
    </g>
  </g>
</svg>
