<?xml version="1.0" encoding="UTF-8" standalone="no"?>
<!DOCTYPE svg PUBLIC "-//W3C//DTD SVG 1.1//EN" "http://www.w3.org/Graphics/SVG/1.1/DTD/svg11.dtd">
<svg width="100%" height="100%" viewBox="0 0 406 529" version="1.1" xmlns="http://www.w3.org/2000/svg" xmlns:xlink="http://www.w3.org/1999/xlink" xml:space="preserve" xmlns:serif="http://www.serif.com/" style="fill-rule:evenodd;clip-rule:evenodd;stroke-linejoin:round;stroke-miterlimit:2;">
  <rect id="L5-9" x="0.143" y="0.089" width="405.12" height="528" style="fill:none;"/>
	<a href="L5-1.svg">
  <circle id="Link-to-L5-1" serif:id="Link to L5-1" cx="40.655" cy="491.129" r="17.4" style="fill:#e1c70a;"/>
	</a>
  <path d="M221.141,297.021c-0.153,-0.154 -0.486,-0.487 -0.973,-1.127l-18.848,-23.278c-0.179,-0.179 -0.333,-0.665 -0.333,-0.998c0,-0.487 0.154,-1.127 0.333,-1.46l16.697,-25.25c0.179,-0.333 0.333,-0.819 0.333,-1.152l-0,-1.46c-0,-0.486 -0.154,-0.999 -0.487,-1.306l-26.555,-35.902c-0,-0 -0.641,-0.999 -1.639,-0.999c-0.487,-0 -0.82,-0 -1.306,0.512c-0.666,0.487 -0.82,1.127 -0.82,1.639c0,0.973 0.487,1.793 0.487,1.793l12.471,17.055c0.307,0.486 0.486,1.126 0.486,1.946c0,0.666 -0.179,1.485 -0.486,1.972l-16.569,25.249c-0.153,0.333 -0.332,0.973 -0.332,1.306l-0,1.486c-0,0.486 0.179,0.973 0.512,1.306l18.335,22.791c-0.64,-0.179 -2.125,-0.512 -4.097,-0.512c-8.348,-0 -14.904,6.888 -14.904,15.262c-0,2.279 0.486,4.584 1.792,6.377c3.458,5.249 15.749,20.819 15.749,20.819c0,0 0.82,0.999 1.972,0.999c0.308,-0 0.641,-0 0.973,-0.333c0.82,-0.666 1.153,-1.306 1.153,-1.972c-0,-0.666 -0.333,-1.152 -0.487,-1.485c-0.512,-0.82 -5.736,-10.32 -5.736,-10.32c0,-0 -1.152,-2.305 -1.152,-5.25c-0,-5.25 3.918,-9.501 9.167,-9.501c2.126,0 3.944,0.666 5.25,1.486l6.402,4.097c0,0 0.64,0.307 1.306,0.307c0.64,0 1.153,-0.153 1.639,-0.819c0.333,-0.487 0.487,-0.973 0.487,-1.46c-0,-0.486 -0.154,-0.819 -0.487,-1.306l-0.333,-0.512" style="fill-rule:nonzero;"/>
	<a href="L6-1.svg">
  <circle id="Link-to-L6-1" serif:id="Link to L6-1" cx="364.751" cy="491.129" r="17.4" style="fill:#dc4263;"/>
	</a>
</svg>
