<?xml version="1.0" encoding="UTF-8" standalone="no"?>
<!DOCTYPE svg PUBLIC "-//W3C//DTD SVG 1.1//EN" "http://www.w3.org/Graphics/SVG/1.1/DTD/svg11.dtd">
<svg width="100%" height="100%" viewBox="0 0 1801 1801" version="1.1" xmlns="http://www.w3.org/2000/svg" xmlns:xlink="http://www.w3.org/1999/xlink" xml:space="preserve" xmlns:serif="http://www.serif.com/" style="fill-rule:evenodd;clip-rule:evenodd;stroke-linecap:square;stroke-linejoin:round;stroke-miterlimit:1.5;">
    <g transform="matrix(1,0,0,1,-67,-4395)">
        <g id="DONE" transform="matrix(1,0,0,1,67.6163,4395.3)">
            <rect x="0" y="0" width="1800" height="1800" style="fill:none;"/>
            <g transform="matrix(1,0,0,1,149.469,149.453)">
                <rect x="0" y="0" width="1501.06" height="1501.09" style="fill:white;"/>
            </g>
            <g transform="matrix(1,0,0,1,66.2919,-2017.32)">
                <g transform="matrix(83.3333,0,0,83.3333,676.866,2935.62)">
                    <path d="M0.246,0.224C0.216,0.224 0.189,0.221 0.164,0.215C0.139,0.21 0.118,0.201 0.101,0.19C0.083,0.179 0.069,0.165 0.059,0.149C0.05,0.133 0.045,0.114 0.045,0.093C0.045,0.072 0.051,0.053 0.064,0.034C0.077,0.015 0.094,-0.002 0.116,-0.017L0.116,-0.021C0.104,-0.028 0.094,-0.039 0.086,-0.051C0.077,-0.065 0.073,-0.081 0.073,-0.1C0.073,-0.121 0.079,-0.139 0.09,-0.154C0.101,-0.169 0.113,-0.181 0.126,-0.19L0.126,-0.194C0.11,-0.207 0.096,-0.225 0.083,-0.248C0.07,-0.27 0.063,-0.296 0.063,-0.325C0.063,-0.352 0.068,-0.376 0.078,-0.397C0.087,-0.418 0.1,-0.437 0.117,-0.452C0.134,-0.467 0.153,-0.478 0.175,-0.486C0.198,-0.494 0.221,-0.498 0.246,-0.498C0.259,-0.498 0.272,-0.497 0.283,-0.495C0.295,-0.492 0.306,-0.489 0.315,-0.486L0.484,-0.486L0.484,-0.423L0.384,-0.423C0.395,-0.412 0.405,-0.397 0.412,-0.38C0.42,-0.363 0.424,-0.344 0.424,-0.323C0.424,-0.297 0.419,-0.274 0.41,-0.253C0.401,-0.232 0.388,-0.214 0.372,-0.2C0.356,-0.185 0.337,-0.174 0.316,-0.166C0.294,-0.158 0.271,-0.154 0.246,-0.154C0.234,-0.154 0.222,-0.156 0.209,-0.159C0.196,-0.162 0.184,-0.166 0.173,-0.171C0.164,-0.164 0.157,-0.156 0.151,-0.147C0.145,-0.138 0.142,-0.126 0.142,-0.113C0.142,-0.098 0.148,-0.085 0.16,-0.075C0.172,-0.065 0.195,-0.06 0.228,-0.06L0.322,-0.06C0.379,-0.06 0.421,-0.051 0.45,-0.033C0.478,-0.014 0.492,0.015 0.492,0.056C0.492,0.079 0.486,0.1 0.475,0.12C0.464,0.141 0.447,0.159 0.426,0.174C0.405,0.189 0.379,0.201 0.348,0.21C0.318,0.219 0.284,0.224 0.246,0.224ZM0.246,-0.209C0.26,-0.209 0.273,-0.212 0.285,-0.217C0.298,-0.222 0.309,-0.23 0.319,-0.24C0.328,-0.25 0.336,-0.262 0.341,-0.277C0.346,-0.291 0.349,-0.307 0.349,-0.325C0.349,-0.361 0.339,-0.389 0.319,-0.408C0.299,-0.428 0.275,-0.438 0.246,-0.438C0.217,-0.438 0.193,-0.428 0.173,-0.408C0.153,-0.389 0.143,-0.361 0.143,-0.325C0.143,-0.307 0.146,-0.291 0.151,-0.277C0.156,-0.262 0.164,-0.25 0.173,-0.24C0.183,-0.23 0.194,-0.222 0.206,-0.217C0.219,-0.212 0.232,-0.209 0.246,-0.209ZM0.258,0.167C0.281,0.167 0.303,0.164 0.322,0.158C0.341,0.153 0.357,0.145 0.37,0.136C0.383,0.127 0.394,0.117 0.401,0.105C0.408,0.093 0.412,0.081 0.412,0.068C0.412,0.045 0.404,0.03 0.387,0.021C0.37,0.012 0.346,0.008 0.314,0.008L0.23,0.008C0.221,0.008 0.211,0.007 0.2,0.006C0.189,0.005 0.178,0.003 0.167,0C0.15,0.013 0.137,0.026 0.129,0.04C0.121,0.054 0.117,0.068 0.117,0.082C0.117,0.108 0.13,0.129 0.155,0.144C0.18,0.159 0.214,0.167 0.258,0.167Z" style="fill-rule:nonzero;"/>
                </g>
                <g transform="matrix(83.3333,0,0,83.3333,717.7,2935.62)">
                    <path d="M0.271,0.012C0.241,0.012 0.213,0.006 0.186,-0.005C0.159,-0.016 0.135,-0.033 0.114,-0.055C0.093,-0.076 0.077,-0.103 0.065,-0.135C0.052,-0.166 0.046,-0.202 0.046,-0.242C0.046,-0.283 0.052,-0.319 0.065,-0.35C0.077,-0.382 0.093,-0.409 0.114,-0.431C0.135,-0.453 0.159,-0.47 0.186,-0.481C0.213,-0.492 0.241,-0.498 0.271,-0.498C0.301,-0.498 0.33,-0.492 0.357,-0.481C0.384,-0.47 0.407,-0.453 0.428,-0.431C0.449,-0.409 0.465,-0.382 0.477,-0.35C0.49,-0.319 0.496,-0.283 0.496,-0.242C0.496,-0.202 0.49,-0.166 0.477,-0.135C0.465,-0.103 0.449,-0.076 0.428,-0.055C0.407,-0.033 0.384,-0.016 0.357,-0.005C0.33,0.006 0.301,0.012 0.271,0.012ZM0.271,-0.056C0.292,-0.056 0.311,-0.061 0.328,-0.07C0.345,-0.079 0.36,-0.091 0.373,-0.108C0.385,-0.124 0.394,-0.143 0.401,-0.166C0.408,-0.189 0.411,-0.214 0.411,-0.242C0.411,-0.27 0.408,-0.296 0.401,-0.319C0.394,-0.342 0.385,-0.361 0.373,-0.378C0.36,-0.395 0.345,-0.407 0.328,-0.417C0.311,-0.426 0.292,-0.43 0.271,-0.43C0.25,-0.43 0.231,-0.426 0.214,-0.417C0.197,-0.407 0.182,-0.395 0.17,-0.378C0.157,-0.361 0.148,-0.342 0.141,-0.319C0.134,-0.296 0.131,-0.27 0.131,-0.242C0.131,-0.214 0.134,-0.189 0.141,-0.166C0.148,-0.143 0.157,-0.124 0.17,-0.108C0.182,-0.091 0.197,-0.079 0.214,-0.07C0.231,-0.061 0.25,-0.056 0.271,-0.056Z" style="fill-rule:nonzero;"/>
                </g>
                <g transform="matrix(83.3333,0,0,83.3333,762.866,2935.62)">
                    <path d="M0.271,0.012C0.241,0.012 0.213,0.006 0.186,-0.005C0.159,-0.016 0.135,-0.033 0.114,-0.055C0.093,-0.076 0.077,-0.103 0.065,-0.135C0.052,-0.166 0.046,-0.202 0.046,-0.242C0.046,-0.283 0.052,-0.319 0.065,-0.35C0.077,-0.382 0.093,-0.409 0.114,-0.431C0.135,-0.453 0.159,-0.47 0.186,-0.481C0.213,-0.492 0.241,-0.498 0.271,-0.498C0.301,-0.498 0.33,-0.492 0.357,-0.481C0.384,-0.47 0.407,-0.453 0.428,-0.431C0.449,-0.409 0.465,-0.382 0.477,-0.35C0.49,-0.319 0.496,-0.283 0.496,-0.242C0.496,-0.202 0.49,-0.166 0.477,-0.135C0.465,-0.103 0.449,-0.076 0.428,-0.055C0.407,-0.033 0.384,-0.016 0.357,-0.005C0.33,0.006 0.301,0.012 0.271,0.012ZM0.271,-0.056C0.292,-0.056 0.311,-0.061 0.328,-0.07C0.345,-0.079 0.36,-0.091 0.373,-0.108C0.385,-0.124 0.394,-0.143 0.401,-0.166C0.408,-0.189 0.411,-0.214 0.411,-0.242C0.411,-0.27 0.408,-0.296 0.401,-0.319C0.394,-0.342 0.385,-0.361 0.373,-0.378C0.36,-0.395 0.345,-0.407 0.328,-0.417C0.311,-0.426 0.292,-0.43 0.271,-0.43C0.25,-0.43 0.231,-0.426 0.214,-0.417C0.197,-0.407 0.182,-0.395 0.17,-0.378C0.157,-0.361 0.148,-0.342 0.141,-0.319C0.134,-0.296 0.131,-0.27 0.131,-0.242C0.131,-0.214 0.134,-0.189 0.141,-0.166C0.148,-0.143 0.157,-0.124 0.17,-0.108C0.182,-0.091 0.197,-0.079 0.214,-0.07C0.231,-0.061 0.25,-0.056 0.271,-0.056Z" style="fill-rule:nonzero;"/>
                </g>
                <g transform="matrix(83.3333,0,0,83.3333,808.033,2935.62)">
                    <path d="M0.248,0.012C0.187,0.012 0.138,-0.01 0.102,-0.054C0.065,-0.098 0.047,-0.161 0.047,-0.242C0.047,-0.281 0.053,-0.317 0.065,-0.348C0.076,-0.38 0.092,-0.407 0.111,-0.429C0.13,-0.451 0.153,-0.468 0.178,-0.48C0.203,-0.492 0.23,-0.498 0.258,-0.498C0.286,-0.498 0.31,-0.493 0.331,-0.483C0.352,-0.473 0.373,-0.459 0.394,-0.442L0.39,-0.525L0.39,-0.712L0.473,-0.712L0.473,0L0.405,0L0.398,-0.057L0.395,-0.057C0.376,-0.038 0.354,-0.022 0.329,-0.009C0.304,0.005 0.277,0.012 0.248,0.012ZM0.266,-0.057C0.289,-0.057 0.31,-0.063 0.33,-0.074C0.35,-0.085 0.37,-0.101 0.39,-0.124L0.39,-0.378C0.369,-0.397 0.349,-0.41 0.331,-0.418C0.312,-0.425 0.292,-0.429 0.272,-0.429C0.253,-0.429 0.234,-0.425 0.218,-0.416C0.201,-0.406 0.186,-0.394 0.173,-0.378C0.16,-0.361 0.15,-0.342 0.143,-0.319C0.136,-0.296 0.132,-0.271 0.132,-0.243C0.132,-0.184 0.144,-0.139 0.167,-0.106C0.19,-0.073 0.223,-0.057 0.266,-0.057Z" style="fill-rule:nonzero;"/>
                </g>
                <g transform="matrix(83.3333,0,0,83.3333,870.95,2935.62)">
                    <path d="M0.032,0.217C0.017,0.217 0.003,0.216 -0.009,0.213C-0.021,0.21 -0.031,0.207 -0.04,0.204L-0.023,0.142C-0.017,0.144 -0.01,0.146 -0.002,0.147C0.006,0.149 0.014,0.15 0.023,0.15C0.047,0.15 0.063,0.142 0.071,0.125C0.079,0.108 0.083,0.085 0.083,0.055L0.083,-0.486L0.165,-0.486L0.165,0.055C0.165,0.104 0.155,0.144 0.135,0.173C0.115,0.202 0.081,0.217 0.032,0.217ZM0.125,-0.586C0.109,-0.586 0.096,-0.591 0.085,-0.601C0.074,-0.611 0.068,-0.624 0.068,-0.639C0.068,-0.655 0.074,-0.668 0.085,-0.678C0.096,-0.687 0.109,-0.692 0.125,-0.692C0.14,-0.692 0.154,-0.687 0.165,-0.678C0.175,-0.668 0.181,-0.655 0.181,-0.639C0.181,-0.624 0.175,-0.611 0.165,-0.601C0.154,-0.591 0.14,-0.586 0.125,-0.586Z" style="fill-rule:nonzero;"/>
                </g>
                <g transform="matrix(83.3333,0,0,83.3333,891.533,2935.62)">
                    <path d="M0.271,0.012C0.241,0.012 0.213,0.006 0.186,-0.005C0.159,-0.016 0.135,-0.033 0.114,-0.055C0.093,-0.076 0.077,-0.103 0.065,-0.135C0.052,-0.166 0.046,-0.202 0.046,-0.242C0.046,-0.283 0.052,-0.319 0.065,-0.35C0.077,-0.382 0.093,-0.409 0.114,-0.431C0.135,-0.453 0.159,-0.47 0.186,-0.481C0.213,-0.492 0.241,-0.498 0.271,-0.498C0.301,-0.498 0.33,-0.492 0.357,-0.481C0.384,-0.47 0.407,-0.453 0.428,-0.431C0.449,-0.409 0.465,-0.382 0.477,-0.35C0.49,-0.319 0.496,-0.283 0.496,-0.242C0.496,-0.202 0.49,-0.166 0.477,-0.135C0.465,-0.103 0.449,-0.076 0.428,-0.055C0.407,-0.033 0.384,-0.016 0.357,-0.005C0.33,0.006 0.301,0.012 0.271,0.012ZM0.271,-0.056C0.292,-0.056 0.311,-0.061 0.328,-0.07C0.345,-0.079 0.36,-0.091 0.373,-0.108C0.385,-0.124 0.394,-0.143 0.401,-0.166C0.408,-0.189 0.411,-0.214 0.411,-0.242C0.411,-0.27 0.408,-0.296 0.401,-0.319C0.394,-0.342 0.385,-0.361 0.373,-0.378C0.36,-0.395 0.345,-0.407 0.328,-0.417C0.311,-0.426 0.292,-0.43 0.271,-0.43C0.25,-0.43 0.231,-0.426 0.214,-0.417C0.197,-0.407 0.182,-0.395 0.17,-0.378C0.157,-0.361 0.148,-0.342 0.141,-0.319C0.134,-0.296 0.131,-0.27 0.131,-0.242C0.131,-0.214 0.134,-0.189 0.141,-0.166C0.148,-0.143 0.157,-0.124 0.17,-0.108C0.182,-0.091 0.197,-0.079 0.214,-0.07C0.231,-0.061 0.25,-0.056 0.271,-0.056Z" style="fill-rule:nonzero;"/>
                </g>
                <g transform="matrix(83.3333,0,0,83.3333,936.7,2935.62)">
                    <path d="M0.297,0.012C0.274,0.012 0.251,0.006 0.227,-0.005C0.202,-0.016 0.179,-0.031 0.158,-0.05L0.155,-0.05L0.148,0L0.082,0L0.082,-0.712L0.164,-0.712L0.164,-0.518L0.162,-0.43C0.184,-0.449 0.208,-0.466 0.234,-0.478C0.26,-0.492 0.287,-0.498 0.314,-0.498C0.345,-0.498 0.373,-0.492 0.397,-0.481C0.421,-0.469 0.441,-0.452 0.458,-0.431C0.474,-0.409 0.486,-0.383 0.495,-0.353C0.503,-0.322 0.507,-0.288 0.507,-0.251C0.507,-0.21 0.501,-0.173 0.49,-0.14C0.479,-0.107 0.463,-0.08 0.444,-0.057C0.425,-0.034 0.402,-0.017 0.377,-0.006C0.352,0.006 0.325,0.012 0.297,0.012ZM0.283,-0.057C0.303,-0.057 0.322,-0.062 0.339,-0.07C0.356,-0.08 0.37,-0.092 0.383,-0.109C0.395,-0.125 0.405,-0.145 0.411,-0.169C0.419,-0.193 0.422,-0.22 0.422,-0.25C0.422,-0.277 0.42,-0.301 0.415,-0.323C0.41,-0.345 0.403,-0.364 0.393,-0.38C0.382,-0.395 0.369,-0.407 0.353,-0.416C0.336,-0.425 0.317,-0.429 0.294,-0.429C0.255,-0.429 0.211,-0.407 0.164,-0.363L0.164,-0.108C0.185,-0.089 0.206,-0.076 0.228,-0.069C0.249,-0.061 0.267,-0.057 0.283,-0.057Z" style="fill-rule:nonzero;"/>
                </g>
                <g transform="matrix(83.3333,0,0,83.3333,982.783,2935.62)">
                    <path d="M0.105,-0.576L0.103,-0.67L0.186,-0.67L0.184,-0.576L0.173,-0.198L0.116,-0.198L0.105,-0.576ZM0.145,0.012C0.128,0.012 0.114,0.006 0.102,-0.006C0.091,-0.017 0.085,-0.032 0.085,-0.05C0.085,-0.069 0.091,-0.085 0.102,-0.097C0.114,-0.108 0.128,-0.114 0.145,-0.114C0.161,-0.114 0.175,-0.108 0.187,-0.097C0.198,-0.085 0.204,-0.069 0.204,-0.05C0.204,-0.032 0.198,-0.017 0.187,-0.006C0.175,0.006 0.161,0.012 0.145,0.012Z" style="fill-rule:nonzero;"/>
                </g>
            </g>
            <g id="Meta-Ring-and-Background" serif:id="Meta-Ring and Background" transform="matrix(-1.09813,0,0,-1.09813,1706.03,2099.12)">
                <g transform="matrix(0.545852,-0.945443,0.9537,0.550619,-641.299,1170.26)">
                    <ellipse cx="692" cy="1046" rx="458" ry="454" style="fill:none;stroke:black;stroke-width:0.46px;"/>
                </g>
                <g transform="matrix(0.5,-0.866025,0.629632,0.363518,-412.931,1316.59)">
                    <path d="M768,524.038L768,568" style="fill:none;stroke:black;stroke-width:0.57px;"/>
                </g>
                <g transform="matrix(0.5,-0.866025,0.629632,0.363518,425.349,1800.57)">
                    <path d="M768,524.038L768,568" style="fill:none;stroke:black;stroke-width:0.57px;"/>
                </g>
                <g transform="matrix(-0.866025,-0.5,0.363518,-0.629632,1442.63,1400.58)">
                    <path d="M768,524.038L768,568" style="fill:none;stroke:black;stroke-width:0.57px;"/>
                </g>
                <g transform="matrix(-0.866025,-0.5,0.363518,-0.629632,958.61,2238.93)">
                    <path d="M768,524.038L768,568" style="fill:none;stroke:black;stroke-width:0.57px;"/>
                </g>
                <g transform="matrix(0.866025,-0.5,0.363518,0.629632,-371.594,713.016)">
                    <path d="M768,524.038L768,568" style="fill:none;stroke:black;stroke-width:0.57px;"/>
                </g>
                <g transform="matrix(0.866025,-0.5,0.363518,0.629632,112.404,1551.33)">
                    <path d="M768,524.038L768,568" style="fill:none;stroke:black;stroke-width:0.57px;"/>
                </g>
                <g transform="matrix(-0.5,-0.866025,0.629632,-0.363518,1193.38,1713.55)">
                    <path d="M768,524.038L768,568" style="fill:none;stroke:black;stroke-width:0.57px;"/>
                </g>
                <g transform="matrix(-0.5,-0.866025,0.629632,-0.363518,355.038,2197.57)">
                    <path d="M768,524.038L768,568" style="fill:none;stroke:black;stroke-width:0.57px;"/>
                </g>
                <g transform="matrix(1,0,0,0.727036,-34,210.969)">
                    <path d="M768,524.038L768,568" style="fill:none;stroke:black;stroke-width:0.57px;"/>
                </g>
                <g transform="matrix(1,0,0,0.727036,-34,1179)">
                    <path d="M768,524.038L768,568" style="fill:none;stroke:black;stroke-width:0.57px;"/>
                </g>
                <g transform="matrix(6.12323e-17,-1,0.727036,4.45181e-17,821.022,1859.96)">
                    <path d="M768,524.038L768,568" style="fill:none;stroke:black;stroke-width:0.57px;"/>
                </g>
                <g transform="matrix(6.12323e-17,-1,0.727036,4.45181e-17,-146.974,1859.96)">
                    <path d="M768,524.038L768,568" style="fill:none;stroke:black;stroke-width:0.57px;"/>
                </g>
            </g>
            <g transform="matrix(-1.09813,0,0,-1.09811,1707.13,2100.74)">
                <g transform="matrix(0.545852,-0.945443,0.9537,0.550619,-641.299,1170.26)">
                    <ellipse cx="692" cy="1046" rx="458" ry="454" style="fill:none;stroke:black;stroke-width:8.31px;stroke-linecap:round;"/>
                </g>
                <g transform="matrix(0.5,-0.866025,0.629632,0.363518,-412.931,1316.59)">
                    <path d="M768,524.038L768,568" style="fill:none;stroke:black;stroke-width:10.42px;stroke-linecap:round;"/>
                </g>
                <g transform="matrix(0.5,-0.866025,0.629632,0.363518,425.349,1800.57)">
                    <path d="M768,524.038L768,568" style="fill:none;stroke:black;stroke-width:10.42px;stroke-linecap:round;"/>
                </g>
                <g transform="matrix(-0.866025,-0.5,0.363518,-0.629632,1442.63,1400.58)">
                    <path d="M768,524.038L768,568" style="fill:none;stroke:black;stroke-width:10.42px;stroke-linecap:round;"/>
                </g>
                <g transform="matrix(-0.866025,-0.5,0.363518,-0.629632,958.61,2238.93)">
                    <path d="M768,524.038L768,568" style="fill:none;stroke:black;stroke-width:10.42px;stroke-linecap:round;"/>
                </g>
                <g transform="matrix(0.866025,-0.5,0.363518,0.629632,-371.594,713.016)">
                    <path d="M768,524.038L768,568" style="fill:none;stroke:black;stroke-width:10.42px;stroke-linecap:round;"/>
                </g>
                <g transform="matrix(0.866025,-0.5,0.363518,0.629632,112.404,1551.33)">
                    <path d="M768,524.038L768,568" style="fill:none;stroke:black;stroke-width:10.42px;stroke-linecap:round;"/>
                </g>
                <g transform="matrix(-0.5,-0.866025,0.629632,-0.363518,1193.38,1713.55)">
                    <path d="M768,524.038L768,568" style="fill:none;stroke:black;stroke-width:10.42px;stroke-linecap:round;"/>
                </g>
                <g transform="matrix(-0.5,-0.866025,0.629632,-0.363518,355.038,2197.57)">
                    <path d="M768,524.038L768,568" style="fill:none;stroke:black;stroke-width:10.42px;stroke-linecap:round;"/>
                </g>
                <g transform="matrix(1,0,0,0.727036,-34,210.969)">
                    <path d="M768,524.038L768,568" style="fill:none;stroke:black;stroke-width:10.42px;stroke-linecap:round;"/>
                </g>
                <g transform="matrix(1,0,0,0.727036,-34,1179)">
                    <path d="M768,524.038L768,568" style="fill:none;stroke:black;stroke-width:10.42px;stroke-linecap:round;"/>
                </g>
                <g transform="matrix(6.12323e-17,-1,0.727036,4.45181e-17,821.022,1859.96)">
                    <path d="M768,524.038L768,568" style="fill:none;stroke:black;stroke-width:10.42px;stroke-linecap:round;"/>
                </g>
                <g transform="matrix(6.12323e-17,-1,0.727036,4.45181e-17,-146.974,1859.96)">
                    <path d="M768,524.038L768,568" style="fill:none;stroke:black;stroke-width:10.42px;stroke-linecap:round;"/>
                </g>
            </g>
            <g id="_0" serif:id="0" transform="matrix(-1.39762,2.4207,-2.45799,-1.41909,3265.81,-754.507)">
                <ellipse cx="766" cy="526.5" rx="33" ry="32.5" style="stroke:white;stroke-width:8.52px;stroke-linecap:round;"/>
            </g>
        </g>
    </g>
</svg>
