<?xml version="1.0" encoding="UTF-8" standalone="no"?>
<!DOCTYPE svg PUBLIC "-//W3C//DTD SVG 1.1//EN" "http://www.w3.org/Graphics/SVG/1.1/DTD/svg11.dtd">
<svg width="100%" height="100%" viewBox="0 0 1800 1801" version="1.1" xmlns="http://www.w3.org/2000/svg" xmlns:xlink="http://www.w3.org/1999/xlink" xml:space="preserve" xmlns:serif="http://www.serif.com/" style="fill-rule:evenodd;clip-rule:evenodd;stroke-linecap:square;stroke-linejoin:round;stroke-miterlimit:1.5;">
    <g transform="matrix(1,0,0,1,-13264,-21)">
        <g id="_7" serif:id="7" transform="matrix(1,0,0,1,13264,21.3447)">
            <rect x="0" y="0" width="1800" height="1800" style="fill:none;"/>
            <g transform="matrix(1,0,0,1,157.153,156.568)">
                <rect x="0" y="0" width="1501.06" height="1501.09" style="fill:white;"/>
            </g>
            <g id="Meta-Ring-and-Background" serif:id="Meta-Ring and Background" transform="matrix(-1.09813,0,0,-1.09813,1706.03,2099.12)">
                <g transform="matrix(0.545852,-0.945443,0.9537,0.550619,-641.299,1170.26)">
                    <ellipse cx="692" cy="1046" rx="458" ry="454" style="fill:none;stroke:black;stroke-width:0.46px;"/>
                </g>
                <g transform="matrix(0.5,-0.866025,0.629632,0.363518,-412.931,1316.59)">
                    <path d="M768,524.038L768,568" style="fill:none;stroke:black;stroke-width:0.57px;"/>
                </g>
                <g transform="matrix(0.5,-0.866025,0.629632,0.363518,425.349,1800.57)">
                    <path d="M768,524.038L768,568" style="fill:none;stroke:black;stroke-width:0.57px;"/>
                </g>
                <g transform="matrix(-0.866025,-0.5,0.363518,-0.629632,1442.63,1400.58)">
                    <path d="M768,524.038L768,568" style="fill:none;stroke:black;stroke-width:0.57px;"/>
                </g>
                <g transform="matrix(-0.866025,-0.5,0.363518,-0.629632,958.61,2238.93)">
                    <path d="M768,524.038L768,568" style="fill:none;stroke:black;stroke-width:0.57px;"/>
                </g>
                <g transform="matrix(0.866025,-0.5,0.363518,0.629632,-371.594,713.016)">
                    <path d="M768,524.038L768,568" style="fill:none;stroke:black;stroke-width:0.57px;"/>
                </g>
                <g transform="matrix(0.866025,-0.5,0.363518,0.629632,112.404,1551.33)">
                    <path d="M768,524.038L768,568" style="fill:none;stroke:black;stroke-width:0.57px;"/>
                </g>
                <g transform="matrix(-0.5,-0.866025,0.629632,-0.363518,1193.38,1713.55)">
                    <path d="M768,524.038L768,568" style="fill:none;stroke:black;stroke-width:0.57px;"/>
                </g>
                <g transform="matrix(-0.5,-0.866025,0.629632,-0.363518,355.038,2197.57)">
                    <path d="M768,524.038L768,568" style="fill:none;stroke:black;stroke-width:0.57px;"/>
                </g>
                <g transform="matrix(1,0,0,0.727036,-34,210.969)">
                    <path d="M768,524.038L768,568" style="fill:none;stroke:black;stroke-width:0.57px;"/>
                </g>
                <g transform="matrix(1,0,0,0.727036,-34,1179)">
                    <path d="M768,524.038L768,568" style="fill:none;stroke:black;stroke-width:0.57px;"/>
                </g>
                <g transform="matrix(6.12323e-17,-1,0.727036,4.45181e-17,821.022,1859.96)">
                    <path d="M768,524.038L768,568" style="fill:none;stroke:black;stroke-width:0.57px;"/>
                </g>
                <g transform="matrix(6.12323e-17,-1,0.727036,4.45181e-17,-146.974,1859.96)">
                    <path d="M768,524.038L768,568" style="fill:none;stroke:black;stroke-width:0.57px;"/>
                </g>
            </g>
            <g id="Child-Rings" serif:id="Child Rings" transform="matrix(-1,0,0,-1,1397.16,903.666)">
                <g id="_8" serif:id="8" transform="matrix(0.250435,0,0,0.250435,774.503,-517.22)">
                    <g id="Ring-and-Background" serif:id="Ring and Background" transform="matrix(1,0,0,1,50.3923,-72.3542)">
                        <g id="white-background" serif:id="white background" transform="matrix(-3.84294,0,0,-4.02215,13582.9,30283.5)">
                            <ellipse cx="3348" cy="7256.93" rx="133" ry="127.074" style="fill:white;"/>
                        </g>
                        <g id="Ring" transform="matrix(0.841899,0,0,0.841899,98.8118,175.77)">
                            <g transform="matrix(0.545852,-0.945443,0.9537,0.550619,-641.299,1170.26)">
                                <ellipse cx="692" cy="1046" rx="458" ry="454" style="fill:none;stroke:black;stroke-width:10.83px;stroke-linecap:round;"/>
                            </g>
                            <g transform="matrix(0.5,-0.866025,0.629632,0.363518,-412.931,1316.59)">
                                <path d="M768,524.038L768,568" style="fill:none;stroke:black;stroke-width:13.59px;stroke-linecap:round;"/>
                            </g>
                            <g transform="matrix(0.5,-0.866025,0.629632,0.363518,425.349,1800.57)">
                                <path d="M768,524.038L768,568" style="fill:none;stroke:black;stroke-width:13.59px;stroke-linecap:round;"/>
                            </g>
                            <g transform="matrix(-0.866025,-0.5,0.363518,-0.629632,1442.63,1400.58)">
                                <path d="M768,524.038L768,568" style="fill:none;stroke:black;stroke-width:13.59px;stroke-linecap:round;"/>
                            </g>
                            <g transform="matrix(-0.866025,-0.5,0.363518,-0.629632,958.61,2238.93)">
                                <path d="M768,524.038L768,568" style="fill:none;stroke:black;stroke-width:13.59px;stroke-linecap:round;"/>
                            </g>
                            <g transform="matrix(0.866025,-0.5,0.363518,0.629632,-371.594,713.016)">
                                <path d="M768,524.038L768,568" style="fill:none;stroke:black;stroke-width:13.59px;stroke-linecap:round;"/>
                            </g>
                            <g transform="matrix(0.866025,-0.5,0.363518,0.629632,112.404,1551.33)">
                                <path d="M768,524.038L768,568" style="fill:none;stroke:black;stroke-width:13.59px;stroke-linecap:round;"/>
                            </g>
                            <g transform="matrix(-0.5,-0.866025,0.629632,-0.363518,1193.38,1713.55)">
                                <path d="M768,524.038L768,568" style="fill:none;stroke:black;stroke-width:13.59px;stroke-linecap:round;"/>
                            </g>
                            <g transform="matrix(-0.5,-0.866025,0.629632,-0.363518,355.038,2197.57)">
                                <path d="M768,524.038L768,568" style="fill:none;stroke:black;stroke-width:13.59px;stroke-linecap:round;"/>
                            </g>
                            <g transform="matrix(1,0,0,0.727036,-34,210.969)">
                                <path d="M768,524.038L768,568" style="fill:none;stroke:black;stroke-width:13.59px;stroke-linecap:round;"/>
                            </g>
                            <g transform="matrix(1,0,0,0.727036,-34,1179)">
                                <path d="M768,524.038L768,568" style="fill:none;stroke:black;stroke-width:13.59px;stroke-linecap:round;"/>
                            </g>
                            <g transform="matrix(6.12323e-17,-1,0.727036,4.45181e-17,821.022,1859.96)">
                                <path d="M768,524.038L768,568" style="fill:none;stroke:black;stroke-width:13.59px;stroke-linecap:round;"/>
                            </g>
                            <g transform="matrix(6.12323e-17,-1,0.727036,4.45181e-17,-146.974,1859.96)">
                                <path d="M768,524.038L768,568" style="fill:none;stroke:black;stroke-width:13.59px;stroke-linecap:round;"/>
                            </g>
                        </g>
                    </g>
                    <g id="Notes" transform="matrix(1,0,0,1,16.3923,-4.3923)">
                        <g id="_9" serif:id="9" transform="matrix(1.07151,-1.85591,1.88446,1.08799,-641.245,1872.23)">
                            <ellipse cx="766" cy="526.5" rx="33" ry="32.5" style="stroke:white;stroke-width:11.11px;stroke-linecap:round;"/>
                        </g>
                        <g id="_5" serif:id="5" transform="matrix(1.07151,-1.85591,1.88446,1.08799,-1271.91,1513.43)">
                            <ellipse cx="766" cy="526.5" rx="33" ry="32.5" style="stroke:white;stroke-width:11.11px;stroke-linecap:round;"/>
                        </g>
                        <g id="_3" serif:id="3" transform="matrix(1.07151,-1.85591,1.88446,1.08799,-1481.42,1876.44)">
                            <ellipse cx="766" cy="526.5" rx="33" ry="32.5" style="stroke:white;stroke-width:11.11px;stroke-linecap:round;"/>
                        </g>
                        <g id="_0" serif:id="0" transform="matrix(1.07151,-1.85591,1.88446,1.08799,-1062.18,2296.87)">
                            <ellipse cx="766" cy="526.5" rx="33" ry="32.5" style="stroke:white;stroke-width:11.11px;stroke-linecap:round;"/>
                        </g>
                    </g>
                    <g id="Root-Markers" serif:id="Root Markers">
                    </g>
                </g>
				<a xlink:href="PRE-8.svg">
                <g id="_51" serif:id="5" transform="matrix(0.250435,0,0,0.250435,28.2889,-712.769)">
                    <g id="Ring-and-Background1" serif:id="Ring and Background" transform="matrix(1,0,0,1,50.3923,-72.3542)">
                        <g id="white-background1" serif:id="white background" transform="matrix(-3.84294,0,0,-4.02215,13582.9,30283.5)">
                            <ellipse cx="3348" cy="7256.93" rx="133" ry="127.074" style="fill:white;"/>
                        </g>
                        <g id="Ring1" serif:id="Ring" transform="matrix(0.841899,0,0,0.841899,98.8118,175.77)">
                            <g transform="matrix(0.545852,-0.945443,0.9537,0.550619,-641.299,1170.26)">
                                <ellipse cx="692" cy="1046" rx="458" ry="454" style="fill:none;stroke:black;stroke-width:10.83px;stroke-linecap:round;"/>
                            </g>
                            <g transform="matrix(0.5,-0.866025,0.629632,0.363518,-412.931,1316.59)">
                                <path d="M768,524.038L768,568" style="fill:none;stroke:black;stroke-width:13.59px;stroke-linecap:round;"/>
                            </g>
                            <g transform="matrix(0.5,-0.866025,0.629632,0.363518,425.349,1800.57)">
                                <path d="M768,524.038L768,568" style="fill:none;stroke:black;stroke-width:13.59px;stroke-linecap:round;"/>
                            </g>
                            <g transform="matrix(-0.866025,-0.5,0.363518,-0.629632,1442.63,1400.58)">
                                <path d="M768,524.038L768,568" style="fill:none;stroke:black;stroke-width:13.59px;stroke-linecap:round;"/>
                            </g>
                            <g transform="matrix(-0.866025,-0.5,0.363518,-0.629632,958.61,2238.93)">
                                <path d="M768,524.038L768,568" style="fill:none;stroke:black;stroke-width:13.59px;stroke-linecap:round;"/>
                            </g>
                            <g transform="matrix(0.866025,-0.5,0.363518,0.629632,-371.594,713.016)">
                                <path d="M768,524.038L768,568" style="fill:none;stroke:black;stroke-width:13.59px;stroke-linecap:round;"/>
                            </g>
                            <g transform="matrix(0.866025,-0.5,0.363518,0.629632,112.404,1551.33)">
                                <path d="M768,524.038L768,568" style="fill:none;stroke:black;stroke-width:13.59px;stroke-linecap:round;"/>
                            </g>
                            <g transform="matrix(-0.5,-0.866025,0.629632,-0.363518,1193.38,1713.55)">
                                <path d="M768,524.038L768,568" style="fill:none;stroke:black;stroke-width:13.59px;stroke-linecap:round;"/>
                            </g>
                            <g transform="matrix(-0.5,-0.866025,0.629632,-0.363518,355.038,2197.57)">
                                <path d="M768,524.038L768,568" style="fill:none;stroke:black;stroke-width:13.59px;stroke-linecap:round;"/>
                            </g>
                            <g transform="matrix(1,0,0,0.727036,-34,210.969)">
                                <path d="M768,524.038L768,568" style="fill:none;stroke:black;stroke-width:13.59px;stroke-linecap:round;"/>
                            </g>
                            <g transform="matrix(1,0,0,0.727036,-34,1179)">
                                <path d="M768,524.038L768,568" style="fill:none;stroke:black;stroke-width:13.59px;stroke-linecap:round;"/>
                            </g>
                            <g transform="matrix(6.12323e-17,-1,0.727036,4.45181e-17,821.022,1859.96)">
                                <path d="M768,524.038L768,568" style="fill:none;stroke:black;stroke-width:13.59px;stroke-linecap:round;"/>
                            </g>
                            <g transform="matrix(6.12323e-17,-1,0.727036,4.45181e-17,-146.974,1859.96)">
                                <path d="M768,524.038L768,568" style="fill:none;stroke:black;stroke-width:13.59px;stroke-linecap:round;"/>
                            </g>
                        </g>
                    </g>
                    <g id="Notes1" serif:id="Notes" transform="matrix(1,0,0,1,16.3923,-4.3923)">
                        <g id="_10" serif:id="10" transform="matrix(1.07151,-1.85591,1.88446,1.08799,-701.504,2085.37)">
                            <ellipse cx="766" cy="526.5" rx="33" ry="32.5" style="fill:rgb(133,0,255);stroke:white;stroke-width:11.11px;stroke-linecap:round;"/>
                        </g>
                        <g id="_52" serif:id="5" transform="matrix(1.07151,-1.85591,1.88446,1.08799,-1271.91,1513.43)">
                            <ellipse cx="766" cy="526.5" rx="33" ry="32.5" style="fill:rgb(133,0,255);stroke:white;stroke-width:11.11px;stroke-linecap:round;"/>
                        </g>
                        <g id="_2" serif:id="2" transform="matrix(1.07151,-1.85591,1.88446,1.08799,-1423.86,2085.36)">
                            <ellipse cx="766" cy="526.5" rx="33" ry="32.5" style="fill:rgb(133,0,255);stroke:white;stroke-width:11.11px;stroke-linecap:round;"/>
                        </g>
                        <g id="_01" serif:id="0" transform="matrix(1.07151,-1.85591,1.88446,1.08799,-1062.18,2296.87)">
                            <ellipse cx="766" cy="526.5" rx="33" ry="32.5" style="fill:rgb(133,0,255);stroke:white;stroke-width:11.11px;stroke-linecap:round;"/>
                        </g>
                    </g>
                    <g id="Root-Markers1" serif:id="Root Markers">
                    </g>
                </g>
				</a>
                <g id="_02" serif:id="0" transform="matrix(0.250435,0,0,0.250435,303.035,286.599)">
                    <g id="Ring-and-Background2" serif:id="Ring and Background" transform="matrix(1,0,0,1,50.3923,-72.3542)">
                        <g id="white-background2" serif:id="white background" transform="matrix(-3.84294,0,0,-4.02215,13582.9,30283.5)">
                            <ellipse cx="3348" cy="7256.93" rx="133" ry="127.074" style="fill:white;"/>
                        </g>
                        <g id="Ring2" serif:id="Ring" transform="matrix(0.841899,0,0,0.841899,98.8118,175.77)">
                            <g transform="matrix(0.545852,-0.945443,0.9537,0.550619,-641.299,1170.26)">
                                <ellipse cx="692" cy="1046" rx="458" ry="454" style="fill:none;stroke:black;stroke-width:10.83px;stroke-linecap:round;"/>
                            </g>
                            <g transform="matrix(0.5,-0.866025,0.629632,0.363518,-412.931,1316.59)">
                                <path d="M768,524.038L768,568" style="fill:none;stroke:black;stroke-width:13.59px;stroke-linecap:round;"/>
                            </g>
                            <g transform="matrix(0.5,-0.866025,0.629632,0.363518,425.349,1800.57)">
                                <path d="M768,524.038L768,568" style="fill:none;stroke:black;stroke-width:13.59px;stroke-linecap:round;"/>
                            </g>
                            <g transform="matrix(-0.866025,-0.5,0.363518,-0.629632,1442.63,1400.58)">
                                <path d="M768,524.038L768,568" style="fill:none;stroke:black;stroke-width:13.59px;stroke-linecap:round;"/>
                            </g>
                            <g transform="matrix(-0.866025,-0.5,0.363518,-0.629632,958.61,2238.93)">
                                <path d="M768,524.038L768,568" style="fill:none;stroke:black;stroke-width:13.59px;stroke-linecap:round;"/>
                            </g>
                            <g transform="matrix(0.866025,-0.5,0.363518,0.629632,-371.594,713.016)">
                                <path d="M768,524.038L768,568" style="fill:none;stroke:black;stroke-width:13.59px;stroke-linecap:round;"/>
                            </g>
                            <g transform="matrix(0.866025,-0.5,0.363518,0.629632,112.404,1551.33)">
                                <path d="M768,524.038L768,568" style="fill:none;stroke:black;stroke-width:13.59px;stroke-linecap:round;"/>
                            </g>
                            <g transform="matrix(-0.5,-0.866025,0.629632,-0.363518,1193.38,1713.55)">
                                <path d="M768,524.038L768,568" style="fill:none;stroke:black;stroke-width:13.59px;stroke-linecap:round;"/>
                            </g>
                            <g transform="matrix(-0.5,-0.866025,0.629632,-0.363518,355.038,2197.57)">
                                <path d="M768,524.038L768,568" style="fill:none;stroke:black;stroke-width:13.59px;stroke-linecap:round;"/>
                            </g>
                            <g transform="matrix(1,0,0,0.727036,-34,210.969)">
                                <path d="M768,524.038L768,568" style="fill:none;stroke:black;stroke-width:13.59px;stroke-linecap:round;"/>
                            </g>
                            <g transform="matrix(1,0,0,0.727036,-34,1179)">
                                <path d="M768,524.038L768,568" style="fill:none;stroke:black;stroke-width:13.59px;stroke-linecap:round;"/>
                            </g>
                            <g transform="matrix(6.12323e-17,-1,0.727036,4.45181e-17,821.022,1859.96)">
                                <path d="M768,524.038L768,568" style="fill:none;stroke:black;stroke-width:13.59px;stroke-linecap:round;"/>
                            </g>
                            <g transform="matrix(6.12323e-17,-1,0.727036,4.45181e-17,-146.974,1859.96)">
                                <path d="M768,524.038L768,568" style="fill:none;stroke:black;stroke-width:13.59px;stroke-linecap:round;"/>
                            </g>
                        </g>
                    </g>
                    <g id="Notes2" serif:id="Notes" transform="matrix(1,0,0,1,16.3923,-4.3923)">
                        <g id="_81" serif:id="8" transform="matrix(1.07151,-1.85591,1.88446,1.08799,-698.993,1666.12)">
                            <ellipse cx="766" cy="526.5" rx="33" ry="32.5" style="fill:rgb(255,0,42);stroke:white;stroke-width:11.11px;stroke-linecap:round;"/>
                        </g>
                        <g id="_53" serif:id="5" transform="matrix(1.07151,-1.85591,1.88446,1.08799,-1271.91,1513.43)">
                            <ellipse cx="766" cy="526.5" rx="33" ry="32.5" style="fill:rgb(255,0,42);stroke:white;stroke-width:11.11px;stroke-linecap:round;"/>
                        </g>
                        <g id="_03" serif:id="0" transform="matrix(1.07151,-1.85591,1.88446,1.08799,-1062.18,2296.87)">
                            <ellipse cx="766" cy="526.5" rx="33" ry="32.5" style="fill:rgb(255,0,42);stroke:white;stroke-width:11.11px;stroke-linecap:round;"/>
                        </g>
                    </g>
                    <g transform="matrix(0.729095,-0.420943,0.375848,0.650988,-152.48,662.216)">
                        <g id="Root-Markers2" serif:id="Root Markers">
                            <path id="_54" serif:id="5" d="M731.999,618L768,730L695.999,730L731.999,618ZM740.961,708.715L732,680.838L723.038,708.714L740.961,708.715Z"/>
                        </g>
                    </g>
                </g>
            </g>
            <g transform="matrix(1,0,0,1,-13264,-21.3447)">
                <path d="M14473,1502C14111,1493.35 13954,1470 13766,1302C14145.6,1596.53 14073.5,1211.51 14220,510.282C14062.5,1460.51 13968.6,1510.47 14473,1502Z" style="fill:none;stroke:rgb(179,179,179);stroke-width:6.67px;stroke-linecap:round;"/>
            </g>
            <g transform="matrix(1,0,0,1,-13264,-21.3447)">
                <path d="M14420,1253.65C13640,775 13615,661 13674,1058.1C13590,686 13723.7,470.644 14139,266C13365,654 13812,864 14420,1253.65Z" style="fill:none;stroke:black;stroke-width:6.67px;stroke-linecap:round;"/>
            </g>
        </g>
    </g>
</svg>
