<?xml version="1.0" encoding="UTF-8" standalone="no"?>
<!DOCTYPE svg PUBLIC "-//W3C//DTD SVG 1.1//EN" "http://www.w3.org/Graphics/SVG/1.1/DTD/svg11.dtd">
<svg width="100%" height="100%" viewBox="0 0 1800 1801" version="1.1" xmlns="http://www.w3.org/2000/svg" xmlns:xlink="http://www.w3.org/1999/xlink" xml:space="preserve" xmlns:serif="http://www.serif.com/" style="fill-rule:evenodd;clip-rule:evenodd;stroke-linejoin:round;stroke-miterlimit:2;">
    <g transform="matrix(1,0,0,1,-3688,-2111)">
        <g id="D-" transform="matrix(1,0,0,1,3688,2111.83)">
            <rect x="0" y="0" width="1800" height="1800" style="fill:none;"/>
            <g id="F-major" sound="Low-F,Mid-C,High-A" serif:id="F major" transform="matrix(0.25463,0,0,0.25463,534.798,-172.5)">
                <g transform="matrix(0.367309,0,0,0.369591,116.116,1012.01)">
                    <path d="M1800,914.5c0,488.721 -399.244,885.5 -891,885.5c-491.756,0 -891,-396.779 -891,-885.5c0,-488.721 399.244,-885.5 891,-885.5c491.756,0 891,396.779 891,885.5Z" style="fill:#ed1c26;"/>
                </g>
                <g transform="matrix(1,0,0,1,133.625,1194.24)">
                    <g transform="matrix(250,0,0,250,229.461,245.241)">
                        <path d="M0.074,-0.716l0.547,0l0,0.154l-0.325,-0l0,0.125l0.278,-0l-0,0.145l-0.278,-0l0,0.292l-0.222,-0l0,-0.716Z" style="fill:#fff;fill-rule:nonzero;"/>
                    </g>
                </g>
            </g>
            <g id="D-minor" sound="Low-D,Mid-A,High-F" serif:id="D minor" transform="matrix(0.25463,0,0,0.25463,34.3333,-172.5)">
                <g transform="matrix(0.367309,0,0,0.369591,116.116,1012.01)">
                    <path d="M1800,914.5c0,488.721 -399.244,885.5 -891,885.5c-491.756,0 -891,-396.779 -891,-885.5c0,-488.721 399.244,-885.5 891,-885.5c491.756,0 891,396.779 891,885.5Z" style="fill:#ed1c26;"/>
                </g>
                <g transform="matrix(1,0,0,1,74.9093,1194.24)">
                    <g transform="matrix(250,0,0,250,229.461,245.241)">
                        <path d="M0.076,-0.716l0.329,0c0.065,0 0.117,0.009 0.157,0.027c0.04,0.017 0.073,0.042 0.099,0.075c0.026,0.033 0.045,0.071 0.056,0.115c0.012,0.044 0.018,0.09 0.018,0.139c-0,0.076 -0.009,0.135 -0.026,0.178c-0.018,0.042 -0.042,0.077 -0.073,0.106c-0.031,0.028 -0.064,0.047 -0.099,0.056c-0.049,0.013 -0.093,0.02 -0.132,0.02l-0.329,-0l0,-0.716Zm0.221,0.162l0,0.391l0.055,0c0.046,0 0.079,-0.005 0.098,-0.015c0.02,-0.01 0.035,-0.028 0.046,-0.054c0.011,-0.025 0.017,-0.067 0.017,-0.124c-0,-0.076 -0.013,-0.128 -0.037,-0.156c-0.025,-0.028 -0.066,-0.042 -0.123,-0.042l-0.056,0Z" style="fill:#fff;fill-rule:nonzero;"/>
                    </g>
                    <g transform="matrix(250,0,0,250,423.919,245.241)">
                        <rect x="0.022" y="-0.338" width="0.289" height="0.154" style="fill:#fff;fill-rule:nonzero;"/>
                    </g>
                </g>
            </g>
            <g id="E-dim" sound="Low-E,Mid-Bb,High-G" serif:id="E dim" transform="matrix(0.25463,0,0,0.25463,284.478,-172.5)">
                <g transform="matrix(0.275482,0,0,0.277193,-6.8342,889.343)">
                    <path d="M1800,914.5c0,488.721 -399.244,885.5 -891,885.5c-491.756,0 -891,-396.779 -891,-885.5c0,-488.721 399.244,-885.5 891,-885.5c491.756,0 891,396.779 891,885.5Z" style="fill:#ed1c26;"/>
                </g>
                <g transform="matrix(1,0,0,1,-149.202,995.142)">
                    <g transform="matrix(250,0,0,250,229.461,245.241)">
                        <path d="M0.073,-0.716l0.593,0l-0,0.153l-0.372,0l0,0.114l0.345,-0l-0,0.146l-0.345,-0l0,0.141l0.382,-0l0,0.162l-0.603,-0l-0,-0.716Z" style="fill:#fff;fill-rule:nonzero;"/>
                    </g>
                </g>
                <g transform="matrix(1,0,0,1,35.0317,904.175)">
                    <g transform="matrix(196.364,0,0,196.364,229.461,245.241)">
                        <path d="M0.036,-0.258c-0,-0.079 0.026,-0.144 0.08,-0.195c0.053,-0.052 0.125,-0.077 0.216,-0.077c0.104,-0 0.182,0.03 0.235,0.09c0.043,0.049 0.064,0.108 0.064,0.179c0,0.08 -0.026,0.145 -0.079,0.196c-0.053,0.051 -0.126,0.077 -0.219,0.077c-0.084,-0 -0.151,-0.021 -0.203,-0.064c-0.063,-0.052 -0.094,-0.121 -0.094,-0.206Zm0.199,-0c-0,0.046 0.009,0.08 0.028,0.102c0.019,0.022 0.042,0.033 0.07,0.033c0.029,0 0.053,-0.01 0.071,-0.032c0.018,-0.022 0.028,-0.057 0.028,-0.105c-0,-0.045 -0.01,-0.079 -0.028,-0.101c-0.019,-0.022 -0.042,-0.033 -0.069,-0.033c-0.029,0 -0.053,0.012 -0.072,0.034c-0.019,0.022 -0.028,0.056 -0.028,0.102Z" style="fill:#fff;fill-rule:nonzero;"/>
                    </g>
                </g>
            </g>
            <g id="E-minor" sound="Low-E,Mid-B,High-G" serif:id="E minor" transform="matrix(0.25463,0,0,0.25463,287.478,-172.5)">
                <g transform="matrix(0.275482,0,0,0.277193,390.538,1298.03)">
                    <path d="M1800,914.5c0,488.721 -399.244,885.5 -891,885.5c-491.756,0 -891,-396.779 -891,-885.5c0,-488.721 399.244,-885.5 891,-885.5c491.756,0 891,396.779 891,885.5Z" style="fill:#ed1c26;"/>
                </g>
                <g transform="matrix(1,0,0,1,273.246,1395.76)">
                    <g transform="matrix(250,0,0,250,229.461,245.241)">
                        <path d="M0.073,-0.716l0.593,0l-0,0.153l-0.372,0l0,0.114l0.345,-0l-0,0.146l-0.345,-0l0,0.141l0.382,-0l0,0.162l-0.603,-0l-0,-0.716Z" style="fill:#fff;fill-rule:nonzero;"/>
                    </g>
                    <g transform="matrix(250,0,0,250,410.003,245.241)">
                        <rect x="0.022" y="-0.338" width="0.289" height="0.154" style="fill:#fff;fill-rule:nonzero;"/>
                    </g>
                </g>
            </g>
            <g id="G-minor" sound="Low-G,Mid-D,High-Bb" serif:id="G minor" transform="matrix(0.25463,0,0,0.25463,784.478,-173.5)">
                <g transform="matrix(0.275482,0,0,0.277193,-6.8342,889.343)">
                    <path d="M1800,914.5c0,488.721 -399.244,885.5 -891,885.5c-491.756,0 -891,-396.779 -891,-885.5c0,-488.721 399.244,-885.5 891,-885.5c491.756,0 891,396.779 891,885.5Z" style="fill:#ed1c26;"/>
                </g>
                <g transform="matrix(1,0,0,1,-126.77,983.146)">
                    <g transform="matrix(250,0,0,250,229.461,245.241)">
                        <path d="M0.433,-0.259l0,-0.149l0.342,-0l-0,0.305c-0.066,0.045 -0.123,0.075 -0.174,0.091c-0.05,0.016 -0.11,0.024 -0.179,0.024c-0.085,0 -0.154,-0.014 -0.207,-0.043c-0.054,-0.029 -0.095,-0.072 -0.125,-0.13c-0.029,-0.057 -0.044,-0.123 -0.044,-0.197c-0,-0.078 0.016,-0.146 0.048,-0.204c0.032,-0.058 0.08,-0.101 0.142,-0.131c0.048,-0.023 0.114,-0.035 0.196,-0.035c0.079,-0 0.138,0.007 0.177,0.021c0.039,0.015 0.072,0.037 0.098,0.067c0.026,0.03 0.045,0.068 0.058,0.115l-0.213,0.038c-0.009,-0.027 -0.024,-0.048 -0.045,-0.062c-0.021,-0.015 -0.048,-0.022 -0.08,-0.022c-0.049,0 -0.087,0.017 -0.116,0.051c-0.029,0.033 -0.043,0.087 -0.043,0.16c-0,0.077 0.014,0.132 0.043,0.166c0.029,0.033 0.07,0.049 0.122,0.049c0.025,0 0.048,-0.003 0.071,-0.01c0.022,-0.007 0.048,-0.02 0.077,-0.037l0,-0.067l-0.148,-0Z" style="fill:#fff;fill-rule:nonzero;"/>
                    </g>
                    <g transform="matrix(250,0,0,250,437.713,245.241)">
                        <rect x="0.022" y="-0.338" width="0.289" height="0.154" style="fill:#fff;fill-rule:nonzero;"/>
                    </g>
                </g>
            </g>
            <g id="G-major" sound="Low-G,Mid-D,High-B" serif:id="G major" transform="matrix(0.25463,0,0,0.25463,787.295,-172.564)">
                <g transform="matrix(0.275482,0,0,0.277193,390.538,1298.03)">
                    <path d="M1800,914.5c0,488.721 -399.244,885.5 -891,885.5c-491.756,0 -891,-396.779 -891,-885.5c0,-488.721 399.244,-885.5 891,-885.5c491.756,0 891,396.779 891,885.5Z" style="fill:#ed1c26;"/>
                </g>
                <g transform="matrix(1,0,0,1,308.89,1395.76)">
                    <g transform="matrix(250,0,0,250,229.461,245.241)">
                        <path d="M0.433,-0.259l0,-0.149l0.342,-0l-0,0.305c-0.066,0.045 -0.123,0.075 -0.174,0.091c-0.05,0.016 -0.11,0.024 -0.179,0.024c-0.085,0 -0.154,-0.014 -0.207,-0.043c-0.054,-0.029 -0.095,-0.072 -0.125,-0.13c-0.029,-0.057 -0.044,-0.123 -0.044,-0.197c-0,-0.078 0.016,-0.146 0.048,-0.204c0.032,-0.058 0.08,-0.101 0.142,-0.131c0.048,-0.023 0.114,-0.035 0.196,-0.035c0.079,-0 0.138,0.007 0.177,0.021c0.039,0.015 0.072,0.037 0.098,0.067c0.026,0.03 0.045,0.068 0.058,0.115l-0.213,0.038c-0.009,-0.027 -0.024,-0.048 -0.045,-0.062c-0.021,-0.015 -0.048,-0.022 -0.08,-0.022c-0.049,0 -0.087,0.017 -0.116,0.051c-0.029,0.033 -0.043,0.087 -0.043,0.16c-0,0.077 0.014,0.132 0.043,0.166c0.029,0.033 0.07,0.049 0.122,0.049c0.025,0 0.048,-0.003 0.071,-0.01c0.022,-0.007 0.048,-0.02 0.077,-0.037l0,-0.067l-0.148,-0Z" style="fill:#fff;fill-rule:nonzero;"/>
                    </g>
                </g>
            </g>
            <g id="A-minor" sound="Low-A,Mid-E,High-C" serif:id="A minor" transform="matrix(0.25463,0,0,0.25463,1033.48,-173.5)">
                <g transform="matrix(0.275482,0,0,0.277193,-6.8342,889.343)">
                    <path d="M1800,914.5c0,488.721 -399.244,885.5 -891,885.5c-491.756,0 -891,-396.779 -891,-885.5c0,-488.721 399.244,-885.5 891,-885.5c491.756,0 891,396.779 891,885.5Z" style="fill:#ed1c26;"/>
                </g>
                <g transform="matrix(1,0,0,1,-122.112,987.073)">
                    <g transform="matrix(250,0,0,250,229.461,245.241)">
                        <path d="M0.514,-0.118l-0.252,-0l-0.035,0.118l-0.226,-0l0.269,-0.716l0.241,0l0.269,0.716l-0.231,-0l-0.035,-0.118Zm-0.047,-0.155l-0.079,-0.257l-0.078,0.257l0.157,0Z" style="fill:#fff;fill-rule:nonzero;"/>
                    </g>
                    <g transform="matrix(250,0,0,250,423.919,245.241)">
                        <rect x="0.022" y="-0.338" width="0.289" height="0.154" style="fill:#fff;fill-rule:nonzero;"/>
                    </g>
                </g>
            </g>
            <g id="A-major" sound="Low-A,Mid-E,High-Db" serif:id="A major" transform="matrix(0.25463,0,0,0.25463,1037.29,-172.564)">
                <g transform="matrix(0.275482,0,0,0.277193,390.538,1298.03)">
                    <path d="M1800,914.5c0,488.721 -399.244,885.5 -891,885.5c-491.756,0 -891,-396.779 -891,-885.5c0,-488.721 399.244,-885.5 891,-885.5c491.756,0 891,396.779 891,885.5Z" style="fill:#ed1c26;"/>
                </g>
                <g transform="matrix(1,0,0,1,313.834,1395.76)">
                    <g transform="matrix(250,0,0,250,229.461,245.241)">
                        <path d="M0.514,-0.118l-0.252,-0l-0.035,0.118l-0.226,-0l0.269,-0.716l0.241,0l0.269,0.716l-0.231,-0l-0.035,-0.118Zm-0.047,-0.155l-0.079,-0.257l-0.078,0.257l0.157,0Z" style="fill:#fff;fill-rule:nonzero;"/>
                    </g>
                </g>
            </g>
            <g id="Bb-major" sound="Low-Bb,Mid-F,High-D" serif:id="Bb major" transform="matrix(0.25463,0,0,0.25463,1283.48,-173.5)">
                <g transform="matrix(0.275482,0,0,0.277193,-6.8342,889.343)">
                    <path d="M1800,914.5c0,488.721 -399.244,885.5 -891,885.5c-491.756,0 -891,-396.779 -891,-885.5c0,-488.721 399.244,-885.5 891,-885.5c491.756,0 891,396.779 891,885.5Z" style="fill:#ed1c26;"/>
                </g>
                <g transform="matrix(1,0,0,1,-124.096,987.073)">
                    <g transform="matrix(250,0,0,250,229.461,245.241)">
                        <path d="M0.074,-0.716l0.414,0c0.069,0 0.122,0.017 0.159,0.051c0.037,0.035 0.055,0.077 0.055,0.127c0,0.043 -0.013,0.079 -0.039,0.109c-0.018,0.02 -0.044,0.036 -0.078,0.048c0.052,0.013 0.09,0.034 0.114,0.064c0.024,0.03 0.036,0.068 0.036,0.113c0,0.037 -0.008,0.071 -0.026,0.1c-0.017,0.03 -0.04,0.054 -0.07,0.071c-0.019,0.011 -0.047,0.018 -0.084,0.023c-0.05,0.007 -0.083,0.01 -0.099,0.01l-0.382,-0l-0,-0.716Zm0.223,0.281l0.096,-0c0.035,-0 0.059,-0.006 0.072,-0.018c0.014,-0.012 0.02,-0.029 0.02,-0.051c0,-0.021 -0.006,-0.038 -0.02,-0.049c-0.013,-0.012 -0.037,-0.018 -0.07,-0.018l-0.098,0l-0,0.136Zm-0,0.281l0.113,0c0.038,0 0.065,-0.007 0.08,-0.02c0.016,-0.014 0.024,-0.032 0.024,-0.055c-0,-0.021 -0.008,-0.038 -0.024,-0.051c-0.015,-0.012 -0.042,-0.019 -0.081,-0.019l-0.112,0l-0,0.145Z" style="fill:#fff;fill-rule:nonzero;"/>
                    </g>
                </g>
                <g transform="matrix(3.1929,0,0,3.1929,313.903,1113.41)">
                    <path d="M2.8,19.4c1,-0 5.2,-4.4 7.2,-7.4c3.9,-5.9 10,-13.1 10,-21.7c0,-5.6 -4.8,-9.2 -8.1,-9.2c-2.4,0 -4.5,0.9 -6.7,1.2l-1.2,0.2l-0.1,-2.4c-0.1,-3.3 -0.1,-10.3 -0.6,-15.2c-0.3,-3.2 -0.7,-5.5 -2.3,-5.5c-1,0 -1.5,0.3 -1.5,1.4c0,1.1 0.2,2.9 0.3,5.1c0.2,4.9 0.5,11.5 0.5,15.4c0,5.7 -0.3,10.3 -0.3,16.1l0,1.7l0.1,3.3l0,1.7c0,0.7 1.3,12.9 1.4,13.3c0.1,0.7 0.3,2 1.3,2m6.7,-29c1.5,0 4.4,1.5 4.4,3c-0.3,4.9 -7.9,14.6 -8.7,14.6c-1.1,0 -1.2,-4.4 -1.2,-6.7l0,-2.9c0,-2.9 2.2,-8 5.5,-8" style="fill:#fff;fill-rule:nonzero;"/>
                </g>
            </g>
            <g id="B-dim" sound="Low-B,Mid-F,High-D" serif:id="B dim" transform="matrix(0.25463,0,0,0.25463,1287.29,-172.564)">
                <g transform="matrix(0.275482,0,0,0.277193,390.538,1298.03)">
                    <path d="M1800,914.5c0,488.721 -399.244,885.5 -891,885.5c-491.756,0 -891,-396.779 -891,-885.5c0,-488.721 399.244,-885.5 891,-885.5c491.756,0 891,396.779 891,885.5Z" style="fill:#ed1c26;"/>
                </g>
                <g transform="matrix(1,0,0,1,-7.32214,-9.09495e-13)">
                    <g transform="matrix(1,0,0,1,251.202,1395.76)">
                        <g transform="matrix(250,0,0,250,229.461,245.241)">
                            <path d="M0.074,-0.716l0.414,0c0.069,0 0.122,0.017 0.159,0.051c0.037,0.035 0.055,0.077 0.055,0.127c0,0.043 -0.013,0.079 -0.039,0.109c-0.018,0.02 -0.044,0.036 -0.078,0.048c0.052,0.013 0.09,0.034 0.114,0.064c0.024,0.03 0.036,0.068 0.036,0.113c0,0.037 -0.008,0.071 -0.026,0.1c-0.017,0.03 -0.04,0.054 -0.07,0.071c-0.019,0.011 -0.047,0.018 -0.084,0.023c-0.05,0.007 -0.083,0.01 -0.099,0.01l-0.382,-0l-0,-0.716Zm0.223,0.281l0.096,-0c0.035,-0 0.059,-0.006 0.072,-0.018c0.014,-0.012 0.02,-0.029 0.02,-0.051c0,-0.021 -0.006,-0.038 -0.02,-0.049c-0.013,-0.012 -0.037,-0.018 -0.07,-0.018l-0.098,0l-0,0.136Zm-0,0.281l0.113,0c0.038,0 0.065,-0.007 0.08,-0.02c0.016,-0.014 0.024,-0.032 0.024,-0.055c-0,-0.021 -0.008,-0.038 -0.024,-0.051c-0.015,-0.012 -0.042,-0.019 -0.081,-0.019l-0.112,0l-0,0.145Z" style="fill:#fff;fill-rule:nonzero;"/>
                        </g>
                    </g>
                    <g transform="matrix(1,0,0,1,444.017,1320.93)">
                        <g transform="matrix(196.364,0,0,196.364,229.461,245.241)">
                            <path d="M0.036,-0.258c-0,-0.079 0.026,-0.144 0.08,-0.195c0.053,-0.052 0.125,-0.077 0.216,-0.077c0.104,-0 0.182,0.03 0.235,0.09c0.043,0.049 0.064,0.108 0.064,0.179c0,0.08 -0.026,0.145 -0.079,0.196c-0.053,0.051 -0.126,0.077 -0.219,0.077c-0.084,-0 -0.151,-0.021 -0.203,-0.064c-0.063,-0.052 -0.094,-0.121 -0.094,-0.206Zm0.199,-0c-0,0.046 0.009,0.08 0.028,0.102c0.019,0.022 0.042,0.033 0.07,0.033c0.029,0 0.053,-0.01 0.071,-0.032c0.018,-0.022 0.028,-0.057 0.028,-0.105c-0,-0.045 -0.01,-0.079 -0.028,-0.101c-0.019,-0.022 -0.042,-0.033 -0.069,-0.033c-0.029,0 -0.053,0.012 -0.072,0.034c-0.019,0.022 -0.028,0.056 -0.028,0.102Z" style="fill:#fff;fill-rule:nonzero;"/>
                        </g>
                    </g>
                </g>
            </g>
            <g id="C-major" sound="Low-C,Mid-G,High-E" serif:id="C major" transform="matrix(0.25463,0,0,0.25463,1533.48,-173.5)">
                <g transform="matrix(0.275482,0,0,0.277193,-6.8342,889.343)">
                    <path d="M1800,914.5c0,488.721 -399.244,885.5 -891,885.5c-491.756,0 -891,-396.779 -891,-885.5c0,-488.721 399.244,-885.5 891,-885.5c491.756,0 891,396.779 891,885.5Z" style="fill:#ed1c26;"/>
                </g>
                <g transform="matrix(1,0,0,1,-84.7587,987.012)">
                    <g transform="matrix(250,0,0,250,229.461,245.241)">
                        <path d="M0.55,-0.292l0.194,0.058c-0.013,0.054 -0.034,0.1 -0.062,0.136c-0.028,0.037 -0.063,0.064 -0.104,0.083c-0.042,0.018 -0.094,0.028 -0.159,0.028c-0.077,-0 -0.141,-0.012 -0.19,-0.034c-0.05,-0.023 -0.092,-0.063 -0.128,-0.12c-0.036,-0.057 -0.054,-0.13 -0.054,-0.218c0,-0.119 0.032,-0.21 0.095,-0.274c0.063,-0.063 0.152,-0.095 0.267,-0.095c0.09,-0 0.161,0.018 0.213,0.055c0.051,0.036 0.09,0.092 0.115,0.168l-0.195,0.043c-0.007,-0.022 -0.014,-0.038 -0.022,-0.048c-0.012,-0.017 -0.027,-0.03 -0.045,-0.039c-0.018,-0.009 -0.038,-0.014 -0.06,-0.014c-0.051,0 -0.089,0.021 -0.116,0.061c-0.02,0.03 -0.03,0.077 -0.03,0.141c0,0.08 0.012,0.134 0.036,0.163c0.024,0.03 0.058,0.045 0.102,0.045c0.042,-0 0.074,-0.012 0.096,-0.036c0.021,-0.024 0.037,-0.058 0.047,-0.103Z" style="fill:#fff;fill-rule:nonzero;"/>
                    </g>
                </g>
            </g>
            <g id="C--dim" serif:id="C# dim" sound="Low-Db,Mid-G,High-E" transform="matrix(0.25463,0,0,0.25463,1537.29,-172.564)">
                <g transform="matrix(0.275482,0,0,0.277193,390.538,1298.03)">
                    <path d="M1800,914.5c0,488.721 -399.244,885.5 -891,885.5c-491.756,0 -891,-396.779 -891,-885.5c0,-488.721 399.244,-885.5 891,-885.5c491.756,0 891,396.779 891,885.5Z" style="fill:#ed1c26;"/>
                </g>
                <g transform="matrix(1,0,0,1,21.1606,7.85455)">
                    <g transform="matrix(1,0,0,1,160.874,1395.76)">
                        <g transform="matrix(250,0,0,250,229.461,245.241)">
                            <path d="M0.55,-0.292l0.194,0.058c-0.013,0.054 -0.034,0.1 -0.062,0.136c-0.028,0.037 -0.063,0.064 -0.104,0.083c-0.042,0.018 -0.094,0.028 -0.159,0.028c-0.077,-0 -0.141,-0.012 -0.19,-0.034c-0.05,-0.023 -0.092,-0.063 -0.128,-0.12c-0.036,-0.057 -0.054,-0.13 -0.054,-0.218c0,-0.119 0.032,-0.21 0.095,-0.274c0.063,-0.063 0.152,-0.095 0.267,-0.095c0.09,-0 0.161,0.018 0.213,0.055c0.051,0.036 0.09,0.092 0.115,0.168l-0.195,0.043c-0.007,-0.022 -0.014,-0.038 -0.022,-0.048c-0.012,-0.017 -0.027,-0.03 -0.045,-0.039c-0.018,-0.009 -0.038,-0.014 -0.06,-0.014c-0.051,0 -0.089,0.021 -0.116,0.061c-0.02,0.03 -0.03,0.077 -0.03,0.141c0,0.08 0.012,0.134 0.036,0.163c0.024,0.03 0.058,0.045 0.102,0.045c0.042,-0 0.074,-0.012 0.096,-0.036c0.021,-0.024 0.037,-0.058 0.047,-0.103Z" style="fill:#fff;fill-rule:nonzero;"/>
                        </g>
                    </g>
                    <g transform="matrix(1,0,0,1,354.865,1359.76)">
                        <g transform="matrix(196.364,0,0,196.364,229.461,245.241)">
                            <path d="M0.124,-0.295l0.025,-0.123l-0.12,-0l0,-0.135l0.147,-0l0.034,-0.175l0.14,-0l-0.036,0.175l0.107,-0l0.035,-0.175l0.139,-0l-0.034,0.175l0.066,-0l0,0.135l-0.094,-0l-0.025,0.123l0.119,0l0,0.135l-0.146,-0l-0.034,0.172l-0.139,-0l0.034,-0.172l-0.107,-0l-0.035,0.172l-0.138,-0l0.036,-0.172l-0.069,-0l0,-0.135l0.095,0Zm0.138,0l0.107,0l0.026,-0.123l-0.107,-0l-0.026,0.123Z" style="fill:#fff;fill-rule:nonzero;"/>
                        </g>
                    </g>
                    <g transform="matrix(1,0,0,1,483.289,1320.93)">
                        <g transform="matrix(196.364,0,0,196.364,229.461,245.241)">
                            <path d="M0.036,-0.258c-0,-0.079 0.026,-0.144 0.08,-0.195c0.053,-0.052 0.125,-0.077 0.216,-0.077c0.104,-0 0.182,0.03 0.235,0.09c0.043,0.049 0.064,0.108 0.064,0.179c0,0.08 -0.026,0.145 -0.079,0.196c-0.053,0.051 -0.126,0.077 -0.219,0.077c-0.084,-0 -0.151,-0.021 -0.203,-0.064c-0.063,-0.052 -0.094,-0.121 -0.094,-0.206Zm0.199,-0c-0,0.046 0.009,0.08 0.028,0.102c0.019,0.022 0.042,0.033 0.07,0.033c0.029,0 0.053,-0.01 0.071,-0.032c0.018,-0.022 0.028,-0.057 0.028,-0.105c-0,-0.045 -0.01,-0.079 -0.028,-0.101c-0.019,-0.022 -0.042,-0.033 -0.069,-0.033c-0.029,0 -0.053,0.012 -0.072,0.034c-0.019,0.022 -0.028,0.056 -0.028,0.102Z" style="fill:#fff;fill-rule:nonzero;"/>
                        </g>
                    </g>
                </g>
            </g>
			<a href="B-.svg">
            <g id="vote-for-B-minor" sound="Low-B,Mid-Gb,High-D" serif:id="vote for B minor" transform="matrix(0.509259,0,0,0.509259,36.5,835)">
                <g transform="matrix(0.505051,0,0,0.508187,-9.09091,885.263)">
                    <path d="M1800,170.68l0,1487.64c0,78.195 -63.879,141.68 -142.56,141.68l-1496.88,0c-78.681,0 -142.56,-63.485 -142.56,-141.68l0,-1487.64c0,-78.195 63.879,-141.68 142.56,-141.68l1496.88,-0c78.681,-0 142.56,63.485 142.56,141.68Z" style="fill:#0fad4b;"/>
                </g>
                <g id="votemagnet" class="votemagnet" transform="matrix(1.8315,0,0,1.90198,-12558.2,-2227.61)">
                    <ellipse cx="7102.5" cy="1790" rx="94.5" ry="90.998" style="fill:#0fad4b;"/>
                </g>
                <g transform="matrix(1,0,0,1,84.3087,1343.77)">
                    <g transform="matrix(250,0,0,250,229.461,245.241)">
                        <path d="M0.074,-0.716l0.414,0c0.069,0 0.122,0.017 0.159,0.051c0.037,0.035 0.055,0.077 0.055,0.127c0,0.043 -0.013,0.079 -0.039,0.109c-0.018,0.02 -0.044,0.036 -0.078,0.048c0.052,0.013 0.09,0.034 0.114,0.064c0.024,0.03 0.036,0.068 0.036,0.113c0,0.037 -0.008,0.071 -0.026,0.1c-0.017,0.03 -0.04,0.054 -0.07,0.071c-0.019,0.011 -0.047,0.018 -0.084,0.023c-0.05,0.007 -0.083,0.01 -0.099,0.01l-0.382,-0l-0,-0.716Zm0.223,0.281l0.096,-0c0.035,-0 0.059,-0.006 0.072,-0.018c0.014,-0.012 0.02,-0.029 0.02,-0.051c0,-0.021 -0.006,-0.038 -0.02,-0.049c-0.013,-0.012 -0.037,-0.018 -0.07,-0.018l-0.098,0l-0,0.136Zm-0,0.281l0.113,0c0.038,0 0.065,-0.007 0.08,-0.02c0.016,-0.014 0.024,-0.032 0.024,-0.055c-0,-0.021 -0.008,-0.038 -0.024,-0.051c-0.015,-0.012 -0.042,-0.019 -0.081,-0.019l-0.112,0l-0,0.145Z" style="fill:#fff;fill-rule:nonzero;"/>
                    </g>
                    <g transform="matrix(250,0,0,250,423.919,245.241)">
                        <rect x="0.022" y="-0.338" width="0.289" height="0.154" style="fill:#fff;fill-rule:nonzero;"/>
                    </g>
                </g>
            </g>
			</a>
			<a href="E-.svg">
            <g id="vote-for-E-minor" sound="Low-E,Mid-B,High-G" serif:id="vote for E minor" transform="matrix(0.509259,0,0,0.509259,537.987,835)">
                <g transform="matrix(0.505051,0,0,0.508187,-9.09091,885.263)">
                    <path d="M1800,170.68l0,1487.64c0,78.195 -63.879,141.68 -142.56,141.68l-1496.88,0c-78.681,0 -142.56,-63.485 -142.56,-141.68l0,-1487.64c0,-78.195 63.879,-141.68 142.56,-141.68l1496.88,-0c78.681,-0 142.56,63.485 142.56,141.68Z" style="fill:#f7d200;"/>
                </g>
                <g id="votemagnet1" class="votemagnet" serif:id="votemagnet" transform="matrix(1.8315,0,0,1.90198,-12558.2,-2227.61)">
                    <ellipse cx="7102.5" cy="1790" rx="94.5" ry="90.998" style="fill:#f7d20b;"/>
                </g>
                <g transform="matrix(1,0,0,1,84.3087,1343.77)">
                    <g transform="matrix(250,0,0,250,229.461,245.241)">
                        <path d="M0.073,-0.716l0.593,0l-0,0.153l-0.372,0l0,0.114l0.345,-0l-0,0.146l-0.345,-0l0,0.141l0.382,-0l0,0.162l-0.603,-0l-0,-0.716Z" style="fill:#fff;fill-rule:nonzero;"/>
                    </g>
                    <g transform="matrix(250,0,0,250,410.003,245.241)">
                        <rect x="0.022" y="-0.338" width="0.289" height="0.154" style="fill:#fff;fill-rule:nonzero;"/>
                    </g>
                </g>
            </g>
			</a>
			<a href="A-.svg">
            <g id="vote-for-A-minor" sound="Low-A,Mid-E,High-C" serif:id="vote for A minor" transform="matrix(0.509259,0,0,0.509259,1040.04,835)">
                <g transform="matrix(0.505051,0,0,0.508187,-9.09091,885.263)">
                    <path d="M1800,170.68l0,1487.64c0,78.195 -63.879,141.68 -142.56,141.68l-1496.88,0c-78.681,0 -142.56,-63.485 -142.56,-141.68l0,-1487.64c0,-78.195 63.879,-141.68 142.56,-141.68l1496.88,-0c78.681,-0 142.56,63.485 142.56,141.68Z" style="fill:#3a53a4;"/>
                </g>
                <g id="votemagnet2" class="votemagnet" serif:id="votemagnet" transform="matrix(1.8315,0,0,1.90198,-12558.2,-2227.61)">
                    <ellipse cx="7102.5" cy="1790" rx="94.5" ry="90.998" style="fill:#3a53a4;"/>
                </g>
                <g transform="matrix(1,0,0,1,74.9093,1349.34)">
                    <g transform="matrix(250,0,0,250,229.461,245.241)">
                        <path d="M0.514,-0.118l-0.252,-0l-0.035,0.118l-0.226,-0l0.269,-0.716l0.241,0l0.269,0.716l-0.231,-0l-0.035,-0.118Zm-0.047,-0.155l-0.079,-0.257l-0.078,0.257l0.157,0Z" style="fill:#fff;fill-rule:nonzero;"/>
                    </g>
                    <g transform="matrix(250,0,0,250,423.919,245.241)">
                        <rect x="0.022" y="-0.338" width="0.289" height="0.154" style="fill:#fff;fill-rule:nonzero;"/>
                    </g>
                </g>
            </g>
			</a>
			<a href="D-resting.svg">
            <g id="vote-to-rest" serif:id="vote to rest" transform="matrix(0.253333,0,0,0.509259,1538,834.833)">
                <g transform="matrix(0.505051,0,0,0.508187,-9.09091,885.263)">
                    <path d="M1800,161.149l0,1506.7c0,72.935 -119.773,132.149 -267.3,132.149l-1247.4,0c-147.527,0 -267.3,-59.214 -267.3,-132.149l0,-1506.7c0,-72.935 119.773,-132.149 267.3,-132.149l1247.4,-0c147.527,-0 267.3,59.214 267.3,132.149Z" style="fill:#ed1c26;"/>
                </g>
                <g transform="matrix(16.3999,0,0,7.94351,196.622,1360.72)">
                    <path d="M22.8,-37.6c-0.8,0 -2,0 -2,1.1c0,0.1 1.2,2.1 1.7,2.9c2.4,4.5 2.7,7.8 2.7,10.9c0,6 -1.6,13.9 -7.2,13.9c-1.1,0 -3.5,-1.9 -4.4,-1.9c-1.9,0 -2.7,2 -2.7,3.6c0,1.9 2.3,8.5 2.9,13c0.2,1.8 0.4,3.3 0.4,5.3c0,1.5 -0.1,4.1 -1.2,4.1c-1.2,0 -2.9,-8.9 -9.7,-8.9c-3,0 -3.3,3.3 -3.3,6.8l0,3.1c0,0.7 0,18.6 5.8,18.6c0.1,0 0.9,-0.4 0.9,-0.9c0,-0.1 -0.1,-0.2 -0.2,-0.4c-1.4,-2.2 -2.5,-6.5 -2.5,-16.1c0,-1.2 0.2,-2.2 1.4,-2.2c0.8,0 1.6,1 1.9,1.8c0.5,1.3 6.5,11.6 9,11.6c2,-0 3,-3.5 3,-5.2c0,-5.7 -1.2,-12.4 -1.2,-19.1c0,-1.3 0.3,-2.2 1.7,-2.8c8.9,-3.7 11.1,-9.2 11.1,-18.5c0,-13.8 -2.3,-15.7 -8.1,-20.7" style="fill:#fff;fill-rule:nonzero;"/>
                </g>
            </g>
			</a>
            <g id="D-minor-home" sound="Low-D,Mid-A,High-F" serif:id="D minor home" transform="matrix(0.962963,0,0,0.962963,33.3333,87.6667)">
                <g transform="matrix(1.0101,0,0,0.51962,-18.528,250.258)">
                    <path d="M1800,170.68l0,1487.64c0,78.195 -32.658,141.68 -72.884,141.68l-1636.23,0c-40.226,0 -72.884,-63.485 -72.884,-141.68l-0,-1487.64c-0,-78.195 32.658,-141.68 72.884,-141.68l1636.23,-0c40.226,-0 72.884,63.485 72.884,141.68Z" style="fill:#ed1c26;"/>
                </g>
                <g transform="matrix(1,0,0,1,525.214,570.036)">
                    <g transform="matrix(250,0,0,250,229.461,245.241)">
                        <path d="M0.076,-0.716l0.329,0c0.065,0 0.117,0.009 0.157,0.027c0.04,0.017 0.073,0.042 0.099,0.075c0.026,0.033 0.045,0.071 0.056,0.115c0.012,0.044 0.018,0.09 0.018,0.139c-0,0.076 -0.009,0.135 -0.026,0.178c-0.018,0.042 -0.042,0.077 -0.073,0.106c-0.031,0.028 -0.064,0.047 -0.099,0.056c-0.049,0.013 -0.093,0.02 -0.132,0.02l-0.329,-0l0,-0.716Zm0.221,0.162l0,0.391l0.055,0c0.046,0 0.079,-0.005 0.098,-0.015c0.02,-0.01 0.035,-0.028 0.046,-0.054c0.011,-0.025 0.017,-0.067 0.017,-0.124c-0,-0.076 -0.013,-0.128 -0.037,-0.156c-0.025,-0.028 -0.066,-0.042 -0.123,-0.042l-0.056,0Z" style="fill:#fff;fill-rule:nonzero;"/>
                    </g>
                    <g transform="matrix(250,0,0,250,423.919,245.241)">
                        <rect x="0.022" y="-0.338" width="0.289" height="0.154" style="fill:#fff;fill-rule:nonzero;"/>
                    </g>
                </g>
            </g>
        </g>
    </g>
</svg>
