<?xml version="1.0" encoding="UTF-8" standalone="no"?>
<!DOCTYPE svg PUBLIC "-//W3C//DTD SVG 1.1//EN" "http://www.w3.org/Graphics/SVG/1.1/DTD/svg11.dtd">
<svg width="100%" height="100%" viewBox="0 0 2048 2732" version="1.1" xmlns="http://www.w3.org/2000/svg" xmlns:xlink="http://www.w3.org/1999/xlink" xml:space="preserve" xmlns:serif="http://www.serif.com/" style="fill-rule:evenodd;clip-rule:evenodd;stroke-linecap:square;stroke-linejoin:round;stroke-miterlimit:1.5;">
    <rect id="PRE-CBeta" x="0" y="0" width="2048" height="2732" style="fill:none;"/>
    <g id="PRE-CBeta1" serif:id="PRE-CBeta">
		<a xlink:href="CBeta-REFOCUS.svg">
        <g id="S">
            <g transform="matrix(1,0,0,1,22,300)">
                <rect x="0" y="0" width="1501.06" height="1501.09" style="fill:white;"/>
            </g>
            <g id="Meta-Ring-and-Background" serif:id="Meta-Ring and Background" transform="matrix(-1.09813,0,0,-1.09813,1578.56,2249.66)">
                <g transform="matrix(0.545852,-0.945443,0.9537,0.550619,-641.299,1170.26)">
                    <ellipse cx="692" cy="1046" rx="458" ry="454" style="fill:none;stroke:black;stroke-width:0.46px;"/>
                </g>
                <g transform="matrix(0.5,-0.866025,0.629632,0.363518,-412.931,1316.59)">
                    <path d="M768,524.038L768,568" style="fill:none;stroke:black;stroke-width:0.57px;"/>
                </g>
                <g transform="matrix(0.5,-0.866025,0.629632,0.363518,425.349,1800.57)">
                    <path d="M768,524.038L768,568" style="fill:none;stroke:black;stroke-width:0.57px;"/>
                </g>
                <g transform="matrix(-0.866025,-0.5,0.363518,-0.629632,1442.63,1400.58)">
                    <path d="M768,524.038L768,568" style="fill:none;stroke:black;stroke-width:0.57px;"/>
                </g>
                <g transform="matrix(-0.866025,-0.5,0.363518,-0.629632,958.61,2238.93)">
                    <path d="M768,524.038L768,568" style="fill:none;stroke:black;stroke-width:0.57px;"/>
                </g>
                <g transform="matrix(0.866025,-0.5,0.363518,0.629632,-371.594,713.016)">
                    <path d="M768,524.038L768,568" style="fill:none;stroke:black;stroke-width:0.57px;"/>
                </g>
                <g transform="matrix(0.866025,-0.5,0.363518,0.629632,112.404,1551.33)">
                    <path d="M768,524.038L768,568" style="fill:none;stroke:black;stroke-width:0.57px;"/>
                </g>
                <g transform="matrix(-0.5,-0.866025,0.629632,-0.363518,1193.38,1713.55)">
                    <path d="M768,524.038L768,568" style="fill:none;stroke:black;stroke-width:0.57px;"/>
                </g>
                <g transform="matrix(-0.5,-0.866025,0.629632,-0.363518,355.038,2197.57)">
                    <path d="M768,524.038L768,568" style="fill:none;stroke:black;stroke-width:0.57px;"/>
                </g>
                <g transform="matrix(1,0,0,0.727036,-34,210.969)">
                    <path d="M768,524.038L768,568" style="fill:none;stroke:black;stroke-width:0.57px;"/>
                </g>
                <g transform="matrix(1,0,0,0.727036,-34,1179)">
                    <path d="M768,524.038L768,568" style="fill:none;stroke:black;stroke-width:0.57px;"/>
                </g>
                <g transform="matrix(6.12323e-17,-1,0.727036,4.45181e-17,821.022,1859.96)">
                    <path d="M768,524.038L768,568" style="fill:none;stroke:black;stroke-width:0.57px;"/>
                </g>
                <g transform="matrix(6.12323e-17,-1,0.727036,4.45181e-17,-146.974,1859.96)">
                    <path d="M768,524.038L768,568" style="fill:none;stroke:black;stroke-width:0.57px;"/>
                </g>
            </g>
            <g transform="matrix(-1.16724,-5.67069e-16,4.5063e-16,-1.04219,1628.8,2115.98)">
                <g id="Root-Markers" serif:id="Root Markers">
                    <path id="_6" serif:id="6" d="M731.999,618L768,730L695.999,730L731.999,618ZM731.999,680.84L740.959,708.715C740.959,708.715 723.04,708.715 723.04,708.715L731.999,680.84Z"/>
                </g>
            </g>
            <g transform="matrix(-1.09813,0,0,-1.09811,1579.66,2245.28)">
                <g transform="matrix(0.545852,-0.945443,0.9537,0.550619,-641.299,1170.26)">
                    <ellipse cx="692" cy="1046" rx="458" ry="454" style="fill:none;stroke:black;stroke-width:8.31px;stroke-linecap:round;"/>
                </g>
                <g transform="matrix(0.5,-0.866025,0.629632,0.363518,-412.931,1316.59)">
                    <path d="M768,524.038L768,568" style="fill:none;stroke:black;stroke-width:10.42px;stroke-linecap:round;"/>
                </g>
                <g transform="matrix(0.5,-0.866025,0.629632,0.363518,425.349,1800.57)">
                    <path d="M768,524.038L768,568" style="fill:none;stroke:black;stroke-width:10.42px;stroke-linecap:round;"/>
                </g>
                <g transform="matrix(-0.866025,-0.5,0.363518,-0.629632,1442.63,1400.58)">
                    <path d="M768,524.038L768,568" style="fill:none;stroke:black;stroke-width:10.42px;stroke-linecap:round;"/>
                </g>
                <g transform="matrix(-0.866025,-0.5,0.363518,-0.629632,958.61,2238.93)">
                    <path d="M768,524.038L768,568" style="fill:none;stroke:black;stroke-width:10.42px;stroke-linecap:round;"/>
                </g>
                <g transform="matrix(0.866025,-0.5,0.363518,0.629632,-371.594,713.016)">
                    <path d="M768,524.038L768,568" style="fill:none;stroke:black;stroke-width:10.42px;stroke-linecap:round;"/>
                </g>
                <g transform="matrix(0.866025,-0.5,0.363518,0.629632,112.404,1551.33)">
                    <path d="M768,524.038L768,568" style="fill:none;stroke:black;stroke-width:10.42px;stroke-linecap:round;"/>
                </g>
                <g transform="matrix(-0.5,-0.866025,0.629632,-0.363518,1193.38,1713.55)">
                    <path d="M768,524.038L768,568" style="fill:none;stroke:black;stroke-width:10.42px;stroke-linecap:round;"/>
                </g>
                <g transform="matrix(-0.5,-0.866025,0.629632,-0.363518,355.038,2197.57)">
                    <path d="M768,524.038L768,568" style="fill:none;stroke:black;stroke-width:10.42px;stroke-linecap:round;"/>
                </g>
                <g transform="matrix(1,0,0,0.727036,-34,210.969)">
                    <path d="M768,524.038L768,568" style="fill:none;stroke:black;stroke-width:10.42px;stroke-linecap:round;"/>
                </g>
                <g transform="matrix(1,0,0,0.727036,-34,1179)">
                    <path d="M768,524.038L768,568" style="fill:none;stroke:black;stroke-width:10.42px;stroke-linecap:round;"/>
                </g>
                <g transform="matrix(6.12323e-17,-1,0.727036,4.45181e-17,821.022,1859.96)">
                    <path d="M768,524.038L768,568" style="fill:none;stroke:black;stroke-width:10.42px;stroke-linecap:round;"/>
                </g>
                <g transform="matrix(6.12323e-17,-1,0.727036,4.45181e-17,-146.974,1859.96)">
                    <path d="M768,524.038L768,568" style="fill:none;stroke:black;stroke-width:10.42px;stroke-linecap:round;"/>
                </g>
            </g>
            <g id="_10" serif:id="10" transform="matrix(-1.39762,2.4207,-2.45799,-1.41909,2667.89,-328.094)">
                <ellipse cx="766" cy="526.5" rx="33" ry="32.5" style="fill:rgb(26,96,55);stroke:white;stroke-width:8.52px;stroke-linecap:round;"/>
            </g>
            <g id="_61" serif:id="6" transform="matrix(-1.39762,2.4207,-2.45799,-1.41909,3138.34,490.848)">
                <ellipse cx="766" cy="526.5" rx="33" ry="32.5" style="fill:rgb(26,96,55);stroke:white;stroke-width:8.52px;stroke-linecap:round;"/>
            </g>
            <g id="_5" serif:id="5" transform="matrix(-1.39762,2.4207,-2.45799,-1.41909,3411.9,417.908)">
                <ellipse cx="766" cy="526.5" rx="33" ry="32.5" style="fill:rgb(26,96,55);stroke:white;stroke-width:8.52px;stroke-linecap:round;"/>
            </g>
            <g id="_3" serif:id="3" transform="matrix(-1.39762,2.4207,-2.45799,-1.41909,3685.18,-55.5762)">
                <ellipse cx="766" cy="526.5" rx="33" ry="32.5" style="fill:rgb(26,96,55);stroke:white;stroke-width:8.52px;stroke-linecap:round;"/>
            </g>
            <g id="_1" serif:id="1" transform="matrix(-1.39762,2.4207,-2.45799,-1.41909,3409.13,-524.65)">
                <ellipse cx="766" cy="526.5" rx="33" ry="32.5" style="fill:rgb(26,96,55);stroke:white;stroke-width:8.52px;stroke-linecap:round;"/>
            </g>
        </g>
		</a>
        <g id="Text">
            <g transform="matrix(1,0,0,1,166,-108.376)">
                <g transform="matrix(75,0,0,75,1500.59,1765.71)">
                    <path d="M0.887,-0.328C0.887,-0.315 0.883,-0.304 0.876,-0.295C0.87,-0.285 0.861,-0.278 0.85,-0.273C0.839,-0.268 0.828,-0.264 0.815,-0.262C0.802,-0.26 0.789,-0.259 0.776,-0.26C0.744,-0.246 0.711,-0.23 0.677,-0.212C0.642,-0.193 0.611,-0.176 0.584,-0.16C0.603,-0.157 0.618,-0.153 0.63,-0.148C0.642,-0.143 0.653,-0.135 0.662,-0.126C0.684,-0.103 0.695,-0.074 0.695,-0.041C0.695,0.001 0.68,0.038 0.649,0.071C0.616,0.106 0.573,0.124 0.52,0.124C0.478,0.124 0.437,0.113 0.396,0.091C0.347,0.064 0.322,0.03 0.322,-0.009C0.322,-0.058 0.364,-0.103 0.448,-0.142C0.447,-0.145 0.446,-0.147 0.447,-0.148C0.447,-0.149 0.447,-0.152 0.447,-0.156C0.458,-0.157 0.468,-0.159 0.476,-0.162C0.485,-0.165 0.493,-0.168 0.5,-0.171C0.505,-0.174 0.515,-0.179 0.53,-0.188C0.544,-0.196 0.56,-0.206 0.578,-0.217C0.591,-0.224 0.604,-0.232 0.618,-0.24C0.631,-0.248 0.645,-0.256 0.659,-0.264C0.59,-0.263 0.52,-0.257 0.45,-0.248C0.379,-0.238 0.314,-0.225 0.253,-0.209C0.24,-0.206 0.224,-0.202 0.205,-0.197C0.187,-0.192 0.171,-0.19 0.157,-0.19C0.136,-0.19 0.118,-0.194 0.103,-0.203C0.088,-0.211 0.075,-0.222 0.065,-0.236C0.054,-0.25 0.046,-0.266 0.041,-0.285C0.035,-0.304 0.032,-0.323 0.031,-0.343C0.051,-0.322 0.076,-0.308 0.106,-0.302C0.135,-0.295 0.167,-0.292 0.201,-0.292C0.234,-0.292 0.269,-0.294 0.305,-0.298C0.341,-0.302 0.376,-0.306 0.409,-0.31C0.43,-0.313 0.453,-0.316 0.477,-0.32C0.502,-0.324 0.526,-0.328 0.551,-0.333C0.576,-0.338 0.6,-0.343 0.624,-0.348C0.648,-0.354 0.671,-0.36 0.692,-0.367C0.701,-0.37 0.716,-0.374 0.736,-0.378C0.755,-0.381 0.775,-0.383 0.795,-0.383C0.807,-0.383 0.819,-0.382 0.83,-0.381C0.841,-0.379 0.85,-0.376 0.859,-0.372C0.868,-0.368 0.875,-0.363 0.879,-0.356C0.884,-0.348 0.887,-0.339 0.887,-0.328ZM0.367,-0.405C0.35,-0.389 0.333,-0.378 0.316,-0.372C0.299,-0.366 0.283,-0.363 0.268,-0.363C0.222,-0.363 0.186,-0.384 0.16,-0.426C0.201,-0.425 0.234,-0.436 0.26,-0.459C0.272,-0.47 0.285,-0.482 0.3,-0.495C0.314,-0.508 0.328,-0.522 0.343,-0.536C0.358,-0.55 0.372,-0.564 0.386,-0.578C0.399,-0.591 0.411,-0.603 0.422,-0.614C0.43,-0.623 0.433,-0.632 0.431,-0.644C0.428,-0.655 0.423,-0.666 0.416,-0.678C0.414,-0.681 0.412,-0.684 0.41,-0.688C0.408,-0.691 0.406,-0.695 0.406,-0.699C0.405,-0.703 0.405,-0.707 0.406,-0.711C0.407,-0.714 0.41,-0.717 0.415,-0.719C0.42,-0.721 0.425,-0.722 0.43,-0.723C0.434,-0.724 0.44,-0.724 0.449,-0.724C0.464,-0.724 0.481,-0.723 0.499,-0.722C0.517,-0.72 0.534,-0.716 0.55,-0.711C0.571,-0.704 0.587,-0.693 0.599,-0.678C0.61,-0.663 0.612,-0.646 0.604,-0.627C0.602,-0.622 0.599,-0.618 0.596,-0.616C0.592,-0.613 0.588,-0.611 0.584,-0.609C0.579,-0.606 0.574,-0.603 0.568,-0.6C0.562,-0.597 0.556,-0.592 0.549,-0.585L0.367,-0.405ZM0.508,-0.524C0.523,-0.529 0.543,-0.535 0.568,-0.542C0.593,-0.548 0.619,-0.551 0.647,-0.551C0.682,-0.551 0.71,-0.545 0.73,-0.533C0.749,-0.521 0.759,-0.506 0.759,-0.488C0.759,-0.474 0.753,-0.461 0.742,-0.449C0.731,-0.436 0.714,-0.43 0.693,-0.43C0.682,-0.43 0.672,-0.431 0.664,-0.434C0.633,-0.425 0.601,-0.416 0.567,-0.405C0.533,-0.394 0.501,-0.382 0.47,-0.37C0.485,-0.379 0.504,-0.392 0.53,-0.406C0.555,-0.422 0.584,-0.438 0.618,-0.456C0.601,-0.467 0.583,-0.478 0.566,-0.491C0.549,-0.504 0.529,-0.515 0.508,-0.524ZM0.489,-0.1L0.458,-0.081C0.404,-0.049 0.377,-0.027 0.377,-0.014C0.377,-0.002 0.395,0.012 0.43,0.027C0.434,0.028 0.439,0.029 0.444,0.03C0.449,0.031 0.455,0.032 0.462,0.032C0.474,0.032 0.485,0.031 0.496,0.028C0.507,0.025 0.516,0.021 0.525,0.015C0.544,0.003 0.554,-0.014 0.554,-0.035C0.554,-0.048 0.548,-0.06 0.535,-0.07C0.522,-0.079 0.506,-0.089 0.489,-0.1Z" style="fill:rgb(26,96,55);fill-rule:nonzero;"/>
                </g>
                <g transform="matrix(75,0,0,75,1569.59,1765.71)">
                    <path d="M0.833,-0.29C0.808,-0.286 0.781,-0.281 0.754,-0.274C0.727,-0.267 0.699,-0.259 0.672,-0.248C0.665,-0.233 0.654,-0.218 0.64,-0.205C0.626,-0.192 0.608,-0.178 0.586,-0.165L0.572,-0.157C0.586,-0.154 0.598,-0.15 0.608,-0.145C0.617,-0.14 0.626,-0.133 0.634,-0.126C0.656,-0.104 0.667,-0.076 0.667,-0.041C0.667,0.003 0.652,0.041 0.621,0.072C0.588,0.107 0.545,0.125 0.492,0.125C0.471,0.125 0.45,0.122 0.429,0.117C0.408,0.112 0.388,0.103 0.367,0.092C0.318,0.065 0.293,0.031 0.293,-0.009C0.293,-0.058 0.335,-0.102 0.42,-0.142C0.418,-0.147 0.418,-0.151 0.419,-0.156C0.433,-0.157 0.447,-0.161 0.46,-0.166C0.472,-0.171 0.486,-0.177 0.499,-0.184C0.516,-0.193 0.528,-0.204 0.535,-0.22C0.542,-0.234 0.545,-0.252 0.545,-0.272L0.545,-0.589C0.545,-0.626 0.532,-0.658 0.505,-0.683C0.479,-0.708 0.444,-0.727 0.401,-0.742C0.425,-0.747 0.449,-0.752 0.472,-0.755C0.496,-0.758 0.517,-0.76 0.534,-0.76C0.554,-0.76 0.574,-0.758 0.593,-0.755C0.612,-0.752 0.628,-0.746 0.643,-0.737C0.658,-0.728 0.67,-0.717 0.679,-0.703C0.688,-0.689 0.692,-0.671 0.692,-0.65C0.692,-0.643 0.692,-0.637 0.692,-0.633C0.691,-0.629 0.69,-0.625 0.689,-0.621C0.688,-0.615 0.686,-0.608 0.685,-0.599C0.684,-0.59 0.683,-0.578 0.683,-0.561L0.683,-0.308C0.697,-0.32 0.711,-0.332 0.726,-0.343C0.74,-0.354 0.754,-0.365 0.767,-0.375C0.78,-0.384 0.793,-0.392 0.805,-0.399C0.816,-0.405 0.826,-0.409 0.834,-0.411C0.848,-0.414 0.86,-0.415 0.871,-0.412C0.882,-0.41 0.89,-0.406 0.898,-0.4C0.905,-0.394 0.91,-0.387 0.913,-0.378C0.916,-0.369 0.918,-0.36 0.918,-0.35C0.918,-0.331 0.91,-0.318 0.895,-0.309C0.88,-0.3 0.859,-0.294 0.833,-0.29ZM0.519,-0.432C0.514,-0.391 0.5,-0.353 0.478,-0.317C0.457,-0.28 0.43,-0.248 0.397,-0.221C0.364,-0.193 0.327,-0.171 0.285,-0.155C0.245,-0.139 0.202,-0.131 0.159,-0.131C0.149,-0.131 0.139,-0.132 0.13,-0.134C0.121,-0.136 0.112,-0.14 0.105,-0.147C0.097,-0.153 0.091,-0.162 0.086,-0.174C0.082,-0.187 0.08,-0.204 0.08,-0.225C0.088,-0.231 0.094,-0.238 0.099,-0.247C0.103,-0.255 0.106,-0.264 0.109,-0.273C0.111,-0.281 0.112,-0.29 0.113,-0.299C0.114,-0.308 0.114,-0.315 0.114,-0.321C0.114,-0.338 0.109,-0.354 0.099,-0.367C0.089,-0.38 0.078,-0.389 0.066,-0.394L0.105,-0.397C0.109,-0.398 0.113,-0.4 0.118,-0.402C0.123,-0.404 0.127,-0.407 0.132,-0.41C0.137,-0.413 0.141,-0.416 0.147,-0.419C0.152,-0.422 0.157,-0.425 0.162,-0.428L0.143,-0.428C0.132,-0.428 0.122,-0.43 0.112,-0.433C0.102,-0.436 0.093,-0.442 0.085,-0.45C0.076,-0.457 0.069,-0.467 0.064,-0.48C0.058,-0.493 0.054,-0.509 0.051,-0.528C0.079,-0.521 0.105,-0.519 0.13,-0.524C0.155,-0.529 0.181,-0.536 0.209,-0.545C0.226,-0.55 0.246,-0.556 0.271,-0.562C0.295,-0.568 0.318,-0.571 0.341,-0.571C0.352,-0.571 0.362,-0.571 0.373,-0.57C0.383,-0.569 0.392,-0.566 0.4,-0.563C0.407,-0.56 0.413,-0.555 0.418,-0.548C0.423,-0.541 0.425,-0.532 0.425,-0.521C0.425,-0.508 0.422,-0.497 0.416,-0.489C0.41,-0.481 0.402,-0.474 0.392,-0.469C0.381,-0.465 0.37,-0.461 0.357,-0.459C0.344,-0.456 0.33,-0.454 0.316,-0.453C0.31,-0.452 0.304,-0.451 0.299,-0.451C0.293,-0.45 0.287,-0.449 0.282,-0.448C0.261,-0.441 0.239,-0.433 0.218,-0.426C0.196,-0.418 0.173,-0.409 0.148,-0.398C0.173,-0.397 0.194,-0.391 0.211,-0.381C0.228,-0.371 0.237,-0.352 0.237,-0.323C0.237,-0.314 0.236,-0.302 0.235,-0.288C0.234,-0.274 0.231,-0.261 0.228,-0.249C0.289,-0.26 0.344,-0.28 0.395,-0.309C0.445,-0.338 0.486,-0.379 0.519,-0.432ZM0.462,-0.099C0.456,-0.096 0.45,-0.093 0.445,-0.09C0.44,-0.087 0.434,-0.084 0.429,-0.081C0.376,-0.05 0.349,-0.027 0.349,-0.013C0.349,-0 0.366,0.013 0.401,0.027C0.41,0.03 0.42,0.032 0.433,0.032C0.458,0.032 0.48,0.027 0.497,0.016C0.516,0.004 0.526,-0.013 0.526,-0.035C0.526,-0.048 0.52,-0.06 0.506,-0.07C0.494,-0.079 0.479,-0.089 0.462,-0.099Z" style="fill:rgb(26,96,55);fill-rule:nonzero;"/>
                </g>
                <g transform="matrix(75,0,0,75,1638.59,1765.71)">
                    <path d="M0.722,0.045C0.722,0.063 0.72,0.077 0.716,0.088C0.712,0.099 0.707,0.108 0.701,0.114C0.695,0.121 0.688,0.125 0.681,0.127C0.674,0.13 0.667,0.131 0.661,0.131C0.635,0.131 0.617,0.124 0.607,0.11C0.592,0.111 0.578,0.111 0.567,0.111C0.556,0.112 0.546,0.113 0.537,0.114C0.526,0.115 0.516,0.116 0.505,0.117C0.495,0.118 0.483,0.118 0.469,0.118C0.454,0.118 0.441,0.113 0.43,0.102C0.425,0.121 0.418,0.134 0.407,0.14C0.396,0.146 0.386,0.149 0.377,0.149C0.359,0.149 0.345,0.145 0.335,0.136C0.324,0.128 0.319,0.115 0.319,0.098L0.319,-0.064C0.319,-0.081 0.318,-0.096 0.317,-0.109C0.315,-0.122 0.312,-0.133 0.309,-0.141C0.306,-0.151 0.302,-0.158 0.297,-0.165C0.292,-0.171 0.286,-0.177 0.279,-0.182C0.294,-0.183 0.311,-0.184 0.328,-0.184C0.344,-0.183 0.361,-0.181 0.376,-0.175C0.391,-0.171 0.403,-0.163 0.413,-0.153C0.424,-0.142 0.43,-0.128 0.432,-0.11C0.441,-0.109 0.449,-0.108 0.455,-0.107C0.461,-0.106 0.466,-0.106 0.469,-0.106C0.484,-0.106 0.499,-0.108 0.514,-0.111L0.578,-0.126C0.584,-0.127 0.59,-0.129 0.597,-0.13C0.596,-0.155 0.593,-0.175 0.589,-0.19C0.585,-0.205 0.578,-0.216 0.569,-0.224C0.554,-0.22 0.54,-0.216 0.525,-0.213C0.509,-0.21 0.494,-0.207 0.479,-0.204C0.494,-0.211 0.508,-0.219 0.522,-0.228C0.535,-0.237 0.548,-0.248 0.559,-0.259C0.57,-0.27 0.578,-0.282 0.585,-0.296C0.592,-0.309 0.595,-0.324 0.595,-0.34L0.595,-0.589C0.595,-0.626 0.582,-0.658 0.556,-0.683C0.529,-0.708 0.494,-0.727 0.451,-0.742C0.475,-0.747 0.499,-0.752 0.523,-0.755C0.546,-0.758 0.567,-0.76 0.584,-0.76C0.604,-0.76 0.624,-0.758 0.643,-0.755C0.662,-0.752 0.678,-0.746 0.693,-0.737C0.708,-0.728 0.72,-0.717 0.729,-0.703C0.738,-0.689 0.742,-0.671 0.742,-0.65C0.742,-0.643 0.742,-0.637 0.742,-0.633C0.741,-0.629 0.74,-0.625 0.739,-0.621C0.738,-0.615 0.736,-0.608 0.735,-0.599C0.734,-0.59 0.733,-0.578 0.733,-0.561L0.733,-0.382C0.733,-0.348 0.722,-0.32 0.7,-0.297C0.678,-0.274 0.649,-0.255 0.613,-0.24C0.627,-0.239 0.641,-0.237 0.654,-0.234C0.667,-0.231 0.679,-0.226 0.689,-0.219C0.699,-0.212 0.707,-0.203 0.713,-0.192C0.719,-0.181 0.722,-0.167 0.722,-0.15L0.722,0.045ZM0.338,-0.574C0.338,-0.569 0.337,-0.564 0.335,-0.559C0.36,-0.558 0.381,-0.554 0.396,-0.548C0.41,-0.541 0.423,-0.532 0.433,-0.521C0.455,-0.497 0.466,-0.467 0.466,-0.43C0.466,-0.383 0.451,-0.343 0.422,-0.309C0.39,-0.271 0.347,-0.252 0.294,-0.252C0.252,-0.252 0.211,-0.264 0.171,-0.288C0.122,-0.317 0.098,-0.352 0.098,-0.395C0.098,-0.438 0.127,-0.479 0.184,-0.516C0.196,-0.523 0.203,-0.531 0.206,-0.539C0.21,-0.547 0.211,-0.553 0.211,-0.557C0.211,-0.562 0.209,-0.568 0.203,-0.573C0.199,-0.578 0.187,-0.582 0.168,-0.587C0.17,-0.588 0.174,-0.589 0.179,-0.592C0.184,-0.594 0.19,-0.596 0.196,-0.599C0.201,-0.601 0.206,-0.603 0.211,-0.605C0.216,-0.606 0.219,-0.607 0.221,-0.608C0.23,-0.613 0.239,-0.616 0.247,-0.619C0.254,-0.621 0.264,-0.622 0.275,-0.622C0.294,-0.622 0.31,-0.617 0.321,-0.608C0.332,-0.599 0.338,-0.587 0.338,-0.574ZM0.23,-0.476C0.175,-0.44 0.148,-0.415 0.148,-0.4C0.148,-0.385 0.166,-0.37 0.201,-0.353C0.21,-0.35 0.221,-0.348 0.234,-0.348C0.245,-0.348 0.257,-0.35 0.268,-0.353C0.279,-0.356 0.289,-0.361 0.298,-0.366C0.307,-0.373 0.315,-0.382 0.321,-0.392C0.326,-0.402 0.329,-0.413 0.329,-0.424C0.329,-0.439 0.322,-0.453 0.309,-0.464C0.296,-0.475 0.28,-0.486 0.263,-0.497L0.23,-0.476ZM0.5,-0.027C0.485,-0.026 0.471,-0.03 0.46,-0.039C0.449,-0.048 0.44,-0.06 0.433,-0.076L0.433,0.042C0.437,0.043 0.441,0.043 0.444,0.043C0.447,0.044 0.451,0.044 0.454,0.044C0.466,0.044 0.479,0.043 0.493,0.04C0.506,0.038 0.52,0.036 0.535,0.033C0.544,0.031 0.554,0.029 0.564,0.027C0.574,0.025 0.585,0.023 0.597,0.022L0.597,-0.044C0.591,-0.043 0.586,-0.042 0.581,-0.041C0.576,-0.04 0.57,-0.038 0.565,-0.037C0.554,-0.034 0.544,-0.032 0.533,-0.031C0.522,-0.029 0.511,-0.028 0.5,-0.027Z" style="fill:rgb(26,96,55);fill-rule:nonzero;"/>
                </g>
                <g transform="matrix(75,0,0,75,1700.84,1765.71)">
                    <path d="M0.592,-0.028C0.589,-0.027 0.586,-0.027 0.583,-0.027C0.58,-0.027 0.576,-0.027 0.573,-0.026C0.548,-0.019 0.523,-0.012 0.499,-0.005C0.475,0.003 0.457,0.011 0.445,0.018C0.442,0.019 0.439,0.021 0.437,0.023C0.434,0.025 0.433,0.027 0.433,0.028C0.433,0.03 0.435,0.032 0.439,0.033C0.442,0.034 0.449,0.035 0.458,0.035C0.473,0.035 0.49,0.034 0.509,0.032C0.529,0.03 0.549,0.028 0.568,0.025C0.587,0.022 0.605,0.019 0.621,0.016C0.637,0.013 0.649,0.011 0.656,0.009C0.679,0.004 0.698,0.004 0.711,0.011C0.724,0.018 0.732,0.028 0.735,0.043C0.738,0.061 0.736,0.075 0.727,0.085C0.718,0.095 0.704,0.103 0.685,0.109L0.685,0.108C0.672,0.112 0.657,0.115 0.64,0.118C0.623,0.121 0.606,0.124 0.589,0.125C0.571,0.126 0.554,0.127 0.537,0.128C0.52,0.129 0.506,0.129 0.493,0.129C0.441,0.129 0.402,0.123 0.376,0.112C0.349,0.101 0.336,0.084 0.336,0.059C0.336,0.048 0.342,0.038 0.355,0.028C0.368,0.018 0.384,0.009 0.403,-0C0.384,0.001 0.367,-0.004 0.353,-0.016C0.338,-0.027 0.327,-0.045 0.32,-0.07C0.35,-0.066 0.376,-0.066 0.399,-0.071C0.422,-0.076 0.445,-0.082 0.468,-0.089C0.475,-0.091 0.483,-0.093 0.491,-0.096C0.498,-0.098 0.506,-0.1 0.515,-0.103C0.521,-0.107 0.528,-0.112 0.535,-0.118C0.542,-0.124 0.548,-0.13 0.553,-0.136C0.566,-0.148 0.564,-0.152 0.547,-0.149C0.533,-0.146 0.519,-0.143 0.504,-0.139C0.49,-0.134 0.476,-0.129 0.463,-0.124C0.448,-0.119 0.435,-0.114 0.424,-0.111C0.412,-0.107 0.402,-0.105 0.395,-0.105C0.374,-0.104 0.354,-0.11 0.337,-0.124C0.32,-0.137 0.307,-0.158 0.299,-0.185C0.332,-0.181 0.36,-0.182 0.384,-0.187C0.408,-0.192 0.432,-0.199 0.456,-0.206C0.467,-0.209 0.479,-0.213 0.491,-0.217C0.502,-0.221 0.514,-0.224 0.525,-0.227C0.544,-0.24 0.561,-0.256 0.575,-0.275C0.588,-0.293 0.595,-0.314 0.595,-0.337L0.595,-0.589C0.595,-0.626 0.582,-0.658 0.556,-0.683C0.529,-0.708 0.494,-0.727 0.451,-0.742C0.475,-0.747 0.499,-0.752 0.523,-0.755C0.546,-0.758 0.567,-0.76 0.584,-0.76C0.604,-0.76 0.624,-0.758 0.643,-0.755C0.662,-0.752 0.678,-0.746 0.693,-0.737C0.708,-0.728 0.72,-0.717 0.729,-0.703C0.738,-0.689 0.742,-0.671 0.742,-0.65C0.742,-0.643 0.742,-0.637 0.742,-0.633C0.741,-0.629 0.74,-0.625 0.739,-0.621C0.738,-0.615 0.736,-0.608 0.735,-0.599C0.734,-0.59 0.733,-0.578 0.733,-0.561L0.733,-0.379C0.733,-0.347 0.723,-0.32 0.703,-0.298C0.683,-0.275 0.657,-0.257 0.624,-0.242L0.63,-0.242C0.649,-0.242 0.667,-0.239 0.682,-0.233C0.697,-0.226 0.705,-0.214 0.706,-0.196C0.707,-0.183 0.702,-0.171 0.692,-0.158C0.681,-0.145 0.667,-0.132 0.65,-0.121C0.68,-0.119 0.696,-0.107 0.697,-0.086C0.697,-0.08 0.696,-0.074 0.694,-0.068C0.691,-0.062 0.686,-0.056 0.679,-0.051C0.671,-0.046 0.66,-0.041 0.646,-0.037C0.632,-0.033 0.614,-0.03 0.592,-0.028ZM0.342,-0.432C0.343,-0.432 0.343,-0.432 0.343,-0.432C0.343,-0.431 0.343,-0.431 0.344,-0.431C0.355,-0.426 0.366,-0.419 0.377,-0.409C0.388,-0.401 0.401,-0.388 0.418,-0.373C0.42,-0.372 0.423,-0.371 0.427,-0.371C0.43,-0.37 0.434,-0.372 0.438,-0.376C0.443,-0.381 0.45,-0.391 0.457,-0.406C0.464,-0.42 0.472,-0.436 0.481,-0.454C0.475,-0.42 0.47,-0.391 0.467,-0.368C0.463,-0.344 0.462,-0.326 0.463,-0.315C0.466,-0.298 0.465,-0.282 0.461,-0.268C0.457,-0.254 0.444,-0.245 0.423,-0.241C0.407,-0.238 0.394,-0.242 0.384,-0.251C0.373,-0.26 0.367,-0.271 0.364,-0.282C0.362,-0.292 0.36,-0.302 0.358,-0.313C0.355,-0.324 0.353,-0.334 0.35,-0.344C0.348,-0.354 0.345,-0.363 0.342,-0.372C0.339,-0.38 0.335,-0.386 0.33,-0.39C0.326,-0.393 0.32,-0.393 0.313,-0.39L0.199,-0.225C0.186,-0.206 0.17,-0.192 0.151,-0.181C0.132,-0.17 0.113,-0.163 0.092,-0.16C0.079,-0.159 0.065,-0.16 0.05,-0.164C0.035,-0.167 0.021,-0.176 0.008,-0.191C0.028,-0.195 0.045,-0.204 0.06,-0.219C0.075,-0.234 0.087,-0.249 0.098,-0.265L0.286,-0.542C0.289,-0.547 0.292,-0.552 0.293,-0.559C0.294,-0.565 0.294,-0.571 0.292,-0.578C0.289,-0.584 0.284,-0.59 0.278,-0.596C0.271,-0.602 0.26,-0.607 0.247,-0.61C0.262,-0.614 0.274,-0.618 0.285,-0.623C0.296,-0.628 0.305,-0.632 0.314,-0.636C0.323,-0.64 0.331,-0.643 0.339,-0.646C0.346,-0.649 0.354,-0.65 0.363,-0.65C0.39,-0.65 0.411,-0.644 0.426,-0.631C0.44,-0.619 0.447,-0.604 0.447,-0.587C0.447,-0.578 0.445,-0.57 0.44,-0.564C0.435,-0.558 0.43,-0.552 0.424,-0.546C0.421,-0.544 0.419,-0.542 0.417,-0.539C0.415,-0.536 0.413,-0.532 0.41,-0.529L0.342,-0.432Z" style="fill:rgb(26,96,55);fill-rule:nonzero;"/>
                </g>
            </g>
            <g transform="matrix(1,0,0,1,59.7018,65.9384)">
                <g transform="matrix(1,0,0,1,0,30)">
                    <g transform="matrix(1,0,0,1,117.046,888.221)">
                        <g transform="matrix(250,0,0,250,1500.59,493.346)">
                            <path d="M0.471,-0.444C0.431,-0.412 0.392,-0.385 0.354,-0.363L0.657,-0.369C0.648,-0.382 0.635,-0.401 0.617,-0.425L0.746,-0.425C0.803,-0.374 0.854,-0.308 0.899,-0.229L0.723,-0.229C0.717,-0.242 0.712,-0.253 0.709,-0.262C0.708,-0.263 0.708,-0.265 0.707,-0.267L0.579,-0.26L0.579,-0.179L0.875,-0.179L0.875,-0.076L0.579,-0.076L0.579,-0.004L0.948,-0.004L0.948,0.105L0.05,0.105L0.05,-0.004L0.415,-0.004L0.415,-0.076L0.123,-0.076L0.123,-0.179L0.415,-0.179L0.415,-0.25L0.142,-0.233L0.142,-0.354C0.188,-0.375 0.234,-0.405 0.279,-0.444L0.138,-0.444L0.138,-0.515L0.069,-0.515L0.069,-0.714L0.415,-0.714C0.413,-0.738 0.408,-0.762 0.402,-0.787L0.546,-0.787C0.562,-0.763 0.575,-0.739 0.584,-0.714L0.844,-0.714C0.875,-0.714 0.898,-0.706 0.913,-0.69C0.925,-0.676 0.932,-0.655 0.932,-0.627L0.932,-0.515L0.866,-0.515L0.866,-0.444L0.471,-0.444ZM0.216,-0.55L0.785,-0.55L0.785,-0.614L0.216,-0.614L0.216,-0.55Z" style="fill:rgb(26,96,55);fill-rule:nonzero;"/>
                        </g>
                    </g>
                    <g transform="matrix(1,0,0,1,117.046,30.6494)">
                        <g transform="matrix(250,0,0,250,1500.59,478.158)">
                            <path d="M0.612,-0.306L0.398,-0.306C0.394,-0.22 0.379,-0.152 0.351,-0.099C0.321,-0.042 0.279,0.008 0.227,0.049C0.196,0.072 0.157,0.096 0.107,0.12L0.099,0.125L0.075,0.136L0.075,0.027C0.078,0.026 0.081,0.023 0.085,0.021C0.159,-0.028 0.205,-0.09 0.225,-0.167C0.23,-0.191 0.235,-0.237 0.238,-0.306L0.051,-0.306L0.051,-0.423L0.239,-0.423L0.239,-0.626L0.095,-0.626L0.095,-0.737L0.384,-0.737C0.399,-0.737 0.408,-0.747 0.411,-0.767L0.563,-0.767C0.556,-0.717 0.548,-0.684 0.537,-0.668C0.516,-0.64 0.483,-0.626 0.435,-0.626L0.399,-0.626L0.399,-0.423L0.612,-0.423L0.612,-0.775L0.772,-0.775L0.772,-0.423L0.953,-0.423L0.953,-0.306L0.772,-0.306L0.772,0.128L0.612,0.128L0.612,-0.306Z" style="fill:rgb(26,96,55);fill-rule:nonzero;"/>
                        </g>
                    </g>
                </g>
                <g transform="matrix(1,0,0,1,117.046,630.408)">
                    <g transform="matrix(250,0,0,250,1500.59,493.346)">
                        <path d="M0.512,-0.334L0.509,-0.328C0.477,-0.262 0.444,-0.208 0.411,-0.167C0.367,-0.112 0.312,-0.057 0.246,-0C0.199,0.039 0.154,0.072 0.109,0.099C0.096,0.107 0.076,0.119 0.047,0.136L0.047,0.031C0.136,-0.046 0.198,-0.11 0.235,-0.16C0.297,-0.243 0.347,-0.333 0.384,-0.43C0.392,-0.451 0.407,-0.494 0.427,-0.558C0.41,-0.613 0.389,-0.689 0.366,-0.786L0.547,-0.786C0.588,-0.601 0.626,-0.465 0.663,-0.378C0.714,-0.26 0.781,-0.155 0.865,-0.063C0.884,-0.042 0.916,-0.013 0.96,0.026L0.96,0.134C0.894,0.097 0.844,0.065 0.81,0.04C0.757,-0 0.705,-0.049 0.656,-0.105C0.608,-0.161 0.56,-0.237 0.512,-0.334Z" style="fill:rgb(26,96,55);fill-rule:nonzero;"/>
                    </g>
                </g>
                <g transform="matrix(1,0,0,1,117.046,340.675)">
                    <g transform="matrix(250,0,0,250,1500.59,493.346)">
                        <path d="M0.787,-0.409L0.787,-0.216L0.585,-0.216L0.585,-0.162L0.874,-0.162L0.874,-0.061L0.585,-0.061L0.585,0.001L0.947,0.001L0.947,0.105L0.057,0.105L0.057,0.001L0.417,0.001L0.417,-0.061L0.132,-0.061L0.132,-0.162L0.417,-0.162L0.417,-0.216L0.216,-0.216L0.216,-0.409L0.073,-0.409L0.073,-0.636L0.419,-0.636L0.419,-0.786L0.583,-0.786L0.583,-0.636L0.839,-0.636C0.872,-0.636 0.897,-0.627 0.912,-0.611C0.924,-0.598 0.93,-0.578 0.93,-0.552L0.93,-0.409L0.787,-0.409ZM0.784,-0.426L0.784,-0.532L0.219,-0.532L0.219,-0.486L0.681,-0.486C0.704,-0.486 0.721,-0.484 0.731,-0.48C0.759,-0.47 0.776,-0.452 0.784,-0.426ZM0.366,-0.314L0.637,-0.314L0.637,-0.389L0.366,-0.389L0.366,-0.314ZM0.834,-0.764C0.833,-0.757 0.83,-0.743 0.827,-0.722C0.823,-0.703 0.817,-0.679 0.808,-0.649L0.632,-0.649C0.661,-0.681 0.685,-0.719 0.703,-0.764L0.834,-0.764ZM0.159,-0.764L0.287,-0.764C0.314,-0.734 0.34,-0.696 0.363,-0.649L0.198,-0.649C0.19,-0.688 0.181,-0.717 0.172,-0.736C0.165,-0.75 0.161,-0.759 0.159,-0.764Z" style="fill:rgb(26,96,55);fill-rule:nonzero;"/>
                    </g>
                </g>
            </g>
        </g>
    </g>
</svg>
