<?xml version="1.0" encoding="UTF-8" standalone="no"?>
<!DOCTYPE svg PUBLIC "-//W3C//DTD SVG 1.1//EN" "http://www.w3.org/Graphics/SVG/1.1/DTD/svg11.dtd">
<svg width="100%" height="100%" viewBox="0 0 2048 2732" version="1.1" xmlns="http://www.w3.org/2000/svg" xmlns:xlink="http://www.w3.org/1999/xlink" xml:space="preserve" xmlns:serif="http://www.serif.com/" style="fill-rule:evenodd;clip-rule:evenodd;stroke-linecap:square;stroke-linejoin:round;stroke-miterlimit:1.5;">
    <rect id="PRE-N1" x="0" y="0" width="2048" height="2732" style="fill:none;"/>
    <g id="PRE-N11" serif:id="PRE-N1">
		<a xlink:href="N1-REFOCUS.svg">
        <g id="S">
            <g transform="matrix(1,0,0,1,22,300)">
                <rect x="0" y="0" width="1501.06" height="1501.09" style="fill:white;"/>
            </g>
            <g id="Meta-Ring-and-Background" serif:id="Meta-Ring and Background" transform="matrix(-1.09813,0,0,-1.09813,1578.56,2249.66)">
                <g transform="matrix(0.545852,-0.945443,0.9537,0.550619,-641.299,1170.26)">
                    <ellipse cx="692" cy="1046" rx="458" ry="454" style="fill:none;stroke:black;stroke-width:0.46px;"/>
                </g>
                <g transform="matrix(0.5,-0.866025,0.629632,0.363518,-412.931,1316.59)">
                    <path d="M768,524.038L768,568" style="fill:none;stroke:black;stroke-width:0.57px;"/>
                </g>
                <g transform="matrix(0.5,-0.866025,0.629632,0.363518,425.349,1800.57)">
                    <path d="M768,524.038L768,568" style="fill:none;stroke:black;stroke-width:0.57px;"/>
                </g>
                <g transform="matrix(-0.866025,-0.5,0.363518,-0.629632,1442.63,1400.58)">
                    <path d="M768,524.038L768,568" style="fill:none;stroke:black;stroke-width:0.57px;"/>
                </g>
                <g transform="matrix(-0.866025,-0.5,0.363518,-0.629632,958.61,2238.93)">
                    <path d="M768,524.038L768,568" style="fill:none;stroke:black;stroke-width:0.57px;"/>
                </g>
                <g transform="matrix(0.866025,-0.5,0.363518,0.629632,-371.594,713.016)">
                    <path d="M768,524.038L768,568" style="fill:none;stroke:black;stroke-width:0.57px;"/>
                </g>
                <g transform="matrix(0.866025,-0.5,0.363518,0.629632,112.404,1551.33)">
                    <path d="M768,524.038L768,568" style="fill:none;stroke:black;stroke-width:0.57px;"/>
                </g>
                <g transform="matrix(-0.5,-0.866025,0.629632,-0.363518,1193.38,1713.55)">
                    <path d="M768,524.038L768,568" style="fill:none;stroke:black;stroke-width:0.57px;"/>
                </g>
                <g transform="matrix(-0.5,-0.866025,0.629632,-0.363518,355.038,2197.57)">
                    <path d="M768,524.038L768,568" style="fill:none;stroke:black;stroke-width:0.57px;"/>
                </g>
                <g transform="matrix(1,0,0,0.727036,-34,210.969)">
                    <path d="M768,524.038L768,568" style="fill:none;stroke:black;stroke-width:0.57px;"/>
                </g>
                <g transform="matrix(1,0,0,0.727036,-34,1179)">
                    <path d="M768,524.038L768,568" style="fill:none;stroke:black;stroke-width:0.57px;"/>
                </g>
                <g transform="matrix(6.12323e-17,-1,0.727036,4.45181e-17,821.022,1859.96)">
                    <path d="M768,524.038L768,568" style="fill:none;stroke:black;stroke-width:0.57px;"/>
                </g>
                <g transform="matrix(6.12323e-17,-1,0.727036,4.45181e-17,-146.974,1859.96)">
                    <path d="M768,524.038L768,568" style="fill:none;stroke:black;stroke-width:0.57px;"/>
                </g>
            </g>
            <g transform="matrix(-1.01086,0.583619,-0.521096,-0.902565,2049.42,1545.7)">
                <g id="Root-Markers" serif:id="Root Markers">
                    <path id="_5" serif:id="5" d="M731.999,618L768,730L695.999,730L731.999,618ZM731.999,680.84L740.959,708.715C740.959,708.715 723.04,708.715 723.04,708.715L731.999,680.84Z"/>
                </g>
            </g>
            <g transform="matrix(-1.09813,0,0,-1.09811,1579.66,2245.28)">
                <g transform="matrix(0.545852,-0.945443,0.9537,0.550619,-641.299,1170.26)">
                    <ellipse cx="692" cy="1046" rx="458" ry="454" style="fill:none;stroke:black;stroke-width:8.31px;stroke-linecap:round;"/>
                </g>
                <g transform="matrix(0.5,-0.866025,0.629632,0.363518,-412.931,1316.59)">
                    <path d="M768,524.038L768,568" style="fill:none;stroke:black;stroke-width:10.42px;stroke-linecap:round;"/>
                </g>
                <g transform="matrix(0.5,-0.866025,0.629632,0.363518,425.349,1800.57)">
                    <path d="M768,524.038L768,568" style="fill:none;stroke:black;stroke-width:10.42px;stroke-linecap:round;"/>
                </g>
                <g transform="matrix(-0.866025,-0.5,0.363518,-0.629632,1442.63,1400.58)">
                    <path d="M768,524.038L768,568" style="fill:none;stroke:black;stroke-width:10.42px;stroke-linecap:round;"/>
                </g>
                <g transform="matrix(-0.866025,-0.5,0.363518,-0.629632,958.61,2238.93)">
                    <path d="M768,524.038L768,568" style="fill:none;stroke:black;stroke-width:10.42px;stroke-linecap:round;"/>
                </g>
                <g transform="matrix(0.866025,-0.5,0.363518,0.629632,-371.594,713.016)">
                    <path d="M768,524.038L768,568" style="fill:none;stroke:black;stroke-width:10.42px;stroke-linecap:round;"/>
                </g>
                <g transform="matrix(0.866025,-0.5,0.363518,0.629632,112.404,1551.33)">
                    <path d="M768,524.038L768,568" style="fill:none;stroke:black;stroke-width:10.42px;stroke-linecap:round;"/>
                </g>
                <g transform="matrix(-0.5,-0.866025,0.629632,-0.363518,1193.38,1713.55)">
                    <path d="M768,524.038L768,568" style="fill:none;stroke:black;stroke-width:10.42px;stroke-linecap:round;"/>
                </g>
                <g transform="matrix(-0.5,-0.866025,0.629632,-0.363518,355.038,2197.57)">
                    <path d="M768,524.038L768,568" style="fill:none;stroke:black;stroke-width:10.42px;stroke-linecap:round;"/>
                </g>
                <g transform="matrix(1,0,0,0.727036,-34,210.969)">
                    <path d="M768,524.038L768,568" style="fill:none;stroke:black;stroke-width:10.42px;stroke-linecap:round;"/>
                </g>
                <g transform="matrix(1,0,0,0.727036,-34,1179)">
                    <path d="M768,524.038L768,568" style="fill:none;stroke:black;stroke-width:10.42px;stroke-linecap:round;"/>
                </g>
                <g transform="matrix(6.12323e-17,-1,0.727036,4.45181e-17,821.022,1859.96)">
                    <path d="M768,524.038L768,568" style="fill:none;stroke:black;stroke-width:10.42px;stroke-linecap:round;"/>
                </g>
                <g transform="matrix(6.12323e-17,-1,0.727036,4.45181e-17,-146.974,1859.96)">
                    <path d="M768,524.038L768,568" style="fill:none;stroke:black;stroke-width:10.42px;stroke-linecap:round;"/>
                </g>
            </g>
            <g id="_8" serif:id="8" transform="matrix(-1.39762,2.4207,-2.45799,-1.41909,2664.62,218.751)">
                <ellipse cx="766" cy="526.5" rx="33" ry="32.5" style="fill:rgb(255,176,46);stroke:white;stroke-width:8.52px;stroke-linecap:round;"/>
            </g>
            <g id="_51" serif:id="5" transform="matrix(-1.39762,2.4207,-2.45799,-1.41909,3411.9,417.908)">
                <ellipse cx="766" cy="526.5" rx="33" ry="32.5" style="fill:rgb(255,176,46);stroke:white;stroke-width:8.52px;stroke-linecap:round;"/>
            </g>
            <g id="_4" serif:id="4" transform="matrix(-1.39762,2.4207,-2.45799,-1.41909,3610.11,216.565)">
                <ellipse cx="766" cy="526.5" rx="33" ry="32.5" style="fill:rgb(255,176,46);stroke:white;stroke-width:8.52px;stroke-linecap:round;"/>
            </g>
            <g id="_0" serif:id="0" transform="matrix(-1.39762,2.4207,-2.45799,-1.41909,3138.34,-603.96)">
                <ellipse cx="766" cy="526.5" rx="33" ry="32.5" style="fill:rgb(255,176,46);stroke:white;stroke-width:8.52px;stroke-linecap:round;"/>
            </g>
        </g>
		</a>
        <g id="Text">
            <g transform="matrix(1,0,0,1,133,123.031)">
                <g transform="matrix(250,0,0,250,1500.59,478.158)">
                    <path d="M0.376,-0.689L0.339,-0.683C0.352,-0.711 0.365,-0.729 0.378,-0.737C0.389,-0.743 0.401,-0.747 0.413,-0.747C0.438,-0.747 0.457,-0.737 0.472,-0.718C0.48,-0.707 0.484,-0.693 0.484,-0.678C0.484,-0.665 0.483,-0.65 0.481,-0.632C0.456,-0.584 0.437,-0.547 0.423,-0.522C0.405,-0.49 0.396,-0.463 0.396,-0.444C0.396,-0.435 0.411,-0.423 0.441,-0.408C0.467,-0.396 0.48,-0.38 0.48,-0.36C0.48,-0.353 0.478,-0.347 0.472,-0.344C0.472,-0.344 0.459,-0.34 0.435,-0.334C0.426,-0.332 0.416,-0.326 0.405,-0.315C0.48,-0.316 0.536,-0.328 0.573,-0.349C0.601,-0.365 0.633,-0.41 0.67,-0.485C0.643,-0.481 0.625,-0.477 0.617,-0.473L0.543,-0.443C0.541,-0.442 0.537,-0.442 0.532,-0.442C0.52,-0.442 0.509,-0.447 0.5,-0.457C0.492,-0.466 0.488,-0.477 0.488,-0.491C0.488,-0.499 0.49,-0.506 0.494,-0.514C0.495,-0.516 0.504,-0.526 0.522,-0.544C0.53,-0.552 0.543,-0.579 0.563,-0.625C0.575,-0.655 0.581,-0.675 0.581,-0.686C0.581,-0.692 0.578,-0.695 0.571,-0.695C0.568,-0.695 0.565,-0.695 0.561,-0.694C0.587,-0.727 0.612,-0.744 0.636,-0.744C0.654,-0.744 0.669,-0.737 0.681,-0.724C0.693,-0.709 0.699,-0.693 0.699,-0.675C0.699,-0.654 0.694,-0.635 0.684,-0.616C0.674,-0.597 0.66,-0.576 0.645,-0.554C0.67,-0.563 0.692,-0.567 0.709,-0.567C0.729,-0.567 0.745,-0.56 0.759,-0.545C0.769,-0.534 0.774,-0.523 0.774,-0.511C0.774,-0.499 0.77,-0.483 0.762,-0.465C0.759,-0.46 0.73,-0.413 0.672,-0.323C0.758,-0.296 0.808,-0.28 0.823,-0.275C0.838,-0.27 0.847,-0.266 0.851,-0.263C0.888,-0.232 0.906,-0.201 0.906,-0.171C0.906,-0.155 0.901,-0.143 0.891,-0.136C0.888,-0.134 0.886,-0.133 0.886,-0.133L0.829,-0.147C0.796,-0.155 0.779,-0.16 0.778,-0.16L0.801,-0.173C0.796,-0.179 0.793,-0.181 0.792,-0.181C0.791,-0.181 0.788,-0.179 0.784,-0.175C0.771,-0.187 0.76,-0.195 0.753,-0.199C0.745,-0.203 0.732,-0.208 0.713,-0.214C0.702,-0.218 0.658,-0.229 0.578,-0.248L0.443,-0.178C0.393,-0.164 0.368,-0.156 0.367,-0.155C0.365,-0.151 0.363,-0.147 0.363,-0.143C0.363,-0.133 0.365,-0.121 0.369,-0.108C0.377,-0.075 0.389,-0.022 0.403,0.052C0.404,0.057 0.405,0.061 0.405,0.063C0.405,0.075 0.402,0.084 0.396,0.092C0.39,0.101 0.384,0.105 0.377,0.105C0.376,0.105 0.369,0.097 0.357,0.081L0.309,0.029C0.3,0.019 0.289,-0.004 0.277,-0.039L0.342,0.024L0.305,-0.124C0.289,-0.099 0.277,-0.083 0.27,-0.077C0.264,-0.07 0.25,-0.059 0.229,-0.045C0.189,-0.018 0.167,-0.005 0.163,-0.005C0.154,-0.005 0.146,-0.009 0.139,-0.017C0.13,-0.027 0.125,-0.039 0.125,-0.053C0.125,-0.062 0.126,-0.067 0.127,-0.069L0.222,-0.201L0.253,-0.268L0.276,-0.318C0.28,-0.326 0.285,-0.346 0.292,-0.376C0.244,-0.403 0.207,-0.437 0.179,-0.481C0.16,-0.512 0.149,-0.532 0.146,-0.543L0.134,-0.59L0.121,-0.632C0.121,-0.637 0.124,-0.641 0.13,-0.645C0.137,-0.65 0.143,-0.652 0.15,-0.652C0.164,-0.652 0.184,-0.641 0.21,-0.617C0.235,-0.595 0.257,-0.565 0.277,-0.526C0.287,-0.506 0.297,-0.495 0.306,-0.491C0.312,-0.488 0.316,-0.487 0.316,-0.487C0.317,-0.486 0.318,-0.486 0.318,-0.486C0.322,-0.486 0.326,-0.49 0.33,-0.497C0.333,-0.503 0.337,-0.521 0.342,-0.554C0.349,-0.598 0.361,-0.644 0.376,-0.689ZM0.495,-0.275C0.468,-0.283 0.444,-0.287 0.423,-0.287C0.408,-0.287 0.397,-0.281 0.389,-0.268C0.382,-0.255 0.376,-0.233 0.372,-0.201L0.365,-0.192C0.365,-0.189 0.37,-0.188 0.379,-0.188C0.397,-0.188 0.414,-0.192 0.429,-0.201C0.449,-0.212 0.471,-0.237 0.495,-0.275ZM0.47,-0.165C0.476,-0.138 0.484,-0.115 0.494,-0.096C0.496,-0.093 0.498,-0.09 0.501,-0.09C0.503,-0.089 0.504,-0.089 0.504,-0.088L0.504,-0.088L0.504,-0.088C0.508,-0.09 0.515,-0.103 0.527,-0.126C0.535,-0.142 0.551,-0.155 0.575,-0.165C0.599,-0.176 0.625,-0.181 0.654,-0.181C0.673,-0.181 0.69,-0.174 0.704,-0.158C0.715,-0.146 0.72,-0.134 0.72,-0.123C0.72,-0.117 0.719,-0.112 0.717,-0.108L0.671,-0.023C0.718,0.001 0.743,0.014 0.744,0.017C0.747,0.022 0.749,0.027 0.749,0.033C0.749,0.061 0.716,0.075 0.65,0.075C0.64,0.075 0.624,0.074 0.604,0.073C0.621,0.061 0.638,0.052 0.655,0.048C0.656,0.048 0.656,0.047 0.656,0.047L0.656,0.046C0.656,0.042 0.655,0.04 0.654,0.04C0.653,0.039 0.641,0.032 0.619,0.019C0.61,0.014 0.605,0.006 0.605,-0.005C0.605,-0.01 0.606,-0.016 0.608,-0.023C0.625,-0.078 0.633,-0.107 0.632,-0.109C0.631,-0.113 0.628,-0.116 0.622,-0.116C0.605,-0.116 0.587,-0.111 0.567,-0.102C0.56,-0.098 0.553,-0.089 0.548,-0.075C0.544,-0.064 0.542,-0.059 0.542,-0.058L0.543,-0.051L0.56,0.004C0.561,0.009 0.562,0.012 0.562,0.016C0.562,0.02 0.56,0.024 0.557,0.029C0.553,0.036 0.546,0.04 0.538,0.04C0.521,0.04 0.501,0.026 0.48,-0C0.45,-0.037 0.436,-0.073 0.436,-0.108C0.436,-0.13 0.447,-0.148 0.47,-0.165Z" style="fill:rgb(255,176,46);fill-rule:nonzero;"/>
                </g>
                <g transform="matrix(250,0,0,250,1500.59,778.158)">
                    <path d="M0.272,-0.295C0.242,-0.284 0.217,-0.279 0.197,-0.279C0.184,-0.279 0.172,-0.283 0.162,-0.292C0.146,-0.306 0.137,-0.325 0.137,-0.349C0.137,-0.373 0.143,-0.398 0.154,-0.426L0.192,-0.515C0.199,-0.531 0.21,-0.565 0.225,-0.617C0.247,-0.563 0.259,-0.524 0.259,-0.499C0.259,-0.473 0.251,-0.427 0.236,-0.36C0.277,-0.373 0.304,-0.388 0.318,-0.405C0.319,-0.407 0.339,-0.507 0.377,-0.705C0.379,-0.713 0.384,-0.721 0.394,-0.729C0.402,-0.737 0.412,-0.741 0.421,-0.741C0.429,-0.741 0.434,-0.738 0.438,-0.733C0.444,-0.727 0.447,-0.72 0.447,-0.713C0.447,-0.707 0.445,-0.701 0.442,-0.694C0.432,-0.668 0.426,-0.649 0.426,-0.639C0.426,-0.629 0.434,-0.616 0.448,-0.602C0.471,-0.58 0.484,-0.565 0.489,-0.559C0.494,-0.552 0.497,-0.544 0.497,-0.534C0.497,-0.502 0.476,-0.465 0.435,-0.423C0.41,-0.399 0.395,-0.38 0.39,-0.368C0.387,-0.36 0.385,-0.346 0.385,-0.324C0.423,-0.368 0.458,-0.395 0.488,-0.404C0.509,-0.434 0.526,-0.462 0.537,-0.487C0.582,-0.584 0.604,-0.641 0.604,-0.658C0.604,-0.663 0.602,-0.666 0.596,-0.666C0.592,-0.666 0.587,-0.665 0.582,-0.664C0.601,-0.692 0.617,-0.708 0.63,-0.714C0.636,-0.716 0.643,-0.717 0.652,-0.717C0.704,-0.717 0.73,-0.697 0.73,-0.655C0.73,-0.637 0.726,-0.619 0.717,-0.601C0.708,-0.583 0.691,-0.556 0.665,-0.519C0.652,-0.501 0.638,-0.483 0.625,-0.465C0.608,-0.445 0.585,-0.414 0.555,-0.372C0.634,-0.403 0.694,-0.418 0.735,-0.418C0.786,-0.418 0.825,-0.404 0.853,-0.375C0.871,-0.357 0.879,-0.337 0.879,-0.314C0.879,-0.268 0.865,-0.211 0.835,-0.145C0.817,-0.102 0.804,-0.074 0.796,-0.062C0.789,-0.05 0.775,-0.032 0.754,-0.009C0.714,0.034 0.691,0.06 0.683,0.067C0.676,0.074 0.669,0.078 0.664,0.078C0.643,0.078 0.626,0.06 0.613,0.022C0.599,-0.021 0.587,-0.043 0.579,-0.043C0.575,-0.043 0.571,-0.041 0.566,-0.037C0.528,-0.004 0.504,0.012 0.492,0.012C0.482,0.012 0.478,0.009 0.478,0.002C0.478,-0.004 0.49,-0.017 0.515,-0.036C0.542,-0.058 0.583,-0.123 0.64,-0.233C0.6,-0.207 0.573,-0.184 0.559,-0.164C0.53,-0.122 0.51,-0.101 0.5,-0.101C0.493,-0.101 0.487,-0.104 0.481,-0.111C0.478,-0.116 0.476,-0.122 0.476,-0.128C0.476,-0.137 0.477,-0.143 0.481,-0.148C0.534,-0.229 0.565,-0.276 0.575,-0.289C0.584,-0.303 0.591,-0.31 0.594,-0.31C0.609,-0.31 0.619,-0.295 0.624,-0.267C0.649,-0.29 0.667,-0.301 0.679,-0.301C0.688,-0.301 0.698,-0.298 0.709,-0.291C0.723,-0.282 0.729,-0.271 0.729,-0.259C0.729,-0.247 0.723,-0.226 0.709,-0.198C0.697,-0.171 0.685,-0.151 0.673,-0.139C0.631,-0.097 0.61,-0.076 0.61,-0.074L0.606,-0.061L0.613,-0.04C0.618,-0.026 0.629,-0.014 0.648,-0.003C0.654,0 0.659,0.002 0.664,0.002C0.67,0.002 0.679,-0.007 0.691,-0.023C0.695,-0.029 0.714,-0.062 0.749,-0.122C0.758,-0.137 0.765,-0.153 0.771,-0.17C0.788,-0.216 0.796,-0.257 0.796,-0.293C0.796,-0.31 0.788,-0.323 0.773,-0.332C0.755,-0.343 0.737,-0.349 0.72,-0.349C0.694,-0.349 0.657,-0.341 0.609,-0.327C0.537,-0.306 0.487,-0.286 0.458,-0.266C0.457,-0.265 0.456,-0.265 0.455,-0.265C0.452,-0.265 0.45,-0.266 0.447,-0.269C0.446,-0.27 0.443,-0.287 0.438,-0.32C0.438,-0.321 0.436,-0.322 0.433,-0.323L0.432,-0.324C0.431,-0.324 0.43,-0.323 0.426,-0.321C0.422,-0.319 0.41,-0.297 0.389,-0.254L0.404,0.04C0.404,0.043 0.399,0.048 0.39,0.055C0.382,0.061 0.375,0.064 0.368,0.064C0.358,0.064 0.345,0.061 0.331,0.054C0.29,0.035 0.263,0.023 0.251,0.019C0.193,-0.001 0.153,-0.022 0.132,-0.043C0.13,-0.045 0.129,-0.048 0.129,-0.052C0.129,-0.06 0.146,-0.079 0.18,-0.11C0.208,-0.136 0.245,-0.181 0.291,-0.245C0.31,-0.273 0.32,-0.292 0.32,-0.302C0.32,-0.312 0.316,-0.317 0.308,-0.317C0.305,-0.317 0.293,-0.31 0.272,-0.295ZM0.323,-0.18C0.299,-0.152 0.279,-0.132 0.265,-0.119C0.224,-0.083 0.204,-0.058 0.204,-0.044C0.204,-0.042 0.205,-0.04 0.207,-0.038C0.208,-0.036 0.21,-0.035 0.211,-0.035C0.235,-0.024 0.262,-0.018 0.292,-0.018C0.315,-0.018 0.327,-0.024 0.329,-0.036C0.329,-0.041 0.328,-0.05 0.327,-0.063C0.324,-0.097 0.323,-0.136 0.323,-0.18ZM0.383,-0.454C0.427,-0.483 0.449,-0.509 0.449,-0.531C0.449,-0.545 0.442,-0.561 0.427,-0.58C0.421,-0.588 0.416,-0.592 0.412,-0.592C0.406,-0.592 0.401,-0.588 0.395,-0.58C0.385,-0.566 0.38,-0.545 0.38,-0.515C0.38,-0.505 0.381,-0.485 0.383,-0.454Z" style="fill:rgb(255,176,46);fill-rule:nonzero;"/>
                </g>
                <g transform="matrix(250,0,0,250,1500.59,1078.16)">
                    <path d="M0.305,-0.517C0.278,-0.53 0.257,-0.539 0.242,-0.543C0.227,-0.548 0.218,-0.552 0.213,-0.556C0.213,-0.557 0.21,-0.561 0.206,-0.569C0.174,-0.597 0.157,-0.614 0.153,-0.619C0.138,-0.643 0.13,-0.668 0.13,-0.693C0.13,-0.708 0.133,-0.715 0.141,-0.716C0.147,-0.716 0.179,-0.7 0.235,-0.667C0.257,-0.654 0.283,-0.644 0.314,-0.635C0.391,-0.614 0.437,-0.596 0.45,-0.581C0.457,-0.572 0.46,-0.564 0.46,-0.555C0.46,-0.542 0.453,-0.528 0.438,-0.512C0.434,-0.507 0.393,-0.482 0.315,-0.436C0.241,-0.372 0.201,-0.337 0.198,-0.329L0.195,-0.323C0.194,-0.321 0.194,-0.32 0.194,-0.319C0.194,-0.311 0.198,-0.307 0.208,-0.307L0.281,-0.324L0.282,-0.324C0.317,-0.39 0.336,-0.424 0.338,-0.426C0.348,-0.433 0.364,-0.437 0.385,-0.437C0.406,-0.437 0.421,-0.432 0.429,-0.421C0.437,-0.411 0.441,-0.4 0.441,-0.389C0.441,-0.368 0.431,-0.348 0.411,-0.329C0.405,-0.324 0.381,-0.308 0.338,-0.28C0.337,-0.28 0.336,-0.278 0.336,-0.276L0.336,-0.275C0.337,-0.274 0.337,-0.272 0.337,-0.271C0.337,-0.27 0.337,-0.269 0.336,-0.267C0.335,-0.261 0.335,-0.248 0.335,-0.23C0.335,-0.202 0.337,-0.181 0.341,-0.168C0.342,-0.164 0.345,-0.162 0.348,-0.162L0.352,-0.162C0.356,-0.162 0.375,-0.182 0.408,-0.222L0.41,-0.235C0.372,-0.239 0.352,-0.241 0.351,-0.243C0.349,-0.245 0.348,-0.246 0.348,-0.247C0.348,-0.247 0.348,-0.249 0.35,-0.251C0.351,-0.253 0.382,-0.259 0.443,-0.271L0.459,-0.274C0.462,-0.273 0.467,-0.266 0.475,-0.251C0.479,-0.245 0.483,-0.24 0.488,-0.238L0.517,-0.222L0.559,-0.193C0.562,-0.195 0.568,-0.206 0.576,-0.225C0.596,-0.27 0.606,-0.301 0.605,-0.316C0.605,-0.322 0.604,-0.327 0.602,-0.331C0.596,-0.341 0.588,-0.346 0.579,-0.346C0.575,-0.346 0.56,-0.339 0.535,-0.327C0.521,-0.319 0.509,-0.316 0.499,-0.316C0.491,-0.316 0.482,-0.321 0.473,-0.331C0.46,-0.345 0.453,-0.36 0.453,-0.375C0.453,-0.381 0.455,-0.387 0.458,-0.391L0.512,-0.477C0.515,-0.482 0.521,-0.498 0.53,-0.526C0.537,-0.548 0.544,-0.57 0.553,-0.593C0.565,-0.623 0.57,-0.648 0.57,-0.667C0.57,-0.676 0.568,-0.683 0.563,-0.69C0.559,-0.695 0.552,-0.698 0.544,-0.698C0.534,-0.698 0.522,-0.696 0.51,-0.694C0.55,-0.727 0.584,-0.744 0.609,-0.744C0.631,-0.744 0.648,-0.736 0.662,-0.721C0.674,-0.708 0.68,-0.691 0.68,-0.672L0.579,-0.431L0.579,-0.428C0.579,-0.427 0.58,-0.427 0.583,-0.428C0.587,-0.429 0.613,-0.441 0.66,-0.463C0.676,-0.471 0.693,-0.475 0.709,-0.475C0.735,-0.475 0.756,-0.465 0.772,-0.446L0.768,-0.414L0.743,-0.393C0.682,-0.365 0.651,-0.351 0.65,-0.35C0.645,-0.341 0.642,-0.326 0.641,-0.305C0.639,-0.258 0.634,-0.213 0.625,-0.168C0.623,-0.159 0.622,-0.151 0.622,-0.145C0.622,-0.137 0.632,-0.127 0.65,-0.114C0.685,-0.09 0.713,-0.074 0.733,-0.067L0.851,-0.022C0.881,-0.011 0.902,0.002 0.915,0.015C0.922,0.022 0.928,0.035 0.933,0.055C0.919,0.044 0.908,0.037 0.898,0.034C0.889,0.031 0.877,0.029 0.862,0.029C0.849,0.029 0.836,0.03 0.823,0.032C0.796,0.035 0.78,0.036 0.776,0.036C0.762,0.036 0.744,0.036 0.722,0.034C0.7,0.033 0.688,0.032 0.688,0.031L0.688,0.03C0.688,0.029 0.683,0.027 0.672,0.023C0.604,-0.028 0.567,-0.053 0.563,-0.053C0.563,-0.053 0.522,-0.021 0.443,0.042C0.387,0.054 0.355,0.061 0.345,0.061C0.336,0.061 0.326,0.054 0.315,0.04C0.346,0.036 0.369,0.032 0.385,0.027C0.4,0.022 0.415,0.014 0.429,0.003C0.466,-0.025 0.493,-0.055 0.51,-0.084C0.519,-0.099 0.523,-0.111 0.523,-0.121C0.523,-0.144 0.512,-0.168 0.489,-0.194C0.474,-0.211 0.463,-0.219 0.457,-0.218C0.453,-0.218 0.451,-0.218 0.45,-0.217C0.442,-0.215 0.432,-0.199 0.42,-0.171C0.397,-0.116 0.373,-0.074 0.348,-0.046C0.29,0.019 0.256,0.056 0.247,0.066C0.235,0.08 0.227,0.087 0.225,0.087L0.216,0.087C0.204,0.087 0.192,0.079 0.181,0.062C0.172,0.047 0.167,0.034 0.167,0.023C0.167,0.018 0.168,0.015 0.17,0.013C0.174,0.008 0.184,-0.001 0.202,-0.013C0.217,-0.023 0.233,-0.046 0.25,-0.079C0.219,-0.083 0.2,-0.092 0.192,-0.105C0.187,-0.117 0.184,-0.128 0.184,-0.139C0.184,-0.163 0.19,-0.184 0.204,-0.204C0.211,-0.213 0.219,-0.219 0.228,-0.221C0.229,-0.221 0.25,-0.223 0.291,-0.228L0.289,-0.265C0.252,-0.253 0.22,-0.248 0.192,-0.248C0.172,-0.248 0.155,-0.255 0.142,-0.27C0.134,-0.279 0.13,-0.288 0.13,-0.299C0.13,-0.324 0.148,-0.357 0.183,-0.399C0.202,-0.423 0.243,-0.462 0.305,-0.517ZM0.243,-0.136L0.249,-0.134L0.253,-0.133L0.267,-0.133L0.276,-0.169L0.276,-0.175C0.274,-0.18 0.271,-0.183 0.266,-0.185C0.263,-0.186 0.261,-0.187 0.26,-0.187C0.258,-0.187 0.256,-0.185 0.252,-0.182L0.25,-0.175L0.245,-0.163L0.243,-0.159C0.243,-0.153 0.242,-0.15 0.242,-0.147C0.242,-0.145 0.243,-0.141 0.243,-0.136ZM0.326,-0.347C0.329,-0.346 0.331,-0.346 0.333,-0.346C0.334,-0.346 0.336,-0.346 0.339,-0.347L0.362,-0.354L0.368,-0.357L0.38,-0.37C0.382,-0.373 0.383,-0.375 0.383,-0.376C0.383,-0.377 0.382,-0.379 0.38,-0.382L0.37,-0.393C0.365,-0.395 0.362,-0.396 0.359,-0.396C0.356,-0.396 0.351,-0.393 0.346,-0.389C0.339,-0.378 0.334,-0.367 0.332,-0.354L0.326,-0.348L0.326,-0.347Z" style="fill:rgb(255,176,46);fill-rule:nonzero;"/>
                </g>
                <g transform="matrix(250,0,0,250,1500.59,1378.16)">
                    <path d="M0.363,-0.601C0.36,-0.591 0.359,-0.583 0.359,-0.575C0.359,-0.571 0.361,-0.567 0.364,-0.561C0.366,-0.559 0.367,-0.559 0.367,-0.559L0.452,-0.575C0.492,-0.563 0.513,-0.555 0.516,-0.552C0.521,-0.545 0.524,-0.537 0.524,-0.528C0.524,-0.521 0.521,-0.513 0.516,-0.504C0.51,-0.495 0.504,-0.488 0.497,-0.482C0.483,-0.472 0.464,-0.464 0.44,-0.457L0.235,-0.4C0.206,-0.392 0.175,-0.372 0.142,-0.342C0.105,-0.308 0.087,-0.275 0.087,-0.242C0.087,-0.233 0.09,-0.226 0.096,-0.222C0.102,-0.218 0.107,-0.216 0.113,-0.216C0.114,-0.216 0.133,-0.221 0.169,-0.23L0.22,-0.248C0.276,-0.267 0.31,-0.278 0.32,-0.283C0.336,-0.29 0.347,-0.299 0.351,-0.31L0.399,-0.433C0.399,-0.434 0.403,-0.436 0.41,-0.438C0.411,-0.438 0.415,-0.437 0.423,-0.433C0.43,-0.43 0.445,-0.417 0.469,-0.396C0.494,-0.373 0.507,-0.361 0.508,-0.358C0.511,-0.353 0.512,-0.347 0.512,-0.341C0.512,-0.33 0.507,-0.319 0.498,-0.307C0.496,-0.305 0.462,-0.277 0.396,-0.223C0.384,-0.213 0.378,-0.202 0.378,-0.19C0.378,-0.182 0.38,-0.175 0.383,-0.169C0.385,-0.167 0.404,-0.154 0.441,-0.131L0.479,-0.105L0.503,-0.105C0.509,-0.22 0.512,-0.279 0.513,-0.281C0.515,-0.291 0.522,-0.3 0.532,-0.307C0.542,-0.314 0.552,-0.317 0.563,-0.317C0.586,-0.317 0.61,-0.297 0.635,-0.256C0.68,-0.313 0.717,-0.352 0.745,-0.374C0.773,-0.396 0.8,-0.407 0.827,-0.407C0.852,-0.407 0.875,-0.396 0.895,-0.375C0.909,-0.36 0.917,-0.342 0.917,-0.323C0.917,-0.317 0.915,-0.311 0.913,-0.305C0.91,-0.3 0.889,-0.265 0.848,-0.201C0.845,-0.196 0.844,-0.192 0.844,-0.189C0.844,-0.187 0.872,-0.171 0.929,-0.142C0.938,-0.138 0.942,-0.129 0.942,-0.117C0.942,-0.105 0.937,-0.096 0.926,-0.087C0.916,-0.08 0.906,-0.077 0.895,-0.077L0.822,-0.079C0.799,-0.079 0.767,-0.074 0.726,-0.063L0.826,-0.116C0.782,-0.139 0.761,-0.167 0.761,-0.198C0.761,-0.205 0.762,-0.214 0.766,-0.227C0.776,-0.264 0.786,-0.291 0.798,-0.308C0.799,-0.309 0.799,-0.309 0.799,-0.31L0.798,-0.312C0.795,-0.322 0.79,-0.327 0.784,-0.327C0.779,-0.327 0.769,-0.321 0.753,-0.31C0.728,-0.292 0.712,-0.271 0.705,-0.249C0.704,-0.246 0.699,-0.22 0.69,-0.169C0.689,-0.162 0.682,-0.155 0.669,-0.149C0.657,-0.142 0.644,-0.139 0.632,-0.139C0.619,-0.139 0.607,-0.144 0.595,-0.155C0.589,-0.161 0.585,-0.166 0.583,-0.171L0.546,-0.252C0.544,-0.256 0.542,-0.258 0.538,-0.258C0.532,-0.258 0.529,-0.256 0.529,-0.253L0.543,-0.05L0.542,-0.049C0.528,-0.028 0.508,-0.017 0.483,-0.017C0.474,-0.017 0.465,-0.02 0.457,-0.026C0.455,-0.027 0.423,-0.058 0.358,-0.12C0.335,-0.083 0.32,-0.06 0.314,-0.052C0.308,-0.044 0.298,-0.035 0.286,-0.024C0.276,-0.016 0.231,0.015 0.151,0.068C0.146,0.066 0.138,0.054 0.127,0.034C0.131,0.035 0.133,0.036 0.135,0.036C0.144,0.036 0.17,0.012 0.214,-0.037C0.236,-0.06 0.251,-0.078 0.259,-0.089C0.276,-0.111 0.297,-0.146 0.321,-0.194C0.225,-0.151 0.16,-0.129 0.126,-0.129C0.104,-0.129 0.085,-0.138 0.069,-0.155C0.055,-0.171 0.047,-0.191 0.047,-0.213C0.047,-0.237 0.053,-0.259 0.065,-0.28C0.081,-0.31 0.104,-0.335 0.133,-0.354C0.229,-0.419 0.277,-0.453 0.279,-0.456C0.28,-0.459 0.281,-0.461 0.281,-0.461L0.245,-0.543L0.27,-0.702L0.256,-0.758L0.331,-0.747C0.354,-0.733 0.366,-0.705 0.366,-0.663C0.366,-0.645 0.365,-0.624 0.363,-0.601ZM0.414,-0.316C0.424,-0.316 0.435,-0.318 0.445,-0.322C0.451,-0.327 0.455,-0.333 0.458,-0.341C0.455,-0.348 0.451,-0.353 0.447,-0.358L0.445,-0.36L0.44,-0.363L0.435,-0.366L0.432,-0.366C0.428,-0.364 0.425,-0.361 0.423,-0.358L0.417,-0.346L0.414,-0.331L0.414,-0.316Z" style="fill:rgb(255,176,46);fill-rule:nonzero;"/>
                </g>
            </g>
            <g transform="matrix(1,0,0,1,126,-67.3764)">
                <g transform="matrix(75,0,0,75,1500.59,1765.71)">
                    <path d="M0.295,-0.14C0.321,-0.136 0.347,-0.138 0.374,-0.145C0.401,-0.152 0.426,-0.161 0.45,-0.17C0.46,-0.174 0.47,-0.178 0.481,-0.182C0.492,-0.186 0.503,-0.19 0.514,-0.193C0.535,-0.206 0.554,-0.222 0.57,-0.241C0.585,-0.26 0.594,-0.281 0.595,-0.306C0.578,-0.287 0.559,-0.27 0.538,-0.257C0.517,-0.244 0.495,-0.237 0.474,-0.237C0.446,-0.237 0.424,-0.246 0.407,-0.265C0.391,-0.283 0.381,-0.309 0.376,-0.343C0.389,-0.336 0.403,-0.332 0.416,-0.329C0.429,-0.326 0.441,-0.324 0.453,-0.324C0.476,-0.324 0.501,-0.328 0.526,-0.337C0.551,-0.346 0.574,-0.359 0.595,-0.378L0.595,-0.411C0.582,-0.401 0.567,-0.392 0.551,-0.385C0.535,-0.378 0.52,-0.372 0.505,-0.368C0.513,-0.373 0.519,-0.379 0.524,-0.385C0.529,-0.39 0.533,-0.395 0.536,-0.399C0.547,-0.413 0.544,-0.418 0.529,-0.415C0.518,-0.412 0.505,-0.409 0.492,-0.406C0.478,-0.404 0.464,-0.4 0.45,-0.397C0.435,-0.393 0.421,-0.389 0.406,-0.384C0.392,-0.379 0.379,-0.374 0.366,-0.368L0.231,-0.204C0.212,-0.181 0.192,-0.164 0.172,-0.155C0.152,-0.145 0.133,-0.14 0.114,-0.141C0.093,-0.142 0.075,-0.149 0.062,-0.163C0.048,-0.176 0.037,-0.193 0.03,-0.213C0.039,-0.212 0.048,-0.213 0.059,-0.216C0.069,-0.219 0.079,-0.222 0.089,-0.227C0.099,-0.232 0.109,-0.237 0.118,-0.244C0.127,-0.251 0.136,-0.258 0.143,-0.265L0.337,-0.465C0.328,-0.464 0.319,-0.462 0.311,-0.46C0.302,-0.457 0.294,-0.455 0.285,-0.453C0.268,-0.448 0.252,-0.444 0.237,-0.441C0.222,-0.438 0.206,-0.436 0.191,-0.436C0.17,-0.436 0.15,-0.446 0.132,-0.465C0.113,-0.484 0.101,-0.513 0.096,-0.553C0.118,-0.546 0.135,-0.543 0.148,-0.543C0.166,-0.543 0.185,-0.546 0.205,-0.551C0.226,-0.556 0.245,-0.562 0.264,-0.569C0.287,-0.577 0.312,-0.585 0.338,-0.592C0.363,-0.599 0.389,-0.603 0.416,-0.603C0.427,-0.603 0.437,-0.602 0.448,-0.601C0.458,-0.6 0.467,-0.597 0.475,-0.593C0.483,-0.589 0.49,-0.583 0.495,-0.576C0.5,-0.569 0.502,-0.559 0.502,-0.547C0.502,-0.532 0.499,-0.52 0.492,-0.51C0.485,-0.501 0.476,-0.494 0.465,-0.489L0.447,-0.467C0.467,-0.479 0.488,-0.489 0.508,-0.496C0.53,-0.503 0.55,-0.507 0.571,-0.507C0.576,-0.507 0.58,-0.507 0.584,-0.506C0.588,-0.505 0.592,-0.504 0.595,-0.503L0.595,-0.589C0.595,-0.626 0.582,-0.658 0.556,-0.683C0.529,-0.708 0.494,-0.727 0.451,-0.742C0.475,-0.747 0.499,-0.752 0.523,-0.755C0.546,-0.758 0.567,-0.76 0.584,-0.76C0.604,-0.76 0.624,-0.758 0.643,-0.755C0.662,-0.752 0.678,-0.746 0.693,-0.737C0.708,-0.728 0.72,-0.717 0.729,-0.703C0.738,-0.689 0.742,-0.671 0.742,-0.65C0.742,-0.643 0.742,-0.637 0.742,-0.633C0.741,-0.629 0.74,-0.625 0.739,-0.621C0.738,-0.615 0.736,-0.608 0.735,-0.599C0.734,-0.59 0.733,-0.578 0.733,-0.561L0.733,-0.352C0.733,-0.319 0.723,-0.292 0.702,-0.27C0.681,-0.247 0.654,-0.228 0.621,-0.213C0.626,-0.214 0.632,-0.214 0.638,-0.215C0.644,-0.215 0.65,-0.215 0.656,-0.215C0.676,-0.215 0.691,-0.213 0.701,-0.21C0.711,-0.206 0.718,-0.201 0.722,-0.194C0.726,-0.187 0.728,-0.18 0.727,-0.171C0.726,-0.162 0.725,-0.152 0.723,-0.141C0.722,-0.136 0.721,-0.13 0.72,-0.125C0.719,-0.12 0.719,-0.114 0.719,-0.109L0.719,0.038C0.719,0.073 0.709,0.099 0.689,0.118C0.669,0.137 0.64,0.147 0.603,0.147C0.582,0.147 0.563,0.142 0.546,0.132C0.529,0.123 0.516,0.111 0.505,0.097C0.528,0.1 0.548,0.099 0.563,0.093C0.578,0.088 0.586,0.078 0.586,0.063L0.586,-0.113C0.572,-0.112 0.557,-0.108 0.542,-0.102C0.526,-0.096 0.511,-0.09 0.497,-0.084C0.48,-0.077 0.462,-0.07 0.445,-0.064C0.427,-0.057 0.409,-0.054 0.391,-0.054C0.368,-0.054 0.346,-0.062 0.328,-0.078C0.309,-0.094 0.298,-0.115 0.295,-0.14Z" style="fill:rgb(255,176,46);fill-rule:nonzero;"/>
                </g>
                <g transform="matrix(75,0,0,75,1562.84,1765.71)">
                    <path d="M0.584,-0.027C0.583,-0.027 0.583,-0.027 0.582,-0.027C0.581,-0.026 0.581,-0.026 0.58,-0.026C0.561,-0.022 0.542,-0.017 0.522,-0.012C0.502,-0.006 0.484,-0 0.467,0.006C0.45,0.012 0.437,0.018 0.426,0.023C0.415,0.029 0.41,0.034 0.41,0.038C0.41,0.039 0.413,0.039 0.419,0.039C0.425,0.039 0.433,0.039 0.442,0.039C0.457,0.039 0.475,0.038 0.496,0.036C0.517,0.034 0.537,0.031 0.557,0.028C0.577,0.025 0.595,0.022 0.611,0.019C0.627,0.016 0.639,0.013 0.646,0.011C0.669,0.004 0.687,0.005 0.701,0.013C0.714,0.022 0.722,0.034 0.725,0.049C0.728,0.068 0.726,0.083 0.717,0.094C0.708,0.105 0.694,0.114 0.676,0.119C0.663,0.123 0.649,0.126 0.632,0.129C0.615,0.132 0.598,0.135 0.581,0.136C0.564,0.137 0.547,0.138 0.53,0.139C0.513,0.14 0.498,0.14 0.485,0.14C0.434,0.14 0.394,0.134 0.365,0.122C0.335,0.111 0.32,0.092 0.32,0.067C0.32,0.055 0.327,0.043 0.342,0.032C0.357,0.021 0.375,0.01 0.397,0.001C0.393,0.001 0.39,0.001 0.389,0.002C0.37,0.005 0.353,0.001 0.338,-0.011C0.323,-0.023 0.311,-0.043 0.304,-0.07C0.335,-0.067 0.362,-0.068 0.385,-0.073C0.407,-0.078 0.431,-0.084 0.456,-0.091C0.465,-0.094 0.474,-0.096 0.483,-0.099C0.492,-0.101 0.502,-0.103 0.511,-0.106C0.516,-0.111 0.522,-0.116 0.528,-0.122C0.534,-0.127 0.54,-0.133 0.545,-0.138C0.554,-0.149 0.552,-0.154 0.539,-0.152C0.526,-0.151 0.511,-0.147 0.495,-0.142C0.479,-0.137 0.463,-0.131 0.448,-0.126C0.433,-0.121 0.419,-0.116 0.406,-0.113C0.393,-0.11 0.384,-0.108 0.377,-0.108C0.356,-0.107 0.337,-0.113 0.32,-0.128C0.303,-0.142 0.291,-0.163 0.283,-0.191C0.308,-0.188 0.333,-0.189 0.358,-0.194C0.382,-0.198 0.406,-0.204 0.43,-0.211C0.441,-0.218 0.45,-0.226 0.457,-0.234C0.463,-0.244 0.466,-0.253 0.466,-0.262C0.466,-0.27 0.463,-0.279 0.457,-0.288C0.421,-0.283 0.386,-0.278 0.352,-0.271C0.318,-0.264 0.285,-0.257 0.253,-0.249C0.24,-0.246 0.224,-0.242 0.205,-0.237C0.187,-0.232 0.171,-0.23 0.157,-0.23C0.136,-0.23 0.118,-0.234 0.103,-0.243C0.088,-0.251 0.075,-0.262 0.065,-0.276C0.054,-0.29 0.046,-0.306 0.041,-0.325C0.035,-0.344 0.032,-0.363 0.031,-0.383C0.051,-0.362 0.076,-0.348 0.106,-0.342C0.135,-0.335 0.167,-0.332 0.201,-0.332L0.226,-0.332C0.234,-0.332 0.242,-0.332 0.251,-0.333C0.292,-0.341 0.334,-0.354 0.376,-0.372C0.417,-0.39 0.454,-0.409 0.485,-0.429C0.472,-0.43 0.458,-0.431 0.445,-0.432C0.432,-0.433 0.418,-0.435 0.404,-0.437C0.398,-0.426 0.39,-0.418 0.38,-0.414C0.369,-0.41 0.36,-0.408 0.353,-0.408C0.335,-0.408 0.321,-0.412 0.311,-0.42C0.3,-0.427 0.295,-0.439 0.295,-0.454L0.295,-0.62C0.295,-0.651 0.291,-0.674 0.283,-0.688C0.276,-0.701 0.263,-0.712 0.245,-0.72C0.26,-0.722 0.276,-0.723 0.292,-0.724C0.307,-0.724 0.322,-0.723 0.336,-0.72C0.35,-0.717 0.363,-0.713 0.375,-0.708C0.386,-0.702 0.395,-0.694 0.402,-0.684C0.419,-0.693 0.438,-0.701 0.458,-0.708C0.478,-0.715 0.498,-0.722 0.518,-0.728C0.537,-0.733 0.556,-0.738 0.574,-0.741C0.591,-0.744 0.607,-0.746 0.62,-0.746C0.651,-0.746 0.674,-0.74 0.687,-0.728C0.7,-0.716 0.707,-0.698 0.706,-0.675C0.705,-0.66 0.701,-0.64 0.694,-0.615C0.686,-0.59 0.677,-0.567 0.667,-0.545C0.68,-0.544 0.691,-0.541 0.701,-0.535C0.71,-0.528 0.715,-0.517 0.714,-0.5C0.713,-0.489 0.707,-0.477 0.696,-0.467C0.685,-0.456 0.669,-0.447 0.648,-0.442C0.627,-0.437 0.605,-0.433 0.58,-0.431C0.567,-0.426 0.553,-0.42 0.54,-0.413C0.527,-0.407 0.513,-0.401 0.5,-0.394C0.48,-0.385 0.459,-0.376 0.438,-0.368C0.417,-0.359 0.395,-0.352 0.373,-0.345C0.379,-0.346 0.385,-0.347 0.391,-0.347C0.397,-0.348 0.403,-0.349 0.409,-0.35C0.43,-0.353 0.453,-0.356 0.477,-0.36C0.502,-0.364 0.526,-0.368 0.551,-0.373C0.576,-0.378 0.6,-0.383 0.624,-0.389C0.648,-0.394 0.671,-0.4 0.692,-0.407C0.701,-0.41 0.716,-0.414 0.736,-0.418C0.755,-0.421 0.775,-0.423 0.795,-0.423C0.807,-0.423 0.819,-0.422 0.83,-0.421C0.841,-0.419 0.85,-0.416 0.859,-0.412C0.868,-0.408 0.875,-0.403 0.879,-0.396C0.884,-0.389 0.887,-0.379 0.887,-0.368C0.887,-0.354 0.883,-0.343 0.876,-0.334C0.87,-0.325 0.861,-0.318 0.85,-0.313C0.839,-0.308 0.826,-0.304 0.813,-0.302C0.8,-0.3 0.787,-0.3 0.774,-0.301C0.759,-0.302 0.744,-0.303 0.731,-0.304C0.718,-0.304 0.703,-0.304 0.687,-0.304C0.669,-0.304 0.651,-0.304 0.632,-0.303C0.614,-0.302 0.596,-0.301 0.577,-0.3C0.586,-0.291 0.59,-0.281 0.59,-0.268C0.59,-0.261 0.588,-0.255 0.585,-0.248C0.596,-0.25 0.607,-0.251 0.62,-0.251C0.639,-0.251 0.657,-0.248 0.672,-0.241C0.687,-0.234 0.695,-0.221 0.696,-0.202C0.697,-0.189 0.693,-0.175 0.684,-0.162C0.675,-0.148 0.661,-0.135 0.644,-0.122C0.673,-0.119 0.687,-0.107 0.687,-0.086C0.687,-0.08 0.686,-0.074 0.683,-0.068C0.68,-0.062 0.675,-0.056 0.668,-0.051C0.66,-0.046 0.649,-0.041 0.636,-0.037C0.623,-0.033 0.605,-0.03 0.584,-0.027ZM0.567,-0.64C0.542,-0.636 0.515,-0.629 0.488,-0.621C0.46,-0.612 0.435,-0.602 0.413,-0.593L0.413,-0.508C0.428,-0.509 0.445,-0.511 0.462,-0.513C0.478,-0.515 0.495,-0.517 0.512,-0.52C0.525,-0.524 0.535,-0.529 0.541,-0.536C0.546,-0.543 0.55,-0.55 0.552,-0.557C0.555,-0.57 0.558,-0.583 0.561,-0.595C0.564,-0.607 0.566,-0.622 0.567,-0.64Z" style="fill:rgb(255,176,46);fill-rule:nonzero;"/>
                </g>
                <g transform="matrix(75,0,0,75,1631.84,1765.71)">
                    <path d="M0.595,-0.589C0.595,-0.662 0.547,-0.713 0.451,-0.742C0.475,-0.747 0.499,-0.752 0.523,-0.755C0.546,-0.758 0.567,-0.76 0.584,-0.76C0.604,-0.76 0.624,-0.758 0.643,-0.755C0.662,-0.752 0.678,-0.746 0.693,-0.737C0.708,-0.728 0.72,-0.717 0.729,-0.703C0.738,-0.689 0.742,-0.671 0.742,-0.65C0.742,-0.643 0.742,-0.636 0.741,-0.63C0.74,-0.625 0.739,-0.619 0.738,-0.612C0.737,-0.605 0.736,-0.598 0.735,-0.59C0.734,-0.582 0.733,-0.572 0.733,-0.561L0.733,0.038C0.733,0.073 0.722,0.099 0.701,0.118C0.68,0.137 0.65,0.147 0.613,0.147C0.592,0.147 0.573,0.141 0.556,0.13C0.539,0.119 0.525,0.108 0.515,0.097C0.54,0.099 0.56,0.097 0.574,0.092C0.588,0.087 0.595,0.078 0.595,0.063L0.595,-0.589ZM0.39,-0.553C0.39,-0.546 0.388,-0.538 0.385,-0.528C0.382,-0.518 0.376,-0.507 0.368,-0.496C0.371,-0.497 0.374,-0.497 0.377,-0.497L0.386,-0.497C0.396,-0.497 0.406,-0.497 0.414,-0.496C0.424,-0.495 0.432,-0.492 0.439,-0.489C0.446,-0.485 0.452,-0.48 0.457,-0.472C0.461,-0.466 0.463,-0.456 0.463,-0.445C0.463,-0.434 0.461,-0.425 0.456,-0.418C0.451,-0.41 0.444,-0.404 0.436,-0.399L0.349,-0.293C0.35,-0.292 0.35,-0.292 0.351,-0.292C0.364,-0.286 0.379,-0.277 0.398,-0.266C0.417,-0.254 0.435,-0.241 0.452,-0.226C0.454,-0.224 0.457,-0.223 0.461,-0.223C0.465,-0.222 0.469,-0.224 0.474,-0.229C0.48,-0.235 0.487,-0.245 0.496,-0.259C0.504,-0.273 0.513,-0.29 0.524,-0.31C0.517,-0.273 0.511,-0.243 0.506,-0.219C0.501,-0.194 0.5,-0.176 0.501,-0.164C0.504,-0.145 0.504,-0.128 0.499,-0.113C0.494,-0.098 0.48,-0.088 0.457,-0.084C0.44,-0.081 0.426,-0.084 0.416,-0.093C0.405,-0.102 0.398,-0.112 0.393,-0.123C0.39,-0.132 0.386,-0.142 0.381,-0.155C0.376,-0.168 0.37,-0.18 0.365,-0.192C0.359,-0.204 0.353,-0.215 0.348,-0.225C0.343,-0.235 0.338,-0.242 0.334,-0.246C0.327,-0.252 0.318,-0.25 0.306,-0.24L0.205,-0.117C0.19,-0.098 0.173,-0.083 0.155,-0.072C0.136,-0.061 0.115,-0.054 0.094,-0.052C0.08,-0.051 0.065,-0.052 0.05,-0.056C0.035,-0.06 0.02,-0.069 0.007,-0.082C0.028,-0.087 0.047,-0.097 0.063,-0.114C0.078,-0.13 0.092,-0.146 0.105,-0.161L0.276,-0.366C0.263,-0.363 0.25,-0.361 0.237,-0.359C0.224,-0.357 0.21,-0.356 0.195,-0.356C0.174,-0.356 0.156,-0.364 0.14,-0.379C0.124,-0.394 0.114,-0.42 0.109,-0.456C0.118,-0.453 0.127,-0.451 0.136,-0.45C0.145,-0.449 0.152,-0.449 0.157,-0.449C0.17,-0.449 0.183,-0.451 0.196,-0.454C0.209,-0.457 0.223,-0.46 0.237,-0.464C0.246,-0.469 0.252,-0.475 0.255,-0.481C0.258,-0.487 0.259,-0.494 0.258,-0.503C0.257,-0.514 0.252,-0.524 0.243,-0.531C0.234,-0.538 0.221,-0.543 0.204,-0.548C0.221,-0.561 0.24,-0.571 0.262,-0.58C0.284,-0.589 0.305,-0.593 0.324,-0.593C0.33,-0.593 0.337,-0.593 0.344,-0.592C0.352,-0.591 0.359,-0.589 0.366,-0.586C0.373,-0.583 0.378,-0.579 0.383,-0.574C0.388,-0.569 0.39,-0.562 0.39,-0.553Z" style="fill:rgb(255,176,46);fill-rule:nonzero;"/>
                </g>
                <g transform="matrix(75,0,0,75,1694.09,1765.71)">
                    <path d="M0.595,-0.589C0.595,-0.662 0.547,-0.713 0.451,-0.742C0.475,-0.747 0.499,-0.752 0.523,-0.755C0.546,-0.758 0.567,-0.76 0.584,-0.76C0.604,-0.76 0.624,-0.758 0.643,-0.755C0.662,-0.752 0.678,-0.746 0.693,-0.737C0.708,-0.728 0.72,-0.717 0.729,-0.703C0.738,-0.689 0.742,-0.671 0.742,-0.65C0.742,-0.643 0.742,-0.636 0.741,-0.63C0.74,-0.625 0.739,-0.619 0.738,-0.612C0.737,-0.605 0.736,-0.598 0.735,-0.59C0.734,-0.582 0.733,-0.572 0.733,-0.561L0.733,0.038C0.733,0.073 0.722,0.099 0.701,0.118C0.68,0.137 0.65,0.147 0.613,0.147C0.592,0.147 0.573,0.141 0.556,0.13C0.539,0.119 0.525,0.108 0.515,0.097C0.54,0.099 0.56,0.097 0.574,0.092C0.588,0.087 0.595,0.078 0.595,0.063L0.595,-0.589ZM0.463,-0.485C0.463,-0.474 0.46,-0.464 0.455,-0.457C0.45,-0.45 0.443,-0.443 0.434,-0.438L0.343,-0.305C0.344,-0.304 0.347,-0.303 0.351,-0.302C0.364,-0.296 0.379,-0.287 0.398,-0.276C0.417,-0.264 0.435,-0.251 0.452,-0.236C0.454,-0.234 0.457,-0.233 0.461,-0.233C0.465,-0.232 0.469,-0.234 0.474,-0.239C0.48,-0.245 0.487,-0.255 0.496,-0.269C0.504,-0.283 0.513,-0.3 0.524,-0.32C0.517,-0.283 0.511,-0.253 0.506,-0.229C0.501,-0.204 0.5,-0.186 0.501,-0.174C0.504,-0.155 0.504,-0.138 0.499,-0.123C0.494,-0.108 0.48,-0.098 0.457,-0.094C0.44,-0.091 0.426,-0.094 0.416,-0.102C0.405,-0.112 0.398,-0.122 0.393,-0.133C0.39,-0.142 0.386,-0.152 0.381,-0.165C0.376,-0.178 0.37,-0.19 0.365,-0.202C0.359,-0.214 0.353,-0.225 0.348,-0.235C0.343,-0.245 0.338,-0.252 0.334,-0.256C0.329,-0.26 0.323,-0.26 0.317,-0.257C0.31,-0.253 0.303,-0.246 0.296,-0.237L0.199,-0.096C0.186,-0.077 0.169,-0.062 0.148,-0.051C0.127,-0.04 0.105,-0.033 0.084,-0.031C0.07,-0.03 0.055,-0.031 0.04,-0.035C0.025,-0.039 0.01,-0.048 -0.003,-0.061C0.008,-0.063 0.018,-0.067 0.028,-0.073C0.037,-0.078 0.046,-0.085 0.055,-0.092C0.064,-0.099 0.071,-0.107 0.079,-0.116C0.086,-0.124 0.092,-0.132 0.098,-0.14L0.288,-0.409C0.272,-0.406 0.257,-0.403 0.243,-0.4C0.228,-0.397 0.212,-0.396 0.195,-0.396C0.174,-0.396 0.156,-0.404 0.14,-0.419C0.124,-0.434 0.114,-0.46 0.109,-0.496C0.118,-0.493 0.127,-0.491 0.136,-0.49C0.145,-0.489 0.152,-0.489 0.157,-0.489C0.172,-0.489 0.188,-0.491 0.204,-0.496C0.22,-0.5 0.237,-0.505 0.254,-0.51C0.274,-0.516 0.295,-0.522 0.316,-0.528C0.337,-0.534 0.361,-0.537 0.386,-0.537C0.396,-0.537 0.406,-0.537 0.414,-0.536C0.424,-0.535 0.432,-0.532 0.439,-0.529C0.446,-0.525 0.452,-0.52 0.457,-0.513C0.461,-0.505 0.463,-0.496 0.463,-0.485Z" style="fill:rgb(255,176,46);fill-rule:nonzero;"/>
                </g>
            </g>
        </g>
    </g>
</svg>
