<?xml version="1.0" encoding="UTF-8" standalone="no"?>
<!DOCTYPE svg PUBLIC "-//W3C//DTD SVG 1.1//EN" "http://www.w3.org/Graphics/SVG/1.1/DTD/svg11.dtd">
<svg width="100%" height="100%" viewBox="0 0 2048 2732" version="1.1" xmlns="http://www.w3.org/2000/svg" xmlns:xlink="http://www.w3.org/1999/xlink" xml:space="preserve" xmlns:serif="http://www.serif.com/" style="fill-rule:evenodd;clip-rule:evenodd;stroke-linecap:square;stroke-linejoin:round;stroke-miterlimit:1.5;">
    <rect id="PRE-C8" x="0" y="0" width="2048" height="2732" style="fill:none;"/>
    <g id="PRE-C81" serif:id="PRE-C8">
		<a xlink:href="C8-REFOCUS.svg">
        <g id="S">
            <g transform="matrix(1,0,0,1,22,300)">
                <rect x="0" y="0" width="1501.06" height="1501.09" style="fill:white;"/>
            </g>
            <g id="Meta-Ring-and-Background" serif:id="Meta-Ring and Background" transform="matrix(-1.09813,0,0,-1.09813,1578.56,2249.66)">
                <g transform="matrix(0.545852,-0.945443,0.9537,0.550619,-641.299,1170.26)">
                    <ellipse cx="692" cy="1046" rx="458" ry="454" style="fill:none;stroke:black;stroke-width:0.46px;"/>
                </g>
                <g transform="matrix(0.5,-0.866025,0.629632,0.363518,-412.931,1316.59)">
                    <path d="M768,524.038L768,568" style="fill:none;stroke:black;stroke-width:0.57px;"/>
                </g>
                <g transform="matrix(0.5,-0.866025,0.629632,0.363518,425.349,1800.57)">
                    <path d="M768,524.038L768,568" style="fill:none;stroke:black;stroke-width:0.57px;"/>
                </g>
                <g transform="matrix(-0.866025,-0.5,0.363518,-0.629632,1442.63,1400.58)">
                    <path d="M768,524.038L768,568" style="fill:none;stroke:black;stroke-width:0.57px;"/>
                </g>
                <g transform="matrix(-0.866025,-0.5,0.363518,-0.629632,958.61,2238.93)">
                    <path d="M768,524.038L768,568" style="fill:none;stroke:black;stroke-width:0.57px;"/>
                </g>
                <g transform="matrix(0.866025,-0.5,0.363518,0.629632,-371.594,713.016)">
                    <path d="M768,524.038L768,568" style="fill:none;stroke:black;stroke-width:0.57px;"/>
                </g>
                <g transform="matrix(0.866025,-0.5,0.363518,0.629632,112.404,1551.33)">
                    <path d="M768,524.038L768,568" style="fill:none;stroke:black;stroke-width:0.57px;"/>
                </g>
                <g transform="matrix(-0.5,-0.866025,0.629632,-0.363518,1193.38,1713.55)">
                    <path d="M768,524.038L768,568" style="fill:none;stroke:black;stroke-width:0.57px;"/>
                </g>
                <g transform="matrix(-0.5,-0.866025,0.629632,-0.363518,355.038,2197.57)">
                    <path d="M768,524.038L768,568" style="fill:none;stroke:black;stroke-width:0.57px;"/>
                </g>
                <g transform="matrix(1,0,0,0.727036,-34,210.969)">
                    <path d="M768,524.038L768,568" style="fill:none;stroke:black;stroke-width:0.57px;"/>
                </g>
                <g transform="matrix(1,0,0,0.727036,-34,1179)">
                    <path d="M768,524.038L768,568" style="fill:none;stroke:black;stroke-width:0.57px;"/>
                </g>
                <g transform="matrix(6.12323e-17,-1,0.727036,4.45181e-17,821.022,1859.96)">
                    <path d="M768,524.038L768,568" style="fill:none;stroke:black;stroke-width:0.57px;"/>
                </g>
                <g transform="matrix(6.12323e-17,-1,0.727036,4.45181e-17,-146.974,1859.96)">
                    <path d="M768,524.038L768,568" style="fill:none;stroke:black;stroke-width:0.57px;"/>
                </g>
            </g>
            <g transform="matrix(-0.583619,1.01086,-0.902565,-0.521096,2128.78,825.876)">
                <g id="Root-Markers" serif:id="Root Markers">
                    <path id="_4" serif:id="4" d="M731.999,618L768,730L695.999,730L731.999,618ZM731.999,680.84L740.959,708.715C740.959,708.715 723.04,708.715 723.04,708.715L731.999,680.84Z"/>
                </g>
            </g>
            <g transform="matrix(-1.09813,0,0,-1.09811,1579.66,2245.28)">
                <g transform="matrix(0.545852,-0.945443,0.9537,0.550619,-641.299,1170.26)">
                    <ellipse cx="692" cy="1046" rx="458" ry="454" style="fill:none;stroke:black;stroke-width:8.31px;stroke-linecap:round;"/>
                </g>
                <g transform="matrix(0.5,-0.866025,0.629632,0.363518,-412.931,1316.59)">
                    <path d="M768,524.038L768,568" style="fill:none;stroke:black;stroke-width:10.42px;stroke-linecap:round;"/>
                </g>
                <g transform="matrix(0.5,-0.866025,0.629632,0.363518,425.349,1800.57)">
                    <path d="M768,524.038L768,568" style="fill:none;stroke:black;stroke-width:10.42px;stroke-linecap:round;"/>
                </g>
                <g transform="matrix(-0.866025,-0.5,0.363518,-0.629632,1442.63,1400.58)">
                    <path d="M768,524.038L768,568" style="fill:none;stroke:black;stroke-width:10.42px;stroke-linecap:round;"/>
                </g>
                <g transform="matrix(-0.866025,-0.5,0.363518,-0.629632,958.61,2238.93)">
                    <path d="M768,524.038L768,568" style="fill:none;stroke:black;stroke-width:10.42px;stroke-linecap:round;"/>
                </g>
                <g transform="matrix(0.866025,-0.5,0.363518,0.629632,-371.594,713.016)">
                    <path d="M768,524.038L768,568" style="fill:none;stroke:black;stroke-width:10.42px;stroke-linecap:round;"/>
                </g>
                <g transform="matrix(0.866025,-0.5,0.363518,0.629632,112.404,1551.33)">
                    <path d="M768,524.038L768,568" style="fill:none;stroke:black;stroke-width:10.42px;stroke-linecap:round;"/>
                </g>
                <g transform="matrix(-0.5,-0.866025,0.629632,-0.363518,1193.38,1713.55)">
                    <path d="M768,524.038L768,568" style="fill:none;stroke:black;stroke-width:10.42px;stroke-linecap:round;"/>
                </g>
                <g transform="matrix(-0.5,-0.866025,0.629632,-0.363518,355.038,2197.57)">
                    <path d="M768,524.038L768,568" style="fill:none;stroke:black;stroke-width:10.42px;stroke-linecap:round;"/>
                </g>
                <g transform="matrix(1,0,0,0.727036,-34,210.969)">
                    <path d="M768,524.038L768,568" style="fill:none;stroke:black;stroke-width:10.42px;stroke-linecap:round;"/>
                </g>
                <g transform="matrix(1,0,0,0.727036,-34,1179)">
                    <path d="M768,524.038L768,568" style="fill:none;stroke:black;stroke-width:10.42px;stroke-linecap:round;"/>
                </g>
                <g transform="matrix(6.12323e-17,-1,0.727036,4.45181e-17,821.022,1859.96)">
                    <path d="M768,524.038L768,568" style="fill:none;stroke:black;stroke-width:10.42px;stroke-linecap:round;"/>
                </g>
                <g transform="matrix(6.12323e-17,-1,0.727036,4.45181e-17,-146.974,1859.96)">
                    <path d="M768,524.038L768,568" style="fill:none;stroke:black;stroke-width:10.42px;stroke-linecap:round;"/>
                </g>
            </g>
            <g id="_11" serif:id="11" transform="matrix(-1.39762,2.4207,-2.45799,-1.41909,2863.38,-531.256)">
                <ellipse cx="766" cy="526.5" rx="33" ry="32.5" style="fill:rgb(167,29,56);stroke:white;stroke-width:8.52px;stroke-linecap:round;"/>
            </g>
            <g id="_7" serif:id="7" transform="matrix(-1.39762,2.4207,-2.45799,-1.41909,2868.72,413.119)">
                <ellipse cx="766" cy="526.5" rx="33" ry="32.5" style="fill:rgb(167,29,56);stroke:white;stroke-width:8.52px;stroke-linecap:round;"/>
            </g>
            <g id="_41" serif:id="4" transform="matrix(-1.39762,2.4207,-2.45799,-1.41909,3610.11,216.565)">
                <ellipse cx="766" cy="526.5" rx="33" ry="32.5" style="fill:rgb(167,29,56);stroke:white;stroke-width:8.52px;stroke-linecap:round;"/>
            </g>
            <g id="_2" serif:id="2" transform="matrix(-1.39762,2.4207,-2.45799,-1.41909,3610.1,-328.083)">
                <ellipse cx="766" cy="526.5" rx="33" ry="32.5" style="fill:rgb(167,29,56);stroke:white;stroke-width:8.52px;stroke-linecap:round;"/>
            </g>
        </g>
		</a>
        <g id="Text">
            <g transform="matrix(1,0,0,1,52.1335,51.3002)">
                <g transform="matrix(1,0,0,1,113,109.457)">
                    <path d="M1739.11,386.727L1724.1,386.727L1724.1,470.468C1724.1,482.105 1721.94,490.263 1717.63,494.943C1713.31,499.622 1705.7,501.962 1694.8,501.962L1675.63,501.962L1667.33,477.426C1676.94,478.483 1684.34,479.012 1689.55,479.012C1696.71,479.012 1700.29,475.757 1700.29,469.247L1700.29,386.727L1619.6,386.727L1619.6,364.266L1631.08,364.266L1619.36,344.003C1640.68,339.364 1654.27,330.941 1660.13,318.734L1620.58,318.734L1620.58,296.273L1665.87,296.273C1666.36,290.414 1666.6,283.822 1666.6,276.498L1691.63,276.498C1691.63,283.659 1691.38,290.251 1690.89,296.273L1735.08,296.273L1735.08,318.734L1687.11,318.734C1687.11,319.873 1686.62,321.46 1685.64,323.495C1704.28,328.052 1721.86,334.969 1738.38,344.247L1722.39,364.266L1739.11,364.266L1739.11,386.727ZM1719.34,364.266C1704.77,354.664 1689.75,347.299 1674.29,342.172C1666.64,350.879 1654.56,358.244 1638.04,364.266L1719.34,364.266ZM1616.31,386.483C1616.06,414.478 1615.6,436.735 1614.9,453.256C1614.21,469.776 1613.07,480.437 1611.49,485.238C1609.9,490.039 1607.05,493.986 1602.94,497.079C1598.83,500.171 1593.97,501.718 1588.35,501.718L1584.81,501.718C1577.08,501.718 1570,501.229 1563.57,500.253L1559.06,476.693C1566.14,478.077 1572.49,478.768 1578.1,478.768L1582.37,478.524C1586.52,478.524 1589.23,476.591 1590.49,472.726C1591.75,468.86 1592.38,451.343 1592.38,420.175L1592.38,409.921L1524.39,409.921L1524.39,283.456L1614.6,283.456L1614.6,307.015L1585.55,307.015L1585.55,317.269L1608.86,317.269L1608.86,340.463L1585.55,340.463L1585.55,351.693L1608.86,351.693L1608.86,375.009L1585.55,375.009L1585.55,386.483L1616.31,386.483ZM1562.84,317.269L1562.84,307.015L1547.09,307.015L1547.09,317.269L1562.84,317.269ZM1562.84,351.693L1562.84,340.463L1547.09,340.463L1547.09,351.693L1562.84,351.693ZM1562.84,386.483L1562.84,375.009L1547.09,375.009L1547.09,386.483L1562.84,386.483ZM1688.57,466.439L1629.13,466.439L1629.13,397.958L1688.57,397.958L1688.57,466.439ZM1666.11,443.734L1666.11,420.419L1651.59,420.419L1651.59,443.734L1666.11,443.734ZM1590.06,460.458L1578.1,462.533C1577.12,443.246 1575.37,428.394 1572.85,417.977L1583.59,415.17C1586.2,424.284 1588.35,439.38 1590.06,460.458ZM1537.33,421.273C1535.86,442.351 1532.69,463.428 1527.81,484.506L1511.57,481.21C1517.02,463.794 1520.69,442.798 1522.56,418.221L1537.33,421.273ZM1571.88,467.416L1559.06,469.491L1559.06,465.463C1559.06,450.163 1557.92,435.271 1555.64,420.785L1567.6,418.466C1570.12,430.998 1571.55,447.315 1571.88,467.416ZM1552.59,475.717L1538.31,476.937C1539.85,464.974 1540.62,452.971 1540.62,440.927C1540.62,434.416 1540.38,428.028 1539.89,421.761L1552.34,420.419C1553.16,432.463 1553.56,443.327 1553.56,453.011C1553.56,461.801 1553.24,469.369 1552.59,475.717Z" style="fill:rgb(167,29,56);fill-rule:nonzero;stroke:rgb(167,29,56);stroke-width:1px;stroke-linecap:butt;stroke-miterlimit:2;"/>
                </g>
                <g transform="matrix(1,0,0,1,113,389.406)">
                    <path d="M1633.28,320.565L1709.57,320.565C1719.01,320.565 1725.89,322.925 1730.2,327.645C1733.13,330.9 1734.92,334.603 1735.57,338.754C1735.82,340.056 1735.94,342.741 1735.94,346.81L1735.94,365.121L1698.46,365.121L1698.46,346.444L1565.65,346.444L1565.65,415.414C1565.65,442.432 1559.22,464.323 1546.36,481.088C1539.04,490.609 1531.67,497.893 1524.27,502.938C1521.34,504.973 1516.86,507.78 1510.84,511.361L1510.84,486.337C1515.72,479.826 1519.22,473.967 1521.34,468.759C1523.62,462.981 1525.24,457.243 1526.22,451.547C1527.52,444.222 1528.17,431.934 1528.17,414.681L1528.17,320.565L1595.8,320.565L1595.8,281.747L1633.28,281.747L1633.28,291.879L1718.6,291.879L1718.6,313.729L1633.28,313.729L1633.28,320.565ZM1599.71,381.844L1573.58,381.844L1570.17,359.384L1599.71,359.384L1599.71,349.618L1637.06,349.618L1637.06,359.384L1686.74,359.384L1690.28,381.844L1637.06,381.844L1637.06,390.267L1696.39,390.267L1696.39,371.591L1727.39,377.694L1727.39,389.901C1727.39,395.435 1726.94,399.382 1726.05,401.742C1723.69,408.09 1719.34,412.443 1712.99,414.803C1710.55,415.699 1706.56,416.146 1701.03,416.146L1625.95,416.146C1620.42,416.146 1616.43,415.699 1613.99,414.803C1607.64,412.443 1603.29,408.09 1600.93,401.742C1600.11,399.382 1599.71,395.435 1599.71,389.901L1599.71,381.844ZM1706.27,478.768L1706.27,449.349L1735.57,456.063L1735.57,482.43C1735.57,486.988 1735.2,490.243 1734.47,492.196C1732.52,497.567 1728.61,501.311 1722.75,503.427C1720.56,504.24 1716.89,504.647 1711.77,504.647L1680.03,504.647C1673.27,504.647 1668.15,503.63 1664.65,501.595C1658.38,498.096 1655.25,491.708 1655.25,482.43L1655.25,448.983L1621.19,448.983L1621.19,454.354C1621.19,467.456 1617.41,478.036 1609.84,486.093C1600.97,495.614 1587.74,502.572 1570.17,506.967C1566.75,507.862 1561.54,509.042 1554.54,510.507L1554.54,487.802C1563,485.279 1569.11,482.756 1572.85,480.233C1582.29,473.641 1587.01,464.527 1587.01,452.889L1587.01,423.104L1664.65,423.104C1670.02,423.104 1673.92,423.552 1676.37,424.447C1682.31,426.563 1686.3,430.347 1688.33,435.8C1689.06,437.671 1689.43,440.845 1689.43,445.321L1689.43,478.768L1706.27,478.768Z" style="fill:rgb(167,29,56);fill-rule:nonzero;stroke:rgb(167,29,56);stroke-width:1px;stroke-linecap:butt;stroke-miterlimit:2;"/>
                </g>
                <g transform="matrix(1,0,0,1,123,657.53)">
                    <g transform="matrix(250,0,0,250,1500.59,478.158)">
                        <path d="M0.268,-0.13C0.368,-0.197 0.442,-0.25 0.489,-0.29C0.568,-0.356 0.634,-0.427 0.688,-0.502L0.111,-0.502L0.111,-0.613L0.886,-0.613L0.886,-0.509C0.848,-0.453 0.817,-0.412 0.794,-0.385C0.707,-0.287 0.57,-0.183 0.383,-0.074C0.398,-0.061 0.407,-0.052 0.41,-0.049C0.444,-0.022 0.487,-0.008 0.538,-0.008L0.956,-0.008L0.956,0.103L0.538,0.103C0.471,0.103 0.411,0.088 0.358,0.06C0.341,0.051 0.317,0.033 0.286,0.006C0.281,0.002 0.277,-0 0.275,-0C0.273,-0 0.272,0.001 0.271,0.003C0.265,0.015 0.257,0.049 0.247,0.107L0.059,0.107C0.103,0.01 0.143,-0.055 0.179,-0.089C0.205,-0.115 0.235,-0.129 0.268,-0.13ZM0.417,-0.781L0.542,-0.781C0.553,-0.764 0.56,-0.753 0.564,-0.746C0.577,-0.722 0.593,-0.683 0.611,-0.629L0.445,-0.629C0.442,-0.671 0.433,-0.721 0.417,-0.781Z" style="fill:rgb(167,29,56);fill-rule:nonzero;"/>
                    </g>
                </g>
                <g transform="matrix(1,0,0,1,113,928.408)">
                    <g transform="matrix(250,0,0,250,1500.59,485.726)">
                        <path d="M0.973,-0.446C0.95,-0.329 0.915,-0.271 0.868,-0.271L0.86,-0.271C0.84,-0.271 0.821,-0.28 0.805,-0.297C0.788,-0.314 0.778,-0.363 0.772,-0.444L0.717,-0.383C0.709,-0.395 0.699,-0.407 0.689,-0.42C0.669,-0.363 0.638,-0.313 0.594,-0.27L0.525,-0.331L0.525,-0.311L0.084,-0.28L0.058,-0.352L0.251,-0.366L0.251,-0.407L0.117,-0.407L0.117,-0.455C0.11,-0.453 0.096,-0.449 0.077,-0.445L0.047,-0.52C0.118,-0.529 0.165,-0.559 0.188,-0.61L0.069,-0.61L0.069,-0.674L0.251,-0.674L0.251,-0.711L0.104,-0.711L0.104,-0.781L0.251,-0.781L0.251,-0.835L0.351,-0.835L0.351,-0.781L0.497,-0.781L0.497,-0.711L0.351,-0.711L0.351,-0.674L0.525,-0.674L0.525,-0.61L0.428,-0.61L0.428,-0.58C0.428,-0.569 0.433,-0.564 0.442,-0.564L0.451,-0.564C0.459,-0.564 0.463,-0.57 0.463,-0.583L0.462,-0.591L0.547,-0.584C0.547,-0.531 0.526,-0.504 0.483,-0.504L0.396,-0.504C0.377,-0.504 0.362,-0.508 0.351,-0.515L0.351,-0.475L0.485,-0.475L0.485,-0.407L0.351,-0.407L0.351,-0.373L0.525,-0.385L0.525,-0.351C0.565,-0.395 0.592,-0.443 0.606,-0.496C0.585,-0.51 0.565,-0.522 0.544,-0.532L0.593,-0.612C0.6,-0.609 0.609,-0.604 0.621,-0.597C0.622,-0.618 0.623,-0.634 0.623,-0.647L0.544,-0.647L0.544,-0.734L0.623,-0.734L0.623,-0.838L0.721,-0.838L0.721,-0.734L0.863,-0.734C0.86,-0.664 0.858,-0.609 0.858,-0.57C0.858,-0.523 0.859,-0.48 0.863,-0.44C0.866,-0.4 0.868,-0.379 0.869,-0.377C0.87,-0.376 0.871,-0.375 0.873,-0.375C0.875,-0.375 0.88,-0.386 0.886,-0.407C0.892,-0.429 0.897,-0.457 0.901,-0.49L0.973,-0.446ZM0.769,-0.482C0.767,-0.528 0.766,-0.572 0.766,-0.613L0.766,-0.647L0.721,-0.647C0.721,-0.613 0.719,-0.576 0.714,-0.534C0.734,-0.518 0.752,-0.501 0.769,-0.482ZM0.338,-0.529C0.333,-0.538 0.331,-0.553 0.331,-0.573L0.331,-0.61L0.275,-0.61C0.26,-0.543 0.226,-0.498 0.172,-0.475L0.251,-0.475L0.251,-0.529L0.338,-0.529ZM0.887,-0.245C0.883,-0.198 0.873,-0.144 0.858,-0.084C0.842,-0.024 0.823,0.015 0.802,0.033C0.78,0.051 0.751,0.06 0.715,0.06C0.686,0.06 0.639,0.053 0.574,0.04L0.556,-0.068C0.603,-0.046 0.643,-0.035 0.677,-0.035L0.687,-0.035C0.702,-0.035 0.714,-0.038 0.724,-0.043C0.734,-0.049 0.743,-0.063 0.753,-0.087C0.762,-0.11 0.768,-0.133 0.772,-0.156L0.517,-0.156C0.458,-0.016 0.313,0.064 0.08,0.086L0.037,-0.01C0.215,-0.015 0.336,-0.064 0.4,-0.156L0.125,-0.156L0.125,-0.245L0.435,-0.245C0.438,-0.261 0.439,-0.273 0.439,-0.283L0.548,-0.283C0.547,-0.273 0.546,-0.26 0.543,-0.245L0.887,-0.245Z" style="fill:rgb(167,29,56);fill-rule:nonzero;"/>
                    </g>
                </g>
            </g>
            <g transform="matrix(1,0,0,1,165.905,-142.857)">
                <g transform="matrix(75,0,0,75,1500.59,1765.71)">
                    <path d="M0.595,-0.589C0.595,-0.662 0.547,-0.713 0.451,-0.742C0.475,-0.747 0.499,-0.752 0.523,-0.755C0.546,-0.758 0.567,-0.76 0.584,-0.76C0.604,-0.76 0.624,-0.758 0.643,-0.755C0.662,-0.752 0.678,-0.746 0.693,-0.737C0.708,-0.728 0.72,-0.717 0.729,-0.703C0.738,-0.689 0.742,-0.671 0.742,-0.65C0.742,-0.643 0.742,-0.636 0.741,-0.63C0.74,-0.625 0.739,-0.619 0.738,-0.612C0.737,-0.605 0.736,-0.598 0.735,-0.59C0.734,-0.582 0.733,-0.572 0.733,-0.561L0.733,0.038C0.733,0.073 0.722,0.099 0.701,0.118C0.68,0.137 0.65,0.147 0.613,0.147C0.592,0.147 0.573,0.141 0.556,0.13C0.539,0.119 0.525,0.108 0.515,0.097C0.54,0.099 0.56,0.097 0.574,0.092C0.588,0.087 0.595,0.078 0.595,0.063L0.595,-0.589ZM0.519,-0.463C0.519,-0.448 0.515,-0.436 0.508,-0.427C0.501,-0.417 0.491,-0.409 0.48,-0.403L0.233,-0.1C0.213,-0.075 0.192,-0.057 0.171,-0.047C0.15,-0.037 0.129,-0.032 0.11,-0.033C0.087,-0.034 0.068,-0.041 0.055,-0.054C0.041,-0.067 0.031,-0.085 0.024,-0.108C0.042,-0.107 0.062,-0.112 0.085,-0.123C0.107,-0.134 0.126,-0.147 0.141,-0.163L0.351,-0.378C0.325,-0.373 0.299,-0.366 0.273,-0.358C0.247,-0.35 0.22,-0.345 0.192,-0.343C0.169,-0.342 0.147,-0.351 0.128,-0.371C0.108,-0.391 0.095,-0.423 0.09,-0.468C0.12,-0.459 0.149,-0.457 0.177,-0.462C0.205,-0.467 0.236,-0.476 0.27,-0.488C0.295,-0.497 0.32,-0.506 0.345,-0.514C0.37,-0.522 0.397,-0.526 0.426,-0.526C0.438,-0.526 0.45,-0.525 0.461,-0.524C0.471,-0.523 0.481,-0.52 0.49,-0.516C0.499,-0.511 0.506,-0.505 0.511,-0.497C0.516,-0.488 0.519,-0.477 0.519,-0.463Z" style="fill:rgb(167,29,56);fill-rule:nonzero;"/>
                </g>
                <g transform="matrix(75,0,0,75,1562.84,1765.71)">
                    <path d="M0.774,-0.016C0.744,-0.018 0.713,-0.019 0.682,-0.019C0.609,-0.019 0.535,-0.014 0.462,-0.005C0.388,0.005 0.318,0.019 0.253,0.036C0.24,0.039 0.224,0.043 0.205,0.048C0.187,0.053 0.171,0.055 0.157,0.055C0.136,0.055 0.118,0.05 0.103,0.041C0.088,0.032 0.075,0.019 0.065,0.004C0.054,-0.011 0.046,-0.029 0.041,-0.05C0.035,-0.071 0.032,-0.093 0.031,-0.116C0.051,-0.095 0.076,-0.08 0.106,-0.072C0.135,-0.064 0.167,-0.06 0.201,-0.06C0.227,-0.06 0.254,-0.061 0.282,-0.064C0.311,-0.067 0.339,-0.07 0.367,-0.073C0.384,-0.081 0.398,-0.089 0.409,-0.098C0.42,-0.107 0.428,-0.115 0.434,-0.123C0.44,-0.13 0.444,-0.137 0.446,-0.143C0.448,-0.15 0.449,-0.154 0.449,-0.157C0.449,-0.163 0.448,-0.171 0.447,-0.18C0.446,-0.189 0.44,-0.197 0.431,-0.205C0.406,-0.21 0.383,-0.218 0.36,-0.23C0.337,-0.243 0.319,-0.257 0.306,-0.273C0.293,-0.288 0.286,-0.305 0.286,-0.324C0.286,-0.348 0.297,-0.37 0.318,-0.391C0.339,-0.411 0.37,-0.431 0.413,-0.452L0.413,-0.463C0.424,-0.465 0.435,-0.467 0.444,-0.469C0.453,-0.472 0.461,-0.475 0.468,-0.479C0.473,-0.482 0.481,-0.486 0.491,-0.491C0.501,-0.496 0.512,-0.503 0.524,-0.51C0.507,-0.507 0.488,-0.503 0.469,-0.498C0.45,-0.493 0.431,-0.488 0.413,-0.483C0.389,-0.476 0.366,-0.47 0.344,-0.466C0.321,-0.461 0.303,-0.458 0.29,-0.458C0.267,-0.457 0.246,-0.464 0.228,-0.476C0.209,-0.49 0.195,-0.514 0.186,-0.549C0.201,-0.547 0.215,-0.546 0.229,-0.546C0.252,-0.546 0.28,-0.55 0.311,-0.558C0.342,-0.565 0.372,-0.573 0.402,-0.582C0.403,-0.582 0.405,-0.583 0.408,-0.584C0.413,-0.589 0.417,-0.594 0.419,-0.601C0.421,-0.607 0.422,-0.612 0.422,-0.616C0.422,-0.624 0.418,-0.633 0.409,-0.643C0.401,-0.653 0.388,-0.66 0.369,-0.665C0.388,-0.678 0.408,-0.688 0.43,-0.694C0.451,-0.699 0.472,-0.702 0.493,-0.703C0.499,-0.703 0.506,-0.703 0.515,-0.702C0.524,-0.701 0.532,-0.7 0.54,-0.697C0.548,-0.694 0.555,-0.69 0.561,-0.685C0.566,-0.68 0.569,-0.672 0.569,-0.663C0.569,-0.652 0.563,-0.637 0.551,-0.619C0.581,-0.624 0.612,-0.627 0.643,-0.628C0.664,-0.629 0.681,-0.626 0.694,-0.621C0.706,-0.616 0.712,-0.607 0.712,-0.596C0.712,-0.589 0.711,-0.581 0.708,-0.572C0.705,-0.563 0.699,-0.554 0.69,-0.547L0.691,-0.547L0.69,-0.547C0.685,-0.543 0.68,-0.539 0.674,-0.536C0.668,-0.533 0.66,-0.53 0.651,-0.527C0.63,-0.516 0.612,-0.506 0.595,-0.496C0.578,-0.486 0.562,-0.476 0.547,-0.467C0.567,-0.466 0.584,-0.462 0.597,-0.457C0.61,-0.451 0.621,-0.443 0.632,-0.433C0.653,-0.414 0.664,-0.388 0.664,-0.355C0.664,-0.316 0.649,-0.28 0.62,-0.249C0.607,-0.236 0.593,-0.226 0.578,-0.219C0.585,-0.214 0.591,-0.207 0.596,-0.199C0.601,-0.191 0.603,-0.182 0.603,-0.171C0.603,-0.164 0.6,-0.154 0.595,-0.141C0.589,-0.129 0.578,-0.116 0.562,-0.103C0.609,-0.112 0.653,-0.123 0.692,-0.135C0.701,-0.138 0.716,-0.142 0.736,-0.146C0.755,-0.149 0.775,-0.151 0.795,-0.151C0.807,-0.151 0.819,-0.15 0.83,-0.149C0.841,-0.147 0.85,-0.144 0.859,-0.139C0.868,-0.134 0.875,-0.128 0.879,-0.121C0.884,-0.114 0.887,-0.104 0.887,-0.093C0.887,-0.078 0.883,-0.065 0.876,-0.055C0.87,-0.044 0.861,-0.036 0.85,-0.03C0.839,-0.024 0.826,-0.02 0.813,-0.018C0.8,-0.015 0.787,-0.015 0.774,-0.016ZM0.454,-0.408C0.449,-0.405 0.443,-0.402 0.438,-0.399C0.433,-0.396 0.428,-0.393 0.423,-0.39C0.395,-0.377 0.374,-0.365 0.361,-0.354C0.348,-0.343 0.341,-0.334 0.341,-0.329C0.341,-0.318 0.359,-0.305 0.394,-0.292C0.402,-0.289 0.414,-0.288 0.43,-0.288C0.451,-0.288 0.473,-0.293 0.494,-0.303L0.493,-0.303C0.512,-0.314 0.521,-0.33 0.521,-0.35C0.521,-0.361 0.514,-0.371 0.501,-0.38C0.488,-0.389 0.472,-0.399 0.454,-0.408Z" style="fill:rgb(167,29,56);fill-rule:nonzero;"/>
                </g>
                <g transform="matrix(75,0,0,75,1631.84,1765.71)">
                    <path d="M0.595,-0.589C0.595,-0.662 0.547,-0.713 0.451,-0.742C0.475,-0.747 0.499,-0.752 0.523,-0.755C0.546,-0.758 0.567,-0.76 0.584,-0.76C0.604,-0.76 0.624,-0.758 0.643,-0.755C0.662,-0.752 0.678,-0.746 0.693,-0.737C0.708,-0.728 0.72,-0.717 0.729,-0.703C0.738,-0.689 0.742,-0.671 0.742,-0.65C0.742,-0.643 0.742,-0.636 0.741,-0.63C0.74,-0.625 0.739,-0.619 0.738,-0.612C0.737,-0.605 0.736,-0.598 0.735,-0.59C0.734,-0.582 0.733,-0.572 0.733,-0.561L0.733,0.038C0.733,0.073 0.722,0.099 0.701,0.118C0.68,0.137 0.65,0.147 0.613,0.147C0.592,0.147 0.573,0.141 0.556,0.13C0.539,0.119 0.525,0.108 0.515,0.097C0.54,0.099 0.56,0.097 0.574,0.092C0.588,0.087 0.595,0.078 0.595,0.063L0.595,-0.589ZM0.463,-0.485C0.463,-0.474 0.46,-0.464 0.455,-0.457C0.45,-0.45 0.443,-0.443 0.434,-0.438L0.343,-0.305C0.344,-0.304 0.347,-0.303 0.351,-0.302C0.364,-0.296 0.379,-0.287 0.398,-0.276C0.417,-0.264 0.435,-0.251 0.452,-0.236C0.454,-0.234 0.457,-0.233 0.461,-0.233C0.465,-0.232 0.469,-0.234 0.474,-0.239C0.48,-0.245 0.487,-0.255 0.496,-0.269C0.504,-0.283 0.513,-0.3 0.524,-0.32C0.517,-0.283 0.511,-0.253 0.506,-0.229C0.501,-0.204 0.5,-0.186 0.501,-0.174C0.504,-0.155 0.504,-0.138 0.499,-0.123C0.494,-0.108 0.48,-0.098 0.457,-0.094C0.44,-0.091 0.426,-0.094 0.416,-0.102C0.405,-0.112 0.398,-0.122 0.393,-0.133C0.39,-0.142 0.386,-0.152 0.381,-0.165C0.376,-0.178 0.37,-0.19 0.365,-0.202C0.359,-0.214 0.353,-0.225 0.348,-0.235C0.343,-0.245 0.338,-0.252 0.334,-0.256C0.329,-0.26 0.323,-0.26 0.317,-0.257C0.31,-0.253 0.303,-0.246 0.296,-0.237L0.199,-0.096C0.186,-0.077 0.169,-0.062 0.148,-0.051C0.127,-0.04 0.105,-0.033 0.084,-0.031C0.07,-0.03 0.055,-0.031 0.04,-0.035C0.025,-0.039 0.01,-0.048 -0.003,-0.061C0.008,-0.063 0.018,-0.067 0.028,-0.073C0.037,-0.078 0.046,-0.085 0.055,-0.092C0.064,-0.099 0.071,-0.107 0.079,-0.116C0.086,-0.124 0.092,-0.132 0.098,-0.14L0.288,-0.409C0.272,-0.406 0.257,-0.403 0.243,-0.4C0.228,-0.397 0.212,-0.396 0.195,-0.396C0.174,-0.396 0.156,-0.404 0.14,-0.419C0.124,-0.434 0.114,-0.46 0.109,-0.496C0.118,-0.493 0.127,-0.491 0.136,-0.49C0.145,-0.489 0.152,-0.489 0.157,-0.489C0.172,-0.489 0.188,-0.491 0.204,-0.496C0.22,-0.5 0.237,-0.505 0.254,-0.51C0.274,-0.516 0.295,-0.522 0.316,-0.528C0.337,-0.534 0.361,-0.537 0.386,-0.537C0.396,-0.537 0.406,-0.537 0.414,-0.536C0.424,-0.535 0.432,-0.532 0.439,-0.529C0.446,-0.525 0.452,-0.52 0.457,-0.513C0.461,-0.505 0.463,-0.496 0.463,-0.485Z" style="fill:rgb(167,29,56);fill-rule:nonzero;"/>
                </g>
                <g transform="matrix(75,0,0,75,1694.09,1765.71)">
                    <path d="M0.294,-0.27C0.297,-0.269 0.298,-0.268 0.298,-0.268C0.307,-0.263 0.318,-0.255 0.331,-0.245C0.343,-0.234 0.356,-0.223 0.369,-0.21C0.371,-0.208 0.374,-0.207 0.378,-0.206C0.381,-0.206 0.385,-0.208 0.388,-0.212C0.391,-0.215 0.394,-0.22 0.398,-0.225C0.401,-0.23 0.405,-0.237 0.41,-0.244C0.399,-0.251 0.389,-0.261 0.381,-0.274C0.372,-0.286 0.366,-0.302 0.361,-0.323C0.379,-0.316 0.398,-0.314 0.419,-0.317C0.44,-0.32 0.46,-0.327 0.481,-0.338L0.481,-0.494C0.481,-0.525 0.473,-0.551 0.457,-0.573C0.441,-0.595 0.416,-0.612 0.382,-0.623C0.405,-0.628 0.426,-0.633 0.444,-0.636C0.461,-0.64 0.478,-0.642 0.493,-0.642C0.508,-0.642 0.522,-0.641 0.537,-0.637C0.551,-0.634 0.563,-0.629 0.574,-0.622C0.585,-0.615 0.593,-0.605 0.6,-0.593C0.607,-0.58 0.61,-0.565 0.61,-0.546C0.61,-0.534 0.609,-0.522 0.606,-0.51C0.603,-0.498 0.602,-0.485 0.602,-0.47L0.602,-0.065C0.602,-0.034 0.593,-0.011 0.574,0.006C0.555,0.023 0.53,0.031 0.497,0.031C0.486,0.031 0.474,0.027 0.463,0.019C0.451,0.012 0.442,0.001 0.437,-0.014C0.447,-0.014 0.457,-0.016 0.467,-0.02C0.476,-0.023 0.481,-0.031 0.481,-0.044L0.481,-0.232C0.471,-0.231 0.461,-0.23 0.451,-0.231C0.44,-0.231 0.43,-0.233 0.42,-0.238C0.417,-0.22 0.414,-0.204 0.411,-0.191C0.409,-0.178 0.409,-0.165 0.41,-0.154C0.411,-0.137 0.41,-0.122 0.406,-0.109C0.403,-0.096 0.392,-0.088 0.375,-0.085C0.36,-0.082 0.348,-0.085 0.34,-0.092C0.332,-0.099 0.325,-0.107 0.32,-0.117C0.315,-0.127 0.31,-0.138 0.306,-0.15C0.301,-0.161 0.297,-0.172 0.294,-0.183C0.291,-0.193 0.287,-0.202 0.284,-0.209C0.281,-0.216 0.277,-0.219 0.273,-0.22C0.268,-0.221 0.262,-0.218 0.255,-0.213L0.179,-0.104C0.166,-0.085 0.15,-0.071 0.131,-0.06C0.112,-0.049 0.093,-0.042 0.072,-0.039C0.059,-0.038 0.045,-0.039 0.03,-0.043C0.015,-0.046 0.001,-0.055 -0.012,-0.07C0.008,-0.074 0.025,-0.083 0.04,-0.098C0.055,-0.113 0.067,-0.128 0.078,-0.144L0.246,-0.392C0.249,-0.397 0.252,-0.402 0.253,-0.408C0.254,-0.415 0.254,-0.421 0.252,-0.428C0.249,-0.434 0.245,-0.44 0.237,-0.446C0.231,-0.452 0.22,-0.457 0.207,-0.46C0.222,-0.464 0.234,-0.468 0.245,-0.473C0.256,-0.478 0.265,-0.482 0.274,-0.486C0.283,-0.49 0.291,-0.493 0.299,-0.496C0.306,-0.499 0.314,-0.5 0.323,-0.5C0.346,-0.5 0.366,-0.494 0.383,-0.482C0.399,-0.469 0.407,-0.454 0.407,-0.437C0.407,-0.428 0.405,-0.42 0.4,-0.414C0.395,-0.408 0.39,-0.402 0.384,-0.396C0.381,-0.394 0.379,-0.392 0.377,-0.389C0.375,-0.386 0.373,-0.382 0.37,-0.379L0.294,-0.27ZM0.642,-0.589C0.642,-0.662 0.594,-0.713 0.498,-0.742C0.522,-0.747 0.546,-0.752 0.57,-0.755C0.593,-0.758 0.614,-0.76 0.631,-0.76C0.651,-0.76 0.671,-0.758 0.69,-0.755C0.709,-0.752 0.725,-0.746 0.74,-0.737C0.755,-0.728 0.767,-0.717 0.776,-0.703C0.785,-0.689 0.789,-0.671 0.789,-0.65C0.789,-0.643 0.789,-0.636 0.788,-0.63C0.787,-0.625 0.786,-0.619 0.785,-0.612C0.784,-0.605 0.783,-0.598 0.782,-0.59C0.781,-0.582 0.78,-0.572 0.78,-0.561L0.78,0.038C0.78,0.073 0.769,0.099 0.748,0.118C0.727,0.137 0.697,0.147 0.66,0.147C0.639,0.147 0.62,0.141 0.603,0.13C0.586,0.119 0.572,0.108 0.562,0.097C0.587,0.099 0.607,0.097 0.621,0.092C0.635,0.087 0.642,0.078 0.642,0.063L0.642,-0.589Z" style="fill:rgb(167,29,56);fill-rule:nonzero;"/>
                </g>
            </g>
        </g>
    </g>
</svg>
