<?xml version="1.0" encoding="UTF-8" standalone="no"?>
<!DOCTYPE svg PUBLIC "-//W3C//DTD SVG 1.1//EN" "http://www.w3.org/Graphics/SVG/1.1/DTD/svg11.dtd">
<svg width="100%" height="100%" viewBox="0 0 2048 2732" version="1.1" xmlns="http://www.w3.org/2000/svg" xmlns:xlink="http://www.w3.org/1999/xlink" xml:space="preserve" xmlns:serif="http://www.serif.com/" style="fill-rule:evenodd;clip-rule:evenodd;stroke-linecap:square;stroke-linejoin:round;stroke-miterlimit:1.5;">
    <rect id="PRE-CAlpha" x="0" y="0" width="2048" height="2732" style="fill:none;"/>
    <g id="PRE-CAlpha1" serif:id="PRE-CAlpha">
		<a xlink:href="CAlpha-REFOCUS.svg">
        <g id="S">
            <g transform="matrix(1,0,0,1,22,300)">
                <rect x="0" y="0" width="1501.06" height="1501.09" style="fill:white;"/>
            </g>
            <g id="Meta-Ring-and-Background" serif:id="Meta-Ring and Background" transform="matrix(-1.09813,0,0,-1.09813,1578.56,2249.66)">
                <g transform="matrix(0.545852,-0.945443,0.9537,0.550619,-641.299,1170.26)">
                    <ellipse cx="692" cy="1046" rx="458" ry="454" style="fill:none;stroke:black;stroke-width:0.46px;"/>
                </g>
                <g transform="matrix(0.5,-0.866025,0.629632,0.363518,-412.931,1316.59)">
                    <path d="M768,524.038L768,568" style="fill:none;stroke:black;stroke-width:0.57px;"/>
                </g>
                <g transform="matrix(0.5,-0.866025,0.629632,0.363518,425.349,1800.57)">
                    <path d="M768,524.038L768,568" style="fill:none;stroke:black;stroke-width:0.57px;"/>
                </g>
                <g transform="matrix(-0.866025,-0.5,0.363518,-0.629632,1442.63,1400.58)">
                    <path d="M768,524.038L768,568" style="fill:none;stroke:black;stroke-width:0.57px;"/>
                </g>
                <g transform="matrix(-0.866025,-0.5,0.363518,-0.629632,958.61,2238.93)">
                    <path d="M768,524.038L768,568" style="fill:none;stroke:black;stroke-width:0.57px;"/>
                </g>
                <g transform="matrix(0.866025,-0.5,0.363518,0.629632,-371.594,713.016)">
                    <path d="M768,524.038L768,568" style="fill:none;stroke:black;stroke-width:0.57px;"/>
                </g>
                <g transform="matrix(0.866025,-0.5,0.363518,0.629632,112.404,1551.33)">
                    <path d="M768,524.038L768,568" style="fill:none;stroke:black;stroke-width:0.57px;"/>
                </g>
                <g transform="matrix(-0.5,-0.866025,0.629632,-0.363518,1193.38,1713.55)">
                    <path d="M768,524.038L768,568" style="fill:none;stroke:black;stroke-width:0.57px;"/>
                </g>
                <g transform="matrix(-0.5,-0.866025,0.629632,-0.363518,355.038,2197.57)">
                    <path d="M768,524.038L768,568" style="fill:none;stroke:black;stroke-width:0.57px;"/>
                </g>
                <g transform="matrix(1,0,0,0.727036,-34,210.969)">
                    <path d="M768,524.038L768,568" style="fill:none;stroke:black;stroke-width:0.57px;"/>
                </g>
                <g transform="matrix(1,0,0,0.727036,-34,1179)">
                    <path d="M768,524.038L768,568" style="fill:none;stroke:black;stroke-width:0.57px;"/>
                </g>
                <g transform="matrix(6.12323e-17,-1,0.727036,4.45181e-17,821.022,1859.96)">
                    <path d="M768,524.038L768,568" style="fill:none;stroke:black;stroke-width:0.57px;"/>
                </g>
                <g transform="matrix(6.12323e-17,-1,0.727036,4.45181e-17,-146.974,1859.96)">
                    <path d="M768,524.038L768,568" style="fill:none;stroke:black;stroke-width:0.57px;"/>
                </g>
            </g>
            <g transform="matrix(1.01086,0.583619,-0.521096,0.902565,569.935,-309.119)">
                <g id="Root-Markers" serif:id="Root Markers">
                    <path id="_1" serif:id="1" d="M731.999,618L768,730L695.999,730L731.999,618ZM731.999,680.84L740.959,708.715C740.959,708.715 723.04,708.715 723.04,708.715L731.999,680.84Z"/>
                </g>
            </g>
            <g transform="matrix(-1.09813,0,0,-1.09811,1579.66,2245.28)">
                <g transform="matrix(0.545852,-0.945443,0.9537,0.550619,-641.299,1170.26)">
                    <ellipse cx="692" cy="1046" rx="458" ry="454" style="fill:none;stroke:black;stroke-width:8.31px;stroke-linecap:round;"/>
                </g>
                <g transform="matrix(0.5,-0.866025,0.629632,0.363518,-412.931,1316.59)">
                    <path d="M768,524.038L768,568" style="fill:none;stroke:black;stroke-width:10.42px;stroke-linecap:round;"/>
                </g>
                <g transform="matrix(0.5,-0.866025,0.629632,0.363518,425.349,1800.57)">
                    <path d="M768,524.038L768,568" style="fill:none;stroke:black;stroke-width:10.42px;stroke-linecap:round;"/>
                </g>
                <g transform="matrix(-0.866025,-0.5,0.363518,-0.629632,1442.63,1400.58)">
                    <path d="M768,524.038L768,568" style="fill:none;stroke:black;stroke-width:10.42px;stroke-linecap:round;"/>
                </g>
                <g transform="matrix(-0.866025,-0.5,0.363518,-0.629632,958.61,2238.93)">
                    <path d="M768,524.038L768,568" style="fill:none;stroke:black;stroke-width:10.42px;stroke-linecap:round;"/>
                </g>
                <g transform="matrix(0.866025,-0.5,0.363518,0.629632,-371.594,713.016)">
                    <path d="M768,524.038L768,568" style="fill:none;stroke:black;stroke-width:10.42px;stroke-linecap:round;"/>
                </g>
                <g transform="matrix(0.866025,-0.5,0.363518,0.629632,112.404,1551.33)">
                    <path d="M768,524.038L768,568" style="fill:none;stroke:black;stroke-width:10.42px;stroke-linecap:round;"/>
                </g>
                <g transform="matrix(-0.5,-0.866025,0.629632,-0.363518,1193.38,1713.55)">
                    <path d="M768,524.038L768,568" style="fill:none;stroke:black;stroke-width:10.42px;stroke-linecap:round;"/>
                </g>
                <g transform="matrix(-0.5,-0.866025,0.629632,-0.363518,355.038,2197.57)">
                    <path d="M768,524.038L768,568" style="fill:none;stroke:black;stroke-width:10.42px;stroke-linecap:round;"/>
                </g>
                <g transform="matrix(1,0,0,0.727036,-34,210.969)">
                    <path d="M768,524.038L768,568" style="fill:none;stroke:black;stroke-width:10.42px;stroke-linecap:round;"/>
                </g>
                <g transform="matrix(1,0,0,0.727036,-34,1179)">
                    <path d="M768,524.038L768,568" style="fill:none;stroke:black;stroke-width:10.42px;stroke-linecap:round;"/>
                </g>
                <g transform="matrix(6.12323e-17,-1,0.727036,4.45181e-17,821.022,1859.96)">
                    <path d="M768,524.038L768,568" style="fill:none;stroke:black;stroke-width:10.42px;stroke-linecap:round;"/>
                </g>
                <g transform="matrix(6.12323e-17,-1,0.727036,4.45181e-17,-146.974,1859.96)">
                    <path d="M768,524.038L768,568" style="fill:none;stroke:black;stroke-width:10.42px;stroke-linecap:round;"/>
                </g>
            </g>
            <g id="_10" serif:id="10" transform="matrix(-1.39762,2.4207,-2.45799,-1.41909,2667.89,-328.094)">
                <ellipse cx="766" cy="526.5" rx="33" ry="32.5" style="fill:rgb(119,9,115);stroke:white;stroke-width:8.52px;stroke-linecap:round;"/>
            </g>
            <g id="_8" serif:id="8" transform="matrix(-1.39762,2.4207,-2.45799,-1.41909,2664.62,218.751)">
                <ellipse cx="766" cy="526.5" rx="33" ry="32.5" style="fill:rgb(119,9,115);stroke:white;stroke-width:8.52px;stroke-linecap:round;"/>
            </g>
            <g id="_5" serif:id="5" transform="matrix(-1.39762,2.4207,-2.45799,-1.41909,3411.9,417.908)">
                <ellipse cx="766" cy="526.5" rx="33" ry="32.5" style="fill:rgb(119,9,115);stroke:white;stroke-width:8.52px;stroke-linecap:round;"/>
            </g>
            <g id="_3" serif:id="3" transform="matrix(-1.39762,2.4207,-2.45799,-1.41909,3685.18,-55.5762)">
                <ellipse cx="766" cy="526.5" rx="33" ry="32.5" style="fill:rgb(119,9,115);stroke:white;stroke-width:8.52px;stroke-linecap:round;"/>
            </g>
            <g id="_11" serif:id="1" transform="matrix(-1.39762,2.4207,-2.45799,-1.41909,3409.13,-524.65)">
                <ellipse cx="766" cy="526.5" rx="33" ry="32.5" style="fill:rgb(119,9,115);stroke:white;stroke-width:8.52px;stroke-linecap:round;"/>
            </g>
        </g>
		</a>
        <g id="Text">
            <g transform="matrix(1,0,0,1,176,-108.376)">
                <g transform="matrix(75,0,0,75,1500.59,1765.71)">
                    <path d="M0.774,-0.221C0.744,-0.223 0.713,-0.224 0.682,-0.224C0.663,-0.224 0.644,-0.224 0.625,-0.223C0.606,-0.222 0.588,-0.221 0.569,-0.22L0.569,0.018C0.569,0.053 0.559,0.079 0.539,0.098C0.519,0.117 0.49,0.127 0.453,0.127C0.432,0.127 0.412,0.121 0.396,0.11C0.379,0.099 0.365,0.088 0.355,0.077C0.38,0.079 0.4,0.077 0.414,0.072C0.429,0.067 0.436,0.058 0.436,0.043L0.436,-0.206C0.404,-0.201 0.373,-0.195 0.342,-0.189C0.311,-0.183 0.282,-0.176 0.253,-0.169C0.24,-0.166 0.224,-0.162 0.205,-0.157C0.187,-0.152 0.171,-0.15 0.157,-0.15C0.136,-0.15 0.118,-0.155 0.103,-0.164C0.088,-0.173 0.075,-0.186 0.065,-0.201C0.054,-0.216 0.046,-0.234 0.041,-0.255C0.035,-0.276 0.032,-0.298 0.031,-0.321C0.051,-0.3 0.076,-0.285 0.106,-0.277C0.135,-0.269 0.167,-0.265 0.201,-0.265C0.234,-0.265 0.269,-0.267 0.305,-0.271C0.341,-0.275 0.376,-0.279 0.409,-0.283C0.43,-0.286 0.453,-0.289 0.477,-0.293C0.502,-0.297 0.526,-0.301 0.551,-0.306C0.576,-0.311 0.6,-0.316 0.624,-0.322C0.648,-0.327 0.671,-0.333 0.692,-0.34C0.701,-0.343 0.716,-0.347 0.736,-0.35C0.755,-0.354 0.775,-0.356 0.795,-0.356C0.807,-0.356 0.819,-0.355 0.83,-0.354C0.841,-0.352 0.85,-0.349 0.859,-0.344C0.868,-0.339 0.875,-0.333 0.879,-0.326C0.884,-0.319 0.887,-0.309 0.887,-0.298C0.887,-0.283 0.883,-0.27 0.876,-0.26C0.87,-0.249 0.861,-0.241 0.85,-0.235C0.839,-0.229 0.826,-0.225 0.813,-0.223C0.8,-0.22 0.787,-0.22 0.774,-0.221ZM0.701,-0.658C0.701,-0.64 0.694,-0.626 0.68,-0.616C0.666,-0.605 0.649,-0.597 0.63,-0.592L0.361,-0.364C0.344,-0.351 0.325,-0.341 0.304,-0.336C0.283,-0.331 0.261,-0.331 0.24,-0.336C0.227,-0.339 0.214,-0.346 0.202,-0.355C0.19,-0.364 0.18,-0.378 0.173,-0.395C0.192,-0.394 0.21,-0.397 0.229,-0.404C0.247,-0.411 0.264,-0.421 0.279,-0.432L0.455,-0.566C0.442,-0.564 0.429,-0.562 0.416,-0.561C0.403,-0.559 0.39,-0.558 0.379,-0.558C0.358,-0.558 0.338,-0.567 0.32,-0.585C0.301,-0.603 0.289,-0.632 0.284,-0.673C0.308,-0.666 0.327,-0.663 0.341,-0.663C0.359,-0.663 0.378,-0.666 0.399,-0.671C0.419,-0.676 0.44,-0.681 0.461,-0.687C0.484,-0.694 0.509,-0.7 0.534,-0.706C0.559,-0.711 0.586,-0.714 0.614,-0.714C0.625,-0.714 0.636,-0.713 0.647,-0.712C0.657,-0.711 0.666,-0.708 0.674,-0.704C0.682,-0.7 0.689,-0.694 0.694,-0.687C0.699,-0.68 0.701,-0.67 0.701,-0.658ZM0.526,-0.357C0.541,-0.365 0.559,-0.375 0.582,-0.386C0.605,-0.397 0.627,-0.409 0.648,-0.42C0.647,-0.421 0.645,-0.422 0.644,-0.423C0.643,-0.424 0.641,-0.425 0.64,-0.426C0.635,-0.43 0.628,-0.435 0.62,-0.441C0.611,-0.446 0.602,-0.452 0.593,-0.458C0.583,-0.464 0.573,-0.47 0.563,-0.475C0.552,-0.48 0.542,-0.485 0.533,-0.488C0.548,-0.495 0.569,-0.502 0.595,-0.508C0.621,-0.514 0.647,-0.517 0.673,-0.517C0.682,-0.517 0.693,-0.516 0.704,-0.515C0.715,-0.514 0.725,-0.511 0.735,-0.508C0.745,-0.505 0.754,-0.5 0.762,-0.493C0.771,-0.486 0.777,-0.478 0.782,-0.468C0.788,-0.455 0.789,-0.441 0.784,-0.428C0.779,-0.414 0.771,-0.403 0.758,-0.395C0.749,-0.39 0.738,-0.387 0.727,-0.387C0.715,-0.386 0.7,-0.39 0.683,-0.399C0.658,-0.392 0.631,-0.386 0.604,-0.379C0.577,-0.372 0.551,-0.364 0.526,-0.357Z" style="fill:rgb(119,9,115);fill-rule:nonzero;"/>
                </g>
                <g transform="matrix(75,0,0,75,1569.59,1765.71)">
                    <path d="M0.545,-0.589C0.545,-0.662 0.497,-0.713 0.401,-0.742C0.425,-0.747 0.449,-0.752 0.472,-0.755C0.496,-0.758 0.517,-0.76 0.534,-0.76C0.554,-0.76 0.574,-0.758 0.593,-0.755C0.612,-0.752 0.628,-0.746 0.643,-0.737C0.658,-0.728 0.67,-0.717 0.679,-0.703C0.688,-0.689 0.692,-0.671 0.692,-0.65C0.692,-0.643 0.692,-0.636 0.691,-0.63C0.69,-0.625 0.689,-0.619 0.688,-0.612C0.687,-0.605 0.686,-0.598 0.685,-0.59C0.684,-0.582 0.683,-0.572 0.683,-0.561L0.683,-0.418C0.697,-0.428 0.711,-0.438 0.725,-0.447C0.739,-0.456 0.752,-0.464 0.765,-0.471C0.779,-0.478 0.791,-0.485 0.803,-0.49C0.814,-0.495 0.824,-0.498 0.832,-0.5C0.859,-0.502 0.879,-0.496 0.892,-0.483C0.905,-0.47 0.912,-0.453 0.912,-0.434C0.912,-0.428 0.908,-0.421 0.9,-0.411C0.891,-0.403 0.88,-0.393 0.867,-0.382C0.854,-0.371 0.839,-0.359 0.822,-0.347C0.805,-0.335 0.789,-0.323 0.772,-0.312C0.777,-0.323 0.783,-0.333 0.788,-0.343C0.793,-0.352 0.798,-0.36 0.801,-0.365C0.804,-0.37 0.804,-0.373 0.802,-0.375C0.799,-0.376 0.796,-0.377 0.792,-0.376C0.775,-0.373 0.757,-0.371 0.738,-0.368C0.719,-0.365 0.701,-0.36 0.683,-0.355L0.683,-0.214C0.7,-0.221 0.717,-0.229 0.734,-0.235C0.75,-0.243 0.767,-0.249 0.783,-0.254C0.798,-0.259 0.813,-0.262 0.826,-0.265C0.839,-0.268 0.849,-0.269 0.857,-0.268C0.885,-0.265 0.904,-0.255 0.914,-0.239C0.924,-0.223 0.926,-0.205 0.921,-0.186C0.918,-0.173 0.911,-0.164 0.9,-0.158C0.889,-0.152 0.876,-0.149 0.86,-0.149C0.848,-0.149 0.836,-0.15 0.823,-0.152C0.808,-0.154 0.792,-0.156 0.775,-0.157C0.757,-0.158 0.74,-0.159 0.723,-0.159L0.703,-0.159C0.696,-0.159 0.69,-0.159 0.683,-0.158L0.683,0.038C0.683,0.073 0.672,0.099 0.651,0.118C0.63,0.137 0.6,0.147 0.563,0.147C0.542,0.147 0.523,0.141 0.505,0.13C0.489,0.119 0.475,0.108 0.465,0.097C0.49,0.099 0.51,0.097 0.524,0.092C0.538,0.087 0.545,0.078 0.545,0.063L0.545,-0.589ZM0.335,-0.479C0.335,-0.473 0.334,-0.468 0.331,-0.463C0.358,-0.461 0.38,-0.457 0.396,-0.45C0.412,-0.443 0.426,-0.433 0.437,-0.42C0.46,-0.394 0.472,-0.361 0.472,-0.32C0.472,-0.27 0.456,-0.225 0.425,-0.186C0.39,-0.143 0.344,-0.122 0.288,-0.122C0.243,-0.122 0.199,-0.135 0.156,-0.162C0.104,-0.195 0.078,-0.234 0.078,-0.281C0.078,-0.328 0.109,-0.372 0.171,-0.412C0.184,-0.421 0.192,-0.43 0.195,-0.44C0.198,-0.45 0.199,-0.457 0.199,-0.462C0.199,-0.468 0.198,-0.475 0.195,-0.483C0.192,-0.49 0.185,-0.497 0.174,-0.502C0.187,-0.507 0.202,-0.513 0.218,-0.521C0.234,-0.529 0.25,-0.533 0.267,-0.533C0.288,-0.533 0.305,-0.528 0.317,-0.518C0.329,-0.507 0.335,-0.494 0.335,-0.479ZM0.253,-0.395C0.248,-0.391 0.242,-0.387 0.236,-0.383C0.231,-0.379 0.225,-0.375 0.22,-0.372C0.192,-0.353 0.17,-0.336 0.155,-0.321C0.139,-0.306 0.131,-0.295 0.131,-0.286C0.131,-0.269 0.15,-0.251 0.188,-0.233C0.197,-0.229 0.209,-0.227 0.224,-0.227C0.236,-0.227 0.248,-0.229 0.261,-0.232C0.273,-0.234 0.284,-0.24 0.293,-0.247C0.315,-0.263 0.326,-0.285 0.326,-0.313C0.326,-0.33 0.319,-0.344 0.304,-0.357C0.289,-0.369 0.272,-0.382 0.253,-0.395Z" style="fill:rgb(119,9,115);fill-rule:nonzero;"/>
                </g>
                <g transform="matrix(75,0,0,75,1638.59,1765.71)">
                    <path d="M0.833,-0.29C0.808,-0.286 0.781,-0.281 0.754,-0.274C0.727,-0.267 0.699,-0.259 0.672,-0.248C0.665,-0.233 0.654,-0.218 0.64,-0.205C0.626,-0.192 0.608,-0.178 0.586,-0.165L0.572,-0.157C0.586,-0.154 0.598,-0.15 0.608,-0.145C0.617,-0.14 0.626,-0.133 0.634,-0.126C0.656,-0.104 0.667,-0.076 0.667,-0.041C0.667,0.003 0.652,0.041 0.621,0.072C0.588,0.107 0.545,0.125 0.492,0.125C0.471,0.125 0.45,0.122 0.429,0.117C0.408,0.112 0.388,0.103 0.367,0.092C0.318,0.065 0.293,0.031 0.293,-0.009C0.293,-0.058 0.335,-0.102 0.42,-0.142C0.418,-0.147 0.418,-0.151 0.419,-0.156C0.433,-0.157 0.447,-0.161 0.46,-0.166C0.472,-0.171 0.486,-0.177 0.499,-0.184C0.516,-0.193 0.528,-0.204 0.535,-0.22C0.542,-0.234 0.545,-0.252 0.545,-0.272L0.545,-0.589C0.545,-0.626 0.532,-0.658 0.505,-0.683C0.479,-0.708 0.444,-0.727 0.401,-0.742C0.425,-0.747 0.449,-0.752 0.472,-0.755C0.496,-0.758 0.517,-0.76 0.534,-0.76C0.554,-0.76 0.574,-0.758 0.593,-0.755C0.612,-0.752 0.628,-0.746 0.643,-0.737C0.658,-0.728 0.67,-0.717 0.679,-0.703C0.688,-0.689 0.692,-0.671 0.692,-0.65C0.692,-0.643 0.692,-0.637 0.692,-0.633C0.691,-0.629 0.69,-0.625 0.689,-0.621C0.688,-0.615 0.686,-0.608 0.685,-0.599C0.684,-0.59 0.683,-0.578 0.683,-0.561L0.683,-0.308C0.697,-0.32 0.711,-0.332 0.726,-0.343C0.74,-0.354 0.754,-0.365 0.767,-0.375C0.78,-0.384 0.793,-0.392 0.805,-0.399C0.816,-0.405 0.826,-0.409 0.834,-0.411C0.848,-0.414 0.86,-0.415 0.871,-0.412C0.882,-0.41 0.89,-0.406 0.898,-0.4C0.905,-0.394 0.91,-0.387 0.913,-0.378C0.916,-0.369 0.918,-0.36 0.918,-0.35C0.918,-0.331 0.91,-0.318 0.895,-0.309C0.88,-0.3 0.859,-0.294 0.833,-0.29ZM-0.012,-0.141C0.008,-0.145 0.025,-0.154 0.04,-0.169C0.055,-0.184 0.067,-0.199 0.078,-0.215L0.249,-0.464C0.238,-0.461 0.227,-0.459 0.216,-0.458C0.204,-0.457 0.193,-0.456 0.18,-0.456C0.16,-0.456 0.142,-0.464 0.127,-0.478C0.111,-0.494 0.101,-0.519 0.096,-0.554C0.105,-0.551 0.114,-0.549 0.123,-0.548C0.131,-0.547 0.138,-0.547 0.143,-0.547C0.158,-0.547 0.173,-0.549 0.189,-0.554C0.204,-0.558 0.22,-0.563 0.237,-0.568C0.256,-0.574 0.276,-0.58 0.297,-0.586C0.318,-0.592 0.341,-0.595 0.366,-0.595C0.375,-0.595 0.385,-0.595 0.394,-0.594C0.403,-0.593 0.41,-0.59 0.418,-0.587C0.425,-0.583 0.43,-0.578 0.435,-0.571C0.439,-0.564 0.441,-0.554 0.441,-0.543C0.441,-0.528 0.437,-0.517 0.429,-0.509C0.42,-0.501 0.409,-0.495 0.396,-0.49L0.322,-0.382C0.322,-0.381 0.323,-0.381 0.324,-0.381C0.335,-0.376 0.346,-0.369 0.357,-0.36C0.368,-0.35 0.381,-0.338 0.398,-0.323C0.4,-0.322 0.403,-0.321 0.406,-0.321C0.41,-0.32 0.414,-0.322 0.418,-0.326C0.423,-0.331 0.43,-0.341 0.437,-0.356C0.444,-0.37 0.452,-0.386 0.461,-0.404C0.455,-0.37 0.45,-0.341 0.447,-0.318C0.443,-0.294 0.442,-0.276 0.443,-0.265C0.446,-0.248 0.445,-0.232 0.441,-0.218C0.437,-0.204 0.424,-0.195 0.403,-0.191C0.387,-0.188 0.374,-0.192 0.364,-0.201C0.353,-0.21 0.347,-0.221 0.344,-0.232C0.342,-0.242 0.34,-0.252 0.338,-0.263C0.335,-0.274 0.333,-0.284 0.331,-0.294C0.328,-0.304 0.325,-0.313 0.322,-0.322C0.319,-0.33 0.315,-0.336 0.31,-0.34C0.305,-0.343 0.299,-0.343 0.292,-0.339L0.179,-0.175C0.166,-0.156 0.15,-0.142 0.131,-0.131C0.112,-0.12 0.093,-0.113 0.072,-0.11C0.059,-0.109 0.045,-0.11 0.03,-0.114C0.015,-0.117 0.001,-0.126 -0.012,-0.141ZM0.462,-0.099C0.456,-0.096 0.45,-0.093 0.445,-0.09C0.44,-0.087 0.434,-0.084 0.429,-0.081C0.376,-0.05 0.349,-0.027 0.349,-0.013C0.349,-0 0.366,0.013 0.401,0.027C0.41,0.03 0.42,0.032 0.433,0.032C0.458,0.032 0.48,0.027 0.497,0.016C0.516,0.004 0.526,-0.013 0.526,-0.035C0.526,-0.048 0.52,-0.06 0.506,-0.07C0.494,-0.079 0.479,-0.089 0.462,-0.099Z" style="fill:rgb(119,9,115);fill-rule:nonzero;"/>
                </g>
                <g transform="matrix(75,0,0,75,1707.59,1765.71)">
                    <path d="M0.479,-0.104C0.494,-0.111 0.508,-0.119 0.522,-0.128C0.535,-0.137 0.548,-0.148 0.559,-0.159C0.57,-0.17 0.578,-0.182 0.585,-0.196C0.592,-0.209 0.595,-0.224 0.595,-0.24L0.595,-0.31C0.568,-0.293 0.542,-0.285 0.519,-0.285C0.51,-0.285 0.501,-0.286 0.493,-0.288C0.484,-0.29 0.475,-0.294 0.466,-0.299C0.46,-0.266 0.458,-0.242 0.46,-0.228C0.461,-0.219 0.462,-0.211 0.462,-0.202C0.461,-0.193 0.46,-0.186 0.457,-0.179C0.454,-0.172 0.45,-0.166 0.445,-0.161C0.439,-0.156 0.431,-0.152 0.421,-0.151C0.406,-0.149 0.394,-0.152 0.385,-0.159C0.376,-0.166 0.368,-0.176 0.363,-0.189C0.361,-0.194 0.359,-0.202 0.357,-0.214C0.354,-0.226 0.351,-0.238 0.348,-0.251C0.345,-0.263 0.341,-0.274 0.337,-0.283C0.332,-0.292 0.327,-0.297 0.32,-0.297C0.314,-0.297 0.308,-0.294 0.301,-0.288L0.195,-0.158C0.18,-0.14 0.162,-0.125 0.143,-0.113C0.124,-0.101 0.103,-0.094 0.082,-0.092C0.068,-0.091 0.053,-0.092 0.037,-0.097C0.02,-0.101 0.005,-0.11 -0.008,-0.123C0.013,-0.128 0.032,-0.137 0.048,-0.15C0.063,-0.163 0.077,-0.177 0.09,-0.192L0.252,-0.39C0.239,-0.387 0.227,-0.385 0.215,-0.384C0.202,-0.382 0.189,-0.381 0.175,-0.381C0.154,-0.381 0.136,-0.389 0.12,-0.404C0.104,-0.419 0.094,-0.445 0.089,-0.481C0.098,-0.478 0.107,-0.476 0.116,-0.475C0.125,-0.474 0.132,-0.474 0.137,-0.474C0.15,-0.474 0.163,-0.475 0.176,-0.478C0.189,-0.482 0.203,-0.485 0.217,-0.489C0.226,-0.494 0.232,-0.5 0.234,-0.506C0.237,-0.512 0.239,-0.519 0.238,-0.528C0.237,-0.539 0.232,-0.549 0.223,-0.556C0.214,-0.563 0.201,-0.568 0.184,-0.573C0.201,-0.586 0.22,-0.596 0.242,-0.605C0.264,-0.614 0.285,-0.618 0.304,-0.618C0.31,-0.618 0.317,-0.618 0.325,-0.617C0.332,-0.616 0.339,-0.614 0.346,-0.611C0.353,-0.608 0.358,-0.604 0.363,-0.599C0.368,-0.594 0.37,-0.587 0.37,-0.578C0.37,-0.571 0.368,-0.563 0.365,-0.553C0.362,-0.543 0.356,-0.532 0.348,-0.521C0.351,-0.522 0.354,-0.522 0.357,-0.522L0.366,-0.522C0.376,-0.522 0.386,-0.522 0.395,-0.521C0.404,-0.52 0.412,-0.517 0.419,-0.514C0.426,-0.51 0.432,-0.504 0.437,-0.498C0.441,-0.491 0.443,-0.481 0.443,-0.47C0.443,-0.457 0.44,-0.446 0.434,-0.439C0.427,-0.431 0.419,-0.424 0.408,-0.419L0.342,-0.339C0.355,-0.334 0.367,-0.325 0.38,-0.314C0.393,-0.303 0.405,-0.292 0.416,-0.282C0.418,-0.28 0.421,-0.279 0.424,-0.279C0.427,-0.278 0.431,-0.28 0.435,-0.285C0.438,-0.29 0.443,-0.298 0.45,-0.311C0.441,-0.32 0.434,-0.332 0.429,-0.346C0.423,-0.361 0.42,-0.379 0.42,-0.4C0.433,-0.389 0.447,-0.383 0.461,-0.381C0.475,-0.378 0.488,-0.377 0.501,-0.377C0.532,-0.377 0.563,-0.385 0.595,-0.401L0.595,-0.589C0.595,-0.626 0.582,-0.658 0.556,-0.683C0.529,-0.708 0.494,-0.727 0.451,-0.742C0.475,-0.747 0.499,-0.752 0.523,-0.755C0.546,-0.758 0.567,-0.76 0.584,-0.76C0.604,-0.76 0.624,-0.758 0.643,-0.755C0.662,-0.752 0.678,-0.746 0.693,-0.737C0.708,-0.728 0.72,-0.717 0.729,-0.703C0.738,-0.689 0.742,-0.671 0.742,-0.65C0.742,-0.643 0.742,-0.637 0.742,-0.633C0.741,-0.629 0.74,-0.625 0.739,-0.621C0.738,-0.615 0.736,-0.608 0.735,-0.599C0.734,-0.59 0.733,-0.578 0.733,-0.561L0.733,-0.282C0.733,-0.256 0.726,-0.233 0.713,-0.213C0.699,-0.193 0.68,-0.176 0.657,-0.162C0.634,-0.147 0.607,-0.135 0.576,-0.126C0.545,-0.117 0.513,-0.109 0.479,-0.104ZM0.758,0.008C0.765,0.029 0.762,0.046 0.751,0.059C0.741,0.072 0.725,0.083 0.705,0.09C0.69,0.095 0.674,0.1 0.655,0.103C0.636,0.107 0.618,0.11 0.599,0.112C0.58,0.114 0.561,0.115 0.543,0.116C0.524,0.117 0.508,0.117 0.494,0.117C0.38,0.117 0.323,0.084 0.323,0.017C0.323,0.004 0.328,-0.008 0.337,-0.021C0.345,-0.033 0.357,-0.044 0.37,-0.054C0.383,-0.064 0.398,-0.073 0.413,-0.08C0.428,-0.086 0.442,-0.091 0.455,-0.094C0.442,-0.085 0.43,-0.074 0.419,-0.061C0.407,-0.048 0.402,-0.037 0.402,-0.026C0.402,-0.017 0.407,-0.01 0.417,-0.005C0.426,0 0.443,0.003 0.466,0.003C0.484,0.003 0.503,0.002 0.525,-0C0.546,-0.002 0.566,-0.004 0.586,-0.007C0.605,-0.01 0.623,-0.013 0.639,-0.016C0.654,-0.019 0.666,-0.021 0.673,-0.023C0.681,-0.025 0.689,-0.026 0.698,-0.027C0.707,-0.028 0.715,-0.027 0.723,-0.025C0.731,-0.024 0.738,-0.02 0.744,-0.015C0.75,-0.01 0.755,-0.002 0.758,0.008Z" style="fill:rgb(119,9,115);fill-rule:nonzero;"/>
                </g>
            </g>
            <g transform="matrix(1,0,0,1,79.7018,65.9384)">
                <g transform="matrix(1,0,0,1,0,30)">
                    <g transform="matrix(1,0,0,1,117.046,888.221)">
                        <g transform="matrix(270.833,0,0,270.833,1500.59,493.346)">
                            <path d="M0.203,-0.216C0.173,-0.165 0.124,-0.115 0.056,-0.064C0.037,-0.049 0.043,-0.042 0.072,-0.044C0.102,-0.045 0.138,-0.057 0.179,-0.078C0.218,-0.099 0.234,-0.118 0.229,-0.134C0.22,-0.156 0.226,-0.176 0.245,-0.193C0.263,-0.211 0.282,-0.244 0.302,-0.293C0.322,-0.375 0.33,-0.449 0.326,-0.516C0.32,-0.582 0.32,-0.619 0.326,-0.628C0.333,-0.641 0.32,-0.651 0.287,-0.657C0.253,-0.663 0.24,-0.655 0.248,-0.634C0.275,-0.467 0.26,-0.327 0.203,-0.216ZM0.45,-0.574C0.457,-0.553 0.461,-0.485 0.463,-0.37C0.464,-0.255 0.463,-0.187 0.461,-0.166C0.45,-0.135 0.461,-0.124 0.492,-0.132C0.522,-0.139 0.535,-0.15 0.531,-0.165C0.524,-0.185 0.522,-0.229 0.525,-0.298C0.528,-0.366 0.529,-0.423 0.529,-0.468C0.528,-0.513 0.533,-0.54 0.545,-0.548C0.558,-0.562 0.554,-0.573 0.533,-0.582C0.514,-0.588 0.493,-0.592 0.47,-0.594C0.455,-0.595 0.448,-0.588 0.45,-0.574ZM0.684,-0.728C0.686,-0.721 0.687,-0.709 0.687,-0.691C0.684,-0.53 0.688,-0.298 0.697,0.005C0.698,0.018 0.69,0.029 0.675,0.038C0.659,0.047 0.659,0.056 0.675,0.063C0.693,0.074 0.717,0.083 0.746,0.09C0.757,0.089 0.761,0.064 0.757,0.015C0.751,-0.268 0.751,-0.491 0.757,-0.654C0.756,-0.677 0.762,-0.694 0.773,-0.703C0.784,-0.713 0.781,-0.719 0.766,-0.722C0.749,-0.727 0.728,-0.731 0.705,-0.733C0.687,-0.735 0.68,-0.733 0.684,-0.728Z" style="fill:rgb(119,9,115);fill-rule:nonzero;"/>
                        </g>
                    </g>
                    <g transform="matrix(1,0,0,1,117.046,30.6494)">
                        <g transform="matrix(270.833,0,0,270.833,1500.59,483.628)">
                            <path d="M0.603,-0.082C0.619,-0.074 0.63,-0.07 0.636,-0.071C0.639,-0.072 0.643,-0.076 0.647,-0.084C0.68,-0.163 0.703,-0.206 0.717,-0.215C0.73,-0.224 0.735,-0.231 0.733,-0.237C0.718,-0.262 0.684,-0.28 0.629,-0.291C0.61,-0.296 0.563,-0.291 0.486,-0.278C0.428,-0.269 0.385,-0.263 0.358,-0.259C0.343,-0.256 0.332,-0.254 0.324,-0.255C0.315,-0.256 0.311,-0.247 0.313,-0.228C0.32,-0.173 0.341,-0.121 0.376,-0.07C0.384,-0.055 0.39,-0.05 0.394,-0.054C0.396,-0.059 0.405,-0.062 0.421,-0.064C0.516,-0.078 0.577,-0.084 0.603,-0.082ZM0.463,-0.2C0.428,-0.195 0.403,-0.191 0.388,-0.188C0.387,-0.201 0.388,-0.21 0.392,-0.216C0.409,-0.226 0.439,-0.233 0.482,-0.238C0.51,-0.242 0.537,-0.246 0.563,-0.251C0.586,-0.255 0.605,-0.252 0.618,-0.242C0.62,-0.238 0.619,-0.223 0.615,-0.196C0.608,-0.17 0.602,-0.152 0.596,-0.143C0.591,-0.135 0.561,-0.127 0.504,-0.119C0.446,-0.11 0.416,-0.108 0.414,-0.112C0.407,-0.117 0.402,-0.127 0.398,-0.143C0.399,-0.143 0.402,-0.144 0.406,-0.146C0.41,-0.148 0.429,-0.152 0.462,-0.158C0.493,-0.163 0.521,-0.167 0.546,-0.169C0.561,-0.16 0.568,-0.167 0.566,-0.188C0.563,-0.209 0.559,-0.218 0.555,-0.216C0.511,-0.209 0.48,-0.204 0.463,-0.2ZM0.238,0.021C0.252,0.049 0.264,0.061 0.273,0.056C0.334,0.038 0.42,0.026 0.531,0.02C0.625,0.015 0.707,0.022 0.777,0.041C0.789,0.048 0.796,0.042 0.798,0.021C0.799,0.002 0.797,-0.011 0.791,-0.017C0.782,-0.021 0.777,-0.028 0.775,-0.039C0.772,-0.05 0.767,-0.054 0.761,-0.052C0.751,-0.049 0.725,-0.047 0.682,-0.047C0.636,-0.047 0.589,-0.045 0.54,-0.041C0.434,-0.03 0.343,-0.018 0.267,-0.005C0.232,-0.016 0.223,-0.007 0.238,0.021ZM0.522,-0.322C0.617,-0.333 0.699,-0.329 0.77,-0.312C0.779,-0.305 0.784,-0.311 0.786,-0.328C0.787,-0.345 0.784,-0.356 0.778,-0.359C0.771,-0.363 0.767,-0.369 0.765,-0.378C0.761,-0.387 0.757,-0.391 0.753,-0.39C0.744,-0.386 0.718,-0.383 0.673,-0.382C0.628,-0.38 0.58,-0.376 0.531,-0.37C0.528,-0.377 0.527,-0.389 0.527,-0.404C0.565,-0.407 0.602,-0.409 0.637,-0.41C0.654,-0.401 0.662,-0.408 0.66,-0.433C0.657,-0.456 0.653,-0.467 0.647,-0.465C0.595,-0.457 0.554,-0.451 0.525,-0.447C0.524,-0.46 0.524,-0.475 0.526,-0.49C0.551,-0.493 0.579,-0.495 0.608,-0.495C0.639,-0.491 0.654,-0.499 0.652,-0.519C0.654,-0.546 0.658,-0.569 0.664,-0.589C0.743,-0.592 0.815,-0.585 0.882,-0.569C0.893,-0.562 0.9,-0.57 0.902,-0.591C0.901,-0.612 0.898,-0.625 0.893,-0.63C0.885,-0.633 0.879,-0.641 0.875,-0.652C0.87,-0.663 0.865,-0.667 0.859,-0.665C0.848,-0.66 0.81,-0.655 0.745,-0.652C0.726,-0.651 0.707,-0.65 0.689,-0.649C0.694,-0.66 0.701,-0.668 0.711,-0.674C0.725,-0.682 0.723,-0.691 0.706,-0.7C0.689,-0.709 0.671,-0.718 0.653,-0.726C0.632,-0.735 0.593,-0.734 0.536,-0.723C0.537,-0.742 0.539,-0.754 0.543,-0.758C0.551,-0.772 0.536,-0.784 0.499,-0.795C0.46,-0.806 0.447,-0.796 0.459,-0.765C0.46,-0.757 0.461,-0.738 0.463,-0.707C0.424,-0.697 0.391,-0.69 0.364,-0.687C0.353,-0.687 0.345,-0.686 0.339,-0.685C0.33,-0.684 0.327,-0.674 0.329,-0.654C0.329,-0.635 0.335,-0.628 0.347,-0.635C0.368,-0.642 0.399,-0.65 0.44,-0.659C0.447,-0.661 0.455,-0.663 0.463,-0.665L0.463,-0.624C0.461,-0.623 0.461,-0.621 0.463,-0.62C0.343,-0.601 0.239,-0.582 0.151,-0.561C0.116,-0.57 0.107,-0.56 0.124,-0.533C0.139,-0.506 0.152,-0.495 0.162,-0.501C0.235,-0.528 0.334,-0.551 0.461,-0.569C0.459,-0.554 0.459,-0.54 0.461,-0.526C0.43,-0.52 0.389,-0.51 0.336,-0.497C0.329,-0.495 0.326,-0.491 0.328,-0.485C0.329,-0.479 0.33,-0.472 0.332,-0.464C0.331,-0.456 0.35,-0.457 0.387,-0.467C0.411,-0.473 0.436,-0.478 0.461,-0.482C0.459,-0.466 0.459,-0.451 0.461,-0.438C0.418,-0.431 0.383,-0.425 0.358,-0.42C0.351,-0.419 0.345,-0.419 0.339,-0.419C0.332,-0.419 0.331,-0.414 0.337,-0.404C0.341,-0.395 0.345,-0.385 0.349,-0.376C0.351,-0.367 0.361,-0.368 0.378,-0.378C0.385,-0.382 0.412,-0.388 0.461,-0.396C0.46,-0.379 0.459,-0.367 0.457,-0.359C0.38,-0.347 0.313,-0.335 0.256,-0.323C0.228,-0.33 0.221,-0.323 0.234,-0.302C0.246,-0.281 0.256,-0.272 0.264,-0.275C0.325,-0.295 0.411,-0.311 0.522,-0.322ZM0.607,-0.674C0.611,-0.668 0.613,-0.657 0.613,-0.642C0.59,-0.64 0.566,-0.637 0.543,-0.633C0.537,-0.633 0.533,-0.632 0.531,-0.631C0.53,-0.648 0.53,-0.664 0.532,-0.678C0.571,-0.685 0.596,-0.684 0.607,-0.674ZM0.602,-0.585C0.596,-0.569 0.591,-0.557 0.587,-0.55C0.581,-0.546 0.57,-0.543 0.555,-0.542C0.546,-0.541 0.537,-0.54 0.527,-0.539C0.526,-0.544 0.526,-0.548 0.528,-0.553L0.528,-0.577C0.551,-0.582 0.576,-0.584 0.602,-0.585Z" style="fill:rgb(119,9,115);fill-rule:nonzero;"/>
                        </g>
                    </g>
                </g>
                <g transform="matrix(1,0,0,1,117.046,630.408)">
                    <g transform="matrix(270.833,0,0,270.833,1500.59,493.346)">
                        <path d="M0.833,-0.317C0.845,-0.31 0.852,-0.318 0.854,-0.34C0.854,-0.362 0.85,-0.375 0.842,-0.379C0.833,-0.383 0.827,-0.391 0.823,-0.402C0.818,-0.413 0.812,-0.417 0.807,-0.415C0.794,-0.41 0.758,-0.404 0.697,-0.399C0.634,-0.394 0.57,-0.386 0.503,-0.374C0.472,-0.368 0.441,-0.362 0.412,-0.356C0.41,-0.365 0.409,-0.381 0.409,-0.403C0.418,-0.412 0.431,-0.418 0.446,-0.422C0.514,-0.441 0.576,-0.455 0.633,-0.464C0.64,-0.465 0.642,-0.476 0.64,-0.495C0.638,-0.514 0.632,-0.522 0.622,-0.521C0.558,-0.506 0.495,-0.492 0.433,-0.48C0.424,-0.477 0.416,-0.478 0.408,-0.481C0.407,-0.492 0.407,-0.504 0.409,-0.516L0.409,-0.521C0.418,-0.529 0.431,-0.535 0.446,-0.539C0.511,-0.556 0.57,-0.569 0.625,-0.577C0.632,-0.578 0.634,-0.589 0.632,-0.608C0.63,-0.627 0.624,-0.636 0.614,-0.634C0.552,-0.62 0.492,-0.608 0.433,-0.597C0.424,-0.594 0.417,-0.594 0.411,-0.598C0.411,-0.623 0.412,-0.643 0.414,-0.658C0.429,-0.663 0.448,-0.666 0.471,-0.668C0.513,-0.671 0.551,-0.679 0.584,-0.69C0.618,-0.701 0.643,-0.704 0.658,-0.699C0.679,-0.692 0.682,-0.704 0.669,-0.734C0.654,-0.764 0.638,-0.776 0.622,-0.771C0.539,-0.745 0.463,-0.729 0.393,-0.724C0.387,-0.726 0.382,-0.727 0.378,-0.728C0.341,-0.737 0.328,-0.728 0.34,-0.699C0.343,-0.687 0.344,-0.646 0.344,-0.576C0.343,-0.506 0.343,-0.45 0.345,-0.409C0.344,-0.374 0.343,-0.351 0.341,-0.342C0.262,-0.325 0.192,-0.309 0.129,-0.292C0.09,-0.301 0.081,-0.29 0.101,-0.261C0.119,-0.232 0.133,-0.22 0.143,-0.226C0.188,-0.245 0.246,-0.263 0.316,-0.28C0.317,-0.255 0.315,-0.215 0.312,-0.158C0.303,-0.074 0.313,-0.005 0.342,0.049C0.349,0.072 0.356,0.083 0.361,0.083C0.365,0.084 0.381,0.067 0.408,0.034C0.461,-0.023 0.5,-0.072 0.525,-0.115C0.534,-0.136 0.528,-0.137 0.509,-0.118C0.448,-0.073 0.407,-0.054 0.386,-0.062C0.369,-0.064 0.363,-0.096 0.367,-0.159C0.368,-0.195 0.372,-0.229 0.378,-0.26C0.407,-0.258 0.436,-0.245 0.465,-0.222C0.496,-0.194 0.527,-0.174 0.556,-0.162C0.583,-0.15 0.609,-0.131 0.634,-0.104C0.657,-0.077 0.666,-0.053 0.662,-0.033C0.655,-0.016 0.666,-0.006 0.695,-0.005C0.722,-0.004 0.756,-0.001 0.795,0.003C0.833,0.007 0.876,0.003 0.925,-0.009C0.946,-0.014 0.937,-0.024 0.9,-0.039C0.861,-0.061 0.819,-0.078 0.776,-0.091C0.733,-0.103 0.691,-0.124 0.652,-0.153C0.631,-0.167 0.614,-0.18 0.601,-0.191C0.618,-0.196 0.635,-0.203 0.652,-0.212C0.672,-0.224 0.686,-0.232 0.693,-0.236C0.7,-0.241 0.707,-0.244 0.713,-0.244C0.726,-0.247 0.73,-0.252 0.727,-0.261C0.72,-0.268 0.711,-0.282 0.699,-0.302C0.686,-0.321 0.676,-0.322 0.668,-0.307C0.665,-0.301 0.656,-0.29 0.643,-0.274C0.629,-0.26 0.604,-0.24 0.569,-0.213C0.528,-0.242 0.503,-0.259 0.495,-0.265C0.48,-0.274 0.463,-0.285 0.445,-0.3C0.443,-0.301 0.441,-0.303 0.439,-0.305C0.454,-0.308 0.472,-0.31 0.491,-0.313C0.622,-0.334 0.736,-0.335 0.833,-0.317Z" style="fill:rgb(119,9,115);fill-rule:nonzero;"/>
                    </g>
                </g>
                <g transform="matrix(1,0,0,1,117.046,340.675)">
                    <g transform="matrix(270.833,0,0,270.833,1500.59,493.346)">
                        <path d="M0.44,-0.661C0.441,-0.652 0.448,-0.647 0.462,-0.646C0.474,-0.645 0.49,-0.641 0.509,-0.636C0.527,-0.631 0.541,-0.633 0.551,-0.643C0.56,-0.652 0.562,-0.659 0.559,-0.665C0.552,-0.678 0.543,-0.692 0.533,-0.705C0.523,-0.719 0.515,-0.736 0.509,-0.755C0.502,-0.774 0.496,-0.785 0.492,-0.79C0.475,-0.81 0.456,-0.802 0.437,-0.765C0.426,-0.739 0.427,-0.704 0.44,-0.661ZM0.444,-0.302C0.412,-0.263 0.386,-0.231 0.366,-0.204C0.352,-0.186 0.357,-0.181 0.38,-0.188C0.396,-0.196 0.411,-0.204 0.425,-0.212C0.424,-0.205 0.428,-0.201 0.436,-0.202C0.468,-0.203 0.498,-0.19 0.525,-0.165C0.512,-0.149 0.498,-0.134 0.484,-0.12C0.453,-0.093 0.427,-0.075 0.406,-0.065C0.385,-0.057 0.36,-0.045 0.333,-0.029C0.332,-0.037 0.332,-0.045 0.334,-0.053C0.336,-0.119 0.34,-0.213 0.346,-0.335C0.345,-0.341 0.345,-0.347 0.347,-0.353C0.348,-0.354 0.349,-0.356 0.351,-0.357C0.394,-0.415 0.423,-0.455 0.437,-0.477C0.448,-0.498 0.459,-0.512 0.471,-0.518C0.472,-0.52 0.473,-0.522 0.473,-0.524C0.572,-0.542 0.641,-0.547 0.68,-0.539C0.718,-0.53 0.74,-0.528 0.746,-0.532C0.761,-0.549 0.763,-0.565 0.751,-0.58C0.737,-0.595 0.727,-0.613 0.721,-0.632C0.714,-0.651 0.706,-0.656 0.698,-0.648C0.66,-0.628 0.583,-0.607 0.468,-0.584C0.353,-0.562 0.272,-0.548 0.225,-0.542C0.204,-0.542 0.199,-0.526 0.209,-0.495C0.217,-0.464 0.229,-0.452 0.244,-0.46C0.263,-0.475 0.305,-0.49 0.37,-0.504C0.361,-0.489 0.351,-0.473 0.342,-0.454C0.304,-0.393 0.246,-0.319 0.168,-0.23C0.131,-0.199 0.093,-0.169 0.054,-0.142C0.029,-0.123 0.028,-0.114 0.051,-0.114C0.086,-0.109 0.129,-0.121 0.18,-0.148C0.187,-0.153 0.193,-0.164 0.197,-0.182C0.2,-0.198 0.215,-0.217 0.242,-0.238C0.251,-0.246 0.262,-0.256 0.275,-0.269C0.278,-0.264 0.28,-0.256 0.28,-0.245L0.271,0.014C0.27,0.027 0.266,0.036 0.258,0.042C0.247,0.05 0.248,0.057 0.26,0.063C0.301,0.079 0.324,0.076 0.33,0.055C0.329,0.038 0.33,0.02 0.332,-0C0.372,0.002 0.41,-0.003 0.447,-0.015C0.474,-0.022 0.488,-0.036 0.488,-0.056C0.489,-0.07 0.509,-0.092 0.546,-0.121C0.55,-0.124 0.555,-0.129 0.561,-0.135C0.574,-0.123 0.589,-0.113 0.605,-0.105C0.627,-0.094 0.649,-0.075 0.67,-0.05C0.689,-0.025 0.696,-0.004 0.692,0.013C0.685,0.029 0.696,0.038 0.723,0.039C0.75,0.04 0.78,0.043 0.815,0.046C0.85,0.05 0.891,0.046 0.936,0.034C0.957,0.029 0.948,0.017 0.909,-0C0.873,-0.023 0.835,-0.041 0.796,-0.055C0.756,-0.068 0.719,-0.09 0.684,-0.12C0.65,-0.143 0.623,-0.162 0.604,-0.176C0.619,-0.194 0.637,-0.215 0.656,-0.238C0.692,-0.288 0.717,-0.32 0.73,-0.333C0.736,-0.34 0.746,-0.347 0.76,-0.355C0.773,-0.361 0.765,-0.373 0.736,-0.391C0.699,-0.419 0.66,-0.431 0.621,-0.427C0.611,-0.426 0.601,-0.428 0.592,-0.433C0.601,-0.446 0.612,-0.456 0.624,-0.465C0.639,-0.472 0.633,-0.483 0.605,-0.498C0.577,-0.514 0.561,-0.517 0.557,-0.508C0.55,-0.498 0.546,-0.488 0.544,-0.479C0.513,-0.409 0.479,-0.35 0.444,-0.302ZM0.578,-0.243C0.579,-0.242 0.58,-0.24 0.582,-0.238C0.573,-0.228 0.565,-0.217 0.56,-0.206C0.555,-0.209 0.552,-0.21 0.552,-0.211C0.538,-0.218 0.524,-0.228 0.511,-0.239C0.503,-0.244 0.496,-0.25 0.49,-0.256C0.494,-0.262 0.497,-0.269 0.499,-0.276C0.498,-0.289 0.501,-0.3 0.507,-0.311C0.531,-0.292 0.555,-0.27 0.578,-0.243ZM0.644,-0.372C0.649,-0.361 0.64,-0.335 0.617,-0.293C0.614,-0.296 0.611,-0.299 0.609,-0.301C0.604,-0.304 0.591,-0.31 0.571,-0.318C0.553,-0.326 0.537,-0.333 0.523,-0.339C0.53,-0.35 0.542,-0.366 0.558,-0.387C0.562,-0.389 0.568,-0.39 0.576,-0.39C0.613,-0.393 0.636,-0.387 0.644,-0.372Z" style="fill:rgb(119,9,115);fill-rule:nonzero;"/>
                    </g>
                </g>
            </g>
        </g>
    </g>
</svg>
