<?xml version="1.0" encoding="UTF-8" standalone="no"?>
<!DOCTYPE svg PUBLIC "-//W3C//DTD SVG 1.1//EN" "http://www.w3.org/Graphics/SVG/1.1/DTD/svg11.dtd">
<svg width="100%" height="100%" viewBox="0 0 1801 1800" version="1.1" xmlns="http://www.w3.org/2000/svg" xmlns:xlink="http://www.w3.org/1999/xlink" xml:space="preserve" xmlns:serif="http://www.serif.com/" style="fill-rule:evenodd;clip-rule:evenodd;stroke-linecap:square;stroke-linejoin:round;stroke-miterlimit:1.5;">
    <g transform="matrix(1,0,0,1,-23496,0)">
        <g id="PRE-M1R1" transform="matrix(1,0,0,1,23496.7,0)">
			<a xlink:href="M1R1.svg">
            <rect x="0" y="0" width="1800" height="1800" style="fill:none;"/>
            <g transform="matrix(1,0,0,1,149.469,149.453)">
                <rect x="0" y="0" width="1501.06" height="1501.09" style="fill:white;"/>
            </g>
            <g id="Meta-Ring-and-Background" serif:id="Meta-Ring and Background" transform="matrix(-1.09813,0,0,-1.09813,1706.03,2099.12)">
                <g transform="matrix(0.545852,-0.945443,0.9537,0.550619,-641.299,1170.26)">
                    <ellipse cx="692" cy="1046" rx="458" ry="454" style="fill:none;stroke:black;stroke-width:0.46px;"/>
                </g>
                <g transform="matrix(0.5,-0.866025,0.629632,0.363518,-412.931,1316.59)">
                    <path d="M768,524.038L768,568" style="fill:none;stroke:black;stroke-width:0.57px;"/>
                </g>
                <g transform="matrix(0.5,-0.866025,0.629632,0.363518,425.349,1800.57)">
                    <path d="M768,524.038L768,568" style="fill:none;stroke:black;stroke-width:0.57px;"/>
                </g>
                <g transform="matrix(-0.866025,-0.5,0.363518,-0.629632,1442.63,1400.58)">
                    <path d="M768,524.038L768,568" style="fill:none;stroke:black;stroke-width:0.57px;"/>
                </g>
                <g transform="matrix(-0.866025,-0.5,0.363518,-0.629632,958.61,2238.93)">
                    <path d="M768,524.038L768,568" style="fill:none;stroke:black;stroke-width:0.57px;"/>
                </g>
                <g transform="matrix(0.866025,-0.5,0.363518,0.629632,-371.594,713.016)">
                    <path d="M768,524.038L768,568" style="fill:none;stroke:black;stroke-width:0.57px;"/>
                </g>
                <g transform="matrix(0.866025,-0.5,0.363518,0.629632,112.404,1551.33)">
                    <path d="M768,524.038L768,568" style="fill:none;stroke:black;stroke-width:0.57px;"/>
                </g>
                <g transform="matrix(-0.5,-0.866025,0.629632,-0.363518,1193.38,1713.55)">
                    <path d="M768,524.038L768,568" style="fill:none;stroke:black;stroke-width:0.57px;"/>
                </g>
                <g transform="matrix(-0.5,-0.866025,0.629632,-0.363518,355.038,2197.57)">
                    <path d="M768,524.038L768,568" style="fill:none;stroke:black;stroke-width:0.57px;"/>
                </g>
                <g transform="matrix(1,0,0,0.727036,-34,210.969)">
                    <path d="M768,524.038L768,568" style="fill:none;stroke:black;stroke-width:0.57px;"/>
                </g>
                <g transform="matrix(1,0,0,0.727036,-34,1179)">
                    <path d="M768,524.038L768,568" style="fill:none;stroke:black;stroke-width:0.57px;"/>
                </g>
                <g transform="matrix(6.12323e-17,-1,0.727036,4.45181e-17,821.022,1859.96)">
                    <path d="M768,524.038L768,568" style="fill:none;stroke:black;stroke-width:0.57px;"/>
                </g>
                <g transform="matrix(6.12323e-17,-1,0.727036,4.45181e-17,-146.974,1859.96)">
                    <path d="M768,524.038L768,568" style="fill:none;stroke:black;stroke-width:0.57px;"/>
                </g>
            </g>
            <g transform="matrix(-1.09813,0,0,-1.09811,1707.13,2100.74)">
                <g transform="matrix(0.545852,-0.945443,0.9537,0.550619,-641.299,1170.26)">
                    <ellipse cx="692" cy="1046" rx="458" ry="454" style="fill:none;stroke:black;stroke-width:8.31px;stroke-linecap:round;"/>
                </g>
                <g transform="matrix(0.5,-0.866025,0.629632,0.363518,-412.931,1316.59)">
                    <path d="M768,524.038L768,568" style="fill:none;stroke:black;stroke-width:10.42px;stroke-linecap:round;"/>
                </g>
                <g transform="matrix(0.5,-0.866025,0.629632,0.363518,425.349,1800.57)">
                    <path d="M768,524.038L768,568" style="fill:none;stroke:black;stroke-width:10.42px;stroke-linecap:round;"/>
                </g>
                <g transform="matrix(-0.866025,-0.5,0.363518,-0.629632,1442.63,1400.58)">
                    <path d="M768,524.038L768,568" style="fill:none;stroke:black;stroke-width:10.42px;stroke-linecap:round;"/>
                </g>
                <g transform="matrix(-0.866025,-0.5,0.363518,-0.629632,958.61,2238.93)">
                    <path d="M768,524.038L768,568" style="fill:none;stroke:black;stroke-width:10.42px;stroke-linecap:round;"/>
                </g>
                <g transform="matrix(0.866025,-0.5,0.363518,0.629632,-371.594,713.016)">
                    <path d="M768,524.038L768,568" style="fill:none;stroke:black;stroke-width:10.42px;stroke-linecap:round;"/>
                </g>
                <g transform="matrix(0.866025,-0.5,0.363518,0.629632,112.404,1551.33)">
                    <path d="M768,524.038L768,568" style="fill:none;stroke:black;stroke-width:10.42px;stroke-linecap:round;"/>
                </g>
                <g transform="matrix(-0.5,-0.866025,0.629632,-0.363518,1193.38,1713.55)">
                    <path d="M768,524.038L768,568" style="fill:none;stroke:black;stroke-width:10.42px;stroke-linecap:round;"/>
                </g>
                <g transform="matrix(-0.5,-0.866025,0.629632,-0.363518,355.038,2197.57)">
                    <path d="M768,524.038L768,568" style="fill:none;stroke:black;stroke-width:10.42px;stroke-linecap:round;"/>
                </g>
                <g transform="matrix(1,0,0,0.727036,-34,210.969)">
                    <path d="M768,524.038L768,568" style="fill:none;stroke:black;stroke-width:10.42px;stroke-linecap:round;"/>
                </g>
                <g transform="matrix(1,0,0,0.727036,-34,1179)">
                    <path d="M768,524.038L768,568" style="fill:none;stroke:black;stroke-width:10.42px;stroke-linecap:round;"/>
                </g>
                <g transform="matrix(6.12323e-17,-1,0.727036,4.45181e-17,821.022,1859.96)">
                    <path d="M768,524.038L768,568" style="fill:none;stroke:black;stroke-width:10.42px;stroke-linecap:round;"/>
                </g>
                <g transform="matrix(6.12323e-17,-1,0.727036,4.45181e-17,-146.974,1859.96)">
                    <path d="M768,524.038L768,568" style="fill:none;stroke:black;stroke-width:10.42px;stroke-linecap:round;"/>
                </g>
            </g>
            <g id="_8" serif:id="8" transform="matrix(-1.39762,2.4207,-2.45799,-1.41909,2792.09,68.2044)">
                <ellipse cx="766" cy="526.5" rx="33" ry="32.5" style="stroke:white;stroke-width:8.52px;stroke-linecap:round;"/>
            </g>
            <g id="_7" serif:id="7" transform="matrix(-1.39762,2.4207,-2.45799,-1.41909,2996.19,262.572)">
                <ellipse cx="766" cy="526.5" rx="33" ry="32.5" style="stroke:white;stroke-width:8.52px;stroke-linecap:round;"/>
            </g>
            <g id="_4" serif:id="4" transform="matrix(-1.39762,2.4207,-2.45799,-1.41909,3737.58,66.0187)">
                <ellipse cx="766" cy="526.5" rx="33" ry="32.5" style="stroke:white;stroke-width:8.52px;stroke-linecap:round;"/>
            </g>
            <g id="_2" serif:id="2" transform="matrix(-1.39762,2.4207,-2.45799,-1.41909,3737.56,-478.63)">
                <ellipse cx="766" cy="526.5" rx="33" ry="32.5" style="stroke:white;stroke-width:8.52px;stroke-linecap:round;"/>
            </g>
				</a>
        </g>
    </g>
</svg>
