<?xml version="1.0" encoding="UTF-8" standalone="no"?>
<!DOCTYPE svg PUBLIC "-//W3C//DTD SVG 1.1//EN" "http://www.w3.org/Graphics/SVG/1.1/DTD/svg11.dtd">
<svg width="100%" height="100%" viewBox="0 0 1801 1801" version="1.1" xmlns="http://www.w3.org/2000/svg" xmlns:xlink="http://www.w3.org/1999/xlink" xml:space="preserve" xmlns:serif="http://www.serif.com/" style="fill-rule:evenodd;clip-rule:evenodd;stroke-linecap:square;stroke-linejoin:round;stroke-miterlimit:1.5;">
    <g transform="matrix(1,0,0,1,-10068,-12488)">
        <g id="M2L3" transform="matrix(1,0,0,1,10068.3,12488.4)">
            <rect x="0" y="0" width="1800" height="1800" style="fill:none;"/>
            <g transform="matrix(1,0,0,1,149.469,149.453)">
                <rect x="0" y="0" width="1501.06" height="1501.09" style="fill:white;"/>
            </g>
            <g id="Meta-Ring-and-Background" serif:id="Meta-Ring and Background" transform="matrix(-1.09813,0,0,-1.09813,1706.03,2099.12)">
                <g transform="matrix(0.545852,-0.945443,0.9537,0.550619,-641.299,1170.26)">
                    <ellipse cx="692" cy="1046" rx="458" ry="454" style="fill:none;stroke:black;stroke-width:0.46px;"/>
                </g>
                <g transform="matrix(0.5,-0.866025,0.629632,0.363518,-412.931,1316.59)">
                    <path d="M768,524.038L768,568" style="fill:none;stroke:black;stroke-width:0.57px;"/>
                </g>
                <g transform="matrix(0.5,-0.866025,0.629632,0.363518,425.349,1800.57)">
                    <path d="M768,524.038L768,568" style="fill:none;stroke:black;stroke-width:0.57px;"/>
                </g>
                <g transform="matrix(-0.866025,-0.5,0.363518,-0.629632,1442.63,1400.58)">
                    <path d="M768,524.038L768,568" style="fill:none;stroke:black;stroke-width:0.57px;"/>
                </g>
                <g transform="matrix(-0.866025,-0.5,0.363518,-0.629632,958.61,2238.93)">
                    <path d="M768,524.038L768,568" style="fill:none;stroke:black;stroke-width:0.57px;"/>
                </g>
                <g transform="matrix(0.866025,-0.5,0.363518,0.629632,-371.594,713.016)">
                    <path d="M768,524.038L768,568" style="fill:none;stroke:black;stroke-width:0.57px;"/>
                </g>
                <g transform="matrix(0.866025,-0.5,0.363518,0.629632,112.404,1551.33)">
                    <path d="M768,524.038L768,568" style="fill:none;stroke:black;stroke-width:0.57px;"/>
                </g>
                <g transform="matrix(-0.5,-0.866025,0.629632,-0.363518,1193.38,1713.55)">
                    <path d="M768,524.038L768,568" style="fill:none;stroke:black;stroke-width:0.57px;"/>
                </g>
                <g transform="matrix(-0.5,-0.866025,0.629632,-0.363518,355.038,2197.57)">
                    <path d="M768,524.038L768,568" style="fill:none;stroke:black;stroke-width:0.57px;"/>
                </g>
                <g transform="matrix(1,0,0,0.727036,-34,210.969)">
                    <path d="M768,524.038L768,568" style="fill:none;stroke:black;stroke-width:0.57px;"/>
                </g>
                <g transform="matrix(1,0,0,0.727036,-34,1179)">
                    <path d="M768,524.038L768,568" style="fill:none;stroke:black;stroke-width:0.57px;"/>
                </g>
                <g transform="matrix(6.12323e-17,-1,0.727036,4.45181e-17,821.022,1859.96)">
                    <path d="M768,524.038L768,568" style="fill:none;stroke:black;stroke-width:0.57px;"/>
                </g>
                <g transform="matrix(6.12323e-17,-1,0.727036,4.45181e-17,-146.974,1859.96)">
                    <path d="M768,524.038L768,568" style="fill:none;stroke:black;stroke-width:0.57px;"/>
                </g>
            </g>
            <g id="Child-Rings" serif:id="Child Rings" transform="matrix(-1,0,0,-1,1397.16,903.666)">
				<a xlink:href="PRE-M2L6.svg">
                <g id="_11" serif:id="11" transform="matrix(0.250435,0,0,0.250435,575.556,211.843)">
                    <g id="Ring-and-Background" serif:id="Ring and Background" transform="matrix(1,0,0,1,50.3923,-72.3542)">
                        <g id="white-background" serif:id="white background" transform="matrix(-3.84294,-0,-0,-4.02215,13582.9,30283.5)">
                            <ellipse cx="3348" cy="7256.93" rx="133" ry="127.074" style="fill:white;"/>
                        </g>
                        <g id="Ring" transform="matrix(0.841899,0,0,0.841899,98.8118,175.77)">
                            <g transform="matrix(0.545852,-0.945443,0.9537,0.550619,-641.299,1170.26)">
                                <ellipse cx="692" cy="1046" rx="458" ry="454" style="fill:none;stroke:black;stroke-width:10.83px;stroke-linecap:round;"/>
                            </g>
                            <g transform="matrix(0.5,-0.866025,0.629632,0.363518,-412.931,1316.59)">
                                <path d="M768,524.038L768,568" style="fill:none;stroke:black;stroke-width:13.59px;stroke-linecap:round;"/>
                            </g>
                            <g transform="matrix(0.5,-0.866025,0.629632,0.363518,425.349,1800.57)">
                                <path d="M768,524.038L768,568" style="fill:none;stroke:black;stroke-width:13.59px;stroke-linecap:round;"/>
                            </g>
                            <g transform="matrix(-0.866025,-0.5,0.363518,-0.629632,1442.63,1400.58)">
                                <path d="M768,524.038L768,568" style="fill:none;stroke:black;stroke-width:13.59px;stroke-linecap:round;"/>
                            </g>
                            <g transform="matrix(-0.866025,-0.5,0.363518,-0.629632,958.61,2238.93)">
                                <path d="M768,524.038L768,568" style="fill:none;stroke:black;stroke-width:13.59px;stroke-linecap:round;"/>
                            </g>
                            <g transform="matrix(0.866025,-0.5,0.363518,0.629632,-371.594,713.016)">
                                <path d="M768,524.038L768,568" style="fill:none;stroke:black;stroke-width:13.59px;stroke-linecap:round;"/>
                            </g>
                            <g transform="matrix(0.866025,-0.5,0.363518,0.629632,112.404,1551.33)">
                                <path d="M768,524.038L768,568" style="fill:none;stroke:black;stroke-width:13.59px;stroke-linecap:round;"/>
                            </g>
                            <g transform="matrix(-0.5,-0.866025,0.629632,-0.363518,1193.38,1713.55)">
                                <path d="M768,524.038L768,568" style="fill:none;stroke:black;stroke-width:13.59px;stroke-linecap:round;"/>
                            </g>
                            <g transform="matrix(-0.5,-0.866025,0.629632,-0.363518,355.038,2197.57)">
                                <path d="M768,524.038L768,568" style="fill:none;stroke:black;stroke-width:13.59px;stroke-linecap:round;"/>
                            </g>
                            <g transform="matrix(1,0,0,0.727036,-34,210.969)">
                                <path d="M768,524.038L768,568" style="fill:none;stroke:black;stroke-width:13.59px;stroke-linecap:round;"/>
                            </g>
                            <g transform="matrix(1,0,0,0.727036,-34,1179)">
                                <path d="M768,524.038L768,568" style="fill:none;stroke:black;stroke-width:13.59px;stroke-linecap:round;"/>
                            </g>
                            <g transform="matrix(6.12323e-17,-1,0.727036,4.45181e-17,821.022,1859.96)">
                                <path d="M768,524.038L768,568" style="fill:none;stroke:black;stroke-width:13.59px;stroke-linecap:round;"/>
                            </g>
                            <g transform="matrix(6.12323e-17,-1,0.727036,4.45181e-17,-146.974,1859.96)">
                                <path d="M768,524.038L768,568" style="fill:none;stroke:black;stroke-width:13.59px;stroke-linecap:round;"/>
                            </g>
                        </g>
                    </g>
                    <g id="Notes" transform="matrix(1,0,0,1,16.3923,-4.3923)">
                        <g id="_10" serif:id="10" transform="matrix(1.07151,-1.85591,1.88446,1.08799,-701.504,2085.37)">
                            <ellipse cx="766" cy="526.5" rx="33" ry="32.5" style="fill:rgb(128,0,255);stroke:white;stroke-width:11.11px;stroke-linecap:round;"/>
                        </g>
                        <g id="_6" serif:id="6" transform="matrix(1.07151,-1.85591,1.88446,1.08799,-1062.18,1457.5)">
                            <ellipse cx="766" cy="526.5" rx="33" ry="32.5" style="fill:rgb(128,0,255);stroke:white;stroke-width:11.11px;stroke-linecap:round;"/>
                        </g>
                        <g id="_1" serif:id="1" transform="matrix(1.07151,-1.85591,1.88446,1.08799,-1269.79,2236.07)">
                            <ellipse cx="766" cy="526.5" rx="33" ry="32.5" style="fill:rgb(128,0,255);stroke:white;stroke-width:11.11px;stroke-linecap:round;"/>
                        </g>
                    </g>
                    <g transform="matrix(0.841887,3.41591e-16,-3.25023e-16,0.751696,150.898,250.896)">
                        <g id="Root-Markers" serif:id="Root Markers">
                            <path id="_61" serif:id="6" d="M731.999,618L768,730L695.999,730L731.999,618ZM740.958,708.713L731.998,680.839L723.038,708.713L740.958,708.713Z"/>
                        </g>
                    </g>
                </g>
					</a>
                <g id="_101" serif:id="10" transform="matrix(0.250435,0,0,0.250435,770.305,14.0483)">
                    <g id="Ring-and-Background1" serif:id="Ring and Background" transform="matrix(1,0,0,1,50.3923,-72.3542)">
                        <g id="white-background1" serif:id="white background" transform="matrix(-3.84294,-0,-0,-4.02215,13582.9,30283.5)">
                            <ellipse cx="3348" cy="7256.93" rx="133" ry="127.074" style="fill:white;"/>
                        </g>
                        <g id="Ring1" serif:id="Ring" transform="matrix(0.841899,0,0,0.841899,98.8118,175.77)">
                            <g transform="matrix(0.545852,-0.945443,0.9537,0.550619,-641.299,1170.26)">
                                <ellipse cx="692" cy="1046" rx="458" ry="454" style="fill:none;stroke:black;stroke-width:10.83px;stroke-linecap:round;"/>
                            </g>
                            <g transform="matrix(0.5,-0.866025,0.629632,0.363518,-412.931,1316.59)">
                                <path d="M768,524.038L768,568" style="fill:none;stroke:black;stroke-width:13.59px;stroke-linecap:round;"/>
                            </g>
                            <g transform="matrix(0.5,-0.866025,0.629632,0.363518,425.349,1800.57)">
                                <path d="M768,524.038L768,568" style="fill:none;stroke:black;stroke-width:13.59px;stroke-linecap:round;"/>
                            </g>
                            <g transform="matrix(-0.866025,-0.5,0.363518,-0.629632,1442.63,1400.58)">
                                <path d="M768,524.038L768,568" style="fill:none;stroke:black;stroke-width:13.59px;stroke-linecap:round;"/>
                            </g>
                            <g transform="matrix(-0.866025,-0.5,0.363518,-0.629632,958.61,2238.93)">
                                <path d="M768,524.038L768,568" style="fill:none;stroke:black;stroke-width:13.59px;stroke-linecap:round;"/>
                            </g>
                            <g transform="matrix(0.866025,-0.5,0.363518,0.629632,-371.594,713.016)">
                                <path d="M768,524.038L768,568" style="fill:none;stroke:black;stroke-width:13.59px;stroke-linecap:round;"/>
                            </g>
                            <g transform="matrix(0.866025,-0.5,0.363518,0.629632,112.404,1551.33)">
                                <path d="M768,524.038L768,568" style="fill:none;stroke:black;stroke-width:13.59px;stroke-linecap:round;"/>
                            </g>
                            <g transform="matrix(-0.5,-0.866025,0.629632,-0.363518,1193.38,1713.55)">
                                <path d="M768,524.038L768,568" style="fill:none;stroke:black;stroke-width:13.59px;stroke-linecap:round;"/>
                            </g>
                            <g transform="matrix(-0.5,-0.866025,0.629632,-0.363518,355.038,2197.57)">
                                <path d="M768,524.038L768,568" style="fill:none;stroke:black;stroke-width:13.59px;stroke-linecap:round;"/>
                            </g>
                            <g transform="matrix(1,0,0,0.727036,-34,210.969)">
                                <path d="M768,524.038L768,568" style="fill:none;stroke:black;stroke-width:13.59px;stroke-linecap:round;"/>
                            </g>
                            <g transform="matrix(1,0,0,0.727036,-34,1179)">
                                <path d="M768,524.038L768,568" style="fill:none;stroke:black;stroke-width:13.59px;stroke-linecap:round;"/>
                            </g>
                            <g transform="matrix(6.12323e-17,-1,0.727036,4.45181e-17,821.022,1859.96)">
                                <path d="M768,524.038L768,568" style="fill:none;stroke:black;stroke-width:13.59px;stroke-linecap:round;"/>
                            </g>
                            <g transform="matrix(6.12323e-17,-1,0.727036,4.45181e-17,-146.974,1859.96)">
                                <path d="M768,524.038L768,568" style="fill:none;stroke:black;stroke-width:13.59px;stroke-linecap:round;"/>
                            </g>
                        </g>
                    </g>
                    <g transform="matrix(1.07151,-1.85591,1.88446,1.08799,-1407.48,1663.4)">
                        <g id="Notes1" serif:id="Notes">
                            <ellipse id="_4" serif:id="4" cx="766" cy="526.5" rx="33" ry="32.5" style="stroke:white;stroke-width:11.11px;stroke-linecap:round;"/>
                        </g>
                    </g>
                    <g id="Root-Markers1" serif:id="Root Markers">
                    </g>
                </g>
				<a xlink:href="PRE-M2L7.svg">
                <g id="_7" serif:id="7" transform="matrix(0.250435,0,0,0.250435,575.567,-714.769)">
                    <g id="Ring-and-Background2" serif:id="Ring and Background" transform="matrix(1,0,0,1,50.3923,-72.3542)">
                        <g id="white-background2" serif:id="white background" transform="matrix(-3.84294,-0,-0,-4.02215,13582.9,30283.5)">
                            <ellipse cx="3348" cy="7256.93" rx="133" ry="127.074" style="fill:white;"/>
                        </g>
                        <g id="Ring2" serif:id="Ring" transform="matrix(0.841899,0,0,0.841899,98.8118,175.77)">
                            <g transform="matrix(0.545852,-0.945443,0.9537,0.550619,-641.299,1170.26)">
                                <ellipse cx="692" cy="1046" rx="458" ry="454" style="fill:none;stroke:black;stroke-width:10.83px;stroke-linecap:round;"/>
                            </g>
                            <g transform="matrix(0.5,-0.866025,0.629632,0.363518,-412.931,1316.59)">
                                <path d="M768,524.038L768,568" style="fill:none;stroke:black;stroke-width:13.59px;stroke-linecap:round;"/>
                            </g>
                            <g transform="matrix(0.5,-0.866025,0.629632,0.363518,425.349,1800.57)">
                                <path d="M768,524.038L768,568" style="fill:none;stroke:black;stroke-width:13.59px;stroke-linecap:round;"/>
                            </g>
                            <g transform="matrix(-0.866025,-0.5,0.363518,-0.629632,1442.63,1400.58)">
                                <path d="M768,524.038L768,568" style="fill:none;stroke:black;stroke-width:13.59px;stroke-linecap:round;"/>
                            </g>
                            <g transform="matrix(-0.866025,-0.5,0.363518,-0.629632,958.61,2238.93)">
                                <path d="M768,524.038L768,568" style="fill:none;stroke:black;stroke-width:13.59px;stroke-linecap:round;"/>
                            </g>
                            <g transform="matrix(0.866025,-0.5,0.363518,0.629632,-371.594,713.016)">
                                <path d="M768,524.038L768,568" style="fill:none;stroke:black;stroke-width:13.59px;stroke-linecap:round;"/>
                            </g>
                            <g transform="matrix(0.866025,-0.5,0.363518,0.629632,112.404,1551.33)">
                                <path d="M768,524.038L768,568" style="fill:none;stroke:black;stroke-width:13.59px;stroke-linecap:round;"/>
                            </g>
                            <g transform="matrix(-0.5,-0.866025,0.629632,-0.363518,1193.38,1713.55)">
                                <path d="M768,524.038L768,568" style="fill:none;stroke:black;stroke-width:13.59px;stroke-linecap:round;"/>
                            </g>
                            <g transform="matrix(-0.5,-0.866025,0.629632,-0.363518,355.038,2197.57)">
                                <path d="M768,524.038L768,568" style="fill:none;stroke:black;stroke-width:13.59px;stroke-linecap:round;"/>
                            </g>
                            <g transform="matrix(1,0,0,0.727036,-34,210.969)">
                                <path d="M768,524.038L768,568" style="fill:none;stroke:black;stroke-width:13.59px;stroke-linecap:round;"/>
                            </g>
                            <g transform="matrix(1,0,0,0.727036,-34,1179)">
                                <path d="M768,524.038L768,568" style="fill:none;stroke:black;stroke-width:13.59px;stroke-linecap:round;"/>
                            </g>
                            <g transform="matrix(6.12323e-17,-1,0.727036,4.45181e-17,821.022,1859.96)">
                                <path d="M768,524.038L768,568" style="fill:none;stroke:black;stroke-width:13.59px;stroke-linecap:round;"/>
                            </g>
                            <g transform="matrix(6.12323e-17,-1,0.727036,4.45181e-17,-146.974,1859.96)">
                                <path d="M768,524.038L768,568" style="fill:none;stroke:black;stroke-width:13.59px;stroke-linecap:round;"/>
                            </g>
                        </g>
                    </g>
                    <g id="Notes2" serif:id="Notes" transform="matrix(1,0,0,1,16.3923,-4.3923)">
                        <g id="_8" serif:id="8" transform="matrix(1.07151,-1.85591,1.88446,1.08799,-698.993,1666.12)">
                            <ellipse cx="766" cy="526.5" rx="33" ry="32.5" style="fill:rgb(133,0,255);stroke:white;stroke-width:11.11px;stroke-linecap:round;"/>
                        </g>
                        <g id="_41" serif:id="4" transform="matrix(1.07151,-1.85591,1.88446,1.08799,-1423.87,1667.79)">
                            <ellipse cx="766" cy="526.5" rx="33" ry="32.5" style="fill:rgb(133,0,255);stroke:white;stroke-width:11.11px;stroke-linecap:round;"/>
                        </g>
                        <g id="_12" serif:id="1" transform="matrix(1.07151,-1.85591,1.88446,1.08799,-1269.79,2236.07)">
                            <ellipse cx="766" cy="526.5" rx="33" ry="32.5" style="fill:rgb(133,0,255);stroke:white;stroke-width:11.11px;stroke-linecap:round;"/>
                        </g>
                        <g transform="matrix(-3.99306,-0,-0,-3.99306,32601.2,36382.9)">
                            <path d="M7984.05,8060.61C8135.49,8082.25 8290.93,8074.68 8449.59,8043.66C8442.66,8365.65 8296.22,8591.29 8039.64,8740.85C8055.78,8546.1 8010.73,8362.38 7891.37,8192.05C7941.28,8165.73 7969.38,8119.35 7984.05,8060.61Z" style="fill:none;stroke:black;stroke-width:7.5px;stroke-linecap:round;"/>
                        </g>
                    </g>
                    <g transform="matrix(-0.729095,-0.420943,0.375848,-0.650988,914.619,2000.03)">
                        <g id="Root-Markers2" serif:id="Root Markers">
                            <path id="_13" serif:id="1" d="M768,730L695.999,730L731.999,618L768,730ZM723.039,708.715L740.958,708.715L731.999,680.84L723.039,708.715Z"/>
                        </g>
                    </g>
                </g>
					</a>
                <g id="_14" serif:id="1" transform="matrix(0.250435,0,0,0.250435,34.5027,212.843)">
                    <g id="Ring-and-Background3" serif:id="Ring and Background" transform="matrix(1,0,0,1,50.3923,-72.3542)">
                        <g id="white-background3" serif:id="white background" transform="matrix(-3.84294,-0,-0,-4.02215,13582.9,30283.5)">
                            <ellipse cx="3348" cy="7256.93" rx="133" ry="127.074" style="fill:white;"/>
                        </g>
                        <g id="Ring3" serif:id="Ring" transform="matrix(0.841899,0,0,0.841899,98.8118,175.77)">
                            <g transform="matrix(0.545852,-0.945443,0.9537,0.550619,-641.299,1170.26)">
                                <ellipse cx="692" cy="1046" rx="458" ry="454" style="fill:none;stroke:black;stroke-width:10.83px;stroke-linecap:round;"/>
                            </g>
                            <g transform="matrix(0.5,-0.866025,0.629632,0.363518,-412.931,1316.59)">
                                <path d="M768,524.038L768,568" style="fill:none;stroke:black;stroke-width:13.59px;stroke-linecap:round;"/>
                            </g>
                            <g transform="matrix(0.5,-0.866025,0.629632,0.363518,425.349,1800.57)">
                                <path d="M768,524.038L768,568" style="fill:none;stroke:black;stroke-width:13.59px;stroke-linecap:round;"/>
                            </g>
                            <g transform="matrix(-0.866025,-0.5,0.363518,-0.629632,1442.63,1400.58)">
                                <path d="M768,524.038L768,568" style="fill:none;stroke:black;stroke-width:13.59px;stroke-linecap:round;"/>
                            </g>
                            <g transform="matrix(-0.866025,-0.5,0.363518,-0.629632,958.61,2238.93)">
                                <path d="M768,524.038L768,568" style="fill:none;stroke:black;stroke-width:13.59px;stroke-linecap:round;"/>
                            </g>
                            <g transform="matrix(0.866025,-0.5,0.363518,0.629632,-371.594,713.016)">
                                <path d="M768,524.038L768,568" style="fill:none;stroke:black;stroke-width:13.59px;stroke-linecap:round;"/>
                            </g>
                            <g transform="matrix(0.866025,-0.5,0.363518,0.629632,112.404,1551.33)">
                                <path d="M768,524.038L768,568" style="fill:none;stroke:black;stroke-width:13.59px;stroke-linecap:round;"/>
                            </g>
                            <g transform="matrix(-0.5,-0.866025,0.629632,-0.363518,1193.38,1713.55)">
                                <path d="M768,524.038L768,568" style="fill:none;stroke:black;stroke-width:13.59px;stroke-linecap:round;"/>
                            </g>
                            <g transform="matrix(-0.5,-0.866025,0.629632,-0.363518,355.038,2197.57)">
                                <path d="M768,524.038L768,568" style="fill:none;stroke:black;stroke-width:13.59px;stroke-linecap:round;"/>
                            </g>
                            <g transform="matrix(1,0,0,0.727036,-34,210.969)">
                                <path d="M768,524.038L768,568" style="fill:none;stroke:black;stroke-width:13.59px;stroke-linecap:round;"/>
                            </g>
                            <g transform="matrix(1,0,0,0.727036,-34,1179)">
                                <path d="M768,524.038L768,568" style="fill:none;stroke:black;stroke-width:13.59px;stroke-linecap:round;"/>
                            </g>
                            <g transform="matrix(6.12323e-17,-1,0.727036,4.45181e-17,821.022,1859.96)">
                                <path d="M768,524.038L768,568" style="fill:none;stroke:black;stroke-width:13.59px;stroke-linecap:round;"/>
                            </g>
                            <g transform="matrix(6.12323e-17,-1,0.727036,4.45181e-17,-146.974,1859.96)">
                                <path d="M768,524.038L768,568" style="fill:none;stroke:black;stroke-width:13.59px;stroke-linecap:round;"/>
                            </g>
                        </g>
                    </g>
                    <g id="Notes3" serif:id="Notes" transform="matrix(1,0,0,1,16.3923,-4.3923)">
                        <g id="_111" serif:id="11" transform="matrix(1.07151,-1.85591,1.88446,1.08799,-851.373,2241.13)">
                            <ellipse cx="766" cy="526.5" rx="33" ry="32.5" style="fill:rgb(255,104,0);stroke:white;stroke-width:11.11px;stroke-linecap:round;"/>
                        </g>
                        <g id="_102" serif:id="10" transform="matrix(1.07151,-1.85591,1.88446,1.08799,-701.504,2085.37)">
                            <ellipse cx="766" cy="526.5" rx="33" ry="32.5" style="fill:rgb(255,104,0);stroke:white;stroke-width:11.11px;stroke-linecap:round;"/>
                        </g>
                        <g id="_71" serif:id="7" transform="matrix(1.07151,-1.85591,1.88446,1.08799,-855.471,1517.1)">
                            <ellipse cx="766" cy="526.5" rx="33" ry="32.5" style="fill:rgb(255,104,0);stroke:white;stroke-width:11.11px;stroke-linecap:round;"/>
                        </g>
                        <g id="_15" serif:id="1" transform="matrix(1.07151,-1.85591,1.88446,1.08799,-1269.79,2236.07)">
                            <ellipse cx="766" cy="526.5" rx="33" ry="32.5" style="fill:rgb(255,104,0);stroke:white;stroke-width:11.11px;stroke-linecap:round;"/>
                        </g>
                    </g>
                    <g transform="matrix(-0.729095,-0.420943,-0.375848,0.650988,1687.3,661.704)">
                        <g id="Root-Markers3" serif:id="Root Markers">
                            <path id="_72" serif:id="7" d="M768,730L731.999,618L695.999,730L768,730ZM732.002,680.839L740.961,708.714L723.042,708.714L732.002,680.839Z"/>
                        </g>
                    </g>
                </g>
            </g>
        </g>
    </g>
</svg>
