<?xml version="1.0" encoding="UTF-8" standalone="no"?>
<!DOCTYPE svg PUBLIC "-//W3C//DTD SVG 1.1//EN" "http://www.w3.org/Graphics/SVG/1.1/DTD/svg11.dtd">
<svg width="100%" height="100%" viewBox="0 0 1801 1801" version="1.1" xmlns="http://www.w3.org/2000/svg" xmlns:xlink="http://www.w3.org/1999/xlink" xml:space="preserve" xmlns:serif="http://www.serif.com/" style="fill-rule:evenodd;clip-rule:evenodd;stroke-linecap:square;stroke-linejoin:round;stroke-miterlimit:1.5;">
    <g transform="matrix(1,0,0,1,-9041,-10112)">
        <g id="M2L6" transform="matrix(1,0,0,1,9041.3,10112.4)">
            <rect x="0" y="0" width="1800" height="1800" style="fill:none;"/>
            <g transform="matrix(1,0,0,1,149.469,149.453)">
                <rect x="0" y="0" width="1501.06" height="1501.09" style="fill:white;"/>
            </g>
            <g id="Meta-Ring-and-Background" serif:id="Meta-Ring and Background" transform="matrix(-1.09813,0,0,-1.09813,1706.03,2099.12)">
                <g transform="matrix(0.545852,-0.945443,0.9537,0.550619,-641.299,1170.26)">
                    <ellipse cx="692" cy="1046" rx="458" ry="454" style="fill:none;stroke:black;stroke-width:0.46px;"/>
                </g>
                <g transform="matrix(0.5,-0.866025,0.629632,0.363518,-412.931,1316.59)">
                    <path d="M768,524.038L768,568" style="fill:none;stroke:black;stroke-width:0.57px;"/>
                </g>
                <g transform="matrix(0.5,-0.866025,0.629632,0.363518,425.349,1800.57)">
                    <path d="M768,524.038L768,568" style="fill:none;stroke:black;stroke-width:0.57px;"/>
                </g>
                <g transform="matrix(-0.866025,-0.5,0.363518,-0.629632,1442.63,1400.58)">
                    <path d="M768,524.038L768,568" style="fill:none;stroke:black;stroke-width:0.57px;"/>
                </g>
                <g transform="matrix(-0.866025,-0.5,0.363518,-0.629632,958.61,2238.93)">
                    <path d="M768,524.038L768,568" style="fill:none;stroke:black;stroke-width:0.57px;"/>
                </g>
                <g transform="matrix(0.866025,-0.5,0.363518,0.629632,-371.594,713.016)">
                    <path d="M768,524.038L768,568" style="fill:none;stroke:black;stroke-width:0.57px;"/>
                </g>
                <g transform="matrix(0.866025,-0.5,0.363518,0.629632,112.404,1551.33)">
                    <path d="M768,524.038L768,568" style="fill:none;stroke:black;stroke-width:0.57px;"/>
                </g>
                <g transform="matrix(-0.5,-0.866025,0.629632,-0.363518,1193.38,1713.55)">
                    <path d="M768,524.038L768,568" style="fill:none;stroke:black;stroke-width:0.57px;"/>
                </g>
                <g transform="matrix(-0.5,-0.866025,0.629632,-0.363518,355.038,2197.57)">
                    <path d="M768,524.038L768,568" style="fill:none;stroke:black;stroke-width:0.57px;"/>
                </g>
                <g transform="matrix(1,0,0,0.727036,-34,210.969)">
                    <path d="M768,524.038L768,568" style="fill:none;stroke:black;stroke-width:0.57px;"/>
                </g>
                <g transform="matrix(1,0,0,0.727036,-34,1179)">
                    <path d="M768,524.038L768,568" style="fill:none;stroke:black;stroke-width:0.57px;"/>
                </g>
                <g transform="matrix(6.12323e-17,-1,0.727036,4.45181e-17,821.022,1859.96)">
                    <path d="M768,524.038L768,568" style="fill:none;stroke:black;stroke-width:0.57px;"/>
                </g>
                <g transform="matrix(6.12323e-17,-1,0.727036,4.45181e-17,-146.974,1859.96)">
                    <path d="M768,524.038L768,568" style="fill:none;stroke:black;stroke-width:0.57px;"/>
                </g>
            </g>
            <g id="Child-Rings" serif:id="Child Rings" transform="matrix(-1,0,0,-1,1397.16,903.666)">
				<a xlink:href="PRE-M2L2.svg">
                <g id="_10" serif:id="10" transform="matrix(0.250435,0,0,0.250435,770.305,14.0483)">
                    <g id="Ring-and-Background" serif:id="Ring and Background" transform="matrix(1,0,0,1,50.3923,-72.3542)">
                        <g id="white-background" serif:id="white background" transform="matrix(-3.84294,-0,-0,-4.02215,13582.9,30283.5)">
                            <ellipse cx="3348" cy="7256.93" rx="133" ry="127.074" style="fill:white;"/>
                        </g>
                        <g id="Ring" transform="matrix(0.841899,0,0,0.841899,98.8118,175.77)">
                            <g transform="matrix(0.545852,-0.945443,0.9537,0.550619,-641.299,1170.26)">
                                <ellipse cx="692" cy="1046" rx="458" ry="454" style="fill:none;stroke:black;stroke-width:10.83px;stroke-linecap:round;"/>
                            </g>
                            <g transform="matrix(0.5,-0.866025,0.629632,0.363518,-412.931,1316.59)">
                                <path d="M768,524.038L768,568" style="fill:none;stroke:black;stroke-width:13.59px;stroke-linecap:round;"/>
                            </g>
                            <g transform="matrix(0.5,-0.866025,0.629632,0.363518,425.349,1800.57)">
                                <path d="M768,524.038L768,568" style="fill:none;stroke:black;stroke-width:13.59px;stroke-linecap:round;"/>
                            </g>
                            <g transform="matrix(-0.866025,-0.5,0.363518,-0.629632,1442.63,1400.58)">
                                <path d="M768,524.038L768,568" style="fill:none;stroke:black;stroke-width:13.59px;stroke-linecap:round;"/>
                            </g>
                            <g transform="matrix(-0.866025,-0.5,0.363518,-0.629632,958.61,2238.93)">
                                <path d="M768,524.038L768,568" style="fill:none;stroke:black;stroke-width:13.59px;stroke-linecap:round;"/>
                            </g>
                            <g transform="matrix(0.866025,-0.5,0.363518,0.629632,-371.594,713.016)">
                                <path d="M768,524.038L768,568" style="fill:none;stroke:black;stroke-width:13.59px;stroke-linecap:round;"/>
                            </g>
                            <g transform="matrix(0.866025,-0.5,0.363518,0.629632,112.404,1551.33)">
                                <path d="M768,524.038L768,568" style="fill:none;stroke:black;stroke-width:13.59px;stroke-linecap:round;"/>
                            </g>
                            <g transform="matrix(-0.5,-0.866025,0.629632,-0.363518,1193.38,1713.55)">
                                <path d="M768,524.038L768,568" style="fill:none;stroke:black;stroke-width:13.59px;stroke-linecap:round;"/>
                            </g>
                            <g transform="matrix(-0.5,-0.866025,0.629632,-0.363518,355.038,2197.57)">
                                <path d="M768,524.038L768,568" style="fill:none;stroke:black;stroke-width:13.59px;stroke-linecap:round;"/>
                            </g>
                            <g transform="matrix(1,0,0,0.727036,-34,210.969)">
                                <path d="M768,524.038L768,568" style="fill:none;stroke:black;stroke-width:13.59px;stroke-linecap:round;"/>
                            </g>
                            <g transform="matrix(1,0,0,0.727036,-34,1179)">
                                <path d="M768,524.038L768,568" style="fill:none;stroke:black;stroke-width:13.59px;stroke-linecap:round;"/>
                            </g>
                            <g transform="matrix(6.12323e-17,-1,0.727036,4.45181e-17,821.022,1859.96)">
                                <path d="M768,524.038L768,568" style="fill:none;stroke:black;stroke-width:13.59px;stroke-linecap:round;"/>
                            </g>
                            <g transform="matrix(6.12323e-17,-1,0.727036,4.45181e-17,-146.974,1859.96)">
                                <path d="M768,524.038L768,568" style="fill:none;stroke:black;stroke-width:13.59px;stroke-linecap:round;"/>
                            </g>
                        </g>
                    </g>
                    <g id="Notes" transform="matrix(1,0,0,1,16.3923,-4.3923)">
                        <g id="_9" serif:id="9" transform="matrix(1.07151,-1.85591,1.88446,1.08799,-641.245,1872.23)">
                            <ellipse cx="766" cy="526.5" rx="33" ry="32.5" style="fill:rgb(133,0,255);stroke:white;stroke-width:11.11px;stroke-linecap:round;"/>
                        </g>
                        <g id="_5" serif:id="5" transform="matrix(1.07151,-1.85591,1.88446,1.08799,-1271.91,1513.43)">
                            <ellipse cx="766" cy="526.5" rx="33" ry="32.5" style="fill:rgb(133,0,255);stroke:white;stroke-width:11.11px;stroke-linecap:round;"/>
                        </g>
                        <g id="_2" serif:id="2" transform="matrix(1.07151,-1.85591,1.88446,1.08799,-1423.86,2085.36)">
                            <ellipse cx="766" cy="526.5" rx="33" ry="32.5" style="fill:rgb(133,0,255);stroke:white;stroke-width:11.11px;stroke-linecap:round;"/>
                        </g>
                    </g>
                    <g transform="matrix(-0.420943,-0.729095,0.650988,-0.375848,407.17,1942.72)">
                        <g id="Root-Markers" serif:id="Root Markers">
                            <path id="_21" serif:id="2" d="M768,730L695.999,730L731.999,618L768,730ZM723.04,708.712L740.959,708.712L732,680.838L723.04,708.712Z"/>
                        </g>
                    </g>
                </g>
					</a>
				<a xlink:href="PRE-M2L7.svg">
                <g id="_6" serif:id="6" transform="matrix(0.250435,0,0,0.250435,303.035,-793.526)">
                    <g id="Ring-and-Background1" serif:id="Ring and Background" transform="matrix(1,0,0,1,50.3923,-72.3542)">
                        <g id="white-background1" serif:id="white background" transform="matrix(-3.84294,-0,-0,-4.02215,13582.9,30283.5)">
                            <ellipse cx="3348" cy="7256.93" rx="133" ry="127.074" style="fill:white;"/>
                        </g>
                        <g id="Ring1" serif:id="Ring" transform="matrix(0.841899,0,0,0.841899,98.8118,175.77)">
                            <g transform="matrix(0.545852,-0.945443,0.9537,0.550619,-641.299,1170.26)">
                                <ellipse cx="692" cy="1046" rx="458" ry="454" style="fill:none;stroke:black;stroke-width:10.83px;stroke-linecap:round;"/>
                            </g>
                            <g transform="matrix(0.5,-0.866025,0.629632,0.363518,-412.931,1316.59)">
                                <path d="M768,524.038L768,568" style="fill:none;stroke:black;stroke-width:13.59px;stroke-linecap:round;"/>
                            </g>
                            <g transform="matrix(0.5,-0.866025,0.629632,0.363518,425.349,1800.57)">
                                <path d="M768,524.038L768,568" style="fill:none;stroke:black;stroke-width:13.59px;stroke-linecap:round;"/>
                            </g>
                            <g transform="matrix(-0.866025,-0.5,0.363518,-0.629632,1442.63,1400.58)">
                                <path d="M768,524.038L768,568" style="fill:none;stroke:black;stroke-width:13.59px;stroke-linecap:round;"/>
                            </g>
                            <g transform="matrix(-0.866025,-0.5,0.363518,-0.629632,958.61,2238.93)">
                                <path d="M768,524.038L768,568" style="fill:none;stroke:black;stroke-width:13.59px;stroke-linecap:round;"/>
                            </g>
                            <g transform="matrix(0.866025,-0.5,0.363518,0.629632,-371.594,713.016)">
                                <path d="M768,524.038L768,568" style="fill:none;stroke:black;stroke-width:13.59px;stroke-linecap:round;"/>
                            </g>
                            <g transform="matrix(0.866025,-0.5,0.363518,0.629632,112.404,1551.33)">
                                <path d="M768,524.038L768,568" style="fill:none;stroke:black;stroke-width:13.59px;stroke-linecap:round;"/>
                            </g>
                            <g transform="matrix(-0.5,-0.866025,0.629632,-0.363518,1193.38,1713.55)">
                                <path d="M768,524.038L768,568" style="fill:none;stroke:black;stroke-width:13.59px;stroke-linecap:round;"/>
                            </g>
                            <g transform="matrix(-0.5,-0.866025,0.629632,-0.363518,355.038,2197.57)">
                                <path d="M768,524.038L768,568" style="fill:none;stroke:black;stroke-width:13.59px;stroke-linecap:round;"/>
                            </g>
                            <g transform="matrix(1,0,0,0.727036,-34,210.969)">
                                <path d="M768,524.038L768,568" style="fill:none;stroke:black;stroke-width:13.59px;stroke-linecap:round;"/>
                            </g>
                            <g transform="matrix(1,0,0,0.727036,-34,1179)">
                                <path d="M768,524.038L768,568" style="fill:none;stroke:black;stroke-width:13.59px;stroke-linecap:round;"/>
                            </g>
                            <g transform="matrix(6.12323e-17,-1,0.727036,4.45181e-17,821.022,1859.96)">
                                <path d="M768,524.038L768,568" style="fill:none;stroke:black;stroke-width:13.59px;stroke-linecap:round;"/>
                            </g>
                            <g transform="matrix(6.12323e-17,-1,0.727036,4.45181e-17,-146.974,1859.96)">
                                <path d="M768,524.038L768,568" style="fill:none;stroke:black;stroke-width:13.59px;stroke-linecap:round;"/>
                            </g>
                        </g>
                    </g>
                    <g id="Notes1" serif:id="Notes" transform="matrix(1,0,0,1,16.3923,-4.3923)">
                        <g id="_8" serif:id="8" transform="matrix(1.07151,-1.85591,1.88446,1.08799,-698.993,1666.12)">
                            <ellipse cx="766" cy="526.5" rx="33" ry="32.5" style="fill:rgb(133,0,255);stroke:white;stroke-width:11.11px;stroke-linecap:round;"/>
                        </g>
                        <g id="_4" serif:id="4" transform="matrix(1.07151,-1.85591,1.88446,1.08799,-1423.87,1667.79)">
                            <ellipse cx="766" cy="526.5" rx="33" ry="32.5" style="fill:rgb(133,0,255);stroke:white;stroke-width:11.11px;stroke-linecap:round;"/>
                        </g>
                        <g id="_1" serif:id="1" transform="matrix(1.07151,-1.85591,1.88446,1.08799,-1269.79,2236.07)">
                            <ellipse cx="766" cy="526.5" rx="33" ry="32.5" style="fill:rgb(133,0,255);stroke:white;stroke-width:11.11px;stroke-linecap:round;"/>
                        </g>
                    </g>
                    <g transform="matrix(-0.729095,-0.420943,0.375848,-0.650988,914.619,2000.03)">
                        <g id="Root-Markers1" serif:id="Root Markers">
                            <path id="_11" serif:id="1" d="M768,730L695.999,730L731.999,618L768,730ZM723.039,708.713L740.958,708.713L731.999,680.838L723.039,708.713Z"/>
                        </g>
                    </g>
                </g>
					</a>
                <g id="_12" serif:id="1" transform="matrix(0.250435,0,0,0.250435,34.5027,212.843)">
                    <g id="Ring-and-Background2" serif:id="Ring and Background" transform="matrix(1,0,0,1,50.3923,-72.3542)">
                        <g id="white-background2" serif:id="white background" transform="matrix(-3.84294,-0,-0,-4.02215,13582.9,30283.5)">
                            <ellipse cx="3348" cy="7256.93" rx="133" ry="127.074" style="fill:white;"/>
                        </g>
                        <g id="Ring2" serif:id="Ring" transform="matrix(0.841899,0,0,0.841899,98.8118,175.77)">
                            <g transform="matrix(0.545852,-0.945443,0.9537,0.550619,-641.299,1170.26)">
                                <ellipse cx="692" cy="1046" rx="458" ry="454" style="fill:none;stroke:black;stroke-width:10.83px;stroke-linecap:round;"/>
                            </g>
                            <g transform="matrix(0.5,-0.866025,0.629632,0.363518,-412.931,1316.59)">
                                <path d="M768,524.038L768,568" style="fill:none;stroke:black;stroke-width:13.59px;stroke-linecap:round;"/>
                            </g>
                            <g transform="matrix(0.5,-0.866025,0.629632,0.363518,425.349,1800.57)">
                                <path d="M768,524.038L768,568" style="fill:none;stroke:black;stroke-width:13.59px;stroke-linecap:round;"/>
                            </g>
                            <g transform="matrix(-0.866025,-0.5,0.363518,-0.629632,1442.63,1400.58)">
                                <path d="M768,524.038L768,568" style="fill:none;stroke:black;stroke-width:13.59px;stroke-linecap:round;"/>
                            </g>
                            <g transform="matrix(-0.866025,-0.5,0.363518,-0.629632,958.61,2238.93)">
                                <path d="M768,524.038L768,568" style="fill:none;stroke:black;stroke-width:13.59px;stroke-linecap:round;"/>
                            </g>
                            <g transform="matrix(0.866025,-0.5,0.363518,0.629632,-371.594,713.016)">
                                <path d="M768,524.038L768,568" style="fill:none;stroke:black;stroke-width:13.59px;stroke-linecap:round;"/>
                            </g>
                            <g transform="matrix(0.866025,-0.5,0.363518,0.629632,112.404,1551.33)">
                                <path d="M768,524.038L768,568" style="fill:none;stroke:black;stroke-width:13.59px;stroke-linecap:round;"/>
                            </g>
                            <g transform="matrix(-0.5,-0.866025,0.629632,-0.363518,1193.38,1713.55)">
                                <path d="M768,524.038L768,568" style="fill:none;stroke:black;stroke-width:13.59px;stroke-linecap:round;"/>
                            </g>
                            <g transform="matrix(-0.5,-0.866025,0.629632,-0.363518,355.038,2197.57)">
                                <path d="M768,524.038L768,568" style="fill:none;stroke:black;stroke-width:13.59px;stroke-linecap:round;"/>
                            </g>
                            <g transform="matrix(1,0,0,0.727036,-34,210.969)">
                                <path d="M768,524.038L768,568" style="fill:none;stroke:black;stroke-width:13.59px;stroke-linecap:round;"/>
                            </g>
                            <g transform="matrix(1,0,0,0.727036,-34,1179)">
                                <path d="M768,524.038L768,568" style="fill:none;stroke:black;stroke-width:13.59px;stroke-linecap:round;"/>
                            </g>
                            <g transform="matrix(6.12323e-17,-1,0.727036,4.45181e-17,821.022,1859.96)">
                                <path d="M768,524.038L768,568" style="fill:none;stroke:black;stroke-width:13.59px;stroke-linecap:round;"/>
                            </g>
                            <g transform="matrix(6.12323e-17,-1,0.727036,4.45181e-17,-146.974,1859.96)">
                                <path d="M768,524.038L768,568" style="fill:none;stroke:black;stroke-width:13.59px;stroke-linecap:round;"/>
                            </g>
                        </g>
                    </g>
                    <g id="Notes2" serif:id="Notes" transform="matrix(1,0,0,1,16.3923,-4.3923)">
                        <g id="_101" serif:id="10" transform="matrix(1.07151,-1.85591,1.88446,1.08799,-701.504,2085.37)">
                            <ellipse cx="766" cy="526.5" rx="33" ry="32.5" style="fill:rgb(255,104,0);stroke:white;stroke-width:11.11px;stroke-linecap:round;"/>
                        </g>
                        <g id="_61" serif:id="6" transform="matrix(1.07151,-1.85591,1.88446,1.08799,-1062.18,1457.5)">
                            <ellipse cx="766" cy="526.5" rx="33" ry="32.5" style="fill:rgb(255,104,0);stroke:white;stroke-width:11.11px;stroke-linecap:round;"/>
                        </g>
                        <g id="_13" serif:id="1" transform="matrix(1.07151,-1.85591,1.88446,1.08799,-1269.79,2236.07)">
                            <ellipse cx="766" cy="526.5" rx="33" ry="32.5" style="fill:rgb(255,104,0);stroke:white;stroke-width:11.11px;stroke-linecap:round;"/>
                        </g>
                    </g>
                    <g transform="matrix(0.841887,3.41591e-16,-3.25023e-16,0.751696,150.898,250.896)">
                        <g id="Root-Markers2" serif:id="Root Markers">
                            <path id="_62" serif:id="6" d="M731.999,618L768,730L695.999,730L731.999,618ZM740.958,708.716L731.998,680.842L723.039,708.716L740.958,708.716Z"/>
                        </g>
                    </g>
                </g>
            </g>
            <g transform="matrix(1,0,0,1,-6320,-5116)">
                <path d="M7489.81,5681.44C7528.57,6007.5 7471,6295.99 7341.51,6597.98" style="fill:none;stroke:black;stroke-width:7.5px;stroke-linecap:round;"/>
            </g>
            <g transform="matrix(1,0,0,1,-6320,-5116)">
                <path d="M7103.26,6613.62C7090.51,6222.89 6989.17,5934.1 6877.07,5681.44C7066.38,5651.85 7237.76,5579.72 7379.21,5483.4" style="fill:none;stroke:black;stroke-width:7.5px;stroke-linecap:round;"/>
            </g>
        </g>
    </g>
</svg>
