<?xml version="1.0" encoding="UTF-8" standalone="no"?>
<!DOCTYPE svg PUBLIC "-//W3C//DTD SVG 1.1//EN" "http://www.w3.org/Graphics/SVG/1.1/DTD/svg11.dtd">
<svg width="100%" height="100%" viewBox="0 0 1062 1301" version="1.1" xmlns="http://www.w3.org/2000/svg" xmlns:xlink="http://www.w3.org/1999/xlink" xml:space="preserve" xmlns:serif="http://www.serif.com/" style="fill-rule:evenodd;clip-rule:evenodd;stroke-linejoin:round;stroke-miterlimit:2;">
    <rect id="_11" serif:id="11" x="0.221" y="0.441" width="1060.8" height="1300" style="fill:none;"/>
    <g id="sounders-IN" serif:id="sounders IN">
        <g id="UVC-11" sound="UVC-11">
            <g id="U4">
                <g>
                    <path d="M140.541,532.742C140.401,532.568 140.183,532.454 139.961,532.43C139.077,532.331 138.236,531.883 137.68,531.188C137.125,530.494 136.835,529.604 136.933,528.721L137.205,526.27C137.256,525.807 136.954,525.394 136.492,525.343C134.556,525.128 133.191,523.388 133.406,521.453L133.845,517.505C133.896,517.042 133.549,516.635 133.086,516.583L126.688,515.873C125.665,515.759 124.729,515.239 124.085,514.435C123.442,513.631 123.145,512.602 123.259,511.579C123.283,511.356 123.215,511.159 123.076,510.985C122.936,510.81 122.73,510.724 122.508,510.7L118.399,510.244C119.09,511.233 119.681,512.309 120.155,513.472C120.509,514.342 120.789,515.237 121.008,516.142C123.52,521.008 126.768,526.287 131.137,531.645C127.294,527.596 124.144,523.52 121.555,519.649C121.906,524.151 121.003,528.477 119.998,530.956L121.272,531.098C123.207,531.313 124.596,533.118 124.381,535.053C124.329,535.516 124.656,535.995 125.119,536.046L127.57,536.318C128.453,536.416 129.266,536.829 129.82,537.524C130.376,538.218 130.635,539.088 130.537,539.973C130.512,540.194 130.578,540.403 130.718,540.577C130.858,540.752 131.063,540.85 131.284,540.874L139.047,541.735C139.437,541.779 139.846,541.518 139.889,541.128L140.751,533.366C140.775,533.143 140.681,532.917 140.541,532.742Z" style="fill:#7860ac;fill-rule:nonzero;stroke:#7860ac;stroke-width:1px;"/>
                    <path d="M117.877,509.539C121.426,508.383 124.981,506.205 126.688,504.498C130.333,500.853 130.333,494.922 126.688,491.278C124.922,489.512 122.575,488.54 120.079,488.54C117.582,488.54 115.234,489.513 113.468,491.278C112.427,492.32 110.967,494.409 109.766,496.845C108.566,494.409 107.106,492.32 106.064,491.278C104.298,489.512 101.951,488.54 99.454,488.54C96.957,488.54 94.61,489.513 92.845,491.278C91.079,493.044 90.106,495.391 90.106,497.888C90.106,498.874 90.261,499.837 90.553,500.75C89.951,501.076 89.286,501.283 88.605,501.33C87.329,501.417 86.03,501.041 85.066,500.2L79.037,494.945C78.602,494.566 78.066,494.582 77.686,495.018L74.444,498.737C72.854,500.561 70.028,500.7 68.205,499.111C67.768,498.73 67.049,498.725 66.669,499.16L64.656,501.47C63.93,502.303 62.934,502.839 61.831,502.914C60.729,502.99 59.657,502.637 58.825,501.912C58.616,501.729 58.356,501.649 58.079,501.668C57.801,501.687 57.557,501.827 57.375,502.036L51,509.35C50.68,509.716 50.657,510.32 51.023,510.639L58.337,517.015C58.546,517.197 58.844,517.26 59.121,517.241C59.399,517.222 59.669,517.08 59.851,516.87C60.577,516.038 61.631,515.497 62.733,515.421C63.835,515.346 64.949,515.681 65.781,516.406L68.09,518.419C68.526,518.799 69.162,518.783 69.542,518.347C71.131,516.524 73.874,516.363 75.697,517.953L79.417,521.195C79.852,521.575 80.514,521.51 80.894,521.074L86.114,515.085C87.105,513.228 88.664,511.101 90.685,509.163C83.751,508.211 75.799,507.727 66.9,508.42C76.54,506.935 85.266,506.885 92.676,507.443C93.32,506.944 93.997,506.471 94.707,506.034C96.001,506.955 97.619,507.886 99.337,508.646C94.281,510.721 90.787,515.466 89.696,517.908C89.665,517.977 88.194,521.275 86.495,525.087C83.457,531.9 78.287,537.521 71.79,541.106C71.22,541.422 70.803,541.957 70.637,542.587C70.471,543.217 70.569,543.889 70.911,544.443C72.544,547.094 76.799,551.749 87.85,557.273C89.543,558.119 91.283,558.728 92.939,559.324C93.141,561.385 94.409,563.283 96.436,564.188C99.135,565.394 102.248,564.424 103.827,562.037C104.659,562.127 105.443,562.218 106.156,562.177C107.375,562.105 108.3,561.912 108.996,561.679C110.173,561.284 110.847,560.057 110.551,558.852C108.738,551.476 109.434,543.684 112.548,536.724C114.253,532.915 115.719,529.615 115.75,529.545C117.073,526.583 119.332,515.562 112.309,510.266C112.672,510.317 113.05,510.347 113.448,510.347C114.825,510.346 116.351,510.036 117.877,509.539ZM96.001,501.342C95.078,500.419 94.57,499.192 94.57,497.888C94.57,496.583 95.078,495.357 96.001,494.434C96.923,493.511 98.15,493.003 99.454,493.003C100.759,493.003 101.986,493.512 102.908,494.434C103.976,495.502 105.596,498.036 106.625,500.812C107.024,501.886 107.244,502.752 107.354,503.442C107.575,504.818 107.356,505.484 107.203,505.637C107.09,505.751 106.729,505.883 106.084,505.883C104.309,505.883 101.803,504.957 99.661,503.83C98.112,503.014 96.753,502.094 96.001,501.342ZM112.11,504.965C112.022,504.244 112.123,502.927 112.908,500.812C113.937,498.035 115.557,495.502 116.625,494.434C117.548,493.511 118.774,493.003 120.079,493.003C121.383,493.003 122.61,493.511 123.532,494.434C125.436,496.338 125.436,499.437 123.532,501.342C121.801,503.073 116.865,505.693 113.773,505.872C113.662,505.878 113.554,505.882 113.448,505.882C112.803,505.882 112.443,505.75 112.329,505.637C112.251,505.558 112.156,505.341 112.11,504.965Z" style="fill:#7860ac;fill-rule:nonzero;stroke:#7860ac;stroke-width:1px;"/>
                </g>
            </g>
            <g id="U2">
                <path d="M127.868,231.998C123.209,217.931 109.831,208.067 94.754,208.067C79.676,208.067 66.299,217.932 61.638,231.998C57.727,232.714 54.754,236.145 54.754,240.26C54.754,243.878 57.055,246.97 60.272,248.149C61.394,255.673 64.936,262.601 70.475,267.976C77.014,274.324 85.638,277.82 94.754,277.82C103.87,277.82 112.493,274.324 119.033,267.976C124.571,262.601 128.113,255.673 129.236,248.15C132.452,246.973 134.754,243.88 134.754,240.26C134.754,236.145 131.78,232.712 127.868,231.998ZM94.754,212.796C108.004,212.796 119.231,221.357 123.273,233.24L66.234,233.24C70.276,221.357 81.503,212.796 94.754,212.796ZM96.527,273.034L96.527,264.524C99.234,263.753 101.219,261.268 101.219,258.314C101.219,254.741 98.324,251.848 94.754,251.848C91.184,251.848 88.288,254.741 88.288,258.314C88.288,261.268 90.273,263.753 92.98,264.524L92.98,273.034C78.61,272.199 66.951,261.3 64.932,247.279L124.576,247.279C122.556,261.301 110.898,272.2 96.527,273.034Z" style="fill:#7860ac;fill-rule:nonzero;stroke:#7860ac;stroke-width:2px;"/>
            </g>
        </g>
        <g id="UV-10" sound="UV-10">
            <g id="U3">
                <path d="M129.456,402.744L62.052,402.744C58.579,402.744 55.754,405.568 55.754,409.041C55.754,412.513 58.579,415.339 62.052,415.339L129.456,415.339C132.929,415.339 135.754,412.513 135.754,409.041C135.754,405.569 132.929,402.744 129.456,402.744Z" style="fill:#7860ac;fill-rule:nonzero;stroke:#7860ac;stroke-width:1px;"/>
                <path d="M125.543,398.064C124.027,395.544 123.225,392.671 123.225,389.756L123.225,375.941C123.225,362.244 113.111,350.654 99.608,348.758C100.605,347.612 101.149,346.171 101.149,344.643C101.149,341.171 98.323,338.347 94.85,338.347C91.379,338.347 88.554,341.171 88.554,344.643C88.554,346.278 89.208,347.846 90.364,349.024C77.536,351.576 68.284,362.808 68.284,375.941L68.284,389.757C68.284,392.671 67.482,395.543 65.966,398.064L65.712,398.486L125.797,398.486L125.543,398.064Z" style="fill:#7860ac;fill-rule:nonzero;stroke:#7860ac;stroke-width:1px;"/>
                <path d="M86.282,420.861C87,425.048 90.603,428.087 94.85,428.087C99.098,428.087 102.702,425.048 103.42,420.861L103.476,420.535L86.226,420.535L86.282,420.861Z" style="fill:#7860ac;fill-rule:nonzero;stroke:#7860ac;stroke-width:1px;"/>
            </g>
            <g id="U1">
                <g>
                    <path d="M125.97,136.607C121.827,129.324 119.623,121.213 119.629,112.938C119.63,112.488 119.63,112.043 119.63,111.603L71.201,111.603C71.201,112.043 71.202,112.488 71.202,112.939C71.209,121.213 69.009,129.323 64.868,136.606C85.03,140.42 105.809,140.42 125.97,136.607Z" style="fill:#7860ac;fill-rule:nonzero;stroke:#7860ac;stroke-width:1px;"/>
                    <path d="M129.661,142.202C129.301,141.727 128.951,141.246 128.61,140.762C117.67,142.94 106.546,144.034 95.422,144.034C84.295,144.034 73.171,142.94 62.23,140.761C61.889,141.244 61.541,141.724 61.183,142.197C60.371,143.267 60.197,144.625 60.716,145.833C61.235,147.04 62.381,147.943 63.785,148.251L63.955,148.289C76.572,151.064 89.533,152.142 102.419,151.531C103.393,154.433 106.4,156.548 109.961,156.548C114.128,156.548 117.537,153.651 117.815,149.986C120.915,149.508 124,148.934 127.065,148.256C128.467,147.946 129.611,147.042 130.128,145.836C130.645,144.629 130.472,143.272 129.661,142.202Z" style="fill:#7860ac;fill-rule:nonzero;stroke:#7860ac;stroke-width:1px;"/>
                    <path d="M119.629,107.04C119.627,103.527 119.622,101.056 119.622,100.979C119.622,95.009 116.898,89.607 112.507,85.702L115.175,92.255C116.099,94.545 115.261,97.088 113.089,98.581C111.995,99.334 110.632,99.748 109.252,99.748C108.679,99.748 108.115,99.679 107.572,99.545C106.468,100.972 104.663,101.889 102.637,101.957C102.558,101.96 102.479,101.961 102.4,101.961C99.756,101.961 97.376,100.466 96.477,98.24L95.492,95.797L94.508,98.237C93.611,100.465 91.231,101.962 88.585,101.962C88.506,101.962 88.427,101.961 88.349,101.958C86.328,101.89 84.528,100.978 83.423,99.559C82.871,99.698 82.298,99.769 81.715,99.769C80.341,99.769 78.987,99.357 77.899,98.609C75.724,97.112 74.889,94.56 75.819,92.25L78.591,85.424C74.033,89.344 71.194,94.854 71.194,100.959C71.194,101.036 71.195,103.518 71.198,107.04L119.629,107.04Z" style="fill:#7860ac;fill-rule:nonzero;stroke:#7860ac;stroke-width:1px;"/>
                    <path d="M79.43,80.574L85.964,80.574L80.606,93.804C80.429,94.242 80.589,94.706 81.002,94.99C81.212,95.135 81.462,95.205 81.713,95.205C81.958,95.205 82.203,95.138 82.414,95.007L84.251,93.86C84.538,93.682 84.876,93.589 85.216,93.589C85.406,93.589 85.598,93.618 85.782,93.677C86.294,93.843 86.686,94.218 86.832,94.688L87.431,96.614C87.57,97.064 88.019,97.38 88.539,97.397C88.554,97.398 88.57,97.398 88.585,97.398C89.088,97.398 89.539,97.116 89.71,96.69L95.492,82.356L101.274,96.69C101.446,97.116 101.897,97.398 102.4,97.398C102.415,97.398 102.43,97.398 102.445,97.397C102.966,97.379 103.414,97.062 103.554,96.614L104.153,94.686C104.299,94.216 104.691,93.839 105.203,93.673C105.389,93.614 105.582,93.584 105.774,93.584C106.113,93.584 106.448,93.676 106.734,93.853L108.57,94.993C108.776,95.121 109.015,95.184 109.253,95.184C109.511,95.184 109.768,95.11 109.983,94.962C110.396,94.678 110.556,94.242 110.379,93.804L105.021,80.574L111.573,80.574C114.44,80.574 116.493,78.339 116.493,75.773L116.493,69.507C116.493,67.863 115.657,66.341 114.075,65.506C113.261,65.077 112.405,64.862 111.505,64.862C110.651,64.862 109.812,65.073 109.029,65.46L101.751,69.119C100.98,68.276 99.824,67.797 98.513,67.797L92.47,67.797C91.16,67.797 89.992,68.276 89.221,69.117L81.933,65.453C81.148,65.065 80.268,64.87 79.384,64.87C78.457,64.87 77.483,65.084 76.673,65.511C75.09,66.346 73.999,67.863 73.999,69.507L73.999,75.773C73.999,78.339 76.562,80.574 79.43,80.574Z" style="fill:#7860ac;fill-rule:nonzero;stroke:#7860ac;stroke-width:1px;"/>
                </g>
            </g>
        </g>
    </g>
    <a href="START.svg">
    <g id="restart-link-votemarker" serif:id="restart link votemarker">
        <path d="M645.437,1152.53L645.437,1190.08C645.437,1200.44 637.023,1208.86 626.66,1208.86L430.54,1208.86C420.176,1208.86 411.763,1200.44 411.763,1190.08L411.763,1152.53C411.763,1142.16 420.176,1133.75 430.54,1133.75L626.66,1133.75C637.023,1133.75 645.437,1142.16 645.437,1152.53Z" style="fill:#82c072;stroke:#fff;stroke-width:2px;stroke-linecap:round;stroke-miterlimit:1.5;"/>
        <path d="M451.819,1152.96L451.319,1158.4C453.152,1154.5 455.808,1152.44 459.287,1152.21L459.287,1166.8C456.975,1166.8 455.277,1167.12 454.194,1167.74C453.11,1168.37 452.444,1169.24 452.194,1170.35C451.944,1171.46 451.819,1174.03 451.819,1178.05L451.819,1194.43L439.194,1194.43L439.194,1152.96L451.819,1152.96Z" style="fill:#fff;fill-rule:nonzero;"/>
        <path d="M490.694,1174.43L474.35,1174.43L474.35,1183.4C474.35,1185.27 474.485,1186.48 474.756,1187.02C475.027,1187.56 475.548,1187.83 476.319,1187.83C477.277,1187.83 477.917,1187.48 478.24,1186.76C478.563,1186.04 478.725,1184.65 478.725,1182.58L478.725,1177.12L490.694,1177.12L490.694,1180.18C490.694,1182.74 490.532,1184.71 490.209,1186.08C489.886,1187.46 489.131,1188.93 487.944,1190.49C486.756,1192.05 485.251,1193.23 483.428,1194.01C481.605,1194.79 479.319,1195.18 476.569,1195.18C473.902,1195.18 471.548,1194.79 469.506,1194.02C467.464,1193.25 465.876,1192.19 464.74,1190.85C463.605,1189.51 462.819,1188.03 462.381,1186.41C461.944,1184.8 461.725,1182.45 461.725,1179.37L461.725,1167.27C461.725,1163.65 462.214,1160.79 463.194,1158.69C464.173,1156.6 465.777,1155 468.006,1153.88C470.235,1152.77 472.798,1152.21 475.694,1152.21C479.235,1152.21 482.157,1152.88 484.459,1154.23C486.761,1155.57 488.376,1157.35 489.303,1159.57C490.23,1161.79 490.694,1164.91 490.694,1168.93L490.694,1174.43ZM478.037,1167.68L478.037,1164.65C478.037,1162.5 477.923,1161.12 477.694,1160.49C477.464,1159.87 476.996,1159.55 476.287,1159.55C475.412,1159.55 474.871,1159.82 474.662,1160.35C474.454,1160.88 474.35,1162.31 474.35,1164.65L474.35,1167.68L478.037,1167.68Z" style="fill:#fff;fill-rule:nonzero;"/>
        <path d="M520.6,1166.21L509.412,1166.21L509.412,1163.96C509.412,1162.04 509.303,1160.83 509.084,1160.32C508.865,1159.81 508.319,1159.55 507.444,1159.55C506.735,1159.55 506.204,1159.79 505.85,1160.26C505.496,1160.73 505.319,1161.43 505.319,1162.37C505.319,1163.64 505.407,1164.57 505.584,1165.16C505.761,1165.76 506.292,1166.41 507.178,1167.12C508.063,1167.82 509.881,1168.86 512.631,1170.21C516.298,1172 518.704,1173.69 519.85,1175.27C520.996,1176.86 521.569,1179.16 521.569,1182.18C521.569,1185.55 521.131,1188.1 520.256,1189.82C519.381,1191.54 517.917,1192.86 515.865,1193.79C513.813,1194.71 511.339,1195.18 508.444,1195.18C505.235,1195.18 502.49,1194.68 500.209,1193.68C497.928,1192.68 496.36,1191.32 495.506,1189.62C494.652,1187.91 494.225,1185.32 494.225,1181.87L494.225,1179.87L505.412,1179.87L505.412,1182.49C505.412,1184.72 505.553,1186.17 505.834,1186.83C506.115,1187.5 506.673,1187.83 507.506,1187.83C508.402,1187.83 509.027,1187.61 509.381,1187.16C509.735,1186.71 509.912,1185.77 509.912,1184.33C509.912,1182.36 509.683,1181.12 509.225,1180.62C508.746,1180.12 506.298,1178.64 501.881,1176.18C498.173,1174.1 495.912,1172.2 495.1,1170.51C494.287,1168.81 493.881,1166.79 493.881,1164.46C493.881,1161.15 494.319,1158.7 495.194,1157.13C496.069,1155.56 497.553,1154.35 499.647,1153.49C501.74,1152.64 504.173,1152.21 506.944,1152.21C509.694,1152.21 512.032,1152.56 513.959,1153.26C515.886,1153.95 517.365,1154.88 518.397,1156.02C519.428,1157.17 520.053,1158.23 520.272,1159.21C520.49,1160.19 520.6,1161.72 520.6,1163.8L520.6,1166.21Z" style="fill:#fff;fill-rule:nonzero;"/>
        <path d="M538.256,1147.43L538.256,1153.96L541.662,1153.96L541.662,1160.52L538.256,1160.52L538.256,1182.71C538.256,1185.44 538.397,1186.96 538.678,1187.27C538.959,1187.58 540.131,1187.74 542.194,1187.74L542.194,1194.43L537.1,1194.43C534.225,1194.43 532.173,1194.31 530.944,1194.07C529.714,1193.83 528.631,1193.28 527.694,1192.41C526.756,1191.55 526.173,1190.56 525.944,1189.44C525.714,1188.33 525.6,1185.71 525.6,1181.58L525.6,1160.52L522.881,1160.52L522.881,1153.96L525.6,1153.96L525.6,1147.43L538.256,1147.43Z" style="fill:#fff;fill-rule:nonzero;"/>
        <path d="M555.725,1169.02L543.881,1169.02L543.881,1166.24C543.881,1163.03 544.251,1160.56 544.99,1158.82C545.73,1157.08 547.214,1155.54 549.444,1154.21C551.673,1152.88 554.569,1152.21 558.131,1152.21C562.402,1152.21 565.621,1152.96 567.787,1154.48C569.954,1155.99 571.256,1157.84 571.694,1160.04C572.131,1162.24 572.35,1166.76 572.35,1173.62L572.35,1194.43L560.069,1194.43L560.069,1190.74C559.298,1192.22 558.303,1193.33 557.084,1194.07C555.865,1194.81 554.412,1195.18 552.725,1195.18C550.516,1195.18 548.49,1194.56 546.647,1193.32C544.803,1192.08 543.881,1189.37 543.881,1185.18L543.881,1181.77C543.881,1178.67 544.371,1176.55 545.35,1175.43C546.329,1174.3 548.756,1172.99 552.631,1171.49C556.777,1169.87 558.996,1168.77 559.287,1168.21C559.579,1167.65 559.725,1166.5 559.725,1164.77C559.725,1162.61 559.563,1161.19 559.24,1160.54C558.917,1159.88 558.381,1159.55 557.631,1159.55C556.777,1159.55 556.246,1159.83 556.037,1160.38C555.829,1160.93 555.725,1162.37 555.725,1164.68L555.725,1169.02ZM559.725,1174.71C557.704,1176.19 556.532,1177.43 556.209,1178.43C555.886,1179.43 555.725,1180.87 555.725,1182.74C555.725,1184.89 555.865,1186.27 556.147,1186.9C556.428,1187.52 556.985,1187.83 557.819,1187.83C558.61,1187.83 559.126,1187.59 559.365,1187.1C559.605,1186.61 559.725,1185.32 559.725,1183.24L559.725,1174.71Z" style="fill:#fff;fill-rule:nonzero;"/>
        <path d="M589.319,1152.96L588.819,1158.4C590.652,1154.5 593.308,1152.44 596.787,1152.21L596.787,1166.8C594.475,1166.8 592.777,1167.12 591.694,1167.74C590.61,1168.37 589.944,1169.24 589.694,1170.35C589.444,1171.46 589.319,1174.03 589.319,1178.05L589.319,1194.43L576.694,1194.43L576.694,1152.96L589.319,1152.96Z" style="fill:#fff;fill-rule:nonzero;"/>
        <path d="M614.069,1147.43L614.069,1153.96L617.475,1153.96L617.475,1160.52L614.069,1160.52L614.069,1182.71C614.069,1185.44 614.209,1186.96 614.49,1187.27C614.772,1187.58 615.944,1187.74 618.006,1187.74L618.006,1194.43L612.912,1194.43C610.037,1194.43 607.985,1194.31 606.756,1194.07C605.527,1193.83 604.444,1193.28 603.506,1192.41C602.569,1191.55 601.985,1190.56 601.756,1189.44C601.527,1188.33 601.412,1185.71 601.412,1181.58L601.412,1160.52L598.694,1160.52L598.694,1153.96L601.412,1153.96L601.412,1147.43L614.069,1147.43Z" style="fill:#fff;fill-rule:nonzero;"/>
    </g>
    </a>
    <g>
        <path d="M200.739,75.881L966.82,75.881" style="fill:none;fill-rule:nonzero;stroke:#000;stroke-width:1.09px;stroke-linejoin:bevel;stroke-miterlimit:4;"/>
        <path d="M200.739,85.801L966.82,85.801" style="fill:none;fill-rule:nonzero;stroke:#000;stroke-width:1.09px;stroke-linejoin:bevel;stroke-miterlimit:4;"/>
        <path d="M200.739,95.721L966.82,95.721" style="fill:none;fill-rule:nonzero;stroke:#000;stroke-width:1.09px;stroke-linejoin:bevel;stroke-miterlimit:4;"/>
        <path d="M200.739,105.641L966.82,105.641" style="fill:none;fill-rule:nonzero;stroke:#000;stroke-width:1.09px;stroke-linejoin:bevel;stroke-miterlimit:4;"/>
        <path d="M200.739,115.561L966.82,115.561" style="fill:none;fill-rule:nonzero;stroke:#000;stroke-width:1.09px;stroke-linejoin:bevel;stroke-miterlimit:4;"/>
        <path d="M200.739,228.221L966.82,228.221" style="fill:none;fill-rule:nonzero;stroke:#000;stroke-width:1.09px;stroke-linejoin:bevel;stroke-miterlimit:4;"/>
        <path d="M200.739,238.141L966.82,238.141" style="fill:none;fill-rule:nonzero;stroke:#000;stroke-width:1.09px;stroke-linejoin:bevel;stroke-miterlimit:4;"/>
        <path d="M200.739,248.061L966.82,248.061" style="fill:none;fill-rule:nonzero;stroke:#000;stroke-width:1.09px;stroke-linejoin:bevel;stroke-miterlimit:4;"/>
        <path d="M200.739,257.981L966.82,257.981" style="fill:none;fill-rule:nonzero;stroke:#000;stroke-width:1.09px;stroke-linejoin:bevel;stroke-miterlimit:4;"/>
        <path d="M200.739,267.901L966.82,267.901" style="fill:none;fill-rule:nonzero;stroke:#000;stroke-width:1.09px;stroke-linejoin:bevel;stroke-miterlimit:4;"/>
        <path d="M200.739,380.557L966.82,380.557" style="fill:none;fill-rule:nonzero;stroke:#000;stroke-width:1.09px;stroke-linejoin:bevel;stroke-miterlimit:4;"/>
        <path d="M200.739,390.477L966.82,390.477" style="fill:none;fill-rule:nonzero;stroke:#000;stroke-width:1.09px;stroke-linejoin:bevel;stroke-miterlimit:4;"/>
        <path d="M200.739,400.397L966.82,400.397" style="fill:none;fill-rule:nonzero;stroke:#000;stroke-width:1.09px;stroke-linejoin:bevel;stroke-miterlimit:4;"/>
        <path d="M200.739,410.317L966.82,410.317" style="fill:none;fill-rule:nonzero;stroke:#000;stroke-width:1.09px;stroke-linejoin:bevel;stroke-miterlimit:4;"/>
        <path d="M200.739,420.237L966.82,420.237" style="fill:none;fill-rule:nonzero;stroke:#000;stroke-width:1.09px;stroke-linejoin:bevel;stroke-miterlimit:4;"/>
        <path d="M200.739,532.897L966.82,532.897" style="fill:none;fill-rule:nonzero;stroke:#000;stroke-width:1.09px;stroke-linejoin:bevel;stroke-miterlimit:4;"/>
        <path d="M200.739,542.817L966.82,542.817" style="fill:none;fill-rule:nonzero;stroke:#000;stroke-width:1.09px;stroke-linejoin:bevel;stroke-miterlimit:4;"/>
        <path d="M200.739,552.737L966.82,552.737" style="fill:none;fill-rule:nonzero;stroke:#000;stroke-width:1.09px;stroke-linejoin:bevel;stroke-miterlimit:4;"/>
        <path d="M200.739,562.657L966.82,562.657" style="fill:none;fill-rule:nonzero;stroke:#000;stroke-width:1.09px;stroke-linejoin:bevel;stroke-miterlimit:4;"/>
        <path d="M200.739,572.577L966.82,572.577" style="fill:none;fill-rule:nonzero;stroke:#000;stroke-width:1.09px;stroke-linejoin:bevel;stroke-miterlimit:4;"/>
        <path d="M609.4,75.337L609.4,116.105" style="fill:none;fill-rule:nonzero;stroke:#000;stroke-width:1.78px;stroke-linejoin:bevel;stroke-miterlimit:4;"/>
        <path d="M952.238,90.761C952.238,89.61 951.326,88.658 950.175,88.658C949.024,88.658 948.112,89.61 948.112,90.761C948.112,91.912 949.024,92.864 950.175,92.864C951.326,92.864 952.238,91.912 952.238,90.761" style="fill-rule:nonzero;"/>
        <path d="M952.238,100.681C952.238,99.53 951.326,98.578 950.175,98.578C949.024,98.578 948.112,99.53 948.112,100.681C948.112,101.832 949.024,102.784 950.175,102.784C951.326,102.784 952.238,101.832 952.238,100.681" style="fill-rule:nonzero;"/>
        <path d="M956.8,75.337L956.8,116.105" style="fill:none;fill-rule:nonzero;stroke:#000;stroke-width:1.78px;stroke-linejoin:bevel;stroke-miterlimit:4;"/>
        <path d="M964.092,75.337L964.092,116.105" style="fill:none;fill-rule:nonzero;stroke:#000;stroke-width:5.46px;stroke-linejoin:bevel;stroke-miterlimit:4;"/>
        <path d="M201.632,75.337L201.632,116.105" style="fill:none;fill-rule:nonzero;stroke:#000;stroke-width:1.78px;stroke-linejoin:bevel;stroke-miterlimit:4;"/>
        <path d="M254.71,75.337L254.71,116.105" style="fill:none;fill-rule:nonzero;stroke:#000;stroke-width:5.46px;stroke-linejoin:bevel;stroke-miterlimit:4;"/>
        <path d="M262.001,75.337L262.001,116.105" style="fill:none;fill-rule:nonzero;stroke:#000;stroke-width:1.78px;stroke-linejoin:bevel;stroke-miterlimit:4;"/>
        <path d="M270.691,90.761C270.691,89.61 269.778,88.658 268.628,88.658C267.477,88.658 266.564,89.61 266.564,90.761C266.564,91.912 267.477,92.864 268.628,92.864C269.778,92.864 270.691,91.912 270.691,90.761" style="fill-rule:nonzero;"/>
        <path d="M270.691,100.681C270.691,99.53 269.778,98.578 268.628,98.578C267.477,98.578 266.564,99.53 266.564,100.681C266.564,101.832 267.477,102.784 268.628,102.784C269.778,102.784 270.691,101.832 270.691,100.681" style="fill-rule:nonzero;"/>
        <path d="M254.71,227.673L254.71,268.445" style="fill:none;fill-rule:nonzero;stroke:#000;stroke-width:5.46px;stroke-linejoin:bevel;stroke-miterlimit:4;"/>
        <path d="M262.001,227.673L262.001,268.445" style="fill:none;fill-rule:nonzero;stroke:#000;stroke-width:1.78px;stroke-linejoin:bevel;stroke-miterlimit:4;"/>
        <path d="M270.691,243.101C270.691,241.95 269.778,240.998 268.628,240.998C267.477,240.998 266.564,241.95 266.564,243.101C266.564,244.252 267.477,245.204 268.628,245.204C269.778,245.204 270.691,244.252 270.691,243.101" style="fill-rule:nonzero;"/>
        <path d="M270.691,253.021C270.691,251.87 269.778,250.918 268.628,250.918C267.477,250.918 266.564,251.87 266.564,253.021C266.564,254.172 267.477,255.124 268.628,255.124C269.778,255.124 270.691,254.172 270.691,253.021" style="fill-rule:nonzero;"/>
        <path d="M952.238,243.101C952.238,241.95 951.326,240.998 950.175,240.998C949.024,240.998 948.112,241.95 948.112,243.101C948.112,244.252 949.024,245.204 950.175,245.204C951.326,245.204 952.238,244.252 952.238,243.101" style="fill-rule:nonzero;"/>
        <path d="M952.238,253.021C952.238,251.87 951.326,250.918 950.175,250.918C949.024,250.918 948.112,251.87 948.112,253.021C948.112,254.172 949.024,255.124 950.175,255.124C951.326,255.124 952.238,254.172 952.238,253.021" style="fill-rule:nonzero;"/>
        <path d="M956.8,227.673L956.8,268.445" style="fill:none;fill-rule:nonzero;stroke:#000;stroke-width:1.78px;stroke-linejoin:bevel;stroke-miterlimit:4;"/>
        <path d="M964.092,227.673L964.092,268.445" style="fill:none;fill-rule:nonzero;stroke:#000;stroke-width:5.46px;stroke-linejoin:bevel;stroke-miterlimit:4;"/>
        <path d="M201.632,227.673L201.632,268.445" style="fill:none;fill-rule:nonzero;stroke:#000;stroke-width:1.78px;stroke-linejoin:bevel;stroke-miterlimit:4;"/>
        <path d="M609.4,227.673L609.4,268.445" style="fill:none;fill-rule:nonzero;stroke:#000;stroke-width:1.78px;stroke-linejoin:bevel;stroke-miterlimit:4;"/>
        <path d="M201.632,380.013L201.632,420.785" style="fill:none;fill-rule:nonzero;stroke:#000;stroke-width:1.78px;stroke-linejoin:bevel;stroke-miterlimit:4;"/>
        <path d="M254.71,380.013L254.71,420.785" style="fill:none;fill-rule:nonzero;stroke:#000;stroke-width:5.46px;stroke-linejoin:bevel;stroke-miterlimit:4;"/>
        <path d="M262.001,380.013L262.001,420.785" style="fill:none;fill-rule:nonzero;stroke:#000;stroke-width:1.78px;stroke-linejoin:bevel;stroke-miterlimit:4;"/>
        <path d="M270.691,395.437C270.691,394.286 269.778,393.334 268.628,393.334C267.477,393.334 266.564,394.286 266.564,395.437C266.564,396.588 267.477,397.54 268.628,397.54C269.778,397.54 270.691,396.588 270.691,395.437" style="fill-rule:nonzero;"/>
        <path d="M270.691,405.357C270.691,404.206 269.778,403.254 268.628,403.254C267.477,403.254 266.564,404.206 266.564,405.357C266.564,406.508 267.477,407.46 268.628,407.46C269.778,407.46 270.691,406.508 270.691,405.357" style="fill-rule:nonzero;"/>
        <path d="M609.4,380.013L609.4,420.785" style="fill:none;fill-rule:nonzero;stroke:#000;stroke-width:1.78px;stroke-linejoin:bevel;stroke-miterlimit:4;"/>
        <path d="M952.238,395.437C952.238,394.286 951.326,393.334 950.175,393.334C949.024,393.334 948.112,394.286 948.112,395.437C948.112,396.588 949.024,397.54 950.175,397.54C951.326,397.54 952.238,396.588 952.238,395.437" style="fill-rule:nonzero;"/>
        <path d="M952.238,405.357C952.238,404.206 951.326,403.254 950.175,403.254C949.024,403.254 948.112,404.206 948.112,405.357C948.112,406.508 949.024,407.46 950.175,407.46C951.326,407.46 952.238,406.508 952.238,405.357" style="fill-rule:nonzero;"/>
        <path d="M956.8,380.013L956.8,420.785" style="fill:none;fill-rule:nonzero;stroke:#000;stroke-width:1.78px;stroke-linejoin:bevel;stroke-miterlimit:4;"/>
        <path d="M964.092,380.013L964.092,420.785" style="fill:none;fill-rule:nonzero;stroke:#000;stroke-width:5.46px;stroke-linejoin:bevel;stroke-miterlimit:4;"/>
        <path d="M201.632,532.353L201.632,573.125" style="fill:none;fill-rule:nonzero;stroke:#000;stroke-width:1.78px;stroke-linejoin:bevel;stroke-miterlimit:4;"/>
        <path d="M609.4,532.353L609.4,573.125" style="fill:none;fill-rule:nonzero;stroke:#000;stroke-width:1.78px;stroke-linejoin:bevel;stroke-miterlimit:4;"/>
        <path d="M254.71,532.353L254.71,573.125" style="fill:none;fill-rule:nonzero;stroke:#000;stroke-width:5.46px;stroke-linejoin:bevel;stroke-miterlimit:4;"/>
        <path d="M262.001,532.353L262.001,573.125" style="fill:none;fill-rule:nonzero;stroke:#000;stroke-width:1.78px;stroke-linejoin:bevel;stroke-miterlimit:4;"/>
        <path d="M270.691,547.777C270.691,546.626 269.778,545.674 268.628,545.674C267.477,545.674 266.564,546.626 266.564,547.777C266.564,548.928 267.477,549.88 268.628,549.88C269.778,549.88 270.691,548.928 270.691,547.777" style="fill-rule:nonzero;"/>
        <path d="M270.691,557.697C270.691,556.546 269.778,555.594 268.628,555.594C267.477,555.594 266.564,556.546 266.564,557.697C266.564,558.848 267.477,559.8 268.628,559.8C269.778,559.8 270.691,558.848 270.691,557.697" style="fill-rule:nonzero;"/>
        <path d="M952.238,547.777C952.238,546.626 951.326,545.674 950.175,545.674C949.024,545.674 948.112,546.626 948.112,547.777C948.112,548.928 949.024,549.88 950.175,549.88C951.326,549.88 952.238,548.928 952.238,547.777" style="fill-rule:nonzero;"/>
        <path d="M952.238,557.697C952.238,556.546 951.326,555.594 950.175,555.594C949.024,555.594 948.112,556.546 948.112,557.697C948.112,558.848 949.024,559.8 950.175,559.8C951.326,559.8 952.238,558.848 952.238,557.697" style="fill-rule:nonzero;"/>
        <path d="M956.8,532.353L956.8,573.125" style="fill:none;fill-rule:nonzero;stroke:#000;stroke-width:1.78px;stroke-linejoin:bevel;stroke-miterlimit:4;"/>
        <path d="M964.092,532.353L964.092,573.125" style="fill:none;fill-rule:nonzero;stroke:#000;stroke-width:5.46px;stroke-linejoin:bevel;stroke-miterlimit:4;"/>
        <path d="M450.172,86.317C454.536,86.317 459.854,82.746 459.854,78.976C459.854,76.754 457.87,75.365 455.092,75.365C449.735,75.365 445.41,78.897 445.41,82.706C445.41,84.968 447.513,86.317 450.172,86.317" style="fill-rule:nonzero;"/>
        <path d="M708.617,91.277C712.982,91.277 718.299,87.706 718.299,83.936C718.299,81.714 716.315,80.325 713.537,80.325C708.181,80.325 703.856,83.857 703.856,87.666C703.856,89.928 705.959,91.277 708.617,91.277" style="fill-rule:nonzero;"/>
        <path d="M531.333,76.397C535.698,76.397 541.015,72.826 541.015,69.056C541.015,66.834 539.031,65.445 536.253,65.445C530.897,65.445 526.572,68.977 526.572,72.786C526.572,75.048 528.675,76.397 531.333,76.397" style="fill-rule:nonzero;"/>
        <path d="M369.01,91.277C373.375,91.277 378.692,87.706 378.692,83.936C378.692,81.714 376.708,80.325 373.931,80.325C368.574,80.325 364.249,83.857 364.249,87.666C364.249,89.928 366.352,91.277 369.01,91.277" style="fill-rule:nonzero;"/>
        <path d="M870.937,76.397C875.302,76.397 880.619,72.826 880.619,69.056C880.619,66.834 878.635,65.445 875.857,65.445C870.501,65.445 866.176,68.977 866.176,72.786C866.176,75.048 868.279,76.397 870.937,76.397" style="fill-rule:nonzero;"/>
        <path d="M287.849,86.317C292.214,86.317 297.531,82.746 297.531,78.976C297.531,76.754 295.547,75.365 292.769,75.365C287.413,75.365 283.088,78.897 283.088,82.706C283.088,84.968 285.191,86.317 287.849,86.317" style="fill-rule:nonzero;"/>
        <path d="M789.777,86.317C794.142,86.317 799.459,82.746 799.459,78.976C799.459,76.754 797.475,75.365 794.697,75.365C789.341,75.365 785.016,78.897 785.016,82.706C785.016,84.968 787.119,86.317 789.777,86.317" style="fill-rule:nonzero;"/>
        <path d="M627.453,86.317C631.818,86.317 637.135,82.746 637.135,78.976C637.135,76.754 635.151,75.365 632.373,75.365C627.017,75.365 622.692,78.897 622.692,82.706C622.692,84.968 624.795,86.317 627.453,86.317" style="fill-rule:nonzero;"/>
        <path d="M531.333,263.457C535.698,263.457 541.015,259.886 541.015,256.116C541.015,253.894 539.031,252.505 536.253,252.505C530.897,252.505 526.572,256.037 526.572,259.846C526.572,262.108 528.675,263.457 531.333,263.457" style="fill-rule:nonzero;"/>
        <path d="M870.937,263.457C875.302,263.457 880.619,259.886 880.619,256.116C880.619,253.894 878.635,252.505 875.857,252.505C870.501,252.505 866.176,256.037 866.176,259.846C866.176,262.108 868.279,263.457 870.937,263.457" style="fill-rule:nonzero;"/>
        <path d="M287.849,258.497C292.214,258.497 297.531,254.926 297.531,251.156C297.531,248.934 295.547,247.545 292.769,247.545C287.413,247.545 283.088,251.077 283.088,254.886C283.088,257.148 285.191,258.497 287.849,258.497" style="fill-rule:nonzero;"/>
        <path d="M369.01,253.537C373.375,253.537 378.692,249.966 378.692,246.196C378.692,243.974 376.708,242.585 373.931,242.585C368.574,242.585 364.249,246.117 364.249,249.926C364.249,252.188 366.352,253.537 369.01,253.537" style="fill-rule:nonzero;"/>
        <path d="M789.777,258.497C794.142,258.497 799.459,254.926 799.459,251.156C799.459,248.934 797.475,247.545 794.697,247.545C789.341,247.545 785.016,251.077 785.016,254.886C785.016,257.148 787.119,258.497 789.777,258.497" style="fill-rule:nonzero;"/>
        <path d="M450.172,258.497C454.536,258.497 459.854,254.926 459.854,251.156C459.854,248.934 457.87,247.545 455.092,247.545C449.735,247.545 445.41,251.077 445.41,254.886C445.41,257.148 447.513,258.497 450.172,258.497" style="fill-rule:nonzero;"/>
        <path d="M708.617,253.537C712.982,253.537 718.299,249.966 718.299,246.196C718.299,243.974 716.315,242.585 713.537,242.585C708.181,242.585 703.856,246.117 703.856,249.926C703.856,252.188 705.959,253.537 708.617,253.537" style="fill-rule:nonzero;"/>
        <path d="M627.453,258.497C631.818,258.497 637.135,254.926 637.135,251.156C637.135,248.934 635.151,247.545 632.373,247.545C627.017,247.545 622.692,251.077 622.692,254.886C622.692,257.148 624.795,258.497 627.453,258.497" style="fill-rule:nonzero;"/>
        <path d="M369.01,430.673C373.375,430.673 378.692,427.102 378.692,423.332C378.692,421.11 376.708,419.721 373.931,419.721C368.574,419.721 364.249,423.253 364.249,427.062C364.249,429.324 366.352,430.673 369.01,430.673" style="fill-rule:nonzero;"/>
        <path d="M531.333,415.793C535.698,415.793 541.015,412.222 541.015,408.452C541.015,406.23 539.031,404.841 536.253,404.841C530.897,404.841 526.572,408.373 526.572,412.182C526.572,414.444 528.675,415.793 531.333,415.793" style="fill-rule:nonzero;"/>
        <path d="M627.453,425.713C631.818,425.713 637.135,422.142 637.135,418.372C637.135,416.15 635.151,414.761 632.373,414.761C627.017,414.761 622.692,418.293 622.692,422.102C622.692,424.364 624.795,425.713 627.453,425.713" style="fill-rule:nonzero;"/>
        <path d="M870.937,415.793C875.302,415.793 880.619,412.222 880.619,408.452C880.619,406.23 878.635,404.841 875.857,404.841C870.501,404.841 866.176,408.373 866.176,412.182C866.176,414.444 868.279,415.793 870.937,415.793" style="fill-rule:nonzero;"/>
        <path d="M450.172,425.713C454.536,425.713 459.854,422.142 459.854,418.372C459.854,416.15 457.87,414.761 455.092,414.761C449.735,414.761 445.41,418.293 445.41,422.102C445.41,424.364 447.513,425.713 450.172,425.713" style="fill-rule:nonzero;"/>
        <path d="M287.849,425.713C292.214,425.713 297.531,422.142 297.531,418.372C297.531,416.15 295.547,414.761 292.769,414.761C287.413,414.761 283.088,418.293 283.088,422.102C283.088,424.364 285.191,425.713 287.849,425.713" style="fill-rule:nonzero;"/>
        <path d="M708.617,430.673C712.982,430.673 718.299,427.102 718.299,423.332C718.299,421.11 716.315,419.721 713.537,419.721C708.181,419.721 703.856,423.253 703.856,427.062C703.856,429.324 705.959,430.673 708.617,430.673" style="fill-rule:nonzero;"/>
        <path d="M789.777,425.713C794.142,425.713 799.459,422.142 799.459,418.372C799.459,416.15 797.475,414.761 794.697,414.761C789.341,414.761 785.016,418.293 785.016,422.102C785.016,424.364 787.119,425.713 789.777,425.713" style="fill-rule:nonzero;"/>
        <path d="M870.937,538.373C875.302,538.373 880.619,534.802 880.619,531.032C880.619,528.81 878.635,527.421 875.857,527.421C870.501,527.421 866.176,530.953 866.176,534.762C866.176,537.024 868.279,538.373 870.937,538.373" style="fill-rule:nonzero;"/>
        <path d="M708.617,538.373C712.982,538.373 718.299,534.802 718.299,531.032C718.299,528.81 716.315,527.421 713.537,527.421C708.181,527.421 703.856,530.953 703.856,534.762C703.856,537.024 705.959,538.373 708.617,538.373" style="fill-rule:nonzero;"/>
        <path d="M450.172,533.413C454.536,533.413 459.854,529.842 459.854,526.072C459.854,523.85 457.87,522.461 455.092,522.461C449.735,522.461 445.41,525.993 445.41,529.802C445.41,532.064 447.513,533.413 450.172,533.413" style="fill-rule:nonzero;"/>
        <path d="M789.777,533.413C794.142,533.413 799.459,529.842 799.459,526.072C799.459,523.85 797.475,522.461 794.697,522.461C789.341,522.461 785.016,525.993 785.016,529.802C785.016,532.064 787.119,533.413 789.777,533.413" style="fill-rule:nonzero;"/>
        <path d="M369.01,538.373C373.375,538.373 378.692,534.802 378.692,531.032C378.692,528.81 376.708,527.421 373.931,527.421C368.574,527.421 364.249,530.953 364.249,534.762C364.249,537.024 366.352,538.373 369.01,538.373" style="fill-rule:nonzero;"/>
        <path d="M287.849,543.333C292.214,543.333 297.531,539.762 297.531,535.992C297.531,533.77 295.547,532.381 292.769,532.381C287.413,532.381 283.088,535.913 283.088,539.722C283.088,541.984 285.191,543.333 287.849,543.333" style="fill-rule:nonzero;"/>
        <path d="M627.453,543.333C631.818,543.333 637.135,539.762 637.135,535.992C637.135,533.77 635.151,532.381 632.373,532.381C627.017,532.381 622.692,535.913 622.692,539.722C622.692,541.984 624.795,543.333 627.453,543.333" style="fill-rule:nonzero;"/>
        <path d="M531.333,538.373C535.698,538.373 541.015,534.802 541.015,531.032C541.015,528.81 539.031,527.421 536.253,527.421C530.897,527.421 526.572,530.953 526.572,534.762C526.572,537.024 528.675,538.373 531.333,538.373" style="fill-rule:nonzero;"/>
        <path d="M226.63,113.815C225.836,113.974 225.082,114.053 224.329,114.053C218.654,114.053 213.813,110.085 213.813,104.094C213.813,99.253 217.226,94.928 220.718,91.912C221.392,91.317 222.027,90.761 222.622,90.166C222.979,92.309 223.257,94.174 223.535,95.801C219.924,96.872 217.464,100.681 217.464,104.411C217.464,107.189 219.646,110.998 222.821,110.998C223.138,110.998 223.495,110.839 223.495,110.482C223.495,110.125 223.098,109.927 222.622,109.609C221.075,108.657 220.202,107.625 220.202,105.681C220.202,103.26 221.987,101.316 224.329,100.761L226.63,113.815M223.138,73.024C223.495,71.437 225.321,67.271 227.384,67.271C227.979,67.271 228.931,69.215 228.931,71.953C228.931,76.08 225.876,79.175 223.138,81.873C222.9,80.286 222.702,78.738 222.702,77.072C222.702,75.603 222.821,74.254 223.138,73.024M232.265,106.474C232.265,109.292 231.114,112.188 228.297,113.339C227.463,108.578 226.392,102.268 226.114,100.522C229.685,100.522 232.265,102.943 232.265,106.474M214.805,125.997C214.805,128.616 216.829,132.068 222.186,132.068C224.051,132.068 225.678,131.592 227.106,130.719C229.249,129.211 229.804,126.592 229.804,124.092C229.804,122.545 229.566,120.759 229.17,118.498C229.05,117.704 228.812,116.514 228.574,114.966C232.463,113.696 235.36,109.649 235.36,105.562C235.36,99.57 231.114,95.523 225.321,95.523C224.924,93.142 224.527,90.801 224.17,88.579C228.376,84.174 231.273,79.214 231.273,72.905C231.273,69.294 230.162,66.358 229.527,64.929C228.574,62.906 227.424,61.517 226.709,61.517C226.432,61.517 225.202,61.993 223.892,63.541C221.353,66.556 220.638,71.635 220.638,74.969C220.638,77.111 220.837,79.056 221.511,83.5C221.472,83.539 219.408,85.642 218.575,86.317C214.964,89.69 209.964,94.491 209.964,102.427C209.964,109.847 216.432,115.68 223.813,115.68C224.963,115.68 226.035,115.561 226.947,115.402C227.701,119.212 228.138,121.989 228.138,124.092C228.138,128.219 226.035,130.402 222.027,130.402C221.075,130.402 220.241,130.203 220.162,130.203C220.122,130.163 220.043,130.124 220.043,130.084C220.043,130.005 220.122,129.965 220.241,129.925C222.106,129.648 223.971,128.06 223.971,125.521C223.971,123.378 222.345,121.116 219.369,121.116C216.591,121.116 214.805,123.378 214.805,125.997" style="fill-rule:nonzero;"/>
        <path d="M226.63,266.155C225.836,266.314 225.082,266.393 224.329,266.393C218.654,266.393 213.813,262.425 213.813,256.434C213.813,251.593 217.226,247.268 220.718,244.252C221.392,243.657 222.027,243.101 222.622,242.506C222.979,244.649 223.257,246.514 223.535,248.141C219.924,249.212 217.464,253.021 217.464,256.751C217.464,259.529 219.646,263.338 222.821,263.338C223.138,263.338 223.495,263.179 223.495,262.822C223.495,262.465 223.098,262.267 222.622,261.949C221.075,260.997 220.202,259.965 220.202,258.021C220.202,255.6 221.987,253.656 224.329,253.101L226.63,266.155M223.138,225.364C223.495,223.777 225.321,219.611 227.384,219.611C227.979,219.611 228.931,221.555 228.931,224.293C228.931,228.42 225.876,231.515 223.138,234.213C222.9,232.626 222.702,231.078 222.702,229.412C222.702,227.943 222.821,226.594 223.138,225.364M232.265,258.814C232.265,261.632 231.114,264.528 228.297,265.679C227.463,260.918 226.392,254.608 226.114,252.862C229.685,252.862 232.265,255.283 232.265,258.814M214.805,278.337C214.805,280.956 216.829,284.408 222.186,284.408C224.051,284.408 225.678,283.932 227.106,283.059C229.249,281.551 229.804,278.932 229.804,276.432C229.804,274.885 229.566,273.099 229.17,270.838C229.05,270.044 228.812,268.854 228.574,267.306C232.463,266.036 235.36,261.989 235.36,257.902C235.36,251.91 231.114,247.863 225.321,247.863C224.924,245.482 224.527,243.141 224.17,240.919C228.376,236.514 231.273,231.554 231.273,225.245C231.273,221.634 230.162,218.698 229.527,217.269C228.574,215.246 227.424,213.857 226.709,213.857C226.432,213.857 225.202,214.333 223.892,215.881C221.353,218.896 220.638,223.975 220.638,227.309C220.638,229.451 220.837,231.396 221.511,235.84C221.472,235.879 219.408,237.982 218.575,238.657C214.964,242.03 209.964,246.831 209.964,254.767C209.964,262.187 216.432,268.02 223.813,268.02C224.963,268.02 226.035,267.901 226.947,267.742C227.701,271.552 228.138,274.329 228.138,276.432C228.138,280.559 226.035,282.742 222.027,282.742C221.075,282.742 220.241,282.543 220.162,282.543C220.122,282.503 220.043,282.464 220.043,282.424C220.043,282.345 220.122,282.305 220.241,282.265C222.106,281.988 223.971,280.4 223.971,277.861C223.971,275.718 222.345,273.456 219.369,273.456C216.591,273.456 214.805,275.718 214.805,278.337" style="fill-rule:nonzero;"/>
        <path d="M226.63,418.491C225.836,418.65 225.082,418.729 224.329,418.729C218.654,418.729 213.813,414.761 213.813,408.77C213.813,403.929 217.226,399.604 220.718,396.588C221.392,395.993 222.027,395.437 222.622,394.842C222.979,396.985 223.257,398.85 223.535,400.477C219.924,401.548 217.464,405.357 217.464,409.087C217.464,411.865 219.646,415.674 222.821,415.674C223.138,415.674 223.495,415.515 223.495,415.158C223.495,414.801 223.098,414.603 222.622,414.285C221.075,413.333 220.202,412.301 220.202,410.357C220.202,407.936 221.987,405.992 224.329,405.437L226.63,418.491M223.138,377.7C223.495,376.113 225.321,371.947 227.384,371.947C227.979,371.947 228.931,373.891 228.931,376.629C228.931,380.756 225.876,383.851 223.138,386.549C222.9,384.962 222.702,383.414 222.702,381.748C222.702,380.279 222.821,378.93 223.138,377.7M232.265,411.15C232.265,413.968 231.114,416.864 228.297,418.015C227.463,413.254 226.392,406.944 226.114,405.198C229.685,405.198 232.265,407.619 232.265,411.15M214.805,430.673C214.805,433.292 216.829,436.744 222.186,436.744C224.051,436.744 225.678,436.268 227.106,435.395C229.249,433.887 229.804,431.268 229.804,428.768C229.804,427.221 229.566,425.435 229.17,423.174C229.05,422.38 228.812,421.19 228.574,419.642C232.463,418.372 235.36,414.325 235.36,410.238C235.36,404.246 231.114,400.199 225.321,400.199C224.924,397.818 224.527,395.477 224.17,393.255C228.376,388.85 231.273,383.89 231.273,377.581C231.273,373.97 230.162,371.034 229.527,369.605C228.574,367.582 227.424,366.193 226.709,366.193C226.432,366.193 225.202,366.669 223.892,368.217C221.353,371.232 220.638,376.311 220.638,379.645C220.638,381.787 220.837,383.732 221.511,388.176C221.472,388.215 219.408,390.318 218.575,390.993C214.964,394.366 209.964,399.167 209.964,407.103C209.964,414.523 216.432,420.356 223.813,420.356C224.963,420.356 226.035,420.237 226.947,420.078C227.701,423.888 228.138,426.665 228.138,428.768C228.138,432.895 226.035,435.078 222.027,435.078C221.075,435.078 220.241,434.879 220.162,434.879C220.122,434.839 220.043,434.8 220.043,434.76C220.043,434.681 220.122,434.641 220.241,434.601C222.106,434.324 223.971,432.736 223.971,430.197C223.971,428.054 222.345,425.792 219.369,425.792C216.591,425.792 214.805,428.054 214.805,430.673" style="fill-rule:nonzero;"/>
        <path d="M232.503,537.897C232.503,539.008 233.376,539.881 234.407,539.881C235.439,539.881 236.312,539.008 236.312,537.897C236.312,536.786 235.439,535.873 234.407,535.873C233.376,535.873 232.503,536.786 232.503,537.897M220.043,532.857C217.027,532.857 214.607,534.603 214.567,534.603C212.226,536.31 210.718,538.929 210.718,541.825C210.718,544.722 212.385,546.865 215.321,546.865C217.861,546.865 219.845,545.158 219.845,542.539C219.845,540.278 217.861,538.413 215.639,538.413C215.162,538.413 214.726,538.492 214.369,538.611C213.972,538.77 213.297,539.167 212.98,539.444C213.258,537.698 214.448,535.953 215.996,535.119C216.988,534.564 218.257,534.326 219.646,534.326C223.694,534.326 225.678,537.579 225.678,544.246C225.678,549.404 222.384,556.824 218.496,560.316C214.369,564.086 210.48,565.871 210.441,565.871C210.441,565.871 209.964,566.149 209.964,566.625C209.964,566.705 210.004,566.744 210.004,566.824C210.123,567.22 210.48,567.3 210.718,567.3C210.758,567.3 210.877,567.26 210.917,567.26C210.956,567.26 215.48,565.395 219.091,562.578C224.646,558.57 230.915,551.507 230.915,544.206C230.915,537.302 227.186,532.857 220.043,532.857M232.503,547.698C232.503,548.809 233.376,549.722 234.407,549.722C235.439,549.722 236.312,548.809 236.312,547.698C236.312,546.587 235.439,545.674 234.407,545.674C233.376,545.674 232.503,546.587 232.503,547.698" style="fill-rule:nonzero;"/>
        <path d="M289.599,41.533C290.059,39.673 290.179,39.293 290.579,38.333C291.059,37.133 291.599,36.613 292.339,36.613C292.619,36.613 292.819,36.753 292.819,36.953C292.819,37.033 292.799,37.113 292.679,37.313C292.539,37.553 292.499,37.673 292.499,37.873C292.499,38.373 292.959,38.773 293.539,38.773C294.159,38.773 294.619,38.313 294.619,37.713C294.619,36.673 293.699,35.913 292.399,35.913C289.519,35.913 288.479,39.273 287.859,41.533L286.119,41.533L285.859,42.473L287.639,42.473L286.819,45.953C286.119,48.913 285.119,51.913 283.859,54.673L286.059,54.313C286.519,53.073 287.679,49.253 288.139,47.413L289.379,42.473L291.899,42.473L292.179,41.533L289.599,41.533M296.355,41.233L292.735,41.533L292.655,42.253L293.135,42.253C293.935,42.253 294.295,42.433 294.295,42.813C294.295,42.953 294.215,43.373 294.095,43.753L292.055,50.633L293.795,50.633L294.735,47.473C295.475,44.973 297.135,42.453 298.055,42.453C298.335,42.453 298.415,42.593 298.415,43.133C298.415,43.673 298.755,43.993 299.355,43.993C300.035,43.993 300.535,43.453 300.535,42.713C300.535,41.853 299.875,41.233 298.955,41.233C297.835,41.233 296.955,41.893 295.895,43.553L296.355,41.233M307.311,48.313C306.131,49.533 305.271,49.993 304.211,49.993C303.011,49.993 302.271,49.193 302.271,47.913C302.271,47.773 302.291,47.493 302.311,47.233C304.671,46.673 305.031,46.553 305.951,46.153C307.511,45.473 308.351,44.453 308.351,43.293C308.351,42.073 307.391,41.233 305.971,41.233C303.051,41.233 300.411,44.193 300.411,47.473C300.411,49.633 301.711,50.933 303.871,50.933C305.411,50.933 306.711,50.253 307.791,48.853L307.311,48.313M302.411,46.453C302.871,43.753 304.091,42.033 305.571,42.033C306.231,42.033 306.671,42.493 306.671,43.173C306.671,44.133 306.051,44.993 304.951,45.593C304.231,46.013 303.731,46.173 302.411,46.453M316.186,48.313C315.006,49.533 314.146,49.993 313.086,49.993C311.886,49.993 311.146,49.193 311.146,47.913C311.146,47.773 311.166,47.493 311.186,47.233C313.546,46.673 313.906,46.553 314.826,46.153C316.386,45.473 317.226,44.453 317.226,43.293C317.226,42.073 316.266,41.233 314.846,41.233C311.926,41.233 309.286,44.193 309.286,47.473C309.286,49.633 310.586,50.933 312.746,50.933C314.286,50.933 315.586,50.253 316.666,48.853L316.186,48.313M311.286,46.453C311.746,43.753 312.966,42.033 314.446,42.033C315.106,42.033 315.546,42.493 315.546,43.173C315.546,44.133 314.926,44.993 313.826,45.593C313.106,46.013 312.606,46.173 311.286,46.453M329.218,38.213L327.478,38.213L326.498,41.533L324.618,41.533L324.338,42.473L326.218,42.473L324.718,47.513C324.418,48.533 324.338,48.953 324.338,49.413C324.338,50.273 324.958,50.933 325.778,50.933C326.718,50.933 327.838,50.313 328.538,49.373C328.818,48.993 329.018,48.673 329.538,47.833L328.938,47.433C327.678,49.333 327.118,49.873 326.458,49.873C326.178,49.873 325.998,49.653 325.998,49.313C325.998,49.153 326.018,49.013 326.058,48.853L327.958,42.473L330.138,42.473L330.418,41.533L328.238,41.533L329.218,38.213M335.072,36.353C334.472,36.353 333.992,36.833 333.992,37.433C333.992,38.013 334.472,38.513 335.052,38.513C335.672,38.513 336.152,38.033 336.152,37.433C336.152,36.833 335.672,36.353 335.072,36.353M335.432,41.233L331.592,41.533L331.512,42.253L331.992,42.253C332.812,42.253 333.132,42.433 333.132,42.873C333.132,43.073 333.092,43.293 332.952,43.753L331.792,47.653C331.412,48.933 331.352,49.213 331.352,49.673C331.352,50.373 331.952,50.913 332.712,50.913C334.432,50.913 335.612,49.133 336.452,47.833L335.832,47.493C334.792,49.073 333.952,49.913 333.412,49.913C333.212,49.913 333.072,49.733 333.072,49.493C333.072,49.293 333.152,48.933 333.312,48.373L335.432,41.233M342.069,41.233L338.429,41.533L338.369,42.253L338.849,42.253C339.649,42.253 339.969,42.433 339.969,42.893C339.969,43.073 339.909,43.373 339.809,43.753L337.769,50.633L339.509,50.633L340.329,47.813C341.229,44.753 343.049,42.433 344.549,42.433C345.069,42.433 345.389,42.713 345.389,43.213C345.389,43.613 345.229,44.453 344.989,45.213L343.389,50.633L345.129,50.633L345.989,47.733C346.489,46.073 346.989,44.953 347.629,44.093C348.349,43.093 349.369,42.433 350.129,42.433C350.629,42.433 350.909,42.693 350.909,43.173C350.909,43.453 350.809,43.893 350.629,44.453L349.709,47.293C349.169,48.853 349.149,48.973 349.149,49.533C349.149,50.373 349.769,50.933 350.709,50.933C351.369,50.933 352.009,50.613 352.689,49.973C353.109,49.573 353.389,49.213 354.209,48.013L353.589,47.593C352.549,49.153 351.809,49.913 351.289,49.913C351.069,49.913 350.869,49.693 350.869,49.413C350.869,49.233 350.929,49.013 351.109,48.433L352.369,44.553C352.509,44.113 352.609,43.493 352.609,43.053C352.609,41.993 351.829,41.233 350.749,41.233C349.329,41.233 348.049,42.153 346.889,44.053C346.969,43.673 347.009,43.333 347.009,43.093C347.009,42.033 346.169,41.233 345.069,41.233C343.809,41.233 342.889,41.933 341.489,43.933L342.069,41.233M362.024,48.313C360.844,49.533 359.984,49.993 358.924,49.993C357.724,49.993 356.984,49.193 356.984,47.913C356.984,47.773 357.004,47.493 357.024,47.233C359.384,46.673 359.744,46.553 360.664,46.153C362.224,45.473 363.064,44.453 363.064,43.293C363.064,42.073 362.104,41.233 360.684,41.233C357.764,41.233 355.124,44.193 355.124,47.473C355.124,49.633 356.424,50.933 358.584,50.933C360.124,50.933 361.424,50.253 362.504,48.853L362.024,48.313M357.124,46.453C357.584,43.753 358.804,42.033 360.284,42.033C360.944,42.033 361.384,42.493 361.384,43.173C361.384,44.133 360.764,44.993 359.664,45.593C358.944,46.013 358.444,46.173 357.124,46.453" style="fill-rule:nonzero;"/>
        <path d="M289.599,193.869C290.059,192.009 290.179,191.629 290.579,190.669C291.059,189.469 291.599,188.949 292.339,188.949C292.619,188.949 292.819,189.089 292.819,189.289C292.819,189.369 292.799,189.449 292.679,189.649C292.539,189.889 292.499,190.009 292.499,190.209C292.499,190.709 292.959,191.109 293.539,191.109C294.159,191.109 294.619,190.649 294.619,190.049C294.619,189.009 293.699,188.249 292.399,188.249C289.519,188.249 288.479,191.609 287.859,193.869L286.119,193.869L285.859,194.809L287.639,194.809L286.819,198.289C286.119,201.249 285.119,204.249 283.859,207.009L286.059,206.649C286.519,205.409 287.679,201.589 288.139,199.749L289.379,194.809L291.899,194.809L292.179,193.869L289.599,193.869M296.355,193.569L292.735,193.869L292.655,194.589L293.135,194.589C293.935,194.589 294.295,194.769 294.295,195.149C294.295,195.289 294.215,195.709 294.095,196.089L292.055,202.969L293.795,202.969L294.735,199.809C295.475,197.309 297.135,194.789 298.055,194.789C298.335,194.789 298.415,194.929 298.415,195.469C298.415,196.009 298.755,196.329 299.355,196.329C300.035,196.329 300.535,195.789 300.535,195.049C300.535,194.189 299.875,193.569 298.955,193.569C297.835,193.569 296.955,194.229 295.895,195.889L296.355,193.569M307.311,200.649C306.131,201.869 305.271,202.329 304.211,202.329C303.011,202.329 302.271,201.529 302.271,200.249C302.271,200.109 302.291,199.829 302.311,199.569C304.671,199.009 305.031,198.889 305.951,198.489C307.511,197.809 308.351,196.789 308.351,195.629C308.351,194.409 307.391,193.569 305.971,193.569C303.051,193.569 300.411,196.529 300.411,199.809C300.411,201.969 301.711,203.269 303.871,203.269C305.411,203.269 306.711,202.589 307.791,201.189L307.311,200.649M302.411,198.789C302.871,196.089 304.091,194.369 305.571,194.369C306.231,194.369 306.671,194.829 306.671,195.509C306.671,196.469 306.051,197.329 304.951,197.929C304.231,198.349 303.731,198.509 302.411,198.789M316.186,200.649C315.006,201.869 314.146,202.329 313.086,202.329C311.886,202.329 311.146,201.529 311.146,200.249C311.146,200.109 311.166,199.829 311.186,199.569C313.546,199.009 313.906,198.889 314.826,198.489C316.386,197.809 317.226,196.789 317.226,195.629C317.226,194.409 316.266,193.569 314.846,193.569C311.926,193.569 309.286,196.529 309.286,199.809C309.286,201.969 310.586,203.269 312.746,203.269C314.286,203.269 315.586,202.589 316.666,201.189L316.186,200.649M311.286,198.789C311.746,196.089 312.966,194.369 314.446,194.369C315.106,194.369 315.546,194.829 315.546,195.509C315.546,196.469 314.926,197.329 313.826,197.929C313.106,198.349 312.606,198.509 311.286,198.789M329.218,190.549L327.478,190.549L326.498,193.869L324.618,193.869L324.338,194.809L326.218,194.809L324.718,199.849C324.418,200.869 324.338,201.289 324.338,201.749C324.338,202.609 324.958,203.269 325.778,203.269C326.718,203.269 327.838,202.649 328.538,201.709C328.818,201.329 329.018,201.009 329.538,200.169L328.938,199.769C327.678,201.669 327.118,202.209 326.458,202.209C326.178,202.209 325.998,201.989 325.998,201.649C325.998,201.489 326.018,201.349 326.058,201.189L327.958,194.809L330.138,194.809L330.418,193.869L328.238,193.869L329.218,190.549M335.072,188.689C334.472,188.689 333.992,189.169 333.992,189.769C333.992,190.349 334.472,190.849 335.052,190.849C335.672,190.849 336.152,190.369 336.152,189.769C336.152,189.169 335.672,188.689 335.072,188.689M335.432,193.569L331.592,193.869L331.512,194.589L331.992,194.589C332.812,194.589 333.132,194.769 333.132,195.209C333.132,195.409 333.092,195.629 332.952,196.089L331.792,199.989C331.412,201.269 331.352,201.549 331.352,202.009C331.352,202.709 331.952,203.249 332.712,203.249C334.432,203.249 335.612,201.469 336.452,200.169L335.832,199.829C334.792,201.409 333.952,202.249 333.412,202.249C333.212,202.249 333.072,202.069 333.072,201.829C333.072,201.629 333.152,201.269 333.312,200.709L335.432,193.569M342.069,193.569L338.429,193.869L338.369,194.589L338.849,194.589C339.649,194.589 339.969,194.769 339.969,195.229C339.969,195.409 339.909,195.709 339.809,196.089L337.769,202.969L339.509,202.969L340.329,200.149C341.229,197.089 343.049,194.769 344.549,194.769C345.069,194.769 345.389,195.049 345.389,195.549C345.389,195.949 345.229,196.789 344.989,197.549L343.389,202.969L345.129,202.969L345.989,200.069C346.489,198.409 346.989,197.289 347.629,196.429C348.349,195.429 349.369,194.769 350.129,194.769C350.629,194.769 350.909,195.029 350.909,195.509C350.909,195.789 350.809,196.229 350.629,196.789L349.709,199.629C349.169,201.189 349.149,201.309 349.149,201.869C349.149,202.709 349.769,203.269 350.709,203.269C351.369,203.269 352.009,202.949 352.689,202.309C353.109,201.909 353.389,201.549 354.209,200.349L353.589,199.929C352.549,201.489 351.809,202.249 351.289,202.249C351.069,202.249 350.869,202.029 350.869,201.749C350.869,201.569 350.929,201.349 351.109,200.769L352.369,196.889C352.509,196.449 352.609,195.829 352.609,195.389C352.609,194.329 351.829,193.569 350.749,193.569C349.329,193.569 348.049,194.489 346.889,196.389C346.969,196.009 347.009,195.669 347.009,195.429C347.009,194.369 346.169,193.569 345.069,193.569C343.809,193.569 342.889,194.269 341.489,196.269L342.069,193.569M362.024,200.649C360.844,201.869 359.984,202.329 358.924,202.329C357.724,202.329 356.984,201.529 356.984,200.249C356.984,200.109 357.004,199.829 357.024,199.569C359.384,199.009 359.744,198.889 360.664,198.489C362.224,197.809 363.064,196.789 363.064,195.629C363.064,194.409 362.104,193.569 360.684,193.569C357.764,193.569 355.124,196.529 355.124,199.809C355.124,201.969 356.424,203.269 358.584,203.269C360.124,203.269 361.424,202.589 362.504,201.189L362.024,200.649M357.124,198.789C357.584,196.089 358.804,194.369 360.284,194.369C360.944,194.369 361.384,194.829 361.384,195.509C361.384,196.469 360.764,197.329 359.664,197.929C358.944,198.349 358.444,198.509 357.124,198.789" style="fill-rule:nonzero;"/>
        <path d="M293.267,326.453C293.727,324.593 293.847,324.213 294.247,323.253C294.727,322.053 295.267,321.533 296.007,321.533C296.287,321.533 296.487,321.673 296.487,321.873C296.487,321.953 296.467,322.033 296.347,322.233C296.207,322.473 296.167,322.593 296.167,322.793C296.167,323.293 296.627,323.693 297.207,323.693C297.827,323.693 298.287,323.233 298.287,322.633C298.287,321.593 297.367,320.833 296.067,320.833C293.187,320.833 292.147,324.193 291.527,326.453L289.787,326.453L289.527,327.393L291.307,327.393L290.487,330.873C289.787,333.833 288.787,336.833 287.527,339.593L289.727,339.233C290.187,337.993 291.347,334.173 291.807,332.333L293.047,327.393L295.567,327.393L295.847,326.453L293.267,326.453M300.023,326.153L296.403,326.453L296.323,327.173L296.803,327.173C297.603,327.173 297.963,327.353 297.963,327.733C297.963,327.873 297.883,328.293 297.763,328.673L295.723,335.553L297.463,335.553L298.403,332.393C299.143,329.893 300.803,327.373 301.723,327.373C302.003,327.373 302.083,327.513 302.083,328.053C302.083,328.593 302.423,328.913 303.023,328.913C303.703,328.913 304.203,328.373 304.203,327.633C304.203,326.773 303.543,326.153 302.623,326.153C301.503,326.153 300.623,326.813 299.563,328.473L300.023,326.153M310.98,333.233C309.8,334.453 308.94,334.913 307.88,334.913C306.68,334.913 305.94,334.113 305.94,332.833C305.94,332.693 305.96,332.413 305.98,332.153C308.34,331.593 308.7,331.473 309.62,331.073C311.18,330.393 312.02,329.373 312.02,328.213C312.02,326.993 311.06,326.153 309.64,326.153C306.72,326.153 304.08,329.113 304.08,332.393C304.08,334.553 305.38,335.853 307.54,335.853C309.08,335.853 310.38,335.173 311.46,333.773L310.98,333.233M306.08,331.373C306.54,328.673 307.76,326.953 309.24,326.953C309.9,326.953 310.34,327.413 310.34,328.093C310.34,329.053 309.72,329.913 308.62,330.513C307.9,330.933 307.4,331.093 306.08,331.373M319.854,333.233C318.674,334.453 317.814,334.913 316.754,334.913C315.554,334.913 314.814,334.113 314.814,332.833C314.814,332.693 314.834,332.413 314.854,332.153C317.214,331.593 317.574,331.473 318.494,331.073C320.054,330.393 320.894,329.373 320.894,328.213C320.894,326.993 319.934,326.153 318.514,326.153C315.594,326.153 312.954,329.113 312.954,332.393C312.954,334.553 314.254,335.853 316.414,335.853C317.954,335.853 319.254,335.173 320.334,333.773L319.854,333.233M314.954,331.373C315.414,328.673 316.634,326.953 318.114,326.953C318.774,326.953 319.214,327.413 319.214,328.093C319.214,329.053 318.594,329.913 317.494,330.513C316.774,330.933 316.274,331.093 314.954,331.373M332.886,323.133L331.146,323.133L330.166,326.453L328.286,326.453L328.006,327.393L329.886,327.393L328.386,332.433C328.086,333.453 328.006,333.873 328.006,334.333C328.006,335.193 328.626,335.853 329.446,335.853C330.386,335.853 331.506,335.233 332.206,334.293C332.486,333.913 332.686,333.593 333.206,332.753L332.606,332.353C331.346,334.253 330.786,334.793 330.126,334.793C329.846,334.793 329.666,334.573 329.666,334.233C329.666,334.073 329.686,333.933 329.726,333.773L331.626,327.393L333.806,327.393L334.086,326.453L331.906,326.453L332.886,323.133M338.741,321.273C338.141,321.273 337.661,321.753 337.661,322.353C337.661,322.933 338.141,323.433 338.721,323.433C339.341,323.433 339.821,322.953 339.821,322.353C339.821,321.753 339.341,321.273 338.741,321.273M339.101,326.153L335.261,326.453L335.181,327.173L335.661,327.173C336.481,327.173 336.801,327.353 336.801,327.793C336.801,327.993 336.761,328.213 336.621,328.673L335.461,332.573C335.081,333.853 335.021,334.133 335.021,334.593C335.021,335.293 335.621,335.833 336.381,335.833C338.101,335.833 339.281,334.053 340.121,332.753L339.501,332.413C338.461,333.993 337.621,334.833 337.081,334.833C336.881,334.833 336.741,334.653 336.741,334.413C336.741,334.213 336.821,333.853 336.981,333.293L339.101,326.153M345.737,326.153L342.097,326.453L342.037,327.173L342.517,327.173C343.317,327.173 343.637,327.353 343.637,327.813C343.637,327.993 343.577,328.293 343.477,328.673L341.437,335.553L343.177,335.553L343.997,332.733C344.897,329.673 346.717,327.353 348.217,327.353C348.737,327.353 349.057,327.633 349.057,328.133C349.057,328.533 348.897,329.373 348.657,330.133L347.057,335.553L348.797,335.553L349.657,332.653C350.157,330.993 350.657,329.873 351.297,329.013C352.017,328.013 353.037,327.353 353.797,327.353C354.297,327.353 354.577,327.613 354.577,328.093C354.577,328.373 354.477,328.813 354.297,329.373L353.377,332.213C352.837,333.773 352.817,333.893 352.817,334.453C352.817,335.293 353.437,335.853 354.377,335.853C355.037,335.853 355.677,335.533 356.357,334.893C356.777,334.493 357.057,334.133 357.877,332.933L357.257,332.513C356.217,334.073 355.477,334.833 354.957,334.833C354.737,334.833 354.537,334.613 354.537,334.333C354.537,334.153 354.597,333.933 354.777,333.353L356.037,329.473C356.177,329.033 356.277,328.413 356.277,327.973C356.277,326.913 355.497,326.153 354.417,326.153C352.997,326.153 351.717,327.073 350.557,328.973C350.637,328.593 350.677,328.253 350.677,328.013C350.677,326.953 349.837,326.153 348.737,326.153C347.477,326.153 346.557,326.853 345.157,328.853L345.737,326.153M365.692,333.233C364.512,334.453 363.652,334.913 362.592,334.913C361.392,334.913 360.652,334.113 360.652,332.833C360.652,332.693 360.672,332.413 360.692,332.153C363.052,331.593 363.412,331.473 364.332,331.073C365.892,330.393 366.732,329.373 366.732,328.213C366.732,326.993 365.772,326.153 364.352,326.153C361.432,326.153 358.792,329.113 358.792,332.393C358.792,334.553 360.092,335.853 362.252,335.853C363.792,335.853 365.092,335.173 366.172,333.773L365.692,333.233M360.792,331.373C361.252,328.673 362.472,326.953 363.952,326.953C364.612,326.953 365.052,327.413 365.052,328.093C365.052,329.053 364.432,329.913 363.332,330.513C362.612,330.933 362.112,331.093 360.792,331.373" style="fill-rule:nonzero;"/>
        <path d="M289.599,498.549C290.059,496.689 290.179,496.309 290.579,495.349C291.059,494.149 291.599,493.629 292.339,493.629C292.619,493.629 292.819,493.769 292.819,493.969C292.819,494.049 292.799,494.129 292.679,494.329C292.539,494.569 292.499,494.689 292.499,494.889C292.499,495.389 292.959,495.789 293.539,495.789C294.159,495.789 294.619,495.329 294.619,494.729C294.619,493.689 293.699,492.929 292.399,492.929C289.519,492.929 288.479,496.289 287.859,498.549L286.119,498.549L285.859,499.489L287.639,499.489L286.819,502.969C286.119,505.929 285.119,508.929 283.859,511.689L286.059,511.329C286.519,510.089 287.679,506.269 288.139,504.429L289.379,499.489L291.899,499.489L292.179,498.549L289.599,498.549M296.355,498.249L292.735,498.549L292.655,499.269L293.135,499.269C293.935,499.269 294.295,499.449 294.295,499.829C294.295,499.969 294.215,500.389 294.095,500.769L292.055,507.649L293.795,507.649L294.735,504.489C295.475,501.989 297.135,499.469 298.055,499.469C298.335,499.469 298.415,499.609 298.415,500.149C298.415,500.689 298.755,501.009 299.355,501.009C300.035,501.009 300.535,500.469 300.535,499.729C300.535,498.869 299.875,498.249 298.955,498.249C297.835,498.249 296.955,498.909 295.895,500.569L296.355,498.249M307.311,505.329C306.131,506.549 305.271,507.009 304.211,507.009C303.011,507.009 302.271,506.209 302.271,504.929C302.271,504.789 302.291,504.509 302.311,504.249C304.671,503.689 305.031,503.569 305.951,503.169C307.511,502.489 308.351,501.469 308.351,500.309C308.351,499.089 307.391,498.249 305.971,498.249C303.051,498.249 300.411,501.209 300.411,504.489C300.411,506.649 301.711,507.949 303.871,507.949C305.411,507.949 306.711,507.269 307.791,505.869L307.311,505.329M302.411,503.469C302.871,500.769 304.091,499.049 305.571,499.049C306.231,499.049 306.671,499.509 306.671,500.189C306.671,501.149 306.051,502.009 304.951,502.609C304.231,503.029 303.731,503.189 302.411,503.469M316.186,505.329C315.006,506.549 314.146,507.009 313.086,507.009C311.886,507.009 311.146,506.209 311.146,504.929C311.146,504.789 311.166,504.509 311.186,504.249C313.546,503.689 313.906,503.569 314.826,503.169C316.386,502.489 317.226,501.469 317.226,500.309C317.226,499.089 316.266,498.249 314.846,498.249C311.926,498.249 309.286,501.209 309.286,504.489C309.286,506.649 310.586,507.949 312.746,507.949C314.286,507.949 315.586,507.269 316.666,505.869L316.186,505.329M311.286,503.469C311.746,500.769 312.966,499.049 314.446,499.049C315.106,499.049 315.546,499.509 315.546,500.189C315.546,501.149 314.926,502.009 313.826,502.609C313.106,503.029 312.606,503.189 311.286,503.469M329.218,495.229L327.478,495.229L326.498,498.549L324.618,498.549L324.338,499.489L326.218,499.489L324.718,504.529C324.418,505.549 324.338,505.969 324.338,506.429C324.338,507.289 324.958,507.949 325.778,507.949C326.718,507.949 327.838,507.329 328.538,506.389C328.818,506.009 329.018,505.689 329.538,504.849L328.938,504.449C327.678,506.349 327.118,506.889 326.458,506.889C326.178,506.889 325.998,506.669 325.998,506.329C325.998,506.169 326.018,506.029 326.058,505.869L327.958,499.489L330.138,499.489L330.418,498.549L328.238,498.549L329.218,495.229M335.072,493.369C334.472,493.369 333.992,493.849 333.992,494.449C333.992,495.029 334.472,495.529 335.052,495.529C335.672,495.529 336.152,495.049 336.152,494.449C336.152,493.849 335.672,493.369 335.072,493.369M335.432,498.249L331.592,498.549L331.512,499.269L331.992,499.269C332.812,499.269 333.132,499.449 333.132,499.889C333.132,500.089 333.092,500.309 332.952,500.769L331.792,504.669C331.412,505.949 331.352,506.229 331.352,506.689C331.352,507.389 331.952,507.929 332.712,507.929C334.432,507.929 335.612,506.149 336.452,504.849L335.832,504.509C334.792,506.089 333.952,506.929 333.412,506.929C333.212,506.929 333.072,506.749 333.072,506.509C333.072,506.309 333.152,505.949 333.312,505.389L335.432,498.249M342.069,498.249L338.429,498.549L338.369,499.269L338.849,499.269C339.649,499.269 339.969,499.449 339.969,499.909C339.969,500.089 339.909,500.389 339.809,500.769L337.769,507.649L339.509,507.649L340.329,504.829C341.229,501.769 343.049,499.449 344.549,499.449C345.069,499.449 345.389,499.729 345.389,500.229C345.389,500.629 345.229,501.469 344.989,502.229L343.389,507.649L345.129,507.649L345.989,504.749C346.489,503.089 346.989,501.969 347.629,501.109C348.349,500.109 349.369,499.449 350.129,499.449C350.629,499.449 350.909,499.709 350.909,500.189C350.909,500.469 350.809,500.909 350.629,501.469L349.709,504.309C349.169,505.869 349.149,505.989 349.149,506.549C349.149,507.389 349.769,507.949 350.709,507.949C351.369,507.949 352.009,507.629 352.689,506.989C353.109,506.589 353.389,506.229 354.209,505.029L353.589,504.609C352.549,506.169 351.809,506.929 351.289,506.929C351.069,506.929 350.869,506.709 350.869,506.429C350.869,506.249 350.929,506.029 351.109,505.449L352.369,501.569C352.509,501.129 352.609,500.509 352.609,500.069C352.609,499.009 351.829,498.249 350.749,498.249C349.329,498.249 348.049,499.169 346.889,501.069C346.969,500.689 347.009,500.349 347.009,500.109C347.009,499.049 346.169,498.249 345.069,498.249C343.809,498.249 342.889,498.949 341.489,500.949L342.069,498.249M362.024,505.329C360.844,506.549 359.984,507.009 358.924,507.009C357.724,507.009 356.984,506.209 356.984,504.929C356.984,504.789 357.004,504.509 357.024,504.249C359.384,503.689 359.744,503.569 360.664,503.169C362.224,502.489 363.064,501.469 363.064,500.309C363.064,499.089 362.104,498.249 360.684,498.249C357.764,498.249 355.124,501.209 355.124,504.489C355.124,506.649 356.424,507.949 358.584,507.949C360.124,507.949 361.424,507.269 362.504,505.869L362.024,505.329M357.124,503.469C357.584,500.769 358.804,499.049 360.284,499.049C360.944,499.049 361.384,499.509 361.384,500.189C361.384,501.149 360.764,502.009 359.664,502.609C358.944,503.029 358.444,503.189 357.124,503.469" style="fill-rule:nonzero;"/>
    </g>
    <g transform="matrix(1,0,0,1,-4.28511,14.598)">
        <g transform="matrix(96,0,0,96,241.094,986.402)">
            <path d="M0.508,-0.791L0.508,-0.262C0.508,-0.202 0.506,-0.16 0.502,-0.136C0.499,-0.112 0.487,-0.087 0.468,-0.061C0.449,-0.036 0.423,-0.016 0.392,-0.003C0.36,0.01 0.323,0.017 0.281,0.017C0.234,0.017 0.192,0.009 0.156,-0.007C0.12,-0.022 0.093,-0.043 0.075,-0.068C0.057,-0.093 0.046,-0.119 0.043,-0.147C0.04,-0.175 0.038,-0.234 0.038,-0.323L0.038,-0.791L0.244,-0.791L0.244,-0.198C0.244,-0.163 0.246,-0.141 0.249,-0.132C0.253,-0.122 0.261,-0.117 0.272,-0.117C0.285,-0.117 0.293,-0.122 0.297,-0.133C0.301,-0.144 0.303,-0.169 0.303,-0.208L0.303,-0.791L0.508,-0.791Z" style="fill:#82c072;fill-rule:nonzero;"/>
        </g>
        <g transform="matrix(96,0,0,96,293.594,986.402)">
            <path d="M0.5,-0.791L0.5,-0L0.32,-0L0.213,-0.359L0.213,-0L0.041,-0L0.041,-0.791L0.213,-0.791L0.328,-0.435L0.328,-0.791L0.5,-0.791Z" style="fill:#82c072;fill-rule:nonzero;"/>
        </g>
        <g transform="matrix(96,0,0,96,345.578,986.402)">
            <path d="M0.477,-0.551L0.286,-0.551L0.286,-0.61C0.286,-0.637 0.283,-0.655 0.278,-0.662C0.273,-0.67 0.265,-0.673 0.254,-0.673C0.242,-0.673 0.232,-0.668 0.226,-0.658C0.219,-0.648 0.216,-0.633 0.216,-0.612C0.216,-0.586 0.22,-0.566 0.227,-0.553C0.234,-0.539 0.253,-0.523 0.285,-0.504C0.377,-0.45 0.434,-0.405 0.458,-0.371C0.482,-0.336 0.494,-0.28 0.494,-0.202C0.494,-0.146 0.487,-0.104 0.474,-0.078C0.461,-0.051 0.435,-0.029 0.397,-0.01C0.36,0.008 0.316,0.017 0.266,0.017C0.211,0.017 0.164,0.006 0.125,-0.015C0.086,-0.035 0.06,-0.062 0.048,-0.094C0.036,-0.126 0.03,-0.172 0.03,-0.231L0.03,-0.283L0.221,-0.283L0.221,-0.187C0.221,-0.157 0.224,-0.138 0.229,-0.13C0.235,-0.121 0.244,-0.117 0.258,-0.117C0.271,-0.117 0.282,-0.123 0.288,-0.133C0.295,-0.144 0.298,-0.16 0.298,-0.181C0.298,-0.228 0.292,-0.258 0.279,-0.272C0.266,-0.287 0.234,-0.311 0.183,-0.344C0.132,-0.378 0.098,-0.403 0.082,-0.418C0.065,-0.433 0.051,-0.454 0.04,-0.481C0.029,-0.508 0.024,-0.543 0.024,-0.585C0.024,-0.646 0.032,-0.69 0.047,-0.718C0.063,-0.746 0.088,-0.768 0.122,-0.783C0.157,-0.799 0.198,-0.807 0.247,-0.807C0.3,-0.807 0.346,-0.799 0.384,-0.781C0.421,-0.764 0.446,-0.742 0.458,-0.716C0.47,-0.69 0.477,-0.645 0.477,-0.583L0.477,-0.551Z" style="fill:#82c072;fill-rule:nonzero;"/>
        </g>
        <g transform="matrix(96,0,0,96,395.219,986.402)">
            <rect x="0.041" y="-0.791" width="0.206" height="0.791" style="fill:#82c072;fill-rule:nonzero;"/>
        </g>
        <g transform="matrix(96,0,0,96,422.875,986.402)">
            <path d="M0.247,-0.791L0.247,-0.158L0.372,-0.158L0.372,-0L0.041,-0L0.041,-0.791L0.247,-0.791Z" style="fill:#82c072;fill-rule:nonzero;"/>
        </g>
        <g transform="matrix(96,0,0,96,459.391,986.402)">
            <path d="M0.041,-0.791L0.384,-0.791L0.384,-0.632L0.247,-0.632L0.247,-0.482L0.375,-0.482L0.375,-0.332L0.247,-0.332L0.247,-0.158L0.397,-0.158L0.397,-0L0.041,-0L0.041,-0.791Z" style="fill:#82c072;fill-rule:nonzero;"/>
        </g>
        <g transform="matrix(96,0,0,96,499.281,986.402)">
            <path d="M0.5,-0.791L0.5,-0L0.32,-0L0.213,-0.359L0.213,-0L0.041,-0L0.041,-0.791L0.213,-0.791L0.328,-0.435L0.328,-0.791L0.5,-0.791Z" style="fill:#82c072;fill-rule:nonzero;"/>
        </g>
        <g transform="matrix(96,0,0,96,551.266,986.402)">
            <path d="M0.455,-0.791L0.455,-0.632L0.333,-0.632L0.333,-0L0.127,-0L0.127,-0.632L0.006,-0.632L0.006,-0.791L0.455,-0.791Z" style="fill:#82c072;fill-rule:nonzero;"/>
        </g>
        <g transform="matrix(96,0,0,96,595.516,986.402)">
            <path d="M0.5,-0.791L0.5,-0L0.32,-0L0.213,-0.359L0.213,-0L0.041,-0L0.041,-0.791L0.213,-0.791L0.328,-0.435L0.328,-0.791L0.5,-0.791Z" style="fill-rule:nonzero;"/>
        </g>
        <g transform="matrix(96,0,0,96,647.5,986.402)">
            <rect x="0.041" y="-0.791" width="0.206" height="0.791" style="fill-rule:nonzero;"/>
        </g>
        <g transform="matrix(96,0,0,96,675.156,986.402)">
            <path d="M0.513,-0.5L0.307,-0.5L0.307,-0.571C0.307,-0.617 0.305,-0.645 0.301,-0.656C0.297,-0.668 0.288,-0.673 0.273,-0.673C0.261,-0.673 0.252,-0.668 0.248,-0.659C0.243,-0.649 0.241,-0.624 0.241,-0.583L0.241,-0.204C0.241,-0.169 0.243,-0.145 0.248,-0.134C0.252,-0.123 0.261,-0.117 0.275,-0.117C0.29,-0.117 0.3,-0.124 0.305,-0.136C0.311,-0.149 0.313,-0.174 0.313,-0.21L0.313,-0.304L0.272,-0.304L0.272,-0.424L0.513,-0.424L0.513,-0L0.383,-0L0.364,-0.057C0.35,-0.032 0.333,-0.014 0.311,-0.002C0.29,0.01 0.265,0.017 0.236,0.017C0.201,0.017 0.169,0.008 0.139,-0.009C0.109,-0.025 0.086,-0.046 0.07,-0.071C0.055,-0.096 0.045,-0.122 0.041,-0.149C0.037,-0.176 0.035,-0.217 0.035,-0.271L0.035,-0.506C0.035,-0.581 0.039,-0.636 0.047,-0.67C0.056,-0.705 0.079,-0.736 0.117,-0.764C0.156,-0.793 0.206,-0.807 0.267,-0.807C0.327,-0.807 0.377,-0.795 0.417,-0.77C0.457,-0.745 0.483,-0.716 0.495,-0.682C0.507,-0.648 0.513,-0.598 0.513,-0.534L0.513,-0.5Z" style="fill-rule:nonzero;"/>
        </g>
        <g transform="matrix(96,0,0,96,728.078,986.402)">
            <path d="M0.514,-0.791L0.514,-0L0.308,-0L0.308,-0.332L0.247,-0.332L0.247,-0L0.041,-0L0.041,-0.791L0.247,-0.791L0.247,-0.508L0.308,-0.508L0.308,-0.791L0.514,-0.791Z" style="fill-rule:nonzero;"/>
        </g>
        <g transform="matrix(96,0,0,96,781.375,986.402)">
            <path d="M0.455,-0.791L0.455,-0.632L0.333,-0.632L0.333,-0L0.127,-0L0.127,-0.632L0.006,-0.632L0.006,-0.791L0.455,-0.791Z" style="fill-rule:nonzero;"/>
        </g>
    </g>
    <path d="M383.891,1025L393.828,1025C396.516,1025 398.582,1025.21 400.027,1025.63C401.473,1026.06 402.559,1026.66 403.285,1027.46C404.012,1028.26 404.504,1029.22 404.762,1030.36C405.02,1031.49 405.148,1033.24 405.148,1035.62L405.148,1038.92C405.148,1041.34 404.898,1043.11 404.398,1044.22C403.898,1045.33 402.98,1046.18 401.645,1046.77C400.309,1047.37 398.562,1047.66 396.406,1047.66L393.758,1047.66L393.758,1062.95L383.891,1062.95L383.891,1025ZM393.758,1031.49L393.758,1041.15C394.039,1041.16 394.281,1041.17 394.484,1041.17C395.391,1041.17 396.02,1040.95 396.371,1040.5C396.723,1040.06 396.898,1039.13 396.898,1037.73L396.898,1034.61C396.898,1033.31 396.695,1032.47 396.289,1032.08C395.883,1031.69 395.039,1031.49 393.758,1031.49Z" style="fill-rule:nonzero;"/>
    <path d="M417.172,1025L417.172,1033.53C417.984,1032.78 418.863,1032.22 419.809,1031.84C420.754,1031.47 421.766,1031.28 422.844,1031.28C424.5,1031.28 425.91,1031.7 427.074,1032.55C428.238,1033.39 428.949,1034.36 429.207,1035.46C429.465,1036.57 429.594,1038.58 429.594,1041.5L429.594,1062.95L420.125,1062.95L420.125,1041.06C420.125,1039.24 420.035,1038.08 419.855,1037.56C419.676,1037.05 419.273,1036.79 418.648,1036.79C418.07,1036.79 417.68,1037.06 417.477,1037.59C417.273,1038.12 417.172,1039.17 417.172,1040.75L417.172,1062.95L407.703,1062.95L407.703,1025L417.172,1025Z" style="fill-rule:nonzero;"/>
    <path d="M442.602,1025L442.602,1029.95L432.852,1029.95L432.852,1025L442.602,1025ZM442.602,1031.84L442.602,1062.95L432.852,1062.95L432.852,1031.84L442.602,1031.84Z" style="fill-rule:nonzero;"/>
    <rect x="446" y="1025" width="9.75" height="37.945" style="fill-rule:nonzero;"/>
    <path d="M491.398,1025L485.75,1042.13L491.937,1062.95L481.742,1062.95L477.758,1046.68L477.758,1062.95L467.891,1062.95L467.891,1025L477.758,1025L477.758,1039.74L482.141,1025L491.398,1025Z" style="fill-rule:nonzero;"/>
    <rect x="493.367" y="1025" width="9.75" height="37.945" style="fill-rule:nonzero;"/>
    <path d="M516.266,1025L516.266,1029.95L506.516,1029.95L506.516,1025L516.266,1025ZM516.266,1031.84L516.266,1062.95L506.516,1062.95L506.516,1031.84L516.266,1031.84Z" style="fill-rule:nonzero;"/>
    <path d="M529.297,1031.84L529.133,1034.7C529.82,1033.56 530.66,1032.71 531.652,1032.14C532.645,1031.57 533.789,1031.28 535.086,1031.28C536.711,1031.28 538.039,1031.66 539.07,1032.43C540.102,1033.2 540.766,1034.16 541.062,1035.33C541.359,1036.49 541.508,1038.43 541.508,1041.15L541.508,1062.95L532.039,1062.95L532.039,1041.41C532.039,1039.27 531.969,1037.96 531.828,1037.49C531.687,1037.02 531.297,1036.79 530.656,1036.79C529.984,1036.79 529.562,1037.06 529.391,1037.6C529.219,1038.14 529.133,1039.58 529.133,1041.92L529.133,1062.95L519.664,1062.95L519.664,1031.84L529.297,1031.84Z" style="fill-rule:nonzero;"/>
    <path d="M566.211,1047.95L553.953,1047.95L553.953,1054.67C553.953,1056.08 554.055,1056.99 554.258,1057.39C554.461,1057.8 554.852,1058 555.43,1058C556.148,1058 556.629,1057.73 556.871,1057.19C557.113,1056.65 557.234,1055.61 557.234,1054.06L557.234,1049.96L566.211,1049.96L566.211,1052.26C566.211,1054.18 566.09,1055.66 565.848,1056.69C565.605,1057.72 565.039,1058.82 564.148,1059.99C563.258,1061.16 562.129,1062.04 560.762,1062.63C559.395,1063.21 557.68,1063.51 555.617,1063.51C553.617,1063.51 551.852,1063.22 550.32,1062.64C548.789,1062.06 547.598,1061.27 546.746,1060.26C545.895,1059.25 545.305,1058.14 544.977,1056.93C544.648,1055.72 544.484,1053.96 544.484,1051.65L544.484,1042.58C544.484,1039.86 544.852,1037.71 545.586,1036.14C546.32,1034.58 547.523,1033.37 549.195,1032.54C550.867,1031.7 552.789,1031.28 554.961,1031.28C557.617,1031.28 559.809,1031.79 561.535,1032.79C563.262,1033.8 564.473,1035.14 565.168,1036.8C565.863,1038.46 566.211,1040.81 566.211,1043.82L566.211,1047.95ZM556.719,1042.88L556.719,1040.61C556.719,1039 556.633,1037.96 556.461,1037.49C556.289,1037.02 555.937,1036.79 555.406,1036.79C554.75,1036.79 554.344,1036.99 554.187,1037.39C554.031,1037.79 553.953,1038.86 553.953,1040.61L553.953,1042.88L556.719,1042.88Z" style="fill-rule:nonzero;"/>
    <path d="M574.812,1055.52L574.812,1058.91C574.812,1060.7 574.602,1062.16 574.18,1063.3C573.758,1064.44 573.027,1065.41 571.988,1066.2C570.949,1067 569.773,1067.53 568.461,1067.8L568.461,1065.08C569.398,1064.55 569.93,1063.84 570.055,1062.95L568.461,1062.95L568.461,1055.52L574.812,1055.52Z" style="fill-rule:nonzero;"/>
    <path d="M600.43,1025L600.43,1062.95L590.961,1062.95L590.961,1042.6C590.961,1039.66 590.891,1037.9 590.75,1037.31C590.609,1036.71 590.223,1036.26 589.59,1035.96C588.957,1035.65 587.547,1035.5 585.359,1035.5L584.422,1035.5L584.422,1031.07C589,1030.09 592.477,1028.06 594.852,1025L600.43,1025Z" style="fill-rule:nonzero;"/>
    <path d="M604.109,1052.87L613.578,1052.87C613.578,1054.63 613.602,1055.75 613.648,1056.21C613.695,1056.67 613.887,1057.06 614.223,1057.37C614.559,1057.68 615.016,1057.84 615.594,1057.84C616.078,1057.84 616.477,1057.69 616.789,1057.39C617.102,1057.09 617.277,1056.71 617.316,1056.24C617.355,1055.77 617.375,1054.83 617.375,1053.41L617.375,1047.36C616.906,1048.38 616.203,1049.14 615.266,1049.64C614.328,1050.15 613.164,1050.41 611.773,1050.41C610.039,1050.41 608.508,1049.94 607.18,1049C605.852,1048.06 605.008,1046.94 604.648,1045.62C604.289,1044.31 604.109,1042.54 604.109,1040.31L604.109,1037.28C604.109,1034.62 604.215,1032.65 604.426,1031.35C604.637,1030.06 605.18,1028.86 606.055,1027.75C606.93,1026.65 608.141,1025.8 609.687,1025.19C611.234,1024.58 613.031,1024.27 615.078,1024.27C617.609,1024.27 619.687,1024.62 621.312,1025.33C622.937,1026.03 624.195,1027.04 625.086,1028.36C625.977,1029.68 626.492,1031.07 626.633,1032.52C626.773,1033.98 626.844,1036.79 626.844,1040.96L626.844,1046.24C626.844,1050.75 626.781,1053.77 626.656,1055.29C626.531,1056.82 625.988,1058.26 625.027,1059.62C624.066,1060.98 622.766,1062 621.125,1062.68C619.484,1063.36 617.586,1063.7 615.43,1063.7C612.758,1063.7 610.574,1063.27 608.879,1062.41C607.184,1061.55 605.965,1060.34 605.223,1058.77C604.48,1057.21 604.109,1055.24 604.109,1052.87ZM613.578,1041.03C613.578,1042.62 613.785,1043.61 614.199,1043.99C614.613,1044.36 615.039,1044.55 615.477,1044.55C616.133,1044.55 616.613,1044.31 616.918,1043.83C617.223,1043.36 617.375,1042.42 617.375,1041.03L617.375,1034.16C617.375,1032.49 617.23,1031.4 616.941,1030.88C616.652,1030.37 616.172,1030.11 615.5,1030.11C615.094,1030.11 614.672,1030.31 614.234,1030.71C613.797,1031.11 613.578,1032.18 613.578,1033.93L613.578,1041.03Z" style="fill-rule:nonzero;"/>
    <path d="M630.102,1052.87L639.57,1052.87C639.57,1054.63 639.594,1055.75 639.641,1056.21C639.687,1056.67 639.879,1057.06 640.215,1057.37C640.551,1057.68 641.008,1057.84 641.586,1057.84C642.07,1057.84 642.469,1057.69 642.781,1057.39C643.094,1057.09 643.27,1056.71 643.309,1056.24C643.348,1055.77 643.367,1054.83 643.367,1053.41L643.367,1047.36C642.898,1048.38 642.195,1049.14 641.258,1049.64C640.32,1050.15 639.156,1050.41 637.766,1050.41C636.031,1050.41 634.5,1049.94 633.172,1049C631.844,1048.06 631,1046.94 630.641,1045.62C630.281,1044.31 630.102,1042.54 630.102,1040.31L630.102,1037.28C630.102,1034.62 630.207,1032.65 630.418,1031.35C630.629,1030.06 631.172,1028.86 632.047,1027.75C632.922,1026.65 634.133,1025.8 635.68,1025.19C637.227,1024.58 639.023,1024.27 641.07,1024.27C643.602,1024.27 645.68,1024.62 647.305,1025.33C648.93,1026.03 650.187,1027.04 651.078,1028.36C651.969,1029.68 652.484,1031.07 652.625,1032.52C652.766,1033.98 652.836,1036.79 652.836,1040.96L652.836,1046.24C652.836,1050.75 652.773,1053.77 652.648,1055.29C652.523,1056.82 651.98,1058.26 651.02,1059.62C650.059,1060.98 648.758,1062 647.117,1062.68C645.477,1063.36 643.578,1063.7 641.422,1063.7C638.75,1063.7 636.566,1063.27 634.871,1062.41C633.176,1061.55 631.957,1060.34 631.215,1058.77C630.473,1057.21 630.102,1055.24 630.102,1052.87ZM639.57,1041.03C639.57,1042.62 639.777,1043.61 640.191,1043.99C640.605,1044.36 641.031,1044.55 641.469,1044.55C642.125,1044.55 642.605,1044.31 642.91,1043.83C643.215,1043.36 643.367,1042.42 643.367,1041.03L643.367,1034.16C643.367,1032.49 643.223,1031.4 642.934,1030.88C642.645,1030.37 642.164,1030.11 641.492,1030.11C641.086,1030.11 640.664,1030.31 640.227,1030.71C639.789,1031.11 639.57,1032.18 639.57,1033.93L639.57,1041.03Z" style="fill-rule:nonzero;"/>
    <path d="M676.508,1056.48L676.508,1062.95L655.672,1062.95L655.672,1057.53C661.844,1047.44 665.512,1041.19 666.676,1038.79C667.84,1036.39 668.422,1034.52 668.422,1033.18C668.422,1032.15 668.246,1031.38 667.895,1030.87C667.543,1030.36 667.008,1030.11 666.289,1030.11C665.57,1030.11 665.035,1030.39 664.684,1030.95C664.332,1031.52 664.156,1032.63 664.156,1034.31L664.156,1037.91L655.672,1037.91L655.672,1036.53C655.672,1034.41 655.781,1032.73 656,1031.5C656.219,1030.28 656.758,1029.07 657.617,1027.88C658.477,1026.7 659.594,1025.8 660.969,1025.19C662.344,1024.58 663.992,1024.27 665.914,1024.27C669.68,1024.27 672.527,1025.21 674.457,1027.08C676.387,1028.94 677.352,1031.31 677.352,1034.16C677.352,1036.34 676.809,1038.63 675.723,1041.06C674.637,1043.48 671.437,1048.62 666.125,1056.48L676.508,1056.48Z" style="fill-rule:nonzero;"/>
    <path d="M436.629,1079.43L436.629,1082.73C435.764,1082.73 435.204,1082.77 434.949,1082.84C434.694,1082.91 434.506,1083.08 434.387,1083.35C434.267,1083.61 434.207,1084.37 434.207,1085.61L434.207,1098.56C434.207,1099.71 434.254,1100.44 434.348,1100.72C434.441,1101.01 434.616,1101.2 434.871,1101.29C435.126,1101.39 435.712,1101.43 436.629,1101.43L436.629,1104.73L434.645,1104.73C432.811,1104.73 431.465,1104.56 430.605,1104.22C429.746,1103.88 429.178,1103.39 428.902,1102.73C428.626,1102.07 428.488,1100.68 428.488,1098.54L428.488,1085.62C428.488,1083.5 428.624,1082.1 428.895,1081.43C429.165,1080.77 429.743,1080.27 430.629,1079.93C431.514,1079.6 432.853,1079.43 434.645,1079.43L436.629,1079.43Z" style="fill-rule:nonzero;"/>
    <path d="M452.629,1094.73L444.457,1094.73L444.457,1099.21C444.457,1100.15 444.525,1100.76 444.66,1101.03C444.796,1101.3 445.056,1101.43 445.441,1101.43C445.921,1101.43 446.241,1101.25 446.402,1100.89C446.564,1100.54 446.645,1099.84 446.645,1098.81L446.645,1096.07L452.629,1096.07L452.629,1097.61C452.629,1098.89 452.548,1099.87 452.387,1100.56C452.225,1101.25 451.848,1101.98 451.254,1102.76C450.66,1103.54 449.908,1104.13 448.996,1104.52C448.085,1104.91 446.941,1105.11 445.566,1105.11C444.233,1105.11 443.056,1104.91 442.035,1104.53C441.014,1104.14 440.22,1103.61 439.652,1102.94C439.085,1102.27 438.691,1101.53 438.473,1100.72C438.254,1099.91 438.145,1098.74 438.145,1097.2L438.145,1091.15C438.145,1089.34 438.389,1087.91 438.879,1086.86C439.368,1085.82 440.171,1085.01 441.285,1084.46C442.4,1083.9 443.681,1083.62 445.129,1083.62C446.9,1083.62 448.361,1083.96 449.512,1084.63C450.663,1085.3 451.47,1086.19 451.934,1087.3C452.397,1088.41 452.629,1089.97 452.629,1091.98L452.629,1094.73ZM446.301,1091.36L446.301,1089.84C446.301,1088.77 446.243,1088.07 446.129,1087.76C446.014,1087.45 445.78,1087.29 445.426,1087.29C444.988,1087.29 444.717,1087.42 444.613,1087.69C444.509,1087.96 444.457,1088.67 444.457,1089.84L444.457,1091.36L446.301,1091.36Z" style="fill-rule:nonzero;"/>
    <path d="M461.113,1084L461.004,1085.9C461.462,1085.14 462.022,1084.57 462.684,1084.19C463.345,1083.81 464.108,1083.62 464.973,1083.62C466.056,1083.62 466.941,1083.88 467.629,1084.39C468.316,1084.9 468.759,1085.54 468.957,1086.32C469.155,1087.09 469.254,1088.39 469.254,1090.2L469.254,1104.73L462.941,1104.73L462.941,1090.37C462.941,1088.94 462.895,1088.07 462.801,1087.76C462.707,1087.45 462.447,1087.29 462.02,1087.29C461.572,1087.29 461.29,1087.47 461.176,1087.83C461.061,1088.19 461.004,1089.15 461.004,1090.71L461.004,1104.73L454.691,1104.73L454.691,1084L461.113,1084Z" style="fill-rule:nonzero;"/>
    <path d="M485.785,1079.43L485.785,1104.73L479.473,1104.73L479.473,1103.23C478.868,1103.86 478.233,1104.32 477.566,1104.64C476.9,1104.95 476.202,1105.11 475.473,1105.11C474.493,1105.11 473.645,1104.85 472.926,1104.33C472.207,1103.82 471.746,1103.22 471.543,1102.54C471.34,1101.87 471.238,1100.76 471.238,1099.23L471.238,1089.53C471.238,1087.93 471.34,1086.8 471.543,1086.14C471.746,1085.47 472.212,1084.88 472.941,1084.38C473.671,1083.87 474.54,1083.62 475.551,1083.62C476.332,1083.62 477.048,1083.76 477.699,1084.04C478.35,1084.32 478.941,1084.75 479.473,1085.31L479.473,1079.43L485.785,1079.43ZM479.473,1089.21C479.473,1088.45 479.408,1087.94 479.277,1087.68C479.147,1087.42 478.889,1087.29 478.504,1087.29C478.129,1087.29 477.876,1087.41 477.746,1087.64C477.616,1087.88 477.551,1088.4 477.551,1089.21L477.551,1099.37C477.551,1100.21 477.613,1100.77 477.738,1101.04C477.863,1101.3 478.103,1101.43 478.457,1101.43C478.863,1101.43 479.134,1101.29 479.27,1100.99C479.405,1100.69 479.473,1099.96 479.473,1098.81L479.473,1089.21Z" style="fill-rule:nonzero;"/>
    <path d="M507.973,1091.28L507.973,1096.36C507.973,1098.22 507.879,1099.59 507.691,1100.46C507.504,1101.33 507.103,1102.14 506.488,1102.89C505.874,1103.65 505.085,1104.21 504.121,1104.57C503.158,1104.92 502.051,1105.11 500.801,1105.11C499.405,1105.11 498.223,1104.95 497.254,1104.64C496.285,1104.34 495.533,1103.87 494.996,1103.25C494.46,1102.63 494.077,1101.88 493.848,1101C493.618,1100.12 493.504,1098.8 493.504,1097.04L493.504,1091.73C493.504,1089.8 493.712,1088.3 494.129,1087.21C494.546,1086.13 495.296,1085.26 496.379,1084.61C497.462,1083.95 498.848,1083.62 500.535,1083.62C501.952,1083.62 503.168,1083.83 504.184,1084.25C505.199,1084.67 505.983,1085.22 506.535,1085.9C507.087,1086.58 507.465,1087.28 507.668,1088C507.871,1088.71 507.973,1089.81 507.973,1091.28ZM501.66,1089.71C501.66,1088.65 501.603,1087.98 501.488,1087.71C501.374,1087.43 501.129,1087.29 500.754,1087.29C500.379,1087.29 500.129,1087.43 500.004,1087.71C499.879,1087.98 499.816,1088.65 499.816,1089.71L499.816,1099.07C499.816,1100.05 499.879,1100.69 500.004,1100.99C500.129,1101.29 500.374,1101.43 500.738,1101.43C501.113,1101.43 501.361,1101.3 501.48,1101.03C501.6,1100.76 501.66,1100.17 501.66,1099.28L501.66,1089.71Z" style="fill-rule:nonzero;"/>
    <path d="M518.098,1079.43L518.098,1082.64C516.796,1082.64 516.027,1082.7 515.793,1082.82C515.559,1082.94 515.441,1083.28 515.441,1083.84L515.441,1084.5L518.098,1084.5L518.098,1087.78L516.598,1087.78L516.598,1104.73L510.285,1104.73L510.285,1087.78L508.988,1087.78L508.988,1084.5L510.285,1084.5C510.285,1083.13 510.332,1082.22 510.426,1081.76C510.52,1081.3 510.751,1080.89 511.121,1080.54C511.491,1080.17 512.009,1079.9 512.676,1079.71C513.342,1079.53 514.379,1079.43 515.785,1079.43L518.098,1079.43Z" style="fill-rule:nonzero;"/>
    <path d="M539.238,1094.73L531.066,1094.73L531.066,1099.21C531.066,1100.15 531.134,1100.76 531.27,1101.03C531.405,1101.3 531.665,1101.43 532.051,1101.43C532.53,1101.43 532.85,1101.25 533.012,1100.89C533.173,1100.54 533.254,1099.84 533.254,1098.81L533.254,1096.07L539.238,1096.07L539.238,1097.61C539.238,1098.89 539.158,1099.87 538.996,1100.56C538.835,1101.25 538.457,1101.98 537.863,1102.76C537.27,1103.54 536.517,1104.13 535.605,1104.52C534.694,1104.91 533.551,1105.11 532.176,1105.11C530.842,1105.11 529.665,1104.91 528.645,1104.53C527.624,1104.14 526.829,1103.61 526.262,1102.94C525.694,1102.27 525.301,1101.53 525.082,1100.72C524.863,1099.91 524.754,1098.74 524.754,1097.2L524.754,1091.15C524.754,1089.34 524.999,1087.91 525.488,1086.86C525.978,1085.82 526.78,1085.01 527.895,1084.46C529.009,1083.9 530.29,1083.62 531.738,1083.62C533.509,1083.62 534.97,1083.96 536.121,1084.63C537.272,1085.3 538.079,1086.19 538.543,1087.3C539.006,1088.41 539.238,1089.97 539.238,1091.98L539.238,1094.73ZM532.91,1091.36L532.91,1089.84C532.91,1088.77 532.853,1088.07 532.738,1087.76C532.624,1087.45 532.389,1087.29 532.035,1087.29C531.598,1087.29 531.327,1087.42 531.223,1087.69C531.118,1087.96 531.066,1088.67 531.066,1089.84L531.066,1091.36L532.91,1091.36Z" style="fill-rule:nonzero;"/>
    <path d="M553.801,1084L551.285,1093.9L554.332,1104.73L548.191,1104.73C547.587,1102 547.129,1099.65 546.816,1097.68C546.4,1100.14 545.947,1102.49 545.457,1104.73L540.176,1104.73L542.895,1093.9L540.176,1084L545.457,1084C546.301,1088.22 546.754,1090.63 546.816,1091.2C547.421,1087.67 547.879,1085.27 548.191,1084L553.801,1084Z" style="fill-rule:nonzero;"/>
    <path d="M569.129,1091.82L563.176,1091.82L563.176,1089.43C563.176,1088.6 563.108,1088.04 562.973,1087.74C562.837,1087.44 562.587,1087.29 562.223,1087.29C561.858,1087.29 561.613,1087.42 561.488,1087.68C561.363,1087.94 561.301,1088.53 561.301,1089.43L561.301,1099.21C561.301,1099.95 561.395,1100.51 561.582,1100.88C561.77,1101.25 562.046,1101.43 562.41,1101.43C562.837,1101.43 563.126,1101.24 563.277,1100.86C563.428,1100.47 563.504,1099.74 563.504,1098.67L563.504,1096.2L569.129,1096.2C569.118,1097.86 569.059,1099.1 568.949,1099.92C568.84,1100.75 568.491,1101.6 567.902,1102.47C567.314,1103.34 566.546,1104 565.598,1104.44C564.65,1104.88 563.478,1105.11 562.082,1105.11C560.301,1105.11 558.889,1104.8 557.848,1104.19C556.806,1103.58 556.069,1102.73 555.637,1101.63C555.204,1100.53 554.988,1098.97 554.988,1096.95L554.988,1091.06C554.988,1089.3 555.165,1087.97 555.52,1087.07C555.874,1086.18 556.629,1085.38 557.785,1084.67C558.941,1083.97 560.348,1083.62 562.004,1083.62C563.65,1083.62 565.056,1083.97 566.223,1084.67C567.389,1085.37 568.165,1086.25 568.551,1087.31C568.936,1088.37 569.129,1089.88 569.129,1091.82Z" style="fill-rule:nonzero;"/>
    <path d="M585.301,1094.73L577.129,1094.73L577.129,1099.21C577.129,1100.15 577.197,1100.76 577.332,1101.03C577.467,1101.3 577.728,1101.43 578.113,1101.43C578.592,1101.43 578.913,1101.25 579.074,1100.89C579.236,1100.54 579.316,1099.84 579.316,1098.81L579.316,1096.07L585.301,1096.07L585.301,1097.61C585.301,1098.89 585.22,1099.87 585.059,1100.56C584.897,1101.25 584.52,1101.98 583.926,1102.76C583.332,1103.54 582.579,1104.13 581.668,1104.52C580.756,1104.91 579.613,1105.11 578.238,1105.11C576.905,1105.11 575.728,1104.91 574.707,1104.53C573.686,1104.14 572.892,1103.61 572.324,1102.94C571.756,1102.27 571.363,1101.53 571.145,1100.72C570.926,1099.91 570.816,1098.74 570.816,1097.2L570.816,1091.15C570.816,1089.34 571.061,1087.91 571.551,1086.86C572.04,1085.82 572.842,1085.01 573.957,1084.46C575.072,1083.9 576.353,1083.62 577.801,1083.62C579.572,1083.62 581.033,1083.96 582.184,1084.63C583.335,1085.3 584.142,1086.19 584.605,1087.3C585.069,1088.41 585.301,1089.97 585.301,1091.98L585.301,1094.73ZM578.973,1091.36L578.973,1089.84C578.973,1088.77 578.915,1088.07 578.801,1087.76C578.686,1087.45 578.452,1087.29 578.098,1087.29C577.66,1087.29 577.389,1087.42 577.285,1087.69C577.181,1087.96 577.129,1088.67 577.129,1089.84L577.129,1091.36L578.973,1091.36Z" style="fill-rule:nonzero;"/>
    <path d="M593.676,1084L593.426,1086.71C594.342,1084.77 595.671,1083.74 597.41,1083.62L597.41,1090.92C596.254,1090.92 595.405,1091.07 594.863,1091.39C594.322,1091.7 593.988,1092.13 593.863,1092.69C593.738,1093.25 593.676,1094.53 593.676,1096.54L593.676,1104.73L587.363,1104.73L587.363,1084L593.676,1084Z" style="fill-rule:nonzero;"/>
    <path d="M605.238,1084L605.129,1085.82C605.691,1085.08 606.311,1084.53 606.988,1084.17C607.665,1083.8 608.405,1083.62 609.207,1083.62C610.186,1083.62 611.033,1083.88 611.746,1084.41C612.46,1084.94 612.905,1085.54 613.082,1086.23C613.259,1086.92 613.348,1088.08 613.348,1089.73L613.348,1098.46C613.348,1100.35 613.236,1101.69 613.012,1102.49C612.788,1103.29 612.329,1103.92 611.637,1104.39C610.944,1104.87 610.108,1105.11 609.129,1105.11C608.348,1105.11 607.624,1104.92 606.957,1104.56C606.29,1104.19 605.681,1103.65 605.129,1102.93L605.129,1107.68L598.816,1107.68L598.816,1084L605.238,1084ZM607.035,1090.03C607.035,1088.75 606.988,1087.97 606.895,1087.7C606.801,1087.43 606.54,1087.29 606.113,1087.29C605.697,1087.29 605.428,1087.45 605.309,1087.76C605.189,1088.07 605.129,1088.83 605.129,1090.03L605.129,1098.62C605.129,1099.87 605.191,1100.65 605.316,1100.96C605.441,1101.28 605.712,1101.43 606.129,1101.43C606.535,1101.43 606.788,1101.29 606.887,1101C606.986,1100.72 607.035,1100.02 607.035,1098.92L607.035,1090.03Z" style="fill-rule:nonzero;"/>
    <path d="M622.082,1081.23L622.082,1084.5L623.785,1084.5L623.785,1087.78L622.082,1087.78L622.082,1098.87C622.082,1100.24 622.152,1101 622.293,1101.15C622.434,1101.31 623.02,1101.39 624.051,1101.39L624.051,1104.73L621.504,1104.73C620.066,1104.73 619.04,1104.67 618.426,1104.55C617.811,1104.43 617.27,1104.15 616.801,1103.72C616.332,1103.29 616.04,1102.8 615.926,1102.24C615.811,1101.68 615.754,1100.37 615.754,1098.31L615.754,1087.78L614.395,1087.78L614.395,1084.5L615.754,1084.5L615.754,1081.23L622.082,1081.23Z" style="fill-rule:nonzero;"/>
    <path d="M624.613,1079.43L626.598,1079.43C628.389,1079.43 629.728,1079.6 630.613,1079.93C631.499,1080.27 632.077,1080.77 632.348,1081.43C632.618,1082.1 632.754,1083.5 632.754,1085.62L632.754,1098.54C632.754,1100.68 632.618,1102.07 632.348,1102.73C632.077,1103.39 631.509,1103.88 630.645,1104.22C629.78,1104.56 628.431,1104.73 626.598,1104.73L624.613,1104.73L624.613,1101.43C625.54,1101.43 626.129,1101.39 626.379,1101.29C626.629,1101.2 626.803,1101.01 626.902,1100.72C627.001,1100.44 627.051,1099.71 627.051,1098.56L627.051,1085.61C627.051,1084.37 626.988,1083.61 626.863,1083.35C626.738,1083.08 626.548,1082.91 626.293,1082.84C626.038,1082.77 625.478,1082.73 624.613,1082.73L624.613,1079.43Z" style="fill-rule:nonzero;"/>
</svg>
