<?xml version="1.0" standalone="no"?>
<!DOCTYPE svg PUBLIC "-//W3C//DTD SVG 20010904//EN"
 "http://www.w3.org/TR/2001/REC-SVG-20010904/DTD/svg10.dtd">
<svg version="1.0" xmlns="http://www.w3.org/2000/svg"
 width="512.000000pt" height="512.000000pt" viewBox="0 0 512.000000 512.000000"
 preserveAspectRatio="xMidYMid meet">
<metadata>
Created by potrace 1.11, written by Peter Selinger 2001-2013
</metadata>
<g transform="translate(0.000000,512.000000) scale(0.100000,-0.100000)"
fill="#000000" stroke="none">
<path d="M2501 4465 c-30 -9 -69 -25 -87 -36 -55 -34 -121 -116 -144 -177 -29
-82 -32 -86 -81 -100 -399 -117 -627 -247 -865 -493 -207 -215 -348 -461 -430
-749 -15 -52 -31 -103 -36 -112 -4 -10 -32 -24 -61 -33 -108 -32 -197 -115
-233 -217 -24 -69 -20 -179 10 -243 44 -96 142 -180 234 -200 39 -8 56 -32 72
-105 23 -99 71 -223 136 -350 179 -348 458 -618 819 -795 352 -173 714 -221
1088 -146 325 66 644 234 894 474 45 43 90 79 100 79 10 1 44 -4 75 -11 110
-24 238 18 316 103 65 71 86 125 87 226 0 100 -24 163 -93 243 -23 27 -42 51
-42 53 0 3 11 49 24 102 104 413 62 839 -120 1222 -85 177 -162 292 -293 435
-210 230 -492 401 -813 495 -102 29 -138 50 -138 80 0 33 -61 139 -102 175
-86 78 -211 110 -317 80z m-246 -443 c6 -4 23 -28 37 -53 34 -57 97 -115 157
-143 37 -17 65 -21 141 -21 84 0 101 3 148 28 63 33 120 88 153 148 31 57 51
59 182 19 363 -112 697 -368 895 -685 248 -401 321 -888 197 -1322 -18 -63
-34 -73 -114 -73 -127 0 -235 -69 -293 -188 -29 -59 -33 -76 -33 -152 0 -76 3
-92 33 -149 17 -35 32 -72 32 -81 0 -22 -136 -153 -238 -228 -201 -149 -475
-266 -717 -307 -152 -26 -406 -21 -557 10 -454 95 -871 386 -1100 770 -93 156
-179 375 -182 464 -1 41 2 47 33 66 61 37 133 109 158 159 47 94 48 208 1 305
-26 53 -102 132 -147 150 -31 14 -47 41 -42 76 6 55 69 233 117 335 135 283
368 540 627 692 200 117 468 211 512 180z"/>
</g>
</svg>
