<svg width="55" height="55" viewBox="0 0 55 55" fill="none" xmlns="http://www.w3.org/2000/svg">
  <path
    d="M52.4977 27.5C52.4977 41.3059 41.3058 52.4977 27.5 52.4977C13.6941 52.4977 2.50229 41.3059 2.50229 27.5C2.50229 13.6941 13.6941 2.50229 27.5 2.50229C41.3058 2.50229 52.4977 13.6942 52.4977 27.5Z"
    stroke="currentColor" stroke-width="5.00459" stroke-miterlimit="1.5" stroke-linecap="round" stroke-linejoin="round" />
  <path
    d="M33.3333 12.9167L40.625 20.2083V40.637C40.625 41.4358 39.9762 42.0833 39.1763 42.0833H15.8237C15.0236 42.0833 14.375 41.4193 14.375 40.637V14.363C14.375 13.5642 15.0239 12.9167 15.8237 12.9167H33.3333ZM26.0417 27.5729C25.806 27.5251 25.5622 27.5 25.3125 27.5C23.299 27.5 21.6667 29.1323 21.6667 31.1458C21.6667 33.1593 23.299 34.7917 25.3125 34.7917C27.326 34.7917 28.9583 33.1593 28.9583 31.1458V24.5833H33.3333V21.6667H26.0417V27.5729Z"
    fill="currentColor" />
</svg>