<?xml version="1.0" encoding="UTF-8" standalone="no"?>
<!DOCTYPE svg PUBLIC "-//W3C//DTD SVG 1.1//EN" "http://www.w3.org/Graphics/SVG/1.1/DTD/svg11.dtd">
<svg width="100%" height="100%" viewBox="0 0 800 800" version="1.1" xmlns="http://www.w3.org/2000/svg"
  xmlns:xlink="http://www.w3.org/1999/xlink" xml:space="preserve" xmlns:serif="http://www.serif.com/"
  style="fill-rule:evenodd;clip-rule:evenodd;stroke-linejoin:round;stroke-miterlimit:2;">
  <g id="XMLID_519_" transform="matrix(0.875,0,0,0.875,50,50)">
    <g id="XMLID_518_">
      <path id="XMLID_519_1" serif:id="XMLID_519_"
        d="M157.576,800L642.424,800C662.507,800 678.788,783.719 678.788,763.636L678.788,351.515C678.788,331.433 662.507,315.152 642.424,315.152L606.061,315.152L606.061,206.061C606.061,92.439 513.622,0 400,0C286.378,0 193.942,92.439 193.942,206.061L193.942,315.152L157.576,315.152C137.493,315.152 121.212,331.433 121.212,351.515L121.212,763.636C121.212,783.719 137.493,800 157.576,800ZM266.669,206.061C266.669,132.541 326.482,72.727 400,72.727C473.52,72.727 533.333,132.541 533.333,206.061L533.333,315.152L266.669,315.152L266.669,206.061Z"
        style="fill:white;fill-rule:nonzero;" />
    </g>
  </g>
</svg>