<svg width="55" height="55" viewBox="0 0 55 55" fill="none" xmlns="http://www.w3.org/2000/svg">
  <path
    d="M52.4977 27.5C52.4977 41.3059 41.3058 52.4977 27.5 52.4977C13.6941 52.4977 2.50229 41.3059 2.50229 27.5C2.50229 13.6941 13.6941 2.50229 27.5 2.50229C41.3058 2.50229 52.4977 13.6942 52.4977 27.5Z"
    stroke="currentColor" stroke-width="5.00459" stroke-miterlimit="1.5" stroke-linecap="round" stroke-linejoin="round" />
  <path
    d="M19.8728 41.6703H35.1275C37.1517 41.6703 38.1202 40.6729 38.1202 38.4727V26.7382C38.1202 24.8018 37.3866 23.8044 35.8317 23.5695V20.0788C35.8317 14.3578 32.3698 10.6616 27.5001 10.6616C22.6305 10.6616 19.1686 14.3578 19.1686 20.0788V23.5989C17.6137 23.8338 16.8801 24.8312 16.8801 26.7382V38.4727C16.8801 40.6729 17.8486 41.6703 19.8728 41.6703ZM22.2196 19.7555C22.2196 16.0593 24.332 13.6242 27.5001 13.6242C30.6683 13.6242 32.7807 16.0593 32.7807 19.7555V23.54H22.2196V19.7555Z"
    fill="currentColor" />
</svg>