<svg width="55" height="55" viewBox="0 0 55 55" fill="none" xmlns="http://www.w3.org/2000/svg">
  <path d="M53.5 27.5C53.5 41.8594 41.8594 53.5 27.5 53.5C13.1406 53.5 1.5 41.8594 1.5 27.5C1.5 13.1406 13.1406 1.5 27.5 1.5C41.8594 1.5 53.5 13.1406 53.5 27.5Z" stroke="black" stroke-width="3" stroke-miterlimit="1.5" stroke-linecap="round" stroke-linejoin="round"/>
  <path d="M19.8728 41.6703H35.1275C37.1517 41.6703 38.1202 40.6729 38.1202 38.4727V26.7382C38.1202 24.8018 37.3866 23.8044 35.8317 23.5695V20.0788C35.8317 14.3578 32.3698 10.6616 27.5001 10.6616C22.6305 10.6616 19.1686 14.3578 19.1686 20.0788V23.5989C17.6137 23.8338 16.8801 24.8312 16.8801 26.7382V38.4727C16.8801 40.6729 17.8486 41.6703 19.8728 41.6703ZM22.2196 19.7555C22.2196 16.0593 24.332 13.6242 27.5001 13.6242C30.6683 13.6242 32.7807 16.0593 32.7807 19.7555V23.54H22.2196V19.7555Z" fill="black"/>
  </svg>
  