<?xml version="1.0" encoding="UTF-8" standalone="no"?>
<!DOCTYPE svg PUBLIC "-//W3C//DTD SVG 1.1//EN" "http://www.w3.org/Graphics/SVG/1.1/DTD/svg11.dtd">
<svg width="100%" height="100%" viewBox="0 0 800 800" version="1.1" xmlns="http://www.w3.org/2000/svg"
  xmlns:xlink="http://www.w3.org/1999/xlink" xml:space="preserve" xmlns:serif="http://www.serif.com/"
  style="fill-rule:evenodd;clip-rule:evenodd;stroke-linejoin:round;stroke-miterlimit:2;">
  <g transform="matrix(-1,1.22465e-16,-1.22465e-16,-1,800.001,800)">
    <path
      d="M752.637,217.155C656.73,17.663 405.937,-54.879 210.53,47.072C195.172,55.568 188.473,74.194 196.969,91.186C205.465,106.544 224.091,113.243 241.082,104.747C404.303,19.787 612.617,80.403 693.165,245.747C800.018,465.171 662.122,632.476 550.368,694.399C398.258,778.868 205.301,722.827 113.153,578.886L226.378,602.577C243.37,606.008 261.996,595.715 265.427,577.089C268.858,560.097 258.564,541.471 239.939,538.04L39.304,497.194C5.647,493.927 -1.542,524.316 0.255,534.609L25.743,736.878C27.377,753.87 41.101,765.797 58.093,765.797C79.006,765.797 92.077,745.374 90.443,726.749L80.64,644.24C174.422,759.915 358.882,858.599 582.881,755.667C677.807,706.652 895.761,514.35 752.637,217.155Z"
      style="fill-rule:nonzero;" />
  </g>
</svg>