<?xml version="1.0" encoding="UTF-8" standalone="no"?>
<!DOCTYPE svg PUBLIC "-//W3C//DTD SVG 1.1//EN" "http://www.w3.org/Graphics/SVG/1.1/DTD/svg11.dtd">
<svg width="100%" height="100%" viewBox="0 0 512 512" version="1.1" xmlns="http://www.w3.org/2000/svg"
  xmlns:xlink="http://www.w3.org/1999/xlink" xml:space="preserve" xmlns:serif="http://www.serif.com/"
  style="fill-rule:evenodd;clip-rule:evenodd;stroke-linejoin:round;stroke-miterlimit:2;">
  <g>
    <g transform="matrix(1.75945,0,0,0.786484,-15.8351,-12.5837)">
      <path
        d="M300,29.95L300,95.05C300,102.749 297.206,109 293.764,109L15.236,109C11.794,109 9,102.749 9,95.05L9,29.95C9,22.251 11.794,16 15.236,16L293.764,16C297.206,16 300,22.251 300,29.95Z" />
    </g>
    <g transform="matrix(1.75945,0,0,0.786484,-15.8351,133.416)">
      <path
        d="M300,29.95L300,95.05C300,102.749 297.206,109 293.764,109L15.236,109C11.794,109 9,102.749 9,95.05L9,29.95C9,22.251 11.794,16 15.236,16L293.764,16C297.206,16 300,22.251 300,29.95Z" />
    </g>
    <g transform="matrix(1.75945,0,0,0.786484,-15.8351,282.416)">
      <path
        d="M300,29.95L300,95.05C300,102.749 297.206,109 293.764,109L15.236,109C11.794,109 9,102.749 9,95.05L9,29.95C9,22.251 11.794,16 15.236,16L293.764,16C297.206,16 300,22.251 300,29.95Z" />
    </g>
    <g transform="matrix(1.00921,0,0,0.786484,-9.08286,426.416)">
      <path
        d="M300,29.95L300,95.05C300,102.749 295.129,109 289.129,109L19.871,109C13.871,109 9,102.749 9,95.05L9,29.95C9,22.251 13.871,16 19.871,16L289.129,16C295.129,16 300,22.251 300,29.95Z" />
    </g>
  </g>
</svg>