<?xml version="1.0" encoding="UTF-8" standalone="no"?>
<!DOCTYPE svg PUBLIC "-//W3C//DTD SVG 1.1//EN" "http://www.w3.org/Graphics/SVG/1.1/DTD/svg11.dtd">
<svg width="100%" height="100%" viewBox="0 0 800 800" version="1.1" xmlns="http://www.w3.org/2000/svg"
  xmlns:xlink="http://www.w3.org/1999/xlink" xml:space="preserve" xmlns:serif="http://www.serif.com/"
  style="fill-rule:evenodd;clip-rule:evenodd;stroke-linejoin:round;stroke-miterlimit:2;">
  <g>
    <g>
      <g>
        <circle cx="400" cy="400" r="110" />
        <g transform="matrix(1,0,0,1,-290,0)">
          <circle cx="400" cy="400" r="110" />
        </g>
        <g transform="matrix(1,0,0,1,-290,290)">
          <circle cx="400" cy="400" r="110" />
        </g>
        <g transform="matrix(1,0,0,1,0,290)">
          <circle cx="400" cy="400" r="110" />
        </g>
        <g transform="matrix(1,0,0,1,290,290)">
          <circle cx="400" cy="400" r="110" />
        </g>
        <g transform="matrix(1,0,0,1,290,0)">
          <circle cx="400" cy="400" r="110" />
        </g>
        <g transform="matrix(1,0,0,1,290,-290)">
          <circle cx="400" cy="400" r="110" />
        </g>
        <g transform="matrix(1,0,0,1,0,-290)">
          <circle cx="400" cy="400" r="110" />
        </g>
        <g transform="matrix(1,0,0,1,-290,-290)">
          <circle cx="400" cy="400" r="110" />
        </g>
      </g>
    </g>
  </g>
</svg>