<?xml version="1.0" encoding="UTF-8" standalone="no"?>
<!DOCTYPE svg PUBLIC "-//W3C//DTD SVG 1.1//EN" "http://www.w3.org/Graphics/SVG/1.1/DTD/svg11.dtd">
<svg width="100%" height="100%" viewBox="0 0 1801 1801" version="1.1" xmlns="http://www.w3.org/2000/svg" xmlns:xlink="http://www.w3.org/1999/xlink" xml:space="preserve" xmlns:serif="http://www.serif.com/" style="fill-rule:evenodd;clip-rule:evenodd;stroke-linecap:square;stroke-linejoin:round;stroke-miterlimit:1.5;">
    <g transform="matrix(1,0,0,1,-15062,-4431)">
        <g id="_8" serif:id="8" transform="matrix(1,0,0,1,15062.8,4431.57)">
            <rect x="0" y="0" width="1800" height="1800" style="fill:none;"/>
            <g transform="matrix(1,0,0,1,157.153,156.568)">
                <rect x="0" y="0" width="1501.06" height="1501.09" style="fill:white;"/>
            </g>
            <g transform="matrix(1,0,0,1,-338.7,-1549.89)">
                <g transform="matrix(83.3333,0,0,83.3333,586.491,2935.62)">
                    <path d="M0.082,-0.486L0.15,-0.486L0.157,-0.398L0.16,-0.398C0.177,-0.429 0.197,-0.453 0.221,-0.471C0.244,-0.489 0.27,-0.498 0.298,-0.498C0.317,-0.498 0.335,-0.495 0.35,-0.488L0.334,-0.416C0.326,-0.419 0.319,-0.421 0.312,-0.422C0.305,-0.423 0.297,-0.424 0.287,-0.424C0.266,-0.424 0.245,-0.416 0.223,-0.399C0.2,-0.382 0.181,-0.353 0.164,-0.312L0.164,0L0.082,0L0.082,-0.486Z" style="fill-rule:nonzero;"/>
                </g>
                <g transform="matrix(83.3333,0,0,83.3333,614.575,2935.62)">
                    <path d="M0.271,0.012C0.241,0.012 0.213,0.006 0.186,-0.005C0.159,-0.016 0.135,-0.033 0.114,-0.055C0.093,-0.076 0.077,-0.103 0.065,-0.135C0.052,-0.166 0.046,-0.202 0.046,-0.242C0.046,-0.283 0.052,-0.319 0.065,-0.35C0.077,-0.382 0.093,-0.409 0.114,-0.431C0.135,-0.453 0.159,-0.47 0.186,-0.481C0.213,-0.492 0.241,-0.498 0.271,-0.498C0.301,-0.498 0.33,-0.492 0.357,-0.481C0.384,-0.47 0.407,-0.453 0.428,-0.431C0.449,-0.409 0.465,-0.382 0.477,-0.35C0.49,-0.319 0.496,-0.283 0.496,-0.242C0.496,-0.202 0.49,-0.166 0.477,-0.135C0.465,-0.103 0.449,-0.076 0.428,-0.055C0.407,-0.033 0.384,-0.016 0.357,-0.005C0.33,0.006 0.301,0.012 0.271,0.012ZM0.271,-0.056C0.292,-0.056 0.311,-0.061 0.328,-0.07C0.345,-0.079 0.36,-0.091 0.373,-0.108C0.385,-0.124 0.394,-0.143 0.401,-0.166C0.408,-0.189 0.411,-0.214 0.411,-0.242C0.411,-0.27 0.408,-0.296 0.401,-0.319C0.394,-0.342 0.385,-0.361 0.373,-0.378C0.36,-0.395 0.345,-0.407 0.328,-0.417C0.311,-0.426 0.292,-0.43 0.271,-0.43C0.25,-0.43 0.231,-0.426 0.214,-0.417C0.197,-0.407 0.182,-0.395 0.17,-0.378C0.157,-0.361 0.148,-0.342 0.141,-0.319C0.134,-0.296 0.131,-0.27 0.131,-0.242C0.131,-0.214 0.134,-0.189 0.141,-0.166C0.148,-0.143 0.157,-0.124 0.17,-0.108C0.182,-0.091 0.197,-0.079 0.214,-0.07C0.231,-0.061 0.25,-0.056 0.271,-0.056Z" style="fill-rule:nonzero;"/>
                </g>
                <g transform="matrix(83.3333,0,0,83.3333,658.325,2935.62)">
                    <path d="M0.235,0.012C0.209,0.012 0.187,0.008 0.17,0C0.152,-0.008 0.138,-0.019 0.127,-0.033C0.116,-0.047 0.108,-0.064 0.103,-0.084C0.098,-0.104 0.096,-0.126 0.096,-0.15L0.096,-0.419L0.024,-0.419L0.024,-0.481L0.1,-0.486L0.11,-0.622L0.179,-0.622L0.179,-0.486L0.31,-0.486L0.31,-0.419L0.179,-0.419L0.179,-0.149C0.179,-0.119 0.185,-0.096 0.196,-0.08C0.206,-0.063 0.226,-0.055 0.254,-0.055C0.263,-0.055 0.272,-0.056 0.282,-0.059C0.292,-0.062 0.301,-0.065 0.309,-0.068L0.325,-0.006C0.312,-0.001 0.297,0.003 0.281,0.006C0.266,0.01 0.25,0.012 0.235,0.012Z" style="fill-rule:nonzero;"/>
                </g>
                <g transform="matrix(83.3333,0,0,83.3333,684.741,2935.62)">
                    <path d="M0.194,0.012C0.153,0.012 0.119,0 0.093,-0.024C0.066,-0.048 0.052,-0.082 0.052,-0.126C0.052,-0.179 0.076,-0.22 0.123,-0.249C0.17,-0.277 0.246,-0.297 0.35,-0.308C0.35,-0.323 0.348,-0.338 0.345,-0.353C0.343,-0.368 0.337,-0.381 0.33,-0.392C0.323,-0.403 0.313,-0.412 0.3,-0.42C0.286,-0.427 0.27,-0.43 0.25,-0.43C0.222,-0.43 0.196,-0.425 0.171,-0.414C0.146,-0.403 0.124,-0.391 0.105,-0.378L0.073,-0.435C0.096,-0.45 0.123,-0.464 0.156,-0.477C0.189,-0.491 0.225,-0.498 0.264,-0.498C0.323,-0.498 0.366,-0.48 0.393,-0.444C0.42,-0.407 0.433,-0.359 0.433,-0.298L0.433,0L0.365,0L0.358,-0.058L0.355,-0.058C0.332,-0.039 0.307,-0.022 0.28,-0.009C0.253,0.005 0.225,0.012 0.194,0.012ZM0.218,-0.054C0.241,-0.054 0.263,-0.059 0.284,-0.07C0.305,-0.082 0.327,-0.098 0.35,-0.119L0.35,-0.254C0.309,-0.249 0.275,-0.242 0.248,-0.235C0.22,-0.228 0.198,-0.219 0.181,-0.209C0.164,-0.199 0.151,-0.188 0.143,-0.174C0.136,-0.162 0.132,-0.147 0.132,-0.132C0.132,-0.104 0.14,-0.084 0.157,-0.072C0.174,-0.06 0.194,-0.054 0.218,-0.054Z" style="fill-rule:nonzero;"/>
                </g>
                <g transform="matrix(83.3333,0,0,83.3333,725.575,2935.62)">
                    <path d="M0.235,0.012C0.209,0.012 0.187,0.008 0.17,0C0.152,-0.008 0.138,-0.019 0.127,-0.033C0.116,-0.047 0.108,-0.064 0.103,-0.084C0.098,-0.104 0.096,-0.126 0.096,-0.15L0.096,-0.419L0.024,-0.419L0.024,-0.481L0.1,-0.486L0.11,-0.622L0.179,-0.622L0.179,-0.486L0.31,-0.486L0.31,-0.419L0.179,-0.419L0.179,-0.149C0.179,-0.119 0.185,-0.096 0.196,-0.08C0.206,-0.063 0.226,-0.055 0.254,-0.055C0.263,-0.055 0.272,-0.056 0.282,-0.059C0.292,-0.062 0.301,-0.065 0.309,-0.068L0.325,-0.006C0.312,-0.001 0.297,0.003 0.281,0.006C0.266,0.01 0.25,0.012 0.235,0.012Z" style="fill-rule:nonzero;"/>
                </g>
                <g transform="matrix(83.3333,0,0,83.3333,753.741,2935.62)">
                    <path d="M0.082,-0.486L0.164,-0.486L0.164,0L0.082,0L0.082,-0.486ZM0.124,-0.586C0.108,-0.586 0.095,-0.591 0.084,-0.601C0.073,-0.611 0.067,-0.624 0.067,-0.639C0.067,-0.655 0.073,-0.668 0.084,-0.678C0.095,-0.687 0.108,-0.692 0.124,-0.692C0.14,-0.692 0.154,-0.687 0.165,-0.678C0.175,-0.668 0.181,-0.655 0.181,-0.639C0.181,-0.624 0.175,-0.611 0.165,-0.601C0.154,-0.591 0.14,-0.586 0.124,-0.586Z" style="fill-rule:nonzero;"/>
                </g>
                <g transform="matrix(83.3333,0,0,83.3333,774.241,2935.62)">
                    <path d="M0.271,0.012C0.241,0.012 0.213,0.006 0.186,-0.005C0.159,-0.016 0.135,-0.033 0.114,-0.055C0.093,-0.076 0.077,-0.103 0.065,-0.135C0.052,-0.166 0.046,-0.202 0.046,-0.242C0.046,-0.283 0.052,-0.319 0.065,-0.35C0.077,-0.382 0.093,-0.409 0.114,-0.431C0.135,-0.453 0.159,-0.47 0.186,-0.481C0.213,-0.492 0.241,-0.498 0.271,-0.498C0.301,-0.498 0.33,-0.492 0.357,-0.481C0.384,-0.47 0.407,-0.453 0.428,-0.431C0.449,-0.409 0.465,-0.382 0.477,-0.35C0.49,-0.319 0.496,-0.283 0.496,-0.242C0.496,-0.202 0.49,-0.166 0.477,-0.135C0.465,-0.103 0.449,-0.076 0.428,-0.055C0.407,-0.033 0.384,-0.016 0.357,-0.005C0.33,0.006 0.301,0.012 0.271,0.012ZM0.271,-0.056C0.292,-0.056 0.311,-0.061 0.328,-0.07C0.345,-0.079 0.36,-0.091 0.373,-0.108C0.385,-0.124 0.394,-0.143 0.401,-0.166C0.408,-0.189 0.411,-0.214 0.411,-0.242C0.411,-0.27 0.408,-0.296 0.401,-0.319C0.394,-0.342 0.385,-0.361 0.373,-0.378C0.36,-0.395 0.345,-0.407 0.328,-0.417C0.311,-0.426 0.292,-0.43 0.271,-0.43C0.25,-0.43 0.231,-0.426 0.214,-0.417C0.197,-0.407 0.182,-0.395 0.17,-0.378C0.157,-0.361 0.148,-0.342 0.141,-0.319C0.134,-0.296 0.131,-0.27 0.131,-0.242C0.131,-0.214 0.134,-0.189 0.141,-0.166C0.148,-0.143 0.157,-0.124 0.17,-0.108C0.182,-0.091 0.197,-0.079 0.214,-0.07C0.231,-0.061 0.25,-0.056 0.271,-0.056Z" style="fill-rule:nonzero;"/>
                </g>
                <g transform="matrix(83.3333,0,0,83.3333,819.408,2935.62)">
                    <path d="M0.082,-0.486L0.15,-0.486L0.157,-0.416L0.16,-0.416C0.183,-0.439 0.208,-0.459 0.234,-0.474C0.259,-0.49 0.289,-0.498 0.323,-0.498C0.374,-0.498 0.412,-0.482 0.436,-0.45C0.459,-0.418 0.471,-0.371 0.471,-0.308L0.471,0L0.389,0L0.389,-0.297C0.389,-0.343 0.382,-0.376 0.367,-0.397C0.352,-0.417 0.329,-0.427 0.297,-0.427C0.272,-0.427 0.249,-0.421 0.23,-0.408C0.211,-0.395 0.189,-0.377 0.164,-0.352L0.164,0L0.082,0L0.082,-0.486Z" style="fill-rule:nonzero;"/>
                </g>
                <g transform="matrix(83.3333,0,0,83.3333,864.991,2935.62)">
                    <path d="M0.209,0.012C0.174,0.012 0.141,0.006 0.11,-0.007C0.079,-0.02 0.051,-0.036 0.028,-0.055L0.069,-0.11C0.09,-0.093 0.112,-0.079 0.135,-0.068C0.157,-0.057 0.183,-0.052 0.212,-0.052C0.244,-0.052 0.268,-0.059 0.284,-0.074C0.3,-0.089 0.308,-0.107 0.308,-0.128C0.308,-0.141 0.305,-0.152 0.298,-0.161C0.291,-0.17 0.283,-0.179 0.273,-0.186C0.262,-0.193 0.25,-0.199 0.237,-0.204C0.224,-0.209 0.21,-0.215 0.197,-0.22C0.18,-0.226 0.162,-0.233 0.145,-0.241C0.128,-0.248 0.112,-0.258 0.099,-0.269C0.085,-0.28 0.074,-0.292 0.065,-0.307C0.056,-0.322 0.052,-0.339 0.052,-0.36C0.052,-0.379 0.056,-0.398 0.064,-0.414C0.071,-0.432 0.082,-0.446 0.097,-0.459C0.111,-0.471 0.128,-0.481 0.149,-0.488C0.17,-0.495 0.193,-0.498 0.219,-0.498C0.25,-0.498 0.278,-0.493 0.304,-0.482C0.329,-0.471 0.351,-0.458 0.37,-0.443L0.331,-0.391C0.314,-0.404 0.297,-0.414 0.279,-0.422C0.261,-0.43 0.241,-0.434 0.22,-0.434C0.189,-0.434 0.167,-0.427 0.153,-0.413C0.138,-0.399 0.131,-0.383 0.131,-0.364C0.131,-0.353 0.134,-0.343 0.14,-0.335C0.146,-0.326 0.154,-0.319 0.164,-0.313C0.174,-0.306 0.186,-0.301 0.199,-0.296C0.212,-0.291 0.225,-0.285 0.239,-0.28C0.256,-0.273 0.274,-0.266 0.292,-0.259C0.309,-0.252 0.325,-0.243 0.339,-0.232C0.353,-0.221 0.365,-0.207 0.374,-0.191C0.383,-0.175 0.387,-0.156 0.387,-0.133C0.387,-0.113 0.383,-0.094 0.376,-0.077C0.368,-0.06 0.357,-0.044 0.342,-0.031C0.327,-0.018 0.308,-0.007 0.285,0C0.263,0.008 0.238,0.012 0.209,0.012Z" style="fill-rule:nonzero;"/>
                </g>
                <g transform="matrix(83.3333,0,0,83.3333,916.575,2935.62)">
                    <path d="M0.082,-0.486L0.15,-0.486L0.157,-0.416L0.16,-0.416C0.181,-0.439 0.204,-0.459 0.23,-0.474C0.255,-0.49 0.282,-0.498 0.311,-0.498C0.348,-0.498 0.378,-0.49 0.399,-0.473C0.42,-0.457 0.435,-0.434 0.445,-0.405C0.47,-0.433 0.496,-0.456 0.522,-0.472C0.547,-0.49 0.575,-0.498 0.605,-0.498C0.655,-0.498 0.692,-0.482 0.717,-0.45C0.741,-0.418 0.753,-0.371 0.753,-0.308L0.753,0L0.671,0L0.671,-0.297C0.671,-0.343 0.664,-0.376 0.649,-0.397C0.634,-0.417 0.612,-0.427 0.581,-0.427C0.544,-0.427 0.504,-0.402 0.459,-0.352L0.459,0L0.377,0L0.377,-0.297C0.377,-0.343 0.37,-0.376 0.355,-0.397C0.34,-0.417 0.317,-0.427 0.286,-0.427C0.249,-0.427 0.209,-0.402 0.164,-0.352L0.164,0L0.082,0L0.082,-0.486Z" style="fill-rule:nonzero;"/>
                </g>
                <g transform="matrix(83.3333,0,0,83.3333,985.658,2935.62)">
                    <path d="M0.194,0.012C0.153,0.012 0.119,0 0.093,-0.024C0.066,-0.048 0.052,-0.082 0.052,-0.126C0.052,-0.179 0.076,-0.22 0.123,-0.249C0.17,-0.277 0.246,-0.297 0.35,-0.308C0.35,-0.323 0.348,-0.338 0.345,-0.353C0.343,-0.368 0.337,-0.381 0.33,-0.392C0.323,-0.403 0.313,-0.412 0.3,-0.42C0.286,-0.427 0.27,-0.43 0.25,-0.43C0.222,-0.43 0.196,-0.425 0.171,-0.414C0.146,-0.403 0.124,-0.391 0.105,-0.378L0.073,-0.435C0.096,-0.45 0.123,-0.464 0.156,-0.477C0.189,-0.491 0.225,-0.498 0.264,-0.498C0.323,-0.498 0.366,-0.48 0.393,-0.444C0.42,-0.407 0.433,-0.359 0.433,-0.298L0.433,0L0.365,0L0.358,-0.058L0.355,-0.058C0.332,-0.039 0.307,-0.022 0.28,-0.009C0.253,0.005 0.225,0.012 0.194,0.012ZM0.218,-0.054C0.241,-0.054 0.263,-0.059 0.284,-0.07C0.305,-0.082 0.327,-0.098 0.35,-0.119L0.35,-0.254C0.309,-0.249 0.275,-0.242 0.248,-0.235C0.22,-0.228 0.198,-0.219 0.181,-0.209C0.164,-0.199 0.151,-0.188 0.143,-0.174C0.136,-0.162 0.132,-0.147 0.132,-0.132C0.132,-0.104 0.14,-0.084 0.157,-0.072C0.174,-0.06 0.194,-0.054 0.218,-0.054Z" style="fill-rule:nonzero;"/>
                </g>
                <g transform="matrix(83.3333,0,0,83.3333,1027.66,2935.62)">
                    <path d="M0.09,0.209C0.079,0.209 0.068,0.208 0.059,0.206C0.05,0.205 0.041,0.202 0.033,0.199L0.049,0.134C0.054,0.135 0.06,0.137 0.067,0.138C0.074,0.14 0.08,0.141 0.086,0.141C0.114,0.141 0.137,0.131 0.155,0.111C0.172,0.092 0.186,0.067 0.196,0.037L0.207,0.001L0.012,-0.486L0.097,-0.486L0.196,-0.217C0.203,-0.196 0.211,-0.173 0.22,-0.15C0.228,-0.126 0.236,-0.103 0.243,-0.08L0.247,-0.08C0.254,-0.102 0.261,-0.125 0.268,-0.149C0.275,-0.173 0.281,-0.196 0.288,-0.217L0.375,-0.486L0.455,-0.486L0.272,0.04C0.263,0.064 0.254,0.086 0.243,0.107C0.232,0.128 0.22,0.145 0.205,0.16C0.19,0.175 0.174,0.187 0.155,0.196C0.136,0.205 0.115,0.209 0.09,0.209Z" style="fill-rule:nonzero;"/>
                </g>
                <g transform="matrix(83.3333,0,0,83.3333,1083.24,2935.62)">
                    <path d="M0.209,0.012C0.174,0.012 0.141,0.006 0.11,-0.007C0.079,-0.02 0.051,-0.036 0.028,-0.055L0.069,-0.11C0.09,-0.093 0.112,-0.079 0.135,-0.068C0.157,-0.057 0.183,-0.052 0.212,-0.052C0.244,-0.052 0.268,-0.059 0.284,-0.074C0.3,-0.089 0.308,-0.107 0.308,-0.128C0.308,-0.141 0.305,-0.152 0.298,-0.161C0.291,-0.17 0.283,-0.179 0.273,-0.186C0.262,-0.193 0.25,-0.199 0.237,-0.204C0.224,-0.209 0.21,-0.215 0.197,-0.22C0.18,-0.226 0.162,-0.233 0.145,-0.241C0.128,-0.248 0.112,-0.258 0.099,-0.269C0.085,-0.28 0.074,-0.292 0.065,-0.307C0.056,-0.322 0.052,-0.339 0.052,-0.36C0.052,-0.379 0.056,-0.398 0.064,-0.414C0.071,-0.432 0.082,-0.446 0.097,-0.459C0.111,-0.471 0.128,-0.481 0.149,-0.488C0.17,-0.495 0.193,-0.498 0.219,-0.498C0.25,-0.498 0.278,-0.493 0.304,-0.482C0.329,-0.471 0.351,-0.458 0.37,-0.443L0.331,-0.391C0.314,-0.404 0.297,-0.414 0.279,-0.422C0.261,-0.43 0.241,-0.434 0.22,-0.434C0.189,-0.434 0.167,-0.427 0.153,-0.413C0.138,-0.399 0.131,-0.383 0.131,-0.364C0.131,-0.353 0.134,-0.343 0.14,-0.335C0.146,-0.326 0.154,-0.319 0.164,-0.313C0.174,-0.306 0.186,-0.301 0.199,-0.296C0.212,-0.291 0.225,-0.285 0.239,-0.28C0.256,-0.273 0.274,-0.266 0.292,-0.259C0.309,-0.252 0.325,-0.243 0.339,-0.232C0.353,-0.221 0.365,-0.207 0.374,-0.191C0.383,-0.175 0.387,-0.156 0.387,-0.133C0.387,-0.113 0.383,-0.094 0.376,-0.077C0.368,-0.06 0.357,-0.044 0.342,-0.031C0.327,-0.018 0.308,-0.007 0.285,0C0.263,0.008 0.238,0.012 0.209,0.012Z" style="fill-rule:nonzero;"/>
                </g>
                <g transform="matrix(83.3333,0,0,83.3333,1118.16,2935.62)">
                    <path d="M0.279,0.012C0.246,0.012 0.216,0.006 0.188,-0.006C0.159,-0.017 0.135,-0.034 0.114,-0.056C0.093,-0.077 0.076,-0.104 0.064,-0.135C0.052,-0.166 0.046,-0.202 0.046,-0.242C0.046,-0.282 0.052,-0.318 0.065,-0.349C0.077,-0.381 0.093,-0.408 0.114,-0.43C0.134,-0.452 0.157,-0.469 0.183,-0.481C0.209,-0.492 0.236,-0.498 0.264,-0.498C0.295,-0.498 0.322,-0.493 0.346,-0.482C0.371,-0.471 0.391,-0.456 0.407,-0.436C0.424,-0.416 0.436,-0.392 0.445,-0.364C0.454,-0.336 0.458,-0.305 0.458,-0.27C0.458,-0.261 0.458,-0.253 0.458,-0.245C0.457,-0.236 0.456,-0.229 0.455,-0.223L0.127,-0.223C0.13,-0.171 0.147,-0.13 0.175,-0.1C0.204,-0.069 0.242,-0.054 0.289,-0.054C0.312,-0.054 0.334,-0.058 0.354,-0.065C0.373,-0.071 0.392,-0.081 0.41,-0.092L0.439,-0.038C0.418,-0.025 0.394,-0.013 0.368,-0.003C0.342,0.007 0.312,0.012 0.279,0.012ZM0.386,-0.282C0.386,-0.331 0.376,-0.369 0.355,-0.395C0.334,-0.42 0.304,-0.433 0.266,-0.433C0.249,-0.433 0.232,-0.43 0.217,-0.423C0.201,-0.416 0.187,-0.406 0.174,-0.394C0.161,-0.381 0.151,-0.365 0.142,-0.346C0.134,-0.327 0.129,-0.306 0.126,-0.282L0.386,-0.282Z" style="fill-rule:nonzero;"/>
                </g>
                <g transform="matrix(83.3333,0,0,83.3333,1159.49,2935.62)">
                    <path d="M0.279,0.012C0.246,0.012 0.216,0.006 0.188,-0.006C0.159,-0.017 0.135,-0.034 0.114,-0.056C0.093,-0.077 0.076,-0.104 0.064,-0.135C0.052,-0.166 0.046,-0.202 0.046,-0.242C0.046,-0.282 0.052,-0.318 0.065,-0.349C0.077,-0.381 0.093,-0.408 0.114,-0.43C0.134,-0.452 0.157,-0.469 0.183,-0.481C0.209,-0.492 0.236,-0.498 0.264,-0.498C0.295,-0.498 0.322,-0.493 0.346,-0.482C0.371,-0.471 0.391,-0.456 0.407,-0.436C0.424,-0.416 0.436,-0.392 0.445,-0.364C0.454,-0.336 0.458,-0.305 0.458,-0.27C0.458,-0.261 0.458,-0.253 0.458,-0.245C0.457,-0.236 0.456,-0.229 0.455,-0.223L0.127,-0.223C0.13,-0.171 0.147,-0.13 0.175,-0.1C0.204,-0.069 0.242,-0.054 0.289,-0.054C0.312,-0.054 0.334,-0.058 0.354,-0.065C0.373,-0.071 0.392,-0.081 0.41,-0.092L0.439,-0.038C0.418,-0.025 0.394,-0.013 0.368,-0.003C0.342,0.007 0.312,0.012 0.279,0.012ZM0.386,-0.282C0.386,-0.331 0.376,-0.369 0.355,-0.395C0.334,-0.42 0.304,-0.433 0.266,-0.433C0.249,-0.433 0.232,-0.43 0.217,-0.423C0.201,-0.416 0.187,-0.406 0.174,-0.394C0.161,-0.381 0.151,-0.365 0.142,-0.346C0.134,-0.327 0.129,-0.306 0.126,-0.282L0.386,-0.282Z" style="fill-rule:nonzero;"/>
                </g>
                <g transform="matrix(83.3333,0,0,83.3333,1200.82,2935.62)">
                    <path d="M0.082,-0.486L0.15,-0.486L0.157,-0.416L0.16,-0.416C0.181,-0.439 0.204,-0.459 0.23,-0.474C0.255,-0.49 0.282,-0.498 0.311,-0.498C0.348,-0.498 0.378,-0.49 0.399,-0.473C0.42,-0.457 0.435,-0.434 0.445,-0.405C0.47,-0.433 0.496,-0.456 0.522,-0.472C0.547,-0.49 0.575,-0.498 0.605,-0.498C0.655,-0.498 0.692,-0.482 0.717,-0.45C0.741,-0.418 0.753,-0.371 0.753,-0.308L0.753,0L0.671,0L0.671,-0.297C0.671,-0.343 0.664,-0.376 0.649,-0.397C0.634,-0.417 0.612,-0.427 0.581,-0.427C0.544,-0.427 0.504,-0.402 0.459,-0.352L0.459,0L0.377,0L0.377,-0.297C0.377,-0.343 0.37,-0.376 0.355,-0.397C0.34,-0.417 0.317,-0.427 0.286,-0.427C0.249,-0.427 0.209,-0.402 0.164,-0.352L0.164,0L0.082,0L0.082,-0.486Z" style="fill-rule:nonzero;"/>
                </g>
                <g transform="matrix(83.3333,0,0,83.3333,1286.57,2935.62)">
                    <path d="M0.274,0.012C0.242,0.012 0.212,0.006 0.184,-0.005C0.156,-0.016 0.132,-0.033 0.112,-0.055C0.091,-0.076 0.075,-0.103 0.064,-0.135C0.052,-0.166 0.046,-0.202 0.046,-0.242C0.046,-0.283 0.052,-0.319 0.065,-0.35C0.078,-0.382 0.095,-0.409 0.116,-0.431C0.137,-0.453 0.162,-0.47 0.191,-0.481C0.219,-0.492 0.249,-0.498 0.28,-0.498C0.312,-0.498 0.339,-0.492 0.362,-0.481C0.385,-0.47 0.405,-0.456 0.422,-0.441L0.38,-0.387C0.366,-0.4 0.351,-0.41 0.336,-0.418C0.32,-0.426 0.302,-0.43 0.283,-0.43C0.261,-0.43 0.241,-0.426 0.222,-0.417C0.203,-0.407 0.187,-0.395 0.174,-0.378C0.161,-0.361 0.15,-0.342 0.142,-0.319C0.135,-0.296 0.131,-0.27 0.131,-0.242C0.131,-0.214 0.135,-0.189 0.142,-0.166C0.149,-0.143 0.16,-0.124 0.172,-0.108C0.186,-0.091 0.201,-0.079 0.22,-0.07C0.239,-0.061 0.259,-0.056 0.281,-0.056C0.304,-0.056 0.325,-0.061 0.344,-0.07C0.363,-0.08 0.38,-0.092 0.395,-0.105L0.431,-0.05C0.409,-0.031 0.385,-0.016 0.358,-0.005C0.331,0.006 0.303,0.012 0.274,0.012Z" style="fill-rule:nonzero;"/>
                </g>
                <g transform="matrix(83.3333,0,0,83.3333,1322.82,2935.62)">
                    <path d="M0.271,0.012C0.241,0.012 0.213,0.006 0.186,-0.005C0.159,-0.016 0.135,-0.033 0.114,-0.055C0.093,-0.076 0.077,-0.103 0.065,-0.135C0.052,-0.166 0.046,-0.202 0.046,-0.242C0.046,-0.283 0.052,-0.319 0.065,-0.35C0.077,-0.382 0.093,-0.409 0.114,-0.431C0.135,-0.453 0.159,-0.47 0.186,-0.481C0.213,-0.492 0.241,-0.498 0.271,-0.498C0.301,-0.498 0.33,-0.492 0.357,-0.481C0.384,-0.47 0.407,-0.453 0.428,-0.431C0.449,-0.409 0.465,-0.382 0.477,-0.35C0.49,-0.319 0.496,-0.283 0.496,-0.242C0.496,-0.202 0.49,-0.166 0.477,-0.135C0.465,-0.103 0.449,-0.076 0.428,-0.055C0.407,-0.033 0.384,-0.016 0.357,-0.005C0.33,0.006 0.301,0.012 0.271,0.012ZM0.271,-0.056C0.292,-0.056 0.311,-0.061 0.328,-0.07C0.345,-0.079 0.36,-0.091 0.373,-0.108C0.385,-0.124 0.394,-0.143 0.401,-0.166C0.408,-0.189 0.411,-0.214 0.411,-0.242C0.411,-0.27 0.408,-0.296 0.401,-0.319C0.394,-0.342 0.385,-0.361 0.373,-0.378C0.36,-0.395 0.345,-0.407 0.328,-0.417C0.311,-0.426 0.292,-0.43 0.271,-0.43C0.25,-0.43 0.231,-0.426 0.214,-0.417C0.197,-0.407 0.182,-0.395 0.17,-0.378C0.157,-0.361 0.148,-0.342 0.141,-0.319C0.134,-0.296 0.131,-0.27 0.131,-0.242C0.131,-0.214 0.134,-0.189 0.141,-0.166C0.148,-0.143 0.157,-0.124 0.17,-0.108C0.182,-0.091 0.197,-0.079 0.214,-0.07C0.231,-0.061 0.25,-0.056 0.271,-0.056Z" style="fill-rule:nonzero;"/>
                </g>
                <g transform="matrix(83.3333,0,0,83.3333,1367.99,2935.62)">
                    <path d="M0.224,0.012C0.172,0.012 0.134,-0.004 0.111,-0.036C0.087,-0.068 0.075,-0.115 0.075,-0.178L0.075,-0.486L0.158,-0.486L0.158,-0.189C0.158,-0.143 0.165,-0.11 0.18,-0.09C0.194,-0.069 0.217,-0.059 0.249,-0.059C0.274,-0.059 0.297,-0.066 0.316,-0.079C0.335,-0.092 0.357,-0.112 0.38,-0.141L0.38,-0.486L0.462,-0.486L0.462,0L0.394,0L0.387,-0.076L0.384,-0.076C0.361,-0.049 0.338,-0.028 0.313,-0.012C0.288,0.004 0.258,0.012 0.224,0.012Z" style="fill-rule:nonzero;"/>
                </g>
                <g transform="matrix(83.3333,0,0,83.3333,1413.32,2935.62)">
                    <path d="M0.082,-0.486L0.15,-0.486L0.157,-0.416L0.16,-0.416C0.183,-0.439 0.208,-0.459 0.234,-0.474C0.259,-0.49 0.289,-0.498 0.323,-0.498C0.374,-0.498 0.412,-0.482 0.436,-0.45C0.459,-0.418 0.471,-0.371 0.471,-0.308L0.471,0L0.389,0L0.389,-0.297C0.389,-0.343 0.382,-0.376 0.367,-0.397C0.352,-0.417 0.329,-0.427 0.297,-0.427C0.272,-0.427 0.249,-0.421 0.23,-0.408C0.211,-0.395 0.189,-0.377 0.164,-0.352L0.164,0L0.082,0L0.082,-0.486Z" style="fill-rule:nonzero;"/>
                </g>
                <g transform="matrix(83.3333,0,0,83.3333,1458.91,2935.62)">
                    <path d="M0.235,0.012C0.209,0.012 0.187,0.008 0.17,0C0.152,-0.008 0.138,-0.019 0.127,-0.033C0.116,-0.047 0.108,-0.064 0.103,-0.084C0.098,-0.104 0.096,-0.126 0.096,-0.15L0.096,-0.419L0.024,-0.419L0.024,-0.481L0.1,-0.486L0.11,-0.622L0.179,-0.622L0.179,-0.486L0.31,-0.486L0.31,-0.419L0.179,-0.419L0.179,-0.149C0.179,-0.119 0.185,-0.096 0.196,-0.08C0.206,-0.063 0.226,-0.055 0.254,-0.055C0.263,-0.055 0.272,-0.056 0.282,-0.059C0.292,-0.062 0.301,-0.065 0.309,-0.068L0.325,-0.006C0.312,-0.001 0.297,0.003 0.281,0.006C0.266,0.01 0.25,0.012 0.235,0.012Z" style="fill-rule:nonzero;"/>
                </g>
                <g transform="matrix(83.3333,0,0,83.3333,1485.91,2935.62)">
                    <path d="M0.279,0.012C0.246,0.012 0.216,0.006 0.188,-0.006C0.159,-0.017 0.135,-0.034 0.114,-0.056C0.093,-0.077 0.076,-0.104 0.064,-0.135C0.052,-0.166 0.046,-0.202 0.046,-0.242C0.046,-0.282 0.052,-0.318 0.065,-0.349C0.077,-0.381 0.093,-0.408 0.114,-0.43C0.134,-0.452 0.157,-0.469 0.183,-0.481C0.209,-0.492 0.236,-0.498 0.264,-0.498C0.295,-0.498 0.322,-0.493 0.346,-0.482C0.371,-0.471 0.391,-0.456 0.407,-0.436C0.424,-0.416 0.436,-0.392 0.445,-0.364C0.454,-0.336 0.458,-0.305 0.458,-0.27C0.458,-0.261 0.458,-0.253 0.458,-0.245C0.457,-0.236 0.456,-0.229 0.455,-0.223L0.127,-0.223C0.13,-0.171 0.147,-0.13 0.175,-0.1C0.204,-0.069 0.242,-0.054 0.289,-0.054C0.312,-0.054 0.334,-0.058 0.354,-0.065C0.373,-0.071 0.392,-0.081 0.41,-0.092L0.439,-0.038C0.418,-0.025 0.394,-0.013 0.368,-0.003C0.342,0.007 0.312,0.012 0.279,0.012ZM0.386,-0.282C0.386,-0.331 0.376,-0.369 0.355,-0.395C0.334,-0.42 0.304,-0.433 0.266,-0.433C0.249,-0.433 0.232,-0.43 0.217,-0.423C0.201,-0.416 0.187,-0.406 0.174,-0.394C0.161,-0.381 0.151,-0.365 0.142,-0.346C0.134,-0.327 0.129,-0.306 0.126,-0.282L0.386,-0.282Z" style="fill-rule:nonzero;"/>
                </g>
                <g transform="matrix(83.3333,0,0,83.3333,1527.24,2935.62)">
                    <path d="M0.082,-0.486L0.15,-0.486L0.157,-0.398L0.16,-0.398C0.177,-0.429 0.197,-0.453 0.221,-0.471C0.244,-0.489 0.27,-0.498 0.298,-0.498C0.317,-0.498 0.335,-0.495 0.35,-0.488L0.334,-0.416C0.326,-0.419 0.319,-0.421 0.312,-0.422C0.305,-0.423 0.297,-0.424 0.287,-0.424C0.266,-0.424 0.245,-0.416 0.223,-0.399C0.2,-0.382 0.181,-0.353 0.164,-0.312L0.164,0L0.082,0L0.082,-0.486Z" style="fill-rule:nonzero;"/>
                </g>
                <g transform="matrix(83.3333,0,0,83.3333,1554.16,2935.62)">
                    <rect x="0.041" y="-0.282" width="0.23" height="0.063" style="fill-rule:nonzero;"/>
                </g>
                <g transform="matrix(83.3333,0,0,83.3333,1580.07,2935.62)">
                    <path d="M0.082,-0.486L0.164,-0.486L0.164,0L0.082,0L0.082,-0.486ZM0.124,-0.586C0.108,-0.586 0.095,-0.591 0.084,-0.601C0.073,-0.611 0.067,-0.624 0.067,-0.639C0.067,-0.655 0.073,-0.668 0.084,-0.678C0.095,-0.687 0.108,-0.692 0.124,-0.692C0.14,-0.692 0.154,-0.687 0.165,-0.678C0.175,-0.668 0.181,-0.655 0.181,-0.639C0.181,-0.624 0.175,-0.611 0.165,-0.601C0.154,-0.591 0.14,-0.586 0.124,-0.586Z" style="fill-rule:nonzero;"/>
                </g>
                <g transform="matrix(83.3333,0,0,83.3333,1600.57,2935.62)">
                    <path d="M0.082,-0.486L0.15,-0.486L0.157,-0.416L0.16,-0.416C0.183,-0.439 0.208,-0.459 0.234,-0.474C0.259,-0.49 0.289,-0.498 0.323,-0.498C0.374,-0.498 0.412,-0.482 0.436,-0.45C0.459,-0.418 0.471,-0.371 0.471,-0.308L0.471,0L0.389,0L0.389,-0.297C0.389,-0.343 0.382,-0.376 0.367,-0.397C0.352,-0.417 0.329,-0.427 0.297,-0.427C0.272,-0.427 0.249,-0.421 0.23,-0.408C0.211,-0.395 0.189,-0.377 0.164,-0.352L0.164,0L0.082,0L0.082,-0.486Z" style="fill-rule:nonzero;"/>
                </g>
                <g transform="matrix(83.3333,0,0,83.3333,1646.16,2935.62)">
                    <path d="M0.235,0.012C0.209,0.012 0.187,0.008 0.17,0C0.152,-0.008 0.138,-0.019 0.127,-0.033C0.116,-0.047 0.108,-0.064 0.103,-0.084C0.098,-0.104 0.096,-0.126 0.096,-0.15L0.096,-0.419L0.024,-0.419L0.024,-0.481L0.1,-0.486L0.11,-0.622L0.179,-0.622L0.179,-0.486L0.31,-0.486L0.31,-0.419L0.179,-0.419L0.179,-0.149C0.179,-0.119 0.185,-0.096 0.196,-0.08C0.206,-0.063 0.226,-0.055 0.254,-0.055C0.263,-0.055 0.272,-0.056 0.282,-0.059C0.292,-0.062 0.301,-0.065 0.309,-0.068L0.325,-0.006C0.312,-0.001 0.297,0.003 0.281,0.006C0.266,0.01 0.25,0.012 0.235,0.012Z" style="fill-rule:nonzero;"/>
                </g>
                <g transform="matrix(83.3333,0,0,83.3333,1674.32,2935.62)">
                    <path d="M0.224,0.012C0.172,0.012 0.134,-0.004 0.111,-0.036C0.087,-0.068 0.075,-0.115 0.075,-0.178L0.075,-0.486L0.158,-0.486L0.158,-0.189C0.158,-0.143 0.165,-0.11 0.18,-0.09C0.194,-0.069 0.217,-0.059 0.249,-0.059C0.274,-0.059 0.297,-0.066 0.316,-0.079C0.335,-0.092 0.357,-0.112 0.38,-0.141L0.38,-0.486L0.462,-0.486L0.462,0L0.394,0L0.387,-0.076L0.384,-0.076C0.361,-0.049 0.338,-0.028 0.313,-0.012C0.288,0.004 0.258,0.012 0.224,0.012Z" style="fill-rule:nonzero;"/>
                </g>
                <g transform="matrix(83.3333,0,0,83.3333,1719.66,2935.62)">
                    <path d="M0.082,-0.486L0.164,-0.486L0.164,0L0.082,0L0.082,-0.486ZM0.124,-0.586C0.108,-0.586 0.095,-0.591 0.084,-0.601C0.073,-0.611 0.067,-0.624 0.067,-0.639C0.067,-0.655 0.073,-0.668 0.084,-0.678C0.095,-0.687 0.108,-0.692 0.124,-0.692C0.14,-0.692 0.154,-0.687 0.165,-0.678C0.175,-0.668 0.181,-0.655 0.181,-0.639C0.181,-0.624 0.175,-0.611 0.165,-0.601C0.154,-0.591 0.14,-0.586 0.124,-0.586Z" style="fill-rule:nonzero;"/>
                </g>
                <g transform="matrix(83.3333,0,0,83.3333,1740.16,2935.62)">
                    <path d="M0.235,0.012C0.209,0.012 0.187,0.008 0.17,0C0.152,-0.008 0.138,-0.019 0.127,-0.033C0.116,-0.047 0.108,-0.064 0.103,-0.084C0.098,-0.104 0.096,-0.126 0.096,-0.15L0.096,-0.419L0.024,-0.419L0.024,-0.481L0.1,-0.486L0.11,-0.622L0.179,-0.622L0.179,-0.486L0.31,-0.486L0.31,-0.419L0.179,-0.419L0.179,-0.149C0.179,-0.119 0.185,-0.096 0.196,-0.08C0.206,-0.063 0.226,-0.055 0.254,-0.055C0.263,-0.055 0.272,-0.056 0.282,-0.059C0.292,-0.062 0.301,-0.065 0.309,-0.068L0.325,-0.006C0.312,-0.001 0.297,0.003 0.281,0.006C0.266,0.01 0.25,0.012 0.235,0.012Z" style="fill-rule:nonzero;"/>
                </g>
                <g transform="matrix(83.3333,0,0,83.3333,1768.32,2935.62)">
                    <path d="M0.082,-0.486L0.164,-0.486L0.164,0L0.082,0L0.082,-0.486ZM0.124,-0.586C0.108,-0.586 0.095,-0.591 0.084,-0.601C0.073,-0.611 0.067,-0.624 0.067,-0.639C0.067,-0.655 0.073,-0.668 0.084,-0.678C0.095,-0.687 0.108,-0.692 0.124,-0.692C0.14,-0.692 0.154,-0.687 0.165,-0.678C0.175,-0.668 0.181,-0.655 0.181,-0.639C0.181,-0.624 0.175,-0.611 0.165,-0.601C0.154,-0.591 0.14,-0.586 0.124,-0.586Z" style="fill-rule:nonzero;"/>
                </g>
                <g transform="matrix(83.3333,0,0,83.3333,1788.82,2935.62)">
                    <path d="M0.012,-0.486L0.097,-0.486L0.189,-0.21C0.196,-0.186 0.204,-0.162 0.212,-0.138C0.219,-0.114 0.227,-0.09 0.234,-0.067L0.238,-0.067C0.245,-0.09 0.253,-0.114 0.26,-0.138C0.267,-0.162 0.275,-0.186 0.282,-0.21L0.374,-0.486L0.455,-0.486L0.283,0L0.187,0L0.012,-0.486Z" style="fill-rule:nonzero;"/>
                </g>
                <g transform="matrix(83.3333,0,0,83.3333,1827.41,2935.62)">
                    <path d="M0.279,0.012C0.246,0.012 0.216,0.006 0.188,-0.006C0.159,-0.017 0.135,-0.034 0.114,-0.056C0.093,-0.077 0.076,-0.104 0.064,-0.135C0.052,-0.166 0.046,-0.202 0.046,-0.242C0.046,-0.282 0.052,-0.318 0.065,-0.349C0.077,-0.381 0.093,-0.408 0.114,-0.43C0.134,-0.452 0.157,-0.469 0.183,-0.481C0.209,-0.492 0.236,-0.498 0.264,-0.498C0.295,-0.498 0.322,-0.493 0.346,-0.482C0.371,-0.471 0.391,-0.456 0.407,-0.436C0.424,-0.416 0.436,-0.392 0.445,-0.364C0.454,-0.336 0.458,-0.305 0.458,-0.27C0.458,-0.261 0.458,-0.253 0.458,-0.245C0.457,-0.236 0.456,-0.229 0.455,-0.223L0.127,-0.223C0.13,-0.171 0.147,-0.13 0.175,-0.1C0.204,-0.069 0.242,-0.054 0.289,-0.054C0.312,-0.054 0.334,-0.058 0.354,-0.065C0.373,-0.071 0.392,-0.081 0.41,-0.092L0.439,-0.038C0.418,-0.025 0.394,-0.013 0.368,-0.003C0.342,0.007 0.312,0.012 0.279,0.012ZM0.386,-0.282C0.386,-0.331 0.376,-0.369 0.355,-0.395C0.334,-0.42 0.304,-0.433 0.266,-0.433C0.249,-0.433 0.232,-0.43 0.217,-0.423C0.201,-0.416 0.187,-0.406 0.174,-0.394C0.161,-0.381 0.151,-0.365 0.142,-0.346C0.134,-0.327 0.129,-0.306 0.126,-0.282L0.386,-0.282Z" style="fill-rule:nonzero;"/>
                </g>
                <g transform="matrix(83.3333,0,0,83.3333,1868.74,2935.62)">
                    <path d="M0.125,0.012C0.108,0.012 0.094,0.006 0.083,-0.006C0.071,-0.017 0.065,-0.032 0.065,-0.05C0.065,-0.069 0.071,-0.085 0.083,-0.097C0.094,-0.108 0.108,-0.114 0.125,-0.114C0.141,-0.114 0.155,-0.108 0.167,-0.097C0.178,-0.085 0.184,-0.069 0.184,-0.05C0.184,-0.032 0.178,-0.017 0.167,-0.006C0.155,0.006 0.141,0.012 0.125,0.012Z" style="fill-rule:nonzero;"/>
                </g>
                <g transform="matrix(83.3333,0,0,83.3333,805.366,3018.95)">
                    <path d="M0.024,-0.486L0.108,-0.486L0.18,-0.205C0.185,-0.182 0.19,-0.159 0.195,-0.137C0.2,-0.115 0.204,-0.093 0.209,-0.07L0.213,-0.07C0.218,-0.093 0.224,-0.115 0.229,-0.138C0.234,-0.16 0.24,-0.182 0.246,-0.205L0.321,-0.486L0.401,-0.486L0.477,-0.205C0.483,-0.182 0.489,-0.159 0.495,-0.137C0.5,-0.115 0.506,-0.093 0.511,-0.07L0.515,-0.07C0.52,-0.093 0.525,-0.115 0.53,-0.137C0.535,-0.159 0.54,-0.182 0.545,-0.205L0.616,-0.486L0.694,-0.486L0.564,0L0.464,0L0.394,-0.261C0.388,-0.284 0.383,-0.307 0.378,-0.33C0.373,-0.353 0.367,-0.376 0.361,-0.401L0.357,-0.401C0.352,-0.376 0.346,-0.353 0.341,-0.33C0.336,-0.307 0.33,-0.283 0.323,-0.26L0.255,0L0.159,0L0.024,-0.486Z" style="fill-rule:nonzero;"/>
                </g>
                <g transform="matrix(83.3333,0,0,83.3333,865.2,3018.95)">
                    <path d="M0.082,-0.712L0.164,-0.712L0.164,-0.518L0.161,-0.418C0.184,-0.44 0.209,-0.459 0.234,-0.474C0.259,-0.49 0.289,-0.498 0.323,-0.498C0.374,-0.498 0.412,-0.482 0.436,-0.45C0.459,-0.418 0.471,-0.371 0.471,-0.308L0.471,0L0.389,0L0.389,-0.297C0.389,-0.343 0.382,-0.376 0.367,-0.397C0.352,-0.417 0.329,-0.427 0.297,-0.427C0.272,-0.427 0.249,-0.421 0.23,-0.408C0.211,-0.395 0.189,-0.377 0.164,-0.352L0.164,0L0.082,0L0.082,-0.712Z" style="fill-rule:nonzero;"/>
                </g>
                <g transform="matrix(83.3333,0,0,83.3333,910.533,3018.95)">
                    <path d="M0.194,0.012C0.153,0.012 0.119,0 0.093,-0.024C0.066,-0.048 0.052,-0.082 0.052,-0.126C0.052,-0.179 0.076,-0.22 0.123,-0.249C0.17,-0.277 0.246,-0.297 0.35,-0.308C0.35,-0.323 0.348,-0.338 0.345,-0.353C0.343,-0.368 0.337,-0.381 0.33,-0.392C0.323,-0.403 0.313,-0.412 0.3,-0.42C0.286,-0.427 0.27,-0.43 0.25,-0.43C0.222,-0.43 0.196,-0.425 0.171,-0.414C0.146,-0.403 0.124,-0.391 0.105,-0.378L0.073,-0.435C0.096,-0.45 0.123,-0.464 0.156,-0.477C0.189,-0.491 0.225,-0.498 0.264,-0.498C0.323,-0.498 0.366,-0.48 0.393,-0.444C0.42,-0.407 0.433,-0.359 0.433,-0.298L0.433,0L0.365,0L0.358,-0.058L0.355,-0.058C0.332,-0.039 0.307,-0.022 0.28,-0.009C0.253,0.005 0.225,0.012 0.194,0.012ZM0.218,-0.054C0.241,-0.054 0.263,-0.059 0.284,-0.07C0.305,-0.082 0.327,-0.098 0.35,-0.119L0.35,-0.254C0.309,-0.249 0.275,-0.242 0.248,-0.235C0.22,-0.228 0.198,-0.219 0.181,-0.209C0.164,-0.199 0.151,-0.188 0.143,-0.174C0.136,-0.162 0.132,-0.147 0.132,-0.132C0.132,-0.104 0.14,-0.084 0.157,-0.072C0.174,-0.06 0.194,-0.054 0.218,-0.054Z" style="fill-rule:nonzero;"/>
                </g>
                <g transform="matrix(83.3333,0,0,83.3333,951.366,3018.95)">
                    <path d="M0.235,0.012C0.209,0.012 0.187,0.008 0.17,0C0.152,-0.008 0.138,-0.019 0.127,-0.033C0.116,-0.047 0.108,-0.064 0.103,-0.084C0.098,-0.104 0.096,-0.126 0.096,-0.15L0.096,-0.419L0.024,-0.419L0.024,-0.481L0.1,-0.486L0.11,-0.622L0.179,-0.622L0.179,-0.486L0.31,-0.486L0.31,-0.419L0.179,-0.419L0.179,-0.149C0.179,-0.119 0.185,-0.096 0.196,-0.08C0.206,-0.063 0.226,-0.055 0.254,-0.055C0.263,-0.055 0.272,-0.056 0.282,-0.059C0.292,-0.062 0.301,-0.065 0.309,-0.068L0.325,-0.006C0.312,-0.001 0.297,0.003 0.281,0.006C0.266,0.01 0.25,0.012 0.235,0.012Z" style="fill-rule:nonzero;"/>
                </g>
                <g transform="matrix(83.3333,0,0,83.3333,996.2,3018.95)">
                    <path d="M0.082,-0.712L0.163,-0.712L0.163,-0.23L0.166,-0.23L0.373,-0.486L0.464,-0.486L0.301,-0.291L0.486,0L0.396,0L0.254,-0.234L0.163,-0.128L0.163,0L0.082,0L0.082,-0.712Z" style="fill-rule:nonzero;"/>
                </g>
                <g transform="matrix(83.3333,0,0,83.3333,1037.45,3018.95)">
                    <path d="M0.082,-0.486L0.164,-0.486L0.164,0L0.082,0L0.082,-0.486ZM0.124,-0.586C0.108,-0.586 0.095,-0.591 0.084,-0.601C0.073,-0.611 0.067,-0.624 0.067,-0.639C0.067,-0.655 0.073,-0.668 0.084,-0.678C0.095,-0.687 0.108,-0.692 0.124,-0.692C0.14,-0.692 0.154,-0.687 0.165,-0.678C0.175,-0.668 0.181,-0.655 0.181,-0.639C0.181,-0.624 0.175,-0.611 0.165,-0.601C0.154,-0.591 0.14,-0.586 0.124,-0.586Z" style="fill-rule:nonzero;"/>
                </g>
                <g transform="matrix(83.3333,0,0,83.3333,1057.95,3018.95)">
                    <path d="M0.082,-0.486L0.15,-0.486L0.157,-0.416L0.16,-0.416C0.183,-0.439 0.208,-0.459 0.234,-0.474C0.259,-0.49 0.289,-0.498 0.323,-0.498C0.374,-0.498 0.412,-0.482 0.436,-0.45C0.459,-0.418 0.471,-0.371 0.471,-0.308L0.471,0L0.389,0L0.389,-0.297C0.389,-0.343 0.382,-0.376 0.367,-0.397C0.352,-0.417 0.329,-0.427 0.297,-0.427C0.272,-0.427 0.249,-0.421 0.23,-0.408C0.211,-0.395 0.189,-0.377 0.164,-0.352L0.164,0L0.082,0L0.082,-0.486Z" style="fill-rule:nonzero;"/>
                </g>
                <g transform="matrix(83.3333,0,0,83.3333,1103.53,3018.95)">
                    <path d="M0.248,0.012C0.187,0.012 0.138,-0.01 0.102,-0.054C0.065,-0.098 0.047,-0.161 0.047,-0.242C0.047,-0.281 0.053,-0.317 0.065,-0.348C0.076,-0.38 0.092,-0.407 0.111,-0.429C0.13,-0.451 0.153,-0.468 0.178,-0.48C0.203,-0.492 0.23,-0.498 0.258,-0.498C0.286,-0.498 0.31,-0.493 0.331,-0.483C0.352,-0.473 0.373,-0.459 0.394,-0.442L0.39,-0.525L0.39,-0.712L0.473,-0.712L0.473,0L0.405,0L0.398,-0.057L0.395,-0.057C0.376,-0.038 0.354,-0.022 0.329,-0.009C0.304,0.005 0.277,0.012 0.248,0.012ZM0.266,-0.057C0.289,-0.057 0.31,-0.063 0.33,-0.074C0.35,-0.085 0.37,-0.101 0.39,-0.124L0.39,-0.378C0.369,-0.397 0.349,-0.41 0.331,-0.418C0.312,-0.425 0.292,-0.429 0.272,-0.429C0.253,-0.429 0.234,-0.425 0.218,-0.416C0.201,-0.406 0.186,-0.394 0.173,-0.378C0.16,-0.361 0.15,-0.342 0.143,-0.319C0.136,-0.296 0.132,-0.271 0.132,-0.243C0.132,-0.184 0.144,-0.139 0.167,-0.106C0.19,-0.073 0.223,-0.057 0.266,-0.057Z" style="fill-rule:nonzero;"/>
                </g>
                <g transform="matrix(83.3333,0,0,83.3333,1166.45,3018.95)">
                    <path d="M0.271,0.012C0.241,0.012 0.213,0.006 0.186,-0.005C0.159,-0.016 0.135,-0.033 0.114,-0.055C0.093,-0.076 0.077,-0.103 0.065,-0.135C0.052,-0.166 0.046,-0.202 0.046,-0.242C0.046,-0.283 0.052,-0.319 0.065,-0.35C0.077,-0.382 0.093,-0.409 0.114,-0.431C0.135,-0.453 0.159,-0.47 0.186,-0.481C0.213,-0.492 0.241,-0.498 0.271,-0.498C0.301,-0.498 0.33,-0.492 0.357,-0.481C0.384,-0.47 0.407,-0.453 0.428,-0.431C0.449,-0.409 0.465,-0.382 0.477,-0.35C0.49,-0.319 0.496,-0.283 0.496,-0.242C0.496,-0.202 0.49,-0.166 0.477,-0.135C0.465,-0.103 0.449,-0.076 0.428,-0.055C0.407,-0.033 0.384,-0.016 0.357,-0.005C0.33,0.006 0.301,0.012 0.271,0.012ZM0.271,-0.056C0.292,-0.056 0.311,-0.061 0.328,-0.07C0.345,-0.079 0.36,-0.091 0.373,-0.108C0.385,-0.124 0.394,-0.143 0.401,-0.166C0.408,-0.189 0.411,-0.214 0.411,-0.242C0.411,-0.27 0.408,-0.296 0.401,-0.319C0.394,-0.342 0.385,-0.361 0.373,-0.378C0.36,-0.395 0.345,-0.407 0.328,-0.417C0.311,-0.426 0.292,-0.43 0.271,-0.43C0.25,-0.43 0.231,-0.426 0.214,-0.417C0.197,-0.407 0.182,-0.395 0.17,-0.378C0.157,-0.361 0.148,-0.342 0.141,-0.319C0.134,-0.296 0.131,-0.27 0.131,-0.242C0.131,-0.214 0.134,-0.189 0.141,-0.166C0.148,-0.143 0.157,-0.124 0.17,-0.108C0.182,-0.091 0.197,-0.079 0.214,-0.07C0.231,-0.061 0.25,-0.056 0.271,-0.056Z" style="fill-rule:nonzero;"/>
                </g>
                <g transform="matrix(83.3333,0,0,83.3333,1211.62,3018.95)">
                    <path d="M0.301,-0.645C0.283,-0.653 0.265,-0.657 0.246,-0.657C0.201,-0.657 0.178,-0.626 0.178,-0.563L0.178,-0.486L0.281,-0.486L0.281,-0.419L0.178,-0.419L0.178,0L0.096,0L0.096,-0.419L0.03,-0.419L0.03,-0.481L0.096,-0.486L0.096,-0.563C0.096,-0.613 0.108,-0.652 0.131,-0.681C0.154,-0.71 0.189,-0.724 0.238,-0.724C0.253,-0.724 0.268,-0.723 0.281,-0.72C0.295,-0.717 0.308,-0.713 0.319,-0.708L0.301,-0.645Z" style="fill-rule:nonzero;"/>
                </g>
                <g transform="matrix(83.3333,0,0,83.3333,1252.62,3018.95)">
                    <path d="M0.235,0.012C0.209,0.012 0.187,0.008 0.17,0C0.152,-0.008 0.138,-0.019 0.127,-0.033C0.116,-0.047 0.108,-0.064 0.103,-0.084C0.098,-0.104 0.096,-0.126 0.096,-0.15L0.096,-0.419L0.024,-0.419L0.024,-0.481L0.1,-0.486L0.11,-0.622L0.179,-0.622L0.179,-0.486L0.31,-0.486L0.31,-0.419L0.179,-0.419L0.179,-0.149C0.179,-0.119 0.185,-0.096 0.196,-0.08C0.206,-0.063 0.226,-0.055 0.254,-0.055C0.263,-0.055 0.272,-0.056 0.282,-0.059C0.292,-0.062 0.301,-0.065 0.309,-0.068L0.325,-0.006C0.312,-0.001 0.297,0.003 0.281,0.006C0.266,0.01 0.25,0.012 0.235,0.012Z" style="fill-rule:nonzero;"/>
                </g>
                <g transform="matrix(83.3333,0,0,83.3333,1280.78,3018.95)">
                    <path d="M0.082,-0.486L0.15,-0.486L0.157,-0.398L0.16,-0.398C0.177,-0.429 0.197,-0.453 0.221,-0.471C0.244,-0.489 0.27,-0.498 0.298,-0.498C0.317,-0.498 0.335,-0.495 0.35,-0.488L0.334,-0.416C0.326,-0.419 0.319,-0.421 0.312,-0.422C0.305,-0.423 0.297,-0.424 0.287,-0.424C0.266,-0.424 0.245,-0.416 0.223,-0.399C0.2,-0.382 0.181,-0.353 0.164,-0.312L0.164,0L0.082,0L0.082,-0.486Z" style="fill-rule:nonzero;"/>
                </g>
                <g transform="matrix(83.3333,0,0,83.3333,1309.7,3018.95)">
                    <path d="M0.082,-0.486L0.164,-0.486L0.164,0L0.082,0L0.082,-0.486ZM0.124,-0.586C0.108,-0.586 0.095,-0.591 0.084,-0.601C0.073,-0.611 0.067,-0.624 0.067,-0.639C0.067,-0.655 0.073,-0.668 0.084,-0.678C0.095,-0.687 0.108,-0.692 0.124,-0.692C0.14,-0.692 0.154,-0.687 0.165,-0.678C0.175,-0.668 0.181,-0.655 0.181,-0.639C0.181,-0.624 0.175,-0.611 0.165,-0.601C0.154,-0.591 0.14,-0.586 0.124,-0.586Z" style="fill-rule:nonzero;"/>
                </g>
                <g transform="matrix(83.3333,0,0,83.3333,1330.2,3018.95)">
                    <path d="M0.194,0.012C0.153,0.012 0.119,0 0.093,-0.024C0.066,-0.048 0.052,-0.082 0.052,-0.126C0.052,-0.179 0.076,-0.22 0.123,-0.249C0.17,-0.277 0.246,-0.297 0.35,-0.308C0.35,-0.323 0.348,-0.338 0.345,-0.353C0.343,-0.368 0.337,-0.381 0.33,-0.392C0.323,-0.403 0.313,-0.412 0.3,-0.42C0.286,-0.427 0.27,-0.43 0.25,-0.43C0.222,-0.43 0.196,-0.425 0.171,-0.414C0.146,-0.403 0.124,-0.391 0.105,-0.378L0.073,-0.435C0.096,-0.45 0.123,-0.464 0.156,-0.477C0.189,-0.491 0.225,-0.498 0.264,-0.498C0.323,-0.498 0.366,-0.48 0.393,-0.444C0.42,-0.407 0.433,-0.359 0.433,-0.298L0.433,0L0.365,0L0.358,-0.058L0.355,-0.058C0.332,-0.039 0.307,-0.022 0.28,-0.009C0.253,0.005 0.225,0.012 0.194,0.012ZM0.218,-0.054C0.241,-0.054 0.263,-0.059 0.284,-0.07C0.305,-0.082 0.327,-0.098 0.35,-0.119L0.35,-0.254C0.309,-0.249 0.275,-0.242 0.248,-0.235C0.22,-0.228 0.198,-0.219 0.181,-0.209C0.164,-0.199 0.151,-0.188 0.143,-0.174C0.136,-0.162 0.132,-0.147 0.132,-0.132C0.132,-0.104 0.14,-0.084 0.157,-0.072C0.174,-0.06 0.194,-0.054 0.218,-0.054Z" style="fill-rule:nonzero;"/>
                </g>
                <g transform="matrix(83.3333,0,0,83.3333,1372.2,3018.95)">
                    <path d="M0.248,0.012C0.187,0.012 0.138,-0.01 0.102,-0.054C0.065,-0.098 0.047,-0.161 0.047,-0.242C0.047,-0.281 0.053,-0.317 0.065,-0.348C0.076,-0.38 0.092,-0.407 0.111,-0.429C0.13,-0.451 0.153,-0.468 0.178,-0.48C0.203,-0.492 0.23,-0.498 0.258,-0.498C0.286,-0.498 0.31,-0.493 0.331,-0.483C0.352,-0.473 0.373,-0.459 0.394,-0.442L0.39,-0.525L0.39,-0.712L0.473,-0.712L0.473,0L0.405,0L0.398,-0.057L0.395,-0.057C0.376,-0.038 0.354,-0.022 0.329,-0.009C0.304,0.005 0.277,0.012 0.248,0.012ZM0.266,-0.057C0.289,-0.057 0.31,-0.063 0.33,-0.074C0.35,-0.085 0.37,-0.101 0.39,-0.124L0.39,-0.378C0.369,-0.397 0.349,-0.41 0.331,-0.418C0.312,-0.425 0.292,-0.429 0.272,-0.429C0.253,-0.429 0.234,-0.425 0.218,-0.416C0.201,-0.406 0.186,-0.394 0.173,-0.378C0.16,-0.361 0.15,-0.342 0.143,-0.319C0.136,-0.296 0.132,-0.271 0.132,-0.243C0.132,-0.184 0.144,-0.139 0.167,-0.106C0.19,-0.073 0.223,-0.057 0.266,-0.057Z" style="fill-rule:nonzero;"/>
                </g>
                <g transform="matrix(83.3333,0,0,83.3333,1435.12,3018.95)">
                    <path d="M0.082,-0.486L0.164,-0.486L0.164,0L0.082,0L0.082,-0.486ZM0.124,-0.586C0.108,-0.586 0.095,-0.591 0.084,-0.601C0.073,-0.611 0.067,-0.624 0.067,-0.639C0.067,-0.655 0.073,-0.668 0.084,-0.678C0.095,-0.687 0.108,-0.692 0.124,-0.692C0.14,-0.692 0.154,-0.687 0.165,-0.678C0.175,-0.668 0.181,-0.655 0.181,-0.639C0.181,-0.624 0.175,-0.611 0.165,-0.601C0.154,-0.591 0.14,-0.586 0.124,-0.586Z" style="fill-rule:nonzero;"/>
                </g>
                <g transform="matrix(83.3333,0,0,83.3333,1455.62,3018.95)">
                    <path d="M0.209,0.012C0.174,0.012 0.141,0.006 0.11,-0.007C0.079,-0.02 0.051,-0.036 0.028,-0.055L0.069,-0.11C0.09,-0.093 0.112,-0.079 0.135,-0.068C0.157,-0.057 0.183,-0.052 0.212,-0.052C0.244,-0.052 0.268,-0.059 0.284,-0.074C0.3,-0.089 0.308,-0.107 0.308,-0.128C0.308,-0.141 0.305,-0.152 0.298,-0.161C0.291,-0.17 0.283,-0.179 0.273,-0.186C0.262,-0.193 0.25,-0.199 0.237,-0.204C0.224,-0.209 0.21,-0.215 0.197,-0.22C0.18,-0.226 0.162,-0.233 0.145,-0.241C0.128,-0.248 0.112,-0.258 0.099,-0.269C0.085,-0.28 0.074,-0.292 0.065,-0.307C0.056,-0.322 0.052,-0.339 0.052,-0.36C0.052,-0.379 0.056,-0.398 0.064,-0.414C0.071,-0.432 0.082,-0.446 0.097,-0.459C0.111,-0.471 0.128,-0.481 0.149,-0.488C0.17,-0.495 0.193,-0.498 0.219,-0.498C0.25,-0.498 0.278,-0.493 0.304,-0.482C0.329,-0.471 0.351,-0.458 0.37,-0.443L0.331,-0.391C0.314,-0.404 0.297,-0.414 0.279,-0.422C0.261,-0.43 0.241,-0.434 0.22,-0.434C0.189,-0.434 0.167,-0.427 0.153,-0.413C0.138,-0.399 0.131,-0.383 0.131,-0.364C0.131,-0.353 0.134,-0.343 0.14,-0.335C0.146,-0.326 0.154,-0.319 0.164,-0.313C0.174,-0.306 0.186,-0.301 0.199,-0.296C0.212,-0.291 0.225,-0.285 0.239,-0.28C0.256,-0.273 0.274,-0.266 0.292,-0.259C0.309,-0.252 0.325,-0.243 0.339,-0.232C0.353,-0.221 0.365,-0.207 0.374,-0.191C0.383,-0.175 0.387,-0.156 0.387,-0.133C0.387,-0.113 0.383,-0.094 0.376,-0.077C0.368,-0.06 0.357,-0.044 0.342,-0.031C0.327,-0.018 0.308,-0.007 0.285,0C0.263,0.008 0.238,0.012 0.209,0.012Z" style="fill-rule:nonzero;"/>
                </g>
                <g transform="matrix(83.3333,0,0,83.3333,1507.2,3018.95)">
                    <path d="M0.235,0.012C0.209,0.012 0.187,0.008 0.17,0C0.152,-0.008 0.138,-0.019 0.127,-0.033C0.116,-0.047 0.108,-0.064 0.103,-0.084C0.098,-0.104 0.096,-0.126 0.096,-0.15L0.096,-0.419L0.024,-0.419L0.024,-0.481L0.1,-0.486L0.11,-0.622L0.179,-0.622L0.179,-0.486L0.31,-0.486L0.31,-0.419L0.179,-0.419L0.179,-0.149C0.179,-0.119 0.185,-0.096 0.196,-0.08C0.206,-0.063 0.226,-0.055 0.254,-0.055C0.263,-0.055 0.272,-0.056 0.282,-0.059C0.292,-0.062 0.301,-0.065 0.309,-0.068L0.325,-0.006C0.312,-0.001 0.297,0.003 0.281,0.006C0.266,0.01 0.25,0.012 0.235,0.012Z" style="fill-rule:nonzero;"/>
                </g>
                <g transform="matrix(83.3333,0,0,83.3333,1535.37,3018.95)">
                    <path d="M0.082,-0.712L0.164,-0.712L0.164,-0.518L0.161,-0.418C0.184,-0.44 0.209,-0.459 0.234,-0.474C0.259,-0.49 0.289,-0.498 0.323,-0.498C0.374,-0.498 0.412,-0.482 0.436,-0.45C0.459,-0.418 0.471,-0.371 0.471,-0.308L0.471,0L0.389,0L0.389,-0.297C0.389,-0.343 0.382,-0.376 0.367,-0.397C0.352,-0.417 0.329,-0.427 0.297,-0.427C0.272,-0.427 0.249,-0.421 0.23,-0.408C0.211,-0.395 0.189,-0.377 0.164,-0.352L0.164,0L0.082,0L0.082,-0.712Z" style="fill-rule:nonzero;"/>
                </g>
                <g transform="matrix(83.3333,0,0,83.3333,1580.7,3018.95)">
                    <path d="M0.082,-0.486L0.164,-0.486L0.164,0L0.082,0L0.082,-0.486ZM0.124,-0.586C0.108,-0.586 0.095,-0.591 0.084,-0.601C0.073,-0.611 0.067,-0.624 0.067,-0.639C0.067,-0.655 0.073,-0.668 0.084,-0.678C0.095,-0.687 0.108,-0.692 0.124,-0.692C0.14,-0.692 0.154,-0.687 0.165,-0.678C0.175,-0.668 0.181,-0.655 0.181,-0.639C0.181,-0.624 0.175,-0.611 0.165,-0.601C0.154,-0.591 0.14,-0.586 0.124,-0.586Z" style="fill-rule:nonzero;"/>
                </g>
                <g transform="matrix(83.3333,0,0,83.3333,1601.2,3018.95)">
                    <path d="M0.209,0.012C0.174,0.012 0.141,0.006 0.11,-0.007C0.079,-0.02 0.051,-0.036 0.028,-0.055L0.069,-0.11C0.09,-0.093 0.112,-0.079 0.135,-0.068C0.157,-0.057 0.183,-0.052 0.212,-0.052C0.244,-0.052 0.268,-0.059 0.284,-0.074C0.3,-0.089 0.308,-0.107 0.308,-0.128C0.308,-0.141 0.305,-0.152 0.298,-0.161C0.291,-0.17 0.283,-0.179 0.273,-0.186C0.262,-0.193 0.25,-0.199 0.237,-0.204C0.224,-0.209 0.21,-0.215 0.197,-0.22C0.18,-0.226 0.162,-0.233 0.145,-0.241C0.128,-0.248 0.112,-0.258 0.099,-0.269C0.085,-0.28 0.074,-0.292 0.065,-0.307C0.056,-0.322 0.052,-0.339 0.052,-0.36C0.052,-0.379 0.056,-0.398 0.064,-0.414C0.071,-0.432 0.082,-0.446 0.097,-0.459C0.111,-0.471 0.128,-0.481 0.149,-0.488C0.17,-0.495 0.193,-0.498 0.219,-0.498C0.25,-0.498 0.278,-0.493 0.304,-0.482C0.329,-0.471 0.351,-0.458 0.37,-0.443L0.331,-0.391C0.314,-0.404 0.297,-0.414 0.279,-0.422C0.261,-0.43 0.241,-0.434 0.22,-0.434C0.189,-0.434 0.167,-0.427 0.153,-0.413C0.138,-0.399 0.131,-0.383 0.131,-0.364C0.131,-0.353 0.134,-0.343 0.14,-0.335C0.146,-0.326 0.154,-0.319 0.164,-0.313C0.174,-0.306 0.186,-0.301 0.199,-0.296C0.212,-0.291 0.225,-0.285 0.239,-0.28C0.256,-0.273 0.274,-0.266 0.292,-0.259C0.309,-0.252 0.325,-0.243 0.339,-0.232C0.353,-0.221 0.365,-0.207 0.374,-0.191C0.383,-0.175 0.387,-0.156 0.387,-0.133C0.387,-0.113 0.383,-0.094 0.376,-0.077C0.368,-0.06 0.357,-0.044 0.342,-0.031C0.327,-0.018 0.308,-0.007 0.285,0C0.263,0.008 0.238,0.012 0.209,0.012Z" style="fill-rule:nonzero;"/>
                </g>
                <g transform="matrix(83.3333,0,0,83.3333,1635.2,3018.95)">
                    <path d="M0.16,-0.198C0.156,-0.224 0.157,-0.248 0.163,-0.269C0.168,-0.29 0.176,-0.309 0.186,-0.327C0.196,-0.344 0.207,-0.361 0.221,-0.376C0.234,-0.391 0.246,-0.406 0.257,-0.422C0.268,-0.437 0.278,-0.452 0.285,-0.467C0.293,-0.482 0.297,-0.499 0.297,-0.517C0.297,-0.544 0.289,-0.567 0.273,-0.586C0.256,-0.605 0.232,-0.614 0.2,-0.614C0.178,-0.614 0.157,-0.609 0.138,-0.599C0.118,-0.588 0.1,-0.574 0.085,-0.556L0.038,-0.599C0.059,-0.623 0.084,-0.643 0.113,-0.659C0.141,-0.674 0.173,-0.682 0.21,-0.682C0.261,-0.682 0.301,-0.668 0.332,-0.64C0.362,-0.611 0.377,-0.572 0.377,-0.522C0.377,-0.5 0.373,-0.48 0.365,-0.462C0.357,-0.444 0.347,-0.427 0.336,-0.411C0.324,-0.395 0.312,-0.379 0.299,-0.364C0.285,-0.348 0.274,-0.332 0.263,-0.315C0.252,-0.298 0.243,-0.281 0.237,-0.262C0.231,-0.243 0.229,-0.221 0.232,-0.198L0.16,-0.198ZM0.198,0.012C0.181,0.012 0.167,0.006 0.156,-0.006C0.145,-0.017 0.139,-0.032 0.139,-0.05C0.139,-0.069 0.145,-0.085 0.156,-0.097C0.167,-0.108 0.181,-0.114 0.198,-0.114C0.215,-0.114 0.229,-0.108 0.241,-0.097C0.252,-0.085 0.258,-0.069 0.258,-0.05C0.258,-0.032 0.252,-0.017 0.241,-0.006C0.229,0.006 0.215,0.012 0.198,0.012Z" style="fill-rule:nonzero;"/>
                </g>
            </g>
            <g id="Meta-Ring-and-Background" serif:id="Meta-Ring and Background" transform="matrix(-1.09813,0,0,-1.09813,1706.03,2099.12)">
                <g transform="matrix(0.545852,-0.945443,0.9537,0.550619,-641.299,1170.26)">
                    <ellipse cx="692" cy="1046" rx="458" ry="454" style="fill:none;stroke:black;stroke-width:0.46px;"/>
                </g>
                <g transform="matrix(0.5,-0.866025,0.629632,0.363518,-412.931,1316.59)">
                    <path d="M768,524.038L768,568" style="fill:none;stroke:black;stroke-width:0.57px;"/>
                </g>
                <g transform="matrix(0.5,-0.866025,0.629632,0.363518,425.349,1800.57)">
                    <path d="M768,524.038L768,568" style="fill:none;stroke:black;stroke-width:0.57px;"/>
                </g>
                <g transform="matrix(-0.866025,-0.5,0.363518,-0.629632,1442.63,1400.58)">
                    <path d="M768,524.038L768,568" style="fill:none;stroke:black;stroke-width:0.57px;"/>
                </g>
                <g transform="matrix(-0.866025,-0.5,0.363518,-0.629632,958.61,2238.93)">
                    <path d="M768,524.038L768,568" style="fill:none;stroke:black;stroke-width:0.57px;"/>
                </g>
                <g transform="matrix(0.866025,-0.5,0.363518,0.629632,-371.594,713.016)">
                    <path d="M768,524.038L768,568" style="fill:none;stroke:black;stroke-width:0.57px;"/>
                </g>
                <g transform="matrix(0.866025,-0.5,0.363518,0.629632,112.404,1551.33)">
                    <path d="M768,524.038L768,568" style="fill:none;stroke:black;stroke-width:0.57px;"/>
                </g>
                <g transform="matrix(-0.5,-0.866025,0.629632,-0.363518,1193.38,1713.55)">
                    <path d="M768,524.038L768,568" style="fill:none;stroke:black;stroke-width:0.57px;"/>
                </g>
                <g transform="matrix(-0.5,-0.866025,0.629632,-0.363518,355.038,2197.57)">
                    <path d="M768,524.038L768,568" style="fill:none;stroke:black;stroke-width:0.57px;"/>
                </g>
                <g transform="matrix(1,0,0,0.727036,-34,210.969)">
                    <path d="M768,524.038L768,568" style="fill:none;stroke:black;stroke-width:0.57px;"/>
                </g>
                <g transform="matrix(1,0,0,0.727036,-34,1179)">
                    <path d="M768,524.038L768,568" style="fill:none;stroke:black;stroke-width:0.57px;"/>
                </g>
                <g transform="matrix(6.12323e-17,-1,0.727036,4.45181e-17,821.022,1859.96)">
                    <path d="M768,524.038L768,568" style="fill:none;stroke:black;stroke-width:0.57px;"/>
                </g>
                <g transform="matrix(6.12323e-17,-1,0.727036,4.45181e-17,-146.974,1859.96)">
                    <path d="M768,524.038L768,568" style="fill:none;stroke:black;stroke-width:0.57px;"/>
                </g>
            </g>
            <g id="Child-Rings" serif:id="Child Rings" transform="matrix(-1,0,0,-1,1397.16,903.666)">
                <g id="_9" serif:id="9" transform="matrix(0.250435,0,0,0.250435,840.076,-252.463)">
                    <g id="Ring-and-Background" serif:id="Ring and Background" transform="matrix(1,0,0,1,50.3923,-72.3542)">
                        <g id="white-background" serif:id="white background" transform="matrix(-3.84294,0,0,-4.02215,13582.9,30283.5)">
                            <ellipse cx="3348" cy="7256.93" rx="133" ry="127.074" style="fill:white;"/>
                        </g>
                        <g id="Ring" transform="matrix(0.841899,0,0,0.841899,98.8118,175.77)">
                            <g transform="matrix(0.545852,-0.945443,0.9537,0.550619,-641.299,1170.26)">
                                <ellipse cx="692" cy="1046" rx="458" ry="454" style="fill:none;stroke:black;stroke-width:10.83px;stroke-linecap:round;"/>
                            </g>
                            <g transform="matrix(0.5,-0.866025,0.629632,0.363518,-412.931,1316.59)">
                                <path d="M768,524.038L768,568" style="fill:none;stroke:black;stroke-width:13.59px;stroke-linecap:round;"/>
                            </g>
                            <g transform="matrix(0.5,-0.866025,0.629632,0.363518,425.349,1800.57)">
                                <path d="M768,524.038L768,568" style="fill:none;stroke:black;stroke-width:13.59px;stroke-linecap:round;"/>
                            </g>
                            <g transform="matrix(-0.866025,-0.5,0.363518,-0.629632,1442.63,1400.58)">
                                <path d="M768,524.038L768,568" style="fill:none;stroke:black;stroke-width:13.59px;stroke-linecap:round;"/>
                            </g>
                            <g transform="matrix(-0.866025,-0.5,0.363518,-0.629632,958.61,2238.93)">
                                <path d="M768,524.038L768,568" style="fill:none;stroke:black;stroke-width:13.59px;stroke-linecap:round;"/>
                            </g>
                            <g transform="matrix(0.866025,-0.5,0.363518,0.629632,-371.594,713.016)">
                                <path d="M768,524.038L768,568" style="fill:none;stroke:black;stroke-width:13.59px;stroke-linecap:round;"/>
                            </g>
                            <g transform="matrix(0.866025,-0.5,0.363518,0.629632,112.404,1551.33)">
                                <path d="M768,524.038L768,568" style="fill:none;stroke:black;stroke-width:13.59px;stroke-linecap:round;"/>
                            </g>
                            <g transform="matrix(-0.5,-0.866025,0.629632,-0.363518,1193.38,1713.55)">
                                <path d="M768,524.038L768,568" style="fill:none;stroke:black;stroke-width:13.59px;stroke-linecap:round;"/>
                            </g>
                            <g transform="matrix(-0.5,-0.866025,0.629632,-0.363518,355.038,2197.57)">
                                <path d="M768,524.038L768,568" style="fill:none;stroke:black;stroke-width:13.59px;stroke-linecap:round;"/>
                            </g>
                            <g transform="matrix(1,0,0,0.727036,-34,210.969)">
                                <path d="M768,524.038L768,568" style="fill:none;stroke:black;stroke-width:13.59px;stroke-linecap:round;"/>
                            </g>
                            <g transform="matrix(1,0,0,0.727036,-34,1179)">
                                <path d="M768,524.038L768,568" style="fill:none;stroke:black;stroke-width:13.59px;stroke-linecap:round;"/>
                            </g>
                            <g transform="matrix(6.12323e-17,-1,0.727036,4.45181e-17,821.022,1859.96)">
                                <path d="M768,524.038L768,568" style="fill:none;stroke:black;stroke-width:13.59px;stroke-linecap:round;"/>
                            </g>
                            <g transform="matrix(6.12323e-17,-1,0.727036,4.45181e-17,-146.974,1859.96)">
                                <path d="M768,524.038L768,568" style="fill:none;stroke:black;stroke-width:13.59px;stroke-linecap:round;"/>
                            </g>
                        </g>
                    </g>
                    <g id="Notes" transform="matrix(1,0,0,1,16.3923,-4.3923)">
                        <g id="_11" serif:id="11" transform="matrix(1.07151,-1.85591,1.88446,1.08799,-851.373,2241.13)">
                            <ellipse cx="766" cy="526.5" rx="33" ry="32.5" style="fill:rgb(255,0,0);stroke:white;stroke-width:11.11px;stroke-linecap:round;"/>
                        </g>
                        <g id="_3" serif:id="3" transform="matrix(1.07151,-1.85591,1.88446,1.08799,-1481.42,1876.44)">
                            <ellipse cx="766" cy="526.5" rx="33" ry="32.5" style="fill:rgb(255,0,0);stroke:white;stroke-width:11.11px;stroke-linecap:round;"/>
                        </g>
                    </g>
                    <g id="Root-Markers" serif:id="Root Markers">
                    </g>
                </g>
				<a xlink:href="PRE-9.svg">
                <g id="_1" serif:id="1" transform="matrix(0.250435,0,0,0.250435,34.5027,212.843)">
                    <g id="Ring-and-Background1" serif:id="Ring and Background" transform="matrix(1,0,0,1,50.3923,-72.3542)">
                        <g id="white-background1" serif:id="white background" transform="matrix(-3.84294,0,0,-4.02215,13582.9,30283.5)">
                            <ellipse cx="3348" cy="7256.93" rx="133" ry="127.074" style="fill:white;"/>
                        </g>
                        <g id="Ring1" serif:id="Ring" transform="matrix(0.841899,0,0,0.841899,98.8118,175.77)">
                            <g transform="matrix(0.545852,-0.945443,0.9537,0.550619,-641.299,1170.26)">
                                <ellipse cx="692" cy="1046" rx="458" ry="454" style="fill:none;stroke:black;stroke-width:10.83px;stroke-linecap:round;"/>
                            </g>
                            <g transform="matrix(0.5,-0.866025,0.629632,0.363518,-412.931,1316.59)">
                                <path d="M768,524.038L768,568" style="fill:none;stroke:black;stroke-width:13.59px;stroke-linecap:round;"/>
                            </g>
                            <g transform="matrix(0.5,-0.866025,0.629632,0.363518,425.349,1800.57)">
                                <path d="M768,524.038L768,568" style="fill:none;stroke:black;stroke-width:13.59px;stroke-linecap:round;"/>
                            </g>
                            <g transform="matrix(-0.866025,-0.5,0.363518,-0.629632,1442.63,1400.58)">
                                <path d="M768,524.038L768,568" style="fill:none;stroke:black;stroke-width:13.59px;stroke-linecap:round;"/>
                            </g>
                            <g transform="matrix(-0.866025,-0.5,0.363518,-0.629632,958.61,2238.93)">
                                <path d="M768,524.038L768,568" style="fill:none;stroke:black;stroke-width:13.59px;stroke-linecap:round;"/>
                            </g>
                            <g transform="matrix(0.866025,-0.5,0.363518,0.629632,-371.594,713.016)">
                                <path d="M768,524.038L768,568" style="fill:none;stroke:black;stroke-width:13.59px;stroke-linecap:round;"/>
                            </g>
                            <g transform="matrix(0.866025,-0.5,0.363518,0.629632,112.404,1551.33)">
                                <path d="M768,524.038L768,568" style="fill:none;stroke:black;stroke-width:13.59px;stroke-linecap:round;"/>
                            </g>
                            <g transform="matrix(-0.5,-0.866025,0.629632,-0.363518,1193.38,1713.55)">
                                <path d="M768,524.038L768,568" style="fill:none;stroke:black;stroke-width:13.59px;stroke-linecap:round;"/>
                            </g>
                            <g transform="matrix(-0.5,-0.866025,0.629632,-0.363518,355.038,2197.57)">
                                <path d="M768,524.038L768,568" style="fill:none;stroke:black;stroke-width:13.59px;stroke-linecap:round;"/>
                            </g>
                            <g transform="matrix(1,0,0,0.727036,-34,210.969)">
                                <path d="M768,524.038L768,568" style="fill:none;stroke:black;stroke-width:13.59px;stroke-linecap:round;"/>
                            </g>
                            <g transform="matrix(1,0,0,0.727036,-34,1179)">
                                <path d="M768,524.038L768,568" style="fill:none;stroke:black;stroke-width:13.59px;stroke-linecap:round;"/>
                            </g>
                            <g transform="matrix(6.12323e-17,-1,0.727036,4.45181e-17,821.022,1859.96)">
                                <path d="M768,524.038L768,568" style="fill:none;stroke:black;stroke-width:13.59px;stroke-linecap:round;"/>
                            </g>
                            <g transform="matrix(6.12323e-17,-1,0.727036,4.45181e-17,-146.974,1859.96)">
                                <path d="M768,524.038L768,568" style="fill:none;stroke:black;stroke-width:13.59px;stroke-linecap:round;"/>
                            </g>
                        </g>
                    </g>
                    <g id="Notes1" serif:id="Notes" transform="matrix(1,0,0,1,16.3923,-4.3923)">
                        <g id="_10" serif:id="10" transform="matrix(1.07151,-1.85591,1.88446,1.08799,-701.504,2085.37)">
                            <ellipse cx="766" cy="526.5" rx="33" ry="32.5" style="fill:rgb(97,0,255);stroke:white;stroke-width:11.11px;stroke-linecap:round;"/>
                        </g>
                        <g id="_7" serif:id="7" transform="matrix(1.07151,-1.85591,1.88446,1.08799,-855.471,1517.1)">
                            <ellipse cx="766" cy="526.5" rx="33" ry="32.5" style="fill:rgb(97,0,255);stroke:white;stroke-width:11.11px;stroke-linecap:round;"/>
                        </g>
                    </g>
                    <g id="Root-Markers1" serif:id="Root Markers">
                    </g>
                </g>
				</a>
            </g>
            <g transform="matrix(1,0,0,1,-15023.9,-4431.57)">
                <path d="M15520.5,5334.58C15789.8,5320.39 16002.1,5203.42 16132.9,4980.67" style="fill:none;stroke:black;stroke-width:6.67px;stroke-linecap:round;"/>
            </g>
        </g>
    </g>
</svg>
