<?xml version="1.0" encoding="UTF-8" standalone="no"?>
<!DOCTYPE svg PUBLIC "-//W3C//DTD SVG 1.1//EN" "http://www.w3.org/Graphics/SVG/1.1/DTD/svg11.dtd">
<svg width="100%" height="100%" viewBox="0 0 2048 2732" version="1.1" xmlns="http://www.w3.org/2000/svg" xmlns:xlink="http://www.w3.org/1999/xlink" xml:space="preserve" xmlns:serif="http://www.serif.com/" style="fill-rule:evenodd;clip-rule:evenodd;stroke-linecap:square;stroke-linejoin:round;stroke-miterlimit:1.5;">
    <g transform="matrix(1,0,0,1,-33933,-40124)">
        <g id="PRE-C8" transform="matrix(1,0,0,1,33933,40124)">
            <rect x="0" y="0" width="2048" height="2732" style="fill:none;"/>
			<a href="C8.svg">
            <g id="S">
                <g id="bandsounder--votemagnet" class="votemagnet" sound="PRE-C8" serif:id="bandsounder, votemagnet" transform="matrix(-1.09813,0,0,-1.09813,1578.56,2249.66)">
                    <g opacity="0.1">
                        <g transform="matrix(0.545852,-0.945443,0.9537,0.550619,-641.299,1170.26)">
                            <ellipse cx="692" cy="1046" rx="458" ry="454" style="fill:rgb(167,29,56);stroke:black;stroke-width:0.46px;"/>
                        </g>
                        <g transform="matrix(0.5,-0.866025,0.629632,0.363518,-412.931,1316.59)">
                            <path d="M768,524.038L768,568" style="fill:none;stroke:black;stroke-width:0.57px;"/>
                        </g>
                        <g transform="matrix(0.5,-0.866025,0.629632,0.363518,425.349,1800.57)">
                            <path d="M768,524.038L768,568" style="fill:none;stroke:black;stroke-width:0.57px;"/>
                        </g>
                        <g transform="matrix(-0.866025,-0.5,0.363518,-0.629632,1442.63,1400.58)">
                            <path d="M768,524.038L768,568" style="fill:none;stroke:black;stroke-width:0.57px;"/>
                        </g>
                        <g transform="matrix(-0.866025,-0.5,0.363518,-0.629632,958.61,2238.93)">
                            <path d="M768,524.038L768,568" style="fill:none;stroke:black;stroke-width:0.57px;"/>
                        </g>
                        <g transform="matrix(0.866025,-0.5,0.363518,0.629632,-371.594,713.016)">
                            <path d="M768,524.038L768,568" style="fill:none;stroke:black;stroke-width:0.57px;"/>
                        </g>
                        <g transform="matrix(0.866025,-0.5,0.363518,0.629632,112.404,1551.33)">
                            <path d="M768,524.038L768,568" style="fill:none;stroke:black;stroke-width:0.57px;"/>
                        </g>
                        <g transform="matrix(-0.5,-0.866025,0.629632,-0.363518,1193.38,1713.55)">
                            <path d="M768,524.038L768,568" style="fill:none;stroke:black;stroke-width:0.57px;"/>
                        </g>
                        <g transform="matrix(-0.5,-0.866025,0.629632,-0.363518,355.038,2197.57)">
                            <path d="M768,524.038L768,568" style="fill:none;stroke:black;stroke-width:0.57px;"/>
                        </g>
                        <g transform="matrix(1,0,0,0.727036,-34,210.969)">
                            <path d="M768,524.038L768,568" style="fill:none;stroke:black;stroke-width:0.57px;"/>
                        </g>
                        <g transform="matrix(1,0,0,0.727036,-34,1179)">
                            <path d="M768,524.038L768,568" style="fill:none;stroke:black;stroke-width:0.57px;"/>
                        </g>
                        <g transform="matrix(6.12323e-17,-1,0.727036,4.45181e-17,821.022,1859.96)">
                            <path d="M768,524.038L768,568" style="fill:none;stroke:black;stroke-width:0.57px;"/>
                        </g>
                        <g transform="matrix(6.12323e-17,-1,0.727036,4.45181e-17,-146.974,1859.96)">
                            <path d="M768,524.038L768,568" style="fill:none;stroke:black;stroke-width:0.57px;"/>
                        </g>
                    </g>
                </g>
                <g id="_4" serif:id="4" transform="matrix(-0.583619,1.01086,-0.902565,-0.521096,2128.78,825.876)">
                    <g id="Root-Markers" serif:id="Root Markers">
                        <path id="_41" serif:id="4" d="M731.999,618L768,730L695.999,730L731.999,618ZM731.999,680.84L723.04,708.715L740.959,708.715L731.999,680.84Z"/>
                    </g>
                </g>
                <g transform="matrix(-1.09813,0,0,-1.09811,1579.66,2245.28)">
                    <g transform="matrix(0.545852,-0.945443,0.9537,0.550619,-641.299,1170.26)">
                        <ellipse cx="692" cy="1046" rx="458" ry="454" style="fill:none;stroke:black;stroke-width:8.31px;stroke-linecap:round;"/>
                    </g>
                    <g transform="matrix(0.5,-0.866025,0.629632,0.363518,-412.931,1316.59)">
                        <path d="M768,524.038L768,568" style="fill:none;stroke:black;stroke-width:10.42px;stroke-linecap:round;"/>
                    </g>
                    <g transform="matrix(0.5,-0.866025,0.629632,0.363518,425.349,1800.57)">
                        <path d="M768,524.038L768,568" style="fill:none;stroke:black;stroke-width:10.42px;stroke-linecap:round;"/>
                    </g>
                    <g transform="matrix(-0.866025,-0.5,0.363518,-0.629632,1442.63,1400.58)">
                        <path d="M768,524.038L768,568" style="fill:none;stroke:black;stroke-width:10.42px;stroke-linecap:round;"/>
                    </g>
                    <g transform="matrix(-0.866025,-0.5,0.363518,-0.629632,958.61,2238.93)">
                        <path d="M768,524.038L768,568" style="fill:none;stroke:black;stroke-width:10.42px;stroke-linecap:round;"/>
                    </g>
                    <g transform="matrix(0.866025,-0.5,0.363518,0.629632,-371.594,713.016)">
                        <path d="M768,524.038L768,568" style="fill:none;stroke:black;stroke-width:10.42px;stroke-linecap:round;"/>
                    </g>
                    <g transform="matrix(0.866025,-0.5,0.363518,0.629632,112.404,1551.33)">
                        <path d="M768,524.038L768,568" style="fill:none;stroke:black;stroke-width:10.42px;stroke-linecap:round;"/>
                    </g>
                    <g transform="matrix(-0.5,-0.866025,0.629632,-0.363518,1193.38,1713.55)">
                        <path d="M768,524.038L768,568" style="fill:none;stroke:black;stroke-width:10.42px;stroke-linecap:round;"/>
                    </g>
                    <g transform="matrix(-0.5,-0.866025,0.629632,-0.363518,355.038,2197.57)">
                        <path d="M768,524.038L768,568" style="fill:none;stroke:black;stroke-width:10.42px;stroke-linecap:round;"/>
                    </g>
                    <g transform="matrix(1,0,0,0.727036,-34,210.969)">
                        <path d="M768,524.038L768,568" style="fill:none;stroke:black;stroke-width:10.42px;stroke-linecap:round;"/>
                    </g>
                    <g transform="matrix(1,0,0,0.727036,-34,1179)">
                        <path d="M768,524.038L768,568" style="fill:none;stroke:black;stroke-width:10.42px;stroke-linecap:round;"/>
                    </g>
                    <g transform="matrix(6.12323e-17,-1,0.727036,4.45181e-17,821.022,1859.96)">
                        <path d="M768,524.038L768,568" style="fill:none;stroke:black;stroke-width:10.42px;stroke-linecap:round;"/>
                    </g>
                    <g transform="matrix(6.12323e-17,-1,0.727036,4.45181e-17,-146.974,1859.96)">
                        <path d="M768,524.038L768,568" style="fill:none;stroke:black;stroke-width:10.42px;stroke-linecap:round;"/>
                    </g>
                </g>
                <g id="_11" sound="Mid-B" autoplay="false" serif:id="11" transform="matrix(-1.39762,2.4207,-2.45799,-1.41909,2863.38,-531.256)">
                    <ellipse cx="766" cy="526.5" rx="33" ry="32.5" style="fill:rgb(167,29,56);stroke:white;stroke-width:8.52px;stroke-linecap:round;"/>
                </g>
                <g id="_7" sound="Mid-G" autoplay="false" serif:id="7" transform="matrix(-1.39762,2.4207,-2.45799,-1.41909,2868.72,413.119)">
                    <ellipse cx="766" cy="526.5" rx="33" ry="32.5" style="fill:rgb(167,29,56);stroke:white;stroke-width:8.52px;stroke-linecap:round;"/>
                </g>
                <g id="_42" sound="Low-E,Mid-E" autoplay="false" serif:id="4" transform="matrix(-1.39762,2.4207,-2.45799,-1.41909,3610.11,216.565)">
                    <ellipse cx="766" cy="526.5" rx="33" ry="32.5" style="fill:rgb(167,29,56);stroke:white;stroke-width:8.52px;stroke-linecap:round;"/>
                </g>
                <g id="_2" sound="Mid-D" autoplay="false" serif:id="2" transform="matrix(-1.39762,2.4207,-2.45799,-1.41909,3610.1,-328.083)">
                    <ellipse cx="766" cy="526.5" rx="33" ry="32.5" style="fill:rgb(167,29,56);stroke:white;stroke-width:8.52px;stroke-linecap:round;"/>
                </g>
            </g>
			</a>
            <g id="Text">
                <g transform="matrix(1,0,0,1,52.1335,51.3002)">
                    <g transform="matrix(1,0,0,1,113,109.457)">
                        <g transform="matrix(250,0,0,250,1500.59,510.907)">
                            <path d="M0.162,-0.557L0.228,-0.557L0.228,-0.501L0.162,-0.501L0.162,-0.557ZM0.162,-0.417L0.228,-0.417L0.228,-0.362L0.162,-0.362L0.162,-0.417ZM0.321,-0.362L0.321,-0.417L0.418,-0.417L0.418,-0.501L0.321,-0.501L0.321,-0.557L0.418,-0.557L0.418,-0.641L0.321,-0.641L0.321,-0.701L0.445,-0.701L0.445,-0.792L0.068,-0.792L0.068,-0.272L0.357,-0.272C0.357,-0.225 0.356,-0.184 0.356,-0.149C0.348,-0.181 0.34,-0.215 0.331,-0.251L0.281,-0.237C0.295,-0.18 0.307,-0.121 0.317,-0.061L0.353,-0.074L0.351,-0.057C0.346,-0.022 0.329,-0.004 0.3,-0.004C0.28,-0.004 0.257,-0.006 0.233,-0.008L0.258,0.088C0.278,0.09 0.298,0.091 0.317,0.091C0.369,0.091 0.405,0.072 0.424,0.035C0.442,-0.003 0.451,-0.136 0.451,-0.362L0.321,-0.362ZM0.228,-0.701L0.228,-0.641L0.162,-0.641L0.162,-0.701L0.228,-0.701ZM0.187,-0.233L0.135,-0.226C0.138,-0.168 0.14,-0.086 0.141,0.02L0.204,0.012C0.201,-0.091 0.195,-0.173 0.187,-0.233ZM0.258,-0.24L0.208,-0.229C0.218,-0.171 0.227,-0.103 0.233,-0.026L0.294,-0.041C0.283,-0.113 0.271,-0.179 0.258,-0.24ZM0.061,-0.239C0.057,-0.139 0.046,-0.049 0.03,0.029L0.095,0.049C0.107,-0.033 0.114,-0.126 0.117,-0.231L0.061,-0.239ZM0.483,-0.75L0.483,-0.656L0.633,-0.656C0.628,-0.646 0.623,-0.637 0.617,-0.627C0.591,-0.591 0.542,-0.56 0.468,-0.535L0.52,-0.452C0.602,-0.479 0.66,-0.517 0.696,-0.567L0.697,-0.569C0.758,-0.539 0.818,-0.5 0.877,-0.452L0.933,-0.536C0.873,-0.578 0.807,-0.615 0.736,-0.647C0.736,-0.65 0.737,-0.653 0.739,-0.656L0.931,-0.656L0.931,-0.75L0.756,-0.75L0.758,-0.782L0.758,-0.816L0.66,-0.816L0.66,-0.782L0.657,-0.75L0.483,-0.75ZM0.453,-0.438L0.453,-0.344L0.807,-0.344L0.807,-0.048C0.807,-0.014 0.794,0.003 0.77,0.003C0.744,0.003 0.718,-0 0.692,-0.004L0.715,0.092L0.804,0.092C0.872,0.092 0.906,0.053 0.906,-0.024L0.906,-0.344L0.961,-0.344L0.961,-0.438L0.453,-0.438ZM0.49,-0.297L0.49,-0.046L0.742,-0.046L0.742,-0.297L0.49,-0.297ZM0.652,-0.125L0.581,-0.125L0.581,-0.219L0.652,-0.219L0.652,-0.125Z" style="fill:rgb(167,29,56);fill-rule:nonzero;"/>
                        </g>
                    </g>
                    <g transform="matrix(1,0,0,1,113,389.406)">
                        <g transform="matrix(250,0,0,250,1500.59,510.907)">
                            <path d="M0.417,-0.821L0.417,-0.647L0.125,-0.647L0.125,-0.337C0.122,-0.189 0.09,-0.065 0.03,0.033L0.111,0.103C0.188,-0.019 0.227,-0.166 0.227,-0.338L0.227,-0.56L0.397,-0.56L0.397,-0.481L0.246,-0.463L0.259,-0.381L0.397,-0.397L0.397,-0.381C0.397,-0.317 0.439,-0.284 0.523,-0.284L0.761,-0.284C0.799,-0.284 0.827,-0.29 0.846,-0.301C0.866,-0.313 0.88,-0.352 0.888,-0.417L0.793,-0.447C0.79,-0.409 0.784,-0.387 0.775,-0.38C0.768,-0.373 0.757,-0.369 0.742,-0.369L0.551,-0.369C0.516,-0.369 0.499,-0.38 0.499,-0.402L0.499,-0.409L0.764,-0.44L0.75,-0.523L0.499,-0.493L0.499,-0.56L0.824,-0.56C0.816,-0.533 0.807,-0.508 0.797,-0.486L0.891,-0.459C0.908,-0.507 0.92,-0.554 0.928,-0.602L0.928,-0.647L0.522,-0.647L0.522,-0.694L0.871,-0.694L0.871,-0.778L0.522,-0.778L0.522,-0.821L0.417,-0.821ZM0.363,-0.244C0.363,-0.166 0.35,-0.107 0.324,-0.065C0.297,-0.024 0.247,0.006 0.175,0.024L0.232,0.106C0.302,0.092 0.357,0.062 0.395,0.016C0.423,-0.022 0.442,-0.077 0.453,-0.15L0.631,-0.15L0.631,0.001C0.631,0.061 0.663,0.092 0.729,0.092L0.826,0.092C0.877,0.092 0.91,0.082 0.924,0.063C0.938,0.043 0.95,-0.004 0.96,-0.078L0.869,-0.107C0.857,-0.045 0.848,-0.012 0.841,-0.008C0.834,-0.003 0.824,-0 0.81,-0L0.758,-0C0.74,-0 0.732,-0.007 0.732,-0.019L0.732,-0.244L0.363,-0.244Z" style="fill:rgb(167,29,56);fill-rule:nonzero;"/>
                        </g>
                    </g>
                    <g transform="matrix(1,0,0,1,123,657.53)">
                        <g transform="matrix(250,0,0,250,1500.59,510.907)">
                            <path d="M0.479,-0.826L0.358,-0.806C0.391,-0.76 0.42,-0.71 0.446,-0.657L0.121,-0.657L0.121,-0.555L0.741,-0.555C0.637,-0.386 0.489,-0.25 0.297,-0.148C0.295,-0.15 0.292,-0.151 0.289,-0.152C0.277,-0.158 0.265,-0.16 0.252,-0.16C0.19,-0.16 0.126,-0.093 0.058,0.043L0.141,0.101C0.195,-0.001 0.231,-0.052 0.25,-0.052C0.264,-0.052 0.281,-0.041 0.303,-0.018C0.359,0.042 0.441,0.072 0.551,0.074C0.589,0.075 0.653,0.076 0.742,0.076L0.92,0.076L0.946,-0.027C0.852,-0.023 0.779,-0.02 0.726,-0.02C0.639,-0.02 0.572,-0.021 0.525,-0.023C0.469,-0.027 0.421,-0.047 0.381,-0.083C0.593,-0.197 0.756,-0.362 0.869,-0.578L0.869,-0.657L0.562,-0.657C0.535,-0.72 0.507,-0.776 0.479,-0.826Z" style="fill:rgb(167,29,56);fill-rule:nonzero;"/>
                        </g>
                    </g>
                    <g transform="matrix(1,0,0,1,113,928.408)">
                        <g transform="matrix(250,0,0,250,1500.59,510.907)">
                            <path d="M0.095,-0.775L0.095,-0.699L0.243,-0.699L0.243,-0.665L0.062,-0.665L0.062,-0.583L0.177,-0.583C0.141,-0.559 0.097,-0.537 0.046,-0.518L0.098,-0.452L0.102,-0.454L0.102,-0.392L0.243,-0.392L0.243,-0.354C0.19,-0.351 0.132,-0.349 0.069,-0.347L0.082,-0.259C0.278,-0.271 0.415,-0.283 0.495,-0.297L0.495,-0.376C0.453,-0.37 0.403,-0.365 0.345,-0.36L0.345,-0.392L0.473,-0.392L0.473,-0.47L0.464,-0.47L0.513,-0.518C0.487,-0.54 0.456,-0.561 0.422,-0.583L0.508,-0.583L0.508,-0.665L0.345,-0.665L0.345,-0.699L0.481,-0.699L0.481,-0.775L0.345,-0.775L0.345,-0.82L0.243,-0.82L0.243,-0.775L0.095,-0.775ZM0.206,-0.583L0.369,-0.583L0.34,-0.555C0.385,-0.525 0.422,-0.497 0.45,-0.47L0.345,-0.47L0.345,-0.529L0.243,-0.529L0.243,-0.47L0.135,-0.47C0.177,-0.492 0.214,-0.518 0.246,-0.548L0.206,-0.583ZM0.552,-0.547L0.504,-0.476C0.528,-0.466 0.552,-0.453 0.577,-0.439C0.557,-0.398 0.531,-0.364 0.497,-0.336L0.57,-0.271C0.606,-0.302 0.635,-0.34 0.659,-0.386C0.676,-0.374 0.694,-0.36 0.713,-0.345L0.763,-0.421C0.74,-0.439 0.716,-0.456 0.691,-0.472C0.703,-0.518 0.71,-0.571 0.712,-0.631L0.769,-0.631L0.769,-0.461C0.769,-0.379 0.778,-0.324 0.798,-0.295C0.817,-0.267 0.841,-0.252 0.87,-0.252C0.896,-0.252 0.918,-0.266 0.936,-0.292C0.952,-0.32 0.964,-0.368 0.971,-0.434L0.896,-0.473C0.888,-0.394 0.881,-0.354 0.873,-0.354C0.863,-0.354 0.858,-0.39 0.857,-0.461L0.857,-0.724L0.712,-0.724L0.712,-0.819L0.618,-0.819L0.618,-0.724L0.536,-0.724L0.536,-0.631L0.617,-0.631C0.616,-0.593 0.612,-0.556 0.605,-0.522C0.587,-0.531 0.57,-0.539 0.552,-0.547ZM0.453,-0.286C0.449,-0.264 0.444,-0.243 0.438,-0.223L0.099,-0.223L0.099,-0.126L0.38,-0.126C0.371,-0.117 0.361,-0.108 0.351,-0.099C0.295,-0.055 0.204,-0.022 0.077,0.001L0.122,0.106C0.273,0.074 0.378,0.03 0.437,-0.026C0.467,-0.055 0.493,-0.088 0.513,-0.126L0.784,-0.126C0.784,-0.095 0.781,-0.066 0.777,-0.04C0.773,-0.014 0.754,-0.001 0.721,0.001C0.678,0.001 0.631,-0.002 0.58,-0.008L0.607,0.091C0.639,0.094 0.679,0.096 0.727,0.096C0.788,0.096 0.83,0.077 0.854,0.039C0.878,0.001 0.89,-0.086 0.89,-0.223L0.549,-0.223C0.553,-0.239 0.556,-0.257 0.559,-0.275L0.453,-0.286Z" style="fill:rgb(167,29,56);fill-rule:nonzero;"/>
                        </g>
                    </g>
                </g>
                <g transform="matrix(1,0,0,1,165.905,-142.857)">
                    <g transform="matrix(75,0,0,75,1500.59,1765.71)">
                        <path d="M0.595,-0.589C0.595,-0.662 0.547,-0.713 0.451,-0.742C0.475,-0.747 0.499,-0.752 0.523,-0.755C0.546,-0.758 0.567,-0.76 0.584,-0.76C0.604,-0.76 0.623,-0.758 0.643,-0.755C0.662,-0.752 0.678,-0.746 0.693,-0.737C0.708,-0.728 0.72,-0.717 0.729,-0.703C0.737,-0.689 0.742,-0.671 0.742,-0.65C0.742,-0.643 0.741,-0.636 0.741,-0.631C0.74,-0.625 0.739,-0.619 0.738,-0.612C0.737,-0.605 0.736,-0.598 0.735,-0.59C0.733,-0.582 0.733,-0.572 0.733,-0.561L0.733,0.038C0.733,0.073 0.722,0.099 0.701,0.119C0.68,0.137 0.65,0.147 0.613,0.147C0.592,0.147 0.572,0.141 0.556,0.13C0.539,0.119 0.525,0.108 0.515,0.097C0.54,0.099 0.56,0.097 0.574,0.093C0.588,0.088 0.595,0.078 0.595,0.063L0.595,-0.589ZM0.519,-0.463C0.519,-0.448 0.515,-0.436 0.508,-0.427C0.501,-0.417 0.491,-0.409 0.48,-0.403L0.233,-0.1C0.213,-0.075 0.192,-0.057 0.171,-0.047C0.15,-0.037 0.129,-0.032 0.11,-0.033C0.087,-0.034 0.068,-0.041 0.055,-0.054C0.041,-0.066 0.031,-0.085 0.024,-0.108C0.042,-0.107 0.062,-0.112 0.085,-0.123C0.107,-0.134 0.126,-0.147 0.141,-0.163L0.351,-0.378C0.325,-0.373 0.299,-0.366 0.273,-0.358C0.247,-0.35 0.22,-0.345 0.192,-0.343C0.169,-0.342 0.147,-0.351 0.128,-0.371C0.108,-0.391 0.095,-0.423 0.09,-0.468C0.12,-0.459 0.149,-0.457 0.177,-0.462C0.205,-0.467 0.236,-0.476 0.27,-0.488C0.295,-0.497 0.32,-0.506 0.345,-0.514C0.37,-0.522 0.397,-0.526 0.426,-0.526C0.438,-0.526 0.45,-0.525 0.461,-0.524C0.472,-0.523 0.481,-0.52 0.49,-0.516C0.499,-0.511 0.506,-0.505 0.511,-0.497C0.516,-0.488 0.519,-0.477 0.519,-0.463Z" style="fill:rgb(167,29,56);fill-rule:nonzero;"/>
                    </g>
                    <g transform="matrix(75,0,0,75,1562.84,1765.71)">
                        <path d="M0.774,-0.016C0.744,-0.018 0.713,-0.019 0.682,-0.019C0.609,-0.019 0.535,-0.014 0.462,-0.005C0.388,0.005 0.318,0.019 0.253,0.036C0.24,0.039 0.224,0.043 0.206,0.048C0.187,0.053 0.171,0.055 0.157,0.055C0.136,0.055 0.118,0.05 0.103,0.041C0.088,0.032 0.075,0.019 0.065,0.004C0.054,-0.011 0.046,-0.029 0.041,-0.05C0.035,-0.071 0.032,-0.093 0.031,-0.116C0.051,-0.095 0.076,-0.08 0.106,-0.072C0.135,-0.064 0.167,-0.06 0.201,-0.06C0.227,-0.06 0.254,-0.061 0.283,-0.064C0.311,-0.067 0.339,-0.07 0.367,-0.073C0.384,-0.081 0.398,-0.089 0.409,-0.098C0.42,-0.107 0.428,-0.115 0.434,-0.123C0.44,-0.13 0.444,-0.137 0.446,-0.144C0.448,-0.15 0.449,-0.154 0.449,-0.157C0.449,-0.163 0.448,-0.171 0.447,-0.18C0.446,-0.189 0.44,-0.197 0.431,-0.205C0.406,-0.21 0.383,-0.218 0.36,-0.23C0.337,-0.243 0.319,-0.257 0.306,-0.273C0.293,-0.288 0.286,-0.305 0.286,-0.324C0.286,-0.348 0.297,-0.37 0.318,-0.391C0.339,-0.411 0.37,-0.431 0.413,-0.452L0.413,-0.463C0.424,-0.465 0.435,-0.467 0.444,-0.47C0.452,-0.472 0.461,-0.475 0.468,-0.479C0.473,-0.482 0.481,-0.486 0.491,-0.491C0.501,-0.496 0.512,-0.503 0.524,-0.51C0.507,-0.507 0.488,-0.503 0.469,-0.498C0.45,-0.493 0.431,-0.488 0.413,-0.483C0.389,-0.476 0.366,-0.471 0.344,-0.466C0.321,-0.46 0.303,-0.458 0.29,-0.458C0.267,-0.457 0.246,-0.464 0.228,-0.477C0.209,-0.49 0.195,-0.514 0.186,-0.549C0.201,-0.547 0.215,-0.546 0.229,-0.546C0.252,-0.546 0.28,-0.55 0.311,-0.558C0.341,-0.565 0.372,-0.573 0.402,-0.582C0.403,-0.582 0.405,-0.583 0.408,-0.584C0.413,-0.589 0.417,-0.594 0.419,-0.601C0.421,-0.607 0.422,-0.612 0.422,-0.616C0.422,-0.624 0.418,-0.633 0.41,-0.643C0.401,-0.653 0.388,-0.66 0.369,-0.665C0.388,-0.678 0.408,-0.688 0.43,-0.694C0.451,-0.699 0.472,-0.702 0.493,-0.703C0.499,-0.703 0.506,-0.703 0.515,-0.702C0.524,-0.701 0.532,-0.7 0.54,-0.697C0.548,-0.694 0.555,-0.69 0.561,-0.685C0.566,-0.68 0.569,-0.672 0.569,-0.663C0.569,-0.652 0.563,-0.637 0.551,-0.619C0.581,-0.624 0.612,-0.627 0.643,-0.628C0.664,-0.629 0.681,-0.626 0.694,-0.621C0.706,-0.616 0.712,-0.607 0.712,-0.596C0.712,-0.589 0.711,-0.58 0.708,-0.572C0.705,-0.563 0.699,-0.554 0.69,-0.547L0.691,-0.547L0.69,-0.547C0.685,-0.543 0.68,-0.539 0.674,-0.536C0.668,-0.533 0.66,-0.53 0.651,-0.527C0.63,-0.516 0.612,-0.506 0.595,-0.496C0.578,-0.486 0.562,-0.476 0.547,-0.467C0.567,-0.466 0.584,-0.462 0.597,-0.457C0.61,-0.451 0.621,-0.443 0.632,-0.433C0.653,-0.414 0.664,-0.388 0.664,-0.355C0.664,-0.316 0.649,-0.28 0.62,-0.249C0.607,-0.236 0.593,-0.226 0.578,-0.219C0.585,-0.214 0.591,-0.207 0.596,-0.199C0.601,-0.191 0.603,-0.182 0.603,-0.171C0.603,-0.164 0.6,-0.154 0.595,-0.142C0.589,-0.129 0.578,-0.116 0.562,-0.103C0.609,-0.112 0.653,-0.123 0.692,-0.135C0.701,-0.138 0.716,-0.142 0.736,-0.146C0.755,-0.149 0.775,-0.151 0.795,-0.151C0.807,-0.151 0.819,-0.15 0.83,-0.149C0.841,-0.147 0.85,-0.144 0.859,-0.139C0.868,-0.134 0.874,-0.128 0.88,-0.121C0.885,-0.114 0.887,-0.104 0.887,-0.093C0.887,-0.078 0.884,-0.065 0.877,-0.055C0.87,-0.044 0.861,-0.036 0.85,-0.03C0.838,-0.024 0.826,-0.02 0.813,-0.018C0.8,-0.015 0.787,-0.015 0.774,-0.016ZM0.454,-0.408C0.449,-0.405 0.443,-0.402 0.438,-0.399C0.433,-0.396 0.428,-0.393 0.423,-0.39C0.395,-0.377 0.374,-0.365 0.361,-0.354C0.348,-0.343 0.341,-0.334 0.341,-0.329C0.341,-0.318 0.359,-0.305 0.394,-0.292C0.402,-0.289 0.414,-0.288 0.43,-0.288C0.451,-0.288 0.473,-0.293 0.494,-0.303L0.493,-0.303C0.512,-0.314 0.521,-0.33 0.521,-0.35C0.521,-0.361 0.514,-0.371 0.501,-0.38C0.488,-0.389 0.472,-0.399 0.454,-0.408Z" style="fill:rgb(167,29,56);fill-rule:nonzero;"/>
                    </g>
                    <g transform="matrix(75,0,0,75,1631.84,1765.71)">
                        <path d="M0.595,-0.589C0.595,-0.662 0.547,-0.713 0.451,-0.742C0.475,-0.747 0.499,-0.752 0.523,-0.755C0.546,-0.758 0.567,-0.76 0.584,-0.76C0.604,-0.76 0.623,-0.758 0.643,-0.755C0.662,-0.752 0.678,-0.746 0.693,-0.737C0.708,-0.728 0.72,-0.717 0.729,-0.703C0.737,-0.689 0.742,-0.671 0.742,-0.65C0.742,-0.643 0.741,-0.636 0.741,-0.631C0.74,-0.625 0.739,-0.619 0.738,-0.612C0.737,-0.605 0.736,-0.598 0.735,-0.59C0.733,-0.582 0.733,-0.572 0.733,-0.561L0.733,0.038C0.733,0.073 0.722,0.099 0.701,0.119C0.68,0.137 0.65,0.147 0.613,0.147C0.592,0.147 0.572,0.141 0.556,0.13C0.539,0.119 0.525,0.108 0.515,0.097C0.54,0.099 0.56,0.097 0.574,0.093C0.588,0.088 0.595,0.078 0.595,0.063L0.595,-0.589ZM0.463,-0.485C0.463,-0.474 0.46,-0.464 0.455,-0.457C0.45,-0.45 0.443,-0.443 0.434,-0.438L0.343,-0.305C0.344,-0.304 0.347,-0.303 0.351,-0.302C0.364,-0.296 0.379,-0.287 0.398,-0.276C0.417,-0.264 0.435,-0.251 0.452,-0.236C0.454,-0.234 0.457,-0.233 0.461,-0.233C0.465,-0.232 0.469,-0.234 0.474,-0.239C0.48,-0.245 0.487,-0.255 0.496,-0.269C0.504,-0.283 0.513,-0.3 0.524,-0.32C0.517,-0.283 0.511,-0.253 0.507,-0.229C0.502,-0.204 0.5,-0.186 0.501,-0.174C0.504,-0.155 0.504,-0.138 0.499,-0.123C0.494,-0.108 0.48,-0.098 0.457,-0.094C0.44,-0.091 0.426,-0.093 0.416,-0.103C0.405,-0.112 0.398,-0.122 0.393,-0.133C0.39,-0.142 0.386,-0.152 0.381,-0.165C0.376,-0.178 0.37,-0.19 0.365,-0.202C0.359,-0.214 0.353,-0.225 0.348,-0.235C0.343,-0.245 0.338,-0.252 0.334,-0.256C0.329,-0.26 0.323,-0.26 0.317,-0.257C0.31,-0.253 0.303,-0.246 0.296,-0.237L0.199,-0.096C0.186,-0.077 0.168,-0.062 0.148,-0.051C0.127,-0.04 0.105,-0.033 0.084,-0.031C0.07,-0.03 0.055,-0.031 0.04,-0.035C0.025,-0.039 0.01,-0.048 -0.003,-0.061C0.008,-0.063 0.018,-0.067 0.028,-0.073C0.037,-0.078 0.046,-0.085 0.055,-0.092C0.064,-0.099 0.072,-0.107 0.079,-0.116C0.086,-0.124 0.092,-0.132 0.098,-0.14L0.288,-0.409C0.272,-0.406 0.257,-0.403 0.243,-0.4C0.228,-0.397 0.212,-0.396 0.195,-0.396C0.174,-0.396 0.156,-0.404 0.14,-0.419C0.124,-0.434 0.114,-0.46 0.109,-0.496C0.118,-0.493 0.127,-0.491 0.136,-0.49C0.145,-0.489 0.152,-0.489 0.157,-0.489C0.172,-0.489 0.188,-0.491 0.204,-0.496C0.22,-0.5 0.237,-0.505 0.254,-0.51C0.274,-0.516 0.295,-0.522 0.316,-0.528C0.337,-0.534 0.361,-0.537 0.386,-0.537C0.396,-0.537 0.406,-0.537 0.415,-0.536C0.424,-0.535 0.432,-0.532 0.439,-0.529C0.446,-0.525 0.452,-0.52 0.457,-0.513C0.461,-0.505 0.463,-0.496 0.463,-0.485Z" style="fill:rgb(167,29,56);fill-rule:nonzero;"/>
                    </g>
                    <g transform="matrix(75,0,0,75,1694.09,1765.71)">
                        <path d="M0.294,-0.27C0.297,-0.269 0.298,-0.268 0.298,-0.268C0.307,-0.263 0.318,-0.255 0.331,-0.245C0.343,-0.234 0.356,-0.223 0.369,-0.21C0.371,-0.208 0.374,-0.207 0.378,-0.207C0.381,-0.206 0.385,-0.208 0.388,-0.212C0.391,-0.215 0.394,-0.22 0.398,-0.225C0.401,-0.23 0.405,-0.237 0.41,-0.244C0.399,-0.251 0.389,-0.261 0.381,-0.274C0.372,-0.286 0.366,-0.302 0.361,-0.323C0.379,-0.316 0.398,-0.314 0.419,-0.317C0.44,-0.32 0.46,-0.327 0.481,-0.338L0.481,-0.494C0.481,-0.525 0.473,-0.551 0.457,-0.573C0.441,-0.595 0.416,-0.612 0.382,-0.623C0.405,-0.628 0.426,-0.633 0.444,-0.637C0.461,-0.64 0.478,-0.642 0.493,-0.642C0.508,-0.642 0.522,-0.641 0.537,-0.638C0.551,-0.635 0.563,-0.629 0.574,-0.622C0.585,-0.615 0.593,-0.605 0.6,-0.593C0.607,-0.58 0.61,-0.565 0.61,-0.546C0.61,-0.534 0.609,-0.522 0.606,-0.51C0.603,-0.498 0.602,-0.485 0.602,-0.47L0.602,-0.065C0.602,-0.034 0.593,-0.011 0.574,0.006C0.555,0.023 0.53,0.031 0.497,0.031C0.486,0.031 0.474,0.027 0.463,0.02C0.451,0.012 0.442,0.001 0.437,-0.014C0.447,-0.014 0.457,-0.016 0.467,-0.02C0.476,-0.023 0.481,-0.031 0.481,-0.044L0.481,-0.232C0.471,-0.231 0.461,-0.23 0.451,-0.231C0.44,-0.231 0.43,-0.233 0.42,-0.238C0.417,-0.22 0.414,-0.204 0.412,-0.191C0.409,-0.178 0.409,-0.165 0.41,-0.154C0.411,-0.137 0.41,-0.122 0.407,-0.109C0.403,-0.096 0.392,-0.088 0.375,-0.085C0.36,-0.082 0.348,-0.085 0.34,-0.092C0.332,-0.098 0.325,-0.107 0.32,-0.117C0.315,-0.127 0.31,-0.138 0.306,-0.15C0.301,-0.161 0.297,-0.172 0.294,-0.183C0.291,-0.193 0.287,-0.202 0.284,-0.209C0.281,-0.216 0.277,-0.219 0.273,-0.22C0.268,-0.221 0.262,-0.218 0.255,-0.213L0.179,-0.104C0.166,-0.085 0.15,-0.071 0.131,-0.06C0.112,-0.049 0.093,-0.042 0.072,-0.039C0.059,-0.038 0.045,-0.039 0.03,-0.043C0.015,-0.046 0.001,-0.055 -0.012,-0.07C0.008,-0.074 0.025,-0.083 0.04,-0.098C0.055,-0.113 0.067,-0.128 0.078,-0.144L0.246,-0.392C0.249,-0.397 0.252,-0.402 0.253,-0.409C0.254,-0.415 0.254,-0.421 0.252,-0.428C0.249,-0.434 0.245,-0.44 0.238,-0.446C0.231,-0.452 0.22,-0.457 0.207,-0.46C0.222,-0.464 0.234,-0.468 0.245,-0.473C0.256,-0.478 0.265,-0.482 0.274,-0.486C0.283,-0.49 0.291,-0.493 0.299,-0.496C0.306,-0.499 0.314,-0.5 0.323,-0.5C0.346,-0.5 0.366,-0.494 0.383,-0.482C0.399,-0.469 0.407,-0.454 0.407,-0.437C0.407,-0.428 0.405,-0.42 0.4,-0.414C0.395,-0.408 0.39,-0.402 0.384,-0.396C0.381,-0.394 0.379,-0.392 0.377,-0.389C0.375,-0.386 0.373,-0.382 0.37,-0.379L0.294,-0.27ZM0.642,-0.589C0.642,-0.662 0.594,-0.713 0.498,-0.742C0.522,-0.747 0.546,-0.752 0.57,-0.755C0.593,-0.758 0.614,-0.76 0.631,-0.76C0.651,-0.76 0.671,-0.758 0.69,-0.755C0.708,-0.752 0.725,-0.746 0.74,-0.737C0.755,-0.728 0.767,-0.717 0.776,-0.703C0.785,-0.689 0.789,-0.671 0.789,-0.65C0.789,-0.643 0.789,-0.636 0.788,-0.631C0.787,-0.625 0.786,-0.619 0.785,-0.612C0.784,-0.605 0.783,-0.598 0.782,-0.59C0.781,-0.582 0.78,-0.572 0.78,-0.561L0.78,0.038C0.78,0.073 0.769,0.099 0.748,0.119C0.727,0.137 0.697,0.147 0.66,0.147C0.639,0.147 0.62,0.141 0.603,0.13C0.586,0.119 0.572,0.108 0.562,0.097C0.587,0.099 0.607,0.097 0.621,0.093C0.635,0.088 0.642,0.078 0.642,0.063L0.642,-0.589Z" style="fill:rgb(167,29,56);fill-rule:nonzero;"/>
                    </g>
                </g>
            </g>
            <g transform="matrix(1,0,0,1,-907,5)">
                <g transform="matrix(66.6667,0,0,66.6667,1411.57,190.8)">
                    <path d="M0.033,-0.369C0.034,-0.334 0.056,-0.306 0.072,-0.277C0.088,-0.251 0.106,-0.222 0.119,-0.193C0.131,-0.163 0.138,-0.133 0.151,-0.103C0.161,-0.082 0.188,0.029 0.219,0.029C0.226,0.029 0.231,0.025 0.237,0.015C0.255,-0.011 0.26,-0.045 0.27,-0.075C0.279,-0.103 0.29,-0.134 0.302,-0.162C0.309,-0.178 0.323,-0.206 0.338,-0.206C0.345,-0.206 0.35,-0.201 0.356,-0.191C0.364,-0.179 0.364,-0.163 0.366,-0.151C0.371,-0.134 0.379,-0.119 0.386,-0.104C0.401,-0.071 0.401,-0.046 0.411,-0.014C0.416,0.006 0.429,0.029 0.446,0.029C0.452,0.029 0.459,0.025 0.466,0.015C0.482,-0.006 0.482,-0.031 0.491,-0.056C0.498,-0.078 0.516,-0.095 0.523,-0.119C0.536,-0.166 0.563,-0.208 0.583,-0.251C0.598,-0.284 0.62,-0.316 0.633,-0.347C0.636,-0.356 0.638,-0.362 0.638,-0.368C0.638,-0.385 0.622,-0.386 0.605,-0.386L0.59,-0.386C0.584,-0.386 0.578,-0.386 0.573,-0.387C0.563,-0.389 0.556,-0.393 0.548,-0.393C0.543,-0.393 0.538,-0.391 0.533,-0.383C0.524,-0.369 0.522,-0.351 0.517,-0.336C0.507,-0.306 0.493,-0.272 0.482,-0.242C0.476,-0.223 0.462,-0.201 0.446,-0.201C0.44,-0.201 0.431,-0.206 0.424,-0.219C0.41,-0.242 0.402,-0.276 0.392,-0.302C0.382,-0.329 0.381,-0.361 0.37,-0.385C0.363,-0.398 0.351,-0.411 0.336,-0.411C0.331,-0.411 0.326,-0.411 0.322,-0.408C0.302,-0.397 0.293,-0.346 0.286,-0.326C0.277,-0.298 0.271,-0.265 0.257,-0.239C0.251,-0.228 0.241,-0.221 0.235,-0.21C0.231,-0.202 0.23,-0.181 0.22,-0.177C0.218,-0.176 0.216,-0.176 0.216,-0.176C0.197,-0.176 0.201,-0.215 0.197,-0.225C0.189,-0.255 0.168,-0.277 0.161,-0.309C0.157,-0.328 0.157,-0.351 0.148,-0.37C0.14,-0.386 0.131,-0.389 0.121,-0.389C0.111,-0.389 0.101,-0.386 0.09,-0.386C0.081,-0.386 0.066,-0.391 0.055,-0.391C0.042,-0.391 0.033,-0.386 0.033,-0.369Z" style="fill-rule:nonzero;"/>
                </g>
                <g transform="matrix(66.6667,0,0,66.6667,1455.83,190.8)">
                    <path d="M0.171,-0.381C0.14,-0.373 0.111,-0.359 0.088,-0.333C0.055,-0.295 0.046,-0.251 0.046,-0.206C0.046,-0.19 0.047,-0.173 0.049,-0.156C0.056,-0.088 0.086,-0.043 0.145,-0.007C0.176,0.012 0.205,0.021 0.236,0.021C0.261,0.021 0.286,0.015 0.313,0.004C0.346,-0.01 0.387,-0.024 0.411,-0.052C0.415,-0.058 0.417,-0.064 0.417,-0.07C0.417,-0.093 0.387,-0.116 0.363,-0.116C0.359,-0.116 0.356,-0.115 0.352,-0.114C0.327,-0.104 0.313,-0.078 0.286,-0.072C0.28,-0.071 0.273,-0.071 0.266,-0.071L0.243,-0.071C0.216,-0.071 0.188,-0.076 0.169,-0.097C0.158,-0.109 0.146,-0.131 0.146,-0.148C0.146,-0.151 0.146,-0.154 0.147,-0.157C0.151,-0.173 0.166,-0.176 0.181,-0.176C0.195,-0.176 0.209,-0.174 0.22,-0.174C0.231,-0.174 0.238,-0.175 0.246,-0.175C0.29,-0.175 0.334,-0.17 0.378,-0.17L0.386,-0.17C0.416,-0.17 0.432,-0.171 0.432,-0.197C0.432,-0.201 0.432,-0.206 0.431,-0.211C0.427,-0.243 0.426,-0.273 0.41,-0.302C0.381,-0.355 0.321,-0.4 0.26,-0.4C0.229,-0.4 0.2,-0.388 0.171,-0.381ZM0.174,-0.303C0.191,-0.316 0.216,-0.324 0.241,-0.324C0.274,-0.324 0.307,-0.311 0.321,-0.283C0.323,-0.278 0.325,-0.271 0.325,-0.265C0.325,-0.256 0.322,-0.246 0.317,-0.241C0.308,-0.233 0.286,-0.235 0.274,-0.234L0.266,-0.234C0.246,-0.234 0.227,-0.236 0.207,-0.236C0.18,-0.236 0.151,-0.245 0.151,-0.266C0.151,-0.273 0.156,-0.283 0.166,-0.295C0.168,-0.298 0.171,-0.301 0.174,-0.303Z" style="fill-rule:nonzero;"/>
                </g>
                <g transform="matrix(66.6667,0,0,66.6667,1487.57,190.8)">
                    <path d="M0.068,-0.641C0.064,-0.63 0.062,-0.619 0.062,-0.607C0.062,-0.586 0.067,-0.565 0.068,-0.545C0.072,-0.476 0.071,-0.407 0.074,-0.337C0.075,-0.311 0.076,-0.285 0.076,-0.258C0.076,-0.216 0.074,-0.173 0.072,-0.131C0.071,-0.098 0.067,-0.066 0.066,-0.035L0.066,-0.031C0.066,-0.002 0.083,0.004 0.106,0.004C0.112,0.004 0.12,0.003 0.137,0.002C0.151,0.002 0.174,-0 0.181,-0.011C0.185,-0.017 0.186,-0.025 0.186,-0.033C0.186,-0.046 0.183,-0.059 0.183,-0.069C0.181,-0.097 0.178,-0.126 0.178,-0.154C0.178,-0.225 0.176,-0.294 0.176,-0.365L0.176,-0.429C0.176,-0.466 0.176,-0.502 0.18,-0.539C0.182,-0.564 0.187,-0.589 0.187,-0.615L0.187,-0.625C0.186,-0.649 0.172,-0.651 0.156,-0.651L0.136,-0.651C0.123,-0.651 0.107,-0.657 0.093,-0.657C0.082,-0.657 0.073,-0.654 0.068,-0.641Z" style="fill-rule:nonzero;"/>
                </g>
                <g transform="matrix(66.6667,0,0,66.6667,1503.9,190.8)">
                    <path d="M0.066,-0.302C0.053,-0.275 0.048,-0.242 0.046,-0.206L0.046,-0.193C0.046,-0.172 0.048,-0.15 0.051,-0.129C0.066,-0.031 0.152,0.014 0.241,0.014C0.258,0.014 0.275,0.013 0.291,0.009C0.301,0.008 0.311,0.007 0.322,0.003C0.346,-0.006 0.353,-0.027 0.353,-0.051L0.353,-0.064C0.353,-0.075 0.356,-0.087 0.356,-0.096C0.356,-0.106 0.353,-0.112 0.341,-0.113L0.337,-0.113C0.321,-0.113 0.304,-0.102 0.291,-0.097C0.273,-0.091 0.258,-0.086 0.243,-0.086C0.223,-0.086 0.203,-0.094 0.181,-0.107C0.159,-0.121 0.146,-0.138 0.138,-0.162C0.136,-0.171 0.134,-0.181 0.134,-0.191C0.134,-0.221 0.144,-0.256 0.162,-0.273C0.181,-0.292 0.213,-0.302 0.242,-0.302C0.26,-0.302 0.276,-0.299 0.291,-0.293C0.306,-0.286 0.321,-0.267 0.339,-0.267C0.341,-0.267 0.341,-0.268 0.343,-0.268C0.357,-0.271 0.359,-0.284 0.359,-0.298L0.359,-0.334C0.359,-0.351 0.356,-0.365 0.341,-0.376C0.313,-0.397 0.279,-0.406 0.244,-0.406C0.207,-0.406 0.17,-0.396 0.139,-0.378C0.102,-0.357 0.08,-0.332 0.066,-0.302Z" style="fill-rule:nonzero;"/>
                </g>
                <g transform="matrix(66.6667,0,0,66.6667,1530.1,190.8)">
                    <path d="M0.344,-0.378C0.316,-0.394 0.283,-0.401 0.25,-0.401C0.183,-0.401 0.114,-0.371 0.081,-0.318C0.056,-0.278 0.044,-0.23 0.044,-0.181C0.044,-0.166 0.045,-0.152 0.047,-0.138C0.061,-0.041 0.162,0.016 0.256,0.016C0.286,0.016 0.315,0.01 0.341,-0.001C0.417,-0.036 0.451,-0.111 0.451,-0.19C0.451,-0.205 0.45,-0.219 0.447,-0.234C0.445,-0.256 0.437,-0.275 0.426,-0.294C0.405,-0.331 0.381,-0.357 0.344,-0.378ZM0.133,-0.205C0.141,-0.266 0.194,-0.305 0.249,-0.305C0.276,-0.305 0.302,-0.296 0.325,-0.276C0.347,-0.255 0.365,-0.224 0.365,-0.192C0.365,-0.188 0.365,-0.184 0.364,-0.18C0.357,-0.14 0.331,-0.1 0.295,-0.081C0.281,-0.075 0.267,-0.071 0.252,-0.071C0.247,-0.071 0.241,-0.072 0.236,-0.073C0.214,-0.076 0.207,-0.08 0.192,-0.092C0.191,-0.093 0.19,-0.095 0.188,-0.096C0.171,-0.111 0.156,-0.121 0.145,-0.141C0.137,-0.158 0.132,-0.176 0.132,-0.193C0.132,-0.197 0.132,-0.201 0.133,-0.205Z" style="fill-rule:nonzero;"/>
                </g>
                <g transform="matrix(66.6667,0,0,66.6667,1563.23,190.8)">
                    <path d="M0.072,-0.377C0.071,-0.373 0.07,-0.369 0.07,-0.364C0.07,-0.354 0.073,-0.343 0.075,-0.332C0.075,-0.323 0.076,-0.316 0.076,-0.308L0.076,-0.262C0.076,-0.205 0.069,-0.146 0.069,-0.088L0.069,-0.081C0.069,-0.068 0.066,-0.053 0.066,-0.039C0.066,-0.021 0.071,-0.004 0.09,0.002C0.098,0.004 0.116,0.007 0.133,0.007C0.153,0.007 0.174,0.004 0.18,-0.004C0.185,-0.011 0.186,-0.022 0.186,-0.035C0.186,-0.058 0.181,-0.086 0.18,-0.1C0.178,-0.116 0.177,-0.131 0.177,-0.148C0.177,-0.164 0.178,-0.181 0.178,-0.197C0.178,-0.21 0.177,-0.223 0.177,-0.236C0.177,-0.256 0.179,-0.275 0.191,-0.29C0.203,-0.303 0.222,-0.312 0.241,-0.312C0.253,-0.312 0.265,-0.309 0.274,-0.301C0.296,-0.284 0.295,-0.239 0.297,-0.213C0.299,-0.196 0.3,-0.181 0.3,-0.165C0.3,-0.148 0.299,-0.132 0.297,-0.116C0.295,-0.095 0.292,-0.073 0.292,-0.051C0.292,-0.047 0.293,-0.042 0.293,-0.037C0.295,-0.006 0.307,-0.001 0.329,-0.001C0.335,-0.001 0.341,-0.002 0.347,-0.002C0.356,-0.002 0.366,-0 0.373,-0C0.381,-0 0.387,-0.002 0.393,-0.011C0.398,-0.018 0.4,-0.025 0.4,-0.031C0.4,-0.042 0.395,-0.053 0.391,-0.066C0.389,-0.076 0.389,-0.086 0.389,-0.096L0.389,-0.126C0.388,-0.135 0.388,-0.144 0.388,-0.153C0.388,-0.163 0.388,-0.172 0.389,-0.182C0.391,-0.224 0.397,-0.311 0.451,-0.311C0.458,-0.311 0.465,-0.31 0.473,-0.307C0.518,-0.292 0.526,-0.242 0.526,-0.195C0.526,-0.171 0.524,-0.149 0.524,-0.131C0.524,-0.097 0.517,-0.064 0.514,-0.03L0.514,-0.026C0.514,-0.003 0.536,0.004 0.56,0.004C0.578,0.004 0.597,-0.001 0.608,-0.006C0.623,-0.012 0.627,-0.022 0.627,-0.033C0.627,-0.046 0.621,-0.061 0.62,-0.075C0.616,-0.109 0.614,-0.147 0.614,-0.182C0.614,-0.196 0.615,-0.211 0.615,-0.226L0.615,-0.282C0.615,-0.302 0.613,-0.322 0.605,-0.342C0.587,-0.384 0.551,-0.403 0.511,-0.403C0.493,-0.403 0.475,-0.399 0.457,-0.391C0.436,-0.38 0.417,-0.351 0.395,-0.345C0.393,-0.344 0.391,-0.344 0.389,-0.344C0.37,-0.344 0.348,-0.372 0.331,-0.382C0.314,-0.393 0.297,-0.4 0.279,-0.4C0.271,-0.4 0.264,-0.398 0.256,-0.396C0.231,-0.39 0.211,-0.367 0.186,-0.367C0.18,-0.367 0.174,-0.369 0.167,-0.371C0.154,-0.377 0.146,-0.387 0.132,-0.391C0.128,-0.391 0.109,-0.393 0.095,-0.393C0.087,-0.393 0.081,-0.393 0.081,-0.391C0.078,-0.387 0.074,-0.382 0.072,-0.377Z" style="fill-rule:nonzero;"/>
                </g>
                <g transform="matrix(66.6667,0,0,66.6667,1608.57,190.8)">
                    <path d="M0.171,-0.381C0.14,-0.373 0.111,-0.359 0.088,-0.333C0.055,-0.295 0.046,-0.251 0.046,-0.206C0.046,-0.19 0.047,-0.173 0.049,-0.156C0.056,-0.088 0.086,-0.043 0.145,-0.007C0.176,0.012 0.205,0.021 0.236,0.021C0.261,0.021 0.286,0.015 0.313,0.004C0.346,-0.01 0.387,-0.024 0.411,-0.052C0.415,-0.058 0.417,-0.064 0.417,-0.07C0.417,-0.093 0.387,-0.116 0.363,-0.116C0.359,-0.116 0.356,-0.115 0.352,-0.114C0.327,-0.104 0.313,-0.078 0.286,-0.072C0.28,-0.071 0.273,-0.071 0.266,-0.071L0.243,-0.071C0.216,-0.071 0.188,-0.076 0.169,-0.097C0.158,-0.109 0.146,-0.131 0.146,-0.148C0.146,-0.151 0.146,-0.154 0.147,-0.157C0.151,-0.173 0.166,-0.176 0.181,-0.176C0.195,-0.176 0.209,-0.174 0.22,-0.174C0.231,-0.174 0.238,-0.175 0.246,-0.175C0.29,-0.175 0.334,-0.17 0.378,-0.17L0.386,-0.17C0.416,-0.17 0.432,-0.171 0.432,-0.197C0.432,-0.201 0.432,-0.206 0.431,-0.211C0.427,-0.243 0.426,-0.273 0.41,-0.302C0.381,-0.355 0.321,-0.4 0.26,-0.4C0.229,-0.4 0.2,-0.388 0.171,-0.381ZM0.174,-0.303C0.191,-0.316 0.216,-0.324 0.241,-0.324C0.274,-0.324 0.307,-0.311 0.321,-0.283C0.323,-0.278 0.325,-0.271 0.325,-0.265C0.325,-0.256 0.322,-0.246 0.317,-0.241C0.308,-0.233 0.286,-0.235 0.274,-0.234L0.266,-0.234C0.246,-0.234 0.227,-0.236 0.207,-0.236C0.18,-0.236 0.151,-0.245 0.151,-0.266C0.151,-0.273 0.156,-0.283 0.166,-0.295C0.168,-0.298 0.171,-0.301 0.174,-0.303Z" style="fill-rule:nonzero;"/>
                </g>
                <g transform="matrix(66.6667,0,0,66.6667,1656.97,190.8)">
                    <path d="M0.191,-0.515C0.185,-0.523 0.174,-0.525 0.164,-0.525C0.157,-0.525 0.151,-0.524 0.146,-0.524C0.112,-0.522 0.086,-0.527 0.086,-0.484C0.086,-0.468 0.094,-0.442 0.094,-0.421C0.094,-0.409 0.091,-0.397 0.083,-0.391C0.078,-0.386 0.072,-0.385 0.066,-0.385C0.061,-0.385 0.056,-0.386 0.051,-0.386C0.046,-0.386 0.042,-0.386 0.039,-0.384C0.023,-0.377 0.023,-0.361 0.021,-0.346C0.02,-0.34 0.019,-0.335 0.019,-0.329C0.019,-0.321 0.021,-0.312 0.029,-0.306C0.046,-0.294 0.071,-0.308 0.084,-0.291C0.092,-0.28 0.094,-0.26 0.094,-0.24C0.094,-0.221 0.092,-0.201 0.092,-0.189C0.092,-0.159 0.091,-0.13 0.09,-0.1C0.089,-0.084 0.082,-0.054 0.082,-0.031C0.082,-0.021 0.084,-0.011 0.088,-0.006C0.096,0.004 0.113,0.006 0.128,0.006C0.135,0.006 0.141,0.005 0.146,0.005C0.154,0.005 0.161,0.006 0.167,0.006C0.178,0.006 0.186,0.004 0.191,-0.009C0.193,-0.016 0.194,-0.021 0.194,-0.028C0.194,-0.042 0.189,-0.057 0.187,-0.072C0.186,-0.091 0.186,-0.111 0.186,-0.129C0.184,-0.154 0.184,-0.179 0.184,-0.204C0.184,-0.219 0.184,-0.235 0.185,-0.25C0.186,-0.261 0.186,-0.271 0.187,-0.281C0.194,-0.328 0.264,-0.28 0.264,-0.332L0.264,-0.356C0.264,-0.364 0.263,-0.372 0.257,-0.377C0.252,-0.381 0.247,-0.382 0.241,-0.382C0.231,-0.382 0.22,-0.378 0.21,-0.378C0.205,-0.378 0.2,-0.379 0.196,-0.383C0.19,-0.388 0.189,-0.4 0.189,-0.41L0.189,-0.425C0.189,-0.44 0.196,-0.467 0.196,-0.49C0.196,-0.5 0.194,-0.509 0.191,-0.515Z" style="fill-rule:nonzero;"/>
                </g>
                <g transform="matrix(66.6667,0,0,66.6667,1675.9,190.8)">
                    <path d="M0.344,-0.378C0.316,-0.394 0.283,-0.401 0.25,-0.401C0.183,-0.401 0.114,-0.371 0.081,-0.318C0.056,-0.278 0.044,-0.23 0.044,-0.181C0.044,-0.166 0.045,-0.152 0.047,-0.138C0.061,-0.041 0.162,0.016 0.256,0.016C0.286,0.016 0.315,0.01 0.341,-0.001C0.417,-0.036 0.451,-0.111 0.451,-0.19C0.451,-0.205 0.45,-0.219 0.447,-0.234C0.445,-0.256 0.437,-0.275 0.426,-0.294C0.405,-0.331 0.381,-0.357 0.344,-0.378ZM0.133,-0.205C0.141,-0.266 0.194,-0.305 0.249,-0.305C0.276,-0.305 0.302,-0.296 0.325,-0.276C0.347,-0.255 0.365,-0.224 0.365,-0.192C0.365,-0.188 0.365,-0.184 0.364,-0.18C0.357,-0.14 0.331,-0.1 0.295,-0.081C0.281,-0.075 0.267,-0.071 0.252,-0.071C0.247,-0.071 0.241,-0.072 0.236,-0.073C0.214,-0.076 0.207,-0.08 0.192,-0.092C0.191,-0.093 0.19,-0.095 0.188,-0.096C0.171,-0.111 0.156,-0.121 0.145,-0.141C0.137,-0.158 0.132,-0.176 0.132,-0.193C0.132,-0.197 0.132,-0.201 0.133,-0.205Z" style="fill-rule:nonzero;"/>
                </g>
                <g transform="matrix(66.6667,0,0,66.6667,1725.7,190.8)">
                    <path d="M0.071,-0.357C0.071,-0.325 0.075,-0.291 0.076,-0.26C0.077,-0.238 0.077,-0.216 0.077,-0.194C0.077,-0.152 0.076,-0.11 0.072,-0.069C0.071,-0.057 0.066,-0.04 0.066,-0.026C0.066,-0.017 0.067,-0.011 0.071,-0.006C0.079,0.006 0.096,0.01 0.113,0.01C0.131,0.01 0.149,0.006 0.161,0.002C0.177,-0.005 0.182,-0.017 0.182,-0.031C0.182,-0.043 0.178,-0.057 0.176,-0.07C0.171,-0.102 0.171,-0.134 0.171,-0.166L0.171,-0.191C0.171,-0.227 0.173,-0.256 0.203,-0.281C0.218,-0.293 0.242,-0.303 0.265,-0.303C0.277,-0.303 0.291,-0.3 0.3,-0.291C0.321,-0.272 0.327,-0.238 0.327,-0.203C0.327,-0.163 0.319,-0.119 0.318,-0.09C0.317,-0.073 0.311,-0.05 0.311,-0.03C0.311,-0.02 0.313,-0.011 0.317,-0.003C0.324,0.009 0.343,0.012 0.361,0.012C0.371,0.012 0.382,0.01 0.389,0.009C0.414,0.007 0.426,-0.002 0.426,-0.023C0.426,-0.026 0.425,-0.029 0.425,-0.032C0.421,-0.067 0.422,-0.101 0.42,-0.136C0.419,-0.153 0.417,-0.168 0.417,-0.185C0.417,-0.19 0.417,-0.195 0.418,-0.201C0.419,-0.211 0.419,-0.221 0.419,-0.231C0.419,-0.256 0.416,-0.281 0.408,-0.306C0.395,-0.347 0.383,-0.362 0.346,-0.383C0.328,-0.393 0.309,-0.396 0.289,-0.396C0.279,-0.396 0.268,-0.396 0.258,-0.394C0.241,-0.391 0.227,-0.386 0.213,-0.378C0.203,-0.372 0.186,-0.35 0.176,-0.348C0.174,-0.348 0.172,-0.347 0.171,-0.347C0.166,-0.347 0.164,-0.352 0.164,-0.358C0.164,-0.361 0.165,-0.365 0.165,-0.369C0.165,-0.374 0.164,-0.379 0.161,-0.383C0.155,-0.391 0.136,-0.392 0.121,-0.392C0.11,-0.392 0.101,-0.391 0.095,-0.391C0.074,-0.389 0.071,-0.378 0.071,-0.357Z" style="fill-rule:nonzero;"/>
                </g>
                <g transform="matrix(66.6667,0,0,66.6667,1757.97,190.8)">
                    <path d="M0.344,-0.378C0.316,-0.394 0.283,-0.401 0.25,-0.401C0.183,-0.401 0.114,-0.371 0.081,-0.318C0.056,-0.278 0.044,-0.23 0.044,-0.181C0.044,-0.166 0.045,-0.152 0.047,-0.138C0.061,-0.041 0.162,0.016 0.256,0.016C0.286,0.016 0.315,0.01 0.341,-0.001C0.417,-0.036 0.451,-0.111 0.451,-0.19C0.451,-0.205 0.45,-0.219 0.447,-0.234C0.445,-0.256 0.437,-0.275 0.426,-0.294C0.405,-0.331 0.381,-0.357 0.344,-0.378ZM0.133,-0.205C0.141,-0.266 0.194,-0.305 0.249,-0.305C0.276,-0.305 0.302,-0.296 0.325,-0.276C0.347,-0.255 0.365,-0.224 0.365,-0.192C0.365,-0.188 0.365,-0.184 0.364,-0.18C0.357,-0.14 0.331,-0.1 0.295,-0.081C0.281,-0.075 0.267,-0.071 0.252,-0.071C0.247,-0.071 0.241,-0.072 0.236,-0.073C0.214,-0.076 0.207,-0.08 0.192,-0.092C0.191,-0.093 0.19,-0.095 0.188,-0.096C0.171,-0.111 0.156,-0.121 0.145,-0.141C0.137,-0.158 0.132,-0.176 0.132,-0.193C0.132,-0.197 0.132,-0.201 0.133,-0.205Z" style="fill-rule:nonzero;"/>
                </g>
                <g transform="matrix(66.6667,0,0,66.6667,1791.1,190.8)">
                    <path d="M0.151,-0.384C0.116,-0.371 0.091,-0.348 0.073,-0.32C0.05,-0.281 0.041,-0.231 0.041,-0.184C0.041,-0.171 0.041,-0.158 0.042,-0.146C0.05,-0.076 0.084,-0.027 0.151,-0.002C0.171,0.005 0.194,0.01 0.216,0.01C0.236,0.01 0.256,0.006 0.276,-0.001C0.291,-0.008 0.319,-0.037 0.335,-0.037C0.353,-0.037 0.355,-0.006 0.368,-0C0.374,0.004 0.386,0.005 0.4,0.005C0.421,0.005 0.445,0.001 0.451,-0.008C0.456,-0.016 0.458,-0.028 0.458,-0.042C0.458,-0.063 0.454,-0.087 0.452,-0.101C0.449,-0.134 0.45,-0.166 0.448,-0.199C0.447,-0.211 0.447,-0.223 0.447,-0.235C0.447,-0.288 0.452,-0.342 0.452,-0.398C0.452,-0.436 0.451,-0.475 0.451,-0.513C0.451,-0.54 0.451,-0.566 0.454,-0.592C0.455,-0.601 0.457,-0.611 0.457,-0.622C0.457,-0.635 0.454,-0.646 0.441,-0.651C0.436,-0.653 0.431,-0.654 0.426,-0.654C0.412,-0.654 0.397,-0.65 0.384,-0.65L0.371,-0.65C0.354,-0.65 0.346,-0.648 0.342,-0.626C0.34,-0.616 0.339,-0.607 0.339,-0.597C0.339,-0.587 0.34,-0.577 0.341,-0.568C0.344,-0.54 0.349,-0.514 0.349,-0.486L0.349,-0.476C0.347,-0.459 0.346,-0.441 0.346,-0.425L0.346,-0.416C0.346,-0.402 0.354,-0.386 0.354,-0.372C0.354,-0.367 0.353,-0.362 0.351,-0.358C0.346,-0.35 0.341,-0.346 0.337,-0.346C0.327,-0.346 0.317,-0.359 0.31,-0.366C0.296,-0.376 0.276,-0.381 0.261,-0.388C0.25,-0.393 0.236,-0.396 0.221,-0.396C0.196,-0.396 0.168,-0.39 0.151,-0.384ZM0.169,-0.291C0.184,-0.302 0.204,-0.31 0.23,-0.311L0.236,-0.311C0.267,-0.311 0.292,-0.304 0.315,-0.28C0.336,-0.256 0.35,-0.225 0.35,-0.193L0.35,-0.186C0.348,-0.154 0.328,-0.104 0.301,-0.086C0.289,-0.078 0.274,-0.076 0.257,-0.076C0.229,-0.076 0.197,-0.084 0.178,-0.094C0.151,-0.107 0.138,-0.141 0.132,-0.17C0.13,-0.181 0.128,-0.193 0.128,-0.204C0.128,-0.237 0.14,-0.267 0.169,-0.291Z" style="fill-rule:nonzero;"/>
                </g>
                <g transform="matrix(66.6667,0,0,66.6667,1825.63,190.8)">
                    <path d="M0.171,-0.381C0.14,-0.373 0.111,-0.359 0.088,-0.333C0.055,-0.295 0.046,-0.251 0.046,-0.206C0.046,-0.19 0.047,-0.173 0.049,-0.156C0.056,-0.088 0.086,-0.043 0.145,-0.007C0.176,0.012 0.205,0.021 0.236,0.021C0.261,0.021 0.286,0.015 0.313,0.004C0.346,-0.01 0.387,-0.024 0.411,-0.052C0.415,-0.058 0.417,-0.064 0.417,-0.07C0.417,-0.093 0.387,-0.116 0.363,-0.116C0.359,-0.116 0.356,-0.115 0.352,-0.114C0.327,-0.104 0.313,-0.078 0.286,-0.072C0.28,-0.071 0.273,-0.071 0.266,-0.071L0.243,-0.071C0.216,-0.071 0.188,-0.076 0.169,-0.097C0.158,-0.109 0.146,-0.131 0.146,-0.148C0.146,-0.151 0.146,-0.154 0.147,-0.157C0.151,-0.173 0.166,-0.176 0.181,-0.176C0.195,-0.176 0.209,-0.174 0.22,-0.174C0.231,-0.174 0.238,-0.175 0.246,-0.175C0.29,-0.175 0.334,-0.17 0.378,-0.17L0.386,-0.17C0.416,-0.17 0.432,-0.171 0.432,-0.197C0.432,-0.201 0.432,-0.206 0.431,-0.211C0.427,-0.243 0.426,-0.273 0.41,-0.302C0.381,-0.355 0.321,-0.4 0.26,-0.4C0.229,-0.4 0.2,-0.388 0.171,-0.381ZM0.174,-0.303C0.191,-0.316 0.216,-0.324 0.241,-0.324C0.274,-0.324 0.307,-0.311 0.321,-0.283C0.323,-0.278 0.325,-0.271 0.325,-0.265C0.325,-0.256 0.322,-0.246 0.317,-0.241C0.308,-0.233 0.286,-0.235 0.274,-0.234L0.266,-0.234C0.246,-0.234 0.227,-0.236 0.207,-0.236C0.18,-0.236 0.151,-0.245 0.151,-0.266C0.151,-0.273 0.156,-0.283 0.166,-0.295C0.168,-0.298 0.171,-0.301 0.174,-0.303Z" style="fill-rule:nonzero;"/>
                </g>
                <g transform="matrix(66.6667,0,0,66.6667,1874.03,190.8)">
                    <path d="M0.187,-0.565C0.163,-0.549 0.146,-0.535 0.125,-0.513C0.106,-0.494 0.095,-0.474 0.082,-0.451L0.077,-0.441C0.063,-0.413 0.048,-0.384 0.043,-0.354C0.041,-0.34 0.039,-0.326 0.039,-0.311L0.039,-0.302C0.039,-0.288 0.04,-0.273 0.041,-0.26C0.047,-0.199 0.071,-0.148 0.111,-0.1C0.125,-0.083 0.131,-0.063 0.15,-0.049C0.171,-0.031 0.206,-0.022 0.232,-0.013C0.278,0.004 0.323,0.013 0.371,0.013C0.382,0.013 0.394,0.013 0.406,0.011C0.446,0.007 0.493,-0.001 0.518,-0.037C0.521,-0.042 0.526,-0.081 0.526,-0.107C0.526,-0.121 0.525,-0.131 0.522,-0.131C0.51,-0.131 0.461,-0.101 0.441,-0.096C0.412,-0.088 0.383,-0.087 0.356,-0.086L0.343,-0.086C0.285,-0.086 0.237,-0.104 0.196,-0.148C0.158,-0.191 0.144,-0.237 0.144,-0.293L0.144,-0.307C0.146,-0.333 0.146,-0.376 0.158,-0.399C0.166,-0.412 0.186,-0.419 0.196,-0.432C0.205,-0.442 0.209,-0.455 0.219,-0.465C0.238,-0.484 0.27,-0.495 0.294,-0.501L0.337,-0.51C0.341,-0.511 0.346,-0.511 0.349,-0.511C0.356,-0.511 0.362,-0.51 0.37,-0.51C0.373,-0.51 0.376,-0.51 0.381,-0.511L0.393,-0.511C0.418,-0.511 0.435,-0.498 0.461,-0.491C0.473,-0.486 0.482,-0.48 0.494,-0.473C0.5,-0.471 0.522,-0.456 0.527,-0.456C0.536,-0.456 0.538,-0.465 0.538,-0.475C0.538,-0.487 0.535,-0.502 0.535,-0.511L0.535,-0.514C0.533,-0.544 0.532,-0.566 0.501,-0.58C0.469,-0.596 0.432,-0.604 0.396,-0.609C0.382,-0.611 0.367,-0.611 0.353,-0.611C0.295,-0.611 0.236,-0.597 0.187,-0.565Z" style="fill-rule:nonzero;"/>
                </g>
                <g transform="matrix(66.6667,0,0,66.6667,1913.37,190.8)">
                    <path d="M0.441,-0.158L0.441,-0.168C0.44,-0.214 0.429,-0.257 0.387,-0.286C0.376,-0.293 0.357,-0.299 0.357,-0.313C0.357,-0.318 0.36,-0.324 0.365,-0.331C0.378,-0.349 0.401,-0.36 0.411,-0.379C0.423,-0.401 0.431,-0.427 0.431,-0.453C0.431,-0.465 0.429,-0.476 0.426,-0.486C0.401,-0.566 0.325,-0.616 0.246,-0.616C0.236,-0.616 0.225,-0.615 0.215,-0.613C0.201,-0.611 0.188,-0.606 0.176,-0.602C0.153,-0.595 0.138,-0.586 0.12,-0.571C0.111,-0.564 0.104,-0.556 0.097,-0.548C0.073,-0.52 0.059,-0.488 0.059,-0.454C0.059,-0.431 0.065,-0.409 0.076,-0.386C0.087,-0.363 0.11,-0.343 0.119,-0.321C0.121,-0.316 0.121,-0.313 0.121,-0.309C0.121,-0.282 0.082,-0.261 0.071,-0.24C0.055,-0.209 0.046,-0.176 0.046,-0.142C0.046,-0.135 0.047,-0.126 0.048,-0.119C0.051,-0.098 0.064,-0.075 0.076,-0.056C0.081,-0.046 0.088,-0.036 0.097,-0.027C0.138,0.011 0.189,0.029 0.239,0.029C0.299,0.029 0.36,0.004 0.404,-0.044C0.42,-0.061 0.433,-0.071 0.438,-0.096C0.442,-0.116 0.441,-0.137 0.441,-0.158ZM0.175,-0.493C0.191,-0.505 0.212,-0.511 0.234,-0.511C0.266,-0.511 0.3,-0.499 0.318,-0.476C0.329,-0.463 0.333,-0.45 0.333,-0.435C0.333,-0.422 0.33,-0.41 0.326,-0.396C0.311,-0.357 0.284,-0.351 0.249,-0.351L0.23,-0.351C0.189,-0.353 0.171,-0.366 0.156,-0.404C0.152,-0.414 0.151,-0.425 0.151,-0.436C0.151,-0.458 0.158,-0.48 0.175,-0.493ZM0.23,-0.256C0.237,-0.257 0.245,-0.258 0.251,-0.258C0.301,-0.258 0.337,-0.213 0.337,-0.164C0.337,-0.114 0.291,-0.077 0.245,-0.077C0.241,-0.077 0.236,-0.077 0.232,-0.078C0.188,-0.084 0.148,-0.131 0.148,-0.177C0.148,-0.194 0.153,-0.21 0.165,-0.224C0.177,-0.239 0.21,-0.251 0.23,-0.256Z" style="fill-rule:nonzero;"/>
                </g>
                <g transform="matrix(66.6667,0,0,66.6667,1243.2,261.633)">
                    <path d="M0.604,-0.019C0.604,-0.026 0.603,-0.034 0.601,-0.042L0.597,-0.067C0.593,-0.094 0.589,-0.164 0.589,-0.22L0.589,-0.261C0.589,-0.306 0.581,-0.328 0.564,-0.351C0.544,-0.376 0.511,-0.386 0.486,-0.386C0.461,-0.386 0.446,-0.38 0.426,-0.368C0.417,-0.363 0.408,-0.356 0.401,-0.349C0.391,-0.34 0.379,-0.333 0.375,-0.331L0.368,-0.331C0.356,-0.331 0.343,-0.337 0.327,-0.358C0.311,-0.38 0.289,-0.388 0.263,-0.388L0.251,-0.388C0.246,-0.388 0.239,-0.388 0.233,-0.386C0.225,-0.383 0.215,-0.377 0.196,-0.363C0.182,-0.352 0.173,-0.348 0.166,-0.348C0.161,-0.348 0.157,-0.351 0.155,-0.354C0.152,-0.357 0.151,-0.362 0.15,-0.367L0.149,-0.373C0.149,-0.374 0.148,-0.376 0.148,-0.376C0.145,-0.386 0.131,-0.386 0.113,-0.386C0.099,-0.386 0.084,-0.378 0.084,-0.361C0.084,-0.336 0.09,-0.255 0.09,-0.215C0.09,-0.176 0.088,-0.107 0.084,-0.056C0.083,-0.047 0.083,-0.04 0.083,-0.033C0.083,-0.003 0.091,0.004 0.121,0.004C0.146,0.004 0.152,-0.006 0.152,-0.023C0.152,-0.03 0.151,-0.038 0.15,-0.047C0.145,-0.075 0.141,-0.137 0.141,-0.182L0.141,-0.204C0.144,-0.248 0.156,-0.273 0.173,-0.296C0.189,-0.318 0.223,-0.335 0.247,-0.335L0.252,-0.335C0.276,-0.332 0.295,-0.321 0.304,-0.305C0.313,-0.289 0.316,-0.264 0.316,-0.209C0.316,-0.159 0.309,-0.086 0.305,-0.046C0.304,-0.039 0.302,-0.029 0.302,-0.024C0.302,-0 0.313,0.011 0.346,0.011C0.366,0.011 0.371,0.005 0.373,0.002C0.375,-0.001 0.375,-0.004 0.375,-0.007C0.375,-0.011 0.374,-0.015 0.374,-0.019C0.372,-0.035 0.362,-0.133 0.362,-0.178C0.362,-0.225 0.379,-0.271 0.389,-0.291C0.401,-0.315 0.446,-0.327 0.464,-0.329L0.471,-0.329C0.489,-0.329 0.506,-0.321 0.526,-0.303C0.536,-0.291 0.541,-0.277 0.543,-0.26C0.544,-0.253 0.544,-0.246 0.544,-0.238C0.544,-0.226 0.543,-0.211 0.543,-0.193C0.541,-0.136 0.533,-0.091 0.527,-0.038C0.526,-0.031 0.526,-0.026 0.526,-0.021C0.526,0.002 0.534,0.009 0.554,0.009C0.561,0.009 0.569,0.009 0.579,0.007C0.599,0.004 0.603,-0.006 0.604,-0.019Z" style="fill-rule:nonzero;"/>
                </g>
                <g transform="matrix(66.6667,0,0,66.6667,1288.53,261.633)">
                    <path d="M0.306,-0.002C0.314,-0.007 0.321,-0.013 0.326,-0.018C0.331,-0.024 0.336,-0.029 0.341,-0.032C0.347,-0.038 0.354,-0.041 0.361,-0.041C0.371,-0.041 0.38,-0.033 0.38,-0.021C0.38,-0.018 0.38,-0.015 0.379,-0.012C0.379,-0.011 0.378,-0.01 0.378,-0.009C0.378,-0 0.388,0.001 0.416,0.003L0.421,0.003C0.436,0.003 0.439,-0.001 0.441,-0.005L0.441,-0.202C0.441,-0.235 0.44,-0.27 0.44,-0.302C0.44,-0.318 0.44,-0.333 0.441,-0.347L0.441,-0.352C0.441,-0.378 0.428,-0.379 0.411,-0.379L0.401,-0.379C0.389,-0.379 0.383,-0.378 0.383,-0.371C0.383,-0.366 0.384,-0.362 0.384,-0.359C0.384,-0.343 0.378,-0.329 0.366,-0.325C0.364,-0.324 0.363,-0.324 0.361,-0.324C0.354,-0.324 0.345,-0.329 0.336,-0.337C0.327,-0.345 0.32,-0.354 0.312,-0.362C0.301,-0.376 0.26,-0.388 0.222,-0.388C0.166,-0.388 0.102,-0.352 0.071,-0.309C0.049,-0.277 0.041,-0.227 0.037,-0.186L0.037,-0.178C0.037,-0.139 0.06,-0.076 0.085,-0.045C0.111,-0.012 0.155,0.018 0.229,0.018C0.265,0.018 0.289,0.009 0.306,-0.002ZM0.383,-0.186C0.38,-0.144 0.366,-0.094 0.331,-0.068C0.304,-0.047 0.283,-0.042 0.252,-0.042C0.246,-0.042 0.24,-0.043 0.232,-0.043C0.187,-0.046 0.149,-0.066 0.133,-0.092C0.12,-0.116 0.111,-0.147 0.111,-0.182L0.111,-0.191C0.113,-0.227 0.128,-0.288 0.147,-0.302C0.161,-0.313 0.204,-0.331 0.24,-0.331C0.246,-0.331 0.252,-0.331 0.258,-0.33L0.281,-0.325C0.285,-0.325 0.285,-0.324 0.286,-0.324C0.292,-0.322 0.301,-0.321 0.307,-0.318C0.325,-0.312 0.342,-0.301 0.355,-0.279L0.37,-0.253C0.371,-0.246 0.377,-0.239 0.38,-0.233C0.383,-0.225 0.385,-0.216 0.385,-0.206C0.385,-0.2 0.384,-0.193 0.383,-0.186Z" style="fill-rule:nonzero;"/>
                </g>
                <g transform="matrix(66.6667,0,0,66.6667,1323.07,261.633)">
                    <path d="M0.432,-0.356C0.435,-0.361 0.436,-0.364 0.436,-0.366C0.436,-0.37 0.433,-0.371 0.43,-0.372C0.426,-0.374 0.42,-0.375 0.414,-0.376L0.399,-0.377C0.396,-0.377 0.391,-0.378 0.387,-0.378C0.378,-0.378 0.369,-0.376 0.368,-0.369C0.366,-0.351 0.337,-0.286 0.326,-0.262C0.315,-0.239 0.291,-0.179 0.283,-0.156C0.275,-0.13 0.261,-0.096 0.239,-0.09C0.236,-0.089 0.233,-0.088 0.231,-0.088C0.221,-0.088 0.215,-0.095 0.211,-0.104C0.211,-0.108 0.209,-0.113 0.208,-0.119C0.207,-0.124 0.206,-0.13 0.205,-0.135C0.202,-0.146 0.196,-0.157 0.189,-0.172C0.181,-0.186 0.173,-0.202 0.166,-0.22C0.152,-0.256 0.129,-0.308 0.116,-0.346C0.103,-0.378 0.093,-0.38 0.06,-0.383L0.053,-0.383C0.038,-0.383 0.032,-0.377 0.032,-0.37C0.032,-0.356 0.046,-0.338 0.053,-0.331C0.062,-0.321 0.073,-0.299 0.085,-0.277C0.096,-0.255 0.109,-0.231 0.121,-0.212C0.126,-0.202 0.132,-0.191 0.137,-0.179L0.151,-0.143C0.161,-0.119 0.17,-0.096 0.184,-0.08C0.202,-0.058 0.209,-0.037 0.209,-0.02L0.209,-0.016C0.209,-0.005 0.206,0.005 0.203,0.012C0.195,0.025 0.184,0.044 0.172,0.079C0.166,0.097 0.156,0.114 0.147,0.129C0.138,0.144 0.129,0.158 0.121,0.174C0.118,0.179 0.116,0.184 0.116,0.186C0.116,0.198 0.131,0.198 0.156,0.2C0.158,0.2 0.161,0.201 0.163,0.201C0.175,0.201 0.18,0.197 0.183,0.193C0.186,0.189 0.188,0.185 0.19,0.179L0.197,0.159C0.203,0.144 0.208,0.129 0.213,0.115C0.219,0.1 0.225,0.085 0.233,0.07C0.249,0.04 0.276,-0.041 0.296,-0.079C0.315,-0.116 0.341,-0.18 0.356,-0.211C0.371,-0.242 0.413,-0.323 0.432,-0.356Z" style="fill-rule:nonzero;"/>
                </g>
                <g transform="matrix(66.6667,0,0,66.6667,1370.93,261.633)">
                    <path d="M0.471,-0.196L0.471,-0.204C0.471,-0.257 0.44,-0.304 0.414,-0.336C0.389,-0.366 0.332,-0.389 0.283,-0.391C0.237,-0.391 0.194,-0.362 0.165,-0.333C0.157,-0.326 0.151,-0.322 0.146,-0.322C0.141,-0.322 0.137,-0.325 0.135,-0.328C0.132,-0.332 0.131,-0.341 0.131,-0.353L0.131,-0.366C0.131,-0.38 0.124,-0.381 0.101,-0.383L0.097,-0.383C0.079,-0.383 0.074,-0.371 0.074,-0.356C0.074,-0.346 0.076,-0.336 0.077,-0.328C0.08,-0.306 0.082,-0.178 0.082,-0.101C0.082,-0.078 0.082,-0.061 0.081,-0.05C0.079,-0.001 0.077,0.129 0.073,0.166C0.073,0.169 0.072,0.17 0.072,0.172C0.072,0.193 0.086,0.2 0.105,0.2C0.107,0.2 0.11,0.199 0.113,0.199C0.138,0.198 0.146,0.189 0.146,0.184L0.146,0.179C0.146,0.172 0.146,0.163 0.145,0.151C0.143,0.137 0.141,0.12 0.141,0.107C0.14,0.1 0.14,0.093 0.14,0.084L0.14,0.069C0.14,0.049 0.14,0.029 0.136,0.006C0.135,-0.003 0.134,-0.011 0.134,-0.017C0.134,-0.04 0.141,-0.05 0.157,-0.052L0.161,-0.052C0.169,-0.052 0.176,-0.046 0.181,-0.041C0.188,-0.035 0.193,-0.027 0.198,-0.02C0.208,-0.007 0.218,0.004 0.29,0.004C0.325,0.004 0.346,-0.002 0.364,-0.012C0.372,-0.017 0.381,-0.023 0.389,-0.03L0.417,-0.052C0.455,-0.081 0.471,-0.138 0.471,-0.196ZM0.415,-0.188L0.412,-0.148C0.408,-0.111 0.398,-0.095 0.366,-0.072C0.346,-0.057 0.333,-0.051 0.321,-0.047C0.315,-0.046 0.309,-0.046 0.302,-0.046C0.301,-0.046 0.298,-0.045 0.296,-0.045C0.291,-0.045 0.287,-0.046 0.281,-0.046C0.248,-0.046 0.216,-0.05 0.185,-0.075C0.153,-0.1 0.133,-0.147 0.133,-0.198C0.133,-0.25 0.156,-0.291 0.193,-0.315C0.202,-0.32 0.209,-0.325 0.216,-0.328L0.233,-0.336C0.245,-0.341 0.256,-0.341 0.274,-0.341C0.315,-0.341 0.349,-0.325 0.368,-0.303C0.372,-0.298 0.378,-0.293 0.383,-0.286C0.389,-0.28 0.395,-0.272 0.4,-0.263C0.408,-0.247 0.415,-0.226 0.415,-0.201L0.415,-0.188Z" style="fill-rule:nonzero;"/>
                </g>
                <g transform="matrix(66.6667,0,0,66.6667,1406.27,261.633)">
                    <path d="M0.308,-0.38C0.301,-0.383 0.277,-0.391 0.25,-0.391C0.223,-0.391 0.186,-0.367 0.173,-0.342C0.17,-0.336 0.166,-0.33 0.161,-0.327C0.158,-0.326 0.156,-0.326 0.155,-0.326C0.15,-0.326 0.146,-0.329 0.144,-0.332C0.141,-0.338 0.14,-0.346 0.14,-0.354L0.14,-0.361C0.14,-0.378 0.122,-0.385 0.109,-0.385C0.084,-0.385 0.081,-0.377 0.08,-0.372C0.08,-0.371 0.079,-0.37 0.079,-0.368C0.079,-0.365 0.08,-0.36 0.081,-0.355C0.082,-0.348 0.083,-0.34 0.084,-0.333C0.086,-0.3 0.086,-0.226 0.086,-0.182C0.086,-0.139 0.084,-0.094 0.077,-0.036C0.076,-0.026 0.076,-0.018 0.076,-0.013C0.076,-0.007 0.077,-0.004 0.081,-0.002C0.083,-0.001 0.087,-0.001 0.096,-0.001C0.104,-0.002 0.114,-0.003 0.126,-0.003C0.151,-0.003 0.157,-0.02 0.157,-0.039C0.157,-0.053 0.153,-0.069 0.151,-0.081C0.147,-0.101 0.146,-0.138 0.146,-0.175C0.146,-0.195 0.146,-0.214 0.147,-0.231C0.15,-0.285 0.186,-0.315 0.22,-0.323C0.233,-0.326 0.242,-0.327 0.251,-0.327C0.263,-0.327 0.271,-0.325 0.284,-0.32C0.286,-0.32 0.289,-0.317 0.291,-0.317C0.294,-0.317 0.295,-0.318 0.296,-0.321C0.298,-0.322 0.3,-0.326 0.301,-0.331C0.304,-0.336 0.306,-0.342 0.308,-0.349C0.311,-0.359 0.313,-0.366 0.313,-0.37C0.313,-0.375 0.311,-0.378 0.308,-0.38Z" style="fill-rule:nonzero;"/>
                </g>
                <g transform="matrix(66.6667,0,0,66.6667,1428.33,261.633)">
                    <path d="M0.458,-0.18L0.458,-0.185C0.458,-0.253 0.426,-0.304 0.396,-0.336C0.366,-0.367 0.317,-0.392 0.261,-0.394L0.256,-0.394C0.165,-0.394 0.125,-0.356 0.096,-0.326C0.066,-0.296 0.043,-0.251 0.043,-0.187C0.043,-0.123 0.081,-0.061 0.112,-0.033C0.142,-0.006 0.187,0.014 0.245,0.014L0.251,0.014C0.313,0.012 0.361,0.004 0.404,-0.042C0.447,-0.09 0.458,-0.107 0.458,-0.18ZM0.401,-0.191C0.401,-0.153 0.387,-0.101 0.362,-0.082C0.356,-0.079 0.35,-0.074 0.342,-0.069C0.317,-0.052 0.289,-0.039 0.259,-0.039C0.255,-0.039 0.251,-0.039 0.246,-0.04C0.198,-0.046 0.175,-0.056 0.146,-0.09C0.117,-0.122 0.108,-0.148 0.108,-0.189C0.108,-0.229 0.115,-0.267 0.155,-0.297C0.194,-0.326 0.225,-0.33 0.257,-0.33C0.308,-0.33 0.345,-0.316 0.366,-0.279C0.376,-0.262 0.385,-0.251 0.391,-0.238C0.396,-0.225 0.401,-0.211 0.401,-0.191Z" style="fill-rule:nonzero;"/>
                </g>
                <g transform="matrix(66.6667,0,0,66.6667,1461.47,261.633)">
                    <path d="M0.386,-0.381C0.386,-0.381 0.382,-0.382 0.377,-0.383L0.361,-0.383C0.343,-0.383 0.331,-0.376 0.326,-0.356C0.323,-0.342 0.317,-0.327 0.311,-0.312L0.291,-0.269C0.285,-0.255 0.276,-0.237 0.267,-0.217C0.259,-0.198 0.251,-0.177 0.246,-0.159C0.235,-0.114 0.224,-0.1 0.211,-0.097C0.197,-0.097 0.19,-0.116 0.187,-0.126L0.182,-0.146L0.176,-0.163C0.166,-0.182 0.146,-0.233 0.133,-0.266L0.094,-0.361C0.086,-0.38 0.076,-0.382 0.048,-0.385L0.042,-0.385C0.028,-0.385 0.024,-0.38 0.024,-0.372C0.024,-0.371 0.025,-0.369 0.025,-0.367C0.027,-0.353 0.038,-0.332 0.05,-0.313C0.074,-0.276 0.087,-0.241 0.105,-0.206C0.123,-0.17 0.154,-0.105 0.172,-0.05C0.19,0.005 0.213,0.02 0.221,0.02C0.233,0.02 0.245,-0.031 0.251,-0.056C0.256,-0.07 0.266,-0.093 0.276,-0.116C0.286,-0.139 0.296,-0.161 0.301,-0.173C0.305,-0.186 0.319,-0.216 0.335,-0.248C0.351,-0.281 0.369,-0.318 0.381,-0.346C0.386,-0.36 0.389,-0.369 0.389,-0.374C0.389,-0.379 0.387,-0.38 0.386,-0.381Z" style="fill-rule:nonzero;"/>
                </g>
                <g transform="matrix(66.6667,0,0,66.6667,1489.2,261.633)">
                    <path d="M0.437,-0.197C0.437,-0.198 0.438,-0.199 0.438,-0.201C0.438,-0.202 0.437,-0.205 0.437,-0.208L0.433,-0.229C0.426,-0.261 0.391,-0.314 0.365,-0.345C0.339,-0.373 0.289,-0.39 0.247,-0.392L0.236,-0.392C0.193,-0.392 0.159,-0.371 0.124,-0.348L0.116,-0.343C0.078,-0.32 0.051,-0.244 0.049,-0.184L0.049,-0.181C0.049,-0.124 0.092,-0.061 0.126,-0.023C0.159,0.012 0.227,0.013 0.261,0.013C0.293,0.013 0.319,0.005 0.336,-0.004C0.343,-0.008 0.353,-0.016 0.365,-0.026C0.376,-0.036 0.388,-0.046 0.401,-0.056C0.411,-0.063 0.416,-0.071 0.416,-0.079C0.416,-0.088 0.411,-0.097 0.396,-0.109C0.391,-0.113 0.386,-0.115 0.383,-0.115C0.378,-0.115 0.375,-0.112 0.371,-0.109C0.364,-0.101 0.359,-0.091 0.355,-0.081C0.347,-0.063 0.307,-0.043 0.257,-0.043L0.249,-0.043C0.216,-0.044 0.188,-0.054 0.163,-0.074L0.148,-0.086C0.132,-0.1 0.116,-0.14 0.116,-0.165L0.116,-0.172C0.119,-0.184 0.143,-0.191 0.173,-0.192C0.198,-0.192 0.226,-0.191 0.241,-0.191C0.262,-0.191 0.32,-0.19 0.365,-0.19C0.388,-0.19 0.408,-0.19 0.419,-0.191C0.436,-0.191 0.437,-0.195 0.437,-0.197ZM0.366,-0.263C0.369,-0.258 0.37,-0.254 0.37,-0.25C0.37,-0.239 0.361,-0.232 0.343,-0.232C0.304,-0.232 0.261,-0.231 0.244,-0.231C0.226,-0.231 0.173,-0.232 0.162,-0.235C0.151,-0.236 0.127,-0.249 0.127,-0.267C0.127,-0.273 0.129,-0.279 0.134,-0.285C0.15,-0.307 0.194,-0.337 0.246,-0.337L0.25,-0.337C0.297,-0.335 0.313,-0.321 0.336,-0.299C0.346,-0.289 0.36,-0.276 0.366,-0.263Z" style="fill-rule:nonzero;"/>
                </g>
                <g transform="matrix(66.6667,0,0,66.6667,1520.93,261.633)">
                    <path d="M0.308,-0.38C0.301,-0.383 0.277,-0.391 0.25,-0.391C0.223,-0.391 0.186,-0.367 0.173,-0.342C0.17,-0.336 0.166,-0.33 0.161,-0.327C0.158,-0.326 0.156,-0.326 0.155,-0.326C0.15,-0.326 0.146,-0.329 0.144,-0.332C0.141,-0.338 0.14,-0.346 0.14,-0.354L0.14,-0.361C0.14,-0.378 0.122,-0.385 0.109,-0.385C0.084,-0.385 0.081,-0.377 0.08,-0.372C0.08,-0.371 0.079,-0.37 0.079,-0.368C0.079,-0.365 0.08,-0.36 0.081,-0.355C0.082,-0.348 0.083,-0.34 0.084,-0.333C0.086,-0.3 0.086,-0.226 0.086,-0.182C0.086,-0.139 0.084,-0.094 0.077,-0.036C0.076,-0.026 0.076,-0.018 0.076,-0.013C0.076,-0.007 0.077,-0.004 0.081,-0.002C0.083,-0.001 0.087,-0.001 0.096,-0.001C0.104,-0.002 0.114,-0.003 0.126,-0.003C0.151,-0.003 0.157,-0.02 0.157,-0.039C0.157,-0.053 0.153,-0.069 0.151,-0.081C0.147,-0.101 0.146,-0.138 0.146,-0.175C0.146,-0.195 0.146,-0.214 0.147,-0.231C0.15,-0.285 0.186,-0.315 0.22,-0.323C0.233,-0.326 0.242,-0.327 0.251,-0.327C0.263,-0.327 0.271,-0.325 0.284,-0.32C0.286,-0.32 0.289,-0.317 0.291,-0.317C0.294,-0.317 0.295,-0.318 0.296,-0.321C0.298,-0.322 0.3,-0.326 0.301,-0.331C0.304,-0.336 0.306,-0.342 0.308,-0.349C0.311,-0.359 0.313,-0.366 0.313,-0.37C0.313,-0.375 0.311,-0.378 0.308,-0.38Z" style="fill-rule:nonzero;"/>
                </g>
                <g transform="matrix(66.6667,0,0,66.6667,1543,261.633)">
                    <path d="M0.47,-0.209L0.47,-0.213C0.47,-0.251 0.449,-0.297 0.419,-0.336C0.39,-0.374 0.329,-0.39 0.285,-0.391L0.281,-0.391C0.241,-0.391 0.203,-0.367 0.184,-0.344C0.173,-0.331 0.165,-0.326 0.158,-0.326C0.145,-0.326 0.138,-0.345 0.138,-0.359C0.138,-0.367 0.137,-0.381 0.136,-0.396L0.136,-0.403C0.136,-0.421 0.137,-0.441 0.14,-0.456C0.143,-0.471 0.145,-0.504 0.146,-0.539L0.15,-0.629L0.15,-0.632C0.15,-0.645 0.145,-0.648 0.14,-0.65C0.136,-0.651 0.131,-0.651 0.125,-0.651L0.105,-0.651C0.086,-0.651 0.074,-0.644 0.071,-0.626C0.071,-0.621 0.07,-0.616 0.07,-0.61C0.07,-0.606 0.07,-0.601 0.071,-0.596L0.075,-0.561C0.08,-0.514 0.082,-0.324 0.082,-0.281C0.082,-0.259 0.084,-0.209 0.084,-0.159C0.084,-0.109 0.083,-0.057 0.078,-0.035C0.076,-0.028 0.076,-0.023 0.076,-0.018C0.076,0.002 0.089,0.006 0.113,0.006C0.138,0.006 0.142,0.002 0.144,-0.031C0.145,-0.047 0.151,-0.053 0.158,-0.053C0.163,-0.053 0.169,-0.05 0.175,-0.046C0.18,-0.041 0.185,-0.036 0.19,-0.03L0.205,-0.013C0.221,0.003 0.24,0.012 0.286,0.012L0.298,0.012C0.351,0.01 0.405,-0.026 0.436,-0.063C0.452,-0.081 0.46,-0.106 0.464,-0.134C0.469,-0.161 0.47,-0.189 0.47,-0.209ZM0.418,-0.193C0.418,-0.159 0.416,-0.131 0.385,-0.097L0.364,-0.076C0.346,-0.056 0.326,-0.043 0.3,-0.043C0.297,-0.043 0.294,-0.043 0.291,-0.044C0.256,-0.048 0.217,-0.052 0.19,-0.077C0.176,-0.09 0.163,-0.101 0.154,-0.117C0.143,-0.134 0.136,-0.155 0.134,-0.186C0.133,-0.191 0.133,-0.196 0.133,-0.201C0.133,-0.255 0.156,-0.28 0.186,-0.303C0.22,-0.328 0.251,-0.332 0.281,-0.334C0.286,-0.334 0.293,-0.335 0.298,-0.335C0.331,-0.335 0.356,-0.325 0.383,-0.286C0.416,-0.241 0.418,-0.228 0.418,-0.193Z" style="fill-rule:nonzero;"/>
                </g>
                <g transform="matrix(66.6667,0,0,66.6667,1594.2,261.633)">
                    <path d="M0.439,-0.326C0.44,-0.332 0.44,-0.337 0.44,-0.342C0.44,-0.366 0.43,-0.371 0.409,-0.373C0.404,-0.374 0.401,-0.374 0.397,-0.374C0.386,-0.374 0.383,-0.371 0.383,-0.364C0.383,-0.358 0.385,-0.352 0.385,-0.346C0.385,-0.34 0.384,-0.331 0.376,-0.325C0.374,-0.322 0.371,-0.321 0.367,-0.321C0.361,-0.321 0.354,-0.325 0.346,-0.332C0.339,-0.34 0.331,-0.349 0.321,-0.355C0.303,-0.366 0.267,-0.384 0.216,-0.386L0.213,-0.386C0.175,-0.386 0.131,-0.356 0.107,-0.334C0.084,-0.312 0.047,-0.265 0.047,-0.186L0.047,-0.181C0.048,-0.139 0.057,-0.11 0.071,-0.087C0.083,-0.066 0.1,-0.049 0.116,-0.032L0.121,-0.028C0.156,0.007 0.206,0.013 0.231,0.013C0.255,0.013 0.286,0.007 0.305,-0.012C0.325,-0.032 0.349,-0.042 0.366,-0.042L0.371,-0.042C0.383,-0.04 0.385,-0.028 0.386,-0.019C0.386,-0.01 0.384,0.004 0.383,0.022C0.381,0.059 0.373,0.079 0.359,0.105C0.342,0.135 0.293,0.149 0.245,0.153C0.242,0.153 0.239,0.154 0.236,0.154C0.187,0.154 0.147,0.118 0.131,0.092C0.124,0.08 0.119,0.076 0.112,0.074C0.109,0.073 0.105,0.073 0.1,0.073L0.08,0.073C0.068,0.073 0.064,0.08 0.064,0.089C0.064,0.095 0.067,0.104 0.07,0.109C0.073,0.116 0.08,0.124 0.088,0.133C0.096,0.142 0.106,0.151 0.115,0.159C0.131,0.175 0.175,0.194 0.233,0.199L0.244,0.199C0.296,0.199 0.341,0.179 0.366,0.164C0.391,0.15 0.421,0.104 0.431,0.069C0.436,0.054 0.437,0.02 0.437,-0.016C0.437,-0.056 0.436,-0.099 0.435,-0.127C0.434,-0.146 0.434,-0.17 0.434,-0.196C0.434,-0.244 0.435,-0.297 0.439,-0.326ZM0.383,-0.184C0.383,-0.155 0.381,-0.119 0.356,-0.087C0.332,-0.057 0.306,-0.033 0.246,-0.033L0.24,-0.033C0.208,-0.034 0.186,-0.041 0.171,-0.051C0.156,-0.061 0.146,-0.072 0.136,-0.085C0.116,-0.108 0.106,-0.141 0.105,-0.181L0.105,-0.191C0.105,-0.229 0.113,-0.262 0.14,-0.293C0.17,-0.327 0.212,-0.331 0.246,-0.331C0.291,-0.331 0.329,-0.316 0.352,-0.285C0.375,-0.254 0.383,-0.215 0.383,-0.184Z" style="fill-rule:nonzero;"/>
                </g>
                <g transform="matrix(66.6667,0,0,66.6667,1629.4,261.633)">
                    <path d="M0.413,-0.339C0.414,-0.346 0.414,-0.351 0.414,-0.356C0.414,-0.376 0.407,-0.383 0.378,-0.385L0.373,-0.385C0.351,-0.385 0.346,-0.376 0.346,-0.361C0.346,-0.356 0.346,-0.351 0.347,-0.345C0.349,-0.321 0.353,-0.243 0.355,-0.192C0.355,-0.184 0.356,-0.176 0.356,-0.168C0.356,-0.129 0.35,-0.098 0.332,-0.076C0.311,-0.047 0.29,-0.046 0.259,-0.045L0.256,-0.045C0.249,-0.044 0.242,-0.044 0.236,-0.044C0.212,-0.044 0.193,-0.049 0.174,-0.076C0.162,-0.091 0.156,-0.111 0.153,-0.133C0.151,-0.154 0.15,-0.18 0.149,-0.209C0.148,-0.233 0.148,-0.251 0.148,-0.268C0.148,-0.291 0.149,-0.311 0.151,-0.341L0.151,-0.359C0.151,-0.37 0.15,-0.374 0.149,-0.376C0.148,-0.376 0.146,-0.377 0.142,-0.378C0.138,-0.378 0.132,-0.378 0.126,-0.379L0.119,-0.379C0.096,-0.379 0.091,-0.371 0.091,-0.362C0.091,-0.341 0.096,-0.32 0.096,-0.291C0.096,-0.264 0.097,-0.168 0.097,-0.126C0.097,-0.086 0.119,-0.046 0.151,-0.022C0.181,0.001 0.234,0.007 0.266,0.007C0.297,0.007 0.344,-0.013 0.386,-0.055C0.405,-0.074 0.411,-0.104 0.411,-0.135C0.411,-0.166 0.406,-0.196 0.406,-0.213C0.406,-0.246 0.409,-0.306 0.413,-0.339Z" style="fill-rule:nonzero;"/>
                </g>
                <g transform="matrix(66.6667,0,0,66.6667,1662,261.633)">
                    <path d="M0.166,-0.514C0.165,-0.541 0.141,-0.566 0.116,-0.569L0.109,-0.569C0.083,-0.569 0.065,-0.553 0.063,-0.53C0.064,-0.499 0.091,-0.474 0.12,-0.474C0.15,-0.474 0.162,-0.491 0.166,-0.514ZM0.154,-0.033C0.151,-0.056 0.142,-0.143 0.142,-0.186C0.142,-0.206 0.141,-0.226 0.141,-0.247C0.141,-0.274 0.142,-0.302 0.145,-0.336C0.145,-0.342 0.146,-0.347 0.146,-0.352C0.146,-0.384 0.136,-0.386 0.12,-0.386C0.094,-0.386 0.088,-0.38 0.088,-0.362C0.088,-0.359 0.089,-0.356 0.089,-0.351C0.091,-0.321 0.093,-0.237 0.093,-0.194C0.093,-0.151 0.085,-0.075 0.085,-0.038C0.085,-0.003 0.087,0.003 0.117,0.003C0.145,0.003 0.155,-0.01 0.155,-0.026C0.155,-0.028 0.154,-0.031 0.154,-0.033Z" style="fill-rule:nonzero;"/>
                </g>
                <g transform="matrix(66.6667,0,0,66.6667,1678.33,261.633)">
                    <path d="M0.443,-0.626C0.443,-0.634 0.442,-0.639 0.441,-0.641C0.437,-0.648 0.428,-0.648 0.41,-0.65C0.408,-0.65 0.406,-0.651 0.404,-0.651L0.397,-0.651C0.378,-0.651 0.374,-0.644 0.372,-0.636C0.371,-0.632 0.371,-0.628 0.371,-0.623L0.371,-0.611L0.374,-0.58C0.377,-0.535 0.378,-0.461 0.381,-0.42C0.382,-0.407 0.383,-0.397 0.383,-0.389C0.383,-0.37 0.379,-0.36 0.367,-0.35C0.362,-0.346 0.357,-0.344 0.352,-0.344C0.346,-0.344 0.34,-0.346 0.334,-0.349C0.325,-0.354 0.312,-0.363 0.296,-0.373C0.276,-0.386 0.252,-0.388 0.229,-0.388C0.219,-0.388 0.209,-0.387 0.2,-0.387C0.164,-0.386 0.113,-0.354 0.086,-0.324C0.061,-0.295 0.042,-0.232 0.042,-0.175C0.042,-0.119 0.072,-0.065 0.106,-0.033C0.14,-0.001 0.188,0.018 0.225,0.018C0.263,0.018 0.303,0.009 0.33,-0.022C0.344,-0.039 0.356,-0.045 0.363,-0.045C0.375,-0.045 0.381,-0.032 0.384,-0.016C0.385,-0.009 0.385,-0.005 0.389,-0.002C0.391,-0.001 0.393,-0.001 0.399,-0L0.421,0.003L0.426,0.003C0.438,0.003 0.44,-0.002 0.441,-0.008L0.441,-0.026L0.437,-0.049C0.433,-0.077 0.427,-0.201 0.427,-0.251L0.427,-0.265L0.433,-0.33C0.434,-0.344 0.435,-0.356 0.435,-0.368C0.435,-0.375 0.435,-0.381 0.434,-0.386C0.433,-0.392 0.432,-0.401 0.432,-0.412C0.432,-0.428 0.436,-0.466 0.436,-0.472L0.436,-0.481C0.437,-0.522 0.441,-0.566 0.441,-0.593C0.441,-0.606 0.442,-0.617 0.443,-0.626ZM0.377,-0.231C0.382,-0.216 0.385,-0.201 0.385,-0.188C0.385,-0.17 0.381,-0.152 0.373,-0.133C0.367,-0.116 0.359,-0.104 0.35,-0.093C0.342,-0.084 0.333,-0.076 0.325,-0.067C0.309,-0.051 0.28,-0.045 0.256,-0.045C0.251,-0.045 0.247,-0.045 0.244,-0.046L0.226,-0.046C0.221,-0.046 0.214,-0.046 0.206,-0.048C0.192,-0.052 0.176,-0.061 0.151,-0.081C0.127,-0.101 0.115,-0.119 0.11,-0.136C0.106,-0.144 0.106,-0.151 0.105,-0.159C0.105,-0.159 0.105,-0.16 0.103,-0.182L0.103,-0.189C0.103,-0.219 0.113,-0.257 0.136,-0.287C0.16,-0.318 0.18,-0.331 0.221,-0.331L0.233,-0.331C0.28,-0.33 0.316,-0.322 0.335,-0.301C0.351,-0.283 0.365,-0.265 0.377,-0.231Z" style="fill-rule:nonzero;"/>
                </g>
                <g transform="matrix(66.6667,0,0,66.6667,1712.87,261.633)">
                    <path d="M0.437,-0.197C0.437,-0.198 0.438,-0.199 0.438,-0.201C0.438,-0.202 0.437,-0.205 0.437,-0.208L0.433,-0.229C0.426,-0.261 0.391,-0.314 0.365,-0.345C0.339,-0.373 0.289,-0.39 0.247,-0.392L0.236,-0.392C0.193,-0.392 0.159,-0.371 0.124,-0.348L0.116,-0.343C0.078,-0.32 0.051,-0.244 0.049,-0.184L0.049,-0.181C0.049,-0.124 0.092,-0.061 0.126,-0.023C0.159,0.012 0.227,0.013 0.261,0.013C0.293,0.013 0.319,0.005 0.336,-0.004C0.343,-0.008 0.353,-0.016 0.365,-0.026C0.376,-0.036 0.388,-0.046 0.401,-0.056C0.411,-0.063 0.416,-0.071 0.416,-0.079C0.416,-0.088 0.411,-0.097 0.396,-0.109C0.391,-0.113 0.386,-0.115 0.383,-0.115C0.378,-0.115 0.375,-0.112 0.371,-0.109C0.364,-0.101 0.359,-0.091 0.355,-0.081C0.347,-0.063 0.307,-0.043 0.257,-0.043L0.249,-0.043C0.216,-0.044 0.188,-0.054 0.163,-0.074L0.148,-0.086C0.132,-0.1 0.116,-0.14 0.116,-0.165L0.116,-0.172C0.119,-0.184 0.143,-0.191 0.173,-0.192C0.198,-0.192 0.226,-0.191 0.241,-0.191C0.262,-0.191 0.32,-0.19 0.365,-0.19C0.388,-0.19 0.408,-0.19 0.419,-0.191C0.436,-0.191 0.437,-0.195 0.437,-0.197ZM0.366,-0.263C0.369,-0.258 0.37,-0.254 0.37,-0.25C0.37,-0.239 0.361,-0.232 0.343,-0.232C0.304,-0.232 0.261,-0.231 0.244,-0.231C0.226,-0.231 0.173,-0.232 0.162,-0.235C0.151,-0.236 0.127,-0.249 0.127,-0.267C0.127,-0.273 0.129,-0.279 0.134,-0.285C0.15,-0.307 0.194,-0.337 0.246,-0.337L0.25,-0.337C0.297,-0.335 0.313,-0.321 0.336,-0.299C0.346,-0.289 0.36,-0.276 0.366,-0.263Z" style="fill-rule:nonzero;"/>
                </g>
                <g transform="matrix(66.6667,0,0,66.6667,1761.27,261.633)">
                    <path d="M0.166,-0.514C0.165,-0.541 0.141,-0.566 0.116,-0.569L0.109,-0.569C0.083,-0.569 0.065,-0.553 0.063,-0.53C0.064,-0.499 0.091,-0.474 0.12,-0.474C0.15,-0.474 0.162,-0.491 0.166,-0.514ZM0.154,-0.033C0.151,-0.056 0.142,-0.143 0.142,-0.186C0.142,-0.206 0.141,-0.226 0.141,-0.247C0.141,-0.274 0.142,-0.302 0.145,-0.336C0.145,-0.342 0.146,-0.347 0.146,-0.352C0.146,-0.384 0.136,-0.386 0.12,-0.386C0.094,-0.386 0.088,-0.38 0.088,-0.362C0.088,-0.359 0.089,-0.356 0.089,-0.351C0.091,-0.321 0.093,-0.237 0.093,-0.194C0.093,-0.151 0.085,-0.075 0.085,-0.038C0.085,-0.003 0.087,0.003 0.117,0.003C0.145,0.003 0.155,-0.01 0.155,-0.026C0.155,-0.028 0.154,-0.031 0.154,-0.033Z" style="fill-rule:nonzero;"/>
                </g>
                <g transform="matrix(66.6667,0,0,66.6667,1777.6,261.633)">
                    <path d="M0.604,-0.019C0.604,-0.026 0.603,-0.034 0.601,-0.042L0.597,-0.067C0.593,-0.094 0.589,-0.164 0.589,-0.22L0.589,-0.261C0.589,-0.306 0.581,-0.328 0.564,-0.351C0.544,-0.376 0.511,-0.386 0.486,-0.386C0.461,-0.386 0.446,-0.38 0.426,-0.368C0.417,-0.363 0.408,-0.356 0.401,-0.349C0.391,-0.34 0.379,-0.333 0.375,-0.331L0.368,-0.331C0.356,-0.331 0.343,-0.337 0.327,-0.358C0.311,-0.38 0.289,-0.388 0.263,-0.388L0.251,-0.388C0.246,-0.388 0.239,-0.388 0.233,-0.386C0.225,-0.383 0.215,-0.377 0.196,-0.363C0.182,-0.352 0.173,-0.348 0.166,-0.348C0.161,-0.348 0.157,-0.351 0.155,-0.354C0.152,-0.357 0.151,-0.362 0.15,-0.367L0.149,-0.373C0.149,-0.374 0.148,-0.376 0.148,-0.376C0.145,-0.386 0.131,-0.386 0.113,-0.386C0.099,-0.386 0.084,-0.378 0.084,-0.361C0.084,-0.336 0.09,-0.255 0.09,-0.215C0.09,-0.176 0.088,-0.107 0.084,-0.056C0.083,-0.047 0.083,-0.04 0.083,-0.033C0.083,-0.003 0.091,0.004 0.121,0.004C0.146,0.004 0.152,-0.006 0.152,-0.023C0.152,-0.03 0.151,-0.038 0.15,-0.047C0.145,-0.075 0.141,-0.137 0.141,-0.182L0.141,-0.204C0.144,-0.248 0.156,-0.273 0.173,-0.296C0.189,-0.318 0.223,-0.335 0.247,-0.335L0.252,-0.335C0.276,-0.332 0.295,-0.321 0.304,-0.305C0.313,-0.289 0.316,-0.264 0.316,-0.209C0.316,-0.159 0.309,-0.086 0.305,-0.046C0.304,-0.039 0.302,-0.029 0.302,-0.024C0.302,-0 0.313,0.011 0.346,0.011C0.366,0.011 0.371,0.005 0.373,0.002C0.375,-0.001 0.375,-0.004 0.375,-0.007C0.375,-0.011 0.374,-0.015 0.374,-0.019C0.372,-0.035 0.362,-0.133 0.362,-0.178C0.362,-0.225 0.379,-0.271 0.389,-0.291C0.401,-0.315 0.446,-0.327 0.464,-0.329L0.471,-0.329C0.489,-0.329 0.506,-0.321 0.526,-0.303C0.536,-0.291 0.541,-0.277 0.543,-0.26C0.544,-0.253 0.544,-0.246 0.544,-0.238C0.544,-0.226 0.543,-0.211 0.543,-0.193C0.541,-0.136 0.533,-0.091 0.527,-0.038C0.526,-0.031 0.526,-0.026 0.526,-0.021C0.526,0.002 0.534,0.009 0.554,0.009C0.561,0.009 0.569,0.009 0.579,0.007C0.599,0.004 0.603,-0.006 0.604,-0.019Z" style="fill-rule:nonzero;"/>
                </g>
                <g transform="matrix(66.6667,0,0,66.6667,1822.93,261.633)">
                    <path d="M0.471,-0.196L0.471,-0.204C0.471,-0.257 0.44,-0.304 0.414,-0.336C0.389,-0.366 0.332,-0.389 0.283,-0.391C0.237,-0.391 0.194,-0.362 0.165,-0.333C0.157,-0.326 0.151,-0.322 0.146,-0.322C0.141,-0.322 0.137,-0.325 0.135,-0.328C0.132,-0.332 0.131,-0.341 0.131,-0.353L0.131,-0.366C0.131,-0.38 0.124,-0.381 0.101,-0.383L0.097,-0.383C0.079,-0.383 0.074,-0.371 0.074,-0.356C0.074,-0.346 0.076,-0.336 0.077,-0.328C0.08,-0.306 0.082,-0.178 0.082,-0.101C0.082,-0.078 0.082,-0.061 0.081,-0.05C0.079,-0.001 0.077,0.129 0.073,0.166C0.073,0.169 0.072,0.17 0.072,0.172C0.072,0.193 0.086,0.2 0.105,0.2C0.107,0.2 0.11,0.199 0.113,0.199C0.138,0.198 0.146,0.189 0.146,0.184L0.146,0.179C0.146,0.172 0.146,0.163 0.145,0.151C0.143,0.137 0.141,0.12 0.141,0.107C0.14,0.1 0.14,0.093 0.14,0.084L0.14,0.069C0.14,0.049 0.14,0.029 0.136,0.006C0.135,-0.003 0.134,-0.011 0.134,-0.017C0.134,-0.04 0.141,-0.05 0.157,-0.052L0.161,-0.052C0.169,-0.052 0.176,-0.046 0.181,-0.041C0.188,-0.035 0.193,-0.027 0.198,-0.02C0.208,-0.007 0.218,0.004 0.29,0.004C0.325,0.004 0.346,-0.002 0.364,-0.012C0.372,-0.017 0.381,-0.023 0.389,-0.03L0.417,-0.052C0.455,-0.081 0.471,-0.138 0.471,-0.196ZM0.415,-0.188L0.412,-0.148C0.408,-0.111 0.398,-0.095 0.366,-0.072C0.346,-0.057 0.333,-0.051 0.321,-0.047C0.315,-0.046 0.309,-0.046 0.302,-0.046C0.301,-0.046 0.298,-0.045 0.296,-0.045C0.291,-0.045 0.287,-0.046 0.281,-0.046C0.248,-0.046 0.216,-0.05 0.185,-0.075C0.153,-0.1 0.133,-0.147 0.133,-0.198C0.133,-0.25 0.156,-0.291 0.193,-0.315C0.202,-0.32 0.209,-0.325 0.216,-0.328L0.233,-0.336C0.245,-0.341 0.256,-0.341 0.274,-0.341C0.315,-0.341 0.349,-0.325 0.368,-0.303C0.372,-0.298 0.378,-0.293 0.383,-0.286C0.389,-0.28 0.395,-0.272 0.4,-0.263C0.408,-0.247 0.415,-0.226 0.415,-0.201L0.415,-0.188Z" style="fill-rule:nonzero;"/>
                </g>
                <g transform="matrix(66.6667,0,0,66.6667,1858.27,261.633)">
                    <path d="M0.308,-0.38C0.301,-0.383 0.277,-0.391 0.25,-0.391C0.223,-0.391 0.186,-0.367 0.173,-0.342C0.17,-0.336 0.166,-0.33 0.161,-0.327C0.158,-0.326 0.156,-0.326 0.155,-0.326C0.15,-0.326 0.146,-0.329 0.144,-0.332C0.141,-0.338 0.14,-0.346 0.14,-0.354L0.14,-0.361C0.14,-0.378 0.122,-0.385 0.109,-0.385C0.084,-0.385 0.081,-0.377 0.08,-0.372C0.08,-0.371 0.079,-0.37 0.079,-0.368C0.079,-0.365 0.08,-0.36 0.081,-0.355C0.082,-0.348 0.083,-0.34 0.084,-0.333C0.086,-0.3 0.086,-0.226 0.086,-0.182C0.086,-0.139 0.084,-0.094 0.077,-0.036C0.076,-0.026 0.076,-0.018 0.076,-0.013C0.076,-0.007 0.077,-0.004 0.081,-0.002C0.083,-0.001 0.087,-0.001 0.096,-0.001C0.104,-0.002 0.114,-0.003 0.126,-0.003C0.151,-0.003 0.157,-0.02 0.157,-0.039C0.157,-0.053 0.153,-0.069 0.151,-0.081C0.147,-0.101 0.146,-0.138 0.146,-0.175C0.146,-0.195 0.146,-0.214 0.147,-0.231C0.15,-0.285 0.186,-0.315 0.22,-0.323C0.233,-0.326 0.242,-0.327 0.251,-0.327C0.263,-0.327 0.271,-0.325 0.284,-0.32C0.286,-0.32 0.289,-0.317 0.291,-0.317C0.294,-0.317 0.295,-0.318 0.296,-0.321C0.298,-0.322 0.3,-0.326 0.301,-0.331C0.304,-0.336 0.306,-0.342 0.308,-0.349C0.311,-0.359 0.313,-0.366 0.313,-0.37C0.313,-0.375 0.311,-0.378 0.308,-0.38Z" style="fill-rule:nonzero;"/>
                </g>
                <g transform="matrix(66.6667,0,0,66.6667,1880.33,261.633)">
                    <path d="M0.458,-0.18L0.458,-0.185C0.458,-0.253 0.426,-0.304 0.396,-0.336C0.366,-0.367 0.317,-0.392 0.261,-0.394L0.256,-0.394C0.165,-0.394 0.125,-0.356 0.096,-0.326C0.066,-0.296 0.043,-0.251 0.043,-0.187C0.043,-0.123 0.081,-0.061 0.112,-0.033C0.142,-0.006 0.187,0.014 0.245,0.014L0.251,0.014C0.313,0.012 0.361,0.004 0.404,-0.042C0.447,-0.09 0.458,-0.107 0.458,-0.18ZM0.401,-0.191C0.401,-0.153 0.387,-0.101 0.362,-0.082C0.356,-0.079 0.35,-0.074 0.342,-0.069C0.317,-0.052 0.289,-0.039 0.259,-0.039C0.255,-0.039 0.251,-0.039 0.246,-0.04C0.198,-0.046 0.175,-0.056 0.146,-0.09C0.117,-0.122 0.108,-0.148 0.108,-0.189C0.108,-0.229 0.115,-0.267 0.155,-0.297C0.194,-0.326 0.225,-0.33 0.257,-0.33C0.308,-0.33 0.345,-0.316 0.366,-0.279C0.376,-0.262 0.385,-0.251 0.391,-0.238C0.396,-0.225 0.401,-0.211 0.401,-0.191Z" style="fill-rule:nonzero;"/>
                </g>
                <g transform="matrix(66.6667,0,0,66.6667,1913.47,261.633)">
                    <path d="M0.386,-0.381C0.386,-0.381 0.382,-0.382 0.377,-0.383L0.361,-0.383C0.343,-0.383 0.331,-0.376 0.326,-0.356C0.323,-0.342 0.317,-0.327 0.311,-0.312L0.291,-0.269C0.285,-0.255 0.276,-0.237 0.267,-0.217C0.259,-0.198 0.251,-0.177 0.246,-0.159C0.235,-0.114 0.224,-0.1 0.211,-0.097C0.197,-0.097 0.19,-0.116 0.187,-0.126L0.182,-0.146L0.176,-0.163C0.166,-0.182 0.146,-0.233 0.133,-0.266L0.094,-0.361C0.086,-0.38 0.076,-0.382 0.048,-0.385L0.042,-0.385C0.028,-0.385 0.024,-0.38 0.024,-0.372C0.024,-0.371 0.025,-0.369 0.025,-0.367C0.027,-0.353 0.038,-0.332 0.05,-0.313C0.074,-0.276 0.087,-0.241 0.105,-0.206C0.123,-0.17 0.154,-0.105 0.172,-0.05C0.19,0.005 0.213,0.02 0.221,0.02C0.233,0.02 0.245,-0.031 0.251,-0.056C0.256,-0.07 0.266,-0.093 0.276,-0.116C0.286,-0.139 0.296,-0.161 0.301,-0.173C0.305,-0.186 0.319,-0.216 0.335,-0.248C0.351,-0.281 0.369,-0.318 0.381,-0.346C0.386,-0.36 0.389,-0.369 0.389,-0.374C0.389,-0.379 0.387,-0.38 0.386,-0.381Z" style="fill-rule:nonzero;"/>
                </g>
                <g transform="matrix(66.6667,0,0,66.6667,1941.2,261.633)">
                    <path d="M0.166,-0.514C0.165,-0.541 0.141,-0.566 0.116,-0.569L0.109,-0.569C0.083,-0.569 0.065,-0.553 0.063,-0.53C0.064,-0.499 0.091,-0.474 0.12,-0.474C0.15,-0.474 0.162,-0.491 0.166,-0.514ZM0.154,-0.033C0.151,-0.056 0.142,-0.143 0.142,-0.186C0.142,-0.206 0.141,-0.226 0.141,-0.247C0.141,-0.274 0.142,-0.302 0.145,-0.336C0.145,-0.342 0.146,-0.347 0.146,-0.352C0.146,-0.384 0.136,-0.386 0.12,-0.386C0.094,-0.386 0.088,-0.38 0.088,-0.362C0.088,-0.359 0.089,-0.356 0.089,-0.351C0.091,-0.321 0.093,-0.237 0.093,-0.194C0.093,-0.151 0.085,-0.075 0.085,-0.038C0.085,-0.003 0.087,0.003 0.117,0.003C0.145,0.003 0.155,-0.01 0.155,-0.026C0.155,-0.028 0.154,-0.031 0.154,-0.033Z" style="fill-rule:nonzero;"/>
                </g>
                <g transform="matrix(66.6667,0,0,66.6667,1957.53,261.633)">
                    <path d="M0.296,-0.114C0.296,-0.146 0.274,-0.17 0.254,-0.19C0.238,-0.206 0.177,-0.239 0.156,-0.249C0.133,-0.259 0.111,-0.276 0.111,-0.301C0.111,-0.326 0.131,-0.336 0.156,-0.336L0.165,-0.336C0.197,-0.335 0.214,-0.324 0.238,-0.304C0.246,-0.297 0.25,-0.296 0.252,-0.296C0.255,-0.296 0.257,-0.298 0.259,-0.3L0.266,-0.308C0.268,-0.311 0.271,-0.314 0.272,-0.317C0.275,-0.321 0.276,-0.325 0.276,-0.328C0.276,-0.332 0.275,-0.336 0.271,-0.341C0.257,-0.356 0.216,-0.384 0.156,-0.386L0.149,-0.386C0.132,-0.386 0.123,-0.384 0.116,-0.381C0.108,-0.377 0.102,-0.371 0.096,-0.365C0.082,-0.354 0.065,-0.334 0.063,-0.311C0.063,-0.307 0.062,-0.303 0.062,-0.3C0.062,-0.277 0.067,-0.258 0.081,-0.24C0.097,-0.218 0.133,-0.196 0.171,-0.18C0.211,-0.164 0.249,-0.133 0.249,-0.1C0.249,-0.066 0.221,-0.046 0.177,-0.043C0.174,-0.043 0.171,-0.042 0.169,-0.042C0.126,-0.042 0.096,-0.078 0.089,-0.092C0.087,-0.099 0.079,-0.103 0.073,-0.103C0.069,-0.103 0.063,-0.101 0.056,-0.1C0.041,-0.096 0.036,-0.084 0.036,-0.072C0.036,-0.068 0.036,-0.063 0.039,-0.059C0.046,-0.046 0.072,-0.026 0.096,-0.011C0.118,0.001 0.157,0.009 0.184,0.009C0.208,0.009 0.237,-0.009 0.263,-0.026C0.285,-0.041 0.295,-0.081 0.296,-0.114Z" style="fill-rule:nonzero;"/>
                </g>
                <g transform="matrix(66.6667,0,0,66.6667,1979.6,261.633)">
                    <path d="M0.306,-0.002C0.314,-0.007 0.321,-0.013 0.326,-0.018C0.331,-0.024 0.336,-0.029 0.341,-0.032C0.347,-0.038 0.354,-0.041 0.361,-0.041C0.371,-0.041 0.38,-0.033 0.38,-0.021C0.38,-0.018 0.38,-0.015 0.379,-0.012C0.379,-0.011 0.378,-0.01 0.378,-0.009C0.378,-0 0.388,0.001 0.416,0.003L0.421,0.003C0.436,0.003 0.439,-0.001 0.441,-0.005L0.441,-0.202C0.441,-0.235 0.44,-0.27 0.44,-0.302C0.44,-0.318 0.44,-0.333 0.441,-0.347L0.441,-0.352C0.441,-0.378 0.428,-0.379 0.411,-0.379L0.401,-0.379C0.389,-0.379 0.383,-0.378 0.383,-0.371C0.383,-0.366 0.384,-0.362 0.384,-0.359C0.384,-0.343 0.378,-0.329 0.366,-0.325C0.364,-0.324 0.363,-0.324 0.361,-0.324C0.354,-0.324 0.345,-0.329 0.336,-0.337C0.327,-0.345 0.32,-0.354 0.312,-0.362C0.301,-0.376 0.26,-0.388 0.222,-0.388C0.166,-0.388 0.102,-0.352 0.071,-0.309C0.049,-0.277 0.041,-0.227 0.037,-0.186L0.037,-0.178C0.037,-0.139 0.06,-0.076 0.085,-0.045C0.111,-0.012 0.155,0.018 0.229,0.018C0.265,0.018 0.289,0.009 0.306,-0.002ZM0.383,-0.186C0.38,-0.144 0.366,-0.094 0.331,-0.068C0.304,-0.047 0.283,-0.042 0.252,-0.042C0.246,-0.042 0.24,-0.043 0.232,-0.043C0.187,-0.046 0.149,-0.066 0.133,-0.092C0.12,-0.116 0.111,-0.147 0.111,-0.182L0.111,-0.191C0.113,-0.227 0.128,-0.288 0.147,-0.302C0.161,-0.313 0.204,-0.331 0.24,-0.331C0.246,-0.331 0.252,-0.331 0.258,-0.33L0.281,-0.325C0.285,-0.325 0.285,-0.324 0.286,-0.324C0.292,-0.322 0.301,-0.321 0.307,-0.318C0.325,-0.312 0.342,-0.301 0.355,-0.279L0.37,-0.253C0.371,-0.246 0.377,-0.239 0.38,-0.233C0.383,-0.225 0.385,-0.216 0.385,-0.206C0.385,-0.2 0.384,-0.193 0.383,-0.186Z" style="fill-rule:nonzero;"/>
                </g>
                <g transform="matrix(66.6667,0,0,66.6667,2014.13,261.633)">
                    <path d="M0.253,-0.356C0.253,-0.364 0.249,-0.367 0.241,-0.37C0.236,-0.371 0.23,-0.371 0.224,-0.371C0.217,-0.371 0.211,-0.372 0.204,-0.372L0.187,-0.374C0.182,-0.374 0.178,-0.375 0.174,-0.376C0.165,-0.379 0.159,-0.386 0.159,-0.396C0.159,-0.41 0.159,-0.434 0.161,-0.473L0.161,-0.477C0.161,-0.492 0.158,-0.497 0.155,-0.499C0.15,-0.503 0.14,-0.503 0.134,-0.503L0.131,-0.503C0.116,-0.503 0.107,-0.491 0.106,-0.485C0.106,-0.484 0.105,-0.482 0.105,-0.481C0.105,-0.476 0.106,-0.468 0.107,-0.458C0.109,-0.445 0.111,-0.428 0.111,-0.411L0.111,-0.406C0.111,-0.388 0.103,-0.378 0.09,-0.375C0.086,-0.374 0.082,-0.374 0.078,-0.374C0.071,-0.374 0.062,-0.375 0.055,-0.375C0.041,-0.375 0.033,-0.366 0.03,-0.336C0.03,-0.335 0.029,-0.334 0.029,-0.333C0.029,-0.327 0.033,-0.325 0.041,-0.323C0.046,-0.322 0.051,-0.322 0.056,-0.322C0.061,-0.322 0.066,-0.323 0.07,-0.323C0.086,-0.323 0.107,-0.311 0.107,-0.289C0.107,-0.273 0.11,-0.238 0.11,-0.193C0.11,-0.148 0.104,-0.062 0.104,-0.023C0.104,-0.004 0.107,0.001 0.11,0.003L0.118,0.005L0.136,0.005C0.161,0.005 0.169,0.002 0.169,-0.011L0.169,-0.018C0.166,-0.046 0.161,-0.118 0.16,-0.16C0.159,-0.174 0.158,-0.191 0.158,-0.208C0.158,-0.241 0.16,-0.275 0.161,-0.297C0.162,-0.319 0.175,-0.328 0.191,-0.329L0.194,-0.329C0.206,-0.329 0.217,-0.326 0.229,-0.325L0.233,-0.325C0.246,-0.325 0.253,-0.332 0.253,-0.356Z" style="fill-rule:nonzero;"/>
                </g>
                <g transform="matrix(66.6667,0,0,66.6667,2033.07,261.633)">
                    <path d="M0.166,-0.514C0.165,-0.541 0.141,-0.566 0.116,-0.569L0.109,-0.569C0.083,-0.569 0.065,-0.553 0.063,-0.53C0.064,-0.499 0.091,-0.474 0.12,-0.474C0.15,-0.474 0.162,-0.491 0.166,-0.514ZM0.154,-0.033C0.151,-0.056 0.142,-0.143 0.142,-0.186C0.142,-0.206 0.141,-0.226 0.141,-0.247C0.141,-0.274 0.142,-0.302 0.145,-0.336C0.145,-0.342 0.146,-0.347 0.146,-0.352C0.146,-0.384 0.136,-0.386 0.12,-0.386C0.094,-0.386 0.088,-0.38 0.088,-0.362C0.088,-0.359 0.089,-0.356 0.089,-0.351C0.091,-0.321 0.093,-0.237 0.093,-0.194C0.093,-0.151 0.085,-0.075 0.085,-0.038C0.085,-0.003 0.087,0.003 0.117,0.003C0.145,0.003 0.155,-0.01 0.155,-0.026C0.155,-0.028 0.154,-0.031 0.154,-0.033Z" style="fill-rule:nonzero;"/>
                </g>
                <g transform="matrix(66.6667,0,0,66.6667,2049.4,261.633)">
                    <path d="M0.458,-0.18L0.458,-0.185C0.458,-0.253 0.426,-0.304 0.396,-0.336C0.366,-0.367 0.317,-0.392 0.261,-0.394L0.256,-0.394C0.165,-0.394 0.125,-0.356 0.096,-0.326C0.066,-0.296 0.043,-0.251 0.043,-0.187C0.043,-0.123 0.081,-0.061 0.112,-0.033C0.142,-0.006 0.187,0.014 0.245,0.014L0.251,0.014C0.313,0.012 0.361,0.004 0.404,-0.042C0.447,-0.09 0.458,-0.107 0.458,-0.18ZM0.401,-0.191C0.401,-0.153 0.387,-0.101 0.362,-0.082C0.356,-0.079 0.35,-0.074 0.342,-0.069C0.317,-0.052 0.289,-0.039 0.259,-0.039C0.255,-0.039 0.251,-0.039 0.246,-0.04C0.198,-0.046 0.175,-0.056 0.146,-0.09C0.117,-0.122 0.108,-0.148 0.108,-0.189C0.108,-0.229 0.115,-0.267 0.155,-0.297C0.194,-0.326 0.225,-0.33 0.257,-0.33C0.308,-0.33 0.345,-0.316 0.366,-0.279C0.376,-0.262 0.385,-0.251 0.391,-0.238C0.396,-0.225 0.401,-0.211 0.401,-0.191Z" style="fill-rule:nonzero;"/>
                </g>
                <g transform="matrix(66.6667,0,0,66.6667,2082.53,261.633)">
                    <path d="M0.411,-0.05C0.408,-0.076 0.405,-0.158 0.405,-0.216C0.405,-0.228 0.406,-0.24 0.406,-0.249L0.406,-0.253C0.406,-0.299 0.382,-0.339 0.368,-0.356C0.354,-0.374 0.324,-0.391 0.285,-0.392L0.278,-0.392C0.245,-0.392 0.225,-0.38 0.191,-0.348C0.177,-0.335 0.166,-0.331 0.159,-0.33C0.153,-0.33 0.15,-0.333 0.148,-0.336C0.146,-0.341 0.145,-0.347 0.145,-0.353C0.145,-0.359 0.145,-0.364 0.146,-0.369C0.146,-0.386 0.13,-0.389 0.118,-0.389C0.107,-0.389 0.088,-0.388 0.084,-0.379C0.083,-0.376 0.082,-0.372 0.082,-0.367C0.083,-0.361 0.084,-0.356 0.084,-0.349C0.086,-0.321 0.098,-0.258 0.098,-0.217C0.098,-0.176 0.096,-0.126 0.088,-0.06C0.086,-0.048 0.086,-0.039 0.086,-0.031C0.086,-0.002 0.096,0.004 0.119,0.004C0.122,0.004 0.126,0.003 0.131,0.003C0.151,0.002 0.155,-0.004 0.156,-0.007L0.156,-0.014C0.156,-0.021 0.155,-0.029 0.154,-0.034C0.15,-0.056 0.146,-0.136 0.146,-0.171C0.146,-0.204 0.151,-0.259 0.172,-0.288C0.194,-0.318 0.227,-0.335 0.257,-0.335L0.271,-0.335C0.277,-0.335 0.284,-0.335 0.29,-0.333C0.301,-0.331 0.311,-0.325 0.325,-0.314C0.342,-0.301 0.349,-0.284 0.352,-0.263C0.354,-0.251 0.354,-0.237 0.354,-0.222L0.354,-0.19C0.354,-0.133 0.346,-0.101 0.342,-0.045C0.342,-0.041 0.341,-0.036 0.341,-0.033C0.341,0.004 0.358,0.005 0.388,0.005C0.409,0.005 0.414,-0.006 0.414,-0.022C0.414,-0.031 0.412,-0.041 0.411,-0.05Z" style="fill-rule:nonzero;"/>
                </g>
            </g>
            <g transform="matrix(1,0,0,1,1158.34,1574.92)">
                <g transform="matrix(0.986121,0,0,1,-77.2788,0)">
                    <path d="M124.016,173.622L425.196,173.622" style="fill:none;fill-rule:nonzero;stroke:black;stroke-width:2.73px;stroke-linecap:butt;stroke-linejoin:bevel;stroke-miterlimit:4;"/>
                </g>
                <g transform="matrix(0.986121,0,0,1,-77.2788,0)">
                    <path d="M124.016,198.425L425.196,198.425" style="fill:none;fill-rule:nonzero;stroke:black;stroke-width:2.73px;stroke-linecap:butt;stroke-linejoin:bevel;stroke-miterlimit:4;"/>
                </g>
                <g transform="matrix(0.986121,0,0,1,-77.2788,0)">
                    <path d="M124.016,223.228L425.196,223.228" style="fill:none;fill-rule:nonzero;stroke:black;stroke-width:2.73px;stroke-linecap:butt;stroke-linejoin:bevel;stroke-miterlimit:4;"/>
                </g>
                <g transform="matrix(0.986121,0,0,1,-77.2788,0)">
                    <path d="M124.016,248.031L425.196,248.031" style="fill:none;fill-rule:nonzero;stroke:black;stroke-width:2.73px;stroke-linecap:butt;stroke-linejoin:bevel;stroke-miterlimit:4;"/>
                </g>
                <g transform="matrix(0.986121,0,0,1,-77.2788,0)">
                    <path d="M124.016,272.835L425.196,272.835" style="fill:none;fill-rule:nonzero;stroke:black;stroke-width:2.73px;stroke-linecap:butt;stroke-linejoin:bevel;stroke-miterlimit:4;"/>
                </g>
                <g transform="matrix(0.992126,0,0,0.992126,271.393,197.827)">
                    <path d="M31.5,-8.094C29.703,-11.406 25.906,-13.203 21.297,-13.203C17.906,-13.203 14.203,-12.203 10.594,-10.297C4,-6.797 0,-0.906 0,4.203C0,5.594 0.297,7 1,8.297C2.797,11.594 6.594,13.297 11.203,13.297C14.594,13.297 18.297,12.406 21.906,10.5C28.5,7 32.5,1.094 32.5,-4C32.5,-5.406 32.203,-6.797 31.5,-8.094" style="fill-rule:nonzero;"/>
                </g>
                <g transform="matrix(0.992126,0,0,0.992126,270.66,270.183)">
                    <path d="M31.5,-8.094C29.703,-11.406 25.906,-13.203 21.297,-13.203C17.906,-13.203 14.203,-12.203 10.594,-10.297C4,-6.797 0,-0.906 0,4.203C0,5.594 0.297,7 1,8.297C2.797,11.594 6.594,13.297 11.203,13.297C14.594,13.297 18.297,12.406 21.906,10.5C28.5,7 32.5,1.094 32.5,-4C32.5,-5.406 32.203,-6.797 31.5,-8.094" style="fill-rule:nonzero;"/>
                </g>
                <g transform="matrix(0.992126,0,0,0.992126,271.393,224.704)">
                    <path d="M31.5,-8.094C29.703,-11.406 25.906,-13.203 21.297,-13.203C17.906,-13.203 14.203,-12.203 10.594,-10.297C4,-6.797 0,-0.906 0,4.203C0,5.594 0.297,7 1,8.297C2.797,11.594 6.594,13.297 11.203,13.297C14.594,13.297 18.297,12.406 21.906,10.5C28.5,7 32.5,1.094 32.5,-4C32.5,-5.406 32.203,-6.797 31.5,-8.094" style="fill-rule:nonzero;"/>
                </g>
                <g transform="matrix(0.992126,0,0,0.992126,270.66,163.183)">
                    <path d="M31.5,-8.094C29.703,-11.406 25.906,-13.203 21.297,-13.203C17.906,-13.203 14.203,-12.203 10.594,-10.297C4,-6.797 0,-0.906 0,4.203C0,5.594 0.297,7 1,8.297C2.797,11.594 6.594,13.297 11.203,13.297C14.594,13.297 18.297,12.406 21.906,10.5C28.5,7 32.5,1.094 32.5,-4C32.5,-5.406 32.203,-6.797 31.5,-8.094" style="fill-rule:nonzero;"/>
                </g>
                <g transform="matrix(1.01559,0,0,1.01559,67.016,245.085)">
                    <path d="M63.359,-5.922C62.125,-11.344 59.484,-15.172 58.703,-16.203C55.516,-20.484 51.5,-23.328 46.813,-24.688C43.703,-25.563 40.703,-25.688 38.281,-25.5C37.234,-31.516 36.234,-37.391 35.328,-42.844C40.781,-49.016 44.406,-54.813 46.688,-59.109C50.156,-65.688 51.297,-70.266 51.359,-70.469C53.078,-75.688 53.438,-83.391 52.328,-91.594C51.328,-99.141 49.234,-105.859 46.875,-109.109C45.859,-110.531 44.797,-111.266 43.766,-111.266C42.547,-111.266 40.031,-110.031 37.141,-107.25C34.844,-105.063 31.578,-101.172 29.016,-95.156C26.016,-88.094 25.797,-78.609 26.156,-71.891C26.531,-64.609 27.641,-58.922 27.656,-58.875C27.672,-58.781 27.938,-57.281 28.375,-54.719C28.156,-54.484 27.906,-54.266 27.656,-54.016C26.625,-53.016 25.438,-51.891 24.047,-50.5C23.188,-49.641 22.234,-48.734 21.234,-47.766C12.797,-39.625 0,-27.297 0,-8.141C0,-3.438 0.906,0.984 2.688,5C4.266,8.594 6.563,11.875 9.5,14.75C17.234,22.313 27.828,25.516 34.875,25.359C37.828,25.281 40.469,25.047 42.859,24.594C44.688,34.203 45.828,41.234 45.859,46.578C45.906,53.094 44.25,57.078 40.359,59.844C37.922,61.578 35.109,62.531 32.016,62.672C29.422,62.797 27.156,62.328 25.734,61.922L25.719,61.922C25.719,61.922 25.438,61.828 25.422,61.641C25.406,61.453 25.766,61.406 25.766,61.406L25.797,61.406C27.719,60.969 31.281,59.734 33.641,56.438C35.438,53.906 36.313,49.281 34.469,45.344C33.359,42.953 30.859,40 25.234,39.547C22.734,39.344 20.469,39.859 18.469,41.063C16.656,42.141 15.156,43.781 14.109,45.781C11.656,50.484 12.109,56.219 15.234,60.063C18.203,63.688 22.813,66 28.25,66.578C29.109,66.672 29.953,66.703 30.797,66.703C35.234,66.703 39.625,65.5 43.203,63.297C46.859,60.719 48.984,56.734 49.656,51.109C50.219,46.469 49.828,40.547 48.438,32.469C48.078,30.375 47.531,27.344 46.875,23.594C52.625,21.672 56.781,18.094 60.547,12.234C63.844,6.5 64.781,0.391 63.359,-5.922M29.141,20.297C24.5,19.078 20.063,16.578 16.313,13.063C15,11.844 13.125,9.672 11.656,6.281C10.297,3.109 9.625,-0.328 9.688,-3.906C9.75,-8.609 11.063,-13.438 13.563,-18.219C16.484,-23.797 21.047,-29.328 27.109,-34.656C28.563,-35.938 29.938,-37.219 31.219,-38.5C31.984,-34.234 32.813,-29.547 33.688,-24.672C29.844,-23.406 25.094,-20.25 21.984,-14.594C18.438,-8.031 18.578,-2.5 19.313,0.984C20.25,5.438 22.781,9.203 26.234,11.297C27.172,11.859 31.297,13.984 33.141,13.406C33.516,13.297 33.781,13.063 33.922,12.734C34.438,11.563 33.406,10.922 31.859,9.969C31.25,9.594 30.578,9.172 29.859,8.641C26.531,6.156 25.078,1.703 26.156,-2.688C26.734,-5.078 28.016,-7.25 29.859,-8.953C31.516,-10.5 33.563,-11.594 35.938,-12.234C37.984,-0.984 40.047,10.172 41.688,18.531C41.813,19.219 41.953,19.891 42.078,20.563C37.703,21.5 33.359,21.406 29.141,20.297M40.469,-12.906C50.813,-13.375 55.078,-5.938 55.969,-1.109C56.438,1.438 56.438,5.875 54.891,10.094C53.719,13.266 51.266,17.344 46.125,19.406C46.063,18.984 45.984,18.547 45.906,18.125C44.359,9.344 42.422,-1.656 40.469,-12.906M33.141,-83.859C34.922,-89.594 37.656,-92.844 39.656,-94.578C41.406,-96.094 43.047,-96.813 43.969,-96.813C44.109,-96.813 44.234,-96.781 44.328,-96.75C44.797,-96.609 45.328,-96.047 45.797,-95.172C48.109,-90.891 47.359,-84.172 46.016,-79.734C44.391,-74.328 41.469,-68.719 32.672,-59.109C32.5,-60.219 32.344,-61.266 32.188,-62.25C30.938,-70.531 31.266,-77.813 33.141,-83.859" style="fill-opacity:0.05;fill-rule:nonzero;"/>
                </g>
            </g>
        </g>
    </g>
</svg>
