<?xml version="1.0" encoding="UTF-8" standalone="no"?>
<!DOCTYPE svg PUBLIC "-//W3C//DTD SVG 1.1//EN" "http://www.w3.org/Graphics/SVG/1.1/DTD/svg11.dtd">
<svg width="100%" height="100%" viewBox="0 0 406 528" version="1.1" xmlns="http://www.w3.org/2000/svg" xmlns:xlink="http://www.w3.org/1999/xlink" xml:space="preserve" xmlns:serif="http://www.serif.com/" style="fill-rule:evenodd;clip-rule:evenodd;stroke-linejoin:round;stroke-miterlimit:2;">
  <rect id="L3-2" x="0.185" y="-0.001" width="405.12" height="528" style="fill:none;"/>
	<a href="L3-3.svg">
  <circle cx="364.793" cy="491.039" r="17.4" style="fill:#ff9447;"/>
	</a>
  <g transform="matrix(0.24,0,0,0.24,99.3872,130.1)">
    <g transform="matrix(208.333,0,0,208.333,260.971,293.642)">
      <path d="M0.296,-0.114c0,-0.032 -0.022,-0.056 -0.042,-0.076c-0.016,-0.016 -0.077,-0.049 -0.098,-0.059c-0.023,-0.01 -0.045,-0.027 -0.045,-0.052c0,-0.025 0.02,-0.035 0.045,-0.035l0.009,-0c0.032,0.001 0.049,0.012 0.073,0.032c0.008,0.007 0.012,0.008 0.014,0.008c0.003,-0 0.005,-0.002 0.007,-0.004l0.007,-0.008c0.002,-0.003 0.005,-0.006 0.006,-0.009c0.003,-0.004 0.004,-0.008 0.004,-0.011c0,-0.004 -0.001,-0.008 -0.005,-0.013c-0.014,-0.015 -0.055,-0.043 -0.115,-0.045l-0.007,-0c-0.017,-0 -0.026,0.002 -0.033,0.005c-0.008,0.004 -0.014,0.01 -0.02,0.016c-0.014,0.011 -0.031,0.031 -0.033,0.054c-0,0.004 -0.001,0.008 -0.001,0.011c-0,0.023 0.005,0.042 0.019,0.06c0.016,0.022 0.052,0.044 0.09,0.06c0.04,0.016 0.078,0.047 0.078,0.08c0,0.034 -0.028,0.054 -0.072,0.057c-0.003,-0 -0.006,0.001 -0.008,0.001c-0.043,-0 -0.073,-0.036 -0.08,-0.05c-0.002,-0.007 -0.01,-0.011 -0.016,-0.011c-0.004,-0 -0.01,0.002 -0.017,0.003c-0.015,0.004 -0.02,0.016 -0.02,0.028c0,0.004 0,0.009 0.003,0.013c0.007,0.013 0.033,0.033 0.057,0.048c0.022,0.012 0.061,0.02 0.088,0.02c0.024,-0 0.053,-0.018 0.079,-0.035c0.022,-0.015 0.032,-0.055 0.033,-0.088Z" style="fill-rule:nonzero;"/>
    </g>
    <g transform="matrix(208.333,0,0,208.333,329.929,293.642)">
      <path d="M0.166,-0.514c-0.001,-0.027 -0.025,-0.052 -0.05,-0.055l-0.007,0c-0.026,0 -0.044,0.016 -0.046,0.039c0.001,0.031 0.028,0.056 0.057,0.056c0.03,0 0.042,-0.017 0.046,-0.04Zm-0.012,0.481c-0.003,-0.023 -0.012,-0.11 -0.012,-0.153c0,-0.02 -0.001,-0.04 -0.001,-0.061c0,-0.027 0.001,-0.055 0.004,-0.089c0,-0.006 0.001,-0.011 0.001,-0.016c0,-0.032 -0.01,-0.034 -0.026,-0.034c-0.026,0 -0.032,0.006 -0.032,0.024c0,0.003 0.001,0.006 0.001,0.011c0.002,0.03 0.004,0.114 0.004,0.157c0,0.043 -0.008,0.119 -0.008,0.156c0,0.035 0.002,0.041 0.032,0.041c0.028,-0 0.038,-0.013 0.038,-0.029c0,-0.002 -0.001,-0.005 -0.001,-0.007Z" style="fill-rule:nonzero;"/>
    </g>
    <g transform="matrix(208.333,0,0,208.333,380.971,293.642)">
      <path d="M0.411,-0.05c-0.003,-0.026 -0.006,-0.108 -0.006,-0.166c0,-0.012 0.001,-0.024 0.001,-0.033l0,-0.004c0,-0.046 -0.024,-0.086 -0.038,-0.103c-0.014,-0.018 -0.044,-0.035 -0.083,-0.036l-0.007,0c-0.033,0 -0.053,0.012 -0.087,0.044c-0.014,0.013 -0.025,0.017 -0.032,0.018c-0.006,0 -0.009,-0.003 -0.011,-0.006c-0.002,-0.005 -0.003,-0.011 -0.003,-0.017c0,-0.006 0,-0.011 0.001,-0.016c0,-0.017 -0.016,-0.02 -0.028,-0.02c-0.011,0 -0.03,0.001 -0.034,0.01c-0.001,0.003 -0.002,0.007 -0.002,0.012c0.001,0.006 0.002,0.011 0.002,0.018c0.002,0.028 0.014,0.091 0.014,0.132c0,0.041 -0.002,0.091 -0.01,0.157c-0.002,0.012 -0.002,0.021 -0.002,0.029c0,0.029 0.01,0.035 0.033,0.035c0.003,0 0.007,-0.001 0.012,-0.001c0.02,-0.001 0.024,-0.007 0.025,-0.01l0,-0.007c0,-0.007 -0.001,-0.015 -0.002,-0.02c-0.004,-0.022 -0.008,-0.102 -0.008,-0.137c0,-0.033 0.005,-0.088 0.026,-0.117c0.022,-0.03 0.055,-0.047 0.085,-0.047l0.014,0c0.006,0 0.013,0 0.019,0.002c0.011,0.002 0.021,0.008 0.035,0.019c0.017,0.013 0.024,0.03 0.027,0.051c0.002,0.012 0.002,0.026 0.002,0.041l-0,0.032c-0,0.057 -0.008,0.089 -0.012,0.145c-0,0.004 -0.001,0.009 -0.001,0.012c-0,0.037 0.017,0.038 0.047,0.038c0.021,0 0.026,-0.011 0.026,-0.027c-0,-0.009 -0.002,-0.019 -0.003,-0.028Z" style="fill-rule:nonzero;"/>
    </g>
    <g transform="matrix(208.333,0,0,208.333,481.804,293.642)">
      <path d="M0.439,-0.326c0.001,-0.006 0.001,-0.011 0.001,-0.016c0,-0.024 -0.01,-0.029 -0.031,-0.031c-0.005,-0.001 -0.008,-0.001 -0.012,-0.001c-0.011,0 -0.014,0.003 -0.014,0.01c0,0.006 0.002,0.012 0.002,0.018c0,0.006 -0.001,0.015 -0.009,0.021c-0.002,0.003 -0.005,0.004 -0.009,0.004c-0.006,-0 -0.013,-0.004 -0.021,-0.011c-0.007,-0.008 -0.015,-0.017 -0.025,-0.023c-0.018,-0.011 -0.054,-0.029 -0.105,-0.031l-0.003,0c-0.038,0 -0.082,0.03 -0.106,0.052c-0.023,0.022 -0.06,0.069 -0.06,0.148l0,0.005c0.001,0.042 0.01,0.071 0.024,0.094c0.012,0.021 0.029,0.038 0.045,0.055l0.005,0.004c0.035,0.035 0.085,0.041 0.11,0.041c0.024,0 0.055,-0.006 0.074,-0.025c0.02,-0.02 0.044,-0.03 0.061,-0.03l0.005,0c0.012,0.002 0.014,0.014 0.015,0.023c0,0.009 -0.002,0.023 -0.003,0.041c-0.002,0.037 -0.01,0.057 -0.024,0.083c-0.017,0.03 -0.066,0.044 -0.114,0.048c-0.003,0 -0.006,0.001 -0.009,0.001c-0.049,0 -0.089,-0.036 -0.105,-0.062c-0.007,-0.012 -0.012,-0.016 -0.019,-0.018c-0.003,-0.001 -0.007,-0.001 -0.012,-0.001l-0.02,0c-0.012,0 -0.016,0.007 -0.016,0.016c0,0.006 0.003,0.015 0.006,0.02c0.003,0.007 0.01,0.015 0.018,0.024c0.008,0.009 0.018,0.018 0.027,0.026c0.016,0.016 0.06,0.035 0.118,0.04l0.011,0c0.052,0 0.097,-0.02 0.122,-0.035c0.025,-0.014 0.055,-0.06 0.065,-0.095c0.005,-0.015 0.006,-0.049 0.006,-0.085c0,-0.04 -0.001,-0.083 -0.002,-0.111c-0.001,-0.019 -0.001,-0.043 -0.001,-0.069c0,-0.048 0.001,-0.101 0.005,-0.13Zm-0.056,0.142c0,0.029 -0.002,0.065 -0.027,0.097c-0.024,0.03 -0.05,0.054 -0.11,0.054l-0.006,0c-0.032,-0.001 -0.054,-0.008 -0.069,-0.018c-0.015,-0.01 -0.025,-0.021 -0.035,-0.034c-0.02,-0.023 -0.03,-0.056 -0.031,-0.096l0,-0.01c0,-0.038 0.008,-0.071 0.035,-0.102c0.03,-0.034 0.072,-0.038 0.106,-0.038c0.045,0 0.083,0.015 0.106,0.046c0.023,0.031 0.031,0.07 0.031,0.101Z" style="fill-rule:nonzero;"/>
    </g>
    <g transform="matrix(208.333,0,0,208.333,146.283,501.975)">
      <path d="M0.168,-0.014c0,-0.015 -0.006,-0.072 -0.01,-0.096c-0.002,-0.012 -0.002,-0.06 -0.002,-0.11l0,-0.137c0,-0.063 0.004,-0.186 0.008,-0.241l0,-0.01c0,-0.037 -0.018,-0.039 -0.038,-0.042l-0.005,0c-0.014,0 -0.03,0.004 -0.03,0.009c0,0.008 0.002,0.053 0.004,0.076c0.001,0.012 0.001,0.06 0.001,0.112l0,0.132c0.001,0.015 0.001,0.04 0.001,0.068c0,0.071 -0.001,0.167 -0.004,0.212c-0.001,0.005 -0.001,0.009 -0.001,0.013c0,0.021 0.006,0.029 0.012,0.032c0.004,0.004 0.012,0.005 0.018,0.005c0.006,0 0.012,-0.001 0.017,-0.001c0.026,-0.002 0.029,-0.011 0.029,-0.022Z" style="fill-rule:nonzero;"/>
    </g>
    <g transform="matrix(208.333,0,0,208.333,197.325,501.975)">
      <path d="M0.166,-0.514c-0.001,-0.027 -0.025,-0.052 -0.05,-0.055l-0.007,0c-0.026,0 -0.044,0.016 -0.046,0.039c0.001,0.031 0.028,0.056 0.057,0.056c0.03,0 0.042,-0.017 0.046,-0.04Zm-0.012,0.481c-0.003,-0.023 -0.012,-0.11 -0.012,-0.153c0,-0.02 -0.001,-0.04 -0.001,-0.061c0,-0.027 0.001,-0.055 0.004,-0.089c0,-0.006 0.001,-0.011 0.001,-0.016c0,-0.032 -0.01,-0.034 -0.026,-0.034c-0.026,0 -0.032,0.006 -0.032,0.024c0,0.003 0.001,0.006 0.001,0.011c0.002,0.03 0.004,0.114 0.004,0.157c0,0.043 -0.008,0.119 -0.008,0.156c0,0.035 0.002,0.041 0.032,0.041c0.028,-0 0.038,-0.013 0.038,-0.029c0,-0.002 -0.001,-0.005 -0.001,-0.007Z" style="fill-rule:nonzero;"/>
    </g>
    <g transform="matrix(208.333,0,0,208.333,248.367,501.975)">
      <path d="M0.442,-0.015c0,-0.011 -0.019,-0.02 -0.025,-0.025c-0.016,-0.012 -0.034,-0.025 -0.046,-0.034c-0.013,-0.01 -0.025,-0.024 -0.036,-0.037c-0.012,-0.014 -0.024,-0.027 -0.036,-0.037c-0.014,-0.011 -0.029,-0.022 -0.041,-0.033c-0.014,-0.013 -0.023,-0.025 -0.023,-0.035c0,-0.008 0.014,-0.025 0.031,-0.042c0.016,-0.015 0.035,-0.03 0.045,-0.039c0.022,-0.02 0.073,-0.059 0.093,-0.077c0.002,-0.002 0.003,-0.004 0.003,-0.005c0,-0.002 -0.001,-0.002 -0.003,-0.004c-0.007,-0.004 -0.022,-0.008 -0.042,-0.008c-0.036,0 -0.045,0.013 -0.057,0.03c-0.008,0.01 -0.017,0.02 -0.029,0.032c-0.01,0.011 -0.023,0.023 -0.036,0.038l-0.032,0.033c-0.007,0.007 -0.015,0.011 -0.024,0.011c-0.003,0 -0.004,0 -0.007,-0.001l-0.011,-0.003c-0.004,-0.001 -0.007,-0.003 -0.01,-0.006c-0.004,-0.004 -0.005,-0.011 -0.005,-0.024c0,-0.018 -0.005,-0.065 -0.005,-0.114c0,-0.011 0,-0.021 0.001,-0.031c0.002,-0.06 0.008,-0.148 0.014,-0.185l0,-0.01c0,-0.025 -0.016,-0.041 -0.039,-0.041l-0.003,0c-0.027,0.001 -0.038,0.016 -0.038,0.027c0,0.027 0.015,0.234 0.015,0.33l0,0.018c0,0.084 -0.003,0.207 -0.009,0.246c-0.001,0.006 -0.001,0.01 -0.001,0.015c0,0.02 0.011,0.024 0.04,0.025c0.018,-0 0.03,-0.005 0.03,-0.021c0,-0.004 0,-0.009 -0.001,-0.014c-0.002,-0.01 -0.003,-0.022 -0.003,-0.035c0,-0.022 0.002,-0.048 0.004,-0.075c0.003,-0.025 0.011,-0.034 0.021,-0.034c0.013,-0 0.028,0.015 0.034,0.024c0.004,0.005 0.01,0.014 0.019,0.023l0.062,0.067l0.001,0.002c0.011,0.013 0.023,0.028 0.03,0.04c0.006,0.01 0.011,0.014 0.019,0.017c0.004,0.001 0.01,0.002 0.018,0.003c0.007,0.002 0.016,0.002 0.026,0.003c0.006,0.001 0.011,0.001 0.015,0.001c0.032,-0 0.04,-0.009 0.041,-0.015Z" style="fill-rule:nonzero;"/>
    </g>
    <g transform="matrix(208.333,0,0,208.333,346.492,501.975)">
      <path d="M0.437,-0.197c0,-0.001 0.001,-0.002 0.001,-0.004c0,-0.001 -0.001,-0.004 -0.001,-0.007l-0.004,-0.021c-0.007,-0.032 -0.042,-0.085 -0.068,-0.116c-0.026,-0.028 -0.076,-0.045 -0.118,-0.047l-0.011,0c-0.043,0 -0.077,0.021 -0.112,0.044l-0.008,0.005c-0.038,0.023 -0.065,0.099 -0.067,0.159l0,0.003c0,0.057 0.043,0.12 0.077,0.158c0.033,0.035 0.101,0.036 0.135,0.036c0.032,0 0.058,-0.008 0.075,-0.017c0.007,-0.004 0.017,-0.012 0.029,-0.022c0.011,-0.01 0.023,-0.02 0.036,-0.03c0.01,-0.007 0.015,-0.015 0.015,-0.023c0,-0.009 -0.005,-0.018 -0.02,-0.03c-0.005,-0.004 -0.01,-0.006 -0.013,-0.006c-0.005,0 -0.008,0.003 -0.012,0.006c-0.007,0.008 -0.012,0.018 -0.016,0.028c-0.008,0.018 -0.048,0.038 -0.098,0.038l-0.008,0c-0.033,-0.001 -0.061,-0.011 -0.086,-0.031l-0.015,-0.012c-0.016,-0.014 -0.032,-0.054 -0.032,-0.079l0,-0.007c0.003,-0.012 0.027,-0.019 0.057,-0.02c0.025,0 0.053,0.001 0.068,0.001c0.021,0 0.079,0.001 0.124,0.001c0.023,0 0.043,0 0.054,-0.001c0.017,0 0.018,-0.004 0.018,-0.006Zm-0.071,-0.066c0.003,0.005 0.004,0.009 0.004,0.013c0,0.011 -0.009,0.018 -0.027,0.018c-0.039,-0 -0.082,0.001 -0.099,0.001c-0.018,-0 -0.071,-0.001 -0.082,-0.004c-0.011,-0.001 -0.035,-0.014 -0.035,-0.032c0,-0.006 0.002,-0.012 0.007,-0.018c0.016,-0.022 0.06,-0.052 0.112,-0.052l0.004,0c0.047,0.002 0.063,0.016 0.086,0.038c0.01,0.01 0.024,0.023 0.03,0.036Z" style="fill-rule:nonzero;"/>
    </g>
    <g transform="matrix(208.333,0,0,208.333,497.742,501.975)">
      <path d="M0.306,-0.002c0.008,-0.005 0.015,-0.011 0.02,-0.016c0.005,-0.006 0.01,-0.011 0.015,-0.014c0.006,-0.006 0.013,-0.009 0.02,-0.009c0.01,0 0.019,0.008 0.019,0.02c-0,0.003 -0,0.006 -0.001,0.009c-0,0.001 -0.001,0.002 -0.001,0.003c-0,0.009 0.01,0.01 0.038,0.012l0.005,0c0.015,0 0.018,-0.004 0.02,-0.008l-0,-0.197c-0,-0.033 -0.001,-0.068 -0.001,-0.1c-0,-0.016 -0,-0.031 0.001,-0.045l-0,-0.005c-0,-0.026 -0.013,-0.027 -0.03,-0.027l-0.01,0c-0.012,0 -0.018,0.001 -0.018,0.008c0,0.005 0.001,0.009 0.001,0.012c0,0.016 -0.006,0.03 -0.018,0.034c-0.002,0.001 -0.003,0.001 -0.005,0.001c-0.007,0 -0.016,-0.005 -0.025,-0.013c-0.009,-0.008 -0.016,-0.017 -0.024,-0.025c-0.011,-0.014 -0.052,-0.026 -0.09,-0.026c-0.056,0 -0.12,0.036 -0.151,0.079c-0.022,0.032 -0.03,0.082 -0.034,0.123l0,0.008c0,0.039 0.023,0.102 0.048,0.133c0.026,0.033 0.07,0.063 0.144,0.063c0.036,0 0.06,-0.009 0.077,-0.02Zm0.077,-0.184c-0.003,0.042 -0.017,0.092 -0.052,0.118c-0.027,0.021 -0.048,0.026 -0.079,0.026c-0.006,0 -0.012,-0.001 -0.02,-0.001c-0.045,-0.003 -0.083,-0.023 -0.099,-0.049c-0.013,-0.024 -0.022,-0.055 -0.022,-0.09l-0,-0.009c0.002,-0.036 0.017,-0.097 0.036,-0.111c0.014,-0.011 0.057,-0.029 0.093,-0.029c0.006,0 0.012,0 0.018,0.001l0.023,0.005c0.004,0 0.004,0.001 0.005,0.001c0.006,0.002 0.015,0.003 0.021,0.006c0.018,0.006 0.035,0.017 0.048,0.039l0.015,0.026c0.001,0.007 0.007,0.014 0.01,0.02c0.003,0.008 0.005,0.017 0.005,0.027c-0,0.006 -0.001,0.013 -0.002,0.02Z" style="fill-rule:nonzero;"/>
    </g>
    <g transform="matrix(208.333,0,0,208.333,605.658,501.975)">
      <path d="M0.411,-0.05c-0.003,-0.026 -0.006,-0.108 -0.006,-0.166c0,-0.012 0.001,-0.024 0.001,-0.033l0,-0.004c0,-0.046 -0.024,-0.086 -0.038,-0.103c-0.014,-0.018 -0.044,-0.035 -0.083,-0.036l-0.007,0c-0.033,0 -0.053,0.012 -0.087,0.044c-0.014,0.013 -0.025,0.017 -0.032,0.018c-0.006,0 -0.009,-0.003 -0.011,-0.006c-0.002,-0.005 -0.003,-0.011 -0.003,-0.017c0,-0.006 0,-0.011 0.001,-0.016c0,-0.017 -0.016,-0.02 -0.028,-0.02c-0.011,0 -0.03,0.001 -0.034,0.01c-0.001,0.003 -0.002,0.007 -0.002,0.012c0.001,0.006 0.002,0.011 0.002,0.018c0.002,0.028 0.014,0.091 0.014,0.132c0,0.041 -0.002,0.091 -0.01,0.157c-0.002,0.012 -0.002,0.021 -0.002,0.029c0,0.029 0.01,0.035 0.033,0.035c0.003,0 0.007,-0.001 0.012,-0.001c0.02,-0.001 0.024,-0.007 0.025,-0.01l0,-0.007c0,-0.007 -0.001,-0.015 -0.002,-0.02c-0.004,-0.022 -0.008,-0.102 -0.008,-0.137c0,-0.033 0.005,-0.088 0.026,-0.117c0.022,-0.03 0.055,-0.047 0.085,-0.047l0.014,0c0.006,0 0.013,0 0.019,0.002c0.011,0.002 0.021,0.008 0.035,0.019c0.017,0.013 0.024,0.03 0.027,0.051c0.002,0.012 0.002,0.026 0.002,0.041l-0,0.032c-0,0.057 -0.008,0.089 -0.012,0.145c-0,0.004 -0.001,0.009 -0.001,0.012c-0,0.037 0.017,0.038 0.047,0.038c0.021,0 0.026,-0.011 0.026,-0.027c-0,-0.009 -0.002,-0.019 -0.003,-0.028Z" style="fill-rule:nonzero;"/>
    </g>
    <g transform="matrix(208.333,0,0,208.333,181.387,710.309)">
      <path d="M0.458,-0.18l0,-0.005c0,-0.068 -0.032,-0.119 -0.062,-0.151c-0.03,-0.031 -0.079,-0.056 -0.135,-0.058l-0.005,-0c-0.091,-0 -0.131,0.038 -0.16,0.068c-0.03,0.03 -0.053,0.075 -0.053,0.139c0,0.064 0.038,0.126 0.069,0.154c0.03,0.027 0.075,0.047 0.133,0.047l0.006,-0c0.062,-0.002 0.11,-0.01 0.153,-0.056c0.043,-0.048 0.054,-0.065 0.054,-0.138Zm-0.057,-0.011c0,0.038 -0.014,0.09 -0.039,0.109c-0.006,0.003 -0.012,0.008 -0.02,0.013c-0.025,0.017 -0.053,0.03 -0.083,0.03c-0.004,-0 -0.008,-0 -0.013,-0.001c-0.048,-0.006 -0.071,-0.016 -0.1,-0.05c-0.029,-0.032 -0.038,-0.058 -0.038,-0.099c0,-0.04 0.007,-0.078 0.047,-0.108c0.039,-0.029 0.07,-0.033 0.102,-0.033c0.051,-0 0.088,0.014 0.109,0.051c0.01,0.017 0.019,0.028 0.025,0.041c0.005,0.013 0.01,0.027 0.01,0.047Z" style="fill-rule:nonzero;"/>
    </g>
    <g transform="matrix(208.333,0,0,208.333,284.929,710.309)">
      <path d="M0.471,-0.196l0,-0.008c0,-0.053 -0.031,-0.1 -0.057,-0.132c-0.025,-0.03 -0.082,-0.053 -0.131,-0.055c-0.046,0 -0.089,0.029 -0.118,0.058c-0.008,0.007 -0.014,0.011 -0.019,0.011c-0.005,0 -0.009,-0.003 -0.011,-0.006c-0.003,-0.004 -0.004,-0.013 -0.004,-0.025l-0,-0.013c-0,-0.014 -0.007,-0.015 -0.03,-0.017l-0.004,0c-0.018,0 -0.023,0.012 -0.023,0.027c-0,0.01 0.002,0.02 0.003,0.028c0.003,0.022 0.005,0.15 0.005,0.227c-0,0.023 -0,0.04 -0.001,0.051c-0.002,0.049 -0.004,0.179 -0.008,0.216c-0,0.003 -0.001,0.004 -0.001,0.006c-0,0.021 0.014,0.028 0.033,0.028c0.002,0 0.005,-0.001 0.008,-0.001c0.025,-0.001 0.033,-0.01 0.033,-0.015l-0,-0.005c-0,-0.007 -0,-0.016 -0.001,-0.028c-0.002,-0.014 -0.004,-0.031 -0.004,-0.044c-0.001,-0.007 -0.001,-0.014 -0.001,-0.023l-0,-0.015c-0,-0.02 -0,-0.04 -0.004,-0.063c-0.001,-0.009 -0.002,-0.017 -0.002,-0.023c-0,-0.023 0.007,-0.033 0.023,-0.035l0.004,0c0.008,0 0.015,0.006 0.02,0.011c0.007,0.006 0.012,0.014 0.017,0.021c0.01,0.013 0.02,0.024 0.092,0.024c0.035,0 0.056,-0.006 0.074,-0.016c0.008,-0.005 0.017,-0.011 0.025,-0.018l0.028,-0.022c0.038,-0.029 0.054,-0.086 0.054,-0.144Zm-0.056,0.008l-0.003,0.04c-0.004,0.037 -0.014,0.053 -0.046,0.076c-0.02,0.015 -0.033,0.021 -0.045,0.025c-0.006,0.001 -0.012,0.001 -0.019,0.001c-0.001,-0 -0.004,0.001 -0.006,0.001c-0.005,-0 -0.009,-0.001 -0.015,-0.001c-0.033,-0 -0.065,-0.004 -0.096,-0.029c-0.032,-0.025 -0.052,-0.072 -0.052,-0.123c-0,-0.052 0.023,-0.093 0.06,-0.117c0.009,-0.005 0.016,-0.01 0.023,-0.013l0.017,-0.008c0.012,-0.005 0.023,-0.005 0.041,-0.005c0.041,0 0.075,0.016 0.094,0.038c0.004,0.005 0.01,0.01 0.015,0.017c0.006,0.006 0.012,0.014 0.017,0.023c0.008,0.016 0.015,0.037 0.015,0.062l0,0.013Z" style="fill-rule:nonzero;"/>
    </g>
    <g transform="matrix(208.333,0,0,208.333,395.346,710.309)">
      <path d="M0.437,-0.197c0,-0.001 0.001,-0.002 0.001,-0.004c0,-0.001 -0.001,-0.004 -0.001,-0.007l-0.004,-0.021c-0.007,-0.032 -0.042,-0.085 -0.068,-0.116c-0.026,-0.028 -0.076,-0.045 -0.118,-0.047l-0.011,0c-0.043,0 -0.077,0.021 -0.112,0.044l-0.008,0.005c-0.038,0.023 -0.065,0.099 -0.067,0.159l0,0.003c0,0.057 0.043,0.12 0.077,0.158c0.033,0.035 0.101,0.036 0.135,0.036c0.032,0 0.058,-0.008 0.075,-0.017c0.007,-0.004 0.017,-0.012 0.029,-0.022c0.011,-0.01 0.023,-0.02 0.036,-0.03c0.01,-0.007 0.015,-0.015 0.015,-0.023c0,-0.009 -0.005,-0.018 -0.02,-0.03c-0.005,-0.004 -0.01,-0.006 -0.013,-0.006c-0.005,0 -0.008,0.003 -0.012,0.006c-0.007,0.008 -0.012,0.018 -0.016,0.028c-0.008,0.018 -0.048,0.038 -0.098,0.038l-0.008,0c-0.033,-0.001 -0.061,-0.011 -0.086,-0.031l-0.015,-0.012c-0.016,-0.014 -0.032,-0.054 -0.032,-0.079l0,-0.007c0.003,-0.012 0.027,-0.019 0.057,-0.02c0.025,0 0.053,0.001 0.068,0.001c0.021,0 0.079,0.001 0.124,0.001c0.023,0 0.043,0 0.054,-0.001c0.017,0 0.018,-0.004 0.018,-0.006Zm-0.071,-0.066c0.003,0.005 0.004,0.009 0.004,0.013c0,0.011 -0.009,0.018 -0.027,0.018c-0.039,-0 -0.082,0.001 -0.099,0.001c-0.018,-0 -0.071,-0.001 -0.082,-0.004c-0.011,-0.001 -0.035,-0.014 -0.035,-0.032c0,-0.006 0.002,-0.012 0.007,-0.018c0.016,-0.022 0.06,-0.052 0.112,-0.052l0.004,0c0.047,0.002 0.063,0.016 0.086,0.038c0.01,0.01 0.024,0.023 0.03,0.036Z" style="fill-rule:nonzero;"/>
    </g>
    <g transform="matrix(208.333,0,0,208.333,494.512,710.309)">
      <path d="M0.308,-0.38c-0.007,-0.003 -0.031,-0.011 -0.058,-0.011c-0.027,0 -0.064,0.024 -0.077,0.049c-0.003,0.006 -0.007,0.012 -0.012,0.015c-0.003,0.001 -0.005,0.001 -0.006,0.001c-0.005,0 -0.009,-0.003 -0.011,-0.006c-0.003,-0.006 -0.004,-0.014 -0.004,-0.022l0,-0.007c0,-0.017 -0.018,-0.024 -0.031,-0.024c-0.025,0 -0.028,0.008 -0.029,0.013c0,0.001 -0.001,0.002 -0.001,0.004c0,0.003 0.001,0.008 0.002,0.013c0.001,0.007 0.002,0.015 0.003,0.022c0.002,0.033 0.002,0.107 0.002,0.151c0,0.043 -0.002,0.088 -0.009,0.146c-0.001,0.01 -0.001,0.018 -0.001,0.023c0,0.006 0.001,0.009 0.005,0.011c0.002,0.001 0.006,0.001 0.015,0.001c0.008,-0.001 0.018,-0.002 0.03,-0.002c0.025,0 0.031,-0.017 0.031,-0.036c0,-0.014 -0.004,-0.03 -0.006,-0.042c-0.004,-0.02 -0.005,-0.057 -0.005,-0.094c0,-0.02 0,-0.039 0.001,-0.056c0.003,-0.054 0.039,-0.084 0.073,-0.092c0.013,-0.003 0.022,-0.004 0.031,-0.004c0.012,0 0.02,0.002 0.033,0.007c0.002,0 0.005,0.003 0.007,0.003c0.003,0 0.004,-0.001 0.005,-0.004c0.002,-0.001 0.004,-0.005 0.005,-0.01c0.003,-0.005 0.005,-0.011 0.007,-0.018c0.003,-0.01 0.005,-0.017 0.005,-0.021c0,-0.005 -0.002,-0.008 -0.005,-0.01Z" style="fill-rule:nonzero;"/>
    </g>
    <g transform="matrix(208.333,0,0,208.333,563.471,710.309)">
      <path d="M0.306,-0.002c0.008,-0.005 0.015,-0.011 0.02,-0.016c0.005,-0.006 0.01,-0.011 0.015,-0.014c0.006,-0.006 0.013,-0.009 0.02,-0.009c0.01,0 0.019,0.008 0.019,0.02c-0,0.003 -0,0.006 -0.001,0.009c-0,0.001 -0.001,0.002 -0.001,0.003c-0,0.009 0.01,0.01 0.038,0.012l0.005,0c0.015,0 0.018,-0.004 0.02,-0.008l-0,-0.197c-0,-0.033 -0.001,-0.068 -0.001,-0.1c-0,-0.016 -0,-0.031 0.001,-0.045l-0,-0.005c-0,-0.026 -0.013,-0.027 -0.03,-0.027l-0.01,0c-0.012,0 -0.018,0.001 -0.018,0.008c0,0.005 0.001,0.009 0.001,0.012c0,0.016 -0.006,0.03 -0.018,0.034c-0.002,0.001 -0.003,0.001 -0.005,0.001c-0.007,0 -0.016,-0.005 -0.025,-0.013c-0.009,-0.008 -0.016,-0.017 -0.024,-0.025c-0.011,-0.014 -0.052,-0.026 -0.09,-0.026c-0.056,0 -0.12,0.036 -0.151,0.079c-0.022,0.032 -0.03,0.082 -0.034,0.123l0,0.008c0,0.039 0.023,0.102 0.048,0.133c0.026,0.033 0.07,0.063 0.144,0.063c0.036,0 0.06,-0.009 0.077,-0.02Zm0.077,-0.184c-0.003,0.042 -0.017,0.092 -0.052,0.118c-0.027,0.021 -0.048,0.026 -0.079,0.026c-0.006,0 -0.012,-0.001 -0.02,-0.001c-0.045,-0.003 -0.083,-0.023 -0.099,-0.049c-0.013,-0.024 -0.022,-0.055 -0.022,-0.09l-0,-0.009c0.002,-0.036 0.017,-0.097 0.036,-0.111c0.014,-0.011 0.057,-0.029 0.093,-0.029c0.006,0 0.012,0 0.018,0.001l0.023,0.005c0.004,0 0.004,0.001 0.005,0.001c0.006,0.002 0.015,0.003 0.021,0.006c0.018,0.006 0.035,0.017 0.048,0.039l0.015,0.026c0.001,0.007 0.007,0.014 0.01,0.02c0.003,0.008 0.005,0.017 0.005,0.027c-0,0.006 -0.001,0.013 -0.002,0.02Z" style="fill-rule:nonzero;"/>
    </g>
    <g transform="matrix(208.333,0,0,208.333,176.908,918.642)">
      <path d="M0.296,-0.114c0,-0.032 -0.022,-0.056 -0.042,-0.076c-0.016,-0.016 -0.077,-0.049 -0.098,-0.059c-0.023,-0.01 -0.045,-0.027 -0.045,-0.052c0,-0.025 0.02,-0.035 0.045,-0.035l0.009,-0c0.032,0.001 0.049,0.012 0.073,0.032c0.008,0.007 0.012,0.008 0.014,0.008c0.003,-0 0.005,-0.002 0.007,-0.004l0.007,-0.008c0.002,-0.003 0.005,-0.006 0.006,-0.009c0.003,-0.004 0.004,-0.008 0.004,-0.011c0,-0.004 -0.001,-0.008 -0.005,-0.013c-0.014,-0.015 -0.055,-0.043 -0.115,-0.045l-0.007,-0c-0.017,-0 -0.026,0.002 -0.033,0.005c-0.008,0.004 -0.014,0.01 -0.02,0.016c-0.014,0.011 -0.031,0.031 -0.033,0.054c-0,0.004 -0.001,0.008 -0.001,0.011c-0,0.023 0.005,0.042 0.019,0.06c0.016,0.022 0.052,0.044 0.09,0.06c0.04,0.016 0.078,0.047 0.078,0.08c0,0.034 -0.028,0.054 -0.072,0.057c-0.003,-0 -0.006,0.001 -0.008,0.001c-0.043,-0 -0.073,-0.036 -0.08,-0.05c-0.002,-0.007 -0.01,-0.011 -0.016,-0.011c-0.004,-0 -0.01,0.002 -0.017,0.003c-0.015,0.004 -0.02,0.016 -0.02,0.028c0,0.004 0,0.009 0.003,0.013c0.007,0.013 0.033,0.033 0.057,0.048c0.022,0.012 0.061,0.02 0.088,0.02c0.024,-0 0.053,-0.018 0.079,-0.035c0.022,-0.015 0.032,-0.055 0.033,-0.088Z" style="fill-rule:nonzero;"/>
    </g>
    <g transform="matrix(208.333,0,0,208.333,245.867,918.642)">
      <path d="M0.166,-0.514c-0.001,-0.027 -0.025,-0.052 -0.05,-0.055l-0.007,0c-0.026,0 -0.044,0.016 -0.046,0.039c0.001,0.031 0.028,0.056 0.057,0.056c0.03,0 0.042,-0.017 0.046,-0.04Zm-0.012,0.481c-0.003,-0.023 -0.012,-0.11 -0.012,-0.153c0,-0.02 -0.001,-0.04 -0.001,-0.061c0,-0.027 0.001,-0.055 0.004,-0.089c0,-0.006 0.001,-0.011 0.001,-0.016c0,-0.032 -0.01,-0.034 -0.026,-0.034c-0.026,0 -0.032,0.006 -0.032,0.024c0,0.003 0.001,0.006 0.001,0.011c0.002,0.03 0.004,0.114 0.004,0.157c0,0.043 -0.008,0.119 -0.008,0.156c0,0.035 0.002,0.041 0.032,0.041c0.028,-0 0.038,-0.013 0.038,-0.029c0,-0.002 -0.001,-0.005 -0.001,-0.007Z" style="fill-rule:nonzero;"/>
    </g>
    <g transform="matrix(208.333,0,0,208.333,296.908,918.642)">
      <path d="M0.411,-0.05c-0.003,-0.026 -0.006,-0.108 -0.006,-0.166c0,-0.012 0.001,-0.024 0.001,-0.033l0,-0.004c0,-0.046 -0.024,-0.086 -0.038,-0.103c-0.014,-0.018 -0.044,-0.035 -0.083,-0.036l-0.007,0c-0.033,0 -0.053,0.012 -0.087,0.044c-0.014,0.013 -0.025,0.017 -0.032,0.018c-0.006,0 -0.009,-0.003 -0.011,-0.006c-0.002,-0.005 -0.003,-0.011 -0.003,-0.017c0,-0.006 0,-0.011 0.001,-0.016c0,-0.017 -0.016,-0.02 -0.028,-0.02c-0.011,0 -0.03,0.001 -0.034,0.01c-0.001,0.003 -0.002,0.007 -0.002,0.012c0.001,0.006 0.002,0.011 0.002,0.018c0.002,0.028 0.014,0.091 0.014,0.132c0,0.041 -0.002,0.091 -0.01,0.157c-0.002,0.012 -0.002,0.021 -0.002,0.029c0,0.029 0.01,0.035 0.033,0.035c0.003,0 0.007,-0.001 0.012,-0.001c0.02,-0.001 0.024,-0.007 0.025,-0.01l0,-0.007c0,-0.007 -0.001,-0.015 -0.002,-0.02c-0.004,-0.022 -0.008,-0.102 -0.008,-0.137c0,-0.033 0.005,-0.088 0.026,-0.117c0.022,-0.03 0.055,-0.047 0.085,-0.047l0.014,0c0.006,0 0.013,0 0.019,0.002c0.011,0.002 0.021,0.008 0.035,0.019c0.017,0.013 0.024,0.03 0.027,0.051c0.002,0.012 0.002,0.026 0.002,0.041l-0,0.032c-0,0.057 -0.008,0.089 -0.012,0.145c-0,0.004 -0.001,0.009 -0.001,0.012c-0,0.037 0.017,0.038 0.047,0.038c0.021,0 0.026,-0.011 0.026,-0.027c-0,-0.009 -0.002,-0.019 -0.003,-0.028Z" style="fill-rule:nonzero;"/>
    </g>
    <g transform="matrix(208.333,0,0,208.333,397.742,918.642)">
      <path d="M0.439,-0.326c0.001,-0.006 0.001,-0.011 0.001,-0.016c0,-0.024 -0.01,-0.029 -0.031,-0.031c-0.005,-0.001 -0.008,-0.001 -0.012,-0.001c-0.011,0 -0.014,0.003 -0.014,0.01c0,0.006 0.002,0.012 0.002,0.018c0,0.006 -0.001,0.015 -0.009,0.021c-0.002,0.003 -0.005,0.004 -0.009,0.004c-0.006,-0 -0.013,-0.004 -0.021,-0.011c-0.007,-0.008 -0.015,-0.017 -0.025,-0.023c-0.018,-0.011 -0.054,-0.029 -0.105,-0.031l-0.003,0c-0.038,0 -0.082,0.03 -0.106,0.052c-0.023,0.022 -0.06,0.069 -0.06,0.148l0,0.005c0.001,0.042 0.01,0.071 0.024,0.094c0.012,0.021 0.029,0.038 0.045,0.055l0.005,0.004c0.035,0.035 0.085,0.041 0.11,0.041c0.024,0 0.055,-0.006 0.074,-0.025c0.02,-0.02 0.044,-0.03 0.061,-0.03l0.005,0c0.012,0.002 0.014,0.014 0.015,0.023c0,0.009 -0.002,0.023 -0.003,0.041c-0.002,0.037 -0.01,0.057 -0.024,0.083c-0.017,0.03 -0.066,0.044 -0.114,0.048c-0.003,0 -0.006,0.001 -0.009,0.001c-0.049,0 -0.089,-0.036 -0.105,-0.062c-0.007,-0.012 -0.012,-0.016 -0.019,-0.018c-0.003,-0.001 -0.007,-0.001 -0.012,-0.001l-0.02,0c-0.012,0 -0.016,0.007 -0.016,0.016c0,0.006 0.003,0.015 0.006,0.02c0.003,0.007 0.01,0.015 0.018,0.024c0.008,0.009 0.018,0.018 0.027,0.026c0.016,0.016 0.06,0.035 0.118,0.04l0.011,0c0.052,0 0.097,-0.02 0.122,-0.035c0.025,-0.014 0.055,-0.06 0.065,-0.095c0.005,-0.015 0.006,-0.049 0.006,-0.085c0,-0.04 -0.001,-0.083 -0.002,-0.111c-0.001,-0.019 -0.001,-0.043 -0.001,-0.069c0,-0.048 0.001,-0.101 0.005,-0.13Zm-0.056,0.142c0,0.029 -0.002,0.065 -0.027,0.097c-0.024,0.03 -0.05,0.054 -0.11,0.054l-0.006,0c-0.032,-0.001 -0.054,-0.008 -0.069,-0.018c-0.015,-0.01 -0.025,-0.021 -0.035,-0.034c-0.02,-0.023 -0.03,-0.056 -0.031,-0.096l0,-0.01c0,-0.038 0.008,-0.071 0.035,-0.102c0.03,-0.034 0.072,-0.038 0.106,-0.038c0.045,0 0.083,0.015 0.106,0.046c0.023,0.031 0.031,0.07 0.031,0.101Z" style="fill-rule:nonzero;"/>
    </g>
    <g transform="matrix(208.333,0,0,208.333,507.742,918.642)">
      <path d="M0.437,-0.197c0,-0.001 0.001,-0.002 0.001,-0.004c0,-0.001 -0.001,-0.004 -0.001,-0.007l-0.004,-0.021c-0.007,-0.032 -0.042,-0.085 -0.068,-0.116c-0.026,-0.028 -0.076,-0.045 -0.118,-0.047l-0.011,0c-0.043,0 -0.077,0.021 -0.112,0.044l-0.008,0.005c-0.038,0.023 -0.065,0.099 -0.067,0.159l0,0.003c0,0.057 0.043,0.12 0.077,0.158c0.033,0.035 0.101,0.036 0.135,0.036c0.032,0 0.058,-0.008 0.075,-0.017c0.007,-0.004 0.017,-0.012 0.029,-0.022c0.011,-0.01 0.023,-0.02 0.036,-0.03c0.01,-0.007 0.015,-0.015 0.015,-0.023c0,-0.009 -0.005,-0.018 -0.02,-0.03c-0.005,-0.004 -0.01,-0.006 -0.013,-0.006c-0.005,0 -0.008,0.003 -0.012,0.006c-0.007,0.008 -0.012,0.018 -0.016,0.028c-0.008,0.018 -0.048,0.038 -0.098,0.038l-0.008,0c-0.033,-0.001 -0.061,-0.011 -0.086,-0.031l-0.015,-0.012c-0.016,-0.014 -0.032,-0.054 -0.032,-0.079l0,-0.007c0.003,-0.012 0.027,-0.019 0.057,-0.02c0.025,0 0.053,0.001 0.068,0.001c0.021,0 0.079,0.001 0.124,0.001c0.023,0 0.043,0 0.054,-0.001c0.017,0 0.018,-0.004 0.018,-0.006Zm-0.071,-0.066c0.003,0.005 0.004,0.009 0.004,0.013c0,0.011 -0.009,0.018 -0.027,0.018c-0.039,-0 -0.082,0.001 -0.099,0.001c-0.018,-0 -0.071,-0.001 -0.082,-0.004c-0.011,-0.001 -0.035,-0.014 -0.035,-0.032c0,-0.006 0.002,-0.012 0.007,-0.018c0.016,-0.022 0.06,-0.052 0.112,-0.052l0.004,0c0.047,0.002 0.063,0.016 0.086,0.038c0.01,0.01 0.024,0.023 0.03,0.036Z" style="fill-rule:nonzero;"/>
    </g>
    <g transform="matrix(208.333,0,0,208.333,606.908,918.642)">
      <path d="M0.308,-0.38c-0.007,-0.003 -0.031,-0.011 -0.058,-0.011c-0.027,0 -0.064,0.024 -0.077,0.049c-0.003,0.006 -0.007,0.012 -0.012,0.015c-0.003,0.001 -0.005,0.001 -0.006,0.001c-0.005,0 -0.009,-0.003 -0.011,-0.006c-0.003,-0.006 -0.004,-0.014 -0.004,-0.022l0,-0.007c0,-0.017 -0.018,-0.024 -0.031,-0.024c-0.025,0 -0.028,0.008 -0.029,0.013c0,0.001 -0.001,0.002 -0.001,0.004c0,0.003 0.001,0.008 0.002,0.013c0.001,0.007 0.002,0.015 0.003,0.022c0.002,0.033 0.002,0.107 0.002,0.151c0,0.043 -0.002,0.088 -0.009,0.146c-0.001,0.01 -0.001,0.018 -0.001,0.023c0,0.006 0.001,0.009 0.005,0.011c0.002,0.001 0.006,0.001 0.015,0.001c0.008,-0.001 0.018,-0.002 0.03,-0.002c0.025,0 0.031,-0.017 0.031,-0.036c0,-0.014 -0.004,-0.03 -0.006,-0.042c-0.004,-0.02 -0.005,-0.057 -0.005,-0.094c0,-0.02 0,-0.039 0.001,-0.056c0.003,-0.054 0.039,-0.084 0.073,-0.092c0.013,-0.003 0.022,-0.004 0.031,-0.004c0.012,0 0.02,0.002 0.033,0.007c0.002,0 0.005,0.003 0.007,0.003c0.003,0 0.004,-0.001 0.005,-0.004c0.002,-0.001 0.004,-0.005 0.005,-0.01c0.003,-0.005 0.005,-0.011 0.007,-0.018c0.003,-0.01 0.005,-0.017 0.005,-0.021c0,-0.005 -0.002,-0.008 -0.005,-0.01Z" style="fill-rule:nonzero;"/>
    </g>
  </g>
</svg>
