<?xml version="1.0" encoding="UTF-8" standalone="no"?>
<!DOCTYPE svg PUBLIC "-//W3C//DTD SVG 1.1//EN" "http://www.w3.org/Graphics/SVG/1.1/DTD/svg11.dtd">
<svg width="100%" height="100%" viewBox="0 0 406 529" version="1.1" xmlns="http://www.w3.org/2000/svg" xmlns:xlink="http://www.w3.org/1999/xlink" xml:space="preserve" xmlns:serif="http://www.serif.com/" style="fill-rule:evenodd;clip-rule:evenodd;stroke-linejoin:bevel;">
  <rect id="L4-1" x="0.023" y="0.083" width="405.12" height="528" style="fill:none;"/>
  <clipPath id="_clip1">
    <rect x="0.023" y="0.083" width="405.12" height="528"/>
  </clipPath>
  <g clip-path="url(#_clip1)">
    <g id="staff-bottom" serif:id="staff bottom">
      <path d="M0.023,344.483l405.12,0" style="fill:none;fill-rule:nonzero;stroke:#000;stroke-width:1.2px;"/>
      <path d="M0.023,357.083l405.12,0" style="fill:none;fill-rule:nonzero;stroke:#000;stroke-width:1.2px;"/>
      <path d="M0.023,369.683l405.12,0" style="fill:none;fill-rule:nonzero;stroke:#000;stroke-width:1.2px;"/>
      <path d="M0.023,382.283l405.12,0" style="fill:none;fill-rule:nonzero;stroke:#000;stroke-width:1.2px;"/>
      <path d="M0.023,394.883l405.12,0" style="fill:none;fill-rule:nonzero;stroke:#000;stroke-width:1.2px;"/>
    </g>
	  	<a href="L4-2.svg">
    <circle cx="364.631" cy="491.123" r="17.4" style="fill:#149d15;"/>
	  </a>
    <g transform="matrix(0.24,0,0,0.24,101.4,45.8093)">
      <g transform="matrix(208.333,0,0,208.333,171.283,293.642)">
        <path d="M0.363,-0.022c0,-0.004 0,-0.008 -0.001,-0.014l-0.002,-0.02c-0.001,-0.015 -0.004,-0.021 -0.009,-0.021c-0.001,0 -0.004,0.001 -0.007,0.003c-0.018,0.013 -0.048,0.028 -0.089,0.028l-0.013,0c-0.046,-0.005 -0.06,-0.011 -0.094,-0.035c-0.037,-0.026 -0.044,-0.073 -0.044,-0.11c0,-0.04 0.012,-0.078 0.047,-0.106c0.036,-0.029 0.054,-0.032 0.094,-0.034l0.007,-0c0.038,-0 0.063,0.011 0.089,0.029c0.005,0.003 0.009,0.006 0.01,0.006c0.001,-0 0.002,-0.001 0.003,-0.002c0.002,-0.003 0.002,-0.007 0.004,-0.013c0.001,-0.007 0.003,-0.015 0.003,-0.025c0.001,-0.004 0.001,-0.007 0.001,-0.01c0,-0.01 -0.003,-0.015 -0.006,-0.018c-0.004,-0.003 -0.007,-0.006 -0.011,-0.008c-0.005,-0.003 -0.01,-0.005 -0.014,-0.009c-0.016,-0.01 -0.042,-0.011 -0.096,-0.014l-0.004,0c-0.054,0 -0.103,0.031 -0.139,0.063c-0.032,0.03 -0.05,0.105 -0.05,0.147l0,0.006c0.002,0.042 0.015,0.094 0.059,0.138c0.043,0.043 0.09,0.055 0.133,0.058l0.008,0c0.018,0 0.033,-0.003 0.048,-0.006c0.017,-0.004 0.033,-0.011 0.051,-0.017c0.019,-0.007 0.021,-0.012 0.022,-0.016Z" style="fill-rule:nonzero;"/>
      </g>
      <g transform="matrix(208.333,0,0,208.333,253.158,293.642)">
        <path d="M0.308,-0.38c-0.007,-0.003 -0.031,-0.011 -0.058,-0.011c-0.027,0 -0.064,0.024 -0.077,0.049c-0.003,0.006 -0.007,0.012 -0.012,0.015c-0.003,0.001 -0.005,0.001 -0.006,0.001c-0.005,0 -0.009,-0.003 -0.011,-0.006c-0.003,-0.006 -0.004,-0.014 -0.004,-0.022l0,-0.007c0,-0.017 -0.018,-0.024 -0.031,-0.024c-0.025,0 -0.028,0.008 -0.029,0.013c0,0.001 -0.001,0.002 -0.001,0.004c0,0.003 0.001,0.008 0.002,0.013c0.001,0.007 0.002,0.015 0.003,0.022c0.002,0.033 0.002,0.107 0.002,0.151c0,0.043 -0.002,0.088 -0.009,0.146c-0.001,0.01 -0.001,0.018 -0.001,0.023c0,0.006 0.001,0.009 0.005,0.011c0.002,0.001 0.006,0.001 0.015,0.001c0.008,-0.001 0.018,-0.002 0.03,-0.002c0.025,0 0.031,-0.017 0.031,-0.036c0,-0.014 -0.004,-0.03 -0.006,-0.042c-0.004,-0.02 -0.005,-0.057 -0.005,-0.094c0,-0.02 0,-0.039 0.001,-0.056c0.003,-0.054 0.039,-0.084 0.073,-0.092c0.013,-0.003 0.022,-0.004 0.031,-0.004c0.012,0 0.02,0.002 0.033,0.007c0.002,0 0.005,0.003 0.007,0.003c0.003,0 0.004,-0.001 0.005,-0.004c0.002,-0.001 0.004,-0.005 0.005,-0.01c0.003,-0.005 0.005,-0.011 0.007,-0.018c0.003,-0.01 0.005,-0.017 0.005,-0.021c0,-0.005 -0.002,-0.008 -0.005,-0.01Z" style="fill-rule:nonzero;"/>
      </g>
      <g transform="matrix(208.333,0,0,208.333,322.117,293.642)">
        <path d="M0.432,-0.356c0.003,-0.005 0.004,-0.008 0.004,-0.01c0,-0.004 -0.003,-0.005 -0.006,-0.006c-0.004,-0.002 -0.01,-0.003 -0.016,-0.004l-0.015,-0.001c-0.003,0 -0.008,-0.001 -0.012,-0.001c-0.009,0 -0.018,0.002 -0.019,0.009c-0.002,0.018 -0.031,0.083 -0.042,0.107c-0.011,0.023 -0.035,0.083 -0.043,0.106c-0.008,0.026 -0.022,0.06 -0.044,0.066c-0.003,0.001 -0.006,0.002 -0.008,0.002c-0.01,0 -0.016,-0.007 -0.02,-0.016c0,-0.004 -0.002,-0.009 -0.003,-0.015c-0.001,-0.005 -0.002,-0.011 -0.003,-0.016c-0.003,-0.011 -0.009,-0.022 -0.016,-0.037c-0.008,-0.014 -0.016,-0.03 -0.023,-0.048c-0.014,-0.036 -0.037,-0.088 -0.05,-0.126c-0.013,-0.032 -0.023,-0.034 -0.056,-0.037l-0.007,0c-0.015,0 -0.021,0.006 -0.021,0.013c0,0.014 0.014,0.032 0.021,0.039c0.009,0.01 0.02,0.032 0.032,0.054c0.011,0.022 0.024,0.046 0.036,0.065c0.005,0.01 0.011,0.021 0.016,0.033l0.014,0.036c0.01,0.024 0.019,0.047 0.033,0.063c0.018,0.022 0.025,0.043 0.025,0.06l-0,0.004c-0,0.011 -0.003,0.021 -0.006,0.028c-0.008,0.013 -0.019,0.032 -0.031,0.067c-0.006,0.018 -0.016,0.035 -0.025,0.05c-0.009,0.015 -0.018,0.029 -0.026,0.045c-0.003,0.005 -0.005,0.01 -0.005,0.012c-0,0.012 0.015,0.012 0.04,0.014c0.002,0 0.005,0.001 0.007,0.001c0.012,0 0.017,-0.004 0.02,-0.008c0.003,-0.004 0.005,-0.008 0.007,-0.014l0.007,-0.02c0.006,-0.015 0.011,-0.03 0.016,-0.044c0.006,-0.015 0.012,-0.03 0.02,-0.045c0.016,-0.03 0.043,-0.111 0.063,-0.149c0.019,-0.037 0.045,-0.101 0.06,-0.132c0.015,-0.031 0.057,-0.112 0.076,-0.145Z" style="fill-rule:nonzero;"/>
      </g>
      <g transform="matrix(208.333,0,0,208.333,419.617,293.642)">
        <path d="M0.166,-0.514c-0.001,-0.027 -0.025,-0.052 -0.05,-0.055l-0.007,0c-0.026,0 -0.044,0.016 -0.046,0.039c0.001,0.031 0.028,0.056 0.057,0.056c0.03,0 0.042,-0.017 0.046,-0.04Zm-0.012,0.481c-0.003,-0.023 -0.012,-0.11 -0.012,-0.153c0,-0.02 -0.001,-0.04 -0.001,-0.061c0,-0.027 0.001,-0.055 0.004,-0.089c0,-0.006 0.001,-0.011 0.001,-0.016c0,-0.032 -0.01,-0.034 -0.026,-0.034c-0.026,0 -0.032,0.006 -0.032,0.024c0,0.003 0.001,0.006 0.001,0.011c0.002,0.03 0.004,0.114 0.004,0.157c0,0.043 -0.008,0.119 -0.008,0.156c0,0.035 0.002,0.041 0.032,0.041c0.028,-0 0.038,-0.013 0.038,-0.029c0,-0.002 -0.001,-0.005 -0.001,-0.007Z" style="fill-rule:nonzero;"/>
      </g>
      <g transform="matrix(208.333,0,0,208.333,470.658,293.642)">
        <path d="M0.411,-0.05c-0.003,-0.026 -0.006,-0.108 -0.006,-0.166c0,-0.012 0.001,-0.024 0.001,-0.033l0,-0.004c0,-0.046 -0.024,-0.086 -0.038,-0.103c-0.014,-0.018 -0.044,-0.035 -0.083,-0.036l-0.007,0c-0.033,0 -0.053,0.012 -0.087,0.044c-0.014,0.013 -0.025,0.017 -0.032,0.018c-0.006,0 -0.009,-0.003 -0.011,-0.006c-0.002,-0.005 -0.003,-0.011 -0.003,-0.017c0,-0.006 0,-0.011 0.001,-0.016c0,-0.017 -0.016,-0.02 -0.028,-0.02c-0.011,0 -0.03,0.001 -0.034,0.01c-0.001,0.003 -0.002,0.007 -0.002,0.012c0.001,0.006 0.002,0.011 0.002,0.018c0.002,0.028 0.014,0.091 0.014,0.132c0,0.041 -0.002,0.091 -0.01,0.157c-0.002,0.012 -0.002,0.021 -0.002,0.029c0,0.029 0.01,0.035 0.033,0.035c0.003,0 0.007,-0.001 0.012,-0.001c0.02,-0.001 0.024,-0.007 0.025,-0.01l0,-0.007c0,-0.007 -0.001,-0.015 -0.002,-0.02c-0.004,-0.022 -0.008,-0.102 -0.008,-0.137c0,-0.033 0.005,-0.088 0.026,-0.117c0.022,-0.03 0.055,-0.047 0.085,-0.047l0.014,0c0.006,0 0.013,0 0.019,0.002c0.011,0.002 0.021,0.008 0.035,0.019c0.017,0.013 0.024,0.03 0.027,0.051c0.002,0.012 0.002,0.026 0.002,0.041l-0,0.032c-0,0.057 -0.008,0.089 -0.012,0.145c-0,0.004 -0.001,0.009 -0.001,0.012c-0,0.037 0.017,0.038 0.047,0.038c0.021,0 0.026,-0.011 0.026,-0.027c-0,-0.009 -0.002,-0.019 -0.003,-0.028Z" style="fill-rule:nonzero;"/>
      </g>
      <g transform="matrix(208.333,0,0,208.333,571.492,293.642)">
        <path d="M0.439,-0.326c0.001,-0.006 0.001,-0.011 0.001,-0.016c0,-0.024 -0.01,-0.029 -0.031,-0.031c-0.005,-0.001 -0.008,-0.001 -0.012,-0.001c-0.011,0 -0.014,0.003 -0.014,0.01c0,0.006 0.002,0.012 0.002,0.018c0,0.006 -0.001,0.015 -0.009,0.021c-0.002,0.003 -0.005,0.004 -0.009,0.004c-0.006,-0 -0.013,-0.004 -0.021,-0.011c-0.007,-0.008 -0.015,-0.017 -0.025,-0.023c-0.018,-0.011 -0.054,-0.029 -0.105,-0.031l-0.003,0c-0.038,0 -0.082,0.03 -0.106,0.052c-0.023,0.022 -0.06,0.069 -0.06,0.148l0,0.005c0.001,0.042 0.01,0.071 0.024,0.094c0.012,0.021 0.029,0.038 0.045,0.055l0.005,0.004c0.035,0.035 0.085,0.041 0.11,0.041c0.024,0 0.055,-0.006 0.074,-0.025c0.02,-0.02 0.044,-0.03 0.061,-0.03l0.005,0c0.012,0.002 0.014,0.014 0.015,0.023c0,0.009 -0.002,0.023 -0.003,0.041c-0.002,0.037 -0.01,0.057 -0.024,0.083c-0.017,0.03 -0.066,0.044 -0.114,0.048c-0.003,0 -0.006,0.001 -0.009,0.001c-0.049,0 -0.089,-0.036 -0.105,-0.062c-0.007,-0.012 -0.012,-0.016 -0.019,-0.018c-0.003,-0.001 -0.007,-0.001 -0.012,-0.001l-0.02,0c-0.012,0 -0.016,0.007 -0.016,0.016c0,0.006 0.003,0.015 0.006,0.02c0.003,0.007 0.01,0.015 0.018,0.024c0.008,0.009 0.018,0.018 0.027,0.026c0.016,0.016 0.06,0.035 0.118,0.04l0.011,0c0.052,0 0.097,-0.02 0.122,-0.035c0.025,-0.014 0.055,-0.06 0.065,-0.095c0.005,-0.015 0.006,-0.049 0.006,-0.085c0,-0.04 -0.001,-0.083 -0.002,-0.111c-0.001,-0.019 -0.001,-0.043 -0.001,-0.069c0,-0.048 0.001,-0.101 0.005,-0.13Zm-0.056,0.142c0,0.029 -0.002,0.065 -0.027,0.097c-0.024,0.03 -0.05,0.054 -0.11,0.054l-0.006,0c-0.032,-0.001 -0.054,-0.008 -0.069,-0.018c-0.015,-0.01 -0.025,-0.021 -0.035,-0.034c-0.02,-0.023 -0.03,-0.056 -0.031,-0.096l0,-0.01c0,-0.038 0.008,-0.071 0.035,-0.102c0.03,-0.034 0.072,-0.038 0.106,-0.038c0.045,0 0.083,0.015 0.106,0.046c0.023,0.031 0.031,0.07 0.031,0.101Z" style="fill-rule:nonzero;"/>
      </g>
      <g transform="matrix(208.333,0,0,208.333,203.679,501.975)">
        <path d="M0.296,-0.114c0,-0.032 -0.022,-0.056 -0.042,-0.076c-0.016,-0.016 -0.077,-0.049 -0.098,-0.059c-0.023,-0.01 -0.045,-0.027 -0.045,-0.052c0,-0.025 0.02,-0.035 0.045,-0.035l0.009,-0c0.032,0.001 0.049,0.012 0.073,0.032c0.008,0.007 0.012,0.008 0.014,0.008c0.003,-0 0.005,-0.002 0.007,-0.004l0.007,-0.008c0.002,-0.003 0.005,-0.006 0.006,-0.009c0.003,-0.004 0.004,-0.008 0.004,-0.011c0,-0.004 -0.001,-0.008 -0.005,-0.013c-0.014,-0.015 -0.055,-0.043 -0.115,-0.045l-0.007,-0c-0.017,-0 -0.026,0.002 -0.033,0.005c-0.008,0.004 -0.014,0.01 -0.02,0.016c-0.014,0.011 -0.031,0.031 -0.033,0.054c-0,0.004 -0.001,0.008 -0.001,0.011c-0,0.023 0.005,0.042 0.019,0.06c0.016,0.022 0.052,0.044 0.09,0.06c0.04,0.016 0.078,0.047 0.078,0.08c0,0.034 -0.028,0.054 -0.072,0.057c-0.003,-0 -0.006,0.001 -0.008,0.001c-0.043,-0 -0.073,-0.036 -0.08,-0.05c-0.002,-0.007 -0.01,-0.011 -0.016,-0.011c-0.004,-0 -0.01,0.002 -0.017,0.003c-0.015,0.004 -0.02,0.016 -0.02,0.028c0,0.004 0,0.009 0.003,0.013c0.007,0.013 0.033,0.033 0.057,0.048c0.022,0.012 0.061,0.02 0.088,0.02c0.024,-0 0.053,-0.018 0.079,-0.035c0.022,-0.015 0.032,-0.055 0.033,-0.088Z" style="fill-rule:nonzero;"/>
      </g>
      <g transform="matrix(208.333,0,0,208.333,272.637,501.975)">
        <path d="M0.458,-0.18l0,-0.005c0,-0.068 -0.032,-0.119 -0.062,-0.151c-0.03,-0.031 -0.079,-0.056 -0.135,-0.058l-0.005,-0c-0.091,-0 -0.131,0.038 -0.16,0.068c-0.03,0.03 -0.053,0.075 -0.053,0.139c0,0.064 0.038,0.126 0.069,0.154c0.03,0.027 0.075,0.047 0.133,0.047l0.006,-0c0.062,-0.002 0.11,-0.01 0.153,-0.056c0.043,-0.048 0.054,-0.065 0.054,-0.138Zm-0.057,-0.011c0,0.038 -0.014,0.09 -0.039,0.109c-0.006,0.003 -0.012,0.008 -0.02,0.013c-0.025,0.017 -0.053,0.03 -0.083,0.03c-0.004,-0 -0.008,-0 -0.013,-0.001c-0.048,-0.006 -0.071,-0.016 -0.1,-0.05c-0.029,-0.032 -0.038,-0.058 -0.038,-0.099c0,-0.04 0.007,-0.078 0.047,-0.108c0.039,-0.029 0.07,-0.033 0.102,-0.033c0.051,-0 0.088,0.014 0.109,0.051c0.01,0.017 0.019,0.028 0.025,0.041c0.005,0.013 0.01,0.027 0.01,0.047Z" style="fill-rule:nonzero;"/>
      </g>
      <g transform="matrix(208.333,0,0,208.333,376.179,501.975)">
        <path d="M0.289,-0.623l0,-0.006c0,-0.016 -0.008,-0.024 -0.019,-0.028c-0.014,-0.005 -0.031,-0.006 -0.046,-0.008c-0.029,0 -0.057,0.027 -0.075,0.045c-0.026,0.025 -0.037,0.075 -0.037,0.099l0.006,0.111c0,0.024 -0.012,0.03 -0.027,0.03c-0.009,0 -0.02,-0.002 -0.029,-0.006l-0.004,0c-0.009,0 -0.017,0.01 -0.02,0.025c-0.001,0.005 -0.002,0.007 -0.002,0.01c0,0.01 0.005,0.016 0.013,0.02c0.005,0.003 0.012,0.004 0.018,0.004c0.005,-0 0.011,-0 0.016,-0.001c0.013,-0 0.028,-0 0.034,0.014c0.003,0.005 0.003,0.01 0.003,0.016l0,0.084c0,0.029 -0.006,0.126 -0.012,0.171c-0.001,0.004 -0.001,0.007 -0.001,0.011c0,0.029 0.019,0.036 0.05,0.038l0.004,-0c0.014,-0 0.018,-0.003 0.02,-0.007c0.002,-0.005 0.002,-0.012 0.002,-0.018l0,-0.009c0,-0.023 -0.007,-0.092 -0.007,-0.137l0,-0.129c0,-0.02 0.006,-0.032 0.022,-0.035c0.006,-0.002 0.013,-0.002 0.022,-0.002c0.007,0.001 0.016,0.001 0.026,0.001c0.02,-0 0.027,-0.003 0.03,-0.006c0,-0.002 0.002,-0.005 0.003,-0.01l0.002,-0.017c0,-0.01 -0.006,-0.012 -0.012,-0.013c-0.006,-0.001 -0.013,-0.001 -0.019,-0.001l-0.023,0c-0.037,0 -0.047,-0.034 -0.05,-0.061c-0.001,-0.013 -0.002,-0.033 -0.002,-0.05c0,-0.018 0.001,-0.036 0.005,-0.048c0.008,-0.02 0.036,-0.051 0.071,-0.051l0.004,0c0.007,0 0.013,0.001 0.018,0.001c0.004,0 0.006,-0.001 0.007,-0.002c0.006,-0.004 0.006,-0.013 0.008,-0.031c0,-0.001 0.001,-0.002 0.001,-0.004Z" style="fill-rule:nonzero;"/>
      </g>
      <g transform="matrix(208.333,0,0,208.333,441.387,501.975)">
        <path d="M0.253,-0.356c0,-0.008 -0.004,-0.011 -0.012,-0.014c-0.005,-0.001 -0.011,-0.001 -0.017,-0.001c-0.007,0 -0.013,-0.001 -0.02,-0.001l-0.017,-0.002c-0.005,0 -0.009,-0.001 -0.013,-0.002c-0.009,-0.003 -0.015,-0.01 -0.015,-0.02c0,-0.014 0,-0.038 0.002,-0.077l0,-0.004c0,-0.015 -0.003,-0.02 -0.006,-0.022c-0.005,-0.004 -0.015,-0.004 -0.021,-0.004l-0.003,0c-0.015,0 -0.024,0.012 -0.025,0.018c0,0.001 -0.001,0.003 -0.001,0.004c0,0.005 0.001,0.013 0.002,0.023c0.002,0.013 0.004,0.03 0.004,0.047l0,0.005c0,0.018 -0.008,0.028 -0.021,0.031c-0.004,0.001 -0.008,0.001 -0.012,0.001c-0.007,0 -0.016,-0.001 -0.023,-0.001c-0.014,0 -0.022,0.009 -0.025,0.039c0,0.001 -0.001,0.002 -0.001,0.003c0,0.006 0.004,0.008 0.012,0.01c0.005,0.001 0.01,0.001 0.015,0.001c0.005,0 0.01,-0.001 0.014,-0.001c0.016,0 0.037,0.012 0.037,0.034c0,0.016 0.003,0.051 0.003,0.096c0,0.045 -0.006,0.131 -0.006,0.17c0,0.019 0.003,0.024 0.006,0.026l0.008,0.002l0.018,0c0.025,0 0.033,-0.003 0.033,-0.016l0,-0.007c-0.003,-0.028 -0.008,-0.1 -0.009,-0.142c-0.001,-0.014 -0.002,-0.031 -0.002,-0.048c0,-0.033 0.002,-0.067 0.003,-0.089c0.001,-0.022 0.014,-0.031 0.03,-0.032l0.003,0c0.012,0 0.023,0.003 0.035,0.004l0.004,0c0.013,0 0.02,-0.007 0.02,-0.031Z" style="fill-rule:nonzero;"/>
      </g>
      <g transform="matrix(208.333,0,0,208.333,500.554,501.975)">
        <path d="M0.168,-0.014c0,-0.015 -0.006,-0.072 -0.01,-0.096c-0.002,-0.012 -0.002,-0.06 -0.002,-0.11l0,-0.137c0,-0.063 0.004,-0.186 0.008,-0.241l0,-0.01c0,-0.037 -0.018,-0.039 -0.038,-0.042l-0.005,0c-0.014,0 -0.03,0.004 -0.03,0.009c0,0.008 0.002,0.053 0.004,0.076c0.001,0.012 0.001,0.06 0.001,0.112l0,0.132c0.001,0.015 0.001,0.04 0.001,0.068c0,0.071 -0.001,0.167 -0.004,0.212c-0.001,0.005 -0.001,0.009 -0.001,0.013c0,0.021 0.006,0.029 0.012,0.032c0.004,0.004 0.012,0.005 0.018,0.005c0.006,0 0.012,-0.001 0.017,-0.001c0.026,-0.002 0.029,-0.011 0.029,-0.022Z" style="fill-rule:nonzero;"/>
      </g>
      <g transform="matrix(208.333,0,0,208.333,551.596,501.975)">
        <path d="M0.432,-0.356c0.003,-0.005 0.004,-0.008 0.004,-0.01c0,-0.004 -0.003,-0.005 -0.006,-0.006c-0.004,-0.002 -0.01,-0.003 -0.016,-0.004l-0.015,-0.001c-0.003,0 -0.008,-0.001 -0.012,-0.001c-0.009,0 -0.018,0.002 -0.019,0.009c-0.002,0.018 -0.031,0.083 -0.042,0.107c-0.011,0.023 -0.035,0.083 -0.043,0.106c-0.008,0.026 -0.022,0.06 -0.044,0.066c-0.003,0.001 -0.006,0.002 -0.008,0.002c-0.01,0 -0.016,-0.007 -0.02,-0.016c0,-0.004 -0.002,-0.009 -0.003,-0.015c-0.001,-0.005 -0.002,-0.011 -0.003,-0.016c-0.003,-0.011 -0.009,-0.022 -0.016,-0.037c-0.008,-0.014 -0.016,-0.03 -0.023,-0.048c-0.014,-0.036 -0.037,-0.088 -0.05,-0.126c-0.013,-0.032 -0.023,-0.034 -0.056,-0.037l-0.007,0c-0.015,0 -0.021,0.006 -0.021,0.013c0,0.014 0.014,0.032 0.021,0.039c0.009,0.01 0.02,0.032 0.032,0.054c0.011,0.022 0.024,0.046 0.036,0.065c0.005,0.01 0.011,0.021 0.016,0.033l0.014,0.036c0.01,0.024 0.019,0.047 0.033,0.063c0.018,0.022 0.025,0.043 0.025,0.06l-0,0.004c-0,0.011 -0.003,0.021 -0.006,0.028c-0.008,0.013 -0.019,0.032 -0.031,0.067c-0.006,0.018 -0.016,0.035 -0.025,0.05c-0.009,0.015 -0.018,0.029 -0.026,0.045c-0.003,0.005 -0.005,0.01 -0.005,0.012c-0,0.012 0.015,0.012 0.04,0.014c0.002,0 0.005,0.001 0.007,0.001c0.012,0 0.017,-0.004 0.02,-0.008c0.003,-0.004 0.005,-0.008 0.007,-0.014l0.007,-0.02c0.006,-0.015 0.011,-0.03 0.016,-0.044c0.006,-0.015 0.012,-0.03 0.02,-0.045c0.016,-0.03 0.043,-0.111 0.063,-0.149c0.019,-0.037 0.045,-0.101 0.06,-0.132c0.015,-0.031 0.057,-0.112 0.076,-0.145Z" style="fill-rule:nonzero;"/>
      </g>
    </g>
    <g>
      <path d="M104.101,364.869c18.553,-20.513 60.595,-26.422 84.084,-11.819c-22.962,-10.858 -65.004,-4.948 -84.084,11.819" style="stroke:#000;stroke-width:0.59px;stroke-linecap:round;stroke-linejoin:round;"/>
      <path d="M216.213,364.869c18.553,-20.513 60.595,-26.422 84.085,-11.819c-22.963,-10.858 -65.005,-4.948 -84.085,11.819" style="stroke:#000;stroke-width:0.59px;stroke-linecap:round;stroke-linejoin:round;"/>
      <path d="M60.426,345.308l-0,48.577" style="fill:none;fill-rule:nonzero;stroke:#000;stroke-width:2.13px;"/>
      <path d="M330.624,363.687c0,-1.374 -1.093,-2.504 -2.459,-2.504c-1.374,-0 -2.46,1.13 -2.46,2.504c-0,1.374 1.086,2.504 2.46,2.504c1.366,0 2.459,-1.13 2.459,-2.504" style="fill-rule:nonzero;"/>
      <path d="M330.624,375.506c0,-1.374 -1.093,-2.504 -2.459,-2.504c-1.374,0 -2.46,1.13 -2.46,2.504c-0,1.374 1.086,2.504 2.46,2.504c1.366,0 2.459,-1.13 2.459,-2.504" style="fill-rule:nonzero;"/>
      <path d="M336.054,345.308l-0,48.577" style="fill:none;fill-rule:nonzero;stroke:#000;stroke-width:2.13px;"/>
      <path d="M344.741,345.308l-0,48.577" style="fill:none;fill-rule:nonzero;stroke:#000;stroke-width:6.5px;"/>
      <path d="M62.612,345.308l0,48.577" style="fill:none;fill-rule:nonzero;stroke:#000;stroke-width:6.5px;"/>
      <path d="M71.299,345.308l0,48.577" style="fill:none;fill-rule:nonzero;stroke:#000;stroke-width:2.13px;"/>
      <path d="M81.656,363.687c-0,-1.374 -1.094,-2.504 -2.46,-2.504c-1.374,-0 -2.46,1.13 -2.46,2.504c-0,1.374 1.086,2.504 2.46,2.504c1.366,0 2.46,-1.13 2.46,-2.504" style="fill-rule:nonzero;"/>
      <path d="M81.656,375.506c-0,-1.374 -1.094,-2.504 -2.46,-2.504c-1.374,0 -2.46,1.13 -2.46,2.504c-0,1.374 1.086,2.504 2.46,2.504c1.366,0 2.46,-1.13 2.46,-2.504" style="fill-rule:nonzero;"/>
      <path d="M293.209,365.673l0,42.336" style="fill:none;fill-rule:nonzero;stroke:#000;stroke-width:1.18px;"/>
      <path d="M265.182,377.492l-0,30.517" style="fill:none;fill-rule:nonzero;stroke:#000;stroke-width:1.18px;"/>
      <path d="M237.154,365.673l-0,42.336" style="fill:none;fill-rule:nonzero;stroke:#000;stroke-width:1.18px;"/>
      <path d="M97.013,377.492l0,30.517" style="fill:none;fill-rule:nonzero;stroke:#000;stroke-width:1.18px;"/>
      <path d="M153.069,377.492l0,30.517" style="fill:none;fill-rule:nonzero;stroke:#000;stroke-width:1.18px;"/>
      <path d="M209.125,377.492l0,30.517" style="fill:none;fill-rule:nonzero;stroke:#000;stroke-width:1.18px;"/>
      <path d="M181.097,365.673l0,42.336" style="fill:none;fill-rule:nonzero;stroke:#000;stroke-width:1.18px;"/>
      <path d="M125.041,365.673l0,42.336" style="fill:none;fill-rule:nonzero;stroke:#000;stroke-width:1.18px;"/>
      <path d="M180.506,365.674c0,2.032 1.463,4.299 5.297,4.299c4.912,0 10.068,-4.018 10.068,-8.177c0,-2.792 -2.364,-4.351 -5.296,-4.351c-4.587,0 -10.069,3.878 -10.069,8.229" style="fill-rule:nonzero;"/>
      <path d="M208.534,377.493c0,2.032 1.463,4.3 5.297,4.3c4.912,-0 10.068,-4.019 10.068,-8.178c0,-2.792 -2.364,-4.351 -5.296,-4.351c-4.588,0 -10.069,3.878 -10.069,8.229" style="fill-rule:nonzero;"/>
      <path d="M236.563,365.674c-0,2.032 1.462,4.299 5.296,4.299c4.912,0 10.069,-4.018 10.069,-8.177c-0,-2.792 -2.364,-4.351 -5.297,-4.351c-4.587,0 -10.068,3.878 -10.068,8.229" style="fill-rule:nonzero;"/>
      <path d="M264.591,377.493c-0,2.032 1.462,4.3 5.296,4.3c4.912,-0 10.068,-4.019 10.068,-8.178c0,-2.792 -2.363,-4.351 -5.296,-4.351c-4.587,0 -10.068,3.878 -10.068,8.229" style="fill-rule:nonzero;"/>
      <path d="M292.618,365.674c0,2.032 1.463,4.299 5.297,4.299c4.912,0 10.068,-4.018 10.068,-8.177c0,-2.792 -2.364,-4.351 -5.296,-4.351c-4.587,0 -10.069,3.878 -10.069,8.229" style="fill-rule:nonzero;"/>
      <path d="M96.422,377.493c0,2.032 1.463,4.3 5.297,4.3c4.912,-0 10.068,-4.019 10.068,-8.178c0,-2.792 -2.364,-4.351 -5.296,-4.351c-4.588,0 -10.069,3.878 -10.069,8.229" style="fill-rule:nonzero;"/>
      <path d="M124.45,365.674c0,2.032 1.463,4.299 5.297,4.299c4.912,0 10.068,-4.018 10.068,-8.177c0,-2.792 -2.364,-4.351 -5.296,-4.351c-4.588,0 -10.069,3.878 -10.069,8.229" style="fill-rule:nonzero;"/>
      <path d="M152.478,377.493c0,2.032 1.463,4.3 5.297,4.3c4.912,-0 10.068,-4.019 10.068,-8.178c-0,-2.792 -2.364,-4.351 -5.297,-4.351c-4.587,0 -10.068,3.878 -10.068,8.229" style="fill-rule:nonzero;"/>
      <path d="M208.534,405.054l85.266,-0l0,5.909l-85.266,0l0,-5.909"/>
      <path d="M96.422,405.054l85.266,-0l0,5.909l-85.266,0l0,-5.909"/>
    </g>
  </g>
</svg>
