<?xml version="1.0" encoding="UTF-8" standalone="no"?>
<!DOCTYPE svg PUBLIC "-//W3C//DTD SVG 1.1//EN" "http://www.w3.org/Graphics/SVG/1.1/DTD/svg11.dtd">
<svg width="100%" height="100%" viewBox="0 0 406 529" version="1.1" xmlns="http://www.w3.org/2000/svg" xmlns:xlink="http://www.w3.org/1999/xlink" xml:space="preserve" xmlns:serif="http://www.serif.com/" style="fill-rule:evenodd;clip-rule:evenodd;stroke-linejoin:bevel;">
  <rect id="L6-1" x="0.014" y="0.133" width="405.12" height="528" style="fill:none;"/>
  <clipPath id="_clip1">
    <rect x="0.014" y="0.133" width="405.12" height="528"/>
  </clipPath>
  <g clip-path="url(#_clip1)">
    <g id="staff-top" serif:id="staff top">
      <path d="M0.014,106.933l405.12,0" style="fill:none;fill-rule:nonzero;stroke:#000;stroke-width:1.2px;"/>
      <path d="M0.014,119.533l405.12,0" style="fill:none;fill-rule:nonzero;stroke:#000;stroke-width:1.2px;"/>
      <path d="M0.014,132.133l405.12,0" style="fill:none;fill-rule:nonzero;stroke:#000;stroke-width:1.2px;"/>
      <path d="M0.014,144.733l405.12,0" style="fill:none;fill-rule:nonzero;stroke:#000;stroke-width:1.2px;"/>
      <path d="M0.014,157.333l405.12,0" style="fill:none;fill-rule:nonzero;stroke:#000;stroke-width:1.2px;"/>
    </g>
	  <a href="L6-2.svg">
    <circle cx="364.622" cy="491.173" r="17.4" style="fill:#dc4263;"/>
	  </a>
    <g>
      <path d="M238.663,116.624c17.691,-16.949 70.762,-16.949 88.454,0c-17.692,-14.045 -70.763,-14.045 -88.454,0" style="stroke:#000;stroke-width:0.35px;stroke-linecap:round;stroke-linejoin:round;"/>
      <path d="M114.806,136.34l0,-38.711" style="fill:none;fill-rule:nonzero;stroke:#000;stroke-width:1.25px;"/>
      <path d="M44.622,148.868l0,-51.239" style="fill:none;fill-rule:nonzero;stroke:#000;stroke-width:1.25px;"/>
      <path d="M137.399,115.394l-0,41.693" style="fill:none;fill-rule:nonzero;stroke:#000;stroke-width:1.25px;"/>
      <path d="M342.772,123.812l-0,-32.378" style="fill:none;fill-rule:nonzero;stroke:#000;stroke-width:1.25px;"/>
      <path d="M228.918,127.922l0,38.611" style="fill:none;fill-rule:nonzero;stroke:#000;stroke-width:1.25px;"/>
      <path d="M380.391,142.604l0,-41.913" style="fill:none;fill-rule:nonzero;stroke:#000;stroke-width:1.25px;"/>
      <path d="M82.24,130.076l0,-32.447" style="fill:none;fill-rule:nonzero;stroke:#000;stroke-width:1.25px;"/>
      <path d="M136.772,157.09c0,0.344 0.298,0.65 0.65,0.65c0.251,-0 0.556,-0.204 0.603,-0.4c0,-0.054 0.454,-1.808 0.501,-1.957c0.047,-0.204 0.502,-2.106 2.302,-5.058c1.958,-3.258 4.965,-5.614 7.47,-9.122c2.506,-3.508 3.962,-6.82 3.962,-11.229c0,-4.557 -1.002,-8.37 -3.711,-13.232c-0.149,-0.353 -0.454,-0.548 -0.752,-0.548c-0.102,-0 -0.203,-0 -0.25,0.047c-0.251,0.101 -0.353,0.305 -0.353,0.603c0,0.148 0.055,0.352 0.149,0.602c2.005,4.659 2.811,7.314 2.811,10.923c-0,4.158 -1.456,6.319 -2.357,7.87c-3.257,5.559 -8.519,8.268 -10.625,8.973c-0.353,0.101 -0.4,0.399 -0.4,0.548l0,11.33" style="fill-rule:nonzero;"/>
      <path d="M136.772,115.395c0,2.153 1.551,4.557 5.615,4.557c5.207,0 10.672,-4.259 10.672,-8.668c-0,-2.96 -2.506,-4.612 -5.614,-4.612c-4.863,0 -10.673,4.111 -10.673,8.723" style="fill-rule:nonzero;"/>
      <path d="M238.964,119.2c-4.862,0 -10.672,4.064 -10.672,8.723c-0,2.153 1.55,4.557 5.614,4.557c5.207,0 10.672,-4.259 10.672,-8.668c0,-2.959 -2.505,-4.612 -5.614,-4.612m-6.914,10.923c-1.652,0 -2.004,-1.346 -2.004,-1.801c-0,-2.458 8.417,-6.765 10.774,-6.765c1.206,0 2.004,0.705 2.004,1.801c0,2.506 -8.472,6.765 -10.774,6.765" style="fill-rule:nonzero;"/>
      <path d="M327.117,127.923c-0,2.153 1.55,4.557 5.614,4.557c5.207,0 10.672,-4.259 10.672,-8.668c0,-2.959 -2.505,-4.612 -5.614,-4.612c-4.862,0 -10.672,4.111 -10.672,8.723" style="fill-rule:nonzero;"/>
      <path d="M364.736,146.715c0,2.153 1.551,4.557 5.614,4.557c5.207,0 10.673,-4.259 10.673,-8.668c-0,-2.959 -2.506,-4.612 -5.614,-4.612c-4.863,0 -10.673,4.111 -10.673,8.723" style="fill-rule:nonzero;"/>
      <path d="M28.97,152.979c0,2.153 1.551,4.557 5.614,4.557c5.207,0 10.673,-4.259 10.673,-8.668c-0,-2.959 -2.506,-4.612 -5.614,-4.612c-4.863,0 -10.673,4.111 -10.673,8.723" style="fill-rule:nonzero;"/>
      <path d="M66.588,134.187c0,2.153 1.551,4.557 5.614,4.557c5.207,0 10.673,-4.259 10.673,-8.668c-0,-2.959 -2.506,-4.612 -5.614,-4.612c-4.863,0 -10.673,4.111 -10.673,8.723" style="fill-rule:nonzero;"/>
      <path d="M99.155,140.451c-0,2.153 1.55,4.557 5.614,4.557c5.207,0 10.672,-4.259 10.672,-8.668c-0,-2.959 -2.506,-4.612 -5.614,-4.612c-4.863,0 -10.672,4.111 -10.672,8.723" style="fill-rule:nonzero;"/>
      <path d="M196.02,140.396c-0.047,-0.047 -0.149,-0.148 -0.298,-0.344l-5.762,-7.118c-0.055,-0.055 -0.102,-0.203 -0.102,-0.305c-0,-0.149 0.047,-0.345 0.102,-0.446l5.105,-7.721c0.055,-0.102 0.102,-0.25 0.102,-0.352l-0,-0.447c-0,-0.148 -0.047,-0.305 -0.149,-0.399l-8.12,-10.978c-0,0 -0.196,-0.305 -0.501,-0.305c-0.149,0 -0.251,0 -0.399,0.157c-0.204,0.148 -0.251,0.344 -0.251,0.501c-0,0.297 0.149,0.548 0.149,0.548l3.813,5.215c0.094,0.148 0.149,0.344 0.149,0.595c-0,0.203 -0.055,0.454 -0.149,0.603l-5.066,7.72c-0.047,0.102 -0.102,0.298 -0.102,0.399l0,0.455c0,0.148 0.055,0.297 0.157,0.399l5.606,6.969c-0.196,-0.055 -0.65,-0.157 -1.253,-0.157c-2.552,0 -4.557,2.106 -4.557,4.667c0,0.697 0.149,1.401 0.548,1.949c1.057,1.606 4.816,6.366 4.816,6.366c-0,0 0.25,0.306 0.603,0.306c0.094,-0 0.195,-0 0.297,-0.102c0.251,-0.204 0.353,-0.399 0.353,-0.603c-0,-0.204 -0.102,-0.352 -0.149,-0.454c-0.157,-0.251 -1.754,-3.156 -1.754,-3.156c-0,0 -0.352,-0.704 -0.352,-1.605c-0,-1.605 1.198,-2.905 2.803,-2.905c0.65,0 1.205,0.204 1.605,0.454l1.957,1.253c0,0 0.196,0.094 0.4,0.094c0.195,0 0.352,-0.047 0.501,-0.25c0.102,-0.149 0.149,-0.298 0.149,-0.447c-0,-0.149 -0.047,-0.25 -0.149,-0.399l-0.102,-0.157" style="fill-rule:nonzero;"/>
      <path d="M136.769,89.595l-0.047,0l-0.102,-0.047c-0.454,0 -0.752,0.298 -0.752,0.705l0,1.151c0,0.297 0.251,0.548 0.501,0.65l10.728,3.359l-10.728,3.406c-0.25,0.102 -0.501,0.352 -0.501,0.65l0,1.151c0,0.407 0.298,0.704 0.752,0.704l0.102,-0.047l0.047,0l16.693,-5.167c0.251,-0.094 0.501,-0.4 0.501,-0.697c0,-0.306 -0.25,-0.556 -0.501,-0.65l-16.693,-5.168" style="fill-rule:nonzero;"/>
      <path d="M364.732,162.884l-0.047,0l-0.101,-0.047c-0.454,0 -0.752,0.298 -0.752,0.705l-0,1.151c-0,0.297 0.251,0.548 0.501,0.65l10.727,3.359l-10.727,3.406c-0.25,0.102 -0.501,0.352 -0.501,0.65l-0,1.151c-0,0.407 0.298,0.704 0.752,0.704l0.101,-0.046l0.047,-0l16.694,-5.168c0.251,-0.094 0.501,-0.4 0.501,-0.697c0,-0.306 -0.25,-0.556 -0.501,-0.65l-16.694,-5.168" style="fill-rule:nonzero;"/>
      <path d="M342.145,88.213l39.782,9.396l0,6.303l-39.782,-9.396l0,-6.303"/>
      <path d="M45.257,92.937l70.184,0l-0,4.692l-70.184,-0l-0,-4.692"/>
    </g>
    <g>
      <path d="M273.762,311.986c-1.871,-3.011 -5.259,-4.755 -8.797,-4.531c-2.894,0.487 -5.644,1.608 -8.053,3.284c-9.492,5.801 -19.728,12.369 -29.651,19.008c-10.664,-2.416 -21.607,-3.367 -32.527,-2.828c-1.038,-1.265 -2.185,-2.436 -3.428,-3.5c-0.36,-0.311 -0.695,-0.623 -1.055,-0.934c-1.267,-1.077 -2.282,-2.419 -2.972,-3.932c-0.28,-0.808 -0.338,-1.678 -0.168,-2.516c0.377,0.285 0.769,0.549 1.175,0.791c6.561,3.555 14.728,2.413 20.063,-2.805c5.036,-5.226 6.733,-12.859 4.386,-19.727c-2.403,-6.639 -7.742,-11.809 -14.454,-13.999c-6.552,-2.038 -13.628,-1.62 -19.895,1.175c-6.896,2.934 -12.396,8.425 -15.341,15.317c-2.916,7.068 -2.403,15.102 1.391,21.741c2.844,4.18 6.407,7.824 10.522,10.762c0.048,0.024 0.072,0.072 0.12,0.096c-6.936,1.4 -13.674,3.646 -20.063,6.688c-4.471,2.245 -8.576,5.154 -12.176,8.629c-1.673,1.73 -3.101,3.682 -4.243,5.8c-0.024,0 -0.024,0.024 -0.048,0.048l0,0.024c-1.366,2.407 -2.192,5.081 -2.421,7.838c-0.816,11.848 -0.358,23.75 1.366,35.5c1.99,13.447 16.324,19.871 28.573,23.97c10.744,3.545 22.004,5.279 33.318,5.129c3.979,0 8.174,-0.191 12.584,-0.527c12.944,-1.007 29.411,-3.523 42.067,-14.214c4.123,-3.579 6.94,-8.429 8.006,-13.783c2.554,-12.443 3.056,-25.22 1.486,-37.824c-0.815,-6.544 -5.033,-12.297 -12.872,-17.57c6.137,-3.883 11.722,-7.623 17.762,-11.841c2.23,-1.367 4.122,-3.219 5.537,-5.418c1.677,-3.084 1.604,-6.835 -0.192,-9.851Zm-29.195,12.152c1.594,0.976 2.927,2.325 3.883,3.932c1.016,1.746 1.546,3.732 1.534,5.752c-1.294,0.839 -2.588,1.654 -3.931,2.493c-1.344,-0.728 -2.779,-1.276 -4.266,-1.63c-1.461,-0.413 -3.027,-0.241 -4.363,0.48c-1.166,0.739 -2.02,1.883 -2.397,3.212c-0.592,1.964 -0.747,4.034 -0.455,6.064c0.089,0.789 -0.238,1.571 -0.863,2.061c-3.476,2.757 -10.14,7.671 -16.923,12.537c0.068,-4.872 -2.886,-9.307 -7.407,-11.122c10.763,-7.695 23.107,-16.036 35.188,-23.779Zm-5.249,21.478c5.188,1.612 9.463,5.339 11.769,10.259c1.023,3.234 0.316,6.777 -1.87,9.372c-1,-3.382 -3.091,-6.341 -5.944,-8.414c-2.828,-1.994 -5.961,-3.515 -9.277,-4.506c1.031,-0.767 1.942,-1.462 2.685,-2.061c1.455,-1.144 2.402,-2.815 2.637,-4.65Zm-40.941,10.331c2.685,-2.038 5.585,-4.147 8.605,-6.328c5.055,1.149 8.295,6.219 7.215,11.289c-2.589,1.846 -5.153,3.644 -7.478,5.274c-0.283,0.219 -0.579,0.419 -0.887,0.599c0.086,-2.251 -0.516,-4.476 -1.726,-6.376c-1.364,-2.079 -3.379,-3.647 -5.729,-4.458Zm4.89,12.104c-1.19,0.492 -2.499,0.625 -3.763,0.384c-1.836,-0.562 -3.287,-1.986 -3.884,-3.811c-0.746,-2.254 -0.419,-4.73 0.887,-6.712c2.297,0.453 4.314,1.821 5.585,3.787c1.184,1.891 1.604,4.163 1.175,6.352Zm18.433,-34.564c-1.367,0.935 -2.733,1.869 -4.075,2.804c-6.481,-1.113 -13.06,-1.555 -19.631,-1.318c-0.153,-1.134 -0.418,-2.25 -0.791,-3.332c8.207,-0.213 16.414,0.406 24.497,1.846Zm-23.539,5.081c5.068,-0.168 10.142,0.064 15.173,0.696c-4.17,2.876 -8.15,5.728 -11.889,8.461c-1.822,-0 -3.667,0.096 -5.489,0.192c1.262,-2.968 2.008,-6.13 2.205,-9.349Zm-3.284,11.77c1.055,-0.048 2.086,-0.072 3.14,-0.096c-0.91,0.671 -1.821,1.342 -2.684,1.989c-4.259,3.287 -5.962,8.957 -4.219,14.047c1.142,3.338 3.878,5.895 7.287,6.807c3.945,0.646 7.983,-0.438 11.074,-2.972c6.975,-4.89 15.94,-11.338 22.172,-16.012c3.636,0.958 7.081,2.531 10.188,4.65c2.997,2.084 4.955,5.362 5.369,8.989c-0.647,0.671 -1.367,1.366 -2.158,2.061c-2.732,2.286 -5.65,4.338 -8.725,6.137l-1.222,0.767c-3.668,2.496 -6.008,6.53 -6.352,10.954c-0.036,0.19 -0.06,0.382 -0.072,0.575c-0.626,1.317 -1.788,2.303 -3.188,2.709c-1.555,0.431 -3.222,0.178 -4.578,-0.695c-0.662,-3.115 -2.75,-5.745 -5.633,-7.096c-2.812,-1.425 -5.856,-2.334 -8.989,-2.684c-1.486,-0.12 -3.02,-0.216 -4.602,-0.336c-13.951,-0.983 -31.329,-2.205 -44.129,-9.636c-1.923,-1.137 -3.689,-2.523 -5.249,-4.122c1.3,-3.22 3.615,-5.93 6.592,-7.719c3.375,-1.966 7.027,-3.413 10.834,-4.29c5.678,-1.497 11.453,-2.602 17.282,-3.308c0.542,0.946 1.426,1.649 2.469,1.965c0.345,0.089 0.699,0.129 1.055,0.12c1.235,-0.011 2.416,-0.512 3.284,-1.39c0.417,-0.419 0.772,-0.895 1.054,-1.414Zm33.678,43.122c0.004,0.057 -0.004,0.114 -0.024,0.167c-0.406,1.619 -1.832,2.791 -3.499,2.877c-1.387,0.007 -2.659,-0.788 -3.26,-2.038c0.721,0.18 1.461,0.276 2.205,0.288c0.852,-0 1.699,-0.121 2.517,-0.36c0.722,-0.227 1.414,-0.541 2.061,-0.934Zm-42.307,-44.728c-5.78,0.718 -11.506,1.823 -17.138,3.307c-4.047,0.941 -7.927,2.493 -11.506,4.603c-3.024,1.845 -5.46,4.515 -7.023,7.694c-1.1,-1.43 -1.803,-3.125 -2.037,-4.914c-0.406,-2.723 0.38,-5.494 2.157,-7.598c2.827,-2.535 6.06,-4.577 9.564,-6.041c7.869,-3.086 16.102,-5.149 24.497,-6.136c1.084,1.906 1.646,4.064 1.63,6.256c-0.024,0.264 -0.048,0.551 -0.072,0.815c-0.086,0.668 -0.11,1.342 -0.072,2.014Zm-17.69,-32.671c-3.036,-5.334 -3.435,-11.784 -1.078,-17.45c2.465,-5.741 7.064,-10.307 12.824,-12.729c3.088,-1.364 6.427,-2.074 9.803,-2.085c2.264,-0.006 4.513,0.35 6.664,1.055c5.289,1.713 9.508,5.763 11.434,10.978c1.76,5.136 0.519,10.846 -3.212,14.789c-3.806,3.675 -9.572,4.509 -14.262,2.062c-4.408,-2.691 -6.193,-8.265 -4.171,-13.016c0.168,-0.333 0.256,-0.701 0.256,-1.074c-0,-0.907 -0.519,-1.739 -1.335,-2.138c-1.178,-0.569 -2.616,-0.086 -3.212,1.079c-2.189,4.761 -1.724,10.337 1.223,14.669c-1.383,2.422 -1.646,5.329 -0.719,7.958c0.92,2.251 2.367,4.249 4.218,5.825c0.36,0.336 0.743,0.671 1.103,1.007c1.079,0.907 2.074,1.91 2.972,2.996c1.677,2.374 2.497,5.249 2.325,8.15c-0.178,3.132 -0.959,6.201 -2.301,9.037c0.024,-0.384 0.072,-0.72 0.072,-1.079c0.24,-5.969 -3.02,-11.913 -9.708,-17.666c-1.126,-0.983 -2.325,-1.917 -3.499,-2.876c-3.664,-2.59 -6.844,-5.803 -9.397,-9.492Zm-25.599,36.458c0.895,-1.622 2.008,-3.114 3.307,-4.435c3.206,-3.115 6.877,-5.711 10.883,-7.694c7.143,-3.415 14.739,-5.788 22.555,-7.047c0.998,0.929 1.935,1.922 2.805,2.972c-8.115,1.086 -16.067,3.155 -23.682,6.16c-3.961,1.671 -7.602,4.015 -10.763,6.928c-2.473,2.862 -3.6,6.654 -3.092,10.403c0.623,5.944 5.993,11.026 10.786,13.806c13.52,7.839 31.353,9.085 45.663,10.092c1.582,0.12 3.116,0.239 4.602,0.335c2.464,0.303 4.86,1.008 7.096,2.086c-15.106,0.826 -30.248,-0.678 -44.896,-4.459c-6.856,-1.773 -14.574,-4.29 -20.015,-9.731c-5.202,-5.202 -7.431,-13.496 -5.249,-19.416Zm114.384,40.988c-0.836,4.309 -3.09,8.217 -6.4,11.099c-9.061,7.646 -21.189,11.697 -39.359,13.111c-17.354,1.342 -30.921,0 -43.984,-4.386c-10.955,-3.644 -23.755,-9.253 -25.361,-20.111c-1.134,-7.803 -1.695,-15.678 -1.677,-23.563c1.152,2.082 2.588,3.994 4.266,5.681c6.232,6.232 14.718,9.037 22.196,10.978c15.29,3.94 31.099,5.484 46.862,4.579c0.551,-0.024 1.821,-0.12 2.133,0.168c0.305,0.584 0.461,1.234 0.455,1.893c0.096,0.647 0.168,1.295 0.312,1.894c0.975,3.733 4.34,6.38 8.198,6.448l0.12,-0c3.897,-0.112 7.252,-2.864 8.125,-6.664c0.227,-1.273 0.292,-2.57 0.192,-3.859c-0.199,-1.121 -0.049,-2.276 0.432,-3.308c0.727,-0.553 1.586,-0.908 2.492,-1.031c0.408,-0.096 0.815,-0.191 1.223,-0.311c7.835,-2.379 14.792,-7.026 19.991,-13.352c0.769,-0.96 1.451,-1.986 2.037,-3.068c0.1,7.992 -0.655,15.972 -2.253,23.802Zm-0.695,-42.019c2.229,6.174 1.161,13.077 -2.829,18.289c-4.601,5.549 -10.726,9.632 -17.617,11.746c-0.336,0.095 -0.696,0.191 -1.031,0.263c-0.144,0.048 -0.336,0.096 -0.48,0.144c0.628,-0.869 1.418,-1.61 2.326,-2.181l1.198,-0.743c3.248,-1.911 6.334,-4.083 9.228,-6.496c8.462,-7.455 8.486,-13.831 7.024,-17.882c-2.062,-5.657 -7.599,-10.283 -15.221,-12.848c0.01,-0.635 0.115,-1.265 0.311,-1.869c0.066,-0.221 0.163,-0.431 0.288,-0.624c0.313,-0.024 0.629,0.001 0.935,0.072c1.534,0.418 2.997,1.064 4.338,1.918c4.607,2.43 8.561,5.932 11.53,10.211Zm-1.702,-20.902c-0.887,0.6 -1.774,1.175 -2.661,1.75c-0.202,-1.933 -0.806,-3.803 -1.773,-5.489c-0.969,-1.611 -2.258,-3.006 -3.788,-4.099c0.815,-0.503 1.606,-1.007 2.421,-1.534c1.948,0.799 3.581,2.214 4.651,4.027c0.903,1.629 1.304,3.489 1.15,5.345Zm14.813,-11.074c-1.066,1.559 -2.466,2.861 -4.098,3.812c-2.829,1.989 -5.585,3.859 -8.342,5.704c-0.098,-1.741 -0.59,-3.437 -1.438,-4.961c-1.049,-1.812 -2.563,-3.31 -4.387,-4.339c2.685,-1.678 5.322,-3.308 7.91,-4.89c1.793,-1.234 3.801,-2.12 5.921,-2.613l0.312,0c1.641,0.024 3.165,0.872 4.051,2.254c0.884,1.552 0.912,3.456 0.071,5.033Z" style="fill-rule:nonzero;"/>
      <path d="M204.322,357.457c-0.161,0.092 -0.343,0.141 -0.528,0.144c-0.457,0 -0.877,-0.261 -1.078,-0.672l-0.36,-0.719c-0.08,-0.164 -0.122,-0.344 -0.122,-0.527c0,-0.659 0.542,-1.201 1.201,-1.201c0.458,0 0.877,0.262 1.078,0.674l0.36,0.695c0.081,0.164 0.123,0.345 0.123,0.528c-0,0.458 -0.263,0.877 -0.674,1.078Z" style="fill-rule:nonzero;"/>
      <path d="M212.591,356.042c0.116,0.644 -0.316,1.27 -0.959,1.391c-0.182,0.04 -0.372,0.032 -0.551,-0.024c-0.442,-0.121 -0.778,-0.485 -0.863,-0.935l-0.144,-0.767c-0.111,-0.649 0.315,-1.278 0.959,-1.414c0.644,-0.116 1.27,0.315 1.39,0.958l0.168,0.791Z" style="fill-rule:nonzero;"/>
      <path d="M209.092,361.819c0.115,0.644 -0.316,1.27 -0.959,1.39c-0.183,0.04 -0.373,0.032 -0.552,-0.023c-0.432,-0.129 -0.758,-0.491 -0.838,-0.935l-0.144,-0.767c-0.025,-0.098 -0.038,-0.197 -0.038,-0.298c0,-0.657 0.541,-1.198 1.199,-1.198c0.598,-0 1.109,0.447 1.188,1.04l0.144,0.791Z" style="fill-rule:nonzero;"/>
      <path d="M226.422,372.821c-0,0.658 -0.541,1.199 -1.199,1.199l-2.421,0.024c-0.657,-0 -1.198,-0.541 -1.198,-1.199c-0,-0.657 0.541,-1.198 1.198,-1.198l2.421,-0.024c0.658,-0 1.199,0.541 1.199,1.198Z" style="fill-rule:nonzero;"/>
      <path d="M238.766,363.617c0,0.648 -0.526,1.185 -1.174,1.198l-2.421,0.024l-0.024,0c-0.658,0 -1.199,-0.541 -1.199,-1.198c0,-0.658 0.541,-1.199 1.199,-1.199l2.421,-0.024c0.657,0 1.198,0.541 1.198,1.199Z" style="fill-rule:nonzero;"/>
      <path d="M185.889,374.02c-0,0.662 -0.537,1.209 -1.199,1.222l-2.421,0c-0.648,0.001 -1.185,-0.526 -1.198,-1.174c-0,-0.662 0.537,-1.21 1.198,-1.223l2.421,0c0.649,0 1.186,0.527 1.199,1.175Z" style="fill-rule:nonzero;"/>
      <path d="M167.264,365.798c0,0.008 0,0.016 0,0.024c0,0.658 -0.541,1.199 -1.198,1.199c-0,-0 -2.421,0.024 -2.421,0.024c-0.004,-0 -0.008,-0 -0.012,-0c-0.658,-0 -1.199,-0.541 -1.199,-1.199c0,-0.653 0.534,-1.192 1.187,-1.198l2.421,-0.024l0.024,-0c0.648,-0 1.185,0.526 1.198,1.174Z" style="fill-rule:nonzero;"/>
      <path d="M183.276,360.812c0,0.006 0,0.012 0,0.017c0,0.646 -0.529,1.178 -1.175,1.182l-2.421,0.024l-0.023,-0c-0.654,-0.01 -1.189,-0.545 -1.199,-1.199c0,-0.657 0.541,-1.198 1.199,-1.198l2.42,-0.024c0.658,-0 1.199,0.541 1.199,1.198Z" style="fill-rule:nonzero;"/>
      <path d="M162.614,406.116c-0.167,0.463 -0.611,0.771 -1.103,0.767c-0.146,-0.001 -0.292,-0.025 -0.431,-0.072c-3.552,-1.284 -6.914,-3.042 -9.996,-5.226c-1.745,-1.173 -3.17,-2.763 -4.146,-4.626c-1.012,-2.59 -1.366,-5.39 -1.031,-8.15c0.025,-0.639 0.558,-1.151 1.197,-1.151c0.017,-0 0.033,0 0.049,0.001c0.661,0.039 1.177,0.608 1.151,1.27c-0.295,2.355 -0.024,4.747 0.791,6.975c0.822,1.513 1.998,2.805 3.428,3.764c2.9,2.056 6.07,3.701 9.42,4.89c0.455,0.18 0.756,0.623 0.756,1.114c0,0.152 -0.029,0.302 -0.085,0.444Z" style="fill-rule:nonzero;"/>
      <path d="M167.624,407.818c-0.158,0.486 -0.616,0.817 -1.127,0.814c-0.13,0.008 -0.26,-0.008 -0.383,-0.047l-1.271,-0.432c-0.482,-0.158 -0.81,-0.611 -0.81,-1.118c-0,-0.134 0.023,-0.266 0.067,-0.392c0.204,-0.624 0.886,-0.97 1.51,-0.767l1.271,0.431c0.614,0.215 0.948,0.893 0.743,1.511Z" style="fill-rule:nonzero;"/>
      <path d="M184.163,412.396c-0.123,0.551 -0.611,0.949 -1.175,0.959c-0.08,0.005 -0.161,-0.003 -0.239,-0.024c-4.108,-0.803 -8.148,-1.925 -12.081,-3.356c-0.457,-0.18 -0.759,-0.624 -0.759,-1.115c-0,-0.658 0.541,-1.199 1.198,-1.199c0.128,0 0.255,0.021 0.376,0.061c3.817,1.388 7.736,2.477 11.721,3.26c0.567,0.104 0.982,0.602 0.982,1.178c0,0.079 -0.008,0.158 -0.023,0.236Z" style="fill-rule:nonzero;"/>
      <path d="M258.709,321.238c-0.216,0.233 -0.521,0.364 -0.839,0.36c-0.311,-0.003 -0.611,-0.123 -0.839,-0.336l-1.15,-1.15c-0.226,-0.226 -0.353,-0.532 -0.353,-0.851c0,-0.661 0.544,-1.204 1.204,-1.204c0.319,0 0.625,0.127 0.851,0.353l1.126,1.15c0.23,0.219 0.36,0.522 0.36,0.839c0,0.317 -0.13,0.621 -0.36,0.839Z" style="fill-rule:nonzero;"/>
      <path d="M261.25,319.968c-0.18,0.11 -0.388,0.168 -0.599,0.168c-0.42,-0.001 -0.81,-0.219 -1.031,-0.576l-0.983,-1.63c-0.115,-0.188 -0.176,-0.404 -0.176,-0.625c0,-0.421 0.222,-0.813 0.584,-1.029c0.568,-0.328 1.303,-0.146 1.654,0.408l0.959,1.63c0.118,0.189 0.181,0.407 0.181,0.63c0,0.421 -0.225,0.812 -0.589,1.024Z" style="fill-rule:nonzero;"/>
      <path d="M264.702,317.715c-0.222,0.188 -0.5,0.297 -0.791,0.311c-0.347,-0.002 -0.678,-0.15 -0.911,-0.407c-0.201,-0.224 -0.471,-0.376 -0.767,-0.432c-0.575,-0.096 -1.001,-0.599 -1.001,-1.182c-0,-0.07 0.006,-0.139 0.018,-0.208c0.126,-0.643 0.743,-1.079 1.39,-0.983c0.832,0.15 1.591,0.571 2.158,1.199c0.199,0.22 0.309,0.506 0.309,0.803c-0,0.344 -0.148,0.671 -0.405,0.899Z" style="fill-rule:nonzero;"/>
      <path d="M205.712,304.052c-0.747,2.544 -2.483,4.686 -4.818,5.944c-0.172,0.11 -0.372,0.169 -0.575,0.168c-0.002,0 -0.004,0 -0.006,0c-0.658,0 -1.199,-0.541 -1.199,-1.198c0,-0.44 0.242,-0.846 0.629,-1.055c3.669,-1.998 5.053,-6.655 3.068,-10.331c-0.096,-0.177 -0.146,-0.374 -0.146,-0.575c-0,-0.66 0.542,-1.202 1.201,-1.202c0.439,0 0.845,0.241 1.055,0.626c1.258,2.337 1.542,5.078 0.791,7.623Z" style="fill-rule:nonzero;"/>
      <path d="M202.835,294.919l-1.318,0.815c-0.186,0.12 -0.402,0.187 -0.623,0.192c-0.415,0.003 -0.803,-0.205 -1.031,-0.551c-0.119,-0.191 -0.182,-0.411 -0.182,-0.636c-0,-0.414 0.214,-0.8 0.566,-1.018l1.294,-0.839c0.191,-0.12 0.411,-0.183 0.636,-0.183c0.414,0 0.8,0.215 1.018,0.566c0.354,0.553 0.192,1.299 -0.36,1.654Z" style="fill-rule:nonzero;"/>
      <path d="M200.319,292.163l-0.935,0.934c-0.228,0.23 -0.539,0.36 -0.863,0.36c-0.316,-0.005 -0.618,-0.134 -0.839,-0.36c-0.23,-0.218 -0.36,-0.522 -0.36,-0.839c-0,-0.317 0.13,-0.62 0.36,-0.838l0.959,-0.959c0.463,-0.454 1.215,-0.454 1.678,-0c0.226,0.225 0.354,0.531 0.354,0.851c0,0.319 -0.128,0.626 -0.354,0.851Z" style="fill-rule:nonzero;"/>
    </g>
    <path d="M349.184,221.559l-308.658,-13.423l308.658,-13.423" style="fill:none;fill-rule:nonzero;stroke:#000;stroke-width:2px;"/>
  </g>
</svg>
