<?xml version="1.0" encoding="UTF-8" standalone="no"?>
<!DOCTYPE svg PUBLIC "-//W3C//DTD SVG 1.1//EN" "http://www.w3.org/Graphics/SVG/1.1/DTD/svg11.dtd">
<svg width="100%" height="100%" viewBox="0 0 1688 2200" version="1.1" xmlns="http://www.w3.org/2000/svg" xmlns:xlink="http://www.w3.org/1999/xlink" xml:space="preserve" xmlns:serif="http://www.serif.com/" style="fill-rule:evenodd;clip-rule:evenodd;stroke-linecap:round;stroke-linejoin:round;stroke-miterlimit:1.5;">
  <rect id="CHOICE-TO-PREFIGHT" x="0" y="0" width="1688" height="2200" style="fill:none;"/>
  <g id="S">
    <g id="Root-Markers" serif:id="Root Markers">
      <path id="_6" serif:id="6" d="M845.354,1363.62l-36.299,-100.833l72.599,-0l-36.3,100.833Zm0,-56.575l-9.034,-25.095c0,-0 18.069,-0 18.069,-0l-9.035,25.095Z"/>
    </g>
    <g id="Ring">
      <path d="M1255.43,1233c-130.888,226.701 -421.195,304.499 -647.884,173.623c-226.688,-130.876 -304.465,-421.183 -173.577,-647.884c130.889,-226.701 421.196,-304.499 647.884,-173.623c226.688,130.876 304.466,421.183 173.577,647.884Z" style="fill:none;stroke:#000;stroke-width:10px;"/>
      <path d="M1255.43,1233l-26.257,-15.159" style="fill:none;stroke:#000;stroke-width:10px;"/>
      <path d="M460.231,773.897l-26.258,-15.159" style="fill:none;stroke:#000;stroke-width:10px;"/>
      <path d="M622.71,1380.37l-15.16,26.257" style="fill:none;stroke:#000;stroke-width:10px;"/>
      <path d="M1081.86,585.115l-15.16,26.257" style="fill:none;stroke:#000;stroke-width:10px;"/>
      <path d="M1081.85,1406.6l-15.16,-26.256" style="fill:none;stroke:#000;stroke-width:10px;"/>
      <path d="M622.72,611.389l-15.16,-26.257" style="fill:none;stroke:#000;stroke-width:10px;"/>
      <path d="M460.201,1217.86l-26.257,15.159" style="fill:none;stroke:#000;stroke-width:10px;"/>
      <path d="M1255.46,758.721l-26.258,15.159" style="fill:none;stroke:#000;stroke-width:10px;"/>
      <path d="M844.704,1470.16l-0,-30.319" style="fill:none;stroke:#000;stroke-width:10px;"/>
      <path d="M844.704,551.892l-0,-30.319" style="fill:none;stroke:#000;stroke-width:10px;"/>
      <path d="M400.736,995.868l-30.319,0" style="fill:none;stroke:#000;stroke-width:10px;"/>
      <path d="M1318.99,995.868l-30.32,0" style="fill:none;stroke:#000;stroke-width:10px;"/>
    </g>
    <g id="Notes">
      <path id="_8" serif:id="8" d="M504.492,1277.29c-21.989,38.086 -70.763,51.155 -108.849,29.166c-38.087,-21.989 -51.156,-70.762 -29.167,-108.848c21.99,-38.085 70.764,-51.154 108.85,-29.165c38.087,21.989 51.156,70.762 29.166,108.847Z" style="stroke:#fff;stroke-width:24px;"/>
      <path id="_61" sound="3F-Low-Gb" serif:id="6" d="M913.712,1512.34c-21.99,38.086 -70.763,51.154 -108.85,29.166c-38.087,-21.989 -51.155,-70.762 -29.166,-108.848c21.989,-38.086 70.763,-51.154 108.85,-29.166c38.086,21.989 51.155,70.762 29.166,108.848Z" style="stroke:#fff;stroke-width:24px;"/>
      <path id="_3" sound="3F-Mid-Eb" serif:id="3" d="M1386.1,1040.32c-21.989,38.086 -70.763,51.154 -108.849,29.166c-38.087,-21.989 -51.156,-70.762 -29.167,-108.848c21.99,-38.086 70.764,-51.154 108.85,-29.165c38.087,21.988 51.156,70.761 29.166,108.847Z" style="stroke:#fff;stroke-width:24px;"/>
      <path id="_0" sound="3F-Mid-C" serif:id="0" d="M913.712,566.597c-21.99,38.086 -70.763,51.155 -108.85,29.166c-38.087,-21.989 -51.155,-70.762 -29.166,-108.848c21.989,-38.085 70.763,-51.154 108.85,-29.165c38.086,21.989 51.155,70.762 29.166,108.847Z" style="stroke:#fff;stroke-width:24px;"/>
    </g>
    <g id="Treble-Marker" serif:id="Treble Marker">
      <g id="_81" sound="3F-High-Ab" serif:id="8">
        <path id="_8u" serif:id="8u" d="M504.492,1277.29c-21.989,38.086 -70.763,51.155 -108.849,29.166c-38.087,-21.989 -51.156,-70.762 -29.167,-108.848c21.99,-38.085 70.764,-51.154 108.85,-29.165c38.087,21.989 51.156,70.762 29.166,108.847Z" style="fill:#fff;stroke:#fff;stroke-width:33.33px;"/>
        <circle id="_8a" serif:id="8a" cx="435.484" cy="1237.45" r="64" style="fill:#fff;stroke:#000;stroke-width:16.67px;"/>
      </g>
    </g>
  </g>
	<a xlink:href="PREFIGHT.svg">
  <g id="NEXTLINK">
    <path d="M914,1895c-0,-19.317 -15.683,-35 -35,-35l-70,0c-19.317,0 -35,15.683 -35,35l-0,78c-0,19.317 15.683,35 35,35l70,0c19.317,0 35,-15.683 35,-35l-0,-78Z" style="fill:#fff;"/>
    <path id="next" d="M814.167,1896.5c-0.2,-1.733 -0.4,-7.2 -0.4,-11.067c-0,-0.8 0.066,-1.6 0.066,-2.2l0,-0.266c0,-3.067 -1.6,-5.734 -2.533,-6.867c-0.933,-1.2 -2.933,-2.333 -5.533,-2.4l-0.467,0c-2.2,0 -3.533,0.8 -5.8,2.933c-0.933,0.867 -1.667,1.134 -2.133,1.2c-0.4,0 -0.6,-0.2 -0.734,-0.4c-0.133,-0.333 -0.2,-0.733 -0.2,-1.133c0,-0.4 0,-0.733 0.067,-1.067c-0,-1.133 -1.067,-1.333 -1.867,-1.333c-0.733,0 -2,0.067 -2.266,0.667c-0.067,0.2 -0.134,0.466 -0.134,0.8c0.067,0.4 0.134,0.733 0.134,1.2c0.133,1.866 0.933,6.066 0.933,8.8c-0,2.733 -0.133,6.066 -0.667,10.466c-0.133,0.8 -0.133,1.4 -0.133,1.934c-0,1.933 0.667,2.333 2.2,2.333c0.2,0 0.467,-0.067 0.8,-0.067c1.333,-0.066 1.6,-0.466 1.667,-0.666l-0,-0.467c-0,-0.467 -0.067,-1 -0.134,-1.333c-0.266,-1.467 -0.533,-6.8 -0.533,-9.134c-0,-2.2 0.333,-5.866 1.733,-7.8c1.467,-2 3.667,-3.133 5.667,-3.133l0.933,0c0.4,0 0.867,0 1.267,0.133c0.733,0.134 1.4,0.534 2.333,1.267c1.134,0.867 1.6,2 1.8,3.4c0.134,0.8 0.134,1.733 0.134,2.733l-0,2.134c-0,3.8 -0.534,5.933 -0.8,9.666c-0,0.267 -0.067,0.6 -0.067,0.8c-0,2.467 1.133,2.534 3.133,2.534c1.4,-0 1.734,-0.734 1.734,-1.8c-0,-0.6 -0.134,-1.267 -0.2,-1.867Z" style="fill-rule:nonzero;"/>
    <path d="M848.167,1886.7c-0,-0.067 0.066,-0.133 0.066,-0.267c0,-0.066 -0.066,-0.266 -0.066,-0.466l-0.267,-1.4c-0.467,-2.134 -2.8,-5.667 -4.533,-7.734c-1.734,-1.866 -5.067,-3 -7.867,-3.133l-0.733,0c-2.867,0 -5.134,1.4 -7.467,2.933l-0.533,0.334c-2.534,1.533 -4.334,6.6 -4.467,10.6l-0,0.2c-0,3.8 2.867,8 5.133,10.533c2.2,2.333 6.734,2.4 9,2.4c2.134,0 3.867,-0.533 5,-1.133c0.467,-0.267 1.134,-0.8 1.934,-1.467c0.733,-0.667 1.533,-1.333 2.4,-2c0.666,-0.467 1,-1 1,-1.533c-0,-0.6 -0.334,-1.2 -1.334,-2c-0.333,-0.267 -0.666,-0.4 -0.866,-0.4c-0.334,-0 -0.534,0.2 -0.8,0.4c-0.467,0.533 -0.8,1.2 -1.067,1.866c-0.533,1.2 -3.2,2.534 -6.533,2.534l-0.534,-0c-2.2,-0.067 -4.066,-0.734 -5.733,-2.067l-1,-0.8c-1.067,-0.933 -2.133,-3.6 -2.133,-5.267l-0,-0.466c0.2,-0.8 1.8,-1.267 3.8,-1.334c1.666,0 3.533,0.067 4.533,0.067c1.4,0 5.267,0.067 8.267,0.067c1.533,-0 2.866,-0 3.6,-0.067c1.133,0 1.2,-0.267 1.2,-0.4Zm-4.734,-4.4c0.2,0.333 0.267,0.6 0.267,0.867c-0,0.733 -0.6,1.2 -1.8,1.2c-2.6,-0 -5.467,0.066 -6.6,0.066c-1.2,0 -4.733,-0.066 -5.467,-0.266c-0.733,-0.067 -2.333,-0.934 -2.333,-2.134c-0,-0.4 0.133,-0.8 0.467,-1.2c1.066,-1.466 4,-3.466 7.466,-3.466l0.267,-0c3.133,0.133 4.2,1.066 5.733,2.533c0.667,0.667 1.6,1.533 2,2.4Z" style="fill-rule:nonzero;"/>
    <path d="M877.633,1899.3c-0.133,-1.467 -1.866,-2.933 -2.933,-3.8c-0.867,-0.733 -1.667,-1.667 -2.467,-2.6c-0.733,-0.933 -1.4,-1.867 -1.866,-2.4c-0.534,-0.533 -1.2,-1.067 -1.8,-1.733c-0.534,-0.667 -1.067,-1.4 -1.067,-2.334l-0,-0.266c0.067,-1.4 2.067,-3 3.133,-4c0.4,-0.334 0.667,-0.667 0.867,-0.934c0.333,-0.666 1.067,-1.466 1.867,-2.333l2.533,-3.067c0.4,-0.466 0.667,-0.8 0.667,-1c-0,-0.066 -0.067,-0.066 -0.067,-0.133c-0.2,-0.133 -0.467,-0.2 -0.933,-0.267l-1.4,-0.133c-0.267,0 -0.467,-0.067 -0.667,-0.067c-1.333,0 -2.133,0.534 -2.733,1.934c-0.467,0.933 -1,1.733 -1.534,2.4c-0.466,0.733 -1,1.4 -1.4,2.2c-0.866,1.933 -1.733,3 -2.933,3c-0.667,-0 -1.4,-0.6 -1.933,-1.467c-0.467,-0.733 -0.934,-1.6 -1.4,-2.267l-1.467,-2.066c-0.533,-0.734 -1,-1.534 -1.267,-2.2c-0.4,-1 -1.666,-1.6 -3.2,-1.667c-0.666,0 -1.666,0.067 -1.666,0.867c-0,0.466 0.466,1.133 0.666,1.4c0.667,0.733 2.6,3.4 4.667,5.866c1.067,1.2 1.733,1.867 2.2,2.467c0.4,0.667 0.667,1.2 0.667,2.133c-0,1.4 -0.934,2.534 -1.667,3.334l-2.467,2.666c-0.533,0.6 -1.533,1.667 -2.533,2.867l-3.067,3.133c-0.266,0.267 -0.466,0.4 -0.466,0.534c-0,0.066 0.066,0.066 0.2,0.066c0.266,0.067 0.666,0.134 1.133,0.134c0.533,0.066 1.133,0.066 1.733,0.066c1.134,0 1.534,-0.2 1.8,-0.466c0.267,-0.067 0.334,-0.267 0.6,-0.534l0.8,-0.933c0.6,-0.667 1.2,-1.467 1.734,-2.267l0.2,-0.2c0.466,-0.666 0.933,-1.333 1.466,-1.933c0.534,-0.533 0.867,-1.267 1.267,-1.867c0.533,-0.666 1.2,-1.333 2.267,-1.333c1.533,0 2.333,1.667 3,2.867l0.066,0.266c0.267,0.467 0.334,0.734 0.467,0.867c0.667,0.8 2,2.667 3.467,4.867c0.666,1 1.066,1.133 1.4,1.133c0.266,0 0.6,0 0.866,-0.067c0.334,-0.066 0.734,-0.2 1.134,-0.2l0.533,0c0.867,0 1.4,-0.066 1.533,-0.533Z" style="fill-rule:nonzero;"/>
    <path d="M896.433,1876.1c0,-0.533 -0.266,-0.733 -0.8,-0.933c-0.333,-0.067 -0.733,-0.067 -1.133,-0.067c-0.467,0 -0.867,-0.067 -1.333,-0.067l-1.134,-0.133c-0.333,0 -0.6,-0.067 -0.866,-0.133c-0.6,-0.2 -1,-0.667 -1,-1.334c-0,-0.933 -0,-2.533 0.133,-5.133l-0,-0.267c-0,-1 -0.2,-1.333 -0.4,-1.466c-0.333,-0.267 -1,-0.267 -1.4,-0.267l-0.2,0c-1,0 -1.6,0.8 -1.667,1.2c0,0.067 -0.066,0.2 -0.066,0.267c-0,0.333 0.066,0.866 0.133,1.533c0.133,0.867 0.267,2 0.267,3.133l-0,0.334c-0,1.2 -0.534,1.866 -1.4,2.066c-0.267,0.067 -0.534,0.067 -0.8,0.067c-0.467,0 -1.067,-0.067 -1.534,-0.067c-0.933,0 -1.466,0.6 -1.666,2.6c-0,0.067 -0.067,0.134 -0.067,0.2c-0,0.4 0.267,0.534 0.8,0.667c0.333,0.067 0.667,0.067 1,0.067c0.333,-0 0.667,-0.067 0.933,-0.067c1.067,0 2.467,0.8 2.467,2.267c-0,1.066 0.2,3.4 0.2,6.4c-0,3 -0.4,8.733 -0.4,11.333c-0,1.267 0.2,1.6 0.4,1.733l0.533,0.134l1.2,-0c1.667,-0 2.2,-0.2 2.2,-1.067l0,-0.467c-0.2,-1.866 -0.533,-6.666 -0.6,-9.466c-0.066,-0.934 -0.133,-2.067 -0.133,-3.2c-0,-2.2 0.133,-4.467 0.2,-5.934c0.067,-1.466 0.933,-2.066 2,-2.133l0.2,0c0.8,0 1.533,0.2 2.333,0.267l0.267,-0c0.867,-0 1.333,-0.467 1.333,-2.067Z" style="fill-rule:nonzero;"/>
    <circle cx="824" cy="1958" r="40" style="fill:#fff;stroke:#000;stroke-width:12.5px;"/>
    <circle cx="864" cy="1958" r="40" style="fill:none;stroke:#000;stroke-width:12.5px;"/>
  </g>
	</a>
  <g id="Header">
    <g id="Lyric-Text" serif:id="Lyric Text" transform="matrix(1,-1.2326e-32,0,1,-118.964,-1510.83)">
      <g transform="matrix(66.6667,0,0,66.6667,710.398,1776)">
        <path d="M0.432,-0.356c0.003,-0.005 0.004,-0.008 0.004,-0.01c0,-0.004 -0.003,-0.005 -0.006,-0.006c-0.004,-0.002 -0.01,-0.003 -0.016,-0.004l-0.015,-0.001c-0.003,0 -0.008,-0.001 -0.012,-0.001c-0.009,0 -0.018,0.002 -0.019,0.009c-0.002,0.018 -0.031,0.083 -0.042,0.107c-0.011,0.023 -0.035,0.083 -0.043,0.106c-0.008,0.026 -0.022,0.06 -0.044,0.066c-0.003,0.001 -0.006,0.002 -0.008,0.002c-0.01,0 -0.016,-0.007 -0.02,-0.016c0,-0.004 -0.002,-0.009 -0.003,-0.015c-0.001,-0.005 -0.002,-0.011 -0.003,-0.016c-0.003,-0.011 -0.009,-0.022 -0.016,-0.037c-0.008,-0.014 -0.016,-0.03 -0.023,-0.048c-0.014,-0.036 -0.037,-0.088 -0.05,-0.126c-0.013,-0.032 -0.023,-0.034 -0.056,-0.037l-0.007,0c-0.015,0 -0.021,0.006 -0.021,0.013c0,0.014 0.014,0.032 0.021,0.039c0.009,0.01 0.02,0.032 0.032,0.054c0.011,0.022 0.024,0.046 0.036,0.065c0.005,0.01 0.011,0.021 0.016,0.033l0.014,0.036c0.01,0.024 0.019,0.047 0.033,0.063c0.018,0.022 0.025,0.043 0.025,0.06l-0,0.004c-0,0.011 -0.003,0.021 -0.006,0.028c-0.008,0.013 -0.019,0.032 -0.031,0.067c-0.006,0.018 -0.016,0.035 -0.025,0.05c-0.009,0.015 -0.018,0.029 -0.026,0.045c-0.003,0.005 -0.005,0.01 -0.005,0.012c-0,0.012 0.015,0.012 0.04,0.014c0.002,0 0.005,0.001 0.007,0.001c0.012,0 0.017,-0.004 0.02,-0.008c0.003,-0.004 0.005,-0.008 0.007,-0.014l0.007,-0.02c0.006,-0.015 0.011,-0.03 0.016,-0.044c0.006,-0.015 0.012,-0.03 0.02,-0.045c0.016,-0.03 0.043,-0.111 0.063,-0.149c0.019,-0.037 0.045,-0.101 0.06,-0.132c0.015,-0.031 0.057,-0.112 0.076,-0.145Z" style="fill-rule:nonzero;"/>
      </g>
      <g transform="matrix(66.6667,0,0,66.6667,741.598,1776)">
        <path d="M0.458,-0.18l0,-0.005c0,-0.068 -0.032,-0.119 -0.062,-0.151c-0.03,-0.031 -0.079,-0.056 -0.135,-0.058l-0.005,-0c-0.091,-0 -0.131,0.038 -0.16,0.068c-0.03,0.03 -0.053,0.075 -0.053,0.139c0,0.064 0.038,0.126 0.069,0.154c0.03,0.027 0.075,0.047 0.133,0.047l0.006,-0c0.062,-0.002 0.11,-0.01 0.153,-0.056c0.043,-0.048 0.054,-0.065 0.054,-0.138Zm-0.057,-0.011c0,0.038 -0.014,0.09 -0.039,0.109c-0.006,0.003 -0.012,0.008 -0.02,0.013c-0.025,0.017 -0.053,0.03 -0.083,0.03c-0.004,-0 -0.008,-0 -0.013,-0.001c-0.048,-0.006 -0.071,-0.016 -0.1,-0.05c-0.029,-0.032 -0.038,-0.058 -0.038,-0.099c0,-0.04 0.007,-0.078 0.047,-0.108c0.039,-0.029 0.07,-0.033 0.102,-0.033c0.051,-0 0.088,0.014 0.109,0.051c0.01,0.017 0.019,0.028 0.025,0.041c0.005,0.013 0.01,0.027 0.01,0.047Z" style="fill-rule:nonzero;"/>
      </g>
      <g transform="matrix(66.6667,0,0,66.6667,774.731,1776)">
        <path d="M0.413,-0.339c0.001,-0.007 0.001,-0.012 0.001,-0.017c0,-0.02 -0.007,-0.027 -0.036,-0.029l-0.005,0c-0.022,0 -0.027,0.009 -0.027,0.024c0,0.005 0,0.01 0.001,0.016c0.002,0.024 0.006,0.102 0.008,0.153c0,0.008 0.001,0.016 0.001,0.024c0,0.039 -0.006,0.07 -0.024,0.092c-0.021,0.029 -0.042,0.03 -0.073,0.031l-0.003,0c-0.007,0.001 -0.014,0.001 -0.02,0.001c-0.024,0 -0.043,-0.005 -0.062,-0.032c-0.012,-0.015 -0.018,-0.035 -0.021,-0.057c-0.002,-0.021 -0.003,-0.047 -0.004,-0.076c-0.001,-0.024 -0.001,-0.042 -0.001,-0.059c0,-0.023 0.001,-0.043 0.003,-0.073l0,-0.018c0,-0.011 -0.001,-0.015 -0.002,-0.017c-0.001,0 -0.003,-0.001 -0.007,-0.002c-0.004,0 -0.01,0 -0.016,-0.001l-0.007,0c-0.023,0 -0.028,0.008 -0.028,0.017c0,0.021 0.005,0.042 0.005,0.071c0,0.027 0.001,0.123 0.001,0.165c0,0.04 0.022,0.08 0.054,0.104c0.03,0.023 0.083,0.029 0.115,0.029c0.031,0 0.078,-0.02 0.12,-0.062c0.019,-0.019 0.025,-0.049 0.025,-0.08c0,-0.031 -0.005,-0.061 -0.005,-0.078c0,-0.033 0.003,-0.093 0.007,-0.126Z" style="fill-rule:nonzero;"/>
      </g>
      <g transform="matrix(66.6667,0,0,66.6667,823.998,1776)">
        <path d="M0.363,-0.022c0,-0.004 0,-0.008 -0.001,-0.014l-0.002,-0.02c-0.001,-0.015 -0.004,-0.021 -0.009,-0.021c-0.001,0 -0.004,0.001 -0.007,0.003c-0.018,0.013 -0.048,0.028 -0.089,0.028l-0.013,0c-0.046,-0.005 -0.06,-0.011 -0.094,-0.035c-0.037,-0.026 -0.044,-0.073 -0.044,-0.11c0,-0.04 0.012,-0.078 0.047,-0.106c0.036,-0.029 0.054,-0.032 0.094,-0.034l0.007,-0c0.038,-0 0.063,0.011 0.089,0.029c0.005,0.003 0.009,0.006 0.01,0.006c0.001,-0 0.002,-0.001 0.003,-0.002c0.002,-0.003 0.002,-0.007 0.004,-0.013c0.001,-0.007 0.003,-0.015 0.003,-0.025c0.001,-0.004 0.001,-0.007 0.001,-0.01c0,-0.01 -0.003,-0.015 -0.006,-0.018c-0.004,-0.003 -0.007,-0.006 -0.011,-0.008c-0.005,-0.003 -0.01,-0.005 -0.014,-0.009c-0.016,-0.01 -0.042,-0.011 -0.096,-0.014l-0.004,0c-0.054,0 -0.103,0.031 -0.139,0.063c-0.032,0.03 -0.05,0.105 -0.05,0.147l0,0.006c0.002,0.042 0.015,0.094 0.059,0.138c0.043,0.043 0.09,0.055 0.133,0.058l0.008,0c0.018,0 0.033,-0.003 0.048,-0.006c0.017,-0.004 0.033,-0.011 0.051,-0.017c0.019,-0.007 0.021,-0.012 0.022,-0.016Z" style="fill-rule:nonzero;"/>
      </g>
      <g transform="matrix(66.6667,0,0,66.6667,850.198,1776)">
        <path d="M0.424,-0.026l0,-0.006c0,-0.008 -0.001,-0.015 -0.002,-0.023c-0.002,-0.017 -0.003,-0.065 -0.003,-0.107c0,-0.027 0,-0.053 0.001,-0.068l0,-0.007c0,-0.037 -0.011,-0.083 -0.028,-0.109c-0.017,-0.026 -0.067,-0.043 -0.093,-0.045c-0.005,0 -0.011,-0.001 -0.017,-0.001c-0.023,0 -0.049,0.005 -0.077,0.026c-0.014,0.011 -0.024,0.015 -0.031,0.015c-0.006,-0 -0.009,-0.002 -0.012,-0.005c-0.006,-0.006 -0.006,-0.017 -0.007,-0.025c-0.003,-0.009 -0.004,-0.019 -0.004,-0.031c0,-0.013 0.001,-0.027 0.003,-0.045c0.004,-0.035 0.008,-0.094 0.01,-0.152l0,-0.006c0,-0.025 -0.005,-0.032 -0.009,-0.036c-0.003,-0.003 -0.006,-0.004 -0.012,-0.005l-0.024,0c-0.023,0 -0.03,0.01 -0.03,0.028c0,0.026 0,0.074 0.003,0.134c0.004,0.061 0.007,0.202 0.007,0.241c0,0.039 -0.003,0.171 -0.006,0.212c-0.001,0.008 -0.002,0.015 -0.002,0.02c0,0.017 0.007,0.021 0.035,0.024l0.006,0c0.023,0 0.027,-0.011 0.027,-0.024c0,-0.004 -0.001,-0.008 -0.001,-0.012c-0.001,-0.012 -0.002,-0.05 -0.002,-0.091c0,-0.041 0.001,-0.085 0.002,-0.107c0.003,-0.05 0.028,-0.071 0.046,-0.085c0.02,-0.015 0.057,-0.024 0.074,-0.024c0.003,0 0.008,0 0.013,0.001c0.02,0.001 0.035,0.009 0.05,0.026c0.02,0.024 0.021,0.057 0.021,0.088l0,0.013c0,0.03 -0.007,0.13 -0.011,0.165c-0.001,0.006 -0.001,0.012 -0.001,0.017c0,0.02 0.007,0.03 0.041,0.033l0.006,-0c0.017,-0 0.023,-0.007 0.025,-0.015c0.001,-0.004 0.002,-0.009 0.002,-0.014Z" style="fill-rule:nonzero;"/>
      </g>
      <g transform="matrix(66.6667,0,0,66.6667,883.998,1776)">
        <path d="M0.458,-0.18l0,-0.005c0,-0.068 -0.032,-0.119 -0.062,-0.151c-0.03,-0.031 -0.079,-0.056 -0.135,-0.058l-0.005,-0c-0.091,-0 -0.131,0.038 -0.16,0.068c-0.03,0.03 -0.053,0.075 -0.053,0.139c0,0.064 0.038,0.126 0.069,0.154c0.03,0.027 0.075,0.047 0.133,0.047l0.006,-0c0.062,-0.002 0.11,-0.01 0.153,-0.056c0.043,-0.048 0.054,-0.065 0.054,-0.138Zm-0.057,-0.011c0,0.038 -0.014,0.09 -0.039,0.109c-0.006,0.003 -0.012,0.008 -0.02,0.013c-0.025,0.017 -0.053,0.03 -0.083,0.03c-0.004,-0 -0.008,-0 -0.013,-0.001c-0.048,-0.006 -0.071,-0.016 -0.1,-0.05c-0.029,-0.032 -0.038,-0.058 -0.038,-0.099c0,-0.04 0.007,-0.078 0.047,-0.108c0.039,-0.029 0.07,-0.033 0.102,-0.033c0.051,-0 0.088,0.014 0.109,0.051c0.01,0.017 0.019,0.028 0.025,0.041c0.005,0.013 0.01,0.027 0.01,0.047Z" style="fill-rule:nonzero;"/>
      </g>
      <g transform="matrix(66.6667,0,0,66.6667,917.131,1776)">
        <path d="M0.458,-0.18l0,-0.005c0,-0.068 -0.032,-0.119 -0.062,-0.151c-0.03,-0.031 -0.079,-0.056 -0.135,-0.058l-0.005,-0c-0.091,-0 -0.131,0.038 -0.16,0.068c-0.03,0.03 -0.053,0.075 -0.053,0.139c0,0.064 0.038,0.126 0.069,0.154c0.03,0.027 0.075,0.047 0.133,0.047l0.006,-0c0.062,-0.002 0.11,-0.01 0.153,-0.056c0.043,-0.048 0.054,-0.065 0.054,-0.138Zm-0.057,-0.011c0,0.038 -0.014,0.09 -0.039,0.109c-0.006,0.003 -0.012,0.008 -0.02,0.013c-0.025,0.017 -0.053,0.03 -0.083,0.03c-0.004,-0 -0.008,-0 -0.013,-0.001c-0.048,-0.006 -0.071,-0.016 -0.1,-0.05c-0.029,-0.032 -0.038,-0.058 -0.038,-0.099c0,-0.04 0.007,-0.078 0.047,-0.108c0.039,-0.029 0.07,-0.033 0.102,-0.033c0.051,-0 0.088,0.014 0.109,0.051c0.01,0.017 0.019,0.028 0.025,0.041c0.005,0.013 0.01,0.027 0.01,0.047Z" style="fill-rule:nonzero;"/>
      </g>
      <g transform="matrix(66.6667,0,0,66.6667,950.264,1776)">
        <path d="M0.296,-0.114c0,-0.032 -0.022,-0.056 -0.042,-0.076c-0.016,-0.016 -0.077,-0.049 -0.098,-0.059c-0.023,-0.01 -0.045,-0.027 -0.045,-0.052c0,-0.025 0.02,-0.035 0.045,-0.035l0.009,-0c0.032,0.001 0.049,0.012 0.073,0.032c0.008,0.007 0.012,0.008 0.014,0.008c0.003,-0 0.005,-0.002 0.007,-0.004l0.007,-0.008c0.002,-0.003 0.005,-0.006 0.006,-0.009c0.003,-0.004 0.004,-0.008 0.004,-0.011c0,-0.004 -0.001,-0.008 -0.005,-0.013c-0.014,-0.015 -0.055,-0.043 -0.115,-0.045l-0.007,-0c-0.017,-0 -0.026,0.002 -0.033,0.005c-0.008,0.004 -0.014,0.01 -0.02,0.016c-0.014,0.011 -0.031,0.031 -0.033,0.054c-0,0.004 -0.001,0.008 -0.001,0.011c-0,0.023 0.005,0.042 0.019,0.06c0.016,0.022 0.052,0.044 0.09,0.06c0.04,0.016 0.078,0.047 0.078,0.08c0,0.034 -0.028,0.054 -0.072,0.057c-0.003,-0 -0.006,0.001 -0.008,0.001c-0.043,-0 -0.073,-0.036 -0.08,-0.05c-0.002,-0.007 -0.01,-0.011 -0.016,-0.011c-0.004,-0 -0.01,0.002 -0.017,0.003c-0.015,0.004 -0.02,0.016 -0.02,0.028c0,0.004 0,0.009 0.003,0.013c0.007,0.013 0.033,0.033 0.057,0.048c0.022,0.012 0.061,0.02 0.088,0.02c0.024,-0 0.053,-0.018 0.079,-0.035c0.022,-0.015 0.032,-0.055 0.033,-0.088Z" style="fill-rule:nonzero;"/>
      </g>
      <g transform="matrix(66.6667,0,0,66.6667,972.331,1776)">
        <path d="M0.437,-0.197c0,-0.001 0.001,-0.002 0.001,-0.004c0,-0.001 -0.001,-0.004 -0.001,-0.007l-0.004,-0.021c-0.007,-0.032 -0.042,-0.085 -0.068,-0.116c-0.026,-0.028 -0.076,-0.045 -0.118,-0.047l-0.011,0c-0.043,0 -0.077,0.021 -0.112,0.044l-0.008,0.005c-0.038,0.023 -0.065,0.099 -0.067,0.159l0,0.003c0,0.057 0.043,0.12 0.077,0.158c0.033,0.035 0.101,0.036 0.135,0.036c0.032,0 0.058,-0.008 0.075,-0.017c0.007,-0.004 0.017,-0.012 0.029,-0.022c0.011,-0.01 0.023,-0.02 0.036,-0.03c0.01,-0.007 0.015,-0.015 0.015,-0.023c0,-0.009 -0.005,-0.018 -0.02,-0.03c-0.005,-0.004 -0.01,-0.006 -0.013,-0.006c-0.005,0 -0.008,0.003 -0.012,0.006c-0.007,0.008 -0.012,0.018 -0.016,0.028c-0.008,0.018 -0.048,0.038 -0.098,0.038l-0.008,0c-0.033,-0.001 -0.061,-0.011 -0.086,-0.031l-0.015,-0.012c-0.016,-0.014 -0.032,-0.054 -0.032,-0.079l0,-0.007c0.003,-0.012 0.027,-0.019 0.057,-0.02c0.025,0 0.053,0.001 0.068,0.001c0.021,0 0.079,0.001 0.124,0.001c0.023,0 0.043,0 0.054,-0.001c0.017,0 0.018,-0.004 0.018,-0.006Zm-0.071,-0.066c0.003,0.005 0.004,0.009 0.004,0.013c0,0.011 -0.009,0.018 -0.027,0.018c-0.039,-0 -0.082,0.001 -0.099,0.001c-0.018,-0 -0.071,-0.001 -0.082,-0.004c-0.011,-0.001 -0.035,-0.014 -0.035,-0.032c0,-0.006 0.002,-0.012 0.007,-0.018c0.016,-0.022 0.06,-0.052 0.112,-0.052l0.004,0c0.047,0.002 0.063,0.016 0.086,0.038c0.01,0.01 0.024,0.023 0.03,0.036Z" style="fill-rule:nonzero;"/>
      </g>
      <g transform="matrix(66.6667,0,0,66.6667,1020.73,1776)">
        <path d="M0.253,-0.356c0,-0.008 -0.004,-0.011 -0.012,-0.014c-0.005,-0.001 -0.011,-0.001 -0.017,-0.001c-0.007,0 -0.013,-0.001 -0.02,-0.001l-0.017,-0.002c-0.005,0 -0.009,-0.001 -0.013,-0.002c-0.009,-0.003 -0.015,-0.01 -0.015,-0.02c0,-0.014 0,-0.038 0.002,-0.077l0,-0.004c0,-0.015 -0.003,-0.02 -0.006,-0.022c-0.005,-0.004 -0.015,-0.004 -0.021,-0.004l-0.003,0c-0.015,0 -0.024,0.012 -0.025,0.018c0,0.001 -0.001,0.003 -0.001,0.004c0,0.005 0.001,0.013 0.002,0.023c0.002,0.013 0.004,0.03 0.004,0.047l0,0.005c0,0.018 -0.008,0.028 -0.021,0.031c-0.004,0.001 -0.008,0.001 -0.012,0.001c-0.007,0 -0.016,-0.001 -0.023,-0.001c-0.014,0 -0.022,0.009 -0.025,0.039c0,0.001 -0.001,0.002 -0.001,0.003c0,0.006 0.004,0.008 0.012,0.01c0.005,0.001 0.01,0.001 0.015,0.001c0.005,0 0.01,-0.001 0.014,-0.001c0.016,0 0.037,0.012 0.037,0.034c0,0.016 0.003,0.051 0.003,0.096c0,0.045 -0.006,0.131 -0.006,0.17c0,0.019 0.003,0.024 0.006,0.026l0.008,0.002l0.018,0c0.025,0 0.033,-0.003 0.033,-0.016l0,-0.007c-0.003,-0.028 -0.008,-0.1 -0.009,-0.142c-0.001,-0.014 -0.002,-0.031 -0.002,-0.048c0,-0.033 0.002,-0.067 0.003,-0.089c0.001,-0.022 0.014,-0.031 0.03,-0.032l0.003,0c0.012,0 0.023,0.003 0.035,0.004l0.004,0c0.013,0 0.02,-0.007 0.02,-0.031Z" style="fill-rule:nonzero;"/>
      </g>
      <g transform="matrix(66.6667,0,0,66.6667,1039.66,1776)">
        <path d="M0.458,-0.18l0,-0.005c0,-0.068 -0.032,-0.119 -0.062,-0.151c-0.03,-0.031 -0.079,-0.056 -0.135,-0.058l-0.005,-0c-0.091,-0 -0.131,0.038 -0.16,0.068c-0.03,0.03 -0.053,0.075 -0.053,0.139c0,0.064 0.038,0.126 0.069,0.154c0.03,0.027 0.075,0.047 0.133,0.047l0.006,-0c0.062,-0.002 0.11,-0.01 0.153,-0.056c0.043,-0.048 0.054,-0.065 0.054,-0.138Zm-0.057,-0.011c0,0.038 -0.014,0.09 -0.039,0.109c-0.006,0.003 -0.012,0.008 -0.02,0.013c-0.025,0.017 -0.053,0.03 -0.083,0.03c-0.004,-0 -0.008,-0 -0.013,-0.001c-0.048,-0.006 -0.071,-0.016 -0.1,-0.05c-0.029,-0.032 -0.038,-0.058 -0.038,-0.099c0,-0.04 0.007,-0.078 0.047,-0.108c0.039,-0.029 0.07,-0.033 0.102,-0.033c0.051,-0 0.088,0.014 0.109,0.051c0.01,0.017 0.019,0.028 0.025,0.041c0.005,0.013 0.01,0.027 0.01,0.047Z" style="fill-rule:nonzero;"/>
      </g>
      <g transform="matrix(66.6667,0,0,66.6667,1089.46,1776)">
        <path d="M0.078,-0.54c-0.008,0.022 -0.012,0.048 -0.012,0.074l0,0.008c0.001,0.011 0.004,0.023 0.004,0.036c0,0.008 -0.002,0.016 -0.004,0.023c-0.011,0.023 -0.035,0.011 -0.05,0.027c-0.007,0.007 -0.01,0.024 -0.01,0.04c0,0.009 0,0.017 0.003,0.022c0.007,0.022 0.03,0.014 0.046,0.026c0.012,0.01 0.013,0.019 0.014,0.035c0,0.01 0.001,0.018 0.001,0.027c0,0.044 -0.005,0.089 -0.005,0.133l0,0.031c0,0.017 0.001,0.035 0.007,0.047c0.007,0.013 0.027,0.019 0.047,0.019c0.012,-0 0.026,-0.003 0.034,-0.007c0.012,-0.006 0.015,-0.02 0.015,-0.035c-0,-0.015 -0.002,-0.032 -0.003,-0.042c-0.003,-0.039 -0.001,-0.077 -0.004,-0.115c-0.002,-0.015 -0.006,-0.035 -0.006,-0.055c-0,-0.015 0.002,-0.029 0.011,-0.038c0.01,-0.009 0.023,-0.01 0.037,-0.01l0.016,0c0.012,0 0.022,-0.001 0.029,-0.007c0.006,-0.005 0.008,-0.013 0.008,-0.022c0,-0.008 -0.002,-0.016 -0.002,-0.023l0,-0.007c0,-0.014 -0.002,-0.022 -0.019,-0.025c-0.032,-0.006 -0.069,0.007 -0.074,-0.036c-0.002,-0.014 -0.004,-0.031 -0.004,-0.047c-0,-0.018 0.002,-0.035 0.007,-0.05c0.011,-0.035 0.033,-0.047 0.065,-0.049l0.007,0c0.034,0 0.046,0.015 0.064,0.045c0.007,0.014 0.012,0.029 0.026,0.033c0.005,0.001 0.01,0.001 0.015,0.001c0.013,0 0.027,-0.002 0.036,-0.003c0.023,-0.002 0.029,-0.009 0.029,-0.02c-0,-0.012 -0.007,-0.026 -0.013,-0.042c-0.025,-0.068 -0.085,-0.098 -0.148,-0.098c-0.034,0 -0.067,0.008 -0.097,0.024c-0.036,0.019 -0.058,0.047 -0.07,0.08Zm0.249,0.166c-0.006,0.002 -0.01,0.004 -0.013,0.01c-0.003,0.006 -0.005,0.013 -0.005,0.02c-0,0.013 0.004,0.028 0.005,0.039l-0,0.014c-0,0.023 -0.003,0.045 -0.003,0.068l-0,0.01c-0,0.036 0.003,0.072 0.003,0.107c-0,0.02 -0.001,0.04 -0.003,0.06c-0.001,0.006 -0.002,0.012 -0.002,0.018c-0,0.027 0.014,0.033 0.04,0.033c0.006,-0 0.013,-0 0.021,-0.001l0.015,-0c0.01,-0 0.02,-0 0.026,-0.006c0.004,-0.004 0.005,-0.013 0.005,-0.021c-0,-0.009 -0.001,-0.019 -0.001,-0.025c-0,-0.048 -0.004,-0.098 -0.007,-0.146c-0.001,-0.007 -0.001,-0.015 -0.001,-0.023c-0,-0.041 0.005,-0.082 0.005,-0.122c-0,-0.027 -0.011,-0.035 -0.031,-0.035c-0.005,0 -0.009,0.001 -0.013,0.001c-0.002,0 -0.004,0.001 -0.007,0.001c-0.009,0 -0.018,-0.003 -0.026,-0.003c-0.003,0 -0.005,0.001 -0.008,0.001Z" style="fill-rule:nonzero;"/>
      </g>
      <g transform="matrix(66.6667,0,0,66.6667,1122.8,1776)">
        <path d="M0.316,-0.365c-0.021,-0.021 -0.055,-0.03 -0.09,-0.03c-0.033,0 -0.067,0.009 -0.091,0.024c-0.028,0.016 -0.053,0.033 -0.067,0.062c-0.017,0.036 -0.025,0.08 -0.025,0.123c0,0.02 0.002,0.04 0.006,0.06c0.01,0.045 0.051,0.094 0.092,0.117c0.018,0.011 0.048,0.015 0.074,0.015c0.011,-0 0.022,-0.001 0.031,-0.002c0.031,-0.005 0.054,-0.028 0.082,-0.035c0.003,-0.001 0.006,-0.001 0.008,-0.001c0.01,0 0.018,0.004 0.02,0.016l-0,0.005c-0,0.014 -0.012,0.026 -0.015,0.039c-0.005,0.013 -0.003,0.026 -0.01,0.037c-0.015,0.024 -0.043,0.032 -0.069,0.036c-0.005,0.001 -0.01,0.001 -0.014,0.001c-0.022,0 -0.039,-0.008 -0.055,-0.024c-0.015,-0.015 -0.02,-0.036 -0.044,-0.039l-0.009,-0c-0.01,-0 -0.021,0.002 -0.031,0.002c-0.004,-0 -0.009,-0.001 -0.013,-0.002c-0.01,-0.002 -0.017,-0.006 -0.024,-0.006c-0.006,-0 -0.011,0.004 -0.016,0.016c-0.004,0.005 -0.005,0.012 -0.005,0.018c-0,0.018 0.01,0.038 0.021,0.051c0.018,0.018 0.045,0.04 0.067,0.053c0.029,0.018 0.053,0.018 0.086,0.018l0.034,0c0.051,0 0.101,-0.003 0.14,-0.04c0.016,-0.016 0.03,-0.034 0.039,-0.053c0.016,-0.031 0.019,-0.06 0.019,-0.091c0,-0.015 -0.001,-0.031 -0.001,-0.046c-0.004,-0.057 -0.002,-0.115 -0.005,-0.172l0,-0.023c0,-0.024 0.001,-0.049 0.003,-0.073c0,-0.013 0.006,-0.032 0.006,-0.048c0,-0.014 -0.005,-0.025 -0.024,-0.026c-0.011,0 -0.025,-0.003 -0.038,-0.003c-0.01,0 -0.02,0.002 -0.027,0.007c-0.014,0.01 -0.005,0.039 -0.025,0.039c-0.015,0 -0.022,-0.017 -0.03,-0.025Zm-0.137,0.088c0.018,-0.014 0.046,-0.023 0.072,-0.023c0.01,0 0.02,0.002 0.029,0.004c0.032,0.009 0.073,0.05 0.074,0.085l0,0.005c0,0.032 -0.008,0.07 -0.032,0.093c-0.025,0.023 -0.042,0.032 -0.074,0.033l-0.011,0c-0.03,0 -0.053,-0.006 -0.076,-0.031c-0.023,-0.023 -0.026,-0.06 -0.026,-0.09c0.001,-0.031 0.019,-0.057 0.044,-0.076Z" style="fill-rule:nonzero;"/>
      </g>
      <g transform="matrix(66.6667,0,0,66.6667,1158,1776)">
        <path d="M0.069,-0.639c-0.003,0.009 -0.003,0.019 -0.003,0.029c0,0.024 0.004,0.049 0.005,0.071c0.005,0.076 0.006,0.152 0.006,0.228c-0,0.041 0.001,0.081 0.001,0.121c-0,0.034 -0.001,0.067 -0.002,0.1c-0.001,0.012 -0.007,0.041 -0.007,0.064c0,0.015 0.002,0.026 0.009,0.031c0.003,0.003 0.007,0.003 0.011,0.003c0.012,-0 0.027,-0.005 0.037,-0.006l0.005,-0c0.01,-0 0.02,0.002 0.029,0.002c0.005,-0 0.009,-0.001 0.013,-0.002c0.016,-0.003 0.021,-0.016 0.021,-0.031c0,-0.015 -0.005,-0.032 -0.007,-0.045c-0.005,-0.032 -0.006,-0.066 -0.006,-0.098l0,-0.004c0,-0.045 0,-0.113 0.047,-0.132c0.008,-0.003 0.018,-0.005 0.028,-0.005c0.02,-0 0.041,0.007 0.053,0.018c0.014,0.016 0.017,0.04 0.017,0.062l0,0.02c0,0.044 0,0.087 -0.003,0.131c-0.001,0.012 -0.004,0.029 -0.004,0.045c0,0.02 0.005,0.037 0.027,0.041c0.009,0.002 0.034,0.005 0.055,0.005c0.015,-0 0.027,-0.002 0.031,-0.005c0.006,-0.006 0.008,-0.018 0.008,-0.03c-0,-0.025 -0.006,-0.055 -0.007,-0.07c-0.001,-0.005 -0.001,-0.012 -0.001,-0.018c-0,-0.013 0.001,-0.027 0.001,-0.042l-0,-0.01c-0.001,-0.008 -0.001,-0.015 -0.001,-0.022c-0,-0.018 0.001,-0.037 0.001,-0.055c-0,-0.046 -0.006,-0.089 -0.047,-0.122c-0.025,-0.021 -0.054,-0.026 -0.085,-0.026c-0.007,-0 -0.015,-0 -0.022,0.001c-0.033,-0 -0.053,0.029 -0.083,0.029c-0.011,-0 -0.019,-0.007 -0.019,-0.025l-0,-0.03c-0,-0.033 0.001,-0.066 0.004,-0.099c0.002,-0.022 0.005,-0.044 0.006,-0.066c-0,-0.015 0.005,-0.033 0.005,-0.05c-0,-0.005 -0,-0.01 -0.001,-0.014c-0.005,-0.011 -0.013,-0.013 -0.026,-0.013c-0.023,0 -0.043,-0.005 -0.064,-0.007l-0.005,0c-0.016,0 -0.024,0.009 -0.027,0.026Z" style="fill-rule:nonzero;"/>
      </g>
      <g transform="matrix(66.6667,0,0,66.6667,1191.8,1776)">
        <path d="M0.191,-0.515c-0.006,-0.008 -0.017,-0.01 -0.027,-0.01c-0.007,0 -0.013,0.001 -0.018,0.001c-0.034,0.002 -0.06,-0.003 -0.06,0.04c-0,0.016 0.008,0.042 0.008,0.063c-0,0.012 -0.003,0.024 -0.011,0.03c-0.005,0.005 -0.011,0.006 -0.017,0.006c-0.005,0 -0.01,-0.001 -0.015,-0.001c-0.005,0 -0.009,0 -0.012,0.002c-0.016,0.007 -0.016,0.023 -0.018,0.038c-0.001,0.006 -0.002,0.011 -0.002,0.017c-0,0.008 0.002,0.017 0.01,0.023c0.017,0.012 0.042,-0.002 0.055,0.015c0.008,0.011 0.01,0.031 0.01,0.051c-0,0.019 -0.002,0.039 -0.002,0.051c-0,0.03 -0.001,0.059 -0.002,0.089c-0.001,0.016 -0.008,0.046 -0.008,0.069c-0,0.01 0.002,0.02 0.006,0.025c0.008,0.01 0.025,0.012 0.04,0.012c0.007,-0 0.013,-0.001 0.018,-0.001c0.008,-0 0.015,0.001 0.021,0.001c0.011,-0 0.019,-0.002 0.024,-0.015c0.002,-0.007 0.003,-0.012 0.003,-0.019c0,-0.014 -0.005,-0.029 -0.007,-0.044c-0.001,-0.019 -0.001,-0.039 -0.001,-0.057c-0.002,-0.025 -0.002,-0.05 -0.002,-0.075c0,-0.015 0,-0.031 0.001,-0.046c0.001,-0.011 0.001,-0.021 0.002,-0.031c0.007,-0.047 0.077,0.001 0.077,-0.051l0,-0.024c0,-0.008 -0.001,-0.016 -0.007,-0.021c-0.005,-0.004 -0.01,-0.005 -0.016,-0.005c-0.01,0 -0.021,0.004 -0.031,0.004c-0.005,0 -0.01,-0.001 -0.014,-0.005c-0.006,-0.005 -0.007,-0.017 -0.007,-0.027l0,-0.015c0,-0.015 0.007,-0.042 0.007,-0.065c0,-0.01 -0.002,-0.019 -0.005,-0.025Z" style="fill-rule:nonzero;"/>
      </g>
    </g>
  </g>
  <g id="Footer">
    <g id="CUB-ICON" sound="CUB" serif:id="CUB ICON">
      <rect x="1289.9" y="1861.95" width="205" height="150.089" style="fill:#fff;stroke:#000;stroke-width:1.78px;"/>
      <path d="M1314.21,1911.41c-0.924,3.032 -2.318,5.596 -3.768,8.096c0.153,0.165 0.514,0.113 0.56,0.379c2.475,-2.983 3.139,-7.785 5.273,-11.114c1.01,0.441 0.58,-0.361 1.129,-0.754c0.589,-0.087 0.603,0.404 0.566,0.941c1.992,0.514 2.523,3.289 3.199,4.516c1.608,-0.909 2.218,1.184 3.012,1.135c-0.543,2.763 0.329,5.192 0.187,7.528c0.35,0.029 0.63,0.124 0.754,0.375c-0.029,3.881 2.391,9.887 -0.185,13.182c0.052,0.389 0.699,0.179 0.751,0.566c0.208,1.27 -0.846,1.282 -0.751,2.448c0.526,0.503 0.93,-0.176 1.505,-0.185c0.886,1.349 -1.15,2.149 -0.381,3.39c0.516,0.488 0.704,-0.407 1.134,-0.566c1.051,0.979 1.138,2.437 0.754,3.578c0.266,0.361 0.915,0.341 1.32,0.563c0.08,0.985 -0.301,1.787 -0.379,2.073c0.107,0.39 0.295,0.399 0.563,0.185c0.125,0.751 -0.496,0.759 -0.378,1.507c0.436,-0.06 0.728,0.029 0.941,0.185c1.005,4.597 0.939,10.011 0.757,15.252c-0.118,3.323 0.601,7.885 0.378,11.862c-0.162,2.798 0.439,5.78 -0.759,7.53c-1.265,1.857 -3.907,3.687 -7.343,1.317c-0.976,0.598 -2.042,1.097 -2.258,2.451c-0.754,0.182 -0.563,-0.563 -1.317,-0.378c-1.048,1.53 -2.685,4.828 -1.316,6.968c1.241,-0.015 2.595,0.089 3.571,-0.185c1.196,-2.902 2.914,0.586 4.898,0.941c3.069,0.546 5.792,-1.958 8.662,-0.756c1.132,-0.436 1.961,-1.176 3.012,-1.695c0.387,-2.189 1.732,-3.419 1.882,-5.836c1.132,-2.203 5.013,-4.216 3.197,-7.534c2.084,-3.615 1.022,-11.004 3.202,-13.932c0.049,-0.548 -0.427,-0.58 -0.378,-1.132c1.475,-1.744 1.504,-3.773 2.448,-5.835c-0.413,-1.614 -0.794,-3.771 -0.753,-5.27c0.222,-0.595 0.978,-0.658 1.316,-1.135c1.551,0.419 1.903,2.969 3.581,2.637c-0.049,0.355 -0.491,1.25 -0,1.507c0.947,0.069 0.701,-1.051 1.314,-1.32c1.677,2.406 1.648,6.852 2.451,10.358c0.121,0.629 0.583,0.918 0.754,1.504c-0.662,2.709 0.921,6.462 -0.379,8.663c0.237,2.24 -0.418,6.228 -0.375,8.662c0.02,1.247 0.427,2.068 0.185,3.012c-1.011,3.907 -6.673,4.169 -6.029,9.982c0.895,0.3 1.917,0.418 3.014,0.187c0.884,1.222 2.342,0.549 3.771,0.754c2.157,0.303 4.415,2.053 6.968,1.883c1.086,-1.181 2.425,0.003 3.39,-0.188c4.135,-0.829 -0.762,-6.76 1.504,-9.416c-0.283,-0.347 -0.782,-0.471 -0.938,-0.941c0.745,-1.144 0.678,-3.581 0.378,-5.461c-0.782,-0.216 -0.733,0.396 -1.32,0.379c1.615,-3.725 -0.06,-10.73 2.261,-13.748c0.237,-0.745 -0.548,-0.456 -0.566,-0.941c1.233,-3.442 0.546,-6.549 1.317,-9.797c0.445,-1.88 0.263,-4.086 0.563,-6.402c1.014,0.15 1.331,-0.736 2.076,-1.319c0.999,-0.041 1.998,0.898 2.449,-0.185c0.73,-0.104 0.439,0.811 0.941,0.938c1.291,-0.759 2.036,-0.514 3.197,0.381c0.626,-0.06 -0.497,-0.823 0.187,-0.941c0.947,-0.257 0.621,0.76 0.942,1.129c0.641,0.139 0.306,-0.693 0.75,-0.754c1.303,-0.109 1.219,1.17 1.698,1.883c0.711,-0.355 0.514,-1.623 1.317,-1.883c0.618,0.197 0.667,0.965 0.941,1.505c1.392,0.182 1.71,-0.182 3.015,-0.754c0.543,0.315 -0.667,1.022 -0,1.507c1.331,-0.386 1.882,-0.877 2.448,-1.694c0.537,0.158 0.223,1.152 0.563,1.504c0.728,0.037 1.083,-0.3 1.132,-0.941c0.708,0.84 1.591,-0.249 2.076,-0.754c0.621,0.107 0.818,0.162 0.561,0.754c0.854,-0.676 1.484,-0.607 2.451,-0.945c2.466,1.063 3.355,4.658 3.39,7.534c0.488,0.554 1.247,-0.329 1.695,0.188c0.228,0.857 -0.517,0.739 -0.375,1.504c1.077,0.794 1.489,2.099 2.824,3.012c-0.128,0.623 -1.436,0.069 -1.505,0.753c0.425,1.08 2.079,0.939 2.639,1.883c-0.017,0.797 -1.729,-0.095 -1.504,0.941c0.782,0.347 1.917,0.341 2.451,0.941c0.194,0.699 -0.641,0.367 -0.759,0.754c0.99,1.21 1.686,2.709 2.827,3.765c-0.514,1.415 0.286,2.758 -0,4.332c-0.52,2.867 -3.725,4.871 -5.085,6.782c-2.691,0.234 -4.88,1.444 -6.211,-0.756c-2.093,0.797 -4.444,3.424 -5.088,5.648c-0.745,2.578 0.514,2.708 3.39,3.202c2.515,0.433 3.918,1.32 5.651,-0.375c1.701,0.15 2.911,0.254 3.953,-0.566c3.017,0.254 4.129,-1.398 6.78,-1.505c2.607,-2.541 5.295,-6.066 7.533,-9.794c0.907,-1.519 2.348,-3.817 2.449,-4.894c0.147,-1.713 -1.173,-3.867 -3.015,-3.769c-0.245,-0.586 0.055,-0.537 0,-1.319c-0.967,-1.115 -1.533,-2.766 -1.882,-4.892c-0.523,-3.193 -2.117,-6.436 -1.877,-9.982c0.248,-3.684 0.866,-8.18 3.765,-9.982c0.768,0.74 0.635,2.377 1.317,3.2c-0.237,1.498 -0.422,4.21 0.941,5.087c0.147,2.178 1.291,4.811 2.073,6.965c0.358,3.745 1.981,7.337 2.073,11.489c0.032,1.268 -0.436,2.481 0.185,3.769c-1.019,5.006 -1.986,11.189 -4.331,15.445c0.274,1.903 -0.505,2.754 -0.375,4.516c2.5,-0.182 5.463,1.195 8.662,1.316c2.345,0.09 4.741,-0.239 6.78,-0.941c0.323,-1.019 -0.505,-1.597 0.566,-2.261c-0.298,-2.573 -0.918,-5.509 -1.32,-7.721c-0.534,-2.893 -0.704,-6.592 -1.504,-9.038c-0.477,-1.452 -1.164,-4.715 -1.317,-6.214c-0.572,-5.737 0.566,-10.478 1.317,-15.817c0.153,-1.074 -0.491,-2.478 0.563,-3.39c1.782,0.263 0.771,3.092 1.132,4.331c1.293,-0.104 1.319,1.066 1.317,2.261c0.947,0.349 1.397,1.848 1.504,2.449c1.011,1.475 2.457,3.854 3.768,5.46c1.652,2.021 2.864,4.805 4.516,6.592c0.751,0.808 2.299,1.412 3.39,2.258c4.868,3.774 11.743,5.148 19.023,3.199c0.701,-0.199 0.54,0.468 1.132,0.381c2.636,-0.571 4.732,-2.359 6.964,-3.58c0.454,-0.246 1.008,-0.15 1.317,-0.375c0.598,-0.428 0.835,-1.184 1.32,-1.508c1.143,-0.759 3.355,-0.95 2.261,-3.011c0.254,-1.6 1.752,-1.996 2.258,-3.197c0.534,-1.276 0.386,-3.912 0.184,-5.651c-0.21,-1.839 -1.045,-3.6 -1.319,-5.272c-0.633,-0.685 -1.147,-1.49 -2.071,-1.883c0.078,-0.361 0.54,-0.341 0.376,-0.941c-1.386,-0.133 -2.27,0.24 -3.197,0.566c-0.384,0.811 -0.43,1.955 -1.319,2.261c-0.529,0.081 0.473,-0.702 -0.185,-0.754c-0.82,0.243 -0.904,1.233 -1.132,2.07c-0.251,0.309 -1.068,0.061 -1.317,0.376c-0.462,1.611 -0.918,3.225 -2.639,3.577c-0.026,1.921 -0.407,3.488 -1.316,4.516c-0.745,-0.066 0.294,-1.002 -0.754,-0.941c-0.292,0.658 -0.309,1.574 -0.563,2.261c-0.829,0.199 -0.621,-0.635 -1.32,-0.563c-1.851,2.197 -4.354,3.705 -7.158,3.765c-0.667,0.015 -0.872,-0.563 -1.132,-0.563c-0.442,0 -0.603,0.621 -0.938,0.563c-3.301,-0.56 -5.354,-3.442 -8.102,-4.706c-0.422,-3.278 -3.148,-4.262 -4.514,-6.59c0.041,-0.271 0.558,-0.066 0.561,-0.375c-0.182,-0.505 -0.419,-0.964 -0.561,-1.507c-0.537,-0.156 -0.49,0.265 -0.941,0.187c0.526,-0.675 -0.398,-1.608 -0.378,-2.636c-0.462,0.026 -0.907,0.029 -1.132,-0.188c-0.182,-0.753 0.56,-0.563 0.378,-1.319c-0.534,-0.881 -2.373,-1.346 -2.076,-2.449c0.56,-0.606 0.71,0.786 1.135,0.942c0.739,-1.427 -1.689,-2.787 -2.452,-3.956c0.003,-1.539 -1.796,-2.183 -1.132,-3.766c0.861,1.086 1.054,2.833 2.261,3.575c-0.528,-1.96 -0.854,-5.018 -2.076,-7.158c0.56,-0.006 0.933,-2.062 0.188,-2.636c-0.144,-0.708 0.999,-0.13 0.754,-0.942c-0.104,-0.649 -0.867,-0.641 -0.942,-1.319c-0.133,-0.511 0.893,0.133 0.757,-0.375c-0.095,-0.595 -0.208,-1.173 -0.757,-1.32c0.298,-1.652 1.028,-2.864 1.505,-4.331c-0.575,-0.136 -0.685,0.19 -1.135,0.187c1.805,-3.56 -1.461,-7.498 0.19,-11.861c-0.473,-1.467 -0.993,-2.541 -0.756,-4.144c-0.858,-1.034 -1.698,-2.766 -0.941,-4.331l-0.942,-0c0.699,-1.865 -1.764,-1.759 -1.692,-3.578c-0.254,-0.245 -0.569,-0.115 -0.756,0.188c-1.381,-1.614 -2.631,-2.192 -3.771,-3.956c-0.595,-0.165 -0.578,0.297 -0.936,0.375c-0.459,-0.358 -0.86,-0.776 -0.756,-1.695c-1.196,0.133 -1.444,-0.606 -2.074,-0.565c-0.329,-1.531 -1.865,-1.176 -3.014,-1.505c-1.903,-0.548 -3.924,-1.741 -6.023,-2.07c-1.207,-0.188 -2.293,0.341 -3.203,-0.563c-1.305,-0.032 -2.697,0.699 -3.95,0.753c-0.115,0.003 -0.563,-0.375 -0.563,-0.375c-0.777,0.124 -1.241,0.638 -1.882,0.754c-2.755,0.499 -5.308,0.242 -8.1,0.566c-4.247,0.488 -8.249,1.576 -12.431,2.07c-5.102,0.601 -9.716,2.105 -15.066,1.32c-2.128,-0.312 -5.019,-0.699 -7.903,-1.132c-0.997,-0.875 -2.293,-1.496 -3.203,-2.449c-0.646,-0.676 -1.276,-0.987 -2.261,-1.692c-0.349,-0.254 -0.554,-0.878 -0.938,-1.132c-0.24,-0.162 -0.378,0.263 -0.563,0.185c-0.136,-0.055 -0.682,-0.788 -1.132,-0.941c-0.277,-0.093 -0.673,0.115 -0.938,-0c-0.54,-0.234 -1.161,-0.997 -1.883,-1.132c-0.658,-0.122 -1.386,0.248 -2.07,0.187c-3.982,-0.352 -6.89,-3.586 -10.924,-4.146c0.159,-1.528 0.979,-2.659 0.188,-4.144c2.457,-2.645 4.617,-7.594 2.255,-12.43c-2.194,-1.366 -6.017,-0.933 -8.284,0.566c-2.446,1.622 -3.306,4.787 -6.78,5.085c-1.94,0.167 -4.409,-0.133 -6.401,-0.185c-1.84,-0.055 -3.896,0.421 -5.273,0.185c-3.402,-0.572 -4.926,-4.514 -7.909,-6.027c-1.588,-0.314 -3.355,-0.231 -4.516,0.376c-3.811,3.898 -0.771,10.493 2.258,13.369c-1.074,1.695 0.982,3.081 1.132,4.519c0.173,1.637 -0.904,3.072 -1.883,4.331c1.141,4.704 2.992,8.683 6.405,11.111c-3.514,0.944 -6.604,2.307 -9.226,4.146c-0.609,0.269 -1.744,0.012 -1.692,0.942c2.177,1.354 4.196,-2.995 7.158,-2.827c0.67,-0.959 2.091,-1.175 3.387,-1.504c-2.142,2.185 -5.359,4.293 -5.835,7.527c1.547,-0.944 1.7,-2.913 2.827,-4.143c1.293,-1.409 3.17,-2.105 4.331,-3.578c0.938,0.445 1.897,-1.207 3.014,-0.563c-0.092,0.785 -0.854,0.904 -1.504,1.132c-0.202,1.302 -1.193,1.819 -2.258,2.255l-0,0.757c-1.77,0.895 -2.766,3.314 -3.953,4.894c-0.413,0.543 -1.597,1.126 -0.941,1.882c2.255,-1.469 2.737,-4.752 5.269,-5.988Z" style="fill-rule:nonzero;"/>
    </g>
    <g id="FAWN-ICON" sound="FAWN" serif:id="FAWN ICON">
      <rect x="190" y="1857.24" width="200" height="159.524" style="fill:#fff;stroke:#000;stroke-width:1.82px;"/>
      <path id="fawn" d="M227.292,1958.83c2.787,-0.838 9.983,-7.709 10.776,-11.107c0.84,-3.6 0.59,-14.905 -0.459,-16.688c-1.378,-2.342 -1.601,-9.262 0.217,-11.01c2.783,-2.677 14.674,-7.969 17.248,-9.6c1.709,-1.082 3.905,-0.94 5.854,-0.839c1.949,0.101 12.289,-0.607 19.916,-0.391c7.627,0.218 14.433,-0.852 17.65,-1.218c3.216,-0.366 12.97,-1.939 16.718,-0.378c2.345,0.977 10.007,2.294 13.734,-1.066c3.726,-3.36 6.421,-10.872 6.717,-13.044c0.349,-2.573 1.483,-5.645 1.651,-7.007c0.235,-1.904 -0.114,-2.565 -0.349,-2.811c-0.986,-1.037 -0.987,-1.591 -1.181,-2.033c-0.193,-0.443 -1.449,-1.683 -1.34,-2.198c0.079,-0.375 -0.117,-0.644 -1.188,-0.808c-1.072,-0.163 -4.388,-1.673 -4.894,-3.867c-1.389,-6.026 -0.397,-9.325 0.896,-9.258c1.292,0.067 7.413,4.594 7.465,5.676c0.052,1.082 1.1,3.367 1.92,3.803c1.287,0.683 3.136,-0.984 7.348,-0.591c1.944,0.182 3.995,1.177 4.352,1.107c0.273,-0.053 1.944,-1.817 2,-2.894c0.056,-1.077 0.956,-2.834 3.39,-4.145c2.54,-1.367 3.966,-1.921 4.528,-2.323c0.56,-0.403 1.93,-0.629 2.254,0.734c0.311,1.31 -0.032,5.73 -1.615,8.144c-0.935,1.425 -2.401,3.022 -4.645,3.788c-1.164,0.398 -2.147,0.18 -2.192,1.04c-0.043,0.862 0.071,2.811 -0.49,3.214c-0.559,0.403 -0.372,0.952 -0.411,1.706c-0.038,0.753 -0.422,1.921 -0.655,2.233c-0.232,0.312 -0.449,1.345 -0.402,1.491c0.27,0.807 0.772,1.767 0.614,2.731c-0.157,0.964 -0.547,0.414 -0.711,1.485c-0.164,1.072 -0.577,1.237 -1.065,1.555c-0.69,0.45 -1.227,1.708 -1.648,1.797c-0.963,0.204 -1.378,-0.363 -1.423,0.498c-0.045,0.862 -0.49,1.839 -0.324,2.819c0.164,0.981 0.309,4.444 -0.149,4.959c-0.458,0.516 -2.857,5.142 -2.979,7.511c-0.123,2.369 -1.007,9.017 -4.098,12.421c-0,0 -5.273,4.846 -5.333,5.989c-0.059,1.143 0.621,6.733 0.326,7.336c-0.296,0.601 -1.206,1.172 -1.608,2.12c-0.402,0.949 -1.579,4.943 -2.042,5.361c-0.462,0.416 -2.992,1.608 -2.513,4.279c0.479,2.67 3.171,6.864 5.45,8.834c2.279,1.968 7.328,6.64 7.768,8.338c0.442,1.697 1.266,2.799 1.217,3.765c-0.051,0.967 -0.036,2.379 1.296,5.621c1.331,3.244 4.174,11.326 4.616,13.024c0.442,1.698 1.169,2.97 1.166,4.733c-0.003,1.763 0.501,5.669 0.095,6.706c-0.408,1.037 0.68,5.59 0.151,5.562c-0.526,-0.027 -1.605,0.359 -3.087,-1.659c-1.484,-2.015 -1.955,-3.098 -2.35,-4c-0.395,-0.902 -0.215,-2.656 0.084,-3.346c0.3,-0.689 0.516,-3.148 0.128,-2.462c-0.389,0.685 -0.859,1.278 -1.101,0.825c-0.24,-0.454 0.305,-0.778 0.011,-3.615c-0.294,-2.837 -0.395,-6.016 -1.173,-7.996c-0.778,-1.981 -2.434,-5.767 -3.187,-8.276c-0.751,-2.508 -2.245,-6.024 -4.7,-8.001c-2.455,-1.98 -11.983,-6.969 -13.132,-8.617c-1.148,-1.646 -2.264,-2.232 -3.557,-2.828c-1.291,-0.596 -3.3,-0.965 -3.778,-1.959c-0.477,-0.995 -0.317,-2.396 -1.205,-2.266c-0.888,0.13 -4.318,-0.047 -4.701,0.55c-0.384,0.598 -3.481,9.342 -3.749,11.092c-0.266,1.749 -0.555,10.727 -0.946,11.5c-0.394,0.774 -0.726,2.079 -0.956,3.124c-0.231,1.047 -0.202,2.195 -0.827,2.34c-0.625,0.144 -0.492,2.708 -0.63,3.669c-0.138,0.964 0.142,4.063 -0.367,5.36c-0.507,1.296 -2.94,7.431 -2.016,11.71c0.925,4.28 4.242,8.33 3.442,8.464c-0.802,0.137 -1.971,0.605 -2.939,0.555c-0.968,-0.05 -4.128,-0.302 -4.157,-1.449c-0.029,-1.148 -0.088,-5.119 -0.661,-4.267c-0.573,0.852 -1.049,1.533 -1.453,0.807c-0.404,-0.726 -0.346,-3.545 0.519,-4.91c0.864,-1.366 1.469,-2.835 2.141,-7.296c0.671,-4.462 1.297,-8.045 1.494,-10.151c0.198,-2.106 0.547,-3.762 0.268,-5.188c-0.278,-1.425 0.085,-5.02 0.055,-6.169c-0.028,-1.147 -0.545,-9.903 -0.589,-12.462c-0.044,-2.559 1.192,-7.698 0.198,-7.22c-0.996,0.477 -16.567,1.524 -19.683,0.393c-3.116,-1.132 -4.995,-2.286 -5.541,-1.962c-0.546,0.324 -3.585,2.812 -5.653,7.025c-2.07,4.214 -5.44,8.007 -6.596,9.887c0,0 -3.202,5.654 -3.205,7.416c-0.003,1.764 0.535,8.404 3.467,16.491c2.932,8.087 2.522,9.212 4.773,11.709c1.003,1.113 3.363,6.187 2.215,6.216c-1.103,0.028 -3.152,0.091 -4.124,0.13c-0.884,0.034 -0.203,-1.985 -1.461,-2.707c-1.377,-0.79 -4.637,1.148 -4.191,-2.355c0.124,-0.975 -0.202,-1.473 -0.165,-3.624c0.043,-2.555 -3.73,-14.829 -4.837,-17.266c-1.108,-2.438 -2.145,-5.818 -3.27,-8.37c-1.405,-3.183 -3.507,-4.549 -2.566,-6.657c0.388,-0.865 4.205,-6.306 5.842,-8.954c1.636,-2.648 2.85,-5.673 2.919,-6.991c-0,-0 0.187,-1.929 -0.83,-1.012c-1.018,0.917 -7.177,5.8 -8.606,6.166c-1.43,0.367 -9.052,6.233 -9.963,6.804c-0.912,0.57 -4.138,-0.125 -7.133,8.359c-2.996,8.484 -5.701,21.571 -7.054,23.882c-1.355,2.31 -4.131,8.25 -5.852,9.131c-1.721,0.881 -2.193,1.474 -2.559,0.044c-0.368,-1.429 0.273,-5.275 0.952,-6.475c0.679,-1.199 2.385,-1.815 1.533,-2.389c-0.851,-0.573 -1.394,-2.013 -0.396,-2.579c1,-0.565 1.812,-2.639 2.461,-3.223c0.647,-0.582 3.384,-7.495 3.919,-10.994c0.534,-3.498 0.973,-5.977 1.857,-8.632c1.878,-5.635 0.873,-11.772 3.049,-12.426Z" style="fill-rule:nonzero;"/>
    </g>
  </g>
</svg>
