<?xml version="1.0" encoding="UTF-8" standalone="no"?>
<!DOCTYPE svg PUBLIC "-//W3C//DTD SVG 1.1//EN" "http://www.w3.org/Graphics/SVG/1.1/DTD/svg11.dtd">
<svg width="100%" height="100%" viewBox="0 0 1688 2200" version="1.1" xmlns="http://www.w3.org/2000/svg" xmlns:xlink="http://www.w3.org/1999/xlink" xml:space="preserve" xmlns:serif="http://www.serif.com/" style="fill-rule:evenodd;clip-rule:evenodd;stroke-linecap:round;stroke-linejoin:round;stroke-miterlimit:1.5;">
  <rect id="FIGHTFAIL-TO-PRECHOICE-2" x="0" y="0" width="1688" height="2200" style="fill:none;"/>
  <g id="S">
    <g id="Root-Markers" serif:id="Root Markers">
      <path id="_0" serif:id="0" d="M845.354,626.527l36.3,100.833l-72.599,-0l36.299,-100.833Zm0,56.32l9.158,25.436c-0,0 -18.315,0 -18.315,0l9.157,-25.436Z"/>
    </g>
    <g id="Ring">
      <path d="M1255.43,1233c-130.888,226.701 -421.195,304.499 -647.884,173.623c-226.688,-130.876 -304.465,-421.183 -173.577,-647.884c130.889,-226.701 421.196,-304.499 647.884,-173.623c226.688,130.876 304.466,421.183 173.577,647.884Z" style="fill:none;stroke:#000;stroke-width:10px;"/>
      <path d="M1255.43,1233l-26.257,-15.159" style="fill:none;stroke:#000;stroke-width:10px;"/>
      <path d="M460.231,773.897l-26.258,-15.159" style="fill:none;stroke:#000;stroke-width:10px;"/>
      <path d="M622.71,1380.37l-15.16,26.257" style="fill:none;stroke:#000;stroke-width:10px;"/>
      <path d="M1081.86,585.115l-15.16,26.257" style="fill:none;stroke:#000;stroke-width:10px;"/>
      <path d="M1081.85,1406.6l-15.16,-26.256" style="fill:none;stroke:#000;stroke-width:10px;"/>
      <path d="M622.72,611.389l-15.16,-26.257" style="fill:none;stroke:#000;stroke-width:10px;"/>
      <path d="M460.201,1217.86l-26.257,15.159" style="fill:none;stroke:#000;stroke-width:10px;"/>
      <path d="M1255.46,758.721l-26.258,15.159" style="fill:none;stroke:#000;stroke-width:10px;"/>
      <path d="M844.704,1470.16l-0,-30.319" style="fill:none;stroke:#000;stroke-width:10px;"/>
      <path d="M844.704,551.892l-0,-30.319" style="fill:none;stroke:#000;stroke-width:10px;"/>
      <path d="M400.736,995.868l-30.319,0" style="fill:none;stroke:#000;stroke-width:10px;"/>
      <path d="M1318.99,995.868l-30.32,0" style="fill:none;stroke:#000;stroke-width:10px;"/>
    </g>
    <g id="Notes">
      <path id="_10" sound="3F-Mid-Bb" serif:id="10" d="M507.323,804.903c-21.99,38.086 -70.764,51.155 -108.85,29.166c-38.087,-21.989 -51.156,-70.762 -29.166,-108.848c21.989,-38.085 70.763,-51.154 108.849,-29.165c38.087,21.989 51.156,70.762 29.167,108.847Z" style="stroke:#fff;stroke-width:24px;"/>
      <path id="_8" sound="3F-Mid-Ab" serif:id="8" d="M504.492,1277.29c-21.989,38.086 -70.763,51.155 -108.849,29.166c-38.087,-21.989 -51.156,-70.762 -29.167,-108.848c21.99,-38.085 70.764,-51.154 108.85,-29.165c38.087,21.989 51.156,70.762 29.166,108.847Z" style="stroke:#fff;stroke-width:24px;"/>
      <path id="_3" serif:id="3" d="M1386.1,1040.32c-21.989,38.086 -70.763,51.154 -108.849,29.166c-38.087,-21.989 -51.156,-70.762 -29.167,-108.848c21.99,-38.086 70.764,-51.154 108.85,-29.165c38.087,21.988 51.156,70.761 29.166,108.847Z" style="stroke:#fff;stroke-width:24px;"/>
      <path id="_01" sound="3F-Low-C" serif:id="0" d="M913.712,566.597c-21.99,38.086 -70.763,51.155 -108.85,29.166c-38.087,-21.989 -51.155,-70.762 -29.166,-108.848c21.989,-38.085 70.763,-51.154 108.85,-29.165c38.086,21.989 51.155,70.762 29.166,108.847Z" style="stroke:#fff;stroke-width:24px;"/>
    </g>
    <g id="Treble-Marker" serif:id="Treble Marker">
      <g id="_31" sound="3F-High-Eb" serif:id="3">
        <path id="_32" serif:id="3" d="M1386.1,1040.32c-21.989,38.086 -70.763,51.154 -108.849,29.166c-38.087,-21.989 -51.156,-70.762 -29.167,-108.848c21.99,-38.086 70.764,-51.154 108.85,-29.165c38.087,21.988 51.156,70.761 29.166,108.847Z" style="fill:#fff;stroke:#fff;stroke-width:33.33px;"/>
        <circle id="_3a" serif:id="3a" cx="1316.23" cy="1000.48" r="64" style="fill:#fff;stroke:#000;stroke-width:16.67px;"/>
      </g>
    </g>
  </g>
	<a xlink:href="PRECHOICE-2.svg">
  <g id="NEXTLINK">
    <path d="M914,1895c0,-19.317 -15.683,-35 -35,-35l-70,0c-19.317,0 -35,15.683 -35,35l0,78c0,19.317 15.683,35 35,35l70,0c19.317,0 35,-15.683 35,-35l0,-78Z" style="fill:#fff;"/>
    <path id="next" d="M814.167,1896.5c-0.2,-1.733 -0.4,-7.2 -0.4,-11.067c-0,-0.8 0.066,-1.6 0.066,-2.2l0,-0.266c0,-3.067 -1.6,-5.734 -2.533,-6.867c-0.933,-1.2 -2.933,-2.333 -5.533,-2.4l-0.467,0c-2.2,0 -3.533,0.8 -5.8,2.933c-0.933,0.867 -1.667,1.134 -2.133,1.2c-0.4,0 -0.6,-0.2 -0.734,-0.4c-0.133,-0.333 -0.2,-0.733 -0.2,-1.133c0,-0.4 0,-0.733 0.067,-1.067c0,-1.133 -1.067,-1.333 -1.867,-1.333c-0.733,0 -2,0.067 -2.266,0.667c-0.067,0.2 -0.134,0.466 -0.134,0.8c0.067,0.4 0.134,0.733 0.134,1.2c0.133,1.866 0.933,6.066 0.933,8.8c0,2.733 -0.133,6.066 -0.667,10.466c-0.133,0.8 -0.133,1.4 -0.133,1.934c0,1.933 0.667,2.333 2.2,2.333c0.2,0 0.467,-0.067 0.8,-0.067c1.333,-0.066 1.6,-0.466 1.667,-0.666l-0,-0.467c-0,-0.467 -0.067,-1 -0.134,-1.333c-0.266,-1.467 -0.533,-6.8 -0.533,-9.134c0,-2.2 0.333,-5.866 1.733,-7.8c1.467,-2 3.667,-3.133 5.667,-3.133l0.933,0c0.4,0 0.867,0 1.267,0.133c0.733,0.134 1.4,0.534 2.333,1.267c1.134,0.867 1.6,2 1.8,3.4c0.134,0.8 0.134,1.733 0.134,2.733l-0,2.134c-0,3.8 -0.534,5.933 -0.8,9.666c-0,0.267 -0.067,0.6 -0.067,0.8c0,2.467 1.133,2.534 3.133,2.534c1.4,-0 1.734,-0.734 1.734,-1.8c-0,-0.6 -0.134,-1.267 -0.2,-1.867Z" style="fill-rule:nonzero;"/>
    <path d="M848.167,1886.7c-0,-0.067 0.066,-0.133 0.066,-0.267c0,-0.066 -0.066,-0.266 -0.066,-0.466l-0.267,-1.4c-0.467,-2.134 -2.8,-5.667 -4.533,-7.734c-1.734,-1.866 -5.067,-3 -7.867,-3.133l-0.733,0c-2.867,0 -5.134,1.4 -7.467,2.933l-0.533,0.334c-2.534,1.533 -4.334,6.6 -4.467,10.6l0,0.2c0,3.8 2.867,8 5.133,10.533c2.2,2.333 6.734,2.4 9,2.4c2.134,0 3.867,-0.533 5,-1.133c0.467,-0.267 1.134,-0.8 1.934,-1.467c0.733,-0.667 1.533,-1.333 2.4,-2c0.666,-0.467 1,-1 1,-1.533c-0,-0.6 -0.334,-1.2 -1.334,-2c-0.333,-0.267 -0.666,-0.4 -0.866,-0.4c-0.334,-0 -0.534,0.2 -0.8,0.4c-0.467,0.533 -0.8,1.2 -1.067,1.866c-0.533,1.2 -3.2,2.534 -6.533,2.534l-0.534,-0c-2.2,-0.067 -4.066,-0.734 -5.733,-2.067l-1,-0.8c-1.067,-0.933 -2.133,-3.6 -2.133,-5.267l-0,-0.466c0.2,-0.8 1.8,-1.267 3.8,-1.334c1.666,0 3.533,0.067 4.533,0.067c1.4,0 5.267,0.067 8.267,0.067c1.533,-0 2.866,-0 3.6,-0.067c1.133,0 1.2,-0.267 1.2,-0.4Zm-4.734,-4.4c0.2,0.333 0.267,0.6 0.267,0.867c0,0.733 -0.6,1.2 -1.8,1.2c-2.6,-0 -5.467,0.066 -6.6,0.066c-1.2,0 -4.733,-0.066 -5.467,-0.266c-0.733,-0.067 -2.333,-0.934 -2.333,-2.134c0,-0.4 0.133,-0.8 0.467,-1.2c1.066,-1.466 4,-3.466 7.466,-3.466l0.267,-0c3.133,0.133 4.2,1.066 5.733,2.533c0.667,0.667 1.6,1.533 2,2.4Z" style="fill-rule:nonzero;"/>
    <path d="M877.633,1899.3c-0.133,-1.467 -1.866,-2.933 -2.933,-3.8c-0.867,-0.733 -1.667,-1.667 -2.467,-2.6c-0.733,-0.933 -1.4,-1.867 -1.866,-2.4c-0.534,-0.533 -1.2,-1.067 -1.8,-1.733c-0.534,-0.667 -1.067,-1.4 -1.067,-2.334l0,-0.266c0.067,-1.4 2.067,-3 3.133,-4c0.4,-0.334 0.667,-0.667 0.867,-0.934c0.333,-0.666 1.067,-1.466 1.867,-2.333l2.533,-3.067c0.4,-0.466 0.667,-0.8 0.667,-1c-0,-0.066 -0.067,-0.066 -0.067,-0.133c-0.2,-0.133 -0.467,-0.2 -0.933,-0.267l-1.4,-0.133c-0.267,0 -0.467,-0.067 -0.667,-0.067c-1.333,0 -2.133,0.534 -2.733,1.934c-0.467,0.933 -1,1.733 -1.534,2.4c-0.466,0.733 -1,1.4 -1.4,2.2c-0.866,1.933 -1.733,3 -2.933,3c-0.667,-0 -1.4,-0.6 -1.933,-1.467c-0.467,-0.733 -0.934,-1.6 -1.4,-2.267l-1.467,-2.066c-0.533,-0.734 -1,-1.534 -1.267,-2.2c-0.4,-1 -1.666,-1.6 -3.2,-1.667c-0.666,0 -1.666,0.067 -1.666,0.867c-0,0.466 0.466,1.133 0.666,1.4c0.667,0.733 2.6,3.4 4.667,5.866c1.067,1.2 1.733,1.867 2.2,2.467c0.4,0.667 0.667,1.2 0.667,2.133c-0,1.4 -0.934,2.534 -1.667,3.334l-2.467,2.666c-0.533,0.6 -1.533,1.667 -2.533,2.867l-3.067,3.133c-0.266,0.267 -0.466,0.4 -0.466,0.534c-0,0.066 0.066,0.066 0.2,0.066c0.266,0.067 0.666,0.134 1.133,0.134c0.533,0.066 1.133,0.066 1.733,0.066c1.134,0 1.534,-0.2 1.8,-0.466c0.267,-0.067 0.334,-0.267 0.6,-0.534l0.8,-0.933c0.6,-0.667 1.2,-1.467 1.734,-2.267l0.2,-0.2c0.466,-0.666 0.933,-1.333 1.466,-1.933c0.534,-0.533 0.867,-1.267 1.267,-1.867c0.533,-0.666 1.2,-1.333 2.267,-1.333c1.533,0 2.333,1.667 3,2.867l0.066,0.266c0.267,0.467 0.334,0.734 0.467,0.867c0.667,0.8 2,2.667 3.467,4.867c0.666,1 1.066,1.133 1.4,1.133c0.266,0 0.6,0 0.866,-0.067c0.334,-0.066 0.734,-0.2 1.134,-0.2l0.533,0c0.867,0 1.4,-0.066 1.533,-0.533Z" style="fill-rule:nonzero;"/>
    <path d="M896.433,1876.1c0,-0.533 -0.266,-0.733 -0.8,-0.933c-0.333,-0.067 -0.733,-0.067 -1.133,-0.067c-0.467,0 -0.867,-0.067 -1.333,-0.067l-1.134,-0.133c-0.333,0 -0.6,-0.067 -0.866,-0.133c-0.6,-0.2 -1,-0.667 -1,-1.334c-0,-0.933 -0,-2.533 0.133,-5.133l0,-0.267c0,-1 -0.2,-1.333 -0.4,-1.466c-0.333,-0.267 -1,-0.267 -1.4,-0.267l-0.2,0c-1,0 -1.6,0.8 -1.667,1.2c0,0.067 -0.066,0.2 -0.066,0.267c-0,0.333 0.066,0.866 0.133,1.533c0.133,0.867 0.267,2 0.267,3.133l-0,0.334c-0,1.2 -0.534,1.866 -1.4,2.066c-0.267,0.067 -0.534,0.067 -0.8,0.067c-0.467,0 -1.067,-0.067 -1.534,-0.067c-0.933,0 -1.466,0.6 -1.666,2.6c-0,0.067 -0.067,0.134 -0.067,0.2c0,0.4 0.267,0.534 0.8,0.667c0.333,0.067 0.667,0.067 1,0.067c0.333,-0 0.667,-0.067 0.933,-0.067c1.067,0 2.467,0.8 2.467,2.267c0,1.066 0.2,3.4 0.2,6.4c0,3 -0.4,8.733 -0.4,11.333c0,1.267 0.2,1.6 0.4,1.733l0.533,0.134l1.2,-0c1.667,-0 2.2,-0.2 2.2,-1.067l0,-0.467c-0.2,-1.866 -0.533,-6.666 -0.6,-9.466c-0.066,-0.934 -0.133,-2.067 -0.133,-3.2c0,-2.2 0.133,-4.467 0.2,-5.934c0.067,-1.466 0.933,-2.066 2,-2.133l0.2,0c0.8,0 1.533,0.2 2.333,0.267l0.267,-0c0.867,-0 1.333,-0.467 1.333,-2.067Z" style="fill-rule:nonzero;"/>
    <circle cx="824" cy="1958" r="40" style="fill:#fff;stroke:#000;stroke-width:12.5px;"/>
    <circle cx="864" cy="1958" r="40" style="fill:none;stroke:#000;stroke-width:12.5px;"/>
  </g>
	</a>
  <g id="Header">
    <path id="Lyric-Text" serif:id="Lyric Text" d="M182.167,241.433c0.2,-0.333 0.266,-0.533 0.266,-0.666c0,-0.267 -0.2,-0.334 -0.4,-0.4c-0.266,-0.134 -0.666,-0.2 -1.066,-0.267l-1,-0.067c-0.2,0 -0.534,-0.066 -0.8,-0.066c-0.6,-0 -1.2,0.133 -1.267,0.6c-0.133,1.2 -2.067,5.533 -2.8,7.133c-0.733,1.533 -2.333,5.533 -2.867,7.067c-0.533,1.733 -1.466,4 -2.933,4.4c-0.2,0.066 -0.4,0.133 -0.533,0.133c-0.667,0 -1.067,-0.467 -1.334,-1.067c0,-0.266 -0.133,-0.6 -0.2,-1c-0.066,-0.333 -0.133,-0.733 -0.2,-1.066c-0.2,-0.734 -0.6,-1.467 -1.066,-2.467c-0.534,-0.933 -1.067,-2 -1.534,-3.2c-0.933,-2.4 -2.466,-5.867 -3.333,-8.4c-0.867,-2.133 -1.533,-2.267 -3.733,-2.467l-0.467,0c-1,0 -1.4,0.4 -1.4,0.867c-0,0.933 0.933,2.133 1.4,2.6c0.6,0.667 1.333,2.133 2.133,3.6c0.734,1.467 1.6,3.067 2.4,4.333c0.334,0.667 0.734,1.4 1.067,2.2l0.933,2.4c0.667,1.6 1.267,3.134 2.2,4.2c1.2,1.467 1.667,2.867 1.667,4l-0,0.267c-0,0.733 -0.2,1.4 -0.4,1.867c-0.533,0.866 -1.267,2.133 -2.067,4.466c-0.4,1.2 -1.066,2.334 -1.666,3.334c-0.6,1 -1.2,1.933 -1.734,3c-0.2,0.333 -0.333,0.666 -0.333,0.8c-0,0.8 1,0.8 2.667,0.933c0.133,0 0.333,0.067 0.466,0.067c0.8,-0 1.134,-0.267 1.334,-0.534c0.2,-0.266 0.333,-0.533 0.466,-0.933l0.467,-1.333c0.4,-1 0.733,-2 1.067,-2.934c0.4,-1 0.8,-2 1.333,-3c1.067,-2 2.867,-7.4 4.2,-9.933c1.267,-2.467 3,-6.733 4,-8.8c1,-2.067 3.8,-7.467 5.067,-9.667Z" style="fill-rule:nonzero;"/>
    <path d="M213.7,252.033c-0,-0.066 0.067,-0.133 0.067,-0.266c-0,-0.067 -0.067,-0.267 -0.067,-0.467l-0.267,-1.4c-0.466,-2.133 -2.8,-5.667 -4.533,-7.733c-1.733,-1.867 -5.067,-3 -7.867,-3.134l-0.733,0c-2.867,0 -5.133,1.4 -7.467,2.934l-0.533,0.333c-2.533,1.533 -4.333,6.6 -4.467,10.6l0,0.2c0,3.8 2.867,8 5.134,10.533c2.2,2.334 6.733,2.4 9,2.4c2.133,0 3.866,-0.533 5,-1.133c0.466,-0.267 1.133,-0.8 1.933,-1.467c0.733,-0.666 1.533,-1.333 2.4,-2c0.667,-0.466 1,-1 1,-1.533c-0,-0.6 -0.333,-1.2 -1.333,-2c-0.334,-0.267 -0.667,-0.4 -0.867,-0.4c-0.333,0 -0.533,0.2 -0.8,0.4c-0.467,0.533 -0.8,1.2 -1.067,1.867c-0.533,1.2 -3.2,2.533 -6.533,2.533l-0.533,0c-2.2,-0.067 -4.067,-0.733 -5.734,-2.067l-1,-0.8c-1.066,-0.933 -2.133,-3.6 -2.133,-5.266l-0,-0.467c0.2,-0.8 1.8,-1.267 3.8,-1.333c1.667,-0 3.533,0.066 4.533,0.066c1.4,0 5.267,0.067 8.267,0.067c1.533,0 2.867,0 3.6,-0.067c1.133,0 1.2,-0.266 1.2,-0.4Zm-4.733,-4.4c0.2,0.334 0.266,0.6 0.266,0.867c0,0.733 -0.6,1.2 -1.8,1.2c-2.6,0 -5.466,0.067 -6.6,0.067c-1.2,-0 -4.733,-0.067 -5.466,-0.267c-0.734,-0.067 -2.334,-0.933 -2.334,-2.133c0,-0.4 0.134,-0.8 0.467,-1.2c1.067,-1.467 4,-3.467 7.467,-3.467l0.266,0c3.134,0.133 4.2,1.067 5.734,2.533c0.666,0.667 1.6,1.534 2,2.4Z" style="fill-rule:nonzero;"/>
    <path d="M233.167,241.433c-0,-0.533 -0.267,-0.733 -0.8,-0.933c-0.334,-0.067 -0.734,-0.067 -1.134,-0.067c-0.466,0 -0.866,-0.066 -1.333,-0.066l-1.133,-0.134c-0.334,0 -0.6,-0.066 -0.867,-0.133c-0.6,-0.2 -1,-0.667 -1,-1.333c-0,-0.934 -0,-2.534 0.133,-5.134l0,-0.266c0,-1 -0.2,-1.334 -0.4,-1.467c-0.333,-0.267 -1,-0.267 -1.4,-0.267l-0.2,0c-1,0 -1.6,0.8 -1.666,1.2c-0,0.067 -0.067,0.2 -0.067,0.267c-0,0.333 0.067,0.867 0.133,1.533c0.134,0.867 0.267,2 0.267,3.134l-0,0.333c-0,1.2 -0.533,1.867 -1.4,2.067c-0.267,0.066 -0.533,0.066 -0.8,0.066c-0.467,0 -1.067,-0.066 -1.533,-0.066c-0.934,-0 -1.467,0.6 -1.667,2.6c-0,0.066 -0.067,0.133 -0.067,0.2c0,0.4 0.267,0.533 0.8,0.666c0.334,0.067 0.667,0.067 1,0.067c0.334,0 0.667,-0.067 0.934,-0.067c1.066,0 2.466,0.8 2.466,2.267c0,1.067 0.2,3.4 0.2,6.4c0,3 -0.4,8.733 -0.4,11.333c0,1.267 0.2,1.6 0.4,1.734l0.534,0.133l1.2,0c1.666,0 2.2,-0.2 2.2,-1.067l-0,-0.466c-0.2,-1.867 -0.534,-6.667 -0.6,-9.467c-0.067,-0.933 -0.134,-2.067 -0.134,-3.2c0,-2.2 0.134,-4.467 0.2,-5.933c0.067,-1.467 0.934,-2.067 2,-2.134l0.2,0c0.8,0 1.534,0.2 2.334,0.267l0.266,0c0.867,0 1.334,-0.467 1.334,-2.067Z" style="fill-rule:nonzero;"/>
    <path d="M280.7,241.433c0.2,-0.333 0.267,-0.533 0.267,-0.666c-0,-0.267 -0.2,-0.334 -0.4,-0.4c-0.267,-0.134 -0.667,-0.2 -1.067,-0.267l-1,-0.067c-0.2,0 -0.533,-0.066 -0.8,-0.066c-0.6,-0 -1.2,0.133 -1.267,0.6c-0.133,1.2 -2.066,5.533 -2.8,7.133c-0.733,1.533 -2.333,5.533 -2.866,7.067c-0.534,1.733 -1.467,4 -2.934,4.4c-0.2,0.066 -0.4,0.133 -0.533,0.133c-0.667,0 -1.067,-0.467 -1.333,-1.067c-0,-0.266 -0.134,-0.6 -0.2,-1c-0.067,-0.333 -0.134,-0.733 -0.2,-1.066c-0.2,-0.734 -0.6,-1.467 -1.067,-2.467c-0.533,-0.933 -1.067,-2 -1.533,-3.2c-0.934,-2.4 -2.467,-5.867 -3.334,-8.4c-0.866,-2.133 -1.533,-2.267 -3.733,-2.467l-0.467,0c-1,0 -1.4,0.4 -1.4,0.867c0,0.933 0.934,2.133 1.4,2.6c0.6,0.667 1.334,2.133 2.134,3.6c0.733,1.467 1.6,3.067 2.4,4.333c0.333,0.667 0.733,1.4 1.066,2.2l0.934,2.4c0.666,1.6 1.266,3.134 2.2,4.2c1.2,1.467 1.666,2.867 1.666,4l0,0.267c0,0.733 -0.2,1.4 -0.4,1.867c-0.533,0.866 -1.266,2.133 -2.066,4.466c-0.4,1.2 -1.067,2.334 -1.667,3.334c-0.6,1 -1.2,1.933 -1.733,3c-0.2,0.333 -0.334,0.666 -0.334,0.8c0,0.8 1,0.8 2.667,0.933c0.133,0 0.333,0.067 0.467,0.067c0.8,-0 1.133,-0.267 1.333,-0.534c0.2,-0.266 0.333,-0.533 0.467,-0.933l0.466,-1.333c0.4,-1 0.734,-2 1.067,-2.934c0.4,-1 0.8,-2 1.333,-3c1.067,-2 2.867,-7.4 4.2,-9.933c1.267,-2.467 3,-6.733 4,-8.8c1,-2.067 3.8,-7.467 5.067,-9.667Z" style="fill-rule:nonzero;"/>
    <path d="M313.633,253.167l0,-0.334c0,-4.533 -2.133,-7.933 -4.133,-10.066c-2,-2.067 -5.267,-3.734 -9,-3.867l-0.333,0c-6.067,0 -8.734,2.533 -10.667,4.533c-2,2 -3.533,5 -3.533,9.267c-0,4.267 2.533,8.4 4.6,10.267c2,1.8 5,3.133 8.866,3.133l0.4,0c4.134,-0.133 7.334,-0.667 10.2,-3.733c2.867,-3.2 3.6,-4.334 3.6,-9.2Zm-3.8,-0.734c0,2.534 -0.933,6 -2.6,7.267c-0.4,0.2 -0.8,0.533 -1.333,0.867c-1.667,1.133 -3.533,2 -5.533,2c-0.267,-0 -0.534,-0 -0.867,-0.067c-3.2,-0.4 -4.733,-1.067 -6.667,-3.333c-1.933,-2.134 -2.533,-3.867 -2.533,-6.6c-0,-2.667 0.467,-5.2 3.133,-7.2c2.6,-1.934 4.667,-2.2 6.8,-2.2c3.4,-0 5.867,0.933 7.267,3.4c0.667,1.133 1.267,1.866 1.667,2.733c0.333,0.867 0.666,1.8 0.666,3.133Z" style="fill-rule:nonzero;"/>
    <path d="M343.767,242.567c0.066,-0.467 0.066,-0.8 0.066,-1.134c0,-1.333 -0.466,-1.8 -2.4,-1.933l-0.333,0c-1.467,0 -1.8,0.6 -1.8,1.6c-0,0.333 -0,0.667 0.067,1.067c0.133,1.6 0.4,6.8 0.533,10.2c-0,0.533 0.067,1.066 0.067,1.6c-0,2.6 -0.4,4.666 -1.6,6.133c-1.4,1.933 -2.8,2 -4.867,2.067l-0.2,-0c-0.467,0.066 -0.933,0.066 -1.333,0.066c-1.6,0 -2.867,-0.333 -4.134,-2.133c-0.8,-1 -1.2,-2.333 -1.4,-3.8c-0.133,-1.4 -0.2,-3.133 -0.266,-5.067c-0.067,-1.6 -0.067,-2.8 -0.067,-3.933c-0,-1.533 0.067,-2.867 0.2,-4.867l-0,-1.2c-0,-0.733 -0.067,-1 -0.133,-1.133c-0.067,0 -0.2,-0.067 -0.467,-0.133c-0.267,-0 -0.667,-0 -1.067,-0.067l-0.466,0c-1.534,0 -1.867,0.533 -1.867,1.133c-0,1.4 0.333,2.8 0.333,4.734c0,1.8 0.067,8.2 0.067,11c-0,2.666 1.467,5.333 3.6,6.933c2,1.533 5.533,1.933 7.667,1.933c2.066,0 5.2,-1.333 8,-4.133c1.266,-1.267 1.666,-3.267 1.666,-5.333c0,-2.067 -0.333,-4.067 -0.333,-5.2c-0,-2.2 0.2,-6.2 0.467,-8.4Z" style="fill-rule:nonzero;"/>
    <path d="M395.033,223.433c0,-0.533 -0.066,-0.866 -0.133,-1c-0.267,-0.466 -0.867,-0.466 -2.067,-0.6c-0.133,0 -0.266,-0.066 -0.4,-0.066l-0.466,-0c-1.267,-0 -1.534,0.466 -1.667,1c-0.067,0.266 -0.067,0.533 -0.067,0.866l0,0.8l0.2,2.067c0.2,3 0.267,7.933 0.467,10.667c0.067,0.866 0.133,1.533 0.133,2.066c0,1.267 -0.266,1.934 -1.066,2.6c-0.334,0.267 -0.667,0.4 -1,0.4c-0.4,0 -0.8,-0.133 -1.2,-0.333c-0.6,-0.333 -1.467,-0.933 -2.534,-1.6c-1.333,-0.867 -2.933,-1 -4.466,-1c-0.667,0 -1.334,0.067 -1.934,0.067c-2.4,0.066 -5.8,2.2 -7.6,4.2c-1.666,1.933 -2.933,6.133 -2.933,9.933c-0,3.733 2,7.333 4.267,9.467c2.266,2.133 5.466,3.4 7.933,3.4c2.533,-0 5.2,-0.6 7,-2.667c0.933,-1.133 1.733,-1.533 2.2,-1.533c0.8,-0 1.2,0.866 1.4,1.933c0.067,0.467 0.067,0.733 0.333,0.933c0.134,0.067 0.267,0.067 0.667,0.134l1.467,0.2l0.333,-0c0.8,-0 0.933,-0.334 1,-0.734l-0,-1.2l-0.267,-1.533c-0.266,-1.867 -0.666,-10.133 -0.666,-13.467l-0,-0.933l0.4,-4.333c0.066,-0.934 0.133,-1.734 0.133,-2.534c-0,-0.466 -0,-0.866 -0.067,-1.2c-0.066,-0.4 -0.133,-1 -0.133,-1.733c-0,-1.067 0.267,-3.6 0.267,-4l-0,-0.6c0.066,-2.733 0.333,-5.667 0.333,-7.467c-0,-0.866 0.067,-1.6 0.133,-2.2Zm-4.4,26.334c0.334,1 0.534,2 0.534,2.866c-0,1.2 -0.267,2.4 -0.8,3.667c-0.4,1.133 -0.934,1.933 -1.534,2.667c-0.533,0.6 -1.133,1.133 -1.666,1.733c-1.067,1.067 -3,1.467 -4.6,1.467c-0.334,-0 -0.6,-0 -0.8,-0.067l-1.2,0c-0.334,0 -0.8,0 -1.334,-0.133c-0.933,-0.267 -2,-0.867 -3.666,-2.2c-1.6,-1.334 -2.4,-2.534 -2.734,-3.667c-0.266,-0.533 -0.266,-1 -0.333,-1.533c-0,-0 -0,-0.067 -0.133,-1.534l-0,-0.466c-0,-2 0.666,-4.534 2.2,-6.534c1.6,-2.066 2.933,-2.933 5.666,-2.933l0.8,0c3.134,0.067 5.534,0.6 6.8,2c1.067,1.2 2,2.4 2.8,4.667Z" style="fill-rule:nonzero;"/>
    <path d="M420.567,239.833c-0.467,-0.2 -2.067,-0.733 -3.867,-0.733c-1.8,0 -4.267,1.6 -5.133,3.267c-0.2,0.4 -0.467,0.8 -0.8,1c-0.2,0.066 -0.334,0.066 -0.4,0.066c-0.334,0 -0.6,-0.2 -0.734,-0.4c-0.2,-0.4 -0.266,-0.933 -0.266,-1.466l-0,-0.467c-0,-1.133 -1.2,-1.6 -2.067,-1.6c-1.667,0 -1.867,0.533 -1.933,0.867c-0,0.066 -0.067,0.133 -0.067,0.266c-0,0.2 0.067,0.534 0.133,0.867c0.067,0.467 0.134,1 0.2,1.467c0.134,2.2 0.134,7.133 0.134,10.066c-0,2.867 -0.134,5.867 -0.6,9.734c-0.067,0.666 -0.067,1.2 -0.067,1.533c-0,0.4 0.067,0.6 0.333,0.733c0.134,0.067 0.4,0.067 1,0.067c0.534,-0.067 1.2,-0.133 2,-0.133c1.667,-0 2.067,-1.134 2.067,-2.4c-0,-0.934 -0.267,-2 -0.4,-2.8c-0.267,-1.334 -0.333,-3.8 -0.333,-6.267c-0,-1.333 -0,-2.6 0.066,-3.733c0.2,-3.6 2.6,-5.6 4.867,-6.134c0.867,-0.2 1.467,-0.266 2.067,-0.266c0.8,-0 1.333,0.133 2.2,0.466c0.133,0 0.333,0.2 0.466,0.2c0.2,0 0.267,-0.066 0.334,-0.266c0.133,-0.067 0.266,-0.334 0.333,-0.667c0.2,-0.333 0.333,-0.733 0.467,-1.2c0.2,-0.667 0.333,-1.133 0.333,-1.4c-0,-0.333 -0.133,-0.533 -0.333,-0.667Z" style="fill-rule:nonzero;"/>
    <path d="M451.233,252.033c0,-0.066 0.067,-0.133 0.067,-0.266c-0,-0.067 -0.067,-0.267 -0.067,-0.467l-0.266,-1.4c-0.467,-2.133 -2.8,-5.667 -4.534,-7.733c-1.733,-1.867 -5.066,-3 -7.866,-3.134l-0.734,0c-2.866,0 -5.133,1.4 -7.466,2.934l-0.534,0.333c-2.533,1.533 -4.333,6.6 -4.466,10.6l-0,0.2c-0,3.8 2.866,8 5.133,10.533c2.2,2.334 6.733,2.4 9,2.4c2.133,0 3.867,-0.533 5,-1.133c0.467,-0.267 1.133,-0.8 1.933,-1.467c0.734,-0.666 1.534,-1.333 2.4,-2c0.667,-0.466 1,-1 1,-1.533c0,-0.6 -0.333,-1.2 -1.333,-2c-0.333,-0.267 -0.667,-0.4 -0.867,-0.4c-0.333,0 -0.533,0.2 -0.8,0.4c-0.466,0.533 -0.8,1.2 -1.066,1.867c-0.534,1.2 -3.2,2.533 -6.534,2.533l-0.533,0c-2.2,-0.067 -4.067,-0.733 -5.733,-2.067l-1,-0.8c-1.067,-0.933 -2.134,-3.6 -2.134,-5.266l0,-0.467c0.2,-0.8 1.8,-1.267 3.8,-1.333c1.667,-0 3.534,0.066 4.534,0.066c1.4,0 5.266,0.067 8.266,0.067c1.534,0 2.867,0 3.6,-0.067c1.134,0 1.2,-0.266 1.2,-0.4Zm-4.733,-4.4c0.2,0.334 0.267,0.6 0.267,0.867c-0,0.733 -0.6,1.2 -1.8,1.2c-2.6,0 -5.467,0.067 -6.6,0.067c-1.2,-0 -4.734,-0.067 -5.467,-0.267c-0.733,-0.067 -2.333,-0.933 -2.333,-2.133c-0,-0.4 0.133,-0.8 0.466,-1.2c1.067,-1.467 4,-3.467 7.467,-3.467l0.267,0c3.133,0.133 4.2,1.067 5.733,2.533c0.667,0.667 1.6,1.534 2,2.4Z" style="fill-rule:nonzero;"/>
    <path d="M474.233,265.033c0.534,-0.333 1,-0.733 1.334,-1.066c0.333,-0.4 0.666,-0.734 1,-0.934c0.4,-0.4 0.866,-0.6 1.333,-0.6c0.667,0 1.267,0.534 1.267,1.334c-0,0.2 -0,0.4 -0.067,0.6c-0,0.066 -0.067,0.133 -0.067,0.2c0,0.6 0.667,0.666 2.534,0.8l0.333,-0c1,-0 1.2,-0.267 1.333,-0.534l0,-13.133c0,-2.2 -0.066,-4.533 -0.066,-6.667c-0,-1.066 -0,-2.066 0.066,-3l0,-0.333c0,-1.733 -0.866,-1.8 -2,-1.8l-0.666,0c-0.8,0 -1.2,0.067 -1.2,0.533c-0,0.334 0.066,0.6 0.066,0.8c0,1.067 -0.4,2 -1.2,2.267c-0.133,0.067 -0.2,0.067 -0.333,0.067c-0.467,-0 -1.067,-0.334 -1.667,-0.867c-0.6,-0.533 -1.066,-1.133 -1.6,-1.667c-0.733,-0.933 -3.466,-1.733 -6,-1.733c-3.733,0 -8,2.4 -10.066,5.267c-1.467,2.133 -2,5.466 -2.267,8.2l-0,0.533c-0,2.6 1.533,6.8 3.2,8.867c1.733,2.2 4.667,4.2 9.6,4.2c2.4,-0 4,-0.6 5.133,-1.334Zm5.134,-12.266c-0.2,2.8 -1.134,6.133 -3.467,7.866c-1.8,1.4 -3.2,1.734 -5.267,1.734c-0.4,-0 -0.8,-0.067 -1.333,-0.067c-3,-0.2 -5.533,-1.533 -6.6,-3.267c-0.867,-1.6 -1.467,-3.666 -1.467,-6l0,-0.6c0.134,-2.4 1.134,-6.466 2.4,-7.4c0.934,-0.733 3.8,-1.933 6.2,-1.933c0.4,0 0.8,0 1.2,0.067l1.534,0.333c0.266,0 0.266,0.067 0.333,0.067c0.4,0.133 1,0.2 1.4,0.4c1.2,0.4 2.333,1.133 3.2,2.6l1,1.733c0.067,0.467 0.467,0.933 0.667,1.333c0.2,0.534 0.333,1.134 0.333,1.8c-0,0.4 -0.067,0.867 -0.133,1.334Z" style="fill-rule:nonzero;"/>
    <path d="M528.633,263.9c0,-0.467 -0.066,-1 -0.2,-1.533l-0.266,-1.667c-0.267,-1.8 -0.534,-6.467 -0.534,-10.2l0,-2.733c0,-3 -0.533,-4.467 -1.666,-6c-1.334,-1.667 -3.534,-2.334 -5.2,-2.334c-1.667,0 -2.667,0.4 -4,1.2c-0.6,0.334 -1.2,0.8 -1.667,1.267c-0.667,0.6 -1.467,1.067 -1.733,1.2l-0.467,0c-0.8,0 -1.667,-0.4 -2.733,-1.8c-1.067,-1.467 -2.534,-2 -4.267,-2l-0.8,0c-0.333,0 -0.8,0 -1.2,0.133c-0.533,0.2 -1.2,0.6 -2.467,1.534c-0.933,0.733 -1.533,1 -2,1c-0.333,-0 -0.6,-0.2 -0.733,-0.4c-0.2,-0.2 -0.267,-0.534 -0.333,-0.867l-0.067,-0.4c-0,-0.067 -0.067,-0.2 -0.067,-0.2c-0.2,-0.667 -1.133,-0.667 -2.333,-0.667c-0.933,0 -1.933,0.534 -1.933,1.667c-0,1.667 0.4,7.067 0.4,9.733c-0,2.6 -0.134,7.2 -0.4,10.6c-0.067,0.6 -0.067,1.067 -0.067,1.534c-0,2 0.533,2.466 2.533,2.466c1.667,0 2.067,-0.666 2.067,-1.8c-0,-0.466 -0.067,-1 -0.133,-1.6c-0.334,-1.866 -0.6,-6 -0.6,-9l-0,-1.466c0.2,-2.934 1,-4.6 2.133,-6.134c1.067,-1.466 3.333,-2.6 4.933,-2.6l0.334,0c1.6,0.2 2.866,0.934 3.466,2c0.6,1.067 0.8,2.734 0.8,6.4c0,3.334 -0.466,8.2 -0.733,10.867c-0.067,0.467 -0.2,1.133 -0.2,1.467c-0,1.6 0.733,2.333 2.933,2.333c1.334,0 1.667,-0.4 1.8,-0.6c0.134,-0.2 0.134,-0.4 0.134,-0.6c-0,-0.267 -0.067,-0.533 -0.067,-0.8c-0.133,-1.067 -0.8,-7.6 -0.8,-10.6c-0,-3.133 1.133,-6.2 1.8,-7.533c0.8,-1.6 3.8,-2.4 5,-2.534l0.467,0c1.2,0 2.333,0.534 3.666,1.734c0.667,0.8 1,1.733 1.134,2.866c0.066,0.467 0.066,0.934 0.066,1.467c0,0.8 -0.066,1.8 -0.066,3c-0.134,3.8 -0.667,6.8 -1.067,10.333c-0.067,0.467 -0.067,0.8 -0.067,1.134c0,1.533 0.534,2 1.867,2c0.467,-0 1,-0 1.667,-0.134c1.333,-0.2 1.6,-0.866 1.666,-1.733Z" style="fill-rule:nonzero;"/>
    <path d="M579.167,241.433c0.2,-0.333 0.266,-0.533 0.266,-0.666c0,-0.267 -0.2,-0.334 -0.4,-0.4c-0.266,-0.134 -0.666,-0.2 -1.066,-0.267l-1,-0.067c-0.2,0 -0.534,-0.066 -0.8,-0.066c-0.6,-0 -1.2,0.133 -1.267,0.6c-0.133,1.2 -2.067,5.533 -2.8,7.133c-0.733,1.533 -2.333,5.533 -2.867,7.067c-0.533,1.733 -1.466,4 -2.933,4.4c-0.2,0.066 -0.4,0.133 -0.533,0.133c-0.667,0 -1.067,-0.467 -1.334,-1.067c0,-0.266 -0.133,-0.6 -0.2,-1c-0.066,-0.333 -0.133,-0.733 -0.2,-1.066c-0.2,-0.734 -0.6,-1.467 -1.066,-2.467c-0.534,-0.933 -1.067,-2 -1.534,-3.2c-0.933,-2.4 -2.466,-5.867 -3.333,-8.4c-0.867,-2.133 -1.533,-2.267 -3.733,-2.467l-0.467,0c-1,0 -1.4,0.4 -1.4,0.867c-0,0.933 0.933,2.133 1.4,2.6c0.6,0.667 1.333,2.133 2.133,3.6c0.734,1.467 1.6,3.067 2.4,4.333c0.334,0.667 0.734,1.4 1.067,2.2l0.933,2.4c0.667,1.6 1.267,3.134 2.2,4.2c1.2,1.467 1.667,2.867 1.667,4l-0,0.267c-0,0.733 -0.2,1.4 -0.4,1.867c-0.533,0.866 -1.267,2.133 -2.067,4.466c-0.4,1.2 -1.066,2.334 -1.666,3.334c-0.6,1 -1.2,1.933 -1.734,3c-0.2,0.333 -0.333,0.666 -0.333,0.8c-0,0.8 1,0.8 2.667,0.933c0.133,0 0.333,0.067 0.466,0.067c0.8,-0 1.134,-0.267 1.334,-0.534c0.2,-0.266 0.333,-0.533 0.466,-0.933l0.467,-1.333c0.4,-1 0.733,-2 1.067,-2.934c0.4,-1 0.8,-2 1.333,-3c1.067,-2 2.867,-7.4 4.2,-9.933c1.267,-2.467 3,-6.733 4,-8.8c1,-2.067 3.8,-7.467 5.067,-9.667Z" style="fill-rule:nonzero;"/>
    <path d="M612.1,253.167l-0,-0.334c-0,-4.533 -2.133,-7.933 -4.133,-10.066c-2,-2.067 -5.267,-3.734 -9,-3.867l-0.334,0c-6.066,0 -8.733,2.533 -10.666,4.533c-2,2 -3.534,5 -3.534,9.267c0,4.267 2.534,8.4 4.6,10.267c2,1.8 5,3.133 8.867,3.133l0.4,0c4.133,-0.133 7.333,-0.667 10.2,-3.733c2.867,-3.2 3.6,-4.334 3.6,-9.2Zm-3.8,-0.734c-0,2.534 -0.933,6 -2.6,7.267c-0.4,0.2 -0.8,0.533 -1.333,0.867c-1.667,1.133 -3.534,2 -5.534,2c-0.266,-0 -0.533,-0 -0.866,-0.067c-3.2,-0.4 -4.734,-1.067 -6.667,-3.333c-1.933,-2.134 -2.533,-3.867 -2.533,-6.6c-0,-2.667 0.466,-5.2 3.133,-7.2c2.6,-1.934 4.667,-2.2 6.8,-2.2c3.4,-0 5.867,0.933 7.267,3.4c0.666,1.133 1.266,1.866 1.666,2.733c0.334,0.867 0.667,1.8 0.667,3.133Z" style="fill-rule:nonzero;"/>
    <path d="M642.233,242.567c0.067,-0.467 0.067,-0.8 0.067,-1.134c-0,-1.333 -0.467,-1.8 -2.4,-1.933l-0.333,0c-1.467,0 -1.8,0.6 -1.8,1.6c-0,0.333 -0,0.667 0.066,1.067c0.134,1.6 0.4,6.8 0.534,10.2c-0,0.533 0.066,1.066 0.066,1.6c0,2.6 -0.4,4.666 -1.6,6.133c-1.4,1.933 -2.8,2 -4.866,2.067l-0.2,-0c-0.467,0.066 -0.934,0.066 -1.334,0.066c-1.6,0 -2.866,-0.333 -4.133,-2.133c-0.8,-1 -1.2,-2.333 -1.4,-3.8c-0.133,-1.4 -0.2,-3.133 -0.267,-5.067c-0.066,-1.6 -0.066,-2.8 -0.066,-3.933c-0,-1.533 0.066,-2.867 0.2,-4.867l-0,-1.2c-0,-0.733 -0.067,-1 -0.134,-1.133c-0.066,0 -0.2,-0.067 -0.466,-0.133c-0.267,-0 -0.667,-0 -1.067,-0.067l-0.467,0c-1.533,0 -1.866,0.533 -1.866,1.133c-0,1.4 0.333,2.8 0.333,4.734c-0,1.8 0.067,8.2 0.067,11c-0,2.666 1.466,5.333 3.6,6.933c2,1.533 5.533,1.933 7.666,1.933c2.067,0 5.2,-1.333 8,-4.133c1.267,-1.267 1.667,-3.267 1.667,-5.333c-0,-2.067 -0.333,-4.067 -0.333,-5.2c-0,-2.2 0.2,-6.2 0.466,-8.4Z" style="fill-rule:nonzero;"/>
    <path d="M667.833,239.833c-0.466,-0.2 -2.066,-0.733 -3.866,-0.733c-1.8,0 -4.267,1.6 -5.134,3.267c-0.2,0.4 -0.466,0.8 -0.8,1c-0.2,0.066 -0.333,0.066 -0.4,0.066c-0.333,0 -0.6,-0.2 -0.733,-0.4c-0.2,-0.4 -0.267,-0.933 -0.267,-1.466l0,-0.467c0,-1.133 -1.2,-1.6 -2.066,-1.6c-1.667,0 -1.867,0.533 -1.934,0.867c0,0.066 -0.066,0.133 -0.066,0.266c-0,0.2 0.066,0.534 0.133,0.867c0.067,0.467 0.133,1 0.2,1.467c0.133,2.2 0.133,7.133 0.133,10.066c0,2.867 -0.133,5.867 -0.6,9.734c-0.066,0.666 -0.066,1.2 -0.066,1.533c-0,0.4 0.066,0.6 0.333,0.733c0.133,0.067 0.4,0.067 1,0.067c0.533,-0.067 1.2,-0.133 2,-0.133c1.667,-0 2.067,-1.134 2.067,-2.4c-0,-0.934 -0.267,-2 -0.4,-2.8c-0.267,-1.334 -0.334,-3.8 -0.334,-6.267c0,-1.333 0,-2.6 0.067,-3.733c0.2,-3.6 2.6,-5.6 4.867,-6.134c0.866,-0.2 1.466,-0.266 2.066,-0.266c0.8,-0 1.334,0.133 2.2,0.466c0.134,0 0.334,0.2 0.467,0.2c0.2,0 0.267,-0.066 0.333,-0.266c0.134,-0.067 0.267,-0.334 0.334,-0.667c0.2,-0.333 0.333,-0.733 0.466,-1.2c0.2,-0.667 0.334,-1.133 0.334,-1.4c-0,-0.333 -0.134,-0.533 -0.334,-0.667Z" style="fill-rule:nonzero;"/>
    <path d="M689.1,257.567c-0,-2.134 -1.467,-3.734 -2.8,-5.067c-1.067,-1.067 -5.133,-3.267 -6.533,-3.933c-1.534,-0.667 -3,-1.8 -3,-3.467c-0,-1.667 1.333,-2.333 3,-2.333l0.6,-0c2.133,0.066 3.266,0.8 4.866,2.133c0.534,0.467 0.8,0.533 0.934,0.533c0.2,0 0.333,-0.133 0.466,-0.266l0.467,-0.534c0.133,-0.2 0.333,-0.4 0.4,-0.6c0.2,-0.266 0.267,-0.533 0.267,-0.733c-0,-0.267 -0.067,-0.533 -0.334,-0.867c-0.933,-1 -3.666,-2.866 -7.666,-3l-0.467,0c-1.133,0 -1.733,0.134 -2.2,0.334c-0.533,0.266 -0.933,0.666 -1.333,1.066c-0.934,0.734 -2.067,2.067 -2.2,3.6c-0,0.267 -0.067,0.534 -0.067,0.734c-0,1.533 0.333,2.8 1.267,4c1.066,1.466 3.466,2.933 6,4c2.666,1.066 5.2,3.133 5.2,5.333c-0,2.267 -1.867,3.6 -4.8,3.8c-0.2,0 -0.4,0.067 -0.534,0.067c-2.866,-0 -4.866,-2.4 -5.333,-3.334c-0.133,-0.466 -0.667,-0.733 -1.067,-0.733c-0.266,0 -0.666,0.133 -1.133,0.2c-1,0.267 -1.333,1.067 -1.333,1.867c-0,0.266 -0,0.6 0.2,0.866c0.466,0.867 2.2,2.2 3.8,3.2c1.466,0.8 4.066,1.334 5.866,1.334c1.6,-0 3.534,-1.2 5.267,-2.334c1.467,-1 2.133,-3.666 2.2,-5.866Z" style="fill-rule:nonzero;"/>
    <path d="M720.567,252.033c-0,-0.066 0.066,-0.133 0.066,-0.266c0,-0.067 -0.066,-0.267 -0.066,-0.467l-0.267,-1.4c-0.467,-2.133 -2.8,-5.667 -4.533,-7.733c-1.734,-1.867 -5.067,-3 -7.867,-3.134l-0.733,0c-2.867,0 -5.134,1.4 -7.467,2.934l-0.533,0.333c-2.534,1.533 -4.334,6.6 -4.467,10.6l-0,0.2c-0,3.8 2.867,8 5.133,10.533c2.2,2.334 6.734,2.4 9,2.4c2.134,0 3.867,-0.533 5,-1.133c0.467,-0.267 1.134,-0.8 1.934,-1.467c0.733,-0.666 1.533,-1.333 2.4,-2c0.666,-0.466 1,-1 1,-1.533c-0,-0.6 -0.334,-1.2 -1.334,-2c-0.333,-0.267 -0.666,-0.4 -0.866,-0.4c-0.334,0 -0.534,0.2 -0.8,0.4c-0.467,0.533 -0.8,1.2 -1.067,1.867c-0.533,1.2 -3.2,2.533 -6.533,2.533l-0.534,0c-2.2,-0.067 -4.066,-0.733 -5.733,-2.067l-1,-0.8c-1.067,-0.933 -2.133,-3.6 -2.133,-5.266l-0,-0.467c0.2,-0.8 1.8,-1.267 3.8,-1.333c1.666,-0 3.533,0.066 4.533,0.066c1.4,0 5.267,0.067 8.267,0.067c1.533,0 2.866,0 3.6,-0.067c1.133,0 1.2,-0.266 1.2,-0.4Zm-4.734,-4.4c0.2,0.334 0.267,0.6 0.267,0.867c-0,0.733 -0.6,1.2 -1.8,1.2c-2.6,0 -5.467,0.067 -6.6,0.067c-1.2,-0 -4.733,-0.067 -5.467,-0.267c-0.733,-0.067 -2.333,-0.933 -2.333,-2.133c-0,-0.4 0.133,-0.8 0.467,-1.2c1.066,-1.467 4,-3.467 7.466,-3.467l0.267,0c3.133,0.133 4.2,1.067 5.733,2.533c0.667,0.667 1.6,1.534 2,2.4Z" style="fill-rule:nonzero;"/>
    <path d="M734.367,264.233c-0,-1 -0.4,-4.8 -0.667,-6.4c-0.133,-0.8 -0.133,-4 -0.133,-7.333l-0,-9.133c-0,-4.2 0.266,-12.4 0.533,-16.067l-0,-0.667c-0,-2.466 -1.2,-2.6 -2.533,-2.8l-0.334,0c-0.933,0 -2,0.267 -2,0.6c0,0.534 0.134,3.534 0.267,5.067c0.067,0.8 0.067,4 0.067,7.467l-0,8.8c0.066,1 0.066,2.666 0.066,4.533c0,4.733 -0.066,11.133 -0.266,14.133c-0.067,0.334 -0.067,0.6 -0.067,0.867c-0,1.4 0.4,1.933 0.8,2.133c0.267,0.267 0.8,0.334 1.2,0.334c0.4,-0 0.8,-0.067 1.133,-0.067c1.734,-0.133 1.934,-0.733 1.934,-1.467Z" style="fill-rule:nonzero;"/>
    <path d="M758.767,223.633l-0,-0.4c-0,-1.066 -0.534,-1.6 -1.267,-1.866c-0.933,-0.334 -2.067,-0.4 -3.067,-0.534c-1.933,0 -3.8,1.8 -5,3c-1.733,1.667 -2.466,5 -2.466,6.6l0.4,7.4c-0,1.6 -0.8,2 -1.8,2c-0.6,0 -1.334,-0.133 -1.934,-0.4l-0.266,0c-0.6,0 -1.134,0.667 -1.334,1.667c-0.066,0.333 -0.133,0.467 -0.133,0.667c-0,0.666 0.333,1.066 0.867,1.333c0.333,0.2 0.8,0.267 1.2,0.267c0.333,-0 0.733,-0 1.066,-0.067c0.867,0 1.867,0 2.267,0.933c0.2,0.334 0.2,0.667 0.2,1.067l-0,5.6c-0,1.933 -0.4,8.4 -0.8,11.4c-0.067,0.267 -0.067,0.467 -0.067,0.733c0,1.934 1.267,2.4 3.334,2.534l0.266,-0c0.934,-0 1.2,-0.2 1.334,-0.467c0.133,-0.333 0.133,-0.8 0.133,-1.2l-0,-0.6c-0,-1.533 -0.467,-6.133 -0.467,-9.133l0,-8.6c0,-1.334 0.4,-2.134 1.467,-2.334c0.4,-0.133 0.867,-0.133 1.467,-0.133c0.466,0.067 1.066,0.067 1.733,0.067c1.333,-0 1.8,-0.2 2,-0.4c-0,-0.134 0.133,-0.334 0.2,-0.667l0.133,-1.133c0,-0.667 -0.4,-0.8 -0.8,-0.867c-0.4,-0.067 -0.866,-0.067 -1.266,-0.067l-1.534,0c-2.466,0 -3.133,-2.266 -3.333,-4.066c-0.067,-0.867 -0.133,-2.2 -0.133,-3.334c-0,-1.2 0.066,-2.4 0.333,-3.2c0.533,-1.333 2.4,-3.4 4.733,-3.4l0.267,0c0.467,0 0.867,0.067 1.2,0.067c0.267,0 0.4,-0.067 0.467,-0.133c0.4,-0.267 0.4,-0.867 0.533,-2.067c-0,-0.067 0.067,-0.133 0.067,-0.267Z" style="fill-rule:nonzero;"/>
    <path d="M796.767,257.567c-0,-2.134 -1.467,-3.734 -2.8,-5.067c-1.067,-1.067 -5.134,-3.267 -6.534,-3.933c-1.533,-0.667 -3,-1.8 -3,-3.467c0,-1.667 1.334,-2.333 3,-2.333l0.6,-0c2.134,0.066 3.267,0.8 4.867,2.133c0.533,0.467 0.8,0.533 0.933,0.533c0.2,0 0.334,-0.133 0.467,-0.266l0.467,-0.534c0.133,-0.2 0.333,-0.4 0.4,-0.6c0.2,-0.266 0.266,-0.533 0.266,-0.733c0,-0.267 -0.066,-0.533 -0.333,-0.867c-0.933,-1 -3.667,-2.866 -7.667,-3l-0.466,0c-1.134,0 -1.734,0.134 -2.2,0.334c-0.534,0.266 -0.934,0.666 -1.334,1.066c-0.933,0.734 -2.066,2.067 -2.2,3.6c0,0.267 -0.066,0.534 -0.066,0.734c-0,1.533 0.333,2.8 1.266,4c1.067,1.466 3.467,2.933 6,4c2.667,1.066 5.2,3.133 5.2,5.333c0,2.267 -1.866,3.6 -4.8,3.8c-0.2,0 -0.4,0.067 -0.533,0.067c-2.867,-0 -4.867,-2.4 -5.333,-3.334c-0.134,-0.466 -0.667,-0.733 -1.067,-0.733c-0.267,0 -0.667,0.133 -1.133,0.2c-1,0.267 -1.334,1.067 -1.334,1.867c0,0.266 0,0.6 0.2,0.866c0.467,0.867 2.2,2.2 3.8,3.2c1.467,0.8 4.067,1.334 5.867,1.334c1.6,-0 3.533,-1.2 5.267,-2.334c1.466,-1 2.133,-3.666 2.2,-5.866Z" style="fill-rule:nonzero;"/>
    <path d="M819.5,265.033c0.533,-0.333 1,-0.733 1.333,-1.066c0.334,-0.4 0.667,-0.734 1,-0.934c0.4,-0.4 0.867,-0.6 1.334,-0.6c0.666,0 1.266,0.534 1.266,1.334c0,0.2 0,0.4 -0.066,0.6c-0,0.066 -0.067,0.133 -0.067,0.2c-0,0.6 0.667,0.666 2.533,0.8l0.334,-0c1,-0 1.2,-0.267 1.333,-0.534l-0,-13.133c-0,-2.2 -0.067,-4.533 -0.067,-6.667c0,-1.066 0,-2.066 0.067,-3l-0,-0.333c-0,-1.733 -0.867,-1.8 -2,-1.8l-0.667,0c-0.8,0 -1.2,0.067 -1.2,0.533c0,0.334 0.067,0.6 0.067,0.8c-0,1.067 -0.4,2 -1.2,2.267c-0.133,0.067 -0.2,0.067 -0.333,0.067c-0.467,-0 -1.067,-0.334 -1.667,-0.867c-0.6,-0.533 -1.067,-1.133 -1.6,-1.667c-0.733,-0.933 -3.467,-1.733 -6,-1.733c-3.733,0 -8,2.4 -10.067,5.267c-1.466,2.133 -2,5.466 -2.266,8.2l-0,0.533c-0,2.6 1.533,6.8 3.2,8.867c1.733,2.2 4.666,4.2 9.6,4.2c2.4,-0 4,-0.6 5.133,-1.334Zm5.133,-12.266c-0.2,2.8 -1.133,6.133 -3.466,7.866c-1.8,1.4 -3.2,1.734 -5.267,1.734c-0.4,-0 -0.8,-0.067 -1.333,-0.067c-3,-0.2 -5.534,-1.533 -6.6,-3.267c-0.867,-1.6 -1.467,-3.666 -1.467,-6l-0,-0.6c0.133,-2.4 1.133,-6.466 2.4,-7.4c0.933,-0.733 3.8,-1.933 6.2,-1.933c0.4,0 0.8,0 1.2,0.067l1.533,0.333c0.267,0 0.267,0.067 0.334,0.067c0.4,0.133 1,0.2 1.4,0.4c1.2,0.4 2.333,1.133 3.2,2.6l1,1.733c0.066,0.467 0.466,0.933 0.666,1.333c0.2,0.534 0.334,1.134 0.334,1.8c-0,0.4 -0.067,0.867 -0.134,1.334Z" style="fill-rule:nonzero;"/>
    <path d="M852.9,223.633l-0,-0.4c-0,-1.066 -0.533,-1.6 -1.267,-1.866c-0.933,-0.334 -2.066,-0.4 -3.066,-0.534c-1.934,0 -3.8,1.8 -5,3c-1.734,1.667 -2.467,5 -2.467,6.6l0.4,7.4c-0,1.6 -0.8,2 -1.8,2c-0.6,0 -1.333,-0.133 -1.933,-0.4l-0.267,0c-0.6,0 -1.133,0.667 -1.333,1.667c-0.067,0.333 -0.134,0.467 -0.134,0.667c0,0.666 0.334,1.066 0.867,1.333c0.333,0.2 0.8,0.267 1.2,0.267c0.333,-0 0.733,-0 1.067,-0.067c0.866,0 1.866,0 2.266,0.933c0.2,0.334 0.2,0.667 0.2,1.067l0,5.6c0,1.933 -0.4,8.4 -0.8,11.4c-0.066,0.267 -0.066,0.467 -0.066,0.733c-0,1.934 1.266,2.4 3.333,2.534l0.267,-0c0.933,-0 1.2,-0.2 1.333,-0.467c0.133,-0.333 0.133,-0.8 0.133,-1.2l0,-0.6c0,-1.533 -0.466,-6.133 -0.466,-9.133l-0,-8.6c-0,-1.334 0.4,-2.134 1.466,-2.334c0.4,-0.133 0.867,-0.133 1.467,-0.133c0.467,0.067 1.067,0.067 1.733,0.067c1.334,-0 1.8,-0.2 2,-0.4c0,-0.134 0.134,-0.334 0.2,-0.667l0.134,-1.133c-0,-0.667 -0.4,-0.8 -0.8,-0.867c-0.4,-0.067 -0.867,-0.067 -1.267,-0.067l-1.533,0c-2.467,0 -3.134,-2.266 -3.334,-4.066c-0.066,-0.867 -0.133,-2.2 -0.133,-3.334c-0,-1.2 0.067,-2.4 0.333,-3.2c0.534,-1.333 2.4,-3.4 4.734,-3.4l0.266,0c0.467,0 0.867,0.067 1.2,0.067c0.267,0 0.4,-0.067 0.467,-0.133c0.4,-0.267 0.4,-0.867 0.533,-2.067c0,-0.067 0.067,-0.133 0.067,-0.267Z" style="fill-rule:nonzero;"/>
    <path d="M883.633,252.033c0,-0.066 0.067,-0.133 0.067,-0.266c-0,-0.067 -0.067,-0.267 -0.067,-0.467l-0.266,-1.4c-0.467,-2.133 -2.8,-5.667 -4.534,-7.733c-1.733,-1.867 -5.066,-3 -7.866,-3.134l-0.734,0c-2.866,0 -5.133,1.4 -7.466,2.934l-0.534,0.333c-2.533,1.533 -4.333,6.6 -4.466,10.6l-0,0.2c-0,3.8 2.866,8 5.133,10.533c2.2,2.334 6.733,2.4 9,2.4c2.133,0 3.867,-0.533 5,-1.133c0.467,-0.267 1.133,-0.8 1.933,-1.467c0.734,-0.666 1.534,-1.333 2.4,-2c0.667,-0.466 1,-1 1,-1.533c0,-0.6 -0.333,-1.2 -1.333,-2c-0.333,-0.267 -0.667,-0.4 -0.867,-0.4c-0.333,0 -0.533,0.2 -0.8,0.4c-0.466,0.533 -0.8,1.2 -1.066,1.867c-0.534,1.2 -3.2,2.533 -6.534,2.533l-0.533,0c-2.2,-0.067 -4.067,-0.733 -5.733,-2.067l-1,-0.8c-1.067,-0.933 -2.134,-3.6 -2.134,-5.266l0,-0.467c0.2,-0.8 1.8,-1.267 3.8,-1.333c1.667,-0 3.534,0.066 4.534,0.066c1.4,0 5.266,0.067 8.266,0.067c1.534,0 2.867,0 3.6,-0.067c1.134,0 1.2,-0.266 1.2,-0.4Zm-4.733,-4.4c0.2,0.334 0.267,0.6 0.267,0.867c-0,0.733 -0.6,1.2 -1.8,1.2c-2.6,0 -5.467,0.067 -6.6,0.067c-1.2,-0 -4.734,-0.067 -5.467,-0.267c-0.733,-0.067 -2.333,-0.933 -2.333,-2.133c-0,-0.4 0.133,-0.8 0.466,-1.2c1.067,-1.467 4,-3.467 7.467,-3.467l0.267,0c3.133,0.133 4.2,1.067 5.733,2.533c0.667,0.667 1.6,1.534 2,2.4Z" style="fill-rule:nonzero;"/>
    <path d="M923.3,265.033c0.533,-0.333 1,-0.733 1.333,-1.066c0.334,-0.4 0.667,-0.734 1,-0.934c0.4,-0.4 0.867,-0.6 1.334,-0.6c0.666,0 1.266,0.534 1.266,1.334c0,0.2 0,0.4 -0.066,0.6c-0,0.066 -0.067,0.133 -0.067,0.2c-0,0.6 0.667,0.666 2.533,0.8l0.334,-0c1,-0 1.2,-0.267 1.333,-0.534l-0,-13.133c-0,-2.2 -0.067,-4.533 -0.067,-6.667c0,-1.066 0,-2.066 0.067,-3l-0,-0.333c-0,-1.733 -0.867,-1.8 -2,-1.8l-0.667,0c-0.8,0 -1.2,0.067 -1.2,0.533c0,0.334 0.067,0.6 0.067,0.8c-0,1.067 -0.4,2 -1.2,2.267c-0.133,0.067 -0.2,0.067 -0.333,0.067c-0.467,-0 -1.067,-0.334 -1.667,-0.867c-0.6,-0.533 -1.067,-1.133 -1.6,-1.667c-0.733,-0.933 -3.467,-1.733 -6,-1.733c-3.733,0 -8,2.4 -10.067,5.267c-1.466,2.133 -2,5.466 -2.266,8.2l-0,0.533c-0,2.6 1.533,6.8 3.2,8.867c1.733,2.2 4.666,4.2 9.6,4.2c2.4,-0 4,-0.6 5.133,-1.334Zm5.133,-12.266c-0.2,2.8 -1.133,6.133 -3.466,7.866c-1.8,1.4 -3.2,1.734 -5.267,1.734c-0.4,-0 -0.8,-0.067 -1.333,-0.067c-3,-0.2 -5.534,-1.533 -6.6,-3.267c-0.867,-1.6 -1.467,-3.666 -1.467,-6l-0,-0.6c0.133,-2.4 1.133,-6.466 2.4,-7.4c0.933,-0.733 3.8,-1.933 6.2,-1.933c0.4,0 0.8,0 1.2,0.067l1.533,0.333c0.267,0 0.267,0.067 0.334,0.067c0.4,0.133 1,0.2 1.4,0.4c1.2,0.4 2.333,1.133 3.2,2.6l1,1.733c0.066,0.467 0.466,0.933 0.666,1.333c0.2,0.534 0.334,1.134 0.334,1.8c-0,0.4 -0.067,0.867 -0.134,1.334Z" style="fill-rule:nonzero;"/>
    <path d="M966.7,243.433c0.067,-0.4 0.067,-0.733 0.067,-1.066c-0,-1.6 -0.667,-1.934 -2.067,-2.067c-0.333,-0.067 -0.533,-0.067 -0.8,-0.067c-0.733,0 -0.933,0.2 -0.933,0.667c-0,0.4 0.133,0.8 0.133,1.2c-0,0.4 -0.067,1 -0.6,1.4c-0.133,0.2 -0.333,0.267 -0.6,0.267c-0.4,-0 -0.867,-0.267 -1.4,-0.734c-0.467,-0.533 -1,-1.133 -1.667,-1.533c-1.2,-0.733 -3.6,-1.933 -7,-2.067l-0.2,0c-2.533,0 -5.466,2 -7.066,3.467c-1.534,1.467 -4,4.6 -4,9.867l-0,0.333c0.066,2.8 0.666,4.733 1.6,6.267c0.8,1.4 1.933,2.533 3,3.666l0.333,0.267c2.333,2.333 5.667,2.733 7.333,2.733c1.6,0 3.667,-0.4 4.934,-1.666c1.333,-1.334 2.933,-2 4.066,-2l0.334,-0c0.8,0.133 0.933,0.933 1,1.533c-0,0.6 -0.134,1.533 -0.2,2.733c-0.134,2.467 -0.667,3.8 -1.6,5.534c-1.134,2 -4.4,2.933 -7.6,3.2c-0.2,-0 -0.4,0.066 -0.6,0.066c-3.267,0 -5.934,-2.4 -7,-4.133c-0.467,-0.8 -0.8,-1.067 -1.267,-1.2c-0.2,-0.067 -0.467,-0.067 -0.8,-0.067l-1.333,0c-0.8,0 -1.067,0.467 -1.067,1.067c-0,0.4 0.2,1 0.4,1.333c0.2,0.467 0.667,1 1.2,1.6c0.533,0.6 1.2,1.2 1.8,1.734c1.067,1.066 4,2.333 7.867,2.666l0.733,0c3.467,0 6.467,-1.333 8.133,-2.333c1.667,-0.933 3.667,-4 4.334,-6.333c0.333,-1 0.4,-3.267 0.4,-5.667c-0,-2.667 -0.067,-5.533 -0.134,-7.4c-0.066,-1.267 -0.066,-2.867 -0.066,-4.6c-0,-3.2 0.066,-6.733 0.333,-8.667Zm-3.733,9.467c-0,1.933 -0.134,4.333 -1.8,6.467c-1.6,2 -3.334,3.6 -7.334,3.6l-0.4,-0c-2.133,-0.067 -3.6,-0.534 -4.6,-1.2c-1,-0.667 -1.666,-1.4 -2.333,-2.267c-1.333,-1.533 -2,-3.733 -2.067,-6.4l0,-0.667c0,-2.533 0.534,-4.733 2.334,-6.8c2,-2.266 4.8,-2.533 7.066,-2.533c3,0 5.534,1 7.067,3.067c1.533,2.066 2.067,4.666 2.067,6.733Z" style="fill-rule:nonzero;"/>
    <path d="M993.033,265.033c0.534,-0.333 1,-0.733 1.334,-1.066c0.333,-0.4 0.666,-0.734 1,-0.934c0.4,-0.4 0.866,-0.6 1.333,-0.6c0.667,0 1.267,0.534 1.267,1.334c-0,0.2 -0,0.4 -0.067,0.6c-0,0.066 -0.067,0.133 -0.067,0.2c0,0.6 0.667,0.666 2.534,0.8l0.333,-0c1,-0 1.2,-0.267 1.333,-0.534l0,-13.133c0,-2.2 -0.066,-4.533 -0.066,-6.667c-0,-1.066 -0,-2.066 0.066,-3l0,-0.333c0,-1.733 -0.866,-1.8 -2,-1.8l-0.666,0c-0.8,0 -1.2,0.067 -1.2,0.533c-0,0.334 0.066,0.6 0.066,0.8c0,1.067 -0.4,2 -1.2,2.267c-0.133,0.067 -0.2,0.067 -0.333,0.067c-0.467,-0 -1.067,-0.334 -1.667,-0.867c-0.6,-0.533 -1.066,-1.133 -1.6,-1.667c-0.733,-0.933 -3.466,-1.733 -6,-1.733c-3.733,0 -8,2.4 -10.066,5.267c-1.467,2.133 -2,5.466 -2.267,8.2l-0,0.533c-0,2.6 1.533,6.8 3.2,8.867c1.733,2.2 4.667,4.2 9.6,4.2c2.4,-0 4,-0.6 5.133,-1.334Zm5.134,-12.266c-0.2,2.8 -1.134,6.133 -3.467,7.866c-1.8,1.4 -3.2,1.734 -5.267,1.734c-0.4,-0 -0.8,-0.067 -1.333,-0.067c-3,-0.2 -5.533,-1.533 -6.6,-3.267c-0.867,-1.6 -1.467,-3.666 -1.467,-6l0,-0.6c0.134,-2.4 1.134,-6.466 2.4,-7.4c0.934,-0.733 3.8,-1.933 6.2,-1.933c0.4,0 0.8,0 1.2,0.067l1.534,0.333c0.266,0 0.266,0.067 0.333,0.067c0.4,0.133 1,0.2 1.4,0.4c1.2,0.4 2.333,1.133 3.2,2.6l1,1.733c0.067,0.467 0.467,0.933 0.667,1.333c0.2,0.534 0.333,1.134 0.333,1.8c-0,0.4 -0.067,0.867 -0.133,1.334Z" style="fill-rule:nonzero;"/>
    <path d="M1018.23,230.9c-0.066,-1.8 -1.666,-3.467 -3.333,-3.667l-0.467,0c-1.733,0 -2.933,1.067 -3.066,2.6c0.066,2.067 1.866,3.734 3.8,3.734c2,-0 2.8,-1.134 3.066,-2.667Zm-0.8,32.067c-0.2,-1.534 -0.8,-7.334 -0.8,-10.2c0,-1.334 -0.066,-2.667 -0.066,-4.067c-0,-1.8 0.066,-3.667 0.266,-5.933c0,-0.4 0.067,-0.734 0.067,-1.067c-0,-2.133 -0.667,-2.267 -1.733,-2.267c-1.734,0 -2.134,0.4 -2.134,1.6c0,0.2 0.067,0.4 0.067,0.734c0.133,2 0.267,7.6 0.267,10.466c-0,2.867 -0.534,7.934 -0.534,10.4c0,2.334 0.134,2.734 2.134,2.734c1.866,-0 2.533,-0.867 2.533,-1.934c-0,-0.133 -0.067,-0.333 -0.067,-0.466Z" style="fill-rule:nonzero;"/>
    <path d="M1050.9,261.833c-0.2,-1.733 -0.4,-7.2 -0.4,-11.066c-0,-0.8 0.067,-1.6 0.067,-2.2l-0,-0.267c-0,-3.067 -1.6,-5.733 -2.534,-6.867c-0.933,-1.2 -2.933,-2.333 -5.533,-2.4l-0.467,0c-2.2,0 -3.533,0.8 -5.8,2.934c-0.933,0.866 -1.666,1.133 -2.133,1.2c-0.4,-0 -0.6,-0.2 -0.733,-0.4c-0.134,-0.334 -0.2,-0.734 -0.2,-1.134c-0,-0.4 -0,-0.733 0.066,-1.066c0,-1.134 -1.066,-1.334 -1.866,-1.334c-0.734,0 -2,0.067 -2.267,0.667c-0.067,0.2 -0.133,0.467 -0.133,0.8c0.066,0.4 0.133,0.733 0.133,1.2c0.133,1.867 0.933,6.067 0.933,8.8c0,2.733 -0.133,6.067 -0.666,10.467c-0.134,0.8 -0.134,1.4 -0.134,1.933c0,1.933 0.667,2.333 2.2,2.333c0.2,0 0.467,-0.066 0.8,-0.066c1.334,-0.067 1.6,-0.467 1.667,-0.667l-0,-0.467c-0,-0.466 -0.067,-1 -0.133,-1.333c-0.267,-1.467 -0.534,-6.8 -0.534,-9.133c0,-2.2 0.334,-5.867 1.734,-7.8c1.466,-2 3.666,-3.134 5.666,-3.134l0.934,0c0.4,0 0.866,0 1.266,0.134c0.734,0.133 1.4,0.533 2.334,1.266c1.133,0.867 1.6,2 1.8,3.4c0.133,0.8 0.133,1.734 0.133,2.734l-0,2.133c-0,3.8 -0.533,5.933 -0.8,9.667c-0,0.266 -0.067,0.6 -0.067,0.8c0,2.466 1.134,2.533 3.134,2.533c1.4,0 1.733,-0.733 1.733,-1.8c-0,-0.6 -0.133,-1.267 -0.2,-1.867Z" style="fill-rule:nonzero;"/>
    <path d="M1083.5,230.9c-0.067,-1.8 -1.667,-3.467 -3.333,-3.667l-0.467,0c-1.733,0 -2.933,1.067 -3.067,2.6c0.067,2.067 1.867,3.734 3.8,3.734c2,-0 2.8,-1.134 3.067,-2.667Zm-0.8,32.067c-0.2,-1.534 -0.8,-7.334 -0.8,-10.2c-0,-1.334 -0.067,-2.667 -0.067,-4.067c0,-1.8 0.067,-3.667 0.267,-5.933c-0,-0.4 0.067,-0.734 0.067,-1.067c-0,-2.133 -0.667,-2.267 -1.734,-2.267c-1.733,0 -2.133,0.4 -2.133,1.6c-0,0.2 0.067,0.4 0.067,0.734c0.133,2 0.266,7.6 0.266,10.466c0,2.867 -0.533,7.934 -0.533,10.4c-0,2.334 0.133,2.734 2.133,2.734c1.867,-0 2.534,-0.867 2.534,-1.934c-0,-0.133 -0.067,-0.333 -0.067,-0.466Z" style="fill-rule:nonzero;"/>
    <path d="M1116.17,261.833c-0.2,-1.733 -0.4,-7.2 -0.4,-11.066c-0,-0.8 0.066,-1.6 0.066,-2.2l0,-0.267c0,-3.067 -1.6,-5.733 -2.533,-6.867c-0.933,-1.2 -2.933,-2.333 -5.533,-2.4l-0.467,0c-2.2,0 -3.533,0.8 -5.8,2.934c-0.933,0.866 -1.667,1.133 -2.133,1.2c-0.4,-0 -0.6,-0.2 -0.734,-0.4c-0.133,-0.334 -0.2,-0.734 -0.2,-1.134c0,-0.4 0,-0.733 0.067,-1.066c-0,-1.134 -1.067,-1.334 -1.867,-1.334c-0.733,0 -2,0.067 -2.266,0.667c-0.067,0.2 -0.134,0.467 -0.134,0.8c0.067,0.4 0.134,0.733 0.134,1.2c0.133,1.867 0.933,6.067 0.933,8.8c-0,2.733 -0.133,6.067 -0.667,10.467c-0.133,0.8 -0.133,1.4 -0.133,1.933c-0,1.933 0.667,2.333 2.2,2.333c0.2,0 0.467,-0.066 0.8,-0.066c1.333,-0.067 1.6,-0.467 1.667,-0.667l-0,-0.467c-0,-0.466 -0.067,-1 -0.134,-1.333c-0.266,-1.467 -0.533,-6.8 -0.533,-9.133c-0,-2.2 0.333,-5.867 1.733,-7.8c1.467,-2 3.667,-3.134 5.667,-3.134l0.933,0c0.4,0 0.867,0 1.267,0.134c0.733,0.133 1.4,0.533 2.333,1.266c1.134,0.867 1.6,2 1.8,3.4c0.134,0.8 0.134,1.734 0.134,2.734l-0,2.133c-0,3.8 -0.534,5.933 -0.8,9.667c-0,0.266 -0.067,0.6 -0.067,0.8c-0,2.466 1.133,2.533 3.133,2.533c1.4,0 1.734,-0.733 1.734,-1.8c-0,-0.6 -0.134,-1.267 -0.2,-1.867Z" style="fill-rule:nonzero;"/>
    <path d="M1158.1,265.033c0.533,-0.333 1,-0.733 1.333,-1.066c0.334,-0.4 0.667,-0.734 1,-0.934c0.4,-0.4 0.867,-0.6 1.334,-0.6c0.666,0 1.266,0.534 1.266,1.334c0,0.2 0,0.4 -0.066,0.6c-0,0.066 -0.067,0.133 -0.067,0.2c-0,0.6 0.667,0.666 2.533,0.8l0.334,-0c1,-0 1.2,-0.267 1.333,-0.534l-0,-13.133c-0,-2.2 -0.067,-4.533 -0.067,-6.667c0,-1.066 0,-2.066 0.067,-3l-0,-0.333c-0,-1.733 -0.867,-1.8 -2,-1.8l-0.667,0c-0.8,0 -1.2,0.067 -1.2,0.533c0,0.334 0.067,0.6 0.067,0.8c-0,1.067 -0.4,2 -1.2,2.267c-0.133,0.067 -0.2,0.067 -0.333,0.067c-0.467,-0 -1.067,-0.334 -1.667,-0.867c-0.6,-0.533 -1.067,-1.133 -1.6,-1.667c-0.733,-0.933 -3.467,-1.733 -6,-1.733c-3.733,0 -8,2.4 -10.067,5.267c-1.466,2.133 -2,5.466 -2.266,8.2l-0,0.533c-0,2.6 1.533,6.8 3.2,8.867c1.733,2.2 4.666,4.2 9.6,4.2c2.4,-0 4,-0.6 5.133,-1.334Zm5.133,-12.266c-0.2,2.8 -1.133,6.133 -3.466,7.866c-1.8,1.4 -3.2,1.734 -5.267,1.734c-0.4,-0 -0.8,-0.067 -1.333,-0.067c-3,-0.2 -5.534,-1.533 -6.6,-3.267c-0.867,-1.6 -1.467,-3.666 -1.467,-6l-0,-0.6c0.133,-2.4 1.133,-6.466 2.4,-7.4c0.933,-0.733 3.8,-1.933 6.2,-1.933c0.4,0 0.8,0 1.2,0.067l1.533,0.333c0.267,0 0.267,0.067 0.334,0.067c0.4,0.133 1,0.2 1.4,0.4c1.2,0.4 2.333,1.133 3.2,2.6l1,1.733c0.066,0.467 0.466,0.933 0.666,1.333c0.2,0.534 0.334,1.134 0.334,1.8c-0,0.4 -0.067,0.867 -0.134,1.334Z" style="fill-rule:nonzero;"/>
    <path d="M1200.1,264.233c-0,-1 -0.4,-4.8 -0.667,-6.4c-0.133,-0.8 -0.133,-4 -0.133,-7.333l-0,-9.133c-0,-4.2 0.267,-12.4 0.533,-16.067l0,-0.667c0,-2.466 -1.2,-2.6 -2.533,-2.8l-0.333,0c-0.934,0 -2,0.267 -2,0.6c-0,0.534 0.133,3.534 0.266,5.067c0.067,0.8 0.067,4 0.067,7.467l-0,8.8c0.067,1 0.067,2.666 0.067,4.533c-0,4.733 -0.067,11.133 -0.267,14.133c-0.067,0.334 -0.067,0.6 -0.067,0.867c0,1.4 0.4,1.933 0.8,2.133c0.267,0.267 0.8,0.334 1.2,0.334c0.4,-0 0.8,-0.067 1.134,-0.067c1.733,-0.133 1.933,-0.733 1.933,-1.467Z" style="fill-rule:nonzero;"/>
    <path d="M1225.63,265.033c0.534,-0.333 1,-0.733 1.334,-1.066c0.333,-0.4 0.666,-0.734 1,-0.934c0.4,-0.4 0.866,-0.6 1.333,-0.6c0.667,0 1.267,0.534 1.267,1.334c-0,0.2 -0,0.4 -0.067,0.6c-0,0.066 -0.067,0.133 -0.067,0.2c0,0.6 0.667,0.666 2.534,0.8l0.333,-0c1,-0 1.2,-0.267 1.333,-0.534l0,-13.133c0,-2.2 -0.066,-4.533 -0.066,-6.667c-0,-1.066 -0,-2.066 0.066,-3l0,-0.333c0,-1.733 -0.866,-1.8 -2,-1.8l-0.666,0c-0.8,0 -1.2,0.067 -1.2,0.533c-0,0.334 0.066,0.6 0.066,0.8c0,1.067 -0.4,2 -1.2,2.267c-0.133,0.067 -0.2,0.067 -0.333,0.067c-0.467,-0 -1.067,-0.334 -1.667,-0.867c-0.6,-0.533 -1.066,-1.133 -1.6,-1.667c-0.733,-0.933 -3.466,-1.733 -6,-1.733c-3.733,0 -8,2.4 -10.066,5.267c-1.467,2.133 -2,5.466 -2.267,8.2l-0,0.533c-0,2.6 1.533,6.8 3.2,8.867c1.733,2.2 4.667,4.2 9.6,4.2c2.4,-0 4,-0.6 5.133,-1.334Zm5.134,-12.266c-0.2,2.8 -1.134,6.133 -3.467,7.866c-1.8,1.4 -3.2,1.734 -5.267,1.734c-0.4,-0 -0.8,-0.067 -1.333,-0.067c-3,-0.2 -5.533,-1.533 -6.6,-3.267c-0.867,-1.6 -1.467,-3.666 -1.467,-6l0,-0.6c0.134,-2.4 1.134,-6.466 2.4,-7.4c0.934,-0.733 3.8,-1.933 6.2,-1.933c0.4,0 0.8,0 1.2,0.067l1.534,0.333c0.266,0 0.266,0.067 0.333,0.067c0.4,0.133 1,0.2 1.4,0.4c1.2,0.4 2.333,1.133 3.2,2.6l1,1.733c0.067,0.467 0.467,0.933 0.667,1.333c0.2,0.534 0.333,1.134 0.333,1.8c-0,0.4 -0.067,0.867 -0.133,1.334Z" style="fill-rule:nonzero;"/>
    <path d="M1267.17,261.833c-0.2,-1.733 -0.4,-7.2 -0.4,-11.066c-0,-0.8 0.066,-1.6 0.066,-2.2l0,-0.267c0,-3.067 -1.6,-5.733 -2.533,-6.867c-0.933,-1.2 -2.933,-2.333 -5.533,-2.4l-0.467,0c-2.2,0 -3.533,0.8 -5.8,2.934c-0.933,0.866 -1.667,1.133 -2.133,1.2c-0.4,-0 -0.6,-0.2 -0.734,-0.4c-0.133,-0.334 -0.2,-0.734 -0.2,-1.134c0,-0.4 0,-0.733 0.067,-1.066c-0,-1.134 -1.067,-1.334 -1.867,-1.334c-0.733,0 -2,0.067 -2.266,0.667c-0.067,0.2 -0.134,0.467 -0.134,0.8c0.067,0.4 0.134,0.733 0.134,1.2c0.133,1.867 0.933,6.067 0.933,8.8c-0,2.733 -0.133,6.067 -0.667,10.467c-0.133,0.8 -0.133,1.4 -0.133,1.933c-0,1.933 0.667,2.333 2.2,2.333c0.2,0 0.467,-0.066 0.8,-0.066c1.333,-0.067 1.6,-0.467 1.667,-0.667l-0,-0.467c-0,-0.466 -0.067,-1 -0.134,-1.333c-0.266,-1.467 -0.533,-6.8 -0.533,-9.133c-0,-2.2 0.333,-5.867 1.733,-7.8c1.467,-2 3.667,-3.134 5.667,-3.134l0.933,0c0.4,0 0.867,0 1.267,0.134c0.733,0.133 1.4,0.533 2.333,1.266c1.134,0.867 1.6,2 1.8,3.4c0.134,0.8 0.134,1.734 0.134,2.734l-0,2.133c-0,3.8 -0.534,5.933 -0.8,9.667c-0,0.266 -0.067,0.6 -0.067,0.8c-0,2.466 1.133,2.533 3.133,2.533c1.4,0 1.734,-0.733 1.734,-1.8c-0,-0.6 -0.134,-1.267 -0.2,-1.867Z" style="fill-rule:nonzero;"/>
    <path d="M1301.57,223.433c-0,-0.533 -0.067,-0.866 -0.134,-1c-0.266,-0.466 -0.866,-0.466 -2.066,-0.6c-0.134,0 -0.267,-0.066 -0.4,-0.066l-0.467,-0c-1.267,-0 -1.533,0.466 -1.667,1c-0.066,0.266 -0.066,0.533 -0.066,0.866l-0,0.8l0.2,2.067c0.2,3 0.266,7.933 0.466,10.667c0.067,0.866 0.134,1.533 0.134,2.066c-0,1.267 -0.267,1.934 -1.067,2.6c-0.333,0.267 -0.667,0.4 -1,0.4c-0.4,0 -0.8,-0.133 -1.2,-0.333c-0.6,-0.333 -1.467,-0.933 -2.533,-1.6c-1.334,-0.867 -2.934,-1 -4.467,-1c-0.667,0 -1.333,0.067 -1.933,0.067c-2.4,0.066 -5.8,2.2 -7.6,4.2c-1.667,1.933 -2.934,6.133 -2.934,9.933c0,3.733 2,7.333 4.267,9.467c2.267,2.133 5.467,3.4 7.933,3.4c2.534,-0 5.2,-0.6 7,-2.667c0.934,-1.133 1.734,-1.533 2.2,-1.533c0.8,-0 1.2,0.866 1.4,1.933c0.067,0.467 0.067,0.733 0.334,0.933c0.133,0.067 0.266,0.067 0.666,0.134l1.467,0.2l0.333,-0c0.8,-0 0.934,-0.334 1,-0.734l0,-1.2l-0.266,-1.533c-0.267,-1.867 -0.667,-10.133 -0.667,-13.467l-0,-0.933l0.4,-4.333c0.067,-0.934 0.133,-1.734 0.133,-2.534c0,-0.466 0,-0.866 -0.066,-1.2c-0.067,-0.4 -0.134,-1 -0.134,-1.733c0,-1.067 0.267,-3.6 0.267,-4l-0,-0.6c0.067,-2.733 0.333,-5.667 0.333,-7.467c0,-0.866 0.067,-1.6 0.134,-2.2Zm-4.4,26.334c0.333,1 0.533,2 0.533,2.866c-0,1.2 -0.267,2.4 -0.8,3.667c-0.4,1.133 -0.933,1.933 -1.533,2.667c-0.534,0.6 -1.134,1.133 -1.667,1.733c-1.067,1.067 -3,1.467 -4.6,1.467c-0.333,-0 -0.6,-0 -0.8,-0.067l-1.2,0c-0.333,0 -0.8,0 -1.333,-0.133c-0.934,-0.267 -2,-0.867 -3.667,-2.2c-1.6,-1.334 -2.4,-2.534 -2.733,-3.667c-0.267,-0.533 -0.267,-1 -0.334,-1.533c0,-0 0,-0.067 -0.133,-1.534l-0,-0.466c-0,-2 0.667,-4.534 2.2,-6.534c1.6,-2.066 2.933,-2.933 5.667,-2.933l0.8,0c3.133,0.067 5.533,0.6 6.8,2c1.066,1.2 2,2.4 2.8,4.667Z" style="fill-rule:nonzero;"/>
    <path d="M1353.77,253.167l-0,-0.334c-0,-4.533 -2.134,-7.933 -4.134,-10.066c-2,-2.067 -5.266,-3.734 -9,-3.867l-0.333,0c-6.067,0 -8.733,2.533 -10.667,4.533c-2,2 -3.533,5 -3.533,9.267c-0,4.267 2.533,8.4 4.6,10.267c2,1.8 5,3.133 8.867,3.133l0.4,0c4.133,-0.133 7.333,-0.667 10.2,-3.733c2.866,-3.2 3.6,-4.334 3.6,-9.2Zm-3.8,-0.734c-0,2.534 -0.934,6 -2.6,7.267c-0.4,0.2 -0.8,0.533 -1.334,0.867c-1.666,1.133 -3.533,2 -5.533,2c-0.267,-0 -0.533,-0 -0.867,-0.067c-3.2,-0.4 -4.733,-1.067 -6.666,-3.333c-1.934,-2.134 -2.534,-3.867 -2.534,-6.6c0,-2.667 0.467,-5.2 3.134,-7.2c2.6,-1.934 4.666,-2.2 6.8,-2.2c3.4,-0 5.866,0.933 7.266,3.4c0.667,1.133 1.267,1.866 1.667,2.733c0.333,0.867 0.667,1.8 0.667,3.133Z" style="fill-rule:nonzero;"/>
    <path d="M1375.63,223.633l0,-0.4c0,-1.066 -0.533,-1.6 -1.266,-1.866c-0.934,-0.334 -2.067,-0.4 -3.067,-0.534c-1.933,0 -3.8,1.8 -5,3c-1.733,1.667 -2.467,5 -2.467,6.6l0.4,7.4c0,1.6 -0.8,2 -1.8,2c-0.6,0 -1.333,-0.133 -1.933,-0.4l-0.267,0c-0.6,0 -1.133,0.667 -1.333,1.667c-0.067,0.333 -0.133,0.467 -0.133,0.667c-0,0.666 0.333,1.066 0.866,1.333c0.334,0.2 0.8,0.267 1.2,0.267c0.334,-0 0.734,-0 1.067,-0.067c0.867,0 1.867,0 2.267,0.933c0.2,0.334 0.2,0.667 0.2,1.067l-0,5.6c-0,1.933 -0.4,8.4 -0.8,11.4c-0.067,0.267 -0.067,0.467 -0.067,0.733c-0,1.934 1.267,2.4 3.333,2.534l0.267,-0c0.933,-0 1.2,-0.2 1.333,-0.467c0.134,-0.333 0.134,-0.8 0.134,-1.2l-0,-0.6c-0,-1.533 -0.467,-6.133 -0.467,-9.133l-0,-8.6c-0,-1.334 0.4,-2.134 1.467,-2.334c0.4,-0.133 0.866,-0.133 1.466,-0.133c0.467,0.067 1.067,0.067 1.734,0.067c1.333,-0 1.8,-0.2 2,-0.4c-0,-0.134 0.133,-0.334 0.2,-0.667l0.133,-1.133c-0,-0.667 -0.4,-0.8 -0.8,-0.867c-0.4,-0.067 -0.867,-0.067 -1.267,-0.067l-1.533,0c-2.467,0 -3.133,-2.266 -3.333,-4.066c-0.067,-0.867 -0.134,-2.2 -0.134,-3.334c0,-1.2 0.067,-2.4 0.334,-3.2c0.533,-1.333 2.4,-3.4 4.733,-3.4l0.267,0c0.466,0 0.866,0.067 1.2,0.067c0.266,0 0.4,-0.067 0.466,-0.133c0.4,-0.267 0.4,-0.867 0.534,-2.067c-0,-0.067 0.066,-0.133 0.066,-0.267Z" style="fill-rule:nonzero;"/>
    <path d="M1423.17,243.433c0.066,-0.4 0.066,-0.733 0.066,-1.066c0,-1.6 -0.666,-1.934 -2.066,-2.067c-0.334,-0.067 -0.534,-0.067 -0.8,-0.067c-0.734,0 -0.934,0.2 -0.934,0.667c0,0.4 0.134,0.8 0.134,1.2c-0,0.4 -0.067,1 -0.6,1.4c-0.134,0.2 -0.334,0.267 -0.6,0.267c-0.4,-0 -0.867,-0.267 -1.4,-0.734c-0.467,-0.533 -1,-1.133 -1.667,-1.533c-1.2,-0.733 -3.6,-1.933 -7,-2.067l-0.2,0c-2.533,0 -5.467,2 -7.067,3.467c-1.533,1.467 -4,4.6 -4,9.867l0,0.333c0.067,2.8 0.667,4.733 1.6,6.267c0.8,1.4 1.934,2.533 3,3.666l0.334,0.267c2.333,2.333 5.666,2.733 7.333,2.733c1.6,0 3.667,-0.4 4.933,-1.666c1.334,-1.334 2.934,-2 4.067,-2l0.333,-0c0.8,0.133 0.934,0.933 1,1.533c0,0.6 -0.133,1.533 -0.2,2.733c-0.133,2.467 -0.666,3.8 -1.6,5.534c-1.133,2 -4.4,2.933 -7.6,3.2c-0.2,-0 -0.4,0.066 -0.6,0.066c-3.266,0 -5.933,-2.4 -7,-4.133c-0.466,-0.8 -0.8,-1.067 -1.266,-1.2c-0.2,-0.067 -0.467,-0.067 -0.8,-0.067l-1.334,0c-0.8,0 -1.066,0.467 -1.066,1.067c-0,0.4 0.2,1 0.4,1.333c0.2,0.467 0.666,1 1.2,1.6c0.533,0.6 1.2,1.2 1.8,1.734c1.066,1.066 4,2.333 7.866,2.666l0.734,0c3.466,0 6.466,-1.333 8.133,-2.333c1.667,-0.933 3.667,-4 4.333,-6.333c0.334,-1 0.4,-3.267 0.4,-5.667c0,-2.667 -0.066,-5.533 -0.133,-7.4c-0.067,-1.267 -0.067,-2.867 -0.067,-4.6c0,-3.2 0.067,-6.733 0.334,-8.667Zm-3.734,9.467c0,1.933 -0.133,4.333 -1.8,6.467c-1.6,2 -3.333,3.6 -7.333,3.6l-0.4,-0c-2.133,-0.067 -3.6,-0.534 -4.6,-1.2c-1,-0.667 -1.667,-1.4 -2.333,-2.267c-1.334,-1.533 -2,-3.733 -2.067,-6.4l-0,-0.667c-0,-2.533 0.533,-4.733 2.333,-6.8c2,-2.266 4.8,-2.533 7.067,-2.533c3,0 5.533,1 7.067,3.067c1.533,2.066 2.066,4.666 2.066,6.733Z" style="fill-rule:nonzero;"/>
    <path d="M1449.63,239.833c-0.466,-0.2 -2.066,-0.733 -3.866,-0.733c-1.8,0 -4.267,1.6 -5.134,3.267c-0.2,0.4 -0.466,0.8 -0.8,1c-0.2,0.066 -0.333,0.066 -0.4,0.066c-0.333,0 -0.6,-0.2 -0.733,-0.4c-0.2,-0.4 -0.267,-0.933 -0.267,-1.466l0,-0.467c0,-1.133 -1.2,-1.6 -2.066,-1.6c-1.667,0 -1.867,0.533 -1.934,0.867c0,0.066 -0.066,0.133 -0.066,0.266c-0,0.2 0.066,0.534 0.133,0.867c0.067,0.467 0.133,1 0.2,1.467c0.133,2.2 0.133,7.133 0.133,10.066c0,2.867 -0.133,5.867 -0.6,9.734c-0.066,0.666 -0.066,1.2 -0.066,1.533c-0,0.4 0.066,0.6 0.333,0.733c0.133,0.067 0.4,0.067 1,0.067c0.533,-0.067 1.2,-0.133 2,-0.133c1.667,-0 2.067,-1.134 2.067,-2.4c-0,-0.934 -0.267,-2 -0.4,-2.8c-0.267,-1.334 -0.334,-3.8 -0.334,-6.267c0,-1.333 0,-2.6 0.067,-3.733c0.2,-3.6 2.6,-5.6 4.867,-6.134c0.866,-0.2 1.466,-0.266 2.066,-0.266c0.8,-0 1.334,0.133 2.2,0.466c0.134,0 0.334,0.2 0.467,0.2c0.2,0 0.267,-0.066 0.333,-0.266c0.134,-0.067 0.267,-0.334 0.334,-0.667c0.2,-0.333 0.333,-0.733 0.466,-1.2c0.2,-0.667 0.334,-1.133 0.334,-1.4c-0,-0.333 -0.134,-0.533 -0.334,-0.667Z" style="fill-rule:nonzero;"/>
    <path d="M1471.57,265.033c0.533,-0.333 1,-0.733 1.333,-1.066c0.333,-0.4 0.667,-0.734 1,-0.934c0.4,-0.4 0.867,-0.6 1.333,-0.6c0.667,0 1.267,0.534 1.267,1.334c-0,0.2 -0,0.4 -0.067,0.6c0,0.066 -0.066,0.133 -0.066,0.2c-0,0.6 0.666,0.666 2.533,0.8l0.333,-0c1,-0 1.2,-0.267 1.334,-0.534l-0,-13.133c-0,-2.2 -0.067,-4.533 -0.067,-6.667c-0,-1.066 -0,-2.066 0.067,-3l-0,-0.333c-0,-1.733 -0.867,-1.8 -2,-1.8l-0.667,0c-0.8,0 -1.2,0.067 -1.2,0.533c-0,0.334 0.067,0.6 0.067,0.8c-0,1.067 -0.4,2 -1.2,2.267c-0.134,0.067 -0.2,0.067 -0.334,0.067c-0.466,-0 -1.066,-0.334 -1.666,-0.867c-0.6,-0.533 -1.067,-1.133 -1.6,-1.667c-0.734,-0.933 -3.467,-1.733 -6,-1.733c-3.734,0 -8,2.4 -10.067,5.267c-1.467,2.133 -2,5.466 -2.267,8.2l0,0.533c0,2.6 1.534,6.8 3.2,8.867c1.734,2.2 4.667,4.2 9.6,4.2c2.4,-0 4,-0.6 5.134,-1.334Zm5.133,-12.266c-0.2,2.8 -1.133,6.133 -3.467,7.866c-1.8,1.4 -3.2,1.734 -5.266,1.734c-0.4,-0 -0.8,-0.067 -1.334,-0.067c-3,-0.2 -5.533,-1.533 -6.6,-3.267c-0.866,-1.6 -1.466,-3.666 -1.466,-6l-0,-0.6c0.133,-2.4 1.133,-6.466 2.4,-7.4c0.933,-0.733 3.8,-1.933 6.2,-1.933c0.4,0 0.8,0 1.2,0.067l1.533,0.333c0.267,0 0.267,0.067 0.333,0.067c0.4,0.133 1,0.2 1.4,0.4c1.2,0.4 2.334,1.133 3.2,2.6l1,1.733c0.067,0.467 0.467,0.933 0.667,1.333c0.2,0.534 0.333,1.134 0.333,1.8c0,0.4 -0.066,0.867 -0.133,1.334Z" style="fill-rule:nonzero;"/>
    <path d="M1505.43,257.567c0,-2.134 -1.466,-3.734 -2.8,-5.067c-1.066,-1.067 -5.133,-3.267 -6.533,-3.933c-1.533,-0.667 -3,-1.8 -3,-3.467c-0,-1.667 1.333,-2.333 3,-2.333l0.6,-0c2.133,0.066 3.267,0.8 4.867,2.133c0.533,0.467 0.8,0.533 0.933,0.533c0.2,0 0.333,-0.133 0.467,-0.266l0.466,-0.534c0.134,-0.2 0.334,-0.4 0.4,-0.6c0.2,-0.266 0.267,-0.533 0.267,-0.733c-0,-0.267 -0.067,-0.533 -0.333,-0.867c-0.934,-1 -3.667,-2.866 -7.667,-3l-0.467,0c-1.133,0 -1.733,0.134 -2.2,0.334c-0.533,0.266 -0.933,0.666 -1.333,1.066c-0.933,0.734 -2.067,2.067 -2.2,3.6c-0,0.267 -0.067,0.534 -0.067,0.734c0,1.533 0.334,2.8 1.267,4c1.067,1.466 3.467,2.933 6,4c2.667,1.066 5.2,3.133 5.2,5.333c-0,2.267 -1.867,3.6 -4.8,3.8c-0.2,0 -0.4,0.067 -0.533,0.067c-2.867,-0 -4.867,-2.4 -5.334,-3.334c-0.133,-0.466 -0.666,-0.733 -1.066,-0.733c-0.267,0 -0.667,0.133 -1.134,0.2c-1,0.267 -1.333,1.067 -1.333,1.867c-0,0.266 -0,0.6 0.2,0.866c0.467,0.867 2.2,2.2 3.8,3.2c1.467,0.8 4.067,1.334 5.867,1.334c1.6,-0 3.533,-1.2 5.266,-2.334c1.467,-1 2.134,-3.666 2.2,-5.866Z" style="fill-rule:nonzero;"/>
    <path d="M1527.5,257.567c-0,-2.134 -1.467,-3.734 -2.8,-5.067c-1.067,-1.067 -5.133,-3.267 -6.533,-3.933c-1.534,-0.667 -3,-1.8 -3,-3.467c-0,-1.667 1.333,-2.333 3,-2.333l0.6,-0c2.133,0.066 3.266,0.8 4.866,2.133c0.534,0.467 0.8,0.533 0.934,0.533c0.2,0 0.333,-0.133 0.466,-0.266l0.467,-0.534c0.133,-0.2 0.333,-0.4 0.4,-0.6c0.2,-0.266 0.267,-0.533 0.267,-0.733c-0,-0.267 -0.067,-0.533 -0.334,-0.867c-0.933,-1 -3.666,-2.866 -7.666,-3l-0.467,0c-1.133,0 -1.733,0.134 -2.2,0.334c-0.533,0.266 -0.933,0.666 -1.333,1.066c-0.934,0.734 -2.067,2.067 -2.2,3.6c-0,0.267 -0.067,0.534 -0.067,0.734c-0,1.533 0.333,2.8 1.267,4c1.066,1.466 3.466,2.933 6,4c2.666,1.066 5.2,3.133 5.2,5.333c-0,2.267 -1.867,3.6 -4.8,3.8c-0.2,0 -0.4,0.067 -0.534,0.067c-2.866,-0 -4.866,-2.4 -5.333,-3.334c-0.133,-0.466 -0.667,-0.733 -1.067,-0.733c-0.266,0 -0.666,0.133 -1.133,0.2c-1,0.267 -1.333,1.067 -1.333,1.867c-0,0.266 -0,0.6 0.2,0.866c0.466,0.867 2.2,2.2 3.8,3.2c1.466,0.8 4.066,1.334 5.866,1.334c1.6,-0 3.534,-1.2 5.267,-2.334c1.467,-1 2.133,-3.666 2.2,-5.866Z" style="fill-rule:nonzero;"/>
  </g>
  <g id="FAWN-ICON" sound="FAWN" serif:id="FAWN ICON">
    <rect x="185" y="1873.25" width="210" height="167.5" style="fill:#fff;stroke:#000;stroke-width:1.91px;"/>
    <path id="fawn" d="M224.157,1979.92c2.926,-0.88 10.481,-8.095 11.315,-11.662c0.881,-3.78 0.619,-15.65 -0.483,-17.523c-1.447,-2.459 -1.681,-9.725 0.228,-11.56c2.922,-2.811 15.408,-8.367 18.111,-10.08c1.794,-1.136 4.1,-0.986 6.146,-0.881c2.046,0.106 12.904,-0.638 20.912,-0.41c8.009,0.228 15.155,-0.895 18.533,-1.28c3.377,-0.384 13.618,-2.036 17.554,-0.396c2.462,1.025 10.506,2.408 14.421,-1.119c3.912,-3.529 6.742,-11.416 7.052,-13.696c0.367,-2.702 1.557,-5.928 1.733,-7.359c0.247,-1.998 -0.119,-2.692 -0.365,-2.95c-1.036,-1.089 -1.038,-1.671 -1.241,-2.135c-0.203,-0.465 -1.521,-1.768 -1.407,-2.308c0.083,-0.394 -0.123,-0.676 -1.248,-0.849c-1.124,-0.171 -4.606,-1.757 -5.138,-4.06c-1.458,-6.328 -0.417,-9.791 0.94,-9.721c1.357,0.071 7.785,4.824 7.839,5.96c0.055,1.136 1.155,3.535 2.017,3.993c1.35,0.717 3.292,-1.033 7.714,-0.62c2.042,0.191 4.195,1.235 4.57,1.162c0.287,-0.056 2.042,-1.908 2.101,-3.039c0.058,-1.13 1.003,-2.976 3.559,-4.352c2.666,-1.436 4.164,-2.017 4.754,-2.439c0.588,-0.423 2.027,-0.661 2.367,0.771c0.326,1.375 -0.034,6.016 -1.696,8.551c-0.982,1.496 -2.521,3.173 -4.877,3.977c-1.223,0.418 -2.254,0.189 -2.301,1.092c-0.046,0.905 0.074,2.952 -0.515,3.375c-0.587,0.422 -0.391,0.999 -0.431,1.791c-0.041,0.791 -0.444,2.017 -0.688,2.345c-0.244,0.327 -0.472,1.412 -0.422,1.565c0.283,0.848 0.81,1.856 0.644,2.868c-0.165,1.013 -0.575,0.435 -0.746,1.56c-0.172,1.124 -0.607,1.298 -1.119,1.632c-0.724,0.472 -1.288,1.793 -1.73,1.887c-1.011,0.214 -1.448,-0.382 -1.494,0.522c-0.047,0.906 -0.515,1.931 -0.341,2.961c0.173,1.029 0.325,4.665 -0.156,5.207c-0.481,0.541 -3,5.399 -3.128,7.887c-0.129,2.487 -1.057,9.467 -4.303,13.041c-0,0 -5.537,5.089 -5.599,6.289c-0.063,1.2 0.652,7.069 0.342,7.702c-0.311,0.632 -1.267,1.231 -1.689,2.227c-0.422,0.995 -1.657,5.19 -2.144,5.629c-0.485,0.437 -3.142,1.688 -2.638,4.492c0.503,2.804 3.329,7.208 5.722,9.276c2.393,2.067 7.694,6.972 8.157,8.755c0.463,1.782 1.328,2.938 1.277,3.953c-0.053,1.016 -0.037,2.498 1.361,5.902c1.398,3.406 4.383,11.892 4.847,13.675c0.464,1.783 1.227,3.119 1.224,4.97c-0.003,1.851 0.526,5.953 0.1,7.041c-0.428,1.089 0.714,5.87 0.159,5.84c-0.553,-0.028 -1.685,0.377 -3.242,-1.741c-1.558,-2.116 -2.053,-3.254 -2.468,-4.2c-0.414,-0.947 -0.226,-2.79 0.089,-3.514c0.315,-0.723 0.541,-3.305 0.134,-2.585c-0.408,0.72 -0.902,1.342 -1.156,0.866c-0.252,-0.476 0.321,-0.816 0.011,-3.796c-0.308,-2.978 -0.413,-6.316 -1.23,-8.396c-0.818,-2.079 -2.557,-6.055 -3.347,-8.689c-0.788,-2.633 -2.358,-6.325 -4.935,-8.401c-2.577,-2.079 -12.582,-7.318 -13.788,-9.048c-1.206,-1.728 -2.378,-2.344 -3.736,-2.969c-1.355,-0.626 -3.465,-1.013 -3.967,-2.057c-0.5,-1.045 -0.332,-2.516 -1.264,-2.38c-0.933,0.137 -4.534,-0.049 -4.937,0.578c-0.403,0.627 -3.655,9.809 -3.936,11.646c-0.28,1.837 -0.583,11.264 -0.994,12.076c-0.413,0.812 -0.762,2.183 -1.003,3.28c-0.243,1.099 -0.213,2.304 -0.869,2.457c-0.656,0.151 -0.517,2.844 -0.662,3.853c-0.144,1.012 0.15,4.265 -0.384,5.627c-0.533,1.361 -3.088,7.802 -2.118,12.296c0.972,4.494 4.455,8.747 3.615,8.887c-0.842,0.144 -2.07,0.635 -3.087,0.582c-1.016,-0.052 -4.334,-0.317 -4.364,-1.521c-0.031,-1.205 -0.093,-5.375 -0.694,-4.48c-0.602,0.895 -1.102,1.61 -1.526,0.847c-0.423,-0.762 -0.363,-3.722 0.545,-5.155c0.907,-1.435 1.543,-2.977 2.248,-7.661c0.705,-4.685 1.362,-8.447 1.569,-10.659c0.208,-2.211 0.575,-3.95 0.282,-5.447c-0.293,-1.496 0.088,-5.271 0.057,-6.477c-0.029,-1.205 -0.572,-10.398 -0.619,-13.085c-0.046,-2.687 1.252,-8.083 0.208,-7.582c-1.045,0.501 -17.395,1.601 -20.667,0.413c-3.272,-1.188 -5.245,-2.401 -5.818,-2.06c-0.573,0.341 -3.764,2.953 -5.936,7.377c-2.173,4.424 -5.712,8.406 -6.925,10.381c0,0 -3.363,5.936 -3.365,7.787c-0.004,1.851 0.562,8.824 3.64,17.315c3.079,8.492 2.648,9.673 5.011,12.294c1.054,1.169 3.531,6.497 2.326,6.527c-1.158,0.029 -3.31,0.096 -4.329,0.137c-0.929,0.035 -0.214,-2.084 -1.535,-2.842c-1.446,-0.83 -4.869,1.205 -4.401,-2.474c0.13,-1.023 -0.211,-1.546 -0.173,-3.804c0.046,-2.683 -3.916,-15.571 -5.079,-18.13c-1.163,-2.56 -2.252,-6.109 -3.433,-8.788c-1.475,-3.342 -3.683,-4.777 -2.694,-6.99c0.407,-0.909 4.415,-6.621 6.134,-9.402c1.718,-2.78 2.992,-5.956 3.064,-7.341c0,0 0.197,-2.025 -0.871,-1.062c-1.069,0.963 -7.536,6.09 -9.037,6.474c-1.501,0.385 -9.504,6.545 -10.461,7.144c-0.957,0.598 -4.344,-0.131 -7.489,8.778c-3.145,8.908 -5.986,22.649 -7.407,25.076c-1.422,2.425 -4.337,8.662 -6.144,9.587c-1.807,0.925 -2.303,1.547 -2.687,0.046c-0.386,-1.501 0.286,-5.539 0.999,-6.799c0.713,-1.258 2.505,-1.906 1.61,-2.508c-0.894,-0.602 -1.464,-2.113 -0.415,-2.708c1.049,-0.593 1.902,-2.771 2.583,-3.384c0.679,-0.612 3.554,-7.869 4.115,-11.544c0.561,-3.673 1.022,-6.276 1.95,-9.063c1.972,-5.917 0.916,-12.361 3.202,-13.048Z" style="fill-rule:nonzero;"/>
  </g>
  <g id="FIGHTsound-cubwins" sound="3F-Fightfail-2">
    <rect x="1278" y="1860" width="240" height="177" style="fill:#fff;stroke:#020000;stroke-width:2.5px;"/>
    <g>
      <path d="M1454.74,1935.39c0,-0 1.304,2.172 2.61,3.261c1.3,1.085 4.993,3.256 6.517,6.517c1.519,3.258 3.474,10.644 5.865,12.816c2.389,2.175 3.475,8.257 9.128,11.949c5.647,3.698 7.603,5.649 10.424,7.388c2.827,1.739 6.085,7.825 8.477,12.169c2.389,4.343 6.951,12.165 8.256,13.034c1.305,0.869 2.824,3.259 2.824,4.128c-0,0.869 -0.215,3.042 -0.215,3.042c-0,0 1.735,1.085 1.303,3.479c-0.434,2.389 -2.392,3.038 -2.392,3.038l-2.39,1.305c0,-0 -2.606,0.22 -4.779,-1.52c-2.171,-1.739 -5.43,-7.17 -6.955,-9.995c-1.519,-2.823 -3.692,-11.515 -7.167,-12.169c-3.478,-0.65 -6.517,-1.299 -6.517,-1.299c-0,-0 1.301,5.647 2.171,7.821c0.868,2.17 1.954,10.864 3.042,11.296c1.084,0.437 1.303,1.739 2.609,3.694c1.303,1.958 -0.655,4.131 -0.655,4.131c-0,-0 1.304,2.605 0.218,4.562c-1.088,1.954 -4.564,2.169 -5.432,1.3c-0.868,-0.87 -3.476,-7.601 -5.648,-13.469c-2.172,-5.867 -3.911,-11.734 -6.301,-12.169c-2.391,-0.435 -4.563,-2.605 -4.563,-2.605c0,0 -13.687,-0.652 -19.118,-4.781c-5.434,-4.128 -11.299,-8.036 -14.993,-13.034c-3.695,-4.998 -11.734,-12.169 -16.297,-14.993c-4.564,-2.823 -18.031,-3.477 -23.899,-4.563c-5.863,-1.089 -11.515,-1.089 -18.252,-4.347c-6.734,-3.258 -11.95,-6.738 -13.254,-5.867c-1.301,0.87 -1.367,2.47 -7.816,3.478c-6.956,1.089 -18.037,-3.039 -24.123,-6.735c-0,0 -9.555,-4.346 -12.383,-4.781c-2.825,-0.433 -7.603,0.435 -12.387,0.435c-4.777,-0 -7.601,-3.912 -7.601,-7.169c0,-3.261 1.736,-5.215 1.736,-5.215c0,0 -1.519,-5.867 -1.952,-6.953c-0.434,-1.087 -2.172,-2.61 -2.172,-2.61l-0.221,-1.737l-1.52,-0.868c0,0 -1.519,-1.305 -0.653,-3.261c0.869,-1.954 1.524,-3.258 1.524,-3.258c-0,-0 0.87,-4.345 -0,-5.431c-0.871,-1.089 0.649,-5.65 1.953,-6.736c1.305,-1.086 1.305,-1.74 1.305,-1.74c0,0 -2.388,-2.824 -3.044,-4.562c-0.652,-1.737 1.304,-2.39 3.044,-1.737c1.736,0.65 4.778,1.303 4.778,1.303c0,-0 0.653,-0.218 1.303,-0.654l0.655,-0.434c0,-0 -0.87,-8.908 1.735,-10.211c2.61,-1.305 5.654,-0.437 6.739,1.087c1.086,1.522 2.388,2.824 2.388,2.824c0,-0 3.693,3.259 5.867,3.476c2.172,0.22 12.819,2.39 16.731,1.52c3.91,-0.867 15.644,-1.085 19.337,-0c3.693,1.087 26.071,15.644 29.983,17.816c3.912,2.174 19.119,8.477 20.858,9.778c1.739,1.303 16.077,7.386 18.253,8.038c2.172,0.652 10.865,4.129 12.817,4.562l1.954,0.435c0,0 1.522,-4.345 2.61,-4.561c1.084,-0.219 -0,-1.737 1.303,-2.172c1.304,-0.434 3.695,-2.609 4.127,-3.479c0.435,-0.867 3.04,-4.778 4.998,-6.951c1.955,-2.174 15.644,-17.599 17.816,-19.119c2.17,-1.523 6.082,-7.606 13.689,-8.693c7.606,-1.083 17.38,5.433 17.38,5.433c-0,0 7.824,8.257 8.039,21.945c0.219,13.687 -6.082,3.042 -8.692,-2.825c-2.606,-5.867 -3.259,-9.777 -6.302,-11.297c-3.038,-1.523 -7.818,-5.651 -11.294,-0.654c-3.478,4.998 -10.214,14.123 -14.341,18.903c-4.127,4.78 -9.125,11.516 -10.211,13.47c-1.085,1.958 -1.739,2.825 -1.739,2.825l-0,1.523l-1.088,0.873Z" style="fill-rule:nonzero;"/>
      <path d="M1298.38,1927.64l1.016,-0.291c0,0 -0.579,-2.027 -1.159,-2.75c-0.576,-0.724 -1.45,-1.593 -1.45,-1.593c-0,0 -0,1.736 0.436,2.752c0.439,1.011 1.157,1.882 1.157,1.882Z" style="fill:#fff;fill-rule:nonzero;"/>
      <path d="M1302.73,1925.18l1.737,-1.884c0,0 0.435,1.74 0,1.74c-0.434,0.001 -1.737,0.144 -1.737,0.144Z" style="fill:#fff;fill-rule:nonzero;"/>
      <path d="M1305.18,1922.72l0.434,-0.867c0,-0 0.436,0.433 0.436,1.303c0,0.87 -0.577,1.303 -0.577,1.303l-0.293,-1.739Z" style="fill:#fff;fill-rule:nonzero;"/>
      <path d="M1322.13,1919.97c-0,-0 -1.159,-2.172 -4.347,-1.737c-3.186,0.435 -7.242,0.435 -7.965,1.015c-0.723,0.578 -3.04,1.882 -3.04,1.882c0,0 0.291,0.871 0.144,1.593l-0.144,0.726c0,0 5.648,-0.869 6.807,-1.16c1.157,-0.288 8.545,-2.319 8.545,-2.319Z" style="fill:#fff;fill-rule:nonzero;"/>
    </g>
  </g>
</svg>
