<?xml version="1.0" encoding="UTF-8" standalone="no"?>
<!DOCTYPE svg PUBLIC "-//W3C//DTD SVG 1.1//EN" "http://www.w3.org/Graphics/SVG/1.1/DTD/svg11.dtd">
<svg width="100%" height="100%" viewBox="0 0 1688 2200" version="1.1" xmlns="http://www.w3.org/2000/svg" xmlns:xlink="http://www.w3.org/1999/xlink" xml:space="preserve" xmlns:serif="http://www.serif.com/" style="fill-rule:evenodd;clip-rule:evenodd;stroke-linecap:round;stroke-linejoin:round;stroke-miterlimit:1.5;">
  <rect id="FLIGHTSUCCESS-TO-PRECHOICE-2" x="0" y="0" width="1688" height="2200" style="fill:none;"/>
  <g id="S">
    <g id="Root-Markers" serif:id="Root Markers">
      <path id="_7" serif:id="7" d="M660.704,1315.18l81.853,-69.174l-62.873,-36.3l-18.98,105.474Zm28.288,-48.995l4.723,-26.25c0,-0 15.648,9.034 15.648,9.034l-20.371,17.216Z"/>
    </g>
    <g id="Ring">
      <path d="M1255.43,1233c-130.888,226.701 -421.195,304.499 -647.884,173.623c-226.688,-130.876 -304.465,-421.183 -173.577,-647.884c130.889,-226.701 421.196,-304.499 647.884,-173.623c226.688,130.876 304.466,421.183 173.577,647.884Z" style="fill:none;stroke:#000;stroke-width:10px;"/>
      <path d="M1255.43,1233l-26.257,-15.159" style="fill:none;stroke:#000;stroke-width:10px;"/>
      <path d="M460.231,773.897l-26.258,-15.159" style="fill:none;stroke:#000;stroke-width:10px;"/>
      <path d="M622.71,1380.37l-15.16,26.257" style="fill:none;stroke:#000;stroke-width:10px;"/>
      <path d="M1081.86,585.115l-15.16,26.257" style="fill:none;stroke:#000;stroke-width:10px;"/>
      <path d="M1081.85,1406.6l-15.16,-26.256" style="fill:none;stroke:#000;stroke-width:10px;"/>
      <path d="M622.72,611.389l-15.16,-26.257" style="fill:none;stroke:#000;stroke-width:10px;"/>
      <path d="M460.201,1217.86l-26.257,15.159" style="fill:none;stroke:#000;stroke-width:10px;"/>
      <path d="M1255.46,758.721l-26.258,15.159" style="fill:none;stroke:#000;stroke-width:10px;"/>
      <path d="M844.704,1470.16l-0,-30.319" style="fill:none;stroke:#000;stroke-width:10px;"/>
      <path d="M844.704,551.892l-0,-30.319" style="fill:none;stroke:#000;stroke-width:10px;"/>
      <path d="M400.736,995.868l-30.319,0" style="fill:none;stroke:#000;stroke-width:10px;"/>
      <path d="M1318.99,995.868l-30.32,0" style="fill:none;stroke:#000;stroke-width:10px;"/>
    </g>
    <g id="Notes">
      <path id="_10" sound="3F-Mid-Bb" serif:id="10" d="M507.323,804.903c-21.99,38.086 -70.764,51.155 -108.85,29.166c-38.087,-21.989 -51.156,-70.762 -29.166,-108.848c21.989,-38.085 70.763,-51.154 108.849,-29.165c38.087,21.989 51.156,70.762 29.167,108.847Z" style="stroke:#fff;stroke-width:24px;"/>
      <path id="_71" sound="3F-Low-G" serif:id="7" d="M680.805,1445.2c-21.99,38.086 -70.763,51.154 -108.85,29.165c-38.087,-21.988 -51.156,-70.761 -29.166,-108.847c21.989,-38.086 70.763,-51.155 108.85,-29.166c38.086,21.989 51.155,70.762 29.166,108.848Z" style="stroke:#fff;stroke-width:24px;"/>
      <path id="_5" sound="3F-Mid-F" serif:id="5" d="M1150.02,1449.33c-21.989,38.086 -70.763,51.154 -108.849,29.166c-38.087,-21.989 -51.156,-70.762 -29.167,-108.848c21.99,-38.086 70.764,-51.154 108.85,-29.166c38.087,21.989 51.156,70.762 29.166,108.848Z" style="stroke:#fff;stroke-width:24px;"/>
    </g>
    <g id="Treble-Marker" serif:id="Treble Marker">
      <g id="_0" sound="3F-High-C" serif:id="0">
        <path id="_0u" serif:id="0u" d="M913.712,566.597c-21.99,38.086 -70.763,51.155 -108.85,29.166c-38.087,-21.989 -51.155,-70.762 -29.166,-108.848c21.989,-38.085 70.763,-51.154 108.85,-29.165c38.086,21.989 51.155,70.762 29.166,108.847Z" style="fill:#fff;stroke:#fff;stroke-width:33.33px;"/>
        <circle id="_0a" serif:id="0a" cx="845.704" cy="527.073" r="64" style="fill:#fff;stroke:#000;stroke-width:16.67px;"/>
      </g>
    </g>
  </g>
	<a xlink:href="PRECHOICE-2.svg">
  <g id="NEXTLINK">
    <path d="M914,1895c0,-19.317 -15.683,-35 -35,-35l-70,0c-19.317,0 -35,15.683 -35,35l0,78c0,19.317 15.683,35 35,35l70,0c19.317,0 35,-15.683 35,-35l0,-78Z" style="fill:#fff;"/>
    <path id="next" d="M814.167,1896.5c-0.2,-1.733 -0.4,-7.2 -0.4,-11.067c-0,-0.8 0.066,-1.6 0.066,-2.2l0,-0.266c0,-3.067 -1.6,-5.734 -2.533,-6.867c-0.933,-1.2 -2.933,-2.333 -5.533,-2.4l-0.467,0c-2.2,0 -3.533,0.8 -5.8,2.933c-0.933,0.867 -1.667,1.134 -2.133,1.2c-0.4,0 -0.6,-0.2 -0.734,-0.4c-0.133,-0.333 -0.2,-0.733 -0.2,-1.133c0,-0.4 0,-0.733 0.067,-1.067c0,-1.133 -1.067,-1.333 -1.867,-1.333c-0.733,0 -2,0.067 -2.266,0.667c-0.067,0.2 -0.134,0.466 -0.134,0.8c0.067,0.4 0.134,0.733 0.134,1.2c0.133,1.866 0.933,6.066 0.933,8.8c0,2.733 -0.133,6.066 -0.667,10.466c-0.133,0.8 -0.133,1.4 -0.133,1.934c0,1.933 0.667,2.333 2.2,2.333c0.2,0 0.467,-0.067 0.8,-0.067c1.333,-0.066 1.6,-0.466 1.667,-0.666l-0,-0.467c-0,-0.467 -0.067,-1 -0.134,-1.333c-0.266,-1.467 -0.533,-6.8 -0.533,-9.134c0,-2.2 0.333,-5.866 1.733,-7.8c1.467,-2 3.667,-3.133 5.667,-3.133l0.933,0c0.4,0 0.867,0 1.267,0.133c0.733,0.134 1.4,0.534 2.333,1.267c1.134,0.867 1.6,2 1.8,3.4c0.134,0.8 0.134,1.733 0.134,2.733l-0,2.134c-0,3.8 -0.534,5.933 -0.8,9.666c-0,0.267 -0.067,0.6 -0.067,0.8c0,2.467 1.133,2.534 3.133,2.534c1.4,-0 1.734,-0.734 1.734,-1.8c-0,-0.6 -0.134,-1.267 -0.2,-1.867Z" style="fill-rule:nonzero;"/>
    <path d="M848.167,1886.7c-0,-0.067 0.066,-0.133 0.066,-0.267c0,-0.066 -0.066,-0.266 -0.066,-0.466l-0.267,-1.4c-0.467,-2.134 -2.8,-5.667 -4.533,-7.734c-1.734,-1.866 -5.067,-3 -7.867,-3.133l-0.733,0c-2.867,0 -5.134,1.4 -7.467,2.933l-0.533,0.334c-2.534,1.533 -4.334,6.6 -4.467,10.6l0,0.2c0,3.8 2.867,8 5.133,10.533c2.2,2.333 6.734,2.4 9,2.4c2.134,0 3.867,-0.533 5,-1.133c0.467,-0.267 1.134,-0.8 1.934,-1.467c0.733,-0.667 1.533,-1.333 2.4,-2c0.666,-0.467 1,-1 1,-1.533c-0,-0.6 -0.334,-1.2 -1.334,-2c-0.333,-0.267 -0.666,-0.4 -0.866,-0.4c-0.334,-0 -0.534,0.2 -0.8,0.4c-0.467,0.533 -0.8,1.2 -1.067,1.866c-0.533,1.2 -3.2,2.534 -6.533,2.534l-0.534,-0c-2.2,-0.067 -4.066,-0.734 -5.733,-2.067l-1,-0.8c-1.067,-0.933 -2.133,-3.6 -2.133,-5.267l-0,-0.466c0.2,-0.8 1.8,-1.267 3.8,-1.334c1.666,0 3.533,0.067 4.533,0.067c1.4,0 5.267,0.067 8.267,0.067c1.533,-0 2.866,-0 3.6,-0.067c1.133,0 1.2,-0.267 1.2,-0.4Zm-4.734,-4.4c0.2,0.333 0.267,0.6 0.267,0.867c0,0.733 -0.6,1.2 -1.8,1.2c-2.6,-0 -5.467,0.066 -6.6,0.066c-1.2,0 -4.733,-0.066 -5.467,-0.266c-0.733,-0.067 -2.333,-0.934 -2.333,-2.134c0,-0.4 0.133,-0.8 0.467,-1.2c1.066,-1.466 4,-3.466 7.466,-3.466l0.267,-0c3.133,0.133 4.2,1.066 5.733,2.533c0.667,0.667 1.6,1.533 2,2.4Z" style="fill-rule:nonzero;"/>
    <path d="M877.633,1899.3c-0.133,-1.467 -1.866,-2.933 -2.933,-3.8c-0.867,-0.733 -1.667,-1.667 -2.467,-2.6c-0.733,-0.933 -1.4,-1.867 -1.866,-2.4c-0.534,-0.533 -1.2,-1.067 -1.8,-1.733c-0.534,-0.667 -1.067,-1.4 -1.067,-2.334l0,-0.266c0.067,-1.4 2.067,-3 3.133,-4c0.4,-0.334 0.667,-0.667 0.867,-0.934c0.333,-0.666 1.067,-1.466 1.867,-2.333l2.533,-3.067c0.4,-0.466 0.667,-0.8 0.667,-1c-0,-0.066 -0.067,-0.066 -0.067,-0.133c-0.2,-0.133 -0.467,-0.2 -0.933,-0.267l-1.4,-0.133c-0.267,0 -0.467,-0.067 -0.667,-0.067c-1.333,0 -2.133,0.534 -2.733,1.934c-0.467,0.933 -1,1.733 -1.534,2.4c-0.466,0.733 -1,1.4 -1.4,2.2c-0.866,1.933 -1.733,3 -2.933,3c-0.667,-0 -1.4,-0.6 -1.933,-1.467c-0.467,-0.733 -0.934,-1.6 -1.4,-2.267l-1.467,-2.066c-0.533,-0.734 -1,-1.534 -1.267,-2.2c-0.4,-1 -1.666,-1.6 -3.2,-1.667c-0.666,0 -1.666,0.067 -1.666,0.867c-0,0.466 0.466,1.133 0.666,1.4c0.667,0.733 2.6,3.4 4.667,5.866c1.067,1.2 1.733,1.867 2.2,2.467c0.4,0.667 0.667,1.2 0.667,2.133c-0,1.4 -0.934,2.534 -1.667,3.334l-2.467,2.666c-0.533,0.6 -1.533,1.667 -2.533,2.867l-3.067,3.133c-0.266,0.267 -0.466,0.4 -0.466,0.534c-0,0.066 0.066,0.066 0.2,0.066c0.266,0.067 0.666,0.134 1.133,0.134c0.533,0.066 1.133,0.066 1.733,0.066c1.134,0 1.534,-0.2 1.8,-0.466c0.267,-0.067 0.334,-0.267 0.6,-0.534l0.8,-0.933c0.6,-0.667 1.2,-1.467 1.734,-2.267l0.2,-0.2c0.466,-0.666 0.933,-1.333 1.466,-1.933c0.534,-0.533 0.867,-1.267 1.267,-1.867c0.533,-0.666 1.2,-1.333 2.267,-1.333c1.533,0 2.333,1.667 3,2.867l0.066,0.266c0.267,0.467 0.334,0.734 0.467,0.867c0.667,0.8 2,2.667 3.467,4.867c0.666,1 1.066,1.133 1.4,1.133c0.266,0 0.6,0 0.866,-0.067c0.334,-0.066 0.734,-0.2 1.134,-0.2l0.533,0c0.867,0 1.4,-0.066 1.533,-0.533Z" style="fill-rule:nonzero;"/>
    <path d="M896.433,1876.1c0,-0.533 -0.266,-0.733 -0.8,-0.933c-0.333,-0.067 -0.733,-0.067 -1.133,-0.067c-0.467,0 -0.867,-0.067 -1.333,-0.067l-1.134,-0.133c-0.333,0 -0.6,-0.067 -0.866,-0.133c-0.6,-0.2 -1,-0.667 -1,-1.334c-0,-0.933 -0,-2.533 0.133,-5.133l0,-0.267c0,-1 -0.2,-1.333 -0.4,-1.466c-0.333,-0.267 -1,-0.267 -1.4,-0.267l-0.2,0c-1,0 -1.6,0.8 -1.667,1.2c0,0.067 -0.066,0.2 -0.066,0.267c-0,0.333 0.066,0.866 0.133,1.533c0.133,0.867 0.267,2 0.267,3.133l-0,0.334c-0,1.2 -0.534,1.866 -1.4,2.066c-0.267,0.067 -0.534,0.067 -0.8,0.067c-0.467,0 -1.067,-0.067 -1.534,-0.067c-0.933,0 -1.466,0.6 -1.666,2.6c-0,0.067 -0.067,0.134 -0.067,0.2c0,0.4 0.267,0.534 0.8,0.667c0.333,0.067 0.667,0.067 1,0.067c0.333,-0 0.667,-0.067 0.933,-0.067c1.067,0 2.467,0.8 2.467,2.267c0,1.066 0.2,3.4 0.2,6.4c0,3 -0.4,8.733 -0.4,11.333c0,1.267 0.2,1.6 0.4,1.733l0.533,0.134l1.2,-0c1.667,-0 2.2,-0.2 2.2,-1.067l0,-0.467c-0.2,-1.866 -0.533,-6.666 -0.6,-9.466c-0.066,-0.934 -0.133,-2.067 -0.133,-3.2c0,-2.2 0.133,-4.467 0.2,-5.934c0.067,-1.466 0.933,-2.066 2,-2.133l0.2,0c0.8,0 1.533,0.2 2.333,0.267l0.267,-0c0.867,-0 1.333,-0.467 1.333,-2.067Z" style="fill-rule:nonzero;"/>
    <circle cx="824" cy="1958" r="40" style="fill:#fff;stroke:#000;stroke-width:12.5px;"/>
    <circle cx="864" cy="1958" r="40" style="fill:none;stroke:#000;stroke-width:12.5px;"/>
  </g>
	</a>
  <g id="Header">
    <path id="Lyric-Text" serif:id="Lyric Text" d="M275.933,241.433c0.2,-0.333 0.267,-0.533 0.267,-0.666c-0,-0.267 -0.2,-0.334 -0.4,-0.4c-0.267,-0.134 -0.667,-0.2 -1.067,-0.267l-1,-0.067c-0.2,0 -0.533,-0.066 -0.8,-0.066c-0.6,-0 -1.2,0.133 -1.266,0.6c-0.134,1.2 -2.067,5.533 -2.8,7.133c-0.734,1.533 -2.334,5.533 -2.867,7.067c-0.533,1.733 -1.467,4 -2.933,4.4c-0.2,0.066 -0.4,0.133 -0.534,0.133c-0.666,0 -1.066,-0.467 -1.333,-1.067c-0,-0.266 -0.133,-0.6 -0.2,-1c-0.067,-0.333 -0.133,-0.733 -0.2,-1.066c-0.2,-0.734 -0.6,-1.467 -1.067,-2.467c-0.533,-0.933 -1.066,-2 -1.533,-3.2c-0.933,-2.4 -2.467,-5.867 -3.333,-8.4c-0.867,-2.133 -1.534,-2.267 -3.734,-2.467l-0.466,0c-1,0 -1.4,0.4 -1.4,0.867c-0,0.933 0.933,2.133 1.4,2.6c0.6,0.667 1.333,2.133 2.133,3.6c0.733,1.467 1.6,3.067 2.4,4.333c0.333,0.667 0.733,1.4 1.067,2.2l0.933,2.4c0.667,1.6 1.267,3.134 2.2,4.2c1.2,1.467 1.667,2.867 1.667,4l-0,0.267c-0,0.733 -0.2,1.4 -0.4,1.867c-0.534,0.866 -1.267,2.133 -2.067,4.466c-0.4,1.2 -1.067,2.334 -1.667,3.334c-0.6,1 -1.2,1.933 -1.733,3c-0.2,0.333 -0.333,0.666 -0.333,0.8c-0,0.8 1,0.8 2.666,0.933c0.134,0 0.334,0.067 0.467,0.067c0.8,-0 1.133,-0.267 1.333,-0.534c0.2,-0.266 0.334,-0.533 0.467,-0.933l0.467,-1.333c0.4,-1 0.733,-2 1.066,-2.934c0.4,-1 0.8,-2 1.334,-3c1.066,-2 2.866,-7.4 4.2,-9.933c1.266,-2.467 3,-6.733 4,-8.8c1,-2.067 3.8,-7.467 5.066,-9.667Z" style="fill-rule:nonzero;"/>
    <path d="M308.867,253.167l-0,-0.334c-0,-4.533 -2.134,-7.933 -4.134,-10.066c-2,-2.067 -5.266,-3.734 -9,-3.867l-0.333,0c-6.067,0 -8.733,2.533 -10.667,4.533c-2,2 -3.533,5 -3.533,9.267c-0,4.267 2.533,8.4 4.6,10.267c2,1.8 5,3.133 8.867,3.133l0.4,0c4.133,-0.133 7.333,-0.667 10.2,-3.733c2.866,-3.2 3.6,-4.334 3.6,-9.2Zm-3.8,-0.734c-0,2.534 -0.934,6 -2.6,7.267c-0.4,0.2 -0.8,0.533 -1.334,0.867c-1.666,1.133 -3.533,2 -5.533,2c-0.267,-0 -0.533,-0 -0.867,-0.067c-3.2,-0.4 -4.733,-1.067 -6.666,-3.333c-1.934,-2.134 -2.534,-3.867 -2.534,-6.6c0,-2.667 0.467,-5.2 3.134,-7.2c2.6,-1.934 4.666,-2.2 6.8,-2.2c3.4,-0 5.866,0.933 7.266,3.4c0.667,1.133 1.267,1.866 1.667,2.733c0.333,0.867 0.667,1.8 0.667,3.133Z" style="fill-rule:nonzero;"/>
    <path d="M339,242.567c0.067,-0.467 0.067,-0.8 0.067,-1.134c-0,-1.333 -0.467,-1.8 -2.4,-1.933l-0.334,0c-1.466,0 -1.8,0.6 -1.8,1.6c0,0.333 0,0.667 0.067,1.067c0.133,1.6 0.4,6.8 0.533,10.2c0,0.533 0.067,1.066 0.067,1.6c-0,2.6 -0.4,4.666 -1.6,6.133c-1.4,1.933 -2.8,2 -4.867,2.067l-0.2,-0c-0.466,0.066 -0.933,0.066 -1.333,0.066c-1.6,0 -2.867,-0.333 -4.133,-2.133c-0.8,-1 -1.2,-2.333 -1.4,-3.8c-0.134,-1.4 -0.2,-3.133 -0.267,-5.067c-0.067,-1.6 -0.067,-2.8 -0.067,-3.933c0,-1.533 0.067,-2.867 0.2,-4.867l0,-1.2c0,-0.733 -0.066,-1 -0.133,-1.133c-0.067,0 -0.2,-0.067 -0.467,-0.133c-0.266,-0 -0.666,-0 -1.066,-0.067l-0.467,0c-1.533,0 -1.867,0.533 -1.867,1.133c0,1.4 0.334,2.8 0.334,4.734c-0,1.8 0.066,8.2 0.066,11c0,2.666 1.467,5.333 3.6,6.933c2,1.533 5.534,1.933 7.667,1.933c2.067,0 5.2,-1.333 8,-4.133c1.267,-1.267 1.667,-3.267 1.667,-5.333c-0,-2.067 -0.334,-4.067 -0.334,-5.2c0,-2.2 0.2,-6.2 0.467,-8.4Z" style="fill-rule:nonzero;"/>
    <path d="M381.267,239.833c-0.467,-0.2 -2.067,-0.733 -3.867,-0.733c-1.8,0 -4.267,1.6 -5.133,3.267c-0.2,0.4 -0.467,0.8 -0.8,1c-0.2,0.066 -0.334,0.066 -0.4,0.066c-0.334,0 -0.6,-0.2 -0.734,-0.4c-0.2,-0.4 -0.266,-0.933 -0.266,-1.466l-0,-0.467c-0,-1.133 -1.2,-1.6 -2.067,-1.6c-1.667,0 -1.867,0.533 -1.933,0.867c-0,0.066 -0.067,0.133 -0.067,0.266c-0,0.2 0.067,0.534 0.133,0.867c0.067,0.467 0.134,1 0.2,1.467c0.134,2.2 0.134,7.133 0.134,10.066c-0,2.867 -0.134,5.867 -0.6,9.734c-0.067,0.666 -0.067,1.2 -0.067,1.533c-0,0.4 0.067,0.6 0.333,0.733c0.134,0.067 0.4,0.067 1,0.067c0.534,-0.067 1.2,-0.133 2,-0.133c1.667,-0 2.067,-1.134 2.067,-2.4c-0,-0.934 -0.267,-2 -0.4,-2.8c-0.267,-1.334 -0.333,-3.8 -0.333,-6.267c-0,-1.333 -0,-2.6 0.066,-3.733c0.2,-3.6 2.6,-5.6 4.867,-6.134c0.867,-0.2 1.467,-0.266 2.067,-0.266c0.8,-0 1.333,0.133 2.2,0.466c0.133,0 0.333,0.2 0.466,0.2c0.2,0 0.267,-0.066 0.334,-0.266c0.133,-0.067 0.266,-0.334 0.333,-0.667c0.2,-0.333 0.333,-0.733 0.467,-1.2c0.2,-0.667 0.333,-1.133 0.333,-1.4c-0,-0.333 -0.133,-0.533 -0.333,-0.667Z" style="fill-rule:nonzero;"/>
    <path d="M411.933,252.033c0,-0.066 0.067,-0.133 0.067,-0.266c-0,-0.067 -0.067,-0.267 -0.067,-0.467l-0.266,-1.4c-0.467,-2.133 -2.8,-5.667 -4.534,-7.733c-1.733,-1.867 -5.066,-3 -7.866,-3.134l-0.734,0c-2.866,0 -5.133,1.4 -7.466,2.934l-0.534,0.333c-2.533,1.533 -4.333,6.6 -4.466,10.6l-0,0.2c-0,3.8 2.866,8 5.133,10.533c2.2,2.334 6.733,2.4 9,2.4c2.133,0 3.867,-0.533 5,-1.133c0.467,-0.267 1.133,-0.8 1.933,-1.467c0.734,-0.666 1.534,-1.333 2.4,-2c0.667,-0.466 1,-1 1,-1.533c0,-0.6 -0.333,-1.2 -1.333,-2c-0.333,-0.267 -0.667,-0.4 -0.867,-0.4c-0.333,0 -0.533,0.2 -0.8,0.4c-0.466,0.533 -0.8,1.2 -1.066,1.867c-0.534,1.2 -3.2,2.533 -6.534,2.533l-0.533,0c-2.2,-0.067 -4.067,-0.733 -5.733,-2.067l-1,-0.8c-1.067,-0.933 -2.134,-3.6 -2.134,-5.266l0,-0.467c0.2,-0.8 1.8,-1.267 3.8,-1.333c1.667,-0 3.534,0.066 4.534,0.066c1.4,0 5.266,0.067 8.266,0.067c1.534,0 2.867,0 3.6,-0.067c1.134,0 1.2,-0.266 1.2,-0.4Zm-4.733,-4.4c0.2,0.334 0.267,0.6 0.267,0.867c-0,0.733 -0.6,1.2 -1.8,1.2c-2.6,0 -5.467,0.067 -6.6,0.067c-1.2,-0 -4.734,-0.067 -5.467,-0.267c-0.733,-0.067 -2.333,-0.933 -2.333,-2.133c-0,-0.4 0.133,-0.8 0.466,-1.2c1.067,-1.467 4,-3.467 7.467,-3.467l0.267,0c3.133,0.133 4.2,1.067 5.733,2.533c0.667,0.667 1.6,1.534 2,2.4Z" style="fill-rule:nonzero;"/>
    <path d="M443.8,243.433c0.067,-0.4 0.067,-0.733 0.067,-1.066c-0,-1.6 -0.667,-1.934 -2.067,-2.067c-0.333,-0.067 -0.533,-0.067 -0.8,-0.067c-0.733,0 -0.933,0.2 -0.933,0.667c-0,0.4 0.133,0.8 0.133,1.2c-0,0.4 -0.067,1 -0.6,1.4c-0.133,0.2 -0.333,0.267 -0.6,0.267c-0.4,-0 -0.867,-0.267 -1.4,-0.734c-0.467,-0.533 -1,-1.133 -1.667,-1.533c-1.2,-0.733 -3.6,-1.933 -7,-2.067l-0.2,0c-2.533,0 -5.466,2 -7.066,3.467c-1.534,1.467 -4,4.6 -4,9.867l-0,0.333c0.066,2.8 0.666,4.733 1.6,6.267c0.8,1.4 1.933,2.533 3,3.666l0.333,0.267c2.333,2.333 5.667,2.733 7.333,2.733c1.6,0 3.667,-0.4 4.934,-1.666c1.333,-1.334 2.933,-2 4.066,-2l0.334,-0c0.8,0.133 0.933,0.933 1,1.533c-0,0.6 -0.134,1.533 -0.2,2.733c-0.134,2.467 -0.667,3.8 -1.6,5.534c-1.134,2 -4.4,2.933 -7.6,3.2c-0.2,-0 -0.4,0.066 -0.6,0.066c-3.267,0 -5.934,-2.4 -7,-4.133c-0.467,-0.8 -0.8,-1.067 -1.267,-1.2c-0.2,-0.067 -0.467,-0.067 -0.8,-0.067l-1.333,0c-0.8,0 -1.067,0.467 -1.067,1.067c-0,0.4 0.2,1 0.4,1.333c0.2,0.467 0.667,1 1.2,1.6c0.533,0.6 1.2,1.2 1.8,1.734c1.067,1.066 4,2.333 7.867,2.666l0.733,0c3.467,0 6.467,-1.333 8.133,-2.333c1.667,-0.933 3.667,-4 4.334,-6.333c0.333,-1 0.4,-3.267 0.4,-5.667c-0,-2.667 -0.067,-5.533 -0.134,-7.4c-0.066,-1.267 -0.066,-2.867 -0.066,-4.6c-0,-3.2 0.066,-6.733 0.333,-8.667Zm-3.733,9.467c-0,1.933 -0.134,4.333 -1.8,6.467c-1.6,2 -3.334,3.6 -7.334,3.6l-0.4,-0c-2.133,-0.067 -3.6,-0.534 -4.6,-1.2c-1,-0.667 -1.666,-1.4 -2.333,-2.267c-1.333,-1.533 -2,-3.733 -2.067,-6.4l0,-0.667c0,-2.533 0.534,-4.733 2.334,-6.8c2,-2.266 4.8,-2.533 7.066,-2.533c3,0 5.534,1 7.067,3.067c1.533,2.066 2.067,4.666 2.067,6.733Z" style="fill-rule:nonzero;"/>
    <path d="M470.133,265.033c0.534,-0.333 1,-0.733 1.334,-1.066c0.333,-0.4 0.666,-0.734 1,-0.934c0.4,-0.4 0.866,-0.6 1.333,-0.6c0.667,0 1.267,0.534 1.267,1.334c-0,0.2 -0,0.4 -0.067,0.6c-0,0.066 -0.067,0.133 -0.067,0.2c0,0.6 0.667,0.666 2.534,0.8l0.333,-0c1,-0 1.2,-0.267 1.333,-0.534l0,-13.133c0,-2.2 -0.066,-4.533 -0.066,-6.667c-0,-1.066 -0,-2.066 0.066,-3l0,-0.333c0,-1.733 -0.866,-1.8 -2,-1.8l-0.666,0c-0.8,0 -1.2,0.067 -1.2,0.533c-0,0.334 0.066,0.6 0.066,0.8c0,1.067 -0.4,2 -1.2,2.267c-0.133,0.067 -0.2,0.067 -0.333,0.067c-0.467,-0 -1.067,-0.334 -1.667,-0.867c-0.6,-0.533 -1.066,-1.133 -1.6,-1.667c-0.733,-0.933 -3.466,-1.733 -6,-1.733c-3.733,0 -8,2.4 -10.066,5.267c-1.467,2.133 -2,5.466 -2.267,8.2l-0,0.533c-0,2.6 1.533,6.8 3.2,8.867c1.733,2.2 4.667,4.2 9.6,4.2c2.4,-0 4,-0.6 5.133,-1.334Zm5.134,-12.266c-0.2,2.8 -1.134,6.133 -3.467,7.866c-1.8,1.4 -3.2,1.734 -5.267,1.734c-0.4,-0 -0.8,-0.067 -1.333,-0.067c-3,-0.2 -5.533,-1.533 -6.6,-3.267c-0.867,-1.6 -1.467,-3.666 -1.467,-6l0,-0.6c0.134,-2.4 1.134,-6.466 2.4,-7.4c0.934,-0.733 3.8,-1.933 6.2,-1.933c0.4,0 0.8,0 1.2,0.067l1.534,0.333c0.266,0 0.266,0.067 0.333,0.067c0.4,0.133 1,0.2 1.4,0.4c1.2,0.4 2.333,1.133 3.2,2.6l1,1.733c0.067,0.467 0.467,0.933 0.667,1.333c0.2,0.534 0.333,1.134 0.333,1.8c-0,0.4 -0.067,0.867 -0.133,1.334Z" style="fill-rule:nonzero;"/>
    <path d="M495.333,230.9c-0.066,-1.8 -1.666,-3.467 -3.333,-3.667l-0.467,0c-1.733,0 -2.933,1.067 -3.066,2.6c0.066,2.067 1.866,3.734 3.8,3.734c2,-0 2.8,-1.134 3.066,-2.667Zm-0.8,32.067c-0.2,-1.534 -0.8,-7.334 -0.8,-10.2c0,-1.334 -0.066,-2.667 -0.066,-4.067c-0,-1.8 0.066,-3.667 0.266,-5.933c0,-0.4 0.067,-0.734 0.067,-1.067c-0,-2.133 -0.667,-2.267 -1.733,-2.267c-1.734,0 -2.134,0.4 -2.134,1.6c0,0.2 0.067,0.4 0.067,0.734c0.133,2 0.267,7.6 0.267,10.466c-0,2.867 -0.534,7.934 -0.534,10.4c0,2.334 0.134,2.734 2.134,2.734c1.866,-0 2.533,-0.867 2.533,-1.934c-0,-0.133 -0.067,-0.333 -0.067,-0.466Z" style="fill-rule:nonzero;"/>
    <path d="M528,261.833c-0.2,-1.733 -0.4,-7.2 -0.4,-11.066c-0,-0.8 0.067,-1.6 0.067,-2.2l-0,-0.267c-0,-3.067 -1.6,-5.733 -2.534,-6.867c-0.933,-1.2 -2.933,-2.333 -5.533,-2.4l-0.467,0c-2.2,0 -3.533,0.8 -5.8,2.934c-0.933,0.866 -1.666,1.133 -2.133,1.2c-0.4,-0 -0.6,-0.2 -0.733,-0.4c-0.134,-0.334 -0.2,-0.734 -0.2,-1.134c-0,-0.4 -0,-0.733 0.066,-1.066c0,-1.134 -1.066,-1.334 -1.866,-1.334c-0.734,0 -2,0.067 -2.267,0.667c-0.067,0.2 -0.133,0.467 -0.133,0.8c0.066,0.4 0.133,0.733 0.133,1.2c0.133,1.867 0.933,6.067 0.933,8.8c0,2.733 -0.133,6.067 -0.666,10.467c-0.134,0.8 -0.134,1.4 -0.134,1.933c0,1.933 0.667,2.333 2.2,2.333c0.2,0 0.467,-0.066 0.8,-0.066c1.334,-0.067 1.6,-0.467 1.667,-0.667l-0,-0.467c-0,-0.466 -0.067,-1 -0.133,-1.333c-0.267,-1.467 -0.534,-6.8 -0.534,-9.133c0,-2.2 0.334,-5.867 1.734,-7.8c1.466,-2 3.666,-3.134 5.666,-3.134l0.934,0c0.4,0 0.866,0 1.266,0.134c0.734,0.133 1.4,0.533 2.334,1.266c1.133,0.867 1.6,2 1.8,3.4c0.133,0.8 0.133,1.734 0.133,2.734l-0,2.133c-0,3.8 -0.533,5.933 -0.8,9.667c-0,0.266 -0.067,0.6 -0.067,0.8c0,2.466 1.134,2.533 3.134,2.533c1.4,0 1.733,-0.733 1.733,-1.8c-0,-0.6 -0.133,-1.267 -0.2,-1.867Z" style="fill-rule:nonzero;"/>
    <path d="M578.333,241.433c0.2,-0.333 0.267,-0.533 0.267,-0.666c-0,-0.267 -0.2,-0.334 -0.4,-0.4c-0.267,-0.134 -0.667,-0.2 -1.067,-0.267l-1,-0.067c-0.2,0 -0.533,-0.066 -0.8,-0.066c-0.6,-0 -1.2,0.133 -1.266,0.6c-0.134,1.2 -2.067,5.533 -2.8,7.133c-0.734,1.533 -2.334,5.533 -2.867,7.067c-0.533,1.733 -1.467,4 -2.933,4.4c-0.2,0.066 -0.4,0.133 -0.534,0.133c-0.666,0 -1.066,-0.467 -1.333,-1.067c-0,-0.266 -0.133,-0.6 -0.2,-1c-0.067,-0.333 -0.133,-0.733 -0.2,-1.066c-0.2,-0.734 -0.6,-1.467 -1.067,-2.467c-0.533,-0.933 -1.066,-2 -1.533,-3.2c-0.933,-2.4 -2.467,-5.867 -3.333,-8.4c-0.867,-2.133 -1.534,-2.267 -3.734,-2.467l-0.466,0c-1,0 -1.4,0.4 -1.4,0.867c-0,0.933 0.933,2.133 1.4,2.6c0.6,0.667 1.333,2.133 2.133,3.6c0.733,1.467 1.6,3.067 2.4,4.333c0.333,0.667 0.733,1.4 1.067,2.2l0.933,2.4c0.667,1.6 1.267,3.134 2.2,4.2c1.2,1.467 1.667,2.867 1.667,4l-0,0.267c-0,0.733 -0.2,1.4 -0.4,1.867c-0.534,0.866 -1.267,2.133 -2.067,4.466c-0.4,1.2 -1.067,2.334 -1.667,3.334c-0.6,1 -1.2,1.933 -1.733,3c-0.2,0.333 -0.333,0.666 -0.333,0.8c-0,0.8 1,0.8 2.666,0.933c0.134,0 0.334,0.067 0.467,0.067c0.8,-0 1.133,-0.267 1.333,-0.534c0.2,-0.266 0.334,-0.533 0.467,-0.933l0.467,-1.333c0.4,-1 0.733,-2 1.066,-2.934c0.4,-1 0.8,-2 1.334,-3c1.066,-2 2.866,-7.4 4.2,-9.933c1.266,-2.467 3,-6.733 4,-8.8c1,-2.067 3.8,-7.467 5.066,-9.667Z" style="fill-rule:nonzero;"/>
    <path d="M611.267,253.167l-0,-0.334c-0,-4.533 -2.134,-7.933 -4.134,-10.066c-2,-2.067 -5.266,-3.734 -9,-3.867l-0.333,0c-6.067,0 -8.733,2.533 -10.667,4.533c-2,2 -3.533,5 -3.533,9.267c-0,4.267 2.533,8.4 4.6,10.267c2,1.8 5,3.133 8.867,3.133l0.4,0c4.133,-0.133 7.333,-0.667 10.2,-3.733c2.866,-3.2 3.6,-4.334 3.6,-9.2Zm-3.8,-0.734c-0,2.534 -0.934,6 -2.6,7.267c-0.4,0.2 -0.8,0.533 -1.334,0.867c-1.666,1.133 -3.533,2 -5.533,2c-0.267,-0 -0.533,-0 -0.867,-0.067c-3.2,-0.4 -4.733,-1.067 -6.666,-3.333c-1.934,-2.134 -2.534,-3.867 -2.534,-6.6c0,-2.667 0.467,-5.2 3.134,-7.2c2.6,-1.934 4.666,-2.2 6.8,-2.2c3.4,-0 5.866,0.933 7.266,3.4c0.667,1.133 1.267,1.866 1.667,2.733c0.333,0.867 0.667,1.8 0.667,3.133Z" style="fill-rule:nonzero;"/>
    <path d="M641.4,242.567c0.067,-0.467 0.067,-0.8 0.067,-1.134c-0,-1.333 -0.467,-1.8 -2.4,-1.933l-0.334,0c-1.466,0 -1.8,0.6 -1.8,1.6c0,0.333 0,0.667 0.067,1.067c0.133,1.6 0.4,6.8 0.533,10.2c0,0.533 0.067,1.066 0.067,1.6c-0,2.6 -0.4,4.666 -1.6,6.133c-1.4,1.933 -2.8,2 -4.867,2.067l-0.2,-0c-0.466,0.066 -0.933,0.066 -1.333,0.066c-1.6,0 -2.867,-0.333 -4.133,-2.133c-0.8,-1 -1.2,-2.333 -1.4,-3.8c-0.134,-1.4 -0.2,-3.133 -0.267,-5.067c-0.067,-1.6 -0.067,-2.8 -0.067,-3.933c0,-1.533 0.067,-2.867 0.2,-4.867l0,-1.2c0,-0.733 -0.066,-1 -0.133,-1.133c-0.067,0 -0.2,-0.067 -0.467,-0.133c-0.266,-0 -0.666,-0 -1.066,-0.067l-0.467,0c-1.533,0 -1.867,0.533 -1.867,1.133c0,1.4 0.334,2.8 0.334,4.734c-0,1.8 0.066,8.2 0.066,11c0,2.666 1.467,5.333 3.6,6.933c2,1.533 5.534,1.933 7.667,1.933c2.067,0 5.2,-1.333 8,-4.133c1.267,-1.267 1.667,-3.267 1.667,-5.333c-0,-2.067 -0.334,-4.067 -0.334,-5.2c0,-2.2 0.2,-6.2 0.467,-8.4Z" style="fill-rule:nonzero;"/>
    <path d="M667,239.833c-0.467,-0.2 -2.067,-0.733 -3.867,-0.733c-1.8,0 -4.266,1.6 -5.133,3.267c-0.2,0.4 -0.467,0.8 -0.8,1c-0.2,0.066 -0.333,0.066 -0.4,0.066c-0.333,0 -0.6,-0.2 -0.733,-0.4c-0.2,-0.4 -0.267,-0.933 -0.267,-1.466l-0,-0.467c-0,-1.133 -1.2,-1.6 -2.067,-1.6c-1.666,0 -1.866,0.533 -1.933,0.867c-0,0.066 -0.067,0.133 -0.067,0.266c0,0.2 0.067,0.534 0.134,0.867c0.066,0.467 0.133,1 0.2,1.467c0.133,2.2 0.133,7.133 0.133,10.066c-0,2.867 -0.133,5.867 -0.6,9.734c-0.067,0.666 -0.067,1.2 -0.067,1.533c0,0.4 0.067,0.6 0.334,0.733c0.133,0.067 0.4,0.067 1,0.067c0.533,-0.067 1.2,-0.133 2,-0.133c1.666,-0 2.066,-1.134 2.066,-2.4c0,-0.934 -0.266,-2 -0.4,-2.8c-0.266,-1.334 -0.333,-3.8 -0.333,-6.267c-0,-1.333 -0,-2.6 0.067,-3.733c0.2,-3.6 2.6,-5.6 4.866,-6.134c0.867,-0.2 1.467,-0.266 2.067,-0.266c0.8,-0 1.333,0.133 2.2,0.466c0.133,0 0.333,0.2 0.467,0.2c0.2,0 0.266,-0.066 0.333,-0.266c0.133,-0.067 0.267,-0.334 0.333,-0.667c0.2,-0.333 0.334,-0.733 0.467,-1.2c0.2,-0.667 0.333,-1.133 0.333,-1.4c0,-0.333 -0.133,-0.533 -0.333,-0.667Z" style="fill-rule:nonzero;"/>
    <path d="M709.4,263.7c-0,-0.267 -0,-0.533 -0.067,-0.933l-0.133,-1.334c-0.067,-1 -0.267,-1.4 -0.6,-1.4c-0.067,0 -0.267,0.067 -0.467,0.2c-1.2,0.867 -3.2,1.867 -5.933,1.867l-0.867,0c-3.066,-0.333 -4,-0.733 -6.266,-2.333c-2.467,-1.734 -2.934,-4.867 -2.934,-7.334c0,-2.666 0.8,-5.2 3.134,-7.066c2.4,-1.934 3.6,-2.134 6.266,-2.267l0.467,0c2.533,0 4.2,0.733 5.933,1.933c0.334,0.2 0.6,0.4 0.667,0.4c0.067,0 0.133,-0.066 0.2,-0.133c0.133,-0.2 0.133,-0.467 0.267,-0.867c0.066,-0.466 0.2,-1 0.2,-1.666c0.066,-0.267 0.066,-0.467 0.066,-0.667c0,-0.667 -0.2,-1 -0.4,-1.2c-0.266,-0.2 -0.466,-0.4 -0.733,-0.533c-0.333,-0.2 -0.667,-0.334 -0.933,-0.6c-1.067,-0.667 -2.8,-0.734 -6.4,-0.934l-0.267,0c-3.6,0 -6.867,2.067 -9.267,4.2c-2.133,2 -3.333,7 -3.333,9.8l-0,0.4c0.133,2.8 1,6.267 3.933,9.2c2.867,2.867 6,3.667 8.867,3.867l0.533,0c1.2,0 2.2,-0.2 3.2,-0.4c1.134,-0.267 2.2,-0.733 3.4,-1.133c1.267,-0.467 1.4,-0.8 1.467,-1.067Z" style="fill-rule:nonzero;"/>
    <path d="M741.933,253.167l0,-0.334c0,-4.533 -2.133,-7.933 -4.133,-10.066c-2,-2.067 -5.267,-3.734 -9,-3.867l-0.333,0c-6.067,0 -8.734,2.533 -10.667,4.533c-2,2 -3.533,5 -3.533,9.267c-0,4.267 2.533,8.4 4.6,10.267c2,1.8 5,3.133 8.866,3.133l0.4,0c4.134,-0.133 7.334,-0.667 10.2,-3.733c2.867,-3.2 3.6,-4.334 3.6,-9.2Zm-3.8,-0.734c0,2.534 -0.933,6 -2.6,7.267c-0.4,0.2 -0.8,0.533 -1.333,0.867c-1.667,1.133 -3.533,2 -5.533,2c-0.267,-0 -0.534,-0 -0.867,-0.067c-3.2,-0.4 -4.733,-1.067 -6.667,-3.333c-1.933,-2.134 -2.533,-3.867 -2.533,-6.6c-0,-2.667 0.467,-5.2 3.133,-7.2c2.6,-1.934 4.667,-2.2 6.8,-2.2c3.4,-0 5.867,0.933 7.267,3.4c0.667,1.133 1.267,1.866 1.667,2.733c0.333,0.867 0.666,1.8 0.666,3.133Z" style="fill-rule:nonzero;"/>
    <path d="M784.8,263.9c-0,-0.467 -0.067,-1 -0.2,-1.533l-0.267,-1.667c-0.266,-1.8 -0.533,-6.467 -0.533,-10.2l-0,-2.733c-0,-3 -0.533,-4.467 -1.667,-6c-1.333,-1.667 -3.533,-2.334 -5.2,-2.334c-1.666,0 -2.666,0.4 -4,1.2c-0.6,0.334 -1.2,0.8 -1.666,1.267c-0.667,0.6 -1.467,1.067 -1.734,1.2l-0.466,0c-0.8,0 -1.667,-0.4 -2.734,-1.8c-1.066,-1.467 -2.533,-2 -4.266,-2l-0.8,0c-0.334,0 -0.8,0 -1.2,0.133c-0.534,0.2 -1.2,0.6 -2.467,1.534c-0.933,0.733 -1.533,1 -2,1c-0.333,-0 -0.6,-0.2 -0.733,-0.4c-0.2,-0.2 -0.267,-0.534 -0.334,-0.867l-0.066,-0.4c-0,-0.067 -0.067,-0.2 -0.067,-0.2c-0.2,-0.667 -1.133,-0.667 -2.333,-0.667c-0.934,0 -1.934,0.534 -1.934,1.667c0,1.667 0.4,7.067 0.4,9.733c0,2.6 -0.133,7.2 -0.4,10.6c-0.066,0.6 -0.066,1.067 -0.066,1.534c-0,2 0.533,2.466 2.533,2.466c1.667,0 2.067,-0.666 2.067,-1.8c-0,-0.466 -0.067,-1 -0.134,-1.6c-0.333,-1.866 -0.6,-6 -0.6,-9l0,-1.466c0.2,-2.934 1,-4.6 2.134,-6.134c1.066,-1.466 3.333,-2.6 4.933,-2.6l0.333,0c1.6,0.2 2.867,0.934 3.467,2c0.6,1.067 0.8,2.734 0.8,6.4c-0,3.334 -0.467,8.2 -0.733,10.867c-0.067,0.467 -0.2,1.133 -0.2,1.467c-0,1.6 0.733,2.333 2.933,2.333c1.333,0 1.667,-0.4 1.8,-0.6c0.133,-0.2 0.133,-0.4 0.133,-0.6c0,-0.267 -0.066,-0.533 -0.066,-0.8c-0.134,-1.067 -0.8,-7.6 -0.8,-10.6c-0,-3.133 1.133,-6.2 1.8,-7.533c0.8,-1.6 3.8,-2.4 5,-2.534l0.466,0c1.2,0 2.334,0.534 3.667,1.734c0.667,0.8 1,1.733 1.133,2.866c0.067,0.467 0.067,0.934 0.067,1.467c-0,0.8 -0.067,1.8 -0.067,3c-0.133,3.8 -0.666,6.8 -1.066,10.333c-0.067,0.467 -0.067,0.8 -0.067,1.134c-0,1.533 0.533,2 1.867,2c0.466,-0 1,-0 1.666,-0.134c1.334,-0.2 1.6,-0.866 1.667,-1.733Z" style="fill-rule:nonzero;"/>
    <path d="M821.267,252.1l-0,-0.533c-0,-3.534 -2.067,-6.667 -3.8,-8.8c-1.667,-2 -5.467,-3.534 -8.734,-3.667c-3.066,0 -5.933,1.933 -7.866,3.867c-0.534,0.466 -0.934,0.733 -1.267,0.733c-0.333,0 -0.6,-0.2 -0.733,-0.4c-0.2,-0.267 -0.267,-0.867 -0.267,-1.667l-0,-0.866c-0,-0.934 -0.467,-1 -2,-1.134l-0.267,0c-1.2,0 -1.533,0.8 -1.533,1.8c-0,0.667 0.133,1.334 0.2,1.867c0.2,1.467 0.333,10 0.333,15.133c0,1.534 0,2.667 -0.066,3.4c-0.134,3.267 -0.267,11.934 -0.534,14.4c0,0.2 -0.066,0.267 -0.066,0.4c-0,1.4 0.933,1.867 2.2,1.867c0.133,0 0.333,-0.067 0.533,-0.067c1.667,-0.066 2.2,-0.666 2.2,-1l-0,-0.333c-0,-0.467 -0,-1.067 -0.067,-1.867c-0.133,-0.933 -0.266,-2.066 -0.266,-2.933c-0.067,-0.467 -0.067,-0.933 -0.067,-1.533l-0,-1c-0,-1.334 -0,-2.667 -0.267,-4.2c-0.066,-0.6 -0.133,-1.134 -0.133,-1.534c-0,-1.533 0.467,-2.2 1.533,-2.333l0.267,0c0.533,0 1,0.4 1.333,0.733c0.467,0.4 0.8,0.934 1.134,1.4c0.666,0.867 1.333,1.6 6.133,1.6c2.333,0 3.733,-0.4 4.933,-1.066c0.534,-0.334 1.134,-0.734 1.667,-1.2l1.867,-1.467c2.533,-1.933 3.6,-5.733 3.6,-9.6Zm-3.734,0.533l-0.2,2.667c-0.266,2.467 -0.933,3.533 -3.066,5.067c-1.334,1 -2.2,1.4 -3,1.666c-0.4,0.067 -0.8,0.067 -1.267,0.067c-0.067,0 -0.267,0.067 -0.4,0.067c-0.333,-0 -0.6,-0.067 -1,-0.067c-2.2,0 -4.333,-0.267 -6.4,-1.933c-2.133,-1.667 -3.467,-4.8 -3.467,-8.2c0,-3.467 1.534,-6.2 4,-7.8c0.6,-0.334 1.067,-0.667 1.534,-0.867l1.133,-0.533c0.8,-0.334 1.533,-0.334 2.733,-0.334c2.734,0 5,1.067 6.267,2.534c0.267,0.333 0.667,0.666 1,1.133c0.4,0.4 0.8,0.933 1.133,1.533c0.534,1.067 1,2.467 1,4.134l0,0.866Z" style="fill-rule:nonzero;"/>
    <path d="M855.733,253.167l0,-0.334c0,-4.533 -2.133,-7.933 -4.133,-10.066c-2,-2.067 -5.267,-3.734 -9,-3.867l-0.333,0c-6.067,0 -8.734,2.533 -10.667,4.533c-2,2 -3.533,5 -3.533,9.267c-0,4.267 2.533,8.4 4.6,10.267c2,1.8 5,3.133 8.866,3.133l0.4,0c4.134,-0.133 7.334,-0.667 10.2,-3.733c2.867,-3.2 3.6,-4.334 3.6,-9.2Zm-3.8,-0.734c0,2.534 -0.933,6 -2.6,7.267c-0.4,0.2 -0.8,0.533 -1.333,0.867c-1.667,1.133 -3.533,2 -5.533,2c-0.267,-0 -0.534,-0 -0.867,-0.067c-3.2,-0.4 -4.733,-1.067 -6.667,-3.333c-1.933,-2.134 -2.533,-3.867 -2.533,-6.6c-0,-2.667 0.467,-5.2 3.133,-7.2c2.6,-1.934 4.667,-2.2 6.8,-2.2c3.4,-0 5.867,0.933 7.267,3.4c0.667,1.133 1.267,1.866 1.667,2.733c0.333,0.867 0.666,1.8 0.666,3.133Z" style="fill-rule:nonzero;"/>
    <path d="M878.067,257.567c-0,-2.134 -1.467,-3.734 -2.8,-5.067c-1.067,-1.067 -5.134,-3.267 -6.534,-3.933c-1.533,-0.667 -3,-1.8 -3,-3.467c0,-1.667 1.334,-2.333 3,-2.333l0.6,-0c2.134,0.066 3.267,0.8 4.867,2.133c0.533,0.467 0.8,0.533 0.933,0.533c0.2,0 0.334,-0.133 0.467,-0.266l0.467,-0.534c0.133,-0.2 0.333,-0.4 0.4,-0.6c0.2,-0.266 0.266,-0.533 0.266,-0.733c0,-0.267 -0.066,-0.533 -0.333,-0.867c-0.933,-1 -3.667,-2.866 -7.667,-3l-0.466,0c-1.134,0 -1.734,0.134 -2.2,0.334c-0.534,0.266 -0.934,0.666 -1.334,1.066c-0.933,0.734 -2.066,2.067 -2.2,3.6c0,0.267 -0.066,0.534 -0.066,0.734c-0,1.533 0.333,2.8 1.266,4c1.067,1.466 3.467,2.933 6,4c2.667,1.066 5.2,3.133 5.2,5.333c0,2.267 -1.866,3.6 -4.8,3.8c-0.2,0 -0.4,0.067 -0.533,0.067c-2.867,-0 -4.867,-2.4 -5.333,-3.334c-0.134,-0.466 -0.667,-0.733 -1.067,-0.733c-0.267,0 -0.667,0.133 -1.133,0.2c-1,0.267 -1.334,1.067 -1.334,1.867c0,0.266 0,0.6 0.2,0.866c0.467,0.867 2.2,2.2 3.8,3.2c1.467,0.8 4.067,1.334 5.867,1.334c1.6,-0 3.533,-1.2 5.267,-2.334c1.466,-1 2.133,-3.666 2.2,-5.866Z" style="fill-rule:nonzero;"/>
    <path d="M907.933,242.567c0.067,-0.467 0.067,-0.8 0.067,-1.134c-0,-1.333 -0.467,-1.8 -2.4,-1.933l-0.333,0c-1.467,0 -1.8,0.6 -1.8,1.6c-0,0.333 -0,0.667 0.066,1.067c0.134,1.6 0.4,6.8 0.534,10.2c-0,0.533 0.066,1.066 0.066,1.6c0,2.6 -0.4,4.666 -1.6,6.133c-1.4,1.933 -2.8,2 -4.866,2.067l-0.2,-0c-0.467,0.066 -0.934,0.066 -1.334,0.066c-1.6,0 -2.866,-0.333 -4.133,-2.133c-0.8,-1 -1.2,-2.333 -1.4,-3.8c-0.133,-1.4 -0.2,-3.133 -0.267,-5.067c-0.066,-1.6 -0.066,-2.8 -0.066,-3.933c-0,-1.533 0.066,-2.867 0.2,-4.867l-0,-1.2c-0,-0.733 -0.067,-1 -0.134,-1.133c-0.066,0 -0.2,-0.067 -0.466,-0.133c-0.267,-0 -0.667,-0 -1.067,-0.067l-0.467,0c-1.533,0 -1.866,0.533 -1.866,1.133c-0,1.4 0.333,2.8 0.333,4.734c-0,1.8 0.067,8.2 0.067,11c-0,2.666 1.466,5.333 3.6,6.933c2,1.533 5.533,1.933 7.666,1.933c2.067,0 5.2,-1.333 8,-4.133c1.267,-1.267 1.667,-3.267 1.667,-5.333c-0,-2.067 -0.333,-4.067 -0.333,-5.2c-0,-2.2 0.2,-6.2 0.466,-8.4Z" style="fill-rule:nonzero;"/>
    <path d="M933.533,239.833c-0.466,-0.2 -2.066,-0.733 -3.866,-0.733c-1.8,0 -4.267,1.6 -5.134,3.267c-0.2,0.4 -0.466,0.8 -0.8,1c-0.2,0.066 -0.333,0.066 -0.4,0.066c-0.333,0 -0.6,-0.2 -0.733,-0.4c-0.2,-0.4 -0.267,-0.933 -0.267,-1.466l0,-0.467c0,-1.133 -1.2,-1.6 -2.066,-1.6c-1.667,0 -1.867,0.533 -1.934,0.867c0,0.066 -0.066,0.133 -0.066,0.266c-0,0.2 0.066,0.534 0.133,0.867c0.067,0.467 0.133,1 0.2,1.467c0.133,2.2 0.133,7.133 0.133,10.066c0,2.867 -0.133,5.867 -0.6,9.734c-0.066,0.666 -0.066,1.2 -0.066,1.533c-0,0.4 0.066,0.6 0.333,0.733c0.133,0.067 0.4,0.067 1,0.067c0.533,-0.067 1.2,-0.133 2,-0.133c1.667,-0 2.067,-1.134 2.067,-2.4c-0,-0.934 -0.267,-2 -0.4,-2.8c-0.267,-1.334 -0.334,-3.8 -0.334,-6.267c0,-1.333 0,-2.6 0.067,-3.733c0.2,-3.6 2.6,-5.6 4.867,-6.134c0.866,-0.2 1.466,-0.266 2.066,-0.266c0.8,-0 1.334,0.133 2.2,0.466c0.134,0 0.334,0.2 0.467,0.2c0.2,0 0.267,-0.066 0.333,-0.266c0.134,-0.067 0.267,-0.334 0.334,-0.667c0.2,-0.333 0.333,-0.733 0.466,-1.2c0.2,-0.667 0.334,-1.133 0.334,-1.4c-0,-0.333 -0.134,-0.533 -0.334,-0.667Z" style="fill-rule:nonzero;"/>
    <path d="M964.2,252.033c-0,-0.066 0.067,-0.133 0.067,-0.266c-0,-0.067 -0.067,-0.267 -0.067,-0.467l-0.267,-1.4c-0.466,-2.133 -2.8,-5.667 -4.533,-7.733c-1.733,-1.867 -5.067,-3 -7.867,-3.134l-0.733,0c-2.867,0 -5.133,1.4 -7.467,2.934l-0.533,0.333c-2.533,1.533 -4.333,6.6 -4.467,10.6l0,0.2c0,3.8 2.867,8 5.134,10.533c2.2,2.334 6.733,2.4 9,2.4c2.133,0 3.866,-0.533 5,-1.133c0.466,-0.267 1.133,-0.8 1.933,-1.467c0.733,-0.666 1.533,-1.333 2.4,-2c0.667,-0.466 1,-1 1,-1.533c-0,-0.6 -0.333,-1.2 -1.333,-2c-0.334,-0.267 -0.667,-0.4 -0.867,-0.4c-0.333,0 -0.533,0.2 -0.8,0.4c-0.467,0.533 -0.8,1.2 -1.067,1.867c-0.533,1.2 -3.2,2.533 -6.533,2.533l-0.533,0c-2.2,-0.067 -4.067,-0.733 -5.734,-2.067l-1,-0.8c-1.066,-0.933 -2.133,-3.6 -2.133,-5.266l-0,-0.467c0.2,-0.8 1.8,-1.267 3.8,-1.333c1.667,-0 3.533,0.066 4.533,0.066c1.4,0 5.267,0.067 8.267,0.067c1.533,0 2.867,0 3.6,-0.067c1.133,0 1.2,-0.266 1.2,-0.4Zm-4.733,-4.4c0.2,0.334 0.266,0.6 0.266,0.867c0,0.733 -0.6,1.2 -1.8,1.2c-2.6,0 -5.466,0.067 -6.6,0.067c-1.2,-0 -4.733,-0.067 -5.466,-0.267c-0.734,-0.067 -2.334,-0.933 -2.334,-2.133c0,-0.4 0.134,-0.8 0.467,-1.2c1.067,-1.467 4,-3.467 7.467,-3.467l0.266,0c3.134,0.133 4.2,1.067 5.734,2.533c0.666,0.667 1.6,1.534 2,2.4Z" style="fill-rule:nonzero;"/>
    <path d="M978.467,261.633c0.4,-0.533 0.533,-1 0.533,-1.4c-0,-1 -1.467,-1.266 -2.533,-1.266c-0.934,-0 -2.934,0.333 -3.267,1.133l-0.4,0.733l-0.533,0.8c-0.334,0.534 -0.667,1.334 -0.867,2.467c-0.267,1.333 -0.8,2.667 -1.333,3.933c-0.534,1.2 -1.067,2.4 -1.467,3.6c-0.2,0.667 -0.4,1 -0.4,1.267c-0,0.133 0.067,0.2 0.133,0.267c0.134,0.133 1.2,0.2 1.4,0.2c0.267,0.066 0.467,0.066 0.667,0.066c1.067,0 1.267,-0.4 1.467,-0.933c0.4,-0.933 1.666,-2.933 2.8,-4.733c1.2,-1.867 1.733,-3.267 3.8,-6.134Z" style="fill-rule:nonzero;"/>
    <path d="M1018,223.633l-0,-0.4c-0,-1.066 -0.533,-1.6 -1.267,-1.866c-0.933,-0.334 -2.066,-0.4 -3.066,-0.534c-1.934,0 -3.8,1.8 -5,3c-1.734,1.667 -2.467,5 -2.467,6.6l0.4,7.4c-0,1.6 -0.8,2 -1.8,2c-0.6,0 -1.333,-0.133 -1.933,-0.4l-0.267,0c-0.6,0 -1.133,0.667 -1.333,1.667c-0.067,0.333 -0.134,0.467 -0.134,0.667c0,0.666 0.334,1.066 0.867,1.333c0.333,0.2 0.8,0.267 1.2,0.267c0.333,-0 0.733,-0 1.067,-0.067c0.866,0 1.866,0 2.266,0.933c0.2,0.334 0.2,0.667 0.2,1.067l0,5.6c0,1.933 -0.4,8.4 -0.8,11.4c-0.066,0.267 -0.066,0.467 -0.066,0.733c-0,1.934 1.266,2.4 3.333,2.534l0.267,-0c0.933,-0 1.2,-0.2 1.333,-0.467c0.133,-0.333 0.133,-0.8 0.133,-1.2l0,-0.6c0,-1.533 -0.466,-6.133 -0.466,-9.133l-0,-8.6c-0,-1.334 0.4,-2.134 1.466,-2.334c0.4,-0.133 0.867,-0.133 1.467,-0.133c0.467,0.067 1.067,0.067 1.733,0.067c1.334,-0 1.8,-0.2 2,-0.4c0,-0.134 0.134,-0.334 0.2,-0.667l0.134,-1.133c-0,-0.667 -0.4,-0.8 -0.8,-0.867c-0.4,-0.067 -0.867,-0.067 -1.267,-0.067l-1.533,0c-2.467,0 -3.134,-2.266 -3.334,-4.066c-0.066,-0.867 -0.133,-2.2 -0.133,-3.334c-0,-1.2 0.067,-2.4 0.333,-3.2c0.534,-1.333 2.4,-3.4 4.734,-3.4l0.266,0c0.467,0 0.867,0.067 1.2,0.067c0.267,0 0.4,-0.067 0.467,-0.133c0.4,-0.267 0.4,-0.867 0.533,-2.067c0,-0.067 0.067,-0.133 0.067,-0.267Z" style="fill-rule:nonzero;"/>
    <path d="M1048.73,252.033c0,-0.066 0.067,-0.133 0.067,-0.266c-0,-0.067 -0.067,-0.267 -0.067,-0.467l-0.266,-1.4c-0.467,-2.133 -2.8,-5.667 -4.534,-7.733c-1.733,-1.867 -5.066,-3 -7.866,-3.134l-0.734,0c-2.866,0 -5.133,1.4 -7.466,2.934l-0.534,0.333c-2.533,1.533 -4.333,6.6 -4.466,10.6l-0,0.2c-0,3.8 2.866,8 5.133,10.533c2.2,2.334 6.733,2.4 9,2.4c2.133,0 3.867,-0.533 5,-1.133c0.467,-0.267 1.133,-0.8 1.933,-1.467c0.734,-0.666 1.534,-1.333 2.4,-2c0.667,-0.466 1,-1 1,-1.533c0,-0.6 -0.333,-1.2 -1.333,-2c-0.333,-0.267 -0.667,-0.4 -0.867,-0.4c-0.333,0 -0.533,0.2 -0.8,0.4c-0.466,0.533 -0.8,1.2 -1.066,1.867c-0.534,1.2 -3.2,2.533 -6.534,2.533l-0.533,0c-2.2,-0.067 -4.067,-0.733 -5.733,-2.067l-1,-0.8c-1.067,-0.933 -2.134,-3.6 -2.134,-5.266l0,-0.467c0.2,-0.8 1.8,-1.267 3.8,-1.333c1.667,-0 3.534,0.066 4.534,0.066c1.4,0 5.266,0.067 8.266,0.067c1.534,0 2.867,0 3.6,-0.067c1.134,0 1.2,-0.266 1.2,-0.4Zm-4.733,-4.4c0.2,0.334 0.267,0.6 0.267,0.867c-0,0.733 -0.6,1.2 -1.8,1.2c-2.6,0 -5.467,0.067 -6.6,0.067c-1.2,-0 -4.734,-0.067 -5.467,-0.267c-0.733,-0.067 -2.333,-0.933 -2.333,-2.133c-0,-0.4 0.133,-0.8 0.466,-1.2c1.067,-1.467 4,-3.467 7.467,-3.467l0.267,0c3.133,0.133 4.2,1.067 5.733,2.533c0.667,0.667 1.6,1.534 2,2.4Z" style="fill-rule:nonzero;"/>
    <path d="M1080.47,252.033c-0,-0.066 0.066,-0.133 0.066,-0.266c0,-0.067 -0.066,-0.267 -0.066,-0.467l-0.267,-1.4c-0.467,-2.133 -2.8,-5.667 -4.533,-7.733c-1.734,-1.867 -5.067,-3 -7.867,-3.134l-0.733,0c-2.867,0 -5.134,1.4 -7.467,2.934l-0.533,0.333c-2.534,1.533 -4.334,6.6 -4.467,10.6l-0,0.2c-0,3.8 2.867,8 5.133,10.533c2.2,2.334 6.734,2.4 9,2.4c2.134,0 3.867,-0.533 5,-1.133c0.467,-0.267 1.134,-0.8 1.934,-1.467c0.733,-0.666 1.533,-1.333 2.4,-2c0.666,-0.466 1,-1 1,-1.533c-0,-0.6 -0.334,-1.2 -1.334,-2c-0.333,-0.267 -0.666,-0.4 -0.866,-0.4c-0.334,0 -0.534,0.2 -0.8,0.4c-0.467,0.533 -0.8,1.2 -1.067,1.867c-0.533,1.2 -3.2,2.533 -6.533,2.533l-0.534,0c-2.2,-0.067 -4.066,-0.733 -5.733,-2.067l-1,-0.8c-1.067,-0.933 -2.133,-3.6 -2.133,-5.266l-0,-0.467c0.2,-0.8 1.8,-1.267 3.8,-1.333c1.666,-0 3.533,0.066 4.533,0.066c1.4,0 5.267,0.067 8.267,0.067c1.533,0 2.866,0 3.6,-0.067c1.133,0 1.2,-0.266 1.2,-0.4Zm-4.734,-4.4c0.2,0.334 0.267,0.6 0.267,0.867c-0,0.733 -0.6,1.2 -1.8,1.2c-2.6,0 -5.467,0.067 -6.6,0.067c-1.2,-0 -4.733,-0.067 -5.467,-0.267c-0.733,-0.067 -2.333,-0.933 -2.333,-2.133c-0,-0.4 0.133,-0.8 0.467,-1.2c1.066,-1.467 4,-3.467 7.466,-3.467l0.267,0c3.133,0.133 4.2,1.067 5.733,2.533c0.667,0.667 1.6,1.534 2,2.4Z" style="fill-rule:nonzero;"/>
    <path d="M1112.6,223.433c-0,-0.533 -0.067,-0.866 -0.133,-1c-0.267,-0.466 -0.867,-0.466 -2.067,-0.6c-0.133,0 -0.267,-0.066 -0.4,-0.066l-0.467,-0c-1.266,-0 -1.533,0.466 -1.666,1c-0.067,0.266 -0.067,0.533 -0.067,0.866l-0,0.8l0.2,2.067c0.2,3 0.267,7.933 0.467,10.667c0.066,0.866 0.133,1.533 0.133,2.066c-0,1.267 -0.267,1.934 -1.067,2.6c-0.333,0.267 -0.666,0.4 -1,0.4c-0.4,0 -0.8,-0.133 -1.2,-0.333c-0.6,-0.333 -1.466,-0.933 -2.533,-1.6c-1.333,-0.867 -2.933,-1 -4.467,-1c-0.666,0 -1.333,0.067 -1.933,0.067c-2.4,0.066 -5.8,2.2 -7.6,4.2c-1.667,1.933 -2.933,6.133 -2.933,9.933c-0,3.733 2,7.333 4.266,9.467c2.267,2.133 5.467,3.4 7.934,3.4c2.533,-0 5.2,-0.6 7,-2.667c0.933,-1.133 1.733,-1.533 2.2,-1.533c0.8,-0 1.2,0.866 1.4,1.933c0.066,0.467 0.066,0.733 0.333,0.933c0.133,0.067 0.267,0.067 0.667,0.134l1.466,0.2l0.334,-0c0.8,-0 0.933,-0.334 1,-0.734l-0,-1.2l-0.267,-1.533c-0.267,-1.867 -0.667,-10.133 -0.667,-13.467l0,-0.933l0.4,-4.333c0.067,-0.934 0.134,-1.734 0.134,-2.534c-0,-0.466 -0,-0.866 -0.067,-1.2c-0.067,-0.4 -0.133,-1 -0.133,-1.733c-0,-1.067 0.266,-3.6 0.266,-4l0,-0.6c0.067,-2.733 0.334,-5.667 0.334,-7.467c-0,-0.866 0.066,-1.6 0.133,-2.2Zm-4.4,26.334c0.333,1 0.533,2 0.533,2.866c0,1.2 -0.266,2.4 -0.8,3.667c-0.4,1.133 -0.933,1.933 -1.533,2.667c-0.533,0.6 -1.133,1.133 -1.667,1.733c-1.066,1.067 -3,1.467 -4.6,1.467c-0.333,-0 -0.6,-0 -0.8,-0.067l-1.2,0c-0.333,0 -0.8,0 -1.333,-0.133c-0.933,-0.267 -2,-0.867 -3.667,-2.2c-1.6,-1.334 -2.4,-2.534 -2.733,-3.667c-0.267,-0.533 -0.267,-1 -0.333,-1.533c-0,-0 -0,-0.067 -0.134,-1.534l0,-0.466c0,-2 0.667,-4.534 2.2,-6.534c1.6,-2.066 2.934,-2.933 5.667,-2.933l0.8,0c3.133,0.067 5.533,0.6 6.8,2c1.067,1.2 2,2.4 2.8,4.667Z" style="fill-rule:nonzero;"/>
    <path d="M1128.67,230.9c-0.067,-1.8 -1.667,-3.467 -3.334,-3.667l-0.466,0c-1.734,0 -2.934,1.067 -3.067,2.6c0.067,2.067 1.867,3.734 3.8,3.734c2,-0 2.8,-1.134 3.067,-2.667Zm-0.8,32.067c-0.2,-1.534 -0.8,-7.334 -0.8,-10.2c-0,-1.334 -0.067,-2.667 -0.067,-4.067c-0,-1.8 0.067,-3.667 0.267,-5.933c-0,-0.4 0.066,-0.734 0.066,-1.067c0,-2.133 -0.666,-2.267 -1.733,-2.267c-1.733,0 -2.133,0.4 -2.133,1.6c-0,0.2 0.066,0.4 0.066,0.734c0.134,2 0.267,7.6 0.267,10.466c-0,2.867 -0.533,7.934 -0.533,10.4c-0,2.334 0.133,2.734 2.133,2.734c1.867,-0 2.533,-0.867 2.533,-1.934c0,-0.133 -0.066,-0.333 -0.066,-0.466Z" style="fill-rule:nonzero;"/>
    <path d="M1161.33,261.833c-0.2,-1.733 -0.4,-7.2 -0.4,-11.066c0,-0.8 0.067,-1.6 0.067,-2.2l-0,-0.267c-0,-3.067 -1.6,-5.733 -2.533,-6.867c-0.934,-1.2 -2.934,-2.333 -5.534,-2.4l-0.466,0c-2.2,0 -3.534,0.8 -5.8,2.934c-0.934,0.866 -1.667,1.133 -2.134,1.2c-0.4,-0 -0.6,-0.2 -0.733,-0.4c-0.133,-0.334 -0.2,-0.734 -0.2,-1.134c-0,-0.4 -0,-0.733 0.067,-1.066c-0,-1.134 -1.067,-1.334 -1.867,-1.334c-0.733,0 -2,0.067 -2.267,0.667c-0.066,0.2 -0.133,0.467 -0.133,0.8c0.067,0.4 0.133,0.733 0.133,1.2c0.134,1.867 0.934,6.067 0.934,8.8c-0,2.733 -0.134,6.067 -0.667,10.467c-0.133,0.8 -0.133,1.4 -0.133,1.933c-0,1.933 0.666,2.333 2.2,2.333c0.2,0 0.466,-0.066 0.8,-0.066c1.333,-0.067 1.6,-0.467 1.666,-0.667l0,-0.467c0,-0.466 -0.066,-1 -0.133,-1.333c-0.267,-1.467 -0.533,-6.8 -0.533,-9.133c-0,-2.2 0.333,-5.867 1.733,-7.8c1.467,-2 3.667,-3.134 5.667,-3.134l0.933,0c0.4,0 0.867,0 1.267,0.134c0.733,0.133 1.4,0.533 2.333,1.266c1.133,0.867 1.6,2 1.8,3.4c0.133,0.8 0.133,1.734 0.133,2.734l0,2.133c0,3.8 -0.533,5.933 -0.8,9.667c0,0.266 -0.066,0.6 -0.066,0.8c-0,2.466 1.133,2.533 3.133,2.533c1.4,0 1.733,-0.733 1.733,-1.8c0,-0.6 -0.133,-1.267 -0.2,-1.867Z" style="fill-rule:nonzero;"/>
    <path d="M1195.47,243.433c0.066,-0.4 0.066,-0.733 0.066,-1.066c0,-1.6 -0.666,-1.934 -2.066,-2.067c-0.334,-0.067 -0.534,-0.067 -0.8,-0.067c-0.734,0 -0.934,0.2 -0.934,0.667c0,0.4 0.134,0.8 0.134,1.2c-0,0.4 -0.067,1 -0.6,1.4c-0.134,0.2 -0.334,0.267 -0.6,0.267c-0.4,-0 -0.867,-0.267 -1.4,-0.734c-0.467,-0.533 -1,-1.133 -1.667,-1.533c-1.2,-0.733 -3.6,-1.933 -7,-2.067l-0.2,0c-2.533,0 -5.467,2 -7.067,3.467c-1.533,1.467 -4,4.6 -4,9.867l0,0.333c0.067,2.8 0.667,4.733 1.6,6.267c0.8,1.4 1.934,2.533 3,3.666l0.334,0.267c2.333,2.333 5.666,2.733 7.333,2.733c1.6,0 3.667,-0.4 4.933,-1.666c1.334,-1.334 2.934,-2 4.067,-2l0.333,-0c0.8,0.133 0.934,0.933 1,1.533c0,0.6 -0.133,1.533 -0.2,2.733c-0.133,2.467 -0.666,3.8 -1.6,5.534c-1.133,2 -4.4,2.933 -7.6,3.2c-0.2,-0 -0.4,0.066 -0.6,0.066c-3.266,0 -5.933,-2.4 -7,-4.133c-0.466,-0.8 -0.8,-1.067 -1.266,-1.2c-0.2,-0.067 -0.467,-0.067 -0.8,-0.067l-1.334,0c-0.8,0 -1.066,0.467 -1.066,1.067c-0,0.4 0.2,1 0.4,1.333c0.2,0.467 0.666,1 1.2,1.6c0.533,0.6 1.2,1.2 1.8,1.734c1.066,1.066 4,2.333 7.866,2.666l0.734,0c3.466,0 6.466,-1.333 8.133,-2.333c1.667,-0.933 3.667,-4 4.333,-6.333c0.334,-1 0.4,-3.267 0.4,-5.667c0,-2.667 -0.066,-5.533 -0.133,-7.4c-0.067,-1.267 -0.067,-2.867 -0.067,-4.6c0,-3.2 0.067,-6.733 0.334,-8.667Zm-3.734,9.467c0,1.933 -0.133,4.333 -1.8,6.467c-1.6,2 -3.333,3.6 -7.333,3.6l-0.4,-0c-2.133,-0.067 -3.6,-0.534 -4.6,-1.2c-1,-0.667 -1.667,-1.4 -2.333,-2.267c-1.334,-1.533 -2,-3.733 -2.067,-6.4l-0,-0.667c-0,-2.533 0.533,-4.733 2.333,-6.8c2,-2.266 4.8,-2.533 7.067,-2.533c3,0 5.533,1 7.067,3.067c1.533,2.066 2.066,4.666 2.066,6.733Z" style="fill-rule:nonzero;"/>
    <path d="M1248.6,253.167l-0,-0.334c-0,-4.533 -2.133,-7.933 -4.133,-10.066c-2,-2.067 -5.267,-3.734 -9,-3.867l-0.334,0c-6.066,0 -8.733,2.533 -10.666,4.533c-2,2 -3.534,5 -3.534,9.267c0,4.267 2.534,8.4 4.6,10.267c2,1.8 5,3.133 8.867,3.133l0.4,0c4.133,-0.133 7.333,-0.667 10.2,-3.733c2.867,-3.2 3.6,-4.334 3.6,-9.2Zm-3.8,-0.734c-0,2.534 -0.933,6 -2.6,7.267c-0.4,0.2 -0.8,0.533 -1.333,0.867c-1.667,1.133 -3.534,2 -5.534,2c-0.266,-0 -0.533,-0 -0.866,-0.067c-3.2,-0.4 -4.734,-1.067 -6.667,-3.333c-1.933,-2.134 -2.533,-3.867 -2.533,-6.6c-0,-2.667 0.466,-5.2 3.133,-7.2c2.6,-1.934 4.667,-2.2 6.8,-2.2c3.4,-0 5.867,0.933 7.267,3.4c0.666,1.133 1.266,1.866 1.666,2.733c0.334,0.867 0.667,1.8 0.667,3.133Z" style="fill-rule:nonzero;"/>
    <path d="M1278.6,261.833c-0.2,-1.733 -0.4,-7.2 -0.4,-11.066c-0,-0.8 0.067,-1.6 0.067,-2.2l-0,-0.267c-0,-3.067 -1.6,-5.733 -2.534,-6.867c-0.933,-1.2 -2.933,-2.333 -5.533,-2.4l-0.467,0c-2.2,0 -3.533,0.8 -5.8,2.934c-0.933,0.866 -1.666,1.133 -2.133,1.2c-0.4,-0 -0.6,-0.2 -0.733,-0.4c-0.134,-0.334 -0.2,-0.734 -0.2,-1.134c-0,-0.4 -0,-0.733 0.066,-1.066c0,-1.134 -1.066,-1.334 -1.866,-1.334c-0.734,0 -2,0.067 -2.267,0.667c-0.067,0.2 -0.133,0.467 -0.133,0.8c0.066,0.4 0.133,0.733 0.133,1.2c0.133,1.867 0.933,6.067 0.933,8.8c0,2.733 -0.133,6.067 -0.666,10.467c-0.134,0.8 -0.134,1.4 -0.134,1.933c0,1.933 0.667,2.333 2.2,2.333c0.2,0 0.467,-0.066 0.8,-0.066c1.334,-0.067 1.6,-0.467 1.667,-0.667l-0,-0.467c-0,-0.466 -0.067,-1 -0.133,-1.333c-0.267,-1.467 -0.534,-6.8 -0.534,-9.133c0,-2.2 0.334,-5.867 1.734,-7.8c1.466,-2 3.666,-3.134 5.666,-3.134l0.934,0c0.4,0 0.866,0 1.266,0.134c0.734,0.133 1.4,0.533 2.334,1.266c1.133,0.867 1.6,2 1.8,3.4c0.133,0.8 0.133,1.734 0.133,2.734l-0,2.133c-0,3.8 -0.533,5.933 -0.8,9.667c-0,0.266 -0.067,0.6 -0.067,0.8c0,2.466 1.134,2.533 3.134,2.533c1.4,0 1.733,-0.733 1.733,-1.8c-0,-0.6 -0.133,-1.267 -0.2,-1.867Z" style="fill-rule:nonzero;"/>
    <path d="M1329.4,243.433c0.067,-0.4 0.067,-0.733 0.067,-1.066c-0,-1.6 -0.667,-1.934 -2.067,-2.067c-0.333,-0.067 -0.533,-0.067 -0.8,-0.067c-0.733,0 -0.933,0.2 -0.933,0.667c-0,0.4 0.133,0.8 0.133,1.2c-0,0.4 -0.067,1 -0.6,1.4c-0.133,0.2 -0.333,0.267 -0.6,0.267c-0.4,-0 -0.867,-0.267 -1.4,-0.734c-0.467,-0.533 -1,-1.133 -1.667,-1.533c-1.2,-0.733 -3.6,-1.933 -7,-2.067l-0.2,0c-2.533,0 -5.466,2 -7.066,3.467c-1.534,1.467 -4,4.6 -4,9.867l-0,0.333c0.066,2.8 0.666,4.733 1.6,6.267c0.8,1.4 1.933,2.533 3,3.666l0.333,0.267c2.333,2.333 5.667,2.733 7.333,2.733c1.6,0 3.667,-0.4 4.934,-1.666c1.333,-1.334 2.933,-2 4.066,-2l0.334,-0c0.8,0.133 0.933,0.933 1,1.533c-0,0.6 -0.134,1.533 -0.2,2.733c-0.134,2.467 -0.667,3.8 -1.6,5.534c-1.134,2 -4.4,2.933 -7.6,3.2c-0.2,-0 -0.4,0.066 -0.6,0.066c-3.267,0 -5.934,-2.4 -7,-4.133c-0.467,-0.8 -0.8,-1.067 -1.267,-1.2c-0.2,-0.067 -0.467,-0.067 -0.8,-0.067l-1.333,0c-0.8,0 -1.067,0.467 -1.067,1.067c-0,0.4 0.2,1 0.4,1.333c0.2,0.467 0.667,1 1.2,1.6c0.533,0.6 1.2,1.2 1.8,1.734c1.067,1.066 4,2.333 7.867,2.666l0.733,0c3.467,0 6.467,-1.333 8.133,-2.333c1.667,-0.933 3.667,-4 4.334,-6.333c0.333,-1 0.4,-3.267 0.4,-5.667c-0,-2.667 -0.067,-5.533 -0.134,-7.4c-0.066,-1.267 -0.066,-2.867 -0.066,-4.6c-0,-3.2 0.066,-6.733 0.333,-8.667Zm-3.733,9.467c-0,1.933 -0.134,4.333 -1.8,6.467c-1.6,2 -3.334,3.6 -7.334,3.6l-0.4,-0c-2.133,-0.067 -3.6,-0.534 -4.6,-1.2c-1,-0.667 -1.666,-1.4 -2.333,-2.267c-1.333,-1.533 -2,-3.733 -2.067,-6.4l0,-0.667c0,-2.533 0.534,-4.733 2.334,-6.8c2,-2.266 4.8,-2.533 7.066,-2.533c3,0 5.534,1 7.067,3.067c1.533,2.066 2.067,4.666 2.067,6.733Z" style="fill-rule:nonzero;"/>
    <path d="M1355.87,239.833c-0.467,-0.2 -2.067,-0.733 -3.867,-0.733c-1.8,0 -4.267,1.6 -5.133,3.267c-0.2,0.4 -0.467,0.8 -0.8,1c-0.2,0.066 -0.334,0.066 -0.4,0.066c-0.334,0 -0.6,-0.2 -0.734,-0.4c-0.2,-0.4 -0.266,-0.933 -0.266,-1.466l-0,-0.467c-0,-1.133 -1.2,-1.6 -2.067,-1.6c-1.667,0 -1.867,0.533 -1.933,0.867c-0,0.066 -0.067,0.133 -0.067,0.266c-0,0.2 0.067,0.534 0.133,0.867c0.067,0.467 0.134,1 0.2,1.467c0.134,2.2 0.134,7.133 0.134,10.066c-0,2.867 -0.134,5.867 -0.6,9.734c-0.067,0.666 -0.067,1.2 -0.067,1.533c-0,0.4 0.067,0.6 0.333,0.733c0.134,0.067 0.4,0.067 1,0.067c0.534,-0.067 1.2,-0.133 2,-0.133c1.667,-0 2.067,-1.134 2.067,-2.4c-0,-0.934 -0.267,-2 -0.4,-2.8c-0.267,-1.334 -0.333,-3.8 -0.333,-6.267c-0,-1.333 -0,-2.6 0.066,-3.733c0.2,-3.6 2.6,-5.6 4.867,-6.134c0.867,-0.2 1.467,-0.266 2.067,-0.266c0.8,-0 1.333,0.133 2.2,0.466c0.133,0 0.333,0.2 0.466,0.2c0.2,0 0.267,-0.066 0.334,-0.266c0.133,-0.067 0.266,-0.334 0.333,-0.667c0.2,-0.333 0.333,-0.733 0.467,-1.2c0.2,-0.667 0.333,-1.133 0.333,-1.4c-0,-0.333 -0.133,-0.533 -0.333,-0.667Z" style="fill-rule:nonzero;"/>
    <path d="M1377.8,265.033c0.533,-0.333 1,-0.733 1.333,-1.066c0.334,-0.4 0.667,-0.734 1,-0.934c0.4,-0.4 0.867,-0.6 1.334,-0.6c0.666,0 1.266,0.534 1.266,1.334c0,0.2 0,0.4 -0.066,0.6c-0,0.066 -0.067,0.133 -0.067,0.2c-0,0.6 0.667,0.666 2.533,0.8l0.334,-0c1,-0 1.2,-0.267 1.333,-0.534l-0,-13.133c-0,-2.2 -0.067,-4.533 -0.067,-6.667c0,-1.066 0,-2.066 0.067,-3l-0,-0.333c-0,-1.733 -0.867,-1.8 -2,-1.8l-0.667,0c-0.8,0 -1.2,0.067 -1.2,0.533c0,0.334 0.067,0.6 0.067,0.8c-0,1.067 -0.4,2 -1.2,2.267c-0.133,0.067 -0.2,0.067 -0.333,0.067c-0.467,-0 -1.067,-0.334 -1.667,-0.867c-0.6,-0.533 -1.067,-1.133 -1.6,-1.667c-0.733,-0.933 -3.467,-1.733 -6,-1.733c-3.733,0 -8,2.4 -10.067,5.267c-1.466,2.133 -2,5.466 -2.266,8.2l-0,0.533c-0,2.6 1.533,6.8 3.2,8.867c1.733,2.2 4.666,4.2 9.6,4.2c2.4,-0 4,-0.6 5.133,-1.334Zm5.133,-12.266c-0.2,2.8 -1.133,6.133 -3.466,7.866c-1.8,1.4 -3.2,1.734 -5.267,1.734c-0.4,-0 -0.8,-0.067 -1.333,-0.067c-3,-0.2 -5.534,-1.533 -6.6,-3.267c-0.867,-1.6 -1.467,-3.666 -1.467,-6l-0,-0.6c0.133,-2.4 1.133,-6.466 2.4,-7.4c0.933,-0.733 3.8,-1.933 6.2,-1.933c0.4,0 0.8,0 1.2,0.067l1.533,0.333c0.267,0 0.267,0.067 0.334,0.067c0.4,0.133 1,0.2 1.4,0.4c1.2,0.4 2.333,1.133 3.2,2.6l1,1.733c0.066,0.467 0.466,0.933 0.666,1.333c0.2,0.534 0.334,1.134 0.334,1.8c-0,0.4 -0.067,0.867 -0.134,1.334Z" style="fill-rule:nonzero;"/>
    <path d="M1411.67,257.567c-0,-2.134 -1.467,-3.734 -2.8,-5.067c-1.067,-1.067 -5.134,-3.267 -6.534,-3.933c-1.533,-0.667 -3,-1.8 -3,-3.467c0,-1.667 1.334,-2.333 3,-2.333l0.6,-0c2.134,0.066 3.267,0.8 4.867,2.133c0.533,0.467 0.8,0.533 0.933,0.533c0.2,0 0.334,-0.133 0.467,-0.266l0.467,-0.534c0.133,-0.2 0.333,-0.4 0.4,-0.6c0.2,-0.266 0.266,-0.533 0.266,-0.733c0,-0.267 -0.066,-0.533 -0.333,-0.867c-0.933,-1 -3.667,-2.866 -7.667,-3l-0.466,0c-1.134,0 -1.734,0.134 -2.2,0.334c-0.534,0.266 -0.934,0.666 -1.334,1.066c-0.933,0.734 -2.066,2.067 -2.2,3.6c0,0.267 -0.066,0.534 -0.066,0.734c-0,1.533 0.333,2.8 1.266,4c1.067,1.466 3.467,2.933 6,4c2.667,1.066 5.2,3.133 5.2,5.333c0,2.267 -1.866,3.6 -4.8,3.8c-0.2,0 -0.4,0.067 -0.533,0.067c-2.867,-0 -4.867,-2.4 -5.333,-3.334c-0.134,-0.466 -0.667,-0.733 -1.067,-0.733c-0.267,0 -0.667,0.133 -1.133,0.2c-1,0.267 -1.334,1.067 -1.334,1.867c0,0.266 0,0.6 0.2,0.866c0.467,0.867 2.2,2.2 3.8,3.2c1.467,0.8 4.067,1.334 5.867,1.334c1.6,-0 3.533,-1.2 5.267,-2.334c1.466,-1 2.133,-3.666 2.2,-5.866Z" style="fill-rule:nonzero;"/>
    <path d="M1433.73,257.567c0,-2.134 -1.466,-3.734 -2.8,-5.067c-1.066,-1.067 -5.133,-3.267 -6.533,-3.933c-1.533,-0.667 -3,-1.8 -3,-3.467c-0,-1.667 1.333,-2.333 3,-2.333l0.6,-0c2.133,0.066 3.267,0.8 4.867,2.133c0.533,0.467 0.8,0.533 0.933,0.533c0.2,0 0.333,-0.133 0.467,-0.266l0.466,-0.534c0.134,-0.2 0.334,-0.4 0.4,-0.6c0.2,-0.266 0.267,-0.533 0.267,-0.733c-0,-0.267 -0.067,-0.533 -0.333,-0.867c-0.934,-1 -3.667,-2.866 -7.667,-3l-0.467,0c-1.133,0 -1.733,0.134 -2.2,0.334c-0.533,0.266 -0.933,0.666 -1.333,1.066c-0.933,0.734 -2.067,2.067 -2.2,3.6c-0,0.267 -0.067,0.534 -0.067,0.734c0,1.533 0.334,2.8 1.267,4c1.067,1.466 3.467,2.933 6,4c2.667,1.066 5.2,3.133 5.2,5.333c-0,2.267 -1.867,3.6 -4.8,3.8c-0.2,0 -0.4,0.067 -0.533,0.067c-2.867,-0 -4.867,-2.4 -5.334,-3.334c-0.133,-0.466 -0.666,-0.733 -1.066,-0.733c-0.267,0 -0.667,0.133 -1.134,0.2c-1,0.267 -1.333,1.067 -1.333,1.867c-0,0.266 -0,0.6 0.2,0.866c0.467,0.867 2.2,2.2 3.8,3.2c1.467,0.8 4.067,1.334 5.867,1.334c1.6,-0 3.533,-1.2 5.266,-2.334c1.467,-1 2.134,-3.666 2.2,-5.866Z" style="fill-rule:nonzero;"/>
  </g>
  <g id="Footer">
    <g id="FLIGHTsound-flushingvultures" sound="3F-Flightsuccess-2">
      <rect x="1247" y="1709" width="210" height="307.762" style="fill:#fff;stroke:#000;stroke-width:2.88px;"/>
      <path d="M1263.42,1889.49c-0.6,0.422 -0.39,1.651 -0.768,2.296c-0.771,-1.753 0.504,-4.088 2.104,-4.399c1.751,-0.342 3.018,1.242 4.585,1.528c0.266,-0.398 -0.997,-0.906 -1.145,-1.528c-0.092,-0.851 0.519,-1.012 0.766,-1.529c-1.565,-0.366 -2.088,1.164 -2.871,0.956c0.612,-1.483 2.35,-2.748 3.823,-1.722c1.504,1.053 2.377,4.111 5.16,4.206c3.351,0.121 4.805,-2.954 7.839,-3.633c2.533,-5.049 4.278,-10.888 6.687,-16.056c-2.984,-2.175 -5.999,-4.325 -8.409,-7.073c-6.42,-0.517 -11.637,0.59 -13.19,5.543c-1.562,-1.384 0.846,-3.384 0.764,-5.16c0.599,-0.71 0.861,-0.568 1.339,-1.338c-0.064,0.096 -3.226,0.533 -3.784,0.772c-1.032,0.447 -1.528,0.956 -1.887,2.031c-0.08,0.222 -0.399,2.661 -0.476,2.661c-1.522,-0.159 -1.962,-2.175 -1.962,-3.435c-0.009,-0.796 0.123,-1.679 0.477,-2.404c0.136,-0.286 1.113,-1.195 1.131,-1.345c0.532,-4.906 2.398,-7.384 6.501,-9.366c3.235,-1.563 6.58,-3.291 8.79,-5.353c-0.414,1.306 -1.234,2.206 -1.907,3.25c1.553,0.151 1.52,-1.283 2.676,-1.53c0.327,0.565 -0.487,1.347 -0.769,1.912c1.545,-0.686 2.398,-2.064 4.015,-2.678c0,0.638 -0.622,0.653 -0.573,1.339c2.62,-0.836 5.17,-3.075 7.071,-3.44c2.663,-3.911 3.05,-8.22 2.678,-12.426c-0.349,-3.942 -2.552,-7.567 -3.823,-11.851c-1.075,-3.601 -1.864,-7.454 -2.676,-10.894c-0.733,-3.106 -1.45,-7.399 -0.77,-11.66c0.272,-1.689 0.743,-3.258 0.956,-4.972c0.574,-4.546 2.479,-8.888 3.713,-13.269c0.565,-2.024 1.044,-4.086 1.831,-6.037c0.459,-1.132 1.199,-1.88 1.526,-2.867c0.355,-1.052 0.336,-2.096 0.577,-3.25c0.155,-0.781 0.748,-1.188 0.379,-2.294c4.19,-7.99 3.118,-20.583 5.353,-30.778c0.017,-3.399 0.637,-7.749 1.722,-10.703c2.659,2.173 2.103,6.093 2.676,9.364c0.51,2.931 0.688,7.122 0.574,10.704c2.206,-3.592 3.082,-7.868 3.846,-11.956c0.416,-2.188 0.768,-4.386 1.201,-6.569c0.304,-1.522 0.391,-3.091 0.972,-4.548c0.288,-0.725 -0.008,-1.101 0.797,-0.964c0.511,0.087 1.017,1.265 1.174,1.663c0.531,1.378 0.723,2.9 0.875,4.368c0.324,3.145 0.122,6.323 -0.28,9.454c-0.391,3.082 -0.995,6.132 -1.641,9.176c-0.285,1.384 -0.6,2.764 -0.884,4.148c-0.185,0.884 -0.185,2.939 -0.709,3.64c5.178,-6.976 6.905,-19.481 10.322,-28.292c1.565,1.985 2.146,7.217 0.957,10.132c0.336,1.721 0.558,5.209 -0.191,7.264c-0.303,0.828 -0.608,0.972 -0.769,2.484c-0.327,3.116 -2.278,5.648 -2.675,9.176c2.34,-1.417 3.392,-5.784 5.351,-8.22c0.927,-3.275 2.43,-6.301 4.016,-9.178c0.449,-0.828 0.688,-2.484 2.103,-2.293c1.04,6.857 -3.371,12.552 -4.589,17.777c-1.203,2.046 -2.263,4.237 -3.058,6.69c3.058,-4.206 5.386,-9.145 8.22,-13.573c1.578,7.083 -3.121,12.449 -5.351,17.588c0.43,-0.319 1.211,-1.131 1.528,-2.103c0.979,0.152 1.388,-0.27 2.293,-0.192c-0.077,2.462 -1.774,4.738 -2.867,7.073c-0.68,1.45 -0.962,2.954 -2.103,4.013c0.778,0.24 1.579,-1.863 2.869,-1.144c0.041,2.365 -1.871,3.679 -2.103,5.162c0.383,0.478 0.71,-0.567 1.337,0c0.257,2.148 -0.526,3.567 -1.722,4.97c0.566,0.486 0.988,-0.789 2.101,-0.383c0.284,2.723 -2.27,4.754 -3.352,6.945c-0.7,1.419 0.054,2.797 -0.304,4.167c-0.421,1.609 -2.589,2.978 -3.799,3.99c2.307,-0.342 2.526,-3.673 5.547,-2.676c-0.214,1.188 -1.266,1.537 -1.722,2.486c0.742,2.342 -0.953,5.6 0.767,7.646c-0.208,0.687 -1.028,0.756 -1.146,1.53c0.023,0.358 0.629,0.136 0.573,0.573c0.509,-0.064 0.645,-0.501 0.764,-0.956c1.044,1.108 1.37,4.175 0.383,4.014c-0.088,0.876 1.473,1.003 2.103,1.72c-0.671,3.854 2.7,5.122 1.72,9.557c1.522,0.367 2.605,2.552 1.337,4.016c1.186,2.635 0.513,4.635 1.149,8.219c2.208,2.86 1.411,7.853 0.954,11.087c1.724,-1.036 1.034,-3.833 1.724,-5.736c2.595,-2.054 6.315,-2.987 8.982,-4.97c0.55,0.271 0.974,-0.515 1.147,0c1.673,-1.448 5.123,-1.123 6.501,-2.867c8.467,-2.612 18.112,-4.06 27.334,-5.543c3.755,-0.604 7.087,-2.118 10.325,-3.442c1.333,-0.789 3.057,-2.142 4.399,-2.294c1.741,-2.453 5.477,-5.098 8.604,-8.41c1.192,-1.277 2.302,-2.725 3.441,-4.016c1.492,-1.679 2.969,-3.679 4.206,-4.013c-3.13,3.813 -6.142,7.749 -9.75,11.088c4.681,-2.835 8.401,-6.635 12.426,-10.132c-0.169,0.406 0.055,1.019 -0.194,1.72c-4.374,2.383 -7.231,6.276 -10.702,9.559c3.106,-1.642 5.318,-5.52 8.982,-7.646c-1.083,2.103 -3.767,2.604 -4.205,5.351c-3.391,3.042 -6.962,5.91 -11.281,8.027c2.15,-0.023 4.508,-2.484 6.31,-2.867c-2.963,1.522 -6.947,5.058 -11.089,5.545c-1.897,0.222 -4.319,0.706 -5.732,2.294c-4.191,1.234 -6.826,4.531 -10.325,6.883c-5.327,3.584 -11.063,7.016 -17.777,9.366c-0.46,0.566 0.823,0.725 0.193,1.53c-1.864,0.453 -5.456,0.995 -6.776,2.389c0.319,0.303 2.908,0.62 2.908,0.462c0.326,1.306 -1.405,1.522 -2.245,1.928c-1.53,0.741 -2.342,1.522 -4.399,2.103c-1.679,0.478 -3.419,0.908 -5.16,1.338c-0.239,4.754 -5.481,6.101 -8.412,8.791c-0.838,0.136 -1.077,-0.327 -1.911,-0.191c-0.723,2.494 1.293,4.453 3.252,7.264c1.149,1.642 2.111,3.671 3.057,4.97c0.62,0.851 1.334,1.164 1.72,2.293c2.891,3.219 8.037,5.518 12.809,7.264c1.405,0.509 2.795,0.383 4.206,0.764c2.607,0.709 4.135,2.764 7.264,3.057c2.9,1.131 5.918,2.303 8.791,3.442c0.987,0.391 2.676,0.638 2.869,1.911c-1.65,1.283 -3.738,2.126 -5.161,3.633c-0.598,0.095 -0.748,-0.416 -1.146,-0c-3.466,1.823 -8.533,2.046 -11.47,4.396c-8.301,-0.208 -16.908,1.417 -23.513,-1.146c-0.606,0.031 -0.847,0.429 -1.529,0.38c-2.469,-2.866 -9.184,-2.859 -12.039,-3.63c-0.284,-0.488 -0.683,-0.854 -0.77,-1.53c-1.823,-0.216 -3.489,-0.589 -4.583,-1.53c-0.645,-5.01 3.716,-6.589 4.396,-10.898c-2.804,-2.381 -8.013,-1.075 -12.045,-1.528c0.689,2.389 -0.835,3.952 -1.146,5.546c-0.517,2.659 -1.402,6.291 -3.056,8.027c-0.861,0.91 -2.214,0.982 -3.442,1.53c-1.256,0.565 -1.817,1.57 -2.869,2.484c-1.761,1.529 -4.325,2.416 -5.353,4.398c1.06,1.489 5.839,2.628 6.117,4.972c0.165,1.431 -1.069,3.017 -3.059,3.248c0.439,-0.898 1.49,-1.186 1.529,-2.484c-2.484,-0.126 -4.093,-1.131 -5.16,-2.674c-0.892,0.977 0.787,1.488 1.147,2.674c0.637,2.086 -0.558,5.019 -3.25,4.97c0.134,-0.82 1.219,-0.694 1.53,-1.337c0.11,-1.921 -1.69,-2.047 -2.296,-3.633c-0.519,-1.353 0.229,-2.803 -0.194,-4.396c-0.529,-2.039 -4.125,-4.214 -6.115,-5.355c0.303,1.164 2.054,2.534 3.633,3.059c0.835,1.617 -0.284,3.99 -1.726,4.97c-0.078,-0.764 1.339,-1.697 0.769,-3.059c-1.043,-0.041 -1.211,0.511 -2.103,0.192c-0.892,-1.316 -1.967,-1.329 -3.059,-2.295c-0.111,1.131 1.007,1.212 1.149,2.103c0.361,2.175 -1.625,3.648 -4.012,3.632c0.645,-0.917 2.301,-0.596 2.293,-1.72c-0.787,-0.583 -2.668,-2.151 -1.146,-3.25c-0.292,-1.092 -1.104,-1.473 -0.383,-2.674c-0.364,-5.275 -7.524,-2.645 -10.127,-5.54Z" style="fill-rule:nonzero;"/>
      <path d="M1441.98,1901.79c-0.224,0.836 0.111,1.744 -0,2.486c-0.224,1.471 -0.496,3.392 -1.722,4.204c-0.286,-0.812 0.606,-2.309 -0,-3.44c-2.587,-2.029 -4.788,-0.908 -7.651,-1.72c-2.429,1.965 -4.651,4.14 -6.686,6.498c-2.064,4.262 -2.882,7.232 -3.059,12.618c-0.486,14.655 -11.837,23.106 -20.263,32.113c-0.558,-0.046 -0.591,0.432 -1.147,0.383c-5.362,4.579 -11.644,8.235 -18.35,11.47c-1.45,5.242 -3.913,9.479 -6.882,13.189c0.39,0.949 1.626,0.345 2.485,0.193c-0.126,0.7 -0.567,0.861 0,1.337c1.6,-0.311 3.773,-0.047 4.778,-0.956c7.384,0.241 12.092,-3.965 18.162,-2.484c1.09,2.422 5.104,-1.553 7.837,0.192c0.316,0.764 0.769,1.394 1.146,2.103c2.022,0.589 2.644,2.582 4.78,3.06c0.12,0.439 0.381,1.154 -0,1.529c-1.194,0.175 -1.005,-1.026 -1.911,-1.146c-2.126,0.239 -4.396,-1.068 -5.926,-0.191c1.743,1.188 3.681,2.183 5.926,2.869c0.255,1.17 1.697,1.568 2.103,2.676c0.937,2.58 -1.298,5.536 -3.632,6.115c1.442,-1.434 2.27,-3.975 0.765,-5.926c-1.79,0.455 -3.621,0.566 -4.972,-0.381c-0.907,-0.638 -1.242,-2.08 -2.293,-2.676c-0.931,-0.527 -2.103,-0.448 -2.869,-0.957c-0.663,-0.437 -0.548,-1.298 -1.528,-1.147c-1.864,1.777 -1.386,5.878 -3.442,7.454c-0.845,0.072 -1.563,0.733 -1.909,0.957c-2.072,0.55 -0.6,4.771 1.338,4.972c-0.749,-0.088 -1.386,0.118 -1.907,-0c-1.602,-0.375 -3.617,-3.291 -3.059,-5.546c0.692,-2.795 5.885,-4.851 4.97,-8.219c-1.122,-1.489 -3.136,-1.458 -5.157,-1.147c-3.538,0.548 -8.682,1.784 -12.618,2.676c-1.742,0.399 -3.128,1.505 -3.824,1.528c-1.739,0.056 -3.551,-1.584 -4.206,-3.057c-2.093,0.519 -2.939,-0.558 -4.202,-0.574c-0.527,-3.543 0.031,-6.803 2.101,-9.749c-0.035,-0.224 -0.352,-0.16 -0.575,-0.193c0.311,-0.9 1.149,-1.273 1.337,-2.293c-0.612,-0.661 -0.532,0.987 -1.53,0.573c0.689,-0.972 1.857,-1.458 2.486,-2.484c-0.495,-0.041 -1.29,-0.08 -1.148,0.574c-4.253,-0.168 -9.932,0.285 -14.144,0.956c-0.504,1.473 -1.062,2.89 -2.105,3.823c0.037,0.542 0.622,0.527 0.769,0.958c0.111,0.684 -0.223,0.922 -0.383,1.337c2.306,6.197 3.171,11.707 7.651,15.484c4.521,-0.222 8.074,-6.15 12.231,-2.103c1.751,-1.441 6.183,-0.789 6.502,1.529c-0.77,0.335 -1.635,-0.229 -2.298,-0.571c-1.766,1.123 -3.24,3.473 -5.924,3.059c-1.45,0.972 -4.142,0.7 -4.97,2.294c1.775,2.023 5.39,0.239 7.452,1.529c0.725,0.453 0.496,1.219 1.53,1.528c0.115,0.399 -0.239,1.258 0.192,1.339c-0.851,0.463 -1.164,-1.251 -2.295,-1.148c-0.574,0.128 -0.653,0.75 -1.147,0.958c-1.537,0.27 -4.152,0.62 -6.115,-0c-2.175,-0.686 -3.823,-2.35 -6.115,-2.677c-1.166,-0.167 -2.581,-0.653 -3.825,-0.573c-4.231,0.263 -6.501,5.32 -12.041,3.631c-0.319,-0.317 -0.151,-1.122 -0.194,-1.72c-1.448,0.517 -1.767,2.181 -2.675,3.25c-1.076,-1.975 1.264,-5.392 4.205,-5.736c3.304,-0.391 8.569,0.645 9.178,-2.867c0.06,-0.367 0.06,-1.571 -0,-2.105c-0.047,-0.391 -0.486,-0.422 -0.574,-0.764c-0.134,-0.517 0.113,-1.226 0,-1.72c-0.373,-1.72 -1.627,-4.181 -2.297,-5.926c-0.292,-0.78 -0.199,-1.45 -0.574,-2.103c-1.106,-1.936 -3.04,-2.407 -4.779,-3.633c-0.152,-1.054 -0.16,-1.928 -1.147,-2.484c0.09,-1.514 -0.517,-3.427 -0.956,-4.016c1.133,-0.7 1.529,-2.548 2.871,-2.484c-4.428,-1.584 -9.375,-2.196 -15.295,-1.337c0.021,-0.126 0.072,-0.224 0.159,-0.288c0.202,-0.039 0.399,-0.072 0.609,-0.095c-0.274,-0.033 -0.479,-0.008 -0.609,0.095c-5.831,0.98 -9.829,5.266 -14.301,8.127c-0.486,0.103 -0.669,0.252 -0.955,-0.193c-1.642,1.991 -4.709,2.556 -6.688,4.206c-1.555,-0.55 -2,0.685 -3.059,1.147c-0.494,0.111 -0.686,-0.081 -0.574,-0.573c-0.804,-0.041 -0.804,0.727 -1.529,0.764l-0,-0.574c-3.242,0.749 -7.501,0.393 -11.468,0.957c0.527,-0.302 1.267,-0.391 2.103,-0.383c-0.956,-0.222 -3.409,-0.875 -3.633,-0.574c-0.143,-0.923 -1.17,-1.45 -2.486,-0.764c0.251,-0.254 0.251,-0.701 0,-0.956c-1.551,-0.072 -2.445,-0.311 -3.44,0.383c0.105,-0.152 0.202,-0.311 0.193,-0.573c-1.456,0.398 -1.715,-0.445 -2.869,-0.766c-0.399,-1.234 0.048,-2.07 1.147,-2.675c7.543,-4.126 17.357,-8.929 24.47,-13.382c-0.303,-0.532 -0.859,0.274 -1.529,0c-4.02,3.013 -10.794,4.517 -15.291,7.649c0.583,-3.176 4.056,-5.122 6.501,-7.073c-2.956,0.169 -8.462,0.12 -11.088,0.765c-0.373,-1.067 1.761,-1.131 1.72,-2.486c1.028,-0.373 1.545,-1.259 2.103,-2.105c6.669,-2.499 12.163,-4.435 19.691,-5.543c2.111,-2.412 5.573,-3.473 7.649,-5.924c-0.813,-0.241 -2,0.804 -3.06,0.954c1.306,-1.872 2.995,-3.361 4.589,-5.353c9.025,0.167 14.591,-4.777 17.968,-10.896c4.938,-1.499 8.029,-4.842 12.039,-7.264c0.355,-0.033 0.122,-0.645 0.383,-0.765c6.404,-3.353 14.035,-6.261 21.217,-8.22c0.223,-0.033 0.161,-0.352 0.194,-0.574c1.442,0.278 3.013,0.278 4.399,-0.192c0.326,-0.113 0.627,-0.503 0.952,-0.573c2.898,-0.605 6.99,0.033 9.18,-1.147c8.093,0.192 10.626,-5.176 14.337,-9.367c1.52,-0.519 1.838,-2.239 2.868,-3.25c-0.342,-0.573 -0.59,0.543 -1.337,0.193c0.566,-1.021 2.941,-1.648 2.298,-2.675c0.748,0.111 1.104,-0.169 1.525,-0.382c-0.033,-0.224 -0.351,-0.16 -0.573,-0.191c1.203,-1.092 3.178,-1.409 5.16,-1.72c3.95,-2.229 11.46,-1.952 17.589,-1.337c1.096,1.45 3.259,1.84 3.442,4.206c2.484,0.182 3.903,0.653 6.5,0.956c0.717,0.962 2.723,1.574 2.486,2.867c0.009,0.27 0.544,0.054 0.544,0.373Zm-68.818,87.934c-0.892,-0.2 -1.72,0.416 -1.91,-0.191c0.598,1.307 -1.176,1.227 -0.576,1.911c0.447,-0.954 1.967,-0.836 2.486,-1.72Z" style="fill-rule:nonzero;"/>
    </g>
    <g id="FAWN-ICON" sound="FAWN" serif:id="FAWN ICON">
      <rect x="245" y="1843.25" width="210" height="167.5" style="fill:#fff;stroke:#000;stroke-width:1.91px;"/>
      <path id="fawn" d="M284.157,1949.92c2.926,-0.88 10.481,-8.095 11.315,-11.662c0.881,-3.78 0.619,-15.65 -0.483,-17.523c-1.447,-2.459 -1.681,-9.725 0.228,-11.56c2.922,-2.811 15.408,-8.367 18.111,-10.08c1.794,-1.136 4.1,-0.986 6.146,-0.881c2.046,0.106 12.904,-0.638 20.912,-0.41c8.009,0.228 15.155,-0.895 18.533,-1.28c3.377,-0.384 13.618,-2.036 17.554,-0.396c2.462,1.025 10.506,2.408 14.421,-1.119c3.912,-3.529 6.742,-11.416 7.052,-13.696c0.367,-2.702 1.557,-5.928 1.733,-7.359c0.247,-1.998 -0.119,-2.692 -0.365,-2.95c-1.036,-1.089 -1.038,-1.671 -1.241,-2.135c-0.203,-0.465 -1.521,-1.768 -1.407,-2.308c0.083,-0.394 -0.123,-0.676 -1.248,-0.849c-1.124,-0.171 -4.606,-1.757 -5.138,-4.06c-1.458,-6.328 -0.417,-9.791 0.94,-9.721c1.357,0.071 7.785,4.824 7.839,5.96c0.055,1.136 1.155,3.535 2.017,3.993c1.35,0.717 3.292,-1.033 7.714,-0.62c2.042,0.191 4.195,1.235 4.57,1.162c0.287,-0.056 2.042,-1.908 2.101,-3.039c0.058,-1.13 1.003,-2.976 3.559,-4.352c2.666,-1.436 4.164,-2.017 4.754,-2.439c0.588,-0.423 2.027,-0.661 2.367,0.771c0.326,1.375 -0.034,6.016 -1.696,8.551c-0.982,1.496 -2.521,3.173 -4.877,3.977c-1.223,0.418 -2.254,0.189 -2.301,1.092c-0.046,0.905 0.074,2.952 -0.515,3.375c-0.587,0.422 -0.391,0.999 -0.431,1.791c-0.041,0.791 -0.444,2.017 -0.688,2.345c-0.244,0.327 -0.472,1.412 -0.422,1.565c0.283,0.848 0.81,1.856 0.644,2.868c-0.165,1.013 -0.575,0.435 -0.746,1.56c-0.172,1.124 -0.607,1.298 -1.119,1.632c-0.724,0.472 -1.288,1.793 -1.73,1.887c-1.011,0.214 -1.448,-0.382 -1.494,0.522c-0.047,0.906 -0.515,1.931 -0.341,2.961c0.173,1.029 0.325,4.665 -0.156,5.207c-0.481,0.541 -3,5.399 -3.128,7.887c-0.129,2.487 -1.057,9.467 -4.303,13.041c-0,0 -5.537,5.089 -5.599,6.289c-0.063,1.2 0.652,7.069 0.342,7.702c-0.311,0.632 -1.267,1.231 -1.689,2.227c-0.422,0.995 -1.657,5.19 -2.144,5.629c-0.485,0.437 -3.142,1.688 -2.638,4.492c0.503,2.804 3.329,7.208 5.722,9.276c2.393,2.067 7.694,6.972 8.157,8.755c0.463,1.782 1.328,2.938 1.277,3.953c-0.053,1.016 -0.037,2.498 1.361,5.902c1.398,3.406 4.383,11.892 4.847,13.675c0.464,1.783 1.227,3.119 1.224,4.97c-0.003,1.851 0.526,5.953 0.1,7.041c-0.428,1.089 0.714,5.87 0.159,5.84c-0.553,-0.028 -1.685,0.377 -3.242,-1.741c-1.558,-2.116 -2.053,-3.254 -2.468,-4.2c-0.414,-0.947 -0.226,-2.79 0.089,-3.514c0.315,-0.723 0.541,-3.305 0.134,-2.585c-0.408,0.72 -0.902,1.342 -1.156,0.866c-0.252,-0.476 0.321,-0.816 0.011,-3.796c-0.308,-2.978 -0.413,-6.316 -1.23,-8.396c-0.818,-2.079 -2.557,-6.055 -3.347,-8.689c-0.788,-2.633 -2.358,-6.325 -4.935,-8.401c-2.577,-2.079 -12.582,-7.318 -13.788,-9.048c-1.206,-1.728 -2.378,-2.344 -3.736,-2.969c-1.355,-0.626 -3.465,-1.013 -3.967,-2.057c-0.5,-1.045 -0.332,-2.516 -1.264,-2.38c-0.933,0.137 -4.534,-0.049 -4.937,0.578c-0.403,0.627 -3.655,9.809 -3.936,11.646c-0.28,1.837 -0.583,11.264 -0.994,12.076c-0.413,0.812 -0.762,2.183 -1.003,3.28c-0.243,1.099 -0.213,2.304 -0.869,2.457c-0.656,0.151 -0.517,2.844 -0.662,3.853c-0.144,1.012 0.15,4.265 -0.384,5.627c-0.533,1.361 -3.088,7.802 -2.118,12.296c0.972,4.494 4.455,8.747 3.615,8.887c-0.842,0.144 -2.07,0.635 -3.087,0.582c-1.016,-0.052 -4.334,-0.317 -4.364,-1.521c-0.031,-1.205 -0.093,-5.375 -0.694,-4.48c-0.602,0.895 -1.102,1.61 -1.526,0.847c-0.423,-0.762 -0.363,-3.722 0.545,-5.155c0.907,-1.435 1.543,-2.977 2.248,-7.661c0.705,-4.685 1.362,-8.447 1.569,-10.659c0.208,-2.211 0.575,-3.95 0.282,-5.447c-0.293,-1.496 0.088,-5.271 0.057,-6.477c-0.029,-1.205 -0.572,-10.398 -0.619,-13.085c-0.046,-2.687 1.252,-8.083 0.208,-7.582c-1.045,0.501 -17.395,1.601 -20.667,0.413c-3.272,-1.188 -5.245,-2.401 -5.818,-2.06c-0.573,0.341 -3.764,2.953 -5.936,7.377c-2.173,4.424 -5.712,8.406 -6.925,10.381c0,0 -3.363,5.936 -3.365,7.787c-0.004,1.851 0.562,8.824 3.64,17.315c3.079,8.492 2.648,9.673 5.011,12.294c1.054,1.169 3.531,6.497 2.326,6.527c-1.158,0.029 -3.31,0.096 -4.329,0.137c-0.929,0.035 -0.214,-2.084 -1.535,-2.842c-1.446,-0.83 -4.869,1.205 -4.401,-2.474c0.13,-1.023 -0.211,-1.546 -0.173,-3.804c0.046,-2.683 -3.916,-15.571 -5.079,-18.13c-1.163,-2.56 -2.252,-6.109 -3.433,-8.788c-1.475,-3.342 -3.683,-4.777 -2.694,-6.99c0.407,-0.909 4.415,-6.621 6.134,-9.402c1.718,-2.78 2.992,-5.956 3.064,-7.341c0,0 0.197,-2.025 -0.871,-1.062c-1.069,0.963 -7.536,6.09 -9.037,6.474c-1.501,0.385 -9.504,6.545 -10.461,7.144c-0.957,0.598 -4.344,-0.131 -7.489,8.778c-3.145,8.908 -5.986,22.649 -7.407,25.076c-1.422,2.425 -4.337,8.662 -6.144,9.587c-1.807,0.925 -2.303,1.547 -2.687,0.046c-0.386,-1.501 0.286,-5.539 0.999,-6.799c0.713,-1.258 2.505,-1.906 1.61,-2.508c-0.894,-0.602 -1.464,-2.113 -0.415,-2.708c1.049,-0.593 1.902,-2.771 2.583,-3.384c0.679,-0.612 3.554,-7.869 4.115,-11.544c0.561,-3.673 1.022,-6.276 1.95,-9.063c1.972,-5.917 0.916,-12.361 3.202,-13.048Z" style="fill-rule:nonzero;"/>
    </g>
  </g>
</svg>
