<?xml version="1.0" encoding="UTF-8" standalone="no"?>
<!DOCTYPE svg PUBLIC "-//W3C//DTD SVG 1.1//EN" "http://www.w3.org/Graphics/SVG/1.1/DTD/svg11.dtd">
<svg width="100%" height="100%" viewBox="0 0 1688 2200" version="1.1" xmlns="http://www.w3.org/2000/svg" xmlns:xlink="http://www.w3.org/1999/xlink" xml:space="preserve" xmlns:serif="http://www.serif.com/" style="fill-rule:evenodd;clip-rule:evenodd;stroke-linecap:round;stroke-linejoin:round;stroke-miterlimit:1.5;">
  <rect id="FLIGHTFAIL" x="0" y="0" width="1688" height="2200" style="fill:none;"/>
  <g id="S">
    <g id="Root-Markers" serif:id="Root Markers">
      <path id="_8" serif:id="8" d="M526.245,1179.16l69.174,-81.853l36.299,62.873l-105.473,18.98Zm48.995,-28.287l17.216,-20.372c-0,0 9.034,15.648 9.034,15.648l-26.25,4.724Z"/>
    </g>
    <g id="Ring">
      <path d="M1255.43,1233c-130.888,226.701 -421.195,304.499 -647.884,173.623c-226.688,-130.876 -304.465,-421.183 -173.577,-647.884c130.889,-226.701 421.196,-304.499 647.884,-173.623c226.688,130.876 304.466,421.183 173.577,647.884Z" style="fill:none;stroke:#000;stroke-width:10px;"/>
      <path d="M1255.43,1233l-26.257,-15.159" style="fill:none;stroke:#000;stroke-width:10px;"/>
      <path d="M460.231,773.897l-26.258,-15.159" style="fill:none;stroke:#000;stroke-width:10px;"/>
      <path d="M622.71,1380.37l-15.16,26.257" style="fill:none;stroke:#000;stroke-width:10px;"/>
      <path d="M1081.86,585.115l-15.16,26.257" style="fill:none;stroke:#000;stroke-width:10px;"/>
      <path d="M1081.85,1406.6l-15.16,-26.256" style="fill:none;stroke:#000;stroke-width:10px;"/>
      <path d="M622.72,611.389l-15.16,-26.257" style="fill:none;stroke:#000;stroke-width:10px;"/>
      <path d="M460.201,1217.86l-26.257,15.159" style="fill:none;stroke:#000;stroke-width:10px;"/>
      <path d="M1255.46,758.721l-26.258,15.159" style="fill:none;stroke:#000;stroke-width:10px;"/>
      <path d="M844.704,1470.16l-0,-30.319" style="fill:none;stroke:#000;stroke-width:10px;"/>
      <path d="M844.704,551.892l-0,-30.319" style="fill:none;stroke:#000;stroke-width:10px;"/>
      <path d="M400.736,995.868l-30.319,0" style="fill:none;stroke:#000;stroke-width:10px;"/>
      <path d="M1318.99,995.868l-30.32,0" style="fill:none;stroke:#000;stroke-width:10px;"/>
    </g>
    <g id="Notes">
      <path id="_11" sound="3F-Mid-B" serif:id="11" d="M676.187,629.402c-21.989,38.086 -70.763,51.154 -108.85,29.166c-38.086,-21.989 -51.155,-70.762 -29.166,-108.848c21.989,-38.086 70.763,-51.154 108.85,-29.166c38.086,21.989 51.155,70.762 29.166,108.848Z" style="stroke:#fff;stroke-width:24px;"/>
      <path id="_81" sound="3F-Low-Ab" serif:id="8" d="M504.492,1277.29c-21.989,38.086 -70.763,51.155 -108.849,29.166c-38.087,-21.989 -51.156,-70.762 -29.167,-108.848c21.99,-38.085 70.764,-51.154 108.85,-29.165c38.087,21.989 51.156,70.762 29.166,108.847Z" style="stroke:#fff;stroke-width:24px;"/>
      <path id="_3" sound="3F-Mid-Eb" serif:id="3" d="M1386.1,1040.32c-21.989,38.086 -70.763,51.154 -108.849,29.166c-38.087,-21.989 -51.156,-70.762 -29.167,-108.848c21.99,-38.086 70.764,-51.154 108.85,-29.165c38.087,21.988 51.156,70.761 29.166,108.847Z" style="stroke:#fff;stroke-width:24px;"/>
    </g>
    <g id="Treble-Marker" serif:id="Treble Marker">
      <g id="_1" sound="3F-High-Db" serif:id="1">
        <path id="_1u" serif:id="1u" d="M1147.64,635.109c-21.989,38.086 -70.763,51.155 -108.85,29.166c-38.086,-21.989 -51.155,-70.762 -29.166,-108.848c21.989,-38.085 70.763,-51.154 108.85,-29.165c38.086,21.989 51.155,70.762 29.166,108.847Z" style="fill:#fff;stroke:#fff;stroke-width:33.33px;"/>
        <circle id="_1a" serif:id="1a" cx="1078.63" cy="595.268" r="64" style="fill:#fff;stroke:#000;stroke-width:16.67px;"/>
      </g>
    </g>
  </g>
	<a xlink:href="FLIGHTFAIL-TO-PRECHOICE-2.svg">
  <g id="NEXTLINK">
    <path d="M914,1895c0,-19.317 -15.683,-35 -35,-35l-70,0c-19.317,0 -35,15.683 -35,35l0,78c0,19.317 15.683,35 35,35l70,0c19.317,0 35,-15.683 35,-35l0,-78Z" style="fill:#fff;"/>
    <path id="next" d="M814.167,1896.5c-0.2,-1.733 -0.4,-7.2 -0.4,-11.067c-0,-0.8 0.066,-1.6 0.066,-2.2l0,-0.266c0,-3.067 -1.6,-5.734 -2.533,-6.867c-0.933,-1.2 -2.933,-2.333 -5.533,-2.4l-0.467,0c-2.2,0 -3.533,0.8 -5.8,2.933c-0.933,0.867 -1.667,1.134 -2.133,1.2c-0.4,0 -0.6,-0.2 -0.734,-0.4c-0.133,-0.333 -0.2,-0.733 -0.2,-1.133c0,-0.4 0,-0.733 0.067,-1.067c0,-1.133 -1.067,-1.333 -1.867,-1.333c-0.733,0 -2,0.067 -2.266,0.667c-0.067,0.2 -0.134,0.466 -0.134,0.8c0.067,0.4 0.134,0.733 0.134,1.2c0.133,1.866 0.933,6.066 0.933,8.8c0,2.733 -0.133,6.066 -0.667,10.466c-0.133,0.8 -0.133,1.4 -0.133,1.934c0,1.933 0.667,2.333 2.2,2.333c0.2,0 0.467,-0.067 0.8,-0.067c1.333,-0.066 1.6,-0.466 1.667,-0.666l-0,-0.467c-0,-0.467 -0.067,-1 -0.134,-1.333c-0.266,-1.467 -0.533,-6.8 -0.533,-9.134c0,-2.2 0.333,-5.866 1.733,-7.8c1.467,-2 3.667,-3.133 5.667,-3.133l0.933,0c0.4,0 0.867,0 1.267,0.133c0.733,0.134 1.4,0.534 2.333,1.267c1.134,0.867 1.6,2 1.8,3.4c0.134,0.8 0.134,1.733 0.134,2.733l-0,2.134c-0,3.8 -0.534,5.933 -0.8,9.666c-0,0.267 -0.067,0.6 -0.067,0.8c0,2.467 1.133,2.534 3.133,2.534c1.4,-0 1.734,-0.734 1.734,-1.8c-0,-0.6 -0.134,-1.267 -0.2,-1.867Z" style="fill-rule:nonzero;"/>
    <path d="M848.167,1886.7c-0,-0.067 0.066,-0.133 0.066,-0.267c0,-0.066 -0.066,-0.266 -0.066,-0.466l-0.267,-1.4c-0.467,-2.134 -2.8,-5.667 -4.533,-7.734c-1.734,-1.866 -5.067,-3 -7.867,-3.133l-0.733,0c-2.867,0 -5.134,1.4 -7.467,2.933l-0.533,0.334c-2.534,1.533 -4.334,6.6 -4.467,10.6l0,0.2c0,3.8 2.867,8 5.133,10.533c2.2,2.333 6.734,2.4 9,2.4c2.134,0 3.867,-0.533 5,-1.133c0.467,-0.267 1.134,-0.8 1.934,-1.467c0.733,-0.667 1.533,-1.333 2.4,-2c0.666,-0.467 1,-1 1,-1.533c-0,-0.6 -0.334,-1.2 -1.334,-2c-0.333,-0.267 -0.666,-0.4 -0.866,-0.4c-0.334,-0 -0.534,0.2 -0.8,0.4c-0.467,0.533 -0.8,1.2 -1.067,1.866c-0.533,1.2 -3.2,2.534 -6.533,2.534l-0.534,-0c-2.2,-0.067 -4.066,-0.734 -5.733,-2.067l-1,-0.8c-1.067,-0.933 -2.133,-3.6 -2.133,-5.267l-0,-0.466c0.2,-0.8 1.8,-1.267 3.8,-1.334c1.666,0 3.533,0.067 4.533,0.067c1.4,0 5.267,0.067 8.267,0.067c1.533,-0 2.866,-0 3.6,-0.067c1.133,0 1.2,-0.267 1.2,-0.4Zm-4.734,-4.4c0.2,0.333 0.267,0.6 0.267,0.867c0,0.733 -0.6,1.2 -1.8,1.2c-2.6,-0 -5.467,0.066 -6.6,0.066c-1.2,0 -4.733,-0.066 -5.467,-0.266c-0.733,-0.067 -2.333,-0.934 -2.333,-2.134c0,-0.4 0.133,-0.8 0.467,-1.2c1.066,-1.466 4,-3.466 7.466,-3.466l0.267,-0c3.133,0.133 4.2,1.066 5.733,2.533c0.667,0.667 1.6,1.533 2,2.4Z" style="fill-rule:nonzero;"/>
    <path d="M877.633,1899.3c-0.133,-1.467 -1.866,-2.933 -2.933,-3.8c-0.867,-0.733 -1.667,-1.667 -2.467,-2.6c-0.733,-0.933 -1.4,-1.867 -1.866,-2.4c-0.534,-0.533 -1.2,-1.067 -1.8,-1.733c-0.534,-0.667 -1.067,-1.4 -1.067,-2.334l0,-0.266c0.067,-1.4 2.067,-3 3.133,-4c0.4,-0.334 0.667,-0.667 0.867,-0.934c0.333,-0.666 1.067,-1.466 1.867,-2.333l2.533,-3.067c0.4,-0.466 0.667,-0.8 0.667,-1c-0,-0.066 -0.067,-0.066 -0.067,-0.133c-0.2,-0.133 -0.467,-0.2 -0.933,-0.267l-1.4,-0.133c-0.267,0 -0.467,-0.067 -0.667,-0.067c-1.333,0 -2.133,0.534 -2.733,1.934c-0.467,0.933 -1,1.733 -1.534,2.4c-0.466,0.733 -1,1.4 -1.4,2.2c-0.866,1.933 -1.733,3 -2.933,3c-0.667,-0 -1.4,-0.6 -1.933,-1.467c-0.467,-0.733 -0.934,-1.6 -1.4,-2.267l-1.467,-2.066c-0.533,-0.734 -1,-1.534 -1.267,-2.2c-0.4,-1 -1.666,-1.6 -3.2,-1.667c-0.666,0 -1.666,0.067 -1.666,0.867c-0,0.466 0.466,1.133 0.666,1.4c0.667,0.733 2.6,3.4 4.667,5.866c1.067,1.2 1.733,1.867 2.2,2.467c0.4,0.667 0.667,1.2 0.667,2.133c-0,1.4 -0.934,2.534 -1.667,3.334l-2.467,2.666c-0.533,0.6 -1.533,1.667 -2.533,2.867l-3.067,3.133c-0.266,0.267 -0.466,0.4 -0.466,0.534c-0,0.066 0.066,0.066 0.2,0.066c0.266,0.067 0.666,0.134 1.133,0.134c0.533,0.066 1.133,0.066 1.733,0.066c1.134,0 1.534,-0.2 1.8,-0.466c0.267,-0.067 0.334,-0.267 0.6,-0.534l0.8,-0.933c0.6,-0.667 1.2,-1.467 1.734,-2.267l0.2,-0.2c0.466,-0.666 0.933,-1.333 1.466,-1.933c0.534,-0.533 0.867,-1.267 1.267,-1.867c0.533,-0.666 1.2,-1.333 2.267,-1.333c1.533,0 2.333,1.667 3,2.867l0.066,0.266c0.267,0.467 0.334,0.734 0.467,0.867c0.667,0.8 2,2.667 3.467,4.867c0.666,1 1.066,1.133 1.4,1.133c0.266,0 0.6,0 0.866,-0.067c0.334,-0.066 0.734,-0.2 1.134,-0.2l0.533,0c0.867,0 1.4,-0.066 1.533,-0.533Z" style="fill-rule:nonzero;"/>
    <path d="M896.433,1876.1c0,-0.533 -0.266,-0.733 -0.8,-0.933c-0.333,-0.067 -0.733,-0.067 -1.133,-0.067c-0.467,0 -0.867,-0.067 -1.333,-0.067l-1.134,-0.133c-0.333,0 -0.6,-0.067 -0.866,-0.133c-0.6,-0.2 -1,-0.667 -1,-1.334c-0,-0.933 -0,-2.533 0.133,-5.133l0,-0.267c0,-1 -0.2,-1.333 -0.4,-1.466c-0.333,-0.267 -1,-0.267 -1.4,-0.267l-0.2,0c-1,0 -1.6,0.8 -1.667,1.2c0,0.067 -0.066,0.2 -0.066,0.267c-0,0.333 0.066,0.866 0.133,1.533c0.133,0.867 0.267,2 0.267,3.133l-0,0.334c-0,1.2 -0.534,1.866 -1.4,2.066c-0.267,0.067 -0.534,0.067 -0.8,0.067c-0.467,0 -1.067,-0.067 -1.534,-0.067c-0.933,0 -1.466,0.6 -1.666,2.6c-0,0.067 -0.067,0.134 -0.067,0.2c0,0.4 0.267,0.534 0.8,0.667c0.333,0.067 0.667,0.067 1,0.067c0.333,-0 0.667,-0.067 0.933,-0.067c1.067,0 2.467,0.8 2.467,2.267c0,1.066 0.2,3.4 0.2,6.4c0,3 -0.4,8.733 -0.4,11.333c0,1.267 0.2,1.6 0.4,1.733l0.533,0.134l1.2,-0c1.667,-0 2.2,-0.2 2.2,-1.067l0,-0.467c-0.2,-1.866 -0.533,-6.666 -0.6,-9.466c-0.066,-0.934 -0.133,-2.067 -0.133,-3.2c0,-2.2 0.133,-4.467 0.2,-5.934c0.067,-1.466 0.933,-2.066 2,-2.133l0.2,0c0.8,0 1.533,0.2 2.333,0.267l0.267,-0c0.867,-0 1.333,-0.467 1.333,-2.067Z" style="fill-rule:nonzero;"/>
    <circle cx="824" cy="1958" r="40" style="fill:#fff;stroke:#000;stroke-width:12.5px;"/>
    <circle cx="864" cy="1958" r="40" style="fill:none;stroke:#000;stroke-width:12.5px;"/>
  </g>
	</a>
  <g id="Header">
    <path id="Lyric-Text" serif:id="Lyric Text" d="M118.8,241.433c0.2,-0.333 0.267,-0.533 0.267,-0.666c-0,-0.267 -0.2,-0.334 -0.4,-0.4c-0.267,-0.134 -0.667,-0.2 -1.067,-0.267l-1,-0.067c-0.2,0 -0.533,-0.066 -0.8,-0.066c-0.6,-0 -1.2,0.133 -1.267,0.6c-0.133,1.2 -2.066,5.533 -2.8,7.133c-0.733,1.533 -2.333,5.533 -2.866,7.067c-0.534,1.733 -1.467,4 -2.934,4.4c-0.2,0.066 -0.4,0.133 -0.533,0.133c-0.667,0 -1.067,-0.467 -1.333,-1.067c-0,-0.266 -0.134,-0.6 -0.2,-1c-0.067,-0.333 -0.134,-0.733 -0.2,-1.066c-0.2,-0.734 -0.6,-1.467 -1.067,-2.467c-0.533,-0.933 -1.067,-2 -1.533,-3.2c-0.934,-2.4 -2.467,-5.867 -3.334,-8.4c-0.866,-2.133 -1.533,-2.267 -3.733,-2.467l-0.467,0c-1,0 -1.4,0.4 -1.4,0.867c0,0.933 0.934,2.133 1.4,2.6c0.6,0.667 1.334,2.133 2.134,3.6c0.733,1.467 1.6,3.067 2.4,4.333c0.333,0.667 0.733,1.4 1.066,2.2l0.934,2.4c0.666,1.6 1.266,3.134 2.2,4.2c1.2,1.467 1.666,2.867 1.666,4l0,0.267c0,0.733 -0.2,1.4 -0.4,1.867c-0.533,0.866 -1.266,2.133 -2.066,4.466c-0.4,1.2 -1.067,2.334 -1.667,3.334c-0.6,1 -1.2,1.933 -1.733,3c-0.2,0.333 -0.334,0.666 -0.334,0.8c0,0.8 1,0.8 2.667,0.933c0.133,0 0.333,0.067 0.467,0.067c0.8,-0 1.133,-0.267 1.333,-0.534c0.2,-0.266 0.333,-0.533 0.467,-0.933l0.466,-1.333c0.4,-1 0.734,-2 1.067,-2.934c0.4,-1 0.8,-2 1.333,-3c1.067,-2 2.867,-7.4 4.2,-9.933c1.267,-2.467 3,-6.733 4,-8.8c1,-2.067 3.8,-7.467 5.067,-9.667Z" style="fill-rule:nonzero;"/>
    <path d="M151.733,253.167l0,-0.334c0,-4.533 -2.133,-7.933 -4.133,-10.066c-2,-2.067 -5.267,-3.734 -9,-3.867l-0.333,0c-6.067,0 -8.734,2.533 -10.667,4.533c-2,2 -3.533,5 -3.533,9.267c-0,4.267 2.533,8.4 4.6,10.267c2,1.8 5,3.133 8.866,3.133l0.4,0c4.134,-0.133 7.334,-0.667 10.2,-3.733c2.867,-3.2 3.6,-4.334 3.6,-9.2Zm-3.8,-0.734c0,2.534 -0.933,6 -2.6,7.267c-0.4,0.2 -0.8,0.533 -1.333,0.867c-1.667,1.133 -3.533,2 -5.533,2c-0.267,-0 -0.534,-0 -0.867,-0.067c-3.2,-0.4 -4.733,-1.067 -6.667,-3.333c-1.933,-2.134 -2.533,-3.867 -2.533,-6.6c-0,-2.667 0.467,-5.2 3.133,-7.2c2.6,-1.934 4.667,-2.2 6.8,-2.2c3.4,-0 5.867,0.933 7.267,3.4c0.667,1.133 1.267,1.866 1.667,2.733c0.333,0.867 0.666,1.8 0.666,3.133Z" style="fill-rule:nonzero;"/>
    <path d="M181.867,242.567c0.066,-0.467 0.066,-0.8 0.066,-1.134c0,-1.333 -0.466,-1.8 -2.4,-1.933l-0.333,0c-1.467,0 -1.8,0.6 -1.8,1.6c-0,0.333 -0,0.667 0.067,1.067c0.133,1.6 0.4,6.8 0.533,10.2c-0,0.533 0.067,1.066 0.067,1.6c-0,2.6 -0.4,4.666 -1.6,6.133c-1.4,1.933 -2.8,2 -4.867,2.067l-0.2,-0c-0.467,0.066 -0.933,0.066 -1.333,0.066c-1.6,0 -2.867,-0.333 -4.134,-2.133c-0.8,-1 -1.2,-2.333 -1.4,-3.8c-0.133,-1.4 -0.2,-3.133 -0.266,-5.067c-0.067,-1.6 -0.067,-2.8 -0.067,-3.933c-0,-1.533 0.067,-2.867 0.2,-4.867l-0,-1.2c-0,-0.733 -0.067,-1 -0.133,-1.133c-0.067,0 -0.2,-0.067 -0.467,-0.133c-0.267,-0 -0.667,-0 -1.067,-0.067l-0.466,0c-1.534,0 -1.867,0.533 -1.867,1.133c-0,1.4 0.333,2.8 0.333,4.734c0,1.8 0.067,8.2 0.067,11c-0,2.666 1.467,5.333 3.6,6.933c2,1.533 5.533,1.933 7.667,1.933c2.066,0 5.2,-1.333 8,-4.133c1.266,-1.267 1.666,-3.267 1.666,-5.333c0,-2.067 -0.333,-4.067 -0.333,-5.2c-0,-2.2 0.2,-6.2 0.467,-8.4Z" style="fill-rule:nonzero;"/>
    <path d="M207.467,239.833c-0.467,-0.2 -2.067,-0.733 -3.867,-0.733c-1.8,0 -4.267,1.6 -5.133,3.267c-0.2,0.4 -0.467,0.8 -0.8,1c-0.2,0.066 -0.334,0.066 -0.4,0.066c-0.334,0 -0.6,-0.2 -0.734,-0.4c-0.2,-0.4 -0.266,-0.933 -0.266,-1.466l-0,-0.467c-0,-1.133 -1.2,-1.6 -2.067,-1.6c-1.667,0 -1.867,0.533 -1.933,0.867c-0,0.066 -0.067,0.133 -0.067,0.266c-0,0.2 0.067,0.534 0.133,0.867c0.067,0.467 0.134,1 0.2,1.467c0.134,2.2 0.134,7.133 0.134,10.066c-0,2.867 -0.134,5.867 -0.6,9.734c-0.067,0.666 -0.067,1.2 -0.067,1.533c-0,0.4 0.067,0.6 0.333,0.733c0.134,0.067 0.4,0.067 1,0.067c0.534,-0.067 1.2,-0.133 2,-0.133c1.667,-0 2.067,-1.134 2.067,-2.4c-0,-0.934 -0.267,-2 -0.4,-2.8c-0.267,-1.334 -0.333,-3.8 -0.333,-6.267c-0,-1.333 -0,-2.6 0.066,-3.733c0.2,-3.6 2.6,-5.6 4.867,-6.134c0.867,-0.2 1.467,-0.266 2.067,-0.266c0.8,-0 1.333,0.133 2.2,0.466c0.133,0 0.333,0.2 0.466,0.2c0.2,0 0.267,-0.066 0.334,-0.266c0.133,-0.067 0.266,-0.334 0.333,-0.667c0.2,-0.333 0.333,-0.733 0.467,-1.2c0.2,-0.667 0.333,-1.133 0.333,-1.4c-0,-0.333 -0.133,-0.533 -0.333,-0.667Z" style="fill-rule:nonzero;"/>
    <path d="M236.867,264.233c-0,-1 -0.4,-4.8 -0.667,-6.4c-0.133,-0.8 -0.133,-4 -0.133,-7.333l-0,-9.133c-0,-4.2 0.266,-12.4 0.533,-16.067l-0,-0.667c-0,-2.466 -1.2,-2.6 -2.533,-2.8l-0.334,0c-0.933,0 -2,0.267 -2,0.6c0,0.534 0.134,3.534 0.267,5.067c0.067,0.8 0.067,4 0.067,7.467l-0,8.8c0.066,1 0.066,2.666 0.066,4.533c0,4.733 -0.066,11.133 -0.266,14.133c-0.067,0.334 -0.067,0.6 -0.067,0.867c-0,1.4 0.4,1.933 0.8,2.133c0.267,0.267 0.8,0.334 1.2,0.334c0.4,-0 0.8,-0.067 1.133,-0.067c1.734,-0.133 1.934,-0.733 1.934,-1.467Z" style="fill-rule:nonzero;"/>
    <path d="M262.4,265.033c0.533,-0.333 1,-0.733 1.333,-1.066c0.334,-0.4 0.667,-0.734 1,-0.934c0.4,-0.4 0.867,-0.6 1.334,-0.6c0.666,0 1.266,0.534 1.266,1.334c0,0.2 0,0.4 -0.066,0.6c-0,0.066 -0.067,0.133 -0.067,0.2c-0,0.6 0.667,0.666 2.533,0.8l0.334,-0c1,-0 1.2,-0.267 1.333,-0.534l-0,-13.133c-0,-2.2 -0.067,-4.533 -0.067,-6.667c0,-1.066 0,-2.066 0.067,-3l-0,-0.333c-0,-1.733 -0.867,-1.8 -2,-1.8l-0.667,0c-0.8,0 -1.2,0.067 -1.2,0.533c0,0.334 0.067,0.6 0.067,0.8c-0,1.067 -0.4,2 -1.2,2.267c-0.133,0.067 -0.2,0.067 -0.333,0.067c-0.467,-0 -1.067,-0.334 -1.667,-0.867c-0.6,-0.533 -1.067,-1.133 -1.6,-1.667c-0.733,-0.933 -3.467,-1.733 -6,-1.733c-3.733,0 -8,2.4 -10.067,5.267c-1.466,2.133 -2,5.466 -2.266,8.2l-0,0.533c-0,2.6 1.533,6.8 3.2,8.867c1.733,2.2 4.666,4.2 9.6,4.2c2.4,-0 4,-0.6 5.133,-1.334Zm5.133,-12.266c-0.2,2.8 -1.133,6.133 -3.466,7.866c-1.8,1.4 -3.2,1.734 -5.267,1.734c-0.4,-0 -0.8,-0.067 -1.333,-0.067c-3,-0.2 -5.534,-1.533 -6.6,-3.267c-0.867,-1.6 -1.467,-3.666 -1.467,-6l-0,-0.6c0.133,-2.4 1.133,-6.466 2.4,-7.4c0.933,-0.733 3.8,-1.933 6.2,-1.933c0.4,0 0.8,0 1.2,0.067l1.533,0.333c0.267,0 0.267,0.067 0.334,0.067c0.4,0.133 1,0.2 1.4,0.4c1.2,0.4 2.333,1.133 3.2,2.6l1,1.733c0.066,0.467 0.466,0.933 0.666,1.333c0.2,0.534 0.334,1.134 0.334,1.8c-0,0.4 -0.067,0.867 -0.134,1.334Z" style="fill-rule:nonzero;"/>
    <path d="M296.267,257.567c-0,-2.134 -1.467,-3.734 -2.8,-5.067c-1.067,-1.067 -5.134,-3.267 -6.534,-3.933c-1.533,-0.667 -3,-1.8 -3,-3.467c0,-1.667 1.334,-2.333 3,-2.333l0.6,-0c2.134,0.066 3.267,0.8 4.867,2.133c0.533,0.467 0.8,0.533 0.933,0.533c0.2,0 0.334,-0.133 0.467,-0.266l0.467,-0.534c0.133,-0.2 0.333,-0.4 0.4,-0.6c0.2,-0.266 0.266,-0.533 0.266,-0.733c0,-0.267 -0.066,-0.533 -0.333,-0.867c-0.933,-1 -3.667,-2.866 -7.667,-3l-0.466,0c-1.134,0 -1.734,0.134 -2.2,0.334c-0.534,0.266 -0.934,0.666 -1.334,1.066c-0.933,0.734 -2.066,2.067 -2.2,3.6c0,0.267 -0.066,0.534 -0.066,0.734c-0,1.533 0.333,2.8 1.266,4c1.067,1.466 3.467,2.933 6,4c2.667,1.066 5.2,3.133 5.2,5.333c0,2.267 -1.866,3.6 -4.8,3.8c-0.2,0 -0.4,0.067 -0.533,0.067c-2.867,-0 -4.867,-2.4 -5.333,-3.334c-0.134,-0.466 -0.667,-0.733 -1.067,-0.733c-0.267,0 -0.667,0.133 -1.133,0.2c-1,0.267 -1.334,1.067 -1.334,1.867c0,0.266 0,0.6 0.2,0.866c0.467,0.867 2.2,2.2 3.8,3.2c1.467,0.8 4.067,1.334 5.867,1.334c1.6,-0 3.533,-1.2 5.267,-2.334c1.466,-1 2.133,-3.666 2.2,-5.866Z" style="fill-rule:nonzero;"/>
    <path d="M315.467,241.433c-0,-0.533 -0.267,-0.733 -0.8,-0.933c-0.334,-0.067 -0.734,-0.067 -1.134,-0.067c-0.466,0 -0.866,-0.066 -1.333,-0.066l-1.133,-0.134c-0.334,0 -0.6,-0.066 -0.867,-0.133c-0.6,-0.2 -1,-0.667 -1,-1.333c-0,-0.934 -0,-2.534 0.133,-5.134l0,-0.266c0,-1 -0.2,-1.334 -0.4,-1.467c-0.333,-0.267 -1,-0.267 -1.4,-0.267l-0.2,0c-1,0 -1.6,0.8 -1.666,1.2c-0,0.067 -0.067,0.2 -0.067,0.267c-0,0.333 0.067,0.867 0.133,1.533c0.134,0.867 0.267,2 0.267,3.134l-0,0.333c-0,1.2 -0.533,1.867 -1.4,2.067c-0.267,0.066 -0.533,0.066 -0.8,0.066c-0.467,0 -1.067,-0.066 -1.533,-0.066c-0.934,-0 -1.467,0.6 -1.667,2.6c-0,0.066 -0.067,0.133 -0.067,0.2c0,0.4 0.267,0.533 0.8,0.666c0.334,0.067 0.667,0.067 1,0.067c0.334,0 0.667,-0.067 0.934,-0.067c1.066,0 2.466,0.8 2.466,2.267c0,1.067 0.2,3.4 0.2,6.4c0,3 -0.4,8.733 -0.4,11.333c0,1.267 0.2,1.6 0.4,1.734l0.534,0.133l1.2,0c1.666,0 2.2,-0.2 2.2,-1.067l-0,-0.466c-0.2,-1.867 -0.534,-6.667 -0.6,-9.467c-0.067,-0.933 -0.134,-2.067 -0.134,-3.2c0,-2.2 0.134,-4.467 0.2,-5.933c0.067,-1.467 0.934,-2.067 2,-2.134l0.2,0c0.8,0 1.534,0.2 2.334,0.267l0.266,0c0.867,0 1.334,-0.467 1.334,-2.067Z" style="fill-rule:nonzero;"/>
    <path d="M354.6,265.033c0.533,-0.333 1,-0.733 1.333,-1.066c0.334,-0.4 0.667,-0.734 1,-0.934c0.4,-0.4 0.867,-0.6 1.334,-0.6c0.666,0 1.266,0.534 1.266,1.334c0,0.2 0,0.4 -0.066,0.6c-0,0.066 -0.067,0.133 -0.067,0.2c-0,0.6 0.667,0.666 2.533,0.8l0.334,-0c1,-0 1.2,-0.267 1.333,-0.534l-0,-13.133c-0,-2.2 -0.067,-4.533 -0.067,-6.667c0,-1.066 0,-2.066 0.067,-3l-0,-0.333c-0,-1.733 -0.867,-1.8 -2,-1.8l-0.667,0c-0.8,0 -1.2,0.067 -1.2,0.533c0,0.334 0.067,0.6 0.067,0.8c-0,1.067 -0.4,2 -1.2,2.267c-0.133,0.067 -0.2,0.067 -0.333,0.067c-0.467,-0 -1.067,-0.334 -1.667,-0.867c-0.6,-0.533 -1.067,-1.133 -1.6,-1.667c-0.733,-0.933 -3.467,-1.733 -6,-1.733c-3.733,0 -8,2.4 -10.067,5.267c-1.466,2.133 -2,5.466 -2.266,8.2l-0,0.533c-0,2.6 1.533,6.8 3.2,8.867c1.733,2.2 4.666,4.2 9.6,4.2c2.4,-0 4,-0.6 5.133,-1.334Zm5.133,-12.266c-0.2,2.8 -1.133,6.133 -3.466,7.866c-1.8,1.4 -3.2,1.734 -5.267,1.734c-0.4,-0 -0.8,-0.067 -1.333,-0.067c-3,-0.2 -5.534,-1.533 -6.6,-3.267c-0.867,-1.6 -1.467,-3.666 -1.467,-6l-0,-0.6c0.133,-2.4 1.133,-6.466 2.4,-7.4c0.933,-0.733 3.8,-1.933 6.2,-1.933c0.4,0 0.8,0 1.2,0.067l1.533,0.333c0.267,0 0.267,0.067 0.334,0.067c0.4,0.133 1,0.2 1.4,0.4c1.2,0.4 2.333,1.133 3.2,2.6l1,1.733c0.066,0.467 0.466,0.933 0.666,1.333c0.2,0.534 0.334,1.134 0.334,1.8c-0,0.4 -0.067,0.867 -0.134,1.334Z" style="fill-rule:nonzero;"/>
    <path d="M410.8,241.567c0.133,-0.334 0.267,-0.6 0.267,-0.8c-0,-0.4 -0.334,-0.6 -0.8,-0.667c-0.334,-0.067 -0.734,-0.067 -1.134,-0.067c-0.666,0 -1.4,0.067 -2,0.134c-0.6,0.066 -0.933,0.466 -1.266,1.066c-0.334,0.667 -0.467,1.4 -0.734,2c-0.266,0.534 -0.466,1.467 -0.733,2.6c-0.267,1.134 -0.533,2.4 -0.867,3.467c-0.133,0.533 -0.4,1.067 -0.666,1.533c-0.667,1.467 -1.534,2.8 -1.6,4.467c-0.134,1.067 -0.6,1.8 -1.334,1.8c-0.133,0 -0.4,-0.067 -0.6,-0.2c-0.733,-0.333 -1.4,-1.133 -1.666,-2.067c-0.334,-1.4 -1.6,-4.333 -2.534,-6.4c-1,-2.066 -2,-4.6 -2.666,-6.4l-0.467,-1.266c-0.133,-0.4 -0.267,-0.734 -0.467,-1c-0.333,-0.6 -0.666,-0.867 -1.066,-0.934c-1.067,0.134 -1.534,2.267 -1.734,3c-0.4,1.334 -1.066,3.6 -1.866,5.534c-0.4,1 -0.934,1.933 -1.4,2.866c-0.467,0.934 -0.867,1.934 -1,3c-0.4,2.267 -1.067,3.8 -2.134,4c-0.133,0 -0.2,0.067 -0.2,0.067c-0.8,0 -1.466,-0.8 -1.8,-2.533c-0.133,-0.6 -0.4,-1.134 -0.8,-1.867c-0.4,-0.733 -0.8,-1.467 -1.2,-2.4c-0.466,-0.933 -0.733,-2.133 -1,-3.467l-0.866,-4.2c-0.6,-2.6 -1.334,-3.066 -3.867,-3.333l-0.467,0c-1.133,0 -1.4,0.6 -1.4,1.067c0,0.133 0.067,0.2 0.067,0.266c0.067,0.8 1.333,3.467 2.133,4.934c0.8,1.4 2.334,5.2 4,8.666c1.734,3.6 2.934,6.867 3.734,9.067c0.666,1.933 1,3.6 1.8,3.6c0.666,0 1.066,-1.2 1.6,-2.667l0.266,-0.933c0.667,-1.933 1.467,-4.333 2.134,-6c0.4,-0.933 1,-2 1.466,-3.067c0.467,-1.066 0.867,-2.266 1.2,-3.333c0.2,-1 0.667,-1.6 1.334,-1.6c0.266,0 0.533,0.067 0.8,0.267c0.733,0.4 1.4,1.333 1.866,2.2c0.934,1.8 2.667,6.2 3.334,8.333c0.6,2.067 1.733,4.933 3.066,6.467c0.2,0.133 0.267,0.266 0.4,0.266c0.134,0 0.2,-0.133 0.4,-0.4c0.4,-0.533 0.534,-1.2 0.734,-1.8c0.266,-0.733 0.933,-3.266 1.4,-4.733c0.6,-1.4 2.133,-4.267 3,-7.067c1,-2.933 3.666,-8.6 5.333,-11.466Z" style="fill-rule:nonzero;"/>
    <path d="M433.4,265.033c0.533,-0.333 1,-0.733 1.333,-1.066c0.334,-0.4 0.667,-0.734 1,-0.934c0.4,-0.4 0.867,-0.6 1.334,-0.6c0.666,0 1.266,0.534 1.266,1.334c0,0.2 0,0.4 -0.066,0.6c-0,0.066 -0.067,0.133 -0.067,0.2c-0,0.6 0.667,0.666 2.533,0.8l0.334,-0c1,-0 1.2,-0.267 1.333,-0.534l-0,-13.133c-0,-2.2 -0.067,-4.533 -0.067,-6.667c0,-1.066 0,-2.066 0.067,-3l-0,-0.333c-0,-1.733 -0.867,-1.8 -2,-1.8l-0.667,0c-0.8,0 -1.2,0.067 -1.2,0.533c0,0.334 0.067,0.6 0.067,0.8c-0,1.067 -0.4,2 -1.2,2.267c-0.133,0.067 -0.2,0.067 -0.333,0.067c-0.467,-0 -1.067,-0.334 -1.667,-0.867c-0.6,-0.533 -1.067,-1.133 -1.6,-1.667c-0.733,-0.933 -3.467,-1.733 -6,-1.733c-3.733,0 -8,2.4 -10.067,5.267c-1.466,2.133 -2,5.466 -2.266,8.2l-0,0.533c-0,2.6 1.533,6.8 3.2,8.867c1.733,2.2 4.666,4.2 9.6,4.2c2.4,-0 4,-0.6 5.133,-1.334Zm5.133,-12.266c-0.2,2.8 -1.133,6.133 -3.466,7.866c-1.8,1.4 -3.2,1.734 -5.267,1.734c-0.4,-0 -0.8,-0.067 -1.333,-0.067c-3,-0.2 -5.534,-1.533 -6.6,-3.267c-0.867,-1.6 -1.467,-3.666 -1.467,-6l-0,-0.6c0.133,-2.4 1.133,-6.466 2.4,-7.4c0.933,-0.733 3.8,-1.933 6.2,-1.933c0.4,0 0.8,0 1.2,0.067l1.533,0.333c0.267,0 0.267,0.067 0.334,0.067c0.4,0.133 1,0.2 1.4,0.4c1.2,0.4 2.333,1.133 3.2,2.6l1,1.733c0.066,0.467 0.466,0.933 0.666,1.333c0.2,0.534 0.334,1.134 0.334,1.8c-0,0.4 -0.067,0.867 -0.134,1.334Z" style="fill-rule:nonzero;"/>
    <path d="M468.067,239.833c-0.467,-0.2 -2.067,-0.733 -3.867,-0.733c-1.8,0 -4.267,1.6 -5.133,3.267c-0.2,0.4 -0.467,0.8 -0.8,1c-0.2,0.066 -0.334,0.066 -0.4,0.066c-0.334,0 -0.6,-0.2 -0.734,-0.4c-0.2,-0.4 -0.266,-0.933 -0.266,-1.466l-0,-0.467c-0,-1.133 -1.2,-1.6 -2.067,-1.6c-1.667,0 -1.867,0.533 -1.933,0.867c-0,0.066 -0.067,0.133 -0.067,0.266c-0,0.2 0.067,0.534 0.133,0.867c0.067,0.467 0.134,1 0.2,1.467c0.134,2.2 0.134,7.133 0.134,10.066c-0,2.867 -0.134,5.867 -0.6,9.734c-0.067,0.666 -0.067,1.2 -0.067,1.533c-0,0.4 0.067,0.6 0.333,0.733c0.134,0.067 0.4,0.067 1,0.067c0.534,-0.067 1.2,-0.133 2,-0.133c1.667,-0 2.067,-1.134 2.067,-2.4c-0,-0.934 -0.267,-2 -0.4,-2.8c-0.267,-1.334 -0.333,-3.8 -0.333,-6.267c-0,-1.333 -0,-2.6 0.066,-3.733c0.2,-3.6 2.6,-5.6 4.867,-6.134c0.867,-0.2 1.467,-0.266 2.067,-0.266c0.8,-0 1.333,0.133 2.2,0.466c0.133,0 0.333,0.2 0.466,0.2c0.2,0 0.267,-0.066 0.334,-0.266c0.133,-0.067 0.266,-0.334 0.333,-0.667c0.2,-0.333 0.333,-0.733 0.467,-1.2c0.2,-0.667 0.333,-1.133 0.333,-1.4c-0,-0.333 -0.133,-0.533 -0.333,-0.667Z" style="fill-rule:nonzero;"/>
    <path d="M498.733,252.033c0,-0.066 0.067,-0.133 0.067,-0.266c-0,-0.067 -0.067,-0.267 -0.067,-0.467l-0.266,-1.4c-0.467,-2.133 -2.8,-5.667 -4.534,-7.733c-1.733,-1.867 -5.066,-3 -7.866,-3.134l-0.734,0c-2.866,0 -5.133,1.4 -7.466,2.934l-0.534,0.333c-2.533,1.533 -4.333,6.6 -4.466,10.6l-0,0.2c-0,3.8 2.866,8 5.133,10.533c2.2,2.334 6.733,2.4 9,2.4c2.133,0 3.867,-0.533 5,-1.133c0.467,-0.267 1.133,-0.8 1.933,-1.467c0.734,-0.666 1.534,-1.333 2.4,-2c0.667,-0.466 1,-1 1,-1.533c0,-0.6 -0.333,-1.2 -1.333,-2c-0.333,-0.267 -0.667,-0.4 -0.867,-0.4c-0.333,0 -0.533,0.2 -0.8,0.4c-0.466,0.533 -0.8,1.2 -1.066,1.867c-0.534,1.2 -3.2,2.533 -6.534,2.533l-0.533,0c-2.2,-0.067 -4.067,-0.733 -5.733,-2.067l-1,-0.8c-1.067,-0.933 -2.134,-3.6 -2.134,-5.266l0,-0.467c0.2,-0.8 1.8,-1.267 3.8,-1.333c1.667,-0 3.534,0.066 4.534,0.066c1.4,0 5.266,0.067 8.266,0.067c1.534,0 2.867,0 3.6,-0.067c1.134,0 1.2,-0.266 1.2,-0.4Zm-4.733,-4.4c0.2,0.334 0.267,0.6 0.267,0.867c-0,0.733 -0.6,1.2 -1.8,1.2c-2.6,0 -5.467,0.067 -6.6,0.067c-1.2,-0 -4.734,-0.067 -5.467,-0.267c-0.733,-0.067 -2.333,-0.933 -2.333,-2.133c-0,-0.4 0.133,-0.8 0.466,-1.2c1.067,-1.467 4,-3.467 7.467,-3.467l0.267,0c3.133,0.133 4.2,1.067 5.733,2.533c0.667,0.667 1.6,1.534 2,2.4Z" style="fill-rule:nonzero;"/>
    <path d="M528.733,261.833c-0.2,-1.733 -0.4,-7.2 -0.4,-11.066c0,-0.8 0.067,-1.6 0.067,-2.2l-0,-0.267c-0,-3.067 -1.6,-5.733 -2.533,-6.867c-0.934,-1.2 -2.934,-2.333 -5.534,-2.4l-0.466,0c-2.2,0 -3.534,0.8 -5.8,2.934c-0.934,0.866 -1.667,1.133 -2.134,1.2c-0.4,-0 -0.6,-0.2 -0.733,-0.4c-0.133,-0.334 -0.2,-0.734 -0.2,-1.134c-0,-0.4 -0,-0.733 0.067,-1.066c-0,-1.134 -1.067,-1.334 -1.867,-1.334c-0.733,0 -2,0.067 -2.267,0.667c-0.066,0.2 -0.133,0.467 -0.133,0.8c0.067,0.4 0.133,0.733 0.133,1.2c0.134,1.867 0.934,6.067 0.934,8.8c-0,2.733 -0.134,6.067 -0.667,10.467c-0.133,0.8 -0.133,1.4 -0.133,1.933c-0,1.933 0.666,2.333 2.2,2.333c0.2,0 0.466,-0.066 0.8,-0.066c1.333,-0.067 1.6,-0.467 1.666,-0.667l0,-0.467c0,-0.466 -0.066,-1 -0.133,-1.333c-0.267,-1.467 -0.533,-6.8 -0.533,-9.133c-0,-2.2 0.333,-5.867 1.733,-7.8c1.467,-2 3.667,-3.134 5.667,-3.134l0.933,0c0.4,0 0.867,0 1.267,0.134c0.733,0.133 1.4,0.533 2.333,1.266c1.133,0.867 1.6,2 1.8,3.4c0.133,0.8 0.133,1.734 0.133,2.734l0,2.133c0,3.8 -0.533,5.933 -0.8,9.667c0,0.266 -0.066,0.6 -0.066,0.8c-0,2.466 1.133,2.533 3.133,2.533c1.4,0 1.733,-0.733 1.733,-1.8c0,-0.6 -0.133,-1.267 -0.2,-1.867Z" style="fill-rule:nonzero;"/>
    <path d="M562.733,252.033c0,-0.066 0.067,-0.133 0.067,-0.266c-0,-0.067 -0.067,-0.267 -0.067,-0.467l-0.266,-1.4c-0.467,-2.133 -2.8,-5.667 -4.534,-7.733c-1.733,-1.867 -5.066,-3 -7.866,-3.134l-0.734,0c-2.866,0 -5.133,1.4 -7.466,2.934l-0.534,0.333c-2.533,1.533 -4.333,6.6 -4.466,10.6l-0,0.2c-0,3.8 2.866,8 5.133,10.533c2.2,2.334 6.733,2.4 9,2.4c2.133,0 3.867,-0.533 5,-1.133c0.467,-0.267 1.133,-0.8 1.933,-1.467c0.734,-0.666 1.534,-1.333 2.4,-2c0.667,-0.466 1,-1 1,-1.533c0,-0.6 -0.333,-1.2 -1.333,-2c-0.333,-0.267 -0.667,-0.4 -0.867,-0.4c-0.333,0 -0.533,0.2 -0.8,0.4c-0.466,0.533 -0.8,1.2 -1.066,1.867c-0.534,1.2 -3.2,2.533 -6.534,2.533l-0.533,0c-2.2,-0.067 -4.067,-0.733 -5.733,-2.067l-1,-0.8c-1.067,-0.933 -2.134,-3.6 -2.134,-5.266l0,-0.467c0.2,-0.8 1.8,-1.267 3.8,-1.333c1.667,-0 3.534,0.066 4.534,0.066c1.4,0 5.266,0.067 8.266,0.067c1.534,0 2.867,0 3.6,-0.067c1.134,0 1.2,-0.266 1.2,-0.4Zm-4.733,-4.4c0.2,0.334 0.267,0.6 0.267,0.867c-0,0.733 -0.6,1.2 -1.8,1.2c-2.6,0 -5.467,0.067 -6.6,0.067c-1.2,-0 -4.734,-0.067 -5.467,-0.267c-0.733,-0.067 -2.333,-0.933 -2.333,-2.133c-0,-0.4 0.133,-0.8 0.466,-1.2c1.067,-1.467 4,-3.467 7.467,-3.467l0.267,0c3.133,0.133 4.2,1.067 5.733,2.533c0.667,0.667 1.6,1.534 2,2.4Z" style="fill-rule:nonzero;"/>
    <path d="M585.067,257.567c-0,-2.134 -1.467,-3.734 -2.8,-5.067c-1.067,-1.067 -5.134,-3.267 -6.534,-3.933c-1.533,-0.667 -3,-1.8 -3,-3.467c0,-1.667 1.334,-2.333 3,-2.333l0.6,-0c2.134,0.066 3.267,0.8 4.867,2.133c0.533,0.467 0.8,0.533 0.933,0.533c0.2,0 0.334,-0.133 0.467,-0.266l0.467,-0.534c0.133,-0.2 0.333,-0.4 0.4,-0.6c0.2,-0.266 0.266,-0.533 0.266,-0.733c0,-0.267 -0.066,-0.533 -0.333,-0.867c-0.933,-1 -3.667,-2.866 -7.667,-3l-0.466,0c-1.134,0 -1.734,0.134 -2.2,0.334c-0.534,0.266 -0.934,0.666 -1.334,1.066c-0.933,0.734 -2.066,2.067 -2.2,3.6c0,0.267 -0.066,0.534 -0.066,0.734c-0,1.533 0.333,2.8 1.266,4c1.067,1.466 3.467,2.933 6,4c2.667,1.066 5.2,3.133 5.2,5.333c0,2.267 -1.866,3.6 -4.8,3.8c-0.2,0 -0.4,0.067 -0.533,0.067c-2.867,-0 -4.867,-2.4 -5.333,-3.334c-0.134,-0.466 -0.667,-0.733 -1.067,-0.733c-0.267,0 -0.667,0.133 -1.133,0.2c-1,0.267 -1.334,1.067 -1.334,1.867c0,0.266 0,0.6 0.2,0.866c0.467,0.867 2.2,2.2 3.8,3.2c1.467,0.8 4.067,1.334 5.867,1.334c1.6,-0 3.533,-1.2 5.267,-2.334c1.466,-1 2.133,-3.666 2.2,-5.866Z" style="fill-rule:nonzero;"/>
    <path d="M607.133,257.567c0,-2.134 -1.466,-3.734 -2.8,-5.067c-1.066,-1.067 -5.133,-3.267 -6.533,-3.933c-1.533,-0.667 -3,-1.8 -3,-3.467c-0,-1.667 1.333,-2.333 3,-2.333l0.6,-0c2.133,0.066 3.267,0.8 4.867,2.133c0.533,0.467 0.8,0.533 0.933,0.533c0.2,0 0.333,-0.133 0.467,-0.266l0.466,-0.534c0.134,-0.2 0.334,-0.4 0.4,-0.6c0.2,-0.266 0.267,-0.533 0.267,-0.733c-0,-0.267 -0.067,-0.533 -0.333,-0.867c-0.934,-1 -3.667,-2.866 -7.667,-3l-0.467,0c-1.133,0 -1.733,0.134 -2.2,0.334c-0.533,0.266 -0.933,0.666 -1.333,1.066c-0.933,0.734 -2.067,2.067 -2.2,3.6c-0,0.267 -0.067,0.534 -0.067,0.734c0,1.533 0.334,2.8 1.267,4c1.067,1.466 3.467,2.933 6,4c2.667,1.066 5.2,3.133 5.2,5.333c-0,2.267 -1.867,3.6 -4.8,3.8c-0.2,0 -0.4,0.067 -0.533,0.067c-2.867,-0 -4.867,-2.4 -5.334,-3.334c-0.133,-0.466 -0.666,-0.733 -1.066,-0.733c-0.267,0 -0.667,0.133 -1.134,0.2c-1,0.267 -1.333,1.067 -1.333,1.867c-0,0.266 -0,0.6 0.2,0.866c0.467,0.867 2.2,2.2 3.8,3.2c1.467,0.8 4.067,1.334 5.867,1.334c1.6,-0 3.533,-1.2 5.266,-2.334c1.467,-1 2.134,-3.666 2.2,-5.866Z" style="fill-rule:nonzero;"/>
    <path d="M637.2,230.9c-0.067,-1.8 -1.667,-3.467 -3.333,-3.667l-0.467,0c-1.733,0 -2.933,1.067 -3.067,2.6c0.067,2.067 1.867,3.734 3.8,3.734c2,-0 2.8,-1.134 3.067,-2.667Zm-0.8,32.067c-0.2,-1.534 -0.8,-7.334 -0.8,-10.2c-0,-1.334 -0.067,-2.667 -0.067,-4.067c0,-1.8 0.067,-3.667 0.267,-5.933c-0,-0.4 0.067,-0.734 0.067,-1.067c-0,-2.133 -0.667,-2.267 -1.734,-2.267c-1.733,0 -2.133,0.4 -2.133,1.6c-0,0.2 0.067,0.4 0.067,0.734c0.133,2 0.266,7.6 0.266,10.466c0,2.867 -0.533,7.934 -0.533,10.4c-0,2.334 0.133,2.734 2.133,2.734c1.867,-0 2.534,-0.867 2.534,-1.934c-0,-0.133 -0.067,-0.333 -0.067,-0.466Z" style="fill-rule:nonzero;"/>
    <path d="M662.2,257.567c-0,-2.134 -1.467,-3.734 -2.8,-5.067c-1.067,-1.067 -5.133,-3.267 -6.533,-3.933c-1.534,-0.667 -3,-1.8 -3,-3.467c-0,-1.667 1.333,-2.333 3,-2.333l0.6,-0c2.133,0.066 3.266,0.8 4.866,2.133c0.534,0.467 0.8,0.533 0.934,0.533c0.2,0 0.333,-0.133 0.466,-0.266l0.467,-0.534c0.133,-0.2 0.333,-0.4 0.4,-0.6c0.2,-0.266 0.267,-0.533 0.267,-0.733c-0,-0.267 -0.067,-0.533 -0.334,-0.867c-0.933,-1 -3.666,-2.866 -7.666,-3l-0.467,0c-1.133,0 -1.733,0.134 -2.2,0.334c-0.533,0.266 -0.933,0.666 -1.333,1.066c-0.934,0.734 -2.067,2.067 -2.2,3.6c-0,0.267 -0.067,0.534 -0.067,0.734c-0,1.533 0.333,2.8 1.267,4c1.066,1.466 3.466,2.933 6,4c2.666,1.066 5.2,3.133 5.2,5.333c-0,2.267 -1.867,3.6 -4.8,3.8c-0.2,0 -0.4,0.067 -0.534,0.067c-2.866,-0 -4.866,-2.4 -5.333,-3.334c-0.133,-0.466 -0.667,-0.733 -1.067,-0.733c-0.266,0 -0.666,0.133 -1.133,0.2c-1,0.267 -1.333,1.067 -1.333,1.867c-0,0.266 -0,0.6 0.2,0.866c0.466,0.867 2.2,2.2 3.8,3.2c1.466,0.8 4.066,1.334 5.866,1.334c1.6,-0 3.534,-1.2 5.267,-2.334c1.467,-1 2.133,-3.666 2.2,-5.866Z" style="fill-rule:nonzero;"/>
    <path d="M698.067,241.433c-0,-0.533 -0.267,-0.733 -0.8,-0.933c-0.334,-0.067 -0.734,-0.067 -1.134,-0.067c-0.466,0 -0.866,-0.066 -1.333,-0.066l-1.133,-0.134c-0.334,0 -0.6,-0.066 -0.867,-0.133c-0.6,-0.2 -1,-0.667 -1,-1.333c-0,-0.934 -0,-2.534 0.133,-5.134l0,-0.266c0,-1 -0.2,-1.334 -0.4,-1.467c-0.333,-0.267 -1,-0.267 -1.4,-0.267l-0.2,0c-1,0 -1.6,0.8 -1.666,1.2c-0,0.067 -0.067,0.2 -0.067,0.267c-0,0.333 0.067,0.867 0.133,1.533c0.134,0.867 0.267,2 0.267,3.134l-0,0.333c-0,1.2 -0.533,1.867 -1.4,2.067c-0.267,0.066 -0.533,0.066 -0.8,0.066c-0.467,0 -1.067,-0.066 -1.533,-0.066c-0.934,-0 -1.467,0.6 -1.667,2.6c-0,0.066 -0.067,0.133 -0.067,0.2c0,0.4 0.267,0.533 0.8,0.666c0.334,0.067 0.667,0.067 1,0.067c0.334,0 0.667,-0.067 0.934,-0.067c1.066,0 2.466,0.8 2.466,2.267c0,1.067 0.2,3.4 0.2,6.4c0,3 -0.4,8.733 -0.4,11.333c0,1.267 0.2,1.6 0.4,1.734l0.534,0.133l1.2,0c1.666,0 2.2,-0.2 2.2,-1.067l-0,-0.466c-0.2,-1.867 -0.534,-6.667 -0.6,-9.467c-0.067,-0.933 -0.134,-2.067 -0.134,-3.2c0,-2.2 0.134,-4.467 0.2,-5.933c0.067,-1.467 0.934,-2.067 2,-2.134l0.2,0c0.8,0 1.534,0.2 2.334,0.267l0.266,0c0.867,0 1.334,-0.467 1.334,-2.067Z" style="fill-rule:nonzero;"/>
    <path d="M728.4,263.433l-0,-0.4c-0,-0.533 -0.067,-1 -0.133,-1.533c-0.134,-1.133 -0.2,-4.333 -0.2,-7.133c-0,-1.8 -0,-3.534 0.066,-4.534l0,-0.466c0,-2.467 -0.733,-5.534 -1.866,-7.267c-1.134,-1.733 -4.467,-2.867 -6.2,-3c-0.334,0 -0.734,-0.067 -1.134,-0.067c-1.533,0 -3.266,0.334 -5.133,1.734c-0.933,0.733 -1.6,1 -2.067,1c-0.4,-0 -0.6,-0.134 -0.8,-0.334c-0.4,-0.4 -0.4,-1.133 -0.466,-1.666c-0.2,-0.6 -0.267,-1.267 -0.267,-2.067c-0,-0.867 0.067,-1.8 0.2,-3c0.267,-2.333 0.533,-6.267 0.667,-10.133l-0,-0.4c-0,-1.667 -0.334,-2.134 -0.6,-2.4c-0.2,-0.2 -0.4,-0.267 -0.8,-0.334l-1.6,0c-1.534,0 -2,0.667 -2,1.867c-0,1.733 -0,4.933 0.2,8.933c0.266,4.067 0.466,13.467 0.466,16.067c0,2.6 -0.2,11.4 -0.4,14.133c-0.066,0.534 -0.133,1 -0.133,1.334c-0,1.133 0.467,1.4 2.333,1.6l0.4,-0c1.534,-0 1.8,-0.734 1.8,-1.6c0,-0.267 -0.066,-0.534 -0.066,-0.8c-0.067,-0.8 -0.134,-3.334 -0.134,-6.067c0,-2.733 0.067,-5.667 0.134,-7.133c0.2,-3.334 1.866,-4.734 3.066,-5.667c1.334,-1 3.8,-1.6 4.934,-1.6c0.2,0 0.533,0 0.866,0.067c1.334,0.066 2.334,0.6 3.334,1.733c1.333,1.6 1.4,3.8 1.4,5.867l-0,0.866c-0,2 -0.467,8.667 -0.734,11c-0.066,0.4 -0.066,0.8 -0.066,1.134c-0,1.333 0.466,2 2.733,2.2l0.4,-0c1.133,-0 1.533,-0.467 1.667,-1c0.066,-0.267 0.133,-0.6 0.133,-0.934Z" style="fill-rule:nonzero;"/>
    <path d="M763.067,252.033c-0,-0.066 0.066,-0.133 0.066,-0.266c0,-0.067 -0.066,-0.267 -0.066,-0.467l-0.267,-1.4c-0.467,-2.133 -2.8,-5.667 -4.533,-7.733c-1.734,-1.867 -5.067,-3 -7.867,-3.134l-0.733,0c-2.867,0 -5.134,1.4 -7.467,2.934l-0.533,0.333c-2.534,1.533 -4.334,6.6 -4.467,10.6l-0,0.2c-0,3.8 2.867,8 5.133,10.533c2.2,2.334 6.734,2.4 9,2.4c2.134,0 3.867,-0.533 5,-1.133c0.467,-0.267 1.134,-0.8 1.934,-1.467c0.733,-0.666 1.533,-1.333 2.4,-2c0.666,-0.466 1,-1 1,-1.533c-0,-0.6 -0.334,-1.2 -1.334,-2c-0.333,-0.267 -0.666,-0.4 -0.866,-0.4c-0.334,0 -0.534,0.2 -0.8,0.4c-0.467,0.533 -0.8,1.2 -1.067,1.867c-0.533,1.2 -3.2,2.533 -6.533,2.533l-0.534,0c-2.2,-0.067 -4.066,-0.733 -5.733,-2.067l-1,-0.8c-1.067,-0.933 -2.133,-3.6 -2.133,-5.266l-0,-0.467c0.2,-0.8 1.8,-1.267 3.8,-1.333c1.666,-0 3.533,0.066 4.533,0.066c1.4,0 5.267,0.067 8.267,0.067c1.533,0 2.866,0 3.6,-0.067c1.133,0 1.2,-0.266 1.2,-0.4Zm-4.734,-4.4c0.2,0.334 0.267,0.6 0.267,0.867c-0,0.733 -0.6,1.2 -1.8,1.2c-2.6,0 -5.467,0.067 -6.6,0.067c-1.2,-0 -4.733,-0.067 -5.467,-0.267c-0.733,-0.067 -2.333,-0.933 -2.333,-2.133c-0,-0.4 0.133,-0.8 0.467,-1.2c1.066,-1.467 4,-3.467 7.466,-3.467l0.267,0c3.133,0.133 4.2,1.067 5.733,2.533c0.667,0.667 1.6,1.534 2,2.4Z" style="fill-rule:nonzero;"/>
    <path d="M802.733,265.033c0.534,-0.333 1,-0.733 1.334,-1.066c0.333,-0.4 0.666,-0.734 1,-0.934c0.4,-0.4 0.866,-0.6 1.333,-0.6c0.667,0 1.267,0.534 1.267,1.334c-0,0.2 -0,0.4 -0.067,0.6c-0,0.066 -0.067,0.133 -0.067,0.2c0,0.6 0.667,0.666 2.534,0.8l0.333,-0c1,-0 1.2,-0.267 1.333,-0.534l0,-13.133c0,-2.2 -0.066,-4.533 -0.066,-6.667c-0,-1.066 -0,-2.066 0.066,-3l0,-0.333c0,-1.733 -0.866,-1.8 -2,-1.8l-0.666,0c-0.8,0 -1.2,0.067 -1.2,0.533c-0,0.334 0.066,0.6 0.066,0.8c0,1.067 -0.4,2 -1.2,2.267c-0.133,0.067 -0.2,0.067 -0.333,0.067c-0.467,-0 -1.067,-0.334 -1.667,-0.867c-0.6,-0.533 -1.066,-1.133 -1.6,-1.667c-0.733,-0.933 -3.466,-1.733 -6,-1.733c-3.733,0 -8,2.4 -10.066,5.267c-1.467,2.133 -2,5.466 -2.267,8.2l-0,0.533c-0,2.6 1.533,6.8 3.2,8.867c1.733,2.2 4.667,4.2 9.6,4.2c2.4,-0 4,-0.6 5.133,-1.334Zm5.134,-12.266c-0.2,2.8 -1.134,6.133 -3.467,7.866c-1.8,1.4 -3.2,1.734 -5.267,1.734c-0.4,-0 -0.8,-0.067 -1.333,-0.067c-3,-0.2 -5.533,-1.533 -6.6,-3.267c-0.867,-1.6 -1.467,-3.666 -1.467,-6l0,-0.6c0.134,-2.4 1.134,-6.466 2.4,-7.4c0.934,-0.733 3.8,-1.933 6.2,-1.933c0.4,0 0.8,0 1.2,0.067l1.534,0.333c0.266,0 0.266,0.067 0.333,0.067c0.4,0.133 1,0.2 1.4,0.4c1.2,0.4 2.333,1.133 3.2,2.6l1,1.733c0.067,0.467 0.467,0.933 0.667,1.333c0.2,0.534 0.333,1.134 0.333,1.8c-0,0.4 -0.067,0.867 -0.133,1.334Z" style="fill-rule:nonzero;"/>
    <path d="M833.733,241.433c0,-0.533 -0.266,-0.733 -0.8,-0.933c-0.333,-0.067 -0.733,-0.067 -1.133,-0.067c-0.467,0 -0.867,-0.066 -1.333,-0.066l-1.134,-0.134c-0.333,0 -0.6,-0.066 -0.866,-0.133c-0.6,-0.2 -1,-0.667 -1,-1.333c-0,-0.934 -0,-2.534 0.133,-5.134l-0,-0.266c-0,-1 -0.2,-1.334 -0.4,-1.467c-0.333,-0.267 -1,-0.267 -1.4,-0.267l-0.2,0c-1,0 -1.6,0.8 -1.667,1.2c0,0.067 -0.066,0.2 -0.066,0.267c-0,0.333 0.066,0.867 0.133,1.533c0.133,0.867 0.267,2 0.267,3.134l-0,0.333c-0,1.2 -0.534,1.867 -1.4,2.067c-0.267,0.066 -0.534,0.066 -0.8,0.066c-0.467,0 -1.067,-0.066 -1.534,-0.066c-0.933,-0 -1.466,0.6 -1.666,2.6c-0,0.066 -0.067,0.133 -0.067,0.2c-0,0.4 0.267,0.533 0.8,0.666c0.333,0.067 0.667,0.067 1,0.067c0.333,0 0.667,-0.067 0.933,-0.067c1.067,0 2.467,0.8 2.467,2.267c-0,1.067 0.2,3.4 0.2,6.4c-0,3 -0.4,8.733 -0.4,11.333c-0,1.267 0.2,1.6 0.4,1.734l0.533,0.133l1.2,0c1.667,0 2.2,-0.2 2.2,-1.067l0,-0.466c-0.2,-1.867 -0.533,-6.667 -0.6,-9.467c-0.066,-0.933 -0.133,-2.067 -0.133,-3.2c-0,-2.2 0.133,-4.467 0.2,-5.933c0.067,-1.467 0.933,-2.067 2,-2.134l0.2,0c0.8,0 1.533,0.2 2.333,0.267l0.267,0c0.867,0 1.333,-0.467 1.333,-2.067Z" style="fill-rule:nonzero;"/>
    <path d="M852.667,241.433c-0,-0.533 -0.267,-0.733 -0.8,-0.933c-0.334,-0.067 -0.734,-0.067 -1.134,-0.067c-0.466,0 -0.866,-0.066 -1.333,-0.066l-1.133,-0.134c-0.334,0 -0.6,-0.066 -0.867,-0.133c-0.6,-0.2 -1,-0.667 -1,-1.333c-0,-0.934 -0,-2.534 0.133,-5.134l0,-0.266c0,-1 -0.2,-1.334 -0.4,-1.467c-0.333,-0.267 -1,-0.267 -1.4,-0.267l-0.2,0c-1,0 -1.6,0.8 -1.666,1.2c-0,0.067 -0.067,0.2 -0.067,0.267c-0,0.333 0.067,0.867 0.133,1.533c0.134,0.867 0.267,2 0.267,3.134l-0,0.333c-0,1.2 -0.533,1.867 -1.4,2.067c-0.267,0.066 -0.533,0.066 -0.8,0.066c-0.467,0 -1.067,-0.066 -1.533,-0.066c-0.934,-0 -1.467,0.6 -1.667,2.6c-0,0.066 -0.067,0.133 -0.067,0.2c0,0.4 0.267,0.533 0.8,0.666c0.334,0.067 0.667,0.067 1,0.067c0.334,0 0.667,-0.067 0.934,-0.067c1.066,0 2.466,0.8 2.466,2.267c0,1.067 0.2,3.4 0.2,6.4c0,3 -0.4,8.733 -0.4,11.333c0,1.267 0.2,1.6 0.4,1.734l0.534,0.133l1.2,0c1.666,0 2.2,-0.2 2.2,-1.067l-0,-0.466c-0.2,-1.867 -0.534,-6.667 -0.6,-9.467c-0.067,-0.933 -0.134,-2.067 -0.134,-3.2c0,-2.2 0.134,-4.467 0.2,-5.933c0.067,-1.467 0.934,-2.067 2,-2.134l0.2,0c0.8,0 1.534,0.2 2.334,0.267l0.266,0c0.867,0 1.334,-0.467 1.334,-2.067Z" style="fill-rule:nonzero;"/>
    <path d="M875.133,265.033c0.534,-0.333 1,-0.733 1.334,-1.066c0.333,-0.4 0.666,-0.734 1,-0.934c0.4,-0.4 0.866,-0.6 1.333,-0.6c0.667,0 1.267,0.534 1.267,1.334c-0,0.2 -0,0.4 -0.067,0.6c-0,0.066 -0.067,0.133 -0.067,0.2c0,0.6 0.667,0.666 2.534,0.8l0.333,-0c1,-0 1.2,-0.267 1.333,-0.534l0,-13.133c0,-2.2 -0.066,-4.533 -0.066,-6.667c-0,-1.066 -0,-2.066 0.066,-3l0,-0.333c0,-1.733 -0.866,-1.8 -2,-1.8l-0.666,0c-0.8,0 -1.2,0.067 -1.2,0.533c-0,0.334 0.066,0.6 0.066,0.8c0,1.067 -0.4,2 -1.2,2.267c-0.133,0.067 -0.2,0.067 -0.333,0.067c-0.467,-0 -1.067,-0.334 -1.667,-0.867c-0.6,-0.533 -1.066,-1.133 -1.6,-1.667c-0.733,-0.933 -3.466,-1.733 -6,-1.733c-3.733,0 -8,2.4 -10.066,5.267c-1.467,2.133 -2,5.466 -2.267,8.2l-0,0.533c-0,2.6 1.533,6.8 3.2,8.867c1.733,2.2 4.667,4.2 9.6,4.2c2.4,-0 4,-0.6 5.133,-1.334Zm5.134,-12.266c-0.2,2.8 -1.134,6.133 -3.467,7.866c-1.8,1.4 -3.2,1.734 -5.267,1.734c-0.4,-0 -0.8,-0.067 -1.333,-0.067c-3,-0.2 -5.533,-1.533 -6.6,-3.267c-0.867,-1.6 -1.467,-3.666 -1.467,-6l0,-0.6c0.134,-2.4 1.134,-6.466 2.4,-7.4c0.934,-0.733 3.8,-1.933 6.2,-1.933c0.4,0 0.8,0 1.2,0.067l1.534,0.333c0.266,0 0.266,0.067 0.333,0.067c0.4,0.133 1,0.2 1.4,0.4c1.2,0.4 2.333,1.133 3.2,2.6l1,1.733c0.067,0.467 0.467,0.933 0.667,1.333c0.2,0.534 0.333,1.134 0.333,1.8c-0,0.4 -0.067,0.867 -0.133,1.334Z" style="fill-rule:nonzero;"/>
    <path d="M913.467,263.7c-0,-0.267 -0,-0.533 -0.067,-0.933l-0.133,-1.334c-0.067,-1 -0.267,-1.4 -0.6,-1.4c-0.067,0 -0.267,0.067 -0.467,0.2c-1.2,0.867 -3.2,1.867 -5.933,1.867l-0.867,0c-3.067,-0.333 -4,-0.733 -6.267,-2.333c-2.466,-1.734 -2.933,-4.867 -2.933,-7.334c-0,-2.666 0.8,-5.2 3.133,-7.066c2.4,-1.934 3.6,-2.134 6.267,-2.267l0.467,0c2.533,0 4.2,0.733 5.933,1.933c0.333,0.2 0.6,0.4 0.667,0.4c0.066,0 0.133,-0.066 0.2,-0.133c0.133,-0.2 0.133,-0.467 0.266,-0.867c0.067,-0.466 0.2,-1 0.2,-1.666c0.067,-0.267 0.067,-0.467 0.067,-0.667c-0,-0.667 -0.2,-1 -0.4,-1.2c-0.267,-0.2 -0.467,-0.4 -0.733,-0.533c-0.334,-0.2 -0.667,-0.334 -0.934,-0.6c-1.066,-0.667 -2.8,-0.734 -6.4,-0.934l-0.266,0c-3.6,0 -6.867,2.067 -9.267,4.2c-2.133,2 -3.333,7 -3.333,9.8l-0,0.4c0.133,2.8 1,6.267 3.933,9.2c2.867,2.867 6,3.667 8.867,3.867l0.533,0c1.2,0 2.2,-0.2 3.2,-0.4c1.133,-0.267 2.2,-0.733 3.4,-1.133c1.267,-0.467 1.4,-0.8 1.467,-1.067Z" style="fill-rule:nonzero;"/>
    <path d="M944.933,264.167c0,-0.734 -1.266,-1.334 -1.666,-1.667c-1.067,-0.8 -2.267,-1.667 -3.067,-2.267c-0.867,-0.666 -1.667,-1.6 -2.4,-2.466c-0.8,-0.934 -1.6,-1.8 -2.4,-2.467c-0.933,-0.733 -1.933,-1.467 -2.733,-2.2c-0.934,-0.867 -1.534,-1.667 -1.534,-2.333c0,-0.534 0.934,-1.667 2.067,-2.8c1.067,-1 2.333,-2 3,-2.6c1.467,-1.334 4.867,-3.934 6.2,-5.134c0.133,-0.133 0.2,-0.266 0.2,-0.333c-0,-0.133 -0.067,-0.133 -0.2,-0.267c-0.467,-0.266 -1.467,-0.533 -2.8,-0.533c-2.4,0 -3,0.867 -3.8,2c-0.533,0.667 -1.133,1.333 -1.933,2.133c-0.667,0.734 -1.534,1.534 -2.4,2.534l-2.134,2.2c-0.466,0.466 -1,0.733 -1.6,0.733c-0.2,0 -0.266,0 -0.466,-0.067l-0.734,-0.2c-0.266,-0.066 -0.466,-0.2 -0.666,-0.4c-0.267,-0.266 -0.334,-0.733 -0.334,-1.6c0,-1.2 -0.333,-4.333 -0.333,-7.6c-0,-0.733 -0,-1.4 0.067,-2.066c0.133,-4 0.533,-9.867 0.933,-12.334l-0,-0.666c-0,-1.667 -1.067,-2.734 -2.6,-2.734l-0.2,0c-1.8,0.067 -2.533,1.067 -2.533,1.8c-0,1.8 1,15.6 1,22l-0,1.2c-0,5.6 -0.2,13.8 -0.6,16.4c-0.067,0.4 -0.067,0.667 -0.067,1c-0,1.334 0.733,1.6 2.667,1.667c1.2,0 2,-0.333 2,-1.4c-0,-0.267 -0,-0.6 -0.067,-0.933c-0.133,-0.667 -0.2,-1.467 -0.2,-2.334c-0,-1.466 0.133,-3.2 0.267,-5c0.2,-1.666 0.733,-2.266 1.4,-2.266c0.866,-0 1.866,1 2.266,1.6c0.267,0.333 0.667,0.933 1.267,1.533l4.133,4.467l0.067,0.133c0.733,0.867 1.533,1.867 2,2.667c0.4,0.666 0.733,0.933 1.267,1.133c0.266,0.067 0.666,0.133 1.2,0.2c0.466,0.133 1.066,0.133 1.733,0.2c0.4,0.067 0.733,0.067 1,0.067c2.133,-0 2.667,-0.6 2.733,-1Z" style="fill-rule:nonzero;"/>
    <path d="M976,252.033c-0,-0.066 0.067,-0.133 0.067,-0.266c-0,-0.067 -0.067,-0.267 -0.067,-0.467l-0.267,-1.4c-0.466,-2.133 -2.8,-5.667 -4.533,-7.733c-1.733,-1.867 -5.067,-3 -7.867,-3.134l-0.733,0c-2.867,0 -5.133,1.4 -7.467,2.934l-0.533,0.333c-2.533,1.533 -4.333,6.6 -4.467,10.6l0,0.2c0,3.8 2.867,8 5.134,10.533c2.2,2.334 6.733,2.4 9,2.4c2.133,0 3.866,-0.533 5,-1.133c0.466,-0.267 1.133,-0.8 1.933,-1.467c0.733,-0.666 1.533,-1.333 2.4,-2c0.667,-0.466 1,-1 1,-1.533c-0,-0.6 -0.333,-1.2 -1.333,-2c-0.334,-0.267 -0.667,-0.4 -0.867,-0.4c-0.333,0 -0.533,0.2 -0.8,0.4c-0.467,0.533 -0.8,1.2 -1.067,1.867c-0.533,1.2 -3.2,2.533 -6.533,2.533l-0.533,0c-2.2,-0.067 -4.067,-0.733 -5.734,-2.067l-1,-0.8c-1.066,-0.933 -2.133,-3.6 -2.133,-5.266l-0,-0.467c0.2,-0.8 1.8,-1.267 3.8,-1.333c1.667,-0 3.533,0.066 4.533,0.066c1.4,0 5.267,0.067 8.267,0.067c1.533,0 2.867,0 3.6,-0.067c1.133,0 1.2,-0.266 1.2,-0.4Zm-4.733,-4.4c0.2,0.334 0.266,0.6 0.266,0.867c0,0.733 -0.6,1.2 -1.8,1.2c-2.6,0 -5.466,0.067 -6.6,0.067c-1.2,-0 -4.733,-0.067 -5.466,-0.267c-0.734,-0.067 -2.334,-0.933 -2.334,-2.133c0,-0.4 0.134,-0.8 0.467,-1.2c1.067,-1.467 4,-3.467 7.467,-3.467l0.266,0c3.134,0.133 4.2,1.067 5.734,2.533c0.666,0.667 1.6,1.534 2,2.4Z" style="fill-rule:nonzero;"/>
    <path d="M999.133,239.833c-0.466,-0.2 -2.066,-0.733 -3.866,-0.733c-1.8,0 -4.267,1.6 -5.134,3.267c-0.2,0.4 -0.466,0.8 -0.8,1c-0.2,0.066 -0.333,0.066 -0.4,0.066c-0.333,0 -0.6,-0.2 -0.733,-0.4c-0.2,-0.4 -0.267,-0.933 -0.267,-1.466l0,-0.467c0,-1.133 -1.2,-1.6 -2.066,-1.6c-1.667,0 -1.867,0.533 -1.934,0.867c0,0.066 -0.066,0.133 -0.066,0.266c-0,0.2 0.066,0.534 0.133,0.867c0.067,0.467 0.133,1 0.2,1.467c0.133,2.2 0.133,7.133 0.133,10.066c0,2.867 -0.133,5.867 -0.6,9.734c-0.066,0.666 -0.066,1.2 -0.066,1.533c-0,0.4 0.066,0.6 0.333,0.733c0.133,0.067 0.4,0.067 1,0.067c0.533,-0.067 1.2,-0.133 2,-0.133c1.667,-0 2.067,-1.134 2.067,-2.4c-0,-0.934 -0.267,-2 -0.4,-2.8c-0.267,-1.334 -0.334,-3.8 -0.334,-6.267c0,-1.333 0,-2.6 0.067,-3.733c0.2,-3.6 2.6,-5.6 4.867,-6.134c0.866,-0.2 1.466,-0.266 2.066,-0.266c0.8,-0 1.334,0.133 2.2,0.466c0.134,0 0.334,0.2 0.467,0.2c0.2,0 0.267,-0.066 0.333,-0.266c0.134,-0.067 0.267,-0.334 0.334,-0.667c0.2,-0.333 0.333,-0.733 0.466,-1.2c0.2,-0.667 0.334,-1.133 0.334,-1.4c-0,-0.333 -0.134,-0.533 -0.334,-0.667Z" style="fill-rule:nonzero;"/>
    <path d="M1013.67,226.767c0.133,-0.334 0.266,-0.667 0.266,-0.867c0,-0.867 -1.2,-1.067 -2.466,-1.2l-0.4,0c-1.6,0 -2.334,1.067 -2.8,2.6c-0.534,1.8 -2.867,7.733 -4.334,10.4c-0.266,0.533 -0.4,0.933 -0.4,1.2c0,0.8 0.734,0.867 1.267,0.933c0.933,0 1.733,-0.666 2.067,-1.333c0.133,-0.267 0.266,-0.667 0.533,-1.067l0.867,-1.333c0.6,-0.933 1.266,-2 1.733,-3c0.933,-1.933 2.467,-4.333 3.667,-6.333Z" style="fill-rule:nonzero;"/>
    <path d="M1036.87,257.567c-0,-2.134 -1.467,-3.734 -2.8,-5.067c-1.067,-1.067 -5.134,-3.267 -6.534,-3.933c-1.533,-0.667 -3,-1.8 -3,-3.467c0,-1.667 1.334,-2.333 3,-2.333l0.6,-0c2.134,0.066 3.267,0.8 4.867,2.133c0.533,0.467 0.8,0.533 0.933,0.533c0.2,0 0.334,-0.133 0.467,-0.266l0.467,-0.534c0.133,-0.2 0.333,-0.4 0.4,-0.6c0.2,-0.266 0.266,-0.533 0.266,-0.733c0,-0.267 -0.066,-0.533 -0.333,-0.867c-0.933,-1 -3.667,-2.866 -7.667,-3l-0.466,0c-1.134,0 -1.734,0.134 -2.2,0.334c-0.534,0.266 -0.934,0.666 -1.334,1.066c-0.933,0.734 -2.066,2.067 -2.2,3.6c0,0.267 -0.066,0.534 -0.066,0.734c-0,1.533 0.333,2.8 1.266,4c1.067,1.466 3.467,2.933 6,4c2.667,1.066 5.2,3.133 5.2,5.333c0,2.267 -1.866,3.6 -4.8,3.8c-0.2,0 -0.4,0.067 -0.533,0.067c-2.867,-0 -4.867,-2.4 -5.333,-3.334c-0.134,-0.466 -0.667,-0.733 -1.067,-0.733c-0.267,0 -0.667,0.133 -1.133,0.2c-1,0.267 -1.334,1.067 -1.334,1.867c0,0.266 0,0.6 0.2,0.866c0.467,0.867 2.2,2.2 3.8,3.2c1.467,0.8 4.067,1.334 5.867,1.334c1.6,-0 3.533,-1.2 5.267,-2.334c1.466,-1 2.133,-3.666 2.2,-5.866Z" style="fill-rule:nonzero;"/>
    <path d="M1075.6,257.567c-0,-2.134 -1.467,-3.734 -2.8,-5.067c-1.067,-1.067 -5.133,-3.267 -6.533,-3.933c-1.534,-0.667 -3,-1.8 -3,-3.467c-0,-1.667 1.333,-2.333 3,-2.333l0.6,-0c2.133,0.066 3.266,0.8 4.866,2.133c0.534,0.467 0.8,0.533 0.934,0.533c0.2,0 0.333,-0.133 0.466,-0.266l0.467,-0.534c0.133,-0.2 0.333,-0.4 0.4,-0.6c0.2,-0.266 0.267,-0.533 0.267,-0.733c-0,-0.267 -0.067,-0.533 -0.334,-0.867c-0.933,-1 -3.666,-2.866 -7.666,-3l-0.467,0c-1.133,0 -1.733,0.134 -2.2,0.334c-0.533,0.266 -0.933,0.666 -1.333,1.066c-0.934,0.734 -2.067,2.067 -2.2,3.6c-0,0.267 -0.067,0.534 -0.067,0.734c-0,1.533 0.333,2.8 1.267,4c1.066,1.466 3.466,2.933 6,4c2.666,1.066 5.2,3.133 5.2,5.333c-0,2.267 -1.867,3.6 -4.8,3.8c-0.2,0 -0.4,0.067 -0.534,0.067c-2.866,-0 -4.866,-2.4 -5.333,-3.334c-0.133,-0.466 -0.667,-0.733 -1.067,-0.733c-0.266,0 -0.666,0.133 -1.133,0.2c-1,0.267 -1.333,1.067 -1.333,1.867c-0,0.266 -0,0.6 0.2,0.866c0.466,0.867 2.2,2.2 3.8,3.2c1.466,0.8 4.066,1.334 5.866,1.334c1.6,-0 3.534,-1.2 5.267,-2.334c1.467,-1 2.133,-3.666 2.2,-5.866Z" style="fill-rule:nonzero;"/>
    <path d="M1094.8,241.433c-0,-0.533 -0.267,-0.733 -0.8,-0.933c-0.333,-0.067 -0.733,-0.067 -1.133,-0.067c-0.467,0 -0.867,-0.066 -1.334,-0.066l-1.133,-0.134c-0.333,0 -0.6,-0.066 -0.867,-0.133c-0.6,-0.2 -1,-0.667 -1,-1.333c0,-0.934 0,-2.534 0.134,-5.134l-0,-0.266c-0,-1 -0.2,-1.334 -0.4,-1.467c-0.334,-0.267 -1,-0.267 -1.4,-0.267l-0.2,0c-1,0 -1.6,0.8 -1.667,1.2c-0,0.067 -0.067,0.2 -0.067,0.267c0,0.333 0.067,0.867 0.134,1.533c0.133,0.867 0.266,2 0.266,3.134l0,0.333c0,1.2 -0.533,1.867 -1.4,2.067c-0.266,0.066 -0.533,0.066 -0.8,0.066c-0.466,0 -1.066,-0.066 -1.533,-0.066c-0.933,-0 -1.467,0.6 -1.667,2.6c0,0.066 -0.066,0.133 -0.066,0.2c-0,0.4 0.266,0.533 0.8,0.666c0.333,0.067 0.666,0.067 1,0.067c0.333,0 0.666,-0.067 0.933,-0.067c1.067,0 2.467,0.8 2.467,2.267c-0,1.067 0.2,3.4 0.2,6.4c-0,3 -0.4,8.733 -0.4,11.333c-0,1.267 0.2,1.6 0.4,1.734l0.533,0.133l1.2,0c1.667,0 2.2,-0.2 2.2,-1.067l-0,-0.466c-0.2,-1.867 -0.533,-6.667 -0.6,-9.467c-0.067,-0.933 -0.133,-2.067 -0.133,-3.2c-0,-2.2 0.133,-4.467 0.2,-5.933c0.066,-1.467 0.933,-2.067 2,-2.134l0.2,0c0.8,0 1.533,0.2 2.333,0.267l0.267,0c0.866,0 1.333,-0.467 1.333,-2.067Z" style="fill-rule:nonzero;"/>
    <path d="M1117.4,239.833c-0.467,-0.2 -2.067,-0.733 -3.867,-0.733c-1.8,0 -4.266,1.6 -5.133,3.267c-0.2,0.4 -0.467,0.8 -0.8,1c-0.2,0.066 -0.333,0.066 -0.4,0.066c-0.333,0 -0.6,-0.2 -0.733,-0.4c-0.2,-0.4 -0.267,-0.933 -0.267,-1.466l-0,-0.467c-0,-1.133 -1.2,-1.6 -2.067,-1.6c-1.666,0 -1.866,0.533 -1.933,0.867c-0,0.066 -0.067,0.133 -0.067,0.266c0,0.2 0.067,0.534 0.134,0.867c0.066,0.467 0.133,1 0.2,1.467c0.133,2.2 0.133,7.133 0.133,10.066c-0,2.867 -0.133,5.867 -0.6,9.734c-0.067,0.666 -0.067,1.2 -0.067,1.533c0,0.4 0.067,0.6 0.334,0.733c0.133,0.067 0.4,0.067 1,0.067c0.533,-0.067 1.2,-0.133 2,-0.133c1.666,-0 2.066,-1.134 2.066,-2.4c0,-0.934 -0.266,-2 -0.4,-2.8c-0.266,-1.334 -0.333,-3.8 -0.333,-6.267c-0,-1.333 -0,-2.6 0.067,-3.733c0.2,-3.6 2.6,-5.6 4.866,-6.134c0.867,-0.2 1.467,-0.266 2.067,-0.266c0.8,-0 1.333,0.133 2.2,0.466c0.133,0 0.333,0.2 0.467,0.2c0.2,0 0.266,-0.066 0.333,-0.266c0.133,-0.067 0.267,-0.334 0.333,-0.667c0.2,-0.333 0.334,-0.733 0.467,-1.2c0.2,-0.667 0.333,-1.133 0.333,-1.4c0,-0.333 -0.133,-0.533 -0.333,-0.667Z" style="fill-rule:nonzero;"/>
    <path d="M1148.07,252.033c-0,-0.066 0.066,-0.133 0.066,-0.266c0,-0.067 -0.066,-0.267 -0.066,-0.467l-0.267,-1.4c-0.467,-2.133 -2.8,-5.667 -4.533,-7.733c-1.734,-1.867 -5.067,-3 -7.867,-3.134l-0.733,0c-2.867,0 -5.134,1.4 -7.467,2.934l-0.533,0.333c-2.534,1.533 -4.334,6.6 -4.467,10.6l-0,0.2c-0,3.8 2.867,8 5.133,10.533c2.2,2.334 6.734,2.4 9,2.4c2.134,0 3.867,-0.533 5,-1.133c0.467,-0.267 1.134,-0.8 1.934,-1.467c0.733,-0.666 1.533,-1.333 2.4,-2c0.666,-0.466 1,-1 1,-1.533c-0,-0.6 -0.334,-1.2 -1.334,-2c-0.333,-0.267 -0.666,-0.4 -0.866,-0.4c-0.334,0 -0.534,0.2 -0.8,0.4c-0.467,0.533 -0.8,1.2 -1.067,1.867c-0.533,1.2 -3.2,2.533 -6.533,2.533l-0.534,0c-2.2,-0.067 -4.066,-0.733 -5.733,-2.067l-1,-0.8c-1.067,-0.933 -2.133,-3.6 -2.133,-5.266l-0,-0.467c0.2,-0.8 1.8,-1.267 3.8,-1.333c1.666,-0 3.533,0.066 4.533,0.066c1.4,0 5.267,0.067 8.267,0.067c1.533,0 2.866,0 3.6,-0.067c1.133,0 1.2,-0.266 1.2,-0.4Zm-4.734,-4.4c0.2,0.334 0.267,0.6 0.267,0.867c-0,0.733 -0.6,1.2 -1.8,1.2c-2.6,0 -5.467,0.067 -6.6,0.067c-1.2,-0 -4.733,-0.067 -5.467,-0.267c-0.733,-0.067 -2.333,-0.933 -2.333,-2.133c-0,-0.4 0.133,-0.8 0.467,-1.2c1.066,-1.467 4,-3.467 7.466,-3.467l0.267,0c3.133,0.133 4.2,1.067 5.733,2.533c0.667,0.667 1.6,1.534 2,2.4Z" style="fill-rule:nonzero;"/>
    <path d="M1178.07,261.833c-0.2,-1.733 -0.4,-7.2 -0.4,-11.066c-0,-0.8 0.066,-1.6 0.066,-2.2l0,-0.267c0,-3.067 -1.6,-5.733 -2.533,-6.867c-0.933,-1.2 -2.933,-2.333 -5.533,-2.4l-0.467,0c-2.2,0 -3.533,0.8 -5.8,2.934c-0.933,0.866 -1.667,1.133 -2.133,1.2c-0.4,-0 -0.6,-0.2 -0.734,-0.4c-0.133,-0.334 -0.2,-0.734 -0.2,-1.134c0,-0.4 0,-0.733 0.067,-1.066c-0,-1.134 -1.067,-1.334 -1.867,-1.334c-0.733,0 -2,0.067 -2.266,0.667c-0.067,0.2 -0.134,0.467 -0.134,0.8c0.067,0.4 0.134,0.733 0.134,1.2c0.133,1.867 0.933,6.067 0.933,8.8c-0,2.733 -0.133,6.067 -0.667,10.467c-0.133,0.8 -0.133,1.4 -0.133,1.933c-0,1.933 0.667,2.333 2.2,2.333c0.2,0 0.467,-0.066 0.8,-0.066c1.333,-0.067 1.6,-0.467 1.667,-0.667l-0,-0.467c-0,-0.466 -0.067,-1 -0.134,-1.333c-0.266,-1.467 -0.533,-6.8 -0.533,-9.133c-0,-2.2 0.333,-5.867 1.733,-7.8c1.467,-2 3.667,-3.134 5.667,-3.134l0.933,0c0.4,0 0.867,0 1.267,0.134c0.733,0.133 1.4,0.533 2.333,1.266c1.134,0.867 1.6,2 1.8,3.4c0.134,0.8 0.134,1.734 0.134,2.734l-0,2.133c-0,3.8 -0.534,5.933 -0.8,9.667c-0,0.266 -0.067,0.6 -0.067,0.8c-0,2.466 1.133,2.533 3.133,2.533c1.4,0 1.734,-0.733 1.734,-1.8c-0,-0.6 -0.134,-1.267 -0.2,-1.867Z" style="fill-rule:nonzero;"/>
    <path d="M1212.2,243.433c0.067,-0.4 0.067,-0.733 0.067,-1.066c-0,-1.6 -0.667,-1.934 -2.067,-2.067c-0.333,-0.067 -0.533,-0.067 -0.8,-0.067c-0.733,0 -0.933,0.2 -0.933,0.667c-0,0.4 0.133,0.8 0.133,1.2c-0,0.4 -0.067,1 -0.6,1.4c-0.133,0.2 -0.333,0.267 -0.6,0.267c-0.4,-0 -0.867,-0.267 -1.4,-0.734c-0.467,-0.533 -1,-1.133 -1.667,-1.533c-1.2,-0.733 -3.6,-1.933 -7,-2.067l-0.2,0c-2.533,0 -5.466,2 -7.066,3.467c-1.534,1.467 -4,4.6 -4,9.867l-0,0.333c0.066,2.8 0.666,4.733 1.6,6.267c0.8,1.4 1.933,2.533 3,3.666l0.333,0.267c2.333,2.333 5.667,2.733 7.333,2.733c1.6,0 3.667,-0.4 4.934,-1.666c1.333,-1.334 2.933,-2 4.066,-2l0.334,-0c0.8,0.133 0.933,0.933 1,1.533c-0,0.6 -0.134,1.533 -0.2,2.733c-0.134,2.467 -0.667,3.8 -1.6,5.534c-1.134,2 -4.4,2.933 -7.6,3.2c-0.2,-0 -0.4,0.066 -0.6,0.066c-3.267,0 -5.934,-2.4 -7,-4.133c-0.467,-0.8 -0.8,-1.067 -1.267,-1.2c-0.2,-0.067 -0.467,-0.067 -0.8,-0.067l-1.333,0c-0.8,0 -1.067,0.467 -1.067,1.067c-0,0.4 0.2,1 0.4,1.333c0.2,0.467 0.667,1 1.2,1.6c0.533,0.6 1.2,1.2 1.8,1.734c1.067,1.066 4,2.333 7.867,2.666l0.733,0c3.467,0 6.467,-1.333 8.133,-2.333c1.667,-0.933 3.667,-4 4.334,-6.333c0.333,-1 0.4,-3.267 0.4,-5.667c-0,-2.667 -0.067,-5.533 -0.134,-7.4c-0.066,-1.267 -0.066,-2.867 -0.066,-4.6c-0,-3.2 0.066,-6.733 0.333,-8.667Zm-3.733,9.467c-0,1.933 -0.134,4.333 -1.8,6.467c-1.6,2 -3.334,3.6 -7.334,3.6l-0.4,-0c-2.133,-0.067 -3.6,-0.534 -4.6,-1.2c-1,-0.667 -1.666,-1.4 -2.333,-2.267c-1.333,-1.533 -2,-3.733 -2.067,-6.4l0,-0.667c0,-2.533 0.534,-4.733 2.334,-6.8c2,-2.266 4.8,-2.533 7.066,-2.533c3,0 5.534,1 7.067,3.067c1.533,2.066 2.067,4.666 2.067,6.733Z" style="fill-rule:nonzero;"/>
    <path d="M1235,241.433c-0,-0.533 -0.267,-0.733 -0.8,-0.933c-0.333,-0.067 -0.733,-0.067 -1.133,-0.067c-0.467,0 -0.867,-0.066 -1.334,-0.066l-1.133,-0.134c-0.333,0 -0.6,-0.066 -0.867,-0.133c-0.6,-0.2 -1,-0.667 -1,-1.333c0,-0.934 0,-2.534 0.134,-5.134l-0,-0.266c-0,-1 -0.2,-1.334 -0.4,-1.467c-0.334,-0.267 -1,-0.267 -1.4,-0.267l-0.2,0c-1,0 -1.6,0.8 -1.667,1.2c-0,0.067 -0.067,0.2 -0.067,0.267c0,0.333 0.067,0.867 0.134,1.533c0.133,0.867 0.266,2 0.266,3.134l0,0.333c0,1.2 -0.533,1.867 -1.4,2.067c-0.266,0.066 -0.533,0.066 -0.8,0.066c-0.466,0 -1.066,-0.066 -1.533,-0.066c-0.933,-0 -1.467,0.6 -1.667,2.6c0,0.066 -0.066,0.133 -0.066,0.2c-0,0.4 0.266,0.533 0.8,0.666c0.333,0.067 0.666,0.067 1,0.067c0.333,0 0.666,-0.067 0.933,-0.067c1.067,0 2.467,0.8 2.467,2.267c-0,1.067 0.2,3.4 0.2,6.4c-0,3 -0.4,8.733 -0.4,11.333c-0,1.267 0.2,1.6 0.4,1.734l0.533,0.133l1.2,0c1.667,0 2.2,-0.2 2.2,-1.067l-0,-0.466c-0.2,-1.867 -0.533,-6.667 -0.6,-9.467c-0.067,-0.933 -0.133,-2.067 -0.133,-3.2c-0,-2.2 0.133,-4.467 0.2,-5.933c0.066,-1.467 0.933,-2.067 2,-2.134l0.2,0c0.8,0 1.533,0.2 2.333,0.267l0.267,0c0.866,0 1.333,-0.467 1.333,-2.067Z" style="fill-rule:nonzero;"/>
    <path d="M1265.33,263.433l0,-0.4c0,-0.533 -0.066,-1 -0.133,-1.533c-0.133,-1.133 -0.2,-4.333 -0.2,-7.133c-0,-1.8 -0,-3.534 0.067,-4.534l-0,-0.466c-0,-2.467 -0.734,-5.534 -1.867,-7.267c-1.133,-1.733 -4.467,-2.867 -6.2,-3c-0.333,0 -0.733,-0.067 -1.133,-0.067c-1.534,0 -3.267,0.334 -5.134,1.734c-0.933,0.733 -1.6,1 -2.066,1c-0.4,-0 -0.6,-0.134 -0.8,-0.334c-0.4,-0.4 -0.4,-1.133 -0.467,-1.666c-0.2,-0.6 -0.267,-1.267 -0.267,-2.067c0,-0.867 0.067,-1.8 0.2,-3c0.267,-2.333 0.534,-6.267 0.667,-10.133l-0,-0.4c-0,-1.667 -0.333,-2.134 -0.6,-2.4c-0.2,-0.2 -0.4,-0.267 -0.8,-0.334l-1.6,0c-1.533,0 -2,0.667 -2,1.867c-0,1.733 -0,4.933 0.2,8.933c0.267,4.067 0.467,13.467 0.467,16.067c-0,2.6 -0.2,11.4 -0.4,14.133c-0.067,0.534 -0.134,1 -0.134,1.334c0,1.133 0.467,1.4 2.334,1.6l0.4,-0c1.533,-0 1.8,-0.734 1.8,-1.6c-0,-0.267 -0.067,-0.534 -0.067,-0.8c-0.067,-0.8 -0.133,-3.334 -0.133,-6.067c-0,-2.733 0.066,-5.667 0.133,-7.133c0.2,-3.334 1.867,-4.734 3.067,-5.667c1.333,-1 3.8,-1.6 4.933,-1.6c0.2,0 0.533,0 0.867,0.067c1.333,0.066 2.333,0.6 3.333,1.733c1.333,1.6 1.4,3.8 1.4,5.867l-0,0.866c-0,2 -0.467,8.667 -0.733,11c-0.067,0.4 -0.067,0.8 -0.067,1.134c-0,1.333 0.467,2 2.733,2.2l0.4,-0c1.134,-0 1.534,-0.467 1.667,-1c0.067,-0.267 0.133,-0.6 0.133,-0.934Z" style="fill-rule:nonzero;"/>
    <path d="M1307.93,265.033c0.534,-0.333 1,-0.733 1.334,-1.066c0.333,-0.4 0.666,-0.734 1,-0.934c0.4,-0.4 0.866,-0.6 1.333,-0.6c0.667,0 1.267,0.534 1.267,1.334c-0,0.2 -0,0.4 -0.067,0.6c-0,0.066 -0.067,0.133 -0.067,0.2c0,0.6 0.667,0.666 2.534,0.8l0.333,-0c1,-0 1.2,-0.267 1.333,-0.534l0,-13.133c0,-2.2 -0.066,-4.533 -0.066,-6.667c-0,-1.066 -0,-2.066 0.066,-3l0,-0.333c0,-1.733 -0.866,-1.8 -2,-1.8l-0.666,0c-0.8,0 -1.2,0.067 -1.2,0.533c-0,0.334 0.066,0.6 0.066,0.8c0,1.067 -0.4,2 -1.2,2.267c-0.133,0.067 -0.2,0.067 -0.333,0.067c-0.467,-0 -1.067,-0.334 -1.667,-0.867c-0.6,-0.533 -1.066,-1.133 -1.6,-1.667c-0.733,-0.933 -3.466,-1.733 -6,-1.733c-3.733,0 -8,2.4 -10.066,5.267c-1.467,2.133 -2,5.466 -2.267,8.2l-0,0.533c-0,2.6 1.533,6.8 3.2,8.867c1.733,2.2 4.667,4.2 9.6,4.2c2.4,-0 4,-0.6 5.133,-1.334Zm5.134,-12.266c-0.2,2.8 -1.134,6.133 -3.467,7.866c-1.8,1.4 -3.2,1.734 -5.267,1.734c-0.4,-0 -0.8,-0.067 -1.333,-0.067c-3,-0.2 -5.533,-1.533 -6.6,-3.267c-0.867,-1.6 -1.467,-3.666 -1.467,-6l0,-0.6c0.134,-2.4 1.134,-6.466 2.4,-7.4c0.934,-0.733 3.8,-1.933 6.2,-1.933c0.4,0 0.8,0 1.2,0.067l1.534,0.333c0.266,0 0.266,0.067 0.333,0.067c0.4,0.133 1,0.2 1.4,0.4c1.2,0.4 2.333,1.133 3.2,2.6l1,1.733c0.067,0.467 0.467,0.933 0.667,1.333c0.2,0.534 0.333,1.134 0.333,1.8c-0,0.4 -0.067,0.867 -0.133,1.334Z" style="fill-rule:nonzero;"/>
    <path d="M1349.47,261.833c-0.2,-1.733 -0.4,-7.2 -0.4,-11.066c-0,-0.8 0.066,-1.6 0.066,-2.2l0,-0.267c0,-3.067 -1.6,-5.733 -2.533,-6.867c-0.933,-1.2 -2.933,-2.333 -5.533,-2.4l-0.467,0c-2.2,0 -3.533,0.8 -5.8,2.934c-0.933,0.866 -1.667,1.133 -2.133,1.2c-0.4,-0 -0.6,-0.2 -0.734,-0.4c-0.133,-0.334 -0.2,-0.734 -0.2,-1.134c0,-0.4 0,-0.733 0.067,-1.066c-0,-1.134 -1.067,-1.334 -1.867,-1.334c-0.733,0 -2,0.067 -2.266,0.667c-0.067,0.2 -0.134,0.467 -0.134,0.8c0.067,0.4 0.134,0.733 0.134,1.2c0.133,1.867 0.933,6.067 0.933,8.8c-0,2.733 -0.133,6.067 -0.667,10.467c-0.133,0.8 -0.133,1.4 -0.133,1.933c-0,1.933 0.667,2.333 2.2,2.333c0.2,0 0.467,-0.066 0.8,-0.066c1.333,-0.067 1.6,-0.467 1.667,-0.667l-0,-0.467c-0,-0.466 -0.067,-1 -0.134,-1.333c-0.266,-1.467 -0.533,-6.8 -0.533,-9.133c-0,-2.2 0.333,-5.867 1.733,-7.8c1.467,-2 3.667,-3.134 5.667,-3.134l0.933,0c0.4,0 0.867,0 1.267,0.134c0.733,0.133 1.4,0.533 2.333,1.266c1.134,0.867 1.6,2 1.8,3.4c0.134,0.8 0.134,1.734 0.134,2.734l-0,2.133c-0,3.8 -0.534,5.933 -0.8,9.667c-0,0.266 -0.067,0.6 -0.067,0.8c-0,2.466 1.133,2.533 3.133,2.533c1.4,0 1.734,-0.733 1.734,-1.8c-0,-0.6 -0.134,-1.267 -0.2,-1.867Z" style="fill-rule:nonzero;"/>
    <path d="M1383.87,223.433c-0,-0.533 -0.067,-0.866 -0.134,-1c-0.266,-0.466 -0.866,-0.466 -2.066,-0.6c-0.134,0 -0.267,-0.066 -0.4,-0.066l-0.467,-0c-1.267,-0 -1.533,0.466 -1.667,1c-0.066,0.266 -0.066,0.533 -0.066,0.866l-0,0.8l0.2,2.067c0.2,3 0.266,7.933 0.466,10.667c0.067,0.866 0.134,1.533 0.134,2.066c-0,1.267 -0.267,1.934 -1.067,2.6c-0.333,0.267 -0.667,0.4 -1,0.4c-0.4,0 -0.8,-0.133 -1.2,-0.333c-0.6,-0.333 -1.467,-0.933 -2.533,-1.6c-1.334,-0.867 -2.934,-1 -4.467,-1c-0.667,0 -1.333,0.067 -1.933,0.067c-2.4,0.066 -5.8,2.2 -7.6,4.2c-1.667,1.933 -2.934,6.133 -2.934,9.933c0,3.733 2,7.333 4.267,9.467c2.267,2.133 5.467,3.4 7.933,3.4c2.534,-0 5.2,-0.6 7,-2.667c0.934,-1.133 1.734,-1.533 2.2,-1.533c0.8,-0 1.2,0.866 1.4,1.933c0.067,0.467 0.067,0.733 0.334,0.933c0.133,0.067 0.266,0.067 0.666,0.134l1.467,0.2l0.333,-0c0.8,-0 0.934,-0.334 1,-0.734l0,-1.2l-0.266,-1.533c-0.267,-1.867 -0.667,-10.133 -0.667,-13.467l-0,-0.933l0.4,-4.333c0.067,-0.934 0.133,-1.734 0.133,-2.534c0,-0.466 0,-0.866 -0.066,-1.2c-0.067,-0.4 -0.134,-1 -0.134,-1.733c0,-1.067 0.267,-3.6 0.267,-4l-0,-0.6c0.067,-2.733 0.333,-5.667 0.333,-7.467c0,-0.866 0.067,-1.6 0.134,-2.2Zm-4.4,26.334c0.333,1 0.533,2 0.533,2.866c-0,1.2 -0.267,2.4 -0.8,3.667c-0.4,1.133 -0.933,1.933 -1.533,2.667c-0.534,0.6 -1.134,1.133 -1.667,1.733c-1.067,1.067 -3,1.467 -4.6,1.467c-0.333,-0 -0.6,-0 -0.8,-0.067l-1.2,0c-0.333,0 -0.8,0 -1.333,-0.133c-0.934,-0.267 -2,-0.867 -3.667,-2.2c-1.6,-1.334 -2.4,-2.534 -2.733,-3.667c-0.267,-0.533 -0.267,-1 -0.334,-1.533c0,-0 0,-0.067 -0.133,-1.534l-0,-0.466c-0,-2 0.667,-4.534 2.2,-6.534c1.6,-2.066 2.933,-2.933 5.667,-2.933l0.8,0c3.133,0.067 5.533,0.6 6.8,2c1.066,1.2 2,2.4 2.8,4.667Z" style="fill-rule:nonzero;"/>
    <path d="M1433.8,263.433l-0,-0.4c-0,-0.533 -0.067,-1 -0.133,-1.533c-0.134,-1.133 -0.2,-4.333 -0.2,-7.133c-0,-1.8 -0,-3.534 0.066,-4.534l0,-0.466c0,-2.467 -0.733,-5.534 -1.866,-7.267c-1.134,-1.733 -4.467,-2.867 -6.2,-3c-0.334,0 -0.734,-0.067 -1.134,-0.067c-1.533,0 -3.266,0.334 -5.133,1.734c-0.933,0.733 -1.6,1 -2.067,1c-0.4,-0 -0.6,-0.134 -0.8,-0.334c-0.4,-0.4 -0.4,-1.133 -0.466,-1.666c-0.2,-0.6 -0.267,-1.267 -0.267,-2.067c-0,-0.867 0.067,-1.8 0.2,-3c0.267,-2.333 0.533,-6.267 0.667,-10.133l-0,-0.4c-0,-1.667 -0.334,-2.134 -0.6,-2.4c-0.2,-0.2 -0.4,-0.267 -0.8,-0.334l-1.6,0c-1.534,0 -2,0.667 -2,1.867c-0,1.733 -0,4.933 0.2,8.933c0.266,4.067 0.466,13.467 0.466,16.067c0,2.6 -0.2,11.4 -0.4,14.133c-0.066,0.534 -0.133,1 -0.133,1.334c-0,1.133 0.467,1.4 2.333,1.6l0.4,-0c1.534,-0 1.8,-0.734 1.8,-1.6c0,-0.267 -0.066,-0.534 -0.066,-0.8c-0.067,-0.8 -0.134,-3.334 -0.134,-6.067c0,-2.733 0.067,-5.667 0.134,-7.133c0.2,-3.334 1.866,-4.734 3.066,-5.667c1.334,-1 3.8,-1.6 4.934,-1.6c0.2,0 0.533,0 0.866,0.067c1.334,0.066 2.334,0.6 3.334,1.733c1.333,1.6 1.4,3.8 1.4,5.867l-0,0.866c-0,2 -0.467,8.667 -0.734,11c-0.066,0.4 -0.066,0.8 -0.066,1.134c-0,1.333 0.466,2 2.733,2.2l0.4,-0c1.133,-0 1.533,-0.467 1.667,-1c0.066,-0.267 0.133,-0.6 0.133,-0.934Z" style="fill-rule:nonzero;"/>
    <path d="M1466.87,242.567c0.066,-0.467 0.066,-0.8 0.066,-1.134c0,-1.333 -0.466,-1.8 -2.4,-1.933l-0.333,0c-1.467,0 -1.8,0.6 -1.8,1.6c-0,0.333 -0,0.667 0.067,1.067c0.133,1.6 0.4,6.8 0.533,10.2c-0,0.533 0.067,1.066 0.067,1.6c-0,2.6 -0.4,4.666 -1.6,6.133c-1.4,1.933 -2.8,2 -4.867,2.067l-0.2,-0c-0.467,0.066 -0.933,0.066 -1.333,0.066c-1.6,0 -2.867,-0.333 -4.134,-2.133c-0.8,-1 -1.2,-2.333 -1.4,-3.8c-0.133,-1.4 -0.2,-3.133 -0.266,-5.067c-0.067,-1.6 -0.067,-2.8 -0.067,-3.933c-0,-1.533 0.067,-2.867 0.2,-4.867l-0,-1.2c-0,-0.733 -0.067,-1 -0.133,-1.133c-0.067,0 -0.2,-0.067 -0.467,-0.133c-0.267,-0 -0.667,-0 -1.067,-0.067l-0.466,0c-1.534,0 -1.867,0.533 -1.867,1.133c-0,1.4 0.333,2.8 0.333,4.734c0,1.8 0.067,8.2 0.067,11c-0,2.666 1.467,5.333 3.6,6.933c2,1.533 5.533,1.933 7.667,1.933c2.066,0 5.2,-1.333 8,-4.133c1.266,-1.267 1.666,-3.267 1.666,-5.333c0,-2.067 -0.333,-4.067 -0.333,-5.2c-0,-2.2 0.2,-6.2 0.467,-8.4Z" style="fill-rule:nonzero;"/>
    <path d="M1499.33,261.833c-0.2,-1.733 -0.4,-7.2 -0.4,-11.066c0,-0.8 0.067,-1.6 0.067,-2.2l-0,-0.267c-0,-3.067 -1.6,-5.733 -2.533,-6.867c-0.934,-1.2 -2.934,-2.333 -5.534,-2.4l-0.466,0c-2.2,0 -3.534,0.8 -5.8,2.934c-0.934,0.866 -1.667,1.133 -2.134,1.2c-0.4,-0 -0.6,-0.2 -0.733,-0.4c-0.133,-0.334 -0.2,-0.734 -0.2,-1.134c-0,-0.4 -0,-0.733 0.067,-1.066c-0,-1.134 -1.067,-1.334 -1.867,-1.334c-0.733,0 -2,0.067 -2.267,0.667c-0.066,0.2 -0.133,0.467 -0.133,0.8c0.067,0.4 0.133,0.733 0.133,1.2c0.134,1.867 0.934,6.067 0.934,8.8c-0,2.733 -0.134,6.067 -0.667,10.467c-0.133,0.8 -0.133,1.4 -0.133,1.933c-0,1.933 0.666,2.333 2.2,2.333c0.2,0 0.466,-0.066 0.8,-0.066c1.333,-0.067 1.6,-0.467 1.666,-0.667l0,-0.467c0,-0.466 -0.066,-1 -0.133,-1.333c-0.267,-1.467 -0.533,-6.8 -0.533,-9.133c-0,-2.2 0.333,-5.867 1.733,-7.8c1.467,-2 3.667,-3.134 5.667,-3.134l0.933,0c0.4,0 0.867,0 1.267,0.134c0.733,0.133 1.4,0.533 2.333,1.266c1.133,0.867 1.6,2 1.8,3.4c0.133,0.8 0.133,1.734 0.133,2.734l0,2.133c0,3.8 -0.533,5.933 -0.8,9.667c0,0.266 -0.066,0.6 -0.066,0.8c-0,2.466 1.133,2.533 3.133,2.533c1.4,0 1.733,-0.733 1.733,-1.8c0,-0.6 -0.133,-1.267 -0.2,-1.867Z" style="fill-rule:nonzero;"/>
    <path d="M1533.47,243.433c0.066,-0.4 0.066,-0.733 0.066,-1.066c0,-1.6 -0.666,-1.934 -2.066,-2.067c-0.334,-0.067 -0.534,-0.067 -0.8,-0.067c-0.734,0 -0.934,0.2 -0.934,0.667c0,0.4 0.134,0.8 0.134,1.2c-0,0.4 -0.067,1 -0.6,1.4c-0.134,0.2 -0.334,0.267 -0.6,0.267c-0.4,-0 -0.867,-0.267 -1.4,-0.734c-0.467,-0.533 -1,-1.133 -1.667,-1.533c-1.2,-0.733 -3.6,-1.933 -7,-2.067l-0.2,0c-2.533,0 -5.467,2 -7.067,3.467c-1.533,1.467 -4,4.6 -4,9.867l0,0.333c0.067,2.8 0.667,4.733 1.6,6.267c0.8,1.4 1.934,2.533 3,3.666l0.334,0.267c2.333,2.333 5.666,2.733 7.333,2.733c1.6,0 3.667,-0.4 4.933,-1.666c1.334,-1.334 2.934,-2 4.067,-2l0.333,-0c0.8,0.133 0.934,0.933 1,1.533c0,0.6 -0.133,1.533 -0.2,2.733c-0.133,2.467 -0.666,3.8 -1.6,5.534c-1.133,2 -4.4,2.933 -7.6,3.2c-0.2,-0 -0.4,0.066 -0.6,0.066c-3.266,0 -5.933,-2.4 -7,-4.133c-0.466,-0.8 -0.8,-1.067 -1.266,-1.2c-0.2,-0.067 -0.467,-0.067 -0.8,-0.067l-1.334,0c-0.8,0 -1.066,0.467 -1.066,1.067c-0,0.4 0.2,1 0.4,1.333c0.2,0.467 0.666,1 1.2,1.6c0.533,0.6 1.2,1.2 1.8,1.734c1.066,1.066 4,2.333 7.866,2.666l0.734,0c3.466,0 6.466,-1.333 8.133,-2.333c1.667,-0.933 3.667,-4 4.333,-6.333c0.334,-1 0.4,-3.267 0.4,-5.667c0,-2.667 -0.066,-5.533 -0.133,-7.4c-0.067,-1.267 -0.067,-2.867 -0.067,-4.6c0,-3.2 0.067,-6.733 0.334,-8.667Zm-3.734,9.467c0,1.933 -0.133,4.333 -1.8,6.467c-1.6,2 -3.333,3.6 -7.333,3.6l-0.4,-0c-2.133,-0.067 -3.6,-0.534 -4.6,-1.2c-1,-0.667 -1.667,-1.4 -2.333,-2.267c-1.334,-1.533 -2,-3.733 -2.067,-6.4l-0,-0.667c-0,-2.533 0.533,-4.733 2.333,-6.8c2,-2.266 4.8,-2.533 7.067,-2.533c3,0 5.533,1 7.067,3.067c1.533,2.066 2.066,4.666 2.066,6.733Z" style="fill-rule:nonzero;"/>
    <path d="M1568.53,252.033c0,-0.066 0.067,-0.133 0.067,-0.266c-0,-0.067 -0.067,-0.267 -0.067,-0.467l-0.266,-1.4c-0.467,-2.133 -2.8,-5.667 -4.534,-7.733c-1.733,-1.867 -5.066,-3 -7.866,-3.134l-0.734,0c-2.866,0 -5.133,1.4 -7.466,2.934l-0.534,0.333c-2.533,1.533 -4.333,6.6 -4.466,10.6l-0,0.2c-0,3.8 2.866,8 5.133,10.533c2.2,2.334 6.733,2.4 9,2.4c2.133,0 3.867,-0.533 5,-1.133c0.467,-0.267 1.133,-0.8 1.933,-1.467c0.734,-0.666 1.534,-1.333 2.4,-2c0.667,-0.466 1,-1 1,-1.533c0,-0.6 -0.333,-1.2 -1.333,-2c-0.333,-0.267 -0.667,-0.4 -0.867,-0.4c-0.333,0 -0.533,0.2 -0.8,0.4c-0.466,0.533 -0.8,1.2 -1.066,1.867c-0.534,1.2 -3.2,2.533 -6.534,2.533l-0.533,0c-2.2,-0.067 -4.067,-0.733 -5.733,-2.067l-1,-0.8c-1.067,-0.933 -2.134,-3.6 -2.134,-5.266l0,-0.467c0.2,-0.8 1.8,-1.267 3.8,-1.333c1.667,-0 3.534,0.066 4.534,0.066c1.4,0 5.266,0.067 8.266,0.067c1.534,0 2.867,0 3.6,-0.067c1.134,0 1.2,-0.266 1.2,-0.4Zm-4.733,-4.4c0.2,0.334 0.267,0.6 0.267,0.867c-0,0.733 -0.6,1.2 -1.8,1.2c-2.6,0 -5.467,0.067 -6.6,0.067c-1.2,-0 -4.734,-0.067 -5.467,-0.267c-0.733,-0.067 -2.333,-0.933 -2.333,-2.133c-0,-0.4 0.133,-0.8 0.466,-1.2c1.067,-1.467 4,-3.467 7.467,-3.467l0.267,0c3.133,0.133 4.2,1.067 5.733,2.533c0.667,0.667 1.6,1.534 2,2.4Z" style="fill-rule:nonzero;"/>
    <path d="M1591.67,239.833c-0.467,-0.2 -2.067,-0.733 -3.867,-0.733c-1.8,0 -4.267,1.6 -5.133,3.267c-0.2,0.4 -0.467,0.8 -0.8,1c-0.2,0.066 -0.334,0.066 -0.4,0.066c-0.334,0 -0.6,-0.2 -0.734,-0.4c-0.2,-0.4 -0.266,-0.933 -0.266,-1.466l-0,-0.467c-0,-1.133 -1.2,-1.6 -2.067,-1.6c-1.667,0 -1.867,0.533 -1.933,0.867c-0,0.066 -0.067,0.133 -0.067,0.266c-0,0.2 0.067,0.534 0.133,0.867c0.067,0.467 0.134,1 0.2,1.467c0.134,2.2 0.134,7.133 0.134,10.066c-0,2.867 -0.134,5.867 -0.6,9.734c-0.067,0.666 -0.067,1.2 -0.067,1.533c-0,0.4 0.067,0.6 0.333,0.733c0.134,0.067 0.4,0.067 1,0.067c0.534,-0.067 1.2,-0.133 2,-0.133c1.667,-0 2.067,-1.134 2.067,-2.4c-0,-0.934 -0.267,-2 -0.4,-2.8c-0.267,-1.334 -0.333,-3.8 -0.333,-6.267c-0,-1.333 -0,-2.6 0.066,-3.733c0.2,-3.6 2.6,-5.6 4.867,-6.134c0.867,-0.2 1.467,-0.266 2.067,-0.266c0.8,-0 1.333,0.133 2.2,0.466c0.133,0 0.333,0.2 0.466,0.2c0.2,0 0.267,-0.066 0.334,-0.266c0.133,-0.067 0.266,-0.334 0.333,-0.667c0.2,-0.333 0.333,-0.733 0.467,-1.2c0.2,-0.667 0.333,-1.133 0.333,-1.4c-0,-0.333 -0.133,-0.533 -0.333,-0.667Z" style="fill-rule:nonzero;"/>
  </g>
  <g id="Footer">
    <g id="FLIGHTFAILsound" sound="3F-Flightfail-1">
      <rect x="1202" y="1857.24" width="321" height="159.524" style="fill:#fff;stroke:#000;stroke-width:2.38px;"/>
      <path d="M1261.5,1964.9c0.153,0.442 0.676,0.631 1.081,0.397c7.112,-4.182 13.845,-9.167 20.218,-14.962c3.1,-2.822 6.697,-6.643 10.78,-11.475c3.326,-3.939 6.652,-7.769 9.987,-11.51c1.181,-1.325 2.235,-2.668 3.173,-4.029c0.414,-0.604 1.316,-0.595 1.712,0.027l2.957,4.579c0.513,0.793 1.505,1.118 2.379,0.784c3.173,-1.208 6.192,-2.875 9.059,-5.002c6.552,-4.859 11.807,-9.825 15.782,-14.9c0.451,-0.577 1.298,-0.613 1.803,-0.09l7.598,7.923c0.352,0.37 0.947,0.307 1.226,-0.117l28.897,-45.149c0.253,-0.396 0.794,-0.495 1.172,-0.216c7.553,5.597 15.26,10.996 23.129,16.215c3.452,2.281 7.751,4.273 10.185,7.346c10.167,12.863 21.236,26.842 34.612,36.153c3.245,2.254 7.03,3.615 8.761,7.446c3.164,6.994 6.273,13.24 11.79,18.721c7.445,7.391 15.638,13.015 24.688,18.468c1.361,0.82 2.523,1.974 3.506,3.479c5.489,8.401 11.429,15.936 17.937,23.129c0.144,0.162 0.036,0.424 -0.19,0.424l-299.013,-0c-0.694,-0 -0.892,-0.316 -0.604,-0.938l13.845,-29.474c0.162,-0.333 0.559,-0.469 0.883,-0.306l2.055,1.027c0.532,0.262 1.172,0.036 1.415,-0.505l5.291,-11.573c0.207,-0.451 0.748,-0.64 1.19,-0.424l2.352,1.163c0.55,0.271 1.217,0.171 1.677,-0.261c3.398,-3.236 6.445,-6.67 9.122,-10.312c0.252,-0.342 0.766,-0.351 1.027,-0.009c1.289,1.686 2.767,3.299 4.435,4.859c2.505,2.325 3.01,6.075 4.083,9.112Zm98.788,-44.923c-1.46,3.434 -2.65,7.094 -3.561,10.979c-0.721,3.046 -2.037,5.588 -3.957,7.634c-4.47,4.75 -8.77,10.05 -12.898,15.882c-0.045,0.072 -0.036,0.135 0.027,0.189l0,0.009c0.072,0.063 0.144,0.054 0.207,-0.009c4.895,-5.003 9.816,-9.978 14.747,-14.926c0.108,-0.1 0.234,-0.181 0.369,-0.235c0.234,-0.09 0.406,0.009 0.523,0.307c0.207,0.541 0.892,0.703 1.325,0.315l12.583,-11.357c0.405,-0.369 1.018,-0.378 1.433,-0.018c0.387,0.334 0.55,0.757 0.487,1.271c-0.045,0.352 -0.163,0.658 -0.352,0.919c-1.613,2.2 -2.298,4.633 -2.055,7.31c0.054,0.631 0.82,0.92 1.28,0.478l2.154,-2.055c0.144,-0.135 0.343,-0.216 0.541,-0.216c0.442,-0.009 0.865,0.09 1.262,0.279c0.324,0.153 0.703,0.072 0.928,-0.189c2.903,-3.254 5.589,-6.805 8.049,-10.654c0.37,-0.577 0.217,-0.874 -0.468,-0.892c-2.93,-0.082 -5.886,0.252 -8.852,0.991c-0.504,0.126 -0.955,-0.324 -0.829,-0.829c0.298,-1.172 0.847,-2.272 1.65,-3.308c1.928,-2.47 3.839,-4.804 5.741,-7.004c0.559,-0.64 1.46,-0.865 2.244,-0.549c3.867,1.559 7.545,3.839 11.024,6.859c0.153,0.126 0.315,0.216 0.505,0.279c0.18,0.063 0.369,0.099 0.559,0.126c0.477,0.064 0.576,-0.108 0.306,-0.504c-5.417,-7.851 -10.672,-15.17 -15.756,-21.957c-0.829,-1.109 -1.586,-2.263 -2.262,-3.461c-0.36,-0.64 -0.216,-0.785 0.424,-0.424c2.839,1.577 5.336,3.47 7.49,5.67c1.451,1.469 1.785,1.252 1,-0.658l-5.038,-12.295c-0.316,-0.766 -0.108,-0.955 0.631,-0.568l28.951,15.341c0.73,0.388 0.793,0.298 0.18,-0.252c-10.545,-9.527 -20.947,-19.343 -31.195,-29.465c-0.451,-0.451 -1.217,-0.334 -1.515,0.225c-1.523,2.83 -3.253,5.715 -5.182,8.644c-7.671,11.691 -14.449,22.372 -20.317,32.034c-2.605,4.299 -5.146,7.941 -7.616,10.915c-3.371,4.065 -6.517,8.203 -9.437,12.43c-0.063,0.099 -0.054,0.18 0.036,0.261l0.189,0.145c0.027,0.027 0.054,0.018 0.081,-0.01c4.056,-4.705 8.157,-9.365 12.313,-13.979c4.831,-5.372 7.886,-10.853 11.699,-16.91c0.262,-0.405 0.577,-0.82 0.956,-1.244c0.405,-0.45 0.603,-0.378 0.613,0.226c0.027,1.658 -0.253,3.118 -0.839,4.371c-1.235,2.677 -3.515,6.842 -6.823,12.493c-0.153,0.279 -0.108,0.505 0.144,0.694l0.271,0.207c0.036,0.027 0.072,0.027 0.099,0c1.757,-1.586 3.578,-2.893 5.48,-3.921c0.532,-0.288 0.685,-0.153 0.451,0.406Zm-37.325,9.536c0.243,0.28 0.306,0.604 0.171,0.965c-1.694,4.47 -3.641,9.266 -5.841,14.394c-1.126,2.623 -0.784,2.84 1.046,0.64c6.345,-7.643 14.034,-15.494 23.056,-23.552c1.542,-1.379 3.263,-2.253 5.183,-2.632c0.757,-0.144 1.055,-1.073 0.532,-1.64l-6.76,-7.31c-0.361,-0.397 -0.992,-0.352 -1.307,0.081c-1.785,2.479 -3.84,4.768 -6.165,6.868c-6.301,5.688 -12.087,10.807 -20.461,13.268c-0.342,0.099 -0.649,0.027 -0.919,-0.207l-0.902,-0.794c-0.27,-0.243 -0.703,-0.063 -0.721,0.307c-0.207,4.75 -0.685,9.374 -1.433,13.872c-0.099,0.568 0.045,0.64 0.424,0.207c3.975,-4.525 8.526,-9.356 13.655,-14.485c0.126,-0.126 0.325,-0.117 0.442,0.018Zm-33.927,34.459l0.207,0.189c0.072,0.063 0.181,0.045 0.235,-0.036c6.21,-10.347 12.204,-21.849 17.666,-31.926c1.316,-2.415 2.488,-4.425 0.793,-7.084c-0.225,-0.343 -0.712,-0.37 -0.973,-0.054c-2.911,3.632 -5.985,7.337 -9.212,11.122c-1.109,1.298 -2.1,2.641 -2.983,4.029c-1.731,2.713 1.234,3.975 0.189,6.815c-2.091,5.687 -4.101,11.194 -6.021,16.539c-0.054,0.145 -0.018,0.307 0.099,0.406Z" style="fill:#13171c;fill-rule:nonzero;"/>
    </g>
    <g id="FLIGHTsound-fatigue" sound="3F-Flightfail-2">
      <rect x="259.9" y="1868" width="215.1" height="137" style="fill:#fff;stroke:#000;stroke-width:1.75px;"/>
      <path d="M438.912,1912.47c-1.636,-8.223 4.086,-14.423 11.988,-16.157c2.559,3.868 4.308,8.547 4.169,15.114c2.806,-1.714 3.97,-5.064 8.342,-5.211c3.064,3.714 -0.315,11.373 -2.609,14.593c3.293,9.074 4.384,23.022 4.173,33.88c-1.836,0.86 -4.066,3.385 -8.863,1.564c-2.213,-0.84 -3.449,-4.118 -5.731,-6.255c-2.33,-2.183 -7.18,-3.978 -10.948,-6.775c-1.572,-1.17 -2.426,-3.434 -3.648,-4.17c-9.237,-5.573 -19.649,-3.587 -30.232,1.04c3.79,17.972 5.316,35.241 15.636,46.913c-1.763,3.06 -5.36,1.17 -9.903,1.563c-3.069,-16.269 -15.094,-27.956 -19.284,-44.825c-4.882,0.145 -7.545,7.754 -9.905,13.551c-3.99,9.813 -11.522,25.35 -5.212,35.965c-2.461,1.804 -6.923,-0.718 -9.382,-2.085c-2.333,-15.178 2.789,-30.37 3.649,-47.952c-3.851,-4.181 -8.965,0.151 -13.03,-0c-4.766,-0.18 -7.783,-4.08 -12.509,-4.17c-6.022,10.656 -25.744,7.616 -33.88,16.157c1.645,11.58 24.186,24.105 6.254,32.317c-3.5,-1.966 -1.778,-6.292 -0.521,-9.384c-8.55,-4.306 -9.503,-16.209 -18.242,-20.327c0.287,-4.664 -4.204,-6.237 -3.651,-9.902c0.93,-6.145 12.387,-2.852 13.033,-8.861c-7.204,3.145 -17.046,4.106 -24.499,9.382c-8.863,6.272 -15.659,23.659 -8.86,34.401c-2.383,-0.223 -4.422,-0.793 -7.297,-0.524c-7.294,-9.98 1.04,-17.952 2.606,-28.665c0.982,-6.697 -0.46,-14.478 5.212,-17.199c7.384,-3.545 15.036,-5.786 17.199,-14.076c-2.267,-12.633 5.487,-18.98 9.382,-27.104c8.599,-7.346 17.917,-10.746 30.753,-11.988c18.667,-1.807 30.692,5.499 48.476,11.988c6.822,2.493 14.116,2.739 19.806,4.693c8.646,2.968 18.994,11.336 29.189,12.509c2.435,0.281 6.538,-1.549 8.339,-0Z"/>
    </g>
  </g>
</svg>
