<?xml version="1.0" encoding="UTF-8" standalone="no"?>
<!DOCTYPE svg PUBLIC "-//W3C//DTD SVG 1.1//EN" "http://www.w3.org/Graphics/SVG/1.1/DTD/svg11.dtd">
<svg width="100%" height="100%" viewBox="0 0 1688 2200" version="1.1" xmlns="http://www.w3.org/2000/svg" xmlns:xlink="http://www.w3.org/1999/xlink" xml:space="preserve" xmlns:serif="http://www.serif.com/" style="fill-rule:evenodd;clip-rule:evenodd;stroke-linecap:round;stroke-linejoin:round;stroke-miterlimit:1.5;">
  <rect id="FREEZESUCCESS" x="0" y="0" width="1688" height="2200" style="fill:none;"/>
  <g id="S">
    <g id="Root-Markers" serif:id="Root Markers">
      <path id="_8" serif:id="8" d="M526.245,1179.16l69.174,-81.853l36.299,62.873l-105.473,18.98Zm48.995,-28.287l17.216,-20.372c-0,0 9.034,15.648 9.034,15.648l-26.25,4.724Z"/>
    </g>
    <g id="Ring">
      <path d="M1255.43,1233c-130.888,226.701 -421.195,304.499 -647.884,173.623c-226.688,-130.876 -304.465,-421.183 -173.577,-647.884c130.889,-226.701 421.196,-304.499 647.884,-173.623c226.688,130.876 304.466,421.183 173.577,647.884Z" style="fill:none;stroke:#000;stroke-width:10px;"/>
      <path d="M1255.43,1233l-26.257,-15.159" style="fill:none;stroke:#000;stroke-width:10px;"/>
      <path d="M460.231,773.897l-26.258,-15.159" style="fill:none;stroke:#000;stroke-width:10px;"/>
      <path d="M622.71,1380.37l-15.16,26.257" style="fill:none;stroke:#000;stroke-width:10px;"/>
      <path d="M1081.86,585.115l-15.16,26.257" style="fill:none;stroke:#000;stroke-width:10px;"/>
      <path d="M1081.85,1406.6l-15.16,-26.256" style="fill:none;stroke:#000;stroke-width:10px;"/>
      <path d="M622.72,611.389l-15.16,-26.257" style="fill:none;stroke:#000;stroke-width:10px;"/>
      <path d="M460.201,1217.86l-26.257,15.159" style="fill:none;stroke:#000;stroke-width:10px;"/>
      <path d="M1255.46,758.721l-26.258,15.159" style="fill:none;stroke:#000;stroke-width:10px;"/>
      <path d="M844.704,1470.16l-0,-30.319" style="fill:none;stroke:#000;stroke-width:10px;"/>
      <path d="M844.704,551.892l-0,-30.319" style="fill:none;stroke:#000;stroke-width:10px;"/>
      <path d="M400.736,995.868l-30.319,0" style="fill:none;stroke:#000;stroke-width:10px;"/>
      <path d="M1318.99,995.868l-30.32,0" style="fill:none;stroke:#000;stroke-width:10px;"/>
    </g>
    <g id="Notes">
      <path id="_81" sound="3F-Low-Ab" serif:id="8" d="M504.492,1277.29c-21.989,38.086 -70.763,51.155 -108.849,29.166c-38.087,-21.989 -51.156,-70.762 -29.167,-108.848c21.99,-38.085 70.764,-51.154 108.85,-29.165c38.087,21.989 51.156,70.762 29.166,108.847Z" style="stroke:#fff;stroke-width:24px;"/>
      <path id="_3" sound="3F-Mid-Eb" serif:id="3" d="M1386.1,1040.32c-21.989,38.086 -70.763,51.154 -108.849,29.166c-38.087,-21.989 -51.156,-70.762 -29.167,-108.848c21.99,-38.086 70.764,-51.154 108.85,-29.165c38.087,21.988 51.156,70.761 29.166,108.847Z" style="stroke:#fff;stroke-width:24px;"/>
      <path id="_1" sound="3F-Mid-Db" serif:id="1" d="M1147.64,635.109c-21.989,38.086 -70.763,51.155 -108.85,29.166c-38.086,-21.989 -51.155,-70.762 -29.166,-108.848c21.989,-38.085 70.763,-51.154 108.85,-29.165c38.086,21.989 51.155,70.762 29.166,108.847Z" style="stroke:#fff;stroke-width:24px;"/>
    </g>
    <g id="Treble-Marker" serif:id="Treble Marker">
      <g id="_0" sound="3F-High-C" serif:id="0">
        <path id="_0u" serif:id="0u" d="M913.712,566.597c-21.99,38.086 -70.763,51.155 -108.85,29.166c-38.087,-21.989 -51.155,-70.762 -29.166,-108.848c21.989,-38.085 70.763,-51.154 108.85,-29.165c38.086,21.989 51.155,70.762 29.166,108.847Z" style="fill:#fff;stroke:#fff;stroke-width:33.33px;"/>
        <circle id="_0a" serif:id="0a" cx="845.704" cy="527.073" r="64" style="fill:#fff;stroke:#000;stroke-width:16.67px;"/>
      </g>
    </g>
  </g>
	<a xlink:href="FREEZESUCCESS-TO-PRECHOICE-2.svg">
  <g id="NEXTLINK">
    <path d="M914,1895c-0,-19.317 -15.683,-35 -35,-35l-70,0c-19.317,0 -35,15.683 -35,35l-0,78c-0,19.317 15.683,35 35,35l70,0c19.317,0 35,-15.683 35,-35l-0,-78Z" style="fill:#fff;"/>
    <path id="next" d="M814.167,1896.5c-0.2,-1.733 -0.4,-7.2 -0.4,-11.067c-0,-0.8 0.066,-1.6 0.066,-2.2l0,-0.266c0,-3.067 -1.6,-5.734 -2.533,-6.867c-0.933,-1.2 -2.933,-2.333 -5.533,-2.4l-0.467,0c-2.2,0 -3.533,0.8 -5.8,2.933c-0.933,0.867 -1.667,1.134 -2.133,1.2c-0.4,0 -0.6,-0.2 -0.734,-0.4c-0.133,-0.333 -0.2,-0.733 -0.2,-1.133c0,-0.4 0,-0.733 0.067,-1.067c-0,-1.133 -1.067,-1.333 -1.867,-1.333c-0.733,0 -2,0.067 -2.266,0.667c-0.067,0.2 -0.134,0.466 -0.134,0.8c0.067,0.4 0.134,0.733 0.134,1.2c0.133,1.866 0.933,6.066 0.933,8.8c-0,2.733 -0.133,6.066 -0.667,10.466c-0.133,0.8 -0.133,1.4 -0.133,1.934c-0,1.933 0.667,2.333 2.2,2.333c0.2,0 0.467,-0.067 0.8,-0.067c1.333,-0.066 1.6,-0.466 1.667,-0.666l-0,-0.467c-0,-0.467 -0.067,-1 -0.134,-1.333c-0.266,-1.467 -0.533,-6.8 -0.533,-9.134c-0,-2.2 0.333,-5.866 1.733,-7.8c1.467,-2 3.667,-3.133 5.667,-3.133l0.933,0c0.4,0 0.867,0 1.267,0.133c0.733,0.134 1.4,0.534 2.333,1.267c1.134,0.867 1.6,2 1.8,3.4c0.134,0.8 0.134,1.733 0.134,2.733l-0,2.134c-0,3.8 -0.534,5.933 -0.8,9.666c-0,0.267 -0.067,0.6 -0.067,0.8c-0,2.467 1.133,2.534 3.133,2.534c1.4,-0 1.734,-0.734 1.734,-1.8c-0,-0.6 -0.134,-1.267 -0.2,-1.867Z" style="fill-rule:nonzero;"/>
    <path d="M848.167,1886.7c-0,-0.067 0.066,-0.133 0.066,-0.267c0,-0.066 -0.066,-0.266 -0.066,-0.466l-0.267,-1.4c-0.467,-2.134 -2.8,-5.667 -4.533,-7.734c-1.734,-1.866 -5.067,-3 -7.867,-3.133l-0.733,0c-2.867,0 -5.134,1.4 -7.467,2.933l-0.533,0.334c-2.534,1.533 -4.334,6.6 -4.467,10.6l-0,0.2c-0,3.8 2.867,8 5.133,10.533c2.2,2.333 6.734,2.4 9,2.4c2.134,0 3.867,-0.533 5,-1.133c0.467,-0.267 1.134,-0.8 1.934,-1.467c0.733,-0.667 1.533,-1.333 2.4,-2c0.666,-0.467 1,-1 1,-1.533c-0,-0.6 -0.334,-1.2 -1.334,-2c-0.333,-0.267 -0.666,-0.4 -0.866,-0.4c-0.334,-0 -0.534,0.2 -0.8,0.4c-0.467,0.533 -0.8,1.2 -1.067,1.866c-0.533,1.2 -3.2,2.534 -6.533,2.534l-0.534,-0c-2.2,-0.067 -4.066,-0.734 -5.733,-2.067l-1,-0.8c-1.067,-0.933 -2.133,-3.6 -2.133,-5.267l-0,-0.466c0.2,-0.8 1.8,-1.267 3.8,-1.334c1.666,0 3.533,0.067 4.533,0.067c1.4,0 5.267,0.067 8.267,0.067c1.533,-0 2.866,-0 3.6,-0.067c1.133,0 1.2,-0.267 1.2,-0.4Zm-4.734,-4.4c0.2,0.333 0.267,0.6 0.267,0.867c-0,0.733 -0.6,1.2 -1.8,1.2c-2.6,-0 -5.467,0.066 -6.6,0.066c-1.2,0 -4.733,-0.066 -5.467,-0.266c-0.733,-0.067 -2.333,-0.934 -2.333,-2.134c-0,-0.4 0.133,-0.8 0.467,-1.2c1.066,-1.466 4,-3.466 7.466,-3.466l0.267,-0c3.133,0.133 4.2,1.066 5.733,2.533c0.667,0.667 1.6,1.533 2,2.4Z" style="fill-rule:nonzero;"/>
    <path d="M877.633,1899.3c-0.133,-1.467 -1.866,-2.933 -2.933,-3.8c-0.867,-0.733 -1.667,-1.667 -2.467,-2.6c-0.733,-0.933 -1.4,-1.867 -1.866,-2.4c-0.534,-0.533 -1.2,-1.067 -1.8,-1.733c-0.534,-0.667 -1.067,-1.4 -1.067,-2.334l-0,-0.266c0.067,-1.4 2.067,-3 3.133,-4c0.4,-0.334 0.667,-0.667 0.867,-0.934c0.333,-0.666 1.067,-1.466 1.867,-2.333l2.533,-3.067c0.4,-0.466 0.667,-0.8 0.667,-1c-0,-0.066 -0.067,-0.066 -0.067,-0.133c-0.2,-0.133 -0.467,-0.2 -0.933,-0.267l-1.4,-0.133c-0.267,0 -0.467,-0.067 -0.667,-0.067c-1.333,0 -2.133,0.534 -2.733,1.934c-0.467,0.933 -1,1.733 -1.534,2.4c-0.466,0.733 -1,1.4 -1.4,2.2c-0.866,1.933 -1.733,3 -2.933,3c-0.667,-0 -1.4,-0.6 -1.933,-1.467c-0.467,-0.733 -0.934,-1.6 -1.4,-2.267l-1.467,-2.066c-0.533,-0.734 -1,-1.534 -1.267,-2.2c-0.4,-1 -1.666,-1.6 -3.2,-1.667c-0.666,0 -1.666,0.067 -1.666,0.867c-0,0.466 0.466,1.133 0.666,1.4c0.667,0.733 2.6,3.4 4.667,5.866c1.067,1.2 1.733,1.867 2.2,2.467c0.4,0.667 0.667,1.2 0.667,2.133c-0,1.4 -0.934,2.534 -1.667,3.334l-2.467,2.666c-0.533,0.6 -1.533,1.667 -2.533,2.867l-3.067,3.133c-0.266,0.267 -0.466,0.4 -0.466,0.534c-0,0.066 0.066,0.066 0.2,0.066c0.266,0.067 0.666,0.134 1.133,0.134c0.533,0.066 1.133,0.066 1.733,0.066c1.134,0 1.534,-0.2 1.8,-0.466c0.267,-0.067 0.334,-0.267 0.6,-0.534l0.8,-0.933c0.6,-0.667 1.2,-1.467 1.734,-2.267l0.2,-0.2c0.466,-0.666 0.933,-1.333 1.466,-1.933c0.534,-0.533 0.867,-1.267 1.267,-1.867c0.533,-0.666 1.2,-1.333 2.267,-1.333c1.533,0 2.333,1.667 3,2.867l0.066,0.266c0.267,0.467 0.334,0.734 0.467,0.867c0.667,0.8 2,2.667 3.467,4.867c0.666,1 1.066,1.133 1.4,1.133c0.266,0 0.6,0 0.866,-0.067c0.334,-0.066 0.734,-0.2 1.134,-0.2l0.533,0c0.867,0 1.4,-0.066 1.533,-0.533Z" style="fill-rule:nonzero;"/>
    <path d="M896.433,1876.1c0,-0.533 -0.266,-0.733 -0.8,-0.933c-0.333,-0.067 -0.733,-0.067 -1.133,-0.067c-0.467,0 -0.867,-0.067 -1.333,-0.067l-1.134,-0.133c-0.333,0 -0.6,-0.067 -0.866,-0.133c-0.6,-0.2 -1,-0.667 -1,-1.334c-0,-0.933 -0,-2.533 0.133,-5.133l-0,-0.267c-0,-1 -0.2,-1.333 -0.4,-1.466c-0.333,-0.267 -1,-0.267 -1.4,-0.267l-0.2,0c-1,0 -1.6,0.8 -1.667,1.2c0,0.067 -0.066,0.2 -0.066,0.267c-0,0.333 0.066,0.866 0.133,1.533c0.133,0.867 0.267,2 0.267,3.133l-0,0.334c-0,1.2 -0.534,1.866 -1.4,2.066c-0.267,0.067 -0.534,0.067 -0.8,0.067c-0.467,0 -1.067,-0.067 -1.534,-0.067c-0.933,0 -1.466,0.6 -1.666,2.6c-0,0.067 -0.067,0.134 -0.067,0.2c-0,0.4 0.267,0.534 0.8,0.667c0.333,0.067 0.667,0.067 1,0.067c0.333,-0 0.667,-0.067 0.933,-0.067c1.067,0 2.467,0.8 2.467,2.267c-0,1.066 0.2,3.4 0.2,6.4c-0,3 -0.4,8.733 -0.4,11.333c-0,1.267 0.2,1.6 0.4,1.733l0.533,0.134l1.2,-0c1.667,-0 2.2,-0.2 2.2,-1.067l0,-0.467c-0.2,-1.866 -0.533,-6.666 -0.6,-9.466c-0.066,-0.934 -0.133,-2.067 -0.133,-3.2c-0,-2.2 0.133,-4.467 0.2,-5.934c0.067,-1.466 0.933,-2.066 2,-2.133l0.2,0c0.8,0 1.533,0.2 2.333,0.267l0.267,-0c0.867,-0 1.333,-0.467 1.333,-2.067Z" style="fill-rule:nonzero;"/>
    <circle cx="824" cy="1958" r="40" style="fill:#fff;stroke:#000;stroke-width:12.5px;"/>
    <circle cx="864" cy="1958" r="40" style="fill:none;stroke:#000;stroke-width:12.5px;"/>
  </g>
	</a>
  <g id="Header">
    <path id="Lyric-Text" serif:id="Lyric Text" d="M174.867,241.433c0.2,-0.333 0.266,-0.533 0.266,-0.666c0,-0.267 -0.2,-0.334 -0.4,-0.4c-0.266,-0.134 -0.666,-0.2 -1.066,-0.267l-1,-0.067c-0.2,0 -0.534,-0.066 -0.8,-0.066c-0.6,-0 -1.2,0.133 -1.267,0.6c-0.133,1.2 -2.067,5.533 -2.8,7.133c-0.733,1.533 -2.333,5.533 -2.867,7.067c-0.533,1.733 -1.466,4 -2.933,4.4c-0.2,0.066 -0.4,0.133 -0.533,0.133c-0.667,0 -1.067,-0.467 -1.334,-1.067c0,-0.266 -0.133,-0.6 -0.2,-1c-0.066,-0.333 -0.133,-0.733 -0.2,-1.066c-0.2,-0.734 -0.6,-1.467 -1.066,-2.467c-0.534,-0.933 -1.067,-2 -1.534,-3.2c-0.933,-2.4 -2.466,-5.867 -3.333,-8.4c-0.867,-2.133 -1.533,-2.267 -3.733,-2.467l-0.467,0c-1,0 -1.4,0.4 -1.4,0.867c-0,0.933 0.933,2.133 1.4,2.6c0.6,0.667 1.333,2.133 2.133,3.6c0.734,1.467 1.6,3.067 2.4,4.333c0.334,0.667 0.734,1.4 1.067,2.2l0.933,2.4c0.667,1.6 1.267,3.134 2.2,4.2c1.2,1.467 1.667,2.867 1.667,4l-0,0.267c-0,0.733 -0.2,1.4 -0.4,1.867c-0.533,0.866 -1.267,2.133 -2.067,4.466c-0.4,1.2 -1.066,2.334 -1.666,3.334c-0.6,1 -1.2,1.933 -1.734,3c-0.2,0.333 -0.333,0.666 -0.333,0.8c-0,0.8 1,0.8 2.667,0.933c0.133,0 0.333,0.067 0.466,0.067c0.8,-0 1.134,-0.267 1.334,-0.534c0.2,-0.266 0.333,-0.533 0.466,-0.933l0.467,-1.333c0.4,-1 0.733,-2 1.067,-2.934c0.4,-1 0.8,-2 1.333,-3c1.067,-2 2.867,-7.4 4.2,-9.933c1.267,-2.467 3,-6.733 4,-8.8c1,-2.067 3.8,-7.467 5.067,-9.667Z" style="fill-rule:nonzero;"/>
    <path d="M207.8,253.167l-0,-0.334c-0,-4.533 -2.133,-7.933 -4.133,-10.066c-2,-2.067 -5.267,-3.734 -9,-3.867l-0.334,0c-6.066,0 -8.733,2.533 -10.666,4.533c-2,2 -3.534,5 -3.534,9.267c0,4.267 2.534,8.4 4.6,10.267c2,1.8 5,3.133 8.867,3.133l0.4,0c4.133,-0.133 7.333,-0.667 10.2,-3.733c2.867,-3.2 3.6,-4.334 3.6,-9.2Zm-3.8,-0.734c-0,2.534 -0.933,6 -2.6,7.267c-0.4,0.2 -0.8,0.533 -1.333,0.867c-1.667,1.133 -3.534,2 -5.534,2c-0.266,-0 -0.533,-0 -0.866,-0.067c-3.2,-0.4 -4.734,-1.067 -6.667,-3.333c-1.933,-2.134 -2.533,-3.867 -2.533,-6.6c-0,-2.667 0.466,-5.2 3.133,-7.2c2.6,-1.934 4.667,-2.2 6.8,-2.2c3.4,-0 5.867,0.933 7.267,3.4c0.666,1.133 1.266,1.866 1.666,2.733c0.334,0.867 0.667,1.8 0.667,3.133Z" style="fill-rule:nonzero;"/>
    <path d="M237.933,242.567c0.067,-0.467 0.067,-0.8 0.067,-1.134c-0,-1.333 -0.467,-1.8 -2.4,-1.933l-0.333,0c-1.467,0 -1.8,0.6 -1.8,1.6c-0,0.333 -0,0.667 0.066,1.067c0.134,1.6 0.4,6.8 0.534,10.2c-0,0.533 0.066,1.066 0.066,1.6c0,2.6 -0.4,4.666 -1.6,6.133c-1.4,1.933 -2.8,2 -4.866,2.067l-0.2,-0c-0.467,0.066 -0.934,0.066 -1.334,0.066c-1.6,0 -2.866,-0.333 -4.133,-2.133c-0.8,-1 -1.2,-2.333 -1.4,-3.8c-0.133,-1.4 -0.2,-3.133 -0.267,-5.067c-0.066,-1.6 -0.066,-2.8 -0.066,-3.933c-0,-1.533 0.066,-2.867 0.2,-4.867l-0,-1.2c-0,-0.733 -0.067,-1 -0.134,-1.133c-0.066,0 -0.2,-0.067 -0.466,-0.133c-0.267,-0 -0.667,-0 -1.067,-0.067l-0.467,0c-1.533,0 -1.866,0.533 -1.866,1.133c-0,1.4 0.333,2.8 0.333,4.734c-0,1.8 0.067,8.2 0.067,11c-0,2.666 1.466,5.333 3.6,6.933c2,1.533 5.533,1.933 7.666,1.933c2.067,0 5.2,-1.333 8,-4.133c1.267,-1.267 1.667,-3.267 1.667,-5.333c-0,-2.067 -0.333,-4.067 -0.333,-5.2c-0,-2.2 0.2,-6.2 0.466,-8.4Z" style="fill-rule:nonzero;"/>
    <path d="M280.067,265.033c0.533,-0.333 1,-0.733 1.333,-1.066c0.333,-0.4 0.667,-0.734 1,-0.934c0.4,-0.4 0.867,-0.6 1.333,-0.6c0.667,0 1.267,0.534 1.267,1.334c-0,0.2 -0,0.4 -0.067,0.6c0,0.066 -0.066,0.133 -0.066,0.2c-0,0.6 0.666,0.666 2.533,0.8l0.333,-0c1,-0 1.2,-0.267 1.334,-0.534l-0,-13.133c-0,-2.2 -0.067,-4.533 -0.067,-6.667c-0,-1.066 -0,-2.066 0.067,-3l-0,-0.333c-0,-1.733 -0.867,-1.8 -2,-1.8l-0.667,0c-0.8,0 -1.2,0.067 -1.2,0.533c-0,0.334 0.067,0.6 0.067,0.8c-0,1.067 -0.4,2 -1.2,2.267c-0.134,0.067 -0.2,0.067 -0.334,0.067c-0.466,-0 -1.066,-0.334 -1.666,-0.867c-0.6,-0.533 -1.067,-1.133 -1.6,-1.667c-0.734,-0.933 -3.467,-1.733 -6,-1.733c-3.734,0 -8,2.4 -10.067,5.267c-1.467,2.133 -2,5.466 -2.267,8.2l0,0.533c0,2.6 1.534,6.8 3.2,8.867c1.734,2.2 4.667,4.2 9.6,4.2c2.4,-0 4,-0.6 5.134,-1.334Zm5.133,-12.266c-0.2,2.8 -1.133,6.133 -3.467,7.866c-1.8,1.4 -3.2,1.734 -5.266,1.734c-0.4,-0 -0.8,-0.067 -1.334,-0.067c-3,-0.2 -5.533,-1.533 -6.6,-3.267c-0.866,-1.6 -1.466,-3.666 -1.466,-6l-0,-0.6c0.133,-2.4 1.133,-6.466 2.4,-7.4c0.933,-0.733 3.8,-1.933 6.2,-1.933c0.4,0 0.8,0 1.2,0.067l1.533,0.333c0.267,0 0.267,0.067 0.333,0.067c0.4,0.133 1,0.2 1.4,0.4c1.2,0.4 2.334,1.133 3.2,2.6l1,1.733c0.067,0.467 0.467,0.933 0.667,1.333c0.2,0.534 0.333,1.134 0.333,1.8c0,0.4 -0.066,0.867 -0.133,1.334Z" style="fill-rule:nonzero;"/>
    <path d="M314.733,239.833c-0.466,-0.2 -2.066,-0.733 -3.866,-0.733c-1.8,0 -4.267,1.6 -5.134,3.267c-0.2,0.4 -0.466,0.8 -0.8,1c-0.2,0.066 -0.333,0.066 -0.4,0.066c-0.333,0 -0.6,-0.2 -0.733,-0.4c-0.2,-0.4 -0.267,-0.933 -0.267,-1.466l0,-0.467c0,-1.133 -1.2,-1.6 -2.066,-1.6c-1.667,0 -1.867,0.533 -1.934,0.867c0,0.066 -0.066,0.133 -0.066,0.266c-0,0.2 0.066,0.534 0.133,0.867c0.067,0.467 0.133,1 0.2,1.467c0.133,2.2 0.133,7.133 0.133,10.066c0,2.867 -0.133,5.867 -0.6,9.734c-0.066,0.666 -0.066,1.2 -0.066,1.533c-0,0.4 0.066,0.6 0.333,0.733c0.133,0.067 0.4,0.067 1,0.067c0.533,-0.067 1.2,-0.133 2,-0.133c1.667,-0 2.067,-1.134 2.067,-2.4c-0,-0.934 -0.267,-2 -0.4,-2.8c-0.267,-1.334 -0.334,-3.8 -0.334,-6.267c0,-1.333 0,-2.6 0.067,-3.733c0.2,-3.6 2.6,-5.6 4.867,-6.134c0.866,-0.2 1.466,-0.266 2.066,-0.266c0.8,-0 1.334,0.133 2.2,0.466c0.134,0 0.334,0.2 0.467,0.2c0.2,0 0.267,-0.066 0.333,-0.266c0.134,-0.067 0.267,-0.334 0.334,-0.667c0.2,-0.333 0.333,-0.733 0.466,-1.2c0.2,-0.667 0.334,-1.133 0.334,-1.4c-0,-0.333 -0.134,-0.533 -0.334,-0.667Z" style="fill-rule:nonzero;"/>
    <path d="M345.4,252.033c-0,-0.066 0.067,-0.133 0.067,-0.266c-0,-0.067 -0.067,-0.267 -0.067,-0.467l-0.267,-1.4c-0.466,-2.133 -2.8,-5.667 -4.533,-7.733c-1.733,-1.867 -5.067,-3 -7.867,-3.134l-0.733,0c-2.867,0 -5.133,1.4 -7.467,2.934l-0.533,0.333c-2.533,1.533 -4.333,6.6 -4.467,10.6l0,0.2c0,3.8 2.867,8 5.134,10.533c2.2,2.334 6.733,2.4 9,2.4c2.133,0 3.866,-0.533 5,-1.133c0.466,-0.267 1.133,-0.8 1.933,-1.467c0.733,-0.666 1.533,-1.333 2.4,-2c0.667,-0.466 1,-1 1,-1.533c-0,-0.6 -0.333,-1.2 -1.333,-2c-0.334,-0.267 -0.667,-0.4 -0.867,-0.4c-0.333,0 -0.533,0.2 -0.8,0.4c-0.467,0.533 -0.8,1.2 -1.067,1.867c-0.533,1.2 -3.2,2.533 -6.533,2.533l-0.533,0c-2.2,-0.067 -4.067,-0.733 -5.734,-2.067l-1,-0.8c-1.066,-0.933 -2.133,-3.6 -2.133,-5.266l-0,-0.467c0.2,-0.8 1.8,-1.267 3.8,-1.333c1.667,-0 3.533,0.066 4.533,0.066c1.4,0 5.267,0.067 8.267,0.067c1.533,0 2.867,0 3.6,-0.067c1.133,0 1.2,-0.266 1.2,-0.4Zm-4.733,-4.4c0.2,0.334 0.266,0.6 0.266,0.867c0,0.733 -0.6,1.2 -1.8,1.2c-2.6,0 -5.466,0.067 -6.6,0.067c-1.2,-0 -4.733,-0.067 -5.466,-0.267c-0.734,-0.067 -2.334,-0.933 -2.334,-2.133c0,-0.4 0.134,-0.8 0.467,-1.2c1.067,-1.467 4,-3.467 7.467,-3.467l0.266,0c3.134,0.133 4.2,1.067 5.734,2.533c0.666,0.667 1.6,1.534 2,2.4Z" style="fill-rule:nonzero;"/>
    <path d="M388.867,263.7c-0,-0.267 -0,-0.533 -0.067,-0.933l-0.133,-1.334c-0.067,-1 -0.267,-1.4 -0.6,-1.4c-0.067,0 -0.267,0.067 -0.467,0.2c-1.2,0.867 -3.2,1.867 -5.933,1.867l-0.867,0c-3.067,-0.333 -4,-0.733 -6.267,-2.333c-2.466,-1.734 -2.933,-4.867 -2.933,-7.334c-0,-2.666 0.8,-5.2 3.133,-7.066c2.4,-1.934 3.6,-2.134 6.267,-2.267l0.467,0c2.533,0 4.2,0.733 5.933,1.933c0.333,0.2 0.6,0.4 0.667,0.4c0.066,0 0.133,-0.066 0.2,-0.133c0.133,-0.2 0.133,-0.467 0.266,-0.867c0.067,-0.466 0.2,-1 0.2,-1.666c0.067,-0.267 0.067,-0.467 0.067,-0.667c-0,-0.667 -0.2,-1 -0.4,-1.2c-0.267,-0.2 -0.467,-0.4 -0.733,-0.533c-0.334,-0.2 -0.667,-0.334 -0.934,-0.6c-1.066,-0.667 -2.8,-0.734 -6.4,-0.934l-0.266,0c-3.6,0 -6.867,2.067 -9.267,4.2c-2.133,2 -3.333,7 -3.333,9.8l-0,0.4c0.133,2.8 1,6.267 3.933,9.2c2.867,2.867 6,3.667 8.867,3.867l0.533,0c1.2,0 2.2,-0.2 3.2,-0.4c1.133,-0.267 2.2,-0.733 3.4,-1.133c1.267,-0.467 1.4,-0.8 1.467,-1.067Z" style="fill-rule:nonzero;"/>
    <path d="M411.267,265.033c0.533,-0.333 1,-0.733 1.333,-1.066c0.333,-0.4 0.667,-0.734 1,-0.934c0.4,-0.4 0.867,-0.6 1.333,-0.6c0.667,0 1.267,0.534 1.267,1.334c-0,0.2 -0,0.4 -0.067,0.6c0,0.066 -0.066,0.133 -0.066,0.2c-0,0.6 0.666,0.666 2.533,0.8l0.333,-0c1,-0 1.2,-0.267 1.334,-0.534l-0,-13.133c-0,-2.2 -0.067,-4.533 -0.067,-6.667c-0,-1.066 -0,-2.066 0.067,-3l-0,-0.333c-0,-1.733 -0.867,-1.8 -2,-1.8l-0.667,0c-0.8,0 -1.2,0.067 -1.2,0.533c-0,0.334 0.067,0.6 0.067,0.8c-0,1.067 -0.4,2 -1.2,2.267c-0.134,0.067 -0.2,0.067 -0.334,0.067c-0.466,-0 -1.066,-0.334 -1.666,-0.867c-0.6,-0.533 -1.067,-1.133 -1.6,-1.667c-0.734,-0.933 -3.467,-1.733 -6,-1.733c-3.734,0 -8,2.4 -10.067,5.267c-1.467,2.133 -2,5.466 -2.267,8.2l0,0.533c0,2.6 1.534,6.8 3.2,8.867c1.734,2.2 4.667,4.2 9.6,4.2c2.4,-0 4,-0.6 5.134,-1.334Zm5.133,-12.266c-0.2,2.8 -1.133,6.133 -3.467,7.866c-1.8,1.4 -3.2,1.734 -5.266,1.734c-0.4,-0 -0.8,-0.067 -1.334,-0.067c-3,-0.2 -5.533,-1.533 -6.6,-3.267c-0.866,-1.6 -1.466,-3.666 -1.466,-6l-0,-0.6c0.133,-2.4 1.133,-6.466 2.4,-7.4c0.933,-0.733 3.8,-1.933 6.2,-1.933c0.4,0 0.8,0 1.2,0.067l1.533,0.333c0.267,0 0.267,0.067 0.333,0.067c0.4,0.133 1,0.2 1.4,0.4c1.2,0.4 2.334,1.133 3.2,2.6l1,1.733c0.067,0.467 0.467,0.933 0.667,1.333c0.2,0.534 0.333,1.134 0.333,1.8c0,0.4 -0.066,0.867 -0.133,1.334Z" style="fill-rule:nonzero;"/>
    <path d="M465.667,263.9c-0,-0.467 -0.067,-1 -0.2,-1.533l-0.267,-1.667c-0.267,-1.8 -0.533,-6.467 -0.533,-10.2l-0,-2.733c-0,-3 -0.534,-4.467 -1.667,-6c-1.333,-1.667 -3.533,-2.334 -5.2,-2.334c-1.667,0 -2.667,0.4 -4,1.2c-0.6,0.334 -1.2,0.8 -1.667,1.267c-0.666,0.6 -1.466,1.067 -1.733,1.2l-0.467,0c-0.8,0 -1.666,-0.4 -2.733,-1.8c-1.067,-1.467 -2.533,-2 -4.267,-2l-0.8,0c-0.333,0 -0.8,0 -1.2,0.133c-0.533,0.2 -1.2,0.6 -2.466,1.534c-0.934,0.733 -1.534,1 -2,1c-0.334,-0 -0.6,-0.2 -0.734,-0.4c-0.2,-0.2 -0.266,-0.534 -0.333,-0.867l-0.067,-0.4c0,-0.067 -0.066,-0.2 -0.066,-0.2c-0.2,-0.667 -1.134,-0.667 -2.334,-0.667c-0.933,0 -1.933,0.534 -1.933,1.667c-0,1.667 0.4,7.067 0.4,9.733c-0,2.6 -0.133,7.2 -0.4,10.6c-0.067,0.6 -0.067,1.067 -0.067,1.534c0,2 0.534,2.466 2.534,2.466c1.666,0 2.066,-0.666 2.066,-1.8c0,-0.466 -0.066,-1 -0.133,-1.6c-0.333,-1.866 -0.6,-6 -0.6,-9l-0,-1.466c0.2,-2.934 1,-4.6 2.133,-6.134c1.067,-1.466 3.334,-2.6 4.934,-2.6l0.333,0c1.6,0.2 2.867,0.934 3.467,2c0.6,1.067 0.8,2.734 0.8,6.4c-0,3.334 -0.467,8.2 -0.734,10.867c-0.066,0.467 -0.2,1.133 -0.2,1.467c0,1.6 0.734,2.333 2.934,2.333c1.333,0 1.666,-0.4 1.8,-0.6c0.133,-0.2 0.133,-0.4 0.133,-0.6c-0,-0.267 -0.067,-0.533 -0.067,-0.8c-0.133,-1.067 -0.8,-7.6 -0.8,-10.6c0,-3.133 1.134,-6.2 1.8,-7.533c0.8,-1.6 3.8,-2.4 5,-2.534l0.467,0c1.2,0 2.333,0.534 3.667,1.734c0.666,0.8 1,1.733 1.133,2.866c0.067,0.467 0.067,0.934 0.067,1.467c-0,0.8 -0.067,1.8 -0.067,3c-0.133,3.8 -0.667,6.8 -1.067,10.333c-0.066,0.467 -0.066,0.8 -0.066,1.134c-0,1.533 0.533,2 1.866,2c0.467,-0 1,-0 1.667,-0.134c1.333,-0.2 1.6,-0.866 1.667,-1.733Z" style="fill-rule:nonzero;"/>
    <path d="M501.267,253.167l-0,-0.334c-0,-4.533 -2.134,-7.933 -4.134,-10.066c-2,-2.067 -5.266,-3.734 -9,-3.867l-0.333,0c-6.067,0 -8.733,2.533 -10.667,4.533c-2,2 -3.533,5 -3.533,9.267c-0,4.267 2.533,8.4 4.6,10.267c2,1.8 5,3.133 8.867,3.133l0.4,0c4.133,-0.133 7.333,-0.667 10.2,-3.733c2.866,-3.2 3.6,-4.334 3.6,-9.2Zm-3.8,-0.734c-0,2.534 -0.934,6 -2.6,7.267c-0.4,0.2 -0.8,0.533 -1.334,0.867c-1.666,1.133 -3.533,2 -5.533,2c-0.267,-0 -0.533,-0 -0.867,-0.067c-3.2,-0.4 -4.733,-1.067 -6.666,-3.333c-1.934,-2.134 -2.534,-3.867 -2.534,-6.6c0,-2.667 0.467,-5.2 3.134,-7.2c2.6,-1.934 4.666,-2.2 6.8,-2.2c3.4,-0 5.866,0.933 7.266,3.4c0.667,1.133 1.267,1.866 1.667,2.733c0.333,0.867 0.667,1.8 0.667,3.133Z" style="fill-rule:nonzero;"/>
    <path d="M531.4,242.567c0.067,-0.467 0.067,-0.8 0.067,-1.134c-0,-1.333 -0.467,-1.8 -2.4,-1.933l-0.334,0c-1.466,0 -1.8,0.6 -1.8,1.6c0,0.333 0,0.667 0.067,1.067c0.133,1.6 0.4,6.8 0.533,10.2c0,0.533 0.067,1.066 0.067,1.6c-0,2.6 -0.4,4.666 -1.6,6.133c-1.4,1.933 -2.8,2 -4.867,2.067l-0.2,-0c-0.466,0.066 -0.933,0.066 -1.333,0.066c-1.6,0 -2.867,-0.333 -4.133,-2.133c-0.8,-1 -1.2,-2.333 -1.4,-3.8c-0.134,-1.4 -0.2,-3.133 -0.267,-5.067c-0.067,-1.6 -0.067,-2.8 -0.067,-3.933c0,-1.533 0.067,-2.867 0.2,-4.867l0,-1.2c0,-0.733 -0.066,-1 -0.133,-1.133c-0.067,0 -0.2,-0.067 -0.467,-0.133c-0.266,-0 -0.666,-0 -1.066,-0.067l-0.467,0c-1.533,0 -1.867,0.533 -1.867,1.133c0,1.4 0.334,2.8 0.334,4.734c-0,1.8 0.066,8.2 0.066,11c0,2.666 1.467,5.333 3.6,6.933c2,1.533 5.534,1.933 7.667,1.933c2.067,0 5.2,-1.333 8,-4.133c1.267,-1.267 1.667,-3.267 1.667,-5.333c-0,-2.067 -0.334,-4.067 -0.334,-5.2c0,-2.2 0.2,-6.2 0.467,-8.4Z" style="fill-rule:nonzero;"/>
    <path d="M563.2,260.567c-0.067,-1.334 -0.333,-2.667 -0.333,-3.267c-0,-0.533 -0.2,-1.2 -0.334,-1.733c-0.066,-0.4 -0.133,-0.8 -0.133,-1.267c-0,-0.467 0.067,-0.867 0.133,-1.4c0.334,-1.133 0.334,-2.067 0.334,-2.933c-0.067,-0.867 -0.2,-1.667 -0.334,-2.334c-0.133,-1.4 -0.133,-6.6 -0.333,-9.066l-0,-1.334c-0,-0.533 -0.067,-1.066 -0.067,-1.466c0,-1.334 0.067,-2.6 0.267,-4c0.067,-0.4 0.067,-0.734 0.067,-1.134c-0,-2 -0.667,-4 -1.134,-5.2c-0.466,-1.333 -1.933,-2.8 -3.266,-3.066l-2.267,-0.8c-0.867,-0.2 -1.933,-0.467 -3.4,-0.467c-1.4,0 -3.4,0.2 -5.133,0.667c-1.134,0.4 -1.934,1.666 -2.667,2.666c-0.2,0.334 -0.4,0.6 -0.733,0.8c-0.6,0.534 -1,2.8 -1,6.2c-0,0.6 -0,1.267 0.066,1.934c0,0.466 0.067,1 0.067,1.4c-0,1.266 -0.133,2 -0.467,2.466c-0.2,0.4 -0.466,0.534 -0.8,0.734l-1,0.333c-1.6,0.467 -2.666,1.333 -2.8,1.867c-0.066,0.2 -0.066,0.266 -0.066,0.466c-0,0.6 0.333,1.267 1.333,1.267c1.667,0 1.933,0.2 2.667,0.933l0.466,0.534c0.667,0.533 1,1.066 1,2c0,0.533 0.067,1.8 0.067,3.066c-0,1.134 -0.067,2.4 -0.267,2.934c-0.066,0.133 -0.133,0.4 -0.133,0.733c-0.067,1.067 -0,2.733 -0.4,3.6c-0.067,0.267 -0.133,0.533 -0.133,0.867c-0,0.266 -0,0.533 0.066,0.866c0,0.667 0.134,1.4 0.134,2.334c-0,0.266 -0.067,0.533 -0.067,0.866c-0,0.267 -0.067,0.534 -0.067,0.8c0,1.867 0.667,2.534 3.134,2.667l0.466,0c1.067,0 1.267,-0.333 1.334,-0.667c-0,-0.133 0.066,-0.333 0.066,-0.466c0,-0.2 -0.066,-0.4 -0.066,-0.6c-0,-0.267 -0.067,-0.6 -0.067,-0.934c-0,-0.2 0.067,-0.333 0.067,-0.533c-0,-0.2 0.066,-0.4 0.066,-0.6c0,-0.733 -0.2,-1.533 -0.266,-2.267c-0.134,-1 -0.334,-2 -0.334,-3c0,-0.933 -0.066,-2 -0.133,-2.933c-0.067,-0.6 -0.067,-1.133 -0.067,-1.6c0,-0.333 0,-0.667 0.067,-0.867l-0,-0.466c-0,-0.4 -0,-0.734 -0.067,-1.2l-0.333,-1.867l-0,-0.267c-0,-0.666 0.133,-1.266 0.467,-1.8c0.333,-0.6 0.666,-1.2 1,-1.6c0.333,-0.6 0.866,-0.666 1.466,-0.666l2.534,-0c1.133,-0.067 1.333,-0.334 1.4,-0.534c0.066,-0.133 0.066,-0.333 0.066,-0.533l0,-0.8c0,-0.133 0.067,-0.267 0.067,-0.467c-0,-0.533 -0.333,-0.8 -1.533,-0.8c-1.534,0 -3.334,-0.2 -4.667,-1.066c-0.667,-0.534 -0.8,-1.6 -0.8,-2.534c-0,-0.6 -0,-1.066 0.067,-1.6c-0,-0.466 -0,-0.933 -0.067,-1.266c-0.067,-0.267 -0.067,-0.467 -0.067,-0.734c0,-1.466 0.4,-3 1.2,-3.666c0.467,-0.334 0.934,-0.667 1.267,-0.934c0.333,-0.266 0.6,-0.6 0.733,-1.066c0.267,-0.6 1.334,-0.8 2.534,-0.8c0.866,-0 1.933,0.133 2.666,0.266c1.734,0.4 3.134,2.867 3.667,5.134c0.133,0.666 0.2,1.733 0.2,3l-0,3.066c-0,2.334 -0.133,4.8 -0.133,5.934c-0,1.133 0.066,3.333 0.2,5.333l-0,0.2c0.066,1.4 0.133,2.8 0.133,3.667l-0,0.733l-0.267,1.333c0,0.267 0,0.534 0.2,0.934c0.134,0.266 0.2,0.866 0.2,1.533c0,0.6 -0.066,1.333 -0.066,2c-0.134,1.6 -0.334,3.2 -0.4,4.067l-0,0.266c-0,1.334 1.2,1.867 2.066,1.867c0.534,0 0.8,-0.133 1.134,-0.267l1.2,-0.933c0.333,-0.133 0.4,-0.733 0.4,-1.467c-0,-0.333 -0.067,-0.666 -0.067,-1.066Z" style="fill-rule:nonzero;"/>
    <path d="M590.2,265.033c0.533,-0.333 1,-0.733 1.333,-1.066c0.334,-0.4 0.667,-0.734 1,-0.934c0.4,-0.4 0.867,-0.6 1.334,-0.6c0.666,0 1.266,0.534 1.266,1.334c0,0.2 0,0.4 -0.066,0.6c-0,0.066 -0.067,0.133 -0.067,0.2c-0,0.6 0.667,0.666 2.533,0.8l0.334,-0c1,-0 1.2,-0.267 1.333,-0.534l-0,-13.133c-0,-2.2 -0.067,-4.533 -0.067,-6.667c0,-1.066 0,-2.066 0.067,-3l-0,-0.333c-0,-1.733 -0.867,-1.8 -2,-1.8l-0.667,0c-0.8,0 -1.2,0.067 -1.2,0.533c0,0.334 0.067,0.6 0.067,0.8c-0,1.067 -0.4,2 -1.2,2.267c-0.133,0.067 -0.2,0.067 -0.333,0.067c-0.467,-0 -1.067,-0.334 -1.667,-0.867c-0.6,-0.533 -1.067,-1.133 -1.6,-1.667c-0.733,-0.933 -3.467,-1.733 -6,-1.733c-3.733,0 -8,2.4 -10.067,5.267c-1.466,2.133 -2,5.466 -2.266,8.2l-0,0.533c-0,2.6 1.533,6.8 3.2,8.867c1.733,2.2 4.666,4.2 9.6,4.2c2.4,-0 4,-0.6 5.133,-1.334Zm5.133,-12.266c-0.2,2.8 -1.133,6.133 -3.466,7.866c-1.8,1.4 -3.2,1.734 -5.267,1.734c-0.4,-0 -0.8,-0.067 -1.333,-0.067c-3,-0.2 -5.534,-1.533 -6.6,-3.267c-0.867,-1.6 -1.467,-3.666 -1.467,-6l-0,-0.6c0.133,-2.4 1.133,-6.466 2.4,-7.4c0.933,-0.733 3.8,-1.933 6.2,-1.933c0.4,0 0.8,0 1.2,0.067l1.533,0.333c0.267,0 0.267,0.067 0.334,0.067c0.4,0.133 1,0.2 1.4,0.4c1.2,0.4 2.333,1.133 3.2,2.6l1,1.733c0.066,0.467 0.466,0.933 0.666,1.333c0.2,0.534 0.334,1.134 0.334,1.8c-0,0.4 -0.067,0.867 -0.134,1.334Z" style="fill-rule:nonzero;"/>
    <path d="M633.6,243.433c0.067,-0.4 0.067,-0.733 0.067,-1.066c-0,-1.6 -0.667,-1.934 -2.067,-2.067c-0.333,-0.067 -0.533,-0.067 -0.8,-0.067c-0.733,0 -0.933,0.2 -0.933,0.667c-0,0.4 0.133,0.8 0.133,1.2c-0,0.4 -0.067,1 -0.6,1.4c-0.133,0.2 -0.333,0.267 -0.6,0.267c-0.4,-0 -0.867,-0.267 -1.4,-0.734c-0.467,-0.533 -1,-1.133 -1.667,-1.533c-1.2,-0.733 -3.6,-1.933 -7,-2.067l-0.2,0c-2.533,0 -5.466,2 -7.066,3.467c-1.534,1.467 -4,4.6 -4,9.867l-0,0.333c0.066,2.8 0.666,4.733 1.6,6.267c0.8,1.4 1.933,2.533 3,3.666l0.333,0.267c2.333,2.333 5.667,2.733 7.333,2.733c1.6,0 3.667,-0.4 4.934,-1.666c1.333,-1.334 2.933,-2 4.066,-2l0.334,-0c0.8,0.133 0.933,0.933 1,1.533c-0,0.6 -0.134,1.533 -0.2,2.733c-0.134,2.467 -0.667,3.8 -1.6,5.534c-1.134,2 -4.4,2.933 -7.6,3.2c-0.2,-0 -0.4,0.066 -0.6,0.066c-3.267,0 -5.934,-2.4 -7,-4.133c-0.467,-0.8 -0.8,-1.067 -1.267,-1.2c-0.2,-0.067 -0.467,-0.067 -0.8,-0.067l-1.333,0c-0.8,0 -1.067,0.467 -1.067,1.067c-0,0.4 0.2,1 0.4,1.333c0.2,0.467 0.667,1 1.2,1.6c0.533,0.6 1.2,1.2 1.8,1.734c1.067,1.066 4,2.333 7.867,2.666l0.733,0c3.467,0 6.467,-1.333 8.133,-2.333c1.667,-0.933 3.667,-4 4.334,-6.333c0.333,-1 0.4,-3.267 0.4,-5.667c-0,-2.667 -0.067,-5.533 -0.134,-7.4c-0.066,-1.267 -0.066,-2.867 -0.066,-4.6c-0,-3.2 0.066,-6.733 0.333,-8.667Zm-3.733,9.467c-0,1.933 -0.134,4.333 -1.8,6.467c-1.6,2 -3.334,3.6 -7.334,3.6l-0.4,-0c-2.133,-0.067 -3.6,-0.534 -4.6,-1.2c-1,-0.667 -1.666,-1.4 -2.333,-2.267c-1.333,-1.533 -2,-3.733 -2.067,-6.4l0,-0.667c0,-2.533 0.534,-4.733 2.334,-6.8c2,-2.266 4.8,-2.533 7.066,-2.533c3,0 5.534,1 7.067,3.067c1.533,2.066 2.067,4.666 2.067,6.733Z" style="fill-rule:nonzero;"/>
    <path d="M668.667,252.033c-0,-0.066 0.066,-0.133 0.066,-0.266c0,-0.067 -0.066,-0.267 -0.066,-0.467l-0.267,-1.4c-0.467,-2.133 -2.8,-5.667 -4.533,-7.733c-1.734,-1.867 -5.067,-3 -7.867,-3.134l-0.733,0c-2.867,0 -5.134,1.4 -7.467,2.934l-0.533,0.333c-2.534,1.533 -4.334,6.6 -4.467,10.6l-0,0.2c-0,3.8 2.867,8 5.133,10.533c2.2,2.334 6.734,2.4 9,2.4c2.134,0 3.867,-0.533 5,-1.133c0.467,-0.267 1.134,-0.8 1.934,-1.467c0.733,-0.666 1.533,-1.333 2.4,-2c0.666,-0.466 1,-1 1,-1.533c-0,-0.6 -0.334,-1.2 -1.334,-2c-0.333,-0.267 -0.666,-0.4 -0.866,-0.4c-0.334,0 -0.534,0.2 -0.8,0.4c-0.467,0.533 -0.8,1.2 -1.067,1.867c-0.533,1.2 -3.2,2.533 -6.533,2.533l-0.534,0c-2.2,-0.067 -4.066,-0.733 -5.733,-2.067l-1,-0.8c-1.067,-0.933 -2.133,-3.6 -2.133,-5.266l-0,-0.467c0.2,-0.8 1.8,-1.267 3.8,-1.333c1.666,-0 3.533,0.066 4.533,0.066c1.4,0 5.267,0.067 8.267,0.067c1.533,0 2.866,0 3.6,-0.067c1.133,0 1.2,-0.266 1.2,-0.4Zm-4.734,-4.4c0.2,0.334 0.267,0.6 0.267,0.867c-0,0.733 -0.6,1.2 -1.8,1.2c-2.6,0 -5.467,0.067 -6.6,0.067c-1.2,-0 -4.733,-0.067 -5.467,-0.267c-0.733,-0.067 -2.333,-0.933 -2.333,-2.133c-0,-0.4 0.133,-0.8 0.467,-1.2c1.066,-1.467 4,-3.467 7.466,-3.467l0.267,0c3.133,0.133 4.2,1.067 5.733,2.533c0.667,0.667 1.6,1.534 2,2.4Z" style="fill-rule:nonzero;"/>
    <path d="M700.8,223.433c-0,-0.533 -0.067,-0.866 -0.133,-1c-0.267,-0.466 -0.867,-0.466 -2.067,-0.6c-0.133,0 -0.267,-0.066 -0.4,-0.066l-0.467,-0c-1.266,-0 -1.533,0.466 -1.666,1c-0.067,0.266 -0.067,0.533 -0.067,0.866l-0,0.8l0.2,2.067c0.2,3 0.267,7.933 0.467,10.667c0.066,0.866 0.133,1.533 0.133,2.066c-0,1.267 -0.267,1.934 -1.067,2.6c-0.333,0.267 -0.666,0.4 -1,0.4c-0.4,0 -0.8,-0.133 -1.2,-0.333c-0.6,-0.333 -1.466,-0.933 -2.533,-1.6c-1.333,-0.867 -2.933,-1 -4.467,-1c-0.666,0 -1.333,0.067 -1.933,0.067c-2.4,0.066 -5.8,2.2 -7.6,4.2c-1.667,1.933 -2.933,6.133 -2.933,9.933c-0,3.733 2,7.333 4.266,9.467c2.267,2.133 5.467,3.4 7.934,3.4c2.533,-0 5.2,-0.6 7,-2.667c0.933,-1.133 1.733,-1.533 2.2,-1.533c0.8,-0 1.2,0.866 1.4,1.933c0.066,0.467 0.066,0.733 0.333,0.933c0.133,0.067 0.267,0.067 0.667,0.134l1.466,0.2l0.334,-0c0.8,-0 0.933,-0.334 1,-0.734l-0,-1.2l-0.267,-1.533c-0.267,-1.867 -0.667,-10.133 -0.667,-13.467l0,-0.933l0.4,-4.333c0.067,-0.934 0.134,-1.734 0.134,-2.534c-0,-0.466 -0,-0.866 -0.067,-1.2c-0.067,-0.4 -0.133,-1 -0.133,-1.733c-0,-1.067 0.266,-3.6 0.266,-4l0,-0.6c0.067,-2.733 0.334,-5.667 0.334,-7.467c-0,-0.866 0.066,-1.6 0.133,-2.2Zm-4.4,26.334c0.333,1 0.533,2 0.533,2.866c0,1.2 -0.266,2.4 -0.8,3.667c-0.4,1.133 -0.933,1.933 -1.533,2.667c-0.533,0.6 -1.133,1.133 -1.667,1.733c-1.066,1.067 -3,1.467 -4.6,1.467c-0.333,-0 -0.6,-0 -0.8,-0.067l-1.2,0c-0.333,0 -0.8,0 -1.333,-0.133c-0.933,-0.267 -2,-0.867 -3.667,-2.2c-1.6,-1.334 -2.4,-2.534 -2.733,-3.667c-0.267,-0.533 -0.267,-1 -0.333,-1.533c-0,-0 -0,-0.067 -0.134,-1.534l0,-0.466c0,-2 0.667,-4.534 2.2,-6.534c1.6,-2.066 2.934,-2.933 5.667,-2.933l0.8,0c3.133,0.067 5.533,0.6 6.8,2c1.067,1.2 2,2.4 2.8,4.667Z" style="fill-rule:nonzero;"/>
    <path d="M717.467,261.633c0.4,-0.533 0.533,-1 0.533,-1.4c-0,-1 -1.467,-1.266 -2.533,-1.266c-0.934,-0 -2.934,0.333 -3.267,1.133l-0.4,0.733l-0.533,0.8c-0.334,0.534 -0.667,1.334 -0.867,2.467c-0.267,1.333 -0.8,2.667 -1.333,3.933c-0.534,1.2 -1.067,2.4 -1.467,3.6c-0.2,0.667 -0.4,1 -0.4,1.267c-0,0.133 0.067,0.2 0.133,0.267c0.134,0.133 1.2,0.2 1.4,0.2c0.267,0.066 0.467,0.066 0.667,0.066c1.067,0 1.267,-0.4 1.467,-0.933c0.4,-0.933 1.666,-2.933 2.8,-4.733c1.2,-1.867 1.733,-3.267 3.8,-6.134Z" style="fill-rule:nonzero;"/>
    <path d="M754.6,241.433c-0,-0.533 -0.267,-0.733 -0.8,-0.933c-0.333,-0.067 -0.733,-0.067 -1.133,-0.067c-0.467,0 -0.867,-0.066 -1.334,-0.066l-1.133,-0.134c-0.333,0 -0.6,-0.066 -0.867,-0.133c-0.6,-0.2 -1,-0.667 -1,-1.333c0,-0.934 0,-2.534 0.134,-5.134l-0,-0.266c-0,-1 -0.2,-1.334 -0.4,-1.467c-0.334,-0.267 -1,-0.267 -1.4,-0.267l-0.2,0c-1,0 -1.6,0.8 -1.667,1.2c-0,0.067 -0.067,0.2 -0.067,0.267c0,0.333 0.067,0.867 0.134,1.533c0.133,0.867 0.266,2 0.266,3.134l0,0.333c0,1.2 -0.533,1.867 -1.4,2.067c-0.266,0.066 -0.533,0.066 -0.8,0.066c-0.466,0 -1.066,-0.066 -1.533,-0.066c-0.933,-0 -1.467,0.6 -1.667,2.6c0,0.066 -0.066,0.133 -0.066,0.2c-0,0.4 0.266,0.533 0.8,0.666c0.333,0.067 0.666,0.067 1,0.067c0.333,0 0.666,-0.067 0.933,-0.067c1.067,0 2.467,0.8 2.467,2.267c-0,1.067 0.2,3.4 0.2,6.4c-0,3 -0.4,8.733 -0.4,11.333c-0,1.267 0.2,1.6 0.4,1.734l0.533,0.133l1.2,0c1.667,0 2.2,-0.2 2.2,-1.067l-0,-0.466c-0.2,-1.867 -0.533,-6.667 -0.6,-9.467c-0.067,-0.933 -0.133,-2.067 -0.133,-3.2c-0,-2.2 0.133,-4.467 0.2,-5.933c0.066,-1.467 0.933,-2.067 2,-2.134l0.2,0c0.8,0 1.533,0.2 2.333,0.267l0.267,0c0.866,0 1.333,-0.467 1.333,-2.067Z" style="fill-rule:nonzero;"/>
    <path d="M784.933,263.433l0,-0.4c0,-0.533 -0.066,-1 -0.133,-1.533c-0.133,-1.133 -0.2,-4.333 -0.2,-7.133c-0,-1.8 -0,-3.534 0.067,-4.534l-0,-0.466c-0,-2.467 -0.734,-5.534 -1.867,-7.267c-1.133,-1.733 -4.467,-2.867 -6.2,-3c-0.333,0 -0.733,-0.067 -1.133,-0.067c-1.534,0 -3.267,0.334 -5.134,1.734c-0.933,0.733 -1.6,1 -2.066,1c-0.4,-0 -0.6,-0.134 -0.8,-0.334c-0.4,-0.4 -0.4,-1.133 -0.467,-1.666c-0.2,-0.6 -0.267,-1.267 -0.267,-2.067c0,-0.867 0.067,-1.8 0.2,-3c0.267,-2.333 0.534,-6.267 0.667,-10.133l-0,-0.4c-0,-1.667 -0.333,-2.134 -0.6,-2.4c-0.2,-0.2 -0.4,-0.267 -0.8,-0.334l-1.6,0c-1.533,0 -2,0.667 -2,1.867c-0,1.733 -0,4.933 0.2,8.933c0.267,4.067 0.467,13.467 0.467,16.067c-0,2.6 -0.2,11.4 -0.4,14.133c-0.067,0.534 -0.134,1 -0.134,1.334c0,1.133 0.467,1.4 2.334,1.6l0.4,-0c1.533,-0 1.8,-0.734 1.8,-1.6c-0,-0.267 -0.067,-0.534 -0.067,-0.8c-0.067,-0.8 -0.133,-3.334 -0.133,-6.067c-0,-2.733 0.066,-5.667 0.133,-7.133c0.2,-3.334 1.867,-4.734 3.067,-5.667c1.333,-1 3.8,-1.6 4.933,-1.6c0.2,0 0.533,0 0.867,0.067c1.333,0.066 2.333,0.6 3.333,1.733c1.333,1.6 1.4,3.8 1.4,5.867l-0,0.866c-0,2 -0.467,8.667 -0.733,11c-0.067,0.4 -0.067,0.8 -0.067,1.134c-0,1.333 0.467,2 2.733,2.2l0.4,-0c1.134,-0 1.534,-0.467 1.667,-1c0.067,-0.267 0.133,-0.6 0.133,-0.934Z" style="fill-rule:nonzero;"/>
    <path d="M819.6,252.033c-0,-0.066 0.067,-0.133 0.067,-0.266c-0,-0.067 -0.067,-0.267 -0.067,-0.467l-0.267,-1.4c-0.466,-2.133 -2.8,-5.667 -4.533,-7.733c-1.733,-1.867 -5.067,-3 -7.867,-3.134l-0.733,0c-2.867,0 -5.133,1.4 -7.467,2.934l-0.533,0.333c-2.533,1.533 -4.333,6.6 -4.467,10.6l0,0.2c0,3.8 2.867,8 5.134,10.533c2.2,2.334 6.733,2.4 9,2.4c2.133,0 3.866,-0.533 5,-1.133c0.466,-0.267 1.133,-0.8 1.933,-1.467c0.733,-0.666 1.533,-1.333 2.4,-2c0.667,-0.466 1,-1 1,-1.533c-0,-0.6 -0.333,-1.2 -1.333,-2c-0.334,-0.267 -0.667,-0.4 -0.867,-0.4c-0.333,0 -0.533,0.2 -0.8,0.4c-0.467,0.533 -0.8,1.2 -1.067,1.867c-0.533,1.2 -3.2,2.533 -6.533,2.533l-0.533,0c-2.2,-0.067 -4.067,-0.733 -5.734,-2.067l-1,-0.8c-1.066,-0.933 -2.133,-3.6 -2.133,-5.266l-0,-0.467c0.2,-0.8 1.8,-1.267 3.8,-1.333c1.667,-0 3.533,0.066 4.533,0.066c1.4,0 5.267,0.067 8.267,0.067c1.533,0 2.867,0 3.6,-0.067c1.133,0 1.2,-0.266 1.2,-0.4Zm-4.733,-4.4c0.2,0.334 0.266,0.6 0.266,0.867c0,0.733 -0.6,1.2 -1.8,1.2c-2.6,0 -5.466,0.067 -6.6,0.067c-1.2,-0 -4.733,-0.067 -5.466,-0.267c-0.734,-0.067 -2.334,-0.933 -2.334,-2.133c0,-0.4 0.134,-0.8 0.467,-1.2c1.067,-1.467 4,-3.467 7.467,-3.467l0.266,0c3.134,0.133 4.2,1.067 5.734,2.533c0.666,0.667 1.6,1.534 2,2.4Z" style="fill-rule:nonzero;"/>
    <path d="M870.267,252.1l-0,-0.533c-0,-3.534 -2.067,-6.667 -3.8,-8.8c-1.667,-2 -5.467,-3.534 -8.734,-3.667c-3.066,0 -5.933,1.933 -7.866,3.867c-0.534,0.466 -0.934,0.733 -1.267,0.733c-0.333,0 -0.6,-0.2 -0.733,-0.4c-0.2,-0.267 -0.267,-0.867 -0.267,-1.667l-0,-0.866c-0,-0.934 -0.467,-1 -2,-1.134l-0.267,0c-1.2,0 -1.533,0.8 -1.533,1.8c-0,0.667 0.133,1.334 0.2,1.867c0.2,1.467 0.333,10 0.333,15.133c0,1.534 0,2.667 -0.066,3.4c-0.134,3.267 -0.267,11.934 -0.534,14.4c0,0.2 -0.066,0.267 -0.066,0.4c-0,1.4 0.933,1.867 2.2,1.867c0.133,0 0.333,-0.067 0.533,-0.067c1.667,-0.066 2.2,-0.666 2.2,-1l-0,-0.333c-0,-0.467 -0,-1.067 -0.067,-1.867c-0.133,-0.933 -0.266,-2.066 -0.266,-2.933c-0.067,-0.467 -0.067,-0.933 -0.067,-1.533l-0,-1c-0,-1.334 -0,-2.667 -0.267,-4.2c-0.066,-0.6 -0.133,-1.134 -0.133,-1.534c-0,-1.533 0.467,-2.2 1.533,-2.333l0.267,0c0.533,0 1,0.4 1.333,0.733c0.467,0.4 0.8,0.934 1.134,1.4c0.666,0.867 1.333,1.6 6.133,1.6c2.333,0 3.733,-0.4 4.933,-1.066c0.534,-0.334 1.134,-0.734 1.667,-1.2l1.867,-1.467c2.533,-1.933 3.6,-5.733 3.6,-9.6Zm-3.734,0.533l-0.2,2.667c-0.266,2.467 -0.933,3.533 -3.066,5.067c-1.334,1 -2.2,1.4 -3,1.666c-0.4,0.067 -0.8,0.067 -1.267,0.067c-0.067,0 -0.267,0.067 -0.4,0.067c-0.333,-0 -0.6,-0.067 -1,-0.067c-2.2,0 -4.333,-0.267 -6.4,-1.933c-2.133,-1.667 -3.467,-4.8 -3.467,-8.2c0,-3.467 1.534,-6.2 4,-7.8c0.6,-0.334 1.067,-0.667 1.534,-0.867l1.133,-0.533c0.8,-0.334 1.533,-0.334 2.733,-0.334c2.734,0 5,1.067 6.267,2.534c0.267,0.333 0.667,0.666 1,1.133c0.4,0.4 0.8,0.933 1.133,1.533c0.534,1.067 1,2.467 1,4.134l0,0.866Z" style="fill-rule:nonzero;"/>
    <path d="M894.733,239.833c-0.466,-0.2 -2.066,-0.733 -3.866,-0.733c-1.8,0 -4.267,1.6 -5.134,3.267c-0.2,0.4 -0.466,0.8 -0.8,1c-0.2,0.066 -0.333,0.066 -0.4,0.066c-0.333,0 -0.6,-0.2 -0.733,-0.4c-0.2,-0.4 -0.267,-0.933 -0.267,-1.466l0,-0.467c0,-1.133 -1.2,-1.6 -2.066,-1.6c-1.667,0 -1.867,0.533 -1.934,0.867c0,0.066 -0.066,0.133 -0.066,0.266c-0,0.2 0.066,0.534 0.133,0.867c0.067,0.467 0.133,1 0.2,1.467c0.133,2.2 0.133,7.133 0.133,10.066c0,2.867 -0.133,5.867 -0.6,9.734c-0.066,0.666 -0.066,1.2 -0.066,1.533c-0,0.4 0.066,0.6 0.333,0.733c0.133,0.067 0.4,0.067 1,0.067c0.533,-0.067 1.2,-0.133 2,-0.133c1.667,-0 2.067,-1.134 2.067,-2.4c-0,-0.934 -0.267,-2 -0.4,-2.8c-0.267,-1.334 -0.334,-3.8 -0.334,-6.267c0,-1.333 0,-2.6 0.067,-3.733c0.2,-3.6 2.6,-5.6 4.867,-6.134c0.866,-0.2 1.466,-0.266 2.066,-0.266c0.8,-0 1.334,0.133 2.2,0.466c0.134,0 0.334,0.2 0.467,0.2c0.2,0 0.267,-0.066 0.333,-0.266c0.134,-0.067 0.267,-0.334 0.334,-0.667c0.2,-0.333 0.333,-0.733 0.466,-1.2c0.2,-0.667 0.334,-1.133 0.334,-1.4c-0,-0.333 -0.134,-0.533 -0.334,-0.667Z" style="fill-rule:nonzero;"/>
    <path d="M925.4,252.033c-0,-0.066 0.067,-0.133 0.067,-0.266c-0,-0.067 -0.067,-0.267 -0.067,-0.467l-0.267,-1.4c-0.466,-2.133 -2.8,-5.667 -4.533,-7.733c-1.733,-1.867 -5.067,-3 -7.867,-3.134l-0.733,0c-2.867,0 -5.133,1.4 -7.467,2.934l-0.533,0.333c-2.533,1.533 -4.333,6.6 -4.467,10.6l0,0.2c0,3.8 2.867,8 5.134,10.533c2.2,2.334 6.733,2.4 9,2.4c2.133,0 3.866,-0.533 5,-1.133c0.466,-0.267 1.133,-0.8 1.933,-1.467c0.733,-0.666 1.533,-1.333 2.4,-2c0.667,-0.466 1,-1 1,-1.533c-0,-0.6 -0.333,-1.2 -1.333,-2c-0.334,-0.267 -0.667,-0.4 -0.867,-0.4c-0.333,0 -0.533,0.2 -0.8,0.4c-0.467,0.533 -0.8,1.2 -1.067,1.867c-0.533,1.2 -3.2,2.533 -6.533,2.533l-0.533,0c-2.2,-0.067 -4.067,-0.733 -5.734,-2.067l-1,-0.8c-1.066,-0.933 -2.133,-3.6 -2.133,-5.266l-0,-0.467c0.2,-0.8 1.8,-1.267 3.8,-1.333c1.667,-0 3.533,0.066 4.533,0.066c1.4,0 5.267,0.067 8.267,0.067c1.533,0 2.867,0 3.6,-0.067c1.133,0 1.2,-0.266 1.2,-0.4Zm-4.733,-4.4c0.2,0.334 0.266,0.6 0.266,0.867c0,0.733 -0.6,1.2 -1.8,1.2c-2.6,0 -5.466,0.067 -6.6,0.067c-1.2,-0 -4.733,-0.067 -5.466,-0.267c-0.734,-0.067 -2.334,-0.933 -2.334,-2.133c0,-0.4 0.134,-0.8 0.467,-1.2c1.067,-1.467 4,-3.467 7.467,-3.467l0.266,0c3.134,0.133 4.2,1.067 5.734,2.533c0.666,0.667 1.6,1.534 2,2.4Z" style="fill-rule:nonzero;"/>
    <path d="M957.533,223.433c0,-0.533 -0.066,-0.866 -0.133,-1c-0.267,-0.466 -0.867,-0.466 -2.067,-0.6c-0.133,0 -0.266,-0.066 -0.4,-0.066l-0.466,-0c-1.267,-0 -1.534,0.466 -1.667,1c-0.067,0.266 -0.067,0.533 -0.067,0.866l0,0.8l0.2,2.067c0.2,3 0.267,7.933 0.467,10.667c0.067,0.866 0.133,1.533 0.133,2.066c0,1.267 -0.266,1.934 -1.066,2.6c-0.334,0.267 -0.667,0.4 -1,0.4c-0.4,0 -0.8,-0.133 -1.2,-0.333c-0.6,-0.333 -1.467,-0.933 -2.534,-1.6c-1.333,-0.867 -2.933,-1 -4.466,-1c-0.667,0 -1.334,0.067 -1.934,0.067c-2.4,0.066 -5.8,2.2 -7.6,4.2c-1.666,1.933 -2.933,6.133 -2.933,9.933c-0,3.733 2,7.333 4.267,9.467c2.266,2.133 5.466,3.4 7.933,3.4c2.533,-0 5.2,-0.6 7,-2.667c0.933,-1.133 1.733,-1.533 2.2,-1.533c0.8,-0 1.2,0.866 1.4,1.933c0.067,0.467 0.067,0.733 0.333,0.933c0.134,0.067 0.267,0.067 0.667,0.134l1.467,0.2l0.333,-0c0.8,-0 0.933,-0.334 1,-0.734l-0,-1.2l-0.267,-1.533c-0.266,-1.867 -0.666,-10.133 -0.666,-13.467l-0,-0.933l0.4,-4.333c0.066,-0.934 0.133,-1.734 0.133,-2.534c-0,-0.466 -0,-0.866 -0.067,-1.2c-0.066,-0.4 -0.133,-1 -0.133,-1.733c-0,-1.067 0.267,-3.6 0.267,-4l-0,-0.6c0.066,-2.733 0.333,-5.667 0.333,-7.467c-0,-0.866 0.067,-1.6 0.133,-2.2Zm-4.4,26.334c0.334,1 0.534,2 0.534,2.866c-0,1.2 -0.267,2.4 -0.8,3.667c-0.4,1.133 -0.934,1.933 -1.534,2.667c-0.533,0.6 -1.133,1.133 -1.666,1.733c-1.067,1.067 -3,1.467 -4.6,1.467c-0.334,-0 -0.6,-0 -0.8,-0.067l-1.2,0c-0.334,0 -0.8,0 -1.334,-0.133c-0.933,-0.267 -2,-0.867 -3.666,-2.2c-1.6,-1.334 -2.4,-2.534 -2.734,-3.667c-0.266,-0.533 -0.266,-1 -0.333,-1.533c-0,-0 -0,-0.067 -0.133,-1.534l-0,-0.466c-0,-2 0.666,-4.534 2.2,-6.534c1.6,-2.066 2.933,-2.933 5.666,-2.933l0.8,0c3.134,0.067 5.534,0.6 6.8,2c1.067,1.2 2,2.4 2.8,4.667Z" style="fill-rule:nonzero;"/>
    <path d="M982.933,265.033c0.534,-0.333 1,-0.733 1.334,-1.066c0.333,-0.4 0.666,-0.734 1,-0.934c0.4,-0.4 0.866,-0.6 1.333,-0.6c0.667,0 1.267,0.534 1.267,1.334c-0,0.2 -0,0.4 -0.067,0.6c-0,0.066 -0.067,0.133 -0.067,0.2c0,0.6 0.667,0.666 2.534,0.8l0.333,-0c1,-0 1.2,-0.267 1.333,-0.534l0,-13.133c0,-2.2 -0.066,-4.533 -0.066,-6.667c-0,-1.066 -0,-2.066 0.066,-3l0,-0.333c0,-1.733 -0.866,-1.8 -2,-1.8l-0.666,0c-0.8,0 -1.2,0.067 -1.2,0.533c-0,0.334 0.066,0.6 0.066,0.8c0,1.067 -0.4,2 -1.2,2.267c-0.133,0.067 -0.2,0.067 -0.333,0.067c-0.467,-0 -1.067,-0.334 -1.667,-0.867c-0.6,-0.533 -1.066,-1.133 -1.6,-1.667c-0.733,-0.933 -3.466,-1.733 -6,-1.733c-3.733,0 -8,2.4 -10.066,5.267c-1.467,2.133 -2,5.466 -2.267,8.2l-0,0.533c-0,2.6 1.533,6.8 3.2,8.867c1.733,2.2 4.667,4.2 9.6,4.2c2.4,-0 4,-0.6 5.133,-1.334Zm5.134,-12.266c-0.2,2.8 -1.134,6.133 -3.467,7.866c-1.8,1.4 -3.2,1.734 -5.267,1.734c-0.4,-0 -0.8,-0.067 -1.333,-0.067c-3,-0.2 -5.533,-1.533 -6.6,-3.267c-0.867,-1.6 -1.467,-3.666 -1.467,-6l0,-0.6c0.134,-2.4 1.134,-6.466 2.4,-7.4c0.934,-0.733 3.8,-1.933 6.2,-1.933c0.4,0 0.8,0 1.2,0.067l1.534,0.333c0.266,0 0.266,0.067 0.333,0.067c0.4,0.133 1,0.2 1.4,0.4c1.2,0.4 2.333,1.133 3.2,2.6l1,1.733c0.067,0.467 0.467,0.933 0.667,1.333c0.2,0.534 0.333,1.134 0.333,1.8c-0,0.4 -0.067,0.867 -0.133,1.334Z" style="fill-rule:nonzero;"/>
    <path d="M1013.93,241.433c0,-0.533 -0.266,-0.733 -0.8,-0.933c-0.333,-0.067 -0.733,-0.067 -1.133,-0.067c-0.467,0 -0.867,-0.066 -1.333,-0.066l-1.134,-0.134c-0.333,0 -0.6,-0.066 -0.866,-0.133c-0.6,-0.2 -1,-0.667 -1,-1.333c-0,-0.934 -0,-2.534 0.133,-5.134l-0,-0.266c-0,-1 -0.2,-1.334 -0.4,-1.467c-0.333,-0.267 -1,-0.267 -1.4,-0.267l-0.2,0c-1,0 -1.6,0.8 -1.667,1.2c0,0.067 -0.066,0.2 -0.066,0.267c-0,0.333 0.066,0.867 0.133,1.533c0.133,0.867 0.267,2 0.267,3.134l-0,0.333c-0,1.2 -0.534,1.867 -1.4,2.067c-0.267,0.066 -0.534,0.066 -0.8,0.066c-0.467,0 -1.067,-0.066 -1.534,-0.066c-0.933,-0 -1.466,0.6 -1.666,2.6c-0,0.066 -0.067,0.133 -0.067,0.2c-0,0.4 0.267,0.533 0.8,0.666c0.333,0.067 0.667,0.067 1,0.067c0.333,0 0.667,-0.067 0.933,-0.067c1.067,0 2.467,0.8 2.467,2.267c-0,1.067 0.2,3.4 0.2,6.4c-0,3 -0.4,8.733 -0.4,11.333c-0,1.267 0.2,1.6 0.4,1.734l0.533,0.133l1.2,0c1.667,0 2.2,-0.2 2.2,-1.067l0,-0.466c-0.2,-1.867 -0.533,-6.667 -0.6,-9.467c-0.066,-0.933 -0.133,-2.067 -0.133,-3.2c-0,-2.2 0.133,-4.467 0.2,-5.933c0.067,-1.467 0.933,-2.067 2,-2.134l0.2,0c0.8,0 1.533,0.2 2.333,0.267l0.267,0c0.867,0 1.333,-0.467 1.333,-2.067Z" style="fill-rule:nonzero;"/>
    <path d="M1046.53,253.167l0,-0.334c0,-4.533 -2.133,-7.933 -4.133,-10.066c-2,-2.067 -5.267,-3.734 -9,-3.867l-0.333,0c-6.067,0 -8.734,2.533 -10.667,4.533c-2,2 -3.533,5 -3.533,9.267c-0,4.267 2.533,8.4 4.6,10.267c2,1.8 5,3.133 8.866,3.133l0.4,0c4.134,-0.133 7.334,-0.667 10.2,-3.733c2.867,-3.2 3.6,-4.334 3.6,-9.2Zm-3.8,-0.734c0,2.534 -0.933,6 -2.6,7.267c-0.4,0.2 -0.8,0.533 -1.333,0.867c-1.667,1.133 -3.533,2 -5.533,2c-0.267,-0 -0.534,-0 -0.867,-0.067c-3.2,-0.4 -4.733,-1.067 -6.667,-3.333c-1.933,-2.134 -2.533,-3.867 -2.533,-6.6c-0,-2.667 0.467,-5.2 3.133,-7.2c2.6,-1.934 4.667,-2.2 6.8,-2.2c3.4,-0 5.867,0.933 7.267,3.4c0.667,1.133 1.267,1.866 1.667,2.733c0.333,0.867 0.666,1.8 0.666,3.133Z" style="fill-rule:nonzero;"/>
    <path d="M1069.67,239.833c-0.467,-0.2 -2.067,-0.733 -3.867,-0.733c-1.8,0 -4.267,1.6 -5.133,3.267c-0.2,0.4 -0.467,0.8 -0.8,1c-0.2,0.066 -0.334,0.066 -0.4,0.066c-0.334,0 -0.6,-0.2 -0.734,-0.4c-0.2,-0.4 -0.266,-0.933 -0.266,-1.466l-0,-0.467c-0,-1.133 -1.2,-1.6 -2.067,-1.6c-1.667,0 -1.867,0.533 -1.933,0.867c-0,0.066 -0.067,0.133 -0.067,0.266c-0,0.2 0.067,0.534 0.133,0.867c0.067,0.467 0.134,1 0.2,1.467c0.134,2.2 0.134,7.133 0.134,10.066c-0,2.867 -0.134,5.867 -0.6,9.734c-0.067,0.666 -0.067,1.2 -0.067,1.533c-0,0.4 0.067,0.6 0.333,0.733c0.134,0.067 0.4,0.067 1,0.067c0.534,-0.067 1.2,-0.133 2,-0.133c1.667,-0 2.067,-1.134 2.067,-2.4c-0,-0.934 -0.267,-2 -0.4,-2.8c-0.267,-1.334 -0.333,-3.8 -0.333,-6.267c-0,-1.333 -0,-2.6 0.066,-3.733c0.2,-3.6 2.6,-5.6 4.867,-6.134c0.867,-0.2 1.467,-0.266 2.067,-0.266c0.8,-0 1.333,0.133 2.2,0.466c0.133,0 0.333,0.2 0.466,0.2c0.2,0 0.267,-0.066 0.334,-0.266c0.133,-0.067 0.266,-0.334 0.333,-0.667c0.2,-0.333 0.333,-0.733 0.467,-1.2c0.2,-0.667 0.333,-1.133 0.333,-1.4c-0,-0.333 -0.133,-0.533 -0.333,-0.667Z" style="fill-rule:nonzero;"/>
    <path d="M1117.4,223.433c-0,-0.533 -0.067,-0.866 -0.133,-1c-0.267,-0.466 -0.867,-0.466 -2.067,-0.6c-0.133,0 -0.267,-0.066 -0.4,-0.066l-0.467,-0c-1.266,-0 -1.533,0.466 -1.666,1c-0.067,0.266 -0.067,0.533 -0.067,0.866l-0,0.8l0.2,2.067c0.2,3 0.267,7.933 0.467,10.667c0.066,0.866 0.133,1.533 0.133,2.066c-0,1.267 -0.267,1.934 -1.067,2.6c-0.333,0.267 -0.666,0.4 -1,0.4c-0.4,0 -0.8,-0.133 -1.2,-0.333c-0.6,-0.333 -1.466,-0.933 -2.533,-1.6c-1.333,-0.867 -2.933,-1 -4.467,-1c-0.666,0 -1.333,0.067 -1.933,0.067c-2.4,0.066 -5.8,2.2 -7.6,4.2c-1.667,1.933 -2.933,6.133 -2.933,9.933c-0,3.733 2,7.333 4.266,9.467c2.267,2.133 5.467,3.4 7.934,3.4c2.533,-0 5.2,-0.6 7,-2.667c0.933,-1.133 1.733,-1.533 2.2,-1.533c0.8,-0 1.2,0.866 1.4,1.933c0.066,0.467 0.066,0.733 0.333,0.933c0.133,0.067 0.267,0.067 0.667,0.134l1.466,0.2l0.334,-0c0.8,-0 0.933,-0.334 1,-0.734l-0,-1.2l-0.267,-1.533c-0.267,-1.867 -0.667,-10.133 -0.667,-13.467l0,-0.933l0.4,-4.333c0.067,-0.934 0.134,-1.734 0.134,-2.534c-0,-0.466 -0,-0.866 -0.067,-1.2c-0.067,-0.4 -0.133,-1 -0.133,-1.733c-0,-1.067 0.266,-3.6 0.266,-4l0,-0.6c0.067,-2.733 0.334,-5.667 0.334,-7.467c-0,-0.866 0.066,-1.6 0.133,-2.2Zm-4.4,26.334c0.333,1 0.533,2 0.533,2.866c0,1.2 -0.266,2.4 -0.8,3.667c-0.4,1.133 -0.933,1.933 -1.533,2.667c-0.533,0.6 -1.133,1.133 -1.667,1.733c-1.066,1.067 -3,1.467 -4.6,1.467c-0.333,-0 -0.6,-0 -0.8,-0.067l-1.2,0c-0.333,0 -0.8,0 -1.333,-0.133c-0.933,-0.267 -2,-0.867 -3.667,-2.2c-1.6,-1.334 -2.4,-2.534 -2.733,-3.667c-0.267,-0.533 -0.267,-1 -0.333,-1.533c-0,-0 -0,-0.067 -0.134,-1.534l0,-0.466c0,-2 0.667,-4.534 2.2,-6.534c1.6,-2.066 2.934,-2.933 5.667,-2.933l0.8,0c3.133,0.067 5.533,0.6 6.8,2c1.067,1.2 2,2.4 2.8,4.667Z" style="fill-rule:nonzero;"/>
    <path d="M1151.53,252.033c0,-0.066 0.067,-0.133 0.067,-0.266c-0,-0.067 -0.067,-0.267 -0.067,-0.467l-0.266,-1.4c-0.467,-2.133 -2.8,-5.667 -4.534,-7.733c-1.733,-1.867 -5.066,-3 -7.866,-3.134l-0.734,0c-2.866,0 -5.133,1.4 -7.466,2.934l-0.534,0.333c-2.533,1.533 -4.333,6.6 -4.466,10.6l-0,0.2c-0,3.8 2.866,8 5.133,10.533c2.2,2.334 6.733,2.4 9,2.4c2.133,0 3.867,-0.533 5,-1.133c0.467,-0.267 1.133,-0.8 1.933,-1.467c0.734,-0.666 1.534,-1.333 2.4,-2c0.667,-0.466 1,-1 1,-1.533c0,-0.6 -0.333,-1.2 -1.333,-2c-0.333,-0.267 -0.667,-0.4 -0.867,-0.4c-0.333,0 -0.533,0.2 -0.8,0.4c-0.466,0.533 -0.8,1.2 -1.066,1.867c-0.534,1.2 -3.2,2.533 -6.534,2.533l-0.533,0c-2.2,-0.067 -4.067,-0.733 -5.733,-2.067l-1,-0.8c-1.067,-0.933 -2.134,-3.6 -2.134,-5.266l0,-0.467c0.2,-0.8 1.8,-1.267 3.8,-1.333c1.667,-0 3.534,0.066 4.534,0.066c1.4,0 5.266,0.067 8.266,0.067c1.534,0 2.867,0 3.6,-0.067c1.134,0 1.2,-0.266 1.2,-0.4Zm-4.733,-4.4c0.2,0.334 0.267,0.6 0.267,0.867c-0,0.733 -0.6,1.2 -1.8,1.2c-2.6,0 -5.467,0.067 -6.6,0.067c-1.2,-0 -4.734,-0.067 -5.467,-0.267c-0.733,-0.067 -2.333,-0.933 -2.333,-2.133c-0,-0.4 0.133,-0.8 0.466,-1.2c1.067,-1.467 4,-3.467 7.467,-3.467l0.267,0c3.133,0.133 4.2,1.067 5.733,2.533c0.667,0.667 1.6,1.534 2,2.4Z" style="fill-rule:nonzero;"/>
    <path d="M1185.53,252.1l0,-0.533c0,-3.534 -2.066,-6.667 -3.8,-8.8c-1.666,-2 -5.466,-3.534 -8.733,-3.667c-3.067,0 -5.933,1.933 -7.867,3.867c-0.533,0.466 -0.933,0.733 -1.266,0.733c-0.334,0 -0.6,-0.2 -0.734,-0.4c-0.2,-0.267 -0.266,-0.867 -0.266,-1.667l-0,-0.866c-0,-0.934 -0.467,-1 -2,-1.134l-0.267,0c-1.2,0 -1.533,0.8 -1.533,1.8c-0,0.667 0.133,1.334 0.2,1.867c0.2,1.467 0.333,10 0.333,15.133c-0,1.534 -0,2.667 -0.067,3.4c-0.133,3.267 -0.266,11.934 -0.533,14.4c-0,0.2 -0.067,0.267 -0.067,0.4c0,1.4 0.934,1.867 2.2,1.867c0.134,0 0.334,-0.067 0.534,-0.067c1.666,-0.066 2.2,-0.666 2.2,-1l-0,-0.333c-0,-0.467 -0,-1.067 -0.067,-1.867c-0.133,-0.933 -0.267,-2.066 -0.267,-2.933c-0.066,-0.467 -0.066,-0.933 -0.066,-1.533l-0,-1c-0,-1.334 -0,-2.667 -0.267,-4.2c-0.067,-0.6 -0.133,-1.134 -0.133,-1.534c-0,-1.533 0.466,-2.2 1.533,-2.333l0.267,0c0.533,0 1,0.4 1.333,0.733c0.467,0.4 0.8,0.934 1.133,1.4c0.667,0.867 1.334,1.6 6.134,1.6c2.333,0 3.733,-0.4 4.933,-1.066c0.533,-0.334 1.133,-0.734 1.667,-1.2l1.866,-1.467c2.534,-1.933 3.6,-5.733 3.6,-9.6Zm-3.733,0.533l-0.2,2.667c-0.267,2.467 -0.933,3.533 -3.067,5.067c-1.333,1 -2.2,1.4 -3,1.666c-0.4,0.067 -0.8,0.067 -1.266,0.067c-0.067,0 -0.267,0.067 -0.4,0.067c-0.334,-0 -0.6,-0.067 -1,-0.067c-2.2,0 -4.334,-0.267 -6.4,-1.933c-2.134,-1.667 -3.467,-4.8 -3.467,-8.2c-0,-3.467 1.533,-6.2 4,-7.8c0.6,-0.334 1.067,-0.667 1.533,-0.867l1.134,-0.533c0.8,-0.334 1.533,-0.334 2.733,-0.334c2.733,0 5,1.067 6.267,2.534c0.266,0.333 0.666,0.666 1,1.133c0.4,0.4 0.8,0.933 1.133,1.533c0.533,1.067 1,2.467 1,4.134l-0,0.866Z" style="fill-rule:nonzero;"/>
    <path d="M1209.87,265.033c0.533,-0.333 1,-0.733 1.333,-1.066c0.333,-0.4 0.667,-0.734 1,-0.934c0.4,-0.4 0.867,-0.6 1.333,-0.6c0.667,0 1.267,0.534 1.267,1.334c-0,0.2 -0,0.4 -0.067,0.6c0,0.066 -0.066,0.133 -0.066,0.2c-0,0.6 0.666,0.666 2.533,0.8l0.333,-0c1,-0 1.2,-0.267 1.334,-0.534l-0,-13.133c-0,-2.2 -0.067,-4.533 -0.067,-6.667c-0,-1.066 -0,-2.066 0.067,-3l-0,-0.333c-0,-1.733 -0.867,-1.8 -2,-1.8l-0.667,0c-0.8,0 -1.2,0.067 -1.2,0.533c-0,0.334 0.067,0.6 0.067,0.8c-0,1.067 -0.4,2 -1.2,2.267c-0.134,0.067 -0.2,0.067 -0.334,0.067c-0.466,-0 -1.066,-0.334 -1.666,-0.867c-0.6,-0.533 -1.067,-1.133 -1.6,-1.667c-0.734,-0.933 -3.467,-1.733 -6,-1.733c-3.734,0 -8,2.4 -10.067,5.267c-1.467,2.133 -2,5.466 -2.267,8.2l0,0.533c0,2.6 1.534,6.8 3.2,8.867c1.734,2.2 4.667,4.2 9.6,4.2c2.4,-0 4,-0.6 5.134,-1.334Zm5.133,-12.266c-0.2,2.8 -1.133,6.133 -3.467,7.866c-1.8,1.4 -3.2,1.734 -5.266,1.734c-0.4,-0 -0.8,-0.067 -1.334,-0.067c-3,-0.2 -5.533,-1.533 -6.6,-3.267c-0.866,-1.6 -1.466,-3.666 -1.466,-6l-0,-0.6c0.133,-2.4 1.133,-6.466 2.4,-7.4c0.933,-0.733 3.8,-1.933 6.2,-1.933c0.4,0 0.8,0 1.2,0.067l1.533,0.333c0.267,0 0.267,0.067 0.333,0.067c0.4,0.133 1,0.2 1.4,0.4c1.2,0.4 2.334,1.133 3.2,2.6l1,1.733c0.067,0.467 0.467,0.933 0.667,1.333c0.2,0.534 0.333,1.134 0.333,1.8c0,0.4 -0.066,0.867 -0.133,1.334Z" style="fill-rule:nonzero;"/>
    <path d="M1244.53,239.833c-0.466,-0.2 -2.066,-0.733 -3.866,-0.733c-1.8,0 -4.267,1.6 -5.134,3.267c-0.2,0.4 -0.466,0.8 -0.8,1c-0.2,0.066 -0.333,0.066 -0.4,0.066c-0.333,0 -0.6,-0.2 -0.733,-0.4c-0.2,-0.4 -0.267,-0.933 -0.267,-1.466l0,-0.467c0,-1.133 -1.2,-1.6 -2.066,-1.6c-1.667,0 -1.867,0.533 -1.934,0.867c0,0.066 -0.066,0.133 -0.066,0.266c-0,0.2 0.066,0.534 0.133,0.867c0.067,0.467 0.133,1 0.2,1.467c0.133,2.2 0.133,7.133 0.133,10.066c0,2.867 -0.133,5.867 -0.6,9.734c-0.066,0.666 -0.066,1.2 -0.066,1.533c-0,0.4 0.066,0.6 0.333,0.733c0.133,0.067 0.4,0.067 1,0.067c0.533,-0.067 1.2,-0.133 2,-0.133c1.667,-0 2.067,-1.134 2.067,-2.4c-0,-0.934 -0.267,-2 -0.4,-2.8c-0.267,-1.334 -0.334,-3.8 -0.334,-6.267c0,-1.333 0,-2.6 0.067,-3.733c0.2,-3.6 2.6,-5.6 4.867,-6.134c0.866,-0.2 1.466,-0.266 2.066,-0.266c0.8,-0 1.334,0.133 2.2,0.466c0.134,0 0.334,0.2 0.467,0.2c0.2,0 0.267,-0.066 0.333,-0.266c0.134,-0.067 0.267,-0.334 0.334,-0.667c0.2,-0.333 0.333,-0.733 0.466,-1.2c0.2,-0.667 0.334,-1.133 0.334,-1.4c-0,-0.333 -0.134,-0.533 -0.334,-0.667Z" style="fill-rule:nonzero;"/>
    <path d="M1262.93,241.433c0,-0.533 -0.266,-0.733 -0.8,-0.933c-0.333,-0.067 -0.733,-0.067 -1.133,-0.067c-0.467,0 -0.867,-0.066 -1.333,-0.066l-1.134,-0.134c-0.333,0 -0.6,-0.066 -0.866,-0.133c-0.6,-0.2 -1,-0.667 -1,-1.333c-0,-0.934 -0,-2.534 0.133,-5.134l-0,-0.266c-0,-1 -0.2,-1.334 -0.4,-1.467c-0.333,-0.267 -1,-0.267 -1.4,-0.267l-0.2,0c-1,0 -1.6,0.8 -1.667,1.2c0,0.067 -0.066,0.2 -0.066,0.267c-0,0.333 0.066,0.867 0.133,1.533c0.133,0.867 0.267,2 0.267,3.134l-0,0.333c-0,1.2 -0.534,1.867 -1.4,2.067c-0.267,0.066 -0.534,0.066 -0.8,0.066c-0.467,0 -1.067,-0.066 -1.534,-0.066c-0.933,-0 -1.466,0.6 -1.666,2.6c-0,0.066 -0.067,0.133 -0.067,0.2c-0,0.4 0.267,0.533 0.8,0.666c0.333,0.067 0.667,0.067 1,0.067c0.333,0 0.667,-0.067 0.933,-0.067c1.067,0 2.467,0.8 2.467,2.267c-0,1.067 0.2,3.4 0.2,6.4c-0,3 -0.4,8.733 -0.4,11.333c-0,1.267 0.2,1.6 0.4,1.734l0.533,0.133l1.2,0c1.667,0 2.2,-0.2 2.2,-1.067l0,-0.466c-0.2,-1.867 -0.533,-6.667 -0.6,-9.467c-0.066,-0.933 -0.133,-2.067 -0.133,-3.2c-0,-2.2 0.133,-4.467 0.2,-5.933c0.067,-1.467 0.933,-2.067 2,-2.134l0.2,0c0.8,0 1.533,0.2 2.333,0.267l0.267,0c0.867,0 1.333,-0.467 1.333,-2.067Z" style="fill-rule:nonzero;"/>
    <path d="M1284.73,257.567c0,-2.134 -1.466,-3.734 -2.8,-5.067c-1.066,-1.067 -5.133,-3.267 -6.533,-3.933c-1.533,-0.667 -3,-1.8 -3,-3.467c-0,-1.667 1.333,-2.333 3,-2.333l0.6,-0c2.133,0.066 3.267,0.8 4.867,2.133c0.533,0.467 0.8,0.533 0.933,0.533c0.2,0 0.333,-0.133 0.467,-0.266l0.466,-0.534c0.134,-0.2 0.334,-0.4 0.4,-0.6c0.2,-0.266 0.267,-0.533 0.267,-0.733c-0,-0.267 -0.067,-0.533 -0.333,-0.867c-0.934,-1 -3.667,-2.866 -7.667,-3l-0.467,0c-1.133,0 -1.733,0.134 -2.2,0.334c-0.533,0.266 -0.933,0.666 -1.333,1.066c-0.933,0.734 -2.067,2.067 -2.2,3.6c-0,0.267 -0.067,0.534 -0.067,0.734c0,1.533 0.334,2.8 1.267,4c1.067,1.466 3.467,2.933 6,4c2.667,1.066 5.2,3.133 5.2,5.333c-0,2.267 -1.867,3.6 -4.8,3.8c-0.2,0 -0.4,0.067 -0.533,0.067c-2.867,-0 -4.867,-2.4 -5.334,-3.334c-0.133,-0.466 -0.666,-0.733 -1.066,-0.733c-0.267,0 -0.667,0.133 -1.134,0.2c-1,0.267 -1.333,1.067 -1.333,1.867c-0,0.266 -0,0.6 0.2,0.866c0.467,0.867 2.2,2.2 3.8,3.2c1.467,0.8 4.067,1.334 5.867,1.334c1.6,-0 3.533,-1.2 5.266,-2.334c1.467,-1 2.134,-3.666 2.2,-5.866Z" style="fill-rule:nonzero;"/>
    <path d="M1327.93,263.7c0,-0.267 0,-0.533 -0.066,-0.933l-0.134,-1.334c-0.066,-1 -0.266,-1.4 -0.6,-1.4c-0.066,0 -0.266,0.067 -0.466,0.2c-1.2,0.867 -3.2,1.867 -5.934,1.867l-0.866,0c-3.067,-0.333 -4,-0.733 -6.267,-2.333c-2.467,-1.734 -2.933,-4.867 -2.933,-7.334c-0,-2.666 0.8,-5.2 3.133,-7.066c2.4,-1.934 3.6,-2.134 6.267,-2.267l0.466,0c2.534,0 4.2,0.733 5.934,1.933c0.333,0.2 0.6,0.4 0.666,0.4c0.067,0 0.134,-0.066 0.2,-0.133c0.134,-0.2 0.134,-0.467 0.267,-0.867c0.067,-0.466 0.2,-1 0.2,-1.666c0.067,-0.267 0.067,-0.467 0.067,-0.667c-0,-0.667 -0.2,-1 -0.4,-1.2c-0.267,-0.2 -0.467,-0.4 -0.734,-0.533c-0.333,-0.2 -0.666,-0.334 -0.933,-0.6c-1.067,-0.667 -2.8,-0.734 -6.4,-0.934l-0.267,0c-3.6,0 -6.866,2.067 -9.266,4.2c-2.134,2 -3.334,7 -3.334,9.8l0,0.4c0.134,2.8 1,6.267 3.934,9.2c2.866,2.867 6,3.667 8.866,3.867l0.534,0c1.2,0 2.2,-0.2 3.2,-0.4c1.133,-0.267 2.2,-0.733 3.4,-1.133c1.266,-0.467 1.4,-0.8 1.466,-1.067Z" style="fill-rule:nonzero;"/>
    <path d="M1360.47,253.167l-0,-0.334c-0,-4.533 -2.134,-7.933 -4.134,-10.066c-2,-2.067 -5.266,-3.734 -9,-3.867l-0.333,0c-6.067,0 -8.733,2.533 -10.667,4.533c-2,2 -3.533,5 -3.533,9.267c-0,4.267 2.533,8.4 4.6,10.267c2,1.8 5,3.133 8.867,3.133l0.4,0c4.133,-0.133 7.333,-0.667 10.2,-3.733c2.866,-3.2 3.6,-4.334 3.6,-9.2Zm-3.8,-0.734c-0,2.534 -0.934,6 -2.6,7.267c-0.4,0.2 -0.8,0.533 -1.334,0.867c-1.666,1.133 -3.533,2 -5.533,2c-0.267,-0 -0.533,-0 -0.867,-0.067c-3.2,-0.4 -4.733,-1.067 -6.666,-3.333c-1.934,-2.134 -2.534,-3.867 -2.534,-6.6c0,-2.667 0.467,-5.2 3.134,-7.2c2.6,-1.934 4.666,-2.2 6.8,-2.2c3.4,-0 5.866,0.933 7.266,3.4c0.667,1.133 1.267,1.866 1.667,2.733c0.333,0.867 0.667,1.8 0.667,3.133Z" style="fill-rule:nonzero;"/>
    <path d="M1390.47,261.833c-0.2,-1.733 -0.4,-7.2 -0.4,-11.066c-0,-0.8 0.066,-1.6 0.066,-2.2l0,-0.267c0,-3.067 -1.6,-5.733 -2.533,-6.867c-0.933,-1.2 -2.933,-2.333 -5.533,-2.4l-0.467,0c-2.2,0 -3.533,0.8 -5.8,2.934c-0.933,0.866 -1.667,1.133 -2.133,1.2c-0.4,-0 -0.6,-0.2 -0.734,-0.4c-0.133,-0.334 -0.2,-0.734 -0.2,-1.134c0,-0.4 0,-0.733 0.067,-1.066c-0,-1.134 -1.067,-1.334 -1.867,-1.334c-0.733,0 -2,0.067 -2.266,0.667c-0.067,0.2 -0.134,0.467 -0.134,0.8c0.067,0.4 0.134,0.733 0.134,1.2c0.133,1.867 0.933,6.067 0.933,8.8c-0,2.733 -0.133,6.067 -0.667,10.467c-0.133,0.8 -0.133,1.4 -0.133,1.933c-0,1.933 0.667,2.333 2.2,2.333c0.2,0 0.467,-0.066 0.8,-0.066c1.333,-0.067 1.6,-0.467 1.667,-0.667l-0,-0.467c-0,-0.466 -0.067,-1 -0.134,-1.333c-0.266,-1.467 -0.533,-6.8 -0.533,-9.133c-0,-2.2 0.333,-5.867 1.733,-7.8c1.467,-2 3.667,-3.134 5.667,-3.134l0.933,0c0.4,0 0.867,0 1.267,0.134c0.733,0.133 1.4,0.533 2.333,1.266c1.134,0.867 1.6,2 1.8,3.4c0.134,0.8 0.134,1.734 0.134,2.734l-0,2.133c-0,3.8 -0.534,5.933 -0.8,9.667c-0,0.266 -0.067,0.6 -0.067,0.8c-0,2.466 1.133,2.533 3.133,2.533c1.4,0 1.734,-0.733 1.734,-1.8c-0,-0.6 -0.134,-1.267 -0.2,-1.867Z" style="fill-rule:nonzero;"/>
    <path d="M1414.6,223.633l-0,-0.4c-0,-1.066 -0.533,-1.6 -1.267,-1.866c-0.933,-0.334 -2.066,-0.4 -3.066,-0.534c-1.934,0 -3.8,1.8 -5,3c-1.734,1.667 -2.467,5 -2.467,6.6l0.4,7.4c-0,1.6 -0.8,2 -1.8,2c-0.6,0 -1.333,-0.133 -1.933,-0.4l-0.267,0c-0.6,0 -1.133,0.667 -1.333,1.667c-0.067,0.333 -0.134,0.467 -0.134,0.667c0,0.666 0.334,1.066 0.867,1.333c0.333,0.2 0.8,0.267 1.2,0.267c0.333,-0 0.733,-0 1.067,-0.067c0.866,0 1.866,0 2.266,0.933c0.2,0.334 0.2,0.667 0.2,1.067l0,5.6c0,1.933 -0.4,8.4 -0.8,11.4c-0.066,0.267 -0.066,0.467 -0.066,0.733c-0,1.934 1.266,2.4 3.333,2.534l0.267,-0c0.933,-0 1.2,-0.2 1.333,-0.467c0.133,-0.333 0.133,-0.8 0.133,-1.2l0,-0.6c0,-1.533 -0.466,-6.133 -0.466,-9.133l-0,-8.6c-0,-1.334 0.4,-2.134 1.466,-2.334c0.4,-0.133 0.867,-0.133 1.467,-0.133c0.467,0.067 1.067,0.067 1.733,0.067c1.334,-0 1.8,-0.2 2,-0.4c0,-0.134 0.134,-0.334 0.2,-0.667l0.134,-1.133c-0,-0.667 -0.4,-0.8 -0.8,-0.867c-0.4,-0.067 -0.867,-0.067 -1.267,-0.067l-1.533,0c-2.467,0 -3.134,-2.266 -3.334,-4.066c-0.066,-0.867 -0.133,-2.2 -0.133,-3.334c-0,-1.2 0.067,-2.4 0.333,-3.2c0.534,-1.333 2.4,-3.4 4.734,-3.4l0.266,0c0.467,0 0.867,0.067 1.2,0.067c0.267,0 0.4,-0.067 0.467,-0.133c0.4,-0.267 0.4,-0.867 0.533,-2.067c0,-0.067 0.067,-0.133 0.067,-0.267Z" style="fill-rule:nonzero;"/>
    <path d="M1443.73,242.567c0.067,-0.467 0.067,-0.8 0.067,-1.134c-0,-1.333 -0.467,-1.8 -2.4,-1.933l-0.333,0c-1.467,0 -1.8,0.6 -1.8,1.6c-0,0.333 -0,0.667 0.066,1.067c0.134,1.6 0.4,6.8 0.534,10.2c-0,0.533 0.066,1.066 0.066,1.6c0,2.6 -0.4,4.666 -1.6,6.133c-1.4,1.933 -2.8,2 -4.866,2.067l-0.2,-0c-0.467,0.066 -0.934,0.066 -1.334,0.066c-1.6,0 -2.866,-0.333 -4.133,-2.133c-0.8,-1 -1.2,-2.333 -1.4,-3.8c-0.133,-1.4 -0.2,-3.133 -0.267,-5.067c-0.066,-1.6 -0.066,-2.8 -0.066,-3.933c-0,-1.533 0.066,-2.867 0.2,-4.867l-0,-1.2c-0,-0.733 -0.067,-1 -0.134,-1.133c-0.066,0 -0.2,-0.067 -0.466,-0.133c-0.267,-0 -0.667,-0 -1.067,-0.067l-0.467,0c-1.533,0 -1.866,0.533 -1.866,1.133c-0,1.4 0.333,2.8 0.333,4.734c-0,1.8 0.067,8.2 0.067,11c-0,2.666 1.466,5.333 3.6,6.933c2,1.533 5.533,1.933 7.666,1.933c2.067,0 5.2,-1.333 8,-4.133c1.267,-1.267 1.667,-3.267 1.667,-5.333c-0,-2.067 -0.333,-4.067 -0.333,-5.2c-0,-2.2 0.2,-6.2 0.466,-8.4Z" style="fill-rule:nonzero;"/>
    <path d="M1468.53,257.567c0,-2.134 -1.466,-3.734 -2.8,-5.067c-1.066,-1.067 -5.133,-3.267 -6.533,-3.933c-1.533,-0.667 -3,-1.8 -3,-3.467c-0,-1.667 1.333,-2.333 3,-2.333l0.6,-0c2.133,0.066 3.267,0.8 4.867,2.133c0.533,0.467 0.8,0.533 0.933,0.533c0.2,0 0.333,-0.133 0.467,-0.266l0.466,-0.534c0.134,-0.2 0.334,-0.4 0.4,-0.6c0.2,-0.266 0.267,-0.533 0.267,-0.733c-0,-0.267 -0.067,-0.533 -0.333,-0.867c-0.934,-1 -3.667,-2.866 -7.667,-3l-0.467,0c-1.133,0 -1.733,0.134 -2.2,0.334c-0.533,0.266 -0.933,0.666 -1.333,1.066c-0.933,0.734 -2.067,2.067 -2.2,3.6c-0,0.267 -0.067,0.534 -0.067,0.734c0,1.533 0.334,2.8 1.267,4c1.067,1.466 3.467,2.933 6,4c2.667,1.066 5.2,3.133 5.2,5.333c-0,2.267 -1.867,3.6 -4.8,3.8c-0.2,0 -0.4,0.067 -0.533,0.067c-2.867,-0 -4.867,-2.4 -5.334,-3.334c-0.133,-0.466 -0.666,-0.733 -1.066,-0.733c-0.267,0 -0.667,0.133 -1.134,0.2c-1,0.267 -1.333,1.067 -1.333,1.867c-0,0.266 -0,0.6 0.2,0.866c0.467,0.867 2.2,2.2 3.8,3.2c1.467,0.8 4.067,1.334 5.867,1.334c1.6,-0 3.533,-1.2 5.266,-2.334c1.467,-1 2.134,-3.666 2.2,-5.866Z" style="fill-rule:nonzero;"/>
    <path d="M1500,252.033c-0,-0.066 0.067,-0.133 0.067,-0.266c-0,-0.067 -0.067,-0.267 -0.067,-0.467l-0.267,-1.4c-0.466,-2.133 -2.8,-5.667 -4.533,-7.733c-1.733,-1.867 -5.067,-3 -7.867,-3.134l-0.733,0c-2.867,0 -5.133,1.4 -7.467,2.934l-0.533,0.333c-2.533,1.533 -4.333,6.6 -4.467,10.6l0,0.2c0,3.8 2.867,8 5.134,10.533c2.2,2.334 6.733,2.4 9,2.4c2.133,0 3.866,-0.533 5,-1.133c0.466,-0.267 1.133,-0.8 1.933,-1.467c0.733,-0.666 1.533,-1.333 2.4,-2c0.667,-0.466 1,-1 1,-1.533c-0,-0.6 -0.333,-1.2 -1.333,-2c-0.334,-0.267 -0.667,-0.4 -0.867,-0.4c-0.333,0 -0.533,0.2 -0.8,0.4c-0.467,0.533 -0.8,1.2 -1.067,1.867c-0.533,1.2 -3.2,2.533 -6.533,2.533l-0.533,0c-2.2,-0.067 -4.067,-0.733 -5.734,-2.067l-1,-0.8c-1.066,-0.933 -2.133,-3.6 -2.133,-5.266l-0,-0.467c0.2,-0.8 1.8,-1.267 3.8,-1.333c1.667,-0 3.533,0.066 4.533,0.066c1.4,0 5.267,0.067 8.267,0.067c1.533,0 2.867,0 3.6,-0.067c1.133,0 1.2,-0.266 1.2,-0.4Zm-4.733,-4.4c0.2,0.334 0.266,0.6 0.266,0.867c0,0.733 -0.6,1.2 -1.8,1.2c-2.6,0 -5.466,0.067 -6.6,0.067c-1.2,-0 -4.733,-0.067 -5.466,-0.267c-0.734,-0.067 -2.334,-0.933 -2.334,-2.133c0,-0.4 0.134,-0.8 0.467,-1.2c1.067,-1.467 4,-3.467 7.467,-3.467l0.266,0c3.134,0.133 4.2,1.067 5.734,2.533c0.666,0.667 1.6,1.534 2,2.4Z" style="fill-rule:nonzero;"/>
    <path d="M1532.13,223.433c0,-0.533 -0.066,-0.866 -0.133,-1c-0.267,-0.466 -0.867,-0.466 -2.067,-0.6c-0.133,0 -0.266,-0.066 -0.4,-0.066l-0.466,-0c-1.267,-0 -1.534,0.466 -1.667,1c-0.067,0.266 -0.067,0.533 -0.067,0.866l0,0.8l0.2,2.067c0.2,3 0.267,7.933 0.467,10.667c0.067,0.866 0.133,1.533 0.133,2.066c0,1.267 -0.266,1.934 -1.066,2.6c-0.334,0.267 -0.667,0.4 -1,0.4c-0.4,0 -0.8,-0.133 -1.2,-0.333c-0.6,-0.333 -1.467,-0.933 -2.534,-1.6c-1.333,-0.867 -2.933,-1 -4.466,-1c-0.667,0 -1.334,0.067 -1.934,0.067c-2.4,0.066 -5.8,2.2 -7.6,4.2c-1.666,1.933 -2.933,6.133 -2.933,9.933c-0,3.733 2,7.333 4.267,9.467c2.266,2.133 5.466,3.4 7.933,3.4c2.533,-0 5.2,-0.6 7,-2.667c0.933,-1.133 1.733,-1.533 2.2,-1.533c0.8,-0 1.2,0.866 1.4,1.933c0.067,0.467 0.067,0.733 0.333,0.933c0.134,0.067 0.267,0.067 0.667,0.134l1.467,0.2l0.333,-0c0.8,-0 0.933,-0.334 1,-0.734l-0,-1.2l-0.267,-1.533c-0.266,-1.867 -0.666,-10.133 -0.666,-13.467l-0,-0.933l0.4,-4.333c0.066,-0.934 0.133,-1.734 0.133,-2.534c-0,-0.466 -0,-0.866 -0.067,-1.2c-0.066,-0.4 -0.133,-1 -0.133,-1.733c-0,-1.067 0.267,-3.6 0.267,-4l-0,-0.6c0.066,-2.733 0.333,-5.667 0.333,-7.467c-0,-0.866 0.067,-1.6 0.133,-2.2Zm-4.4,26.334c0.334,1 0.534,2 0.534,2.866c-0,1.2 -0.267,2.4 -0.8,3.667c-0.4,1.133 -0.934,1.933 -1.534,2.667c-0.533,0.6 -1.133,1.133 -1.666,1.733c-1.067,1.067 -3,1.467 -4.6,1.467c-0.334,-0 -0.6,-0 -0.8,-0.067l-1.2,0c-0.334,0 -0.8,0 -1.334,-0.133c-0.933,-0.267 -2,-0.867 -3.666,-2.2c-1.6,-1.334 -2.4,-2.534 -2.734,-3.667c-0.266,-0.533 -0.266,-1 -0.333,-1.533c-0,-0 -0,-0.067 -0.133,-1.534l-0,-0.466c-0,-2 0.666,-4.534 2.2,-6.534c1.6,-2.066 2.933,-2.933 5.666,-2.933l0.8,0c3.134,0.067 5.534,0.6 6.8,2c1.067,1.2 2,2.4 2.8,4.667Z" style="fill-rule:nonzero;"/>
  </g>
  <g id="Footer">
    <g id="FREEZESUCCESSsound" sound="3F-Freezesuccess-1">
      <rect x="125" y="1868" width="338" height="148.762" style="fill:#fff;stroke:#000;stroke-width:2.42px;"/>
      <g id="Closed-Eyes" serif:id="Closed Eyes">
        <path d="M432.618,1897.7c-1.203,0.722 -2.005,2.166 -2.005,3.61c3.53,-0.803 7.38,2.085 7.541,5.615c-3.129,-1.283 -6.338,-2.567 -9.466,-3.931c-0.562,2.808 2.727,4.894 5.535,5.375c2.888,0.481 6.097,0.481 8.022,2.647c3.129,1.123 6.578,1.605 9.867,1.284c-1.765,-3.049 -4.653,-5.455 -7.942,-6.739c5.215,-0.722 10.589,3.771 10.67,9.065c-1.444,-0.401 -2.808,-0.802 -4.172,-1.283c1.444,2.005 2.888,4.011 4.332,5.936c-9.386,-4.011 -19.734,-8.102 -29.441,-5.054c-2.086,0.642 -4.252,1.605 -6.337,0.883c-4.814,-1.685 -10.108,0.401 -14.841,2.246c-7.22,2.807 -14.6,5.054 -22.141,6.818c-4.091,0.963 -8.584,1.685 -12.194,-0.481c-4.572,-2.727 -9.305,7.862 -13.958,5.134c2.006,-2.246 4.011,-4.572 5.936,-6.818c-2.487,-1.525 -5.615,0.24 -8.343,1.444c-2.647,1.203 -6.899,0.882 -7.219,-2.006c-2.487,1.925 -3.691,5.295 -3.129,8.343c-2.407,-2.166 -2.326,-6.578 0.241,-8.584c1.684,-1.444 4.091,-1.684 6.337,-1.925c9.626,-0.963 19.093,-2.487 28.639,-4.011c0.642,-0.08 1.364,-0.241 2.005,-0.321c4.172,-0.642 8.263,-1.364 12.354,-2.005c-2.888,-0.883 -5.856,-1.685 -8.824,-2.567c1.845,-2.247 5.214,-1.765 8.022,-1.525c5.615,0.562 11.311,-0.481 16.365,-2.968c-0.241,-1.444 -1.444,-2.647 -2.888,-2.968c5.054,-0.401 10.268,0.562 14.761,2.728c-1.123,1.042 -0.803,3.208 0.641,3.85c-0.08,-1.765 2.327,-2.968 3.691,-1.845c1.363,0.321 0.481,-2.166 -0.803,-2.727c-4.572,-1.765 -9.145,-3.61 -13.717,-5.455c5.695,-0.161 12.113,-0.722 15.803,-5.135c1.364,1.444 3.851,1.685 5.535,0.642c0.883,-1.845 1.765,-3.69 2.728,-5.455c2.406,0.161 4.813,0.321 7.22,0.482c0.24,3.369 1.283,6.578 3.128,9.385c2.407,-0.802 5.455,0.963 5.856,3.53c-6.257,0.321 -12.674,-1.524 -17.809,-5.214m-52.544,18.611c-1.685,1.123 -3.289,2.246 -4.974,3.449c-0.641,0.482 -1.363,0.963 -2.005,1.444c3.209,0.642 6.738,-0.722 8.503,-3.449c-0.481,-0.481 -1.043,-0.963 -1.524,-1.444m60.567,-23.023c-0.562,-0.482 -1.043,-1.043 -1.605,-1.605c-1.123,0.642 -2.326,1.284 -3.53,1.925c1.284,1.685 3.129,2.728 5.135,3.049c0.641,-1.043 0.641,-2.327 -0,-3.369" style="fill-rule:nonzero;"/>
        <path d="M274.504,1916.48c-1.525,1.204 -3.931,1.043 -5.375,-0.321c1.845,-1.203 4.171,-1.604 6.257,-1.042c0.642,0.401 0,1.684 -0.802,1.363" style="fill-rule:nonzero;"/>
        <path d="M392.669,1905.41c2.567,-1.284 5.615,-1.284 8.182,-0.08c-2.487,1.283 -5.615,1.363 -8.182,0.08" style="fill-rule:nonzero;"/>
        <path d="M416.013,1981.21c1.283,1.043 2.166,2.567 2.326,4.252c-2.166,-0.241 -4.171,-1.604 -5.054,-3.61c0.321,-1.043 2.006,-1.203 2.487,-0.241" style="fill-rule:nonzero;"/>
        <path d="M166.286,1935.81c1.524,-0.16 3.129,0.321 4.412,1.284l0,3.209c-2.567,0.802 -5.615,-0.321 -7.139,-2.567c0.962,-0.482 1.925,-1.043 2.968,-1.605" style="fill-rule:nonzero;"/>
        <path d="M358.094,1956.75c-0.402,0.722 -1.846,0.401 -1.926,-0.401c1.204,-0.882 2.888,-1.043 4.252,-0.401c0.321,-1.284 2.166,-1.765 3.048,-0.883c-1.363,1.043 -2.647,2.086 -3.931,3.049c-0.561,-0.482 -1.042,-0.963 -1.524,-1.444" style="fill-rule:nonzero;"/>
        <path d="M439.838,1919.77l4.011,0c0.401,0.562 0.562,1.284 0.401,1.926c-3.77,1.444 -8.423,0.641 -11.391,-2.166c2.327,0.08 4.653,0.08 6.979,0.08" style="fill-rule:nonzero;"/>
        <path d="M271.375,1950.25c-1.123,-0.722 -2.005,-1.845 -2.487,-3.128c3.049,0.802 5.295,3.93 4.974,7.059c-1.765,0.481 -3.289,-2.166 -2.006,-3.449" style="fill-rule:nonzero;"/>
        <path d="M362.185,1910.86c3.77,-0.481 7.621,0.16 11.07,1.765c-4.332,1.524 -9.065,2.005 -13.637,1.444c-1.364,-1.123 0.802,-3.049 2.567,-3.209" style="fill-rule:nonzero;"/>
        <path d="M186.662,1912.14c-0.401,0.642 -0.722,1.364 -1.123,2.006c-3.369,0.401 -6.899,-0.08 -10.108,-1.203c0.321,-1.204 0.642,-2.327 0.883,-3.53c3.449,0.882 6.899,1.845 10.348,2.727" style="fill-rule:nonzero;"/>
        <path d="M173.265,1879.5c2.006,-2.086 5.134,-2.969 7.862,-2.247c-3.771,2.327 -7.461,4.653 -11.231,6.98c-0.08,-1.685 0.321,-3.37 1.203,-4.733c0.642,-0.963 2.728,-1.043 2.166,-0" style="fill-rule:nonzero;"/>
        <path d="M268.968,1960.68c0.161,2.246 1.525,4.252 2.247,6.337c0.641,2.166 0.24,5.054 -1.845,5.937c-0.883,-3.209 -1.765,-6.338 -2.648,-9.466c-0.481,-1.605 -0.882,-3.53 0.321,-4.733c-1.203,0.641 -2.166,-2.086 -0.722,-2.327c0.883,1.444 1.765,2.888 2.647,4.252" style="fill-rule:nonzero;"/>
        <path d="M147.354,1913.03c-1.284,-3.53 1.685,-7.22 4.813,-9.306c3.129,-2.085 6.899,-3.61 8.824,-6.819c0.722,-1.283 0.803,-3.208 -0.481,-3.69c-1.364,1.765 -3.85,2.728 -6.097,2.327c1.685,-2.006 4.493,-2.407 6.899,-3.37c2.407,-0.962 4.653,-3.85 3.209,-5.936c-0.642,-0.962 0.08,-2.326 1.123,-2.727c1.043,-0.401 2.246,-0.161 3.37,0.08c0.802,0.16 1.604,0.321 2.406,0.561c0.161,0.402 0.401,0.883 0.642,1.364c-4.172,4.493 -7.621,9.546 -10.349,15.082c-0.722,1.444 -1.444,2.968 -2.727,3.93c-1.284,0.963 -3.289,1.124 -4.332,-0.16c-1.364,3.61 -4.011,6.739 -7.3,8.664" style="fill-rule:nonzero;"/>
        <path d="M152.488,1915.03c1.203,-3.289 3.69,-6.016 6.739,-7.46c1.042,1.765 1.764,3.77 2.166,5.856c0.802,-0.802 1.604,-1.524 2.486,-2.326c2.086,0.481 4.172,0.962 6.338,1.363c-5.134,2.006 -9.787,5.054 -13.718,8.825c-4.011,3.85 -11.311,0.08 -15.884,3.208c-1.764,1.204 -3.93,3.53 -5.615,2.086c2.808,-5.375 7.862,-9.546 13.718,-11.311c0.962,1.123 1.363,2.647 1.123,4.091c0.722,0.401 1.364,0.802 2.086,1.284c1.764,-1.605 4.011,-2.808 6.337,-3.45c0.642,-0.882 0.642,-2.246 -0.08,-3.128c-1.685,1.043 -3.771,1.363 -5.696,0.962" style="fill-rule:nonzero;"/>
        <path d="M387.374,1982.1c1.284,1.043 2.968,1.444 4.573,1.123c-0.883,1.364 0.561,3.53 2.166,3.209c0.24,-1.364 0.561,-2.728 0.802,-4.092l2.807,0c0.161,2.969 2.648,5.616 5.616,5.937c-0.401,0.642 -0.882,1.203 -1.284,1.845c-4.332,0.561 -8.904,-0.08 -12.995,-1.845c-3.209,1.845 -7.782,0.561 -9.627,-2.648c0.321,2.006 -0.882,4.172 -2.808,4.974c-0.802,-1.444 -1.042,-3.209 -0.641,-4.813c-5.455,-2.246 -11.392,-3.53 -17.328,-3.69c-1.123,-2.487 -0.16,-5.616 2.086,-7.06c-4.894,-2.727 -10.268,-5.455 -15.804,-4.733c-0.722,-2.567 1.926,-4.973 4.573,-5.134c2.647,-0.16 5.134,1.204 7.46,2.407c12.354,6.417 26.233,9.867 40.191,10.027c5.776,0.081 11.792,-0.481 17.087,-2.888c4.011,-1.925 7.541,-4.893 10.268,-8.342c1.444,-1.926 4.172,-4.172 5.856,-2.487c-3.048,3.128 -5.695,6.578 -8.102,10.188c-0.321,0.561 -0.722,1.203 -0.722,1.925c0,0.642 0.321,1.284 0.562,1.845c1.444,2.728 2.968,5.455 4.412,8.183c-4.092,0.32 -5.054,-6.659 -8.985,-7.461c-1.203,-0.241 -2.487,0.08 -3.61,0.481c-3.209,1.043 -6.498,2.166 -9.707,3.209c3.049,0.963 5.375,4.091 5.375,7.3l-3.369,0c-0.241,-3.85 -3.69,-6.818 -7.461,-7.781c-3.69,-0.963 -7.621,-0.321 -11.391,0.321m-2.487,1.444l0,-2.487c-2.487,-0.241 -4.973,-0.481 -7.38,-0.802c1.925,2.005 4.572,3.128 7.38,3.369" style="fill-rule:nonzero;"/>
        <path d="M210.086,1897.79c2.086,-0.08 5.135,1.925 3.45,3.209c5.615,1.684 11.552,1.684 17.328,2.647c9.466,1.524 18.531,5.455 25.991,11.472c0.722,-1.525 0.241,-3.45 -0.963,-4.493c1.605,-0.642 3.049,-1.925 3.851,-3.529c-1.765,3.85 1.364,9.064 5.615,9.225c-0.401,1.203 -0.802,2.406 -1.203,3.61c5.616,-0.802 11.472,-0 16.686,2.166c-9.466,3.85 -21.018,1.765 -28.398,-5.215c-0.08,1.043 -0.241,2.086 -0.321,3.129c-12.595,1.444 -25.59,-0.722 -37.142,-6.017c-12.675,-5.936 -26.633,-9.064 -40.592,-9.145c-1.444,-0.802 -3.529,-0.321 -4.412,1.123c2.647,-0.802 5.696,0.803 6.578,3.37c-5.375,0.561 -10.83,-0.642 -15.482,-3.289c6.899,-5.054 15.803,-7.461 24.387,-6.578c-5.134,-3.37 -12.033,-1.765 -17.97,-0.081c4.573,-7.942 11.953,-14.199 20.457,-17.488c-1.204,2.166 -2.327,4.252 -3.53,6.418c1.604,-1.524 4.171,-0.963 6.337,-0.401c7.06,2.005 14.039,4.011 21.098,6.097c-4.412,-0 -8.824,1.524 -12.354,4.171c3.53,-0.16 7.06,-0.241 10.589,-0.401m-22.542,1.765c3.29,1.203 7.06,2.406 10.189,0.802c0.641,-0.321 1.283,-1.043 0.882,-1.604c-3.61,1.042 -7.38,1.283 -11.071,0.802" style="fill-rule:nonzero;"/>
        <path d="M249.395,1957.23c-0.562,0.722 -1.926,0.642 -2.407,-0.24c-0.401,-0.883 0.321,-2.086 1.283,-2.086c2.648,-0 5.375,-0 7.702,1.284c2.326,1.363 3.85,4.412 2.567,6.738c4.091,3.45 5.776,9.546 4.091,14.68c0.321,-2.326 -0.722,-4.813 -2.647,-6.337c-4.011,-3.048 -11.071,0.241 -11.151,5.375c-1.685,0.401 -3.369,0.802 -5.054,1.203c-2.086,2.246 -4.171,4.492 -6.257,6.739c-0.963,-2.648 -2.006,-5.215 -3.048,-7.862c-0.883,3.129 0.08,6.658 2.406,8.904c-3.85,-3.449 -9.787,-1.363 -14.68,0.241c-9.466,3.049 -19.734,3.53 -29.441,1.364c-1.925,-0.401 -4.332,-2.006 -3.369,-3.77c2.005,1.042 4.251,1.443 6.497,1.123c0.321,-0.883 0.241,-2.006 -0.32,-2.808c1.845,-0.802 3.77,-1.364 5.695,-1.765c0.321,2.006 -2.487,3.69 -4.091,2.487c0.481,1.123 1.043,2.246 1.524,3.369c0.802,-1.684 3.129,-2.086 5.054,-1.765c1.845,0.241 3.851,0.963 5.616,0.401c1.845,-0.561 3.128,-3.128 1.684,-4.332c-7.541,3.049 -17.809,-4.733 -23.665,0.963c-3.449,3.369 -8.263,5.295 -13.076,5.295c-1.043,-1.605 -1.444,-3.61 -1.203,-5.455c2.005,-0.321 3.931,1.925 3.369,3.93c3.77,-1.042 6.337,-5.053 5.856,-8.904c-0.962,1.284 -1.925,2.647 -2.888,3.931c-1.203,-1.043 -2.326,-2.166 -3.529,-3.209c-1.685,0.481 -3.37,1.043 -5.054,1.524c1.283,-2.968 4.572,-5.054 7.781,-4.893c-0.882,-0.722 -1.845,-1.444 -2.727,-2.166c-3.45,0.882 -6.819,1.765 -10.269,2.647c2.086,-1.123 4.172,-2.246 5.375,-4.171c1.284,-1.926 1.364,-4.814 -0.481,-6.258c-3.771,-2.807 -6.257,-7.219 -6.819,-11.952c0.882,-0.562 1.685,-1.364 2.246,-2.247c2.567,5.295 5.535,10.589 9.627,14.761c10.107,10.268 25.75,12.835 39.949,11.07c14.28,-1.764 27.677,-7.139 41.555,-10.829c-1.043,-2.006 -2.888,-3.61 -5.054,-4.252c-0.642,1.685 -2.407,2.968 -4.252,2.888c1.203,-1.605 1.765,-3.61 1.605,-5.616" style="fill-rule:nonzero;"/>
      </g>
    </g>
    <g id="FREEZESUCCESS-camouflage" sound="3F-Freezesuccess-2">
      <rect x="1221" y="1841" width="244" height="177" style="fill:#fff;stroke:#000;stroke-width:2.11px;"/>
      <g>
        <path d="M1403.73,1936.01c-0,-0 -3.381,13.79 -4.164,18.995c-0.781,5.205 -2.601,10.409 -2.084,13.273c0.523,2.862 1.826,9.628 1.826,9.628c-0,0 3.381,-1.562 4.682,-0.26c1.301,1.301 3.125,3.382 3.642,5.463c0.52,2.082 1.564,0.78 2.341,3.643c0.783,2.864 -0.777,2.864 -2.341,2.864l-2.341,-0c-0,-0 -0.52,0.519 -1.301,1.301c-0.783,0.781 -3.641,2.343 -5.467,2.343c-1.819,-0 -2.858,-0.261 -2.858,-0.261c-0,0 -3.125,0.52 -4.945,-0.78c-1.82,-1.302 -6.766,-5.204 -6.766,-5.204c0,0 -1.041,-7.025 -3.902,-14.312c-2.864,-7.285 -2.864,-12.749 -4.425,-16.913c-1.561,-4.163 -2.603,-10.147 -2.603,-10.147c-0,-0 -10.408,3.902 -16.392,5.984c-5.986,2.082 -18.736,3.382 -28.884,-2.601c-10.149,-5.987 -15.872,-5.987 -20.297,-5.206c-4.422,0.783 -6.765,2.341 -6.765,2.341c0,-0 2.08,4.945 -1.303,10.41c-3.382,5.465 -10.407,16.913 -10.669,18.735c-0.261,1.82 -3.121,4.163 -1.301,7.806c1.822,3.643 4.422,9.108 4.422,9.108c0,0 5.727,-1.821 8.329,0.52c2.602,2.343 3.905,3.643 3.382,5.205c-0.518,1.561 -3.122,1.302 -3.122,1.302c0,0 -2.08,1.561 -5.984,1.041c-3.902,-0.521 -6.504,-1.3 -6.504,-1.3c0,-0 -5.726,-4.425 -9.888,-10.411c-4.164,-5.985 -7.026,-13.27 -7.026,-13.27c-0,0 0.519,-2.603 2.08,-3.121c1.563,-0.522 2.343,-5.206 2.343,-5.206c0,0 -5.204,5.986 -8.586,10.147c-3.384,4.166 -4.684,4.425 -5.204,7.286c-0.523,2.864 2.341,12.232 2.341,12.232l2.863,0c-0,0 1.821,-0.78 3.382,0c1.563,0.781 2.863,0 4.164,0.261c1.301,0.26 1.563,3.382 1.563,3.382c-0,0 -0.782,2.602 -2.602,2.343l-1.822,-0.262c0,-0 -1.042,1.823 -2.602,1.823c-1.559,-0 -2.864,-0.782 -2.864,-0.782c0,-0 -1.3,0.782 -2.862,1.301c-1.559,0.523 -3.64,1.563 -4.422,0.782c-0.779,-0.782 -5.204,-2.602 -5.204,-2.602c0,0 -3.641,-17.175 -4.684,-17.955l-1.039,-0.78c-0,-0 -9.109,0.78 -12.231,-2.602c-3.124,-3.384 -4.164,-7.285 -3.384,-10.928c0.782,-3.644 2.343,-5.205 4.165,-5.466c1.821,-0.26 3.121,1.041 3.121,2.343c0,1.302 -2.342,2.082 -2.082,3.902c0.262,1.823 1.563,5.724 3.905,5.724c2.341,-0 5.465,-0.779 5.465,-0.779c-0,-0 0.781,-4.163 3.641,-6.246c2.864,-2.083 3.384,-7.545 3.644,-14.052c0.261,-6.506 -2.601,-16.915 -1.039,-28.883c1.562,-11.97 4.944,-21.599 11.97,-25.761c7.026,-4.163 17.431,-8.587 29.402,-9.888c11.969,-1.302 49.962,-3.383 51.521,-3.383c1.563,0 10.67,-1.041 14.831,-2.082c4.164,-1.041 9.629,-5.203 9.629,-5.203c-0,-0 1.82,-4.165 7.286,-7.547c-0,0 3.829,-2.381 6.605,-3.074c2.776,-0.695 3.586,-1.504 5.203,-2.313c1.619,-0.81 4.858,-2.198 6.71,-2.775c1.852,-0.577 6.13,-4.28 6.593,-4.625c0.461,-0.348 1.617,-1.275 0.578,-1.504l-1.041,-0.231l-0.925,-0.348l0.576,-0.925l-0.69,-0.348l0.578,-1.041c0,0 0.576,-0.23 0,-0.809c-0.578,-0.577 -1.276,-1.966 -0.349,-2.08c0.925,-0.118 1.505,1.157 2.659,0.925c1.156,-0.231 4.511,-0.463 5.552,-0.347c1.044,0.116 3.239,0.925 3.239,0.925c-0,0 2.544,-0.694 3.818,-0.578c1.27,0.117 4.278,-0.347 5.548,-0.231c1.273,0.115 1.852,0.577 2.198,0.115c0.347,-0.463 2.585,-4.557 6.131,-2.429c2.312,1.389 2.892,4.511 2.892,4.511c0,-0 3.354,2.775 4.394,2.892c1.041,0.115 2.43,1.156 4.278,2.66c1.852,1.503 1.505,3.932 1.852,4.973c0.346,1.041 3.239,6.71 3.932,7.286c0.69,0.578 2.542,3.123 3.471,4.625c0.924,1.505 0.344,2.545 -0.117,3.122c-0.464,0.578 -1.391,1.274 -1.391,1.274c0,0 -0.575,2.429 -0.806,2.545c-0.232,0.116 0.461,3.352 0.229,4.163c-0.229,0.81 0.118,-1.62 -0.346,-2.428c-0.464,-0.81 -1.041,0.115 -1.041,0.115c-0,-0 1.041,3.7 1.041,4.049c-0,0.347 -0.579,-1.505 -0.925,-2.662c-0.347,-1.155 -0.808,-0.923 -0.808,-0.923l-0.117,1.733l-0.115,-1.388c0,-0 -0.81,0.462 -0.81,0.808c-0,0.348 -0.691,0.578 -0.691,0.925c0,0.348 1.617,1.157 1.617,1.157l-1.156,-0.232c0,-0 0,0.926 -0.461,1.273c-0.466,0.348 3.119,2.775 3.119,2.775l-3.585,-1.852c-0,0 -1.039,0.118 -0.807,0.695c0.229,0.578 1.734,2.546 1.734,2.546l-2.427,-2.084c0,0 -1.041,0.348 -1.39,0.579c-0.347,0.232 -0.232,1.505 0.349,1.85c0.576,0.348 0.924,0.81 0.924,0.81c-0,0 -0.924,0 -1.62,-1.041c-0.693,-1.041 -1.27,-1.041 -1.27,-1.041l-0.117,3.47l-0.693,-4.047c-0,0 -1.041,1.389 -1.041,2.198c-0,0.809 -0,-1.85 -0,-1.85l-0.579,-0.581l-0.232,2.43l-0.115,-2.891c0,-0 -0.229,-0.811 -0.925,-0.811c-0.695,0 -1.273,3.818 -2.198,4.279c-0.925,0.463 -1.155,0.347 -1.155,0.347c-0,-0 1.619,-1.041 2.08,-3.585c0.464,-2.544 0.464,-1.503 0.464,-1.503c0,-0 -0.578,-0.579 -1.044,-0.812c-0.461,-0.229 -0.461,-0.692 -0.461,-0.692c0,0 -2.427,2.89 -2.776,5.203c-0.347,2.314 -0.347,4.281 -0.347,4.281c0,0 -0.807,-3.933 0.579,-6.361c1.39,-2.43 1.969,-3.7 1.969,-3.7l-1.159,-0.578c0,-0 -1.734,1.158 -1.966,2.891c-0.232,1.735 -0.807,1.622 -0.464,3.471c0.347,1.851 0.232,4.393 0.232,4.393l-0.575,-3.816l-0.118,-0.695c0,0 -0.464,1.272 -0.232,2.429c0.232,1.157 0.118,1.62 0.118,1.62c-0,-0 -1.159,-0.923 -0.579,-3.818c0.579,-2.891 1.852,-5.784 1.852,-5.784c-0,0 -1.852,1.852 -2.199,2.43c-0.346,0.577 -1.39,1.966 -1.39,1.966l0,1.852l-0.461,-1.041l-0.464,1.041l0.232,-1.389c-0,-0 0.578,-2.661 0.81,-3.47c0.23,-0.809 0.23,-1.389 0.23,-1.389l-1.617,2.893l-0.35,-0.116c0,-0 -2.775,0.81 -3.929,2.775c-1.158,1.969 -3.586,5.205 -4.396,7.866c-0.808,2.66 -1.041,4.859 -1.041,6.013c-0,1.157 -4.047,9.716 -4.393,10.293c-0.347,0.578 -0.464,5.782 -2.316,8.675c-1.854,2.886 -6.147,6.796 -6.147,6.796Z" style="fill-rule:nonzero;"/>
        <path d="M1262.93,1924.64c0,-0 -2.428,5.204 -2.256,9.541c0.174,4.338 1.735,9.716 1.735,9.716c0,0 0.52,-5.378 0.52,-8.154c0,-2.775 0.348,-3.643 0.348,-5.55c0.001,-1.909 -0.347,-5.553 -0.347,-5.553Z" style="fill:#fff;fill-rule:nonzero;"/>
        <path d="M1432.16,1889.07l-1.3,1.215l0.868,-1.474l0.432,0.259Z" style="fill:#fff;fill-rule:nonzero;"/>
        <path d="M1431.38,1888.47l-0.519,-0.26c-0,-0 -0.781,0.693 -1.561,1.821c-0.781,1.127 -1.564,4.077 -1.564,4.077c0,-0 1.998,-2.689 2.257,-2.95c0.259,-0.261 0.783,-1.995 1.044,-2.082c0.256,-0.085 0.343,-0.606 0.343,-0.606Z" style="fill:#fff;fill-rule:nonzero;"/>
      </g>
    </g>
  </g>
</svg>
