<?xml version="1.0" encoding="UTF-8" standalone="no"?>
<!DOCTYPE svg PUBLIC "-//W3C//DTD SVG 1.1//EN" "http://www.w3.org/Graphics/SVG/1.1/DTD/svg11.dtd">
<svg width="100%" height="100%" viewBox="0 0 2048 2732" version="1.1" xmlns="http://www.w3.org/2000/svg" xmlns:xlink="http://www.w3.org/1999/xlink" xml:space="preserve" xmlns:serif="http://www.serif.com/" style="fill-rule:evenodd;clip-rule:evenodd;stroke-linecap:square;stroke-linejoin:round;stroke-miterlimit:1.5;">
    <g transform="matrix(1,0,0,1,-12254,0)">
        <g id="H-PRE-O-1" transform="matrix(1,0,0,1,12254,0)">
            <rect x="0" y="0" width="2048" height="2732" style="fill:none;"/>
			<a xlink:href="H-PRE-O.svg">
            <g id="S">
                <g transform="matrix(1,0,0,1,22,300)">
                    <rect x="0" y="0" width="1501.06" height="1501.09" style="fill:white;"/>
                </g>
                <g id="Meta-Ring-and-Background" serif:id="Meta-Ring and Background" transform="matrix(-1.09813,0,0,-1.09813,1578.56,2249.66)">
                    <g transform="matrix(0.545852,-0.945443,0.9537,0.550619,-641.299,1170.26)">
                        <ellipse cx="692" cy="1046" rx="458" ry="454" style="fill:none;stroke:black;stroke-width:0.46px;"/>
                    </g>
                    <g transform="matrix(0.5,-0.866025,0.629632,0.363518,-412.931,1316.59)">
                        <path d="M768,524.038L768,568" style="fill:none;stroke:black;stroke-width:0.57px;"/>
                    </g>
                    <g transform="matrix(0.5,-0.866025,0.629632,0.363518,425.349,1800.57)">
                        <path d="M768,524.038L768,568" style="fill:none;stroke:black;stroke-width:0.57px;"/>
                    </g>
                    <g transform="matrix(-0.866025,-0.5,0.363518,-0.629632,1442.63,1400.58)">
                        <path d="M768,524.038L768,568" style="fill:none;stroke:black;stroke-width:0.57px;"/>
                    </g>
                    <g transform="matrix(-0.866025,-0.5,0.363518,-0.629632,958.61,2238.93)">
                        <path d="M768,524.038L768,568" style="fill:none;stroke:black;stroke-width:0.57px;"/>
                    </g>
                    <g transform="matrix(0.866025,-0.5,0.363518,0.629632,-371.594,713.016)">
                        <path d="M768,524.038L768,568" style="fill:none;stroke:black;stroke-width:0.57px;"/>
                    </g>
                    <g transform="matrix(0.866025,-0.5,0.363518,0.629632,112.404,1551.33)">
                        <path d="M768,524.038L768,568" style="fill:none;stroke:black;stroke-width:0.57px;"/>
                    </g>
                    <g transform="matrix(-0.5,-0.866025,0.629632,-0.363518,1193.38,1713.55)">
                        <path d="M768,524.038L768,568" style="fill:none;stroke:black;stroke-width:0.57px;"/>
                    </g>
                    <g transform="matrix(-0.5,-0.866025,0.629632,-0.363518,355.038,2197.57)">
                        <path d="M768,524.038L768,568" style="fill:none;stroke:black;stroke-width:0.57px;"/>
                    </g>
                    <g transform="matrix(1,0,0,0.727036,-34,210.969)">
                        <path d="M768,524.038L768,568" style="fill:none;stroke:black;stroke-width:0.57px;"/>
                    </g>
                    <g transform="matrix(1,0,0,0.727036,-34,1179)">
                        <path d="M768,524.038L768,568" style="fill:none;stroke:black;stroke-width:0.57px;"/>
                    </g>
                    <g transform="matrix(6.12323e-17,-1,0.727036,4.45181e-17,821.022,1859.96)">
                        <path d="M768,524.038L768,568" style="fill:none;stroke:black;stroke-width:0.57px;"/>
                    </g>
                    <g transform="matrix(6.12323e-17,-1,0.727036,4.45181e-17,-146.974,1859.96)">
                        <path d="M768,524.038L768,568" style="fill:none;stroke:black;stroke-width:0.57px;"/>
                    </g>
                </g>
                <g transform="matrix(-1.09813,0,0,-1.09811,1579.66,2245.28)">
                    <g transform="matrix(0.545852,-0.945443,0.9537,0.550619,-641.299,1170.26)">
                        <ellipse cx="692" cy="1046" rx="458" ry="454" style="fill:none;stroke:black;stroke-width:8.31px;stroke-linecap:round;"/>
                    </g>
                    <g transform="matrix(0.5,-0.866025,0.629632,0.363518,-412.931,1316.59)">
                        <path d="M768,524.038L768,568" style="fill:none;stroke:black;stroke-width:10.42px;stroke-linecap:round;"/>
                    </g>
                    <g transform="matrix(0.5,-0.866025,0.629632,0.363518,425.349,1800.57)">
                        <path d="M768,524.038L768,568" style="fill:none;stroke:black;stroke-width:10.42px;stroke-linecap:round;"/>
                    </g>
                    <g transform="matrix(-0.866025,-0.5,0.363518,-0.629632,1442.63,1400.58)">
                        <path d="M768,524.038L768,568" style="fill:none;stroke:black;stroke-width:10.42px;stroke-linecap:round;"/>
                    </g>
                    <g transform="matrix(-0.866025,-0.5,0.363518,-0.629632,958.61,2238.93)">
                        <path d="M768,524.038L768,568" style="fill:none;stroke:black;stroke-width:10.42px;stroke-linecap:round;"/>
                    </g>
                    <g transform="matrix(0.866025,-0.5,0.363518,0.629632,-371.594,713.016)">
                        <path d="M768,524.038L768,568" style="fill:none;stroke:black;stroke-width:10.42px;stroke-linecap:round;"/>
                    </g>
                    <g transform="matrix(0.866025,-0.5,0.363518,0.629632,112.404,1551.33)">
                        <path d="M768,524.038L768,568" style="fill:none;stroke:black;stroke-width:10.42px;stroke-linecap:round;"/>
                    </g>
                    <g transform="matrix(-0.5,-0.866025,0.629632,-0.363518,1193.38,1713.55)">
                        <path d="M768,524.038L768,568" style="fill:none;stroke:black;stroke-width:10.42px;stroke-linecap:round;"/>
                    </g>
                    <g transform="matrix(-0.5,-0.866025,0.629632,-0.363518,355.038,2197.57)">
                        <path d="M768,524.038L768,568" style="fill:none;stroke:black;stroke-width:10.42px;stroke-linecap:round;"/>
                    </g>
                    <g transform="matrix(1,0,0,0.727036,-34,210.969)">
                        <path d="M768,524.038L768,568" style="fill:none;stroke:black;stroke-width:10.42px;stroke-linecap:round;"/>
                    </g>
                    <g transform="matrix(1,0,0,0.727036,-34,1179)">
                        <path d="M768,524.038L768,568" style="fill:none;stroke:black;stroke-width:10.42px;stroke-linecap:round;"/>
                    </g>
                    <g transform="matrix(6.12323e-17,-1,0.727036,4.45181e-17,821.022,1859.96)">
                        <path d="M768,524.038L768,568" style="fill:none;stroke:black;stroke-width:10.42px;stroke-linecap:round;"/>
                    </g>
                    <g transform="matrix(6.12323e-17,-1,0.727036,4.45181e-17,-146.974,1859.96)">
                        <path d="M768,524.038L768,568" style="fill:none;stroke:black;stroke-width:10.42px;stroke-linecap:round;"/>
                    </g>
                </g>
                <g transform="matrix(-0.583619,-1.01086,0.902565,-0.521096,274.4,2320.36)">
                    <g id="Root-Markers" serif:id="Root Markers">
                        <path id="_8" serif:id="8" d="M731.999,618L768,730L695.999,730L731.999,618ZM731.999,680.84L740.959,708.715C740.959,708.715 723.04,708.715 723.04,708.715L731.999,680.84Z"/>
                    </g>
                </g>
                <g id="_10" serif:id="10" transform="matrix(-1.39762,2.4207,-2.45799,-1.41909,2667.89,-328.094)">
                    <ellipse cx="766" cy="526.5" rx="33" ry="32.5" style="fill:rgb(146,45,81);stroke:white;stroke-width:8.52px;stroke-linecap:round;"/>
                </g>
                <g id="_81" serif:id="8" transform="matrix(-1.39762,2.4207,-2.45799,-1.41909,2664.62,218.751)">
                    <ellipse cx="766" cy="526.5" rx="33" ry="32.5" style="fill:rgb(146,45,81);stroke:white;stroke-width:8.52px;stroke-linecap:round;"/>
                </g>
                <g id="_3" serif:id="3" transform="matrix(-1.39762,2.4207,-2.45799,-1.41909,3685.18,-55.5762)">
                    <ellipse cx="766" cy="526.5" rx="33" ry="32.5" style="fill:rgb(146,45,81);stroke:white;stroke-width:8.52px;stroke-linecap:round;"/>
                </g>
                <g id="_0" serif:id="0" transform="matrix(-1.39762,2.4207,-2.45799,-1.41909,3138.34,-603.96)">
                    <ellipse cx="766" cy="526.5" rx="33" ry="32.5" style="fill:rgb(146,45,81);stroke:white;stroke-width:8.52px;stroke-linecap:round;"/>
                </g>
            </g>
            <g transform="matrix(1,0,0,1,1086.59,153.916)">
                <g transform="matrix(0.591606,0,0,1,50.6473,0)">
                    <path d="M124.016,173.622L425.196,173.622" style="fill:none;fill-rule:nonzero;stroke:black;stroke-width:2.73px;stroke-linecap:butt;stroke-linejoin:bevel;stroke-miterlimit:4;"/>
                </g>
                <g transform="matrix(0.591606,0,0,1,50.6473,0)">
                    <path d="M124.016,198.425L425.196,198.425" style="fill:none;fill-rule:nonzero;stroke:black;stroke-width:2.73px;stroke-linecap:butt;stroke-linejoin:bevel;stroke-miterlimit:4;"/>
                </g>
                <g transform="matrix(0.591606,0,0,1,50.6473,0)">
                    <path d="M124.016,223.228L425.196,223.228" style="fill:none;fill-rule:nonzero;stroke:black;stroke-width:2.73px;stroke-linecap:butt;stroke-linejoin:bevel;stroke-miterlimit:4;"/>
                </g>
                <g transform="matrix(0.591606,0,0,1,50.6473,0)">
                    <path d="M124.016,248.031L425.196,248.031" style="fill:none;fill-rule:nonzero;stroke:black;stroke-width:2.73px;stroke-linecap:butt;stroke-linejoin:bevel;stroke-miterlimit:4;"/>
                </g>
                <g transform="matrix(0.591606,0,0,1,50.6473,0)">
                    <path d="M124.016,272.835L425.196,272.835" style="fill:none;fill-rule:nonzero;stroke:black;stroke-width:2.73px;stroke-linecap:butt;stroke-linejoin:bevel;stroke-miterlimit:4;"/>
                </g>
                <g transform="matrix(0.992126,0,0,0.992126,180.66,235.63)">
                    <path d="M20.094,-7.906C19.5,-11.797 17.094,-15.5 12,-15.5C7,-15.5 4.094,-12.406 3.594,-11.797L4,-43.906C4,-44.703 3.406,-45.297 2.594,-45.297L1.406,-45.297C0.594,-45.297 0,-44.703 0,-43.906L0.5,16.203C0.5,17 1.094,17.594 1.906,17.594C2.094,17.594 2.5,17.5 2.703,17.406C3.094,17.203 9.594,14 15,7.906C18.797,3.594 20.297,-1.297 20.297,-5.406C20.297,-6.297 20.203,-7.094 20.094,-7.906M13.203,-4C13.203,-2.5 12.797,2.094 10.297,5.906C8.594,8.5 5.203,11.203 3.297,12.703L3.594,-6.797C3.797,-7.703 5.297,-10.594 9.297,-10.594C12.906,-10.594 13.203,-7.203 13.203,-5.094L13.203,-4" style="fill-rule:nonzero;"/>
                </g>
                <g transform="matrix(0.992126,0,0,0.992126,149.472,223.228)">
                    <path d="M20.094,-7.906C19.5,-11.797 17.094,-15.5 12,-15.5C7,-15.5 4.094,-12.406 3.594,-11.797L4,-43.906C4,-44.703 3.406,-45.297 2.594,-45.297L1.406,-45.297C0.594,-45.297 0,-44.703 0,-43.906L0.5,16.203C0.5,17 1.094,17.594 1.906,17.594C2.094,17.594 2.5,17.5 2.703,17.406C3.094,17.203 9.594,14 15,7.906C18.797,3.594 20.297,-1.297 20.297,-5.406C20.297,-6.297 20.203,-7.094 20.094,-7.906M13.203,-4C13.203,-2.5 12.797,2.094 10.297,5.906C8.594,8.5 5.203,11.203 3.297,12.703L3.594,-6.797C3.797,-7.703 5.297,-10.594 9.297,-10.594C12.906,-10.594 13.203,-7.203 13.203,-5.094L13.203,-4" style="fill-rule:nonzero;"/>
                </g>
                <g transform="matrix(0.992126,0,0,0.992126,192.818,186.024)">
                    <path d="M20.094,-7.906C19.5,-11.797 17.094,-15.5 12,-15.5C7,-15.5 4.094,-12.406 3.594,-11.797L4,-43.906C4,-44.703 3.406,-45.297 2.594,-45.297L1.406,-45.297C0.594,-45.297 0,-44.703 0,-43.906L0.5,16.203C0.5,17 1.094,17.594 1.906,17.594C2.094,17.594 2.5,17.5 2.703,17.406C3.094,17.203 9.594,14 15,7.906C18.797,3.594 20.297,-1.297 20.297,-5.406C20.297,-6.297 20.203,-7.094 20.094,-7.906M13.203,-4C13.203,-2.5 12.797,2.094 10.297,5.906C8.594,8.5 5.203,11.203 3.297,12.703L3.594,-6.797C3.797,-7.703 5.297,-10.594 9.297,-10.594C12.906,-10.594 13.203,-7.203 13.203,-5.094L13.203,-4" style="fill-rule:nonzero;"/>
                </g>
                <g transform="matrix(0.992126,0,0,0.992126,219.156,223.228)">
                    <path d="M31.5,-8.094C29.703,-11.406 25.906,-13.203 21.297,-13.203C17.906,-13.203 14.203,-12.203 10.594,-10.297C4,-6.797 0,-0.906 0,4.203C0,5.594 0.297,7 1,8.297C2.797,11.594 6.594,13.297 11.203,13.297C14.594,13.297 18.297,12.406 21.906,10.5C28.5,7 32.5,1.094 32.5,-4C32.5,-5.406 32.203,-6.797 31.5,-8.094" style="fill-rule:nonzero;"/>
                </g>
                <g transform="matrix(0.992126,0,0,0.992126,251.393,210.827)">
                    <path d="M31.5,-8.094C29.703,-11.406 25.906,-13.203 21.297,-13.203C17.906,-13.203 14.203,-12.203 10.594,-10.297C4,-6.797 0,-0.906 0,4.203C0,5.594 0.297,7 1,8.297C2.797,11.594 6.594,13.297 11.203,13.297C14.594,13.297 18.297,12.406 21.906,10.5C28.5,7 32.5,1.094 32.5,-4C32.5,-5.406 32.203,-6.797 31.5,-8.094" style="fill-rule:nonzero;"/>
                </g>
                <g transform="matrix(0.992126,0,0,0.992126,251.393,186.024)">
                    <path d="M31.5,-8.094C29.703,-11.406 25.906,-13.203 21.297,-13.203C17.906,-13.203 14.203,-12.203 10.594,-10.297C4,-6.797 0,-0.906 0,4.203C0,5.594 0.297,7 1,8.297C2.797,11.594 6.594,13.297 11.203,13.297C14.594,13.297 18.297,12.406 21.906,10.5C28.5,7 32.5,1.094 32.5,-4C32.5,-5.406 32.203,-6.797 31.5,-8.094" style="fill-rule:nonzero;"/>
                </g>
                <g transform="matrix(0.992126,0,0,0.992126,251.393,235.63)">
                    <path d="M31.5,-8.094C29.703,-11.406 25.906,-13.203 21.297,-13.203C17.906,-13.203 14.203,-12.203 10.594,-10.297C4,-6.797 0,-0.906 0,4.203C0,5.594 0.297,7 1,8.297C2.797,11.594 6.594,13.297 11.203,13.297C14.594,13.297 18.297,12.406 21.906,10.5C28.5,7 32.5,1.094 32.5,-4C32.5,-5.406 32.203,-6.797 31.5,-8.094" style="fill-rule:nonzero;"/>
                </g>
            </g>
            <g>
                <g transform="matrix(1,0,0,1,-786.707,1618.52)">
                    <g transform="matrix(41.6667,0,0,41.6667,1009,174.378)">
                        <path d="M0.221,-0.396C0.196,-0.396 0.168,-0.39 0.151,-0.384C0.116,-0.371 0.091,-0.348 0.073,-0.32C0.05,-0.281 0.041,-0.231 0.041,-0.184C0.041,-0.171 0.041,-0.158 0.042,-0.146C0.05,-0.076 0.084,-0.027 0.151,-0.002C0.171,0.005 0.194,0.01 0.216,0.01C0.236,0.01 0.256,0.006 0.276,-0.001C0.291,-0.008 0.319,-0.037 0.335,-0.037C0.353,-0.037 0.355,-0.006 0.368,-0C0.374,0.004 0.386,0.005 0.4,0.005C0.421,0.005 0.445,0.001 0.451,-0.008C0.456,-0.016 0.458,-0.028 0.458,-0.042C0.458,-0.063 0.454,-0.087 0.452,-0.101C0.449,-0.134 0.45,-0.166 0.448,-0.199C0.447,-0.211 0.447,-0.223 0.447,-0.235C0.447,-0.288 0.452,-0.342 0.452,-0.398C0.452,-0.436 0.451,-0.475 0.451,-0.513C0.451,-0.54 0.451,-0.566 0.454,-0.592C0.455,-0.601 0.457,-0.611 0.457,-0.622C0.457,-0.635 0.454,-0.646 0.441,-0.651C0.436,-0.653 0.431,-0.654 0.426,-0.654C0.412,-0.654 0.397,-0.65 0.384,-0.65L0.371,-0.65C0.354,-0.65 0.346,-0.648 0.342,-0.626C0.34,-0.616 0.339,-0.607 0.339,-0.597C0.339,-0.587 0.34,-0.577 0.341,-0.568C0.344,-0.54 0.349,-0.514 0.349,-0.486L0.349,-0.476C0.347,-0.459 0.346,-0.441 0.346,-0.425L0.346,-0.416C0.346,-0.402 0.354,-0.386 0.354,-0.372C0.354,-0.367 0.353,-0.362 0.351,-0.358C0.346,-0.35 0.341,-0.346 0.337,-0.346C0.327,-0.346 0.317,-0.359 0.31,-0.366C0.296,-0.376 0.276,-0.381 0.261,-0.388C0.25,-0.393 0.236,-0.396 0.221,-0.396ZM0.128,-0.204C0.128,-0.237 0.14,-0.267 0.169,-0.291C0.184,-0.302 0.204,-0.31 0.23,-0.311L0.236,-0.311C0.267,-0.311 0.292,-0.304 0.315,-0.28C0.336,-0.256 0.35,-0.225 0.35,-0.193L0.35,-0.186C0.348,-0.154 0.328,-0.104 0.301,-0.086C0.289,-0.078 0.274,-0.076 0.257,-0.076C0.229,-0.076 0.197,-0.084 0.178,-0.094C0.151,-0.107 0.138,-0.141 0.132,-0.17C0.13,-0.181 0.128,-0.193 0.128,-0.204Z" style="fill-rule:nonzero;"/>
                    </g>
                    <g transform="matrix(41.6667,0,0,41.6667,1030.58,174.378)">
                        <path d="M0.26,-0.4C0.229,-0.4 0.2,-0.388 0.171,-0.381C0.14,-0.373 0.111,-0.359 0.088,-0.333C0.055,-0.295 0.046,-0.251 0.046,-0.206C0.046,-0.19 0.047,-0.173 0.049,-0.156C0.056,-0.088 0.086,-0.043 0.145,-0.007C0.176,0.012 0.205,0.021 0.236,0.021C0.261,0.021 0.286,0.015 0.313,0.004C0.346,-0.01 0.387,-0.024 0.411,-0.052C0.415,-0.058 0.417,-0.064 0.417,-0.07C0.417,-0.093 0.387,-0.116 0.363,-0.116C0.359,-0.116 0.356,-0.115 0.352,-0.114C0.327,-0.104 0.313,-0.078 0.286,-0.072C0.28,-0.071 0.273,-0.071 0.266,-0.071L0.243,-0.071C0.216,-0.071 0.188,-0.076 0.169,-0.097C0.158,-0.109 0.146,-0.131 0.146,-0.148C0.146,-0.151 0.146,-0.154 0.147,-0.157C0.151,-0.173 0.166,-0.176 0.181,-0.176C0.195,-0.176 0.209,-0.174 0.22,-0.174C0.231,-0.174 0.238,-0.175 0.246,-0.175C0.29,-0.175 0.334,-0.17 0.378,-0.17L0.386,-0.17C0.416,-0.17 0.432,-0.171 0.432,-0.197C0.432,-0.201 0.432,-0.206 0.431,-0.211C0.427,-0.243 0.426,-0.273 0.41,-0.302C0.381,-0.355 0.321,-0.4 0.26,-0.4ZM0.166,-0.295C0.168,-0.298 0.171,-0.301 0.174,-0.303C0.191,-0.316 0.216,-0.324 0.241,-0.324C0.274,-0.324 0.307,-0.311 0.321,-0.283C0.323,-0.278 0.325,-0.271 0.325,-0.265C0.325,-0.256 0.322,-0.246 0.317,-0.241C0.308,-0.233 0.286,-0.235 0.274,-0.234L0.266,-0.234C0.246,-0.234 0.227,-0.236 0.207,-0.236C0.18,-0.236 0.151,-0.245 0.151,-0.266C0.151,-0.273 0.156,-0.283 0.166,-0.295Z" style="fill-rule:nonzero;"/>
                    </g>
                    <g transform="matrix(41.6667,0,0,41.6667,1050.42,174.378)">
                        <path d="M0.148,-0.62C0.112,-0.601 0.09,-0.573 0.078,-0.54C0.07,-0.518 0.066,-0.492 0.066,-0.466L0.066,-0.458C0.067,-0.447 0.07,-0.435 0.07,-0.422C0.07,-0.414 0.068,-0.406 0.066,-0.399C0.055,-0.376 0.031,-0.388 0.016,-0.372C0.009,-0.365 0.006,-0.348 0.006,-0.332C0.006,-0.323 0.006,-0.315 0.009,-0.31C0.016,-0.288 0.039,-0.296 0.055,-0.284C0.067,-0.274 0.068,-0.265 0.069,-0.249C0.069,-0.239 0.07,-0.231 0.07,-0.222C0.07,-0.178 0.065,-0.133 0.065,-0.089L0.065,-0.058C0.065,-0.041 0.066,-0.023 0.072,-0.011C0.079,0.002 0.099,0.008 0.119,0.008C0.131,0.008 0.145,0.005 0.153,0.001C0.165,-0.005 0.168,-0.019 0.168,-0.034C0.168,-0.049 0.166,-0.066 0.165,-0.076C0.162,-0.115 0.164,-0.153 0.161,-0.191C0.159,-0.206 0.155,-0.226 0.155,-0.246C0.155,-0.261 0.157,-0.275 0.166,-0.284C0.176,-0.293 0.189,-0.294 0.203,-0.294L0.219,-0.294C0.231,-0.294 0.241,-0.295 0.248,-0.301C0.254,-0.306 0.256,-0.314 0.256,-0.323C0.256,-0.331 0.254,-0.339 0.254,-0.346L0.254,-0.353C0.254,-0.367 0.252,-0.375 0.235,-0.378C0.203,-0.384 0.166,-0.371 0.161,-0.414C0.159,-0.428 0.157,-0.445 0.157,-0.461C0.157,-0.479 0.159,-0.496 0.164,-0.511C0.175,-0.546 0.197,-0.558 0.229,-0.56L0.236,-0.56C0.27,-0.56 0.282,-0.545 0.3,-0.515C0.307,-0.501 0.312,-0.486 0.326,-0.482C0.331,-0.481 0.336,-0.481 0.341,-0.481C0.354,-0.481 0.368,-0.483 0.377,-0.484C0.4,-0.486 0.406,-0.493 0.406,-0.504C0.406,-0.516 0.399,-0.53 0.393,-0.546C0.368,-0.614 0.308,-0.644 0.245,-0.644C0.211,-0.644 0.178,-0.636 0.148,-0.62ZM0.335,-0.375C0.332,-0.375 0.33,-0.374 0.327,-0.374C0.321,-0.372 0.317,-0.37 0.314,-0.364C0.311,-0.358 0.309,-0.351 0.309,-0.344C0.309,-0.331 0.313,-0.316 0.314,-0.305L0.314,-0.291C0.314,-0.268 0.311,-0.246 0.311,-0.223L0.311,-0.213C0.311,-0.177 0.314,-0.141 0.314,-0.106C0.314,-0.086 0.313,-0.066 0.311,-0.046C0.31,-0.04 0.309,-0.034 0.309,-0.028C0.309,-0.001 0.323,0.005 0.349,0.005C0.355,0.005 0.362,0.005 0.37,0.004L0.385,0.004C0.395,0.004 0.405,0.004 0.411,-0.002C0.415,-0.006 0.416,-0.015 0.416,-0.023C0.416,-0.032 0.415,-0.042 0.415,-0.048C0.415,-0.096 0.411,-0.146 0.408,-0.194C0.407,-0.201 0.407,-0.209 0.407,-0.217C0.407,-0.258 0.412,-0.299 0.412,-0.339C0.412,-0.366 0.401,-0.374 0.381,-0.374C0.376,-0.374 0.372,-0.373 0.368,-0.373C0.366,-0.373 0.364,-0.372 0.361,-0.372C0.352,-0.372 0.343,-0.375 0.335,-0.375Z" style="fill-rule:nonzero;"/>
                    </g>
                    <g transform="matrix(41.6667,0,0,41.6667,1071.25,174.378)">
                        <path d="M0.095,-0.391C0.074,-0.389 0.071,-0.378 0.071,-0.357C0.071,-0.325 0.075,-0.291 0.076,-0.26C0.077,-0.238 0.077,-0.216 0.077,-0.194C0.077,-0.152 0.076,-0.11 0.072,-0.069C0.071,-0.057 0.066,-0.04 0.066,-0.026C0.066,-0.017 0.067,-0.011 0.071,-0.006C0.079,0.006 0.096,0.01 0.113,0.01C0.131,0.01 0.149,0.006 0.161,0.002C0.177,-0.005 0.182,-0.017 0.182,-0.031C0.182,-0.043 0.178,-0.057 0.176,-0.07C0.171,-0.102 0.171,-0.134 0.171,-0.166L0.171,-0.191C0.171,-0.227 0.173,-0.256 0.203,-0.281C0.218,-0.293 0.242,-0.303 0.265,-0.303C0.277,-0.303 0.291,-0.3 0.3,-0.291C0.321,-0.272 0.327,-0.238 0.327,-0.203C0.327,-0.163 0.319,-0.119 0.318,-0.09C0.317,-0.073 0.311,-0.05 0.311,-0.03C0.311,-0.02 0.313,-0.011 0.317,-0.003C0.324,0.009 0.343,0.012 0.361,0.012C0.371,0.012 0.382,0.01 0.389,0.009C0.414,0.007 0.426,-0.002 0.426,-0.023C0.426,-0.026 0.425,-0.029 0.425,-0.032C0.421,-0.067 0.422,-0.101 0.42,-0.136C0.419,-0.153 0.417,-0.168 0.417,-0.185C0.417,-0.19 0.417,-0.195 0.418,-0.201C0.419,-0.211 0.419,-0.221 0.419,-0.231C0.419,-0.256 0.416,-0.281 0.408,-0.306C0.395,-0.347 0.383,-0.362 0.346,-0.383C0.328,-0.393 0.309,-0.396 0.289,-0.396C0.279,-0.396 0.268,-0.396 0.258,-0.394C0.241,-0.391 0.227,-0.386 0.213,-0.378C0.203,-0.372 0.186,-0.35 0.176,-0.348C0.174,-0.348 0.172,-0.347 0.171,-0.347C0.166,-0.347 0.164,-0.352 0.164,-0.358C0.164,-0.361 0.165,-0.365 0.165,-0.369C0.165,-0.374 0.164,-0.379 0.161,-0.383C0.155,-0.391 0.136,-0.392 0.121,-0.392C0.11,-0.392 0.101,-0.391 0.095,-0.391Z" style="fill-rule:nonzero;"/>
                    </g>
                    <g transform="matrix(41.6667,0,0,41.6667,1091.42,174.378)">
                        <path d="M0.26,-0.4C0.229,-0.4 0.2,-0.388 0.171,-0.381C0.14,-0.373 0.111,-0.359 0.088,-0.333C0.055,-0.295 0.046,-0.251 0.046,-0.206C0.046,-0.19 0.047,-0.173 0.049,-0.156C0.056,-0.088 0.086,-0.043 0.145,-0.007C0.176,0.012 0.205,0.021 0.236,0.021C0.261,0.021 0.286,0.015 0.313,0.004C0.346,-0.01 0.387,-0.024 0.411,-0.052C0.415,-0.058 0.417,-0.064 0.417,-0.07C0.417,-0.093 0.387,-0.116 0.363,-0.116C0.359,-0.116 0.356,-0.115 0.352,-0.114C0.327,-0.104 0.313,-0.078 0.286,-0.072C0.28,-0.071 0.273,-0.071 0.266,-0.071L0.243,-0.071C0.216,-0.071 0.188,-0.076 0.169,-0.097C0.158,-0.109 0.146,-0.131 0.146,-0.148C0.146,-0.151 0.146,-0.154 0.147,-0.157C0.151,-0.173 0.166,-0.176 0.181,-0.176C0.195,-0.176 0.209,-0.174 0.22,-0.174C0.231,-0.174 0.238,-0.175 0.246,-0.175C0.29,-0.175 0.334,-0.17 0.378,-0.17L0.386,-0.17C0.416,-0.17 0.432,-0.171 0.432,-0.197C0.432,-0.201 0.432,-0.206 0.431,-0.211C0.427,-0.243 0.426,-0.273 0.41,-0.302C0.381,-0.355 0.321,-0.4 0.26,-0.4ZM0.166,-0.295C0.168,-0.298 0.171,-0.301 0.174,-0.303C0.191,-0.316 0.216,-0.324 0.241,-0.324C0.274,-0.324 0.307,-0.311 0.321,-0.283C0.323,-0.278 0.325,-0.271 0.325,-0.265C0.325,-0.256 0.322,-0.246 0.317,-0.241C0.308,-0.233 0.286,-0.235 0.274,-0.234L0.266,-0.234C0.246,-0.234 0.227,-0.236 0.207,-0.236C0.18,-0.236 0.151,-0.245 0.151,-0.266C0.151,-0.273 0.156,-0.283 0.166,-0.295Z" style="fill-rule:nonzero;"/>
                    </g>
                    <g transform="matrix(41.6667,0,0,41.6667,1121.67,174.378)">
                        <path d="M0.041,-0.54C0.041,-0.528 0.043,-0.516 0.05,-0.506C0.064,-0.482 0.088,-0.472 0.112,-0.472C0.149,-0.472 0.186,-0.496 0.194,-0.533C0.195,-0.536 0.195,-0.541 0.195,-0.544C0.195,-0.584 0.152,-0.621 0.112,-0.621C0.108,-0.621 0.103,-0.62 0.099,-0.619C0.065,-0.611 0.041,-0.575 0.041,-0.54ZM0.094,-0.384C0.085,-0.384 0.076,-0.381 0.071,-0.369C0.066,-0.361 0.066,-0.351 0.066,-0.341C0.066,-0.318 0.072,-0.293 0.073,-0.273C0.074,-0.249 0.075,-0.224 0.075,-0.2C0.075,-0.159 0.073,-0.118 0.069,-0.078C0.067,-0.066 0.065,-0.05 0.065,-0.036C0.065,-0.018 0.069,-0.004 0.087,-0C0.095,0.002 0.114,0.004 0.132,0.004C0.151,0.004 0.169,0.002 0.174,-0.004C0.18,-0.011 0.182,-0.022 0.182,-0.036C0.182,-0.056 0.177,-0.08 0.176,-0.091C0.174,-0.121 0.172,-0.157 0.172,-0.183C0.173,-0.219 0.177,-0.256 0.177,-0.291L0.177,-0.311C0.177,-0.321 0.178,-0.331 0.178,-0.341C0.178,-0.351 0.177,-0.361 0.175,-0.369C0.171,-0.38 0.161,-0.382 0.15,-0.382C0.141,-0.382 0.131,-0.381 0.123,-0.381L0.119,-0.381C0.111,-0.381 0.102,-0.384 0.094,-0.384Z" style="fill-rule:nonzero;"/>
                    </g>
                    <g transform="matrix(41.6667,0,0,41.6667,1131.88,174.378)">
                        <path d="M0.095,-0.391C0.074,-0.389 0.071,-0.378 0.071,-0.357C0.071,-0.325 0.075,-0.291 0.076,-0.26C0.077,-0.238 0.077,-0.216 0.077,-0.194C0.077,-0.152 0.076,-0.11 0.072,-0.069C0.071,-0.057 0.066,-0.04 0.066,-0.026C0.066,-0.017 0.067,-0.011 0.071,-0.006C0.079,0.006 0.096,0.01 0.113,0.01C0.131,0.01 0.149,0.006 0.161,0.002C0.177,-0.005 0.182,-0.017 0.182,-0.031C0.182,-0.043 0.178,-0.057 0.176,-0.07C0.171,-0.102 0.171,-0.134 0.171,-0.166L0.171,-0.191C0.171,-0.227 0.173,-0.256 0.203,-0.281C0.218,-0.293 0.242,-0.303 0.265,-0.303C0.277,-0.303 0.291,-0.3 0.3,-0.291C0.321,-0.272 0.327,-0.238 0.327,-0.203C0.327,-0.163 0.319,-0.119 0.318,-0.09C0.317,-0.073 0.311,-0.05 0.311,-0.03C0.311,-0.02 0.313,-0.011 0.317,-0.003C0.324,0.009 0.343,0.012 0.361,0.012C0.371,0.012 0.382,0.01 0.389,0.009C0.414,0.007 0.426,-0.002 0.426,-0.023C0.426,-0.026 0.425,-0.029 0.425,-0.032C0.421,-0.067 0.422,-0.101 0.42,-0.136C0.419,-0.153 0.417,-0.168 0.417,-0.185C0.417,-0.19 0.417,-0.195 0.418,-0.201C0.419,-0.211 0.419,-0.221 0.419,-0.231C0.419,-0.256 0.416,-0.281 0.408,-0.306C0.395,-0.347 0.383,-0.362 0.346,-0.383C0.328,-0.393 0.309,-0.396 0.289,-0.396C0.279,-0.396 0.268,-0.396 0.258,-0.394C0.241,-0.391 0.227,-0.386 0.213,-0.378C0.203,-0.372 0.186,-0.35 0.176,-0.348C0.174,-0.348 0.172,-0.347 0.171,-0.347C0.166,-0.347 0.164,-0.352 0.164,-0.358C0.164,-0.361 0.165,-0.365 0.165,-0.369C0.165,-0.374 0.164,-0.379 0.161,-0.383C0.155,-0.391 0.136,-0.392 0.121,-0.392C0.11,-0.392 0.101,-0.391 0.095,-0.391Z" style="fill-rule:nonzero;"/>
                    </g>
                    <g transform="matrix(41.6667,0,0,41.6667,1162.46,174.378)">
                        <path d="M0.196,-0.49C0.196,-0.5 0.194,-0.509 0.191,-0.515C0.185,-0.523 0.174,-0.525 0.164,-0.525C0.157,-0.525 0.151,-0.524 0.146,-0.524C0.112,-0.522 0.086,-0.527 0.086,-0.484C0.086,-0.468 0.094,-0.442 0.094,-0.421C0.094,-0.409 0.091,-0.397 0.083,-0.391C0.078,-0.386 0.072,-0.385 0.066,-0.385C0.061,-0.385 0.056,-0.386 0.051,-0.386C0.046,-0.386 0.042,-0.386 0.039,-0.384C0.023,-0.377 0.023,-0.361 0.021,-0.346C0.02,-0.34 0.019,-0.335 0.019,-0.329C0.019,-0.321 0.021,-0.312 0.029,-0.306C0.046,-0.294 0.071,-0.308 0.084,-0.291C0.092,-0.28 0.094,-0.26 0.094,-0.24C0.094,-0.221 0.092,-0.201 0.092,-0.189C0.092,-0.159 0.091,-0.13 0.09,-0.1C0.089,-0.084 0.082,-0.054 0.082,-0.031C0.082,-0.021 0.084,-0.011 0.088,-0.006C0.096,0.004 0.113,0.006 0.128,0.006C0.135,0.006 0.141,0.005 0.146,0.005C0.154,0.005 0.161,0.006 0.167,0.006C0.178,0.006 0.186,0.004 0.191,-0.009C0.193,-0.016 0.194,-0.021 0.194,-0.028C0.194,-0.042 0.189,-0.057 0.187,-0.072C0.186,-0.091 0.186,-0.111 0.186,-0.129C0.184,-0.154 0.184,-0.179 0.184,-0.204C0.184,-0.219 0.184,-0.235 0.185,-0.25C0.186,-0.261 0.186,-0.271 0.187,-0.281C0.194,-0.328 0.264,-0.28 0.264,-0.332L0.264,-0.356C0.264,-0.364 0.263,-0.372 0.257,-0.377C0.252,-0.381 0.247,-0.382 0.241,-0.382C0.231,-0.382 0.22,-0.378 0.21,-0.378C0.205,-0.378 0.2,-0.379 0.196,-0.383C0.19,-0.388 0.189,-0.4 0.189,-0.41L0.189,-0.425C0.189,-0.44 0.196,-0.467 0.196,-0.49Z" style="fill-rule:nonzero;"/>
                    </g>
                    <g transform="matrix(41.6667,0,0,41.6667,1174.29,174.378)">
                        <path d="M0.26,-0.4C0.229,-0.4 0.2,-0.388 0.171,-0.381C0.14,-0.373 0.111,-0.359 0.088,-0.333C0.055,-0.295 0.046,-0.251 0.046,-0.206C0.046,-0.19 0.047,-0.173 0.049,-0.156C0.056,-0.088 0.086,-0.043 0.145,-0.007C0.176,0.012 0.205,0.021 0.236,0.021C0.261,0.021 0.286,0.015 0.313,0.004C0.346,-0.01 0.387,-0.024 0.411,-0.052C0.415,-0.058 0.417,-0.064 0.417,-0.07C0.417,-0.093 0.387,-0.116 0.363,-0.116C0.359,-0.116 0.356,-0.115 0.352,-0.114C0.327,-0.104 0.313,-0.078 0.286,-0.072C0.28,-0.071 0.273,-0.071 0.266,-0.071L0.243,-0.071C0.216,-0.071 0.188,-0.076 0.169,-0.097C0.158,-0.109 0.146,-0.131 0.146,-0.148C0.146,-0.151 0.146,-0.154 0.147,-0.157C0.151,-0.173 0.166,-0.176 0.181,-0.176C0.195,-0.176 0.209,-0.174 0.22,-0.174C0.231,-0.174 0.238,-0.175 0.246,-0.175C0.29,-0.175 0.334,-0.17 0.378,-0.17L0.386,-0.17C0.416,-0.17 0.432,-0.171 0.432,-0.197C0.432,-0.201 0.432,-0.206 0.431,-0.211C0.427,-0.243 0.426,-0.273 0.41,-0.302C0.381,-0.355 0.321,-0.4 0.26,-0.4ZM0.166,-0.295C0.168,-0.298 0.171,-0.301 0.174,-0.303C0.191,-0.316 0.216,-0.324 0.241,-0.324C0.274,-0.324 0.307,-0.311 0.321,-0.283C0.323,-0.278 0.325,-0.271 0.325,-0.265C0.325,-0.256 0.322,-0.246 0.317,-0.241C0.308,-0.233 0.286,-0.235 0.274,-0.234L0.266,-0.234C0.246,-0.234 0.227,-0.236 0.207,-0.236C0.18,-0.236 0.151,-0.245 0.151,-0.266C0.151,-0.273 0.156,-0.283 0.166,-0.295Z" style="fill-rule:nonzero;"/>
                    </g>
                    <g transform="matrix(41.6667,0,0,41.6667,1194.12,174.378)">
                        <path d="M0.074,-0.391C0.066,-0.386 0.061,-0.377 0.058,-0.365C0.057,-0.359 0.056,-0.352 0.056,-0.346C0.056,-0.311 0.066,-0.268 0.068,-0.251C0.069,-0.24 0.069,-0.228 0.069,-0.216C0.069,-0.186 0.067,-0.156 0.066,-0.126C0.064,-0.101 0.061,-0.074 0.061,-0.048C0.061,-0.039 0.061,-0.029 0.062,-0.021C0.065,-0.001 0.076,0.004 0.092,0.004C0.105,0.004 0.121,-0 0.134,-0L0.136,-0C0.145,0.001 0.152,0.003 0.157,0.003C0.165,0.003 0.169,-0 0.173,-0.011C0.175,-0.016 0.176,-0.022 0.176,-0.029C0.176,-0.039 0.174,-0.05 0.173,-0.058C0.169,-0.088 0.166,-0.119 0.166,-0.149C0.166,-0.171 0.168,-0.192 0.171,-0.214C0.177,-0.251 0.198,-0.3 0.242,-0.3C0.245,-0.3 0.248,-0.299 0.251,-0.299C0.264,-0.297 0.273,-0.295 0.281,-0.295C0.292,-0.295 0.299,-0.299 0.306,-0.316C0.311,-0.329 0.321,-0.351 0.321,-0.369C0.321,-0.376 0.32,-0.384 0.314,-0.39C0.306,-0.398 0.29,-0.401 0.275,-0.401C0.266,-0.401 0.259,-0.4 0.253,-0.399C0.221,-0.395 0.212,-0.377 0.189,-0.361C0.185,-0.358 0.185,-0.356 0.179,-0.354C0.17,-0.356 0.168,-0.359 0.168,-0.363L0.168,-0.367C0.168,-0.37 0.168,-0.371 0.167,-0.374C0.161,-0.386 0.149,-0.387 0.136,-0.387C0.129,-0.387 0.121,-0.386 0.115,-0.386C0.112,-0.386 0.11,-0.386 0.107,-0.387C0.099,-0.388 0.091,-0.392 0.083,-0.392C0.08,-0.392 0.077,-0.392 0.074,-0.391Z" style="fill-rule:nonzero;"/>
                    </g>
                    <g transform="matrix(41.6667,0,0,41.6667,1207.92,174.378)">
                        <path d="M0.081,-0.391C0.078,-0.387 0.074,-0.382 0.072,-0.377C0.071,-0.373 0.07,-0.369 0.07,-0.364C0.07,-0.354 0.073,-0.343 0.075,-0.332C0.075,-0.323 0.076,-0.316 0.076,-0.308L0.076,-0.262C0.076,-0.205 0.069,-0.146 0.069,-0.088L0.069,-0.081C0.069,-0.068 0.066,-0.053 0.066,-0.039C0.066,-0.021 0.071,-0.004 0.09,0.002C0.098,0.004 0.116,0.007 0.133,0.007C0.153,0.007 0.174,0.004 0.18,-0.004C0.185,-0.011 0.186,-0.022 0.186,-0.035C0.186,-0.058 0.181,-0.086 0.18,-0.1C0.178,-0.116 0.177,-0.131 0.177,-0.148C0.177,-0.164 0.178,-0.181 0.178,-0.197C0.178,-0.21 0.177,-0.223 0.177,-0.236C0.177,-0.256 0.179,-0.275 0.191,-0.29C0.203,-0.303 0.222,-0.312 0.241,-0.312C0.253,-0.312 0.265,-0.309 0.274,-0.301C0.296,-0.284 0.295,-0.239 0.297,-0.213C0.299,-0.196 0.3,-0.181 0.3,-0.165C0.3,-0.148 0.299,-0.132 0.297,-0.116C0.295,-0.095 0.292,-0.073 0.292,-0.051C0.292,-0.047 0.293,-0.042 0.293,-0.037C0.295,-0.006 0.307,-0.001 0.329,-0.001C0.335,-0.001 0.341,-0.002 0.347,-0.002C0.356,-0.002 0.366,-0 0.373,-0C0.381,-0 0.387,-0.002 0.393,-0.011C0.398,-0.018 0.4,-0.025 0.4,-0.031C0.4,-0.042 0.395,-0.053 0.391,-0.066C0.389,-0.076 0.389,-0.086 0.389,-0.096L0.389,-0.126C0.388,-0.135 0.388,-0.144 0.388,-0.153C0.388,-0.163 0.388,-0.172 0.389,-0.182C0.391,-0.224 0.397,-0.311 0.451,-0.311C0.458,-0.311 0.465,-0.31 0.473,-0.307C0.518,-0.292 0.526,-0.242 0.526,-0.195C0.526,-0.171 0.524,-0.149 0.524,-0.131C0.524,-0.097 0.517,-0.064 0.514,-0.03L0.514,-0.026C0.514,-0.003 0.536,0.004 0.56,0.004C0.578,0.004 0.597,-0.001 0.608,-0.006C0.623,-0.012 0.627,-0.022 0.627,-0.033C0.627,-0.046 0.621,-0.061 0.62,-0.075C0.616,-0.109 0.614,-0.147 0.614,-0.182C0.614,-0.196 0.615,-0.211 0.615,-0.226L0.615,-0.282C0.615,-0.302 0.613,-0.322 0.605,-0.342C0.587,-0.384 0.551,-0.403 0.511,-0.403C0.493,-0.403 0.475,-0.399 0.457,-0.391C0.436,-0.38 0.417,-0.351 0.395,-0.345C0.393,-0.344 0.391,-0.344 0.389,-0.344C0.37,-0.344 0.348,-0.372 0.331,-0.382C0.314,-0.393 0.297,-0.4 0.279,-0.4C0.271,-0.4 0.264,-0.398 0.256,-0.396C0.231,-0.39 0.211,-0.367 0.186,-0.367C0.18,-0.367 0.174,-0.369 0.167,-0.371C0.154,-0.377 0.146,-0.387 0.132,-0.391C0.128,-0.391 0.109,-0.393 0.095,-0.393C0.087,-0.393 0.081,-0.393 0.081,-0.391Z" style="fill-rule:nonzero;"/>
                    </g>
                    <g transform="matrix(41.6667,0,0,41.6667,1236.25,174.378)">
                        <path d="M0.136,-0.388C0.111,-0.381 0.087,-0.371 0.069,-0.355C0.05,-0.337 0.037,-0.315 0.037,-0.286C0.037,-0.281 0.037,-0.277 0.038,-0.273C0.042,-0.226 0.078,-0.194 0.117,-0.173C0.141,-0.16 0.216,-0.148 0.216,-0.111C0.216,-0.108 0.215,-0.105 0.214,-0.101C0.208,-0.083 0.188,-0.076 0.169,-0.076C0.156,-0.076 0.143,-0.079 0.133,-0.084C0.117,-0.091 0.115,-0.108 0.096,-0.111C0.093,-0.112 0.09,-0.112 0.086,-0.112C0.075,-0.112 0.063,-0.109 0.054,-0.103C0.038,-0.095 0.024,-0.079 0.024,-0.062C0.024,-0.056 0.026,-0.049 0.032,-0.043C0.041,-0.032 0.062,-0.023 0.076,-0.016C0.09,-0.007 0.108,-0.002 0.124,0.002C0.136,0.005 0.151,0.008 0.167,0.008C0.186,0.008 0.206,0.005 0.221,-0C0.276,-0.016 0.302,-0.062 0.302,-0.113C0.302,-0.126 0.301,-0.141 0.297,-0.154C0.285,-0.201 0.232,-0.22 0.193,-0.24C0.173,-0.25 0.129,-0.263 0.129,-0.288C0.129,-0.293 0.131,-0.298 0.134,-0.304C0.141,-0.314 0.15,-0.317 0.16,-0.317C0.168,-0.317 0.177,-0.315 0.186,-0.312C0.199,-0.308 0.212,-0.295 0.226,-0.293C0.246,-0.293 0.263,-0.312 0.272,-0.326C0.276,-0.331 0.278,-0.337 0.278,-0.342C0.278,-0.354 0.268,-0.364 0.256,-0.373C0.246,-0.38 0.23,-0.388 0.218,-0.391C0.213,-0.392 0.207,-0.392 0.202,-0.392L0.192,-0.392C0.185,-0.392 0.178,-0.393 0.171,-0.393C0.159,-0.393 0.148,-0.391 0.136,-0.388Z" style="fill-rule:nonzero;"/>
                    </g>
                    <g transform="matrix(41.6667,0,0,41.6667,1260.46,174.378)">
                        <path d="M0.426,-0.294C0.405,-0.331 0.381,-0.357 0.344,-0.378C0.316,-0.394 0.283,-0.401 0.25,-0.401C0.183,-0.401 0.114,-0.371 0.081,-0.318C0.056,-0.278 0.044,-0.23 0.044,-0.181C0.044,-0.166 0.045,-0.152 0.047,-0.138C0.061,-0.041 0.162,0.016 0.256,0.016C0.286,0.016 0.315,0.01 0.341,-0.001C0.417,-0.036 0.451,-0.111 0.451,-0.19C0.451,-0.205 0.45,-0.219 0.447,-0.234C0.445,-0.256 0.437,-0.275 0.426,-0.294ZM0.132,-0.193C0.132,-0.197 0.132,-0.201 0.133,-0.205C0.141,-0.266 0.194,-0.305 0.249,-0.305C0.276,-0.305 0.302,-0.296 0.325,-0.276C0.347,-0.255 0.365,-0.224 0.365,-0.192C0.365,-0.188 0.365,-0.184 0.364,-0.18C0.357,-0.14 0.331,-0.1 0.295,-0.081C0.281,-0.075 0.267,-0.071 0.252,-0.071C0.247,-0.071 0.241,-0.072 0.236,-0.073C0.214,-0.076 0.207,-0.08 0.192,-0.092C0.191,-0.093 0.19,-0.095 0.188,-0.096C0.171,-0.111 0.156,-0.121 0.145,-0.141C0.137,-0.158 0.132,-0.176 0.132,-0.193Z" style="fill-rule:nonzero;"/>
                    </g>
                    <g transform="matrix(41.6667,0,0,41.6667,1281.17,174.378)">
                        <path d="M0.166,-0.633C0.139,-0.621 0.124,-0.601 0.115,-0.578C0.104,-0.55 0.103,-0.515 0.103,-0.482L0.103,-0.454C0.103,-0.431 0.101,-0.405 0.092,-0.391C0.087,-0.385 0.083,-0.382 0.078,-0.382C0.072,-0.382 0.066,-0.385 0.06,-0.385C0.038,-0.385 0.041,-0.372 0.04,-0.356C0.04,-0.344 0.036,-0.331 0.036,-0.318C0.036,-0.315 0.036,-0.311 0.037,-0.308C0.042,-0.294 0.051,-0.293 0.062,-0.293L0.076,-0.293C0.098,-0.291 0.103,-0.276 0.103,-0.258C0.103,-0.246 0.101,-0.231 0.101,-0.219C0.101,-0.186 0.101,-0.154 0.099,-0.121C0.097,-0.093 0.09,-0.064 0.09,-0.036C0.09,-0.031 0.09,-0.027 0.091,-0.023C0.094,0.003 0.112,0.008 0.132,0.008C0.142,0.008 0.152,0.006 0.161,0.006C0.171,0.006 0.178,0.008 0.185,0.008C0.191,0.008 0.197,0.006 0.201,-0.001C0.205,-0.005 0.206,-0.013 0.206,-0.021C0.206,-0.031 0.204,-0.041 0.204,-0.047C0.202,-0.074 0.196,-0.101 0.196,-0.128L0.196,-0.133C0.197,-0.165 0.201,-0.196 0.201,-0.228C0.201,-0.237 0.2,-0.246 0.2,-0.256C0.2,-0.278 0.204,-0.298 0.235,-0.3L0.24,-0.3C0.251,-0.3 0.262,-0.298 0.274,-0.298C0.281,-0.298 0.29,-0.299 0.297,-0.301C0.301,-0.302 0.306,-0.336 0.306,-0.34C0.306,-0.344 0.306,-0.366 0.304,-0.368C0.299,-0.375 0.288,-0.376 0.279,-0.376L0.263,-0.376C0.256,-0.376 0.247,-0.375 0.239,-0.375C0.226,-0.375 0.215,-0.376 0.206,-0.388C0.201,-0.395 0.2,-0.404 0.2,-0.415C0.2,-0.427 0.202,-0.44 0.203,-0.449C0.206,-0.467 0.203,-0.487 0.207,-0.504C0.216,-0.537 0.25,-0.55 0.281,-0.55C0.302,-0.55 0.304,-0.555 0.304,-0.567L0.304,-0.584C0.305,-0.597 0.306,-0.608 0.306,-0.616C0.306,-0.633 0.3,-0.641 0.269,-0.646C0.26,-0.648 0.25,-0.649 0.24,-0.649C0.215,-0.649 0.188,-0.643 0.166,-0.633Z" style="fill-rule:nonzero;"/>
                    </g>
                    <g transform="matrix(41.6667,0,0,41.6667,1304.63,174.378)">
                        <path d="M0.139,-0.378C0.102,-0.357 0.08,-0.332 0.066,-0.302C0.053,-0.275 0.048,-0.242 0.046,-0.206L0.046,-0.193C0.046,-0.172 0.048,-0.15 0.051,-0.129C0.066,-0.031 0.152,0.014 0.241,0.014C0.258,0.014 0.275,0.013 0.291,0.009C0.301,0.008 0.311,0.007 0.322,0.003C0.346,-0.006 0.353,-0.027 0.353,-0.051L0.353,-0.064C0.353,-0.075 0.356,-0.087 0.356,-0.096C0.356,-0.106 0.353,-0.112 0.341,-0.113L0.337,-0.113C0.321,-0.113 0.304,-0.102 0.291,-0.097C0.273,-0.091 0.258,-0.086 0.243,-0.086C0.223,-0.086 0.203,-0.094 0.181,-0.107C0.159,-0.121 0.146,-0.138 0.138,-0.162C0.136,-0.171 0.134,-0.181 0.134,-0.191C0.134,-0.221 0.144,-0.256 0.162,-0.273C0.181,-0.292 0.213,-0.302 0.242,-0.302C0.26,-0.302 0.276,-0.299 0.291,-0.293C0.306,-0.286 0.321,-0.267 0.339,-0.267C0.341,-0.267 0.341,-0.268 0.343,-0.268C0.357,-0.271 0.359,-0.284 0.359,-0.298L0.359,-0.334C0.359,-0.351 0.356,-0.365 0.341,-0.376C0.313,-0.397 0.279,-0.406 0.244,-0.406C0.207,-0.406 0.17,-0.396 0.139,-0.378Z" style="fill-rule:nonzero;"/>
                    </g>
                    <g transform="matrix(41.6667,0,0,41.6667,1321,174.378)">
                        <path d="M0.426,-0.294C0.405,-0.331 0.381,-0.357 0.344,-0.378C0.316,-0.394 0.283,-0.401 0.25,-0.401C0.183,-0.401 0.114,-0.371 0.081,-0.318C0.056,-0.278 0.044,-0.23 0.044,-0.181C0.044,-0.166 0.045,-0.152 0.047,-0.138C0.061,-0.041 0.162,0.016 0.256,0.016C0.286,0.016 0.315,0.01 0.341,-0.001C0.417,-0.036 0.451,-0.111 0.451,-0.19C0.451,-0.205 0.45,-0.219 0.447,-0.234C0.445,-0.256 0.437,-0.275 0.426,-0.294ZM0.132,-0.193C0.132,-0.197 0.132,-0.201 0.133,-0.205C0.141,-0.266 0.194,-0.305 0.249,-0.305C0.276,-0.305 0.302,-0.296 0.325,-0.276C0.347,-0.255 0.365,-0.224 0.365,-0.192C0.365,-0.188 0.365,-0.184 0.364,-0.18C0.357,-0.14 0.331,-0.1 0.295,-0.081C0.281,-0.075 0.267,-0.071 0.252,-0.071C0.247,-0.071 0.241,-0.072 0.236,-0.073C0.214,-0.076 0.207,-0.08 0.192,-0.092C0.191,-0.093 0.19,-0.095 0.188,-0.096C0.171,-0.111 0.156,-0.121 0.145,-0.141C0.137,-0.158 0.132,-0.176 0.132,-0.193Z" style="fill-rule:nonzero;"/>
                    </g>
                    <g transform="matrix(41.6667,0,0,41.6667,1341.71,174.378)">
                        <path d="M0.095,-0.391C0.074,-0.389 0.071,-0.378 0.071,-0.357C0.071,-0.325 0.075,-0.291 0.076,-0.26C0.077,-0.238 0.077,-0.216 0.077,-0.194C0.077,-0.152 0.076,-0.11 0.072,-0.069C0.071,-0.057 0.066,-0.04 0.066,-0.026C0.066,-0.017 0.067,-0.011 0.071,-0.006C0.079,0.006 0.096,0.01 0.113,0.01C0.131,0.01 0.149,0.006 0.161,0.002C0.177,-0.005 0.182,-0.017 0.182,-0.031C0.182,-0.043 0.178,-0.057 0.176,-0.07C0.171,-0.102 0.171,-0.134 0.171,-0.166L0.171,-0.191C0.171,-0.227 0.173,-0.256 0.203,-0.281C0.218,-0.293 0.242,-0.303 0.265,-0.303C0.277,-0.303 0.291,-0.3 0.3,-0.291C0.321,-0.272 0.327,-0.238 0.327,-0.203C0.327,-0.163 0.319,-0.119 0.318,-0.09C0.317,-0.073 0.311,-0.05 0.311,-0.03C0.311,-0.02 0.313,-0.011 0.317,-0.003C0.324,0.009 0.343,0.012 0.361,0.012C0.371,0.012 0.382,0.01 0.389,0.009C0.414,0.007 0.426,-0.002 0.426,-0.023C0.426,-0.026 0.425,-0.029 0.425,-0.032C0.421,-0.067 0.422,-0.101 0.42,-0.136C0.419,-0.153 0.417,-0.168 0.417,-0.185C0.417,-0.19 0.417,-0.195 0.418,-0.201C0.419,-0.211 0.419,-0.221 0.419,-0.231C0.419,-0.256 0.416,-0.281 0.408,-0.306C0.395,-0.347 0.383,-0.362 0.346,-0.383C0.328,-0.393 0.309,-0.396 0.289,-0.396C0.279,-0.396 0.268,-0.396 0.258,-0.394C0.241,-0.391 0.227,-0.386 0.213,-0.378C0.203,-0.372 0.186,-0.35 0.176,-0.348C0.174,-0.348 0.172,-0.347 0.171,-0.347C0.166,-0.347 0.164,-0.352 0.164,-0.358C0.164,-0.361 0.165,-0.365 0.165,-0.369C0.165,-0.374 0.164,-0.379 0.161,-0.383C0.155,-0.391 0.136,-0.392 0.121,-0.392C0.11,-0.392 0.101,-0.391 0.095,-0.391Z" style="fill-rule:nonzero;"/>
                    </g>
                    <g transform="matrix(41.6667,0,0,41.6667,1361.88,174.378)">
                        <path d="M0.139,-0.378C0.102,-0.357 0.08,-0.332 0.066,-0.302C0.053,-0.275 0.048,-0.242 0.046,-0.206L0.046,-0.193C0.046,-0.172 0.048,-0.15 0.051,-0.129C0.066,-0.031 0.152,0.014 0.241,0.014C0.258,0.014 0.275,0.013 0.291,0.009C0.301,0.008 0.311,0.007 0.322,0.003C0.346,-0.006 0.353,-0.027 0.353,-0.051L0.353,-0.064C0.353,-0.075 0.356,-0.087 0.356,-0.096C0.356,-0.106 0.353,-0.112 0.341,-0.113L0.337,-0.113C0.321,-0.113 0.304,-0.102 0.291,-0.097C0.273,-0.091 0.258,-0.086 0.243,-0.086C0.223,-0.086 0.203,-0.094 0.181,-0.107C0.159,-0.121 0.146,-0.138 0.138,-0.162C0.136,-0.171 0.134,-0.181 0.134,-0.191C0.134,-0.221 0.144,-0.256 0.162,-0.273C0.181,-0.292 0.213,-0.302 0.242,-0.302C0.26,-0.302 0.276,-0.299 0.291,-0.293C0.306,-0.286 0.321,-0.267 0.339,-0.267C0.341,-0.267 0.341,-0.268 0.343,-0.268C0.357,-0.271 0.359,-0.284 0.359,-0.298L0.359,-0.334C0.359,-0.351 0.356,-0.365 0.341,-0.376C0.313,-0.397 0.279,-0.406 0.244,-0.406C0.207,-0.406 0.17,-0.396 0.139,-0.378Z" style="fill-rule:nonzero;"/>
                    </g>
                    <g transform="matrix(41.6667,0,0,41.6667,1378.25,174.378)">
                        <path d="M0.26,-0.4C0.229,-0.4 0.2,-0.388 0.171,-0.381C0.14,-0.373 0.111,-0.359 0.088,-0.333C0.055,-0.295 0.046,-0.251 0.046,-0.206C0.046,-0.19 0.047,-0.173 0.049,-0.156C0.056,-0.088 0.086,-0.043 0.145,-0.007C0.176,0.012 0.205,0.021 0.236,0.021C0.261,0.021 0.286,0.015 0.313,0.004C0.346,-0.01 0.387,-0.024 0.411,-0.052C0.415,-0.058 0.417,-0.064 0.417,-0.07C0.417,-0.093 0.387,-0.116 0.363,-0.116C0.359,-0.116 0.356,-0.115 0.352,-0.114C0.327,-0.104 0.313,-0.078 0.286,-0.072C0.28,-0.071 0.273,-0.071 0.266,-0.071L0.243,-0.071C0.216,-0.071 0.188,-0.076 0.169,-0.097C0.158,-0.109 0.146,-0.131 0.146,-0.148C0.146,-0.151 0.146,-0.154 0.147,-0.157C0.151,-0.173 0.166,-0.176 0.181,-0.176C0.195,-0.176 0.209,-0.174 0.22,-0.174C0.231,-0.174 0.238,-0.175 0.246,-0.175C0.29,-0.175 0.334,-0.17 0.378,-0.17L0.386,-0.17C0.416,-0.17 0.432,-0.171 0.432,-0.197C0.432,-0.201 0.432,-0.206 0.431,-0.211C0.427,-0.243 0.426,-0.273 0.41,-0.302C0.381,-0.355 0.321,-0.4 0.26,-0.4ZM0.166,-0.295C0.168,-0.298 0.171,-0.301 0.174,-0.303C0.191,-0.316 0.216,-0.324 0.241,-0.324C0.274,-0.324 0.307,-0.311 0.321,-0.283C0.323,-0.278 0.325,-0.271 0.325,-0.265C0.325,-0.256 0.322,-0.246 0.317,-0.241C0.308,-0.233 0.286,-0.235 0.274,-0.234L0.266,-0.234C0.246,-0.234 0.227,-0.236 0.207,-0.236C0.18,-0.236 0.151,-0.245 0.151,-0.266C0.151,-0.273 0.156,-0.283 0.166,-0.295Z" style="fill-rule:nonzero;"/>
                    </g>
                    <g transform="matrix(41.6667,0,0,41.6667,1398.08,174.378)">
                        <path d="M0.074,-0.391C0.066,-0.386 0.061,-0.377 0.058,-0.365C0.057,-0.359 0.056,-0.352 0.056,-0.346C0.056,-0.311 0.066,-0.268 0.068,-0.251C0.069,-0.24 0.069,-0.228 0.069,-0.216C0.069,-0.186 0.067,-0.156 0.066,-0.126C0.064,-0.101 0.061,-0.074 0.061,-0.048C0.061,-0.039 0.061,-0.029 0.062,-0.021C0.065,-0.001 0.076,0.004 0.092,0.004C0.105,0.004 0.121,-0 0.134,-0L0.136,-0C0.145,0.001 0.152,0.003 0.157,0.003C0.165,0.003 0.169,-0 0.173,-0.011C0.175,-0.016 0.176,-0.022 0.176,-0.029C0.176,-0.039 0.174,-0.05 0.173,-0.058C0.169,-0.088 0.166,-0.119 0.166,-0.149C0.166,-0.171 0.168,-0.192 0.171,-0.214C0.177,-0.251 0.198,-0.3 0.242,-0.3C0.245,-0.3 0.248,-0.299 0.251,-0.299C0.264,-0.297 0.273,-0.295 0.281,-0.295C0.292,-0.295 0.299,-0.299 0.306,-0.316C0.311,-0.329 0.321,-0.351 0.321,-0.369C0.321,-0.376 0.32,-0.384 0.314,-0.39C0.306,-0.398 0.29,-0.401 0.275,-0.401C0.266,-0.401 0.259,-0.4 0.253,-0.399C0.221,-0.395 0.212,-0.377 0.189,-0.361C0.185,-0.358 0.185,-0.356 0.179,-0.354C0.17,-0.356 0.168,-0.359 0.168,-0.363L0.168,-0.367C0.168,-0.37 0.168,-0.371 0.167,-0.374C0.161,-0.386 0.149,-0.387 0.136,-0.387C0.129,-0.387 0.121,-0.386 0.115,-0.386C0.112,-0.386 0.11,-0.386 0.107,-0.387C0.099,-0.388 0.091,-0.392 0.083,-0.392C0.08,-0.392 0.077,-0.392 0.074,-0.391Z" style="fill-rule:nonzero;"/>
                    </g>
                    <g transform="matrix(41.6667,0,0,41.6667,1411.88,174.378)">
                        <path d="M0.196,-0.49C0.196,-0.5 0.194,-0.509 0.191,-0.515C0.185,-0.523 0.174,-0.525 0.164,-0.525C0.157,-0.525 0.151,-0.524 0.146,-0.524C0.112,-0.522 0.086,-0.527 0.086,-0.484C0.086,-0.468 0.094,-0.442 0.094,-0.421C0.094,-0.409 0.091,-0.397 0.083,-0.391C0.078,-0.386 0.072,-0.385 0.066,-0.385C0.061,-0.385 0.056,-0.386 0.051,-0.386C0.046,-0.386 0.042,-0.386 0.039,-0.384C0.023,-0.377 0.023,-0.361 0.021,-0.346C0.02,-0.34 0.019,-0.335 0.019,-0.329C0.019,-0.321 0.021,-0.312 0.029,-0.306C0.046,-0.294 0.071,-0.308 0.084,-0.291C0.092,-0.28 0.094,-0.26 0.094,-0.24C0.094,-0.221 0.092,-0.201 0.092,-0.189C0.092,-0.159 0.091,-0.13 0.09,-0.1C0.089,-0.084 0.082,-0.054 0.082,-0.031C0.082,-0.021 0.084,-0.011 0.088,-0.006C0.096,0.004 0.113,0.006 0.128,0.006C0.135,0.006 0.141,0.005 0.146,0.005C0.154,0.005 0.161,0.006 0.167,0.006C0.178,0.006 0.186,0.004 0.191,-0.009C0.193,-0.016 0.194,-0.021 0.194,-0.028C0.194,-0.042 0.189,-0.057 0.187,-0.072C0.186,-0.091 0.186,-0.111 0.186,-0.129C0.184,-0.154 0.184,-0.179 0.184,-0.204C0.184,-0.219 0.184,-0.235 0.185,-0.25C0.186,-0.261 0.186,-0.271 0.187,-0.281C0.194,-0.328 0.264,-0.28 0.264,-0.332L0.264,-0.356C0.264,-0.364 0.263,-0.372 0.257,-0.377C0.252,-0.381 0.247,-0.382 0.241,-0.382C0.231,-0.382 0.22,-0.378 0.21,-0.378C0.205,-0.378 0.2,-0.379 0.196,-0.383C0.19,-0.388 0.189,-0.4 0.189,-0.41L0.189,-0.425C0.189,-0.44 0.196,-0.467 0.196,-0.49Z" style="fill-rule:nonzero;"/>
                    </g>
                    <g transform="matrix(41.6667,0,0,41.6667,1434.13,174.378)">
                        <path d="M0.372,-0.496C0.359,-0.527 0.343,-0.626 0.314,-0.626C0.293,-0.626 0.283,-0.596 0.275,-0.581C0.267,-0.565 0.231,-0.473 0.222,-0.444C0.218,-0.426 0.086,-0.156 0.076,-0.143C0.066,-0.129 0.029,-0.057 0.017,-0.031C0.015,-0.026 0.014,-0.022 0.014,-0.018C0.014,-0.003 0.027,0.006 0.038,0.006C0.04,0.006 0.041,0.006 0.043,0.005C0.056,0.002 0.087,0.002 0.109,0.002C0.131,0.002 0.148,-0.034 0.152,-0.053C0.156,-0.072 0.176,-0.114 0.197,-0.126C0.21,-0.132 0.239,-0.134 0.266,-0.134C0.286,-0.134 0.305,-0.133 0.316,-0.133L0.331,-0.133C0.361,-0.133 0.403,-0.132 0.421,-0.117C0.435,-0.107 0.457,-0.034 0.465,-0.016C0.473,0.005 0.49,0.009 0.507,0.009C0.517,0.009 0.528,0.008 0.537,0.008C0.544,0.008 0.551,0.009 0.559,0.009C0.576,0.009 0.591,0.005 0.591,-0.016C0.591,-0.034 0.572,-0.071 0.561,-0.088C0.549,-0.106 0.498,-0.206 0.498,-0.215C0.498,-0.225 0.475,-0.268 0.465,-0.282C0.455,-0.296 0.386,-0.465 0.372,-0.496ZM0.244,-0.27C0.26,-0.313 0.281,-0.338 0.289,-0.352C0.296,-0.366 0.299,-0.381 0.312,-0.381C0.334,-0.381 0.337,-0.35 0.342,-0.334C0.346,-0.319 0.361,-0.29 0.365,-0.277C0.367,-0.271 0.373,-0.263 0.373,-0.256C0.373,-0.25 0.369,-0.244 0.356,-0.239C0.326,-0.227 0.296,-0.223 0.285,-0.223C0.275,-0.223 0.241,-0.226 0.241,-0.253C0.241,-0.258 0.241,-0.263 0.244,-0.27Z" style="fill-rule:nonzero;"/>
                    </g>
                </g>
                <g transform="matrix(0.492686,0,0,0.492686,674.531,1779.92)">
                    <path d="M20.094,-7.906C19.5,-11.797 17.094,-15.5 12,-15.5C7,-15.5 4.094,-12.406 3.594,-11.797L4,-43.906C4,-44.703 3.406,-45.297 2.594,-45.297L1.406,-45.297C0.594,-45.297 0,-44.703 0,-43.906L0.5,16.203C0.5,17 1.094,17.594 1.906,17.594C2.094,17.594 2.5,17.5 2.703,17.406C3.094,17.203 9.594,14 15,7.906C18.797,3.594 20.297,-1.297 20.297,-5.406C20.297,-6.297 20.203,-7.094 20.094,-7.906M13.203,-4C13.203,-2.5 12.797,2.094 10.297,5.906C8.594,8.5 5.203,11.203 3.297,12.703L3.594,-6.797C3.797,-7.703 5.297,-10.594 9.297,-10.594C12.906,-10.594 13.203,-7.203 13.203,-5.094L13.203,-4" style="fill-rule:nonzero;"/>
                </g>
            </g>
			</a>
        </g>
    </g>
</svg>
