<?xml version="1.0" encoding="UTF-8" standalone="no"?>
<!DOCTYPE svg PUBLIC "-//W3C//DTD SVG 1.1//EN" "http://www.w3.org/Graphics/SVG/1.1/DTD/svg11.dtd">
<svg width="100%" height="100%" viewBox="0 0 406 529" version="1.1" xmlns="http://www.w3.org/2000/svg" xmlns:xlink="http://www.w3.org/1999/xlink" xml:space="preserve" xmlns:serif="http://www.serif.com/" style="fill-rule:evenodd;clip-rule:evenodd;stroke-linejoin:bevel;">
  <rect id="L4-8" x="0.163" y="0.083" width="405.12" height="528" style="fill:none;"/>
  <clipPath id="_clip1">
    <rect x="0.163" y="0.083" width="405.12" height="528"/>
  </clipPath>
  <g clip-path="url(#_clip1)">
    <g id="staff-top" serif:id="staff top">
      <path d="M0.163,106.883l405.12,0" style="fill:none;fill-rule:nonzero;stroke:#000;stroke-width:1.2px;"/>
      <path d="M0.163,119.483l405.12,0" style="fill:none;fill-rule:nonzero;stroke:#000;stroke-width:1.2px;"/>
      <path d="M0.163,132.083l405.12,0" style="fill:none;fill-rule:nonzero;stroke:#000;stroke-width:1.2px;"/>
      <path d="M0.163,144.683l405.12,0" style="fill:none;fill-rule:nonzero;stroke:#000;stroke-width:1.2px;"/>
      <path d="M0.163,157.283l405.12,0" style="fill:none;fill-rule:nonzero;stroke:#000;stroke-width:1.2px;"/>
    </g>
	  <a href="L4-9.svg">
    <circle cx="362.873" cy="491.123" r="17.4" style="fill:#149d15;"/>
	  </a>
    <g>
      <path d="M86.337,90.137c14.499,-15.271 43.496,-15.271 57.995,-0c-14.499,-11.359 -43.496,-11.359 -57.995,-0" style="stroke:#000;stroke-width:0.61px;stroke-linecap:round;stroke-linejoin:round;"/>
      <path d="M173.328,104.443c14.499,-15.271 43.496,-15.271 57.995,0c-14.499,-11.358 -43.496,-11.358 -57.995,0" style="stroke:#000;stroke-width:0.61px;stroke-linecap:round;stroke-linejoin:round;"/>
      <path d="M260.32,148.83c14.498,11.358 43.495,11.358 57.994,-0c-14.499,15.271 -43.496,15.271 -57.994,-0" style="stroke:#000;stroke-width:0.61px;stroke-linecap:round;stroke-linejoin:round;"/>
      <path d="M41.152,106.583l-0,50.256" style="fill:none;fill-rule:nonzero;stroke:#000;stroke-width:2.2px;"/>
      <path d="M43.414,106.583l-0,50.256" style="fill:none;fill-rule:nonzero;stroke:#000;stroke-width:6.73px;"/>
      <path d="M52.401,106.583l0,50.256" style="fill:none;fill-rule:nonzero;stroke:#000;stroke-width:2.2px;"/>
      <path d="M63.116,125.597c-0,-1.421 -1.131,-2.59 -2.545,-2.59c-1.422,-0 -2.545,1.169 -2.545,2.59c0,1.422 1.123,2.591 2.545,2.591c1.414,0 2.545,-1.169 2.545,-2.591" style="fill-rule:nonzero;"/>
      <path d="M63.116,137.825c-0,-1.421 -1.131,-2.591 -2.545,-2.591c-1.422,0 -2.545,1.17 -2.545,2.591c0,1.421 1.123,2.591 2.545,2.591c1.414,-0 2.545,-1.17 2.545,-2.591" style="fill-rule:nonzero;"/>
      <path d="M349.69,125.597c-0,-1.421 -1.132,-2.59 -2.545,-2.59c-1.422,-0 -2.545,1.169 -2.545,2.59c-0,1.422 1.123,2.591 2.545,2.591c1.413,0 2.545,-1.169 2.545,-2.591" style="fill-rule:nonzero;"/>
      <path d="M349.69,137.825c-0,-1.421 -1.132,-2.591 -2.545,-2.591c-1.422,0 -2.545,1.17 -2.545,2.591c-0,1.421 1.123,2.591 2.545,2.591c1.413,-0 2.545,-1.17 2.545,-2.591" style="fill-rule:nonzero;"/>
      <path d="M355.307,106.583l-0,50.256" style="fill:none;fill-rule:nonzero;stroke:#000;stroke-width:2.2px;"/>
      <path d="M364.294,106.583l0,50.256" style="fill:none;fill-rule:nonzero;stroke:#000;stroke-width:6.73px;"/>
      <path d="M103.355,95.028l23.959,0" style="fill:none;fill-rule:nonzero;stroke:#000;stroke-width:1.96px;"/>
      <path d="M296.65,129.755l-0,-31.67" style="fill:none;fill-rule:nonzero;stroke:#000;stroke-width:1.22px;"/>
      <path d="M267.653,135.869l-0,-37.784" style="fill:none;fill-rule:nonzero;stroke:#000;stroke-width:1.22px;"/>
      <path d="M79.004,103.196l0,37.686" style="fill:none;fill-rule:nonzero;stroke:#000;stroke-width:1.22px;"/>
      <path d="M223.99,121.538l0,34.629" style="fill:none;fill-rule:nonzero;stroke:#000;stroke-width:1.22px;"/>
      <path d="M194.993,115.424l-0,40.743" style="fill:none;fill-rule:nonzero;stroke:#000;stroke-width:1.22px;"/>
      <path d="M108.001,97.083l0,43.799" style="fill:none;fill-rule:nonzero;stroke:#000;stroke-width:1.22px;"/>
      <path d="M136.998,103.196l0,37.686" style="fill:none;fill-rule:nonzero;stroke:#000;stroke-width:1.22px;"/>
      <path d="M165.996,121.538l-0,34.629" style="fill:none;fill-rule:nonzero;stroke:#000;stroke-width:1.22px;"/>
      <path d="M325.647,135.869l-0,-37.784" style="fill:none;fill-rule:nonzero;stroke:#000;stroke-width:1.22px;"/>
      <path d="M281.373,133.767c-0,2.102 1.513,4.448 5.479,4.448c5.082,-0 10.417,-4.158 10.417,-8.46c-0,-2.889 -2.446,-4.502 -5.48,-4.502c-4.746,0 -10.416,4.013 -10.416,8.514" style="fill-rule:nonzero;"/>
      <path d="M107.39,97.084c0,2.101 1.513,4.448 5.48,4.448c5.082,-0 10.416,-4.158 10.416,-8.46c0,-2.889 -2.445,-4.502 -5.479,-4.502c-4.746,0 -10.417,4.012 -10.417,8.514" style="fill-rule:nonzero;"/>
      <path d="M136.387,103.198c-0,2.101 1.513,4.448 5.479,4.448c5.083,-0 10.417,-4.158 10.417,-8.461c-0,-2.888 -2.446,-4.501 -5.48,-4.501c-4.745,0 -10.416,4.012 -10.416,8.514" style="fill-rule:nonzero;"/>
      <path d="M310.37,139.881c0,2.101 1.513,4.448 5.48,4.448c5.082,-0 10.416,-4.158 10.416,-8.46c0,-2.889 -2.445,-4.502 -5.479,-4.502c-4.746,0 -10.417,4.012 -10.417,8.514" style="fill-rule:nonzero;"/>
      <path d="M165.384,121.539c0,2.102 1.514,4.448 5.48,4.448c5.082,0 10.416,-4.157 10.416,-8.46c0,-2.889 -2.445,-4.501 -5.479,-4.501c-4.746,-0 -10.417,4.012 -10.417,8.513" style="fill-rule:nonzero;"/>
      <path d="M78.393,103.198c0,2.101 1.513,4.448 5.48,4.448c5.082,-0 10.416,-4.158 10.416,-8.461c0,-2.888 -2.445,-4.501 -5.479,-4.501c-4.746,0 -10.417,4.012 -10.417,8.514" style="fill-rule:nonzero;"/>
      <path d="M194.381,115.425c0,2.102 1.513,4.448 5.48,4.448c5.082,0 10.416,-4.157 10.416,-8.46c0,-2.889 -2.445,-4.501 -5.479,-4.501c-4.746,-0 -10.417,4.012 -10.417,8.513" style="fill-rule:nonzero;"/>
      <path d="M223.379,121.539c-0,2.102 1.513,4.448 5.479,4.448c5.082,0 10.417,-4.157 10.417,-8.46c-0,-2.889 -2.446,-4.501 -5.48,-4.501c-4.746,-0 -10.416,4.012 -10.416,8.513" style="fill-rule:nonzero;"/>
      <path d="M252.376,139.881c-0,2.101 1.513,4.448 5.479,4.448c5.082,-0 10.417,-4.158 10.417,-8.46c-0,-2.889 -2.446,-4.502 -5.48,-4.502c-4.746,0 -10.416,4.012 -10.416,8.514" style="fill-rule:nonzero;"/>
      <path d="M165.384,153.11l59.217,-0l0,6.113l-59.217,0l0,-6.113"/>
      <path d="M78.393,137.825l59.217,0l-0,6.114l-59.217,-0l0,-6.114"/>
      <path d="M267.042,95.028l59.216,0l0,6.114l-59.216,-0l-0,-6.114"/>
    </g>
    <path d="M68.773,378.633c0,-1.6 -1.1,-2.8 -2.1,-3.8c-0.8,-0.8 -3.85,-2.45 -4.9,-2.95c-1.15,-0.5 -2.25,-1.35 -2.25,-2.6c0,-1.25 1,-1.75 2.25,-1.75l0.45,0c1.6,0.05 2.45,0.6 3.65,1.6c0.4,0.35 0.6,0.4 0.7,0.4c0.15,0 0.25,-0.1 0.35,-0.2l0.35,-0.4c0.1,-0.15 0.25,-0.3 0.3,-0.45c0.15,-0.2 0.2,-0.4 0.2,-0.55c0,-0.2 -0.05,-0.4 -0.25,-0.65c-0.7,-0.75 -2.75,-2.15 -5.75,-2.25l-0.35,0c-0.85,0 -1.3,0.1 -1.65,0.25c-0.4,0.2 -0.7,0.5 -1,0.8c-0.7,0.55 -1.55,1.55 -1.65,2.7c0,0.2 -0.05,0.4 -0.05,0.55c0,1.15 0.25,2.1 0.95,3c0.8,1.1 2.6,2.2 4.5,3c2,0.8 3.9,2.35 3.9,4c0,1.7 -1.4,2.7 -3.6,2.85c-0.15,0 -0.3,0.05 -0.4,0.05c-2.15,0 -3.65,-1.8 -4,-2.5c-0.1,-0.35 -0.5,-0.55 -0.8,-0.55c-0.2,0 -0.5,0.1 -0.85,0.15c-0.75,0.2 -1,0.8 -1,1.4c0,0.2 0,0.45 0.15,0.65c0.35,0.65 1.65,1.65 2.85,2.4c1.1,0.6 3.05,1 4.4,1c1.2,0 2.65,-0.9 3.95,-1.75c1.1,-0.75 1.6,-2.75 1.65,-4.4Z" style="fill-rule:nonzero;"/>
    <path d="M78.823,358.633c-0.05,-1.35 -1.25,-2.6 -2.5,-2.75l-0.35,0c-1.3,0 -2.2,0.8 -2.3,1.95c0.05,1.55 1.4,2.8 2.85,2.8c1.5,0 2.1,-0.85 2.3,-2Zm-0.6,24.05c-0.15,-1.15 -0.6,-5.5 -0.6,-7.65c0,-1 -0.05,-2 -0.05,-3.05c0,-1.35 0.05,-2.75 0.2,-4.45c0,-0.3 0.05,-0.55 0.05,-0.8c0,-1.6 -0.5,-1.7 -1.3,-1.7c-1.3,0 -1.6,0.3 -1.6,1.2c0,0.15 0.05,0.3 0.05,0.55c0.1,1.5 0.2,5.7 0.2,7.85c0,2.15 -0.4,5.95 -0.4,7.8c0,1.75 0.1,2.05 1.6,2.05c1.4,0 1.9,-0.65 1.9,-1.45c0,-0.1 -0.05,-0.25 -0.05,-0.35Z" style="fill-rule:nonzero;"/>
    <path d="M103.323,381.833c-0.15,-1.3 -0.3,-5.4 -0.3,-8.3c0,-0.6 0.05,-1.2 0.05,-1.65l0,-0.2c0,-2.3 -1.2,-4.3 -1.9,-5.15c-0.7,-0.9 -2.2,-1.75 -4.15,-1.8l-0.35,0c-1.65,0 -2.65,0.6 -4.35,2.2c-0.7,0.65 -1.25,0.85 -1.6,0.9c-0.3,0 -0.45,-0.15 -0.55,-0.3c-0.1,-0.25 -0.15,-0.55 -0.15,-0.85c0,-0.3 0,-0.55 0.05,-0.8c0,-0.85 -0.8,-1 -1.4,-1c-0.55,0 -1.5,0.05 -1.7,0.5c-0.05,0.15 -0.1,0.35 -0.1,0.6c0.05,0.3 0.1,0.55 0.1,0.9c0.1,1.4 0.7,4.55 0.7,6.6c0,2.05 -0.1,4.55 -0.5,7.85c-0.1,0.6 -0.1,1.05 -0.1,1.45c0,1.45 0.5,1.75 1.65,1.75c0.15,0 0.35,-0.05 0.6,-0.05c1,-0.05 1.2,-0.35 1.25,-0.5l0,-0.35c0,-0.35 -0.05,-0.75 -0.1,-1c-0.2,-1.1 -0.4,-5.1 -0.4,-6.85c0,-1.65 0.25,-4.4 1.3,-5.85c1.1,-1.5 2.75,-2.35 4.25,-2.35l0.7,0c0.3,0 0.65,0 0.95,0.1c0.55,0.1 1.05,0.4 1.75,0.95c0.85,0.65 1.2,1.5 1.35,2.55c0.1,0.6 0.1,1.3 0.1,2.05l0,1.6c0,2.85 -0.4,4.45 -0.6,7.25c0,0.2 -0.05,0.45 -0.05,0.6c0,1.85 0.85,1.9 2.35,1.9c1.05,0 1.3,-0.55 1.3,-1.35c0,-0.45 -0.1,-0.95 -0.15,-1.4Z" style="fill-rule:nonzero;"/>
    <path d="M128.923,368.033c0.05,-0.3 0.05,-0.55 0.05,-0.8c0,-1.2 -0.5,-1.45 -1.55,-1.55c-0.25,-0.05 -0.4,-0.05 -0.6,-0.05c-0.55,0 -0.7,0.15 -0.7,0.5c0,0.3 0.1,0.6 0.1,0.9c0,0.3 -0.05,0.75 -0.45,1.05c-0.1,0.15 -0.25,0.2 -0.45,0.2c-0.3,0 -0.65,-0.2 -1.05,-0.55c-0.35,-0.4 -0.75,-0.85 -1.25,-1.15c-0.9,-0.55 -2.7,-1.45 -5.25,-1.55l-0.15,0c-1.9,0 -4.1,1.5 -5.3,2.6c-1.15,1.1 -3,3.45 -3,7.4l0,0.25c0.05,2.1 0.5,3.55 1.2,4.7c0.6,1.05 1.45,1.9 2.25,2.75l0.25,0.2c1.75,1.75 4.25,2.05 5.5,2.05c1.2,0 2.75,-0.3 3.7,-1.25c1,-1 2.2,-1.5 3.05,-1.5l0.25,0c0.6,0.1 0.7,0.7 0.75,1.15c0,0.45 -0.1,1.15 -0.15,2.05c-0.1,1.85 -0.5,2.85 -1.2,4.15c-0.85,1.5 -3.3,2.2 -5.7,2.4c-0.15,0 -0.3,0.05 -0.45,0.05c-2.45,0 -4.45,-1.8 -5.25,-3.1c-0.35,-0.6 -0.6,-0.8 -0.95,-0.9c-0.15,-0.05 -0.35,-0.05 -0.6,-0.05l-1,0c-0.6,0 -0.8,0.35 -0.8,0.8c0,0.3 0.15,0.75 0.3,1c0.15,0.35 0.5,0.75 0.9,1.2c0.4,0.45 0.9,0.9 1.35,1.3c0.8,0.8 3,1.75 5.9,2l0.55,0c2.6,0 4.85,-1 6.1,-1.75c1.25,-0.7 2.75,-3 3.25,-4.75c0.25,-0.75 0.3,-2.45 0.3,-4.25c0,-2 -0.05,-4.15 -0.1,-5.55c-0.05,-0.95 -0.05,-2.15 -0.05,-3.45c0,-2.4 0.05,-5.05 0.25,-6.5Zm-2.8,7.1c0,1.45 -0.1,3.25 -1.35,4.85c-1.2,1.5 -2.5,2.7 -5.5,2.7l-0.3,0c-1.6,-0.05 -2.7,-0.4 -3.45,-0.9c-0.75,-0.5 -1.25,-1.05 -1.75,-1.7c-1,-1.15 -1.5,-2.8 -1.55,-4.8l0,-0.5c0,-1.9 0.4,-3.55 1.75,-5.1c1.5,-1.7 3.6,-1.9 5.3,-1.9c2.25,0 4.15,0.75 5.3,2.3c1.15,1.55 1.55,3.5 1.55,5.05Z" style="fill-rule:nonzero;"/>
    <path d="M154.273,383.633c0,-0.75 -0.3,-3.6 -0.5,-4.8c-0.1,-0.6 -0.1,-3 -0.1,-5.5l0,-6.85c0,-3.15 0.2,-9.3 0.4,-12.05l0,-0.5c0,-1.85 -0.9,-1.95 -1.9,-2.1l-0.25,0c-0.7,0 -1.5,0.2 -1.5,0.45c0,0.4 0.1,2.65 0.2,3.8c0.05,0.6 0.05,3 0.05,5.6l0,6.6c0.05,0.75 0.05,2 0.05,3.4c0,3.55 -0.05,8.35 -0.2,10.6c-0.05,0.25 -0.05,0.45 -0.05,0.65c0,1.05 0.3,1.45 0.6,1.6c0.2,0.2 0.6,0.25 0.9,0.25c0.3,0 0.6,-0.05 0.85,-0.05c1.3,-0.1 1.45,-0.55 1.45,-1.1Z" style="fill-rule:nonzero;"/>
    <path d="M166.423,358.633c-0.05,-1.35 -1.25,-2.6 -2.5,-2.75l-0.35,0c-1.3,0 -2.2,0.8 -2.3,1.95c0.05,1.55 1.4,2.8 2.85,2.8c1.5,0 2.1,-0.85 2.3,-2Zm-0.6,24.05c-0.15,-1.15 -0.6,-5.5 -0.6,-7.65c0,-1 -0.05,-2 -0.05,-3.05c0,-1.35 0.05,-2.75 0.2,-4.45c0,-0.3 0.05,-0.55 0.05,-0.8c0,-1.6 -0.5,-1.7 -1.3,-1.7c-1.3,0 -1.6,0.3 -1.6,1.2c0,0.15 0.05,0.3 0.05,0.55c0.1,1.5 0.2,5.7 0.2,7.85c0,2.15 -0.4,5.95 -0.4,7.8c0,1.75 0.1,2.05 1.6,2.05c1.4,0 1.9,-0.65 1.9,-1.45c0,-0.1 -0.05,-0.25 -0.05,-0.35Z" style="fill-rule:nonzero;"/>
    <path d="M192.473,383.583c0,-0.55 -0.95,-1 -1.25,-1.25c-0.8,-0.6 -1.7,-1.25 -2.3,-1.7c-0.65,-0.5 -1.25,-1.2 -1.8,-1.85c-0.6,-0.7 -1.2,-1.35 -1.8,-1.85c-0.7,-0.55 -1.45,-1.1 -2.05,-1.65c-0.7,-0.65 -1.15,-1.25 -1.15,-1.75c0,-0.4 0.7,-1.25 1.55,-2.1c0.8,-0.75 1.75,-1.5 2.25,-1.95c1.1,-1 3.65,-2.95 4.65,-3.85c0.1,-0.1 0.15,-0.2 0.15,-0.25c0,-0.1 -0.05,-0.1 -0.15,-0.2c-0.35,-0.2 -1.1,-0.4 -2.1,-0.4c-1.8,0 -2.25,0.65 -2.85,1.5c-0.4,0.5 -0.85,1 -1.45,1.6c-0.5,0.55 -1.15,1.15 -1.8,1.9l-1.6,1.65c-0.35,0.35 -0.75,0.55 -1.2,0.55c-0.15,0 -0.2,0 -0.35,-0.05l-0.55,-0.15c-0.2,-0.05 -0.35,-0.15 -0.5,-0.3c-0.2,-0.2 -0.25,-0.55 -0.25,-1.2c0,-0.9 -0.25,-3.25 -0.25,-5.7c0,-0.55 0,-1.05 0.05,-1.55c0.1,-3 0.4,-7.4 0.7,-9.25l0,-0.5c0,-1.25 -0.8,-2.05 -1.95,-2.05l-0.15,0c-1.35,0.05 -1.9,0.8 -1.9,1.35c0,1.35 0.75,11.7 0.75,16.5l0,0.9c0,4.2 -0.15,10.35 -0.45,12.3c-0.05,0.3 -0.05,0.5 -0.05,0.75c0,1 0.55,1.2 2,1.25c0.9,0 1.5,-0.25 1.5,-1.05c0,-0.2 0,-0.45 -0.05,-0.7c-0.1,-0.5 -0.15,-1.1 -0.15,-1.75c0,-1.1 0.1,-2.4 0.2,-3.75c0.15,-1.25 0.55,-1.7 1.05,-1.7c0.65,0 1.4,0.75 1.7,1.2c0.2,0.25 0.5,0.7 0.95,1.15l3.1,3.35l0.05,0.1c0.55,0.65 1.15,1.4 1.5,2c0.3,0.5 0.55,0.7 0.95,0.85c0.2,0.05 0.5,0.1 0.9,0.15c0.35,0.1 0.8,0.1 1.3,0.15c0.3,0.05 0.55,0.05 0.75,0.05c1.6,0 2,-0.45 2.05,-0.75Z" style="fill-rule:nonzero;"/>
    <path d="M215.773,374.483c0,-0.05 0.05,-0.1 0.05,-0.2c0,-0.05 -0.05,-0.2 -0.05,-0.35l-0.2,-1.05c-0.35,-1.6 -2.1,-4.25 -3.4,-5.8c-1.3,-1.4 -3.8,-2.25 -5.9,-2.35l-0.55,0c-2.15,0 -3.85,1.05 -5.6,2.2l-0.4,0.25c-1.9,1.15 -3.25,4.95 -3.35,7.95l0,0.15c0,2.85 2.15,6 3.85,7.9c1.65,1.75 5.05,1.8 6.75,1.8c1.6,0 2.9,-0.4 3.75,-0.85c0.35,-0.2 0.85,-0.6 1.45,-1.1c0.55,-0.5 1.15,-1 1.8,-1.5c0.5,-0.35 0.75,-0.75 0.75,-1.15c0,-0.45 -0.25,-0.9 -1,-1.5c-0.25,-0.2 -0.5,-0.3 -0.65,-0.3c-0.25,0 -0.4,0.15 -0.6,0.3c-0.35,0.4 -0.6,0.9 -0.8,1.4c-0.4,0.9 -2.4,1.9 -4.9,1.9l-0.4,0c-1.65,-0.05 -3.05,-0.55 -4.3,-1.55l-0.75,-0.6c-0.8,-0.7 -1.6,-2.7 -1.6,-3.95l0,-0.35c0.15,-0.6 1.35,-0.95 2.85,-1c1.25,0 2.65,0.05 3.4,0.05c1.05,0 3.95,0.05 6.2,0.05c1.15,0 2.15,0 2.7,-0.05c0.85,0 0.9,-0.2 0.9,-0.3Zm-3.55,-3.3c0.15,0.25 0.2,0.45 0.2,0.65c0,0.55 -0.45,0.9 -1.35,0.9c-1.95,0 -4.1,0.05 -4.95,0.05c-0.9,0 -3.55,-0.05 -4.1,-0.2c-0.55,-0.05 -1.75,-0.7 -1.75,-1.6c0,-0.3 0.1,-0.6 0.35,-0.9c0.8,-1.1 3,-2.6 5.6,-2.6l0.2,0c2.35,0.1 3.15,0.8 4.3,1.9c0.5,0.5 1.2,1.15 1.5,1.8Z" style="fill-rule:nonzero;"/>
    <path d="M245.523,384.233c0.4,-0.25 0.75,-0.55 1,-0.8c0.25,-0.3 0.5,-0.55 0.75,-0.7c0.3,-0.3 0.65,-0.45 1,-0.45c0.5,0 0.95,0.4 0.95,1c0,0.15 0,0.3 -0.05,0.45c0,0.05 -0.05,0.1 -0.05,0.15c0,0.45 0.5,0.5 1.9,0.6l0.25,0c0.75,0 0.9,-0.2 1,-0.4l0,-9.85c0,-1.65 -0.05,-3.4 -0.05,-5c0,-0.8 0,-1.55 0.05,-2.25l0,-0.25c0,-1.3 -0.65,-1.35 -1.5,-1.35l-0.5,0c-0.6,0 -0.9,0.05 -0.9,0.4c0,0.25 0.05,0.45 0.05,0.6c0,0.8 -0.3,1.5 -0.9,1.7c-0.1,0.05 -0.15,0.05 -0.25,0.05c-0.35,0 -0.8,-0.25 -1.25,-0.65c-0.45,-0.4 -0.8,-0.85 -1.2,-1.25c-0.55,-0.7 -2.6,-1.3 -4.5,-1.3c-2.8,0 -6,1.8 -7.55,3.95c-1.1,1.6 -1.5,4.1 -1.7,6.15l0,0.4c0,1.95 1.15,5.1 2.4,6.65c1.3,1.65 3.5,3.15 7.2,3.15c1.8,0 3,-0.45 3.85,-1Zm3.85,-9.2c-0.15,2.1 -0.85,4.6 -2.6,5.9c-1.35,1.05 -2.4,1.3 -3.95,1.3c-0.3,0 -0.6,-0.05 -1,-0.05c-2.25,-0.15 -4.15,-1.15 -4.95,-2.45c-0.65,-1.2 -1.1,-2.75 -1.1,-4.5l0,-0.45c0.1,-1.8 0.85,-4.85 1.8,-5.55c0.7,-0.55 2.85,-1.45 4.65,-1.45c0.3,0 0.6,0 0.9,0.05l1.15,0.25c0.2,0 0.2,0.05 0.25,0.05c0.3,0.1 0.75,0.15 1.05,0.3c0.9,0.3 1.75,0.85 2.4,1.95l0.75,1.3c0.05,0.35 0.35,0.7 0.5,1c0.15,0.4 0.25,0.85 0.25,1.35c0,0.3 -0.05,0.65 -0.1,1Z" style="fill-rule:nonzero;"/>
    <path d="M292.123,373.883l0,-0.2c0,-1.9 -1.05,-4.2 -2.55,-6.15c-1.45,-1.9 -4.5,-2.7 -6.7,-2.75l-0.2,0c-2,0 -3.9,1.2 -4.85,2.35c-0.55,0.65 -0.95,0.9 -1.3,0.9c-0.65,0 -1,-0.95 -1,-1.65c0,-0.4 -0.05,-1.1 -0.1,-1.85l0,-0.35c0,-0.9 0.05,-1.9 0.2,-2.65c0.15,-0.75 0.25,-2.4 0.3,-4.15l0.2,-4.5l0,-0.15c0,-0.65 -0.25,-0.8 -0.5,-0.9c-0.2,-0.05 -0.45,-0.05 -0.75,-0.05l-1,0c-0.95,0 -1.55,0.35 -1.7,1.25c0,0.25 -0.05,0.5 -0.05,0.8c0,0.2 0,0.45 0.05,0.7l0.2,1.75c0.25,2.35 0.35,11.85 0.35,14c0,1.1 0.1,3.6 0.1,6.1c0,2.5 -0.05,5.1 -0.3,6.2c-0.1,0.35 -0.1,0.6 -0.1,0.85c0,1 0.65,1.2 1.85,1.2c1.25,0 1.45,-0.2 1.55,-1.85c0.05,-0.8 0.35,-1.1 0.7,-1.1c0.25,0 0.55,0.15 0.85,0.35c0.25,0.25 0.5,0.5 0.75,0.8l0.75,0.85c0.8,0.8 1.75,1.25 4.05,1.25l0.6,0c2.65,-0.1 5.35,-1.9 6.9,-3.75c0.8,-0.9 1.2,-2.15 1.4,-3.55c0.25,-1.35 0.3,-2.75 0.3,-3.75Zm-2.6,0.8c0,1.7 -0.1,3.1 -1.65,4.8l-1.05,1.05c-0.9,1 -1.9,1.65 -3.2,1.65c-0.15,0 -0.3,0 -0.45,-0.05c-1.75,-0.2 -3.7,-0.4 -5.05,-1.65c-0.7,-0.65 -1.35,-1.2 -1.8,-2c-0.55,-0.85 -0.9,-1.9 -1,-3.45c-0.05,-0.25 -0.05,-0.5 -0.05,-0.75c0,-2.7 1.15,-3.95 2.65,-5.1c1.7,-1.25 3.25,-1.45 4.75,-1.55c0.25,0 0.6,-0.05 0.85,-0.05c1.65,0 2.9,0.5 4.25,2.45c1.65,2.25 1.75,2.9 1.75,4.65Z" style="fill-rule:nonzero;"/>
    <path d="M302.823,358.633c-0.05,-1.35 -1.25,-2.6 -2.5,-2.75l-0.35,0c-1.3,0 -2.2,0.8 -2.3,1.95c0.05,1.55 1.4,2.8 2.85,2.8c1.5,0 2.1,-0.85 2.3,-2Zm-0.6,24.05c-0.15,-1.15 -0.6,-5.5 -0.6,-7.65c0,-1 -0.05,-2 -0.05,-3.05c0,-1.35 0.05,-2.75 0.2,-4.45c0,-0.3 0.05,-0.55 0.05,-0.8c0,-1.6 -0.5,-1.7 -1.3,-1.7c-1.3,0 -1.6,0.3 -1.6,1.2c0,0.15 0.05,0.3 0.05,0.55c0.1,1.5 0.2,5.7 0.2,7.85c0,2.15 -0.4,5.95 -0.4,7.8c0,1.75 0.1,2.05 1.6,2.05c1.4,0 1.9,-0.65 1.9,-1.45c0,-0.1 -0.05,-0.25 -0.05,-0.35Z" style="fill-rule:nonzero;"/>
    <path d="M322.173,365.333c-0.35,-0.15 -1.55,-0.55 -2.9,-0.55c-1.35,0 -3.2,1.2 -3.85,2.45c-0.15,0.3 -0.35,0.6 -0.6,0.75c-0.15,0.05 -0.25,0.05 -0.3,0.05c-0.25,0 -0.45,-0.15 -0.55,-0.3c-0.15,-0.3 -0.2,-0.7 -0.2,-1.1l0,-0.35c0,-0.85 -0.9,-1.2 -1.55,-1.2c-1.25,0 -1.4,0.4 -1.45,0.65c0,0.05 -0.05,0.1 -0.05,0.2c0,0.15 0.05,0.4 0.1,0.65c0.05,0.35 0.1,0.75 0.15,1.1c0.1,1.65 0.1,5.35 0.1,7.55c0,2.15 -0.1,4.4 -0.45,7.3c-0.05,0.5 -0.05,0.9 -0.05,1.15c0,0.3 0.05,0.45 0.25,0.55c0.1,0.05 0.3,0.05 0.75,0.05c0.4,-0.05 0.9,-0.1 1.5,-0.1c1.25,0 1.55,-0.85 1.55,-1.8c0,-0.7 -0.2,-1.5 -0.3,-2.1c-0.2,-1 -0.25,-2.85 -0.25,-4.7c0,-1 0,-1.95 0.05,-2.8c0.15,-2.7 1.95,-4.2 3.65,-4.6c0.65,-0.15 1.1,-0.2 1.55,-0.2c0.6,0 1,0.1 1.65,0.35c0.1,0 0.25,0.15 0.35,0.15c0.15,0 0.2,-0.05 0.25,-0.2c0.1,-0.05 0.2,-0.25 0.25,-0.5c0.15,-0.25 0.25,-0.55 0.35,-0.9c0.15,-0.5 0.25,-0.85 0.25,-1.05c0,-0.25 -0.1,-0.4 -0.25,-0.5Z" style="fill-rule:nonzero;"/>
    <path d="M345.473,353.033c0,-0.4 -0.05,-0.65 -0.1,-0.75c-0.2,-0.35 -0.65,-0.35 -1.55,-0.45c-0.1,0 -0.2,-0.05 -0.3,-0.05l-0.35,0c-0.95,0 -1.15,0.35 -1.25,0.75c-0.05,0.2 -0.05,0.4 -0.05,0.65l0,0.6l0.15,1.55c0.15,2.25 0.2,5.95 0.35,8c0.05,0.65 0.1,1.15 0.1,1.55c0,0.95 -0.2,1.45 -0.8,1.95c-0.25,0.2 -0.5,0.3 -0.75,0.3c-0.3,0 -0.6,-0.1 -0.9,-0.25c-0.45,-0.25 -1.1,-0.7 -1.9,-1.2c-1,-0.65 -2.2,-0.75 -3.35,-0.75c-0.5,0 -1,0.05 -1.45,0.05c-1.8,0.05 -4.35,1.65 -5.7,3.15c-1.25,1.45 -2.2,4.6 -2.2,7.45c0,2.8 1.5,5.5 3.2,7.1c1.7,1.6 4.1,2.55 5.95,2.55c1.9,0 3.9,-0.45 5.25,-2c0.7,-0.85 1.3,-1.15 1.65,-1.15c0.6,0 0.9,0.65 1.05,1.45c0.05,0.35 0.05,0.55 0.25,0.7c0.1,0.05 0.2,0.05 0.5,0.1l1.1,0.15l0.25,0c0.6,0 0.7,-0.25 0.75,-0.55l0,-0.9l-0.2,-1.15c-0.2,-1.4 -0.5,-7.6 -0.5,-10.1l0,-0.7l0.3,-3.25c0.05,-0.7 0.1,-1.3 0.1,-1.9c0,-0.35 0,-0.65 -0.05,-0.9c-0.05,-0.3 -0.1,-0.75 -0.1,-1.3c0,-0.8 0.2,-2.7 0.2,-3l0,-0.45c0.05,-2.05 0.25,-4.25 0.25,-5.6c0,-0.65 0.05,-1.2 0.1,-1.65Zm-3.3,19.75c0.25,0.75 0.4,1.5 0.4,2.15c0,0.9 -0.2,1.8 -0.6,2.75c-0.3,0.85 -0.7,1.45 -1.15,2c-0.4,0.45 -0.85,0.85 -1.25,1.3c-0.8,0.8 -2.25,1.1 -3.45,1.1c-0.25,0 -0.45,0 -0.6,-0.05l-0.9,0c-0.25,0 -0.6,0 -1,-0.1c-0.7,-0.2 -1.5,-0.65 -2.75,-1.65c-1.2,-1 -1.8,-1.9 -2.05,-2.75c-0.2,-0.4 -0.2,-0.75 -0.25,-1.15c0,0 0,-0.05 -0.1,-1.15l0,-0.35c0,-1.5 0.5,-3.4 1.65,-4.9c1.2,-1.55 2.2,-2.2 4.25,-2.2l0.6,0c2.35,0.05 4.15,0.45 5.1,1.5c0.8,0.9 1.5,1.8 2.1,3.5Z" style="fill-rule:nonzero;"/>
  </g>
</svg>
