<?xml version="1.0" encoding="UTF-8" standalone="no"?>
<!DOCTYPE svg PUBLIC "-//W3C//DTD SVG 1.1//EN" "http://www.w3.org/Graphics/SVG/1.1/DTD/svg11.dtd">
<svg width="100%" height="100%" viewBox="0 0 1688 2200" version="1.1" xmlns="http://www.w3.org/2000/svg" xmlns:xlink="http://www.w3.org/1999/xlink" xml:space="preserve" xmlns:serif="http://www.serif.com/" style="fill-rule:evenodd;clip-rule:evenodd;stroke-linecap:round;stroke-linejoin:round;stroke-miterlimit:1.5;">
    <g transform="matrix(1,0,0,1,-8544,-2846)">
        <g id="CROW-TO-LION-2" transform="matrix(0.937778,0,0,1.22222,8544,2846)">
            <rect x="0" y="0" width="1800" height="1800" style="fill:none;"/>
            <g id="S" transform="matrix(0.921162,0,0,0.706782,188.113,75.3702)">
                <g transform="matrix(-0.583619,-1.01086,0.902565,-0.521096,274.4,2401.39)">
                    <g id="Root-Markers" serif:id="Root Markers">
                        <path id="_8" serif:id="8" d="M731.999,618L768,730L695.999,730L731.999,618ZM731.999,680.84L740.959,708.715C740.959,708.715 723.04,708.715 723.04,708.715L731.999,680.84Z"/>
                    </g>
                </g>
                <g id="Ring" transform="matrix(-1.09813,0,0,-1.09811,1579.66,2326.32)">
                    <g transform="matrix(0.545852,-0.945443,0.9537,0.550619,-641.299,1170.26)">
                        <ellipse cx="692" cy="1046" rx="458" ry="454" style="fill:none;stroke:black;stroke-width:9.61px;"/>
                    </g>
                    <g transform="matrix(0.5,-0.866025,0.629632,0.363518,-412.931,1316.59)">
                        <path d="M768,524.038L768,568" style="fill:none;stroke:black;stroke-width:12.06px;"/>
                    </g>
                    <g transform="matrix(0.5,-0.866025,0.629632,0.363518,425.349,1800.57)">
                        <path d="M768,524.038L768,568" style="fill:none;stroke:black;stroke-width:12.06px;"/>
                    </g>
                    <g transform="matrix(-0.866025,-0.5,0.363518,-0.629632,1442.63,1400.58)">
                        <path d="M768,524.038L768,568" style="fill:none;stroke:black;stroke-width:12.06px;"/>
                    </g>
                    <g transform="matrix(-0.866025,-0.5,0.363518,-0.629632,958.61,2238.93)">
                        <path d="M768,524.038L768,568" style="fill:none;stroke:black;stroke-width:12.06px;"/>
                    </g>
                    <g transform="matrix(0.866025,-0.5,0.363518,0.629632,-371.594,713.016)">
                        <path d="M768,524.038L768,568" style="fill:none;stroke:black;stroke-width:12.06px;"/>
                    </g>
                    <g transform="matrix(0.866025,-0.5,0.363518,0.629632,112.404,1551.33)">
                        <path d="M768,524.038L768,568" style="fill:none;stroke:black;stroke-width:12.06px;"/>
                    </g>
                    <g transform="matrix(-0.5,-0.866025,0.629632,-0.363518,1193.38,1713.55)">
                        <path d="M768,524.038L768,568" style="fill:none;stroke:black;stroke-width:12.06px;"/>
                    </g>
                    <g transform="matrix(-0.5,-0.866025,0.629632,-0.363518,355.038,2197.57)">
                        <path d="M768,524.038L768,568" style="fill:none;stroke:black;stroke-width:12.06px;"/>
                    </g>
                    <g transform="matrix(1,0,0,0.727036,-34,210.969)">
                        <path d="M768,524.038L768,568" style="fill:none;stroke:black;stroke-width:12.06px;"/>
                    </g>
                    <g transform="matrix(1,0,0,0.727036,-34,1179)">
                        <path d="M768,524.038L768,568" style="fill:none;stroke:black;stroke-width:12.06px;"/>
                    </g>
                    <g transform="matrix(6.12323e-17,-1,0.727036,4.45181e-17,821.022,1859.96)">
                        <path d="M768,524.038L768,568" style="fill:none;stroke:black;stroke-width:12.06px;"/>
                    </g>
                    <g transform="matrix(6.12323e-17,-1,0.727036,4.45181e-17,-146.974,1859.96)">
                        <path d="M768,524.038L768,568" style="fill:none;stroke:black;stroke-width:12.06px;"/>
                    </g>
                </g>
                <g id="Notes" transform="matrix(1,0,0,1,0,81.033)">
                    <g id="_10" serif:id="10" transform="matrix(-1.39762,2.4207,-2.45799,-1.41909,2667.89,-328.094)">
                        <ellipse cx="766" cy="526.5" rx="33" ry="32.5" style="stroke:white;stroke-width:9.86px;"/>
                    </g>
                    <g id="_81" serif:id="8" transform="matrix(-1.39762,2.4207,-2.45799,-1.41909,2664.62,218.751)">
                        <ellipse cx="766" cy="526.5" rx="33" ry="32.5" style="stroke:white;stroke-width:9.86px;"/>
                    </g>
                </g>
                <g id="Treble-Marker" serif:id="Treble Marker" transform="matrix(1,0,0,1,0,81.033)">
                    <g id="_2" serif:id="2">
                        <g id="_2u" serif:id="2u" transform="matrix(-1.39762,2.4207,-2.45799,-1.41909,3610.1,-328.083)">
                            <ellipse cx="766" cy="526.5" rx="33" ry="32.5" style="fill:white;stroke:white;stroke-width:13.7px;"/>
                        </g>
                        <g id="_2a" serif:id="2a" transform="matrix(1.12855,0,0,1.10639,218.008,210.297)">
                            <ellipse cx="910.352" cy="514.037" rx="65.648" ry="66.963" style="fill:white;stroke:black;stroke-width:17.26px;"/>
                        </g>
                    </g>
                </g>
            </g>
			<a xlink:href="CROW-TO-LION-3.svg">
            <g id="TO-LION" serif:id="TO LION" transform="matrix(1,0,0,1,0,57.2727)">
                <g id="LINK-RIGHT" serif:id="LINK RIGHT" transform="matrix(1.06635,0,0,0.818182,205.806,-24.5455)">
                    <rect x="501" y="1938" width="309" height="100" style="fill:white;stroke:black;stroke-width:2.5px;"/>
                </g>
                <g id="become-a-LION" serif:id="become a LION" transform="matrix(1.06635,0,0,0.818182,279.745,-7.68654)">
                    <g transform="matrix(37.5,0,0,37.5,453.63,1978.55)">
                        <path d="M0.452,-0.175L0.452,-0.178C0.452,-0.239 0.411,-0.277 0.395,-0.286C0.385,-0.291 0.372,-0.296 0.362,-0.302C0.351,-0.309 0.341,-0.317 0.341,-0.326C0.341,-0.343 0.352,-0.357 0.372,-0.369C0.389,-0.379 0.411,-0.394 0.411,-0.451L0.411,-0.463C0.411,-0.528 0.344,-0.567 0.309,-0.583C0.276,-0.597 0.176,-0.601 0.115,-0.601C0.086,-0.601 0.084,-0.594 0.083,-0.588C0.083,-0.583 0.084,-0.576 0.086,-0.568C0.087,-0.559 0.09,-0.55 0.09,-0.54C0.091,-0.527 0.091,-0.501 0.091,-0.469C0.091,-0.404 0.09,-0.316 0.09,-0.271C0.09,-0.201 0.086,-0.063 0.084,-0.036L0.084,-0.026C0.084,-0.005 0.088,-0.001 0.098,-0.001L0.106,-0.001C0.115,-0.002 0.127,-0.002 0.142,-0.002C0.171,-0.002 0.212,-0.001 0.256,-0.001C0.319,-0.001 0.366,-0.016 0.397,-0.039C0.427,-0.06 0.451,-0.11 0.452,-0.175ZM0.339,-0.491C0.351,-0.469 0.358,-0.447 0.358,-0.428C0.358,-0.408 0.35,-0.39 0.329,-0.375C0.296,-0.351 0.26,-0.336 0.224,-0.336L0.211,-0.336L0.186,-0.339C0.178,-0.341 0.171,-0.342 0.164,-0.345C0.151,-0.351 0.144,-0.362 0.144,-0.38L0.144,-0.386C0.146,-0.423 0.15,-0.473 0.15,-0.493L0.15,-0.503C0.15,-0.51 0.151,-0.516 0.155,-0.522C0.161,-0.531 0.174,-0.535 0.195,-0.535L0.201,-0.535C0.217,-0.534 0.245,-0.536 0.271,-0.531C0.297,-0.527 0.326,-0.517 0.339,-0.491ZM0.393,-0.182L0.393,-0.174C0.393,-0.069 0.305,-0.064 0.25,-0.059L0.216,-0.056L0.198,-0.056C0.169,-0.056 0.141,-0.063 0.14,-0.106C0.139,-0.126 0.139,-0.148 0.139,-0.169C0.139,-0.202 0.14,-0.232 0.142,-0.245C0.146,-0.266 0.164,-0.286 0.201,-0.286C0.205,-0.286 0.209,-0.285 0.213,-0.285C0.224,-0.283 0.24,-0.283 0.259,-0.281C0.277,-0.278 0.299,-0.275 0.32,-0.268C0.357,-0.256 0.393,-0.231 0.393,-0.182Z" style="fill-rule:nonzero;"/>
                    </g>
                    <g transform="matrix(37.5,0,0,37.5,472.08,1978.55)">
                        <path d="M0.406,-0.571C0.406,-0.59 0.401,-0.596 0.392,-0.598C0.386,-0.6 0.361,-0.601 0.333,-0.601L0.263,-0.601C0.236,-0.601 0.126,-0.604 0.101,-0.604C0.091,-0.604 0.084,-0.599 0.084,-0.587L0.084,-0.584C0.086,-0.564 0.088,-0.497 0.09,-0.466C0.091,-0.447 0.092,-0.376 0.092,-0.313C0.092,-0.271 0.091,-0.234 0.09,-0.222C0.086,-0.193 0.082,-0.072 0.078,-0.029C0.078,-0.026 0.077,-0.024 0.077,-0.021C0.077,-0.008 0.082,-0.002 0.086,-0.001C0.092,0.003 0.101,0.003 0.109,0.003C0.125,0.003 0.177,0.001 0.216,0.001C0.256,0.001 0.341,-0.001 0.381,-0.001C0.399,-0.001 0.404,-0.012 0.404,-0.022C0.404,-0.028 0.402,-0.034 0.401,-0.037C0.397,-0.051 0.391,-0.059 0.386,-0.059C0.375,-0.059 0.333,-0.065 0.318,-0.065C0.302,-0.065 0.234,-0.061 0.199,-0.061C0.161,-0.061 0.147,-0.082 0.147,-0.101L0.147,-0.106C0.147,-0.108 0.148,-0.113 0.148,-0.118C0.148,-0.124 0.147,-0.13 0.147,-0.137C0.146,-0.151 0.146,-0.165 0.146,-0.172C0.146,-0.188 0.143,-0.235 0.141,-0.264L0.141,-0.269C0.141,-0.3 0.162,-0.309 0.176,-0.311C0.177,-0.311 0.18,-0.312 0.183,-0.312C0.194,-0.312 0.212,-0.311 0.229,-0.309C0.231,-0.309 0.233,-0.308 0.235,-0.308C0.256,-0.306 0.276,-0.304 0.283,-0.304C0.298,-0.304 0.359,-0.308 0.386,-0.308C0.399,-0.308 0.401,-0.314 0.401,-0.326L0.401,-0.343C0.401,-0.352 0.398,-0.36 0.39,-0.36C0.371,-0.36 0.304,-0.363 0.283,-0.363C0.261,-0.363 0.201,-0.361 0.177,-0.361C0.15,-0.361 0.145,-0.381 0.145,-0.395C0.145,-0.397 0.146,-0.4 0.146,-0.402C0.147,-0.413 0.15,-0.485 0.15,-0.508C0.15,-0.536 0.161,-0.544 0.181,-0.544L0.256,-0.544C0.276,-0.544 0.357,-0.538 0.381,-0.538C0.396,-0.538 0.406,-0.553 0.406,-0.571Z" style="fill-rule:nonzero;"/>
                    </g>
                    <g transform="matrix(37.5,0,0,37.5,489.18,1978.55)">
                        <path d="M0.571,-0.116C0.572,-0.12 0.572,-0.123 0.572,-0.126C0.572,-0.131 0.571,-0.133 0.568,-0.133C0.566,-0.133 0.562,-0.131 0.557,-0.127L0.536,-0.111C0.526,-0.103 0.513,-0.095 0.497,-0.087C0.466,-0.072 0.424,-0.059 0.365,-0.059C0.246,-0.059 0.201,-0.106 0.171,-0.138C0.141,-0.171 0.115,-0.21 0.109,-0.303C0.109,-0.306 0.108,-0.31 0.108,-0.313C0.108,-0.406 0.191,-0.493 0.24,-0.522C0.274,-0.542 0.328,-0.548 0.373,-0.548C0.397,-0.548 0.418,-0.546 0.432,-0.545C0.476,-0.538 0.536,-0.494 0.561,-0.475C0.564,-0.473 0.566,-0.471 0.566,-0.471C0.568,-0.471 0.568,-0.473 0.569,-0.475C0.57,-0.479 0.57,-0.484 0.57,-0.49L0.57,-0.52C0.57,-0.523 0.57,-0.526 0.569,-0.529C0.567,-0.534 0.564,-0.541 0.552,-0.552C0.531,-0.574 0.465,-0.608 0.376,-0.61L0.368,-0.61C0.278,-0.61 0.194,-0.568 0.14,-0.527C0.086,-0.487 0.055,-0.379 0.049,-0.3C0.049,-0.296 0.048,-0.291 0.048,-0.288C0.048,-0.213 0.098,-0.126 0.133,-0.086C0.169,-0.046 0.241,0.006 0.36,0.01L0.368,0.01C0.431,0.01 0.489,-0.007 0.541,-0.042C0.551,-0.05 0.559,-0.056 0.563,-0.059C0.569,-0.062 0.571,-0.068 0.571,-0.079L0.571,-0.116Z" style="fill-rule:nonzero;"/>
                    </g>
                    <g transform="matrix(37.5,0,0,37.5,512.618,1978.55)">
                        <path d="M0.698,-0.296C0.698,-0.331 0.693,-0.37 0.676,-0.43C0.659,-0.487 0.589,-0.545 0.544,-0.571C0.501,-0.598 0.446,-0.617 0.376,-0.617C0.321,-0.617 0.252,-0.6 0.212,-0.579C0.173,-0.559 0.11,-0.491 0.091,-0.456C0.072,-0.42 0.055,-0.358 0.053,-0.309L0.053,-0.302C0.053,-0.254 0.071,-0.186 0.081,-0.161C0.093,-0.133 0.133,-0.063 0.186,-0.033C0.239,-0.002 0.277,0.013 0.361,0.014L0.367,0.014C0.449,0.014 0.526,-0.017 0.56,-0.039C0.593,-0.061 0.641,-0.115 0.662,-0.17C0.672,-0.198 0.681,-0.221 0.688,-0.241C0.695,-0.261 0.698,-0.278 0.698,-0.296ZM0.629,-0.249C0.621,-0.211 0.596,-0.161 0.561,-0.133C0.544,-0.117 0.526,-0.104 0.508,-0.091C0.489,-0.078 0.466,-0.067 0.441,-0.061C0.416,-0.055 0.392,-0.051 0.366,-0.051C0.341,-0.051 0.315,-0.055 0.288,-0.063C0.236,-0.079 0.183,-0.106 0.151,-0.175C0.127,-0.224 0.12,-0.261 0.12,-0.295C0.12,-0.308 0.121,-0.32 0.122,-0.332C0.128,-0.376 0.146,-0.432 0.179,-0.467C0.211,-0.501 0.261,-0.528 0.288,-0.538C0.314,-0.548 0.344,-0.556 0.381,-0.556L0.396,-0.556C0.417,-0.556 0.438,-0.555 0.459,-0.55C0.484,-0.543 0.507,-0.53 0.536,-0.503C0.594,-0.449 0.615,-0.411 0.625,-0.374C0.631,-0.352 0.634,-0.326 0.634,-0.301C0.634,-0.282 0.632,-0.265 0.629,-0.249Z" style="fill-rule:nonzero;"/>
                    </g>
                    <g transform="matrix(37.5,0,0,37.5,540.593,1978.55)">
                        <path d="M0.741,-0.01L0.741,-0.016C0.741,-0.022 0.739,-0.03 0.738,-0.036C0.734,-0.054 0.722,-0.136 0.714,-0.185C0.706,-0.234 0.695,-0.331 0.686,-0.382C0.679,-0.433 0.675,-0.521 0.673,-0.571C0.671,-0.62 0.658,-0.629 0.646,-0.629C0.635,-0.629 0.626,-0.614 0.623,-0.591C0.622,-0.579 0.613,-0.561 0.605,-0.544C0.596,-0.526 0.585,-0.506 0.578,-0.488C0.564,-0.451 0.525,-0.375 0.511,-0.341C0.498,-0.308 0.48,-0.281 0.462,-0.24C0.454,-0.219 0.448,-0.192 0.441,-0.171C0.433,-0.15 0.421,-0.126 0.399,-0.125C0.387,-0.125 0.373,-0.144 0.363,-0.171C0.354,-0.194 0.346,-0.22 0.34,-0.236C0.326,-0.266 0.295,-0.343 0.277,-0.378L0.237,-0.458C0.221,-0.491 0.206,-0.526 0.197,-0.555C0.192,-0.569 0.189,-0.581 0.186,-0.591C0.182,-0.602 0.18,-0.611 0.176,-0.616C0.17,-0.627 0.161,-0.633 0.142,-0.633C0.132,-0.633 0.131,-0.616 0.128,-0.595C0.125,-0.569 0.123,-0.526 0.123,-0.516L0.123,-0.504C0.123,-0.467 0.106,-0.307 0.1,-0.246C0.092,-0.173 0.071,-0.054 0.065,-0.025L0.061,-0.011L0.061,-0.003C0.062,-0.001 0.069,0.004 0.1,0.007L0.108,0.007C0.131,0.007 0.136,0.001 0.137,-0.004C0.138,-0.006 0.138,-0.009 0.138,-0.012C0.138,-0.02 0.136,-0.029 0.136,-0.035L0.136,-0.038C0.136,-0.052 0.138,-0.08 0.141,-0.108C0.141,-0.11 0.142,-0.111 0.142,-0.112C0.146,-0.146 0.151,-0.18 0.151,-0.196C0.154,-0.23 0.167,-0.304 0.167,-0.377C0.167,-0.396 0.169,-0.409 0.174,-0.416C0.177,-0.419 0.181,-0.421 0.184,-0.421C0.189,-0.421 0.195,-0.418 0.199,-0.413C0.209,-0.402 0.22,-0.377 0.225,-0.363C0.229,-0.348 0.235,-0.336 0.241,-0.323L0.265,-0.276C0.283,-0.238 0.308,-0.191 0.322,-0.154C0.336,-0.116 0.369,-0.044 0.377,-0.016C0.385,0.009 0.4,0.022 0.41,0.022C0.418,0.022 0.423,0.017 0.431,-0.013C0.436,-0.027 0.45,-0.061 0.466,-0.098L0.516,-0.207C0.543,-0.267 0.576,-0.336 0.59,-0.373C0.598,-0.395 0.607,-0.404 0.616,-0.404C0.629,-0.404 0.64,-0.384 0.641,-0.361C0.643,-0.326 0.649,-0.251 0.655,-0.197C0.661,-0.142 0.668,-0.071 0.671,-0.036C0.672,-0.007 0.674,0.003 0.706,0.003L0.714,0.003C0.735,0.002 0.739,-0.005 0.741,-0.01Z" style="fill-rule:nonzero;"/>
                    </g>
                    <g transform="matrix(37.5,0,0,37.5,570.33,1978.55)">
                        <path d="M0.406,-0.571C0.406,-0.59 0.401,-0.596 0.392,-0.598C0.386,-0.6 0.361,-0.601 0.333,-0.601L0.263,-0.601C0.236,-0.601 0.126,-0.604 0.101,-0.604C0.091,-0.604 0.084,-0.599 0.084,-0.587L0.084,-0.584C0.086,-0.564 0.088,-0.497 0.09,-0.466C0.091,-0.447 0.092,-0.376 0.092,-0.313C0.092,-0.271 0.091,-0.234 0.09,-0.222C0.086,-0.193 0.082,-0.072 0.078,-0.029C0.078,-0.026 0.077,-0.024 0.077,-0.021C0.077,-0.008 0.082,-0.002 0.086,-0.001C0.092,0.003 0.101,0.003 0.109,0.003C0.125,0.003 0.177,0.001 0.216,0.001C0.256,0.001 0.341,-0.001 0.381,-0.001C0.399,-0.001 0.404,-0.012 0.404,-0.022C0.404,-0.028 0.402,-0.034 0.401,-0.037C0.397,-0.051 0.391,-0.059 0.386,-0.059C0.375,-0.059 0.333,-0.065 0.318,-0.065C0.302,-0.065 0.234,-0.061 0.199,-0.061C0.161,-0.061 0.147,-0.082 0.147,-0.101L0.147,-0.106C0.147,-0.108 0.148,-0.113 0.148,-0.118C0.148,-0.124 0.147,-0.13 0.147,-0.137C0.146,-0.151 0.146,-0.165 0.146,-0.172C0.146,-0.188 0.143,-0.235 0.141,-0.264L0.141,-0.269C0.141,-0.3 0.162,-0.309 0.176,-0.311C0.177,-0.311 0.18,-0.312 0.183,-0.312C0.194,-0.312 0.212,-0.311 0.229,-0.309C0.231,-0.309 0.233,-0.308 0.235,-0.308C0.256,-0.306 0.276,-0.304 0.283,-0.304C0.298,-0.304 0.359,-0.308 0.386,-0.308C0.399,-0.308 0.401,-0.314 0.401,-0.326L0.401,-0.343C0.401,-0.352 0.398,-0.36 0.39,-0.36C0.371,-0.36 0.304,-0.363 0.283,-0.363C0.261,-0.363 0.201,-0.361 0.177,-0.361C0.15,-0.361 0.145,-0.381 0.145,-0.395C0.145,-0.397 0.146,-0.4 0.146,-0.402C0.147,-0.413 0.15,-0.485 0.15,-0.508C0.15,-0.536 0.161,-0.544 0.181,-0.544L0.256,-0.544C0.276,-0.544 0.357,-0.538 0.381,-0.538C0.396,-0.538 0.406,-0.553 0.406,-0.571Z" style="fill-rule:nonzero;"/>
                    </g>
                    <g transform="matrix(37.5,0,0,37.5,596.805,1978.55)">
                        <path d="M0.588,-0.01C0.587,-0.018 0.579,-0.031 0.575,-0.038C0.562,-0.058 0.539,-0.105 0.533,-0.124C0.527,-0.141 0.482,-0.248 0.466,-0.283C0.451,-0.318 0.379,-0.478 0.367,-0.506C0.361,-0.52 0.354,-0.55 0.345,-0.577C0.345,-0.578 0.344,-0.579 0.344,-0.58C0.336,-0.601 0.33,-0.621 0.318,-0.621C0.306,-0.621 0.299,-0.614 0.29,-0.591C0.281,-0.57 0.273,-0.539 0.259,-0.504C0.231,-0.434 0.192,-0.349 0.166,-0.285C0.139,-0.221 0.105,-0.156 0.077,-0.103C0.05,-0.05 0.033,-0.015 0.033,-0.004C0.033,0.011 0.066,0.012 0.074,0.012C0.103,0.012 0.117,-0.002 0.118,-0.016C0.12,-0.027 0.129,-0.053 0.139,-0.079C0.15,-0.105 0.161,-0.133 0.166,-0.151C0.171,-0.174 0.186,-0.184 0.201,-0.187C0.206,-0.188 0.212,-0.189 0.218,-0.189C0.225,-0.189 0.232,-0.188 0.239,-0.187C0.244,-0.186 0.257,-0.186 0.275,-0.186C0.317,-0.186 0.384,-0.187 0.416,-0.189C0.445,-0.188 0.46,-0.166 0.469,-0.142C0.479,-0.116 0.485,-0.084 0.494,-0.055C0.507,-0.009 0.519,0.004 0.546,0.004C0.552,0.004 0.56,0.003 0.567,0.002C0.586,-0 0.588,-0.005 0.588,-0.01ZM0.406,-0.275L0.406,-0.27C0.406,-0.261 0.402,-0.254 0.394,-0.251C0.383,-0.245 0.362,-0.243 0.324,-0.243C0.264,-0.243 0.226,-0.247 0.226,-0.274C0.226,-0.279 0.227,-0.285 0.23,-0.291L0.277,-0.414C0.284,-0.435 0.3,-0.459 0.316,-0.459C0.341,-0.459 0.352,-0.438 0.358,-0.42C0.363,-0.401 0.364,-0.381 0.367,-0.368C0.368,-0.363 0.371,-0.356 0.375,-0.347L0.388,-0.321C0.397,-0.302 0.406,-0.283 0.406,-0.275Z" style="fill-rule:nonzero;"/>
                    </g>
                    <g transform="matrix(37.5,0,0,37.5,638.543,1978.55)">
                        <path d="M0.365,-0.026C0.366,-0.031 0.366,-0.036 0.366,-0.039C0.366,-0.053 0.361,-0.055 0.355,-0.056C0.339,-0.058 0.302,-0.064 0.271,-0.064C0.241,-0.064 0.223,-0.06 0.183,-0.054C0.179,-0.053 0.175,-0.053 0.171,-0.053C0.156,-0.053 0.146,-0.059 0.141,-0.071C0.139,-0.077 0.139,-0.085 0.139,-0.091C0.138,-0.094 0.138,-0.097 0.138,-0.101L0.138,-0.111C0.137,-0.116 0.137,-0.126 0.137,-0.137C0.137,-0.185 0.14,-0.275 0.14,-0.328C0.14,-0.395 0.146,-0.511 0.154,-0.561C0.155,-0.566 0.155,-0.571 0.155,-0.576C0.155,-0.605 0.136,-0.607 0.108,-0.611L0.1,-0.611C0.081,-0.611 0.071,-0.6 0.071,-0.574L0.071,-0.021C0.071,-0.005 0.077,-0 0.085,0.002C0.089,0.004 0.094,0.004 0.099,0.004C0.106,0.004 0.116,0.003 0.122,0.002C0.135,0.001 0.149,0.001 0.165,0.001C0.18,0.001 0.196,0.001 0.211,0.002C0.256,0.004 0.336,0.008 0.345,0.008C0.356,0.008 0.359,0.005 0.361,0.002C0.361,-0 0.362,-0.002 0.363,-0.008C0.363,-0.013 0.364,-0.019 0.365,-0.026Z" style="fill-rule:nonzero;"/>
                    </g>
                    <g transform="matrix(37.5,0,0,37.5,652.868,1978.55)">
                        <path d="M0.17,-0.569L0.17,-0.578C0.17,-0.598 0.165,-0.601 0.162,-0.603C0.16,-0.604 0.156,-0.604 0.151,-0.604C0.145,-0.603 0.138,-0.603 0.132,-0.603L0.122,-0.603C0.106,-0.603 0.101,-0.6 0.1,-0.596C0.098,-0.593 0.097,-0.589 0.097,-0.582C0.097,-0.576 0.098,-0.568 0.098,-0.559C0.101,-0.527 0.106,-0.376 0.106,-0.302L0.106,-0.281C0.106,-0.221 0.104,-0.138 0.098,-0.07C0.096,-0.051 0.096,-0.038 0.096,-0.027C0.096,0.001 0.104,0.004 0.135,0.004C0.159,0.004 0.165,-0.001 0.165,-0.016C0.165,-0.019 0.164,-0.023 0.164,-0.029L0.161,-0.064L0.161,-0.129C0.161,-0.197 0.162,-0.288 0.164,-0.325C0.166,-0.376 0.17,-0.512 0.17,-0.569Z" style="fill-rule:nonzero;"/>
                    </g>
                    <g transform="matrix(37.5,0,0,37.5,662.505,1978.55)">
                        <path d="M0.698,-0.296C0.698,-0.331 0.693,-0.37 0.676,-0.43C0.659,-0.487 0.589,-0.545 0.544,-0.571C0.501,-0.598 0.446,-0.617 0.376,-0.617C0.321,-0.617 0.252,-0.6 0.212,-0.579C0.173,-0.559 0.11,-0.491 0.091,-0.456C0.072,-0.42 0.055,-0.358 0.053,-0.309L0.053,-0.302C0.053,-0.254 0.071,-0.186 0.081,-0.161C0.093,-0.133 0.133,-0.063 0.186,-0.033C0.239,-0.002 0.277,0.013 0.361,0.014L0.367,0.014C0.449,0.014 0.526,-0.017 0.56,-0.039C0.593,-0.061 0.641,-0.115 0.662,-0.17C0.672,-0.198 0.681,-0.221 0.688,-0.241C0.695,-0.261 0.698,-0.278 0.698,-0.296ZM0.629,-0.249C0.621,-0.211 0.596,-0.161 0.561,-0.133C0.544,-0.117 0.526,-0.104 0.508,-0.091C0.489,-0.078 0.466,-0.067 0.441,-0.061C0.416,-0.055 0.392,-0.051 0.366,-0.051C0.341,-0.051 0.315,-0.055 0.288,-0.063C0.236,-0.079 0.183,-0.106 0.151,-0.175C0.127,-0.224 0.12,-0.261 0.12,-0.295C0.12,-0.308 0.121,-0.32 0.122,-0.332C0.128,-0.376 0.146,-0.432 0.179,-0.467C0.211,-0.501 0.261,-0.528 0.288,-0.538C0.314,-0.548 0.344,-0.556 0.381,-0.556L0.396,-0.556C0.417,-0.556 0.438,-0.555 0.459,-0.55C0.484,-0.543 0.507,-0.53 0.536,-0.503C0.594,-0.449 0.615,-0.411 0.625,-0.374C0.631,-0.352 0.634,-0.326 0.634,-0.301C0.634,-0.282 0.632,-0.265 0.629,-0.249Z" style="fill-rule:nonzero;"/>
                    </g>
                    <g transform="matrix(37.5,0,0,37.5,690.48,1978.55)">
                        <path d="M0.638,-0.005C0.638,-0.008 0.637,-0.013 0.636,-0.019L0.632,-0.041C0.63,-0.057 0.626,-0.078 0.624,-0.101C0.622,-0.125 0.621,-0.176 0.621,-0.229C0.621,-0.281 0.622,-0.336 0.622,-0.364C0.622,-0.421 0.626,-0.531 0.628,-0.581L0.628,-0.586C0.628,-0.606 0.624,-0.608 0.621,-0.609C0.619,-0.609 0.616,-0.61 0.615,-0.61C0.612,-0.61 0.609,-0.609 0.606,-0.609C0.599,-0.609 0.591,-0.609 0.583,-0.61L0.576,-0.61C0.56,-0.61 0.552,-0.602 0.552,-0.581C0.552,-0.578 0.552,-0.574 0.553,-0.57C0.557,-0.535 0.559,-0.461 0.563,-0.42C0.564,-0.409 0.564,-0.395 0.564,-0.378L0.564,-0.301C0.564,-0.273 0.564,-0.247 0.566,-0.228C0.568,-0.215 0.569,-0.203 0.569,-0.193C0.569,-0.158 0.561,-0.141 0.549,-0.141C0.533,-0.141 0.527,-0.151 0.522,-0.161C0.521,-0.165 0.52,-0.169 0.517,-0.173C0.515,-0.18 0.507,-0.186 0.497,-0.196C0.486,-0.207 0.475,-0.218 0.466,-0.23C0.456,-0.242 0.437,-0.262 0.415,-0.285L0.347,-0.352C0.306,-0.393 0.244,-0.46 0.216,-0.491C0.202,-0.507 0.183,-0.526 0.164,-0.546C0.146,-0.566 0.127,-0.587 0.116,-0.603C0.105,-0.618 0.098,-0.624 0.093,-0.626C0.09,-0.627 0.086,-0.627 0.082,-0.627L0.076,-0.627C0.07,-0.627 0.069,-0.619 0.069,-0.607L0.069,-0.592C0.069,-0.569 0.075,-0.505 0.078,-0.465C0.082,-0.423 0.084,-0.281 0.086,-0.226L0.086,-0.216C0.086,-0.157 0.072,-0.037 0.071,-0.01C0.071,-0.001 0.076,0.003 0.081,0.004C0.092,0.007 0.106,0.007 0.117,0.007L0.132,0.007C0.136,0.007 0.141,0.007 0.143,0.006C0.149,0.005 0.151,0.003 0.151,-0.001C0.151,-0.006 0.152,-0.011 0.152,-0.016C0.152,-0.031 0.151,-0.046 0.15,-0.062C0.148,-0.084 0.144,-0.211 0.144,-0.256C0.144,-0.301 0.14,-0.371 0.138,-0.416L0.138,-0.421C0.138,-0.439 0.146,-0.447 0.158,-0.447C0.161,-0.447 0.166,-0.446 0.171,-0.445C0.185,-0.439 0.201,-0.423 0.211,-0.41C0.231,-0.385 0.256,-0.358 0.286,-0.331C0.318,-0.303 0.361,-0.258 0.385,-0.231C0.408,-0.203 0.466,-0.137 0.494,-0.108C0.521,-0.079 0.566,-0.03 0.583,-0.006C0.597,0.016 0.616,0.022 0.626,0.022C0.636,0.022 0.638,0.007 0.638,-0.005Z" style="fill-rule:nonzero;"/>
                    </g>
                </g>
                <g transform="matrix(1.33294,0,0,1.02273,558.692,1279.25)">
                    <path d="M187.935,206.187C188.198,203.466 189.289,200.717 190.551,198.598C192.444,200.223 193.153,200.086 193.671,204.321C194.339,209.818 192.889,210.614 192.072,211.873C187.123,210.998 187.249,213.303 187.935,206.187ZM212.084,91.199C205.463,93.473 193.879,98.762 190.4,104.992C185.717,109.101 185.72,113.052 181.403,117.486C177.709,121.281 173.391,122.2 169.695,126.442C155.015,134.805 144.176,199.405 119.818,186.709C114.741,182.296 117.541,179.707 109.095,174.746C101.584,170.337 103.014,173.02 96.502,166.054C94.465,178.909 101.974,193.12 111.884,194.905C150.266,201.81 158.33,139.37 178.387,133.733L191.652,167.624C183.624,175.039 183.624,170.472 175.246,175.373C173.716,182.779 175.866,183.345 176.013,190.602C176.123,195.938 174.803,198.835 174.413,203.895C174.78,205.237 173.806,234.156 198.683,222.957C205.75,219.775 200.359,221.289 202.937,219.822C203.157,219.696 200.475,211.284 208.388,224.372C211.795,230.006 211.209,228.923 219.355,228.891C229.116,228.851 234.877,230.45 241.849,225.551C237.692,211.284 222.331,225.962 211.267,203.308C210.15,201.02 209.045,198.748 208.595,196.708C207.402,191.301 207.251,193.671 209.541,191.15C210.308,186.646 208.955,189.755 212.199,184.907C219.921,173.364 227.658,176.65 234.655,145.143C239.859,146.45 245.491,147.957 249.07,150.394C255.518,154.787 251.983,154.07 261.61,157.401L294.51,164.729C292.776,177.494 290.728,172.905 288.564,173.852C289.938,180.716 285.938,180.323 289.557,188.492C292.574,195.735 288.329,190.618 290.046,203.718C292.515,222.571 280.894,208.473 295.557,225.441C302.793,233.813 305.641,232.141 314.668,231.024L319.624,230.11C335.875,222.828 308.147,217.165 307.568,216.925C306.069,208.757 305.541,197.705 311.248,192.337C311.857,186.655 313.139,185.525 316.756,180.975C318.552,182.363 317.505,181.037 319.299,183.44C319.903,184.248 319.966,184.577 320.461,185.419C326.637,195.888 324.719,189.471 328.927,195.51C337.485,199.93 344.711,208.145 349.323,218.751C365.026,222.088 357.196,219.383 365.59,229.652C374.751,230.486 387.788,229.796 395.596,225.551C390.841,211.532 368.62,225.723 360.98,199.708C357.972,196.604 356.178,192.576 356.921,187.908C366.334,192.371 363.913,187.125 367.88,188.101L372.857,181.111C381.981,187.786 382.789,195.21 391.577,196.441C395.501,192.727 393.414,193.232 395.681,190.412C401.205,183.537 405.571,190.516 414.079,179.934C413.537,177.108 407.212,165.185 409.401,151.983C410.069,147.946 411.486,146.26 414.09,143.519C414.25,143.35 414.8,143.228 414.92,142.722C415.042,142.206 415.502,142.199 415.947,141.533L408.625,138.18C412.664,133.425 411.186,133.22 410.288,127.162C407.69,127.521 408.387,126.921 405.77,128.897C405.33,124.211 406.063,125.821 403.994,121.81L387.36,110.846C386.162,107.8 384.873,106.134 383.048,104.013L380.976,109.841C376.707,101.606 375.338,108.307 364.554,103.311C340.877,92.341 348.739,102.851 336.948,96.057C332.673,93.593 332.194,93.318 327.481,91.673C298.16,81.439 308.788,86.97 282.959,93.006C248.929,100.956 237.448,78.824 212.084,91.199Z" style="fill:rgb(102,102,102);"/>
                </g>
            </g>
			</a>
            <g id="Header">
                <g id="Lyric-Text" serif:id="Lyric Text" transform="matrix(1.06635,-1.00849e-32,0,0.818182,68.64,-1076.45)">
                    <g transform="matrix(66.6667,0,0,66.6667,474.064,1776)">
                        <path d="M0.458,-0.18L0.458,-0.185C0.458,-0.253 0.426,-0.304 0.396,-0.336C0.366,-0.367 0.317,-0.392 0.261,-0.394L0.256,-0.394C0.165,-0.394 0.125,-0.356 0.096,-0.326C0.066,-0.296 0.043,-0.251 0.043,-0.187C0.043,-0.123 0.081,-0.061 0.112,-0.033C0.142,-0.006 0.187,0.014 0.245,0.014L0.251,0.014C0.313,0.012 0.361,0.004 0.404,-0.042C0.447,-0.09 0.458,-0.107 0.458,-0.18ZM0.401,-0.191C0.401,-0.153 0.387,-0.101 0.362,-0.082C0.356,-0.079 0.35,-0.074 0.342,-0.069C0.317,-0.052 0.289,-0.039 0.259,-0.039C0.255,-0.039 0.251,-0.039 0.246,-0.04C0.198,-0.046 0.175,-0.056 0.146,-0.09C0.117,-0.122 0.108,-0.148 0.108,-0.189C0.108,-0.229 0.115,-0.267 0.155,-0.297C0.194,-0.326 0.225,-0.33 0.257,-0.33C0.308,-0.33 0.345,-0.316 0.366,-0.279C0.376,-0.262 0.385,-0.251 0.391,-0.238C0.396,-0.225 0.401,-0.211 0.401,-0.191Z" style="fill-rule:nonzero;"/>
                    </g>
                    <g transform="matrix(66.6667,0,0,66.6667,507.198,1776)">
                        <path d="M0.289,-0.623L0.289,-0.629C0.289,-0.645 0.281,-0.653 0.27,-0.657C0.256,-0.662 0.239,-0.663 0.224,-0.665C0.195,-0.665 0.167,-0.638 0.149,-0.62C0.123,-0.595 0.112,-0.545 0.112,-0.521L0.118,-0.41C0.118,-0.386 0.106,-0.38 0.091,-0.38C0.082,-0.38 0.071,-0.382 0.062,-0.386L0.058,-0.386C0.049,-0.386 0.041,-0.376 0.038,-0.361C0.037,-0.356 0.036,-0.354 0.036,-0.351C0.036,-0.341 0.041,-0.335 0.049,-0.331C0.054,-0.328 0.061,-0.327 0.067,-0.327C0.072,-0.327 0.078,-0.327 0.083,-0.328C0.096,-0.328 0.111,-0.328 0.117,-0.314C0.12,-0.309 0.12,-0.304 0.12,-0.298L0.12,-0.214C0.12,-0.185 0.114,-0.088 0.108,-0.043C0.107,-0.039 0.107,-0.036 0.107,-0.032C0.107,-0.003 0.126,0.004 0.157,0.006L0.161,0.006C0.175,0.006 0.179,0.003 0.181,-0.001C0.183,-0.006 0.183,-0.013 0.183,-0.019L0.183,-0.028C0.183,-0.051 0.176,-0.12 0.176,-0.165L0.176,-0.294C0.176,-0.314 0.182,-0.326 0.198,-0.329C0.204,-0.331 0.211,-0.331 0.22,-0.331C0.227,-0.33 0.236,-0.33 0.246,-0.33C0.266,-0.33 0.273,-0.333 0.276,-0.336C0.276,-0.338 0.278,-0.341 0.279,-0.346L0.281,-0.363C0.281,-0.373 0.275,-0.375 0.269,-0.376C0.263,-0.377 0.256,-0.377 0.25,-0.377L0.227,-0.377C0.19,-0.377 0.18,-0.411 0.177,-0.438C0.176,-0.451 0.175,-0.471 0.175,-0.488C0.175,-0.506 0.176,-0.524 0.18,-0.536C0.188,-0.556 0.216,-0.587 0.251,-0.587L0.255,-0.587C0.262,-0.587 0.268,-0.586 0.273,-0.586C0.277,-0.586 0.279,-0.587 0.28,-0.588C0.286,-0.592 0.286,-0.601 0.288,-0.619C0.288,-0.62 0.289,-0.621 0.289,-0.623Z" style="fill-rule:nonzero;"/>
                    </g>
                    <g transform="matrix(66.6667,0,0,66.6667,528.064,1776)">
                        <path d="M0.253,-0.356C0.253,-0.364 0.249,-0.367 0.241,-0.37C0.236,-0.371 0.23,-0.371 0.224,-0.371C0.217,-0.371 0.211,-0.372 0.204,-0.372L0.187,-0.374C0.182,-0.374 0.178,-0.375 0.174,-0.376C0.165,-0.379 0.159,-0.386 0.159,-0.396C0.159,-0.41 0.159,-0.434 0.161,-0.473L0.161,-0.477C0.161,-0.492 0.158,-0.497 0.155,-0.499C0.15,-0.503 0.14,-0.503 0.134,-0.503L0.131,-0.503C0.116,-0.503 0.107,-0.491 0.106,-0.485C0.106,-0.484 0.105,-0.482 0.105,-0.481C0.105,-0.476 0.106,-0.468 0.107,-0.458C0.109,-0.445 0.111,-0.428 0.111,-0.411L0.111,-0.406C0.111,-0.388 0.103,-0.378 0.09,-0.375C0.086,-0.374 0.082,-0.374 0.078,-0.374C0.071,-0.374 0.062,-0.375 0.055,-0.375C0.041,-0.375 0.033,-0.366 0.03,-0.336C0.03,-0.335 0.029,-0.334 0.029,-0.333C0.029,-0.327 0.033,-0.325 0.041,-0.323C0.046,-0.322 0.051,-0.322 0.056,-0.322C0.061,-0.322 0.066,-0.323 0.07,-0.323C0.086,-0.323 0.107,-0.311 0.107,-0.289C0.107,-0.273 0.11,-0.238 0.11,-0.193C0.11,-0.148 0.104,-0.062 0.104,-0.023C0.104,-0.004 0.107,0.001 0.11,0.003L0.118,0.005L0.136,0.005C0.161,0.005 0.169,0.002 0.169,-0.011L0.169,-0.018C0.166,-0.046 0.161,-0.118 0.16,-0.16C0.159,-0.174 0.158,-0.191 0.158,-0.208C0.158,-0.241 0.16,-0.275 0.161,-0.297C0.162,-0.319 0.175,-0.328 0.191,-0.329L0.194,-0.329C0.206,-0.329 0.217,-0.326 0.229,-0.325L0.233,-0.325C0.246,-0.325 0.253,-0.332 0.253,-0.356Z" style="fill-rule:nonzero;"/>
                    </g>
                    <g transform="matrix(66.6667,0,0,66.6667,546.998,1776)">
                        <path d="M0.437,-0.197C0.437,-0.198 0.438,-0.199 0.438,-0.201C0.438,-0.202 0.437,-0.205 0.437,-0.208L0.433,-0.229C0.426,-0.261 0.391,-0.314 0.365,-0.345C0.339,-0.373 0.289,-0.39 0.247,-0.392L0.236,-0.392C0.193,-0.392 0.159,-0.371 0.124,-0.348L0.116,-0.343C0.078,-0.32 0.051,-0.244 0.049,-0.184L0.049,-0.181C0.049,-0.124 0.092,-0.061 0.126,-0.023C0.159,0.012 0.227,0.013 0.261,0.013C0.293,0.013 0.319,0.005 0.336,-0.004C0.343,-0.008 0.353,-0.016 0.365,-0.026C0.376,-0.036 0.388,-0.046 0.401,-0.056C0.411,-0.063 0.416,-0.071 0.416,-0.079C0.416,-0.088 0.411,-0.097 0.396,-0.109C0.391,-0.113 0.386,-0.115 0.383,-0.115C0.378,-0.115 0.375,-0.112 0.371,-0.109C0.364,-0.101 0.359,-0.091 0.355,-0.081C0.347,-0.063 0.307,-0.043 0.257,-0.043L0.249,-0.043C0.216,-0.044 0.188,-0.054 0.163,-0.074L0.148,-0.086C0.132,-0.1 0.116,-0.14 0.116,-0.165L0.116,-0.172C0.119,-0.184 0.143,-0.191 0.173,-0.192C0.198,-0.192 0.226,-0.191 0.241,-0.191C0.262,-0.191 0.32,-0.19 0.365,-0.19C0.388,-0.19 0.408,-0.19 0.419,-0.191C0.436,-0.191 0.437,-0.195 0.437,-0.197ZM0.366,-0.263C0.369,-0.258 0.37,-0.254 0.37,-0.25C0.37,-0.239 0.361,-0.232 0.343,-0.232C0.304,-0.232 0.261,-0.231 0.244,-0.231C0.226,-0.231 0.173,-0.232 0.162,-0.235C0.151,-0.236 0.127,-0.249 0.127,-0.267C0.127,-0.273 0.129,-0.279 0.134,-0.285C0.15,-0.307 0.194,-0.337 0.246,-0.337L0.25,-0.337C0.297,-0.335 0.313,-0.321 0.336,-0.299C0.346,-0.289 0.36,-0.276 0.366,-0.263Z" style="fill-rule:nonzero;"/>
                    </g>
                    <g transform="matrix(66.6667,0,0,66.6667,578.731,1776)">
                        <path d="M0.411,-0.05C0.408,-0.076 0.405,-0.158 0.405,-0.216C0.405,-0.228 0.406,-0.24 0.406,-0.249L0.406,-0.253C0.406,-0.299 0.382,-0.339 0.368,-0.356C0.354,-0.374 0.324,-0.391 0.285,-0.392L0.278,-0.392C0.245,-0.392 0.225,-0.38 0.191,-0.348C0.177,-0.335 0.166,-0.331 0.159,-0.33C0.153,-0.33 0.15,-0.333 0.148,-0.336C0.146,-0.341 0.145,-0.347 0.145,-0.353C0.145,-0.359 0.145,-0.364 0.146,-0.369C0.146,-0.386 0.13,-0.389 0.118,-0.389C0.107,-0.389 0.088,-0.388 0.084,-0.379C0.083,-0.376 0.082,-0.372 0.082,-0.367C0.083,-0.361 0.084,-0.356 0.084,-0.349C0.086,-0.321 0.098,-0.258 0.098,-0.217C0.098,-0.176 0.096,-0.126 0.088,-0.06C0.086,-0.048 0.086,-0.039 0.086,-0.031C0.086,-0.002 0.096,0.004 0.119,0.004C0.122,0.004 0.126,0.003 0.131,0.003C0.151,0.002 0.155,-0.004 0.156,-0.007L0.156,-0.014C0.156,-0.021 0.155,-0.029 0.154,-0.034C0.15,-0.056 0.146,-0.136 0.146,-0.171C0.146,-0.204 0.151,-0.259 0.172,-0.288C0.194,-0.318 0.227,-0.335 0.257,-0.335L0.271,-0.335C0.277,-0.335 0.284,-0.335 0.29,-0.333C0.301,-0.331 0.311,-0.325 0.325,-0.314C0.342,-0.301 0.349,-0.284 0.352,-0.263C0.354,-0.251 0.354,-0.237 0.354,-0.222L0.354,-0.19C0.354,-0.133 0.346,-0.101 0.342,-0.045C0.342,-0.041 0.341,-0.036 0.341,-0.033C0.341,0.004 0.358,0.005 0.388,0.005C0.409,0.005 0.414,-0.006 0.414,-0.022C0.414,-0.031 0.412,-0.041 0.411,-0.05Z" style="fill-rule:nonzero;"/>
                    </g>
                    <g transform="matrix(66.6667,0,0,66.6667,627.664,1776)">
                        <path d="M0.253,-0.356C0.253,-0.364 0.249,-0.367 0.241,-0.37C0.236,-0.371 0.23,-0.371 0.224,-0.371C0.217,-0.371 0.211,-0.372 0.204,-0.372L0.187,-0.374C0.182,-0.374 0.178,-0.375 0.174,-0.376C0.165,-0.379 0.159,-0.386 0.159,-0.396C0.159,-0.41 0.159,-0.434 0.161,-0.473L0.161,-0.477C0.161,-0.492 0.158,-0.497 0.155,-0.499C0.15,-0.503 0.14,-0.503 0.134,-0.503L0.131,-0.503C0.116,-0.503 0.107,-0.491 0.106,-0.485C0.106,-0.484 0.105,-0.482 0.105,-0.481C0.105,-0.476 0.106,-0.468 0.107,-0.458C0.109,-0.445 0.111,-0.428 0.111,-0.411L0.111,-0.406C0.111,-0.388 0.103,-0.378 0.09,-0.375C0.086,-0.374 0.082,-0.374 0.078,-0.374C0.071,-0.374 0.062,-0.375 0.055,-0.375C0.041,-0.375 0.033,-0.366 0.03,-0.336C0.03,-0.335 0.029,-0.334 0.029,-0.333C0.029,-0.327 0.033,-0.325 0.041,-0.323C0.046,-0.322 0.051,-0.322 0.056,-0.322C0.061,-0.322 0.066,-0.323 0.07,-0.323C0.086,-0.323 0.107,-0.311 0.107,-0.289C0.107,-0.273 0.11,-0.238 0.11,-0.193C0.11,-0.148 0.104,-0.062 0.104,-0.023C0.104,-0.004 0.107,0.001 0.11,0.003L0.118,0.005L0.136,0.005C0.161,0.005 0.169,0.002 0.169,-0.011L0.169,-0.018C0.166,-0.046 0.161,-0.118 0.16,-0.16C0.159,-0.174 0.158,-0.191 0.158,-0.208C0.158,-0.241 0.16,-0.275 0.161,-0.297C0.162,-0.319 0.175,-0.328 0.191,-0.329L0.194,-0.329C0.206,-0.329 0.217,-0.326 0.229,-0.325L0.233,-0.325C0.246,-0.325 0.253,-0.332 0.253,-0.356Z" style="fill-rule:nonzero;"/>
                    </g>
                    <g transform="matrix(66.6667,0,0,66.6667,646.598,1776)">
                        <path d="M0.424,-0.026L0.424,-0.032C0.424,-0.04 0.423,-0.047 0.422,-0.055C0.42,-0.072 0.419,-0.12 0.419,-0.162C0.419,-0.189 0.419,-0.215 0.42,-0.23L0.42,-0.237C0.42,-0.274 0.409,-0.32 0.392,-0.346C0.375,-0.372 0.325,-0.389 0.299,-0.391C0.294,-0.391 0.288,-0.392 0.282,-0.392C0.259,-0.392 0.233,-0.387 0.205,-0.366C0.191,-0.355 0.181,-0.351 0.174,-0.351C0.168,-0.351 0.165,-0.353 0.162,-0.356C0.156,-0.362 0.156,-0.373 0.155,-0.381C0.152,-0.39 0.151,-0.4 0.151,-0.412C0.151,-0.425 0.152,-0.439 0.154,-0.457C0.158,-0.492 0.162,-0.551 0.164,-0.609L0.164,-0.615C0.164,-0.64 0.159,-0.647 0.155,-0.651C0.152,-0.654 0.149,-0.655 0.143,-0.656L0.119,-0.656C0.096,-0.656 0.089,-0.646 0.089,-0.628C0.089,-0.602 0.089,-0.554 0.092,-0.494C0.096,-0.433 0.099,-0.292 0.099,-0.253C0.099,-0.214 0.096,-0.082 0.093,-0.041C0.092,-0.033 0.091,-0.026 0.091,-0.021C0.091,-0.004 0.098,-0 0.126,0.003L0.132,0.003C0.155,0.003 0.159,-0.008 0.159,-0.021C0.159,-0.025 0.158,-0.029 0.158,-0.033C0.157,-0.045 0.156,-0.083 0.156,-0.124C0.156,-0.165 0.157,-0.209 0.158,-0.231C0.161,-0.281 0.186,-0.302 0.204,-0.316C0.224,-0.331 0.261,-0.34 0.278,-0.34C0.281,-0.34 0.286,-0.34 0.291,-0.339C0.311,-0.338 0.326,-0.33 0.341,-0.313C0.361,-0.289 0.362,-0.256 0.362,-0.225L0.362,-0.212C0.362,-0.182 0.355,-0.082 0.351,-0.047C0.35,-0.041 0.35,-0.035 0.35,-0.03C0.35,-0.01 0.357,-0 0.391,0.003L0.397,0.003C0.414,0.003 0.42,-0.004 0.422,-0.012C0.423,-0.016 0.424,-0.021 0.424,-0.026Z" style="fill-rule:nonzero;"/>
                    </g>
                    <g transform="matrix(66.6667,0,0,66.6667,680.398,1776)">
                        <path d="M0.437,-0.197C0.437,-0.198 0.438,-0.199 0.438,-0.201C0.438,-0.202 0.437,-0.205 0.437,-0.208L0.433,-0.229C0.426,-0.261 0.391,-0.314 0.365,-0.345C0.339,-0.373 0.289,-0.39 0.247,-0.392L0.236,-0.392C0.193,-0.392 0.159,-0.371 0.124,-0.348L0.116,-0.343C0.078,-0.32 0.051,-0.244 0.049,-0.184L0.049,-0.181C0.049,-0.124 0.092,-0.061 0.126,-0.023C0.159,0.012 0.227,0.013 0.261,0.013C0.293,0.013 0.319,0.005 0.336,-0.004C0.343,-0.008 0.353,-0.016 0.365,-0.026C0.376,-0.036 0.388,-0.046 0.401,-0.056C0.411,-0.063 0.416,-0.071 0.416,-0.079C0.416,-0.088 0.411,-0.097 0.396,-0.109C0.391,-0.113 0.386,-0.115 0.383,-0.115C0.378,-0.115 0.375,-0.112 0.371,-0.109C0.364,-0.101 0.359,-0.091 0.355,-0.081C0.347,-0.063 0.307,-0.043 0.257,-0.043L0.249,-0.043C0.216,-0.044 0.188,-0.054 0.163,-0.074L0.148,-0.086C0.132,-0.1 0.116,-0.14 0.116,-0.165L0.116,-0.172C0.119,-0.184 0.143,-0.191 0.173,-0.192C0.198,-0.192 0.226,-0.191 0.241,-0.191C0.262,-0.191 0.32,-0.19 0.365,-0.19C0.388,-0.19 0.408,-0.19 0.419,-0.191C0.436,-0.191 0.437,-0.195 0.437,-0.197ZM0.366,-0.263C0.369,-0.258 0.37,-0.254 0.37,-0.25C0.37,-0.239 0.361,-0.232 0.343,-0.232C0.304,-0.232 0.261,-0.231 0.244,-0.231C0.226,-0.231 0.173,-0.232 0.162,-0.235C0.151,-0.236 0.127,-0.249 0.127,-0.267C0.127,-0.273 0.129,-0.279 0.134,-0.285C0.15,-0.307 0.194,-0.337 0.246,-0.337L0.25,-0.337C0.297,-0.335 0.313,-0.321 0.336,-0.299C0.346,-0.289 0.36,-0.276 0.366,-0.263Z" style="fill-rule:nonzero;"/>
                    </g>
                    <g transform="matrix(66.6667,0,0,66.6667,712.131,1776)">
                        <path d="M0.308,-0.38C0.301,-0.383 0.277,-0.391 0.25,-0.391C0.223,-0.391 0.186,-0.367 0.173,-0.342C0.17,-0.336 0.166,-0.33 0.161,-0.327C0.158,-0.326 0.156,-0.326 0.155,-0.326C0.15,-0.326 0.146,-0.329 0.144,-0.332C0.141,-0.338 0.14,-0.346 0.14,-0.354L0.14,-0.361C0.14,-0.378 0.122,-0.385 0.109,-0.385C0.084,-0.385 0.081,-0.377 0.08,-0.372C0.08,-0.371 0.079,-0.37 0.079,-0.368C0.079,-0.365 0.08,-0.36 0.081,-0.355C0.082,-0.348 0.083,-0.34 0.084,-0.333C0.086,-0.3 0.086,-0.226 0.086,-0.182C0.086,-0.139 0.084,-0.094 0.077,-0.036C0.076,-0.026 0.076,-0.018 0.076,-0.013C0.076,-0.007 0.077,-0.004 0.081,-0.002C0.083,-0.001 0.087,-0.001 0.096,-0.001C0.104,-0.002 0.114,-0.003 0.126,-0.003C0.151,-0.003 0.157,-0.02 0.157,-0.039C0.157,-0.053 0.153,-0.069 0.151,-0.081C0.147,-0.101 0.146,-0.138 0.146,-0.175C0.146,-0.195 0.146,-0.214 0.147,-0.231C0.15,-0.285 0.186,-0.315 0.22,-0.323C0.233,-0.326 0.242,-0.327 0.251,-0.327C0.263,-0.327 0.271,-0.325 0.284,-0.32C0.286,-0.32 0.289,-0.317 0.291,-0.317C0.294,-0.317 0.295,-0.318 0.296,-0.321C0.298,-0.322 0.3,-0.326 0.301,-0.331C0.304,-0.336 0.306,-0.342 0.308,-0.349C0.311,-0.359 0.313,-0.366 0.313,-0.37C0.313,-0.375 0.311,-0.378 0.308,-0.38Z" style="fill-rule:nonzero;"/>
                    </g>
                    <g transform="matrix(66.6667,0,0,66.6667,734.198,1776)">
                        <path d="M0.437,-0.197C0.437,-0.198 0.438,-0.199 0.438,-0.201C0.438,-0.202 0.437,-0.205 0.437,-0.208L0.433,-0.229C0.426,-0.261 0.391,-0.314 0.365,-0.345C0.339,-0.373 0.289,-0.39 0.247,-0.392L0.236,-0.392C0.193,-0.392 0.159,-0.371 0.124,-0.348L0.116,-0.343C0.078,-0.32 0.051,-0.244 0.049,-0.184L0.049,-0.181C0.049,-0.124 0.092,-0.061 0.126,-0.023C0.159,0.012 0.227,0.013 0.261,0.013C0.293,0.013 0.319,0.005 0.336,-0.004C0.343,-0.008 0.353,-0.016 0.365,-0.026C0.376,-0.036 0.388,-0.046 0.401,-0.056C0.411,-0.063 0.416,-0.071 0.416,-0.079C0.416,-0.088 0.411,-0.097 0.396,-0.109C0.391,-0.113 0.386,-0.115 0.383,-0.115C0.378,-0.115 0.375,-0.112 0.371,-0.109C0.364,-0.101 0.359,-0.091 0.355,-0.081C0.347,-0.063 0.307,-0.043 0.257,-0.043L0.249,-0.043C0.216,-0.044 0.188,-0.054 0.163,-0.074L0.148,-0.086C0.132,-0.1 0.116,-0.14 0.116,-0.165L0.116,-0.172C0.119,-0.184 0.143,-0.191 0.173,-0.192C0.198,-0.192 0.226,-0.191 0.241,-0.191C0.262,-0.191 0.32,-0.19 0.365,-0.19C0.388,-0.19 0.408,-0.19 0.419,-0.191C0.436,-0.191 0.437,-0.195 0.437,-0.197ZM0.366,-0.263C0.369,-0.258 0.37,-0.254 0.37,-0.25C0.37,-0.239 0.361,-0.232 0.343,-0.232C0.304,-0.232 0.261,-0.231 0.244,-0.231C0.226,-0.231 0.173,-0.232 0.162,-0.235C0.151,-0.236 0.127,-0.249 0.127,-0.267C0.127,-0.273 0.129,-0.279 0.134,-0.285C0.15,-0.307 0.194,-0.337 0.246,-0.337L0.25,-0.337C0.297,-0.335 0.313,-0.321 0.336,-0.299C0.346,-0.289 0.36,-0.276 0.366,-0.263Z" style="fill-rule:nonzero;"/>
                    </g>
                    <g transform="matrix(66.6667,0,0,66.6667,782.598,1776)">
                        <path d="M0.166,-0.514C0.165,-0.541 0.141,-0.566 0.116,-0.569L0.109,-0.569C0.083,-0.569 0.065,-0.553 0.063,-0.53C0.064,-0.499 0.091,-0.474 0.12,-0.474C0.15,-0.474 0.162,-0.491 0.166,-0.514ZM0.154,-0.033C0.151,-0.056 0.142,-0.143 0.142,-0.186C0.142,-0.206 0.141,-0.226 0.141,-0.247C0.141,-0.274 0.142,-0.302 0.145,-0.336C0.145,-0.342 0.146,-0.347 0.146,-0.352C0.146,-0.384 0.136,-0.386 0.12,-0.386C0.094,-0.386 0.088,-0.38 0.088,-0.362C0.088,-0.359 0.089,-0.356 0.089,-0.351C0.091,-0.321 0.093,-0.237 0.093,-0.194C0.093,-0.151 0.085,-0.075 0.085,-0.038C0.085,-0.003 0.087,0.003 0.117,0.003C0.145,0.003 0.155,-0.01 0.155,-0.026C0.155,-0.028 0.154,-0.031 0.154,-0.033Z" style="fill-rule:nonzero;"/>
                    </g>
                    <g transform="matrix(66.6667,0,0,66.6667,798.931,1776)">
                        <path d="M0.296,-0.114C0.296,-0.146 0.274,-0.17 0.254,-0.19C0.238,-0.206 0.177,-0.239 0.156,-0.249C0.133,-0.259 0.111,-0.276 0.111,-0.301C0.111,-0.326 0.131,-0.336 0.156,-0.336L0.165,-0.336C0.197,-0.335 0.214,-0.324 0.238,-0.304C0.246,-0.297 0.25,-0.296 0.252,-0.296C0.255,-0.296 0.257,-0.298 0.259,-0.3L0.266,-0.308C0.268,-0.311 0.271,-0.314 0.272,-0.317C0.275,-0.321 0.276,-0.325 0.276,-0.328C0.276,-0.332 0.275,-0.336 0.271,-0.341C0.257,-0.356 0.216,-0.384 0.156,-0.386L0.149,-0.386C0.132,-0.386 0.123,-0.384 0.116,-0.381C0.108,-0.377 0.102,-0.371 0.096,-0.365C0.082,-0.354 0.065,-0.334 0.063,-0.311C0.063,-0.307 0.062,-0.303 0.062,-0.3C0.062,-0.277 0.067,-0.258 0.081,-0.24C0.097,-0.218 0.133,-0.196 0.171,-0.18C0.211,-0.164 0.249,-0.133 0.249,-0.1C0.249,-0.066 0.221,-0.046 0.177,-0.043C0.174,-0.043 0.171,-0.042 0.169,-0.042C0.126,-0.042 0.096,-0.078 0.089,-0.092C0.087,-0.099 0.079,-0.103 0.073,-0.103C0.069,-0.103 0.063,-0.101 0.056,-0.1C0.041,-0.096 0.036,-0.084 0.036,-0.072C0.036,-0.068 0.036,-0.063 0.039,-0.059C0.046,-0.046 0.072,-0.026 0.096,-0.011C0.118,0.001 0.157,0.009 0.184,0.009C0.208,0.009 0.237,-0.009 0.263,-0.026C0.285,-0.041 0.295,-0.081 0.296,-0.114Z" style="fill-rule:nonzero;"/>
                    </g>
                    <g transform="matrix(66.6667,0,0,66.6667,837.664,1776)">
                        <path d="M0.306,-0.002C0.314,-0.007 0.321,-0.013 0.326,-0.018C0.331,-0.024 0.336,-0.029 0.341,-0.032C0.347,-0.038 0.354,-0.041 0.361,-0.041C0.371,-0.041 0.38,-0.033 0.38,-0.021C0.38,-0.018 0.38,-0.015 0.379,-0.012C0.379,-0.011 0.378,-0.01 0.378,-0.009C0.378,-0 0.388,0.001 0.416,0.003L0.421,0.003C0.436,0.003 0.439,-0.001 0.441,-0.005L0.441,-0.202C0.441,-0.235 0.44,-0.27 0.44,-0.302C0.44,-0.318 0.44,-0.333 0.441,-0.347L0.441,-0.352C0.441,-0.378 0.428,-0.379 0.411,-0.379L0.401,-0.379C0.389,-0.379 0.383,-0.378 0.383,-0.371C0.383,-0.366 0.384,-0.362 0.384,-0.359C0.384,-0.343 0.378,-0.329 0.366,-0.325C0.364,-0.324 0.363,-0.324 0.361,-0.324C0.354,-0.324 0.345,-0.329 0.336,-0.337C0.327,-0.345 0.32,-0.354 0.312,-0.362C0.301,-0.376 0.26,-0.388 0.222,-0.388C0.166,-0.388 0.102,-0.352 0.071,-0.309C0.049,-0.277 0.041,-0.227 0.037,-0.186L0.037,-0.178C0.037,-0.139 0.06,-0.076 0.085,-0.045C0.111,-0.012 0.155,0.018 0.229,0.018C0.265,0.018 0.289,0.009 0.306,-0.002ZM0.383,-0.186C0.38,-0.144 0.366,-0.094 0.331,-0.068C0.304,-0.047 0.283,-0.042 0.252,-0.042C0.246,-0.042 0.24,-0.043 0.232,-0.043C0.187,-0.046 0.149,-0.066 0.133,-0.092C0.12,-0.116 0.111,-0.147 0.111,-0.182L0.111,-0.191C0.113,-0.227 0.128,-0.288 0.147,-0.302C0.161,-0.313 0.204,-0.331 0.24,-0.331C0.246,-0.331 0.252,-0.331 0.258,-0.33L0.281,-0.325C0.285,-0.325 0.285,-0.324 0.286,-0.324C0.292,-0.322 0.301,-0.321 0.307,-0.318C0.325,-0.312 0.342,-0.301 0.355,-0.279L0.37,-0.253C0.371,-0.246 0.377,-0.239 0.38,-0.233C0.383,-0.225 0.385,-0.216 0.385,-0.206C0.385,-0.2 0.384,-0.193 0.383,-0.186Z" style="fill-rule:nonzero;"/>
                    </g>
                    <g transform="matrix(66.6667,0,0,66.6667,888.864,1776)">
                        <path d="M0.296,-0.114C0.296,-0.146 0.274,-0.17 0.254,-0.19C0.238,-0.206 0.177,-0.239 0.156,-0.249C0.133,-0.259 0.111,-0.276 0.111,-0.301C0.111,-0.326 0.131,-0.336 0.156,-0.336L0.165,-0.336C0.197,-0.335 0.214,-0.324 0.238,-0.304C0.246,-0.297 0.25,-0.296 0.252,-0.296C0.255,-0.296 0.257,-0.298 0.259,-0.3L0.266,-0.308C0.268,-0.311 0.271,-0.314 0.272,-0.317C0.275,-0.321 0.276,-0.325 0.276,-0.328C0.276,-0.332 0.275,-0.336 0.271,-0.341C0.257,-0.356 0.216,-0.384 0.156,-0.386L0.149,-0.386C0.132,-0.386 0.123,-0.384 0.116,-0.381C0.108,-0.377 0.102,-0.371 0.096,-0.365C0.082,-0.354 0.065,-0.334 0.063,-0.311C0.063,-0.307 0.062,-0.303 0.062,-0.3C0.062,-0.277 0.067,-0.258 0.081,-0.24C0.097,-0.218 0.133,-0.196 0.171,-0.18C0.211,-0.164 0.249,-0.133 0.249,-0.1C0.249,-0.066 0.221,-0.046 0.177,-0.043C0.174,-0.043 0.171,-0.042 0.169,-0.042C0.126,-0.042 0.096,-0.078 0.089,-0.092C0.087,-0.099 0.079,-0.103 0.073,-0.103C0.069,-0.103 0.063,-0.101 0.056,-0.1C0.041,-0.096 0.036,-0.084 0.036,-0.072C0.036,-0.068 0.036,-0.063 0.039,-0.059C0.046,-0.046 0.072,-0.026 0.096,-0.011C0.118,0.001 0.157,0.009 0.184,0.009C0.208,0.009 0.237,-0.009 0.263,-0.026C0.285,-0.041 0.295,-0.081 0.296,-0.114Z" style="fill-rule:nonzero;"/>
                    </g>
                    <g transform="matrix(66.6667,0,0,66.6667,910.931,1776)">
                        <path d="M0.168,-0.014C0.168,-0.029 0.162,-0.086 0.158,-0.11C0.156,-0.122 0.156,-0.17 0.156,-0.22L0.156,-0.357C0.156,-0.42 0.16,-0.543 0.164,-0.598L0.164,-0.608C0.164,-0.645 0.146,-0.647 0.126,-0.65L0.121,-0.65C0.107,-0.65 0.091,-0.646 0.091,-0.641C0.091,-0.633 0.093,-0.588 0.095,-0.565C0.096,-0.553 0.096,-0.505 0.096,-0.453L0.096,-0.321C0.097,-0.306 0.097,-0.281 0.097,-0.253C0.097,-0.182 0.096,-0.086 0.093,-0.041C0.092,-0.036 0.092,-0.032 0.092,-0.028C0.092,-0.007 0.098,0.001 0.104,0.004C0.108,0.008 0.116,0.009 0.122,0.009C0.128,0.009 0.134,0.008 0.139,0.008C0.165,0.006 0.168,-0.003 0.168,-0.014Z" style="fill-rule:nonzero;"/>
                    </g>
                    <g transform="matrix(66.6667,0,0,66.6667,927.264,1776)">
                        <path d="M0.437,-0.197C0.437,-0.198 0.438,-0.199 0.438,-0.201C0.438,-0.202 0.437,-0.205 0.437,-0.208L0.433,-0.229C0.426,-0.261 0.391,-0.314 0.365,-0.345C0.339,-0.373 0.289,-0.39 0.247,-0.392L0.236,-0.392C0.193,-0.392 0.159,-0.371 0.124,-0.348L0.116,-0.343C0.078,-0.32 0.051,-0.244 0.049,-0.184L0.049,-0.181C0.049,-0.124 0.092,-0.061 0.126,-0.023C0.159,0.012 0.227,0.013 0.261,0.013C0.293,0.013 0.319,0.005 0.336,-0.004C0.343,-0.008 0.353,-0.016 0.365,-0.026C0.376,-0.036 0.388,-0.046 0.401,-0.056C0.411,-0.063 0.416,-0.071 0.416,-0.079C0.416,-0.088 0.411,-0.097 0.396,-0.109C0.391,-0.113 0.386,-0.115 0.383,-0.115C0.378,-0.115 0.375,-0.112 0.371,-0.109C0.364,-0.101 0.359,-0.091 0.355,-0.081C0.347,-0.063 0.307,-0.043 0.257,-0.043L0.249,-0.043C0.216,-0.044 0.188,-0.054 0.163,-0.074L0.148,-0.086C0.132,-0.1 0.116,-0.14 0.116,-0.165L0.116,-0.172C0.119,-0.184 0.143,-0.191 0.173,-0.192C0.198,-0.192 0.226,-0.191 0.241,-0.191C0.262,-0.191 0.32,-0.19 0.365,-0.19C0.388,-0.19 0.408,-0.19 0.419,-0.191C0.436,-0.191 0.437,-0.195 0.437,-0.197ZM0.366,-0.263C0.369,-0.258 0.37,-0.254 0.37,-0.25C0.37,-0.239 0.361,-0.232 0.343,-0.232C0.304,-0.232 0.261,-0.231 0.244,-0.231C0.226,-0.231 0.173,-0.232 0.162,-0.235C0.151,-0.236 0.127,-0.249 0.127,-0.267C0.127,-0.273 0.129,-0.279 0.134,-0.285C0.15,-0.307 0.194,-0.337 0.246,-0.337L0.25,-0.337C0.297,-0.335 0.313,-0.321 0.336,-0.299C0.346,-0.289 0.36,-0.276 0.366,-0.263Z" style="fill-rule:nonzero;"/>
                    </g>
                    <g transform="matrix(66.6667,0,0,66.6667,958.998,1776)">
                        <path d="M0.437,-0.197C0.437,-0.198 0.438,-0.199 0.438,-0.201C0.438,-0.202 0.437,-0.205 0.437,-0.208L0.433,-0.229C0.426,-0.261 0.391,-0.314 0.365,-0.345C0.339,-0.373 0.289,-0.39 0.247,-0.392L0.236,-0.392C0.193,-0.392 0.159,-0.371 0.124,-0.348L0.116,-0.343C0.078,-0.32 0.051,-0.244 0.049,-0.184L0.049,-0.181C0.049,-0.124 0.092,-0.061 0.126,-0.023C0.159,0.012 0.227,0.013 0.261,0.013C0.293,0.013 0.319,0.005 0.336,-0.004C0.343,-0.008 0.353,-0.016 0.365,-0.026C0.376,-0.036 0.388,-0.046 0.401,-0.056C0.411,-0.063 0.416,-0.071 0.416,-0.079C0.416,-0.088 0.411,-0.097 0.396,-0.109C0.391,-0.113 0.386,-0.115 0.383,-0.115C0.378,-0.115 0.375,-0.112 0.371,-0.109C0.364,-0.101 0.359,-0.091 0.355,-0.081C0.347,-0.063 0.307,-0.043 0.257,-0.043L0.249,-0.043C0.216,-0.044 0.188,-0.054 0.163,-0.074L0.148,-0.086C0.132,-0.1 0.116,-0.14 0.116,-0.165L0.116,-0.172C0.119,-0.184 0.143,-0.191 0.173,-0.192C0.198,-0.192 0.226,-0.191 0.241,-0.191C0.262,-0.191 0.32,-0.19 0.365,-0.19C0.388,-0.19 0.408,-0.19 0.419,-0.191C0.436,-0.191 0.437,-0.195 0.437,-0.197ZM0.366,-0.263C0.369,-0.258 0.37,-0.254 0.37,-0.25C0.37,-0.239 0.361,-0.232 0.343,-0.232C0.304,-0.232 0.261,-0.231 0.244,-0.231C0.226,-0.231 0.173,-0.232 0.162,-0.235C0.151,-0.236 0.127,-0.249 0.127,-0.267C0.127,-0.273 0.129,-0.279 0.134,-0.285C0.15,-0.307 0.194,-0.337 0.246,-0.337L0.25,-0.337C0.297,-0.335 0.313,-0.321 0.336,-0.299C0.346,-0.289 0.36,-0.276 0.366,-0.263Z" style="fill-rule:nonzero;"/>
                    </g>
                    <g transform="matrix(66.6667,0,0,66.6667,990.731,1776)">
                        <path d="M0.471,-0.196L0.471,-0.204C0.471,-0.257 0.44,-0.304 0.414,-0.336C0.389,-0.366 0.332,-0.389 0.283,-0.391C0.237,-0.391 0.194,-0.362 0.165,-0.333C0.157,-0.326 0.151,-0.322 0.146,-0.322C0.141,-0.322 0.137,-0.325 0.135,-0.328C0.132,-0.332 0.131,-0.341 0.131,-0.353L0.131,-0.366C0.131,-0.38 0.124,-0.381 0.101,-0.383L0.097,-0.383C0.079,-0.383 0.074,-0.371 0.074,-0.356C0.074,-0.346 0.076,-0.336 0.077,-0.328C0.08,-0.306 0.082,-0.178 0.082,-0.101C0.082,-0.078 0.082,-0.061 0.081,-0.05C0.079,-0.001 0.077,0.129 0.073,0.166C0.073,0.169 0.072,0.17 0.072,0.172C0.072,0.193 0.086,0.2 0.105,0.2C0.107,0.2 0.11,0.199 0.113,0.199C0.138,0.198 0.146,0.189 0.146,0.184L0.146,0.179C0.146,0.172 0.146,0.163 0.145,0.151C0.143,0.137 0.141,0.12 0.141,0.107C0.14,0.1 0.14,0.093 0.14,0.084L0.14,0.069C0.14,0.049 0.14,0.029 0.136,0.006C0.135,-0.003 0.134,-0.011 0.134,-0.017C0.134,-0.04 0.141,-0.05 0.157,-0.052L0.161,-0.052C0.169,-0.052 0.176,-0.046 0.181,-0.041C0.188,-0.035 0.193,-0.027 0.198,-0.02C0.208,-0.007 0.218,0.004 0.29,0.004C0.325,0.004 0.346,-0.002 0.364,-0.012C0.372,-0.017 0.381,-0.023 0.389,-0.03L0.417,-0.052C0.455,-0.081 0.471,-0.138 0.471,-0.196ZM0.415,-0.188L0.412,-0.148C0.408,-0.111 0.398,-0.095 0.366,-0.072C0.346,-0.057 0.333,-0.051 0.321,-0.047C0.315,-0.046 0.309,-0.046 0.302,-0.046C0.301,-0.046 0.298,-0.045 0.296,-0.045C0.291,-0.045 0.287,-0.046 0.281,-0.046C0.248,-0.046 0.216,-0.05 0.185,-0.075C0.153,-0.1 0.133,-0.147 0.133,-0.198C0.133,-0.25 0.156,-0.291 0.193,-0.315C0.202,-0.32 0.209,-0.325 0.216,-0.328L0.233,-0.336C0.245,-0.341 0.256,-0.341 0.274,-0.341C0.315,-0.341 0.349,-0.325 0.368,-0.303C0.372,-0.298 0.378,-0.293 0.383,-0.286C0.389,-0.28 0.395,-0.272 0.4,-0.263C0.408,-0.247 0.415,-0.226 0.415,-0.201L0.415,-0.188Z" style="fill-rule:nonzero;"/>
                    </g>
                    <g transform="matrix(66.6667,0,0,66.6667,1026.06,1776)">
                        <path d="M0.166,-0.514C0.165,-0.541 0.141,-0.566 0.116,-0.569L0.109,-0.569C0.083,-0.569 0.065,-0.553 0.063,-0.53C0.064,-0.499 0.091,-0.474 0.12,-0.474C0.15,-0.474 0.162,-0.491 0.166,-0.514ZM0.154,-0.033C0.151,-0.056 0.142,-0.143 0.142,-0.186C0.142,-0.206 0.141,-0.226 0.141,-0.247C0.141,-0.274 0.142,-0.302 0.145,-0.336C0.145,-0.342 0.146,-0.347 0.146,-0.352C0.146,-0.384 0.136,-0.386 0.12,-0.386C0.094,-0.386 0.088,-0.38 0.088,-0.362C0.088,-0.359 0.089,-0.356 0.089,-0.351C0.091,-0.321 0.093,-0.237 0.093,-0.194C0.093,-0.151 0.085,-0.075 0.085,-0.038C0.085,-0.003 0.087,0.003 0.117,0.003C0.145,0.003 0.155,-0.01 0.155,-0.026C0.155,-0.028 0.154,-0.031 0.154,-0.033Z" style="fill-rule:nonzero;"/>
                    </g>
                    <g transform="matrix(66.6667,0,0,66.6667,1042.4,1776)">
                        <path d="M0.411,-0.05C0.408,-0.076 0.405,-0.158 0.405,-0.216C0.405,-0.228 0.406,-0.24 0.406,-0.249L0.406,-0.253C0.406,-0.299 0.382,-0.339 0.368,-0.356C0.354,-0.374 0.324,-0.391 0.285,-0.392L0.278,-0.392C0.245,-0.392 0.225,-0.38 0.191,-0.348C0.177,-0.335 0.166,-0.331 0.159,-0.33C0.153,-0.33 0.15,-0.333 0.148,-0.336C0.146,-0.341 0.145,-0.347 0.145,-0.353C0.145,-0.359 0.145,-0.364 0.146,-0.369C0.146,-0.386 0.13,-0.389 0.118,-0.389C0.107,-0.389 0.088,-0.388 0.084,-0.379C0.083,-0.376 0.082,-0.372 0.082,-0.367C0.083,-0.361 0.084,-0.356 0.084,-0.349C0.086,-0.321 0.098,-0.258 0.098,-0.217C0.098,-0.176 0.096,-0.126 0.088,-0.06C0.086,-0.048 0.086,-0.039 0.086,-0.031C0.086,-0.002 0.096,0.004 0.119,0.004C0.122,0.004 0.126,0.003 0.131,0.003C0.151,0.002 0.155,-0.004 0.156,-0.007L0.156,-0.014C0.156,-0.021 0.155,-0.029 0.154,-0.034C0.15,-0.056 0.146,-0.136 0.146,-0.171C0.146,-0.204 0.151,-0.259 0.172,-0.288C0.194,-0.318 0.227,-0.335 0.257,-0.335L0.271,-0.335C0.277,-0.335 0.284,-0.335 0.29,-0.333C0.301,-0.331 0.311,-0.325 0.325,-0.314C0.342,-0.301 0.349,-0.284 0.352,-0.263C0.354,-0.251 0.354,-0.237 0.354,-0.222L0.354,-0.19C0.354,-0.133 0.346,-0.101 0.342,-0.045C0.342,-0.041 0.341,-0.036 0.341,-0.033C0.341,0.004 0.358,0.005 0.388,0.005C0.409,0.005 0.414,-0.006 0.414,-0.022C0.414,-0.031 0.412,-0.041 0.411,-0.05Z" style="fill-rule:nonzero;"/>
                    </g>
                    <g transform="matrix(66.6667,0,0,66.6667,1074.66,1776)">
                        <path d="M0.437,-0.197C0.437,-0.198 0.438,-0.199 0.438,-0.201C0.438,-0.202 0.437,-0.205 0.437,-0.208L0.433,-0.229C0.426,-0.261 0.391,-0.314 0.365,-0.345C0.339,-0.373 0.289,-0.39 0.247,-0.392L0.236,-0.392C0.193,-0.392 0.159,-0.371 0.124,-0.348L0.116,-0.343C0.078,-0.32 0.051,-0.244 0.049,-0.184L0.049,-0.181C0.049,-0.124 0.092,-0.061 0.126,-0.023C0.159,0.012 0.227,0.013 0.261,0.013C0.293,0.013 0.319,0.005 0.336,-0.004C0.343,-0.008 0.353,-0.016 0.365,-0.026C0.376,-0.036 0.388,-0.046 0.401,-0.056C0.411,-0.063 0.416,-0.071 0.416,-0.079C0.416,-0.088 0.411,-0.097 0.396,-0.109C0.391,-0.113 0.386,-0.115 0.383,-0.115C0.378,-0.115 0.375,-0.112 0.371,-0.109C0.364,-0.101 0.359,-0.091 0.355,-0.081C0.347,-0.063 0.307,-0.043 0.257,-0.043L0.249,-0.043C0.216,-0.044 0.188,-0.054 0.163,-0.074L0.148,-0.086C0.132,-0.1 0.116,-0.14 0.116,-0.165L0.116,-0.172C0.119,-0.184 0.143,-0.191 0.173,-0.192C0.198,-0.192 0.226,-0.191 0.241,-0.191C0.262,-0.191 0.32,-0.19 0.365,-0.19C0.388,-0.19 0.408,-0.19 0.419,-0.191C0.436,-0.191 0.437,-0.195 0.437,-0.197ZM0.366,-0.263C0.369,-0.258 0.37,-0.254 0.37,-0.25C0.37,-0.239 0.361,-0.232 0.343,-0.232C0.304,-0.232 0.261,-0.231 0.244,-0.231C0.226,-0.231 0.173,-0.232 0.162,-0.235C0.151,-0.236 0.127,-0.249 0.127,-0.267C0.127,-0.273 0.129,-0.279 0.134,-0.285C0.15,-0.307 0.194,-0.337 0.246,-0.337L0.25,-0.337C0.297,-0.335 0.313,-0.321 0.336,-0.299C0.346,-0.289 0.36,-0.276 0.366,-0.263Z" style="fill-rule:nonzero;"/>
                    </g>
                    <g transform="matrix(66.6667,0,0,66.6667,1106.4,1776)">
                        <path d="M0.296,-0.114C0.296,-0.146 0.274,-0.17 0.254,-0.19C0.238,-0.206 0.177,-0.239 0.156,-0.249C0.133,-0.259 0.111,-0.276 0.111,-0.301C0.111,-0.326 0.131,-0.336 0.156,-0.336L0.165,-0.336C0.197,-0.335 0.214,-0.324 0.238,-0.304C0.246,-0.297 0.25,-0.296 0.252,-0.296C0.255,-0.296 0.257,-0.298 0.259,-0.3L0.266,-0.308C0.268,-0.311 0.271,-0.314 0.272,-0.317C0.275,-0.321 0.276,-0.325 0.276,-0.328C0.276,-0.332 0.275,-0.336 0.271,-0.341C0.257,-0.356 0.216,-0.384 0.156,-0.386L0.149,-0.386C0.132,-0.386 0.123,-0.384 0.116,-0.381C0.108,-0.377 0.102,-0.371 0.096,-0.365C0.082,-0.354 0.065,-0.334 0.063,-0.311C0.063,-0.307 0.062,-0.303 0.062,-0.3C0.062,-0.277 0.067,-0.258 0.081,-0.24C0.097,-0.218 0.133,-0.196 0.171,-0.18C0.211,-0.164 0.249,-0.133 0.249,-0.1C0.249,-0.066 0.221,-0.046 0.177,-0.043C0.174,-0.043 0.171,-0.042 0.169,-0.042C0.126,-0.042 0.096,-0.078 0.089,-0.092C0.087,-0.099 0.079,-0.103 0.073,-0.103C0.069,-0.103 0.063,-0.101 0.056,-0.1C0.041,-0.096 0.036,-0.084 0.036,-0.072C0.036,-0.068 0.036,-0.063 0.039,-0.059C0.046,-0.046 0.072,-0.026 0.096,-0.011C0.118,0.001 0.157,0.009 0.184,0.009C0.208,0.009 0.237,-0.009 0.263,-0.026C0.285,-0.041 0.295,-0.081 0.296,-0.114Z" style="fill-rule:nonzero;"/>
                    </g>
                    <g transform="matrix(66.6667,0,0,66.6667,1128.46,1776)">
                        <path d="M0.296,-0.114C0.296,-0.146 0.274,-0.17 0.254,-0.19C0.238,-0.206 0.177,-0.239 0.156,-0.249C0.133,-0.259 0.111,-0.276 0.111,-0.301C0.111,-0.326 0.131,-0.336 0.156,-0.336L0.165,-0.336C0.197,-0.335 0.214,-0.324 0.238,-0.304C0.246,-0.297 0.25,-0.296 0.252,-0.296C0.255,-0.296 0.257,-0.298 0.259,-0.3L0.266,-0.308C0.268,-0.311 0.271,-0.314 0.272,-0.317C0.275,-0.321 0.276,-0.325 0.276,-0.328C0.276,-0.332 0.275,-0.336 0.271,-0.341C0.257,-0.356 0.216,-0.384 0.156,-0.386L0.149,-0.386C0.132,-0.386 0.123,-0.384 0.116,-0.381C0.108,-0.377 0.102,-0.371 0.096,-0.365C0.082,-0.354 0.065,-0.334 0.063,-0.311C0.063,-0.307 0.062,-0.303 0.062,-0.3C0.062,-0.277 0.067,-0.258 0.081,-0.24C0.097,-0.218 0.133,-0.196 0.171,-0.18C0.211,-0.164 0.249,-0.133 0.249,-0.1C0.249,-0.066 0.221,-0.046 0.177,-0.043C0.174,-0.043 0.171,-0.042 0.169,-0.042C0.126,-0.042 0.096,-0.078 0.089,-0.092C0.087,-0.099 0.079,-0.103 0.073,-0.103C0.069,-0.103 0.063,-0.101 0.056,-0.1C0.041,-0.096 0.036,-0.084 0.036,-0.072C0.036,-0.068 0.036,-0.063 0.039,-0.059C0.046,-0.046 0.072,-0.026 0.096,-0.011C0.118,0.001 0.157,0.009 0.184,0.009C0.208,0.009 0.237,-0.009 0.263,-0.026C0.285,-0.041 0.295,-0.081 0.296,-0.114Z" style="fill-rule:nonzero;"/>
                    </g>
                </g>
                <g id="CROW" transform="matrix(1.11917,0,0,0.858708,-546.537,-630.224)">
                    <path d="M1248.41,1016.25C1248.13,1018.43 1248.17,1020.63 1247.97,1022.82C1247.78,1024.82 1247.5,1026.82 1247.24,1028.81C1247.01,1030.52 1246.72,1032.21 1246.51,1033.92C1246.28,1035.72 1246.26,1037.54 1245.92,1039.32C1245.63,1040.87 1245.06,1042.35 1244.61,1043.85C1244.14,1045.41 1243.6,1046.96 1243.15,1048.52C1242.67,1050.17 1241.99,1051.79 1241.84,1053.49C1241.64,1055.62 1241.97,1057.78 1242.13,1059.91C1242.26,1061.72 1242.24,1063.57 1242.71,1065.32C1243.05,1066.55 1243.94,1067.56 1244.51,1068.7C1244.91,1069.48 1245.21,1070.31 1245.62,1071.09C1246.17,1072.13 1247.05,1073.03 1247.41,1074.15C1247.84,1075.52 1247.8,1076.99 1247.92,1078.41C1248.06,1080.14 1248,1081.88 1248.17,1083.61C1248.37,1085.55 1248.74,1087.47 1249.02,1089.4C1249.37,1091.73 1249.44,1094.11 1250.04,1096.39C1250.39,1097.68 1251.03,1098.9 1251.83,1099.97C1252.05,1100.26 1251.9,1099.23 1251.92,1098.86C1251.96,1097.84 1251.94,1096.81 1252,1095.79C1252.11,1093.94 1252.12,1092.08 1252.43,1090.25C1252.61,1089.17 1253.08,1088.14 1253.45,1087.1C1253.99,1085.59 1254.55,1084.08 1255.15,1082.59C1255.6,1081.47 1256.1,1080.37 1256.6,1079.27C1257.01,1078.35 1257.45,1077.45 1257.87,1076.54C1258.61,1077.87 1259.41,1079.18 1260.08,1080.54C1260.88,1082.16 1261.48,1083.88 1262.3,1085.48C1263.04,1086.95 1263.89,1088.35 1264.76,1089.74C1265.85,1091.48 1266.45,1091.81 1267.59,1093.51C1267.98,1094.11 1268.38,1094.7 1268.78,1095.3C1267.83,1092.39 1267.4,1090.12 1266.89,1087.19C1266.5,1084.92 1266.1,1082.65 1265.79,1080.37C1265.53,1078.53 1265.28,1076.69 1265.19,1074.84C1265.11,1073.22 1265.14,1071.59 1265.27,1069.98C1265.42,1068.18 1265.67,1066.38 1266.04,1064.61C1266.43,1062.77 1266.92,1060.93 1267.57,1059.16C1268.15,1057.57 1269,1056.1 1269.7,1054.56C1270.7,1052.38 1271.79,1050.23 1272.68,1048C1273.72,1045.4 1274.34,1042.63 1275.48,1040.08C1275.88,1039.19 1276.51,1038.37 1277.27,1037.78C1277.84,1037.34 1278.6,1037.12 1279.31,1037.1C1280.21,1037.07 1281.08,1037.4 1281.95,1037.61C1282.78,1037.8 1283.61,1038.03 1284.42,1038.29C1285.62,1038.68 1286.78,1039.22 1287.99,1039.57C1289.39,1039.96 1290.8,1040.34 1292.25,1040.5C1294.02,1040.71 1295.82,1040.69 1297.61,1040.67C1299.28,1040.66 1300.95,1040.51 1302.62,1040.42C1303.96,1040.34 1305.29,1040.09 1306.62,1040.16C1307.25,1040.2 1307.9,1040.4 1308.41,1040.76C1309.02,1041.19 1309.43,1041.85 1309.86,1042.46C1310.52,1043.42 1311.04,1044.45 1311.64,1045.45C1312.09,1046.19 1312.71,1046.85 1313.01,1047.66C1313.26,1048.36 1313.22,1049.13 1313.26,1049.88C1313.3,1050.53 1313.4,1051.2 1313.26,1051.83C1313.14,1052.39 1312.89,1052.95 1312.5,1053.37C1310.66,1055.3 1308.55,1056.96 1306.62,1058.82C1304.63,1060.74 1302.71,1062.74 1300.75,1064.7C1299.48,1065.95 1298.15,1067.15 1296.92,1068.45C1296.25,1069.16 1295.72,1070.02 1295.05,1070.75C1294.64,1071.19 1294.19,1071.6 1293.69,1071.94C1293.28,1072.23 1292.83,1072.52 1292.33,1072.62C1291.5,1072.78 1290.62,1072.55 1289.78,1072.71C1289.2,1072.81 1288.69,1073.14 1288.16,1073.39C1287.76,1073.57 1287.4,1073.88 1286.97,1073.98C1286.31,1074.14 1285.61,1074.07 1284.93,1074.15C1284.3,1074.24 1283.61,1074.17 1283.06,1074.49C1282.52,1074.81 1282.14,1075.38 1281.87,1075.94C1281.61,1076.46 1281.64,1077.08 1281.53,1077.65C1280.99,1077.79 1280.44,1077.91 1279.91,1078.07C1279.42,1078.22 1278.91,1078.34 1278.46,1078.58C1277.91,1078.88 1277.37,1079.24 1276.93,1079.69C1276.45,1080.19 1275.99,1080.75 1275.74,1081.39C1275.52,1081.95 1275.63,1082.59 1275.57,1083.18C1276,1082.56 1276.38,1081.9 1276.87,1081.32C1277.17,1080.95 1277.5,1080.55 1277.95,1080.38C1278.7,1080.08 1279.55,1080.09 1280.35,1079.95C1280.39,1080.17 1280.45,1080.39 1280.49,1080.61C1280.59,1081.18 1280.53,1081.79 1280.77,1082.31C1281.04,1082.89 1281.59,1083.31 1281.99,1083.82C1281.95,1083.3 1281.77,1082.78 1281.85,1082.26C1281.9,1081.96 1282.2,1081.76 1282.37,1081.51C1282.37,1081.51 1282.98,1081.13 1283.4,1081.13C1283.83,1081.13 1284.24,1080.91 1284.35,1081.08C1284.45,1081.26 1284.75,1081.77 1284.96,1082.12C1285.29,1082.54 1285.62,1082.97 1285.94,1083.39C1285.84,1082.89 1285.73,1082.39 1285.62,1081.88C1285.65,1081.54 1285.68,1081.19 1285.71,1080.85C1285.71,1080.85 1285.85,1080.42 1286.46,1080.38C1287.07,1080.33 1288.02,1080.33 1288.02,1080.33C1288.02,1080.33 1288.67,1081.98 1289.24,1082.03C1289.8,1082.07 1290.84,1081.79 1290.84,1081.79C1290.84,1081.79 1292.11,1080.66 1292.43,1080.52C1292.77,1080.38 1294.08,1079.77 1294.41,1079.77L1295.59,1079.77C1295.76,1080.03 1295.93,1080.3 1296.11,1080.57C1296.12,1080 1296.14,1079.43 1296.15,1078.87C1296.53,1078.53 1296.9,1078.18 1297.28,1077.83C1298.02,1077.57 1298.76,1077.3 1299.49,1077.03C1299.49,1077.03 1301.94,1077.08 1302.36,1076.99C1302.79,1076.89 1303.87,1076.14 1303.87,1076.14C1304.45,1075.87 1305.03,1075.61 1305.61,1075.34C1305.61,1075.34 1307.44,1074.82 1307.77,1074.82C1308.1,1074.82 1309.09,1075.2 1309.51,1075.57C1309.93,1075.95 1310.92,1075.9 1310.92,1075.9C1311.41,1075.51 1311.89,1075.12 1312.38,1074.72C1312.38,1074.72 1313.56,1074.3 1313.89,1074.25C1314.21,1074.21 1316.47,1074.68 1316.47,1074.68C1317.12,1074.99 1317.82,1075.2 1318.4,1075.62C1318.76,1075.88 1319.13,1076.22 1319.25,1076.66C1319.39,1077.17 1319.15,1077.72 1319.11,1078.26C1319.39,1077.69 1319.6,1077.08 1319.95,1076.56C1320.15,1076.27 1320.56,1076.16 1320.75,1075.86C1321.04,1075.4 1320.92,1074.65 1321.37,1074.35C1321.77,1074.07 1322.36,1074.3 1322.82,1074.44C1323.63,1074.7 1324.44,1075.03 1325.13,1075.53C1325.62,1075.88 1326.03,1076.38 1326.26,1076.94C1326.5,1077.54 1326.41,1078.23 1326.49,1078.87C1326.73,1078.29 1327.08,1077.74 1327.2,1077.13C1327.32,1076.53 1327.39,1075.87 1327.2,1075.29C1326.95,1074.55 1326.43,1073.92 1325.93,1073.31C1325.51,1072.81 1325.02,1072.36 1324.47,1071.99C1323.89,1071.61 1323.27,1071.24 1322.59,1071.1C1321.62,1070.9 1320.61,1071.1 1319.62,1071C1318.58,1070.91 1317.56,1070.66 1316.52,1070.54C1315.67,1070.43 1314.82,1070.45 1313.98,1070.3C1313.35,1070.18 1312.65,1070.13 1312.15,1069.73C1311.88,1069.53 1311.85,1069.04 1312,1068.74C1312.2,1068.38 1312.73,1068.36 1313.04,1068.09C1314.38,1066.91 1315.64,1065.64 1316.94,1064.41C1318.89,1062.75 1320.8,1061.05 1322.78,1059.42C1324.27,1058.19 1325.8,1057.01 1327.34,1055.84C1328.2,1055.19 1329.2,1054.71 1329.97,1053.96C1330.48,1053.46 1330.74,1052.77 1331.1,1052.17C1331.39,1051.69 1331.64,1051.18 1331.95,1050.71C1332.22,1050.3 1332.63,1049.97 1332.84,1049.53C1333.03,1049.14 1333.12,1048.69 1333.12,1048.26C1333.13,1047.62 1333.12,1046.96 1332.89,1046.37C1332.61,1045.66 1332.03,1045.1 1331.62,1044.44C1331.15,1043.68 1330.71,1042.9 1330.26,1042.13C1329.85,1041.46 1329.38,1040.82 1329.03,1040.11C1328.88,1039.79 1328.82,1039.44 1328.77,1039.09C1328.71,1038.71 1328.73,1038.32 1328.7,1037.93C1328.54,1038.65 1329.91,1039.6 1331.09,1041C1330.46,1039.93 1329.9,1038.86 1330.07,1037.79C1330.77,1038.43 1331.83,1039.29 1333.06,1040.25C1332.06,1039.25 1330.94,1038.25 1331.94,1037.25C1332.93,1036.25 1332.76,1037.15 1333.23,1037.32C1333.71,1037.49 1334.62,1037.39 1335.14,1038.07C1335.66,1038.75 1337.2,1039.33 1339.02,1039.87C1338.85,1039.19 1338.68,1038.51 1338.51,1037.83C1339.47,1038.68 1341.96,1039.13 1344.88,1039.46C1343.65,1038.58 1342.31,1037.69 1342.8,1036.81C1344,1037.62 1345.11,1037.98 1346.24,1038.41C1344.42,1037.2 1343.13,1035.8 1343.01,1033.94C1343.73,1033.8 1344.46,1033.71 1345.17,1033.52C1345.83,1033.34 1346.45,1032.99 1347.12,1032.84C1347.6,1032.73 1348.12,1032.91 1348.57,1032.75C1349.11,1032.56 1349.52,1032.1 1350.02,1031.82C1350.46,1031.56 1350.9,1031.31 1351.38,1031.13C1352.46,1030.74 1353.54,1030.22 1354.7,1030.11C1355.94,1029.99 1357.19,1030.35 1358.44,1030.45C1359.57,1030.55 1360.8,1030.26 1361.84,1030.71C1363.2,1031.29 1364.13,1032.58 1365.33,1033.43C1367.7,1035.11 1370.11,1036.74 1372.56,1038.29C1374.73,1039.66 1376.95,1040.97 1379.2,1042.21C1381.43,1043.44 1383.68,1044.66 1386.01,1045.7C1388.25,1046.71 1390.58,1047.51 1392.9,1048.34C1394.87,1049.05 1396.87,1049.64 1398.86,1050.3C1400.9,1050.98 1402.93,1051.7 1404.98,1052.35C1406.36,1052.78 1407.75,1053.16 1409.15,1053.54C1409.79,1053.71 1410.44,1053.85 1411.09,1054C1411.09,1054 1413.1,1054.96 1413.3,1055.05C1413.51,1055.13 1415.73,1056.51 1415.73,1056.51C1416.16,1056.76 1416.54,1057.12 1417.03,1057.27C1417.18,1057.31 1417.37,1057.17 1417.46,1057.03C1417.54,1056.9 1417.52,1056.71 1417.46,1056.57C1417.35,1056.3 1417.16,1056.06 1416.98,1055.83C1416.35,1054.99 1415.68,1054.18 1415.04,1053.35C1415.83,1053.72 1416.62,1054.09 1417.41,1054.46C1417.41,1054.46 1419.07,1055.59 1419.31,1055.76C1419.55,1055.92 1421.23,1056.6 1421.23,1056.6C1421.62,1056.7 1422,1056.92 1422.4,1056.91C1422.67,1056.9 1422.94,1056.74 1423.12,1056.55C1423.31,1056.35 1423.53,1056.07 1423.46,1055.8C1423.3,1055.2 1422.86,1054.7 1422.5,1054.19C1422,1053.49 1421.46,1052.82 1420.89,1052.17C1420.04,1051.21 1419.13,1050.32 1418.25,1049.38C1419.56,1049.91 1420.86,1050.44 1422.16,1050.97C1422.16,1050.97 1425.04,1052.68 1425.19,1052.68C1425.33,1052.68 1427.42,1052.94 1427.42,1052.94C1427.65,1052.84 1427.98,1052.85 1428.12,1052.63C1428.26,1052.4 1428.29,1052.02 1428.12,1051.81C1427.15,1050.68 1425.92,1049.79 1424.83,1048.79C1426.1,1049.32 1427.33,1049.99 1428.65,1050.39C1428.92,1050.48 1429.24,1050.35 1429.49,1050.2C1429.65,1050.11 1429.85,1049.91 1429.8,1049.72C1429.68,1049.27 1429.39,1048.87 1429.05,1048.54C1428.38,1047.89 1427.55,1047.41 1426.8,1046.84C1427.23,1046.91 1427.66,1047.11 1428.09,1047.05C1428.27,1047.03 1428.35,1046.79 1428.38,1046.62C1428.42,1046.46 1428.41,1046.25 1428.29,1046.14C1427.04,1045.11 1425.7,1044.19 1424.35,1043.3C1422.41,1042.04 1420.42,1040.84 1418.4,1039.69C1416.04,1038.35 1413.68,1036.99 1411.22,1035.84C1409.12,1034.87 1406.95,1034.01 1404.74,1033.33C1403.22,1032.87 1401.62,1032.74 1400.06,1032.45C1399.15,1032.29 1398.22,1032.27 1397.34,1031.99C1397.02,1031.89 1396.49,1031.7 1396.55,1031.37C1396.6,1031.07 1397.62,1031.59 1397.47,1031.33C1397.19,1030.85 1396.55,1030.69 1396.05,1030.49C1394.96,1030.05 1393.82,1029.75 1392.7,1029.4C1391.86,1029.13 1390.92,1029.09 1390.15,1028.65C1389.9,1028.5 1389.71,1028.01 1389.92,1027.81C1390.36,1027.41 1391.03,1027.3 1391.62,1027.3C1392.91,1027.3 1394.18,1027.62 1395.45,1027.81C1397.44,1028.11 1399.44,1028.32 1401.41,1028.75C1403.11,1029.12 1404.75,1029.73 1406.43,1030.2C1407.84,1030.58 1409.27,1030.91 1410.68,1031.3C1411.93,1031.65 1413.17,1032.04 1414.42,1032.41C1414.42,1032.41 1416.89,1033.09 1417.32,1033.26C1417.74,1033.43 1420.63,1034.2 1420.63,1034.2C1421.26,1034.43 1421.86,1034.74 1422.51,1034.88C1423.06,1035 1423.65,1035.08 1424.21,1034.97C1424.66,1034.88 1425.29,1034.73 1425.4,1034.29C1425.5,1033.87 1425,1033.49 1424.63,1033.26C1423.91,1032.81 1423.04,1032.65 1422.25,1032.33C1421.43,1031.99 1420.61,1031.65 1419.79,1031.3C1418.85,1030.91 1417.89,1030.57 1416.98,1030.11C1416.12,1029.68 1415.31,1029.17 1414.51,1028.66C1413.75,1028.18 1413.11,1027.52 1412.3,1027.13C1411.3,1026.65 1410.23,1026.35 1409.15,1026.11C1408.17,1025.89 1407.16,1025.92 1406.17,1025.77C1405.14,1025.61 1404.14,1025.28 1403.11,1025.17C1401.19,1024.97 1399.25,1024.9 1397.32,1024.83C1395.99,1024.78 1394.66,1024.86 1393.32,1024.83C1392.08,1024.8 1390.81,1024.89 1389.58,1024.66C1388.57,1024.46 1387.63,1023.97 1386.69,1023.55C1385.96,1023.23 1385.2,1022.92 1384.56,1022.44C1383.91,1021.97 1383.35,1021.38 1382.86,1020.74C1382.23,1019.92 1381.57,1019.08 1381.24,1018.1C1381.12,1017.73 1381.24,1017.17 1381.58,1016.99C1382.06,1016.74 1382.67,1016.96 1383.2,1017.08C1383.93,1017.25 1384.57,1017.79 1385.33,1017.84C1385.76,1017.88 1386.15,1017.56 1386.52,1017.33C1386.81,1017.15 1387.27,1016.99 1387.28,1016.65C1387.33,1015.78 1387.07,1014.88 1386.69,1014.1C1386.31,1013.31 1385.63,1012.72 1385.07,1012.05C1384.75,1011.67 1384.39,1011.31 1384.05,1010.94C1384.76,1011.09 1385.46,1011.44 1386.18,1011.37C1386.75,1011.32 1387.19,1010.85 1387.71,1010.6C1388.13,1010.4 1388.61,1010.28 1388.98,1010.01C1389.25,1009.82 1389.62,1009.56 1389.58,1009.24C1389.52,1008.66 1389.11,1008.15 1388.73,1007.71C1388.13,1007 1387.4,1006.42 1386.69,1005.83C1385.32,1004.69 1383.97,1003.53 1382.52,1002.51C1380.57,1001.14 1378.63,999.704 1376.48,998.676C1375.42,998.173 1374.19,998.18 1373.04,997.987C1371.81,997.78 1370.57,997.636 1369.33,997.472C1368.42,997.352 1367.49,997.332 1366.59,997.129C1365.96,996.987 1365.35,996.735 1364.77,996.444C1364.24,996.179 1363.87,995.566 1363.28,995.472C1361.44,995.175 1359.55,995.358 1357.69,995.3C1358.68,994.825 1359.62,994.248 1360.66,993.872C1361.88,993.426 1363.12,992.842 1364.42,992.842C1365.6,992.842 1366.68,993.481 1367.79,993.872C1369.07,994.32 1370.29,994.901 1371.56,995.358C1372.67,995.758 1373.82,996.042 1374.93,996.444C1375.88,996.786 1376.79,997.206 1377.73,997.586C1377.73,997.586 1379.72,998.159 1380.35,998.331C1380.98,998.501 1383.32,999.473 1383.32,999.473C1384.39,999.758 1385.44,1000.1 1386.52,1000.33C1387.29,1000.5 1388.07,1000.7 1388.86,1000.67C1389.34,1000.66 1389.87,1000.54 1390.23,1000.22C1390.58,999.895 1390.68,999.364 1390.8,998.902C1390.91,998.477 1391.14,997.965 1390.91,997.586C1390.27,996.483 1388.79,995.93 1388.35,994.729C1388.16,994.237 1389.05,993.952 1389.43,993.585C1389.83,993.19 1390.45,992.957 1390.68,992.442C1390.91,991.957 1390.81,991.361 1390.68,990.842C1390.55,990.286 1390.31,989.737 1389.94,989.298C1389.36,988.592 1388.55,988.1 1387.89,987.469C1387.17,986.785 1386.48,986.059 1385.78,985.354C1386.9,984.344 1388.13,983.442 1389.14,982.325C1389.7,981.711 1390.06,980.941 1390.46,980.209C1390.73,979.699 1391.01,979.174 1391.14,978.609C1391.28,978.034 1391.41,977.41 1391.26,976.836C1391.03,975.971 1390.56,975.177 1390.06,974.436C1389.67,973.868 1389.2,973.338 1388.63,972.95C1387.85,972.411 1386.92,972.112 1386.06,971.693C1386.9,970.625 1387.81,969.61 1388.57,968.491C1388.97,967.909 1389.38,967.293 1389.54,966.605C1389.73,965.789 1389.64,964.927 1389.6,964.089C1389.57,963.436 1389.63,962.721 1389.32,962.146C1388.89,961.366 1388.23,960.691 1387.49,960.203C1386.96,959.858 1386.28,959.843 1385.66,959.745C1384.58,959.577 1383.49,959.516 1382.41,959.403C1383.26,958.107 1384.12,956.811 1384.98,955.516C1385.76,954.334 1386.65,953.217 1387.32,951.971C1387.59,951.467 1387.69,950.881 1387.78,950.313C1387.85,949.824 1387.91,949.303 1387.78,948.828C1387.65,948.422 1387.41,947.981 1387.03,947.798C1386.46,947.526 1385.78,947.522 1385.15,947.571C1384.27,947.637 1383.42,947.911 1382.58,948.141C1381.54,948.426 1380.53,948.821 1379.5,949.114C1377.56,949.659 1375.61,950.143 1373.67,950.657C1374.83,949.418 1375.96,948.146 1377.16,946.941C1378.74,945.344 1380.42,943.845 1382.01,942.254C1383.39,940.873 1384.75,939.467 1386.06,938.024C1386.93,937.065 1387.85,936.129 1388.57,935.051C1389.02,934.377 1389.33,933.605 1389.54,932.823C1389.68,932.307 1389.77,931.729 1389.6,931.221C1389.46,930.786 1389.1,930.386 1388.69,930.193C1388.18,929.957 1387.55,929.829 1387.03,930.022C1385.33,930.654 1383.8,931.668 1382.24,932.594C1380.1,933.86 1378.08,935.314 1375.96,936.594C1374.07,937.734 1372.11,938.766 1370.19,939.854C1368.61,940.748 1367.06,941.691 1365.45,942.54C1364.03,943.291 1362.6,944.044 1361.11,944.655C1360.27,944.999 1359.38,945.252 1358.49,945.398C1357.26,945.596 1356.01,945.588 1354.78,945.684C1356.28,944.483 1357.91,943.428 1359.29,942.082C1360.61,940.786 1361.62,939.205 1362.83,937.795C1364.19,936.194 1365.73,934.734 1366.99,933.051C1367.98,931.732 1368.87,930.319 1369.56,928.821C1370.12,927.611 1370.36,926.278 1370.7,924.991C1370.97,923.991 1371.29,922.992 1371.39,921.961C1371.48,921.032 1371.33,920.093 1371.28,919.161C1371.23,918.436 1371.21,917.707 1371.1,916.988C1371.02,916.445 1370.9,915.903 1370.7,915.387C1370.53,914.924 1370.42,914.356 1370.02,914.073C1369.69,913.844 1369.16,913.859 1368.82,914.073C1367.89,914.665 1367.16,915.535 1366.42,916.36C1364.64,918.358 1363.01,920.485 1361.29,922.534C1359.94,924.123 1358.63,925.74 1357.23,927.278C1355.68,928.98 1354.06,930.622 1352.43,932.25C1350.79,933.899 1349.06,935.466 1347.41,937.109C1346.17,938.344 1345.11,939.764 1343.76,940.881C1342.54,941.893 1341.17,942.723 1339.76,943.454C1338.81,943.95 1337.74,944.178 1336.74,944.54C1337.86,943.225 1339.04,941.957 1340.1,940.596C1341.19,939.211 1342.22,937.783 1343.19,936.309C1344.13,934.865 1344.95,933.346 1345.81,931.85C1346.86,930.031 1347.99,928.255 1348.9,926.363C1349.73,924.627 1350.5,922.844 1351.01,920.99C1351.57,918.957 1351.85,916.853 1352.09,914.759C1352.31,912.883 1352.37,910.989 1352.38,909.1C1352.39,907.403 1352.38,905.694 1352.15,904.012C1352.03,903.141 1351.68,902.311 1351.35,901.497C1351.11,900.914 1350.84,900.324 1350.44,899.839C1350.23,899.591 1349.9,899.354 1349.58,899.382C1349.16,899.418 1348.75,899.68 1348.5,900.011C1347.51,901.292 1346.67,902.689 1345.93,904.126C1345.1,905.727 1344.54,907.452 1343.81,909.1C1342.83,911.338 1341.82,913.569 1340.79,915.788C1339.84,917.836 1338.85,919.867 1337.88,921.904C1336.97,923.811 1336.19,925.788 1335.14,927.62C1333.95,929.683 1332.58,931.631 1331.2,933.565C1329.57,935.843 1328,938.185 1326.12,940.253C1325.37,941.073 1324.38,941.665 1323.38,942.139C1323.19,942.227 1322.81,941.995 1322.86,941.796C1322.99,941.31 1323.5,941.016 1323.78,940.596C1324.49,939.51 1325.23,938.433 1325.83,937.281C1326.54,935.913 1327.14,934.484 1327.72,933.051C1328.27,931.663 1328.77,930.25 1329.2,928.821C1329.92,926.438 1330.7,924.059 1331.2,921.618C1331.6,919.645 1331.73,917.623 1331.88,915.616C1332.06,913.278 1332.21,910.93 1332.17,908.585C1332.13,906.521 1331.96,904.454 1331.65,902.413C1331.33,900.235 1330.83,898.083 1330.29,895.953C1329.96,894.686 1329.52,893.449 1329.03,892.237C1328.83,891.747 1328.57,891.27 1328.23,890.865C1327.95,890.533 1327.63,890.016 1327.2,890.065C1326.72,890.119 1326.41,890.672 1326.17,891.094C1325.51,892.274 1324.92,893.514 1324.52,894.809C1323.89,896.844 1323.54,898.957 1323.09,901.04C1322.55,903.549 1321.98,906.055 1321.55,908.585C1321.05,911.507 1320.81,914.47 1320.29,917.388C1319.84,919.942 1319.35,922.498 1318.64,924.991C1318.08,926.95 1317.18,928.797 1316.47,930.707C1315.75,932.645 1315.16,934.635 1314.36,936.538C1313.71,938.051 1312.98,939.532 1312.13,940.939C1311.38,942.188 1310.42,943.307 1309.56,944.483C1309.21,944.965 1308.84,945.436 1308.48,945.913C1308.72,944.921 1308.91,943.913 1309.22,942.94C1309.69,941.452 1310.32,940.017 1310.82,938.538C1311.29,937.139 1311.79,935.744 1312.13,934.308C1312.61,932.31 1312.95,930.28 1313.27,928.248C1313.6,926.125 1313.93,923.993 1314.07,921.847C1314.23,919.375 1314.29,916.891 1314.18,914.415C1314.09,912.157 1313.83,909.899 1313.44,907.67C1313.16,906.059 1312.7,904.481 1312.19,902.926C1311.88,901.978 1311.4,901.091 1310.99,900.182C1310.66,899.454 1310.34,898.715 1309.96,898.01C1309.62,897.379 1309.23,896.77 1308.82,896.181C1308.6,895.872 1308.41,895.497 1308.08,895.324C1307.77,895.166 1307.34,895.079 1307.05,895.266C1306.63,895.54 1306.44,896.067 1306.25,896.524C1305.77,897.657 1305.31,898.809 1305.05,900.011C1304.56,902.309 1304.27,904.648 1304.02,906.985C1303.66,910.444 1303.49,913.92 1303.22,917.388C1302.99,920.456 1302.78,923.525 1302.54,926.591C1302.3,929.66 1302.11,932.733 1301.8,935.794C1301.46,939.079 1301.14,942.37 1300.6,945.626C1300.34,947.181 1299.9,948.705 1299.4,950.2C1299.02,951.341 1298.61,952.495 1297.97,953.515C1297.41,954.407 1296.56,955.078 1295.86,955.859C1296.26,954.62 1296.81,953.421 1297.06,952.143C1297.33,950.716 1297.33,949.249 1297.4,947.798C1297.47,946.39 1297.56,944.975 1297.46,943.569C1297.37,942.241 1297.03,940.94 1296.83,939.624C1296.61,938.197 1296.55,936.739 1296.2,935.337C1295.9,934.115 1295.41,932.942 1294.89,931.793C1294.53,930.992 1294.08,930.227 1293.58,929.506C1293.37,929.208 1293.12,928.885 1292.78,928.764C1292.42,928.637 1291.92,928.57 1291.63,928.821C1291.21,929.192 1291.08,929.817 1290.95,930.364C1290.6,931.849 1290.39,933.366 1290.21,934.879C1289.97,936.855 1289.78,938.838 1289.69,940.825C1289.61,942.862 1289.71,944.903 1289.69,946.941C1289.67,949.571 1289.53,952.201 1289.58,954.829C1289.61,956.149 1289.81,957.459 1289.92,958.774C1289.5,958.416 1289.09,958.04 1288.65,957.702C1287.93,957.154 1287.28,956.504 1286.47,956.115C1286,955.891 1285.44,955.868 1284.93,955.916C1284.55,955.953 1284.24,956.214 1283.89,956.363C1283.89,956.363 1282.5,958.248 1282.55,958.545C1282.6,958.842 1281.46,962.811 1281.46,962.811C1281.46,964.663 1281.4,966.516 1281.46,968.367C1281.53,970.42 1281.67,972.473 1281.86,974.517C1282.03,976.342 1282.36,978.151 1282.55,979.973C1282.6,980.384 1282.59,980.803 1282.55,981.213C1282.43,982.425 1282.41,983.668 1282.06,984.834C1281.71,985.995 1281.15,987.104 1280.47,988.108C1279.82,989.077 1279.14,990.17 1278.09,990.688C1276.67,991.387 1274.91,992.145 1273.44,991.581C1270.32,990.386 1268.03,987.649 1265.26,985.777C1263.55,984.622 1261.8,983.524 1260.01,982.502C1258.2,981.471 1256.29,980.62 1254.46,979.625C1252.36,978.487 1250.23,977.399 1248.22,976.104C1247.12,975.392 1246.17,974.452 1245.15,973.624C1245.82,972.875 1246.44,972.079 1247.16,971.378C1247.72,970.829 1248.48,970.487 1248.99,969.887C1249.38,969.432 1249.53,968.817 1249.79,968.282C1249.98,967.709 1250.17,967.135 1250.37,966.562C1249.83,966.372 1249.28,966.221 1248.76,965.989C1248.17,965.723 1247.57,965.454 1247.04,965.071C1246.3,964.53 1245.67,963.848 1244.98,963.237C1244.29,962.625 1243.61,961.999 1242.91,961.402C1242.31,960.891 1241.75,960.331 1241.08,959.912C1240.4,959.484 1239.59,959.295 1238.9,958.879C1238.13,958.413 1237.37,957.902 1236.72,957.274C1236.1,956.667 1235.75,955.809 1235.12,955.209C1234.32,954.459 1233.34,953.934 1232.48,953.26C1231.77,952.709 1231.11,952.11 1230.42,951.54C1229.58,950.849 1228.74,950.159 1227.89,949.477C1227.17,948.897 1226.53,948.196 1225.71,947.756C1225.01,947.378 1224.21,947.178 1223.42,947.069C1222.81,946.985 1222.2,947.145 1221.59,947.184C1220.71,945.731 1219.75,944.322 1218.95,942.827C1218.37,941.756 1218.09,940.541 1217.46,939.5C1216.85,938.499 1216.06,937.623 1215.28,936.748C1214.53,935.901 1213.7,935.114 1212.87,934.34C1212.06,933.584 1211.3,932.731 1210.35,932.163C1209.66,931.754 1208.84,931.623 1208.05,931.474C1207.42,931.354 1206.68,931.059 1206.11,931.36C1205.62,931.613 1205.49,932.308 1205.42,932.85C1205.29,933.76 1205.49,934.686 1205.53,935.602C1205.61,937.17 1205.68,938.737 1205.76,940.303C1204.92,938.354 1204.08,936.403 1203.24,934.456C1202.59,932.963 1201.9,931.493 1201.29,929.983C1200.63,928.358 1200.07,926.694 1199.45,925.053C1198.85,923.445 1198.26,921.831 1197.62,920.237C1197.23,919.269 1197.01,918.189 1196.36,917.37C1195.67,916.495 1194.67,915.889 1193.72,915.306C1192.98,914.849 1192.12,914.61 1191.31,914.274C1190.74,914.038 1190.2,913.673 1189.59,913.586C1189.1,913.516 1188.42,913.426 1188.1,913.815C1187.6,914.425 1187.64,915.329 1187.53,916.109C1187.45,916.676 1187.53,917.255 1187.53,917.829C1187.11,916.606 1186.76,915.355 1186.27,914.16C1185.31,911.835 1184.22,909.567 1183.17,907.28C1182.42,905.631 1181.81,903.903 1180.88,902.348C1180.19,901.207 1179.22,900.262 1178.36,899.252C1177.58,898.35 1176.83,897.418 1175.95,896.616C1175.48,896.186 1174.96,895.743 1174.34,895.583C1173.86,895.457 1173.21,895.457 1172.85,895.813C1172.26,896.406 1172.07,897.307 1171.82,898.106C1171.64,898.657 1171.66,899.25 1171.57,899.823C1171.19,898.183 1170.84,896.538 1170.43,894.904C1170.09,893.544 1169.83,892.158 1169.34,890.843C1168.91,889.668 1168.32,888.549 1167.68,887.468C1167.1,886.465 1166.4,885.528 1165.68,884.609C1165.14,883.905 1164.55,883.225 1163.91,882.607C1163.54,882.248 1163.15,881.846 1162.65,881.692C1162.23,881.561 1161.7,881.566 1161.34,881.806C1160.7,882.219 1160.23,882.869 1159.85,883.522C1159.49,884.131 1159.39,884.857 1159.16,885.524C1158.86,885.562 1158.48,885.438 1158.25,885.638C1157.76,886.058 1157.4,886.643 1157.16,887.24C1156.52,888.795 1155.93,890.391 1155.62,892.043C1155.28,893.829 1155.21,895.663 1155.21,897.477C1155.22,899.428 1155.42,901.377 1155.67,903.311C1156,905.823 1156.38,908.332 1156.93,910.804C1157.43,913.067 1158.09,915.297 1158.82,917.496C1159.88,920.696 1161.64,923.686 1162.31,926.99C1162.62,928.547 1160.63,924.284 1159.91,922.872C1159.51,922.105 1159.3,921.251 1158.93,920.469C1158.69,919.953 1158.51,919.355 1158.08,918.983C1157.88,918.82 1157.52,918.926 1157.33,919.097C1156.92,919.482 1156.53,919.972 1156.42,920.527C1156.28,921.205 1156.49,921.913 1156.65,922.586C1157.03,924.282 1157.43,925.984 1158.02,927.62C1158.92,930.11 1159.9,932.583 1161.11,934.94C1162.23,937.134 1163.54,939.241 1165,941.231C1166.6,943.426 1168.35,945.534 1170.26,947.465C1172.17,949.396 1174.22,951.207 1176.43,952.785C1177.91,953.834 1179.61,954.524 1181.24,955.301C1183.33,956.297 1185.48,957.153 1187.59,958.104C1188.61,958.563 1189.61,959.061 1190.62,959.534C1191.32,959.862 1192.07,960.107 1192.73,960.505C1193.22,960.798 1193.71,961.137 1194.05,961.592C1194.57,962.284 1194.78,963.16 1195.25,963.88C1195.79,964.71 1196.35,965.559 1197.08,966.225C1197.34,966.461 1197.78,966.359 1198.11,966.473C1198.53,966.616 1198.93,966.821 1199.34,966.995C1199.11,967.098 1198.88,967.201 1198.65,967.303C1198.65,967.303 1198.46,967.754 1198.58,967.92C1198.7,968.087 1198.72,968.254 1199.2,968.657C1199.67,969.06 1201.43,969.986 1201.62,970.01C1201.81,970.034 1203.63,970.129 1203.89,970.129C1204.16,970.129 1206.05,969.939 1206.05,969.939C1206.57,970.01 1207.1,970.081 1207.62,970.153C1207.24,970.288 1206.8,970.318 1206.48,970.557C1206.34,970.663 1206.4,970.905 1206.36,971.079C1206.36,971.079 1206.67,971.767 1206.79,971.838C1206.91,971.91 1207.17,972.362 1207.62,972.362C1208.07,972.362 1209.82,972.978 1209.82,972.978C1210.46,973.065 1211.11,973.133 1211.74,973.239C1212.3,973.332 1212.85,973.461 1213.4,973.572C1213.4,973.572 1214.31,974.26 1214.59,974.498C1214.88,974.735 1216.08,975.257 1216.08,975.257C1216.08,975.257 1218.55,975.423 1218.67,975.4C1218.79,975.376 1220.97,975.329 1221.21,975.376C1221.44,975.424 1222.65,975.733 1222.65,975.733C1223.62,976.334 1224.65,976.86 1225.57,977.537C1226.84,978.469 1227.94,979.614 1229.2,980.553C1230.37,981.421 1231.75,981.998 1232.85,982.951C1235.3,985.069 1237.52,987.442 1239.82,989.725C1241.56,991.458 1243.34,993.163 1244.98,994.999C1246.14,996.301 1247.2,997.69 1248.19,999.127C1248.96,1000.26 1249.69,1001.43 1250.25,1002.68C1250.69,1003.67 1251.13,1004.7 1251.17,1005.78C1251.21,1006.87 1250.79,1007.94 1250.48,1008.99C1250.18,1010.01 1249.63,1010.95 1249.34,1011.97C1248.93,1013.37 1248.59,1014.8 1248.41,1016.25ZM1301.88,1069.72C1303.37,1068.11 1304.87,1066.5 1306.37,1064.9C1307.93,1063.33 1309.5,1061.75 1311.07,1060.18C1312.28,1058.98 1313.48,1057.77 1314.68,1056.57C1315.81,1055.8 1316.96,1055.05 1318.08,1054.27C1318.93,1053.66 1319.88,1053.17 1320.59,1052.4C1320.88,1052.1 1320.8,1051.6 1320.92,1051.2C1321.1,1050.61 1321.29,1050.03 1321.47,1049.44C1321.83,1050.03 1322.42,1050.52 1322.56,1051.2C1322.66,1051.65 1322.31,1052.09 1322.12,1052.51C1321.84,1053.15 1321.59,1053.84 1321.14,1054.38C1320.05,1055.68 1318.74,1056.8 1317.53,1057.99C1316.26,1059.24 1314.97,1060.48 1313.7,1061.72C1312.35,1062.85 1311,1063.98 1309.65,1065.12C1309.06,1065.48 1308.48,1065.85 1307.9,1066.21C1307.42,1066.65 1306.89,1067.03 1306.47,1067.53C1305.97,1068.13 1305.74,1068.96 1305.16,1069.5C1304.79,1069.84 1304.25,1070.01 1303.74,1070.05C1303.11,1070.09 1302.5,1069.83 1301.88,1069.72Z" style="fill:rgb(204,204,204);"/>
                </g>
            </g>
        </g>
    </g>
</svg>
