<?xml version="1.0" encoding="UTF-8" standalone="no"?>
<!DOCTYPE svg PUBLIC "-//W3C//DTD SVG 1.1//EN" "http://www.w3.org/Graphics/SVG/1.1/DTD/svg11.dtd">
<svg width="100%" height="100%" viewBox="0 0 1701 2480" version="1.1" xmlns="http://www.w3.org/2000/svg" xmlns:xlink="http://www.w3.org/1999/xlink" xml:space="preserve" xmlns:serif="http://www.serif.com/" style="fill-rule:evenodd;clip-rule:evenodd;stroke-linecap:round;stroke-linejoin:round;stroke-miterlimit:1.5;">
    <rect id="A2B2" x="0.931" y="0" width="1700" height="2480" style="fill:none;"/>
    <g id="Fields" opacity="0.2">
        <path id="_8" serif:id="8" d="M373.976,1368L11.473,1462.53L11.931,2065L498.471,1586.1C442.253,1529.45 399.759,1458.8 373.976,1368Z" style="fill:#9a945d;stroke:#767676;stroke-width:8.33px;"/>
    </g>
    <g id="S">
        <g id="Ring">
            <path id="Backer" d="M1262.37,1477C1131.48,1703.7 841.17,1781.5 614.482,1650.62C387.793,1519.75 310.016,1229.44 440.905,1002.74C571.793,776.037 862.1,698.239 1088.79,829.115C1315.48,959.991 1393.25,1250.3 1262.37,1477Z" style="fill:#fff;"/>
            <path d="M1262.37,1477C1131.48,1703.7 841.17,1781.5 614.482,1650.62C387.793,1519.75 310.016,1229.44 440.905,1002.74C571.793,776.037 862.1,698.239 1088.79,829.115C1315.48,959.991 1393.25,1250.3 1262.37,1477Z" style="fill:none;stroke:#000;stroke-width:8.33px;"/>
            <path d="M1262.37,1477L1236.11,1461.84" style="fill:none;stroke:#000;stroke-width:8.33px;"/>
            <path d="M467.162,1017.9L440.905,1002.74" style="fill:none;stroke:#000;stroke-width:8.33px;"/>
            <path d="M629.641,1624.37L614.482,1650.62" style="fill:none;stroke:#000;stroke-width:8.33px;"/>
            <path d="M1088.79,829.115L1073.63,855.372" style="fill:none;stroke:#000;stroke-width:8.33px;"/>
            <path d="M1088.78,1650.6L1073.62,1624.35" style="fill:none;stroke:#000;stroke-width:8.33px;"/>
            <path d="M629.651,855.389L614.492,829.132" style="fill:none;stroke:#000;stroke-width:8.33px;"/>
            <path d="M467.132,1461.86L440.875,1477.02" style="fill:none;stroke:#000;stroke-width:8.33px;"/>
            <path d="M1262.39,1002.72L1236.14,1017.88" style="fill:none;stroke:#000;stroke-width:8.33px;"/>
            <path d="M851.635,1714.16L851.635,1683.85" style="fill:none;stroke:#000;stroke-width:8.33px;"/>
            <path d="M851.635,795.892L851.635,765.573" style="fill:none;stroke:#000;stroke-width:8.33px;"/>
            <path d="M407.668,1239.87L377.348,1239.87" style="fill:none;stroke:#000;stroke-width:8.33px;"/>
            <path d="M1325.92,1239.87L1295.6,1239.87" style="fill:none;stroke:#000;stroke-width:8.33px;"/>
        </g>
        <g id="Root-Markers" serif:id="Root Markers">
            <path id="_81" serif:id="8" d="M533.176,1423.16L602.35,1341.31L638.65,1404.18L533.176,1423.16ZM582.171,1394.87L608.421,1390.15L599.387,1374.5L582.171,1394.87Z" style="fill:#488e61;"/>
        </g>
        <g id="Notes">
            <path id="_11" serif:id="11" d="M683.118,873.402C661.129,911.488 612.355,924.556 574.269,902.568C536.182,880.579 523.113,831.806 545.103,793.72C567.092,755.634 615.866,742.566 653.952,764.554C692.039,786.543 705.108,835.316 683.118,873.402Z" style="fill:#488e61;stroke:#fff;stroke-width:24px;"/>
            <path id="_82" serif:id="8" d="M511.424,1521.29C489.434,1559.38 440.661,1572.45 402.574,1550.46C364.487,1528.47 351.419,1479.7 373.408,1441.61C395.397,1403.53 444.171,1390.46 482.258,1412.44C520.344,1434.43 533.413,1483.21 511.424,1521.29Z" style="fill:#488e61;stroke:#fff;stroke-width:24px;"/>
            <path id="_4" serif:id="4" d="M1328.18,1519.4C1306.2,1557.49 1257.42,1570.56 1219.34,1548.57C1181.25,1526.58 1168.18,1477.81 1190.17,1439.72C1212.16,1401.64 1260.93,1388.57 1299.02,1410.56C1337.11,1432.55 1350.17,1481.32 1328.18,1519.4Z" style="fill:#488e61;stroke:#fff;stroke-width:24px;"/>
        </g>
        <g id="Treble-Marker" serif:id="Treble Marker">
            <g id="_10" serif:id="10">
                <path id="_101" serif:id="10" d="M514.254,1048.9C492.265,1086.99 443.491,1100.06 405.404,1078.07C367.318,1056.08 354.249,1007.31 376.238,969.221C398.227,931.136 447.001,918.067 485.088,940.056C523.174,962.045 536.243,1010.82 514.254,1048.9Z" style="fill:#fff;stroke:#fff;stroke-width:33.33px;"/>
                <circle id="_10a" serif:id="10a" cx="445.246" cy="1009.06" r="64" style="fill:#fff;stroke:#488e61;stroke-width:16.67px;"/>
            </g>
        </g>
    </g>
    <g id="Songs">
        <g id="song-7-masks" serif:id="song 7 masks">
            <g id="B">
                <path d="M135.94,1751.01C116.543,1751.11 97.132,1743.63 82.554,1728.64L56.797,1702.16C43.43,1688.41 36.492,1670.78 35.931,1653L136.599,1653.18L135.94,1751.01Z" style="fill:#488e61;stroke:#fff;stroke-width:1.67px;"/>
                <path d="M235.863,1653.36C235.365,1671.95 227.9,1690.37 213.527,1704.35L187.041,1730.1C172.795,1743.96 154.374,1750.91 135.94,1751.01L136.599,1653.18L235.863,1653.36Z" style="fill:#488e61;stroke:#fff;stroke-width:1.67px;"/>
                <path d="M135.94,1654.01L135.94,1750.01" style="fill:none;stroke:#488e61;stroke-width:4.17px;stroke-linecap:butt;"/>
                <path d="M140.112,1737.39C140.219,1735.3 140.337,1732.45 140.259,1728.8C144.458,1728.28 147.412,1724.92 146.944,1721.05C146.533,1717.65 144.142,1714.86 141.276,1714.16C141.312,1713.96 141.348,1713.76 141.383,1713.56C141.848,1710.81 141.172,1709.26 140.731,1705.41C141.939,1705.43 143.149,1705.6 144.377,1705.93C145.106,1706.13 145.912,1706.36 146.811,1706.61C147.626,1706.86 148.45,1707.17 149.285,1707.56C151.546,1708.68 153.852,1709.36 156.324,1710.13C158.827,1710.99 161.307,1711.31 163.993,1711.82C165.796,1712.19 167.517,1711.77 169.079,1711.03C170.636,1710.27 172.028,1709.17 172.863,1707.54C174.154,1705.14 175.43,1702.97 176.325,1700.48L177.684,1696.96C178.126,1695.83 178.39,1694.54 178.717,1693.37C179.713,1689.91 181.043,1686.86 183.085,1684.43C184.014,1683.13 185.212,1682.05 186.533,1681.04C187.752,1679.96 189.201,1679.03 190.879,1678.22C193.038,1677.09 195.071,1675.73 197.292,1674.32C199.287,1672.8 201.333,1671.15 203.383,1669.36C204.613,1668.13 205.478,1666.56 205.911,1664.88C206.429,1663.22 206.096,1661.38 205.49,1659.74C205.035,1658.61 204.624,1657.51 204.14,1656.43C204.543,1656.34 204.971,1656.24 205.425,1656.13C208.25,1655.48 210.323,1656.17 218.394,1656.41L217.817,1657.45C217.008,1658.74 216.098,1659.99 215.246,1661.2C214.054,1662.81 213.483,1664.64 212.924,1666.48C212.449,1668.33 212.408,1670.28 212.814,1672.26C213.229,1675.17 213.547,1678.2 213.775,1681.34C213.778,1684.39 213.827,1687.62 213.574,1690.85C213.321,1693.22 212.739,1695.63 211.88,1697.97C210.921,1700.24 209.58,1702.38 208.081,1704.39C204.905,1708.25 200.742,1711.33 196.068,1712.7C194.511,1713.16 193.061,1713.7 191.48,1714.03L186.851,1714.99C183.876,1715.66 180.727,1715.84 177.796,1716.08C175.871,1716.29 173.926,1716.67 172.204,1717.51C170.476,1718.33 168.972,1719.62 167.608,1721C165.584,1723.12 163.496,1725.51 161.104,1727.4C158.743,1729.38 156.266,1731.51 153.557,1733.18C152.552,1733.84 151.49,1734.44 150.384,1734.99C149.279,1735.54 148.129,1736.03 146.938,1736.31C144.735,1736.9 142.427,1737.26 140.112,1737.39ZM201.388,1699.04C202.742,1697.24 203.296,1695.1 203.04,1693.19C202.763,1691.26 201.583,1689.49 199.876,1688.4C198.132,1687.29 196.208,1687.01 194.381,1687.26C192.523,1687.49 190.864,1688.31 189.779,1689.77C188.714,1691.25 188.113,1692.91 188.302,1694.78C188.46,1696.61 189.242,1698.51 190.7,1699.95C192.158,1701.38 194.054,1702.06 196.012,1701.91C197.924,1701.73 200.055,1700.86 201.388,1699.04Z" style="fill:#e7e7e7;"/>
                <path d="M55.852,1659.81C56.129,1659.62 56.422,1659.42 56.729,1659.23C58.258,1658.26 62.871,1658.06 67.39,1659.34C67.261,1659.66 67.132,1659.99 66.999,1660.32C66.393,1661.97 66.06,1663.81 66.578,1665.47C67.011,1667.14 67.876,1668.72 69.107,1669.95C71.156,1671.74 73.202,1673.39 75.197,1674.9C77.418,1676.32 79.451,1677.67 81.61,1678.8C83.289,1679.61 84.736,1680.54 85.956,1681.62C87.278,1682.63 88.475,1683.72 89.404,1685.01C91.447,1687.45 92.776,1690.49 93.773,1693.96C94.099,1695.12 94.363,1696.41 94.805,1697.55L96.163,1701.07C97.06,1703.55 98.335,1705.72 99.626,1708.12C100.461,1709.76 101.852,1710.86 103.409,1711.61C104.973,1712.35 106.693,1712.77 108.496,1712.4C111.182,1711.9 113.662,1711.58 116.165,1710.71C118.637,1709.94 120.943,1709.27 123.203,1708.14C124.039,1707.76 124.863,1707.44 125.678,1707.19C126.577,1706.94 127.383,1706.72 128.112,1706.52C129.735,1706.08 131.328,1705.91 132.923,1706.02C133.311,1705.99 133.7,1705.99 134.088,1705.99C134.529,1709.84 135.205,1711.39 134.74,1714.14C134.705,1714.35 134.669,1714.55 134.633,1714.74C134.077,1714.61 133.504,1714.55 132.923,1714.58C129.348,1714.38 126.036,1717.58 125.544,1721.63C125.051,1725.71 128.361,1729.23 132.923,1729.44C133.157,1729.43 133.389,1729.41 133.616,1729.38C133.693,1733.03 133.576,1735.89 133.469,1737.98C133.287,1737.99 133.105,1738 132.923,1738.01C130.426,1737.9 127.927,1737.53 125.551,1736.89C124.36,1736.61 123.21,1736.13 122.104,1735.57C120.998,1735.03 119.937,1734.42 118.933,1733.76C116.223,1732.09 113.746,1729.96 111.384,1727.98C108.993,1726.09 106.905,1723.7 104.881,1721.58C103.517,1720.21 102.013,1718.91 100.284,1718.09C98.563,1717.26 96.618,1716.87 94.694,1716.66C91.762,1716.42 88.613,1716.25 85.638,1715.57L81.009,1714.61C79.429,1714.29 77.978,1713.75 76.42,1713.28C71.747,1711.91 67.584,1708.84 64.408,1704.97C62.909,1702.97 61.568,1700.83 60.609,1698.56C59.75,1696.21 59.169,1693.8 58.915,1691.43C58.662,1688.2 58.711,1684.97 58.714,1681.93C58.942,1678.79 59.26,1675.75 59.675,1672.84C60.082,1670.87 60.039,1668.91 59.565,1667.06C59.007,1665.22 58.435,1663.4 57.242,1661.79C56.787,1661.14 56.316,1660.48 55.852,1659.81ZM81.789,1700.53C83.247,1699.09 84.029,1697.19 84.187,1695.36C84.376,1693.5 83.775,1691.84 82.71,1690.36C81.625,1688.89 79.966,1688.08 78.108,1687.84C76.281,1687.6 74.357,1687.87 72.613,1688.99C70.906,1690.08 69.725,1691.85 69.449,1693.78C69.193,1695.69 69.747,1697.83 71.101,1699.63C72.433,1701.44 74.565,1702.32 76.478,1702.49C78.434,1702.64 80.331,1701.97 81.789,1700.53Z" style="fill:#e7e7e7;"/>
            </g>
            <g id="A2B21" serif:id="A2B2">
                <path d="M137.325,1551.83C156.238,1552.1 175.051,1559.57 189.266,1574.19L215.023,1600.67C229.478,1615.54 236.415,1634.95 235.9,1654.17L136.636,1654L137.325,1551.83Z" style="fill:#488e61;stroke:#fff;stroke-width:1.67px;"/>
                <path d="M35.968,1653.81C35.336,1633.78 42.803,1613.55 58.293,1598.49L84.78,1572.73C99.398,1558.51 118.412,1551.57 137.325,1551.83L136.636,1654L35.968,1653.81Z" style="fill:#488e61;stroke:#fff;stroke-width:1.67px;"/>
                <path d="M136.636,1552.83L136.335,1653.18" style="fill:none;stroke:#488e61;stroke-width:4.17px;stroke-linecap:butt;"/>
                <path d="M130.876,1569.22C132.018,1571.1 132.63,1574.04 132.408,1574.89C131.477,1578.48 131.591,1579.72 130.651,1581.62C127.314,1584.15 124.372,1586.97 121.844,1589.9C121.545,1590.24 121.24,1590.55 120.933,1590.86C120.638,1591.2 120.339,1591.53 120.035,1591.85C119.426,1592.48 118.8,1593.04 118.149,1593.54C117.507,1594.06 116.809,1594.44 116.144,1594.9C115.482,1595.37 114.796,1595.77 114.08,1596.12C113.364,1596.46 112.619,1596.75 111.84,1596.97C111.075,1597.22 110.335,1597.52 109.527,1597.7C107.955,1598.13 106.119,1598.16 104.373,1598.33C102.006,1598.51 99.346,1598.56 96.921,1599.11C94.429,1599.57 91.76,1600.06 89.286,1600.93C87.635,1601.5 85.997,1602.4 85,1603.82C83.965,1605.2 83.279,1606.87 83.088,1608.6C82.935,1611.31 82.951,1613.95 82.993,1616.45C83.266,1619.07 83.483,1621.51 83.932,1623.9C84.349,1625.71 84.525,1627.43 84.445,1629.05C84.451,1630.7 84.382,1632.32 83.951,1633.85C83.849,1634.23 83.731,1634.61 83.595,1634.99C83.509,1635.38 83.408,1635.76 83.29,1636.14C83.053,1636.9 82.75,1637.66 82.38,1638.4C82.024,1639.14 81.542,1639.88 81.104,1640.62C80.699,1641.36 80.228,1642.1 79.69,1642.83L77.509,1645.88C76.815,1646.93 76.266,1648.02 75.632,1649.14L73.784,1652.61C73.514,1653.19 73.268,1653.78 73.029,1654.37C68.421,1654.57 63.125,1653.77 58.842,1651.95L57.731,1649.96C57.011,1648.59 56.21,1647.19 55.564,1645.75L53.76,1641.34C53.316,1640.21 52.941,1639.05 52.634,1637.85C52.362,1636.65 52.269,1635.44 52.188,1634.2C52.12,1632.97 52.122,1631.72 52.193,1630.47C52.229,1629.84 52.28,1629.21 52.351,1628.59C52.471,1627.98 52.607,1627.37 52.76,1626.76C53.395,1624.33 54.197,1621.93 55.408,1619.77C56.704,1617.64 58.224,1615.68 59.92,1614C62.298,1611.8 64.846,1609.82 67.231,1607.93C69.847,1606.16 72.384,1604.5 74.946,1603.03C76.738,1602.12 78.233,1600.86 79.38,1599.33C80.491,1597.77 81.551,1596.17 82.05,1594.23C82.786,1591.28 83.92,1588.53 85.109,1585.63C86.229,1582.65 87.817,1580.02 89.37,1577.13C90.504,1574.93 92.197,1573.2 93.992,1571.47C94.911,1570.64 95.852,1569.8 96.895,1569.12C97.952,1568.46 99.053,1567.85 100.182,1567.31C101.313,1566.77 102.471,1566.28 103.646,1565.87C104.824,1565.46 106.078,1565.26 107.3,1565.06C108.53,1564.87 109.76,1564.76 110.977,1564.72C111.585,1564.7 112.19,1564.7 112.79,1564.71C113.402,1564.77 114.012,1564.86 114.613,1564.96C120.385,1565.83 125.835,1567.26 130.876,1569.22ZM67.089,1637.58C69.123,1637.82 71.09,1637.24 72.607,1636.22C73.366,1635.71 74.011,1635.08 74.5,1634.36C74.746,1634 74.942,1633.61 75.113,1633.21C75.32,1632.81 75.484,1632.39 75.599,1631.95C76.058,1630.19 75.657,1628.38 74.676,1626.78C73.757,1625.21 72.321,1623.87 70.369,1623.2C68.446,1622.54 66.35,1622.73 64.635,1623.71C62.989,1624.7 61.667,1626.47 61.112,1628.66C60.973,1629.2 60.89,1629.75 60.857,1630.28C60.861,1630.82 60.933,1631.35 61.042,1631.87C61.263,1632.89 61.669,1633.84 62.226,1634.65C63.339,1636.27 65.056,1637.33 67.089,1637.58ZM99.889,1579.58C99.328,1581.49 99.579,1583.52 100.658,1585.26C101.737,1587 103.404,1588.16 105.129,1588.68C106.831,1589.14 108.713,1589.18 110.359,1588.4C111.997,1587.61 113.128,1586.1 113.829,1584.49C114.495,1582.81 114.625,1580.79 113.935,1578.86C113.245,1576.93 111.819,1575.47 109.972,1574.72C108.106,1573.9 105.932,1574.04 103.904,1575.02C101.868,1575.99 100.41,1577.62 99.889,1579.58Z" style="fill:#e7e7e7;"/>
                <path d="M217.525,1648.68C216.44,1648.93 215.257,1649.1 213.964,1649.15C209.357,1649.35 203.611,1649.39 197.988,1647.42C197.697,1646.9 197.397,1646.39 197.065,1645.88L194.885,1642.83C194.347,1642.1 193.875,1641.36 193.471,1640.62C193.032,1639.88 192.549,1639.14 192.194,1638.4C191.824,1637.66 191.521,1636.9 191.285,1636.14C191.166,1635.76 191.065,1635.38 190.979,1634.99C190.844,1634.61 190.725,1634.23 190.623,1633.85C190.191,1632.32 190.124,1630.7 190.129,1629.05C190.049,1627.43 190.226,1625.71 190.642,1623.9C191.091,1621.51 191.308,1619.07 191.582,1616.45C191.623,1613.95 191.64,1611.31 191.487,1608.6C191.295,1606.87 190.609,1605.2 189.574,1603.82C188.577,1602.4 186.94,1601.5 185.288,1600.93C182.815,1600.06 180.145,1599.57 177.653,1599.11C175.229,1598.56 172.569,1598.51 170.201,1598.33C168.455,1598.16 166.62,1598.13 165.047,1597.7C164.24,1597.52 163.5,1597.22 162.734,1596.97C161.956,1596.75 161.21,1596.46 160.494,1596.12C159.778,1595.77 159.092,1595.37 158.431,1594.9C157.765,1594.44 157.068,1594.06 156.425,1593.54C155.775,1593.04 155.148,1592.48 154.54,1591.85C154.235,1591.53 153.936,1591.2 153.642,1590.86C153.335,1590.55 153.029,1590.24 152.731,1589.9C149.559,1586.23 145.735,1582.73 141.299,1579.74C141.174,1579.66 141.047,1579.58 140.919,1579.5C140.84,1579.06 140.737,1578.57 140.597,1578.03C139.664,1574.42 140.192,1571.94 141.204,1570.22C141.477,1570.13 141.749,1570.02 142.019,1569.9C147.523,1567.58 153.543,1565.93 159.961,1564.96C160.562,1564.86 161.173,1564.77 161.784,1564.72C162.385,1564.7 162.989,1564.7 163.598,1564.72C164.814,1564.76 166.044,1564.87 167.274,1565.06C168.496,1565.26 169.75,1565.46 170.929,1565.87C172.103,1566.28 173.262,1566.76 174.392,1567.31C175.522,1567.85 176.622,1568.46 177.679,1569.12C178.722,1569.8 179.664,1570.64 180.582,1571.47C182.378,1573.2 184.07,1574.93 185.204,1577.13C186.757,1580.02 188.345,1582.65 189.465,1585.63C190.654,1588.52 191.788,1591.28 192.524,1594.23C193.023,1596.17 194.084,1597.77 195.194,1599.33C196.342,1600.86 197.837,1602.12 199.629,1603.03C202.19,1604.5 204.727,1606.16 207.343,1607.93C209.728,1609.82 212.276,1611.8 214.654,1614C216.35,1615.68 217.871,1617.64 219.167,1619.77C220.377,1621.93 221.179,1624.33 221.814,1626.76C221.967,1627.37 222.104,1627.98 222.224,1628.59C222.294,1629.21 222.346,1629.84 222.382,1630.47C222.452,1631.72 222.455,1632.97 222.387,1634.2C222.305,1635.44 222.213,1636.65 221.94,1637.85C221.633,1639.05 221.258,1640.21 220.814,1641.34L219.011,1645.75C218.563,1646.75 218.042,1647.72 217.525,1648.68ZM160.64,1578.86C159.95,1580.79 160.079,1582.81 160.745,1584.48C161.447,1586.1 162.579,1587.61 164.216,1588.4C165.861,1589.18 167.743,1589.14 169.445,1588.68C171.171,1588.16 172.838,1587 173.916,1585.26C174.995,1583.52 175.246,1581.5 174.685,1579.58C174.165,1577.62 172.707,1575.99 170.671,1575.02C168.642,1574.04 166.468,1573.9 164.602,1574.72C162.756,1575.47 161.329,1576.93 160.64,1578.86ZM213.533,1631.86C213.641,1631.35 213.713,1630.82 213.717,1630.28C213.685,1629.75 213.601,1629.2 213.462,1628.66C212.907,1626.47 211.586,1624.7 209.939,1623.71C208.225,1622.73 206.129,1622.54 204.205,1623.2C202.253,1623.87 200.818,1625.21 199.898,1626.78C198.918,1628.38 198.516,1630.19 198.975,1631.95C199.091,1632.39 199.254,1632.81 199.461,1633.21C199.632,1633.61 199.829,1634 200.075,1634.36C200.563,1635.08 201.209,1635.71 201.967,1636.22C203.484,1637.24 205.451,1637.82 207.485,1637.58C209.518,1637.33 211.236,1636.27 212.349,1634.65C212.906,1633.84 213.311,1632.89 213.533,1631.86Z" style="fill:#e7e7e7;"/>
            </g>
        </g>
    </g>
    <g id="Map">
        <g id="Frame">
            <rect x="1472.43" y="41.542" width="190" height="190" style="fill:#fff;"/>
            <rect x="1472.43" y="41.542" width="190" height="190" style="fill:none;stroke:#000;stroke-width:1.17px;stroke-linejoin:bevel;"/>
            <rect x="1524.31" y="93.417" width="86.25" height="86.25" style="fill:none;stroke:#000;stroke-width:1.25px;stroke-linejoin:bevel;"/>
            <path d="M1610.56,93.417L1662.43,41.75" style="fill:none;stroke:#000;stroke-width:1.25px;stroke-linejoin:bevel;"/>
            <path d="M1524.31,93.417L1472.85,41.75" style="fill:none;stroke:#000;stroke-width:1.25px;stroke-linejoin:bevel;"/>
            <path d="M1524.31,179.667L1472.43,231.542" style="fill:none;stroke:#000;stroke-width:1.25px;stroke-linejoin:bevel;"/>
            <path d="M1610.56,179.667L1662.43,231.542" style="fill:none;stroke:#000;stroke-width:1.25px;stroke-linejoin:bevel;"/>
        </g>
        <g id="Dots">
            <circle cx="1472.43" cy="231.5" r="1.5" style="stroke:#000;stroke-width:1.25px;stroke-linejoin:bevel;"/>
            <circle cx="1567.13" cy="231.625" r="1.5" style="stroke:#000;stroke-width:1.25px;stroke-linejoin:bevel;"/>
            <circle cx="1662.43" cy="231.5" r="1.5" style="stroke:#000;stroke-width:1.25px;stroke-linejoin:bevel;"/>
            <circle cx="1634.78" cy="203.667" r="1.5" style="stroke:#000;stroke-width:1.25px;stroke-linejoin:bevel;"/>
            <circle cx="1610.56" cy="179.5" r="1.5" style="stroke:#000;stroke-width:1.25px;stroke-linejoin:bevel;"/>
            <circle cx="1610.13" cy="136.625" r="1.5" style="stroke:#000;stroke-width:1.25px;stroke-linejoin:bevel;"/>
            <circle cx="1610.25" cy="93.375" r="1.5" style="stroke:#000;stroke-width:1.25px;stroke-linejoin:bevel;"/>
            <circle cx="1634.69" cy="69.167" r="1.5" style="stroke:#000;stroke-width:1.25px;stroke-linejoin:bevel;"/>
            <circle cx="1567.13" cy="93.375" r="1.5" style="stroke:#000;stroke-width:1.25px;stroke-linejoin:bevel;"/>
            <circle cx="1524" cy="93.5" r="1.5" style="stroke:#000;stroke-width:1.25px;stroke-linejoin:bevel;"/>
            <circle cx="1567.43" cy="41.5" r="1.5" style="stroke:#000;stroke-width:1.25px;stroke-linejoin:bevel;"/>
            <circle cx="1472.43" cy="41.542" r="1.5" style="stroke:#000;stroke-width:1.25px;stroke-linejoin:bevel;"/>
            <circle cx="1500.28" cy="69.5" r="1.5" style="stroke:#000;stroke-width:1.25px;stroke-linejoin:bevel;"/>
            <circle cx="1472.43" cy="136.542" r="1.5" style="stroke:#000;stroke-width:1.25px;stroke-linejoin:bevel;"/>
            <circle cx="1524.31" cy="136.542" r="1.5" style="stroke:#000;stroke-width:1.25px;stroke-linejoin:bevel;"/>
            <circle cx="1566.93" cy="179.667" r="1.5" style="stroke:#000;stroke-width:1.25px;stroke-linejoin:bevel;"/>
            <circle cx="1524.28" cy="179.5" r="1.5" style="stroke:#000;stroke-width:1.25px;stroke-linejoin:bevel;"/>
            <circle cx="1500.08" cy="204" r="1.5" style="stroke:#000;stroke-width:1.25px;stroke-linejoin:bevel;"/>
            <circle cx="1662.43" cy="136.542" r="1.5" style="stroke:#000;stroke-width:1.25px;stroke-linejoin:bevel;"/>
            <circle cx="1662.43" cy="41.65" r="1.5" style="stroke:#000;stroke-width:1.25px;stroke-linejoin:bevel;"/>
        </g>
        <path d="M1567.43,92.977L1610.25,93.417" style="fill:none;stroke:#488e61;stroke-width:4.17px;"/>
        <path d="M1612.99,87.537C1616.24,88.881 1617.78,92.607 1616.44,95.852C1615.09,99.097 1611.37,100.641 1608.12,99.296C1604.88,97.952 1603.33,94.226 1604.68,90.981C1606.02,87.736 1609.75,86.193 1612.99,87.537Z" style="fill:#fff;stroke:#488e61;stroke-width:5.99px;"/>
        <g id="_7" serif:id="7">
            <circle cx="1567.18" cy="93.363" r="15.75" style="fill:#fff;stroke:#fff;stroke-width:1.46px;"/>
            <path d="M1567.93,108.892C1567.95,108.524 1567.97,108.021 1567.95,107.378C1568.69,107.287 1569.22,106.694 1569.13,106.013C1569.06,105.414 1568.64,104.922 1568.13,104.799C1568.14,104.765 1568.15,104.73 1568.15,104.693C1568.24,104.209 1568.12,103.935 1568.04,103.257C1568.25,103.261 1568.46,103.292 1568.68,103.35C1568.81,103.385 1568.95,103.425 1569.11,103.469C1569.25,103.513 1569.4,103.569 1569.55,103.636C1569.94,103.835 1570.35,103.953 1570.79,104.089C1571.23,104.242 1571.66,104.298 1572.14,104.386C1572.45,104.452 1572.76,104.378 1573.03,104.247C1573.31,104.115 1573.55,103.921 1573.7,103.632C1573.93,103.21 1574.15,102.828 1574.31,102.39L1574.55,101.77C1574.62,101.57 1574.67,101.342 1574.73,101.137C1574.9,100.527 1575.14,99.99 1575.5,99.562C1575.66,99.334 1575.87,99.142 1576.11,98.964C1576.32,98.774 1576.58,98.61 1576.87,98.467C1577.25,98.268 1577.61,98.03 1578,97.78C1578.35,97.514 1578.71,97.223 1579.08,96.907C1579.29,96.691 1579.44,96.413 1579.52,96.118C1579.61,95.826 1579.55,95.502 1579.45,95.212C1579.37,95.013 1579.29,94.819 1579.21,94.629C1579.28,94.613 1579.36,94.596 1579.43,94.577C1579.93,94.462 1580.3,94.584 1581.72,94.626L1581.62,94.809C1581.48,95.036 1581.32,95.256 1581.16,95.471C1580.95,95.754 1580.85,96.076 1580.76,96.399C1580.67,96.726 1580.66,97.07 1580.74,97.418C1580.81,97.93 1580.87,98.465 1580.91,99.018C1580.91,99.555 1580.91,100.124 1580.87,100.692C1580.83,101.11 1580.72,101.534 1580.57,101.947C1580.4,102.348 1580.17,102.724 1579.9,103.078C1579.34,103.758 1578.61,104.301 1577.79,104.542C1577.51,104.624 1577.26,104.719 1576.98,104.776L1576.16,104.945C1575.64,105.064 1575.08,105.095 1574.57,105.138C1574.23,105.174 1573.89,105.242 1573.58,105.389C1573.28,105.533 1573.01,105.762 1572.77,106.003C1572.42,106.377 1572.05,106.799 1571.63,107.131C1571.21,107.48 1570.78,107.855 1570.3,108.149C1570.12,108.266 1569.93,108.372 1569.74,108.468C1569.54,108.566 1569.34,108.652 1569.13,108.701C1568.74,108.805 1568.34,108.869 1567.93,108.892ZM1578.72,102.136C1578.96,101.819 1579.06,101.442 1579.01,101.106C1578.97,100.765 1578.76,100.454 1578.46,100.262C1578.15,100.065 1577.81,100.017 1577.49,100.06C1577.16,100.101 1576.87,100.245 1576.68,100.503C1576.49,100.764 1576.38,101.056 1576.42,101.385C1576.45,101.707 1576.58,102.042 1576.84,102.295C1577.1,102.549 1577.43,102.667 1577.78,102.641C1578.11,102.61 1578.49,102.456 1578.72,102.136Z" style="fill:#733c52;"/>
            <path d="M1553.09,95.225C1553.13,95.191 1553.19,95.157 1553.24,95.122C1553.51,94.951 1554.32,94.916 1555.12,95.141C1555.1,95.199 1555.07,95.257 1555.05,95.315C1554.94,95.605 1554.88,95.929 1554.98,96.221C1555.05,96.516 1555.2,96.794 1555.42,97.011C1555.78,97.326 1556.14,97.617 1556.49,97.883C1556.88,98.133 1557.24,98.371 1557.62,98.57C1557.92,98.713 1558.17,98.877 1558.39,99.067C1558.62,99.245 1558.83,99.437 1559,99.665C1559.36,100.093 1559.59,100.63 1559.77,101.24C1559.82,101.445 1559.87,101.673 1559.95,101.873L1560.19,102.493C1560.35,102.931 1560.57,103.313 1560.8,103.735C1560.94,104.024 1561.19,104.218 1561.46,104.35C1561.74,104.481 1562.04,104.555 1562.36,104.489C1562.83,104.401 1563.27,104.345 1563.71,104.192C1564.15,104.056 1564.55,103.938 1564.95,103.739C1565.1,103.672 1565.24,103.616 1565.39,103.572C1565.55,103.528 1565.69,103.489 1565.82,103.453C1566.1,103.376 1566.38,103.347 1566.66,103.365C1566.73,103.361 1566.8,103.359 1566.87,103.36C1566.94,104.038 1567.07,104.312 1566.98,104.796C1566.98,104.833 1566.97,104.868 1566.96,104.902C1566.87,104.878 1566.77,104.868 1566.66,104.874C1566.03,104.838 1565.45,105.402 1565.36,106.116C1565.28,106.834 1565.86,107.454 1566.66,107.491C1566.7,107.489 1566.75,107.486 1566.79,107.481C1566.8,108.124 1566.78,108.627 1566.76,108.995C1566.73,108.997 1566.69,108.999 1566.66,109C1566.22,108.982 1565.78,108.916 1565.36,108.804C1565.15,108.755 1564.95,108.669 1564.76,108.571C1564.56,108.476 1564.38,108.369 1564.2,108.252C1563.72,107.958 1563.28,107.583 1562.87,107.234C1562.45,106.902 1562.08,106.48 1561.72,106.106C1561.48,105.865 1561.22,105.636 1560.91,105.492C1560.61,105.345 1560.27,105.277 1559.93,105.241C1559.41,105.198 1558.86,105.167 1558.33,105.048L1557.52,104.879C1557.24,104.822 1556.98,104.727 1556.71,104.645C1555.89,104.404 1555.15,103.861 1554.59,103.181C1554.33,102.827 1554.09,102.451 1553.92,102.05C1553.77,101.638 1553.67,101.213 1553.62,100.795C1553.58,100.227 1553.59,99.658 1553.59,99.121C1553.63,98.568 1553.69,98.033 1553.76,97.521C1553.83,97.173 1553.82,96.829 1553.74,96.502C1553.64,96.179 1553.54,95.857 1553.33,95.574C1553.25,95.459 1553.17,95.343 1553.09,95.225ZM1557.65,102.398C1557.91,102.145 1558.05,101.81 1558.08,101.488C1558.11,101.159 1558.01,100.867 1557.82,100.606C1557.63,100.348 1557.33,100.204 1557.01,100.163C1556.68,100.12 1556.35,100.168 1556.04,100.365C1555.74,100.557 1555.53,100.868 1555.48,101.209C1555.44,101.545 1555.53,101.922 1555.77,102.239C1556.01,102.559 1556.38,102.713 1556.72,102.744C1557.06,102.77 1557.4,102.651 1557.65,102.398Z" style="fill:#733c52;"/>
            <path d="M1566.3,79.266C1566.5,79.597 1566.61,80.115 1566.57,80.266C1566.41,80.898 1566.43,81.117 1566.26,81.451C1565.67,81.897 1565.16,82.394 1564.71,82.91C1564.66,82.969 1564.6,83.024 1564.55,83.078C1564.5,83.139 1564.45,83.197 1564.39,83.253C1564.29,83.363 1564.17,83.463 1564.06,83.551C1563.95,83.643 1563.82,83.71 1563.71,83.79C1563.59,83.873 1563.47,83.944 1563.34,84.005C1563.22,84.066 1563.09,84.116 1562.95,84.155C1562.81,84.199 1562.68,84.252 1562.54,84.284C1562.26,84.36 1561.94,84.364 1561.63,84.395C1561.22,84.427 1560.75,84.434 1560.32,84.531C1559.88,84.613 1559.41,84.699 1558.98,84.853C1558.68,84.953 1558.4,85.111 1558.22,85.361C1558.04,85.606 1557.92,85.898 1557.88,86.204C1557.86,86.68 1557.86,87.147 1557.87,87.587C1557.91,88.048 1557.95,88.478 1558.03,88.898C1558.11,89.218 1558.14,89.52 1558.12,89.806C1558.12,90.097 1558.11,90.382 1558.04,90.651C1558.02,90.719 1558,90.786 1557.97,90.852C1557.96,90.92 1557.94,90.988 1557.92,91.055C1557.88,91.19 1557.82,91.322 1557.76,91.453C1557.7,91.585 1557.61,91.713 1557.53,91.843C1557.46,91.974 1557.38,92.104 1557.29,92.234L1556.9,92.771C1556.78,92.957 1556.68,93.148 1556.57,93.346L1556.24,93.956C1556.2,94.059 1556.15,94.162 1556.11,94.266C1555.3,94.301 1554.37,94.161 1553.61,93.841L1553.42,93.49C1553.29,93.249 1553.15,93.002 1553.04,92.748L1552.72,91.971C1552.64,91.773 1552.57,91.567 1552.52,91.356C1552.47,91.146 1552.45,90.931 1552.44,90.714C1552.43,90.496 1552.43,90.276 1552.44,90.055C1552.45,89.945 1552.46,89.835 1552.47,89.725C1552.49,89.617 1552.51,89.509 1552.54,89.402C1552.65,88.975 1552.79,88.553 1553.01,88.172C1553.24,87.796 1553.5,87.45 1553.8,87.155C1554.22,86.767 1554.67,86.418 1555.09,86.085C1555.55,85.774 1556,85.481 1556.45,85.223C1556.77,85.061 1557.03,84.84 1557.23,84.57C1557.43,84.296 1557.61,84.015 1557.7,83.672C1557.83,83.152 1558.03,82.667 1558.24,82.157C1558.44,81.633 1558.72,81.17 1558.99,80.66C1559.19,80.273 1559.49,79.968 1559.8,79.663C1559.97,79.517 1560.13,79.369 1560.32,79.248C1560.5,79.132 1560.7,79.026 1560.89,78.93C1561.09,78.834 1561.3,78.749 1561.51,78.675C1561.71,78.604 1561.93,78.569 1562.15,78.533C1562.37,78.5 1562.58,78.48 1562.8,78.473C1562.9,78.47 1563.01,78.469 1563.12,78.473C1563.22,78.483 1563.33,78.498 1563.44,78.516C1564.45,78.67 1565.41,78.92 1566.3,79.266ZM1555.07,91.308C1555.42,91.35 1555.77,91.249 1556.04,91.069C1556.17,90.979 1556.29,90.868 1556.37,90.741C1556.41,90.678 1556.45,90.61 1556.48,90.538C1556.52,90.469 1556.54,90.395 1556.56,90.317C1556.64,90.007 1556.57,89.688 1556.4,89.406C1556.24,89.13 1555.99,88.893 1555.64,88.776C1555.3,88.66 1554.93,88.692 1554.63,88.865C1554.34,89.04 1554.11,89.352 1554.01,89.737C1553.99,89.833 1553.97,89.928 1553.97,90.023C1553.97,90.118 1553.98,90.212 1554,90.302C1554.04,90.482 1554.11,90.649 1554.21,90.792C1554.4,91.078 1554.71,91.265 1555.07,91.308ZM1560.84,81.092C1560.74,81.429 1560.79,81.785 1560.98,82.091C1561.17,82.398 1561.46,82.603 1561.77,82.695C1562.07,82.775 1562.4,82.783 1562.69,82.646C1562.98,82.506 1563.17,82.239 1563.3,81.955C1563.42,81.661 1563.44,81.304 1563.32,80.964C1563.2,80.624 1562.94,80.368 1562.62,80.235C1562.29,80.09 1561.91,80.115 1561.55,80.289C1561.19,80.459 1560.93,80.745 1560.84,81.092Z" style="fill:#733c52;"/>
            <path d="M1581.57,93.265C1581.38,93.309 1581.17,93.337 1580.94,93.347C1580.13,93.382 1579.12,93.39 1578.12,93.042C1578.07,92.95 1578.02,92.86 1577.96,92.771L1577.58,92.234C1577.48,92.104 1577.4,91.974 1577.33,91.843C1577.25,91.713 1577.17,91.585 1577.1,91.453C1577.04,91.322 1576.99,91.19 1576.94,91.055C1576.92,90.988 1576.9,90.921 1576.89,90.852C1576.87,90.786 1576.85,90.719 1576.83,90.651C1576.75,90.382 1576.74,90.097 1576.74,89.806C1576.73,89.52 1576.76,89.218 1576.83,88.899C1576.91,88.478 1576.95,88.048 1577,87.587C1577,87.147 1577.01,86.68 1576.98,86.204C1576.95,85.898 1576.83,85.606 1576.64,85.361C1576.47,85.111 1576.18,84.953 1575.89,84.853C1575.45,84.699 1574.98,84.613 1574.54,84.531C1574.12,84.434 1573.65,84.427 1573.23,84.395C1572.92,84.364 1572.6,84.36 1572.32,84.284C1572.18,84.252 1572.05,84.199 1571.91,84.155C1571.78,84.116 1571.65,84.066 1571.52,84.005C1571.39,83.944 1571.27,83.873 1571.16,83.79C1571.04,83.71 1570.92,83.643 1570.8,83.551C1570.69,83.463 1570.58,83.363 1570.47,83.253C1570.42,83.197 1570.36,83.139 1570.31,83.078C1570.26,83.024 1570.2,82.969 1570.15,82.91C1569.59,82.263 1568.92,81.646 1568.14,81.12C1568.12,81.105 1568.09,81.091 1568.07,81.078C1568.06,80.999 1568.04,80.913 1568.01,80.818C1567.85,80.182 1567.94,79.746 1568.12,79.443C1568.17,79.426 1568.22,79.407 1568.27,79.386C1569.24,78.978 1570.3,78.687 1571.43,78.516C1571.53,78.498 1571.64,78.483 1571.75,78.473C1571.85,78.469 1571.96,78.47 1572.07,78.473C1572.28,78.48 1572.5,78.5 1572.71,78.533C1572.93,78.569 1573.15,78.604 1573.36,78.675C1573.57,78.749 1573.77,78.834 1573.97,78.93C1574.17,79.026 1574.36,79.132 1574.55,79.248C1574.73,79.369 1574.9,79.517 1575.06,79.663C1575.38,79.968 1575.67,80.273 1575.87,80.66C1576.15,81.17 1576.43,81.633 1576.62,82.157C1576.83,82.667 1577.03,83.152 1577.16,83.672C1577.25,84.015 1577.44,84.296 1577.63,84.57C1577.84,84.84 1578.1,85.061 1578.41,85.223C1578.87,85.481 1579.31,85.774 1579.77,86.085C1580.19,86.418 1580.64,86.767 1581.06,87.155C1581.36,87.45 1581.63,87.796 1581.86,88.172C1582.07,88.553 1582.21,88.975 1582.32,89.402C1582.35,89.509 1582.37,89.617 1582.39,89.725C1582.41,89.835 1582.41,89.945 1582.42,90.055C1582.43,90.276 1582.43,90.496 1582.42,90.714C1582.41,90.932 1582.39,91.146 1582.34,91.356C1582.29,91.567 1582.22,91.773 1582.15,91.971L1581.83,92.749C1581.75,92.924 1581.66,93.096 1581.57,93.265ZM1571.55,80.964C1571.42,81.304 1571.45,81.661 1571.56,81.955C1571.69,82.239 1571.89,82.506 1572.17,82.646C1572.47,82.783 1572.8,82.776 1573.1,82.695C1573.4,82.603 1573.69,82.398 1573.88,82.091C1574.07,81.785 1574.12,81.429 1574.02,81.092C1573.93,80.745 1573.67,80.459 1573.31,80.289C1572.95,80.116 1572.57,80.09 1572.24,80.235C1571.92,80.368 1571.67,80.624 1571.55,80.964ZM1580.86,90.302C1580.88,90.212 1580.89,90.118 1580.89,90.023C1580.89,89.929 1580.88,89.833 1580.85,89.737C1580.75,89.352 1580.52,89.04 1580.23,88.865C1579.93,88.693 1579.56,88.66 1579.22,88.776C1578.88,88.893 1578.62,89.13 1578.46,89.406C1578.29,89.688 1578.22,90.007 1578.3,90.317C1578.32,90.395 1578.35,90.469 1578.38,90.538C1578.41,90.61 1578.45,90.678 1578.49,90.741C1578.58,90.868 1578.69,90.979 1578.83,91.069C1579.09,91.249 1579.44,91.35 1579.8,91.308C1580.16,91.265 1580.46,91.079 1580.65,90.792C1580.75,90.649 1580.82,90.483 1580.86,90.302Z" style="fill:#733c52;"/>
        </g>
    </g>
    <g id="S-melisma" serif:id="S melisma">
        <path id="Sounder" d="M930.176,2302.55C904.923,2346.29 848.912,2361.3 805.176,2336.05C761.44,2310.8 746.434,2254.79 771.687,2211.05C796.94,2167.31 852.95,2152.3 896.687,2177.55C940.423,2202.8 955.429,2258.81 930.176,2302.55Z" style="fill:#fff;"/>
        <g id="Ring1" serif:id="Ring" opacity="0.5">
            <path d="M930.176,2302.55C904.923,2346.29 848.912,2361.3 805.176,2336.05C761.44,2310.8 746.434,2254.79 771.687,2211.05C796.94,2167.31 852.95,2152.3 896.687,2177.55C940.423,2202.8 955.429,2258.81 930.176,2302.55Z" style="fill:none;stroke:#000;stroke-width:1.93px;"/>
            <path d="M930.176,2302.55L925.11,2299.63" style="fill:none;stroke:#000;stroke-width:1.93px;"/>
            <path d="M776.753,2213.97L771.687,2211.05" style="fill:none;stroke:#000;stroke-width:1.93px;"/>
            <path d="M808.101,2330.98L805.176,2336.05" style="fill:none;stroke:#000;stroke-width:1.93px;"/>
            <path d="M896.687,2177.55L893.762,2182.62" style="fill:none;stroke:#000;stroke-width:1.93px;"/>
            <path d="M896.685,2336.05L893.76,2330.98" style="fill:none;stroke:#000;stroke-width:1.93px;"/>
            <path d="M808.103,2182.62L805.178,2177.55" style="fill:none;stroke:#000;stroke-width:1.93px;"/>
            <path d="M776.747,2299.63L771.681,2302.55" style="fill:none;stroke:#000;stroke-width:1.93px;"/>
            <path d="M930.182,2211.05L925.116,2213.97" style="fill:none;stroke:#000;stroke-width:1.93px;"/>
            <path d="M850.931,2348.31L850.931,2342.46" style="fill:none;stroke:#000;stroke-width:1.93px;"/>
            <path d="M850.931,2171.14L850.931,2165.29" style="fill:none;stroke:#000;stroke-width:1.93px;"/>
            <path d="M765.274,2256.8L759.424,2256.8" style="fill:none;stroke:#000;stroke-width:1.93px;"/>
            <path d="M942.438,2256.8L936.589,2256.8" style="fill:none;stroke:#000;stroke-width:1.93px;"/>
        </g>
        <g id="Root-Markers1" serif:id="Root Markers">
        </g>
        <g id="Notes1" serif:id="Notes">
            <path id="_111" serif:id="11" d="M818.418,2186.1C814.176,2193.44 804.766,2195.97 797.417,2191.72C790.069,2187.48 787.548,2178.07 791.79,2170.72C796.033,2163.37 805.443,2160.85 812.791,2165.1C820.139,2169.34 822.661,2178.75 818.418,2186.1Z" style="fill:#488e61;stroke:#fff;stroke-width:4.63px;"/>
            <path id="_102" serif:id="10" d="M785.838,2219.96C781.596,2227.3 772.186,2229.83 764.837,2225.58C757.489,2221.34 754.968,2211.93 759.21,2204.58C763.453,2197.23 772.863,2194.71 780.211,2198.95C787.559,2203.2 790.081,2212.61 785.838,2219.96Z" style="fill:#488e61;stroke:#fff;stroke-width:4.63px;"/>
            <path id="_83" serif:id="8" d="M785.292,2311.1C781.05,2318.45 771.64,2320.97 764.291,2316.72C756.943,2312.48 754.422,2303.07 758.664,2295.72C762.907,2288.38 772.317,2285.85 779.665,2290.1C787.013,2294.34 789.535,2303.75 785.292,2311.1Z" style="fill:#488e61;stroke:#fff;stroke-width:4.63px;"/>
            <path id="_41" serif:id="4" d="M942.875,2310.73C938.632,2318.08 929.222,2320.6 921.874,2316.36C914.526,2312.12 912.004,2302.71 916.247,2295.36C920.489,2288.01 929.899,2285.49 937.248,2289.73C944.596,2293.97 947.117,2303.38 942.875,2310.73Z" style="fill:#488e61;stroke:#fff;stroke-width:4.63px;"/>
            <path id="_3" serif:id="3" d="M955.386,2265.38C951.144,2272.72 941.734,2275.24 934.385,2271C927.037,2266.76 924.516,2257.35 928.758,2250C933.001,2242.65 942.411,2240.13 949.759,2244.38C957.107,2248.62 959.629,2258.03 955.386,2265.38Z" style="fill:#488e61;stroke:#fff;stroke-width:4.63px;"/>
        </g>
        <g id="Treble-Marker1" serif:id="Treble Marker">
        </g>
    </g>
</svg>
