<?xml version="1.0" encoding="UTF-8" standalone="no"?>
<!DOCTYPE svg PUBLIC "-//W3C//DTD SVG 1.1//EN" "http://www.w3.org/Graphics/SVG/1.1/DTD/svg11.dtd">
<svg width="100%" height="100%" viewBox="0 0 1700 2480" version="1.1" xmlns="http://www.w3.org/2000/svg" xmlns:xlink="http://www.w3.org/1999/xlink" xml:space="preserve" xmlns:serif="http://www.serif.com/" style="fill-rule:evenodd;clip-rule:evenodd;stroke-linecap:round;stroke-linejoin:round;stroke-miterlimit:1.5;">
    <rect id="START" x="0" y="0" width="1700" height="2480" style="fill:none;"/>
    <a href="A.svg">
    <g id="S">
        <g id="Ring">
            <path id="Backer" d="M1261.43,1477C1130.55,1703.7 840.239,1781.5 613.55,1650.62C386.862,1519.75 309.085,1229.44 439.973,1002.74C570.862,776.037 861.169,698.239 1087.86,829.115C1314.55,959.991 1392.32,1250.3 1261.43,1477Z" style="fill:#fff;"/>
            <path d="M1261.43,1477C1130.55,1703.7 840.239,1781.5 613.55,1650.62C386.862,1519.75 309.085,1229.44 439.973,1002.74C570.862,776.037 861.169,698.239 1087.86,829.115C1314.55,959.991 1392.32,1250.3 1261.43,1477Z" style="fill:none;stroke:#000;stroke-width:8.33px;"/>
            <path d="M1261.43,1477L1235.18,1461.84" style="fill:none;stroke:#000;stroke-width:8.33px;"/>
            <path d="M466.231,1017.9L439.973,1002.74" style="fill:none;stroke:#000;stroke-width:8.33px;"/>
            <path d="M628.71,1624.37L613.55,1650.62" style="fill:none;stroke:#000;stroke-width:8.33px;"/>
            <path d="M1087.86,829.115L1072.7,855.372" style="fill:none;stroke:#000;stroke-width:8.33px;"/>
            <path d="M1087.85,1650.6L1072.69,1624.35" style="fill:none;stroke:#000;stroke-width:8.33px;"/>
            <path d="M628.72,855.389L613.56,829.132" style="fill:none;stroke:#000;stroke-width:8.33px;"/>
            <path d="M466.201,1461.86L439.944,1477.02" style="fill:none;stroke:#000;stroke-width:8.33px;"/>
            <path d="M1261.46,1002.72L1235.21,1017.88" style="fill:none;stroke:#000;stroke-width:8.33px;"/>
            <path d="M850.704,1714.16L850.704,1683.85" style="fill:none;stroke:#000;stroke-width:8.33px;"/>
            <path d="M850.704,795.892L850.704,765.573" style="fill:none;stroke:#000;stroke-width:8.33px;"/>
            <path d="M406.736,1239.87L376.417,1239.87" style="fill:none;stroke:#000;stroke-width:8.33px;"/>
            <path d="M1324.99,1239.87L1294.67,1239.87" style="fill:none;stroke:#000;stroke-width:8.33px;"/>
        </g>
        <g id="Root-Markers" serif:id="Root Markers">
            <path id="_5" serif:id="5" d="M1035.4,1558.57L953.545,1489.39L1016.42,1453.09L1035.4,1558.57ZM1007.11,1509.57L1002.39,1483.32L986.74,1492.36L1007.11,1509.57Z" style="fill:#ec9959;"/>
        </g>
        <g id="Notes">
            <path id="_51" sound="Font/2-Low-F" serif:id="5" d="M1156.02,1693.33C1134.04,1731.42 1085.26,1744.49 1047.17,1722.5C1009.09,1700.51 996.019,1651.74 1018.01,1613.65C1040,1575.57 1088.77,1562.5 1126.86,1584.49C1164.94,1606.47 1178.01,1655.25 1156.02,1693.33Z" style="fill:#ec9959;stroke:#fff;stroke-width:24px;"/>
            <path id="_3" sound="Font/2-Mid-Eb" serif:id="3" d="M1392.1,1284.32C1370.11,1322.4 1321.34,1335.47 1283.25,1313.48C1245.16,1291.49 1232.1,1242.72 1254.09,1204.63C1276.08,1166.55 1324.85,1153.48 1362.93,1175.47C1401.02,1197.46 1414.09,1246.23 1392.1,1284.32Z" style="fill:#ec9959;stroke:#fff;stroke-width:24px;"/>
            <path id="_0" sound="Font/2-Mid-C" serif:id="0" d="M919.712,810.597C897.722,848.683 848.949,861.752 810.862,839.763C772.775,817.774 759.707,769.001 781.696,730.915C803.685,692.83 852.459,679.761 890.546,701.75C928.632,723.739 941.701,772.512 919.712,810.597Z" style="fill:#ec9959;stroke:#fff;stroke-width:24px;"/>
        </g>
        <g id="Treble-Marker" serif:id="Treble Marker">
            <g id="_8" serif:id="8" sound="Font/2-High-Ab">
                <path id="_8u" serif:id="8u" d="M510.492,1521.29C488.503,1559.38 439.729,1572.45 401.643,1550.46C363.556,1528.47 350.487,1479.7 372.476,1441.61C394.466,1403.53 443.24,1390.46 481.326,1412.44C519.413,1434.43 532.482,1483.21 510.492,1521.29Z" style="fill:#fff;stroke:#fff;stroke-width:33.33px;"/>
                <circle id="_8a" serif:id="8a" cx="441.484" cy="1481.45" r="64" style="fill:#fff;stroke:#ec9959;stroke-width:16.67px;"/>
            </g>
        </g>
    </g>
    </a>
    <g id="Map">
        <g id="Frame">
            <rect x="1471.5" y="41.542" width="190" height="190" style="fill:#fff;"/>
            <rect x="1471.5" y="41.542" width="190" height="190" style="fill:none;stroke:#000;stroke-width:1.17px;stroke-linejoin:bevel;"/>
            <rect x="1523.38" y="93.417" width="86.25" height="86.25" style="fill:none;stroke:#000;stroke-width:1.25px;stroke-linejoin:bevel;"/>
            <path d="M1609.62,93.417L1661.5,41.75" style="fill:none;stroke:#000;stroke-width:1.25px;stroke-linejoin:bevel;"/>
            <path d="M1523.38,93.417L1471.92,41.75" style="fill:none;stroke:#000;stroke-width:1.25px;stroke-linejoin:bevel;"/>
            <path d="M1523.38,179.667L1471.5,231.542" style="fill:none;stroke:#000;stroke-width:1.25px;stroke-linejoin:bevel;"/>
            <path d="M1609.62,179.667L1661.5,231.542" style="fill:none;stroke:#000;stroke-width:1.25px;stroke-linejoin:bevel;"/>
        </g>
        <g id="Dots">
            <circle cx="1471.5" cy="231.5" r="1.5" style="stroke:#000;stroke-width:1.25px;stroke-linejoin:bevel;"/>
            <circle cx="1566.2" cy="231.625" r="1.5" style="stroke:#000;stroke-width:1.25px;stroke-linejoin:bevel;"/>
            <circle cx="1661.5" cy="231.5" r="1.5" style="stroke:#000;stroke-width:1.25px;stroke-linejoin:bevel;"/>
            <circle cx="1633.85" cy="203.667" r="1.5" style="stroke:#000;stroke-width:1.25px;stroke-linejoin:bevel;"/>
            <circle cx="1609.62" cy="179.5" r="1.5" style="stroke:#000;stroke-width:1.25px;stroke-linejoin:bevel;"/>
            <circle cx="1609.2" cy="136.625" r="1.5" style="stroke:#000;stroke-width:1.25px;stroke-linejoin:bevel;"/>
            <circle cx="1609.32" cy="93.375" r="1.5" style="stroke:#000;stroke-width:1.25px;stroke-linejoin:bevel;"/>
            <circle cx="1633.76" cy="69.167" r="1.5" style="stroke:#000;stroke-width:1.25px;stroke-linejoin:bevel;"/>
            <circle cx="1566.2" cy="93.375" r="1.5" style="stroke:#000;stroke-width:1.25px;stroke-linejoin:bevel;"/>
            <circle cx="1523.07" cy="93.5" r="1.5" style="stroke:#000;stroke-width:1.25px;stroke-linejoin:bevel;"/>
            <circle cx="1566.5" cy="41.5" r="1.5" style="stroke:#000;stroke-width:1.25px;stroke-linejoin:bevel;"/>
            <circle cx="1471.5" cy="41.542" r="1.5" style="stroke:#000;stroke-width:1.25px;stroke-linejoin:bevel;"/>
            <circle cx="1499.35" cy="69.5" r="1.5" style="stroke:#000;stroke-width:1.25px;stroke-linejoin:bevel;"/>
            <circle cx="1471.5" cy="136.542" r="1.5" style="stroke:#000;stroke-width:1.25px;stroke-linejoin:bevel;"/>
            <circle cx="1523.38" cy="136.542" r="1.5" style="stroke:#000;stroke-width:1.25px;stroke-linejoin:bevel;"/>
            <circle cx="1566" cy="179.667" r="1.5" style="stroke:#000;stroke-width:1.25px;stroke-linejoin:bevel;"/>
            <circle cx="1523.35" cy="179.5" r="1.5" style="stroke:#000;stroke-width:1.25px;stroke-linejoin:bevel;"/>
            <circle cx="1499.15" cy="204" r="1.5" style="stroke:#000;stroke-width:1.25px;stroke-linejoin:bevel;"/>
            <circle cx="1661.5" cy="136.542" r="1.5" style="stroke:#000;stroke-width:1.25px;stroke-linejoin:bevel;"/>
            <circle cx="1661.49" cy="41.65" r="1.5" style="stroke:#000;stroke-width:1.25px;stroke-linejoin:bevel;"/>
        </g>
        <path d="M1525.81,87.537C1529.06,88.881 1530.6,92.607 1529.26,95.852C1527.91,99.097 1524.18,100.641 1520.94,99.296C1517.69,97.952 1516.15,94.226 1517.5,90.981C1518.84,87.736 1522.57,86.193 1525.81,87.537Z" style="fill:#fff;stroke:#ec9959;stroke-width:5.99px;"/>
    </g>
    <g id="S-melisma" serif:id="S melisma">
        <path id="Sounder" d="M929.245,2302.55C903.992,2346.29 847.981,2361.3 804.245,2336.05C760.508,2310.8 745.502,2254.79 770.755,2211.05C796.008,2167.31 852.019,2152.3 895.755,2177.55C939.492,2202.8 954.498,2258.81 929.245,2302.55Z" style="fill:#fff;"/>
        <g id="Ring1" serif:id="Ring" opacity="0.5">
            <path d="M929.245,2302.55C903.992,2346.29 847.981,2361.3 804.245,2336.05C760.508,2310.8 745.502,2254.79 770.755,2211.05C796.008,2167.31 852.019,2152.3 895.755,2177.55C939.492,2202.8 954.498,2258.81 929.245,2302.55Z" style="fill:none;stroke:#000;stroke-width:1.93px;"/>
            <path d="M929.245,2302.55L924.179,2299.63" style="fill:none;stroke:#000;stroke-width:1.93px;"/>
            <path d="M775.821,2213.97L770.755,2211.05" style="fill:none;stroke:#000;stroke-width:1.93px;"/>
            <path d="M807.169,2330.98L804.245,2336.05" style="fill:none;stroke:#000;stroke-width:1.93px;"/>
            <path d="M895.755,2177.55L892.831,2182.62" style="fill:none;stroke:#000;stroke-width:1.93px;"/>
            <path d="M895.753,2336.05L892.829,2330.98" style="fill:none;stroke:#000;stroke-width:1.93px;"/>
            <path d="M807.171,2182.62L804.247,2177.55" style="fill:none;stroke:#000;stroke-width:1.93px;"/>
            <path d="M775.816,2299.63L770.75,2302.55" style="fill:none;stroke:#000;stroke-width:1.93px;"/>
            <path d="M929.25,2211.05L924.184,2213.97" style="fill:none;stroke:#000;stroke-width:1.93px;"/>
            <path d="M850,2348.31L850,2342.46" style="fill:none;stroke:#000;stroke-width:1.93px;"/>
            <path d="M850,2171.14L850,2165.29" style="fill:none;stroke:#000;stroke-width:1.93px;"/>
            <path d="M764.343,2256.8L758.493,2256.8" style="fill:none;stroke:#000;stroke-width:1.93px;"/>
            <path d="M941.507,2256.8L935.657,2256.8" style="fill:none;stroke:#000;stroke-width:1.93px;"/>
        </g>
        <g id="Root-Markers1" serif:id="Root Markers">
            <path id="_52" serif:id="5" d="M882.045,2312.35L868.001,2300.48L878.789,2294.25L882.045,2312.35ZM877.125,2303.82L876.348,2299.51L873.775,2300.99L877.125,2303.82Z" style="fill:#ec9959;"/>
        </g>
        <g id="Notes1" serif:id="Notes">
            <path id="_11" serif:id="11" d="M817.487,2186.1C813.245,2193.44 803.834,2195.97 796.486,2191.72C789.138,2187.48 786.616,2178.07 790.859,2170.72C795.101,2163.37 804.512,2160.85 811.86,2165.1C819.208,2169.34 821.73,2178.75 817.487,2186.1Z" style="fill:#ec9959;stroke:#fff;stroke-width:4.63px;"/>
            <path id="_81" serif:id="8" d="M784.361,2311.1C780.119,2318.45 770.708,2320.97 763.36,2316.72C756.012,2312.48 753.49,2303.07 757.733,2295.72C761.975,2288.38 771.386,2285.85 778.734,2290.1C786.082,2294.34 788.604,2303.75 784.361,2311.1Z" style="fill:#ec9959;stroke:#fff;stroke-width:4.63px;"/>
            <path id="_7" serif:id="7" d="M818.378,2343.49C814.135,2350.84 804.725,2353.36 797.377,2349.12C790.029,2344.88 787.507,2335.47 791.75,2328.12C795.992,2320.77 805.403,2318.25 812.751,2322.49C820.099,2326.73 822.621,2336.14 818.378,2343.49Z" style="fill:#ec9959;stroke:#fff;stroke-width:4.63px;"/>
            <path id="_53" serif:id="5" d="M908.907,2344.29C904.665,2351.64 895.255,2354.16 887.906,2349.92C880.558,2345.67 878.037,2336.26 882.279,2328.92C886.522,2321.57 895.932,2319.05 903.28,2323.29C910.628,2327.53 913.15,2336.94 908.907,2344.29Z" style="fill:#ec9959;stroke:#fff;stroke-width:4.63px;"/>
            <path id="_31" serif:id="3" d="M954.455,2265.38C950.212,2272.72 940.802,2275.24 933.454,2271C926.106,2266.76 923.584,2257.35 927.827,2250C932.069,2242.65 941.48,2240.13 948.828,2244.38C956.176,2248.62 958.697,2258.03 954.455,2265.38Z" style="fill:#ec9959;stroke:#fff;stroke-width:4.63px;"/>
            <path id="_01" serif:id="0" d="M863.314,2173.98C859.072,2181.33 849.661,2183.85 842.313,2179.61C834.965,2175.36 832.443,2165.95 836.686,2158.61C840.928,2151.26 850.339,2148.74 857.687,2152.98C865.035,2157.22 867.557,2166.63 863.314,2173.98Z" style="fill:#ec9959;stroke:#fff;stroke-width:4.63px;"/>
        </g>
        <g id="Treble-Marker1" serif:id="Treble Marker">
            <g id="_82" serif:id="8">
                <path id="_8u1" serif:id="8u" d="M784.361,2311.1C780.119,2318.45 770.708,2320.97 763.36,2316.72C756.012,2312.48 753.49,2303.07 757.733,2295.72C761.975,2288.38 771.386,2285.85 778.734,2290.1C786.082,2294.34 788.604,2303.75 784.361,2311.1Z" style="fill:#fff;stroke:#fff;stroke-width:6.43px;"/>
                <circle id="_8a1" serif:id="8a" cx="771.047" cy="2303.41" r="12.348" style="fill:#fff;stroke:#ec9959;stroke-width:3.22px;"/>
            </g>
        </g>
    </g>
    <path d="M474.687,497.313C474.687,496.813 474.437,496.625 473.937,496.438C473.625,496.375 473.25,496.375 472.875,496.375C472.437,496.375 472.062,496.313 471.625,496.313L470.562,496.188C470.25,496.188 470,496.125 469.75,496.063C469.187,495.875 468.812,495.438 468.812,494.813C468.812,493.938 468.812,492.438 468.937,490L468.937,489.75C468.937,488.813 468.75,488.5 468.562,488.375C468.25,488.125 467.625,488.125 467.25,488.125L467.062,488.125C466.125,488.125 465.562,488.875 465.5,489.25C465.5,489.313 465.437,489.438 465.437,489.5C465.437,489.813 465.5,490.313 465.562,490.938C465.687,491.75 465.812,492.813 465.812,493.875L465.812,494.188C465.812,495.313 465.312,495.938 464.5,496.125C464.25,496.188 464,496.188 463.75,496.188C463.312,496.188 462.75,496.125 462.312,496.125C461.437,496.125 460.937,496.688 460.75,498.563C460.75,498.625 460.687,498.688 460.687,498.75C460.687,499.125 460.937,499.25 461.437,499.375C461.75,499.438 462.062,499.438 462.375,499.438C462.687,499.438 463,499.375 463.25,499.375C464.25,499.375 465.562,500.125 465.562,501.5C465.562,502.5 465.75,504.688 465.75,507.5C465.75,510.313 465.375,515.688 465.375,518.125C465.375,519.313 465.562,519.625 465.75,519.75L466.25,519.875L467.375,519.875C468.937,519.875 469.437,519.688 469.437,518.875L469.437,518.438C469.25,516.688 468.937,512.188 468.875,509.563C468.812,508.688 468.75,507.625 468.75,506.563C468.75,504.5 468.875,502.375 468.937,501C469,499.625 469.812,499.063 470.812,499L471,499C471.75,499 472.437,499.188 473.187,499.25L473.437,499.25C474.25,499.25 474.687,498.813 474.687,497.313Z" style="fill-rule:nonzero;"/>
    <path d="M503.937,507.25C503.937,507.188 504,507.125 504,507C504,506.938 503.937,506.75 503.937,506.563L503.687,505.25C503.25,503.25 501.062,499.938 499.437,498C497.812,496.25 494.687,495.188 492.062,495.063L491.375,495.063C488.687,495.063 486.562,496.375 484.375,497.813L483.875,498.125C481.5,499.563 479.812,504.313 479.687,508.063L479.687,508.25C479.687,511.813 482.375,515.75 484.5,518.125C486.562,520.313 490.812,520.375 492.937,520.375C494.937,520.375 496.562,519.875 497.625,519.313C498.062,519.063 498.687,518.563 499.437,517.938C500.125,517.313 500.875,516.688 501.687,516.063C502.312,515.625 502.625,515.125 502.625,514.625C502.625,514.063 502.312,513.5 501.375,512.75C501.062,512.5 500.75,512.375 500.562,512.375C500.25,512.375 500.062,512.563 499.812,512.75C499.375,513.25 499.062,513.875 498.812,514.5C498.312,515.625 495.812,516.875 492.687,516.875L492.187,516.875C490.125,516.813 488.375,516.188 486.812,514.938L485.875,514.188C484.875,513.313 483.875,510.813 483.875,509.25L483.875,508.813C484.062,508.063 485.562,507.625 487.437,507.563C489,507.563 490.75,507.625 491.687,507.625C493,507.625 496.625,507.688 499.437,507.688C500.875,507.688 502.125,507.688 502.812,507.625C503.875,507.625 503.937,507.375 503.937,507.25ZM499.5,503.125C499.687,503.438 499.75,503.688 499.75,503.938C499.75,504.625 499.187,505.063 498.062,505.063C495.625,505.063 492.937,505.125 491.875,505.125C490.75,505.125 487.437,505.063 486.75,504.875C486.062,504.813 484.562,504 484.562,502.875C484.562,502.5 484.687,502.125 485,501.75C486,500.375 488.75,498.5 492,498.5L492.25,498.5C495.187,498.625 496.187,499.5 497.625,500.875C498.25,501.5 499.125,502.313 499.5,503.125Z" style="fill-rule:nonzero;"/>
    <path d="M544.125,518.375C544.125,517.938 544.062,517.438 543.937,516.938L543.687,515.375C543.437,513.688 543.187,509.313 543.187,505.813L543.187,503.25C543.187,500.438 542.687,499.063 541.625,497.625C540.375,496.063 538.312,495.438 536.75,495.438C535.187,495.438 534.25,495.813 533,496.563C532.437,496.875 531.875,497.313 531.437,497.75C530.812,498.313 530.062,498.75 529.812,498.875L529.375,498.875C528.625,498.875 527.812,498.5 526.812,497.188C525.812,495.813 524.437,495.313 522.812,495.313L522.062,495.313C521.75,495.313 521.312,495.313 520.937,495.438C520.437,495.625 519.812,496 518.625,496.875C517.75,497.563 517.187,497.813 516.75,497.813C516.437,497.813 516.187,497.625 516.062,497.438C515.875,497.25 515.812,496.938 515.75,496.625L515.687,496.25C515.687,496.188 515.625,496.063 515.625,496.063C515.437,495.438 514.562,495.438 513.437,495.438C512.562,495.438 511.625,495.938 511.625,497C511.625,498.563 512,503.625 512,506.125C512,508.563 511.875,512.875 511.625,516.063C511.562,516.625 511.562,517.063 511.562,517.5C511.562,519.375 512.062,519.813 513.937,519.813C515.5,519.813 515.875,519.188 515.875,518.125C515.875,517.688 515.812,517.188 515.75,516.625C515.437,514.875 515.187,511 515.187,508.188L515.187,506.813C515.375,504.063 516.125,502.5 517.187,501.063C518.187,499.688 520.312,498.625 521.812,498.625L522.125,498.625C523.625,498.813 524.812,499.5 525.375,500.5C525.937,501.5 526.125,503.063 526.125,506.5C526.125,509.625 525.687,514.188 525.437,516.688C525.375,517.125 525.25,517.75 525.25,518.063C525.25,519.563 525.937,520.25 528,520.25C529.25,520.25 529.562,519.875 529.687,519.688C529.812,519.5 529.812,519.313 529.812,519.125C529.812,518.875 529.75,518.625 529.75,518.375C529.625,517.375 529,511.25 529,508.438C529,505.5 530.062,502.625 530.687,501.375C531.437,499.875 534.25,499.125 535.375,499L535.812,499C536.937,499 538,499.5 539.25,500.625C539.875,501.375 540.187,502.25 540.312,503.313C540.375,503.75 540.375,504.188 540.375,504.688C540.375,505.438 540.312,506.375 540.312,507.5C540.187,511.063 539.687,513.875 539.312,517.188C539.25,517.625 539.25,517.938 539.25,518.25C539.25,519.688 539.75,520.125 541,520.125C541.437,520.125 541.937,520.125 542.562,520C543.812,519.813 544.062,519.188 544.125,518.375Z" style="fill-rule:nonzero;"/>
    <path d="M578.312,507.313L578.312,506.813C578.312,503.5 576.375,500.563 574.75,498.563C573.187,496.688 569.625,495.25 566.562,495.125C563.687,495.125 561,496.938 559.187,498.75C558.687,499.188 558.312,499.438 558,499.438C557.687,499.438 557.437,499.25 557.312,499.063C557.125,498.813 557.062,498.25 557.062,497.5L557.062,496.688C557.062,495.813 556.625,495.75 555.187,495.625L554.937,495.625C553.812,495.625 553.5,496.375 553.5,497.313C553.5,497.938 553.625,498.563 553.687,499.063C553.875,500.438 554,508.438 554,513.25C554,514.688 554,515.75 553.937,516.438C553.812,519.5 553.687,527.625 553.437,529.938C553.437,530.125 553.375,530.188 553.375,530.313C553.375,531.625 554.25,532.063 555.437,532.063C555.562,532.063 555.75,532 555.937,532C557.5,531.938 558,531.375 558,531.063L558,530.75C558,530.313 558,529.75 557.937,529C557.812,528.125 557.687,527.063 557.687,526.25C557.625,525.813 557.625,525.375 557.625,524.813L557.625,523.875C557.625,522.625 557.625,521.375 557.375,519.938C557.312,519.375 557.25,518.875 557.25,518.5C557.25,517.063 557.687,516.438 558.687,516.313L558.937,516.313C559.437,516.313 559.875,516.688 560.187,517C560.625,517.375 560.937,517.875 561.25,518.313C561.875,519.125 562.5,519.813 567,519.813C569.187,519.813 570.5,519.438 571.625,518.813C572.125,518.5 572.687,518.125 573.187,517.688L574.937,516.313C577.312,514.5 578.312,510.938 578.312,507.313ZM574.812,507.813L574.625,510.313C574.375,512.625 573.75,513.625 571.75,515.063C570.5,516 569.687,516.375 568.937,516.625C568.562,516.688 568.187,516.688 567.75,516.688C567.687,516.688 567.5,516.75 567.375,516.75C567.062,516.75 566.812,516.688 566.437,516.688C564.375,516.688 562.375,516.438 560.437,514.875C558.437,513.313 557.187,510.375 557.187,507.188C557.187,503.938 558.625,501.375 560.937,499.875C561.5,499.563 561.937,499.25 562.375,499.063L563.437,498.563C564.187,498.25 564.875,498.25 566,498.25C568.562,498.25 570.687,499.25 571.875,500.625C572.125,500.938 572.5,501.25 572.812,501.688C573.187,502.063 573.562,502.563 573.875,503.125C574.375,504.125 574.812,505.438 574.812,507L574.812,507.813Z" style="fill-rule:nonzero;"/>
    <path d="M610.625,508.313L610.625,508C610.625,503.75 608.625,500.563 606.75,498.563C604.875,496.625 601.812,495.063 598.312,494.938L598,494.938C592.312,494.938 589.812,497.313 588,499.188C586.125,501.063 584.687,503.875 584.687,507.875C584.687,511.875 587.062,515.75 589,517.5C590.875,519.188 593.687,520.438 597.312,520.438L597.687,520.438C601.562,520.313 604.562,519.813 607.25,516.938C609.937,513.938 610.625,512.875 610.625,508.313ZM607.062,507.625C607.062,510 606.187,513.25 604.625,514.438C604.25,514.625 603.875,514.938 603.375,515.25C601.812,516.313 600.062,517.125 598.187,517.125C597.937,517.125 597.687,517.125 597.375,517.063C594.375,516.688 592.937,516.063 591.125,513.938C589.312,511.938 588.75,510.313 588.75,507.75C588.75,505.25 589.187,502.875 591.687,501C594.125,499.188 596.062,498.938 598.062,498.938C601.25,498.938 603.562,499.813 604.875,502.125C605.5,503.188 606.062,503.875 606.437,504.688C606.75,505.5 607.062,506.375 607.062,507.625Z" style="fill-rule:nonzero;"/>
    <path d="M632.312,495.813C631.875,495.625 630.375,495.125 628.687,495.125C627,495.125 624.687,496.625 623.875,498.188C623.687,498.563 623.437,498.938 623.125,499.125C622.937,499.188 622.812,499.188 622.75,499.188C622.437,499.188 622.187,499 622.062,498.813C621.875,498.438 621.812,497.938 621.812,497.438L621.812,497C621.812,495.938 620.687,495.5 619.875,495.5C618.312,495.5 618.125,496 618.062,496.313C618.062,496.375 618,496.438 618,496.563C618,496.75 618.062,497.063 618.125,497.375C618.187,497.813 618.25,498.313 618.312,498.75C618.437,500.813 618.437,505.438 618.437,508.188C618.437,510.875 618.312,513.688 617.875,517.313C617.812,517.938 617.812,518.438 617.812,518.75C617.812,519.125 617.875,519.313 618.125,519.438C618.25,519.5 618.5,519.5 619.062,519.5C619.562,519.438 620.187,519.375 620.937,519.375C622.5,519.375 622.875,518.313 622.875,517.125C622.875,516.25 622.625,515.25 622.5,514.5C622.25,513.25 622.187,510.938 622.187,508.625C622.187,507.375 622.187,506.188 622.25,505.125C622.437,501.75 624.687,499.875 626.812,499.375C627.625,499.188 628.187,499.125 628.75,499.125C629.5,499.125 630,499.25 630.812,499.563C630.937,499.563 631.125,499.75 631.25,499.75C631.437,499.75 631.5,499.688 631.562,499.5C631.687,499.438 631.812,499.188 631.875,498.875C632.062,498.563 632.187,498.188 632.312,497.75C632.5,497.125 632.625,496.688 632.625,496.438C632.625,496.125 632.5,495.938 632.312,495.813Z" style="fill-rule:nonzero;"/>
    <path d="M652.875,519.438C653.375,519.125 653.812,518.75 654.125,518.438C654.437,518.063 654.75,517.75 655.062,517.563C655.437,517.188 655.875,517 656.312,517C656.937,517 657.5,517.5 657.5,518.25C657.5,518.438 657.5,518.625 657.437,518.813C657.437,518.875 657.375,518.938 657.375,519C657.375,519.563 658,519.625 659.75,519.75L660.062,519.75C661,519.75 661.187,519.5 661.312,519.25L661.312,506.938C661.312,504.875 661.25,502.688 661.25,500.688C661.25,499.688 661.25,498.75 661.312,497.875L661.312,497.563C661.312,495.938 660.5,495.875 659.437,495.875L658.812,495.875C658.062,495.875 657.687,495.938 657.687,496.375C657.687,496.688 657.75,496.938 657.75,497.125C657.75,498.125 657.375,499 656.625,499.25C656.5,499.313 656.437,499.313 656.312,499.313C655.875,499.313 655.312,499 654.75,498.5C654.187,498 653.75,497.438 653.25,496.938C652.562,496.063 650,495.313 647.625,495.313C644.125,495.313 640.125,497.563 638.187,500.25C636.812,502.25 636.312,505.375 636.062,507.938L636.062,508.438C636.062,510.875 637.5,514.813 639.062,516.75C640.687,518.813 643.437,520.688 648.062,520.688C650.312,520.688 651.812,520.125 652.875,519.438ZM657.687,507.938C657.5,510.563 656.625,513.688 654.437,515.313C652.75,516.625 651.437,516.938 649.5,516.938C649.125,516.938 648.75,516.875 648.25,516.875C645.437,516.688 643.062,515.438 642.062,513.813C641.25,512.313 640.687,510.375 640.687,508.188L640.687,507.625C640.812,505.375 641.75,501.563 642.937,500.688C643.812,500 646.5,498.875 648.75,498.875C649.125,498.875 649.5,498.875 649.875,498.938L651.312,499.25C651.562,499.25 651.562,499.313 651.625,499.313C652,499.438 652.562,499.5 652.937,499.688C654.062,500.063 655.125,500.75 655.937,502.125L656.875,503.75C656.937,504.188 657.312,504.625 657.5,505C657.687,505.5 657.812,506.063 657.812,506.688C657.812,507.063 657.75,507.5 657.687,507.938Z" style="fill-rule:nonzero;"/>
    <path d="M685.375,495.813C684.937,495.625 683.437,495.125 681.75,495.125C680.062,495.125 677.75,496.625 676.937,498.188C676.75,498.563 676.5,498.938 676.187,499.125C676,499.188 675.875,499.188 675.812,499.188C675.5,499.188 675.25,499 675.125,498.813C674.937,498.438 674.875,497.938 674.875,497.438L674.875,497C674.875,495.938 673.75,495.5 672.937,495.5C671.375,495.5 671.187,496 671.125,496.313C671.125,496.375 671.062,496.438 671.062,496.563C671.062,496.75 671.125,497.063 671.187,497.375C671.25,497.813 671.312,498.313 671.375,498.75C671.5,500.813 671.5,505.438 671.5,508.188C671.5,510.875 671.375,513.688 670.937,517.313C670.875,517.938 670.875,518.438 670.875,518.75C670.875,519.125 670.937,519.313 671.187,519.438C671.312,519.5 671.562,519.5 672.125,519.5C672.625,519.438 673.25,519.375 674,519.375C675.562,519.375 675.937,518.313 675.937,517.125C675.937,516.25 675.687,515.25 675.562,514.5C675.312,513.25 675.25,510.938 675.25,508.625C675.25,507.375 675.25,506.188 675.312,505.125C675.5,501.75 677.75,499.875 679.875,499.375C680.687,499.188 681.25,499.125 681.812,499.125C682.562,499.125 683.062,499.25 683.875,499.563C684,499.563 684.187,499.75 684.312,499.75C684.5,499.75 684.562,499.688 684.625,499.5C684.75,499.438 684.875,499.188 684.937,498.875C685.125,498.563 685.25,498.188 685.375,497.75C685.562,497.125 685.687,496.688 685.687,496.438C685.687,496.125 685.562,495.938 685.375,495.813Z" style="fill-rule:nonzero;"/>
    <path d="M713.812,497.313C714,497 714.062,496.813 714.062,496.688C714.062,496.438 713.875,496.375 713.687,496.313C713.437,496.188 713.062,496.125 712.687,496.063L711.75,496C711.562,496 711.25,495.938 711,495.938C710.437,495.938 709.875,496.063 709.812,496.5C709.687,497.625 707.875,501.688 707.187,503.188C706.5,504.625 705,508.375 704.5,509.813C704,511.438 703.125,513.563 701.75,513.938C701.562,514 701.375,514.063 701.25,514.063C700.625,514.063 700.25,513.625 700,513.063C700,512.813 699.875,512.5 699.812,512.125C699.75,511.813 699.687,511.438 699.625,511.125C699.437,510.438 699.062,509.75 698.625,508.813C698.125,507.938 697.625,506.938 697.187,505.813C696.312,503.563 694.875,500.313 694.062,497.938C693.25,495.938 692.625,495.813 690.562,495.625L690.125,495.625C689.187,495.625 688.812,496 688.812,496.438C688.812,497.313 689.687,498.438 690.125,498.875C690.687,499.5 691.375,500.875 692.125,502.25C692.812,503.625 693.625,505.125 694.375,506.313C694.687,506.938 695.062,507.625 695.375,508.375L696.25,510.625C696.875,512.125 697.437,513.563 698.312,514.563C699.437,515.938 699.875,517.25 699.875,518.313L699.875,518.563C699.875,519.25 699.687,519.875 699.5,520.313C699,521.125 698.312,522.313 697.562,524.5C697.187,525.625 696.562,526.688 696,527.625C695.437,528.563 694.875,529.438 694.375,530.438C694.187,530.75 694.062,531.063 694.062,531.188C694.062,531.938 695,531.938 696.562,532.063C696.687,532.063 696.875,532.125 697,532.125C697.75,532.125 698.062,531.875 698.25,531.625C698.437,531.375 698.562,531.125 698.687,530.75L699.125,529.5C699.5,528.563 699.812,527.625 700.125,526.75C700.5,525.813 700.875,524.875 701.375,523.938C702.375,522.063 704.062,517 705.312,514.625C706.5,512.313 708.125,508.313 709.062,506.375C710,504.438 712.625,499.375 713.812,497.313Z" style="fill-rule:nonzero;"/>
    <path d="M759.312,511C759.375,510.688 759.375,510.438 759.375,510.125C759.375,508.313 758.75,506.563 758,504.813C757.25,502.875 755.25,500.75 753.312,499.688C751.187,498.563 747.312,497.125 744.937,495.75C742.375,494.313 742.062,492 741.875,490.875C741.812,490.625 741.812,490.375 741.812,490.125C741.812,489.188 742,488.188 742.437,487.375C743.062,486.313 744.875,485.313 747.25,485.125L747.625,485.125C750,485.125 751.5,486.563 753,488.813C753.625,489.875 754.375,490.25 755.187,490.25C755.75,490.25 756.312,490.063 756.875,489.813C757.625,489.563 757.937,489.188 757.937,488.688C757.937,488.438 757.875,488.188 757.687,487.875C757.062,486.688 756.062,485 754.375,483.25C752.812,481.563 750.437,480.813 746.75,480.75L746.375,480.75C743.125,480.75 740.812,482.375 739.5,483.625C738.125,484.813 737.437,486.688 737.312,488C737.312,488.25 737.25,488.5 737.25,488.75C737.25,490.125 737.5,492.125 737.75,493.25C738.125,494.5 739.875,497.375 741.812,498.563C743.937,499.75 747.687,501.813 750.5,503.188C751.937,503.875 752.875,504.625 753.5,505.5C754.125,506.375 754.5,507.313 754.875,508.25L755,508.438C755.187,509.063 755.312,509.625 755.312,510.125C755.312,511.688 754.5,512.875 753.562,513.875C752.25,515.25 750.5,516.375 748.312,516.438C748,516.438 747.75,516.5 747.562,516.5C745.812,516.5 744.687,516 743.312,515.313C741.562,514.5 740.375,513.063 739.875,511.625C739.437,510.5 738.625,510.125 738.187,510.125C737.5,510.125 736.125,510.5 735.125,511.688C734.875,511.938 734.75,512.25 734.75,512.5C734.75,513.25 735.625,514.125 736.312,514.75C736.437,514.813 737,515.375 737.312,515.75C738.312,516.75 739.375,517.938 740.5,518.875C742,520 744.937,520.688 747.312,520.688L747.75,520.688C749.687,520.688 751.562,520.125 752.875,519.75C754.625,519.188 755.812,517.938 757.062,516.25C758.25,514.563 759.125,513.063 759.312,511Z" style="fill-rule:nonzero;"/>
    <path d="M789.375,483.313L789.375,482.875C789.375,481.875 789.125,481.688 788.937,481.563C788.812,481.5 788.562,481.438 788.25,481.438L787.312,481.438C787.062,481.438 786.75,481.375 786.375,481.375C785.625,481.375 784.5,481.438 783.25,481.5L782.75,481.5C782.125,481.5 778.812,481.688 776.812,481.813C776.125,481.875 775.375,481.875 774.5,481.875C771.187,481.875 767,481.688 765.625,481.438L765.375,481.438C764.625,481.438 763.875,482.063 763.875,483.875L763.875,484.188C764,486 765.562,486.25 766.937,486.25C767.625,486.25 768.562,486.063 769.75,486C770.187,485.938 770.75,485.938 771.312,485.938C772,485.938 772.625,486 773.312,486.125C774.562,486.5 775.125,487.313 775.187,488.438C775.25,488.688 775.312,489.063 775.312,489.438C775.312,489.688 775.25,489.938 775.25,490.188C775.187,490.875 775.125,491.688 775.125,492.563C775.125,496.063 774.625,501.563 774.625,506.063C774.625,510.625 774.187,514.563 773.625,517C773.562,517.313 773.562,517.625 773.562,517.875C773.562,519.313 774.5,519.938 776.687,520.063L777.187,520.063C779.25,520.063 779.375,519.188 779.375,518.75C779.375,518 779.187,516.063 779,513.313C778.937,512.813 778.937,512.188 778.937,511.438C778.937,508.875 779.187,505.125 779.187,502.625C779.187,501.938 779.187,501.375 779.125,500.875C779,500.063 779,498.688 779,497.125C779,493.938 779.125,490.063 779.125,488.25C779.125,486.75 779.562,486 780.562,485.75L781.187,485.75C781.75,485.75 782.375,485.813 782.937,485.875C784.5,486 785.5,486.25 787.312,486.25C788.75,486.25 789.125,486.125 789.375,483.313Z" style="fill-rule:nonzero;"/>
    <path d="M824.437,518.938C824.375,518.438 823.875,517.625 823.625,517.188C822.812,515.938 821.375,513 821,511.813C820.625,510.75 817.812,504.063 816.812,501.875C815.875,499.688 811.375,489.688 810.625,487.938C810.25,487.063 809.812,485.188 809.25,483.5C809.25,483.438 809.187,483.375 809.187,483.313C808.687,482 808.312,480.75 807.562,480.75C806.812,480.75 806.375,481.188 805.812,482.625C805.25,483.938 804.75,485.875 803.875,488.063C802.125,492.438 799.687,497.75 798.062,501.75C796.375,505.75 794.25,509.813 792.5,513.125C790.812,516.438 789.75,518.625 789.75,519.313C789.75,520.25 791.812,520.313 792.312,520.313C794.125,520.313 795,519.438 795.062,518.563C795.187,517.875 795.75,516.25 796.375,514.625C797.062,513 797.75,511.25 798.062,510.125C798.375,508.688 799.312,508.063 800.25,507.875C800.562,507.813 800.937,507.75 801.312,507.75C801.75,507.75 802.187,507.813 802.625,507.875C802.937,507.938 803.75,507.938 804.875,507.938C807.5,507.938 811.687,507.875 813.687,507.75C815.5,507.813 816.437,509.188 817,510.688C817.625,512.313 818,514.313 818.562,516.125C819.375,519 820.125,519.813 821.812,519.813C822.187,519.813 822.687,519.75 823.125,519.688C824.312,519.563 824.437,519.25 824.437,518.938ZM813.062,502.375L813.062,502.688C813.062,503.25 812.812,503.688 812.312,503.875C811.625,504.25 810.312,504.375 807.937,504.375C804.187,504.375 801.812,504.125 801.812,502.438C801.812,502.125 801.875,501.75 802.062,501.375L805,493.688C805.437,492.375 806.437,490.875 807.437,490.875C809,490.875 809.687,492.188 810.062,493.313C810.375,494.5 810.437,495.75 810.625,496.563C810.687,496.875 810.875,497.313 811.125,497.875L811.937,499.5C812.5,500.688 813.062,501.875 813.062,502.375Z" style="fill-rule:nonzero;"/>
    <path d="M853.812,518.063C853.5,517.5 853,516.938 852.562,516.375L851.437,515C851,514.375 850.25,513.563 849.5,512.813L845.125,508.563C844.375,507.625 843.312,506.625 842.25,505.688C841.375,505 841.062,504.375 841.062,503.813C841.062,502.625 842.687,501.813 844.187,501.5C845,501.313 845.437,501.125 846,500.813C846.625,500.438 847.312,499.938 848.5,499C850.75,497.313 851.437,493.563 851.687,491.063L851.687,490.875C851.687,488.688 848.812,484.813 847.375,483.563C846.062,482.563 841.5,482 839.5,482C837.562,482 833.562,481.875 831.812,481.75L831.5,481.75C830.437,481.75 830.125,482.188 830.125,482.75L830.125,483.125C830.312,483.75 830.312,484.938 830.375,486.188C830.375,487.438 830.375,488.875 830.437,490C830.5,492.313 830.687,501.125 830.687,503.875C830.687,506.5 830.125,512.75 829.812,516.375C829.75,516.688 829.75,517 829.75,517.313C829.75,518.313 829.937,518.813 830.25,519.063C830.437,519.25 830.75,519.375 831.125,519.5C831.562,519.563 832.062,519.625 832.625,519.688C832.937,519.75 833.125,519.75 833.312,519.75C833.937,519.75 834.187,519.625 834.25,519.5C834.437,519.375 834.5,518.813 834.5,518.563C834.5,518 834.562,517.25 834.562,516.375C834.562,515.75 834.5,515.063 834.5,513.938C834.5,511.063 834.125,508.063 834.125,505.063C834.125,503.438 834.562,502.938 835.125,502.938C835.937,502.938 836.875,503.875 837.187,504.5C837.562,505.125 838.562,506.563 839.812,507.875C841.062,509.188 843.312,512.313 844.062,513.125C844.812,513.938 846.75,516.563 848.125,518.375L848.25,518.625C848.812,519.438 849.437,519.625 850.312,519.688C851.25,519.688 852.375,519.5 853.812,519.438C854.187,519.438 854.312,519.25 854.312,519.125C854.312,518.875 854.062,518.5 853.812,518.063ZM847.5,492C847.5,494.125 846.875,496.313 845.062,497.438C844.25,497.938 843.5,498.5 842.625,498.875C841.687,499.313 840.562,499.563 839.062,499.563C838.312,499.563 837.625,499.625 837,499.625C836.375,499.625 835.812,499.625 835.312,499.5C834.125,499.125 833.562,498.188 833.562,496.375L833.562,492.188C833.562,491.063 833.687,490.125 833.875,489.313L834.375,487.438C834.5,487 834.625,486.563 834.812,486.25C835.062,485.75 836.437,485.438 837.625,485.438C837.937,485.438 838.187,485.5 838.375,485.5C840.125,485.688 843.875,486.188 845.125,487.5C845.75,488 846.312,488.563 846.687,489.25C847.187,490 847.5,490.813 847.5,492Z" style="fill-rule:nonzero;"/>
    <path d="M883.5,483.313L883.5,482.875C883.5,481.875 883.25,481.688 883.062,481.563C882.937,481.5 882.687,481.438 882.375,481.438L881.437,481.438C881.187,481.438 880.875,481.375 880.5,481.375C879.75,481.375 878.625,481.438 877.375,481.5L876.875,481.5C876.25,481.5 872.937,481.688 870.937,481.813C870.25,481.875 869.5,481.875 868.625,481.875C865.312,481.875 861.125,481.688 859.75,481.438L859.5,481.438C858.75,481.438 858,482.063 858,483.875L858,484.188C858.125,486 859.687,486.25 861.062,486.25C861.75,486.25 862.687,486.063 863.875,486C864.312,485.938 864.875,485.938 865.437,485.938C866.125,485.938 866.75,486 867.437,486.125C868.687,486.5 869.25,487.313 869.312,488.438C869.375,488.688 869.437,489.063 869.437,489.438C869.437,489.688 869.375,489.938 869.375,490.188C869.312,490.875 869.25,491.688 869.25,492.563C869.25,496.063 868.75,501.563 868.75,506.063C868.75,510.625 868.312,514.563 867.75,517C867.687,517.313 867.687,517.625 867.687,517.875C867.687,519.313 868.625,519.938 870.812,520.063L871.312,520.063C873.375,520.063 873.5,519.188 873.5,518.75C873.5,518 873.312,516.063 873.125,513.313C873.062,512.813 873.062,512.188 873.062,511.438C873.062,508.875 873.312,505.125 873.312,502.625C873.312,501.938 873.312,501.375 873.25,500.875C873.125,500.063 873.125,498.688 873.125,497.125C873.125,493.938 873.25,490.063 873.25,488.25C873.25,486.75 873.687,486 874.687,485.75L875.312,485.75C875.875,485.75 876.5,485.813 877.062,485.875C878.625,486 879.625,486.25 881.437,486.25C882.875,486.25 883.25,486.125 883.5,483.313Z" style="fill-rule:nonzero;"/>
    <path d="M925.562,488.063C925.625,487.75 925.687,487.188 925.687,486.563C925.687,485.688 925.562,484.625 925.437,483.75C925.25,483.125 924.687,482.5 924,481.813C923.375,481.188 922.687,480.688 922.25,480.313L921.75,479.813L921.5,479.5C921.312,479.313 921.125,479.188 920.562,479.063C920.25,479.063 919.937,478.938 919.625,478.875C918.687,478.563 917.625,478.125 916.562,478.125C913.25,478.125 910.375,480 909.062,481.125C907.812,482.25 907.062,484.875 907.062,485.813C907.062,486.063 907,486.375 906.937,486.75L906.812,488.063C906.687,488.625 906.625,489.313 906.625,490.063C906.625,490.438 906.687,490.875 906.75,491.5C906.75,492 906.812,492.313 906.812,492.625C906.812,493.563 906.5,494.125 905.937,494.25C905.812,494.313 905.625,494.313 905.437,494.313L904.75,494.313C904.625,494.313 904.375,494.313 904.25,494.375C903.812,494.5 903.25,494.625 902.875,494.875C902.562,495.125 902.375,495.438 902.375,496.25C902.375,497.688 903,497.938 903.875,497.938L904.562,497.938C905.312,497.938 905.875,498.25 906.562,498.625C907.125,498.938 907.312,499.5 907.312,500.125C907.312,500.375 907.25,500.625 907.25,500.813L907.062,502.188C906.937,502.625 906.875,503.063 906.875,503.375C906.875,504.875 906.875,509.875 907.187,510.625C907.25,510.75 907.25,510.875 907.25,511C907.25,511.375 907.062,511.75 906.875,512.125C906.812,512.375 906.562,512.625 906.562,512.813C906.562,512.875 906.625,512.938 906.687,513C906.875,513.25 907,513.563 907,513.875C907,514.375 906.625,514.938 906.187,515.563C906.062,515.75 906,516 906,516.25C906,517.125 906.812,518.25 907.125,518.688C907.312,518.938 907.75,519 908.312,519C909.125,519 910.25,518.813 910.812,518.563C911.25,518.438 911.437,517.688 911.437,516.813C911.437,516.125 911.312,515.375 911.25,514.813C911.187,514.313 911.062,514 910.875,513.563C910.687,513.25 910.562,512.938 910.562,512.563L910.562,512.313C910.687,511.625 910.812,510.75 910.812,509.813C910.812,509.438 910.812,509 910.75,508.625C910.562,507.313 910.437,504.563 910.25,503.563C910.25,503.25 910.187,502.875 910.187,502.438C910.187,501.688 910.25,500.938 910.625,500.063C911.187,498.688 912.062,497.938 913.25,497.75L913.5,497.75C914,497.75 914.5,497.938 914.937,498C915.25,498.188 915.625,498.25 916,498.25L916.187,498.25C916.5,498.25 916.625,497.938 916.625,497.25L916.625,497C916.625,496.375 916.5,495.75 916.5,495.313C916.437,494.875 915.937,494.813 915.437,494.813L914.062,494.813C913.687,494.813 913.25,494.813 912.937,494.688C911.562,494.375 910.562,493.625 910.562,492.313C910.562,491.75 910.562,491.125 910.5,490.5C910.5,490.313 910.437,490.125 910.437,489.875C910.437,489.5 910.5,489.125 910.625,488.813C910.687,488.625 910.75,488.375 910.75,487.938C910.875,487.063 910.875,485.063 911.75,484.625L912.812,484.125C913.062,483.938 913.125,483.875 913.187,483.5C913.312,482.938 913.937,482.625 914.562,482.438C915.187,482.25 916,482.063 916.812,481.813C917,481.75 917.187,481.688 917.437,481.688C918.062,481.688 918.5,482 918.875,482.438C919.312,482.938 919.75,483.563 920.25,484C920.937,484.5 921.187,485.25 921.312,485.938C921.375,486.313 921.375,486.688 921.375,487L921.375,487.75C921.375,488.313 922.875,489.188 924,489.188C925.062,489.188 925.437,488.75 925.562,488.063ZM926.312,517.563C926.312,517.188 926.312,516.75 926.187,516.375L926.062,515C925.875,513.188 925.562,508.813 925.562,506.5C925.562,504.188 925.562,499.625 925.75,497L925.75,496.563C925.75,495.625 925.562,495.125 925.312,494.938C925.187,494.813 924.937,494.75 924.687,494.625L923.687,494.375C923.562,494.375 923.437,494.313 923.312,494.313C922.687,494.313 921.937,494.625 921.812,495C921.75,495.438 921.562,496.375 921.562,497.313C921.562,497.938 921.625,498.5 921.812,498.875C922,499.25 922.062,500 922.062,500.813C922.062,501.438 922.062,502.063 922,502.75C921.875,503.938 921.812,505.188 921.812,506.25C921.812,506.688 921.812,507.063 921.875,507.438C921.937,508.438 922,509.813 922,511.313C922,513.563 921.875,516.063 921.687,517.438L921.687,517.75C921.687,518.75 922.437,519 923.375,519C924.062,519 924.875,518.875 925.5,518.75C926.125,518.625 926.312,518.25 926.312,517.563Z" style="fill-rule:nonzero;"/>
    <path d="M943.187,518.688C943.187,517.75 942.812,514.188 942.562,512.688C942.437,511.938 942.437,508.938 942.437,505.813L942.437,497.25C942.437,493.313 942.687,485.625 942.937,482.188L942.937,481.563C942.937,479.25 941.812,479.125 940.562,478.938L940.25,478.938C939.375,478.938 938.375,479.188 938.375,479.5C938.375,480 938.5,482.813 938.625,484.25C938.687,485 938.687,488 938.687,491.25L938.687,499.5C938.75,500.438 938.75,502 938.75,503.75C938.75,508.188 938.687,514.188 938.5,517C938.437,517.313 938.437,517.563 938.437,517.813C938.437,519.125 938.812,519.625 939.187,519.813C939.437,520.063 939.937,520.125 940.312,520.125C940.687,520.125 941.062,520.063 941.375,520.063C943,519.938 943.187,519.375 943.187,518.688Z" style="fill-rule:nonzero;"/>
    <path d="M975.312,507.25C975.312,507.188 975.375,507.125 975.375,507C975.375,506.938 975.312,506.75 975.312,506.563L975.062,505.25C974.625,503.25 972.437,499.938 970.812,498C969.187,496.25 966.062,495.188 963.437,495.063L962.75,495.063C960.062,495.063 957.937,496.375 955.75,497.813L955.25,498.125C952.875,499.563 951.187,504.313 951.062,508.063L951.062,508.25C951.062,511.813 953.75,515.75 955.875,518.125C957.937,520.313 962.187,520.375 964.312,520.375C966.312,520.375 967.937,519.875 969,519.313C969.437,519.063 970.062,518.563 970.812,517.938C971.5,517.313 972.25,516.688 973.062,516.063C973.687,515.625 974,515.125 974,514.625C974,514.063 973.687,513.5 972.75,512.75C972.437,512.5 972.125,512.375 971.937,512.375C971.625,512.375 971.437,512.563 971.187,512.75C970.75,513.25 970.437,513.875 970.187,514.5C969.687,515.625 967.187,516.875 964.062,516.875L963.562,516.875C961.5,516.813 959.75,516.188 958.187,514.938L957.25,514.188C956.25,513.313 955.25,510.813 955.25,509.25L955.25,508.813C955.437,508.063 956.937,507.625 958.812,507.563C960.375,507.563 962.125,507.625 963.062,507.625C964.375,507.625 968,507.688 970.812,507.688C972.25,507.688 973.5,507.688 974.187,507.625C975.25,507.625 975.312,507.375 975.312,507.25ZM970.875,503.125C971.062,503.438 971.125,503.688 971.125,503.938C971.125,504.625 970.562,505.063 969.437,505.063C967,505.063 964.312,505.125 963.25,505.125C962.125,505.125 958.812,505.063 958.125,504.875C957.437,504.813 955.937,504 955.937,502.875C955.937,502.5 956.062,502.125 956.375,501.75C957.375,500.375 960.125,498.5 963.375,498.5L963.625,498.5C966.562,498.625 967.562,499.5 969,500.875C969.625,501.5 970.5,502.313 970.875,503.125Z" style="fill-rule:nonzero;"/>
    <path d="M1011.44,480.625L1011.44,480.25C1011.44,479.25 1010.94,478.75 1010.25,478.5C1009.38,478.188 1008.31,478.125 1007.38,478C1005.56,478 1003.81,479.688 1002.69,480.813C1001.06,482.375 1000.38,485.5 1000.38,487L1000.75,493.938C1000.75,495.438 1000,495.813 999.062,495.813C998.5,495.813 997.812,495.688 997.25,495.438L997,495.438C996.437,495.438 995.937,496.063 995.75,497C995.687,497.313 995.625,497.438 995.625,497.625C995.625,498.25 995.937,498.625 996.437,498.875C996.75,499.063 997.187,499.125 997.562,499.125C997.875,499.125 998.25,499.125 998.562,499.063C999.375,499.063 1000.31,499.063 1000.69,499.938C1000.88,500.25 1000.88,500.563 1000.88,500.938L1000.88,506.188C1000.88,508 1000.5,514.063 1000.12,516.875C1000.06,517.125 1000.06,517.313 1000.06,517.563C1000.06,519.375 1001.25,519.813 1003.19,519.938L1003.44,519.938C1004.31,519.938 1004.56,519.75 1004.69,519.5C1004.81,519.188 1004.81,518.75 1004.81,518.375L1004.81,517.813C1004.81,516.375 1004.38,512.063 1004.38,509.25L1004.38,501.188C1004.38,499.938 1004.75,499.188 1005.75,499C1006.12,498.875 1006.56,498.875 1007.12,498.875C1007.56,498.938 1008.12,498.938 1008.75,498.938C1010,498.938 1010.44,498.75 1010.62,498.563C1010.62,498.438 1010.75,498.25 1010.81,497.938L1010.94,496.875C1010.94,496.25 1010.56,496.125 1010.19,496.063C1009.81,496 1009.38,496 1009,496L1007.56,496C1005.25,496 1004.62,493.875 1004.44,492.188C1004.38,491.375 1004.31,490.125 1004.31,489.063C1004.31,487.938 1004.38,486.813 1004.62,486.063C1005.12,484.813 1006.88,482.875 1009.06,482.875L1009.31,482.875C1009.75,482.875 1010.12,482.938 1010.44,482.938C1010.69,482.938 1010.81,482.875 1010.88,482.813C1011.25,482.563 1011.25,482 1011.38,480.875C1011.38,480.813 1011.44,480.75 1011.44,480.625Z" style="fill-rule:nonzero;"/>
    <path d="M1041.56,508.313L1041.56,508C1041.56,503.75 1039.56,500.563 1037.69,498.563C1035.81,496.625 1032.75,495.063 1029.25,494.938L1028.94,494.938C1023.25,494.938 1020.75,497.313 1018.94,499.188C1017.06,501.063 1015.62,503.875 1015.62,507.875C1015.62,511.875 1018,515.75 1019.94,517.5C1021.81,519.188 1024.62,520.438 1028.25,520.438L1028.62,520.438C1032.5,520.313 1035.5,519.813 1038.19,516.938C1040.88,513.938 1041.56,512.875 1041.56,508.313ZM1038,507.625C1038,510 1037.12,513.25 1035.56,514.438C1035.19,514.625 1034.81,514.938 1034.31,515.25C1032.75,516.313 1031,517.125 1029.12,517.125C1028.88,517.125 1028.62,517.125 1028.31,517.063C1025.31,516.688 1023.88,516.063 1022.06,513.938C1020.25,511.938 1019.69,510.313 1019.69,507.75C1019.69,505.25 1020.12,502.875 1022.62,501C1025.06,499.188 1027,498.938 1029,498.938C1032.19,498.938 1034.5,499.813 1035.81,502.125C1036.44,503.188 1037,503.875 1037.38,504.688C1037.69,505.5 1038,506.375 1038,507.625Z" style="fill-rule:nonzero;"/>
    <path d="M1063.25,495.813C1062.81,495.625 1061.31,495.125 1059.62,495.125C1057.94,495.125 1055.62,496.625 1054.81,498.188C1054.62,498.563 1054.38,498.938 1054.06,499.125C1053.88,499.188 1053.75,499.188 1053.69,499.188C1053.38,499.188 1053.12,499 1053,498.813C1052.81,498.438 1052.75,497.938 1052.75,497.438L1052.75,497C1052.75,495.938 1051.62,495.5 1050.81,495.5C1049.25,495.5 1049.06,496 1049,496.313C1049,496.375 1048.94,496.438 1048.94,496.563C1048.94,496.75 1049,497.063 1049.06,497.375C1049.12,497.813 1049.19,498.313 1049.25,498.75C1049.38,500.813 1049.38,505.438 1049.38,508.188C1049.38,510.875 1049.25,513.688 1048.81,517.313C1048.75,517.938 1048.75,518.438 1048.75,518.75C1048.75,519.125 1048.81,519.313 1049.06,519.438C1049.19,519.5 1049.44,519.5 1050,519.5C1050.5,519.438 1051.12,519.375 1051.88,519.375C1053.44,519.375 1053.81,518.313 1053.81,517.125C1053.81,516.25 1053.56,515.25 1053.44,514.5C1053.19,513.25 1053.12,510.938 1053.12,508.625C1053.12,507.375 1053.12,506.188 1053.19,505.125C1053.38,501.75 1055.62,499.875 1057.75,499.375C1058.56,499.188 1059.12,499.125 1059.69,499.125C1060.44,499.125 1060.94,499.25 1061.75,499.563C1061.88,499.563 1062.06,499.75 1062.19,499.75C1062.38,499.75 1062.44,499.688 1062.5,499.5C1062.62,499.438 1062.75,499.188 1062.81,498.875C1063,498.563 1063.12,498.188 1063.25,497.75C1063.44,497.125 1063.56,496.688 1063.56,496.438C1063.56,496.125 1063.44,495.938 1063.25,495.813Z" style="fill-rule:nonzero;"/>
    <path d="M1096.12,497.313C1096.12,496.813 1095.88,496.625 1095.38,496.438C1095.06,496.375 1094.69,496.375 1094.31,496.375C1093.88,496.375 1093.5,496.313 1093.06,496.313L1092,496.188C1091.69,496.188 1091.44,496.125 1091.19,496.063C1090.62,495.875 1090.25,495.438 1090.25,494.813C1090.25,493.938 1090.25,492.438 1090.38,490L1090.38,489.75C1090.38,488.813 1090.19,488.5 1090,488.375C1089.69,488.125 1089.06,488.125 1088.69,488.125L1088.5,488.125C1087.56,488.125 1087,488.875 1086.94,489.25C1086.94,489.313 1086.88,489.438 1086.88,489.5C1086.88,489.813 1086.94,490.313 1087,490.938C1087.12,491.75 1087.25,492.813 1087.25,493.875L1087.25,494.188C1087.25,495.313 1086.75,495.938 1085.94,496.125C1085.69,496.188 1085.44,496.188 1085.19,496.188C1084.75,496.188 1084.19,496.125 1083.75,496.125C1082.88,496.125 1082.38,496.688 1082.19,498.563C1082.19,498.625 1082.12,498.688 1082.12,498.75C1082.12,499.125 1082.38,499.25 1082.88,499.375C1083.19,499.438 1083.5,499.438 1083.81,499.438C1084.12,499.438 1084.44,499.375 1084.69,499.375C1085.69,499.375 1087,500.125 1087,501.5C1087,502.5 1087.19,504.688 1087.19,507.5C1087.19,510.313 1086.81,515.688 1086.81,518.125C1086.81,519.313 1087,519.625 1087.19,519.75L1087.69,519.875L1088.81,519.875C1090.38,519.875 1090.88,519.688 1090.88,518.875L1090.88,518.438C1090.69,516.688 1090.38,512.188 1090.31,509.563C1090.25,508.688 1090.19,507.625 1090.19,506.563C1090.19,504.5 1090.31,502.375 1090.38,501C1090.44,499.625 1091.25,499.063 1092.25,499L1092.44,499C1093.19,499 1093.88,499.188 1094.62,499.25L1094.88,499.25C1095.69,499.25 1096.12,498.813 1096.12,497.313Z" style="fill-rule:nonzero;"/>
    <path d="M1125.38,507.25C1125.38,507.188 1125.44,507.125 1125.44,507C1125.44,506.938 1125.38,506.75 1125.38,506.563L1125.12,505.25C1124.69,503.25 1122.5,499.938 1120.88,498C1119.25,496.25 1116.12,495.188 1113.5,495.063L1112.81,495.063C1110.12,495.063 1108,496.375 1105.81,497.813L1105.31,498.125C1102.94,499.563 1101.25,504.313 1101.12,508.063L1101.12,508.25C1101.12,511.813 1103.81,515.75 1105.94,518.125C1108,520.313 1112.25,520.375 1114.38,520.375C1116.38,520.375 1118,519.875 1119.06,519.313C1119.5,519.063 1120.12,518.563 1120.88,517.938C1121.56,517.313 1122.31,516.688 1123.12,516.063C1123.75,515.625 1124.06,515.125 1124.06,514.625C1124.06,514.063 1123.75,513.5 1122.81,512.75C1122.5,512.5 1122.19,512.375 1122,512.375C1121.69,512.375 1121.5,512.563 1121.25,512.75C1120.81,513.25 1120.5,513.875 1120.25,514.5C1119.75,515.625 1117.25,516.875 1114.12,516.875L1113.62,516.875C1111.56,516.813 1109.81,516.188 1108.25,514.938L1107.31,514.188C1106.31,513.313 1105.31,510.813 1105.31,509.25L1105.31,508.813C1105.5,508.063 1107,507.625 1108.88,507.563C1110.44,507.563 1112.19,507.625 1113.12,507.625C1114.44,507.625 1118.06,507.688 1120.88,507.688C1122.31,507.688 1123.56,507.688 1124.25,507.625C1125.31,507.625 1125.38,507.375 1125.38,507.25ZM1120.94,503.125C1121.12,503.438 1121.19,503.688 1121.19,503.938C1121.19,504.625 1120.62,505.063 1119.5,505.063C1117.06,505.063 1114.38,505.125 1113.31,505.125C1112.19,505.125 1108.88,505.063 1108.19,504.875C1107.5,504.813 1106,504 1106,502.875C1106,502.5 1106.12,502.125 1106.44,501.75C1107.44,500.375 1110.19,498.5 1113.44,498.5L1113.69,498.5C1116.62,498.625 1117.62,499.5 1119.06,500.875C1119.69,501.5 1120.56,502.313 1120.94,503.125Z" style="fill-rule:nonzero;"/>
    <path d="M1146.31,512.438C1146.31,510.438 1144.94,508.938 1143.69,507.688C1142.69,506.688 1138.88,504.625 1137.56,504C1136.12,503.375 1134.75,502.313 1134.75,500.75C1134.75,499.188 1136,498.563 1137.56,498.563L1138.12,498.563C1140.12,498.625 1141.19,499.313 1142.69,500.563C1143.19,501 1143.44,501.063 1143.56,501.063C1143.75,501.063 1143.88,500.938 1144,500.813L1144.44,500.313C1144.56,500.125 1144.75,499.938 1144.81,499.75C1145,499.5 1145.06,499.25 1145.06,499.063C1145.06,498.813 1145,498.563 1144.75,498.25C1143.88,497.313 1141.31,495.563 1137.56,495.438L1137.12,495.438C1136.06,495.438 1135.5,495.563 1135.06,495.75C1134.56,496 1134.19,496.375 1133.81,496.75C1132.94,497.438 1131.88,498.688 1131.75,500.125C1131.75,500.375 1131.69,500.625 1131.69,500.813C1131.69,502.25 1132,503.438 1132.88,504.563C1133.88,505.938 1136.12,507.313 1138.5,508.313C1141,509.313 1143.38,511.25 1143.38,513.313C1143.38,515.438 1141.62,516.688 1138.88,516.875C1138.69,516.875 1138.5,516.938 1138.38,516.938C1135.69,516.938 1133.81,514.688 1133.38,513.813C1133.25,513.375 1132.75,513.125 1132.38,513.125C1132.12,513.125 1131.75,513.25 1131.31,513.313C1130.38,513.563 1130.06,514.313 1130.06,515.063C1130.06,515.313 1130.06,515.625 1130.25,515.875C1130.69,516.688 1132.31,517.938 1133.81,518.875C1135.19,519.625 1137.62,520.125 1139.31,520.125C1140.81,520.125 1142.62,519 1144.25,517.938C1145.62,517 1146.25,514.5 1146.31,512.438Z" style="fill-rule:nonzero;"/>
    <path d="M1164.31,497.313C1164.31,496.813 1164.06,496.625 1163.56,496.438C1163.25,496.375 1162.88,496.375 1162.5,496.375C1162.06,496.375 1161.69,496.313 1161.25,496.313L1160.19,496.188C1159.88,496.188 1159.62,496.125 1159.38,496.063C1158.81,495.875 1158.44,495.438 1158.44,494.813C1158.44,493.938 1158.44,492.438 1158.56,490L1158.56,489.75C1158.56,488.813 1158.38,488.5 1158.19,488.375C1157.88,488.125 1157.25,488.125 1156.88,488.125L1156.69,488.125C1155.75,488.125 1155.19,488.875 1155.12,489.25C1155.12,489.313 1155.06,489.438 1155.06,489.5C1155.06,489.813 1155.12,490.313 1155.19,490.938C1155.31,491.75 1155.44,492.813 1155.44,493.875L1155.44,494.188C1155.44,495.313 1154.94,495.938 1154.12,496.125C1153.88,496.188 1153.62,496.188 1153.38,496.188C1152.94,496.188 1152.38,496.125 1151.94,496.125C1151.06,496.125 1150.56,496.688 1150.38,498.563C1150.38,498.625 1150.31,498.688 1150.31,498.75C1150.31,499.125 1150.56,499.25 1151.06,499.375C1151.38,499.438 1151.69,499.438 1152,499.438C1152.31,499.438 1152.62,499.375 1152.88,499.375C1153.88,499.375 1155.19,500.125 1155.19,501.5C1155.19,502.5 1155.38,504.688 1155.38,507.5C1155.38,510.313 1155,515.688 1155,518.125C1155,519.313 1155.19,519.625 1155.38,519.75L1155.88,519.875L1157,519.875C1158.56,519.875 1159.06,519.688 1159.06,518.875L1159.06,518.438C1158.88,516.688 1158.56,512.188 1158.5,509.563C1158.44,508.688 1158.38,507.625 1158.38,506.563C1158.38,504.5 1158.5,502.375 1158.56,501C1158.62,499.625 1159.44,499.063 1160.44,499L1160.62,499C1161.38,499 1162.06,499.188 1162.81,499.25L1163.06,499.25C1163.88,499.25 1164.31,498.813 1164.31,497.313Z" style="fill-rule:nonzero;"/>
    <path d="M1176.62,487.438C1176.56,485.75 1175.06,484.188 1173.5,484L1173.06,484C1171.44,484 1170.31,485 1170.19,486.438C1170.25,488.375 1171.94,489.938 1173.75,489.938C1175.62,489.938 1176.38,488.875 1176.62,487.438ZM1175.88,517.5C1175.69,516.063 1175.12,510.625 1175.12,507.938C1175.12,506.688 1175.06,505.438 1175.06,504.125C1175.06,502.438 1175.12,500.688 1175.31,498.563C1175.31,498.188 1175.38,497.875 1175.38,497.563C1175.38,495.563 1174.75,495.438 1173.75,495.438C1172.12,495.438 1171.75,495.813 1171.75,496.938C1171.75,497.125 1171.81,497.313 1171.81,497.625C1171.94,499.5 1172.06,504.75 1172.06,507.438C1172.06,510.125 1171.56,514.875 1171.56,517.188C1171.56,519.375 1171.69,519.75 1173.56,519.75C1175.31,519.75 1175.94,518.938 1175.94,517.938C1175.94,517.813 1175.88,517.625 1175.88,517.5Z" style="fill-rule:nonzero;"/>
    <path d="M1207.25,516.438C1207.06,514.813 1206.88,509.688 1206.88,506.063C1206.88,505.313 1206.94,504.563 1206.94,504L1206.94,503.75C1206.94,500.875 1205.44,498.375 1204.56,497.313C1203.69,496.188 1201.81,495.125 1199.38,495.063L1198.94,495.063C1196.88,495.063 1195.62,495.813 1193.5,497.813C1192.62,498.625 1191.94,498.875 1191.5,498.938C1191.12,498.938 1190.94,498.75 1190.81,498.563C1190.69,498.25 1190.62,497.875 1190.62,497.5C1190.62,497.125 1190.62,496.813 1190.69,496.5C1190.69,495.438 1189.69,495.25 1188.94,495.25C1188.25,495.25 1187.06,495.313 1186.81,495.875C1186.75,496.063 1186.69,496.313 1186.69,496.625C1186.75,497 1186.81,497.313 1186.81,497.75C1186.94,499.5 1187.69,503.438 1187.69,506C1187.69,508.563 1187.56,511.688 1187.06,515.813C1186.94,516.563 1186.94,517.125 1186.94,517.625C1186.94,519.438 1187.56,519.813 1189,519.813C1189.19,519.813 1189.44,519.75 1189.75,519.75C1191,519.688 1191.25,519.313 1191.31,519.125L1191.31,518.688C1191.31,518.25 1191.25,517.75 1191.19,517.438C1190.94,516.063 1190.69,511.063 1190.69,508.875C1190.69,506.813 1191,503.375 1192.31,501.563C1193.69,499.688 1195.75,498.625 1197.62,498.625L1198.5,498.625C1198.88,498.625 1199.31,498.625 1199.69,498.75C1200.38,498.875 1201,499.25 1201.88,499.938C1202.94,500.75 1203.38,501.813 1203.56,503.125C1203.69,503.875 1203.69,504.75 1203.69,505.688L1203.69,507.688C1203.69,511.25 1203.19,513.25 1202.94,516.75C1202.94,517 1202.88,517.313 1202.88,517.5C1202.88,519.813 1203.94,519.875 1205.81,519.875C1207.12,519.875 1207.44,519.188 1207.44,518.188C1207.44,517.625 1207.31,517 1207.25,516.438Z" style="fill-rule:nonzero;"/>
    <path d="M1239.25,499.188C1239.31,498.813 1239.31,498.5 1239.31,498.188C1239.31,496.688 1238.69,496.375 1237.38,496.25C1237.06,496.188 1236.88,496.188 1236.62,496.188C1235.94,496.188 1235.75,496.375 1235.75,496.813C1235.75,497.188 1235.88,497.563 1235.88,497.938C1235.88,498.313 1235.81,498.875 1235.31,499.25C1235.19,499.438 1235,499.5 1234.75,499.5C1234.38,499.5 1233.94,499.25 1233.44,498.813C1233,498.313 1232.5,497.75 1231.88,497.375C1230.75,496.688 1228.5,495.563 1225.31,495.438L1225.12,495.438C1222.75,495.438 1220,497.313 1218.5,498.688C1217.06,500.063 1214.75,503 1214.75,507.938L1214.75,508.25C1214.81,510.875 1215.38,512.688 1216.25,514.125C1217,515.438 1218.06,516.5 1219.06,517.563L1219.38,517.813C1221.56,520 1224.69,520.375 1226.25,520.375C1227.75,520.375 1229.69,520 1230.88,518.813C1232.12,517.563 1233.62,516.938 1234.69,516.938L1235,516.938C1235.75,517.063 1235.88,517.813 1235.94,518.375C1235.94,518.938 1235.81,519.813 1235.75,520.938C1235.62,523.25 1235.12,524.5 1234.25,526.125C1233.19,528 1230.12,528.875 1227.12,529.125C1226.94,529.125 1226.75,529.188 1226.56,529.188C1223.5,529.188 1221,526.938 1220,525.313C1219.56,524.563 1219.25,524.313 1218.81,524.188C1218.62,524.125 1218.38,524.125 1218.06,524.125L1216.81,524.125C1216.06,524.125 1215.81,524.563 1215.81,525.125C1215.81,525.5 1216,526.063 1216.19,526.375C1216.38,526.813 1216.81,527.313 1217.31,527.875C1217.81,528.438 1218.44,529 1219,529.5C1220,530.5 1222.75,531.688 1226.38,532L1227.06,532C1230.31,532 1233.12,530.75 1234.69,529.813C1236.25,528.938 1238.12,526.063 1238.75,523.875C1239.06,522.938 1239.12,520.813 1239.12,518.563C1239.12,516.063 1239.06,513.375 1239,511.625C1238.94,510.438 1238.94,508.938 1238.94,507.313C1238.94,504.313 1239,501 1239.25,499.188ZM1235.75,508.063C1235.75,509.875 1235.62,512.125 1234.06,514.125C1232.56,516 1230.94,517.5 1227.19,517.5L1226.81,517.5C1224.81,517.438 1223.44,517 1222.5,516.375C1221.56,515.75 1220.94,515.063 1220.31,514.25C1219.06,512.813 1218.44,510.75 1218.38,508.25L1218.38,507.625C1218.38,505.25 1218.88,503.188 1220.56,501.25C1222.44,499.125 1225.06,498.875 1227.19,498.875C1230,498.875 1232.38,499.813 1233.81,501.75C1235.25,503.688 1235.75,506.125 1235.75,508.063Z" style="fill-rule:nonzero;"/>
</svg>
