<?xml version="1.0" encoding="UTF-8" standalone="no"?>
<!DOCTYPE svg PUBLIC "-//W3C//DTD SVG 1.1//EN" "http://www.w3.org/Graphics/SVG/1.1/DTD/svg11.dtd">
<svg width="100%" height="100%" viewBox="0 0 1700 2481" version="1.1" xmlns="http://www.w3.org/2000/svg" xmlns:xlink="http://www.w3.org/1999/xlink" xml:space="preserve" xmlns:serif="http://www.serif.com/" style="fill-rule:evenodd;clip-rule:evenodd;stroke-linecap:round;stroke-linejoin:round;stroke-miterlimit:1.5;">
    <rect id="W2Z" x="0" y="0.829" width="1700" height="2480" style="fill:none;"/>
    <g id="Fields" opacity="0.2">
        <path id="_11" serif:id="11" d="M496.488,895.416L10.379,417.205L10.379,10.829L517.393,10.734L722.022,763.47C635.493,787.328 560.817,829.666 496.488,895.416Z" style="fill:#db9d84;stroke:#767676;stroke-width:8.33px;"/>
    </g>
    <g id="S">
        <g id="Ring">
            <path id="Backer" d="M1261.43,1477.83C1130.55,1704.53 840.239,1782.33 613.55,1651.45C386.862,1520.58 309.085,1230.27 439.973,1003.57C570.862,776.866 861.169,699.068 1087.86,829.944C1314.55,960.82 1392.32,1251.13 1261.43,1477.83Z" style="fill:#fff;"/>
            <path d="M1261.43,1477.83C1130.55,1704.53 840.239,1782.33 613.55,1651.45C386.862,1520.58 309.085,1230.27 439.973,1003.57C570.862,776.866 861.169,699.068 1087.86,829.944C1314.55,960.82 1392.32,1251.13 1261.43,1477.83Z" style="fill:none;stroke:#000;stroke-width:8.33px;"/>
            <path d="M1261.43,1477.83L1235.18,1462.67" style="fill:none;stroke:#000;stroke-width:8.33px;"/>
            <path d="M466.231,1018.73L439.973,1003.57" style="fill:none;stroke:#000;stroke-width:8.33px;"/>
            <path d="M628.71,1625.19L613.55,1651.45" style="fill:none;stroke:#000;stroke-width:8.33px;"/>
            <path d="M1087.86,829.944L1072.7,856.201" style="fill:none;stroke:#000;stroke-width:8.33px;"/>
            <path d="M1087.85,1651.43L1072.69,1625.18" style="fill:none;stroke:#000;stroke-width:8.33px;"/>
            <path d="M628.72,856.218L613.56,829.961" style="fill:none;stroke:#000;stroke-width:8.33px;"/>
            <path d="M466.201,1462.69L439.944,1477.85" style="fill:none;stroke:#000;stroke-width:8.33px;"/>
            <path d="M1261.46,1003.55L1235.21,1018.71" style="fill:none;stroke:#000;stroke-width:8.33px;"/>
            <path d="M850.704,1714.99L850.704,1684.67" style="fill:none;stroke:#000;stroke-width:8.33px;"/>
            <path d="M850.704,796.721L850.704,766.402" style="fill:none;stroke:#000;stroke-width:8.33px;"/>
            <path d="M406.736,1240.7L376.417,1240.7" style="fill:none;stroke:#000;stroke-width:8.33px;"/>
            <path d="M1324.99,1240.7L1294.67,1240.7" style="fill:none;stroke:#000;stroke-width:8.33px;"/>
        </g>
        <g id="Root-Markers" serif:id="Root Markers">
            <path id="_6" serif:id="6" d="M851.354,1608.44L815.055,1507.61L887.654,1507.61L851.354,1608.44ZM851.354,1551.87L860.389,1526.77L842.32,1526.77L851.354,1551.87Z" style="fill:#d2828b;"/>
        </g>
        <g id="Notes">
            <path id="_111" serif:id="11" d="M682.187,874.231C660.198,912.317 611.424,925.385 573.337,903.397C535.251,881.408 522.182,832.635 544.171,794.549C566.16,756.463 614.934,743.395 653.021,765.383C691.107,787.372 704.176,836.145 682.187,874.231Z" style="fill:#d2828b;stroke:#fff;stroke-width:24px;"/>
            <path id="_2" serif:id="2" d="M1327.24,1049.74C1305.25,1087.83 1256.48,1100.9 1218.39,1078.91C1180.3,1056.92 1167.23,1008.14 1189.22,970.059C1211.21,931.974 1259.99,918.905 1298.07,940.894C1336.16,962.883 1349.23,1011.66 1327.24,1049.74Z" style="fill:#d2828b;stroke:#fff;stroke-width:24px;"/>
            <path id="_1" serif:id="1" d="M1153.64,879.938C1131.65,918.024 1082.87,931.093 1044.79,909.104C1006.7,887.115 993.632,838.342 1015.62,800.256C1037.61,762.171 1086.38,749.102 1124.47,771.091C1162.56,793.08 1175.63,841.853 1153.64,879.938Z" style="fill:#d2828b;stroke:#fff;stroke-width:24px;"/>
        </g>
        <g id="Treble-Marker" serif:id="Treble Marker">
            <g id="_61" serif:id="6">
                <path id="_62" serif:id="6" d="M919.712,1757.17C897.722,1795.26 848.949,1808.33 810.862,1786.34C772.775,1764.35 759.707,1715.58 781.696,1677.49C803.685,1639.4 852.459,1626.34 890.546,1648.32C928.632,1670.31 941.701,1719.09 919.712,1757.17Z" style="fill:#fff;stroke:#fff;stroke-width:33.33px;"/>
                <circle id="_6a" serif:id="6a" cx="850" cy="1717.33" r="64" style="fill:#fff;stroke:#d2828b;stroke-width:16.67px;"/>
            </g>
        </g>
    </g>
    <g id="Songs">
        <g id="song-4-petals" serif:id="song 4 petals">
            <g id="W2Z2">
                <path d="M259.323,320.823C278.72,320.928 298.131,313.452 312.708,298.462L338.465,271.975C351.833,258.23 358.77,240.597 359.331,222.817L258.663,222.998L259.323,320.823Z" style="fill:#c05c9b;stroke:#fff;stroke-width:1.67px;"/>
                <path d="M359.331,222.817C359.964,202.779 352.497,182.553 337.006,167.489L310.52,141.732C295.902,127.517 276.888,120.572 257.975,120.836L258.663,222.998L359.331,222.817Z" style="fill:#c05c9b;stroke:#fff;stroke-width:1.67px;"/>
                <path d="M358.368,222.998L259.368,223.176" style="fill:none;stroke:#c05c9b;stroke-width:4.17px;stroke-linecap:butt;"/>
                <g id="q4">
                    <path d="M302.793,243.677C292.94,241.037 279.383,234.019 280.742,228.942C282.103,223.866 297.353,224.566 307.206,227.206C327.796,232.723 346.194,246.48 346.194,246.48L346.193,246.48L346.194,246.48C346.194,246.48 323.382,249.194 302.793,243.677Z" style="fill:#e7e7e7;fill-rule:nonzero;"/>
                    <path d="M286.715,262.698C279.502,255.485 271.27,242.628 274.986,238.912C278.703,235.196 291.56,243.428 298.773,250.641C313.845,265.713 322.9,286.826 322.9,286.826L322.9,286.825L322.9,286.826C322.9,286.826 301.787,277.77 286.715,262.698Z" style="fill:#e7e7e7;fill-rule:nonzero;"/>
                    <path d="M265.016,244.668L265.017,244.668C270.093,243.308 277.112,256.865 279.752,266.719C285.268,287.308 282.555,310.119 282.555,310.119L282.554,310.119C282.554,310.119 268.798,291.721 263.281,271.132C260.641,261.279 259.941,246.029 265.016,244.668Z" style="fill:#e7e7e7;fill-rule:nonzero;"/>
                </g>
                <g id="q1">
                    <path d="M282.554,136.253C282.554,136.253 285.269,159.064 279.752,179.653C277.111,189.507 270.094,203.064 265.017,201.704L265.016,201.704C259.94,200.343 260.641,185.094 263.281,175.24C268.798,154.651 282.554,136.253 282.554,136.253L282.554,136.253Z" style="fill:#e7e7e7;fill-rule:nonzero;"/>
                    <path d="M298.773,195.731C291.56,202.944 278.703,211.176 274.987,207.46L274.986,207.46C271.271,203.744 279.502,190.887 286.715,183.674C301.787,168.601 322.9,159.546 322.9,159.546L322.9,159.546C322.9,159.546 313.845,180.659 298.773,195.731Z" style="fill:#e7e7e7;fill-rule:nonzero;"/>
                    <path d="M307.206,219.165C297.353,221.806 282.103,222.506 280.743,217.43C279.383,212.353 292.94,205.335 302.793,202.695C323.382,197.178 346.194,199.892 346.194,199.892C346.194,199.892 327.796,213.649 307.206,219.165Z" style="fill:#e7e7e7;fill-rule:nonzero;"/>
                </g>
            </g>
            <g id="W2Z1" serif:id="W2Z">
                <path d="M258.601,120.842C239.688,121.106 220.876,128.579 206.66,143.197L180.903,169.684C166.449,184.547 159.512,203.956 160.027,223.182L259.29,223.004L258.601,120.842Z" style="fill:#d2828b;stroke:#fff;stroke-width:1.67px;"/>
                <path d="M160.027,223.182C160.525,241.773 167.99,260.193 182.362,274.17L208.849,299.927C223.095,313.781 241.516,320.729 259.949,320.829L259.29,223.004L160.027,223.182Z" style="fill:#d2828b;stroke:#fff;stroke-width:1.67px;"/>
                <path d="M258.495,223.182L160.895,223.182" style="fill:none;stroke:#d2828b;stroke-width:4.17px;stroke-linecap:butt;"/>
                <g id="q3">
                    <path d="M253.504,244.668L253.505,244.668C258.581,246.029 257.88,261.279 255.24,271.132C249.723,291.721 235.967,310.12 235.967,310.12L235.967,310.119L235.966,310.119C235.966,310.119 233.252,287.308 238.769,266.719C241.409,256.865 248.428,243.308 253.504,244.668Z" style="fill:#e7e7e7;fill-rule:nonzero;"/>
                    <path d="M219.748,250.641C226.961,243.428 239.818,235.196 243.534,238.912L243.535,238.912C247.25,242.628 239.019,255.485 231.806,262.698C216.734,277.771 195.621,286.826 195.621,286.826L195.621,286.825C195.621,286.825 204.676,265.713 219.748,250.641Z" style="fill:#e7e7e7;fill-rule:nonzero;"/>
                    <path d="M211.315,227.206C221.168,224.566 236.418,223.866 237.778,228.942C239.138,234.019 225.581,241.037 215.728,243.677C195.139,249.194 172.327,246.48 172.327,246.48L172.327,246.479L172.327,246.48C172.327,246.48 190.725,232.724 211.315,227.206Z" style="fill:#e7e7e7;fill-rule:nonzero;"/>
                </g>
                <g id="q2">
                    <path d="M172.327,199.893C172.327,199.893 195.139,197.178 215.728,202.695C225.581,205.335 239.138,212.353 237.779,217.43C236.418,222.507 221.168,221.806 211.315,219.166C190.725,213.649 172.327,199.893 172.327,199.893Z" style="fill:#e7e7e7;fill-rule:nonzero;"/>
                    <path d="M231.805,183.674C239.019,190.887 247.251,203.743 243.534,207.46C239.818,211.176 226.962,202.944 219.748,195.731C204.676,180.659 195.621,159.547 195.621,159.547C195.621,159.547 216.734,168.601 231.805,183.674Z" style="fill:#e7e7e7;fill-rule:nonzero;"/>
                    <path d="M253.505,201.704L253.504,201.704C248.428,203.064 241.409,189.507 238.769,179.653C233.252,159.064 235.966,136.253 235.966,136.253L235.967,136.253C235.967,136.253 249.723,154.651 255.24,175.24C257.88,185.094 258.581,200.343 253.505,201.704Z" style="fill:#e7e7e7;fill-rule:nonzero;"/>
                </g>
            </g>
        </g>
    </g>
    <g id="Map">
        <g id="Frame">
            <rect x="1471.5" y="42.371" width="190" height="190" style="fill:#fff;"/>
            <rect x="1471.5" y="42.371" width="190" height="190" style="fill:none;stroke:#000;stroke-width:1.17px;stroke-linejoin:bevel;"/>
            <rect x="1523.38" y="94.246" width="86.25" height="86.25" style="fill:none;stroke:#000;stroke-width:1.25px;stroke-linejoin:bevel;"/>
            <path d="M1609.62,94.246L1661.5,42.579" style="fill:none;stroke:#000;stroke-width:1.25px;stroke-linejoin:bevel;"/>
            <path d="M1523.38,94.246L1471.92,42.579" style="fill:none;stroke:#000;stroke-width:1.25px;stroke-linejoin:bevel;"/>
            <path d="M1523.38,180.496L1471.5,232.371" style="fill:none;stroke:#000;stroke-width:1.25px;stroke-linejoin:bevel;"/>
            <path d="M1609.62,180.496L1661.5,232.371" style="fill:none;stroke:#000;stroke-width:1.25px;stroke-linejoin:bevel;"/>
        </g>
        <g id="Dots">
            <circle cx="1471.5" cy="232.329" r="1.5" style="stroke:#000;stroke-width:1.25px;stroke-linejoin:bevel;"/>
            <circle cx="1566.2" cy="232.454" r="1.5" style="stroke:#000;stroke-width:1.25px;stroke-linejoin:bevel;"/>
            <circle cx="1661.5" cy="232.329" r="1.5" style="stroke:#000;stroke-width:1.25px;stroke-linejoin:bevel;"/>
            <circle cx="1633.85" cy="204.496" r="1.5" style="stroke:#000;stroke-width:1.25px;stroke-linejoin:bevel;"/>
            <circle cx="1609.62" cy="180.329" r="1.5" style="stroke:#000;stroke-width:1.25px;stroke-linejoin:bevel;"/>
            <circle cx="1609.2" cy="137.454" r="1.5" style="stroke:#000;stroke-width:1.25px;stroke-linejoin:bevel;"/>
            <circle cx="1609.32" cy="94.204" r="1.5" style="stroke:#000;stroke-width:1.25px;stroke-linejoin:bevel;"/>
            <circle cx="1633.76" cy="69.996" r="1.5" style="stroke:#000;stroke-width:1.25px;stroke-linejoin:bevel;"/>
            <circle cx="1566.2" cy="94.204" r="1.5" style="stroke:#000;stroke-width:1.25px;stroke-linejoin:bevel;"/>
            <circle cx="1523.07" cy="94.329" r="1.5" style="stroke:#000;stroke-width:1.25px;stroke-linejoin:bevel;"/>
            <circle cx="1566.5" cy="42.329" r="1.5" style="stroke:#000;stroke-width:1.25px;stroke-linejoin:bevel;"/>
            <circle cx="1471.5" cy="42.371" r="1.5" style="stroke:#000;stroke-width:1.25px;stroke-linejoin:bevel;"/>
            <circle cx="1499.35" cy="70.329" r="1.5" style="stroke:#000;stroke-width:1.25px;stroke-linejoin:bevel;"/>
            <circle cx="1471.5" cy="137.371" r="1.5" style="stroke:#000;stroke-width:1.25px;stroke-linejoin:bevel;"/>
            <circle cx="1523.38" cy="137.371" r="1.5" style="stroke:#000;stroke-width:1.25px;stroke-linejoin:bevel;"/>
            <circle cx="1566" cy="180.496" r="1.5" style="stroke:#000;stroke-width:1.25px;stroke-linejoin:bevel;"/>
            <circle cx="1523.35" cy="180.329" r="1.5" style="stroke:#000;stroke-width:1.25px;stroke-linejoin:bevel;"/>
            <circle cx="1499.15" cy="204.829" r="1.5" style="stroke:#000;stroke-width:1.25px;stroke-linejoin:bevel;"/>
            <circle cx="1661.5" cy="137.371" r="1.5" style="stroke:#000;stroke-width:1.25px;stroke-linejoin:bevel;"/>
            <circle cx="1661.49" cy="42.479" r="1.5" style="stroke:#000;stroke-width:1.25px;stroke-linejoin:bevel;"/>
        </g>
        <g>
            <path d="M1661.5,137.954L1661.5,232.329" style="fill:none;stroke:#f5cd6c;stroke-width:5.99px;"/>
            <path d="M1661.5,41.954L1661.5,136.329" style="fill:none;stroke:#c05c9b;stroke-width:5.99px;"/>
        </g>
        <g id="_4" serif:id="4">
            <circle cx="1661.5" cy="136.829" r="15.75" style="fill:#fff;stroke:#fff;stroke-width:1.46px;"/>
            <g id="_41" serif:id="4">
                <g id="q41" serif:id="q4">
                    <path d="M1655.38,140.489C1656.88,140.087 1658.94,139.019 1658.73,138.247C1658.52,137.474 1656.2,137.581 1654.7,137.983C1651.57,138.822 1648.77,140.915 1648.77,140.915L1648.77,140.915L1648.77,140.915C1648.77,140.915 1652.24,141.328 1655.38,140.489Z" style="fill:#733c52;fill-rule:nonzero;"/>
                    <path d="M1657.82,143.383C1658.92,142.285 1660.17,140.329 1659.61,139.764C1659.04,139.198 1657.09,140.451 1655.99,141.548C1653.69,143.842 1652.32,147.054 1652.32,147.054L1652.32,147.054L1652.32,147.054C1652.32,147.054 1655.53,145.676 1657.82,143.383Z" style="fill:#733c52;fill-rule:nonzero;"/>
                    <path d="M1661.12,140.64L1661.12,140.64C1660.35,140.433 1659.28,142.496 1658.88,143.995C1658.04,147.128 1658.46,150.599 1658.46,150.599L1658.46,150.599C1658.46,150.599 1660.55,147.799 1661.39,144.666C1661.79,143.167 1661.9,140.847 1661.12,140.64Z" style="fill:#733c52;fill-rule:nonzero;"/>
                </g>
                <g id="q11" serif:id="q1">
                    <path d="M1658.46,124.143C1658.46,124.143 1658.04,127.614 1658.88,130.747C1659.28,132.246 1660.35,134.309 1661.12,134.102L1661.12,134.102C1661.9,133.895 1661.79,131.575 1661.39,130.075C1660.55,126.942 1658.46,124.143 1658.46,124.143L1658.46,124.143Z" style="fill:#733c52;fill-rule:nonzero;"/>
                    <path d="M1655.99,133.193C1657.09,134.291 1659.04,135.543 1659.61,134.978L1659.61,134.978C1660.17,134.412 1658.92,132.456 1657.82,131.359C1655.53,129.065 1652.32,127.687 1652.32,127.687L1652.32,127.687C1652.32,127.687 1653.69,130.9 1655.99,133.193Z" style="fill:#733c52;fill-rule:nonzero;"/>
                    <path d="M1654.7,136.759C1656.2,137.161 1658.52,137.267 1658.73,136.495C1658.94,135.723 1656.88,134.655 1655.38,134.253C1652.24,133.413 1648.77,133.826 1648.77,133.826C1648.77,133.826 1651.57,135.92 1654.7,136.759Z" style="fill:#733c52;fill-rule:nonzero;"/>
                </g>
                <g id="q31" serif:id="q3">
                    <path d="M1662.88,140.64L1662.88,140.64C1662.1,140.847 1662.21,143.167 1662.61,144.666C1663.45,147.799 1665.54,150.599 1665.54,150.599L1665.54,150.599L1665.54,150.599C1665.54,150.599 1665.96,147.128 1665.12,143.995C1664.72,142.496 1663.65,140.433 1662.88,140.64Z" style="fill:#733c52;fill-rule:nonzero;"/>
                    <path d="M1668.01,141.548C1666.91,140.451 1664.96,139.198 1664.39,139.764L1664.39,139.764C1663.83,140.329 1665.08,142.286 1666.18,143.383C1668.47,145.676 1671.68,147.054 1671.68,147.054L1671.68,147.054C1671.68,147.054 1670.31,143.842 1668.01,141.548Z" style="fill:#733c52;fill-rule:nonzero;"/>
                    <path d="M1669.3,137.983C1667.8,137.581 1665.48,137.474 1665.27,138.247C1665.06,139.019 1667.12,140.087 1668.62,140.489C1671.76,141.328 1675.23,140.915 1675.23,140.915L1675.23,140.915L1675.23,140.915C1675.23,140.915 1672.43,138.822 1669.3,137.983Z" style="fill:#733c52;fill-rule:nonzero;"/>
                </g>
                <g id="q21" serif:id="q2">
                    <path d="M1675.23,133.827C1675.23,133.827 1671.76,133.413 1668.62,134.253C1667.12,134.655 1665.06,135.723 1665.27,136.495C1665.48,137.267 1667.8,137.161 1669.3,136.759C1672.43,135.92 1675.23,133.827 1675.23,133.827Z" style="fill:#733c52;fill-rule:nonzero;"/>
                    <path d="M1666.18,131.359C1665.08,132.456 1663.83,134.412 1664.39,134.978C1664.96,135.543 1666.91,134.291 1668.01,133.193C1670.31,130.9 1671.68,127.687 1671.68,127.687C1671.68,127.687 1668.47,129.065 1666.18,131.359Z" style="fill:#733c52;fill-rule:nonzero;"/>
                    <path d="M1662.88,134.102L1662.88,134.102C1663.65,134.309 1664.72,132.246 1665.12,130.747C1665.96,127.614 1665.54,124.143 1665.54,124.143L1665.54,124.143C1665.54,124.143 1663.45,126.942 1662.61,130.075C1662.21,131.575 1662.1,133.895 1662.88,134.102Z" style="fill:#733c52;fill-rule:nonzero;"/>
                </g>
            </g>
        </g>
    </g>
</svg>
