<?xml version="1.0" encoding="UTF-8" standalone="no"?>
<!DOCTYPE svg PUBLIC "-//W3C//DTD SVG 1.1//EN" "http://www.w3.org/Graphics/SVG/1.1/DTD/svg11.dtd">
<svg width="100%" height="100%" viewBox="0 0 1701 2481" version="1.1" xmlns="http://www.w3.org/2000/svg" xmlns:xlink="http://www.w3.org/1999/xlink" xml:space="preserve" xmlns:serif="http://www.serif.com/" style="fill-rule:evenodd;clip-rule:evenodd;stroke-linecap:round;stroke-linejoin:round;stroke-miterlimit:1.5;">
    <rect id="X2W2" x="0.621" y="0.356" width="1700" height="2480" style="fill:none;"/>
    <g id="Fields" opacity="0.2">
        <path id="_7" serif:id="7" d="M498.109,1586.26L11,2060.47L11,2469.85L515.014,2469.94L717.643,1716.21C631.543,1691.86 562.907,1651.48 498.109,1586.26Z" style="fill:#ea8d58;stroke:#767676;stroke-width:8.33px;"/>
    </g>
    <g id="SG">
        <g id="Meta-Ring">
            <path d="M1262.68,1480.25C1131.37,1707.69 840.122,1785.74 612.698,1654.44C385.274,1523.13 307.244,1231.88 438.558,1004.44C569.871,776.995 861.12,698.943 1088.54,830.246C1315.97,961.549 1394,1252.81 1262.68,1480.25Z" style="fill:none;stroke:#000;stroke-width:0.48px;stroke-linecap:square;"/>
            <path d="M1262.68,1480.25L1236.34,1465.04" style="fill:none;stroke:#000;stroke-width:0.48px;stroke-linecap:square;"/>
            <path d="M464.9,1019.64L438.558,1004.44" style="fill:none;stroke:#000;stroke-width:0.48px;stroke-linecap:square;"/>
            <path d="M627.907,1628.09L612.698,1654.44" style="fill:none;stroke:#000;stroke-width:0.48px;stroke-linecap:square;"/>
            <path d="M1088.54,830.246L1073.34,856.589" style="fill:none;stroke:#000;stroke-width:0.48px;stroke-linecap:square;"/>
            <path d="M1088.53,1654.42L1073.33,1628.08" style="fill:none;stroke:#000;stroke-width:0.48px;stroke-linecap:square;"/>
            <path d="M627.917,856.606L612.708,830.263" style="fill:none;stroke:#000;stroke-width:0.48px;stroke-linecap:square;"/>
            <path d="M464.87,1465.05L438.528,1480.26" style="fill:none;stroke:#000;stroke-width:0.48px;stroke-linecap:square;"/>
            <path d="M1262.71,1004.42L1236.37,1019.63" style="fill:none;stroke:#000;stroke-width:0.48px;stroke-linecap:square;"/>
            <path d="M850.621,1718.18L850.621,1687.77" style="fill:none;stroke:#000;stroke-width:0.48px;stroke-linecap:square;"/>
            <path d="M850.621,796.914L850.621,766.497" style="fill:none;stroke:#000;stroke-width:0.48px;stroke-linecap:square;"/>
            <path d="M405.213,1242.34L374.795,1242.34" style="fill:none;stroke:#000;stroke-width:0.48px;stroke-linecap:square;"/>
            <path d="M1326.45,1242.34L1296.03,1242.34" style="fill:none;stroke:#000;stroke-width:0.48px;stroke-linecap:square;"/>
        </g>
        <g id="Ring-Backers" serif:id="Ring Backers">
        </g>
        <g id="Child-Rings" serif:id="Child Rings">
        </g>
    </g>
    <g id="S">
        <g id="Ring">
            <path id="Backer" d="M1262.06,1477.36C1131.17,1704.06 840.86,1781.85 614.172,1650.98C387.483,1520.1 309.706,1229.8 440.594,1003.09C571.483,776.393 861.79,698.596 1088.48,829.471C1315.17,960.347 1392.94,1250.65 1262.06,1477.36Z" style="fill:#fff;"/>
            <path d="M1262.06,1477.36C1131.17,1704.06 840.86,1781.85 614.172,1650.98C387.483,1520.1 309.706,1229.8 440.594,1003.09C571.483,776.393 861.79,698.596 1088.48,829.471C1315.17,960.347 1392.94,1250.65 1262.06,1477.36Z" style="fill:none;stroke:#000;stroke-width:8.33px;"/>
            <path d="M1262.06,1477.36L1235.8,1462.2" style="fill:none;stroke:#000;stroke-width:8.33px;"/>
            <path d="M466.852,1018.25L440.594,1003.09" style="fill:none;stroke:#000;stroke-width:8.33px;"/>
            <path d="M629.331,1624.72L614.172,1650.98" style="fill:none;stroke:#000;stroke-width:8.33px;"/>
            <path d="M1088.48,829.471L1073.32,855.728" style="fill:none;stroke:#000;stroke-width:8.33px;"/>
            <path d="M1088.47,1650.96L1073.31,1624.7" style="fill:none;stroke:#000;stroke-width:8.33px;"/>
            <path d="M629.341,855.746L614.182,829.489" style="fill:none;stroke:#000;stroke-width:8.33px;"/>
            <path d="M466.822,1462.21L440.565,1477.37" style="fill:none;stroke:#000;stroke-width:8.33px;"/>
            <path d="M1262.09,1003.08L1235.83,1018.24" style="fill:none;stroke:#000;stroke-width:8.33px;"/>
            <path d="M851.325,1714.52L851.325,1684.2" style="fill:none;stroke:#000;stroke-width:8.33px;"/>
            <path d="M851.325,796.248L851.325,765.93" style="fill:none;stroke:#000;stroke-width:8.33px;"/>
            <path d="M407.358,1240.23L377.038,1240.23" style="fill:none;stroke:#000;stroke-width:8.33px;"/>
            <path d="M1325.61,1240.23L1295.29,1240.23" style="fill:none;stroke:#000;stroke-width:8.33px;"/>
        </g>
        <g id="Root-Markers" serif:id="Root Markers">
            <path id="_11" serif:id="11" d="M667.578,920.763L749.431,989.937L686.557,1026.24L667.578,920.763ZM695.865,969.758L700.589,996.008L716.237,986.974L695.865,969.758Z" style="fill:#f5cd6c;"/>
        </g>
        <g id="Notes">
            <path id="_111" serif:id="11" d="M682.808,873.758C660.819,911.844 612.045,924.913 573.959,902.924C535.872,880.935 522.803,832.162 544.792,794.076C566.782,755.991 615.556,742.922 653.642,764.911C691.729,786.9 704.798,835.673 682.808,873.758Z" style="fill:#f5cd6c;stroke:#fff;stroke-width:24px;"/>
            <path id="_9" serif:id="9" d="M446.046,1289.41C424.057,1327.5 375.283,1340.57 337.196,1318.58C299.11,1296.59 286.041,1247.82 308.03,1209.73C330.019,1171.65 378.793,1158.58 416.88,1180.57C454.966,1202.56 468.035,1251.33 446.046,1289.41Z" style="fill:#f5cd6c;stroke:#fff;stroke-width:24px;"/>
            <path id="_71" serif:id="7" d="M687.426,1689.55C665.437,1727.64 616.663,1740.71 578.576,1718.72C540.49,1696.73 527.421,1647.96 549.41,1609.87C571.399,1571.79 620.173,1558.72 658.26,1580.7C696.346,1602.69 709.415,1651.47 687.426,1689.55Z" style="fill:#f5cd6c;stroke:#fff;stroke-width:24px;"/>
        </g>
        <g id="Treble-Marker" serif:id="Treble Marker">
            <g id="_6" serif:id="6">
                <path id="_61" serif:id="6" d="M920.333,1756.7C898.344,1794.78 849.57,1807.85 811.483,1785.86C773.397,1763.88 760.328,1715.1 782.317,1677.02C804.306,1638.93 853.08,1625.86 891.167,1647.85C929.253,1669.84 942.322,1718.61 920.333,1756.7Z" style="fill:#fff;stroke:#fff;stroke-width:33.33px;"/>
                <circle id="_6a" serif:id="6a" cx="850.621" cy="1716.86" r="64" style="fill:#fff;stroke:#f5cd6c;stroke-width:16.67px;"/>
            </g>
        </g>
    </g>
    <g id="Songs">
        <g id="song-1-zen" serif:id="song 1 zen">
            <g id="X2W21" serif:id="X2W2">
                <path d="M250.672,2360.36C231.275,2360.46 211.864,2352.99 197.286,2337.99L171.529,2311.51C158.162,2297.76 151.224,2280.13 150.663,2262.35L251.331,2262.53L250.672,2360.36Z" style="fill:#f5cd6c;stroke:#fff;stroke-width:1.67px;"/>
                <path d="M350.594,2262.71C350.097,2281.3 342.632,2299.72 328.259,2313.7L301.773,2339.45C287.526,2353.31 269.106,2360.26 250.672,2360.36L251.331,2262.53L350.594,2262.71Z" style="fill:#f5cd6c;stroke:#fff;stroke-width:1.67px;"/>
                <path d="M250.672,2263.36L250.672,2359.36" style="fill:none;stroke:#f5cd6c;stroke-width:4.17px;stroke-linecap:butt;"/>
                <path id="q3" d="M251.03,2347.54C235.876,2347.53 221.106,2343.29 206.722,2334.83C197.847,2329.35 190.167,2322.36 183.682,2313.84C180.629,2309.76 178.256,2306.15 176.564,2303.03C175.122,2300.44 173.674,2297.61 172.217,2294.53C172.066,2294.15 172.016,2294.23 172.068,2294.77L171.454,2293.59C170.801,2292.26 169.933,2290.01 168.852,2286.85C166.36,2278.51 165.029,2270.22 164.86,2261.98L185.818,2261.98C184.859,2276.06 189.391,2290.16 199.412,2304.29C209.157,2316.9 221.853,2325.17 237.498,2329.09C242.214,2330.08 246.725,2330.65 251.03,2330.8L251.03,2342.48C241.804,2342.62 232.354,2341.07 222.679,2337.83C231.884,2341.97 241.335,2344.19 251.03,2344.47L251.03,2347.54ZM185.925,2261.98L192.458,2261.98L190.916,2268.37C191.003,2271.77 191.554,2275.29 192.57,2278.93C197.992,2295.87 208.096,2308.78 222.88,2317.67C232.484,2322.66 241.867,2325.42 251.03,2325.97L251.03,2329.53C245.78,2329.39 240.584,2328.59 235.44,2327.11C222.333,2323.66 210.67,2315.58 200.452,2302.85C195.163,2295.41 191.578,2289.03 189.697,2283.71C187.259,2276.37 186.001,2269.13 185.925,2261.98Z" style="fill:#e7e7e7;"/>
                <path id="q2" d="M251.03,2325.97C257.317,2326.35 263.5,2325.69 269.58,2323.98C273.058,2323.14 276.954,2321.75 281.268,2319.8C285.096,2318.07 289.256,2315.59 293.748,2312.38C293.006,2313.44 293.435,2313.47 295.036,2312.45C301.055,2307.86 306.088,2302.11 310.132,2295.2C308.077,2300.72 304.797,2305.48 300.29,2309.48C291.762,2317.04 284.269,2322.07 277.809,2324.55C268.734,2328.09 259.808,2329.75 251.03,2329.53L251.03,2325.97ZM251.03,2330.8C256.059,2330.98 260.808,2330.59 265.276,2329.63C276.503,2327.22 286.446,2323.02 295.103,2317.03C312.545,2302.15 321.574,2284.11 322.188,2262.93C322.293,2270.2 320.875,2278.66 317.932,2288.31C320.471,2286.97 322.458,2281.58 323.893,2272.15C323.512,2276.4 322.453,2281.64 320.717,2287.87C320.549,2288.32 320.7,2288.55 321.171,2288.57C320.847,2289.98 319.931,2292.78 318.425,2296.99L322.437,2292.05C321.638,2294.51 318.691,2299.72 313.594,2307.68C302.924,2322.24 288.985,2332.04 271.775,2337.09C283.491,2334.95 294.775,2328.87 305.626,2318.86C303.117,2321.65 300.267,2324.16 297.076,2326.4C282.406,2336.87 267.057,2342.23 251.03,2342.48L251.03,2330.8ZM251.03,2344.47C263.697,2344.84 276.781,2341.91 290.283,2335.68C289.008,2337.19 283.948,2339.79 275.105,2343.47C271.421,2344.89 268.164,2345.84 265.333,2346.31C260.528,2347.13 255.76,2347.54 251.03,2347.54L251.03,2344.47Z" style="fill:#e7e7e7;"/>
            </g>
            <g id="W">
                <path d="M252.02,2160.37C270.933,2160.63 289.746,2168.11 303.961,2182.72L329.718,2209.21C344.173,2224.07 351.109,2243.48 350.594,2262.71L251.331,2262.53L252.02,2160.37Z" style="fill:#f5cd6c;stroke:#fff;stroke-width:1.67px;"/>
                <path d="M150.663,2262.35C150.031,2242.31 157.498,2222.09 172.988,2207.02L199.475,2181.26C214.093,2167.05 233.107,2160.1 252.02,2160.37L251.331,2262.53L150.663,2262.35Z" style="fill:#f5cd6c;stroke:#fff;stroke-width:1.67px;"/>
                <path d="M251.121,2161.36L251.03,2261.36" style="fill:none;stroke:#f5cd6c;stroke-width:4.17px;stroke-linecap:butt;"/>
                <path id="q4" d="M164.86,2261.98C164.544,2246.59 168.289,2231.38 176.095,2216.36C190.166,2194.22 209.051,2180.85 232.75,2176.27C239.021,2175 245.114,2174.39 251.03,2174.43L251.03,2201.89C243.823,2201.95 236.719,2203.38 229.717,2206.16L227.113,2207.62C232.098,2206.07 236.63,2205.15 240.709,2204.87C222.003,2209.26 208.601,2218.78 200.504,2233.44C197.073,2239.6 194.813,2245.63 193.725,2251.54C193.207,2254.56 192.918,2257.49 192.858,2260.33L192.458,2261.98L185.925,2261.98C185.921,2261.54 185.921,2261.09 185.925,2260.65C185.884,2261.09 185.848,2261.54 185.818,2261.98L164.86,2261.98Z" style="fill:#e7e7e7;"/>
                <path id="q1" d="M251.03,2174.43C259.878,2174.49 268.327,2176.02 276.379,2179.01C281.48,2180.62 284.908,2181.9 286.665,2182.86L298.819,2190.08C299.113,2189.7 302.964,2193 310.373,2199.97C312.085,2201.59 314.457,2204.16 317.487,2207.66L321.743,2215.62L321.955,2216.11C319.85,2213.93 318.222,2212.66 317.072,2212.32C320.265,2217.34 323.002,2221.35 325.284,2224.33C326.647,2226.8 328.004,2229.65 329.355,2232.88C332.222,2240.92 333.97,2247.81 334.6,2253.56C335.115,2256.3 334.806,2256.69 333.674,2254.74C332.075,2251.48 330.157,2248.12 327.92,2244.66L327.843,2252.87C326.988,2249.34 326.111,2246.35 325.212,2243.92C323.7,2242.2 322.305,2240.79 321.026,2239.7C319.525,2240.52 318.854,2241.32 319.01,2242.1C320.05,2248.14 320.281,2252.99 319.705,2256.64C318.748,2261.33 317.958,2262.27 317.334,2259.46L316.897,2258.05L313.311,2244.25C313.142,2243.66 312.873,2243.47 312.505,2243.66C310.35,2239.99 308.275,2237.04 306.28,2234.81C305.457,2233.67 303.343,2231.53 299.939,2228.4C300.294,2225.84 300.387,2224.66 300.217,2224.85L297.465,2221.43C290.84,2213.97 280.475,2208.07 266.37,2203.74C261.206,2202.46 256.093,2201.84 251.03,2201.89L251.03,2174.43Z" style="fill:#e7e7e7;"/>
            </g>
        </g>
    </g>
    <g id="Map">
        <g id="Frame">
            <rect x="1472.12" y="41.898" width="190" height="190" style="fill:#fff;"/>
            <rect x="1472.12" y="41.898" width="190" height="190" style="fill:none;stroke:#000;stroke-width:1.17px;stroke-linejoin:bevel;"/>
            <rect x="1524" y="93.773" width="86.25" height="86.25" style="fill:none;stroke:#000;stroke-width:1.25px;stroke-linejoin:bevel;"/>
            <path d="M1610.25,93.773L1662.12,42.106" style="fill:none;stroke:#000;stroke-width:1.25px;stroke-linejoin:bevel;"/>
            <path d="M1524,93.773L1472.54,42.106" style="fill:none;stroke:#000;stroke-width:1.25px;stroke-linejoin:bevel;"/>
            <path d="M1524,180.023L1472.12,231.898" style="fill:none;stroke:#000;stroke-width:1.25px;stroke-linejoin:bevel;"/>
            <path d="M1610.25,180.023L1662.12,231.898" style="fill:none;stroke:#000;stroke-width:1.25px;stroke-linejoin:bevel;"/>
        </g>
        <g id="Dots">
            <circle cx="1472.12" cy="231.856" r="1.5" style="stroke:#000;stroke-width:1.25px;stroke-linejoin:bevel;"/>
            <circle cx="1566.82" cy="231.981" r="1.5" style="stroke:#000;stroke-width:1.25px;stroke-linejoin:bevel;"/>
            <circle cx="1662.12" cy="231.856" r="1.5" style="stroke:#000;stroke-width:1.25px;stroke-linejoin:bevel;"/>
            <circle cx="1634.47" cy="204.023" r="1.5" style="stroke:#000;stroke-width:1.25px;stroke-linejoin:bevel;"/>
            <circle cx="1610.25" cy="179.856" r="1.5" style="stroke:#000;stroke-width:1.25px;stroke-linejoin:bevel;"/>
            <circle cx="1609.82" cy="136.981" r="1.5" style="stroke:#000;stroke-width:1.25px;stroke-linejoin:bevel;"/>
            <circle cx="1609.94" cy="93.731" r="1.5" style="stroke:#000;stroke-width:1.25px;stroke-linejoin:bevel;"/>
            <circle cx="1634.38" cy="69.523" r="1.5" style="stroke:#000;stroke-width:1.25px;stroke-linejoin:bevel;"/>
            <circle cx="1566.82" cy="93.731" r="1.5" style="stroke:#000;stroke-width:1.25px;stroke-linejoin:bevel;"/>
            <circle cx="1523.69" cy="93.856" r="1.5" style="stroke:#000;stroke-width:1.25px;stroke-linejoin:bevel;"/>
            <circle cx="1567.12" cy="41.856" r="1.5" style="stroke:#000;stroke-width:1.25px;stroke-linejoin:bevel;"/>
            <circle cx="1472.12" cy="41.898" r="1.5" style="stroke:#000;stroke-width:1.25px;stroke-linejoin:bevel;"/>
            <circle cx="1499.97" cy="69.856" r="1.5" style="stroke:#000;stroke-width:1.25px;stroke-linejoin:bevel;"/>
            <circle cx="1472.12" cy="136.898" r="1.5" style="stroke:#000;stroke-width:1.25px;stroke-linejoin:bevel;"/>
            <circle cx="1524" cy="136.898" r="1.5" style="stroke:#000;stroke-width:1.25px;stroke-linejoin:bevel;"/>
            <circle cx="1566.62" cy="180.023" r="1.5" style="stroke:#000;stroke-width:1.25px;stroke-linejoin:bevel;"/>
            <circle cx="1523.97" cy="179.856" r="1.5" style="stroke:#000;stroke-width:1.25px;stroke-linejoin:bevel;"/>
            <circle cx="1499.77" cy="204.356" r="1.5" style="stroke:#000;stroke-width:1.25px;stroke-linejoin:bevel;"/>
            <circle cx="1662.12" cy="136.898" r="1.5" style="stroke:#000;stroke-width:1.25px;stroke-linejoin:bevel;"/>
            <circle cx="1662.12" cy="42.006" r="1.5" style="stroke:#000;stroke-width:1.25px;stroke-linejoin:bevel;"/>
        </g>
        <g>
            <path d="M1662.12,231.523L1567.12,231.898L1662.12,231.523Z" style="fill:none;stroke:#f5cd6c;stroke-width:5.99px;"/>
        </g>
        <path d="M1664.56,225.644C1667.8,226.988 1669.35,230.714 1668,233.959C1666.66,237.204 1662.93,238.747 1659.69,237.403C1656.44,236.059 1654.9,232.333 1656.24,229.088C1657.59,225.843 1661.31,224.3 1664.56,225.644Z" style="fill:#fff;stroke:#f5cd6c;stroke-width:5.99px;"/>
        <g id="_1" serif:id="1">
            <circle cx="1566.87" cy="231.606" r="15.75" style="fill:#fff;stroke:#fff;stroke-width:1.46px;"/>
            <g id="zen">
                <path id="q41" serif:id="q4" d="M1552.12,232.033C1552.07,229.316 1552.73,226.632 1554.11,223.982C1556.59,220.074 1559.92,217.716 1564.11,216.907C1565.21,216.683 1566.29,216.575 1567.33,216.582L1567.33,221.427C1566.06,221.44 1564.81,221.691 1563.57,222.181L1563.11,222.44C1563.99,222.166 1564.79,222.004 1565.51,221.955C1562.21,222.728 1559.84,224.409 1558.41,226.995C1557.81,228.082 1557.41,229.147 1557.22,230.19C1557.13,230.724 1557.08,231.24 1557.07,231.741L1557,232.033L1555.84,232.033C1555.84,231.954 1555.84,231.876 1555.84,231.797C1555.83,231.876 1555.83,231.954 1555.82,232.033L1552.12,232.033Z" style="fill:#733c52;"/>
                <path id="q11" serif:id="q1" d="M1567.33,216.582C1568.89,216.593 1570.38,216.863 1571.8,217.391C1572.7,217.675 1573.31,217.9 1573.62,218.069L1575.76,219.343C1575.82,219.278 1576.5,219.86 1577.8,221.089C1578.11,221.375 1578.52,221.828 1579.06,222.447L1579.81,223.852L1579.85,223.938C1579.48,223.552 1579.19,223.329 1578.99,223.268C1579.55,224.155 1580.03,224.862 1580.43,225.387C1580.67,225.824 1580.91,226.327 1581.15,226.896C1581.66,228.316 1581.97,229.532 1582.08,230.546C1582.17,231.03 1582.12,231.1 1581.91,230.754C1581.63,230.179 1581.29,229.586 1580.9,228.975L1580.89,230.425C1580.74,229.802 1580.58,229.275 1580.42,228.845C1580.15,228.541 1579.91,228.293 1579.68,228.101C1579.42,228.245 1579.3,228.386 1579.33,228.524C1579.51,229.591 1579.55,230.446 1579.45,231.089C1579.28,231.917 1579.14,232.083 1579.03,231.588L1578.95,231.339L1578.32,228.903C1578.29,228.8 1578.24,228.766 1578.18,228.8C1577.8,228.152 1577.43,227.632 1577.08,227.238C1576.94,227.037 1576.56,226.66 1575.96,226.106C1576.03,225.655 1576.04,225.446 1576.01,225.48L1575.53,224.877C1574.36,223.559 1572.53,222.519 1570.04,221.755C1569.13,221.528 1568.22,221.419 1567.33,221.427L1567.33,216.582Z" style="fill:#733c52;"/>
                <path id="q31" serif:id="q3" d="M1567.33,247.131C1564.66,247.129 1562.05,246.382 1559.51,244.887C1557.95,243.921 1556.59,242.687 1555.45,241.185C1554.91,240.464 1554.49,239.828 1554.19,239.277C1553.93,238.82 1553.68,238.32 1553.42,237.777C1553.4,237.709 1553.39,237.723 1553.4,237.819L1553.29,237.61C1553.17,237.376 1553.02,236.98 1552.83,236.421C1552.39,234.949 1552.15,233.486 1552.12,232.033L1555.82,232.033C1555.65,234.517 1556.45,237.006 1558.22,239.498C1559.94,241.725 1562.18,243.184 1564.94,243.875C1565.78,244.05 1566.57,244.151 1567.33,244.178L1567.33,246.238C1565.7,246.263 1564.04,245.989 1562.33,245.417C1563.95,246.149 1565.62,246.54 1567.33,246.59L1567.33,247.131ZM1555.84,232.033L1557,232.033L1556.72,233.16C1556.74,233.76 1556.84,234.381 1557.01,235.023C1557.97,238.012 1559.75,240.291 1562.36,241.86C1564.06,242.74 1565.71,243.228 1567.33,243.326L1567.33,243.953C1566.4,243.929 1565.49,243.787 1564.58,243.526C1562.27,242.918 1560.21,241.491 1558.4,239.244C1557.47,237.932 1556.84,236.807 1556.51,235.867C1556.08,234.572 1555.86,233.294 1555.84,232.033Z" style="fill:#733c52;"/>
                <path id="q21" serif:id="q2" d="M1567.33,243.326C1568.44,243.392 1569.53,243.275 1570.6,242.974C1571.22,242.826 1571.91,242.579 1572.67,242.235C1573.34,241.93 1574.08,241.494 1574.87,240.927C1574.74,241.114 1574.81,241.118 1575.1,240.938C1576.16,240.128 1577.05,239.114 1577.76,237.895C1577.4,238.868 1576.82,239.708 1576.02,240.415C1574.52,241.75 1573.2,242.636 1572.06,243.074C1570.45,243.699 1568.88,243.992 1567.33,243.953L1567.33,243.326ZM1567.33,244.178C1568.22,244.209 1569.06,244.14 1569.85,243.97C1571.83,243.546 1573.58,242.805 1575.11,241.747C1578.19,239.121 1579.78,235.938 1579.89,232.201C1579.91,233.483 1579.66,234.975 1579.14,236.679C1579.59,236.442 1579.94,235.491 1580.19,233.827C1580.12,234.577 1579.93,235.502 1579.63,236.601C1579.6,236.681 1579.63,236.722 1579.71,236.724C1579.65,236.973 1579.49,237.468 1579.22,238.21L1579.93,237.34C1579.79,237.773 1579.27,238.692 1578.37,240.098C1576.49,242.666 1574.03,244.396 1570.99,245.288C1573.06,244.909 1575.05,243.836 1576.97,242.069C1576.52,242.562 1576.02,243.006 1575.46,243.401C1572.87,245.248 1570.16,246.194 1567.33,246.238L1567.33,244.178ZM1567.33,246.59C1569.57,246.655 1571.88,246.138 1574.26,245.039C1574.03,245.305 1573.14,245.763 1571.58,246.413C1570.93,246.664 1570.36,246.831 1569.86,246.914C1569.01,247.059 1568.17,247.131 1567.33,247.131L1567.33,246.59Z" style="fill:#733c52;"/>
            </g>
        </g>
    </g>
    <g id="S-melisma" serif:id="S melisma">
        <path id="Sounder" d="M929.866,2302.91C904.613,2346.65 848.602,2361.66 804.866,2336.41C761.129,2311.16 746.123,2255.14 771.377,2211.41C796.63,2167.67 852.64,2152.66 896.377,2177.91C940.113,2203.16 955.119,2259.17 929.866,2302.91Z" style="fill:#fff;"/>
        <g id="Ring1" serif:id="Ring" opacity="0.5">
            <path d="M929.866,2302.91C904.613,2346.65 848.602,2361.66 804.866,2336.41C761.129,2311.16 746.123,2255.14 771.377,2211.41C796.63,2167.67 852.64,2152.66 896.377,2177.91C940.113,2203.16 955.119,2259.17 929.866,2302.91Z" style="fill:none;stroke:#000;stroke-width:1.93px;"/>
            <path d="M929.866,2302.91L924.8,2299.98" style="fill:none;stroke:#000;stroke-width:1.93px;"/>
            <path d="M776.443,2214.33L771.377,2211.41" style="fill:none;stroke:#000;stroke-width:1.93px;"/>
            <path d="M807.791,2331.34L804.866,2336.41" style="fill:none;stroke:#000;stroke-width:1.93px;"/>
            <path d="M896.377,2177.91L893.452,2182.97" style="fill:none;stroke:#000;stroke-width:1.93px;"/>
            <path d="M896.375,2336.4L893.45,2331.34" style="fill:none;stroke:#000;stroke-width:1.93px;"/>
            <path d="M807.793,2182.98L804.868,2177.91" style="fill:none;stroke:#000;stroke-width:1.93px;"/>
            <path d="M776.437,2299.99L771.371,2302.91" style="fill:none;stroke:#000;stroke-width:1.93px;"/>
            <path d="M929.871,2211.4L924.805,2214.33" style="fill:none;stroke:#000;stroke-width:1.93px;"/>
            <path d="M850.621,2348.66L850.621,2342.82" style="fill:none;stroke:#000;stroke-width:1.93px;"/>
            <path d="M850.621,2171.5L850.621,2165.65" style="fill:none;stroke:#000;stroke-width:1.93px;"/>
            <path d="M764.964,2257.16L759.114,2257.16" style="fill:none;stroke:#000;stroke-width:1.93px;"/>
            <path d="M942.128,2257.16L936.278,2257.16" style="fill:none;stroke:#000;stroke-width:1.93px;"/>
        </g>
        <g id="Root-Markers1" serif:id="Root Markers">
        </g>
        <g id="Notes1" serif:id="Notes">
            <path id="_112" serif:id="11" d="M818.108,2186.45C813.866,2193.8 804.455,2196.32 797.107,2192.08C789.759,2187.84 787.238,2178.43 791.48,2171.08C795.723,2163.73 805.133,2161.21 812.481,2165.45C819.829,2169.69 822.351,2179.1 818.108,2186.45Z" style="fill:#f5cd6c;stroke:#fff;stroke-width:4.63px;"/>
            <path id="_91" serif:id="9" d="M772.428,2266.65C768.186,2273.99 758.776,2276.52 751.427,2272.27C744.079,2268.03 741.558,2258.62 745.8,2251.27C750.043,2243.93 759.453,2241.4 766.801,2245.65C774.149,2249.89 776.671,2259.3 772.428,2266.65Z" style="fill:#f5cd6c;stroke:#fff;stroke-width:4.63px;"/>
            <path id="_72" serif:id="7" d="M818.999,2343.85C814.757,2351.2 805.346,2353.72 797.998,2349.47C790.65,2345.23 788.128,2335.82 792.371,2328.47C796.613,2321.13 806.024,2318.61 813.372,2322.85C820.72,2327.09 823.242,2336.5 818.999,2343.85Z" style="fill:#f5cd6c;stroke:#fff;stroke-width:4.63px;"/>
            <path id="_62" serif:id="6" d="M863.935,2356.8C859.693,2364.15 850.282,2366.67 842.934,2362.43C835.586,2358.19 833.065,2348.78 837.307,2341.43C841.55,2334.08 850.96,2331.56 858.308,2335.8C865.656,2340.04 868.178,2349.45 863.935,2356.8Z" style="fill:#f5cd6c;stroke:#fff;stroke-width:4.63px;"/>
            <path id="_0" serif:id="0" d="M863.935,2174.34C859.693,2181.68 850.282,2184.2 842.934,2179.96C835.586,2175.72 833.065,2166.31 837.307,2158.96C841.55,2151.61 850.96,2149.09 858.308,2153.33C865.656,2157.58 868.178,2166.99 863.935,2174.34Z" style="fill:#f5cd6c;stroke:#fff;stroke-width:4.63px;"/>
        </g>
        <g id="Treble-Marker1" serif:id="Treble Marker">
        </g>
    </g>
</svg>
