<?xml version="1.0" encoding="UTF-8" standalone="no"?>
<!DOCTYPE svg PUBLIC "-//W3C//DTD SVG 1.1//EN" "http://www.w3.org/Graphics/SVG/1.1/DTD/svg11.dtd">
<svg width="100%" height="100%" viewBox="0 0 1700 2481" version="1.1" xmlns="http://www.w3.org/2000/svg" xmlns:xlink="http://www.w3.org/1999/xlink" xml:space="preserve" xmlns:serif="http://www.serif.com/" style="fill-rule:evenodd;clip-rule:evenodd;stroke-linecap:round;stroke-linejoin:round;stroke-miterlimit:1.5;">
    <rect id="X2Y" x="0" y="0.356" width="1700" height="2480" style="fill:none;"/>
    <g id="Fields" opacity="0.2">
        <path id="_2" serif:id="2" d="M1327.42,1113.36L1690,1016.83L1690,417.732L1203.91,895.943C1260.23,953.426 1301.74,1023.36 1327.42,1113.36Z" style="fill:#b1865b;stroke:#767676;stroke-width:8.33px;"/>
    </g>
    <g id="SG">
        <g id="Meta-Ring">
            <path d="M1262.06,1480.25C1130.75,1707.69 839.501,1785.74 612.077,1654.44C384.653,1523.13 306.623,1231.88 437.936,1004.44C569.25,776.995 860.499,698.943 1087.92,830.246C1315.35,961.549 1393.38,1252.81 1262.06,1480.25Z" style="fill:none;stroke:#000;stroke-width:0.48px;stroke-linecap:square;"/>
            <path d="M1262.06,1480.25L1235.72,1465.04" style="fill:none;stroke:#000;stroke-width:0.48px;stroke-linecap:square;"/>
            <path d="M464.279,1019.64L437.936,1004.44" style="fill:none;stroke:#000;stroke-width:0.48px;stroke-linecap:square;"/>
            <path d="M627.286,1628.09L612.077,1654.44" style="fill:none;stroke:#000;stroke-width:0.48px;stroke-linecap:square;"/>
            <path d="M1087.92,830.246L1072.71,856.589" style="fill:none;stroke:#000;stroke-width:0.48px;stroke-linecap:square;"/>
            <path d="M1087.91,1654.42L1072.7,1628.08" style="fill:none;stroke:#000;stroke-width:0.48px;stroke-linecap:square;"/>
            <path d="M627.296,856.606L612.087,830.263" style="fill:none;stroke:#000;stroke-width:0.48px;stroke-linecap:square;"/>
            <path d="M464.249,1465.05L437.907,1480.26" style="fill:none;stroke:#000;stroke-width:0.48px;stroke-linecap:square;"/>
            <path d="M1262.09,1004.42L1235.75,1019.63" style="fill:none;stroke:#000;stroke-width:0.48px;stroke-linecap:square;"/>
            <path d="M850,1718.18L850,1687.77" style="fill:none;stroke:#000;stroke-width:0.48px;stroke-linecap:square;"/>
            <path d="M850,796.914L850,766.497" style="fill:none;stroke:#000;stroke-width:0.48px;stroke-linecap:square;"/>
            <path d="M404.592,1242.34L374.174,1242.34" style="fill:none;stroke:#000;stroke-width:0.48px;stroke-linecap:square;"/>
            <path d="M1325.83,1242.34L1295.41,1242.34" style="fill:none;stroke:#000;stroke-width:0.48px;stroke-linecap:square;"/>
        </g>
        <g id="Ring-Backers" serif:id="Ring Backers">
        </g>
        <g id="Child-Rings" serif:id="Child Rings">
        </g>
    </g>
    <g id="S">
        <g id="Ring">
            <path id="Backer" d="M1261.43,1477.36C1130.55,1704.06 840.239,1781.85 613.55,1650.98C386.862,1520.1 309.085,1229.8 439.973,1003.09C570.862,776.393 861.169,698.596 1087.86,829.471C1314.55,960.347 1392.32,1250.65 1261.43,1477.36Z" style="fill:#fff;"/>
            <path d="M1261.43,1477.36C1130.55,1704.06 840.239,1781.85 613.55,1650.98C386.862,1520.1 309.085,1229.8 439.973,1003.09C570.862,776.393 861.169,698.596 1087.86,829.471C1314.55,960.347 1392.32,1250.65 1261.43,1477.36Z" style="fill:none;stroke:#000;stroke-width:8.33px;"/>
            <path d="M1261.43,1477.36L1235.18,1462.2" style="fill:none;stroke:#000;stroke-width:8.33px;"/>
            <path d="M466.231,1018.25L439.973,1003.09" style="fill:none;stroke:#000;stroke-width:8.33px;"/>
            <path d="M628.71,1624.72L613.55,1650.98" style="fill:none;stroke:#000;stroke-width:8.33px;"/>
            <path d="M1087.86,829.471L1072.7,855.728" style="fill:none;stroke:#000;stroke-width:8.33px;"/>
            <path d="M1087.85,1650.96L1072.69,1624.7" style="fill:none;stroke:#000;stroke-width:8.33px;"/>
            <path d="M628.72,855.746L613.56,829.489" style="fill:none;stroke:#000;stroke-width:8.33px;"/>
            <path d="M466.201,1462.21L439.944,1477.37" style="fill:none;stroke:#000;stroke-width:8.33px;"/>
            <path d="M1261.46,1003.08L1235.21,1018.24" style="fill:none;stroke:#000;stroke-width:8.33px;"/>
            <path d="M850.704,1714.52L850.704,1684.2" style="fill:none;stroke:#000;stroke-width:8.33px;"/>
            <path d="M850.704,796.248L850.704,765.93" style="fill:none;stroke:#000;stroke-width:8.33px;"/>
            <path d="M406.736,1240.23L376.417,1240.23" style="fill:none;stroke:#000;stroke-width:8.33px;"/>
            <path d="M1324.99,1240.23L1294.67,1240.23" style="fill:none;stroke:#000;stroke-width:8.33px;"/>
        </g>
        <g id="Root-Markers" serif:id="Root Markers">
            <path id="_6" serif:id="6" d="M851.354,1607.97L815.055,1507.14L887.654,1507.14L851.354,1607.97ZM851.354,1551.4L860.389,1526.3L842.32,1526.3L851.354,1551.4Z" style="fill:#a19963;"/>
        </g>
        <g id="Notes">
            <path id="_61" serif:id="6" d="M919.712,1756.7C897.722,1794.78 848.949,1807.85 810.862,1785.86C772.775,1763.88 759.707,1715.1 781.696,1677.02C803.685,1638.93 852.459,1625.86 890.546,1647.85C928.632,1669.84 941.701,1718.61 919.712,1756.7Z" style="fill:#a19963;stroke:#fff;stroke-width:24px;"/>
            <path id="_4" serif:id="4" d="M1327.25,1519.76C1305.27,1557.85 1256.49,1570.91 1218.4,1548.93C1180.32,1526.94 1167.25,1478.16 1189.24,1440.08C1211.23,1401.99 1260,1388.92 1298.09,1410.91C1336.17,1432.9 1349.24,1481.67 1327.25,1519.76Z" style="fill:#a19963;stroke:#fff;stroke-width:24px;"/>
            <path id="_21" serif:id="2" d="M1327.24,1049.27C1305.25,1087.35 1256.48,1100.42 1218.39,1078.43C1180.3,1056.44 1167.23,1007.67 1189.22,969.587C1211.21,931.501 1259.99,918.432 1298.07,940.421C1336.16,962.41 1349.23,1011.18 1327.24,1049.27Z" style="fill:#a19963;stroke:#fff;stroke-width:24px;"/>
        </g>
        <g id="Treble-Marker" serif:id="Treble Marker">
            <g id="_11" serif:id="11">
                <path id="_111" serif:id="11" d="M682.187,873.758C660.198,911.844 611.424,924.913 573.337,902.924C535.251,880.935 522.182,832.162 544.171,794.076C566.16,755.991 614.934,742.922 653.021,764.911C691.107,786.9 704.176,835.673 682.187,873.758Z" style="fill:#fff;stroke:#fff;stroke-width:33.33px;"/>
                <circle id="_11a" serif:id="11a" cx="613.179" cy="833.917" r="64" style="fill:#fff;stroke:#a19963;stroke-width:16.67px;"/>
            </g>
        </g>
    </g>
    <g id="Songs">
        <g id="song-2-grooves" serif:id="song 2 grooves">
            <g id="X2Y1" serif:id="X2Y">
                <path d="M1567,924.355C1547.61,924.461 1528.19,916.985 1513.62,901.994L1487.86,875.508C1474.49,861.762 1467.55,844.13 1466.99,826.349L1567.66,826.53L1567,924.355Z" style="fill:#a19963;stroke:#fff;stroke-width:1.67px;"/>
                <path d="M1466.99,826.349C1466.36,806.311 1473.83,786.085 1489.32,771.021L1515.81,745.264C1530.42,731.049 1549.44,724.104 1568.35,724.369L1567.66,826.53L1466.99,826.349Z" style="fill:#a19963;stroke:#fff;stroke-width:1.67px;"/>
                <path d="M1467.96,826.53L1566.96,826.708" style="fill:none;stroke:#a19963;stroke-width:4.17px;stroke-linecap:butt;"/>
                <path id="q3" d="M1567.36,911.965C1567.35,911.965 1567.34,911.965 1567.32,911.965C1545.43,911.965 1523.96,903.49 1507.26,886.79C1490.56,870.09 1482.88,848.923 1482.88,827.034C1482.88,826.683 1482.88,826.333 1482.89,825.983L1485.28,825.983C1485.28,826.271 1485.27,826.559 1485.27,826.847C1485.27,847.446 1493.88,868.794 1509.6,884.51C1525.31,900.227 1546.39,908.459 1566.99,908.459C1567.12,908.459 1567.24,908.459 1567.36,908.458L1567.36,911.965ZM1567.36,905.296C1567.32,905.296 1567.28,905.296 1567.25,905.296C1547.07,905.296 1527.28,897.485 1511.89,882.093C1496.5,866.701 1489.42,847.193 1489.42,827.019C1489.42,826.673 1489.42,826.328 1489.43,825.983L1491.63,825.983C1491.63,826.271 1491.62,826.559 1491.62,826.846C1491.62,845.832 1499.56,865.506 1514.04,879.992C1528.53,894.477 1547.95,902.064 1566.94,902.064C1567.08,902.064 1567.22,902.064 1567.36,902.063L1567.36,905.296ZM1567.36,898.626C1567.3,898.626 1567.23,898.626 1567.17,898.626C1548.71,898.626 1530.6,891.479 1516.52,877.396C1502.43,863.313 1495.96,845.463 1495.96,827.003C1495.96,826.663 1495.96,826.323 1495.96,825.983L1497.98,825.983C1497.98,826.271 1497.97,826.559 1497.97,826.846C1497.97,844.217 1505.23,862.219 1518.49,875.473C1531.74,888.727 1549.52,895.67 1566.89,895.67C1567.05,895.67 1567.2,895.669 1567.36,895.668L1567.36,898.626ZM1567.36,891.956C1567.27,891.956 1567.18,891.956 1567.09,891.956C1550.35,891.956 1533.92,885.474 1521.14,872.699C1508.37,859.924 1502.49,843.732 1502.49,826.989C1502.49,826.653 1502.5,826.318 1502.5,825.983L1504.33,825.983C1504.33,826.271 1504.32,826.558 1504.32,826.845C1504.32,842.602 1510.91,858.932 1522.93,870.955C1534.95,882.977 1551.08,889.275 1566.84,889.274C1567.01,889.274 1567.18,889.274 1567.36,889.272L1567.36,891.956ZM1567.36,885.286C1567.24,885.287 1567.13,885.287 1567.01,885.287C1551.98,885.287 1537.24,879.468 1525.77,868.002C1514.31,856.535 1509.03,842.002 1509.03,826.973C1509.03,826.643 1509.03,826.313 1509.04,825.983L1510.68,825.983C1510.68,826.271 1510.67,826.558 1510.67,826.845C1510.67,840.988 1516.58,855.645 1527.37,866.436C1538.16,877.227 1552.64,882.88 1566.78,882.88C1566.98,882.88 1567.17,882.879 1567.36,882.877L1567.36,885.286ZM1567.36,878.615C1567.22,878.617 1567.07,878.617 1566.93,878.617C1553.62,878.617 1540.56,873.463 1530.4,863.305C1520.24,853.147 1515.57,840.272 1515.57,826.958C1515.57,826.633 1515.57,826.308 1515.58,825.983L1517.03,825.983C1517.03,826.27 1517.02,826.558 1517.02,826.844C1517.02,839.373 1522.26,852.358 1531.82,861.918C1541.38,871.478 1554.2,876.485 1566.73,876.485C1566.94,876.485 1567.15,876.483 1567.36,876.48L1567.36,878.615ZM1567.36,871.944C1567.19,871.946 1567.02,871.947 1566.85,871.947C1555.25,871.948 1543.88,867.457 1535.03,858.607C1526.18,849.758 1522.11,838.541 1522.11,826.943C1522.11,826.622 1522.11,826.302 1522.12,825.983L1523.38,825.983C1523.38,826.27 1523.37,826.557 1523.37,826.844C1523.37,837.759 1527.93,849.071 1536.26,857.399C1544.59,865.728 1555.76,870.09 1566.68,870.09C1566.9,870.09 1567.13,870.088 1567.36,870.084L1567.36,871.944ZM1567.36,865.273C1567.16,865.276 1566.97,865.278 1566.77,865.278C1556.89,865.278 1547.19,861.451 1539.65,853.91C1532.11,846.369 1528.64,836.811 1528.64,826.927C1528.64,826.612 1528.65,826.297 1528.65,825.983L1529.74,825.983C1529.73,826.27 1529.72,826.557 1529.72,826.843C1529.72,836.144 1533.61,845.784 1540.71,852.881C1547.8,859.978 1557.32,863.695 1566.62,863.695C1566.87,863.695 1567.12,863.692 1567.36,863.687L1567.36,865.273ZM1567.36,858.601C1567.14,858.606 1566.92,858.609 1566.69,858.609C1558.53,858.609 1550.51,855.446 1544.28,849.213C1538.05,842.981 1535.18,835.081 1535.18,826.912C1535.18,826.602 1535.19,826.292 1535.19,825.983L1536.09,825.983C1536.08,826.27 1536.07,826.557 1536.07,826.843C1536.07,834.53 1539.29,842.497 1545.15,848.362C1551.02,854.228 1558.88,857.3 1566.57,857.3C1566.83,857.3 1567.1,857.296 1567.36,857.289L1567.36,858.601ZM1567.36,851.927C1567.11,851.935 1566.87,851.939 1566.62,851.939C1560.16,851.939 1553.83,849.44 1548.91,844.516C1543.98,839.592 1541.72,833.351 1541.72,826.897C1541.72,826.592 1541.72,826.287 1541.74,825.983L1542.44,825.983C1542.43,826.27 1542.42,826.557 1542.42,826.842C1542.42,832.915 1544.96,839.21 1549.6,843.844C1554.23,848.478 1560.44,850.905 1566.52,850.905C1566.8,850.905 1567.08,850.9 1567.36,850.889L1567.36,851.927Z" style="fill:#e7e7e7;"/>
                <path id="q4" d="M1482.89,825.983C1483.15,804.677 1491.51,784.351 1507.63,767.979L1506.3,766.647C1523,749.946 1545.03,741.452 1566.91,741.452C1567.06,741.452 1567.21,741.452 1567.36,741.453L1567.36,746.491C1567.21,746.49 1567.06,746.49 1566.91,746.49C1546.32,746.49 1525.6,754.51 1509.88,770.228L1508.69,769.033C1493.64,784.438 1485.51,805.929 1485.28,825.983L1482.89,825.983ZM1489.43,825.983C1489.69,806.371 1497.38,787.658 1512.23,772.586L1511,771.363C1526.4,755.971 1546.69,748.142 1566.87,748.142C1567.03,748.142 1567.2,748.142 1567.36,748.143L1567.36,752.786C1567.2,752.785 1567.03,752.785 1566.87,752.785C1547.88,752.785 1528.79,760.177 1514.31,774.663L1513.21,773.566C1499.36,787.747 1491.86,807.52 1491.63,825.983L1489.43,825.983ZM1495.96,825.983C1496.22,808.064 1503.25,790.964 1516.82,777.192L1515.71,776.079C1529.79,761.996 1548.36,754.832 1566.82,754.832C1567,754.832 1567.18,754.833 1567.36,754.834L1567.36,759.082C1567.18,759.081 1567,759.08 1566.82,759.08C1549.45,759.08 1531.98,765.845 1518.73,779.099L1517.73,778.098C1505.07,791.056 1498.21,809.11 1497.98,825.983L1495.96,825.983ZM1502.5,825.983C1502.75,809.758 1509.13,794.271 1521.41,781.799L1520.41,780.795C1533.18,768.02 1550.03,761.522 1566.78,761.522C1566.97,761.522 1567.16,761.523 1567.36,761.525L1567.36,765.379C1567.16,765.377 1566.97,765.376 1566.78,765.376C1551.02,765.376 1535.17,771.512 1523.15,783.534L1522.25,782.632C1510.79,794.364 1504.56,810.701 1504.33,825.983L1502.5,825.983ZM1509.04,825.983C1509.29,811.451 1515,797.578 1526.01,786.405L1525.11,785.511C1536.58,774.045 1551.7,768.213 1566.73,768.213C1566.94,768.213 1567.15,768.214 1567.36,768.216L1567.36,771.675C1567.15,771.672 1566.94,771.671 1566.73,771.671C1552.59,771.671 1538.36,777.178 1527.57,787.97L1526.77,787.164C1516.5,797.673 1510.91,812.292 1510.68,825.983L1509.04,825.983ZM1515.58,825.983C1515.82,813.145 1520.87,800.884 1530.6,791.012L1529.81,790.227C1539.97,780.069 1553.37,774.902 1566.68,774.902C1566.91,774.902 1567.13,774.904 1567.36,774.907L1567.36,777.971C1567.13,777.968 1566.91,777.966 1566.68,777.966C1554.15,777.967 1541.55,782.845 1531.99,792.405L1531.29,791.697C1522.22,800.982 1517.26,813.882 1517.03,825.983L1515.58,825.983ZM1522.12,825.983C1522.36,814.838 1526.75,804.191 1535.19,795.618L1534.52,794.943C1543.37,786.094 1555.04,781.593 1566.63,781.593C1566.88,781.593 1567.12,781.595 1567.36,781.598L1567.36,784.268C1567.12,784.264 1566.88,784.262 1566.63,784.262C1555.72,784.262 1544.74,788.512 1536.41,796.841L1535.8,796.23C1527.93,804.291 1523.61,815.473 1523.38,825.983L1522.12,825.983ZM1528.65,825.983C1528.89,816.531 1532.62,807.497 1539.79,800.225L1539.22,799.66C1546.76,792.119 1556.7,788.283 1566.59,788.283C1566.85,788.283 1567.1,788.285 1567.36,788.29L1567.36,790.566C1567.1,790.56 1566.85,790.557 1566.59,790.557C1557.29,790.558 1547.93,794.18 1540.84,801.276L1540.32,800.763C1533.65,807.599 1529.96,817.064 1529.74,825.983L1528.65,825.983ZM1535.19,825.983C1535.42,818.224 1538.49,810.804 1544.38,804.831L1543.92,804.376C1550.15,798.143 1558.37,794.973 1566.54,794.973C1566.82,794.973 1567.09,794.976 1567.36,794.983L1567.36,796.864C1567.09,796.857 1566.82,796.853 1566.54,796.853C1558.85,796.853 1551.12,799.847 1545.26,805.712L1544.84,805.296C1539.36,810.908 1536.31,818.656 1536.09,825.983L1535.19,825.983ZM1541.74,825.983C1541.95,819.917 1544.37,814.11 1548.97,809.438L1548.62,809.092C1553.55,804.168 1560.04,801.663 1566.5,801.663C1566.78,801.663 1567.07,801.668 1567.36,801.678L1567.36,803.164C1567.07,803.154 1566.78,803.149 1566.5,803.149C1560.42,803.149 1554.31,805.514 1549.68,810.148L1549.36,809.829C1545.08,814.217 1542.66,820.249 1542.44,825.983L1541.74,825.983Z" style="fill:#e7e7e7;"/>
            </g>
            <g id="X2Y2">
                <path d="M1568.35,724.369C1587.26,724.633 1606.08,732.105 1620.29,746.723L1646.05,773.21C1660.5,788.074 1667.44,807.482 1666.92,826.708L1567.66,826.53L1568.35,724.369Z" style="fill:#82c072;stroke:#fff;stroke-width:1.67px;"/>
                <path d="M1666.92,826.708C1666.43,845.299 1658.96,863.72 1644.59,877.696L1618.1,903.453C1603.86,917.307 1585.44,924.255 1567,924.355L1567.66,826.53L1666.92,826.708Z" style="fill:#82c072;stroke:#fff;stroke-width:1.67px;"/>
                <path d="M1568.46,826.708L1666.06,826.708" style="fill:none;stroke:#82c072;stroke-width:4.17px;stroke-linecap:butt;"/>
                <path id="q2" d="M1652.44,825.983C1652.44,826.315 1652.44,826.647 1652.44,826.979C1652.44,848.868 1643.35,870.018 1626.65,886.719C1609.96,903.41 1589.24,911.956 1567.36,911.965L1567.36,908.458C1587.84,908.357 1608.5,899.818 1624.13,884.194C1639.85,868.477 1647.4,847.578 1647.4,826.979C1647.4,826.647 1647.4,826.315 1647.4,825.983L1652.44,825.983ZM1645.69,825.983C1645.69,826.311 1645.69,826.64 1645.69,826.968C1645.69,847.142 1637.32,866.635 1621.92,882.027C1606.56,897.39 1587.49,905.265 1567.36,905.296L1567.36,902.063C1586.21,901.948 1605.22,894.079 1619.6,879.7C1634.08,865.215 1641.05,845.954 1641.05,826.968C1641.05,826.64 1641.05,826.311 1641.05,825.983L1645.69,825.983ZM1638.94,825.983C1638.94,826.308 1638.95,826.633 1638.95,826.957C1638.95,845.416 1631.28,863.252 1617.2,877.336C1603.16,891.37 1585.75,898.575 1567.36,898.626L1567.36,895.668C1584.58,895.538 1601.94,888.341 1615.07,875.207C1628.32,861.953 1634.7,844.329 1634.7,826.957C1634.7,826.633 1634.7,826.308 1634.69,825.983L1638.94,825.983ZM1632.19,825.983C1632.2,826.304 1632.2,826.625 1632.2,826.946C1632.2,843.69 1625.25,859.869 1612.47,872.644C1599.77,885.35 1584,891.885 1567.36,891.956L1567.36,889.272C1582.95,889.128 1598.65,882.602 1610.54,870.713C1622.56,858.69 1628.35,842.704 1628.35,826.946C1628.35,826.625 1628.34,826.304 1628.34,825.983L1632.19,825.983ZM1625.44,825.983C1625.45,826.3 1625.45,826.618 1625.45,826.935C1625.45,841.964 1619.21,856.486 1607.74,867.953C1596.37,879.33 1582.26,885.195 1567.36,885.286L1567.36,882.877C1581.31,882.719 1595.37,876.864 1606.01,866.219C1616.8,855.428 1621.99,841.079 1621.99,826.935C1621.99,826.618 1621.99,826.3 1621.98,825.983L1625.44,825.983ZM1618.69,825.983C1618.7,826.297 1618.7,826.611 1618.7,826.925C1618.7,840.238 1613.17,853.103 1603.02,863.261C1592.97,873.31 1580.52,878.505 1567.36,878.615L1567.36,876.48C1579.68,876.309 1592.08,871.125 1601.48,861.726C1611.04,852.166 1615.64,839.454 1615.64,826.924C1615.64,826.611 1615.64,826.297 1615.63,825.983L1618.69,825.983ZM1611.95,825.983C1611.95,826.293 1611.96,826.603 1611.96,826.914C1611.96,838.513 1607.14,849.72 1598.29,858.569C1589.57,867.29 1578.77,871.814 1567.36,871.944L1567.36,870.084C1578.05,869.899 1588.8,865.387 1596.95,857.232C1605.28,848.904 1609.29,837.829 1609.29,826.914C1609.29,826.603 1609.28,826.293 1609.28,825.983L1611.95,825.983ZM1605.2,825.983C1605.2,826.289 1605.21,826.596 1605.21,826.903C1605.21,836.787 1601.1,846.337 1593.56,853.878C1586.17,861.27 1577.03,865.124 1567.36,865.273L1567.36,863.687C1576.42,863.489 1585.51,859.648 1592.42,852.738C1599.52,845.641 1602.93,836.204 1602.93,826.903C1602.93,826.596 1602.93,826.289 1602.92,825.983L1605.2,825.983ZM1598.45,825.983C1598.46,826.286 1598.46,826.589 1598.46,826.892C1598.46,835.061 1595.07,842.954 1588.84,849.186C1582.77,855.25 1575.28,858.433 1567.36,858.601L1567.36,857.289C1574.79,857.078 1582.23,853.909 1587.89,848.244C1593.76,842.379 1596.58,834.579 1596.58,826.892C1596.58,826.589 1596.58,826.286 1596.57,825.983L1598.45,825.983ZM1591.7,825.983C1591.71,826.282 1591.71,826.582 1591.71,826.881C1591.71,833.335 1589.03,839.571 1584.11,844.495C1579.37,849.229 1573.54,851.741 1567.36,851.927L1567.36,850.889C1573.16,850.668 1578.94,848.171 1583.37,843.751C1588,839.117 1590.23,832.955 1590.23,826.881C1590.23,826.582 1590.22,826.282 1590.21,825.983L1591.7,825.983Z" style="fill:#e7e7e7;"/>
                <path id="q1" d="M1567.36,741.453C1589.1,741.566 1610.81,749.915 1627.39,766.502C1643.84,782.949 1652.19,804.428 1652.44,825.983L1647.4,825.983C1647.15,805.717 1639.29,785.527 1623.83,770.064C1608.23,754.461 1587.81,746.603 1567.36,746.491L1567.36,741.453ZM1567.36,748.143C1587.37,748.268 1607.34,755.963 1622.61,771.23C1637.75,786.371 1645.44,806.139 1645.69,825.983L1641.05,825.983C1640.8,807.327 1633.56,788.747 1619.32,774.513C1604.96,760.153 1586.18,752.911 1567.36,752.786L1567.36,748.143ZM1567.36,754.834C1585.64,754.97 1603.88,762.01 1617.82,775.957C1631.66,789.792 1638.7,807.85 1638.94,825.983L1634.69,825.983C1634.45,808.938 1627.82,791.967 1614.82,778.961C1601.7,765.844 1584.55,759.218 1567.36,759.082L1567.36,754.834ZM1567.36,761.525C1583.91,761.672 1600.41,768.058 1613.04,780.684C1625.57,793.214 1631.95,809.562 1632.19,825.983L1628.34,825.983C1628.1,810.548 1622.09,795.187 1610.31,783.409C1598.44,771.535 1582.92,765.525 1567.36,765.379L1567.36,761.525ZM1567.36,768.216C1582.18,768.374 1596.95,774.106 1608.25,785.412C1619.48,796.636 1625.21,811.273 1625.44,825.983L1621.98,825.983C1621.75,812.159 1616.36,798.406 1605.81,787.858C1595.18,777.227 1581.29,771.833 1567.36,771.675L1567.36,768.216ZM1567.36,774.907C1580.45,775.076 1593.48,780.154 1603.47,790.139C1613.38,800.057 1618.46,812.984 1618.69,825.983L1615.63,825.983C1615.4,813.769 1610.62,801.627 1601.3,792.306C1591.91,782.919 1579.66,778.141 1567.36,777.971L1567.36,774.907ZM1567.36,781.598C1578.72,781.779 1590.02,786.202 1598.68,794.867C1607.3,803.479 1611.72,814.696 1611.95,825.983L1609.28,825.983C1609.05,815.38 1604.88,804.846 1596.79,796.755C1588.65,788.611 1578.03,784.448 1567.36,784.268L1567.36,781.598ZM1567.36,788.29C1576.99,788.482 1586.55,792.25 1593.9,799.594C1601.2,806.901 1604.97,816.408 1605.2,825.983L1602.92,825.983C1602.7,816.99 1599.15,808.066 1592.29,801.203C1585.39,794.302 1576.4,790.756 1567.36,790.566L1567.36,788.29ZM1567.36,794.983C1575.25,795.184 1583.09,798.297 1589.11,804.322C1595.11,810.323 1598.23,818.119 1598.45,825.983L1596.57,825.983C1596.35,818.601 1593.42,811.285 1587.78,805.651C1582.12,799.993 1574.77,797.065 1567.36,796.864L1567.36,794.983ZM1567.36,801.678C1573.52,801.888 1579.62,804.345 1584.33,809.049C1589.02,813.745 1591.48,819.831 1591.7,825.983L1590.21,825.983C1589.99,820.212 1587.68,814.505 1583.28,810.1C1578.86,805.686 1573.14,803.374 1567.36,803.164L1567.36,801.678Z" style="fill:#e7e7e7;"/>
            </g>
        </g>
    </g>
    <g id="Map">
        <g id="Frame">
            <rect x="1471.5" y="41.898" width="190" height="190" style="fill:#fff;"/>
            <rect x="1471.5" y="41.898" width="190" height="190" style="fill:none;stroke:#000;stroke-width:1.17px;stroke-linejoin:bevel;"/>
            <rect x="1523.38" y="93.773" width="86.25" height="86.25" style="fill:none;stroke:#000;stroke-width:1.25px;stroke-linejoin:bevel;"/>
            <path d="M1609.62,93.773L1661.5,42.106" style="fill:none;stroke:#000;stroke-width:1.25px;stroke-linejoin:bevel;"/>
            <path d="M1523.38,93.773L1471.92,42.106" style="fill:none;stroke:#000;stroke-width:1.25px;stroke-linejoin:bevel;"/>
            <path d="M1523.38,180.023L1471.5,231.898" style="fill:none;stroke:#000;stroke-width:1.25px;stroke-linejoin:bevel;"/>
            <path d="M1609.62,180.023L1661.5,231.898" style="fill:none;stroke:#000;stroke-width:1.25px;stroke-linejoin:bevel;"/>
        </g>
        <g id="Dots">
            <circle cx="1471.5" cy="231.856" r="1.5" style="stroke:#000;stroke-width:1.25px;stroke-linejoin:bevel;"/>
            <circle cx="1566.2" cy="231.981" r="1.5" style="stroke:#000;stroke-width:1.25px;stroke-linejoin:bevel;"/>
            <circle cx="1661.5" cy="231.856" r="1.5" style="stroke:#000;stroke-width:1.25px;stroke-linejoin:bevel;"/>
            <circle cx="1633.85" cy="204.023" r="1.5" style="stroke:#000;stroke-width:1.25px;stroke-linejoin:bevel;"/>
            <circle cx="1609.62" cy="179.856" r="1.5" style="stroke:#000;stroke-width:1.25px;stroke-linejoin:bevel;"/>
            <circle cx="1609.2" cy="136.981" r="1.5" style="stroke:#000;stroke-width:1.25px;stroke-linejoin:bevel;"/>
            <circle cx="1609.32" cy="93.731" r="1.5" style="stroke:#000;stroke-width:1.25px;stroke-linejoin:bevel;"/>
            <circle cx="1633.76" cy="69.523" r="1.5" style="stroke:#000;stroke-width:1.25px;stroke-linejoin:bevel;"/>
            <circle cx="1566.2" cy="93.731" r="1.5" style="stroke:#000;stroke-width:1.25px;stroke-linejoin:bevel;"/>
            <circle cx="1523.07" cy="93.856" r="1.5" style="stroke:#000;stroke-width:1.25px;stroke-linejoin:bevel;"/>
            <circle cx="1566.5" cy="41.856" r="1.5" style="stroke:#000;stroke-width:1.25px;stroke-linejoin:bevel;"/>
            <circle cx="1471.5" cy="41.898" r="1.5" style="stroke:#000;stroke-width:1.25px;stroke-linejoin:bevel;"/>
            <circle cx="1499.35" cy="69.856" r="1.5" style="stroke:#000;stroke-width:1.25px;stroke-linejoin:bevel;"/>
            <circle cx="1471.5" cy="136.898" r="1.5" style="stroke:#000;stroke-width:1.25px;stroke-linejoin:bevel;"/>
            <circle cx="1523.38" cy="136.898" r="1.5" style="stroke:#000;stroke-width:1.25px;stroke-linejoin:bevel;"/>
            <circle cx="1566" cy="180.023" r="1.5" style="stroke:#000;stroke-width:1.25px;stroke-linejoin:bevel;"/>
            <circle cx="1523.35" cy="179.856" r="1.5" style="stroke:#000;stroke-width:1.25px;stroke-linejoin:bevel;"/>
            <circle cx="1499.15" cy="204.356" r="1.5" style="stroke:#000;stroke-width:1.25px;stroke-linejoin:bevel;"/>
            <circle cx="1661.5" cy="136.898" r="1.5" style="stroke:#000;stroke-width:1.25px;stroke-linejoin:bevel;"/>
            <circle cx="1661.49" cy="42.006" r="1.5" style="stroke:#000;stroke-width:1.25px;stroke-linejoin:bevel;"/>
        </g>
        <g>
            <path d="M1471.5,231.856L1471.45,136.728" style="fill:none;stroke:#df4c44;stroke-width:5.99px;"/>
        </g>
        <g>
            <path d="M1471.5,137.856L1471.45,42.728" style="fill:none;stroke:#82c072;stroke-width:5.99px;"/>
        </g>
        <g id="_22" serif:id="2">
            <circle cx="1471.45" cy="136.898" r="15.75" style="fill:#fff;stroke:#fff;stroke-width:1.46px;"/>
            <path id="q31" serif:id="q3" d="M1471.45,151.941C1471.44,151.941 1471.44,151.941 1471.44,151.941C1467.57,151.941 1463.77,150.441 1460.81,147.486C1457.86,144.532 1456.5,140.787 1456.5,136.914C1456.5,136.852 1456.5,136.79 1456.5,136.728L1456.92,136.728C1456.92,136.779 1456.92,136.83 1456.92,136.881C1456.92,140.525 1458.45,144.302 1461.23,147.083C1464.01,149.864 1467.74,151.32 1471.38,151.32C1471.4,151.32 1471.42,151.32 1471.45,151.32L1471.45,151.941ZM1471.45,150.761C1471.44,150.761 1471.43,150.761 1471.43,150.761C1467.86,150.761 1464.36,149.379 1461.63,146.655C1458.91,143.932 1457.66,140.481 1457.66,136.911C1457.66,136.85 1457.66,136.789 1457.66,136.728L1458.05,136.728C1458.05,136.779 1458.05,136.83 1458.05,136.881C1458.05,140.24 1459.45,143.721 1462.01,146.284C1464.58,148.847 1468.01,150.189 1471.37,150.189C1471.4,150.189 1471.42,150.189 1471.45,150.189L1471.45,150.761ZM1471.45,149.581C1471.43,149.581 1471.42,149.581 1471.41,149.581C1468.15,149.581 1464.94,148.316 1462.45,145.824C1459.96,143.333 1458.81,140.174 1458.81,136.909C1458.81,136.848 1458.81,136.788 1458.82,136.728L1459.17,136.728C1459.17,136.779 1459.17,136.83 1459.17,136.881C1459.17,139.954 1460.45,143.139 1462.8,145.484C1465.14,147.829 1468.29,149.058 1471.36,149.058C1471.39,149.058 1471.42,149.057 1471.45,149.057L1471.45,149.581ZM1471.45,148.4C1471.43,148.401 1471.41,148.401 1471.4,148.401C1468.44,148.401 1465.53,147.254 1463.27,144.993C1461.01,142.733 1459.97,139.868 1459.97,136.906C1459.97,136.847 1459.97,136.787 1459.97,136.728L1460.3,136.728C1460.29,136.779 1460.29,136.83 1460.29,136.881C1460.29,139.668 1461.46,142.558 1463.59,144.685C1465.71,146.812 1468.57,147.926 1471.35,147.926C1471.38,147.926 1471.42,147.926 1471.45,147.926L1471.45,148.4ZM1471.45,147.22C1471.43,147.22 1471.4,147.221 1471.38,147.221C1468.73,147.221 1466.12,146.191 1464.09,144.162C1462.06,142.134 1461.13,139.562 1461.13,136.903C1461.13,136.845 1461.13,136.786 1461.13,136.728L1461.42,136.728C1461.42,136.779 1461.42,136.83 1461.42,136.88C1461.42,139.383 1462.46,141.976 1464.37,143.885C1466.28,145.795 1468.84,146.795 1471.34,146.795C1471.38,146.795 1471.41,146.794 1471.45,146.794L1471.45,147.22ZM1471.45,146.04C1471.42,146.04 1471.4,146.04 1471.37,146.04C1469.02,146.04 1466.7,145.128 1464.91,143.331C1463.11,141.534 1462.28,139.256 1462.28,136.901C1462.28,136.843 1462.28,136.785 1462.29,136.728L1462.54,136.728C1462.54,136.779 1462.54,136.83 1462.54,136.88C1462.54,139.097 1463.47,141.394 1465.16,143.086C1466.85,144.777 1469.12,145.663 1471.34,145.663C1471.37,145.663 1471.41,145.663 1471.45,145.662L1471.45,146.04ZM1471.45,144.86C1471.42,144.86 1471.39,144.86 1471.36,144.86C1469.31,144.86 1467.29,144.066 1465.73,142.5C1464.16,140.934 1463.44,138.95 1463.44,136.898C1463.44,136.841 1463.44,136.784 1463.44,136.728L1463.67,136.728C1463.66,136.779 1463.66,136.83 1463.66,136.88C1463.66,138.812 1464.47,140.813 1465.94,142.286C1467.42,143.76 1469.39,144.532 1471.33,144.532C1471.37,144.532 1471.41,144.531 1471.45,144.531L1471.45,144.86ZM1471.45,143.68C1471.41,143.68 1471.38,143.68 1471.34,143.68C1469.59,143.68 1467.88,143.003 1466.55,141.669C1465.21,140.335 1464.6,138.644 1464.6,136.895C1464.6,136.839 1464.6,136.784 1464.6,136.728L1464.79,136.728C1464.79,136.779 1464.79,136.83 1464.79,136.88C1464.79,138.526 1465.48,140.231 1466.73,141.487C1467.99,142.743 1469.67,143.4 1471.32,143.4C1471.36,143.4 1471.4,143.4 1471.45,143.399L1471.45,143.68ZM1471.45,142.499C1471.41,142.5 1471.37,142.5 1471.33,142.5C1469.88,142.5 1468.47,141.941 1467.36,140.838C1466.26,139.735 1465.75,138.338 1465.75,136.892C1465.75,136.838 1465.75,136.783 1465.76,136.728L1465.91,136.728C1465.91,136.779 1465.91,136.829 1465.91,136.88C1465.91,138.24 1466.48,139.65 1467.52,140.688C1468.56,141.725 1469.95,142.269 1471.31,142.269C1471.35,142.269 1471.4,142.268 1471.45,142.267L1471.45,142.499ZM1471.45,141.318C1471.4,141.32 1471.36,141.32 1471.32,141.32C1470.17,141.32 1469.05,140.878 1468.18,140.007C1467.31,139.136 1466.91,138.032 1466.91,136.89C1466.91,136.836 1466.91,136.782 1466.91,136.728L1467.04,136.728C1467.04,136.779 1467.04,136.829 1467.04,136.88C1467.04,137.955 1467.48,139.068 1468.3,139.888C1469.12,140.708 1470.22,141.137 1471.3,141.137C1471.35,141.137 1471.4,141.136 1471.45,141.135L1471.45,141.318Z" style="fill:#733c52;"/>
            <path id="q41" serif:id="q4" d="M1456.5,136.728C1456.55,132.958 1458.03,129.362 1460.88,126.466L1460.64,126.23C1463.6,123.275 1467.5,121.772 1471.37,121.772C1471.39,121.772 1471.42,121.772 1471.45,121.772L1471.45,122.664C1471.42,122.663 1471.39,122.663 1471.37,122.663C1467.72,122.663 1464.06,124.082 1461.28,126.863L1461.07,126.652C1458.4,129.378 1456.96,133.18 1456.92,136.728L1456.5,136.728ZM1457.66,136.728C1457.7,133.258 1459.07,129.947 1461.69,127.281L1461.48,127.064C1464.2,124.341 1467.79,122.956 1471.36,122.956C1471.39,122.956 1471.42,122.956 1471.45,122.956L1471.45,123.777C1471.42,123.777 1471.39,123.777 1471.36,123.777C1468,123.777 1464.62,125.085 1462.06,127.648L1461.87,127.454C1459.41,129.963 1458.09,133.461 1458.05,136.728L1457.66,136.728ZM1458.82,136.728C1458.86,133.558 1460.1,130.532 1462.51,128.096L1462.31,127.899C1464.8,125.407 1468.09,124.139 1471.35,124.139C1471.38,124.139 1471.41,124.139 1471.45,124.14L1471.45,124.891C1471.41,124.891 1471.38,124.891 1471.35,124.891C1468.28,124.891 1465.19,126.088 1462.84,128.433L1462.66,128.256C1460.43,130.548 1459.21,133.743 1459.17,136.728L1458.82,136.728ZM1459.97,136.728C1460.02,133.857 1461.14,131.117 1463.32,128.911L1463.14,128.733C1465.4,126.473 1468.38,125.323 1471.34,125.323C1471.38,125.323 1471.41,125.323 1471.45,125.324L1471.45,126.005C1471.41,126.005 1471.38,126.005 1471.34,126.005C1468.56,126.005 1465.75,127.09 1463.62,129.218L1463.46,129.058C1461.44,131.134 1460.34,134.024 1460.3,136.728L1459.97,136.728ZM1461.13,136.728C1461.17,134.157 1462.18,131.702 1464.13,129.726L1463.97,129.567C1466,127.539 1468.68,126.507 1471.34,126.507C1471.37,126.507 1471.41,126.507 1471.45,126.507L1471.45,127.119C1471.41,127.119 1471.37,127.119 1471.34,127.119C1468.83,127.119 1466.32,128.093 1464.41,130.002L1464.26,129.86C1462.45,131.719 1461.46,134.306 1461.42,136.728L1461.13,136.728ZM1462.29,136.728C1462.33,134.457 1463.22,132.287 1464.94,130.541L1464.8,130.402C1466.6,128.605 1468.97,127.69 1471.33,127.69C1471.37,127.69 1471.41,127.691 1471.45,127.691L1471.45,128.233C1471.41,128.233 1471.37,128.232 1471.33,128.232C1469.11,128.233 1466.88,129.096 1465.19,130.787L1465.06,130.662C1463.46,132.305 1462.58,134.587 1462.54,136.728L1462.29,136.728ZM1463.44,136.728C1463.48,134.756 1464.26,132.872 1465.76,131.356L1465.64,131.236C1467.2,129.671 1469.27,128.874 1471.32,128.874C1471.36,128.874 1471.4,128.874 1471.45,128.875L1471.45,129.347C1471.4,129.347 1471.36,129.346 1471.32,129.346C1469.39,129.346 1467.44,130.098 1465.97,131.572L1465.86,131.464C1464.47,132.89 1463.71,134.869 1463.67,136.728L1463.44,136.728ZM1464.6,136.728C1464.64,135.056 1465.3,133.457 1466.57,132.171L1466.47,132.071C1467.8,130.736 1469.56,130.058 1471.31,130.058C1471.36,130.058 1471.4,130.058 1471.45,130.059L1471.45,130.462C1471.4,130.461 1471.36,130.46 1471.31,130.46C1469.66,130.46 1468.01,131.101 1466.75,132.357L1466.66,132.266C1465.48,133.475 1464.83,135.15 1464.79,136.728L1464.6,136.728ZM1465.76,136.728C1465.8,135.355 1466.34,134.042 1467.38,132.986L1467.3,132.905C1468.4,131.802 1469.86,131.241 1471.3,131.241C1471.35,131.241 1471.4,131.242 1471.45,131.243L1471.45,131.576C1471.4,131.575 1471.35,131.574 1471.3,131.574C1469.94,131.574 1468.57,132.104 1467.54,133.141L1467.46,133.068C1466.49,134.061 1465.95,135.432 1465.91,136.728L1465.76,136.728ZM1466.91,136.728C1466.95,135.655 1467.38,134.627 1468.19,133.801L1468.13,133.739C1469,132.868 1470.15,132.425 1471.29,132.425C1471.35,132.425 1471.4,132.426 1471.45,132.428L1471.45,132.691C1471.4,132.689 1471.35,132.688 1471.29,132.688C1470.22,132.688 1469.14,133.106 1468.32,133.926L1468.26,133.87C1467.5,134.646 1467.08,135.713 1467.04,136.728L1466.91,136.728Z" style="fill:#733c52;"/>
            <path id="q21" serif:id="q2" d="M1486.5,136.728C1486.5,136.787 1486.5,136.846 1486.5,136.904C1486.5,140.777 1484.89,144.519 1481.94,147.474C1478.98,150.427 1475.32,151.939 1471.45,151.941L1471.45,151.32C1475.07,151.302 1478.73,149.791 1481.49,147.027C1484.27,144.246 1485.61,140.549 1485.61,136.904C1485.61,136.846 1485.61,136.787 1485.61,136.728L1486.5,136.728ZM1485.31,136.728C1485.31,136.786 1485.31,136.844 1485.31,136.902C1485.31,140.472 1483.82,143.921 1481.1,146.644C1478.38,149.362 1475.01,150.755 1471.45,150.761L1471.45,150.189C1474.78,150.168 1478.14,148.776 1480.69,146.232C1483.25,143.669 1484.49,140.261 1484.49,136.902C1484.49,136.844 1484.48,136.786 1484.48,136.728L1485.31,136.728ZM1484.11,136.728C1484.11,136.785 1484.11,136.843 1484.11,136.9C1484.11,140.166 1482.76,143.322 1480.26,145.814C1477.78,148.297 1474.7,149.572 1471.45,149.581L1471.45,149.057C1474.49,149.034 1477.56,147.761 1479.89,145.437C1482.23,143.092 1483.36,139.974 1483.36,136.9C1483.36,136.843 1483.36,136.785 1483.36,136.728L1484.11,136.728ZM1482.92,136.728C1482.92,136.785 1482.92,136.842 1482.92,136.898C1482.92,139.861 1481.69,142.723 1479.43,144.984C1477.18,147.232 1474.39,148.388 1471.45,148.4L1471.45,147.926C1474.2,147.9 1476.98,146.745 1479.09,144.642C1481.21,142.515 1482.24,139.686 1482.24,136.898C1482.24,136.842 1482.24,136.785 1482.24,136.728L1482.92,136.728ZM1481.72,136.728C1481.72,136.784 1481.73,136.84 1481.73,136.896C1481.73,139.556 1480.62,142.125 1478.59,144.154C1476.58,146.167 1474.08,147.204 1471.45,147.22L1471.45,146.794C1473.92,146.766 1476.4,145.73 1478.29,143.847C1480.19,141.938 1481.11,139.399 1481.11,136.896C1481.11,136.84 1481.11,136.784 1481.11,136.728L1481.72,136.728ZM1480.53,136.728C1480.53,136.784 1480.53,136.839 1480.53,136.895C1480.53,139.25 1479.55,141.526 1477.76,143.324C1475.98,145.101 1473.77,146.021 1471.45,146.04L1471.45,145.662C1473.63,145.632 1475.82,144.715 1477.48,143.052C1479.17,141.36 1479.99,139.111 1479.99,136.895C1479.99,136.839 1479.99,136.783 1479.99,136.728L1480.53,136.728ZM1479.34,136.728C1479.34,136.783 1479.34,136.838 1479.34,136.893C1479.34,138.945 1478.49,140.928 1476.92,142.493C1475.38,144.036 1473.47,144.837 1471.45,144.86L1471.45,144.531C1473.34,144.498 1475.24,143.7 1476.68,142.257C1478.16,140.783 1478.87,138.824 1478.87,136.893C1478.87,136.838 1478.86,136.783 1478.86,136.728L1479.34,136.728ZM1478.14,136.728C1478.14,136.782 1478.14,136.836 1478.14,136.891C1478.14,138.639 1477.42,140.329 1476.08,141.663C1474.78,142.971 1473.16,143.653 1471.45,143.68L1471.45,143.399C1473.05,143.364 1474.66,142.684 1475.88,141.462C1477.14,140.206 1477.74,138.536 1477.74,136.891C1477.74,136.836 1477.74,136.782 1477.74,136.728L1478.14,136.728ZM1476.95,136.728C1476.95,136.782 1476.95,136.835 1476.95,136.889C1476.95,138.334 1476.35,139.731 1475.25,140.833C1474.17,141.906 1472.85,142.469 1471.45,142.499L1471.45,142.267C1472.76,142.23 1474.08,141.669 1475.08,140.667C1476.12,139.629 1476.62,138.249 1476.62,136.889C1476.62,136.835 1476.62,136.782 1476.61,136.728L1476.95,136.728ZM1475.75,136.728C1475.75,136.781 1475.76,136.834 1475.76,136.887C1475.76,138.029 1475.28,139.132 1474.41,140.003C1473.57,140.841 1472.54,141.285 1471.45,141.318L1471.45,141.135C1472.47,141.095 1473.5,140.654 1474.28,139.872C1475.1,139.052 1475.49,137.961 1475.49,136.887C1475.49,136.834 1475.49,136.781 1475.49,136.728L1475.75,136.728Z" style="fill:#733c52;"/>
            <path id="q11" serif:id="q1" d="M1471.45,121.772C1475.29,121.792 1479.13,123.269 1482.07,126.204C1484.98,129.114 1486.45,132.914 1486.5,136.728L1485.61,136.728C1485.56,133.142 1484.17,129.57 1481.44,126.834C1478.68,124.074 1475.07,122.683 1471.45,122.664L1471.45,121.772ZM1471.45,122.956C1474.99,122.978 1478.52,124.339 1481.22,127.041C1483.9,129.719 1485.26,133.217 1485.31,136.728L1484.48,136.728C1484.44,133.427 1483.16,130.14 1480.64,127.621C1478.1,125.081 1474.78,123.799 1471.45,123.777L1471.45,122.956ZM1471.45,124.14C1474.68,124.164 1477.91,125.409 1480.38,127.877C1482.82,130.325 1484.07,133.52 1484.11,136.728L1483.36,136.728C1483.32,133.712 1482.14,130.71 1479.84,128.408C1477.52,126.088 1474.49,124.915 1471.45,124.891L1471.45,124.14ZM1471.45,125.324C1474.38,125.349 1477.29,126.479 1479.53,128.713C1481.75,130.93 1482.88,133.823 1482.92,136.728L1482.24,136.728C1482.19,133.997 1481.13,131.279 1479.05,129.195C1476.94,127.095 1474.2,126.031 1471.45,126.005L1471.45,125.324ZM1471.45,126.507C1474.07,126.535 1476.68,127.549 1478.68,129.55C1480.67,131.536 1481.68,134.125 1481.72,136.728L1481.11,136.728C1481.07,134.282 1480.12,131.849 1478.25,129.983C1476.37,128.102 1473.91,127.147 1471.45,127.119L1471.45,126.507ZM1471.45,127.691C1473.76,127.721 1476.07,128.62 1477.84,130.386C1479.59,132.141 1480.49,134.428 1480.53,136.728L1479.99,136.728C1479.95,134.567 1479.1,132.419 1477.45,130.77C1475.79,129.109 1473.62,128.263 1471.45,128.233L1471.45,127.691ZM1471.45,128.875C1473.46,128.907 1475.45,129.69 1476.99,131.223C1478.51,132.746 1479.3,134.731 1479.34,136.728L1478.86,136.728C1478.82,134.852 1478.09,132.988 1476.65,131.557C1475.21,130.116 1473.34,129.379 1471.45,129.347L1471.45,128.875ZM1471.45,130.059C1473.15,130.093 1474.84,130.76 1476.14,132.059C1477.43,133.352 1478.1,135.034 1478.14,136.728L1477.74,136.728C1477.7,135.137 1477.07,133.558 1475.86,132.344C1474.64,131.123 1473.05,130.495 1471.45,130.462L1471.45,130.059ZM1471.45,131.243C1472.84,131.279 1474.23,131.83 1475.3,132.895C1476.36,133.957 1476.91,135.337 1476.95,136.728L1476.61,136.728C1476.58,135.422 1476.06,134.128 1475.06,133.131C1474.06,132.13 1472.76,131.612 1471.45,131.576L1471.45,131.243ZM1471.45,132.428C1472.54,132.465 1473.62,132.9 1474.45,133.732C1475.28,134.563 1475.71,135.64 1475.75,136.728L1475.49,136.728C1475.45,135.707 1475.04,134.697 1474.26,133.918C1473.48,133.137 1472.47,132.728 1471.45,132.691L1471.45,132.428Z" style="fill:#733c52;"/>
        </g>
    </g>
</svg>
