<?xml version="1.0" encoding="UTF-8" standalone="no"?>
<!DOCTYPE svg PUBLIC "-//W3C//DTD SVG 1.1//EN" "http://www.w3.org/Graphics/SVG/1.1/DTD/svg11.dtd">
<svg width="100%" height="100%" viewBox="0 0 1701 2481" version="1.1" xmlns="http://www.w3.org/2000/svg" xmlns:xlink="http://www.w3.org/1999/xlink" xml:space="preserve" xmlns:serif="http://www.serif.com/" style="fill-rule:evenodd;clip-rule:evenodd;stroke-linecap:square;stroke-linejoin:round;stroke-miterlimit:1.5;">
    <rect id="Xrefocus" x="0.621" y="0.848" width="1700" height="2480" style="fill:none;"/>
    <g id="Fields">
    </g>
    <g id="SG">
        <g id="Meta-Ring">
            <path d="M1262.68,1480.74C1131.37,1708.18 840.122,1786.23 612.698,1654.93C385.274,1523.62 307.244,1232.37 438.558,1004.93C569.871,777.486 861.12,699.434 1088.54,830.737C1315.97,962.041 1394,1253.3 1262.68,1480.74Z" style="fill:none;stroke:#000;stroke-width:0.48px;"/>
            <path d="M1262.68,1480.74L1236.34,1465.53" style="fill:none;stroke:#000;stroke-width:0.48px;"/>
            <path d="M464.9,1020.14L438.558,1004.93" style="fill:none;stroke:#000;stroke-width:0.48px;"/>
            <path d="M627.907,1628.59L612.698,1654.93" style="fill:none;stroke:#000;stroke-width:0.48px;"/>
            <path d="M1088.54,830.737L1073.34,857.08" style="fill:none;stroke:#000;stroke-width:0.48px;"/>
            <path d="M1088.53,1654.91L1073.33,1628.57" style="fill:none;stroke:#000;stroke-width:0.48px;"/>
            <path d="M627.917,857.097L612.708,830.755" style="fill:none;stroke:#000;stroke-width:0.48px;"/>
            <path d="M464.87,1465.55L438.528,1480.76" style="fill:none;stroke:#000;stroke-width:0.48px;"/>
            <path d="M1262.71,1004.91L1236.37,1020.12" style="fill:none;stroke:#000;stroke-width:0.48px;"/>
            <path d="M850.621,1718.68L850.621,1688.26" style="fill:none;stroke:#000;stroke-width:0.48px;"/>
            <path d="M850.621,797.406L850.621,766.988" style="fill:none;stroke:#000;stroke-width:0.48px;"/>
            <path d="M405.213,1242.83L374.795,1242.83" style="fill:none;stroke:#000;stroke-width:0.48px;"/>
            <path d="M1326.45,1242.83L1296.03,1242.83" style="fill:none;stroke:#000;stroke-width:0.48px;"/>
        </g>
        <g id="Ring-Backers" serif:id="Ring Backers">
        </g>
        <g id="Child-Rings" serif:id="Child Rings">
        </g>
    </g>
    <g id="S">
        <g id="Ring">
            <path id="Backer" d="M1262.06,1477.85C1131.17,1704.55 840.86,1782.35 614.172,1651.47C387.483,1520.59 309.706,1230.29 440.594,1003.59C571.483,776.885 861.79,699.087 1088.48,829.963C1315.17,960.839 1392.94,1251.15 1262.06,1477.85Z" style="fill:#fff;"/>
            <path d="M1262.06,1477.85C1131.17,1704.55 840.86,1782.35 614.172,1651.47C387.483,1520.59 309.706,1230.29 440.594,1003.59C571.483,776.885 861.79,699.087 1088.48,829.963C1315.17,960.839 1392.94,1251.15 1262.06,1477.85Z" style="fill:none;stroke:#000;stroke-width:8.33px;stroke-linecap:round;"/>
            <path d="M1262.06,1477.85L1235.8,1462.69" style="fill:none;stroke:#000;stroke-width:8.33px;stroke-linecap:round;"/>
            <path d="M466.852,1018.75L440.594,1003.59" style="fill:none;stroke:#000;stroke-width:8.33px;stroke-linecap:round;"/>
            <path d="M629.331,1625.21L614.172,1651.47" style="fill:none;stroke:#000;stroke-width:8.33px;stroke-linecap:round;"/>
            <path d="M1088.48,829.963L1073.32,856.22" style="fill:none;stroke:#000;stroke-width:8.33px;stroke-linecap:round;"/>
            <path d="M1088.47,1651.45L1073.31,1625.19" style="fill:none;stroke:#000;stroke-width:8.33px;stroke-linecap:round;"/>
            <path d="M629.341,856.237L614.182,829.98" style="fill:none;stroke:#000;stroke-width:8.33px;stroke-linecap:round;"/>
            <path d="M466.822,1462.7L440.565,1477.86" style="fill:none;stroke:#000;stroke-width:8.33px;stroke-linecap:round;"/>
            <path d="M1262.09,1003.57L1235.83,1018.73" style="fill:none;stroke:#000;stroke-width:8.33px;stroke-linecap:round;"/>
            <path d="M851.325,1715.01L851.325,1684.69" style="fill:none;stroke:#000;stroke-width:8.33px;stroke-linecap:round;"/>
            <path d="M851.325,796.74L851.325,766.421" style="fill:none;stroke:#000;stroke-width:8.33px;stroke-linecap:round;"/>
            <path d="M407.358,1240.72L377.038,1240.72" style="fill:none;stroke:#000;stroke-width:8.33px;stroke-linecap:round;"/>
            <path d="M1325.61,1240.72L1295.29,1240.72" style="fill:none;stroke:#000;stroke-width:8.33px;stroke-linecap:round;"/>
        </g>
        <g id="Root-Markers" serif:id="Root Markers">
            <path id="_4" serif:id="4" d="M1161.09,1426.4L1055.61,1407.42L1091.91,1344.55L1161.09,1426.4ZM1112.09,1398.12L1094.87,1377.75L1085.84,1393.39L1112.09,1398.12Z" style="fill:#df4c44;"/>
        </g>
        <g id="Notes">
            <path id="_7" serif:id="7" d="M687.426,1690.04C665.437,1728.13 616.663,1741.2 578.576,1719.21C540.49,1697.22 527.421,1648.45 549.41,1610.36C571.399,1572.28 620.173,1559.21 658.26,1581.2C696.346,1603.18 709.415,1651.96 687.426,1690.04Z" style="fill:#df4c44;stroke:#fff;stroke-width:24px;stroke-linecap:round;"/>
            <path id="_41" serif:id="4" d="M1327.88,1520.25C1305.89,1558.34 1257.11,1571.41 1219.03,1549.42C1180.94,1527.43 1167.87,1478.66 1189.86,1440.57C1211.85,1402.48 1260.62,1389.41 1298.71,1411.4C1336.8,1433.39 1349.86,1482.17 1327.88,1520.25Z" style="fill:#df4c44;stroke:#fff;stroke-width:24px;stroke-linecap:round;"/>
            <path id="_0" serif:id="0" d="M920.333,811.445C898.344,849.531 849.57,862.599 811.483,840.611C773.397,818.622 760.328,769.849 782.317,731.763C804.306,693.677 853.08,680.609 891.167,702.598C929.253,724.586 942.322,773.359 920.333,811.445Z" style="fill:#df4c44;stroke:#fff;stroke-width:24px;stroke-linecap:round;"/>
        </g>
        <g id="Treble-Marker" serif:id="Treble Marker">
            <g id="_2" serif:id="2">
                <path id="_2u" serif:id="2u" d="M1327.86,1049.76C1305.87,1087.85 1257.1,1100.91 1219.01,1078.93C1180.92,1056.94 1167.85,1008.16 1189.84,970.078C1211.83,931.992 1260.61,918.924 1298.69,940.913C1336.78,962.901 1349.85,1011.67 1327.86,1049.76Z" style="fill:#fff;stroke:#fff;stroke-width:33.33px;stroke-linecap:round;"/>
                <circle id="_2a" serif:id="2a" cx="1258.85" cy="1009.92" r="64" style="fill:#fff;stroke:#df4c44;stroke-width:16.67px;stroke-linecap:round;"/>
            </g>
        </g>
    </g>
    <g id="Songs">
    </g>
    <g id="Map">
        <g id="Frame">
            <rect x="1472.12" y="42.39" width="190" height="190" style="fill:#fff;"/>
            <rect x="1472.12" y="42.39" width="190" height="190" style="fill:none;stroke:#000;stroke-width:1.17px;stroke-linecap:round;stroke-linejoin:bevel;"/>
            <rect x="1524" y="94.265" width="86.25" height="86.25" style="fill:none;stroke:#000;stroke-width:1.25px;stroke-linecap:round;stroke-linejoin:bevel;"/>
            <path d="M1610.25,94.265L1662.12,42.598" style="fill:none;stroke:#000;stroke-width:1.25px;stroke-linecap:round;stroke-linejoin:bevel;"/>
            <path d="M1524,94.265L1472.54,42.598" style="fill:none;stroke:#000;stroke-width:1.25px;stroke-linecap:round;stroke-linejoin:bevel;"/>
            <path d="M1524,180.515L1472.12,232.39" style="fill:none;stroke:#000;stroke-width:1.25px;stroke-linecap:round;stroke-linejoin:bevel;"/>
            <path d="M1610.25,180.515L1662.12,232.39" style="fill:none;stroke:#000;stroke-width:1.25px;stroke-linecap:round;stroke-linejoin:bevel;"/>
        </g>
        <g id="Dots">
            <circle cx="1472.12" cy="232.348" r="1.5" style="stroke:#000;stroke-width:1.25px;stroke-linecap:round;stroke-linejoin:bevel;"/>
            <circle cx="1566.82" cy="232.473" r="1.5" style="stroke:#000;stroke-width:1.25px;stroke-linecap:round;stroke-linejoin:bevel;"/>
            <circle cx="1662.12" cy="232.348" r="1.5" style="stroke:#000;stroke-width:1.25px;stroke-linecap:round;stroke-linejoin:bevel;"/>
            <circle cx="1634.47" cy="204.514" r="1.5" style="stroke:#000;stroke-width:1.25px;stroke-linecap:round;stroke-linejoin:bevel;"/>
            <circle cx="1610.25" cy="180.348" r="1.5" style="stroke:#000;stroke-width:1.25px;stroke-linecap:round;stroke-linejoin:bevel;"/>
            <circle cx="1609.82" cy="137.473" r="1.5" style="stroke:#000;stroke-width:1.25px;stroke-linecap:round;stroke-linejoin:bevel;"/>
            <circle cx="1609.94" cy="94.223" r="1.5" style="stroke:#000;stroke-width:1.25px;stroke-linecap:round;stroke-linejoin:bevel;"/>
            <circle cx="1634.38" cy="70.014" r="1.5" style="stroke:#000;stroke-width:1.25px;stroke-linecap:round;stroke-linejoin:bevel;"/>
            <circle cx="1566.82" cy="94.223" r="1.5" style="stroke:#000;stroke-width:1.25px;stroke-linecap:round;stroke-linejoin:bevel;"/>
            <circle cx="1523.69" cy="94.348" r="1.5" style="stroke:#000;stroke-width:1.25px;stroke-linecap:round;stroke-linejoin:bevel;"/>
            <circle cx="1567.12" cy="42.348" r="1.5" style="stroke:#000;stroke-width:1.25px;stroke-linecap:round;stroke-linejoin:bevel;"/>
            <circle cx="1472.12" cy="42.39" r="1.5" style="stroke:#000;stroke-width:1.25px;stroke-linecap:round;stroke-linejoin:bevel;"/>
            <circle cx="1499.97" cy="70.348" r="1.5" style="stroke:#000;stroke-width:1.25px;stroke-linecap:round;stroke-linejoin:bevel;"/>
            <circle cx="1472.12" cy="137.39" r="1.5" style="stroke:#000;stroke-width:1.25px;stroke-linecap:round;stroke-linejoin:bevel;"/>
            <circle cx="1524" cy="137.39" r="1.5" style="stroke:#000;stroke-width:1.25px;stroke-linecap:round;stroke-linejoin:bevel;"/>
            <circle cx="1566.62" cy="180.515" r="1.5" style="stroke:#000;stroke-width:1.25px;stroke-linecap:round;stroke-linejoin:bevel;"/>
            <circle cx="1523.97" cy="180.348" r="1.5" style="stroke:#000;stroke-width:1.25px;stroke-linecap:round;stroke-linejoin:bevel;"/>
            <circle cx="1499.77" cy="204.848" r="1.5" style="stroke:#000;stroke-width:1.25px;stroke-linecap:round;stroke-linejoin:bevel;"/>
            <circle cx="1662.12" cy="137.39" r="1.5" style="stroke:#000;stroke-width:1.25px;stroke-linecap:round;stroke-linejoin:bevel;"/>
            <circle cx="1662.12" cy="42.497" r="1.5" style="stroke:#000;stroke-width:1.25px;stroke-linecap:round;stroke-linejoin:bevel;"/>
        </g>
        <path d="M1474.56,226.468C1477.8,227.812 1479.35,231.538 1478,234.783C1476.66,238.028 1472.93,239.571 1469.69,238.227C1466.44,236.883 1464.9,233.157 1466.24,229.912C1467.59,226.667 1471.31,225.124 1474.56,226.468Z" style="fill:#fff;stroke:#df4c44;stroke-width:5.99px;stroke-linecap:round;"/>
    </g>
    <g id="S-melisma" serif:id="S melisma">
        <path id="Sounder" d="M1626.87,2303.4C1601.61,2347.14 1545.6,2362.15 1501.87,2336.9C1458.13,2311.65 1443.12,2255.64 1468.38,2211.9C1493.63,2168.16 1549.64,2153.15 1593.38,2178.4C1637.11,2203.65 1652.12,2259.66 1626.87,2303.4Z" style="fill:#fff;"/>
        <g id="Ring1" serif:id="Ring" opacity="0.5">
            <path d="M1626.87,2303.4C1601.61,2347.14 1545.6,2362.15 1501.87,2336.9C1458.13,2311.65 1443.12,2255.64 1468.38,2211.9C1493.63,2168.16 1549.64,2153.15 1593.38,2178.4C1637.11,2203.65 1652.12,2259.66 1626.87,2303.4Z" style="fill:none;stroke:#000;stroke-width:1.93px;stroke-linecap:round;"/>
            <path d="M1626.87,2303.4L1621.8,2300.47" style="fill:none;stroke:#000;stroke-width:1.93px;stroke-linecap:round;"/>
            <path d="M1473.44,2214.82L1468.38,2211.9" style="fill:none;stroke:#000;stroke-width:1.93px;stroke-linecap:round;"/>
            <path d="M1504.79,2331.83L1501.87,2336.9" style="fill:none;stroke:#000;stroke-width:1.93px;stroke-linecap:round;"/>
            <path d="M1593.38,2178.4L1590.45,2183.47" style="fill:none;stroke:#000;stroke-width:1.93px;stroke-linecap:round;"/>
            <path d="M1593.38,2336.89L1590.45,2331.83" style="fill:none;stroke:#000;stroke-width:1.93px;stroke-linecap:round;"/>
            <path d="M1504.79,2183.47L1501.87,2178.4" style="fill:none;stroke:#000;stroke-width:1.93px;stroke-linecap:round;"/>
            <path d="M1473.44,2300.48L1468.37,2303.4" style="fill:none;stroke:#000;stroke-width:1.93px;stroke-linecap:round;"/>
            <path d="M1626.87,2211.89L1621.81,2214.82" style="fill:none;stroke:#000;stroke-width:1.93px;stroke-linecap:round;"/>
            <path d="M1547.62,2349.16L1547.62,2343.31" style="fill:none;stroke:#000;stroke-width:1.93px;stroke-linecap:round;"/>
            <path d="M1547.62,2171.99L1547.62,2166.14" style="fill:none;stroke:#000;stroke-width:1.93px;stroke-linecap:round;"/>
            <path d="M1461.96,2257.65L1456.11,2257.65" style="fill:none;stroke:#000;stroke-width:1.93px;stroke-linecap:round;"/>
            <path d="M1639.13,2257.65L1633.28,2257.65" style="fill:none;stroke:#000;stroke-width:1.93px;stroke-linecap:round;"/>
        </g>
        <g id="Root-Markers1" serif:id="Root Markers">
            <path id="_42" serif:id="4" d="M1602.84,2287.8L1584.74,2284.54L1590.97,2273.75L1602.84,2287.8ZM1594.32,2282.88L1591.49,2279.53L1590,2282.1L1594.32,2282.88Z" style="fill:#df4c44;"/>
        </g>
        <g id="Notes1" serif:id="Notes">
            <path id="_11" serif:id="11" d="M1515.11,2186.94C1510.87,2194.29 1501.45,2196.81 1494.11,2192.57C1486.76,2188.33 1484.24,2178.92 1488.48,2171.57C1492.72,2164.22 1502.13,2161.7 1509.48,2165.94C1516.83,2170.18 1519.35,2179.6 1515.11,2186.94Z" style="fill:#df4c44;stroke:#fff;stroke-width:4.63px;stroke-linecap:round;"/>
            <path id="_9" serif:id="9" d="M1469.43,2267.14C1465.19,2274.49 1455.78,2277.01 1448.43,2272.76C1441.08,2268.52 1438.56,2259.11 1442.8,2251.76C1447.04,2244.42 1456.45,2241.89 1463.8,2246.14C1471.15,2250.38 1473.67,2259.79 1469.43,2267.14Z" style="fill:#df4c44;stroke:#fff;stroke-width:4.63px;stroke-linecap:round;"/>
            <path id="_71" serif:id="7" d="M1516,2344.34C1511.76,2351.69 1502.35,2354.21 1495,2349.97C1487.65,2345.72 1485.13,2336.31 1489.37,2328.97C1493.61,2321.62 1503.02,2319.1 1510.37,2323.34C1517.72,2327.58 1520.24,2336.99 1516,2344.34Z" style="fill:#df4c44;stroke:#fff;stroke-width:4.63px;stroke-linecap:round;"/>
            <path id="_6" serif:id="6" d="M1560.93,2357.29C1556.69,2364.64 1547.28,2367.16 1539.93,2362.92C1532.59,2358.68 1530.07,2349.27 1534.31,2341.92C1538.55,2334.57 1547.96,2332.05 1555.31,2336.29C1562.66,2340.54 1565.18,2349.95 1560.93,2357.29Z" style="fill:#df4c44;stroke:#fff;stroke-width:4.63px;stroke-linecap:round;"/>
            <path id="_43" serif:id="4" d="M1639.57,2311.58C1635.32,2318.93 1625.91,2321.45 1618.56,2317.21C1611.22,2312.97 1608.69,2303.55 1612.94,2296.21C1617.18,2288.86 1626.59,2286.34 1633.94,2290.58C1641.29,2294.82 1643.81,2304.23 1639.57,2311.58Z" style="fill:#df4c44;stroke:#fff;stroke-width:4.63px;stroke-linecap:round;"/>
            <path id="_21" serif:id="2" d="M1639.56,2220.8C1635.32,2228.15 1625.91,2230.68 1618.56,2226.43C1611.21,2222.19 1608.69,2212.78 1612.93,2205.43C1617.18,2198.08 1626.59,2195.56 1633.93,2199.8C1641.28,2204.05 1643.8,2213.46 1639.56,2220.8Z" style="fill:#df4c44;stroke:#fff;stroke-width:4.63px;stroke-linecap:round;"/>
            <path id="_01" serif:id="0" d="M1560.93,2174.83C1556.69,2182.17 1547.28,2184.7 1539.93,2180.45C1532.59,2176.21 1530.07,2166.8 1534.31,2159.45C1538.55,2152.1 1547.96,2149.58 1555.31,2153.82C1562.66,2158.07 1565.18,2167.48 1560.93,2174.83Z" style="fill:#df4c44;stroke:#fff;stroke-width:4.63px;stroke-linecap:round;"/>
        </g>
        <g id="Treble-Marker1" serif:id="Treble Marker">
            <g id="_22" serif:id="2">
                <path id="_2u1" serif:id="2u" d="M1639.56,2220.8C1635.32,2228.15 1625.91,2230.68 1618.56,2226.43C1611.21,2222.19 1608.69,2212.78 1612.93,2205.43C1617.18,2198.08 1626.59,2195.56 1633.93,2199.8C1641.28,2204.05 1643.8,2213.46 1639.56,2220.8Z" style="fill:#fff;stroke:#fff;stroke-width:6.43px;stroke-linecap:round;"/>
                <circle id="_2a1" serif:id="2a" cx="1626.25" cy="2213.12" r="12.348" style="fill:#fff;stroke:#df4c44;stroke-width:3.22px;stroke-linecap:round;"/>
            </g>
        </g>
    </g>
</svg>
