<?xml version="1.0" encoding="UTF-8" standalone="no"?>
<!DOCTYPE svg PUBLIC "-//W3C//DTD SVG 1.1//EN" "http://www.w3.org/Graphics/SVG/1.1/DTD/svg11.dtd">
<svg width="100%" height="100%" viewBox="0 0 1701 2481" version="1.1" xmlns="http://www.w3.org/2000/svg" xmlns:xlink="http://www.w3.org/1999/xlink" xml:space="preserve" xmlns:serif="http://www.serif.com/" style="fill-rule:evenodd;clip-rule:evenodd;stroke-linecap:round;stroke-linejoin:round;stroke-miterlimit:1.5;">
    <rect id="Y2X" x="0.552" y="0.341" width="1700" height="2480" style="fill:none;"/>
    <g id="Fields" opacity="0.2">
        <path id="_2" serif:id="2" d="M1327.98,1113.34L1690.55,1016.81L1690.55,417.717L1204.46,895.928C1260.79,953.411 1302.29,1023.35 1327.98,1113.34Z" style="fill:#b1865b;stroke:#767676;stroke-width:8.33px;"/>
    </g>
    <g id="SG">
        <g id="Meta-Ring">
            <path d="M1262.62,1480.23C1131.3,1707.67 840.053,1785.72 612.629,1654.42C385.205,1523.12 307.175,1231.86 438.488,1004.42C569.802,776.979 861.051,698.927 1088.47,830.231C1315.9,961.534 1393.93,1252.79 1262.62,1480.23Z" style="fill:none;stroke:#000;stroke-width:0.48px;stroke-linecap:square;"/>
            <path d="M1262.62,1480.23L1236.27,1465.02" style="fill:none;stroke:#000;stroke-width:0.48px;stroke-linecap:square;"/>
            <path d="M464.831,1019.63L438.488,1004.42" style="fill:none;stroke:#000;stroke-width:0.48px;stroke-linecap:square;"/>
            <path d="M627.838,1628.08L612.629,1654.42" style="fill:none;stroke:#000;stroke-width:0.48px;stroke-linecap:square;"/>
            <path d="M1088.47,830.231L1073.27,856.573" style="fill:none;stroke:#000;stroke-width:0.48px;stroke-linecap:square;"/>
            <path d="M1088.46,1654.4L1073.26,1628.06" style="fill:none;stroke:#000;stroke-width:0.48px;stroke-linecap:square;"/>
            <path d="M627.848,856.591L612.639,830.248" style="fill:none;stroke:#000;stroke-width:0.48px;stroke-linecap:square;"/>
            <path d="M464.801,1465.04L438.458,1480.25" style="fill:none;stroke:#000;stroke-width:0.48px;stroke-linecap:square;"/>
            <path d="M1262.64,1004.4L1236.3,1019.61" style="fill:none;stroke:#000;stroke-width:0.48px;stroke-linecap:square;"/>
            <path d="M850.552,1718.17L850.552,1687.75" style="fill:none;stroke:#000;stroke-width:0.48px;stroke-linecap:square;"/>
            <path d="M850.552,796.899L850.552,766.481" style="fill:none;stroke:#000;stroke-width:0.48px;stroke-linecap:square;"/>
            <path d="M405.143,1242.33L374.726,1242.33" style="fill:none;stroke:#000;stroke-width:0.48px;stroke-linecap:square;"/>
            <path d="M1326.38,1242.33L1295.96,1242.33" style="fill:none;stroke:#000;stroke-width:0.48px;stroke-linecap:square;"/>
        </g>
        <g id="Ring-Backers" serif:id="Ring Backers">
        </g>
        <g id="Child-Rings" serif:id="Child Rings">
        </g>
    </g>
    <g id="S">
        <g id="Ring">
            <path id="Backer" d="M1261.99,1477.34C1131.1,1704.04 840.79,1781.84 614.102,1650.96C387.414,1520.09 309.637,1229.78 440.525,1003.08C571.414,776.378 861.721,698.58 1088.41,829.456C1315.1,960.332 1392.87,1250.64 1261.99,1477.34Z" style="fill:#fff;"/>
            <path d="M1261.99,1477.34C1131.1,1704.04 840.79,1781.84 614.102,1650.96C387.414,1520.09 309.637,1229.78 440.525,1003.08C571.414,776.378 861.721,698.58 1088.41,829.456C1315.1,960.332 1392.87,1250.64 1261.99,1477.34Z" style="fill:none;stroke:#000;stroke-width:8.33px;"/>
            <path d="M1261.99,1477.34L1235.73,1462.18" style="fill:none;stroke:#000;stroke-width:8.33px;"/>
            <path d="M466.783,1018.24L440.525,1003.08" style="fill:none;stroke:#000;stroke-width:8.33px;"/>
            <path d="M629.262,1624.71L614.102,1650.96" style="fill:none;stroke:#000;stroke-width:8.33px;"/>
            <path d="M1088.41,829.456L1073.25,855.713" style="fill:none;stroke:#000;stroke-width:8.33px;"/>
            <path d="M1088.4,1650.95L1073.24,1624.69" style="fill:none;stroke:#000;stroke-width:8.33px;"/>
            <path d="M629.272,855.73L614.112,829.474" style="fill:none;stroke:#000;stroke-width:8.33px;"/>
            <path d="M466.753,1462.2L440.495,1477.36" style="fill:none;stroke:#000;stroke-width:8.33px;"/>
            <path d="M1262.02,1003.06L1235.76,1018.22" style="fill:none;stroke:#000;stroke-width:8.33px;"/>
            <path d="M851.256,1714.51L851.256,1684.19" style="fill:none;stroke:#000;stroke-width:8.33px;"/>
            <path d="M851.256,796.233L851.256,765.914" style="fill:none;stroke:#000;stroke-width:8.33px;"/>
            <path d="M407.288,1240.21L376.969,1240.21" style="fill:none;stroke:#000;stroke-width:8.33px;"/>
            <path d="M1325.54,1240.21L1295.22,1240.21" style="fill:none;stroke:#000;stroke-width:8.33px;"/>
        </g>
        <g id="Root-Markers" serif:id="Root Markers">
            <path id="_10" serif:id="10" d="M533.553,1055.02L639.026,1074L602.727,1136.88L533.553,1055.02ZM582.548,1083.31L599.764,1103.68L608.798,1088.03L582.548,1083.31Z" style="fill:#c07353;"/>
        </g>
        <g id="Notes">
            <path id="_101" serif:id="10" d="M513.874,1049.24C491.885,1087.33 443.111,1100.4 405.025,1078.41C366.938,1056.42 353.869,1007.65 375.858,969.562C397.848,931.477 446.622,918.408 484.708,940.397C522.795,962.386 535.864,1011.16 513.874,1049.24Z" style="fill:#c07353;stroke:#fff;stroke-width:24px;"/>
            <path id="_7" serif:id="7" d="M687.356,1689.54C665.367,1727.62 616.593,1740.69 578.507,1718.7C540.42,1696.71 527.351,1647.94 549.341,1609.86C571.33,1571.77 620.104,1558.7 658.19,1580.69C696.277,1602.68 709.346,1651.45 687.356,1689.54Z" style="fill:#c07353;stroke:#fff;stroke-width:24px;"/>
            <path id="_0" serif:id="0" d="M920.264,810.938C898.274,849.024 849.5,862.093 811.414,840.104C773.327,818.115 760.258,769.342 782.248,731.256C804.237,693.171 853.011,680.102 891.097,702.091C929.184,724.08 942.253,772.853 920.264,810.938Z" style="fill:#c07353;stroke:#fff;stroke-width:24px;"/>
        </g>
        <g id="Treble-Marker" serif:id="Treble Marker">
            <g id="_9" serif:id="9">
                <path id="_9u" serif:id="9u" d="M445.977,1289.4C423.987,1327.49 375.214,1340.55 337.127,1318.57C299.04,1296.58 285.972,1247.8 307.961,1209.72C329.95,1171.63 378.724,1158.56 416.811,1180.55C454.897,1202.54 467.966,1251.31 445.977,1289.4Z" style="fill:#fff;stroke:#fff;stroke-width:33.33px;"/>
                <circle id="_9a" serif:id="9a" cx="376.969" cy="1249.56" r="64" style="fill:#fff;stroke:#c07353;stroke-width:16.67px;"/>
            </g>
        </g>
    </g>
    <g id="Songs">
        <g id="song-2-grooves" serif:id="song 2 grooves">
            <g id="Y2X2">
                <path d="M1567.55,924.34C1548.16,924.445 1528.75,916.969 1514.17,901.979L1488.41,875.493C1475.04,861.747 1468.11,844.114 1467.55,826.334L1568.21,826.515L1567.55,924.34Z" style="fill:#df4c44;stroke:#fff;stroke-width:1.67px;"/>
                <path d="M1467.55,826.334C1466.91,806.296 1474.38,786.07 1489.87,771.006L1516.36,745.249C1530.98,731.034 1549.99,724.089 1568.9,724.353L1568.21,826.515L1467.55,826.334Z" style="fill:#df4c44;stroke:#fff;stroke-width:1.67px;"/>
                <path d="M1468.51,826.515L1567.51,826.693" style="fill:none;stroke:#df4c44;stroke-width:4.17px;stroke-linecap:butt;"/>
                <path id="q3" d="M1567.91,911.95C1567.9,911.95 1567.89,911.95 1567.88,911.95C1545.99,911.95 1524.52,903.475 1507.82,886.775C1491.12,870.075 1483.43,848.907 1483.43,827.019C1483.43,826.668 1483.43,826.318 1483.44,825.968L1485.83,825.968C1485.83,826.256 1485.83,826.544 1485.83,826.832C1485.83,847.431 1494.43,868.778 1510.15,884.495C1525.87,900.212 1546.94,908.444 1567.55,908.444C1567.67,908.444 1567.79,908.443 1567.91,908.443L1567.91,911.95ZM1567.91,905.28C1567.87,905.28 1567.84,905.28 1567.8,905.28C1547.62,905.281 1527.83,897.47 1512.44,882.078C1497.05,866.686 1489.97,847.177 1489.97,827.004C1489.97,826.658 1489.97,826.313 1489.98,825.968L1492.18,825.968C1492.18,826.256 1492.18,826.544 1492.18,826.831C1492.18,845.816 1500.11,865.491 1514.59,879.976C1529.08,894.462 1548.51,902.049 1567.49,902.049C1567.63,902.049 1567.77,902.048 1567.91,902.048L1567.91,905.28ZM1567.91,898.61C1567.85,898.611 1567.78,898.611 1567.72,898.611C1549.26,898.611 1531.15,891.464 1517.07,877.381C1502.99,863.297 1496.51,845.447 1496.51,826.988C1496.51,826.648 1496.51,826.307 1496.52,825.968L1498.53,825.968C1498.53,826.256 1498.53,826.543 1498.53,826.831C1498.53,844.202 1505.78,862.204 1519.04,875.458C1532.29,888.712 1550.07,895.654 1567.44,895.654C1567.6,895.654 1567.75,895.654 1567.91,895.652L1567.91,898.61ZM1567.91,891.941C1567.82,891.941 1567.73,891.941 1567.64,891.941C1550.9,891.941 1534.47,885.458 1521.7,872.684C1508.92,859.909 1503.05,843.717 1503.05,826.973C1503.05,826.638 1503.05,826.302 1503.05,825.968L1504.88,825.968C1504.88,826.255 1504.88,826.543 1504.88,826.83C1504.88,842.587 1511.46,858.917 1523.48,870.939C1535.5,882.962 1551.63,889.259 1567.39,889.259C1567.56,889.259 1567.74,889.258 1567.91,889.257L1567.91,891.941ZM1567.91,885.27C1567.8,885.271 1567.68,885.272 1567.56,885.272C1552.53,885.272 1537.79,879.453 1526.32,867.986C1514.86,856.52 1509.58,841.987 1509.58,826.958C1509.58,826.627 1509.59,826.297 1509.59,825.968L1511.23,825.968C1511.23,826.255 1511.23,826.542 1511.23,826.829C1511.23,840.973 1517.13,855.63 1527.93,866.421C1538.72,877.212 1553.19,882.864 1567.33,882.865C1567.53,882.865 1567.72,882.863 1567.91,882.861L1567.91,885.27ZM1567.91,878.6C1567.77,878.601 1567.63,878.602 1567.48,878.602C1554.17,878.602 1541.11,873.447 1530.95,863.289C1520.79,853.131 1516.12,840.256 1516.12,826.943C1516.12,826.617 1516.12,826.292 1516.13,825.968L1517.58,825.968C1517.58,826.255 1517.58,826.542 1517.58,826.829C1517.58,839.358 1522.81,852.343 1532.37,861.902C1541.93,871.462 1554.75,876.47 1567.28,876.469C1567.49,876.469 1567.7,876.468 1567.91,876.465L1567.91,878.6ZM1567.91,871.929C1567.74,871.931 1567.57,871.932 1567.4,871.932C1555.81,871.932 1544.43,867.441 1535.58,858.592C1526.73,849.743 1522.66,838.526 1522.66,826.927C1522.66,826.607 1522.66,826.287 1522.67,825.968L1523.93,825.968C1523.93,826.255 1523.93,826.542 1523.93,826.828C1523.93,837.744 1528.49,849.056 1536.82,857.384C1545.14,865.712 1556.31,870.074 1567.23,870.074C1567.46,870.074 1567.68,870.072 1567.91,870.069L1567.91,871.929ZM1567.91,865.258C1567.72,865.261 1567.52,865.262 1567.33,865.262C1557.44,865.262 1547.75,861.436 1540.2,853.895C1532.66,846.354 1529.19,836.796 1529.19,826.912C1529.19,826.597 1529.2,826.282 1529.21,825.968L1530.29,825.968C1530.28,826.255 1530.28,826.542 1530.28,826.828C1530.28,836.129 1534.16,845.769 1541.26,852.866C1548.36,859.962 1557.87,863.68 1567.18,863.679C1567.42,863.679 1567.67,863.677 1567.91,863.671L1567.91,865.258ZM1567.91,858.586C1567.69,858.591 1567.47,858.593 1567.25,858.593C1559.08,858.593 1551.07,855.43 1544.83,849.198C1538.6,842.965 1535.73,835.066 1535.73,826.897C1535.73,826.587 1535.74,826.277 1535.75,825.968L1536.64,825.968C1536.63,826.255 1536.63,826.541 1536.63,826.827C1536.63,834.514 1539.84,842.482 1545.7,848.347C1551.57,854.212 1559.44,857.285 1567.12,857.285C1567.39,857.285 1567.65,857.281 1567.91,857.273L1567.91,858.586ZM1567.91,851.912C1567.66,851.92 1567.42,851.923 1567.17,851.923C1560.71,851.924 1554.38,849.425 1549.46,844.501C1544.54,839.577 1542.27,833.336 1542.27,826.882C1542.27,826.577 1542.28,826.272 1542.29,825.968L1542.99,825.968C1542.98,826.255 1542.98,826.541 1542.98,826.827C1542.98,832.9 1545.51,839.194 1550.15,843.829C1554.78,848.463 1561,850.89 1567.07,850.89C1567.35,850.89 1567.63,850.884 1567.91,850.874L1567.91,851.912Z" style="fill:#e7e7e7;"/>
                <path id="q4" d="M1483.44,825.968C1483.71,804.662 1492.06,784.336 1508.19,767.964L1506.85,766.632C1523.56,749.931 1545.58,741.437 1567.47,741.436C1567.61,741.436 1567.76,741.437 1567.91,741.438L1567.91,746.475C1567.76,746.475 1567.62,746.474 1567.47,746.474C1546.87,746.474 1526.15,754.495 1510.43,770.212L1509.24,769.018C1494.19,784.423 1486.06,805.914 1485.83,825.968L1483.44,825.968ZM1489.98,825.968C1490.24,806.356 1497.93,787.643 1512.78,772.571L1511.56,771.348C1526.95,755.956 1547.25,748.127 1567.42,748.127C1567.58,748.127 1567.75,748.127 1567.91,748.128L1567.91,752.771C1567.75,752.77 1567.58,752.769 1567.42,752.769C1548.43,752.77 1529.34,760.162 1514.86,774.648L1513.76,773.55C1499.91,787.732 1492.41,807.505 1492.18,825.968L1489.98,825.968ZM1496.52,825.968C1496.77,808.049 1503.8,790.949 1517.37,777.177L1516.26,776.064C1530.34,761.98 1548.91,754.817 1567.37,754.817C1567.55,754.817 1567.73,754.817 1567.91,754.819L1567.91,759.067C1567.73,759.066 1567.55,759.065 1567.37,759.065C1550,759.065 1532.53,765.829 1519.28,779.083L1518.28,778.083C1505.62,791.04 1498.76,809.095 1498.53,825.968L1496.52,825.968ZM1503.05,825.968C1503.31,809.742 1509.68,794.256 1521.96,781.784L1520.96,780.78C1533.74,768.005 1550.58,761.507 1567.33,761.507C1567.52,761.507 1567.72,761.508 1567.91,761.51L1567.91,765.363C1567.72,765.361 1567.52,765.36 1567.33,765.36C1551.57,765.36 1535.72,771.496 1523.7,783.519L1522.8,782.616C1511.34,794.349 1505.11,810.686 1504.88,825.968L1503.05,825.968ZM1509.59,825.968C1509.84,811.436 1515.55,797.562 1526.56,786.39L1525.66,785.496C1537.13,774.029 1552.25,768.197 1567.28,768.197C1567.49,768.197 1567.7,768.198 1567.91,768.201L1567.91,771.659C1567.7,771.657 1567.49,771.656 1567.28,771.656C1553.14,771.656 1538.91,777.163 1528.12,787.954L1527.32,787.149C1517.05,797.658 1511.46,812.276 1511.23,825.968L1509.59,825.968ZM1516.13,825.968C1516.37,813.129 1521.42,800.869 1531.15,790.996L1530.37,790.212C1540.52,780.054 1553.92,774.887 1567.23,774.887C1567.46,774.887 1567.69,774.889 1567.91,774.891L1567.91,777.956C1567.69,777.953 1567.46,777.951 1567.23,777.951C1554.7,777.951 1542.1,782.83 1532.54,792.39L1531.84,791.682C1522.77,800.966 1517.81,813.867 1517.58,825.968L1516.13,825.968ZM1522.67,825.968C1522.91,814.823 1527.3,804.175 1535.74,795.603L1535.07,794.928C1543.92,786.079 1555.59,781.577 1567.19,781.577C1567.43,781.577 1567.67,781.579 1567.91,781.583L1567.91,784.253C1567.67,784.249 1567.43,784.247 1567.19,784.247C1556.27,784.247 1545.3,788.497 1536.97,796.826L1536.36,796.215C1528.48,804.275 1524.16,815.458 1523.93,825.968L1522.67,825.968ZM1529.21,825.968C1529.44,816.516 1533.17,807.482 1540.34,800.209L1539.77,799.644C1547.31,792.103 1557.26,788.268 1567.14,788.268C1567.4,788.268 1567.65,788.27 1567.91,788.275L1567.91,790.55C1567.65,790.545 1567.4,790.542 1567.14,790.542C1557.84,790.542 1548.49,794.164 1541.39,801.261L1540.87,800.747C1534.2,807.584 1530.51,817.049 1530.29,825.968L1529.21,825.968ZM1535.75,825.968C1535.97,818.209 1539.05,810.788 1544.93,804.816L1544.47,804.36C1550.71,798.128 1558.92,794.958 1567.09,794.958C1567.37,794.958 1567.64,794.961 1567.91,794.968L1567.91,796.849C1567.64,796.841 1567.37,796.838 1567.09,796.838C1559.41,796.838 1551.67,799.831 1545.81,805.697L1545.39,805.281C1539.91,810.893 1536.86,818.641 1536.64,825.968L1535.75,825.968ZM1542.29,825.968C1542.51,819.902 1544.92,814.095 1549.52,809.423L1549.18,809.077C1554.1,804.153 1560.59,801.648 1567.05,801.648C1567.34,801.648 1567.62,801.653 1567.91,801.663L1567.91,803.149C1567.62,803.138 1567.34,803.133 1567.05,803.133C1560.97,803.134 1554.87,805.498 1550.23,810.132L1549.91,809.813C1545.63,814.201 1543.21,820.233 1542.99,825.968L1542.29,825.968Z" style="fill:#e7e7e7;"/>
            </g>
            <g id="Y2X1" serif:id="Y2X">
                <path d="M1568.9,724.353C1587.82,724.617 1606.63,732.09 1620.84,746.708L1646.6,773.195C1661.06,788.058 1667.99,807.467 1667.48,826.693L1568.21,826.515L1568.9,724.353Z" style="fill:#c07353;stroke:#fff;stroke-width:1.67px;"/>
                <path d="M1667.48,826.693C1666.98,845.284 1659.51,863.704 1645.14,877.681L1618.65,903.438C1604.41,917.292 1585.99,924.24 1567.55,924.34L1568.21,826.515L1667.48,826.693Z" style="fill:#c07353;stroke:#fff;stroke-width:1.67px;"/>
                <path d="M1569.01,826.693L1666.61,826.693" style="fill:none;stroke:#c07353;stroke-width:4.17px;stroke-linecap:butt;"/>
                <path id="q2" d="M1652.99,825.968C1652.99,826.3 1652.99,826.632 1652.99,826.964C1652.99,848.853 1643.9,870.003 1627.2,886.704C1610.51,903.395 1589.79,911.94 1567.91,911.95L1567.91,908.443C1588.39,908.342 1609.06,899.803 1624.68,884.179C1640.4,868.462 1647.96,847.563 1647.96,826.964C1647.96,826.632 1647.95,826.3 1647.95,825.968L1652.99,825.968ZM1646.24,825.968C1646.24,826.296 1646.25,826.625 1646.25,826.953C1646.25,847.127 1637.87,866.62 1622.48,882.012C1607.11,897.375 1588.04,905.25 1567.91,905.28L1567.91,902.048C1586.76,901.932 1605.77,894.064 1620.15,879.685C1634.64,865.199 1641.6,845.938 1641.6,826.953C1641.6,826.625 1641.6,826.296 1641.6,825.968L1646.24,825.968ZM1639.49,825.968C1639.5,826.292 1639.5,826.617 1639.5,826.942C1639.5,845.401 1631.83,863.237 1617.75,877.321C1603.72,891.355 1586.3,898.56 1567.91,898.61L1567.91,895.652C1585.13,895.522 1602.49,888.325 1615.62,875.192C1628.88,861.937 1635.25,844.313 1635.25,826.942C1635.25,826.617 1635.25,826.292 1635.24,825.968L1639.49,825.968ZM1632.74,825.968C1632.75,826.289 1632.75,826.61 1632.75,826.931C1632.75,843.675 1625.8,859.854 1613.02,872.629C1600.32,885.335 1584.56,891.87 1567.91,891.941L1567.91,889.257C1583.5,889.113 1599.2,882.587 1611.09,870.697C1623.11,858.675 1628.9,842.689 1628.9,826.931C1628.9,826.61 1628.89,826.289 1628.89,825.968L1632.74,825.968ZM1626,825.968C1626,826.285 1626,826.603 1626,826.92C1626,841.949 1619.76,856.471 1608.3,867.937C1596.92,879.315 1582.81,885.18 1567.91,885.27L1567.91,882.861C1581.87,882.703 1595.92,876.848 1606.56,866.204C1617.35,855.413 1622.54,841.064 1622.54,826.92C1622.54,826.603 1622.54,826.285 1622.54,825.968L1626,825.968ZM1619.25,825.968C1619.25,826.281 1619.26,826.595 1619.26,826.909C1619.26,840.223 1613.73,853.088 1603.57,863.246C1593.52,873.295 1581.07,878.489 1567.91,878.6L1567.91,876.465C1580.23,876.294 1592.63,871.11 1602.03,861.71C1611.59,852.15 1616.19,839.439 1616.19,826.909C1616.19,826.595 1616.19,826.281 1616.18,825.968L1619.25,825.968ZM1612.5,825.968C1612.51,826.278 1612.51,826.588 1612.51,826.898C1612.51,838.497 1607.69,849.705 1598.84,858.554C1590.12,867.275 1579.32,871.799 1567.91,871.929L1567.91,870.069C1578.6,869.884 1589.35,865.371 1597.5,857.217C1605.83,848.888 1609.84,837.814 1609.84,826.898C1609.84,826.588 1609.84,826.278 1609.83,825.968L1612.5,825.968ZM1605.75,825.968C1605.76,826.274 1605.76,826.581 1605.76,826.887C1605.76,836.771 1601.66,846.322 1594.12,853.863C1586.72,861.255 1577.58,865.108 1567.91,865.258L1567.91,863.671C1576.97,863.473 1586.07,859.633 1592.98,852.723C1600.07,845.626 1603.49,836.189 1603.49,826.887C1603.49,826.581 1603.48,826.274 1603.47,825.968L1605.75,825.968ZM1599,825.968C1599.01,826.27 1599.01,826.573 1599.01,826.876C1599.01,835.045 1595.62,842.939 1589.39,849.171C1583.33,855.234 1575.84,858.417 1567.91,858.586L1567.91,857.273C1575.34,857.063 1582.78,853.894 1588.45,848.229C1594.31,842.363 1597.13,834.564 1597.13,826.876C1597.13,826.573 1597.13,826.27 1597.12,825.968L1599,825.968ZM1592.25,825.968C1592.26,826.267 1592.27,826.566 1592.27,826.866C1592.27,833.319 1589.59,839.555 1584.66,844.479C1579.93,849.214 1574.09,851.726 1567.91,851.912L1567.91,850.874C1573.71,850.653 1579.5,848.156 1583.92,843.735C1588.55,839.101 1590.78,832.939 1590.78,826.866C1590.78,826.566 1590.77,826.267 1590.76,825.968L1592.25,825.968Z" style="fill:#e7e7e7;"/>
                <path id="q1" d="M1567.91,741.438C1589.65,741.55 1611.36,749.9 1627.94,766.486C1644.39,782.933 1652.74,804.412 1652.99,825.968L1647.95,825.968C1647.7,805.702 1639.85,785.512 1624.38,770.049C1608.78,754.445 1588.36,746.587 1567.91,746.475L1567.91,741.438ZM1567.91,748.128C1587.92,748.252 1607.89,755.948 1623.16,771.214C1638.3,786.355 1645.99,806.124 1646.24,825.968L1641.6,825.968C1641.35,807.312 1634.11,788.732 1619.88,774.498C1605.52,760.137 1586.73,752.895 1567.91,752.771L1567.91,748.128ZM1567.91,754.819C1586.19,754.954 1604.43,761.995 1618.37,775.941C1632.21,789.777 1639.25,807.835 1639.49,825.968L1635.24,825.968C1635,808.923 1628.38,791.951 1615.37,778.945C1602.25,765.829 1585.1,759.203 1567.91,759.067L1567.91,754.819ZM1567.91,761.51C1584.46,761.656 1600.96,768.043 1613.59,780.669C1626.12,793.199 1632.5,809.546 1632.74,825.968L1628.89,825.968C1628.65,810.533 1622.64,795.171 1610.86,783.394C1598.99,771.52 1583.47,765.51 1567.91,765.363L1567.91,761.51ZM1567.91,768.201C1582.73,768.359 1597.5,774.091 1608.8,785.396C1620.03,796.621 1625.76,811.258 1626,825.968L1622.54,825.968C1622.3,812.144 1616.91,798.391 1606.36,787.842C1595.73,777.212 1581.84,771.818 1567.91,771.659L1567.91,768.201ZM1567.91,774.891C1581,775.061 1594.03,780.139 1604.02,790.124C1613.94,800.042 1619.01,812.969 1619.25,825.968L1616.18,825.968C1615.95,813.754 1611.17,801.611 1601.85,792.291C1592.46,782.904 1580.21,778.125 1567.91,777.956L1567.91,774.891ZM1567.91,781.583C1579.27,781.764 1590.57,786.187 1599.23,794.851C1607.85,803.464 1612.27,814.681 1612.5,825.968L1609.83,825.968C1609.6,815.364 1605.44,804.831 1597.35,796.739C1589.2,788.595 1578.58,784.433 1567.91,784.253L1567.91,781.583ZM1567.91,788.275C1577.54,788.466 1587.1,792.234 1594.45,799.579C1601.76,806.886 1605.52,816.393 1605.75,825.968L1603.47,825.968C1603.25,816.975 1599.7,808.05 1592.84,801.187C1585.94,794.286 1576.95,790.741 1567.91,790.55L1567.91,788.275ZM1567.91,794.968C1575.81,795.169 1583.64,798.282 1589.66,804.306C1595.66,810.307 1598.78,818.104 1599,825.968L1597.12,825.968C1596.9,818.586 1593.97,811.27 1588.34,805.636C1582.68,799.978 1575.32,797.05 1567.91,796.849L1567.91,794.968ZM1567.91,801.663C1574.07,801.873 1580.17,804.33 1584.88,809.034C1589.58,813.729 1592.03,819.816 1592.25,825.968L1590.76,825.968C1590.55,820.197 1588.23,814.49 1583.83,810.084C1579.41,805.67 1573.69,803.358 1567.91,803.149L1567.91,801.663Z" style="fill:#e7e7e7;"/>
            </g>
        </g>
    </g>
    <g id="Map">
        <g id="Frame">
            <rect x="1472.05" y="41.883" width="190" height="190" style="fill:#fff;"/>
            <rect x="1472.05" y="41.883" width="190" height="190" style="fill:none;stroke:#000;stroke-width:1.17px;stroke-linejoin:bevel;"/>
            <rect x="1523.93" y="93.758" width="86.25" height="86.25" style="fill:none;stroke:#000;stroke-width:1.25px;stroke-linejoin:bevel;"/>
            <path d="M1610.18,93.758L1662.05,42.091" style="fill:none;stroke:#000;stroke-width:1.25px;stroke-linejoin:bevel;"/>
            <path d="M1523.93,93.758L1472.47,42.091" style="fill:none;stroke:#000;stroke-width:1.25px;stroke-linejoin:bevel;"/>
            <path d="M1523.93,180.008L1472.05,231.883" style="fill:none;stroke:#000;stroke-width:1.25px;stroke-linejoin:bevel;"/>
            <path d="M1610.18,180.008L1662.05,231.883" style="fill:none;stroke:#000;stroke-width:1.25px;stroke-linejoin:bevel;"/>
        </g>
        <g id="Dots">
            <circle cx="1472.05" cy="231.841" r="1.5" style="stroke:#000;stroke-width:1.25px;stroke-linejoin:bevel;"/>
            <circle cx="1566.75" cy="231.966" r="1.5" style="stroke:#000;stroke-width:1.25px;stroke-linejoin:bevel;"/>
            <circle cx="1662.05" cy="231.841" r="1.5" style="stroke:#000;stroke-width:1.25px;stroke-linejoin:bevel;"/>
            <circle cx="1634.4" cy="204.008" r="1.5" style="stroke:#000;stroke-width:1.25px;stroke-linejoin:bevel;"/>
            <circle cx="1610.18" cy="179.841" r="1.5" style="stroke:#000;stroke-width:1.25px;stroke-linejoin:bevel;"/>
            <circle cx="1609.75" cy="136.966" r="1.5" style="stroke:#000;stroke-width:1.25px;stroke-linejoin:bevel;"/>
            <circle cx="1609.87" cy="93.716" r="1.5" style="stroke:#000;stroke-width:1.25px;stroke-linejoin:bevel;"/>
            <circle cx="1634.31" cy="69.508" r="1.5" style="stroke:#000;stroke-width:1.25px;stroke-linejoin:bevel;"/>
            <circle cx="1566.75" cy="93.716" r="1.5" style="stroke:#000;stroke-width:1.25px;stroke-linejoin:bevel;"/>
            <circle cx="1523.62" cy="93.841" r="1.5" style="stroke:#000;stroke-width:1.25px;stroke-linejoin:bevel;"/>
            <circle cx="1567.05" cy="41.841" r="1.5" style="stroke:#000;stroke-width:1.25px;stroke-linejoin:bevel;"/>
            <circle cx="1472.05" cy="41.883" r="1.5" style="stroke:#000;stroke-width:1.25px;stroke-linejoin:bevel;"/>
            <circle cx="1499.9" cy="69.841" r="1.5" style="stroke:#000;stroke-width:1.25px;stroke-linejoin:bevel;"/>
            <circle cx="1472.05" cy="136.883" r="1.5" style="stroke:#000;stroke-width:1.25px;stroke-linejoin:bevel;"/>
            <circle cx="1523.93" cy="136.883" r="1.5" style="stroke:#000;stroke-width:1.25px;stroke-linejoin:bevel;"/>
            <circle cx="1566.55" cy="180.008" r="1.5" style="stroke:#000;stroke-width:1.25px;stroke-linejoin:bevel;"/>
            <circle cx="1523.9" cy="179.841" r="1.5" style="stroke:#000;stroke-width:1.25px;stroke-linejoin:bevel;"/>
            <circle cx="1499.7" cy="204.341" r="1.5" style="stroke:#000;stroke-width:1.25px;stroke-linejoin:bevel;"/>
            <circle cx="1662.05" cy="136.883" r="1.5" style="stroke:#000;stroke-width:1.25px;stroke-linejoin:bevel;"/>
            <circle cx="1662.05" cy="41.991" r="1.5" style="stroke:#000;stroke-width:1.25px;stroke-linejoin:bevel;"/>
        </g>
        <g>
            <path d="M1472.05,231.841L1472,136.713" style="fill:none;stroke:#df4c44;stroke-width:5.99px;"/>
        </g>
        <g>
            <path d="M1472.05,137.841L1472,42.713" style="fill:none;stroke:#82c072;stroke-width:5.99px;"/>
        </g>
        <g id="_21" serif:id="2">
            <circle cx="1472" cy="136.883" r="15.75" style="fill:#fff;stroke:#fff;stroke-width:1.46px;"/>
            <path id="q31" serif:id="q3" d="M1472,151.925C1472,151.925 1471.99,151.925 1471.99,151.925C1468.12,151.925 1464.32,150.426 1461.37,147.471C1458.41,144.516 1457.05,140.771 1457.05,136.899C1457.05,136.837 1457.05,136.775 1457.05,136.713L1457.48,136.713C1457.48,136.764 1457.48,136.815 1457.48,136.866C1457.48,140.51 1459,144.287 1461.78,147.068C1464.56,149.849 1468.29,151.305 1471.93,151.305C1471.95,151.305 1471.98,151.305 1472,151.305L1472,151.925ZM1472,150.745C1471.99,150.745 1471.99,150.745 1471.98,150.745C1468.41,150.745 1464.91,149.363 1462.18,146.64C1459.46,143.917 1458.21,140.465 1458.21,136.896C1458.21,136.835 1458.21,136.774 1458.21,136.713L1458.6,136.713C1458.6,136.764 1458.6,136.815 1458.6,136.865C1458.6,140.224 1460,143.705 1462.57,146.268C1465.13,148.831 1468.57,150.174 1471.92,150.174C1471.95,150.174 1471.97,150.174 1472,150.173L1472,150.745ZM1472,149.565C1471.99,149.565 1471.98,149.565 1471.96,149.565C1468.7,149.565 1465.5,148.301 1463,145.809C1460.51,143.317 1459.37,140.159 1459.37,136.893C1459.37,136.833 1459.37,136.773 1459.37,136.713L1459.72,136.713C1459.72,136.764 1459.72,136.815 1459.72,136.865C1459.72,139.939 1461.01,143.124 1463.35,145.469C1465.7,147.814 1468.84,149.042 1471.91,149.042C1471.94,149.042 1471.97,149.042 1472,149.042L1472,149.565ZM1472,148.385C1471.98,148.385 1471.97,148.385 1471.95,148.385C1468.99,148.385 1466.08,147.238 1463.82,144.978C1461.56,142.718 1460.52,139.853 1460.52,136.891C1460.52,136.831 1460.52,136.772 1460.52,136.713L1460.85,136.713C1460.85,136.764 1460.85,136.814 1460.85,136.865C1460.85,139.653 1462.01,142.542 1464.14,144.669C1466.27,146.797 1469.12,147.911 1471.9,147.911C1471.94,147.911 1471.97,147.911 1472,147.91L1472,148.385ZM1472,147.205C1471.98,147.205 1471.96,147.205 1471.94,147.205C1469.28,147.205 1466.67,146.176 1464.64,144.147C1462.61,142.118 1461.68,139.547 1461.68,136.888C1461.68,136.829 1461.68,136.771 1461.68,136.713L1461.97,136.713C1461.97,136.764 1461.97,136.814 1461.97,136.865C1461.97,139.367 1463.01,141.961 1464.92,143.87C1466.83,145.779 1469.39,146.779 1471.9,146.779C1471.93,146.779 1471.96,146.779 1472,146.779L1472,147.205ZM1472,146.025C1471.97,146.025 1471.95,146.025 1471.92,146.025C1469.57,146.025 1467.26,145.113 1465.46,143.316C1463.66,141.519 1462.84,139.241 1462.84,136.885C1462.84,136.828 1462.84,136.77 1462.84,136.713L1463.09,136.713C1463.09,136.764 1463.09,136.814 1463.09,136.865C1463.09,139.082 1464.02,141.379 1465.71,143.071C1467.4,144.762 1469.67,145.648 1471.89,145.648C1471.92,145.648 1471.96,145.648 1472,145.647L1472,146.025ZM1472,144.845C1471.97,144.845 1471.94,144.845 1471.91,144.845C1469.86,144.845 1467.84,144.051 1466.28,142.485C1464.71,140.919 1463.99,138.935 1463.99,136.882C1463.99,136.826 1463.99,136.769 1463.99,136.713L1464.22,136.713C1464.22,136.763 1464.22,136.814 1464.22,136.865C1464.22,138.796 1465.02,140.798 1466.5,142.271C1467.97,143.745 1469.95,144.516 1471.88,144.516C1471.92,144.516 1471.96,144.516 1472,144.515L1472,144.845ZM1472,143.664C1471.96,143.665 1471.93,143.665 1471.89,143.665C1470.15,143.665 1468.43,142.988 1467.1,141.654C1465.76,140.32 1465.15,138.628 1465.15,136.88C1465.15,136.824 1465.15,136.768 1465.15,136.713L1465.34,136.713C1465.34,136.763 1465.34,136.814 1465.34,136.865C1465.34,138.51 1466.03,140.216 1467.28,141.472C1468.54,142.727 1470.22,143.385 1471.87,143.385C1471.91,143.385 1471.95,143.384 1472,143.383L1472,143.664ZM1472,142.484C1471.96,142.485 1471.92,142.485 1471.88,142.485C1470.43,142.485 1469.02,141.925 1467.91,140.823C1466.81,139.72 1466.31,138.322 1466.31,136.877C1466.31,136.822 1466.31,136.767 1466.31,136.713L1466.46,136.713C1466.46,136.763 1466.46,136.814 1466.46,136.865C1466.46,138.225 1467.03,139.634 1468.07,140.672C1469.11,141.71 1470.5,142.254 1471.86,142.254C1471.9,142.254 1471.95,142.253 1472,142.252L1472,142.484ZM1472,141.303C1471.95,141.304 1471.91,141.305 1471.87,141.305C1470.73,141.305 1469.61,140.863 1468.73,139.992C1467.86,139.12 1467.46,138.016 1467.46,136.874C1467.46,136.82 1467.46,136.766 1467.46,136.713L1467.59,136.713C1467.59,136.763 1467.59,136.814 1467.59,136.865C1467.59,137.939 1468.04,139.053 1468.86,139.873C1469.67,140.693 1470.78,141.122 1471.85,141.122C1471.9,141.122 1471.95,141.121 1472,141.119L1472,141.303Z" style="fill:#733c52;"/>
            <path id="q41" serif:id="q4" d="M1457.05,136.713C1457.1,132.943 1458.58,129.347 1461.43,126.45L1461.2,126.214C1464.15,123.26 1468.05,121.757 1471.92,121.757C1471.95,121.757 1471.97,121.757 1472,121.757L1472,122.648C1471.97,122.648 1471.95,122.648 1471.92,122.648C1468.28,122.648 1464.61,124.067 1461.83,126.848L1461.62,126.637C1458.96,129.362 1457.52,133.165 1457.48,136.713L1457.05,136.713ZM1458.21,136.713C1458.26,133.243 1459.62,129.932 1462.24,127.265L1462.03,127.049C1464.75,124.326 1468.34,122.94 1471.91,122.94C1471.94,122.94 1471.97,122.94 1472,122.941L1472,123.762C1471.97,123.762 1471.94,123.762 1471.91,123.762C1468.55,123.762 1465.17,125.07 1462.61,127.633L1462.42,127.439C1459.97,129.948 1458.64,133.446 1458.6,136.713L1458.21,136.713ZM1459.37,136.713C1459.41,133.542 1460.66,130.517 1463.06,128.08L1462.86,127.883C1465.35,125.392 1468.64,124.124 1471.9,124.124C1471.93,124.124 1471.97,124.124 1472,124.124L1472,124.876C1471.97,124.876 1471.93,124.876 1471.9,124.876C1468.83,124.876 1465.74,126.072 1463.39,128.417L1463.22,128.241C1460.98,130.533 1459.76,133.727 1459.72,136.713L1459.37,136.713ZM1460.52,136.713C1460.57,133.842 1461.69,131.102 1463.87,128.895L1463.69,128.718C1465.95,126.457 1468.93,125.308 1471.89,125.308C1471.93,125.308 1471.96,125.308 1472,125.308L1472,125.99C1471.96,125.99 1471.93,125.99 1471.89,125.99C1469.11,125.99 1466.3,127.075 1464.18,129.202L1464.02,129.043C1461.99,131.118 1460.89,134.009 1460.85,136.713L1460.52,136.713ZM1461.68,136.713C1461.72,134.142 1462.73,131.687 1464.68,129.71L1464.52,129.552C1466.55,127.523 1469.23,126.491 1471.89,126.491C1471.92,126.491 1471.96,126.492 1472,126.492L1472,127.104C1471.96,127.104 1471.92,127.103 1471.89,127.103C1469.38,127.103 1466.87,128.078 1464.96,129.987L1464.82,129.844C1463,131.704 1462.01,134.29 1461.97,136.713L1461.68,136.713ZM1462.84,136.713C1462.88,134.441 1463.77,132.272 1465.49,130.525L1465.36,130.386C1467.15,128.589 1469.52,127.675 1471.88,127.675C1471.92,127.675 1471.96,127.675 1472,127.676L1472,128.218C1471.96,128.217 1471.92,128.217 1471.88,128.217C1469.66,128.217 1467.43,129.08 1465.74,130.772L1465.62,130.647C1464.01,132.289 1463.13,134.572 1463.09,136.713L1462.84,136.713ZM1463.99,136.713C1464.04,134.741 1464.81,132.857 1466.31,131.34L1466.19,131.221C1467.75,129.655 1469.82,128.859 1471.87,128.859C1471.91,128.859 1471.96,128.859 1472,128.86L1472,129.332C1471.96,129.331 1471.91,129.331 1471.87,129.331C1469.94,129.331 1468,130.083 1466.52,131.557L1466.41,131.449C1465.02,132.875 1464.26,134.853 1464.22,136.713L1463.99,136.713ZM1465.15,136.713C1465.19,135.04 1465.85,133.442 1467.12,132.155L1467.02,132.055C1468.35,130.721 1470.11,130.042 1471.86,130.042C1471.91,130.042 1471.95,130.043 1472,130.044L1472,130.446C1471.95,130.445 1471.91,130.445 1471.86,130.445C1470.22,130.445 1468.56,131.086 1467.31,132.341L1467.21,132.25C1466.03,133.46 1465.38,135.135 1465.34,136.713L1465.15,136.713ZM1466.31,136.713C1466.35,135.34 1466.89,134.027 1467.93,132.97L1467.85,132.89C1468.95,131.787 1470.41,131.226 1471.85,131.226C1471.9,131.226 1471.95,131.227 1472,131.228L1472,131.561C1471.95,131.559 1471.9,131.559 1471.85,131.559C1470.49,131.559 1469.13,132.088 1468.09,133.126L1468.01,133.053C1467.05,134.045 1466.51,135.416 1466.46,136.713L1466.31,136.713ZM1467.46,136.713C1467.5,135.639 1467.93,134.612 1468.75,133.785L1468.68,133.724C1469.56,132.853 1470.7,132.41 1471.85,132.41C1471.9,132.41 1471.95,132.411 1472,132.412L1472,132.675C1471.95,132.674 1471.9,132.673 1471.85,132.673C1470.77,132.673 1469.69,133.091 1468.87,133.911L1468.81,133.855C1468.06,134.631 1467.63,135.698 1467.59,136.713L1467.46,136.713Z" style="fill:#733c52;"/>
            <path id="q21" serif:id="q2" d="M1487.05,136.713C1487.05,136.771 1487.05,136.83 1487.05,136.889C1487.05,140.762 1485.44,144.504 1482.49,147.459C1479.54,150.412 1475.87,151.924 1472,151.925L1472,151.305C1475.62,151.287 1479.28,149.776 1482.04,147.012C1484.82,144.231 1486.16,140.534 1486.16,136.889C1486.16,136.83 1486.16,136.771 1486.16,136.713L1487.05,136.713ZM1485.86,136.713C1485.86,136.771 1485.86,136.829 1485.86,136.887C1485.86,140.456 1484.38,143.905 1481.65,146.628C1478.93,149.347 1475.56,150.74 1472,150.745L1472,150.173C1475.33,150.153 1478.7,148.761 1481.24,146.217C1483.8,143.654 1485.04,140.246 1485.04,136.887C1485.04,136.829 1485.04,136.771 1485.04,136.713L1485.86,136.713ZM1484.66,136.713C1484.66,136.77 1484.66,136.828 1484.66,136.885C1484.66,140.151 1483.31,143.307 1480.82,145.798C1478.33,148.282 1475.25,149.556 1472,149.565L1472,149.042C1475.05,149.019 1478.12,147.746 1480.44,145.422C1482.79,143.077 1483.91,139.959 1483.91,136.885C1483.91,136.828 1483.91,136.77 1483.91,136.713L1484.66,136.713ZM1483.47,136.713C1483.47,136.769 1483.47,136.826 1483.47,136.883C1483.47,139.846 1482.24,142.708 1479.98,144.968C1477.73,147.216 1474.94,148.373 1472,148.385L1472,147.91C1474.76,147.885 1477.54,146.73 1479.64,144.627C1481.77,142.499 1482.79,139.671 1482.79,136.883C1482.79,136.826 1482.79,136.769 1482.79,136.713L1483.47,136.713ZM1482.28,136.713C1482.28,136.769 1482.28,136.825 1482.28,136.881C1482.28,139.54 1481.17,142.11 1479.14,144.138C1477.13,146.151 1474.63,147.189 1472,147.205L1472,146.779C1474.47,146.751 1476.95,145.715 1478.84,143.832C1480.75,141.922 1481.66,139.384 1481.66,136.881C1481.66,136.825 1481.66,136.769 1481.66,136.713L1482.28,136.713ZM1481.08,136.713C1481.08,136.768 1481.08,136.824 1481.08,136.879C1481.08,139.235 1480.1,141.511 1478.31,143.308C1476.53,145.086 1474.33,146.005 1472,146.025L1472,145.647C1474.18,145.617 1476.37,144.7 1478.04,143.037C1479.73,141.345 1480.54,139.096 1480.54,136.879C1480.54,136.824 1480.54,136.768 1480.54,136.713L1481.08,136.713ZM1479.89,136.713C1479.89,136.768 1479.89,136.822 1479.89,136.877C1479.89,138.929 1479.04,140.912 1477.47,142.478C1475.93,144.021 1474.02,144.822 1472,144.845L1472,144.515C1473.89,144.483 1475.79,143.684 1477.23,142.241C1478.71,140.768 1479.42,138.809 1479.42,136.877C1479.42,136.822 1479.42,136.768 1479.41,136.713L1479.89,136.713ZM1478.69,136.713C1478.69,136.767 1478.69,136.821 1478.69,136.875C1478.69,138.624 1477.97,140.314 1476.63,141.648C1475.33,142.956 1473.71,143.638 1472,143.664L1472,143.383C1473.6,143.349 1475.21,142.669 1476.43,141.446C1477.69,140.191 1478.29,138.521 1478.29,136.875C1478.29,136.821 1478.29,136.767 1478.29,136.713L1478.69,136.713ZM1477.5,136.713C1477.5,136.766 1477.5,136.82 1477.5,136.873C1477.5,138.319 1476.9,139.715 1475.8,140.818C1474.73,141.891 1473.4,142.454 1472,142.484L1472,142.252C1473.31,142.214 1474.63,141.654 1475.63,140.651C1476.67,139.614 1477.17,138.234 1477.17,136.873C1477.17,136.82 1477.17,136.766 1477.17,136.713L1477.5,136.713ZM1476.3,136.713C1476.31,136.766 1476.31,136.819 1476.31,136.872C1476.31,138.013 1475.83,139.117 1474.96,139.988C1474.12,140.826 1473.09,141.27 1472,141.303L1472,141.119C1473.02,141.08 1474.05,140.638 1474.83,139.856C1475.65,139.036 1476.04,137.946 1476.04,136.872C1476.04,136.819 1476.04,136.766 1476.04,136.713L1476.3,136.713Z" style="fill:#733c52;"/>
            <path id="q11" serif:id="q1" d="M1472,121.757C1475.85,121.777 1479.68,123.254 1482.62,126.189C1485.53,129.099 1487.01,132.899 1487.05,136.713L1486.16,136.713C1486.12,133.127 1484.73,129.555 1481.99,126.819C1479.23,124.058 1475.62,122.668 1472,122.648L1472,121.757ZM1472,122.941C1475.54,122.963 1479.07,124.324 1481.77,127.025C1484.45,129.704 1485.81,133.202 1485.86,136.713L1485.04,136.713C1484.99,133.412 1483.71,130.125 1481.19,127.606C1478.65,125.065 1475.33,123.784 1472,123.762L1472,122.941ZM1472,124.124C1475.23,124.148 1478.46,125.394 1480.93,127.862C1483.37,130.309 1484.62,133.504 1484.66,136.713L1483.91,136.713C1483.87,133.697 1482.7,130.694 1480.39,128.393C1478.07,126.072 1475.04,124.9 1472,124.876L1472,124.124ZM1472,125.308C1474.93,125.334 1477.85,126.464 1480.08,128.698C1482.3,130.915 1483.43,133.807 1483.47,136.713L1482.79,136.713C1482.75,133.982 1481.68,131.264 1479.6,129.18C1477.5,127.079 1474.75,126.016 1472,125.99L1472,125.308ZM1472,126.492C1474.62,126.52 1477.23,127.534 1479.23,129.534C1481.22,131.52 1482.23,134.11 1482.28,136.713L1481.66,136.713C1481.62,134.267 1480.67,131.834 1478.8,129.967C1476.92,128.086 1474.46,127.132 1472,127.104L1472,126.492ZM1472,127.676C1474.31,127.706 1476.62,128.604 1478.39,130.371C1480.14,132.126 1481.04,134.413 1481.08,136.713L1480.54,136.713C1480.5,134.552 1479.65,132.403 1478,130.754C1476.34,129.093 1474.17,128.248 1472,128.218L1472,127.676ZM1472,128.86C1474.01,128.892 1476.01,129.674 1477.54,131.207C1479.06,132.731 1479.85,134.716 1479.89,136.713L1479.41,136.713C1479.37,134.837 1478.64,132.973 1477.21,131.541C1475.77,130.1 1473.89,129.364 1472,129.332L1472,128.86ZM1472,130.044C1473.7,130.078 1475.39,130.744 1476.69,132.044C1477.99,133.337 1478.65,135.019 1478.69,136.713L1478.29,136.713C1478.25,135.122 1477.62,133.543 1476.41,132.328C1475.19,131.107 1473.6,130.48 1472,130.446L1472,130.044ZM1472,131.228C1473.39,131.263 1474.78,131.814 1475.85,132.88C1476.91,133.942 1477.46,135.321 1477.5,136.713L1477.17,136.713C1477.13,135.407 1476.61,134.112 1475.61,133.115C1474.61,132.114 1473.31,131.596 1472,131.561L1472,131.228ZM1472,132.412C1473.09,132.45 1474.17,132.884 1475,133.717C1475.83,134.547 1476.27,135.624 1476.3,136.713L1476.04,136.713C1476,135.692 1475.59,134.682 1474.81,133.902C1474.03,133.122 1473.02,132.712 1472,132.675L1472,132.412Z" style="fill:#733c52;"/>
        </g>
    </g>
</svg>
