<?xml version="1.0" encoding="UTF-8" standalone="no"?>
<!DOCTYPE svg PUBLIC "-//W3C//DTD SVG 1.1//EN" "http://www.w3.org/Graphics/SVG/1.1/DTD/svg11.dtd">
<svg width="100%" height="100%" viewBox="0 0 1701 2481" version="1.1" xmlns="http://www.w3.org/2000/svg" xmlns:xlink="http://www.w3.org/1999/xlink" xml:space="preserve" xmlns:serif="http://www.serif.com/" style="fill-rule:evenodd;clip-rule:evenodd;stroke-linecap:round;stroke-linejoin:round;stroke-miterlimit:1.5;">
    <rect id="Y2X2" x="0.552" y="0.356" width="1700" height="2480" style="fill:none;"/>
    <g id="Fields" opacity="0.2">
        <path id="_2" serif:id="2" d="M1327.98,1113.36L1690.55,1016.83L1690.55,417.732L1204.46,895.943C1260.79,953.426 1302.29,1023.36 1327.98,1113.36Z" style="fill:#b1865b;stroke:#767676;stroke-width:8.33px;"/>
    </g>
    <g id="SG">
        <g id="Meta-Ring">
            <path d="M1262.62,1480.25C1131.3,1707.69 840.053,1785.74 612.629,1654.44C385.205,1523.13 307.175,1231.88 438.488,1004.44C569.802,776.995 861.051,698.943 1088.47,830.246C1315.9,961.549 1393.93,1252.81 1262.62,1480.25Z" style="fill:none;stroke:#000;stroke-width:0.48px;stroke-linecap:square;"/>
            <path d="M1262.62,1480.25L1236.27,1465.04" style="fill:none;stroke:#000;stroke-width:0.48px;stroke-linecap:square;"/>
            <path d="M464.831,1019.64L438.488,1004.44" style="fill:none;stroke:#000;stroke-width:0.48px;stroke-linecap:square;"/>
            <path d="M627.838,1628.09L612.629,1654.44" style="fill:none;stroke:#000;stroke-width:0.48px;stroke-linecap:square;"/>
            <path d="M1088.47,830.246L1073.27,856.589" style="fill:none;stroke:#000;stroke-width:0.48px;stroke-linecap:square;"/>
            <path d="M1088.46,1654.42L1073.26,1628.08" style="fill:none;stroke:#000;stroke-width:0.48px;stroke-linecap:square;"/>
            <path d="M627.848,856.606L612.639,830.263" style="fill:none;stroke:#000;stroke-width:0.48px;stroke-linecap:square;"/>
            <path d="M464.801,1465.05L438.458,1480.26" style="fill:none;stroke:#000;stroke-width:0.48px;stroke-linecap:square;"/>
            <path d="M1262.64,1004.42L1236.3,1019.63" style="fill:none;stroke:#000;stroke-width:0.48px;stroke-linecap:square;"/>
            <path d="M850.552,1718.18L850.552,1687.77" style="fill:none;stroke:#000;stroke-width:0.48px;stroke-linecap:square;"/>
            <path d="M850.552,796.914L850.552,766.497" style="fill:none;stroke:#000;stroke-width:0.48px;stroke-linecap:square;"/>
            <path d="M405.143,1242.34L374.726,1242.34" style="fill:none;stroke:#000;stroke-width:0.48px;stroke-linecap:square;"/>
            <path d="M1326.38,1242.34L1295.96,1242.34" style="fill:none;stroke:#000;stroke-width:0.48px;stroke-linecap:square;"/>
        </g>
        <g id="Ring-Backers" serif:id="Ring Backers">
        </g>
        <g id="Child-Rings" serif:id="Child Rings">
        </g>
    </g>
    <g id="S">
        <g id="Ring">
            <path id="Backer" d="M1261.99,1477.36C1131.1,1704.06 840.79,1781.85 614.102,1650.98C387.414,1520.1 309.637,1229.8 440.525,1003.09C571.414,776.393 861.721,698.596 1088.41,829.471C1315.1,960.347 1392.87,1250.65 1261.99,1477.36Z" style="fill:#fff;"/>
            <path d="M1261.99,1477.36C1131.1,1704.06 840.79,1781.85 614.102,1650.98C387.414,1520.1 309.637,1229.8 440.525,1003.09C571.414,776.393 861.721,698.596 1088.41,829.471C1315.1,960.347 1392.87,1250.65 1261.99,1477.36Z" style="fill:none;stroke:#000;stroke-width:8.33px;"/>
            <path d="M1261.99,1477.36L1235.73,1462.2" style="fill:none;stroke:#000;stroke-width:8.33px;"/>
            <path d="M466.783,1018.25L440.525,1003.09" style="fill:none;stroke:#000;stroke-width:8.33px;"/>
            <path d="M629.262,1624.72L614.102,1650.98" style="fill:none;stroke:#000;stroke-width:8.33px;"/>
            <path d="M1088.41,829.471L1073.25,855.728" style="fill:none;stroke:#000;stroke-width:8.33px;"/>
            <path d="M1088.4,1650.96L1073.24,1624.7" style="fill:none;stroke:#000;stroke-width:8.33px;"/>
            <path d="M629.272,855.746L614.112,829.489" style="fill:none;stroke:#000;stroke-width:8.33px;"/>
            <path d="M466.753,1462.21L440.495,1477.37" style="fill:none;stroke:#000;stroke-width:8.33px;"/>
            <path d="M1262.02,1003.08L1235.76,1018.24" style="fill:none;stroke:#000;stroke-width:8.33px;"/>
            <path d="M851.256,1714.52L851.256,1684.2" style="fill:none;stroke:#000;stroke-width:8.33px;"/>
            <path d="M851.256,796.248L851.256,765.93" style="fill:none;stroke:#000;stroke-width:8.33px;"/>
            <path d="M407.288,1240.23L376.969,1240.23" style="fill:none;stroke:#000;stroke-width:8.33px;"/>
            <path d="M1325.54,1240.23L1295.22,1240.23" style="fill:none;stroke:#000;stroke-width:8.33px;"/>
        </g>
        <g id="Root-Markers" serif:id="Root Markers">
            <path id="_4" serif:id="4" d="M1171.02,1410.91L1065.54,1391.93L1101.84,1329.06L1171.02,1410.91ZM1122.02,1382.63L1104.81,1362.26L1095.77,1377.9L1122.02,1382.63Z" style="fill:#df4c44;"/>
        </g>
        <g id="Notes">
            <path id="_7" serif:id="7" d="M687.356,1689.55C665.367,1727.64 616.593,1740.71 578.507,1718.72C540.42,1696.73 527.351,1647.96 549.341,1609.87C571.33,1571.79 620.104,1558.72 658.19,1580.7C696.277,1602.69 709.346,1651.47 687.356,1689.55Z" style="fill:#df4c44;stroke:#fff;stroke-width:24px;"/>
            <path id="_41" serif:id="4" d="M1327.81,1519.76C1305.82,1557.85 1257.04,1570.91 1218.96,1548.93C1180.87,1526.94 1167.8,1478.16 1189.79,1440.08C1211.78,1401.99 1260.55,1388.92 1298.64,1410.91C1336.73,1432.9 1349.8,1481.67 1327.81,1519.76Z" style="fill:#df4c44;stroke:#fff;stroke-width:24px;"/>
            <path id="_0" serif:id="0" d="M920.264,810.954C898.274,849.039 849.5,862.108 811.414,840.119C773.327,818.13 760.258,769.358 782.248,731.272C804.237,693.186 853.011,680.117 891.097,702.106C929.184,724.095 942.253,772.868 920.264,810.954Z" style="fill:#df4c44;stroke:#fff;stroke-width:24px;"/>
        </g>
        <g id="Treble-Marker" serif:id="Treble Marker">
            <g id="_21" serif:id="2">
                <path id="_2u" serif:id="2u" d="M1327.79,1049.27C1305.8,1087.35 1257.03,1100.42 1218.94,1078.43C1180.85,1056.44 1167.79,1007.67 1189.77,969.587C1211.76,931.501 1260.54,918.432 1298.62,940.421C1336.71,962.41 1349.78,1011.18 1327.79,1049.27Z" style="fill:#fff;stroke:#fff;stroke-width:33.33px;"/>
                <circle id="_2a" serif:id="2a" cx="1258.78" cy="1009.43" r="64" style="fill:#fff;stroke:#df4c44;stroke-width:16.67px;"/>
            </g>
        </g>
    </g>
    <g id="Songs">
        <g id="song-2-grooves" serif:id="song 2 grooves">
            <g id="Y2X21" serif:id="Y2X2">
                <path d="M1567.55,924.355C1548.16,924.461 1528.75,916.985 1514.17,901.994L1488.41,875.508C1475.04,861.762 1468.11,844.13 1467.55,826.349L1568.21,826.53L1567.55,924.355Z" style="fill:#df4c44;stroke:#fff;stroke-width:1.67px;"/>
                <path d="M1467.55,826.349C1466.91,806.311 1474.38,786.085 1489.87,771.021L1516.36,745.264C1530.98,731.049 1549.99,724.104 1568.9,724.369L1568.21,826.53L1467.55,826.349Z" style="fill:#df4c44;stroke:#fff;stroke-width:1.67px;"/>
                <path d="M1468.51,826.53L1567.51,826.708" style="fill:none;stroke:#df4c44;stroke-width:4.17px;stroke-linecap:butt;"/>
                <path id="q3" d="M1567.91,911.965C1567.9,911.965 1567.89,911.965 1567.88,911.965C1545.99,911.965 1524.52,903.49 1507.82,886.79C1491.12,870.09 1483.43,848.923 1483.43,827.034C1483.43,826.683 1483.43,826.333 1483.44,825.983L1485.83,825.983C1485.83,826.271 1485.83,826.559 1485.83,826.847C1485.83,847.446 1494.43,868.794 1510.15,884.51C1525.87,900.227 1546.94,908.459 1567.55,908.459C1567.67,908.459 1567.79,908.459 1567.91,908.458L1567.91,911.965ZM1567.91,905.296C1567.87,905.296 1567.84,905.296 1567.8,905.296C1547.62,905.296 1527.83,897.485 1512.44,882.093C1497.05,866.701 1489.97,847.193 1489.97,827.019C1489.97,826.673 1489.97,826.328 1489.98,825.983L1492.18,825.983C1492.18,826.271 1492.18,826.559 1492.18,826.846C1492.18,845.832 1500.11,865.506 1514.59,879.992C1529.08,894.477 1548.51,902.064 1567.49,902.064C1567.63,902.064 1567.77,902.064 1567.91,902.063L1567.91,905.296ZM1567.91,898.626C1567.85,898.626 1567.78,898.626 1567.72,898.626C1549.26,898.626 1531.15,891.479 1517.07,877.396C1502.99,863.313 1496.51,845.463 1496.51,827.003C1496.51,826.663 1496.51,826.323 1496.52,825.983L1498.53,825.983C1498.53,826.271 1498.53,826.559 1498.53,826.846C1498.53,844.217 1505.78,862.219 1519.04,875.473C1532.29,888.727 1550.07,895.67 1567.44,895.67C1567.6,895.67 1567.75,895.669 1567.91,895.668L1567.91,898.626ZM1567.91,891.956C1567.82,891.956 1567.73,891.956 1567.64,891.956C1550.9,891.956 1534.47,885.474 1521.7,872.699C1508.92,859.924 1503.05,843.732 1503.05,826.989C1503.05,826.653 1503.05,826.318 1503.05,825.983L1504.88,825.983C1504.88,826.271 1504.88,826.558 1504.88,826.845C1504.88,842.602 1511.46,858.932 1523.48,870.955C1535.5,882.977 1551.63,889.275 1567.39,889.274C1567.56,889.274 1567.74,889.274 1567.91,889.272L1567.91,891.956ZM1567.91,885.286C1567.8,885.287 1567.68,885.287 1567.56,885.287C1552.53,885.287 1537.79,879.468 1526.32,868.002C1514.86,856.535 1509.58,842.002 1509.58,826.973C1509.58,826.643 1509.59,826.313 1509.59,825.983L1511.23,825.983C1511.23,826.271 1511.23,826.558 1511.23,826.845C1511.23,840.988 1517.13,855.645 1527.93,866.436C1538.72,877.227 1553.19,882.88 1567.33,882.88C1567.53,882.88 1567.72,882.879 1567.91,882.877L1567.91,885.286ZM1567.91,878.615C1567.77,878.617 1567.63,878.617 1567.48,878.617C1554.17,878.617 1541.11,873.463 1530.95,863.305C1520.79,853.147 1516.12,840.272 1516.12,826.958C1516.12,826.633 1516.12,826.308 1516.13,825.983L1517.58,825.983C1517.58,826.27 1517.58,826.558 1517.58,826.844C1517.58,839.373 1522.81,852.358 1532.37,861.918C1541.93,871.478 1554.75,876.485 1567.28,876.485C1567.49,876.485 1567.7,876.483 1567.91,876.48L1567.91,878.615ZM1567.91,871.944C1567.74,871.946 1567.57,871.947 1567.4,871.947C1555.81,871.948 1544.43,867.457 1535.58,858.607C1526.73,849.758 1522.66,838.541 1522.66,826.943C1522.66,826.622 1522.66,826.302 1522.67,825.983L1523.93,825.983C1523.93,826.27 1523.93,826.557 1523.93,826.844C1523.93,837.759 1528.49,849.071 1536.82,857.399C1545.14,865.728 1556.31,870.09 1567.23,870.09C1567.46,870.09 1567.68,870.088 1567.91,870.084L1567.91,871.944ZM1567.91,865.273C1567.72,865.276 1567.52,865.278 1567.33,865.278C1557.44,865.278 1547.75,861.451 1540.2,853.91C1532.66,846.369 1529.19,836.811 1529.19,826.927C1529.19,826.612 1529.2,826.297 1529.21,825.983L1530.29,825.983C1530.28,826.27 1530.28,826.557 1530.28,826.843C1530.28,836.144 1534.16,845.784 1541.26,852.881C1548.36,859.978 1557.87,863.695 1567.18,863.695C1567.42,863.695 1567.67,863.692 1567.91,863.687L1567.91,865.273ZM1567.91,858.601C1567.69,858.606 1567.47,858.609 1567.25,858.609C1559.08,858.609 1551.07,855.446 1544.83,849.213C1538.6,842.981 1535.73,835.081 1535.73,826.912C1535.73,826.602 1535.74,826.292 1535.75,825.983L1536.64,825.983C1536.63,826.27 1536.63,826.557 1536.63,826.843C1536.63,834.53 1539.84,842.497 1545.7,848.362C1551.57,854.228 1559.44,857.3 1567.12,857.3C1567.39,857.3 1567.65,857.296 1567.91,857.289L1567.91,858.601ZM1567.91,851.927C1567.66,851.935 1567.42,851.939 1567.17,851.939C1560.71,851.939 1554.38,849.44 1549.46,844.516C1544.54,839.592 1542.27,833.351 1542.27,826.897C1542.27,826.592 1542.28,826.287 1542.29,825.983L1542.99,825.983C1542.98,826.27 1542.98,826.557 1542.98,826.842C1542.98,832.915 1545.51,839.21 1550.15,843.844C1554.78,848.478 1561,850.905 1567.07,850.905C1567.35,850.905 1567.63,850.9 1567.91,850.889L1567.91,851.927Z" style="fill:#e7e7e7;"/>
                <path id="q4" d="M1483.44,825.983C1483.71,804.677 1492.06,784.351 1508.19,767.979L1506.85,766.647C1523.56,749.946 1545.58,741.452 1567.47,741.452C1567.61,741.452 1567.76,741.452 1567.91,741.453L1567.91,746.491C1567.76,746.49 1567.62,746.49 1567.47,746.49C1546.87,746.49 1526.15,754.51 1510.43,770.228L1509.24,769.033C1494.19,784.438 1486.06,805.929 1485.83,825.983L1483.44,825.983ZM1489.98,825.983C1490.24,806.371 1497.93,787.658 1512.78,772.586L1511.56,771.363C1526.95,755.971 1547.25,748.142 1567.42,748.142C1567.58,748.142 1567.75,748.142 1567.91,748.143L1567.91,752.786C1567.75,752.785 1567.58,752.785 1567.42,752.785C1548.43,752.785 1529.34,760.177 1514.86,774.663L1513.76,773.566C1499.91,787.747 1492.41,807.52 1492.18,825.983L1489.98,825.983ZM1496.52,825.983C1496.77,808.064 1503.8,790.964 1517.37,777.192L1516.26,776.079C1530.34,761.996 1548.91,754.832 1567.37,754.832C1567.55,754.832 1567.73,754.833 1567.91,754.834L1567.91,759.082C1567.73,759.081 1567.55,759.08 1567.37,759.08C1550,759.08 1532.53,765.845 1519.28,779.099L1518.28,778.098C1505.62,791.056 1498.76,809.11 1498.53,825.983L1496.52,825.983ZM1503.05,825.983C1503.31,809.758 1509.68,794.271 1521.96,781.799L1520.96,780.795C1533.74,768.02 1550.58,761.522 1567.33,761.522C1567.52,761.522 1567.72,761.523 1567.91,761.525L1567.91,765.379C1567.72,765.377 1567.52,765.376 1567.33,765.376C1551.57,765.376 1535.72,771.512 1523.7,783.534L1522.8,782.632C1511.34,794.364 1505.11,810.701 1504.88,825.983L1503.05,825.983ZM1509.59,825.983C1509.84,811.451 1515.55,797.578 1526.56,786.405L1525.66,785.511C1537.13,774.045 1552.25,768.213 1567.28,768.213C1567.49,768.213 1567.7,768.214 1567.91,768.216L1567.91,771.675C1567.7,771.672 1567.49,771.671 1567.28,771.671C1553.14,771.671 1538.91,777.178 1528.12,787.97L1527.32,787.164C1517.05,797.673 1511.46,812.292 1511.23,825.983L1509.59,825.983ZM1516.13,825.983C1516.37,813.145 1521.42,800.884 1531.15,791.012L1530.37,790.227C1540.52,780.069 1553.92,774.902 1567.23,774.902C1567.46,774.902 1567.69,774.904 1567.91,774.907L1567.91,777.971C1567.69,777.968 1567.46,777.966 1567.23,777.966C1554.7,777.967 1542.1,782.845 1532.54,792.405L1531.84,791.697C1522.77,800.982 1517.81,813.882 1517.58,825.983L1516.13,825.983ZM1522.67,825.983C1522.91,814.838 1527.3,804.191 1535.74,795.618L1535.07,794.943C1543.92,786.094 1555.59,781.593 1567.19,781.593C1567.43,781.593 1567.67,781.595 1567.91,781.598L1567.91,784.268C1567.67,784.264 1567.43,784.262 1567.19,784.262C1556.27,784.262 1545.3,788.512 1536.97,796.841L1536.36,796.23C1528.48,804.291 1524.16,815.473 1523.93,825.983L1522.67,825.983ZM1529.21,825.983C1529.44,816.531 1533.17,807.497 1540.34,800.225L1539.77,799.66C1547.31,792.119 1557.26,788.283 1567.14,788.283C1567.4,788.283 1567.65,788.285 1567.91,788.29L1567.91,790.566C1567.65,790.56 1567.4,790.557 1567.14,790.557C1557.84,790.558 1548.49,794.18 1541.39,801.276L1540.87,800.763C1534.2,807.599 1530.51,817.064 1530.29,825.983L1529.21,825.983ZM1535.75,825.983C1535.97,818.224 1539.05,810.804 1544.93,804.831L1544.47,804.376C1550.71,798.143 1558.92,794.973 1567.09,794.973C1567.37,794.973 1567.64,794.976 1567.91,794.983L1567.91,796.864C1567.64,796.857 1567.37,796.853 1567.09,796.853C1559.41,796.853 1551.67,799.847 1545.81,805.712L1545.39,805.296C1539.91,810.908 1536.86,818.656 1536.64,825.983L1535.75,825.983ZM1542.29,825.983C1542.51,819.917 1544.92,814.11 1549.52,809.438L1549.18,809.092C1554.1,804.168 1560.59,801.663 1567.05,801.663C1567.34,801.663 1567.62,801.668 1567.91,801.678L1567.91,803.164C1567.62,803.154 1567.34,803.149 1567.05,803.149C1560.97,803.149 1554.87,805.514 1550.23,810.148L1549.91,809.829C1545.63,814.217 1543.21,820.249 1542.99,825.983L1542.29,825.983Z" style="fill:#e7e7e7;"/>
            </g>
            <g id="X">
                <path d="M1568.9,724.369C1587.82,724.633 1606.63,732.105 1620.84,746.723L1646.6,773.21C1661.06,788.074 1667.99,807.482 1667.48,826.708L1568.21,826.53L1568.9,724.369Z" style="fill:#df4c44;stroke:#fff;stroke-width:1.67px;"/>
                <path d="M1667.48,826.708C1666.98,845.299 1659.51,863.72 1645.14,877.696L1618.65,903.453C1604.41,917.307 1585.99,924.255 1567.55,924.355L1568.21,826.53L1667.48,826.708Z" style="fill:#df4c44;stroke:#fff;stroke-width:1.67px;"/>
                <path d="M1569.01,826.708L1666.61,826.708" style="fill:none;stroke:#df4c44;stroke-width:4.17px;stroke-linecap:butt;"/>
                <path id="q2" d="M1652.99,825.983C1652.99,826.315 1652.99,826.647 1652.99,826.979C1652.99,848.868 1643.9,870.018 1627.2,886.719C1610.51,903.41 1589.79,911.956 1567.91,911.965L1567.91,908.458C1588.39,908.357 1609.06,899.818 1624.68,884.194C1640.4,868.477 1647.96,847.578 1647.96,826.979C1647.96,826.647 1647.95,826.315 1647.95,825.983L1652.99,825.983ZM1646.24,825.983C1646.24,826.311 1646.25,826.64 1646.25,826.968C1646.25,847.142 1637.87,866.635 1622.48,882.027C1607.11,897.39 1588.04,905.265 1567.91,905.296L1567.91,902.063C1586.76,901.948 1605.77,894.079 1620.15,879.7C1634.64,865.215 1641.6,845.954 1641.6,826.968C1641.6,826.64 1641.6,826.311 1641.6,825.983L1646.24,825.983ZM1639.49,825.983C1639.5,826.308 1639.5,826.633 1639.5,826.957C1639.5,845.416 1631.83,863.252 1617.75,877.336C1603.72,891.37 1586.3,898.575 1567.91,898.626L1567.91,895.668C1585.13,895.538 1602.49,888.341 1615.62,875.207C1628.88,861.953 1635.25,844.329 1635.25,826.957C1635.25,826.633 1635.25,826.308 1635.24,825.983L1639.49,825.983ZM1632.74,825.983C1632.75,826.304 1632.75,826.625 1632.75,826.946C1632.75,843.69 1625.8,859.869 1613.02,872.644C1600.32,885.35 1584.56,891.885 1567.91,891.956L1567.91,889.272C1583.5,889.128 1599.2,882.602 1611.09,870.713C1623.11,858.69 1628.9,842.704 1628.9,826.946C1628.9,826.625 1628.89,826.304 1628.89,825.983L1632.74,825.983ZM1626,825.983C1626,826.3 1626,826.618 1626,826.935C1626,841.964 1619.76,856.486 1608.3,867.953C1596.92,879.33 1582.81,885.195 1567.91,885.286L1567.91,882.877C1581.87,882.719 1595.92,876.864 1606.56,866.219C1617.35,855.428 1622.54,841.079 1622.54,826.935C1622.54,826.618 1622.54,826.3 1622.54,825.983L1626,825.983ZM1619.25,825.983C1619.25,826.297 1619.26,826.611 1619.26,826.925C1619.26,840.238 1613.73,853.103 1603.57,863.261C1593.52,873.31 1581.07,878.505 1567.91,878.615L1567.91,876.48C1580.23,876.309 1592.63,871.125 1602.03,861.726C1611.59,852.166 1616.19,839.454 1616.19,826.924C1616.19,826.611 1616.19,826.297 1616.18,825.983L1619.25,825.983ZM1612.5,825.983C1612.51,826.293 1612.51,826.603 1612.51,826.914C1612.51,838.513 1607.69,849.72 1598.84,858.569C1590.12,867.29 1579.32,871.814 1567.91,871.944L1567.91,870.084C1578.6,869.899 1589.35,865.387 1597.5,857.232C1605.83,848.904 1609.84,837.829 1609.84,826.914C1609.84,826.603 1609.84,826.293 1609.83,825.983L1612.5,825.983ZM1605.75,825.983C1605.76,826.289 1605.76,826.596 1605.76,826.903C1605.76,836.787 1601.66,846.337 1594.12,853.878C1586.72,861.27 1577.58,865.124 1567.91,865.273L1567.91,863.687C1576.97,863.489 1586.07,859.648 1592.98,852.738C1600.07,845.641 1603.49,836.204 1603.49,826.903C1603.49,826.596 1603.48,826.289 1603.47,825.983L1605.75,825.983ZM1599,825.983C1599.01,826.286 1599.01,826.589 1599.01,826.892C1599.01,835.061 1595.62,842.954 1589.39,849.186C1583.33,855.25 1575.84,858.433 1567.91,858.601L1567.91,857.289C1575.34,857.078 1582.78,853.909 1588.45,848.244C1594.31,842.379 1597.13,834.579 1597.13,826.892C1597.13,826.589 1597.13,826.286 1597.12,825.983L1599,825.983ZM1592.25,825.983C1592.26,826.282 1592.27,826.582 1592.27,826.881C1592.27,833.335 1589.59,839.571 1584.66,844.495C1579.93,849.229 1574.09,851.741 1567.91,851.927L1567.91,850.889C1573.71,850.668 1579.5,848.171 1583.92,843.751C1588.55,839.117 1590.78,832.955 1590.78,826.881C1590.78,826.582 1590.77,826.282 1590.76,825.983L1592.25,825.983Z" style="fill:#e7e7e7;"/>
                <path id="q1" d="M1567.91,741.453C1589.65,741.566 1611.36,749.915 1627.94,766.502C1644.39,782.949 1652.74,804.428 1652.99,825.983L1647.95,825.983C1647.7,805.717 1639.85,785.527 1624.38,770.064C1608.78,754.461 1588.36,746.603 1567.91,746.491L1567.91,741.453ZM1567.91,748.143C1587.92,748.268 1607.89,755.963 1623.16,771.23C1638.3,786.371 1645.99,806.139 1646.24,825.983L1641.6,825.983C1641.35,807.327 1634.11,788.747 1619.88,774.513C1605.52,760.153 1586.73,752.911 1567.91,752.786L1567.91,748.143ZM1567.91,754.834C1586.19,754.97 1604.43,762.01 1618.37,775.957C1632.21,789.792 1639.25,807.85 1639.49,825.983L1635.24,825.983C1635,808.938 1628.38,791.967 1615.37,778.961C1602.25,765.844 1585.1,759.218 1567.91,759.082L1567.91,754.834ZM1567.91,761.525C1584.46,761.672 1600.96,768.058 1613.59,780.684C1626.12,793.214 1632.5,809.562 1632.74,825.983L1628.89,825.983C1628.65,810.548 1622.64,795.187 1610.86,783.409C1598.99,771.535 1583.47,765.525 1567.91,765.379L1567.91,761.525ZM1567.91,768.216C1582.73,768.374 1597.5,774.106 1608.8,785.412C1620.03,796.636 1625.76,811.273 1626,825.983L1622.54,825.983C1622.3,812.159 1616.91,798.406 1606.36,787.858C1595.73,777.227 1581.84,771.833 1567.91,771.675L1567.91,768.216ZM1567.91,774.907C1581,775.076 1594.03,780.154 1604.02,790.139C1613.94,800.057 1619.01,812.984 1619.25,825.983L1616.18,825.983C1615.95,813.769 1611.17,801.627 1601.85,792.306C1592.46,782.919 1580.21,778.141 1567.91,777.971L1567.91,774.907ZM1567.91,781.598C1579.27,781.779 1590.57,786.202 1599.23,794.867C1607.85,803.479 1612.27,814.696 1612.5,825.983L1609.83,825.983C1609.6,815.38 1605.44,804.846 1597.35,796.755C1589.2,788.611 1578.58,784.448 1567.91,784.268L1567.91,781.598ZM1567.91,788.29C1577.54,788.482 1587.1,792.25 1594.45,799.594C1601.76,806.901 1605.52,816.408 1605.75,825.983L1603.47,825.983C1603.25,816.99 1599.7,808.066 1592.84,801.203C1585.94,794.302 1576.95,790.756 1567.91,790.566L1567.91,788.29ZM1567.91,794.983C1575.81,795.184 1583.64,798.297 1589.66,804.322C1595.66,810.323 1598.78,818.119 1599,825.983L1597.12,825.983C1596.9,818.601 1593.97,811.285 1588.34,805.651C1582.68,799.993 1575.32,797.065 1567.91,796.864L1567.91,794.983ZM1567.91,801.678C1574.07,801.888 1580.17,804.345 1584.88,809.049C1589.58,813.745 1592.03,819.831 1592.25,825.983L1590.76,825.983C1590.55,820.212 1588.23,814.505 1583.83,810.1C1579.41,805.686 1573.69,803.374 1567.91,803.164L1567.91,801.678Z" style="fill:#e7e7e7;"/>
            </g>
        </g>
    </g>
    <g id="Map">
        <g id="Frame">
            <rect x="1472.05" y="41.898" width="190" height="190" style="fill:#fff;"/>
            <rect x="1472.05" y="41.898" width="190" height="190" style="fill:none;stroke:#000;stroke-width:1.17px;stroke-linejoin:bevel;"/>
            <rect x="1523.93" y="93.773" width="86.25" height="86.25" style="fill:none;stroke:#000;stroke-width:1.25px;stroke-linejoin:bevel;"/>
            <path d="M1610.18,93.773L1662.05,42.106" style="fill:none;stroke:#000;stroke-width:1.25px;stroke-linejoin:bevel;"/>
            <path d="M1523.93,93.773L1472.47,42.106" style="fill:none;stroke:#000;stroke-width:1.25px;stroke-linejoin:bevel;"/>
            <path d="M1523.93,180.023L1472.05,231.898" style="fill:none;stroke:#000;stroke-width:1.25px;stroke-linejoin:bevel;"/>
            <path d="M1610.18,180.023L1662.05,231.898" style="fill:none;stroke:#000;stroke-width:1.25px;stroke-linejoin:bevel;"/>
        </g>
        <g id="Dots">
            <circle cx="1472.05" cy="231.856" r="1.5" style="stroke:#000;stroke-width:1.25px;stroke-linejoin:bevel;"/>
            <circle cx="1566.75" cy="231.981" r="1.5" style="stroke:#000;stroke-width:1.25px;stroke-linejoin:bevel;"/>
            <circle cx="1662.05" cy="231.856" r="1.5" style="stroke:#000;stroke-width:1.25px;stroke-linejoin:bevel;"/>
            <circle cx="1634.4" cy="204.023" r="1.5" style="stroke:#000;stroke-width:1.25px;stroke-linejoin:bevel;"/>
            <circle cx="1610.18" cy="179.856" r="1.5" style="stroke:#000;stroke-width:1.25px;stroke-linejoin:bevel;"/>
            <circle cx="1609.75" cy="136.981" r="1.5" style="stroke:#000;stroke-width:1.25px;stroke-linejoin:bevel;"/>
            <circle cx="1609.87" cy="93.731" r="1.5" style="stroke:#000;stroke-width:1.25px;stroke-linejoin:bevel;"/>
            <circle cx="1634.31" cy="69.523" r="1.5" style="stroke:#000;stroke-width:1.25px;stroke-linejoin:bevel;"/>
            <circle cx="1566.75" cy="93.731" r="1.5" style="stroke:#000;stroke-width:1.25px;stroke-linejoin:bevel;"/>
            <circle cx="1523.62" cy="93.856" r="1.5" style="stroke:#000;stroke-width:1.25px;stroke-linejoin:bevel;"/>
            <circle cx="1567.05" cy="41.856" r="1.5" style="stroke:#000;stroke-width:1.25px;stroke-linejoin:bevel;"/>
            <circle cx="1472.05" cy="41.898" r="1.5" style="stroke:#000;stroke-width:1.25px;stroke-linejoin:bevel;"/>
            <circle cx="1499.9" cy="69.856" r="1.5" style="stroke:#000;stroke-width:1.25px;stroke-linejoin:bevel;"/>
            <circle cx="1472.05" cy="136.898" r="1.5" style="stroke:#000;stroke-width:1.25px;stroke-linejoin:bevel;"/>
            <circle cx="1523.93" cy="136.898" r="1.5" style="stroke:#000;stroke-width:1.25px;stroke-linejoin:bevel;"/>
            <circle cx="1566.55" cy="180.023" r="1.5" style="stroke:#000;stroke-width:1.25px;stroke-linejoin:bevel;"/>
            <circle cx="1523.9" cy="179.856" r="1.5" style="stroke:#000;stroke-width:1.25px;stroke-linejoin:bevel;"/>
            <circle cx="1499.7" cy="204.356" r="1.5" style="stroke:#000;stroke-width:1.25px;stroke-linejoin:bevel;"/>
            <circle cx="1662.05" cy="136.898" r="1.5" style="stroke:#000;stroke-width:1.25px;stroke-linejoin:bevel;"/>
            <circle cx="1662.05" cy="42.006" r="1.5" style="stroke:#000;stroke-width:1.25px;stroke-linejoin:bevel;"/>
        </g>
        <g>
            <path d="M1472.05,231.856L1472,136.728" style="fill:none;stroke:#df4c44;stroke-width:5.99px;"/>
        </g>
        <path d="M1474.49,225.977C1477.73,227.321 1479.28,231.047 1477.93,234.292C1476.59,237.537 1472.86,239.08 1469.62,237.736C1466.37,236.392 1464.83,232.666 1466.17,229.421C1467.52,226.176 1471.24,224.633 1474.49,225.977Z" style="fill:#fff;stroke:#df4c44;stroke-width:5.99px;"/>
        <g id="_22" serif:id="2">
            <circle cx="1472" cy="136.898" r="15.75" style="fill:#fff;stroke:#fff;stroke-width:1.46px;"/>
            <path id="q31" serif:id="q3" d="M1472,151.941C1472,151.941 1471.99,151.941 1471.99,151.941C1468.12,151.941 1464.32,150.441 1461.37,147.486C1458.41,144.532 1457.05,140.787 1457.05,136.914C1457.05,136.852 1457.05,136.79 1457.05,136.728L1457.48,136.728C1457.48,136.779 1457.48,136.83 1457.48,136.881C1457.48,140.525 1459,144.302 1461.78,147.083C1464.56,149.864 1468.29,151.32 1471.93,151.32C1471.95,151.32 1471.98,151.32 1472,151.32L1472,151.941ZM1472,150.761C1471.99,150.761 1471.99,150.761 1471.98,150.761C1468.41,150.761 1464.91,149.379 1462.18,146.655C1459.46,143.932 1458.21,140.481 1458.21,136.911C1458.21,136.85 1458.21,136.789 1458.21,136.728L1458.6,136.728C1458.6,136.779 1458.6,136.83 1458.6,136.881C1458.6,140.24 1460,143.721 1462.57,146.284C1465.13,148.847 1468.57,150.189 1471.92,150.189C1471.95,150.189 1471.97,150.189 1472,150.189L1472,150.761ZM1472,149.581C1471.99,149.581 1471.98,149.581 1471.96,149.581C1468.7,149.581 1465.5,148.316 1463,145.824C1460.51,143.333 1459.37,140.174 1459.37,136.909C1459.37,136.848 1459.37,136.788 1459.37,136.728L1459.72,136.728C1459.72,136.779 1459.72,136.83 1459.72,136.881C1459.72,139.954 1461.01,143.139 1463.35,145.484C1465.7,147.829 1468.84,149.058 1471.91,149.058C1471.94,149.058 1471.97,149.057 1472,149.057L1472,149.581ZM1472,148.4C1471.98,148.401 1471.97,148.401 1471.95,148.401C1468.99,148.401 1466.08,147.254 1463.82,144.993C1461.56,142.733 1460.52,139.868 1460.52,136.906C1460.52,136.847 1460.52,136.787 1460.52,136.728L1460.85,136.728C1460.85,136.779 1460.85,136.83 1460.85,136.881C1460.85,139.668 1462.01,142.558 1464.14,144.685C1466.27,146.812 1469.12,147.926 1471.9,147.926C1471.94,147.926 1471.97,147.926 1472,147.926L1472,148.4ZM1472,147.22C1471.98,147.22 1471.96,147.221 1471.94,147.221C1469.28,147.221 1466.67,146.191 1464.64,144.162C1462.61,142.134 1461.68,139.562 1461.68,136.903C1461.68,136.845 1461.68,136.786 1461.68,136.728L1461.97,136.728C1461.97,136.779 1461.97,136.83 1461.97,136.88C1461.97,139.383 1463.01,141.976 1464.92,143.885C1466.83,145.795 1469.39,146.795 1471.9,146.795C1471.93,146.795 1471.96,146.794 1472,146.794L1472,147.22ZM1472,146.04C1471.97,146.04 1471.95,146.04 1471.92,146.04C1469.57,146.04 1467.26,145.128 1465.46,143.331C1463.66,141.534 1462.84,139.256 1462.84,136.901C1462.84,136.843 1462.84,136.785 1462.84,136.728L1463.09,136.728C1463.09,136.779 1463.09,136.83 1463.09,136.88C1463.09,139.097 1464.02,141.394 1465.71,143.086C1467.4,144.777 1469.67,145.663 1471.89,145.663C1471.92,145.663 1471.96,145.663 1472,145.662L1472,146.04ZM1472,144.86C1471.97,144.86 1471.94,144.86 1471.91,144.86C1469.86,144.86 1467.84,144.066 1466.28,142.5C1464.71,140.934 1463.99,138.95 1463.99,136.898C1463.99,136.841 1463.99,136.784 1463.99,136.728L1464.22,136.728C1464.22,136.779 1464.22,136.83 1464.22,136.88C1464.22,138.812 1465.02,140.813 1466.5,142.286C1467.97,143.76 1469.95,144.532 1471.88,144.532C1471.92,144.532 1471.96,144.531 1472,144.531L1472,144.86ZM1472,143.68C1471.96,143.68 1471.93,143.68 1471.89,143.68C1470.15,143.68 1468.43,143.003 1467.1,141.669C1465.76,140.335 1465.15,138.644 1465.15,136.895C1465.15,136.839 1465.15,136.784 1465.15,136.728L1465.34,136.728C1465.34,136.779 1465.34,136.83 1465.34,136.88C1465.34,138.526 1466.03,140.231 1467.28,141.487C1468.54,142.743 1470.22,143.4 1471.87,143.4C1471.91,143.4 1471.95,143.4 1472,143.399L1472,143.68ZM1472,142.499C1471.96,142.5 1471.92,142.5 1471.88,142.5C1470.43,142.5 1469.02,141.941 1467.91,140.838C1466.81,139.735 1466.31,138.338 1466.31,136.892C1466.31,136.838 1466.31,136.783 1466.31,136.728L1466.46,136.728C1466.46,136.779 1466.46,136.829 1466.46,136.88C1466.46,138.24 1467.03,139.65 1468.07,140.688C1469.11,141.725 1470.5,142.269 1471.86,142.269C1471.9,142.269 1471.95,142.268 1472,142.267L1472,142.499ZM1472,141.318C1471.95,141.32 1471.91,141.32 1471.87,141.32C1470.73,141.32 1469.61,140.878 1468.73,140.007C1467.86,139.136 1467.46,138.032 1467.46,136.89C1467.46,136.836 1467.46,136.782 1467.46,136.728L1467.59,136.728C1467.59,136.779 1467.59,136.829 1467.59,136.88C1467.59,137.955 1468.04,139.068 1468.86,139.888C1469.67,140.708 1470.78,141.137 1471.85,141.137C1471.9,141.137 1471.95,141.136 1472,141.135L1472,141.318Z" style="fill:#733c52;"/>
            <path id="q41" serif:id="q4" d="M1457.05,136.728C1457.1,132.958 1458.58,129.362 1461.43,126.466L1461.2,126.23C1464.15,123.275 1468.05,121.772 1471.92,121.772C1471.95,121.772 1471.97,121.772 1472,121.772L1472,122.664C1471.97,122.663 1471.95,122.663 1471.92,122.663C1468.28,122.663 1464.61,124.082 1461.83,126.863L1461.62,126.652C1458.96,129.378 1457.52,133.18 1457.48,136.728L1457.05,136.728ZM1458.21,136.728C1458.26,133.258 1459.62,129.947 1462.24,127.281L1462.03,127.064C1464.75,124.341 1468.34,122.956 1471.91,122.956C1471.94,122.956 1471.97,122.956 1472,122.956L1472,123.777C1471.97,123.777 1471.94,123.777 1471.91,123.777C1468.55,123.777 1465.17,125.085 1462.61,127.648L1462.42,127.454C1459.97,129.963 1458.64,133.461 1458.6,136.728L1458.21,136.728ZM1459.37,136.728C1459.41,133.558 1460.66,130.532 1463.06,128.096L1462.86,127.899C1465.35,125.407 1468.64,124.139 1471.9,124.139C1471.93,124.139 1471.97,124.139 1472,124.14L1472,124.891C1471.97,124.891 1471.93,124.891 1471.9,124.891C1468.83,124.891 1465.74,126.088 1463.39,128.433L1463.22,128.256C1460.98,130.548 1459.76,133.743 1459.72,136.728L1459.37,136.728ZM1460.52,136.728C1460.57,133.857 1461.69,131.117 1463.87,128.911L1463.69,128.733C1465.95,126.473 1468.93,125.323 1471.89,125.323C1471.93,125.323 1471.96,125.323 1472,125.324L1472,126.005C1471.96,126.005 1471.93,126.005 1471.89,126.005C1469.11,126.005 1466.3,127.09 1464.18,129.218L1464.02,129.058C1461.99,131.134 1460.89,134.024 1460.85,136.728L1460.52,136.728ZM1461.68,136.728C1461.72,134.157 1462.73,131.702 1464.68,129.726L1464.52,129.567C1466.55,127.539 1469.23,126.507 1471.89,126.507C1471.92,126.507 1471.96,126.507 1472,126.507L1472,127.119C1471.96,127.119 1471.92,127.119 1471.89,127.119C1469.38,127.119 1466.87,128.093 1464.96,130.002L1464.82,129.86C1463,131.719 1462.01,134.306 1461.97,136.728L1461.68,136.728ZM1462.84,136.728C1462.88,134.457 1463.77,132.287 1465.49,130.541L1465.36,130.402C1467.15,128.605 1469.52,127.69 1471.88,127.69C1471.92,127.69 1471.96,127.691 1472,127.691L1472,128.233C1471.96,128.233 1471.92,128.232 1471.88,128.232C1469.66,128.233 1467.43,129.096 1465.74,130.787L1465.62,130.662C1464.01,132.305 1463.13,134.587 1463.09,136.728L1462.84,136.728ZM1463.99,136.728C1464.04,134.756 1464.81,132.872 1466.31,131.356L1466.19,131.236C1467.75,129.671 1469.82,128.874 1471.87,128.874C1471.91,128.874 1471.96,128.874 1472,128.875L1472,129.347C1471.96,129.347 1471.91,129.346 1471.87,129.346C1469.94,129.346 1468,130.098 1466.52,131.572L1466.41,131.464C1465.02,132.89 1464.26,134.869 1464.22,136.728L1463.99,136.728ZM1465.15,136.728C1465.19,135.056 1465.85,133.457 1467.12,132.171L1467.02,132.071C1468.35,130.736 1470.11,130.058 1471.86,130.058C1471.91,130.058 1471.95,130.058 1472,130.059L1472,130.462C1471.95,130.461 1471.91,130.46 1471.86,130.46C1470.22,130.46 1468.56,131.101 1467.31,132.357L1467.21,132.266C1466.03,133.475 1465.38,135.15 1465.34,136.728L1465.15,136.728ZM1466.31,136.728C1466.35,135.355 1466.89,134.042 1467.93,132.986L1467.85,132.905C1468.95,131.802 1470.41,131.241 1471.85,131.241C1471.9,131.241 1471.95,131.242 1472,131.243L1472,131.576C1471.95,131.575 1471.9,131.574 1471.85,131.574C1470.49,131.574 1469.13,132.104 1468.09,133.141L1468.01,133.068C1467.05,134.061 1466.51,135.432 1466.46,136.728L1466.31,136.728ZM1467.46,136.728C1467.5,135.655 1467.93,134.627 1468.75,133.801L1468.68,133.739C1469.56,132.868 1470.7,132.425 1471.85,132.425C1471.9,132.425 1471.95,132.426 1472,132.428L1472,132.691C1471.95,132.689 1471.9,132.688 1471.85,132.688C1470.77,132.688 1469.69,133.106 1468.87,133.926L1468.81,133.87C1468.06,134.646 1467.63,135.713 1467.59,136.728L1467.46,136.728Z" style="fill:#733c52;"/>
            <path id="q21" serif:id="q2" d="M1487.05,136.728C1487.05,136.787 1487.05,136.846 1487.05,136.904C1487.05,140.777 1485.44,144.519 1482.49,147.474C1479.54,150.427 1475.87,151.939 1472,151.941L1472,151.32C1475.62,151.302 1479.28,149.791 1482.04,147.027C1484.82,144.246 1486.16,140.549 1486.16,136.904C1486.16,136.846 1486.16,136.787 1486.16,136.728L1487.05,136.728ZM1485.86,136.728C1485.86,136.786 1485.86,136.844 1485.86,136.902C1485.86,140.472 1484.38,143.921 1481.65,146.644C1478.93,149.362 1475.56,150.755 1472,150.761L1472,150.189C1475.33,150.168 1478.7,148.776 1481.24,146.232C1483.8,143.669 1485.04,140.261 1485.04,136.902C1485.04,136.844 1485.04,136.786 1485.04,136.728L1485.86,136.728ZM1484.66,136.728C1484.66,136.785 1484.66,136.843 1484.66,136.9C1484.66,140.166 1483.31,143.322 1480.82,145.814C1478.33,148.297 1475.25,149.572 1472,149.581L1472,149.057C1475.05,149.034 1478.12,147.761 1480.44,145.437C1482.79,143.092 1483.91,139.974 1483.91,136.9C1483.91,136.843 1483.91,136.785 1483.91,136.728L1484.66,136.728ZM1483.47,136.728C1483.47,136.785 1483.47,136.842 1483.47,136.898C1483.47,139.861 1482.24,142.723 1479.98,144.984C1477.73,147.232 1474.94,148.388 1472,148.4L1472,147.926C1474.76,147.9 1477.54,146.745 1479.64,144.642C1481.77,142.515 1482.79,139.686 1482.79,136.898C1482.79,136.842 1482.79,136.785 1482.79,136.728L1483.47,136.728ZM1482.28,136.728C1482.28,136.784 1482.28,136.84 1482.28,136.896C1482.28,139.556 1481.17,142.125 1479.14,144.154C1477.13,146.167 1474.63,147.204 1472,147.22L1472,146.794C1474.47,146.766 1476.95,145.73 1478.84,143.847C1480.75,141.938 1481.66,139.399 1481.66,136.896C1481.66,136.84 1481.66,136.784 1481.66,136.728L1482.28,136.728ZM1481.08,136.728C1481.08,136.784 1481.08,136.839 1481.08,136.895C1481.08,139.25 1480.1,141.526 1478.31,143.324C1476.53,145.101 1474.33,146.021 1472,146.04L1472,145.662C1474.18,145.632 1476.37,144.715 1478.04,143.052C1479.73,141.36 1480.54,139.111 1480.54,136.895C1480.54,136.839 1480.54,136.783 1480.54,136.728L1481.08,136.728ZM1479.89,136.728C1479.89,136.783 1479.89,136.838 1479.89,136.893C1479.89,138.945 1479.04,140.928 1477.47,142.493C1475.93,144.036 1474.02,144.837 1472,144.86L1472,144.531C1473.89,144.498 1475.79,143.7 1477.23,142.257C1478.71,140.783 1479.42,138.824 1479.42,136.893C1479.42,136.838 1479.42,136.783 1479.41,136.728L1479.89,136.728ZM1478.69,136.728C1478.69,136.782 1478.69,136.836 1478.69,136.891C1478.69,138.639 1477.97,140.329 1476.63,141.663C1475.33,142.971 1473.71,143.653 1472,143.68L1472,143.399C1473.6,143.364 1475.21,142.684 1476.43,141.462C1477.69,140.206 1478.29,138.536 1478.29,136.891C1478.29,136.836 1478.29,136.782 1478.29,136.728L1478.69,136.728ZM1477.5,136.728C1477.5,136.782 1477.5,136.835 1477.5,136.889C1477.5,138.334 1476.9,139.731 1475.8,140.833C1474.73,141.906 1473.4,142.469 1472,142.499L1472,142.267C1473.31,142.23 1474.63,141.669 1475.63,140.667C1476.67,139.629 1477.17,138.249 1477.17,136.889C1477.17,136.835 1477.17,136.782 1477.17,136.728L1477.5,136.728ZM1476.3,136.728C1476.31,136.781 1476.31,136.834 1476.31,136.887C1476.31,138.029 1475.83,139.132 1474.96,140.003C1474.12,140.841 1473.09,141.285 1472,141.318L1472,141.135C1473.02,141.095 1474.05,140.654 1474.83,139.872C1475.65,139.052 1476.04,137.961 1476.04,136.887C1476.04,136.834 1476.04,136.781 1476.04,136.728L1476.3,136.728Z" style="fill:#733c52;"/>
            <path id="q11" serif:id="q1" d="M1472,121.772C1475.85,121.792 1479.68,123.269 1482.62,126.204C1485.53,129.114 1487.01,132.914 1487.05,136.728L1486.16,136.728C1486.12,133.142 1484.73,129.57 1481.99,126.834C1479.23,124.074 1475.62,122.683 1472,122.664L1472,121.772ZM1472,122.956C1475.54,122.978 1479.07,124.339 1481.77,127.041C1484.45,129.719 1485.81,133.217 1485.86,136.728L1485.04,136.728C1484.99,133.427 1483.71,130.14 1481.19,127.621C1478.65,125.081 1475.33,123.799 1472,123.777L1472,122.956ZM1472,124.14C1475.23,124.164 1478.46,125.409 1480.93,127.877C1483.37,130.325 1484.62,133.52 1484.66,136.728L1483.91,136.728C1483.87,133.712 1482.7,130.71 1480.39,128.408C1478.07,126.088 1475.04,124.915 1472,124.891L1472,124.14ZM1472,125.324C1474.93,125.349 1477.85,126.479 1480.08,128.713C1482.3,130.93 1483.43,133.823 1483.47,136.728L1482.79,136.728C1482.75,133.997 1481.68,131.279 1479.6,129.195C1477.5,127.095 1474.75,126.031 1472,126.005L1472,125.324ZM1472,126.507C1474.62,126.535 1477.23,127.549 1479.23,129.55C1481.22,131.536 1482.23,134.125 1482.28,136.728L1481.66,136.728C1481.62,134.282 1480.67,131.849 1478.8,129.983C1476.92,128.102 1474.46,127.147 1472,127.119L1472,126.507ZM1472,127.691C1474.31,127.721 1476.62,128.62 1478.39,130.386C1480.14,132.141 1481.04,134.428 1481.08,136.728L1480.54,136.728C1480.5,134.567 1479.65,132.419 1478,130.77C1476.34,129.109 1474.17,128.263 1472,128.233L1472,127.691ZM1472,128.875C1474.01,128.907 1476.01,129.69 1477.54,131.223C1479.06,132.746 1479.85,134.731 1479.89,136.728L1479.41,136.728C1479.37,134.852 1478.64,132.988 1477.21,131.557C1475.77,130.116 1473.89,129.379 1472,129.347L1472,128.875ZM1472,130.059C1473.7,130.093 1475.39,130.76 1476.69,132.059C1477.99,133.352 1478.65,135.034 1478.69,136.728L1478.29,136.728C1478.25,135.137 1477.62,133.558 1476.41,132.344C1475.19,131.123 1473.6,130.495 1472,130.462L1472,130.059ZM1472,131.243C1473.39,131.279 1474.78,131.83 1475.85,132.895C1476.91,133.957 1477.46,135.337 1477.5,136.728L1477.17,136.728C1477.13,135.422 1476.61,134.128 1475.61,133.131C1474.61,132.13 1473.31,131.612 1472,131.576L1472,131.243ZM1472,132.428C1473.09,132.465 1474.17,132.9 1475,133.732C1475.83,134.563 1476.27,135.64 1476.3,136.728L1476.04,136.728C1476,135.707 1475.59,134.697 1474.81,133.918C1474.03,133.137 1473.02,132.728 1472,132.691L1472,132.428Z" style="fill:#733c52;"/>
        </g>
    </g>
    <g id="S-melisma" serif:id="S melisma">
        <path id="Sounder" d="M929.796,2302.91C904.543,2346.65 848.533,2361.66 804.796,2336.41C761.06,2311.16 746.054,2255.14 771.307,2211.41C796.56,2167.67 852.571,2152.66 896.307,2177.91C940.043,2203.16 955.049,2259.17 929.796,2302.91Z" style="fill:#fff;"/>
        <g id="Ring1" serif:id="Ring" opacity="0.5">
            <path d="M929.796,2302.91C904.543,2346.65 848.533,2361.66 804.796,2336.41C761.06,2311.16 746.054,2255.14 771.307,2211.41C796.56,2167.67 852.571,2152.66 896.307,2177.91C940.043,2203.16 955.049,2259.17 929.796,2302.91Z" style="fill:none;stroke:#000;stroke-width:1.93px;"/>
            <path d="M929.796,2302.91L924.73,2299.98" style="fill:none;stroke:#000;stroke-width:1.93px;"/>
            <path d="M776.373,2214.33L771.307,2211.41" style="fill:none;stroke:#000;stroke-width:1.93px;"/>
            <path d="M807.721,2331.34L804.796,2336.41" style="fill:none;stroke:#000;stroke-width:1.93px;"/>
            <path d="M896.307,2177.91L893.382,2182.97" style="fill:none;stroke:#000;stroke-width:1.93px;"/>
            <path d="M896.305,2336.4L893.38,2331.34" style="fill:none;stroke:#000;stroke-width:1.93px;"/>
            <path d="M807.723,2182.98L804.798,2177.91" style="fill:none;stroke:#000;stroke-width:1.93px;"/>
            <path d="M776.367,2299.99L771.301,2302.91" style="fill:none;stroke:#000;stroke-width:1.93px;"/>
            <path d="M929.802,2211.4L924.736,2214.33" style="fill:none;stroke:#000;stroke-width:1.93px;"/>
            <path d="M850.552,2348.66L850.552,2342.82" style="fill:none;stroke:#000;stroke-width:1.93px;"/>
            <path d="M850.552,2171.5L850.552,2165.65" style="fill:none;stroke:#000;stroke-width:1.93px;"/>
            <path d="M764.895,2257.16L759.045,2257.16" style="fill:none;stroke:#000;stroke-width:1.93px;"/>
            <path d="M942.059,2257.16L936.209,2257.16" style="fill:none;stroke:#000;stroke-width:1.93px;"/>
        </g>
        <g id="Root-Markers1" serif:id="Root Markers">
        </g>
        <g id="Notes1" serif:id="Notes">
            <path id="_10" serif:id="10" d="M785.459,2220.31C781.216,2227.66 771.806,2230.18 764.458,2225.94C757.11,2221.7 754.588,2212.29 758.831,2204.94C763.073,2197.59 772.483,2195.07 779.832,2199.31C787.18,2203.55 789.701,2212.96 785.459,2220.31Z" style="fill:#df4c44;stroke:#fff;stroke-width:4.63px;"/>
            <path id="_9" serif:id="9" d="M772.359,2266.65C768.116,2273.99 758.706,2276.52 751.358,2272.27C744.01,2268.03 741.488,2258.62 745.731,2251.27C749.973,2243.93 759.383,2241.4 766.732,2245.65C774.08,2249.89 776.601,2259.3 772.359,2266.65Z" style="fill:#df4c44;stroke:#fff;stroke-width:4.63px;"/>
            <path id="_71" serif:id="7" d="M818.93,2343.85C814.687,2351.2 805.277,2353.72 797.929,2349.47C790.58,2345.23 788.059,2335.82 792.302,2328.47C796.544,2321.13 805.954,2318.61 813.303,2322.85C820.651,2327.09 823.172,2336.5 818.93,2343.85Z" style="fill:#df4c44;stroke:#fff;stroke-width:4.63px;"/>
            <path id="_42" serif:id="4" d="M942.495,2311.09C938.253,2318.44 928.843,2320.96 921.494,2316.72C914.146,2312.47 911.625,2303.06 915.867,2295.72C920.11,2288.37 929.52,2285.85 936.868,2290.09C944.216,2294.33 946.738,2303.74 942.495,2311.09Z" style="fill:#df4c44;stroke:#fff;stroke-width:4.63px;"/>
            <path id="_23" serif:id="2" d="M942.492,2220.31C938.25,2227.66 928.84,2230.18 921.491,2225.94C914.143,2221.7 911.622,2212.29 915.864,2204.94C920.107,2197.59 929.517,2195.07 936.865,2199.31C944.213,2203.56 946.735,2212.97 942.492,2220.31Z" style="fill:#df4c44;stroke:#fff;stroke-width:4.63px;"/>
            <path id="_01" serif:id="0" d="M863.866,2174.34C859.623,2181.68 850.213,2184.2 842.865,2179.96C835.517,2175.72 832.995,2166.31 837.238,2158.96C841.48,2151.61 850.89,2149.09 858.239,2153.33C865.587,2157.58 868.108,2166.99 863.866,2174.34Z" style="fill:#df4c44;stroke:#fff;stroke-width:4.63px;"/>
        </g>
        <g id="Treble-Marker1" serif:id="Treble Marker">
        </g>
    </g>
</svg>
