<?xml version="1.0" encoding="UTF-8" standalone="no"?>
<!DOCTYPE svg PUBLIC "-//W3C//DTD SVG 1.1//EN" "http://www.w3.org/Graphics/SVG/1.1/DTD/svg11.dtd">
<svg width="100%" height="100%" viewBox="0 0 1700 2481" version="1.1" xmlns="http://www.w3.org/2000/svg" xmlns:xlink="http://www.w3.org/1999/xlink" xml:space="preserve" xmlns:serif="http://www.serif.com/" style="fill-rule:evenodd;clip-rule:evenodd;stroke-linecap:round;stroke-linejoin:round;stroke-miterlimit:1.5;">
    <rect id="Z2W2" x="0" y="0.734" width="1700" height="2480" style="fill:none;"/>
    <g id="Fields" opacity="0.2">
        <path id="_11" serif:id="11" d="M496.488,895.32L10.379,417.109L10.379,10.734L517.393,10.638L722.022,763.375C635.493,787.233 560.817,829.571 496.488,895.32Z" style="fill:#db9d84;stroke:#767676;stroke-width:8.33px;"/>
    </g>
    <g id="S">
        <g id="Ring">
            <path id="Backer" d="M1261.43,1477.73C1130.55,1704.43 840.239,1782.23 613.55,1651.36C386.862,1520.48 309.085,1230.17 439.973,1003.47C570.862,776.771 861.169,698.973 1087.86,829.849C1314.55,960.725 1392.32,1251.03 1261.43,1477.73Z" style="fill:#fff;"/>
            <path d="M1261.43,1477.73C1130.55,1704.43 840.239,1782.23 613.55,1651.36C386.862,1520.48 309.085,1230.17 439.973,1003.47C570.862,776.771 861.169,698.973 1087.86,829.849C1314.55,960.725 1392.32,1251.03 1261.43,1477.73Z" style="fill:none;stroke:#000;stroke-width:8.33px;"/>
            <path d="M1261.43,1477.73L1235.18,1462.57" style="fill:none;stroke:#000;stroke-width:8.33px;"/>
            <path d="M466.231,1018.63L439.973,1003.47" style="fill:none;stroke:#000;stroke-width:8.33px;"/>
            <path d="M628.71,1625.1L613.55,1651.36" style="fill:none;stroke:#000;stroke-width:8.33px;"/>
            <path d="M1087.86,829.849L1072.7,856.106" style="fill:none;stroke:#000;stroke-width:8.33px;"/>
            <path d="M1087.85,1651.34L1072.69,1625.08" style="fill:none;stroke:#000;stroke-width:8.33px;"/>
            <path d="M628.72,856.123L613.56,829.866" style="fill:none;stroke:#000;stroke-width:8.33px;"/>
            <path d="M466.201,1462.59L439.944,1477.75" style="fill:none;stroke:#000;stroke-width:8.33px;"/>
            <path d="M1261.46,1003.45L1235.21,1018.61" style="fill:none;stroke:#000;stroke-width:8.33px;"/>
            <path d="M850.704,1714.9L850.704,1684.58" style="fill:none;stroke:#000;stroke-width:8.33px;"/>
            <path d="M850.704,796.626L850.704,766.307" style="fill:none;stroke:#000;stroke-width:8.33px;"/>
            <path d="M406.736,1240.6L376.417,1240.6" style="fill:none;stroke:#000;stroke-width:8.33px;"/>
            <path d="M1324.99,1240.6L1294.67,1240.6" style="fill:none;stroke:#000;stroke-width:8.33px;"/>
        </g>
        <g id="Root-Markers" serif:id="Root Markers">
            <path id="_111" serif:id="11" d="M666.957,921.14L748.809,990.314L685.936,1026.61L666.957,921.14ZM695.244,970.135L699.968,996.386L715.615,987.351L695.244,970.135Z" style="fill:#f5cd6c;"/>
        </g>
        <g id="Notes">
            <path id="_112" serif:id="11" d="M682.187,874.136C660.198,912.221 611.424,925.29 573.337,903.301C535.251,881.312 522.182,832.539 544.171,794.454C566.16,756.368 614.934,743.299 653.021,765.288C691.107,787.277 704.176,836.05 682.187,874.136Z" style="fill:#f5cd6c;stroke:#fff;stroke-width:24px;"/>
            <path id="_9" serif:id="9" d="M445.425,1289.79C423.436,1327.88 374.662,1340.95 336.575,1318.96C298.489,1296.97 285.42,1248.2 307.409,1210.11C329.398,1172.03 378.172,1158.96 416.259,1180.94C454.345,1202.93 467.414,1251.71 445.425,1289.79Z" style="fill:#f5cd6c;stroke:#fff;stroke-width:24px;"/>
            <path id="_7" serif:id="7" d="M686.805,1689.93C664.815,1728.02 616.042,1741.08 577.955,1719.1C539.868,1697.11 526.799,1648.33 548.789,1610.25C570.778,1572.16 619.552,1559.09 657.639,1581.08C695.725,1603.07 708.794,1651.84 686.805,1689.93Z" style="fill:#f5cd6c;stroke:#fff;stroke-width:24px;"/>
        </g>
        <g id="Treble-Marker" serif:id="Treble Marker">
            <g id="_6" serif:id="6">
                <path id="_61" serif:id="6" d="M919.712,1757.08C897.722,1795.16 848.949,1808.23 810.862,1786.24C772.775,1764.25 759.707,1715.48 781.696,1677.39C803.685,1639.31 852.459,1626.24 890.546,1648.23C928.632,1670.22 941.701,1718.99 919.712,1757.08Z" style="fill:#fff;stroke:#fff;stroke-width:33.33px;"/>
                <circle id="_6a" serif:id="6a" cx="850" cy="1717.24" r="64" style="fill:#fff;stroke:#f5cd6c;stroke-width:16.67px;"/>
            </g>
        </g>
    </g>
    <g id="Songs">
        <g id="song-4-petals" serif:id="song 4 petals">
            <g id="Z2W21" serif:id="Z2W2">
                <path d="M260.046,320.728C240.649,320.833 221.237,313.357 206.66,298.366L180.903,271.88C167.536,258.134 160.598,240.502 160.037,222.721L260.705,222.902L260.046,320.728Z" style="fill:#f5cd6c;stroke:#fff;stroke-width:1.67px;"/>
                <path d="M160.037,222.721C159.405,202.684 166.871,182.458 182.362,167.394L208.849,141.637C223.467,127.421 242.481,120.477 261.394,120.741L260.705,222.902L160.037,222.721Z" style="fill:#f5cd6c;stroke:#fff;stroke-width:1.67px;"/>
                <path d="M161,222.902L260,223.081" style="fill:none;stroke:#f5cd6c;stroke-width:4.17px;stroke-linecap:butt;"/>
                <g id="q4">
                    <path d="M216.575,243.582C226.428,240.942 239.986,233.924 238.626,228.847C237.265,223.77 222.015,224.471 212.162,227.111C191.573,232.628 173.174,246.385 173.174,246.385L173.175,246.384L173.174,246.385C173.174,246.385 195.986,249.099 216.575,243.582Z" style="fill:#e7e7e7;fill-rule:nonzero;"/>
                    <path d="M232.653,262.603C239.866,255.39 248.098,242.533 244.382,238.817C240.666,235.101 227.808,243.332 220.596,250.545C205.523,265.618 196.469,286.73 196.469,286.73L196.468,286.73L196.469,286.73C196.469,286.73 217.581,277.675 232.653,262.603Z" style="fill:#e7e7e7;fill-rule:nonzero;"/>
                    <path d="M254.352,244.573L254.351,244.573C249.275,243.213 242.257,256.77 239.617,266.623C234.1,287.213 236.814,310.024 236.814,310.024L236.815,310.024C236.815,310.024 250.571,291.626 256.087,271.036C258.728,261.183 259.428,245.933 254.352,244.573Z" style="fill:#e7e7e7;fill-rule:nonzero;"/>
                </g>
                <g id="q1">
                    <path d="M236.814,136.158C236.814,136.158 234.1,158.969 239.617,179.558C242.257,189.412 249.275,202.968 254.352,201.609L254.352,201.609C259.428,200.248 258.728,184.998 256.088,175.145C250.571,154.555 236.815,136.157 236.815,136.157L236.814,136.158Z" style="fill:#e7e7e7;fill-rule:nonzero;"/>
                    <path d="M220.595,195.636C227.809,202.849 240.665,211.081 244.382,207.365L244.382,207.364C248.098,203.648 239.866,190.792 232.653,183.578C217.581,168.506 196.469,159.451 196.469,159.451L196.468,159.451C196.468,159.451 205.523,180.564 220.595,195.636Z" style="fill:#e7e7e7;fill-rule:nonzero;"/>
                    <path d="M212.162,219.07C222.015,221.71 237.265,222.411 238.626,217.335C239.986,212.258 226.429,205.239 216.575,202.6C195.986,197.082 173.175,199.797 173.175,199.797C173.175,199.797 191.573,213.553 212.162,219.07Z" style="fill:#e7e7e7;fill-rule:nonzero;"/>
                </g>
            </g>
            <g id="W">
                <path d="M260.767,120.747C279.68,121.011 298.493,128.484 312.708,143.102L338.465,169.588C352.92,184.452 359.857,203.861 359.342,223.087L260.078,222.908L260.767,120.747Z" style="fill:#f5cd6c;stroke:#fff;stroke-width:1.67px;"/>
                <path d="M359.342,223.087C358.844,241.678 351.379,260.098 337.006,274.075L310.52,299.832C296.274,313.685 277.853,320.633 259.419,320.734L260.078,222.908L359.342,223.087Z" style="fill:#f5cd6c;stroke:#fff;stroke-width:1.67px;"/>
                <path d="M260.873,223.087L358.473,223.087" style="fill:none;stroke:#f5cd6c;stroke-width:4.17px;stroke-linecap:butt;"/>
                <g id="q3">
                    <path d="M265.865,244.573L265.864,244.573C260.788,245.933 261.488,261.183 264.128,271.036C269.645,291.626 283.401,310.024 283.401,310.024L283.401,310.024L283.402,310.024C283.402,310.024 286.116,287.212 280.599,266.623C277.959,256.77 270.94,243.213 265.865,244.573Z" style="fill:#e7e7e7;fill-rule:nonzero;"/>
                    <path d="M299.62,250.545C292.407,243.332 279.55,235.1 275.834,238.816L275.834,238.817C272.118,242.533 280.35,255.39 287.563,262.603C302.635,277.675 323.747,286.73 323.747,286.73L323.748,286.73C323.748,286.73 314.693,265.618 299.62,250.545Z" style="fill:#e7e7e7;fill-rule:nonzero;"/>
                    <path d="M308.054,227.111C298.2,224.471 282.951,223.771 281.59,228.847C280.23,233.923 293.787,240.942 303.641,243.582C324.23,249.099 347.041,246.385 347.041,246.385L347.041,246.384L347.041,246.385C347.041,246.385 328.643,232.628 308.054,227.111Z" style="fill:#e7e7e7;fill-rule:nonzero;"/>
                </g>
                <g id="q2">
                    <path d="M347.041,199.797C347.041,199.797 324.23,197.082 303.641,202.599C293.788,205.239 280.23,212.258 281.59,217.335C282.951,222.411 298.201,221.71 308.054,219.07C328.643,213.553 347.041,199.797 347.041,199.797Z" style="fill:#e7e7e7;fill-rule:nonzero;"/>
                    <path d="M287.563,183.579C280.35,190.791 272.118,203.648 275.834,207.365C279.551,211.081 292.407,202.849 299.62,195.636C314.693,180.564 323.748,159.451 323.748,159.451C323.748,159.451 302.635,168.506 287.563,183.579Z" style="fill:#e7e7e7;fill-rule:nonzero;"/>
                    <path d="M265.864,201.609L265.864,201.608C270.941,202.968 277.959,189.411 280.599,179.558C286.116,158.969 283.402,136.157 283.402,136.157L283.401,136.157C283.401,136.157 269.645,154.555 264.128,175.145C261.488,184.998 260.787,200.248 265.864,201.609Z" style="fill:#e7e7e7;fill-rule:nonzero;"/>
                </g>
            </g>
        </g>
    </g>
    <g id="Map">
        <g id="Frame">
            <rect x="1471.5" y="42.275" width="190" height="190" style="fill:#fff;"/>
            <rect x="1471.5" y="42.275" width="190" height="190" style="fill:none;stroke:#000;stroke-width:1.17px;stroke-linejoin:bevel;"/>
            <rect x="1523.38" y="94.15" width="86.25" height="86.25" style="fill:none;stroke:#000;stroke-width:1.25px;stroke-linejoin:bevel;"/>
            <path d="M1609.62,94.15L1661.5,42.484" style="fill:none;stroke:#000;stroke-width:1.25px;stroke-linejoin:bevel;"/>
            <path d="M1523.38,94.15L1471.92,42.484" style="fill:none;stroke:#000;stroke-width:1.25px;stroke-linejoin:bevel;"/>
            <path d="M1523.38,180.4L1471.5,232.275" style="fill:none;stroke:#000;stroke-width:1.25px;stroke-linejoin:bevel;"/>
            <path d="M1609.62,180.4L1661.5,232.275" style="fill:none;stroke:#000;stroke-width:1.25px;stroke-linejoin:bevel;"/>
        </g>
        <g id="Dots">
            <circle cx="1471.5" cy="232.234" r="1.5" style="stroke:#000;stroke-width:1.25px;stroke-linejoin:bevel;"/>
            <circle cx="1566.2" cy="232.359" r="1.5" style="stroke:#000;stroke-width:1.25px;stroke-linejoin:bevel;"/>
            <circle cx="1661.5" cy="232.234" r="1.5" style="stroke:#000;stroke-width:1.25px;stroke-linejoin:bevel;"/>
            <circle cx="1633.85" cy="204.4" r="1.5" style="stroke:#000;stroke-width:1.25px;stroke-linejoin:bevel;"/>
            <circle cx="1609.62" cy="180.234" r="1.5" style="stroke:#000;stroke-width:1.25px;stroke-linejoin:bevel;"/>
            <circle cx="1609.2" cy="137.359" r="1.5" style="stroke:#000;stroke-width:1.25px;stroke-linejoin:bevel;"/>
            <circle cx="1609.32" cy="94.109" r="1.5" style="stroke:#000;stroke-width:1.25px;stroke-linejoin:bevel;"/>
            <circle cx="1633.76" cy="69.9" r="1.5" style="stroke:#000;stroke-width:1.25px;stroke-linejoin:bevel;"/>
            <circle cx="1566.2" cy="94.109" r="1.5" style="stroke:#000;stroke-width:1.25px;stroke-linejoin:bevel;"/>
            <circle cx="1523.07" cy="94.234" r="1.5" style="stroke:#000;stroke-width:1.25px;stroke-linejoin:bevel;"/>
            <circle cx="1566.5" cy="42.234" r="1.5" style="stroke:#000;stroke-width:1.25px;stroke-linejoin:bevel;"/>
            <circle cx="1471.5" cy="42.275" r="1.5" style="stroke:#000;stroke-width:1.25px;stroke-linejoin:bevel;"/>
            <circle cx="1499.35" cy="70.234" r="1.5" style="stroke:#000;stroke-width:1.25px;stroke-linejoin:bevel;"/>
            <circle cx="1471.5" cy="137.275" r="1.5" style="stroke:#000;stroke-width:1.25px;stroke-linejoin:bevel;"/>
            <circle cx="1523.38" cy="137.275" r="1.5" style="stroke:#000;stroke-width:1.25px;stroke-linejoin:bevel;"/>
            <circle cx="1566" cy="180.4" r="1.5" style="stroke:#000;stroke-width:1.25px;stroke-linejoin:bevel;"/>
            <circle cx="1523.35" cy="180.234" r="1.5" style="stroke:#000;stroke-width:1.25px;stroke-linejoin:bevel;"/>
            <circle cx="1499.15" cy="204.734" r="1.5" style="stroke:#000;stroke-width:1.25px;stroke-linejoin:bevel;"/>
            <circle cx="1661.5" cy="137.275" r="1.5" style="stroke:#000;stroke-width:1.25px;stroke-linejoin:bevel;"/>
            <circle cx="1661.49" cy="42.383" r="1.5" style="stroke:#000;stroke-width:1.25px;stroke-linejoin:bevel;"/>
        </g>
        <g>
            <path d="M1661.5,137.859L1661.5,232.234" style="fill:none;stroke:#f5cd6c;stroke-width:5.99px;"/>
        </g>
        <circle cx="1661.5" cy="232.275" r="6.364" style="fill:#fff;stroke:#f5cd6c;stroke-width:5.99px;"/>
        <g id="_4" serif:id="4">
            <circle cx="1661.5" cy="136.734" r="15.75" style="fill:#fff;stroke:#fff;stroke-width:1.46px;"/>
            <g id="_41" serif:id="4">
                <g id="q41" serif:id="q4">
                    <path d="M1655.38,140.393C1656.88,139.992 1658.94,138.924 1658.73,138.151C1658.52,137.379 1656.2,137.485 1654.7,137.887C1651.57,138.727 1648.77,140.82 1648.77,140.82L1648.77,140.82L1648.77,140.82C1648.77,140.82 1652.24,141.233 1655.38,140.393Z" style="fill:#733c52;fill-rule:nonzero;"/>
                    <path d="M1657.82,143.288C1658.92,142.19 1660.17,140.234 1659.61,139.668C1659.04,139.103 1657.09,140.355 1655.99,141.453C1653.69,143.746 1652.32,146.959 1652.32,146.959L1652.32,146.959L1652.32,146.959C1652.32,146.959 1655.53,145.581 1657.82,143.288Z" style="fill:#733c52;fill-rule:nonzero;"/>
                    <path d="M1661.12,140.544L1661.12,140.544C1660.35,140.337 1659.28,142.4 1658.88,143.899C1658.04,147.032 1658.46,150.503 1658.46,150.503L1658.46,150.503C1658.46,150.503 1660.55,147.704 1661.39,144.571C1661.79,143.072 1661.9,140.751 1661.12,140.544Z" style="fill:#733c52;fill-rule:nonzero;"/>
                </g>
                <g id="q11" serif:id="q1">
                    <path d="M1658.46,124.048C1658.46,124.048 1658.04,127.519 1658.88,130.651C1659.28,132.151 1660.35,134.214 1661.12,134.007L1661.12,134.007C1661.9,133.8 1661.79,131.479 1661.39,129.98C1660.55,126.847 1658.46,124.048 1658.46,124.048L1658.46,124.048Z" style="fill:#733c52;fill-rule:nonzero;"/>
                    <path d="M1655.99,133.098C1657.09,134.195 1659.04,135.448 1659.61,134.883L1659.61,134.883C1660.17,134.317 1658.92,132.361 1657.82,131.263C1655.53,128.97 1652.32,127.592 1652.32,127.592L1652.32,127.592C1652.32,127.592 1653.69,130.805 1655.99,133.098Z" style="fill:#733c52;fill-rule:nonzero;"/>
                    <path d="M1654.7,136.664C1656.2,137.065 1658.52,137.172 1658.73,136.4C1658.94,135.627 1656.88,134.559 1655.38,134.158C1652.24,133.318 1648.77,133.731 1648.77,133.731C1648.77,133.731 1651.57,135.824 1654.7,136.664Z" style="fill:#733c52;fill-rule:nonzero;"/>
                </g>
                <g id="q31" serif:id="q3">
                    <path d="M1662.88,140.544L1662.88,140.544C1662.1,140.751 1662.21,143.072 1662.61,144.571C1663.45,147.704 1665.54,150.503 1665.54,150.503L1665.54,150.503L1665.54,150.503C1665.54,150.503 1665.96,147.032 1665.12,143.899C1664.72,142.4 1663.65,140.337 1662.88,140.544Z" style="fill:#733c52;fill-rule:nonzero;"/>
                    <path d="M1668.01,141.453C1666.91,140.355 1664.96,139.103 1664.39,139.668L1664.39,139.668C1663.83,140.234 1665.08,142.19 1666.18,143.288C1668.47,145.581 1671.68,146.959 1671.68,146.959L1671.68,146.959C1671.68,146.959 1670.31,143.746 1668.01,141.453Z" style="fill:#733c52;fill-rule:nonzero;"/>
                    <path d="M1669.3,137.887C1667.8,137.485 1665.48,137.379 1665.27,138.151C1665.06,138.924 1667.12,139.992 1668.62,140.393C1671.76,141.233 1675.23,140.82 1675.23,140.82L1675.23,140.82L1675.23,140.82C1675.23,140.82 1672.43,138.727 1669.3,137.887Z" style="fill:#733c52;fill-rule:nonzero;"/>
                </g>
                <g id="q21" serif:id="q2">
                    <path d="M1675.23,133.731C1675.23,133.731 1671.76,133.318 1668.62,134.157C1667.12,134.559 1665.06,135.627 1665.27,136.4C1665.48,137.172 1667.8,137.065 1669.3,136.664C1672.43,135.824 1675.23,133.731 1675.23,133.731Z" style="fill:#733c52;fill-rule:nonzero;"/>
                    <path d="M1666.18,131.263C1665.08,132.361 1663.83,134.317 1664.39,134.883C1664.96,135.448 1666.91,134.195 1668.01,133.098C1670.31,130.805 1671.68,127.592 1671.68,127.592C1671.68,127.592 1668.47,128.97 1666.18,131.263Z" style="fill:#733c52;fill-rule:nonzero;"/>
                    <path d="M1662.88,134.007L1662.88,134.007C1663.65,134.214 1664.72,132.151 1665.12,130.651C1665.96,127.519 1665.54,124.048 1665.54,124.048L1665.54,124.048C1665.54,124.048 1663.45,126.847 1662.61,129.98C1662.21,131.479 1662.1,133.8 1662.88,134.007Z" style="fill:#733c52;fill-rule:nonzero;"/>
                </g>
            </g>
        </g>
    </g>
    <g id="S-melisma" serif:id="S melisma">
        <path id="Sounder" d="M929.245,2303.28C903.992,2347.02 847.981,2362.03 804.245,2336.78C760.508,2311.53 745.502,2255.52 770.755,2211.78C796.008,2168.04 852.019,2153.03 895.755,2178.28C939.492,2203.53 954.498,2259.55 929.245,2303.28Z" style="fill:#fff;"/>
        <g id="Ring1" serif:id="Ring" opacity="0.5">
            <path d="M929.245,2303.28C903.992,2347.02 847.981,2362.03 804.245,2336.78C760.508,2311.53 745.502,2255.52 770.755,2211.78C796.008,2168.04 852.019,2153.03 895.755,2178.28C939.492,2203.53 954.498,2259.55 929.245,2303.28Z" style="fill:none;stroke:#000;stroke-width:1.93px;"/>
            <path d="M929.245,2303.28L924.179,2300.36" style="fill:none;stroke:#000;stroke-width:1.93px;"/>
            <path d="M775.821,2214.71L770.755,2211.78" style="fill:none;stroke:#000;stroke-width:1.93px;"/>
            <path d="M807.169,2331.72L804.245,2336.78" style="fill:none;stroke:#000;stroke-width:1.93px;"/>
            <path d="M895.755,2178.28L892.831,2183.35" style="fill:none;stroke:#000;stroke-width:1.93px;"/>
            <path d="M895.753,2336.78L892.829,2331.71" style="fill:none;stroke:#000;stroke-width:1.93px;"/>
            <path d="M807.171,2183.35L804.247,2178.29" style="fill:none;stroke:#000;stroke-width:1.93px;"/>
            <path d="M775.816,2300.36L770.75,2303.29" style="fill:none;stroke:#000;stroke-width:1.93px;"/>
            <path d="M929.25,2211.78L924.184,2214.7" style="fill:none;stroke:#000;stroke-width:1.93px;"/>
            <path d="M850,2349.04L850,2343.19" style="fill:none;stroke:#000;stroke-width:1.93px;"/>
            <path d="M850,2171.88L850,2166.03" style="fill:none;stroke:#000;stroke-width:1.93px;"/>
            <path d="M764.343,2257.53L758.493,2257.53" style="fill:none;stroke:#000;stroke-width:1.93px;"/>
            <path d="M941.507,2257.53L935.657,2257.53" style="fill:none;stroke:#000;stroke-width:1.93px;"/>
        </g>
        <g id="Root-Markers1" serif:id="Root Markers">
        </g>
        <g id="Notes1" serif:id="Notes">
            <path id="_113" serif:id="11" d="M817.487,2186.83C813.245,2194.18 803.834,2196.7 796.486,2192.46C789.138,2188.21 786.616,2178.8 790.859,2171.46C795.101,2164.11 804.512,2161.59 811.86,2165.83C819.208,2170.07 821.73,2179.48 817.487,2186.83Z" style="fill:#f5cd6c;stroke:#fff;stroke-width:4.63px;"/>
            <path id="_10" serif:id="10" d="M784.907,2220.69C780.665,2228.04 771.254,2230.56 763.906,2226.32C756.558,2222.07 754.036,2212.66 758.279,2205.32C762.521,2197.97 771.932,2195.45 779.28,2199.69C786.628,2203.93 789.15,2213.34 784.907,2220.69Z" style="fill:#f5cd6c;stroke:#fff;stroke-width:4.63px;"/>
            <path id="_91" serif:id="9" d="M771.807,2267.02C767.565,2274.37 758.154,2276.89 750.806,2272.65C743.458,2268.41 740.936,2259 745.179,2251.65C749.421,2244.3 758.832,2241.78 766.18,2246.02C773.528,2250.27 776.05,2259.68 771.807,2267.02Z" style="fill:#f5cd6c;stroke:#fff;stroke-width:4.63px;"/>
            <path id="_71" serif:id="7" d="M818.378,2344.22C814.135,2351.57 804.725,2354.09 797.377,2349.85C790.029,2345.61 787.507,2336.2 791.75,2328.85C795.992,2321.5 805.403,2318.98 812.751,2323.22C820.099,2327.47 822.621,2336.88 818.378,2344.22Z" style="fill:#f5cd6c;stroke:#fff;stroke-width:4.63px;"/>
            <path id="_62" serif:id="6" d="M863.314,2357.18C859.072,2364.53 849.661,2367.05 842.313,2362.81C834.965,2358.56 832.443,2349.15 836.686,2341.81C840.928,2334.46 850.339,2331.94 857.687,2336.18C865.035,2340.42 867.557,2349.83 863.314,2357.18Z" style="fill:#f5cd6c;stroke:#fff;stroke-width:4.63px;"/>
            <path id="_2" serif:id="2" d="M941.941,2220.69C937.698,2228.04 928.288,2230.56 920.94,2226.32C913.591,2222.08 911.07,2212.67 915.312,2205.32C919.555,2197.97 928.965,2195.45 936.313,2199.69C943.662,2203.93 946.183,2213.34 941.941,2220.69Z" style="fill:#f5cd6c;stroke:#fff;stroke-width:4.63px;"/>
            <path id="_1" serif:id="1" d="M908.447,2187.93C904.204,2195.28 894.794,2197.8 887.446,2193.56C880.097,2189.32 877.576,2179.91 881.818,2172.56C886.061,2165.21 895.471,2162.69 902.819,2166.93C910.168,2171.17 912.689,2180.58 908.447,2187.93Z" style="fill:#f5cd6c;stroke:#fff;stroke-width:4.63px;"/>
        </g>
        <g id="Treble-Marker1" serif:id="Treble Marker">
        </g>
    </g>
</svg>
