<?xml version="1.0" encoding="UTF-8" standalone="no"?>
<!DOCTYPE svg PUBLIC "-//W3C//DTD SVG 1.1//EN" "http://www.w3.org/Graphics/SVG/1.1/DTD/svg11.dtd">
<svg width="100%" height="100%" viewBox="0 0 1700 2481" version="1.1" xmlns="http://www.w3.org/2000/svg" xmlns:xlink="http://www.w3.org/1999/xlink" xml:space="preserve" xmlns:serif="http://www.serif.com/" style="fill-rule:evenodd;clip-rule:evenodd;stroke-linecap:round;stroke-linejoin:round;stroke-miterlimit:1.5;">
    <rect id="Zrefocus" x="0" y="0.734" width="1700" height="2480" style="fill:none;"/>
    <g id="S">
        <g id="Ring">
            <path id="Backer" d="M1261.43,1477.73C1130.55,1704.43 840.239,1782.23 613.55,1651.36C386.862,1520.48 309.085,1230.17 439.973,1003.47C570.862,776.771 861.169,698.973 1087.86,829.849C1314.55,960.725 1392.32,1251.03 1261.43,1477.73Z" style="fill:#fff;"/>
            <path d="M1261.43,1477.73C1130.55,1704.43 840.239,1782.23 613.55,1651.36C386.862,1520.48 309.085,1230.17 439.973,1003.47C570.862,776.771 861.169,698.973 1087.86,829.849C1314.55,960.725 1392.32,1251.03 1261.43,1477.73Z" style="fill:none;stroke:#000;stroke-width:8.33px;"/>
            <path d="M1261.43,1477.73L1235.18,1462.57" style="fill:none;stroke:#000;stroke-width:8.33px;"/>
            <path d="M466.231,1018.63L439.973,1003.47" style="fill:none;stroke:#000;stroke-width:8.33px;"/>
            <path d="M628.71,1625.1L613.55,1651.36" style="fill:none;stroke:#000;stroke-width:8.33px;"/>
            <path d="M1087.86,829.849L1072.7,856.106" style="fill:none;stroke:#000;stroke-width:8.33px;"/>
            <path d="M1087.85,1651.34L1072.69,1625.08" style="fill:none;stroke:#000;stroke-width:8.33px;"/>
            <path d="M628.72,856.123L613.56,829.866" style="fill:none;stroke:#000;stroke-width:8.33px;"/>
            <path d="M466.201,1462.59L439.944,1477.75" style="fill:none;stroke:#000;stroke-width:8.33px;"/>
            <path d="M1261.46,1003.45L1235.21,1018.61" style="fill:none;stroke:#000;stroke-width:8.33px;"/>
            <path d="M850.704,1714.9L850.704,1684.58" style="fill:none;stroke:#000;stroke-width:8.33px;"/>
            <path d="M850.704,796.626L850.704,766.307" style="fill:none;stroke:#000;stroke-width:8.33px;"/>
            <path d="M406.736,1240.6L376.417,1240.6" style="fill:none;stroke:#000;stroke-width:8.33px;"/>
            <path d="M1324.99,1240.6L1294.67,1240.6" style="fill:none;stroke:#000;stroke-width:8.33px;"/>
        </g>
        <g id="Root-Markers" serif:id="Root Markers">
            <path id="_4" serif:id="4" d="M1170.46,1411.29L1064.99,1392.31L1101.29,1329.44L1170.46,1411.29ZM1121.47,1383L1104.25,1362.63L1095.22,1378.28L1121.47,1383Z" style="fill:#c05c9b;"/>
        </g>
        <g id="Notes">
            <path id="_11" serif:id="11" d="M682.187,874.136C660.198,912.221 611.424,925.29 573.337,903.301C535.251,881.312 522.182,832.539 544.171,794.454C566.16,756.368 614.934,743.299 653.021,765.288C691.107,787.277 704.176,836.05 682.187,874.136Z" style="fill:#c05c9b;stroke:#fff;stroke-width:24px;"/>
            <path id="_41" serif:id="4" d="M1327.25,1520.14C1305.27,1558.22 1256.49,1571.29 1218.4,1549.3C1180.32,1527.32 1167.25,1478.54 1189.24,1440.46C1211.23,1402.37 1260,1389.3 1298.09,1411.29C1336.17,1433.28 1349.24,1482.05 1327.25,1520.14Z" style="fill:#c05c9b;stroke:#fff;stroke-width:24px;"/>
            <path id="_1" serif:id="1" d="M1153.64,879.843C1131.65,917.929 1082.87,930.997 1044.79,909.008C1006.7,887.02 993.632,838.247 1015.62,800.161C1037.61,762.075 1086.38,749.007 1124.47,770.995C1162.56,792.984 1175.63,841.757 1153.64,879.843Z" style="fill:#c05c9b;stroke:#fff;stroke-width:24px;"/>
        </g>
        <g id="Treble-Marker" serif:id="Treble Marker">
            <g id="_7" serif:id="7">
                <path id="_7u" serif:id="7u" d="M686.805,1689.93C664.815,1728.02 616.042,1741.08 577.955,1719.1C539.868,1697.11 526.799,1648.33 548.789,1610.25C570.778,1572.16 619.552,1559.09 657.639,1581.08C695.725,1603.07 708.794,1651.84 686.805,1689.93Z" style="fill:#fff;stroke:#fff;stroke-width:33.33px;"/>
                <circle id="_7a" serif:id="7a" cx="617.797" cy="1650.09" r="64" style="fill:#fff;stroke:#c05c9b;stroke-width:16.67px;"/>
            </g>
        </g>
    </g>
    <g id="Map">
        <g id="Frame">
            <rect x="1471.5" y="42.275" width="190" height="190" style="fill:#fff;"/>
            <rect x="1471.5" y="42.275" width="190" height="190" style="fill:none;stroke:#000;stroke-width:1.17px;stroke-linejoin:bevel;"/>
            <rect x="1523.38" y="94.15" width="86.25" height="86.25" style="fill:none;stroke:#000;stroke-width:1.25px;stroke-linejoin:bevel;"/>
            <path d="M1609.62,94.15L1661.5,42.484" style="fill:none;stroke:#000;stroke-width:1.25px;stroke-linejoin:bevel;"/>
            <path d="M1523.38,94.15L1471.92,42.484" style="fill:none;stroke:#000;stroke-width:1.25px;stroke-linejoin:bevel;"/>
            <path d="M1523.38,180.4L1471.5,232.275" style="fill:none;stroke:#000;stroke-width:1.25px;stroke-linejoin:bevel;"/>
            <path d="M1609.62,180.4L1661.5,232.275" style="fill:none;stroke:#000;stroke-width:1.25px;stroke-linejoin:bevel;"/>
        </g>
        <g id="Dots">
            <circle cx="1471.5" cy="232.234" r="1.5" style="stroke:#000;stroke-width:1.25px;stroke-linejoin:bevel;"/>
            <circle cx="1566.2" cy="232.359" r="1.5" style="stroke:#000;stroke-width:1.25px;stroke-linejoin:bevel;"/>
            <circle cx="1661.5" cy="232.234" r="1.5" style="stroke:#000;stroke-width:1.25px;stroke-linejoin:bevel;"/>
            <circle cx="1633.85" cy="204.4" r="1.5" style="stroke:#000;stroke-width:1.25px;stroke-linejoin:bevel;"/>
            <circle cx="1609.62" cy="180.234" r="1.5" style="stroke:#000;stroke-width:1.25px;stroke-linejoin:bevel;"/>
            <circle cx="1609.2" cy="137.359" r="1.5" style="stroke:#000;stroke-width:1.25px;stroke-linejoin:bevel;"/>
            <circle cx="1609.32" cy="94.109" r="1.5" style="stroke:#000;stroke-width:1.25px;stroke-linejoin:bevel;"/>
            <circle cx="1633.76" cy="69.9" r="1.5" style="stroke:#000;stroke-width:1.25px;stroke-linejoin:bevel;"/>
            <circle cx="1566.2" cy="94.109" r="1.5" style="stroke:#000;stroke-width:1.25px;stroke-linejoin:bevel;"/>
            <circle cx="1523.07" cy="94.234" r="1.5" style="stroke:#000;stroke-width:1.25px;stroke-linejoin:bevel;"/>
            <circle cx="1566.5" cy="42.234" r="1.5" style="stroke:#000;stroke-width:1.25px;stroke-linejoin:bevel;"/>
            <circle cx="1471.5" cy="42.275" r="1.5" style="stroke:#000;stroke-width:1.25px;stroke-linejoin:bevel;"/>
            <circle cx="1499.35" cy="70.234" r="1.5" style="stroke:#000;stroke-width:1.25px;stroke-linejoin:bevel;"/>
            <circle cx="1471.5" cy="137.275" r="1.5" style="stroke:#000;stroke-width:1.25px;stroke-linejoin:bevel;"/>
            <circle cx="1523.38" cy="137.275" r="1.5" style="stroke:#000;stroke-width:1.25px;stroke-linejoin:bevel;"/>
            <circle cx="1566" cy="180.4" r="1.5" style="stroke:#000;stroke-width:1.25px;stroke-linejoin:bevel;"/>
            <circle cx="1523.35" cy="180.234" r="1.5" style="stroke:#000;stroke-width:1.25px;stroke-linejoin:bevel;"/>
            <circle cx="1499.15" cy="204.734" r="1.5" style="stroke:#000;stroke-width:1.25px;stroke-linejoin:bevel;"/>
            <circle cx="1661.5" cy="137.275" r="1.5" style="stroke:#000;stroke-width:1.25px;stroke-linejoin:bevel;"/>
            <circle cx="1661.49" cy="42.383" r="1.5" style="stroke:#000;stroke-width:1.25px;stroke-linejoin:bevel;"/>
        </g>
        <circle cx="1661.5" cy="42.275" r="6.364" style="fill:#fff;stroke:#c05c9b;stroke-width:5.99px;"/>
    </g>
    <g id="S-melisma" serif:id="S melisma">
        <path id="Sounder" d="M1626.25,2303.28C1600.99,2347.02 1544.98,2362.03 1501.25,2336.78C1457.51,2311.53 1442.5,2255.52 1467.76,2211.78C1493.01,2168.04 1549.02,2153.03 1592.76,2178.28C1636.49,2203.53 1651.5,2259.55 1626.25,2303.28Z" style="fill:#fff;"/>
        <g id="Ring1" serif:id="Ring" opacity="0.5">
            <path d="M1626.25,2303.28C1600.99,2347.02 1544.98,2362.03 1501.25,2336.78C1457.51,2311.53 1442.5,2255.52 1467.76,2211.78C1493.01,2168.04 1549.02,2153.03 1592.76,2178.28C1636.49,2203.53 1651.5,2259.55 1626.25,2303.28Z" style="fill:none;stroke:#000;stroke-width:1.93px;"/>
            <path d="M1626.25,2303.28L1621.18,2300.36" style="fill:none;stroke:#000;stroke-width:1.93px;"/>
            <path d="M1472.82,2214.71L1467.76,2211.78" style="fill:none;stroke:#000;stroke-width:1.93px;"/>
            <path d="M1504.17,2331.72L1501.25,2336.78" style="fill:none;stroke:#000;stroke-width:1.93px;"/>
            <path d="M1592.76,2178.28L1589.83,2183.35" style="fill:none;stroke:#000;stroke-width:1.93px;"/>
            <path d="M1592.75,2336.78L1589.83,2331.71" style="fill:none;stroke:#000;stroke-width:1.93px;"/>
            <path d="M1504.17,2183.35L1501.25,2178.29" style="fill:none;stroke:#000;stroke-width:1.93px;"/>
            <path d="M1472.82,2300.36L1467.75,2303.29" style="fill:none;stroke:#000;stroke-width:1.93px;"/>
            <path d="M1626.25,2211.78L1621.18,2214.7" style="fill:none;stroke:#000;stroke-width:1.93px;"/>
            <path d="M1547,2349.04L1547,2343.19" style="fill:none;stroke:#000;stroke-width:1.93px;"/>
            <path d="M1547,2171.88L1547,2166.03" style="fill:none;stroke:#000;stroke-width:1.93px;"/>
            <path d="M1461.34,2257.53L1455.49,2257.53" style="fill:none;stroke:#000;stroke-width:1.93px;"/>
            <path d="M1638.51,2257.53L1632.66,2257.53" style="fill:none;stroke:#000;stroke-width:1.93px;"/>
        </g>
        <g id="Root-Markers1" serif:id="Root Markers">
            <path id="_42" serif:id="4" d="M1602.22,2287.68L1584.12,2284.43L1590.35,2273.64L1602.22,2287.68ZM1593.7,2282.76L1590.87,2279.41L1589.38,2281.99L1593.7,2282.76Z" style="fill:#c05c9b;"/>
        </g>
        <g id="Notes1" serif:id="Notes">
            <path id="_111" serif:id="11" d="M1514.49,2186.83C1510.25,2194.18 1500.83,2196.7 1493.49,2192.46C1486.14,2188.21 1483.62,2178.8 1487.86,2171.46C1492.1,2164.11 1501.51,2161.59 1508.86,2165.83C1516.21,2170.07 1518.73,2179.48 1514.49,2186.83Z" style="fill:#c05c9b;stroke:#fff;stroke-width:4.63px;"/>
            <path id="_10" serif:id="10" d="M1481.91,2220.69C1477.66,2228.04 1468.25,2230.56 1460.91,2226.32C1453.56,2222.07 1451.04,2212.66 1455.28,2205.32C1459.52,2197.97 1468.93,2195.45 1476.28,2199.69C1483.63,2203.93 1486.15,2213.34 1481.91,2220.69Z" style="fill:#c05c9b;stroke:#fff;stroke-width:4.63px;"/>
            <path id="_71" serif:id="7" d="M1515.38,2344.22C1511.13,2351.57 1501.73,2354.09 1494.38,2349.85C1487.03,2345.61 1484.51,2336.2 1488.75,2328.85C1492.99,2321.5 1502.4,2318.98 1509.75,2323.22C1517.1,2327.47 1519.62,2336.88 1515.38,2344.22Z" style="fill:#c05c9b;stroke:#fff;stroke-width:4.63px;"/>
            <path id="_6" serif:id="6" d="M1560.31,2357.18C1556.07,2364.53 1546.66,2367.05 1539.31,2362.81C1531.97,2358.56 1529.44,2349.15 1533.69,2341.81C1537.93,2334.46 1547.34,2331.94 1554.69,2336.18C1562.04,2340.42 1564.56,2349.83 1560.31,2357.18Z" style="fill:#c05c9b;stroke:#fff;stroke-width:4.63px;"/>
            <path id="_43" serif:id="4" d="M1638.94,2311.47C1634.7,2318.81 1625.29,2321.34 1617.94,2317.09C1610.59,2312.85 1608.07,2303.44 1612.32,2296.09C1616.56,2288.74 1625.97,2286.22 1633.32,2290.47C1640.66,2294.71 1643.19,2304.12 1638.94,2311.47Z" style="fill:#c05c9b;stroke:#fff;stroke-width:4.63px;"/>
            <path id="_2" serif:id="2" d="M1638.94,2220.69C1634.7,2228.04 1625.29,2230.56 1617.94,2226.32C1610.59,2222.08 1608.07,2212.67 1612.31,2205.32C1616.56,2197.97 1625.97,2195.45 1633.31,2199.69C1640.66,2203.93 1643.18,2213.34 1638.94,2220.69Z" style="fill:#c05c9b;stroke:#fff;stroke-width:4.63px;"/>
            <path id="_12" serif:id="1" d="M1605.45,2187.93C1601.2,2195.28 1591.79,2197.8 1584.45,2193.56C1577.1,2189.32 1574.58,2179.91 1578.82,2172.56C1583.06,2165.21 1592.47,2162.69 1599.82,2166.93C1607.17,2171.17 1609.69,2180.58 1605.45,2187.93Z" style="fill:#c05c9b;stroke:#fff;stroke-width:4.63px;"/>
        </g>
        <g id="Treble-Marker1" serif:id="Treble Marker">
            <g id="_72" serif:id="7">
                <path id="_7u1" serif:id="7u" d="M1515.38,2344.22C1511.13,2351.57 1501.73,2354.09 1494.38,2349.85C1487.03,2345.61 1484.51,2336.2 1488.75,2328.85C1492.99,2321.5 1502.4,2318.98 1509.75,2323.22C1517.1,2327.47 1519.62,2336.88 1515.38,2344.22Z" style="fill:#fff;stroke:#fff;stroke-width:6.43px;"/>
                <circle id="_7a1" serif:id="7a" cx="1502.06" cy="2336.54" r="12.348" style="fill:#fff;stroke:#c05c9b;stroke-width:3.22px;"/>
            </g>
        </g>
    </g>
</svg>
