<?xml version="1.0" encoding="UTF-8" standalone="no"?>
<!DOCTYPE svg PUBLIC "-//W3C//DTD SVG 1.1//EN" "http://www.w3.org/Graphics/SVG/1.1/DTD/svg11.dtd">
<svg width="100%" height="100%" viewBox="0 0 1800 1996" version="1.1" xmlns="http://www.w3.org/2000/svg" xmlns:xlink="http://www.w3.org/1999/xlink" xml:space="preserve" xmlns:serif="http://www.serif.com/" style="fill-rule:evenodd;clip-rule:evenodd;stroke-linejoin:round;stroke-miterlimit:2;">
    <g transform="matrix(1,0,0,1,-16191,-1754)">
        <g id="about3" transform="matrix(1,0,0,1.10889,16191,1754)">
            <rect x="0" y="0" width="1800" height="1800" style="fill:none;"/>
            <g transform="matrix(1,0,0,0.901804,-11757,-1750.18)">
                <text x="11892px" y="2114.26px" style="font-family:'ArialMT', 'Arial', sans-serif;font-size:62.5px;">uses of</text>
                <text x="12110.9px" y="2114.26px" style="font-family:'Arial-BoldMT', 'Arial', sans-serif;font-weight:700;font-size:62.5px;">tetra-blocks</text>
                <text x="12482.6px" y="2114.26px" style="font-family:'ArialMT', 'Arial', sans-serif;font-size:62.5px;">include:</text>
                <text x="11892px" y="2243.35px" style="font-family:'ArialMT', 'Arial', sans-serif;font-size:62.5px;">group improvisations</text>
                <text x="11892px" y="2307.89px" style="font-family:'ArialMT', 'Arial', sans-serif;font-size:62.5px;">without a predetermined structure</text>
                <text x="11892px" y="2436.98px" style="font-family:'ArialMT', 'Arial', sans-serif;font-size:62.5px;">individual practice creating melodies to common chords</text>
                <text x="11892px" y="2501.52px" style="font-family:'ArialMT', 'Arial', sans-serif;font-size:62.5px;">of the featured minor key areas</text>
                <text x="11892px" y="2630.61px" style="font-family:'ArialMT', 'Arial', sans-serif;font-size:62.5px;">songwriting sessions to evaluate chord progressions</text>
                <text x="11892px" y="2759.7px" style="font-family:'ArialMT', 'Arial', sans-serif;font-size:62.5px;">practice hearing common chords and their relationships</text>
                <text x="11892px" y="2888.79px" style="font-family:'ArialMT', 'Arial', sans-serif;font-size:62.5px;">remember<tspan x="12173.4px " y="2888.79px ">,</tspan></text>
                <text x="12208.1px" y="2888.79px" style="font-family:'Arial-BoldMT', 'Arial', sans-serif;font-weight:700;font-size:62.5px;">navigation is collective</text>
                <text x="11892px" y="2953.34px" style="font-family:'ArialMT', 'Arial', sans-serif;font-size:62.5px;">and</text>
                <text x="12013.7px" y="2953.34px" style="font-family:'Arial-BoldMT', 'Arial', sans-serif;font-weight:700;font-size:62.5px;">audio play is individual</text>
                <text x="11892px" y="3082.43px" style="font-family:'ArialMT', 'Arial', sans-serif;font-size:62.5px;">press</text>
                <text x="12062.2px" y="3082.43px" style="font-family:'Arial-BoldMT', 'Arial', sans-serif;font-weight:700;font-size:62.5px;">X</text>
                <text x="12121.3px" y="3082.43px" style="font-family:'ArialMT', 'Arial', sans-serif;font-size:62.5px;">to close the documentation viewer</text>
                <text x="11892px" y="3146.97px" style="font-family:'ArialMT', 'Arial', sans-serif;font-size:62.5px;">and return to session</text>
            </g>
			<a href="about2.svg">
            <g id="next-link" serif:id="next link" transform="matrix(1,0,0,0.901804,-1272,159.619)">
                <g transform="matrix(1,0,0,1,-11772,-1754)">
                    <path d="M13437,3418.6l0,70.8c0,13.025 -10.575,23.6 -23.6,23.6l-225.8,0c-13.025,0 -23.6,-10.575 -23.6,-23.6l0,-70.8c0,-13.025 10.575,-23.6 23.6,-23.6l225.8,0c13.025,0 23.6,10.575 23.6,23.6Z" style="fill:#3a53a4;"/>
                </g>
                <g transform="matrix(1,0,0,1,-10675,-505.843)">
                    <g transform="matrix(83.3333,0,0,83.3333,12299.5,2229.49)">
                    </g>
                    <text x="12101.3px" y="2229.49px" style="font-family:'Arial-Black', 'Arial Black', sans-serif;font-weight:900;font-size:83.333px;fill:#fff;">pr<tspan x="12195.2px 12248.6px " y="2229.49px 2229.49px ">ev</tspan></text>
                </g>
            </g>
			</a>
        </g>
    </g>
</svg>
