<?xml version="1.0" encoding="UTF-8" standalone="no"?>
<!DOCTYPE svg PUBLIC "-//W3C//DTD SVG 1.1//EN" "http://www.w3.org/Graphics/SVG/1.1/DTD/svg11.dtd">
<svg width="100%" height="100%" viewBox="0 0 2048 2732" version="1.1" xmlns="http://www.w3.org/2000/svg" xmlns:xlink="http://www.w3.org/1999/xlink" xml:space="preserve" xmlns:serif="http://www.serif.com/" style="fill-rule:evenodd;clip-rule:evenodd;stroke-linecap:square;stroke-linejoin:round;stroke-miterlimit:1.5;">
    <g transform="matrix(1,0,0,1,-16890,-27841)">
        <g id="H-PRE-C6-1" transform="matrix(1,0,0,1,16890,27841)">
            <rect x="0" y="0" width="2048" height="2732" style="fill:none;"/>
			<a href="H-PRE-C6.svg">
            <g id="S">
                <g id="Meta-Ring-and-Background" serif:id="Meta-Ring and Background" transform="matrix(-1.09813,0,0,-1.09813,1578.56,2249.66)">
                    <g id="bandsounder--votemagnet" class="votemagnet" sound="H-PRE-C6-1" serif:id="bandsounder, votemagnet" transform="matrix(0.545852,-0.945443,0.9537,0.550619,-641.299,1170.26)">
                        <ellipse cx="692" cy="1046" rx="458" ry="454" style="fill:rgb(23,103,77);fill-opacity:0.1;stroke:black;stroke-opacity:0.1;stroke-width:0.46px;"/>
                    </g>
                    <g transform="matrix(0.5,-0.866025,0.629632,0.363518,-412.931,1316.59)">
                        <path d="M768,524.038L768,568" style="fill:none;stroke:black;stroke-width:0.57px;"/>
                    </g>
                    <g transform="matrix(0.5,-0.866025,0.629632,0.363518,425.349,1800.57)">
                        <path d="M768,524.038L768,568" style="fill:none;stroke:black;stroke-width:0.57px;"/>
                    </g>
                    <g transform="matrix(-0.866025,-0.5,0.363518,-0.629632,1442.63,1400.58)">
                        <path d="M768,524.038L768,568" style="fill:none;stroke:black;stroke-width:0.57px;"/>
                    </g>
                    <g transform="matrix(-0.866025,-0.5,0.363518,-0.629632,958.61,2238.93)">
                        <path d="M768,524.038L768,568" style="fill:none;stroke:black;stroke-width:0.57px;"/>
                    </g>
                    <g transform="matrix(0.866025,-0.5,0.363518,0.629632,-371.594,713.016)">
                        <path d="M768,524.038L768,568" style="fill:none;stroke:black;stroke-width:0.57px;"/>
                    </g>
                    <g transform="matrix(0.866025,-0.5,0.363518,0.629632,112.404,1551.33)">
                        <path d="M768,524.038L768,568" style="fill:none;stroke:black;stroke-width:0.57px;"/>
                    </g>
                    <g transform="matrix(-0.5,-0.866025,0.629632,-0.363518,1193.38,1713.55)">
                        <path d="M768,524.038L768,568" style="fill:none;stroke:black;stroke-width:0.57px;"/>
                    </g>
                    <g transform="matrix(-0.5,-0.866025,0.629632,-0.363518,355.038,2197.57)">
                        <path d="M768,524.038L768,568" style="fill:none;stroke:black;stroke-width:0.57px;"/>
                    </g>
                    <g transform="matrix(1,0,0,0.727036,-34,210.969)">
                        <path d="M768,524.038L768,568" style="fill:none;stroke:black;stroke-width:0.57px;"/>
                    </g>
                    <g transform="matrix(1,0,0,0.727036,-34,1179)">
                        <path d="M768,524.038L768,568" style="fill:none;stroke:black;stroke-width:0.57px;"/>
                    </g>
                    <g transform="matrix(6.12323e-17,-1,0.727036,4.45181e-17,821.022,1859.96)">
                        <path d="M768,524.038L768,568" style="fill:none;stroke:black;stroke-width:0.57px;"/>
                    </g>
                    <g transform="matrix(6.12323e-17,-1,0.727036,4.45181e-17,-146.974,1859.96)">
                        <path d="M768,524.038L768,568" style="fill:none;stroke:black;stroke-width:0.57px;"/>
                    </g>
                </g>
                <g transform="matrix(-1.09813,0,0,-1.09811,1579.66,2245.28)">
                    <g transform="matrix(0.545852,-0.945443,0.9537,0.550619,-641.299,1170.26)">
                        <ellipse cx="692" cy="1046" rx="458" ry="454" style="fill:none;stroke:black;stroke-width:8.31px;stroke-linecap:round;"/>
                    </g>
                    <g transform="matrix(0.5,-0.866025,0.629632,0.363518,-412.931,1316.59)">
                        <path d="M768,524.038L768,568" style="fill:none;stroke:black;stroke-width:10.42px;stroke-linecap:round;"/>
                    </g>
                    <g transform="matrix(0.5,-0.866025,0.629632,0.363518,425.349,1800.57)">
                        <path d="M768,524.038L768,568" style="fill:none;stroke:black;stroke-width:10.42px;stroke-linecap:round;"/>
                    </g>
                    <g transform="matrix(-0.866025,-0.5,0.363518,-0.629632,1442.63,1400.58)">
                        <path d="M768,524.038L768,568" style="fill:none;stroke:black;stroke-width:10.42px;stroke-linecap:round;"/>
                    </g>
                    <g transform="matrix(-0.866025,-0.5,0.363518,-0.629632,958.61,2238.93)">
                        <path d="M768,524.038L768,568" style="fill:none;stroke:black;stroke-width:10.42px;stroke-linecap:round;"/>
                    </g>
                    <g transform="matrix(0.866025,-0.5,0.363518,0.629632,-371.594,713.016)">
                        <path d="M768,524.038L768,568" style="fill:none;stroke:black;stroke-width:10.42px;stroke-linecap:round;"/>
                    </g>
                    <g transform="matrix(0.866025,-0.5,0.363518,0.629632,112.404,1551.33)">
                        <path d="M768,524.038L768,568" style="fill:none;stroke:black;stroke-width:10.42px;stroke-linecap:round;"/>
                    </g>
                    <g transform="matrix(-0.5,-0.866025,0.629632,-0.363518,1193.38,1713.55)">
                        <path d="M768,524.038L768,568" style="fill:none;stroke:black;stroke-width:10.42px;stroke-linecap:round;"/>
                    </g>
                    <g transform="matrix(-0.5,-0.866025,0.629632,-0.363518,355.038,2197.57)">
                        <path d="M768,524.038L768,568" style="fill:none;stroke:black;stroke-width:10.42px;stroke-linecap:round;"/>
                    </g>
                    <g transform="matrix(1,0,0,0.727036,-34,210.969)">
                        <path d="M768,524.038L768,568" style="fill:none;stroke:black;stroke-width:10.42px;stroke-linecap:round;"/>
                    </g>
                    <g transform="matrix(1,0,0,0.727036,-34,1179)">
                        <path d="M768,524.038L768,568" style="fill:none;stroke:black;stroke-width:10.42px;stroke-linecap:round;"/>
                    </g>
                    <g transform="matrix(6.12323e-17,-1,0.727036,4.45181e-17,821.022,1859.96)">
                        <path d="M768,524.038L768,568" style="fill:none;stroke:black;stroke-width:10.42px;stroke-linecap:round;"/>
                    </g>
                    <g transform="matrix(6.12323e-17,-1,0.727036,4.45181e-17,-146.974,1859.96)">
                        <path d="M768,524.038L768,568" style="fill:none;stroke:black;stroke-width:10.42px;stroke-linecap:round;"/>
                    </g>
                </g>
                <g id="_9" sound="Low-A,Mid-A" autoplay="false" serif:id="9" transform="matrix(-1.39762,2.4207,-2.45799,-1.41909,2589.3,-50.0857)">
                    <ellipse cx="766" cy="526.5" rx="33" ry="32.5" style="fill:rgb(23,103,77);stroke:white;stroke-width:8.52px;stroke-linecap:round;"/>
                </g>
                <g id="_7" sound="Mid-G" autoplay="false" serif:id="7" transform="matrix(-1.39762,2.4207,-2.45799,-1.41909,2868.72,413.119)">
                    <ellipse cx="766" cy="526.5" rx="33" ry="32.5" style="fill:rgb(23,103,77);stroke:white;stroke-width:8.52px;stroke-linecap:round;"/>
                </g>
                <g id="_4" sound="High-E" autoplay="false" serif:id="4" transform="matrix(-1.39762,2.4207,-2.45799,-1.41909,3610.11,216.565)">
                    <ellipse cx="766" cy="526.5" rx="33" ry="32.5" style="fill:rgb(23,103,77);stroke:white;stroke-width:8.52px;stroke-linecap:round;"/>
                </g>
            </g>
			</a>
            <g transform="matrix(1,0,0,1,1158.34,1574.92)">
                <g transform="matrix(0.986121,0,0,1,-77.2788,0)">
                    <path d="M124.016,173.622L425.196,173.622" style="fill:none;fill-rule:nonzero;stroke:black;stroke-width:2.73px;stroke-linecap:butt;stroke-linejoin:bevel;stroke-miterlimit:4;"/>
                </g>
                <g transform="matrix(0.222458,0,0,1,226.072,123.817)">
                    <path d="M124.016,173.622L425.196,173.622" style="fill:none;fill-rule:nonzero;stroke:black;stroke-width:4.6px;stroke-linecap:butt;stroke-linejoin:bevel;stroke-miterlimit:4;"/>
                </g>
                <g transform="matrix(0.222458,0,0,1,225.739,148.128)">
                    <path d="M124.016,173.622L425.196,173.622" style="fill:none;fill-rule:nonzero;stroke:black;stroke-width:4.6px;stroke-linecap:butt;stroke-linejoin:bevel;stroke-miterlimit:4;"/>
                </g>
                <g transform="matrix(0.986121,0,0,1,-77.2788,0)">
                    <path d="M124.016,198.425L425.196,198.425" style="fill:none;fill-rule:nonzero;stroke:black;stroke-width:2.73px;stroke-linecap:butt;stroke-linejoin:bevel;stroke-miterlimit:4;"/>
                </g>
                <g transform="matrix(0.986121,0,0,1,-77.2788,0)">
                    <path d="M124.016,223.228L425.196,223.228" style="fill:none;fill-rule:nonzero;stroke:black;stroke-width:2.73px;stroke-linecap:butt;stroke-linejoin:bevel;stroke-miterlimit:4;"/>
                </g>
                <g transform="matrix(0.986121,0,0,1,-77.2788,0)">
                    <path d="M124.016,248.031L425.196,248.031" style="fill:none;fill-rule:nonzero;stroke:black;stroke-width:2.73px;stroke-linecap:butt;stroke-linejoin:bevel;stroke-miterlimit:4;"/>
                </g>
                <g transform="matrix(0.986121,0,0,1,-77.2788,0)">
                    <path d="M124.016,272.835L425.196,272.835" style="fill:none;fill-rule:nonzero;stroke:black;stroke-width:2.73px;stroke-linecap:butt;stroke-linejoin:bevel;stroke-miterlimit:4;"/>
                </g>
                <g transform="matrix(0.992126,0,0,0.992126,271.393,246.827)">
                    <path d="M31.5,-8.094C29.703,-11.406 25.906,-13.203 21.297,-13.203C17.906,-13.203 14.203,-12.203 10.594,-10.297C4,-6.797 0,-0.906 0,4.203C0,5.594 0.297,7 1,8.297C2.797,11.594 6.594,13.297 11.203,13.297C14.594,13.297 18.297,12.406 21.906,10.5C28.5,7 32.5,1.094 32.5,-4C32.5,-5.406 32.203,-6.797 31.5,-8.094" style="fill-rule:nonzero;"/>
                </g>
                <g transform="matrix(0.992126,0,0,0.992126,271.393,321.704)">
                    <path d="M31.5,-8.094C29.703,-11.406 25.906,-13.203 21.297,-13.203C17.906,-13.203 14.203,-12.203 10.594,-10.297C4,-6.797 0,-0.906 0,4.203C0,5.594 0.297,7 1,8.297C2.797,11.594 6.594,13.297 11.203,13.297C14.594,13.297 18.297,12.406 21.906,10.5C28.5,7 32.5,1.094 32.5,-4C32.5,-5.406 32.203,-6.797 31.5,-8.094" style="fill-rule:nonzero;"/>
                </g>
                <g transform="matrix(0.992126,0,0,0.992126,270.66,185.183)">
                    <path d="M31.5,-8.094C29.703,-11.406 25.906,-13.203 21.297,-13.203C17.906,-13.203 14.203,-12.203 10.594,-10.297C4,-6.797 0,-0.906 0,4.203C0,5.594 0.297,7 1,8.297C2.797,11.594 6.594,13.297 11.203,13.297C14.594,13.297 18.297,12.406 21.906,10.5C28.5,7 32.5,1.094 32.5,-4C32.5,-5.406 32.203,-6.797 31.5,-8.094" style="fill-rule:nonzero;"/>
                </g>
                <g transform="matrix(1.01559,0,0,1.01559,67.016,245.085)">
                    <path d="M63.359,-5.922C62.125,-11.344 59.484,-15.172 58.703,-16.203C55.516,-20.484 51.5,-23.328 46.813,-24.688C43.703,-25.563 40.703,-25.688 38.281,-25.5C37.234,-31.516 36.234,-37.391 35.328,-42.844C40.781,-49.016 44.406,-54.813 46.688,-59.109C50.156,-65.688 51.297,-70.266 51.359,-70.469C53.078,-75.688 53.438,-83.391 52.328,-91.594C51.328,-99.141 49.234,-105.859 46.875,-109.109C45.859,-110.531 44.797,-111.266 43.766,-111.266C42.547,-111.266 40.031,-110.031 37.141,-107.25C34.844,-105.063 31.578,-101.172 29.016,-95.156C26.016,-88.094 25.797,-78.609 26.156,-71.891C26.531,-64.609 27.641,-58.922 27.656,-58.875C27.672,-58.781 27.938,-57.281 28.375,-54.719C28.156,-54.484 27.906,-54.266 27.656,-54.016C26.625,-53.016 25.438,-51.891 24.047,-50.5C23.188,-49.641 22.234,-48.734 21.234,-47.766C12.797,-39.625 0,-27.297 0,-8.141C0,-3.438 0.906,0.984 2.688,5C4.266,8.594 6.563,11.875 9.5,14.75C17.234,22.313 27.828,25.516 34.875,25.359C37.828,25.281 40.469,25.047 42.859,24.594C44.688,34.203 45.828,41.234 45.859,46.578C45.906,53.094 44.25,57.078 40.359,59.844C37.922,61.578 35.109,62.531 32.016,62.672C29.422,62.797 27.156,62.328 25.734,61.922L25.719,61.922C25.719,61.922 25.438,61.828 25.422,61.641C25.406,61.453 25.766,61.406 25.766,61.406L25.797,61.406C27.719,60.969 31.281,59.734 33.641,56.438C35.438,53.906 36.313,49.281 34.469,45.344C33.359,42.953 30.859,40 25.234,39.547C22.734,39.344 20.469,39.859 18.469,41.063C16.656,42.141 15.156,43.781 14.109,45.781C11.656,50.484 12.109,56.219 15.234,60.063C18.203,63.688 22.813,66 28.25,66.578C29.109,66.672 29.953,66.703 30.797,66.703C35.234,66.703 39.625,65.5 43.203,63.297C46.859,60.719 48.984,56.734 49.656,51.109C50.219,46.469 49.828,40.547 48.438,32.469C48.078,30.375 47.531,27.344 46.875,23.594C52.625,21.672 56.781,18.094 60.547,12.234C63.844,6.5 64.781,0.391 63.359,-5.922M29.141,20.297C24.5,19.078 20.063,16.578 16.313,13.063C15,11.844 13.125,9.672 11.656,6.281C10.297,3.109 9.625,-0.328 9.688,-3.906C9.75,-8.609 11.063,-13.438 13.563,-18.219C16.484,-23.797 21.047,-29.328 27.109,-34.656C28.563,-35.938 29.938,-37.219 31.219,-38.5C31.984,-34.234 32.813,-29.547 33.688,-24.672C29.844,-23.406 25.094,-20.25 21.984,-14.594C18.438,-8.031 18.578,-2.5 19.313,0.984C20.25,5.438 22.781,9.203 26.234,11.297C27.172,11.859 31.297,13.984 33.141,13.406C33.516,13.297 33.781,13.063 33.922,12.734C34.438,11.563 33.406,10.922 31.859,9.969C31.25,9.594 30.578,9.172 29.859,8.641C26.531,6.156 25.078,1.703 26.156,-2.688C26.734,-5.078 28.016,-7.25 29.859,-8.953C31.516,-10.5 33.563,-11.594 35.938,-12.234C37.984,-0.984 40.047,10.172 41.688,18.531C41.813,19.219 41.953,19.891 42.078,20.563C37.703,21.5 33.359,21.406 29.141,20.297M40.469,-12.906C50.813,-13.375 55.078,-5.938 55.969,-1.109C56.438,1.438 56.438,5.875 54.891,10.094C53.719,13.266 51.266,17.344 46.125,19.406C46.063,18.984 45.984,18.547 45.906,18.125C44.359,9.344 42.422,-1.656 40.469,-12.906M33.141,-83.859C34.922,-89.594 37.656,-92.844 39.656,-94.578C41.406,-96.094 43.047,-96.813 43.969,-96.813C44.109,-96.813 44.234,-96.781 44.328,-96.75C44.797,-96.609 45.328,-96.047 45.797,-95.172C48.109,-90.891 47.359,-84.172 46.016,-79.734C44.391,-74.328 41.469,-68.719 32.672,-59.109C32.5,-60.219 32.344,-61.266 32.188,-62.25C30.938,-70.531 31.266,-77.813 33.141,-83.859" style="fill-opacity:0.05;fill-rule:nonzero;"/>
                </g>
            </g>
        </g>
    </g>
</svg>
