<?xml version="1.0" encoding="UTF-8" standalone="no"?>
<!DOCTYPE svg PUBLIC "-//W3C//DTD SVG 1.1//EN" "http://www.w3.org/Graphics/SVG/1.1/DTD/svg11.dtd">
<svg width="100%" height="100%" viewBox="0 0 2048 2732" version="1.1" xmlns="http://www.w3.org/2000/svg" xmlns:xlink="http://www.w3.org/1999/xlink" xml:space="preserve" xmlns:serif="http://www.serif.com/" style="fill-rule:evenodd;clip-rule:evenodd;stroke-linejoin:round;stroke-miterlimit:2;">
    <g transform="matrix(1,0,0,1,0,-13155)">
        <g id="START" transform="matrix(1,0,0,1,0,13155)">
            <rect x="0" y="0" width="2048" height="2732" style="fill:none;"/>
            <g id="Text">
				<a href="FOREWORD.svg">
                <g id="foreword" transform="matrix(1,0,0,1,-19.125,-356)">
                    <g id="START-LINK" serif:id="START LINK" transform="matrix(1.53915,0,0,1.28689,-554.648,78.6557)">
                        <path d="M1174,1770.2C1174,1763.47 1169.43,1758 1163.8,1758L911.2,1758C905.571,1758 901,1763.47 901,1770.2L901,1867.8C901,1874.53 905.571,1880 911.2,1880L1163.8,1880C1169.43,1880 1174,1874.53 1174,1867.8L1174,1770.2Z" style="fill:rgb(0,62,164);fill-opacity:0.1;"/>
                    </g>
                    <g transform="matrix(1,0,0,1,358.43,2324.8)">
                        <g transform="matrix(75,0,0,75,499.37,117.352)">
                            <path d="M0.111,-0.606L0.107,-0.606C0.087,-0.605 0.083,-0.59 0.083,-0.573C0.083,-0.56 0.086,-0.546 0.086,-0.534L0.086,-0.53C0.082,-0.466 0.083,-0.403 0.08,-0.34L0.08,-0.329C0.08,-0.301 0.085,-0.273 0.086,-0.246L0.086,-0.236C0.086,-0.208 0.081,-0.179 0.078,-0.152C0.075,-0.121 0.073,-0.088 0.072,-0.056L0.072,-0.045C0.072,-0.012 0.08,-0 0.117,0.006C0.124,0.007 0.132,0.008 0.141,0.008C0.161,0.008 0.181,0.003 0.186,-0.02C0.187,-0.027 0.188,-0.036 0.188,-0.045C0.188,-0.068 0.183,-0.095 0.183,-0.117C0.183,-0.147 0.183,-0.181 0.181,-0.211L0.181,-0.231C0.181,-0.255 0.186,-0.274 0.217,-0.281C0.227,-0.283 0.237,-0.284 0.247,-0.284C0.266,-0.284 0.283,-0.281 0.302,-0.281C0.315,-0.281 0.339,-0.276 0.36,-0.276C0.373,-0.276 0.385,-0.279 0.39,-0.286C0.392,-0.289 0.393,-0.301 0.393,-0.316C0.393,-0.339 0.391,-0.367 0.385,-0.371C0.381,-0.372 0.377,-0.373 0.371,-0.373C0.36,-0.373 0.345,-0.37 0.338,-0.369C0.334,-0.369 0.33,-0.368 0.325,-0.368C0.313,-0.368 0.302,-0.369 0.292,-0.371C0.282,-0.372 0.275,-0.373 0.266,-0.373C0.261,-0.373 0.255,-0.372 0.248,-0.371C0.242,-0.37 0.23,-0.367 0.219,-0.367C0.216,-0.367 0.211,-0.367 0.209,-0.369C0.184,-0.381 0.182,-0.418 0.181,-0.441L0.181,-0.448C0.181,-0.474 0.191,-0.505 0.218,-0.511C0.224,-0.511 0.231,-0.512 0.236,-0.512C0.259,-0.512 0.291,-0.506 0.305,-0.506L0.34,-0.506C0.349,-0.506 0.364,-0.502 0.376,-0.502C0.38,-0.502 0.383,-0.503 0.386,-0.504C0.397,-0.508 0.399,-0.515 0.399,-0.524L0.399,-0.537C0.399,-0.546 0.401,-0.558 0.401,-0.569C0.401,-0.573 0.401,-0.577 0.4,-0.581C0.394,-0.599 0.375,-0.603 0.355,-0.603C0.343,-0.603 0.33,-0.601 0.32,-0.601C0.29,-0.601 0.259,-0.605 0.229,-0.605C0.221,-0.605 0.214,-0.604 0.206,-0.604C0.191,-0.603 0.176,-0.6 0.162,-0.6L0.158,-0.6C0.141,-0.6 0.126,-0.606 0.111,-0.606Z" style="fill-rule:nonzero;"/>
                        </g>
                        <g transform="matrix(75,0,0,75,533.495,117.352)">
                            <path d="M0.511,-0.588C0.463,-0.606 0.416,-0.616 0.368,-0.616C0.345,-0.616 0.321,-0.613 0.296,-0.608C0.265,-0.601 0.235,-0.588 0.205,-0.574C0.153,-0.548 0.109,-0.494 0.087,-0.441C0.067,-0.394 0.055,-0.348 0.055,-0.299C0.055,-0.285 0.056,-0.271 0.058,-0.256C0.068,-0.192 0.089,-0.143 0.129,-0.091C0.19,-0.013 0.289,0.021 0.386,0.021C0.421,0.021 0.455,0.017 0.486,0.009C0.546,-0.006 0.607,-0.057 0.644,-0.106C0.686,-0.163 0.703,-0.236 0.703,-0.294L0.703,-0.305C0.703,-0.425 0.626,-0.546 0.511,-0.588ZM0.316,-0.503C0.336,-0.508 0.361,-0.511 0.384,-0.511C0.391,-0.511 0.397,-0.51 0.404,-0.51C0.421,-0.51 0.444,-0.504 0.461,-0.498C0.48,-0.492 0.495,-0.481 0.51,-0.468C0.544,-0.439 0.567,-0.399 0.586,-0.358C0.592,-0.342 0.595,-0.325 0.595,-0.306C0.595,-0.262 0.578,-0.216 0.556,-0.182C0.525,-0.137 0.468,-0.089 0.414,-0.081C0.404,-0.079 0.394,-0.078 0.384,-0.078C0.328,-0.078 0.281,-0.101 0.232,-0.136C0.178,-0.175 0.166,-0.24 0.166,-0.301C0.166,-0.334 0.166,-0.365 0.181,-0.393C0.195,-0.42 0.218,-0.437 0.239,-0.457C0.261,-0.48 0.286,-0.495 0.316,-0.503Z" style="fill-rule:nonzero;"/>
                        </g>
                        <g transform="matrix(75,0,0,75,589.595,117.352)">
                            <path d="M0.163,-0.606C0.149,-0.606 0.125,-0.613 0.104,-0.615L0.096,-0.615C0.086,-0.615 0.078,-0.614 0.072,-0.611C0.061,-0.604 0.058,-0.587 0.058,-0.569C0.058,-0.549 0.061,-0.527 0.063,-0.516C0.07,-0.473 0.072,-0.429 0.072,-0.384C0.072,-0.365 0.071,-0.346 0.071,-0.327C0.071,-0.307 0.069,-0.289 0.069,-0.271C0.069,-0.26 0.069,-0.249 0.07,-0.238C0.071,-0.224 0.071,-0.21 0.071,-0.195C0.071,-0.161 0.069,-0.126 0.065,-0.094C0.063,-0.082 0.057,-0.058 0.057,-0.037C0.057,-0.021 0.061,-0.007 0.071,-0.001C0.082,0.006 0.104,0.005 0.117,0.006C0.126,0.007 0.134,0.008 0.142,0.008C0.157,0.008 0.171,0.004 0.18,-0.011C0.184,-0.018 0.186,-0.027 0.186,-0.036C0.186,-0.065 0.171,-0.098 0.17,-0.122C0.169,-0.135 0.167,-0.152 0.167,-0.169C0.167,-0.19 0.17,-0.21 0.178,-0.222C0.182,-0.229 0.187,-0.231 0.191,-0.231C0.21,-0.231 0.228,-0.188 0.237,-0.176C0.258,-0.151 0.274,-0.124 0.293,-0.097C0.311,-0.071 0.322,-0.041 0.342,-0.016C0.358,0.004 0.374,0.009 0.393,0.009C0.406,0.009 0.42,0.006 0.436,0.005C0.459,0.004 0.473,0.003 0.473,-0.011C0.473,-0.016 0.472,-0.022 0.469,-0.03C0.461,-0.047 0.449,-0.064 0.436,-0.079C0.406,-0.118 0.369,-0.151 0.342,-0.192C0.335,-0.204 0.322,-0.216 0.316,-0.227C0.314,-0.232 0.312,-0.236 0.312,-0.24C0.312,-0.25 0.321,-0.253 0.333,-0.261C0.365,-0.281 0.4,-0.296 0.421,-0.327C0.437,-0.351 0.446,-0.389 0.446,-0.426C0.446,-0.456 0.441,-0.486 0.43,-0.507C0.4,-0.567 0.34,-0.594 0.277,-0.601C0.239,-0.605 0.201,-0.604 0.163,-0.606ZM0.168,-0.499C0.176,-0.51 0.191,-0.512 0.206,-0.512C0.224,-0.512 0.242,-0.508 0.254,-0.507C0.295,-0.501 0.332,-0.49 0.334,-0.442L0.334,-0.434C0.334,-0.411 0.327,-0.386 0.316,-0.365C0.3,-0.334 0.277,-0.331 0.243,-0.329C0.233,-0.328 0.221,-0.326 0.209,-0.326C0.196,-0.326 0.184,-0.329 0.175,-0.34C0.166,-0.349 0.164,-0.361 0.164,-0.374C0.164,-0.383 0.165,-0.391 0.166,-0.4L0.166,-0.403C0.166,-0.421 0.159,-0.446 0.159,-0.467C0.159,-0.479 0.161,-0.491 0.168,-0.499Z" style="fill-rule:nonzero;"/>
                        </g>
                        <g transform="matrix(75,0,0,75,627.845,117.352)">
                            <path d="M0.125,-0.599C0.111,-0.6 0.098,-0.603 0.087,-0.603C0.073,-0.603 0.064,-0.597 0.064,-0.571C0.064,-0.541 0.072,-0.509 0.072,-0.476C0.072,-0.445 0.071,-0.414 0.071,-0.383L0.071,-0.371C0.071,-0.326 0.069,-0.281 0.069,-0.236C0.069,-0.222 0.069,-0.207 0.07,-0.193C0.071,-0.169 0.073,-0.143 0.073,-0.118C0.073,-0.111 0.072,-0.103 0.072,-0.096C0.071,-0.076 0.057,-0.048 0.057,-0.026C0.057,-0.021 0.058,-0.016 0.061,-0.011C0.068,0.004 0.086,0.009 0.105,0.009C0.116,0.009 0.128,0.007 0.136,0.006C0.151,0.004 0.168,0.004 0.185,0.004C0.199,0.004 0.214,0.004 0.228,0.005C0.237,0.006 0.247,0.007 0.257,0.007C0.274,0.007 0.291,0.006 0.306,0.006L0.324,0.006C0.34,0.007 0.363,0.015 0.383,0.015C0.392,0.015 0.401,0.014 0.407,0.008C0.415,0.001 0.419,-0.027 0.419,-0.052C0.419,-0.067 0.417,-0.08 0.414,-0.086C0.407,-0.097 0.375,-0.101 0.351,-0.101C0.342,-0.101 0.336,-0.101 0.331,-0.1C0.318,-0.097 0.309,-0.091 0.296,-0.091C0.294,-0.091 0.291,-0.091 0.289,-0.092C0.277,-0.094 0.268,-0.096 0.256,-0.096L0.241,-0.096C0.231,-0.095 0.224,-0.094 0.217,-0.094C0.198,-0.094 0.181,-0.099 0.176,-0.123C0.172,-0.136 0.171,-0.149 0.171,-0.162C0.171,-0.179 0.174,-0.197 0.174,-0.213L0.174,-0.236C0.174,-0.258 0.176,-0.28 0.205,-0.281L0.237,-0.281C0.286,-0.281 0.341,-0.279 0.392,-0.277L0.399,-0.277C0.415,-0.277 0.417,-0.282 0.417,-0.299L0.417,-0.321C0.417,-0.336 0.416,-0.352 0.413,-0.365C0.396,-0.374 0.377,-0.376 0.357,-0.376C0.346,-0.376 0.336,-0.376 0.326,-0.375C0.296,-0.372 0.267,-0.372 0.238,-0.371L0.222,-0.371C0.196,-0.371 0.176,-0.376 0.171,-0.411C0.17,-0.419 0.17,-0.427 0.17,-0.434C0.17,-0.453 0.173,-0.469 0.181,-0.491C0.187,-0.507 0.19,-0.51 0.203,-0.51L0.211,-0.51C0.226,-0.509 0.241,-0.508 0.257,-0.508C0.291,-0.508 0.321,-0.506 0.353,-0.506C0.386,-0.506 0.412,-0.507 0.416,-0.545L0.416,-0.569C0.416,-0.59 0.411,-0.602 0.381,-0.604C0.351,-0.605 0.319,-0.606 0.291,-0.606C0.242,-0.606 0.193,-0.598 0.145,-0.598C0.138,-0.598 0.131,-0.599 0.125,-0.599Z" style="fill-rule:nonzero;"/>
                        </g>
                        <g transform="matrix(75,0,0,75,661.97,117.352)">
                            <path d="M0.023,-0.588C0.021,-0.586 0.021,-0.583 0.02,-0.579C0.019,-0.576 0.019,-0.575 0.019,-0.572C0.019,-0.551 0.038,-0.529 0.049,-0.511C0.079,-0.459 0.088,-0.399 0.111,-0.345C0.129,-0.301 0.154,-0.261 0.17,-0.215C0.186,-0.168 0.201,-0.121 0.221,-0.076C0.233,-0.046 0.238,-0.012 0.253,0.015C0.26,0.028 0.266,0.033 0.273,0.033C0.286,0.033 0.297,0.009 0.302,-0.011C0.31,-0.041 0.321,-0.071 0.334,-0.101C0.356,-0.155 0.371,-0.212 0.393,-0.266C0.401,-0.287 0.411,-0.336 0.429,-0.349C0.431,-0.351 0.435,-0.352 0.437,-0.352C0.459,-0.352 0.474,-0.289 0.479,-0.278C0.504,-0.22 0.529,-0.161 0.546,-0.101C0.556,-0.069 0.561,-0.041 0.573,-0.009C0.581,0.011 0.59,0.035 0.602,0.035C0.608,0.035 0.615,0.029 0.623,0.015C0.639,-0.011 0.641,-0.046 0.656,-0.076C0.67,-0.105 0.682,-0.136 0.695,-0.166L0.698,-0.175C0.722,-0.235 0.746,-0.295 0.775,-0.353C0.804,-0.411 0.82,-0.472 0.846,-0.531C0.852,-0.546 0.867,-0.564 0.867,-0.581L0.867,-0.585C0.866,-0.602 0.851,-0.605 0.836,-0.605L0.811,-0.605C0.799,-0.606 0.787,-0.608 0.776,-0.608C0.765,-0.608 0.755,-0.606 0.746,-0.596C0.732,-0.579 0.735,-0.553 0.73,-0.533C0.726,-0.518 0.717,-0.504 0.711,-0.489C0.697,-0.455 0.687,-0.418 0.671,-0.386C0.656,-0.357 0.651,-0.328 0.641,-0.298C0.636,-0.283 0.626,-0.26 0.615,-0.25C0.61,-0.246 0.606,-0.245 0.603,-0.245C0.589,-0.245 0.586,-0.271 0.58,-0.286L0.543,-0.362C0.532,-0.385 0.524,-0.411 0.519,-0.435C0.515,-0.459 0.513,-0.48 0.501,-0.501C0.489,-0.521 0.484,-0.536 0.476,-0.556L0.476,-0.559L0.474,-0.564C0.474,-0.565 0.473,-0.566 0.473,-0.566C0.466,-0.59 0.456,-0.618 0.431,-0.627C0.404,-0.625 0.394,-0.539 0.388,-0.521C0.38,-0.495 0.375,-0.466 0.361,-0.442C0.347,-0.417 0.345,-0.399 0.338,-0.372C0.33,-0.341 0.311,-0.313 0.301,-0.283C0.296,-0.267 0.291,-0.233 0.275,-0.233C0.27,-0.233 0.263,-0.236 0.256,-0.246C0.244,-0.259 0.246,-0.28 0.241,-0.296C0.236,-0.313 0.227,-0.331 0.221,-0.348C0.202,-0.392 0.181,-0.435 0.163,-0.48C0.154,-0.503 0.143,-0.526 0.138,-0.55C0.136,-0.561 0.14,-0.577 0.132,-0.587C0.123,-0.598 0.095,-0.598 0.081,-0.6C0.074,-0.601 0.065,-0.602 0.056,-0.602C0.042,-0.602 0.029,-0.599 0.023,-0.588Z" style="fill-rule:nonzero;"/>
                        </g>
                        <g transform="matrix(75,0,0,75,728.345,117.352)">
                            <path d="M0.511,-0.588C0.463,-0.606 0.416,-0.616 0.368,-0.616C0.345,-0.616 0.321,-0.613 0.296,-0.608C0.265,-0.601 0.235,-0.588 0.205,-0.574C0.153,-0.548 0.109,-0.494 0.087,-0.441C0.067,-0.394 0.055,-0.348 0.055,-0.299C0.055,-0.285 0.056,-0.271 0.058,-0.256C0.068,-0.192 0.089,-0.143 0.129,-0.091C0.19,-0.013 0.289,0.021 0.386,0.021C0.421,0.021 0.455,0.017 0.486,0.009C0.546,-0.006 0.607,-0.057 0.644,-0.106C0.686,-0.163 0.703,-0.236 0.703,-0.294L0.703,-0.305C0.703,-0.425 0.626,-0.546 0.511,-0.588ZM0.316,-0.503C0.336,-0.508 0.361,-0.511 0.384,-0.511C0.391,-0.511 0.397,-0.51 0.404,-0.51C0.421,-0.51 0.444,-0.504 0.461,-0.498C0.48,-0.492 0.495,-0.481 0.51,-0.468C0.544,-0.439 0.567,-0.399 0.586,-0.358C0.592,-0.342 0.595,-0.325 0.595,-0.306C0.595,-0.262 0.578,-0.216 0.556,-0.182C0.525,-0.137 0.468,-0.089 0.414,-0.081C0.404,-0.079 0.394,-0.078 0.384,-0.078C0.328,-0.078 0.281,-0.101 0.232,-0.136C0.178,-0.175 0.166,-0.24 0.166,-0.301C0.166,-0.334 0.166,-0.365 0.181,-0.393C0.195,-0.42 0.218,-0.437 0.239,-0.457C0.261,-0.48 0.286,-0.495 0.316,-0.503Z" style="fill-rule:nonzero;"/>
                        </g>
                        <g transform="matrix(75,0,0,75,784.445,117.352)">
                            <path d="M0.163,-0.606C0.149,-0.606 0.125,-0.613 0.104,-0.615L0.096,-0.615C0.086,-0.615 0.078,-0.614 0.072,-0.611C0.061,-0.604 0.058,-0.587 0.058,-0.569C0.058,-0.549 0.061,-0.527 0.063,-0.516C0.07,-0.473 0.072,-0.429 0.072,-0.384C0.072,-0.365 0.071,-0.346 0.071,-0.327C0.071,-0.307 0.069,-0.289 0.069,-0.271C0.069,-0.26 0.069,-0.249 0.07,-0.238C0.071,-0.224 0.071,-0.21 0.071,-0.195C0.071,-0.161 0.069,-0.126 0.065,-0.094C0.063,-0.082 0.057,-0.058 0.057,-0.037C0.057,-0.021 0.061,-0.007 0.071,-0.001C0.082,0.006 0.104,0.005 0.117,0.006C0.126,0.007 0.134,0.008 0.142,0.008C0.157,0.008 0.171,0.004 0.18,-0.011C0.184,-0.018 0.186,-0.027 0.186,-0.036C0.186,-0.065 0.171,-0.098 0.17,-0.122C0.169,-0.135 0.167,-0.152 0.167,-0.169C0.167,-0.19 0.17,-0.21 0.178,-0.222C0.182,-0.229 0.187,-0.231 0.191,-0.231C0.21,-0.231 0.228,-0.188 0.237,-0.176C0.258,-0.151 0.274,-0.124 0.293,-0.097C0.311,-0.071 0.322,-0.041 0.342,-0.016C0.358,0.004 0.374,0.009 0.393,0.009C0.406,0.009 0.42,0.006 0.436,0.005C0.459,0.004 0.473,0.003 0.473,-0.011C0.473,-0.016 0.472,-0.022 0.469,-0.03C0.461,-0.047 0.449,-0.064 0.436,-0.079C0.406,-0.118 0.369,-0.151 0.342,-0.192C0.335,-0.204 0.322,-0.216 0.316,-0.227C0.314,-0.232 0.312,-0.236 0.312,-0.24C0.312,-0.25 0.321,-0.253 0.333,-0.261C0.365,-0.281 0.4,-0.296 0.421,-0.327C0.437,-0.351 0.446,-0.389 0.446,-0.426C0.446,-0.456 0.441,-0.486 0.43,-0.507C0.4,-0.567 0.34,-0.594 0.277,-0.601C0.239,-0.605 0.201,-0.604 0.163,-0.606ZM0.168,-0.499C0.176,-0.51 0.191,-0.512 0.206,-0.512C0.224,-0.512 0.242,-0.508 0.254,-0.507C0.295,-0.501 0.332,-0.49 0.334,-0.442L0.334,-0.434C0.334,-0.411 0.327,-0.386 0.316,-0.365C0.3,-0.334 0.277,-0.331 0.243,-0.329C0.233,-0.328 0.221,-0.326 0.209,-0.326C0.196,-0.326 0.184,-0.329 0.175,-0.34C0.166,-0.349 0.164,-0.361 0.164,-0.374C0.164,-0.383 0.165,-0.391 0.166,-0.4L0.166,-0.403C0.166,-0.421 0.159,-0.446 0.159,-0.467C0.159,-0.479 0.161,-0.491 0.168,-0.499Z" style="fill-rule:nonzero;"/>
                        </g>
                        <g transform="matrix(75,0,0,75,822.695,117.352)">
                            <path d="M0.373,-0.582C0.344,-0.586 0.316,-0.593 0.291,-0.598C0.279,-0.601 0.267,-0.601 0.255,-0.601L0.191,-0.601C0.163,-0.604 0.134,-0.604 0.106,-0.606C0.099,-0.606 0.094,-0.607 0.089,-0.607C0.081,-0.607 0.075,-0.604 0.07,-0.591C0.068,-0.587 0.067,-0.583 0.067,-0.579C0.067,-0.568 0.071,-0.557 0.072,-0.547L0.072,-0.528C0.073,-0.521 0.074,-0.513 0.074,-0.506C0.074,-0.462 0.069,-0.418 0.069,-0.375C0.069,-0.367 0.07,-0.361 0.07,-0.354C0.072,-0.313 0.072,-0.269 0.072,-0.225L0.072,-0.161C0.072,-0.128 0.07,-0.095 0.07,-0.062L0.07,-0.051C0.07,-0.021 0.071,0.005 0.109,0.008C0.13,0.009 0.151,0.01 0.171,0.01C0.214,0.01 0.257,0.007 0.299,-0C0.357,-0.009 0.424,-0.027 0.47,-0.071C0.491,-0.091 0.509,-0.114 0.519,-0.141C0.529,-0.168 0.545,-0.19 0.552,-0.219C0.561,-0.253 0.567,-0.288 0.567,-0.323C0.567,-0.349 0.564,-0.375 0.556,-0.401C0.537,-0.458 0.496,-0.52 0.441,-0.549C0.418,-0.562 0.397,-0.578 0.373,-0.582ZM0.18,-0.396C0.178,-0.408 0.176,-0.42 0.176,-0.431C0.174,-0.442 0.173,-0.451 0.173,-0.46C0.173,-0.487 0.182,-0.503 0.216,-0.503C0.22,-0.503 0.224,-0.502 0.229,-0.502C0.234,-0.501 0.238,-0.501 0.243,-0.501C0.256,-0.501 0.27,-0.503 0.282,-0.503C0.287,-0.503 0.291,-0.503 0.296,-0.502C0.31,-0.501 0.323,-0.491 0.336,-0.486C0.363,-0.475 0.386,-0.46 0.407,-0.439C0.439,-0.41 0.466,-0.362 0.466,-0.316C0.466,-0.306 0.465,-0.298 0.462,-0.289C0.458,-0.273 0.451,-0.258 0.447,-0.242C0.444,-0.228 0.442,-0.214 0.436,-0.201C0.422,-0.173 0.401,-0.154 0.375,-0.138C0.346,-0.121 0.319,-0.111 0.289,-0.106C0.267,-0.102 0.242,-0.09 0.22,-0.09C0.215,-0.09 0.21,-0.091 0.205,-0.092C0.181,-0.1 0.176,-0.117 0.176,-0.136C0.176,-0.146 0.177,-0.155 0.177,-0.164L0.177,-0.18C0.177,-0.202 0.176,-0.223 0.176,-0.246L0.176,-0.254C0.176,-0.285 0.18,-0.319 0.181,-0.35L0.181,-0.362C0.181,-0.373 0.181,-0.385 0.18,-0.396Z" style="fill-rule:nonzero;"/>
                        </g>
                    </g>
                </g>
				</a>
                <g transform="matrix(1,0,0,1,249.148,1290.92)">
                    <g transform="matrix(66.6667,0,0,66.6667,375.602,111.877)">
                        <path d="M0.203,-0.514C0.204,-0.516 0.204,-0.519 0.204,-0.521C0.204,-0.541 0.185,-0.566 0.161,-0.569L0.154,-0.569C0.128,-0.569 0.107,-0.553 0.103,-0.53C0.102,-0.527 0.102,-0.524 0.102,-0.521C0.102,-0.498 0.124,-0.474 0.151,-0.474C0.181,-0.474 0.196,-0.491 0.203,-0.514ZM0.156,-0.336C0.159,-0.35 0.161,-0.36 0.161,-0.367C0.161,-0.385 0.152,-0.386 0.139,-0.386C0.108,-0.386 0.105,-0.377 0.103,-0.351C0.101,-0.321 0.091,-0.237 0.085,-0.194C0.079,-0.151 0.061,-0.075 0.056,-0.038C0.054,-0.028 0.053,-0.021 0.053,-0.016C0.053,-0.001 0.06,0.003 0.082,0.003C0.114,0.003 0.124,-0.015 0.124,-0.033L0.124,-0.041C0.124,-0.071 0.128,-0.146 0.134,-0.186C0.14,-0.23 0.144,-0.276 0.156,-0.336Z" style="fill-rule:nonzero;"/>
                    </g>
                    <g transform="matrix(66.6667,0,0,66.6667,391.935,111.877)">
                        <path d="M0.406,-0.249C0.407,-0.257 0.407,-0.266 0.407,-0.273C0.407,-0.311 0.393,-0.341 0.383,-0.356C0.372,-0.374 0.343,-0.391 0.305,-0.392L0.298,-0.392C0.265,-0.392 0.244,-0.38 0.205,-0.348C0.189,-0.335 0.178,-0.33 0.171,-0.33C0.165,-0.33 0.161,-0.333 0.16,-0.336C0.159,-0.339 0.158,-0.341 0.158,-0.345C0.158,-0.353 0.161,-0.361 0.162,-0.369C0.162,-0.371 0.163,-0.371 0.163,-0.373C0.163,-0.381 0.156,-0.389 0.137,-0.389C0.126,-0.389 0.106,-0.388 0.102,-0.379C0.101,-0.376 0.1,-0.372 0.099,-0.367C0.099,-0.361 0.099,-0.356 0.098,-0.349C0.096,-0.321 0.099,-0.258 0.093,-0.217C0.087,-0.176 0.079,-0.126 0.061,-0.06C0.056,-0.041 0.055,-0.029 0.055,-0.02C0.055,-0.001 0.064,0.004 0.083,0.004C0.086,0.004 0.091,0.003 0.095,0.003C0.116,0.002 0.12,-0.004 0.122,-0.007C0.123,-0.011 0.124,-0.016 0.124,-0.021C0.124,-0.026 0.123,-0.031 0.123,-0.034L0.123,-0.037C0.123,-0.064 0.13,-0.138 0.134,-0.171C0.139,-0.204 0.153,-0.259 0.178,-0.288C0.203,-0.318 0.239,-0.335 0.27,-0.335L0.282,-0.335C0.289,-0.335 0.296,-0.335 0.302,-0.333C0.311,-0.331 0.321,-0.325 0.334,-0.314C0.35,-0.301 0.354,-0.284 0.354,-0.263C0.354,-0.243 0.35,-0.219 0.346,-0.19C0.337,-0.133 0.325,-0.101 0.313,-0.045C0.311,-0.036 0.31,-0.027 0.31,-0.021C0.31,0.004 0.326,0.005 0.352,0.005C0.381,0.005 0.383,-0.016 0.383,-0.04L0.383,-0.05C0.384,-0.081 0.396,-0.197 0.406,-0.249Z" style="fill-rule:nonzero;"/>
                    </g>
                    <g transform="matrix(66.6667,0,0,66.6667,440.868,111.877)">
                        <path d="M0.587,-0.238C0.591,-0.259 0.592,-0.276 0.592,-0.29C0.592,-0.315 0.587,-0.331 0.577,-0.346C0.561,-0.371 0.53,-0.382 0.505,-0.382C0.48,-0.382 0.465,-0.376 0.441,-0.364C0.432,-0.359 0.421,-0.351 0.412,-0.344C0.401,-0.336 0.391,-0.329 0.386,-0.327C0.383,-0.326 0.381,-0.326 0.379,-0.326C0.366,-0.326 0.355,-0.333 0.342,-0.354C0.329,-0.376 0.307,-0.384 0.282,-0.384L0.27,-0.384C0.264,-0.384 0.258,-0.384 0.252,-0.382C0.243,-0.379 0.232,-0.373 0.211,-0.359C0.196,-0.348 0.186,-0.344 0.179,-0.344C0.173,-0.344 0.171,-0.346 0.169,-0.35C0.166,-0.353 0.166,-0.358 0.166,-0.363L0.166,-0.372C0.164,-0.381 0.151,-0.382 0.131,-0.382C0.117,-0.382 0.101,-0.374 0.099,-0.356C0.097,-0.331 0.09,-0.25 0.085,-0.211C0.079,-0.171 0.067,-0.103 0.056,-0.052L0.056,-0.048C0.052,-0.033 0.051,-0.023 0.051,-0.015C0.051,0.004 0.06,0.008 0.085,0.008C0.115,0.008 0.121,-0.006 0.121,-0.031L0.121,-0.053C0.121,-0.091 0.127,-0.161 0.135,-0.2C0.143,-0.244 0.159,-0.269 0.179,-0.292C0.197,-0.314 0.235,-0.331 0.259,-0.331L0.264,-0.331C0.287,-0.328 0.304,-0.317 0.311,-0.301C0.315,-0.293 0.316,-0.283 0.316,-0.269C0.316,-0.253 0.315,-0.233 0.311,-0.205C0.302,-0.15 0.281,-0.07 0.272,-0.032C0.27,-0.024 0.269,-0.017 0.269,-0.011C0.269,0.008 0.28,0.015 0.308,0.015C0.329,0.015 0.335,0.009 0.337,0.006C0.341,-0 0.341,-0.008 0.341,-0.015C0.341,-0.031 0.346,-0.129 0.351,-0.174C0.358,-0.221 0.381,-0.266 0.394,-0.286C0.41,-0.311 0.456,-0.323 0.474,-0.325L0.481,-0.325C0.5,-0.325 0.516,-0.317 0.532,-0.299C0.541,-0.289 0.544,-0.276 0.544,-0.261L0.544,-0.256C0.544,-0.239 0.54,-0.218 0.535,-0.189C0.525,-0.132 0.511,-0.087 0.497,-0.034C0.494,-0.022 0.493,-0.014 0.493,-0.007C0.493,0.008 0.5,0.014 0.516,0.014C0.523,0.014 0.531,0.013 0.541,0.011C0.562,0.009 0.569,-0.001 0.571,-0.015C0.572,-0.022 0.572,-0.03 0.572,-0.038C0.571,-0.049 0.571,-0.056 0.571,-0.063C0.571,-0.093 0.577,-0.18 0.587,-0.238Z" style="fill-rule:nonzero;"/>
                    </g>
                    <g transform="matrix(66.6667,0,0,66.6667,486.202,111.877)">
                        <path d="M0.431,-0.208C0.431,-0.214 0.431,-0.221 0.43,-0.229C0.427,-0.261 0.401,-0.314 0.378,-0.345C0.356,-0.373 0.309,-0.39 0.267,-0.392L0.257,-0.392C0.212,-0.392 0.174,-0.37 0.134,-0.346L0.128,-0.343C0.088,-0.32 0.05,-0.244 0.04,-0.184C0.038,-0.177 0.038,-0.171 0.038,-0.163C0.038,-0.111 0.069,-0.057 0.095,-0.024C0.122,0.012 0.19,0.013 0.225,0.013C0.256,0.013 0.283,0.005 0.301,-0.004C0.31,-0.008 0.321,-0.016 0.333,-0.026C0.346,-0.036 0.36,-0.046 0.374,-0.056C0.386,-0.064 0.393,-0.072 0.393,-0.082C0.393,-0.09 0.388,-0.099 0.377,-0.109C0.372,-0.113 0.368,-0.115 0.364,-0.115C0.36,-0.115 0.356,-0.112 0.351,-0.109C0.343,-0.101 0.336,-0.091 0.331,-0.081C0.321,-0.063 0.278,-0.043 0.229,-0.043L0.221,-0.043C0.187,-0.044 0.161,-0.054 0.138,-0.074L0.126,-0.086C0.113,-0.098 0.103,-0.13 0.103,-0.155C0.103,-0.161 0.104,-0.167 0.106,-0.172C0.11,-0.184 0.135,-0.191 0.165,-0.192C0.19,-0.192 0.218,-0.191 0.233,-0.191C0.254,-0.191 0.311,-0.19 0.356,-0.19C0.38,-0.19 0.4,-0.19 0.411,-0.191C0.427,-0.191 0.43,-0.195 0.431,-0.197L0.431,-0.208ZM0.368,-0.263C0.37,-0.259 0.371,-0.256 0.371,-0.252C0.371,-0.241 0.36,-0.232 0.341,-0.232C0.302,-0.232 0.259,-0.231 0.241,-0.231C0.224,-0.231 0.171,-0.232 0.16,-0.235C0.151,-0.236 0.13,-0.247 0.13,-0.265C0.13,-0.271 0.132,-0.277 0.138,-0.285C0.158,-0.307 0.206,-0.337 0.258,-0.337L0.262,-0.337C0.31,-0.335 0.322,-0.321 0.342,-0.299C0.352,-0.289 0.364,-0.275 0.368,-0.263Z" style="fill-rule:nonzero;"/>
                    </g>
                    <g transform="matrix(66.6667,0,0,66.6667,517.935,111.877)">
                        <path d="M0.587,-0.238C0.591,-0.259 0.592,-0.276 0.592,-0.29C0.592,-0.315 0.587,-0.331 0.577,-0.346C0.561,-0.371 0.53,-0.382 0.505,-0.382C0.48,-0.382 0.465,-0.376 0.441,-0.364C0.432,-0.359 0.421,-0.351 0.412,-0.344C0.401,-0.336 0.391,-0.329 0.386,-0.327C0.383,-0.326 0.381,-0.326 0.379,-0.326C0.366,-0.326 0.355,-0.333 0.342,-0.354C0.329,-0.376 0.307,-0.384 0.282,-0.384L0.27,-0.384C0.264,-0.384 0.258,-0.384 0.252,-0.382C0.243,-0.379 0.232,-0.373 0.211,-0.359C0.196,-0.348 0.186,-0.344 0.179,-0.344C0.173,-0.344 0.171,-0.346 0.169,-0.35C0.166,-0.353 0.166,-0.358 0.166,-0.363L0.166,-0.372C0.164,-0.381 0.151,-0.382 0.131,-0.382C0.117,-0.382 0.101,-0.374 0.099,-0.356C0.097,-0.331 0.09,-0.25 0.085,-0.211C0.079,-0.171 0.067,-0.103 0.056,-0.052L0.056,-0.048C0.052,-0.033 0.051,-0.023 0.051,-0.015C0.051,0.004 0.06,0.008 0.085,0.008C0.115,0.008 0.121,-0.006 0.121,-0.031L0.121,-0.053C0.121,-0.091 0.127,-0.161 0.135,-0.2C0.143,-0.244 0.159,-0.269 0.179,-0.292C0.197,-0.314 0.235,-0.331 0.259,-0.331L0.264,-0.331C0.287,-0.328 0.304,-0.317 0.311,-0.301C0.315,-0.293 0.316,-0.283 0.316,-0.269C0.316,-0.253 0.315,-0.233 0.311,-0.205C0.302,-0.15 0.281,-0.07 0.272,-0.032C0.27,-0.024 0.269,-0.017 0.269,-0.011C0.269,0.008 0.28,0.015 0.308,0.015C0.329,0.015 0.335,0.009 0.337,0.006C0.341,-0 0.341,-0.008 0.341,-0.015C0.341,-0.031 0.346,-0.129 0.351,-0.174C0.358,-0.221 0.381,-0.266 0.394,-0.286C0.41,-0.311 0.456,-0.323 0.474,-0.325L0.481,-0.325C0.5,-0.325 0.516,-0.317 0.532,-0.299C0.541,-0.289 0.544,-0.276 0.544,-0.261L0.544,-0.256C0.544,-0.239 0.54,-0.218 0.535,-0.189C0.525,-0.132 0.511,-0.087 0.497,-0.034C0.494,-0.022 0.493,-0.014 0.493,-0.007C0.493,0.008 0.5,0.014 0.516,0.014C0.523,0.014 0.531,0.013 0.541,0.011C0.562,0.009 0.569,-0.001 0.571,-0.015C0.572,-0.022 0.572,-0.03 0.572,-0.038C0.571,-0.049 0.571,-0.056 0.571,-0.063C0.571,-0.093 0.577,-0.18 0.587,-0.238Z" style="fill-rule:nonzero;"/>
                    </g>
                    <g transform="matrix(66.6667,0,0,66.6667,563.268,111.877)">
                        <path d="M0.448,-0.18C0.45,-0.191 0.451,-0.203 0.451,-0.214C0.451,-0.267 0.43,-0.309 0.408,-0.336C0.382,-0.367 0.337,-0.392 0.281,-0.394L0.276,-0.394C0.185,-0.394 0.14,-0.356 0.106,-0.326C0.072,-0.296 0.043,-0.251 0.034,-0.187C0.033,-0.18 0.032,-0.171 0.032,-0.164C0.032,-0.109 0.057,-0.058 0.082,-0.033C0.109,-0.006 0.151,0.014 0.207,0.014L0.214,0.014C0.276,0.012 0.326,0.004 0.375,-0.042C0.425,-0.09 0.436,-0.107 0.448,-0.18ZM0.392,-0.191C0.387,-0.153 0.366,-0.101 0.338,-0.082L0.316,-0.069C0.289,-0.052 0.259,-0.039 0.229,-0.039C0.226,-0.039 0.221,-0.039 0.217,-0.04C0.17,-0.046 0.147,-0.056 0.123,-0.09C0.105,-0.114 0.097,-0.135 0.097,-0.161C0.097,-0.17 0.098,-0.179 0.1,-0.189C0.106,-0.229 0.117,-0.267 0.161,-0.297C0.205,-0.326 0.236,-0.33 0.269,-0.33C0.319,-0.33 0.354,-0.316 0.371,-0.279C0.378,-0.262 0.385,-0.251 0.389,-0.238C0.391,-0.229 0.393,-0.22 0.393,-0.208C0.393,-0.202 0.393,-0.197 0.392,-0.191Z" style="fill-rule:nonzero;"/>
                    </g>
                    <g transform="matrix(66.6667,0,0,66.6667,596.402,111.877)">
                        <path d="M0.326,-0.38C0.321,-0.383 0.297,-0.391 0.269,-0.391C0.243,-0.391 0.201,-0.367 0.186,-0.342C0.181,-0.336 0.176,-0.33 0.171,-0.327C0.169,-0.326 0.167,-0.326 0.166,-0.326C0.161,-0.326 0.156,-0.329 0.156,-0.332C0.154,-0.336 0.153,-0.34 0.153,-0.345C0.153,-0.351 0.154,-0.356 0.156,-0.361L0.156,-0.365C0.156,-0.374 0.148,-0.385 0.128,-0.385C0.103,-0.385 0.099,-0.377 0.097,-0.372C0.096,-0.368 0.096,-0.362 0.096,-0.355L0.096,-0.331C0.093,-0.3 0.082,-0.226 0.076,-0.182C0.071,-0.139 0.062,-0.094 0.048,-0.036C0.045,-0.023 0.042,-0.015 0.042,-0.009C0.042,-0.006 0.044,-0.003 0.046,-0.002C0.048,-0.001 0.052,-0.001 0.061,-0.001C0.069,-0.002 0.08,-0.003 0.091,-0.003C0.124,-0.003 0.129,-0.031 0.129,-0.057C0.129,-0.066 0.128,-0.074 0.128,-0.081L0.128,-0.088C0.128,-0.123 0.137,-0.186 0.146,-0.231C0.155,-0.285 0.195,-0.315 0.231,-0.323C0.244,-0.326 0.253,-0.327 0.261,-0.327C0.275,-0.327 0.283,-0.324 0.296,-0.319C0.298,-0.317 0.3,-0.317 0.301,-0.317C0.304,-0.317 0.305,-0.318 0.306,-0.321C0.308,-0.322 0.311,-0.326 0.313,-0.331L0.322,-0.349C0.328,-0.361 0.331,-0.368 0.331,-0.372C0.331,-0.376 0.329,-0.378 0.326,-0.38Z" style="fill-rule:nonzero;"/>
                    </g>
                    <g transform="matrix(66.6667,0,0,66.6667,618.468,111.877)">
                        <path d="M0.203,-0.514C0.204,-0.516 0.204,-0.519 0.204,-0.521C0.204,-0.541 0.185,-0.566 0.161,-0.569L0.154,-0.569C0.128,-0.569 0.107,-0.553 0.103,-0.53C0.102,-0.527 0.102,-0.524 0.102,-0.521C0.102,-0.498 0.124,-0.474 0.151,-0.474C0.181,-0.474 0.196,-0.491 0.203,-0.514ZM0.156,-0.336C0.159,-0.35 0.161,-0.36 0.161,-0.367C0.161,-0.385 0.152,-0.386 0.139,-0.386C0.108,-0.386 0.105,-0.377 0.103,-0.351C0.101,-0.321 0.091,-0.237 0.085,-0.194C0.079,-0.151 0.061,-0.075 0.056,-0.038C0.054,-0.028 0.053,-0.021 0.053,-0.016C0.053,-0.001 0.06,0.003 0.082,0.003C0.114,0.003 0.124,-0.015 0.124,-0.033L0.124,-0.041C0.124,-0.071 0.128,-0.146 0.134,-0.186C0.14,-0.23 0.144,-0.276 0.156,-0.336Z" style="fill-rule:nonzero;"/>
                    </g>
                    <g transform="matrix(66.6667,0,0,66.6667,634.802,111.877)">
                        <path d="M0.455,-0.347C0.456,-0.352 0.456,-0.356 0.456,-0.36C0.456,-0.378 0.445,-0.379 0.429,-0.379L0.42,-0.379C0.406,-0.379 0.401,-0.378 0.4,-0.369C0.4,-0.349 0.392,-0.33 0.376,-0.325C0.375,-0.324 0.373,-0.324 0.372,-0.324C0.365,-0.324 0.356,-0.329 0.348,-0.337C0.341,-0.345 0.335,-0.354 0.328,-0.362C0.319,-0.376 0.279,-0.388 0.242,-0.388C0.183,-0.388 0.116,-0.352 0.08,-0.309C0.053,-0.277 0.038,-0.227 0.029,-0.186C0.027,-0.177 0.026,-0.168 0.026,-0.159C0.026,-0.121 0.039,-0.071 0.056,-0.045C0.077,-0.012 0.117,0.018 0.191,0.018C0.227,0.018 0.252,0.009 0.271,-0.002C0.28,-0.007 0.287,-0.013 0.293,-0.018L0.31,-0.032C0.317,-0.038 0.325,-0.041 0.331,-0.041C0.341,-0.041 0.348,-0.035 0.348,-0.024C0.348,-0.021 0.347,-0.016 0.346,-0.012C0.345,-0.011 0.345,-0.009 0.345,-0.007C0.345,-0 0.354,0.001 0.381,0.003L0.385,0.003C0.401,0.003 0.404,-0.001 0.406,-0.005C0.407,-0.007 0.408,-0.011 0.409,-0.016C0.409,-0.021 0.41,-0.026 0.411,-0.032L0.434,-0.202C0.441,-0.251 0.447,-0.306 0.455,-0.347ZM0.377,-0.233C0.378,-0.228 0.379,-0.223 0.379,-0.218C0.379,-0.209 0.377,-0.199 0.374,-0.186C0.365,-0.144 0.344,-0.094 0.306,-0.068C0.275,-0.047 0.254,-0.042 0.223,-0.042C0.216,-0.042 0.211,-0.043 0.203,-0.043C0.159,-0.046 0.123,-0.066 0.111,-0.092C0.104,-0.11 0.099,-0.131 0.099,-0.156C0.099,-0.167 0.1,-0.179 0.102,-0.191C0.11,-0.227 0.134,-0.288 0.155,-0.302C0.171,-0.313 0.216,-0.331 0.251,-0.331C0.257,-0.331 0.263,-0.331 0.269,-0.33L0.292,-0.325C0.301,-0.323 0.309,-0.321 0.317,-0.318C0.334,-0.312 0.349,-0.301 0.359,-0.279C0.363,-0.268 0.367,-0.261 0.37,-0.253C0.373,-0.246 0.376,-0.24 0.377,-0.233Z" style="fill-rule:nonzero;"/>
                    </g>
                    <g transform="matrix(66.6667,0,0,66.6667,669.335,111.877)">
                        <path d="M0.587,-0.238C0.591,-0.259 0.592,-0.276 0.592,-0.29C0.592,-0.315 0.587,-0.331 0.577,-0.346C0.561,-0.371 0.53,-0.382 0.505,-0.382C0.48,-0.382 0.465,-0.376 0.441,-0.364C0.432,-0.359 0.421,-0.351 0.412,-0.344C0.401,-0.336 0.391,-0.329 0.386,-0.327C0.383,-0.326 0.381,-0.326 0.379,-0.326C0.366,-0.326 0.355,-0.333 0.342,-0.354C0.329,-0.376 0.307,-0.384 0.282,-0.384L0.27,-0.384C0.264,-0.384 0.258,-0.384 0.252,-0.382C0.243,-0.379 0.232,-0.373 0.211,-0.359C0.196,-0.348 0.186,-0.344 0.179,-0.344C0.173,-0.344 0.171,-0.346 0.169,-0.35C0.166,-0.353 0.166,-0.358 0.166,-0.363L0.166,-0.372C0.164,-0.381 0.151,-0.382 0.131,-0.382C0.117,-0.382 0.101,-0.374 0.099,-0.356C0.097,-0.331 0.09,-0.25 0.085,-0.211C0.079,-0.171 0.067,-0.103 0.056,-0.052L0.056,-0.048C0.052,-0.033 0.051,-0.023 0.051,-0.015C0.051,0.004 0.06,0.008 0.085,0.008C0.115,0.008 0.121,-0.006 0.121,-0.031L0.121,-0.053C0.121,-0.091 0.127,-0.161 0.135,-0.2C0.143,-0.244 0.159,-0.269 0.179,-0.292C0.197,-0.314 0.235,-0.331 0.259,-0.331L0.264,-0.331C0.287,-0.328 0.304,-0.317 0.311,-0.301C0.315,-0.293 0.316,-0.283 0.316,-0.269C0.316,-0.253 0.315,-0.233 0.311,-0.205C0.302,-0.15 0.281,-0.07 0.272,-0.032C0.27,-0.024 0.269,-0.017 0.269,-0.011C0.269,0.008 0.28,0.015 0.308,0.015C0.329,0.015 0.335,0.009 0.337,0.006C0.341,-0 0.341,-0.008 0.341,-0.015C0.341,-0.031 0.346,-0.129 0.351,-0.174C0.358,-0.221 0.381,-0.266 0.394,-0.286C0.41,-0.311 0.456,-0.323 0.474,-0.325L0.481,-0.325C0.5,-0.325 0.516,-0.317 0.532,-0.299C0.541,-0.289 0.544,-0.276 0.544,-0.261L0.544,-0.256C0.544,-0.239 0.54,-0.218 0.535,-0.189C0.525,-0.132 0.511,-0.087 0.497,-0.034C0.494,-0.022 0.493,-0.014 0.493,-0.007C0.493,0.008 0.5,0.014 0.516,0.014C0.523,0.014 0.531,0.013 0.541,0.011C0.562,0.009 0.569,-0.001 0.571,-0.015C0.572,-0.022 0.572,-0.03 0.572,-0.038C0.571,-0.049 0.571,-0.056 0.571,-0.063C0.571,-0.093 0.577,-0.18 0.587,-0.238Z" style="fill-rule:nonzero;"/>
                    </g>
                    <g transform="matrix(66.6667,0,0,66.6667,731.335,111.877)">
                        <path d="M0.125,-0.599C0.111,-0.6 0.098,-0.603 0.087,-0.603C0.073,-0.603 0.064,-0.597 0.064,-0.571C0.064,-0.541 0.072,-0.509 0.072,-0.476C0.072,-0.445 0.071,-0.414 0.071,-0.383L0.071,-0.371C0.071,-0.326 0.069,-0.281 0.069,-0.236C0.069,-0.222 0.069,-0.207 0.07,-0.193C0.071,-0.169 0.073,-0.143 0.073,-0.118C0.073,-0.111 0.072,-0.103 0.072,-0.096C0.071,-0.076 0.057,-0.048 0.057,-0.026C0.057,-0.021 0.058,-0.016 0.061,-0.011C0.068,0.004 0.086,0.009 0.105,0.009C0.116,0.009 0.128,0.007 0.136,0.006C0.151,0.004 0.168,0.004 0.185,0.004C0.199,0.004 0.214,0.004 0.228,0.005C0.237,0.006 0.247,0.007 0.257,0.007C0.274,0.007 0.291,0.006 0.306,0.006L0.324,0.006C0.34,0.007 0.363,0.015 0.383,0.015C0.392,0.015 0.401,0.014 0.407,0.008C0.415,0.001 0.419,-0.027 0.419,-0.052C0.419,-0.067 0.417,-0.08 0.414,-0.086C0.407,-0.097 0.375,-0.101 0.351,-0.101C0.342,-0.101 0.336,-0.101 0.331,-0.1C0.318,-0.097 0.309,-0.091 0.296,-0.091C0.294,-0.091 0.291,-0.091 0.289,-0.092C0.277,-0.094 0.268,-0.096 0.256,-0.096L0.241,-0.096C0.231,-0.095 0.224,-0.094 0.217,-0.094C0.198,-0.094 0.181,-0.099 0.176,-0.123C0.172,-0.136 0.171,-0.149 0.171,-0.162C0.171,-0.179 0.174,-0.197 0.174,-0.213L0.174,-0.236C0.174,-0.258 0.176,-0.28 0.205,-0.281L0.237,-0.281C0.286,-0.281 0.341,-0.279 0.392,-0.277L0.399,-0.277C0.415,-0.277 0.417,-0.282 0.417,-0.299L0.417,-0.321C0.417,-0.336 0.416,-0.352 0.413,-0.365C0.396,-0.374 0.377,-0.376 0.357,-0.376C0.346,-0.376 0.336,-0.376 0.326,-0.375C0.296,-0.372 0.267,-0.372 0.238,-0.371L0.222,-0.371C0.196,-0.371 0.176,-0.376 0.171,-0.411C0.17,-0.419 0.17,-0.427 0.17,-0.434C0.17,-0.453 0.173,-0.469 0.181,-0.491C0.187,-0.507 0.19,-0.51 0.203,-0.51L0.211,-0.51C0.226,-0.509 0.241,-0.508 0.257,-0.508C0.291,-0.508 0.321,-0.506 0.353,-0.506C0.386,-0.506 0.412,-0.507 0.416,-0.545L0.416,-0.569C0.416,-0.59 0.411,-0.602 0.381,-0.604C0.351,-0.605 0.319,-0.606 0.291,-0.606C0.242,-0.606 0.193,-0.598 0.145,-0.598C0.138,-0.598 0.131,-0.599 0.125,-0.599Z" style="fill-rule:nonzero;"/>
                    </g>
                    <g transform="matrix(66.6667,0,0,66.6667,761.668,111.877)">
                        <path d="M0.068,-0.641C0.064,-0.63 0.062,-0.619 0.062,-0.607C0.062,-0.586 0.067,-0.565 0.068,-0.545C0.072,-0.476 0.071,-0.407 0.074,-0.337C0.075,-0.311 0.076,-0.285 0.076,-0.258C0.076,-0.216 0.074,-0.173 0.072,-0.131C0.071,-0.098 0.067,-0.066 0.066,-0.035L0.066,-0.031C0.066,-0.002 0.083,0.004 0.106,0.004C0.112,0.004 0.12,0.003 0.137,0.002C0.151,0.002 0.174,-0 0.181,-0.011C0.185,-0.017 0.186,-0.025 0.186,-0.033C0.186,-0.046 0.183,-0.059 0.183,-0.069C0.181,-0.097 0.178,-0.126 0.178,-0.154C0.178,-0.225 0.176,-0.294 0.176,-0.365L0.176,-0.429C0.176,-0.466 0.176,-0.502 0.18,-0.539C0.182,-0.564 0.187,-0.589 0.187,-0.615L0.187,-0.625C0.186,-0.649 0.172,-0.651 0.156,-0.651L0.136,-0.651C0.123,-0.651 0.107,-0.657 0.093,-0.657C0.082,-0.657 0.073,-0.654 0.068,-0.641Z" style="fill-rule:nonzero;"/>
                    </g>
                    <g transform="matrix(66.6667,0,0,66.6667,778.002,111.877)">
                        <path d="M0.05,-0.506C0.064,-0.482 0.088,-0.472 0.112,-0.472C0.149,-0.472 0.186,-0.496 0.194,-0.533C0.195,-0.536 0.195,-0.541 0.195,-0.544C0.195,-0.584 0.152,-0.621 0.112,-0.621C0.108,-0.621 0.103,-0.62 0.099,-0.619C0.065,-0.611 0.041,-0.575 0.041,-0.54C0.041,-0.528 0.043,-0.516 0.05,-0.506ZM0.071,-0.369C0.066,-0.361 0.066,-0.351 0.066,-0.341C0.066,-0.318 0.072,-0.293 0.073,-0.273C0.074,-0.249 0.075,-0.224 0.075,-0.2C0.075,-0.159 0.073,-0.118 0.069,-0.078C0.067,-0.066 0.065,-0.05 0.065,-0.036C0.065,-0.018 0.069,-0.004 0.087,-0C0.095,0.002 0.114,0.004 0.132,0.004C0.151,0.004 0.169,0.002 0.174,-0.004C0.18,-0.011 0.182,-0.022 0.182,-0.036C0.182,-0.056 0.177,-0.08 0.176,-0.091C0.174,-0.121 0.172,-0.157 0.172,-0.183C0.173,-0.219 0.177,-0.256 0.177,-0.291L0.177,-0.311C0.177,-0.321 0.178,-0.331 0.178,-0.341C0.178,-0.351 0.177,-0.361 0.175,-0.369C0.171,-0.38 0.161,-0.382 0.15,-0.382C0.141,-0.382 0.131,-0.381 0.123,-0.381L0.119,-0.381C0.111,-0.381 0.102,-0.384 0.094,-0.384C0.085,-0.384 0.076,-0.381 0.071,-0.369Z" style="fill-rule:nonzero;"/>
                    </g>
                    <g transform="matrix(66.6667,0,0,66.6667,811.002,111.877)">
                        <path d="M0.066,-0.596L0.061,-0.587C0.059,-0.583 0.059,-0.576 0.059,-0.571C0.059,-0.551 0.066,-0.529 0.066,-0.513C0.066,-0.474 0.064,-0.436 0.064,-0.399C0.064,-0.366 0.065,-0.333 0.066,-0.301L0.07,-0.219C0.071,-0.209 0.071,-0.2 0.071,-0.19L0.071,-0.176C0.071,-0.161 0.071,-0.146 0.072,-0.131C0.073,-0.122 0.073,-0.113 0.073,-0.104C0.073,-0.091 0.072,-0.079 0.072,-0.066C0.071,-0.053 0.066,-0.039 0.066,-0.025L0.066,-0.018C0.069,0.004 0.083,0.01 0.101,0.01C0.108,0.01 0.117,0.009 0.126,0.007C0.148,0.003 0.171,0.001 0.194,0.001C0.211,0.001 0.228,0.002 0.246,0.004C0.261,0.005 0.28,0.009 0.297,0.009L0.31,0.009C0.327,0.006 0.357,0.011 0.368,-0.008C0.372,-0.016 0.374,-0.026 0.374,-0.036C0.374,-0.054 0.37,-0.072 0.365,-0.084C0.361,-0.093 0.29,-0.095 0.279,-0.095C0.256,-0.095 0.236,-0.088 0.216,-0.088C0.208,-0.088 0.201,-0.089 0.193,-0.092C0.176,-0.1 0.174,-0.123 0.174,-0.144L0.174,-0.171C0.173,-0.186 0.173,-0.201 0.173,-0.216C0.173,-0.267 0.176,-0.317 0.179,-0.367C0.18,-0.391 0.181,-0.416 0.181,-0.44L0.181,-0.457C0.181,-0.487 0.181,-0.517 0.183,-0.547C0.184,-0.557 0.188,-0.57 0.188,-0.581C0.188,-0.588 0.186,-0.595 0.181,-0.601C0.175,-0.606 0.166,-0.607 0.158,-0.607C0.146,-0.607 0.134,-0.604 0.125,-0.604C0.111,-0.604 0.101,-0.606 0.091,-0.606C0.081,-0.606 0.071,-0.604 0.066,-0.596Z" style="fill-rule:nonzero;"/>
                    </g>
                    <g transform="matrix(66.6667,0,0,66.6667,838.735,111.877)">
                        <path d="M0.171,-0.381C0.14,-0.373 0.111,-0.359 0.088,-0.333C0.055,-0.295 0.046,-0.251 0.046,-0.206C0.046,-0.19 0.047,-0.173 0.049,-0.156C0.056,-0.088 0.086,-0.043 0.145,-0.007C0.176,0.012 0.205,0.021 0.236,0.021C0.261,0.021 0.286,0.015 0.313,0.004C0.346,-0.01 0.387,-0.024 0.411,-0.052C0.415,-0.058 0.417,-0.064 0.417,-0.07C0.417,-0.093 0.387,-0.116 0.363,-0.116C0.359,-0.116 0.356,-0.115 0.352,-0.114C0.327,-0.104 0.313,-0.078 0.286,-0.072C0.28,-0.071 0.273,-0.071 0.266,-0.071L0.243,-0.071C0.216,-0.071 0.188,-0.076 0.169,-0.097C0.158,-0.109 0.146,-0.131 0.146,-0.148C0.146,-0.151 0.146,-0.154 0.147,-0.157C0.151,-0.173 0.166,-0.176 0.181,-0.176C0.195,-0.176 0.209,-0.174 0.22,-0.174C0.231,-0.174 0.238,-0.175 0.246,-0.175C0.29,-0.175 0.334,-0.17 0.378,-0.17L0.386,-0.17C0.416,-0.17 0.432,-0.171 0.432,-0.197C0.432,-0.201 0.432,-0.206 0.431,-0.211C0.427,-0.243 0.426,-0.273 0.41,-0.302C0.381,-0.355 0.321,-0.4 0.26,-0.4C0.229,-0.4 0.2,-0.388 0.171,-0.381ZM0.174,-0.303C0.191,-0.316 0.216,-0.324 0.241,-0.324C0.274,-0.324 0.307,-0.311 0.321,-0.283C0.323,-0.278 0.325,-0.271 0.325,-0.265C0.325,-0.256 0.322,-0.246 0.317,-0.241C0.308,-0.233 0.286,-0.235 0.274,-0.234L0.266,-0.234C0.246,-0.234 0.227,-0.236 0.207,-0.236C0.18,-0.236 0.151,-0.245 0.151,-0.266C0.151,-0.273 0.156,-0.283 0.166,-0.295C0.168,-0.298 0.171,-0.301 0.174,-0.303Z" style="fill-rule:nonzero;"/>
                    </g>
                    <g transform="matrix(66.6667,0,0,66.6667,870.468,111.877)">
                        <path d="M0.011,-0.367C0.017,-0.341 0.052,-0.3 0.061,-0.285C0.091,-0.231 0.116,-0.171 0.142,-0.115C0.157,-0.082 0.171,-0.048 0.182,-0.014C0.188,0.006 0.201,0.025 0.216,0.025C0.222,0.025 0.231,0.021 0.238,0.01C0.257,-0.016 0.261,-0.052 0.273,-0.081C0.288,-0.119 0.304,-0.161 0.323,-0.196C0.341,-0.231 0.354,-0.268 0.371,-0.303C0.378,-0.318 0.407,-0.356 0.407,-0.378C0.407,-0.383 0.406,-0.388 0.401,-0.391C0.398,-0.393 0.393,-0.394 0.387,-0.394C0.376,-0.394 0.362,-0.39 0.354,-0.39C0.346,-0.39 0.336,-0.391 0.327,-0.391C0.321,-0.391 0.314,-0.391 0.309,-0.388C0.294,-0.38 0.291,-0.356 0.285,-0.341C0.276,-0.318 0.27,-0.294 0.259,-0.271C0.251,-0.255 0.241,-0.198 0.216,-0.198C0.212,-0.198 0.21,-0.199 0.206,-0.201C0.19,-0.21 0.189,-0.241 0.183,-0.257C0.178,-0.271 0.166,-0.283 0.16,-0.296C0.148,-0.322 0.148,-0.366 0.126,-0.385C0.117,-0.391 0.106,-0.393 0.094,-0.393C0.082,-0.393 0.069,-0.391 0.057,-0.391C0.054,-0.391 0.051,-0.391 0.047,-0.392C0.041,-0.393 0.037,-0.393 0.033,-0.393C0.016,-0.393 0.009,-0.386 0.009,-0.376C0.009,-0.373 0.01,-0.371 0.011,-0.367Z" style="fill-rule:nonzero;"/>
                    </g>
                    <g transform="matrix(66.6667,0,0,66.6667,898.202,111.877)">
                        <path d="M0.036,-0.376C0.035,-0.372 0.034,-0.368 0.034,-0.365C0.034,-0.338 0.06,-0.309 0.073,-0.289C0.109,-0.234 0.135,-0.173 0.164,-0.116C0.171,-0.102 0.181,-0.09 0.187,-0.076C0.189,-0.072 0.19,-0.067 0.19,-0.063C0.19,-0.051 0.184,-0.041 0.179,-0.029C0.165,0.004 0.148,0.039 0.131,0.072C0.116,0.104 0.096,0.131 0.079,0.162C0.075,0.17 0.071,0.179 0.071,0.184C0.071,0.19 0.074,0.194 0.081,0.197C0.086,0.199 0.091,0.199 0.096,0.199C0.11,0.199 0.126,0.196 0.136,0.195C0.149,0.195 0.159,0.199 0.17,0.199C0.173,0.199 0.177,0.198 0.181,0.197C0.201,0.191 0.199,0.174 0.206,0.158C0.217,0.126 0.227,0.094 0.24,0.063C0.279,-0.032 0.326,-0.121 0.374,-0.211L0.38,-0.222C0.398,-0.257 0.409,-0.294 0.427,-0.328C0.436,-0.344 0.443,-0.358 0.443,-0.368C0.443,-0.38 0.434,-0.386 0.409,-0.386C0.395,-0.386 0.381,-0.389 0.37,-0.389C0.353,-0.389 0.34,-0.384 0.331,-0.361C0.309,-0.303 0.282,-0.246 0.26,-0.187C0.253,-0.17 0.246,-0.164 0.241,-0.164C0.232,-0.164 0.225,-0.186 0.218,-0.207C0.21,-0.235 0.196,-0.261 0.183,-0.287C0.17,-0.314 0.167,-0.346 0.149,-0.371C0.137,-0.386 0.128,-0.39 0.118,-0.39C0.109,-0.39 0.098,-0.386 0.085,-0.386L0.079,-0.386C0.071,-0.387 0.062,-0.39 0.055,-0.39C0.046,-0.39 0.039,-0.387 0.036,-0.376Z" style="fill-rule:nonzero;"/>
                    </g>
                    <g transform="matrix(66.6667,0,0,66.6667,946.068,111.877)">
                        <path d="M0.071,-0.602C0.062,-0.595 0.059,-0.583 0.059,-0.57C0.059,-0.551 0.066,-0.529 0.066,-0.515C0.069,-0.47 0.071,-0.424 0.071,-0.38C0.071,-0.361 0.071,-0.343 0.07,-0.325C0.069,-0.309 0.069,-0.294 0.069,-0.278C0.069,-0.23 0.072,-0.181 0.082,-0.136C0.082,-0.135 0.083,-0.133 0.083,-0.132C0.083,-0.131 0.084,-0.13 0.084,-0.129C0.09,-0.101 0.095,-0.079 0.119,-0.056C0.139,-0.037 0.161,-0.018 0.186,-0.006C0.216,0.009 0.251,0.014 0.286,0.014C0.315,0.014 0.344,0.01 0.371,0.005C0.426,-0.006 0.476,-0.037 0.501,-0.089C0.514,-0.119 0.527,-0.142 0.527,-0.176C0.527,-0.209 0.527,-0.241 0.53,-0.274C0.53,-0.282 0.531,-0.291 0.531,-0.3C0.531,-0.348 0.524,-0.396 0.524,-0.444C0.524,-0.451 0.525,-0.457 0.525,-0.464C0.526,-0.497 0.533,-0.527 0.537,-0.56L0.537,-0.566C0.537,-0.597 0.506,-0.596 0.481,-0.599C0.471,-0.6 0.46,-0.603 0.45,-0.603C0.441,-0.603 0.431,-0.601 0.425,-0.591C0.415,-0.579 0.415,-0.556 0.415,-0.54L0.415,-0.528C0.415,-0.496 0.42,-0.464 0.421,-0.432C0.424,-0.391 0.426,-0.347 0.426,-0.305L0.426,-0.241C0.423,-0.192 0.417,-0.112 0.366,-0.088C0.348,-0.08 0.327,-0.075 0.306,-0.075C0.273,-0.075 0.24,-0.086 0.219,-0.109C0.176,-0.157 0.176,-0.204 0.176,-0.271C0.176,-0.302 0.174,-0.334 0.174,-0.366C0.174,-0.399 0.18,-0.43 0.181,-0.461C0.183,-0.49 0.191,-0.518 0.192,-0.546C0.192,-0.551 0.193,-0.557 0.193,-0.564C0.193,-0.573 0.192,-0.583 0.188,-0.59C0.181,-0.602 0.166,-0.605 0.15,-0.605C0.141,-0.605 0.131,-0.604 0.123,-0.604C0.12,-0.604 0.117,-0.605 0.115,-0.605C0.106,-0.606 0.097,-0.609 0.089,-0.609C0.082,-0.609 0.076,-0.607 0.071,-0.602Z" style="fill-rule:nonzero;"/>
                    </g>
                    <g transform="matrix(66.6667,0,0,66.6667,986.068,111.877)">
                        <path d="M0.191,-0.515C0.185,-0.523 0.174,-0.525 0.164,-0.525C0.157,-0.525 0.151,-0.524 0.146,-0.524C0.112,-0.522 0.086,-0.527 0.086,-0.484C0.086,-0.468 0.094,-0.442 0.094,-0.421C0.094,-0.409 0.091,-0.397 0.083,-0.391C0.078,-0.386 0.072,-0.385 0.066,-0.385C0.061,-0.385 0.056,-0.386 0.051,-0.386C0.046,-0.386 0.042,-0.386 0.039,-0.384C0.023,-0.377 0.023,-0.361 0.021,-0.346C0.02,-0.34 0.019,-0.335 0.019,-0.329C0.019,-0.321 0.021,-0.312 0.029,-0.306C0.046,-0.294 0.071,-0.308 0.084,-0.291C0.092,-0.28 0.094,-0.26 0.094,-0.24C0.094,-0.221 0.092,-0.201 0.092,-0.189C0.092,-0.159 0.091,-0.13 0.09,-0.1C0.089,-0.084 0.082,-0.054 0.082,-0.031C0.082,-0.021 0.084,-0.011 0.088,-0.006C0.096,0.004 0.113,0.006 0.128,0.006C0.135,0.006 0.141,0.005 0.146,0.005C0.154,0.005 0.161,0.006 0.167,0.006C0.178,0.006 0.186,0.004 0.191,-0.009C0.193,-0.016 0.194,-0.021 0.194,-0.028C0.194,-0.042 0.189,-0.057 0.187,-0.072C0.186,-0.091 0.186,-0.111 0.186,-0.129C0.184,-0.154 0.184,-0.179 0.184,-0.204C0.184,-0.219 0.184,-0.235 0.185,-0.25C0.186,-0.261 0.186,-0.271 0.187,-0.281C0.194,-0.328 0.264,-0.28 0.264,-0.332L0.264,-0.356C0.264,-0.364 0.263,-0.372 0.257,-0.377C0.252,-0.381 0.247,-0.382 0.241,-0.382C0.231,-0.382 0.22,-0.378 0.21,-0.378C0.205,-0.378 0.2,-0.379 0.196,-0.383C0.19,-0.388 0.189,-0.4 0.189,-0.41L0.189,-0.425C0.189,-0.44 0.196,-0.467 0.196,-0.49C0.196,-0.5 0.194,-0.509 0.191,-0.515Z" style="fill-rule:nonzero;"/>
                    </g>
                    <g transform="matrix(66.6667,0,0,66.6667,1005,111.877)">
                        <path d="M0.191,-0.515C0.185,-0.523 0.174,-0.525 0.164,-0.525C0.157,-0.525 0.151,-0.524 0.146,-0.524C0.112,-0.522 0.086,-0.527 0.086,-0.484C0.086,-0.468 0.094,-0.442 0.094,-0.421C0.094,-0.409 0.091,-0.397 0.083,-0.391C0.078,-0.386 0.072,-0.385 0.066,-0.385C0.061,-0.385 0.056,-0.386 0.051,-0.386C0.046,-0.386 0.042,-0.386 0.039,-0.384C0.023,-0.377 0.023,-0.361 0.021,-0.346C0.02,-0.34 0.019,-0.335 0.019,-0.329C0.019,-0.321 0.021,-0.312 0.029,-0.306C0.046,-0.294 0.071,-0.308 0.084,-0.291C0.092,-0.28 0.094,-0.26 0.094,-0.24C0.094,-0.221 0.092,-0.201 0.092,-0.189C0.092,-0.159 0.091,-0.13 0.09,-0.1C0.089,-0.084 0.082,-0.054 0.082,-0.031C0.082,-0.021 0.084,-0.011 0.088,-0.006C0.096,0.004 0.113,0.006 0.128,0.006C0.135,0.006 0.141,0.005 0.146,0.005C0.154,0.005 0.161,0.006 0.167,0.006C0.178,0.006 0.186,0.004 0.191,-0.009C0.193,-0.016 0.194,-0.021 0.194,-0.028C0.194,-0.042 0.189,-0.057 0.187,-0.072C0.186,-0.091 0.186,-0.111 0.186,-0.129C0.184,-0.154 0.184,-0.179 0.184,-0.204C0.184,-0.219 0.184,-0.235 0.185,-0.25C0.186,-0.261 0.186,-0.271 0.187,-0.281C0.194,-0.328 0.264,-0.28 0.264,-0.332L0.264,-0.356C0.264,-0.364 0.263,-0.372 0.257,-0.377C0.252,-0.381 0.247,-0.382 0.241,-0.382C0.231,-0.382 0.22,-0.378 0.21,-0.378C0.205,-0.378 0.2,-0.379 0.196,-0.383C0.19,-0.388 0.189,-0.4 0.189,-0.41L0.189,-0.425C0.189,-0.44 0.196,-0.467 0.196,-0.49C0.196,-0.5 0.194,-0.509 0.191,-0.515Z" style="fill-rule:nonzero;"/>
                    </g>
                    <g transform="matrix(66.6667,0,0,66.6667,1023.93,111.877)">
                        <path d="M0.171,-0.381C0.14,-0.373 0.111,-0.359 0.088,-0.333C0.055,-0.295 0.046,-0.251 0.046,-0.206C0.046,-0.19 0.047,-0.173 0.049,-0.156C0.056,-0.088 0.086,-0.043 0.145,-0.007C0.176,0.012 0.205,0.021 0.236,0.021C0.261,0.021 0.286,0.015 0.313,0.004C0.346,-0.01 0.387,-0.024 0.411,-0.052C0.415,-0.058 0.417,-0.064 0.417,-0.07C0.417,-0.093 0.387,-0.116 0.363,-0.116C0.359,-0.116 0.356,-0.115 0.352,-0.114C0.327,-0.104 0.313,-0.078 0.286,-0.072C0.28,-0.071 0.273,-0.071 0.266,-0.071L0.243,-0.071C0.216,-0.071 0.188,-0.076 0.169,-0.097C0.158,-0.109 0.146,-0.131 0.146,-0.148C0.146,-0.151 0.146,-0.154 0.147,-0.157C0.151,-0.173 0.166,-0.176 0.181,-0.176C0.195,-0.176 0.209,-0.174 0.22,-0.174C0.231,-0.174 0.238,-0.175 0.246,-0.175C0.29,-0.175 0.334,-0.17 0.378,-0.17L0.386,-0.17C0.416,-0.17 0.432,-0.171 0.432,-0.197C0.432,-0.201 0.432,-0.206 0.431,-0.211C0.427,-0.243 0.426,-0.273 0.41,-0.302C0.381,-0.355 0.321,-0.4 0.26,-0.4C0.229,-0.4 0.2,-0.388 0.171,-0.381ZM0.174,-0.303C0.191,-0.316 0.216,-0.324 0.241,-0.324C0.274,-0.324 0.307,-0.311 0.321,-0.283C0.323,-0.278 0.325,-0.271 0.325,-0.265C0.325,-0.256 0.322,-0.246 0.317,-0.241C0.308,-0.233 0.286,-0.235 0.274,-0.234L0.266,-0.234C0.246,-0.234 0.227,-0.236 0.207,-0.236C0.18,-0.236 0.151,-0.245 0.151,-0.266C0.151,-0.273 0.156,-0.283 0.166,-0.295C0.168,-0.298 0.171,-0.301 0.174,-0.303Z" style="fill-rule:nonzero;"/>
                    </g>
                    <g transform="matrix(66.6667,0,0,66.6667,1055.67,111.877)">
                        <path d="M0.058,-0.365C0.057,-0.359 0.056,-0.352 0.056,-0.346C0.056,-0.311 0.066,-0.268 0.068,-0.251C0.069,-0.24 0.069,-0.228 0.069,-0.216C0.069,-0.186 0.067,-0.156 0.066,-0.126C0.064,-0.101 0.061,-0.074 0.061,-0.048C0.061,-0.039 0.061,-0.029 0.062,-0.021C0.065,-0.001 0.076,0.004 0.092,0.004C0.105,0.004 0.121,-0 0.134,-0L0.136,-0C0.145,0.001 0.152,0.003 0.157,0.003C0.165,0.003 0.169,-0 0.173,-0.011C0.175,-0.016 0.176,-0.022 0.176,-0.029C0.176,-0.039 0.174,-0.05 0.173,-0.058C0.169,-0.088 0.166,-0.119 0.166,-0.149C0.166,-0.171 0.168,-0.192 0.171,-0.214C0.177,-0.251 0.198,-0.3 0.242,-0.3C0.245,-0.3 0.248,-0.299 0.251,-0.299C0.264,-0.297 0.273,-0.295 0.281,-0.295C0.292,-0.295 0.299,-0.299 0.306,-0.316C0.311,-0.329 0.321,-0.351 0.321,-0.369C0.321,-0.376 0.32,-0.384 0.314,-0.39C0.306,-0.398 0.29,-0.401 0.275,-0.401C0.266,-0.401 0.259,-0.4 0.253,-0.399C0.221,-0.395 0.212,-0.377 0.189,-0.361C0.185,-0.358 0.185,-0.356 0.179,-0.354C0.17,-0.356 0.168,-0.359 0.168,-0.363L0.168,-0.367C0.168,-0.37 0.168,-0.371 0.167,-0.374C0.161,-0.386 0.149,-0.387 0.136,-0.387C0.129,-0.387 0.121,-0.386 0.115,-0.386C0.112,-0.386 0.11,-0.386 0.107,-0.387C0.099,-0.388 0.091,-0.392 0.083,-0.392C0.08,-0.392 0.077,-0.392 0.074,-0.391C0.066,-0.386 0.061,-0.377 0.058,-0.365Z" style="fill-rule:nonzero;"/>
                    </g>
                    <g transform="matrix(66.6667,0,0,66.6667,1077.73,111.877)">
                        <path d="M0.125,-0.665C0.116,-0.665 0.099,-0.667 0.086,-0.667C0.079,-0.667 0.073,-0.666 0.069,-0.665C0.056,-0.658 0.055,-0.646 0.054,-0.632C0.054,-0.626 0.053,-0.621 0.053,-0.617C0.053,-0.591 0.057,-0.563 0.059,-0.536C0.062,-0.471 0.064,-0.406 0.065,-0.344C0.066,-0.279 0.069,-0.216 0.069,-0.149L0.069,-0.125C0.069,-0.101 0.068,-0.076 0.065,-0.053C0.063,-0.043 0.057,-0.029 0.057,-0.016C0.057,-0.014 0.058,-0.011 0.059,-0.008C0.062,0.004 0.071,0.005 0.083,0.005L0.096,0.005C0.103,0.006 0.111,0.007 0.12,0.007C0.128,0.007 0.136,0.006 0.142,0.003C0.159,-0.005 0.153,-0.018 0.161,-0.03C0.165,-0.036 0.168,-0.039 0.171,-0.039C0.177,-0.039 0.182,-0.033 0.191,-0.027C0.203,-0.02 0.214,-0.013 0.227,-0.006C0.249,0.004 0.271,0.009 0.293,0.009C0.329,0.009 0.365,-0.003 0.397,-0.021C0.444,-0.048 0.472,-0.134 0.477,-0.184C0.478,-0.191 0.478,-0.198 0.478,-0.206C0.478,-0.306 0.409,-0.399 0.302,-0.4C0.282,-0.4 0.261,-0.398 0.241,-0.391C0.221,-0.385 0.21,-0.366 0.188,-0.36C0.186,-0.359 0.184,-0.359 0.181,-0.359C0.163,-0.359 0.158,-0.39 0.158,-0.425C0.158,-0.464 0.165,-0.509 0.165,-0.521C0.165,-0.541 0.167,-0.563 0.168,-0.585C0.169,-0.599 0.171,-0.613 0.171,-0.625C0.171,-0.648 0.163,-0.665 0.125,-0.665ZM0.155,-0.181C0.154,-0.187 0.153,-0.195 0.153,-0.202C0.153,-0.239 0.165,-0.275 0.198,-0.295C0.221,-0.309 0.244,-0.316 0.266,-0.316C0.297,-0.316 0.326,-0.303 0.352,-0.278C0.372,-0.258 0.381,-0.231 0.381,-0.204C0.381,-0.171 0.369,-0.138 0.351,-0.113C0.331,-0.088 0.302,-0.077 0.272,-0.077C0.243,-0.077 0.213,-0.088 0.191,-0.107C0.17,-0.127 0.159,-0.152 0.155,-0.181Z" style="fill-rule:nonzero;"/>
                    </g>
                    <g transform="matrix(66.6667,0,0,66.6667,1112.27,111.877)">
                        <path d="M0.068,-0.316C0.046,-0.277 0.036,-0.231 0.036,-0.186C0.036,-0.166 0.038,-0.145 0.042,-0.126C0.055,-0.066 0.103,-0.016 0.157,0.004C0.181,0.012 0.209,0.019 0.236,0.019C0.268,0.019 0.3,0.009 0.322,-0.014C0.333,-0.025 0.341,-0.057 0.354,-0.057C0.358,-0.057 0.363,-0.054 0.369,-0.046C0.377,-0.034 0.371,-0.015 0.381,-0.005C0.385,-0 0.396,0.002 0.41,0.002C0.431,0.002 0.455,-0.003 0.46,-0.011C0.461,-0.014 0.462,-0.019 0.462,-0.025C0.462,-0.04 0.459,-0.059 0.459,-0.068L0.459,-0.084C0.459,-0.107 0.456,-0.131 0.454,-0.155C0.451,-0.176 0.451,-0.199 0.451,-0.221C0.451,-0.253 0.452,-0.286 0.454,-0.316C0.454,-0.326 0.457,-0.34 0.457,-0.352C0.457,-0.361 0.456,-0.369 0.451,-0.375C0.442,-0.384 0.423,-0.386 0.406,-0.386C0.396,-0.386 0.386,-0.386 0.38,-0.385C0.365,-0.384 0.363,-0.376 0.363,-0.37L0.363,-0.361C0.363,-0.353 0.361,-0.348 0.348,-0.348C0.327,-0.348 0.311,-0.376 0.295,-0.385C0.276,-0.394 0.251,-0.4 0.231,-0.401L0.224,-0.401C0.196,-0.401 0.154,-0.393 0.131,-0.381C0.104,-0.368 0.082,-0.343 0.068,-0.316ZM0.192,-0.287C0.207,-0.299 0.226,-0.306 0.247,-0.306C0.251,-0.306 0.256,-0.306 0.261,-0.305C0.285,-0.302 0.313,-0.287 0.33,-0.271C0.349,-0.251 0.359,-0.221 0.359,-0.192C0.359,-0.163 0.349,-0.134 0.329,-0.114C0.309,-0.094 0.274,-0.081 0.241,-0.081C0.227,-0.081 0.214,-0.084 0.202,-0.09C0.166,-0.108 0.148,-0.154 0.148,-0.194C0.148,-0.201 0.148,-0.209 0.15,-0.216C0.155,-0.246 0.17,-0.271 0.192,-0.287Z" style="fill-rule:nonzero;"/>
                    </g>
                    <g transform="matrix(66.6667,0,0,66.6667,1146.8,111.877)">
                        <path d="M0.066,-0.302C0.053,-0.275 0.048,-0.242 0.046,-0.206L0.046,-0.193C0.046,-0.172 0.048,-0.15 0.051,-0.129C0.066,-0.031 0.152,0.014 0.241,0.014C0.258,0.014 0.275,0.013 0.291,0.009C0.301,0.008 0.311,0.007 0.322,0.003C0.346,-0.006 0.353,-0.027 0.353,-0.051L0.353,-0.064C0.353,-0.075 0.356,-0.087 0.356,-0.096C0.356,-0.106 0.353,-0.112 0.341,-0.113L0.337,-0.113C0.321,-0.113 0.304,-0.102 0.291,-0.097C0.273,-0.091 0.258,-0.086 0.243,-0.086C0.223,-0.086 0.203,-0.094 0.181,-0.107C0.159,-0.121 0.146,-0.138 0.138,-0.162C0.136,-0.171 0.134,-0.181 0.134,-0.191C0.134,-0.221 0.144,-0.256 0.162,-0.273C0.181,-0.292 0.213,-0.302 0.242,-0.302C0.26,-0.302 0.276,-0.299 0.291,-0.293C0.306,-0.286 0.321,-0.267 0.339,-0.267C0.341,-0.267 0.341,-0.268 0.343,-0.268C0.357,-0.271 0.359,-0.284 0.359,-0.298L0.359,-0.334C0.359,-0.351 0.356,-0.365 0.341,-0.376C0.313,-0.397 0.279,-0.406 0.244,-0.406C0.207,-0.406 0.17,-0.396 0.139,-0.378C0.102,-0.357 0.08,-0.332 0.066,-0.302Z" style="fill-rule:nonzero;"/>
                    </g>
                    <g transform="matrix(66.6667,0,0,66.6667,1173,111.877)">
                        <path d="M0.073,-0.622C0.073,-0.617 0.072,-0.611 0.072,-0.606C0.072,-0.58 0.076,-0.551 0.076,-0.525C0.076,-0.454 0.08,-0.385 0.08,-0.313C0.08,-0.246 0.081,-0.181 0.081,-0.115C0.081,-0.093 0.073,-0.066 0.073,-0.042C0.073,-0.031 0.075,-0.021 0.08,-0.012C0.086,-0 0.096,0.001 0.108,0.001L0.122,0.001C0.131,0.001 0.143,0.003 0.154,0.003C0.161,0.003 0.166,0.002 0.17,-0C0.182,-0.006 0.186,-0.019 0.186,-0.035C0.186,-0.056 0.179,-0.082 0.179,-0.096L0.179,-0.106C0.179,-0.126 0.18,-0.156 0.196,-0.156C0.201,-0.156 0.208,-0.153 0.216,-0.146C0.227,-0.138 0.233,-0.121 0.241,-0.111C0.25,-0.099 0.259,-0.088 0.269,-0.078C0.281,-0.063 0.295,-0.048 0.306,-0.033C0.314,-0.023 0.322,-0.002 0.334,0.004C0.336,0.005 0.341,0.006 0.344,0.006C0.355,0.006 0.367,0.002 0.376,-0C0.392,-0.001 0.407,-0.001 0.423,-0.003C0.437,-0.006 0.441,-0.01 0.441,-0.016C0.441,-0.025 0.428,-0.036 0.42,-0.046C0.397,-0.071 0.379,-0.1 0.357,-0.125C0.33,-0.156 0.281,-0.18 0.281,-0.215C0.281,-0.226 0.286,-0.239 0.3,-0.254C0.321,-0.278 0.346,-0.298 0.371,-0.32C0.381,-0.33 0.417,-0.354 0.417,-0.371C0.417,-0.376 0.415,-0.381 0.408,-0.385C0.404,-0.387 0.398,-0.388 0.391,-0.388C0.381,-0.388 0.371,-0.386 0.363,-0.386L0.36,-0.386C0.348,-0.387 0.334,-0.39 0.321,-0.39C0.315,-0.39 0.309,-0.389 0.304,-0.387C0.281,-0.379 0.265,-0.345 0.251,-0.327L0.246,-0.321C0.231,-0.301 0.214,-0.279 0.191,-0.269C0.18,-0.276 0.176,-0.281 0.173,-0.294C0.172,-0.296 0.172,-0.299 0.172,-0.301C0.172,-0.307 0.173,-0.313 0.173,-0.318C0.173,-0.337 0.177,-0.357 0.177,-0.377L0.177,-0.382C0.176,-0.401 0.176,-0.42 0.176,-0.439C0.176,-0.452 0.176,-0.466 0.177,-0.48C0.181,-0.519 0.18,-0.56 0.184,-0.599C0.184,-0.607 0.186,-0.618 0.186,-0.628C0.186,-0.637 0.185,-0.646 0.18,-0.652C0.173,-0.66 0.161,-0.662 0.147,-0.662C0.133,-0.662 0.118,-0.659 0.109,-0.658C0.086,-0.656 0.075,-0.648 0.073,-0.622Z" style="fill-rule:nonzero;"/>
                    </g>
                </g>
                <g transform="matrix(1,0,0,1,410.648,1154.92)">
                    <g transform="matrix(125,0,0,125,375.602,147.327)">
                        <path d="M0.291,-0.616L0.285,-0.616C0.204,-0.614 0.113,-0.58 0.098,-0.488C0.096,-0.471 0.094,-0.457 0.094,-0.443C0.094,-0.379 0.121,-0.341 0.146,-0.317C0.179,-0.288 0.253,-0.256 0.279,-0.239C0.302,-0.223 0.325,-0.193 0.325,-0.162C0.325,-0.159 0.324,-0.156 0.324,-0.153C0.32,-0.124 0.286,-0.105 0.272,-0.097C0.261,-0.091 0.247,-0.081 0.226,-0.081C0.221,-0.081 0.217,-0.081 0.212,-0.082C0.182,-0.087 0.128,-0.126 0.119,-0.147C0.113,-0.16 0.105,-0.17 0.092,-0.17C0.084,-0.17 0.075,-0.166 0.063,-0.155C0.043,-0.136 0.023,-0.135 0.023,-0.12C0.023,-0.113 0.028,-0.103 0.038,-0.087C0.075,-0.03 0.141,0.018 0.223,0.018C0.285,0.018 0.356,-0.011 0.391,-0.06C0.408,-0.082 0.425,-0.105 0.425,-0.154C0.425,-0.165 0.424,-0.176 0.422,-0.19C0.414,-0.254 0.401,-0.293 0.317,-0.337C0.289,-0.352 0.256,-0.365 0.231,-0.379C0.202,-0.395 0.188,-0.414 0.188,-0.442C0.188,-0.446 0.188,-0.449 0.189,-0.452C0.194,-0.501 0.236,-0.516 0.271,-0.516L0.275,-0.516C0.311,-0.516 0.346,-0.495 0.361,-0.476C0.366,-0.467 0.376,-0.463 0.386,-0.463C0.4,-0.463 0.415,-0.469 0.428,-0.482C0.441,-0.495 0.449,-0.51 0.449,-0.523C0.449,-0.535 0.443,-0.546 0.43,-0.555C0.401,-0.572 0.367,-0.616 0.291,-0.616Z" style="fill-rule:nonzero;"/>
                    </g>
                    <g transform="matrix(125,0,0,125,434.602,147.327)">
                        <path d="M0.238,-0.392C0.186,-0.392 0.145,-0.374 0.119,-0.352C0.093,-0.331 0.041,-0.287 0.038,-0.206L0.038,-0.195C0.038,-0.119 0.061,-0.059 0.087,-0.036C0.12,-0.007 0.165,0.013 0.206,0.013L0.213,0.013C0.286,0.009 0.348,-0.016 0.376,-0.055C0.381,-0.063 0.384,-0.07 0.384,-0.076C0.384,-0.088 0.375,-0.097 0.361,-0.105C0.351,-0.11 0.341,-0.112 0.333,-0.112C0.324,-0.112 0.316,-0.109 0.307,-0.102C0.293,-0.091 0.271,-0.066 0.234,-0.066L0.226,-0.066C0.183,-0.071 0.132,-0.098 0.132,-0.13C0.132,-0.152 0.135,-0.162 0.17,-0.162C0.201,-0.162 0.23,-0.158 0.252,-0.158L0.261,-0.158C0.278,-0.159 0.311,-0.161 0.339,-0.161C0.351,-0.161 0.361,-0.16 0.371,-0.16L0.377,-0.16C0.402,-0.16 0.414,-0.169 0.414,-0.201C0.414,-0.235 0.404,-0.299 0.369,-0.335C0.334,-0.371 0.291,-0.392 0.238,-0.392ZM0.224,-0.317C0.264,-0.317 0.291,-0.301 0.302,-0.292C0.313,-0.283 0.322,-0.263 0.322,-0.25C0.322,-0.238 0.31,-0.223 0.287,-0.223C0.285,-0.223 0.281,-0.223 0.279,-0.224C0.251,-0.228 0.196,-0.229 0.176,-0.231C0.162,-0.231 0.145,-0.234 0.145,-0.248C0.145,-0.253 0.146,-0.259 0.151,-0.266C0.17,-0.296 0.191,-0.317 0.224,-0.317Z" style="fill-rule:nonzero;"/>
                    </g>
                    <g transform="matrix(125,0,0,125,494.102,147.327)">
                        <path d="M0.126,-0.385L0.121,-0.385C0.083,-0.385 0.067,-0.365 0.067,-0.333C0.067,-0.33 0.067,-0.326 0.068,-0.321C0.07,-0.306 0.071,-0.29 0.071,-0.272C0.071,-0.244 0.068,-0.215 0.061,-0.193C0.051,-0.157 0.051,-0.094 0.042,-0.056C0.039,-0.044 0.036,-0.032 0.036,-0.023C0.036,-0.006 0.046,0.005 0.083,0.007L0.093,0.007C0.136,0.007 0.143,-0.008 0.143,-0.04C0.143,-0.089 0.147,-0.121 0.151,-0.146C0.156,-0.174 0.166,-0.211 0.166,-0.232C0.166,-0.253 0.168,-0.276 0.194,-0.291C0.21,-0.301 0.224,-0.306 0.236,-0.306C0.242,-0.306 0.247,-0.304 0.251,-0.3C0.255,-0.296 0.261,-0.293 0.267,-0.293C0.279,-0.293 0.293,-0.303 0.303,-0.339C0.306,-0.351 0.307,-0.36 0.307,-0.367C0.307,-0.395 0.289,-0.396 0.271,-0.396L0.266,-0.396C0.245,-0.396 0.227,-0.396 0.204,-0.377C0.191,-0.366 0.181,-0.362 0.176,-0.362C0.17,-0.362 0.167,-0.366 0.166,-0.371C0.162,-0.381 0.146,-0.385 0.126,-0.385Z" style="fill-rule:nonzero;"/>
                    </g>
                    <g transform="matrix(125,0,0,125,535.477,147.327)">
                        <path d="M0.247,-0.387L0.235,-0.387C0.169,-0.387 0.141,-0.356 0.121,-0.348C0.101,-0.34 0.051,-0.283 0.041,-0.206C0.04,-0.196 0.04,-0.186 0.04,-0.177C0.04,-0.114 0.068,-0.066 0.098,-0.037C0.132,-0.005 0.189,0.006 0.235,0.006C0.281,0.006 0.349,-0.017 0.376,-0.047C0.402,-0.077 0.432,-0.123 0.435,-0.189L0.435,-0.202C0.435,-0.261 0.42,-0.296 0.388,-0.327C0.354,-0.361 0.322,-0.387 0.247,-0.387ZM0.238,-0.304C0.268,-0.304 0.314,-0.286 0.33,-0.269C0.344,-0.254 0.351,-0.231 0.351,-0.203L0.351,-0.192C0.349,-0.161 0.341,-0.129 0.32,-0.11C0.298,-0.091 0.267,-0.071 0.238,-0.071C0.209,-0.071 0.164,-0.09 0.153,-0.105C0.144,-0.117 0.13,-0.151 0.13,-0.18C0.13,-0.185 0.131,-0.19 0.131,-0.195C0.138,-0.226 0.14,-0.262 0.176,-0.28C0.213,-0.297 0.208,-0.304 0.238,-0.304Z" style="fill-rule:nonzero;"/>
                    </g>
                    <g transform="matrix(125,0,0,125,597.602,147.327)">
                        <path d="M0.143,-0.531L0.136,-0.531C0.121,-0.531 0.111,-0.522 0.111,-0.495C0.111,-0.467 0.106,-0.429 0.103,-0.407C0.101,-0.385 0.094,-0.366 0.074,-0.366L0.06,-0.366C0.046,-0.366 0.035,-0.363 0.031,-0.335L0.031,-0.321C0.031,-0.298 0.039,-0.292 0.053,-0.292L0.059,-0.292C0.063,-0.292 0.067,-0.293 0.07,-0.293C0.08,-0.293 0.083,-0.29 0.083,-0.274L0.083,-0.269C0.082,-0.243 0.07,-0.198 0.07,-0.172C0.07,-0.146 0.061,-0.084 0.049,-0.046C0.045,-0.034 0.041,-0.024 0.041,-0.016C0.041,-0.001 0.053,0.004 0.089,0.004C0.143,0.004 0.147,-0.011 0.151,-0.045C0.156,-0.078 0.165,-0.16 0.171,-0.22C0.176,-0.278 0.193,-0.299 0.214,-0.299L0.222,-0.299C0.239,-0.299 0.246,-0.303 0.251,-0.337C0.252,-0.343 0.252,-0.348 0.252,-0.352C0.252,-0.371 0.243,-0.373 0.231,-0.373L0.226,-0.373C0.212,-0.373 0.196,-0.378 0.196,-0.398C0.196,-0.41 0.209,-0.468 0.215,-0.5C0.216,-0.505 0.216,-0.509 0.216,-0.513C0.216,-0.528 0.21,-0.538 0.194,-0.538C0.176,-0.538 0.157,-0.531 0.143,-0.531Z" style="fill-rule:nonzero;"/>
                    </g>
                    <g transform="matrix(125,0,0,125,633.102,147.327)">
                        <path d="M0.247,-0.387L0.235,-0.387C0.169,-0.387 0.141,-0.356 0.121,-0.348C0.101,-0.34 0.051,-0.283 0.041,-0.206C0.04,-0.196 0.04,-0.186 0.04,-0.177C0.04,-0.114 0.068,-0.066 0.098,-0.037C0.132,-0.005 0.189,0.006 0.235,0.006C0.281,0.006 0.349,-0.017 0.376,-0.047C0.402,-0.077 0.432,-0.123 0.435,-0.189L0.435,-0.202C0.435,-0.261 0.42,-0.296 0.388,-0.327C0.354,-0.361 0.322,-0.387 0.247,-0.387ZM0.238,-0.304C0.268,-0.304 0.314,-0.286 0.33,-0.269C0.344,-0.254 0.351,-0.231 0.351,-0.203L0.351,-0.192C0.349,-0.161 0.341,-0.129 0.32,-0.11C0.298,-0.091 0.267,-0.071 0.238,-0.071C0.209,-0.071 0.164,-0.09 0.153,-0.105C0.144,-0.117 0.13,-0.151 0.13,-0.18C0.13,-0.185 0.131,-0.19 0.131,-0.195C0.138,-0.226 0.14,-0.262 0.176,-0.28C0.213,-0.297 0.208,-0.304 0.238,-0.304Z" style="fill-rule:nonzero;"/>
                    </g>
                    <g transform="matrix(125,0,0,125,695.227,147.327)">
                        <path d="M0.157,-0.384L0.134,-0.384C0.1,-0.384 0.082,-0.373 0.082,-0.337C0.082,-0.301 0.071,-0.241 0.07,-0.221C0.068,-0.201 0.058,-0.109 0.049,-0.081C0.04,-0.054 0.029,-0.032 0.029,-0.021C0.029,-0.011 0.043,0.002 0.078,0.006C0.086,0.007 0.093,0.008 0.099,0.008C0.122,0.008 0.138,-0.001 0.143,-0.043C0.149,-0.096 0.158,-0.133 0.16,-0.152C0.161,-0.171 0.161,-0.211 0.172,-0.228C0.183,-0.246 0.184,-0.272 0.211,-0.29C0.233,-0.304 0.252,-0.311 0.27,-0.311C0.274,-0.311 0.279,-0.311 0.283,-0.31C0.302,-0.306 0.322,-0.291 0.322,-0.256C0.322,-0.252 0.322,-0.248 0.321,-0.243C0.316,-0.199 0.297,-0.095 0.288,-0.057C0.285,-0.045 0.282,-0.034 0.282,-0.025C0.282,-0.006 0.292,0.004 0.326,0.007C0.334,0.008 0.34,0.008 0.346,0.008C0.38,0.008 0.387,-0.002 0.391,-0.045C0.395,-0.094 0.403,-0.164 0.407,-0.191C0.411,-0.215 0.42,-0.25 0.42,-0.284L0.42,-0.292C0.418,-0.329 0.408,-0.348 0.386,-0.363C0.365,-0.378 0.341,-0.391 0.305,-0.391C0.269,-0.391 0.225,-0.376 0.211,-0.363C0.204,-0.356 0.197,-0.351 0.192,-0.351C0.188,-0.351 0.186,-0.354 0.185,-0.365C0.183,-0.382 0.175,-0.384 0.157,-0.384Z" style="fill-rule:nonzero;"/>
                    </g>
                    <g transform="matrix(125,0,0,125,755.727,147.327)">
                        <path d="M0.151,-0.579C0.124,-0.578 0.096,-0.552 0.095,-0.526C0.095,-0.497 0.117,-0.468 0.145,-0.466L0.15,-0.466C0.181,-0.466 0.203,-0.492 0.204,-0.522C0.203,-0.551 0.18,-0.577 0.151,-0.579ZM0.14,-0.378L0.131,-0.378C0.101,-0.378 0.089,-0.373 0.089,-0.346C0.089,-0.317 0.075,-0.27 0.068,-0.227C0.061,-0.185 0.049,-0.081 0.041,-0.051C0.039,-0.04 0.036,-0.031 0.036,-0.023C0.036,-0.01 0.045,-0.003 0.079,-0.001L0.09,-0.001C0.131,-0.001 0.127,-0.015 0.131,-0.035C0.136,-0.056 0.144,-0.136 0.151,-0.176C0.159,-0.215 0.171,-0.301 0.178,-0.331C0.18,-0.337 0.181,-0.343 0.181,-0.348C0.181,-0.367 0.168,-0.378 0.14,-0.378Z" style="fill-rule:nonzero;"/>
                    </g>
                    <g transform="matrix(125,0,0,125,786.352,147.327)">
                        <path d="M0.157,-0.384L0.134,-0.384C0.1,-0.384 0.082,-0.373 0.082,-0.337C0.082,-0.301 0.071,-0.241 0.07,-0.221C0.068,-0.201 0.058,-0.109 0.049,-0.081C0.04,-0.054 0.029,-0.032 0.029,-0.021C0.029,-0.011 0.043,0.002 0.078,0.006C0.086,0.007 0.093,0.008 0.099,0.008C0.122,0.008 0.138,-0.001 0.143,-0.043C0.149,-0.096 0.158,-0.133 0.16,-0.152C0.161,-0.171 0.161,-0.211 0.172,-0.228C0.183,-0.246 0.184,-0.272 0.211,-0.29C0.233,-0.304 0.252,-0.311 0.27,-0.311C0.274,-0.311 0.279,-0.311 0.283,-0.31C0.302,-0.306 0.322,-0.291 0.322,-0.256C0.322,-0.252 0.322,-0.248 0.321,-0.243C0.316,-0.199 0.297,-0.095 0.288,-0.057C0.285,-0.045 0.282,-0.034 0.282,-0.025C0.282,-0.006 0.292,0.004 0.326,0.007C0.334,0.008 0.34,0.008 0.346,0.008C0.38,0.008 0.387,-0.002 0.391,-0.045C0.395,-0.094 0.403,-0.164 0.407,-0.191C0.411,-0.215 0.42,-0.25 0.42,-0.284L0.42,-0.292C0.418,-0.329 0.408,-0.348 0.386,-0.363C0.365,-0.378 0.341,-0.391 0.305,-0.391C0.269,-0.391 0.225,-0.376 0.211,-0.363C0.204,-0.356 0.197,-0.351 0.192,-0.351C0.188,-0.351 0.186,-0.354 0.185,-0.365C0.183,-0.382 0.175,-0.384 0.157,-0.384Z" style="fill-rule:nonzero;"/>
                    </g>
                </g>
            </g>
            <g transform="matrix(2,0,0,2,515,182.522)">
				<a href="MAP.svg">
                <g id="_5-HT" serif:id="5-HT">
                    <g>
                        <g transform="matrix(0.455226,0,0,0.520042,-194.011,-383.639)">
                            <rect x="600" y="892" width="818" height="474" style="fill:white;"/>
                        </g>
                        <g transform="matrix(1.1655,0,0,1.1655,-38.4534,-2.94219)">
                            <g transform="matrix(0.499741,0.866175,-0.866175,0.499741,230.887,-62.2955)">
                                <g transform="matrix(0.6691,-0.7431,0.7431,0.6691,16.5198,111.591)">
                                    <rect x="37.1" y="110.9" width="45.6" height="2.4" style="stroke:black;stroke-width:0.89px;"/>
                                </g>
                                <g transform="matrix(0.2079,-0.9781,0.9781,0.2079,-29.1162,249.607)">
                                    <rect x="79.8" y="154.4" width="2.4" height="45.6" style="stroke:black;stroke-width:0.89px;"/>
                                </g>
                                <g transform="matrix(0.951,-0.3093,0.3093,0.951,47.1509,75.4225)">
                                    <rect x="125.6" y="103.5" width="2.4" height="45.6" style="stroke:black;stroke-width:0.89px;"/>
                                </g>
                            </g>
                            <g transform="matrix(1,0,0,1,80,30)">
                                <path d="M186.1,178.7L181.3,224.1L183.7,224.3L188.5,178.9L186.1,178.7Z" style="fill-rule:nonzero;stroke:black;stroke-width:0.89px;"/>
                            </g>
                            <g transform="matrix(1,0,0,1,80,30)">
                                <path d="M345.086,145.118L299.1,171.9L298,172.6L296.9,171.9L250.5,145.1L248.8,144.1L248.2,143.8L247.6,144.1L245.9,145.1L198.3,172.6L146.7,149.6L129.7,97.2L129.1,95.3L128.9,94.6L128.2,94.5L126.2,94.1L72.4,82.7L60.398,43.943L58.098,44.643L70.1,83.5L32,125.7L31.5,126.2L31.7,126.9L49,179.8L49.6,181.7L49.8,182.4L50.5,182.5L52.5,182.9L106.4,194.3L135.531,244.625L136.284,241.817L108.6,193.4L146,151.9L197,174.6L191.2,230.2L136.284,241.817L135.531,244.625L190.6,232.8L192.6,232.4L193.5,232.2L193.6,231.3L199.6,174.6L247.2,147.1L248.3,146.4L249.4,147.1L295.8,173.9L297.5,174.9L298.1,175.2L298.7,174.9L300.4,173.9L346.386,147.118L345.086,145.118ZM106.6,192L51.6,180.3L34.2,126.8L35.1,125.8L71.8,85L126.8,96.7L144.2,150.2L106.6,192Z" style="fill-rule:nonzero;stroke:black;stroke-width:0.89px;"/>
                            </g>
                        </g>
                    </g>
                </g>
				</a>
            </g>
        </g>
    </g>
</svg>
