<?xml version="1.0" encoding="UTF-8" standalone="no"?>
<!DOCTYPE svg PUBLIC "-//W3C//DTD SVG 1.1//EN" "http://www.w3.org/Graphics/SVG/1.1/DTD/svg11.dtd">
<svg width="100%" height="100%" viewBox="0 0 1800 1800" version="1.1" xmlns="http://www.w3.org/2000/svg" xmlns:xlink="http://www.w3.org/1999/xlink" xml:space="preserve" xmlns:serif="http://www.serif.com/" style="fill-rule:evenodd;clip-rule:evenodd;stroke-linecap:square;stroke-linejoin:round;stroke-miterlimit:1.5;">
    <g transform="matrix(1,0,0,1,0,-8869)">
        <g id="PRE-B" transform="matrix(1,0,0,1,0,8869)">
            <rect x="0" y="0" width="1800" height="1800" style="fill:none;"/>
			<a xlink:href="B.SVG">
            <g transform="matrix(0.928288,0,0,0.929078,97.7208,63.2695)">
                <ellipse cx="863" cy="901.5" rx="588" ry="587.5" style="fill:white;"/>
            </g>
            <g id="Meta-Ring-and-Background" serif:id="Meta-Ring and Background" transform="matrix(-1.09813,0,0,-1.09813,1706.03,2099.12)">
                <g transform="matrix(0.545852,-0.945443,0.9537,0.550619,-641.299,1170.26)">
                    <ellipse cx="692" cy="1046" rx="458" ry="454" style="fill:none;stroke:black;stroke-width:0.46px;"/>
                </g>
                <g transform="matrix(0.5,-0.866025,0.629632,0.363518,-412.931,1316.59)">
                    <path d="M768,524.038L768,568" style="fill:none;stroke:black;stroke-width:0.57px;"/>
                </g>
                <g transform="matrix(0.5,-0.866025,0.629632,0.363518,425.349,1800.57)">
                    <path d="M768,524.038L768,568" style="fill:none;stroke:black;stroke-width:0.57px;"/>
                </g>
                <g transform="matrix(-0.866025,-0.5,0.363518,-0.629632,1442.63,1400.58)">
                    <path d="M768,524.038L768,568" style="fill:none;stroke:black;stroke-width:0.57px;"/>
                </g>
                <g transform="matrix(-0.866025,-0.5,0.363518,-0.629632,958.61,2238.93)">
                    <path d="M768,524.038L768,568" style="fill:none;stroke:black;stroke-width:0.57px;"/>
                </g>
                <g transform="matrix(0.866025,-0.5,0.363518,0.629632,-371.594,713.016)">
                    <path d="M768,524.038L768,568" style="fill:none;stroke:black;stroke-width:0.57px;"/>
                </g>
                <g transform="matrix(0.866025,-0.5,0.363518,0.629632,112.404,1551.33)">
                    <path d="M768,524.038L768,568" style="fill:none;stroke:black;stroke-width:0.57px;"/>
                </g>
                <g transform="matrix(-0.5,-0.866025,0.629632,-0.363518,1193.38,1713.55)">
                    <path d="M768,524.038L768,568" style="fill:none;stroke:black;stroke-width:0.57px;"/>
                </g>
                <g transform="matrix(-0.5,-0.866025,0.629632,-0.363518,355.038,2197.57)">
                    <path d="M768,524.038L768,568" style="fill:none;stroke:black;stroke-width:0.57px;"/>
                </g>
                <g transform="matrix(1,0,0,0.727036,-34,210.969)">
                    <path d="M768,524.038L768,568" style="fill:none;stroke:black;stroke-width:0.57px;"/>
                </g>
                <g transform="matrix(1,0,0,0.727036,-34,1179)">
                    <path d="M768,524.038L768,568" style="fill:none;stroke:black;stroke-width:0.57px;"/>
                </g>
                <g transform="matrix(6.12323e-17,-1,0.727036,4.45181e-17,821.022,1859.96)">
                    <path d="M768,524.038L768,568" style="fill:none;stroke:black;stroke-width:0.57px;"/>
                </g>
                <g transform="matrix(6.12323e-17,-1,0.727036,4.45181e-17,-146.974,1859.96)">
                    <path d="M768,524.038L768,568" style="fill:none;stroke:black;stroke-width:0.57px;"/>
                </g>
            </g>
            <g transform="matrix(-1.09813,0,0,-1.09811,1707.13,2100.74)">
                <g transform="matrix(0.545852,-0.945443,0.9537,0.550619,-641.299,1170.26)">
                    <ellipse cx="692" cy="1046" rx="458" ry="454" style="fill:none;stroke:black;stroke-width:8.31px;stroke-linecap:round;"/>
                </g>
                <g transform="matrix(0.5,-0.866025,0.629632,0.363518,-412.931,1316.59)">
                    <path d="M768,524.038L768,568" style="fill:none;stroke:black;stroke-width:10.42px;stroke-linecap:round;"/>
                </g>
                <g transform="matrix(0.5,-0.866025,0.629632,0.363518,425.349,1800.57)">
                    <path d="M768,524.038L768,568" style="fill:none;stroke:black;stroke-width:10.42px;stroke-linecap:round;"/>
                </g>
                <g transform="matrix(-0.866025,-0.5,0.363518,-0.629632,1442.63,1400.58)">
                    <path d="M768,524.038L768,568" style="fill:none;stroke:black;stroke-width:10.42px;stroke-linecap:round;"/>
                </g>
                <g transform="matrix(-0.866025,-0.5,0.363518,-0.629632,958.61,2238.93)">
                    <path d="M768,524.038L768,568" style="fill:none;stroke:black;stroke-width:10.42px;stroke-linecap:round;"/>
                </g>
                <g transform="matrix(0.866025,-0.5,0.363518,0.629632,-371.594,713.016)">
                    <path d="M768,524.038L768,568" style="fill:none;stroke:black;stroke-width:10.42px;stroke-linecap:round;"/>
                </g>
                <g transform="matrix(0.866025,-0.5,0.363518,0.629632,112.404,1551.33)">
                    <path d="M768,524.038L768,568" style="fill:none;stroke:black;stroke-width:10.42px;stroke-linecap:round;"/>
                </g>
                <g transform="matrix(-0.5,-0.866025,0.629632,-0.363518,1193.38,1713.55)">
                    <path d="M768,524.038L768,568" style="fill:none;stroke:black;stroke-width:10.42px;stroke-linecap:round;"/>
                </g>
                <g transform="matrix(-0.5,-0.866025,0.629632,-0.363518,355.038,2197.57)">
                    <path d="M768,524.038L768,568" style="fill:none;stroke:black;stroke-width:10.42px;stroke-linecap:round;"/>
                </g>
                <g transform="matrix(1,0,0,0.727036,-34,210.969)">
                    <path d="M768,524.038L768,568" style="fill:none;stroke:black;stroke-width:10.42px;stroke-linecap:round;"/>
                </g>
                <g transform="matrix(1,0,0,0.727036,-34,1179)">
                    <path d="M768,524.038L768,568" style="fill:none;stroke:black;stroke-width:10.42px;stroke-linecap:round;"/>
                </g>
                <g transform="matrix(6.12323e-17,-1,0.727036,4.45181e-17,821.022,1859.96)">
                    <path d="M768,524.038L768,568" style="fill:none;stroke:black;stroke-width:10.42px;stroke-linecap:round;"/>
                </g>
                <g transform="matrix(6.12323e-17,-1,0.727036,4.45181e-17,-146.974,1859.96)">
                    <path d="M768,524.038L768,568" style="fill:none;stroke:black;stroke-width:10.42px;stroke-linecap:round;"/>
                </g>
            </g>
            <g id="Root-Markers" serif:id="Root Markers">
            </g>
            <g id="_10" serif:id="10" transform="matrix(-1.39762,2.4207,-2.45799,-1.41909,2795.36,-478.64)">
                <ellipse cx="766" cy="526.5" rx="33" ry="32.5" style="stroke:white;stroke-width:8.52px;stroke-linecap:round;"/>
            </g>
            <g id="_7" serif:id="7" transform="matrix(-1.39762,2.4207,-2.45799,-1.41909,2996.19,262.572)">
                <ellipse cx="766" cy="526.5" rx="33" ry="32.5" style="stroke:white;stroke-width:8.52px;stroke-linecap:round;"/>
            </g>
            <g id="_5" serif:id="5" transform="matrix(-1.39762,2.4207,-2.45799,-1.41909,3539.36,267.361)">
                <ellipse cx="766" cy="526.5" rx="33" ry="32.5" style="stroke:white;stroke-width:8.52px;stroke-linecap:round;"/>
            </g>
            <g id="_1" serif:id="1" transform="matrix(-1.39762,2.4207,-2.45799,-1.41909,3536.6,-675.196)">
                <ellipse cx="766" cy="526.5" rx="33" ry="32.5" style="stroke:white;stroke-width:8.52px;stroke-linecap:round;"/>
            </g>
				</a>
            <g id="Stellated-Octahedron" serif:id="Stellated Octahedron" transform="matrix(0.714286,0,0,0.714286,315.096,-453.344)">
                <g transform="matrix(0.306704,0,0,0.306704,-2492.96,606.564)">
                    <path d="M7844,900L7681,625.469" style="fill:none;stroke:rgb(179,179,179);stroke-width:19.02px;stroke-linecap:round;stroke-linejoin:miter;"/>
                </g>
                <g transform="matrix(0.306704,0,0,0.306704,-2492.96,606.564)">
                    <path d="M7364,1174.53L7681,1174.53" style="fill:none;stroke:rgb(179,179,179);stroke-width:19.02px;stroke-linecap:round;stroke-linejoin:miter;"/>
                </g>
                <g transform="matrix(0.306704,0,0,0.306704,-2492.96,606.564)">
                    <path d="M7362,625.469L7206,900" style="fill:none;stroke:rgb(179,179,179);stroke-width:19.02px;stroke-linecap:round;stroke-linejoin:miter;"/>
                </g>
                <g transform="matrix(0.306704,0,0,0.306704,-461.808,606.564)">
                    <path d="M1375.47,625.469L900,900L899.495,1449.06" style="fill:none;stroke:rgb(179,179,179);stroke-width:9.51px;stroke-linecap:round;"/>
                </g>
                <g transform="matrix(0.306704,0,0,0.306704,-461.808,606.564)">
                    <path d="M900,900L424.498,625.469" style="fill:none;stroke:rgb(179,179,179);stroke-width:9.51px;stroke-linecap:round;"/>
                </g>
                <g transform="matrix(0.277812,0,0,0.282729,-279.813,787.742)">
                    <ellipse cx="338.5" cy="335.5" rx="57.5" ry="56.5" style="fill:rgb(255,0,0);stroke:white;stroke-width:16.65px;stroke-linecap:round;"/>
                </g>
                <g transform="matrix(0.306704,0,0,0.306704,-461.808,606.564)">
                    <path d="M899.495,350.938L899.495,900L424.498,1174.53" style="fill:none;stroke:rgb(51,51,51);stroke-width:9.51px;stroke-linecap:round;"/>
                </g>
                <g transform="matrix(0.306704,0,0,0.306704,-461.808,606.564)">
                    <path d="M900,900L1375.47,1174.53" style="fill:none;stroke:rgb(51,51,51);stroke-width:9.51px;stroke-linecap:round;"/>
                </g>
                <g transform="matrix(0.306704,0,0,0.306704,-2492.96,606.564)">
                    <path d="M7047,625.469L7997.97,625.469L7522.49,1449.06L7047,625.469Z" style="fill:none;stroke:rgb(51,51,51);stroke-width:19.02px;stroke-linecap:round;"/>
                </g>
                <g transform="matrix(0.306704,0,0,0.306704,-2492.96,606.564)">
                    <path d="M7205.5,900L7047,1174.53L7362,1174.53" style="fill:none;stroke:rgb(51,51,51);stroke-width:19.02px;stroke-linecap:round;"/>
                </g>
                <g transform="matrix(0.306704,0,0,0.306704,-2492.96,606.564)">
                    <path d="M7682,1174.53L7997.97,1174.53L7844,900" style="fill:none;stroke:rgb(51,51,51);stroke-width:19.02px;stroke-linecap:round;"/>
                </g>
                <g transform="matrix(0.306704,0,0,0.306704,-2492.96,606.564)">
                    <path d="M7362,625.469L7522.51,350.938L7682,625.469" style="fill:none;stroke:rgb(51,51,51);stroke-width:19.02px;stroke-linecap:round;"/>
                </g>
            </g>
        </g>
    </g>
</svg>
