<?xml version="1.0" encoding="UTF-8" standalone="no"?>
<!DOCTYPE svg PUBLIC "-//W3C//DTD SVG 1.1//EN" "http://www.w3.org/Graphics/SVG/1.1/DTD/svg11.dtd">
<svg width="100%" height="100%" viewBox="0 0 1800 1800" version="1.1" xmlns="http://www.w3.org/2000/svg" xmlns:xlink="http://www.w3.org/1999/xlink" xml:space="preserve" xmlns:serif="http://www.serif.com/" style="fill-rule:evenodd;clip-rule:evenodd;stroke-linecap:square;stroke-linejoin:round;stroke-miterlimit:1.5;">
    <g transform="matrix(1,0,0,1,-1943,-4566)">
        <g id="T2" transform="matrix(1,0,0,1,1943,4566)">
            <rect x="0" y="0" width="1800" height="1800" style="fill:none;"/>
            <g id="Meta-Ring-and-Background" serif:id="Meta-Ring and Background" transform="matrix(-1.09813,0,0,-1.09813,1703.53,2098.12)">
                <g transform="matrix(0.545852,-0.945443,0.9537,0.550619,-641.299,1170.26)">
                    <ellipse cx="692" cy="1046" rx="458" ry="454" style="fill:none;stroke:black;stroke-width:0.46px;"/>
                </g>
                <g transform="matrix(0.5,-0.866025,0.629632,0.363518,-412.931,1316.59)">
                    <path d="M768,524.038L768,568" style="fill:none;stroke:black;stroke-width:0.57px;"/>
                </g>
                <g transform="matrix(0.5,-0.866025,0.629632,0.363518,425.349,1800.57)">
                    <path d="M768,524.038L768,568" style="fill:none;stroke:black;stroke-width:0.57px;"/>
                </g>
                <g transform="matrix(-0.866025,-0.5,0.363518,-0.629632,1442.63,1400.58)">
                    <path d="M768,524.038L768,568" style="fill:none;stroke:black;stroke-width:0.57px;"/>
                </g>
                <g transform="matrix(-0.866025,-0.5,0.363518,-0.629632,958.61,2238.93)">
                    <path d="M768,524.038L768,568" style="fill:none;stroke:black;stroke-width:0.57px;"/>
                </g>
                <g transform="matrix(0.866025,-0.5,0.363518,0.629632,-371.594,713.016)">
                    <path d="M768,524.038L768,568" style="fill:none;stroke:black;stroke-width:0.57px;"/>
                </g>
                <g transform="matrix(0.866025,-0.5,0.363518,0.629632,112.404,1551.33)">
                    <path d="M768,524.038L768,568" style="fill:none;stroke:black;stroke-width:0.57px;"/>
                </g>
                <g transform="matrix(-0.5,-0.866025,0.629632,-0.363518,1193.38,1713.55)">
                    <path d="M768,524.038L768,568" style="fill:none;stroke:black;stroke-width:0.57px;"/>
                </g>
                <g transform="matrix(-0.5,-0.866025,0.629632,-0.363518,355.038,2197.57)">
                    <path d="M768,524.038L768,568" style="fill:none;stroke:black;stroke-width:0.57px;"/>
                </g>
                <g transform="matrix(1,0,0,0.727036,-34,210.969)">
                    <path d="M768,524.038L768,568" style="fill:none;stroke:black;stroke-width:0.57px;"/>
                </g>
                <g transform="matrix(1,0,0,0.727036,-34,1179)">
                    <path d="M768,524.038L768,568" style="fill:none;stroke:black;stroke-width:0.57px;"/>
                </g>
                <g transform="matrix(6.12323e-17,-1,0.727036,4.45181e-17,821.022,1859.96)">
                    <path d="M768,524.038L768,568" style="fill:none;stroke:black;stroke-width:0.57px;"/>
                </g>
                <g transform="matrix(6.12323e-17,-1,0.727036,4.45181e-17,-146.974,1859.96)">
                    <path d="M768,524.038L768,568" style="fill:none;stroke:black;stroke-width:0.57px;"/>
                </g>
            </g>
            <g id="Child-Rings" serif:id="Child Rings" transform="matrix(-1,0,0,-1,1394.66,902.666)">
                <g id="_7" serif:id="7" transform="matrix(0.250435,0,0,0.250435,575.567,-714.769)">
                    <g id="Ring-and-Background" serif:id="Ring and Background" transform="matrix(1,0,0,1,50.3923,-72.3542)">
                        <g id="white-background" serif:id="white background" transform="matrix(-3.84294,0,0,-4.02215,13582.9,30283.5)">
                            <ellipse cx="3348" cy="7256.93" rx="133" ry="127.074" style="fill:white;"/>
                        </g>
                        <g id="Ring" transform="matrix(0.841899,0,0,0.841899,98.8118,175.77)">
                            <g transform="matrix(0.545852,-0.945443,0.9537,0.550619,-641.299,1170.26)">
                                <ellipse cx="692" cy="1046" rx="458" ry="454" style="fill:none;stroke:black;stroke-width:10.83px;stroke-linecap:round;"/>
                            </g>
                            <g transform="matrix(0.5,-0.866025,0.629632,0.363518,-412.931,1316.59)">
                                <path d="M768,524.038L768,568" style="fill:none;stroke:black;stroke-width:13.59px;stroke-linecap:round;"/>
                            </g>
                            <g transform="matrix(0.5,-0.866025,0.629632,0.363518,425.349,1800.57)">
                                <path d="M768,524.038L768,568" style="fill:none;stroke:black;stroke-width:13.59px;stroke-linecap:round;"/>
                            </g>
                            <g transform="matrix(-0.866025,-0.5,0.363518,-0.629632,1442.63,1400.58)">
                                <path d="M768,524.038L768,568" style="fill:none;stroke:black;stroke-width:13.59px;stroke-linecap:round;"/>
                            </g>
                            <g transform="matrix(-0.866025,-0.5,0.363518,-0.629632,958.61,2238.93)">
                                <path d="M768,524.038L768,568" style="fill:none;stroke:black;stroke-width:13.59px;stroke-linecap:round;"/>
                            </g>
                            <g transform="matrix(0.866025,-0.5,0.363518,0.629632,-371.594,713.016)">
                                <path d="M768,524.038L768,568" style="fill:none;stroke:black;stroke-width:13.59px;stroke-linecap:round;"/>
                            </g>
                            <g transform="matrix(0.866025,-0.5,0.363518,0.629632,112.404,1551.33)">
                                <path d="M768,524.038L768,568" style="fill:none;stroke:black;stroke-width:13.59px;stroke-linecap:round;"/>
                            </g>
                            <g transform="matrix(-0.5,-0.866025,0.629632,-0.363518,1193.38,1713.55)">
                                <path d="M768,524.038L768,568" style="fill:none;stroke:black;stroke-width:13.59px;stroke-linecap:round;"/>
                            </g>
                            <g transform="matrix(-0.5,-0.866025,0.629632,-0.363518,355.038,2197.57)">
                                <path d="M768,524.038L768,568" style="fill:none;stroke:black;stroke-width:13.59px;stroke-linecap:round;"/>
                            </g>
                            <g transform="matrix(1,0,0,0.727036,-34,210.969)">
                                <path d="M768,524.038L768,568" style="fill:none;stroke:black;stroke-width:13.59px;stroke-linecap:round;"/>
                            </g>
                            <g transform="matrix(1,0,0,0.727036,-34,1179)">
                                <path d="M768,524.038L768,568" style="fill:none;stroke:black;stroke-width:13.59px;stroke-linecap:round;"/>
                            </g>
                            <g transform="matrix(6.12323e-17,-1,0.727036,4.45181e-17,821.022,1859.96)">
                                <path d="M768,524.038L768,568" style="fill:none;stroke:black;stroke-width:13.59px;stroke-linecap:round;"/>
                            </g>
                            <g transform="matrix(6.12323e-17,-1,0.727036,4.45181e-17,-146.974,1859.96)">
                                <path d="M768,524.038L768,568" style="fill:none;stroke:black;stroke-width:13.59px;stroke-linecap:round;"/>
                            </g>
                        </g>
                    </g>
                    <g id="Notes" transform="matrix(1,0,0,1,16.3923,-4.3923)">
                        <g id="_10" serif:id="10" transform="matrix(1.07151,-1.85591,1.88446,1.08799,-701.504,2085.37)">
                            <ellipse cx="766" cy="526.5" rx="33" ry="32.5" style="stroke:white;stroke-width:11.11px;stroke-linecap:round;"/>
                        </g>
                        <g id="_5" serif:id="5" transform="matrix(1.07151,-1.85591,1.88446,1.08799,-1271.91,1513.43)">
                            <ellipse cx="766" cy="526.5" rx="33" ry="32.5" style="stroke:white;stroke-width:11.11px;stroke-linecap:round;"/>
                        </g>
                        <g id="_1" serif:id="1" transform="matrix(1.07151,-1.85591,1.88446,1.08799,-1269.79,2236.07)">
                            <ellipse cx="766" cy="526.5" rx="33" ry="32.5" style="stroke:white;stroke-width:11.11px;stroke-linecap:round;"/>
                        </g>
                        <g id="_0" serif:id="0" transform="matrix(1.07151,-1.85591,1.88446,1.08799,-1062.18,2296.87)">
                            <ellipse cx="766" cy="526.5" rx="33" ry="32.5" style="stroke:white;stroke-width:11.11px;stroke-linecap:round;"/>
                        </g>
                    </g>
                    <g id="Root-Markers" serif:id="Root Markers">
                    </g>
                </g>
                <g id="_51" serif:id="5" transform="matrix(0.250435,0,0,0.250435,28.2889,-712.769)">
                    <g id="Ring-and-Background1" serif:id="Ring and Background" transform="matrix(1,0,0,1,50.3923,-72.3542)">
                        <g id="white-background1" serif:id="white background" transform="matrix(-3.84294,0,0,-4.02215,13582.9,30283.5)">
                            <ellipse cx="3348" cy="7256.93" rx="133" ry="127.074" style="fill:white;"/>
                        </g>
                        <g id="Ring1" serif:id="Ring" transform="matrix(0.841899,0,0,0.841899,98.8118,175.77)">
                            <g transform="matrix(0.545852,-0.945443,0.9537,0.550619,-641.299,1170.26)">
                                <ellipse cx="692" cy="1046" rx="458" ry="454" style="fill:none;stroke:black;stroke-width:10.83px;stroke-linecap:round;"/>
                            </g>
                            <g transform="matrix(0.5,-0.866025,0.629632,0.363518,-412.931,1316.59)">
                                <path d="M768,524.038L768,568" style="fill:none;stroke:black;stroke-width:13.59px;stroke-linecap:round;"/>
                            </g>
                            <g transform="matrix(0.5,-0.866025,0.629632,0.363518,425.349,1800.57)">
                                <path d="M768,524.038L768,568" style="fill:none;stroke:black;stroke-width:13.59px;stroke-linecap:round;"/>
                            </g>
                            <g transform="matrix(-0.866025,-0.5,0.363518,-0.629632,1442.63,1400.58)">
                                <path d="M768,524.038L768,568" style="fill:none;stroke:black;stroke-width:13.59px;stroke-linecap:round;"/>
                            </g>
                            <g transform="matrix(-0.866025,-0.5,0.363518,-0.629632,958.61,2238.93)">
                                <path d="M768,524.038L768,568" style="fill:none;stroke:black;stroke-width:13.59px;stroke-linecap:round;"/>
                            </g>
                            <g transform="matrix(0.866025,-0.5,0.363518,0.629632,-371.594,713.016)">
                                <path d="M768,524.038L768,568" style="fill:none;stroke:black;stroke-width:13.59px;stroke-linecap:round;"/>
                            </g>
                            <g transform="matrix(0.866025,-0.5,0.363518,0.629632,112.404,1551.33)">
                                <path d="M768,524.038L768,568" style="fill:none;stroke:black;stroke-width:13.59px;stroke-linecap:round;"/>
                            </g>
                            <g transform="matrix(-0.5,-0.866025,0.629632,-0.363518,1193.38,1713.55)">
                                <path d="M768,524.038L768,568" style="fill:none;stroke:black;stroke-width:13.59px;stroke-linecap:round;"/>
                            </g>
                            <g transform="matrix(-0.5,-0.866025,0.629632,-0.363518,355.038,2197.57)">
                                <path d="M768,524.038L768,568" style="fill:none;stroke:black;stroke-width:13.59px;stroke-linecap:round;"/>
                            </g>
                            <g transform="matrix(1,0,0,0.727036,-34,210.969)">
                                <path d="M768,524.038L768,568" style="fill:none;stroke:black;stroke-width:13.59px;stroke-linecap:round;"/>
                            </g>
                            <g transform="matrix(1,0,0,0.727036,-34,1179)">
                                <path d="M768,524.038L768,568" style="fill:none;stroke:black;stroke-width:13.59px;stroke-linecap:round;"/>
                            </g>
                            <g transform="matrix(6.12323e-17,-1,0.727036,4.45181e-17,821.022,1859.96)">
                                <path d="M768,524.038L768,568" style="fill:none;stroke:black;stroke-width:13.59px;stroke-linecap:round;"/>
                            </g>
                            <g transform="matrix(6.12323e-17,-1,0.727036,4.45181e-17,-146.974,1859.96)">
                                <path d="M768,524.038L768,568" style="fill:none;stroke:black;stroke-width:13.59px;stroke-linecap:round;"/>
                            </g>
                        </g>
                    </g>
                    <g id="Notes1" serif:id="Notes" transform="matrix(1,0,0,1,16.3923,-4.3923)">
                        <g id="_71" serif:id="7" transform="matrix(1.07151,-1.85591,1.88446,1.08799,-855.471,1517.1)">
                            <ellipse cx="766" cy="526.5" rx="33" ry="32.5" style="fill:rgb(255,0,0);stroke:white;stroke-width:11.11px;stroke-linecap:round;"/>
                        </g>
                        <g id="_52" serif:id="5" transform="matrix(1.07151,-1.85591,1.88446,1.08799,-1271.91,1513.43)">
                            <ellipse cx="766" cy="526.5" rx="33" ry="32.5" style="fill:rgb(255,0,0);stroke:white;stroke-width:11.11px;stroke-linecap:round;"/>
                        </g>
                        <g id="_4" serif:id="4" transform="matrix(1.07151,-1.85591,1.88446,1.08799,-1423.87,1667.79)">
                            <ellipse cx="766" cy="526.5" rx="33" ry="32.5" style="fill:rgb(255,0,0);stroke:white;stroke-width:11.11px;stroke-linecap:round;"/>
                        </g>
                        <g id="_01" serif:id="0" transform="matrix(1.07151,-1.85591,1.88446,1.08799,-1062.18,2296.87)">
                            <ellipse cx="766" cy="526.5" rx="33" ry="32.5" style="fill:rgb(255,0,0);stroke:white;stroke-width:11.11px;stroke-linecap:round;"/>
                        </g>
                    </g>
                    <g id="Root-Markers1" serif:id="Root Markers">
                    </g>
                </g>
				<a xlink:href="PRE-i5.SVG">
                <g id="_41" serif:id="4" transform="matrix(0.250435,0,0,0.250435,-164.235,-515.994)">
                    <g id="Ring-and-Background2" serif:id="Ring and Background" transform="matrix(1,0,0,1,50.3923,-72.3542)">
                        <g id="white-background2" serif:id="white background" transform="matrix(-3.84294,0,0,-4.02215,13582.9,30283.5)">
                            <ellipse cx="3348" cy="7256.93" rx="133" ry="127.074" style="fill:white;"/>
                        </g>
                        <g id="Ring2" serif:id="Ring" transform="matrix(0.841899,0,0,0.841899,98.8118,175.77)">
                            <g transform="matrix(0.545852,-0.945443,0.9537,0.550619,-641.299,1170.26)">
                                <ellipse cx="692" cy="1046" rx="458" ry="454" style="fill:none;stroke:black;stroke-width:10.83px;stroke-linecap:round;"/>
                            </g>
                            <g transform="matrix(0.5,-0.866025,0.629632,0.363518,-412.931,1316.59)">
                                <path d="M768,524.038L768,568" style="fill:none;stroke:black;stroke-width:13.59px;stroke-linecap:round;"/>
                            </g>
                            <g transform="matrix(0.5,-0.866025,0.629632,0.363518,425.349,1800.57)">
                                <path d="M768,524.038L768,568" style="fill:none;stroke:black;stroke-width:13.59px;stroke-linecap:round;"/>
                            </g>
                            <g transform="matrix(-0.866025,-0.5,0.363518,-0.629632,1442.63,1400.58)">
                                <path d="M768,524.038L768,568" style="fill:none;stroke:black;stroke-width:13.59px;stroke-linecap:round;"/>
                            </g>
                            <g transform="matrix(-0.866025,-0.5,0.363518,-0.629632,958.61,2238.93)">
                                <path d="M768,524.038L768,568" style="fill:none;stroke:black;stroke-width:13.59px;stroke-linecap:round;"/>
                            </g>
                            <g transform="matrix(0.866025,-0.5,0.363518,0.629632,-371.594,713.016)">
                                <path d="M768,524.038L768,568" style="fill:none;stroke:black;stroke-width:13.59px;stroke-linecap:round;"/>
                            </g>
                            <g transform="matrix(0.866025,-0.5,0.363518,0.629632,112.404,1551.33)">
                                <path d="M768,524.038L768,568" style="fill:none;stroke:black;stroke-width:13.59px;stroke-linecap:round;"/>
                            </g>
                            <g transform="matrix(-0.5,-0.866025,0.629632,-0.363518,1193.38,1713.55)">
                                <path d="M768,524.038L768,568" style="fill:none;stroke:black;stroke-width:13.59px;stroke-linecap:round;"/>
                            </g>
                            <g transform="matrix(-0.5,-0.866025,0.629632,-0.363518,355.038,2197.57)">
                                <path d="M768,524.038L768,568" style="fill:none;stroke:black;stroke-width:13.59px;stroke-linecap:round;"/>
                            </g>
                            <g transform="matrix(1,0,0,0.727036,-34,210.969)">
                                <path d="M768,524.038L768,568" style="fill:none;stroke:black;stroke-width:13.59px;stroke-linecap:round;"/>
                            </g>
                            <g transform="matrix(1,0,0,0.727036,-34,1179)">
                                <path d="M768,524.038L768,568" style="fill:none;stroke:black;stroke-width:13.59px;stroke-linecap:round;"/>
                            </g>
                            <g transform="matrix(6.12323e-17,-1,0.727036,4.45181e-17,821.022,1859.96)">
                                <path d="M768,524.038L768,568" style="fill:none;stroke:black;stroke-width:13.59px;stroke-linecap:round;"/>
                            </g>
                            <g transform="matrix(6.12323e-17,-1,0.727036,4.45181e-17,-146.974,1859.96)">
                                <path d="M768,524.038L768,568" style="fill:none;stroke:black;stroke-width:13.59px;stroke-linecap:round;"/>
                            </g>
                        </g>
                    </g>
                    <g id="Notes2" serif:id="Notes" transform="matrix(1,0,0,1,16.3923,-4.3923)">
                        <g id="_101" serif:id="10" transform="matrix(1.07151,-1.85591,1.88446,1.08799,-701.504,2085.37)">
                            <ellipse cx="766" cy="526.5" rx="33" ry="32.5" style="fill:rgb(0,55,255);stroke:white;stroke-width:11.11px;stroke-linecap:round;"/>
                        </g>
                        <g id="_72" serif:id="7" transform="matrix(1.07151,-1.85591,1.88446,1.08799,-855.471,1517.1)">
                            <ellipse cx="766" cy="526.5" rx="33" ry="32.5" style="fill:rgb(0,55,255);stroke:white;stroke-width:11.11px;stroke-linecap:round;"/>
                        </g>
                        <g id="_42" serif:id="4" transform="matrix(1.07151,-1.85591,1.88446,1.08799,-1423.87,1667.79)">
                            <ellipse cx="766" cy="526.5" rx="33" ry="32.5" style="fill:rgb(0,55,255);stroke:white;stroke-width:11.11px;stroke-linecap:round;"/>
                        </g>
                        <g id="_02" serif:id="0" transform="matrix(1.07151,-1.85591,1.88446,1.08799,-1062.18,2296.87)">
                            <ellipse cx="766" cy="526.5" rx="33" ry="32.5" style="fill:rgb(0,55,255);stroke:white;stroke-width:11.11px;stroke-linecap:round;"/>
                        </g>
                    </g>
                    <g id="Root-Markers2" serif:id="Root Markers">
                    </g>
                </g>
					</a>
                <g id="_03" serif:id="0" transform="matrix(0.250435,0,0,0.250435,303.035,286.599)">
                    <g id="Ring-and-Background3" serif:id="Ring and Background" transform="matrix(1,0,0,1,50.3923,-72.3542)">
                        <g id="white-background3" serif:id="white background" transform="matrix(-3.84294,0,0,-4.02215,13582.9,30283.5)">
                            <ellipse cx="3348" cy="7256.93" rx="133" ry="127.074" style="fill:white;"/>
                        </g>
                        <g id="Ring3" serif:id="Ring" transform="matrix(0.841899,0,0,0.841899,98.8118,175.77)">
                            <g transform="matrix(0.545852,-0.945443,0.9537,0.550619,-641.299,1170.26)">
                                <ellipse cx="692" cy="1046" rx="458" ry="454" style="fill:none;stroke:black;stroke-width:10.83px;stroke-linecap:round;"/>
                            </g>
                            <g transform="matrix(0.5,-0.866025,0.629632,0.363518,-412.931,1316.59)">
                                <path d="M768,524.038L768,568" style="fill:none;stroke:black;stroke-width:13.59px;stroke-linecap:round;"/>
                            </g>
                            <g transform="matrix(0.5,-0.866025,0.629632,0.363518,425.349,1800.57)">
                                <path d="M768,524.038L768,568" style="fill:none;stroke:black;stroke-width:13.59px;stroke-linecap:round;"/>
                            </g>
                            <g transform="matrix(-0.866025,-0.5,0.363518,-0.629632,1442.63,1400.58)">
                                <path d="M768,524.038L768,568" style="fill:none;stroke:black;stroke-width:13.59px;stroke-linecap:round;"/>
                            </g>
                            <g transform="matrix(-0.866025,-0.5,0.363518,-0.629632,958.61,2238.93)">
                                <path d="M768,524.038L768,568" style="fill:none;stroke:black;stroke-width:13.59px;stroke-linecap:round;"/>
                            </g>
                            <g transform="matrix(0.866025,-0.5,0.363518,0.629632,-371.594,713.016)">
                                <path d="M768,524.038L768,568" style="fill:none;stroke:black;stroke-width:13.59px;stroke-linecap:round;"/>
                            </g>
                            <g transform="matrix(0.866025,-0.5,0.363518,0.629632,112.404,1551.33)">
                                <path d="M768,524.038L768,568" style="fill:none;stroke:black;stroke-width:13.59px;stroke-linecap:round;"/>
                            </g>
                            <g transform="matrix(-0.5,-0.866025,0.629632,-0.363518,1193.38,1713.55)">
                                <path d="M768,524.038L768,568" style="fill:none;stroke:black;stroke-width:13.59px;stroke-linecap:round;"/>
                            </g>
                            <g transform="matrix(-0.5,-0.866025,0.629632,-0.363518,355.038,2197.57)">
                                <path d="M768,524.038L768,568" style="fill:none;stroke:black;stroke-width:13.59px;stroke-linecap:round;"/>
                            </g>
                            <g transform="matrix(1,0,0,0.727036,-34,210.969)">
                                <path d="M768,524.038L768,568" style="fill:none;stroke:black;stroke-width:13.59px;stroke-linecap:round;"/>
                            </g>
                            <g transform="matrix(1,0,0,0.727036,-34,1179)">
                                <path d="M768,524.038L768,568" style="fill:none;stroke:black;stroke-width:13.59px;stroke-linecap:round;"/>
                            </g>
                            <g transform="matrix(6.12323e-17,-1,0.727036,4.45181e-17,821.022,1859.96)">
                                <path d="M768,524.038L768,568" style="fill:none;stroke:black;stroke-width:13.59px;stroke-linecap:round;"/>
                            </g>
                            <g transform="matrix(6.12323e-17,-1,0.727036,4.45181e-17,-146.974,1859.96)">
                                <path d="M768,524.038L768,568" style="fill:none;stroke:black;stroke-width:13.59px;stroke-linecap:round;"/>
                            </g>
                        </g>
                    </g>
                    <g id="Notes3" serif:id="Notes" transform="matrix(1,0,0,1,16.3923,-4.3923)">
                        <g id="_102" serif:id="10" transform="matrix(1.07151,-1.85591,1.88446,1.08799,-701.504,2085.37)">
                            <ellipse cx="766" cy="526.5" rx="33" ry="32.5" style="stroke:white;stroke-width:11.11px;stroke-linecap:round;"/>
                        </g>
                        <g id="_8" serif:id="8" transform="matrix(1.07151,-1.85591,1.88446,1.08799,-698.993,1666.12)">
                            <ellipse cx="766" cy="526.5" rx="33" ry="32.5" style="stroke:white;stroke-width:11.11px;stroke-linecap:round;"/>
                        </g>
                        <g id="_53" serif:id="5" transform="matrix(1.07151,-1.85591,1.88446,1.08799,-1271.91,1513.43)">
                            <ellipse cx="766" cy="526.5" rx="33" ry="32.5" style="stroke:white;stroke-width:11.11px;stroke-linecap:round;"/>
                        </g>
                        <g id="_11" serif:id="1" transform="matrix(1.07151,-1.85591,1.88446,1.08799,-1269.79,2236.07)">
                            <ellipse cx="766" cy="526.5" rx="33" ry="32.5" style="stroke:white;stroke-width:11.11px;stroke-linecap:round;"/>
                        </g>
                    </g>
                    <g id="Root-Markers3" serif:id="Root Markers">
                    </g>
                </g>
            </g>
            <g id="Stellated-Octahedron" serif:id="Stellated Octahedron" transform="matrix(0.714286,0,0,0.714286,315.254,-453.32)">
                <g transform="matrix(0.306704,0,0,0.306704,-2492.96,606.564)">
                    <path d="M7844,900L7681,625.469" style="fill:none;stroke:rgb(179,179,179);stroke-width:19.02px;stroke-linecap:round;stroke-linejoin:miter;"/>
                </g>
                <g transform="matrix(0.306704,0,0,0.306704,-2492.96,606.564)">
                    <path d="M7364,1174.53L7681,1174.53" style="fill:none;stroke:rgb(179,179,179);stroke-width:19.02px;stroke-linecap:round;stroke-linejoin:miter;"/>
                </g>
                <g transform="matrix(0.306704,0,0,0.306704,-2492.96,606.564)">
                    <path d="M7362,625.469L7206,900" style="fill:none;stroke:rgb(179,179,179);stroke-width:19.02px;stroke-linecap:round;stroke-linejoin:miter;"/>
                </g>
                <g transform="matrix(0.306704,0,0,0.306704,-461.808,606.564)">
                    <path d="M1375.47,625.469L900,900L899.495,1449.06" style="fill:none;stroke:rgb(179,179,179);stroke-width:9.51px;stroke-linecap:round;"/>
                </g>
                <g transform="matrix(0.306704,0,0,0.306704,-461.808,606.564)">
                    <path d="M900,900L424.498,625.469" style="fill:none;stroke:rgb(179,179,179);stroke-width:9.51px;stroke-linecap:round;"/>
                </g>
                <g transform="matrix(0.306704,0,0,0.306704,-461.808,606.564)">
                    <path d="M899.495,350.938L899.495,900L424.498,1174.53" style="fill:none;stroke:rgb(51,51,51);stroke-width:9.51px;stroke-linecap:round;"/>
                </g>
                <g transform="matrix(0.306704,0,0,0.306704,-461.808,606.564)">
                    <path d="M900,900L1375.47,1174.53" style="fill:none;stroke:rgb(51,51,51);stroke-width:9.51px;stroke-linecap:round;"/>
                </g>
                <g transform="matrix(0.306704,0,0,0.306704,-2492.96,606.564)">
                    <path d="M7047,625.469L7997.97,625.469L7522.49,1449.06L7047,625.469Z" style="fill:none;stroke:rgb(51,51,51);stroke-width:19.02px;stroke-linecap:round;"/>
                </g>
                <g transform="matrix(0.306704,0,0,0.306704,-2492.96,606.564)">
                    <path d="M7205.5,900L7047,1174.53L7362,1174.53" style="fill:none;stroke:rgb(51,51,51);stroke-width:19.02px;stroke-linecap:round;"/>
                </g>
                <g transform="matrix(0.306704,0,0,0.306704,-2492.96,606.564)">
                    <path d="M7682,1174.53L7997.97,1174.53L7844,900" style="fill:none;stroke:rgb(51,51,51);stroke-width:19.02px;stroke-linecap:round;"/>
                </g>
                <g transform="matrix(0.306704,0,0,0.306704,-2492.96,606.564)">
                    <path d="M7362,625.469L7522.51,350.938L7682,625.469" style="fill:none;stroke:rgb(51,51,51);stroke-width:19.02px;stroke-linecap:round;"/>
                </g>
                <g transform="matrix(0.277812,0,0,0.282729,-133.985,871.942)">
                    <ellipse cx="338.5" cy="335.5" rx="57.5" ry="56.5" style="fill:rgb(255,0,0);stroke:white;stroke-width:16.65px;stroke-linecap:round;"/>
                </g>
            </g>
            <g transform="matrix(3.6076e-17,0.589165,-0.589165,3.6076e-17,1469.33,1013.24)">
                <rect x="39.446" y="86.525" width="21.012" height="9.006"/>
                <path d="M67.153,49.854C67.1,49.181 66.507,48.674 65.833,48.727L64.917,48.801C64.647,48.822 64.419,48.946 64.229,49.11C64.053,46.861 63.858,44.361 63.651,41.742C63.856,41.857 64.085,41.935 64.335,41.916L65.253,41.842C65.925,41.789 66.433,41.196 66.378,40.524L65.903,34.512C65.848,33.839 65.255,33.331 64.583,33.385L63.665,33.458C63.417,33.478 63.204,33.589 63.02,33.733C62.823,31.25 62.627,28.778 62.44,26.421C62.635,26.522 62.85,26.59 63.085,26.572L64.003,26.499C64.675,26.444 65.181,25.851 65.128,25.179L64.651,19.167C64.598,18.494 64.005,17.987 63.333,18.041L62.415,18.113C62.179,18.133 61.977,18.234 61.8,18.365C61.409,13.45 61.144,10.128 61.144,10.128C61.144,10.128 61.339,8.971 59.841,8.44C58.345,7.909 51.546,5.813 51.546,5.813C51.546,5.813 50.505,5.532 49.952,5.532C49.399,5.532 48.358,5.813 48.358,5.813C48.358,5.813 41.56,7.909 40.064,8.44C38.567,8.971 38.762,10.128 38.762,10.128C38.762,10.128 38.496,13.45 38.105,18.365C37.927,18.234 37.726,18.133 37.491,18.113L36.573,18.041C35.901,17.987 35.306,18.494 35.254,19.167L34.777,25.179C34.724,25.851 35.23,26.445 35.903,26.499L36.82,26.572C37.055,26.59 37.269,26.521 37.465,26.421C37.278,28.777 37.082,31.249 36.885,33.733C36.701,33.588 36.489,33.477 36.24,33.458L35.322,33.385C34.65,33.331 34.056,33.839 34.003,34.512L33.526,40.524C33.473,41.196 33.98,41.79 34.652,41.842L35.57,41.916C35.82,41.936 36.049,41.857 36.254,41.742C36.048,44.361 35.852,46.861 35.677,49.11C35.487,48.946 35.258,48.823 34.989,48.801L34.072,48.727C33.399,48.674 32.805,49.181 32.752,49.854L32.276,55.866C32.222,56.539 32.729,57.133 33.401,57.185L34.319,57.257C34.596,57.279 34.849,57.189 35.068,57.047C34.981,58.215 34.929,58.96 34.922,59.159C34.858,60.972 35.247,62.035 35.247,62.035C39.412,70.541 39.446,78.858 39.446,78.858L39.446,83.697L60.457,83.697L60.457,78.858C60.457,78.858 60.492,70.541 64.656,62.035C64.656,62.035 65.047,60.972 64.982,59.159C64.974,58.96 64.923,58.215 64.836,57.047C65.055,57.189 65.309,57.279 65.586,57.257L66.504,57.185C67.176,57.132 67.682,56.539 67.629,55.866L67.153,49.854ZM44.577,18.264C47.745,18.514 47.413,22.184 47.413,22.184L47.411,23.036L41.394,22.418L41.41,22.185C41.41,22.184 41.41,18.014 44.577,18.264ZM40.365,37.748L41.229,24.857L47.408,25.279L47.38,38.173L40.365,37.748ZM47.376,40.361L47.349,53.223L39.365,52.646L40.219,39.924L47.376,40.361ZM43.147,68.059C38.252,67.945 38.74,61.958 38.74,61.958L39.207,54.996L47.344,55.493L47.328,62.375C47.329,62.375 47.017,68.148 43.147,68.059ZM59.687,39.925L60.541,52.647L52.559,53.224L52.53,40.361L59.687,39.925ZM52.526,38.173L52.499,25.279L58.677,24.857L59.54,37.748L52.526,38.173ZM55.327,18.264C58.495,18.014 58.495,22.184 58.495,22.184L58.511,22.417L52.495,23.035L52.493,22.183C52.493,22.184 52.159,18.514 55.327,18.264ZM57.444,68.077C52.944,68.076 52.575,62.375 52.575,62.375L52.561,55.493L60.698,54.996L61.165,61.958C61.165,61.958 61.313,68.078 57.444,68.077Z" style="fill-rule:nonzero;"/>
            </g>
            <g transform="matrix(1,0,0,1,-1943,-4566)">
                <path d="M2460,5861C2342.94,5509.35 2402.91,5010.71 2728,4883C2435.75,5024.9 2509.92,5314.54 3199,5663" style="fill:none;stroke:rgb(191,191,191);stroke-width:6.67px;stroke-linecap:round;"/>
            </g>
            <g transform="matrix(1,0,0,1,-1943,-4566)">
                <path d="M2585,5804C2745.16,5671.91 2907.39,5659.85 3107,5799C3092.31,5669.56 3177.9,5593.03 3293,5608" style="fill:none;stroke:black;stroke-width:6.67px;stroke-linecap:round;"/>
            </g>
            <g transform="matrix(1,0,0,1,-1943,-4566)">
                <path d="M3232,5973C3363.01,5950.58 3407.52,5888.21 3414,5799" style="fill:none;stroke:rgb(191,191,191);stroke-width:6.67px;stroke-linecap:round;"/>
            </g>
        </g>
    </g>
</svg>
