<?xml version="1.0" encoding="UTF-8" standalone="no"?>
<!DOCTYPE svg PUBLIC "-//W3C//DTD SVG 1.1//EN" "http://www.w3.org/Graphics/SVG/1.1/DTD/svg11.dtd">
<svg width="100%" height="100%" viewBox="0 0 1800 1800" version="1.1" xmlns="http://www.w3.org/2000/svg" xmlns:xlink="http://www.w3.org/1999/xlink" xml:space="preserve" xmlns:serif="http://www.serif.com/" style="fill-rule:evenodd;clip-rule:evenodd;stroke-linecap:square;stroke-linejoin:round;stroke-miterlimit:1.5;">
    <g transform="matrix(1,0,0,1,-54.2169,-3234.65)">
		<a xlink:href="HB-2.svg">
        <g id="HB-1" transform="matrix(1,0,0,1,54.2169,3234.65)">
            <rect x="0" y="0" width="1800" height="1800" style="fill:none;"/>
            <g transform="matrix(1,0,0,1,157.153,156.568)">
                <rect x="0" y="0" width="1501.06" height="1501.09" style="fill:white;"/>
            </g>
			
            <g id="Meta-Ring-and-Background" serif:id="Meta-Ring and Background" transform="matrix(-1.09813,0,0,-1.09813,1706.03,2099.12)">
                <g transform="matrix(0.545852,-0.945443,0.9537,0.550619,-641.299,1170.26)">
                    <ellipse cx="692" cy="1046" rx="458" ry="454" style="fill:none;stroke:black;stroke-width:0.46px;"/>
                </g>
                <g transform="matrix(0.5,-0.866025,0.629632,0.363518,-412.931,1316.59)">
                    <path d="M768,524.038L768,568" style="fill:none;stroke:black;stroke-width:0.57px;"/>
                </g>
                <g transform="matrix(0.5,-0.866025,0.629632,0.363518,425.349,1800.57)">
                    <path d="M768,524.038L768,568" style="fill:none;stroke:black;stroke-width:0.57px;"/>
                </g>
                <g transform="matrix(-0.866025,-0.5,0.363518,-0.629632,1442.63,1400.58)">
                    <path d="M768,524.038L768,568" style="fill:none;stroke:black;stroke-width:0.57px;"/>
                </g>
                <g transform="matrix(-0.866025,-0.5,0.363518,-0.629632,958.61,2238.93)">
                    <path d="M768,524.038L768,568" style="fill:none;stroke:black;stroke-width:0.57px;"/>
                </g>
                <g transform="matrix(0.866025,-0.5,0.363518,0.629632,-371.594,713.016)">
                    <path d="M768,524.038L768,568" style="fill:none;stroke:black;stroke-width:0.57px;"/>
                </g>
                <g transform="matrix(0.866025,-0.5,0.363518,0.629632,112.404,1551.33)">
                    <path d="M768,524.038L768,568" style="fill:none;stroke:black;stroke-width:0.57px;"/>
                </g>
                <g transform="matrix(-0.5,-0.866025,0.629632,-0.363518,1193.38,1713.55)">
                    <path d="M768,524.038L768,568" style="fill:none;stroke:black;stroke-width:0.57px;"/>
                </g>
                <g transform="matrix(-0.5,-0.866025,0.629632,-0.363518,355.038,2197.57)">
                    <path d="M768,524.038L768,568" style="fill:none;stroke:black;stroke-width:0.57px;"/>
                </g>
                <g transform="matrix(1,0,0,0.727036,-34,210.969)">
                    <path d="M768,524.038L768,568" style="fill:none;stroke:black;stroke-width:0.57px;"/>
                </g>
                <g transform="matrix(1,0,0,0.727036,-34,1179)">
                    <path d="M768,524.038L768,568" style="fill:none;stroke:black;stroke-width:0.57px;"/>
                </g>
                <g transform="matrix(6.12323e-17,-1,0.727036,4.45181e-17,821.022,1859.96)">
                    <path d="M768,524.038L768,568" style="fill:none;stroke:black;stroke-width:0.57px;"/>
                </g>
                <g transform="matrix(6.12323e-17,-1,0.727036,4.45181e-17,-146.974,1859.96)">
                    <path d="M768,524.038L768,568" style="fill:none;stroke:black;stroke-width:0.57px;"/>
                </g>
            </g>
            <g transform="matrix(-0.250435,0,0,-0.250435,1094.12,617.067)">
                <g id="Child-Rings" serif:id="Child Rings">
                    <g id="_0" serif:id="0">
                        <g id="Ring-and-Background" serif:id="Ring and Background" transform="matrix(1,0,0,1,50.3923,-72.3542)">
                            <g id="white-background" serif:id="white background" transform="matrix(-3.84294,-0,-0,-4.02215,13582.9,30283.5)">
                                <ellipse cx="3348" cy="7256.93" rx="133" ry="127.074" style="fill:white;"/>
                            </g>
                            <g id="Ring" transform="matrix(0.841899,0,0,0.841899,98.8118,175.77)">
                                <g transform="matrix(0.545852,-0.945443,0.9537,0.550619,-641.299,1170.26)">
                                    <ellipse cx="692" cy="1046" rx="458" ry="454" style="fill:none;stroke:black;stroke-width:10.83px;stroke-linecap:round;"/>
                                </g>
                                <g transform="matrix(0.5,-0.866025,0.629632,0.363518,-412.931,1316.59)">
                                    <path d="M768,524.038L768,568" style="fill:none;stroke:black;stroke-width:13.59px;stroke-linecap:round;"/>
                                </g>
                                <g transform="matrix(0.5,-0.866025,0.629632,0.363518,425.349,1800.57)">
                                    <path d="M768,524.038L768,568" style="fill:none;stroke:black;stroke-width:13.59px;stroke-linecap:round;"/>
                                </g>
                                <g transform="matrix(-0.866025,-0.5,0.363518,-0.629632,1442.63,1400.58)">
                                    <path d="M768,524.038L768,568" style="fill:none;stroke:black;stroke-width:13.59px;stroke-linecap:round;"/>
                                </g>
                                <g transform="matrix(-0.866025,-0.5,0.363518,-0.629632,958.61,2238.93)">
                                    <path d="M768,524.038L768,568" style="fill:none;stroke:black;stroke-width:13.59px;stroke-linecap:round;"/>
                                </g>
                                <g transform="matrix(0.866025,-0.5,0.363518,0.629632,-371.594,713.016)">
                                    <path d="M768,524.038L768,568" style="fill:none;stroke:black;stroke-width:13.59px;stroke-linecap:round;"/>
                                </g>
                                <g transform="matrix(0.866025,-0.5,0.363518,0.629632,112.404,1551.33)">
                                    <path d="M768,524.038L768,568" style="fill:none;stroke:black;stroke-width:13.59px;stroke-linecap:round;"/>
                                </g>
                                <g transform="matrix(-0.5,-0.866025,0.629632,-0.363518,1193.38,1713.55)">
                                    <path d="M768,524.038L768,568" style="fill:none;stroke:black;stroke-width:13.59px;stroke-linecap:round;"/>
                                </g>
                                <g transform="matrix(-0.5,-0.866025,0.629632,-0.363518,355.038,2197.57)">
                                    <path d="M768,524.038L768,568" style="fill:none;stroke:black;stroke-width:13.59px;stroke-linecap:round;"/>
                                </g>
                                <g transform="matrix(1,0,0,0.727036,-34,210.969)">
                                    <path d="M768,524.038L768,568" style="fill:none;stroke:black;stroke-width:13.59px;stroke-linecap:round;"/>
                                </g>
                                <g transform="matrix(1,0,0,0.727036,-34,1179)">
                                    <path d="M768,524.038L768,568" style="fill:none;stroke:black;stroke-width:13.59px;stroke-linecap:round;"/>
                                </g>
                                <g transform="matrix(6.12323e-17,-1,0.727036,4.45181e-17,821.022,1859.96)">
                                    <path d="M768,524.038L768,568" style="fill:none;stroke:black;stroke-width:13.59px;stroke-linecap:round;"/>
                                </g>
                                <g transform="matrix(6.12323e-17,-1,0.727036,4.45181e-17,-146.974,1859.96)">
                                    <path d="M768,524.038L768,568" style="fill:none;stroke:black;stroke-width:13.59px;stroke-linecap:round;"/>
                                </g>
                            </g>
                        </g>
                        <g id="Notes" transform="matrix(1,0,0,1,16.3923,-4.3923)">
                            <g id="_5" serif:id="5" transform="matrix(1.07151,-1.85591,1.88446,1.08799,-1271.91,1513.43)">
                                <ellipse cx="766" cy="526.5" rx="33" ry="32.5" style="fill:rgb(255,119,0);stroke:white;stroke-width:11.11px;stroke-linecap:round;"/>
                            </g>
                            <g id="_4" serif:id="4" transform="matrix(1.07151,-1.85591,1.88446,1.08799,-1423.87,1667.79)">
                                <ellipse cx="766" cy="526.5" rx="33" ry="32.5" style="fill:rgb(255,119,0);stroke:white;stroke-width:11.11px;stroke-linecap:round;"/>
                            </g>
                            <g id="_2" serif:id="2" transform="matrix(1.07151,-1.85591,1.88446,1.08799,-1423.86,2085.36)">
                                <ellipse cx="766" cy="526.5" rx="33" ry="32.5" style="fill:rgb(255,119,0);stroke:white;stroke-width:11.11px;stroke-linecap:round;"/>
                            </g>
                            <g id="_01" serif:id="0" transform="matrix(1.07151,-1.85591,1.88446,1.08799,-1062.18,2296.87)">
                                <ellipse cx="766" cy="526.5" rx="33" ry="32.5" style="fill:rgb(255,119,0);stroke:white;stroke-width:11.11px;stroke-linecap:round;"/>
                            </g>
                        </g>
                        <g id="Root-Markers" serif:id="Root Markers">
                        </g>
                    </g>
                </g>
            </g>
            <path d="M1291.34,1416.93C1662.29,1307.3 1586.22,1036.81 1401.17,1043.3" style="fill:none;stroke:rgb(179,179,179);stroke-width:6.67px;stroke-linecap:round;"/>
            <path d="M1499.71,1154.91C1650.58,1020.88 1602.45,628.593 1485.82,565.187C1441.51,424.374 1061.66,155.248 922.74,237.57" style="fill:none;stroke:rgb(179,179,179);stroke-width:6.67px;stroke-linecap:round;"/>
            <path d="M1167.76,1229.51C1156.19,1191.08 1201.7,1178.65 1249.88,1196.27C1243.13,1187.36 1216.03,1146.68 1210.71,1136.82C1158.69,1040.32 1188.37,881.424 1299.95,738.022C1152.71,766.371 977.666,650.505 954.502,485.283" style="fill:none;stroke:black;stroke-width:6.67px;stroke-linecap:round;"/>
		
        </g>
				</a>
    </g>
</svg>
