<?xml version="1.0" encoding="UTF-8" standalone="no"?>
<!DOCTYPE svg PUBLIC "-//W3C//DTD SVG 1.1//EN" "http://www.w3.org/Graphics/SVG/1.1/DTD/svg11.dtd">
<svg width="100%" height="100%" viewBox="0 0 1688 2200" version="1.1" xmlns="http://www.w3.org/2000/svg" xmlns:xlink="http://www.w3.org/1999/xlink" xml:space="preserve" xmlns:serif="http://www.serif.com/" style="fill-rule:evenodd;clip-rule:evenodd;stroke-linecap:square;stroke-linejoin:round;stroke-miterlimit:1.5;">
  <rect id="CHOICE" x="0" y="0" width="1688" height="2200" style="fill:none;"/>
  <g id="SG">
    <g id="Meta-Ring-and-Background" serif:id="Meta-Ring and Background">
      <path d="M1256.06,1235.89c-131.314,227.441 -422.563,305.493 -649.987,174.19c-227.424,-131.304 -305.454,-422.559 -174.141,-650c131.314,-227.442 422.563,-305.494 649.987,-174.19c227.424,131.303 305.454,422.558 174.141,650Z" style="fill:none;stroke:#000;stroke-width:0.48px;"/>
      <path d="M1256.06,1235.89l-26.343,-15.209" style="fill:none;stroke:#000;stroke-width:0.48px;"/>
      <path d="M458.279,775.289l-26.343,-15.209" style="fill:none;stroke:#000;stroke-width:0.48px;"/>
      <path d="M621.286,1383.74l-15.209,26.343" style="fill:none;stroke:#000;stroke-width:0.48px;"/>
      <path d="M1081.92,585.89l-15.209,26.342" style="fill:none;stroke:#000;stroke-width:0.48px;"/>
      <path d="M1081.91,1410.06l-15.209,-26.342" style="fill:none;stroke:#000;stroke-width:0.48px;"/>
      <path d="M621.296,612.25l-15.209,-26.343" style="fill:none;stroke:#000;stroke-width:0.48px;"/>
      <path d="M458.249,1220.7l-26.342,15.209" style="fill:none;stroke:#000;stroke-width:0.48px;"/>
      <path d="M1256.09,760.062l-26.342,15.209" style="fill:none;stroke:#000;stroke-width:0.48px;"/>
      <path d="M844,1473.83l0,-30.418" style="fill:none;stroke:#000;stroke-width:0.48px;"/>
      <path d="M844,552.558l0,-30.418" style="fill:none;stroke:#000;stroke-width:0.48px;"/>
      <path d="M398.592,997.985l-30.418,-0" style="fill:none;stroke:#000;stroke-width:0.48px;"/>
      <path d="M1319.83,997.985l-30.418,-0" style="fill:none;stroke:#000;stroke-width:0.48px;"/>
    </g>
    <g id="Child-Rings" serif:id="Child Rings">
      <g id="_10-Flight" sound="3F-Mid-Ab,3F-Mid-F,3F-Low-Db,3F-High-Eb" serif:id="10 Flight">
        <g id="Ring-and-Background" serif:id="Ring and Background">
          <circle id="white-background" serif:id="white background" cx="440.775" cy="767.013" r="110.931" style="fill:#fff;"/>
          <g id="Ring">
            <path d="M519.891,812.691c-25.212,43.668 -81.132,58.654 -124.798,33.444c-43.665,-25.21 -58.647,-81.131 -33.435,-124.8c25.212,-43.669 81.132,-58.655 124.798,-33.444c43.665,25.21 58.647,81.131 33.435,124.8Z" style="fill:none;stroke:#000;stroke-width:2.17px;stroke-linecap:round;"/>
            <path d="M519.891,812.691l-5.058,-2.92" style="fill:none;stroke:#000;stroke-width:2.17px;stroke-linecap:round;"/>
            <path d="M366.716,724.255l-5.058,-2.92" style="fill:none;stroke:#000;stroke-width:2.17px;stroke-linecap:round;"/>
            <path d="M398.013,841.077l-2.92,5.058" style="fill:none;stroke:#000;stroke-width:2.17px;stroke-linecap:round;"/>
            <path d="M486.456,687.891l-2.92,5.057" style="fill:none;stroke:#000;stroke-width:2.17px;stroke-linecap:round;"/>
            <path d="M486.454,846.132l-2.92,-5.058" style="fill:none;stroke:#000;stroke-width:2.17px;stroke-linecap:round;"/>
            <path d="M398.015,692.952l-2.92,-5.058" style="fill:none;stroke:#000;stroke-width:2.17px;stroke-linecap:round;"/>
            <path d="M366.71,809.774l-5.057,2.92" style="fill:none;stroke:#000;stroke-width:2.17px;stroke-linecap:round;"/>
            <path d="M519.896,721.332l-5.057,2.92" style="fill:none;stroke:#000;stroke-width:2.17px;stroke-linecap:round;"/>
            <path d="M440.775,858.375l-0,-5.84" style="fill:none;stroke:#000;stroke-width:2.17px;stroke-linecap:round;"/>
            <path d="M440.775,681.491l-0,-5.84" style="fill:none;stroke:#000;stroke-width:2.17px;stroke-linecap:round;"/>
            <path d="M355.256,767.013l-5.84,-0" style="fill:none;stroke:#000;stroke-width:2.17px;stroke-linecap:round;"/>
            <path d="M532.133,767.013l-5.84,-0" style="fill:none;stroke:#000;stroke-width:2.17px;stroke-linecap:round;"/>
          </g>
        </g>
        <g id="Notes">
          <path id="_8" serif:id="8" d="M375.242,820.224c-4.236,7.337 -13.631,9.854 -20.967,5.618c-7.336,-4.235 -9.854,-13.63 -5.618,-20.967c4.235,-7.336 13.63,-9.853 20.967,-5.618c7.336,4.236 9.854,13.631 5.618,20.967Z" style="stroke:#fff;stroke-width:5.21px;stroke-linecap:round;"/>
          <path id="_5" serif:id="5" d="M499.586,853.364c-4.235,7.336 -13.63,9.854 -20.967,5.618c-7.336,-4.236 -9.853,-13.631 -5.618,-20.967c4.236,-7.336 13.631,-9.854 20.967,-5.618c7.337,4.236 9.854,13.631 5.618,20.967Z" style="stroke:#fff;stroke-width:5.21px;stroke-linecap:round;"/>
          <path id="_1" serif:id="1" d="M499.127,696.522c-4.236,7.337 -13.631,9.854 -20.967,5.619c-7.337,-4.236 -9.854,-13.631 -5.619,-20.967c4.236,-7.337 13.631,-9.854 20.967,-5.619c7.337,4.236 9.854,13.631 5.619,20.967Z" style="stroke:#fff;stroke-width:5.21px;stroke-linecap:round;"/>
        </g>
        <g id="Root-Markers" serif:id="Root Markers">
          <path id="_11" serif:id="1" d="M474.19,709.095l-3.439,19.114l-11.394,-6.578l14.833,-12.536Zm-5.126,8.879l-0.856,4.757c0,0 -2.835,-1.637 -2.835,-1.637l3.691,-3.12Z"/>
        </g>
        <g id="Treble-Marker" serif:id="Treble Marker">
          <g id="_3" serif:id="3">
            <path id="_31" serif:id="3" d="M546.507,774.561c-4.287,7.425 -13.795,9.973 -21.221,5.686c-7.425,-4.287 -9.972,-13.795 -5.686,-21.22c4.287,-7.425 13.796,-9.973 21.221,-5.686c7.425,4.286 9.973,13.795 5.686,21.22Z" style="fill:#fff;stroke:#fff;stroke-width:6.5px;stroke-linecap:round;"/>
            <circle id="_3a" serif:id="3a" cx="532.886" cy="766.794" r="12.477" style="fill:#fff;stroke:#000;stroke-width:3.25px;stroke-linecap:round;"/>
          </g>
        </g>
      </g>
      <g id="_8-Fight" sound="3F-Low-Gb,3F-Mid-Eb,3F-High-Ab,3F-Mid-C" serif:id="8 Fight">
        <g id="Ring-and-Background1" serif:id="Ring and Background">
          <circle id="white-background1" serif:id="white background" cx="437.136" cy="1227.44" r="110.931" style="fill:#fff;"/>
          <g id="Ring1" serif:id="Ring">
            <path d="M516.253,1273.11c-25.213,43.668 -81.132,58.654 -124.798,33.444c-43.665,-25.21 -58.647,-81.131 -33.435,-124.8c25.212,-43.669 81.132,-58.655 124.798,-33.444c43.665,25.21 58.647,81.131 33.435,124.8Z" style="fill:none;stroke:#000;stroke-width:2.17px;stroke-linecap:round;"/>
            <path d="M516.253,1273.11l-5.058,-2.921" style="fill:none;stroke:#000;stroke-width:2.17px;stroke-linecap:round;"/>
            <path d="M363.078,1184.68l-5.058,-2.92" style="fill:none;stroke:#000;stroke-width:2.17px;stroke-linecap:round;"/>
            <path d="M394.375,1301.5l-2.92,5.058" style="fill:none;stroke:#000;stroke-width:2.17px;stroke-linecap:round;"/>
            <path d="M482.818,1148.31l-2.921,5.057" style="fill:none;stroke:#000;stroke-width:2.17px;stroke-linecap:round;"/>
            <path d="M482.816,1306.56l-2.92,-5.058" style="fill:none;stroke:#000;stroke-width:2.17px;stroke-linecap:round;"/>
            <path d="M394.377,1153.38l-2.92,-5.058" style="fill:none;stroke:#000;stroke-width:2.17px;stroke-linecap:round;"/>
            <path d="M363.072,1270.2l-5.058,2.92" style="fill:none;stroke:#000;stroke-width:2.17px;stroke-linecap:round;"/>
            <path d="M516.258,1181.76l-5.058,2.92" style="fill:none;stroke:#000;stroke-width:2.17px;stroke-linecap:round;"/>
            <path d="M437.136,1318.8l0,-5.84" style="fill:none;stroke:#000;stroke-width:2.17px;stroke-linecap:round;"/>
            <path d="M437.136,1141.91l0,-5.84" style="fill:none;stroke:#000;stroke-width:2.17px;stroke-linecap:round;"/>
            <path d="M351.618,1227.44l-5.84,-0" style="fill:none;stroke:#000;stroke-width:2.17px;stroke-linecap:round;"/>
            <path d="M528.495,1227.44l-5.84,-0" style="fill:none;stroke:#000;stroke-width:2.17px;stroke-linecap:round;"/>
          </g>
        </g>
        <g id="Notes1" serif:id="Notes">
          <path id="_6" serif:id="6" d="M450.429,1325.92c-4.236,7.336 -13.631,9.854 -20.967,5.618c-7.336,-4.235 -9.854,-13.63 -5.618,-20.967c4.235,-7.336 13.63,-9.853 20.967,-5.618c7.336,4.236 9.854,13.631 5.618,20.967Z" style="stroke:#fff;stroke-width:5.21px;stroke-linecap:round;"/>
          <path id="_32" serif:id="3" d="M541.422,1235c-4.236,7.337 -13.631,9.854 -20.967,5.618c-7.336,-4.235 -9.854,-13.63 -5.618,-20.967c4.236,-7.336 13.631,-9.853 20.967,-5.618c7.336,4.236 9.854,13.631 5.618,20.967Z" style="stroke:#fff;stroke-width:5.21px;stroke-linecap:round;"/>
          <path id="_0" serif:id="0" d="M450.429,1143.75c-4.236,7.336 -13.631,9.854 -20.967,5.618c-7.336,-4.235 -9.854,-13.63 -5.618,-20.967c4.235,-7.336 13.63,-9.854 20.967,-5.618c7.336,4.236 9.854,13.631 5.618,20.967Z" style="stroke:#fff;stroke-width:5.21px;stroke-linecap:round;"/>
        </g>
        <g id="Root-Markers1" serif:id="Root Markers">
          <path id="_61" serif:id="6" d="M437.136,1294.13l-6.578,-18.272l13.156,-0l-6.578,18.272Zm0,-10.252l-1.637,-4.548c0,0 3.274,0 3.274,0l-1.637,4.548Z"/>
        </g>
        <g id="Treble-Marker1" serif:id="Treble Marker">
          <g id="_81" serif:id="8">
            <path id="_8u" serif:id="8u" d="M370.996,1281.57c-4.287,7.425 -13.796,9.973 -21.221,5.686c-7.425,-4.286 -9.973,-13.795 -5.686,-21.22c4.287,-7.425 13.795,-9.973 21.221,-5.686c7.425,4.287 9.973,13.795 5.686,21.22Z" style="fill:#fff;stroke:#fff;stroke-width:6.5px;stroke-linecap:round;"/>
            <circle id="_8a" serif:id="8a" cx="357.542" cy="1273.8" r="12.477" style="fill:#fff;stroke:#000;stroke-width:3.25px;stroke-linecap:round;"/>
          </g>
        </g>
      </g>
      <g id="_5-Freeze" sound="3F-Low-Ab,3F-Mid-F,3F-Mid-C,3F-High-G" serif:id="5 Freeze">
        <g id="Ring-and-Background2" serif:id="Ring and Background">
          <circle id="white-background2" serif:id="white background" cx="1083.84" cy="1396.91" r="110.931" style="fill:#fff;"/>
          <g id="Ring2" serif:id="Ring">
            <path d="M1162.96,1442.59c-25.212,43.669 -81.132,58.655 -124.797,33.445c-43.666,-25.211 -58.648,-81.132 -33.435,-124.8c25.212,-43.669 81.132,-58.655 124.797,-33.445c43.665,25.21 58.647,81.131 33.435,124.8Z" style="fill:none;stroke:#000;stroke-width:2.17px;stroke-linecap:round;"/>
            <path d="M1162.96,1442.59l-5.058,-2.92" style="fill:none;stroke:#000;stroke-width:2.17px;stroke-linecap:round;"/>
            <path d="M1009.78,1354.15l-5.057,-2.92" style="fill:none;stroke:#000;stroke-width:2.17px;stroke-linecap:round;"/>
            <path d="M1041.08,1470.97l-2.92,5.058" style="fill:none;stroke:#000;stroke-width:2.17px;stroke-linecap:round;"/>
            <path d="M1129.52,1317.79l-2.92,5.058" style="fill:none;stroke:#000;stroke-width:2.17px;stroke-linecap:round;"/>
            <path d="M1129.52,1476.03l-2.92,-5.058" style="fill:none;stroke:#000;stroke-width:2.17px;stroke-linecap:round;"/>
            <path d="M1041.08,1322.85l-2.921,-5.058" style="fill:none;stroke:#000;stroke-width:2.17px;stroke-linecap:round;"/>
            <path d="M1009.78,1439.67l-5.058,2.92" style="fill:none;stroke:#000;stroke-width:2.17px;stroke-linecap:round;"/>
            <path d="M1162.96,1351.23l-5.058,2.92" style="fill:none;stroke:#000;stroke-width:2.17px;stroke-linecap:round;"/>
            <path d="M1083.84,1488.27l-0,-5.84" style="fill:none;stroke:#000;stroke-width:2.17px;stroke-linecap:round;"/>
            <path d="M1083.84,1311.39l-0,-5.84" style="fill:none;stroke:#000;stroke-width:2.17px;stroke-linecap:round;"/>
            <path d="M998.323,1396.91l-5.84,0" style="fill:none;stroke:#000;stroke-width:2.17px;stroke-linecap:round;"/>
            <path d="M1175.2,1396.91l-5.84,0" style="fill:none;stroke:#000;stroke-width:2.17px;stroke-linecap:round;"/>
          </g>
        </g>
        <g id="Notes2" serif:id="Notes">
          <path id="_82" serif:id="8" d="M1018.31,1450.12c-4.235,7.336 -13.63,9.854 -20.967,5.618c-7.336,-4.236 -9.854,-13.631 -5.618,-20.967c4.236,-7.336 13.631,-9.854 20.967,-5.618c7.336,4.235 9.854,13.63 5.618,20.967Z" style="stroke:#fff;stroke-width:5.21px;stroke-linecap:round;"/>
          <path id="_51" serif:id="5" d="M1142.65,1483.26c-4.236,7.337 -13.631,9.854 -20.967,5.619c-7.337,-4.236 -9.854,-13.631 -5.618,-20.967c4.235,-7.337 13.63,-9.854 20.967,-5.618c7.336,4.235 9.853,13.63 5.618,20.966Z" style="stroke:#fff;stroke-width:5.21px;stroke-linecap:round;"/>
          <path id="_01" serif:id="0" d="M1097.13,1313.22c-4.235,7.336 -13.63,9.853 -20.967,5.618c-7.336,-4.236 -9.853,-13.631 -5.618,-20.967c4.236,-7.337 13.631,-9.854 20.967,-5.618c7.337,4.235 9.854,13.63 5.618,20.967Z" style="stroke:#fff;stroke-width:5.21px;stroke-linecap:round;"/>
        </g>
        <g id="Root-Markers2" serif:id="Root Markers">
          <path id="_83" serif:id="8" d="M1026.01,1430.18l12.535,-14.834l6.579,11.394l-19.114,3.44Zm8.879,-5.127l3.12,-3.691c-0,-0 1.637,2.835 1.637,2.835l-4.757,0.856Z"/>
        </g>
        <g id="Treble-Marker2" serif:id="Treble Marker">
          <g id="_7" serif:id="7">
            <path id="_7u" serif:id="7u" d="M1051.99,1483.77c-4.287,7.425 -13.795,9.972 -21.22,5.686c-7.426,-4.287 -9.973,-13.796 -5.687,-21.221c4.287,-7.425 13.796,-9.973 21.221,-5.686c7.425,4.287 9.973,13.796 5.686,21.221Z" style="fill:#fff;stroke:#fff;stroke-width:6.5px;stroke-linecap:round;"/>
            <circle id="_7a" serif:id="7a" cx="1038.53" cy="1476.01" r="12.477" style="fill:#fff;stroke:#000;stroke-width:3.25px;stroke-linecap:round;"/>
          </g>
        </g>
      </g>
      <g id="_0-Refocus" sound="3F-Low-Bb,3F-Mid-F,3F-Mid-C,3F-High-Ab" serif:id="0 Refocus">
        <g id="Ring-and-Background3" serif:id="Ring and Background">
          <circle id="white-background3" serif:id="white background" cx="845.733" cy="530.807" r="110.931" style="fill:#fff;"/>
          <g id="Ring3" serif:id="Ring">
            <path d="M924.85,576.485c-25.213,43.668 -81.133,58.654 -124.798,33.444c-43.665,-25.21 -58.647,-81.131 -33.435,-124.8c25.212,-43.669 81.132,-58.655 124.798,-33.444c43.665,25.21 58.647,81.131 33.435,124.8Z" style="fill:none;stroke:#000;stroke-width:2.17px;stroke-linecap:round;"/>
            <path d="M924.85,576.485l-5.058,-2.921" style="fill:none;stroke:#000;stroke-width:2.17px;stroke-linecap:round;"/>
            <path d="M771.675,488.049l-5.058,-2.92" style="fill:none;stroke:#000;stroke-width:2.17px;stroke-linecap:round;"/>
            <path d="M802.972,604.871l-2.92,5.058" style="fill:none;stroke:#000;stroke-width:2.17px;stroke-linecap:round;"/>
            <path d="M891.415,451.685l-2.921,5.057" style="fill:none;stroke:#000;stroke-width:2.17px;stroke-linecap:round;"/>
            <path d="M891.413,609.926l-2.921,-5.058" style="fill:none;stroke:#000;stroke-width:2.17px;stroke-linecap:round;"/>
            <path d="M802.974,456.746l-2.92,-5.058" style="fill:none;stroke:#000;stroke-width:2.17px;stroke-linecap:round;"/>
            <path d="M771.669,573.568l-5.058,2.92" style="fill:none;stroke:#000;stroke-width:2.17px;stroke-linecap:round;"/>
            <path d="M924.855,485.126l-5.058,2.92" style="fill:none;stroke:#000;stroke-width:2.17px;stroke-linecap:round;"/>
            <path d="M845.733,622.169l0,-5.84" style="fill:none;stroke:#000;stroke-width:2.17px;stroke-linecap:round;"/>
            <path d="M845.733,445.285l0,-5.84" style="fill:none;stroke:#000;stroke-width:2.17px;stroke-linecap:round;"/>
            <path d="M760.215,530.807l-5.84,-0" style="fill:none;stroke:#000;stroke-width:2.17px;stroke-linecap:round;"/>
            <path d="M937.092,530.807l-5.84,-0" style="fill:none;stroke:#000;stroke-width:2.17px;stroke-linecap:round;"/>
          </g>
        </g>
        <g id="Notes3" serif:id="Notes">
          <path id="_10"  serif:id="10" d="M780.746,493.023c-4.236,7.337 -13.631,9.854 -20.967,5.618c-7.336,-4.235 -9.854,-13.63 -5.618,-20.967c4.235,-7.336 13.63,-9.853 20.967,-5.618c7.336,4.236 9.853,13.631 5.618,20.967Z" style="stroke:#fff;stroke-width:5.21px;stroke-linecap:round;"/>
          <path id="_52" serif:id="5" d="M904.545,617.158c-4.236,7.336 -13.631,9.854 -20.967,5.618c-7.336,-4.236 -9.854,-13.631 -5.618,-20.967c4.236,-7.336 13.631,-9.854 20.967,-5.618c7.336,4.236 9.854,13.631 5.618,20.967Z" style="stroke:#fff;stroke-width:5.21px;stroke-linecap:round;"/>
          <path id="_02" serif:id="0" d="M859.026,447.119c-4.236,7.336 -13.631,9.854 -20.967,5.618c-7.337,-4.235 -9.854,-13.63 -5.618,-20.967c4.235,-7.336 13.63,-9.854 20.967,-5.618c7.336,4.236 9.853,13.631 5.618,20.967Z" style="stroke:#fff;stroke-width:5.21px;stroke-linecap:round;"/>
        </g>
        <g id="Root-Markers3" serif:id="Root Markers">
          <path id="_101" serif:id="10" d="M788.043,497.301l12.535,14.833l6.578,-11.393l-19.113,-3.44Zm8.878,5.126l4.757,0.856c0,0 -1.637,2.836 -1.637,2.836l-3.12,-3.692Z"/>
        </g>
        <g id="Treble-Marker3" serif:id="Treble Marker">
          <g id="_84" serif:id="8">
            <path id="_8u1" serif:id="8u" d="M779.614,584.76c-4.286,7.425 -13.795,9.973 -21.22,5.686c-7.425,-4.286 -9.973,-13.795 -5.686,-21.22c4.287,-7.425 13.795,-9.973 21.22,-5.686c7.426,4.287 9.973,13.795 5.686,21.22Z" style="fill:#fff;stroke:#fff;stroke-width:6.5px;stroke-linecap:round;"/>
            <circle id="_8a1" serif:id="8a" cx="766.161" cy="576.993" r="12.477" style="fill:#fff;stroke:#000;stroke-width:3.25px;stroke-linecap:round;"/>
          </g>
        </g>
      </g>
    </g>
  </g>
	<a xlink:href="CHOICE-TO-PREFIGHT.svg">
  <g id="FIGHTLINK">
    <path d="M209,1364.47c0,-19.317 -15.683,-35 -35,-35l-70,-0c-19.317,-0 -35,15.683 -35,35l0,78c0,19.317 15.683,35 35,35l70,-0c19.317,-0 35,-15.683 35,-35l0,-78Z" style="fill:#fff;"/>
    <path id="fight" d="M111.458,1348.47c0.05,-0.25 0.1,-0.7 0.1,-1.2c0,-0.7 -0.1,-1.55 -0.2,-2.25c-0.15,-0.5 -0.6,-1 -1.15,-1.55c-0.5,-0.5 -1.05,-0.9 -1.4,-1.2l-0.4,-0.4l-0.2,-0.25c-0.15,-0.15 -0.3,-0.25 -0.75,-0.35c-0.25,-0 -0.5,-0.1 -0.75,-0.15c-0.75,-0.25 -1.6,-0.6 -2.45,-0.6c-2.65,-0 -4.95,1.5 -6,2.4c-1,0.9 -1.6,3 -1.6,3.75c0,0.2 -0.05,0.45 -0.1,0.75l-0.1,1.05c-0.1,0.45 -0.15,1 -0.15,1.6c0,0.3 0.05,0.65 0.1,1.15c0,0.4 0.05,0.65 0.05,0.9c0,0.75 -0.25,1.2 -0.7,1.3c-0.1,0.05 -0.25,0.05 -0.4,0.05l-0.55,-0c-0.1,-0 -0.3,-0 -0.4,0.05c-0.35,0.1 -0.8,0.2 -1.1,0.4c-0.25,0.2 -0.4,0.45 -0.4,1.1c0,1.15 0.5,1.35 1.2,1.35l0.55,-0c0.6,-0 1.05,0.25 1.6,0.55c0.45,0.25 0.6,0.7 0.6,1.2c0,0.2 -0.05,0.4 -0.05,0.55l-0.15,1.1c-0.1,0.35 -0.15,0.7 -0.15,0.95c0,1.2 0,5.2 0.25,5.8c0.05,0.1 0.05,0.2 0.05,0.3c0,0.3 -0.15,0.6 -0.3,0.9c-0.05,0.2 -0.25,0.4 -0.25,0.55c0,0.05 0.05,0.1 0.1,0.15c0.15,0.2 0.25,0.45 0.25,0.7c0,0.4 -0.3,0.85 -0.65,1.35c-0.1,0.15 -0.15,0.35 -0.15,0.55c0,0.7 0.65,1.6 0.9,1.95c0.15,0.2 0.5,0.25 0.95,0.25c0.65,-0 1.55,-0.15 2,-0.35c0.35,-0.1 0.5,-0.7 0.5,-1.4c0,-0.55 -0.1,-1.15 -0.15,-1.6c-0.05,-0.4 -0.15,-0.65 -0.3,-1c-0.15,-0.25 -0.25,-0.5 -0.25,-0.8l0,-0.2c0.1,-0.55 0.2,-1.25 0.2,-2c0,-0.3 0,-0.65 -0.05,-0.95c-0.15,-1.05 -0.25,-3.25 -0.4,-4.05c0,-0.25 -0.05,-0.55 -0.05,-0.9c0,-0.6 0.05,-1.2 0.35,-1.9c0.45,-1.1 1.15,-1.7 2.1,-1.85l0.2,-0c0.4,-0 0.8,0.15 1.15,0.2c0.25,0.15 0.55,0.2 0.85,0.2l0.15,-0c0.25,-0 0.35,-0.25 0.35,-0.8l0,-0.2c0,-0.5 -0.1,-1 -0.1,-1.35c-0.05,-0.35 -0.45,-0.4 -0.85,-0.4l-1.1,-0c-0.3,-0 -0.65,-0 -0.9,-0.1c-1.1,-0.25 -1.9,-0.85 -1.9,-1.9c0,-0.45 0,-0.95 -0.05,-1.45c0,-0.15 -0.05,-0.3 -0.05,-0.5c0,-0.3 0.05,-0.6 0.15,-0.85c0.05,-0.15 0.1,-0.35 0.1,-0.7c0.1,-0.7 0.1,-2.3 0.8,-2.65l0.85,-0.4c0.2,-0.15 0.25,-0.2 0.3,-0.5c0.1,-0.45 0.6,-0.7 1.1,-0.85c0.5,-0.15 1.15,-0.3 1.8,-0.5c0.15,-0.05 0.3,-0.1 0.5,-0.1c0.5,-0 0.85,0.25 1.15,0.6c0.35,0.4 0.7,0.9 1.1,1.25c0.55,0.4 0.75,1 0.85,1.55c0.05,0.3 0.05,0.6 0.05,0.85l0,0.6c0,0.45 1.2,1.15 2.1,1.15c0.85,-0 1.15,-0.35 1.25,-0.9Zm0.6,23.6c0,-0.3 0,-0.65 -0.1,-0.95l-0.1,-1.1c-0.15,-1.45 -0.4,-4.95 -0.4,-6.8c0,-1.85 0,-5.5 0.15,-7.6l0,-0.35c0,-0.75 -0.15,-1.15 -0.35,-1.3c-0.1,-0.1 -0.3,-0.15 -0.5,-0.25l-0.8,-0.2c-0.1,-0 -0.2,-0.05 -0.3,-0.05c-0.5,-0 -1.1,0.25 -1.2,0.55c-0.05,0.35 -0.2,1.1 -0.2,1.85c0,0.5 0.05,0.95 0.2,1.25c0.15,0.3 0.2,0.9 0.2,1.55c0,0.5 0,1 -0.05,1.55c-0.1,0.95 -0.15,1.95 -0.15,2.8c0,0.35 0,0.65 0.05,0.95c0.05,0.8 0.1,1.9 0.1,3.1c0,1.8 -0.1,3.8 -0.25,4.9l0,0.25c0,0.8 0.6,1 1.35,1c0.55,-0 1.2,-0.1 1.7,-0.2c0.5,-0.1 0.65,-0.4 0.65,-0.95Z" style="fill-rule:nonzero;"/>
    <path d="M139.108,1357.37c0.05,-0.3 0.05,-0.55 0.05,-0.8c0,-1.2 -0.5,-1.45 -1.55,-1.55c-0.25,-0.05 -0.4,-0.05 -0.6,-0.05c-0.55,-0 -0.7,0.15 -0.7,0.5c0,0.3 0.1,0.6 0.1,0.9c0,0.3 -0.05,0.75 -0.45,1.05c-0.1,0.15 -0.25,0.2 -0.45,0.2c-0.3,-0 -0.65,-0.2 -1.05,-0.55c-0.35,-0.4 -0.75,-0.85 -1.25,-1.15c-0.9,-0.55 -2.7,-1.45 -5.25,-1.55l-0.15,-0c-1.9,-0 -4.1,1.5 -5.3,2.6c-1.15,1.1 -3,3.45 -3,7.4l0,0.25c0.05,2.1 0.5,3.55 1.2,4.7c0.6,1.05 1.45,1.9 2.25,2.75l0.25,0.2c1.75,1.75 4.25,2.05 5.5,2.05c1.2,-0 2.75,-0.3 3.7,-1.25c1,-1 2.2,-1.5 3.05,-1.5l0.25,-0c0.6,0.1 0.7,0.7 0.75,1.15c0,0.45 -0.1,1.15 -0.15,2.05c-0.1,1.85 -0.5,2.85 -1.2,4.15c-0.85,1.5 -3.3,2.2 -5.7,2.4c-0.15,-0 -0.3,0.05 -0.45,0.05c-2.45,-0 -4.45,-1.8 -5.25,-3.1c-0.35,-0.6 -0.6,-0.8 -0.95,-0.9c-0.15,-0.05 -0.35,-0.05 -0.6,-0.05l-1,-0c-0.6,-0 -0.8,0.35 -0.8,0.8c0,0.3 0.15,0.75 0.3,1c0.15,0.35 0.5,0.75 0.9,1.2c0.4,0.45 0.9,0.9 1.35,1.3c0.8,0.8 3,1.75 5.9,2l0.55,-0c2.6,-0 4.85,-1 6.1,-1.75c1.25,-0.7 2.75,-3 3.25,-4.75c0.25,-0.75 0.3,-2.45 0.3,-4.25c0,-2 -0.05,-4.15 -0.1,-5.55c-0.05,-0.95 -0.05,-2.15 -0.05,-3.45c0,-2.4 0.05,-5.05 0.25,-6.5Zm-2.8,7.1c0,1.45 -0.1,3.25 -1.35,4.85c-1.2,1.5 -2.5,2.7 -5.5,2.7l-0.3,-0c-1.6,-0.05 -2.7,-0.4 -3.45,-0.9c-0.75,-0.5 -1.25,-1.05 -1.75,-1.7c-1,-1.15 -1.5,-2.8 -1.55,-4.8l0,-0.5c0,-1.9 0.4,-3.55 1.75,-5.1c1.5,-1.7 3.6,-1.9 5.3,-1.9c2.25,-0 4.15,0.75 5.3,2.3c1.15,1.55 1.55,3.5 1.55,5.05Z" style="fill-rule:nonzero;"/>
    <path d="M164.758,1372.37l0,-0.3c0,-0.4 -0.05,-0.75 -0.1,-1.15c-0.1,-0.85 -0.15,-3.25 -0.15,-5.35c0,-1.35 0,-2.65 0.05,-3.4l0,-0.35c0,-1.85 -0.55,-4.15 -1.4,-5.45c-0.85,-1.3 -3.35,-2.15 -4.65,-2.25c-0.25,-0 -0.55,-0.05 -0.85,-0.05c-1.15,-0 -2.45,0.25 -3.85,1.3c-0.7,0.55 -1.2,0.75 -1.55,0.75c-0.3,-0 -0.45,-0.1 -0.6,-0.25c-0.3,-0.3 -0.3,-0.85 -0.35,-1.25c-0.15,-0.45 -0.2,-0.95 -0.2,-1.55c0,-0.65 0.05,-1.35 0.15,-2.25c0.2,-1.75 0.4,-4.7 0.5,-7.6l0,-0.3c0,-1.25 -0.25,-1.6 -0.45,-1.8c-0.15,-0.15 -0.3,-0.2 -0.6,-0.25l-1.2,-0c-1.15,-0 -1.5,0.5 -1.5,1.4c0,1.3 0,3.7 0.15,6.7c0.2,3.05 0.35,10.1 0.35,12.05c0,1.95 -0.15,8.55 -0.3,10.6c-0.05,0.4 -0.1,0.75 -0.1,1c0,0.85 0.35,1.05 1.75,1.2l0.3,-0c1.15,-0 1.35,-0.55 1.35,-1.2c0,-0.2 -0.05,-0.4 -0.05,-0.6c-0.05,-0.6 -0.1,-2.5 -0.1,-4.55c0,-2.05 0.05,-4.25 0.1,-5.35c0.15,-2.5 1.4,-3.55 2.3,-4.25c1,-0.75 2.85,-1.2 3.7,-1.2c0.15,-0 0.4,-0 0.65,0.05c1,0.05 1.75,0.45 2.5,1.3c1,1.2 1.05,2.85 1.05,4.4l0,0.65c0,1.5 -0.35,6.5 -0.55,8.25c-0.05,0.3 -0.05,0.6 -0.05,0.85c0,1 0.35,1.5 2.05,1.65l0.3,-0c0.85,-0 1.15,-0.35 1.25,-0.75c0.05,-0.2 0.1,-0.45 0.1,-0.7Z" style="fill-rule:nonzero;"/>
    <path d="M181.558,1355.87c0,-0.4 -0.2,-0.55 -0.6,-0.7c-0.25,-0.05 -0.55,-0.05 -0.85,-0.05c-0.35,-0 -0.65,-0.05 -1,-0.05l-0.85,-0.1c-0.25,-0 -0.45,-0.05 -0.65,-0.1c-0.45,-0.15 -0.75,-0.5 -0.75,-1c0,-0.7 0,-1.9 0.1,-3.85l0,-0.2c0,-0.75 -0.15,-1 -0.3,-1.1c-0.25,-0.2 -0.75,-0.2 -1.05,-0.2l-0.15,-0c-0.75,-0 -1.2,0.6 -1.25,0.9c0,0.05 -0.05,0.15 -0.05,0.2c0,0.25 0.05,0.65 0.1,1.15c0.1,0.65 0.2,1.5 0.2,2.35l0,0.25c0,0.9 -0.4,1.4 -1.05,1.55c-0.2,0.05 -0.4,0.05 -0.6,0.05c-0.35,-0 -0.8,-0.05 -1.15,-0.05c-0.7,-0 -1.1,0.45 -1.25,1.95c0,0.05 -0.05,0.1 -0.05,0.15c0,0.3 0.2,0.4 0.6,0.5c0.25,0.05 0.5,0.05 0.75,0.05c0.25,-0 0.5,-0.05 0.7,-0.05c0.8,-0 1.85,0.6 1.85,1.7c0,0.8 0.15,2.55 0.15,4.8c0,2.25 -0.3,6.55 -0.3,8.5c0,0.95 0.15,1.2 0.3,1.3l0.4,0.1l0.9,-0c1.25,-0 1.65,-0.15 1.65,-0.8l0,-0.35c-0.15,-1.4 -0.4,-5 -0.45,-7.1c-0.05,-0.7 -0.1,-1.55 -0.1,-2.4c0,-1.65 0.1,-3.35 0.15,-4.45c0.05,-1.1 0.7,-1.55 1.5,-1.6l0.15,-0c0.6,-0 1.15,0.15 1.75,0.2l0.2,-0c0.65,-0 1,-0.35 1,-1.55Z" style="fill-rule:nonzero;"/>
    <circle cx="125.667" cy="1427.83" r="26.667" style="fill:#fff;stroke:#737373;stroke-width:2.5px;stroke-linecap:round;"/>
    <circle cx="152.333" cy="1427.83" r="26.667" style="fill:none;stroke:#737373;stroke-width:2.5px;stroke-linecap:round;"/>
  </g>
	</a>
	<a xlink:href="CHOICE-TO-PREFLIGHT.svg">
  <g id="FLIGHTLINK">
    <path d="M213,554.467c0,-19.317 -15.683,-35 -35,-35l-70,-0c-19.317,-0 -35,15.683 -35,35l0,78c0,19.317 15.683,35 35,35l70,-0c19.317,-0 35,-15.683 35,-35l0,-78Z" style="fill:#fff;"/>
    <path id="fight1" serif:id="fight" d="M110.083,560.217c-0.05,-1 -0.25,-2 -0.25,-2.45c0,-0.4 -0.15,-0.9 -0.25,-1.3c-0.05,-0.3 -0.1,-0.6 -0.1,-0.95c0,-0.35 0.05,-0.65 0.1,-1.05c0.25,-0.85 0.25,-1.55 0.25,-2.2c-0.05,-0.65 -0.15,-1.25 -0.25,-1.75c-0.1,-1.05 -0.1,-4.95 -0.25,-6.8l0,-1c0,-0.4 -0.05,-0.8 -0.05,-1.1c0,-1 0.05,-1.95 0.2,-3c0.05,-0.3 0.05,-0.55 0.05,-0.85c0,-1.5 -0.5,-3 -0.85,-3.9c-0.35,-1 -1.45,-2.1 -2.45,-2.3l-1.7,-0.6c-0.65,-0.15 -1.45,-0.35 -2.55,-0.35c-1.05,-0 -2.55,0.15 -3.85,0.5c-0.85,0.3 -1.45,1.25 -2,2c-0.15,0.25 -0.3,0.45 -0.55,0.6c-0.45,0.4 -0.75,2.1 -0.75,4.65c0,0.45 0,0.95 0.05,1.45c0,0.35 0.05,0.75 0.05,1.05c0,0.95 -0.1,1.5 -0.35,1.85c-0.15,0.3 -0.35,0.4 -0.6,0.55l-0.75,0.25c-1.2,0.35 -2,1 -2.1,1.4c-0.05,0.15 -0.05,0.2 -0.05,0.35c0,0.45 0.25,0.95 1,0.95c1.25,-0 1.45,0.15 2,0.7l0.35,0.4c0.5,0.4 0.75,0.8 0.75,1.5c0,0.4 0.05,1.35 0.05,2.3c0,0.85 -0.05,1.8 -0.2,2.2c-0.05,0.1 -0.1,0.3 -0.1,0.55c-0.05,0.8 0,2.05 -0.3,2.7c-0.05,0.2 -0.1,0.4 -0.1,0.65c0,0.2 0,0.4 0.05,0.65c0,0.5 0.1,1.05 0.1,1.75c0,0.2 -0.05,0.4 -0.05,0.65c0,0.2 -0.05,0.4 -0.05,0.6c0,1.4 0.5,1.9 2.35,2l0.35,-0c0.8,-0 0.95,-0.25 1,-0.5c0,-0.1 0.05,-0.25 0.05,-0.35c0,-0.15 -0.05,-0.3 -0.05,-0.45c0,-0.2 -0.05,-0.45 -0.05,-0.7c0,-0.15 0.05,-0.25 0.05,-0.4c0,-0.15 0.05,-0.3 0.05,-0.45c0,-0.55 -0.15,-1.15 -0.2,-1.7c-0.1,-0.75 -0.25,-1.5 -0.25,-2.25c0,-0.7 -0.05,-1.5 -0.1,-2.2c-0.05,-0.45 -0.05,-0.85 -0.05,-1.2c0,-0.25 0,-0.5 0.05,-0.65l0,-0.35c0,-0.3 0,-0.55 -0.05,-0.9l-0.25,-1.4l0,-0.2c0,-0.5 0.1,-0.95 0.35,-1.35c0.25,-0.45 0.5,-0.9 0.75,-1.2c0.25,-0.45 0.65,-0.5 1.1,-0.5l1.9,-0c0.85,-0.05 1,-0.25 1.05,-0.4c0.05,-0.1 0.05,-0.25 0.05,-0.4l0,-0.6c0,-0.1 0.05,-0.2 0.05,-0.35c0,-0.4 -0.25,-0.6 -1.15,-0.6c-1.15,-0 -2.5,-0.15 -3.5,-0.8c-0.5,-0.4 -0.6,-1.2 -0.6,-1.9c0,-0.45 0,-0.8 0.05,-1.2c0,-0.35 0,-0.7 -0.05,-0.95c-0.05,-0.2 -0.05,-0.35 -0.05,-0.55c0,-1.1 0.3,-2.25 0.9,-2.75c0.35,-0.25 0.7,-0.5 0.95,-0.7c0.25,-0.2 0.45,-0.45 0.55,-0.8c0.2,-0.45 1,-0.6 1.9,-0.6c0.65,-0 1.45,0.1 2,0.2c1.3,0.3 2.35,2.15 2.75,3.85c0.1,0.5 0.15,1.3 0.15,2.25l0,2.3c0,1.75 -0.1,3.6 -0.1,4.45c0,0.85 0.05,2.5 0.15,4l0,0.15c0.05,1.05 0.1,2.1 0.1,2.75l0,0.55l-0.2,1c0,0.2 0,0.4 0.15,0.7c0.1,0.2 0.15,0.65 0.15,1.15c0,0.45 -0.05,1 -0.05,1.5c-0.1,1.2 -0.25,2.4 -0.3,3.05l0,0.2c0,1 0.9,1.4 1.55,1.4c0.4,-0 0.6,-0.1 0.85,-0.2l0.9,-0.7c0.25,-0.1 0.3,-0.55 0.3,-1.1c0,-0.25 -0.05,-0.5 -0.05,-0.8Z" style="fill-rule:nonzero;"/>
    <path d="M123.333,537.967c-0.05,-1.35 -1.25,-2.6 -2.5,-2.75l-0.35,-0c-1.3,-0 -2.2,0.8 -2.3,1.95c0.05,1.55 1.4,2.8 2.85,2.8c1.5,-0 2.1,-0.85 2.3,-2Zm-0.6,24.05c-0.15,-1.15 -0.6,-5.5 -0.6,-7.65c0,-1 -0.05,-2 -0.05,-3.05c0,-1.35 0.05,-2.75 0.2,-4.45c0,-0.3 0.05,-0.55 0.05,-0.8c0,-1.6 -0.5,-1.7 -1.3,-1.7c-1.3,-0 -1.6,0.3 -1.6,1.2c0,0.15 0.05,0.3 0.05,0.55c0.1,1.5 0.2,5.7 0.2,7.85c0,2.15 -0.4,5.95 -0.4,7.8c0,1.75 0.1,2.05 1.6,2.05c1.4,-0 1.9,-0.65 1.9,-1.45c0,-0.1 -0.05,-0.25 -0.05,-0.35Z" style="fill-rule:nonzero;"/>
    <path d="M149.233,547.367c0.05,-0.3 0.05,-0.55 0.05,-0.8c0,-1.2 -0.5,-1.45 -1.55,-1.55c-0.25,-0.05 -0.4,-0.05 -0.6,-0.05c-0.55,-0 -0.7,0.15 -0.7,0.5c0,0.3 0.1,0.6 0.1,0.9c0,0.3 -0.05,0.75 -0.45,1.05c-0.1,0.15 -0.25,0.2 -0.45,0.2c-0.3,-0 -0.65,-0.2 -1.05,-0.55c-0.35,-0.4 -0.75,-0.85 -1.25,-1.15c-0.9,-0.55 -2.7,-1.45 -5.25,-1.55l-0.15,-0c-1.9,-0 -4.1,1.5 -5.3,2.6c-1.15,1.1 -3,3.45 -3,7.4l0,0.25c0.05,2.1 0.5,3.55 1.2,4.7c0.6,1.05 1.45,1.9 2.25,2.75l0.25,0.2c1.75,1.75 4.25,2.05 5.5,2.05c1.2,-0 2.75,-0.3 3.7,-1.25c1,-1 2.2,-1.5 3.05,-1.5l0.25,-0c0.6,0.1 0.7,0.7 0.75,1.15c0,0.45 -0.1,1.15 -0.15,2.05c-0.1,1.85 -0.5,2.85 -1.2,4.15c-0.85,1.5 -3.3,2.2 -5.7,2.4c-0.15,-0 -0.3,0.05 -0.45,0.05c-2.45,-0 -4.45,-1.8 -5.25,-3.1c-0.35,-0.6 -0.6,-0.8 -0.95,-0.9c-0.15,-0.05 -0.35,-0.05 -0.6,-0.05l-1,-0c-0.6,-0 -0.8,0.35 -0.8,0.8c0,0.3 0.15,0.75 0.3,1c0.15,0.35 0.5,0.75 0.9,1.2c0.4,0.45 0.9,0.9 1.35,1.3c0.8,0.8 3,1.75 5.9,2l0.55,-0c2.6,-0 4.85,-1 6.1,-1.75c1.25,-0.7 2.75,-3 3.25,-4.75c0.25,-0.75 0.3,-2.45 0.3,-4.25c0,-2 -0.05,-4.15 -0.1,-5.55c-0.05,-0.95 -0.05,-2.15 -0.05,-3.45c0,-2.4 0.05,-5.05 0.25,-6.5Zm-2.8,7.1c0,1.45 -0.1,3.25 -1.35,4.85c-1.2,1.5 -2.5,2.7 -5.5,2.7l-0.3,-0c-1.6,-0.05 -2.7,-0.4 -3.45,-0.9c-0.75,-0.5 -1.25,-1.05 -1.75,-1.7c-1,-1.15 -1.5,-2.8 -1.55,-4.8l0,-0.5c0,-1.9 0.4,-3.55 1.75,-5.1c1.5,-1.7 3.6,-1.9 5.3,-1.9c2.25,-0 4.15,0.75 5.3,2.3c1.15,1.55 1.55,3.5 1.55,5.05Z" style="fill-rule:nonzero;"/>
    <path d="M174.883,562.367l0,-0.3c0,-0.4 -0.05,-0.75 -0.1,-1.15c-0.1,-0.85 -0.15,-3.25 -0.15,-5.35c0,-1.35 0,-2.65 0.05,-3.4l0,-0.35c0,-1.85 -0.55,-4.15 -1.4,-5.45c-0.85,-1.3 -3.35,-2.15 -4.65,-2.25c-0.25,-0 -0.55,-0.05 -0.85,-0.05c-1.15,-0 -2.45,0.25 -3.85,1.3c-0.7,0.55 -1.2,0.75 -1.55,0.75c-0.3,-0 -0.45,-0.1 -0.6,-0.25c-0.3,-0.3 -0.3,-0.85 -0.35,-1.25c-0.15,-0.45 -0.2,-0.95 -0.2,-1.55c0,-0.65 0.05,-1.35 0.15,-2.25c0.2,-1.75 0.4,-4.7 0.5,-7.6l0,-0.3c0,-1.25 -0.25,-1.6 -0.45,-1.8c-0.15,-0.15 -0.3,-0.2 -0.6,-0.25l-1.2,-0c-1.15,-0 -1.5,0.5 -1.5,1.4c0,1.3 0,3.7 0.15,6.7c0.2,3.05 0.35,10.1 0.35,12.05c0,1.95 -0.15,8.55 -0.3,10.6c-0.05,0.4 -0.1,0.75 -0.1,1c0,0.85 0.35,1.05 1.75,1.2l0.3,-0c1.15,-0 1.35,-0.55 1.35,-1.2c0,-0.2 -0.05,-0.4 -0.05,-0.6c-0.05,-0.6 -0.1,-2.5 -0.1,-4.55c0,-2.05 0.05,-4.25 0.1,-5.35c0.15,-2.5 1.4,-3.55 2.3,-4.25c1,-0.75 2.85,-1.2 3.7,-1.2c0.15,-0 0.4,-0 0.65,0.05c1,0.05 1.75,0.45 2.5,1.3c1,1.2 1.05,2.85 1.05,4.4l0,0.65c0,1.5 -0.35,6.5 -0.55,8.25c-0.05,0.3 -0.05,0.6 -0.05,0.85c0,1 0.35,1.5 2.05,1.65l0.3,-0c0.85,-0 1.15,-0.35 1.25,-0.75c0.05,-0.2 0.1,-0.45 0.1,-0.7Z" style="fill-rule:nonzero;"/>
    <path d="M191.683,545.867c0,-0.4 -0.2,-0.55 -0.6,-0.7c-0.25,-0.05 -0.55,-0.05 -0.85,-0.05c-0.35,-0 -0.65,-0.05 -1,-0.05l-0.85,-0.1c-0.25,-0 -0.45,-0.05 -0.65,-0.1c-0.45,-0.15 -0.75,-0.5 -0.75,-1c0,-0.7 0,-1.9 0.1,-3.85l0,-0.2c0,-0.75 -0.15,-1 -0.3,-1.1c-0.25,-0.2 -0.75,-0.2 -1.05,-0.2l-0.15,-0c-0.75,-0 -1.2,0.6 -1.25,0.9c0,0.05 -0.05,0.15 -0.05,0.2c0,0.25 0.05,0.65 0.1,1.15c0.1,0.65 0.2,1.5 0.2,2.35l0,0.25c0,0.9 -0.4,1.4 -1.05,1.55c-0.2,0.05 -0.4,0.05 -0.6,0.05c-0.35,-0 -0.8,-0.05 -1.15,-0.05c-0.7,-0 -1.1,0.45 -1.25,1.95c0,0.05 -0.05,0.1 -0.05,0.15c0,0.3 0.2,0.4 0.6,0.5c0.25,0.05 0.5,0.05 0.75,0.05c0.25,-0 0.5,-0.05 0.7,-0.05c0.8,-0 1.85,0.6 1.85,1.7c0,0.8 0.15,2.55 0.15,4.8c0,2.25 -0.3,6.55 -0.3,8.5c0,0.95 0.15,1.2 0.3,1.3l0.4,0.1l0.9,-0c1.25,-0 1.65,-0.15 1.65,-0.8l0,-0.35c-0.15,-1.4 -0.4,-5 -0.45,-7.1c-0.05,-0.7 -0.1,-1.55 -0.1,-2.4c0,-1.65 0.1,-3.35 0.15,-4.45c0.05,-1.1 0.7,-1.55 1.5,-1.6l0.15,-0c0.6,-0 1.15,0.15 1.75,0.2l0.2,-0c0.65,-0 1,-0.35 1,-1.55Z" style="fill-rule:nonzero;"/>
    <circle cx="129.667" cy="617.833" r="26.667" style="fill:#fff;stroke:#737373;stroke-width:2.5px;stroke-linecap:round;"/>
    <circle cx="156.333" cy="617.833" r="26.667" style="fill:none;stroke:#737373;stroke-width:2.5px;stroke-linecap:round;"/>
  </g>
	</a>
	<a xlink:href="PRECHOICE.svg">
  <g id="REFOCUSLINK">
    <path d="M913,234.467c-0,-19.317 -15.683,-35 -35,-35l-70,-0c-19.317,-0 -35,15.683 -35,35l-0,78c-0,19.317 15.683,35 35,35l70,-0c19.317,-0 35,-15.683 35,-35l-0,-78Z" style="fill:#fff;"/>
    <path id="fight2" serif:id="fight" d="M780.217,249.042l0.166,-0.042c0.042,-0.083 0.125,-0.208 0.125,-0.375c0,-0.167 -0.041,-0.333 -0.166,-0.5c-0.459,-0.625 -2.334,-4.667 -3.042,-7.542c-0.792,-2.875 -0.833,-5.208 -0.833,-8.375c-0,-3.208 0.416,-5.5 1.208,-8.208c0.417,-1.417 0.875,-2.375 1.292,-3.083c0.208,-0.334 0.875,-1.375 1.041,-1.584c0.209,-0.375 0.334,-0.708 0.334,-1c-0,-0.208 -0.084,-0.375 -0.167,-0.5c-0.042,-0.041 -0.125,-0.041 -0.167,-0.041c-0.25,-0 -0.875,0.166 -1.083,0.416c-0.208,0.417 -0.792,1.459 -1.25,2.459c-0.5,0.958 -1.542,3.291 -2.042,4.666c-0.458,1.25 -1.041,3.209 -1.041,7.25l-0,0.667c0.041,2.25 0.375,4.292 0.666,5.875c0.334,1.583 0.625,2.75 0.792,3.333c0.333,1.084 2.417,5.042 3,5.959c0.292,0.5 0.917,0.625 1.167,0.625Z" style="fill-rule:nonzero;"/>
    <path d="M795.508,227.833c-0.291,-0.125 -1.291,-0.458 -2.416,-0.458c-1.125,0 -2.667,1 -3.209,2.042c-0.125,0.25 -0.291,0.5 -0.5,0.625c-0.125,0.041 -0.208,0.041 -0.25,0.041c-0.208,0 -0.375,-0.125 -0.458,-0.25c-0.125,-0.25 -0.167,-0.583 -0.167,-0.916l0,-0.292c0,-0.708 -0.75,-1 -1.291,-1c-1.042,0 -1.167,0.333 -1.209,0.542c0,0.041 -0.041,0.083 -0.041,0.166c-0,0.125 0.041,0.334 0.083,0.542c0.042,0.292 0.083,0.625 0.125,0.917c0.083,1.375 0.083,4.458 0.083,6.291c0,1.792 -0.083,3.667 -0.375,6.084c-0.041,0.416 -0.041,0.75 -0.041,0.958c-0,0.25 0.041,0.375 0.208,0.458c0.083,0.042 0.25,0.042 0.625,0.042c0.333,-0.042 0.75,-0.083 1.25,-0.083c1.042,-0 1.292,-0.709 1.292,-1.5c-0,-0.584 -0.167,-1.25 -0.25,-1.75c-0.167,-0.834 -0.209,-2.375 -0.209,-3.917c0,-0.833 0,-1.625 0.042,-2.333c0.125,-2.25 1.625,-3.5 3.042,-3.834c0.541,-0.125 0.916,-0.166 1.291,-0.166c0.5,-0 0.834,0.083 1.375,0.291c0.084,0 0.209,0.125 0.292,0.125c0.125,0 0.167,-0.041 0.208,-0.166c0.084,-0.042 0.167,-0.209 0.209,-0.417c0.125,-0.208 0.208,-0.458 0.291,-0.75c0.125,-0.417 0.209,-0.708 0.209,-0.875c-0,-0.208 -0.084,-0.333 -0.209,-0.417Z" style="fill-rule:nonzero;"/>
    <path d="M814.675,235.458c0,-0.041 0.042,-0.083 0.042,-0.166c-0,-0.042 -0.042,-0.167 -0.042,-0.292l-0.167,-0.875c-0.291,-1.333 -1.75,-3.542 -2.833,-4.833c-1.083,-1.167 -3.167,-1.875 -4.917,-1.959l-0.458,0c-1.792,0 -3.208,0.875 -4.667,1.834l-0.333,0.208c-1.583,0.958 -2.708,4.125 -2.792,6.625l0,0.125c0,2.375 1.792,5 3.209,6.583c1.375,1.459 4.208,1.5 5.625,1.5c1.333,0 2.416,-0.333 3.125,-0.708c0.291,-0.167 0.708,-0.5 1.208,-0.917c0.458,-0.416 0.958,-0.833 1.5,-1.25c0.417,-0.291 0.625,-0.625 0.625,-0.958c0,-0.375 -0.208,-0.75 -0.833,-1.25c-0.209,-0.167 -0.417,-0.25 -0.542,-0.25c-0.208,0 -0.333,0.125 -0.5,0.25c-0.292,0.333 -0.5,0.75 -0.667,1.167c-0.333,0.75 -2,1.583 -4.083,1.583l-0.333,0c-1.375,-0.042 -2.542,-0.458 -3.584,-1.292l-0.625,-0.5c-0.666,-0.583 -1.333,-2.25 -1.333,-3.291l0,-0.292c0.125,-0.5 1.125,-0.792 2.375,-0.833c1.042,-0 2.208,0.041 2.833,0.041c0.875,0 3.292,0.042 5.167,0.042c0.958,0 1.792,0 2.25,-0.042c0.708,0 0.75,-0.166 0.75,-0.25Zm-2.958,-2.75c0.125,0.209 0.166,0.375 0.166,0.542c0,0.458 -0.375,0.75 -1.125,0.75c-1.625,0 -3.416,0.042 -4.125,0.042c-0.75,-0 -2.958,-0.042 -3.416,-0.167c-0.459,-0.042 -1.459,-0.583 -1.459,-1.333c0,-0.25 0.084,-0.5 0.292,-0.75c0.667,-0.917 2.5,-2.167 4.667,-2.167l0.166,0c1.959,0.083 2.625,0.667 3.584,1.583c0.416,0.417 1,0.959 1.25,1.5Z" style="fill-rule:nonzero;"/>
    <path d="M828.342,217.708l-0,-0.25c-0,-0.666 -0.334,-1 -0.792,-1.166c-0.583,-0.209 -1.292,-0.25 -1.917,-0.334c-1.208,0 -2.375,1.125 -3.125,1.875c-1.083,1.042 -1.541,3.125 -1.541,4.125l0.25,4.625c-0,1 -0.5,1.25 -1.125,1.25c-0.375,0 -0.834,-0.083 -1.209,-0.25l-0.166,0c-0.375,0 -0.709,0.417 -0.834,1.042c-0.041,0.208 -0.083,0.292 -0.083,0.417c-0,0.416 0.208,0.666 0.542,0.833c0.208,0.125 0.5,0.167 0.75,0.167c0.208,-0 0.458,-0 0.666,-0.042c0.542,0 1.167,0 1.417,0.583c0.125,0.209 0.125,0.417 0.125,0.667l-0,3.5c-0,1.208 -0.25,5.25 -0.5,7.125c-0.042,0.167 -0.042,0.292 -0.042,0.458c0,1.209 0.792,1.5 2.084,1.584l0.166,-0c0.584,-0 0.75,-0.125 0.834,-0.292c0.083,-0.208 0.083,-0.5 0.083,-0.75l-0,-0.375c-0,-0.958 -0.292,-3.833 -0.292,-5.708l0,-5.375c0,-0.834 0.25,-1.334 0.917,-1.459c0.25,-0.083 0.542,-0.083 0.917,-0.083c0.291,0.042 0.666,0.042 1.083,0.042c0.833,-0 1.125,-0.125 1.25,-0.25c-0,-0.084 0.083,-0.209 0.125,-0.417l0.083,-0.708c0,-0.417 -0.25,-0.5 -0.5,-0.542c-0.25,-0.042 -0.541,-0.042 -0.791,-0.042l-0.959,0c-1.541,0 -1.958,-1.416 -2.083,-2.541c-0.042,-0.542 -0.083,-1.375 -0.083,-2.084c-0,-0.75 0.041,-1.5 0.208,-2c0.333,-0.833 1.5,-2.125 2.958,-2.125l0.167,0c0.292,0 0.542,0.042 0.75,0.042c0.167,0 0.25,-0.042 0.292,-0.083c0.25,-0.167 0.25,-0.542 0.333,-1.292c-0,-0.042 0.042,-0.083 0.042,-0.167Z" style="fill-rule:nonzero;"/>
    <path d="M848.425,236.167l0,-0.209c0,-2.833 -1.333,-4.958 -2.583,-6.291c-1.25,-1.292 -3.292,-2.334 -5.625,-2.417l-0.209,0c-3.791,0 -5.458,1.583 -6.666,2.833c-1.25,1.25 -2.209,3.125 -2.209,5.792c0,2.667 1.584,5.25 2.875,6.417c1.25,1.125 3.125,1.958 5.542,1.958l0.25,0c2.583,-0.083 4.583,-0.417 6.375,-2.333c1.792,-2 2.25,-2.709 2.25,-5.75Zm-2.375,-0.459c0,1.584 -0.583,3.75 -1.625,4.542c-0.25,0.125 -0.5,0.333 -0.833,0.542c-1.042,0.708 -2.209,1.25 -3.459,1.25c-0.166,-0 -0.333,-0 -0.541,-0.042c-2,-0.25 -2.959,-0.667 -4.167,-2.083c-1.208,-1.334 -1.583,-2.417 -1.583,-4.125c-0,-1.667 0.291,-3.25 1.958,-4.5c1.625,-1.209 2.917,-1.375 4.25,-1.375c2.125,-0 3.667,0.583 4.542,2.125c0.416,0.708 0.791,1.166 1.041,1.708c0.209,0.542 0.417,1.125 0.417,1.958Z" style="fill-rule:nonzero;"/>
    <path d="M865.175,242.75c-0,-0.167 -0,-0.333 -0.042,-0.583l-0.083,-0.834c-0.042,-0.625 -0.167,-0.875 -0.375,-0.875c-0.042,0 -0.167,0.042 -0.292,0.125c-0.75,0.542 -2,1.167 -3.708,1.167l-0.542,0c-1.916,-0.208 -2.5,-0.458 -3.916,-1.458c-1.542,-1.084 -1.834,-3.042 -1.834,-4.584c0,-1.666 0.5,-3.25 1.959,-4.416c1.5,-1.209 2.25,-1.334 3.916,-1.417l0.292,0c1.583,0 2.625,0.458 3.708,1.208c0.209,0.125 0.375,0.25 0.417,0.25c0.042,0 0.083,-0.041 0.125,-0.083c0.083,-0.125 0.083,-0.292 0.167,-0.542c0.041,-0.291 0.125,-0.625 0.125,-1.041c0.041,-0.167 0.041,-0.292 0.041,-0.417c0,-0.417 -0.125,-0.625 -0.25,-0.75c-0.166,-0.125 -0.291,-0.25 -0.458,-0.333c-0.208,-0.125 -0.417,-0.209 -0.583,-0.375c-0.667,-0.417 -1.75,-0.459 -4,-0.584l-0.167,0c-2.25,0 -4.292,1.292 -5.792,2.625c-1.333,1.25 -2.083,4.375 -2.083,6.125l-0,0.25c0.083,1.75 0.625,3.917 2.458,5.75c1.792,1.792 3.75,2.292 5.542,2.417l0.333,0c0.75,0 1.375,-0.125 2,-0.25c0.709,-0.167 1.375,-0.458 2.125,-0.708c0.792,-0.292 0.875,-0.5 0.917,-0.667Z" style="fill-rule:nonzero;"/>
    <path d="M883.633,229.542c0.042,-0.292 0.042,-0.5 0.042,-0.709c-0,-0.833 -0.292,-1.125 -1.5,-1.208l-0.208,0c-0.917,0 -1.125,0.375 -1.125,1c-0,0.208 -0,0.417 0.041,0.667c0.084,1 0.25,4.25 0.334,6.375c-0,0.333 0.041,0.666 0.041,1c0,1.625 -0.25,2.916 -1,3.833c-0.875,1.208 -1.75,1.25 -3.041,1.292l-0.125,-0c-0.292,0.041 -0.584,0.041 -0.834,0.041c-1,0 -1.791,-0.208 -2.583,-1.333c-0.5,-0.625 -0.75,-1.458 -0.875,-2.375c-0.083,-0.875 -0.125,-1.958 -0.167,-3.167c-0.041,-1 -0.041,-1.75 -0.041,-2.458c-0,-0.958 0.041,-1.792 0.125,-3.042l-0,-0.75c-0,-0.458 -0.042,-0.625 -0.084,-0.708c-0.041,0 -0.125,-0.042 -0.291,-0.083c-0.167,-0 -0.417,-0 -0.667,-0.042l-0.292,0c-0.958,0 -1.166,0.333 -1.166,0.708c-0,0.875 0.208,1.75 0.208,2.959c-0,1.125 0.042,5.125 0.042,6.875c-0,1.666 0.916,3.333 2.25,4.333c1.25,0.958 3.458,1.208 4.791,1.208c1.292,0 3.25,-0.833 5,-2.583c0.792,-0.792 1.042,-2.042 1.042,-3.333c-0,-1.292 -0.208,-2.542 -0.208,-3.25c-0,-1.375 0.125,-3.875 0.291,-5.25Z" style="fill-rule:nonzero;"/>
    <path d="M899.133,238.917c0,-1.334 -0.916,-2.334 -1.75,-3.167c-0.666,-0.667 -3.208,-2.042 -4.083,-2.458c-0.958,-0.417 -1.875,-1.125 -1.875,-2.167c-0,-1.042 0.833,-1.458 1.875,-1.458l0.375,-0c1.333,0.041 2.042,0.5 3.042,1.333c0.333,0.292 0.5,0.333 0.583,0.333c0.125,0 0.208,-0.083 0.292,-0.166l0.291,-0.334c0.084,-0.125 0.209,-0.25 0.25,-0.375c0.125,-0.166 0.167,-0.333 0.167,-0.458c-0,-0.167 -0.042,-0.333 -0.208,-0.542c-0.584,-0.625 -2.292,-1.791 -4.792,-1.875l-0.292,0c-0.708,0 -1.083,0.084 -1.375,0.209c-0.333,0.166 -0.583,0.416 -0.833,0.666c-0.583,0.459 -1.292,1.292 -1.375,2.25c-0,0.167 -0.042,0.334 -0.042,0.459c0,0.958 0.209,1.75 0.792,2.5c0.667,0.916 2.167,1.833 3.75,2.5c1.667,0.666 3.25,1.958 3.25,3.333c-0,1.417 -1.167,2.25 -3,2.375c-0.125,0 -0.25,0.042 -0.333,0.042c-1.792,-0 -3.042,-1.5 -3.334,-2.084c-0.083,-0.291 -0.416,-0.458 -0.666,-0.458c-0.167,0 -0.417,0.083 -0.709,0.125c-0.625,0.167 -0.833,0.667 -0.833,1.167c-0,0.166 -0,0.375 0.125,0.541c0.292,0.542 1.375,1.375 2.375,2c0.917,0.5 2.542,0.834 3.667,0.834c1,-0 2.208,-0.75 3.291,-1.459c0.917,-0.625 1.334,-2.291 1.375,-3.666Z" style="fill-rule:nonzero;"/>
    <path d="M909.508,232.958c0,-2 -0.375,-4.541 -1.291,-7.583c-0.917,-3 -2.334,-5.917 -3,-6.875c-0.459,-0.625 -1,-1.167 -1.417,-1.167c-0.083,0 -0.208,0.042 -0.25,0.125c-0.167,0.167 -0.292,0.542 -0.292,0.917c0,0.458 0.209,1.083 0.709,1.542c0.625,0.541 1.125,1.541 1.541,2.583c0.459,1.083 0.834,2.208 1.167,3.167c0.667,1.916 0.917,4.916 1.042,7.416l-0,0.417c-0,2.583 -0.625,6.083 -1.542,8.5c-0.5,1.292 -1.125,2.458 -1.667,3.417c-0.583,0.916 -1.083,1.583 -1.291,1.916c-0.125,0.167 -0.167,0.375 -0.167,0.584c0,0.291 0.083,0.583 0.292,0.833c0.166,0.125 0.208,0.25 0.375,0.25c0.083,0 0.25,-0.167 0.5,-0.417c0.458,-0.541 3.375,-5.708 4.083,-7.916c0.708,-2.25 1.208,-5.709 1.208,-7.709Z" style="fill-rule:nonzero;"/>
    <circle cx="829.667" cy="297.833" r="26.667" style="fill:#fff;stroke:#737373;stroke-width:2.5px;stroke-linecap:round;"/>
    <circle cx="856.333" cy="297.833" r="26.667" style="fill:none;stroke:#737373;stroke-width:2.5px;stroke-linecap:round;"/>
  </g>
	</a>
	<a xlink:href="CHOICE-TO-PREFREEZE.svg">
  <g id="FREEZELINK">
    <path d="M1445,1509.47c0,-19.317 -15.683,-35 -35,-35l-70,-0c-19.317,-0 -35,15.683 -35,35l0,78c0,19.317 15.683,35 35,35l70,-0c19.317,-0 35,-15.683 35,-35l0,-78Z" style="fill:#fff;"/>
    <path id="fight3" serif:id="fight" d="M1325.28,1496.52l0,-0.3c0,-0.8 -0.4,-1.2 -0.95,-1.4c-0.7,-0.25 -1.55,-0.3 -2.3,-0.4c-1.45,-0 -2.85,1.35 -3.75,2.25c-1.3,1.25 -1.85,3.75 -1.85,4.95l0.3,5.55c0,1.2 -0.6,1.5 -1.35,1.5c-0.45,-0 -1,-0.1 -1.45,-0.3l-0.2,-0c-0.45,-0 -0.85,0.5 -1,1.25c-0.05,0.25 -0.1,0.35 -0.1,0.5c0,0.5 0.25,0.8 0.65,1c0.25,0.15 0.6,0.2 0.9,0.2c0.25,-0 0.55,-0 0.8,-0.05c0.65,-0 1.4,-0 1.7,0.7c0.15,0.25 0.15,0.5 0.15,0.8l0,4.2c0,1.45 -0.3,6.3 -0.6,8.55c-0.05,0.2 -0.05,0.35 -0.05,0.55c0,1.45 0.95,1.8 2.5,1.9l0.2,-0c0.7,-0 0.9,-0.15 1,-0.35c0.1,-0.25 0.1,-0.6 0.1,-0.9l0,-0.45c0,-1.15 -0.35,-4.6 -0.35,-6.85l0,-6.45c0,-1 0.3,-1.6 1.1,-1.75c0.3,-0.1 0.65,-0.1 1.1,-0.1c0.35,0.05 0.8,0.05 1.3,0.05c1,-0 1.35,-0.15 1.5,-0.3c0,-0.1 0.1,-0.25 0.15,-0.5l0.1,-0.85c0,-0.5 -0.3,-0.6 -0.6,-0.65c-0.3,-0.05 -0.65,-0.05 -0.95,-0.05l-1.15,-0c-1.85,-0 -2.35,-1.7 -2.5,-3.05c-0.05,-0.65 -0.1,-1.65 -0.1,-2.5c0,-0.9 0.05,-1.8 0.25,-2.4c0.4,-1 1.8,-2.55 3.55,-2.55l0.2,-0c0.35,-0 0.65,0.05 0.9,0.05c0.2,-0 0.3,-0.05 0.35,-0.1c0.3,-0.2 0.3,-0.65 0.4,-1.55c0,-0.05 0.05,-0.1 0.05,-0.2Z" style="fill-rule:nonzero;"/>
    <path d="M1341.88,1508.67c-0.35,-0.15 -1.55,-0.55 -2.9,-0.55c-1.35,-0 -3.2,1.2 -3.85,2.45c-0.15,0.3 -0.35,0.6 -0.6,0.75c-0.15,0.05 -0.25,0.05 -0.3,0.05c-0.25,-0 -0.45,-0.15 -0.55,-0.3c-0.15,-0.3 -0.2,-0.7 -0.2,-1.1l0,-0.35c0,-0.85 -0.9,-1.2 -1.55,-1.2c-1.25,-0 -1.4,0.4 -1.45,0.65c0,0.05 -0.05,0.1 -0.05,0.2c0,0.15 0.05,0.4 0.1,0.65c0.05,0.35 0.1,0.75 0.15,1.1c0.1,1.65 0.1,5.35 0.1,7.55c0,2.15 -0.1,4.4 -0.45,7.3c-0.05,0.5 -0.05,0.9 -0.05,1.15c0,0.3 0.05,0.45 0.25,0.55c0.1,0.05 0.3,0.05 0.75,0.05c0.4,-0.05 0.9,-0.1 1.5,-0.1c1.25,-0 1.55,-0.85 1.55,-1.8c0,-0.7 -0.2,-1.5 -0.3,-2.1c-0.2,-1 -0.25,-2.85 -0.25,-4.7c0,-1 0,-1.95 0.05,-2.8c0.15,-2.7 1.95,-4.2 3.65,-4.6c0.65,-0.15 1.1,-0.2 1.55,-0.2c0.6,-0 1,0.1 1.65,0.35c0.1,-0 0.25,0.15 0.35,0.15c0.15,-0 0.2,-0.05 0.25,-0.2c0.1,-0.05 0.2,-0.25 0.25,-0.5c0.15,-0.25 0.25,-0.55 0.35,-0.9c0.15,-0.5 0.25,-0.85 0.25,-1.05c0,-0.25 -0.1,-0.4 -0.25,-0.5Z" style="fill-rule:nonzero;"/>
    <path d="M1364.88,1517.82c0,-0.05 0.05,-0.1 0.05,-0.2c0,-0.05 -0.05,-0.2 -0.05,-0.35l-0.2,-1.05c-0.35,-1.6 -2.1,-4.25 -3.4,-5.8c-1.3,-1.4 -3.8,-2.25 -5.9,-2.35l-0.55,-0c-2.15,-0 -3.85,1.05 -5.6,2.2l-0.4,0.25c-1.9,1.15 -3.25,4.95 -3.35,7.95l0,0.15c0,2.85 2.15,6 3.85,7.9c1.65,1.75 5.05,1.8 6.75,1.8c1.6,-0 2.9,-0.4 3.75,-0.85c0.35,-0.2 0.85,-0.6 1.45,-1.1c0.55,-0.5 1.15,-1 1.8,-1.5c0.5,-0.35 0.75,-0.75 0.75,-1.15c0,-0.45 -0.25,-0.9 -1,-1.5c-0.25,-0.2 -0.5,-0.3 -0.65,-0.3c-0.25,-0 -0.4,0.15 -0.6,0.3c-0.35,0.4 -0.6,0.9 -0.8,1.4c-0.4,0.9 -2.4,1.9 -4.9,1.9l-0.4,-0c-1.65,-0.05 -3.05,-0.55 -4.3,-1.55l-0.75,-0.6c-0.8,-0.7 -1.6,-2.7 -1.6,-3.95l0,-0.35c0.15,-0.6 1.35,-0.95 2.85,-1c1.25,-0 2.65,0.05 3.4,0.05c1.05,-0 3.95,0.05 6.2,0.05c1.15,-0 2.15,-0 2.7,-0.05c0.85,-0 0.9,-0.2 0.9,-0.3Zm-3.55,-3.3c0.15,0.25 0.2,0.45 0.2,0.65c0,0.55 -0.45,0.9 -1.35,0.9c-1.95,-0 -4.1,0.05 -4.95,0.05c-0.9,-0 -3.55,-0.05 -4.1,-0.2c-0.55,-0.05 -1.75,-0.7 -1.75,-1.6c0,-0.3 0.1,-0.6 0.35,-0.9c0.8,-1.1 3,-2.6 5.6,-2.6l0.2,-0c2.35,0.1 3.15,0.8 4.3,1.9c0.5,0.5 1.2,1.15 1.5,1.8Z" style="fill-rule:nonzero;"/>
    <path d="M1388.68,1517.82c0,-0.05 0.05,-0.1 0.05,-0.2c0,-0.05 -0.05,-0.2 -0.05,-0.35l-0.2,-1.05c-0.35,-1.6 -2.1,-4.25 -3.4,-5.8c-1.3,-1.4 -3.8,-2.25 -5.9,-2.35l-0.55,-0c-2.15,-0 -3.85,1.05 -5.6,2.2l-0.4,0.25c-1.9,1.15 -3.25,4.95 -3.35,7.95l0,0.15c0,2.85 2.15,6 3.85,7.9c1.65,1.75 5.05,1.8 6.75,1.8c1.6,-0 2.9,-0.4 3.75,-0.85c0.35,-0.2 0.85,-0.6 1.45,-1.1c0.55,-0.5 1.15,-1 1.8,-1.5c0.5,-0.35 0.75,-0.75 0.75,-1.15c0,-0.45 -0.25,-0.9 -1,-1.5c-0.25,-0.2 -0.5,-0.3 -0.65,-0.3c-0.25,-0 -0.4,0.15 -0.6,0.3c-0.35,0.4 -0.6,0.9 -0.8,1.4c-0.4,0.9 -2.4,1.9 -4.9,1.9l-0.4,-0c-1.65,-0.05 -3.05,-0.55 -4.3,-1.55l-0.75,-0.6c-0.8,-0.7 -1.6,-2.7 -1.6,-3.95l0,-0.35c0.15,-0.6 1.35,-0.95 2.85,-1c1.25,-0 2.65,0.05 3.4,0.05c1.05,-0 3.95,0.05 6.2,0.05c1.15,-0 2.15,-0 2.7,-0.05c0.85,-0 0.9,-0.2 0.9,-0.3Zm-3.55,-3.3c0.15,0.25 0.2,0.45 0.2,0.65c0,0.55 -0.45,0.9 -1.35,0.9c-1.95,-0 -4.1,0.05 -4.95,0.05c-0.9,-0 -3.55,-0.05 -4.1,-0.2c-0.55,-0.05 -1.75,-0.7 -1.75,-1.6c0,-0.3 0.1,-0.6 0.35,-0.9c0.8,-1.1 3,-2.6 5.6,-2.6l0.2,-0c2.35,0.1 3.15,0.8 4.3,1.9c0.5,0.5 1.2,1.15 1.5,1.8Z" style="fill-rule:nonzero;"/>
    <path d="M1410.23,1525.92c0,-0.3 0.05,-0.5 0.05,-0.65c0,-0.2 -0.05,-0.35 -0.1,-0.4c0,-0 -0.1,-0.05 -0.3,-0.1c-0.2,-0 -0.45,-0.05 -0.8,-0.05l-0.6,-0c-1.6,-0 -4.5,0.2 -6.2,0.3c-0.25,-0 -0.5,0.05 -0.75,0.05c-1.7,-0 -2.5,-0.45 -2.7,-1.15c-0.05,-0.05 -0.05,-0.15 -0.05,-0.25c0,-0.5 0.3,-0.9 0.6,-1.3l0.65,-0.7l0.8,-0.7c0.5,-0.45 1.15,-1.35 1.85,-2.35c0.75,-1 1.5,-2.05 2.1,-2.8l2.8,-3.2c1,-1.15 2,-2.25 2.4,-2.6c0.25,-0.2 0.45,-0.55 0.45,-0.75c0,-0.2 -0.15,-0.4 -0.5,-0.4c-0.7,-0 -1.25,0.05 -1.8,0.05c-1.7,-0 -3.9,-0.1 -5.3,-0.25c-1.95,-0.15 -7.7,-0.15 -8.95,-0.15c-0.25,-0 -0.7,0.55 -0.7,1.3l0,0.2c0.15,0.85 0.5,1.4 0.85,1.45c0.3,0.05 0.6,0.1 0.9,0.1c0.45,-0 0.95,-0.05 1.6,-0.2c1.3,-0.2 4.05,-0.2 6.6,-0.25l0.25,-0c1.1,-0 1.5,0.3 1.5,0.75c0,0.2 -0.1,0.4 -0.2,0.6c-0.2,0.3 -0.5,0.55 -0.75,0.8c-0.25,0.25 -0.5,0.5 -0.7,0.65c-0.75,0.8 -1.7,1.85 -3.05,3.7c-0.7,0.95 -1.5,2.1 -2.3,3.1c-0.8,1 -1.65,1.9 -2.25,2.2c-0.45,0.2 -0.9,0.7 -1.45,1.35l-0.7,1.05c-0.25,0.3 -0.55,0.65 -0.8,0.9c-0.15,0.15 -0.2,0.4 -0.2,0.55c0,0.4 0.35,0.75 1.15,0.75l0.2,-0c1.35,-0.15 4.55,-0.15 7.3,-0.15c2.7,-0 6.1,0.15 7.85,0.15l0.5,-0c0.35,-0 0.55,-0 0.65,-0.15c0.05,-0.05 0.05,-0.2 0.05,-0.45c0.05,-0.25 0.05,-0.55 0.05,-1Z" style="fill-rule:nonzero;"/>
    <path d="M1434.48,1517.82c0,-0.05 0.05,-0.1 0.05,-0.2c0,-0.05 -0.05,-0.2 -0.05,-0.35l-0.2,-1.05c-0.35,-1.6 -2.1,-4.25 -3.4,-5.8c-1.3,-1.4 -3.8,-2.25 -5.9,-2.35l-0.55,-0c-2.15,-0 -3.85,1.05 -5.6,2.2l-0.4,0.25c-1.9,1.15 -3.25,4.95 -3.35,7.95l0,0.15c0,2.85 2.15,6 3.85,7.9c1.65,1.75 5.05,1.8 6.75,1.8c1.6,-0 2.9,-0.4 3.75,-0.85c0.35,-0.2 0.85,-0.6 1.45,-1.1c0.55,-0.5 1.15,-1 1.8,-1.5c0.5,-0.35 0.75,-0.75 0.75,-1.15c0,-0.45 -0.25,-0.9 -1,-1.5c-0.25,-0.2 -0.5,-0.3 -0.65,-0.3c-0.25,-0 -0.4,0.15 -0.6,0.3c-0.35,0.4 -0.6,0.9 -0.8,1.4c-0.4,0.9 -2.4,1.9 -4.9,1.9l-0.4,-0c-1.65,-0.05 -3.05,-0.55 -4.3,-1.55l-0.75,-0.6c-0.8,-0.7 -1.6,-2.7 -1.6,-3.95l0,-0.35c0.15,-0.6 1.35,-0.95 2.85,-1c1.25,-0 2.65,0.05 3.4,0.05c1.05,-0 3.95,0.05 6.2,0.05c1.15,-0 2.15,-0 2.7,-0.05c0.85,-0 0.9,-0.2 0.9,-0.3Zm-3.55,-3.3c0.15,0.25 0.2,0.45 0.2,0.65c0,0.55 -0.45,0.9 -1.35,0.9c-1.95,-0 -4.1,0.05 -4.95,0.05c-0.9,-0 -3.55,-0.05 -4.1,-0.2c-0.55,-0.05 -1.75,-0.7 -1.75,-1.6c0,-0.3 0.1,-0.6 0.35,-0.9c0.8,-1.1 3,-2.6 5.6,-2.6l0.2,-0c2.35,0.1 3.15,0.8 4.3,1.9c0.5,0.5 1.2,1.15 1.5,1.8Z" style="fill-rule:nonzero;"/>
    <circle cx="1361.67" cy="1572.83" r="26.667" style="fill:#fff;stroke:#737373;stroke-width:2.5px;stroke-linecap:round;"/>
    <circle cx="1388.33" cy="1572.83" r="26.667" style="fill:none;stroke:#737373;stroke-width:2.5px;stroke-linecap:round;"/>
  </g>
	</a>
  <g id="Header">
    <path id="Lyric-Text" serif:id="Lyric Text" d="M560.425,1923.62c0.15,-0.375 0.3,-0.675 0.3,-0.9c-0,-0.45 -0.375,-0.675 -0.9,-0.75c-0.375,-0.075 -0.825,-0.075 -1.275,-0.075c-0.75,-0 -1.575,0.075 -2.25,0.15c-0.675,0.075 -1.05,0.525 -1.425,1.2c-0.375,0.75 -0.525,1.575 -0.825,2.25c-0.3,0.6 -0.525,1.65 -0.825,2.925c-0.3,1.275 -0.6,2.7 -0.975,3.9c-0.15,0.6 -0.45,1.2 -0.75,1.725c-0.75,1.65 -1.725,3.15 -1.8,5.025c-0.15,1.2 -0.675,2.025 -1.5,2.025c-0.15,-0 -0.45,-0.075 -0.675,-0.225c-0.825,-0.375 -1.575,-1.275 -1.875,-2.325c-0.375,-1.575 -1.8,-4.875 -2.85,-7.2c-1.125,-2.325 -2.25,-5.175 -3,-7.2l-0.525,-1.425c-0.15,-0.45 -0.3,-0.825 -0.525,-1.125c-0.375,-0.675 -0.75,-0.975 -1.2,-1.05c-1.2,0.15 -1.725,2.55 -1.95,3.375c-0.45,1.5 -1.2,4.05 -2.1,6.225c-0.45,1.125 -1.05,2.175 -1.575,3.225c-0.525,1.05 -0.975,2.175 -1.125,3.375c-0.45,2.55 -1.2,4.275 -2.4,4.5c-0.15,-0 -0.225,0.075 -0.225,0.075c-0.9,-0 -1.65,-0.9 -2.025,-2.85c-0.15,-0.675 -0.45,-1.275 -0.9,-2.1c-0.45,-0.825 -0.9,-1.65 -1.35,-2.7c-0.525,-1.05 -0.825,-2.4 -1.125,-3.9l-0.975,-4.725c-0.675,-2.925 -1.5,-3.45 -4.35,-3.75l-0.525,-0c-1.275,-0 -1.575,0.675 -1.575,1.2c-0,0.15 0.075,0.225 0.075,0.3c0.075,0.9 1.5,3.9 2.4,5.55c0.9,1.575 2.625,5.85 4.5,9.75c1.95,4.05 3.3,7.725 4.2,10.2c0.75,2.175 1.125,4.05 2.025,4.05c0.75,-0 1.2,-1.35 1.8,-3l0.3,-1.05c0.75,-2.175 1.65,-4.875 2.4,-6.75c0.45,-1.05 1.125,-2.25 1.65,-3.45c0.525,-1.2 0.975,-2.55 1.35,-3.75c0.225,-1.125 0.75,-1.8 1.5,-1.8c0.3,-0 0.6,0.075 0.9,0.3c0.825,0.45 1.575,1.5 2.1,2.475c1.05,2.025 3,6.975 3.75,9.375c0.675,2.325 1.95,5.55 3.45,7.275c0.225,0.15 0.3,0.3 0.45,0.3c0.15,-0 0.225,-0.15 0.45,-0.45c0.45,-0.6 0.6,-1.35 0.825,-2.025c0.3,-0.825 1.05,-3.675 1.575,-5.325c0.675,-1.575 2.4,-4.8 3.375,-7.95c1.125,-3.3 4.125,-9.675 6,-12.9Z" style="fill-rule:nonzero;"/>
    <path d="M594.7,1948.22l-0,-0.45c-0,-0.6 -0.075,-1.125 -0.15,-1.725c-0.15,-1.275 -0.225,-4.875 -0.225,-8.025c-0,-2.025 -0,-3.975 0.075,-5.1l-0,-0.525c-0,-2.775 -0.825,-6.225 -2.1,-8.175c-1.275,-1.95 -5.025,-3.225 -6.975,-3.375c-0.375,-0 -0.825,-0.075 -1.275,-0.075c-1.725,-0 -3.675,0.375 -5.775,1.95c-1.05,0.825 -1.8,1.125 -2.325,1.125c-0.45,-0 -0.675,-0.15 -0.9,-0.375c-0.45,-0.45 -0.45,-1.275 -0.525,-1.875c-0.225,-0.675 -0.3,-1.425 -0.3,-2.325c-0,-0.975 0.075,-2.025 0.225,-3.375c0.3,-2.625 0.6,-7.05 0.75,-11.4l-0,-0.45c-0,-1.875 -0.375,-2.4 -0.675,-2.7c-0.225,-0.225 -0.45,-0.3 -0.9,-0.375l-1.8,-0c-1.725,-0 -2.25,0.75 -2.25,2.1c-0,1.95 -0,5.55 0.225,10.05c0.3,4.575 0.525,15.15 0.525,18.075c-0,2.925 -0.225,12.825 -0.45,15.9c-0.075,0.6 -0.15,1.125 -0.15,1.5c-0,1.275 0.525,1.575 2.625,1.8l0.45,-0c1.725,-0 2.025,-0.825 2.025,-1.8c-0,-0.3 -0.075,-0.6 -0.075,-0.9c-0.075,-0.9 -0.15,-3.75 -0.15,-6.825c-0,-3.075 0.075,-6.375 0.15,-8.025c0.225,-3.75 2.1,-5.325 3.45,-6.375c1.5,-1.125 4.275,-1.8 5.55,-1.8c0.225,-0 0.6,-0 0.975,0.075c1.5,0.075 2.625,0.675 3.75,1.95c1.5,1.8 1.575,4.275 1.575,6.6l-0,0.975c-0,2.25 -0.525,9.75 -0.825,12.375c-0.075,0.45 -0.075,0.9 -0.075,1.275c-0,1.5 0.525,2.25 3.075,2.475l0.45,-0c1.275,-0 1.725,-0.525 1.875,-1.125c0.075,-0.3 0.15,-0.675 0.15,-1.05Z" style="fill-rule:nonzero;"/>
    <path d="M623.875,1950.02c0.6,-0.375 1.125,-0.825 1.5,-1.2c0.375,-0.45 0.75,-0.825 1.125,-1.05c0.45,-0.45 0.975,-0.675 1.5,-0.675c0.75,-0 1.425,0.6 1.425,1.5c-0,0.225 -0,0.45 -0.075,0.675c-0,0.075 -0.075,0.15 -0.075,0.225c-0,0.675 0.75,0.75 2.85,0.9l0.375,-0c1.125,-0 1.35,-0.3 1.5,-0.6l-0,-14.775c-0,-2.475 -0.075,-5.1 -0.075,-7.5c-0,-1.2 -0,-2.325 0.075,-3.375l-0,-0.375c-0,-1.95 -0.975,-2.025 -2.25,-2.025l-0.75,-0c-0.9,-0 -1.35,0.075 -1.35,0.6c-0,0.375 0.075,0.675 0.075,0.9c-0,1.2 -0.45,2.25 -1.35,2.55c-0.15,0.075 -0.225,0.075 -0.375,0.075c-0.525,-0 -1.2,-0.375 -1.875,-0.975c-0.675,-0.6 -1.2,-1.275 -1.8,-1.875c-0.825,-1.05 -3.9,-1.95 -6.75,-1.95c-4.2,-0 -9,2.7 -11.325,5.925c-1.65,2.4 -2.25,6.15 -2.55,9.225l-0,0.6c-0,2.925 1.725,7.65 3.6,9.975c1.95,2.475 5.25,4.725 10.8,4.725c2.7,-0 4.5,-0.675 5.775,-1.5Zm5.775,-13.8c-0.225,3.15 -1.275,6.9 -3.9,8.85c-2.025,1.575 -3.6,1.95 -5.925,1.95c-0.45,-0 -0.9,-0.075 -1.5,-0.075c-3.375,-0.225 -6.225,-1.725 -7.425,-3.675c-0.975,-1.8 -1.65,-4.125 -1.65,-6.75l-0,-0.675c0.15,-2.7 1.275,-7.275 2.7,-8.325c1.05,-0.825 4.275,-2.175 6.975,-2.175c0.45,-0 0.9,-0 1.35,0.075l1.725,0.375c0.3,-0 0.3,0.075 0.375,0.075c0.45,0.15 1.125,0.225 1.575,0.45c1.35,0.45 2.625,1.275 3.6,2.925l1.125,1.95c0.075,0.525 0.525,1.05 0.75,1.5c0.225,0.6 0.375,1.275 0.375,2.025c-0,0.45 -0.075,0.975 -0.15,1.5Z" style="fill-rule:nonzero;"/>
    <path d="M658.75,1923.47c-0,-0.6 -0.3,-0.825 -0.9,-1.05c-0.375,-0.075 -0.825,-0.075 -1.275,-0.075c-0.525,-0 -0.975,-0.075 -1.5,-0.075l-1.275,-0.15c-0.375,-0 -0.675,-0.075 -0.975,-0.15c-0.675,-0.225 -1.125,-0.75 -1.125,-1.5c-0,-1.05 -0,-2.85 0.15,-5.775l-0,-0.3c-0,-1.125 -0.225,-1.5 -0.45,-1.65c-0.375,-0.3 -1.125,-0.3 -1.575,-0.3l-0.225,-0c-1.125,-0 -1.8,0.9 -1.875,1.35c-0,0.075 -0.075,0.225 -0.075,0.3c-0,0.375 0.075,0.975 0.15,1.725c0.15,0.975 0.3,2.25 0.3,3.525l-0,0.375c-0,1.35 -0.6,2.1 -1.575,2.325c-0.3,0.075 -0.6,0.075 -0.9,0.075c-0.525,-0 -1.2,-0.075 -1.725,-0.075c-1.05,-0 -1.65,0.675 -1.875,2.925c-0,0.075 -0.075,0.15 -0.075,0.225c-0,0.45 0.3,0.6 0.9,0.75c0.375,0.075 0.75,0.075 1.125,0.075c0.375,-0 0.75,-0.075 1.05,-0.075c1.2,-0 2.775,0.9 2.775,2.55c0,1.2 0.225,3.825 0.225,7.2c0,3.375 -0.45,9.825 -0.45,12.75c0,1.425 0.225,1.8 0.45,1.95l0.6,0.15l1.35,-0c1.875,-0 2.475,-0.225 2.475,-1.2l-0,-0.525c-0.225,-2.1 -0.6,-7.5 -0.675,-10.65c-0.075,-1.05 -0.15,-2.325 -0.15,-3.6c-0,-2.475 0.15,-5.025 0.225,-6.675c0.075,-1.65 1.05,-2.325 2.25,-2.4l0.225,-0c0.9,-0 1.725,0.225 2.625,0.3l0.3,-0c0.975,-0 1.5,-0.525 1.5,-2.325Z" style="fill-rule:nonzero;"/>
    <path d="M692.275,1911.62c-0.075,-2.025 -1.875,-3.9 -3.75,-4.125l-0.525,-0c-1.95,-0 -3.3,1.2 -3.45,2.925c0.075,2.325 2.1,4.2 4.275,4.2c2.25,-0 3.15,-1.275 3.45,-3Zm-0.9,36.075c-0.225,-1.725 -0.9,-8.25 -0.9,-11.475c-0,-1.5 -0.075,-3 -0.075,-4.575c-0,-2.025 0.075,-4.125 0.3,-6.675c-0,-0.45 0.075,-0.825 0.075,-1.2c-0,-2.4 -0.75,-2.55 -1.95,-2.55c-1.95,-0 -2.4,0.45 -2.4,1.8c-0,0.225 0.075,0.45 0.075,0.825c0.15,2.25 0.3,8.55 0.3,11.775c-0,3.225 -0.6,8.925 -0.6,11.7c-0,2.625 0.15,3.075 2.4,3.075c2.1,-0 2.85,-0.975 2.85,-2.175c-0,-0.15 -0.075,-0.375 -0.075,-0.525Z" style="fill-rule:nonzero;"/>
    <path d="M720.4,1941.62c-0,-2.4 -1.65,-4.2 -3.15,-5.7c-1.2,-1.2 -5.775,-3.675 -7.35,-4.425c-1.725,-0.75 -3.375,-2.025 -3.375,-3.9c-0,-1.875 1.5,-2.625 3.375,-2.625l0.675,-0c2.4,0.075 3.675,0.9 5.475,2.4c0.6,0.525 0.9,0.6 1.05,0.6c0.225,-0 0.375,-0.15 0.525,-0.3l0.525,-0.6c0.15,-0.225 0.375,-0.45 0.45,-0.675c0.225,-0.3 0.3,-0.6 0.3,-0.825c-0,-0.3 -0.075,-0.6 -0.375,-0.975c-1.05,-1.125 -4.125,-3.225 -8.625,-3.375l-0.525,-0c-1.275,-0 -1.95,0.15 -2.475,0.375c-0.6,0.3 -1.05,0.75 -1.5,1.2c-1.05,0.825 -2.325,2.325 -2.475,4.05c-0,0.3 -0.075,0.6 -0.075,0.825c-0,1.725 0.375,3.15 1.425,4.5c1.2,1.65 3.9,3.3 6.75,4.5c3,1.2 5.85,3.525 5.85,6c-0,2.55 -2.1,4.05 -5.4,4.275c-0.225,-0 -0.45,0.075 -0.6,0.075c-3.225,-0 -5.475,-2.7 -6,-3.75c-0.15,-0.525 -0.75,-0.825 -1.2,-0.825c-0.3,-0 -0.75,0.15 -1.275,0.225c-1.125,0.3 -1.5,1.2 -1.5,2.1c-0,0.3 -0,0.675 0.225,0.975c0.525,0.975 2.475,2.475 4.275,3.6c1.65,0.9 4.575,1.5 6.6,1.5c1.8,-0 3.975,-1.35 5.925,-2.625c1.65,-1.125 2.4,-4.125 2.475,-6.6Z" style="fill-rule:nonzero;"/>
    <path d="M774.175,1923.47c0.225,-0.375 0.3,-0.6 0.3,-0.75c-0,-0.3 -0.225,-0.375 -0.45,-0.45c-0.3,-0.15 -0.75,-0.225 -1.2,-0.3l-1.125,-0.075c-0.225,-0 -0.6,-0.075 -0.9,-0.075c-0.675,-0 -1.35,0.15 -1.425,0.675c-0.15,1.35 -2.325,6.225 -3.15,8.025c-0.825,1.725 -2.625,6.225 -3.225,7.95c-0.6,1.95 -1.65,4.5 -3.3,4.95c-0.225,0.075 -0.45,0.15 -0.6,0.15c-0.75,-0 -1.2,-0.525 -1.5,-1.2c-0,-0.3 -0.15,-0.675 -0.225,-1.125c-0.075,-0.375 -0.15,-0.825 -0.225,-1.2c-0.225,-0.825 -0.675,-1.65 -1.2,-2.775c-0.6,-1.05 -1.2,-2.25 -1.725,-3.6c-1.05,-2.7 -2.775,-6.6 -3.75,-9.45c-0.975,-2.4 -1.725,-2.55 -4.2,-2.775l-0.525,-0c-1.125,-0 -1.575,0.45 -1.575,0.975c-0,1.05 1.05,2.4 1.575,2.925c0.675,0.75 1.5,2.4 2.4,4.05c0.825,1.65 1.8,3.45 2.7,4.875c0.375,0.75 0.825,1.575 1.2,2.475l1.05,2.7c0.75,1.8 1.425,3.525 2.475,4.725c1.35,1.65 1.875,3.225 1.875,4.5l-0,0.3c-0,0.825 -0.225,1.575 -0.45,2.1c-0.6,0.975 -1.425,2.4 -2.325,5.025c-0.45,1.35 -1.2,2.625 -1.875,3.75c-0.675,1.125 -1.35,2.175 -1.95,3.375c-0.225,0.375 -0.375,0.75 -0.375,0.9c-0,0.9 1.125,0.9 3,1.05c0.15,-0 0.375,0.075 0.525,0.075c0.9,-0 1.275,-0.3 1.5,-0.6c0.225,-0.3 0.375,-0.6 0.525,-1.05l0.525,-1.5c0.45,-1.125 0.825,-2.25 1.2,-3.3c0.45,-1.125 0.9,-2.25 1.5,-3.375c1.2,-2.25 3.225,-8.325 4.725,-11.175c1.425,-2.775 3.375,-7.575 4.5,-9.9c1.125,-2.325 4.275,-8.4 5.7,-10.875Z" style="fill-rule:nonzero;"/>
    <path d="M811.225,1936.67l-0,-0.375c-0,-5.1 -2.4,-8.925 -4.65,-11.325c-2.25,-2.325 -5.925,-4.2 -10.125,-4.35l-0.375,-0c-6.825,-0 -9.825,2.85 -12,5.1c-2.25,2.25 -3.975,5.625 -3.975,10.425c-0,4.8 2.85,9.45 5.175,11.55c2.25,2.025 5.625,3.525 9.975,3.525l0.45,-0c4.65,-0.15 8.25,-0.75 11.475,-4.2c3.225,-3.6 4.05,-4.875 4.05,-10.35Zm-4.275,-0.825c-0,2.85 -1.05,6.75 -2.925,8.175c-0.45,0.225 -0.9,0.6 -1.5,0.975c-1.875,1.275 -3.975,2.25 -6.225,2.25c-0.3,-0 -0.6,-0 -0.975,-0.075c-3.6,-0.45 -5.325,-1.2 -7.5,-3.75c-2.175,-2.4 -2.85,-4.35 -2.85,-7.425c-0,-3 0.525,-5.85 3.525,-8.1c2.925,-2.175 5.25,-2.475 7.65,-2.475c3.825,-0 6.6,1.05 8.175,3.825c0.75,1.275 1.425,2.1 1.875,3.075c0.375,0.975 0.75,2.025 0.75,3.525Z" style="fill-rule:nonzero;"/>
    <path d="M845.125,1924.74c0.075,-0.525 0.075,-0.9 0.075,-1.275c-0,-1.5 -0.525,-2.025 -2.7,-2.175l-0.375,-0c-1.65,-0 -2.025,0.675 -2.025,1.8c-0,0.375 -0,0.75 0.075,1.2c0.15,1.8 0.45,7.65 0.6,11.475c-0,0.6 0.075,1.2 0.075,1.8c-0,2.925 -0.45,5.25 -1.8,6.9c-1.575,2.175 -3.15,2.25 -5.475,2.325l-0.225,-0c-0.525,0.075 -1.05,0.075 -1.5,0.075c-1.8,-0 -3.225,-0.375 -4.65,-2.4c-0.9,-1.125 -1.35,-2.625 -1.575,-4.275c-0.15,-1.575 -0.225,-3.525 -0.3,-5.7c-0.075,-1.8 -0.075,-3.15 -0.075,-4.425c-0,-1.725 0.075,-3.225 0.225,-5.475l-0,-1.35c-0,-0.825 -0.075,-1.125 -0.15,-1.275c-0.075,-0 -0.225,-0.075 -0.525,-0.15c-0.3,-0 -0.75,-0 -1.2,-0.075l-0.525,-0c-1.725,-0 -2.1,0.6 -2.1,1.275c-0,1.575 0.375,3.15 0.375,5.325c-0,2.025 0.075,9.225 0.075,12.375c-0,3 1.65,6 4.05,7.8c2.25,1.725 6.225,2.175 8.625,2.175c2.325,-0 5.85,-1.5 9,-4.65c1.425,-1.425 1.875,-3.675 1.875,-6c-0,-2.325 -0.375,-4.575 -0.375,-5.85c-0,-2.475 0.225,-6.975 0.525,-9.45Z" style="fill-rule:nonzero;"/>
    <path d="M873.925,1921.67c-0.525,-0.225 -2.325,-0.825 -4.35,-0.825c-2.025,-0 -4.8,1.8 -5.775,3.675c-0.225,0.45 -0.525,0.9 -0.9,1.125c-0.225,0.075 -0.375,0.075 -0.45,0.075c-0.375,-0 -0.675,-0.225 -0.825,-0.45c-0.225,-0.45 -0.3,-1.05 -0.3,-1.65l-0,-0.525c-0,-1.275 -1.35,-1.8 -2.325,-1.8c-1.875,-0 -2.1,0.6 -2.175,0.975c-0,0.075 -0.075,0.15 -0.075,0.3c-0,0.225 0.075,0.6 0.15,0.975c0.075,0.525 0.15,1.125 0.225,1.65c0.15,2.475 0.15,8.025 0.15,11.325c-0,3.225 -0.15,6.6 -0.675,10.95c-0.075,0.75 -0.075,1.35 -0.075,1.725c-0,0.45 0.075,0.675 0.375,0.825c0.15,0.075 0.45,0.075 1.125,0.075c0.6,-0.075 1.35,-0.15 2.25,-0.15c1.875,-0 2.325,-1.275 2.325,-2.7c-0,-1.05 -0.3,-2.25 -0.45,-3.15c-0.3,-1.5 -0.375,-4.275 -0.375,-7.05c-0,-1.5 -0,-2.925 0.075,-4.2c0.225,-4.05 2.925,-6.3 5.475,-6.9c0.975,-0.225 1.65,-0.3 2.325,-0.3c0.9,-0 1.5,0.15 2.475,0.525c0.15,-0 0.375,0.225 0.525,0.225c0.225,-0 0.3,-0.075 0.375,-0.3c0.15,-0.075 0.3,-0.375 0.375,-0.75c0.225,-0.375 0.375,-0.825 0.525,-1.35c0.225,-0.75 0.375,-1.275 0.375,-1.575c-0,-0.375 -0.15,-0.6 -0.375,-0.75Z" style="fill-rule:nonzero;"/>
    <path d="M916.6,1941.62c-0,-2.4 -1.65,-4.2 -3.15,-5.7c-1.2,-1.2 -5.775,-3.675 -7.35,-4.425c-1.725,-0.75 -3.375,-2.025 -3.375,-3.9c-0,-1.875 1.5,-2.625 3.375,-2.625l0.675,-0c2.4,0.075 3.675,0.9 5.475,2.4c0.6,0.525 0.9,0.6 1.05,0.6c0.225,-0 0.375,-0.15 0.525,-0.3l0.525,-0.6c0.15,-0.225 0.375,-0.45 0.45,-0.675c0.225,-0.3 0.3,-0.6 0.3,-0.825c-0,-0.3 -0.075,-0.6 -0.375,-0.975c-1.05,-1.125 -4.125,-3.225 -8.625,-3.375l-0.525,-0c-1.275,-0 -1.95,0.15 -2.475,0.375c-0.6,0.3 -1.05,0.75 -1.5,1.2c-1.05,0.825 -2.325,2.325 -2.475,4.05c-0,0.3 -0.075,0.6 -0.075,0.825c-0,1.725 0.375,3.15 1.425,4.5c1.2,1.65 3.9,3.3 6.75,4.5c3,1.2 5.85,3.525 5.85,6c-0,2.55 -2.1,4.05 -5.4,4.275c-0.225,-0 -0.45,0.075 -0.6,0.075c-3.225,-0 -5.475,-2.7 -6,-3.75c-0.15,-0.525 -0.75,-0.825 -1.2,-0.825c-0.3,-0 -0.75,0.15 -1.275,0.225c-1.125,0.3 -1.5,1.2 -1.5,2.1c-0,0.3 -0,0.675 0.225,0.975c0.525,0.975 2.475,2.475 4.275,3.6c1.65,0.9 4.575,1.5 6.6,1.5c1.8,-0 3.975,-1.35 5.925,-2.625c1.65,-1.125 2.4,-4.125 2.475,-6.6Z" style="fill-rule:nonzero;"/>
    <path d="M938.2,1923.47c-0,-0.6 -0.3,-0.825 -0.9,-1.05c-0.375,-0.075 -0.825,-0.075 -1.275,-0.075c-0.525,-0 -0.975,-0.075 -1.5,-0.075l-1.275,-0.15c-0.375,-0 -0.675,-0.075 -0.975,-0.15c-0.675,-0.225 -1.125,-0.75 -1.125,-1.5c-0,-1.05 -0,-2.85 0.15,-5.775l-0,-0.3c-0,-1.125 -0.225,-1.5 -0.45,-1.65c-0.375,-0.3 -1.125,-0.3 -1.575,-0.3l-0.225,-0c-1.125,-0 -1.8,0.9 -1.875,1.35c-0,0.075 -0.075,0.225 -0.075,0.3c-0,0.375 0.075,0.975 0.15,1.725c0.15,0.975 0.3,2.25 0.3,3.525l-0,0.375c-0,1.35 -0.6,2.1 -1.575,2.325c-0.3,0.075 -0.6,0.075 -0.9,0.075c-0.525,-0 -1.2,-0.075 -1.725,-0.075c-1.05,-0 -1.65,0.675 -1.875,2.925c-0,0.075 -0.075,0.15 -0.075,0.225c-0,0.45 0.3,0.6 0.9,0.75c0.375,0.075 0.75,0.075 1.125,0.075c0.375,-0 0.75,-0.075 1.05,-0.075c1.2,-0 2.775,0.9 2.775,2.55c-0,1.2 0.225,3.825 0.225,7.2c-0,3.375 -0.45,9.825 -0.45,12.75c-0,1.425 0.225,1.8 0.45,1.95l0.6,0.15l1.35,-0c1.875,-0 2.475,-0.225 2.475,-1.2l-0,-0.525c-0.225,-2.1 -0.6,-7.5 -0.675,-10.65c-0.075,-1.05 -0.15,-2.325 -0.15,-3.6c-0,-2.475 0.15,-5.025 0.225,-6.675c0.075,-1.65 1.05,-2.325 2.25,-2.4l0.225,-0c0.9,-0 1.725,0.225 2.625,0.3l0.3,-0c0.975,-0 1.5,-0.525 1.5,-2.325Z" style="fill-rule:nonzero;"/>
    <path d="M963.625,1921.67c-0.525,-0.225 -2.325,-0.825 -4.35,-0.825c-2.025,-0 -4.8,1.8 -5.775,3.675c-0.225,0.45 -0.525,0.9 -0.9,1.125c-0.225,0.075 -0.375,0.075 -0.45,0.075c-0.375,-0 -0.675,-0.225 -0.825,-0.45c-0.225,-0.45 -0.3,-1.05 -0.3,-1.65l-0,-0.525c-0,-1.275 -1.35,-1.8 -2.325,-1.8c-1.875,-0 -2.1,0.6 -2.175,0.975c-0,0.075 -0.075,0.15 -0.075,0.3c-0,0.225 0.075,0.6 0.15,0.975c0.075,0.525 0.15,1.125 0.225,1.65c0.15,2.475 0.15,8.025 0.15,11.325c-0,3.225 -0.15,6.6 -0.675,10.95c-0.075,0.75 -0.075,1.35 -0.075,1.725c-0,0.45 0.075,0.675 0.375,0.825c0.15,0.075 0.45,0.075 1.125,0.075c0.6,-0.075 1.35,-0.15 2.25,-0.15c1.875,-0 2.325,-1.275 2.325,-2.7c-0,-1.05 -0.3,-2.25 -0.45,-3.15c-0.3,-1.5 -0.375,-4.275 -0.375,-7.05c-0,-1.5 -0,-2.925 0.075,-4.2c0.225,-4.05 2.925,-6.3 5.475,-6.9c0.975,-0.225 1.65,-0.3 2.325,-0.3c0.9,-0 1.5,0.15 2.475,0.525c0.15,-0 0.375,0.225 0.525,0.225c0.225,-0 0.3,-0.075 0.375,-0.3c0.15,-0.075 0.3,-0.375 0.375,-0.75c0.225,-0.375 0.375,-0.825 0.525,-1.35c0.225,-0.75 0.375,-1.275 0.375,-1.575c-0,-0.375 -0.15,-0.6 -0.375,-0.75Z" style="fill-rule:nonzero;"/>
    <path d="M988.3,1950.02c0.6,-0.375 1.125,-0.825 1.5,-1.2c0.375,-0.45 0.75,-0.825 1.125,-1.05c0.45,-0.45 0.975,-0.675 1.5,-0.675c0.75,-0 1.425,0.6 1.425,1.5c-0,0.225 -0,0.45 -0.075,0.675c-0,0.075 -0.075,0.15 -0.075,0.225c-0,0.675 0.75,0.75 2.85,0.9l0.375,-0c1.125,-0 1.35,-0.3 1.5,-0.6l-0,-14.775c-0,-2.475 -0.075,-5.1 -0.075,-7.5c-0,-1.2 -0,-2.325 0.075,-3.375l-0,-0.375c-0,-1.95 -0.975,-2.025 -2.25,-2.025l-0.75,-0c-0.9,-0 -1.35,0.075 -1.35,0.6c-0,0.375 0.075,0.675 0.075,0.9c-0,1.2 -0.45,2.25 -1.35,2.55c-0.15,0.075 -0.225,0.075 -0.375,0.075c-0.525,-0 -1.2,-0.375 -1.875,-0.975c-0.675,-0.6 -1.2,-1.275 -1.8,-1.875c-0.825,-1.05 -3.9,-1.95 -6.75,-1.95c-4.2,-0 -9,2.7 -11.325,5.925c-1.65,2.4 -2.25,6.15 -2.55,9.225l-0,0.6c-0,2.925 1.725,7.65 3.6,9.975c1.95,2.475 5.25,4.725 10.8,4.725c2.7,-0 4.5,-0.675 5.775,-1.5Zm5.775,-13.8c-0.225,3.15 -1.275,6.9 -3.9,8.85c-2.025,1.575 -3.6,1.95 -5.925,1.95c-0.45,-0 -0.9,-0.075 -1.5,-0.075c-3.375,-0.225 -6.225,-1.725 -7.425,-3.675c-0.975,-1.8 -1.65,-4.125 -1.65,-6.75l-0,-0.675c0.15,-2.7 1.275,-7.275 2.7,-8.325c1.05,-0.825 4.275,-2.175 6.975,-2.175c0.45,-0 0.9,-0 1.35,0.075l1.725,0.375c0.3,-0 0.3,0.075 0.375,0.075c0.45,0.15 1.125,0.225 1.575,0.45c1.35,0.45 2.625,1.275 3.6,2.925l1.125,1.95c0.075,0.525 0.525,1.05 0.75,1.5c0.225,0.6 0.375,1.275 0.375,2.025c-0,0.45 -0.075,0.975 -0.15,1.5Z" style="fill-rule:nonzero;"/>
    <path d="M1023.18,1923.47c-0,-0.6 -0.3,-0.825 -0.9,-1.05c-0.375,-0.075 -0.825,-0.075 -1.275,-0.075c-0.525,-0 -0.975,-0.075 -1.5,-0.075l-1.275,-0.15c-0.375,-0 -0.675,-0.075 -0.975,-0.15c-0.675,-0.225 -1.125,-0.75 -1.125,-1.5c-0,-1.05 -0,-2.85 0.15,-5.775l-0,-0.3c-0,-1.125 -0.225,-1.5 -0.45,-1.65c-0.375,-0.3 -1.125,-0.3 -1.575,-0.3l-0.225,-0c-1.125,-0 -1.8,0.9 -1.875,1.35c-0,0.075 -0.075,0.225 -0.075,0.3c-0,0.375 0.075,0.975 0.15,1.725c0.15,0.975 0.3,2.25 0.3,3.525l-0,0.375c-0,1.35 -0.6,2.1 -1.575,2.325c-0.3,0.075 -0.6,0.075 -0.9,0.075c-0.525,-0 -1.2,-0.075 -1.725,-0.075c-1.05,-0 -1.65,0.675 -1.875,2.925c-0,0.075 -0.075,0.15 -0.075,0.225c-0,0.45 0.3,0.6 0.9,0.75c0.375,0.075 0.75,0.075 1.125,0.075c0.375,-0 0.75,-0.075 1.05,-0.075c1.2,-0 2.775,0.9 2.775,2.55c-0,1.2 0.225,3.825 0.225,7.2c-0,3.375 -0.45,9.825 -0.45,12.75c-0,1.425 0.225,1.8 0.45,1.95l0.6,0.15l1.35,-0c1.875,-0 2.475,-0.225 2.475,-1.2l-0,-0.525c-0.225,-2.1 -0.6,-7.5 -0.675,-10.65c-0.075,-1.05 -0.15,-2.325 -0.15,-3.6c-0,-2.475 0.15,-5.025 0.225,-6.675c0.075,-1.65 1.05,-2.325 2.25,-2.4l0.225,-0c0.9,-0 1.725,0.225 2.625,0.3l0.3,-0c0.975,-0 1.5,-0.525 1.5,-2.325Z" style="fill-rule:nonzero;"/>
    <path d="M1058.28,1935.39c-0,-0.075 0.075,-0.15 0.075,-0.3c-0,-0.075 -0.075,-0.3 -0.075,-0.525l-0.3,-1.575c-0.525,-2.4 -3.15,-6.375 -5.1,-8.7c-1.95,-2.1 -5.7,-3.375 -8.85,-3.525l-0.825,-0c-3.225,-0 -5.775,1.575 -8.4,3.3l-0.6,0.375c-2.85,1.725 -4.875,7.425 -5.025,11.925l-0,0.225c-0,4.275 3.225,9 5.775,11.85c2.475,2.625 7.575,2.7 10.125,2.7c2.4,-0 4.35,-0.6 5.625,-1.275c0.525,-0.3 1.275,-0.9 2.175,-1.65c0.825,-0.75 1.725,-1.5 2.7,-2.25c0.75,-0.525 1.125,-1.125 1.125,-1.725c-0,-0.675 -0.375,-1.35 -1.5,-2.25c-0.375,-0.3 -0.75,-0.45 -0.975,-0.45c-0.375,-0 -0.6,0.225 -0.9,0.45c-0.525,0.6 -0.9,1.35 -1.2,2.1c-0.6,1.35 -3.6,2.85 -7.35,2.85l-0.6,-0c-2.475,-0.075 -4.575,-0.825 -6.45,-2.325l-1.125,-0.9c-1.2,-1.05 -2.4,-4.05 -2.4,-5.925l-0,-0.525c0.225,-0.9 2.025,-1.425 4.275,-1.5c1.875,-0 3.975,0.075 5.1,0.075c1.575,-0 5.925,0.075 9.3,0.075c1.725,-0 3.225,-0 4.05,-0.075c1.275,-0 1.35,-0.3 1.35,-0.45Zm-5.325,-4.95c0.225,0.375 0.3,0.675 0.3,0.975c-0,0.825 -0.675,1.35 -2.025,1.35c-2.925,-0 -6.15,0.075 -7.425,0.075c-1.35,-0 -5.325,-0.075 -6.15,-0.3c-0.825,-0.075 -2.625,-1.05 -2.625,-2.4c-0,-0.45 0.15,-0.9 0.525,-1.35c1.2,-1.65 4.5,-3.9 8.4,-3.9l0.3,-0c3.525,0.15 4.725,1.2 6.45,2.85c0.75,0.75 1.8,1.725 2.25,2.7Z" style="fill-rule:nonzero;"/>
    <path d="M1094.12,1925.72c0.075,-0.45 0.075,-0.825 0.075,-1.2c-0,-1.8 -0.75,-2.175 -2.325,-2.325c-0.375,-0.075 -0.6,-0.075 -0.9,-0.075c-0.825,-0 -1.05,0.225 -1.05,0.75c-0,0.45 0.15,0.9 0.15,1.35c-0,0.45 -0.075,1.125 -0.675,1.575c-0.15,0.225 -0.375,0.3 -0.675,0.3c-0.45,-0 -0.975,-0.3 -1.575,-0.825c-0.525,-0.6 -1.125,-1.275 -1.875,-1.725c-1.35,-0.825 -4.05,-2.175 -7.875,-2.325l-0.225,-0c-2.85,-0 -6.15,2.25 -7.95,3.9c-1.725,1.65 -4.5,5.175 -4.5,11.1l-0,0.375c0.075,3.15 0.75,5.325 1.8,7.05c0.9,1.575 2.175,2.85 3.375,4.125l0.375,0.3c2.625,2.625 6.375,3.075 8.25,3.075c1.8,-0 4.125,-0.45 5.55,-1.875c1.5,-1.5 3.3,-2.25 4.575,-2.25l0.375,-0c0.9,0.15 1.05,1.05 1.125,1.725c-0,0.675 -0.15,1.725 -0.225,3.075c-0.15,2.775 -0.75,4.275 -1.8,6.225c-1.275,2.25 -4.95,3.3 -8.55,3.6c-0.225,-0 -0.45,0.075 -0.675,0.075c-3.675,-0 -6.675,-2.7 -7.875,-4.65c-0.525,-0.9 -0.9,-1.2 -1.425,-1.35c-0.225,-0.075 -0.525,-0.075 -0.9,-0.075l-1.5,-0c-0.9,-0 -1.2,0.525 -1.2,1.2c-0,0.45 0.225,1.125 0.45,1.5c0.225,0.525 0.75,1.125 1.35,1.8c0.6,0.675 1.35,1.35 2.025,1.95c1.2,1.2 4.5,2.625 8.85,3l0.825,-0c3.9,-0 7.275,-1.5 9.15,-2.625c1.875,-1.05 4.125,-4.5 4.875,-7.125c0.375,-1.125 0.45,-3.675 0.45,-6.375c-0,-3 -0.075,-6.225 -0.15,-8.325c-0.075,-1.425 -0.075,-3.225 -0.075,-5.175c-0,-3.6 0.075,-7.575 0.375,-9.75Zm-4.2,10.65c-0,2.175 -0.15,4.875 -2.025,7.275c-1.8,2.25 -3.75,4.05 -8.25,4.05l-0.45,-0c-2.4,-0.075 -4.05,-0.6 -5.175,-1.35c-1.125,-0.75 -1.875,-1.575 -2.625,-2.55c-1.5,-1.725 -2.25,-4.2 -2.325,-7.2l-0,-0.75c-0,-2.85 0.6,-5.325 2.625,-7.65c2.25,-2.55 5.4,-2.85 7.95,-2.85c3.375,-0 6.225,1.125 7.95,3.45c1.725,2.325 2.325,5.25 2.325,7.575Z" style="fill-rule:nonzero;"/>
    <path d="M1133.2,1923.47c0.225,-0.375 0.3,-0.6 0.3,-0.75c-0,-0.3 -0.225,-0.375 -0.45,-0.45c-0.3,-0.15 -0.75,-0.225 -1.2,-0.3l-1.125,-0.075c-0.225,-0 -0.6,-0.075 -0.9,-0.075c-0.675,-0 -1.35,0.15 -1.425,0.675c-0.15,1.35 -2.325,6.225 -3.15,8.025c-0.825,1.725 -2.625,6.225 -3.225,7.95c-0.6,1.95 -1.65,4.5 -3.3,4.95c-0.225,0.075 -0.45,0.15 -0.6,0.15c-0.75,-0 -1.2,-0.525 -1.5,-1.2c-0,-0.3 -0.15,-0.675 -0.225,-1.125c-0.075,-0.375 -0.15,-0.825 -0.225,-1.2c-0.225,-0.825 -0.675,-1.65 -1.2,-2.775c-0.6,-1.05 -1.2,-2.25 -1.725,-3.6c-1.05,-2.7 -2.775,-6.6 -3.75,-9.45c-0.975,-2.4 -1.725,-2.55 -4.2,-2.775l-0.525,-0c-1.125,-0 -1.575,0.45 -1.575,0.975c-0,1.05 1.05,2.4 1.575,2.925c0.675,0.75 1.5,2.4 2.4,4.05c0.825,1.65 1.8,3.45 2.7,4.875c0.375,0.75 0.825,1.575 1.2,2.475l1.05,2.7c0.75,1.8 1.425,3.525 2.475,4.725c1.35,1.65 1.875,3.225 1.875,4.5l-0,0.3c-0,0.825 -0.225,1.575 -0.45,2.1c-0.6,0.975 -1.425,2.4 -2.325,5.025c-0.45,1.35 -1.2,2.625 -1.875,3.75c-0.675,1.125 -1.35,2.175 -1.95,3.375c-0.225,0.375 -0.375,0.75 -0.375,0.9c-0,0.9 1.125,0.9 3,1.05c0.15,-0 0.375,0.075 0.525,0.075c0.9,-0 1.275,-0.3 1.5,-0.6c0.225,-0.3 0.375,-0.6 0.525,-1.05l0.525,-1.5c0.45,-1.125 0.825,-2.25 1.2,-3.3c0.45,-1.125 0.9,-2.25 1.5,-3.375c1.2,-2.25 3.225,-8.325 4.725,-11.175c1.425,-2.775 3.375,-7.575 4.5,-9.9c1.125,-2.325 4.275,-8.4 5.7,-10.875Z" style="fill-rule:nonzero;"/>
    <path d="M1164.55,1916.04c-0,-2.55 -1.575,-5.475 -3.675,-8.1c-1.95,-2.475 -5.025,-3.825 -9.15,-3.825c-4.125,-0 -7.875,2.1 -9.975,4.425c-2.025,2.4 -2.775,6.15 -2.775,7.95l-0,0.9c-0,0.225 0.15,0.375 0.375,0.375l0.525,-0c0.45,-0 0.975,-0 1.65,0.075l0.525,-0c0.75,-0 1.05,-0.15 1.2,-0.3c0.225,-0.225 0.3,-0.525 0.375,-0.825c-0,-0.075 -0,-0.15 0.225,-1.95c0.225,-0.75 0.45,-1.575 0.825,-2.475c0.9,-1.95 3.9,-3.15 6.975,-3.45l1.2,-0c1.05,-0 1.875,0.15 2.625,0.45c0.825,0.375 1.65,1.05 2.475,1.575c1.875,1.35 2.325,4.5 2.325,6.375c-0,2.025 -0.3,3.9 -2.1,6.15c-1.575,2.025 -3.75,2.175 -6.075,2.25l-0.675,-0c-2.175,0.075 -2.7,1.5 -2.7,2.175c-0,0.975 -0,6.975 0.075,9.75c0.075,1.725 0.9,2.025 1.725,2.025c0.15,-0 0.375,-0.075 0.525,-0.075c1.05,-0.15 1.65,-0.45 1.65,-1.65c-0,-1.65 0.3,-4.275 0.45,-5.85c0.15,-1.95 1.05,-2.775 3.15,-3.075c1.8,-0.225 4.125,-2.4 5.55,-3.525c1.5,-1.275 2.7,-6.525 2.7,-9.375Zm-10.425,31.125c0.075,-0.225 0.075,-0.45 0.075,-0.675c-0,-1.8 -1.275,-2.85 -3.375,-2.85c-2.4,-0 -3.3,1.425 -3.525,3.675l-0,0.225c-0,2.025 1.725,3.525 3.525,3.525c1.725,-0 2.925,-1.35 3.3,-3.9Z" style="fill-rule:nonzero;"/>
    <g id="CUB-ICON" sound="CUB" serif:id="CUB ICON">
      <rect x="1289.9" y="1861.95" width="205" height="150.089" style="fill:#fff;stroke:#000;stroke-width:1.78px;stroke-linecap:round;"/>
      <path d="M1314.21,1911.41c-0.924,3.032 -2.318,5.596 -3.768,8.096c0.153,0.165 0.514,0.113 0.56,0.379c2.475,-2.983 3.139,-7.785 5.273,-11.114c1.01,0.441 0.58,-0.361 1.129,-0.754c0.589,-0.087 0.603,0.404 0.566,0.941c1.992,0.514 2.523,3.289 3.199,4.516c1.608,-0.909 2.218,1.184 3.012,1.135c-0.543,2.763 0.329,5.192 0.187,7.528c0.35,0.029 0.63,0.124 0.754,0.375c-0.029,3.881 2.391,9.887 -0.185,13.182c0.052,0.389 0.699,0.179 0.751,0.566c0.208,1.27 -0.846,1.282 -0.751,2.448c0.526,0.503 0.93,-0.176 1.505,-0.185c0.886,1.349 -1.15,2.149 -0.381,3.39c0.516,0.488 0.704,-0.407 1.134,-0.566c1.051,0.979 1.138,2.437 0.754,3.578c0.266,0.361 0.915,0.341 1.32,0.563c0.08,0.985 -0.301,1.787 -0.379,2.073c0.107,0.39 0.295,0.399 0.563,0.185c0.125,0.751 -0.496,0.759 -0.378,1.507c0.436,-0.06 0.728,0.029 0.941,0.185c1.005,4.597 0.939,10.011 0.757,15.252c-0.118,3.323 0.601,7.885 0.378,11.862c-0.162,2.798 0.439,5.78 -0.759,7.53c-1.265,1.857 -3.907,3.687 -7.343,1.317c-0.976,0.598 -2.042,1.097 -2.258,2.451c-0.754,0.182 -0.563,-0.563 -1.317,-0.378c-1.048,1.53 -2.685,4.828 -1.316,6.968c1.241,-0.015 2.595,0.089 3.571,-0.185c1.196,-2.902 2.914,0.586 4.898,0.941c3.069,0.546 5.792,-1.958 8.662,-0.756c1.132,-0.436 1.961,-1.176 3.012,-1.695c0.387,-2.189 1.732,-3.419 1.882,-5.836c1.132,-2.203 5.013,-4.216 3.197,-7.534c2.084,-3.615 1.022,-11.004 3.202,-13.932c0.049,-0.548 -0.427,-0.58 -0.378,-1.132c1.475,-1.744 1.504,-3.773 2.448,-5.835c-0.413,-1.614 -0.794,-3.771 -0.753,-5.27c0.222,-0.595 0.978,-0.658 1.316,-1.135c1.551,0.419 1.903,2.969 3.581,2.637c-0.049,0.355 -0.491,1.25 -0,1.507c0.947,0.069 0.701,-1.051 1.314,-1.32c1.677,2.406 1.648,6.852 2.451,10.358c0.121,0.629 0.583,0.918 0.754,1.504c-0.662,2.709 0.921,6.462 -0.379,8.663c0.237,2.24 -0.418,6.228 -0.375,8.662c0.02,1.247 0.427,2.068 0.185,3.012c-1.011,3.907 -6.673,4.169 -6.029,9.982c0.895,0.3 1.917,0.418 3.014,0.187c0.884,1.222 2.342,0.549 3.771,0.754c2.157,0.303 4.415,2.053 6.968,1.883c1.086,-1.181 2.425,0.003 3.39,-0.188c4.135,-0.829 -0.762,-6.76 1.504,-9.416c-0.283,-0.347 -0.782,-0.471 -0.938,-0.941c0.745,-1.144 0.678,-3.581 0.378,-5.461c-0.782,-0.216 -0.733,0.396 -1.32,0.379c1.615,-3.725 -0.06,-10.73 2.261,-13.748c0.237,-0.745 -0.548,-0.456 -0.566,-0.941c1.233,-3.442 0.546,-6.549 1.317,-9.797c0.445,-1.88 0.263,-4.086 0.563,-6.402c1.014,0.15 1.331,-0.736 2.076,-1.319c0.999,-0.041 1.998,0.898 2.449,-0.185c0.73,-0.104 0.439,0.811 0.941,0.938c1.291,-0.759 2.036,-0.514 3.197,0.381c0.626,-0.06 -0.497,-0.823 0.187,-0.941c0.947,-0.257 0.621,0.76 0.942,1.129c0.641,0.139 0.306,-0.693 0.75,-0.754c1.303,-0.109 1.219,1.17 1.698,1.883c0.711,-0.355 0.514,-1.623 1.317,-1.883c0.618,0.197 0.667,0.965 0.941,1.505c1.392,0.182 1.71,-0.182 3.015,-0.754c0.543,0.315 -0.667,1.022 -0,1.507c1.331,-0.386 1.882,-0.877 2.448,-1.694c0.537,0.158 0.223,1.152 0.563,1.504c0.728,0.037 1.083,-0.3 1.132,-0.941c0.708,0.84 1.591,-0.249 2.076,-0.754c0.621,0.107 0.818,0.162 0.561,0.754c0.854,-0.676 1.484,-0.607 2.451,-0.945c2.466,1.063 3.355,4.658 3.39,7.534c0.488,0.554 1.247,-0.329 1.695,0.188c0.228,0.857 -0.517,0.739 -0.375,1.504c1.077,0.794 1.489,2.099 2.824,3.012c-0.128,0.623 -1.436,0.069 -1.505,0.753c0.425,1.08 2.079,0.939 2.639,1.883c-0.017,0.797 -1.729,-0.095 -1.504,0.941c0.782,0.347 1.917,0.341 2.451,0.941c0.194,0.699 -0.641,0.367 -0.759,0.754c0.99,1.21 1.686,2.709 2.827,3.765c-0.514,1.415 0.286,2.758 -0,4.332c-0.52,2.867 -3.725,4.871 -5.085,6.782c-2.691,0.234 -4.88,1.444 -6.211,-0.756c-2.093,0.797 -4.444,3.424 -5.088,5.648c-0.745,2.578 0.514,2.708 3.39,3.202c2.515,0.433 3.918,1.32 5.651,-0.375c1.701,0.15 2.911,0.254 3.953,-0.566c3.017,0.254 4.129,-1.398 6.78,-1.505c2.607,-2.541 5.295,-6.066 7.533,-9.794c0.907,-1.519 2.348,-3.817 2.449,-4.894c0.147,-1.713 -1.173,-3.867 -3.015,-3.769c-0.245,-0.586 0.055,-0.537 0,-1.319c-0.967,-1.115 -1.533,-2.766 -1.882,-4.892c-0.523,-3.193 -2.117,-6.436 -1.877,-9.982c0.248,-3.684 0.866,-8.18 3.765,-9.982c0.768,0.74 0.635,2.377 1.317,3.2c-0.237,1.498 -0.422,4.21 0.941,5.087c0.147,2.178 1.291,4.811 2.073,6.965c0.358,3.745 1.981,7.337 2.073,11.489c0.032,1.268 -0.436,2.481 0.185,3.769c-1.019,5.006 -1.986,11.189 -4.331,15.445c0.274,1.903 -0.505,2.754 -0.375,4.516c2.5,-0.182 5.463,1.195 8.662,1.316c2.345,0.09 4.741,-0.239 6.78,-0.941c0.323,-1.019 -0.505,-1.597 0.566,-2.261c-0.298,-2.573 -0.918,-5.509 -1.32,-7.721c-0.534,-2.893 -0.704,-6.592 -1.504,-9.038c-0.477,-1.452 -1.164,-4.715 -1.317,-6.214c-0.572,-5.737 0.566,-10.478 1.317,-15.817c0.153,-1.074 -0.491,-2.478 0.563,-3.39c1.782,0.263 0.771,3.092 1.132,4.331c1.293,-0.104 1.319,1.066 1.317,2.261c0.947,0.349 1.397,1.848 1.504,2.449c1.011,1.475 2.457,3.854 3.768,5.46c1.652,2.021 2.864,4.805 4.516,6.592c0.751,0.808 2.299,1.412 3.39,2.258c4.868,3.774 11.743,5.148 19.023,3.199c0.701,-0.199 0.54,0.468 1.132,0.381c2.636,-0.571 4.732,-2.359 6.964,-3.58c0.454,-0.246 1.008,-0.15 1.317,-0.375c0.598,-0.428 0.835,-1.184 1.32,-1.508c1.143,-0.759 3.355,-0.95 2.261,-3.011c0.254,-1.6 1.752,-1.996 2.258,-3.197c0.534,-1.276 0.386,-3.912 0.184,-5.651c-0.21,-1.839 -1.045,-3.6 -1.319,-5.272c-0.633,-0.685 -1.147,-1.49 -2.071,-1.883c0.078,-0.361 0.54,-0.341 0.376,-0.941c-1.386,-0.133 -2.27,0.24 -3.197,0.566c-0.384,0.811 -0.43,1.955 -1.319,2.261c-0.529,0.081 0.473,-0.702 -0.185,-0.754c-0.82,0.243 -0.904,1.233 -1.132,2.07c-0.251,0.309 -1.068,0.061 -1.317,0.376c-0.462,1.611 -0.918,3.225 -2.639,3.577c-0.026,1.921 -0.407,3.488 -1.316,4.516c-0.745,-0.066 0.294,-1.002 -0.754,-0.941c-0.292,0.658 -0.309,1.574 -0.563,2.261c-0.829,0.199 -0.621,-0.635 -1.32,-0.563c-1.851,2.197 -4.354,3.705 -7.158,3.765c-0.667,0.015 -0.872,-0.563 -1.132,-0.563c-0.442,0 -0.603,0.621 -0.938,0.563c-3.301,-0.56 -5.354,-3.442 -8.102,-4.706c-0.422,-3.278 -3.148,-4.262 -4.514,-6.59c0.041,-0.271 0.558,-0.066 0.561,-0.375c-0.182,-0.505 -0.419,-0.964 -0.561,-1.507c-0.537,-0.156 -0.49,0.265 -0.941,0.187c0.526,-0.675 -0.398,-1.608 -0.378,-2.636c-0.462,0.026 -0.907,0.029 -1.132,-0.188c-0.182,-0.753 0.56,-0.563 0.378,-1.319c-0.534,-0.881 -2.373,-1.346 -2.076,-2.449c0.56,-0.606 0.71,0.786 1.135,0.942c0.739,-1.427 -1.689,-2.787 -2.452,-3.956c0.003,-1.539 -1.796,-2.183 -1.132,-3.766c0.861,1.086 1.054,2.833 2.261,3.575c-0.528,-1.96 -0.854,-5.018 -2.076,-7.158c0.56,-0.006 0.933,-2.062 0.188,-2.636c-0.144,-0.708 0.999,-0.13 0.754,-0.942c-0.104,-0.649 -0.867,-0.641 -0.942,-1.319c-0.133,-0.511 0.893,0.133 0.757,-0.375c-0.095,-0.595 -0.208,-1.173 -0.757,-1.32c0.298,-1.652 1.028,-2.864 1.505,-4.331c-0.575,-0.136 -0.685,0.19 -1.135,0.187c1.805,-3.56 -1.461,-7.498 0.19,-11.861c-0.473,-1.467 -0.993,-2.541 -0.756,-4.144c-0.858,-1.034 -1.698,-2.766 -0.941,-4.331l-0.942,-0c0.699,-1.865 -1.764,-1.759 -1.692,-3.578c-0.254,-0.245 -0.569,-0.115 -0.756,0.188c-1.381,-1.614 -2.631,-2.192 -3.771,-3.956c-0.595,-0.165 -0.578,0.297 -0.936,0.375c-0.459,-0.358 -0.86,-0.776 -0.756,-1.695c-1.196,0.133 -1.444,-0.606 -2.074,-0.565c-0.329,-1.531 -1.865,-1.176 -3.014,-1.505c-1.903,-0.548 -3.924,-1.741 -6.023,-2.07c-1.207,-0.188 -2.293,0.341 -3.203,-0.563c-1.305,-0.032 -2.697,0.699 -3.95,0.753c-0.115,0.003 -0.563,-0.375 -0.563,-0.375c-0.777,0.124 -1.241,0.638 -1.882,0.754c-2.755,0.499 -5.308,0.242 -8.1,0.566c-4.247,0.488 -8.249,1.576 -12.431,2.07c-5.102,0.601 -9.716,2.105 -15.066,1.32c-2.128,-0.312 -5.019,-0.699 -7.903,-1.132c-0.997,-0.875 -2.293,-1.496 -3.203,-2.449c-0.646,-0.676 -1.276,-0.987 -2.261,-1.692c-0.349,-0.254 -0.554,-0.878 -0.938,-1.132c-0.24,-0.162 -0.378,0.263 -0.563,0.185c-0.136,-0.055 -0.682,-0.788 -1.132,-0.941c-0.277,-0.093 -0.673,0.115 -0.938,-0c-0.54,-0.234 -1.161,-0.997 -1.883,-1.132c-0.658,-0.122 -1.386,0.248 -2.07,0.187c-3.982,-0.352 -6.89,-3.586 -10.924,-4.146c0.159,-1.528 0.979,-2.659 0.188,-4.144c2.457,-2.645 4.617,-7.594 2.255,-12.43c-2.194,-1.366 -6.017,-0.933 -8.284,0.566c-2.446,1.622 -3.306,4.787 -6.78,5.085c-1.94,0.167 -4.409,-0.133 -6.401,-0.185c-1.84,-0.055 -3.896,0.421 -5.273,0.185c-3.402,-0.572 -4.926,-4.514 -7.909,-6.027c-1.588,-0.314 -3.355,-0.231 -4.516,0.376c-3.811,3.898 -0.771,10.493 2.258,13.369c-1.074,1.695 0.982,3.081 1.132,4.519c0.173,1.637 -0.904,3.072 -1.883,4.331c1.141,4.704 2.992,8.683 6.405,11.111c-3.514,0.944 -6.604,2.307 -9.226,4.146c-0.609,0.269 -1.744,0.012 -1.692,0.942c2.177,1.354 4.196,-2.995 7.158,-2.827c0.67,-0.959 2.091,-1.175 3.387,-1.504c-2.142,2.185 -5.359,4.293 -5.835,7.527c1.547,-0.944 1.7,-2.913 2.827,-4.143c1.293,-1.409 3.17,-2.105 4.331,-3.578c0.938,0.445 1.897,-1.207 3.014,-0.563c-0.092,0.785 -0.854,0.904 -1.504,1.132c-0.202,1.302 -1.193,1.819 -2.258,2.255l-0,0.757c-1.77,0.895 -2.766,3.314 -3.953,4.894c-0.413,0.543 -1.597,1.126 -0.941,1.882c2.255,-1.469 2.737,-4.752 5.269,-5.988Z" style="fill-rule:nonzero;"/>
    </g>
    <g id="FAWN-ICON" sound="FAWN" serif:id="FAWN ICON">
      <rect x="190" y="1857.24" width="200" height="159.524" style="fill:#fff;stroke:#000;stroke-width:1.82px;stroke-linecap:round;"/>
      <path id="fawn" d="M227.292,1958.83c2.787,-0.838 9.983,-7.709 10.776,-11.107c0.84,-3.6 0.59,-14.905 -0.459,-16.688c-1.378,-2.342 -1.601,-9.262 0.217,-11.01c2.783,-2.677 14.674,-7.969 17.248,-9.6c1.709,-1.082 3.905,-0.94 5.854,-0.839c1.949,0.101 12.289,-0.607 19.916,-0.391c7.627,0.218 14.433,-0.852 17.65,-1.218c3.216,-0.366 12.97,-1.939 16.718,-0.378c2.345,0.977 10.007,2.294 13.734,-1.066c3.726,-3.36 6.421,-10.872 6.717,-13.044c0.349,-2.573 1.483,-5.645 1.651,-7.007c0.235,-1.904 -0.114,-2.565 -0.349,-2.811c-0.986,-1.037 -0.987,-1.591 -1.181,-2.033c-0.193,-0.443 -1.449,-1.683 -1.34,-2.198c0.079,-0.375 -0.117,-0.644 -1.188,-0.808c-1.072,-0.163 -4.388,-1.673 -4.894,-3.867c-1.389,-6.026 -0.397,-9.325 0.896,-9.258c1.292,0.067 7.413,4.594 7.465,5.676c0.052,1.082 1.1,3.367 1.92,3.803c1.287,0.683 3.136,-0.984 7.348,-0.591c1.944,0.182 3.995,1.177 4.352,1.107c0.273,-0.053 1.944,-1.817 2,-2.894c0.056,-1.077 0.956,-2.834 3.39,-4.145c2.54,-1.367 3.966,-1.921 4.528,-2.323c0.56,-0.403 1.93,-0.629 2.254,0.734c0.311,1.31 -0.032,5.73 -1.615,8.144c-0.935,1.425 -2.401,3.022 -4.645,3.788c-1.164,0.398 -2.147,0.18 -2.192,1.04c-0.043,0.862 0.071,2.811 -0.49,3.214c-0.559,0.403 -0.372,0.952 -0.411,1.706c-0.038,0.753 -0.422,1.921 -0.655,2.233c-0.232,0.312 -0.449,1.345 -0.402,1.491c0.27,0.807 0.772,1.767 0.614,2.731c-0.157,0.964 -0.547,0.414 -0.711,1.485c-0.164,1.072 -0.577,1.237 -1.065,1.555c-0.69,0.45 -1.227,1.708 -1.648,1.797c-0.963,0.204 -1.378,-0.363 -1.423,0.498c-0.045,0.862 -0.49,1.839 -0.324,2.819c0.164,0.981 0.309,4.444 -0.149,4.959c-0.458,0.516 -2.857,5.142 -2.979,7.511c-0.123,2.369 -1.007,9.017 -4.098,12.421c-0,0 -5.273,4.846 -5.333,5.989c-0.059,1.143 0.621,6.733 0.326,7.336c-0.296,0.601 -1.206,1.172 -1.608,2.12c-0.402,0.949 -1.579,4.943 -2.042,5.361c-0.462,0.416 -2.992,1.608 -2.513,4.279c0.479,2.67 3.171,6.864 5.45,8.834c2.279,1.968 7.328,6.64 7.768,8.338c0.442,1.697 1.266,2.799 1.217,3.765c-0.051,0.967 -0.036,2.379 1.296,5.621c1.331,3.244 4.174,11.326 4.616,13.024c0.442,1.698 1.169,2.97 1.166,4.733c-0.003,1.763 0.501,5.669 0.095,6.706c-0.408,1.037 0.68,5.59 0.151,5.562c-0.526,-0.027 -1.605,0.359 -3.087,-1.659c-1.484,-2.015 -1.955,-3.098 -2.35,-4c-0.395,-0.902 -0.215,-2.656 0.084,-3.346c0.3,-0.689 0.516,-3.148 0.128,-2.462c-0.389,0.685 -0.859,1.278 -1.101,0.825c-0.24,-0.454 0.305,-0.778 0.011,-3.615c-0.294,-2.837 -0.395,-6.016 -1.173,-7.996c-0.778,-1.981 -2.434,-5.767 -3.187,-8.276c-0.751,-2.508 -2.245,-6.024 -4.7,-8.001c-2.455,-1.98 -11.983,-6.969 -13.132,-8.617c-1.148,-1.646 -2.264,-2.232 -3.557,-2.828c-1.291,-0.596 -3.3,-0.965 -3.778,-1.959c-0.477,-0.995 -0.317,-2.396 -1.205,-2.266c-0.888,0.13 -4.318,-0.047 -4.701,0.55c-0.384,0.598 -3.481,9.342 -3.749,11.092c-0.266,1.749 -0.555,10.727 -0.946,11.5c-0.394,0.774 -0.726,2.079 -0.956,3.124c-0.231,1.047 -0.202,2.195 -0.827,2.34c-0.625,0.144 -0.492,2.708 -0.63,3.669c-0.138,0.964 0.142,4.063 -0.367,5.36c-0.507,1.296 -2.94,7.431 -2.016,11.71c0.925,4.28 4.242,8.33 3.442,8.464c-0.802,0.137 -1.971,0.605 -2.939,0.555c-0.968,-0.05 -4.128,-0.302 -4.157,-1.449c-0.029,-1.148 -0.088,-5.119 -0.661,-4.267c-0.573,0.852 -1.049,1.533 -1.453,0.807c-0.404,-0.726 -0.346,-3.545 0.519,-4.91c0.864,-1.366 1.469,-2.835 2.141,-7.296c0.671,-4.462 1.297,-8.045 1.494,-10.151c0.198,-2.106 0.547,-3.762 0.268,-5.188c-0.278,-1.425 0.085,-5.02 0.055,-6.169c-0.028,-1.147 -0.545,-9.903 -0.589,-12.462c-0.044,-2.559 1.192,-7.698 0.198,-7.22c-0.996,0.477 -16.567,1.524 -19.683,0.393c-3.116,-1.132 -4.995,-2.286 -5.541,-1.962c-0.546,0.324 -3.585,2.812 -5.653,7.025c-2.07,4.214 -5.44,8.007 -6.596,9.887c0,0 -3.202,5.654 -3.205,7.416c-0.003,1.764 0.535,8.404 3.467,16.491c2.932,8.087 2.522,9.212 4.773,11.709c1.003,1.113 3.363,6.187 2.215,6.216c-1.103,0.028 -3.152,0.091 -4.124,0.13c-0.884,0.034 -0.203,-1.985 -1.461,-2.707c-1.377,-0.79 -4.637,1.148 -4.191,-2.355c0.124,-0.975 -0.202,-1.473 -0.165,-3.624c0.043,-2.555 -3.73,-14.829 -4.837,-17.266c-1.108,-2.438 -2.145,-5.818 -3.27,-8.37c-1.405,-3.183 -3.507,-4.549 -2.566,-6.657c0.388,-0.865 4.205,-6.306 5.842,-8.954c1.636,-2.648 2.85,-5.673 2.919,-6.991c-0,-0 0.187,-1.929 -0.83,-1.012c-1.018,0.917 -7.177,5.8 -8.606,6.166c-1.43,0.367 -9.052,6.233 -9.963,6.804c-0.912,0.57 -4.138,-0.125 -7.133,8.359c-2.996,8.484 -5.701,21.571 -7.054,23.882c-1.355,2.31 -4.131,8.25 -5.852,9.131c-1.721,0.881 -2.193,1.474 -2.559,0.044c-0.368,-1.429 0.273,-5.275 0.952,-6.475c0.679,-1.199 2.385,-1.815 1.533,-2.389c-0.851,-0.573 -1.394,-2.013 -0.396,-2.579c1,-0.565 1.812,-2.639 2.461,-3.223c0.647,-0.582 3.384,-7.495 3.919,-10.994c0.534,-3.498 0.973,-5.977 1.857,-8.632c1.878,-5.635 0.873,-11.772 3.049,-12.426Z" style="fill-rule:nonzero;"/>
    </g>
  </g>
  <path d="M760.489,600c-61.802,383.533 -390.489,398 -410.489,233c-110.378,123.682 -151.205,336 -16,453c49.949,214.411 276.176,266.526 653,165c-241.938,87.414 -357.715,-135.105 -226.511,-851Z" style="fill:none;stroke:#737373;stroke-width:4.17px;stroke-linecap:round;"/>
</svg>
