<?xml version="1.0" encoding="UTF-8" standalone="no"?>
<!DOCTYPE svg PUBLIC "-//W3C//DTD SVG 1.1//EN" "http://www.w3.org/Graphics/SVG/1.1/DTD/svg11.dtd">
<svg width="100%" height="100%" viewBox="0 0 1688 2200" version="1.1" xmlns="http://www.w3.org/2000/svg" xmlns:xlink="http://www.w3.org/1999/xlink" xml:space="preserve" xmlns:serif="http://www.serif.com/" style="fill-rule:evenodd;clip-rule:evenodd;stroke-linecap:round;stroke-linejoin:round;stroke-miterlimit:1.5;">
  <rect id="FIGHT-TO-FAIL" x="0" y="0" width="1688" height="2200" style="fill:none;"/>
  <g id="S">
    <g id="Root-Markers" serif:id="Root Markers">
      <path id="_0" serif:id="0" d="M845.354,626.527l36.3,100.833l-72.599,-0l36.299,-100.833Zm0,56.32l9.158,25.436c-0,0 -18.315,0 -18.315,0l9.157,-25.436Z"/>
    </g>
    <g id="Ring">
      <path d="M1255.43,1233c-130.888,226.701 -421.195,304.499 -647.884,173.623c-226.688,-130.876 -304.465,-421.183 -173.577,-647.884c130.889,-226.701 421.196,-304.499 647.884,-173.623c226.688,130.876 304.466,421.183 173.577,647.884Z" style="fill:none;stroke:#000;stroke-width:10px;"/>
      <path d="M1255.43,1233l-26.257,-15.159" style="fill:none;stroke:#000;stroke-width:10px;"/>
      <path d="M460.231,773.897l-26.258,-15.159" style="fill:none;stroke:#000;stroke-width:10px;"/>
      <path d="M622.71,1380.37l-15.16,26.257" style="fill:none;stroke:#000;stroke-width:10px;"/>
      <path d="M1081.86,585.115l-15.16,26.257" style="fill:none;stroke:#000;stroke-width:10px;"/>
      <path d="M1081.85,1406.6l-15.16,-26.256" style="fill:none;stroke:#000;stroke-width:10px;"/>
      <path d="M622.72,611.389l-15.16,-26.257" style="fill:none;stroke:#000;stroke-width:10px;"/>
      <path d="M460.201,1217.86l-26.257,15.159" style="fill:none;stroke:#000;stroke-width:10px;"/>
      <path d="M1255.46,758.721l-26.258,15.159" style="fill:none;stroke:#000;stroke-width:10px;"/>
      <path d="M844.704,1470.16l-0,-30.319" style="fill:none;stroke:#000;stroke-width:10px;"/>
      <path d="M844.704,551.892l-0,-30.319" style="fill:none;stroke:#000;stroke-width:10px;"/>
      <path d="M400.736,995.868l-30.319,0" style="fill:none;stroke:#000;stroke-width:10px;"/>
      <path d="M1318.99,995.868l-30.32,0" style="fill:none;stroke:#000;stroke-width:10px;"/>
    </g>
    <g id="Notes">
      <path id="_6" sound="3F-Mid-Gb" serif:id="6" d="M913.712,1512.34c-21.99,38.086 -70.763,51.154 -108.85,29.166c-38.087,-21.989 -51.155,-70.762 -29.166,-108.848c21.989,-38.086 70.763,-51.154 108.85,-29.166c38.086,21.989 51.155,70.762 29.166,108.848Z" style="stroke:#fff;stroke-width:24px;"/>
      <path id="_3" sound="3F-Mid-Eb" serif:id="3" d="M1386.1,1040.32c-21.989,38.086 -70.763,51.154 -108.849,29.166c-38.087,-21.989 -51.156,-70.762 -29.167,-108.848c21.99,-38.086 70.764,-51.154 108.85,-29.165c38.087,21.988 51.156,70.761 29.166,108.847Z" style="stroke:#fff;stroke-width:24px;"/>
      <path id="_01" sound="3F-Low-C" serif:id="0" d="M913.712,566.597c-21.99,38.086 -70.763,51.155 -108.85,29.166c-38.087,-21.989 -51.155,-70.762 -29.166,-108.848c21.989,-38.085 70.763,-51.154 108.85,-29.165c38.086,21.989 51.155,70.762 29.166,108.847Z" style="stroke:#fff;stroke-width:24px;"/>
    </g>
    <g id="Treble-Marker" serif:id="Treble Marker">
      <g id="_8" sound="3F-High-Ab" serif:id="8">
        <path id="_8u" serif:id="8u" d="M504.492,1277.29c-21.989,38.086 -70.763,51.155 -108.849,29.166c-38.087,-21.989 -51.156,-70.762 -29.167,-108.848c21.99,-38.085 70.764,-51.154 108.85,-29.165c38.087,21.989 51.156,70.762 29.166,108.847Z" style="fill:#fff;stroke:#fff;stroke-width:33.33px;"/>
        <circle id="_8a" serif:id="8a" cx="435.484" cy="1237.45" r="64" style="fill:#fff;stroke:#000;stroke-width:16.67px;"/>
      </g>
    </g>
  </g>
	<a xlink:href="FIGHTFAIL.svg">
  <g id="NEXTLINK">
    <path d="M914,1895c0,-19.317 -15.683,-35 -35,-35l-70,0c-19.317,0 -35,15.683 -35,35l0,78c0,19.317 15.683,35 35,35l70,0c19.317,0 35,-15.683 35,-35l0,-78Z" style="fill:#fff;"/>
    <path id="next" d="M814.167,1896.5c-0.2,-1.733 -0.4,-7.2 -0.4,-11.067c-0,-0.8 0.066,-1.6 0.066,-2.2l0,-0.266c0,-3.067 -1.6,-5.734 -2.533,-6.867c-0.933,-1.2 -2.933,-2.333 -5.533,-2.4l-0.467,0c-2.2,0 -3.533,0.8 -5.8,2.933c-0.933,0.867 -1.667,1.134 -2.133,1.2c-0.4,0 -0.6,-0.2 -0.734,-0.4c-0.133,-0.333 -0.2,-0.733 -0.2,-1.133c0,-0.4 0,-0.733 0.067,-1.067c0,-1.133 -1.067,-1.333 -1.867,-1.333c-0.733,0 -2,0.067 -2.266,0.667c-0.067,0.2 -0.134,0.466 -0.134,0.8c0.067,0.4 0.134,0.733 0.134,1.2c0.133,1.866 0.933,6.066 0.933,8.8c0,2.733 -0.133,6.066 -0.667,10.466c-0.133,0.8 -0.133,1.4 -0.133,1.934c0,1.933 0.667,2.333 2.2,2.333c0.2,0 0.467,-0.067 0.8,-0.067c1.333,-0.066 1.6,-0.466 1.667,-0.666l-0,-0.467c-0,-0.467 -0.067,-1 -0.134,-1.333c-0.266,-1.467 -0.533,-6.8 -0.533,-9.134c0,-2.2 0.333,-5.866 1.733,-7.8c1.467,-2 3.667,-3.133 5.667,-3.133l0.933,0c0.4,0 0.867,0 1.267,0.133c0.733,0.134 1.4,0.534 2.333,1.267c1.134,0.867 1.6,2 1.8,3.4c0.134,0.8 0.134,1.733 0.134,2.733l-0,2.134c-0,3.8 -0.534,5.933 -0.8,9.666c-0,0.267 -0.067,0.6 -0.067,0.8c0,2.467 1.133,2.534 3.133,2.534c1.4,-0 1.734,-0.734 1.734,-1.8c-0,-0.6 -0.134,-1.267 -0.2,-1.867Z" style="fill-rule:nonzero;"/>
    <path d="M848.167,1886.7c-0,-0.067 0.066,-0.133 0.066,-0.267c0,-0.066 -0.066,-0.266 -0.066,-0.466l-0.267,-1.4c-0.467,-2.134 -2.8,-5.667 -4.533,-7.734c-1.734,-1.866 -5.067,-3 -7.867,-3.133l-0.733,0c-2.867,0 -5.134,1.4 -7.467,2.933l-0.533,0.334c-2.534,1.533 -4.334,6.6 -4.467,10.6l0,0.2c0,3.8 2.867,8 5.133,10.533c2.2,2.333 6.734,2.4 9,2.4c2.134,0 3.867,-0.533 5,-1.133c0.467,-0.267 1.134,-0.8 1.934,-1.467c0.733,-0.667 1.533,-1.333 2.4,-2c0.666,-0.467 1,-1 1,-1.533c-0,-0.6 -0.334,-1.2 -1.334,-2c-0.333,-0.267 -0.666,-0.4 -0.866,-0.4c-0.334,-0 -0.534,0.2 -0.8,0.4c-0.467,0.533 -0.8,1.2 -1.067,1.866c-0.533,1.2 -3.2,2.534 -6.533,2.534l-0.534,-0c-2.2,-0.067 -4.066,-0.734 -5.733,-2.067l-1,-0.8c-1.067,-0.933 -2.133,-3.6 -2.133,-5.267l-0,-0.466c0.2,-0.8 1.8,-1.267 3.8,-1.334c1.666,0 3.533,0.067 4.533,0.067c1.4,0 5.267,0.067 8.267,0.067c1.533,-0 2.866,-0 3.6,-0.067c1.133,0 1.2,-0.267 1.2,-0.4Zm-4.734,-4.4c0.2,0.333 0.267,0.6 0.267,0.867c0,0.733 -0.6,1.2 -1.8,1.2c-2.6,-0 -5.467,0.066 -6.6,0.066c-1.2,0 -4.733,-0.066 -5.467,-0.266c-0.733,-0.067 -2.333,-0.934 -2.333,-2.134c0,-0.4 0.133,-0.8 0.467,-1.2c1.066,-1.466 4,-3.466 7.466,-3.466l0.267,-0c3.133,0.133 4.2,1.066 5.733,2.533c0.667,0.667 1.6,1.533 2,2.4Z" style="fill-rule:nonzero;"/>
    <path d="M877.633,1899.3c-0.133,-1.467 -1.866,-2.933 -2.933,-3.8c-0.867,-0.733 -1.667,-1.667 -2.467,-2.6c-0.733,-0.933 -1.4,-1.867 -1.866,-2.4c-0.534,-0.533 -1.2,-1.067 -1.8,-1.733c-0.534,-0.667 -1.067,-1.4 -1.067,-2.334l0,-0.266c0.067,-1.4 2.067,-3 3.133,-4c0.4,-0.334 0.667,-0.667 0.867,-0.934c0.333,-0.666 1.067,-1.466 1.867,-2.333l2.533,-3.067c0.4,-0.466 0.667,-0.8 0.667,-1c-0,-0.066 -0.067,-0.066 -0.067,-0.133c-0.2,-0.133 -0.467,-0.2 -0.933,-0.267l-1.4,-0.133c-0.267,0 -0.467,-0.067 -0.667,-0.067c-1.333,0 -2.133,0.534 -2.733,1.934c-0.467,0.933 -1,1.733 -1.534,2.4c-0.466,0.733 -1,1.4 -1.4,2.2c-0.866,1.933 -1.733,3 -2.933,3c-0.667,-0 -1.4,-0.6 -1.933,-1.467c-0.467,-0.733 -0.934,-1.6 -1.4,-2.267l-1.467,-2.066c-0.533,-0.734 -1,-1.534 -1.267,-2.2c-0.4,-1 -1.666,-1.6 -3.2,-1.667c-0.666,0 -1.666,0.067 -1.666,0.867c-0,0.466 0.466,1.133 0.666,1.4c0.667,0.733 2.6,3.4 4.667,5.866c1.067,1.2 1.733,1.867 2.2,2.467c0.4,0.667 0.667,1.2 0.667,2.133c-0,1.4 -0.934,2.534 -1.667,3.334l-2.467,2.666c-0.533,0.6 -1.533,1.667 -2.533,2.867l-3.067,3.133c-0.266,0.267 -0.466,0.4 -0.466,0.534c-0,0.066 0.066,0.066 0.2,0.066c0.266,0.067 0.666,0.134 1.133,0.134c0.533,0.066 1.133,0.066 1.733,0.066c1.134,0 1.534,-0.2 1.8,-0.466c0.267,-0.067 0.334,-0.267 0.6,-0.534l0.8,-0.933c0.6,-0.667 1.2,-1.467 1.734,-2.267l0.2,-0.2c0.466,-0.666 0.933,-1.333 1.466,-1.933c0.534,-0.533 0.867,-1.267 1.267,-1.867c0.533,-0.666 1.2,-1.333 2.267,-1.333c1.533,0 2.333,1.667 3,2.867l0.066,0.266c0.267,0.467 0.334,0.734 0.467,0.867c0.667,0.8 2,2.667 3.467,4.867c0.666,1 1.066,1.133 1.4,1.133c0.266,0 0.6,0 0.866,-0.067c0.334,-0.066 0.734,-0.2 1.134,-0.2l0.533,0c0.867,0 1.4,-0.066 1.533,-0.533Z" style="fill-rule:nonzero;"/>
    <path d="M896.433,1876.1c0,-0.533 -0.266,-0.733 -0.8,-0.933c-0.333,-0.067 -0.733,-0.067 -1.133,-0.067c-0.467,0 -0.867,-0.067 -1.333,-0.067l-1.134,-0.133c-0.333,0 -0.6,-0.067 -0.866,-0.133c-0.6,-0.2 -1,-0.667 -1,-1.334c-0,-0.933 -0,-2.533 0.133,-5.133l0,-0.267c0,-1 -0.2,-1.333 -0.4,-1.466c-0.333,-0.267 -1,-0.267 -1.4,-0.267l-0.2,0c-1,0 -1.6,0.8 -1.667,1.2c0,0.067 -0.066,0.2 -0.066,0.267c-0,0.333 0.066,0.866 0.133,1.533c0.133,0.867 0.267,2 0.267,3.133l-0,0.334c-0,1.2 -0.534,1.866 -1.4,2.066c-0.267,0.067 -0.534,0.067 -0.8,0.067c-0.467,0 -1.067,-0.067 -1.534,-0.067c-0.933,0 -1.466,0.6 -1.666,2.6c-0,0.067 -0.067,0.134 -0.067,0.2c0,0.4 0.267,0.534 0.8,0.667c0.333,0.067 0.667,0.067 1,0.067c0.333,-0 0.667,-0.067 0.933,-0.067c1.067,0 2.467,0.8 2.467,2.267c0,1.066 0.2,3.4 0.2,6.4c0,3 -0.4,8.733 -0.4,11.333c0,1.267 0.2,1.6 0.4,1.733l0.533,0.134l1.2,-0c1.667,-0 2.2,-0.2 2.2,-1.067l0,-0.467c-0.2,-1.866 -0.533,-6.666 -0.6,-9.466c-0.066,-0.934 -0.133,-2.067 -0.133,-3.2c0,-2.2 0.133,-4.467 0.2,-5.934c0.067,-1.466 0.933,-2.066 2,-2.133l0.2,0c0.8,0 1.533,0.2 2.333,0.267l0.267,-0c0.867,-0 1.333,-0.467 1.333,-2.067Z" style="fill-rule:nonzero;"/>
    <circle cx="824" cy="1958" r="40" style="fill:#fff;stroke:#000;stroke-width:12.5px;"/>
    <circle cx="864" cy="1958" r="40" style="fill:none;stroke:#000;stroke-width:12.5px;"/>
  </g>
	</a>
  <g id="Header">
    <path id="Lyric-Text" serif:id="Lyric Text" d="M275.333,241.433c0.2,-0.333 0.267,-0.533 0.267,-0.666c-0,-0.267 -0.2,-0.334 -0.4,-0.4c-0.267,-0.134 -0.667,-0.2 -1.067,-0.267l-1,-0.067c-0.2,0 -0.533,-0.066 -0.8,-0.066c-0.6,-0 -1.2,0.133 -1.266,0.6c-0.134,1.2 -2.067,5.533 -2.8,7.133c-0.734,1.533 -2.334,5.533 -2.867,7.067c-0.533,1.733 -1.467,4 -2.933,4.4c-0.2,0.066 -0.4,0.133 -0.534,0.133c-0.666,0 -1.066,-0.467 -1.333,-1.067c-0,-0.266 -0.133,-0.6 -0.2,-1c-0.067,-0.333 -0.133,-0.733 -0.2,-1.066c-0.2,-0.734 -0.6,-1.467 -1.067,-2.467c-0.533,-0.933 -1.066,-2 -1.533,-3.2c-0.933,-2.4 -2.467,-5.867 -3.333,-8.4c-0.867,-2.133 -1.534,-2.267 -3.734,-2.467l-0.466,0c-1,0 -1.4,0.4 -1.4,0.867c-0,0.933 0.933,2.133 1.4,2.6c0.6,0.667 1.333,2.133 2.133,3.6c0.733,1.467 1.6,3.067 2.4,4.333c0.333,0.667 0.733,1.4 1.067,2.2l0.933,2.4c0.667,1.6 1.267,3.134 2.2,4.2c1.2,1.467 1.667,2.867 1.667,4l-0,0.267c-0,0.733 -0.2,1.4 -0.4,1.867c-0.534,0.866 -1.267,2.133 -2.067,4.466c-0.4,1.2 -1.067,2.334 -1.667,3.334c-0.6,1 -1.2,1.933 -1.733,3c-0.2,0.333 -0.333,0.666 -0.333,0.8c-0,0.8 1,0.8 2.666,0.933c0.134,0 0.334,0.067 0.467,0.067c0.8,-0 1.133,-0.267 1.333,-0.534c0.2,-0.266 0.334,-0.533 0.467,-0.933l0.467,-1.333c0.4,-1 0.733,-2 1.066,-2.934c0.4,-1 0.8,-2 1.334,-3c1.066,-2 2.866,-7.4 4.2,-9.933c1.266,-2.467 3,-6.733 4,-8.8c1,-2.067 3.8,-7.467 5.066,-9.667Z" style="fill-rule:nonzero;"/>
    <path d="M308.267,253.167l-0,-0.334c-0,-4.533 -2.134,-7.933 -4.134,-10.066c-2,-2.067 -5.266,-3.734 -9,-3.867l-0.333,0c-6.067,0 -8.733,2.533 -10.667,4.533c-2,2 -3.533,5 -3.533,9.267c-0,4.267 2.533,8.4 4.6,10.267c2,1.8 5,3.133 8.867,3.133l0.4,0c4.133,-0.133 7.333,-0.667 10.2,-3.733c2.866,-3.2 3.6,-4.334 3.6,-9.2Zm-3.8,-0.734c-0,2.534 -0.934,6 -2.6,7.267c-0.4,0.2 -0.8,0.533 -1.334,0.867c-1.666,1.133 -3.533,2 -5.533,2c-0.267,-0 -0.533,-0 -0.867,-0.067c-3.2,-0.4 -4.733,-1.067 -6.666,-3.333c-1.934,-2.134 -2.534,-3.867 -2.534,-6.6c0,-2.667 0.467,-5.2 3.134,-7.2c2.6,-1.934 4.666,-2.2 6.8,-2.2c3.4,-0 5.866,0.933 7.266,3.4c0.667,1.133 1.267,1.866 1.667,2.733c0.333,0.867 0.667,1.8 0.667,3.133Z" style="fill-rule:nonzero;"/>
    <path d="M338.4,242.567c0.067,-0.467 0.067,-0.8 0.067,-1.134c-0,-1.333 -0.467,-1.8 -2.4,-1.933l-0.334,0c-1.466,0 -1.8,0.6 -1.8,1.6c0,0.333 0,0.667 0.067,1.067c0.133,1.6 0.4,6.8 0.533,10.2c0,0.533 0.067,1.066 0.067,1.6c-0,2.6 -0.4,4.666 -1.6,6.133c-1.4,1.933 -2.8,2 -4.867,2.067l-0.2,-0c-0.466,0.066 -0.933,0.066 -1.333,0.066c-1.6,0 -2.867,-0.333 -4.133,-2.133c-0.8,-1 -1.2,-2.333 -1.4,-3.8c-0.134,-1.4 -0.2,-3.133 -0.267,-5.067c-0.067,-1.6 -0.067,-2.8 -0.067,-3.933c0,-1.533 0.067,-2.867 0.2,-4.867l0,-1.2c0,-0.733 -0.066,-1 -0.133,-1.133c-0.067,0 -0.2,-0.067 -0.467,-0.133c-0.266,-0 -0.666,-0 -1.066,-0.067l-0.467,0c-1.533,0 -1.867,0.533 -1.867,1.133c0,1.4 0.334,2.8 0.334,4.734c-0,1.8 0.066,8.2 0.066,11c0,2.666 1.467,5.333 3.6,6.933c2,1.533 5.534,1.933 7.667,1.933c2.067,0 5.2,-1.333 8,-4.133c1.267,-1.267 1.667,-3.267 1.667,-5.333c-0,-2.067 -0.334,-4.067 -0.334,-5.2c0,-2.2 0.2,-6.2 0.467,-8.4Z" style="fill-rule:nonzero;"/>
    <path d="M380.667,239.833c-0.467,-0.2 -2.067,-0.733 -3.867,-0.733c-1.8,0 -4.267,1.6 -5.133,3.267c-0.2,0.4 -0.467,0.8 -0.8,1c-0.2,0.066 -0.334,0.066 -0.4,0.066c-0.334,0 -0.6,-0.2 -0.734,-0.4c-0.2,-0.4 -0.266,-0.933 -0.266,-1.466l-0,-0.467c-0,-1.133 -1.2,-1.6 -2.067,-1.6c-1.667,0 -1.867,0.533 -1.933,0.867c-0,0.066 -0.067,0.133 -0.067,0.266c-0,0.2 0.067,0.534 0.133,0.867c0.067,0.467 0.134,1 0.2,1.467c0.134,2.2 0.134,7.133 0.134,10.066c-0,2.867 -0.134,5.867 -0.6,9.734c-0.067,0.666 -0.067,1.2 -0.067,1.533c-0,0.4 0.067,0.6 0.333,0.733c0.134,0.067 0.4,0.067 1,0.067c0.534,-0.067 1.2,-0.133 2,-0.133c1.667,-0 2.067,-1.134 2.067,-2.4c-0,-0.934 -0.267,-2 -0.4,-2.8c-0.267,-1.334 -0.333,-3.8 -0.333,-6.267c-0,-1.333 -0,-2.6 0.066,-3.733c0.2,-3.6 2.6,-5.6 4.867,-6.134c0.867,-0.2 1.467,-0.266 2.067,-0.266c0.8,-0 1.333,0.133 2.2,0.466c0.133,0 0.333,0.2 0.466,0.2c0.2,0 0.267,-0.066 0.334,-0.266c0.133,-0.067 0.266,-0.334 0.333,-0.667c0.2,-0.333 0.333,-0.733 0.467,-1.2c0.2,-0.667 0.333,-1.133 0.333,-1.4c-0,-0.333 -0.133,-0.533 -0.333,-0.667Z" style="fill-rule:nonzero;"/>
    <path d="M409.733,242.567c0.067,-0.467 0.067,-0.8 0.067,-1.134c-0,-1.333 -0.467,-1.8 -2.4,-1.933l-0.333,0c-1.467,0 -1.8,0.6 -1.8,1.6c-0,0.333 -0,0.667 0.066,1.067c0.134,1.6 0.4,6.8 0.534,10.2c-0,0.533 0.066,1.066 0.066,1.6c0,2.6 -0.4,4.666 -1.6,6.133c-1.4,1.933 -2.8,2 -4.866,2.067l-0.2,-0c-0.467,0.066 -0.934,0.066 -1.334,0.066c-1.6,0 -2.866,-0.333 -4.133,-2.133c-0.8,-1 -1.2,-2.333 -1.4,-3.8c-0.133,-1.4 -0.2,-3.133 -0.267,-5.067c-0.066,-1.6 -0.066,-2.8 -0.066,-3.933c-0,-1.533 0.066,-2.867 0.2,-4.867l-0,-1.2c-0,-0.733 -0.067,-1 -0.134,-1.133c-0.066,0 -0.2,-0.067 -0.466,-0.133c-0.267,-0 -0.667,-0 -1.067,-0.067l-0.467,0c-1.533,0 -1.866,0.533 -1.866,1.133c-0,1.4 0.333,2.8 0.333,4.734c-0,1.8 0.067,8.2 0.067,11c-0,2.666 1.466,5.333 3.6,6.933c2,1.533 5.533,1.933 7.666,1.933c2.067,0 5.2,-1.333 8,-4.133c1.267,-1.267 1.667,-3.267 1.667,-5.333c-0,-2.067 -0.333,-4.067 -0.333,-5.2c-0,-2.2 0.2,-6.2 0.466,-8.4Z" style="fill-rule:nonzero;"/>
    <path d="M434.533,257.567c0,-2.134 -1.466,-3.734 -2.8,-5.067c-1.066,-1.067 -5.133,-3.267 -6.533,-3.933c-1.533,-0.667 -3,-1.8 -3,-3.467c-0,-1.667 1.333,-2.333 3,-2.333l0.6,-0c2.133,0.066 3.267,0.8 4.867,2.133c0.533,0.467 0.8,0.533 0.933,0.533c0.2,0 0.333,-0.133 0.467,-0.266l0.466,-0.534c0.134,-0.2 0.334,-0.4 0.4,-0.6c0.2,-0.266 0.267,-0.533 0.267,-0.733c-0,-0.267 -0.067,-0.533 -0.333,-0.867c-0.934,-1 -3.667,-2.866 -7.667,-3l-0.467,0c-1.133,0 -1.733,0.134 -2.2,0.334c-0.533,0.266 -0.933,0.666 -1.333,1.066c-0.933,0.734 -2.067,2.067 -2.2,3.6c-0,0.267 -0.067,0.534 -0.067,0.734c0,1.533 0.334,2.8 1.267,4c1.067,1.466 3.467,2.933 6,4c2.667,1.066 5.2,3.133 5.2,5.333c-0,2.267 -1.867,3.6 -4.8,3.8c-0.2,0 -0.4,0.067 -0.533,0.067c-2.867,-0 -4.867,-2.4 -5.334,-3.334c-0.133,-0.466 -0.666,-0.733 -1.066,-0.733c-0.267,0 -0.667,0.133 -1.134,0.2c-1,0.267 -1.333,1.067 -1.333,1.867c-0,0.266 -0,0.6 0.2,0.866c0.467,0.867 2.2,2.2 3.8,3.2c1.467,0.8 4.067,1.334 5.867,1.334c1.6,-0 3.533,-1.2 5.266,-2.334c1.467,-1 2.134,-3.666 2.2,-5.866Z" style="fill-rule:nonzero;"/>
    <path d="M465.133,263.433l0,-0.4c0,-0.533 -0.066,-1 -0.133,-1.533c-0.133,-1.133 -0.2,-4.333 -0.2,-7.133c-0,-1.8 -0,-3.534 0.067,-4.534l-0,-0.466c-0,-2.467 -0.734,-5.534 -1.867,-7.267c-1.133,-1.733 -4.467,-2.867 -6.2,-3c-0.333,0 -0.733,-0.067 -1.133,-0.067c-1.534,0 -3.267,0.334 -5.134,1.734c-0.933,0.733 -1.6,1 -2.066,1c-0.4,-0 -0.6,-0.134 -0.8,-0.334c-0.4,-0.4 -0.4,-1.133 -0.467,-1.666c-0.2,-0.6 -0.267,-1.267 -0.267,-2.067c0,-0.867 0.067,-1.8 0.2,-3c0.267,-2.333 0.534,-6.267 0.667,-10.133l-0,-0.4c-0,-1.667 -0.333,-2.134 -0.6,-2.4c-0.2,-0.2 -0.4,-0.267 -0.8,-0.334l-1.6,0c-1.533,0 -2,0.667 -2,1.867c-0,1.733 -0,4.933 0.2,8.933c0.267,4.067 0.467,13.467 0.467,16.067c-0,2.6 -0.2,11.4 -0.4,14.133c-0.067,0.534 -0.134,1 -0.134,1.334c0,1.133 0.467,1.4 2.334,1.6l0.4,-0c1.533,-0 1.8,-0.734 1.8,-1.6c-0,-0.267 -0.067,-0.534 -0.067,-0.8c-0.067,-0.8 -0.133,-3.334 -0.133,-6.067c-0,-2.733 0.066,-5.667 0.133,-7.133c0.2,-3.334 1.867,-4.734 3.067,-5.667c1.333,-1 3.8,-1.6 4.933,-1.6c0.2,0 0.533,0 0.867,0.067c1.333,0.066 2.333,0.6 3.333,1.733c1.333,1.6 1.4,3.8 1.4,5.867l-0,0.866c-0,2 -0.467,8.667 -0.733,11c-0.067,0.4 -0.067,0.8 -0.067,1.134c-0,1.333 0.467,2 2.733,2.2l0.4,-0c1.134,-0 1.534,-0.467 1.667,-1c0.067,-0.267 0.133,-0.6 0.133,-0.934Z" style="fill-rule:nonzero;"/>
    <path d="M504.2,241.433c-0,-0.533 -0.267,-0.733 -0.8,-0.933c-0.333,-0.067 -0.733,-0.067 -1.133,-0.067c-0.467,0 -0.867,-0.066 -1.334,-0.066l-1.133,-0.134c-0.333,0 -0.6,-0.066 -0.867,-0.133c-0.6,-0.2 -1,-0.667 -1,-1.333c0,-0.934 0,-2.534 0.134,-5.134l-0,-0.266c-0,-1 -0.2,-1.334 -0.4,-1.467c-0.334,-0.267 -1,-0.267 -1.4,-0.267l-0.2,0c-1,0 -1.6,0.8 -1.667,1.2c-0,0.067 -0.067,0.2 -0.067,0.267c0,0.333 0.067,0.867 0.134,1.533c0.133,0.867 0.266,2 0.266,3.134l0,0.333c0,1.2 -0.533,1.867 -1.4,2.067c-0.266,0.066 -0.533,0.066 -0.8,0.066c-0.466,0 -1.066,-0.066 -1.533,-0.066c-0.933,-0 -1.467,0.6 -1.667,2.6c0,0.066 -0.066,0.133 -0.066,0.2c-0,0.4 0.266,0.533 0.8,0.666c0.333,0.067 0.666,0.067 1,0.067c0.333,0 0.666,-0.067 0.933,-0.067c1.067,0 2.467,0.8 2.467,2.267c-0,1.067 0.2,3.4 0.2,6.4c-0,3 -0.4,8.733 -0.4,11.333c-0,1.267 0.2,1.6 0.4,1.734l0.533,0.133l1.2,0c1.667,0 2.2,-0.2 2.2,-1.067l-0,-0.466c-0.2,-1.867 -0.533,-6.667 -0.6,-9.467c-0.067,-0.933 -0.133,-2.067 -0.133,-3.2c-0,-2.2 0.133,-4.467 0.2,-5.933c0.066,-1.467 0.933,-2.067 2,-2.134l0.2,0c0.8,0 1.533,0.2 2.333,0.267l0.267,0c0.866,0 1.333,-0.467 1.333,-2.067Z" style="fill-rule:nonzero;"/>
    <path d="M536.8,253.167l-0,-0.334c-0,-4.533 -2.133,-7.933 -4.133,-10.066c-2,-2.067 -5.267,-3.734 -9,-3.867l-0.334,0c-6.066,0 -8.733,2.533 -10.666,4.533c-2,2 -3.534,5 -3.534,9.267c0,4.267 2.534,8.4 4.6,10.267c2,1.8 5,3.133 8.867,3.133l0.4,0c4.133,-0.133 7.333,-0.667 10.2,-3.733c2.867,-3.2 3.6,-4.334 3.6,-9.2Zm-3.8,-0.734c-0,2.534 -0.933,6 -2.6,7.267c-0.4,0.2 -0.8,0.533 -1.333,0.867c-1.667,1.133 -3.534,2 -5.534,2c-0.266,-0 -0.533,-0 -0.866,-0.067c-3.2,-0.4 -4.734,-1.067 -6.667,-3.333c-1.933,-2.134 -2.533,-3.867 -2.533,-6.6c-0,-2.667 0.466,-5.2 3.133,-7.2c2.6,-1.934 4.667,-2.2 6.8,-2.2c3.4,-0 5.867,0.933 7.267,3.4c0.666,1.133 1.266,1.866 1.666,2.733c0.334,0.867 0.667,1.8 0.667,3.133Z" style="fill-rule:nonzero;"/>
    <path d="M576.467,265.033c0.533,-0.333 1,-0.733 1.333,-1.066c0.333,-0.4 0.667,-0.734 1,-0.934c0.4,-0.4 0.867,-0.6 1.333,-0.6c0.667,0 1.267,0.534 1.267,1.334c-0,0.2 -0,0.4 -0.067,0.6c0,0.066 -0.066,0.133 -0.066,0.2c-0,0.6 0.666,0.666 2.533,0.8l0.333,-0c1,-0 1.2,-0.267 1.334,-0.534l-0,-13.133c-0,-2.2 -0.067,-4.533 -0.067,-6.667c-0,-1.066 -0,-2.066 0.067,-3l-0,-0.333c-0,-1.733 -0.867,-1.8 -2,-1.8l-0.667,0c-0.8,0 -1.2,0.067 -1.2,0.533c-0,0.334 0.067,0.6 0.067,0.8c-0,1.067 -0.4,2 -1.2,2.267c-0.134,0.067 -0.2,0.067 -0.334,0.067c-0.466,-0 -1.066,-0.334 -1.666,-0.867c-0.6,-0.533 -1.067,-1.133 -1.6,-1.667c-0.734,-0.933 -3.467,-1.733 -6,-1.733c-3.734,0 -8,2.4 -10.067,5.267c-1.467,2.133 -2,5.466 -2.267,8.2l0,0.533c0,2.6 1.534,6.8 3.2,8.867c1.734,2.2 4.667,4.2 9.6,4.2c2.4,-0 4,-0.6 5.134,-1.334Zm5.133,-12.266c-0.2,2.8 -1.133,6.133 -3.467,7.866c-1.8,1.4 -3.2,1.734 -5.266,1.734c-0.4,-0 -0.8,-0.067 -1.334,-0.067c-3,-0.2 -5.533,-1.533 -6.6,-3.267c-0.866,-1.6 -1.466,-3.666 -1.466,-6l-0,-0.6c0.133,-2.4 1.133,-6.466 2.4,-7.4c0.933,-0.733 3.8,-1.933 6.2,-1.933c0.4,0 0.8,0 1.2,0.067l1.533,0.333c0.267,0 0.267,0.067 0.333,0.067c0.4,0.133 1,0.2 1.4,0.4c1.2,0.4 2.334,1.133 3.2,2.6l1,1.733c0.067,0.467 0.467,0.933 0.667,1.333c0.2,0.534 0.333,1.134 0.333,1.8c0,0.4 -0.066,0.867 -0.133,1.334Z" style="fill-rule:nonzero;"/>
    <path d="M607.467,241.433c-0,-0.533 -0.267,-0.733 -0.8,-0.933c-0.334,-0.067 -0.734,-0.067 -1.134,-0.067c-0.466,0 -0.866,-0.066 -1.333,-0.066l-1.133,-0.134c-0.334,0 -0.6,-0.066 -0.867,-0.133c-0.6,-0.2 -1,-0.667 -1,-1.333c-0,-0.934 -0,-2.534 0.133,-5.134l0,-0.266c0,-1 -0.2,-1.334 -0.4,-1.467c-0.333,-0.267 -1,-0.267 -1.4,-0.267l-0.2,0c-1,0 -1.6,0.8 -1.666,1.2c-0,0.067 -0.067,0.2 -0.067,0.267c-0,0.333 0.067,0.867 0.133,1.533c0.134,0.867 0.267,2 0.267,3.134l-0,0.333c-0,1.2 -0.533,1.867 -1.4,2.067c-0.267,0.066 -0.533,0.066 -0.8,0.066c-0.467,0 -1.067,-0.066 -1.533,-0.066c-0.934,-0 -1.467,0.6 -1.667,2.6c-0,0.066 -0.067,0.133 -0.067,0.2c0,0.4 0.267,0.533 0.8,0.666c0.334,0.067 0.667,0.067 1,0.067c0.334,0 0.667,-0.067 0.934,-0.067c1.066,0 2.466,0.8 2.466,2.267c0,1.067 0.2,3.4 0.2,6.4c0,3 -0.4,8.733 -0.4,11.333c0,1.267 0.2,1.6 0.4,1.734l0.534,0.133l1.2,0c1.666,0 2.2,-0.2 2.2,-1.067l-0,-0.466c-0.2,-1.867 -0.534,-6.667 -0.6,-9.467c-0.067,-0.933 -0.134,-2.067 -0.134,-3.2c0,-2.2 0.134,-4.467 0.2,-5.933c0.067,-1.467 0.934,-2.067 2,-2.134l0.2,0c0.8,0 1.534,0.2 2.334,0.267l0.266,0c0.867,0 1.334,-0.467 1.334,-2.067Z" style="fill-rule:nonzero;"/>
    <path d="M626.4,241.433c-0,-0.533 -0.267,-0.733 -0.8,-0.933c-0.333,-0.067 -0.733,-0.067 -1.133,-0.067c-0.467,0 -0.867,-0.066 -1.334,-0.066l-1.133,-0.134c-0.333,0 -0.6,-0.066 -0.867,-0.133c-0.6,-0.2 -1,-0.667 -1,-1.333c0,-0.934 0,-2.534 0.134,-5.134l-0,-0.266c-0,-1 -0.2,-1.334 -0.4,-1.467c-0.334,-0.267 -1,-0.267 -1.4,-0.267l-0.2,0c-1,0 -1.6,0.8 -1.667,1.2c-0,0.067 -0.067,0.2 -0.067,0.267c0,0.333 0.067,0.867 0.134,1.533c0.133,0.867 0.266,2 0.266,3.134l0,0.333c0,1.2 -0.533,1.867 -1.4,2.067c-0.266,0.066 -0.533,0.066 -0.8,0.066c-0.466,0 -1.066,-0.066 -1.533,-0.066c-0.933,-0 -1.467,0.6 -1.667,2.6c0,0.066 -0.066,0.133 -0.066,0.2c-0,0.4 0.266,0.533 0.8,0.666c0.333,0.067 0.666,0.067 1,0.067c0.333,0 0.666,-0.067 0.933,-0.067c1.067,0 2.467,0.8 2.467,2.267c-0,1.067 0.2,3.4 0.2,6.4c-0,3 -0.4,8.733 -0.4,11.333c-0,1.267 0.2,1.6 0.4,1.734l0.533,0.133l1.2,0c1.667,0 2.2,-0.2 2.2,-1.067l-0,-0.466c-0.2,-1.867 -0.533,-6.667 -0.6,-9.467c-0.067,-0.933 -0.133,-2.067 -0.133,-3.2c-0,-2.2 0.133,-4.467 0.2,-5.933c0.066,-1.467 0.933,-2.067 2,-2.134l0.2,0c0.8,0 1.533,0.2 2.333,0.267l0.267,0c0.866,0 1.333,-0.467 1.333,-2.067Z" style="fill-rule:nonzero;"/>
    <path d="M648.867,265.033c0.533,-0.333 1,-0.733 1.333,-1.066c0.333,-0.4 0.667,-0.734 1,-0.934c0.4,-0.4 0.867,-0.6 1.333,-0.6c0.667,0 1.267,0.534 1.267,1.334c-0,0.2 -0,0.4 -0.067,0.6c0,0.066 -0.066,0.133 -0.066,0.2c-0,0.6 0.666,0.666 2.533,0.8l0.333,-0c1,-0 1.2,-0.267 1.334,-0.534l-0,-13.133c-0,-2.2 -0.067,-4.533 -0.067,-6.667c-0,-1.066 -0,-2.066 0.067,-3l-0,-0.333c-0,-1.733 -0.867,-1.8 -2,-1.8l-0.667,0c-0.8,0 -1.2,0.067 -1.2,0.533c-0,0.334 0.067,0.6 0.067,0.8c-0,1.067 -0.4,2 -1.2,2.267c-0.134,0.067 -0.2,0.067 -0.334,0.067c-0.466,-0 -1.066,-0.334 -1.666,-0.867c-0.6,-0.533 -1.067,-1.133 -1.6,-1.667c-0.734,-0.933 -3.467,-1.733 -6,-1.733c-3.734,0 -8,2.4 -10.067,5.267c-1.467,2.133 -2,5.466 -2.267,8.2l0,0.533c0,2.6 1.534,6.8 3.2,8.867c1.734,2.2 4.667,4.2 9.6,4.2c2.4,-0 4,-0.6 5.134,-1.334Zm5.133,-12.266c-0.2,2.8 -1.133,6.133 -3.467,7.866c-1.8,1.4 -3.2,1.734 -5.266,1.734c-0.4,-0 -0.8,-0.067 -1.334,-0.067c-3,-0.2 -5.533,-1.533 -6.6,-3.267c-0.866,-1.6 -1.466,-3.666 -1.466,-6l-0,-0.6c0.133,-2.4 1.133,-6.466 2.4,-7.4c0.933,-0.733 3.8,-1.933 6.2,-1.933c0.4,0 0.8,0 1.2,0.067l1.533,0.333c0.267,0 0.267,0.067 0.333,0.067c0.4,0.133 1,0.2 1.4,0.4c1.2,0.4 2.334,1.133 3.2,2.6l1,1.733c0.067,0.467 0.467,0.933 0.667,1.333c0.2,0.534 0.333,1.134 0.333,1.8c0,0.4 -0.066,0.867 -0.133,1.334Z" style="fill-rule:nonzero;"/>
    <path d="M687.2,263.7c-0,-0.267 -0,-0.533 -0.067,-0.933l-0.133,-1.334c-0.067,-1 -0.267,-1.4 -0.6,-1.4c-0.067,0 -0.267,0.067 -0.467,0.2c-1.2,0.867 -3.2,1.867 -5.933,1.867l-0.867,0c-3.066,-0.333 -4,-0.733 -6.266,-2.333c-2.467,-1.734 -2.934,-4.867 -2.934,-7.334c0,-2.666 0.8,-5.2 3.134,-7.066c2.4,-1.934 3.6,-2.134 6.266,-2.267l0.467,0c2.533,0 4.2,0.733 5.933,1.933c0.334,0.2 0.6,0.4 0.667,0.4c0.067,0 0.133,-0.066 0.2,-0.133c0.133,-0.2 0.133,-0.467 0.267,-0.867c0.066,-0.466 0.2,-1 0.2,-1.666c0.066,-0.267 0.066,-0.467 0.066,-0.667c0,-0.667 -0.2,-1 -0.4,-1.2c-0.266,-0.2 -0.466,-0.4 -0.733,-0.533c-0.333,-0.2 -0.667,-0.334 -0.933,-0.6c-1.067,-0.667 -2.8,-0.734 -6.4,-0.934l-0.267,0c-3.6,0 -6.867,2.067 -9.267,4.2c-2.133,2 -3.333,7 -3.333,9.8l-0,0.4c0.133,2.8 1,6.267 3.933,9.2c2.867,2.867 6,3.667 8.867,3.867l0.533,0c1.2,0 2.2,-0.2 3.2,-0.4c1.134,-0.267 2.2,-0.733 3.4,-1.133c1.267,-0.467 1.4,-0.8 1.467,-1.067Z" style="fill-rule:nonzero;"/>
    <path d="M718.667,264.167c-0,-0.734 -1.267,-1.334 -1.667,-1.667c-1.067,-0.8 -2.267,-1.667 -3.067,-2.267c-0.866,-0.666 -1.666,-1.6 -2.4,-2.466c-0.8,-0.934 -1.6,-1.8 -2.4,-2.467c-0.933,-0.733 -1.933,-1.467 -2.733,-2.2c-0.933,-0.867 -1.533,-1.667 -1.533,-2.333c-0,-0.534 0.933,-1.667 2.066,-2.8c1.067,-1 2.334,-2 3,-2.6c1.467,-1.334 4.867,-3.934 6.2,-5.134c0.134,-0.133 0.2,-0.266 0.2,-0.333c0,-0.133 -0.066,-0.133 -0.2,-0.267c-0.466,-0.266 -1.466,-0.533 -2.8,-0.533c-2.4,0 -3,0.867 -3.8,2c-0.533,0.667 -1.133,1.333 -1.933,2.133c-0.667,0.734 -1.533,1.534 -2.4,2.534l-2.133,2.2c-0.467,0.466 -1,0.733 -1.6,0.733c-0.2,0 -0.267,0 -0.467,-0.067l-0.733,-0.2c-0.267,-0.066 -0.467,-0.2 -0.667,-0.4c-0.267,-0.266 -0.333,-0.733 -0.333,-1.6c-0,-1.2 -0.334,-4.333 -0.334,-7.6c0,-0.733 0,-1.4 0.067,-2.066c0.133,-4 0.533,-9.867 0.933,-12.334l0,-0.666c0,-1.667 -1.066,-2.734 -2.6,-2.734l-0.2,0c-1.8,0.067 -2.533,1.067 -2.533,1.8c-0,1.8 1,15.6 1,22l-0,1.2c-0,5.6 -0.2,13.8 -0.6,16.4c-0.067,0.4 -0.067,0.667 -0.067,1c0,1.334 0.734,1.6 2.667,1.667c1.2,0 2,-0.333 2,-1.4c-0,-0.267 -0,-0.6 -0.067,-0.933c-0.133,-0.667 -0.2,-1.467 -0.2,-2.334c0,-1.466 0.134,-3.2 0.267,-5c0.2,-1.666 0.733,-2.266 1.4,-2.266c0.867,-0 1.867,1 2.267,1.6c0.266,0.333 0.666,0.933 1.266,1.533l4.134,4.467l0.066,0.133c0.734,0.867 1.534,1.867 2,2.667c0.4,0.666 0.734,0.933 1.267,1.133c0.267,0.067 0.667,0.133 1.2,0.2c0.467,0.133 1.067,0.133 1.733,0.2c0.4,0.067 0.734,0.067 1,0.067c2.134,-0 2.667,-0.6 2.734,-1Z" style="fill-rule:nonzero;"/>
    <path d="M757.667,265.033c0.533,-0.333 1,-0.733 1.333,-1.066c0.333,-0.4 0.667,-0.734 1,-0.934c0.4,-0.4 0.867,-0.6 1.333,-0.6c0.667,0 1.267,0.534 1.267,1.334c-0,0.2 -0,0.4 -0.067,0.6c0,0.066 -0.066,0.133 -0.066,0.2c-0,0.6 0.666,0.666 2.533,0.8l0.333,-0c1,-0 1.2,-0.267 1.334,-0.534l-0,-13.133c-0,-2.2 -0.067,-4.533 -0.067,-6.667c-0,-1.066 -0,-2.066 0.067,-3l-0,-0.333c-0,-1.733 -0.867,-1.8 -2,-1.8l-0.667,0c-0.8,0 -1.2,0.067 -1.2,0.533c-0,0.334 0.067,0.6 0.067,0.8c-0,1.067 -0.4,2 -1.2,2.267c-0.134,0.067 -0.2,0.067 -0.334,0.067c-0.466,-0 -1.066,-0.334 -1.666,-0.867c-0.6,-0.533 -1.067,-1.133 -1.6,-1.667c-0.734,-0.933 -3.467,-1.733 -6,-1.733c-3.734,0 -8,2.4 -10.067,5.267c-1.467,2.133 -2,5.466 -2.267,8.2l0,0.533c0,2.6 1.534,6.8 3.2,8.867c1.734,2.2 4.667,4.2 9.6,4.2c2.4,-0 4,-0.6 5.134,-1.334Zm5.133,-12.266c-0.2,2.8 -1.133,6.133 -3.467,7.866c-1.8,1.4 -3.2,1.734 -5.266,1.734c-0.4,-0 -0.8,-0.067 -1.334,-0.067c-3,-0.2 -5.533,-1.533 -6.6,-3.267c-0.866,-1.6 -1.466,-3.666 -1.466,-6l-0,-0.6c0.133,-2.4 1.133,-6.466 2.4,-7.4c0.933,-0.733 3.8,-1.933 6.2,-1.933c0.4,0 0.8,0 1.2,0.067l1.533,0.333c0.267,0 0.267,0.067 0.333,0.067c0.4,0.133 1,0.2 1.4,0.4c1.2,0.4 2.334,1.133 3.2,2.6l1,1.733c0.067,0.467 0.467,0.933 0.667,1.333c0.2,0.534 0.333,1.134 0.333,1.8c0,0.4 -0.066,0.867 -0.133,1.334Z" style="fill-rule:nonzero;"/>
    <path d="M791.533,257.567c0,-2.134 -1.466,-3.734 -2.8,-5.067c-1.066,-1.067 -5.133,-3.267 -6.533,-3.933c-1.533,-0.667 -3,-1.8 -3,-3.467c-0,-1.667 1.333,-2.333 3,-2.333l0.6,-0c2.133,0.066 3.267,0.8 4.867,2.133c0.533,0.467 0.8,0.533 0.933,0.533c0.2,0 0.333,-0.133 0.467,-0.266l0.466,-0.534c0.134,-0.2 0.334,-0.4 0.4,-0.6c0.2,-0.266 0.267,-0.533 0.267,-0.733c-0,-0.267 -0.067,-0.533 -0.333,-0.867c-0.934,-1 -3.667,-2.866 -7.667,-3l-0.467,0c-1.133,0 -1.733,0.134 -2.2,0.334c-0.533,0.266 -0.933,0.666 -1.333,1.066c-0.933,0.734 -2.067,2.067 -2.2,3.6c-0,0.267 -0.067,0.534 -0.067,0.734c0,1.533 0.334,2.8 1.267,4c1.067,1.466 3.467,2.933 6,4c2.667,1.066 5.2,3.133 5.2,5.333c-0,2.267 -1.867,3.6 -4.8,3.8c-0.2,0 -0.4,0.067 -0.533,0.067c-2.867,-0 -4.867,-2.4 -5.334,-3.334c-0.133,-0.466 -0.666,-0.733 -1.066,-0.733c-0.267,0 -0.667,0.133 -1.134,0.2c-1,0.267 -1.333,1.067 -1.333,1.867c-0,0.266 -0,0.6 0.2,0.866c0.467,0.867 2.2,2.2 3.8,3.2c1.467,0.8 4.067,1.334 5.867,1.334c1.6,-0 3.533,-1.2 5.266,-2.334c1.467,-1 2.134,-3.666 2.2,-5.866Z" style="fill-rule:nonzero;"/>
    <path d="M839.333,241.433c0.2,-0.333 0.267,-0.533 0.267,-0.666c-0,-0.267 -0.2,-0.334 -0.4,-0.4c-0.267,-0.134 -0.667,-0.2 -1.067,-0.267l-1,-0.067c-0.2,0 -0.533,-0.066 -0.8,-0.066c-0.6,-0 -1.2,0.133 -1.266,0.6c-0.134,1.2 -2.067,5.533 -2.8,7.133c-0.734,1.533 -2.334,5.533 -2.867,7.067c-0.533,1.733 -1.467,4 -2.933,4.4c-0.2,0.066 -0.4,0.133 -0.534,0.133c-0.666,0 -1.066,-0.467 -1.333,-1.067c-0,-0.266 -0.133,-0.6 -0.2,-1c-0.067,-0.333 -0.133,-0.733 -0.2,-1.066c-0.2,-0.734 -0.6,-1.467 -1.067,-2.467c-0.533,-0.933 -1.066,-2 -1.533,-3.2c-0.933,-2.4 -2.467,-5.867 -3.333,-8.4c-0.867,-2.133 -1.534,-2.267 -3.734,-2.467l-0.466,0c-1,0 -1.4,0.4 -1.4,0.867c-0,0.933 0.933,2.133 1.4,2.6c0.6,0.667 1.333,2.133 2.133,3.6c0.733,1.467 1.6,3.067 2.4,4.333c0.333,0.667 0.733,1.4 1.067,2.2l0.933,2.4c0.667,1.6 1.267,3.134 2.2,4.2c1.2,1.467 1.667,2.867 1.667,4l-0,0.267c-0,0.733 -0.2,1.4 -0.4,1.867c-0.534,0.866 -1.267,2.133 -2.067,4.466c-0.4,1.2 -1.067,2.334 -1.667,3.334c-0.6,1 -1.2,1.933 -1.733,3c-0.2,0.333 -0.333,0.666 -0.333,0.8c-0,0.8 1,0.8 2.666,0.933c0.134,0 0.334,0.067 0.467,0.067c0.8,-0 1.133,-0.267 1.333,-0.534c0.2,-0.266 0.334,-0.533 0.467,-0.933l0.467,-1.333c0.4,-1 0.733,-2 1.066,-2.934c0.4,-1 0.8,-2 1.334,-3c1.066,-2 2.866,-7.4 4.2,-9.933c1.266,-2.467 3,-6.733 4,-8.8c1,-2.067 3.8,-7.467 5.066,-9.667Z" style="fill-rule:nonzero;"/>
    <path d="M872.267,253.167l-0,-0.334c-0,-4.533 -2.134,-7.933 -4.134,-10.066c-2,-2.067 -5.266,-3.734 -9,-3.867l-0.333,0c-6.067,0 -8.733,2.533 -10.667,4.533c-2,2 -3.533,5 -3.533,9.267c-0,4.267 2.533,8.4 4.6,10.267c2,1.8 5,3.133 8.867,3.133l0.4,0c4.133,-0.133 7.333,-0.667 10.2,-3.733c2.866,-3.2 3.6,-4.334 3.6,-9.2Zm-3.8,-0.734c-0,2.534 -0.934,6 -2.6,7.267c-0.4,0.2 -0.8,0.533 -1.334,0.867c-1.666,1.133 -3.533,2 -5.533,2c-0.267,-0 -0.533,-0 -0.867,-0.067c-3.2,-0.4 -4.733,-1.067 -6.666,-3.333c-1.934,-2.134 -2.534,-3.867 -2.534,-6.6c0,-2.667 0.467,-5.2 3.134,-7.2c2.6,-1.934 4.666,-2.2 6.8,-2.2c3.4,-0 5.866,0.933 7.266,3.4c0.667,1.133 1.267,1.866 1.667,2.733c0.333,0.867 0.667,1.8 0.667,3.133Z" style="fill-rule:nonzero;"/>
    <path d="M902.4,242.567c0.067,-0.467 0.067,-0.8 0.067,-1.134c-0,-1.333 -0.467,-1.8 -2.4,-1.933l-0.334,0c-1.466,0 -1.8,0.6 -1.8,1.6c0,0.333 0,0.667 0.067,1.067c0.133,1.6 0.4,6.8 0.533,10.2c0,0.533 0.067,1.066 0.067,1.6c-0,2.6 -0.4,4.666 -1.6,6.133c-1.4,1.933 -2.8,2 -4.867,2.067l-0.2,-0c-0.466,0.066 -0.933,0.066 -1.333,0.066c-1.6,0 -2.867,-0.333 -4.133,-2.133c-0.8,-1 -1.2,-2.333 -1.4,-3.8c-0.134,-1.4 -0.2,-3.133 -0.267,-5.067c-0.067,-1.6 -0.067,-2.8 -0.067,-3.933c0,-1.533 0.067,-2.867 0.2,-4.867l0,-1.2c0,-0.733 -0.066,-1 -0.133,-1.133c-0.067,0 -0.2,-0.067 -0.467,-0.133c-0.266,-0 -0.666,-0 -1.066,-0.067l-0.467,0c-1.533,0 -1.867,0.533 -1.867,1.133c0,1.4 0.334,2.8 0.334,4.734c-0,1.8 0.066,8.2 0.066,11c0,2.666 1.467,5.333 3.6,6.933c2,1.533 5.534,1.933 7.667,1.933c2.067,0 5.2,-1.333 8,-4.133c1.267,-1.267 1.667,-3.267 1.667,-5.333c-0,-2.067 -0.334,-4.067 -0.334,-5.2c0,-2.2 0.2,-6.2 0.467,-8.4Z" style="fill-rule:nonzero;"/>
    <path d="M928,239.833c-0.467,-0.2 -2.067,-0.733 -3.867,-0.733c-1.8,0 -4.266,1.6 -5.133,3.267c-0.2,0.4 -0.467,0.8 -0.8,1c-0.2,0.066 -0.333,0.066 -0.4,0.066c-0.333,0 -0.6,-0.2 -0.733,-0.4c-0.2,-0.4 -0.267,-0.933 -0.267,-1.466l-0,-0.467c-0,-1.133 -1.2,-1.6 -2.067,-1.6c-1.666,0 -1.866,0.533 -1.933,0.867c-0,0.066 -0.067,0.133 -0.067,0.266c0,0.2 0.067,0.534 0.134,0.867c0.066,0.467 0.133,1 0.2,1.467c0.133,2.2 0.133,7.133 0.133,10.066c-0,2.867 -0.133,5.867 -0.6,9.734c-0.067,0.666 -0.067,1.2 -0.067,1.533c0,0.4 0.067,0.6 0.334,0.733c0.133,0.067 0.4,0.067 1,0.067c0.533,-0.067 1.2,-0.133 2,-0.133c1.666,-0 2.066,-1.134 2.066,-2.4c0,-0.934 -0.266,-2 -0.4,-2.8c-0.266,-1.334 -0.333,-3.8 -0.333,-6.267c-0,-1.333 -0,-2.6 0.067,-3.733c0.2,-3.6 2.6,-5.6 4.866,-6.134c0.867,-0.2 1.467,-0.266 2.067,-0.266c0.8,-0 1.333,0.133 2.2,0.466c0.133,0 0.333,0.2 0.467,0.2c0.2,0 0.266,-0.066 0.333,-0.266c0.133,-0.067 0.267,-0.334 0.333,-0.667c0.2,-0.333 0.334,-0.733 0.467,-1.2c0.2,-0.667 0.333,-1.133 0.333,-1.4c0,-0.333 -0.133,-0.533 -0.333,-0.667Z" style="fill-rule:nonzero;"/>
    <path d="M966.6,265.033c0.533,-0.333 1,-0.733 1.333,-1.066c0.334,-0.4 0.667,-0.734 1,-0.934c0.4,-0.4 0.867,-0.6 1.334,-0.6c0.666,0 1.266,0.534 1.266,1.334c0,0.2 0,0.4 -0.066,0.6c-0,0.066 -0.067,0.133 -0.067,0.2c-0,0.6 0.667,0.666 2.533,0.8l0.334,-0c1,-0 1.2,-0.267 1.333,-0.534l-0,-13.133c-0,-2.2 -0.067,-4.533 -0.067,-6.667c0,-1.066 0,-2.066 0.067,-3l-0,-0.333c-0,-1.733 -0.867,-1.8 -2,-1.8l-0.667,0c-0.8,0 -1.2,0.067 -1.2,0.533c0,0.334 0.067,0.6 0.067,0.8c-0,1.067 -0.4,2 -1.2,2.267c-0.133,0.067 -0.2,0.067 -0.333,0.067c-0.467,-0 -1.067,-0.334 -1.667,-0.867c-0.6,-0.533 -1.067,-1.133 -1.6,-1.667c-0.733,-0.933 -3.467,-1.733 -6,-1.733c-3.733,0 -8,2.4 -10.067,5.267c-1.466,2.133 -2,5.466 -2.266,8.2l-0,0.533c-0,2.6 1.533,6.8 3.2,8.867c1.733,2.2 4.666,4.2 9.6,4.2c2.4,-0 4,-0.6 5.133,-1.334Zm5.133,-12.266c-0.2,2.8 -1.133,6.133 -3.466,7.866c-1.8,1.4 -3.2,1.734 -5.267,1.734c-0.4,-0 -0.8,-0.067 -1.333,-0.067c-3,-0.2 -5.534,-1.533 -6.6,-3.267c-0.867,-1.6 -1.467,-3.666 -1.467,-6l-0,-0.6c0.133,-2.4 1.133,-6.466 2.4,-7.4c0.933,-0.733 3.8,-1.933 6.2,-1.933c0.4,0 0.8,0 1.2,0.067l1.533,0.333c0.267,0 0.267,0.067 0.334,0.067c0.4,0.133 1,0.2 1.4,0.4c1.2,0.4 2.333,1.133 3.2,2.6l1,1.733c0.066,0.467 0.466,0.933 0.666,1.333c0.2,0.534 0.334,1.134 0.334,1.8c-0,0.4 -0.067,0.867 -0.134,1.334Z" style="fill-rule:nonzero;"/>
    <path d="M1010.27,223.433c-0,-0.533 -0.067,-0.866 -0.134,-1c-0.266,-0.466 -0.866,-0.466 -2.066,-0.6c-0.134,0 -0.267,-0.066 -0.4,-0.066l-0.467,-0c-1.267,-0 -1.533,0.466 -1.667,1c-0.066,0.266 -0.066,0.533 -0.066,0.866l-0,0.8l0.2,2.067c0.2,3 0.266,7.933 0.466,10.667c0.067,0.866 0.134,1.533 0.134,2.066c-0,1.267 -0.267,1.934 -1.067,2.6c-0.333,0.267 -0.667,0.4 -1,0.4c-0.4,0 -0.8,-0.133 -1.2,-0.333c-0.6,-0.333 -1.467,-0.933 -2.533,-1.6c-1.334,-0.867 -2.934,-1 -4.467,-1c-0.667,0 -1.333,0.067 -1.933,0.067c-2.4,0.066 -5.8,2.2 -7.6,4.2c-1.667,1.933 -2.934,6.133 -2.934,9.933c0,3.733 2,7.333 4.267,9.467c2.267,2.133 5.467,3.4 7.933,3.4c2.534,-0 5.2,-0.6 7,-2.667c0.934,-1.133 1.734,-1.533 2.2,-1.533c0.8,-0 1.2,0.866 1.4,1.933c0.067,0.467 0.067,0.733 0.334,0.933c0.133,0.067 0.266,0.067 0.666,0.134l1.467,0.2l0.333,-0c0.8,-0 0.934,-0.334 1,-0.734l0,-1.2l-0.266,-1.533c-0.267,-1.867 -0.667,-10.133 -0.667,-13.467l-0,-0.933l0.4,-4.333c0.067,-0.934 0.133,-1.734 0.133,-2.534c0,-0.466 0,-0.866 -0.066,-1.2c-0.067,-0.4 -0.134,-1 -0.134,-1.733c0,-1.067 0.267,-3.6 0.267,-4l-0,-0.6c0.067,-2.733 0.333,-5.667 0.333,-7.467c0,-0.866 0.067,-1.6 0.134,-2.2Zm-4.4,26.334c0.333,1 0.533,2 0.533,2.866c-0,1.2 -0.267,2.4 -0.8,3.667c-0.4,1.133 -0.933,1.933 -1.533,2.667c-0.534,0.6 -1.134,1.133 -1.667,1.733c-1.067,1.067 -3,1.467 -4.6,1.467c-0.333,-0 -0.6,-0 -0.8,-0.067l-1.2,0c-0.333,0 -0.8,0 -1.333,-0.133c-0.934,-0.267 -2,-0.867 -3.667,-2.2c-1.6,-1.334 -2.4,-2.534 -2.733,-3.667c-0.267,-0.533 -0.267,-1 -0.334,-1.533c0,-0 0,-0.067 -0.133,-1.534l-0,-0.466c-0,-2 0.667,-4.534 2.2,-6.534c1.6,-2.066 2.933,-2.933 5.667,-2.933l0.8,0c3.133,0.067 5.533,0.6 6.8,2c1.066,1.2 2,2.4 2.8,4.667Z" style="fill-rule:nonzero;"/>
    <path d="M1041,239.767c-0,-0 -0.267,-0.067 -0.6,-0.134l-1.067,0c-1.2,0 -2,0.467 -2.333,1.8c-0.2,0.934 -0.6,1.934 -1,2.934l-1.333,2.866c-0.4,0.934 -1,2.134 -1.6,3.467c-0.534,1.267 -1.067,2.667 -1.4,3.867c-0.734,3 -1.467,3.933 -2.334,4.133c-0.933,0 -1.4,-1.267 -1.6,-1.933l-0.333,-1.334l-0.4,-1.133c-0.667,-1.267 -2,-4.667 -2.867,-6.867l-2.6,-6.333c-0.533,-1.267 -1.2,-1.4 -3.066,-1.6l-0.4,0c-0.934,0 -1.2,0.333 -1.2,0.867c-0,0.066 0.066,0.2 0.066,0.333c0.134,0.933 0.867,2.333 1.667,3.6c1.6,2.467 2.467,4.8 3.667,7.133c1.2,2.4 3.266,6.734 4.466,10.4c1.2,3.667 2.734,4.667 3.267,4.667c0.8,0 1.6,-3.4 2,-5.067c0.333,-0.933 1,-2.466 1.667,-4c0.666,-1.533 1.333,-3 1.666,-3.8c0.267,-0.866 1.2,-2.866 2.267,-5c1.067,-2.2 2.267,-4.666 3.067,-6.533c0.333,-0.933 0.533,-1.533 0.533,-1.867c-0,-0.333 -0.133,-0.4 -0.2,-0.466Z" style="fill-rule:nonzero;"/>
    <path d="M1072.13,252.033c0,-0.066 0.067,-0.133 0.067,-0.266c-0,-0.067 -0.067,-0.267 -0.067,-0.467l-0.266,-1.4c-0.467,-2.133 -2.8,-5.667 -4.534,-7.733c-1.733,-1.867 -5.066,-3 -7.866,-3.134l-0.734,0c-2.866,0 -5.133,1.4 -7.466,2.934l-0.534,0.333c-2.533,1.533 -4.333,6.6 -4.466,10.6l-0,0.2c-0,3.8 2.866,8 5.133,10.533c2.2,2.334 6.733,2.4 9,2.4c2.133,0 3.867,-0.533 5,-1.133c0.467,-0.267 1.133,-0.8 1.933,-1.467c0.734,-0.666 1.534,-1.333 2.4,-2c0.667,-0.466 1,-1 1,-1.533c0,-0.6 -0.333,-1.2 -1.333,-2c-0.333,-0.267 -0.667,-0.4 -0.867,-0.4c-0.333,0 -0.533,0.2 -0.8,0.4c-0.466,0.533 -0.8,1.2 -1.066,1.867c-0.534,1.2 -3.2,2.533 -6.534,2.533l-0.533,0c-2.2,-0.067 -4.067,-0.733 -5.733,-2.067l-1,-0.8c-1.067,-0.933 -2.134,-3.6 -2.134,-5.266l0,-0.467c0.2,-0.8 1.8,-1.267 3.8,-1.333c1.667,-0 3.534,0.066 4.534,0.066c1.4,0 5.266,0.067 8.266,0.067c1.534,0 2.867,0 3.6,-0.067c1.134,0 1.2,-0.266 1.2,-0.4Zm-4.733,-4.4c0.2,0.334 0.267,0.6 0.267,0.867c-0,0.733 -0.6,1.2 -1.8,1.2c-2.6,0 -5.467,0.067 -6.6,0.067c-1.2,-0 -4.734,-0.067 -5.467,-0.267c-0.733,-0.067 -2.333,-0.933 -2.333,-2.133c-0,-0.4 0.133,-0.8 0.466,-1.2c1.067,-1.467 4,-3.467 7.467,-3.467l0.267,0c3.133,0.133 4.2,1.067 5.733,2.533c0.667,0.667 1.6,1.534 2,2.4Z" style="fill-rule:nonzero;"/>
    <path d="M1095.27,239.833c-0.467,-0.2 -2.067,-0.733 -3.867,-0.733c-1.8,0 -4.267,1.6 -5.133,3.267c-0.2,0.4 -0.467,0.8 -0.8,1c-0.2,0.066 -0.334,0.066 -0.4,0.066c-0.334,0 -0.6,-0.2 -0.734,-0.4c-0.2,-0.4 -0.266,-0.933 -0.266,-1.466l-0,-0.467c-0,-1.133 -1.2,-1.6 -2.067,-1.6c-1.667,0 -1.867,0.533 -1.933,0.867c-0,0.066 -0.067,0.133 -0.067,0.266c-0,0.2 0.067,0.534 0.133,0.867c0.067,0.467 0.134,1 0.2,1.467c0.134,2.2 0.134,7.133 0.134,10.066c-0,2.867 -0.134,5.867 -0.6,9.734c-0.067,0.666 -0.067,1.2 -0.067,1.533c-0,0.4 0.067,0.6 0.333,0.733c0.134,0.067 0.4,0.067 1,0.067c0.534,-0.067 1.2,-0.133 2,-0.133c1.667,-0 2.067,-1.134 2.067,-2.4c-0,-0.934 -0.267,-2 -0.4,-2.8c-0.267,-1.334 -0.333,-3.8 -0.333,-6.267c-0,-1.333 -0,-2.6 0.066,-3.733c0.2,-3.6 2.6,-5.6 4.867,-6.134c0.867,-0.2 1.467,-0.266 2.067,-0.266c0.8,-0 1.333,0.133 2.2,0.466c0.133,0 0.333,0.2 0.466,0.2c0.2,0 0.267,-0.066 0.334,-0.266c0.133,-0.067 0.266,-0.334 0.333,-0.667c0.2,-0.333 0.333,-0.733 0.467,-1.2c0.2,-0.667 0.333,-1.133 0.333,-1.4c-0,-0.333 -0.133,-0.533 -0.333,-0.667Z" style="fill-rule:nonzero;"/>
    <path d="M1116.53,257.567c0,-2.134 -1.466,-3.734 -2.8,-5.067c-1.066,-1.067 -5.133,-3.267 -6.533,-3.933c-1.533,-0.667 -3,-1.8 -3,-3.467c-0,-1.667 1.333,-2.333 3,-2.333l0.6,-0c2.133,0.066 3.267,0.8 4.867,2.133c0.533,0.467 0.8,0.533 0.933,0.533c0.2,0 0.333,-0.133 0.467,-0.266l0.466,-0.534c0.134,-0.2 0.334,-0.4 0.4,-0.6c0.2,-0.266 0.267,-0.533 0.267,-0.733c-0,-0.267 -0.067,-0.533 -0.333,-0.867c-0.934,-1 -3.667,-2.866 -7.667,-3l-0.467,0c-1.133,0 -1.733,0.134 -2.2,0.334c-0.533,0.266 -0.933,0.666 -1.333,1.066c-0.933,0.734 -2.067,2.067 -2.2,3.6c-0,0.267 -0.067,0.534 -0.067,0.734c0,1.533 0.334,2.8 1.267,4c1.067,1.466 3.467,2.933 6,4c2.667,1.066 5.2,3.133 5.2,5.333c-0,2.267 -1.867,3.6 -4.8,3.8c-0.2,0 -0.4,0.067 -0.533,0.067c-2.867,-0 -4.867,-2.4 -5.334,-3.334c-0.133,-0.466 -0.666,-0.733 -1.066,-0.733c-0.267,0 -0.667,0.133 -1.134,0.2c-1,0.267 -1.333,1.067 -1.333,1.867c-0,0.266 -0,0.6 0.2,0.866c0.467,0.867 2.2,2.2 3.8,3.2c1.467,0.8 4.067,1.334 5.867,1.334c1.6,-0 3.533,-1.2 5.266,-2.334c1.467,-1 2.134,-3.666 2.2,-5.866Z" style="fill-rule:nonzero;"/>
    <path d="M1139.27,265.033c0.533,-0.333 1,-0.733 1.333,-1.066c0.333,-0.4 0.667,-0.734 1,-0.934c0.4,-0.4 0.867,-0.6 1.333,-0.6c0.667,0 1.267,0.534 1.267,1.334c-0,0.2 -0,0.4 -0.067,0.6c0,0.066 -0.066,0.133 -0.066,0.2c-0,0.6 0.666,0.666 2.533,0.8l0.333,-0c1,-0 1.2,-0.267 1.334,-0.534l-0,-13.133c-0,-2.2 -0.067,-4.533 -0.067,-6.667c-0,-1.066 -0,-2.066 0.067,-3l-0,-0.333c-0,-1.733 -0.867,-1.8 -2,-1.8l-0.667,0c-0.8,0 -1.2,0.067 -1.2,0.533c-0,0.334 0.067,0.6 0.067,0.8c-0,1.067 -0.4,2 -1.2,2.267c-0.134,0.067 -0.2,0.067 -0.334,0.067c-0.466,-0 -1.066,-0.334 -1.666,-0.867c-0.6,-0.533 -1.067,-1.133 -1.6,-1.667c-0.734,-0.933 -3.467,-1.733 -6,-1.733c-3.734,0 -8,2.4 -10.067,5.267c-1.467,2.133 -2,5.466 -2.267,8.2l0,0.533c0,2.6 1.534,6.8 3.2,8.867c1.734,2.2 4.667,4.2 9.6,4.2c2.4,-0 4,-0.6 5.134,-1.334Zm5.133,-12.266c-0.2,2.8 -1.133,6.133 -3.467,7.866c-1.8,1.4 -3.2,1.734 -5.266,1.734c-0.4,-0 -0.8,-0.067 -1.334,-0.067c-3,-0.2 -5.533,-1.533 -6.6,-3.267c-0.866,-1.6 -1.466,-3.666 -1.466,-6l-0,-0.6c0.133,-2.4 1.133,-6.466 2.4,-7.4c0.933,-0.733 3.8,-1.933 6.2,-1.933c0.4,0 0.8,0 1.2,0.067l1.533,0.333c0.267,0 0.267,0.067 0.333,0.067c0.4,0.133 1,0.2 1.4,0.4c1.2,0.4 2.334,1.133 3.2,2.6l1,1.733c0.067,0.467 0.467,0.933 0.667,1.333c0.2,0.534 0.333,1.134 0.333,1.8c0,0.4 -0.066,0.867 -0.133,1.334Z" style="fill-rule:nonzero;"/>
    <path d="M1173.93,239.833c-0.466,-0.2 -2.066,-0.733 -3.866,-0.733c-1.8,0 -4.267,1.6 -5.134,3.267c-0.2,0.4 -0.466,0.8 -0.8,1c-0.2,0.066 -0.333,0.066 -0.4,0.066c-0.333,0 -0.6,-0.2 -0.733,-0.4c-0.2,-0.4 -0.267,-0.933 -0.267,-1.466l0,-0.467c0,-1.133 -1.2,-1.6 -2.066,-1.6c-1.667,0 -1.867,0.533 -1.934,0.867c0,0.066 -0.066,0.133 -0.066,0.266c-0,0.2 0.066,0.534 0.133,0.867c0.067,0.467 0.133,1 0.2,1.467c0.133,2.2 0.133,7.133 0.133,10.066c0,2.867 -0.133,5.867 -0.6,9.734c-0.066,0.666 -0.066,1.2 -0.066,1.533c-0,0.4 0.066,0.6 0.333,0.733c0.133,0.067 0.4,0.067 1,0.067c0.533,-0.067 1.2,-0.133 2,-0.133c1.667,-0 2.067,-1.134 2.067,-2.4c-0,-0.934 -0.267,-2 -0.4,-2.8c-0.267,-1.334 -0.334,-3.8 -0.334,-6.267c0,-1.333 0,-2.6 0.067,-3.733c0.2,-3.6 2.6,-5.6 4.867,-6.134c0.866,-0.2 1.466,-0.266 2.066,-0.266c0.8,-0 1.334,0.133 2.2,0.466c0.134,0 0.334,0.2 0.467,0.2c0.2,0 0.267,-0.066 0.333,-0.266c0.134,-0.067 0.267,-0.334 0.334,-0.667c0.2,-0.333 0.333,-0.733 0.466,-1.2c0.2,-0.667 0.334,-1.133 0.334,-1.4c-0,-0.333 -0.134,-0.533 -0.334,-0.667Z" style="fill-rule:nonzero;"/>
    <path d="M1204.27,241.433c0.2,-0.333 0.266,-0.533 0.266,-0.666c0,-0.267 -0.2,-0.334 -0.4,-0.4c-0.266,-0.134 -0.666,-0.2 -1.066,-0.267l-1,-0.067c-0.2,0 -0.534,-0.066 -0.8,-0.066c-0.6,-0 -1.2,0.133 -1.267,0.6c-0.133,1.2 -2.067,5.533 -2.8,7.133c-0.733,1.533 -2.333,5.533 -2.867,7.067c-0.533,1.733 -1.466,4 -2.933,4.4c-0.2,0.066 -0.4,0.133 -0.533,0.133c-0.667,0 -1.067,-0.467 -1.334,-1.067c0,-0.266 -0.133,-0.6 -0.2,-1c-0.066,-0.333 -0.133,-0.733 -0.2,-1.066c-0.2,-0.734 -0.6,-1.467 -1.066,-2.467c-0.534,-0.933 -1.067,-2 -1.534,-3.2c-0.933,-2.4 -2.466,-5.867 -3.333,-8.4c-0.867,-2.133 -1.533,-2.267 -3.733,-2.467l-0.467,0c-1,0 -1.4,0.4 -1.4,0.867c-0,0.933 0.933,2.133 1.4,2.6c0.6,0.667 1.333,2.133 2.133,3.6c0.734,1.467 1.6,3.067 2.4,4.333c0.334,0.667 0.734,1.4 1.067,2.2l0.933,2.4c0.667,1.6 1.267,3.134 2.2,4.2c1.2,1.467 1.667,2.867 1.667,4l-0,0.267c-0,0.733 -0.2,1.4 -0.4,1.867c-0.533,0.866 -1.267,2.133 -2.067,4.466c-0.4,1.2 -1.066,2.334 -1.666,3.334c-0.6,1 -1.2,1.933 -1.734,3c-0.2,0.333 -0.333,0.666 -0.333,0.8c-0,0.8 1,0.8 2.667,0.933c0.133,0 0.333,0.067 0.466,0.067c0.8,-0 1.134,-0.267 1.334,-0.534c0.2,-0.266 0.333,-0.533 0.466,-0.933l0.467,-1.333c0.4,-1 0.733,-2 1.067,-2.934c0.4,-1 0.8,-2 1.333,-3c1.067,-2 2.867,-7.4 4.2,-9.933c1.267,-2.467 3,-6.733 4,-8.8c1,-2.067 3.8,-7.467 5.067,-9.667Z" style="fill-rule:nonzero;"/>
    <path d="M1254.73,252.1l0,-0.533c0,-3.534 -2.066,-6.667 -3.8,-8.8c-1.666,-2 -5.466,-3.534 -8.733,-3.667c-3.067,0 -5.933,1.933 -7.867,3.867c-0.533,0.466 -0.933,0.733 -1.266,0.733c-0.334,0 -0.6,-0.2 -0.734,-0.4c-0.2,-0.267 -0.266,-0.867 -0.266,-1.667l-0,-0.866c-0,-0.934 -0.467,-1 -2,-1.134l-0.267,0c-1.2,0 -1.533,0.8 -1.533,1.8c-0,0.667 0.133,1.334 0.2,1.867c0.2,1.467 0.333,10 0.333,15.133c-0,1.534 -0,2.667 -0.067,3.4c-0.133,3.267 -0.266,11.934 -0.533,14.4c-0,0.2 -0.067,0.267 -0.067,0.4c0,1.4 0.934,1.867 2.2,1.867c0.134,0 0.334,-0.067 0.534,-0.067c1.666,-0.066 2.2,-0.666 2.2,-1l-0,-0.333c-0,-0.467 -0,-1.067 -0.067,-1.867c-0.133,-0.933 -0.267,-2.066 -0.267,-2.933c-0.066,-0.467 -0.066,-0.933 -0.066,-1.533l-0,-1c-0,-1.334 -0,-2.667 -0.267,-4.2c-0.067,-0.6 -0.133,-1.134 -0.133,-1.534c-0,-1.533 0.466,-2.2 1.533,-2.333l0.267,0c0.533,0 1,0.4 1.333,0.733c0.467,0.4 0.8,0.934 1.133,1.4c0.667,0.867 1.334,1.6 6.134,1.6c2.333,0 3.733,-0.4 4.933,-1.066c0.533,-0.334 1.133,-0.734 1.667,-1.2l1.866,-1.467c2.534,-1.933 3.6,-5.733 3.6,-9.6Zm-3.733,0.533l-0.2,2.667c-0.267,2.467 -0.933,3.533 -3.067,5.067c-1.333,1 -2.2,1.4 -3,1.666c-0.4,0.067 -0.8,0.067 -1.266,0.067c-0.067,0 -0.267,0.067 -0.4,0.067c-0.334,-0 -0.6,-0.067 -1,-0.067c-2.2,0 -4.334,-0.267 -6.4,-1.933c-2.134,-1.667 -3.467,-4.8 -3.467,-8.2c-0,-3.467 1.533,-6.2 4,-7.8c0.6,-0.334 1.067,-0.667 1.533,-0.867l1.134,-0.533c0.8,-0.334 1.533,-0.334 2.733,-0.334c2.733,0 5,1.067 6.267,2.534c0.266,0.333 0.666,0.666 1,1.133c0.4,0.4 0.8,0.933 1.133,1.533c0.533,1.067 1,2.467 1,4.134l-0,0.866Z" style="fill-rule:nonzero;"/>
    <path d="M1289.2,253.167l-0,-0.334c-0,-4.533 -2.133,-7.933 -4.133,-10.066c-2,-2.067 -5.267,-3.734 -9,-3.867l-0.334,0c-6.066,0 -8.733,2.533 -10.666,4.533c-2,2 -3.534,5 -3.534,9.267c0,4.267 2.534,8.4 4.6,10.267c2,1.8 5,3.133 8.867,3.133l0.4,0c4.133,-0.133 7.333,-0.667 10.2,-3.733c2.867,-3.2 3.6,-4.334 3.6,-9.2Zm-3.8,-0.734c-0,2.534 -0.933,6 -2.6,7.267c-0.4,0.2 -0.8,0.533 -1.333,0.867c-1.667,1.133 -3.534,2 -5.534,2c-0.266,-0 -0.533,-0 -0.866,-0.067c-3.2,-0.4 -4.734,-1.067 -6.667,-3.333c-1.933,-2.134 -2.533,-3.867 -2.533,-6.6c-0,-2.667 0.466,-5.2 3.133,-7.2c2.6,-1.934 4.667,-2.2 6.8,-2.2c3.4,-0 5.867,0.933 7.267,3.4c0.666,1.133 1.266,1.866 1.666,2.733c0.334,0.867 0.667,1.8 0.667,3.133Z" style="fill-rule:nonzero;"/>
    <path d="M1319.33,242.567c0.067,-0.467 0.067,-0.8 0.067,-1.134c-0,-1.333 -0.467,-1.8 -2.4,-1.933l-0.333,0c-1.467,0 -1.8,0.6 -1.8,1.6c-0,0.333 -0,0.667 0.066,1.067c0.134,1.6 0.4,6.8 0.534,10.2c-0,0.533 0.066,1.066 0.066,1.6c0,2.6 -0.4,4.666 -1.6,6.133c-1.4,1.933 -2.8,2 -4.866,2.067l-0.2,-0c-0.467,0.066 -0.934,0.066 -1.334,0.066c-1.6,0 -2.866,-0.333 -4.133,-2.133c-0.8,-1 -1.2,-2.333 -1.4,-3.8c-0.133,-1.4 -0.2,-3.133 -0.267,-5.067c-0.066,-1.6 -0.066,-2.8 -0.066,-3.933c-0,-1.533 0.066,-2.867 0.2,-4.867l-0,-1.2c-0,-0.733 -0.067,-1 -0.134,-1.133c-0.066,0 -0.2,-0.067 -0.466,-0.133c-0.267,-0 -0.667,-0 -1.067,-0.067l-0.467,0c-1.533,0 -1.866,0.533 -1.866,1.133c-0,1.4 0.333,2.8 0.333,4.734c-0,1.8 0.067,8.2 0.067,11c-0,2.666 1.466,5.333 3.6,6.933c2,1.533 5.533,1.933 7.666,1.933c2.067,0 5.2,-1.333 8,-4.133c1.267,-1.267 1.667,-3.267 1.667,-5.333c-0,-2.067 -0.333,-4.067 -0.333,-5.2c-0,-2.2 0.2,-6.2 0.466,-8.4Z" style="fill-rule:nonzero;"/>
    <path d="M1351.8,261.833c-0.2,-1.733 -0.4,-7.2 -0.4,-11.066c-0,-0.8 0.067,-1.6 0.067,-2.2l-0,-0.267c-0,-3.067 -1.6,-5.733 -2.534,-6.867c-0.933,-1.2 -2.933,-2.333 -5.533,-2.4l-0.467,0c-2.2,0 -3.533,0.8 -5.8,2.934c-0.933,0.866 -1.666,1.133 -2.133,1.2c-0.4,-0 -0.6,-0.2 -0.733,-0.4c-0.134,-0.334 -0.2,-0.734 -0.2,-1.134c-0,-0.4 -0,-0.733 0.066,-1.066c0,-1.134 -1.066,-1.334 -1.866,-1.334c-0.734,0 -2,0.067 -2.267,0.667c-0.067,0.2 -0.133,0.467 -0.133,0.8c0.066,0.4 0.133,0.733 0.133,1.2c0.133,1.867 0.933,6.067 0.933,8.8c0,2.733 -0.133,6.067 -0.666,10.467c-0.134,0.8 -0.134,1.4 -0.134,1.933c0,1.933 0.667,2.333 2.2,2.333c0.2,0 0.467,-0.066 0.8,-0.066c1.334,-0.067 1.6,-0.467 1.667,-0.667l-0,-0.467c-0,-0.466 -0.067,-1 -0.133,-1.333c-0.267,-1.467 -0.534,-6.8 -0.534,-9.133c0,-2.2 0.334,-5.867 1.734,-7.8c1.466,-2 3.666,-3.134 5.666,-3.134l0.934,0c0.4,0 0.866,0 1.266,0.134c0.734,0.133 1.4,0.533 2.334,1.266c1.133,0.867 1.6,2 1.8,3.4c0.133,0.8 0.133,1.734 0.133,2.734l-0,2.133c-0,3.8 -0.533,5.933 -0.8,9.667c-0,0.266 -0.067,0.6 -0.067,0.8c0,2.466 1.134,2.533 3.134,2.533c1.4,0 1.733,-0.733 1.733,-1.8c-0,-0.6 -0.133,-1.267 -0.2,-1.867Z" style="fill-rule:nonzero;"/>
    <path d="M1380.87,263.7c-0,-0.267 -0,-0.533 -0.067,-0.933l-0.133,-1.334c-0.067,-1 -0.267,-1.4 -0.6,-1.4c-0.067,0 -0.267,0.067 -0.467,0.2c-1.2,0.867 -3.2,1.867 -5.933,1.867l-0.867,0c-3.067,-0.333 -4,-0.733 -6.267,-2.333c-2.466,-1.734 -2.933,-4.867 -2.933,-7.334c-0,-2.666 0.8,-5.2 3.133,-7.066c2.4,-1.934 3.6,-2.134 6.267,-2.267l0.467,0c2.533,0 4.2,0.733 5.933,1.933c0.333,0.2 0.6,0.4 0.667,0.4c0.066,0 0.133,-0.066 0.2,-0.133c0.133,-0.2 0.133,-0.467 0.266,-0.867c0.067,-0.466 0.2,-1 0.2,-1.666c0.067,-0.267 0.067,-0.467 0.067,-0.667c-0,-0.667 -0.2,-1 -0.4,-1.2c-0.267,-0.2 -0.467,-0.4 -0.733,-0.533c-0.334,-0.2 -0.667,-0.334 -0.934,-0.6c-1.066,-0.667 -2.8,-0.734 -6.4,-0.934l-0.266,0c-3.6,0 -6.867,2.067 -9.267,4.2c-2.133,2 -3.333,7 -3.333,9.8l-0,0.4c0.133,2.8 1,6.267 3.933,9.2c2.867,2.867 6,3.667 8.867,3.867l0.533,0c1.2,0 2.2,-0.2 3.2,-0.4c1.133,-0.267 2.2,-0.733 3.4,-1.133c1.267,-0.467 1.4,-0.8 1.467,-1.067Z" style="fill-rule:nonzero;"/>
    <path d="M1412,252.033c-0,-0.066 0.067,-0.133 0.067,-0.266c-0,-0.067 -0.067,-0.267 -0.067,-0.467l-0.267,-1.4c-0.466,-2.133 -2.8,-5.667 -4.533,-7.733c-1.733,-1.867 -5.067,-3 -7.867,-3.134l-0.733,0c-2.867,0 -5.133,1.4 -7.467,2.934l-0.533,0.333c-2.533,1.533 -4.333,6.6 -4.467,10.6l0,0.2c0,3.8 2.867,8 5.134,10.533c2.2,2.334 6.733,2.4 9,2.4c2.133,0 3.866,-0.533 5,-1.133c0.466,-0.267 1.133,-0.8 1.933,-1.467c0.733,-0.666 1.533,-1.333 2.4,-2c0.667,-0.466 1,-1 1,-1.533c-0,-0.6 -0.333,-1.2 -1.333,-2c-0.334,-0.267 -0.667,-0.4 -0.867,-0.4c-0.333,0 -0.533,0.2 -0.8,0.4c-0.467,0.533 -0.8,1.2 -1.067,1.867c-0.533,1.2 -3.2,2.533 -6.533,2.533l-0.533,0c-2.2,-0.067 -4.067,-0.733 -5.734,-2.067l-1,-0.8c-1.066,-0.933 -2.133,-3.6 -2.133,-5.266l-0,-0.467c0.2,-0.8 1.8,-1.267 3.8,-1.333c1.667,-0 3.533,0.066 4.533,0.066c1.4,0 5.267,0.067 8.267,0.067c1.533,0 2.867,0 3.6,-0.067c1.133,0 1.2,-0.266 1.2,-0.4Zm-4.733,-4.4c0.2,0.334 0.266,0.6 0.266,0.867c0,0.733 -0.6,1.2 -1.8,1.2c-2.6,0 -5.466,0.067 -6.6,0.067c-1.2,-0 -4.733,-0.067 -5.466,-0.267c-0.734,-0.067 -2.334,-0.933 -2.334,-2.133c0,-0.4 0.134,-0.8 0.467,-1.2c1.067,-1.467 4,-3.467 7.467,-3.467l0.266,0c3.134,0.133 4.2,1.067 5.734,2.533c0.666,0.667 1.6,1.534 2,2.4Z" style="fill-rule:nonzero;"/>
    <path d="M1434.33,257.567c0,-2.134 -1.466,-3.734 -2.8,-5.067c-1.066,-1.067 -5.133,-3.267 -6.533,-3.933c-1.533,-0.667 -3,-1.8 -3,-3.467c-0,-1.667 1.333,-2.333 3,-2.333l0.6,-0c2.133,0.066 3.267,0.8 4.867,2.133c0.533,0.467 0.8,0.533 0.933,0.533c0.2,0 0.333,-0.133 0.467,-0.266l0.466,-0.534c0.134,-0.2 0.334,-0.4 0.4,-0.6c0.2,-0.266 0.267,-0.533 0.267,-0.733c-0,-0.267 -0.067,-0.533 -0.333,-0.867c-0.934,-1 -3.667,-2.866 -7.667,-3l-0.467,0c-1.133,0 -1.733,0.134 -2.2,0.334c-0.533,0.266 -0.933,0.666 -1.333,1.066c-0.933,0.734 -2.067,2.067 -2.2,3.6c-0,0.267 -0.067,0.534 -0.067,0.734c0,1.533 0.334,2.8 1.267,4c1.067,1.466 3.467,2.933 6,4c2.667,1.066 5.2,3.133 5.2,5.333c-0,2.267 -1.867,3.6 -4.8,3.8c-0.2,0 -0.4,0.067 -0.533,0.067c-2.867,-0 -4.867,-2.4 -5.334,-3.334c-0.133,-0.466 -0.666,-0.733 -1.066,-0.733c-0.267,0 -0.667,0.133 -1.134,0.2c-1,0.267 -1.333,1.067 -1.333,1.867c-0,0.266 -0,0.6 0.2,0.866c0.467,0.867 2.2,2.2 3.8,3.2c1.467,0.8 4.067,1.334 5.867,1.334c1.6,-0 3.533,-1.2 5.266,-2.334c1.467,-1 2.134,-3.666 2.2,-5.866Z" style="fill-rule:nonzero;"/>
  </g>
  <g id="FIGHTsound-youlose" sound="3F-Fightfail-1">
    <rect x="193" y="1839" width="197" height="197" style="fill:#fff;stroke:#020000;stroke-width:2.5px;"/>
    <path d="M246.981,2014.23c0.189,0.461 -0.725,1.873 -1.481,0.887c-0.756,-0.987 -0.51,-1.74 -1.251,-0.981c-1.354,1.381 -2.315,4.373 -3.43,4.632c-0.726,0.169 -6.357,0.14 -5.854,-1.428c0.36,-1.121 3.619,-4.984 3.661,-6.251c0.093,-2.857 1.666,-6.726 2.016,-8.84c0.351,-2.116 0.848,-13.798 1.454,-15.172c0.608,-1.371 1.856,-6.483 1.51,-9.827c-0.554,-5.337 0.253,-11.306 0.604,-13.299c0.351,-1.992 0.738,-4.495 0.57,-4.85c-0.953,-2.009 -3.912,-2.778 -5.517,-4.911c-0.933,-1.238 -2.192,-2.879 -2.277,-3.826c-0.282,-3.101 0.067,-5.466 -2.191,-7.428c0,-0 -1.998,-0.973 -3.255,-2.325c-1.255,-1.355 -2.261,-2.462 -5.365,-2.304c-2.357,0.119 -5.854,-1.428 -8.858,-3.632c-1.701,-1.247 -2.024,-3.332 -3.399,-4.188c-1.375,-0.854 -4.266,-3.928 -2.903,-4.316c1.44,-0.408 5.354,1.186 6.471,1.173c1.119,-0.013 5.983,1.8 5.723,0.809c-0.261,-0.99 -2.421,-5.689 -0.854,-10.178c1.566,-4.489 9.842,-20.475 11.178,-23.595c1.331,-3.119 5.469,-11.112 6.693,-12.865c1.224,-1.753 5.167,-4.776 6.886,-6.534c0,0 2.954,-2.637 4.814,-3.156c1.856,-0.517 5.449,-1.55 6.559,-2.306c1.108,-0.758 2.711,-1.892 3.706,-1.778c0.995,0.112 3.586,-1.528 4.333,-1.414c0.746,0.118 3.218,-1.151 4.086,-1.16c0.871,-0.009 5.085,-0.799 6.319,-1.559c1.234,-0.758 7.058,-2.186 9.654,-3.331c2.597,-1.145 7.425,-2.564 9.039,-2.706c1.615,-0.14 5.454,-1.05 6.198,-1.059c0.746,-0.009 2.606,-0.276 3.726,-0.289c1.117,-0.013 2.723,-0.897 4.462,-0.793c1.738,0.108 7.077,-0.323 8.072,-0.085c0.997,0.239 5.721,0.56 7.208,0.42c1.49,-0.139 10.202,1.381 11.322,1.62c1.121,0.236 7.608,2.9 8.486,3.759c0.879,0.86 7.772,6.625 11.529,9.567c3.758,2.941 5.407,6.152 7.287,7.623c1.878,1.471 4.895,2.663 5.883,4.41c0.946,1.668 1.25,7.404 -0.202,9.835c-1.078,1.808 -0.808,5.823 -1.682,8.079c-2.614,6.742 -5.181,1.498 -5.789,2.747c-0.607,1.248 -6.567,13.72 -5.826,20.201c0.222,1.944 -0,3.733 6.622,13.12c4.55,6.454 5.478,5.767 7.263,8.883c1.676,2.929 -1.6,9.563 -1.56,13.289c0.038,3.725 0.73,10.426 0.496,11.673c-0.236,1.245 -1.632,9.954 -1.309,17.032c0.325,7.076 0.589,8.689 0.625,12.041c0.034,3.353 2.818,8.044 0.71,8.316c-2.108,0.272 -1.923,-0.834 -3.605,-0.333c-3.467,1.029 -0.339,3.109 -5.294,4.402c-2.407,0.628 -6.345,0.439 -6.219,-0.803c0.224,-2.24 1.799,-5.858 3.643,-7.862c1.842,-2.01 2.678,-5.124 2.846,-12.702c0.168,-7.581 -0.093,-20.372 -0.122,-23.104c-0.028,-2.733 -0.319,-6.704 -1.839,-9.421c-1.519,-2.716 -2.924,-6.305 -4.18,-7.532c-1.252,-1.229 -9.798,-10.329 -11.436,-12.548c-1.638,-2.219 -6.278,-6.269 -7.908,-7.866c-1.632,-1.597 -4.911,-6.034 -4.524,-4.797c0.386,1.24 2.046,5.319 3.19,7.794c1.144,2.473 2.535,4.941 1.557,6.442c-0.976,1.502 -3.19,3.636 -5.291,4.653c-2.101,1.016 -3.94,3.396 -6.396,6.03c-2.457,2.635 -6.633,6.781 -10.075,10.294c-3.441,3.515 -5.142,5.143 -7.603,9.397c-1.951,3.375 -3.385,8.732 -3.999,9.234c-0.617,0.505 -1.109,1.006 -1.49,0.14c-0.383,-0.865 -0.872,-0.115 -1.356,1.133c-0.483,1.247 -2.066,4.244 -5.652,5.775c-3.588,1.527 -5.325,1.546 -5.325,1.546c-0,-0 -1.607,0.886 -1.247,-0.235c0.362,-1.124 2.687,-4.502 2.687,-4.502c-0,-0 0.348,-2.113 1.334,-2.994c0.986,-0.881 1.204,-3.616 1.694,-4.241c0.492,-0.626 1.716,-2.255 1.83,-3.126c0.116,-0.871 1.333,-3.119 3.174,-5.126c1.843,-2.007 15.335,-18.051 16.802,-20.426c1.464,-2.376 3.542,-5.504 3.52,-7.616c-0.024,-2.111 0.314,-5.593 -2.352,-10.904c-2.664,-5.314 -3.054,-6.677 -3.424,-6.673c-0.374,0.004 -10.397,3.713 -12.755,3.737c-2.361,0.027 -5.318,2.293 -6.682,2.432c-1.365,0.138 -5.708,0.558 -6.313,2.054c-0.605,1.498 -2.622,22.071 -3.068,26.707c0,-0 -0.528,8.858 -1.37,11.35c-0.842,2.494 -0.689,17.026 -0.531,20.131c0.156,3.104 0.359,10.429 1.125,12.285c0.765,1.855 1.076,7.814 0.714,8.687c-0.363,0.875 -0.74,0.506 -1.245,-0.235c-0.506,-0.74 -0.609,1.125 -0.849,1.996c-0.239,0.873 -1.444,4.364 -2.561,4.376c-1.118,0.011 -5.456,0.929 -6.703,0.569c-1.247,-0.36 -1.751,-1.101 -1.137,-1.853c0.612,-0.751 2.96,-1.892 2.951,-2.888c-0.012,-0.993 0.979,-1.378 1.094,-2.123c0.117,-0.747 0.174,-7.083 0.283,-8.45c0.109,-1.366 -0.037,-15.278 -0.065,-17.762c-0.026,-2.484 0.539,-7.708 -0.727,-10.055c-1.267,-2.346 -1.97,-10.039 -2.009,-13.641c-0.038,-3.603 0.765,-9.822 -0.527,-14.528c-1.292,-4.709 -0.974,-9.803 -3.206,-9.407c-2.231,0.398 -4.013,1.937 -5.812,2.435c-1.859,0.516 -2.77,1.274 -1.767,2.257c0.759,0.743 1.061,1.464 1.085,3.7c0.041,3.849 -0.523,4.673 -0.758,5.918c-0.208,1.103 0.031,2.91 0.618,4.271c0.737,1.709 2.085,6.718 3.096,8.447c1.182,2.014 8.028,9.693 7.315,12.682c-0.94,3.933 -4.783,5.889 -6.647,5.909c-1.862,0.021 -5.107,-1.437 -8.136,-5.876c-0.546,-0.802 -1.467,-3.346 -2.034,-4.451c-0.762,-1.481 -2.257,-1.838 -2.257,-1.838c0,-0 -0.096,2.609 -1.061,5.352c-0.572,1.628 -1.085,3.116 -1.312,4.982c-0.228,1.865 -3.141,20.032 -3.453,25.749c-0.198,3.616 -1.163,7.468 -0.398,9.322Z" style="fill-rule:nonzero;"/>
  </g>
  <g id="FIGHTsound-youwin" sound="3F-Fightfail-2">
    <rect x="1278" y="1860" width="240" height="177" style="fill:#fff;stroke:#020000;stroke-width:2.5px;"/>
    <g>
      <path d="M1454.74,1935.39c0,-0 1.304,2.172 2.61,3.261c1.3,1.085 4.993,3.256 6.517,6.517c1.519,3.258 3.474,10.644 5.865,12.816c2.389,2.175 3.475,8.257 9.128,11.949c5.647,3.698 7.603,5.649 10.424,7.388c2.827,1.739 6.085,7.825 8.477,12.169c2.389,4.343 6.951,12.165 8.256,13.034c1.305,0.869 2.824,3.259 2.824,4.128c-0,0.869 -0.215,3.042 -0.215,3.042c-0,0 1.735,1.085 1.303,3.479c-0.434,2.389 -2.392,3.038 -2.392,3.038l-2.39,1.305c0,-0 -2.606,0.22 -4.779,-1.52c-2.171,-1.739 -5.43,-7.17 -6.955,-9.995c-1.519,-2.823 -3.692,-11.515 -7.167,-12.169c-3.478,-0.65 -6.517,-1.299 -6.517,-1.299c-0,-0 1.301,5.647 2.171,7.821c0.868,2.17 1.954,10.864 3.042,11.296c1.084,0.437 1.303,1.739 2.609,3.694c1.303,1.958 -0.655,4.131 -0.655,4.131c-0,-0 1.304,2.605 0.218,4.562c-1.088,1.954 -4.564,2.169 -5.432,1.3c-0.868,-0.87 -3.476,-7.601 -5.648,-13.469c-2.172,-5.867 -3.911,-11.734 -6.301,-12.169c-2.391,-0.435 -4.563,-2.605 -4.563,-2.605c0,0 -13.687,-0.652 -19.118,-4.781c-5.434,-4.128 -11.299,-8.036 -14.993,-13.034c-3.695,-4.998 -11.734,-12.169 -16.297,-14.993c-4.564,-2.823 -18.031,-3.477 -23.899,-4.563c-5.863,-1.089 -11.515,-1.089 -18.252,-4.347c-6.734,-3.258 -11.95,-6.738 -13.254,-5.867c-1.301,0.87 -1.367,2.47 -7.816,3.478c-6.956,1.089 -18.037,-3.039 -24.123,-6.735c-0,0 -9.555,-4.346 -12.383,-4.781c-2.825,-0.433 -7.603,0.435 -12.387,0.435c-4.777,-0 -7.601,-3.912 -7.601,-7.169c0,-3.261 1.736,-5.215 1.736,-5.215c0,0 -1.519,-5.867 -1.952,-6.953c-0.434,-1.087 -2.172,-2.61 -2.172,-2.61l-0.221,-1.737l-1.52,-0.868c0,0 -1.519,-1.305 -0.653,-3.261c0.869,-1.954 1.524,-3.258 1.524,-3.258c-0,-0 0.87,-4.345 -0,-5.431c-0.871,-1.089 0.649,-5.65 1.953,-6.736c1.305,-1.086 1.305,-1.74 1.305,-1.74c0,0 -2.388,-2.824 -3.044,-4.562c-0.652,-1.737 1.304,-2.39 3.044,-1.737c1.736,0.65 4.778,1.303 4.778,1.303c0,-0 0.653,-0.218 1.303,-0.654l0.655,-0.434c0,-0 -0.87,-8.908 1.735,-10.211c2.61,-1.305 5.654,-0.437 6.739,1.087c1.086,1.522 2.388,2.824 2.388,2.824c0,-0 3.693,3.259 5.867,3.476c2.172,0.22 12.819,2.39 16.731,1.52c3.91,-0.867 15.644,-1.085 19.337,-0c3.693,1.087 26.071,15.644 29.983,17.816c3.912,2.174 19.119,8.477 20.858,9.778c1.739,1.303 16.077,7.386 18.253,8.038c2.172,0.652 10.865,4.129 12.817,4.562l1.954,0.435c0,0 1.522,-4.345 2.61,-4.561c1.084,-0.219 -0,-1.737 1.303,-2.172c1.304,-0.434 3.695,-2.609 4.127,-3.479c0.435,-0.867 3.04,-4.778 4.998,-6.951c1.955,-2.174 15.644,-17.599 17.816,-19.119c2.17,-1.523 6.082,-7.606 13.689,-8.693c7.606,-1.083 17.38,5.433 17.38,5.433c-0,0 7.824,8.257 8.039,21.945c0.219,13.687 -6.082,3.042 -8.692,-2.825c-2.606,-5.867 -3.259,-9.777 -6.302,-11.297c-3.038,-1.523 -7.818,-5.651 -11.294,-0.654c-3.478,4.998 -10.214,14.123 -14.341,18.903c-4.127,4.78 -9.125,11.516 -10.211,13.47c-1.085,1.958 -1.739,2.825 -1.739,2.825l-0,1.523l-1.088,0.873Z" style="fill-rule:nonzero;"/>
      <path d="M1298.38,1927.64l1.016,-0.291c0,0 -0.579,-2.027 -1.159,-2.75c-0.576,-0.724 -1.45,-1.593 -1.45,-1.593c-0,0 -0,1.736 0.436,2.752c0.439,1.011 1.157,1.882 1.157,1.882Z" style="fill:#fff;fill-rule:nonzero;"/>
      <path d="M1302.73,1925.18l1.737,-1.884c0,0 0.435,1.74 0,1.74c-0.434,0.001 -1.737,0.144 -1.737,0.144Z" style="fill:#fff;fill-rule:nonzero;"/>
      <path d="M1305.18,1922.72l0.434,-0.867c0,-0 0.436,0.433 0.436,1.303c0,0.87 -0.577,1.303 -0.577,1.303l-0.293,-1.739Z" style="fill:#fff;fill-rule:nonzero;"/>
      <path d="M1322.13,1919.97c-0,-0 -1.159,-2.172 -4.347,-1.737c-3.186,0.435 -7.242,0.435 -7.965,1.015c-0.723,0.578 -3.04,1.882 -3.04,1.882c0,0 0.291,0.871 0.144,1.593l-0.144,0.726c0,0 5.648,-0.869 6.807,-1.16c1.157,-0.288 8.545,-2.319 8.545,-2.319Z" style="fill:#fff;fill-rule:nonzero;"/>
    </g>
  </g>
</svg>
