<?xml version="1.0" encoding="UTF-8" standalone="no"?>
<!DOCTYPE svg PUBLIC "-//W3C//DTD SVG 1.1//EN" "http://www.w3.org/Graphics/SVG/1.1/DTD/svg11.dtd">
<svg width="100%" height="100%" viewBox="0 0 1688 2200" version="1.1" xmlns="http://www.w3.org/2000/svg" xmlns:xlink="http://www.w3.org/1999/xlink" xml:space="preserve" xmlns:serif="http://www.serif.com/" style="fill-rule:evenodd;clip-rule:evenodd;stroke-linecap:round;stroke-linejoin:round;stroke-miterlimit:1.5;">
  <rect id="FIN" x="0" y="0" width="1688" height="2200" style="fill:none;"/>
  <path id="Lyric-Text" serif:id="Lyric Text" d="M782.833,537.233l-0.4,0c-2,0.1 -2.4,1.6 -2.4,3.3c0,1.3 0.3,2.7 0.3,3.9l0,0.4c-0.4,6.4 -0.3,12.7 -0.6,19l0,1.1c0,2.8 0.5,5.6 0.6,8.3l0,1c0,2.8 -0.5,5.7 -0.8,8.4c-0.3,3.1 -0.5,6.4 -0.6,9.6l0,1.1c0,3.3 0.8,4.5 4.5,5.1c0.7,0.1 1.5,0.2 2.4,0.2c2,0 4,-0.5 4.5,-2.8c0.1,-0.7 0.2,-1.6 0.2,-2.5c0,-2.3 -0.5,-5 -0.5,-7.2c0,-3 0,-6.4 -0.2,-9.4l0,-2c0,-2.4 0.5,-4.3 3.6,-5c1,-0.2 2,-0.3 3,-0.3c1.9,0 3.6,0.3 5.5,0.3c1.3,0 3.7,0.5 5.8,0.5c1.3,0 2.5,-0.3 3,-1c0.2,-0.3 0.3,-1.5 0.3,-3c0,-2.3 -0.2,-5.1 -0.8,-5.5c-0.4,-0.1 -0.8,-0.2 -1.4,-0.2c-1.1,0 -2.6,0.3 -3.3,0.4c-0.4,0 -0.8,0.1 -1.3,0.1c-1.2,0 -2.3,-0.1 -3.3,-0.3c-1,-0.1 -1.7,-0.2 -2.6,-0.2c-0.5,0 -1.1,0.1 -1.8,0.2c-0.6,0.1 -1.8,0.4 -2.9,0.4c-0.3,0 -0.8,0 -1,-0.2c-2.5,-1.2 -2.7,-4.9 -2.8,-7.2l0,-0.7c0,-2.6 1,-5.7 3.7,-6.3c0.6,0 1.3,-0.1 1.8,-0.1c2.3,0 5.5,0.6 6.9,0.6l3.5,0c0.9,0 2.4,0.4 3.6,0.4c0.4,0 0.7,-0.1 1,-0.2c1.1,-0.4 1.3,-1.1 1.3,-2l0,-1.3c0,-0.9 0.2,-2.1 0.2,-3.2c0,-0.4 0,-0.8 -0.1,-1.2c-0.6,-1.8 -2.5,-2.2 -4.5,-2.2c-1.2,0 -2.5,0.2 -3.5,0.2c-3,0 -6.1,-0.4 -9.1,-0.4c-0.8,0 -1.5,0.1 -2.3,0.1c-1.5,0.1 -3,0.4 -4.4,0.4l-0.4,0c-1.7,0 -3.2,-0.6 -4.7,-0.6Z" style="fill-rule:nonzero;"/>
  <path d="M826.933,538.633c-0.6,0.7 -0.8,1.8 -0.8,3c0,2.1 0.7,4.5 0.7,5.9c0.2,2.1 0.3,4.2 0.3,6.2c0,4.1 -0.3,8.3 -0.3,12.4c0,6.4 -0.2,13 -0.2,19.5c0,2.6 -0.5,5.2 -0.5,7.7c0,0.6 0,1.2 0.1,1.7c0.4,3.1 2.5,3.3 5,3.3l2.1,0c3.8,0 4.5,-1.6 4.5,-4.6l0,-1.3c0,-8.2 -0.9,-16.3 -0.9,-24.6c0,-5.8 0.9,-11.6 0.9,-17.5l0,-2c-0.1,-0.5 -0.1,-0.9 -0.1,-1.4c0,-2 0.2,-4 0.4,-6l0,-0.7c0,-2 -0.6,-2.5 -2.3,-2.5l-0.8,0c-1.7,0 -3.5,-0.4 -5.1,-0.4c-0.3,0 -0.6,0.1 -1,0.1c-0.9,0.2 -1.6,0.6 -2,1.2Z" style="fill-rule:nonzero;"/>
  <path d="M870.033,549.233c-3.6,-3 -6.2,-7 -9.2,-10.6l-0.3,-0.4c-1,-1.3 -3.7,-4.5 -5.5,-4.5c-0.6,0 -1.1,0.4 -1.5,1.3c0,0.2 -0.1,0.6 -0.1,0.9c0,1.3 0.5,2.8 0.5,3.8l0,1.5c0,2 -0.2,3.9 -0.2,5.9c0,0.8 0.1,1.7 0.2,2.6c0.6,6.4 1,13 1,19.5c0,5.4 0.6,10.9 0.6,16.4l0,3c-0.1,1.6 -0.9,4.5 -0.9,6.7c0,1.2 0.2,2.2 0.8,2.9c0.7,0.8 3.1,1 5.2,1c1.7,0 3.2,-0.1 4,-0.3c1.5,-0.3 1.9,-1.7 1.9,-3.2c0,-1.7 -0.5,-3.7 -0.5,-5c0,-3.3 -0.1,-6.5 -0.2,-9.8c0,-1.6 -0.7,-6.9 -0.7,-11.4c0,-3.8 0.5,-7.2 2.2,-7.2c1.8,0 5,3 6.5,4.4l0.2,0.3c2.6,2.2 5.2,4.5 7.5,6.9c4.4,4.5 9,8.6 13.2,13.3c1.9,2.2 4.3,4.1 6.5,6c1.8,1.6 4.9,6 7.4,6.2l0.4,0c1.5,0 2,-1.1 2,-2.5c0,-1.6 -0.5,-3.5 -0.6,-4.5c-0.4,-3.5 -0.2,-7.2 -0.4,-10.5c-0.4,-5.2 -0.5,-10.4 -0.5,-15.7c0,-8.3 0.4,-16.6 1.2,-24.8l0,-0.5c0,-3.3 -3.1,-3.8 -6,-4.1c-1,-0.1 -1.9,-0.2 -2.7,-0.2c-1.5,0 -2.5,0.5 -3.1,2.3c-0.3,0.8 -0.4,1.6 -0.4,2.4c0,1.8 0.5,3.5 0.5,5.3c0.1,3.2 0.1,6.1 0.5,9.3c0.5,3.3 0.9,6.4 0.9,9.8c0,1.2 0.1,3 0.1,4.9c0,1.7 -0.1,3.5 -0.9,4.5c-0.3,0.6 -1,0.9 -1.6,1.1c-0.8,-1.1 -2.5,-2.8 -3.5,-3.8c-1.1,-1.1 -2.5,-1.9 -3.6,-2.8c-2.9,-2.3 -4.9,-5 -7.4,-7.6c-4.2,-4.6 -8.9,-8.6 -13.5,-12.8Z" style="fill-rule:nonzero;"/>
  <g id="FAWN-ICON" sound="FAWN" serif:id="FAWN ICON">
    <rect x="758" y="646" width="172" height="137.19" style="fill:#fff;stroke:#000;stroke-width:1.56px;"/>
    <path id="fawn" d="M790.071,733.366c2.397,-0.72 8.585,-6.63 9.268,-9.551c0.722,-3.096 0.507,-12.819 -0.395,-14.352c-1.185,-2.014 -1.377,-7.966 0.186,-9.469c2.394,-2.302 12.62,-6.853 14.834,-8.256c1.47,-0.931 3.358,-0.808 5.034,-0.721c1.676,0.087 10.569,-0.523 17.128,-0.336c6.559,0.187 12.412,-0.733 15.179,-1.048c2.766,-0.315 11.154,-1.668 14.378,-0.325c2.016,0.84 8.605,1.973 11.811,-0.917c3.204,-2.89 5.522,-9.35 5.776,-11.218c0.301,-2.212 1.275,-4.855 1.42,-6.026c0.202,-1.637 -0.098,-2.205 -0.3,-2.417c-0.848,-0.892 -0.849,-1.369 -1.016,-1.748c-0.166,-0.381 -1.246,-1.448 -1.153,-1.891c0.069,-0.323 -0.1,-0.554 -1.021,-0.695c-0.921,-0.14 -3.773,-1.439 -4.209,-3.326c-1.194,-5.182 -0.341,-8.019 0.771,-7.962c1.111,0.059 6.375,3.951 6.42,4.882c0.045,0.931 0.946,2.895 1.651,3.27c1.107,0.588 2.697,-0.846 6.319,-0.508c1.673,0.157 3.436,1.013 3.743,0.952c0.235,-0.045 1.672,-1.562 1.72,-2.488c0.048,-0.926 0.822,-2.438 2.915,-3.565c2.185,-1.176 3.412,-1.652 3.894,-1.998c0.482,-0.347 1.66,-0.541 1.939,0.632c0.267,1.126 -0.028,4.927 -1.389,7.003c-0.804,1.226 -2.065,2.599 -3.995,3.258c-1.001,0.342 -1.846,0.155 -1.884,0.894c-0.038,0.741 0.061,2.418 -0.422,2.764c-0.481,0.346 -0.32,0.819 -0.353,1.467c-0.034,0.648 -0.364,1.653 -0.564,1.921c-0.2,0.268 -0.386,1.157 -0.345,1.282c0.231,0.694 0.663,1.52 0.528,2.349c-0.136,0.829 -0.471,0.356 -0.612,1.277c-0.141,0.921 -0.497,1.064 -0.916,1.337c-0.593,0.387 -1.055,1.469 -1.417,1.546c-0.829,0.175 -1.186,-0.313 -1.224,0.427c-0.038,0.742 -0.421,1.582 -0.279,2.425c0.142,0.844 0.266,3.822 -0.128,4.265c-0.394,0.443 -2.457,4.422 -2.562,6.46c-0.106,2.037 -0.866,7.754 -3.524,10.681c-0,0 -4.535,4.168 -4.586,5.151c-0.051,0.983 0.534,5.79 0.28,6.309c-0.255,0.517 -1.038,1.008 -1.383,1.823c-0.346,0.816 -1.358,4.252 -1.756,4.611c-0.397,0.358 -2.573,1.383 -2.161,3.679c0.412,2.297 2.727,5.904 4.687,7.598c1.96,1.692 6.302,5.71 6.681,7.171c0.379,1.459 1.088,2.406 1.046,3.237c-0.044,0.832 -0.031,2.046 1.115,4.834c1.144,2.79 3.589,9.741 3.969,11.201c0.38,1.46 1.005,2.554 1.003,4.071c-0.003,1.515 0.431,4.875 0.081,5.767c-0.35,0.891 0.585,4.807 0.131,4.783c-0.453,-0.023 -1.381,0.308 -2.656,-1.426c-1.276,-1.734 -1.681,-2.665 -2.021,-3.441c-0.339,-0.775 -0.185,-2.284 0.073,-2.878c0.258,-0.592 0.443,-2.706 0.11,-2.117c-0.334,0.589 -0.739,1.099 -0.947,0.709c-0.206,-0.389 0.263,-0.668 0.009,-3.108c-0.253,-2.44 -0.339,-5.174 -1.008,-6.877c-0.67,-1.703 -2.094,-4.96 -2.741,-7.117c-0.646,-2.157 -1.931,-5.18 -4.042,-6.881c-2.111,-1.702 -10.305,-5.994 -11.293,-7.41c-0.988,-1.416 -1.948,-1.92 -3.06,-2.433c-1.11,-0.512 -2.838,-0.829 -3.249,-1.684c-0.41,-0.856 -0.272,-2.061 -1.036,-1.949c-0.764,0.112 -3.713,-0.041 -4.043,0.473c-0.33,0.514 -2.993,8.034 -3.224,9.539c-0.229,1.504 -0.477,9.225 -0.814,9.89c-0.338,0.665 -0.624,1.788 -0.822,2.687c-0.198,0.9 -0.174,1.887 -0.711,2.012c-0.537,0.124 -0.423,2.329 -0.542,3.156c-0.119,0.829 0.123,3.494 -0.315,4.609c-0.437,1.115 -2.529,6.39 -1.734,10.071c0.796,3.681 3.648,7.164 2.96,7.279c-0.689,0.117 -1.695,0.52 -2.528,0.477c-0.832,-0.043 -3.55,-0.26 -3.574,-1.246c-0.025,-0.987 -0.076,-4.403 -0.569,-3.67c-0.493,0.733 -0.902,1.319 -1.249,0.694c-0.348,-0.624 -0.298,-3.048 0.446,-4.222c0.743,-1.175 1.263,-2.439 1.841,-6.275c0.577,-3.837 1.116,-6.919 1.285,-8.73c0.17,-1.811 0.471,-3.235 0.231,-4.461c-0.24,-1.226 0.072,-4.318 0.046,-5.306c-0.023,-0.986 -0.468,-8.516 -0.506,-10.717c-0.038,-2.201 1.025,-6.62 0.17,-6.209c-0.856,0.41 -14.247,1.311 -16.927,0.337c-2.68,-0.973 -4.296,-1.966 -4.765,-1.686c-0.47,0.278 -3.083,2.418 -4.862,6.041c-1.78,3.624 -4.678,6.886 -5.672,8.503c-0,0 -2.754,4.862 -2.757,6.378c-0.002,1.516 0.461,7.227 2.982,14.182c2.522,6.955 2.169,7.922 4.105,10.069c0.863,0.957 2.892,5.321 1.905,5.346c-0.949,0.024 -2.711,0.079 -3.547,0.112c-0.76,0.029 -0.174,-1.707 -1.256,-2.328c-1.185,-0.679 -3.989,0.987 -3.605,-2.026c0.107,-0.838 -0.173,-1.266 -0.142,-3.116c0.038,-2.197 -3.207,-12.753 -4.16,-14.849c-0.952,-2.096 -1.844,-5.003 -2.812,-7.198c-1.208,-2.737 -3.016,-3.912 -2.206,-5.725c0.333,-0.744 3.616,-5.423 5.024,-7.701c1.407,-2.277 2.451,-4.878 2.51,-6.012c-0,0 0.161,-1.659 -0.714,-0.87c-0.875,0.789 -6.172,4.988 -7.401,5.303c-1.23,0.315 -7.785,5.36 -8.568,5.851c-0.785,0.49 -3.559,-0.107 -6.135,7.189c-2.576,7.296 -4.902,18.551 -6.066,20.539c-1.165,1.986 -3.553,7.094 -5.032,7.852c-1.48,0.758 -1.886,1.267 -2.202,0.038c-0.315,-1.229 0.235,-4.537 0.819,-5.569c0.584,-1.031 2.052,-1.561 1.319,-2.054c-0.732,-0.493 -1.199,-1.731 -0.34,-2.218c0.859,-0.486 1.557,-2.269 2.115,-2.772c0.557,-0.501 2.911,-6.445 3.371,-9.454c0.459,-3.009 0.836,-5.141 1.597,-7.424c1.615,-4.846 0.75,-10.124 2.622,-10.687Z" style="fill-rule:nonzero;"/>
  </g>
<a xlink:href="START.svg">
  <g id="NEXTLINK">
    <path d="M913.867,1707c-0,-19.317 -15.683,-35 -35,-35l-70,0c-19.317,0 -35,15.683 -35,35l-0,78c-0,19.317 15.683,35 35,35l70,-0c19.317,-0 35,-15.683 35,-35l-0,-78Z" style="fill:#fff;"/>
    <path id="next" d="M777.867,1686.5c-0.467,-0.2 -2.067,-0.733 -3.867,-0.733c-1.8,-0 -4.267,1.6 -5.133,3.266c-0.2,0.4 -0.467,0.8 -0.8,1c-0.2,0.067 -0.334,0.067 -0.4,0.067c-0.334,-0 -0.6,-0.2 -0.734,-0.4c-0.2,-0.4 -0.266,-0.933 -0.266,-1.467l-0,-0.466c-0,-1.134 -1.2,-1.6 -2.067,-1.6c-1.667,-0 -1.867,0.533 -1.933,0.866c-0,0.067 -0.067,0.134 -0.067,0.267c-0,0.2 0.067,0.533 0.133,0.867c0.067,0.466 0.134,1 0.2,1.466c0.134,2.2 0.134,7.134 0.134,10.067c-0,2.867 -0.134,5.867 -0.6,9.733c-0.067,0.667 -0.067,1.2 -0.067,1.534c-0,0.4 0.067,0.6 0.333,0.733c0.134,0.067 0.4,0.067 1,0.067c0.534,-0.067 1.2,-0.134 2,-0.134c1.667,0 2.067,-1.133 2.067,-2.4c-0,-0.933 -0.267,-2 -0.4,-2.8c-0.267,-1.333 -0.333,-3.8 -0.333,-6.266c-0,-1.334 -0,-2.6 0.066,-3.734c0.2,-3.6 2.6,-5.6 4.867,-6.133c0.867,-0.2 1.467,-0.267 2.067,-0.267c0.8,0 1.333,0.134 2.2,0.467c0.133,-0 0.333,0.2 0.466,0.2c0.2,-0 0.267,-0.067 0.334,-0.267c0.133,-0.066 0.266,-0.333 0.333,-0.666c0.2,-0.334 0.333,-0.734 0.467,-1.2c0.2,-0.667 0.333,-1.134 0.333,-1.4c-0,-0.334 -0.133,-0.534 -0.333,-0.667Z" style="fill-rule:nonzero;"/>
    <path d="M808.533,1698.7c0,-0.067 0.067,-0.133 0.067,-0.267c-0,-0.066 -0.067,-0.266 -0.067,-0.466l-0.266,-1.4c-0.467,-2.134 -2.8,-5.667 -4.534,-7.734c-1.733,-1.866 -5.066,-3 -7.866,-3.133l-0.734,-0c-2.866,-0 -5.133,1.4 -7.466,2.933l-0.534,0.334c-2.533,1.533 -4.333,6.6 -4.466,10.6l-0,0.2c-0,3.8 2.866,8 5.133,10.533c2.2,2.333 6.733,2.4 9,2.4c2.133,-0 3.867,-0.533 5,-1.133c0.467,-0.267 1.133,-0.8 1.933,-1.467c0.734,-0.667 1.534,-1.333 2.4,-2c0.667,-0.467 1,-1 1,-1.533c0,-0.6 -0.333,-1.2 -1.333,-2c-0.333,-0.267 -0.667,-0.4 -0.867,-0.4c-0.333,-0 -0.533,0.2 -0.8,0.4c-0.466,0.533 -0.8,1.2 -1.066,1.866c-0.534,1.2 -3.2,2.534 -6.534,2.534l-0.533,-0c-2.2,-0.067 -4.067,-0.734 -5.733,-2.067l-1,-0.8c-1.067,-0.933 -2.134,-3.6 -2.134,-5.267l0,-0.466c0.2,-0.8 1.8,-1.267 3.8,-1.334c1.667,0 3.534,0.067 4.534,0.067c1.4,-0 5.266,0.067 8.266,0.067c1.534,-0 2.867,-0 3.6,-0.067c1.134,-0 1.2,-0.267 1.2,-0.4Zm-4.733,-4.4c0.2,0.333 0.267,0.6 0.267,0.867c-0,0.733 -0.6,1.2 -1.8,1.2c-2.6,-0 -5.467,0.066 -6.6,0.066c-1.2,0 -4.734,-0.066 -5.467,-0.266c-0.733,-0.067 -2.333,-0.934 -2.333,-2.134c-0,-0.4 0.133,-0.8 0.466,-1.2c1.067,-1.466 4,-3.466 7.467,-3.466l0.267,-0c3.133,0.133 4.2,1.066 5.733,2.533c0.667,0.667 1.6,1.533 2,2.4Z" style="fill-rule:nonzero;"/>
    <path d="M830.867,1704.23c-0,-2.133 -1.467,-3.733 -2.8,-5.066c-1.067,-1.067 -5.134,-3.267 -6.534,-3.934c-1.533,-0.666 -3,-1.8 -3,-3.466c0,-1.667 1.334,-2.334 3,-2.334l0.6,0c2.134,0.067 3.267,0.8 4.867,2.134c0.533,0.466 0.8,0.533 0.933,0.533c0.2,-0 0.334,-0.133 0.467,-0.267l0.467,-0.533c0.133,-0.2 0.333,-0.4 0.4,-0.6c0.2,-0.267 0.266,-0.533 0.266,-0.733c0,-0.267 -0.066,-0.534 -0.333,-0.867c-0.933,-1 -3.667,-2.867 -7.667,-3l-0.466,-0c-1.134,-0 -1.734,0.133 -2.2,0.333c-0.534,0.267 -0.934,0.667 -1.334,1.067c-0.933,0.733 -2.066,2.067 -2.2,3.6c0,0.267 -0.066,0.533 -0.066,0.733c-0,1.534 0.333,2.8 1.266,4c1.067,1.467 3.467,2.934 6,4c2.667,1.067 5.2,3.134 5.2,5.334c0,2.266 -1.866,3.6 -4.8,3.8c-0.2,-0 -0.4,0.066 -0.533,0.066c-2.867,0 -4.867,-2.4 -5.333,-3.333c-0.134,-0.467 -0.667,-0.733 -1.067,-0.733c-0.267,-0 -0.667,0.133 -1.133,0.2c-1,0.266 -1.334,1.066 -1.334,1.866c0,0.267 0,0.6 0.2,0.867c0.467,0.867 2.2,2.2 3.8,3.2c1.467,0.8 4.067,1.333 5.867,1.333c1.6,0 3.533,-1.2 5.267,-2.333c1.466,-1 2.133,-3.667 2.2,-5.867Z" style="fill-rule:nonzero;"/>
    <path d="M850.067,1688.1c-0,-0.533 -0.267,-0.733 -0.8,-0.933c-0.334,-0.067 -0.734,-0.067 -1.134,-0.067c-0.466,-0 -0.866,-0.067 -1.333,-0.067l-1.133,-0.133c-0.334,-0 -0.6,-0.067 -0.867,-0.133c-0.6,-0.2 -1,-0.667 -1,-1.334c-0,-0.933 -0,-2.533 0.133,-5.133l0,-0.267c0,-1 -0.2,-1.333 -0.4,-1.466c-0.333,-0.267 -1,-0.267 -1.4,-0.267l-0.2,-0c-1,-0 -1.6,0.8 -1.666,1.2c-0,0.067 -0.067,0.2 -0.067,0.267c-0,0.333 0.067,0.866 0.133,1.533c0.134,0.867 0.267,2 0.267,3.133l-0,0.334c-0,1.2 -0.533,1.866 -1.4,2.066c-0.267,0.067 -0.533,0.067 -0.8,0.067c-0.467,-0 -1.067,-0.067 -1.533,-0.067c-0.934,0 -1.467,0.6 -1.667,2.6c-0,0.067 -0.067,0.134 -0.067,0.2c0,0.4 0.267,0.534 0.8,0.667c0.334,0.067 0.667,0.067 1,0.067c0.334,-0 0.667,-0.067 0.934,-0.067c1.066,-0 2.466,0.8 2.466,2.267c0,1.066 0.2,3.4 0.2,6.4c0,3 -0.4,8.733 -0.4,11.333c0,1.267 0.2,1.6 0.4,1.733l0.534,0.134l1.2,-0c1.666,-0 2.2,-0.2 2.2,-1.067l-0,-0.467c-0.2,-1.866 -0.534,-6.666 -0.6,-9.466c-0.067,-0.934 -0.134,-2.067 -0.134,-3.2c0,-2.2 0.134,-4.467 0.2,-5.934c0.067,-1.466 0.934,-2.066 2,-2.133l0.2,-0c0.8,-0 1.534,0.2 2.334,0.267l0.266,-0c0.867,-0 1.334,-0.467 1.334,-2.067Z" style="fill-rule:nonzero;"/>
    <path d="M872.533,1711.7c0.534,-0.333 1,-0.733 1.334,-1.067c0.333,-0.4 0.666,-0.733 1,-0.933c0.4,-0.4 0.866,-0.6 1.333,-0.6c0.667,-0 1.267,0.533 1.267,1.333c-0,0.2 -0,0.4 -0.067,0.6c-0,0.067 -0.067,0.134 -0.067,0.2c0,0.6 0.667,0.667 2.534,0.8l0.333,0c1,0 1.2,-0.266 1.333,-0.533l0,-13.133c0,-2.2 -0.066,-4.534 -0.066,-6.667c-0,-1.067 -0,-2.067 0.066,-3l0,-0.333c0,-1.734 -0.866,-1.8 -2,-1.8l-0.666,-0c-0.8,-0 -1.2,0.066 -1.2,0.533c-0,0.333 0.066,0.6 0.066,0.8c0,1.067 -0.4,2 -1.2,2.267c-0.133,0.066 -0.2,0.066 -0.333,0.066c-0.467,0 -1.067,-0.333 -1.667,-0.866c-0.6,-0.534 -1.066,-1.134 -1.6,-1.667c-0.733,-0.933 -3.466,-1.733 -6,-1.733c-3.733,-0 -8,2.4 -10.066,5.266c-1.467,2.134 -2,5.467 -2.267,8.2l0,0.534c0,2.6 1.533,6.8 3.2,8.866c1.733,2.2 4.667,4.2 9.6,4.2c2.4,0 4,-0.6 5.133,-1.333Zm5.134,-12.267c-0.2,2.8 -1.134,6.134 -3.467,7.867c-1.8,1.4 -3.2,1.733 -5.267,1.733c-0.4,0 -0.8,-0.066 -1.333,-0.066c-3,-0.2 -5.533,-1.534 -6.6,-3.267c-0.867,-1.6 -1.467,-3.667 -1.467,-6l0,-0.6c0.134,-2.4 1.134,-6.467 2.4,-7.4c0.934,-0.733 3.8,-1.933 6.2,-1.933c0.4,-0 0.8,-0 1.2,0.066l1.534,0.334c0.266,-0 0.266,0.066 0.333,0.066c0.4,0.134 1,0.2 1.4,0.4c1.2,0.4 2.333,1.134 3.2,2.6l1,1.734c0.067,0.466 0.467,0.933 0.667,1.333c0.2,0.533 0.333,1.133 0.333,1.8c0,0.4 -0.067,0.867 -0.133,1.333Z" style="fill-rule:nonzero;"/>
    <path d="M907.2,1686.5c-0.467,-0.2 -2.067,-0.733 -3.867,-0.733c-1.8,-0 -4.266,1.6 -5.133,3.266c-0.2,0.4 -0.467,0.8 -0.8,1c-0.2,0.067 -0.333,0.067 -0.4,0.067c-0.333,-0 -0.6,-0.2 -0.733,-0.4c-0.2,-0.4 -0.267,-0.933 -0.267,-1.467l0,-0.466c0,-1.134 -1.2,-1.6 -2.067,-1.6c-1.666,-0 -1.866,0.533 -1.933,0.866c0,0.067 -0.067,0.134 -0.067,0.267c0,0.2 0.067,0.533 0.134,0.867c0.066,0.466 0.133,1 0.2,1.466c0.133,2.2 0.133,7.134 0.133,10.067c0,2.867 -0.133,5.867 -0.6,9.733c-0.067,0.667 -0.067,1.2 -0.067,1.534c0,0.4 0.067,0.6 0.334,0.733c0.133,0.067 0.4,0.067 1,0.067c0.533,-0.067 1.2,-0.134 2,-0.134c1.666,0 2.066,-1.133 2.066,-2.4c0,-0.933 -0.266,-2 -0.4,-2.8c-0.266,-1.333 -0.333,-3.8 -0.333,-6.266c0,-1.334 0,-2.6 0.067,-3.734c0.2,-3.6 2.6,-5.6 4.866,-6.133c0.867,-0.2 1.467,-0.267 2.067,-0.267c0.8,0 1.333,0.134 2.2,0.467c0.133,-0 0.333,0.2 0.467,0.2c0.2,-0 0.266,-0.067 0.333,-0.267c0.133,-0.066 0.267,-0.333 0.333,-0.666c0.2,-0.334 0.334,-0.734 0.467,-1.2c0.2,-0.667 0.333,-1.134 0.333,-1.4c0,-0.334 -0.133,-0.534 -0.333,-0.667Z" style="fill-rule:nonzero;"/>
    <path d="M925.6,1688.1c0,-0.533 -0.267,-0.733 -0.8,-0.933c-0.333,-0.067 -0.733,-0.067 -1.133,-0.067c-0.467,-0 -0.867,-0.067 -1.334,-0.067l-1.133,-0.133c-0.333,-0 -0.6,-0.067 -0.867,-0.133c-0.6,-0.2 -1,-0.667 -1,-1.334c0,-0.933 0,-2.533 0.134,-5.133l-0,-0.267c-0,-1 -0.2,-1.333 -0.4,-1.466c-0.334,-0.267 -1,-0.267 -1.4,-0.267l-0.2,-0c-1,-0 -1.6,0.8 -1.667,1.2c0,0.067 -0.067,0.2 -0.067,0.267c0,0.333 0.067,0.866 0.134,1.533c0.133,0.867 0.266,2 0.266,3.133l0,0.334c0,1.2 -0.533,1.866 -1.4,2.066c-0.266,0.067 -0.533,0.067 -0.8,0.067c-0.466,-0 -1.066,-0.067 -1.533,-0.067c-0.933,0 -1.467,0.6 -1.667,2.6c0,0.067 -0.066,0.134 -0.066,0.2c-0,0.4 0.266,0.534 0.8,0.667c0.333,0.067 0.666,0.067 1,0.067c0.333,-0 0.666,-0.067 0.933,-0.067c1.067,-0 2.467,0.8 2.467,2.267c-0,1.066 0.2,3.4 0.2,6.4c-0,3 -0.4,8.733 -0.4,11.333c-0,1.267 0.2,1.6 0.4,1.733l0.533,0.134l1.2,-0c1.667,-0 2.2,-0.2 2.2,-1.067l0,-0.467c-0.2,-1.866 -0.533,-6.666 -0.6,-9.466c-0.067,-0.934 -0.133,-2.067 -0.133,-3.2c-0,-2.2 0.133,-4.467 0.2,-5.934c0.066,-1.466 0.933,-2.066 2,-2.133l0.2,-0c0.8,-0 1.533,0.2 2.333,0.267l0.267,-0c0.866,-0 1.333,-0.467 1.333,-2.067Z" style="fill-rule:nonzero;"/>
    <circle cx="823.867" cy="1770" r="40" style="fill:#fff;stroke:#000;stroke-width:12.5px;"/>
    <circle cx="863.867" cy="1770" r="40" style="fill:none;stroke:#000;stroke-width:12.5px;"/>
  </g>
	</a>
	<a xlink:href="CREDITS.svg">
  <g id="NEXTLINK1" serif:id="NEXTLINK">
    <path d="M913.867,1207c-0,-19.317 -15.683,-35 -35,-35l-70,0c-19.317,0 -35,15.683 -35,35l-0,78c-0,19.317 15.683,35 35,35l70,0c19.317,0 35,-15.683 35,-35l-0,-78Z" style="fill:#fff;"/>
    <path id="next1" serif:id="next" d="M780.767,1210.37c-0,-0.267 -0,-0.534 -0.067,-0.934l-0.133,-1.333c-0.067,-1 -0.267,-1.4 -0.6,-1.4c-0.067,0 -0.267,0.067 -0.467,0.2c-1.2,0.867 -3.2,1.867 -5.933,1.867l-0.867,-0c-3.067,-0.334 -4,-0.734 -6.267,-2.334c-2.466,-1.733 -2.933,-4.866 -2.933,-7.333c-0,-2.667 0.8,-5.2 3.133,-7.067c2.4,-1.933 3.6,-2.133 6.267,-2.266l0.467,-0c2.533,-0 4.2,0.733 5.933,1.933c0.333,0.2 0.6,0.4 0.667,0.4c0.066,0 0.133,-0.067 0.2,-0.133c0.133,-0.2 0.133,-0.467 0.266,-0.867c0.067,-0.467 0.2,-1 0.2,-1.667c0.067,-0.266 0.067,-0.466 0.067,-0.666c-0,-0.667 -0.2,-1 -0.4,-1.2c-0.267,-0.2 -0.467,-0.4 -0.733,-0.534c-0.334,-0.2 -0.667,-0.333 -0.934,-0.6c-1.066,-0.666 -2.8,-0.733 -6.4,-0.933l-0.266,0c-3.6,0 -6.867,2.067 -9.267,4.2c-2.133,2 -3.333,7 -3.333,9.8l-0,0.4c0.133,2.8 1,6.267 3.933,9.2c2.867,2.867 6,3.667 8.867,3.867l0.533,-0c1.2,-0 2.2,-0.2 3.2,-0.4c1.133,-0.267 2.2,-0.734 3.4,-1.134c1.267,-0.466 1.4,-0.8 1.467,-1.066Z" style="fill-rule:nonzero;"/>
    <path d="M803.3,1186.5c-0.467,-0.2 -2.067,-0.733 -3.867,-0.733c-1.8,-0 -4.266,1.6 -5.133,3.266c-0.2,0.4 -0.467,0.8 -0.8,1c-0.2,0.067 -0.333,0.067 -0.4,0.067c-0.333,0 -0.6,-0.2 -0.733,-0.4c-0.2,-0.4 -0.267,-0.933 -0.267,-1.467l-0,-0.466c-0,-1.134 -1.2,-1.6 -2.067,-1.6c-1.666,-0 -1.866,0.533 -1.933,0.866c-0,0.067 -0.067,0.134 -0.067,0.267c0,0.2 0.067,0.533 0.134,0.867c0.066,0.466 0.133,1 0.2,1.466c0.133,2.2 0.133,7.134 0.133,10.067c-0,2.867 -0.133,5.867 -0.6,9.733c-0.067,0.667 -0.067,1.2 -0.067,1.534c0,0.4 0.067,0.6 0.334,0.733c0.133,0.067 0.4,0.067 1,0.067c0.533,-0.067 1.2,-0.134 2,-0.134c1.666,0 2.066,-1.133 2.066,-2.4c0,-0.933 -0.266,-2 -0.4,-2.8c-0.266,-1.333 -0.333,-3.8 -0.333,-6.266c-0,-1.334 -0,-2.6 0.067,-3.734c0.2,-3.6 2.6,-5.6 4.866,-6.133c0.867,-0.2 1.467,-0.267 2.067,-0.267c0.8,0 1.333,0.134 2.2,0.467c0.133,0 0.333,0.2 0.467,0.2c0.2,0 0.266,-0.067 0.333,-0.267c0.133,-0.066 0.267,-0.333 0.333,-0.666c0.2,-0.334 0.334,-0.734 0.467,-1.2c0.2,-0.667 0.333,-1.134 0.333,-1.4c0,-0.334 -0.133,-0.534 -0.333,-0.667Z" style="fill-rule:nonzero;"/>
    <path d="M833.967,1198.7c-0,-0.067 0.066,-0.133 0.066,-0.267c0,-0.066 -0.066,-0.266 -0.066,-0.466l-0.267,-1.4c-0.467,-2.134 -2.8,-5.667 -4.533,-7.734c-1.734,-1.866 -5.067,-3 -7.867,-3.133l-0.733,0c-2.867,0 -5.134,1.4 -7.467,2.933l-0.533,0.334c-2.534,1.533 -4.334,6.6 -4.467,10.6l0,0.2c0,3.8 2.867,8 5.133,10.533c2.2,2.333 6.734,2.4 9,2.4c2.134,0 3.867,-0.533 5,-1.133c0.467,-0.267 1.134,-0.8 1.934,-1.467c0.733,-0.667 1.533,-1.333 2.4,-2c0.666,-0.467 1,-1 1,-1.533c-0,-0.6 -0.334,-1.2 -1.334,-2c-0.333,-0.267 -0.666,-0.4 -0.866,-0.4c-0.334,-0 -0.534,0.2 -0.8,0.4c-0.467,0.533 -0.8,1.2 -1.067,1.866c-0.533,1.2 -3.2,2.534 -6.533,2.534l-0.534,-0c-2.2,-0.067 -4.066,-0.734 -5.733,-2.067l-1,-0.8c-1.067,-0.933 -2.133,-3.6 -2.133,-5.267l-0,-0.466c0.2,-0.8 1.8,-1.267 3.8,-1.334c1.666,0 3.533,0.067 4.533,0.067c1.4,0 5.267,0.067 8.267,0.067c1.533,-0 2.866,-0 3.6,-0.067c1.133,0 1.2,-0.267 1.2,-0.4Zm-4.734,-4.4c0.2,0.333 0.267,0.6 0.267,0.867c0,0.733 -0.6,1.2 -1.8,1.2c-2.6,-0 -5.467,0.066 -6.6,0.066c-1.2,0 -4.733,-0.066 -5.467,-0.266c-0.733,-0.067 -2.333,-0.934 -2.333,-2.134c0,-0.4 0.133,-0.8 0.467,-1.2c1.066,-1.466 4,-3.466 7.466,-3.466l0.267,-0c3.133,0.133 4.2,1.066 5.733,2.533c0.667,0.667 1.6,1.533 2,2.4Z" style="fill-rule:nonzero;"/>
    <path d="M866.1,1170.1c-0,-0.533 -0.067,-0.867 -0.133,-1c-0.267,-0.467 -0.867,-0.467 -2.067,-0.6c-0.133,0 -0.267,-0.067 -0.4,-0.067l-0.467,0c-1.266,0 -1.533,0.467 -1.666,1c-0.067,0.267 -0.067,0.534 -0.067,0.867l0,0.8l0.2,2.067c0.2,3 0.267,7.933 0.467,10.666c0.066,0.867 0.133,1.534 0.133,2.067c-0,1.267 -0.267,1.933 -1.067,2.6c-0.333,0.267 -0.666,0.4 -1,0.4c-0.4,0 -0.8,-0.133 -1.2,-0.333c-0.6,-0.334 -1.466,-0.934 -2.533,-1.6c-1.333,-0.867 -2.933,-1 -4.467,-1c-0.666,-0 -1.333,0.066 -1.933,0.066c-2.4,0.067 -5.8,2.2 -7.6,4.2c-1.667,1.934 -2.933,6.134 -2.933,9.934c-0,3.733 2,7.333 4.266,9.466c2.267,2.134 5.467,3.4 7.934,3.4c2.533,0 5.2,-0.6 7,-2.666c0.933,-1.134 1.733,-1.534 2.2,-1.534c0.8,0 1.2,0.867 1.4,1.934c0.066,0.466 0.066,0.733 0.333,0.933c0.133,0.067 0.267,0.067 0.667,0.133l1.466,0.2l0.334,0c0.8,0 0.933,-0.333 1,-0.733l-0,-1.2l-0.267,-1.533c-0.267,-1.867 -0.667,-10.134 -0.667,-13.467l0,-0.933l0.4,-4.334c0.067,-0.933 0.134,-1.733 0.134,-2.533c-0,-0.467 -0,-0.867 -0.067,-1.2c-0.067,-0.4 -0.133,-1 -0.133,-1.733c-0,-1.067 0.266,-3.6 0.266,-4l0,-0.6c0.067,-2.734 0.334,-5.667 0.334,-7.467c-0,-0.867 0.066,-1.6 0.133,-2.2Zm-4.4,26.333c0.333,1 0.533,2 0.533,2.867c0,1.2 -0.266,2.4 -0.8,3.667c-0.4,1.133 -0.933,1.933 -1.533,2.666c-0.533,0.6 -1.133,1.134 -1.667,1.734c-1.066,1.066 -3,1.466 -4.6,1.466c-0.333,0 -0.6,0 -0.8,-0.066l-1.2,-0c-0.333,-0 -0.8,-0 -1.333,-0.134c-0.933,-0.266 -2,-0.866 -3.667,-2.2c-1.6,-1.333 -2.4,-2.533 -2.733,-3.666c-0.267,-0.534 -0.267,-1 -0.333,-1.534c-0,0 -0,-0.066 -0.134,-1.533l0,-0.467c0,-2 0.667,-4.533 2.2,-6.533c1.6,-2.067 2.934,-2.933 5.667,-2.933l0.8,-0c3.133,0.066 5.533,0.6 6.8,2c1.067,1.2 2,2.4 2.8,4.666Z" style="fill-rule:nonzero;"/>
    <path d="M882.167,1177.57c-0.067,-1.8 -1.667,-3.467 -3.334,-3.667l-0.466,0c-1.734,0 -2.934,1.067 -3.067,2.6c0.067,2.067 1.867,3.733 3.8,3.733c2,0 2.8,-1.133 3.067,-2.666Zm-0.8,32.066c-0.2,-1.533 -0.8,-7.333 -0.8,-10.2c-0,-1.333 -0.067,-2.666 -0.067,-4.066c0,-1.8 0.067,-3.667 0.267,-5.934c-0,-0.4 0.066,-0.733 0.066,-1.066c0,-2.134 -0.666,-2.267 -1.733,-2.267c-1.733,0 -2.133,0.4 -2.133,1.6c-0,0.2 0.066,0.4 0.066,0.733c0.134,2 0.267,7.6 0.267,10.467c0,2.867 -0.533,7.933 -0.533,10.4c-0,2.333 0.133,2.733 2.133,2.733c1.867,0 2.533,-0.866 2.533,-1.933c0,-0.133 -0.066,-0.333 -0.066,-0.467Z" style="fill-rule:nonzero;"/>
    <path d="M904.3,1188.1c0,-0.533 -0.267,-0.733 -0.8,-0.933c-0.333,-0.067 -0.733,-0.067 -1.133,-0.067c-0.467,0 -0.867,-0.067 -1.334,-0.067l-1.133,-0.133c-0.333,0 -0.6,-0.067 -0.867,-0.133c-0.6,-0.2 -1,-0.667 -1,-1.334c0,-0.933 0,-2.533 0.134,-5.133l-0,-0.267c-0,-1 -0.2,-1.333 -0.4,-1.466c-0.334,-0.267 -1,-0.267 -1.4,-0.267l-0.2,0c-1,0 -1.6,0.8 -1.667,1.2c0,0.067 -0.067,0.2 -0.067,0.267c0,0.333 0.067,0.866 0.134,1.533c0.133,0.867 0.266,2 0.266,3.133l0,0.334c0,1.2 -0.533,1.866 -1.4,2.066c-0.266,0.067 -0.533,0.067 -0.8,0.067c-0.466,0 -1.066,-0.067 -1.533,-0.067c-0.933,0 -1.467,0.6 -1.667,2.6c0,0.067 -0.066,0.134 -0.066,0.2c-0,0.4 0.266,0.534 0.8,0.667c0.333,0.067 0.666,0.067 1,0.067c0.333,-0 0.666,-0.067 0.933,-0.067c1.067,0 2.467,0.8 2.467,2.267c-0,1.066 0.2,3.4 0.2,6.4c-0,3 -0.4,8.733 -0.4,11.333c-0,1.267 0.2,1.6 0.4,1.733l0.533,0.134l1.2,-0c1.667,-0 2.2,-0.2 2.2,-1.067l-0,-0.467c-0.2,-1.866 -0.533,-6.666 -0.6,-9.466c-0.067,-0.934 -0.133,-2.067 -0.133,-3.2c-0,-2.2 0.133,-4.467 0.2,-5.934c0.066,-1.466 0.933,-2.066 2,-2.133l0.2,0c0.8,0 1.533,0.2 2.333,0.267l0.267,-0c0.866,-0 1.333,-0.467 1.333,-2.067Z" style="fill-rule:nonzero;"/>
    <path d="M926.1,1204.23c0,-2.133 -1.467,-3.733 -2.8,-5.066c-1.067,-1.067 -5.133,-3.267 -6.533,-3.934c-1.534,-0.666 -3,-1.8 -3,-3.466c-0,-1.667 1.333,-2.334 3,-2.334l0.6,0c2.133,0.067 3.266,0.8 4.866,2.134c0.534,0.466 0.8,0.533 0.934,0.533c0.2,0 0.333,-0.133 0.466,-0.267l0.467,-0.533c0.133,-0.2 0.333,-0.4 0.4,-0.6c0.2,-0.267 0.267,-0.533 0.267,-0.733c-0,-0.267 -0.067,-0.534 -0.334,-0.867c-0.933,-1 -3.666,-2.867 -7.666,-3l-0.467,0c-1.133,0 -1.733,0.133 -2.2,0.333c-0.533,0.267 -0.933,0.667 -1.333,1.067c-0.934,0.733 -2.067,2.067 -2.2,3.6c-0,0.267 -0.067,0.533 -0.067,0.733c0,1.534 0.333,2.8 1.267,4c1.066,1.467 3.466,2.934 6,4c2.666,1.067 5.2,3.134 5.2,5.334c-0,2.266 -1.867,3.6 -4.8,3.8c-0.2,-0 -0.4,0.066 -0.534,0.066c-2.866,0 -4.866,-2.4 -5.333,-3.333c-0.133,-0.467 -0.667,-0.733 -1.067,-0.733c-0.266,-0 -0.666,0.133 -1.133,0.2c-1,0.266 -1.333,1.066 -1.333,1.866c-0,0.267 -0,0.6 0.2,0.867c0.466,0.867 2.2,2.2 3.8,3.2c1.466,0.8 4.066,1.333 5.866,1.333c1.6,0 3.534,-1.2 5.267,-2.333c1.467,-1 2.133,-3.667 2.2,-5.867Z" style="fill-rule:nonzero;"/>
    <circle cx="823.867" cy="1270" r="40" style="fill:#fff;stroke:#000;stroke-width:12.5px;"/>
    <circle cx="863.867" cy="1270" r="40" style="fill:none;stroke:#000;stroke-width:12.5px;"/>
  </g>
	</a>
</svg>
