<?xml version="1.0" encoding="UTF-8" standalone="no"?>
<!DOCTYPE svg PUBLIC "-//W3C//DTD SVG 1.1//EN" "http://www.w3.org/Graphics/SVG/1.1/DTD/svg11.dtd">
<svg width="100%" height="100%" viewBox="0 0 1688 2200" version="1.1" xmlns="http://www.w3.org/2000/svg" xmlns:xlink="http://www.w3.org/1999/xlink" xml:space="preserve" xmlns:serif="http://www.serif.com/" style="fill-rule:evenodd;clip-rule:evenodd;stroke-linecap:round;stroke-linejoin:round;stroke-miterlimit:1.5;">
  <rect id="PREFREEZE" x="0" y="0" width="1688" height="2200" style="fill:none;"/>
  <g id="S">
    <g id="Root-Markers" serif:id="Root Markers">
      <path id="_5" serif:id="5" d="M1029.4,1314.57l-81.853,-69.174l62.874,-36.3l18.979,105.474Zm-28.287,-48.995l-20.371,-17.216c-0,-0 15.647,-9.034 15.647,-9.034l4.724,26.25Z"/>
    </g>
    <g id="Ring">
      <path d="M1255.43,1233c-130.888,226.701 -421.195,304.499 -647.884,173.623c-226.688,-130.876 -304.465,-421.183 -173.577,-647.884c130.889,-226.701 421.196,-304.499 647.884,-173.623c226.688,130.876 304.466,421.183 173.577,647.884Z" style="fill:none;stroke:#000;stroke-width:10px;"/>
      <path d="M1255.43,1233l-26.257,-15.159" style="fill:none;stroke:#000;stroke-width:10px;"/>
      <path d="M460.231,773.897l-26.258,-15.159" style="fill:none;stroke:#000;stroke-width:10px;"/>
      <path d="M622.71,1380.37l-15.16,26.257" style="fill:none;stroke:#000;stroke-width:10px;"/>
      <path d="M1081.86,585.115l-15.16,26.257" style="fill:none;stroke:#000;stroke-width:10px;"/>
      <path d="M1081.85,1406.6l-15.16,-26.256" style="fill:none;stroke:#000;stroke-width:10px;"/>
      <path d="M622.72,611.389l-15.16,-26.257" style="fill:none;stroke:#000;stroke-width:10px;"/>
      <path d="M460.201,1217.86l-26.257,15.159" style="fill:none;stroke:#000;stroke-width:10px;"/>
      <path d="M1255.46,758.721l-26.258,15.159" style="fill:none;stroke:#000;stroke-width:10px;"/>
      <path d="M844.704,1470.16l-0,-30.319" style="fill:none;stroke:#000;stroke-width:10px;"/>
      <path d="M844.704,551.892l-0,-30.319" style="fill:none;stroke:#000;stroke-width:10px;"/>
      <path d="M400.736,995.868l-30.319,0" style="fill:none;stroke:#000;stroke-width:10px;"/>
      <path d="M1318.99,995.868l-30.32,0" style="fill:none;stroke:#000;stroke-width:10px;"/>
    </g>
    <g id="Notes">
      <path id="_7" sound="3F-Mid-G" serif:id="7" d="M680.805,1445.2c-21.99,38.086 -70.763,51.154 -108.85,29.165c-38.087,-21.988 -51.156,-70.761 -29.166,-108.847c21.989,-38.086 70.763,-51.155 108.85,-29.166c38.086,21.989 51.155,70.762 29.166,108.848Z" style="stroke:#fff;stroke-width:24px;"/>
      <path id="_51" sound="3F-Low-F" serif:id="5" d="M1150.02,1449.33c-21.989,38.086 -70.763,51.154 -108.849,29.166c-38.087,-21.989 -51.156,-70.762 -29.167,-108.848c21.99,-38.086 70.764,-51.154 108.85,-29.166c38.087,21.989 51.156,70.762 29.166,108.848Z" style="stroke:#fff;stroke-width:24px;"/>
      <path id="_1" sound="3F-Mid-C" serif:id="1" d="M1147.64,635.109c-21.989,38.086 -70.763,51.155 -108.85,29.166c-38.086,-21.989 -51.155,-70.762 -29.166,-108.848c21.989,-38.085 70.763,-51.154 108.85,-29.165c38.086,21.989 51.155,70.762 29.166,108.847Z" style="stroke:#fff;stroke-width:24px;"/>
    </g>
    <g id="Treble-Marker" serif:id="Treble Marker">
      <g id="_10" sound="3F-High-Bb" serif:id="10">
        <path id="_101" serif:id="10" d="M507.323,804.903c-21.99,38.086 -70.764,51.155 -108.85,29.166c-38.087,-21.989 -51.156,-70.762 -29.166,-108.848c21.989,-38.085 70.763,-51.154 108.849,-29.165c38.087,21.989 51.156,70.762 29.167,108.847Z" style="fill:#fff;stroke:#fff;stroke-width:33.33px;"/>
        <circle id="_10a" serif:id="10a" cx="438.315" cy="765.062" r="64" style="fill:#fff;stroke:#000;stroke-width:16.67px;"/>
      </g>
    </g>
  </g>
	<a xlink:href="FREEZE.svg">
  <g id="NEXTLINK">
    <path d="M914,1895c-0,-19.317 -15.683,-35 -35,-35l-70,0c-19.317,0 -35,15.683 -35,35l-0,78c-0,19.317 15.683,35 35,35l70,0c19.317,0 35,-15.683 35,-35l-0,-78Z" style="fill:#fff;"/>
    <path id="next" d="M814.167,1896.5c-0.2,-1.733 -0.4,-7.2 -0.4,-11.067c-0,-0.8 0.066,-1.6 0.066,-2.2l0,-0.266c0,-3.067 -1.6,-5.734 -2.533,-6.867c-0.933,-1.2 -2.933,-2.333 -5.533,-2.4l-0.467,0c-2.2,0 -3.533,0.8 -5.8,2.933c-0.933,0.867 -1.667,1.134 -2.133,1.2c-0.4,0 -0.6,-0.2 -0.734,-0.4c-0.133,-0.333 -0.2,-0.733 -0.2,-1.133c0,-0.4 0,-0.733 0.067,-1.067c-0,-1.133 -1.067,-1.333 -1.867,-1.333c-0.733,0 -2,0.067 -2.266,0.667c-0.067,0.2 -0.134,0.466 -0.134,0.8c0.067,0.4 0.134,0.733 0.134,1.2c0.133,1.866 0.933,6.066 0.933,8.8c-0,2.733 -0.133,6.066 -0.667,10.466c-0.133,0.8 -0.133,1.4 -0.133,1.934c-0,1.933 0.667,2.333 2.2,2.333c0.2,0 0.467,-0.067 0.8,-0.067c1.333,-0.066 1.6,-0.466 1.667,-0.666l-0,-0.467c-0,-0.467 -0.067,-1 -0.134,-1.333c-0.266,-1.467 -0.533,-6.8 -0.533,-9.134c-0,-2.2 0.333,-5.866 1.733,-7.8c1.467,-2 3.667,-3.133 5.667,-3.133l0.933,0c0.4,0 0.867,0 1.267,0.133c0.733,0.134 1.4,0.534 2.333,1.267c1.134,0.867 1.6,2 1.8,3.4c0.134,0.8 0.134,1.733 0.134,2.733l-0,2.134c-0,3.8 -0.534,5.933 -0.8,9.666c-0,0.267 -0.067,0.6 -0.067,0.8c-0,2.467 1.133,2.534 3.133,2.534c1.4,-0 1.734,-0.734 1.734,-1.8c-0,-0.6 -0.134,-1.267 -0.2,-1.867Z" style="fill-rule:nonzero;"/>
    <path d="M848.167,1886.7c-0,-0.067 0.066,-0.133 0.066,-0.267c0,-0.066 -0.066,-0.266 -0.066,-0.466l-0.267,-1.4c-0.467,-2.134 -2.8,-5.667 -4.533,-7.734c-1.734,-1.866 -5.067,-3 -7.867,-3.133l-0.733,0c-2.867,0 -5.134,1.4 -7.467,2.933l-0.533,0.334c-2.534,1.533 -4.334,6.6 -4.467,10.6l-0,0.2c-0,3.8 2.867,8 5.133,10.533c2.2,2.333 6.734,2.4 9,2.4c2.134,0 3.867,-0.533 5,-1.133c0.467,-0.267 1.134,-0.8 1.934,-1.467c0.733,-0.667 1.533,-1.333 2.4,-2c0.666,-0.467 1,-1 1,-1.533c-0,-0.6 -0.334,-1.2 -1.334,-2c-0.333,-0.267 -0.666,-0.4 -0.866,-0.4c-0.334,-0 -0.534,0.2 -0.8,0.4c-0.467,0.533 -0.8,1.2 -1.067,1.866c-0.533,1.2 -3.2,2.534 -6.533,2.534l-0.534,-0c-2.2,-0.067 -4.066,-0.734 -5.733,-2.067l-1,-0.8c-1.067,-0.933 -2.133,-3.6 -2.133,-5.267l-0,-0.466c0.2,-0.8 1.8,-1.267 3.8,-1.334c1.666,0 3.533,0.067 4.533,0.067c1.4,0 5.267,0.067 8.267,0.067c1.533,-0 2.866,-0 3.6,-0.067c1.133,0 1.2,-0.267 1.2,-0.4Zm-4.734,-4.4c0.2,0.333 0.267,0.6 0.267,0.867c-0,0.733 -0.6,1.2 -1.8,1.2c-2.6,-0 -5.467,0.066 -6.6,0.066c-1.2,0 -4.733,-0.066 -5.467,-0.266c-0.733,-0.067 -2.333,-0.934 -2.333,-2.134c-0,-0.4 0.133,-0.8 0.467,-1.2c1.066,-1.466 4,-3.466 7.466,-3.466l0.267,-0c3.133,0.133 4.2,1.066 5.733,2.533c0.667,0.667 1.6,1.533 2,2.4Z" style="fill-rule:nonzero;"/>
    <path d="M877.633,1899.3c-0.133,-1.467 -1.866,-2.933 -2.933,-3.8c-0.867,-0.733 -1.667,-1.667 -2.467,-2.6c-0.733,-0.933 -1.4,-1.867 -1.866,-2.4c-0.534,-0.533 -1.2,-1.067 -1.8,-1.733c-0.534,-0.667 -1.067,-1.4 -1.067,-2.334l-0,-0.266c0.067,-1.4 2.067,-3 3.133,-4c0.4,-0.334 0.667,-0.667 0.867,-0.934c0.333,-0.666 1.067,-1.466 1.867,-2.333l2.533,-3.067c0.4,-0.466 0.667,-0.8 0.667,-1c-0,-0.066 -0.067,-0.066 -0.067,-0.133c-0.2,-0.133 -0.467,-0.2 -0.933,-0.267l-1.4,-0.133c-0.267,0 -0.467,-0.067 -0.667,-0.067c-1.333,0 -2.133,0.534 -2.733,1.934c-0.467,0.933 -1,1.733 -1.534,2.4c-0.466,0.733 -1,1.4 -1.4,2.2c-0.866,1.933 -1.733,3 -2.933,3c-0.667,-0 -1.4,-0.6 -1.933,-1.467c-0.467,-0.733 -0.934,-1.6 -1.4,-2.267l-1.467,-2.066c-0.533,-0.734 -1,-1.534 -1.267,-2.2c-0.4,-1 -1.666,-1.6 -3.2,-1.667c-0.666,0 -1.666,0.067 -1.666,0.867c-0,0.466 0.466,1.133 0.666,1.4c0.667,0.733 2.6,3.4 4.667,5.866c1.067,1.2 1.733,1.867 2.2,2.467c0.4,0.667 0.667,1.2 0.667,2.133c-0,1.4 -0.934,2.534 -1.667,3.334l-2.467,2.666c-0.533,0.6 -1.533,1.667 -2.533,2.867l-3.067,3.133c-0.266,0.267 -0.466,0.4 -0.466,0.534c-0,0.066 0.066,0.066 0.2,0.066c0.266,0.067 0.666,0.134 1.133,0.134c0.533,0.066 1.133,0.066 1.733,0.066c1.134,0 1.534,-0.2 1.8,-0.466c0.267,-0.067 0.334,-0.267 0.6,-0.534l0.8,-0.933c0.6,-0.667 1.2,-1.467 1.734,-2.267l0.2,-0.2c0.466,-0.666 0.933,-1.333 1.466,-1.933c0.534,-0.533 0.867,-1.267 1.267,-1.867c0.533,-0.666 1.2,-1.333 2.267,-1.333c1.533,0 2.333,1.667 3,2.867l0.066,0.266c0.267,0.467 0.334,0.734 0.467,0.867c0.667,0.8 2,2.667 3.467,4.867c0.666,1 1.066,1.133 1.4,1.133c0.266,0 0.6,0 0.866,-0.067c0.334,-0.066 0.734,-0.2 1.134,-0.2l0.533,0c0.867,0 1.4,-0.066 1.533,-0.533Z" style="fill-rule:nonzero;"/>
    <path d="M896.433,1876.1c0,-0.533 -0.266,-0.733 -0.8,-0.933c-0.333,-0.067 -0.733,-0.067 -1.133,-0.067c-0.467,0 -0.867,-0.067 -1.333,-0.067l-1.134,-0.133c-0.333,0 -0.6,-0.067 -0.866,-0.133c-0.6,-0.2 -1,-0.667 -1,-1.334c-0,-0.933 -0,-2.533 0.133,-5.133l-0,-0.267c-0,-1 -0.2,-1.333 -0.4,-1.466c-0.333,-0.267 -1,-0.267 -1.4,-0.267l-0.2,0c-1,0 -1.6,0.8 -1.667,1.2c0,0.067 -0.066,0.2 -0.066,0.267c-0,0.333 0.066,0.866 0.133,1.533c0.133,0.867 0.267,2 0.267,3.133l-0,0.334c-0,1.2 -0.534,1.866 -1.4,2.066c-0.267,0.067 -0.534,0.067 -0.8,0.067c-0.467,0 -1.067,-0.067 -1.534,-0.067c-0.933,0 -1.466,0.6 -1.666,2.6c-0,0.067 -0.067,0.134 -0.067,0.2c-0,0.4 0.267,0.534 0.8,0.667c0.333,0.067 0.667,0.067 1,0.067c0.333,-0 0.667,-0.067 0.933,-0.067c1.067,0 2.467,0.8 2.467,2.267c-0,1.066 0.2,3.4 0.2,6.4c-0,3 -0.4,8.733 -0.4,11.333c-0,1.267 0.2,1.6 0.4,1.733l0.533,0.134l1.2,-0c1.667,-0 2.2,-0.2 2.2,-1.067l0,-0.467c-0.2,-1.866 -0.533,-6.666 -0.6,-9.466c-0.066,-0.934 -0.133,-2.067 -0.133,-3.2c-0,-2.2 0.133,-4.467 0.2,-5.934c0.067,-1.466 0.933,-2.066 2,-2.133l0.2,0c0.8,0 1.533,0.2 2.333,0.267l0.267,-0c0.867,-0 1.333,-0.467 1.333,-2.067Z" style="fill-rule:nonzero;"/>
    <circle cx="824" cy="1958" r="40" style="fill:#fff;stroke:#000;stroke-width:12.5px;"/>
    <circle cx="864" cy="1958" r="40" style="fill:none;stroke:#000;stroke-width:12.5px;"/>
  </g>
	</a>
  <g id="Header">
    <path id="Lyric-Text" serif:id="Lyric Text" d="M265,241.433c0.2,-0.333 0.267,-0.533 0.267,-0.666c-0,-0.267 -0.2,-0.334 -0.4,-0.4c-0.267,-0.134 -0.667,-0.2 -1.067,-0.267l-1,-0.067c-0.2,0 -0.533,-0.066 -0.8,-0.066c-0.6,-0 -1.2,0.133 -1.267,0.6c-0.133,1.2 -2.066,5.533 -2.8,7.133c-0.733,1.533 -2.333,5.533 -2.866,7.067c-0.534,1.733 -1.467,4 -2.934,4.4c-0.2,0.066 -0.4,0.133 -0.533,0.133c-0.667,0 -1.067,-0.467 -1.333,-1.067c-0,-0.266 -0.134,-0.6 -0.2,-1c-0.067,-0.333 -0.134,-0.733 -0.2,-1.066c-0.2,-0.734 -0.6,-1.467 -1.067,-2.467c-0.533,-0.933 -1.067,-2 -1.533,-3.2c-0.934,-2.4 -2.467,-5.867 -3.334,-8.4c-0.866,-2.133 -1.533,-2.267 -3.733,-2.467l-0.467,0c-1,0 -1.4,0.4 -1.4,0.867c0,0.933 0.934,2.133 1.4,2.6c0.6,0.667 1.334,2.133 2.134,3.6c0.733,1.467 1.6,3.067 2.4,4.333c0.333,0.667 0.733,1.4 1.066,2.2l0.934,2.4c0.666,1.6 1.266,3.134 2.2,4.2c1.2,1.467 1.666,2.867 1.666,4l0,0.267c0,0.733 -0.2,1.4 -0.4,1.867c-0.533,0.866 -1.266,2.133 -2.066,4.466c-0.4,1.2 -1.067,2.334 -1.667,3.334c-0.6,1 -1.2,1.933 -1.733,3c-0.2,0.333 -0.334,0.666 -0.334,0.8c0,0.8 1,0.8 2.667,0.933c0.133,0 0.333,0.067 0.467,0.067c0.8,-0 1.133,-0.267 1.333,-0.534c0.2,-0.266 0.333,-0.533 0.467,-0.933l0.466,-1.333c0.4,-1 0.734,-2 1.067,-2.934c0.4,-1 0.8,-2 1.333,-3c1.067,-2 2.867,-7.4 4.2,-9.933c1.267,-2.467 3,-6.733 4,-8.8c1,-2.067 3.8,-7.467 5.067,-9.667Z" style="fill-rule:nonzero;"/>
    <path d="M297.933,253.167l0,-0.334c0,-4.533 -2.133,-7.933 -4.133,-10.066c-2,-2.067 -5.267,-3.734 -9,-3.867l-0.333,0c-6.067,0 -8.734,2.533 -10.667,4.533c-2,2 -3.533,5 -3.533,9.267c-0,4.267 2.533,8.4 4.6,10.267c2,1.8 5,3.133 8.866,3.133l0.4,0c4.134,-0.133 7.334,-0.667 10.2,-3.733c2.867,-3.2 3.6,-4.334 3.6,-9.2Zm-3.8,-0.734c0,2.534 -0.933,6 -2.6,7.267c-0.4,0.2 -0.8,0.533 -1.333,0.867c-1.667,1.133 -3.533,2 -5.533,2c-0.267,-0 -0.534,-0 -0.867,-0.067c-3.2,-0.4 -4.733,-1.067 -6.667,-3.333c-1.933,-2.134 -2.533,-3.867 -2.533,-6.6c-0,-2.667 0.467,-5.2 3.133,-7.2c2.6,-1.934 4.667,-2.2 6.8,-2.2c3.4,-0 5.867,0.933 7.267,3.4c0.667,1.133 1.267,1.866 1.667,2.733c0.333,0.867 0.666,1.8 0.666,3.133Z" style="fill-rule:nonzero;"/>
    <path d="M328.067,242.567c0.066,-0.467 0.066,-0.8 0.066,-1.134c0,-1.333 -0.466,-1.8 -2.4,-1.933l-0.333,0c-1.467,0 -1.8,0.6 -1.8,1.6c-0,0.333 -0,0.667 0.067,1.067c0.133,1.6 0.4,6.8 0.533,10.2c-0,0.533 0.067,1.066 0.067,1.6c-0,2.6 -0.4,4.666 -1.6,6.133c-1.4,1.933 -2.8,2 -4.867,2.067l-0.2,-0c-0.467,0.066 -0.933,0.066 -1.333,0.066c-1.6,0 -2.867,-0.333 -4.134,-2.133c-0.8,-1 -1.2,-2.333 -1.4,-3.8c-0.133,-1.4 -0.2,-3.133 -0.266,-5.067c-0.067,-1.6 -0.067,-2.8 -0.067,-3.933c-0,-1.533 0.067,-2.867 0.2,-4.867l-0,-1.2c-0,-0.733 -0.067,-1 -0.133,-1.133c-0.067,0 -0.2,-0.067 -0.467,-0.133c-0.267,-0 -0.667,-0 -1.067,-0.067l-0.466,0c-1.534,0 -1.867,0.533 -1.867,1.133c-0,1.4 0.333,2.8 0.333,4.734c0,1.8 0.067,8.2 0.067,11c-0,2.666 1.467,5.333 3.6,6.933c2,1.533 5.533,1.933 7.667,1.933c2.066,0 5.2,-1.333 8,-4.133c1.266,-1.267 1.666,-3.267 1.666,-5.333c0,-2.067 -0.333,-4.067 -0.333,-5.2c-0,-2.2 0.2,-6.2 0.467,-8.4Z" style="fill-rule:nonzero;"/>
    <path d="M378.067,263.433l-0,-0.4c-0,-0.533 -0.067,-1 -0.134,-1.533c-0.133,-1.133 -0.2,-4.333 -0.2,-7.133c0,-1.8 0,-3.534 0.067,-4.534l-0,-0.466c-0,-2.467 -0.733,-5.534 -1.867,-7.267c-1.133,-1.733 -4.466,-2.867 -6.2,-3c-0.333,0 -0.733,-0.067 -1.133,-0.067c-1.533,0 -3.267,0.334 -5.133,1.734c-0.934,0.733 -1.6,1 -2.067,1c-0.4,-0 -0.6,-0.134 -0.8,-0.334c-0.4,-0.4 -0.4,-1.133 -0.467,-1.666c-0.2,-0.6 -0.266,-1.267 -0.266,-2.067c-0,-0.867 0.066,-1.8 0.2,-3c0.266,-2.333 0.533,-6.267 0.666,-10.133l0,-0.4c0,-1.667 -0.333,-2.134 -0.6,-2.4c-0.2,-0.2 -0.4,-0.267 -0.8,-0.334l-1.6,0c-1.533,0 -2,0.667 -2,1.867c0,1.733 0,4.933 0.2,8.933c0.267,4.067 0.467,13.467 0.467,16.067c-0,2.6 -0.2,11.4 -0.4,14.133c-0.067,0.534 -0.133,1 -0.133,1.334c-0,1.133 0.466,1.4 2.333,1.6l0.4,-0c1.533,-0 1.8,-0.734 1.8,-1.6c-0,-0.267 -0.067,-0.534 -0.067,-0.8c-0.066,-0.8 -0.133,-3.334 -0.133,-6.067c-0,-2.733 0.067,-5.667 0.133,-7.133c0.2,-3.334 1.867,-4.734 3.067,-5.667c1.333,-1 3.8,-1.6 4.933,-1.6c0.2,0 0.534,0 0.867,0.067c1.333,0.066 2.333,0.6 3.333,1.733c1.334,1.6 1.4,3.8 1.4,5.867l0,0.866c0,2 -0.466,8.667 -0.733,11c-0.067,0.4 -0.067,0.8 -0.067,1.134c0,1.333 0.467,2 2.734,2.2l0.4,-0c1.133,-0 1.533,-0.467 1.666,-1c0.067,-0.267 0.134,-0.6 0.134,-0.934Z" style="fill-rule:nonzero;"/>
    <path d="M414.133,253.167l0,-0.334c0,-4.533 -2.133,-7.933 -4.133,-10.066c-2,-2.067 -5.267,-3.734 -9,-3.867l-0.333,0c-6.067,0 -8.734,2.533 -10.667,4.533c-2,2 -3.533,5 -3.533,9.267c-0,4.267 2.533,8.4 4.6,10.267c2,1.8 5,3.133 8.866,3.133l0.4,0c4.134,-0.133 7.334,-0.667 10.2,-3.733c2.867,-3.2 3.6,-4.334 3.6,-9.2Zm-3.8,-0.734c0,2.534 -0.933,6 -2.6,7.267c-0.4,0.2 -0.8,0.533 -1.333,0.867c-1.667,1.133 -3.533,2 -5.533,2c-0.267,-0 -0.534,-0 -0.867,-0.067c-3.2,-0.4 -4.733,-1.067 -6.667,-3.333c-1.933,-2.134 -2.533,-3.867 -2.533,-6.6c-0,-2.667 0.467,-5.2 3.133,-7.2c2.6,-1.934 4.667,-2.2 6.8,-2.2c3.4,-0 5.867,0.933 7.267,3.4c0.667,1.133 1.267,1.866 1.667,2.733c0.333,0.867 0.666,1.8 0.666,3.133Z" style="fill-rule:nonzero;"/>
    <path d="M427.933,264.233c0,-1 -0.4,-4.8 -0.666,-6.4c-0.134,-0.8 -0.134,-4 -0.134,-7.333l0,-9.133c0,-4.2 0.267,-12.4 0.534,-16.067l-0,-0.667c-0,-2.466 -1.2,-2.6 -2.534,-2.8l-0.333,0c-0.933,0 -2,0.267 -2,0.6c-0,0.534 0.133,3.534 0.267,5.067c0.066,0.8 0.066,4 0.066,7.467l0,8.8c0.067,1 0.067,2.666 0.067,4.533c-0,4.733 -0.067,11.133 -0.267,14.133c-0.066,0.334 -0.066,0.6 -0.066,0.867c-0,1.4 0.4,1.933 0.8,2.133c0.266,0.267 0.8,0.334 1.2,0.334c0.4,-0 0.8,-0.067 1.133,-0.067c1.733,-0.133 1.933,-0.733 1.933,-1.467Z" style="fill-rule:nonzero;"/>
    <path d="M462.6,223.433c-0,-0.533 -0.067,-0.866 -0.133,-1c-0.267,-0.466 -0.867,-0.466 -2.067,-0.6c-0.133,0 -0.267,-0.066 -0.4,-0.066l-0.467,-0c-1.266,-0 -1.533,0.466 -1.666,1c-0.067,0.266 -0.067,0.533 -0.067,0.866l-0,0.8l0.2,2.067c0.2,3 0.267,7.933 0.467,10.667c0.066,0.866 0.133,1.533 0.133,2.066c-0,1.267 -0.267,1.934 -1.067,2.6c-0.333,0.267 -0.666,0.4 -1,0.4c-0.4,0 -0.8,-0.133 -1.2,-0.333c-0.6,-0.333 -1.466,-0.933 -2.533,-1.6c-1.333,-0.867 -2.933,-1 -4.467,-1c-0.666,0 -1.333,0.067 -1.933,0.067c-2.4,0.066 -5.8,2.2 -7.6,4.2c-1.667,1.933 -2.933,6.133 -2.933,9.933c-0,3.733 2,7.333 4.266,9.467c2.267,2.133 5.467,3.4 7.934,3.4c2.533,-0 5.2,-0.6 7,-2.667c0.933,-1.133 1.733,-1.533 2.2,-1.533c0.8,-0 1.2,0.866 1.4,1.933c0.066,0.467 0.066,0.733 0.333,0.933c0.133,0.067 0.267,0.067 0.667,0.134l1.466,0.2l0.334,-0c0.8,-0 0.933,-0.334 1,-0.734l-0,-1.2l-0.267,-1.533c-0.267,-1.867 -0.667,-10.133 -0.667,-13.467l0,-0.933l0.4,-4.333c0.067,-0.934 0.134,-1.734 0.134,-2.534c-0,-0.466 -0,-0.866 -0.067,-1.2c-0.067,-0.4 -0.133,-1 -0.133,-1.733c-0,-1.067 0.266,-3.6 0.266,-4l0,-0.6c0.067,-2.733 0.334,-5.667 0.334,-7.467c-0,-0.866 0.066,-1.6 0.133,-2.2Zm-4.4,26.334c0.333,1 0.533,2 0.533,2.866c0,1.2 -0.266,2.4 -0.8,3.667c-0.4,1.133 -0.933,1.933 -1.533,2.667c-0.533,0.6 -1.133,1.133 -1.667,1.733c-1.066,1.067 -3,1.467 -4.6,1.467c-0.333,-0 -0.6,-0 -0.8,-0.067l-1.2,0c-0.333,0 -0.8,0 -1.333,-0.133c-0.933,-0.267 -2,-0.867 -3.667,-2.2c-1.6,-1.334 -2.4,-2.534 -2.733,-3.667c-0.267,-0.533 -0.267,-1 -0.333,-1.533c-0,-0 -0,-0.067 -0.134,-1.534l0,-0.466c0,-2 0.667,-4.534 2.2,-6.534c1.6,-2.066 2.934,-2.933 5.667,-2.933l0.8,0c3.133,0.067 5.533,0.6 6.8,2c1.067,1.2 2,2.4 2.8,4.667Z" style="fill-rule:nonzero;"/>
    <path d="M513.067,241.433c0.2,-0.333 0.266,-0.533 0.266,-0.666c0,-0.267 -0.2,-0.334 -0.4,-0.4c-0.266,-0.134 -0.666,-0.2 -1.066,-0.267l-1,-0.067c-0.2,0 -0.534,-0.066 -0.8,-0.066c-0.6,-0 -1.2,0.133 -1.267,0.6c-0.133,1.2 -2.067,5.533 -2.8,7.133c-0.733,1.533 -2.333,5.533 -2.867,7.067c-0.533,1.733 -1.466,4 -2.933,4.4c-0.2,0.066 -0.4,0.133 -0.533,0.133c-0.667,0 -1.067,-0.467 -1.334,-1.067c0,-0.266 -0.133,-0.6 -0.2,-1c-0.066,-0.333 -0.133,-0.733 -0.2,-1.066c-0.2,-0.734 -0.6,-1.467 -1.066,-2.467c-0.534,-0.933 -1.067,-2 -1.534,-3.2c-0.933,-2.4 -2.466,-5.867 -3.333,-8.4c-0.867,-2.133 -1.533,-2.267 -3.733,-2.467l-0.467,0c-1,0 -1.4,0.4 -1.4,0.867c-0,0.933 0.933,2.133 1.4,2.6c0.6,0.667 1.333,2.133 2.133,3.6c0.734,1.467 1.6,3.067 2.4,4.333c0.334,0.667 0.734,1.4 1.067,2.2l0.933,2.4c0.667,1.6 1.267,3.134 2.2,4.2c1.2,1.467 1.667,2.867 1.667,4l-0,0.267c-0,0.733 -0.2,1.4 -0.4,1.867c-0.533,0.866 -1.267,2.133 -2.067,4.466c-0.4,1.2 -1.066,2.334 -1.666,3.334c-0.6,1 -1.2,1.933 -1.734,3c-0.2,0.333 -0.333,0.666 -0.333,0.8c-0,0.8 1,0.8 2.667,0.933c0.133,0 0.333,0.067 0.466,0.067c0.8,-0 1.134,-0.267 1.334,-0.534c0.2,-0.266 0.333,-0.533 0.466,-0.933l0.467,-1.333c0.4,-1 0.733,-2 1.067,-2.934c0.4,-1 0.8,-2 1.333,-3c1.067,-2 2.867,-7.4 4.2,-9.933c1.267,-2.467 3,-6.733 4,-8.8c1,-2.067 3.8,-7.467 5.067,-9.667Z" style="fill-rule:nonzero;"/>
    <path d="M546,253.167l-0,-0.334c-0,-4.533 -2.133,-7.933 -4.133,-10.066c-2,-2.067 -5.267,-3.734 -9,-3.867l-0.334,0c-6.066,0 -8.733,2.533 -10.666,4.533c-2,2 -3.534,5 -3.534,9.267c0,4.267 2.534,8.4 4.6,10.267c2,1.8 5,3.133 8.867,3.133l0.4,0c4.133,-0.133 7.333,-0.667 10.2,-3.733c2.867,-3.2 3.6,-4.334 3.6,-9.2Zm-3.8,-0.734c-0,2.534 -0.933,6 -2.6,7.267c-0.4,0.2 -0.8,0.533 -1.333,0.867c-1.667,1.133 -3.534,2 -5.534,2c-0.266,-0 -0.533,-0 -0.866,-0.067c-3.2,-0.4 -4.734,-1.067 -6.667,-3.333c-1.933,-2.134 -2.533,-3.867 -2.533,-6.6c-0,-2.667 0.466,-5.2 3.133,-7.2c2.6,-1.934 4.667,-2.2 6.8,-2.2c3.4,-0 5.867,0.933 7.267,3.4c0.666,1.133 1.266,1.866 1.666,2.733c0.334,0.867 0.667,1.8 0.667,3.133Z" style="fill-rule:nonzero;"/>
    <path d="M576.133,242.567c0.067,-0.467 0.067,-0.8 0.067,-1.134c-0,-1.333 -0.467,-1.8 -2.4,-1.933l-0.333,0c-1.467,0 -1.8,0.6 -1.8,1.6c-0,0.333 -0,0.667 0.066,1.067c0.134,1.6 0.4,6.8 0.534,10.2c-0,0.533 0.066,1.066 0.066,1.6c0,2.6 -0.4,4.666 -1.6,6.133c-1.4,1.933 -2.8,2 -4.866,2.067l-0.2,-0c-0.467,0.066 -0.934,0.066 -1.334,0.066c-1.6,0 -2.866,-0.333 -4.133,-2.133c-0.8,-1 -1.2,-2.333 -1.4,-3.8c-0.133,-1.4 -0.2,-3.133 -0.267,-5.067c-0.066,-1.6 -0.066,-2.8 -0.066,-3.933c-0,-1.533 0.066,-2.867 0.2,-4.867l-0,-1.2c-0,-0.733 -0.067,-1 -0.134,-1.133c-0.066,0 -0.2,-0.067 -0.466,-0.133c-0.267,-0 -0.667,-0 -1.067,-0.067l-0.467,0c-1.533,0 -1.866,0.533 -1.866,1.133c-0,1.4 0.333,2.8 0.333,4.734c-0,1.8 0.067,8.2 0.067,11c-0,2.666 1.466,5.333 3.6,6.933c2,1.533 5.533,1.933 7.666,1.933c2.067,0 5.2,-1.333 8,-4.133c1.267,-1.267 1.667,-3.267 1.667,-5.333c-0,-2.067 -0.333,-4.067 -0.333,-5.2c-0,-2.2 0.2,-6.2 0.466,-8.4Z" style="fill-rule:nonzero;"/>
    <path d="M601.733,239.833c-0.466,-0.2 -2.066,-0.733 -3.866,-0.733c-1.8,0 -4.267,1.6 -5.134,3.267c-0.2,0.4 -0.466,0.8 -0.8,1c-0.2,0.066 -0.333,0.066 -0.4,0.066c-0.333,0 -0.6,-0.2 -0.733,-0.4c-0.2,-0.4 -0.267,-0.933 -0.267,-1.466l0,-0.467c0,-1.133 -1.2,-1.6 -2.066,-1.6c-1.667,0 -1.867,0.533 -1.934,0.867c0,0.066 -0.066,0.133 -0.066,0.266c-0,0.2 0.066,0.534 0.133,0.867c0.067,0.467 0.133,1 0.2,1.467c0.133,2.2 0.133,7.133 0.133,10.066c0,2.867 -0.133,5.867 -0.6,9.734c-0.066,0.666 -0.066,1.2 -0.066,1.533c-0,0.4 0.066,0.6 0.333,0.733c0.133,0.067 0.4,0.067 1,0.067c0.533,-0.067 1.2,-0.133 2,-0.133c1.667,-0 2.067,-1.134 2.067,-2.4c-0,-0.934 -0.267,-2 -0.4,-2.8c-0.267,-1.334 -0.334,-3.8 -0.334,-6.267c0,-1.333 0,-2.6 0.067,-3.733c0.2,-3.6 2.6,-5.6 4.867,-6.134c0.866,-0.2 1.466,-0.266 2.066,-0.266c0.8,-0 1.334,0.133 2.2,0.466c0.134,0 0.334,0.2 0.467,0.2c0.2,0 0.267,-0.066 0.333,-0.266c0.134,-0.067 0.267,-0.334 0.334,-0.667c0.2,-0.333 0.333,-0.733 0.466,-1.2c0.2,-0.667 0.334,-1.133 0.334,-1.4c-0,-0.333 -0.134,-0.533 -0.334,-0.667Z" style="fill-rule:nonzero;"/>
    <path d="M651.267,251.233l-0,-0.266c-0,-2.534 -1.4,-5.6 -3.4,-8.2c-1.934,-2.534 -6,-3.6 -8.934,-3.667l-0.266,0c-2.667,0 -5.2,1.6 -6.467,3.133c-0.733,0.867 -1.267,1.2 -1.733,1.2c-0.867,0 -1.334,-1.266 -1.334,-2.2c0,-0.533 -0.066,-1.466 -0.133,-2.466l-0,-0.467c-0,-1.2 0.067,-2.533 0.267,-3.533c0.2,-1 0.333,-3.2 0.4,-5.534l0.266,-6l0,-0.2c0,-0.866 -0.333,-1.066 -0.666,-1.2c-0.267,-0.066 -0.6,-0.066 -1,-0.066l-1.334,-0c-1.266,-0 -2.066,0.466 -2.266,1.666c-0,0.334 -0.067,0.667 -0.067,1.067c-0,0.267 -0,0.6 0.067,0.933l0.266,2.334c0.334,3.133 0.467,15.8 0.467,18.666c-0,1.467 0.133,4.8 0.133,8.134c0,3.333 -0.066,6.8 -0.4,8.266c-0.133,0.467 -0.133,0.8 -0.133,1.134c-0,1.333 0.867,1.6 2.467,1.6c1.666,-0 1.933,-0.267 2.066,-2.467c0.067,-1.067 0.467,-1.467 0.934,-1.467c0.333,0 0.733,0.2 1.133,0.467c0.333,0.333 0.667,0.667 1,1.067l1,1.133c1.067,1.067 2.333,1.667 5.4,1.667l0.8,-0c3.533,-0.134 7.133,-2.534 9.2,-5c1.067,-1.2 1.6,-2.867 1.867,-4.734c0.333,-1.8 0.4,-3.666 0.4,-5Zm-3.467,1.067c-0,2.267 -0.133,4.133 -2.2,6.4l-1.4,1.4c-1.2,1.333 -2.533,2.2 -4.267,2.2c-0.2,0 -0.4,0 -0.6,-0.067c-2.333,-0.266 -4.933,-0.533 -6.733,-2.2c-0.933,-0.866 -1.8,-1.6 -2.4,-2.666c-0.733,-1.134 -1.2,-2.534 -1.333,-4.6c-0.067,-0.334 -0.067,-0.667 -0.067,-1c-0,-3.6 1.533,-5.267 3.533,-6.8c2.267,-1.667 4.334,-1.934 6.334,-2.067c0.333,0 0.8,-0.067 1.133,-0.067c2.2,0 3.867,0.667 5.667,3.267c2.2,3 2.333,3.867 2.333,6.2Z" style="fill-rule:nonzero;"/>
    <path d="M675,239.833c-0.467,-0.2 -2.067,-0.733 -3.867,-0.733c-1.8,0 -4.266,1.6 -5.133,3.267c-0.2,0.4 -0.467,0.8 -0.8,1c-0.2,0.066 -0.333,0.066 -0.4,0.066c-0.333,0 -0.6,-0.2 -0.733,-0.4c-0.2,-0.4 -0.267,-0.933 -0.267,-1.466l-0,-0.467c-0,-1.133 -1.2,-1.6 -2.067,-1.6c-1.666,0 -1.866,0.533 -1.933,0.867c-0,0.066 -0.067,0.133 -0.067,0.266c0,0.2 0.067,0.534 0.134,0.867c0.066,0.467 0.133,1 0.2,1.467c0.133,2.2 0.133,7.133 0.133,10.066c-0,2.867 -0.133,5.867 -0.6,9.734c-0.067,0.666 -0.067,1.2 -0.067,1.533c0,0.4 0.067,0.6 0.334,0.733c0.133,0.067 0.4,0.067 1,0.067c0.533,-0.067 1.2,-0.133 2,-0.133c1.666,-0 2.066,-1.134 2.066,-2.4c0,-0.934 -0.266,-2 -0.4,-2.8c-0.266,-1.334 -0.333,-3.8 -0.333,-6.267c-0,-1.333 -0,-2.6 0.067,-3.733c0.2,-3.6 2.6,-5.6 4.866,-6.134c0.867,-0.2 1.467,-0.266 2.067,-0.266c0.8,-0 1.333,0.133 2.2,0.466c0.133,0 0.333,0.2 0.467,0.2c0.2,0 0.266,-0.066 0.333,-0.266c0.133,-0.067 0.267,-0.334 0.333,-0.667c0.2,-0.333 0.334,-0.733 0.467,-1.2c0.2,-0.667 0.333,-1.133 0.333,-1.4c0,-0.333 -0.133,-0.533 -0.333,-0.667Z" style="fill-rule:nonzero;"/>
    <path d="M705.667,252.033c-0,-0.066 0.066,-0.133 0.066,-0.266c0,-0.067 -0.066,-0.267 -0.066,-0.467l-0.267,-1.4c-0.467,-2.133 -2.8,-5.667 -4.533,-7.733c-1.734,-1.867 -5.067,-3 -7.867,-3.134l-0.733,0c-2.867,0 -5.134,1.4 -7.467,2.934l-0.533,0.333c-2.534,1.533 -4.334,6.6 -4.467,10.6l-0,0.2c-0,3.8 2.867,8 5.133,10.533c2.2,2.334 6.734,2.4 9,2.4c2.134,0 3.867,-0.533 5,-1.133c0.467,-0.267 1.134,-0.8 1.934,-1.467c0.733,-0.666 1.533,-1.333 2.4,-2c0.666,-0.466 1,-1 1,-1.533c-0,-0.6 -0.334,-1.2 -1.334,-2c-0.333,-0.267 -0.666,-0.4 -0.866,-0.4c-0.334,0 -0.534,0.2 -0.8,0.4c-0.467,0.533 -0.8,1.2 -1.067,1.867c-0.533,1.2 -3.2,2.533 -6.533,2.533l-0.534,0c-2.2,-0.067 -4.066,-0.733 -5.733,-2.067l-1,-0.8c-1.067,-0.933 -2.133,-3.6 -2.133,-5.266l-0,-0.467c0.2,-0.8 1.8,-1.267 3.8,-1.333c1.666,-0 3.533,0.066 4.533,0.066c1.4,0 5.267,0.067 8.267,0.067c1.533,0 2.866,0 3.6,-0.067c1.133,0 1.2,-0.266 1.2,-0.4Zm-4.734,-4.4c0.2,0.334 0.267,0.6 0.267,0.867c-0,0.733 -0.6,1.2 -1.8,1.2c-2.6,0 -5.467,0.067 -6.6,0.067c-1.2,-0 -4.733,-0.067 -5.467,-0.267c-0.733,-0.067 -2.333,-0.933 -2.333,-2.133c-0,-0.4 0.133,-0.8 0.467,-1.2c1.066,-1.467 4,-3.467 7.466,-3.467l0.267,0c3.133,0.133 4.2,1.067 5.733,2.533c0.667,0.667 1.6,1.534 2,2.4Z" style="fill-rule:nonzero;"/>
    <path d="M728.667,265.033c0.533,-0.333 1,-0.733 1.333,-1.066c0.333,-0.4 0.667,-0.734 1,-0.934c0.4,-0.4 0.867,-0.6 1.333,-0.6c0.667,0 1.267,0.534 1.267,1.334c-0,0.2 -0,0.4 -0.067,0.6c0,0.066 -0.066,0.133 -0.066,0.2c-0,0.6 0.666,0.666 2.533,0.8l0.333,-0c1,-0 1.2,-0.267 1.334,-0.534l-0,-13.133c-0,-2.2 -0.067,-4.533 -0.067,-6.667c-0,-1.066 -0,-2.066 0.067,-3l-0,-0.333c-0,-1.733 -0.867,-1.8 -2,-1.8l-0.667,0c-0.8,0 -1.2,0.067 -1.2,0.533c-0,0.334 0.067,0.6 0.067,0.8c-0,1.067 -0.4,2 -1.2,2.267c-0.134,0.067 -0.2,0.067 -0.334,0.067c-0.466,-0 -1.066,-0.334 -1.666,-0.867c-0.6,-0.533 -1.067,-1.133 -1.6,-1.667c-0.734,-0.933 -3.467,-1.733 -6,-1.733c-3.734,0 -8,2.4 -10.067,5.267c-1.467,2.133 -2,5.466 -2.267,8.2l0,0.533c0,2.6 1.534,6.8 3.2,8.867c1.734,2.2 4.667,4.2 9.6,4.2c2.4,-0 4,-0.6 5.134,-1.334Zm5.133,-12.266c-0.2,2.8 -1.133,6.133 -3.467,7.866c-1.8,1.4 -3.2,1.734 -5.266,1.734c-0.4,-0 -0.8,-0.067 -1.334,-0.067c-3,-0.2 -5.533,-1.533 -6.6,-3.267c-0.866,-1.6 -1.466,-3.666 -1.466,-6l-0,-0.6c0.133,-2.4 1.133,-6.466 2.4,-7.4c0.933,-0.733 3.8,-1.933 6.2,-1.933c0.4,0 0.8,0 1.2,0.067l1.533,0.333c0.267,0 0.267,0.067 0.333,0.067c0.4,0.133 1,0.2 1.4,0.4c1.2,0.4 2.334,1.133 3.2,2.6l1,1.733c0.067,0.467 0.467,0.933 0.667,1.333c0.2,0.534 0.333,1.134 0.333,1.8c0,0.4 -0.066,0.867 -0.133,1.334Z" style="fill-rule:nonzero;"/>
    <path d="M759.667,241.433c-0,-0.533 -0.267,-0.733 -0.8,-0.933c-0.334,-0.067 -0.734,-0.067 -1.134,-0.067c-0.466,0 -0.866,-0.066 -1.333,-0.066l-1.133,-0.134c-0.334,0 -0.6,-0.066 -0.867,-0.133c-0.6,-0.2 -1,-0.667 -1,-1.333c-0,-0.934 -0,-2.534 0.133,-5.134l0,-0.266c0,-1 -0.2,-1.334 -0.4,-1.467c-0.333,-0.267 -1,-0.267 -1.4,-0.267l-0.2,0c-1,0 -1.6,0.8 -1.666,1.2c-0,0.067 -0.067,0.2 -0.067,0.267c-0,0.333 0.067,0.867 0.133,1.533c0.134,0.867 0.267,2 0.267,3.134l-0,0.333c-0,1.2 -0.533,1.867 -1.4,2.067c-0.267,0.066 -0.533,0.066 -0.8,0.066c-0.467,0 -1.067,-0.066 -1.533,-0.066c-0.934,-0 -1.467,0.6 -1.667,2.6c-0,0.066 -0.067,0.133 -0.067,0.2c0,0.4 0.267,0.533 0.8,0.666c0.334,0.067 0.667,0.067 1,0.067c0.334,0 0.667,-0.067 0.934,-0.067c1.066,0 2.466,0.8 2.466,2.267c0,1.067 0.2,3.4 0.2,6.4c0,3 -0.4,8.733 -0.4,11.333c0,1.267 0.2,1.6 0.4,1.734l0.534,0.133l1.2,0c1.666,0 2.2,-0.2 2.2,-1.067l-0,-0.466c-0.2,-1.867 -0.534,-6.667 -0.6,-9.467c-0.067,-0.933 -0.134,-2.067 -0.134,-3.2c0,-2.2 0.134,-4.467 0.2,-5.933c0.067,-1.467 0.934,-2.067 2,-2.134l0.2,0c0.8,0 1.534,0.2 2.334,0.267l0.266,0c0.867,0 1.334,-0.467 1.334,-2.067Z" style="fill-rule:nonzero;"/>
    <path d="M790,263.433l-0,-0.4c-0,-0.533 -0.067,-1 -0.133,-1.533c-0.134,-1.133 -0.2,-4.333 -0.2,-7.133c-0,-1.8 -0,-3.534 0.066,-4.534l0,-0.466c0,-2.467 -0.733,-5.534 -1.866,-7.267c-1.134,-1.733 -4.467,-2.867 -6.2,-3c-0.334,0 -0.734,-0.067 -1.134,-0.067c-1.533,0 -3.266,0.334 -5.133,1.734c-0.933,0.733 -1.6,1 -2.067,1c-0.4,-0 -0.6,-0.134 -0.8,-0.334c-0.4,-0.4 -0.4,-1.133 -0.466,-1.666c-0.2,-0.6 -0.267,-1.267 -0.267,-2.067c-0,-0.867 0.067,-1.8 0.2,-3c0.267,-2.333 0.533,-6.267 0.667,-10.133l-0,-0.4c-0,-1.667 -0.334,-2.134 -0.6,-2.4c-0.2,-0.2 -0.4,-0.267 -0.8,-0.334l-1.6,0c-1.534,0 -2,0.667 -2,1.867c-0,1.733 -0,4.933 0.2,8.933c0.266,4.067 0.466,13.467 0.466,16.067c0,2.6 -0.2,11.4 -0.4,14.133c-0.066,0.534 -0.133,1 -0.133,1.334c-0,1.133 0.467,1.4 2.333,1.6l0.4,-0c1.534,-0 1.8,-0.734 1.8,-1.6c0,-0.267 -0.066,-0.534 -0.066,-0.8c-0.067,-0.8 -0.134,-3.334 -0.134,-6.067c0,-2.733 0.067,-5.667 0.134,-7.133c0.2,-3.334 1.866,-4.734 3.066,-5.667c1.334,-1 3.8,-1.6 4.934,-1.6c0.2,0 0.533,0 0.866,0.067c1.334,0.066 2.334,0.6 3.334,1.733c1.333,1.6 1.4,3.8 1.4,5.867l-0,0.866c-0,2 -0.467,8.667 -0.734,11c-0.066,0.4 -0.066,0.8 -0.066,1.134c-0,1.333 0.466,2 2.733,2.2l0.4,-0c1.133,-0 1.533,-0.467 1.667,-1c0.066,-0.267 0.133,-0.6 0.133,-0.934Z" style="fill-rule:nonzero;"/>
    <path d="M832.6,265.033c0.533,-0.333 1,-0.733 1.333,-1.066c0.334,-0.4 0.667,-0.734 1,-0.934c0.4,-0.4 0.867,-0.6 1.334,-0.6c0.666,0 1.266,0.534 1.266,1.334c0,0.2 0,0.4 -0.066,0.6c-0,0.066 -0.067,0.133 -0.067,0.2c-0,0.6 0.667,0.666 2.533,0.8l0.334,-0c1,-0 1.2,-0.267 1.333,-0.534l-0,-13.133c-0,-2.2 -0.067,-4.533 -0.067,-6.667c0,-1.066 0,-2.066 0.067,-3l-0,-0.333c-0,-1.733 -0.867,-1.8 -2,-1.8l-0.667,0c-0.8,0 -1.2,0.067 -1.2,0.533c0,0.334 0.067,0.6 0.067,0.8c-0,1.067 -0.4,2 -1.2,2.267c-0.133,0.067 -0.2,0.067 -0.333,0.067c-0.467,-0 -1.067,-0.334 -1.667,-0.867c-0.6,-0.533 -1.067,-1.133 -1.6,-1.667c-0.733,-0.933 -3.467,-1.733 -6,-1.733c-3.733,0 -8,2.4 -10.067,5.267c-1.466,2.133 -2,5.466 -2.266,8.2l-0,0.533c-0,2.6 1.533,6.8 3.2,8.867c1.733,2.2 4.666,4.2 9.6,4.2c2.4,-0 4,-0.6 5.133,-1.334Zm5.133,-12.266c-0.2,2.8 -1.133,6.133 -3.466,7.866c-1.8,1.4 -3.2,1.734 -5.267,1.734c-0.4,-0 -0.8,-0.067 -1.333,-0.067c-3,-0.2 -5.534,-1.533 -6.6,-3.267c-0.867,-1.6 -1.467,-3.666 -1.467,-6l-0,-0.6c0.133,-2.4 1.133,-6.466 2.4,-7.4c0.933,-0.733 3.8,-1.933 6.2,-1.933c0.4,0 0.8,0 1.2,0.067l1.533,0.333c0.267,0 0.267,0.067 0.334,0.067c0.4,0.133 1,0.2 1.4,0.4c1.2,0.4 2.333,1.133 3.2,2.6l1,1.733c0.066,0.467 0.466,0.933 0.666,1.333c0.2,0.534 0.334,1.134 0.334,1.8c-0,0.4 -0.067,0.867 -0.134,1.334Z" style="fill-rule:nonzero;"/>
    <path d="M874.133,261.833c-0.2,-1.733 -0.4,-7.2 -0.4,-11.066c0,-0.8 0.067,-1.6 0.067,-2.2l-0,-0.267c-0,-3.067 -1.6,-5.733 -2.533,-6.867c-0.934,-1.2 -2.934,-2.333 -5.534,-2.4l-0.466,0c-2.2,0 -3.534,0.8 -5.8,2.934c-0.934,0.866 -1.667,1.133 -2.134,1.2c-0.4,-0 -0.6,-0.2 -0.733,-0.4c-0.133,-0.334 -0.2,-0.734 -0.2,-1.134c-0,-0.4 -0,-0.733 0.067,-1.066c-0,-1.134 -1.067,-1.334 -1.867,-1.334c-0.733,0 -2,0.067 -2.267,0.667c-0.066,0.2 -0.133,0.467 -0.133,0.8c0.067,0.4 0.133,0.733 0.133,1.2c0.134,1.867 0.934,6.067 0.934,8.8c-0,2.733 -0.134,6.067 -0.667,10.467c-0.133,0.8 -0.133,1.4 -0.133,1.933c-0,1.933 0.666,2.333 2.2,2.333c0.2,0 0.466,-0.066 0.8,-0.066c1.333,-0.067 1.6,-0.467 1.666,-0.667l0,-0.467c0,-0.466 -0.066,-1 -0.133,-1.333c-0.267,-1.467 -0.533,-6.8 -0.533,-9.133c-0,-2.2 0.333,-5.867 1.733,-7.8c1.467,-2 3.667,-3.134 5.667,-3.134l0.933,0c0.4,0 0.867,0 1.267,0.134c0.733,0.133 1.4,0.533 2.333,1.266c1.133,0.867 1.6,2 1.8,3.4c0.133,0.8 0.133,1.734 0.133,2.734l0,2.133c0,3.8 -0.533,5.933 -0.8,9.667c0,0.266 -0.066,0.6 -0.066,0.8c-0,2.466 1.133,2.533 3.133,2.533c1.4,0 1.733,-0.733 1.733,-1.8c0,-0.6 -0.133,-1.267 -0.2,-1.867Z" style="fill-rule:nonzero;"/>
    <path d="M908.533,223.433c0,-0.533 -0.066,-0.866 -0.133,-1c-0.267,-0.466 -0.867,-0.466 -2.067,-0.6c-0.133,0 -0.266,-0.066 -0.4,-0.066l-0.466,-0c-1.267,-0 -1.534,0.466 -1.667,1c-0.067,0.266 -0.067,0.533 -0.067,0.866l0,0.8l0.2,2.067c0.2,3 0.267,7.933 0.467,10.667c0.067,0.866 0.133,1.533 0.133,2.066c0,1.267 -0.266,1.934 -1.066,2.6c-0.334,0.267 -0.667,0.4 -1,0.4c-0.4,0 -0.8,-0.133 -1.2,-0.333c-0.6,-0.333 -1.467,-0.933 -2.534,-1.6c-1.333,-0.867 -2.933,-1 -4.466,-1c-0.667,0 -1.334,0.067 -1.934,0.067c-2.4,0.066 -5.8,2.2 -7.6,4.2c-1.666,1.933 -2.933,6.133 -2.933,9.933c-0,3.733 2,7.333 4.267,9.467c2.266,2.133 5.466,3.4 7.933,3.4c2.533,-0 5.2,-0.6 7,-2.667c0.933,-1.133 1.733,-1.533 2.2,-1.533c0.8,-0 1.2,0.866 1.4,1.933c0.067,0.467 0.067,0.733 0.333,0.933c0.134,0.067 0.267,0.067 0.667,0.134l1.467,0.2l0.333,-0c0.8,-0 0.933,-0.334 1,-0.734l-0,-1.2l-0.267,-1.533c-0.266,-1.867 -0.666,-10.133 -0.666,-13.467l-0,-0.933l0.4,-4.333c0.066,-0.934 0.133,-1.734 0.133,-2.534c-0,-0.466 -0,-0.866 -0.067,-1.2c-0.066,-0.4 -0.133,-1 -0.133,-1.733c-0,-1.067 0.267,-3.6 0.267,-4l-0,-0.6c0.066,-2.733 0.333,-5.667 0.333,-7.467c-0,-0.866 0.067,-1.6 0.133,-2.2Zm-4.4,26.334c0.334,1 0.534,2 0.534,2.866c-0,1.2 -0.267,2.4 -0.8,3.667c-0.4,1.133 -0.934,1.933 -1.534,2.667c-0.533,0.6 -1.133,1.133 -1.666,1.733c-1.067,1.067 -3,1.467 -4.6,1.467c-0.334,-0 -0.6,-0 -0.8,-0.067l-1.2,0c-0.334,0 -0.8,0 -1.334,-0.133c-0.933,-0.267 -2,-0.867 -3.666,-2.2c-1.6,-1.334 -2.4,-2.534 -2.734,-3.667c-0.266,-0.533 -0.266,-1 -0.333,-1.533c-0,-0 -0,-0.067 -0.133,-1.534l-0,-0.466c-0,-2 0.666,-4.534 2.2,-6.534c1.6,-2.066 2.933,-2.933 5.666,-2.933l0.8,0c3.134,0.067 5.534,0.6 6.8,2c1.067,1.2 2,2.4 2.8,4.667Z" style="fill-rule:nonzero;"/>
    <path d="M970.467,263.9c-0,-0.467 -0.067,-1 -0.2,-1.533l-0.267,-1.667c-0.267,-1.8 -0.533,-6.467 -0.533,-10.2l-0,-2.733c-0,-3 -0.534,-4.467 -1.667,-6c-1.333,-1.667 -3.533,-2.334 -5.2,-2.334c-1.667,0 -2.667,0.4 -4,1.2c-0.6,0.334 -1.2,0.8 -1.667,1.267c-0.666,0.6 -1.466,1.067 -1.733,1.2l-0.467,0c-0.8,0 -1.666,-0.4 -2.733,-1.8c-1.067,-1.467 -2.533,-2 -4.267,-2l-0.8,0c-0.333,0 -0.8,0 -1.2,0.133c-0.533,0.2 -1.2,0.6 -2.466,1.534c-0.934,0.733 -1.534,1 -2,1c-0.334,-0 -0.6,-0.2 -0.734,-0.4c-0.2,-0.2 -0.266,-0.534 -0.333,-0.867l-0.067,-0.4c0,-0.067 -0.066,-0.2 -0.066,-0.2c-0.2,-0.667 -1.134,-0.667 -2.334,-0.667c-0.933,0 -1.933,0.534 -1.933,1.667c-0,1.667 0.4,7.067 0.4,9.733c-0,2.6 -0.133,7.2 -0.4,10.6c-0.067,0.6 -0.067,1.067 -0.067,1.534c0,2 0.534,2.466 2.534,2.466c1.666,0 2.066,-0.666 2.066,-1.8c0,-0.466 -0.066,-1 -0.133,-1.6c-0.333,-1.866 -0.6,-6 -0.6,-9l-0,-1.466c0.2,-2.934 1,-4.6 2.133,-6.134c1.067,-1.466 3.334,-2.6 4.934,-2.6l0.333,0c1.6,0.2 2.867,0.934 3.467,2c0.6,1.067 0.8,2.734 0.8,6.4c-0,3.334 -0.467,8.2 -0.734,10.867c-0.066,0.467 -0.2,1.133 -0.2,1.467c0,1.6 0.734,2.333 2.934,2.333c1.333,0 1.666,-0.4 1.8,-0.6c0.133,-0.2 0.133,-0.4 0.133,-0.6c-0,-0.267 -0.067,-0.533 -0.067,-0.8c-0.133,-1.067 -0.8,-7.6 -0.8,-10.6c0,-3.133 1.134,-6.2 1.8,-7.533c0.8,-1.6 3.8,-2.4 5,-2.534l0.467,0c1.2,0 2.333,0.534 3.667,1.734c0.666,0.8 1,1.733 1.133,2.866c0.067,0.467 0.067,0.934 0.067,1.467c-0,0.8 -0.067,1.8 -0.067,3c-0.133,3.8 -0.667,6.8 -1.067,10.333c-0.066,0.467 -0.066,0.8 -0.066,1.134c-0,1.533 0.533,2 1.866,2c0.467,-0 1,-0 1.667,-0.134c1.333,-0.2 1.6,-0.866 1.667,-1.733Z" style="fill-rule:nonzero;"/>
    <path d="M1006.07,253.167l-0,-0.334c-0,-4.533 -2.134,-7.933 -4.134,-10.066c-2,-2.067 -5.266,-3.734 -9,-3.867l-0.333,0c-6.067,0 -8.733,2.533 -10.667,4.533c-2,2 -3.533,5 -3.533,9.267c-0,4.267 2.533,8.4 4.6,10.267c2,1.8 5,3.133 8.867,3.133l0.4,0c4.133,-0.133 7.333,-0.667 10.2,-3.733c2.866,-3.2 3.6,-4.334 3.6,-9.2Zm-3.8,-0.734c-0,2.534 -0.934,6 -2.6,7.267c-0.4,0.2 -0.8,0.533 -1.334,0.867c-1.666,1.133 -3.533,2 -5.533,2c-0.267,-0 -0.533,-0 -0.867,-0.067c-3.2,-0.4 -4.733,-1.067 -6.666,-3.333c-1.934,-2.134 -2.534,-3.867 -2.534,-6.6c0,-2.667 0.467,-5.2 3.134,-7.2c2.6,-1.934 4.666,-2.2 6.8,-2.2c3.4,-0 5.866,0.933 7.266,3.4c0.667,1.133 1.267,1.866 1.667,2.733c0.333,0.867 0.667,1.8 0.667,3.133Z" style="fill-rule:nonzero;"/>
    <path d="M1034.4,239.767c-0,-0 -0.267,-0.067 -0.6,-0.134l-1.067,0c-1.2,0 -2,0.467 -2.333,1.8c-0.2,0.934 -0.6,1.934 -1,2.934l-1.333,2.866c-0.4,0.934 -1,2.134 -1.6,3.467c-0.534,1.267 -1.067,2.667 -1.4,3.867c-0.734,3 -1.467,3.933 -2.334,4.133c-0.933,0 -1.4,-1.267 -1.6,-1.933l-0.333,-1.334l-0.4,-1.133c-0.667,-1.267 -2,-4.667 -2.867,-6.867l-2.6,-6.333c-0.533,-1.267 -1.2,-1.4 -3.066,-1.6l-0.4,0c-0.934,0 -1.2,0.333 -1.2,0.867c-0,0.066 0.066,0.2 0.066,0.333c0.134,0.933 0.867,2.333 1.667,3.6c1.6,2.467 2.467,4.8 3.667,7.133c1.2,2.4 3.266,6.734 4.466,10.4c1.2,3.667 2.734,4.667 3.267,4.667c0.8,0 1.6,-3.4 2,-5.067c0.333,-0.933 1,-2.466 1.667,-4c0.666,-1.533 1.333,-3 1.666,-3.8c0.267,-0.866 1.2,-2.866 2.267,-5c1.067,-2.2 2.267,-4.666 3.067,-6.533c0.333,-0.933 0.533,-1.533 0.533,-1.867c-0,-0.333 -0.133,-0.4 -0.2,-0.466Z" style="fill-rule:nonzero;"/>
    <path d="M1065.53,252.033c0,-0.066 0.067,-0.133 0.067,-0.266c-0,-0.067 -0.067,-0.267 -0.067,-0.467l-0.266,-1.4c-0.467,-2.133 -2.8,-5.667 -4.534,-7.733c-1.733,-1.867 -5.066,-3 -7.866,-3.134l-0.734,0c-2.866,0 -5.133,1.4 -7.466,2.934l-0.534,0.333c-2.533,1.533 -4.333,6.6 -4.466,10.6l-0,0.2c-0,3.8 2.866,8 5.133,10.533c2.2,2.334 6.733,2.4 9,2.4c2.133,0 3.867,-0.533 5,-1.133c0.467,-0.267 1.133,-0.8 1.933,-1.467c0.734,-0.666 1.534,-1.333 2.4,-2c0.667,-0.466 1,-1 1,-1.533c0,-0.6 -0.333,-1.2 -1.333,-2c-0.333,-0.267 -0.667,-0.4 -0.867,-0.4c-0.333,0 -0.533,0.2 -0.8,0.4c-0.466,0.533 -0.8,1.2 -1.066,1.867c-0.534,1.2 -3.2,2.533 -6.534,2.533l-0.533,0c-2.2,-0.067 -4.067,-0.733 -5.733,-2.067l-1,-0.8c-1.067,-0.933 -2.134,-3.6 -2.134,-5.266l0,-0.467c0.2,-0.8 1.8,-1.267 3.8,-1.333c1.667,-0 3.534,0.066 4.534,0.066c1.4,0 5.266,0.067 8.266,0.067c1.534,0 2.867,0 3.6,-0.067c1.134,0 1.2,-0.266 1.2,-0.4Zm-4.733,-4.4c0.2,0.334 0.267,0.6 0.267,0.867c-0,0.733 -0.6,1.2 -1.8,1.2c-2.6,0 -5.467,0.067 -6.6,0.067c-1.2,-0 -4.734,-0.067 -5.467,-0.267c-0.733,-0.067 -2.333,-0.933 -2.333,-2.133c-0,-0.4 0.133,-0.8 0.466,-1.2c1.067,-1.467 4,-3.467 7.467,-3.467l0.267,0c3.133,0.133 4.2,1.067 5.733,2.533c0.667,0.667 1.6,1.534 2,2.4Z" style="fill-rule:nonzero;"/>
    <path d="M1112.2,261.833c-0.2,-1.733 -0.4,-7.2 -0.4,-11.066c-0,-0.8 0.067,-1.6 0.067,-2.2l-0,-0.267c-0,-3.067 -1.6,-5.733 -2.534,-6.867c-0.933,-1.2 -2.933,-2.333 -5.533,-2.4l-0.467,0c-2.2,0 -3.533,0.8 -5.8,2.934c-0.933,0.866 -1.666,1.133 -2.133,1.2c-0.4,-0 -0.6,-0.2 -0.733,-0.4c-0.134,-0.334 -0.2,-0.734 -0.2,-1.134c-0,-0.4 -0,-0.733 0.066,-1.066c0,-1.134 -1.066,-1.334 -1.866,-1.334c-0.734,0 -2,0.067 -2.267,0.667c-0.067,0.2 -0.133,0.467 -0.133,0.8c0.066,0.4 0.133,0.733 0.133,1.2c0.133,1.867 0.933,6.067 0.933,8.8c0,2.733 -0.133,6.067 -0.666,10.467c-0.134,0.8 -0.134,1.4 -0.134,1.933c0,1.933 0.667,2.333 2.2,2.333c0.2,0 0.467,-0.066 0.8,-0.066c1.334,-0.067 1.6,-0.467 1.667,-0.667l-0,-0.467c-0,-0.466 -0.067,-1 -0.133,-1.333c-0.267,-1.467 -0.534,-6.8 -0.534,-9.133c0,-2.2 0.334,-5.867 1.734,-7.8c1.466,-2 3.666,-3.134 5.666,-3.134l0.934,0c0.4,0 0.866,0 1.266,0.134c0.734,0.133 1.4,0.533 2.334,1.266c1.133,0.867 1.6,2 1.8,3.4c0.133,0.8 0.133,1.734 0.133,2.734l-0,2.133c-0,3.8 -0.533,5.933 -0.8,9.667c-0,0.266 -0.067,0.6 -0.067,0.8c0,2.466 1.134,2.533 3.134,2.533c1.4,0 1.733,-0.733 1.733,-1.8c-0,-0.6 -0.133,-1.267 -0.2,-1.867Z" style="fill-rule:nonzero;"/>
    <path d="M1137.47,265.033c0.533,-0.333 1,-0.733 1.333,-1.066c0.333,-0.4 0.667,-0.734 1,-0.934c0.4,-0.4 0.867,-0.6 1.333,-0.6c0.667,0 1.267,0.534 1.267,1.334c-0,0.2 -0,0.4 -0.067,0.6c0,0.066 -0.066,0.133 -0.066,0.2c-0,0.6 0.666,0.666 2.533,0.8l0.333,-0c1,-0 1.2,-0.267 1.334,-0.534l-0,-13.133c-0,-2.2 -0.067,-4.533 -0.067,-6.667c-0,-1.066 -0,-2.066 0.067,-3l-0,-0.333c-0,-1.733 -0.867,-1.8 -2,-1.8l-0.667,0c-0.8,0 -1.2,0.067 -1.2,0.533c-0,0.334 0.067,0.6 0.067,0.8c-0,1.067 -0.4,2 -1.2,2.267c-0.134,0.067 -0.2,0.067 -0.334,0.067c-0.466,-0 -1.066,-0.334 -1.666,-0.867c-0.6,-0.533 -1.067,-1.133 -1.6,-1.667c-0.734,-0.933 -3.467,-1.733 -6,-1.733c-3.734,0 -8,2.4 -10.067,5.267c-1.467,2.133 -2,5.466 -2.267,8.2l0,0.533c0,2.6 1.534,6.8 3.2,8.867c1.734,2.2 4.667,4.2 9.6,4.2c2.4,-0 4,-0.6 5.134,-1.334Zm5.133,-12.266c-0.2,2.8 -1.133,6.133 -3.467,7.866c-1.8,1.4 -3.2,1.734 -5.266,1.734c-0.4,-0 -0.8,-0.067 -1.334,-0.067c-3,-0.2 -5.533,-1.533 -6.6,-3.267c-0.866,-1.6 -1.466,-3.666 -1.466,-6l-0,-0.6c0.133,-2.4 1.133,-6.466 2.4,-7.4c0.933,-0.733 3.8,-1.933 6.2,-1.933c0.4,0 0.8,0 1.2,0.067l1.533,0.333c0.267,0 0.267,0.067 0.333,0.067c0.4,0.133 1,0.2 1.4,0.4c1.2,0.4 2.334,1.133 3.2,2.6l1,1.733c0.067,0.467 0.467,0.933 0.667,1.333c0.2,0.534 0.333,1.134 0.333,1.8c0,0.4 -0.066,0.867 -0.133,1.334Z" style="fill-rule:nonzero;"/>
    <path d="M1172.13,239.833c-0.466,-0.2 -2.066,-0.733 -3.866,-0.733c-1.8,0 -4.267,1.6 -5.134,3.267c-0.2,0.4 -0.466,0.8 -0.8,1c-0.2,0.066 -0.333,0.066 -0.4,0.066c-0.333,0 -0.6,-0.2 -0.733,-0.4c-0.2,-0.4 -0.267,-0.933 -0.267,-1.466l0,-0.467c0,-1.133 -1.2,-1.6 -2.066,-1.6c-1.667,0 -1.867,0.533 -1.934,0.867c0,0.066 -0.066,0.133 -0.066,0.266c-0,0.2 0.066,0.534 0.133,0.867c0.067,0.467 0.133,1 0.2,1.467c0.133,2.2 0.133,7.133 0.133,10.066c0,2.867 -0.133,5.867 -0.6,9.734c-0.066,0.666 -0.066,1.2 -0.066,1.533c-0,0.4 0.066,0.6 0.333,0.733c0.133,0.067 0.4,0.067 1,0.067c0.533,-0.067 1.2,-0.133 2,-0.133c1.667,-0 2.067,-1.134 2.067,-2.4c-0,-0.934 -0.267,-2 -0.4,-2.8c-0.267,-1.334 -0.334,-3.8 -0.334,-6.267c0,-1.333 0,-2.6 0.067,-3.733c0.2,-3.6 2.6,-5.6 4.867,-6.134c0.866,-0.2 1.466,-0.266 2.066,-0.266c0.8,-0 1.334,0.133 2.2,0.466c0.134,0 0.334,0.2 0.467,0.2c0.2,0 0.267,-0.066 0.333,-0.266c0.134,-0.067 0.267,-0.334 0.334,-0.667c0.2,-0.333 0.333,-0.733 0.466,-1.2c0.2,-0.667 0.334,-1.133 0.334,-1.4c-0,-0.333 -0.134,-0.533 -0.334,-0.667Z" style="fill-rule:nonzero;"/>
    <path d="M1202.47,241.433c0.2,-0.333 0.266,-0.533 0.266,-0.666c0,-0.267 -0.2,-0.334 -0.4,-0.4c-0.266,-0.134 -0.666,-0.2 -1.066,-0.267l-1,-0.067c-0.2,0 -0.534,-0.066 -0.8,-0.066c-0.6,-0 -1.2,0.133 -1.267,0.6c-0.133,1.2 -2.067,5.533 -2.8,7.133c-0.733,1.533 -2.333,5.533 -2.867,7.067c-0.533,1.733 -1.466,4 -2.933,4.4c-0.2,0.066 -0.4,0.133 -0.533,0.133c-0.667,0 -1.067,-0.467 -1.334,-1.067c0,-0.266 -0.133,-0.6 -0.2,-1c-0.066,-0.333 -0.133,-0.733 -0.2,-1.066c-0.2,-0.734 -0.6,-1.467 -1.066,-2.467c-0.534,-0.933 -1.067,-2 -1.534,-3.2c-0.933,-2.4 -2.466,-5.867 -3.333,-8.4c-0.867,-2.133 -1.533,-2.267 -3.733,-2.467l-0.467,0c-1,0 -1.4,0.4 -1.4,0.867c-0,0.933 0.933,2.133 1.4,2.6c0.6,0.667 1.333,2.133 2.133,3.6c0.734,1.467 1.6,3.067 2.4,4.333c0.334,0.667 0.734,1.4 1.067,2.2l0.933,2.4c0.667,1.6 1.267,3.134 2.2,4.2c1.2,1.467 1.667,2.867 1.667,4l-0,0.267c-0,0.733 -0.2,1.4 -0.4,1.867c-0.533,0.866 -1.267,2.133 -2.067,4.466c-0.4,1.2 -1.066,2.334 -1.666,3.334c-0.6,1 -1.2,1.933 -1.734,3c-0.2,0.333 -0.333,0.666 -0.333,0.8c-0,0.8 1,0.8 2.667,0.933c0.133,0 0.333,0.067 0.466,0.067c0.8,-0 1.134,-0.267 1.334,-0.534c0.2,-0.266 0.333,-0.533 0.466,-0.933l0.467,-1.333c0.4,-1 0.733,-2 1.067,-2.934c0.4,-1 0.8,-2 1.333,-3c1.067,-2 2.867,-7.4 4.2,-9.933c1.267,-2.467 3,-6.733 4,-8.8c1,-2.067 3.8,-7.467 5.067,-9.667Z" style="fill-rule:nonzero;"/>
    <path d="M1241.93,265.033c0.534,-0.333 1,-0.733 1.334,-1.066c0.333,-0.4 0.666,-0.734 1,-0.934c0.4,-0.4 0.866,-0.6 1.333,-0.6c0.667,0 1.267,0.534 1.267,1.334c-0,0.2 -0,0.4 -0.067,0.6c-0,0.066 -0.067,0.133 -0.067,0.2c0,0.6 0.667,0.666 2.534,0.8l0.333,-0c1,-0 1.2,-0.267 1.333,-0.534l0,-13.133c0,-2.2 -0.066,-4.533 -0.066,-6.667c-0,-1.066 -0,-2.066 0.066,-3l0,-0.333c0,-1.733 -0.866,-1.8 -2,-1.8l-0.666,0c-0.8,0 -1.2,0.067 -1.2,0.533c-0,0.334 0.066,0.6 0.066,0.8c0,1.067 -0.4,2 -1.2,2.267c-0.133,0.067 -0.2,0.067 -0.333,0.067c-0.467,-0 -1.067,-0.334 -1.667,-0.867c-0.6,-0.533 -1.066,-1.133 -1.6,-1.667c-0.733,-0.933 -3.466,-1.733 -6,-1.733c-3.733,0 -8,2.4 -10.066,5.267c-1.467,2.133 -2,5.466 -2.267,8.2l-0,0.533c-0,2.6 1.533,6.8 3.2,8.867c1.733,2.2 4.667,4.2 9.6,4.2c2.4,-0 4,-0.6 5.133,-1.334Zm5.134,-12.266c-0.2,2.8 -1.134,6.133 -3.467,7.866c-1.8,1.4 -3.2,1.734 -5.267,1.734c-0.4,-0 -0.8,-0.067 -1.333,-0.067c-3,-0.2 -5.533,-1.533 -6.6,-3.267c-0.867,-1.6 -1.467,-3.666 -1.467,-6l0,-0.6c0.134,-2.4 1.134,-6.466 2.4,-7.4c0.934,-0.733 3.8,-1.933 6.2,-1.933c0.4,0 0.8,0 1.2,0.067l1.534,0.333c0.266,0 0.266,0.067 0.333,0.067c0.4,0.133 1,0.2 1.4,0.4c1.2,0.4 2.333,1.133 3.2,2.6l1,1.733c0.067,0.467 0.467,0.933 0.667,1.333c0.2,0.534 0.333,1.134 0.333,1.8c-0,0.4 -0.067,0.867 -0.133,1.334Z" style="fill-rule:nonzero;"/>
    <path d="M1313,263.9c-0,-0.467 -0.067,-1 -0.2,-1.533l-0.267,-1.667c-0.266,-1.8 -0.533,-6.467 -0.533,-10.2l-0,-2.733c-0,-3 -0.533,-4.467 -1.667,-6c-1.333,-1.667 -3.533,-2.334 -5.2,-2.334c-1.666,0 -2.666,0.4 -4,1.2c-0.6,0.334 -1.2,0.8 -1.666,1.267c-0.667,0.6 -1.467,1.067 -1.734,1.2l-0.466,0c-0.8,0 -1.667,-0.4 -2.734,-1.8c-1.066,-1.467 -2.533,-2 -4.266,-2l-0.8,0c-0.334,0 -0.8,0 -1.2,0.133c-0.534,0.2 -1.2,0.6 -2.467,1.534c-0.933,0.733 -1.533,1 -2,1c-0.333,-0 -0.6,-0.2 -0.733,-0.4c-0.2,-0.2 -0.267,-0.534 -0.334,-0.867l-0.066,-0.4c-0,-0.067 -0.067,-0.2 -0.067,-0.2c-0.2,-0.667 -1.133,-0.667 -2.333,-0.667c-0.934,0 -1.934,0.534 -1.934,1.667c0,1.667 0.4,7.067 0.4,9.733c0,2.6 -0.133,7.2 -0.4,10.6c-0.066,0.6 -0.066,1.067 -0.066,1.534c-0,2 0.533,2.466 2.533,2.466c1.667,0 2.067,-0.666 2.067,-1.8c-0,-0.466 -0.067,-1 -0.134,-1.6c-0.333,-1.866 -0.6,-6 -0.6,-9l0,-1.466c0.2,-2.934 1,-4.6 2.134,-6.134c1.066,-1.466 3.333,-2.6 4.933,-2.6l0.333,0c1.6,0.2 2.867,0.934 3.467,2c0.6,1.067 0.8,2.734 0.8,6.4c-0,3.334 -0.467,8.2 -0.733,10.867c-0.067,0.467 -0.2,1.133 -0.2,1.467c-0,1.6 0.733,2.333 2.933,2.333c1.333,0 1.667,-0.4 1.8,-0.6c0.133,-0.2 0.133,-0.4 0.133,-0.6c0,-0.267 -0.066,-0.533 -0.066,-0.8c-0.134,-1.067 -0.8,-7.6 -0.8,-10.6c-0,-3.133 1.133,-6.2 1.8,-7.533c0.8,-1.6 3.8,-2.4 5,-2.534l0.466,0c1.2,0 2.334,0.534 3.667,1.734c0.667,0.8 1,1.733 1.133,2.866c0.067,0.467 0.067,0.934 0.067,1.467c-0,0.8 -0.067,1.8 -0.067,3c-0.133,3.8 -0.666,6.8 -1.066,10.333c-0.067,0.467 -0.067,0.8 -0.067,1.134c-0,1.533 0.533,2 1.867,2c0.466,-0 1,-0 1.666,-0.134c1.334,-0.2 1.6,-0.866 1.667,-1.733Z" style="fill-rule:nonzero;"/>
    <path d="M1345.6,242.567c0.067,-0.467 0.067,-0.8 0.067,-1.134c-0,-1.333 -0.467,-1.8 -2.4,-1.933l-0.334,0c-1.466,0 -1.8,0.6 -1.8,1.6c0,0.333 0,0.667 0.067,1.067c0.133,1.6 0.4,6.8 0.533,10.2c0,0.533 0.067,1.066 0.067,1.6c-0,2.6 -0.4,4.666 -1.6,6.133c-1.4,1.933 -2.8,2 -4.867,2.067l-0.2,-0c-0.466,0.066 -0.933,0.066 -1.333,0.066c-1.6,0 -2.867,-0.333 -4.133,-2.133c-0.8,-1 -1.2,-2.333 -1.4,-3.8c-0.134,-1.4 -0.2,-3.133 -0.267,-5.067c-0.067,-1.6 -0.067,-2.8 -0.067,-3.933c0,-1.533 0.067,-2.867 0.2,-4.867l0,-1.2c0,-0.733 -0.066,-1 -0.133,-1.133c-0.067,0 -0.2,-0.067 -0.467,-0.133c-0.266,-0 -0.666,-0 -1.066,-0.067l-0.467,0c-1.533,0 -1.867,0.533 -1.867,1.133c0,1.4 0.334,2.8 0.334,4.734c-0,1.8 0.066,8.2 0.066,11c0,2.666 1.467,5.333 3.6,6.933c2,1.533 5.534,1.933 7.667,1.933c2.067,0 5.2,-1.333 8,-4.133c1.267,-1.267 1.667,-3.267 1.667,-5.333c-0,-2.067 -0.334,-4.067 -0.334,-5.2c0,-2.2 0.2,-6.2 0.467,-8.4Z" style="fill-rule:nonzero;"/>
    <path d="M1370.4,257.567c-0,-2.134 -1.467,-3.734 -2.8,-5.067c-1.067,-1.067 -5.133,-3.267 -6.533,-3.933c-1.534,-0.667 -3,-1.8 -3,-3.467c-0,-1.667 1.333,-2.333 3,-2.333l0.6,-0c2.133,0.066 3.266,0.8 4.866,2.133c0.534,0.467 0.8,0.533 0.934,0.533c0.2,0 0.333,-0.133 0.466,-0.266l0.467,-0.534c0.133,-0.2 0.333,-0.4 0.4,-0.6c0.2,-0.266 0.267,-0.533 0.267,-0.733c-0,-0.267 -0.067,-0.533 -0.334,-0.867c-0.933,-1 -3.666,-2.866 -7.666,-3l-0.467,0c-1.133,0 -1.733,0.134 -2.2,0.334c-0.533,0.266 -0.933,0.666 -1.333,1.066c-0.934,0.734 -2.067,2.067 -2.2,3.6c-0,0.267 -0.067,0.534 -0.067,0.734c-0,1.533 0.333,2.8 1.267,4c1.066,1.466 3.466,2.933 6,4c2.666,1.066 5.2,3.133 5.2,5.333c-0,2.267 -1.867,3.6 -4.8,3.8c-0.2,0 -0.4,0.067 -0.534,0.067c-2.866,-0 -4.866,-2.4 -5.333,-3.334c-0.133,-0.466 -0.667,-0.733 -1.067,-0.733c-0.266,0 -0.666,0.133 -1.133,0.2c-1,0.267 -1.333,1.067 -1.333,1.867c-0,0.266 -0,0.6 0.2,0.866c0.466,0.867 2.2,2.2 3.8,3.2c1.466,0.8 4.066,1.334 5.866,1.334c1.6,-0 3.534,-1.2 5.267,-2.334c1.467,-1 2.133,-3.666 2.2,-5.866Z" style="fill-rule:nonzero;"/>
    <path d="M1396.93,263.7c0,-0.267 0,-0.533 -0.066,-0.933l-0.134,-1.334c-0.066,-1 -0.266,-1.4 -0.6,-1.4c-0.066,0 -0.266,0.067 -0.466,0.2c-1.2,0.867 -3.2,1.867 -5.934,1.867l-0.866,0c-3.067,-0.333 -4,-0.733 -6.267,-2.333c-2.467,-1.734 -2.933,-4.867 -2.933,-7.334c-0,-2.666 0.8,-5.2 3.133,-7.066c2.4,-1.934 3.6,-2.134 6.267,-2.267l0.466,0c2.534,0 4.2,0.733 5.934,1.933c0.333,0.2 0.6,0.4 0.666,0.4c0.067,0 0.134,-0.066 0.2,-0.133c0.134,-0.2 0.134,-0.467 0.267,-0.867c0.067,-0.466 0.2,-1 0.2,-1.666c0.067,-0.267 0.067,-0.467 0.067,-0.667c-0,-0.667 -0.2,-1 -0.4,-1.2c-0.267,-0.2 -0.467,-0.4 -0.734,-0.533c-0.333,-0.2 -0.666,-0.334 -0.933,-0.6c-1.067,-0.667 -2.8,-0.734 -6.4,-0.934l-0.267,0c-3.6,0 -6.866,2.067 -9.266,4.2c-2.134,2 -3.334,7 -3.334,9.8l0,0.4c0.134,2.8 1,6.267 3.934,9.2c2.866,2.867 6,3.667 8.866,3.867l0.534,0c1.2,0 2.2,-0.2 3.2,-0.4c1.133,-0.267 2.2,-0.733 3.4,-1.133c1.266,-0.467 1.4,-0.8 1.466,-1.067Z" style="fill-rule:nonzero;"/>
    <path d="M1410.13,264.233c0,-1 -0.4,-4.8 -0.666,-6.4c-0.134,-0.8 -0.134,-4 -0.134,-7.333l0,-9.133c0,-4.2 0.267,-12.4 0.534,-16.067l-0,-0.667c-0,-2.466 -1.2,-2.6 -2.534,-2.8l-0.333,0c-0.933,0 -2,0.267 -2,0.6c-0,0.534 0.133,3.534 0.267,5.067c0.066,0.8 0.066,4 0.066,7.467l0,8.8c0.067,1 0.067,2.666 0.067,4.533c-0,4.733 -0.067,11.133 -0.267,14.133c-0.066,0.334 -0.066,0.6 -0.066,0.867c-0,1.4 0.4,1.933 0.8,2.133c0.266,0.267 0.8,0.334 1.2,0.334c0.4,-0 0.8,-0.067 1.133,-0.067c1.733,-0.133 1.933,-0.733 1.933,-1.467Z" style="fill-rule:nonzero;"/>
    <path d="M1444.4,252.033c-0,-0.066 0.067,-0.133 0.067,-0.266c-0,-0.067 -0.067,-0.267 -0.067,-0.467l-0.267,-1.4c-0.466,-2.133 -2.8,-5.667 -4.533,-7.733c-1.733,-1.867 -5.067,-3 -7.867,-3.134l-0.733,0c-2.867,0 -5.133,1.4 -7.467,2.934l-0.533,0.333c-2.533,1.533 -4.333,6.6 -4.467,10.6l0,0.2c0,3.8 2.867,8 5.134,10.533c2.2,2.334 6.733,2.4 9,2.4c2.133,0 3.866,-0.533 5,-1.133c0.466,-0.267 1.133,-0.8 1.933,-1.467c0.733,-0.666 1.533,-1.333 2.4,-2c0.667,-0.466 1,-1 1,-1.533c-0,-0.6 -0.333,-1.2 -1.333,-2c-0.334,-0.267 -0.667,-0.4 -0.867,-0.4c-0.333,0 -0.533,0.2 -0.8,0.4c-0.467,0.533 -0.8,1.2 -1.067,1.867c-0.533,1.2 -3.2,2.533 -6.533,2.533l-0.533,0c-2.2,-0.067 -4.067,-0.733 -5.734,-2.067l-1,-0.8c-1.066,-0.933 -2.133,-3.6 -2.133,-5.266l-0,-0.467c0.2,-0.8 1.8,-1.267 3.8,-1.333c1.667,-0 3.533,0.066 4.533,0.066c1.4,0 5.267,0.067 8.267,0.067c1.533,0 2.867,0 3.6,-0.067c1.133,0 1.2,-0.266 1.2,-0.4Zm-4.733,-4.4c0.2,0.334 0.266,0.6 0.266,0.867c0,0.733 -0.6,1.2 -1.8,1.2c-2.6,0 -5.466,0.067 -6.6,0.067c-1.2,-0 -4.733,-0.067 -5.466,-0.267c-0.734,-0.067 -2.334,-0.933 -2.334,-2.133c0,-0.4 0.134,-0.8 0.467,-1.2c1.067,-1.467 4,-3.467 7.467,-3.467l0.266,0c3.134,0.133 4.2,1.067 5.734,2.533c0.666,0.667 1.6,1.534 2,2.4Z" style="fill-rule:nonzero;"/>
  </g>
  <g id="Footer">
    <g id="FREEZESUCCESSsound" sound="3F-Freezesuccess-1">
      <rect x="125" y="1868" width="338" height="148.762" style="fill:#fff;stroke:#000;stroke-width:2.42px;"/>
      <g id="Closed-Eyes" serif:id="Closed Eyes">
        <path d="M432.618,1897.7c-1.203,0.722 -2.005,2.166 -2.005,3.61c3.53,-0.803 7.38,2.085 7.541,5.615c-3.129,-1.283 -6.338,-2.567 -9.466,-3.931c-0.562,2.808 2.727,4.894 5.535,5.375c2.888,0.481 6.097,0.481 8.022,2.647c3.129,1.123 6.578,1.605 9.867,1.284c-1.765,-3.049 -4.653,-5.455 -7.942,-6.739c5.215,-0.722 10.589,3.771 10.67,9.065c-1.444,-0.401 -2.808,-0.802 -4.172,-1.283c1.444,2.005 2.888,4.011 4.332,5.936c-9.386,-4.011 -19.734,-8.102 -29.441,-5.054c-2.086,0.642 -4.252,1.605 -6.337,0.883c-4.814,-1.685 -10.108,0.401 -14.841,2.246c-7.22,2.807 -14.6,5.054 -22.141,6.818c-4.091,0.963 -8.584,1.685 -12.194,-0.481c-4.572,-2.727 -9.305,7.862 -13.958,5.134c2.006,-2.246 4.011,-4.572 5.936,-6.818c-2.487,-1.525 -5.615,0.24 -8.343,1.444c-2.647,1.203 -6.899,0.882 -7.219,-2.006c-2.487,1.925 -3.691,5.295 -3.129,8.343c-2.407,-2.166 -2.326,-6.578 0.241,-8.584c1.684,-1.444 4.091,-1.684 6.337,-1.925c9.626,-0.963 19.093,-2.487 28.639,-4.011c0.642,-0.08 1.364,-0.241 2.005,-0.321c4.172,-0.642 8.263,-1.364 12.354,-2.005c-2.888,-0.883 -5.856,-1.685 -8.824,-2.567c1.845,-2.247 5.214,-1.765 8.022,-1.525c5.615,0.562 11.311,-0.481 16.365,-2.968c-0.241,-1.444 -1.444,-2.647 -2.888,-2.968c5.054,-0.401 10.268,0.562 14.761,2.728c-1.123,1.042 -0.803,3.208 0.641,3.85c-0.08,-1.765 2.327,-2.968 3.691,-1.845c1.363,0.321 0.481,-2.166 -0.803,-2.727c-4.572,-1.765 -9.145,-3.61 -13.717,-5.455c5.695,-0.161 12.113,-0.722 15.803,-5.135c1.364,1.444 3.851,1.685 5.535,0.642c0.883,-1.845 1.765,-3.69 2.728,-5.455c2.406,0.161 4.813,0.321 7.22,0.482c0.24,3.369 1.283,6.578 3.128,9.385c2.407,-0.802 5.455,0.963 5.856,3.53c-6.257,0.321 -12.674,-1.524 -17.809,-5.214m-52.544,18.611c-1.685,1.123 -3.289,2.246 -4.974,3.449c-0.641,0.482 -1.363,0.963 -2.005,1.444c3.209,0.642 6.738,-0.722 8.503,-3.449c-0.481,-0.481 -1.043,-0.963 -1.524,-1.444m60.567,-23.023c-0.562,-0.482 -1.043,-1.043 -1.605,-1.605c-1.123,0.642 -2.326,1.284 -3.53,1.925c1.284,1.685 3.129,2.728 5.135,3.049c0.641,-1.043 0.641,-2.327 -0,-3.369" style="fill-rule:nonzero;"/>
        <path d="M274.504,1916.48c-1.525,1.204 -3.931,1.043 -5.375,-0.321c1.845,-1.203 4.171,-1.604 6.257,-1.042c0.642,0.401 0,1.684 -0.802,1.363" style="fill-rule:nonzero;"/>
        <path d="M392.669,1905.41c2.567,-1.284 5.615,-1.284 8.182,-0.08c-2.487,1.283 -5.615,1.363 -8.182,0.08" style="fill-rule:nonzero;"/>
        <path d="M416.013,1981.21c1.283,1.043 2.166,2.567 2.326,4.252c-2.166,-0.241 -4.171,-1.604 -5.054,-3.61c0.321,-1.043 2.006,-1.203 2.487,-0.241" style="fill-rule:nonzero;"/>
        <path d="M166.286,1935.81c1.524,-0.16 3.129,0.321 4.412,1.284l0,3.209c-2.567,0.802 -5.615,-0.321 -7.139,-2.567c0.962,-0.482 1.925,-1.043 2.968,-1.605" style="fill-rule:nonzero;"/>
        <path d="M358.094,1956.75c-0.402,0.722 -1.846,0.401 -1.926,-0.401c1.204,-0.882 2.888,-1.043 4.252,-0.401c0.321,-1.284 2.166,-1.765 3.048,-0.883c-1.363,1.043 -2.647,2.086 -3.931,3.049c-0.561,-0.482 -1.042,-0.963 -1.524,-1.444" style="fill-rule:nonzero;"/>
        <path d="M439.838,1919.77l4.011,0c0.401,0.562 0.562,1.284 0.401,1.926c-3.77,1.444 -8.423,0.641 -11.391,-2.166c2.327,0.08 4.653,0.08 6.979,0.08" style="fill-rule:nonzero;"/>
        <path d="M271.375,1950.25c-1.123,-0.722 -2.005,-1.845 -2.487,-3.128c3.049,0.802 5.295,3.93 4.974,7.059c-1.765,0.481 -3.289,-2.166 -2.006,-3.449" style="fill-rule:nonzero;"/>
        <path d="M362.185,1910.86c3.77,-0.481 7.621,0.16 11.07,1.765c-4.332,1.524 -9.065,2.005 -13.637,1.444c-1.364,-1.123 0.802,-3.049 2.567,-3.209" style="fill-rule:nonzero;"/>
        <path d="M186.662,1912.14c-0.401,0.642 -0.722,1.364 -1.123,2.006c-3.369,0.401 -6.899,-0.08 -10.108,-1.203c0.321,-1.204 0.642,-2.327 0.883,-3.53c3.449,0.882 6.899,1.845 10.348,2.727" style="fill-rule:nonzero;"/>
        <path d="M173.265,1879.5c2.006,-2.086 5.134,-2.969 7.862,-2.247c-3.771,2.327 -7.461,4.653 -11.231,6.98c-0.08,-1.685 0.321,-3.37 1.203,-4.733c0.642,-0.963 2.728,-1.043 2.166,-0" style="fill-rule:nonzero;"/>
        <path d="M268.968,1960.68c0.161,2.246 1.525,4.252 2.247,6.337c0.641,2.166 0.24,5.054 -1.845,5.937c-0.883,-3.209 -1.765,-6.338 -2.648,-9.466c-0.481,-1.605 -0.882,-3.53 0.321,-4.733c-1.203,0.641 -2.166,-2.086 -0.722,-2.327c0.883,1.444 1.765,2.888 2.647,4.252" style="fill-rule:nonzero;"/>
        <path d="M147.354,1913.03c-1.284,-3.53 1.685,-7.22 4.813,-9.306c3.129,-2.085 6.899,-3.61 8.824,-6.819c0.722,-1.283 0.803,-3.208 -0.481,-3.69c-1.364,1.765 -3.85,2.728 -6.097,2.327c1.685,-2.006 4.493,-2.407 6.899,-3.37c2.407,-0.962 4.653,-3.85 3.209,-5.936c-0.642,-0.962 0.08,-2.326 1.123,-2.727c1.043,-0.401 2.246,-0.161 3.37,0.08c0.802,0.16 1.604,0.321 2.406,0.561c0.161,0.402 0.401,0.883 0.642,1.364c-4.172,4.493 -7.621,9.546 -10.349,15.082c-0.722,1.444 -1.444,2.968 -2.727,3.93c-1.284,0.963 -3.289,1.124 -4.332,-0.16c-1.364,3.61 -4.011,6.739 -7.3,8.664" style="fill-rule:nonzero;"/>
        <path d="M152.488,1915.03c1.203,-3.289 3.69,-6.016 6.739,-7.46c1.042,1.765 1.764,3.77 2.166,5.856c0.802,-0.802 1.604,-1.524 2.486,-2.326c2.086,0.481 4.172,0.962 6.338,1.363c-5.134,2.006 -9.787,5.054 -13.718,8.825c-4.011,3.85 -11.311,0.08 -15.884,3.208c-1.764,1.204 -3.93,3.53 -5.615,2.086c2.808,-5.375 7.862,-9.546 13.718,-11.311c0.962,1.123 1.363,2.647 1.123,4.091c0.722,0.401 1.364,0.802 2.086,1.284c1.764,-1.605 4.011,-2.808 6.337,-3.45c0.642,-0.882 0.642,-2.246 -0.08,-3.128c-1.685,1.043 -3.771,1.363 -5.696,0.962" style="fill-rule:nonzero;"/>
        <path d="M387.374,1982.1c1.284,1.043 2.968,1.444 4.573,1.123c-0.883,1.364 0.561,3.53 2.166,3.209c0.24,-1.364 0.561,-2.728 0.802,-4.092l2.807,0c0.161,2.969 2.648,5.616 5.616,5.937c-0.401,0.642 -0.882,1.203 -1.284,1.845c-4.332,0.561 -8.904,-0.08 -12.995,-1.845c-3.209,1.845 -7.782,0.561 -9.627,-2.648c0.321,2.006 -0.882,4.172 -2.808,4.974c-0.802,-1.444 -1.042,-3.209 -0.641,-4.813c-5.455,-2.246 -11.392,-3.53 -17.328,-3.69c-1.123,-2.487 -0.16,-5.616 2.086,-7.06c-4.894,-2.727 -10.268,-5.455 -15.804,-4.733c-0.722,-2.567 1.926,-4.973 4.573,-5.134c2.647,-0.16 5.134,1.204 7.46,2.407c12.354,6.417 26.233,9.867 40.191,10.027c5.776,0.081 11.792,-0.481 17.087,-2.888c4.011,-1.925 7.541,-4.893 10.268,-8.342c1.444,-1.926 4.172,-4.172 5.856,-2.487c-3.048,3.128 -5.695,6.578 -8.102,10.188c-0.321,0.561 -0.722,1.203 -0.722,1.925c0,0.642 0.321,1.284 0.562,1.845c1.444,2.728 2.968,5.455 4.412,8.183c-4.092,0.32 -5.054,-6.659 -8.985,-7.461c-1.203,-0.241 -2.487,0.08 -3.61,0.481c-3.209,1.043 -6.498,2.166 -9.707,3.209c3.049,0.963 5.375,4.091 5.375,7.3l-3.369,0c-0.241,-3.85 -3.69,-6.818 -7.461,-7.781c-3.69,-0.963 -7.621,-0.321 -11.391,0.321m-2.487,1.444l0,-2.487c-2.487,-0.241 -4.973,-0.481 -7.38,-0.802c1.925,2.005 4.572,3.128 7.38,3.369" style="fill-rule:nonzero;"/>
        <path d="M210.086,1897.79c2.086,-0.08 5.135,1.925 3.45,3.209c5.615,1.684 11.552,1.684 17.328,2.647c9.466,1.524 18.531,5.455 25.991,11.472c0.722,-1.525 0.241,-3.45 -0.963,-4.493c1.605,-0.642 3.049,-1.925 3.851,-3.529c-1.765,3.85 1.364,9.064 5.615,9.225c-0.401,1.203 -0.802,2.406 -1.203,3.61c5.616,-0.802 11.472,-0 16.686,2.166c-9.466,3.85 -21.018,1.765 -28.398,-5.215c-0.08,1.043 -0.241,2.086 -0.321,3.129c-12.595,1.444 -25.59,-0.722 -37.142,-6.017c-12.675,-5.936 -26.633,-9.064 -40.592,-9.145c-1.444,-0.802 -3.529,-0.321 -4.412,1.123c2.647,-0.802 5.696,0.803 6.578,3.37c-5.375,0.561 -10.83,-0.642 -15.482,-3.289c6.899,-5.054 15.803,-7.461 24.387,-6.578c-5.134,-3.37 -12.033,-1.765 -17.97,-0.081c4.573,-7.942 11.953,-14.199 20.457,-17.488c-1.204,2.166 -2.327,4.252 -3.53,6.418c1.604,-1.524 4.171,-0.963 6.337,-0.401c7.06,2.005 14.039,4.011 21.098,6.097c-4.412,-0 -8.824,1.524 -12.354,4.171c3.53,-0.16 7.06,-0.241 10.589,-0.401m-22.542,1.765c3.29,1.203 7.06,2.406 10.189,0.802c0.641,-0.321 1.283,-1.043 0.882,-1.604c-3.61,1.042 -7.38,1.283 -11.071,0.802" style="fill-rule:nonzero;"/>
        <path d="M249.395,1957.23c-0.562,0.722 -1.926,0.642 -2.407,-0.24c-0.401,-0.883 0.321,-2.086 1.283,-2.086c2.648,-0 5.375,-0 7.702,1.284c2.326,1.363 3.85,4.412 2.567,6.738c4.091,3.45 5.776,9.546 4.091,14.68c0.321,-2.326 -0.722,-4.813 -2.647,-6.337c-4.011,-3.048 -11.071,0.241 -11.151,5.375c-1.685,0.401 -3.369,0.802 -5.054,1.203c-2.086,2.246 -4.171,4.492 -6.257,6.739c-0.963,-2.648 -2.006,-5.215 -3.048,-7.862c-0.883,3.129 0.08,6.658 2.406,8.904c-3.85,-3.449 -9.787,-1.363 -14.68,0.241c-9.466,3.049 -19.734,3.53 -29.441,1.364c-1.925,-0.401 -4.332,-2.006 -3.369,-3.77c2.005,1.042 4.251,1.443 6.497,1.123c0.321,-0.883 0.241,-2.006 -0.32,-2.808c1.845,-0.802 3.77,-1.364 5.695,-1.765c0.321,2.006 -2.487,3.69 -4.091,2.487c0.481,1.123 1.043,2.246 1.524,3.369c0.802,-1.684 3.129,-2.086 5.054,-1.765c1.845,0.241 3.851,0.963 5.616,0.401c1.845,-0.561 3.128,-3.128 1.684,-4.332c-7.541,3.049 -17.809,-4.733 -23.665,0.963c-3.449,3.369 -8.263,5.295 -13.076,5.295c-1.043,-1.605 -1.444,-3.61 -1.203,-5.455c2.005,-0.321 3.931,1.925 3.369,3.93c3.77,-1.042 6.337,-5.053 5.856,-8.904c-0.962,1.284 -1.925,2.647 -2.888,3.931c-1.203,-1.043 -2.326,-2.166 -3.529,-3.209c-1.685,0.481 -3.37,1.043 -5.054,1.524c1.283,-2.968 4.572,-5.054 7.781,-4.893c-0.882,-0.722 -1.845,-1.444 -2.727,-2.166c-3.45,0.882 -6.819,1.765 -10.269,2.647c2.086,-1.123 4.172,-2.246 5.375,-4.171c1.284,-1.926 1.364,-4.814 -0.481,-6.258c-3.771,-2.807 -6.257,-7.219 -6.819,-11.952c0.882,-0.562 1.685,-1.364 2.246,-2.247c2.567,5.295 5.535,10.589 9.627,14.761c10.107,10.268 25.75,12.835 39.949,11.07c14.28,-1.764 27.677,-7.139 41.555,-10.829c-1.043,-2.006 -2.888,-3.61 -5.054,-4.252c-0.642,1.685 -2.407,2.968 -4.252,2.888c1.203,-1.605 1.765,-3.61 1.605,-5.616" style="fill-rule:nonzero;"/>
      </g>
    </g>
    <g id="FREEZEFAILsound" sound="3F-Freezefail-1">
      <rect x="1233" y="1877" width="348" height="132" style="fill:#fff;stroke:#000;stroke-width:2.41px;"/>
      <g id="Open-Eyes" serif:id="Open Eyes">
        <path d="M1293.96,1895.59c8.567,-1.804 17.857,-0.361 25.432,3.968c-1.352,0.361 -2.615,0.721 -3.968,0.992c-5.321,-4.6 -15.061,-2.255 -17.676,4.329c5.05,-3.157 11.183,-4.6 17.135,-4.059c-0.451,1.804 -1.894,3.247 -3.698,3.698c9.019,1.533 18.038,3.157 26.966,4.78c2.706,0.451 5.682,0.902 7.847,-0.812c0.902,3.608 5.231,5.051 8.838,5.953c6.223,1.533 12.446,2.976 18.669,4.509c6.223,-1.443 13.347,1.714 16.324,7.395c-8.298,1.714 -18.218,2.977 -24.08,-3.156c-13.528,5.772 -28.86,-0.631 -42.929,-4.96c-13.438,-4.149 -27.327,-6.314 -41.396,-6.584c2.254,0.09 3.697,3.337 2.164,5.05c-4.239,-3.066 -10.101,-3.607 -14.881,-1.533c0.181,1.263 -0.18,2.616 -0.902,3.698c2.345,1.082 4.6,2.164 6.945,3.337c-9.289,5.231 -20.112,7.846 -30.754,7.395c3.698,-2.615 7.395,-5.231 11.093,-7.846c3.517,3.517 10.101,3.066 13.077,-0.902c-2.074,-0.361 -4.058,-0.992 -5.952,-1.894c5.682,-8.207 16.143,-12.806 25.974,-11.454c0.902,-2.164 1.803,-4.238 2.705,-6.313c-3.968,2.796 -8.928,4.239 -13.798,3.878c5.681,-6.583 12.987,-11.814 21.013,-15.061c-1.352,1.894 -2.705,3.698 -4.148,5.592m8.567,11.995c2.436,1.262 5.682,0.811 7.666,-1.263c-2.886,-0.541 -5.952,-0.271 -8.748,0.631" style="fill-rule:nonzero;"/>
        <path d="M1441.42,1931.94c-1.263,-0.541 -2.616,-0.631 -3.878,-0.271c1.352,-2.435 4.599,-3.517 7.215,-2.435c-1.173,0.902 -2.255,1.714 -3.427,2.616" style="fill-rule:nonzero;"/>
        <path d="M1290.81,1919.94c-2.255,0 -4.509,-0.812 -6.223,-2.255c2.886,-1.262 6.494,-1.082 9.29,0.542c-1.353,-0.271 -2.796,0.631 -3.067,1.984" style="fill-rule:nonzero;"/>
        <path d="M1390.01,1921.02c-2.255,0.542 -4.87,-0.27 -5.862,-2.344c3.066,-0.451 6.223,-0.181 9.199,0.811c-1.172,0.451 -2.255,0.992 -3.427,1.443" style="fill-rule:nonzero;"/>
        <path d="M1474.43,1982.98c-2.435,-1.533 -4.96,-3.157 -7.395,-4.69c3.247,-0.811 6.764,0.992 8.117,3.968" style="fill-rule:nonzero;"/>
        <path d="M1521.14,1912.46c-2.705,-0.722 -5.411,-1.443 -8.207,-2.165c2.616,-1.894 6.674,-0.992 8.207,1.804" style="fill-rule:nonzero;"/>
        <path d="M1542.43,1929.05c-1.262,0.722 -3.156,-1.443 -1.803,-2.164c2.976,-0 5.952,-0.091 8.928,-0.091c-1.443,2.255 -4.599,3.157 -7.034,2.165" style="fill-rule:nonzero;"/>
        <path d="M1292.07,1974.69c3.066,-0.902 6.493,-0.361 9.109,1.533c0.451,0.361 0.992,0.812 0.992,1.443c-0,0.631 -0.722,1.263 -1.173,0.812c-2.976,-1.263 -5.952,-2.526 -8.928,-3.788" style="fill-rule:nonzero;"/>
        <path d="M1503.65,1977.03c2.615,1.082 5.591,1.443 8.477,1.082c-0.27,0.902 -0.992,1.533 -1.803,1.984c-2.796,1.263 -6.404,-0 -7.847,-2.706" style="fill-rule:nonzero;"/>
        <path d="M1528.18,1904.79c-0.902,-1.624 -1.082,-3.608 -0.632,-5.412c2.436,1.804 5.231,3.067 8.117,3.698c-0.451,0.812 -0.902,1.533 -1.352,2.345c-1.985,-0.18 -4.059,-0.451 -6.133,-0.631" style="fill-rule:nonzero;"/>
        <path d="M1476.23,1917.42c-5.772,0.992 -11.724,1.443 -17.587,1.263c4.329,-4.871 12.627,-5.502 17.587,-1.263" style="fill-rule:nonzero;"/>
        <path d="M1468.84,1942.22c-4.149,4.239 -9.109,7.756 -14.43,10.372c1.984,-6.043 8.117,-10.462 14.43,-10.372" style="fill-rule:nonzero;"/>
        <path d="M1287.11,1967.11c0.722,0.992 1.534,2.074 2.255,3.157c-1.443,1.894 -6.223,-0.361 -6.133,2.074c0.091,0.992 0.542,2.706 -0.27,2.255c-4.239,-1.894 -6.494,-7.125 -5.141,-11.454c1.082,3.697 5.862,5.682 9.289,3.968" style="fill-rule:nonzero;"/>
        <path d="M1547.93,1902c0.902,2.976 1.894,6.042 2.796,9.019c-5.231,-2.345 -10.372,-5.051 -15.332,-8.117c1.082,-1.533 3.337,-1.804 5.05,-1.082c1.714,0.631 3.157,1.893 4.419,3.246c0.722,-1.262 1.804,-2.345 3.067,-3.066" style="fill-rule:nonzero;"/>
        <path d="M1541.26,1959.08c-0.812,0.361 -1.623,0.722 -2.435,1.083c-4.78,-1.984 -9.74,2.164 -13.258,6.042c1.894,-5.231 3.788,-10.462 5.682,-15.692c2.255,3.787 5.862,6.854 10.011,8.567" style="fill-rule:nonzero;"/>
        <path d="M1264.38,1910.83c-2.795,1.173 -5.14,3.608 -6.132,6.494c-0.902,1.082 -2.796,0.36 -3.247,-0.902c-0.451,-1.353 0.18,-2.796 1.082,-3.878c4.329,-5.502 13.979,-6.403 15.693,-13.168c0.18,-0.901 0.36,-1.893 1.082,-2.344c0.721,-0.542 1.984,0.36 1.443,0.992c-0.722,5.591 -4.69,10.642 -9.921,12.806" style="fill-rule:nonzero;"/>
        <path d="M1523.76,1903.71c3.246,3.698 8.297,5.772 13.257,5.502c3.517,-0.181 6.313,2.705 8.478,5.411c-11.364,-2.615 -22.727,-5.592 -34.001,-8.658c3.517,-2.345 8.027,-2.345 12.266,-2.255" style="fill-rule:nonzero;"/>
        <path d="M1346,1940.51c-1.443,-1.082 -2.796,-2.165 -4.149,-3.247c11.003,0.541 17.677,13.528 28.409,16.144c-0.721,1.713 0.271,4.058 2.165,4.599c-0.632,1.804 -3.337,0.992 -4.78,-0.27c-7.215,-5.682 -14.43,-11.454 -21.645,-17.226" style="fill-rule:nonzero;"/>
        <path d="M1332.47,1964.5c-4.69,5.952 -13.528,8.297 -20.473,5.23c-6.944,-3.066 -11.183,-11.453 -9.289,-18.758c1.984,-7.396 10.011,-12.627 17.496,-11.184c3.878,0.812 7.937,1.624 11.003,4.149c5.952,4.78 6.043,14.52 1.263,20.563m-22.186,-15.783c3.517,-1.624 7.936,-0.902 10.642,1.713c1.082,-1.533 3.517,-1.894 4.87,-0.631c-2.165,0.631 -3.788,2.796 -3.878,5.051c-0.09,2.254 1.443,4.509 3.517,5.23c3.517,1.443 6.854,-3.517 5.501,-7.034c-1.443,-3.608 -5.23,-5.411 -8.658,-6.945c-2.976,-1.262 -6.132,-2.525 -9.199,-1.713c-3.066,0.902 -5.321,5.05 -3.156,7.395c0.09,-0.992 0.27,-2.074 0.361,-3.066m1.352,9.379c1.534,0.992 3.518,1.263 5.321,0.812c1.083,-1.353 1.534,-3.157 1.353,-4.87c-2.254,-0.812 -4.599,-1.263 -6.944,-1.443c0.27,1.713 0.541,3.337 0.812,4.96m8.477,5.231c-1.894,0.631 -3.878,1.172 -5.772,1.804c2.886,2.254 7.305,2.164 10.101,-0.271c-1.443,-0.451 -2.976,-0.992 -4.509,-1.533" style="fill-rule:nonzero;"/>
        <path d="M1482.45,1960.35c-1.894,-4.149 -2.165,-9.289 0.18,-13.258c2.886,-5.05 9.109,-7.305 14.881,-7.305c2.525,-0.09 5.141,0.271 7.486,1.263c6.403,2.615 10.101,10.191 8.658,16.865c-1.443,6.674 -7.756,11.995 -14.611,12.446c-6.854,0.451 -13.618,-3.788 -16.594,-10.011m20.653,-11.634c1.533,3.698 3.066,8.387 0.451,11.544c-1.443,-2.796 -1.984,-6.133 -1.443,-9.289c-3.788,2.074 -4.961,7.756 -2.255,11.093c-3.427,0.27 -6.854,0.631 -10.281,0.901c4.238,3.428 10.732,3.608 15.151,0.451c4.419,-3.246 6.223,-9.559 4.239,-14.61c-4.058,-4.329 -12.175,-3.788 -15.693,1.082c3.247,0.902 6.855,0.541 9.831,-1.172m-9.019,6.223c0.271,-0.812 0.09,-1.624 -0.361,-2.255l-3.607,0c-0.451,1.894 -0.812,3.788 -1.173,5.772c2.165,1.804 6.133,-0.902 5.231,-3.517" style="fill-rule:nonzero;"/>
        <path d="M1481.1,1915.7c1.263,0.722 2.165,1.984 2.435,3.427c2.706,-0.36 5.321,-0.631 7.937,-0.901c-0.812,-1.894 -2.526,-3.337 -4.51,-3.878c12.536,-1.985 25.433,-2.075 37.969,-0.451c3.517,0.451 7.035,0.992 10.642,1.623c3.427,0.631 6.945,1.172 10.462,1.804c6.042,0.992 12.987,2.615 15.963,7.936c-0.902,0.181 -1.804,0.271 -2.706,0.451c-10.101,-4.78 -21.825,-6.133 -32.738,-3.698c-1.803,0.361 -3.697,-0.09 -5.501,-0.36c-15.963,-2.165 -31.656,10.552 -47.258,6.764c-2.615,-0.632 -4.96,1.623 -7.125,3.246c-2.164,1.624 -6.042,2.165 -6.944,-0.36c2.886,-0.451 5.411,-2.976 5.682,-5.862c-4.69,1.713 -9.921,2.254 -14.881,1.262c-0.632,1.984 -3.067,3.067 -4.961,2.435c0.091,-4.87 6.313,-6.493 11.184,-6.854c7.215,-0.451 14.52,-0.812 21.735,-1.263c-0.722,-2.074 0.541,-4.599 2.615,-5.321" style="fill-rule:nonzero;"/>
        <path d="M1464.15,1962.69c-1.804,-0.812 -3.788,-1.624 -5.772,-1.443c-1.984,0.09 -4.058,1.623 -4.058,3.698c11.814,0.45 23.538,3.517 34.09,8.838c0.902,0.451 1.894,1.713 0.992,2.255c-9.109,-2.255 -18.217,-4.42 -27.326,-6.674c-4.059,-0.992 -9.921,-0.992 -10.733,3.156c-1.172,0.181 -2.164,-1.082 -2.164,-2.254c-0.09,-1.263 0.631,-2.345 1.262,-3.337c6.133,-9.47 13.529,-18.128 22.006,-25.704c-1.172,-1.082 0.631,-2.705 2.074,-3.246c19.391,-6.404 40.945,-6.133 60.155,0.811c5.051,-0.18 9.831,4.51 9.65,9.65c-0.992,2.976 -5.231,3.608 -8.117,2.345c-2.886,-1.353 -4.96,-3.968 -7.395,-5.952c-7.125,-5.953 -17.135,-6.494 -26.425,-6.764c-7.575,-0.181 -15.692,-0.361 -22.276,3.517c-6.133,3.608 -10.191,10.372 -16.685,13.348c0.271,2.525 0.542,5.14 0.722,7.756" style="fill-rule:nonzero;"/>
        <path d="M1283.77,1941.32c14.61,-10.011 34.541,-10.913 50.865,-3.969c16.324,6.945 29.131,21.014 36.436,37.157c-0.722,0.722 -2.075,0.181 -2.796,-0.721c-0.631,-0.812 -0.812,-1.984 -1.443,-2.886c-1.804,-2.435 -5.501,-2.074 -8.478,-1.443c-8.567,1.804 -17.045,3.607 -25.613,5.411c8.839,-6.133 19.571,-9.47 30.393,-9.289c0.271,-1.804 -1.172,-3.517 -2.976,-3.878c-1.713,-0.271 -3.517,0.541 -4.78,1.804c-1.172,-7.757 -8.117,-13.078 -14.61,-17.497c-16.234,-11.273 -39.773,-10.371 -55.105,1.984c-1.352,0.992 -2.615,2.165 -3.066,3.788c-0.451,1.624 0.271,3.608 1.894,3.968c0,2.886 -0.992,5.772 -2.796,8.027c-3.156,-3.247 -6.493,-6.223 -10.101,-8.928c0.992,-2.255 1.533,-4.69 1.353,-7.215c-0.631,-0.451 -1.804,0.09 -1.804,0.901c-2.254,-0.721 -1.352,-4.058 0.181,-5.862c5.772,-6.944 14.971,-10.912 23.99,-10.371c-7.486,2.345 -14.43,6.493 -20.112,11.904c2.886,0.993 5.952,-1.172 8.568,-2.885" style="fill-rule:nonzero;"/>
      </g>
    </g>
  </g>
</svg>
