<?xml version="1.0" encoding="UTF-8" standalone="no"?>
<!DOCTYPE svg PUBLIC "-//W3C//DTD SVG 1.1//EN" "http://www.w3.org/Graphics/SVG/1.1/DTD/svg11.dtd">
<svg width="100%" height="100%" viewBox="0 0 1688 2200" version="1.1" xmlns="http://www.w3.org/2000/svg" xmlns:xlink="http://www.w3.org/1999/xlink" xml:space="preserve" xmlns:serif="http://www.serif.com/" style="fill-rule:evenodd;clip-rule:evenodd;stroke-linecap:round;stroke-linejoin:round;stroke-miterlimit:1.5;">
  <rect id="START" x="0" y="0" width="1688" height="2200" style="fill:none;"/>
  <path id="Lyric-Text" serif:id="Lyric Text" d="M756.833,711.433c0.667,-1.4 1.067,-2.333 1.067,-3c-0,-0.733 -0.667,-1 -2.4,-1.4c-0.467,-0.133 -0.933,-0.2 -1.333,-0.2c-1.734,0 -1.867,1.134 -2,1.934c-0.134,1.2 -1.067,4.6 -1.6,7c-0.534,2.333 -1.667,6.666 -2.734,9.4c-1.066,2.666 -1.8,6.733 -2.2,8.4c-0.2,0.866 -0.266,1.866 -0.6,2.533c-0.2,0.867 -0.733,1.667 -1.866,1.8c-1,0 -1.667,-0.467 -2.067,-1.133c-0.4,-0.667 -0.533,-1.4 -0.8,-2.067c-0.533,-1.267 -1.067,-3.267 -1.933,-5.333c-0.934,-2.067 -2,-6.8 -2.934,-9c-0.866,-2.267 -2.466,-6.267 -3.4,-9.867c-0.933,-3.533 -2,-4.533 -2.866,-4.667c-1.067,0 -1.267,1.134 -1.4,1.867c-0,0.4 -0.134,0.867 -0.334,1.4l-0.733,1.733c-0.333,1 -0.733,2 -0.867,2.934c-0.133,1 -0.733,2.733 -1.4,4.533c-0.666,1.8 -1.4,3.667 -1.866,5c-0.867,2.8 -2.334,6.133 -3.934,9.333l-0.866,2.134c-0.2,0.666 -0.4,1.2 -0.467,1.666c-0.4,1.334 -0.933,2 -1.533,2c-0.534,0 -1.334,-1.333 -1.867,-3.266c-0.467,-1.534 -0.867,-3.4 -1.333,-4.534c-0.934,-2.333 -1.734,-6.2 -2.2,-8c-0.6,-1.866 -2.4,-7.466 -2.934,-11.133c-0.466,-3.333 -1.666,-3.667 -3.933,-3.8l-0.4,0c-1.4,0 -1.733,0.4 -1.733,1c-0,0.4 0.266,0.933 0.466,1.267c0.334,0.6 0.8,1.933 1.2,3.266c0.467,1.4 1,2.867 1.4,3.867c0.934,1.933 2.134,5.6 3,7.933c0.934,2.4 2.6,8.467 3.267,10.6l1.533,4.734c0.534,1.866 1.067,4 1.267,5.666c0.4,3.2 1.533,4.067 1.867,4.067c0.733,0 1.4,-0.333 2,-2.133c0.333,-1 0.466,-1.867 0.666,-2.667c0.134,-0.867 0.4,-1.733 0.934,-2.733c0.866,-1.934 2.133,-5.334 3.4,-8.667c1.333,-3.4 3.066,-7.667 4,-10.533c0.866,-2.867 2,-5.6 3.466,-5.6c1.134,-0 1.267,0.933 1.334,1.466l-0,0.8c-0,0.2 0.066,0.334 0.066,0.4c0.134,0.134 0.267,0.467 0.467,0.8l1.533,4.2c1.067,1.934 3.667,9 4.334,12.2c0.333,1.467 0.8,2.8 1.4,4.134c0.533,1.4 1.133,2.733 1.466,4.333c0.6,3 2.267,4.267 2.667,4.267c0.467,-0 1.6,-1.134 1.933,-3.334c0.267,-1.133 0.334,-2.066 0.467,-2.933c0.2,-1 0.333,-1.933 0.8,-2.933l1.667,-4.134c0.6,-1.6 1.133,-3.2 1.4,-4.266c0.533,-2.2 2.2,-6.734 3.066,-10.134c0.934,-3.466 2.667,-7.533 4.4,-11.2Z" style="fill-rule:nonzero;"/>
  <path d="M786.5,709.767c-0,-1.267 -0.333,-1.667 -0.933,-1.8c-0.4,-0.134 -2.067,-0.2 -3.934,-0.2l-4.666,-0c-1.8,-0 -9.134,-0.2 -10.8,-0.2c-0.667,-0 -1.134,0.333 -1.134,1.133l0,0.2c0.134,1.333 0.267,5.8 0.4,7.867c0.067,1.266 0.134,6 0.134,10.2c-0,2.8 -0.067,5.266 -0.134,6.066c-0.266,1.934 -0.533,10 -0.8,12.867c0,0.2 -0.066,0.333 -0.066,0.533c-0,0.867 0.333,1.267 0.6,1.334c0.4,0.266 1,0.266 1.533,0.266c1.067,0 4.533,-0.133 7.133,-0.133c2.667,0 8.334,-0.133 11,-0.133c1.2,-0 1.534,-0.734 1.534,-1.4c-0,-0.4 -0.134,-0.8 -0.2,-1c-0.267,-0.934 -0.667,-1.467 -1,-1.467c-0.734,0 -3.534,-0.4 -4.534,-0.4c-1.066,0 -5.6,0.267 -7.933,0.267c-2.533,-0 -3.467,-1.4 -3.467,-2.667l0,-0.333c0,-0.134 0.067,-0.467 0.067,-0.8c-0,-0.4 -0.067,-0.8 -0.067,-1.267c-0.066,-0.933 -0.066,-1.867 -0.066,-2.333c-0,-1.067 -0.2,-4.2 -0.334,-6.134l0,-0.333c0,-2.067 1.4,-2.667 2.334,-2.8c0.066,0 0.266,-0.067 0.466,-0.067c0.734,0 1.934,0.067 3.067,0.2c0.133,0 0.267,0.067 0.4,0.067c1.4,0.133 2.733,0.267 3.2,0.267c1,-0 5.067,-0.267 6.867,-0.267c0.866,0 1,-0.4 1,-1.2l-0,-1.133c-0,-0.6 -0.2,-1.134 -0.734,-1.134c-1.266,0 -5.733,-0.2 -7.133,-0.2c-1.467,0 -5.467,0.134 -7.067,0.134c-1.8,-0 -2.133,-1.334 -2.133,-2.267c-0,-0.133 0.067,-0.333 0.067,-0.467c0.066,-0.733 0.266,-5.533 0.266,-7.066c0,-1.867 0.734,-2.4 2.067,-2.4l5,-0c1.333,-0 6.733,0.4 8.333,0.4c1,-0 1.667,-1 1.667,-2.2Z" style="fill-rule:nonzero;"/>
  <path d="M814.167,746.1c0.066,-0.333 0.066,-0.667 0.066,-0.867c0,-0.933 -0.333,-1.066 -0.733,-1.133c-1.067,-0.133 -3.533,-0.533 -5.6,-0.533c-2,-0 -3.2,0.266 -5.867,0.666c-0.266,0.067 -0.533,0.067 -0.8,0.067c-1,0 -1.666,-0.4 -2,-1.2c-0.133,-0.4 -0.133,-0.933 -0.133,-1.333c-0.067,-0.2 -0.067,-0.4 -0.067,-0.667l0,-0.667c-0.066,-0.333 -0.066,-1 -0.066,-1.733c-0,-3.2 0.2,-9.2 0.2,-12.733c-0,-4.467 0.4,-12.2 0.933,-15.534c0.067,-0.333 0.067,-0.666 0.067,-1c-0,-1.933 -1.267,-2.066 -3.134,-2.333l-0.533,0c-1.267,0 -1.933,0.733 -1.933,2.467l-0,36.866c-0,1.067 0.4,1.4 0.933,1.534c0.267,0.133 0.6,0.133 0.933,0.133c0.467,0 1.134,-0.067 1.534,-0.133c0.866,-0.067 1.8,-0.067 2.866,-0.067c1,0 2.067,0 3.067,0.067c3,0.133 8.333,0.4 8.933,0.4c0.734,-0 0.934,-0.2 1.067,-0.4c0,-0.134 0.067,-0.267 0.133,-0.667c0,-0.333 0.067,-0.733 0.134,-1.2Z" style="fill-rule:nonzero;"/>
  <path d="M853.367,740.1c0.066,-0.267 0.066,-0.467 0.066,-0.667c0,-0.333 -0.066,-0.466 -0.266,-0.466c-0.134,-0 -0.4,0.133 -0.734,0.4l-1.4,1.066c-0.666,0.534 -1.533,1.067 -2.6,1.6c-2.066,1 -4.866,1.867 -8.8,1.867c-7.933,0 -10.933,-3.133 -12.933,-5.267c-2,-2.2 -3.733,-4.8 -4.133,-11c-0,-0.2 -0.067,-0.466 -0.067,-0.666c-0,-6.2 5.533,-12 8.8,-13.934c2.267,-1.333 5.867,-1.733 8.867,-1.733c1.6,0 3,0.133 3.933,0.2c2.933,0.467 6.933,3.4 8.6,4.667c0.2,0.133 0.333,0.266 0.333,0.266c0.134,0 0.134,-0.133 0.2,-0.266c0.067,-0.267 0.067,-0.6 0.067,-1l-0,-2c-0,-0.2 -0,-0.4 -0.067,-0.6c-0.133,-0.334 -0.333,-0.8 -1.133,-1.534c-1.4,-1.466 -5.8,-3.733 -11.733,-3.866l-0.534,-0c-6,-0 -11.6,2.8 -15.2,5.533c-3.6,2.667 -5.666,9.867 -6.066,15.133c-0,0.267 -0.067,0.6 -0.067,0.8c-0,5 3.333,10.8 5.667,13.467c2.4,2.667 7.2,6.133 15.133,6.4l0.533,0c4.2,0 8.067,-1.133 11.534,-3.467c0.666,-0.533 1.2,-0.933 1.466,-1.133c0.4,-0.2 0.534,-0.6 0.534,-1.333l-0,-2.467Z" style="fill-rule:nonzero;"/>
  <path d="M903.5,728.1c0,-2.333 -0.333,-4.933 -1.467,-8.933c-1.133,-3.8 -5.8,-7.667 -8.8,-9.4c-2.866,-1.8 -6.533,-3.067 -11.2,-3.067c-3.666,0 -8.266,1.133 -10.933,2.533c-2.6,1.334 -6.8,5.867 -8.067,8.2c-1.266,2.4 -2.4,6.534 -2.533,9.8l0,0.467c0,3.2 1.2,7.733 1.867,9.4c0.8,1.867 3.466,6.533 7,8.533c3.533,2.067 6.066,3.067 11.666,3.134l0.4,-0c5.467,-0 10.6,-2.067 12.867,-3.534c2.2,-1.466 5.4,-5.066 6.8,-8.733c0.667,-1.867 1.267,-3.4 1.733,-4.733c0.467,-1.334 0.667,-2.467 0.667,-3.667Zm-4.6,3.133c-0.533,2.534 -2.2,5.867 -4.533,7.734c-1.134,1.066 -2.334,1.933 -3.534,2.8c-1.266,0.866 -2.8,1.6 -4.466,2c-1.667,0.4 -3.267,0.666 -5,0.666c-1.667,0 -3.4,-0.266 -5.2,-0.8c-3.467,-1.066 -7,-2.866 -9.134,-7.466c-1.6,-3.267 -2.066,-5.734 -2.066,-8c-0,-0.867 0.066,-1.667 0.133,-2.467c0.4,-2.933 1.6,-6.667 3.8,-9c2.133,-2.267 5.467,-4.067 7.267,-4.733c1.733,-0.667 3.733,-1.2 6.2,-1.2l1,-0c1.4,-0 2.8,0.066 4.2,0.4c1.666,0.466 3.2,1.333 5.133,3.133c3.867,3.6 5.267,6.133 5.933,8.6c0.4,1.467 0.6,3.2 0.6,4.867c0,1.266 -0.133,2.4 -0.333,3.466Z" style="fill-rule:nonzero;"/>
  <path d="M956.1,747.167l0,-0.4c0,-0.4 -0.133,-0.934 -0.2,-1.334c-0.267,-1.2 -1.067,-6.666 -1.6,-9.933c-0.533,-3.267 -1.267,-9.733 -1.867,-13.133c-0.466,-3.4 -0.733,-9.267 -0.866,-12.6c-0.134,-3.267 -1,-3.867 -1.8,-3.867c-0.734,0 -1.334,1 -1.534,2.533c-0.066,0.8 -0.666,2 -1.2,3.134c-0.6,1.2 -1.333,2.533 -1.8,3.733c-0.933,2.467 -3.533,7.533 -4.466,9.8c-0.867,2.2 -2.067,4 -3.267,6.733c-0.533,1.4 -0.933,3.2 -1.4,4.6c-0.533,1.4 -1.333,3 -2.8,3.067c-0.8,0 -1.733,-1.267 -2.4,-3.067c-0.6,-1.533 -1.133,-3.266 -1.533,-4.333c-0.934,-2 -3,-7.133 -4.2,-9.467l-2.667,-5.333c-1.067,-2.2 -2.067,-4.533 -2.667,-6.467c-0.333,-0.933 -0.533,-1.733 -0.733,-2.4c-0.267,-0.733 -0.4,-1.333 -0.667,-1.666c-0.4,-0.734 -1,-1.134 -2.266,-1.134c-0.667,0 -0.734,1.134 -0.934,2.534c-0.2,1.733 -0.333,4.6 -0.333,5.266l0,0.8c0,2.467 -1.133,13.134 -1.533,17.2c-0.534,4.867 -1.934,12.8 -2.334,14.734l-0.266,0.933l-0,0.533c0.066,0.134 0.533,0.467 2.6,0.667l0.533,0c1.533,0 1.867,-0.4 1.933,-0.733c0.067,-0.134 0.067,-0.334 0.067,-0.534c0,-0.533 -0.133,-1.133 -0.133,-1.533l-0,-0.2c-0,-0.933 0.133,-2.8 0.333,-4.667c0,-0.133 0.067,-0.2 0.067,-0.266c0.266,-2.267 0.6,-4.534 0.6,-5.6c0.2,-2.267 1.066,-7.2 1.066,-12.067c0,-1.267 0.134,-2.133 0.467,-2.6c0.2,-0.2 0.467,-0.333 0.667,-0.333c0.333,-0 0.733,0.2 1,0.533c0.666,0.733 1.4,2.4 1.733,3.333c0.267,1 0.667,1.8 1.067,2.667l1.6,3.133c1.2,2.534 2.866,5.667 3.8,8.134c0.933,2.533 3.133,7.333 3.666,9.2c0.534,1.666 1.534,2.533 2.2,2.533c0.534,0 0.867,-0.333 1.4,-2.333c0.334,-0.934 1.267,-3.2 2.334,-5.667l3.333,-7.267c1.8,-4 4,-8.6 4.933,-11.066c0.534,-1.467 1.134,-2.067 1.734,-2.067c0.866,0 1.6,1.333 1.666,2.867c0.134,2.333 0.534,7.333 0.934,10.933c0.4,3.667 0.866,8.4 1.066,10.733c0.067,1.934 0.2,2.6 2.334,2.6l0.533,0c1.4,-0.066 1.667,-0.533 1.8,-0.866Z" style="fill-rule:nonzero;"/>
  <path d="M986.633,709.767c0,-1.267 -0.333,-1.667 -0.933,-1.8c-0.4,-0.134 -2.067,-0.2 -3.933,-0.2l-4.667,-0c-1.8,-0 -9.133,-0.2 -10.8,-0.2c-0.667,-0 -1.133,0.333 -1.133,1.133l-0,0.2c0.133,1.333 0.266,5.8 0.4,7.867c0.066,1.266 0.133,6 0.133,10.2c-0,2.8 -0.067,5.266 -0.133,6.066c-0.267,1.934 -0.534,10 -0.8,12.867c-0,0.2 -0.067,0.333 -0.067,0.533c-0,0.867 0.333,1.267 0.6,1.334c0.4,0.266 1,0.266 1.533,0.266c1.067,0 4.534,-0.133 7.134,-0.133c2.666,0 8.333,-0.133 11,-0.133c1.2,-0 1.533,-0.734 1.533,-1.4c-0,-0.4 -0.133,-0.8 -0.2,-1c-0.267,-0.934 -0.667,-1.467 -1,-1.467c-0.733,0 -3.533,-0.4 -4.533,-0.4c-1.067,0 -5.6,0.267 -7.934,0.267c-2.533,-0 -3.466,-1.4 -3.466,-2.667l-0,-0.333c-0,-0.134 0.066,-0.467 0.066,-0.8c0,-0.4 -0.066,-0.8 -0.066,-1.267c-0.067,-0.933 -0.067,-1.867 -0.067,-2.333c-0,-1.067 -0.2,-4.2 -0.333,-6.134l-0,-0.333c-0,-2.067 1.4,-2.667 2.333,-2.8c0.067,0 0.267,-0.067 0.467,-0.067c0.733,0 1.933,0.067 3.066,0.2c0.134,0 0.267,0.067 0.4,0.067c1.4,0.133 2.734,0.267 3.2,0.267c1,-0 5.067,-0.267 6.867,-0.267c0.867,0 1,-0.4 1,-1.2l-0,-1.133c-0,-0.6 -0.2,-1.134 -0.733,-1.134c-1.267,0 -5.734,-0.2 -7.134,-0.2c-1.466,0 -5.466,0.134 -7.066,0.134c-1.8,-0 -2.134,-1.334 -2.134,-2.267c0,-0.133 0.067,-0.333 0.067,-0.467c0.067,-0.733 0.267,-5.533 0.267,-7.066c-0,-1.867 0.733,-2.4 2.066,-2.4l5,-0c1.334,-0 6.734,0.4 8.334,0.4c1,-0 1.666,-1 1.666,-2.2Z" style="fill-rule:nonzero;"/>
  <g id="Lyric-Text1" serif:id="Lyric Text" transform="matrix(1,-1.2326e-32,0,1,32.3358,-578.167)">
    <g transform="matrix(66.6667,0,0,66.6667,391.064,1776)">
      <path d="M0.253,-0.356c0,-0.008 -0.004,-0.011 -0.012,-0.014c-0.005,-0.001 -0.011,-0.001 -0.017,-0.001c-0.007,0 -0.013,-0.001 -0.02,-0.001l-0.017,-0.002c-0.005,0 -0.009,-0.001 -0.013,-0.002c-0.009,-0.003 -0.015,-0.01 -0.015,-0.02c0,-0.014 0,-0.038 0.002,-0.077l0,-0.004c0,-0.015 -0.003,-0.02 -0.006,-0.022c-0.005,-0.004 -0.015,-0.004 -0.021,-0.004l-0.003,0c-0.015,0 -0.024,0.012 -0.025,0.018c0,0.001 -0.001,0.003 -0.001,0.004c0,0.005 0.001,0.013 0.002,0.023c0.002,0.013 0.004,0.03 0.004,0.047l0,0.005c0,0.018 -0.008,0.028 -0.021,0.031c-0.004,0.001 -0.008,0.001 -0.012,0.001c-0.007,0 -0.016,-0.001 -0.023,-0.001c-0.014,0 -0.022,0.009 -0.025,0.039c0,0.001 -0.001,0.002 -0.001,0.003c0,0.006 0.004,0.008 0.012,0.01c0.005,0.001 0.01,0.001 0.015,0.001c0.005,0 0.01,-0.001 0.014,-0.001c0.016,0 0.037,0.012 0.037,0.034c0,0.016 0.003,0.051 0.003,0.096c0,0.045 -0.006,0.131 -0.006,0.17c0,0.019 0.003,0.024 0.006,0.026l0.008,0.002l0.018,0c0.025,0 0.033,-0.003 0.033,-0.016l0,-0.007c-0.003,-0.028 -0.008,-0.1 -0.009,-0.142c-0.001,-0.014 -0.002,-0.031 -0.002,-0.048c0,-0.033 0.002,-0.067 0.003,-0.089c0.001,-0.022 0.014,-0.031 0.03,-0.032l0.003,0c0.012,0 0.023,0.003 0.035,0.004l0.004,0c0.013,0 0.02,-0.007 0.02,-0.031Z" style="fill-rule:nonzero;"/>
    </g>
    <g transform="matrix(66.6667,0,0,66.6667,409.998,1776)">
      <path d="M0.458,-0.18l0,-0.005c0,-0.068 -0.032,-0.119 -0.062,-0.151c-0.03,-0.031 -0.079,-0.056 -0.135,-0.058l-0.005,-0c-0.091,-0 -0.131,0.038 -0.16,0.068c-0.03,0.03 -0.053,0.075 -0.053,0.139c0,0.064 0.038,0.126 0.069,0.154c0.03,0.027 0.075,0.047 0.133,0.047l0.006,-0c0.062,-0.002 0.11,-0.01 0.153,-0.056c0.043,-0.048 0.054,-0.065 0.054,-0.138Zm-0.057,-0.011c0,0.038 -0.014,0.09 -0.039,0.109c-0.006,0.003 -0.012,0.008 -0.02,0.013c-0.025,0.017 -0.053,0.03 -0.083,0.03c-0.004,-0 -0.008,-0 -0.013,-0.001c-0.048,-0.006 -0.071,-0.016 -0.1,-0.05c-0.029,-0.032 -0.038,-0.058 -0.038,-0.099c0,-0.04 0.007,-0.078 0.047,-0.108c0.039,-0.029 0.07,-0.033 0.102,-0.033c0.051,-0 0.088,0.014 0.109,0.051c0.01,0.017 0.019,0.028 0.025,0.041c0.005,0.013 0.01,0.027 0.01,0.047Z" style="fill-rule:nonzero;"/>
    </g>
    <g transform="matrix(66.6667,0,0,66.6667,443.131,1776)">
      <path d="M0.413,-0.339c0.001,-0.007 0.001,-0.012 0.001,-0.017c0,-0.02 -0.007,-0.027 -0.036,-0.029l-0.005,0c-0.022,0 -0.027,0.009 -0.027,0.024c0,0.005 0,0.01 0.001,0.016c0.002,0.024 0.006,0.102 0.008,0.153c0,0.008 0.001,0.016 0.001,0.024c0,0.039 -0.006,0.07 -0.024,0.092c-0.021,0.029 -0.042,0.03 -0.073,0.031l-0.003,0c-0.007,0.001 -0.014,0.001 -0.02,0.001c-0.024,0 -0.043,-0.005 -0.062,-0.032c-0.012,-0.015 -0.018,-0.035 -0.021,-0.057c-0.002,-0.021 -0.003,-0.047 -0.004,-0.076c-0.001,-0.024 -0.001,-0.042 -0.001,-0.059c0,-0.023 0.001,-0.043 0.003,-0.073l0,-0.018c0,-0.011 -0.001,-0.015 -0.002,-0.017c-0.001,0 -0.003,-0.001 -0.007,-0.002c-0.004,0 -0.01,0 -0.016,-0.001l-0.007,0c-0.023,0 -0.028,0.008 -0.028,0.017c0,0.021 0.005,0.042 0.005,0.071c0,0.027 0.001,0.123 0.001,0.165c0,0.04 0.022,0.08 0.054,0.104c0.03,0.023 0.083,0.029 0.115,0.029c0.031,0 0.078,-0.02 0.12,-0.062c0.019,-0.019 0.025,-0.049 0.025,-0.08c0,-0.031 -0.005,-0.061 -0.005,-0.078c0,-0.033 0.003,-0.093 0.007,-0.126Z" style="fill-rule:nonzero;"/>
    </g>
    <g transform="matrix(66.6667,0,0,66.6667,475.731,1776)">
      <path d="M0.363,-0.022c0,-0.004 0,-0.008 -0.001,-0.014l-0.002,-0.02c-0.001,-0.015 -0.004,-0.021 -0.009,-0.021c-0.001,0 -0.004,0.001 -0.007,0.003c-0.018,0.013 -0.048,0.028 -0.089,0.028l-0.013,0c-0.046,-0.005 -0.06,-0.011 -0.094,-0.035c-0.037,-0.026 -0.044,-0.073 -0.044,-0.11c0,-0.04 0.012,-0.078 0.047,-0.106c0.036,-0.029 0.054,-0.032 0.094,-0.034l0.007,-0c0.038,-0 0.063,0.011 0.089,0.029c0.005,0.003 0.009,0.006 0.01,0.006c0.001,-0 0.002,-0.001 0.003,-0.002c0.002,-0.003 0.002,-0.007 0.004,-0.013c0.001,-0.007 0.003,-0.015 0.003,-0.025c0.001,-0.004 0.001,-0.007 0.001,-0.01c0,-0.01 -0.003,-0.015 -0.006,-0.018c-0.004,-0.003 -0.007,-0.006 -0.011,-0.008c-0.005,-0.003 -0.01,-0.005 -0.014,-0.009c-0.016,-0.01 -0.042,-0.011 -0.096,-0.014l-0.004,0c-0.054,0 -0.103,0.031 -0.139,0.063c-0.032,0.03 -0.05,0.105 -0.05,0.147l0,0.006c0.002,0.042 0.015,0.094 0.059,0.138c0.043,0.043 0.09,0.055 0.133,0.058l0.008,0c0.018,0 0.033,-0.003 0.048,-0.006c0.017,-0.004 0.033,-0.011 0.051,-0.017c0.019,-0.007 0.021,-0.012 0.022,-0.016Z" style="fill-rule:nonzero;"/>
    </g>
    <g transform="matrix(66.6667,0,0,66.6667,501.931,1776)">
      <path d="M0.424,-0.026l0,-0.006c0,-0.008 -0.001,-0.015 -0.002,-0.023c-0.002,-0.017 -0.003,-0.065 -0.003,-0.107c0,-0.027 0,-0.053 0.001,-0.068l0,-0.007c0,-0.037 -0.011,-0.083 -0.028,-0.109c-0.017,-0.026 -0.067,-0.043 -0.093,-0.045c-0.005,0 -0.011,-0.001 -0.017,-0.001c-0.023,0 -0.049,0.005 -0.077,0.026c-0.014,0.011 -0.024,0.015 -0.031,0.015c-0.006,-0 -0.009,-0.002 -0.012,-0.005c-0.006,-0.006 -0.006,-0.017 -0.007,-0.025c-0.003,-0.009 -0.004,-0.019 -0.004,-0.031c0,-0.013 0.001,-0.027 0.003,-0.045c0.004,-0.035 0.008,-0.094 0.01,-0.152l0,-0.006c0,-0.025 -0.005,-0.032 -0.009,-0.036c-0.003,-0.003 -0.006,-0.004 -0.012,-0.005l-0.024,0c-0.023,0 -0.03,0.01 -0.03,0.028c0,0.026 0,0.074 0.003,0.134c0.004,0.061 0.007,0.202 0.007,0.241c0,0.039 -0.003,0.171 -0.006,0.212c-0.001,0.008 -0.002,0.015 -0.002,0.02c0,0.017 0.007,0.021 0.035,0.024l0.006,0c0.023,0 0.027,-0.011 0.027,-0.024c0,-0.004 -0.001,-0.008 -0.001,-0.012c-0.001,-0.012 -0.002,-0.05 -0.002,-0.091c0,-0.041 0.001,-0.085 0.002,-0.107c0.003,-0.05 0.028,-0.071 0.046,-0.085c0.02,-0.015 0.057,-0.024 0.074,-0.024c0.003,0 0.008,0 0.013,0.001c0.02,0.001 0.035,0.009 0.05,0.026c0.02,0.024 0.021,0.057 0.021,0.088l0,0.013c0,0.03 -0.007,0.13 -0.011,0.165c-0.001,0.006 -0.001,0.012 -0.001,0.017c0,0.02 0.007,0.03 0.041,0.033l0.006,-0c0.017,-0 0.023,-0.007 0.025,-0.015c0.001,-0.004 0.002,-0.009 0.002,-0.014Z" style="fill-rule:nonzero;"/>
    </g>
    <g transform="matrix(66.6667,0,0,66.6667,552.398,1776)">
      <path d="M0.253,-0.356c0,-0.008 -0.004,-0.011 -0.012,-0.014c-0.005,-0.001 -0.011,-0.001 -0.017,-0.001c-0.007,0 -0.013,-0.001 -0.02,-0.001l-0.017,-0.002c-0.005,0 -0.009,-0.001 -0.013,-0.002c-0.009,-0.003 -0.015,-0.01 -0.015,-0.02c0,-0.014 0,-0.038 0.002,-0.077l0,-0.004c0,-0.015 -0.003,-0.02 -0.006,-0.022c-0.005,-0.004 -0.015,-0.004 -0.021,-0.004l-0.003,0c-0.015,0 -0.024,0.012 -0.025,0.018c0,0.001 -0.001,0.003 -0.001,0.004c0,0.005 0.001,0.013 0.002,0.023c0.002,0.013 0.004,0.03 0.004,0.047l0,0.005c0,0.018 -0.008,0.028 -0.021,0.031c-0.004,0.001 -0.008,0.001 -0.012,0.001c-0.007,0 -0.016,-0.001 -0.023,-0.001c-0.014,0 -0.022,0.009 -0.025,0.039c0,0.001 -0.001,0.002 -0.001,0.003c0,0.006 0.004,0.008 0.012,0.01c0.005,0.001 0.01,0.001 0.015,0.001c0.005,0 0.01,-0.001 0.014,-0.001c0.016,0 0.037,0.012 0.037,0.034c0,0.016 0.003,0.051 0.003,0.096c0,0.045 -0.006,0.131 -0.006,0.17c0,0.019 0.003,0.024 0.006,0.026l0.008,0.002l0.018,0c0.025,0 0.033,-0.003 0.033,-0.016l0,-0.007c-0.003,-0.028 -0.008,-0.1 -0.009,-0.142c-0.001,-0.014 -0.002,-0.031 -0.002,-0.048c0,-0.033 0.002,-0.067 0.003,-0.089c0.001,-0.022 0.014,-0.031 0.03,-0.032l0.003,0c0.012,0 0.023,0.003 0.035,0.004l0.004,0c0.013,0 0.02,-0.007 0.02,-0.031Z" style="fill-rule:nonzero;"/>
    </g>
    <g transform="matrix(66.6667,0,0,66.6667,571.331,1776)">
      <path d="M0.424,-0.026l0,-0.006c0,-0.008 -0.001,-0.015 -0.002,-0.023c-0.002,-0.017 -0.003,-0.065 -0.003,-0.107c0,-0.027 0,-0.053 0.001,-0.068l0,-0.007c0,-0.037 -0.011,-0.083 -0.028,-0.109c-0.017,-0.026 -0.067,-0.043 -0.093,-0.045c-0.005,0 -0.011,-0.001 -0.017,-0.001c-0.023,0 -0.049,0.005 -0.077,0.026c-0.014,0.011 -0.024,0.015 -0.031,0.015c-0.006,-0 -0.009,-0.002 -0.012,-0.005c-0.006,-0.006 -0.006,-0.017 -0.007,-0.025c-0.003,-0.009 -0.004,-0.019 -0.004,-0.031c0,-0.013 0.001,-0.027 0.003,-0.045c0.004,-0.035 0.008,-0.094 0.01,-0.152l0,-0.006c0,-0.025 -0.005,-0.032 -0.009,-0.036c-0.003,-0.003 -0.006,-0.004 -0.012,-0.005l-0.024,0c-0.023,0 -0.03,0.01 -0.03,0.028c0,0.026 0,0.074 0.003,0.134c0.004,0.061 0.007,0.202 0.007,0.241c0,0.039 -0.003,0.171 -0.006,0.212c-0.001,0.008 -0.002,0.015 -0.002,0.02c0,0.017 0.007,0.021 0.035,0.024l0.006,0c0.023,0 0.027,-0.011 0.027,-0.024c0,-0.004 -0.001,-0.008 -0.001,-0.012c-0.001,-0.012 -0.002,-0.05 -0.002,-0.091c0,-0.041 0.001,-0.085 0.002,-0.107c0.003,-0.05 0.028,-0.071 0.046,-0.085c0.02,-0.015 0.057,-0.024 0.074,-0.024c0.003,0 0.008,0 0.013,0.001c0.02,0.001 0.035,0.009 0.05,0.026c0.02,0.024 0.021,0.057 0.021,0.088l0,0.013c0,0.03 -0.007,0.13 -0.011,0.165c-0.001,0.006 -0.001,0.012 -0.001,0.017c0,0.02 0.007,0.03 0.041,0.033l0.006,-0c0.017,-0 0.023,-0.007 0.025,-0.015c0.001,-0.004 0.002,-0.009 0.002,-0.014Z" style="fill-rule:nonzero;"/>
    </g>
    <g transform="matrix(66.6667,0,0,66.6667,605.131,1776)">
      <path d="M0.437,-0.197c0,-0.001 0.001,-0.002 0.001,-0.004c0,-0.001 -0.001,-0.004 -0.001,-0.007l-0.004,-0.021c-0.007,-0.032 -0.042,-0.085 -0.068,-0.116c-0.026,-0.028 -0.076,-0.045 -0.118,-0.047l-0.011,0c-0.043,0 -0.077,0.021 -0.112,0.044l-0.008,0.005c-0.038,0.023 -0.065,0.099 -0.067,0.159l0,0.003c0,0.057 0.043,0.12 0.077,0.158c0.033,0.035 0.101,0.036 0.135,0.036c0.032,0 0.058,-0.008 0.075,-0.017c0.007,-0.004 0.017,-0.012 0.029,-0.022c0.011,-0.01 0.023,-0.02 0.036,-0.03c0.01,-0.007 0.015,-0.015 0.015,-0.023c0,-0.009 -0.005,-0.018 -0.02,-0.03c-0.005,-0.004 -0.01,-0.006 -0.013,-0.006c-0.005,0 -0.008,0.003 -0.012,0.006c-0.007,0.008 -0.012,0.018 -0.016,0.028c-0.008,0.018 -0.048,0.038 -0.098,0.038l-0.008,0c-0.033,-0.001 -0.061,-0.011 -0.086,-0.031l-0.015,-0.012c-0.016,-0.014 -0.032,-0.054 -0.032,-0.079l0,-0.007c0.003,-0.012 0.027,-0.019 0.057,-0.02c0.025,0 0.053,0.001 0.068,0.001c0.021,0 0.079,0.001 0.124,0.001c0.023,0 0.043,0 0.054,-0.001c0.017,0 0.018,-0.004 0.018,-0.006Zm-0.071,-0.066c0.003,0.005 0.004,0.009 0.004,0.013c0,0.011 -0.009,0.018 -0.027,0.018c-0.039,-0 -0.082,0.001 -0.099,0.001c-0.018,-0 -0.071,-0.001 -0.082,-0.004c-0.011,-0.001 -0.035,-0.014 -0.035,-0.032c0,-0.006 0.002,-0.012 0.007,-0.018c0.016,-0.022 0.06,-0.052 0.112,-0.052l0.004,0c0.047,0.002 0.063,0.016 0.086,0.038c0.01,0.01 0.024,0.023 0.03,0.036Z" style="fill-rule:nonzero;"/>
    </g>
    <g transform="matrix(66.6667,0,0,66.6667,653.531,1776)">
      <path d="M0.289,-0.623l0,-0.006c0,-0.016 -0.008,-0.024 -0.019,-0.028c-0.014,-0.005 -0.031,-0.006 -0.046,-0.008c-0.029,0 -0.057,0.027 -0.075,0.045c-0.026,0.025 -0.037,0.075 -0.037,0.099l0.006,0.111c0,0.024 -0.012,0.03 -0.027,0.03c-0.009,0 -0.02,-0.002 -0.029,-0.006l-0.004,0c-0.009,0 -0.017,0.01 -0.02,0.025c-0.001,0.005 -0.002,0.007 -0.002,0.01c0,0.01 0.005,0.016 0.013,0.02c0.005,0.003 0.012,0.004 0.018,0.004c0.005,-0 0.011,-0 0.016,-0.001c0.013,-0 0.028,-0 0.034,0.014c0.003,0.005 0.003,0.01 0.003,0.016l0,0.084c0,0.029 -0.006,0.126 -0.012,0.171c-0.001,0.004 -0.001,0.007 -0.001,0.011c0,0.029 0.019,0.036 0.05,0.038l0.004,-0c0.014,-0 0.018,-0.003 0.02,-0.007c0.002,-0.005 0.002,-0.012 0.002,-0.018l0,-0.009c0,-0.023 -0.007,-0.092 -0.007,-0.137l0,-0.129c0,-0.02 0.006,-0.032 0.022,-0.035c0.006,-0.002 0.013,-0.002 0.022,-0.002c0.007,0.001 0.016,0.001 0.026,0.001c0.02,-0 0.027,-0.003 0.03,-0.006c0,-0.002 0.002,-0.005 0.003,-0.01l0.002,-0.017c0,-0.01 -0.006,-0.012 -0.012,-0.013c-0.006,-0.001 -0.013,-0.001 -0.019,-0.001l-0.023,0c-0.037,0 -0.047,-0.034 -0.05,-0.061c-0.001,-0.013 -0.002,-0.033 -0.002,-0.05c0,-0.018 0.001,-0.036 0.005,-0.048c0.008,-0.02 0.036,-0.051 0.071,-0.051l0.004,0c0.007,0 0.013,0.001 0.018,0.001c0.004,0 0.006,-0.001 0.007,-0.002c0.006,-0.004 0.006,-0.013 0.008,-0.031c0,-0.001 0.001,-0.002 0.001,-0.004Z" style="fill-rule:nonzero;"/>
    </g>
    <g transform="matrix(66.6667,0,0,66.6667,674.398,1776)">
      <path d="M0.306,-0.002c0.008,-0.005 0.015,-0.011 0.02,-0.016c0.005,-0.006 0.01,-0.011 0.015,-0.014c0.006,-0.006 0.013,-0.009 0.02,-0.009c0.01,0 0.019,0.008 0.019,0.02c-0,0.003 -0,0.006 -0.001,0.009c-0,0.001 -0.001,0.002 -0.001,0.003c-0,0.009 0.01,0.01 0.038,0.012l0.005,0c0.015,0 0.018,-0.004 0.02,-0.008l-0,-0.197c-0,-0.033 -0.001,-0.068 -0.001,-0.1c-0,-0.016 -0,-0.031 0.001,-0.045l-0,-0.005c-0,-0.026 -0.013,-0.027 -0.03,-0.027l-0.01,0c-0.012,0 -0.018,0.001 -0.018,0.008c0,0.005 0.001,0.009 0.001,0.012c0,0.016 -0.006,0.03 -0.018,0.034c-0.002,0.001 -0.003,0.001 -0.005,0.001c-0.007,0 -0.016,-0.005 -0.025,-0.013c-0.009,-0.008 -0.016,-0.017 -0.024,-0.025c-0.011,-0.014 -0.052,-0.026 -0.09,-0.026c-0.056,0 -0.12,0.036 -0.151,0.079c-0.022,0.032 -0.03,0.082 -0.034,0.123l0,0.008c0,0.039 0.023,0.102 0.048,0.133c0.026,0.033 0.07,0.063 0.144,0.063c0.036,0 0.06,-0.009 0.077,-0.02Zm0.077,-0.184c-0.003,0.042 -0.017,0.092 -0.052,0.118c-0.027,0.021 -0.048,0.026 -0.079,0.026c-0.006,0 -0.012,-0.001 -0.02,-0.001c-0.045,-0.003 -0.083,-0.023 -0.099,-0.049c-0.013,-0.024 -0.022,-0.055 -0.022,-0.09l-0,-0.009c0.002,-0.036 0.017,-0.097 0.036,-0.111c0.014,-0.011 0.057,-0.029 0.093,-0.029c0.006,0 0.012,0 0.018,0.001l0.023,0.005c0.004,0 0.004,0.001 0.005,0.001c0.006,0.002 0.015,0.003 0.021,0.006c0.018,0.006 0.035,0.017 0.048,0.039l0.015,0.026c0.001,0.007 0.007,0.014 0.01,0.02c0.003,0.008 0.005,0.017 0.005,0.027c-0,0.006 -0.001,0.013 -0.002,0.02Z" style="fill-rule:nonzero;"/>
    </g>
    <g transform="matrix(66.6667,0,0,66.6667,708.931,1776)">
      <path d="M0.631,-0.354c0.002,-0.005 0.004,-0.009 0.004,-0.012c0,-0.006 -0.005,-0.009 -0.012,-0.01c-0.005,-0.001 -0.011,-0.001 -0.017,-0.001c-0.01,0 -0.021,0.001 -0.03,0.002c-0.009,0.001 -0.014,0.007 -0.019,0.016c-0.005,0.01 -0.007,0.021 -0.011,0.03c-0.004,0.008 -0.007,0.022 -0.011,0.039c-0.004,0.017 -0.008,0.036 -0.013,0.052c-0.002,0.008 -0.006,0.016 -0.01,0.023c-0.01,0.022 -0.023,0.042 -0.024,0.067c-0.002,0.016 -0.009,0.027 -0.02,0.027c-0.002,0 -0.006,-0.001 -0.009,-0.003c-0.011,-0.005 -0.021,-0.017 -0.025,-0.031c-0.005,-0.021 -0.024,-0.065 -0.038,-0.096c-0.015,-0.031 -0.03,-0.069 -0.04,-0.096l-0.007,-0.019c-0.002,-0.006 -0.004,-0.011 -0.007,-0.015c-0.005,-0.009 -0.01,-0.013 -0.016,-0.014c-0.016,0.002 -0.023,0.034 -0.026,0.045c-0.006,0.02 -0.016,0.054 -0.028,0.083c-0.006,0.015 -0.014,0.029 -0.021,0.043c-0.007,0.014 -0.013,0.029 -0.015,0.045c-0.006,0.034 -0.016,0.057 -0.032,0.06c-0.002,-0 -0.003,0.001 -0.003,0.001c-0.012,-0 -0.022,-0.012 -0.027,-0.038c-0.002,-0.009 -0.006,-0.017 -0.012,-0.028c-0.006,-0.011 -0.012,-0.022 -0.018,-0.036c-0.007,-0.014 -0.011,-0.032 -0.015,-0.052l-0.013,-0.063c-0.009,-0.039 -0.02,-0.046 -0.058,-0.05l-0.007,0c-0.017,0 -0.021,0.009 -0.021,0.016c0,0.002 0.001,0.003 0.001,0.004c0.001,0.012 0.02,0.052 0.032,0.074c0.012,0.021 0.035,0.078 0.06,0.13c0.026,0.054 0.044,0.103 0.056,0.136c0.01,0.029 0.015,0.054 0.027,0.054c0.01,-0 0.016,-0.018 0.024,-0.04l0.004,-0.014c0.01,-0.029 0.022,-0.065 0.032,-0.09c0.006,-0.014 0.015,-0.03 0.022,-0.046c0.007,-0.016 0.013,-0.034 0.018,-0.05c0.003,-0.015 0.01,-0.024 0.02,-0.024c0.004,-0 0.008,0.001 0.012,0.004c0.011,0.006 0.021,0.02 0.028,0.033c0.014,0.027 0.04,0.093 0.05,0.125c0.009,0.031 0.026,0.074 0.046,0.097c0.003,0.002 0.004,0.004 0.006,0.004c0.002,-0 0.003,-0.002 0.006,-0.006c0.006,-0.008 0.008,-0.018 0.011,-0.027c0.004,-0.011 0.014,-0.049 0.021,-0.071c0.009,-0.021 0.032,-0.064 0.045,-0.106c0.015,-0.044 0.055,-0.129 0.08,-0.172Z" style="fill-rule:nonzero;"/>
    </g>
    <g transform="matrix(66.6667,0,0,66.6667,753.198,1776)">
      <path d="M0.411,-0.05c-0.003,-0.026 -0.006,-0.108 -0.006,-0.166c0,-0.012 0.001,-0.024 0.001,-0.033l0,-0.004c0,-0.046 -0.024,-0.086 -0.038,-0.103c-0.014,-0.018 -0.044,-0.035 -0.083,-0.036l-0.007,0c-0.033,0 -0.053,0.012 -0.087,0.044c-0.014,0.013 -0.025,0.017 -0.032,0.018c-0.006,0 -0.009,-0.003 -0.011,-0.006c-0.002,-0.005 -0.003,-0.011 -0.003,-0.017c0,-0.006 0,-0.011 0.001,-0.016c0,-0.017 -0.016,-0.02 -0.028,-0.02c-0.011,0 -0.03,0.001 -0.034,0.01c-0.001,0.003 -0.002,0.007 -0.002,0.012c0.001,0.006 0.002,0.011 0.002,0.018c0.002,0.028 0.014,0.091 0.014,0.132c0,0.041 -0.002,0.091 -0.01,0.157c-0.002,0.012 -0.002,0.021 -0.002,0.029c0,0.029 0.01,0.035 0.033,0.035c0.003,0 0.007,-0.001 0.012,-0.001c0.02,-0.001 0.024,-0.007 0.025,-0.01l0,-0.007c0,-0.007 -0.001,-0.015 -0.002,-0.02c-0.004,-0.022 -0.008,-0.102 -0.008,-0.137c0,-0.033 0.005,-0.088 0.026,-0.117c0.022,-0.03 0.055,-0.047 0.085,-0.047l0.014,0c0.006,0 0.013,0 0.019,0.002c0.011,0.002 0.021,0.008 0.035,0.019c0.017,0.013 0.024,0.03 0.027,0.051c0.002,0.012 0.002,0.026 0.002,0.041l-0,0.032c-0,0.057 -0.008,0.089 -0.012,0.145c-0,0.004 -0.001,0.009 -0.001,0.012c-0,0.037 0.017,0.038 0.047,0.038c0.021,0 0.026,-0.011 0.026,-0.027c-0,-0.009 -0.002,-0.019 -0.003,-0.028Z" style="fill-rule:nonzero;"/>
    </g>
    <g transform="matrix(66.6667,0,0,66.6667,802.131,1776)">
      <path d="M0.253,-0.356c0,-0.008 -0.004,-0.011 -0.012,-0.014c-0.005,-0.001 -0.011,-0.001 -0.017,-0.001c-0.007,0 -0.013,-0.001 -0.02,-0.001l-0.017,-0.002c-0.005,0 -0.009,-0.001 -0.013,-0.002c-0.009,-0.003 -0.015,-0.01 -0.015,-0.02c0,-0.014 0,-0.038 0.002,-0.077l0,-0.004c0,-0.015 -0.003,-0.02 -0.006,-0.022c-0.005,-0.004 -0.015,-0.004 -0.021,-0.004l-0.003,0c-0.015,0 -0.024,0.012 -0.025,0.018c0,0.001 -0.001,0.003 -0.001,0.004c0,0.005 0.001,0.013 0.002,0.023c0.002,0.013 0.004,0.03 0.004,0.047l0,0.005c0,0.018 -0.008,0.028 -0.021,0.031c-0.004,0.001 -0.008,0.001 -0.012,0.001c-0.007,0 -0.016,-0.001 -0.023,-0.001c-0.014,0 -0.022,0.009 -0.025,0.039c0,0.001 -0.001,0.002 -0.001,0.003c0,0.006 0.004,0.008 0.012,0.01c0.005,0.001 0.01,0.001 0.015,0.001c0.005,0 0.01,-0.001 0.014,-0.001c0.016,0 0.037,0.012 0.037,0.034c0,0.016 0.003,0.051 0.003,0.096c0,0.045 -0.006,0.131 -0.006,0.17c0,0.019 0.003,0.024 0.006,0.026l0.008,0.002l0.018,0c0.025,0 0.033,-0.003 0.033,-0.016l0,-0.007c-0.003,-0.028 -0.008,-0.1 -0.009,-0.142c-0.001,-0.014 -0.002,-0.031 -0.002,-0.048c0,-0.033 0.002,-0.067 0.003,-0.089c0.001,-0.022 0.014,-0.031 0.03,-0.032l0.003,0c0.012,0 0.023,0.003 0.035,0.004l0.004,0c0.013,0 0.02,-0.007 0.02,-0.031Z" style="fill-rule:nonzero;"/>
    </g>
    <g transform="matrix(66.6667,0,0,66.6667,821.064,1776)">
      <path d="M0.458,-0.18l0,-0.005c0,-0.068 -0.032,-0.119 -0.062,-0.151c-0.03,-0.031 -0.079,-0.056 -0.135,-0.058l-0.005,-0c-0.091,-0 -0.131,0.038 -0.16,0.068c-0.03,0.03 -0.053,0.075 -0.053,0.139c0,0.064 0.038,0.126 0.069,0.154c0.03,0.027 0.075,0.047 0.133,0.047l0.006,-0c0.062,-0.002 0.11,-0.01 0.153,-0.056c0.043,-0.048 0.054,-0.065 0.054,-0.138Zm-0.057,-0.011c0,0.038 -0.014,0.09 -0.039,0.109c-0.006,0.003 -0.012,0.008 -0.02,0.013c-0.025,0.017 -0.053,0.03 -0.083,0.03c-0.004,-0 -0.008,-0 -0.013,-0.001c-0.048,-0.006 -0.071,-0.016 -0.1,-0.05c-0.029,-0.032 -0.038,-0.058 -0.038,-0.099c0,-0.04 0.007,-0.078 0.047,-0.108c0.039,-0.029 0.07,-0.033 0.102,-0.033c0.051,-0 0.088,0.014 0.109,0.051c0.01,0.017 0.019,0.028 0.025,0.041c0.005,0.013 0.01,0.027 0.01,0.047Z" style="fill-rule:nonzero;"/>
    </g>
    <g transform="matrix(66.6667,0,0,66.6667,870.864,1776)">
      <path d="M0.471,-0.196l0,-0.008c0,-0.053 -0.031,-0.1 -0.057,-0.132c-0.025,-0.03 -0.082,-0.053 -0.131,-0.055c-0.046,0 -0.089,0.029 -0.118,0.058c-0.008,0.007 -0.014,0.011 -0.019,0.011c-0.005,0 -0.009,-0.003 -0.011,-0.006c-0.003,-0.004 -0.004,-0.013 -0.004,-0.025l-0,-0.013c-0,-0.014 -0.007,-0.015 -0.03,-0.017l-0.004,0c-0.018,0 -0.023,0.012 -0.023,0.027c-0,0.01 0.002,0.02 0.003,0.028c0.003,0.022 0.005,0.15 0.005,0.227c-0,0.023 -0,0.04 -0.001,0.051c-0.002,0.049 -0.004,0.179 -0.008,0.216c-0,0.003 -0.001,0.004 -0.001,0.006c-0,0.021 0.014,0.028 0.033,0.028c0.002,0 0.005,-0.001 0.008,-0.001c0.025,-0.001 0.033,-0.01 0.033,-0.015l-0,-0.005c-0,-0.007 -0,-0.016 -0.001,-0.028c-0.002,-0.014 -0.004,-0.031 -0.004,-0.044c-0.001,-0.007 -0.001,-0.014 -0.001,-0.023l-0,-0.015c-0,-0.02 -0,-0.04 -0.004,-0.063c-0.001,-0.009 -0.002,-0.017 -0.002,-0.023c-0,-0.023 0.007,-0.033 0.023,-0.035l0.004,0c0.008,0 0.015,0.006 0.02,0.011c0.007,0.006 0.012,0.014 0.017,0.021c0.01,0.013 0.02,0.024 0.092,0.024c0.035,0 0.056,-0.006 0.074,-0.016c0.008,-0.005 0.017,-0.011 0.025,-0.018l0.028,-0.022c0.038,-0.029 0.054,-0.086 0.054,-0.144Zm-0.056,0.008l-0.003,0.04c-0.004,0.037 -0.014,0.053 -0.046,0.076c-0.02,0.015 -0.033,0.021 -0.045,0.025c-0.006,0.001 -0.012,0.001 -0.019,0.001c-0.001,-0 -0.004,0.001 -0.006,0.001c-0.005,-0 -0.009,-0.001 -0.015,-0.001c-0.033,-0 -0.065,-0.004 -0.096,-0.029c-0.032,-0.025 -0.052,-0.072 -0.052,-0.123c-0,-0.052 0.023,-0.093 0.06,-0.117c0.009,-0.005 0.016,-0.01 0.023,-0.013l0.017,-0.008c0.012,-0.005 0.023,-0.005 0.041,-0.005c0.041,0 0.075,0.016 0.094,0.038c0.004,0.005 0.01,0.01 0.015,0.017c0.006,0.006 0.012,0.014 0.017,0.023c0.008,0.016 0.015,0.037 0.015,0.062l0,0.013Z" style="fill-rule:nonzero;"/>
    </g>
    <g transform="matrix(66.6667,0,0,66.6667,906.198,1776)">
      <path d="M0.168,-0.014c0,-0.015 -0.006,-0.072 -0.01,-0.096c-0.002,-0.012 -0.002,-0.06 -0.002,-0.11l0,-0.137c0,-0.063 0.004,-0.186 0.008,-0.241l0,-0.01c0,-0.037 -0.018,-0.039 -0.038,-0.042l-0.005,0c-0.014,0 -0.03,0.004 -0.03,0.009c0,0.008 0.002,0.053 0.004,0.076c0.001,0.012 0.001,0.06 0.001,0.112l0,0.132c0.001,0.015 0.001,0.04 0.001,0.068c0,0.071 -0.001,0.167 -0.004,0.212c-0.001,0.005 -0.001,0.009 -0.001,0.013c0,0.021 0.006,0.029 0.012,0.032c0.004,0.004 0.012,0.005 0.018,0.005c0.006,0 0.012,-0.001 0.017,-0.001c0.026,-0.002 0.029,-0.011 0.029,-0.022Z" style="fill-rule:nonzero;"/>
    </g>
    <g transform="matrix(66.6667,0,0,66.6667,922.531,1776)">
      <path d="M0.306,-0.002c0.008,-0.005 0.015,-0.011 0.02,-0.016c0.005,-0.006 0.01,-0.011 0.015,-0.014c0.006,-0.006 0.013,-0.009 0.02,-0.009c0.01,0 0.019,0.008 0.019,0.02c-0,0.003 -0,0.006 -0.001,0.009c-0,0.001 -0.001,0.002 -0.001,0.003c-0,0.009 0.01,0.01 0.038,0.012l0.005,0c0.015,0 0.018,-0.004 0.02,-0.008l-0,-0.197c-0,-0.033 -0.001,-0.068 -0.001,-0.1c-0,-0.016 -0,-0.031 0.001,-0.045l-0,-0.005c-0,-0.026 -0.013,-0.027 -0.03,-0.027l-0.01,0c-0.012,0 -0.018,0.001 -0.018,0.008c0,0.005 0.001,0.009 0.001,0.012c0,0.016 -0.006,0.03 -0.018,0.034c-0.002,0.001 -0.003,0.001 -0.005,0.001c-0.007,0 -0.016,-0.005 -0.025,-0.013c-0.009,-0.008 -0.016,-0.017 -0.024,-0.025c-0.011,-0.014 -0.052,-0.026 -0.09,-0.026c-0.056,0 -0.12,0.036 -0.151,0.079c-0.022,0.032 -0.03,0.082 -0.034,0.123l0,0.008c0,0.039 0.023,0.102 0.048,0.133c0.026,0.033 0.07,0.063 0.144,0.063c0.036,0 0.06,-0.009 0.077,-0.02Zm0.077,-0.184c-0.003,0.042 -0.017,0.092 -0.052,0.118c-0.027,0.021 -0.048,0.026 -0.079,0.026c-0.006,0 -0.012,-0.001 -0.02,-0.001c-0.045,-0.003 -0.083,-0.023 -0.099,-0.049c-0.013,-0.024 -0.022,-0.055 -0.022,-0.09l-0,-0.009c0.002,-0.036 0.017,-0.097 0.036,-0.111c0.014,-0.011 0.057,-0.029 0.093,-0.029c0.006,0 0.012,0 0.018,0.001l0.023,0.005c0.004,0 0.004,0.001 0.005,0.001c0.006,0.002 0.015,0.003 0.021,0.006c0.018,0.006 0.035,0.017 0.048,0.039l0.015,0.026c0.001,0.007 0.007,0.014 0.01,0.02c0.003,0.008 0.005,0.017 0.005,0.027c-0,0.006 -0.001,0.013 -0.002,0.02Z" style="fill-rule:nonzero;"/>
    </g>
    <g transform="matrix(66.6667,0,0,66.6667,957.064,1776)">
      <path d="M0.432,-0.356c0.003,-0.005 0.004,-0.008 0.004,-0.01c0,-0.004 -0.003,-0.005 -0.006,-0.006c-0.004,-0.002 -0.01,-0.003 -0.016,-0.004l-0.015,-0.001c-0.003,0 -0.008,-0.001 -0.012,-0.001c-0.009,0 -0.018,0.002 -0.019,0.009c-0.002,0.018 -0.031,0.083 -0.042,0.107c-0.011,0.023 -0.035,0.083 -0.043,0.106c-0.008,0.026 -0.022,0.06 -0.044,0.066c-0.003,0.001 -0.006,0.002 -0.008,0.002c-0.01,0 -0.016,-0.007 -0.02,-0.016c0,-0.004 -0.002,-0.009 -0.003,-0.015c-0.001,-0.005 -0.002,-0.011 -0.003,-0.016c-0.003,-0.011 -0.009,-0.022 -0.016,-0.037c-0.008,-0.014 -0.016,-0.03 -0.023,-0.048c-0.014,-0.036 -0.037,-0.088 -0.05,-0.126c-0.013,-0.032 -0.023,-0.034 -0.056,-0.037l-0.007,0c-0.015,0 -0.021,0.006 -0.021,0.013c0,0.014 0.014,0.032 0.021,0.039c0.009,0.01 0.02,0.032 0.032,0.054c0.011,0.022 0.024,0.046 0.036,0.065c0.005,0.01 0.011,0.021 0.016,0.033l0.014,0.036c0.01,0.024 0.019,0.047 0.033,0.063c0.018,0.022 0.025,0.043 0.025,0.06l-0,0.004c-0,0.011 -0.003,0.021 -0.006,0.028c-0.008,0.013 -0.019,0.032 -0.031,0.067c-0.006,0.018 -0.016,0.035 -0.025,0.05c-0.009,0.015 -0.018,0.029 -0.026,0.045c-0.003,0.005 -0.005,0.01 -0.005,0.012c-0,0.012 0.015,0.012 0.04,0.014c0.002,0 0.005,0.001 0.007,0.001c0.012,0 0.017,-0.004 0.02,-0.008c0.003,-0.004 0.005,-0.008 0.007,-0.014l0.007,-0.02c0.006,-0.015 0.011,-0.03 0.016,-0.044c0.006,-0.015 0.012,-0.03 0.02,-0.045c0.016,-0.03 0.043,-0.111 0.063,-0.149c0.019,-0.037 0.045,-0.101 0.06,-0.132c0.015,-0.031 0.057,-0.112 0.076,-0.145Z" style="fill-rule:nonzero;"/>
    </g>
    <g transform="matrix(66.6667,0,0,66.6667,1004.93,1776)">
      <path d="M0.166,-0.514c-0.001,-0.027 -0.025,-0.052 -0.05,-0.055l-0.007,0c-0.026,0 -0.044,0.016 -0.046,0.039c0.001,0.031 0.028,0.056 0.057,0.056c0.03,0 0.042,-0.017 0.046,-0.04Zm-0.012,0.481c-0.003,-0.023 -0.012,-0.11 -0.012,-0.153c0,-0.02 -0.001,-0.04 -0.001,-0.061c0,-0.027 0.001,-0.055 0.004,-0.089c0,-0.006 0.001,-0.011 0.001,-0.016c0,-0.032 -0.01,-0.034 -0.026,-0.034c-0.026,0 -0.032,0.006 -0.032,0.024c0,0.003 0.001,0.006 0.001,0.011c0.002,0.03 0.004,0.114 0.004,0.157c0,0.043 -0.008,0.119 -0.008,0.156c0,0.035 0.002,0.041 0.032,0.041c0.028,-0 0.038,-0.013 0.038,-0.029c0,-0.002 -0.001,-0.005 -0.001,-0.007Z" style="fill-rule:nonzero;"/>
    </g>
    <g transform="matrix(66.6667,0,0,66.6667,1021.26,1776)">
      <path d="M0.253,-0.356c0,-0.008 -0.004,-0.011 -0.012,-0.014c-0.005,-0.001 -0.011,-0.001 -0.017,-0.001c-0.007,0 -0.013,-0.001 -0.02,-0.001l-0.017,-0.002c-0.005,0 -0.009,-0.001 -0.013,-0.002c-0.009,-0.003 -0.015,-0.01 -0.015,-0.02c0,-0.014 0,-0.038 0.002,-0.077l0,-0.004c0,-0.015 -0.003,-0.02 -0.006,-0.022c-0.005,-0.004 -0.015,-0.004 -0.021,-0.004l-0.003,0c-0.015,0 -0.024,0.012 -0.025,0.018c0,0.001 -0.001,0.003 -0.001,0.004c0,0.005 0.001,0.013 0.002,0.023c0.002,0.013 0.004,0.03 0.004,0.047l0,0.005c0,0.018 -0.008,0.028 -0.021,0.031c-0.004,0.001 -0.008,0.001 -0.012,0.001c-0.007,0 -0.016,-0.001 -0.023,-0.001c-0.014,0 -0.022,0.009 -0.025,0.039c0,0.001 -0.001,0.002 -0.001,0.003c0,0.006 0.004,0.008 0.012,0.01c0.005,0.001 0.01,0.001 0.015,0.001c0.005,0 0.01,-0.001 0.014,-0.001c0.016,0 0.037,0.012 0.037,0.034c0,0.016 0.003,0.051 0.003,0.096c0,0.045 -0.006,0.131 -0.006,0.17c0,0.019 0.003,0.024 0.006,0.026l0.008,0.002l0.018,0c0.025,0 0.033,-0.003 0.033,-0.016l0,-0.007c-0.003,-0.028 -0.008,-0.1 -0.009,-0.142c-0.001,-0.014 -0.002,-0.031 -0.002,-0.048c0,-0.033 0.002,-0.067 0.003,-0.089c0.001,-0.022 0.014,-0.031 0.03,-0.032l0.003,0c0.012,0 0.023,0.003 0.035,0.004l0.004,0c0.013,0 0.02,-0.007 0.02,-0.031Z" style="fill-rule:nonzero;"/>
    </g>
    <g transform="matrix(66.6667,0,0,66.6667,1040.2,1776)">
      <path d="M0.296,-0.114c0,-0.032 -0.022,-0.056 -0.042,-0.076c-0.016,-0.016 -0.077,-0.049 -0.098,-0.059c-0.023,-0.01 -0.045,-0.027 -0.045,-0.052c0,-0.025 0.02,-0.035 0.045,-0.035l0.009,-0c0.032,0.001 0.049,0.012 0.073,0.032c0.008,0.007 0.012,0.008 0.014,0.008c0.003,-0 0.005,-0.002 0.007,-0.004l0.007,-0.008c0.002,-0.003 0.005,-0.006 0.006,-0.009c0.003,-0.004 0.004,-0.008 0.004,-0.011c0,-0.004 -0.001,-0.008 -0.005,-0.013c-0.014,-0.015 -0.055,-0.043 -0.115,-0.045l-0.007,-0c-0.017,-0 -0.026,0.002 -0.033,0.005c-0.008,0.004 -0.014,0.01 -0.02,0.016c-0.014,0.011 -0.031,0.031 -0.033,0.054c-0,0.004 -0.001,0.008 -0.001,0.011c-0,0.023 0.005,0.042 0.019,0.06c0.016,0.022 0.052,0.044 0.09,0.06c0.04,0.016 0.078,0.047 0.078,0.08c0,0.034 -0.028,0.054 -0.072,0.057c-0.003,-0 -0.006,0.001 -0.008,0.001c-0.043,-0 -0.073,-0.036 -0.08,-0.05c-0.002,-0.007 -0.01,-0.011 -0.016,-0.011c-0.004,-0 -0.01,0.002 -0.017,0.003c-0.015,0.004 -0.02,0.016 -0.02,0.028c0,0.004 0,0.009 0.003,0.013c0.007,0.013 0.033,0.033 0.057,0.048c0.022,0.012 0.061,0.02 0.088,0.02c0.024,-0 0.053,-0.018 0.079,-0.035c0.022,-0.015 0.032,-0.055 0.033,-0.088Z" style="fill-rule:nonzero;"/>
    </g>
    <g transform="matrix(66.6667,0,0,66.6667,1078.93,1776)">
      <path d="M0.296,-0.114c0,-0.032 -0.022,-0.056 -0.042,-0.076c-0.016,-0.016 -0.077,-0.049 -0.098,-0.059c-0.023,-0.01 -0.045,-0.027 -0.045,-0.052c0,-0.025 0.02,-0.035 0.045,-0.035l0.009,-0c0.032,0.001 0.049,0.012 0.073,0.032c0.008,0.007 0.012,0.008 0.014,0.008c0.003,-0 0.005,-0.002 0.007,-0.004l0.007,-0.008c0.002,-0.003 0.005,-0.006 0.006,-0.009c0.003,-0.004 0.004,-0.008 0.004,-0.011c0,-0.004 -0.001,-0.008 -0.005,-0.013c-0.014,-0.015 -0.055,-0.043 -0.115,-0.045l-0.007,-0c-0.017,-0 -0.026,0.002 -0.033,0.005c-0.008,0.004 -0.014,0.01 -0.02,0.016c-0.014,0.011 -0.031,0.031 -0.033,0.054c-0,0.004 -0.001,0.008 -0.001,0.011c-0,0.023 0.005,0.042 0.019,0.06c0.016,0.022 0.052,0.044 0.09,0.06c0.04,0.016 0.078,0.047 0.078,0.08c0,0.034 -0.028,0.054 -0.072,0.057c-0.003,-0 -0.006,0.001 -0.008,0.001c-0.043,-0 -0.073,-0.036 -0.08,-0.05c-0.002,-0.007 -0.01,-0.011 -0.016,-0.011c-0.004,-0 -0.01,0.002 -0.017,0.003c-0.015,0.004 -0.02,0.016 -0.02,0.028c0,0.004 0,0.009 0.003,0.013c0.007,0.013 0.033,0.033 0.057,0.048c0.022,0.012 0.061,0.02 0.088,0.02c0.024,-0 0.053,-0.018 0.079,-0.035c0.022,-0.015 0.032,-0.055 0.033,-0.088Z" style="fill-rule:nonzero;"/>
    </g>
    <g transform="matrix(66.6667,0,0,66.6667,1101,1776)">
      <path d="M0.458,-0.18l0,-0.005c0,-0.068 -0.032,-0.119 -0.062,-0.151c-0.03,-0.031 -0.079,-0.056 -0.135,-0.058l-0.005,-0c-0.091,-0 -0.131,0.038 -0.16,0.068c-0.03,0.03 -0.053,0.075 -0.053,0.139c0,0.064 0.038,0.126 0.069,0.154c0.03,0.027 0.075,0.047 0.133,0.047l0.006,-0c0.062,-0.002 0.11,-0.01 0.153,-0.056c0.043,-0.048 0.054,-0.065 0.054,-0.138Zm-0.057,-0.011c0,0.038 -0.014,0.09 -0.039,0.109c-0.006,0.003 -0.012,0.008 -0.02,0.013c-0.025,0.017 -0.053,0.03 -0.083,0.03c-0.004,-0 -0.008,-0 -0.013,-0.001c-0.048,-0.006 -0.071,-0.016 -0.1,-0.05c-0.029,-0.032 -0.038,-0.058 -0.038,-0.099c0,-0.04 0.007,-0.078 0.047,-0.108c0.039,-0.029 0.07,-0.033 0.102,-0.033c0.051,-0 0.088,0.014 0.109,0.051c0.01,0.017 0.019,0.028 0.025,0.041c0.005,0.013 0.01,0.027 0.01,0.047Z" style="fill-rule:nonzero;"/>
    </g>
    <g transform="matrix(66.6667,0,0,66.6667,1134.13,1776)">
      <path d="M0.413,-0.339c0.001,-0.007 0.001,-0.012 0.001,-0.017c0,-0.02 -0.007,-0.027 -0.036,-0.029l-0.005,0c-0.022,0 -0.027,0.009 -0.027,0.024c0,0.005 0,0.01 0.001,0.016c0.002,0.024 0.006,0.102 0.008,0.153c0,0.008 0.001,0.016 0.001,0.024c0,0.039 -0.006,0.07 -0.024,0.092c-0.021,0.029 -0.042,0.03 -0.073,0.031l-0.003,0c-0.007,0.001 -0.014,0.001 -0.02,0.001c-0.024,0 -0.043,-0.005 -0.062,-0.032c-0.012,-0.015 -0.018,-0.035 -0.021,-0.057c-0.002,-0.021 -0.003,-0.047 -0.004,-0.076c-0.001,-0.024 -0.001,-0.042 -0.001,-0.059c0,-0.023 0.001,-0.043 0.003,-0.073l0,-0.018c0,-0.011 -0.001,-0.015 -0.002,-0.017c-0.001,0 -0.003,-0.001 -0.007,-0.002c-0.004,0 -0.01,0 -0.016,-0.001l-0.007,0c-0.023,0 -0.028,0.008 -0.028,0.017c0,0.021 0.005,0.042 0.005,0.071c0,0.027 0.001,0.123 0.001,0.165c0,0.04 0.022,0.08 0.054,0.104c0.03,0.023 0.083,0.029 0.115,0.029c0.031,0 0.078,-0.02 0.12,-0.062c0.019,-0.019 0.025,-0.049 0.025,-0.08c0,-0.031 -0.005,-0.061 -0.005,-0.078c0,-0.033 0.003,-0.093 0.007,-0.126Z" style="fill-rule:nonzero;"/>
    </g>
    <g transform="matrix(66.6667,0,0,66.6667,1166.73,1776)">
      <path d="M0.411,-0.05c-0.003,-0.026 -0.006,-0.108 -0.006,-0.166c0,-0.012 0.001,-0.024 0.001,-0.033l0,-0.004c0,-0.046 -0.024,-0.086 -0.038,-0.103c-0.014,-0.018 -0.044,-0.035 -0.083,-0.036l-0.007,0c-0.033,0 -0.053,0.012 -0.087,0.044c-0.014,0.013 -0.025,0.017 -0.032,0.018c-0.006,0 -0.009,-0.003 -0.011,-0.006c-0.002,-0.005 -0.003,-0.011 -0.003,-0.017c0,-0.006 0,-0.011 0.001,-0.016c0,-0.017 -0.016,-0.02 -0.028,-0.02c-0.011,0 -0.03,0.001 -0.034,0.01c-0.001,0.003 -0.002,0.007 -0.002,0.012c0.001,0.006 0.002,0.011 0.002,0.018c0.002,0.028 0.014,0.091 0.014,0.132c0,0.041 -0.002,0.091 -0.01,0.157c-0.002,0.012 -0.002,0.021 -0.002,0.029c0,0.029 0.01,0.035 0.033,0.035c0.003,0 0.007,-0.001 0.012,-0.001c0.02,-0.001 0.024,-0.007 0.025,-0.01l0,-0.007c0,-0.007 -0.001,-0.015 -0.002,-0.02c-0.004,-0.022 -0.008,-0.102 -0.008,-0.137c0,-0.033 0.005,-0.088 0.026,-0.117c0.022,-0.03 0.055,-0.047 0.085,-0.047l0.014,0c0.006,0 0.013,0 0.019,0.002c0.011,0.002 0.021,0.008 0.035,0.019c0.017,0.013 0.024,0.03 0.027,0.051c0.002,0.012 0.002,0.026 0.002,0.041l-0,0.032c-0,0.057 -0.008,0.089 -0.012,0.145c-0,0.004 -0.001,0.009 -0.001,0.012c-0,0.037 0.017,0.038 0.047,0.038c0.021,0 0.026,-0.011 0.026,-0.027c-0,-0.009 -0.002,-0.019 -0.003,-0.028Z" style="fill-rule:nonzero;"/>
    </g>
    <g transform="matrix(66.6667,0,0,66.6667,1199,1776)">
      <path d="M0.443,-0.626c0,-0.008 -0.001,-0.013 -0.002,-0.015c-0.004,-0.007 -0.013,-0.007 -0.031,-0.009c-0.002,0 -0.004,-0.001 -0.006,-0.001l-0.007,0c-0.019,0 -0.023,0.007 -0.025,0.015c-0.001,0.004 -0.001,0.008 -0.001,0.013l0,0.012l0.003,0.031c0.003,0.045 0.004,0.119 0.007,0.16c0.001,0.013 0.002,0.023 0.002,0.031c0,0.019 -0.004,0.029 -0.016,0.039c-0.005,0.004 -0.01,0.006 -0.015,0.006c-0.006,-0 -0.012,-0.002 -0.018,-0.005c-0.009,-0.005 -0.022,-0.014 -0.038,-0.024c-0.02,-0.013 -0.044,-0.015 -0.067,-0.015c-0.01,-0 -0.02,0.001 -0.029,0.001c-0.036,0.001 -0.087,0.033 -0.114,0.063c-0.025,0.029 -0.044,0.092 -0.044,0.149c0,0.056 0.03,0.11 0.064,0.142c0.034,0.032 0.082,0.051 0.119,0.051c0.038,-0 0.078,-0.009 0.105,-0.04c0.014,-0.017 0.026,-0.023 0.033,-0.023c0.012,-0 0.018,0.013 0.021,0.029c0.001,0.007 0.001,0.011 0.005,0.014c0.002,0.001 0.004,0.001 0.01,0.002l0.022,0.003l0.005,-0c0.012,-0 0.014,-0.005 0.015,-0.011l-0,-0.018l-0.004,-0.023c-0.004,-0.028 -0.01,-0.152 -0.01,-0.202l-0,-0.014l0.006,-0.065c0.001,-0.014 0.002,-0.026 0.002,-0.038c-0,-0.007 -0,-0.013 -0.001,-0.018c-0.001,-0.006 -0.002,-0.015 -0.002,-0.026c-0,-0.016 0.004,-0.054 0.004,-0.06l-0,-0.009c0.001,-0.041 0.005,-0.085 0.005,-0.112c-0,-0.013 0.001,-0.024 0.002,-0.033Zm-0.066,0.395c0.005,0.015 0.008,0.03 0.008,0.043c-0,0.018 -0.004,0.036 -0.012,0.055c-0.006,0.017 -0.014,0.029 -0.023,0.04c-0.008,0.009 -0.017,0.017 -0.025,0.026c-0.016,0.016 -0.045,0.022 -0.069,0.022c-0.005,-0 -0.009,-0 -0.012,-0.001l-0.018,-0c-0.005,-0 -0.012,-0 -0.02,-0.002c-0.014,-0.004 -0.03,-0.013 -0.055,-0.033c-0.024,-0.02 -0.036,-0.038 -0.041,-0.055c-0.004,-0.008 -0.004,-0.015 -0.005,-0.023c0,-0 0,-0.001 -0.002,-0.023l0,-0.007c0,-0.03 0.01,-0.068 0.033,-0.098c0.024,-0.031 0.044,-0.044 0.085,-0.044l0.012,-0c0.047,0.001 0.083,0.009 0.102,0.03c0.016,0.018 0.03,0.036 0.042,0.07Z" style="fill-rule:nonzero;"/>
    </g>
    <g transform="matrix(66.6667,0,0,66.6667,295.531,1842.67)">
      <path d="M0.471,-0.196l0,-0.008c0,-0.053 -0.031,-0.1 -0.057,-0.132c-0.025,-0.03 -0.082,-0.053 -0.131,-0.055c-0.046,0 -0.089,0.029 -0.118,0.058c-0.008,0.007 -0.014,0.011 -0.019,0.011c-0.005,0 -0.009,-0.003 -0.011,-0.006c-0.003,-0.004 -0.004,-0.013 -0.004,-0.025l-0,-0.013c-0,-0.014 -0.007,-0.015 -0.03,-0.017l-0.004,0c-0.018,0 -0.023,0.012 -0.023,0.027c-0,0.01 0.002,0.02 0.003,0.028c0.003,0.022 0.005,0.15 0.005,0.227c-0,0.023 -0,0.04 -0.001,0.051c-0.002,0.049 -0.004,0.179 -0.008,0.216c-0,0.003 -0.001,0.004 -0.001,0.006c-0,0.021 0.014,0.028 0.033,0.028c0.002,0 0.005,-0.001 0.008,-0.001c0.025,-0.001 0.033,-0.01 0.033,-0.015l-0,-0.005c-0,-0.007 -0,-0.016 -0.001,-0.028c-0.002,-0.014 -0.004,-0.031 -0.004,-0.044c-0.001,-0.007 -0.001,-0.014 -0.001,-0.023l-0,-0.015c-0,-0.02 -0,-0.04 -0.004,-0.063c-0.001,-0.009 -0.002,-0.017 -0.002,-0.023c-0,-0.023 0.007,-0.033 0.023,-0.035l0.004,0c0.008,0 0.015,0.006 0.02,0.011c0.007,0.006 0.012,0.014 0.017,0.021c0.01,0.013 0.02,0.024 0.092,0.024c0.035,0 0.056,-0.006 0.074,-0.016c0.008,-0.005 0.017,-0.011 0.025,-0.018l0.028,-0.022c0.038,-0.029 0.054,-0.086 0.054,-0.144Zm-0.056,0.008l-0.003,0.04c-0.004,0.037 -0.014,0.053 -0.046,0.076c-0.02,0.015 -0.033,0.021 -0.045,0.025c-0.006,0.001 -0.012,0.001 -0.019,0.001c-0.001,-0 -0.004,0.001 -0.006,0.001c-0.005,-0 -0.009,-0.001 -0.015,-0.001c-0.033,-0 -0.065,-0.004 -0.096,-0.029c-0.032,-0.025 -0.052,-0.072 -0.052,-0.123c-0,-0.052 0.023,-0.093 0.06,-0.117c0.009,-0.005 0.016,-0.01 0.023,-0.013l0.017,-0.008c0.012,-0.005 0.023,-0.005 0.041,-0.005c0.041,0 0.075,0.016 0.094,0.038c0.004,0.005 0.01,0.01 0.015,0.017c0.006,0.006 0.012,0.014 0.017,0.023c0.008,0.016 0.015,0.037 0.015,0.062l0,0.013Z" style="fill-rule:nonzero;"/>
    </g>
    <g transform="matrix(66.6667,0,0,66.6667,330.864,1842.67)">
      <path d="M0.168,-0.014c0,-0.015 -0.006,-0.072 -0.01,-0.096c-0.002,-0.012 -0.002,-0.06 -0.002,-0.11l0,-0.137c0,-0.063 0.004,-0.186 0.008,-0.241l0,-0.01c0,-0.037 -0.018,-0.039 -0.038,-0.042l-0.005,0c-0.014,0 -0.03,0.004 -0.03,0.009c0,0.008 0.002,0.053 0.004,0.076c0.001,0.012 0.001,0.06 0.001,0.112l0,0.132c0.001,0.015 0.001,0.04 0.001,0.068c0,0.071 -0.001,0.167 -0.004,0.212c-0.001,0.005 -0.001,0.009 -0.001,0.013c0,0.021 0.006,0.029 0.012,0.032c0.004,0.004 0.012,0.005 0.018,0.005c0.006,0 0.012,-0.001 0.017,-0.001c0.026,-0.002 0.029,-0.011 0.029,-0.022Z" style="fill-rule:nonzero;"/>
    </g>
    <g transform="matrix(66.6667,0,0,66.6667,347.198,1842.67)">
      <path d="M0.437,-0.197c0,-0.001 0.001,-0.002 0.001,-0.004c0,-0.001 -0.001,-0.004 -0.001,-0.007l-0.004,-0.021c-0.007,-0.032 -0.042,-0.085 -0.068,-0.116c-0.026,-0.028 -0.076,-0.045 -0.118,-0.047l-0.011,0c-0.043,0 -0.077,0.021 -0.112,0.044l-0.008,0.005c-0.038,0.023 -0.065,0.099 -0.067,0.159l0,0.003c0,0.057 0.043,0.12 0.077,0.158c0.033,0.035 0.101,0.036 0.135,0.036c0.032,0 0.058,-0.008 0.075,-0.017c0.007,-0.004 0.017,-0.012 0.029,-0.022c0.011,-0.01 0.023,-0.02 0.036,-0.03c0.01,-0.007 0.015,-0.015 0.015,-0.023c0,-0.009 -0.005,-0.018 -0.02,-0.03c-0.005,-0.004 -0.01,-0.006 -0.013,-0.006c-0.005,0 -0.008,0.003 -0.012,0.006c-0.007,0.008 -0.012,0.018 -0.016,0.028c-0.008,0.018 -0.048,0.038 -0.098,0.038l-0.008,0c-0.033,-0.001 -0.061,-0.011 -0.086,-0.031l-0.015,-0.012c-0.016,-0.014 -0.032,-0.054 -0.032,-0.079l0,-0.007c0.003,-0.012 0.027,-0.019 0.057,-0.02c0.025,0 0.053,0.001 0.068,0.001c0.021,0 0.079,0.001 0.124,0.001c0.023,0 0.043,0 0.054,-0.001c0.017,0 0.018,-0.004 0.018,-0.006Zm-0.071,-0.066c0.003,0.005 0.004,0.009 0.004,0.013c0,0.011 -0.009,0.018 -0.027,0.018c-0.039,-0 -0.082,0.001 -0.099,0.001c-0.018,-0 -0.071,-0.001 -0.082,-0.004c-0.011,-0.001 -0.035,-0.014 -0.035,-0.032c0,-0.006 0.002,-0.012 0.007,-0.018c0.016,-0.022 0.06,-0.052 0.112,-0.052l0.004,0c0.047,0.002 0.063,0.016 0.086,0.038c0.01,0.01 0.024,0.023 0.03,0.036Z" style="fill-rule:nonzero;"/>
    </g>
    <g transform="matrix(66.6667,0,0,66.6667,378.931,1842.67)">
      <path d="M0.306,-0.002c0.008,-0.005 0.015,-0.011 0.02,-0.016c0.005,-0.006 0.01,-0.011 0.015,-0.014c0.006,-0.006 0.013,-0.009 0.02,-0.009c0.01,0 0.019,0.008 0.019,0.02c-0,0.003 -0,0.006 -0.001,0.009c-0,0.001 -0.001,0.002 -0.001,0.003c-0,0.009 0.01,0.01 0.038,0.012l0.005,0c0.015,0 0.018,-0.004 0.02,-0.008l-0,-0.197c-0,-0.033 -0.001,-0.068 -0.001,-0.1c-0,-0.016 -0,-0.031 0.001,-0.045l-0,-0.005c-0,-0.026 -0.013,-0.027 -0.03,-0.027l-0.01,0c-0.012,0 -0.018,0.001 -0.018,0.008c0,0.005 0.001,0.009 0.001,0.012c0,0.016 -0.006,0.03 -0.018,0.034c-0.002,0.001 -0.003,0.001 -0.005,0.001c-0.007,0 -0.016,-0.005 -0.025,-0.013c-0.009,-0.008 -0.016,-0.017 -0.024,-0.025c-0.011,-0.014 -0.052,-0.026 -0.09,-0.026c-0.056,0 -0.12,0.036 -0.151,0.079c-0.022,0.032 -0.03,0.082 -0.034,0.123l0,0.008c0,0.039 0.023,0.102 0.048,0.133c0.026,0.033 0.07,0.063 0.144,0.063c0.036,0 0.06,-0.009 0.077,-0.02Zm0.077,-0.184c-0.003,0.042 -0.017,0.092 -0.052,0.118c-0.027,0.021 -0.048,0.026 -0.079,0.026c-0.006,0 -0.012,-0.001 -0.02,-0.001c-0.045,-0.003 -0.083,-0.023 -0.099,-0.049c-0.013,-0.024 -0.022,-0.055 -0.022,-0.09l-0,-0.009c0.002,-0.036 0.017,-0.097 0.036,-0.111c0.014,-0.011 0.057,-0.029 0.093,-0.029c0.006,0 0.012,0 0.018,0.001l0.023,0.005c0.004,0 0.004,0.001 0.005,0.001c0.006,0.002 0.015,0.003 0.021,0.006c0.018,0.006 0.035,0.017 0.048,0.039l0.015,0.026c0.001,0.007 0.007,0.014 0.01,0.02c0.003,0.008 0.005,0.017 0.005,0.027c-0,0.006 -0.001,0.013 -0.002,0.02Z" style="fill-rule:nonzero;"/>
    </g>
    <g transform="matrix(66.6667,0,0,66.6667,413.464,1842.67)">
      <path d="M0.296,-0.114c0,-0.032 -0.022,-0.056 -0.042,-0.076c-0.016,-0.016 -0.077,-0.049 -0.098,-0.059c-0.023,-0.01 -0.045,-0.027 -0.045,-0.052c0,-0.025 0.02,-0.035 0.045,-0.035l0.009,-0c0.032,0.001 0.049,0.012 0.073,0.032c0.008,0.007 0.012,0.008 0.014,0.008c0.003,-0 0.005,-0.002 0.007,-0.004l0.007,-0.008c0.002,-0.003 0.005,-0.006 0.006,-0.009c0.003,-0.004 0.004,-0.008 0.004,-0.011c0,-0.004 -0.001,-0.008 -0.005,-0.013c-0.014,-0.015 -0.055,-0.043 -0.115,-0.045l-0.007,-0c-0.017,-0 -0.026,0.002 -0.033,0.005c-0.008,0.004 -0.014,0.01 -0.02,0.016c-0.014,0.011 -0.031,0.031 -0.033,0.054c-0,0.004 -0.001,0.008 -0.001,0.011c-0,0.023 0.005,0.042 0.019,0.06c0.016,0.022 0.052,0.044 0.09,0.06c0.04,0.016 0.078,0.047 0.078,0.08c0,0.034 -0.028,0.054 -0.072,0.057c-0.003,-0 -0.006,0.001 -0.008,0.001c-0.043,-0 -0.073,-0.036 -0.08,-0.05c-0.002,-0.007 -0.01,-0.011 -0.016,-0.011c-0.004,-0 -0.01,0.002 -0.017,0.003c-0.015,0.004 -0.02,0.016 -0.02,0.028c0,0.004 0,0.009 0.003,0.013c0.007,0.013 0.033,0.033 0.057,0.048c0.022,0.012 0.061,0.02 0.088,0.02c0.024,-0 0.053,-0.018 0.079,-0.035c0.022,-0.015 0.032,-0.055 0.033,-0.088Z" style="fill-rule:nonzero;"/>
    </g>
    <g transform="matrix(66.6667,0,0,66.6667,435.531,1842.67)">
      <path d="M0.437,-0.197c0,-0.001 0.001,-0.002 0.001,-0.004c0,-0.001 -0.001,-0.004 -0.001,-0.007l-0.004,-0.021c-0.007,-0.032 -0.042,-0.085 -0.068,-0.116c-0.026,-0.028 -0.076,-0.045 -0.118,-0.047l-0.011,0c-0.043,0 -0.077,0.021 -0.112,0.044l-0.008,0.005c-0.038,0.023 -0.065,0.099 -0.067,0.159l0,0.003c0,0.057 0.043,0.12 0.077,0.158c0.033,0.035 0.101,0.036 0.135,0.036c0.032,0 0.058,-0.008 0.075,-0.017c0.007,-0.004 0.017,-0.012 0.029,-0.022c0.011,-0.01 0.023,-0.02 0.036,-0.03c0.01,-0.007 0.015,-0.015 0.015,-0.023c0,-0.009 -0.005,-0.018 -0.02,-0.03c-0.005,-0.004 -0.01,-0.006 -0.013,-0.006c-0.005,0 -0.008,0.003 -0.012,0.006c-0.007,0.008 -0.012,0.018 -0.016,0.028c-0.008,0.018 -0.048,0.038 -0.098,0.038l-0.008,0c-0.033,-0.001 -0.061,-0.011 -0.086,-0.031l-0.015,-0.012c-0.016,-0.014 -0.032,-0.054 -0.032,-0.079l0,-0.007c0.003,-0.012 0.027,-0.019 0.057,-0.02c0.025,0 0.053,0.001 0.068,0.001c0.021,0 0.079,0.001 0.124,0.001c0.023,0 0.043,0 0.054,-0.001c0.017,0 0.018,-0.004 0.018,-0.006Zm-0.071,-0.066c0.003,0.005 0.004,0.009 0.004,0.013c0,0.011 -0.009,0.018 -0.027,0.018c-0.039,-0 -0.082,0.001 -0.099,0.001c-0.018,-0 -0.071,-0.001 -0.082,-0.004c-0.011,-0.001 -0.035,-0.014 -0.035,-0.032c0,-0.006 0.002,-0.012 0.007,-0.018c0.016,-0.022 0.06,-0.052 0.112,-0.052l0.004,0c0.047,0.002 0.063,0.016 0.086,0.038c0.01,0.01 0.024,0.023 0.03,0.036Z" style="fill-rule:nonzero;"/>
    </g>
    <g transform="matrix(66.6667,0,0,66.6667,483.931,1842.67)">
      <path d="M0.631,-0.354c0.002,-0.005 0.004,-0.009 0.004,-0.012c0,-0.006 -0.005,-0.009 -0.012,-0.01c-0.005,-0.001 -0.011,-0.001 -0.017,-0.001c-0.01,0 -0.021,0.001 -0.03,0.002c-0.009,0.001 -0.014,0.007 -0.019,0.016c-0.005,0.01 -0.007,0.021 -0.011,0.03c-0.004,0.008 -0.007,0.022 -0.011,0.039c-0.004,0.017 -0.008,0.036 -0.013,0.052c-0.002,0.008 -0.006,0.016 -0.01,0.023c-0.01,0.022 -0.023,0.042 -0.024,0.067c-0.002,0.016 -0.009,0.027 -0.02,0.027c-0.002,0 -0.006,-0.001 -0.009,-0.003c-0.011,-0.005 -0.021,-0.017 -0.025,-0.031c-0.005,-0.021 -0.024,-0.065 -0.038,-0.096c-0.015,-0.031 -0.03,-0.069 -0.04,-0.096l-0.007,-0.019c-0.002,-0.006 -0.004,-0.011 -0.007,-0.015c-0.005,-0.009 -0.01,-0.013 -0.016,-0.014c-0.016,0.002 -0.023,0.034 -0.026,0.045c-0.006,0.02 -0.016,0.054 -0.028,0.083c-0.006,0.015 -0.014,0.029 -0.021,0.043c-0.007,0.014 -0.013,0.029 -0.015,0.045c-0.006,0.034 -0.016,0.057 -0.032,0.06c-0.002,-0 -0.003,0.001 -0.003,0.001c-0.012,-0 -0.022,-0.012 -0.027,-0.038c-0.002,-0.009 -0.006,-0.017 -0.012,-0.028c-0.006,-0.011 -0.012,-0.022 -0.018,-0.036c-0.007,-0.014 -0.011,-0.032 -0.015,-0.052l-0.013,-0.063c-0.009,-0.039 -0.02,-0.046 -0.058,-0.05l-0.007,0c-0.017,0 -0.021,0.009 -0.021,0.016c0,0.002 0.001,0.003 0.001,0.004c0.001,0.012 0.02,0.052 0.032,0.074c0.012,0.021 0.035,0.078 0.06,0.13c0.026,0.054 0.044,0.103 0.056,0.136c0.01,0.029 0.015,0.054 0.027,0.054c0.01,-0 0.016,-0.018 0.024,-0.04l0.004,-0.014c0.01,-0.029 0.022,-0.065 0.032,-0.09c0.006,-0.014 0.015,-0.03 0.022,-0.046c0.007,-0.016 0.013,-0.034 0.018,-0.05c0.003,-0.015 0.01,-0.024 0.02,-0.024c0.004,-0 0.008,0.001 0.012,0.004c0.011,0.006 0.021,0.02 0.028,0.033c0.014,0.027 0.04,0.093 0.05,0.125c0.009,0.031 0.026,0.074 0.046,0.097c0.003,0.002 0.004,0.004 0.006,0.004c0.002,-0 0.003,-0.002 0.006,-0.006c0.006,-0.008 0.008,-0.018 0.011,-0.027c0.004,-0.011 0.014,-0.049 0.021,-0.071c0.009,-0.021 0.032,-0.064 0.045,-0.106c0.015,-0.044 0.055,-0.129 0.08,-0.172Z" style="fill-rule:nonzero;"/>
    </g>
    <g transform="matrix(66.6667,0,0,66.6667,528.198,1842.67)">
      <path d="M0.306,-0.002c0.008,-0.005 0.015,-0.011 0.02,-0.016c0.005,-0.006 0.01,-0.011 0.015,-0.014c0.006,-0.006 0.013,-0.009 0.02,-0.009c0.01,0 0.019,0.008 0.019,0.02c-0,0.003 -0,0.006 -0.001,0.009c-0,0.001 -0.001,0.002 -0.001,0.003c-0,0.009 0.01,0.01 0.038,0.012l0.005,0c0.015,0 0.018,-0.004 0.02,-0.008l-0,-0.197c-0,-0.033 -0.001,-0.068 -0.001,-0.1c-0,-0.016 -0,-0.031 0.001,-0.045l-0,-0.005c-0,-0.026 -0.013,-0.027 -0.03,-0.027l-0.01,0c-0.012,0 -0.018,0.001 -0.018,0.008c0,0.005 0.001,0.009 0.001,0.012c0,0.016 -0.006,0.03 -0.018,0.034c-0.002,0.001 -0.003,0.001 -0.005,0.001c-0.007,0 -0.016,-0.005 -0.025,-0.013c-0.009,-0.008 -0.016,-0.017 -0.024,-0.025c-0.011,-0.014 -0.052,-0.026 -0.09,-0.026c-0.056,0 -0.12,0.036 -0.151,0.079c-0.022,0.032 -0.03,0.082 -0.034,0.123l0,0.008c0,0.039 0.023,0.102 0.048,0.133c0.026,0.033 0.07,0.063 0.144,0.063c0.036,0 0.06,-0.009 0.077,-0.02Zm0.077,-0.184c-0.003,0.042 -0.017,0.092 -0.052,0.118c-0.027,0.021 -0.048,0.026 -0.079,0.026c-0.006,0 -0.012,-0.001 -0.02,-0.001c-0.045,-0.003 -0.083,-0.023 -0.099,-0.049c-0.013,-0.024 -0.022,-0.055 -0.022,-0.09l-0,-0.009c0.002,-0.036 0.017,-0.097 0.036,-0.111c0.014,-0.011 0.057,-0.029 0.093,-0.029c0.006,0 0.012,0 0.018,0.001l0.023,0.005c0.004,0 0.004,0.001 0.005,0.001c0.006,0.002 0.015,0.003 0.021,0.006c0.018,0.006 0.035,0.017 0.048,0.039l0.015,0.026c0.001,0.007 0.007,0.014 0.01,0.02c0.003,0.008 0.005,0.017 0.005,0.027c-0,0.006 -0.001,0.013 -0.002,0.02Z" style="fill-rule:nonzero;"/>
    </g>
    <g transform="matrix(66.6667,0,0,66.6667,562.731,1842.67)">
      <path d="M0.166,-0.514c-0.001,-0.027 -0.025,-0.052 -0.05,-0.055l-0.007,0c-0.026,0 -0.044,0.016 -0.046,0.039c0.001,0.031 0.028,0.056 0.057,0.056c0.03,0 0.042,-0.017 0.046,-0.04Zm-0.012,0.481c-0.003,-0.023 -0.012,-0.11 -0.012,-0.153c0,-0.02 -0.001,-0.04 -0.001,-0.061c0,-0.027 0.001,-0.055 0.004,-0.089c0,-0.006 0.001,-0.011 0.001,-0.016c0,-0.032 -0.01,-0.034 -0.026,-0.034c-0.026,0 -0.032,0.006 -0.032,0.024c0,0.003 0.001,0.006 0.001,0.011c0.002,0.03 0.004,0.114 0.004,0.157c0,0.043 -0.008,0.119 -0.008,0.156c0,0.035 0.002,0.041 0.032,0.041c0.028,-0 0.038,-0.013 0.038,-0.029c0,-0.002 -0.001,-0.005 -0.001,-0.007Z" style="fill-rule:nonzero;"/>
    </g>
    <g transform="matrix(66.6667,0,0,66.6667,579.064,1842.67)">
      <path d="M0.253,-0.356c0,-0.008 -0.004,-0.011 -0.012,-0.014c-0.005,-0.001 -0.011,-0.001 -0.017,-0.001c-0.007,0 -0.013,-0.001 -0.02,-0.001l-0.017,-0.002c-0.005,0 -0.009,-0.001 -0.013,-0.002c-0.009,-0.003 -0.015,-0.01 -0.015,-0.02c0,-0.014 0,-0.038 0.002,-0.077l0,-0.004c0,-0.015 -0.003,-0.02 -0.006,-0.022c-0.005,-0.004 -0.015,-0.004 -0.021,-0.004l-0.003,0c-0.015,0 -0.024,0.012 -0.025,0.018c0,0.001 -0.001,0.003 -0.001,0.004c0,0.005 0.001,0.013 0.002,0.023c0.002,0.013 0.004,0.03 0.004,0.047l0,0.005c0,0.018 -0.008,0.028 -0.021,0.031c-0.004,0.001 -0.008,0.001 -0.012,0.001c-0.007,0 -0.016,-0.001 -0.023,-0.001c-0.014,0 -0.022,0.009 -0.025,0.039c0,0.001 -0.001,0.002 -0.001,0.003c0,0.006 0.004,0.008 0.012,0.01c0.005,0.001 0.01,0.001 0.015,0.001c0.005,0 0.01,-0.001 0.014,-0.001c0.016,0 0.037,0.012 0.037,0.034c0,0.016 0.003,0.051 0.003,0.096c0,0.045 -0.006,0.131 -0.006,0.17c0,0.019 0.003,0.024 0.006,0.026l0.008,0.002l0.018,0c0.025,0 0.033,-0.003 0.033,-0.016l0,-0.007c-0.003,-0.028 -0.008,-0.1 -0.009,-0.142c-0.001,-0.014 -0.002,-0.031 -0.002,-0.048c0,-0.033 0.002,-0.067 0.003,-0.089c0.001,-0.022 0.014,-0.031 0.03,-0.032l0.003,0c0.012,0 0.023,0.003 0.035,0.004l0.004,0c0.013,0 0.02,-0.007 0.02,-0.031Z" style="fill-rule:nonzero;"/>
    </g>
    <g transform="matrix(66.6667,0,0,66.6667,614.664,1842.67)">
      <path d="M0.289,-0.623l0,-0.006c0,-0.016 -0.008,-0.024 -0.019,-0.028c-0.014,-0.005 -0.031,-0.006 -0.046,-0.008c-0.029,0 -0.057,0.027 -0.075,0.045c-0.026,0.025 -0.037,0.075 -0.037,0.099l0.006,0.111c0,0.024 -0.012,0.03 -0.027,0.03c-0.009,0 -0.02,-0.002 -0.029,-0.006l-0.004,0c-0.009,0 -0.017,0.01 -0.02,0.025c-0.001,0.005 -0.002,0.007 -0.002,0.01c0,0.01 0.005,0.016 0.013,0.02c0.005,0.003 0.012,0.004 0.018,0.004c0.005,-0 0.011,-0 0.016,-0.001c0.013,-0 0.028,-0 0.034,0.014c0.003,0.005 0.003,0.01 0.003,0.016l0,0.084c0,0.029 -0.006,0.126 -0.012,0.171c-0.001,0.004 -0.001,0.007 -0.001,0.011c0,0.029 0.019,0.036 0.05,0.038l0.004,-0c0.014,-0 0.018,-0.003 0.02,-0.007c0.002,-0.005 0.002,-0.012 0.002,-0.018l0,-0.009c0,-0.023 -0.007,-0.092 -0.007,-0.137l0,-0.129c0,-0.02 0.006,-0.032 0.022,-0.035c0.006,-0.002 0.013,-0.002 0.022,-0.002c0.007,0.001 0.016,0.001 0.026,0.001c0.02,-0 0.027,-0.003 0.03,-0.006c0,-0.002 0.002,-0.005 0.003,-0.01l0.002,-0.017c0,-0.01 -0.006,-0.012 -0.012,-0.013c-0.006,-0.001 -0.013,-0.001 -0.019,-0.001l-0.023,0c-0.037,0 -0.047,-0.034 -0.05,-0.061c-0.001,-0.013 -0.002,-0.033 -0.002,-0.05c0,-0.018 0.001,-0.036 0.005,-0.048c0.008,-0.02 0.036,-0.051 0.071,-0.051l0.004,0c0.007,0 0.013,0.001 0.018,0.001c0.004,0 0.006,-0.001 0.007,-0.002c0.006,-0.004 0.006,-0.013 0.008,-0.031c0,-0.001 0.001,-0.002 0.001,-0.004Z" style="fill-rule:nonzero;"/>
    </g>
    <g transform="matrix(66.6667,0,0,66.6667,635.531,1842.67)">
      <path d="M0.458,-0.18l0,-0.005c0,-0.068 -0.032,-0.119 -0.062,-0.151c-0.03,-0.031 -0.079,-0.056 -0.135,-0.058l-0.005,-0c-0.091,-0 -0.131,0.038 -0.16,0.068c-0.03,0.03 -0.053,0.075 -0.053,0.139c0,0.064 0.038,0.126 0.069,0.154c0.03,0.027 0.075,0.047 0.133,0.047l0.006,-0c0.062,-0.002 0.11,-0.01 0.153,-0.056c0.043,-0.048 0.054,-0.065 0.054,-0.138Zm-0.057,-0.011c0,0.038 -0.014,0.09 -0.039,0.109c-0.006,0.003 -0.012,0.008 -0.02,0.013c-0.025,0.017 -0.053,0.03 -0.083,0.03c-0.004,-0 -0.008,-0 -0.013,-0.001c-0.048,-0.006 -0.071,-0.016 -0.1,-0.05c-0.029,-0.032 -0.038,-0.058 -0.038,-0.099c0,-0.04 0.007,-0.078 0.047,-0.108c0.039,-0.029 0.07,-0.033 0.102,-0.033c0.051,-0 0.088,0.014 0.109,0.051c0.01,0.017 0.019,0.028 0.025,0.041c0.005,0.013 0.01,0.027 0.01,0.047Z" style="fill-rule:nonzero;"/>
    </g>
    <g transform="matrix(66.6667,0,0,66.6667,668.664,1842.67)">
      <path d="M0.308,-0.38c-0.007,-0.003 -0.031,-0.011 -0.058,-0.011c-0.027,0 -0.064,0.024 -0.077,0.049c-0.003,0.006 -0.007,0.012 -0.012,0.015c-0.003,0.001 -0.005,0.001 -0.006,0.001c-0.005,0 -0.009,-0.003 -0.011,-0.006c-0.003,-0.006 -0.004,-0.014 -0.004,-0.022l0,-0.007c0,-0.017 -0.018,-0.024 -0.031,-0.024c-0.025,0 -0.028,0.008 -0.029,0.013c0,0.001 -0.001,0.002 -0.001,0.004c0,0.003 0.001,0.008 0.002,0.013c0.001,0.007 0.002,0.015 0.003,0.022c0.002,0.033 0.002,0.107 0.002,0.151c0,0.043 -0.002,0.088 -0.009,0.146c-0.001,0.01 -0.001,0.018 -0.001,0.023c0,0.006 0.001,0.009 0.005,0.011c0.002,0.001 0.006,0.001 0.015,0.001c0.008,-0.001 0.018,-0.002 0.03,-0.002c0.025,0 0.031,-0.017 0.031,-0.036c0,-0.014 -0.004,-0.03 -0.006,-0.042c-0.004,-0.02 -0.005,-0.057 -0.005,-0.094c0,-0.02 0,-0.039 0.001,-0.056c0.003,-0.054 0.039,-0.084 0.073,-0.092c0.013,-0.003 0.022,-0.004 0.031,-0.004c0.012,0 0.02,0.002 0.033,0.007c0.002,0 0.005,0.003 0.007,0.003c0.003,0 0.004,-0.001 0.005,-0.004c0.002,-0.001 0.004,-0.005 0.005,-0.01c0.003,-0.005 0.005,-0.011 0.007,-0.018c0.003,-0.01 0.005,-0.017 0.005,-0.021c0,-0.005 -0.002,-0.008 -0.005,-0.01Z" style="fill-rule:nonzero;"/>
    </g>
    <g transform="matrix(66.6667,0,0,66.6667,707.398,1842.67)">
      <path d="M0.437,-0.197c0,-0.001 0.001,-0.002 0.001,-0.004c0,-0.001 -0.001,-0.004 -0.001,-0.007l-0.004,-0.021c-0.007,-0.032 -0.042,-0.085 -0.068,-0.116c-0.026,-0.028 -0.076,-0.045 -0.118,-0.047l-0.011,0c-0.043,0 -0.077,0.021 -0.112,0.044l-0.008,0.005c-0.038,0.023 -0.065,0.099 -0.067,0.159l0,0.003c0,0.057 0.043,0.12 0.077,0.158c0.033,0.035 0.101,0.036 0.135,0.036c0.032,0 0.058,-0.008 0.075,-0.017c0.007,-0.004 0.017,-0.012 0.029,-0.022c0.011,-0.01 0.023,-0.02 0.036,-0.03c0.01,-0.007 0.015,-0.015 0.015,-0.023c0,-0.009 -0.005,-0.018 -0.02,-0.03c-0.005,-0.004 -0.01,-0.006 -0.013,-0.006c-0.005,0 -0.008,0.003 -0.012,0.006c-0.007,0.008 -0.012,0.018 -0.016,0.028c-0.008,0.018 -0.048,0.038 -0.098,0.038l-0.008,0c-0.033,-0.001 -0.061,-0.011 -0.086,-0.031l-0.015,-0.012c-0.016,-0.014 -0.032,-0.054 -0.032,-0.079l0,-0.007c0.003,-0.012 0.027,-0.019 0.057,-0.02c0.025,0 0.053,0.001 0.068,0.001c0.021,0 0.079,0.001 0.124,0.001c0.023,0 0.043,0 0.054,-0.001c0.017,0 0.018,-0.004 0.018,-0.006Zm-0.071,-0.066c0.003,0.005 0.004,0.009 0.004,0.013c0,0.011 -0.009,0.018 -0.027,0.018c-0.039,-0 -0.082,0.001 -0.099,0.001c-0.018,-0 -0.071,-0.001 -0.082,-0.004c-0.011,-0.001 -0.035,-0.014 -0.035,-0.032c0,-0.006 0.002,-0.012 0.007,-0.018c0.016,-0.022 0.06,-0.052 0.112,-0.052l0.004,0c0.047,0.002 0.063,0.016 0.086,0.038c0.01,0.01 0.024,0.023 0.03,0.036Z" style="fill-rule:nonzero;"/>
    </g>
    <g transform="matrix(66.6667,0,0,66.6667,739.131,1842.67)">
      <path d="M0.386,-0.381c0,0 -0.004,-0.001 -0.009,-0.002l-0.016,0c-0.018,0 -0.03,0.007 -0.035,0.027c-0.003,0.014 -0.009,0.029 -0.015,0.044l-0.02,0.043c-0.006,0.014 -0.015,0.032 -0.024,0.052c-0.008,0.019 -0.016,0.04 -0.021,0.058c-0.011,0.045 -0.022,0.059 -0.035,0.062c-0.014,0 -0.021,-0.019 -0.024,-0.029l-0.005,-0.02l-0.006,-0.017c-0.01,-0.019 -0.03,-0.07 -0.043,-0.103l-0.039,-0.095c-0.008,-0.019 -0.018,-0.021 -0.046,-0.024l-0.006,0c-0.014,0 -0.018,0.005 -0.018,0.013c0,0.001 0.001,0.003 0.001,0.005c0.002,0.014 0.013,0.035 0.025,0.054c0.024,0.037 0.037,0.072 0.055,0.107c0.018,0.036 0.049,0.101 0.067,0.156c0.018,0.055 0.041,0.07 0.049,0.07c0.012,0 0.024,-0.051 0.03,-0.076c0.005,-0.014 0.015,-0.037 0.025,-0.06c0.01,-0.023 0.02,-0.045 0.025,-0.057c0.004,-0.013 0.018,-0.043 0.034,-0.075c0.016,-0.033 0.034,-0.07 0.046,-0.098c0.005,-0.014 0.008,-0.023 0.008,-0.028c0,-0.005 -0.002,-0.006 -0.003,-0.007Z" style="fill-rule:nonzero;"/>
    </g>
    <g transform="matrix(66.6667,0,0,66.6667,766.864,1842.67)">
      <path d="M0.437,-0.197c0,-0.001 0.001,-0.002 0.001,-0.004c0,-0.001 -0.001,-0.004 -0.001,-0.007l-0.004,-0.021c-0.007,-0.032 -0.042,-0.085 -0.068,-0.116c-0.026,-0.028 -0.076,-0.045 -0.118,-0.047l-0.011,0c-0.043,0 -0.077,0.021 -0.112,0.044l-0.008,0.005c-0.038,0.023 -0.065,0.099 -0.067,0.159l0,0.003c0,0.057 0.043,0.12 0.077,0.158c0.033,0.035 0.101,0.036 0.135,0.036c0.032,0 0.058,-0.008 0.075,-0.017c0.007,-0.004 0.017,-0.012 0.029,-0.022c0.011,-0.01 0.023,-0.02 0.036,-0.03c0.01,-0.007 0.015,-0.015 0.015,-0.023c0,-0.009 -0.005,-0.018 -0.02,-0.03c-0.005,-0.004 -0.01,-0.006 -0.013,-0.006c-0.005,0 -0.008,0.003 -0.012,0.006c-0.007,0.008 -0.012,0.018 -0.016,0.028c-0.008,0.018 -0.048,0.038 -0.098,0.038l-0.008,0c-0.033,-0.001 -0.061,-0.011 -0.086,-0.031l-0.015,-0.012c-0.016,-0.014 -0.032,-0.054 -0.032,-0.079l0,-0.007c0.003,-0.012 0.027,-0.019 0.057,-0.02c0.025,0 0.053,0.001 0.068,0.001c0.021,0 0.079,0.001 0.124,0.001c0.023,0 0.043,0 0.054,-0.001c0.017,0 0.018,-0.004 0.018,-0.006Zm-0.071,-0.066c0.003,0.005 0.004,0.009 0.004,0.013c0,0.011 -0.009,0.018 -0.027,0.018c-0.039,-0 -0.082,0.001 -0.099,0.001c-0.018,-0 -0.071,-0.001 -0.082,-0.004c-0.011,-0.001 -0.035,-0.014 -0.035,-0.032c0,-0.006 0.002,-0.012 0.007,-0.018c0.016,-0.022 0.06,-0.052 0.112,-0.052l0.004,0c0.047,0.002 0.063,0.016 0.086,0.038c0.01,0.01 0.024,0.023 0.03,0.036Z" style="fill-rule:nonzero;"/>
    </g>
    <g transform="matrix(66.6667,0,0,66.6667,798.598,1842.67)">
      <path d="M0.308,-0.38c-0.007,-0.003 -0.031,-0.011 -0.058,-0.011c-0.027,0 -0.064,0.024 -0.077,0.049c-0.003,0.006 -0.007,0.012 -0.012,0.015c-0.003,0.001 -0.005,0.001 -0.006,0.001c-0.005,0 -0.009,-0.003 -0.011,-0.006c-0.003,-0.006 -0.004,-0.014 -0.004,-0.022l0,-0.007c0,-0.017 -0.018,-0.024 -0.031,-0.024c-0.025,0 -0.028,0.008 -0.029,0.013c0,0.001 -0.001,0.002 -0.001,0.004c0,0.003 0.001,0.008 0.002,0.013c0.001,0.007 0.002,0.015 0.003,0.022c0.002,0.033 0.002,0.107 0.002,0.151c0,0.043 -0.002,0.088 -0.009,0.146c-0.001,0.01 -0.001,0.018 -0.001,0.023c0,0.006 0.001,0.009 0.005,0.011c0.002,0.001 0.006,0.001 0.015,0.001c0.008,-0.001 0.018,-0.002 0.03,-0.002c0.025,0 0.031,-0.017 0.031,-0.036c0,-0.014 -0.004,-0.03 -0.006,-0.042c-0.004,-0.02 -0.005,-0.057 -0.005,-0.094c0,-0.02 0,-0.039 0.001,-0.056c0.003,-0.054 0.039,-0.084 0.073,-0.092c0.013,-0.003 0.022,-0.004 0.031,-0.004c0.012,0 0.02,0.002 0.033,0.007c0.002,0 0.005,0.003 0.007,0.003c0.003,0 0.004,-0.001 0.005,-0.004c0.002,-0.001 0.004,-0.005 0.005,-0.01c0.003,-0.005 0.005,-0.011 0.007,-0.018c0.003,-0.01 0.005,-0.017 0.005,-0.021c0,-0.005 -0.002,-0.008 -0.005,-0.01Z" style="fill-rule:nonzero;"/>
    </g>
    <g transform="matrix(66.6667,0,0,66.6667,820.664,1842.67)">
      <path d="M0.432,-0.356c0.003,-0.005 0.004,-0.008 0.004,-0.01c0,-0.004 -0.003,-0.005 -0.006,-0.006c-0.004,-0.002 -0.01,-0.003 -0.016,-0.004l-0.015,-0.001c-0.003,0 -0.008,-0.001 -0.012,-0.001c-0.009,0 -0.018,0.002 -0.019,0.009c-0.002,0.018 -0.031,0.083 -0.042,0.107c-0.011,0.023 -0.035,0.083 -0.043,0.106c-0.008,0.026 -0.022,0.06 -0.044,0.066c-0.003,0.001 -0.006,0.002 -0.008,0.002c-0.01,0 -0.016,-0.007 -0.02,-0.016c0,-0.004 -0.002,-0.009 -0.003,-0.015c-0.001,-0.005 -0.002,-0.011 -0.003,-0.016c-0.003,-0.011 -0.009,-0.022 -0.016,-0.037c-0.008,-0.014 -0.016,-0.03 -0.023,-0.048c-0.014,-0.036 -0.037,-0.088 -0.05,-0.126c-0.013,-0.032 -0.023,-0.034 -0.056,-0.037l-0.007,0c-0.015,0 -0.021,0.006 -0.021,0.013c0,0.014 0.014,0.032 0.021,0.039c0.009,0.01 0.02,0.032 0.032,0.054c0.011,0.022 0.024,0.046 0.036,0.065c0.005,0.01 0.011,0.021 0.016,0.033l0.014,0.036c0.01,0.024 0.019,0.047 0.033,0.063c0.018,0.022 0.025,0.043 0.025,0.06l-0,0.004c-0,0.011 -0.003,0.021 -0.006,0.028c-0.008,0.013 -0.019,0.032 -0.031,0.067c-0.006,0.018 -0.016,0.035 -0.025,0.05c-0.009,0.015 -0.018,0.029 -0.026,0.045c-0.003,0.005 -0.005,0.01 -0.005,0.012c-0,0.012 0.015,0.012 0.04,0.014c0.002,0 0.005,0.001 0.007,0.001c0.012,0 0.017,-0.004 0.02,-0.008c0.003,-0.004 0.005,-0.008 0.007,-0.014l0.007,-0.02c0.006,-0.015 0.011,-0.03 0.016,-0.044c0.006,-0.015 0.012,-0.03 0.02,-0.045c0.016,-0.03 0.043,-0.111 0.063,-0.149c0.019,-0.037 0.045,-0.101 0.06,-0.132c0.015,-0.031 0.057,-0.112 0.076,-0.145Z" style="fill-rule:nonzero;"/>
    </g>
    <g transform="matrix(66.6667,0,0,66.6667,851.864,1842.67)">
      <path d="M0.458,-0.18l0,-0.005c0,-0.068 -0.032,-0.119 -0.062,-0.151c-0.03,-0.031 -0.079,-0.056 -0.135,-0.058l-0.005,-0c-0.091,-0 -0.131,0.038 -0.16,0.068c-0.03,0.03 -0.053,0.075 -0.053,0.139c0,0.064 0.038,0.126 0.069,0.154c0.03,0.027 0.075,0.047 0.133,0.047l0.006,-0c0.062,-0.002 0.11,-0.01 0.153,-0.056c0.043,-0.048 0.054,-0.065 0.054,-0.138Zm-0.057,-0.011c0,0.038 -0.014,0.09 -0.039,0.109c-0.006,0.003 -0.012,0.008 -0.02,0.013c-0.025,0.017 -0.053,0.03 -0.083,0.03c-0.004,-0 -0.008,-0 -0.013,-0.001c-0.048,-0.006 -0.071,-0.016 -0.1,-0.05c-0.029,-0.032 -0.038,-0.058 -0.038,-0.099c0,-0.04 0.007,-0.078 0.047,-0.108c0.039,-0.029 0.07,-0.033 0.102,-0.033c0.051,-0 0.088,0.014 0.109,0.051c0.01,0.017 0.019,0.028 0.025,0.041c0.005,0.013 0.01,0.027 0.01,0.047Z" style="fill-rule:nonzero;"/>
    </g>
    <g transform="matrix(66.6667,0,0,66.6667,884.998,1842.67)">
      <path d="M0.411,-0.05c-0.003,-0.026 -0.006,-0.108 -0.006,-0.166c0,-0.012 0.001,-0.024 0.001,-0.033l0,-0.004c0,-0.046 -0.024,-0.086 -0.038,-0.103c-0.014,-0.018 -0.044,-0.035 -0.083,-0.036l-0.007,0c-0.033,0 -0.053,0.012 -0.087,0.044c-0.014,0.013 -0.025,0.017 -0.032,0.018c-0.006,0 -0.009,-0.003 -0.011,-0.006c-0.002,-0.005 -0.003,-0.011 -0.003,-0.017c0,-0.006 0,-0.011 0.001,-0.016c0,-0.017 -0.016,-0.02 -0.028,-0.02c-0.011,0 -0.03,0.001 -0.034,0.01c-0.001,0.003 -0.002,0.007 -0.002,0.012c0.001,0.006 0.002,0.011 0.002,0.018c0.002,0.028 0.014,0.091 0.014,0.132c0,0.041 -0.002,0.091 -0.01,0.157c-0.002,0.012 -0.002,0.021 -0.002,0.029c0,0.029 0.01,0.035 0.033,0.035c0.003,0 0.007,-0.001 0.012,-0.001c0.02,-0.001 0.024,-0.007 0.025,-0.01l0,-0.007c0,-0.007 -0.001,-0.015 -0.002,-0.02c-0.004,-0.022 -0.008,-0.102 -0.008,-0.137c0,-0.033 0.005,-0.088 0.026,-0.117c0.022,-0.03 0.055,-0.047 0.085,-0.047l0.014,0c0.006,0 0.013,0 0.019,0.002c0.011,0.002 0.021,0.008 0.035,0.019c0.017,0.013 0.024,0.03 0.027,0.051c0.002,0.012 0.002,0.026 0.002,0.041l-0,0.032c-0,0.057 -0.008,0.089 -0.012,0.145c-0,0.004 -0.001,0.009 -0.001,0.012c-0,0.037 0.017,0.038 0.047,0.038c0.021,0 0.026,-0.011 0.026,-0.027c-0,-0.009 -0.002,-0.019 -0.003,-0.028Z" style="fill-rule:nonzero;"/>
    </g>
    <g transform="matrix(66.6667,0,0,66.6667,917.264,1842.67)">
      <path d="M0.437,-0.197c0,-0.001 0.001,-0.002 0.001,-0.004c0,-0.001 -0.001,-0.004 -0.001,-0.007l-0.004,-0.021c-0.007,-0.032 -0.042,-0.085 -0.068,-0.116c-0.026,-0.028 -0.076,-0.045 -0.118,-0.047l-0.011,0c-0.043,0 -0.077,0.021 -0.112,0.044l-0.008,0.005c-0.038,0.023 -0.065,0.099 -0.067,0.159l0,0.003c0,0.057 0.043,0.12 0.077,0.158c0.033,0.035 0.101,0.036 0.135,0.036c0.032,0 0.058,-0.008 0.075,-0.017c0.007,-0.004 0.017,-0.012 0.029,-0.022c0.011,-0.01 0.023,-0.02 0.036,-0.03c0.01,-0.007 0.015,-0.015 0.015,-0.023c0,-0.009 -0.005,-0.018 -0.02,-0.03c-0.005,-0.004 -0.01,-0.006 -0.013,-0.006c-0.005,0 -0.008,0.003 -0.012,0.006c-0.007,0.008 -0.012,0.018 -0.016,0.028c-0.008,0.018 -0.048,0.038 -0.098,0.038l-0.008,0c-0.033,-0.001 -0.061,-0.011 -0.086,-0.031l-0.015,-0.012c-0.016,-0.014 -0.032,-0.054 -0.032,-0.079l0,-0.007c0.003,-0.012 0.027,-0.019 0.057,-0.02c0.025,0 0.053,0.001 0.068,0.001c0.021,0 0.079,0.001 0.124,0.001c0.023,0 0.043,0 0.054,-0.001c0.017,0 0.018,-0.004 0.018,-0.006Zm-0.071,-0.066c0.003,0.005 0.004,0.009 0.004,0.013c0,0.011 -0.009,0.018 -0.027,0.018c-0.039,-0 -0.082,0.001 -0.099,0.001c-0.018,-0 -0.071,-0.001 -0.082,-0.004c-0.011,-0.001 -0.035,-0.014 -0.035,-0.032c0,-0.006 0.002,-0.012 0.007,-0.018c0.016,-0.022 0.06,-0.052 0.112,-0.052l0.004,0c0.047,0.002 0.063,0.016 0.086,0.038c0.01,0.01 0.024,0.023 0.03,0.036Z" style="fill-rule:nonzero;"/>
    </g>
    <g transform="matrix(66.6667,0,0,66.6667,948.998,1842.67)">
      <path d="M0.175,-0.053c0.006,-0.008 0.008,-0.015 0.008,-0.021c-0,-0.015 -0.022,-0.019 -0.038,-0.019c-0.014,0 -0.044,0.005 -0.049,0.017l-0.006,0.011l-0.008,0.012c-0.005,0.008 -0.01,0.02 -0.013,0.037c-0.004,0.02 -0.012,0.04 -0.02,0.059c-0.008,0.018 -0.016,0.036 -0.022,0.054c-0.003,0.01 -0.006,0.015 -0.006,0.019c-0,0.002 0.001,0.003 0.002,0.004c0.002,0.002 0.018,0.003 0.021,0.003c0.004,0.001 0.007,0.001 0.01,0.001c0.016,-0 0.019,-0.006 0.022,-0.014c0.006,-0.014 0.025,-0.044 0.042,-0.071c0.018,-0.028 0.026,-0.049 0.057,-0.092Z" style="fill-rule:nonzero;"/>
    </g>
    <g transform="matrix(66.6667,0,0,66.6667,980.931,1842.67)">
      <path d="M0.253,-0.356c0,-0.008 -0.004,-0.011 -0.012,-0.014c-0.005,-0.001 -0.011,-0.001 -0.017,-0.001c-0.007,0 -0.013,-0.001 -0.02,-0.001l-0.017,-0.002c-0.005,0 -0.009,-0.001 -0.013,-0.002c-0.009,-0.003 -0.015,-0.01 -0.015,-0.02c0,-0.014 0,-0.038 0.002,-0.077l0,-0.004c0,-0.015 -0.003,-0.02 -0.006,-0.022c-0.005,-0.004 -0.015,-0.004 -0.021,-0.004l-0.003,0c-0.015,0 -0.024,0.012 -0.025,0.018c0,0.001 -0.001,0.003 -0.001,0.004c0,0.005 0.001,0.013 0.002,0.023c0.002,0.013 0.004,0.03 0.004,0.047l0,0.005c0,0.018 -0.008,0.028 -0.021,0.031c-0.004,0.001 -0.008,0.001 -0.012,0.001c-0.007,0 -0.016,-0.001 -0.023,-0.001c-0.014,0 -0.022,0.009 -0.025,0.039c0,0.001 -0.001,0.002 -0.001,0.003c0,0.006 0.004,0.008 0.012,0.01c0.005,0.001 0.01,0.001 0.015,0.001c0.005,0 0.01,-0.001 0.014,-0.001c0.016,0 0.037,0.012 0.037,0.034c0,0.016 0.003,0.051 0.003,0.096c0,0.045 -0.006,0.131 -0.006,0.17c0,0.019 0.003,0.024 0.006,0.026l0.008,0.002l0.018,0c0.025,0 0.033,-0.003 0.033,-0.016l0,-0.007c-0.003,-0.028 -0.008,-0.1 -0.009,-0.142c-0.001,-0.014 -0.002,-0.031 -0.002,-0.048c0,-0.033 0.002,-0.067 0.003,-0.089c0.001,-0.022 0.014,-0.031 0.03,-0.032l0.003,0c0.012,0 0.023,0.003 0.035,0.004l0.004,0c0.013,0 0.02,-0.007 0.02,-0.031Z" style="fill-rule:nonzero;"/>
    </g>
    <g transform="matrix(66.6667,0,0,66.6667,999.864,1842.67)">
      <path d="M0.424,-0.026l0,-0.006c0,-0.008 -0.001,-0.015 -0.002,-0.023c-0.002,-0.017 -0.003,-0.065 -0.003,-0.107c0,-0.027 0,-0.053 0.001,-0.068l0,-0.007c0,-0.037 -0.011,-0.083 -0.028,-0.109c-0.017,-0.026 -0.067,-0.043 -0.093,-0.045c-0.005,0 -0.011,-0.001 -0.017,-0.001c-0.023,0 -0.049,0.005 -0.077,0.026c-0.014,0.011 -0.024,0.015 -0.031,0.015c-0.006,-0 -0.009,-0.002 -0.012,-0.005c-0.006,-0.006 -0.006,-0.017 -0.007,-0.025c-0.003,-0.009 -0.004,-0.019 -0.004,-0.031c0,-0.013 0.001,-0.027 0.003,-0.045c0.004,-0.035 0.008,-0.094 0.01,-0.152l0,-0.006c0,-0.025 -0.005,-0.032 -0.009,-0.036c-0.003,-0.003 -0.006,-0.004 -0.012,-0.005l-0.024,0c-0.023,0 -0.03,0.01 -0.03,0.028c0,0.026 0,0.074 0.003,0.134c0.004,0.061 0.007,0.202 0.007,0.241c0,0.039 -0.003,0.171 -0.006,0.212c-0.001,0.008 -0.002,0.015 -0.002,0.02c0,0.017 0.007,0.021 0.035,0.024l0.006,0c0.023,0 0.027,-0.011 0.027,-0.024c0,-0.004 -0.001,-0.008 -0.001,-0.012c-0.001,-0.012 -0.002,-0.05 -0.002,-0.091c0,-0.041 0.001,-0.085 0.002,-0.107c0.003,-0.05 0.028,-0.071 0.046,-0.085c0.02,-0.015 0.057,-0.024 0.074,-0.024c0.003,0 0.008,0 0.013,0.001c0.02,0.001 0.035,0.009 0.05,0.026c0.02,0.024 0.021,0.057 0.021,0.088l0,0.013c0,0.03 -0.007,0.13 -0.011,0.165c-0.001,0.006 -0.001,0.012 -0.001,0.017c0,0.02 0.007,0.03 0.041,0.033l0.006,-0c0.017,-0 0.023,-0.007 0.025,-0.015c0.001,-0.004 0.002,-0.009 0.002,-0.014Z" style="fill-rule:nonzero;"/>
    </g>
    <g transform="matrix(66.6667,0,0,66.6667,1033.66,1842.67)">
      <path d="M0.437,-0.197c0,-0.001 0.001,-0.002 0.001,-0.004c0,-0.001 -0.001,-0.004 -0.001,-0.007l-0.004,-0.021c-0.007,-0.032 -0.042,-0.085 -0.068,-0.116c-0.026,-0.028 -0.076,-0.045 -0.118,-0.047l-0.011,0c-0.043,0 -0.077,0.021 -0.112,0.044l-0.008,0.005c-0.038,0.023 -0.065,0.099 -0.067,0.159l0,0.003c0,0.057 0.043,0.12 0.077,0.158c0.033,0.035 0.101,0.036 0.135,0.036c0.032,0 0.058,-0.008 0.075,-0.017c0.007,-0.004 0.017,-0.012 0.029,-0.022c0.011,-0.01 0.023,-0.02 0.036,-0.03c0.01,-0.007 0.015,-0.015 0.015,-0.023c0,-0.009 -0.005,-0.018 -0.02,-0.03c-0.005,-0.004 -0.01,-0.006 -0.013,-0.006c-0.005,0 -0.008,0.003 -0.012,0.006c-0.007,0.008 -0.012,0.018 -0.016,0.028c-0.008,0.018 -0.048,0.038 -0.098,0.038l-0.008,0c-0.033,-0.001 -0.061,-0.011 -0.086,-0.031l-0.015,-0.012c-0.016,-0.014 -0.032,-0.054 -0.032,-0.079l0,-0.007c0.003,-0.012 0.027,-0.019 0.057,-0.02c0.025,0 0.053,0.001 0.068,0.001c0.021,0 0.079,0.001 0.124,0.001c0.023,0 0.043,0 0.054,-0.001c0.017,0 0.018,-0.004 0.018,-0.006Zm-0.071,-0.066c0.003,0.005 0.004,0.009 0.004,0.013c0,0.011 -0.009,0.018 -0.027,0.018c-0.039,-0 -0.082,0.001 -0.099,0.001c-0.018,-0 -0.071,-0.001 -0.082,-0.004c-0.011,-0.001 -0.035,-0.014 -0.035,-0.032c0,-0.006 0.002,-0.012 0.007,-0.018c0.016,-0.022 0.06,-0.052 0.112,-0.052l0.004,0c0.047,0.002 0.063,0.016 0.086,0.038c0.01,0.01 0.024,0.023 0.03,0.036Z" style="fill-rule:nonzero;"/>
    </g>
    <g transform="matrix(66.6667,0,0,66.6667,1065.4,1842.67)">
      <path d="M0.411,-0.05c-0.003,-0.026 -0.006,-0.108 -0.006,-0.166c0,-0.012 0.001,-0.024 0.001,-0.033l0,-0.004c0,-0.046 -0.024,-0.086 -0.038,-0.103c-0.014,-0.018 -0.044,-0.035 -0.083,-0.036l-0.007,0c-0.033,0 -0.053,0.012 -0.087,0.044c-0.014,0.013 -0.025,0.017 -0.032,0.018c-0.006,0 -0.009,-0.003 -0.011,-0.006c-0.002,-0.005 -0.003,-0.011 -0.003,-0.017c0,-0.006 0,-0.011 0.001,-0.016c0,-0.017 -0.016,-0.02 -0.028,-0.02c-0.011,0 -0.03,0.001 -0.034,0.01c-0.001,0.003 -0.002,0.007 -0.002,0.012c0.001,0.006 0.002,0.011 0.002,0.018c0.002,0.028 0.014,0.091 0.014,0.132c0,0.041 -0.002,0.091 -0.01,0.157c-0.002,0.012 -0.002,0.021 -0.002,0.029c0,0.029 0.01,0.035 0.033,0.035c0.003,0 0.007,-0.001 0.012,-0.001c0.02,-0.001 0.024,-0.007 0.025,-0.01l0,-0.007c0,-0.007 -0.001,-0.015 -0.002,-0.02c-0.004,-0.022 -0.008,-0.102 -0.008,-0.137c0,-0.033 0.005,-0.088 0.026,-0.117c0.022,-0.03 0.055,-0.047 0.085,-0.047l0.014,0c0.006,0 0.013,0 0.019,0.002c0.011,0.002 0.021,0.008 0.035,0.019c0.017,0.013 0.024,0.03 0.027,0.051c0.002,0.012 0.002,0.026 0.002,0.041l-0,0.032c-0,0.057 -0.008,0.089 -0.012,0.145c-0,0.004 -0.001,0.009 -0.001,0.012c-0,0.037 0.017,0.038 0.047,0.038c0.021,0 0.026,-0.011 0.026,-0.027c-0,-0.009 -0.002,-0.019 -0.003,-0.028Z" style="fill-rule:nonzero;"/>
    </g>
    <g transform="matrix(66.6667,0,0,66.6667,1114.33,1842.67)">
      <path d="M0.471,-0.196l0,-0.008c0,-0.053 -0.031,-0.1 -0.057,-0.132c-0.025,-0.03 -0.082,-0.053 -0.131,-0.055c-0.046,0 -0.089,0.029 -0.118,0.058c-0.008,0.007 -0.014,0.011 -0.019,0.011c-0.005,0 -0.009,-0.003 -0.011,-0.006c-0.003,-0.004 -0.004,-0.013 -0.004,-0.025l-0,-0.013c-0,-0.014 -0.007,-0.015 -0.03,-0.017l-0.004,0c-0.018,0 -0.023,0.012 -0.023,0.027c-0,0.01 0.002,0.02 0.003,0.028c0.003,0.022 0.005,0.15 0.005,0.227c-0,0.023 -0,0.04 -0.001,0.051c-0.002,0.049 -0.004,0.179 -0.008,0.216c-0,0.003 -0.001,0.004 -0.001,0.006c-0,0.021 0.014,0.028 0.033,0.028c0.002,0 0.005,-0.001 0.008,-0.001c0.025,-0.001 0.033,-0.01 0.033,-0.015l-0,-0.005c-0,-0.007 -0,-0.016 -0.001,-0.028c-0.002,-0.014 -0.004,-0.031 -0.004,-0.044c-0.001,-0.007 -0.001,-0.014 -0.001,-0.023l-0,-0.015c-0,-0.02 -0,-0.04 -0.004,-0.063c-0.001,-0.009 -0.002,-0.017 -0.002,-0.023c-0,-0.023 0.007,-0.033 0.023,-0.035l0.004,0c0.008,0 0.015,0.006 0.02,0.011c0.007,0.006 0.012,0.014 0.017,0.021c0.01,0.013 0.02,0.024 0.092,0.024c0.035,0 0.056,-0.006 0.074,-0.016c0.008,-0.005 0.017,-0.011 0.025,-0.018l0.028,-0.022c0.038,-0.029 0.054,-0.086 0.054,-0.144Zm-0.056,0.008l-0.003,0.04c-0.004,0.037 -0.014,0.053 -0.046,0.076c-0.02,0.015 -0.033,0.021 -0.045,0.025c-0.006,0.001 -0.012,0.001 -0.019,0.001c-0.001,-0 -0.004,0.001 -0.006,0.001c-0.005,-0 -0.009,-0.001 -0.015,-0.001c-0.033,-0 -0.065,-0.004 -0.096,-0.029c-0.032,-0.025 -0.052,-0.072 -0.052,-0.123c-0,-0.052 0.023,-0.093 0.06,-0.117c0.009,-0.005 0.016,-0.01 0.023,-0.013l0.017,-0.008c0.012,-0.005 0.023,-0.005 0.041,-0.005c0.041,0 0.075,0.016 0.094,0.038c0.004,0.005 0.01,0.01 0.015,0.017c0.006,0.006 0.012,0.014 0.017,0.023c0.008,0.016 0.015,0.037 0.015,0.062l0,0.013Z" style="fill-rule:nonzero;"/>
    </g>
    <g transform="matrix(66.6667,0,0,66.6667,1149.66,1842.67)">
      <path d="M0.308,-0.38c-0.007,-0.003 -0.031,-0.011 -0.058,-0.011c-0.027,0 -0.064,0.024 -0.077,0.049c-0.003,0.006 -0.007,0.012 -0.012,0.015c-0.003,0.001 -0.005,0.001 -0.006,0.001c-0.005,0 -0.009,-0.003 -0.011,-0.006c-0.003,-0.006 -0.004,-0.014 -0.004,-0.022l0,-0.007c0,-0.017 -0.018,-0.024 -0.031,-0.024c-0.025,0 -0.028,0.008 -0.029,0.013c0,0.001 -0.001,0.002 -0.001,0.004c0,0.003 0.001,0.008 0.002,0.013c0.001,0.007 0.002,0.015 0.003,0.022c0.002,0.033 0.002,0.107 0.002,0.151c0,0.043 -0.002,0.088 -0.009,0.146c-0.001,0.01 -0.001,0.018 -0.001,0.023c0,0.006 0.001,0.009 0.005,0.011c0.002,0.001 0.006,0.001 0.015,0.001c0.008,-0.001 0.018,-0.002 0.03,-0.002c0.025,0 0.031,-0.017 0.031,-0.036c0,-0.014 -0.004,-0.03 -0.006,-0.042c-0.004,-0.02 -0.005,-0.057 -0.005,-0.094c0,-0.02 0,-0.039 0.001,-0.056c0.003,-0.054 0.039,-0.084 0.073,-0.092c0.013,-0.003 0.022,-0.004 0.031,-0.004c0.012,0 0.02,0.002 0.033,0.007c0.002,0 0.005,0.003 0.007,0.003c0.003,0 0.004,-0.001 0.005,-0.004c0.002,-0.001 0.004,-0.005 0.005,-0.01c0.003,-0.005 0.005,-0.011 0.007,-0.018c0.003,-0.01 0.005,-0.017 0.005,-0.021c0,-0.005 -0.002,-0.008 -0.005,-0.01Z" style="fill-rule:nonzero;"/>
    </g>
    <g transform="matrix(66.6667,0,0,66.6667,1171.73,1842.67)">
      <path d="M0.458,-0.18l0,-0.005c0,-0.068 -0.032,-0.119 -0.062,-0.151c-0.03,-0.031 -0.079,-0.056 -0.135,-0.058l-0.005,-0c-0.091,-0 -0.131,0.038 -0.16,0.068c-0.03,0.03 -0.053,0.075 -0.053,0.139c0,0.064 0.038,0.126 0.069,0.154c0.03,0.027 0.075,0.047 0.133,0.047l0.006,-0c0.062,-0.002 0.11,-0.01 0.153,-0.056c0.043,-0.048 0.054,-0.065 0.054,-0.138Zm-0.057,-0.011c0,0.038 -0.014,0.09 -0.039,0.109c-0.006,0.003 -0.012,0.008 -0.02,0.013c-0.025,0.017 -0.053,0.03 -0.083,0.03c-0.004,-0 -0.008,-0 -0.013,-0.001c-0.048,-0.006 -0.071,-0.016 -0.1,-0.05c-0.029,-0.032 -0.038,-0.058 -0.038,-0.099c0,-0.04 0.007,-0.078 0.047,-0.108c0.039,-0.029 0.07,-0.033 0.102,-0.033c0.051,-0 0.088,0.014 0.109,0.051c0.01,0.017 0.019,0.028 0.025,0.041c0.005,0.013 0.01,0.027 0.01,0.047Z" style="fill-rule:nonzero;"/>
    </g>
    <g transform="matrix(66.6667,0,0,66.6667,1204.86,1842.67)">
      <path d="M0.363,-0.022c0,-0.004 0,-0.008 -0.001,-0.014l-0.002,-0.02c-0.001,-0.015 -0.004,-0.021 -0.009,-0.021c-0.001,0 -0.004,0.001 -0.007,0.003c-0.018,0.013 -0.048,0.028 -0.089,0.028l-0.013,0c-0.046,-0.005 -0.06,-0.011 -0.094,-0.035c-0.037,-0.026 -0.044,-0.073 -0.044,-0.11c0,-0.04 0.012,-0.078 0.047,-0.106c0.036,-0.029 0.054,-0.032 0.094,-0.034l0.007,-0c0.038,-0 0.063,0.011 0.089,0.029c0.005,0.003 0.009,0.006 0.01,0.006c0.001,-0 0.002,-0.001 0.003,-0.002c0.002,-0.003 0.002,-0.007 0.004,-0.013c0.001,-0.007 0.003,-0.015 0.003,-0.025c0.001,-0.004 0.001,-0.007 0.001,-0.01c0,-0.01 -0.003,-0.015 -0.006,-0.018c-0.004,-0.003 -0.007,-0.006 -0.011,-0.008c-0.005,-0.003 -0.01,-0.005 -0.014,-0.009c-0.016,-0.01 -0.042,-0.011 -0.096,-0.014l-0.004,0c-0.054,0 -0.103,0.031 -0.139,0.063c-0.032,0.03 -0.05,0.105 -0.05,0.147l0,0.006c0.002,0.042 0.015,0.094 0.059,0.138c0.043,0.043 0.09,0.055 0.133,0.058l0.008,0c0.018,0 0.033,-0.003 0.048,-0.006c0.017,-0.004 0.033,-0.011 0.051,-0.017c0.019,-0.007 0.021,-0.012 0.022,-0.016Z" style="fill-rule:nonzero;"/>
    </g>
    <g transform="matrix(66.6667,0,0,66.6667,1231.06,1842.67)">
      <path d="M0.437,-0.197c0,-0.001 0.001,-0.002 0.001,-0.004c0,-0.001 -0.001,-0.004 -0.001,-0.007l-0.004,-0.021c-0.007,-0.032 -0.042,-0.085 -0.068,-0.116c-0.026,-0.028 -0.076,-0.045 -0.118,-0.047l-0.011,0c-0.043,0 -0.077,0.021 -0.112,0.044l-0.008,0.005c-0.038,0.023 -0.065,0.099 -0.067,0.159l0,0.003c0,0.057 0.043,0.12 0.077,0.158c0.033,0.035 0.101,0.036 0.135,0.036c0.032,0 0.058,-0.008 0.075,-0.017c0.007,-0.004 0.017,-0.012 0.029,-0.022c0.011,-0.01 0.023,-0.02 0.036,-0.03c0.01,-0.007 0.015,-0.015 0.015,-0.023c0,-0.009 -0.005,-0.018 -0.02,-0.03c-0.005,-0.004 -0.01,-0.006 -0.013,-0.006c-0.005,0 -0.008,0.003 -0.012,0.006c-0.007,0.008 -0.012,0.018 -0.016,0.028c-0.008,0.018 -0.048,0.038 -0.098,0.038l-0.008,0c-0.033,-0.001 -0.061,-0.011 -0.086,-0.031l-0.015,-0.012c-0.016,-0.014 -0.032,-0.054 -0.032,-0.079l0,-0.007c0.003,-0.012 0.027,-0.019 0.057,-0.02c0.025,0 0.053,0.001 0.068,0.001c0.021,0 0.079,0.001 0.124,0.001c0.023,0 0.043,0 0.054,-0.001c0.017,0 0.018,-0.004 0.018,-0.006Zm-0.071,-0.066c0.003,0.005 0.004,0.009 0.004,0.013c0,0.011 -0.009,0.018 -0.027,0.018c-0.039,-0 -0.082,0.001 -0.099,0.001c-0.018,-0 -0.071,-0.001 -0.082,-0.004c-0.011,-0.001 -0.035,-0.014 -0.035,-0.032c0,-0.006 0.002,-0.012 0.007,-0.018c0.016,-0.022 0.06,-0.052 0.112,-0.052l0.004,0c0.047,0.002 0.063,0.016 0.086,0.038c0.01,0.01 0.024,0.023 0.03,0.036Z" style="fill-rule:nonzero;"/>
    </g>
    <g transform="matrix(66.6667,0,0,66.6667,1262.8,1842.67)">
      <path d="M0.437,-0.197c0,-0.001 0.001,-0.002 0.001,-0.004c0,-0.001 -0.001,-0.004 -0.001,-0.007l-0.004,-0.021c-0.007,-0.032 -0.042,-0.085 -0.068,-0.116c-0.026,-0.028 -0.076,-0.045 -0.118,-0.047l-0.011,0c-0.043,0 -0.077,0.021 -0.112,0.044l-0.008,0.005c-0.038,0.023 -0.065,0.099 -0.067,0.159l0,0.003c0,0.057 0.043,0.12 0.077,0.158c0.033,0.035 0.101,0.036 0.135,0.036c0.032,0 0.058,-0.008 0.075,-0.017c0.007,-0.004 0.017,-0.012 0.029,-0.022c0.011,-0.01 0.023,-0.02 0.036,-0.03c0.01,-0.007 0.015,-0.015 0.015,-0.023c0,-0.009 -0.005,-0.018 -0.02,-0.03c-0.005,-0.004 -0.01,-0.006 -0.013,-0.006c-0.005,0 -0.008,0.003 -0.012,0.006c-0.007,0.008 -0.012,0.018 -0.016,0.028c-0.008,0.018 -0.048,0.038 -0.098,0.038l-0.008,0c-0.033,-0.001 -0.061,-0.011 -0.086,-0.031l-0.015,-0.012c-0.016,-0.014 -0.032,-0.054 -0.032,-0.079l0,-0.007c0.003,-0.012 0.027,-0.019 0.057,-0.02c0.025,0 0.053,0.001 0.068,0.001c0.021,0 0.079,0.001 0.124,0.001c0.023,0 0.043,0 0.054,-0.001c0.017,0 0.018,-0.004 0.018,-0.006Zm-0.071,-0.066c0.003,0.005 0.004,0.009 0.004,0.013c0,0.011 -0.009,0.018 -0.027,0.018c-0.039,-0 -0.082,0.001 -0.099,0.001c-0.018,-0 -0.071,-0.001 -0.082,-0.004c-0.011,-0.001 -0.035,-0.014 -0.035,-0.032c0,-0.006 0.002,-0.012 0.007,-0.018c0.016,-0.022 0.06,-0.052 0.112,-0.052l0.004,0c0.047,0.002 0.063,0.016 0.086,0.038c0.01,0.01 0.024,0.023 0.03,0.036Z" style="fill-rule:nonzero;"/>
    </g>
    <g transform="matrix(66.6667,0,0,66.6667,1294.53,1842.67)">
      <path d="M0.443,-0.626c0,-0.008 -0.001,-0.013 -0.002,-0.015c-0.004,-0.007 -0.013,-0.007 -0.031,-0.009c-0.002,0 -0.004,-0.001 -0.006,-0.001l-0.007,0c-0.019,0 -0.023,0.007 -0.025,0.015c-0.001,0.004 -0.001,0.008 -0.001,0.013l0,0.012l0.003,0.031c0.003,0.045 0.004,0.119 0.007,0.16c0.001,0.013 0.002,0.023 0.002,0.031c0,0.019 -0.004,0.029 -0.016,0.039c-0.005,0.004 -0.01,0.006 -0.015,0.006c-0.006,-0 -0.012,-0.002 -0.018,-0.005c-0.009,-0.005 -0.022,-0.014 -0.038,-0.024c-0.02,-0.013 -0.044,-0.015 -0.067,-0.015c-0.01,-0 -0.02,0.001 -0.029,0.001c-0.036,0.001 -0.087,0.033 -0.114,0.063c-0.025,0.029 -0.044,0.092 -0.044,0.149c0,0.056 0.03,0.11 0.064,0.142c0.034,0.032 0.082,0.051 0.119,0.051c0.038,-0 0.078,-0.009 0.105,-0.04c0.014,-0.017 0.026,-0.023 0.033,-0.023c0.012,-0 0.018,0.013 0.021,0.029c0.001,0.007 0.001,0.011 0.005,0.014c0.002,0.001 0.004,0.001 0.01,0.002l0.022,0.003l0.005,-0c0.012,-0 0.014,-0.005 0.015,-0.011l-0,-0.018l-0.004,-0.023c-0.004,-0.028 -0.01,-0.152 -0.01,-0.202l-0,-0.014l0.006,-0.065c0.001,-0.014 0.002,-0.026 0.002,-0.038c-0,-0.007 -0,-0.013 -0.001,-0.018c-0.001,-0.006 -0.002,-0.015 -0.002,-0.026c-0,-0.016 0.004,-0.054 0.004,-0.06l-0,-0.009c0.001,-0.041 0.005,-0.085 0.005,-0.112c-0,-0.013 0.001,-0.024 0.002,-0.033Zm-0.066,0.395c0.005,0.015 0.008,0.03 0.008,0.043c-0,0.018 -0.004,0.036 -0.012,0.055c-0.006,0.017 -0.014,0.029 -0.023,0.04c-0.008,0.009 -0.017,0.017 -0.025,0.026c-0.016,0.016 -0.045,0.022 -0.069,0.022c-0.005,-0 -0.009,-0 -0.012,-0.001l-0.018,-0c-0.005,-0 -0.012,-0 -0.02,-0.002c-0.014,-0.004 -0.03,-0.013 -0.055,-0.033c-0.024,-0.02 -0.036,-0.038 -0.041,-0.055c-0.004,-0.008 -0.004,-0.015 -0.005,-0.023c0,-0 0,-0.001 -0.002,-0.023l0,-0.007c0,-0.03 0.01,-0.068 0.033,-0.098c0.024,-0.031 0.044,-0.044 0.085,-0.044l0.012,-0c0.047,0.001 0.083,0.009 0.102,0.03c0.016,0.018 0.03,0.036 0.042,0.07Z" style="fill-rule:nonzero;"/>
    </g>
  </g>
  <g id="FAWN-ICON" sound="FAWN" serif:id="FAWN ICON">
    <rect x="679" y="817" width="336" height="268" style="fill:#fff;stroke:#000;stroke-width:3.05px;"/>
    <path id="fawn" d="M741.651,987.669c4.682,-1.408 16.77,-12.951 18.104,-18.659c1.41,-6.048 0.99,-25.041 -0.772,-28.036c-2.315,-3.935 -2.69,-15.561 0.364,-18.497c4.676,-4.498 24.653,-13.388 28.978,-16.128c2.871,-1.818 6.56,-1.579 9.834,-1.409c3.274,0.169 20.645,-1.021 33.459,-0.657c12.814,0.366 24.248,-1.431 29.652,-2.047c5.403,-0.615 21.79,-3.258 28.087,-0.635c3.94,1.641 16.81,3.854 23.073,-1.79c6.26,-5.645 10.787,-18.266 11.284,-21.914c0.587,-4.323 2.491,-9.485 2.773,-11.773c0.395,-3.198 -0.191,-4.308 -0.585,-4.721c-1.657,-1.743 -1.66,-2.674 -1.985,-3.415c-0.325,-0.745 -2.435,-2.829 -2.252,-3.694c0.134,-0.63 -0.196,-1.082 -1.995,-1.357c-1.8,-0.274 -7.371,-2.812 -8.222,-6.497c-2.333,-10.124 -0.667,-15.665 1.505,-15.554c2.17,0.114 12.455,7.718 12.542,9.536c0.087,1.819 1.847,5.656 3.226,6.389c2.161,1.148 5.268,-1.653 12.344,-0.992c3.267,0.306 6.711,1.977 7.311,1.859c0.459,-0.089 3.267,-3.052 3.361,-4.861c0.093,-1.809 1.605,-4.762 5.694,-6.965c4.267,-2.296 6.664,-3.226 7.607,-3.901c0.942,-0.678 3.243,-1.058 3.787,1.233c0.522,2.199 -0.054,9.626 -2.713,13.681c-1.571,2.394 -4.034,5.077 -7.804,6.364c-1.956,0.668 -3.606,0.302 -3.681,1.747c-0.073,1.448 0.119,4.723 -0.824,5.399c-0.939,0.677 -0.625,1.6 -0.69,2.866c-0.065,1.266 -0.71,3.229 -1.101,3.753c-0.39,0.523 -0.754,2.259 -0.675,2.504c0.453,1.356 1.297,2.969 1.032,4.589c-0.265,1.619 -0.921,0.695 -1.195,2.495c-0.275,1.799 -0.971,2.078 -1.79,2.611c-1.159,0.756 -2.061,2.87 -2.768,3.02c-1.618,0.343 -2.316,-0.611 -2.39,0.835c-0.076,1.449 -0.824,3.09 -0.546,4.737c0.277,1.648 0.521,7.465 -0.25,8.331c-0.77,0.866 -4.799,8.639 -5.005,12.619c-0.206,3.98 -1.691,15.149 -6.885,20.867c0,-0 -8.858,8.142 -8.958,10.062c-0.1,1.92 1.043,11.311 0.548,12.324c-0.498,1.01 -2.028,1.969 -2.703,3.562c-0.675,1.593 -2.651,8.304 -3.43,9.006c-0.776,0.7 -5.027,2.702 -4.222,7.189c0.806,4.485 5.328,11.531 9.156,14.841c3.829,3.306 12.311,11.155 13.051,14.008c0.742,2.851 2.126,4.701 2.044,6.325c-0.085,1.625 -0.06,3.996 2.178,9.443c2.235,5.45 7.012,19.027 7.755,21.88c0.742,2.852 1.963,4.99 1.959,7.952c-0.006,2.961 0.841,9.524 0.158,11.266c-0.684,1.741 1.143,9.392 0.255,9.344c-0.885,-0.045 -2.696,0.603 -5.187,-2.786c-2.493,-3.386 -3.285,-5.206 -3.948,-6.721c-0.664,-1.515 -0.362,-4.463 0.142,-5.622c0.504,-1.157 0.866,-5.287 0.214,-4.135c-0.653,1.15 -1.443,2.146 -1.85,1.385c-0.402,-0.762 0.514,-1.306 0.019,-6.073c-0.494,-4.765 -0.663,-10.107 -1.97,-13.434c-1.308,-3.326 -4.09,-9.688 -5.355,-13.903c-1.261,-4.213 -3.772,-10.119 -7.895,-13.442c-4.124,-3.325 -20.132,-11.708 -22.061,-14.476c-1.93,-2.765 -3.805,-3.75 -5.977,-4.751c-2.169,-1.001 -5.545,-1.621 -6.347,-3.291c-0.801,-1.671 -0.533,-4.026 -2.024,-3.807c-1.492,0.218 -7.254,-0.08 -7.898,0.924c-0.645,1.004 -5.848,15.694 -6.298,18.634c-0.448,2.939 -0.932,18.022 -1.59,19.321c-0.661,1.299 -1.219,3.492 -1.606,5.248c-0.388,1.759 -0.34,3.687 -1.39,3.931c-1.049,0.242 -0.826,4.55 -1.058,6.164c-0.232,1.62 0.24,6.826 -0.616,9.004c-0.853,2.179 -4.939,12.484 -3.387,19.674c1.554,7.191 7.127,13.995 5.783,14.22c-1.347,0.229 -3.312,1.016 -4.939,0.931c-1.626,-0.084 -6.935,-0.507 -6.982,-2.434c-0.049,-1.928 -0.149,-8.6 -1.112,-7.169c-0.962,1.432 -1.762,2.576 -2.44,1.357c-0.678,-1.22 -0.582,-5.956 0.871,-8.249c1.452,-2.295 2.469,-4.764 3.597,-12.258c1.128,-7.495 2.18,-13.516 2.511,-17.054c0.332,-3.537 0.919,-6.319 0.45,-8.715c-0.467,-2.394 0.142,-8.434 0.091,-10.364c-0.046,-1.927 -0.915,-16.637 -0.989,-20.935c-0.074,-4.3 2.003,-12.933 0.333,-12.131c-1.673,0.801 -27.833,2.561 -33.068,0.66c-5.235,-1.901 -8.392,-3.841 -9.308,-3.295c-0.918,0.544 -6.023,4.724 -9.498,11.802c-3.477,7.079 -9.139,13.451 -11.08,16.61c-0,0 -5.381,9.498 -5.385,12.459c-0.005,2.963 0.9,14.118 5.825,27.704c4.926,13.587 4.236,15.477 8.018,19.671c1.686,1.87 5.65,10.394 3.721,10.443c-1.852,0.046 -5.295,0.154 -6.927,0.219c-1.486,0.057 -0.342,-3.335 -2.455,-4.548c-2.314,-1.327 -7.791,1.928 -7.041,-3.957c0.208,-1.638 -0.339,-2.474 -0.277,-6.088c0.073,-4.292 -6.267,-24.912 -8.127,-29.007c-1.861,-4.096 -3.604,-9.774 -5.493,-14.061c-2.36,-5.347 -5.892,-7.642 -4.311,-11.183c0.652,-1.454 7.065,-10.595 9.814,-15.044c2.75,-4.448 4.789,-9.53 4.904,-11.745c0,-0 0.315,-3.241 -1.394,-1.699c-1.71,1.54 -12.058,9.742 -14.459,10.358c-2.402,0.616 -15.206,10.471 -16.737,11.43c-1.533,0.958 -6.951,-0.209 -11.984,14.044c-5.032,14.253 -9.577,36.239 -11.851,40.122c-2.275,3.88 -6.939,13.86 -9.83,15.34c-2.891,1.479 -3.684,2.475 -4.3,0.073c-0.617,-2.401 0.458,-8.862 1.6,-10.878c1.14,-2.014 4.007,-3.049 2.576,-4.013c-1.431,-0.963 -2.343,-3.381 -0.665,-4.332c1.679,-0.95 3.043,-4.434 4.133,-5.415c1.087,-0.979 5.686,-12.591 6.584,-18.47c0.898,-5.877 1.634,-10.042 3.12,-14.502c3.155,-9.466 1.466,-19.777 5.123,-20.876Z" style="fill-rule:nonzero;"/>
  </g>
	<a xlink:href="PRECHOICE.svg">
  <g id="NEXTLINK">
    <path d="M914,1975c0,-19.317 -15.683,-35 -35,-35l-70,0c-19.317,0 -35,15.683 -35,35l0,78c0,19.317 15.683,35 35,35l70,0c19.317,0 35,-15.683 35,-35l0,-78Z" style="fill:#fff;"/>
    <path id="next" d="M814.167,1976.5c-0.2,-1.733 -0.4,-7.2 -0.4,-11.067c-0,-0.8 0.066,-1.6 0.066,-2.2l0,-0.266c0,-3.067 -1.6,-5.734 -2.533,-6.867c-0.933,-1.2 -2.933,-2.333 -5.533,-2.4l-0.467,0c-2.2,0 -3.533,0.8 -5.8,2.933c-0.933,0.867 -1.667,1.134 -2.133,1.2c-0.4,0 -0.6,-0.2 -0.734,-0.4c-0.133,-0.333 -0.2,-0.733 -0.2,-1.133c0,-0.4 0,-0.733 0.067,-1.067c0,-1.133 -1.067,-1.333 -1.867,-1.333c-0.733,0 -2,0.067 -2.266,0.667c-0.067,0.2 -0.134,0.466 -0.134,0.8c0.067,0.4 0.134,0.733 0.134,1.2c0.133,1.866 0.933,6.066 0.933,8.8c0,2.733 -0.133,6.066 -0.667,10.466c-0.133,0.8 -0.133,1.4 -0.133,1.934c0,1.933 0.667,2.333 2.2,2.333c0.2,0 0.467,-0.067 0.8,-0.067c1.333,-0.066 1.6,-0.466 1.667,-0.666l-0,-0.467c-0,-0.467 -0.067,-1 -0.134,-1.333c-0.266,-1.467 -0.533,-6.8 -0.533,-9.134c0,-2.2 0.333,-5.866 1.733,-7.8c1.467,-2 3.667,-3.133 5.667,-3.133l0.933,0c0.4,0 0.867,0 1.267,0.133c0.733,0.134 1.4,0.534 2.333,1.267c1.134,0.867 1.6,2 1.8,3.4c0.134,0.8 0.134,1.733 0.134,2.733l-0,2.134c-0,3.8 -0.534,5.933 -0.8,9.666c-0,0.267 -0.067,0.6 -0.067,0.8c0,2.467 1.133,2.534 3.133,2.534c1.4,-0 1.734,-0.734 1.734,-1.8c-0,-0.6 -0.134,-1.267 -0.2,-1.867Z" style="fill-rule:nonzero;"/>
    <path d="M848.167,1966.7c-0,-0.067 0.066,-0.133 0.066,-0.267c0,-0.066 -0.066,-0.266 -0.066,-0.466l-0.267,-1.4c-0.467,-2.134 -2.8,-5.667 -4.533,-7.734c-1.734,-1.866 -5.067,-3 -7.867,-3.133l-0.733,0c-2.867,0 -5.134,1.4 -7.467,2.933l-0.533,0.334c-2.534,1.533 -4.334,6.6 -4.467,10.6l0,0.2c0,3.8 2.867,8 5.133,10.533c2.2,2.333 6.734,2.4 9,2.4c2.134,0 3.867,-0.533 5,-1.133c0.467,-0.267 1.134,-0.8 1.934,-1.467c0.733,-0.667 1.533,-1.333 2.4,-2c0.666,-0.467 1,-1 1,-1.533c-0,-0.6 -0.334,-1.2 -1.334,-2c-0.333,-0.267 -0.666,-0.4 -0.866,-0.4c-0.334,-0 -0.534,0.2 -0.8,0.4c-0.467,0.533 -0.8,1.2 -1.067,1.866c-0.533,1.2 -3.2,2.534 -6.533,2.534l-0.534,-0c-2.2,-0.067 -4.066,-0.734 -5.733,-2.067l-1,-0.8c-1.067,-0.933 -2.133,-3.6 -2.133,-5.267l-0,-0.466c0.2,-0.8 1.8,-1.267 3.8,-1.334c1.666,0 3.533,0.067 4.533,0.067c1.4,0 5.267,0.067 8.267,0.067c1.533,-0 2.866,-0 3.6,-0.067c1.133,0 1.2,-0.267 1.2,-0.4Zm-4.734,-4.4c0.2,0.333 0.267,0.6 0.267,0.867c0,0.733 -0.6,1.2 -1.8,1.2c-2.6,-0 -5.467,0.066 -6.6,0.066c-1.2,0 -4.733,-0.066 -5.467,-0.266c-0.733,-0.067 -2.333,-0.934 -2.333,-2.134c0,-0.4 0.133,-0.8 0.467,-1.2c1.066,-1.466 4,-3.466 7.466,-3.466l0.267,-0c3.133,0.133 4.2,1.066 5.733,2.533c0.667,0.667 1.6,1.533 2,2.4Z" style="fill-rule:nonzero;"/>
    <path d="M877.633,1979.3c-0.133,-1.467 -1.866,-2.933 -2.933,-3.8c-0.867,-0.733 -1.667,-1.667 -2.467,-2.6c-0.733,-0.933 -1.4,-1.867 -1.866,-2.4c-0.534,-0.533 -1.2,-1.067 -1.8,-1.733c-0.534,-0.667 -1.067,-1.4 -1.067,-2.334l0,-0.266c0.067,-1.4 2.067,-3 3.133,-4c0.4,-0.334 0.667,-0.667 0.867,-0.934c0.333,-0.666 1.067,-1.466 1.867,-2.333l2.533,-3.067c0.4,-0.466 0.667,-0.8 0.667,-1c-0,-0.066 -0.067,-0.066 -0.067,-0.133c-0.2,-0.133 -0.467,-0.2 -0.933,-0.267l-1.4,-0.133c-0.267,0 -0.467,-0.067 -0.667,-0.067c-1.333,0 -2.133,0.534 -2.733,1.934c-0.467,0.933 -1,1.733 -1.534,2.4c-0.466,0.733 -1,1.4 -1.4,2.2c-0.866,1.933 -1.733,3 -2.933,3c-0.667,-0 -1.4,-0.6 -1.933,-1.467c-0.467,-0.733 -0.934,-1.6 -1.4,-2.267l-1.467,-2.066c-0.533,-0.734 -1,-1.534 -1.267,-2.2c-0.4,-1 -1.666,-1.6 -3.2,-1.667c-0.666,0 -1.666,0.067 -1.666,0.867c-0,0.466 0.466,1.133 0.666,1.4c0.667,0.733 2.6,3.4 4.667,5.866c1.067,1.2 1.733,1.867 2.2,2.467c0.4,0.667 0.667,1.2 0.667,2.133c-0,1.4 -0.934,2.534 -1.667,3.334l-2.467,2.666c-0.533,0.6 -1.533,1.667 -2.533,2.867l-3.067,3.133c-0.266,0.267 -0.466,0.4 -0.466,0.534c-0,0.066 0.066,0.066 0.2,0.066c0.266,0.067 0.666,0.134 1.133,0.134c0.533,0.066 1.133,0.066 1.733,0.066c1.134,0 1.534,-0.2 1.8,-0.466c0.267,-0.067 0.334,-0.267 0.6,-0.534l0.8,-0.933c0.6,-0.667 1.2,-1.467 1.734,-2.267l0.2,-0.2c0.466,-0.666 0.933,-1.333 1.466,-1.933c0.534,-0.533 0.867,-1.267 1.267,-1.867c0.533,-0.666 1.2,-1.333 2.267,-1.333c1.533,0 2.333,1.667 3,2.867l0.066,0.266c0.267,0.467 0.334,0.734 0.467,0.867c0.667,0.8 2,2.667 3.467,4.867c0.666,1 1.066,1.133 1.4,1.133c0.266,0 0.6,0 0.866,-0.067c0.334,-0.066 0.734,-0.2 1.134,-0.2l0.533,0c0.867,0 1.4,-0.066 1.533,-0.533Z" style="fill-rule:nonzero;"/>
    <path d="M896.433,1956.1c0,-0.533 -0.266,-0.733 -0.8,-0.933c-0.333,-0.067 -0.733,-0.067 -1.133,-0.067c-0.467,0 -0.867,-0.067 -1.333,-0.067l-1.134,-0.133c-0.333,0 -0.6,-0.067 -0.866,-0.133c-0.6,-0.2 -1,-0.667 -1,-1.334c-0,-0.933 -0,-2.533 0.133,-5.133l0,-0.267c0,-1 -0.2,-1.333 -0.4,-1.466c-0.333,-0.267 -1,-0.267 -1.4,-0.267l-0.2,0c-1,0 -1.6,0.8 -1.667,1.2c0,0.067 -0.066,0.2 -0.066,0.267c-0,0.333 0.066,0.866 0.133,1.533c0.133,0.867 0.267,2 0.267,3.133l-0,0.334c-0,1.2 -0.534,1.866 -1.4,2.066c-0.267,0.067 -0.534,0.067 -0.8,0.067c-0.467,0 -1.067,-0.067 -1.534,-0.067c-0.933,0 -1.466,0.6 -1.666,2.6c-0,0.067 -0.067,0.134 -0.067,0.2c0,0.4 0.267,0.534 0.8,0.667c0.333,0.067 0.667,0.067 1,0.067c0.333,-0 0.667,-0.067 0.933,-0.067c1.067,0 2.467,0.8 2.467,2.267c0,1.066 0.2,3.4 0.2,6.4c0,3 -0.4,8.733 -0.4,11.333c0,1.267 0.2,1.6 0.4,1.733l0.533,0.134l1.2,-0c1.667,-0 2.2,-0.2 2.2,-1.067l0,-0.467c-0.2,-1.866 -0.533,-6.666 -0.6,-9.466c-0.066,-0.934 -0.133,-2.067 -0.133,-3.2c0,-2.2 0.133,-4.467 0.2,-5.934c0.067,-1.466 0.933,-2.066 2,-2.133l0.2,0c0.8,0 1.533,0.2 2.333,0.267l0.267,-0c0.867,-0 1.333,-0.467 1.333,-2.067Z" style="fill-rule:nonzero;"/>
    <circle cx="824" cy="2038" r="40" style="fill:#fff;stroke:#000;stroke-width:12.5px;"/>
    <circle cx="864" cy="2038" r="40" style="fill:none;stroke:#000;stroke-width:12.5px;"/>
  </g>
	</a>
</svg>
