<?xml version="1.0" encoding="UTF-8" standalone="no"?>
<!DOCTYPE svg PUBLIC "-//W3C//DTD SVG 1.1//EN" "http://www.w3.org/Graphics/SVG/1.1/DTD/svg11.dtd">
<svg width="100%" height="100%" viewBox="0 0 1800 1800" version="1.1" xmlns="http://www.w3.org/2000/svg" xmlns:xlink="http://www.w3.org/1999/xlink" xml:space="preserve" xmlns:serif="http://www.serif.com/" style="fill-rule:evenodd;clip-rule:evenodd;stroke-linecap:round;stroke-linejoin:round;stroke-miterlimit:1.5;">
    <g transform="matrix(1,0,0,1,-15384,-33)">
        <g id="_8" serif:id="8" transform="matrix(1,0,0,1,15384,33)">
            <rect x="0" y="0" width="1800" height="1800" style="fill:none;"/>
            <clipPath id="_clip1">
                <rect x="0" y="0" width="1800" height="1800"/>
            </clipPath>
            <g clip-path="url(#_clip1)">
                <rect x="3.144" y="0" width="1793.71" height="1796.87" style="fill:white;stroke:white;stroke-width:5px;"/>
                <g id="Meta-Ring-and-Background" serif:id="Meta-Ring and Background">
                    <g transform="matrix(0.975658,0.219299,-0.219299,0.975658,219.277,-175.461)">
                        <g transform="matrix(1,0,0,1,-2210.55,0)">
                            <path d="M2655,682L2619,664" style="fill:none;stroke:rgb(179,179,179);stroke-width:5.83px;"/>
                        </g>
                        <g transform="matrix(1,0,0,1,-2210.55,0)">
                            <path d="M3456,1329L3434,1302" style="fill:none;stroke:rgb(179,179,179);stroke-width:5.83px;"/>
                        </g>
                        <g transform="matrix(1,0,0,1,-2214.55,5)">
                            <path d="M3457,472L3435,498" style="fill:none;stroke:rgb(179,179,179);stroke-width:5.83px;"/>
                        </g>
                        <g transform="matrix(1,0,0,1,-2210.55,0)">
                            <path d="M2992,366L3000,401" style="fill:none;stroke:rgb(179,179,179);stroke-width:5.83px;"/>
                        </g>
                        <g transform="matrix(0.8,0,0,0.863636,-1612.15,195.818)">
                            <path d="M3002,1392L2992,1436" style="fill:none;stroke:rgb(179,179,179);stroke-width:7.01px;"/>
                        </g>
                        <g transform="matrix(1.12903,0,0,1.06667,-2548.1,-75.8667)">
                            <path d="M2647,1123L2616,1138" style="fill:none;stroke:rgb(179,179,179);stroke-width:5.31px;"/>
                        </g>
                        <g transform="matrix(-6.7241e-17,1.09811,-0.79838,-4.88857e-17,1868.52,58.3011)">
                            <path d="M768,524.038L768,568" style="fill:none;stroke:rgb(179,179,179);stroke-width:6.08px;"/>
                        </g>
                    </g>
                    <g transform="matrix(-0.8125,0.881474,-0.889196,-0.819588,2393.06,1149.16)">
                        <ellipse cx="692" cy="1046" rx="458" ry="454" style="fill:none;stroke:rgb(179,179,179);stroke-width:5.54px;"/>
                    </g>
                </g>
                <g id="Child-Rings" serif:id="Child Rings">
                    <g id="_6" serif:id="6" transform="matrix(0.232458,0,0,0.232458,153.001,814.671)">
                        <g id="Ring-and-Background" serif:id="Ring and Background">
                            <g transform="matrix(4.97405,0,0,4.97405,-3617.94,-952.181)">
                                <ellipse cx="908.472" cy="372.741" rx="135.237" ry="135.134" style="fill:white;stroke:white;stroke-width:5.77px;"/>
                            </g>
                            <g transform="matrix(-0.8125,0.881474,-0.889196,-0.819588,2393.06,1149.16)">
                                <ellipse cx="692" cy="1046" rx="458" ry="454" style="fill:none;stroke:black;stroke-width:17.86px;"/>
                            </g>
                            <g transform="matrix(0.954174,0.21447,-0.21447,0.954174,234.859,-151.624)">
                                <g transform="matrix(1,0,0,1,-2210.55,0)">
                                    <path d="M2655,682L2619,664" style="fill:none;stroke:black;stroke-width:29.32px;"/>
                                </g>
                                <g transform="matrix(1,0,0,1,-2210.55,0)">
                                    <path d="M3456,1329L3434,1302" style="fill:none;stroke:black;stroke-width:29.32px;"/>
                                </g>
                                <g transform="matrix(1,0,0,1,-2214.55,5)">
                                    <path d="M3457,472L3435,498" style="fill:none;stroke:black;stroke-width:29.32px;"/>
                                </g>
                                <g transform="matrix(1,0,0,1,-2210.55,0)">
                                    <path d="M2992,366L3000,401" style="fill:none;stroke:black;stroke-width:29.32px;"/>
                                </g>
                                <g transform="matrix(0.8,0,0,0.863636,-1612.15,195.818)">
                                    <path d="M3002,1392L2992,1436" style="fill:none;stroke:black;stroke-width:35.23px;"/>
                                </g>
                                <g transform="matrix(1.12903,0,0,1.06667,-2548.1,-75.8667)">
                                    <path d="M2647,1123L2616,1138" style="fill:none;stroke:black;stroke-width:26.7px;"/>
                                </g>
                                <g transform="matrix(-6.7241e-17,1.09811,-0.79838,-4.88857e-17,1868.52,58.3011)">
                                    <path d="M768,524.038L768,568" style="fill:none;stroke:black;stroke-width:30.55px;"/>
                                </g>
                            </g>
                        </g>
                        <g id="Notes" transform="matrix(0.975658,0.219299,-0.219299,0.975658,219.277,-175.461)">
                            <g id="_61" serif:id="6" transform="matrix(-1.39762,2.4207,-2.45799,-1.41909,2766.78,25.705)">
                                <ellipse cx="766" cy="526.5" rx="33" ry="32.5" style="fill:rgb(255,0,0);stroke:white;stroke-width:8.91px;"/>
                            </g>
                            <g id="_3" serif:id="3" transform="matrix(-1.39762,2.4207,-2.45799,-1.41909,3808.93,-206.38)">
                                <ellipse cx="766" cy="526.5" rx="33" ry="32.5" style="fill:rgb(255,0,0);stroke:white;stroke-width:8.91px;"/>
                            </g>
                            <g id="_2" serif:id="2" transform="matrix(-1.39762,2.4207,-2.45799,-1.41909,3608.29,-630.507)">
                                <ellipse cx="766" cy="526.5" rx="33" ry="32.5" style="fill:rgb(255,0,0);stroke:white;stroke-width:8.91px;"/>
                            </g>
                        </g>
                    </g>
					<a xlink:href="PRE-1.svg">
                    <g id="_31" serif:id="3" transform="matrix(0.232458,0,0,0.232458,1219.68,813.262)">
                        <g id="Ring-and-Background1" serif:id="Ring and Background">
                            <g transform="matrix(4.97405,0,0,4.97405,-3617.94,-952.181)">
                                <ellipse cx="908.472" cy="372.741" rx="135.237" ry="135.134" style="fill:white;stroke:white;stroke-width:5.77px;"/>
                            </g>
                            <g transform="matrix(-0.8125,0.881474,-0.889196,-0.819588,2393.06,1149.16)">
                                <ellipse cx="692" cy="1046" rx="458" ry="454" style="fill:none;stroke:black;stroke-width:17.86px;"/>
                            </g>
                            <g transform="matrix(0.954174,0.21447,-0.21447,0.954174,234.859,-151.624)">
                                <g transform="matrix(1,0,0,1,-2210.55,0)">
                                    <path d="M2655,682L2619,664" style="fill:none;stroke:black;stroke-width:29.32px;"/>
                                </g>
                                <g transform="matrix(1,0,0,1,-2210.55,0)">
                                    <path d="M3456,1329L3434,1302" style="fill:none;stroke:black;stroke-width:29.32px;"/>
                                </g>
                                <g transform="matrix(1,0,0,1,-2214.55,5)">
                                    <path d="M3457,472L3435,498" style="fill:none;stroke:black;stroke-width:29.32px;"/>
                                </g>
                                <g transform="matrix(1,0,0,1,-2210.55,0)">
                                    <path d="M2992,366L3000,401" style="fill:none;stroke:black;stroke-width:29.32px;"/>
                                </g>
                                <g transform="matrix(0.8,0,0,0.863636,-1612.15,195.818)">
                                    <path d="M3002,1392L2992,1436" style="fill:none;stroke:black;stroke-width:35.23px;"/>
                                </g>
                                <g transform="matrix(1.12903,0,0,1.06667,-2548.1,-75.8667)">
                                    <path d="M2647,1123L2616,1138" style="fill:none;stroke:black;stroke-width:26.7px;"/>
                                </g>
                                <g transform="matrix(-6.7241e-17,1.09811,-0.79838,-4.88857e-17,1868.52,58.3011)">
                                    <path d="M768,524.038L768,568" style="fill:none;stroke:black;stroke-width:30.55px;"/>
                                </g>
                            </g>
                        </g>
                        <g id="Notes1" serif:id="Notes" transform="matrix(0.975658,0.219299,-0.219299,0.975658,219.277,-175.461)">
                            <g id="_5" serif:id="5" transform="matrix(-1.39762,2.4207,-2.45799,-1.41909,3147.61,324.305)">
                                <ellipse cx="766" cy="526.5" rx="33" ry="32.5" style="fill:rgb(133,0,255);stroke:white;stroke-width:8.91px;"/>
                            </g>
                            <g id="_32" serif:id="3" transform="matrix(-1.39762,2.4207,-2.45799,-1.41909,3808.93,-206.38)">
                                <ellipse cx="766" cy="526.5" rx="33" ry="32.5" style="fill:rgb(133,0,255);stroke:white;stroke-width:8.91px;"/>
                            </g>
                            <g id="_1" serif:id="1" transform="matrix(-1.39762,2.4207,-2.45799,-1.41909,3147.43,-731.918)">
                                <ellipse cx="766" cy="526.5" rx="33" ry="32.5" style="fill:rgb(133,0,255);stroke:white;stroke-width:9.19px;"/>
                            </g>
                        </g>
                    </g>
					</a>
					<a xlink:href="PRE-5.svg">
                    <g id="_21" serif:id="2" transform="matrix(0.232458,0,0,0.232458,1105.59,365.235)">
                        <g>
                            <g transform="matrix(4.97405,0,0,4.97405,-3617.94,-952.181)">
                                <ellipse cx="908.472" cy="372.741" rx="135.237" ry="135.134" style="fill:white;stroke:white;stroke-width:5.77px;"/>
                            </g>
                            <g transform="matrix(-0.8125,0.881474,-0.889196,-0.819588,2393.06,1149.16)">
                                <ellipse cx="692" cy="1046" rx="458" ry="454" style="fill:none;stroke:black;stroke-width:17.86px;"/>
                            </g>
                            <g transform="matrix(0.954174,0.21447,-0.21447,0.954174,234.859,-151.624)">
                                <g transform="matrix(1,0,0,1,-2210.55,0)">
                                    <path d="M2655,682L2619,664" style="fill:none;stroke:black;stroke-width:29.32px;"/>
                                </g>
                                <g transform="matrix(1,0,0,1,-2210.55,0)">
                                    <path d="M3456,1329L3434,1302" style="fill:none;stroke:black;stroke-width:29.32px;"/>
                                </g>
                                <g transform="matrix(1,0,0,1,-2214.55,5)">
                                    <path d="M3457,472L3435,498" style="fill:none;stroke:black;stroke-width:29.32px;"/>
                                </g>
                                <g transform="matrix(1,0,0,1,-2210.55,0)">
                                    <path d="M2992,366L3000,401" style="fill:none;stroke:black;stroke-width:29.32px;"/>
                                </g>
                                <g transform="matrix(0.8,0,0,0.863636,-1612.15,195.818)">
                                    <path d="M3002,1392L2992,1436" style="fill:none;stroke:black;stroke-width:35.23px;"/>
                                </g>
                                <g transform="matrix(1.12903,0,0,1.06667,-2548.1,-75.8667)">
                                    <path d="M2647,1123L2616,1138" style="fill:none;stroke:black;stroke-width:26.7px;"/>
                                </g>
                                <g transform="matrix(-6.7241e-17,1.09811,-0.79838,-4.88857e-17,1868.52,58.3011)">
                                    <path d="M768,524.038L768,568" style="fill:none;stroke:black;stroke-width:30.55px;"/>
                                </g>
                            </g>
                        </g>
                        <g id="Notes2" serif:id="Notes" transform="matrix(0.975658,0.219299,-0.219299,0.975658,219.277,-175.461)">
                            <g id="_62" serif:id="6" transform="matrix(-1.39762,2.4207,-2.45799,-1.41909,2766.78,25.705)">
                                <ellipse cx="766" cy="526.5" rx="33" ry="32.5" style="fill:rgb(133,0,255);stroke:white;stroke-width:8.91px;"/>
                            </g>
                            <g id="_4" serif:id="4" transform="matrix(-1.39762,2.4207,-2.45799,-1.41909,3610.24,220.057)">
                                <ellipse cx="766" cy="526.5" rx="33" ry="32.5" style="fill:rgb(133,0,255);stroke:white;stroke-width:8.91px;"/>
                            </g>
                            <g id="_33" serif:id="3" transform="matrix(-1.39762,2.4207,-2.45799,-1.41909,3808.93,-206.38)">
                                <ellipse cx="766" cy="526.5" rx="33" ry="32.5" style="fill:rgb(133,0,255);stroke:white;stroke-width:8.91px;"/>
                            </g>
                            <g id="_11" serif:id="1" transform="matrix(-1.39762,2.4207,-2.45799,-1.41909,3147.43,-731.918)">
                                <ellipse cx="766" cy="526.5" rx="33" ry="32.5" style="fill:rgb(133,0,255);stroke:white;stroke-width:9.19px;"/>
                            </g>
                        </g>
                    </g>
					</a>
                </g>
                <g transform="matrix(1,0,0,1,-15384,-33)">
                    <path d="M15898,1084.79C16680,868 17011.4,821.645 16851,649C17011.4,776.777 17014.2,883.17 16954,1055.9C17034,735 16618,899 15898,1084.79Z" style="fill:none;stroke:black;stroke-width:6.67px;"/>
                </g>
                <g transform="matrix(1,0,0,1,-15384,-33)">
                    <path d="M15600,1055.9C15581,858 15855,697 16543,635.355" style="fill:none;stroke:black;stroke-width:6.67px;"/>
                </g>
            </g>
        </g>
    </g>
</svg>
