<?xml version="1.0" encoding="UTF-8" standalone="no"?>
<!DOCTYPE svg PUBLIC "-//W3C//DTD SVG 1.1//EN" "http://www.w3.org/Graphics/SVG/1.1/DTD/svg11.dtd">
<svg width="100%" height="100%" viewBox="0 0 1800 1800" version="1.1" xmlns="http://www.w3.org/2000/svg" xmlns:xlink="http://www.w3.org/1999/xlink" xml:space="preserve" xmlns:serif="http://www.serif.com/" style="fill-rule:evenodd;clip-rule:evenodd;stroke-linejoin:round;stroke-miterlimit:2;">
    <g transform="matrix(1,0,0,1,0,-4238)">
        <g id="A-resting" transform="matrix(1,0,0,1,0,4238)">
            <rect x="0" y="0" width="1800" height="1800" style="fill:none;"/>
			<a href="A-.svg">
            <g id="return-to-A-minor" serif:id="return to A minor" transform="matrix(0.509259,0,0,0.509259,38.0385,835)">
                <g transform="matrix(0.505051,0,0,0.508187,-9.09091,885.263)">
                    <path d="M1800,170.68l0,1487.64c0,78.195 -63.879,141.68 -142.56,141.68l-1496.88,0c-78.681,0 -142.56,-63.485 -142.56,-141.68l0,-1487.64c0,-78.195 63.879,-141.68 142.56,-141.68l1496.88,-0c78.681,-0 142.56,63.485 142.56,141.68Z" style="fill:#3a53a4;"/>
                </g>
                <g id="votemagnet" class="votemagnet" transform="matrix(1.8315,0,0,1.90198,-12558.2,-2227.61)">
                    <ellipse cx="7102.5" cy="1790" rx="94.5" ry="90.998" style="fill:#3a53a4;"/>
                </g>
                <g transform="matrix(0.593251,0,0,0.593251,-83.3789,1366.11)">
                    <g transform="matrix(250,0,0,250,478.301,245.241)">
                        <path d="M0.062,-0.519l0.186,0l0,0.085c0.018,-0.036 0.036,-0.062 0.055,-0.076c0.02,-0.013 0.043,-0.02 0.071,-0.02c0.029,-0 0.061,0.009 0.096,0.027l-0.061,0.142c-0.024,-0.01 -0.042,-0.015 -0.056,-0.015c-0.026,0 -0.046,0.011 -0.061,0.032c-0.02,0.031 -0.03,0.087 -0.03,0.17l-0,0.174l-0.2,-0l0,-0.519Z" style="fill:#fff;fill-rule:nonzero;"/>
                    </g>
                    <g transform="matrix(250,0,0,250,593.291,245.241)">
                        <path d="M0.636,-0.21l-0.399,0c0.004,0.032 0.013,0.056 0.026,0.071c0.019,0.023 0.044,0.034 0.075,0.034c0.02,0 0.038,-0.005 0.056,-0.015c0.011,-0.006 0.022,-0.017 0.035,-0.032l0.196,0.018c-0.03,0.052 -0.067,0.089 -0.109,0.112c-0.042,0.022 -0.103,0.034 -0.182,0.034c-0.069,-0 -0.123,-0.01 -0.162,-0.029c-0.04,-0.02 -0.072,-0.05 -0.098,-0.093c-0.026,-0.042 -0.039,-0.091 -0.039,-0.148c0,-0.081 0.026,-0.147 0.078,-0.197c0.052,-0.05 0.124,-0.075 0.215,-0.075c0.074,-0 0.133,0.011 0.176,0.033c0.043,0.023 0.076,0.055 0.098,0.098c0.023,0.043 0.034,0.098 0.034,0.167l-0,0.022Zm-0.202,-0.095c-0.004,-0.039 -0.015,-0.066 -0.031,-0.083c-0.017,-0.016 -0.039,-0.025 -0.067,-0.025c-0.031,0 -0.056,0.013 -0.075,0.038c-0.012,0.016 -0.02,0.039 -0.023,0.07l0.196,-0Z" style="fill:#fff;fill-rule:nonzero;"/>
                    </g>
                    <g transform="matrix(250,0,0,250,760.039,245.241)">
                        <path d="M0.3,-0.716l-0,0.197l0.109,0l0,0.145l-0.109,0l-0,0.185c-0,0.022 0.002,0.036 0.006,0.043c0.007,0.012 0.018,0.017 0.034,0.017c0.015,0 0.035,-0.004 0.062,-0.013l0.015,0.138c-0.05,0.01 -0.096,0.016 -0.138,0.016c-0.05,-0 -0.086,-0.007 -0.11,-0.019c-0.023,-0.013 -0.04,-0.032 -0.052,-0.058c-0.011,-0.026 -0.016,-0.068 -0.016,-0.126l-0,-0.183l-0.074,0l0,-0.145l0.074,0l-0,-0.095l0.199,-0.102Z" style="fill:#fff;fill-rule:nonzero;"/>
                    </g>
                    <g transform="matrix(250,0,0,250,871.001,245.241)">
                        <path d="M0.606,-0l-0.185,-0l-0,-0.084c-0.028,0.035 -0.056,0.059 -0.084,0.074c-0.028,0.014 -0.063,0.022 -0.104,0.022c-0.054,-0 -0.097,-0.017 -0.128,-0.049c-0.031,-0.033 -0.047,-0.083 -0.047,-0.151l0,-0.331l0.2,0l-0,0.286c-0,0.032 0.006,0.055 0.018,0.069c0.012,0.014 0.029,0.02 0.051,0.02c0.023,0 0.043,-0.009 0.058,-0.027c0.015,-0.018 0.023,-0.051 0.023,-0.098l-0,-0.25l0.198,0l0,0.519Z" style="fill:#fff;fill-rule:nonzero;"/>
                    </g>
                    <g transform="matrix(250,0,0,250,1037.75,245.241)">
                        <path d="M0.062,-0.519l0.186,0l0,0.085c0.018,-0.036 0.036,-0.062 0.055,-0.076c0.02,-0.013 0.043,-0.02 0.071,-0.02c0.029,-0 0.061,0.009 0.096,0.027l-0.061,0.142c-0.024,-0.01 -0.042,-0.015 -0.056,-0.015c-0.026,0 -0.046,0.011 -0.061,0.032c-0.02,0.031 -0.03,0.087 -0.03,0.17l-0,0.174l-0.2,-0l0,-0.519Z" style="fill:#fff;fill-rule:nonzero;"/>
                    </g>
                    <g transform="matrix(250,0,0,250,1161.16,245.241)">
                        <path d="M0.06,-0.519l0.185,0l0,0.085c0.028,-0.035 0.056,-0.059 0.084,-0.074c0.028,-0.015 0.063,-0.022 0.104,-0.022c0.055,-0 0.098,0.016 0.129,0.049c0.031,0.033 0.046,0.083 0.046,0.151l0,0.33l-0.199,0l-0,-0.285c-0,-0.033 -0.006,-0.056 -0.018,-0.069c-0.012,-0.014 -0.029,-0.021 -0.051,-0.021c-0.024,0 -0.044,0.01 -0.059,0.028c-0.015,0.018 -0.022,0.051 -0.022,0.098l-0,0.249l-0.199,0l0,-0.519Z" style="fill:#fff;fill-rule:nonzero;"/>
                    </g>
                    <g transform="matrix(250,0,0,250,229.461,495.241)">
                        <path d="M0.3,-0.716l-0,0.197l0.109,0l0,0.145l-0.109,0l-0,0.185c-0,0.022 0.002,0.036 0.006,0.043c0.007,0.012 0.018,0.017 0.034,0.017c0.015,0 0.035,-0.004 0.062,-0.013l0.015,0.138c-0.05,0.01 -0.096,0.016 -0.138,0.016c-0.05,-0 -0.086,-0.007 -0.11,-0.019c-0.023,-0.013 -0.04,-0.032 -0.052,-0.058c-0.011,-0.026 -0.016,-0.068 -0.016,-0.126l-0,-0.183l-0.074,0l0,-0.145l0.074,0l-0,-0.095l0.199,-0.102Z" style="fill:#fff;fill-rule:nonzero;"/>
                    </g>
                    <g transform="matrix(250,0,0,250,340.423,495.241)">
                        <path d="M0.036,-0.258c-0,-0.079 0.026,-0.144 0.08,-0.195c0.053,-0.052 0.125,-0.077 0.216,-0.077c0.104,-0 0.182,0.03 0.235,0.09c0.043,0.049 0.064,0.108 0.064,0.179c0,0.08 -0.026,0.145 -0.079,0.196c-0.053,0.051 -0.126,0.077 -0.219,0.077c-0.084,-0 -0.151,-0.021 -0.203,-0.064c-0.063,-0.052 -0.094,-0.121 -0.094,-0.206Zm0.199,-0c-0,0.046 0.009,0.08 0.028,0.102c0.019,0.022 0.042,0.033 0.07,0.033c0.029,0 0.053,-0.01 0.071,-0.032c0.018,-0.022 0.028,-0.057 0.028,-0.105c-0,-0.045 -0.01,-0.079 -0.028,-0.101c-0.019,-0.022 -0.042,-0.033 -0.069,-0.033c-0.029,0 -0.053,0.012 -0.072,0.034c-0.019,0.022 -0.028,0.056 -0.028,0.102Z" style="fill:#fff;fill-rule:nonzero;"/>
                    </g>
                    <g transform="matrix(250,0,0,250,590.545,495.241)">
                        <path d="M0.061,0.197l0,-0.716l0.186,0l0,0.077c0.026,-0.032 0.049,-0.054 0.071,-0.065c0.029,-0.016 0.061,-0.023 0.096,-0.023c0.069,-0 0.123,0.026 0.161,0.079c0.038,0.053 0.057,0.119 0.057,0.197c-0,0.086 -0.021,0.152 -0.062,0.198c-0.042,0.045 -0.094,0.068 -0.157,0.068c-0.031,-0 -0.058,-0.005 -0.084,-0.016c-0.025,-0.01 -0.047,-0.026 -0.067,-0.046l-0,0.247l-0.201,0Zm0.199,-0.455c0,0.041 0.009,0.072 0.026,0.091c0.017,0.02 0.039,0.03 0.066,0.03c0.023,0 0.042,-0.009 0.058,-0.028c0.015,-0.019 0.023,-0.052 0.023,-0.097c0,-0.042 -0.008,-0.073 -0.024,-0.093c-0.017,-0.019 -0.036,-0.029 -0.06,-0.029c-0.025,-0 -0.046,0.01 -0.063,0.03c-0.017,0.019 -0.026,0.052 -0.026,0.096Z" style="fill:#fff;fill-rule:nonzero;"/>
                    </g>
                    <g transform="matrix(250,0,0,250,757.293,495.241)">
                        <rect x="0.067" y="-0.716" width="0.199" height="0.716" style="fill:#fff;fill-rule:nonzero;"/>
                    </g>
                    <g transform="matrix(250,0,0,250,840.545,495.241)">
                        <path d="M0.241,-0.351l-0.19,-0.02c0.007,-0.033 0.018,-0.059 0.031,-0.078c0.014,-0.019 0.033,-0.036 0.059,-0.05c0.018,-0.01 0.043,-0.017 0.075,-0.023c0.032,-0.006 0.066,-0.008 0.103,-0.008c0.06,-0 0.108,0.003 0.144,0.01c0.036,0.006 0.066,0.02 0.09,0.041c0.017,0.015 0.03,0.036 0.04,0.063c0.01,0.027 0.015,0.052 0.015,0.077l-0,0.229c-0,0.024 0.001,0.043 0.005,0.057c0.003,0.014 0.009,0.032 0.02,0.053l-0.187,0c-0.007,-0.013 -0.012,-0.024 -0.014,-0.031c-0.003,-0.007 -0.005,-0.018 -0.007,-0.032c-0.026,0.025 -0.052,0.042 -0.078,0.053c-0.035,0.015 -0.076,0.022 -0.122,0.022c-0.062,-0 -0.109,-0.015 -0.141,-0.043c-0.032,-0.029 -0.048,-0.064 -0.048,-0.106c-0,-0.04 0.011,-0.072 0.034,-0.097c0.023,-0.026 0.066,-0.045 0.128,-0.057c0.075,-0.015 0.123,-0.025 0.145,-0.032c0.022,-0.006 0.046,-0.013 0.071,-0.023c-0,-0.025 -0.005,-0.042 -0.016,-0.051c-0.01,-0.01 -0.027,-0.015 -0.053,-0.015c-0.032,-0 -0.057,0.005 -0.073,0.016c-0.013,0.008 -0.023,0.023 -0.031,0.045Zm0.173,0.105c-0.028,0.01 -0.056,0.018 -0.086,0.026c-0.04,0.011 -0.066,0.021 -0.077,0.032c-0.011,0.01 -0.016,0.022 -0.016,0.036c-0,0.016 0.005,0.029 0.016,0.038c0.011,0.01 0.027,0.015 0.048,0.015c0.022,0 0.043,-0.005 0.062,-0.016c0.019,-0.01 0.033,-0.024 0.041,-0.039c0.008,-0.016 0.012,-0.036 0.012,-0.06l-0,-0.032Z" style="fill:#fff;fill-rule:nonzero;"/>
                    </g>
                    <g transform="matrix(250,0,0,250,1007.29,495.241)">
                        <path d="M0.002,-0.519l0.21,0l0.107,0.346l0.099,-0.346l0.196,0l-0.205,0.555c-0.024,0.063 -0.048,0.105 -0.072,0.128c-0.035,0.031 -0.087,0.046 -0.158,0.046c-0.028,0 -0.073,-0.003 -0.133,-0.011l-0.015,-0.139c0.028,0.009 0.06,0.014 0.095,0.014c0.024,-0 0.043,-0.006 0.057,-0.016c0.015,-0.011 0.027,-0.03 0.037,-0.058l-0.218,-0.519Z" style="fill:#fff;fill-rule:nonzero;"/>
                    </g>
                    <g transform="matrix(250,0,0,250,1160,495.241)">
                        <path d="M0.067,-0.716l0.199,0l0,0.135l-0.199,0l0,-0.135Zm0,0.197l0.199,0l0,0.519l-0.199,-0l0,-0.519Z" style="fill:#fff;fill-rule:nonzero;"/>
                    </g>
                    <g transform="matrix(250,0,0,250,1243.25,495.241)">
                        <path d="M0.06,-0.519l0.185,0l0,0.085c0.028,-0.035 0.056,-0.059 0.084,-0.074c0.028,-0.015 0.063,-0.022 0.104,-0.022c0.055,-0 0.098,0.016 0.129,0.049c0.031,0.033 0.046,0.083 0.046,0.151l0,0.33l-0.199,0l-0,-0.285c-0,-0.033 -0.006,-0.056 -0.018,-0.069c-0.012,-0.014 -0.029,-0.021 -0.051,-0.021c-0.024,0 -0.044,0.01 -0.059,0.028c-0.015,0.018 -0.022,0.051 -0.022,0.098l-0,0.249l-0.199,0l0,-0.519Z" style="fill:#fff;fill-rule:nonzero;"/>
                    </g>
                    <g transform="matrix(250,0,0,250,1410,495.241)">
                        <path d="M0.421,-0.519l0.186,0l-0,0.49l0,0.023c0,0.033 -0.006,0.064 -0.02,0.093c-0.014,0.03 -0.033,0.053 -0.056,0.072c-0.022,0.018 -0.052,0.031 -0.087,0.039c-0.035,0.008 -0.076,0.012 -0.121,0.012c-0.104,0 -0.176,-0.015 -0.215,-0.046c-0.039,-0.032 -0.058,-0.074 -0.058,-0.126c-0,-0.006 0,-0.015 0.001,-0.026l0.193,0.022c0.005,0.018 0.012,0.03 0.022,0.037c0.015,0.01 0.033,0.015 0.055,0.015c0.029,-0 0.05,-0.008 0.064,-0.023c0.015,-0.015 0.022,-0.042 0.022,-0.08l-0,-0.079c-0.02,0.023 -0.039,0.04 -0.059,0.051c-0.03,0.016 -0.063,0.024 -0.099,0.024c-0.069,0 -0.125,-0.03 -0.168,-0.091c-0.03,-0.043 -0.045,-0.1 -0.045,-0.17c-0,-0.081 0.019,-0.142 0.058,-0.185c0.039,-0.042 0.09,-0.063 0.154,-0.063c0.04,-0 0.073,0.007 0.099,0.02c0.027,0.014 0.051,0.037 0.074,0.068l-0,-0.077Zm-0.187,0.252c-0,0.037 0.008,0.065 0.024,0.083c0.016,0.018 0.037,0.027 0.063,0.027c0.025,0 0.045,-0.009 0.062,-0.028c0.017,-0.019 0.025,-0.047 0.025,-0.085c0,-0.037 -0.009,-0.066 -0.026,-0.086c-0.018,-0.02 -0.039,-0.03 -0.065,-0.03c-0.025,-0 -0.045,0.009 -0.06,0.027c-0.016,0.019 -0.023,0.049 -0.023,0.092Z" style="fill:#fff;fill-rule:nonzero;"/>
                    </g>
                </g>
            </g>
			</a>
            <g id="rest" transform="matrix(0.962963,0,0,0.962963,33.3333,88.6667)">
                <g transform="matrix(1.0101,0,0,0.51962,-18.528,250.258)">
                    <path d="M1800,170.68l0,1487.64c0,78.195 -32.658,141.68 -72.884,141.68l-1636.23,0c-40.226,0 -72.884,-63.485 -72.884,-141.68l-0,-1487.64c-0,-78.195 32.658,-141.68 72.884,-141.68l1636.23,-0c40.226,-0 72.884,63.485 72.884,141.68Z" style="fill:#3a53a4;"/>
                </g>
                <g transform="matrix(1,0,0,1,393.501,568.161)">
                    <g transform="matrix(250,0,0,250,229.461,245.241)">
                        <path d="M0.062,-0.519l0.186,0l0,0.085c0.018,-0.036 0.036,-0.062 0.055,-0.076c0.02,-0.013 0.043,-0.02 0.071,-0.02c0.029,-0 0.061,0.009 0.096,0.027l-0.061,0.142c-0.024,-0.01 -0.042,-0.015 -0.056,-0.015c-0.026,0 -0.046,0.011 -0.061,0.032c-0.02,0.031 -0.03,0.087 -0.03,0.17l-0,0.174l-0.2,-0l0,-0.519Z" style="fill:#fff;fill-rule:nonzero;"/>
                    </g>
                    <g transform="matrix(250,0,0,250,344.451,245.241)">
                        <path d="M0.636,-0.21l-0.399,0c0.004,0.032 0.013,0.056 0.026,0.071c0.019,0.023 0.044,0.034 0.075,0.034c0.02,0 0.038,-0.005 0.056,-0.015c0.011,-0.006 0.022,-0.017 0.035,-0.032l0.196,0.018c-0.03,0.052 -0.067,0.089 -0.109,0.112c-0.042,0.022 -0.103,0.034 -0.182,0.034c-0.069,-0 -0.123,-0.01 -0.162,-0.029c-0.04,-0.02 -0.072,-0.05 -0.098,-0.093c-0.026,-0.042 -0.039,-0.091 -0.039,-0.148c0,-0.081 0.026,-0.147 0.078,-0.197c0.052,-0.05 0.124,-0.075 0.215,-0.075c0.074,-0 0.133,0.011 0.176,0.033c0.043,0.023 0.076,0.055 0.098,0.098c0.023,0.043 0.034,0.098 0.034,0.167l-0,0.022Zm-0.202,-0.095c-0.004,-0.039 -0.015,-0.066 -0.031,-0.083c-0.017,-0.016 -0.039,-0.025 -0.067,-0.025c-0.031,0 -0.056,0.013 -0.075,0.038c-0.012,0.016 -0.02,0.039 -0.023,0.07l0.196,-0Z" style="fill:#fff;fill-rule:nonzero;"/>
                    </g>
                    <g transform="matrix(250,0,0,250,511.199,245.241)">
                        <path d="M0.025,-0.144l0.197,-0.018c0.008,0.023 0.02,0.04 0.034,0.05c0.015,0.01 0.035,0.015 0.059,0.015c0.027,0 0.047,-0.005 0.062,-0.017c0.011,-0.008 0.017,-0.019 0.017,-0.032c0,-0.014 -0.007,-0.025 -0.022,-0.033c-0.011,-0.005 -0.04,-0.012 -0.086,-0.02c-0.069,-0.012 -0.117,-0.023 -0.144,-0.034c-0.027,-0.01 -0.049,-0.027 -0.068,-0.052c-0.018,-0.024 -0.027,-0.052 -0.027,-0.083c-0,-0.034 0.01,-0.064 0.03,-0.089c0.02,-0.024 0.047,-0.043 0.082,-0.055c0.035,-0.012 0.081,-0.018 0.14,-0.018c0.062,-0 0.107,0.004 0.137,0.014c0.029,0.009 0.054,0.024 0.074,0.044c0.019,0.02 0.036,0.047 0.049,0.08l-0.189,0.019c-0.005,-0.017 -0.013,-0.029 -0.024,-0.037c-0.016,-0.01 -0.035,-0.015 -0.057,-0.015c-0.022,-0 -0.039,0.004 -0.049,0.012c-0.01,0.008 -0.015,0.017 -0.015,0.029c-0,0.012 0.006,0.022 0.019,0.029c0.013,0.006 0.041,0.012 0.085,0.017c0.066,0.008 0.115,0.018 0.148,0.031c0.032,0.014 0.056,0.033 0.074,0.057c0.017,0.025 0.025,0.052 0.025,0.082c0,0.03 -0.009,0.059 -0.027,0.087c-0.018,0.029 -0.046,0.051 -0.085,0.068c-0.039,0.017 -0.092,0.025 -0.159,0.025c-0.095,0 -0.163,-0.013 -0.203,-0.04c-0.04,-0.027 -0.066,-0.066 -0.077,-0.116Z" style="fill:#fff;fill-rule:nonzero;"/>
                    </g>
                    <g transform="matrix(250,0,0,250,663.909,245.241)">
                        <path d="M0.3,-0.716l-0,0.197l0.109,0l0,0.145l-0.109,0l-0,0.185c-0,0.022 0.002,0.036 0.006,0.043c0.007,0.012 0.018,0.017 0.034,0.017c0.015,0 0.035,-0.004 0.062,-0.013l0.015,0.138c-0.05,0.01 -0.096,0.016 -0.138,0.016c-0.05,-0 -0.086,-0.007 -0.11,-0.019c-0.023,-0.013 -0.04,-0.032 -0.052,-0.058c-0.011,-0.026 -0.016,-0.068 -0.016,-0.126l-0,-0.183l-0.074,0l0,-0.145l0.074,0l-0,-0.095l0.199,-0.102Z" style="fill:#fff;fill-rule:nonzero;"/>
                    </g>
                </g>
            </g>
			<a href="the-end.svg">
            <g id="vote-to-end" serif:id="vote to end" transform="matrix(0.253333,0,0,0.509259,1538,834.833)">
                <g transform="matrix(0.505051,0,0,0.508187,-9.09091,885.263)">
                    <path d="M1800,161.149l0,1506.7c0,72.935 -119.773,132.149 -267.3,132.149l-1247.4,0c-147.527,0 -267.3,-59.214 -267.3,-132.149l0,-1506.7c0,-72.935 119.773,-132.149 267.3,-132.149l1247.4,-0c147.527,-0 267.3,59.214 267.3,132.149Z" style="fill:#3a53a4;"/>
                </g>
                <g transform="matrix(1.23253,0,0,0.613126,-137.111,1509.87)">
                    <g transform="matrix(250,0,0,250,229.461,245.241)">
                        <path d="M0.636,-0.21l-0.399,0c0.004,0.032 0.013,0.056 0.026,0.071c0.019,0.023 0.044,0.034 0.075,0.034c0.02,0 0.038,-0.005 0.056,-0.015c0.011,-0.006 0.022,-0.017 0.035,-0.032l0.196,0.018c-0.03,0.052 -0.067,0.089 -0.109,0.112c-0.042,0.022 -0.103,0.034 -0.182,0.034c-0.069,-0 -0.123,-0.01 -0.162,-0.029c-0.04,-0.02 -0.072,-0.05 -0.098,-0.093c-0.026,-0.042 -0.039,-0.091 -0.039,-0.148c0,-0.081 0.026,-0.147 0.078,-0.197c0.052,-0.05 0.124,-0.075 0.215,-0.075c0.074,-0 0.133,0.011 0.176,0.033c0.043,0.023 0.076,0.055 0.098,0.098c0.023,0.043 0.034,0.098 0.034,0.167l-0,0.022Zm-0.202,-0.095c-0.004,-0.039 -0.015,-0.066 -0.031,-0.083c-0.017,-0.016 -0.039,-0.025 -0.067,-0.025c-0.031,0 -0.056,0.013 -0.075,0.038c-0.012,0.016 -0.02,0.039 -0.023,0.07l0.196,-0Z" style="fill:#fff;fill-rule:nonzero;"/>
                    </g>
                    <g transform="matrix(250,0,0,250,396.209,245.241)">
                        <path d="M0.06,-0.519l0.185,0l0,0.085c0.028,-0.035 0.056,-0.059 0.084,-0.074c0.028,-0.015 0.063,-0.022 0.104,-0.022c0.055,-0 0.098,0.016 0.129,0.049c0.031,0.033 0.046,0.083 0.046,0.151l0,0.33l-0.199,0l-0,-0.285c-0,-0.033 -0.006,-0.056 -0.018,-0.069c-0.012,-0.014 -0.029,-0.021 -0.051,-0.021c-0.024,0 -0.044,0.01 -0.059,0.028c-0.015,0.018 -0.022,0.051 -0.022,0.098l-0,0.249l-0.199,0l0,-0.519Z" style="fill:#fff;fill-rule:nonzero;"/>
                    </g>
                    <g transform="matrix(250,0,0,250,562.957,245.241)">
                        <path d="M0.606,-0.716l-0,0.716l-0.186,-0l-0,-0.077c-0.026,0.033 -0.05,0.055 -0.071,0.066c-0.029,0.015 -0.061,0.023 -0.096,0.023c-0.071,-0 -0.125,-0.027 -0.162,-0.081c-0.037,-0.054 -0.056,-0.119 -0.056,-0.196c0,-0.086 0.021,-0.151 0.062,-0.197c0.041,-0.045 0.093,-0.068 0.157,-0.068c0.031,-0 0.059,0.005 0.084,0.015c0.025,0.011 0.048,0.026 0.067,0.047l0,-0.248l0.201,0Zm-0.199,0.455c-0,-0.04 -0.009,-0.071 -0.026,-0.091c-0.017,-0.02 -0.039,-0.03 -0.066,-0.03c-0.023,0 -0.042,0.01 -0.058,0.029c-0.015,0.019 -0.023,0.051 -0.023,0.097c-0,0.042 0.008,0.073 0.024,0.093c0.016,0.019 0.036,0.029 0.06,0.029c0.025,0 0.046,-0.01 0.063,-0.03c0.017,-0.019 0.026,-0.052 0.026,-0.097Z" style="fill:#fff;fill-rule:nonzero;"/>
                    </g>
                </g>
                <g id="votemagnet1" class="votemagnet" serif:id="votemagnet" transform="matrix(3.68175,0,0,1.90198,-25699.6,-2227.61)">
                    <ellipse cx="7102.5" cy="1790" rx="94.5" ry="90.998" style="fill:#3a53a4;"/>
                </g>
            </g>
			</a>
        </g>
    </g>
</svg>
