<?xml version="1.0" encoding="UTF-8" standalone="no"?>
<!DOCTYPE svg PUBLIC "-//W3C//DTD SVG 1.1//EN" "http://www.w3.org/Graphics/SVG/1.1/DTD/svg11.dtd">
<svg width="100%" height="100%" viewBox="0 0 1801 1800" version="1.1" xmlns="http://www.w3.org/2000/svg" xmlns:xlink="http://www.w3.org/1999/xlink" xml:space="preserve" xmlns:serif="http://www.serif.com/" style="fill-rule:evenodd;clip-rule:evenodd;stroke-linejoin:round;stroke-miterlimit:2;">
    <g transform="matrix(1,0,0,1,-2746,0)">
        <g id="START" transform="matrix(1,0,0,1,2746.5,0)">
            <rect x="0" y="0" width="1800" height="1800" style="fill:none;"/>
			<a href="B-.svg">
            <g id="vote-for-B-minor" serif:id="vote for B minor" transform="matrix(0.509259,0,0,0.509259,922.393,93.1667)">
                <g transform="matrix(0.505051,0,0,0.508187,-9.09091,885.263)">
                    <path d="M1800,170.68l0,1487.64c0,78.195 -63.879,141.68 -142.56,141.68l-1496.88,0c-78.681,0 -142.56,-63.485 -142.56,-141.68l0,-1487.64c0,-78.195 63.879,-141.68 142.56,-141.68l1496.88,-0c78.681,-0 142.56,63.485 142.56,141.68Z" style="fill:#0fad4b;"/>
                </g>
                <g id="votemagnet" class="votemagnet" transform="matrix(1.8315,0,0,1.90198,-12558.2,-2227.61)">
                    <ellipse cx="7102.5" cy="1790" rx="94.5" ry="90.998" style="fill:#0fad4b;"/>
                </g>
                <g transform="matrix(1,0,0,1,84.3087,1343.77)">
                    <g transform="matrix(250,0,0,250,229.461,245.241)">
                        <path d="M0.074,-0.716l0.414,0c0.069,0 0.122,0.017 0.159,0.051c0.037,0.035 0.055,0.077 0.055,0.127c0,0.043 -0.013,0.079 -0.039,0.109c-0.018,0.02 -0.044,0.036 -0.078,0.048c0.052,0.013 0.09,0.034 0.114,0.064c0.024,0.03 0.036,0.068 0.036,0.113c0,0.037 -0.008,0.071 -0.026,0.1c-0.017,0.03 -0.04,0.054 -0.07,0.071c-0.019,0.011 -0.047,0.018 -0.084,0.023c-0.05,0.007 -0.083,0.01 -0.099,0.01l-0.382,-0l-0,-0.716Zm0.223,0.281l0.096,-0c0.035,-0 0.059,-0.006 0.072,-0.018c0.014,-0.012 0.02,-0.029 0.02,-0.051c0,-0.021 -0.006,-0.038 -0.02,-0.049c-0.013,-0.012 -0.037,-0.018 -0.07,-0.018l-0.098,0l-0,0.136Zm-0,0.281l0.113,0c0.038,0 0.065,-0.007 0.08,-0.02c0.016,-0.014 0.024,-0.032 0.024,-0.055c-0,-0.021 -0.008,-0.038 -0.024,-0.051c-0.015,-0.012 -0.042,-0.019 -0.081,-0.019l-0.112,0l-0,0.145Z" style="fill:#fff;fill-rule:nonzero;"/>
                    </g>
                    <g transform="matrix(250,0,0,250,423.919,245.241)">
                        <rect x="0.022" y="-0.338" width="0.289" height="0.154" style="fill:#fff;fill-rule:nonzero;"/>
                    </g>
                </g>
            </g>
			</a>
			<a href="E-.svg">
            <g id="vote-for-E-minor" serif:id="vote for E minor" transform="matrix(0.509259,0,0,0.509259,424.06,93.1667)">
                <g transform="matrix(0.505051,0,0,0.508187,-9.09091,885.263)">
                    <path d="M1800,170.68l0,1487.64c0,78.195 -63.879,141.68 -142.56,141.68l-1496.88,0c-78.681,0 -142.56,-63.485 -142.56,-141.68l0,-1487.64c0,-78.195 63.879,-141.68 142.56,-141.68l1496.88,-0c78.681,-0 142.56,63.485 142.56,141.68Z" style="fill:#f7d200;"/>
                </g>
                <g id="votemagnet1" class="votemagnet" serif:id="votemagnet" transform="matrix(1.8315,0,0,1.90198,-12558.2,-2227.61)">
                    <ellipse cx="7102.5" cy="1790" rx="94.5" ry="90.998" style="fill:#f7d20b;"/>
                </g>
                <g transform="matrix(1,0,0,1,84.3087,1343.77)">
                    <g transform="matrix(250,0,0,250,229.461,245.241)">
                        <path d="M0.073,-0.716l0.593,0l-0,0.153l-0.372,0l0,0.114l0.345,-0l-0,0.146l-0.345,-0l0,0.141l0.382,-0l0,0.162l-0.603,-0l-0,-0.716Z" style="fill:#fff;fill-rule:nonzero;"/>
                    </g>
                    <g transform="matrix(250,0,0,250,410.003,245.241)">
                        <rect x="0.022" y="-0.338" width="0.289" height="0.154" style="fill:#fff;fill-rule:nonzero;"/>
                    </g>
                </g>
            </g>
			</a>
			<a href="D-.svg">
            <g id="vote-for-D-minor" serif:id="vote for D minor" transform="matrix(0.509259,0,0,0.509259,424.06,591.5)">
                <g transform="matrix(0.505051,0,0,0.508187,-9.09091,885.263)">
                    <path d="M1800,170.68l0,1487.64c0,78.195 -63.879,141.68 -142.56,141.68l-1496.88,0c-78.681,0 -142.56,-63.485 -142.56,-141.68l0,-1487.64c0,-78.195 63.879,-141.68 142.56,-141.68l1496.88,-0c78.681,-0 142.56,63.485 142.56,141.68Z" style="fill:#ff0017;"/>
                </g>
                <g id="votemagnet2" class="votemagnet" serif:id="votemagnet" transform="matrix(1.8315,0,0,1.90198,-12558.2,-2227.61)">
                    <ellipse cx="7102.5" cy="1790" rx="94.5" ry="90.998" style="fill:#ed1c26;"/>
                </g>
                <g transform="matrix(1,0,0,1,74.9093,1349.34)">
                    <g transform="matrix(250,0,0,250,229.461,245.241)">
                        <path d="M0.076,-0.716l0.329,0c0.065,0 0.117,0.009 0.157,0.027c0.04,0.017 0.073,0.042 0.099,0.075c0.026,0.033 0.045,0.071 0.056,0.115c0.012,0.044 0.018,0.09 0.018,0.139c-0,0.076 -0.009,0.135 -0.026,0.178c-0.018,0.042 -0.042,0.077 -0.073,0.106c-0.031,0.028 -0.064,0.047 -0.099,0.056c-0.049,0.013 -0.093,0.02 -0.132,0.02l-0.329,-0l0,-0.716Zm0.221,0.162l0,0.391l0.055,0c0.046,0 0.079,-0.005 0.098,-0.015c0.02,-0.01 0.035,-0.028 0.046,-0.054c0.011,-0.025 0.017,-0.067 0.017,-0.124c-0,-0.076 -0.013,-0.128 -0.037,-0.156c-0.025,-0.028 -0.066,-0.042 -0.123,-0.042l-0.056,0Z" style="fill:#fff;fill-rule:nonzero;"/>
                    </g>
                    <g transform="matrix(250,0,0,250,423.919,245.241)">
                        <rect x="0.022" y="-0.338" width="0.289" height="0.154" style="fill:#fff;fill-rule:nonzero;"/>
                    </g>
                </g>
            </g>
			</a>
			<a href="A-.svg">
            <g id="vote-for-A-minor" serif:id="vote for A minor" transform="matrix(0.509259,0,0,0.509259,922.393,591.5)">
                <g transform="matrix(0.505051,0,0,0.508187,-9.09091,885.263)">
                    <path d="M1800,170.68l0,1487.64c0,78.195 -63.879,141.68 -142.56,141.68l-1496.88,0c-78.681,0 -142.56,-63.485 -142.56,-141.68l0,-1487.64c0,-78.195 63.879,-141.68 142.56,-141.68l1496.88,-0c78.681,-0 142.56,63.485 142.56,141.68Z" style="fill:#3a53a4;"/>
                </g>
                <g id="votemagnet3" serif:id="votemagnet" transform="matrix(1.8315,0,0,1.90198,-12558.2,-2227.61)">
                    <ellipse cx="7102.5" cy="1790" rx="94.5" ry="90.998" style="fill:#3a53a4;"/>
                </g>
                <g transform="matrix(1,0,0,1,74.9093,1349.34)">
                    <g transform="matrix(250,0,0,250,229.461,245.241)">
                        <path d="M0.514,-0.118l-0.252,-0l-0.035,0.118l-0.226,-0l0.269,-0.716l0.241,0l0.269,0.716l-0.231,-0l-0.035,-0.118Zm-0.047,-0.155l-0.079,-0.257l-0.078,0.257l0.157,0Z" style="fill:#fff;fill-rule:nonzero;"/>
                    </g>
                    <g transform="matrix(250,0,0,250,423.919,245.241)">
                        <rect x="0.022" y="-0.338" width="0.289" height="0.154" style="fill:#fff;fill-rule:nonzero;"/>
                    </g>
                </g>
            </g>
			</a>
            <g transform="matrix(0.509259,0,0,0.509259,164.568,258.077)">
                <g transform="matrix(250,0,0,250,197.906,245.241)">
                    <path d="M0.447,-0.203l0.189,0.022c-0.011,0.039 -0.028,0.073 -0.052,0.102c-0.023,0.029 -0.054,0.051 -0.091,0.067c-0.037,0.016 -0.083,0.024 -0.14,0.024c-0.055,0 -0.101,-0.005 -0.138,-0.015c-0.037,-0.01 -0.068,-0.027 -0.094,-0.05c-0.027,-0.023 -0.047,-0.05 -0.062,-0.081c-0.015,-0.031 -0.023,-0.072 -0.023,-0.123c0,-0.053 0.009,-0.098 0.027,-0.133c0.014,-0.026 0.032,-0.05 0.055,-0.07c0.023,-0.021 0.047,-0.036 0.071,-0.046c0.039,-0.016 0.089,-0.024 0.149,-0.024c0.085,-0 0.15,0.015 0.194,0.045c0.044,0.03 0.076,0.075 0.093,0.133l-0.187,0.025c-0.005,-0.022 -0.016,-0.039 -0.032,-0.05c-0.015,-0.011 -0.036,-0.017 -0.062,-0.017c-0.033,-0 -0.059,0.012 -0.08,0.035c-0.02,0.024 -0.03,0.06 -0.03,0.108c-0,0.042 0.01,0.075 0.03,0.097c0.02,0.022 0.046,0.033 0.077,0.033c0.026,-0 0.048,-0.007 0.066,-0.02c0.018,-0.013 0.031,-0.034 0.04,-0.062Z" style="fill-rule:nonzero;"/>
                </g>
                <g transform="matrix(250,0,0,250,360.381,245.241)">
                    <path d="M0.06,-0.716l0.199,0l-0,0.264c0.027,-0.028 0.054,-0.048 0.08,-0.06c0.027,-0.012 0.059,-0.018 0.095,-0.018c0.054,-0 0.097,0.016 0.128,0.049c0.031,0.033 0.046,0.083 0.046,0.151l0,0.33l-0.199,0l-0,-0.285c-0,-0.033 -0.006,-0.056 -0.018,-0.069c-0.012,-0.014 -0.029,-0.021 -0.051,-0.021c-0.024,0 -0.044,0.01 -0.059,0.028c-0.015,0.018 -0.022,0.051 -0.022,0.098l-0,0.249l-0.199,0l0,-0.716Z" style="fill-rule:nonzero;"/>
                </g>
                <g transform="matrix(250,0,0,250,527.129,245.241)">
                    <path d="M0.036,-0.258c-0,-0.079 0.026,-0.144 0.08,-0.195c0.053,-0.052 0.125,-0.077 0.216,-0.077c0.104,-0 0.182,0.03 0.235,0.09c0.043,0.049 0.064,0.108 0.064,0.179c0,0.08 -0.026,0.145 -0.079,0.196c-0.053,0.051 -0.126,0.077 -0.219,0.077c-0.084,-0 -0.151,-0.021 -0.203,-0.064c-0.063,-0.052 -0.094,-0.121 -0.094,-0.206Zm0.199,-0c-0,0.046 0.009,0.08 0.028,0.102c0.019,0.022 0.042,0.033 0.07,0.033c0.029,0 0.053,-0.01 0.071,-0.032c0.018,-0.022 0.028,-0.057 0.028,-0.105c-0,-0.045 -0.01,-0.079 -0.028,-0.101c-0.019,-0.022 -0.042,-0.033 -0.069,-0.033c-0.029,0 -0.053,0.012 -0.072,0.034c-0.019,0.022 -0.028,0.056 -0.028,0.102Z" style="fill-rule:nonzero;"/>
                </g>
                <g transform="matrix(250,0,0,250,693.877,245.241)">
                    <path d="M0.036,-0.258c-0,-0.079 0.026,-0.144 0.08,-0.195c0.053,-0.052 0.125,-0.077 0.216,-0.077c0.104,-0 0.182,0.03 0.235,0.09c0.043,0.049 0.064,0.108 0.064,0.179c0,0.08 -0.026,0.145 -0.079,0.196c-0.053,0.051 -0.126,0.077 -0.219,0.077c-0.084,-0 -0.151,-0.021 -0.203,-0.064c-0.063,-0.052 -0.094,-0.121 -0.094,-0.206Zm0.199,-0c-0,0.046 0.009,0.08 0.028,0.102c0.019,0.022 0.042,0.033 0.07,0.033c0.029,0 0.053,-0.01 0.071,-0.032c0.018,-0.022 0.028,-0.057 0.028,-0.105c-0,-0.045 -0.01,-0.079 -0.028,-0.101c-0.019,-0.022 -0.042,-0.033 -0.069,-0.033c-0.029,0 -0.053,0.012 -0.072,0.034c-0.019,0.022 -0.028,0.056 -0.028,0.102Z" style="fill-rule:nonzero;"/>
                </g>
                <g transform="matrix(250,0,0,250,860.625,245.241)">
                    <path d="M0.025,-0.144l0.197,-0.018c0.008,0.023 0.02,0.04 0.034,0.05c0.015,0.01 0.035,0.015 0.059,0.015c0.027,0 0.047,-0.005 0.062,-0.017c0.011,-0.008 0.017,-0.019 0.017,-0.032c0,-0.014 -0.007,-0.025 -0.022,-0.033c-0.011,-0.005 -0.04,-0.012 -0.086,-0.02c-0.069,-0.012 -0.117,-0.023 -0.144,-0.034c-0.027,-0.01 -0.049,-0.027 -0.068,-0.052c-0.018,-0.024 -0.027,-0.052 -0.027,-0.083c-0,-0.034 0.01,-0.064 0.03,-0.089c0.02,-0.024 0.047,-0.043 0.082,-0.055c0.035,-0.012 0.081,-0.018 0.14,-0.018c0.062,-0 0.107,0.004 0.137,0.014c0.029,0.009 0.054,0.024 0.074,0.044c0.019,0.02 0.036,0.047 0.049,0.08l-0.189,0.019c-0.005,-0.017 -0.013,-0.029 -0.024,-0.037c-0.016,-0.01 -0.035,-0.015 -0.057,-0.015c-0.022,-0 -0.039,0.004 -0.049,0.012c-0.01,0.008 -0.015,0.017 -0.015,0.029c-0,0.012 0.006,0.022 0.019,0.029c0.013,0.006 0.041,0.012 0.085,0.017c0.066,0.008 0.115,0.018 0.148,0.031c0.032,0.014 0.056,0.033 0.074,0.057c0.017,0.025 0.025,0.052 0.025,0.082c0,0.03 -0.009,0.059 -0.027,0.087c-0.018,0.029 -0.046,0.051 -0.085,0.068c-0.039,0.017 -0.092,0.025 -0.159,0.025c-0.095,0 -0.163,-0.013 -0.203,-0.04c-0.04,-0.027 -0.066,-0.066 -0.077,-0.116Z" style="fill-rule:nonzero;"/>
                </g>
                <g transform="matrix(250,0,0,250,1013.34,245.241)">
                    <path d="M0.636,-0.21l-0.399,0c0.004,0.032 0.013,0.056 0.026,0.071c0.019,0.023 0.044,0.034 0.075,0.034c0.02,0 0.038,-0.005 0.056,-0.015c0.011,-0.006 0.022,-0.017 0.035,-0.032l0.196,0.018c-0.03,0.052 -0.067,0.089 -0.109,0.112c-0.042,0.022 -0.103,0.034 -0.182,0.034c-0.069,-0 -0.123,-0.01 -0.162,-0.029c-0.04,-0.02 -0.072,-0.05 -0.098,-0.093c-0.026,-0.042 -0.039,-0.091 -0.039,-0.148c0,-0.081 0.026,-0.147 0.078,-0.197c0.052,-0.05 0.124,-0.075 0.215,-0.075c0.074,-0 0.133,0.011 0.176,0.033c0.043,0.023 0.076,0.055 0.098,0.098c0.023,0.043 0.034,0.098 0.034,0.167l-0,0.022Zm-0.202,-0.095c-0.004,-0.039 -0.015,-0.066 -0.031,-0.083c-0.017,-0.016 -0.039,-0.025 -0.067,-0.025c-0.031,0 -0.056,0.013 -0.075,0.038c-0.012,0.016 -0.02,0.039 -0.023,0.07l0.196,-0Z" style="fill-rule:nonzero;"/>
                </g>
                <g transform="matrix(250,0,0,250,1263.46,245.241)">
                    <path d="M0.241,-0.351l-0.19,-0.02c0.007,-0.033 0.018,-0.059 0.031,-0.078c0.014,-0.019 0.033,-0.036 0.059,-0.05c0.018,-0.01 0.043,-0.017 0.075,-0.023c0.032,-0.006 0.066,-0.008 0.103,-0.008c0.06,-0 0.108,0.003 0.144,0.01c0.036,0.006 0.066,0.02 0.09,0.041c0.017,0.015 0.03,0.036 0.04,0.063c0.01,0.027 0.015,0.052 0.015,0.077l-0,0.229c-0,0.024 0.001,0.043 0.005,0.057c0.003,0.014 0.009,0.032 0.02,0.053l-0.187,0c-0.007,-0.013 -0.012,-0.024 -0.014,-0.031c-0.003,-0.007 -0.005,-0.018 -0.007,-0.032c-0.026,0.025 -0.052,0.042 -0.078,0.053c-0.035,0.015 -0.076,0.022 -0.122,0.022c-0.062,-0 -0.109,-0.015 -0.141,-0.043c-0.032,-0.029 -0.048,-0.064 -0.048,-0.106c-0,-0.04 0.011,-0.072 0.034,-0.097c0.023,-0.026 0.066,-0.045 0.128,-0.057c0.075,-0.015 0.123,-0.025 0.145,-0.032c0.022,-0.006 0.046,-0.013 0.071,-0.023c-0,-0.025 -0.005,-0.042 -0.016,-0.051c-0.01,-0.01 -0.027,-0.015 -0.053,-0.015c-0.032,-0 -0.057,0.005 -0.073,0.016c-0.013,0.008 -0.023,0.023 -0.031,0.045Zm0.173,0.105c-0.028,0.01 -0.056,0.018 -0.086,0.026c-0.04,0.011 -0.066,0.021 -0.077,0.032c-0.011,0.01 -0.016,0.022 -0.016,0.036c-0,0.016 0.005,0.029 0.016,0.038c0.011,0.01 0.027,0.015 0.048,0.015c0.022,0 0.043,-0.005 0.062,-0.016c0.019,-0.01 0.033,-0.024 0.041,-0.039c0.008,-0.016 0.012,-0.036 0.012,-0.06l-0,-0.032Z" style="fill-rule:nonzero;"/>
                </g>
                <g transform="matrix(250,0,0,250,1513.58,245.241)">
                    <path d="M0.06,-0.716l0.203,0l0,0.369l0.149,-0.172l0.244,0l-0.186,0.182l0.197,0.337l-0.224,-0l-0.105,-0.208l-0.075,0.073l0,0.135l-0.203,-0l0,-0.716Z" style="fill-rule:nonzero;"/>
                </g>
                <g transform="matrix(250,0,0,250,1671.78,245.241)">
                    <path d="M0.636,-0.21l-0.399,0c0.004,0.032 0.013,0.056 0.026,0.071c0.019,0.023 0.044,0.034 0.075,0.034c0.02,0 0.038,-0.005 0.056,-0.015c0.011,-0.006 0.022,-0.017 0.035,-0.032l0.196,0.018c-0.03,0.052 -0.067,0.089 -0.109,0.112c-0.042,0.022 -0.103,0.034 -0.182,0.034c-0.069,-0 -0.123,-0.01 -0.162,-0.029c-0.04,-0.02 -0.072,-0.05 -0.098,-0.093c-0.026,-0.042 -0.039,-0.091 -0.039,-0.148c0,-0.081 0.026,-0.147 0.078,-0.197c0.052,-0.05 0.124,-0.075 0.215,-0.075c0.074,-0 0.133,0.011 0.176,0.033c0.043,0.023 0.076,0.055 0.098,0.098c0.023,0.043 0.034,0.098 0.034,0.167l-0,0.022Zm-0.202,-0.095c-0.004,-0.039 -0.015,-0.066 -0.031,-0.083c-0.017,-0.016 -0.039,-0.025 -0.067,-0.025c-0.031,0 -0.056,0.013 -0.075,0.038c-0.012,0.016 -0.02,0.039 -0.023,0.07l0.196,-0Z" style="fill-rule:nonzero;"/>
                </g>
                <g transform="matrix(250,0,0,250,1838.53,245.241)">
                    <path d="M0.002,-0.519l0.21,0l0.107,0.346l0.099,-0.346l0.196,0l-0.205,0.555c-0.024,0.063 -0.048,0.105 -0.072,0.128c-0.035,0.031 -0.087,0.046 -0.158,0.046c-0.028,0 -0.073,-0.003 -0.133,-0.011l-0.015,-0.139c0.028,0.009 0.06,0.014 0.095,0.014c0.024,-0 0.043,-0.006 0.057,-0.016c0.015,-0.011 0.027,-0.03 0.037,-0.058l-0.218,-0.519Z" style="fill-rule:nonzero;"/>
                </g>
                <g transform="matrix(250,0,0,250,2074.61,245.241)">
                    <path d="M0.241,-0.351l-0.19,-0.02c0.007,-0.033 0.018,-0.059 0.031,-0.078c0.014,-0.019 0.033,-0.036 0.059,-0.05c0.018,-0.01 0.043,-0.017 0.075,-0.023c0.032,-0.006 0.066,-0.008 0.103,-0.008c0.06,-0 0.108,0.003 0.144,0.01c0.036,0.006 0.066,0.02 0.09,0.041c0.017,0.015 0.03,0.036 0.04,0.063c0.01,0.027 0.015,0.052 0.015,0.077l-0,0.229c-0,0.024 0.001,0.043 0.005,0.057c0.003,0.014 0.009,0.032 0.02,0.053l-0.187,0c-0.007,-0.013 -0.012,-0.024 -0.014,-0.031c-0.003,-0.007 -0.005,-0.018 -0.007,-0.032c-0.026,0.025 -0.052,0.042 -0.078,0.053c-0.035,0.015 -0.076,0.022 -0.122,0.022c-0.062,-0 -0.109,-0.015 -0.141,-0.043c-0.032,-0.029 -0.048,-0.064 -0.048,-0.106c-0,-0.04 0.011,-0.072 0.034,-0.097c0.023,-0.026 0.066,-0.045 0.128,-0.057c0.075,-0.015 0.123,-0.025 0.145,-0.032c0.022,-0.006 0.046,-0.013 0.071,-0.023c-0,-0.025 -0.005,-0.042 -0.016,-0.051c-0.01,-0.01 -0.027,-0.015 -0.053,-0.015c-0.032,-0 -0.057,0.005 -0.073,0.016c-0.013,0.008 -0.023,0.023 -0.031,0.045Zm0.173,0.105c-0.028,0.01 -0.056,0.018 -0.086,0.026c-0.04,0.011 -0.066,0.021 -0.077,0.032c-0.011,0.01 -0.016,0.022 -0.016,0.036c-0,0.016 0.005,0.029 0.016,0.038c0.011,0.01 0.027,0.015 0.048,0.015c0.022,0 0.043,-0.005 0.062,-0.016c0.019,-0.01 0.033,-0.024 0.041,-0.039c0.008,-0.016 0.012,-0.036 0.012,-0.06l-0,-0.032Z" style="fill-rule:nonzero;"/>
                </g>
                <g transform="matrix(250,0,0,250,2241.36,245.241)">
                    <path d="M0.062,-0.519l0.186,0l0,0.085c0.018,-0.036 0.036,-0.062 0.055,-0.076c0.02,-0.013 0.043,-0.02 0.071,-0.02c0.029,-0 0.061,0.009 0.096,0.027l-0.061,0.142c-0.024,-0.01 -0.042,-0.015 -0.056,-0.015c-0.026,0 -0.046,0.011 -0.061,0.032c-0.02,0.031 -0.03,0.087 -0.03,0.17l-0,0.174l-0.2,-0l0,-0.519Z" style="fill-rule:nonzero;"/>
                </g>
                <g transform="matrix(250,0,0,250,2356.35,245.241)">
                    <path d="M0.636,-0.21l-0.399,0c0.004,0.032 0.013,0.056 0.026,0.071c0.019,0.023 0.044,0.034 0.075,0.034c0.02,0 0.038,-0.005 0.056,-0.015c0.011,-0.006 0.022,-0.017 0.035,-0.032l0.196,0.018c-0.03,0.052 -0.067,0.089 -0.109,0.112c-0.042,0.022 -0.103,0.034 -0.182,0.034c-0.069,-0 -0.123,-0.01 -0.162,-0.029c-0.04,-0.02 -0.072,-0.05 -0.098,-0.093c-0.026,-0.042 -0.039,-0.091 -0.039,-0.148c0,-0.081 0.026,-0.147 0.078,-0.197c0.052,-0.05 0.124,-0.075 0.215,-0.075c0.074,-0 0.133,0.011 0.176,0.033c0.043,0.023 0.076,0.055 0.098,0.098c0.023,0.043 0.034,0.098 0.034,0.167l-0,0.022Zm-0.202,-0.095c-0.004,-0.039 -0.015,-0.066 -0.031,-0.083c-0.017,-0.016 -0.039,-0.025 -0.067,-0.025c-0.031,0 -0.056,0.013 -0.075,0.038c-0.012,0.016 -0.02,0.039 -0.023,0.07l0.196,-0Z" style="fill-rule:nonzero;"/>
                </g>
                <g transform="matrix(250,0,0,250,2523.1,245.241)">
                    <path d="M0.241,-0.351l-0.19,-0.02c0.007,-0.033 0.018,-0.059 0.031,-0.078c0.014,-0.019 0.033,-0.036 0.059,-0.05c0.018,-0.01 0.043,-0.017 0.075,-0.023c0.032,-0.006 0.066,-0.008 0.103,-0.008c0.06,-0 0.108,0.003 0.144,0.01c0.036,0.006 0.066,0.02 0.09,0.041c0.017,0.015 0.03,0.036 0.04,0.063c0.01,0.027 0.015,0.052 0.015,0.077l-0,0.229c-0,0.024 0.001,0.043 0.005,0.057c0.003,0.014 0.009,0.032 0.02,0.053l-0.187,0c-0.007,-0.013 -0.012,-0.024 -0.014,-0.031c-0.003,-0.007 -0.005,-0.018 -0.007,-0.032c-0.026,0.025 -0.052,0.042 -0.078,0.053c-0.035,0.015 -0.076,0.022 -0.122,0.022c-0.062,-0 -0.109,-0.015 -0.141,-0.043c-0.032,-0.029 -0.048,-0.064 -0.048,-0.106c-0,-0.04 0.011,-0.072 0.034,-0.097c0.023,-0.026 0.066,-0.045 0.128,-0.057c0.075,-0.015 0.123,-0.025 0.145,-0.032c0.022,-0.006 0.046,-0.013 0.071,-0.023c-0,-0.025 -0.005,-0.042 -0.016,-0.051c-0.01,-0.01 -0.027,-0.015 -0.053,-0.015c-0.032,-0 -0.057,0.005 -0.073,0.016c-0.013,0.008 -0.023,0.023 -0.031,0.045Zm0.173,0.105c-0.028,0.01 -0.056,0.018 -0.086,0.026c-0.04,0.011 -0.066,0.021 -0.077,0.032c-0.011,0.01 -0.016,0.022 -0.016,0.036c-0,0.016 0.005,0.029 0.016,0.038c0.011,0.01 0.027,0.015 0.048,0.015c0.022,0 0.043,-0.005 0.062,-0.016c0.019,-0.01 0.033,-0.024 0.041,-0.039c0.008,-0.016 0.012,-0.036 0.012,-0.06l-0,-0.032Z" style="fill-rule:nonzero;"/>
                </g>
            </g>
        </g>
    </g>
</svg>
