<?xml version="1.0" encoding="UTF-8" standalone="no"?>
<!DOCTYPE svg PUBLIC "-//W3C//DTD SVG 1.1//EN" "http://www.w3.org/Graphics/SVG/1.1/DTD/svg11.dtd">
<svg width="100%" height="100%" viewBox="0 0 2048 2732" version="1.1" xmlns="http://www.w3.org/2000/svg" xmlns:xlink="http://www.w3.org/1999/xlink" xml:space="preserve" xmlns:serif="http://www.serif.com/" style="fill-rule:evenodd;clip-rule:evenodd;stroke-linejoin:bevel;">
    <g transform="matrix(1,0,0,1,-12218,-2997)">
        <g id="H-PRE-O" transform="matrix(1,0,0,1,12218,2997)">
            <rect x="0" y="0" width="2048" height="2732" style="fill:none;"/>
			<a xlink:href="PRE-O.svg">
            <g id="S">
                <g transform="matrix(1,0,0,1,22,300)">
                    <rect x="0" y="0" width="1501.06" height="1501.09" style="fill:white;"/>
                </g>
                <g transform="matrix(1,0,0,1,1086.59,154.035)">
                    <g transform="matrix(0.488678,0,0,1,63.4121,0)">
                        <path d="M124.016,173.622L425.196,173.622" style="fill:none;fill-rule:nonzero;stroke:black;stroke-width:2.73px;"/>
                    </g>
                    <g transform="matrix(0.488678,0,0,1,63.4121,0)">
                        <path d="M124.016,198.425L425.196,198.425" style="fill:none;fill-rule:nonzero;stroke:black;stroke-width:2.73px;"/>
                    </g>
                    <g transform="matrix(0.488678,0,0,1,63.4121,0)">
                        <path d="M124.016,223.228L425.196,223.228" style="fill:none;fill-rule:nonzero;stroke:black;stroke-width:2.73px;"/>
                    </g>
                    <g transform="matrix(0.488678,0,0,1,63.4121,0)">
                        <path d="M124.016,248.031L425.196,248.031" style="fill:none;fill-rule:nonzero;stroke:black;stroke-width:2.73px;"/>
                    </g>
                    <g transform="matrix(0.488678,0,0,1,63.4121,0)">
                        <path d="M124.016,272.835L425.196,272.835" style="fill:none;fill-rule:nonzero;stroke:black;stroke-width:2.73px;"/>
                    </g>
                    <g transform="matrix(0.992126,0,0,0.992126,162.409,235.63)">
                        <path d="M20.094,-7.906C19.5,-11.797 17.094,-15.5 12,-15.5C7,-15.5 4.094,-12.406 3.594,-11.797L4,-43.906C4,-44.703 3.406,-45.297 2.594,-45.297L1.406,-45.297C0.594,-45.297 0,-44.703 0,-43.906L0.5,16.203C0.5,17 1.094,17.594 1.906,17.594C2.094,17.594 2.5,17.5 2.703,17.406C3.094,17.203 9.594,14 15,7.906C18.797,3.594 20.297,-1.297 20.297,-5.406C20.297,-6.297 20.203,-7.094 20.094,-7.906M13.203,-4C13.203,-2.5 12.797,2.094 10.297,5.906C8.594,8.5 5.203,11.203 3.297,12.703L3.594,-6.797C3.797,-7.703 5.297,-10.594 9.297,-10.594C12.906,-10.594 13.203,-7.203 13.203,-5.094L13.203,-4" style="fill-rule:nonzero;"/>
                    </g>
                    <g transform="matrix(0.992126,0,0,0.992126,174.568,186.024)">
                        <path d="M20.094,-7.906C19.5,-11.797 17.094,-15.5 12,-15.5C7,-15.5 4.094,-12.406 3.594,-11.797L4,-43.906C4,-44.703 3.406,-45.297 2.594,-45.297L1.406,-45.297C0.594,-45.297 0,-44.703 0,-43.906L0.5,16.203C0.5,17 1.094,17.594 1.906,17.594C2.094,17.594 2.5,17.5 2.703,17.406C3.094,17.203 9.594,14 15,7.906C18.797,3.594 20.297,-1.297 20.297,-5.406C20.297,-6.297 20.203,-7.094 20.094,-7.906M13.203,-4C13.203,-2.5 12.797,2.094 10.297,5.906C8.594,8.5 5.203,11.203 3.297,12.703L3.594,-6.797C3.797,-7.703 5.297,-10.594 9.297,-10.594C12.906,-10.594 13.203,-7.203 13.203,-5.094L13.203,-4" style="fill-rule:nonzero;"/>
                    </g>
                    <g transform="matrix(0.992126,0,0,0.992126,200.906,235.63)">
                        <path d="M31.5,-8.094C29.703,-11.406 25.906,-13.203 21.297,-13.203C17.906,-13.203 14.203,-12.203 10.594,-10.297C4,-6.797 0,-0.906 0,4.203C0,5.594 0.297,7 1,8.297C2.797,11.594 6.594,13.297 11.203,13.297C14.594,13.297 18.297,12.406 21.906,10.5C28.5,7 32.5,1.094 32.5,-4C32.5,-5.406 32.203,-6.797 31.5,-8.094" style="fill-rule:nonzero;"/>
                    </g>
                    <g transform="matrix(0.992126,0,0,0.992126,200.906,210.827)">
                        <path d="M31.5,-8.094C29.703,-11.406 25.906,-13.203 21.297,-13.203C17.906,-13.203 14.203,-12.203 10.594,-10.297C4,-6.797 0,-0.906 0,4.203C0,5.594 0.297,7 1,8.297C2.797,11.594 6.594,13.297 11.203,13.297C14.594,13.297 18.297,12.406 21.906,10.5C28.5,7 32.5,1.094 32.5,-4C32.5,-5.406 32.203,-6.797 31.5,-8.094" style="fill-rule:nonzero;"/>
                    </g>
                    <g transform="matrix(0.992126,0,0,0.992126,200.906,186.024)">
                        <path d="M31.5,-8.094C29.703,-11.406 25.906,-13.203 21.297,-13.203C17.906,-13.203 14.203,-12.203 10.594,-10.297C4,-6.797 0,-0.906 0,4.203C0,5.594 0.297,7 1,8.297C2.797,11.594 6.594,13.297 11.203,13.297C14.594,13.297 18.297,12.406 21.906,10.5C28.5,7 32.5,1.094 32.5,-4C32.5,-5.406 32.203,-6.797 31.5,-8.094" style="fill-rule:nonzero;"/>
                    </g>
                </g>
                <g id="Meta-Ring-and-Background" serif:id="Meta-Ring and Background" transform="matrix(-1.09813,0,0,-1.09813,1578.56,2249.66)">
                    <g transform="matrix(0.545852,-0.945443,0.9537,0.550619,-641.299,1170.26)">
                        <ellipse cx="692" cy="1046" rx="458" ry="454" style="fill:none;stroke:black;stroke-width:0.46px;stroke-linecap:square;stroke-linejoin:round;stroke-miterlimit:1.5;"/>
                    </g>
                    <g transform="matrix(0.5,-0.866025,0.629632,0.363518,-412.931,1316.59)">
                        <path d="M768,524.038L768,568" style="fill:none;stroke:black;stroke-width:0.57px;stroke-linecap:square;stroke-linejoin:round;stroke-miterlimit:1.5;"/>
                    </g>
                    <g transform="matrix(0.5,-0.866025,0.629632,0.363518,425.349,1800.57)">
                        <path d="M768,524.038L768,568" style="fill:none;stroke:black;stroke-width:0.57px;stroke-linecap:square;stroke-linejoin:round;stroke-miterlimit:1.5;"/>
                    </g>
                    <g transform="matrix(-0.866025,-0.5,0.363518,-0.629632,1442.63,1400.58)">
                        <path d="M768,524.038L768,568" style="fill:none;stroke:black;stroke-width:0.57px;stroke-linecap:square;stroke-linejoin:round;stroke-miterlimit:1.5;"/>
                    </g>
                    <g transform="matrix(-0.866025,-0.5,0.363518,-0.629632,958.61,2238.93)">
                        <path d="M768,524.038L768,568" style="fill:none;stroke:black;stroke-width:0.57px;stroke-linecap:square;stroke-linejoin:round;stroke-miterlimit:1.5;"/>
                    </g>
                    <g transform="matrix(0.866025,-0.5,0.363518,0.629632,-371.594,713.016)">
                        <path d="M768,524.038L768,568" style="fill:none;stroke:black;stroke-width:0.57px;stroke-linecap:square;stroke-linejoin:round;stroke-miterlimit:1.5;"/>
                    </g>
                    <g transform="matrix(0.866025,-0.5,0.363518,0.629632,112.404,1551.33)">
                        <path d="M768,524.038L768,568" style="fill:none;stroke:black;stroke-width:0.57px;stroke-linecap:square;stroke-linejoin:round;stroke-miterlimit:1.5;"/>
                    </g>
                    <g transform="matrix(-0.5,-0.866025,0.629632,-0.363518,1193.38,1713.55)">
                        <path d="M768,524.038L768,568" style="fill:none;stroke:black;stroke-width:0.57px;stroke-linecap:square;stroke-linejoin:round;stroke-miterlimit:1.5;"/>
                    </g>
                    <g transform="matrix(-0.5,-0.866025,0.629632,-0.363518,355.038,2197.57)">
                        <path d="M768,524.038L768,568" style="fill:none;stroke:black;stroke-width:0.57px;stroke-linecap:square;stroke-linejoin:round;stroke-miterlimit:1.5;"/>
                    </g>
                    <g transform="matrix(1,0,0,0.727036,-34,210.969)">
                        <path d="M768,524.038L768,568" style="fill:none;stroke:black;stroke-width:0.57px;stroke-linecap:square;stroke-linejoin:round;stroke-miterlimit:1.5;"/>
                    </g>
                    <g transform="matrix(1,0,0,0.727036,-34,1179)">
                        <path d="M768,524.038L768,568" style="fill:none;stroke:black;stroke-width:0.57px;stroke-linecap:square;stroke-linejoin:round;stroke-miterlimit:1.5;"/>
                    </g>
                    <g transform="matrix(6.12323e-17,-1,0.727036,4.45181e-17,821.022,1859.96)">
                        <path d="M768,524.038L768,568" style="fill:none;stroke:black;stroke-width:0.57px;stroke-linecap:square;stroke-linejoin:round;stroke-miterlimit:1.5;"/>
                    </g>
                    <g transform="matrix(6.12323e-17,-1,0.727036,4.45181e-17,-146.974,1859.96)">
                        <path d="M768,524.038L768,568" style="fill:none;stroke:black;stroke-width:0.57px;stroke-linecap:square;stroke-linejoin:round;stroke-miterlimit:1.5;"/>
                    </g>
                </g>
                <g transform="matrix(-1.09813,0,0,-1.09811,1579.66,2245.28)">
                    <g transform="matrix(0.545852,-0.945443,0.9537,0.550619,-641.299,1170.26)">
                        <ellipse cx="692" cy="1046" rx="458" ry="454" style="fill:none;stroke:black;stroke-width:8.31px;stroke-linecap:round;stroke-linejoin:round;stroke-miterlimit:1.5;"/>
                    </g>
                    <g transform="matrix(0.5,-0.866025,0.629632,0.363518,-412.931,1316.59)">
                        <path d="M768,524.038L768,568" style="fill:none;stroke:black;stroke-width:10.42px;stroke-linecap:round;stroke-linejoin:round;stroke-miterlimit:1.5;"/>
                    </g>
                    <g transform="matrix(0.5,-0.866025,0.629632,0.363518,425.349,1800.57)">
                        <path d="M768,524.038L768,568" style="fill:none;stroke:black;stroke-width:10.42px;stroke-linecap:round;stroke-linejoin:round;stroke-miterlimit:1.5;"/>
                    </g>
                    <g transform="matrix(-0.866025,-0.5,0.363518,-0.629632,1442.63,1400.58)">
                        <path d="M768,524.038L768,568" style="fill:none;stroke:black;stroke-width:10.42px;stroke-linecap:round;stroke-linejoin:round;stroke-miterlimit:1.5;"/>
                    </g>
                    <g transform="matrix(-0.866025,-0.5,0.363518,-0.629632,958.61,2238.93)">
                        <path d="M768,524.038L768,568" style="fill:none;stroke:black;stroke-width:10.42px;stroke-linecap:round;stroke-linejoin:round;stroke-miterlimit:1.5;"/>
                    </g>
                    <g transform="matrix(0.866025,-0.5,0.363518,0.629632,-371.594,713.016)">
                        <path d="M768,524.038L768,568" style="fill:none;stroke:black;stroke-width:10.42px;stroke-linecap:round;stroke-linejoin:round;stroke-miterlimit:1.5;"/>
                    </g>
                    <g transform="matrix(0.866025,-0.5,0.363518,0.629632,112.404,1551.33)">
                        <path d="M768,524.038L768,568" style="fill:none;stroke:black;stroke-width:10.42px;stroke-linecap:round;stroke-linejoin:round;stroke-miterlimit:1.5;"/>
                    </g>
                    <g transform="matrix(-0.5,-0.866025,0.629632,-0.363518,1193.38,1713.55)">
                        <path d="M768,524.038L768,568" style="fill:none;stroke:black;stroke-width:10.42px;stroke-linecap:round;stroke-linejoin:round;stroke-miterlimit:1.5;"/>
                    </g>
                    <g transform="matrix(-0.5,-0.866025,0.629632,-0.363518,355.038,2197.57)">
                        <path d="M768,524.038L768,568" style="fill:none;stroke:black;stroke-width:10.42px;stroke-linecap:round;stroke-linejoin:round;stroke-miterlimit:1.5;"/>
                    </g>
                    <g transform="matrix(1,0,0,0.727036,-34,210.969)">
                        <path d="M768,524.038L768,568" style="fill:none;stroke:black;stroke-width:10.42px;stroke-linecap:round;stroke-linejoin:round;stroke-miterlimit:1.5;"/>
                    </g>
                    <g transform="matrix(1,0,0,0.727036,-34,1179)">
                        <path d="M768,524.038L768,568" style="fill:none;stroke:black;stroke-width:10.42px;stroke-linecap:round;stroke-linejoin:round;stroke-miterlimit:1.5;"/>
                    </g>
                    <g transform="matrix(6.12323e-17,-1,0.727036,4.45181e-17,821.022,1859.96)">
                        <path d="M768,524.038L768,568" style="fill:none;stroke:black;stroke-width:10.42px;stroke-linecap:round;stroke-linejoin:round;stroke-miterlimit:1.5;"/>
                    </g>
                    <g transform="matrix(6.12323e-17,-1,0.727036,4.45181e-17,-146.974,1859.96)">
                        <path d="M768,524.038L768,568" style="fill:none;stroke:black;stroke-width:10.42px;stroke-linecap:round;stroke-linejoin:round;stroke-miterlimit:1.5;"/>
                    </g>
                </g>
                <g transform="matrix(-0.583619,-1.01086,0.902565,-0.521096,274.4,2320.36)">
                    <g id="Root-Markers" serif:id="Root Markers">
                        <path id="_8" serif:id="8" d="M731.999,618L768,730L695.999,730L731.999,618ZM731.999,680.84L740.959,708.715C740.959,708.715 723.04,708.715 723.04,708.715L731.999,680.84Z"/>
                    </g>
                </g>
                <g id="_81" serif:id="8" transform="matrix(-1.39762,2.4207,-2.45799,-1.41909,2664.62,218.751)">
                    <ellipse cx="766" cy="526.5" rx="33" ry="32.5" style="fill:rgb(167,29,56);stroke:white;stroke-width:8.52px;stroke-linecap:round;stroke-linejoin:round;stroke-miterlimit:1.5;"/>
                </g>
                <g id="_3" serif:id="3" transform="matrix(-1.39762,2.4207,-2.45799,-1.41909,3685.18,-55.5762)">
                    <ellipse cx="766" cy="526.5" rx="33" ry="32.5" style="fill:rgb(167,29,56);stroke:white;stroke-width:8.52px;stroke-linecap:round;stroke-linejoin:round;stroke-miterlimit:1.5;"/>
                </g>
                <g id="_0" serif:id="0" transform="matrix(-1.39762,2.4207,-2.45799,-1.41909,3138.34,-603.96)">
                    <ellipse cx="766" cy="526.5" rx="33" ry="32.5" style="fill:rgb(167,29,56);stroke:white;stroke-width:8.52px;stroke-linecap:round;stroke-linejoin:round;stroke-miterlimit:1.5;"/>
                </g>
            </g>
			</a>
        </g>
    </g>
</svg>
