<?xml version="1.0" encoding="UTF-8" standalone="no"?>
<!DOCTYPE svg PUBLIC "-//W3C//DTD SVG 1.1//EN" "http://www.w3.org/Graphics/SVG/1.1/DTD/svg11.dtd">
<svg width="100%" height="100%" viewBox="0 0 2048 2732" version="1.1" xmlns="http://www.w3.org/2000/svg" xmlns:xlink="http://www.w3.org/1999/xlink" xml:space="preserve" xmlns:serif="http://www.serif.com/" style="fill-rule:evenodd;clip-rule:evenodd;stroke-linecap:square;stroke-linejoin:round;stroke-miterlimit:1.5;">
    <rect id="PRE-C3" x="0" y="0" width="2048" height="2732" style="fill:none;"/>
    <g id="PRE-C31" serif:id="PRE-C3">
		<a xlink:href="C3-REFOCUS.svg">
        <g id="S">
            <g transform="matrix(1,0,0,1,22,300)">
                <rect x="0" y="0" width="1501.06" height="1501.09" style="fill:white;"/>
            </g>
            <g id="Meta-Ring-and-Background" serif:id="Meta-Ring and Background" transform="matrix(-1.09813,0,0,-1.09813,1578.56,2249.66)">
                <g transform="matrix(0.545852,-0.945443,0.9537,0.550619,-641.299,1170.26)">
                    <ellipse cx="692" cy="1046" rx="458" ry="454" style="fill:none;stroke:black;stroke-width:0.46px;"/>
                </g>
                <g transform="matrix(0.5,-0.866025,0.629632,0.363518,-412.931,1316.59)">
                    <path d="M768,524.038L768,568" style="fill:none;stroke:black;stroke-width:0.57px;"/>
                </g>
                <g transform="matrix(0.5,-0.866025,0.629632,0.363518,425.349,1800.57)">
                    <path d="M768,524.038L768,568" style="fill:none;stroke:black;stroke-width:0.57px;"/>
                </g>
                <g transform="matrix(-0.866025,-0.5,0.363518,-0.629632,1442.63,1400.58)">
                    <path d="M768,524.038L768,568" style="fill:none;stroke:black;stroke-width:0.57px;"/>
                </g>
                <g transform="matrix(-0.866025,-0.5,0.363518,-0.629632,958.61,2238.93)">
                    <path d="M768,524.038L768,568" style="fill:none;stroke:black;stroke-width:0.57px;"/>
                </g>
                <g transform="matrix(0.866025,-0.5,0.363518,0.629632,-371.594,713.016)">
                    <path d="M768,524.038L768,568" style="fill:none;stroke:black;stroke-width:0.57px;"/>
                </g>
                <g transform="matrix(0.866025,-0.5,0.363518,0.629632,112.404,1551.33)">
                    <path d="M768,524.038L768,568" style="fill:none;stroke:black;stroke-width:0.57px;"/>
                </g>
                <g transform="matrix(-0.5,-0.866025,0.629632,-0.363518,1193.38,1713.55)">
                    <path d="M768,524.038L768,568" style="fill:none;stroke:black;stroke-width:0.57px;"/>
                </g>
                <g transform="matrix(-0.5,-0.866025,0.629632,-0.363518,355.038,2197.57)">
                    <path d="M768,524.038L768,568" style="fill:none;stroke:black;stroke-width:0.57px;"/>
                </g>
                <g transform="matrix(1,0,0,0.727036,-34,210.969)">
                    <path d="M768,524.038L768,568" style="fill:none;stroke:black;stroke-width:0.57px;"/>
                </g>
                <g transform="matrix(1,0,0,0.727036,-34,1179)">
                    <path d="M768,524.038L768,568" style="fill:none;stroke:black;stroke-width:0.57px;"/>
                </g>
                <g transform="matrix(6.12323e-17,-1,0.727036,4.45181e-17,821.022,1859.96)">
                    <path d="M768,524.038L768,568" style="fill:none;stroke:black;stroke-width:0.57px;"/>
                </g>
                <g transform="matrix(6.12323e-17,-1,0.727036,4.45181e-17,-146.974,1859.96)">
                    <path d="M768,524.038L768,568" style="fill:none;stroke:black;stroke-width:0.57px;"/>
                </g>
            </g>
            <g transform="matrix(1.16724,4.24124e-16,-3.22999e-16,1.04219,-80.0346,-25.436)">
                <g id="Root-Markers" serif:id="Root Markers">
                    <path id="_0" serif:id="0" d="M731.999,618L768,730L695.999,730L731.999,618ZM731.999,680.557L741.081,708.811C741.081,708.811 722.918,708.811 722.918,708.811L731.999,680.557Z"/>
                </g>
            </g>
            <g transform="matrix(-1.09813,0,0,-1.09811,1579.66,2245.28)">
                <g transform="matrix(0.545852,-0.945443,0.9537,0.550619,-641.299,1170.26)">
                    <ellipse cx="692" cy="1046" rx="458" ry="454" style="fill:none;stroke:black;stroke-width:8.31px;stroke-linecap:round;"/>
                </g>
                <g transform="matrix(0.5,-0.866025,0.629632,0.363518,-412.931,1316.59)">
                    <path d="M768,524.038L768,568" style="fill:none;stroke:black;stroke-width:10.42px;stroke-linecap:round;"/>
                </g>
                <g transform="matrix(0.5,-0.866025,0.629632,0.363518,425.349,1800.57)">
                    <path d="M768,524.038L768,568" style="fill:none;stroke:black;stroke-width:10.42px;stroke-linecap:round;"/>
                </g>
                <g transform="matrix(-0.866025,-0.5,0.363518,-0.629632,1442.63,1400.58)">
                    <path d="M768,524.038L768,568" style="fill:none;stroke:black;stroke-width:10.42px;stroke-linecap:round;"/>
                </g>
                <g transform="matrix(-0.866025,-0.5,0.363518,-0.629632,958.61,2238.93)">
                    <path d="M768,524.038L768,568" style="fill:none;stroke:black;stroke-width:10.42px;stroke-linecap:round;"/>
                </g>
                <g transform="matrix(0.866025,-0.5,0.363518,0.629632,-371.594,713.016)">
                    <path d="M768,524.038L768,568" style="fill:none;stroke:black;stroke-width:10.42px;stroke-linecap:round;"/>
                </g>
                <g transform="matrix(0.866025,-0.5,0.363518,0.629632,112.404,1551.33)">
                    <path d="M768,524.038L768,568" style="fill:none;stroke:black;stroke-width:10.42px;stroke-linecap:round;"/>
                </g>
                <g transform="matrix(-0.5,-0.866025,0.629632,-0.363518,1193.38,1713.55)">
                    <path d="M768,524.038L768,568" style="fill:none;stroke:black;stroke-width:10.42px;stroke-linecap:round;"/>
                </g>
                <g transform="matrix(-0.5,-0.866025,0.629632,-0.363518,355.038,2197.57)">
                    <path d="M768,524.038L768,568" style="fill:none;stroke:black;stroke-width:10.42px;stroke-linecap:round;"/>
                </g>
                <g transform="matrix(1,0,0,0.727036,-34,210.969)">
                    <path d="M768,524.038L768,568" style="fill:none;stroke:black;stroke-width:10.42px;stroke-linecap:round;"/>
                </g>
                <g transform="matrix(1,0,0,0.727036,-34,1179)">
                    <path d="M768,524.038L768,568" style="fill:none;stroke:black;stroke-width:10.42px;stroke-linecap:round;"/>
                </g>
                <g transform="matrix(6.12323e-17,-1,0.727036,4.45181e-17,821.022,1859.96)">
                    <path d="M768,524.038L768,568" style="fill:none;stroke:black;stroke-width:10.42px;stroke-linecap:round;"/>
                </g>
                <g transform="matrix(6.12323e-17,-1,0.727036,4.45181e-17,-146.974,1859.96)">
                    <path d="M768,524.038L768,568" style="fill:none;stroke:black;stroke-width:10.42px;stroke-linecap:round;"/>
                </g>
            </g>
            <g id="_7" serif:id="7" transform="matrix(-1.39762,2.4207,-2.45799,-1.41909,2868.72,413.119)">
                <ellipse cx="766" cy="526.5" rx="33" ry="32.5" style="fill:rgb(255,66,53);stroke:white;stroke-width:8.52px;stroke-linecap:round;"/>
            </g>
            <g id="_5" serif:id="5" transform="matrix(-1.39762,2.4207,-2.45799,-1.41909,3411.9,417.908)">
                <ellipse cx="766" cy="526.5" rx="33" ry="32.5" style="fill:rgb(255,66,53);stroke:white;stroke-width:8.52px;stroke-linecap:round;"/>
            </g>
            <g id="_4" serif:id="4" transform="matrix(-1.39762,2.4207,-2.45799,-1.41909,3610.11,216.565)">
                <ellipse cx="766" cy="526.5" rx="33" ry="32.5" style="fill:rgb(255,66,53);stroke:white;stroke-width:8.52px;stroke-linecap:round;"/>
            </g>
            <g id="_01" serif:id="0" transform="matrix(-1.39762,2.4207,-2.45799,-1.41909,3138.34,-603.96)">
                <ellipse cx="766" cy="526.5" rx="33" ry="32.5" style="fill:rgb(255,66,53);stroke:white;stroke-width:8.52px;stroke-linecap:round;"/>
            </g>
        </g>
		</a>
        <g id="Text">
            <g transform="matrix(1,0,0,1,166,-108.376)">
                <g transform="matrix(75,0,0,75,1500.59,1765.71)">
                    <path d="M0.774,-0.216C0.744,-0.218 0.713,-0.219 0.682,-0.219C0.663,-0.219 0.644,-0.219 0.625,-0.218C0.606,-0.217 0.588,-0.216 0.569,-0.215L0.569,0.018C0.569,0.053 0.559,0.079 0.539,0.098C0.519,0.117 0.49,0.127 0.453,0.127C0.432,0.127 0.412,0.121 0.396,0.11C0.379,0.099 0.365,0.088 0.355,0.077C0.38,0.079 0.4,0.077 0.414,0.072C0.429,0.067 0.436,0.058 0.436,0.043L0.436,-0.201C0.404,-0.196 0.373,-0.19 0.342,-0.184C0.311,-0.178 0.282,-0.171 0.253,-0.164C0.24,-0.161 0.224,-0.157 0.205,-0.152C0.187,-0.147 0.171,-0.145 0.157,-0.145C0.136,-0.145 0.118,-0.15 0.103,-0.159C0.088,-0.168 0.075,-0.181 0.065,-0.196C0.054,-0.211 0.046,-0.229 0.041,-0.25C0.035,-0.271 0.032,-0.293 0.031,-0.316C0.051,-0.295 0.076,-0.28 0.106,-0.272C0.135,-0.264 0.167,-0.26 0.201,-0.26L0.23,-0.26C0.24,-0.26 0.25,-0.261 0.261,-0.262C0.299,-0.272 0.337,-0.288 0.376,-0.309C0.414,-0.33 0.448,-0.351 0.478,-0.372C0.466,-0.373 0.454,-0.374 0.442,-0.375C0.429,-0.376 0.417,-0.377 0.404,-0.379C0.398,-0.368 0.39,-0.36 0.38,-0.356C0.369,-0.352 0.36,-0.35 0.353,-0.35C0.335,-0.35 0.321,-0.354 0.311,-0.362C0.3,-0.369 0.295,-0.381 0.295,-0.396L0.295,-0.585C0.295,-0.616 0.291,-0.639 0.283,-0.653C0.276,-0.666 0.263,-0.677 0.245,-0.685C0.26,-0.687 0.276,-0.688 0.292,-0.689C0.307,-0.689 0.322,-0.688 0.336,-0.685C0.35,-0.682 0.363,-0.678 0.375,-0.673C0.386,-0.667 0.395,-0.659 0.402,-0.649C0.419,-0.658 0.438,-0.666 0.458,-0.673C0.478,-0.68 0.498,-0.687 0.518,-0.693C0.537,-0.698 0.556,-0.703 0.574,-0.706C0.591,-0.709 0.607,-0.711 0.62,-0.711C0.651,-0.711 0.674,-0.705 0.687,-0.693C0.7,-0.681 0.707,-0.663 0.706,-0.64C0.706,-0.633 0.705,-0.624 0.703,-0.613C0.701,-0.601 0.698,-0.588 0.695,-0.574C0.692,-0.559 0.688,-0.544 0.684,-0.529C0.68,-0.514 0.676,-0.5 0.672,-0.487C0.683,-0.486 0.693,-0.482 0.702,-0.475C0.711,-0.468 0.715,-0.457 0.714,-0.442C0.713,-0.431 0.707,-0.42 0.696,-0.408C0.685,-0.398 0.669,-0.389 0.648,-0.384C0.639,-0.382 0.63,-0.38 0.62,-0.379C0.609,-0.377 0.598,-0.375 0.587,-0.374C0.573,-0.368 0.559,-0.362 0.544,-0.355C0.529,-0.348 0.515,-0.341 0.5,-0.334C0.478,-0.323 0.455,-0.313 0.431,-0.302C0.407,-0.291 0.382,-0.28 0.357,-0.271C0.366,-0.272 0.375,-0.274 0.384,-0.275C0.392,-0.276 0.4,-0.277 0.409,-0.278C0.43,-0.281 0.453,-0.284 0.477,-0.288C0.502,-0.292 0.526,-0.296 0.551,-0.301C0.576,-0.306 0.6,-0.311 0.624,-0.317C0.648,-0.322 0.671,-0.328 0.692,-0.335C0.701,-0.338 0.716,-0.342 0.736,-0.345C0.755,-0.349 0.775,-0.351 0.795,-0.351C0.807,-0.351 0.819,-0.35 0.83,-0.348C0.841,-0.347 0.85,-0.344 0.859,-0.339C0.868,-0.334 0.875,-0.328 0.879,-0.321C0.884,-0.314 0.887,-0.304 0.887,-0.293C0.887,-0.278 0.883,-0.265 0.876,-0.255C0.87,-0.244 0.861,-0.236 0.85,-0.23C0.839,-0.224 0.826,-0.22 0.813,-0.218C0.8,-0.215 0.787,-0.215 0.774,-0.216ZM0.567,-0.605C0.542,-0.601 0.515,-0.595 0.488,-0.586C0.46,-0.577 0.435,-0.567 0.413,-0.558L0.413,-0.45C0.429,-0.451 0.446,-0.453 0.464,-0.456C0.481,-0.458 0.499,-0.46 0.516,-0.463C0.529,-0.469 0.539,-0.478 0.544,-0.492C0.549,-0.504 0.553,-0.515 0.555,-0.522C0.558,-0.535 0.561,-0.548 0.563,-0.56C0.564,-0.572 0.566,-0.587 0.567,-0.605Z" style="fill:rgb(255,66,53);fill-rule:nonzero;"/>
                </g>
                <g transform="matrix(75,0,0,75,1569.59,1765.71)">
                    <path d="M0.59,-0.355C0.579,-0.371 0.567,-0.386 0.555,-0.4C0.543,-0.414 0.529,-0.427 0.514,-0.44C0.528,-0.441 0.545,-0.441 0.565,-0.441C0.584,-0.44 0.604,-0.438 0.625,-0.435C0.646,-0.432 0.666,-0.427 0.685,-0.42C0.704,-0.413 0.72,-0.404 0.733,-0.393C0.743,-0.384 0.751,-0.375 0.757,-0.365C0.763,-0.355 0.766,-0.345 0.766,-0.336C0.766,-0.317 0.759,-0.302 0.747,-0.292C0.734,-0.282 0.717,-0.277 0.698,-0.277C0.682,-0.277 0.668,-0.28 0.657,-0.287C0.638,-0.285 0.619,-0.283 0.599,-0.281C0.578,-0.278 0.558,-0.275 0.539,-0.272C0.557,-0.268 0.572,-0.26 0.585,-0.249C0.597,-0.237 0.603,-0.22 0.603,-0.198C0.603,-0.187 0.599,-0.173 0.59,-0.155C0.581,-0.136 0.564,-0.117 0.539,-0.098C0.566,-0.103 0.593,-0.109 0.619,-0.115C0.644,-0.121 0.669,-0.128 0.692,-0.135C0.701,-0.138 0.716,-0.142 0.736,-0.146C0.755,-0.149 0.775,-0.151 0.795,-0.151C0.807,-0.151 0.819,-0.15 0.83,-0.149C0.841,-0.147 0.85,-0.144 0.859,-0.139C0.868,-0.134 0.875,-0.128 0.879,-0.121C0.884,-0.114 0.887,-0.104 0.887,-0.093C0.887,-0.078 0.883,-0.065 0.876,-0.055C0.87,-0.044 0.861,-0.036 0.85,-0.03C0.839,-0.024 0.826,-0.02 0.813,-0.018C0.8,-0.015 0.787,-0.015 0.774,-0.016C0.744,-0.018 0.713,-0.019 0.682,-0.019C0.609,-0.019 0.535,-0.014 0.462,-0.005C0.388,0.005 0.318,0.019 0.253,0.036C0.24,0.039 0.224,0.043 0.205,0.048C0.187,0.053 0.171,0.055 0.157,0.055C0.136,0.055 0.118,0.05 0.103,0.041C0.088,0.032 0.075,0.019 0.065,0.004C0.054,-0.011 0.046,-0.029 0.041,-0.05C0.035,-0.071 0.032,-0.093 0.031,-0.116C0.051,-0.095 0.076,-0.08 0.106,-0.072C0.135,-0.064 0.167,-0.06 0.201,-0.06C0.234,-0.06 0.269,-0.062 0.305,-0.066C0.341,-0.07 0.376,-0.074 0.409,-0.078C0.428,-0.081 0.449,-0.084 0.471,-0.087C0.494,-0.09 0.516,-0.094 0.539,-0.098C0.527,-0.089 0.513,-0.08 0.497,-0.071C0.481,-0.062 0.462,-0.054 0.441,-0.046L0.298,-0.058C0.331,-0.066 0.357,-0.076 0.377,-0.089C0.397,-0.101 0.412,-0.113 0.423,-0.126C0.434,-0.138 0.441,-0.149 0.444,-0.16C0.447,-0.17 0.449,-0.177 0.449,-0.181C0.449,-0.19 0.447,-0.2 0.443,-0.21C0.439,-0.219 0.427,-0.229 0.407,-0.239C0.42,-0.25 0.434,-0.258 0.45,-0.265C0.465,-0.272 0.483,-0.275 0.502,-0.276C0.519,-0.281 0.539,-0.288 0.56,-0.295C0.581,-0.302 0.602,-0.308 0.623,-0.313C0.611,-0.326 0.6,-0.34 0.59,-0.355ZM0.558,-0.534C0.547,-0.518 0.532,-0.497 0.513,-0.472C0.494,-0.447 0.473,-0.421 0.453,-0.394C0.432,-0.367 0.411,-0.342 0.392,-0.318C0.373,-0.294 0.357,-0.275 0.345,-0.262C0.326,-0.241 0.307,-0.226 0.289,-0.218C0.271,-0.209 0.254,-0.205 0.238,-0.205C0.225,-0.205 0.213,-0.207 0.203,-0.21C0.193,-0.213 0.183,-0.218 0.173,-0.225C0.163,-0.232 0.151,-0.243 0.138,-0.258C0.158,-0.26 0.175,-0.264 0.191,-0.27C0.205,-0.276 0.219,-0.286 0.232,-0.301C0.243,-0.314 0.258,-0.331 0.277,-0.354C0.296,-0.377 0.315,-0.4 0.335,-0.425C0.354,-0.45 0.373,-0.473 0.39,-0.496C0.407,-0.519 0.42,-0.537 0.429,-0.55C0.434,-0.557 0.434,-0.567 0.429,-0.58C0.424,-0.592 0.416,-0.603 0.407,-0.613C0.405,-0.615 0.403,-0.618 0.4,-0.621C0.397,-0.624 0.395,-0.626 0.394,-0.629C0.393,-0.632 0.392,-0.636 0.393,-0.639C0.393,-0.642 0.396,-0.646 0.401,-0.649C0.405,-0.652 0.41,-0.654 0.418,-0.656C0.425,-0.658 0.433,-0.66 0.442,-0.661C0.451,-0.662 0.46,-0.663 0.47,-0.664C0.48,-0.665 0.49,-0.665 0.499,-0.665C0.506,-0.665 0.513,-0.665 0.52,-0.665C0.526,-0.664 0.531,-0.664 0.536,-0.663C0.559,-0.66 0.577,-0.651 0.589,-0.637C0.601,-0.623 0.606,-0.607 0.604,-0.589C0.603,-0.58 0.599,-0.572 0.594,-0.567C0.588,-0.562 0.582,-0.557 0.577,-0.552C0.574,-0.55 0.57,-0.547 0.567,-0.544C0.563,-0.541 0.56,-0.537 0.558,-0.534Z" style="fill:rgb(255,66,53);fill-rule:nonzero;"/>
                </g>
                <g transform="matrix(75,0,0,75,1638.59,1765.71)">
                    <path d="M0.774,-0.201C0.744,-0.203 0.713,-0.204 0.682,-0.204C0.663,-0.204 0.644,-0.204 0.625,-0.203C0.606,-0.202 0.588,-0.201 0.569,-0.2L0.569,0.018C0.569,0.053 0.559,0.079 0.539,0.098C0.519,0.117 0.49,0.127 0.453,0.127C0.432,0.127 0.412,0.121 0.396,0.11C0.379,0.099 0.365,0.088 0.355,0.077C0.38,0.079 0.4,0.077 0.414,0.072C0.429,0.067 0.436,0.058 0.436,0.043L0.436,-0.186C0.404,-0.181 0.373,-0.175 0.342,-0.169C0.311,-0.163 0.282,-0.156 0.253,-0.149C0.24,-0.146 0.224,-0.142 0.205,-0.137C0.187,-0.132 0.171,-0.13 0.157,-0.13C0.136,-0.13 0.118,-0.135 0.103,-0.144C0.088,-0.153 0.075,-0.166 0.065,-0.181C0.054,-0.196 0.046,-0.214 0.041,-0.235C0.035,-0.256 0.032,-0.278 0.031,-0.301C0.051,-0.28 0.076,-0.265 0.106,-0.257C0.135,-0.249 0.167,-0.245 0.201,-0.245C0.214,-0.245 0.228,-0.245 0.242,-0.246C0.256,-0.247 0.27,-0.248 0.285,-0.249C0.324,-0.261 0.363,-0.278 0.401,-0.3C0.439,-0.321 0.472,-0.342 0.5,-0.362C0.489,-0.36 0.476,-0.359 0.462,-0.359C0.451,-0.359 0.44,-0.36 0.431,-0.362C0.421,-0.363 0.412,-0.366 0.405,-0.37C0.4,-0.353 0.393,-0.341 0.383,-0.336C0.373,-0.331 0.363,-0.328 0.354,-0.328C0.336,-0.328 0.322,-0.332 0.312,-0.341C0.301,-0.349 0.296,-0.362 0.296,-0.379L0.296,-0.568C0.296,-0.585 0.295,-0.6 0.294,-0.612C0.292,-0.624 0.289,-0.634 0.286,-0.643C0.283,-0.651 0.278,-0.658 0.272,-0.663C0.266,-0.668 0.259,-0.673 0.25,-0.678C0.266,-0.68 0.283,-0.681 0.302,-0.681C0.321,-0.681 0.338,-0.679 0.354,-0.674C0.37,-0.669 0.383,-0.66 0.394,-0.649C0.405,-0.638 0.41,-0.622 0.41,-0.602L0.41,-0.6C0.43,-0.604 0.45,-0.608 0.469,-0.613C0.489,-0.617 0.507,-0.621 0.523,-0.626C0.54,-0.63 0.553,-0.632 0.562,-0.631C0.56,-0.659 0.556,-0.68 0.549,-0.695C0.542,-0.709 0.531,-0.72 0.518,-0.727C0.536,-0.729 0.555,-0.73 0.575,-0.73C0.595,-0.729 0.613,-0.726 0.63,-0.721C0.647,-0.715 0.661,-0.705 0.672,-0.692C0.683,-0.679 0.688,-0.66 0.688,-0.635L0.688,-0.452C0.688,-0.434 0.686,-0.42 0.682,-0.408C0.678,-0.398 0.673,-0.389 0.667,-0.383C0.661,-0.376 0.654,-0.372 0.647,-0.37C0.64,-0.367 0.633,-0.366 0.627,-0.366C0.622,-0.366 0.618,-0.366 0.615,-0.367C0.611,-0.367 0.607,-0.367 0.604,-0.368C0.586,-0.362 0.567,-0.354 0.548,-0.345C0.528,-0.336 0.507,-0.326 0.486,-0.315C0.465,-0.304 0.443,-0.294 0.42,-0.283C0.397,-0.273 0.374,-0.264 0.351,-0.256C0.361,-0.257 0.371,-0.259 0.381,-0.26C0.39,-0.261 0.4,-0.262 0.409,-0.263C0.43,-0.266 0.453,-0.269 0.477,-0.273C0.502,-0.277 0.526,-0.281 0.551,-0.286C0.576,-0.291 0.6,-0.296 0.624,-0.302C0.648,-0.307 0.671,-0.313 0.692,-0.32C0.701,-0.323 0.716,-0.327 0.736,-0.331C0.755,-0.334 0.775,-0.336 0.795,-0.336C0.807,-0.336 0.819,-0.335 0.83,-0.334C0.841,-0.332 0.85,-0.329 0.859,-0.324C0.868,-0.319 0.875,-0.313 0.879,-0.306C0.884,-0.299 0.887,-0.289 0.887,-0.278C0.887,-0.263 0.883,-0.25 0.876,-0.239C0.87,-0.229 0.861,-0.221 0.85,-0.215C0.839,-0.209 0.826,-0.205 0.813,-0.203C0.8,-0.2 0.787,-0.2 0.774,-0.201ZM0.437,-0.471C0.447,-0.478 0.457,-0.486 0.467,-0.494C0.477,-0.502 0.486,-0.51 0.495,-0.519C0.482,-0.517 0.468,-0.516 0.454,-0.515C0.44,-0.514 0.425,-0.514 0.41,-0.515L0.41,-0.445C0.425,-0.446 0.44,-0.448 0.455,-0.451C0.469,-0.454 0.485,-0.457 0.502,-0.461C0.511,-0.463 0.521,-0.465 0.53,-0.468C0.539,-0.47 0.55,-0.472 0.563,-0.474L0.563,-0.533C0.553,-0.526 0.542,-0.519 0.531,-0.513C0.52,-0.506 0.508,-0.5 0.497,-0.495C0.485,-0.49 0.474,-0.485 0.464,-0.481C0.453,-0.477 0.444,-0.474 0.437,-0.471Z" style="fill:rgb(255,66,53);fill-rule:nonzero;"/>
                </g>
                <g transform="matrix(75,0,0,75,1707.59,1765.71)">
                    <path d="M0.642,-0.258C0.627,-0.246 0.611,-0.24 0.592,-0.239L0.592,-0.065C0.592,-0.034 0.583,-0.011 0.564,0.006C0.545,0.023 0.52,0.031 0.487,0.031C0.476,0.031 0.464,0.027 0.453,0.019C0.441,0.012 0.432,0.001 0.427,-0.014C0.437,-0.014 0.447,-0.016 0.457,-0.02C0.466,-0.023 0.471,-0.031 0.471,-0.044L0.471,-0.494C0.471,-0.525 0.463,-0.551 0.447,-0.573C0.431,-0.595 0.406,-0.612 0.372,-0.623C0.395,-0.628 0.416,-0.633 0.434,-0.636C0.451,-0.64 0.468,-0.642 0.483,-0.642C0.498,-0.642 0.512,-0.641 0.527,-0.637C0.541,-0.634 0.553,-0.629 0.564,-0.622C0.575,-0.615 0.583,-0.605 0.59,-0.593C0.597,-0.58 0.6,-0.565 0.6,-0.546C0.6,-0.534 0.599,-0.522 0.596,-0.51C0.593,-0.498 0.592,-0.485 0.592,-0.47L0.592,-0.361C0.609,-0.368 0.626,-0.379 0.642,-0.394L0.642,-0.589C0.642,-0.662 0.594,-0.713 0.498,-0.742C0.522,-0.747 0.546,-0.752 0.57,-0.755C0.593,-0.758 0.614,-0.76 0.631,-0.76C0.651,-0.76 0.671,-0.758 0.69,-0.755C0.709,-0.752 0.725,-0.746 0.74,-0.737C0.755,-0.728 0.767,-0.717 0.776,-0.703C0.785,-0.689 0.789,-0.671 0.789,-0.65C0.789,-0.643 0.789,-0.636 0.788,-0.63C0.787,-0.625 0.786,-0.619 0.785,-0.612C0.784,-0.605 0.783,-0.598 0.782,-0.59C0.781,-0.582 0.78,-0.572 0.78,-0.561L0.78,0.038C0.78,0.073 0.769,0.099 0.748,0.118C0.727,0.137 0.697,0.147 0.66,0.147C0.639,0.147 0.62,0.141 0.603,0.13C0.586,0.119 0.572,0.108 0.562,0.097C0.587,0.099 0.607,0.097 0.621,0.092C0.635,0.087 0.642,0.078 0.642,0.063L0.642,-0.258ZM-0.012,-0.07C0.008,-0.074 0.025,-0.083 0.04,-0.098C0.055,-0.113 0.067,-0.128 0.078,-0.144L0.242,-0.375C0.231,-0.372 0.22,-0.37 0.209,-0.369C0.198,-0.367 0.186,-0.366 0.173,-0.366C0.154,-0.366 0.137,-0.374 0.122,-0.389C0.107,-0.404 0.098,-0.428 0.094,-0.463C0.103,-0.46 0.112,-0.458 0.119,-0.457C0.126,-0.456 0.133,-0.456 0.138,-0.456C0.151,-0.456 0.166,-0.458 0.181,-0.462C0.196,-0.466 0.211,-0.471 0.226,-0.476C0.245,-0.482 0.264,-0.488 0.283,-0.494C0.303,-0.5 0.325,-0.503 0.348,-0.503C0.357,-0.503 0.365,-0.502 0.374,-0.501C0.382,-0.5 0.389,-0.498 0.396,-0.495C0.403,-0.491 0.408,-0.486 0.412,-0.479C0.416,-0.472 0.418,-0.463 0.418,-0.452C0.418,-0.438 0.414,-0.427 0.406,-0.419C0.399,-0.411 0.389,-0.405 0.378,-0.4L0.311,-0.3C0.313,-0.3 0.315,-0.299 0.318,-0.298C0.327,-0.293 0.338,-0.285 0.35,-0.275C0.363,-0.264 0.376,-0.253 0.389,-0.24C0.391,-0.238 0.394,-0.237 0.398,-0.236C0.401,-0.236 0.405,-0.238 0.408,-0.242C0.413,-0.247 0.419,-0.256 0.426,-0.268C0.433,-0.28 0.441,-0.295 0.45,-0.313C0.444,-0.282 0.439,-0.257 0.435,-0.237C0.43,-0.217 0.429,-0.199 0.43,-0.184C0.431,-0.167 0.43,-0.152 0.427,-0.139C0.423,-0.126 0.412,-0.118 0.395,-0.115C0.38,-0.112 0.368,-0.115 0.361,-0.122C0.353,-0.129 0.347,-0.137 0.342,-0.147C0.337,-0.157 0.333,-0.168 0.33,-0.18C0.327,-0.191 0.323,-0.202 0.32,-0.213C0.317,-0.223 0.314,-0.232 0.311,-0.238C0.308,-0.246 0.304,-0.249 0.3,-0.25C0.291,-0.252 0.28,-0.248 0.268,-0.237L0.179,-0.104C0.166,-0.085 0.151,-0.07 0.132,-0.059C0.113,-0.049 0.093,-0.042 0.072,-0.039C0.059,-0.038 0.045,-0.039 0.03,-0.043C0.015,-0.046 0.001,-0.055 -0.012,-0.07Z" style="fill:rgb(255,66,53);fill-rule:nonzero;"/>
                </g>
            </g>
            <g transform="matrix(1,0,0,1,39.7018,65.9384)">
                <g transform="matrix(1,0,0,1,0,30)">
                    <g transform="matrix(1,0,0,1,117.046,888.221)">
                        <g transform="matrix(250,0,0,250,1500.59,493.346)">
                            <path d="M0.312,0.032C0.311,0.045 0.307,0.054 0.299,0.06C0.29,0.067 0.291,0.073 0.301,0.079C0.339,0.094 0.361,0.091 0.367,0.071C0.368,0.044 0.369,0.01 0.371,-0.031L0.371,-0.047C0.43,-0.064 0.512,-0.077 0.617,-0.085C0.708,-0.091 0.786,-0.085 0.853,-0.067C0.866,-0.059 0.873,-0.067 0.875,-0.09C0.876,-0.114 0.873,-0.128 0.865,-0.133C0.857,-0.138 0.851,-0.147 0.847,-0.159C0.842,-0.171 0.836,-0.176 0.83,-0.174C0.821,-0.171 0.796,-0.168 0.755,-0.166C0.716,-0.165 0.676,-0.161 0.635,-0.156C0.633,-0.179 0.633,-0.218 0.635,-0.271C0.668,-0.286 0.705,-0.3 0.748,-0.313C0.759,-0.317 0.764,-0.33 0.762,-0.352C0.761,-0.373 0.753,-0.383 0.739,-0.383C0.713,-0.38 0.68,-0.372 0.639,-0.358C0.642,-0.411 0.645,-0.44 0.648,-0.445C0.656,-0.459 0.642,-0.471 0.605,-0.481C0.566,-0.492 0.553,-0.483 0.564,-0.452C0.566,-0.441 0.567,-0.404 0.567,-0.34C0.537,-0.334 0.507,-0.33 0.476,-0.328C0.451,-0.331 0.442,-0.326 0.45,-0.311C0.457,-0.294 0.462,-0.278 0.464,-0.263C0.465,-0.247 0.473,-0.242 0.486,-0.249C0.515,-0.26 0.537,-0.263 0.553,-0.257C0.556,-0.256 0.56,-0.255 0.565,-0.255C0.564,-0.228 0.564,-0.205 0.565,-0.186C0.564,-0.17 0.563,-0.157 0.563,-0.146C0.492,-0.134 0.429,-0.122 0.374,-0.11C0.377,-0.189 0.381,-0.287 0.387,-0.404C0.387,-0.413 0.388,-0.422 0.39,-0.432C0.406,-0.457 0.424,-0.486 0.443,-0.517C0.444,-0.52 0.446,-0.525 0.45,-0.53C0.46,-0.531 0.471,-0.532 0.482,-0.534C0.575,-0.545 0.654,-0.563 0.721,-0.586C0.739,-0.59 0.748,-0.6 0.748,-0.615L0.748,-0.65C0.747,-0.659 0.727,-0.658 0.69,-0.648C0.615,-0.633 0.551,-0.621 0.498,-0.611C0.519,-0.651 0.535,-0.68 0.545,-0.698C0.558,-0.729 0.572,-0.75 0.586,-0.76C0.593,-0.767 0.582,-0.778 0.553,-0.792C0.523,-0.807 0.509,-0.806 0.511,-0.79C0.509,-0.779 0.485,-0.727 0.44,-0.634C0.433,-0.622 0.426,-0.61 0.42,-0.597C0.33,-0.581 0.282,-0.574 0.276,-0.576C0.265,-0.579 0.267,-0.563 0.28,-0.526C0.293,-0.489 0.303,-0.476 0.311,-0.486C0.321,-0.497 0.342,-0.507 0.373,-0.515C0.33,-0.446 0.278,-0.367 0.215,-0.28C0.165,-0.231 0.114,-0.185 0.061,-0.14C0.037,-0.118 0.037,-0.108 0.061,-0.11C0.114,-0.114 0.172,-0.143 0.236,-0.198C0.247,-0.207 0.254,-0.223 0.256,-0.247C0.257,-0.271 0.276,-0.3 0.311,-0.333C0.31,-0.334 0.311,-0.334 0.313,-0.335C0.316,-0.329 0.318,-0.32 0.318,-0.309L0.312,0.032Z" style="fill:rgb(255,66,53);fill-rule:nonzero;"/>
                        </g>
                    </g>
                    <g transform="matrix(1,0,0,1,117.046,30.6494)">
                        <g transform="matrix(250,0,0,250,1500.59,469.188)">
                            <path d="M0.259,-0.53C0.212,-0.484 0.174,-0.445 0.145,-0.412C0.13,-0.397 0.134,-0.392 0.155,-0.397C0.197,-0.414 0.233,-0.431 0.262,-0.446C0.291,-0.462 0.307,-0.481 0.311,-0.502C0.312,-0.523 0.319,-0.541 0.332,-0.558C0.336,-0.563 0.342,-0.571 0.35,-0.581C0.356,-0.567 0.36,-0.552 0.362,-0.537C0.363,-0.521 0.37,-0.516 0.384,-0.522C0.419,-0.535 0.445,-0.537 0.462,-0.529C0.478,-0.522 0.508,-0.527 0.551,-0.543C0.592,-0.558 0.638,-0.575 0.689,-0.593C0.7,-0.597 0.705,-0.609 0.703,-0.629C0.701,-0.648 0.694,-0.658 0.683,-0.658C0.653,-0.655 0.612,-0.646 0.559,-0.631C0.506,-0.614 0.445,-0.605 0.375,-0.602C0.371,-0.603 0.368,-0.603 0.366,-0.603C0.375,-0.614 0.386,-0.627 0.399,-0.643C0.432,-0.682 0.461,-0.712 0.486,-0.731C0.503,-0.737 0.497,-0.749 0.47,-0.768C0.441,-0.786 0.424,-0.79 0.418,-0.78C0.412,-0.771 0.407,-0.761 0.403,-0.751C0.358,-0.662 0.31,-0.589 0.259,-0.53ZM0.114,-0.16C0.103,-0.158 0.103,-0.145 0.112,-0.122C0.121,-0.097 0.132,-0.091 0.144,-0.103C0.15,-0.113 0.171,-0.122 0.206,-0.131C0.24,-0.14 0.286,-0.149 0.345,-0.158C0.404,-0.169 0.464,-0.179 0.526,-0.189C0.569,-0.197 0.627,-0.198 0.701,-0.192C0.776,-0.186 0.835,-0.172 0.88,-0.15C0.885,-0.145 0.89,-0.152 0.894,-0.169C0.896,-0.186 0.891,-0.206 0.879,-0.23C0.866,-0.253 0.854,-0.263 0.843,-0.259C0.829,-0.256 0.793,-0.256 0.734,-0.259C0.719,-0.26 0.705,-0.261 0.691,-0.261C0.687,-0.29 0.691,-0.313 0.702,-0.328C0.704,-0.339 0.708,-0.352 0.714,-0.367C0.753,-0.366 0.791,-0.361 0.828,-0.354C0.839,-0.347 0.845,-0.353 0.847,-0.372C0.847,-0.391 0.844,-0.403 0.838,-0.407C0.829,-0.41 0.824,-0.417 0.822,-0.427C0.818,-0.436 0.813,-0.44 0.808,-0.438C0.799,-0.434 0.774,-0.431 0.733,-0.429C0.74,-0.454 0.748,-0.48 0.756,-0.507C0.764,-0.52 0.755,-0.531 0.73,-0.541C0.703,-0.55 0.689,-0.55 0.689,-0.542C0.688,-0.515 0.682,-0.477 0.672,-0.426C0.65,-0.424 0.628,-0.422 0.606,-0.42C0.61,-0.439 0.614,-0.46 0.618,-0.483C0.624,-0.496 0.615,-0.506 0.592,-0.514C0.567,-0.52 0.554,-0.519 0.554,-0.512C0.556,-0.489 0.554,-0.456 0.548,-0.411C0.525,-0.408 0.504,-0.404 0.484,-0.401C0.486,-0.437 0.489,-0.456 0.493,-0.459C0.501,-0.469 0.49,-0.479 0.461,-0.488C0.432,-0.497 0.422,-0.49 0.43,-0.467C0.431,-0.46 0.431,-0.435 0.429,-0.392C0.404,-0.388 0.382,-0.384 0.362,-0.38C0.361,-0.386 0.361,-0.391 0.361,-0.396C0.357,-0.422 0.359,-0.438 0.366,-0.443C0.375,-0.454 0.371,-0.463 0.355,-0.469C0.34,-0.472 0.324,-0.473 0.307,-0.473C0.296,-0.473 0.291,-0.468 0.293,-0.458C0.296,-0.447 0.301,-0.417 0.307,-0.368C0.285,-0.363 0.265,-0.358 0.248,-0.355C0.213,-0.363 0.204,-0.353 0.222,-0.326C0.237,-0.299 0.25,-0.288 0.26,-0.294C0.275,-0.301 0.293,-0.307 0.313,-0.313C0.316,-0.26 0.318,-0.227 0.318,-0.214C0.311,-0.212 0.306,-0.21 0.302,-0.208C0.208,-0.18 0.145,-0.164 0.114,-0.16ZM0.424,-0.278C0.422,-0.258 0.421,-0.245 0.421,-0.239C0.404,-0.236 0.389,-0.233 0.375,-0.23C0.371,-0.244 0.369,-0.266 0.369,-0.295C0.368,-0.307 0.367,-0.318 0.367,-0.327C0.385,-0.331 0.405,-0.335 0.426,-0.339C0.425,-0.316 0.424,-0.295 0.424,-0.278ZM0.523,-0.257C0.506,-0.254 0.491,-0.252 0.478,-0.25C0.477,-0.266 0.478,-0.298 0.481,-0.346L0.481,-0.349C0.499,-0.352 0.519,-0.355 0.54,-0.356L0.54,-0.354C0.537,-0.312 0.531,-0.28 0.523,-0.257ZM0.633,-0.263L0.576,-0.263C0.571,-0.286 0.573,-0.305 0.583,-0.318C0.584,-0.33 0.587,-0.345 0.593,-0.363C0.614,-0.365 0.636,-0.366 0.659,-0.367C0.651,-0.321 0.642,-0.286 0.633,-0.263ZM0.175,-0.021C0.171,-0.016 0.166,-0.013 0.16,-0.011C0.153,-0.008 0.159,0.003 0.179,0.022C0.198,0.043 0.215,0.055 0.23,0.059C0.245,0.064 0.252,0.052 0.25,0.025C0.255,-0.012 0.272,-0.06 0.301,-0.119C0.303,-0.124 0.303,-0.127 0.301,-0.129C0.298,-0.131 0.295,-0.13 0.291,-0.127C0.245,-0.089 0.206,-0.054 0.175,-0.021ZM0.388,-0.011C0.389,-0.004 0.396,-0 0.407,-0C0.417,0.001 0.431,0.002 0.448,0.004C0.465,0.007 0.477,0.004 0.482,-0.006C0.487,-0.015 0.489,-0.022 0.487,-0.026C0.48,-0.035 0.472,-0.046 0.462,-0.058C0.451,-0.068 0.442,-0.081 0.437,-0.097C0.429,-0.112 0.423,-0.121 0.419,-0.125C0.402,-0.14 0.387,-0.132 0.375,-0.099C0.368,-0.075 0.372,-0.046 0.388,-0.011ZM0.56,-0.015C0.562,-0.008 0.568,-0.005 0.578,-0.006C0.587,-0.007 0.6,-0.006 0.615,-0.005C0.63,-0.004 0.641,-0.007 0.647,-0.016C0.652,-0.024 0.652,-0.03 0.648,-0.034C0.64,-0.045 0.631,-0.056 0.621,-0.067C0.609,-0.078 0.6,-0.092 0.594,-0.108C0.585,-0.125 0.578,-0.135 0.574,-0.139C0.558,-0.152 0.545,-0.142 0.535,-0.111C0.53,-0.085 0.538,-0.053 0.56,-0.015ZM0.669,-0.149C0.694,-0.116 0.729,-0.068 0.776,-0.006C0.783,0.011 0.79,0.025 0.796,0.034C0.799,0.043 0.807,0.047 0.818,0.044C0.829,0.041 0.839,0.023 0.849,-0.01C0.858,-0.043 0.86,-0.062 0.855,-0.065C0.808,-0.102 0.75,-0.135 0.682,-0.164C0.663,-0.166 0.659,-0.161 0.669,-0.149Z" style="fill:rgb(255,66,53);fill-rule:nonzero;"/>
                        </g>
                    </g>
                </g>
                <g transform="matrix(1,0,0,1,117.046,630.408)">
                    <g transform="matrix(250,0,0,250,1500.59,493.346)">
                        <path d="M0.459,-0.019C0.458,-0.006 0.453,0.005 0.445,0.012C0.436,0.019 0.437,0.026 0.448,0.033C0.491,0.048 0.516,0.044 0.522,0.021L0.522,-0.388C0.541,-0.377 0.57,-0.359 0.611,-0.336C0.679,-0.301 0.745,-0.256 0.81,-0.201C0.847,-0.165 0.868,-0.171 0.872,-0.219C0.875,-0.266 0.866,-0.293 0.847,-0.3C0.826,-0.313 0.781,-0.333 0.713,-0.361C0.642,-0.392 0.578,-0.415 0.522,-0.431L0.522,-0.467C0.521,-0.484 0.526,-0.505 0.535,-0.528C0.56,-0.561 0.587,-0.59 0.614,-0.616C0.715,-0.623 0.781,-0.616 0.812,-0.597C0.829,-0.585 0.835,-0.602 0.829,-0.647C0.821,-0.692 0.807,-0.713 0.788,-0.709C0.753,-0.706 0.709,-0.702 0.656,-0.697C0.603,-0.692 0.554,-0.686 0.509,-0.679C0.468,-0.671 0.43,-0.663 0.397,-0.655C0.362,-0.648 0.306,-0.642 0.228,-0.637C0.197,-0.644 0.185,-0.637 0.192,-0.614C0.198,-0.591 0.204,-0.571 0.21,-0.556C0.214,-0.539 0.224,-0.534 0.239,-0.542C0.268,-0.557 0.3,-0.568 0.333,-0.577C0.358,-0.583 0.406,-0.591 0.477,-0.601C0.476,-0.563 0.454,-0.519 0.413,-0.469C0.358,-0.403 0.253,-0.3 0.097,-0.16C0.078,-0.145 0.075,-0.135 0.089,-0.132C0.102,-0.129 0.115,-0.131 0.129,-0.137C0.15,-0.147 0.204,-0.19 0.292,-0.267C0.344,-0.314 0.392,-0.36 0.435,-0.405C0.446,-0.398 0.452,-0.384 0.452,-0.364L0.459,-0.019Z" style="fill:rgb(255,66,53);fill-rule:nonzero;"/>
                    </g>
                </g>
                <g transform="matrix(1,0,0,1,117.046,340.675)">
                    <g transform="matrix(250,0,0,250,1500.59,493.346)">
                        <path d="M0.701,0.032C0.701,0.056 0.697,0.072 0.689,0.08C0.681,0.088 0.683,0.092 0.694,0.092C0.711,0.095 0.729,0.095 0.746,0.092C0.761,0.091 0.766,0.085 0.762,0.075C0.756,0.066 0.753,0.049 0.753,0.023C0.758,-0.11 0.762,-0.2 0.766,-0.247C0.768,-0.292 0.769,-0.355 0.769,-0.436C0.814,-0.439 0.856,-0.436 0.893,-0.429C0.906,-0.421 0.913,-0.429 0.913,-0.452C0.912,-0.475 0.908,-0.488 0.9,-0.492C0.891,-0.496 0.884,-0.504 0.88,-0.516C0.875,-0.527 0.869,-0.531 0.863,-0.529C0.858,-0.526 0.842,-0.524 0.816,-0.521C0.789,-0.517 0.761,-0.512 0.732,-0.506C0.676,-0.491 0.628,-0.478 0.587,-0.467C0.59,-0.503 0.592,-0.539 0.594,-0.576C0.595,-0.597 0.604,-0.61 0.621,-0.614C0.687,-0.636 0.727,-0.651 0.74,-0.658C0.753,-0.665 0.771,-0.668 0.792,-0.668C0.807,-0.672 0.811,-0.683 0.804,-0.7C0.795,-0.718 0.788,-0.734 0.782,-0.747C0.775,-0.761 0.765,-0.762 0.752,-0.751C0.67,-0.707 0.596,-0.678 0.529,-0.665C0.517,-0.662 0.515,-0.653 0.522,-0.64C0.529,-0.625 0.533,-0.608 0.533,-0.589C0.536,-0.557 0.537,-0.52 0.537,-0.478C0.536,-0.472 0.536,-0.465 0.536,-0.457C0.534,-0.415 0.524,-0.356 0.507,-0.28C0.49,-0.207 0.451,-0.136 0.389,-0.067C0.374,-0.047 0.379,-0.038 0.402,-0.041C0.452,-0.054 0.499,-0.093 0.544,-0.159C0.556,-0.172 0.559,-0.188 0.553,-0.205C0.545,-0.222 0.543,-0.239 0.547,-0.257C0.56,-0.302 0.57,-0.349 0.578,-0.398C0.58,-0.397 0.583,-0.397 0.587,-0.399C0.614,-0.41 0.65,-0.419 0.697,-0.427C0.7,-0.402 0.701,-0.249 0.701,0.032ZM0.083,-0.079C0.071,-0.062 0.075,-0.054 0.095,-0.057C0.14,-0.07 0.184,-0.11 0.225,-0.175C0.234,-0.186 0.237,-0.2 0.233,-0.216C0.227,-0.231 0.226,-0.246 0.23,-0.261C0.233,-0.276 0.236,-0.29 0.24,-0.305C0.249,-0.308 0.261,-0.311 0.274,-0.315C0.315,-0.328 0.357,-0.336 0.402,-0.34C0.435,-0.341 0.449,-0.352 0.443,-0.372C0.446,-0.444 0.462,-0.492 0.489,-0.516C0.504,-0.524 0.502,-0.532 0.484,-0.541C0.465,-0.55 0.448,-0.557 0.433,-0.563C0.416,-0.569 0.38,-0.562 0.325,-0.543C0.302,-0.535 0.283,-0.529 0.268,-0.525C0.269,-0.534 0.269,-0.542 0.269,-0.55C0.27,-0.577 0.275,-0.593 0.284,-0.599C0.345,-0.627 0.381,-0.645 0.393,-0.652C0.402,-0.66 0.418,-0.665 0.439,-0.667C0.452,-0.672 0.454,-0.682 0.446,-0.696C0.437,-0.71 0.43,-0.723 0.424,-0.734C0.416,-0.745 0.407,-0.745 0.397,-0.734C0.328,-0.685 0.263,-0.652 0.202,-0.633C0.189,-0.631 0.187,-0.623 0.194,-0.609C0.199,-0.596 0.203,-0.58 0.205,-0.563C0.206,-0.534 0.208,-0.5 0.21,-0.463C0.21,-0.425 0.202,-0.366 0.187,-0.286C0.172,-0.217 0.138,-0.148 0.083,-0.079ZM0.265,-0.472C0.274,-0.476 0.285,-0.48 0.299,-0.483C0.347,-0.501 0.376,-0.507 0.386,-0.501C0.393,-0.494 0.393,-0.477 0.387,-0.452C0.381,-0.427 0.375,-0.41 0.369,-0.402C0.365,-0.398 0.358,-0.395 0.349,-0.394C0.338,-0.392 0.323,-0.388 0.306,-0.382C0.293,-0.379 0.275,-0.372 0.252,-0.363C0.257,-0.398 0.261,-0.435 0.265,-0.472Z" style="fill:rgb(255,66,53);fill-rule:nonzero;"/>
                    </g>
                </g>
            </g>
        </g>
    </g>
</svg>
