<?xml version="1.0" encoding="UTF-8" standalone="no"?>
<!DOCTYPE svg PUBLIC "-//W3C//DTD SVG 1.1//EN" "http://www.w3.org/Graphics/SVG/1.1/DTD/svg11.dtd">
<svg width="100%" height="100%" viewBox="0 0 2048 2732" version="1.1" xmlns="http://www.w3.org/2000/svg" xmlns:xlink="http://www.w3.org/1999/xlink" xml:space="preserve" xmlns:serif="http://www.serif.com/" style="fill-rule:evenodd;clip-rule:evenodd;stroke-linecap:square;stroke-linejoin:round;stroke-miterlimit:1.5;">
    <rect id="PRE-N" x="0" y="0" width="2048" height="2732" style="fill:none;"/>
    <g id="PRE-N1" serif:id="PRE-N">
		<a xlink:href="N-REFOCUS.svg">
        <g id="S">
            <g transform="matrix(1,0,0,1,22,300)">
                <rect x="0" y="0" width="1501.06" height="1501.09" style="fill:white;"/>
            </g>
            <g id="Meta-Ring-and-Background" serif:id="Meta-Ring and Background" transform="matrix(-1.09813,0,0,-1.09813,1578.56,2249.66)">
                <g transform="matrix(0.545852,-0.945443,0.9537,0.550619,-641.299,1170.26)">
                    <ellipse cx="692" cy="1046" rx="458" ry="454" style="fill:none;stroke:black;stroke-width:0.46px;"/>
                </g>
                <g transform="matrix(0.5,-0.866025,0.629632,0.363518,-412.931,1316.59)">
                    <path d="M768,524.038L768,568" style="fill:none;stroke:black;stroke-width:0.57px;"/>
                </g>
                <g transform="matrix(0.5,-0.866025,0.629632,0.363518,425.349,1800.57)">
                    <path d="M768,524.038L768,568" style="fill:none;stroke:black;stroke-width:0.57px;"/>
                </g>
                <g transform="matrix(-0.866025,-0.5,0.363518,-0.629632,1442.63,1400.58)">
                    <path d="M768,524.038L768,568" style="fill:none;stroke:black;stroke-width:0.57px;"/>
                </g>
                <g transform="matrix(-0.866025,-0.5,0.363518,-0.629632,958.61,2238.93)">
                    <path d="M768,524.038L768,568" style="fill:none;stroke:black;stroke-width:0.57px;"/>
                </g>
                <g transform="matrix(0.866025,-0.5,0.363518,0.629632,-371.594,713.016)">
                    <path d="M768,524.038L768,568" style="fill:none;stroke:black;stroke-width:0.57px;"/>
                </g>
                <g transform="matrix(0.866025,-0.5,0.363518,0.629632,112.404,1551.33)">
                    <path d="M768,524.038L768,568" style="fill:none;stroke:black;stroke-width:0.57px;"/>
                </g>
                <g transform="matrix(-0.5,-0.866025,0.629632,-0.363518,1193.38,1713.55)">
                    <path d="M768,524.038L768,568" style="fill:none;stroke:black;stroke-width:0.57px;"/>
                </g>
                <g transform="matrix(-0.5,-0.866025,0.629632,-0.363518,355.038,2197.57)">
                    <path d="M768,524.038L768,568" style="fill:none;stroke:black;stroke-width:0.57px;"/>
                </g>
                <g transform="matrix(1,0,0,0.727036,-34,210.969)">
                    <path d="M768,524.038L768,568" style="fill:none;stroke:black;stroke-width:0.57px;"/>
                </g>
                <g transform="matrix(1,0,0,0.727036,-34,1179)">
                    <path d="M768,524.038L768,568" style="fill:none;stroke:black;stroke-width:0.57px;"/>
                </g>
                <g transform="matrix(6.12323e-17,-1,0.727036,4.45181e-17,821.022,1859.96)">
                    <path d="M768,524.038L768,568" style="fill:none;stroke:black;stroke-width:0.57px;"/>
                </g>
                <g transform="matrix(6.12323e-17,-1,0.727036,4.45181e-17,-146.974,1859.96)">
                    <path d="M768,524.038L768,568" style="fill:none;stroke:black;stroke-width:0.57px;"/>
                </g>
            </g>
            <g transform="matrix(-0.583619,-1.01086,0.902565,-0.521096,274.4,2320.36)">
                <g id="Root-Markers" serif:id="Root Markers">
                    <path id="_8" serif:id="8" d="M731.999,618L768,730L695.999,730L731.999,618ZM731.999,680.84L740.959,708.715C740.959,708.715 723.04,708.715 723.04,708.715L731.999,680.84Z"/>
                </g>
            </g>
            <g transform="matrix(-1.09813,0,0,-1.09811,1579.66,2245.28)">
                <g transform="matrix(0.545852,-0.945443,0.9537,0.550619,-641.299,1170.26)">
                    <ellipse cx="692" cy="1046" rx="458" ry="454" style="fill:none;stroke:black;stroke-width:8.31px;stroke-linecap:round;"/>
                </g>
                <g transform="matrix(0.5,-0.866025,0.629632,0.363518,-412.931,1316.59)">
                    <path d="M768,524.038L768,568" style="fill:none;stroke:black;stroke-width:10.42px;stroke-linecap:round;"/>
                </g>
                <g transform="matrix(0.5,-0.866025,0.629632,0.363518,425.349,1800.57)">
                    <path d="M768,524.038L768,568" style="fill:none;stroke:black;stroke-width:10.42px;stroke-linecap:round;"/>
                </g>
                <g transform="matrix(-0.866025,-0.5,0.363518,-0.629632,1442.63,1400.58)">
                    <path d="M768,524.038L768,568" style="fill:none;stroke:black;stroke-width:10.42px;stroke-linecap:round;"/>
                </g>
                <g transform="matrix(-0.866025,-0.5,0.363518,-0.629632,958.61,2238.93)">
                    <path d="M768,524.038L768,568" style="fill:none;stroke:black;stroke-width:10.42px;stroke-linecap:round;"/>
                </g>
                <g transform="matrix(0.866025,-0.5,0.363518,0.629632,-371.594,713.016)">
                    <path d="M768,524.038L768,568" style="fill:none;stroke:black;stroke-width:10.42px;stroke-linecap:round;"/>
                </g>
                <g transform="matrix(0.866025,-0.5,0.363518,0.629632,112.404,1551.33)">
                    <path d="M768,524.038L768,568" style="fill:none;stroke:black;stroke-width:10.42px;stroke-linecap:round;"/>
                </g>
                <g transform="matrix(-0.5,-0.866025,0.629632,-0.363518,1193.38,1713.55)">
                    <path d="M768,524.038L768,568" style="fill:none;stroke:black;stroke-width:10.42px;stroke-linecap:round;"/>
                </g>
                <g transform="matrix(-0.5,-0.866025,0.629632,-0.363518,355.038,2197.57)">
                    <path d="M768,524.038L768,568" style="fill:none;stroke:black;stroke-width:10.42px;stroke-linecap:round;"/>
                </g>
                <g transform="matrix(1,0,0,0.727036,-34,210.969)">
                    <path d="M768,524.038L768,568" style="fill:none;stroke:black;stroke-width:10.42px;stroke-linecap:round;"/>
                </g>
                <g transform="matrix(1,0,0,0.727036,-34,1179)">
                    <path d="M768,524.038L768,568" style="fill:none;stroke:black;stroke-width:10.42px;stroke-linecap:round;"/>
                </g>
                <g transform="matrix(6.12323e-17,-1,0.727036,4.45181e-17,821.022,1859.96)">
                    <path d="M768,524.038L768,568" style="fill:none;stroke:black;stroke-width:10.42px;stroke-linecap:round;"/>
                </g>
                <g transform="matrix(6.12323e-17,-1,0.727036,4.45181e-17,-146.974,1859.96)">
                    <path d="M768,524.038L768,568" style="fill:none;stroke:black;stroke-width:10.42px;stroke-linecap:round;"/>
                </g>
            </g>
            <g id="_10" serif:id="10" transform="matrix(-1.39762,2.4207,-2.45799,-1.41909,2667.89,-328.094)">
                <ellipse cx="766" cy="526.5" rx="33" ry="32.5" style="fill:rgb(0,62,164);stroke:white;stroke-width:8.52px;stroke-linecap:round;"/>
            </g>
            <g id="_81" serif:id="8" transform="matrix(-1.39762,2.4207,-2.45799,-1.41909,2664.62,218.751)">
                <ellipse cx="766" cy="526.5" rx="33" ry="32.5" style="fill:rgb(0,62,164);stroke:white;stroke-width:8.52px;stroke-linecap:round;"/>
            </g>
            <g id="_7" serif:id="7" transform="matrix(-1.39762,2.4207,-2.45799,-1.41909,2868.72,413.119)">
                <ellipse cx="766" cy="526.5" rx="33" ry="32.5" style="fill:rgb(0,62,164);stroke:white;stroke-width:8.52px;stroke-linecap:round;"/>
            </g>
            <g id="_3" serif:id="3" transform="matrix(-1.39762,2.4207,-2.45799,-1.41909,3685.18,-55.5762)">
                <ellipse cx="766" cy="526.5" rx="33" ry="32.5" style="fill:rgb(0,62,164);stroke:white;stroke-width:8.52px;stroke-linecap:round;"/>
            </g>
            <g id="_0" serif:id="0" transform="matrix(-1.39762,2.4207,-2.45799,-1.41909,3138.34,-603.96)">
                <ellipse cx="766" cy="526.5" rx="33" ry="32.5" style="fill:rgb(0,62,164);stroke:white;stroke-width:8.52px;stroke-linecap:round;"/>
            </g>
        </g>
		</a>
        <g id="Text">
            <g transform="matrix(1,0,0,1,166,-108.376)">
                <g transform="matrix(75,0,0,75,1500.59,1765.71)">
                    <path d="M0.508,-0.534C0.523,-0.539 0.543,-0.545 0.568,-0.552C0.593,-0.558 0.619,-0.561 0.647,-0.561C0.682,-0.561 0.71,-0.555 0.73,-0.543C0.749,-0.531 0.759,-0.516 0.759,-0.498C0.759,-0.484 0.753,-0.471 0.742,-0.459C0.731,-0.446 0.714,-0.44 0.693,-0.44C0.681,-0.44 0.67,-0.442 0.659,-0.446L0.624,-0.446C0.612,-0.446 0.6,-0.446 0.589,-0.445C0.602,-0.434 0.608,-0.419 0.608,-0.4C0.608,-0.391 0.606,-0.382 0.602,-0.371C0.597,-0.36 0.59,-0.349 0.581,-0.339C0.6,-0.343 0.619,-0.347 0.638,-0.352C0.657,-0.357 0.675,-0.362 0.692,-0.367C0.701,-0.37 0.716,-0.374 0.736,-0.378C0.755,-0.381 0.775,-0.383 0.795,-0.383C0.807,-0.383 0.819,-0.382 0.83,-0.381C0.841,-0.379 0.85,-0.376 0.859,-0.372C0.868,-0.368 0.875,-0.363 0.879,-0.356C0.884,-0.348 0.887,-0.339 0.887,-0.328C0.887,-0.315 0.883,-0.304 0.876,-0.295C0.87,-0.285 0.861,-0.278 0.85,-0.273C0.839,-0.268 0.828,-0.264 0.815,-0.262C0.802,-0.26 0.789,-0.259 0.776,-0.26C0.744,-0.246 0.711,-0.23 0.677,-0.212C0.642,-0.193 0.611,-0.176 0.584,-0.16C0.603,-0.157 0.618,-0.153 0.63,-0.148C0.642,-0.143 0.653,-0.135 0.662,-0.126C0.684,-0.103 0.695,-0.074 0.695,-0.041C0.695,0.001 0.68,0.038 0.649,0.071C0.616,0.106 0.573,0.124 0.52,0.124C0.478,0.124 0.437,0.113 0.396,0.091C0.347,0.064 0.322,0.03 0.322,-0.009C0.322,-0.058 0.364,-0.103 0.448,-0.142C0.447,-0.145 0.446,-0.147 0.447,-0.148C0.447,-0.149 0.447,-0.152 0.447,-0.156C0.458,-0.157 0.468,-0.159 0.476,-0.162C0.485,-0.165 0.493,-0.168 0.5,-0.171C0.505,-0.174 0.515,-0.179 0.53,-0.188C0.544,-0.196 0.56,-0.206 0.578,-0.217C0.591,-0.224 0.604,-0.232 0.618,-0.24C0.631,-0.248 0.645,-0.256 0.659,-0.264C0.59,-0.263 0.52,-0.257 0.45,-0.248C0.379,-0.238 0.314,-0.225 0.253,-0.209C0.24,-0.206 0.224,-0.202 0.205,-0.197C0.187,-0.192 0.171,-0.19 0.157,-0.19C0.136,-0.19 0.118,-0.194 0.103,-0.203C0.088,-0.211 0.075,-0.222 0.065,-0.236C0.054,-0.25 0.046,-0.266 0.041,-0.285C0.035,-0.304 0.032,-0.323 0.031,-0.343C0.051,-0.322 0.076,-0.308 0.106,-0.302C0.135,-0.295 0.167,-0.292 0.201,-0.292C0.223,-0.292 0.246,-0.293 0.27,-0.295C0.294,-0.296 0.318,-0.299 0.341,-0.302C0.356,-0.306 0.371,-0.311 0.386,-0.316C0.401,-0.321 0.414,-0.328 0.427,-0.336C0.439,-0.343 0.449,-0.352 0.457,-0.362C0.464,-0.372 0.469,-0.383 0.47,-0.396C0.471,-0.405 0.468,-0.414 0.463,-0.425C0.457,-0.435 0.449,-0.441 0.439,-0.443C0.472,-0.456 0.501,-0.463 0.528,-0.463C0.541,-0.463 0.553,-0.461 0.565,-0.458C0.572,-0.459 0.58,-0.461 0.588,-0.463C0.596,-0.465 0.604,-0.467 0.613,-0.469C0.597,-0.48 0.581,-0.491 0.564,-0.503C0.547,-0.515 0.528,-0.525 0.508,-0.534ZM0.367,-0.415C0.35,-0.399 0.333,-0.388 0.316,-0.382C0.299,-0.376 0.283,-0.373 0.268,-0.373C0.222,-0.373 0.186,-0.394 0.16,-0.436C0.201,-0.435 0.234,-0.446 0.26,-0.469C0.272,-0.48 0.285,-0.492 0.3,-0.505C0.314,-0.518 0.328,-0.532 0.343,-0.546C0.358,-0.56 0.372,-0.574 0.386,-0.588C0.399,-0.601 0.411,-0.613 0.422,-0.624C0.43,-0.633 0.433,-0.643 0.431,-0.654C0.428,-0.665 0.423,-0.676 0.416,-0.688C0.414,-0.691 0.412,-0.694 0.41,-0.698C0.408,-0.701 0.406,-0.705 0.406,-0.709C0.405,-0.713 0.405,-0.717 0.406,-0.721C0.407,-0.724 0.41,-0.727 0.415,-0.729C0.42,-0.731 0.425,-0.732 0.43,-0.733C0.434,-0.734 0.44,-0.734 0.449,-0.734C0.464,-0.734 0.481,-0.733 0.499,-0.732C0.517,-0.73 0.534,-0.726 0.55,-0.721C0.571,-0.714 0.587,-0.703 0.599,-0.688C0.61,-0.673 0.612,-0.656 0.604,-0.637C0.602,-0.632 0.599,-0.628 0.596,-0.625C0.592,-0.623 0.588,-0.621 0.584,-0.619C0.579,-0.616 0.574,-0.613 0.568,-0.61C0.562,-0.607 0.556,-0.602 0.549,-0.595L0.367,-0.415ZM0.489,-0.1L0.458,-0.081C0.404,-0.049 0.377,-0.027 0.377,-0.014C0.377,-0.002 0.395,0.012 0.43,0.027C0.434,0.028 0.439,0.029 0.444,0.03C0.449,0.031 0.455,0.032 0.462,0.032C0.474,0.032 0.485,0.031 0.496,0.028C0.507,0.025 0.516,0.021 0.525,0.015C0.544,0.003 0.554,-0.014 0.554,-0.035C0.554,-0.048 0.548,-0.06 0.535,-0.07C0.522,-0.079 0.506,-0.089 0.489,-0.1Z" style="fill:rgb(0,62,164);fill-rule:nonzero;"/>
                </g>
                <g transform="matrix(75,0,0,75,1569.59,1765.71)">
                    <path d="M0.774,-0.216C0.744,-0.218 0.713,-0.219 0.682,-0.219C0.663,-0.219 0.644,-0.219 0.625,-0.218C0.606,-0.217 0.588,-0.216 0.569,-0.215L0.569,0.018C0.569,0.053 0.559,0.079 0.539,0.098C0.519,0.117 0.49,0.127 0.453,0.127C0.432,0.127 0.412,0.121 0.396,0.11C0.379,0.099 0.365,0.088 0.355,0.077C0.38,0.079 0.4,0.077 0.414,0.072C0.429,0.067 0.436,0.058 0.436,0.043L0.436,-0.201C0.404,-0.196 0.373,-0.19 0.342,-0.184C0.311,-0.178 0.282,-0.171 0.253,-0.164C0.24,-0.161 0.224,-0.157 0.205,-0.152C0.187,-0.147 0.171,-0.145 0.157,-0.145C0.136,-0.145 0.118,-0.15 0.103,-0.159C0.088,-0.168 0.075,-0.181 0.065,-0.196C0.054,-0.211 0.046,-0.229 0.041,-0.25C0.035,-0.271 0.032,-0.293 0.031,-0.316C0.051,-0.295 0.076,-0.28 0.106,-0.272C0.135,-0.264 0.167,-0.26 0.201,-0.26L0.23,-0.26C0.24,-0.26 0.25,-0.261 0.261,-0.262C0.299,-0.272 0.337,-0.288 0.376,-0.309C0.414,-0.33 0.448,-0.351 0.478,-0.372C0.466,-0.373 0.454,-0.374 0.442,-0.375C0.429,-0.376 0.417,-0.377 0.404,-0.379C0.398,-0.368 0.39,-0.36 0.38,-0.356C0.369,-0.352 0.36,-0.35 0.353,-0.35C0.335,-0.35 0.321,-0.354 0.311,-0.362C0.3,-0.369 0.295,-0.381 0.295,-0.396L0.295,-0.585C0.295,-0.616 0.291,-0.639 0.283,-0.653C0.276,-0.666 0.263,-0.677 0.245,-0.685C0.26,-0.687 0.276,-0.688 0.292,-0.689C0.307,-0.689 0.322,-0.688 0.336,-0.685C0.35,-0.682 0.363,-0.678 0.375,-0.673C0.386,-0.667 0.395,-0.659 0.402,-0.649C0.419,-0.658 0.438,-0.666 0.458,-0.673C0.478,-0.68 0.498,-0.687 0.518,-0.693C0.537,-0.698 0.556,-0.703 0.574,-0.706C0.591,-0.709 0.607,-0.711 0.62,-0.711C0.651,-0.711 0.674,-0.705 0.687,-0.693C0.7,-0.681 0.707,-0.663 0.706,-0.64C0.706,-0.633 0.705,-0.624 0.703,-0.613C0.701,-0.601 0.698,-0.588 0.695,-0.574C0.692,-0.559 0.688,-0.544 0.684,-0.529C0.68,-0.514 0.676,-0.5 0.672,-0.487C0.683,-0.486 0.693,-0.482 0.702,-0.475C0.711,-0.468 0.715,-0.457 0.714,-0.442C0.713,-0.431 0.707,-0.42 0.696,-0.408C0.685,-0.398 0.669,-0.389 0.648,-0.384C0.639,-0.382 0.63,-0.38 0.62,-0.379C0.609,-0.377 0.598,-0.375 0.587,-0.374C0.573,-0.368 0.559,-0.362 0.544,-0.355C0.529,-0.348 0.515,-0.341 0.5,-0.334C0.478,-0.323 0.455,-0.313 0.431,-0.302C0.407,-0.291 0.382,-0.28 0.357,-0.271C0.366,-0.272 0.375,-0.274 0.384,-0.275C0.392,-0.276 0.4,-0.277 0.409,-0.278C0.43,-0.281 0.453,-0.284 0.477,-0.288C0.502,-0.292 0.526,-0.296 0.551,-0.301C0.576,-0.306 0.6,-0.311 0.624,-0.317C0.648,-0.322 0.671,-0.328 0.692,-0.335C0.701,-0.338 0.716,-0.342 0.736,-0.345C0.755,-0.349 0.775,-0.351 0.795,-0.351C0.807,-0.351 0.819,-0.35 0.83,-0.348C0.841,-0.347 0.85,-0.344 0.859,-0.339C0.868,-0.334 0.875,-0.328 0.879,-0.321C0.884,-0.314 0.887,-0.304 0.887,-0.293C0.887,-0.278 0.883,-0.265 0.876,-0.255C0.87,-0.244 0.861,-0.236 0.85,-0.23C0.839,-0.224 0.826,-0.22 0.813,-0.218C0.8,-0.215 0.787,-0.215 0.774,-0.216ZM0.567,-0.605C0.542,-0.601 0.515,-0.595 0.488,-0.586C0.46,-0.577 0.435,-0.567 0.413,-0.558L0.413,-0.45C0.429,-0.451 0.446,-0.453 0.464,-0.456C0.481,-0.458 0.499,-0.46 0.516,-0.463C0.529,-0.469 0.539,-0.478 0.544,-0.492C0.549,-0.504 0.553,-0.515 0.555,-0.522C0.558,-0.535 0.561,-0.548 0.563,-0.56C0.564,-0.572 0.566,-0.587 0.567,-0.605Z" style="fill:rgb(0,62,164);fill-rule:nonzero;"/>
                </g>
                <g transform="matrix(75,0,0,75,1638.59,1765.71)">
                    <path d="M0.325,-0.135C0.351,-0.131 0.378,-0.132 0.405,-0.138C0.432,-0.143 0.457,-0.151 0.481,-0.16C0.492,-0.165 0.504,-0.169 0.517,-0.173C0.53,-0.178 0.543,-0.182 0.558,-0.185C0.581,-0.199 0.601,-0.216 0.618,-0.235C0.634,-0.255 0.642,-0.278 0.642,-0.304L0.642,-0.336C0.627,-0.324 0.611,-0.318 0.592,-0.317L0.592,-0.3C0.592,-0.269 0.584,-0.246 0.567,-0.229C0.55,-0.212 0.525,-0.204 0.492,-0.204C0.483,-0.204 0.475,-0.206 0.466,-0.211C0.457,-0.215 0.451,-0.222 0.447,-0.231C0.454,-0.232 0.46,-0.235 0.465,-0.24C0.469,-0.245 0.471,-0.256 0.471,-0.272L0.471,-0.494C0.471,-0.525 0.463,-0.551 0.447,-0.573C0.431,-0.595 0.406,-0.612 0.372,-0.623C0.395,-0.628 0.416,-0.633 0.434,-0.636C0.451,-0.64 0.468,-0.642 0.483,-0.642C0.498,-0.642 0.512,-0.641 0.527,-0.637C0.541,-0.634 0.553,-0.629 0.564,-0.622C0.575,-0.615 0.583,-0.605 0.59,-0.593C0.597,-0.58 0.6,-0.565 0.6,-0.546C0.6,-0.534 0.599,-0.522 0.596,-0.51C0.593,-0.498 0.592,-0.485 0.592,-0.47L0.592,-0.439C0.609,-0.446 0.626,-0.457 0.642,-0.472L0.642,-0.589C0.642,-0.662 0.594,-0.713 0.498,-0.742C0.522,-0.747 0.546,-0.752 0.57,-0.755C0.593,-0.758 0.614,-0.76 0.631,-0.76C0.651,-0.76 0.671,-0.758 0.69,-0.755C0.709,-0.752 0.725,-0.746 0.74,-0.737C0.755,-0.728 0.767,-0.717 0.776,-0.703C0.785,-0.689 0.789,-0.671 0.789,-0.65C0.789,-0.643 0.789,-0.637 0.789,-0.633C0.788,-0.629 0.787,-0.625 0.786,-0.621C0.785,-0.615 0.783,-0.608 0.782,-0.599C0.781,-0.59 0.78,-0.578 0.78,-0.561L0.78,-0.346C0.78,-0.311 0.769,-0.282 0.746,-0.26C0.723,-0.236 0.694,-0.218 0.657,-0.203C0.664,-0.204 0.672,-0.204 0.68,-0.204C0.687,-0.205 0.695,-0.205 0.702,-0.205C0.722,-0.205 0.737,-0.203 0.747,-0.2C0.757,-0.196 0.764,-0.191 0.768,-0.184C0.772,-0.177 0.774,-0.17 0.773,-0.161C0.772,-0.152 0.771,-0.142 0.769,-0.131C0.768,-0.126 0.767,-0.12 0.766,-0.115C0.765,-0.11 0.765,-0.104 0.765,-0.099L0.765,0.038C0.765,0.073 0.755,0.099 0.735,0.118C0.715,0.137 0.686,0.147 0.649,0.147C0.628,0.147 0.609,0.142 0.592,0.132C0.575,0.123 0.562,0.111 0.551,0.097C0.574,0.1 0.594,0.099 0.609,0.093C0.624,0.088 0.632,0.078 0.632,0.063L0.632,-0.103C0.618,-0.102 0.601,-0.098 0.58,-0.092C0.559,-0.086 0.542,-0.08 0.528,-0.074C0.511,-0.067 0.493,-0.06 0.475,-0.054C0.458,-0.047 0.44,-0.044 0.422,-0.044C0.411,-0.044 0.4,-0.046 0.389,-0.051C0.378,-0.056 0.368,-0.062 0.359,-0.07C0.349,-0.079 0.342,-0.089 0.336,-0.1C0.33,-0.111 0.326,-0.122 0.325,-0.135ZM0.422,-0.254C0.422,-0.237 0.42,-0.223 0.417,-0.212C0.413,-0.201 0.408,-0.193 0.403,-0.187C0.398,-0.181 0.392,-0.177 0.386,-0.174C0.379,-0.172 0.373,-0.171 0.368,-0.171C0.349,-0.171 0.335,-0.176 0.326,-0.185C0.321,-0.184 0.316,-0.183 0.312,-0.183C0.307,-0.182 0.303,-0.182 0.299,-0.181C0.29,-0.18 0.282,-0.178 0.275,-0.177C0.268,-0.175 0.259,-0.174 0.248,-0.174C0.227,-0.174 0.211,-0.177 0.198,-0.184C0.193,-0.168 0.186,-0.157 0.177,-0.152C0.168,-0.147 0.159,-0.144 0.152,-0.144C0.136,-0.144 0.124,-0.148 0.115,-0.156C0.106,-0.164 0.101,-0.176 0.101,-0.193L0.101,-0.401C0.101,-0.418 0.1,-0.432 0.099,-0.443C0.098,-0.454 0.095,-0.464 0.092,-0.472C0.089,-0.48 0.085,-0.487 0.08,-0.492C0.075,-0.497 0.068,-0.502 0.06,-0.507C0.075,-0.509 0.09,-0.51 0.107,-0.509C0.124,-0.509 0.139,-0.506 0.153,-0.501C0.167,-0.497 0.179,-0.489 0.188,-0.478C0.197,-0.467 0.202,-0.452 0.202,-0.433L0.202,-0.422C0.217,-0.425 0.231,-0.429 0.245,-0.433C0.259,-0.436 0.272,-0.44 0.284,-0.443C0.289,-0.444 0.294,-0.445 0.299,-0.446C0.303,-0.447 0.307,-0.447 0.311,-0.448C0.31,-0.482 0.307,-0.507 0.301,-0.524C0.295,-0.541 0.285,-0.553 0.271,-0.561C0.287,-0.563 0.304,-0.564 0.322,-0.564C0.339,-0.563 0.356,-0.56 0.371,-0.555C0.386,-0.55 0.398,-0.541 0.407,-0.528C0.417,-0.515 0.422,-0.496 0.422,-0.473L0.422,-0.254ZM0.208,-0.294C0.217,-0.301 0.226,-0.309 0.235,-0.318C0.245,-0.327 0.254,-0.336 0.261,-0.344C0.252,-0.343 0.242,-0.342 0.233,-0.341C0.223,-0.34 0.213,-0.34 0.202,-0.34L0.202,-0.257C0.215,-0.257 0.229,-0.259 0.242,-0.262C0.255,-0.265 0.268,-0.268 0.283,-0.272C0.288,-0.273 0.292,-0.275 0.297,-0.276C0.301,-0.277 0.306,-0.278 0.311,-0.279L0.311,-0.347C0.294,-0.335 0.275,-0.324 0.256,-0.315C0.236,-0.306 0.22,-0.299 0.208,-0.294Z" style="fill:rgb(0,62,164);fill-rule:nonzero;"/>
                </g>
                <g transform="matrix(75,0,0,75,1704.59,1765.71)">
                    <path d="M0.592,-0.028C0.589,-0.027 0.586,-0.027 0.583,-0.027C0.58,-0.027 0.576,-0.027 0.573,-0.026C0.548,-0.019 0.523,-0.012 0.499,-0.005C0.475,0.003 0.457,0.011 0.445,0.018C0.442,0.019 0.439,0.021 0.437,0.023C0.434,0.025 0.433,0.027 0.433,0.028C0.433,0.03 0.435,0.032 0.439,0.033C0.442,0.034 0.449,0.035 0.458,0.035C0.473,0.035 0.49,0.034 0.509,0.032C0.529,0.03 0.549,0.028 0.568,0.025C0.587,0.022 0.605,0.019 0.621,0.016C0.637,0.013 0.649,0.011 0.656,0.009C0.679,0.004 0.698,0.004 0.711,0.011C0.724,0.018 0.732,0.028 0.735,0.043C0.738,0.061 0.736,0.075 0.727,0.085C0.718,0.095 0.704,0.103 0.685,0.109L0.685,0.108C0.672,0.112 0.657,0.115 0.64,0.118C0.623,0.121 0.606,0.124 0.589,0.125C0.571,0.126 0.554,0.127 0.537,0.128C0.52,0.129 0.506,0.129 0.493,0.129C0.441,0.129 0.402,0.123 0.376,0.112C0.349,0.101 0.336,0.084 0.336,0.059C0.336,0.048 0.342,0.038 0.355,0.028C0.368,0.018 0.384,0.009 0.403,-0C0.384,0.001 0.367,-0.004 0.353,-0.016C0.338,-0.027 0.327,-0.045 0.32,-0.07C0.35,-0.066 0.376,-0.066 0.399,-0.071C0.422,-0.076 0.445,-0.082 0.468,-0.089C0.475,-0.091 0.483,-0.093 0.491,-0.096C0.498,-0.098 0.506,-0.1 0.515,-0.103C0.521,-0.107 0.528,-0.112 0.535,-0.118C0.542,-0.124 0.548,-0.13 0.553,-0.136C0.566,-0.148 0.564,-0.152 0.547,-0.149C0.533,-0.146 0.519,-0.143 0.504,-0.139C0.49,-0.134 0.476,-0.129 0.463,-0.124C0.448,-0.119 0.435,-0.114 0.424,-0.111C0.412,-0.107 0.402,-0.105 0.395,-0.105C0.374,-0.104 0.354,-0.11 0.337,-0.124C0.32,-0.137 0.307,-0.158 0.299,-0.185C0.332,-0.181 0.36,-0.182 0.384,-0.187C0.408,-0.192 0.432,-0.199 0.456,-0.206C0.467,-0.209 0.479,-0.213 0.491,-0.217C0.502,-0.221 0.514,-0.224 0.525,-0.227C0.544,-0.24 0.561,-0.256 0.575,-0.275C0.588,-0.293 0.595,-0.314 0.595,-0.337L0.595,-0.359C0.587,-0.352 0.578,-0.345 0.569,-0.339C0.559,-0.332 0.549,-0.327 0.539,-0.322C0.528,-0.317 0.518,-0.314 0.507,-0.312C0.496,-0.309 0.486,-0.309 0.475,-0.31C0.462,-0.312 0.448,-0.317 0.435,-0.326C0.433,-0.323 0.431,-0.32 0.429,-0.317C0.427,-0.314 0.425,-0.312 0.422,-0.309C0.39,-0.271 0.347,-0.252 0.294,-0.252C0.252,-0.252 0.211,-0.264 0.171,-0.288C0.122,-0.317 0.098,-0.352 0.098,-0.395C0.098,-0.438 0.127,-0.479 0.184,-0.516C0.196,-0.523 0.203,-0.531 0.206,-0.539C0.21,-0.547 0.211,-0.553 0.211,-0.557C0.211,-0.562 0.209,-0.568 0.203,-0.573C0.199,-0.578 0.187,-0.582 0.168,-0.587C0.17,-0.588 0.174,-0.589 0.179,-0.592C0.184,-0.594 0.19,-0.596 0.196,-0.599C0.201,-0.601 0.206,-0.603 0.211,-0.605C0.216,-0.606 0.219,-0.607 0.221,-0.608C0.23,-0.613 0.239,-0.616 0.247,-0.619C0.254,-0.621 0.264,-0.622 0.275,-0.622C0.294,-0.622 0.31,-0.617 0.321,-0.608C0.332,-0.599 0.338,-0.587 0.338,-0.574C0.338,-0.569 0.337,-0.564 0.335,-0.559C0.36,-0.558 0.381,-0.554 0.396,-0.548C0.41,-0.541 0.423,-0.532 0.433,-0.521C0.434,-0.52 0.434,-0.52 0.434,-0.52C0.434,-0.519 0.434,-0.519 0.435,-0.518C0.442,-0.527 0.451,-0.536 0.462,-0.545C0.472,-0.554 0.483,-0.563 0.496,-0.571C0.508,-0.578 0.521,-0.584 0.534,-0.588C0.547,-0.592 0.561,-0.593 0.575,-0.592C0.581,-0.591 0.588,-0.59 0.595,-0.587L0.595,-0.589C0.595,-0.626 0.582,-0.658 0.556,-0.683C0.529,-0.708 0.494,-0.727 0.451,-0.742C0.475,-0.747 0.499,-0.752 0.523,-0.755C0.546,-0.758 0.567,-0.76 0.584,-0.76C0.604,-0.76 0.624,-0.758 0.643,-0.755C0.662,-0.752 0.678,-0.746 0.693,-0.737C0.708,-0.728 0.72,-0.717 0.729,-0.703C0.738,-0.689 0.742,-0.671 0.742,-0.65C0.742,-0.643 0.742,-0.637 0.742,-0.633C0.741,-0.629 0.74,-0.625 0.739,-0.621C0.738,-0.615 0.736,-0.608 0.735,-0.599C0.734,-0.59 0.733,-0.578 0.733,-0.561L0.733,-0.379C0.733,-0.347 0.723,-0.32 0.703,-0.298C0.683,-0.275 0.657,-0.257 0.624,-0.242L0.63,-0.242C0.649,-0.242 0.667,-0.239 0.682,-0.233C0.697,-0.226 0.705,-0.214 0.706,-0.196C0.707,-0.183 0.702,-0.171 0.692,-0.158C0.681,-0.145 0.667,-0.132 0.65,-0.121C0.68,-0.119 0.696,-0.107 0.697,-0.086C0.697,-0.08 0.696,-0.074 0.694,-0.068C0.691,-0.062 0.686,-0.056 0.679,-0.051C0.671,-0.046 0.66,-0.041 0.646,-0.037C0.632,-0.033 0.614,-0.03 0.592,-0.028ZM0.23,-0.476C0.175,-0.44 0.148,-0.415 0.148,-0.4C0.148,-0.385 0.166,-0.37 0.201,-0.353C0.21,-0.35 0.221,-0.348 0.234,-0.348C0.245,-0.348 0.257,-0.35 0.268,-0.353C0.279,-0.356 0.289,-0.361 0.298,-0.366C0.307,-0.373 0.315,-0.382 0.321,-0.392C0.326,-0.402 0.329,-0.413 0.329,-0.424C0.329,-0.439 0.322,-0.453 0.309,-0.464C0.296,-0.475 0.28,-0.486 0.263,-0.497L0.23,-0.476ZM0.466,-0.43C0.466,-0.425 0.466,-0.421 0.466,-0.417C0.465,-0.412 0.465,-0.408 0.464,-0.404C0.483,-0.405 0.505,-0.407 0.528,-0.412C0.551,-0.418 0.574,-0.425 0.595,-0.435L0.595,-0.496C0.582,-0.485 0.568,-0.475 0.553,-0.466C0.537,-0.457 0.523,-0.452 0.512,-0.45C0.518,-0.455 0.523,-0.461 0.527,-0.466C0.53,-0.47 0.533,-0.475 0.536,-0.479C0.541,-0.488 0.538,-0.492 0.529,-0.49C0.517,-0.487 0.505,-0.484 0.494,-0.481C0.483,-0.478 0.472,-0.473 0.461,-0.468C0.462,-0.462 0.464,-0.456 0.465,-0.45C0.466,-0.444 0.466,-0.437 0.466,-0.43Z" style="fill:rgb(0,62,164);fill-rule:nonzero;"/>
                </g>
            </g>
            <g transform="matrix(1,0,0,1,59.7018,65.9384)">
                <g transform="matrix(1,0,0,1,0,30)">
                    <g transform="matrix(1,0,0,1,117.046,888.221)">
                        <g transform="matrix(250,0,0,250,1500.59,493.346)">
                            <path d="M0.144,-0.473C0.162,-0.502 0.175,-0.524 0.181,-0.54C0.186,-0.552 0.191,-0.571 0.196,-0.597C0.208,-0.596 0.216,-0.593 0.22,-0.59C0.222,-0.588 0.234,-0.566 0.257,-0.522C0.257,-0.432 0.258,-0.387 0.259,-0.386C0.262,-0.385 0.264,-0.384 0.268,-0.384C0.275,-0.384 0.281,-0.387 0.284,-0.393C0.296,-0.411 0.304,-0.437 0.31,-0.47L0.325,-0.567C0.336,-0.641 0.341,-0.679 0.341,-0.679C0.341,-0.687 0.338,-0.694 0.333,-0.701C0.326,-0.708 0.318,-0.711 0.307,-0.711C0.3,-0.711 0.286,-0.709 0.263,-0.705C0.301,-0.734 0.334,-0.749 0.362,-0.749C0.376,-0.749 0.389,-0.741 0.403,-0.725C0.416,-0.71 0.422,-0.692 0.422,-0.672C0.422,-0.66 0.42,-0.647 0.417,-0.634C0.398,-0.573 0.389,-0.535 0.389,-0.522C0.389,-0.518 0.403,-0.499 0.431,-0.464C0.433,-0.462 0.434,-0.458 0.434,-0.454C0.434,-0.45 0.432,-0.444 0.429,-0.438C0.428,-0.436 0.41,-0.414 0.373,-0.371C0.365,-0.361 0.359,-0.341 0.355,-0.312C0.354,-0.301 0.353,-0.29 0.353,-0.279C0.352,-0.249 0.348,-0.206 0.342,-0.148C0.353,-0.169 0.361,-0.185 0.365,-0.196C0.37,-0.212 0.375,-0.237 0.38,-0.271C0.391,-0.278 0.397,-0.282 0.399,-0.283L0.471,-0.312C0.473,-0.313 0.475,-0.315 0.475,-0.319C0.475,-0.328 0.467,-0.343 0.453,-0.365C0.45,-0.387 0.449,-0.407 0.449,-0.424C0.449,-0.432 0.452,-0.447 0.458,-0.468C0.459,-0.473 0.451,-0.492 0.432,-0.525C0.431,-0.527 0.43,-0.528 0.43,-0.529C0.43,-0.529 0.433,-0.535 0.438,-0.547L0.474,-0.604L0.516,-0.677C0.522,-0.684 0.531,-0.687 0.543,-0.687C0.552,-0.687 0.56,-0.684 0.566,-0.677C0.573,-0.669 0.577,-0.661 0.577,-0.651C0.577,-0.638 0.573,-0.622 0.565,-0.604C0.555,-0.579 0.549,-0.564 0.547,-0.559C0.541,-0.542 0.537,-0.533 0.535,-0.531L0.484,-0.488C0.484,-0.487 0.483,-0.486 0.483,-0.484L0.483,-0.484L0.5,-0.456C0.569,-0.48 0.618,-0.5 0.65,-0.516C0.668,-0.525 0.693,-0.54 0.726,-0.56L0.613,-0.679C0.674,-0.675 0.717,-0.666 0.741,-0.654C0.745,-0.652 0.759,-0.643 0.782,-0.627C0.804,-0.613 0.817,-0.603 0.821,-0.598C0.829,-0.587 0.833,-0.577 0.833,-0.567C0.833,-0.554 0.827,-0.544 0.817,-0.535C0.809,-0.528 0.799,-0.524 0.788,-0.523C0.722,-0.52 0.69,-0.518 0.689,-0.518L0.685,-0.508C0.71,-0.502 0.723,-0.497 0.726,-0.494C0.738,-0.48 0.744,-0.466 0.744,-0.453C0.744,-0.447 0.742,-0.442 0.74,-0.439L0.686,-0.37L0.679,-0.326L0.655,-0.299C0.652,-0.296 0.651,-0.289 0.651,-0.278C0.651,-0.271 0.652,-0.264 0.654,-0.257C0.654,-0.256 0.655,-0.254 0.655,-0.253L0.639,-0.178L0.604,-0.064C0.605,-0.059 0.608,-0.053 0.613,-0.047C0.619,-0.04 0.627,-0.036 0.636,-0.036C0.646,-0.036 0.694,-0.044 0.779,-0.06C0.807,-0.066 0.824,-0.074 0.829,-0.085C0.831,-0.09 0.834,-0.103 0.837,-0.125C0.838,-0.13 0.838,-0.134 0.838,-0.138L0.833,-0.266C0.88,-0.179 0.904,-0.117 0.904,-0.079C0.904,-0.052 0.894,-0.03 0.873,-0.013C0.855,0.002 0.822,0.015 0.775,0.026C0.735,0.035 0.693,0.04 0.649,0.04C0.593,0.04 0.556,0.029 0.536,0.006C0.522,-0.009 0.515,-0.023 0.515,-0.038C0.515,-0.067 0.529,-0.11 0.556,-0.165C0.569,-0.19 0.584,-0.227 0.603,-0.276C0.567,-0.239 0.542,-0.209 0.529,-0.188C0.484,-0.113 0.46,-0.076 0.459,-0.075C0.407,-0.026 0.381,0.001 0.38,0.004C0.372,0.032 0.367,0.046 0.364,0.048C0.357,0.052 0.351,0.054 0.346,0.054C0.338,0.054 0.327,0.046 0.314,0.032C0.3,0.016 0.288,-0.005 0.28,-0.032C0.271,-0.059 0.267,-0.087 0.267,-0.115C0.267,-0.118 0.271,-0.181 0.28,-0.302L0.24,-0.284C0.2,-0.251 0.169,-0.234 0.148,-0.234C0.134,-0.234 0.121,-0.24 0.11,-0.251C0.101,-0.261 0.096,-0.275 0.096,-0.291C0.096,-0.295 0.099,-0.314 0.104,-0.346C0.111,-0.381 0.116,-0.407 0.12,-0.422C0.121,-0.427 0.128,-0.437 0.141,-0.453C0.142,-0.455 0.143,-0.462 0.144,-0.473ZM0.369,-0.042L0.508,-0.25C0.44,-0.242 0.399,-0.221 0.385,-0.188C0.374,-0.162 0.369,-0.124 0.369,-0.073C0.369,-0.069 0.369,-0.058 0.369,-0.042ZM0.641,-0.453C0.636,-0.453 0.63,-0.452 0.623,-0.45C0.587,-0.443 0.566,-0.439 0.561,-0.438C0.526,-0.434 0.511,-0.427 0.514,-0.417L0.519,-0.399C0.522,-0.376 0.526,-0.364 0.529,-0.361C0.533,-0.358 0.538,-0.356 0.544,-0.356C0.561,-0.356 0.58,-0.364 0.603,-0.381C0.618,-0.392 0.632,-0.407 0.647,-0.426C0.654,-0.436 0.658,-0.442 0.658,-0.445C0.658,-0.45 0.652,-0.453 0.641,-0.453Z" style="fill:rgb(0,62,164);fill-rule:nonzero;"/>
                        </g>
                    </g>
                    <g transform="matrix(1,0,0,1,117.046,30.6494)">
                        <g transform="matrix(250,0,0,250,1500.59,478.158)">
                            <path d="M0.294,-0.523C0.296,-0.569 0.3,-0.602 0.308,-0.62L0.356,-0.746L0.356,-0.75C0.356,-0.759 0.344,-0.763 0.321,-0.762C0.349,-0.775 0.372,-0.782 0.39,-0.782C0.405,-0.782 0.42,-0.778 0.434,-0.771C0.447,-0.764 0.454,-0.753 0.454,-0.739C0.454,-0.73 0.451,-0.719 0.445,-0.706C0.439,-0.693 0.418,-0.651 0.382,-0.58C0.363,-0.523 0.353,-0.493 0.353,-0.489C0.353,-0.488 0.354,-0.486 0.355,-0.485C0.404,-0.444 0.428,-0.424 0.429,-0.422C0.43,-0.421 0.43,-0.419 0.43,-0.417C0.43,-0.414 0.429,-0.411 0.426,-0.408C0.421,-0.403 0.416,-0.4 0.41,-0.399L0.343,-0.387C0.334,-0.385 0.329,-0.373 0.329,-0.352C0.329,-0.337 0.336,-0.31 0.35,-0.271L0.421,-0.317C0.397,-0.283 0.378,-0.258 0.364,-0.242C0.361,-0.238 0.359,-0.234 0.359,-0.231C0.359,-0.223 0.369,-0.156 0.389,-0.028C0.39,-0.023 0.391,-0.019 0.391,-0.016C0.391,0.001 0.386,0.012 0.375,0.019C0.371,0.022 0.365,0.023 0.359,0.023C0.333,0.023 0.278,-0.015 0.196,-0.092C0.248,-0.063 0.283,-0.048 0.303,-0.048C0.307,-0.048 0.311,-0.049 0.314,-0.051C0.322,-0.057 0.326,-0.066 0.326,-0.077C0.326,-0.105 0.316,-0.14 0.297,-0.18C0.263,-0.151 0.233,-0.137 0.209,-0.137C0.19,-0.137 0.175,-0.143 0.164,-0.155C0.156,-0.165 0.151,-0.176 0.151,-0.188C0.151,-0.202 0.155,-0.214 0.161,-0.225L0.179,-0.255L0.216,-0.323C0.244,-0.357 0.26,-0.378 0.265,-0.385C0.27,-0.392 0.272,-0.399 0.272,-0.406C0.272,-0.408 0.271,-0.41 0.27,-0.413C0.27,-0.413 0.23,-0.446 0.152,-0.511C0.138,-0.522 0.125,-0.541 0.112,-0.566C0.093,-0.604 0.083,-0.625 0.083,-0.632L0.083,-0.64C0.083,-0.644 0.086,-0.647 0.092,-0.65C0.097,-0.654 0.103,-0.655 0.11,-0.655C0.13,-0.655 0.158,-0.641 0.193,-0.613C0.203,-0.605 0.237,-0.575 0.294,-0.523ZM0.239,-0.21C0.255,-0.217 0.266,-0.222 0.272,-0.227C0.284,-0.234 0.29,-0.255 0.29,-0.289C0.29,-0.305 0.287,-0.313 0.282,-0.313C0.263,-0.313 0.249,-0.283 0.241,-0.222L0.239,-0.21ZM0.549,-0.564C0.564,-0.545 0.575,-0.535 0.583,-0.535C0.587,-0.535 0.591,-0.537 0.596,-0.54L0.655,-0.588C0.681,-0.608 0.706,-0.618 0.732,-0.618C0.764,-0.618 0.793,-0.606 0.818,-0.583C0.833,-0.569 0.84,-0.556 0.84,-0.543C0.84,-0.511 0.82,-0.471 0.781,-0.424C0.768,-0.41 0.739,-0.385 0.693,-0.349L0.623,-0.293C0.596,-0.272 0.566,-0.232 0.535,-0.174C0.524,-0.153 0.519,-0.138 0.519,-0.129C0.519,-0.122 0.523,-0.118 0.531,-0.118C0.533,-0.118 0.568,-0.13 0.636,-0.152C0.685,-0.165 0.714,-0.173 0.722,-0.176C0.731,-0.178 0.736,-0.18 0.737,-0.182C0.738,-0.185 0.739,-0.187 0.739,-0.189C0.739,-0.19 0.725,-0.217 0.697,-0.271C0.756,-0.26 0.797,-0.247 0.819,-0.232C0.859,-0.207 0.879,-0.174 0.879,-0.133C0.879,-0.116 0.874,-0.1 0.863,-0.085C0.846,-0.063 0.807,-0.042 0.747,-0.025C0.763,-0.058 0.771,-0.084 0.771,-0.102C0.771,-0.122 0.766,-0.133 0.755,-0.133C0.751,-0.133 0.722,-0.12 0.666,-0.093C0.593,-0.068 0.55,-0.054 0.536,-0.049C0.522,-0.045 0.511,-0.043 0.502,-0.043C0.486,-0.043 0.467,-0.053 0.448,-0.074C0.437,-0.086 0.431,-0.095 0.431,-0.1L0.431,-0.104L0.44,-0.131L0.662,-0.427C0.703,-0.482 0.724,-0.52 0.724,-0.541C0.724,-0.564 0.715,-0.576 0.698,-0.576C0.675,-0.576 0.652,-0.567 0.63,-0.547C0.62,-0.538 0.612,-0.527 0.605,-0.515L0.527,-0.366C0.525,-0.361 0.519,-0.357 0.51,-0.353C0.506,-0.351 0.502,-0.351 0.499,-0.351C0.486,-0.351 0.475,-0.356 0.466,-0.366C0.458,-0.374 0.455,-0.384 0.455,-0.395C0.455,-0.434 0.486,-0.491 0.549,-0.564Z" style="fill:rgb(0,62,164);fill-rule:nonzero;"/>
                        </g>
                    </g>
                </g>
                <g transform="matrix(1,0,0,1,117.046,630.408)">
                    <g transform="matrix(250,0,0,250,1500.59,493.346)">
                        <path d="M0.345,-0.695C0.356,-0.716 0.366,-0.729 0.377,-0.734C0.391,-0.742 0.409,-0.746 0.429,-0.746C0.459,-0.746 0.481,-0.738 0.495,-0.723C0.504,-0.713 0.508,-0.702 0.508,-0.69C0.508,-0.678 0.506,-0.667 0.502,-0.658L0.464,-0.573L0.453,-0.529C0.448,-0.509 0.444,-0.495 0.441,-0.485C0.436,-0.472 0.434,-0.465 0.434,-0.463C0.434,-0.447 0.459,-0.429 0.508,-0.407C0.514,-0.398 0.517,-0.39 0.518,-0.382L0.518,-0.38C0.518,-0.376 0.516,-0.373 0.511,-0.369C0.499,-0.358 0.477,-0.352 0.446,-0.352C0.435,-0.352 0.422,-0.352 0.409,-0.353L0.376,-0.218L0.476,-0.311C0.458,-0.26 0.444,-0.225 0.436,-0.206C0.433,-0.199 0.422,-0.178 0.401,-0.143C0.397,-0.135 0.395,-0.127 0.395,-0.12C0.395,-0.103 0.397,-0.085 0.401,-0.068C0.417,-0.007 0.425,0.032 0.425,0.05C0.425,0.066 0.418,0.08 0.406,0.091C0.398,0.098 0.39,0.101 0.382,0.101C0.371,0.101 0.352,0.091 0.326,0.072C0.289,0.046 0.268,0.029 0.263,0.022C0.259,0.018 0.255,0.008 0.248,-0.009C0.257,-0.004 0.263,-0 0.268,0.003C0.303,0.029 0.325,0.042 0.335,0.042C0.34,0.042 0.344,0.038 0.35,0.031C0.354,0.026 0.356,0.02 0.356,0.014C0.356,-0.002 0.353,-0.019 0.346,-0.035L0.33,-0.072C0.257,-0.041 0.218,-0.026 0.213,-0.026C0.198,-0.026 0.185,-0.033 0.173,-0.046C0.16,-0.06 0.153,-0.075 0.153,-0.089C0.153,-0.119 0.166,-0.16 0.19,-0.212C0.218,-0.27 0.246,-0.313 0.275,-0.342C0.292,-0.358 0.301,-0.368 0.304,-0.372C0.307,-0.375 0.308,-0.379 0.308,-0.383L0.308,-0.385C0.308,-0.39 0.306,-0.393 0.303,-0.396C0.3,-0.399 0.292,-0.403 0.278,-0.408C0.251,-0.417 0.226,-0.438 0.202,-0.468C0.188,-0.486 0.179,-0.497 0.176,-0.5C0.162,-0.516 0.155,-0.526 0.155,-0.531C0.155,-0.533 0.156,-0.535 0.158,-0.539C0.141,-0.558 0.13,-0.576 0.125,-0.592C0.12,-0.609 0.118,-0.628 0.118,-0.65C0.118,-0.676 0.128,-0.689 0.147,-0.689C0.175,-0.689 0.202,-0.677 0.229,-0.653C0.244,-0.639 0.271,-0.602 0.308,-0.543C0.324,-0.518 0.339,-0.505 0.353,-0.505C0.358,-0.505 0.362,-0.508 0.365,-0.513C0.367,-0.517 0.375,-0.544 0.388,-0.594L0.417,-0.696C0.417,-0.707 0.411,-0.713 0.398,-0.713C0.387,-0.713 0.37,-0.707 0.345,-0.695ZM0.324,-0.306C0.289,-0.27 0.268,-0.244 0.262,-0.228C0.242,-0.171 0.232,-0.136 0.232,-0.123C0.232,-0.115 0.236,-0.112 0.245,-0.112C0.259,-0.112 0.277,-0.122 0.298,-0.141C0.309,-0.152 0.316,-0.159 0.318,-0.164C0.321,-0.17 0.322,-0.179 0.322,-0.193L0.322,-0.219L0.324,-0.306ZM0.639,-0.28C0.688,-0.305 0.73,-0.317 0.766,-0.317C0.786,-0.317 0.805,-0.308 0.821,-0.29C0.83,-0.279 0.838,-0.261 0.843,-0.236C0.848,-0.216 0.851,-0.194 0.851,-0.171C0.851,-0.093 0.836,-0.024 0.806,0.037C0.794,0.06 0.775,0.074 0.749,0.08C0.742,0.081 0.699,0.082 0.62,0.083C0.604,0.088 0.594,0.09 0.592,0.09C0.574,0.09 0.56,0.08 0.55,0.06C0.538,0.035 0.532,0.007 0.532,-0.025C0.532,-0.034 0.534,-0.068 0.538,-0.126C0.561,-0.22 0.581,-0.286 0.597,-0.327C0.611,-0.359 0.629,-0.389 0.652,-0.416C0.665,-0.43 0.678,-0.444 0.691,-0.458C0.65,-0.447 0.618,-0.442 0.594,-0.442C0.566,-0.442 0.534,-0.449 0.499,-0.462C0.473,-0.472 0.46,-0.482 0.46,-0.492C0.46,-0.504 0.475,-0.513 0.504,-0.521C0.512,-0.523 0.585,-0.539 0.723,-0.569C0.764,-0.578 0.793,-0.582 0.809,-0.582C0.869,-0.582 0.899,-0.564 0.899,-0.529C0.899,-0.518 0.895,-0.508 0.887,-0.499C0.881,-0.491 0.862,-0.483 0.829,-0.474C0.787,-0.461 0.747,-0.436 0.709,-0.397C0.687,-0.375 0.664,-0.336 0.639,-0.28ZM0.664,-0.112C0.651,-0.111 0.64,-0.107 0.63,-0.099C0.618,-0.089 0.612,-0.08 0.612,-0.072L0.612,-0.036L0.611,0.01C0.611,0.023 0.618,0.035 0.63,0.044C0.637,0.049 0.646,0.051 0.656,0.051C0.68,0.051 0.702,0.042 0.723,0.023C0.748,0 0.76,-0.026 0.76,-0.056C0.76,-0.063 0.759,-0.068 0.756,-0.072C0.75,-0.079 0.741,-0.085 0.729,-0.089L0.664,-0.112ZM0.619,-0.151C0.643,-0.157 0.66,-0.16 0.671,-0.16C0.693,-0.16 0.724,-0.151 0.765,-0.134C0.768,-0.161 0.77,-0.183 0.77,-0.2C0.77,-0.225 0.764,-0.243 0.753,-0.254C0.746,-0.261 0.739,-0.265 0.73,-0.265C0.705,-0.265 0.679,-0.253 0.654,-0.23C0.639,-0.217 0.627,-0.19 0.619,-0.151Z" style="fill:rgb(0,62,164);fill-rule:nonzero;"/>
                    </g>
                </g>
                <g transform="matrix(1,0,0,1,117.046,340.675)">
                    <g transform="matrix(250,0,0,250,1500.59,493.346)">
                        <path d="M0.226,-0.052C0.247,-0.019 0.263,-0.002 0.273,-0.002C0.279,-0.002 0.284,-0.005 0.29,-0.011C0.317,-0.038 0.331,-0.072 0.331,-0.113C0.331,-0.128 0.328,-0.14 0.323,-0.15L0.283,-0.23C0.278,-0.24 0.276,-0.25 0.276,-0.261C0.276,-0.273 0.28,-0.281 0.288,-0.287C0.292,-0.29 0.296,-0.291 0.3,-0.291C0.306,-0.291 0.313,-0.278 0.322,-0.253C0.323,-0.252 0.339,-0.236 0.372,-0.203C0.389,-0.184 0.398,-0.162 0.398,-0.134C0.398,-0.073 0.375,-0.02 0.329,0.027C0.303,0.053 0.282,0.065 0.266,0.065C0.265,0.065 0.263,0.065 0.261,0.063C0.26,0.063 0.253,0.049 0.242,0.021L0.221,-0.021L0.226,-0.052ZM0.306,-0.628L0.301,-0.692C0.321,-0.689 0.336,-0.684 0.346,-0.678C0.347,-0.677 0.366,-0.651 0.402,-0.6C0.414,-0.582 0.425,-0.574 0.435,-0.574C0.444,-0.574 0.468,-0.603 0.505,-0.66C0.524,-0.69 0.555,-0.715 0.595,-0.736C0.632,-0.756 0.663,-0.765 0.689,-0.765C0.711,-0.765 0.731,-0.755 0.749,-0.735C0.765,-0.718 0.772,-0.698 0.772,-0.676C0.772,-0.652 0.764,-0.632 0.749,-0.617C0.726,-0.595 0.687,-0.566 0.631,-0.532C0.608,-0.518 0.573,-0.494 0.529,-0.461C0.576,-0.469 0.606,-0.473 0.62,-0.473C0.636,-0.473 0.651,-0.468 0.664,-0.458C0.678,-0.449 0.685,-0.436 0.685,-0.42C0.685,-0.41 0.681,-0.402 0.672,-0.395C0.667,-0.39 0.654,-0.387 0.634,-0.385C0.595,-0.382 0.559,-0.377 0.526,-0.37C0.534,-0.344 0.542,-0.328 0.551,-0.321L0.56,-0.314L0.645,-0.32L0.646,-0.32C0.655,-0.313 0.659,-0.306 0.659,-0.298C0.659,-0.296 0.657,-0.292 0.651,-0.285C0.65,-0.283 0.624,-0.267 0.575,-0.235C0.574,-0.233 0.573,-0.231 0.573,-0.23C0.573,-0.229 0.573,-0.228 0.574,-0.226C0.576,-0.219 0.577,-0.208 0.578,-0.192C0.579,-0.155 0.585,-0.133 0.597,-0.127C0.597,-0.127 0.598,-0.126 0.598,-0.126L0.6,-0.125C0.6,-0.125 0.601,-0.126 0.602,-0.127C0.602,-0.128 0.604,-0.129 0.607,-0.131C0.612,-0.134 0.618,-0.142 0.626,-0.155C0.632,-0.165 0.635,-0.174 0.635,-0.185C0.637,-0.206 0.638,-0.217 0.641,-0.22C0.644,-0.223 0.648,-0.225 0.653,-0.225C0.665,-0.225 0.675,-0.22 0.685,-0.209C0.693,-0.2 0.697,-0.19 0.697,-0.178C0.697,-0.171 0.695,-0.162 0.69,-0.152C0.689,-0.15 0.67,-0.119 0.633,-0.061L0.631,-0.052L0.629,-0.051C0.629,-0.051 0.63,-0.05 0.631,-0.05C0.633,-0.048 0.636,-0.044 0.637,-0.037C0.639,-0.027 0.666,-0.007 0.718,0.023C0.723,0.026 0.728,0.027 0.732,0.027C0.738,0.027 0.74,0.026 0.74,0.024L0.736,-0.005L0.764,-0.065C0.793,0.023 0.808,0.07 0.808,0.076C0.808,0.093 0.8,0.109 0.785,0.124C0.775,0.134 0.762,0.139 0.747,0.139C0.729,0.139 0.712,0.133 0.694,0.12C0.69,0.117 0.648,0.07 0.57,-0.019C0.495,0.007 0.455,0.02 0.45,0.02C0.431,0.02 0.407,0.013 0.378,-0L0.378,-0.029C0.407,-0.021 0.429,-0.017 0.445,-0.017C0.476,-0.017 0.506,-0.028 0.534,-0.05C0.549,-0.062 0.556,-0.07 0.554,-0.076L0.525,-0.166L0.514,-0.218C0.509,-0.23 0.497,-0.236 0.479,-0.236C0.465,-0.236 0.45,-0.234 0.435,-0.23C0.425,-0.228 0.417,-0.227 0.412,-0.227C0.402,-0.227 0.392,-0.231 0.381,-0.239C0.378,-0.24 0.375,-0.246 0.372,-0.257C0.449,-0.276 0.487,-0.287 0.488,-0.288C0.492,-0.292 0.494,-0.298 0.494,-0.303C0.494,-0.303 0.491,-0.311 0.485,-0.326C0.48,-0.339 0.471,-0.35 0.458,-0.357C0.453,-0.361 0.448,-0.362 0.444,-0.362L0.341,-0.362C0.332,-0.362 0.324,-0.367 0.316,-0.375C0.308,-0.383 0.305,-0.393 0.305,-0.404C0.305,-0.42 0.316,-0.434 0.339,-0.445C0.345,-0.447 0.369,-0.455 0.412,-0.468C0.37,-0.49 0.343,-0.51 0.331,-0.528C0.319,-0.546 0.31,-0.579 0.306,-0.628ZM0.46,-0.488C0.522,-0.512 0.575,-0.555 0.62,-0.618C0.648,-0.658 0.662,-0.686 0.662,-0.703C0.662,-0.716 0.656,-0.723 0.645,-0.723C0.631,-0.723 0.613,-0.717 0.591,-0.707C0.559,-0.693 0.538,-0.675 0.526,-0.653C0.524,-0.651 0.505,-0.601 0.467,-0.504C0.466,-0.502 0.464,-0.498 0.462,-0.494L0.46,-0.488ZM0.622,-0.362C0.655,-0.369 0.685,-0.372 0.71,-0.372C0.73,-0.372 0.747,-0.366 0.76,-0.354C0.772,-0.344 0.778,-0.332 0.778,-0.318C0.778,-0.312 0.776,-0.307 0.772,-0.304C0.765,-0.3 0.75,-0.297 0.726,-0.295C0.71,-0.294 0.69,-0.286 0.664,-0.272C0.688,-0.289 0.7,-0.302 0.7,-0.313C0.7,-0.329 0.674,-0.346 0.622,-0.362Z" style="fill:rgb(0,62,164);fill-rule:nonzero;"/>
                    </g>
                </g>
            </g>
        </g>
    </g>
</svg>
