<?xml version="1.0" encoding="UTF-8" standalone="no"?>
<!DOCTYPE svg PUBLIC "-//W3C//DTD SVG 1.1//EN" "http://www.w3.org/Graphics/SVG/1.1/DTD/svg11.dtd">
<svg width="100%" height="100%" viewBox="0 0 2048 2732" version="1.1" xmlns="http://www.w3.org/2000/svg" xmlns:xlink="http://www.w3.org/1999/xlink" xml:space="preserve" xmlns:serif="http://www.serif.com/" style="fill-rule:evenodd;clip-rule:evenodd;stroke-linecap:square;stroke-linejoin:round;stroke-miterlimit:1.5;">
    <rect id="PRE-C9" x="0" y="0" width="2048" height="2732" style="fill:none;"/>
    <g id="PRE-C91" serif:id="PRE-C9">
		<a xlink:href="C9-REFOCUS.svg">
        <g id="S">
            <g transform="matrix(1,0,0,1,22,300)">
                <rect x="0" y="0" width="1501.06" height="1501.09" style="fill:white;"/>
            </g>
            <g id="Meta-Ring-and-Background" serif:id="Meta-Ring and Background" transform="matrix(-1.09813,0,0,-1.09813,1578.56,2249.66)">
                <g transform="matrix(0.545852,-0.945443,0.9537,0.550619,-641.299,1170.26)">
                    <ellipse cx="692" cy="1046" rx="458" ry="454" style="fill:none;stroke:black;stroke-width:0.46px;"/>
                </g>
                <g transform="matrix(0.5,-0.866025,0.629632,0.363518,-412.931,1316.59)">
                    <path d="M768,524.038L768,568" style="fill:none;stroke:black;stroke-width:0.57px;"/>
                </g>
                <g transform="matrix(0.5,-0.866025,0.629632,0.363518,425.349,1800.57)">
                    <path d="M768,524.038L768,568" style="fill:none;stroke:black;stroke-width:0.57px;"/>
                </g>
                <g transform="matrix(-0.866025,-0.5,0.363518,-0.629632,1442.63,1400.58)">
                    <path d="M768,524.038L768,568" style="fill:none;stroke:black;stroke-width:0.57px;"/>
                </g>
                <g transform="matrix(-0.866025,-0.5,0.363518,-0.629632,958.61,2238.93)">
                    <path d="M768,524.038L768,568" style="fill:none;stroke:black;stroke-width:0.57px;"/>
                </g>
                <g transform="matrix(0.866025,-0.5,0.363518,0.629632,-371.594,713.016)">
                    <path d="M768,524.038L768,568" style="fill:none;stroke:black;stroke-width:0.57px;"/>
                </g>
                <g transform="matrix(0.866025,-0.5,0.363518,0.629632,112.404,1551.33)">
                    <path d="M768,524.038L768,568" style="fill:none;stroke:black;stroke-width:0.57px;"/>
                </g>
                <g transform="matrix(-0.5,-0.866025,0.629632,-0.363518,1193.38,1713.55)">
                    <path d="M768,524.038L768,568" style="fill:none;stroke:black;stroke-width:0.57px;"/>
                </g>
                <g transform="matrix(-0.5,-0.866025,0.629632,-0.363518,355.038,2197.57)">
                    <path d="M768,524.038L768,568" style="fill:none;stroke:black;stroke-width:0.57px;"/>
                </g>
                <g transform="matrix(1,0,0,0.727036,-34,210.969)">
                    <path d="M768,524.038L768,568" style="fill:none;stroke:black;stroke-width:0.57px;"/>
                </g>
                <g transform="matrix(1,0,0,0.727036,-34,1179)">
                    <path d="M768,524.038L768,568" style="fill:none;stroke:black;stroke-width:0.57px;"/>
                </g>
                <g transform="matrix(6.12323e-17,-1,0.727036,4.45181e-17,821.022,1859.96)">
                    <path d="M768,524.038L768,568" style="fill:none;stroke:black;stroke-width:0.57px;"/>
                </g>
                <g transform="matrix(6.12323e-17,-1,0.727036,4.45181e-17,-146.974,1859.96)">
                    <path d="M768,524.038L768,568" style="fill:none;stroke:black;stroke-width:0.57px;"/>
                </g>
            </g>
            <g transform="matrix(4.02128e-16,-1.16724,1.04219,4.70269e-16,-295.741,1900.27)">
                <g id="Root-Markers" serif:id="Root Markers">
                    <path id="_9" serif:id="9" d="M731.999,618L768,730L695.999,730L731.999,618ZM731.999,680.84L740.959,708.715C740.959,708.715 723.04,708.715 723.04,708.715L731.999,680.84Z" style="fill-opacity:0.9;"/>
                </g>
            </g>
            <g transform="matrix(-1.09813,0,0,-1.09811,1579.66,2245.28)">
                <g transform="matrix(0.545852,-0.945443,0.9537,0.550619,-641.299,1170.26)">
                    <ellipse cx="692" cy="1046" rx="458" ry="454" style="fill:none;stroke:black;stroke-width:8.31px;stroke-linecap:round;"/>
                </g>
                <g transform="matrix(0.5,-0.866025,0.629632,0.363518,-412.931,1316.59)">
                    <path d="M768,524.038L768,568" style="fill:none;stroke:black;stroke-width:10.42px;stroke-linecap:round;"/>
                </g>
                <g transform="matrix(0.5,-0.866025,0.629632,0.363518,425.349,1800.57)">
                    <path d="M768,524.038L768,568" style="fill:none;stroke:black;stroke-width:10.42px;stroke-linecap:round;"/>
                </g>
                <g transform="matrix(-0.866025,-0.5,0.363518,-0.629632,1442.63,1400.58)">
                    <path d="M768,524.038L768,568" style="fill:none;stroke:black;stroke-width:10.42px;stroke-linecap:round;"/>
                </g>
                <g transform="matrix(-0.866025,-0.5,0.363518,-0.629632,958.61,2238.93)">
                    <path d="M768,524.038L768,568" style="fill:none;stroke:black;stroke-width:10.42px;stroke-linecap:round;"/>
                </g>
                <g transform="matrix(0.866025,-0.5,0.363518,0.629632,-371.594,713.016)">
                    <path d="M768,524.038L768,568" style="fill:none;stroke:black;stroke-width:10.42px;stroke-linecap:round;"/>
                </g>
                <g transform="matrix(0.866025,-0.5,0.363518,0.629632,112.404,1551.33)">
                    <path d="M768,524.038L768,568" style="fill:none;stroke:black;stroke-width:10.42px;stroke-linecap:round;"/>
                </g>
                <g transform="matrix(-0.5,-0.866025,0.629632,-0.363518,1193.38,1713.55)">
                    <path d="M768,524.038L768,568" style="fill:none;stroke:black;stroke-width:10.42px;stroke-linecap:round;"/>
                </g>
                <g transform="matrix(-0.5,-0.866025,0.629632,-0.363518,355.038,2197.57)">
                    <path d="M768,524.038L768,568" style="fill:none;stroke:black;stroke-width:10.42px;stroke-linecap:round;"/>
                </g>
                <g transform="matrix(1,0,0,0.727036,-34,210.969)">
                    <path d="M768,524.038L768,568" style="fill:none;stroke:black;stroke-width:10.42px;stroke-linecap:round;"/>
                </g>
                <g transform="matrix(1,0,0,0.727036,-34,1179)">
                    <path d="M768,524.038L768,568" style="fill:none;stroke:black;stroke-width:10.42px;stroke-linecap:round;"/>
                </g>
                <g transform="matrix(6.12323e-17,-1,0.727036,4.45181e-17,821.022,1859.96)">
                    <path d="M768,524.038L768,568" style="fill:none;stroke:black;stroke-width:10.42px;stroke-linecap:round;"/>
                </g>
                <g transform="matrix(6.12323e-17,-1,0.727036,4.45181e-17,-146.974,1859.96)">
                    <path d="M768,524.038L768,568" style="fill:none;stroke:black;stroke-width:10.42px;stroke-linecap:round;"/>
                </g>
            </g>
            <g id="_91" serif:id="9" transform="matrix(-1.39762,2.4207,-2.45799,-1.41909,2589.3,-50.0857)">
                <ellipse cx="766" cy="526.5" rx="33" ry="32.5" style="fill:rgb(122,155,88);stroke:white;stroke-width:8.52px;stroke-linecap:round;"/>
            </g>
            <g id="_7" serif:id="7" transform="matrix(-1.39762,2.4207,-2.45799,-1.41909,2868.72,413.119)">
                <ellipse cx="766" cy="526.5" rx="33" ry="32.5" style="fill:rgb(122,155,88);stroke:white;stroke-width:8.52px;stroke-linecap:round;"/>
            </g>
            <g id="_4" serif:id="4" transform="matrix(-1.39762,2.4207,-2.45799,-1.41909,3610.11,216.565)">
                <ellipse cx="766" cy="526.5" rx="33" ry="32.5" style="fill:rgb(122,155,88);stroke:white;stroke-width:8.52px;stroke-linecap:round;"/>
            </g>
            <g id="_2" serif:id="2" transform="matrix(-1.39762,2.4207,-2.45799,-1.41909,3610.1,-328.083)">
                <ellipse cx="766" cy="526.5" rx="33" ry="32.5" style="fill:rgb(122,155,88);stroke:white;stroke-width:8.52px;stroke-linecap:round;"/>
            </g>
        </g>
		</a>
        <g id="Text">
            <g transform="matrix(1,0,0,1,20,70)">
                <g transform="matrix(1,0,0,1,117.046,948.221)">
                    <g transform="matrix(270.833,0,0,270.833,1500.59,493.346)">
                        <path d="M0.716,-0.044C0.68,-0.05 0.626,-0.077 0.554,-0.126C0.531,-0.139 0.512,-0.149 0.496,-0.157L0.496,-0.161C0.491,-0.176 0.49,-0.207 0.492,-0.254C0.505,-0.264 0.519,-0.271 0.534,-0.275C0.564,-0.285 0.593,-0.293 0.62,-0.299C0.628,-0.302 0.631,-0.314 0.629,-0.336C0.626,-0.359 0.618,-0.368 0.606,-0.365C0.576,-0.358 0.546,-0.351 0.517,-0.345C0.508,-0.342 0.5,-0.341 0.494,-0.343C0.495,-0.354 0.495,-0.365 0.495,-0.375C0.493,-0.406 0.497,-0.425 0.507,-0.431C0.506,-0.432 0.506,-0.432 0.508,-0.433C0.532,-0.434 0.559,-0.433 0.588,-0.431C0.599,-0.429 0.606,-0.434 0.607,-0.445C0.606,-0.467 0.617,-0.503 0.641,-0.554C0.662,-0.604 0.682,-0.634 0.701,-0.645C0.716,-0.659 0.687,-0.678 0.612,-0.702C0.563,-0.715 0.501,-0.712 0.425,-0.692C0.348,-0.673 0.303,-0.664 0.289,-0.665C0.275,-0.661 0.274,-0.654 0.285,-0.643C0.282,-0.575 0.302,-0.508 0.345,-0.441C0.354,-0.428 0.36,-0.417 0.362,-0.41C0.363,-0.403 0.367,-0.401 0.375,-0.405C0.39,-0.413 0.407,-0.419 0.427,-0.424C0.429,-0.399 0.43,-0.361 0.43,-0.31C0.429,-0.26 0.428,-0.222 0.428,-0.197C0.417,-0.202 0.405,-0.208 0.392,-0.215C0.369,-0.225 0.354,-0.235 0.349,-0.245C0.35,-0.25 0.352,-0.255 0.354,-0.26C0.366,-0.301 0.375,-0.326 0.381,-0.334C0.384,-0.341 0.372,-0.347 0.345,-0.354C0.316,-0.361 0.301,-0.358 0.301,-0.345C0.3,-0.274 0.272,-0.206 0.217,-0.14C0.187,-0.101 0.142,-0.057 0.081,-0.006C0.066,0.009 0.068,0.016 0.087,0.014C0.124,0.013 0.15,0.008 0.165,-0C0.18,-0.008 0.205,-0.024 0.242,-0.048C0.249,-0.053 0.252,-0.063 0.25,-0.076C0.246,-0.09 0.26,-0.113 0.291,-0.146C0.294,-0.151 0.298,-0.157 0.304,-0.163L0.309,-0.163C0.366,-0.155 0.412,-0.136 0.447,-0.107C0.482,-0.078 0.507,-0.063 0.521,-0.062C0.533,-0.06 0.557,-0.049 0.592,-0.029C0.63,-0.011 0.651,0.013 0.655,0.042C0.657,0.053 0.689,0.06 0.752,0.063C0.813,0.067 0.876,0.061 0.94,0.045C0.955,0.042 0.956,0.037 0.942,0.03C0.897,0.004 0.821,-0.021 0.716,-0.044ZM0.377,-0.618C0.388,-0.629 0.418,-0.639 0.467,-0.647C0.514,-0.655 0.543,-0.651 0.553,-0.634C0.581,-0.591 0.571,-0.549 0.522,-0.507C0.508,-0.5 0.483,-0.494 0.448,-0.488C0.412,-0.483 0.392,-0.482 0.388,-0.487C0.355,-0.524 0.352,-0.567 0.377,-0.618Z" style="fill:rgb(122,155,88);fill-rule:nonzero;"/>
                    </g>
                </g>
                <g transform="matrix(1,0,0,1,117.046,40.6494)">
                    <g transform="matrix(270.833,0,0,270.833,1500.59,483.628)">
                        <path d="M0.45,-0.67C0.453,-0.661 0.462,-0.656 0.476,-0.656C0.489,-0.656 0.507,-0.655 0.53,-0.653C0.552,-0.65 0.567,-0.655 0.575,-0.668C0.582,-0.68 0.584,-0.689 0.58,-0.694C0.571,-0.704 0.561,-0.714 0.55,-0.724C0.536,-0.733 0.525,-0.746 0.518,-0.762C0.509,-0.776 0.501,-0.785 0.495,-0.789C0.472,-0.808 0.453,-0.796 0.438,-0.751C0.431,-0.73 0.435,-0.703 0.45,-0.67ZM0.209,-0.459C0.205,-0.454 0.201,-0.45 0.197,-0.446C0.191,-0.442 0.2,-0.433 0.223,-0.42C0.245,-0.405 0.264,-0.397 0.279,-0.396C0.295,-0.395 0.299,-0.408 0.291,-0.433C0.285,-0.458 0.285,-0.491 0.291,-0.534C0.291,-0.538 0.29,-0.541 0.288,-0.543C0.284,-0.545 0.281,-0.544 0.279,-0.54C0.25,-0.511 0.226,-0.484 0.209,-0.459ZM0.46,-0.605C0.425,-0.592 0.398,-0.582 0.379,-0.574C0.359,-0.567 0.343,-0.562 0.331,-0.56C0.321,-0.56 0.32,-0.551 0.328,-0.533C0.335,-0.514 0.342,-0.508 0.35,-0.514C0.382,-0.533 0.418,-0.545 0.457,-0.551C0.495,-0.556 0.53,-0.563 0.561,-0.57C0.59,-0.578 0.616,-0.583 0.639,-0.585C0.672,-0.59 0.699,-0.584 0.719,-0.568C0.739,-0.538 0.735,-0.514 0.708,-0.497C0.679,-0.48 0.655,-0.47 0.636,-0.469C0.595,-0.46 0.6,-0.451 0.651,-0.443C0.708,-0.448 0.752,-0.456 0.781,-0.468C0.809,-0.479 0.831,-0.485 0.847,-0.487C0.862,-0.49 0.86,-0.501 0.843,-0.522C0.778,-0.585 0.737,-0.617 0.72,-0.619C0.695,-0.628 0.663,-0.632 0.624,-0.63C0.548,-0.625 0.493,-0.617 0.46,-0.605ZM0.916,-0.29C0.929,-0.281 0.937,-0.289 0.939,-0.313C0.939,-0.337 0.935,-0.351 0.928,-0.355C0.919,-0.36 0.912,-0.369 0.908,-0.381C0.903,-0.393 0.897,-0.398 0.892,-0.396C0.877,-0.39 0.835,-0.385 0.765,-0.382C0.728,-0.381 0.691,-0.378 0.654,-0.375C0.655,-0.38 0.657,-0.384 0.661,-0.388C0.673,-0.405 0.673,-0.412 0.661,-0.41C0.648,-0.409 0.632,-0.412 0.612,-0.42C0.591,-0.428 0.583,-0.417 0.589,-0.386C0.588,-0.38 0.587,-0.374 0.587,-0.368C0.571,-0.365 0.555,-0.363 0.54,-0.361C0.504,-0.356 0.47,-0.351 0.439,-0.347C0.465,-0.405 0.492,-0.446 0.519,-0.469C0.525,-0.477 0.512,-0.485 0.481,-0.493C0.449,-0.502 0.434,-0.499 0.436,-0.485C0.431,-0.454 0.414,-0.405 0.385,-0.337C0.278,-0.319 0.185,-0.301 0.104,-0.283C0.069,-0.292 0.06,-0.283 0.077,-0.256C0.092,-0.229 0.105,-0.218 0.114,-0.223C0.177,-0.246 0.259,-0.265 0.358,-0.281C0.353,-0.269 0.347,-0.256 0.341,-0.243C0.334,-0.226 0.32,-0.208 0.301,-0.188C0.281,-0.168 0.288,-0.159 0.321,-0.161C0.355,-0.162 0.378,-0.159 0.39,-0.153C0.415,-0.142 0.44,-0.131 0.463,-0.12C0.438,-0.097 0.413,-0.079 0.39,-0.065C0.351,-0.044 0.314,-0.03 0.281,-0.021C0.247,-0.012 0.228,-0.007 0.224,-0.007C0.197,-0.005 0.193,0.003 0.212,0.017C0.23,0.03 0.264,0.035 0.313,0.033C0.361,0.032 0.384,0.026 0.382,0.017C0.378,-0.004 0.395,-0.021 0.432,-0.034C0.461,-0.045 0.49,-0.065 0.517,-0.094C0.608,-0.045 0.679,0.004 0.73,0.055C0.736,0.063 0.744,0.062 0.754,0.053C0.764,0.044 0.768,0.033 0.766,0.021C0.763,0.01 0.76,-0.009 0.758,-0.036C0.753,-0.063 0.723,-0.083 0.666,-0.097C0.625,-0.114 0.59,-0.129 0.559,-0.143C0.593,-0.186 0.615,-0.229 0.625,-0.272C0.627,-0.285 0.63,-0.299 0.634,-0.313C0.738,-0.317 0.832,-0.309 0.916,-0.29ZM0.506,-0.167L0.505,-0.166C0.458,-0.186 0.426,-0.201 0.41,-0.211C0.395,-0.215 0.397,-0.241 0.416,-0.29C0.449,-0.295 0.485,-0.299 0.522,-0.303C0.539,-0.305 0.556,-0.307 0.573,-0.309C0.56,-0.267 0.537,-0.22 0.506,-0.167Z" style="fill:rgb(122,155,88);fill-rule:nonzero;"/>
                    </g>
                </g>
                <g transform="matrix(1,0,0,1,117.046,630.408)">
                    <g transform="matrix(270.833,0,0,270.833,1500.59,493.346)">
                        <path d="M0.145,-0.383C0.126,-0.352 0.133,-0.347 0.164,-0.366C0.18,-0.377 0.203,-0.4 0.234,-0.433C0.245,-0.445 0.256,-0.459 0.268,-0.475C0.282,-0.451 0.299,-0.441 0.318,-0.446C0.319,-0.447 0.32,-0.447 0.322,-0.447C0.323,-0.437 0.323,-0.424 0.323,-0.408C0.321,-0.385 0.319,-0.359 0.317,-0.332C0.312,-0.331 0.308,-0.329 0.304,-0.328C0.231,-0.311 0.176,-0.297 0.137,-0.286C0.124,-0.283 0.113,-0.281 0.104,-0.28C0.092,-0.279 0.092,-0.27 0.104,-0.255C0.114,-0.238 0.122,-0.223 0.128,-0.21C0.134,-0.196 0.151,-0.199 0.178,-0.22C0.187,-0.227 0.228,-0.241 0.303,-0.263C0.305,-0.264 0.307,-0.264 0.309,-0.265C0.3,-0.213 0.279,-0.168 0.246,-0.129C0.227,-0.105 0.203,-0.083 0.174,-0.062C0.143,-0.041 0.119,-0.024 0.102,-0.009C0.087,0.004 0.095,0.011 0.126,0.013C0.155,0.015 0.192,0.004 0.237,-0.021C0.26,-0.034 0.27,-0.046 0.269,-0.057C0.266,-0.067 0.274,-0.083 0.291,-0.105C0.319,-0.135 0.341,-0.169 0.356,-0.207C0.385,-0.172 0.423,-0.129 0.468,-0.076C0.476,-0.06 0.483,-0.047 0.488,-0.038C0.491,-0.029 0.499,-0.026 0.511,-0.03C0.52,-0.033 0.529,-0.051 0.537,-0.084C0.544,-0.116 0.545,-0.134 0.539,-0.138C0.491,-0.175 0.434,-0.209 0.367,-0.24C0.37,-0.253 0.373,-0.267 0.377,-0.281C0.416,-0.291 0.454,-0.299 0.491,-0.305C0.515,-0.296 0.524,-0.306 0.519,-0.336C0.513,-0.366 0.506,-0.379 0.498,-0.375C0.455,-0.365 0.418,-0.357 0.389,-0.35C0.389,-0.357 0.39,-0.366 0.392,-0.376C0.395,-0.422 0.401,-0.453 0.411,-0.47C0.41,-0.471 0.41,-0.471 0.412,-0.472C0.442,-0.481 0.469,-0.492 0.492,-0.504C0.501,-0.509 0.504,-0.522 0.502,-0.543C0.499,-0.565 0.492,-0.575 0.482,-0.574C0.431,-0.564 0.388,-0.553 0.353,-0.541C0.334,-0.536 0.318,-0.532 0.305,-0.53C0.309,-0.54 0.315,-0.55 0.322,-0.56C0.349,-0.611 0.378,-0.655 0.407,-0.692C0.42,-0.703 0.421,-0.712 0.411,-0.72C0.4,-0.727 0.386,-0.735 0.37,-0.745C0.353,-0.755 0.343,-0.753 0.339,-0.739C0.27,-0.602 0.205,-0.484 0.145,-0.383ZM0.599,-0.211C0.608,-0.198 0.614,-0.188 0.616,-0.183C0.617,-0.176 0.621,-0.174 0.629,-0.178C0.666,-0.195 0.719,-0.2 0.789,-0.194C0.801,-0.19 0.809,-0.194 0.813,-0.206C0.813,-0.228 0.824,-0.266 0.845,-0.321C0.864,-0.375 0.885,-0.408 0.906,-0.42C0.92,-0.435 0.889,-0.454 0.813,-0.478C0.77,-0.488 0.718,-0.484 0.655,-0.467C0.59,-0.449 0.552,-0.44 0.542,-0.441C0.528,-0.439 0.526,-0.432 0.535,-0.42C0.532,-0.349 0.554,-0.279 0.599,-0.211ZM0.723,-0.268C0.715,-0.264 0.7,-0.26 0.679,-0.257C0.656,-0.253 0.644,-0.252 0.642,-0.255C0.606,-0.294 0.601,-0.341 0.626,-0.396C0.633,-0.405 0.654,-0.413 0.689,-0.421C0.723,-0.428 0.744,-0.426 0.752,-0.414C0.785,-0.367 0.776,-0.319 0.723,-0.268Z" style="fill:rgb(122,155,88);fill-rule:nonzero;"/>
                    </g>
                </g>
                <g transform="matrix(1,0,0,1,117.046,330.675)">
                    <g transform="matrix(270.833,0,0,270.833,1500.59,493.346)">
                        <path d="M0.204,-0.405C0.167,-0.368 0.137,-0.337 0.116,-0.31C0.097,-0.288 0.103,-0.281 0.132,-0.29C0.167,-0.304 0.198,-0.317 0.223,-0.329C0.246,-0.342 0.26,-0.358 0.264,-0.375C0.265,-0.392 0.271,-0.408 0.28,-0.422C0.289,-0.435 0.308,-0.46 0.335,-0.495C0.36,-0.53 0.383,-0.555 0.404,-0.571C0.421,-0.578 0.415,-0.59 0.388,-0.607C0.359,-0.625 0.342,-0.629 0.336,-0.619C0.33,-0.61 0.325,-0.6 0.321,-0.591C0.284,-0.517 0.245,-0.455 0.204,-0.405ZM0.637,-0.213C0.656,-0.28 0.671,-0.319 0.681,-0.332C0.685,-0.335 0.688,-0.339 0.689,-0.345C0.69,-0.344 0.693,-0.343 0.697,-0.341C0.768,-0.317 0.835,-0.306 0.899,-0.308C0.947,-0.31 0.972,-0.313 0.974,-0.316C0.974,-0.319 0.964,-0.328 0.944,-0.342C0.891,-0.373 0.85,-0.395 0.821,-0.408C0.789,-0.422 0.765,-0.436 0.75,-0.449C0.711,-0.476 0.67,-0.521 0.625,-0.584C0.579,-0.647 0.546,-0.684 0.526,-0.695C0.505,-0.708 0.494,-0.723 0.494,-0.741C0.483,-0.762 0.468,-0.755 0.45,-0.72C0.431,-0.685 0.437,-0.664 0.466,-0.656C0.487,-0.652 0.502,-0.64 0.512,-0.621C0.519,-0.602 0.547,-0.573 0.596,-0.534C0.642,-0.497 0.67,-0.449 0.68,-0.39C0.679,-0.377 0.678,-0.368 0.676,-0.363C0.673,-0.365 0.671,-0.366 0.671,-0.367C0.649,-0.38 0.627,-0.391 0.605,-0.398C0.579,-0.407 0.529,-0.403 0.455,-0.388C0.357,-0.367 0.306,-0.357 0.302,-0.357C0.284,-0.358 0.278,-0.351 0.284,-0.336C0.288,-0.321 0.292,-0.309 0.296,-0.302C0.297,-0.293 0.303,-0.292 0.313,-0.298C0.318,-0.303 0.341,-0.312 0.38,-0.323C0.381,-0.324 0.382,-0.324 0.384,-0.325C0.381,-0.312 0.378,-0.299 0.374,-0.285C0.363,-0.254 0.326,-0.197 0.262,-0.115C0.227,-0.078 0.202,-0.052 0.188,-0.036C0.173,-0.021 0.196,-0.022 0.257,-0.039C0.285,-0.056 0.318,-0.092 0.355,-0.149C0.39,-0.205 0.42,-0.25 0.443,-0.284C0.46,-0.31 0.478,-0.333 0.497,-0.353C0.54,-0.356 0.566,-0.347 0.573,-0.326C0.578,-0.282 0.568,-0.23 0.545,-0.169C0.522,-0.107 0.506,-0.074 0.496,-0.07C0.459,-0.062 0.416,-0.076 0.365,-0.113C0.349,-0.122 0.348,-0.117 0.361,-0.098C0.415,-0.037 0.453,-0 0.475,0.011C0.494,0.024 0.507,0.034 0.515,0.041C0.521,0.048 0.53,0.042 0.542,0.024C0.553,0.007 0.565,-0.015 0.576,-0.041C0.595,-0.088 0.616,-0.146 0.637,-0.213Z" style="fill:rgb(122,155,88);fill-rule:nonzero;"/>
                    </g>
                </g>
            </g>
            <g transform="matrix(1,0,0,1,126,-83.3764)">
                <g transform="matrix(75,0,0,75,1500.59,1765.71)">
                    <path d="M0.429,-0.104C0.444,-0.111 0.458,-0.119 0.471,-0.128C0.485,-0.137 0.498,-0.148 0.508,-0.159C0.52,-0.17 0.528,-0.182 0.535,-0.196C0.542,-0.209 0.545,-0.224 0.545,-0.24L0.545,-0.589C0.545,-0.626 0.532,-0.658 0.505,-0.683C0.479,-0.708 0.444,-0.727 0.401,-0.742C0.425,-0.747 0.449,-0.752 0.472,-0.755C0.496,-0.758 0.517,-0.76 0.534,-0.76C0.554,-0.76 0.574,-0.758 0.593,-0.755C0.612,-0.752 0.628,-0.746 0.643,-0.737C0.658,-0.728 0.67,-0.717 0.679,-0.703C0.688,-0.689 0.692,-0.671 0.692,-0.65C0.692,-0.643 0.692,-0.637 0.692,-0.633C0.691,-0.629 0.69,-0.625 0.689,-0.621C0.688,-0.615 0.686,-0.608 0.685,-0.599C0.684,-0.59 0.683,-0.578 0.683,-0.561L0.683,-0.28C0.697,-0.292 0.711,-0.304 0.726,-0.315C0.74,-0.326 0.754,-0.337 0.767,-0.346C0.78,-0.356 0.793,-0.364 0.805,-0.371C0.816,-0.377 0.826,-0.381 0.834,-0.383C0.848,-0.386 0.86,-0.387 0.871,-0.385C0.882,-0.382 0.89,-0.378 0.898,-0.372C0.905,-0.366 0.91,-0.359 0.913,-0.35C0.916,-0.341 0.918,-0.332 0.918,-0.322C0.918,-0.303 0.91,-0.29 0.895,-0.281C0.88,-0.272 0.859,-0.266 0.833,-0.262C0.807,-0.258 0.779,-0.252 0.75,-0.245C0.721,-0.238 0.692,-0.228 0.664,-0.216C0.655,-0.201 0.642,-0.187 0.626,-0.175C0.61,-0.163 0.592,-0.153 0.571,-0.143C0.55,-0.135 0.528,-0.127 0.504,-0.12C0.48,-0.113 0.455,-0.108 0.429,-0.104ZM0.319,-0.514C0.319,-0.508 0.318,-0.503 0.316,-0.498C0.341,-0.497 0.362,-0.493 0.377,-0.486C0.392,-0.478 0.404,-0.469 0.414,-0.457C0.436,-0.431 0.447,-0.398 0.447,-0.359C0.447,-0.309 0.432,-0.265 0.403,-0.228C0.371,-0.187 0.328,-0.167 0.275,-0.167C0.232,-0.167 0.191,-0.18 0.151,-0.206C0.102,-0.237 0.078,-0.275 0.078,-0.321C0.078,-0.368 0.107,-0.412 0.164,-0.452C0.176,-0.459 0.184,-0.467 0.187,-0.476C0.19,-0.485 0.191,-0.491 0.191,-0.496C0.191,-0.502 0.189,-0.508 0.184,-0.513C0.179,-0.518 0.167,-0.523 0.148,-0.528C0.15,-0.529 0.154,-0.531 0.159,-0.534L0.191,-0.547C0.196,-0.549 0.199,-0.55 0.201,-0.551C0.21,-0.556 0.219,-0.56 0.227,-0.563C0.234,-0.565 0.244,-0.566 0.255,-0.566C0.275,-0.566 0.291,-0.561 0.302,-0.551C0.313,-0.541 0.319,-0.529 0.319,-0.514ZM0.708,0.008C0.715,0.029 0.713,0.046 0.702,0.059C0.691,0.072 0.675,0.083 0.655,0.09C0.64,0.095 0.624,0.1 0.605,0.103C0.586,0.107 0.568,0.11 0.549,0.112C0.53,0.114 0.511,0.115 0.493,0.116C0.474,0.117 0.458,0.117 0.444,0.117C0.33,0.117 0.273,0.084 0.273,0.017C0.273,0.004 0.278,-0.008 0.286,-0.021C0.296,-0.033 0.307,-0.044 0.32,-0.054C0.333,-0.064 0.348,-0.073 0.363,-0.08C0.378,-0.086 0.392,-0.091 0.405,-0.094C0.392,-0.085 0.38,-0.074 0.369,-0.061C0.358,-0.048 0.352,-0.037 0.352,-0.026C0.352,-0.017 0.357,-0.01 0.367,-0.005C0.376,0 0.393,0.003 0.416,0.003C0.434,0.003 0.454,0.002 0.474,-0C0.496,-0.002 0.516,-0.004 0.536,-0.007C0.555,-0.01 0.573,-0.013 0.589,-0.016C0.604,-0.019 0.616,-0.021 0.623,-0.023C0.631,-0.025 0.639,-0.026 0.648,-0.027C0.657,-0.028 0.665,-0.027 0.673,-0.025C0.681,-0.024 0.688,-0.02 0.694,-0.015C0.7,-0.01 0.705,-0.002 0.708,0.008ZM0.21,-0.409C0.155,-0.37 0.128,-0.343 0.128,-0.327C0.128,-0.31 0.146,-0.293 0.181,-0.276C0.19,-0.273 0.201,-0.271 0.214,-0.271C0.225,-0.271 0.237,-0.273 0.248,-0.277C0.259,-0.28 0.27,-0.285 0.279,-0.29C0.288,-0.298 0.296,-0.307 0.302,-0.318C0.307,-0.329 0.31,-0.34 0.31,-0.352C0.31,-0.369 0.303,-0.383 0.29,-0.396C0.276,-0.408 0.26,-0.42 0.243,-0.431L0.21,-0.409Z" style="fill:rgb(122,155,88);fill-rule:nonzero;"/>
                </g>
                <g transform="matrix(75,0,0,75,1569.59,1765.71)">
                    <path d="M0.774,-0.226C0.759,-0.227 0.744,-0.228 0.731,-0.229C0.718,-0.229 0.703,-0.229 0.687,-0.229C0.654,-0.229 0.621,-0.228 0.588,-0.226L0.588,-0.168C0.588,-0.15 0.586,-0.135 0.582,-0.123C0.577,-0.11 0.572,-0.1 0.565,-0.092C0.558,-0.084 0.55,-0.078 0.542,-0.075C0.534,-0.072 0.526,-0.07 0.518,-0.07C0.497,-0.07 0.482,-0.074 0.472,-0.082C0.467,-0.083 0.462,-0.083 0.458,-0.084C0.454,-0.084 0.45,-0.084 0.446,-0.084C0.435,-0.084 0.425,-0.083 0.414,-0.082C0.404,-0.081 0.395,-0.078 0.387,-0.075C0.378,-0.072 0.371,-0.067 0.366,-0.061C0.361,-0.055 0.358,-0.048 0.358,-0.039C0.358,-0.024 0.365,-0.013 0.38,-0.006C0.394,0.001 0.412,0.004 0.434,0.004C0.485,0.004 0.525,-0 0.556,-0.008C0.586,-0.016 0.61,-0.023 0.627,-0.029C0.63,-0.03 0.633,-0.032 0.636,-0.033C0.64,-0.034 0.642,-0.034 0.644,-0.035C0.65,-0.036 0.656,-0.038 0.661,-0.039C0.666,-0.04 0.672,-0.04 0.677,-0.04C0.704,-0.04 0.721,-0.028 0.728,-0.004C0.735,0.017 0.733,0.035 0.722,0.05C0.711,0.066 0.696,0.078 0.675,0.085C0.655,0.092 0.631,0.098 0.605,0.102C0.578,0.106 0.551,0.109 0.526,0.11C0.521,0.111 0.514,0.111 0.506,0.111C0.499,0.111 0.492,0.111 0.487,0.111C0.463,0.111 0.44,0.109 0.417,0.106C0.394,0.103 0.374,0.097 0.356,0.089C0.338,0.081 0.323,0.07 0.312,0.056C0.3,0.042 0.293,0.024 0.292,0.003C0.29,-0.029 0.302,-0.058 0.328,-0.083C0.353,-0.108 0.396,-0.128 0.456,-0.142L0.456,-0.213C0.42,-0.208 0.385,-0.203 0.351,-0.196C0.317,-0.189 0.284,-0.182 0.253,-0.174C0.24,-0.171 0.224,-0.167 0.205,-0.162C0.187,-0.157 0.171,-0.155 0.157,-0.155C0.136,-0.155 0.118,-0.159 0.103,-0.168C0.088,-0.176 0.075,-0.187 0.065,-0.201C0.054,-0.215 0.046,-0.231 0.041,-0.25C0.035,-0.269 0.032,-0.288 0.031,-0.308C0.051,-0.287 0.076,-0.273 0.106,-0.267C0.135,-0.26 0.167,-0.257 0.201,-0.257C0.224,-0.257 0.249,-0.258 0.274,-0.26C0.311,-0.269 0.347,-0.283 0.384,-0.301C0.421,-0.318 0.453,-0.336 0.481,-0.355C0.478,-0.354 0.474,-0.354 0.471,-0.354L0.462,-0.354C0.451,-0.354 0.44,-0.355 0.431,-0.357C0.421,-0.358 0.412,-0.361 0.405,-0.365C0.4,-0.348 0.393,-0.336 0.383,-0.331C0.373,-0.326 0.363,-0.323 0.354,-0.323C0.336,-0.323 0.322,-0.327 0.312,-0.336C0.301,-0.344 0.296,-0.357 0.296,-0.374L0.296,-0.563C0.296,-0.58 0.295,-0.595 0.294,-0.607C0.292,-0.619 0.289,-0.629 0.286,-0.637C0.283,-0.646 0.278,-0.653 0.272,-0.658C0.266,-0.663 0.259,-0.668 0.25,-0.673C0.266,-0.675 0.283,-0.676 0.302,-0.676C0.321,-0.676 0.338,-0.674 0.354,-0.669C0.37,-0.664 0.383,-0.655 0.394,-0.644C0.405,-0.633 0.41,-0.617 0.41,-0.597L0.41,-0.595C0.43,-0.599 0.45,-0.603 0.469,-0.608C0.489,-0.612 0.507,-0.616 0.523,-0.621C0.54,-0.625 0.553,-0.627 0.562,-0.626C0.56,-0.654 0.556,-0.675 0.549,-0.69C0.542,-0.704 0.531,-0.715 0.518,-0.722C0.536,-0.724 0.555,-0.725 0.575,-0.725C0.595,-0.724 0.613,-0.721 0.63,-0.716C0.647,-0.71 0.661,-0.7 0.672,-0.687C0.683,-0.674 0.688,-0.655 0.688,-0.63L0.688,-0.447C0.688,-0.429 0.686,-0.414 0.682,-0.404C0.678,-0.393 0.673,-0.384 0.667,-0.378C0.661,-0.371 0.654,-0.367 0.647,-0.365C0.64,-0.362 0.633,-0.361 0.627,-0.361C0.61,-0.361 0.598,-0.364 0.589,-0.369C0.554,-0.356 0.515,-0.339 0.473,-0.319C0.432,-0.299 0.388,-0.282 0.343,-0.267C0.354,-0.268 0.366,-0.27 0.377,-0.271C0.388,-0.272 0.398,-0.274 0.409,-0.275C0.43,-0.278 0.453,-0.281 0.477,-0.285C0.502,-0.289 0.526,-0.293 0.551,-0.298C0.576,-0.303 0.6,-0.308 0.624,-0.314C0.648,-0.319 0.671,-0.325 0.692,-0.332C0.701,-0.335 0.716,-0.339 0.736,-0.343C0.755,-0.346 0.775,-0.348 0.795,-0.348C0.807,-0.348 0.819,-0.347 0.83,-0.345C0.841,-0.344 0.85,-0.341 0.859,-0.337C0.868,-0.333 0.875,-0.328 0.879,-0.321C0.884,-0.314 0.887,-0.304 0.887,-0.293C0.887,-0.279 0.883,-0.268 0.876,-0.259C0.87,-0.25 0.861,-0.243 0.85,-0.237C0.839,-0.233 0.826,-0.229 0.813,-0.227C0.8,-0.225 0.787,-0.225 0.774,-0.226ZM0.437,-0.466C0.447,-0.473 0.457,-0.481 0.467,-0.489C0.477,-0.497 0.486,-0.505 0.495,-0.514C0.482,-0.512 0.468,-0.511 0.454,-0.51C0.44,-0.509 0.425,-0.509 0.41,-0.51L0.41,-0.44C0.425,-0.441 0.44,-0.443 0.455,-0.446C0.469,-0.449 0.485,-0.452 0.502,-0.456C0.511,-0.458 0.521,-0.46 0.53,-0.463C0.539,-0.465 0.55,-0.467 0.563,-0.469L0.563,-0.528C0.553,-0.521 0.542,-0.514 0.531,-0.507C0.52,-0.501 0.508,-0.495 0.497,-0.49C0.485,-0.485 0.474,-0.48 0.464,-0.476C0.453,-0.472 0.444,-0.469 0.437,-0.466Z" style="fill:rgb(122,155,88);fill-rule:nonzero;"/>
                </g>
                <g transform="matrix(75,0,0,75,1638.59,1765.71)">
                    <path d="M0.595,-0.589C0.595,-0.662 0.547,-0.713 0.451,-0.742C0.475,-0.747 0.499,-0.752 0.523,-0.755C0.546,-0.758 0.567,-0.76 0.584,-0.76C0.604,-0.76 0.624,-0.758 0.643,-0.755C0.662,-0.752 0.678,-0.746 0.693,-0.737C0.708,-0.728 0.72,-0.717 0.729,-0.703C0.738,-0.689 0.742,-0.671 0.742,-0.65C0.742,-0.643 0.742,-0.636 0.741,-0.63C0.74,-0.625 0.739,-0.619 0.738,-0.612C0.737,-0.605 0.736,-0.598 0.735,-0.59C0.734,-0.582 0.733,-0.572 0.733,-0.561L0.733,0.038C0.733,0.073 0.722,0.099 0.701,0.118C0.68,0.137 0.65,0.147 0.613,0.147C0.592,0.147 0.573,0.141 0.556,0.13C0.539,0.119 0.525,0.108 0.515,0.097C0.54,0.099 0.56,0.097 0.574,0.092C0.588,0.087 0.595,0.078 0.595,0.063L0.595,-0.589ZM0.463,-0.485C0.463,-0.474 0.46,-0.464 0.455,-0.457C0.45,-0.45 0.443,-0.443 0.434,-0.438L0.343,-0.305C0.344,-0.304 0.347,-0.303 0.351,-0.302C0.364,-0.296 0.379,-0.287 0.398,-0.276C0.417,-0.264 0.435,-0.251 0.452,-0.236C0.454,-0.234 0.457,-0.233 0.461,-0.233C0.465,-0.232 0.469,-0.234 0.474,-0.239C0.48,-0.245 0.487,-0.255 0.496,-0.269C0.504,-0.283 0.513,-0.3 0.524,-0.32C0.517,-0.283 0.511,-0.253 0.506,-0.229C0.501,-0.204 0.5,-0.186 0.501,-0.174C0.504,-0.155 0.504,-0.138 0.499,-0.123C0.494,-0.108 0.48,-0.098 0.457,-0.094C0.44,-0.091 0.426,-0.094 0.416,-0.102C0.405,-0.112 0.398,-0.122 0.393,-0.133C0.39,-0.142 0.386,-0.152 0.381,-0.165C0.376,-0.178 0.37,-0.19 0.365,-0.202C0.359,-0.214 0.353,-0.225 0.348,-0.235C0.343,-0.245 0.338,-0.252 0.334,-0.256C0.329,-0.26 0.323,-0.26 0.317,-0.257C0.31,-0.253 0.303,-0.246 0.296,-0.237L0.199,-0.096C0.186,-0.077 0.169,-0.062 0.148,-0.051C0.127,-0.04 0.105,-0.033 0.084,-0.031C0.07,-0.03 0.055,-0.031 0.04,-0.035C0.025,-0.039 0.01,-0.048 -0.003,-0.061C0.008,-0.063 0.018,-0.067 0.028,-0.073C0.037,-0.078 0.046,-0.085 0.055,-0.092C0.064,-0.099 0.071,-0.107 0.079,-0.116C0.086,-0.124 0.092,-0.132 0.098,-0.14L0.288,-0.409C0.272,-0.406 0.257,-0.403 0.243,-0.4C0.228,-0.397 0.212,-0.396 0.195,-0.396C0.174,-0.396 0.156,-0.404 0.14,-0.419C0.124,-0.434 0.114,-0.46 0.109,-0.496C0.118,-0.493 0.127,-0.491 0.136,-0.49C0.145,-0.489 0.152,-0.489 0.157,-0.489C0.172,-0.489 0.188,-0.491 0.204,-0.496C0.22,-0.5 0.237,-0.505 0.254,-0.51C0.274,-0.516 0.295,-0.522 0.316,-0.528C0.337,-0.534 0.361,-0.537 0.386,-0.537C0.396,-0.537 0.406,-0.537 0.414,-0.536C0.424,-0.535 0.432,-0.532 0.439,-0.529C0.446,-0.525 0.452,-0.52 0.457,-0.513C0.461,-0.505 0.463,-0.496 0.463,-0.485Z" style="fill:rgb(122,155,88);fill-rule:nonzero;"/>
                </g>
                <g transform="matrix(75,0,0,75,1700.84,1765.71)">
                    <path d="M0.265,-0.14C0.291,-0.136 0.317,-0.138 0.344,-0.145C0.371,-0.152 0.396,-0.161 0.42,-0.17C0.423,-0.171 0.427,-0.173 0.431,-0.174C0.435,-0.176 0.439,-0.178 0.443,-0.179C0.463,-0.192 0.483,-0.206 0.504,-0.22C0.525,-0.234 0.544,-0.247 0.563,-0.259C0.509,-0.255 0.456,-0.249 0.403,-0.24C0.35,-0.231 0.3,-0.221 0.253,-0.209C0.24,-0.206 0.224,-0.202 0.205,-0.197C0.187,-0.192 0.171,-0.19 0.157,-0.19C0.136,-0.19 0.118,-0.194 0.103,-0.203C0.088,-0.211 0.075,-0.222 0.065,-0.236C0.054,-0.25 0.046,-0.266 0.041,-0.285C0.035,-0.304 0.032,-0.323 0.031,-0.343C0.051,-0.322 0.076,-0.308 0.106,-0.302C0.135,-0.295 0.167,-0.292 0.201,-0.292C0.234,-0.292 0.269,-0.294 0.305,-0.298C0.341,-0.302 0.376,-0.306 0.409,-0.31C0.412,-0.31 0.415,-0.31 0.416,-0.311C0.428,-0.317 0.438,-0.323 0.445,-0.33C0.452,-0.337 0.457,-0.343 0.461,-0.349C0.464,-0.355 0.466,-0.361 0.467,-0.367C0.468,-0.372 0.468,-0.377 0.468,-0.381C0.468,-0.386 0.465,-0.393 0.46,-0.401C0.454,-0.408 0.443,-0.415 0.428,-0.42C0.435,-0.427 0.446,-0.434 0.459,-0.44C0.472,-0.445 0.487,-0.448 0.502,-0.448C0.523,-0.448 0.543,-0.444 0.562,-0.437C0.58,-0.429 0.592,-0.415 0.597,-0.395C0.598,-0.388 0.599,-0.38 0.599,-0.371C0.598,-0.362 0.595,-0.351 0.588,-0.34C0.626,-0.348 0.661,-0.357 0.692,-0.367C0.701,-0.37 0.716,-0.374 0.736,-0.378C0.755,-0.381 0.775,-0.383 0.795,-0.383C0.807,-0.383 0.819,-0.382 0.83,-0.381C0.841,-0.379 0.85,-0.376 0.859,-0.372C0.868,-0.368 0.875,-0.363 0.879,-0.356C0.884,-0.348 0.887,-0.339 0.887,-0.328C0.887,-0.314 0.883,-0.303 0.876,-0.294C0.87,-0.284 0.861,-0.278 0.85,-0.273C0.839,-0.268 0.826,-0.264 0.813,-0.262C0.8,-0.26 0.787,-0.26 0.774,-0.261L0.711,-0.264C0.69,-0.257 0.666,-0.249 0.64,-0.239C0.614,-0.231 0.587,-0.221 0.558,-0.21C0.569,-0.211 0.58,-0.213 0.591,-0.214C0.602,-0.215 0.614,-0.215 0.626,-0.215C0.646,-0.215 0.661,-0.213 0.671,-0.21C0.681,-0.206 0.688,-0.201 0.692,-0.194C0.696,-0.187 0.698,-0.18 0.697,-0.171C0.696,-0.162 0.695,-0.152 0.693,-0.141C0.692,-0.136 0.691,-0.13 0.69,-0.125C0.689,-0.12 0.689,-0.114 0.689,-0.109L0.689,0.038C0.689,0.073 0.679,0.099 0.659,0.118C0.639,0.137 0.61,0.147 0.573,0.147C0.552,0.147 0.533,0.142 0.516,0.132C0.499,0.123 0.486,0.111 0.475,0.097C0.498,0.1 0.518,0.099 0.533,0.093C0.548,0.088 0.556,0.078 0.556,0.063L0.556,-0.113C0.542,-0.112 0.527,-0.108 0.511,-0.102C0.496,-0.096 0.481,-0.09 0.467,-0.084C0.45,-0.077 0.432,-0.07 0.414,-0.064C0.397,-0.057 0.379,-0.054 0.361,-0.054C0.338,-0.054 0.317,-0.062 0.298,-0.078C0.279,-0.094 0.268,-0.115 0.265,-0.14ZM0.701,-0.678C0.701,-0.66 0.694,-0.646 0.68,-0.635C0.666,-0.625 0.649,-0.617 0.63,-0.612L0.361,-0.384C0.344,-0.371 0.325,-0.361 0.304,-0.356C0.283,-0.351 0.261,-0.351 0.24,-0.356C0.227,-0.359 0.214,-0.366 0.202,-0.375C0.19,-0.384 0.18,-0.398 0.173,-0.415C0.192,-0.414 0.21,-0.417 0.229,-0.424C0.247,-0.431 0.264,-0.441 0.279,-0.452L0.455,-0.586C0.442,-0.584 0.429,-0.582 0.416,-0.581C0.403,-0.579 0.39,-0.578 0.379,-0.578C0.358,-0.578 0.338,-0.587 0.32,-0.605C0.301,-0.623 0.289,-0.652 0.284,-0.693C0.308,-0.686 0.327,-0.683 0.341,-0.683C0.359,-0.683 0.378,-0.686 0.399,-0.691C0.419,-0.696 0.44,-0.701 0.461,-0.707C0.484,-0.714 0.509,-0.72 0.534,-0.726C0.559,-0.731 0.586,-0.734 0.614,-0.734C0.625,-0.734 0.636,-0.733 0.647,-0.732C0.657,-0.731 0.666,-0.728 0.674,-0.724C0.682,-0.72 0.689,-0.714 0.694,-0.707C0.699,-0.7 0.701,-0.69 0.701,-0.678ZM0.633,-0.46C0.622,-0.467 0.607,-0.475 0.589,-0.484C0.571,-0.493 0.553,-0.501 0.534,-0.508C0.549,-0.517 0.569,-0.524 0.594,-0.53C0.619,-0.536 0.644,-0.539 0.67,-0.539C0.679,-0.539 0.69,-0.538 0.701,-0.537C0.712,-0.536 0.722,-0.533 0.732,-0.53C0.742,-0.526 0.751,-0.521 0.759,-0.515C0.768,-0.508 0.775,-0.5 0.78,-0.49C0.785,-0.477 0.786,-0.464 0.782,-0.451C0.778,-0.438 0.769,-0.426 0.755,-0.416C0.749,-0.411 0.743,-0.408 0.736,-0.407C0.729,-0.406 0.723,-0.406 0.716,-0.407C0.709,-0.408 0.701,-0.409 0.694,-0.411C0.687,-0.414 0.68,-0.416 0.673,-0.419C0.658,-0.425 0.643,-0.43 0.627,-0.435C0.613,-0.44 0.597,-0.444 0.58,-0.449L0.633,-0.46Z" style="fill:rgb(122,155,88);fill-rule:nonzero;"/>
                </g>
            </g>
        </g>
    </g>
</svg>
