<?xml version="1.0" encoding="UTF-8" standalone="no"?>
<!DOCTYPE svg PUBLIC "-//W3C//DTD SVG 1.1//EN" "http://www.w3.org/Graphics/SVG/1.1/DTD/svg11.dtd">
<svg width="100%" height="100%" viewBox="0 0 1200 1201" version="1.1" xmlns="http://www.w3.org/2000/svg" xmlns:xlink="http://www.w3.org/1999/xlink" xml:space="preserve" xmlns:serif="http://www.serif.com/" style="fill-rule:evenodd;clip-rule:evenodd;stroke-linejoin:round;stroke-miterlimit:2;">
    <g transform="matrix(1,0,0,1,-4292,-1509)">
        <g id="PRE-108" transform="matrix(1,0,0,1,4292,1509.5)">
            <rect x="0" y="0" width="1200" height="1200" style="fill:none;"/>
            <g transform="matrix(1,0,0,1,10,5)">
                <a xlink:href="108.svg"><g id="Link-Ellipse" serif:id="Link Ellipse" transform="matrix(8,0,0,8,-7810,-7800)">
                    <circle cx="1050" cy="1050" r="50" style="fill:#d5d5d5;"/>
					</g></a>
                <g transform="matrix(1,0,0,1,10,450)">
                    <g transform="matrix(80,0,0,80,391.32,162.56)">
                        <path d="M0.176,-0.599C0.165,-0.599 0.155,-0.6 0.145,-0.601C0.131,-0.605 0.115,-0.611 0.101,-0.611C0.096,-0.611 0.091,-0.61 0.086,-0.608C0.067,-0.601 0.063,-0.584 0.063,-0.565C0.063,-0.552 0.065,-0.538 0.066,-0.527C0.069,-0.506 0.069,-0.486 0.069,-0.465L0.069,-0.433C0.069,-0.402 0.069,-0.371 0.072,-0.34C0.074,-0.323 0.074,-0.307 0.074,-0.291C0.074,-0.244 0.07,-0.196 0.07,-0.149C0.07,-0.117 0.066,-0.086 0.064,-0.055C0.063,-0.046 0.061,-0.034 0.061,-0.024C0.061,-0.017 0.062,-0.012 0.064,-0.007C0.068,0.004 0.072,0.006 0.079,0.006C0.084,0.006 0.09,0.004 0.097,0.004C0.116,0.004 0.131,0.009 0.148,0.009C0.161,0.009 0.171,0.005 0.177,-0.008C0.181,-0.017 0.182,-0.028 0.182,-0.041C0.182,-0.062 0.178,-0.086 0.177,-0.104C0.176,-0.135 0.174,-0.166 0.174,-0.197C0.174,-0.244 0.211,-0.244 0.248,-0.245L0.256,-0.245C0.321,-0.246 0.367,-0.261 0.41,-0.313C0.432,-0.341 0.44,-0.374 0.44,-0.408C0.44,-0.435 0.435,-0.461 0.429,-0.486C0.416,-0.541 0.372,-0.576 0.321,-0.593C0.299,-0.6 0.276,-0.602 0.254,-0.602C0.236,-0.602 0.218,-0.601 0.201,-0.6C0.192,-0.599 0.184,-0.599 0.176,-0.599ZM0.347,-0.438L0.347,-0.435C0.347,-0.407 0.337,-0.386 0.321,-0.364C0.306,-0.341 0.27,-0.327 0.236,-0.327C0.21,-0.327 0.185,-0.336 0.171,-0.354C0.166,-0.361 0.164,-0.37 0.164,-0.379C0.164,-0.389 0.166,-0.4 0.166,-0.411L0.166,-0.418C0.165,-0.429 0.163,-0.441 0.163,-0.452C0.163,-0.472 0.167,-0.491 0.185,-0.502C0.195,-0.509 0.203,-0.511 0.213,-0.511C0.223,-0.511 0.233,-0.509 0.245,-0.506C0.263,-0.501 0.281,-0.504 0.3,-0.499C0.332,-0.49 0.346,-0.466 0.347,-0.438Z" style="fill-rule:nonzero;"/>
                    </g>
                    <g transform="matrix(80,0,0,80,428.2,162.56)">
                        <path d="M0.26,-0.4C0.229,-0.4 0.2,-0.388 0.171,-0.381C0.14,-0.373 0.111,-0.359 0.088,-0.333C0.055,-0.295 0.046,-0.251 0.046,-0.206C0.046,-0.19 0.047,-0.173 0.049,-0.156C0.056,-0.088 0.086,-0.043 0.145,-0.007C0.176,0.012 0.205,0.021 0.236,0.021C0.261,0.021 0.286,0.015 0.313,0.004C0.346,-0.01 0.387,-0.024 0.411,-0.052C0.415,-0.058 0.417,-0.064 0.417,-0.07C0.417,-0.093 0.387,-0.116 0.363,-0.116C0.359,-0.116 0.356,-0.115 0.352,-0.114C0.327,-0.104 0.313,-0.078 0.286,-0.072C0.28,-0.071 0.273,-0.071 0.266,-0.071L0.243,-0.071C0.216,-0.071 0.188,-0.076 0.169,-0.097C0.158,-0.109 0.146,-0.131 0.146,-0.148C0.146,-0.151 0.146,-0.154 0.147,-0.157C0.151,-0.173 0.166,-0.176 0.181,-0.176C0.195,-0.176 0.209,-0.174 0.22,-0.174C0.231,-0.174 0.238,-0.175 0.246,-0.175C0.29,-0.175 0.334,-0.17 0.378,-0.17L0.386,-0.17C0.416,-0.17 0.432,-0.171 0.432,-0.197C0.432,-0.201 0.432,-0.206 0.431,-0.211C0.427,-0.243 0.426,-0.273 0.41,-0.302C0.381,-0.355 0.321,-0.4 0.26,-0.4ZM0.166,-0.295C0.168,-0.298 0.171,-0.301 0.174,-0.303C0.191,-0.316 0.216,-0.324 0.241,-0.324C0.274,-0.324 0.307,-0.311 0.321,-0.283C0.323,-0.278 0.325,-0.271 0.325,-0.265C0.325,-0.256 0.322,-0.246 0.317,-0.241C0.308,-0.233 0.286,-0.235 0.274,-0.234L0.266,-0.234C0.246,-0.234 0.227,-0.236 0.207,-0.236C0.18,-0.236 0.151,-0.245 0.151,-0.266C0.151,-0.273 0.156,-0.283 0.166,-0.295Z" style="fill-rule:nonzero;"/>
                    </g>
                    <g transform="matrix(80,0,0,80,466.28,162.56)">
                        <path d="M0.346,-0.34C0.331,-0.34 0.324,-0.357 0.316,-0.365C0.295,-0.386 0.261,-0.395 0.226,-0.395C0.193,-0.395 0.159,-0.386 0.135,-0.371C0.107,-0.355 0.082,-0.338 0.068,-0.309C0.051,-0.273 0.043,-0.229 0.043,-0.186C0.043,-0.166 0.045,-0.146 0.049,-0.126C0.059,-0.081 0.1,-0.032 0.141,-0.009C0.159,0.002 0.189,0.006 0.215,0.006C0.226,0.006 0.237,0.005 0.246,0.004C0.277,-0.001 0.3,-0.024 0.328,-0.031C0.331,-0.032 0.334,-0.032 0.336,-0.032C0.346,-0.032 0.354,-0.028 0.356,-0.016L0.356,-0.011C0.356,0.003 0.344,0.015 0.341,0.028C0.336,0.041 0.338,0.054 0.331,0.065C0.316,0.089 0.288,0.097 0.262,0.101C0.257,0.102 0.252,0.102 0.248,0.102C0.226,0.102 0.209,0.094 0.193,0.078C0.178,0.063 0.173,0.042 0.149,0.039L0.14,0.039C0.13,0.039 0.119,0.041 0.109,0.041C0.105,0.041 0.1,0.04 0.096,0.039C0.086,0.037 0.079,0.033 0.072,0.033C0.066,0.033 0.061,0.037 0.056,0.049C0.052,0.054 0.051,0.061 0.051,0.067C0.051,0.085 0.061,0.105 0.072,0.118C0.09,0.136 0.117,0.158 0.139,0.171C0.168,0.189 0.192,0.189 0.225,0.189L0.259,0.189C0.31,0.189 0.36,0.186 0.399,0.149C0.415,0.133 0.429,0.115 0.438,0.096C0.454,0.065 0.457,0.036 0.457,0.005C0.457,-0.01 0.456,-0.026 0.456,-0.041C0.452,-0.098 0.454,-0.156 0.451,-0.213L0.451,-0.236C0.451,-0.26 0.452,-0.285 0.454,-0.309C0.454,-0.322 0.46,-0.341 0.46,-0.357C0.46,-0.371 0.455,-0.382 0.436,-0.383C0.425,-0.383 0.411,-0.386 0.398,-0.386C0.388,-0.386 0.378,-0.384 0.371,-0.379C0.357,-0.369 0.366,-0.34 0.346,-0.34ZM0.135,-0.201C0.136,-0.232 0.154,-0.258 0.179,-0.277C0.197,-0.291 0.225,-0.3 0.251,-0.3C0.261,-0.3 0.271,-0.298 0.28,-0.296C0.312,-0.287 0.353,-0.246 0.354,-0.211L0.354,-0.206C0.354,-0.174 0.346,-0.136 0.322,-0.113C0.297,-0.09 0.28,-0.081 0.248,-0.08L0.237,-0.08C0.207,-0.08 0.184,-0.086 0.161,-0.111C0.138,-0.134 0.135,-0.171 0.135,-0.201Z" style="fill-rule:nonzero;"/>
                    </g>
                    <g transform="matrix(80,0,0,80,508.52,162.56)">
                        <path d="M0.346,-0.34C0.331,-0.34 0.324,-0.357 0.316,-0.365C0.295,-0.386 0.261,-0.395 0.226,-0.395C0.193,-0.395 0.159,-0.386 0.135,-0.371C0.107,-0.355 0.082,-0.338 0.068,-0.309C0.051,-0.273 0.043,-0.229 0.043,-0.186C0.043,-0.166 0.045,-0.146 0.049,-0.126C0.059,-0.081 0.1,-0.032 0.141,-0.009C0.159,0.002 0.189,0.006 0.215,0.006C0.226,0.006 0.237,0.005 0.246,0.004C0.277,-0.001 0.3,-0.024 0.328,-0.031C0.331,-0.032 0.334,-0.032 0.336,-0.032C0.346,-0.032 0.354,-0.028 0.356,-0.016L0.356,-0.011C0.356,0.003 0.344,0.015 0.341,0.028C0.336,0.041 0.338,0.054 0.331,0.065C0.316,0.089 0.288,0.097 0.262,0.101C0.257,0.102 0.252,0.102 0.248,0.102C0.226,0.102 0.209,0.094 0.193,0.078C0.178,0.063 0.173,0.042 0.149,0.039L0.14,0.039C0.13,0.039 0.119,0.041 0.109,0.041C0.105,0.041 0.1,0.04 0.096,0.039C0.086,0.037 0.079,0.033 0.072,0.033C0.066,0.033 0.061,0.037 0.056,0.049C0.052,0.054 0.051,0.061 0.051,0.067C0.051,0.085 0.061,0.105 0.072,0.118C0.09,0.136 0.117,0.158 0.139,0.171C0.168,0.189 0.192,0.189 0.225,0.189L0.259,0.189C0.31,0.189 0.36,0.186 0.399,0.149C0.415,0.133 0.429,0.115 0.438,0.096C0.454,0.065 0.457,0.036 0.457,0.005C0.457,-0.01 0.456,-0.026 0.456,-0.041C0.452,-0.098 0.454,-0.156 0.451,-0.213L0.451,-0.236C0.451,-0.26 0.452,-0.285 0.454,-0.309C0.454,-0.322 0.46,-0.341 0.46,-0.357C0.46,-0.371 0.455,-0.382 0.436,-0.383C0.425,-0.383 0.411,-0.386 0.398,-0.386C0.388,-0.386 0.378,-0.384 0.371,-0.379C0.357,-0.369 0.366,-0.34 0.346,-0.34ZM0.135,-0.201C0.136,-0.232 0.154,-0.258 0.179,-0.277C0.197,-0.291 0.225,-0.3 0.251,-0.3C0.261,-0.3 0.271,-0.298 0.28,-0.296C0.312,-0.287 0.353,-0.246 0.354,-0.211L0.354,-0.206C0.354,-0.174 0.346,-0.136 0.322,-0.113C0.297,-0.09 0.28,-0.081 0.248,-0.08L0.237,-0.08C0.207,-0.08 0.184,-0.086 0.161,-0.111C0.138,-0.134 0.135,-0.171 0.135,-0.201Z" style="fill-rule:nonzero;"/>
                    </g>
                    <g transform="matrix(80,0,0,80,550.76,162.56)">
                        <path d="M0.055,-0.39C0.046,-0.39 0.039,-0.387 0.036,-0.376C0.035,-0.372 0.034,-0.368 0.034,-0.365C0.034,-0.338 0.06,-0.309 0.073,-0.289C0.109,-0.234 0.135,-0.173 0.164,-0.116C0.171,-0.102 0.181,-0.09 0.187,-0.076C0.189,-0.072 0.19,-0.067 0.19,-0.063C0.19,-0.051 0.184,-0.041 0.179,-0.029C0.165,0.004 0.148,0.039 0.131,0.072C0.116,0.104 0.096,0.131 0.079,0.162C0.075,0.17 0.071,0.179 0.071,0.184C0.071,0.19 0.074,0.194 0.081,0.197C0.086,0.199 0.091,0.199 0.096,0.199C0.11,0.199 0.126,0.196 0.136,0.195C0.149,0.195 0.159,0.199 0.17,0.199C0.173,0.199 0.177,0.198 0.181,0.197C0.201,0.191 0.199,0.174 0.206,0.158C0.217,0.126 0.227,0.094 0.24,0.063C0.279,-0.032 0.326,-0.121 0.374,-0.211L0.38,-0.222C0.398,-0.257 0.409,-0.294 0.427,-0.328C0.436,-0.344 0.443,-0.358 0.443,-0.368C0.443,-0.38 0.434,-0.386 0.409,-0.386C0.395,-0.386 0.381,-0.389 0.37,-0.389C0.353,-0.389 0.34,-0.384 0.331,-0.361C0.309,-0.303 0.282,-0.246 0.26,-0.187C0.253,-0.17 0.246,-0.164 0.241,-0.164C0.232,-0.164 0.225,-0.186 0.218,-0.207C0.21,-0.235 0.196,-0.261 0.183,-0.287C0.17,-0.314 0.167,-0.346 0.149,-0.371C0.137,-0.386 0.128,-0.39 0.118,-0.39C0.109,-0.39 0.098,-0.386 0.085,-0.386L0.079,-0.386C0.071,-0.387 0.062,-0.39 0.055,-0.39Z" style="fill-rule:nonzero;"/>
                    </g>
                    <g transform="matrix(80,0,0,80,608.2,162.56)">
                        <path d="M0.412,-0.444C0.412,-0.499 0.384,-0.556 0.336,-0.581C0.311,-0.593 0.286,-0.6 0.26,-0.602C0.252,-0.603 0.244,-0.603 0.236,-0.603C0.212,-0.603 0.188,-0.601 0.166,-0.6C0.156,-0.599 0.148,-0.597 0.14,-0.597L0.136,-0.597C0.125,-0.598 0.116,-0.602 0.105,-0.602C0.101,-0.602 0.099,-0.602 0.096,-0.601C0.072,-0.596 0.07,-0.568 0.07,-0.544L0.07,-0.523C0.07,-0.465 0.081,-0.407 0.081,-0.35C0.081,-0.342 0.08,-0.336 0.08,-0.328C0.079,-0.313 0.079,-0.297 0.079,-0.282C0.079,-0.246 0.081,-0.208 0.081,-0.17C0.081,-0.158 0.081,-0.146 0.08,-0.133C0.078,-0.101 0.074,-0.066 0.072,-0.033L0.072,-0.029C0.072,-0 0.093,0.001 0.116,0.001L0.132,0.001C0.166,0.004 0.2,0.006 0.234,0.006C0.266,0.006 0.3,0.004 0.331,-0.003C0.391,-0.016 0.455,-0.074 0.455,-0.136L0.455,-0.142C0.45,-0.201 0.456,-0.261 0.401,-0.299C0.382,-0.311 0.358,-0.321 0.358,-0.339C0.358,-0.345 0.361,-0.352 0.367,-0.361C0.387,-0.387 0.412,-0.41 0.412,-0.444ZM0.171,-0.412C0.171,-0.432 0.174,-0.452 0.177,-0.471C0.182,-0.496 0.201,-0.507 0.223,-0.507C0.264,-0.507 0.315,-0.473 0.315,-0.433C0.315,-0.424 0.312,-0.414 0.306,-0.405C0.29,-0.381 0.241,-0.351 0.208,-0.351C0.191,-0.351 0.176,-0.36 0.174,-0.381C0.172,-0.391 0.171,-0.402 0.171,-0.412ZM0.203,-0.267C0.207,-0.267 0.211,-0.266 0.219,-0.264C0.263,-0.254 0.339,-0.271 0.35,-0.206C0.351,-0.198 0.351,-0.191 0.351,-0.184C0.351,-0.142 0.33,-0.115 0.287,-0.102C0.274,-0.098 0.25,-0.093 0.23,-0.093C0.22,-0.093 0.211,-0.095 0.205,-0.098C0.181,-0.11 0.174,-0.143 0.174,-0.168L0.174,-0.182C0.174,-0.192 0.173,-0.203 0.173,-0.213C0.173,-0.231 0.176,-0.248 0.189,-0.26C0.195,-0.266 0.199,-0.267 0.203,-0.267Z" style="fill-rule:nonzero;"/>
                    </g>
                    <g transform="matrix(80,0,0,80,648.52,162.56)">
                        <path d="M0.093,-0.657C0.082,-0.657 0.073,-0.654 0.068,-0.641C0.064,-0.63 0.062,-0.619 0.062,-0.607C0.062,-0.586 0.067,-0.565 0.068,-0.545C0.072,-0.476 0.071,-0.407 0.074,-0.337C0.075,-0.311 0.076,-0.285 0.076,-0.258C0.076,-0.216 0.074,-0.173 0.072,-0.131C0.071,-0.098 0.067,-0.066 0.066,-0.035L0.066,-0.031C0.066,-0.002 0.083,0.004 0.106,0.004C0.112,0.004 0.12,0.003 0.137,0.002C0.151,0.002 0.174,-0 0.181,-0.011C0.185,-0.017 0.186,-0.025 0.186,-0.033C0.186,-0.046 0.183,-0.059 0.183,-0.069C0.181,-0.097 0.178,-0.126 0.178,-0.154C0.178,-0.225 0.176,-0.294 0.176,-0.365L0.176,-0.429C0.176,-0.466 0.176,-0.502 0.18,-0.539C0.182,-0.564 0.187,-0.589 0.187,-0.615L0.187,-0.625C0.186,-0.649 0.172,-0.651 0.156,-0.651L0.136,-0.651C0.123,-0.651 0.107,-0.657 0.093,-0.657Z" style="fill-rule:nonzero;"/>
                    </g>
                    <g transform="matrix(80,0,0,80,668.12,162.56)">
                        <path d="M0.131,-0.381C0.104,-0.368 0.082,-0.343 0.068,-0.316C0.046,-0.277 0.036,-0.231 0.036,-0.186C0.036,-0.166 0.038,-0.145 0.042,-0.126C0.055,-0.066 0.103,-0.016 0.157,0.004C0.181,0.012 0.209,0.019 0.236,0.019C0.268,0.019 0.3,0.009 0.322,-0.014C0.333,-0.025 0.341,-0.057 0.354,-0.057C0.358,-0.057 0.363,-0.054 0.369,-0.046C0.377,-0.034 0.371,-0.015 0.381,-0.005C0.385,-0 0.396,0.002 0.41,0.002C0.431,0.002 0.455,-0.003 0.46,-0.011C0.461,-0.014 0.462,-0.019 0.462,-0.025C0.462,-0.04 0.459,-0.059 0.459,-0.068L0.459,-0.084C0.459,-0.107 0.456,-0.131 0.454,-0.155C0.451,-0.176 0.451,-0.199 0.451,-0.221C0.451,-0.253 0.452,-0.286 0.454,-0.316C0.454,-0.326 0.457,-0.34 0.457,-0.352C0.457,-0.361 0.456,-0.369 0.451,-0.375C0.442,-0.384 0.423,-0.386 0.406,-0.386C0.396,-0.386 0.386,-0.386 0.38,-0.385C0.365,-0.384 0.363,-0.376 0.363,-0.37L0.363,-0.361C0.363,-0.353 0.361,-0.348 0.348,-0.348C0.327,-0.348 0.311,-0.376 0.295,-0.385C0.276,-0.394 0.251,-0.4 0.231,-0.401L0.224,-0.401C0.196,-0.401 0.154,-0.393 0.131,-0.381ZM0.15,-0.216C0.155,-0.246 0.17,-0.271 0.192,-0.287C0.207,-0.299 0.226,-0.306 0.247,-0.306C0.251,-0.306 0.256,-0.306 0.261,-0.305C0.285,-0.302 0.313,-0.287 0.33,-0.271C0.349,-0.251 0.359,-0.221 0.359,-0.192C0.359,-0.163 0.349,-0.134 0.329,-0.114C0.309,-0.094 0.274,-0.081 0.241,-0.081C0.227,-0.081 0.214,-0.084 0.202,-0.09C0.166,-0.108 0.148,-0.154 0.148,-0.194C0.148,-0.201 0.148,-0.209 0.15,-0.216Z" style="fill-rule:nonzero;"/>
                    </g>
                    <g transform="matrix(80,0,0,80,709.56,162.56)">
                        <path d="M0.139,-0.378C0.102,-0.357 0.08,-0.332 0.066,-0.302C0.053,-0.275 0.048,-0.242 0.046,-0.206L0.046,-0.193C0.046,-0.172 0.048,-0.15 0.051,-0.129C0.066,-0.031 0.152,0.014 0.241,0.014C0.258,0.014 0.275,0.013 0.291,0.009C0.301,0.008 0.311,0.007 0.322,0.003C0.346,-0.006 0.353,-0.027 0.353,-0.051L0.353,-0.064C0.353,-0.075 0.356,-0.087 0.356,-0.096C0.356,-0.106 0.353,-0.112 0.341,-0.113L0.337,-0.113C0.321,-0.113 0.304,-0.102 0.291,-0.097C0.273,-0.091 0.258,-0.086 0.243,-0.086C0.223,-0.086 0.203,-0.094 0.181,-0.107C0.159,-0.121 0.146,-0.138 0.138,-0.162C0.136,-0.171 0.134,-0.181 0.134,-0.191C0.134,-0.221 0.144,-0.256 0.162,-0.273C0.181,-0.292 0.213,-0.302 0.242,-0.302C0.26,-0.302 0.276,-0.299 0.291,-0.293C0.306,-0.286 0.321,-0.267 0.339,-0.267C0.341,-0.267 0.341,-0.268 0.343,-0.268C0.357,-0.271 0.359,-0.284 0.359,-0.298L0.359,-0.334C0.359,-0.351 0.356,-0.365 0.341,-0.376C0.313,-0.397 0.279,-0.406 0.244,-0.406C0.207,-0.406 0.17,-0.396 0.139,-0.378Z" style="fill-rule:nonzero;"/>
                    </g>
                    <g transform="matrix(80,0,0,80,741,162.56)">
                        <path d="M0.109,-0.658C0.086,-0.656 0.075,-0.648 0.073,-0.622C0.073,-0.617 0.072,-0.611 0.072,-0.606C0.072,-0.58 0.076,-0.551 0.076,-0.525C0.076,-0.454 0.08,-0.385 0.08,-0.313C0.08,-0.246 0.081,-0.181 0.081,-0.115C0.081,-0.093 0.073,-0.066 0.073,-0.042C0.073,-0.031 0.075,-0.021 0.08,-0.012C0.086,-0 0.096,0.001 0.108,0.001L0.122,0.001C0.131,0.001 0.143,0.003 0.154,0.003C0.161,0.003 0.166,0.002 0.17,-0C0.182,-0.006 0.186,-0.019 0.186,-0.035C0.186,-0.056 0.179,-0.082 0.179,-0.096L0.179,-0.106C0.179,-0.126 0.18,-0.156 0.196,-0.156C0.201,-0.156 0.208,-0.153 0.216,-0.146C0.227,-0.138 0.233,-0.121 0.241,-0.111C0.25,-0.099 0.259,-0.088 0.269,-0.078C0.281,-0.063 0.295,-0.048 0.306,-0.033C0.314,-0.023 0.322,-0.002 0.334,0.004C0.336,0.005 0.341,0.006 0.344,0.006C0.355,0.006 0.367,0.002 0.376,-0C0.392,-0.001 0.407,-0.001 0.423,-0.003C0.437,-0.006 0.441,-0.01 0.441,-0.016C0.441,-0.025 0.428,-0.036 0.42,-0.046C0.397,-0.071 0.379,-0.1 0.357,-0.125C0.33,-0.156 0.281,-0.18 0.281,-0.215C0.281,-0.226 0.286,-0.239 0.3,-0.254C0.321,-0.278 0.346,-0.298 0.371,-0.32C0.381,-0.33 0.417,-0.354 0.417,-0.371C0.417,-0.376 0.415,-0.381 0.408,-0.385C0.404,-0.387 0.398,-0.388 0.391,-0.388C0.381,-0.388 0.371,-0.386 0.363,-0.386L0.36,-0.386C0.348,-0.387 0.334,-0.39 0.321,-0.39C0.315,-0.39 0.309,-0.389 0.304,-0.387C0.281,-0.379 0.265,-0.345 0.251,-0.327L0.246,-0.321C0.231,-0.301 0.214,-0.279 0.191,-0.269C0.18,-0.276 0.176,-0.281 0.173,-0.294C0.172,-0.296 0.172,-0.299 0.172,-0.301C0.172,-0.307 0.173,-0.313 0.173,-0.318C0.173,-0.337 0.177,-0.357 0.177,-0.377L0.177,-0.382C0.176,-0.401 0.176,-0.42 0.176,-0.439C0.176,-0.452 0.176,-0.466 0.177,-0.48C0.181,-0.519 0.18,-0.56 0.184,-0.599C0.184,-0.607 0.186,-0.618 0.186,-0.628C0.186,-0.637 0.185,-0.646 0.18,-0.652C0.173,-0.66 0.161,-0.662 0.147,-0.662C0.133,-0.662 0.118,-0.659 0.109,-0.658Z" style="fill-rule:nonzero;"/>
                    </g>
                </g>
            </g>
        </g>
    </g>
</svg>
