<?xml version="1.0" encoding="UTF-8" standalone="no"?>
<!DOCTYPE svg PUBLIC "-//W3C//DTD SVG 1.1//EN" "http://www.w3.org/Graphics/SVG/1.1/DTD/svg11.dtd">
<svg width="100%" height="100%" viewBox="0 0 1200 1201" version="1.1" xmlns="http://www.w3.org/2000/svg" xmlns:xlink="http://www.w3.org/1999/xlink" xml:space="preserve" xmlns:serif="http://www.serif.com/" style="fill-rule:evenodd;clip-rule:evenodd;stroke-linejoin:round;stroke-miterlimit:2;">
    <g transform="matrix(1,0,0,1,-4292,-12)">
        <g id="PRE-103" transform="matrix(1,0,0,1,4292,12.5)">
            <rect x="0" y="0" width="1200" height="1200" style="fill:none;"/>
            <g transform="matrix(1,0,0,1,10,5)">
                <a xlink:href="103.svg"><g id="Link-Ellipse" serif:id="Link Ellipse" transform="matrix(8,0,0,8,-7810,-7800)">
                    <circle cx="1050" cy="1050" r="50" style="fill:#d5d5d5;"/>
					</g></a>
                <g transform="matrix(1,0,0,1,10,450)">
                    <g transform="matrix(80,0,0,80,301.48,162.56)">
                        <path d="M0.412,-0.444C0.412,-0.499 0.384,-0.556 0.336,-0.581C0.311,-0.593 0.286,-0.6 0.26,-0.602C0.252,-0.603 0.244,-0.603 0.236,-0.603C0.212,-0.603 0.188,-0.601 0.166,-0.6C0.156,-0.599 0.148,-0.597 0.14,-0.597L0.136,-0.597C0.125,-0.598 0.116,-0.602 0.105,-0.602C0.101,-0.602 0.099,-0.602 0.096,-0.601C0.072,-0.596 0.07,-0.568 0.07,-0.544L0.07,-0.523C0.07,-0.465 0.081,-0.407 0.081,-0.35C0.081,-0.342 0.08,-0.336 0.08,-0.328C0.079,-0.313 0.079,-0.297 0.079,-0.282C0.079,-0.246 0.081,-0.208 0.081,-0.17C0.081,-0.158 0.081,-0.146 0.08,-0.133C0.078,-0.101 0.074,-0.066 0.072,-0.033L0.072,-0.029C0.072,-0 0.093,0.001 0.116,0.001L0.132,0.001C0.166,0.004 0.2,0.006 0.234,0.006C0.266,0.006 0.3,0.004 0.331,-0.003C0.391,-0.016 0.455,-0.074 0.455,-0.136L0.455,-0.142C0.45,-0.201 0.456,-0.261 0.401,-0.299C0.382,-0.311 0.358,-0.321 0.358,-0.339C0.358,-0.345 0.361,-0.352 0.367,-0.361C0.387,-0.387 0.412,-0.41 0.412,-0.444ZM0.171,-0.412C0.171,-0.432 0.174,-0.452 0.177,-0.471C0.182,-0.496 0.201,-0.507 0.223,-0.507C0.264,-0.507 0.315,-0.473 0.315,-0.433C0.315,-0.424 0.312,-0.414 0.306,-0.405C0.29,-0.381 0.241,-0.351 0.208,-0.351C0.191,-0.351 0.176,-0.36 0.174,-0.381C0.172,-0.391 0.171,-0.402 0.171,-0.412ZM0.203,-0.267C0.207,-0.267 0.211,-0.266 0.219,-0.264C0.263,-0.254 0.339,-0.271 0.35,-0.206C0.351,-0.198 0.351,-0.191 0.351,-0.184C0.351,-0.142 0.33,-0.115 0.287,-0.102C0.274,-0.098 0.25,-0.093 0.23,-0.093C0.22,-0.093 0.211,-0.095 0.205,-0.098C0.181,-0.11 0.174,-0.143 0.174,-0.168L0.174,-0.182C0.174,-0.192 0.173,-0.203 0.173,-0.213C0.173,-0.231 0.176,-0.248 0.189,-0.26C0.195,-0.266 0.199,-0.267 0.203,-0.267Z" style="fill-rule:nonzero;"/>
                    </g>
                    <g transform="matrix(80,0,0,80,341.8,162.56)">
                        <path d="M0.26,-0.4C0.229,-0.4 0.2,-0.388 0.171,-0.381C0.14,-0.373 0.111,-0.359 0.088,-0.333C0.055,-0.295 0.046,-0.251 0.046,-0.206C0.046,-0.19 0.047,-0.173 0.049,-0.156C0.056,-0.088 0.086,-0.043 0.145,-0.007C0.176,0.012 0.205,0.021 0.236,0.021C0.261,0.021 0.286,0.015 0.313,0.004C0.346,-0.01 0.387,-0.024 0.411,-0.052C0.415,-0.058 0.417,-0.064 0.417,-0.07C0.417,-0.093 0.387,-0.116 0.363,-0.116C0.359,-0.116 0.356,-0.115 0.352,-0.114C0.327,-0.104 0.313,-0.078 0.286,-0.072C0.28,-0.071 0.273,-0.071 0.266,-0.071L0.243,-0.071C0.216,-0.071 0.188,-0.076 0.169,-0.097C0.158,-0.109 0.146,-0.131 0.146,-0.148C0.146,-0.151 0.146,-0.154 0.147,-0.157C0.151,-0.173 0.166,-0.176 0.181,-0.176C0.195,-0.176 0.209,-0.174 0.22,-0.174C0.231,-0.174 0.238,-0.175 0.246,-0.175C0.29,-0.175 0.334,-0.17 0.378,-0.17L0.386,-0.17C0.416,-0.17 0.432,-0.171 0.432,-0.197C0.432,-0.201 0.432,-0.206 0.431,-0.211C0.427,-0.243 0.426,-0.273 0.41,-0.302C0.381,-0.355 0.321,-0.4 0.26,-0.4ZM0.166,-0.295C0.168,-0.298 0.171,-0.301 0.174,-0.303C0.191,-0.316 0.216,-0.324 0.241,-0.324C0.274,-0.324 0.307,-0.311 0.321,-0.283C0.323,-0.278 0.325,-0.271 0.325,-0.265C0.325,-0.256 0.322,-0.246 0.317,-0.241C0.308,-0.233 0.286,-0.235 0.274,-0.234L0.266,-0.234C0.246,-0.234 0.227,-0.236 0.207,-0.236C0.18,-0.236 0.151,-0.245 0.151,-0.266C0.151,-0.273 0.156,-0.283 0.166,-0.295Z" style="fill-rule:nonzero;"/>
                    </g>
                    <g transform="matrix(80,0,0,80,379.88,162.56)">
                        <path d="M0.095,-0.391C0.074,-0.389 0.071,-0.378 0.071,-0.357C0.071,-0.325 0.075,-0.291 0.076,-0.26C0.077,-0.238 0.077,-0.216 0.077,-0.194C0.077,-0.152 0.076,-0.11 0.072,-0.069C0.071,-0.057 0.066,-0.04 0.066,-0.026C0.066,-0.017 0.067,-0.011 0.071,-0.006C0.079,0.006 0.096,0.01 0.113,0.01C0.131,0.01 0.149,0.006 0.161,0.002C0.177,-0.005 0.182,-0.017 0.182,-0.031C0.182,-0.043 0.178,-0.057 0.176,-0.07C0.171,-0.102 0.171,-0.134 0.171,-0.166L0.171,-0.191C0.171,-0.227 0.173,-0.256 0.203,-0.281C0.218,-0.293 0.242,-0.303 0.265,-0.303C0.277,-0.303 0.291,-0.3 0.3,-0.291C0.321,-0.272 0.327,-0.238 0.327,-0.203C0.327,-0.163 0.319,-0.119 0.318,-0.09C0.317,-0.073 0.311,-0.05 0.311,-0.03C0.311,-0.02 0.313,-0.011 0.317,-0.003C0.324,0.009 0.343,0.012 0.361,0.012C0.371,0.012 0.382,0.01 0.389,0.009C0.414,0.007 0.426,-0.002 0.426,-0.023C0.426,-0.026 0.425,-0.029 0.425,-0.032C0.421,-0.067 0.422,-0.101 0.42,-0.136C0.419,-0.153 0.417,-0.168 0.417,-0.185C0.417,-0.19 0.417,-0.195 0.418,-0.201C0.419,-0.211 0.419,-0.221 0.419,-0.231C0.419,-0.256 0.416,-0.281 0.408,-0.306C0.395,-0.347 0.383,-0.362 0.346,-0.383C0.328,-0.393 0.309,-0.396 0.289,-0.396C0.279,-0.396 0.268,-0.396 0.258,-0.394C0.241,-0.391 0.227,-0.386 0.213,-0.378C0.203,-0.372 0.186,-0.35 0.176,-0.348C0.174,-0.348 0.172,-0.347 0.171,-0.347C0.166,-0.347 0.164,-0.352 0.164,-0.358C0.164,-0.361 0.165,-0.365 0.165,-0.369C0.165,-0.374 0.164,-0.379 0.161,-0.383C0.155,-0.391 0.136,-0.392 0.121,-0.392C0.11,-0.392 0.101,-0.391 0.095,-0.391Z" style="fill-rule:nonzero;"/>
                    </g>
                    <g transform="matrix(80,0,0,80,418.6,162.56)">
                        <path d="M0.109,-0.617C0.091,-0.614 0.077,-0.603 0.069,-0.589C0.061,-0.575 0.056,-0.558 0.056,-0.542C0.056,-0.529 0.06,-0.516 0.065,-0.505C0.076,-0.481 0.096,-0.471 0.118,-0.471C0.151,-0.471 0.187,-0.494 0.196,-0.527C0.197,-0.532 0.197,-0.538 0.197,-0.543C0.197,-0.584 0.161,-0.618 0.12,-0.618C0.116,-0.618 0.112,-0.618 0.109,-0.617ZM0.114,-0.39C0.101,-0.39 0.092,-0.387 0.086,-0.382C0.071,-0.372 0.068,-0.354 0.068,-0.334C0.068,-0.324 0.069,-0.314 0.07,-0.305C0.07,-0.296 0.071,-0.287 0.071,-0.279C0.071,-0.26 0.07,-0.241 0.07,-0.221L0.07,-0.207C0.071,-0.16 0.073,-0.112 0.073,-0.065C0.073,-0.046 0.073,-0.029 0.072,-0.011L0.067,0.086C0.066,0.101 0.061,0.128 0.061,0.149C0.061,0.163 0.063,0.174 0.069,0.181C0.076,0.191 0.094,0.194 0.112,0.194C0.127,0.194 0.142,0.192 0.152,0.191L0.156,0.191C0.173,0.19 0.181,0.19 0.187,0.172C0.189,0.166 0.19,0.16 0.19,0.154C0.19,0.145 0.187,0.135 0.186,0.125C0.179,0.096 0.177,0.064 0.177,0.032C0.177,-0 0.179,-0.033 0.179,-0.065C0.179,-0.116 0.175,-0.168 0.175,-0.218C0.175,-0.231 0.175,-0.243 0.176,-0.256C0.176,-0.28 0.176,-0.306 0.178,-0.33C0.179,-0.341 0.183,-0.352 0.183,-0.363C0.183,-0.37 0.181,-0.376 0.176,-0.381C0.164,-0.391 0.13,-0.389 0.114,-0.39Z" style="fill-rule:nonzero;"/>
                    </g>
                    <g transform="matrix(80,0,0,80,438.2,162.56)">
                        <path d="M0.131,-0.381C0.104,-0.368 0.082,-0.343 0.068,-0.316C0.046,-0.277 0.036,-0.231 0.036,-0.186C0.036,-0.166 0.038,-0.145 0.042,-0.126C0.055,-0.066 0.103,-0.016 0.157,0.004C0.181,0.012 0.209,0.019 0.236,0.019C0.268,0.019 0.3,0.009 0.322,-0.014C0.333,-0.025 0.341,-0.057 0.354,-0.057C0.358,-0.057 0.363,-0.054 0.369,-0.046C0.377,-0.034 0.371,-0.015 0.381,-0.005C0.385,-0 0.396,0.002 0.41,0.002C0.431,0.002 0.455,-0.003 0.46,-0.011C0.461,-0.014 0.462,-0.019 0.462,-0.025C0.462,-0.04 0.459,-0.059 0.459,-0.068L0.459,-0.084C0.459,-0.107 0.456,-0.131 0.454,-0.155C0.451,-0.176 0.451,-0.199 0.451,-0.221C0.451,-0.253 0.452,-0.286 0.454,-0.316C0.454,-0.326 0.457,-0.34 0.457,-0.352C0.457,-0.361 0.456,-0.369 0.451,-0.375C0.442,-0.384 0.423,-0.386 0.406,-0.386C0.396,-0.386 0.386,-0.386 0.38,-0.385C0.365,-0.384 0.363,-0.376 0.363,-0.37L0.363,-0.361C0.363,-0.353 0.361,-0.348 0.348,-0.348C0.327,-0.348 0.311,-0.376 0.295,-0.385C0.276,-0.394 0.251,-0.4 0.231,-0.401L0.224,-0.401C0.196,-0.401 0.154,-0.393 0.131,-0.381ZM0.15,-0.216C0.155,-0.246 0.17,-0.271 0.192,-0.287C0.207,-0.299 0.226,-0.306 0.247,-0.306C0.251,-0.306 0.256,-0.306 0.261,-0.305C0.285,-0.302 0.313,-0.287 0.33,-0.271C0.349,-0.251 0.359,-0.221 0.359,-0.192C0.359,-0.163 0.349,-0.134 0.329,-0.114C0.309,-0.094 0.274,-0.081 0.241,-0.081C0.227,-0.081 0.214,-0.084 0.202,-0.09C0.166,-0.108 0.148,-0.154 0.148,-0.194C0.148,-0.201 0.148,-0.209 0.15,-0.216Z" style="fill-rule:nonzero;"/>
                    </g>
                    <g transform="matrix(80,0,0,80,479.64,162.56)">
                        <path d="M0.081,-0.391C0.078,-0.387 0.074,-0.382 0.072,-0.377C0.071,-0.373 0.07,-0.369 0.07,-0.364C0.07,-0.354 0.073,-0.343 0.075,-0.332C0.075,-0.323 0.076,-0.316 0.076,-0.308L0.076,-0.262C0.076,-0.205 0.069,-0.146 0.069,-0.088L0.069,-0.081C0.069,-0.068 0.066,-0.053 0.066,-0.039C0.066,-0.021 0.071,-0.004 0.09,0.002C0.098,0.004 0.116,0.007 0.133,0.007C0.153,0.007 0.174,0.004 0.18,-0.004C0.185,-0.011 0.186,-0.022 0.186,-0.035C0.186,-0.058 0.181,-0.086 0.18,-0.1C0.178,-0.116 0.177,-0.131 0.177,-0.148C0.177,-0.164 0.178,-0.181 0.178,-0.197C0.178,-0.21 0.177,-0.223 0.177,-0.236C0.177,-0.256 0.179,-0.275 0.191,-0.29C0.203,-0.303 0.222,-0.312 0.241,-0.312C0.253,-0.312 0.265,-0.309 0.274,-0.301C0.296,-0.284 0.295,-0.239 0.297,-0.213C0.299,-0.196 0.3,-0.181 0.3,-0.165C0.3,-0.148 0.299,-0.132 0.297,-0.116C0.295,-0.095 0.292,-0.073 0.292,-0.051C0.292,-0.047 0.293,-0.042 0.293,-0.037C0.295,-0.006 0.307,-0.001 0.329,-0.001C0.335,-0.001 0.341,-0.002 0.347,-0.002C0.356,-0.002 0.366,-0 0.373,-0C0.381,-0 0.387,-0.002 0.393,-0.011C0.398,-0.018 0.4,-0.025 0.4,-0.031C0.4,-0.042 0.395,-0.053 0.391,-0.066C0.389,-0.076 0.389,-0.086 0.389,-0.096L0.389,-0.126C0.388,-0.135 0.388,-0.144 0.388,-0.153C0.388,-0.163 0.388,-0.172 0.389,-0.182C0.391,-0.224 0.397,-0.311 0.451,-0.311C0.458,-0.311 0.465,-0.31 0.473,-0.307C0.518,-0.292 0.526,-0.242 0.526,-0.195C0.526,-0.171 0.524,-0.149 0.524,-0.131C0.524,-0.097 0.517,-0.064 0.514,-0.03L0.514,-0.026C0.514,-0.003 0.536,0.004 0.56,0.004C0.578,0.004 0.597,-0.001 0.608,-0.006C0.623,-0.012 0.627,-0.022 0.627,-0.033C0.627,-0.046 0.621,-0.061 0.62,-0.075C0.616,-0.109 0.614,-0.147 0.614,-0.182C0.614,-0.196 0.615,-0.211 0.615,-0.226L0.615,-0.282C0.615,-0.302 0.613,-0.322 0.605,-0.342C0.587,-0.384 0.551,-0.403 0.511,-0.403C0.493,-0.403 0.475,-0.399 0.457,-0.391C0.436,-0.38 0.417,-0.351 0.395,-0.345C0.393,-0.344 0.391,-0.344 0.389,-0.344C0.37,-0.344 0.348,-0.372 0.331,-0.382C0.314,-0.393 0.297,-0.4 0.279,-0.4C0.271,-0.4 0.264,-0.398 0.256,-0.396C0.231,-0.39 0.211,-0.367 0.186,-0.367C0.18,-0.367 0.174,-0.369 0.167,-0.371C0.154,-0.377 0.146,-0.387 0.132,-0.391C0.128,-0.391 0.109,-0.393 0.095,-0.393C0.087,-0.393 0.081,-0.393 0.081,-0.391Z" style="fill-rule:nonzero;"/>
                    </g>
                    <g transform="matrix(80,0,0,80,534.04,162.56)">
                        <path d="M0.041,-0.54C0.041,-0.528 0.043,-0.516 0.05,-0.506C0.064,-0.482 0.088,-0.472 0.112,-0.472C0.149,-0.472 0.186,-0.496 0.194,-0.533C0.195,-0.536 0.195,-0.541 0.195,-0.544C0.195,-0.584 0.152,-0.621 0.112,-0.621C0.108,-0.621 0.103,-0.62 0.099,-0.619C0.065,-0.611 0.041,-0.575 0.041,-0.54ZM0.094,-0.384C0.085,-0.384 0.076,-0.381 0.071,-0.369C0.066,-0.361 0.066,-0.351 0.066,-0.341C0.066,-0.318 0.072,-0.293 0.073,-0.273C0.074,-0.249 0.075,-0.224 0.075,-0.2C0.075,-0.159 0.073,-0.118 0.069,-0.078C0.067,-0.066 0.065,-0.05 0.065,-0.036C0.065,-0.018 0.069,-0.004 0.087,-0C0.095,0.002 0.114,0.004 0.132,0.004C0.151,0.004 0.169,0.002 0.174,-0.004C0.18,-0.011 0.182,-0.022 0.182,-0.036C0.182,-0.056 0.177,-0.08 0.176,-0.091C0.174,-0.121 0.172,-0.157 0.172,-0.183C0.173,-0.219 0.177,-0.256 0.177,-0.291L0.177,-0.311C0.177,-0.321 0.178,-0.331 0.178,-0.341C0.178,-0.351 0.177,-0.361 0.175,-0.369C0.171,-0.38 0.161,-0.382 0.15,-0.382C0.141,-0.382 0.131,-0.381 0.123,-0.381L0.119,-0.381C0.111,-0.381 0.102,-0.384 0.094,-0.384Z" style="fill-rule:nonzero;"/>
                    </g>
                    <g transform="matrix(80,0,0,80,553.64,162.56)">
                        <path d="M0.095,-0.391C0.074,-0.389 0.071,-0.378 0.071,-0.357C0.071,-0.325 0.075,-0.291 0.076,-0.26C0.077,-0.238 0.077,-0.216 0.077,-0.194C0.077,-0.152 0.076,-0.11 0.072,-0.069C0.071,-0.057 0.066,-0.04 0.066,-0.026C0.066,-0.017 0.067,-0.011 0.071,-0.006C0.079,0.006 0.096,0.01 0.113,0.01C0.131,0.01 0.149,0.006 0.161,0.002C0.177,-0.005 0.182,-0.017 0.182,-0.031C0.182,-0.043 0.178,-0.057 0.176,-0.07C0.171,-0.102 0.171,-0.134 0.171,-0.166L0.171,-0.191C0.171,-0.227 0.173,-0.256 0.203,-0.281C0.218,-0.293 0.242,-0.303 0.265,-0.303C0.277,-0.303 0.291,-0.3 0.3,-0.291C0.321,-0.272 0.327,-0.238 0.327,-0.203C0.327,-0.163 0.319,-0.119 0.318,-0.09C0.317,-0.073 0.311,-0.05 0.311,-0.03C0.311,-0.02 0.313,-0.011 0.317,-0.003C0.324,0.009 0.343,0.012 0.361,0.012C0.371,0.012 0.382,0.01 0.389,0.009C0.414,0.007 0.426,-0.002 0.426,-0.023C0.426,-0.026 0.425,-0.029 0.425,-0.032C0.421,-0.067 0.422,-0.101 0.42,-0.136C0.419,-0.153 0.417,-0.168 0.417,-0.185C0.417,-0.19 0.417,-0.195 0.418,-0.201C0.419,-0.211 0.419,-0.221 0.419,-0.231C0.419,-0.256 0.416,-0.281 0.408,-0.306C0.395,-0.347 0.383,-0.362 0.346,-0.383C0.328,-0.393 0.309,-0.396 0.289,-0.396C0.279,-0.396 0.268,-0.396 0.258,-0.394C0.241,-0.391 0.227,-0.386 0.213,-0.378C0.203,-0.372 0.186,-0.35 0.176,-0.348C0.174,-0.348 0.172,-0.347 0.171,-0.347C0.166,-0.347 0.164,-0.352 0.164,-0.358C0.164,-0.361 0.165,-0.365 0.165,-0.369C0.165,-0.374 0.164,-0.379 0.161,-0.383C0.155,-0.391 0.136,-0.392 0.121,-0.392C0.11,-0.392 0.101,-0.391 0.095,-0.391Z" style="fill-rule:nonzero;"/>
                    </g>
                    <g transform="matrix(80,0,0,80,612.36,162.56)">
                        <path d="M0.203,-0.476L0.203,-0.452C0.203,-0.426 0.201,-0.399 0.201,-0.372C0.201,-0.325 0.207,-0.274 0.207,-0.225C0.207,-0.209 0.206,-0.192 0.205,-0.176L0.205,-0.173C0.201,-0.141 0.199,-0.117 0.172,-0.096C0.157,-0.085 0.141,-0.078 0.125,-0.078C0.116,-0.078 0.106,-0.08 0.097,-0.085C0.086,-0.09 0.081,-0.106 0.067,-0.106L0.064,-0.106C0.052,-0.104 0.043,-0.086 0.036,-0.077C0.025,-0.063 0.009,-0.044 0.009,-0.025C0.009,-0.017 0.011,-0.01 0.016,-0.003C0.033,0.018 0.076,0.017 0.1,0.021C0.11,0.023 0.12,0.024 0.13,0.024C0.149,0.024 0.168,0.02 0.187,0.014C0.249,-0.006 0.295,-0.055 0.308,-0.118C0.318,-0.166 0.32,-0.217 0.32,-0.269L0.32,-0.307C0.32,-0.361 0.313,-0.413 0.313,-0.467C0.313,-0.477 0.313,-0.487 0.314,-0.497C0.315,-0.516 0.323,-0.546 0.323,-0.57C0.323,-0.591 0.316,-0.608 0.29,-0.608L0.283,-0.608L0.275,-0.607C0.265,-0.607 0.254,-0.609 0.243,-0.609C0.235,-0.609 0.226,-0.608 0.219,-0.606C0.204,-0.601 0.2,-0.591 0.2,-0.581C0.2,-0.572 0.201,-0.564 0.203,-0.556C0.205,-0.547 0.205,-0.538 0.205,-0.53C0.205,-0.512 0.203,-0.495 0.203,-0.476Z" style="fill-rule:nonzero;"/>
                    </g>
                    <g transform="matrix(80,0,0,80,644.52,162.56)">
                        <path d="M0.426,-0.294C0.405,-0.331 0.381,-0.357 0.344,-0.378C0.316,-0.394 0.283,-0.401 0.25,-0.401C0.183,-0.401 0.114,-0.371 0.081,-0.318C0.056,-0.278 0.044,-0.23 0.044,-0.181C0.044,-0.166 0.045,-0.152 0.047,-0.138C0.061,-0.041 0.162,0.016 0.256,0.016C0.286,0.016 0.315,0.01 0.341,-0.001C0.417,-0.036 0.451,-0.111 0.451,-0.19C0.451,-0.205 0.45,-0.219 0.447,-0.234C0.445,-0.256 0.437,-0.275 0.426,-0.294ZM0.132,-0.193C0.132,-0.197 0.132,-0.201 0.133,-0.205C0.141,-0.266 0.194,-0.305 0.249,-0.305C0.276,-0.305 0.302,-0.296 0.325,-0.276C0.347,-0.255 0.365,-0.224 0.365,-0.192C0.365,-0.188 0.365,-0.184 0.364,-0.18C0.357,-0.14 0.331,-0.1 0.295,-0.081C0.281,-0.075 0.267,-0.071 0.252,-0.071C0.247,-0.071 0.241,-0.072 0.236,-0.073C0.214,-0.076 0.207,-0.08 0.192,-0.092C0.191,-0.093 0.19,-0.095 0.188,-0.096C0.171,-0.111 0.156,-0.121 0.145,-0.141C0.137,-0.158 0.132,-0.176 0.132,-0.193Z" style="fill-rule:nonzero;"/>
                    </g>
                    <g transform="matrix(80,0,0,80,684.28,162.56)">
                        <path d="M0.096,-0.665C0.08,-0.665 0.072,-0.656 0.069,-0.639C0.066,-0.63 0.066,-0.62 0.066,-0.61C0.066,-0.586 0.07,-0.561 0.071,-0.539C0.076,-0.463 0.077,-0.387 0.077,-0.311C0.077,-0.27 0.078,-0.23 0.078,-0.19C0.078,-0.156 0.077,-0.123 0.076,-0.09C0.075,-0.078 0.069,-0.049 0.069,-0.026C0.069,-0.011 0.071,-0 0.078,0.005C0.081,0.008 0.085,0.008 0.089,0.008C0.101,0.008 0.116,0.003 0.126,0.002L0.131,0.002C0.141,0.002 0.151,0.004 0.16,0.004C0.165,0.004 0.169,0.003 0.173,0.002C0.189,-0.001 0.194,-0.014 0.194,-0.029C0.194,-0.044 0.189,-0.061 0.187,-0.074C0.182,-0.106 0.181,-0.14 0.181,-0.172L0.181,-0.176C0.181,-0.221 0.181,-0.289 0.228,-0.308C0.236,-0.311 0.246,-0.313 0.256,-0.313C0.276,-0.313 0.297,-0.306 0.309,-0.295C0.323,-0.279 0.326,-0.255 0.326,-0.233L0.326,-0.213C0.326,-0.169 0.326,-0.126 0.323,-0.082C0.322,-0.07 0.319,-0.053 0.319,-0.037C0.319,-0.017 0.324,-0 0.346,0.004C0.355,0.006 0.38,0.009 0.401,0.009C0.416,0.009 0.428,0.007 0.432,0.004C0.438,-0.002 0.44,-0.014 0.44,-0.026C0.44,-0.051 0.434,-0.081 0.433,-0.096C0.432,-0.101 0.432,-0.108 0.432,-0.114C0.432,-0.127 0.433,-0.141 0.433,-0.156L0.433,-0.166C0.432,-0.174 0.432,-0.181 0.432,-0.188C0.432,-0.206 0.433,-0.225 0.433,-0.243C0.433,-0.289 0.427,-0.332 0.386,-0.365C0.361,-0.386 0.332,-0.391 0.301,-0.391C0.294,-0.391 0.286,-0.391 0.279,-0.39C0.246,-0.39 0.226,-0.361 0.196,-0.361C0.185,-0.361 0.177,-0.368 0.177,-0.386L0.177,-0.416C0.177,-0.449 0.178,-0.482 0.181,-0.515C0.183,-0.537 0.186,-0.559 0.187,-0.581C0.187,-0.596 0.192,-0.614 0.192,-0.631C0.192,-0.636 0.192,-0.641 0.191,-0.645C0.186,-0.656 0.178,-0.658 0.165,-0.658C0.142,-0.658 0.122,-0.663 0.101,-0.665L0.096,-0.665Z" style="fill-rule:nonzero;"/>
                    </g>
                    <g transform="matrix(80,0,0,80,724.84,162.56)">
                        <path d="M0.095,-0.391C0.074,-0.389 0.071,-0.378 0.071,-0.357C0.071,-0.325 0.075,-0.291 0.076,-0.26C0.077,-0.238 0.077,-0.216 0.077,-0.194C0.077,-0.152 0.076,-0.11 0.072,-0.069C0.071,-0.057 0.066,-0.04 0.066,-0.026C0.066,-0.017 0.067,-0.011 0.071,-0.006C0.079,0.006 0.096,0.01 0.113,0.01C0.131,0.01 0.149,0.006 0.161,0.002C0.177,-0.005 0.182,-0.017 0.182,-0.031C0.182,-0.043 0.178,-0.057 0.176,-0.07C0.171,-0.102 0.171,-0.134 0.171,-0.166L0.171,-0.191C0.171,-0.227 0.173,-0.256 0.203,-0.281C0.218,-0.293 0.242,-0.303 0.265,-0.303C0.277,-0.303 0.291,-0.3 0.3,-0.291C0.321,-0.272 0.327,-0.238 0.327,-0.203C0.327,-0.163 0.319,-0.119 0.318,-0.09C0.317,-0.073 0.311,-0.05 0.311,-0.03C0.311,-0.02 0.313,-0.011 0.317,-0.003C0.324,0.009 0.343,0.012 0.361,0.012C0.371,0.012 0.382,0.01 0.389,0.009C0.414,0.007 0.426,-0.002 0.426,-0.023C0.426,-0.026 0.425,-0.029 0.425,-0.032C0.421,-0.067 0.422,-0.101 0.42,-0.136C0.419,-0.153 0.417,-0.168 0.417,-0.185C0.417,-0.19 0.417,-0.195 0.418,-0.201C0.419,-0.211 0.419,-0.221 0.419,-0.231C0.419,-0.256 0.416,-0.281 0.408,-0.306C0.395,-0.347 0.383,-0.362 0.346,-0.383C0.328,-0.393 0.309,-0.396 0.289,-0.396C0.279,-0.396 0.268,-0.396 0.258,-0.394C0.241,-0.391 0.227,-0.386 0.213,-0.378C0.203,-0.372 0.186,-0.35 0.176,-0.348C0.174,-0.348 0.172,-0.347 0.171,-0.347C0.166,-0.347 0.164,-0.352 0.164,-0.358C0.164,-0.361 0.165,-0.365 0.165,-0.369C0.165,-0.374 0.164,-0.379 0.161,-0.383C0.155,-0.391 0.136,-0.392 0.121,-0.392C0.11,-0.392 0.101,-0.391 0.095,-0.391Z" style="fill-rule:nonzero;"/>
                    </g>
                    <g transform="matrix(80,0,0,80,763.56,162.56)">
                        <path d="M0.136,-0.388C0.111,-0.381 0.087,-0.371 0.069,-0.355C0.05,-0.337 0.037,-0.315 0.037,-0.286C0.037,-0.281 0.037,-0.277 0.038,-0.273C0.042,-0.226 0.078,-0.194 0.117,-0.173C0.141,-0.16 0.216,-0.148 0.216,-0.111C0.216,-0.108 0.215,-0.105 0.214,-0.101C0.208,-0.083 0.188,-0.076 0.169,-0.076C0.156,-0.076 0.143,-0.079 0.133,-0.084C0.117,-0.091 0.115,-0.108 0.096,-0.111C0.093,-0.112 0.09,-0.112 0.086,-0.112C0.075,-0.112 0.063,-0.109 0.054,-0.103C0.038,-0.095 0.024,-0.079 0.024,-0.062C0.024,-0.056 0.026,-0.049 0.032,-0.043C0.041,-0.032 0.062,-0.023 0.076,-0.016C0.09,-0.007 0.108,-0.002 0.124,0.002C0.136,0.005 0.151,0.008 0.167,0.008C0.186,0.008 0.206,0.005 0.221,-0C0.276,-0.016 0.302,-0.062 0.302,-0.113C0.302,-0.126 0.301,-0.141 0.297,-0.154C0.285,-0.201 0.232,-0.22 0.193,-0.24C0.173,-0.25 0.129,-0.263 0.129,-0.288C0.129,-0.293 0.131,-0.298 0.134,-0.304C0.141,-0.314 0.15,-0.317 0.16,-0.317C0.168,-0.317 0.177,-0.315 0.186,-0.312C0.199,-0.308 0.212,-0.295 0.226,-0.293C0.246,-0.293 0.263,-0.312 0.272,-0.326C0.276,-0.331 0.278,-0.337 0.278,-0.342C0.278,-0.354 0.268,-0.364 0.256,-0.373C0.246,-0.38 0.23,-0.388 0.218,-0.391C0.213,-0.392 0.207,-0.392 0.202,-0.392L0.192,-0.392C0.185,-0.392 0.178,-0.393 0.171,-0.393C0.159,-0.393 0.148,-0.391 0.136,-0.388Z" style="fill-rule:nonzero;"/>
                    </g>
                    <g transform="matrix(80,0,0,80,790.04,162.56)">
                        <path d="M0.426,-0.294C0.405,-0.331 0.381,-0.357 0.344,-0.378C0.316,-0.394 0.283,-0.401 0.25,-0.401C0.183,-0.401 0.114,-0.371 0.081,-0.318C0.056,-0.278 0.044,-0.23 0.044,-0.181C0.044,-0.166 0.045,-0.152 0.047,-0.138C0.061,-0.041 0.162,0.016 0.256,0.016C0.286,0.016 0.315,0.01 0.341,-0.001C0.417,-0.036 0.451,-0.111 0.451,-0.19C0.451,-0.205 0.45,-0.219 0.447,-0.234C0.445,-0.256 0.437,-0.275 0.426,-0.294ZM0.132,-0.193C0.132,-0.197 0.132,-0.201 0.133,-0.205C0.141,-0.266 0.194,-0.305 0.249,-0.305C0.276,-0.305 0.302,-0.296 0.325,-0.276C0.347,-0.255 0.365,-0.224 0.365,-0.192C0.365,-0.188 0.365,-0.184 0.364,-0.18C0.357,-0.14 0.331,-0.1 0.295,-0.081C0.281,-0.075 0.267,-0.071 0.252,-0.071C0.247,-0.071 0.241,-0.072 0.236,-0.073C0.214,-0.076 0.207,-0.08 0.192,-0.092C0.191,-0.093 0.19,-0.095 0.188,-0.096C0.171,-0.111 0.156,-0.121 0.145,-0.141C0.137,-0.158 0.132,-0.176 0.132,-0.193Z" style="fill-rule:nonzero;"/>
                    </g>
                    <g transform="matrix(80,0,0,80,829.8,162.56)">
                        <path d="M0.095,-0.391C0.074,-0.389 0.071,-0.378 0.071,-0.357C0.071,-0.325 0.075,-0.291 0.076,-0.26C0.077,-0.238 0.077,-0.216 0.077,-0.194C0.077,-0.152 0.076,-0.11 0.072,-0.069C0.071,-0.057 0.066,-0.04 0.066,-0.026C0.066,-0.017 0.067,-0.011 0.071,-0.006C0.079,0.006 0.096,0.01 0.113,0.01C0.131,0.01 0.149,0.006 0.161,0.002C0.177,-0.005 0.182,-0.017 0.182,-0.031C0.182,-0.043 0.178,-0.057 0.176,-0.07C0.171,-0.102 0.171,-0.134 0.171,-0.166L0.171,-0.191C0.171,-0.227 0.173,-0.256 0.203,-0.281C0.218,-0.293 0.242,-0.303 0.265,-0.303C0.277,-0.303 0.291,-0.3 0.3,-0.291C0.321,-0.272 0.327,-0.238 0.327,-0.203C0.327,-0.163 0.319,-0.119 0.318,-0.09C0.317,-0.073 0.311,-0.05 0.311,-0.03C0.311,-0.02 0.313,-0.011 0.317,-0.003C0.324,0.009 0.343,0.012 0.361,0.012C0.371,0.012 0.382,0.01 0.389,0.009C0.414,0.007 0.426,-0.002 0.426,-0.023C0.426,-0.026 0.425,-0.029 0.425,-0.032C0.421,-0.067 0.422,-0.101 0.42,-0.136C0.419,-0.153 0.417,-0.168 0.417,-0.185C0.417,-0.19 0.417,-0.195 0.418,-0.201C0.419,-0.211 0.419,-0.221 0.419,-0.231C0.419,-0.256 0.416,-0.281 0.408,-0.306C0.395,-0.347 0.383,-0.362 0.346,-0.383C0.328,-0.393 0.309,-0.396 0.289,-0.396C0.279,-0.396 0.268,-0.396 0.258,-0.394C0.241,-0.391 0.227,-0.386 0.213,-0.378C0.203,-0.372 0.186,-0.35 0.176,-0.348C0.174,-0.348 0.172,-0.347 0.171,-0.347C0.166,-0.347 0.164,-0.352 0.164,-0.358C0.164,-0.361 0.165,-0.365 0.165,-0.369C0.165,-0.374 0.164,-0.379 0.161,-0.383C0.155,-0.391 0.136,-0.392 0.121,-0.392C0.11,-0.392 0.101,-0.391 0.095,-0.391Z" style="fill-rule:nonzero;"/>
                    </g>
                </g>
            </g>
        </g>
    </g>
</svg>
