<?xml version="1.0" encoding="UTF-8" standalone="no"?>
<!DOCTYPE svg PUBLIC "-//W3C//DTD SVG 1.1//EN" "http://www.w3.org/Graphics/SVG/1.1/DTD/svg11.dtd">
<svg width="100%" height="100%" viewBox="0 0 1200 1201" version="1.1" xmlns="http://www.w3.org/2000/svg" xmlns:xlink="http://www.w3.org/1999/xlink" xml:space="preserve" xmlns:serif="http://www.serif.com/" style="fill-rule:evenodd;clip-rule:evenodd;stroke-linejoin:round;stroke-miterlimit:2;">
    <g transform="matrix(1,0,0,1,-8592,-12)">
        <g id="PRE-106" transform="matrix(1,0,0,1,8592,12.5)">
            <rect x="0" y="0" width="1200" height="1200" style="fill:none;"/>
            <g transform="matrix(1,0,0,1,10,5)">
                <a xlink:href="106.svg"><g id="Link-Ellipse" serif:id="Link Ellipse" transform="matrix(8,0,0,8,-7810,-7800)">
                    <circle cx="1050" cy="1050" r="50" style="fill:#d5d5d5;"/>
					</g></a>
                <g transform="matrix(1,0,0,1,10,450)">
                    <g transform="matrix(80,0,0,80,421.12,162.56)">
                        <path d="M0.145,-0.598C0.138,-0.598 0.131,-0.599 0.125,-0.599C0.111,-0.6 0.098,-0.603 0.087,-0.603C0.073,-0.603 0.064,-0.597 0.064,-0.571C0.064,-0.541 0.072,-0.509 0.072,-0.476C0.072,-0.445 0.071,-0.414 0.071,-0.383L0.071,-0.371C0.071,-0.326 0.069,-0.281 0.069,-0.236C0.069,-0.222 0.069,-0.207 0.07,-0.193C0.071,-0.169 0.073,-0.143 0.073,-0.118C0.073,-0.111 0.072,-0.103 0.072,-0.096C0.071,-0.076 0.057,-0.048 0.057,-0.026C0.057,-0.021 0.058,-0.016 0.061,-0.011C0.068,0.004 0.086,0.009 0.105,0.009C0.116,0.009 0.128,0.007 0.136,0.006C0.151,0.004 0.168,0.004 0.185,0.004C0.199,0.004 0.214,0.004 0.228,0.005C0.237,0.006 0.247,0.007 0.257,0.007C0.274,0.007 0.291,0.006 0.306,0.006L0.324,0.006C0.34,0.007 0.363,0.015 0.383,0.015C0.392,0.015 0.401,0.014 0.407,0.008C0.415,0.001 0.419,-0.027 0.419,-0.052C0.419,-0.067 0.417,-0.08 0.414,-0.086C0.407,-0.097 0.375,-0.101 0.351,-0.101C0.342,-0.101 0.336,-0.101 0.331,-0.1C0.318,-0.097 0.309,-0.091 0.296,-0.091C0.294,-0.091 0.291,-0.091 0.289,-0.092C0.277,-0.094 0.268,-0.096 0.256,-0.096L0.241,-0.096C0.231,-0.095 0.224,-0.094 0.217,-0.094C0.198,-0.094 0.181,-0.099 0.176,-0.123C0.172,-0.136 0.171,-0.149 0.171,-0.162C0.171,-0.179 0.174,-0.197 0.174,-0.213L0.174,-0.236C0.174,-0.258 0.176,-0.28 0.205,-0.281L0.237,-0.281C0.286,-0.281 0.341,-0.279 0.392,-0.277L0.399,-0.277C0.415,-0.277 0.417,-0.282 0.417,-0.299L0.417,-0.321C0.417,-0.336 0.416,-0.352 0.413,-0.365C0.396,-0.374 0.377,-0.376 0.357,-0.376C0.346,-0.376 0.336,-0.376 0.326,-0.375C0.296,-0.372 0.267,-0.372 0.238,-0.371L0.222,-0.371C0.196,-0.371 0.176,-0.376 0.171,-0.411C0.17,-0.419 0.17,-0.427 0.17,-0.434C0.17,-0.453 0.173,-0.469 0.181,-0.491C0.187,-0.507 0.19,-0.51 0.203,-0.51L0.211,-0.51C0.226,-0.509 0.241,-0.508 0.257,-0.508C0.291,-0.508 0.321,-0.506 0.353,-0.506C0.386,-0.506 0.412,-0.507 0.416,-0.545L0.416,-0.569C0.416,-0.59 0.411,-0.602 0.381,-0.604C0.351,-0.605 0.319,-0.606 0.291,-0.606C0.242,-0.606 0.193,-0.598 0.145,-0.598Z" style="fill-rule:nonzero;"/>
                    </g>
                    <g transform="matrix(80,0,0,80,457.52,162.56)">
                        <path d="M0.009,-0.376C0.009,-0.373 0.01,-0.371 0.011,-0.367C0.017,-0.341 0.052,-0.3 0.061,-0.285C0.091,-0.231 0.116,-0.171 0.142,-0.115C0.157,-0.082 0.171,-0.048 0.182,-0.014C0.188,0.006 0.201,0.025 0.216,0.025C0.222,0.025 0.231,0.021 0.238,0.01C0.257,-0.016 0.261,-0.052 0.273,-0.081C0.288,-0.119 0.304,-0.161 0.323,-0.196C0.341,-0.231 0.354,-0.268 0.371,-0.303C0.378,-0.318 0.407,-0.356 0.407,-0.378C0.407,-0.383 0.406,-0.388 0.401,-0.391C0.398,-0.393 0.393,-0.394 0.387,-0.394C0.376,-0.394 0.362,-0.39 0.354,-0.39C0.346,-0.39 0.336,-0.391 0.327,-0.391C0.321,-0.391 0.314,-0.391 0.309,-0.388C0.294,-0.38 0.291,-0.356 0.285,-0.341C0.276,-0.318 0.27,-0.294 0.259,-0.271C0.251,-0.255 0.241,-0.198 0.216,-0.198C0.212,-0.198 0.21,-0.199 0.206,-0.201C0.19,-0.21 0.189,-0.241 0.183,-0.257C0.178,-0.271 0.166,-0.283 0.16,-0.296C0.148,-0.322 0.148,-0.366 0.126,-0.385C0.117,-0.391 0.106,-0.393 0.094,-0.393C0.082,-0.393 0.069,-0.391 0.057,-0.391C0.054,-0.391 0.051,-0.391 0.047,-0.392C0.041,-0.393 0.037,-0.393 0.033,-0.393C0.016,-0.393 0.009,-0.386 0.009,-0.376Z" style="fill-rule:nonzero;"/>
                    </g>
                    <g transform="matrix(80,0,0,80,490.8,162.56)">
                        <path d="M0.26,-0.4C0.229,-0.4 0.2,-0.388 0.171,-0.381C0.14,-0.373 0.111,-0.359 0.088,-0.333C0.055,-0.295 0.046,-0.251 0.046,-0.206C0.046,-0.19 0.047,-0.173 0.049,-0.156C0.056,-0.088 0.086,-0.043 0.145,-0.007C0.176,0.012 0.205,0.021 0.236,0.021C0.261,0.021 0.286,0.015 0.313,0.004C0.346,-0.01 0.387,-0.024 0.411,-0.052C0.415,-0.058 0.417,-0.064 0.417,-0.07C0.417,-0.093 0.387,-0.116 0.363,-0.116C0.359,-0.116 0.356,-0.115 0.352,-0.114C0.327,-0.104 0.313,-0.078 0.286,-0.072C0.28,-0.071 0.273,-0.071 0.266,-0.071L0.243,-0.071C0.216,-0.071 0.188,-0.076 0.169,-0.097C0.158,-0.109 0.146,-0.131 0.146,-0.148C0.146,-0.151 0.146,-0.154 0.147,-0.157C0.151,-0.173 0.166,-0.176 0.181,-0.176C0.195,-0.176 0.209,-0.174 0.22,-0.174C0.231,-0.174 0.238,-0.175 0.246,-0.175C0.29,-0.175 0.334,-0.17 0.378,-0.17L0.386,-0.17C0.416,-0.17 0.432,-0.171 0.432,-0.197C0.432,-0.201 0.432,-0.206 0.431,-0.211C0.427,-0.243 0.426,-0.273 0.41,-0.302C0.381,-0.355 0.321,-0.4 0.26,-0.4ZM0.166,-0.295C0.168,-0.298 0.171,-0.301 0.174,-0.303C0.191,-0.316 0.216,-0.324 0.241,-0.324C0.274,-0.324 0.307,-0.311 0.321,-0.283C0.323,-0.278 0.325,-0.271 0.325,-0.265C0.325,-0.256 0.322,-0.246 0.317,-0.241C0.308,-0.233 0.286,-0.235 0.274,-0.234L0.266,-0.234C0.246,-0.234 0.227,-0.236 0.207,-0.236C0.18,-0.236 0.151,-0.245 0.151,-0.266C0.151,-0.273 0.156,-0.283 0.166,-0.295Z" style="fill-rule:nonzero;"/>
                    </g>
                    <g transform="matrix(80,0,0,80,528.88,162.56)">
                        <path d="M0.093,-0.657C0.082,-0.657 0.073,-0.654 0.068,-0.641C0.064,-0.63 0.062,-0.619 0.062,-0.607C0.062,-0.586 0.067,-0.565 0.068,-0.545C0.072,-0.476 0.071,-0.407 0.074,-0.337C0.075,-0.311 0.076,-0.285 0.076,-0.258C0.076,-0.216 0.074,-0.173 0.072,-0.131C0.071,-0.098 0.067,-0.066 0.066,-0.035L0.066,-0.031C0.066,-0.002 0.083,0.004 0.106,0.004C0.112,0.004 0.12,0.003 0.137,0.002C0.151,0.002 0.174,-0 0.181,-0.011C0.185,-0.017 0.186,-0.025 0.186,-0.033C0.186,-0.046 0.183,-0.059 0.183,-0.069C0.181,-0.097 0.178,-0.126 0.178,-0.154C0.178,-0.225 0.176,-0.294 0.176,-0.365L0.176,-0.429C0.176,-0.466 0.176,-0.502 0.18,-0.539C0.182,-0.564 0.187,-0.589 0.187,-0.615L0.187,-0.625C0.186,-0.649 0.172,-0.651 0.156,-0.651L0.136,-0.651C0.123,-0.651 0.107,-0.657 0.093,-0.657Z" style="fill-rule:nonzero;"/>
                    </g>
                    <g transform="matrix(80,0,0,80,548.48,162.56)">
                        <path d="M0.055,-0.39C0.046,-0.39 0.039,-0.387 0.036,-0.376C0.035,-0.372 0.034,-0.368 0.034,-0.365C0.034,-0.338 0.06,-0.309 0.073,-0.289C0.109,-0.234 0.135,-0.173 0.164,-0.116C0.171,-0.102 0.181,-0.09 0.187,-0.076C0.189,-0.072 0.19,-0.067 0.19,-0.063C0.19,-0.051 0.184,-0.041 0.179,-0.029C0.165,0.004 0.148,0.039 0.131,0.072C0.116,0.104 0.096,0.131 0.079,0.162C0.075,0.17 0.071,0.179 0.071,0.184C0.071,0.19 0.074,0.194 0.081,0.197C0.086,0.199 0.091,0.199 0.096,0.199C0.11,0.199 0.126,0.196 0.136,0.195C0.149,0.195 0.159,0.199 0.17,0.199C0.173,0.199 0.177,0.198 0.181,0.197C0.201,0.191 0.199,0.174 0.206,0.158C0.217,0.126 0.227,0.094 0.24,0.063C0.279,-0.032 0.326,-0.121 0.374,-0.211L0.38,-0.222C0.398,-0.257 0.409,-0.294 0.427,-0.328C0.436,-0.344 0.443,-0.358 0.443,-0.368C0.443,-0.38 0.434,-0.386 0.409,-0.386C0.395,-0.386 0.381,-0.389 0.37,-0.389C0.353,-0.389 0.34,-0.384 0.331,-0.361C0.309,-0.303 0.282,-0.246 0.26,-0.187C0.253,-0.17 0.246,-0.164 0.241,-0.164C0.232,-0.164 0.225,-0.186 0.218,-0.207C0.21,-0.235 0.196,-0.261 0.183,-0.287C0.17,-0.314 0.167,-0.346 0.149,-0.371C0.137,-0.386 0.128,-0.39 0.118,-0.39C0.109,-0.39 0.098,-0.386 0.085,-0.386L0.079,-0.386C0.071,-0.387 0.062,-0.39 0.055,-0.39Z" style="fill-rule:nonzero;"/>
                    </g>
                    <g transform="matrix(80,0,0,80,585.92,162.56)">
                        <path d="M0.095,-0.391C0.074,-0.389 0.071,-0.378 0.071,-0.357C0.071,-0.325 0.075,-0.291 0.076,-0.26C0.077,-0.238 0.077,-0.216 0.077,-0.194C0.077,-0.152 0.076,-0.11 0.072,-0.069C0.071,-0.057 0.066,-0.04 0.066,-0.026C0.066,-0.017 0.067,-0.011 0.071,-0.006C0.079,0.006 0.096,0.01 0.113,0.01C0.131,0.01 0.149,0.006 0.161,0.002C0.177,-0.005 0.182,-0.017 0.182,-0.031C0.182,-0.043 0.178,-0.057 0.176,-0.07C0.171,-0.102 0.171,-0.134 0.171,-0.166L0.171,-0.191C0.171,-0.227 0.173,-0.256 0.203,-0.281C0.218,-0.293 0.242,-0.303 0.265,-0.303C0.277,-0.303 0.291,-0.3 0.3,-0.291C0.321,-0.272 0.327,-0.238 0.327,-0.203C0.327,-0.163 0.319,-0.119 0.318,-0.09C0.317,-0.073 0.311,-0.05 0.311,-0.03C0.311,-0.02 0.313,-0.011 0.317,-0.003C0.324,0.009 0.343,0.012 0.361,0.012C0.371,0.012 0.382,0.01 0.389,0.009C0.414,0.007 0.426,-0.002 0.426,-0.023C0.426,-0.026 0.425,-0.029 0.425,-0.032C0.421,-0.067 0.422,-0.101 0.42,-0.136C0.419,-0.153 0.417,-0.168 0.417,-0.185C0.417,-0.19 0.417,-0.195 0.418,-0.201C0.419,-0.211 0.419,-0.221 0.419,-0.231C0.419,-0.256 0.416,-0.281 0.408,-0.306C0.395,-0.347 0.383,-0.362 0.346,-0.383C0.328,-0.393 0.309,-0.396 0.289,-0.396C0.279,-0.396 0.268,-0.396 0.258,-0.394C0.241,-0.391 0.227,-0.386 0.213,-0.378C0.203,-0.372 0.186,-0.35 0.176,-0.348C0.174,-0.348 0.172,-0.347 0.171,-0.347C0.166,-0.347 0.164,-0.352 0.164,-0.358C0.164,-0.361 0.165,-0.365 0.165,-0.369C0.165,-0.374 0.164,-0.379 0.161,-0.383C0.155,-0.391 0.136,-0.392 0.121,-0.392C0.11,-0.392 0.101,-0.391 0.095,-0.391Z" style="fill-rule:nonzero;"/>
                    </g>
                    <g transform="matrix(80,0,0,80,644.64,162.56)">
                        <path d="M0.353,-0.611C0.295,-0.611 0.236,-0.597 0.187,-0.565C0.163,-0.549 0.146,-0.535 0.125,-0.513C0.106,-0.494 0.095,-0.474 0.082,-0.451L0.077,-0.441C0.063,-0.413 0.048,-0.384 0.043,-0.354C0.041,-0.34 0.039,-0.326 0.039,-0.311L0.039,-0.302C0.039,-0.288 0.04,-0.273 0.041,-0.26C0.047,-0.199 0.071,-0.148 0.111,-0.1C0.125,-0.083 0.131,-0.063 0.15,-0.049C0.171,-0.031 0.206,-0.022 0.232,-0.013C0.278,0.004 0.323,0.013 0.371,0.013C0.382,0.013 0.394,0.013 0.406,0.011C0.446,0.007 0.493,-0.001 0.518,-0.037C0.521,-0.042 0.526,-0.081 0.526,-0.107C0.526,-0.121 0.525,-0.131 0.522,-0.131C0.51,-0.131 0.461,-0.101 0.441,-0.096C0.412,-0.088 0.383,-0.087 0.356,-0.086L0.343,-0.086C0.285,-0.086 0.237,-0.104 0.196,-0.148C0.158,-0.191 0.144,-0.237 0.144,-0.293L0.144,-0.307C0.146,-0.333 0.146,-0.376 0.158,-0.399C0.166,-0.412 0.186,-0.419 0.196,-0.432C0.205,-0.442 0.209,-0.455 0.219,-0.465C0.238,-0.484 0.27,-0.495 0.294,-0.501L0.337,-0.51C0.341,-0.511 0.346,-0.511 0.349,-0.511C0.356,-0.511 0.362,-0.51 0.37,-0.51C0.373,-0.51 0.376,-0.51 0.381,-0.511L0.393,-0.511C0.418,-0.511 0.435,-0.498 0.461,-0.491C0.473,-0.486 0.482,-0.48 0.494,-0.473C0.5,-0.471 0.522,-0.456 0.527,-0.456C0.536,-0.456 0.538,-0.465 0.538,-0.475C0.538,-0.487 0.535,-0.502 0.535,-0.511L0.535,-0.514C0.533,-0.544 0.532,-0.566 0.501,-0.58C0.469,-0.596 0.432,-0.604 0.396,-0.609C0.382,-0.611 0.367,-0.611 0.353,-0.611Z" style="fill-rule:nonzero;"/>
                    </g>
                    <g transform="matrix(80,0,0,80,691.84,162.56)">
                        <path d="M0.093,-0.657C0.082,-0.657 0.073,-0.654 0.068,-0.641C0.064,-0.63 0.062,-0.619 0.062,-0.607C0.062,-0.586 0.067,-0.565 0.068,-0.545C0.072,-0.476 0.071,-0.407 0.074,-0.337C0.075,-0.311 0.076,-0.285 0.076,-0.258C0.076,-0.216 0.074,-0.173 0.072,-0.131C0.071,-0.098 0.067,-0.066 0.066,-0.035L0.066,-0.031C0.066,-0.002 0.083,0.004 0.106,0.004C0.112,0.004 0.12,0.003 0.137,0.002C0.151,0.002 0.174,-0 0.181,-0.011C0.185,-0.017 0.186,-0.025 0.186,-0.033C0.186,-0.046 0.183,-0.059 0.183,-0.069C0.181,-0.097 0.178,-0.126 0.178,-0.154C0.178,-0.225 0.176,-0.294 0.176,-0.365L0.176,-0.429C0.176,-0.466 0.176,-0.502 0.18,-0.539C0.182,-0.564 0.187,-0.589 0.187,-0.615L0.187,-0.625C0.186,-0.649 0.172,-0.651 0.156,-0.651L0.136,-0.651C0.123,-0.651 0.107,-0.657 0.093,-0.657Z" style="fill-rule:nonzero;"/>
                    </g>
                    <g transform="matrix(80,0,0,80,711.44,162.56)">
                        <path d="M0.055,-0.39C0.046,-0.39 0.039,-0.387 0.036,-0.376C0.035,-0.372 0.034,-0.368 0.034,-0.365C0.034,-0.338 0.06,-0.309 0.073,-0.289C0.109,-0.234 0.135,-0.173 0.164,-0.116C0.171,-0.102 0.181,-0.09 0.187,-0.076C0.189,-0.072 0.19,-0.067 0.19,-0.063C0.19,-0.051 0.184,-0.041 0.179,-0.029C0.165,0.004 0.148,0.039 0.131,0.072C0.116,0.104 0.096,0.131 0.079,0.162C0.075,0.17 0.071,0.179 0.071,0.184C0.071,0.19 0.074,0.194 0.081,0.197C0.086,0.199 0.091,0.199 0.096,0.199C0.11,0.199 0.126,0.196 0.136,0.195C0.149,0.195 0.159,0.199 0.17,0.199C0.173,0.199 0.177,0.198 0.181,0.197C0.201,0.191 0.199,0.174 0.206,0.158C0.217,0.126 0.227,0.094 0.24,0.063C0.279,-0.032 0.326,-0.121 0.374,-0.211L0.38,-0.222C0.398,-0.257 0.409,-0.294 0.427,-0.328C0.436,-0.344 0.443,-0.358 0.443,-0.368C0.443,-0.38 0.434,-0.386 0.409,-0.386C0.395,-0.386 0.381,-0.389 0.37,-0.389C0.353,-0.389 0.34,-0.384 0.331,-0.361C0.309,-0.303 0.282,-0.246 0.26,-0.187C0.253,-0.17 0.246,-0.164 0.241,-0.164C0.232,-0.164 0.225,-0.186 0.218,-0.207C0.21,-0.235 0.196,-0.261 0.183,-0.287C0.17,-0.314 0.167,-0.346 0.149,-0.371C0.137,-0.386 0.128,-0.39 0.118,-0.39C0.109,-0.39 0.098,-0.386 0.085,-0.386L0.079,-0.386C0.071,-0.387 0.062,-0.39 0.055,-0.39Z" style="fill-rule:nonzero;"/>
                    </g>
                </g>
            </g>
        </g>
    </g>
</svg>
