<?xml version="1.0" encoding="UTF-8" standalone="no"?>
<!DOCTYPE svg PUBLIC "-//W3C//DTD SVG 1.1//EN" "http://www.w3.org/Graphics/SVG/1.1/DTD/svg11.dtd">
<svg width="100%" height="100%" viewBox="0 0 1200 1201" version="1.1" xmlns="http://www.w3.org/2000/svg" xmlns:xlink="http://www.w3.org/1999/xlink" xml:space="preserve" xmlns:serif="http://www.serif.com/" style="fill-rule:evenodd;clip-rule:evenodd;stroke-linejoin:round;stroke-miterlimit:2;">
    <g transform="matrix(1,0,0,1,-8592,-1509)">
        <g id="PRE-111" transform="matrix(1,0,0,1,8592,1509.5)">
            <rect x="0" y="0" width="1200" height="1200" style="fill:none;"/>
            <g transform="matrix(1,0,0,1,10,5)">
                <a xlink:href="111.svg"><g id="Link-Ellipse" serif:id="Link Ellipse" transform="matrix(8,0,0,8,-7810,-7800)">
                    <circle cx="1050" cy="1050" r="50" style="fill:#d5d5d5;"/>
					</g></a>
			
                <g transform="matrix(1,0,0,1,10,450)">
                    <g transform="matrix(80,0,0,80,366.76,162.56)">
                        <path d="M0.353,-0.611C0.295,-0.611 0.236,-0.597 0.187,-0.565C0.163,-0.549 0.146,-0.535 0.125,-0.513C0.106,-0.494 0.095,-0.474 0.082,-0.451L0.077,-0.441C0.063,-0.413 0.048,-0.384 0.043,-0.354C0.041,-0.34 0.039,-0.326 0.039,-0.311L0.039,-0.302C0.039,-0.288 0.04,-0.273 0.041,-0.26C0.047,-0.199 0.071,-0.148 0.111,-0.1C0.125,-0.083 0.131,-0.063 0.15,-0.049C0.171,-0.031 0.206,-0.022 0.232,-0.013C0.278,0.004 0.323,0.013 0.371,0.013C0.382,0.013 0.394,0.013 0.406,0.011C0.446,0.007 0.493,-0.001 0.518,-0.037C0.521,-0.042 0.526,-0.081 0.526,-0.107C0.526,-0.121 0.525,-0.131 0.522,-0.131C0.51,-0.131 0.461,-0.101 0.441,-0.096C0.412,-0.088 0.383,-0.087 0.356,-0.086L0.343,-0.086C0.285,-0.086 0.237,-0.104 0.196,-0.148C0.158,-0.191 0.144,-0.237 0.144,-0.293L0.144,-0.307C0.146,-0.333 0.146,-0.376 0.158,-0.399C0.166,-0.412 0.186,-0.419 0.196,-0.432C0.205,-0.442 0.209,-0.455 0.219,-0.465C0.238,-0.484 0.27,-0.495 0.294,-0.501L0.337,-0.51C0.341,-0.511 0.346,-0.511 0.349,-0.511C0.356,-0.511 0.362,-0.51 0.37,-0.51C0.373,-0.51 0.376,-0.51 0.381,-0.511L0.393,-0.511C0.418,-0.511 0.435,-0.498 0.461,-0.491C0.473,-0.486 0.482,-0.48 0.494,-0.473C0.5,-0.471 0.522,-0.456 0.527,-0.456C0.536,-0.456 0.538,-0.465 0.538,-0.475C0.538,-0.487 0.535,-0.502 0.535,-0.511L0.535,-0.514C0.533,-0.544 0.532,-0.566 0.501,-0.58C0.469,-0.596 0.432,-0.604 0.396,-0.609C0.382,-0.611 0.367,-0.611 0.353,-0.611Z" style="fill-rule:nonzero;"/>
                    </g>
                    <g transform="matrix(80,0,0,80,413.96,162.56)">
                        <path d="M0.096,-0.665C0.08,-0.665 0.072,-0.656 0.069,-0.639C0.066,-0.63 0.066,-0.62 0.066,-0.61C0.066,-0.586 0.07,-0.561 0.071,-0.539C0.076,-0.463 0.077,-0.387 0.077,-0.311C0.077,-0.27 0.078,-0.23 0.078,-0.19C0.078,-0.156 0.077,-0.123 0.076,-0.09C0.075,-0.078 0.069,-0.049 0.069,-0.026C0.069,-0.011 0.071,-0 0.078,0.005C0.081,0.008 0.085,0.008 0.089,0.008C0.101,0.008 0.116,0.003 0.126,0.002L0.131,0.002C0.141,0.002 0.151,0.004 0.16,0.004C0.165,0.004 0.169,0.003 0.173,0.002C0.189,-0.001 0.194,-0.014 0.194,-0.029C0.194,-0.044 0.189,-0.061 0.187,-0.074C0.182,-0.106 0.181,-0.14 0.181,-0.172L0.181,-0.176C0.181,-0.221 0.181,-0.289 0.228,-0.308C0.236,-0.311 0.246,-0.313 0.256,-0.313C0.276,-0.313 0.297,-0.306 0.309,-0.295C0.323,-0.279 0.326,-0.255 0.326,-0.233L0.326,-0.213C0.326,-0.169 0.326,-0.126 0.323,-0.082C0.322,-0.07 0.319,-0.053 0.319,-0.037C0.319,-0.017 0.324,-0 0.346,0.004C0.355,0.006 0.38,0.009 0.401,0.009C0.416,0.009 0.428,0.007 0.432,0.004C0.438,-0.002 0.44,-0.014 0.44,-0.026C0.44,-0.051 0.434,-0.081 0.433,-0.096C0.432,-0.101 0.432,-0.108 0.432,-0.114C0.432,-0.127 0.433,-0.141 0.433,-0.156L0.433,-0.166C0.432,-0.174 0.432,-0.181 0.432,-0.188C0.432,-0.206 0.433,-0.225 0.433,-0.243C0.433,-0.289 0.427,-0.332 0.386,-0.365C0.361,-0.386 0.332,-0.391 0.301,-0.391C0.294,-0.391 0.286,-0.391 0.279,-0.39C0.246,-0.39 0.226,-0.361 0.196,-0.361C0.185,-0.361 0.177,-0.368 0.177,-0.386L0.177,-0.416C0.177,-0.449 0.178,-0.482 0.181,-0.515C0.183,-0.537 0.186,-0.559 0.187,-0.581C0.187,-0.596 0.192,-0.614 0.192,-0.631C0.192,-0.636 0.192,-0.641 0.191,-0.645C0.186,-0.656 0.178,-0.658 0.165,-0.658C0.142,-0.658 0.122,-0.663 0.101,-0.665L0.096,-0.665Z" style="fill-rule:nonzero;"/>
                    </g>
                    <g transform="matrix(80,0,0,80,454.52,162.56)">
                        <path d="M0.074,-0.391C0.066,-0.386 0.061,-0.377 0.058,-0.365C0.057,-0.359 0.056,-0.352 0.056,-0.346C0.056,-0.311 0.066,-0.268 0.068,-0.251C0.069,-0.24 0.069,-0.228 0.069,-0.216C0.069,-0.186 0.067,-0.156 0.066,-0.126C0.064,-0.101 0.061,-0.074 0.061,-0.048C0.061,-0.039 0.061,-0.029 0.062,-0.021C0.065,-0.001 0.076,0.004 0.092,0.004C0.105,0.004 0.121,-0 0.134,-0L0.136,-0C0.145,0.001 0.152,0.003 0.157,0.003C0.165,0.003 0.169,-0 0.173,-0.011C0.175,-0.016 0.176,-0.022 0.176,-0.029C0.176,-0.039 0.174,-0.05 0.173,-0.058C0.169,-0.088 0.166,-0.119 0.166,-0.149C0.166,-0.171 0.168,-0.192 0.171,-0.214C0.177,-0.251 0.198,-0.3 0.242,-0.3C0.245,-0.3 0.248,-0.299 0.251,-0.299C0.264,-0.297 0.273,-0.295 0.281,-0.295C0.292,-0.295 0.299,-0.299 0.306,-0.316C0.311,-0.329 0.321,-0.351 0.321,-0.369C0.321,-0.376 0.32,-0.384 0.314,-0.39C0.306,-0.398 0.29,-0.401 0.275,-0.401C0.266,-0.401 0.259,-0.4 0.253,-0.399C0.221,-0.395 0.212,-0.377 0.189,-0.361C0.185,-0.358 0.185,-0.356 0.179,-0.354C0.17,-0.356 0.168,-0.359 0.168,-0.363L0.168,-0.367C0.168,-0.37 0.168,-0.371 0.167,-0.374C0.161,-0.386 0.149,-0.387 0.136,-0.387C0.129,-0.387 0.121,-0.386 0.115,-0.386C0.112,-0.386 0.11,-0.386 0.107,-0.387C0.099,-0.388 0.091,-0.392 0.083,-0.392C0.08,-0.392 0.077,-0.392 0.074,-0.391Z" style="fill-rule:nonzero;"/>
                    </g>
                    <g transform="matrix(80,0,0,80,481,162.56)">
                        <path d="M0.041,-0.54C0.041,-0.528 0.043,-0.516 0.05,-0.506C0.064,-0.482 0.088,-0.472 0.112,-0.472C0.149,-0.472 0.186,-0.496 0.194,-0.533C0.195,-0.536 0.195,-0.541 0.195,-0.544C0.195,-0.584 0.152,-0.621 0.112,-0.621C0.108,-0.621 0.103,-0.62 0.099,-0.619C0.065,-0.611 0.041,-0.575 0.041,-0.54ZM0.094,-0.384C0.085,-0.384 0.076,-0.381 0.071,-0.369C0.066,-0.361 0.066,-0.351 0.066,-0.341C0.066,-0.318 0.072,-0.293 0.073,-0.273C0.074,-0.249 0.075,-0.224 0.075,-0.2C0.075,-0.159 0.073,-0.118 0.069,-0.078C0.067,-0.066 0.065,-0.05 0.065,-0.036C0.065,-0.018 0.069,-0.004 0.087,-0C0.095,0.002 0.114,0.004 0.132,0.004C0.151,0.004 0.169,0.002 0.174,-0.004C0.18,-0.011 0.182,-0.022 0.182,-0.036C0.182,-0.056 0.177,-0.08 0.176,-0.091C0.174,-0.121 0.172,-0.157 0.172,-0.183C0.173,-0.219 0.177,-0.256 0.177,-0.291L0.177,-0.311C0.177,-0.321 0.178,-0.331 0.178,-0.341C0.178,-0.351 0.177,-0.361 0.175,-0.369C0.171,-0.38 0.161,-0.382 0.15,-0.382C0.141,-0.382 0.131,-0.381 0.123,-0.381L0.119,-0.381C0.111,-0.381 0.102,-0.384 0.094,-0.384Z" style="fill-rule:nonzero;"/>
                    </g>
                    <g transform="matrix(80,0,0,80,500.6,162.56)">
                        <path d="M0.136,-0.388C0.111,-0.381 0.087,-0.371 0.069,-0.355C0.05,-0.337 0.037,-0.315 0.037,-0.286C0.037,-0.281 0.037,-0.277 0.038,-0.273C0.042,-0.226 0.078,-0.194 0.117,-0.173C0.141,-0.16 0.216,-0.148 0.216,-0.111C0.216,-0.108 0.215,-0.105 0.214,-0.101C0.208,-0.083 0.188,-0.076 0.169,-0.076C0.156,-0.076 0.143,-0.079 0.133,-0.084C0.117,-0.091 0.115,-0.108 0.096,-0.111C0.093,-0.112 0.09,-0.112 0.086,-0.112C0.075,-0.112 0.063,-0.109 0.054,-0.103C0.038,-0.095 0.024,-0.079 0.024,-0.062C0.024,-0.056 0.026,-0.049 0.032,-0.043C0.041,-0.032 0.062,-0.023 0.076,-0.016C0.09,-0.007 0.108,-0.002 0.124,0.002C0.136,0.005 0.151,0.008 0.167,0.008C0.186,0.008 0.206,0.005 0.221,-0C0.276,-0.016 0.302,-0.062 0.302,-0.113C0.302,-0.126 0.301,-0.141 0.297,-0.154C0.285,-0.201 0.232,-0.22 0.193,-0.24C0.173,-0.25 0.129,-0.263 0.129,-0.288C0.129,-0.293 0.131,-0.298 0.134,-0.304C0.141,-0.314 0.15,-0.317 0.16,-0.317C0.168,-0.317 0.177,-0.315 0.186,-0.312C0.199,-0.308 0.212,-0.295 0.226,-0.293C0.246,-0.293 0.263,-0.312 0.272,-0.326C0.276,-0.331 0.278,-0.337 0.278,-0.342C0.278,-0.354 0.268,-0.364 0.256,-0.373C0.246,-0.38 0.23,-0.388 0.218,-0.391C0.213,-0.392 0.207,-0.392 0.202,-0.392L0.192,-0.392C0.185,-0.392 0.178,-0.393 0.171,-0.393C0.159,-0.393 0.148,-0.391 0.136,-0.388Z" style="fill-rule:nonzero;"/>
                    </g>
                    <g transform="matrix(80,0,0,80,547.08,162.56)">
                        <path d="M0.203,-0.476L0.203,-0.452C0.203,-0.426 0.201,-0.399 0.201,-0.372C0.201,-0.325 0.207,-0.274 0.207,-0.225C0.207,-0.209 0.206,-0.192 0.205,-0.176L0.205,-0.173C0.201,-0.141 0.199,-0.117 0.172,-0.096C0.157,-0.085 0.141,-0.078 0.125,-0.078C0.116,-0.078 0.106,-0.08 0.097,-0.085C0.086,-0.09 0.081,-0.106 0.067,-0.106L0.064,-0.106C0.052,-0.104 0.043,-0.086 0.036,-0.077C0.025,-0.063 0.009,-0.044 0.009,-0.025C0.009,-0.017 0.011,-0.01 0.016,-0.003C0.033,0.018 0.076,0.017 0.1,0.021C0.11,0.023 0.12,0.024 0.13,0.024C0.149,0.024 0.168,0.02 0.187,0.014C0.249,-0.006 0.295,-0.055 0.308,-0.118C0.318,-0.166 0.32,-0.217 0.32,-0.269L0.32,-0.307C0.32,-0.361 0.313,-0.413 0.313,-0.467C0.313,-0.477 0.313,-0.487 0.314,-0.497C0.315,-0.516 0.323,-0.546 0.323,-0.57C0.323,-0.591 0.316,-0.608 0.29,-0.608L0.283,-0.608L0.275,-0.607C0.265,-0.607 0.254,-0.609 0.243,-0.609C0.235,-0.609 0.226,-0.608 0.219,-0.606C0.204,-0.601 0.2,-0.591 0.2,-0.581C0.2,-0.572 0.201,-0.564 0.203,-0.556C0.205,-0.547 0.205,-0.538 0.205,-0.53C0.205,-0.512 0.203,-0.495 0.203,-0.476Z" style="fill-rule:nonzero;"/>
                    </g>
                    <g transform="matrix(80,0,0,80,579.24,162.56)">
                        <path d="M0.426,-0.294C0.405,-0.331 0.381,-0.357 0.344,-0.378C0.316,-0.394 0.283,-0.401 0.25,-0.401C0.183,-0.401 0.114,-0.371 0.081,-0.318C0.056,-0.278 0.044,-0.23 0.044,-0.181C0.044,-0.166 0.045,-0.152 0.047,-0.138C0.061,-0.041 0.162,0.016 0.256,0.016C0.286,0.016 0.315,0.01 0.341,-0.001C0.417,-0.036 0.451,-0.111 0.451,-0.19C0.451,-0.205 0.45,-0.219 0.447,-0.234C0.445,-0.256 0.437,-0.275 0.426,-0.294ZM0.132,-0.193C0.132,-0.197 0.132,-0.201 0.133,-0.205C0.141,-0.266 0.194,-0.305 0.249,-0.305C0.276,-0.305 0.302,-0.296 0.325,-0.276C0.347,-0.255 0.365,-0.224 0.365,-0.192C0.365,-0.188 0.365,-0.184 0.364,-0.18C0.357,-0.14 0.331,-0.1 0.295,-0.081C0.281,-0.075 0.267,-0.071 0.252,-0.071C0.247,-0.071 0.241,-0.072 0.236,-0.073C0.214,-0.076 0.207,-0.08 0.192,-0.092C0.191,-0.093 0.19,-0.095 0.188,-0.096C0.171,-0.111 0.156,-0.121 0.145,-0.141C0.137,-0.158 0.132,-0.176 0.132,-0.193Z" style="fill-rule:nonzero;"/>
                    </g>
                    <g transform="matrix(80,0,0,80,619,162.56)">
                        <path d="M0.096,-0.665C0.08,-0.665 0.072,-0.656 0.069,-0.639C0.066,-0.63 0.066,-0.62 0.066,-0.61C0.066,-0.586 0.07,-0.561 0.071,-0.539C0.076,-0.463 0.077,-0.387 0.077,-0.311C0.077,-0.27 0.078,-0.23 0.078,-0.19C0.078,-0.156 0.077,-0.123 0.076,-0.09C0.075,-0.078 0.069,-0.049 0.069,-0.026C0.069,-0.011 0.071,-0 0.078,0.005C0.081,0.008 0.085,0.008 0.089,0.008C0.101,0.008 0.116,0.003 0.126,0.002L0.131,0.002C0.141,0.002 0.151,0.004 0.16,0.004C0.165,0.004 0.169,0.003 0.173,0.002C0.189,-0.001 0.194,-0.014 0.194,-0.029C0.194,-0.044 0.189,-0.061 0.187,-0.074C0.182,-0.106 0.181,-0.14 0.181,-0.172L0.181,-0.176C0.181,-0.221 0.181,-0.289 0.228,-0.308C0.236,-0.311 0.246,-0.313 0.256,-0.313C0.276,-0.313 0.297,-0.306 0.309,-0.295C0.323,-0.279 0.326,-0.255 0.326,-0.233L0.326,-0.213C0.326,-0.169 0.326,-0.126 0.323,-0.082C0.322,-0.07 0.319,-0.053 0.319,-0.037C0.319,-0.017 0.324,-0 0.346,0.004C0.355,0.006 0.38,0.009 0.401,0.009C0.416,0.009 0.428,0.007 0.432,0.004C0.438,-0.002 0.44,-0.014 0.44,-0.026C0.44,-0.051 0.434,-0.081 0.433,-0.096C0.432,-0.101 0.432,-0.108 0.432,-0.114C0.432,-0.127 0.433,-0.141 0.433,-0.156L0.433,-0.166C0.432,-0.174 0.432,-0.181 0.432,-0.188C0.432,-0.206 0.433,-0.225 0.433,-0.243C0.433,-0.289 0.427,-0.332 0.386,-0.365C0.361,-0.386 0.332,-0.391 0.301,-0.391C0.294,-0.391 0.286,-0.391 0.279,-0.39C0.246,-0.39 0.226,-0.361 0.196,-0.361C0.185,-0.361 0.177,-0.368 0.177,-0.386L0.177,-0.416C0.177,-0.449 0.178,-0.482 0.181,-0.515C0.183,-0.537 0.186,-0.559 0.187,-0.581C0.187,-0.596 0.192,-0.614 0.192,-0.631C0.192,-0.636 0.192,-0.641 0.191,-0.645C0.186,-0.656 0.178,-0.658 0.165,-0.658C0.142,-0.658 0.122,-0.663 0.101,-0.665L0.096,-0.665Z" style="fill-rule:nonzero;"/>
                    </g>
                    <g transform="matrix(80,0,0,80,659.56,162.56)">
                        <path d="M0.095,-0.391C0.074,-0.389 0.071,-0.378 0.071,-0.357C0.071,-0.325 0.075,-0.291 0.076,-0.26C0.077,-0.238 0.077,-0.216 0.077,-0.194C0.077,-0.152 0.076,-0.11 0.072,-0.069C0.071,-0.057 0.066,-0.04 0.066,-0.026C0.066,-0.017 0.067,-0.011 0.071,-0.006C0.079,0.006 0.096,0.01 0.113,0.01C0.131,0.01 0.149,0.006 0.161,0.002C0.177,-0.005 0.182,-0.017 0.182,-0.031C0.182,-0.043 0.178,-0.057 0.176,-0.07C0.171,-0.102 0.171,-0.134 0.171,-0.166L0.171,-0.191C0.171,-0.227 0.173,-0.256 0.203,-0.281C0.218,-0.293 0.242,-0.303 0.265,-0.303C0.277,-0.303 0.291,-0.3 0.3,-0.291C0.321,-0.272 0.327,-0.238 0.327,-0.203C0.327,-0.163 0.319,-0.119 0.318,-0.09C0.317,-0.073 0.311,-0.05 0.311,-0.03C0.311,-0.02 0.313,-0.011 0.317,-0.003C0.324,0.009 0.343,0.012 0.361,0.012C0.371,0.012 0.382,0.01 0.389,0.009C0.414,0.007 0.426,-0.002 0.426,-0.023C0.426,-0.026 0.425,-0.029 0.425,-0.032C0.421,-0.067 0.422,-0.101 0.42,-0.136C0.419,-0.153 0.417,-0.168 0.417,-0.185C0.417,-0.19 0.417,-0.195 0.418,-0.201C0.419,-0.211 0.419,-0.221 0.419,-0.231C0.419,-0.256 0.416,-0.281 0.408,-0.306C0.395,-0.347 0.383,-0.362 0.346,-0.383C0.328,-0.393 0.309,-0.396 0.289,-0.396C0.279,-0.396 0.268,-0.396 0.258,-0.394C0.241,-0.391 0.227,-0.386 0.213,-0.378C0.203,-0.372 0.186,-0.35 0.176,-0.348C0.174,-0.348 0.172,-0.347 0.171,-0.347C0.166,-0.347 0.164,-0.352 0.164,-0.358C0.164,-0.361 0.165,-0.365 0.165,-0.369C0.165,-0.374 0.164,-0.379 0.161,-0.383C0.155,-0.391 0.136,-0.392 0.121,-0.392C0.11,-0.392 0.101,-0.391 0.095,-0.391Z" style="fill-rule:nonzero;"/>
                    </g>
                    <g transform="matrix(80,0,0,80,698.28,162.56)">
                        <path d="M0.136,-0.388C0.111,-0.381 0.087,-0.371 0.069,-0.355C0.05,-0.337 0.037,-0.315 0.037,-0.286C0.037,-0.281 0.037,-0.277 0.038,-0.273C0.042,-0.226 0.078,-0.194 0.117,-0.173C0.141,-0.16 0.216,-0.148 0.216,-0.111C0.216,-0.108 0.215,-0.105 0.214,-0.101C0.208,-0.083 0.188,-0.076 0.169,-0.076C0.156,-0.076 0.143,-0.079 0.133,-0.084C0.117,-0.091 0.115,-0.108 0.096,-0.111C0.093,-0.112 0.09,-0.112 0.086,-0.112C0.075,-0.112 0.063,-0.109 0.054,-0.103C0.038,-0.095 0.024,-0.079 0.024,-0.062C0.024,-0.056 0.026,-0.049 0.032,-0.043C0.041,-0.032 0.062,-0.023 0.076,-0.016C0.09,-0.007 0.108,-0.002 0.124,0.002C0.136,0.005 0.151,0.008 0.167,0.008C0.186,0.008 0.206,0.005 0.221,-0C0.276,-0.016 0.302,-0.062 0.302,-0.113C0.302,-0.126 0.301,-0.141 0.297,-0.154C0.285,-0.201 0.232,-0.22 0.193,-0.24C0.173,-0.25 0.129,-0.263 0.129,-0.288C0.129,-0.293 0.131,-0.298 0.134,-0.304C0.141,-0.314 0.15,-0.317 0.16,-0.317C0.168,-0.317 0.177,-0.315 0.186,-0.312C0.199,-0.308 0.212,-0.295 0.226,-0.293C0.246,-0.293 0.263,-0.312 0.272,-0.326C0.276,-0.331 0.278,-0.337 0.278,-0.342C0.278,-0.354 0.268,-0.364 0.256,-0.373C0.246,-0.38 0.23,-0.388 0.218,-0.391C0.213,-0.392 0.207,-0.392 0.202,-0.392L0.192,-0.392C0.185,-0.392 0.178,-0.393 0.171,-0.393C0.159,-0.393 0.148,-0.391 0.136,-0.388Z" style="fill-rule:nonzero;"/>
                    </g>
                    <g transform="matrix(80,0,0,80,724.76,162.56)">
                        <path d="M0.426,-0.294C0.405,-0.331 0.381,-0.357 0.344,-0.378C0.316,-0.394 0.283,-0.401 0.25,-0.401C0.183,-0.401 0.114,-0.371 0.081,-0.318C0.056,-0.278 0.044,-0.23 0.044,-0.181C0.044,-0.166 0.045,-0.152 0.047,-0.138C0.061,-0.041 0.162,0.016 0.256,0.016C0.286,0.016 0.315,0.01 0.341,-0.001C0.417,-0.036 0.451,-0.111 0.451,-0.19C0.451,-0.205 0.45,-0.219 0.447,-0.234C0.445,-0.256 0.437,-0.275 0.426,-0.294ZM0.132,-0.193C0.132,-0.197 0.132,-0.201 0.133,-0.205C0.141,-0.266 0.194,-0.305 0.249,-0.305C0.276,-0.305 0.302,-0.296 0.325,-0.276C0.347,-0.255 0.365,-0.224 0.365,-0.192C0.365,-0.188 0.365,-0.184 0.364,-0.18C0.357,-0.14 0.331,-0.1 0.295,-0.081C0.281,-0.075 0.267,-0.071 0.252,-0.071C0.247,-0.071 0.241,-0.072 0.236,-0.073C0.214,-0.076 0.207,-0.08 0.192,-0.092C0.191,-0.093 0.19,-0.095 0.188,-0.096C0.171,-0.111 0.156,-0.121 0.145,-0.141C0.137,-0.158 0.132,-0.176 0.132,-0.193Z" style="fill-rule:nonzero;"/>
                    </g>
                    <g transform="matrix(80,0,0,80,764.52,162.56)">
                        <path d="M0.095,-0.391C0.074,-0.389 0.071,-0.378 0.071,-0.357C0.071,-0.325 0.075,-0.291 0.076,-0.26C0.077,-0.238 0.077,-0.216 0.077,-0.194C0.077,-0.152 0.076,-0.11 0.072,-0.069C0.071,-0.057 0.066,-0.04 0.066,-0.026C0.066,-0.017 0.067,-0.011 0.071,-0.006C0.079,0.006 0.096,0.01 0.113,0.01C0.131,0.01 0.149,0.006 0.161,0.002C0.177,-0.005 0.182,-0.017 0.182,-0.031C0.182,-0.043 0.178,-0.057 0.176,-0.07C0.171,-0.102 0.171,-0.134 0.171,-0.166L0.171,-0.191C0.171,-0.227 0.173,-0.256 0.203,-0.281C0.218,-0.293 0.242,-0.303 0.265,-0.303C0.277,-0.303 0.291,-0.3 0.3,-0.291C0.321,-0.272 0.327,-0.238 0.327,-0.203C0.327,-0.163 0.319,-0.119 0.318,-0.09C0.317,-0.073 0.311,-0.05 0.311,-0.03C0.311,-0.02 0.313,-0.011 0.317,-0.003C0.324,0.009 0.343,0.012 0.361,0.012C0.371,0.012 0.382,0.01 0.389,0.009C0.414,0.007 0.426,-0.002 0.426,-0.023C0.426,-0.026 0.425,-0.029 0.425,-0.032C0.421,-0.067 0.422,-0.101 0.42,-0.136C0.419,-0.153 0.417,-0.168 0.417,-0.185C0.417,-0.19 0.417,-0.195 0.418,-0.201C0.419,-0.211 0.419,-0.221 0.419,-0.231C0.419,-0.256 0.416,-0.281 0.408,-0.306C0.395,-0.347 0.383,-0.362 0.346,-0.383C0.328,-0.393 0.309,-0.396 0.289,-0.396C0.279,-0.396 0.268,-0.396 0.258,-0.394C0.241,-0.391 0.227,-0.386 0.213,-0.378C0.203,-0.372 0.186,-0.35 0.176,-0.348C0.174,-0.348 0.172,-0.347 0.171,-0.347C0.166,-0.347 0.164,-0.352 0.164,-0.358C0.164,-0.361 0.165,-0.365 0.165,-0.369C0.165,-0.374 0.164,-0.379 0.161,-0.383C0.155,-0.391 0.136,-0.392 0.121,-0.392C0.11,-0.392 0.101,-0.391 0.095,-0.391Z" style="fill-rule:nonzero;"/>
                    </g>
                </g>
            </g>
        </g>
    </g>
</svg>
