<?xml version="1.0" encoding="UTF-8" standalone="no"?>
<!DOCTYPE svg PUBLIC "-//W3C//DTD SVG 1.1//EN" "http://www.w3.org/Graphics/SVG/1.1/DTD/svg11.dtd">
<svg width="100%" height="100%" viewBox="0 0 1200 1200" version="1.1" xmlns="http://www.w3.org/2000/svg" xmlns:xlink="http://www.w3.org/1999/xlink" xml:space="preserve" xmlns:serif="http://www.serif.com/" style="fill-rule:evenodd;clip-rule:evenodd;stroke-linejoin:round;stroke-miterlimit:2;">
    <rect id="START" x="0" y="0" width="1200" height="1200" style="fill:none;"/>
    <g id="START1" serif:id="START">
        <g transform="matrix(1,0,0,1,10,5)">
            <a xlink:href="PRE-101.svg"><g id="Link-Ellipse" serif:id="Link Ellipse" transform="matrix(8,0,0,8,-7810,-7800)">
                <circle cx="1050" cy="1050" r="50" style="fill:#d5d5d5;"/>
				</g></a>
            <g transform="matrix(1,0,0,1,10,358.75)">
                <g transform="matrix(120,0,0,120,340.68,188.84)">
                    <path d="M0.441,-0.549C0.418,-0.562 0.397,-0.578 0.373,-0.582C0.344,-0.586 0.316,-0.593 0.291,-0.598C0.279,-0.601 0.267,-0.601 0.255,-0.601L0.191,-0.601C0.163,-0.604 0.134,-0.604 0.106,-0.606C0.099,-0.606 0.094,-0.607 0.089,-0.607C0.081,-0.607 0.075,-0.604 0.07,-0.591C0.068,-0.587 0.067,-0.583 0.067,-0.579C0.067,-0.568 0.071,-0.557 0.072,-0.547L0.072,-0.528C0.073,-0.521 0.074,-0.513 0.074,-0.506C0.074,-0.462 0.069,-0.418 0.069,-0.375C0.069,-0.367 0.07,-0.361 0.07,-0.354C0.072,-0.313 0.072,-0.269 0.072,-0.225L0.072,-0.161C0.072,-0.128 0.07,-0.095 0.07,-0.062L0.07,-0.051C0.07,-0.021 0.071,0.005 0.109,0.008C0.13,0.009 0.151,0.01 0.171,0.01C0.214,0.01 0.257,0.007 0.299,-0C0.357,-0.009 0.424,-0.027 0.47,-0.071C0.491,-0.091 0.509,-0.114 0.519,-0.141C0.529,-0.168 0.545,-0.19 0.552,-0.219C0.561,-0.253 0.567,-0.288 0.567,-0.323C0.567,-0.349 0.564,-0.375 0.556,-0.401C0.537,-0.458 0.496,-0.52 0.441,-0.549ZM0.181,-0.362C0.181,-0.373 0.181,-0.385 0.18,-0.396C0.178,-0.408 0.176,-0.42 0.176,-0.431C0.174,-0.442 0.173,-0.451 0.173,-0.46C0.173,-0.487 0.182,-0.503 0.216,-0.503C0.22,-0.503 0.224,-0.502 0.229,-0.502C0.234,-0.501 0.238,-0.501 0.243,-0.501C0.256,-0.501 0.27,-0.503 0.282,-0.503C0.287,-0.503 0.291,-0.503 0.296,-0.502C0.31,-0.501 0.323,-0.491 0.336,-0.486C0.363,-0.475 0.386,-0.46 0.407,-0.439C0.439,-0.41 0.466,-0.362 0.466,-0.316C0.466,-0.306 0.465,-0.298 0.462,-0.289C0.458,-0.273 0.451,-0.258 0.447,-0.242C0.444,-0.228 0.442,-0.214 0.436,-0.201C0.422,-0.173 0.401,-0.154 0.375,-0.138C0.346,-0.121 0.319,-0.111 0.289,-0.106C0.267,-0.102 0.242,-0.09 0.22,-0.09C0.215,-0.09 0.21,-0.091 0.205,-0.092C0.181,-0.1 0.176,-0.117 0.176,-0.136C0.176,-0.146 0.177,-0.155 0.177,-0.164L0.177,-0.18C0.177,-0.202 0.176,-0.223 0.176,-0.246L0.176,-0.254C0.176,-0.285 0.18,-0.319 0.181,-0.35L0.181,-0.362Z" style="fill-rule:nonzero;"/>
                </g>
                <g transform="matrix(120,0,0,120,416.4,188.84)">
                    <path d="M0.041,-0.54C0.041,-0.528 0.043,-0.516 0.05,-0.506C0.064,-0.482 0.088,-0.472 0.112,-0.472C0.149,-0.472 0.186,-0.496 0.194,-0.533C0.195,-0.536 0.195,-0.541 0.195,-0.544C0.195,-0.584 0.152,-0.621 0.112,-0.621C0.108,-0.621 0.103,-0.62 0.099,-0.619C0.065,-0.611 0.041,-0.575 0.041,-0.54ZM0.094,-0.384C0.085,-0.384 0.076,-0.381 0.071,-0.369C0.066,-0.361 0.066,-0.351 0.066,-0.341C0.066,-0.318 0.072,-0.293 0.073,-0.273C0.074,-0.249 0.075,-0.224 0.075,-0.2C0.075,-0.159 0.073,-0.118 0.069,-0.078C0.067,-0.066 0.065,-0.05 0.065,-0.036C0.065,-0.018 0.069,-0.004 0.087,-0C0.095,0.002 0.114,0.004 0.132,0.004C0.151,0.004 0.169,0.002 0.174,-0.004C0.18,-0.011 0.182,-0.022 0.182,-0.036C0.182,-0.056 0.177,-0.08 0.176,-0.091C0.174,-0.121 0.172,-0.157 0.172,-0.183C0.173,-0.219 0.177,-0.256 0.177,-0.291L0.177,-0.311C0.177,-0.321 0.178,-0.331 0.178,-0.341C0.178,-0.351 0.177,-0.361 0.175,-0.369C0.171,-0.38 0.161,-0.382 0.15,-0.382C0.141,-0.382 0.131,-0.381 0.123,-0.381L0.119,-0.381C0.111,-0.381 0.102,-0.384 0.094,-0.384Z" style="fill-rule:nonzero;"/>
                </g>
                <g transform="matrix(120,0,0,120,445.8,188.84)">
                    <path d="M0.095,-0.391C0.074,-0.389 0.071,-0.378 0.071,-0.357C0.071,-0.325 0.075,-0.291 0.076,-0.26C0.077,-0.238 0.077,-0.216 0.077,-0.194C0.077,-0.152 0.076,-0.11 0.072,-0.069C0.071,-0.057 0.066,-0.04 0.066,-0.026C0.066,-0.017 0.067,-0.011 0.071,-0.006C0.079,0.006 0.096,0.01 0.113,0.01C0.131,0.01 0.149,0.006 0.161,0.002C0.177,-0.005 0.182,-0.017 0.182,-0.031C0.182,-0.043 0.178,-0.057 0.176,-0.07C0.171,-0.102 0.171,-0.134 0.171,-0.166L0.171,-0.191C0.171,-0.227 0.173,-0.256 0.203,-0.281C0.218,-0.293 0.242,-0.303 0.265,-0.303C0.277,-0.303 0.291,-0.3 0.3,-0.291C0.321,-0.272 0.327,-0.238 0.327,-0.203C0.327,-0.163 0.319,-0.119 0.318,-0.09C0.317,-0.073 0.311,-0.05 0.311,-0.03C0.311,-0.02 0.313,-0.011 0.317,-0.003C0.324,0.009 0.343,0.012 0.361,0.012C0.371,0.012 0.382,0.01 0.389,0.009C0.414,0.007 0.426,-0.002 0.426,-0.023C0.426,-0.026 0.425,-0.029 0.425,-0.032C0.421,-0.067 0.422,-0.101 0.42,-0.136C0.419,-0.153 0.417,-0.168 0.417,-0.185C0.417,-0.19 0.417,-0.195 0.418,-0.201C0.419,-0.211 0.419,-0.221 0.419,-0.231C0.419,-0.256 0.416,-0.281 0.408,-0.306C0.395,-0.347 0.383,-0.362 0.346,-0.383C0.328,-0.393 0.309,-0.396 0.289,-0.396C0.279,-0.396 0.268,-0.396 0.258,-0.394C0.241,-0.391 0.227,-0.386 0.213,-0.378C0.203,-0.372 0.186,-0.35 0.176,-0.348C0.174,-0.348 0.172,-0.347 0.171,-0.347C0.166,-0.347 0.164,-0.352 0.164,-0.358C0.164,-0.361 0.165,-0.365 0.165,-0.369C0.165,-0.374 0.164,-0.379 0.161,-0.383C0.155,-0.391 0.136,-0.392 0.121,-0.392C0.11,-0.392 0.101,-0.391 0.095,-0.391Z" style="fill-rule:nonzero;"/>
                </g>
                <g transform="matrix(120,0,0,120,503.88,188.84)">
                    <path d="M0.291,-0.561C0.317,-0.591 0.346,-0.609 0.379,-0.641C0.386,-0.647 0.39,-0.652 0.39,-0.656C0.39,-0.666 0.368,-0.669 0.334,-0.671L0.324,-0.671C0.281,-0.671 0.274,-0.656 0.261,-0.632C0.246,-0.604 0.183,-0.516 0.141,-0.476C0.138,-0.473 0.137,-0.47 0.137,-0.466C0.137,-0.455 0.151,-0.444 0.16,-0.443L0.163,-0.443C0.18,-0.443 0.185,-0.449 0.192,-0.458L0.195,-0.461C0.21,-0.48 0.221,-0.494 0.242,-0.516C0.258,-0.531 0.279,-0.547 0.291,-0.561ZM0.26,-0.4C0.229,-0.4 0.2,-0.388 0.171,-0.381C0.14,-0.373 0.111,-0.359 0.088,-0.333C0.055,-0.295 0.046,-0.251 0.046,-0.206C0.046,-0.19 0.047,-0.173 0.049,-0.156C0.056,-0.088 0.086,-0.043 0.145,-0.007C0.176,0.012 0.205,0.021 0.236,0.021C0.261,0.021 0.286,0.015 0.313,0.004C0.346,-0.01 0.387,-0.024 0.411,-0.052C0.415,-0.058 0.417,-0.064 0.417,-0.07C0.417,-0.093 0.387,-0.116 0.363,-0.116C0.359,-0.116 0.356,-0.115 0.352,-0.114C0.327,-0.104 0.313,-0.078 0.286,-0.072C0.28,-0.071 0.273,-0.071 0.266,-0.071L0.243,-0.071C0.216,-0.071 0.188,-0.076 0.169,-0.097C0.158,-0.109 0.146,-0.131 0.146,-0.148C0.146,-0.151 0.146,-0.154 0.147,-0.157C0.151,-0.173 0.166,-0.176 0.181,-0.176C0.195,-0.176 0.209,-0.174 0.22,-0.174C0.231,-0.174 0.238,-0.175 0.246,-0.175C0.29,-0.175 0.334,-0.17 0.378,-0.17L0.386,-0.17C0.416,-0.17 0.432,-0.171 0.432,-0.197C0.432,-0.201 0.432,-0.206 0.431,-0.211C0.427,-0.243 0.426,-0.273 0.41,-0.302C0.381,-0.355 0.321,-0.4 0.26,-0.4ZM0.166,-0.295C0.168,-0.298 0.171,-0.301 0.174,-0.303C0.191,-0.316 0.216,-0.324 0.241,-0.324C0.274,-0.324 0.307,-0.311 0.321,-0.283C0.323,-0.278 0.325,-0.271 0.325,-0.265C0.325,-0.256 0.322,-0.246 0.317,-0.241C0.308,-0.233 0.286,-0.235 0.274,-0.234L0.266,-0.234C0.246,-0.234 0.227,-0.236 0.207,-0.236C0.18,-0.236 0.151,-0.245 0.151,-0.266C0.151,-0.273 0.156,-0.283 0.166,-0.295Z" style="fill-rule:nonzero;"/>
                </g>
                <g transform="matrix(120,0,0,120,591,188.84)">
                    <path d="M0.445,-0.574C0.445,-0.59 0.44,-0.602 0.42,-0.603C0.402,-0.604 0.385,-0.605 0.367,-0.605C0.345,-0.605 0.321,-0.604 0.298,-0.604C0.284,-0.604 0.27,-0.604 0.256,-0.605C0.246,-0.605 0.237,-0.606 0.227,-0.606C0.205,-0.606 0.182,-0.604 0.16,-0.603C0.129,-0.601 0.101,-0.601 0.07,-0.601L0.059,-0.601C0.047,-0.601 0.039,-0.599 0.033,-0.586C0.031,-0.582 0.031,-0.578 0.031,-0.573C0.031,-0.562 0.034,-0.548 0.035,-0.54C0.037,-0.509 0.049,-0.502 0.07,-0.502C0.078,-0.502 0.088,-0.503 0.1,-0.505C0.112,-0.506 0.129,-0.51 0.144,-0.51C0.16,-0.51 0.175,-0.506 0.181,-0.493C0.186,-0.485 0.187,-0.474 0.187,-0.462C0.187,-0.443 0.183,-0.421 0.183,-0.406C0.183,-0.341 0.187,-0.279 0.187,-0.218C0.187,-0.171 0.179,-0.121 0.179,-0.075C0.179,-0.061 0.18,-0.047 0.181,-0.035C0.183,-0.021 0.179,0.001 0.193,0.009C0.196,0.01 0.2,0.011 0.204,0.011C0.216,0.011 0.233,0.006 0.242,0.004L0.246,0.004C0.255,0.004 0.266,0.007 0.276,0.007C0.28,0.007 0.284,0.006 0.287,0.005C0.305,-0 0.306,-0.018 0.306,-0.034L0.306,-0.053C0.306,-0.105 0.299,-0.154 0.299,-0.21C0.298,-0.271 0.295,-0.334 0.295,-0.397C0.295,-0.412 0.296,-0.426 0.296,-0.442C0.296,-0.453 0.293,-0.466 0.293,-0.478C0.293,-0.482 0.294,-0.486 0.295,-0.49C0.3,-0.506 0.321,-0.509 0.341,-0.509C0.354,-0.509 0.366,-0.507 0.375,-0.507C0.384,-0.506 0.393,-0.506 0.401,-0.506C0.422,-0.506 0.437,-0.511 0.441,-0.541C0.442,-0.551 0.445,-0.564 0.445,-0.574Z" style="fill-rule:nonzero;"/>
                </g>
                <g transform="matrix(120,0,0,120,635.64,188.84)">
                    <path d="M0.136,-0.388C0.111,-0.381 0.087,-0.371 0.069,-0.355C0.05,-0.337 0.037,-0.315 0.037,-0.286C0.037,-0.281 0.037,-0.277 0.038,-0.273C0.042,-0.226 0.078,-0.194 0.117,-0.173C0.141,-0.16 0.216,-0.148 0.216,-0.111C0.216,-0.108 0.215,-0.105 0.214,-0.101C0.208,-0.083 0.188,-0.076 0.169,-0.076C0.156,-0.076 0.143,-0.079 0.133,-0.084C0.117,-0.091 0.115,-0.108 0.096,-0.111C0.093,-0.112 0.09,-0.112 0.086,-0.112C0.075,-0.112 0.063,-0.109 0.054,-0.103C0.038,-0.095 0.024,-0.079 0.024,-0.062C0.024,-0.056 0.026,-0.049 0.032,-0.043C0.041,-0.032 0.062,-0.023 0.076,-0.016C0.09,-0.007 0.108,-0.002 0.124,0.002C0.136,0.005 0.151,0.008 0.167,0.008C0.186,0.008 0.206,0.005 0.221,-0C0.276,-0.016 0.302,-0.062 0.302,-0.113C0.302,-0.126 0.301,-0.141 0.297,-0.154C0.285,-0.201 0.232,-0.22 0.193,-0.24C0.173,-0.25 0.129,-0.263 0.129,-0.288C0.129,-0.293 0.131,-0.298 0.134,-0.304C0.141,-0.314 0.15,-0.317 0.16,-0.317C0.168,-0.317 0.177,-0.315 0.186,-0.312C0.199,-0.308 0.212,-0.295 0.226,-0.293C0.246,-0.293 0.263,-0.312 0.272,-0.326C0.276,-0.331 0.278,-0.337 0.278,-0.342C0.278,-0.354 0.268,-0.364 0.256,-0.373C0.246,-0.38 0.23,-0.388 0.218,-0.391C0.213,-0.392 0.207,-0.392 0.202,-0.392L0.192,-0.392C0.185,-0.392 0.178,-0.393 0.171,-0.393C0.159,-0.393 0.148,-0.391 0.136,-0.388Z" style="fill-rule:nonzero;"/>
                </g>
                <g transform="matrix(120,0,0,120,675.36,188.84)">
                    <path d="M0.15,-0.606L0.146,-0.603C0.132,-0.594 0.129,-0.577 0.123,-0.561C0.112,-0.533 0.101,-0.506 0.087,-0.478C0.073,-0.449 0.054,-0.418 0.043,-0.388C0.04,-0.38 0.036,-0.371 0.036,-0.363C0.036,-0.358 0.037,-0.353 0.041,-0.349C0.046,-0.344 0.052,-0.343 0.059,-0.343C0.068,-0.343 0.078,-0.346 0.086,-0.347C0.118,-0.353 0.124,-0.372 0.133,-0.401C0.133,-0.402 0.134,-0.403 0.134,-0.404C0.134,-0.405 0.135,-0.406 0.135,-0.407C0.142,-0.431 0.15,-0.456 0.161,-0.478C0.171,-0.494 0.206,-0.556 0.206,-0.587C0.206,-0.594 0.205,-0.6 0.201,-0.603C0.197,-0.607 0.186,-0.609 0.176,-0.609C0.165,-0.609 0.155,-0.607 0.15,-0.606Z" style="fill-rule:nonzero;"/>
                </g>
                <g transform="matrix(120,0,0,120,705,188.84)">
                    <path d="M0.131,-0.381C0.104,-0.368 0.082,-0.343 0.068,-0.316C0.046,-0.277 0.036,-0.231 0.036,-0.186C0.036,-0.166 0.038,-0.145 0.042,-0.126C0.055,-0.066 0.103,-0.016 0.157,0.004C0.181,0.012 0.209,0.019 0.236,0.019C0.268,0.019 0.3,0.009 0.322,-0.014C0.333,-0.025 0.341,-0.057 0.354,-0.057C0.358,-0.057 0.363,-0.054 0.369,-0.046C0.377,-0.034 0.371,-0.015 0.381,-0.005C0.385,-0 0.396,0.002 0.41,0.002C0.431,0.002 0.455,-0.003 0.46,-0.011C0.461,-0.014 0.462,-0.019 0.462,-0.025C0.462,-0.04 0.459,-0.059 0.459,-0.068L0.459,-0.084C0.459,-0.107 0.456,-0.131 0.454,-0.155C0.451,-0.176 0.451,-0.199 0.451,-0.221C0.451,-0.253 0.452,-0.286 0.454,-0.316C0.454,-0.326 0.457,-0.34 0.457,-0.352C0.457,-0.361 0.456,-0.369 0.451,-0.375C0.442,-0.384 0.423,-0.386 0.406,-0.386C0.396,-0.386 0.386,-0.386 0.38,-0.385C0.365,-0.384 0.363,-0.376 0.363,-0.37L0.363,-0.361C0.363,-0.353 0.361,-0.348 0.348,-0.348C0.327,-0.348 0.311,-0.376 0.295,-0.385C0.276,-0.394 0.251,-0.4 0.231,-0.401L0.224,-0.401C0.196,-0.401 0.154,-0.393 0.131,-0.381ZM0.15,-0.216C0.155,-0.246 0.17,-0.271 0.192,-0.287C0.207,-0.299 0.226,-0.306 0.247,-0.306C0.251,-0.306 0.256,-0.306 0.261,-0.305C0.285,-0.302 0.313,-0.287 0.33,-0.271C0.349,-0.251 0.359,-0.221 0.359,-0.192C0.359,-0.163 0.349,-0.134 0.329,-0.114C0.309,-0.094 0.274,-0.081 0.241,-0.081C0.227,-0.081 0.214,-0.084 0.202,-0.09C0.166,-0.108 0.148,-0.154 0.148,-0.194C0.148,-0.201 0.148,-0.209 0.15,-0.216Z" style="fill-rule:nonzero;"/>
                </g>
                <g transform="matrix(120,0,0,120,767.16,188.84)">
                    <path d="M0.305,-0.561C0.331,-0.591 0.36,-0.609 0.393,-0.641C0.4,-0.647 0.404,-0.652 0.404,-0.656C0.404,-0.666 0.382,-0.669 0.348,-0.671L0.338,-0.671C0.295,-0.671 0.288,-0.656 0.275,-0.632C0.26,-0.604 0.197,-0.516 0.155,-0.476C0.152,-0.473 0.151,-0.47 0.151,-0.466C0.151,-0.455 0.165,-0.444 0.174,-0.443L0.177,-0.443C0.194,-0.443 0.199,-0.449 0.206,-0.458L0.209,-0.461C0.224,-0.48 0.235,-0.494 0.256,-0.516C0.272,-0.531 0.293,-0.547 0.305,-0.561ZM0.131,-0.381C0.104,-0.368 0.082,-0.343 0.068,-0.316C0.046,-0.277 0.036,-0.231 0.036,-0.186C0.036,-0.166 0.038,-0.145 0.042,-0.126C0.055,-0.066 0.103,-0.016 0.157,0.004C0.181,0.012 0.209,0.019 0.236,0.019C0.268,0.019 0.3,0.009 0.322,-0.014C0.333,-0.025 0.341,-0.057 0.354,-0.057C0.358,-0.057 0.363,-0.054 0.369,-0.046C0.377,-0.034 0.371,-0.015 0.381,-0.005C0.385,-0 0.396,0.002 0.41,0.002C0.431,0.002 0.455,-0.003 0.46,-0.011C0.461,-0.014 0.462,-0.019 0.462,-0.025C0.462,-0.04 0.459,-0.059 0.459,-0.068L0.459,-0.084C0.459,-0.107 0.456,-0.131 0.454,-0.155C0.451,-0.176 0.451,-0.199 0.451,-0.221C0.451,-0.253 0.452,-0.286 0.454,-0.316C0.454,-0.326 0.457,-0.34 0.457,-0.352C0.457,-0.361 0.456,-0.369 0.451,-0.375C0.442,-0.384 0.423,-0.386 0.406,-0.386C0.396,-0.386 0.386,-0.386 0.38,-0.385C0.365,-0.384 0.363,-0.376 0.363,-0.37L0.363,-0.361C0.363,-0.353 0.361,-0.348 0.348,-0.348C0.327,-0.348 0.311,-0.376 0.295,-0.385C0.276,-0.394 0.251,-0.4 0.231,-0.401L0.224,-0.401C0.196,-0.401 0.154,-0.393 0.131,-0.381ZM0.15,-0.216C0.155,-0.246 0.17,-0.271 0.192,-0.287C0.207,-0.299 0.226,-0.306 0.247,-0.306C0.251,-0.306 0.256,-0.306 0.261,-0.305C0.285,-0.302 0.313,-0.287 0.33,-0.271C0.349,-0.251 0.359,-0.221 0.359,-0.192C0.359,-0.163 0.349,-0.134 0.329,-0.114C0.309,-0.094 0.274,-0.081 0.241,-0.081C0.227,-0.081 0.214,-0.084 0.202,-0.09C0.166,-0.108 0.148,-0.154 0.148,-0.194C0.148,-0.201 0.148,-0.209 0.15,-0.216Z" style="fill-rule:nonzero;"/>
                </g>
            </g>
            <g transform="matrix(1,0,0,1,15,610)">
                <g transform="matrix(42.6667,0,0,42.6667,395.688,138.032)">
                    <path d="M0.041,-0.54C0.041,-0.528 0.043,-0.516 0.05,-0.506C0.064,-0.482 0.088,-0.472 0.112,-0.472C0.149,-0.472 0.186,-0.496 0.194,-0.533C0.195,-0.536 0.195,-0.541 0.195,-0.544C0.195,-0.584 0.152,-0.621 0.112,-0.621C0.108,-0.621 0.103,-0.62 0.099,-0.619C0.065,-0.611 0.041,-0.575 0.041,-0.54ZM0.094,-0.384C0.085,-0.384 0.076,-0.381 0.071,-0.369C0.066,-0.361 0.066,-0.351 0.066,-0.341C0.066,-0.318 0.072,-0.293 0.073,-0.273C0.074,-0.249 0.075,-0.224 0.075,-0.2C0.075,-0.159 0.073,-0.118 0.069,-0.078C0.067,-0.066 0.065,-0.05 0.065,-0.036C0.065,-0.018 0.069,-0.004 0.087,-0C0.095,0.002 0.114,0.004 0.132,0.004C0.151,0.004 0.169,0.002 0.174,-0.004C0.18,-0.011 0.182,-0.022 0.182,-0.036C0.182,-0.056 0.177,-0.08 0.176,-0.091C0.174,-0.121 0.172,-0.157 0.172,-0.183C0.173,-0.219 0.177,-0.256 0.177,-0.291L0.177,-0.311C0.177,-0.321 0.178,-0.331 0.178,-0.341C0.178,-0.351 0.177,-0.361 0.175,-0.369C0.171,-0.38 0.161,-0.382 0.15,-0.382C0.141,-0.382 0.131,-0.381 0.123,-0.381L0.119,-0.381C0.111,-0.381 0.102,-0.384 0.094,-0.384Z" style="fill-rule:nonzero;"/>
                </g>
                <g transform="matrix(42.6667,0,0,42.6667,406.141,138.032)">
                    <path d="M0.081,-0.391C0.078,-0.387 0.074,-0.382 0.072,-0.377C0.071,-0.373 0.07,-0.369 0.07,-0.364C0.07,-0.354 0.073,-0.343 0.075,-0.332C0.075,-0.323 0.076,-0.316 0.076,-0.308L0.076,-0.262C0.076,-0.205 0.069,-0.146 0.069,-0.088L0.069,-0.081C0.069,-0.068 0.066,-0.053 0.066,-0.039C0.066,-0.021 0.071,-0.004 0.09,0.002C0.098,0.004 0.116,0.007 0.133,0.007C0.153,0.007 0.174,0.004 0.18,-0.004C0.185,-0.011 0.186,-0.022 0.186,-0.035C0.186,-0.058 0.181,-0.086 0.18,-0.1C0.178,-0.116 0.177,-0.131 0.177,-0.148C0.177,-0.164 0.178,-0.181 0.178,-0.197C0.178,-0.21 0.177,-0.223 0.177,-0.236C0.177,-0.256 0.179,-0.275 0.191,-0.29C0.203,-0.303 0.222,-0.312 0.241,-0.312C0.253,-0.312 0.265,-0.309 0.274,-0.301C0.296,-0.284 0.295,-0.239 0.297,-0.213C0.299,-0.196 0.3,-0.181 0.3,-0.165C0.3,-0.148 0.299,-0.132 0.297,-0.116C0.295,-0.095 0.292,-0.073 0.292,-0.051C0.292,-0.047 0.293,-0.042 0.293,-0.037C0.295,-0.006 0.307,-0.001 0.329,-0.001C0.335,-0.001 0.341,-0.002 0.347,-0.002C0.356,-0.002 0.366,-0 0.373,-0C0.381,-0 0.387,-0.002 0.393,-0.011C0.398,-0.018 0.4,-0.025 0.4,-0.031C0.4,-0.042 0.395,-0.053 0.391,-0.066C0.389,-0.076 0.389,-0.086 0.389,-0.096L0.389,-0.126C0.388,-0.135 0.388,-0.144 0.388,-0.153C0.388,-0.163 0.388,-0.172 0.389,-0.182C0.391,-0.224 0.397,-0.311 0.451,-0.311C0.458,-0.311 0.465,-0.31 0.473,-0.307C0.518,-0.292 0.526,-0.242 0.526,-0.195C0.526,-0.171 0.524,-0.149 0.524,-0.131C0.524,-0.097 0.517,-0.064 0.514,-0.03L0.514,-0.026C0.514,-0.003 0.536,0.004 0.56,0.004C0.578,0.004 0.597,-0.001 0.608,-0.006C0.623,-0.012 0.627,-0.022 0.627,-0.033C0.627,-0.046 0.621,-0.061 0.62,-0.075C0.616,-0.109 0.614,-0.147 0.614,-0.182C0.614,-0.196 0.615,-0.211 0.615,-0.226L0.615,-0.282C0.615,-0.302 0.613,-0.322 0.605,-0.342C0.587,-0.384 0.551,-0.403 0.511,-0.403C0.493,-0.403 0.475,-0.399 0.457,-0.391C0.436,-0.38 0.417,-0.351 0.395,-0.345C0.393,-0.344 0.391,-0.344 0.389,-0.344C0.37,-0.344 0.348,-0.372 0.331,-0.382C0.314,-0.393 0.297,-0.4 0.279,-0.4C0.271,-0.4 0.264,-0.398 0.256,-0.396C0.231,-0.39 0.211,-0.367 0.186,-0.367C0.18,-0.367 0.174,-0.369 0.167,-0.371C0.154,-0.377 0.146,-0.387 0.132,-0.391C0.128,-0.391 0.109,-0.393 0.095,-0.393C0.087,-0.393 0.081,-0.393 0.081,-0.391Z" style="fill-rule:nonzero;"/>
                </g>
                <g transform="matrix(42.6667,0,0,42.6667,435.155,138.032)">
                    <path d="M0.131,-0.381C0.104,-0.368 0.082,-0.343 0.068,-0.316C0.046,-0.277 0.036,-0.231 0.036,-0.186C0.036,-0.166 0.038,-0.145 0.042,-0.126C0.055,-0.066 0.103,-0.016 0.157,0.004C0.181,0.012 0.209,0.019 0.236,0.019C0.268,0.019 0.3,0.009 0.322,-0.014C0.333,-0.025 0.341,-0.057 0.354,-0.057C0.358,-0.057 0.363,-0.054 0.369,-0.046C0.377,-0.034 0.371,-0.015 0.381,-0.005C0.385,-0 0.396,0.002 0.41,0.002C0.431,0.002 0.455,-0.003 0.46,-0.011C0.461,-0.014 0.462,-0.019 0.462,-0.025C0.462,-0.04 0.459,-0.059 0.459,-0.068L0.459,-0.084C0.459,-0.107 0.456,-0.131 0.454,-0.155C0.451,-0.176 0.451,-0.199 0.451,-0.221C0.451,-0.253 0.452,-0.286 0.454,-0.316C0.454,-0.326 0.457,-0.34 0.457,-0.352C0.457,-0.361 0.456,-0.369 0.451,-0.375C0.442,-0.384 0.423,-0.386 0.406,-0.386C0.396,-0.386 0.386,-0.386 0.38,-0.385C0.365,-0.384 0.363,-0.376 0.363,-0.37L0.363,-0.361C0.363,-0.353 0.361,-0.348 0.348,-0.348C0.327,-0.348 0.311,-0.376 0.295,-0.385C0.276,-0.394 0.251,-0.4 0.231,-0.401L0.224,-0.401C0.196,-0.401 0.154,-0.393 0.131,-0.381ZM0.15,-0.216C0.155,-0.246 0.17,-0.271 0.192,-0.287C0.207,-0.299 0.226,-0.306 0.247,-0.306C0.251,-0.306 0.256,-0.306 0.261,-0.305C0.285,-0.302 0.313,-0.287 0.33,-0.271C0.349,-0.251 0.359,-0.221 0.359,-0.192C0.359,-0.163 0.349,-0.134 0.329,-0.114C0.309,-0.094 0.274,-0.081 0.241,-0.081C0.227,-0.081 0.214,-0.084 0.202,-0.09C0.166,-0.108 0.148,-0.154 0.148,-0.194C0.148,-0.201 0.148,-0.209 0.15,-0.216Z" style="fill-rule:nonzero;"/>
                </g>
                <g transform="matrix(42.6667,0,0,42.6667,457.256,138.032)">
                    <path d="M0.346,-0.34C0.331,-0.34 0.324,-0.357 0.316,-0.365C0.295,-0.386 0.261,-0.395 0.226,-0.395C0.193,-0.395 0.159,-0.386 0.135,-0.371C0.107,-0.355 0.082,-0.338 0.068,-0.309C0.051,-0.273 0.043,-0.229 0.043,-0.186C0.043,-0.166 0.045,-0.146 0.049,-0.126C0.059,-0.081 0.1,-0.032 0.141,-0.009C0.159,0.002 0.189,0.006 0.215,0.006C0.226,0.006 0.237,0.005 0.246,0.004C0.277,-0.001 0.3,-0.024 0.328,-0.031C0.331,-0.032 0.334,-0.032 0.336,-0.032C0.346,-0.032 0.354,-0.028 0.356,-0.016L0.356,-0.011C0.356,0.003 0.344,0.015 0.341,0.028C0.336,0.041 0.338,0.054 0.331,0.065C0.316,0.089 0.288,0.097 0.262,0.101C0.257,0.102 0.252,0.102 0.248,0.102C0.226,0.102 0.209,0.094 0.193,0.078C0.178,0.063 0.173,0.042 0.149,0.039L0.14,0.039C0.13,0.039 0.119,0.041 0.109,0.041C0.105,0.041 0.1,0.04 0.096,0.039C0.086,0.037 0.079,0.033 0.072,0.033C0.066,0.033 0.061,0.037 0.056,0.049C0.052,0.054 0.051,0.061 0.051,0.067C0.051,0.085 0.061,0.105 0.072,0.118C0.09,0.136 0.117,0.158 0.139,0.171C0.168,0.189 0.192,0.189 0.225,0.189L0.259,0.189C0.31,0.189 0.36,0.186 0.399,0.149C0.415,0.133 0.429,0.115 0.438,0.096C0.454,0.065 0.457,0.036 0.457,0.005C0.457,-0.01 0.456,-0.026 0.456,-0.041C0.452,-0.098 0.454,-0.156 0.451,-0.213L0.451,-0.236C0.451,-0.26 0.452,-0.285 0.454,-0.309C0.454,-0.322 0.46,-0.341 0.46,-0.357C0.46,-0.371 0.455,-0.382 0.436,-0.383C0.425,-0.383 0.411,-0.386 0.398,-0.386C0.388,-0.386 0.378,-0.384 0.371,-0.379C0.357,-0.369 0.366,-0.34 0.346,-0.34ZM0.135,-0.201C0.136,-0.232 0.154,-0.258 0.179,-0.277C0.197,-0.291 0.225,-0.3 0.251,-0.3C0.261,-0.3 0.271,-0.298 0.28,-0.296C0.312,-0.287 0.353,-0.246 0.354,-0.211L0.354,-0.206C0.354,-0.174 0.346,-0.136 0.322,-0.113C0.297,-0.09 0.28,-0.081 0.248,-0.08L0.237,-0.08C0.207,-0.08 0.184,-0.086 0.161,-0.111C0.138,-0.134 0.135,-0.171 0.135,-0.201Z" style="fill-rule:nonzero;"/>
                </g>
                <g transform="matrix(42.6667,0,0,42.6667,479.784,138.032)">
                    <path d="M0.26,-0.4C0.229,-0.4 0.2,-0.388 0.171,-0.381C0.14,-0.373 0.111,-0.359 0.088,-0.333C0.055,-0.295 0.046,-0.251 0.046,-0.206C0.046,-0.19 0.047,-0.173 0.049,-0.156C0.056,-0.088 0.086,-0.043 0.145,-0.007C0.176,0.012 0.205,0.021 0.236,0.021C0.261,0.021 0.286,0.015 0.313,0.004C0.346,-0.01 0.387,-0.024 0.411,-0.052C0.415,-0.058 0.417,-0.064 0.417,-0.07C0.417,-0.093 0.387,-0.116 0.363,-0.116C0.359,-0.116 0.356,-0.115 0.352,-0.114C0.327,-0.104 0.313,-0.078 0.286,-0.072C0.28,-0.071 0.273,-0.071 0.266,-0.071L0.243,-0.071C0.216,-0.071 0.188,-0.076 0.169,-0.097C0.158,-0.109 0.146,-0.131 0.146,-0.148C0.146,-0.151 0.146,-0.154 0.147,-0.157C0.151,-0.173 0.166,-0.176 0.181,-0.176C0.195,-0.176 0.209,-0.174 0.22,-0.174C0.231,-0.174 0.238,-0.175 0.246,-0.175C0.29,-0.175 0.334,-0.17 0.378,-0.17L0.386,-0.17C0.416,-0.17 0.432,-0.171 0.432,-0.197C0.432,-0.201 0.432,-0.206 0.431,-0.211C0.427,-0.243 0.426,-0.273 0.41,-0.302C0.381,-0.355 0.321,-0.4 0.26,-0.4ZM0.166,-0.295C0.168,-0.298 0.171,-0.301 0.174,-0.303C0.191,-0.316 0.216,-0.324 0.241,-0.324C0.274,-0.324 0.307,-0.311 0.321,-0.283C0.323,-0.278 0.325,-0.271 0.325,-0.265C0.325,-0.256 0.322,-0.246 0.317,-0.241C0.308,-0.233 0.286,-0.235 0.274,-0.234L0.266,-0.234C0.246,-0.234 0.227,-0.236 0.207,-0.236C0.18,-0.236 0.151,-0.245 0.151,-0.266C0.151,-0.273 0.156,-0.283 0.166,-0.295Z" style="fill-rule:nonzero;"/>
                </g>
                <g transform="matrix(42.6667,0,0,42.6667,500.093,138.032)">
                    <path d="M0.136,-0.388C0.111,-0.381 0.087,-0.371 0.069,-0.355C0.05,-0.337 0.037,-0.315 0.037,-0.286C0.037,-0.281 0.037,-0.277 0.038,-0.273C0.042,-0.226 0.078,-0.194 0.117,-0.173C0.141,-0.16 0.216,-0.148 0.216,-0.111C0.216,-0.108 0.215,-0.105 0.214,-0.101C0.208,-0.083 0.188,-0.076 0.169,-0.076C0.156,-0.076 0.143,-0.079 0.133,-0.084C0.117,-0.091 0.115,-0.108 0.096,-0.111C0.093,-0.112 0.09,-0.112 0.086,-0.112C0.075,-0.112 0.063,-0.109 0.054,-0.103C0.038,-0.095 0.024,-0.079 0.024,-0.062C0.024,-0.056 0.026,-0.049 0.032,-0.043C0.041,-0.032 0.062,-0.023 0.076,-0.016C0.09,-0.007 0.108,-0.002 0.124,0.002C0.136,0.005 0.151,0.008 0.167,0.008C0.186,0.008 0.206,0.005 0.221,-0C0.276,-0.016 0.302,-0.062 0.302,-0.113C0.302,-0.126 0.301,-0.141 0.297,-0.154C0.285,-0.201 0.232,-0.22 0.193,-0.24C0.173,-0.25 0.129,-0.263 0.129,-0.288C0.129,-0.293 0.131,-0.298 0.134,-0.304C0.141,-0.314 0.15,-0.317 0.16,-0.317C0.168,-0.317 0.177,-0.315 0.186,-0.312C0.199,-0.308 0.212,-0.295 0.226,-0.293C0.246,-0.293 0.263,-0.312 0.272,-0.326C0.276,-0.331 0.278,-0.337 0.278,-0.342C0.278,-0.354 0.268,-0.364 0.256,-0.373C0.246,-0.38 0.23,-0.388 0.218,-0.391C0.213,-0.392 0.207,-0.392 0.202,-0.392L0.192,-0.392C0.185,-0.392 0.178,-0.393 0.171,-0.393C0.159,-0.393 0.148,-0.391 0.136,-0.388Z" style="fill-rule:nonzero;"/>
                </g>
                <g transform="matrix(42.6667,0,0,42.6667,524.883,138.032)">
                    <path d="M0.139,-0.378C0.102,-0.357 0.08,-0.332 0.066,-0.302C0.053,-0.275 0.048,-0.242 0.046,-0.206L0.046,-0.193C0.046,-0.172 0.048,-0.15 0.051,-0.129C0.066,-0.031 0.152,0.014 0.241,0.014C0.258,0.014 0.275,0.013 0.291,0.009C0.301,0.008 0.311,0.007 0.322,0.003C0.346,-0.006 0.353,-0.027 0.353,-0.051L0.353,-0.064C0.353,-0.075 0.356,-0.087 0.356,-0.096C0.356,-0.106 0.353,-0.112 0.341,-0.113L0.337,-0.113C0.321,-0.113 0.304,-0.102 0.291,-0.097C0.273,-0.091 0.258,-0.086 0.243,-0.086C0.223,-0.086 0.203,-0.094 0.181,-0.107C0.159,-0.121 0.146,-0.138 0.138,-0.162C0.136,-0.171 0.134,-0.181 0.134,-0.191C0.134,-0.221 0.144,-0.256 0.162,-0.273C0.181,-0.292 0.213,-0.302 0.242,-0.302C0.26,-0.302 0.276,-0.299 0.291,-0.293C0.306,-0.286 0.321,-0.267 0.339,-0.267C0.341,-0.267 0.341,-0.268 0.343,-0.268C0.357,-0.271 0.359,-0.284 0.359,-0.298L0.359,-0.334C0.359,-0.351 0.356,-0.365 0.341,-0.376C0.313,-0.397 0.279,-0.406 0.244,-0.406C0.207,-0.406 0.17,-0.396 0.139,-0.378Z" style="fill-rule:nonzero;"/>
                </g>
                <g transform="matrix(42.6667,0,0,42.6667,541.651,138.032)">
                    <path d="M0.426,-0.294C0.405,-0.331 0.381,-0.357 0.344,-0.378C0.316,-0.394 0.283,-0.401 0.25,-0.401C0.183,-0.401 0.114,-0.371 0.081,-0.318C0.056,-0.278 0.044,-0.23 0.044,-0.181C0.044,-0.166 0.045,-0.152 0.047,-0.138C0.061,-0.041 0.162,0.016 0.256,0.016C0.286,0.016 0.315,0.01 0.341,-0.001C0.417,-0.036 0.451,-0.111 0.451,-0.19C0.451,-0.205 0.45,-0.219 0.447,-0.234C0.445,-0.256 0.437,-0.275 0.426,-0.294ZM0.132,-0.193C0.132,-0.197 0.132,-0.201 0.133,-0.205C0.141,-0.266 0.194,-0.305 0.249,-0.305C0.276,-0.305 0.302,-0.296 0.325,-0.276C0.347,-0.255 0.365,-0.224 0.365,-0.192C0.365,-0.188 0.365,-0.184 0.364,-0.18C0.357,-0.14 0.331,-0.1 0.295,-0.081C0.281,-0.075 0.267,-0.071 0.252,-0.071C0.247,-0.071 0.241,-0.072 0.236,-0.073C0.214,-0.076 0.207,-0.08 0.192,-0.092C0.191,-0.093 0.19,-0.095 0.188,-0.096C0.171,-0.111 0.156,-0.121 0.145,-0.141C0.137,-0.158 0.132,-0.176 0.132,-0.193Z" style="fill-rule:nonzero;"/>
                </g>
                <g transform="matrix(42.6667,0,0,42.6667,562.856,138.032)">
                    <path d="M0.166,-0.283C0.166,-0.298 0.166,-0.313 0.167,-0.328C0.167,-0.341 0.169,-0.35 0.169,-0.36C0.169,-0.375 0.165,-0.385 0.143,-0.385L0.138,-0.385C0.114,-0.384 0.075,-0.389 0.07,-0.356C0.068,-0.346 0.068,-0.337 0.068,-0.328C0.068,-0.303 0.071,-0.277 0.071,-0.253L0.071,-0.248C0.071,-0.223 0.069,-0.192 0.069,-0.161C0.069,-0.121 0.073,-0.081 0.091,-0.055C0.124,-0.008 0.183,0.015 0.241,0.015C0.319,0.015 0.396,-0.024 0.411,-0.101C0.419,-0.141 0.421,-0.18 0.421,-0.22C0.421,-0.256 0.42,-0.291 0.419,-0.326C0.419,-0.339 0.423,-0.351 0.423,-0.363C0.423,-0.366 0.422,-0.371 0.421,-0.374C0.416,-0.387 0.406,-0.391 0.395,-0.391C0.383,-0.391 0.369,-0.387 0.356,-0.387C0.353,-0.387 0.351,-0.387 0.348,-0.388C0.341,-0.389 0.335,-0.391 0.328,-0.391C0.322,-0.391 0.316,-0.39 0.311,-0.382C0.307,-0.376 0.306,-0.369 0.306,-0.36C0.306,-0.341 0.313,-0.318 0.314,-0.303C0.315,-0.268 0.321,-0.225 0.321,-0.184C0.321,-0.16 0.319,-0.136 0.311,-0.116C0.3,-0.091 0.273,-0.079 0.247,-0.079C0.239,-0.079 0.231,-0.08 0.224,-0.082C0.163,-0.101 0.17,-0.188 0.167,-0.238C0.166,-0.253 0.166,-0.268 0.166,-0.283Z" style="fill-rule:nonzero;"/>
                </g>
                <g transform="matrix(42.6667,0,0,42.6667,583.72,138.032)">
                    <path d="M0.074,-0.391C0.066,-0.386 0.061,-0.377 0.058,-0.365C0.057,-0.359 0.056,-0.352 0.056,-0.346C0.056,-0.311 0.066,-0.268 0.068,-0.251C0.069,-0.24 0.069,-0.228 0.069,-0.216C0.069,-0.186 0.067,-0.156 0.066,-0.126C0.064,-0.101 0.061,-0.074 0.061,-0.048C0.061,-0.039 0.061,-0.029 0.062,-0.021C0.065,-0.001 0.076,0.004 0.092,0.004C0.105,0.004 0.121,-0 0.134,-0L0.136,-0C0.145,0.001 0.152,0.003 0.157,0.003C0.165,0.003 0.169,-0 0.173,-0.011C0.175,-0.016 0.176,-0.022 0.176,-0.029C0.176,-0.039 0.174,-0.05 0.173,-0.058C0.169,-0.088 0.166,-0.119 0.166,-0.149C0.166,-0.171 0.168,-0.192 0.171,-0.214C0.177,-0.251 0.198,-0.3 0.242,-0.3C0.245,-0.3 0.248,-0.299 0.251,-0.299C0.264,-0.297 0.273,-0.295 0.281,-0.295C0.292,-0.295 0.299,-0.299 0.306,-0.316C0.311,-0.329 0.321,-0.351 0.321,-0.369C0.321,-0.376 0.32,-0.384 0.314,-0.39C0.306,-0.398 0.29,-0.401 0.275,-0.401C0.266,-0.401 0.259,-0.4 0.253,-0.399C0.221,-0.395 0.212,-0.377 0.189,-0.361C0.185,-0.358 0.185,-0.356 0.179,-0.354C0.17,-0.356 0.168,-0.359 0.168,-0.363L0.168,-0.367C0.168,-0.37 0.168,-0.371 0.167,-0.374C0.161,-0.386 0.149,-0.387 0.136,-0.387C0.129,-0.387 0.121,-0.386 0.115,-0.386C0.112,-0.386 0.11,-0.386 0.107,-0.387C0.099,-0.388 0.091,-0.392 0.083,-0.392C0.08,-0.392 0.077,-0.392 0.074,-0.391Z" style="fill-rule:nonzero;"/>
                </g>
                <g transform="matrix(42.6667,0,0,42.6667,597.843,138.032)">
                    <path d="M0.196,-0.49C0.196,-0.5 0.194,-0.509 0.191,-0.515C0.185,-0.523 0.174,-0.525 0.164,-0.525C0.157,-0.525 0.151,-0.524 0.146,-0.524C0.112,-0.522 0.086,-0.527 0.086,-0.484C0.086,-0.468 0.094,-0.442 0.094,-0.421C0.094,-0.409 0.091,-0.397 0.083,-0.391C0.078,-0.386 0.072,-0.385 0.066,-0.385C0.061,-0.385 0.056,-0.386 0.051,-0.386C0.046,-0.386 0.042,-0.386 0.039,-0.384C0.023,-0.377 0.023,-0.361 0.021,-0.346C0.02,-0.34 0.019,-0.335 0.019,-0.329C0.019,-0.321 0.021,-0.312 0.029,-0.306C0.046,-0.294 0.071,-0.308 0.084,-0.291C0.092,-0.28 0.094,-0.26 0.094,-0.24C0.094,-0.221 0.092,-0.201 0.092,-0.189C0.092,-0.159 0.091,-0.13 0.09,-0.1C0.089,-0.084 0.082,-0.054 0.082,-0.031C0.082,-0.021 0.084,-0.011 0.088,-0.006C0.096,0.004 0.113,0.006 0.128,0.006C0.135,0.006 0.141,0.005 0.146,0.005C0.154,0.005 0.161,0.006 0.167,0.006C0.178,0.006 0.186,0.004 0.191,-0.009C0.193,-0.016 0.194,-0.021 0.194,-0.028C0.194,-0.042 0.189,-0.057 0.187,-0.072C0.186,-0.091 0.186,-0.111 0.186,-0.129C0.184,-0.154 0.184,-0.179 0.184,-0.204C0.184,-0.219 0.184,-0.235 0.185,-0.25C0.186,-0.261 0.186,-0.271 0.187,-0.281C0.194,-0.328 0.264,-0.28 0.264,-0.332L0.264,-0.356C0.264,-0.364 0.263,-0.372 0.257,-0.377C0.252,-0.381 0.247,-0.382 0.241,-0.382C0.231,-0.382 0.22,-0.378 0.21,-0.378C0.205,-0.378 0.2,-0.379 0.196,-0.383C0.19,-0.388 0.189,-0.4 0.189,-0.41L0.189,-0.425C0.189,-0.44 0.196,-0.467 0.196,-0.49Z" style="fill-rule:nonzero;"/>
                </g>
                <g transform="matrix(42.6667,0,0,42.6667,609.96,138.032)">
                    <path d="M0.26,-0.4C0.229,-0.4 0.2,-0.388 0.171,-0.381C0.14,-0.373 0.111,-0.359 0.088,-0.333C0.055,-0.295 0.046,-0.251 0.046,-0.206C0.046,-0.19 0.047,-0.173 0.049,-0.156C0.056,-0.088 0.086,-0.043 0.145,-0.007C0.176,0.012 0.205,0.021 0.236,0.021C0.261,0.021 0.286,0.015 0.313,0.004C0.346,-0.01 0.387,-0.024 0.411,-0.052C0.415,-0.058 0.417,-0.064 0.417,-0.07C0.417,-0.093 0.387,-0.116 0.363,-0.116C0.359,-0.116 0.356,-0.115 0.352,-0.114C0.327,-0.104 0.313,-0.078 0.286,-0.072C0.28,-0.071 0.273,-0.071 0.266,-0.071L0.243,-0.071C0.216,-0.071 0.188,-0.076 0.169,-0.097C0.158,-0.109 0.146,-0.131 0.146,-0.148C0.146,-0.151 0.146,-0.154 0.147,-0.157C0.151,-0.173 0.166,-0.176 0.181,-0.176C0.195,-0.176 0.209,-0.174 0.22,-0.174C0.231,-0.174 0.238,-0.175 0.246,-0.175C0.29,-0.175 0.334,-0.17 0.378,-0.17L0.386,-0.17C0.416,-0.17 0.432,-0.171 0.432,-0.197C0.432,-0.201 0.432,-0.206 0.431,-0.211C0.427,-0.243 0.426,-0.273 0.41,-0.302C0.381,-0.355 0.321,-0.4 0.26,-0.4ZM0.166,-0.295C0.168,-0.298 0.171,-0.301 0.174,-0.303C0.191,-0.316 0.216,-0.324 0.241,-0.324C0.274,-0.324 0.307,-0.311 0.321,-0.283C0.323,-0.278 0.325,-0.271 0.325,-0.265C0.325,-0.256 0.322,-0.246 0.317,-0.241C0.308,-0.233 0.286,-0.235 0.274,-0.234L0.266,-0.234C0.246,-0.234 0.227,-0.236 0.207,-0.236C0.18,-0.236 0.151,-0.245 0.151,-0.266C0.151,-0.273 0.156,-0.283 0.166,-0.295Z" style="fill-rule:nonzero;"/>
                </g>
                <g transform="matrix(42.6667,0,0,42.6667,630.269,138.032)">
                    <path d="M0.136,-0.388C0.111,-0.381 0.087,-0.371 0.069,-0.355C0.05,-0.337 0.037,-0.315 0.037,-0.286C0.037,-0.281 0.037,-0.277 0.038,-0.273C0.042,-0.226 0.078,-0.194 0.117,-0.173C0.141,-0.16 0.216,-0.148 0.216,-0.111C0.216,-0.108 0.215,-0.105 0.214,-0.101C0.208,-0.083 0.188,-0.076 0.169,-0.076C0.156,-0.076 0.143,-0.079 0.133,-0.084C0.117,-0.091 0.115,-0.108 0.096,-0.111C0.093,-0.112 0.09,-0.112 0.086,-0.112C0.075,-0.112 0.063,-0.109 0.054,-0.103C0.038,-0.095 0.024,-0.079 0.024,-0.062C0.024,-0.056 0.026,-0.049 0.032,-0.043C0.041,-0.032 0.062,-0.023 0.076,-0.016C0.09,-0.007 0.108,-0.002 0.124,0.002C0.136,0.005 0.151,0.008 0.167,0.008C0.186,0.008 0.206,0.005 0.221,-0C0.276,-0.016 0.302,-0.062 0.302,-0.113C0.302,-0.126 0.301,-0.141 0.297,-0.154C0.285,-0.201 0.232,-0.22 0.193,-0.24C0.173,-0.25 0.129,-0.263 0.129,-0.288C0.129,-0.293 0.131,-0.298 0.134,-0.304C0.141,-0.314 0.15,-0.317 0.16,-0.317C0.168,-0.317 0.177,-0.315 0.186,-0.312C0.199,-0.308 0.212,-0.295 0.226,-0.293C0.246,-0.293 0.263,-0.312 0.272,-0.326C0.276,-0.331 0.278,-0.337 0.278,-0.342C0.278,-0.354 0.268,-0.364 0.256,-0.373C0.246,-0.38 0.23,-0.388 0.218,-0.391C0.213,-0.392 0.207,-0.392 0.202,-0.392L0.192,-0.392C0.185,-0.392 0.178,-0.393 0.171,-0.393C0.159,-0.393 0.148,-0.391 0.136,-0.388Z" style="fill-rule:nonzero;"/>
                </g>
                <g transform="matrix(42.6667,0,0,42.6667,644.392,138.032)">
                    <path d="M0.055,-0.39C0.046,-0.39 0.039,-0.387 0.036,-0.376C0.035,-0.372 0.034,-0.368 0.034,-0.365C0.034,-0.338 0.06,-0.309 0.073,-0.289C0.109,-0.234 0.135,-0.173 0.164,-0.116C0.171,-0.102 0.181,-0.09 0.187,-0.076C0.189,-0.072 0.19,-0.067 0.19,-0.063C0.19,-0.051 0.184,-0.041 0.179,-0.029C0.165,0.004 0.148,0.039 0.131,0.072C0.116,0.104 0.096,0.131 0.079,0.162C0.075,0.17 0.071,0.179 0.071,0.184C0.071,0.19 0.074,0.194 0.081,0.197C0.086,0.199 0.091,0.199 0.096,0.199C0.11,0.199 0.126,0.196 0.136,0.195C0.149,0.195 0.159,0.199 0.17,0.199C0.173,0.199 0.177,0.198 0.181,0.197C0.201,0.191 0.199,0.174 0.206,0.158C0.217,0.126 0.227,0.094 0.24,0.063C0.279,-0.032 0.326,-0.121 0.374,-0.211L0.38,-0.222C0.398,-0.257 0.409,-0.294 0.427,-0.328C0.436,-0.344 0.443,-0.358 0.443,-0.368C0.443,-0.38 0.434,-0.386 0.409,-0.386C0.395,-0.386 0.381,-0.389 0.37,-0.389C0.353,-0.389 0.34,-0.384 0.331,-0.361C0.309,-0.303 0.282,-0.246 0.26,-0.187C0.253,-0.17 0.246,-0.164 0.241,-0.164C0.232,-0.164 0.225,-0.186 0.218,-0.207C0.21,-0.235 0.196,-0.261 0.183,-0.287C0.17,-0.314 0.167,-0.346 0.149,-0.371C0.137,-0.386 0.128,-0.39 0.118,-0.39C0.109,-0.39 0.098,-0.386 0.085,-0.386L0.079,-0.386C0.071,-0.387 0.062,-0.39 0.055,-0.39Z" style="fill-rule:nonzero;"/>
                </g>
                <g transform="matrix(42.6667,0,0,42.6667,675.027,138.032)">
                    <path d="M0.426,-0.294C0.405,-0.331 0.381,-0.357 0.344,-0.378C0.316,-0.394 0.283,-0.401 0.25,-0.401C0.183,-0.401 0.114,-0.371 0.081,-0.318C0.056,-0.278 0.044,-0.23 0.044,-0.181C0.044,-0.166 0.045,-0.152 0.047,-0.138C0.061,-0.041 0.162,0.016 0.256,0.016C0.286,0.016 0.315,0.01 0.341,-0.001C0.417,-0.036 0.451,-0.111 0.451,-0.19C0.451,-0.205 0.45,-0.219 0.447,-0.234C0.445,-0.256 0.437,-0.275 0.426,-0.294ZM0.132,-0.193C0.132,-0.197 0.132,-0.201 0.133,-0.205C0.141,-0.266 0.194,-0.305 0.249,-0.305C0.276,-0.305 0.302,-0.296 0.325,-0.276C0.347,-0.255 0.365,-0.224 0.365,-0.192C0.365,-0.188 0.365,-0.184 0.364,-0.18C0.357,-0.14 0.331,-0.1 0.295,-0.081C0.281,-0.075 0.267,-0.071 0.252,-0.071C0.247,-0.071 0.241,-0.072 0.236,-0.073C0.214,-0.076 0.207,-0.08 0.192,-0.092C0.191,-0.093 0.19,-0.095 0.188,-0.096C0.171,-0.111 0.156,-0.121 0.145,-0.141C0.137,-0.158 0.132,-0.176 0.132,-0.193Z" style="fill-rule:nonzero;"/>
                </g>
                <g transform="matrix(42.6667,0,0,42.6667,696.232,138.032)">
                    <path d="M0.166,-0.633C0.139,-0.621 0.124,-0.601 0.115,-0.578C0.104,-0.55 0.103,-0.515 0.103,-0.482L0.103,-0.454C0.103,-0.431 0.101,-0.405 0.092,-0.391C0.087,-0.385 0.083,-0.382 0.078,-0.382C0.072,-0.382 0.066,-0.385 0.06,-0.385C0.038,-0.385 0.041,-0.372 0.04,-0.356C0.04,-0.344 0.036,-0.331 0.036,-0.318C0.036,-0.315 0.036,-0.311 0.037,-0.308C0.042,-0.294 0.051,-0.293 0.062,-0.293L0.076,-0.293C0.098,-0.291 0.103,-0.276 0.103,-0.258C0.103,-0.246 0.101,-0.231 0.101,-0.219C0.101,-0.186 0.101,-0.154 0.099,-0.121C0.097,-0.093 0.09,-0.064 0.09,-0.036C0.09,-0.031 0.09,-0.027 0.091,-0.023C0.094,0.003 0.112,0.008 0.132,0.008C0.142,0.008 0.152,0.006 0.161,0.006C0.171,0.006 0.178,0.008 0.185,0.008C0.191,0.008 0.197,0.006 0.201,-0.001C0.205,-0.005 0.206,-0.013 0.206,-0.021C0.206,-0.031 0.204,-0.041 0.204,-0.047C0.202,-0.074 0.196,-0.101 0.196,-0.128L0.196,-0.133C0.197,-0.165 0.201,-0.196 0.201,-0.228C0.201,-0.237 0.2,-0.246 0.2,-0.256C0.2,-0.278 0.204,-0.298 0.235,-0.3L0.24,-0.3C0.251,-0.3 0.262,-0.298 0.274,-0.298C0.281,-0.298 0.29,-0.299 0.297,-0.301C0.301,-0.302 0.306,-0.336 0.306,-0.34C0.306,-0.344 0.306,-0.366 0.304,-0.368C0.299,-0.375 0.288,-0.376 0.279,-0.376L0.263,-0.376C0.256,-0.376 0.247,-0.375 0.239,-0.375C0.226,-0.375 0.215,-0.376 0.206,-0.388C0.201,-0.395 0.2,-0.404 0.2,-0.415C0.2,-0.427 0.202,-0.44 0.203,-0.449C0.206,-0.467 0.203,-0.487 0.207,-0.504C0.216,-0.537 0.25,-0.55 0.281,-0.55C0.302,-0.55 0.304,-0.555 0.304,-0.567L0.304,-0.584C0.305,-0.597 0.306,-0.608 0.306,-0.616C0.306,-0.633 0.3,-0.641 0.269,-0.646C0.26,-0.648 0.25,-0.649 0.24,-0.649C0.215,-0.649 0.188,-0.643 0.166,-0.633Z" style="fill-rule:nonzero;"/>
                </g>
                <g transform="matrix(42.6667,0,0,42.6667,720.253,138.032)">
                    <path d="M0.196,-0.49C0.196,-0.5 0.194,-0.509 0.191,-0.515C0.185,-0.523 0.174,-0.525 0.164,-0.525C0.157,-0.525 0.151,-0.524 0.146,-0.524C0.112,-0.522 0.086,-0.527 0.086,-0.484C0.086,-0.468 0.094,-0.442 0.094,-0.421C0.094,-0.409 0.091,-0.397 0.083,-0.391C0.078,-0.386 0.072,-0.385 0.066,-0.385C0.061,-0.385 0.056,-0.386 0.051,-0.386C0.046,-0.386 0.042,-0.386 0.039,-0.384C0.023,-0.377 0.023,-0.361 0.021,-0.346C0.02,-0.34 0.019,-0.335 0.019,-0.329C0.019,-0.321 0.021,-0.312 0.029,-0.306C0.046,-0.294 0.071,-0.308 0.084,-0.291C0.092,-0.28 0.094,-0.26 0.094,-0.24C0.094,-0.221 0.092,-0.201 0.092,-0.189C0.092,-0.159 0.091,-0.13 0.09,-0.1C0.089,-0.084 0.082,-0.054 0.082,-0.031C0.082,-0.021 0.084,-0.011 0.088,-0.006C0.096,0.004 0.113,0.006 0.128,0.006C0.135,0.006 0.141,0.005 0.146,0.005C0.154,0.005 0.161,0.006 0.167,0.006C0.178,0.006 0.186,0.004 0.191,-0.009C0.193,-0.016 0.194,-0.021 0.194,-0.028C0.194,-0.042 0.189,-0.057 0.187,-0.072C0.186,-0.091 0.186,-0.111 0.186,-0.129C0.184,-0.154 0.184,-0.179 0.184,-0.204C0.184,-0.219 0.184,-0.235 0.185,-0.25C0.186,-0.261 0.186,-0.271 0.187,-0.281C0.194,-0.328 0.264,-0.28 0.264,-0.332L0.264,-0.356C0.264,-0.364 0.263,-0.372 0.257,-0.377C0.252,-0.381 0.247,-0.382 0.241,-0.382C0.231,-0.382 0.22,-0.378 0.21,-0.378C0.205,-0.378 0.2,-0.379 0.196,-0.383C0.19,-0.388 0.189,-0.4 0.189,-0.41L0.189,-0.425C0.189,-0.44 0.196,-0.467 0.196,-0.49Z" style="fill-rule:nonzero;"/>
                </g>
                <g transform="matrix(42.6667,0,0,42.6667,732.371,138.032)">
                    <path d="M0.096,-0.665C0.08,-0.665 0.072,-0.656 0.069,-0.639C0.066,-0.63 0.066,-0.62 0.066,-0.61C0.066,-0.586 0.07,-0.561 0.071,-0.539C0.076,-0.463 0.077,-0.387 0.077,-0.311C0.077,-0.27 0.078,-0.23 0.078,-0.19C0.078,-0.156 0.077,-0.123 0.076,-0.09C0.075,-0.078 0.069,-0.049 0.069,-0.026C0.069,-0.011 0.071,-0 0.078,0.005C0.081,0.008 0.085,0.008 0.089,0.008C0.101,0.008 0.116,0.003 0.126,0.002L0.131,0.002C0.141,0.002 0.151,0.004 0.16,0.004C0.165,0.004 0.169,0.003 0.173,0.002C0.189,-0.001 0.194,-0.014 0.194,-0.029C0.194,-0.044 0.189,-0.061 0.187,-0.074C0.182,-0.106 0.181,-0.14 0.181,-0.172L0.181,-0.176C0.181,-0.221 0.181,-0.289 0.228,-0.308C0.236,-0.311 0.246,-0.313 0.256,-0.313C0.276,-0.313 0.297,-0.306 0.309,-0.295C0.323,-0.279 0.326,-0.255 0.326,-0.233L0.326,-0.213C0.326,-0.169 0.326,-0.126 0.323,-0.082C0.322,-0.07 0.319,-0.053 0.319,-0.037C0.319,-0.017 0.324,-0 0.346,0.004C0.355,0.006 0.38,0.009 0.401,0.009C0.416,0.009 0.428,0.007 0.432,0.004C0.438,-0.002 0.44,-0.014 0.44,-0.026C0.44,-0.051 0.434,-0.081 0.433,-0.096C0.432,-0.101 0.432,-0.108 0.432,-0.114C0.432,-0.127 0.433,-0.141 0.433,-0.156L0.433,-0.166C0.432,-0.174 0.432,-0.181 0.432,-0.188C0.432,-0.206 0.433,-0.225 0.433,-0.243C0.433,-0.289 0.427,-0.332 0.386,-0.365C0.361,-0.386 0.332,-0.391 0.301,-0.391C0.294,-0.391 0.286,-0.391 0.279,-0.39C0.246,-0.39 0.226,-0.361 0.196,-0.361C0.185,-0.361 0.177,-0.368 0.177,-0.386L0.177,-0.416C0.177,-0.449 0.178,-0.482 0.181,-0.515C0.183,-0.537 0.186,-0.559 0.187,-0.581C0.187,-0.596 0.192,-0.614 0.192,-0.631C0.192,-0.636 0.192,-0.641 0.191,-0.645C0.186,-0.656 0.178,-0.658 0.165,-0.658C0.142,-0.658 0.122,-0.663 0.101,-0.665L0.096,-0.665Z" style="fill-rule:nonzero;"/>
                </g>
                <g transform="matrix(42.6667,0,0,42.6667,754.003,138.032)">
                    <path d="M0.26,-0.4C0.229,-0.4 0.2,-0.388 0.171,-0.381C0.14,-0.373 0.111,-0.359 0.088,-0.333C0.055,-0.295 0.046,-0.251 0.046,-0.206C0.046,-0.19 0.047,-0.173 0.049,-0.156C0.056,-0.088 0.086,-0.043 0.145,-0.007C0.176,0.012 0.205,0.021 0.236,0.021C0.261,0.021 0.286,0.015 0.313,0.004C0.346,-0.01 0.387,-0.024 0.411,-0.052C0.415,-0.058 0.417,-0.064 0.417,-0.07C0.417,-0.093 0.387,-0.116 0.363,-0.116C0.359,-0.116 0.356,-0.115 0.352,-0.114C0.327,-0.104 0.313,-0.078 0.286,-0.072C0.28,-0.071 0.273,-0.071 0.266,-0.071L0.243,-0.071C0.216,-0.071 0.188,-0.076 0.169,-0.097C0.158,-0.109 0.146,-0.131 0.146,-0.148C0.146,-0.151 0.146,-0.154 0.147,-0.157C0.151,-0.173 0.166,-0.176 0.181,-0.176C0.195,-0.176 0.209,-0.174 0.22,-0.174C0.231,-0.174 0.238,-0.175 0.246,-0.175C0.29,-0.175 0.334,-0.17 0.378,-0.17L0.386,-0.17C0.416,-0.17 0.432,-0.171 0.432,-0.197C0.432,-0.201 0.432,-0.206 0.431,-0.211C0.427,-0.243 0.426,-0.273 0.41,-0.302C0.381,-0.355 0.321,-0.4 0.26,-0.4ZM0.166,-0.295C0.168,-0.298 0.171,-0.301 0.174,-0.303C0.191,-0.316 0.216,-0.324 0.241,-0.324C0.274,-0.324 0.307,-0.311 0.321,-0.283C0.323,-0.278 0.325,-0.271 0.325,-0.265C0.325,-0.256 0.322,-0.246 0.317,-0.241C0.308,-0.233 0.286,-0.235 0.274,-0.234L0.266,-0.234C0.246,-0.234 0.227,-0.236 0.207,-0.236C0.18,-0.236 0.151,-0.245 0.151,-0.266C0.151,-0.273 0.156,-0.283 0.166,-0.295Z" style="fill-rule:nonzero;"/>
                </g>
                <g transform="matrix(42.6667,0,0,42.6667,311.272,192.699)">
                    <path d="M0.089,-0.609C0.082,-0.609 0.076,-0.607 0.071,-0.602C0.062,-0.595 0.059,-0.583 0.059,-0.57C0.059,-0.551 0.066,-0.529 0.066,-0.515C0.069,-0.47 0.071,-0.424 0.071,-0.38C0.071,-0.361 0.071,-0.343 0.07,-0.325C0.069,-0.309 0.069,-0.294 0.069,-0.278C0.069,-0.23 0.072,-0.181 0.082,-0.136L0.083,-0.132C0.083,-0.131 0.084,-0.13 0.084,-0.129C0.09,-0.101 0.095,-0.079 0.119,-0.056C0.139,-0.037 0.161,-0.018 0.186,-0.006C0.216,0.009 0.251,0.014 0.286,0.014C0.315,0.014 0.344,0.01 0.371,0.005C0.426,-0.006 0.476,-0.037 0.501,-0.089C0.514,-0.119 0.527,-0.142 0.527,-0.176C0.527,-0.209 0.527,-0.241 0.53,-0.274C0.53,-0.282 0.531,-0.291 0.531,-0.3C0.531,-0.348 0.524,-0.396 0.524,-0.444C0.524,-0.451 0.525,-0.457 0.525,-0.464C0.526,-0.497 0.533,-0.527 0.537,-0.56L0.537,-0.566C0.537,-0.597 0.506,-0.596 0.481,-0.599C0.471,-0.6 0.46,-0.603 0.45,-0.603C0.441,-0.603 0.431,-0.601 0.425,-0.591C0.415,-0.579 0.415,-0.556 0.415,-0.54L0.415,-0.528C0.415,-0.496 0.42,-0.464 0.421,-0.432C0.424,-0.391 0.426,-0.347 0.426,-0.305L0.426,-0.241C0.423,-0.192 0.417,-0.112 0.366,-0.088C0.348,-0.08 0.327,-0.075 0.306,-0.075C0.273,-0.075 0.24,-0.086 0.219,-0.109C0.176,-0.157 0.176,-0.204 0.176,-0.271C0.176,-0.302 0.174,-0.334 0.174,-0.366C0.174,-0.399 0.18,-0.43 0.181,-0.461C0.183,-0.49 0.191,-0.518 0.192,-0.546C0.192,-0.551 0.193,-0.557 0.193,-0.564C0.193,-0.573 0.192,-0.583 0.188,-0.59C0.181,-0.602 0.166,-0.605 0.15,-0.605C0.141,-0.605 0.131,-0.604 0.123,-0.604C0.12,-0.604 0.117,-0.605 0.115,-0.605C0.106,-0.606 0.097,-0.609 0.089,-0.609Z" style="fill-rule:nonzero;"/>
                </g>
                <g transform="matrix(42.6667,0,0,42.6667,336.872,192.699)">
                    <path d="M0.196,-0.49C0.196,-0.5 0.194,-0.509 0.191,-0.515C0.185,-0.523 0.174,-0.525 0.164,-0.525C0.157,-0.525 0.151,-0.524 0.146,-0.524C0.112,-0.522 0.086,-0.527 0.086,-0.484C0.086,-0.468 0.094,-0.442 0.094,-0.421C0.094,-0.409 0.091,-0.397 0.083,-0.391C0.078,-0.386 0.072,-0.385 0.066,-0.385C0.061,-0.385 0.056,-0.386 0.051,-0.386C0.046,-0.386 0.042,-0.386 0.039,-0.384C0.023,-0.377 0.023,-0.361 0.021,-0.346C0.02,-0.34 0.019,-0.335 0.019,-0.329C0.019,-0.321 0.021,-0.312 0.029,-0.306C0.046,-0.294 0.071,-0.308 0.084,-0.291C0.092,-0.28 0.094,-0.26 0.094,-0.24C0.094,-0.221 0.092,-0.201 0.092,-0.189C0.092,-0.159 0.091,-0.13 0.09,-0.1C0.089,-0.084 0.082,-0.054 0.082,-0.031C0.082,-0.021 0.084,-0.011 0.088,-0.006C0.096,0.004 0.113,0.006 0.128,0.006C0.135,0.006 0.141,0.005 0.146,0.005C0.154,0.005 0.161,0.006 0.167,0.006C0.178,0.006 0.186,0.004 0.191,-0.009C0.193,-0.016 0.194,-0.021 0.194,-0.028C0.194,-0.042 0.189,-0.057 0.187,-0.072C0.186,-0.091 0.186,-0.111 0.186,-0.129C0.184,-0.154 0.184,-0.179 0.184,-0.204C0.184,-0.219 0.184,-0.235 0.185,-0.25C0.186,-0.261 0.186,-0.271 0.187,-0.281C0.194,-0.328 0.264,-0.28 0.264,-0.332L0.264,-0.356C0.264,-0.364 0.263,-0.372 0.257,-0.377C0.252,-0.381 0.247,-0.382 0.241,-0.382C0.231,-0.382 0.22,-0.378 0.21,-0.378C0.205,-0.378 0.2,-0.379 0.196,-0.383C0.19,-0.388 0.189,-0.4 0.189,-0.41L0.189,-0.425C0.189,-0.44 0.196,-0.467 0.196,-0.49Z" style="fill-rule:nonzero;"/>
                </g>
                <g transform="matrix(42.6667,0,0,42.6667,348.989,192.699)">
                    <path d="M0.131,-0.381C0.104,-0.368 0.082,-0.343 0.068,-0.316C0.046,-0.277 0.036,-0.231 0.036,-0.186C0.036,-0.166 0.038,-0.145 0.042,-0.126C0.055,-0.066 0.103,-0.016 0.157,0.004C0.181,0.012 0.209,0.019 0.236,0.019C0.268,0.019 0.3,0.009 0.322,-0.014C0.333,-0.025 0.341,-0.057 0.354,-0.057C0.358,-0.057 0.363,-0.054 0.369,-0.046C0.377,-0.034 0.371,-0.015 0.381,-0.005C0.385,-0 0.396,0.002 0.41,0.002C0.431,0.002 0.455,-0.003 0.46,-0.011C0.461,-0.014 0.462,-0.019 0.462,-0.025C0.462,-0.04 0.459,-0.059 0.459,-0.068L0.459,-0.084C0.459,-0.107 0.456,-0.131 0.454,-0.155C0.451,-0.176 0.451,-0.199 0.451,-0.221C0.451,-0.253 0.452,-0.286 0.454,-0.316C0.454,-0.326 0.457,-0.34 0.457,-0.352C0.457,-0.361 0.456,-0.369 0.451,-0.375C0.442,-0.384 0.423,-0.386 0.406,-0.386C0.396,-0.386 0.386,-0.386 0.38,-0.385C0.365,-0.384 0.363,-0.376 0.363,-0.37L0.363,-0.361C0.363,-0.353 0.361,-0.348 0.348,-0.348C0.327,-0.348 0.311,-0.376 0.295,-0.385C0.276,-0.394 0.251,-0.4 0.231,-0.401L0.224,-0.401C0.196,-0.401 0.154,-0.393 0.131,-0.381ZM0.15,-0.216C0.155,-0.246 0.17,-0.271 0.192,-0.287C0.207,-0.299 0.226,-0.306 0.247,-0.306C0.251,-0.306 0.256,-0.306 0.261,-0.305C0.285,-0.302 0.313,-0.287 0.33,-0.271C0.349,-0.251 0.359,-0.221 0.359,-0.192C0.359,-0.163 0.349,-0.134 0.329,-0.114C0.309,-0.094 0.274,-0.081 0.241,-0.081C0.227,-0.081 0.214,-0.084 0.202,-0.09C0.166,-0.108 0.148,-0.154 0.148,-0.194C0.148,-0.201 0.148,-0.209 0.15,-0.216Z" style="fill-rule:nonzero;"/>
                </g>
                <g transform="matrix(42.6667,0,0,42.6667,371.091,192.699)">
                    <path d="M0.096,-0.665C0.08,-0.665 0.072,-0.656 0.069,-0.639C0.066,-0.63 0.066,-0.62 0.066,-0.61C0.066,-0.586 0.07,-0.561 0.071,-0.539C0.076,-0.463 0.077,-0.387 0.077,-0.311C0.077,-0.27 0.078,-0.23 0.078,-0.19C0.078,-0.156 0.077,-0.123 0.076,-0.09C0.075,-0.078 0.069,-0.049 0.069,-0.026C0.069,-0.011 0.071,-0 0.078,0.005C0.081,0.008 0.085,0.008 0.089,0.008C0.101,0.008 0.116,0.003 0.126,0.002L0.131,0.002C0.141,0.002 0.151,0.004 0.16,0.004C0.165,0.004 0.169,0.003 0.173,0.002C0.189,-0.001 0.194,-0.014 0.194,-0.029C0.194,-0.044 0.189,-0.061 0.187,-0.074C0.182,-0.106 0.181,-0.14 0.181,-0.172L0.181,-0.176C0.181,-0.221 0.181,-0.289 0.228,-0.308C0.236,-0.311 0.246,-0.313 0.256,-0.313C0.276,-0.313 0.297,-0.306 0.309,-0.295C0.323,-0.279 0.326,-0.255 0.326,-0.233L0.326,-0.213C0.326,-0.169 0.326,-0.126 0.323,-0.082C0.322,-0.07 0.319,-0.053 0.319,-0.037C0.319,-0.017 0.324,-0 0.346,0.004C0.355,0.006 0.38,0.009 0.401,0.009C0.416,0.009 0.428,0.007 0.432,0.004C0.438,-0.002 0.44,-0.014 0.44,-0.026C0.44,-0.051 0.434,-0.081 0.433,-0.096C0.432,-0.101 0.432,-0.108 0.432,-0.114C0.432,-0.127 0.433,-0.141 0.433,-0.156L0.433,-0.166C0.432,-0.174 0.432,-0.181 0.432,-0.188C0.432,-0.206 0.433,-0.225 0.433,-0.243C0.433,-0.289 0.427,-0.332 0.386,-0.365C0.361,-0.386 0.332,-0.391 0.301,-0.391C0.294,-0.391 0.286,-0.391 0.279,-0.39C0.246,-0.39 0.226,-0.361 0.196,-0.361C0.185,-0.361 0.177,-0.368 0.177,-0.386L0.177,-0.416C0.177,-0.449 0.178,-0.482 0.181,-0.515C0.183,-0.537 0.186,-0.559 0.187,-0.581C0.187,-0.596 0.192,-0.614 0.192,-0.631C0.192,-0.636 0.192,-0.641 0.191,-0.645C0.186,-0.656 0.178,-0.658 0.165,-0.658C0.142,-0.658 0.122,-0.663 0.101,-0.665L0.096,-0.665Z" style="fill-rule:nonzero;"/>
                </g>
                <g transform="matrix(42.6667,0,0,42.6667,403.389,192.699)">
                    <path d="M0.189,-0.635C0.161,-0.634 0.161,-0.59 0.158,-0.571C0.153,-0.54 0.145,-0.506 0.138,-0.476C0.126,-0.416 0.117,-0.356 0.1,-0.297C0.082,-0.236 0.068,-0.176 0.051,-0.114C0.042,-0.086 0.029,-0.058 0.023,-0.03C0.022,-0.025 0.021,-0.021 0.021,-0.017C0.021,0.008 0.045,0.011 0.07,0.011L0.084,0.011C0.096,0.011 0.117,0.01 0.126,0.007C0.141,0.002 0.141,-0.011 0.144,-0.028C0.149,-0.06 0.157,-0.09 0.162,-0.121C0.166,-0.151 0.174,-0.179 0.182,-0.207C0.182,-0.209 0.183,-0.21 0.183,-0.211C0.192,-0.241 0.194,-0.276 0.205,-0.306C0.208,-0.315 0.213,-0.321 0.22,-0.321C0.224,-0.321 0.229,-0.319 0.234,-0.312C0.243,-0.301 0.238,-0.284 0.242,-0.27C0.25,-0.245 0.272,-0.222 0.283,-0.198C0.306,-0.145 0.318,-0.085 0.337,-0.03C0.337,-0.029 0.338,-0.028 0.338,-0.027C0.344,-0.011 0.356,0.021 0.375,0.021C0.379,0.021 0.384,0.019 0.39,0.014C0.409,-0.002 0.41,-0.049 0.418,-0.073C0.437,-0.131 0.466,-0.188 0.486,-0.245C0.491,-0.259 0.507,-0.315 0.529,-0.315C0.531,-0.315 0.534,-0.314 0.536,-0.312C0.551,-0.304 0.561,-0.249 0.566,-0.233L0.575,-0.207C0.59,-0.157 0.606,-0.105 0.606,-0.051C0.606,-0.047 0.605,-0.044 0.605,-0.04C0.605,-0.027 0.606,-0.015 0.613,-0.005C0.619,0.005 0.626,0.008 0.633,0.008C0.639,0.008 0.645,0.007 0.652,0.006C0.678,0.003 0.726,0.013 0.726,-0.02L0.726,-0.024C0.724,-0.051 0.708,-0.081 0.701,-0.108L0.674,-0.201C0.656,-0.259 0.636,-0.314 0.626,-0.374C0.617,-0.436 0.593,-0.496 0.589,-0.561L0.589,-0.573C0.589,-0.597 0.588,-0.636 0.566,-0.636C0.536,-0.636 0.526,-0.575 0.521,-0.556C0.503,-0.501 0.476,-0.445 0.451,-0.393C0.438,-0.365 0.426,-0.336 0.416,-0.307C0.411,-0.294 0.402,-0.281 0.398,-0.266C0.395,-0.255 0.395,-0.237 0.386,-0.227C0.381,-0.221 0.377,-0.22 0.373,-0.22C0.356,-0.22 0.351,-0.266 0.346,-0.278C0.334,-0.305 0.317,-0.328 0.306,-0.356C0.289,-0.402 0.275,-0.447 0.253,-0.493C0.241,-0.518 0.234,-0.542 0.228,-0.569C0.228,-0.57 0.227,-0.571 0.227,-0.573C0.223,-0.593 0.214,-0.633 0.189,-0.635Z" style="fill-rule:nonzero;"/>
                </g>
                <g transform="matrix(42.6667,0,0,42.6667,435.389,192.699)">
                    <path d="M0.166,-0.283C0.166,-0.298 0.166,-0.313 0.167,-0.328C0.167,-0.341 0.169,-0.35 0.169,-0.36C0.169,-0.375 0.165,-0.385 0.143,-0.385L0.138,-0.385C0.114,-0.384 0.075,-0.389 0.07,-0.356C0.068,-0.346 0.068,-0.337 0.068,-0.328C0.068,-0.303 0.071,-0.277 0.071,-0.253L0.071,-0.248C0.071,-0.223 0.069,-0.192 0.069,-0.161C0.069,-0.121 0.073,-0.081 0.091,-0.055C0.124,-0.008 0.183,0.015 0.241,0.015C0.319,0.015 0.396,-0.024 0.411,-0.101C0.419,-0.141 0.421,-0.18 0.421,-0.22C0.421,-0.256 0.42,-0.291 0.419,-0.326C0.419,-0.339 0.423,-0.351 0.423,-0.363C0.423,-0.366 0.422,-0.371 0.421,-0.374C0.416,-0.387 0.406,-0.391 0.395,-0.391C0.383,-0.391 0.369,-0.387 0.356,-0.387C0.353,-0.387 0.351,-0.387 0.348,-0.388C0.341,-0.389 0.335,-0.391 0.328,-0.391C0.322,-0.391 0.316,-0.39 0.311,-0.382C0.307,-0.376 0.306,-0.369 0.306,-0.36C0.306,-0.341 0.313,-0.318 0.314,-0.303C0.315,-0.268 0.321,-0.225 0.321,-0.184C0.321,-0.16 0.319,-0.136 0.311,-0.116C0.3,-0.091 0.273,-0.079 0.247,-0.079C0.239,-0.079 0.231,-0.08 0.224,-0.082C0.163,-0.101 0.17,-0.188 0.167,-0.238C0.166,-0.253 0.166,-0.268 0.166,-0.283Z" style="fill-rule:nonzero;"/>
                </g>
                <g transform="matrix(42.6667,0,0,42.6667,456.253,192.699)">
                    <path d="M0.136,-0.388C0.111,-0.381 0.087,-0.371 0.069,-0.355C0.05,-0.337 0.037,-0.315 0.037,-0.286C0.037,-0.281 0.037,-0.277 0.038,-0.273C0.042,-0.226 0.078,-0.194 0.117,-0.173C0.141,-0.16 0.216,-0.148 0.216,-0.111C0.216,-0.108 0.215,-0.105 0.214,-0.101C0.208,-0.083 0.188,-0.076 0.169,-0.076C0.156,-0.076 0.143,-0.079 0.133,-0.084C0.117,-0.091 0.115,-0.108 0.096,-0.111C0.093,-0.112 0.09,-0.112 0.086,-0.112C0.075,-0.112 0.063,-0.109 0.054,-0.103C0.038,-0.095 0.024,-0.079 0.024,-0.062C0.024,-0.056 0.026,-0.049 0.032,-0.043C0.041,-0.032 0.062,-0.023 0.076,-0.016C0.09,-0.007 0.108,-0.002 0.124,0.002C0.136,0.005 0.151,0.008 0.167,0.008C0.186,0.008 0.206,0.005 0.221,-0C0.276,-0.016 0.302,-0.062 0.302,-0.113C0.302,-0.126 0.301,-0.141 0.297,-0.154C0.285,-0.201 0.232,-0.22 0.193,-0.24C0.173,-0.25 0.129,-0.263 0.129,-0.288C0.129,-0.293 0.131,-0.298 0.134,-0.304C0.141,-0.314 0.15,-0.317 0.16,-0.317C0.168,-0.317 0.177,-0.315 0.186,-0.312C0.199,-0.308 0.212,-0.295 0.226,-0.293C0.246,-0.293 0.263,-0.312 0.272,-0.326C0.276,-0.331 0.278,-0.337 0.278,-0.342C0.278,-0.354 0.268,-0.364 0.256,-0.373C0.246,-0.38 0.23,-0.388 0.218,-0.391C0.213,-0.392 0.207,-0.392 0.202,-0.392L0.192,-0.392C0.185,-0.392 0.178,-0.393 0.171,-0.393C0.159,-0.393 0.148,-0.391 0.136,-0.388Z" style="fill-rule:nonzero;"/>
                </g>
                <g transform="matrix(42.6667,0,0,42.6667,470.376,192.699)">
                    <path d="M0.26,-0.4C0.229,-0.4 0.2,-0.388 0.171,-0.381C0.14,-0.373 0.111,-0.359 0.088,-0.333C0.055,-0.295 0.046,-0.251 0.046,-0.206C0.046,-0.19 0.047,-0.173 0.049,-0.156C0.056,-0.088 0.086,-0.043 0.145,-0.007C0.176,0.012 0.205,0.021 0.236,0.021C0.261,0.021 0.286,0.015 0.313,0.004C0.346,-0.01 0.387,-0.024 0.411,-0.052C0.415,-0.058 0.417,-0.064 0.417,-0.07C0.417,-0.093 0.387,-0.116 0.363,-0.116C0.359,-0.116 0.356,-0.115 0.352,-0.114C0.327,-0.104 0.313,-0.078 0.286,-0.072C0.28,-0.071 0.273,-0.071 0.266,-0.071L0.243,-0.071C0.216,-0.071 0.188,-0.076 0.169,-0.097C0.158,-0.109 0.146,-0.131 0.146,-0.148C0.146,-0.151 0.146,-0.154 0.147,-0.157C0.151,-0.173 0.166,-0.176 0.181,-0.176C0.195,-0.176 0.209,-0.174 0.22,-0.174C0.231,-0.174 0.238,-0.175 0.246,-0.175C0.29,-0.175 0.334,-0.17 0.378,-0.17L0.386,-0.17C0.416,-0.17 0.432,-0.171 0.432,-0.197C0.432,-0.201 0.432,-0.206 0.431,-0.211C0.427,-0.243 0.426,-0.273 0.41,-0.302C0.381,-0.355 0.321,-0.4 0.26,-0.4ZM0.166,-0.295C0.168,-0.298 0.171,-0.301 0.174,-0.303C0.191,-0.316 0.216,-0.324 0.241,-0.324C0.274,-0.324 0.307,-0.311 0.321,-0.283C0.323,-0.278 0.325,-0.271 0.325,-0.265C0.325,-0.256 0.322,-0.246 0.317,-0.241C0.308,-0.233 0.286,-0.235 0.274,-0.234L0.266,-0.234C0.246,-0.234 0.227,-0.236 0.207,-0.236C0.18,-0.236 0.151,-0.245 0.151,-0.266C0.151,-0.273 0.156,-0.283 0.166,-0.295Z" style="fill-rule:nonzero;"/>
                </g>
                <g transform="matrix(42.6667,0,0,42.6667,490.685,192.699)">
                    <path d="M0.166,-0.283C0.166,-0.298 0.166,-0.313 0.167,-0.328C0.167,-0.341 0.169,-0.35 0.169,-0.36C0.169,-0.375 0.165,-0.385 0.143,-0.385L0.138,-0.385C0.114,-0.384 0.075,-0.389 0.07,-0.356C0.068,-0.346 0.068,-0.337 0.068,-0.328C0.068,-0.303 0.071,-0.277 0.071,-0.253L0.071,-0.248C0.071,-0.223 0.069,-0.192 0.069,-0.161C0.069,-0.121 0.073,-0.081 0.091,-0.055C0.124,-0.008 0.183,0.015 0.241,0.015C0.319,0.015 0.396,-0.024 0.411,-0.101C0.419,-0.141 0.421,-0.18 0.421,-0.22C0.421,-0.256 0.42,-0.291 0.419,-0.326C0.419,-0.339 0.423,-0.351 0.423,-0.363C0.423,-0.366 0.422,-0.371 0.421,-0.374C0.416,-0.387 0.406,-0.391 0.395,-0.391C0.383,-0.391 0.369,-0.387 0.356,-0.387C0.353,-0.387 0.351,-0.387 0.348,-0.388C0.341,-0.389 0.335,-0.391 0.328,-0.391C0.322,-0.391 0.316,-0.39 0.311,-0.382C0.307,-0.376 0.306,-0.369 0.306,-0.36C0.306,-0.341 0.313,-0.318 0.314,-0.303C0.315,-0.268 0.321,-0.225 0.321,-0.184C0.321,-0.16 0.319,-0.136 0.311,-0.116C0.3,-0.091 0.273,-0.079 0.247,-0.079C0.239,-0.079 0.231,-0.08 0.224,-0.082C0.163,-0.101 0.17,-0.188 0.167,-0.238C0.166,-0.253 0.166,-0.268 0.166,-0.283Z" style="fill-rule:nonzero;"/>
                </g>
                <g transform="matrix(42.6667,0,0,42.6667,511.549,192.699)">
                    <path d="M0.081,-0.391C0.078,-0.387 0.074,-0.382 0.072,-0.377C0.071,-0.373 0.07,-0.369 0.07,-0.364C0.07,-0.354 0.073,-0.343 0.075,-0.332C0.075,-0.323 0.076,-0.316 0.076,-0.308L0.076,-0.262C0.076,-0.205 0.069,-0.146 0.069,-0.088L0.069,-0.081C0.069,-0.068 0.066,-0.053 0.066,-0.039C0.066,-0.021 0.071,-0.004 0.09,0.002C0.098,0.004 0.116,0.007 0.133,0.007C0.153,0.007 0.174,0.004 0.18,-0.004C0.185,-0.011 0.186,-0.022 0.186,-0.035C0.186,-0.058 0.181,-0.086 0.18,-0.1C0.178,-0.116 0.177,-0.131 0.177,-0.148C0.177,-0.164 0.178,-0.181 0.178,-0.197C0.178,-0.21 0.177,-0.223 0.177,-0.236C0.177,-0.256 0.179,-0.275 0.191,-0.29C0.203,-0.303 0.222,-0.312 0.241,-0.312C0.253,-0.312 0.265,-0.309 0.274,-0.301C0.296,-0.284 0.295,-0.239 0.297,-0.213C0.299,-0.196 0.3,-0.181 0.3,-0.165C0.3,-0.148 0.299,-0.132 0.297,-0.116C0.295,-0.095 0.292,-0.073 0.292,-0.051C0.292,-0.047 0.293,-0.042 0.293,-0.037C0.295,-0.006 0.307,-0.001 0.329,-0.001C0.335,-0.001 0.341,-0.002 0.347,-0.002C0.356,-0.002 0.366,-0 0.373,-0C0.381,-0 0.387,-0.002 0.393,-0.011C0.398,-0.018 0.4,-0.025 0.4,-0.031C0.4,-0.042 0.395,-0.053 0.391,-0.066C0.389,-0.076 0.389,-0.086 0.389,-0.096L0.389,-0.126C0.388,-0.135 0.388,-0.144 0.388,-0.153C0.388,-0.163 0.388,-0.172 0.389,-0.182C0.391,-0.224 0.397,-0.311 0.451,-0.311C0.458,-0.311 0.465,-0.31 0.473,-0.307C0.518,-0.292 0.526,-0.242 0.526,-0.195C0.526,-0.171 0.524,-0.149 0.524,-0.131C0.524,-0.097 0.517,-0.064 0.514,-0.03L0.514,-0.026C0.514,-0.003 0.536,0.004 0.56,0.004C0.578,0.004 0.597,-0.001 0.608,-0.006C0.623,-0.012 0.627,-0.022 0.627,-0.033C0.627,-0.046 0.621,-0.061 0.62,-0.075C0.616,-0.109 0.614,-0.147 0.614,-0.182C0.614,-0.196 0.615,-0.211 0.615,-0.226L0.615,-0.282C0.615,-0.302 0.613,-0.322 0.605,-0.342C0.587,-0.384 0.551,-0.403 0.511,-0.403C0.493,-0.403 0.475,-0.399 0.457,-0.391C0.436,-0.38 0.417,-0.351 0.395,-0.345C0.393,-0.344 0.391,-0.344 0.389,-0.344C0.37,-0.344 0.348,-0.372 0.331,-0.382C0.314,-0.393 0.297,-0.4 0.279,-0.4C0.271,-0.4 0.264,-0.398 0.256,-0.396C0.231,-0.39 0.211,-0.367 0.186,-0.367C0.18,-0.367 0.174,-0.369 0.167,-0.371C0.154,-0.377 0.146,-0.387 0.132,-0.391C0.128,-0.391 0.109,-0.393 0.095,-0.393C0.087,-0.393 0.081,-0.393 0.081,-0.391Z" style="fill-rule:nonzero;"/>
                </g>
                <g transform="matrix(42.6667,0,0,42.6667,551.229,192.699)">
                    <path d="M0.426,-0.294C0.405,-0.331 0.381,-0.357 0.344,-0.378C0.316,-0.394 0.283,-0.401 0.25,-0.401C0.183,-0.401 0.114,-0.371 0.081,-0.318C0.056,-0.278 0.044,-0.23 0.044,-0.181C0.044,-0.166 0.045,-0.152 0.047,-0.138C0.061,-0.041 0.162,0.016 0.256,0.016C0.286,0.016 0.315,0.01 0.341,-0.001C0.417,-0.036 0.451,-0.111 0.451,-0.19C0.451,-0.205 0.45,-0.219 0.447,-0.234C0.445,-0.256 0.437,-0.275 0.426,-0.294ZM0.132,-0.193C0.132,-0.197 0.132,-0.201 0.133,-0.205C0.141,-0.266 0.194,-0.305 0.249,-0.305C0.276,-0.305 0.302,-0.296 0.325,-0.276C0.347,-0.255 0.365,-0.224 0.365,-0.192C0.365,-0.188 0.365,-0.184 0.364,-0.18C0.357,-0.14 0.331,-0.1 0.295,-0.081C0.281,-0.075 0.267,-0.071 0.252,-0.071C0.247,-0.071 0.241,-0.072 0.236,-0.073C0.214,-0.076 0.207,-0.08 0.192,-0.092C0.191,-0.093 0.19,-0.095 0.188,-0.096C0.171,-0.111 0.156,-0.121 0.145,-0.141C0.137,-0.158 0.132,-0.176 0.132,-0.193Z" style="fill-rule:nonzero;"/>
                </g>
                <g transform="matrix(42.6667,0,0,42.6667,572.435,192.699)">
                    <path d="M0.166,-0.633C0.139,-0.621 0.124,-0.601 0.115,-0.578C0.104,-0.55 0.103,-0.515 0.103,-0.482L0.103,-0.454C0.103,-0.431 0.101,-0.405 0.092,-0.391C0.087,-0.385 0.083,-0.382 0.078,-0.382C0.072,-0.382 0.066,-0.385 0.06,-0.385C0.038,-0.385 0.041,-0.372 0.04,-0.356C0.04,-0.344 0.036,-0.331 0.036,-0.318C0.036,-0.315 0.036,-0.311 0.037,-0.308C0.042,-0.294 0.051,-0.293 0.062,-0.293L0.076,-0.293C0.098,-0.291 0.103,-0.276 0.103,-0.258C0.103,-0.246 0.101,-0.231 0.101,-0.219C0.101,-0.186 0.101,-0.154 0.099,-0.121C0.097,-0.093 0.09,-0.064 0.09,-0.036C0.09,-0.031 0.09,-0.027 0.091,-0.023C0.094,0.003 0.112,0.008 0.132,0.008C0.142,0.008 0.152,0.006 0.161,0.006C0.171,0.006 0.178,0.008 0.185,0.008C0.191,0.008 0.197,0.006 0.201,-0.001C0.205,-0.005 0.206,-0.013 0.206,-0.021C0.206,-0.031 0.204,-0.041 0.204,-0.047C0.202,-0.074 0.196,-0.101 0.196,-0.128L0.196,-0.133C0.197,-0.165 0.201,-0.196 0.201,-0.228C0.201,-0.237 0.2,-0.246 0.2,-0.256C0.2,-0.278 0.204,-0.298 0.235,-0.3L0.24,-0.3C0.251,-0.3 0.262,-0.298 0.274,-0.298C0.281,-0.298 0.29,-0.299 0.297,-0.301C0.301,-0.302 0.306,-0.336 0.306,-0.34C0.306,-0.344 0.306,-0.366 0.304,-0.368C0.299,-0.375 0.288,-0.376 0.279,-0.376L0.263,-0.376C0.256,-0.376 0.247,-0.375 0.239,-0.375C0.226,-0.375 0.215,-0.376 0.206,-0.388C0.201,-0.395 0.2,-0.404 0.2,-0.415C0.2,-0.427 0.202,-0.44 0.203,-0.449C0.206,-0.467 0.203,-0.487 0.207,-0.504C0.216,-0.537 0.25,-0.55 0.281,-0.55C0.302,-0.55 0.304,-0.555 0.304,-0.567L0.304,-0.584C0.305,-0.597 0.306,-0.608 0.306,-0.616C0.306,-0.633 0.3,-0.641 0.269,-0.646C0.26,-0.648 0.25,-0.649 0.24,-0.649C0.215,-0.649 0.188,-0.643 0.166,-0.633Z" style="fill-rule:nonzero;"/>
                </g>
                <g transform="matrix(42.6667,0,0,42.6667,596.456,192.699)">
                    <path d="M0.366,-0.358C0.324,-0.404 0.277,-0.444 0.231,-0.486C0.195,-0.516 0.169,-0.556 0.139,-0.592L0.136,-0.596C0.126,-0.609 0.099,-0.641 0.081,-0.641C0.075,-0.641 0.07,-0.637 0.066,-0.628C0.066,-0.626 0.065,-0.622 0.065,-0.619C0.065,-0.606 0.07,-0.591 0.07,-0.581L0.07,-0.566C0.07,-0.546 0.068,-0.527 0.068,-0.507C0.068,-0.499 0.069,-0.49 0.07,-0.481C0.076,-0.417 0.08,-0.351 0.08,-0.286C0.08,-0.232 0.086,-0.177 0.086,-0.122L0.086,-0.092C0.085,-0.076 0.077,-0.047 0.077,-0.025C0.077,-0.013 0.079,-0.003 0.085,0.004C0.092,0.012 0.116,0.014 0.137,0.014C0.154,0.014 0.169,0.013 0.177,0.011C0.192,0.008 0.196,-0.006 0.196,-0.021C0.196,-0.038 0.191,-0.058 0.191,-0.071C0.191,-0.104 0.19,-0.136 0.189,-0.169C0.189,-0.185 0.182,-0.238 0.182,-0.283C0.182,-0.321 0.187,-0.355 0.204,-0.355C0.222,-0.355 0.254,-0.325 0.269,-0.311L0.271,-0.308C0.297,-0.286 0.323,-0.263 0.346,-0.239C0.39,-0.194 0.436,-0.153 0.478,-0.106C0.497,-0.084 0.521,-0.065 0.543,-0.046C0.561,-0.03 0.592,0.014 0.617,0.016L0.621,0.016C0.636,0.016 0.641,0.005 0.641,-0.009C0.641,-0.025 0.636,-0.044 0.635,-0.054C0.631,-0.089 0.633,-0.126 0.631,-0.159C0.627,-0.211 0.626,-0.263 0.626,-0.316C0.626,-0.399 0.63,-0.482 0.638,-0.564L0.638,-0.569C0.638,-0.602 0.607,-0.607 0.578,-0.61C0.568,-0.611 0.559,-0.612 0.551,-0.612C0.536,-0.612 0.526,-0.607 0.52,-0.589C0.517,-0.581 0.516,-0.573 0.516,-0.565C0.516,-0.547 0.521,-0.53 0.521,-0.512C0.522,-0.48 0.522,-0.451 0.526,-0.419C0.531,-0.386 0.535,-0.355 0.535,-0.321C0.535,-0.309 0.536,-0.291 0.536,-0.272C0.536,-0.255 0.535,-0.237 0.527,-0.227C0.524,-0.221 0.517,-0.218 0.511,-0.216C0.503,-0.227 0.486,-0.244 0.476,-0.254C0.465,-0.265 0.451,-0.273 0.44,-0.282C0.411,-0.305 0.391,-0.332 0.366,-0.358Z" style="fill-rule:nonzero;"/>
                </g>
                <g transform="matrix(42.6667,0,0,42.6667,626.579,192.699)">
                    <path d="M0.131,-0.381C0.104,-0.368 0.082,-0.343 0.068,-0.316C0.046,-0.277 0.036,-0.231 0.036,-0.186C0.036,-0.166 0.038,-0.145 0.042,-0.126C0.055,-0.066 0.103,-0.016 0.157,0.004C0.181,0.012 0.209,0.019 0.236,0.019C0.268,0.019 0.3,0.009 0.322,-0.014C0.333,-0.025 0.341,-0.057 0.354,-0.057C0.358,-0.057 0.363,-0.054 0.369,-0.046C0.377,-0.034 0.371,-0.015 0.381,-0.005C0.385,-0 0.396,0.002 0.41,0.002C0.431,0.002 0.455,-0.003 0.46,-0.011C0.461,-0.014 0.462,-0.019 0.462,-0.025C0.462,-0.04 0.459,-0.059 0.459,-0.068L0.459,-0.084C0.459,-0.107 0.456,-0.131 0.454,-0.155C0.451,-0.176 0.451,-0.199 0.451,-0.221C0.451,-0.253 0.452,-0.286 0.454,-0.316C0.454,-0.326 0.457,-0.34 0.457,-0.352C0.457,-0.361 0.456,-0.369 0.451,-0.375C0.442,-0.384 0.423,-0.386 0.406,-0.386C0.396,-0.386 0.386,-0.386 0.38,-0.385C0.365,-0.384 0.363,-0.376 0.363,-0.37L0.363,-0.361C0.363,-0.353 0.361,-0.348 0.348,-0.348C0.327,-0.348 0.311,-0.376 0.295,-0.385C0.276,-0.394 0.251,-0.4 0.231,-0.401L0.224,-0.401C0.196,-0.401 0.154,-0.393 0.131,-0.381ZM0.15,-0.216C0.155,-0.246 0.17,-0.271 0.192,-0.287C0.207,-0.299 0.226,-0.306 0.247,-0.306C0.251,-0.306 0.256,-0.306 0.261,-0.305C0.285,-0.302 0.313,-0.287 0.33,-0.271C0.349,-0.251 0.359,-0.221 0.359,-0.192C0.359,-0.163 0.349,-0.134 0.329,-0.114C0.309,-0.094 0.274,-0.081 0.241,-0.081C0.227,-0.081 0.214,-0.084 0.202,-0.09C0.166,-0.108 0.148,-0.154 0.148,-0.194C0.148,-0.201 0.148,-0.209 0.15,-0.216Z" style="fill-rule:nonzero;"/>
                </g>
                <g transform="matrix(42.6667,0,0,42.6667,648.68,192.699)">
                    <path d="M0.196,-0.49C0.196,-0.5 0.194,-0.509 0.191,-0.515C0.185,-0.523 0.174,-0.525 0.164,-0.525C0.157,-0.525 0.151,-0.524 0.146,-0.524C0.112,-0.522 0.086,-0.527 0.086,-0.484C0.086,-0.468 0.094,-0.442 0.094,-0.421C0.094,-0.409 0.091,-0.397 0.083,-0.391C0.078,-0.386 0.072,-0.385 0.066,-0.385C0.061,-0.385 0.056,-0.386 0.051,-0.386C0.046,-0.386 0.042,-0.386 0.039,-0.384C0.023,-0.377 0.023,-0.361 0.021,-0.346C0.02,-0.34 0.019,-0.335 0.019,-0.329C0.019,-0.321 0.021,-0.312 0.029,-0.306C0.046,-0.294 0.071,-0.308 0.084,-0.291C0.092,-0.28 0.094,-0.26 0.094,-0.24C0.094,-0.221 0.092,-0.201 0.092,-0.189C0.092,-0.159 0.091,-0.13 0.09,-0.1C0.089,-0.084 0.082,-0.054 0.082,-0.031C0.082,-0.021 0.084,-0.011 0.088,-0.006C0.096,0.004 0.113,0.006 0.128,0.006C0.135,0.006 0.141,0.005 0.146,0.005C0.154,0.005 0.161,0.006 0.167,0.006C0.178,0.006 0.186,0.004 0.191,-0.009C0.193,-0.016 0.194,-0.021 0.194,-0.028C0.194,-0.042 0.189,-0.057 0.187,-0.072C0.186,-0.091 0.186,-0.111 0.186,-0.129C0.184,-0.154 0.184,-0.179 0.184,-0.204C0.184,-0.219 0.184,-0.235 0.185,-0.25C0.186,-0.261 0.186,-0.271 0.187,-0.281C0.194,-0.328 0.264,-0.28 0.264,-0.332L0.264,-0.356C0.264,-0.364 0.263,-0.372 0.257,-0.377C0.252,-0.381 0.247,-0.382 0.241,-0.382C0.231,-0.382 0.22,-0.378 0.21,-0.378C0.205,-0.378 0.2,-0.379 0.196,-0.383C0.19,-0.388 0.189,-0.4 0.189,-0.41L0.189,-0.425C0.189,-0.44 0.196,-0.467 0.196,-0.49Z" style="fill-rule:nonzero;"/>
                </g>
                <g transform="matrix(42.6667,0,0,42.6667,660.797,192.699)">
                    <path d="M0.166,-0.283C0.166,-0.298 0.166,-0.313 0.167,-0.328C0.167,-0.341 0.169,-0.35 0.169,-0.36C0.169,-0.375 0.165,-0.385 0.143,-0.385L0.138,-0.385C0.114,-0.384 0.075,-0.389 0.07,-0.356C0.068,-0.346 0.068,-0.337 0.068,-0.328C0.068,-0.303 0.071,-0.277 0.071,-0.253L0.071,-0.248C0.071,-0.223 0.069,-0.192 0.069,-0.161C0.069,-0.121 0.073,-0.081 0.091,-0.055C0.124,-0.008 0.183,0.015 0.241,0.015C0.319,0.015 0.396,-0.024 0.411,-0.101C0.419,-0.141 0.421,-0.18 0.421,-0.22C0.421,-0.256 0.42,-0.291 0.419,-0.326C0.419,-0.339 0.423,-0.351 0.423,-0.363C0.423,-0.366 0.422,-0.371 0.421,-0.374C0.416,-0.387 0.406,-0.391 0.395,-0.391C0.383,-0.391 0.369,-0.387 0.356,-0.387C0.353,-0.387 0.351,-0.387 0.348,-0.388C0.341,-0.389 0.335,-0.391 0.328,-0.391C0.322,-0.391 0.316,-0.39 0.311,-0.382C0.307,-0.376 0.306,-0.369 0.306,-0.36C0.306,-0.341 0.313,-0.318 0.314,-0.303C0.315,-0.268 0.321,-0.225 0.321,-0.184C0.321,-0.16 0.319,-0.136 0.311,-0.116C0.3,-0.091 0.273,-0.079 0.247,-0.079C0.239,-0.079 0.231,-0.08 0.224,-0.082C0.163,-0.101 0.17,-0.188 0.167,-0.238C0.166,-0.253 0.166,-0.268 0.166,-0.283Z" style="fill-rule:nonzero;"/>
                </g>
                <g transform="matrix(42.6667,0,0,42.6667,681.661,192.699)">
                    <path d="M0.074,-0.391C0.066,-0.386 0.061,-0.377 0.058,-0.365C0.057,-0.359 0.056,-0.352 0.056,-0.346C0.056,-0.311 0.066,-0.268 0.068,-0.251C0.069,-0.24 0.069,-0.228 0.069,-0.216C0.069,-0.186 0.067,-0.156 0.066,-0.126C0.064,-0.101 0.061,-0.074 0.061,-0.048C0.061,-0.039 0.061,-0.029 0.062,-0.021C0.065,-0.001 0.076,0.004 0.092,0.004C0.105,0.004 0.121,-0 0.134,-0L0.136,-0C0.145,0.001 0.152,0.003 0.157,0.003C0.165,0.003 0.169,-0 0.173,-0.011C0.175,-0.016 0.176,-0.022 0.176,-0.029C0.176,-0.039 0.174,-0.05 0.173,-0.058C0.169,-0.088 0.166,-0.119 0.166,-0.149C0.166,-0.171 0.168,-0.192 0.171,-0.214C0.177,-0.251 0.198,-0.3 0.242,-0.3C0.245,-0.3 0.248,-0.299 0.251,-0.299C0.264,-0.297 0.273,-0.295 0.281,-0.295C0.292,-0.295 0.299,-0.299 0.306,-0.316C0.311,-0.329 0.321,-0.351 0.321,-0.369C0.321,-0.376 0.32,-0.384 0.314,-0.39C0.306,-0.398 0.29,-0.401 0.275,-0.401C0.266,-0.401 0.259,-0.4 0.253,-0.399C0.221,-0.395 0.212,-0.377 0.189,-0.361C0.185,-0.358 0.185,-0.356 0.179,-0.354C0.17,-0.356 0.168,-0.359 0.168,-0.363L0.168,-0.367C0.168,-0.37 0.168,-0.371 0.167,-0.374C0.161,-0.386 0.149,-0.387 0.136,-0.387C0.129,-0.387 0.121,-0.386 0.115,-0.386C0.112,-0.386 0.11,-0.386 0.107,-0.387C0.099,-0.388 0.091,-0.392 0.083,-0.392C0.08,-0.392 0.077,-0.392 0.074,-0.391Z" style="fill-rule:nonzero;"/>
                </g>
                <g transform="matrix(42.6667,0,0,42.6667,695.784,192.699)">
                    <path d="M0.131,-0.381C0.104,-0.368 0.082,-0.343 0.068,-0.316C0.046,-0.277 0.036,-0.231 0.036,-0.186C0.036,-0.166 0.038,-0.145 0.042,-0.126C0.055,-0.066 0.103,-0.016 0.157,0.004C0.181,0.012 0.209,0.019 0.236,0.019C0.268,0.019 0.3,0.009 0.322,-0.014C0.333,-0.025 0.341,-0.057 0.354,-0.057C0.358,-0.057 0.363,-0.054 0.369,-0.046C0.377,-0.034 0.371,-0.015 0.381,-0.005C0.385,-0 0.396,0.002 0.41,0.002C0.431,0.002 0.455,-0.003 0.46,-0.011C0.461,-0.014 0.462,-0.019 0.462,-0.025C0.462,-0.04 0.459,-0.059 0.459,-0.068L0.459,-0.084C0.459,-0.107 0.456,-0.131 0.454,-0.155C0.451,-0.176 0.451,-0.199 0.451,-0.221C0.451,-0.253 0.452,-0.286 0.454,-0.316C0.454,-0.326 0.457,-0.34 0.457,-0.352C0.457,-0.361 0.456,-0.369 0.451,-0.375C0.442,-0.384 0.423,-0.386 0.406,-0.386C0.396,-0.386 0.386,-0.386 0.38,-0.385C0.365,-0.384 0.363,-0.376 0.363,-0.37L0.363,-0.361C0.363,-0.353 0.361,-0.348 0.348,-0.348C0.327,-0.348 0.311,-0.376 0.295,-0.385C0.276,-0.394 0.251,-0.4 0.231,-0.401L0.224,-0.401C0.196,-0.401 0.154,-0.393 0.131,-0.381ZM0.15,-0.216C0.155,-0.246 0.17,-0.271 0.192,-0.287C0.207,-0.299 0.226,-0.306 0.247,-0.306C0.251,-0.306 0.256,-0.306 0.261,-0.305C0.285,-0.302 0.313,-0.287 0.33,-0.271C0.349,-0.251 0.359,-0.221 0.359,-0.192C0.359,-0.163 0.349,-0.134 0.329,-0.114C0.309,-0.094 0.274,-0.081 0.241,-0.081C0.227,-0.081 0.214,-0.084 0.202,-0.09C0.166,-0.108 0.148,-0.154 0.148,-0.194C0.148,-0.201 0.148,-0.209 0.15,-0.216Z" style="fill-rule:nonzero;"/>
                </g>
                <g transform="matrix(42.6667,0,0,42.6667,717.885,192.699)">
                    <path d="M0.093,-0.657C0.082,-0.657 0.073,-0.654 0.068,-0.641C0.064,-0.63 0.062,-0.619 0.062,-0.607C0.062,-0.586 0.067,-0.565 0.068,-0.545C0.072,-0.476 0.071,-0.407 0.074,-0.337C0.075,-0.311 0.076,-0.285 0.076,-0.258C0.076,-0.216 0.074,-0.173 0.072,-0.131C0.071,-0.098 0.067,-0.066 0.066,-0.035L0.066,-0.031C0.066,-0.002 0.083,0.004 0.106,0.004C0.112,0.004 0.12,0.003 0.137,0.002C0.151,0.002 0.174,-0 0.181,-0.011C0.185,-0.017 0.186,-0.025 0.186,-0.033C0.186,-0.046 0.183,-0.059 0.183,-0.069C0.181,-0.097 0.178,-0.126 0.178,-0.154C0.178,-0.225 0.176,-0.294 0.176,-0.365L0.176,-0.429C0.176,-0.466 0.176,-0.502 0.18,-0.539C0.182,-0.564 0.187,-0.589 0.187,-0.615L0.187,-0.625C0.186,-0.649 0.172,-0.651 0.156,-0.651L0.136,-0.651C0.123,-0.651 0.107,-0.657 0.093,-0.657Z" style="fill-rule:nonzero;"/>
                </g>
                <g transform="matrix(42.6667,0,0,42.6667,739.005,192.699)">
                    <path d="M0.091,-0.465L0.093,-0.437L0.093,-0.417C0.093,-0.398 0.092,-0.379 0.092,-0.361C0.092,-0.353 0.092,-0.346 0.093,-0.34C0.094,-0.327 0.094,-0.315 0.094,-0.301C0.094,-0.251 0.09,-0.201 0.09,-0.15C0.09,-0.139 0.083,-0.094 0.083,-0.056C0.083,-0.022 0.088,0.007 0.106,0.007C0.106,0.007 0.107,0.006 0.109,0.006C0.117,0.005 0.126,0.003 0.135,0.003L0.139,0.003C0.15,0.003 0.161,0.005 0.171,0.005C0.181,0.005 0.189,0.003 0.196,-0.008C0.2,-0.016 0.201,-0.026 0.201,-0.035C0.201,-0.046 0.199,-0.059 0.199,-0.07L0.195,-0.166C0.195,-0.174 0.194,-0.183 0.194,-0.194C0.194,-0.217 0.196,-0.243 0.206,-0.258C0.218,-0.275 0.246,-0.278 0.27,-0.278C0.281,-0.278 0.291,-0.277 0.299,-0.277C0.328,-0.276 0.357,-0.273 0.387,-0.27C0.389,-0.27 0.391,-0.269 0.392,-0.269C0.431,-0.265 0.441,-0.26 0.441,-0.22C0.441,-0.202 0.447,-0.188 0.449,-0.171L0.449,-0.162C0.449,-0.15 0.447,-0.137 0.447,-0.125C0.447,-0.091 0.446,-0.059 0.445,-0.027C0.445,-0.002 0.459,0.005 0.48,0.005C0.487,0.005 0.496,0.004 0.505,0.004L0.516,0.004C0.544,0.004 0.549,-0.011 0.549,-0.036L0.549,-0.051C0.548,-0.059 0.548,-0.068 0.548,-0.076C0.548,-0.091 0.549,-0.105 0.549,-0.119C0.549,-0.127 0.548,-0.136 0.548,-0.146C0.547,-0.164 0.546,-0.182 0.546,-0.201C0.546,-0.247 0.549,-0.292 0.549,-0.337L0.549,-0.346C0.549,-0.376 0.552,-0.404 0.552,-0.433C0.552,-0.455 0.551,-0.476 0.551,-0.497C0.551,-0.508 0.551,-0.518 0.552,-0.529C0.554,-0.541 0.557,-0.555 0.557,-0.566C0.557,-0.581 0.552,-0.591 0.531,-0.596C0.52,-0.597 0.506,-0.599 0.493,-0.599C0.475,-0.599 0.456,-0.596 0.447,-0.581C0.442,-0.574 0.441,-0.566 0.441,-0.557C0.441,-0.54 0.447,-0.521 0.447,-0.505L0.447,-0.501C0.446,-0.491 0.446,-0.48 0.446,-0.47L0.446,-0.454C0.446,-0.438 0.446,-0.422 0.445,-0.406C0.441,-0.367 0.421,-0.366 0.389,-0.365L0.382,-0.365C0.361,-0.364 0.34,-0.363 0.318,-0.363C0.3,-0.363 0.281,-0.364 0.263,-0.366C0.243,-0.367 0.221,-0.362 0.208,-0.38C0.198,-0.393 0.196,-0.409 0.196,-0.426C0.196,-0.439 0.197,-0.453 0.197,-0.466C0.197,-0.497 0.205,-0.525 0.205,-0.554L0.205,-0.562C0.203,-0.601 0.179,-0.601 0.147,-0.603L0.13,-0.603C0.114,-0.603 0.096,-0.601 0.087,-0.589C0.083,-0.583 0.082,-0.575 0.082,-0.566C0.082,-0.549 0.086,-0.531 0.087,-0.517C0.089,-0.5 0.091,-0.482 0.091,-0.465Z" style="fill-rule:nonzero;"/>
                </g>
                <g transform="matrix(42.6667,0,0,42.6667,766.739,192.699)">
                    <path d="M0.041,-0.54C0.041,-0.528 0.043,-0.516 0.05,-0.506C0.064,-0.482 0.088,-0.472 0.112,-0.472C0.149,-0.472 0.186,-0.496 0.194,-0.533C0.195,-0.536 0.195,-0.541 0.195,-0.544C0.195,-0.584 0.152,-0.621 0.112,-0.621C0.108,-0.621 0.103,-0.62 0.099,-0.619C0.065,-0.611 0.041,-0.575 0.041,-0.54ZM0.094,-0.384C0.085,-0.384 0.076,-0.381 0.071,-0.369C0.066,-0.361 0.066,-0.351 0.066,-0.341C0.066,-0.318 0.072,-0.293 0.073,-0.273C0.074,-0.249 0.075,-0.224 0.075,-0.2C0.075,-0.159 0.073,-0.118 0.069,-0.078C0.067,-0.066 0.065,-0.05 0.065,-0.036C0.065,-0.018 0.069,-0.004 0.087,-0C0.095,0.002 0.114,0.004 0.132,0.004C0.151,0.004 0.169,0.002 0.174,-0.004C0.18,-0.011 0.182,-0.022 0.182,-0.036C0.182,-0.056 0.177,-0.08 0.176,-0.091C0.174,-0.121 0.172,-0.157 0.172,-0.183C0.173,-0.219 0.177,-0.256 0.177,-0.291L0.177,-0.311C0.177,-0.321 0.178,-0.331 0.178,-0.341C0.178,-0.351 0.177,-0.361 0.175,-0.369C0.171,-0.38 0.161,-0.382 0.15,-0.382C0.141,-0.382 0.131,-0.381 0.123,-0.381L0.119,-0.381C0.111,-0.381 0.102,-0.384 0.094,-0.384Z" style="fill-rule:nonzero;"/>
                </g>
                <g transform="matrix(42.6667,0,0,42.6667,777.192,192.699)">
                    <path d="M0.136,-0.388C0.111,-0.381 0.087,-0.371 0.069,-0.355C0.05,-0.337 0.037,-0.315 0.037,-0.286C0.037,-0.281 0.037,-0.277 0.038,-0.273C0.042,-0.226 0.078,-0.194 0.117,-0.173C0.141,-0.16 0.216,-0.148 0.216,-0.111C0.216,-0.108 0.215,-0.105 0.214,-0.101C0.208,-0.083 0.188,-0.076 0.169,-0.076C0.156,-0.076 0.143,-0.079 0.133,-0.084C0.117,-0.091 0.115,-0.108 0.096,-0.111C0.093,-0.112 0.09,-0.112 0.086,-0.112C0.075,-0.112 0.063,-0.109 0.054,-0.103C0.038,-0.095 0.024,-0.079 0.024,-0.062C0.024,-0.056 0.026,-0.049 0.032,-0.043C0.041,-0.032 0.062,-0.023 0.076,-0.016C0.09,-0.007 0.108,-0.002 0.124,0.002C0.136,0.005 0.151,0.008 0.167,0.008C0.186,0.008 0.206,0.005 0.221,-0C0.276,-0.016 0.302,-0.062 0.302,-0.113C0.302,-0.126 0.301,-0.141 0.297,-0.154C0.285,-0.201 0.232,-0.22 0.193,-0.24C0.173,-0.25 0.129,-0.263 0.129,-0.288C0.129,-0.293 0.131,-0.298 0.134,-0.304C0.141,-0.314 0.15,-0.317 0.16,-0.317C0.168,-0.317 0.177,-0.315 0.186,-0.312C0.199,-0.308 0.212,-0.295 0.226,-0.293C0.246,-0.293 0.263,-0.312 0.272,-0.326C0.276,-0.331 0.278,-0.337 0.278,-0.342C0.278,-0.354 0.268,-0.364 0.256,-0.373C0.246,-0.38 0.23,-0.388 0.218,-0.391C0.213,-0.392 0.207,-0.392 0.202,-0.392L0.192,-0.392C0.185,-0.392 0.178,-0.393 0.171,-0.393C0.159,-0.393 0.148,-0.391 0.136,-0.388Z" style="fill-rule:nonzero;"/>
                </g>
                <g transform="matrix(42.6667,0,0,42.6667,791.315,192.699)">
                    <path d="M0.196,-0.49C0.196,-0.5 0.194,-0.509 0.191,-0.515C0.185,-0.523 0.174,-0.525 0.164,-0.525C0.157,-0.525 0.151,-0.524 0.146,-0.524C0.112,-0.522 0.086,-0.527 0.086,-0.484C0.086,-0.468 0.094,-0.442 0.094,-0.421C0.094,-0.409 0.091,-0.397 0.083,-0.391C0.078,-0.386 0.072,-0.385 0.066,-0.385C0.061,-0.385 0.056,-0.386 0.051,-0.386C0.046,-0.386 0.042,-0.386 0.039,-0.384C0.023,-0.377 0.023,-0.361 0.021,-0.346C0.02,-0.34 0.019,-0.335 0.019,-0.329C0.019,-0.321 0.021,-0.312 0.029,-0.306C0.046,-0.294 0.071,-0.308 0.084,-0.291C0.092,-0.28 0.094,-0.26 0.094,-0.24C0.094,-0.221 0.092,-0.201 0.092,-0.189C0.092,-0.159 0.091,-0.13 0.09,-0.1C0.089,-0.084 0.082,-0.054 0.082,-0.031C0.082,-0.021 0.084,-0.011 0.088,-0.006C0.096,0.004 0.113,0.006 0.128,0.006C0.135,0.006 0.141,0.005 0.146,0.005C0.154,0.005 0.161,0.006 0.167,0.006C0.178,0.006 0.186,0.004 0.191,-0.009C0.193,-0.016 0.194,-0.021 0.194,-0.028C0.194,-0.042 0.189,-0.057 0.187,-0.072C0.186,-0.091 0.186,-0.111 0.186,-0.129C0.184,-0.154 0.184,-0.179 0.184,-0.204C0.184,-0.219 0.184,-0.235 0.185,-0.25C0.186,-0.261 0.186,-0.271 0.187,-0.281C0.194,-0.328 0.264,-0.28 0.264,-0.332L0.264,-0.356C0.264,-0.364 0.263,-0.372 0.257,-0.377C0.252,-0.381 0.247,-0.382 0.241,-0.382C0.231,-0.382 0.22,-0.378 0.21,-0.378C0.205,-0.378 0.2,-0.379 0.196,-0.383C0.19,-0.388 0.189,-0.4 0.189,-0.41L0.189,-0.425C0.189,-0.44 0.196,-0.467 0.196,-0.49Z" style="fill-rule:nonzero;"/>
                </g>
                <g transform="matrix(42.6667,0,0,42.6667,803.432,192.699)">
                    <path d="M0.426,-0.294C0.405,-0.331 0.381,-0.357 0.344,-0.378C0.316,-0.394 0.283,-0.401 0.25,-0.401C0.183,-0.401 0.114,-0.371 0.081,-0.318C0.056,-0.278 0.044,-0.23 0.044,-0.181C0.044,-0.166 0.045,-0.152 0.047,-0.138C0.061,-0.041 0.162,0.016 0.256,0.016C0.286,0.016 0.315,0.01 0.341,-0.001C0.417,-0.036 0.451,-0.111 0.451,-0.19C0.451,-0.205 0.45,-0.219 0.447,-0.234C0.445,-0.256 0.437,-0.275 0.426,-0.294ZM0.132,-0.193C0.132,-0.197 0.132,-0.201 0.133,-0.205C0.141,-0.266 0.194,-0.305 0.249,-0.305C0.276,-0.305 0.302,-0.296 0.325,-0.276C0.347,-0.255 0.365,-0.224 0.365,-0.192C0.365,-0.188 0.365,-0.184 0.364,-0.18C0.357,-0.14 0.331,-0.1 0.295,-0.081C0.281,-0.075 0.267,-0.071 0.252,-0.071C0.247,-0.071 0.241,-0.072 0.236,-0.073C0.214,-0.076 0.207,-0.08 0.192,-0.092C0.191,-0.093 0.19,-0.095 0.188,-0.096C0.171,-0.111 0.156,-0.121 0.145,-0.141C0.137,-0.158 0.132,-0.176 0.132,-0.193Z" style="fill-rule:nonzero;"/>
                </g>
                <g transform="matrix(42.6667,0,0,42.6667,824.637,192.699)">
                    <path d="M0.074,-0.391C0.066,-0.386 0.061,-0.377 0.058,-0.365C0.057,-0.359 0.056,-0.352 0.056,-0.346C0.056,-0.311 0.066,-0.268 0.068,-0.251C0.069,-0.24 0.069,-0.228 0.069,-0.216C0.069,-0.186 0.067,-0.156 0.066,-0.126C0.064,-0.101 0.061,-0.074 0.061,-0.048C0.061,-0.039 0.061,-0.029 0.062,-0.021C0.065,-0.001 0.076,0.004 0.092,0.004C0.105,0.004 0.121,-0 0.134,-0L0.136,-0C0.145,0.001 0.152,0.003 0.157,0.003C0.165,0.003 0.169,-0 0.173,-0.011C0.175,-0.016 0.176,-0.022 0.176,-0.029C0.176,-0.039 0.174,-0.05 0.173,-0.058C0.169,-0.088 0.166,-0.119 0.166,-0.149C0.166,-0.171 0.168,-0.192 0.171,-0.214C0.177,-0.251 0.198,-0.3 0.242,-0.3C0.245,-0.3 0.248,-0.299 0.251,-0.299C0.264,-0.297 0.273,-0.295 0.281,-0.295C0.292,-0.295 0.299,-0.299 0.306,-0.316C0.311,-0.329 0.321,-0.351 0.321,-0.369C0.321,-0.376 0.32,-0.384 0.314,-0.39C0.306,-0.398 0.29,-0.401 0.275,-0.401C0.266,-0.401 0.259,-0.4 0.253,-0.399C0.221,-0.395 0.212,-0.377 0.189,-0.361C0.185,-0.358 0.185,-0.356 0.179,-0.354C0.17,-0.356 0.168,-0.359 0.168,-0.363L0.168,-0.367C0.168,-0.37 0.168,-0.371 0.167,-0.374C0.161,-0.386 0.149,-0.387 0.136,-0.387C0.129,-0.387 0.121,-0.386 0.115,-0.386C0.112,-0.386 0.11,-0.386 0.107,-0.387C0.099,-0.388 0.091,-0.392 0.083,-0.392C0.08,-0.392 0.077,-0.392 0.074,-0.391Z" style="fill-rule:nonzero;"/>
                </g>
                <g transform="matrix(42.6667,0,0,42.6667,838.76,192.699)">
                    <path d="M0.055,-0.39C0.046,-0.39 0.039,-0.387 0.036,-0.376C0.035,-0.372 0.034,-0.368 0.034,-0.365C0.034,-0.338 0.06,-0.309 0.073,-0.289C0.109,-0.234 0.135,-0.173 0.164,-0.116C0.171,-0.102 0.181,-0.09 0.187,-0.076C0.189,-0.072 0.19,-0.067 0.19,-0.063C0.19,-0.051 0.184,-0.041 0.179,-0.029C0.165,0.004 0.148,0.039 0.131,0.072C0.116,0.104 0.096,0.131 0.079,0.162C0.075,0.17 0.071,0.179 0.071,0.184C0.071,0.19 0.074,0.194 0.081,0.197C0.086,0.199 0.091,0.199 0.096,0.199C0.11,0.199 0.126,0.196 0.136,0.195C0.149,0.195 0.159,0.199 0.17,0.199C0.173,0.199 0.177,0.198 0.181,0.197C0.201,0.191 0.199,0.174 0.206,0.158C0.217,0.126 0.227,0.094 0.24,0.063C0.279,-0.032 0.326,-0.121 0.374,-0.211L0.38,-0.222C0.398,-0.257 0.409,-0.294 0.427,-0.328C0.436,-0.344 0.443,-0.358 0.443,-0.368C0.443,-0.38 0.434,-0.386 0.409,-0.386C0.395,-0.386 0.381,-0.389 0.37,-0.389C0.353,-0.389 0.34,-0.384 0.331,-0.361C0.309,-0.303 0.282,-0.246 0.26,-0.187C0.253,-0.17 0.246,-0.164 0.241,-0.164C0.232,-0.164 0.225,-0.186 0.218,-0.207C0.21,-0.235 0.196,-0.261 0.183,-0.287C0.17,-0.314 0.167,-0.346 0.149,-0.371C0.137,-0.386 0.128,-0.39 0.118,-0.39C0.109,-0.39 0.098,-0.386 0.085,-0.386L0.079,-0.386C0.071,-0.387 0.062,-0.39 0.055,-0.39Z" style="fill-rule:nonzero;"/>
                </g>
            </g>
            <g transform="matrix(1,0,0,1,10,476.25)">
                <g transform="matrix(80,0,0,80,565.16,162.56)">
                    <path d="M0.146,-0.607C0.133,-0.607 0.123,-0.606 0.119,-0.596C0.116,-0.592 0.116,-0.586 0.115,-0.58C0.114,-0.57 0.112,-0.555 0.112,-0.541C0.112,-0.521 0.116,-0.502 0.139,-0.502C0.148,-0.502 0.16,-0.504 0.171,-0.504C0.183,-0.504 0.194,-0.502 0.201,-0.496C0.21,-0.488 0.212,-0.463 0.212,-0.436C0.212,-0.411 0.211,-0.384 0.211,-0.367L0.211,-0.36C0.212,-0.318 0.214,-0.277 0.214,-0.236C0.214,-0.214 0.213,-0.192 0.212,-0.171L0.206,-0.059C0.206,-0.045 0.202,-0.028 0.202,-0.012L0.202,-0.008C0.204,0.009 0.21,0.014 0.223,0.014C0.226,0.014 0.228,0.013 0.231,0.013L0.254,0.013C0.282,0.013 0.32,0.011 0.33,-0.006C0.334,-0.015 0.335,-0.026 0.335,-0.038C0.335,-0.065 0.329,-0.096 0.327,-0.114C0.32,-0.187 0.323,-0.262 0.32,-0.336C0.319,-0.351 0.318,-0.366 0.318,-0.381C0.318,-0.422 0.321,-0.466 0.324,-0.507C0.325,-0.526 0.332,-0.548 0.332,-0.569C0.332,-0.578 0.331,-0.587 0.326,-0.596C0.32,-0.609 0.306,-0.612 0.291,-0.612C0.276,-0.612 0.261,-0.609 0.249,-0.608C0.238,-0.606 0.227,-0.606 0.217,-0.606C0.2,-0.606 0.183,-0.607 0.166,-0.607L0.146,-0.607Z" style="fill-rule:nonzero;"/>
                </g>
            </g>
        </g>
    </g>
</svg>
